<?xml version="1.0" encoding="UTF-8" standalone="no"?>
<svg
   xmlns:dc="http://purl.org/dc/elements/1.1/"
   xmlns:cc="http://creativecommons.org/ns#"
   xmlns:rdf="http://www.w3.org/1999/02/22-rdf-syntax-ns#"
   xmlns:svg="http://www.w3.org/2000/svg"
   xmlns="http://www.w3.org/2000/svg"
   xmlns:sodipodi="http://sodipodi.sourceforge.net/DTD/sodipodi-0.dtd"
   xmlns:inkscape="http://www.inkscape.org/namespaces/inkscape"
   width="64"
   height="64"
   viewBox="0 0 64 64"
   id="svg2"
   version="1.1"
   inkscape:version="0.91 r13725"
   sodipodi:docname="changes-allow.svg">
  <metadata
     id="metadata10">
    <rdf:RDF>
      <cc:Work
         rdf:about="">
        <dc:format>image/svg+xml</dc:format>
        <dc:type
           rdf:resource="http://purl.org/dc/dcmitype/StillImage" />
        <dc:title />
      </cc:Work>
    </rdf:RDF>
  </metadata>
  <defs
     id="defs8" />
  <sodipodi:namedview
     pagecolor="#ffffff"
     bordercolor="#666666"
     borderopacity="1"
     objecttolerance="10"
     gridtolerance="10"
     guidetolerance="10"
     inkscape:pageopacity="0"
     inkscape:pageshadow="2"
     inkscape:window-width="1366"
     inkscape:window-height="704"
     id="namedview6"
     showgrid="false"
     inkscape:zoom="3.9999998"
     inkscape:cx="2.5481936"
     inkscape:cy="32.736337"
     inkscape:window-x="0"
     inkscape:window-y="27"
     inkscape:window-maximized="1"
     inkscape:current-layer="svg2">
    <inkscape:grid
       type="xygrid"
       id="grid4138" />
  </sodipodi:namedview>
  <path
     style="color:#bebebe;fill:#ecd14c;fill-opacity:1"
     d="M 8.5037791,27.517481 C 9.1706521,26.832475 10.853534,27.0249 10.853534,27.0249 l 28.29294,0 c 0,0 1.682855,-0.192407 2.349731,0.492604 0.666868,0.685006 0.479562,2.413623 0.479562,2.413623 l 0,25.068873 -33.9515273,0 0,-25.068873 c 0,0 -0.1873273,-1.72864 0.4795394,-2.413646 z"
     id="rect13312"
     inkscape:connector-curvature="0"
     sodipodi:nodetypes="zccsccccz" />
  <g
     id="g4185"
     transform="matrix(4,0,0,4,-204.89806,-129.41295)">
    <g
       id="g4161"
       style="fill:none;stroke:#ffffff">
      <g
         id="g4163"
         transform="translate(-38.38147,-1006.1003)"
         style="stroke-width:0.5" />
      <g
         id="g4169"
         transform="translate(-39.59798,-1004.3622)"
         style="stroke-width:0.40000001" />
    </g>
    <g
       id="g4175"
       transform="translate(0,-1004.3622)" />
  </g>
  <path
     style="opacity:1;fill:#808080;fill-opacity:1;stroke:none;stroke-width:4;stroke-linecap:round;stroke-linejoin:round;stroke-miterlimit:4;stroke-dasharray:none;stroke-opacity:1"
     d="M 45,7 A 12,12 0 0 0 33,19 l 0,8 6,0 0,-8 a 6,6 0 0 1 6,-6 6,6 0 0 1 6,6 l 0,8 6,0 0,-8 A 12,12 0 0 0 45,7 Z"
     id="path4152"
     inkscape:connector-curvature="0" />
</svg>
