<svg viewBox="0 0 24 24" xmlns="http://www.w3.org/2000/svg">
 <g transform="translate(-81 -525.36)">
  <path d="m93 533.36c-2.483 0-4.799.855-6.75 2.34l4.5 6.439c.65-.495 1.422-.779 2.25-.779.828 0 1.6.284 2.25.779l4.5-6.439c-1.951-1.485-4.267-2.34-6.75-2.34z" fill="#ececec" opacity=".4"/>
  <path d="m93 529.36c-3.31 0-6.399 1.142-9 3.121l2.25 3.219c1.951-1.485 4.267-2.34 6.75-2.34 2.483 0 4.799.855 6.75 2.34l2.25-3.219c-2.601-1.979-5.69-3.121-9-3.121z" fill="#ececec" opacity=".75"/>
  <path d="m95.25 542.14c-.65-.495-1.422-.78-2.25-.78-.828 0-1.6.285-2.25.78l2.25 3.22z" fill="#ececec" opacity=".75"/>
 </g>
</svg>
