<svg viewBox="0 0 24 24" xmlns="http://www.w3.org/2000/svg">
 <g transform="translate(-81 -525.36)">
  <path d="m93 529.36c-3.31 0-6.399 1.142-9 3.121l4.5 6.439c1.301-.99 2.845-1.561 4.5-1.561 1.655 0 3.199.571 4.5 1.561l4.5-6.439c-2.601-1.979-5.69-3.121-9-3.121z" fill="#ececec" opacity=".4"/>
  <path d="m95.25 542.14c-.65-.495-1.422-.78-2.25-.78-.828 0-1.6.285-2.25.78l2.25 3.22z" fill="#ececec" opacity=".4"/>
  <path d="m93 537.36c-1.655 0-3.199.571-4.5 1.561l2.25 3.219c.65-.495 1.422-.779 2.25-.779.828 0 1.6.284 2.25.779l2.25-3.219c-1.301-.99-2.845-1.561-4.5-1.561z" fill="#ececec"/>
 </g>
</svg>
