<svg xmlns="http://www.w3.org/2000/svg" viewBox="0 0 48 48" xmlns:xlink="http://www.w3.org/1999/xlink">
<g style="fill:#cf9545" transform="matrix(.75807 0 0 .75807 5.47163 -755.21342)">
<rect width="28.001" x="10.43" y="1027.421" rx="0" height="19.799"/>
<rect width="8.91" x="-617.143" y="828.104" rx="0" height="1.945" transform="matrix(.79989 -.60015 .60015 .79989 0 0)"/>
<rect width="8.91" x="647.335" y="-800.711" rx="0" height="1.945" transform="matrix(.79989 .60015 .60015 -.79989 0 0)"/>
<rect width="4.638" x="320.275" y="967.334" height="4.638" transform="rotate(17.57126)"/>
<rect width="7.625" x="-267.613" y="974.776" height="7.625" transform="matrix(.95988 -.28041 .28041 .95988 0 0)"/>
<path d="m 28.749998,12.500002 -2.183013,2.781089 -3.5,-0.5 -1.316987,-3.281089 2.183013,-2.781089 3.5,0.5 z" transform="translate(2 1009.9872)"/>
<path d="m 28.749998,12.500002 -2.231166,0.730878 -0.662803,2.252328 -1.384575,-1.896111 -2.346908,0.06564 1.375452,-1.90274 -0.787667,-2.211757 2.234651,0.720154 1.860104,-1.4325864 0.0056,2.3478194 z" transform="translate(8.375 1003.1122)"/>
</g>
</svg>
