<?xml version="1.0" encoding="UTF-8" standalone="no"?>
<svg
   xmlns:dc="http://purl.org/dc/elements/1.1/"
   xmlns:cc="http://creativecommons.org/ns#"
   xmlns:rdf="http://www.w3.org/1999/02/22-rdf-syntax-ns#"
   xmlns:svg="http://www.w3.org/2000/svg"
   xmlns="http://www.w3.org/2000/svg"
   xmlns:sodipodi="http://sodipodi.sourceforge.net/DTD/sodipodi-0.dtd"
   xmlns:inkscape="http://www.inkscape.org/namespaces/inkscape"
   width="22"
   height="22"
   viewBox="0 0 22 22"
   id="svg2"
   version="1.1"
   inkscape:version="0.91 r13725"
   sodipodi:docname="eog-image-gallery1.svg">
  <metadata
     id="metadata12">
    <rdf:RDF>
      <cc:Work
         rdf:about="">
        <dc:format>image/svg+xml</dc:format>
        <dc:type
           rdf:resource="http://purl.org/dc/dcmitype/StillImage" />
        <dc:title />
      </cc:Work>
    </rdf:RDF>
  </metadata>
  <defs
     id="defs10" />
  <sodipodi:namedview
     pagecolor="#ffffff"
     bordercolor="#666666"
     borderopacity="1"
     objecttolerance="10"
     gridtolerance="10"
     guidetolerance="10"
     inkscape:pageopacity="0"
     inkscape:pageshadow="2"
     inkscape:window-width="1366"
     inkscape:window-height="704"
     id="namedview8"
     showgrid="true"
     inkscape:zoom="16"
     inkscape:cx="3.6305164"
     inkscape:cy="11.333262"
     inkscape:window-x="0"
     inkscape:window-y="27"
     inkscape:window-maximized="1"
     inkscape:current-layer="svg2">
    <inkscape:grid
       type="xygrid"
       id="grid4140" />
  </sodipodi:namedview>
  <rect
     style="opacity:1;fill:#b58900;fill-opacity:1;stroke:none;stroke-width:0.2;stroke-linecap:butt;stroke-linejoin:round;stroke-miterlimit:4;stroke-dasharray:none;stroke-opacity:0.61660061"
     id="rect4148"
     width="10"
     height="10"
     x="0"
     y="2.6226044e-06"
     rx="1"
     ry="1" />
  <rect
     y="2.6226044e-06"
     x="12"
     height="10"
     width="10"
     id="rect4150"
     style="opacity:1;fill:#268bd2;fill-opacity:1;stroke:none;stroke-width:0.2;stroke-linecap:butt;stroke-linejoin:round;stroke-miterlimit:4;stroke-dasharray:none;stroke-opacity:0.61660061"
     ry="1"
     rx="1" />
  <rect
     style="opacity:1;fill:#db3330;fill-opacity:1;stroke:none;stroke-width:0.2;stroke-linecap:butt;stroke-linejoin:round;stroke-miterlimit:4;stroke-dasharray:none;stroke-opacity:0.61660061"
     id="rect4152"
     width="10"
     height="10"
     x="12"
     y="12"
     ry="1"
     rx="1" />
  <rect
     y="12"
     x="0"
     height="10"
     width="10"
     id="rect4154"
     style="opacity:1;fill:#4caf50;fill-opacity:1;stroke:none;stroke-width:0.2;stroke-linecap:butt;stroke-linejoin:round;stroke-miterlimit:4;stroke-dasharray:none;stroke-opacity:0.61660061"
     ry="1"
     rx="1" />
  <path
     style="fill:#ffffff;fill-opacity:1"
     d="M 15.8,2.7000001 14,5.3015625 14,8 20,8 20,5.8199998 18.8,3.9000001 17.6,5.0999998 Z"
     id="path85"
     inkscape:connector-curvature="0"
     sodipodi:nodetypes="cccccccc" />
  <path
     style="opacity:1;fill:#ffffff;fill-opacity:1;fill-rule:nonzero;stroke:none"
     d="m 4.9601563,14 c -0.7658046,0 -1.3875,0.585386 -1.3875,1.307813 0,0.03553 0.00145,0.07228 0.0047,0.107808 C 3.4696012,15.390481 3.3604401,15.376006 3.2492266,15.375781 2.5750146,15.383341 2,15.96351 2,16.685938 c 0,0.54038 0.3517888,1.023546 0.8859374,1.21875 -0.1601292,0.218272 -0.2456322,0.477394 -0.2460937,0.742969 0,0.722429 0.6214641,1.307582 1.3875,1.307813 0.318874,-4.31e-4 0.6271025,-0.103081 0.8742189,-0.292969 C 5.1558318,19.878929 5.486125,19.999308 5.8296874,20 6.5959539,20 7.2148437,19.412732 7.2148437,18.689844 7.2144122,18.445498 7.1411923,18.205637 7.0039062,17.998438 7.5938921,17.834617 7.9997686,17.324595 8,16.744533 8,16.021874 7.538594,15.446641 6.4742187,15.436719 c -0.045223,0 -0.090943,4.87e-4 -0.1359375,0.0047 0.00554,-0.04453 0.00868,-0.0886 0.00937,-0.133593 0,-0.722889 -0.6203094,-1.308044 -1.3874999,-1.307814 z M 5,16.039062 A 1.08,1.08 0 0 1 6.0804686,17.119532 1.08,1.08 0 0 1 5,18.2 1.08,1.08 0 0 1 3.9195313,17.119532 1.08,1.08 0 0 1 5,16.039062 Z"
     id="path35"
     inkscape:connector-curvature="0" />
  <path
     inkscape:connector-curvature="0"
     d="m 15.634799,16.9976 c 0.1908,0.234399 0.394401,0.524799 0.240801,0.836799 C 15.400001,18.8 14,18.400001 14,20 l 6,0 c 0,-1.599999 -1.400001,-1.2 -1.8756,-2.165601 -0.1536,-0.312 0.09,-0.5748 0.240801,-0.836799 0.9168,-1.590801 0.234798,-2.997999 -1.365201,-2.997999 -1.599999,0 -2.254401,1.9044 -1.365201,2.997999 z"
     style="fill:#ffffff;fill-opacity:1"
     id="path47" />
  <path
     inkscape:connector-curvature="0"
     style="fill:#ffffff;fill-opacity:1"
     d="M 1.75,5 3,5 3,8 4,8 4,5 6,5 6,8 7,8 7,5 8.25,5 5,2.0000003 Z"
     id="path6"
     sodipodi:nodetypes="cccccccccccc" />
</svg>
