<?xml version="1.0" encoding="UTF-8" standalone="no"?>
<svg
   xmlns:dc="http://purl.org/dc/elements/1.1/"
   xmlns:cc="http://creativecommons.org/ns#"
   xmlns:rdf="http://www.w3.org/1999/02/22-rdf-syntax-ns#"
   xmlns:svg="http://www.w3.org/2000/svg"
   xmlns="http://www.w3.org/2000/svg"
   xmlns:sodipodi="http://sodipodi.sourceforge.net/DTD/sodipodi-0.dtd"
   xmlns:inkscape="http://www.inkscape.org/namespaces/inkscape"
   width="22"
   height="22"
   viewBox="0 0 17.600001 17.600001"
   version="1.1"
   id="svg2"
   inkscape:version="0.91 r"
   sodipodi:docname="stock_video-conferencing.svg">
  <metadata
     id="metadata17">
    <rdf:RDF>
      <cc:Work
         rdf:about="">
        <dc:format>image/svg+xml</dc:format>
        <dc:type
           rdf:resource="http://purl.org/dc/dcmitype/StillImage" />
        <dc:title />
      </cc:Work>
    </rdf:RDF>
  </metadata>
  <defs
     id="defs15" />
  <sodipodi:namedview
     pagecolor="#ffffff"
     bordercolor="#666666"
     borderopacity="1"
     objecttolerance="10"
     gridtolerance="10"
     guidetolerance="10"
     inkscape:pageopacity="0"
     inkscape:pageshadow="2"
     inkscape:window-width="1920"
     inkscape:window-height="1056"
     id="namedview13"
     showgrid="true"
     inkscape:zoom="27.812866"
     inkscape:cx="6.0339729"
     inkscape:cy="15.537566"
     inkscape:window-x="0"
     inkscape:window-y="24"
     inkscape:window-maximized="1"
     inkscape:current-layer="svg2"
     units="px">
    <inkscape:grid
       type="xygrid"
       id="grid4178" />
  </sodipodi:namedview>
  <path
     inkscape:connector-curvature="0"
     id="path5"
     d="m 7.2,12 3.2,0 0,4 -3.2,0 z m 0,0"
     style="fill:#2b2b2b;fill-opacity:1;fill-rule:nonzero;stroke:none" />
  <path
     inkscape:connector-curvature="0"
     id="path7"
     d="m 8.8,1.1999988 c -3.316406,0 -6,2.6875 -6,6 0,3.3125002 2.683594,6.0000002 6,6.0000002 3.3125,0 6,-2.6875 6,-6.0000002 0,-3.3125 -2.6875,-6 -6,-6 z m 0,3.398438 c 1.433594,0 2.597657,1.164062 2.597657,2.601562 0,1.4375 -1.164063,2.6015622 -2.597657,2.6015622 -1.4375,0 -2.601562,-1.1640622 -2.601562,-2.6015622 0,-1.4375 1.164062,-2.601562 2.601562,-2.601562 z m 0,0"
     style="fill:#878787;fill-opacity:1;fill-rule:nonzero;stroke:none" />
  <path
     inkscape:connector-curvature="0"
     id="path9"
     d="m 4.909376,15.519219 c 0.109374,-0.425625 7.667968,-0.425625 7.777343,0 C 12.8,15.944845 12.8,16.8 12.8,16.8 l -8,0 c 0,0 0,-0.855155 0.109376,-1.280781 z m 0,0"
     style="fill:#878787;fill-opacity:1;fill-rule:nonzero;stroke:none" />
  <path
     inkscape:connector-curvature="0"
     id="path11"
     d="M 8.8019533,4.3999996 C 7.2544318,4.3999996 6,5.6535559 6,7.1999996 6,8.7464433 7.2544318,10 8.8019533,10 10.345568,10 11.6,8.7464433 11.6,7.1999996 c 0,-1.5464437 -1.254432,-2.8 -2.7980467,-2.8 z m -0.023447,0.8005577 c 1.1606417,0 2.0242837,0.8591354 2.0242837,2.0189679 0,1.1598334 -0.863642,1.9799164 -2.0242837,1.9799164 -1.1606416,0 -1.9773903,-0.820083 -1.9773903,-1.9799164 0,-1.1598325 0.8167487,-2.0189679 1.9773903,-2.0189679 z m 0,0"
     style="fill:#2b2b2b;fill-opacity:1;fill-rule:nonzero;stroke:none" />
</svg>
