<?xml version="1.0" encoding="UTF-8" standalone="no"?>
<!-- Created with Inkscape (http://www.inkscape.org/) -->

<svg
   xmlns:dc="http://purl.org/dc/elements/1.1/"
   xmlns:cc="http://creativecommons.org/ns#"
   xmlns:rdf="http://www.w3.org/1999/02/22-rdf-syntax-ns#"
   xmlns:svg="http://www.w3.org/2000/svg"
   xmlns="http://www.w3.org/2000/svg"
   xmlns:sodipodi="http://sodipodi.sourceforge.net/DTD/sodipodi-0.dtd"
   xmlns:inkscape="http://www.inkscape.org/namespaces/inkscape"
   id="svg3208"
   height="16"
   width="16"
   version="1.0"
   inkscape:version="0.91 r"
   sodipodi:docname="nm-stage01-connecting05.svg">
  <defs
     id="defs14050" />
  <sodipodi:namedview
     pagecolor="#ffffff"
     bordercolor="#666666"
     borderopacity="1"
     objecttolerance="10"
     gridtolerance="10"
     guidetolerance="10"
     inkscape:pageopacity="0"
     inkscape:pageshadow="2"
     inkscape:window-width="1188"
     inkscape:window-height="650"
     id="namedview14048"
     showgrid="false"
     inkscape:zoom="6.9532167"
     inkscape:cx="-5.6910529"
     inkscape:cy="16.616215"
     inkscape:window-x="0"
     inkscape:window-y="34"
     inkscape:window-maximized="0"
     inkscape:current-layer="svg3208" />
  <metadata
     id="metadata17">
    <rdf:RDF>
      <cc:Work
         rdf:about="">
        <dc:format>image/svg+xml</dc:format>
        <dc:type
           rdf:resource="http://purl.org/dc/dcmitype/StillImage" />
      </cc:Work>
    </rdf:RDF>
  </metadata>
  <path
     style="color:#000000;line-height:normal;opacity:0.4;fill:#ececec"
     d="M 7.9999984,2.495 C 5.4254786,2.495 3.0232886,3.3726521 1,4.8940923 L 1.136255,5.1158598 2.4476871,6.9504763 C 4.0776721,5.7930107 6.0659,5.114972 8.0170357,5.1158598 9.9681721,5.1167053 11.940572,5.7954088 13.569348,6.9504763 L 14.863754,5.1158598 15,4.8940923 C 12.976711,3.3726521 10.574521,2.495 7.9999984,2.495 Z"
     id="path8424"
     inkscape:connector-curvature="0" />
  <path
     style="color:#000000;line-height:normal;opacity:0.6;fill:#ececec"
     d="m 8.016975,5.9626701 c -1.863995,0 -3.6080543,0.5992878 -5.1094929,1.633 L 4.1507957,9.3496386 C 5.30318,8.6230143 6.6260307,8.2004927 8.016975,8.2004927 c 1.3909342,0 2.700101,0.4225216 3.849143,1.1491459 l 1.243313,-1.7539685 c -1.496407,-1.0337122 -3.2284696,-1.633 -5.092456,-1.633 z"
     id="path8426"
     inkscape:connector-curvature="0" />
  <path
     style="color:#000000;line-height:normal;opacity:0.8;fill:#ececec"
     d="m 8.016975,9.0472323 c -1.2229,0 -2.38462,0.3569041 -3.4063314,0.9677077 l 1.2773771,1.794297 c 0.65415,-0.317788 1.3648172,-0.504023 2.1119179,-0.504023 0.75208,0 1.4727906,0.182203 2.1289524,0.504023 L 11.389233,10.01494 C 10.373962,9.4091786 9.2344663,9.0472323 8.016975,9.0472323 Z"
     id="path8428"
     inkscape:connector-curvature="0" />
  <path
     style="color:#000000;line-height:normal;opacity:0.4;fill:#ececec"
     d="m 7.9999984,12.172123 c -0.5700442,0 -1.1094813,0.132467 -1.6179963,0.342726 L 7.9999984,14.793 9.6180064,12.494689 c -0.50428,-0.207413 -1.0520043,-0.322566 -1.618008,-0.322566 z"
     id="path8430"
     inkscape:connector-curvature="0" />
</svg>
