<?xml version="1.0" encoding="UTF-8" standalone="no"?>
<!-- Created with Inkscape (http://www.inkscape.org/) -->

<svg
   xmlns:dc="http://purl.org/dc/elements/1.1/"
   xmlns:cc="http://creativecommons.org/ns#"
   xmlns:rdf="http://www.w3.org/1999/02/22-rdf-syntax-ns#"
   xmlns:svg="http://www.w3.org/2000/svg"
   xmlns="http://www.w3.org/2000/svg"
   xmlns:sodipodi="http://sodipodi.sourceforge.net/DTD/sodipodi-0.dtd"
   xmlns:inkscape="http://www.inkscape.org/namespaces/inkscape"
   id="svg3208"
   height="16"
   width="16"
   version="1.0"
   inkscape:version="0.91 r"
   sodipodi:docname="nm-stage01-connecting06.svg">
  <defs
     id="defs14778" />
  <sodipodi:namedview
     pagecolor="#ffffff"
     bordercolor="#666666"
     borderopacity="1"
     objecttolerance="10"
     gridtolerance="10"
     guidetolerance="10"
     inkscape:pageopacity="0"
     inkscape:pageshadow="2"
     inkscape:window-width="1366"
     inkscape:window-height="747"
     id="namedview14776"
     showgrid="false"
     inkscape:zoom="6.9532167"
     inkscape:cx="-17.352139"
     inkscape:cy="16.373608"
     inkscape:window-x="0"
     inkscape:window-y="21"
     inkscape:window-maximized="1"
     inkscape:current-layer="svg3208" />
  <metadata
     id="metadata17">
    <rdf:RDF>
      <cc:Work
         rdf:about="">
        <dc:format>image/svg+xml</dc:format>
        <dc:type
           rdf:resource="http://purl.org/dc/dcmitype/StillImage" />
      </cc:Work>
    </rdf:RDF>
  </metadata>
  <path
     style="color:#000000;line-height:normal;opacity:0.4;fill:#ececec"
     d="M 7.9999984,2.495 C 5.4254786,2.495 3.0232886,3.3726528 1,4.8940921 L 1.136255,5.1158596 2.4476871,6.9504762 C 4.0776721,5.7930101 6.0659,5.1149718 8.0170357,5.1158596 9.9681721,5.1167051 11.940572,5.795409 13.569348,6.9504762 L 14.863754,5.1158596 15,4.8940921 C 12.976711,3.3726528 10.574521,2.495 7.9999984,2.495 Z"
     id="path8424"
     inkscape:connector-curvature="0" />
  <path
     style="color:#000000;line-height:normal;opacity:0.8;fill:#ececec"
     d="m 8.016975,5.9626702 c -1.863995,0 -3.6080543,0.5992884 -5.1094929,1.6329998 L 4.1507957,9.349639 C 5.30318,8.623014 6.6260307,8.2004925 8.016975,8.2004925 c 1.3909342,0 2.700101,0.4225215 3.849143,1.1491465 L 13.109431,7.59567 C 11.613024,6.5619586 9.8809614,5.9626702 8.016975,5.9626702 Z"
     id="path8426"
     inkscape:connector-curvature="0" />
  <path
     style="color:#000000;line-height:normal;opacity:0.6;fill:#ececec"
     d="m 8.016975,9.0472327 c -1.2229,0 -2.38462,0.3569041 -3.4063314,0.9677083 l 1.2773771,1.794296 c 0.65415,-0.317788 1.3648172,-0.504022 2.1119179,-0.504022 0.75208,0 1.4727906,0.182202 2.1289524,0.504022 l 1.260342,-1.794296 C 10.373962,9.409179 9.2344663,9.0472327 8.016975,9.0472327 Z"
     id="path8428"
     inkscape:connector-curvature="0" />
  <path
     style="color:#000000;line-height:normal;opacity:0.4;fill:#ececec"
     d="m 7.9999984,12.172123 c -0.5700442,0 -1.1094813,0.132467 -1.6179963,0.342726 L 7.9999984,14.793 9.6180064,12.494688 c -0.50428,-0.207412 -1.0520043,-0.322565 -1.618008,-0.322565 z"
     id="path8430"
     inkscape:connector-curvature="0" />
</svg>
