<?xml version="1.0" encoding="UTF-8" standalone="no"?>
<!-- Created with Inkscape (http://www.inkscape.org/) -->

<svg
   xmlns:dc="http://purl.org/dc/elements/1.1/"
   xmlns:cc="http://creativecommons.org/ns#"
   xmlns:rdf="http://www.w3.org/1999/02/22-rdf-syntax-ns#"
   xmlns:svg="http://www.w3.org/2000/svg"
   xmlns="http://www.w3.org/2000/svg"
   xmlns:sodipodi="http://sodipodi.sourceforge.net/DTD/sodipodi-0.dtd"
   xmlns:inkscape="http://www.inkscape.org/namespaces/inkscape"
   id="svg3208"
   height="16"
   width="16"
   version="1.0"
   inkscape:version="0.91 r"
   sodipodi:docname="nm-vpn-connecting12.svg">
  <defs
     id="defs19089" />
  <sodipodi:namedview
     pagecolor="#ffffff"
     bordercolor="#666666"
     borderopacity="1"
     objecttolerance="10"
     gridtolerance="10"
     guidetolerance="10"
     inkscape:pageopacity="0"
     inkscape:pageshadow="2"
     inkscape:window-width="1366"
     inkscape:window-height="747"
     id="namedview19087"
     showgrid="false"
     inkscape:zoom="37.9375"
     inkscape:cx="8"
     inkscape:cy="6.9456343"
     inkscape:window-x="0"
     inkscape:window-y="21"
     inkscape:window-maximized="1"
     inkscape:current-layer="svg3208" />
  <metadata
     id="metadata17">
    <rdf:RDF>
      <cc:Work
         rdf:about="">
        <dc:format>image/svg+xml</dc:format>
        <dc:type
           rdf:resource="http://purl.org/dc/dcmitype/StillImage" />
      </cc:Work>
    </rdf:RDF>
  </metadata>
  <!-- imported from '../../status/22/nm-vpn-lock.svg' -->
  <path
     style="color:#000000;line-height:normal;opacity:0.75;fill:#ececec"
     d="M 7.9999984,2.495 C 5.4254786,2.495 3.0232886,3.3726521 1,4.8940925 L 1.136255,5.1158601 2.4476871,6.9504764 C 4.0776721,5.793011 6.0659,5.1149723 8.0170357,5.1158601 9.9681721,5.1167055 11.940572,5.7954091 13.569348,6.9504764 L 14.863754,5.1158601 15,4.8940925 C 12.976711,3.3726521 10.574521,2.495 7.9999984,2.495 Z"
     id="path8424"
     inkscape:connector-curvature="0" />
  <path
     style="color:#000000;line-height:normal;opacity:0.4;fill:#ececec"
     d="m 8.016975,5.9626703 c -1.863995,0 -3.6080543,0.5992877 -5.1094929,1.6329998 L 4.1507957,9.3496387 C 5.30318,8.6230144 6.6260307,8.2004928 8.016975,8.2004928 c 1.3909342,0 2.700101,0.4225216 3.849143,1.1491459 L 13.109431,7.5956701 C 11.613024,6.561958 9.8809614,5.9626703 8.016975,5.9626703 Z"
     id="path8426"
     inkscape:connector-curvature="0" />
  <path
     style="color:#000000;line-height:normal;opacity:0.4;fill:#ececec"
     d="m 8.016975,9.0472324 c -1.2229,0 -2.38462,0.3569041 -3.4063314,0.9677076 l 1.2773771,1.794297 c 0.65415,-0.317788 1.3648172,-0.504023 2.1119179,-0.504023 0.75208,0 1.4727906,0.182203 2.1289524,0.504023 L 11.389233,10.01494 C 10.373962,9.4091787 9.2344663,9.0472324 8.016975,9.0472324 Z"
     id="path8428"
     inkscape:connector-curvature="0" />
  <path
     style="color:#000000;line-height:normal;opacity:0.75;fill:#ececec"
     d="m 7.9999984,12.172123 c -0.5700442,0 -1.1094813,0.132467 -1.6179963,0.342726 L 7.9999984,14.793 9.6180064,12.494689 c -0.50428,-0.207413 -1.0520043,-0.322566 -1.618008,-0.322566 z"
     id="path8430"
     inkscape:connector-curvature="0" />
  <path
     inkscape:connector-curvature="0"
     d="m 13.8185,9.453 c -0.805701,0 -1.454333,0.662752 -1.454333,1.477553 l 0,0.704947 c -0.402851,0 -0.727167,0.324465 -0.727167,0.7275 l 0,2.1825 c 0,0.403035 0.324316,0.7275 0.727167,0.7275 l 2.908666,0 C 15.675684,15.273 16,14.948535 16,14.5455 l 0,-2.1825 c 0,-0.403035 -0.324316,-0.7275 -0.727167,-0.7275 l 0,-0.704947 C 15.272833,10.115752 14.624201,9.453 13.8185,9.453 Z m 0,0.7275 c 0.40285,0 0.727167,0.321555 0.727167,0.7275 l 0,0.7275 -1.454334,0 0,-0.7275 c 0,-0.405945 0.324317,-0.7275 0.727167,-0.7275 z"
     style="fill:#ececec;fill-opacity:1"
     id="rect2822" />
</svg>
