<svg width="24" xmlns="http://www.w3.org/2000/svg" height="24" viewBox="0 0 24 24" xmlns:xlink="http://www.w3.org/1999/xlink">
<path style="fill:#c19553" d="M 4 0.5 C 3.484375 0.5 3 0.984375 3 1.5 L 3 22.5 C 3 22.984375 3.515625 23.5 4 23.5 L 20 23.5 C 20.484375 23.5 21 22.984375 21 22.5 L 21 7 L 14.5 0.5 Z "/>
<path style="fill:#000;fill-opacity:.196" d="M 14.5 6 L 14.53125 6.03125 L 14.609375 6 Z M 15.5 7 L 21 12.5 L 21 7 Z "/>
<path style="fill:#fff;fill-opacity:.392" d="M 14.5 0.5 L 21 7 L 15.5 7 C 15.015625 7 14.5 6.484375 14.5 6 Z "/>
<path style="fill:#000;fill-opacity:.196" d="M 3 17.5 L 3 22.5 C 3 22.984375 3.515625 23.5 4 23.5 L 20 23.5 C 20.484375 23.5 21 22.984375 21 22.5 L 21 17.5 Z "/>
<g style="fill:#fff">
<path d="M 9 0.5 L 9 2.5 L 11 2.5 L 11 0.5 Z M 9 2.5 L 7 2.5 L 7 4.5 L 9 4.5 Z M 9 4.5 L 9 6.5 L 11 6.5 L 11 4.5 Z M 9 6.5 L 7 6.5 L 7 8.5 L 9 8.5 Z M 9 8.5 L 9 10.5 L 11 10.5 L 11 8.5 Z M 7 11.5 L 7 15.5 L 11 15.5 L 11 11.5 Z "/>
<path d="M 7.183594 21.863281 C 7.308594 21.863281 7.414062 21.851562 7.496094 21.824219 C 7.582031 21.796875 7.648438 21.757812 7.699219 21.714844 C 7.75 21.664062 7.78125 21.609375 7.796875 21.550781 C 7.816406 21.492188 7.828125 21.429688 7.828125 21.367188 C 7.828125 21.289062 7.804688 21.21875 7.761719 21.15625 C 7.714844 21.09375 7.660156 21.039062 7.589844 20.996094 C 7.519531 20.945312 7.441406 20.902344 7.355469 20.867188 C 7.269531 20.824219 7.183594 20.785156 7.097656 20.753906 C 6.980469 20.710938 6.863281 20.664062 6.738281 20.613281 C 6.617188 20.558594 6.503906 20.488281 6.398438 20.40625 C 6.300781 20.324219 6.21875 20.222656 6.152344 20.105469 C 6.089844 19.980469 6.054688 19.828125 6.054688 19.644531 C 6.054688 19.285156 6.171875 19.003906 6.398438 18.804688 C 6.632812 18.601562 6.953125 18.5 7.359375 18.5 C 7.59375 18.5 7.796875 18.527344 7.96875 18.582031 C 8.148438 18.632812 8.292969 18.695312 8.414062 18.761719 L 8.191406 19.347656 C 8.089844 19.289062 7.972656 19.242188 7.847656 19.199219 C 7.722656 19.160156 7.582031 19.136719 7.417969 19.136719 C 7.015625 19.136719 6.8125 19.285156 6.8125 19.578125 C 6.8125 19.652344 6.832031 19.71875 6.875 19.777344 C 6.914062 19.828125 6.964844 19.878906 7.027344 19.925781 C 7.09375 19.964844 7.164062 20.003906 7.242188 20.035156 C 7.324219 20.070312 7.40625 20.097656 7.484375 20.128906 C 7.601562 20.171875 7.726562 20.226562 7.851562 20.285156 C 7.984375 20.335938 8.105469 20.410156 8.210938 20.507812 C 8.320312 20.597656 8.410156 20.710938 8.480469 20.851562 C 8.550781 20.988281 8.585938 21.164062 8.585938 21.371094 C 8.585938 21.730469 8.46875 22.011719 8.234375 22.207031 C 8.003906 22.402344 7.652344 22.5 7.183594 22.5 C 6.867188 22.5 6.613281 22.46875 6.425781 22.402344 C 6.234375 22.332031 6.09375 22.265625 6 22.207031 L 6.222656 21.589844 C 6.332031 21.65625 6.464844 21.71875 6.617188 21.777344 C 6.773438 21.832031 6.960938 21.863281 7.183594 21.863281 "/>
<path d="M 11.632812 18.585938 L 11.632812 22.417969 L 10.875 22.417969 L 10.875 20.730469 L 9.867188 20.730469 L 9.867188 22.417969 L 9.109375 22.417969 L 9.109375 18.585938 L 9.867188 18.585938 L 9.867188 20.097656 L 10.875 20.097656 L 10.875 18.585938 L 11.632812 18.585938 "/>
<path d="M 14.121094 22.417969 L 13.941406 21.535156 L 12.925781 21.535156 L 12.753906 22.417969 L 11.964844 22.417969 C 12.148438 21.664062 12.328125 20.976562 12.515625 20.359375 C 12.699219 19.734375 12.878906 19.144531 13.050781 18.585938 L 13.875 18.585938 C 14.054688 19.148438 14.234375 19.746094 14.410156 20.375 C 14.589844 21.003906 14.765625 21.683594 14.933594 22.417969 L 14.121094 22.417969 M 13.445312 19.328125 C 13.402344 19.472656 13.363281 19.613281 13.328125 19.746094 C 13.292969 19.871094 13.261719 20 13.226562 20.128906 C 13.199219 20.253906 13.171875 20.378906 13.140625 20.507812 C 13.117188 20.632812 13.09375 20.765625 13.066406 20.902344 L 13.8125 20.902344 C 13.789062 20.765625 13.765625 20.632812 13.738281 20.507812 C 13.714844 20.378906 13.6875 20.253906 13.652344 20.128906 C 13.625 20 13.589844 19.871094 13.554688 19.746094 C 13.523438 19.613281 13.484375 19.472656 13.445312 19.328125 "/>
<path d="M 16.308594 18.542969 C 16.523438 18.542969 16.722656 18.566406 16.898438 18.617188 C 17.074219 18.667969 17.226562 18.742188 17.351562 18.847656 C 17.480469 18.949219 17.578125 19.082031 17.644531 19.242188 C 17.710938 19.398438 17.746094 19.585938 17.746094 19.800781 C 17.746094 20.023438 17.703125 20.226562 17.613281 20.40625 C 17.523438 20.589844 17.371094 20.726562 17.164062 20.820312 C 17.230469 20.929688 17.304688 21.050781 17.382812 21.179688 C 17.460938 21.308594 17.539062 21.445312 17.613281 21.589844 C 17.6875 21.730469 17.753906 21.871094 17.820312 22.015625 C 17.890625 22.15625 17.949219 22.292969 18 22.417969 L 17.207031 22.417969 C 17.109375 22.171875 17 21.933594 16.875 21.707031 C 16.75 21.476562 16.617188 21.242188 16.472656 21.007812 L 16.078125 21.007812 L 16.078125 22.417969 L 15.320312 22.417969 L 15.320312 18.640625 C 15.394531 18.625 15.476562 18.613281 15.5625 18.597656 C 15.652344 18.582031 15.742188 18.570312 15.832031 18.566406 C 15.921875 18.558594 16.007812 18.554688 16.089844 18.550781 C 16.171875 18.546875 16.246094 18.542969 16.308594 18.542969 M 16.976562 19.792969 C 16.976562 19.589844 16.917969 19.441406 16.792969 19.347656 C 16.671875 19.253906 16.507812 19.207031 16.308594 19.207031 C 16.277344 19.207031 16.242188 19.207031 16.203125 19.210938 C 16.160156 19.210938 16.121094 19.214844 16.078125 19.222656 L 16.078125 20.375 L 16.246094 20.375 C 16.503906 20.375 16.691406 20.328125 16.804688 20.226562 C 16.921875 20.125 16.976562 19.980469 16.976562 19.792969 "/>
</g>
</svg>
