<svg width="24" xmlns="http://www.w3.org/2000/svg" height="24" viewBox="0 0 24 24" xmlns:xlink="http://www.w3.org/1999/xlink">
<path style="fill:#c19553" d="M 4 0.5 C 3.484375 0.5 3 0.984375 3 1.5 L 3 22.5 C 3 22.984375 3.515625 23.5 4 23.5 L 20 23.5 C 20.484375 23.5 21 22.984375 21 22.5 L 21 7 L 14.5 0.5 Z "/>
<path style="fill:#000;fill-opacity:.196" d="M 14.5 6 L 14.53125 6.03125 L 14.609375 6 Z M 15.5 7 L 21 12.5 L 21 7 Z "/>
<path style="fill:#fff;fill-opacity:.392" d="M 14.5 0.5 L 21 7 L 15.5 7 C 15.015625 7 14.5 6.484375 14.5 6 Z "/>
<path style="fill:#000;fill-opacity:.196" d="M 3 17.5 L 3 22.5 C 3 22.984375 3.515625 23.5 4 23.5 L 20 23.5 C 20.484375 23.5 21 22.984375 21 22.5 L 21 17.5 Z "/>
<g style="fill:#fff">
<path d="M 9 0.5 L 9 2.5 L 11 2.5 L 11 0.5 Z M 9 2.5 L 7 2.5 L 7 4.5 L 9 4.5 Z M 9 4.5 L 9 6.5 L 11 6.5 L 11 4.5 Z M 9 6.5 L 7 6.5 L 7 8.5 L 9 8.5 Z M 9 8.5 L 9 10.5 L 11 10.5 L 11 8.5 Z M 7 11.5 L 7 15.5 L 11 15.5 L 11 11.5 Z "/>
<path d="M 8.457031 22.417969 L 6 22.417969 L 6 18.585938 L 6.78125 18.585938 L 6.78125 21.789062 L 8.457031 21.789062 L 8.457031 22.417969 "/>
<path d="M 11.515625 19.121094 C 11.335938 19.390625 11.167969 19.648438 11.019531 19.886719 C 10.867188 20.125 10.726562 20.355469 10.59375 20.574219 C 10.464844 20.789062 10.339844 20.996094 10.222656 21.199219 C 10.109375 21.398438 10 21.59375 9.894531 21.789062 L 11.574219 21.789062 L 11.574219 22.417969 L 9 22.417969 L 9 21.980469 C 9.089844 21.800781 9.191406 21.617188 9.296875 21.421875 C 9.398438 21.222656 9.519531 21.015625 9.648438 20.792969 C 9.777344 20.566406 9.921875 20.328125 10.070312 20.066406 C 10.226562 19.804688 10.398438 19.523438 10.582031 19.21875 L 9.082031 19.21875 L 9.082031 18.585938 L 11.515625 18.585938 L 11.515625 19.121094 "/>
<path d="M 12.824219 20.5 C 12.824219 20.6875 12.828125 20.859375 12.84375 21.027344 C 12.859375 21.1875 12.890625 21.328125 12.929688 21.449219 C 12.976562 21.566406 13.039062 21.660156 13.121094 21.730469 C 13.199219 21.800781 13.308594 21.835938 13.441406 21.835938 C 13.574219 21.835938 13.679688 21.800781 13.757812 21.730469 C 13.84375 21.660156 13.90625 21.566406 13.949219 21.449219 C 13.992188 21.324219 14.023438 21.179688 14.035156 21.019531 C 14.050781 20.859375 14.0625 20.6875 14.0625 20.5 C 14.0625 20.3125 14.050781 20.140625 14.035156 19.980469 C 14.023438 19.816406 13.992188 19.671875 13.949219 19.550781 C 13.90625 19.433594 13.84375 19.339844 13.765625 19.269531 C 13.683594 19.199219 13.578125 19.164062 13.441406 19.164062 C 13.308594 19.164062 13.199219 19.199219 13.121094 19.269531 C 13.039062 19.339844 12.976562 19.433594 12.929688 19.558594 C 12.890625 19.679688 12.859375 19.820312 12.84375 19.980469 C 12.828125 20.140625 12.824219 20.3125 12.824219 20.5 M 12.035156 20.5 C 12.035156 19.839844 12.160156 19.34375 12.40625 19.007812 C 12.65625 18.667969 13 18.5 13.441406 18.5 C 13.902344 18.5 14.25 18.667969 14.488281 19.007812 C 14.730469 19.34375 14.851562 19.839844 14.851562 20.5 C 14.851562 21.160156 14.726562 21.660156 14.484375 22 C 14.238281 22.332031 13.894531 22.5 13.449219 22.5 C 12.988281 22.5 12.636719 22.332031 12.394531 22 C 12.15625 21.660156 12.035156 21.160156 12.035156 20.5 "/>
<path d="M 16.433594 18.542969 C 16.929688 18.542969 17.316406 18.644531 17.589844 18.847656 C 17.863281 19.046875 18 19.371094 18 19.824219 C 18 20.285156 17.859375 20.617188 17.582031 20.820312 C 17.308594 21.023438 16.921875 21.125 16.414062 21.125 L 16.136719 21.125 L 16.136719 22.417969 L 15.359375 22.417969 L 15.359375 18.636719 C 15.4375 18.621094 15.519531 18.605469 15.613281 18.59375 C 15.710938 18.582031 15.808594 18.574219 15.902344 18.566406 C 16 18.558594 16.09375 18.554688 16.1875 18.550781 C 16.28125 18.546875 16.363281 18.542969 16.433594 18.542969 M 16.523438 19.207031 C 16.476562 19.207031 16.410156 19.207031 16.328125 19.210938 C 16.246094 19.210938 16.183594 19.214844 16.136719 19.222656 L 16.136719 20.460938 L 16.453125 20.460938 C 16.703125 20.460938 16.890625 20.414062 17.015625 20.320312 C 17.140625 20.222656 17.203125 20.054688 17.203125 19.820312 C 17.203125 19.597656 17.140625 19.4375 17.015625 19.347656 C 16.894531 19.253906 16.730469 19.207031 16.523438 19.207031 "/>
</g>
</svg>
