<svg width="24" xmlns="http://www.w3.org/2000/svg" height="24" viewBox="0 0 24 24" xmlns:xlink="http://www.w3.org/1999/xlink">
<path style="fill:#d14626" d="M 4 0.5 C 3.484375 0.5 3 0.984375 3 1.5 L 3 22.5 C 3 22.984375 3.515625 23.5 4 23.5 L 20 23.5 C 20.484375 23.5 21 22.984375 21 22.5 L 21 7 L 14.5 0.5 Z "/>
<path style="fill:#000;fill-opacity:.196" d="M 14.5 6 L 14.53125 6.03125 L 14.609375 6 Z M 15.5 7 L 21 12.5 L 21 7 Z "/>
<path style="fill:#fff;fill-opacity:.392" d="M 14.5 0.5 L 21 7 L 15.5 7 C 15.015625 7 14.5 6.484375 14.5 6 Z "/>
<g style="fill:#fff">
<path d="M 6 8 L 9.5 8 L 9.5 10.5 L 6 10.5 Z "/>
<path d="M 6 12 L 9.5 12 L 9.5 14.5 L 6 14.5 Z "/>
<path d="M 6 16 L 18 16 L 18 17 L 6 17 Z "/>
<path d="M 14.769531 8 L 14.769531 11.148438 L 18 11.148438 C 18 9.410156 16.554688 8 14.769531 8 Z "/>
<path d="M 14.308594 8.449219 C 12.523438 8.449219 11.078125 9.859375 11.078125 11.601562 C 11.078125 13.339844 12.523438 14.75 14.308594 14.75 C 16.09375 14.75 17.539062 13.339844 17.539062 11.601562 L 14.308594 11.601562 Z "/>
</g>
</svg>
