<svg width="24" xmlns="http://www.w3.org/2000/svg" height="24" viewBox="0 0 24 24" xmlns:xlink="http://www.w3.org/1999/xlink">
<path style="fill:#c19553" d="M 4 0.5 C 3.484375 0.5 3 0.984375 3 1.5 L 3 22.5 C 3 22.984375 3.515625 23.5 4 23.5 L 20 23.5 C 20.484375 23.5 21 22.984375 21 22.5 L 21 7 L 14.5 0.5 Z "/>
<path style="fill:#000;fill-opacity:.196" d="M 14.5 6 L 14.53125 6.03125 L 14.609375 6 Z M 15.5 7 L 21 12.5 L 21 7 Z "/>
<path style="fill:#fff;fill-opacity:.392" d="M 14.5 0.5 L 21 7 L 15.5 7 C 15.015625 7 14.5 6.484375 14.5 6 Z "/>
<path style="fill:#fff" d="M 7 0.5 L 7 2.5 L 9 2.5 L 9 4.5 L 7 4.5 L 7 6.5 L 9 6.5 L 9 8.5 L 7 8.5 L 7 10.5 L 9 10.5 L 9 13.5 L 7 13.5 L 7 17.5 L 11 17.5 L 11 13.5 L 9 13.5 L 9 12.5 L 11 12.5 L 11 10.5 L 9 10.5 L 9 8.5 L 11 8.5 L 11 6.5 L 9 6.5 L 9 4.5 L 11 4.5 L 11 2.5 L 9 2.5 L 9 0.5 Z "/>
</svg>
