<svg width="24" xmlns="http://www.w3.org/2000/svg" height="24" viewBox="0 0 24 24" xmlns:xlink="http://www.w3.org/1999/xlink">
<path style="fill:#3468ce" d="M 4 0.5 C 3.484375 0.5 3 0.984375 3 1.5 L 3 22.5 C 3 22.984375 3.515625 23.5 4 23.5 L 20 23.5 C 20.484375 23.5 21 22.984375 21 22.5 L 21 7 L 14.5 0.5 Z "/>
<path style="fill:#000;fill-opacity:.196" d="M 14.5 6 L 14.53125 6.03125 L 14.609375 6 Z M 15.5 7 L 21 12.5 L 21 7 Z "/>
<path style="fill:#fff;fill-opacity:.392" d="M 14.5 0.5 L 21 7 L 15.5 7 C 15.015625 7 14.5 6.484375 14.5 6 Z "/>
<path style="fill:#fff" d="M 8.039062 8 L 11.460938 8 C 11.621094 8 11.75 8.132812 11.75 8.300781 L 11.75 11.199219 C 11.75 11.367188 11.621094 11.5 11.460938 11.5 L 8.039062 11.5 C 7.878906 11.5 7.75 11.367188 7.75 11.199219 L 7.75 8.300781 C 7.75 8.132812 7.878906 8 8.039062 8 Z "/>
<g style="fill:none;stroke:#fff;stroke-linecap:round;stroke-linejoin:round">
<path d="M 26.5 17.5 L 31.5 17.5 " transform="matrix(.5 0 0 .5 -.25 -.5)"/>
<path d="M 26.5 20.5 L 31.5 20.5 " transform="matrix(.5 0 0 .5 -.25 -.5)"/>
<path d="M 26.5 23.5 L 31.5 23.5 " transform="matrix(.5 0 0 .5 -.25 -.5)"/>
<path d="M 16 26.5 L 32 26.5 " transform="matrix(.5 0 0 .5 -.25 -.5)"/>
<path d="M 16 29.5 L 32 29.5 " transform="matrix(.5 0 0 .5 -.25 -.5)"/>
<path d="M 16 32.5 L 32 32.5 " transform="matrix(.5 0 0 .5 -.25 -.5)"/>
</g>
<path style="fill:#000;fill-opacity:.196" d="M 3 17.5 L 3 22.5 C 3 22.984375 3.515625 23.5 4 23.5 L 20 23.5 C 20.484375 23.5 21 22.984375 21 22.5 L 21 17.5 Z "/>
<g style="fill:#fff">
<path d="M 8.152344 18.5 C 8.40625 18.5 8.636719 18.527344 8.84375 18.578125 C 9.050781 18.628906 9.230469 18.707031 9.378906 18.8125 C 9.527344 18.917969 9.640625 19.054688 9.714844 19.222656 C 9.796875 19.382812 9.839844 19.574219 9.839844 19.796875 C 9.839844 20.027344 9.785156 20.234375 9.679688 20.421875 C 9.574219 20.609375 9.398438 20.753906 9.152344 20.851562 C 9.234375 20.960938 9.324219 21.085938 9.414062 21.222656 C 9.503906 21.355469 9.59375 21.496094 9.679688 21.644531 C 9.765625 21.789062 9.847656 21.933594 9.925781 22.085938 C 10.007812 22.230469 10.078125 22.367188 10.132812 22.5 L 9.203125 22.5 C 9.09375 22.246094 8.964844 22 8.816406 21.765625 C 8.671875 21.527344 8.515625 21.285156 8.347656 21.042969 L 7.886719 21.042969 L 7.886719 22.5 L 7 22.5 L 7 18.601562 C 7.085938 18.585938 7.179688 18.570312 7.28125 18.558594 C 7.386719 18.539062 7.492188 18.53125 7.597656 18.527344 C 7.703125 18.515625 7.804688 18.511719 7.902344 18.507812 C 7.996094 18.503906 8.082031 18.5 8.152344 18.5 M 8.9375 19.789062 C 8.9375 19.582031 8.867188 19.429688 8.722656 19.332031 C 8.578125 19.234375 8.386719 19.183594 8.152344 19.183594 C 8.117188 19.183594 8.078125 19.1875 8.03125 19.191406 C 7.980469 19.191406 7.933594 19.195312 7.886719 19.203125 L 7.886719 20.390625 L 8.082031 20.390625 C 8.382812 20.390625 8.601562 20.339844 8.734375 20.238281 C 8.871094 20.132812 8.9375 19.980469 8.9375 19.789062 "/>
<path d="M 13.636719 18.542969 L 13.636719 19.195312 L 12.460938 19.195312 L 12.460938 22.5 L 11.566406 22.5 L 11.566406 19.195312 L 10.394531 19.195312 L 10.394531 18.542969 L 13.636719 18.542969 "/>
<path d="M 14.269531 22.5 L 14.269531 18.542969 L 17 18.542969 L 17 19.195312 L 15.15625 19.195312 L 15.15625 20.15625 L 16.769531 20.15625 L 16.769531 20.804688 L 15.15625 20.804688 L 15.15625 22.5 L 14.269531 22.5 "/>
</g>
</svg>
