<svg width="24" xmlns="http://www.w3.org/2000/svg" height="24" viewBox="0 0 24 24" xmlns:xlink="http://www.w3.org/1999/xlink">
<path style="fill:#38a34e" d="M 4 0.5 C 3.484375 0.5 3 0.984375 3 1.5 L 3 22.5 C 3 22.984375 3.515625 23.5 4 23.5 L 20 23.5 C 20.484375 23.5 21 22.984375 21 22.5 L 21 7 L 14.5 0.5 Z "/>
<path style="fill:#000;fill-opacity:.196" d="M 14.5 6 L 14.53125 6.03125 L 14.609375 6 Z M 15.5 7 L 21 12.5 L 21 7 Z "/>
<path style="fill:#fff;fill-opacity:.392" d="M 14.5 0.5 L 21 7 L 15.5 7 C 15.015625 7 14.5 6.484375 14.5 6 Z "/>
<path style="fill:#000;fill-opacity:.196" d="M 3 17.5 L 3 22.5 C 3 22.984375 3.515625 23.5 4 23.5 L 20 23.5 C 20.484375 23.5 21 22.984375 21 22.5 L 21 17.5 Z "/>
<g style="fill:#fff">
<path d="M 8.519531 8 C 8.234375 8.027344 7.996094 8.324219 8 8.640625 L 8 15.375 C 8.003906 15.707031 8.269531 16.003906 8.566406 16 L 15.449219 16 C 15.742188 15.996094 15.996094 15.703125 16 15.375 L 16 8.640625 C 16.003906 8.308594 15.746094 8.003906 15.449219 8 Z M 9.003906 9 L 14.996094 9 L 14.996094 13.296875 C 14.953125 13.246094 14.929688 13.226562 14.886719 13.171875 C 14.441406 12.636719 13.929688 12.003906 13.316406 11.234375 C 13.195312 11.355469 13.046875 11.503906 12.847656 11.6875 C 12.644531 11.871094 12.40625 12.09375 12.125 12.34375 C 12.089844 12.382812 11.949219 12.234375 11.6875 11.90625 C 11.417969 11.578125 11.050781 11.074219 10.558594 10.375 C 9.894531 11.0625 9.417969 11.550781 9.003906 11.96875 Z "/>
<path d="M 7 22.417969 L 7 21.789062 L 7.953125 21.789062 L 7.953125 19.21875 L 7 19.21875 L 7 18.585938 L 9.769531 18.585938 L 9.769531 19.21875 L 8.824219 19.21875 L 8.824219 21.789062 L 9.769531 21.789062 L 9.769531 22.417969 L 7 22.417969 "/>
<path d="M 12.230469 22.5 C 11.613281 22.5 11.144531 22.328125 10.820312 21.980469 C 10.496094 21.632812 10.332031 21.140625 10.332031 20.5 C 10.332031 20.183594 10.382812 19.898438 10.480469 19.652344 C 10.578125 19.402344 10.714844 19.195312 10.890625 19.027344 C 11.070312 18.851562 11.277344 18.722656 11.515625 18.636719 C 11.761719 18.546875 12.027344 18.5 12.3125 18.5 C 12.46875 18.5 12.605469 18.511719 12.730469 18.539062 C 12.855469 18.558594 12.964844 18.582031 13.0625 18.613281 C 13.15625 18.640625 13.230469 18.671875 13.292969 18.703125 C 13.359375 18.738281 13.410156 18.761719 13.441406 18.777344 L 13.214844 19.386719 C 13.109375 19.324219 12.976562 19.273438 12.820312 19.230469 C 12.671875 19.183594 12.496094 19.164062 12.300781 19.164062 C 12.164062 19.164062 12.03125 19.183594 11.898438 19.230469 C 11.769531 19.273438 11.65625 19.34375 11.550781 19.449219 C 11.453125 19.546875 11.371094 19.679688 11.304688 19.851562 C 11.246094 20.019531 11.214844 20.230469 11.214844 20.480469 C 11.214844 20.917969 11.296875 21.253906 11.46875 21.492188 C 11.640625 21.722656 11.921875 21.835938 12.3125 21.835938 C 12.539062 21.835938 12.726562 21.816406 12.871094 21.769531 C 13.019531 21.722656 13.140625 21.679688 13.230469 21.632812 L 13.449219 22.234375 C 13.324219 22.300781 13.160156 22.363281 12.949219 22.417969 C 12.742188 22.472656 12.5 22.5 12.230469 22.5 "/>
<path d="M 14.738281 20.5 C 14.738281 20.6875 14.746094 20.859375 14.757812 21.027344 C 14.777344 21.1875 14.8125 21.328125 14.859375 21.449219 C 14.910156 21.566406 14.980469 21.660156 15.070312 21.730469 C 15.160156 21.800781 15.277344 21.835938 15.429688 21.835938 C 15.574219 21.835938 15.691406 21.800781 15.78125 21.730469 C 15.875 21.660156 15.945312 21.566406 15.992188 21.449219 C 16.042969 21.324219 16.078125 21.179688 16.089844 21.019531 C 16.109375 20.859375 16.117188 20.6875 16.117188 20.5 C 16.117188 20.3125 16.109375 20.140625 16.089844 19.980469 C 16.078125 19.816406 16.042969 19.671875 15.992188 19.550781 C 15.945312 19.433594 15.878906 19.339844 15.789062 19.269531 C 15.699219 19.199219 15.578125 19.164062 15.429688 19.164062 C 15.277344 19.164062 15.160156 19.199219 15.070312 19.269531 C 14.980469 19.339844 14.910156 19.433594 14.859375 19.558594 C 14.8125 19.679688 14.777344 19.820312 14.757812 19.980469 C 14.746094 20.140625 14.738281 20.3125 14.738281 20.5 M 13.855469 20.5 C 13.855469 19.839844 13.996094 19.34375 14.273438 19.007812 C 14.550781 18.667969 14.933594 18.5 15.429688 18.5 C 15.941406 18.5 16.332031 18.667969 16.597656 19.007812 C 16.867188 19.34375 17 19.839844 17 20.5 C 17 21.160156 16.863281 21.660156 16.589844 22 C 16.320312 22.332031 15.933594 22.5 15.433594 22.5 C 14.921875 22.5 14.53125 22.332031 14.257812 22 C 13.992188 21.660156 13.855469 21.160156 13.855469 20.5 "/>
</g>
</svg>
