<svg width="24" xmlns="http://www.w3.org/2000/svg" height="24" viewBox="0 0 24 24" xmlns:xlink="http://www.w3.org/1999/xlink">
<path style="fill:#c19553" d="M 4 0.5 C 3.484375 0.5 3 0.984375 3 1.5 L 3 22.5 C 3 22.984375 3.515625 23.5 4 23.5 L 20 23.5 C 20.484375 23.5 21 22.984375 21 22.5 L 21 7 L 14.5 0.5 Z "/>
<path style="fill:#000;fill-opacity:.196" d="M 14.5 6 L 14.53125 6.03125 L 14.609375 6 Z M 15.5 7 L 21 12.5 L 21 7 Z "/>
<path style="fill:#fff;fill-opacity:.392" d="M 14.5 0.5 L 21 7 L 15.5 7 C 15.015625 7 14.5 6.484375 14.5 6 Z "/>
<path style="fill:#000;fill-opacity:.196" d="M 3 17.5 L 3 22.5 C 3 22.984375 3.515625 23.5 4 23.5 L 20 23.5 C 20.484375 23.5 21 22.984375 21 22.5 L 21 17.5 Z "/>
<g style="fill:#fff">
<path d="M 9 0.5 L 9 2.5 L 11 2.5 L 11 0.5 Z M 9 2.5 L 7 2.5 L 7 4.5 L 9 4.5 Z M 9 4.5 L 9 6.5 L 11 6.5 L 11 4.5 Z M 9 6.5 L 7 6.5 L 7 8.5 L 9 8.5 Z M 9 8.5 L 9 10.5 L 11 10.5 L 11 8.5 Z M 7 11.5 L 7 15.5 L 11 15.5 L 11 11.5 Z "/>
<path d="M 9.449219 22.417969 L 9.246094 21.523438 L 8.089844 21.523438 L 7.894531 22.417969 L 7 22.417969 C 7.207031 21.65625 7.414062 20.960938 7.621094 20.335938 C 7.832031 19.703125 8.035156 19.105469 8.230469 18.542969 L 9.167969 18.542969 C 9.375 19.113281 9.578125 19.714844 9.777344 20.351562 C 9.984375 20.988281 10.183594 21.675781 10.371094 22.417969 L 9.449219 22.417969 M 8.679688 19.296875 C 8.632812 19.441406 8.589844 19.582031 8.546875 19.714844 C 8.507812 19.84375 8.472656 19.972656 8.433594 20.101562 C 8.402344 20.226562 8.371094 20.355469 8.335938 20.484375 C 8.308594 20.613281 8.28125 20.746094 8.253906 20.886719 L 9.097656 20.886719 C 9.070312 20.746094 9.042969 20.613281 9.015625 20.484375 C 8.988281 20.355469 8.953125 20.226562 8.917969 20.101562 C 8.882812 19.972656 8.847656 19.84375 8.804688 19.714844 C 8.769531 19.582031 8.726562 19.441406 8.679688 19.296875 "/>
<path d="M 11.933594 18.5 C 12.179688 18.5 12.40625 18.523438 12.605469 18.574219 C 12.804688 18.625 12.976562 18.703125 13.125 18.808594 C 13.269531 18.910156 13.378906 19.042969 13.453125 19.207031 C 13.53125 19.367188 13.570312 19.554688 13.570312 19.769531 C 13.570312 19.996094 13.519531 20.199219 13.417969 20.382812 C 13.3125 20.566406 13.144531 20.707031 12.90625 20.804688 C 12.984375 20.910156 13.070312 21.03125 13.15625 21.167969 C 13.246094 21.296875 13.332031 21.433594 13.417969 21.578125 C 13.5 21.722656 13.582031 21.867188 13.65625 22.011719 C 13.734375 22.152344 13.800781 22.289062 13.859375 22.417969 L 12.957031 22.417969 C 12.847656 22.167969 12.722656 21.929688 12.578125 21.699219 C 12.4375 21.464844 12.285156 21.230469 12.121094 20.992188 L 11.675781 20.992188 L 11.675781 22.417969 L 10.8125 22.417969 L 10.8125 18.601562 C 10.898438 18.582031 10.988281 18.570312 11.085938 18.554688 C 11.1875 18.539062 11.292969 18.527344 11.394531 18.523438 C 11.496094 18.515625 11.59375 18.511719 11.6875 18.507812 C 11.78125 18.503906 11.863281 18.5 11.933594 18.5 M 12.695312 19.765625 C 12.695312 19.558594 12.625 19.410156 12.484375 19.3125 C 12.347656 19.21875 12.160156 19.167969 11.933594 19.167969 C 11.902344 19.167969 11.859375 19.171875 11.816406 19.175781 C 11.769531 19.175781 11.722656 19.179688 11.675781 19.1875 L 11.675781 20.351562 L 11.863281 20.351562 C 12.15625 20.351562 12.371094 20.304688 12.5 20.203125 C 12.632812 20.097656 12.695312 19.953125 12.695312 19.765625 "/>
<path d="M 17 21.121094 C 17 21.3125 16.972656 21.488281 16.914062 21.65625 C 16.863281 21.820312 16.777344 21.96875 16.648438 22.09375 C 16.527344 22.21875 16.371094 22.320312 16.175781 22.394531 C 15.976562 22.464844 15.742188 22.5 15.460938 22.5 C 15.167969 22.5 14.921875 22.464844 14.726562 22.398438 C 14.53125 22.332031 14.363281 22.25 14.230469 22.15625 L 14.558594 21.542969 C 14.675781 21.609375 14.800781 21.671875 14.941406 21.734375 C 15.085938 21.800781 15.234375 21.832031 15.382812 21.832031 C 15.605469 21.832031 15.785156 21.777344 15.921875 21.671875 C 16.0625 21.566406 16.132812 21.367188 16.132812 21.078125 L 16.132812 19.183594 L 14.683594 19.183594 L 14.683594 18.542969 L 17 18.542969 L 17 21.121094 "/>
</g>
</svg>
