<svg width="24" xmlns="http://www.w3.org/2000/svg" height="24" viewBox="0 0 24 24" xmlns:xlink="http://www.w3.org/1999/xlink">
<path style="fill:#9a773c" d="M 4 0.5 C 3.484375 0.5 3 0.984375 3 1.5 L 3 22.5 C 3 22.984375 3.515625 23.5 4 23.5 L 20 23.5 C 20.484375 23.5 21 22.984375 21 22.5 L 21 7 L 14.5 0.5 Z "/>
<path style="fill:#000;fill-opacity:.196" d="M 14.5 6 L 14.53125 6.03125 L 14.609375 6 Z M 15.5 7 L 21 12.5 L 21 7 Z "/>
<path style="fill:#fff;fill-opacity:.392" d="M 14.5 0.5 L 21 7 L 15.5 7 C 15.015625 7 14.5 6.484375 14.5 6 Z "/>
<path style="fill:#fff" d="M 15.769531 9.007812 C 15.730469 9.027344 15.699219 9.085938 15.664062 9.183594 C 15.578125 9.449219 14.96875 11.273438 11.519531 11.359375 C 9.871094 11.402344 9.167969 9.929688 9.167969 9.929688 L 9.128906 11.820312 C 9.128906 11.820312 9.304688 12.242188 8.953125 12.683594 C 8.933594 12.652344 8.921875 12.617188 8.902344 12.589844 C 8.773438 12.410156 8.625 12.257812 8.464844 12.148438 C 8.285156 12.019531 8.09375 11.933594 7.90625 11.90625 C 7.691406 11.875 7.484375 11.921875 7.316406 12.042969 C 7.152344 12.164062 7.054688 12.351562 7.019531 12.566406 C 6.984375 12.757812 6.996094 12.960938 7.058594 13.175781 C 7.113281 13.363281 7.203125 13.554688 7.328125 13.734375 C 7.460938 13.921875 7.628906 14.089844 7.804688 14.207031 C 8 14.335938 8.210938 14.414062 8.414062 14.425781 C 8.476562 14.429688 8.542969 14.414062 8.601562 14.40625 C 9.925781 15.472656 12.554688 16.46875 14.300781 15.328125 C 14.339844 15.34375 14.375 15.359375 14.414062 15.371094 C 14.414062 15.390625 14.410156 15.410156 14.414062 15.425781 L 14.496094 15.394531 C 14.511719 15.398438 14.523438 15.410156 14.539062 15.414062 C 14.542969 15.414062 14.546875 15.414062 14.546875 15.414062 L 14.578125 15.445312 L 15.367188 15.730469 C 15.332031 16.007812 15.46875 16.320312 15.808594 16.453125 C 16.425781 16.691406 17 17 17 17 C 16.707031 15.988281 16.597656 15.175781 15.832031 15.246094 C 15.6875 15.257812 15.582031 15.320312 15.5 15.402344 L 14.808594 14.953125 L 14.777344 14.953125 L 14.765625 14.941406 C 15.699219 14.007812 16.246094 12.253906 15.914062 9.207031 C 15.894531 9.054688 15.832031 8.976562 15.769531 9.007812 Z "/>
</svg>
