<svg width="24" xmlns="http://www.w3.org/2000/svg" height="24" viewBox="0 0 24 24" xmlns:xlink="http://www.w3.org/1999/xlink">
<path style="fill:#888" d="M 4 0.5 C 3.484375 0.5 3 0.984375 3 1.5 L 3 22.5 C 3 22.984375 3.515625 23.5 4 23.5 L 20 23.5 C 20.484375 23.5 21 22.984375 21 22.5 L 21 7 L 14.5 0.5 Z "/>
<path style="fill:#000;fill-opacity:.196" d="M 14.5 6 L 14.53125 6.03125 L 14.609375 6 Z M 15.5 7 L 21 12.5 L 21 7 Z "/>
<path style="fill:#fff;fill-opacity:.392" d="M 14.5 0.5 L 21 7 L 15.5 7 C 15.015625 7 14.5 6.484375 14.5 6 Z "/>
<g style="fill:#fff">
<path d="M 9.15625 10 C 9 10.015625 9 10.082031 9 10.34375 L 9 13 C 9 12.449219 9.449219 12 10 12 C 10.550781 12 11 12.449219 11 13 C 11 13.550781 10.550781 14 10 14 C 9.449219 14 9 13.550781 9 13 L 9 15.625 C 9 16 9 16 9.375 16 L 12 16 C 11.449219 16 11 15.550781 11 15 C 11 14.449219 11.449219 14 12 14 C 12.550781 14 13 14.449219 13 15 C 13 15.550781 12.550781 16 12 16 L 14.625 16 C 15 16 15 16 15 15.625 L 15 10.375 C 15 10 15 10 14.625 10 L 9.375 10 C 9.28125 10 9.210938 9.996094 9.15625 10 Z "/>
<path d="M 13 9 C 13 9.550781 12.550781 10 12 10 C 11.449219 10 11 9.550781 11 9 C 11 8.449219 11.449219 8 12 8 C 12.550781 8 13 8.449219 13 9 Z "/>
<path d="M 17 13 C 17 13.550781 16.550781 14 16 14 C 15.449219 14 15 13.550781 15 13 C 15 12.449219 15.449219 12 16 12 C 16.550781 12 17 12.449219 17 13 Z "/>
</g>
<path style="fill:#000;fill-opacity:.196" d="M 3 17.5 L 3 22.5 C 3 22.984375 3.515625 23.5 4 23.5 L 20 23.5 C 20.484375 23.5 21 22.984375 21 22.5 L 21 17.5 Z "/>
<g style="fill:#fff">
<path d="M 7.863281 20.5 C 7.863281 20.6875 7.871094 20.859375 7.882812 21.027344 C 7.902344 21.1875 7.933594 21.328125 7.980469 21.449219 C 8.03125 21.566406 8.101562 21.660156 8.1875 21.730469 C 8.273438 21.800781 8.394531 21.835938 8.539062 21.835938 C 8.683594 21.835938 8.796875 21.800781 8.886719 21.730469 C 8.976562 21.660156 9.046875 21.566406 9.09375 21.449219 C 9.144531 21.324219 9.175781 21.179688 9.1875 21.019531 C 9.207031 20.859375 9.21875 20.6875 9.21875 20.5 C 9.21875 20.3125 9.207031 20.140625 9.1875 19.980469 C 9.175781 19.816406 9.144531 19.671875 9.09375 19.550781 C 9.046875 19.433594 8.980469 19.339844 8.890625 19.269531 C 8.804688 19.199219 8.6875 19.164062 8.539062 19.164062 C 8.394531 19.164062 8.273438 19.199219 8.1875 19.269531 C 8.101562 19.339844 8.03125 19.433594 7.980469 19.558594 C 7.933594 19.679688 7.902344 19.820312 7.882812 19.980469 C 7.871094 20.140625 7.863281 20.3125 7.863281 20.5 M 7 20.5 C 7 19.839844 7.136719 19.34375 7.40625 19.007812 C 7.679688 18.667969 8.054688 18.5 8.539062 18.5 C 9.042969 18.5 9.425781 18.667969 9.6875 19.007812 C 9.949219 19.34375 10.082031 19.839844 10.082031 20.5 C 10.082031 21.160156 9.945312 21.660156 9.679688 22 C 9.414062 22.332031 9.035156 22.5 8.546875 22.5 C 8.046875 22.5 7.660156 22.332031 7.394531 22 C 7.132812 21.660156 7 21.160156 7 20.5 "/>
<path d="M 12.726562 22.417969 C 12.636719 22.207031 12.53125 21.976562 12.402344 21.71875 C 12.277344 21.464844 12.144531 21.207031 12.007812 20.953125 C 11.875 21.195312 11.738281 21.449219 11.605469 21.714844 C 11.472656 21.972656 11.359375 22.207031 11.261719 22.417969 L 10.34375 22.417969 C 10.386719 22.308594 10.457031 22.171875 10.542969 22.015625 C 10.636719 21.859375 10.734375 21.691406 10.839844 21.507812 C 10.949219 21.328125 11.066406 21.140625 11.183594 20.953125 C 11.304688 20.757812 11.417969 20.570312 11.53125 20.394531 L 10.410156 18.585938 L 11.332031 18.585938 L 12.007812 19.8125 L 12.71875 18.585938 L 13.574219 18.585938 L 12.484375 20.375 C 12.609375 20.554688 12.730469 20.738281 12.847656 20.933594 C 12.96875 21.128906 13.078125 21.316406 13.179688 21.503906 C 13.285156 21.683594 13.378906 21.855469 13.457031 22.015625 C 13.535156 22.171875 13.597656 22.308594 13.644531 22.417969 L 12.726562 22.417969 "/>
<path d="M 17 18.585938 L 17 19.21875 L 15.875 19.21875 L 15.875 22.417969 L 15.019531 22.417969 L 15.019531 19.21875 L 13.890625 19.21875 L 13.890625 18.585938 L 17 18.585938 "/>
</g>
</svg>
