<svg width="24" xmlns="http://www.w3.org/2000/svg" height="24" viewBox="0 0 24 24" xmlns:xlink="http://www.w3.org/1999/xlink">
<path style="fill:#2d2d2d" d="M 4 0.5 C 3.484375 0.5 3 0.984375 3 1.5 L 3 22.5 C 3 22.984375 3.515625 23.5 4 23.5 L 20 23.5 C 20.484375 23.5 21 22.984375 21 22.5 L 21 7 L 14.5 0.5 Z "/>
<path style="fill:#000;fill-opacity:.196" d="M 14.5 6 L 14.53125 6.03125 L 14.609375 6 Z M 15.5 7 L 21 12.5 L 21 7 Z "/>
<path style="fill:#fff;fill-opacity:.392" d="M 14.5 0.5 L 21 7 L 15.5 7 C 15.015625 7 14.5 6.484375 14.5 6 Z "/>
<g style="fill:#dcdcdc">
<path d="M 6 13.933594 C 6 13.453125 6.070312 12.976562 6.207031 12.511719 C 6.347656 12.035156 6.546875 11.613281 6.804688 11.246094 C 7.070312 10.875 7.394531 10.574219 7.773438 10.34375 C 8.152344 10.113281 8.589844 10 9.078125 10 C 9.648438 10 10.144531 10.160156 10.558594 10.476562 C 10.984375 10.796875 11.292969 11.210938 11.492188 11.722656 L 10.535156 12.535156 C 10.460938 12.3125 10.367188 12.125 10.253906 11.976562 C 10.136719 11.820312 10.011719 11.699219 9.871094 11.609375 C 9.738281 11.523438 9.601562 11.460938 9.457031 11.421875 C 9.3125 11.378906 9.171875 11.355469 9.039062 11.355469 C 8.746094 11.355469 8.484375 11.433594 8.261719 11.589844 C 8.039062 11.746094 7.851562 11.949219 7.703125 12.199219 C 7.554688 12.445312 7.445312 12.726562 7.367188 13.042969 C 7.292969 13.355469 7.257812 13.667969 7.257812 13.976562 C 7.257812 14.324219 7.300781 14.664062 7.382812 14.988281 C 7.476562 15.308594 7.597656 15.589844 7.753906 15.832031 C 7.917969 16.078125 8.113281 16.273438 8.335938 16.421875 C 8.558594 16.570312 8.800781 16.644531 9.066406 16.644531 C 9.207031 16.644531 9.347656 16.621094 9.492188 16.578125 C 9.636719 16.535156 9.777344 16.464844 9.910156 16.367188 C 10.046875 16.269531 10.175781 16.148438 10.289062 16 C 10.402344 15.84375 10.496094 15.660156 10.570312 15.445312 L 11.59375 16.167969 C 11.496094 16.464844 11.355469 16.726562 11.167969 16.957031 C 10.984375 17.179688 10.777344 17.367188 10.542969 17.523438 C 10.308594 17.675781 10.058594 17.796875 9.800781 17.878906 C 9.539062 17.960938 9.285156 18 9.03125 18 C 8.585938 18 8.175781 17.882812 7.800781 17.644531 C 7.433594 17.40625 7.113281 17.101562 6.839844 16.722656 C 6.578125 16.335938 6.367188 15.902344 6.21875 15.421875 C 6.074219 14.933594 6 14.4375 6 13.933594 "/>
<path d="M 15.164062 13.390625 L 15.164062 14.589844 L 14.234375 14.589844 L 14.234375 15.84375 L 13.148438 15.84375 L 13.148438 14.589844 L 12.207031 14.589844 L 12.207031 13.390625 L 13.148438 13.390625 L 13.148438 12.132812 L 14.234375 12.132812 L 14.234375 13.390625 L 15.164062 13.390625 "/>
<path d="M 19 13.390625 L 19 14.589844 L 18.066406 14.589844 L 18.066406 15.84375 L 16.980469 15.84375 L 16.980469 14.589844 L 16.042969 14.589844 L 16.042969 13.390625 L 16.980469 13.390625 L 16.980469 12.132812 L 18.066406 12.132812 L 18.066406 13.390625 L 19 13.390625 "/>
</g>
</svg>
