<svg width="24" xmlns="http://www.w3.org/2000/svg" height="24" viewBox="0 0 24 24" xmlns:xlink="http://www.w3.org/1999/xlink">
<path style="fill:#3468ce" d="M 4 0.5 C 3.484375 0.5 3 0.984375 3 1.5 L 3 22.5 C 3 22.984375 3.515625 23.5 4 23.5 L 20 23.5 C 20.484375 23.5 21 22.984375 21 22.5 L 21 1.5 C 21 0.984375 20.515625 0.5 20 0.5 Z "/>
<path style="fill:#fff" d="M 8.039062 8 L 11.460938 8 C 11.621094 8 11.75 8.132812 11.75 8.300781 L 11.75 11.199219 C 11.75 11.367188 11.621094 11.5 11.460938 11.5 L 8.039062 11.5 C 7.878906 11.5 7.75 11.367188 7.75 11.199219 L 7.75 8.300781 C 7.75 8.132812 7.878906 8 8.039062 8 Z "/>
<g style="stroke-linecap:round;fill:none;stroke:#fff;stroke-linejoin:round">
<path d="M 26.5 17.5 L 31.5 17.5 " transform="matrix(.5 0 0 .5 -.25 -.5)"/>
<path d="M 26.5 20.5 L 31.5 20.5 " transform="matrix(.5 0 0 .5 -.25 -.5)"/>
<path d="M 26.5 23.5 L 31.5 23.5 " transform="matrix(.5 0 0 .5 -.25 -.5)"/>
<path d="M 16 26.5 L 32 26.5 " transform="matrix(.5 0 0 .5 -.25 -.5)"/>
<path d="M 16 29.5 L 32 29.5 " transform="matrix(.5 0 0 .5 -.25 -.5)"/>
<path d="M 16 32.5 L 32 32.5 " transform="matrix(.5 0 0 .5 -.25 -.5)"/>
</g>
<path style="fill:#000;fill-opacity:.196" d="M 3 17.5 L 3 22.5 C 3 22.984375 3.515625 23.5 4 23.5 L 20 23.5 C 20.484375 23.5 21 22.984375 21 22.5 L 21 17.5 Z "/>
<g style="fill:#fff">
<path d="M 8.878906 19.945312 C 8.898438 20.023438 8.925781 20.125 8.960938 20.246094 C 9 20.363281 9.039062 20.496094 9.078125 20.640625 C 9.125 20.785156 9.175781 20.941406 9.222656 21.105469 C 9.28125 21.273438 9.332031 21.445312 9.382812 21.617188 C 9.382812 21.398438 9.378906 21.160156 9.375 20.910156 C 9.371094 20.652344 9.367188 20.394531 9.363281 20.128906 C 9.359375 19.867188 9.351562 19.597656 9.347656 19.332031 C 9.34375 19.058594 9.339844 18.796875 9.339844 18.542969 L 10.125 18.542969 C 10.113281 18.867188 10.097656 19.203125 10.085938 19.546875 C 10.070312 19.890625 10.054688 20.230469 10.039062 20.570312 C 10.019531 20.90625 9.996094 21.238281 9.96875 21.566406 C 9.945312 21.894531 9.917969 22.207031 9.886719 22.5 L 9.183594 22.5 C 9.082031 22.230469 8.980469 21.945312 8.878906 21.636719 C 8.777344 21.328125 8.679688 21.03125 8.578125 20.75 C 8.476562 21.015625 8.371094 21.308594 8.261719 21.625 C 8.148438 21.941406 8.050781 22.230469 7.957031 22.5 L 7.253906 22.5 C 7.21875 22.207031 7.1875 21.894531 7.160156 21.566406 C 7.128906 21.234375 7.105469 20.902344 7.082031 20.5625 C 7.0625 20.222656 7.046875 19.882812 7.035156 19.542969 C 7.019531 19.195312 7.007812 18.863281 7 18.542969 L 7.785156 18.542969 C 7.78125 18.796875 7.777344 19.054688 7.769531 19.324219 C 7.765625 19.59375 7.761719 19.859375 7.757812 20.128906 C 7.753906 20.394531 7.75 20.652344 7.742188 20.910156 C 7.738281 21.160156 7.738281 21.398438 7.738281 21.617188 C 7.777344 21.480469 7.824219 21.332031 7.875 21.171875 C 7.929688 21.007812 7.980469 20.847656 8.027344 20.691406 C 8.078125 20.535156 8.121094 20.390625 8.164062 20.257812 C 8.207031 20.125 8.238281 20.019531 8.261719 19.945312 L 8.878906 19.945312 "/>
<path d="M 11.828125 18.5 C 12.371094 18.5 12.789062 18.605469 13.089844 18.8125 C 13.386719 19.015625 13.535156 19.355469 13.535156 19.824219 C 13.535156 20.296875 13.382812 20.636719 13.082031 20.851562 C 12.78125 21.058594 12.359375 21.164062 11.808594 21.164062 L 11.503906 21.164062 L 11.503906 22.5 L 10.65625 22.5 L 10.65625 18.597656 C 10.738281 18.578125 10.832031 18.5625 10.933594 18.550781 C 11.039062 18.539062 11.144531 18.53125 11.25 18.527344 C 11.355469 18.515625 11.457031 18.511719 11.558594 18.507812 C 11.660156 18.503906 11.75 18.5 11.828125 18.5 M 11.925781 19.183594 C 11.875 19.183594 11.800781 19.1875 11.710938 19.191406 C 11.625 19.191406 11.554688 19.195312 11.503906 19.203125 L 11.503906 20.480469 L 11.847656 20.480469 C 12.121094 20.480469 12.324219 20.433594 12.460938 20.332031 C 12.597656 20.230469 12.667969 20.058594 12.667969 19.816406 C 12.667969 19.585938 12.597656 19.425781 12.460938 19.332031 C 12.328125 19.234375 12.148438 19.183594 11.925781 19.183594 "/>
<path d="M 17 18.542969 L 17 19.195312 L 15.878906 19.195312 L 15.878906 22.5 L 15.023438 22.5 L 15.023438 19.195312 L 13.902344 19.195312 L 13.902344 18.542969 L 17 18.542969 "/>
</g>
</svg>
