<svg width="24" xmlns="http://www.w3.org/2000/svg" height="24" viewBox="0 0 24 24" xmlns:xlink="http://www.w3.org/1999/xlink">
<path style="fill:#207145" d="M 4 0.5 C 3.484375 0.5 3 0.984375 3 1.5 L 3 22.5 C 3 22.984375 3.515625 23.5 4 23.5 L 20 23.5 C 20.484375 23.5 21 22.984375 21 22.5 L 21 1.5 C 21 0.984375 20.515625 0.5 20 0.5 Z "/>
<path style="fill:#000;fill-opacity:.196" d="M 3 17.5 L 3 22.5 C 3 22.984375 3.515625 23.5 4 23.5 L 20 23.5 C 20.484375 23.5 21 22.984375 21 22.5 L 21 17.5 Z "/>
<g style="fill:#fff">
<path d="M 17 8.5 C 17 12.019531 17 12.449219 17 15.5 C 13.488281 15.5 10.035156 15.5 7 15.5 C 7 11.980469 7 11.550781 7 8.5 C 10.472656 8.5 14.023438 8.5 17 8.5 Z M 16 9.5 L 11.5 9.5 L 11.5 11.5 L 16 11.5 Z M 10.5 9.5 L 8 9.5 L 8 11.5 L 10.5 11.5 Z M 16 12.5 L 11.5 12.5 L 11.5 14.5 L 16 14.5 Z M 10.5 12.5 L 8 12.5 L 8 14.5 L 10.5 14.5 Z "/>
<path d="M 7 22.5 L 7 18.5 L 9.65625 18.5 L 9.65625 19.160156 L 7.871094 19.160156 L 7.871094 20.058594 L 9.421875 20.058594 L 9.421875 20.714844 L 7.871094 20.714844 L 7.871094 21.839844 L 9.8125 21.839844 L 9.8125 22.5 L 7 22.5 "/>
<path d="M 13.457031 18.5 L 13.457031 19.160156 L 12.304688 19.160156 L 12.304688 22.5 L 11.425781 22.5 L 11.425781 19.160156 L 10.273438 19.160156 L 10.273438 18.5 L 13.457031 18.5 "/>
<path d="M 17 18.5 L 17 19.160156 L 15.84375 19.160156 L 15.84375 22.5 L 14.96875 22.5 L 14.96875 19.160156 L 13.8125 19.160156 L 13.8125 18.5 L 17 18.5 "/>
</g>
</svg>
