<?xml version="1.0" encoding="UTF-8" standalone="no"?>
<!-- Created with Inkscape (http://www.inkscape.org/) -->

<svg
   xmlns:dc="http://purl.org/dc/elements/1.1/"
   xmlns:cc="http://creativecommons.org/ns#"
   xmlns:rdf="http://www.w3.org/1999/02/22-rdf-syntax-ns#"
   xmlns:svg="http://www.w3.org/2000/svg"
   xmlns="http://www.w3.org/2000/svg"
   xmlns:sodipodi="http://sodipodi.sourceforge.net/DTD/sodipodi-0.dtd"
   xmlns:inkscape="http://www.inkscape.org/namespaces/inkscape"
   version="1.1"
   width="16"
   height="16"
   id="svg7384"
   inkscape:version="0.91 r"
   sodipodi:docname="applications-utilities-symbolic.svg">
  <sodipodi:namedview
     pagecolor="#ffffff"
     bordercolor="#666666"
     borderopacity="1"
     objecttolerance="10"
     gridtolerance="10"
     guidetolerance="10"
     inkscape:pageopacity="0"
     inkscape:pageshadow="2"
     inkscape:window-width="1920"
     inkscape:window-height="1056"
     id="namedview80"
     showgrid="false"
     inkscape:zoom="14.75"
     inkscape:cx="8"
     inkscape:cy="8"
     inkscape:window-x="0"
     inkscape:window-y="24"
     inkscape:window-maximized="1"
     inkscape:current-layer="svg7384" />
  <title
     id="title9167">elementary Symbolic Icon Theme</title>
  <defs
     id="defs11" />
  <metadata
     id="metadata90">
    <rdf:RDF>
      <cc:Work
         rdf:about="">
        <dc:format>image/svg+xml</dc:format>
        <dc:type
           rdf:resource="http://purl.org/dc/dcmitype/StillImage" />
        <dc:title>elementary Symbolic Icon Theme</dc:title>
      </cc:Work>
    </rdf:RDF>
  </metadata>
  <g
     transform="matrix(0.50704483,0,0,0.50690683,-4.0578981,-513.39296)"
     id="g4"
     style="stroke:#353535;stroke-opacity:1">
    <path
       style="fill:none;stroke:#353535;stroke-width:1.97246277;stroke-miterlimit:4;stroke-dasharray:none;stroke-opacity:1"
       d="m 38.572117,1028.5775 a 14.791384,14.791383 0 1 1 -29.5827667,0 14.791384,14.791383 0 1 1 29.5827667,0 z"
       id="path6"
       inkscape:connector-curvature="0" />
  </g>
  <path
     style="fill:#353535;fill-opacity:1"
     inkscape:connector-curvature="0"
     id="path10"
     d="m 5.2500245,7.9999851 c 0,0.690349 -0.559639,1.249989 -1.249989,1.249989 -0.690349,0 -1.249988,-0.55964 -1.249988,-1.249989 0,-0.69035 0.559639,-1.2499889 1.249988,-1.2499889 0.69035,0 1.249989,0.5596389 1.249989,1.2499889 z" />
  <path
     style="fill:#353535;fill-opacity:1"
     inkscape:connector-curvature="0"
     id="path12"
     d="m 9.249986,7.9999851 c 0,0.690349 -0.559639,1.249989 -1.249989,1.249989 -0.690349,0 -1.249988,-0.55964 -1.249988,-1.249989 0,-0.69035 0.559639,-1.2499889 1.249988,-1.2499889 0.69035,0 1.249989,0.5596389 1.249989,1.2499889 z" />
  <path
     style="fill:#353535;fill-opacity:1"
     inkscape:connector-curvature="0"
     id="path14"
     d="m 13.249953,7.9999851 c 0,0.690349 -0.55964,1.249989 -1.249989,1.249989 -0.69035,0 -1.249988,-0.55964 -1.249988,-1.249989 0,-0.69035 0.559638,-1.2499889 1.249988,-1.2499889 0.690349,0 1.249989,0.5596389 1.249989,1.2499889 z" />
</svg>
