<?xml version="1.0" encoding="UTF-8" standalone="no"?>
<svg
   xmlns:dc="http://purl.org/dc/elements/1.1/"
   xmlns:cc="http://creativecommons.org/ns#"
   xmlns:rdf="http://www.w3.org/1999/02/22-rdf-syntax-ns#"
   xmlns:svg="http://www.w3.org/2000/svg"
   xmlns="http://www.w3.org/2000/svg"
   xmlns:sodipodi="http://sodipodi.sourceforge.net/DTD/sodipodi-0.dtd"
   xmlns:inkscape="http://www.inkscape.org/namespaces/inkscape"
   width="24"
   height="24"
   viewBox="0 0 24 24"
   id="svg2"
   version="1.1"
   inkscape:version="0.91 r"
   sodipodi:docname="xfce-games.svg">
  <metadata
     id="metadata10">
    <rdf:RDF>
      <cc:Work
         rdf:about="">
        <dc:format>image/svg+xml</dc:format>
        <dc:type
           rdf:resource="http://purl.org/dc/dcmitype/StillImage" />
        <dc:title />
      </cc:Work>
    </rdf:RDF>
  </metadata>
  <defs
     id="defs8" />
  <sodipodi:namedview
     pagecolor="#ffffff"
     bordercolor="#666666"
     borderopacity="1"
     objecttolerance="10"
     gridtolerance="10"
     guidetolerance="10"
     inkscape:pageopacity="0"
     inkscape:pageshadow="2"
     inkscape:window-width="1920"
     inkscape:window-height="1056"
     id="namedview6"
     showgrid="true"
     inkscape:zoom="41.7193"
     inkscape:cx="10.260334"
     inkscape:cy="16.831568"
     inkscape:window-x="0"
     inkscape:window-y="24"
     inkscape:window-maximized="1"
     inkscape:current-layer="svg2">
    <inkscape:grid
       type="xygrid"
       id="grid4138" />
  </sodipodi:namedview>
  <path
     style="fill:#d64c62"
     d="m 9.4687501,6.0000002 c -1.219472,0 -1.718572,0.109363 -2.1079082,0.223604 -0.606346,0.177917 -1.225893,0.496171 -1.614256,0.994672 C 3.4722497,10.1376 1.9942978,17.050848 2.4038152,17.805739 c 0.4095182,0.757946 4.0949057,-0.751974 6.0263619,-3.658455 0.146693,-0.216993 0.416015,-0.647489 0.416015,-0.647489 l 6.3076119,0 c 0,0 0.269319,0.430496 0.416015,0.647489 1.931493,2.906481 5.616836,4.416401 6.026362,3.658455 C 22.005707,17.050848 20.527787,10.1376 18.253411,7.2182762 17.86504,6.7197752 17.245511,6.4015212 16.639154,6.2236042 16.24981,6.1093632 15.75074,6.0000002 14.531246,6.0000002 Z m 6.2958929,1.925826 c 0.328552,0.01254 0.610631,0.237617 0.6958,0.5552 0.108083,0.400541 -0.129515,0.812746 -0.530273,0.919961 -0.400494,0.107053 -0.811874,-0.131125 -0.918456,-0.531761 -0.107146,-0.400067 0.130247,-0.811259 0.530273,-0.918497 0.07256,-0.0194 0.147609,-0.02779 0.222656,-0.02491 z m -8.264641,0.074174 0.9999981,0 0,1.5 1.4999999,0 0,0.9996668 -1.4999999,0 0,1.500065 -0.9999981,0 0,-1.500065 -1.4999986,0 0,-0.9996668 1.4999986,0 z m 10.103018,0.986418 c 0.328965,0.01273 0.611173,0.238504 0.695801,0.556665 0.107146,0.400066 -0.130247,0.8112598 -0.530274,0.9184968 -0.400523,0.108087 -0.812709,-0.129521 -0.91992,-0.5302958 -0.107987,-0.400987 0.130386,-0.813398 0.531737,-0.919962 0.07256,-0.0194 0.147609,-0.0278 0.222656,-0.02491 z m -2.898923,0.776401 c 0.328965,0.01273 0.611172,0.2385028 0.6958,0.5566638 0.107145,0.400067 -0.130247,0.811259 -0.530273,0.918497 -0.400048,0.10715 -0.811224,-0.130253 -0.918456,-0.530296 -0.107146,-0.400067 0.130247,-0.8112598 0.530273,-0.9184968 0.07248,-0.0199 0.147536,-0.02878 0.222656,-0.02637 z m 1.762205,1.0620568 c 0.356746,-0.02256 0.679829,0.209807 0.771973,0.555199 0.107048,0.400513 -0.131119,0.811911 -0.531738,0.918498 -0.40005,0.10715 -0.811224,-0.130254 -0.918457,-0.530297 -0.107145,-0.400067 0.130247,-0.811259 0.530273,-0.918497 0.04836,-0.01322 0.09793,-0.02157 0.147949,-0.02491 z"
     id="path4"
     inkscape:connector-curvature="0"
     sodipodi:nodetypes="sssccccccsssscccccccccccccccccccccccccccccccccccccc" />
</svg>
