<?xml version="1.0" encoding="UTF-8" standalone="no"?>
<svg
   xmlns:dc="http://purl.org/dc/elements/1.1/"
   xmlns:cc="http://creativecommons.org/ns#"
   xmlns:rdf="http://www.w3.org/1999/02/22-rdf-syntax-ns#"
   xmlns:svg="http://www.w3.org/2000/svg"
   xmlns="http://www.w3.org/2000/svg"
   xmlns:sodipodi="http://sodipodi.sourceforge.net/DTD/sodipodi-0.dtd"
   xmlns:inkscape="http://www.inkscape.org/namespaces/inkscape"
   width="24"
   height="24"
   viewBox="0 0 19.2 19.2"
   id="svg2"
   version="1.1"
   inkscape:version="0.91 r"
   sodipodi:docname="preferences-system-time.svg">
  <metadata
     id="metadata60">
    <rdf:RDF>
      <cc:Work
         rdf:about="">
        <dc:format>image/svg+xml</dc:format>
        <dc:type
           rdf:resource="http://purl.org/dc/dcmitype/StillImage" />
        <dc:title />
      </cc:Work>
    </rdf:RDF>
  </metadata>
  <defs
     id="defs58" />
  <sodipodi:namedview
     pagecolor="#ffffff"
     bordercolor="#666666"
     borderopacity="1"
     objecttolerance="10"
     gridtolerance="10"
     guidetolerance="10"
     inkscape:pageopacity="0"
     inkscape:pageshadow="2"
     inkscape:window-width="1920"
     inkscape:window-height="1056"
     id="namedview56"
     showgrid="true"
     inkscape:zoom="16"
     inkscape:cx="17.845636"
     inkscape:cy="11.495459"
     inkscape:window-x="0"
     inkscape:window-y="24"
     inkscape:window-maximized="1"
     inkscape:current-layer="svg2">
    <inkscape:grid
       type="xygrid"
       id="grid4229" />
  </sodipodi:namedview>
  <path
     style="fill:#fd4651;fill-opacity:1"
     d="m 9.506666,3.9999998 0.186667,0 c 0.168,0 0.306667,0.102341 0.306667,0.23077 l 0,0.738461 c 0,0.126421 -0.138667,0.230769 -0.306667,0.230769 l -0.186667,0 C 9.338667,5.1999998 9.2,5.0956518 9.2,4.9692308 l 0,-0.738461 c 0,-0.128429 0.138667,-0.23077 0.306666,-0.23077 z"
     id="path20"
     inkscape:connector-curvature="0" />
  <path
     style="fill:#fd4651;fill-opacity:1"
     d="m 9.506666,14.039999 0.186667,0 c 0.168,0 0.306667,0.104173 0.306667,0.230383 l 0,0.739233 c 0,0.12621 -0.138667,0.230384 -0.306667,0.230384 l -0.186667,0 C 9.338667,15.239999 9.2,15.135825 9.2,15.009615 l 0,-0.739233 c 0,-0.12621 0.138667,-0.230383 0.306666,-0.230383 z"
     id="path22"
     inkscape:connector-curvature="0" />
  <path
     style="fill:#fd4651;fill-opacity:1"
     d="m 4,9.6923064 0,-0.184615 c 0,-0.168561 0.104173,-0.307692 0.232387,-0.307692 l 0.737229,0 c 0.1262105,0 0.2303839,0.139131 0.2303839,0.307692 l 0,0.184615 c 0,0.171238 -0.1041734,0.307693 -0.2303839,0.307693 l -0.737229,0 C 4.104173,9.9999994 4,9.8635444 4,9.6923064 Z"
     id="path24"
     inkscape:connector-curvature="0" />
  <path
     style="fill:#fd4651;fill-opacity:1"
     d="m 14,9.6923064 0,-0.184615 c 0,-0.168561 0.104348,-0.307692 0.230769,-0.307692 l 0.738461,0 c 0.128429,0 0.23077,0.139131 0.23077,0.307692 l 0,0.184615 c 0,0.171238 -0.102341,0.307693 -0.23077,0.307693 l -0.738461,0 C 14.104348,9.9999994 14,9.8635444 14,9.6923064 Z"
     id="path26"
     inkscape:connector-curvature="0" />
  <circle
     style="opacity:1;fill:none;fill-opacity:1;fill-rule:nonzero;stroke:#fd4651;stroke-width:1.60000002;stroke-linecap:butt;stroke-linejoin:miter;stroke-miterlimit:4;stroke-dasharray:none;stroke-dashoffset:0;stroke-opacity:1"
     id="path4231"
     cx="9.6000004"
     cy="9.6000004"
     r="7.1999998" />
  <path
     style="fill:#fd4651;fill-opacity:1;fill-rule:nonzero;stroke:none"
     d="m 6.7976563,6.3960938 c -0.0908,0 -0.1819812,0.03511 -0.2507812,0.103906 l -0.014844,0.01719 c -0.1392,0.1376 -0.1392,0.3624 0,0.5 l 2.0843749,2.084374 c 9.57e-4,9.69e-4 0.0022,0.0014 0.0031,0.0023 a 1.1,1.1 0 0 1 0.525,-0.503906 c -0.0044,-0.0049 -0.0063,-0.0109 -0.01094,-0.01563 L 7.0492187,6.4999998 c -0.0696,-0.0688 -0.1607624,-0.103906 -0.2515624,-0.103906 z"
     id="path55"
     inkscape:connector-curvature="0" />
  <path
     style="fill:#fd4651;fill-opacity:1;fill-rule:nonzero;stroke:none"
     d="m 14.076562,6.5851558 c -0.04574,0.0058 -0.09098,0.02071 -0.133594,0.04531 l -3.657031,2.110937 a 1.1,1.1 0 0 1 0.400782,0.6937496 l 3.656249,-2.1109366 c 0.170436,-0.0984 0.228069,-0.316109 0.130469,-0.485157 l -0.04531,-0.07891 c -0.0738,-0.127826 -0.214345,-0.192258 -0.351562,-0.175 z"
     id="path57"
     inkscape:connector-curvature="0" />
  <path
     style="fill:#fd4651;fill-opacity:1;fill-rule:nonzero;stroke:none"
     d="m 8.889062,10.439843 -2.0421869,3.763281 c -0.0468,0.086 -0.017213,0.196837 0.067187,0.248437 l 0.023438,0.01563 c 0.0844,0.05 0.1891376,0.02194 0.2359376,-0.06406 L 9.221093,10.631256 A 1.1,1.1 0 0 1 8.889062,10.43985 Z"
     id="path59"
     inkscape:connector-curvature="0" />
  <path
     style="fill:#fd4651;fill-opacity:1;fill-rule:nonzero;stroke:none"
     d="m 9.6,8.3999998 c -0.6633,0 -1.2000002,0.5367 -1.2000002,1.1999996 0,0.6632996 0.5367002,1.1999996 1.2000002,1.1999996 0.6633,0 1.2,-0.5367 1.2,-1.1999996 0,-0.6632996 -0.5367,-1.1999996 -1.2,-1.1999996 z m 0,0.4 c 0.442,0 0.8,0.358 0.8,0.7999996 0,0.4419996 -0.358,0.7999996 -0.8,0.7999996 -0.442,0 -0.8,-0.358 -0.8,-0.7999996 0,-0.4419996 0.358,-0.7999996 0.8,-0.7999996 z"
     id="path61"
     inkscape:connector-curvature="0" />
</svg>
