<svg xmlns="http://www.w3.org/2000/svg" viewBox="0 0 48 48" xmlns:xlink="http://www.w3.org/1999/xlink">
<defs>
<linearGradient gradientTransform="matrix(.8075 0 0 .93585 59.41 -1.1145)" id="linearGradient3478" y1="50.786" y2="2.906" gradientUnits="userSpaceOnUse" x2="0">
<stop offset="0" style="stop-color:#aaa"/>
<stop offset="1" style="stop-color:#d2d2d2"/>
</linearGradient>
<linearGradient id="linearGradient5060">
<stop offset="0"/>
<stop offset="1" style="stop-opacity:0"/>
</linearGradient>
<linearGradient gradientTransform="matrix(.07041 0 0 .01537 -1.4497 38.629)" id="linearGradient4420" y1="366.65" y2="609.51" gradientUnits="userSpaceOnUse" x2="0">
<stop offset="0" style="stop-opacity:0"/>
<stop offset=".5"/>
<stop offset="1" style="stop-opacity:0"/>
</linearGradient>
<linearGradient gradientTransform="matrix(.63801 -.64114 .85963 .85535 -24.357 1.9382)" id="linearGradient3887" y1="24.99" y2="30" gradientUnits="userSpaceOnUse" x2="0">
<stop offset="0" style="stop-color:#565656"/>
<stop offset=".5" style="stop-color:#9a9a9a"/>
<stop offset="1" style="stop-color:#545454"/>
</linearGradient>
<linearGradient gradientTransform="matrix(.65657 -.65979 .73452 .73087 -21.951 5.3143)" id="linearGradient3885" y1="25.357" y2="31.211" gradientUnits="userSpaceOnUse" x2="0">
<stop offset="0" style="stop-color:#181818"/>
<stop offset=".135" style="stop-color:#dbdbdb"/>
<stop offset=".202" style="stop-color:#a4a4a4"/>
<stop offset=".27" style="stop-color:#fff"/>
<stop offset=".447" style="stop-color:#8d8d8d"/>
<stop offset=".571" style="stop-color:#959595"/>
<stop offset=".72" style="stop-color:#cecece"/>
<stop offset="1" style="stop-color:#181818"/>
</linearGradient>
<linearGradient gradientTransform="matrix(.63801 -.64114 .85963 .85535 -24.54 2.1218)" id="linearGradient3889" y1="24.99" y2="30" gradientUnits="userSpaceOnUse" x2="0">
<stop offset="0" style="stop-color:#b1b1b1"/>
<stop offset=".5" style="stop-color:#fff"/>
<stop offset="1" style="stop-color:#8f8f8f"/>
</linearGradient>
<linearGradient gradientTransform="matrix(.63801 -.64114 .85963 .85535 -23.905 1.4837)" id="linearGradient3893" y1="24.99" y2="30" gradientUnits="userSpaceOnUse" x2="0">
<stop offset="0" style="stop-color:#b1b1b1"/>
<stop offset=".5" style="stop-color:#fff"/>
<stop offset="1" style="stop-color:#8f8f8f"/>
</linearGradient>
<linearGradient gradientTransform="matrix(.56036 .02419 .02416 .55967 -1.3918 -1.4448)" id="linearGradient3901" y1="37.372" y2="41.392" x1="5.518" gradientUnits="userSpaceOnUse" x2="9.522">
<stop offset="0" style="stop-color:#dbce48"/>
<stop offset="1" style="stop-color:#c5b625"/>
</linearGradient>
<linearGradient gradientTransform="matrix(.63801 -.64114 .85963 .85535 -23.084 .65899)" id="linearGradient3895" y1="24.99" y2="30" gradientUnits="userSpaceOnUse" x2="0">
<stop offset="0" style="stop-color:#565656"/>
<stop offset=".5" style="stop-color:#9a9a9a"/>
<stop offset="1" style="stop-color:#545454"/>
</linearGradient>
<linearGradient gradientTransform="matrix(.63801 -.64114 .85963 .85535 -23.267 .8426)" id="linearGradient3897" y1="24.99" y2="30" gradientUnits="userSpaceOnUse" x2="0">
<stop offset="0" style="stop-color:#b1b1b1"/>
<stop offset=".5" style="stop-color:#fff"/>
<stop offset="1" style="stop-color:#8f8f8f"/>
</linearGradient>
<linearGradient gradientTransform="matrix(.63801 -.64114 .85963 .85535 -23.722 1.3001)" id="linearGradient3891" y1="24.99" y2="30" gradientUnits="userSpaceOnUse" x2="0">
<stop offset="0" style="stop-color:#565656"/>
<stop offset=".5" style="stop-color:#9a9a9a"/>
<stop offset="1" style="stop-color:#545454"/>
</linearGradient>
<linearGradient gradientTransform="translate(-.00047)" id="linearGradient3476" y1="6.729" y2="47.013" gradientUnits="userSpaceOnUse" x2="0">
<stop offset="0" style="stop-color:#f4f4f4"/>
<stop offset="1" style="stop-color:#dbdbdb"/>
</linearGradient>
<linearGradient gradientTransform="matrix(.63801 -.64114 .85963 .85535 -24.6 2.1817)" id="linearGradient3899" y1="29.057" y2="26.03" gradientUnits="userSpaceOnUse" x2="0">
<stop offset="0" style="stop-color:#ece5a5"/>
<stop offset="1" style="stop-color:#fcfbf2"/>
</linearGradient>
<linearGradient gradientTransform="matrix(.9977 0 0 1.0642 .16333 -.13926)" id="linearGradient3135" y1="8.059" y2="5.457" x1="32.892" gradientUnits="userSpaceOnUse" x2="36.358">
<stop offset="0" style="stop-color:#fefefe"/>
<stop offset="1" style="stop-color:#cbcbcb"/>
</linearGradient>
<radialGradient cx="605.71" cy="486.65" gradientTransform="matrix(-.0241 0 0 .01537 21.522 38.629)" id="radialGradient4422" xlink:href="#linearGradient5060" r="117.14" gradientUnits="userSpaceOnUse"/>
<radialGradient cx="605.71" cy="486.65" gradientTransform="matrix(.0241 0 0 .01537 26.478 38.629)" id="radialGradient4424" xlink:href="#linearGradient5060" r="117.14" gradientUnits="userSpaceOnUse"/>
</defs>
<g transform="matrix(.95613 0 0 .95613 1.0525 2.1059)">
<rect width="34" x="7" y="44.266" height="3.734" style="opacity:.402;fill:url(#linearGradient4420)"/>
<path style="opacity:.402;fill:url(#radialGradient4422)" d="m7 44.266v3.7337c-1.2409 0.007-3-0.83652-3-1.8671 0-1.0305 1.3848-1.8666 3-1.8666z"/>
<path style="opacity:.402;fill:url(#radialGradient4424)" d="m41 44.266v3.7337c1.2409 0.007 3-0.83652 3-1.8671 0-1.0305-1.3848-1.8666-3-1.8666z"/>
</g>
<path style="fill:url(#linearGradient3476);stroke:url(#linearGradient3478);stroke-linejoin:round" d="m6.4995 1.5h24.061c1.4069 0.48538 8.9655 6.0151 10.939 9.844v35.156h-35v-45z"/>
<g style="fill-rule:evenodd">
<path style="stroke-opacity:.166;stroke:#000;stroke-linejoin:round;fill-opacity:.327;stroke-width:.5" d="m29.767 1.8146c0.6375 4.1251 0.60946 9.0345 0.60946 9.0345s4.8697-0.1115 10.885 0.59393c-4.8969-4.7878-8.3284-6.7842-11.495-9.6284z"/>
<path style="fill:url(#linearGradient3135)" d="m29.657 1.5079c1.4122 4.1225 1.2951 8.2607 1.2951 8.2607s7.833 0.54731 10.175 1.5939c0-1.7111-9.2975-9.8254-11.47-9.8546z"/>
</g>
<g style="stroke-linejoin:round;stroke-width:.5" transform="translate(21.24181 16.98869)">
<path style="fill:url(#linearGradient3885);stroke:#0c0c0c" d="m3.9957 16.48c0.44592-0.33462 1.6971 0.29307 2.8469 1.4371 1.147 1.1413 1.7514 2.3626 1.4244 2.8129-0.00124 0.0017 0.028135 0.02504 0.026864 0.02673l16.01-16.089c0.406-0.4087-0.225-1.6995-1.411-2.8799-1.187-1.1804-2.481-1.8056-2.887-1.3971l-16.01 16.089z"/>
<path style="opacity:.8;fill:#ffb6ed;stroke:#e28ccd" d="m18.052 2.3545c0.44592-0.33462 1.6971 0.29307 2.8469 1.4371 1.147 1.1413 1.7514 2.3626 1.4244 2.8129-0.0012 0.00171 0.02814 0.025041 0.02686 0.02673l1.9539-1.9635 0.03988-0.040071c0.0013-0.00169-0.02811-0.025017-0.02686-0.02673 0.327-0.4502-0.277-1.6715-1.424-2.8128-1.15-1.1441-2.401-1.7718-2.847-1.4372l-0.03988 0.040071-1.9539 1.9635z"/>
</g>
<g transform="translate(21.24181 16.98869)">
<path style="opacity:.6;fill:#0c0c0c" d="m3.9957 16.48c0.44592-0.33462 1.6971 0.29307 2.8469 1.4371 1.147 1.1413 1.7514 2.3626 1.4244 2.8129-0.00124 0.0017 0.028135 0.02504 0.026864 0.02673l11.025-11.08 0.03988-0.040071c0.0013-0.00169-0.02811-0.025017-0.02686-0.026729 0.328-0.4506-0.277-1.6719-1.424-2.8132-1.15-1.1441-2.401-1.7718-2.847-1.4372l-0.04 0.0401-11.025 11.08z"/>
<path style="fill:url(#linearGradient3887)" d="m15.862 4.5553c0.44592-0.33462 1.6971 0.29307 2.8469 1.4371 1.147 1.1413 1.7514 2.3626 1.4244 2.8129-0.0012 0.00171 0.02814 0.025039 0.02686 0.026729l0.19938-0.20036c0.0013-0.00169-0.02811-0.025017-0.02686-0.026729 0.327-0.4502-0.277-1.6715-1.424-2.8128-1.15-1.1441-2.401-1.7718-2.847-1.4371l-0.19938 0.20036z"/>
<path style="fill:url(#linearGradient3889)" d="m15.679 4.7389c0.44592-0.33462 1.6971 0.29307 2.8469 1.4371 1.147 1.1413 1.7514 2.3626 1.4244 2.8129-0.0012 0.00171 0.02813 0.025041 0.02686 0.026731l0.19938-0.20036c0.0013-0.00169-0.02811-0.025018-0.02686-0.02673 0.328-0.4502-0.277-1.6715-1.424-2.8128-1.149-1.1441-2.401-1.7717-2.847-1.4371l-0.19938 0.20036z"/>
<path style="fill:url(#linearGradient3891)" d="m16.497 3.9173c0.44592-0.33462 1.6971 0.29307 2.8469 1.4371 1.147 1.1413 1.7514 2.3626 1.4244 2.8129-0.0012 0.00171 0.02813 0.02504 0.02686 0.026729l0.19938-0.20036c0.0013-0.00169-0.02811-0.025017-0.02686-0.026729 0.327-0.4503-0.277-1.6715-1.424-2.8129-1.15-1.144-2.401-1.7717-2.847-1.4371l-0.19938 0.20036z"/>
<path style="fill:url(#linearGradient3893)" d="m16.314 4.1009c0.44592-0.33462 1.6971 0.29307 2.8469 1.4371 1.147 1.1413 1.7514 2.3626 1.4244 2.8129-0.0012 0.00171 0.02814 0.02504 0.02686 0.02673l0.19938-0.20036c0.0013-0.00169-0.02811-0.025016-0.02686-0.026729 0.328-0.4502-0.277-1.6715-1.424-2.8128-1.15-1.1441-2.401-1.7718-2.847-1.4372l-0.19938 0.20036z"/>
<path style="fill:url(#linearGradient3895)" d="m17.135 3.2761c0.44592-0.33462 1.6971 0.29307 2.8469 1.4371 1.147 1.1413 1.7514 2.3626 1.4244 2.8129-0.0012 0.00171 0.02813 0.025041 0.02686 0.026731l0.19938-0.20036c0.0013-0.00169-0.02811-0.025018-0.02686-0.02673 0.32704-0.45028-0.27735-1.6716-1.4244-2.8129-1.1498-1.1441-2.401-1.7717-2.8469-1.4371l-0.19938 0.20036z"/>
<path style="fill:url(#linearGradient3897)" d="m16.952 3.4597c0.44592-0.33462 1.6971 0.29307 2.8469 1.4371 1.147 1.1413 1.7514 2.3626 1.4244 2.8129-0.0012 0.00171 0.02814 0.025041 0.02686 0.02673l0.19938-0.20035c0.0013-0.00169-0.02811-0.025019-0.02686-0.02673 0.328-0.4502-0.277-1.6715-1.424-2.8128-1.149-1.144-2.401-1.7717-2.847-1.4371l-0.19938 0.20035z"/>
</g>
<g style="fill-rule:evenodd;stroke-width:.5" transform="translate(21.24181 16.98869)">
<path style="fill:url(#linearGradient3899);stroke:url(#linearGradient3901)" d="m0.92764 23.761 7.2837-2.9708 0.062055-0.06205c0.3271-0.45-0.2852-1.671-1.4322-2.812-1.1498-1.144-2.3995-1.769-2.8454-1.434l-3.0681 7.2795z"/>
<path style="fill:#0c0c0c;stroke:#0c0c0c" d="m1.7587 21.79-0.83151 1.964 1.9866-0.815c-0.1592-0.191-0.3062-0.384-0.4974-0.574-0.22-0.219-0.4365-0.397-0.6577-0.575z"/>
</g>
</svg>
