<svg height="32" version="1.1" viewBox="0 0 9.031 9.031" width="32" xmlns="http://www.w3.org/2000/svg">
 <path d="m1.693.282 0 .677-.847 0c-.169 0-.282.141-.282.282l-0 7.507c-0 .141.141.282.282.282l7.338 0c.141 0 .282-.141.282-.282L8.467 1.242C8.467 1.101 8.325.96 8.184.96l-.846 0 0-.677C7.338-0 7.338-0 7.055-0l-.734 0c-.282 0-.282 0-.282.282l0 .564-3.048 0 0-.564c0-.282 0-.282-.282-.282l-.734 0c-.282 0-.282 0-.282.282zm.376.094.546 0 0 1.131c0 .469-.546.469-.546 0zm4.346 0 .546 0 0 1.131c0 .469-.546.469-.546 0zm-5.287 2.446 6.773 0 0 5.645-6.773-0z" fill="#cacaca"/>
 <g transform="matrix(.2822 0 0 .2822 -9.498 -6.626)"/>
 <g fill="#3798d6" transform="scale(1.1417 .8759)">
  <path d="m4.052 6.341q.227 0 .422.07.195.07.34.205.145.135.227.338.082.2.082.461 0 .287-.089.516-.089.227-.263.386-.174.157-.432.241-.256.084-.588.084-.133 0-.263-.012Q3.357 8.617 3.237 8.593 3.118 8.571 3.01 8.535 2.904 8.499 2.817 8.451l0-.644q.084.048.195.092.111.041.229.072.121.029.241.048.121.017.229.017.323 0 .492-.133.169-.135.169-.427 0-.26-.166-.395-.164-.137-.509-.137-.063 0-.135.007-.07.007-.14.019-.068.012-.13.027-.063.012-.109.027L2.887 6.864 3.019 5.067l1.862 0 0 .632-1.215 0-.058.692q.077-.017.178-.034.104-.017.265-.017z" fill="#3798d6"/>
 </g>
</svg>
