<svg height="32" version="1.1" viewBox="0 0 9.031 9.031" width="32" xmlns="http://www.w3.org/2000/svg">
 <path d="m1.693.282 0 .677-.847 0c-.169 0-.282.141-.282.282l-0 7.507c-0 .141.141.282.282.282l7.338 0c.141 0 .282-.141.282-.282L8.467 1.242C8.467 1.101 8.325.96 8.184.96l-.846 0 0-.677C7.338-0 7.338-0 7.055-0l-.734 0c-.282 0-.282 0-.282.282l0 .564-3.048 0 0-.564c0-.282 0-.282-.282-.282l-.734 0c-.282 0-.282 0-.282.282zm.376.094.546 0 0 1.131c0 .469-.546.469-.546 0zm4.346 0 .546 0 0 1.131c0 .469-.546.469-.546 0zm-5.287 2.446 6.773 0 0 5.645-6.773-0z" fill="#cacaca"/>
 <g transform="matrix(.2822 0 0 .2822 -9.498 -6.626)"/>
 <g fill="#3798d6" transform="scale(1.1417 .8759)">
  <path d="m5.173 8.593-2.366 0 0-.518L3.637 7.18Q3.794 7.011 3.921 6.869 4.049 6.727 4.141 6.591 4.232 6.456 4.283 6.317q.051-.14.051-.301 0-.178-.109-.277-.106-.099-.287-.099-.191 0-.367.094-.176.094-.369.268L2.798 5.521Q2.906 5.422 3.024 5.333 3.142 5.241 3.285 5.171 3.427 5.101 3.598 5.06q.171-.043.383-.043.253 0 .453.07.203.07.345.2.142.128.217.311.077.183.077.412 0 .207-.072.398Q4.929 6.596 4.804 6.78 4.679 6.96 4.512 7.141 4.348 7.32 4.16 7.505l-.424.427 0 .034 1.437 0 0 .627z" fill="#3798d6"/>
 </g>
</svg>
