<svg height="32" version="1.1" viewBox="0 0 9.031 9.031" width="32" xmlns="http://www.w3.org/2000/svg">
 <path d="m1.693.282 0 .677-.847 0c-.169 0-.282.141-.282.282l-0 7.507c-0 .141.141.282.282.282l7.338 0c.141 0 .282-.141.282-.282L8.467 1.242C8.467 1.101 8.325.96 8.184.96l-.846 0 0-.677C7.338-0 7.338-0 7.055-0l-.734 0c-.282 0-.282 0-.282.282l0 .564-3.048 0 0-.564c0-.282 0-.282-.282-.282l-.734 0c-.282 0-.282 0-.282.282zm.376.094.546 0 0 1.131c0 .469-.546.469-.546 0zm4.346 0 .546 0 0 1.131c0 .469-.546.469-.546 0zm-5.287 2.446 6.773 0 0 5.645-6.773-0z" fill="#cacaca"/>
 <g transform="matrix(.2822 0 0 .2822 -9.498 -6.626)"/>
 <g fill="#3798d6" transform="scale(1.1417 .8759)">
  <path d="m3.841 8.593-2.366 0 0-.518.83-.895Q2.462 7.011 2.589 6.869 2.717 6.727 2.809 6.591 2.901 6.456 2.951 6.317q.051-.14.051-.301 0-.178-.109-.277-.106-.099-.287-.099-.191 0-.367.094-.176.094-.369.268L1.466 5.521q.109-.099.227-.188.118-.092.26-.162.142-.07.314-.111.171-.043.383-.043.253 0 .453.07.203.07.345.2.142.128.217.311.077.183.077.412 0 .207-.072.398Q3.598 6.596 3.472 6.78 3.347 6.96 3.18 7.141 3.016 7.32 2.828 7.505l-.424.427 0 .034 1.437 0 0 .627z" fill="#3798d6"/>
  <path d="m6.558 7.862-.424 0 0 .731-.726 0 0-.731-1.457 0 0-.518 1.498-2.277.685 0 0 2.216.424 0 0 .579zm-1.15-.579 0-.598q0-.031 0-.089.002-.06.005-.135.002-.075.005-.154.005-.08.007-.152.005-.072.007-.125.005-.055.007-.08l-.022 0q-.043.101-.099.215-.053.113-.123.227l-.588.892.801 0z" fill="#3798d6"/>
 </g>
</svg>
