<svg height="32" version="1.1" viewBox="0 0 9.031 9.031" width="32" xmlns="http://www.w3.org/2000/svg">
 <path d="m1.693.282 0 .677-.847 0c-.169 0-.282.141-.282.282l-0 7.507c-0 .141.141.282.282.282l7.338 0c.141 0 .282-.141.282-.282L8.467 1.242C8.467 1.101 8.325.96 8.184.96l-.846 0 0-.677C7.338-0 7.338-0 7.055-0l-.734 0c-.282 0-.282 0-.282.282l0 .564-3.048 0 0-.564c0-.282 0-.282-.282-.282l-.734 0c-.282 0-.282 0-.282.282zm.376.094.546 0 0 1.131c0 .469-.546.469-.546 0zm4.346 0 .546 0 0 1.131c0 .469-.546.469-.546 0zm-5.287 2.446 6.773 0 0 5.645-6.773-0z" fill="#cacaca"/>
 <g transform="matrix(.2822 0 0 .2822 -9.498 -6.626)"/>
 <g fill="#3798d6" transform="scale(1.1417 .8759)">
  <path d="m3.704 5.856q0 .183-.06.33Q3.585 6.331 3.482 6.442 3.38 6.55 3.241 6.625 3.103 6.698 2.942 6.736l0 .014q.427.053.646.26.219.205.219.555 0 .232-.084.429-.082.195-.256.34-.171.145-.434.227-.26.08-.615.08-.285 0-.535-.048-.251-.046-.468-.142l0-.634q.109.058.229.101.121.043.241.075.121.029.236.043.118.014.222.014.207 0 .345-.039.137-.039.219-.109.082-.07.116-.166.036-.099.036-.215 0-.109-.046-.195Q2.971 7.238 2.869 7.177 2.77 7.115 2.609 7.081 2.447 7.047 2.211 7.047l-.251 0 0-.523.246 0q.222 0 .369-.039.147-.041.234-.109.089-.07.125-.162.036-.092.036-.195 0-.188-.118-.294-.116-.106-.369-.106-.116 0-.217.024-.099.022-.186.058-.084.034-.157.077-.07.041-.128.082L1.42 5.364q.101-.075.219-.137.121-.063.26-.109.14-.048.301-.075.162-.027.345-.027.26 0 .473.058.215.055.367.164.152.106.234.263.084.154.084.355z" fill="#3798d6"/>
  <path d="m5.912 8.593-.745 0 0-2.04q0-.063 0-.15.002-.089.005-.183.005-.096.007-.193.005-.096.007-.176-.012.014-.041.043-.029.029-.065.065-.036.034-.075.07-.039.036-.075.065L4.525 6.42 4.163 5.972 5.299 5.067l.613 0 0 3.526z" fill="#3798d6"/>
 </g>
</svg>
