<svg width="32" xmlns="http://www.w3.org/2000/svg" height="32" viewBox="0 0 32 32" xmlns:xlink="http://www.w3.org/1999/xlink">
<g style="fill:#f8f8f8;stroke:#757575;stroke-width:.8">
<path d="M 10.378125 18.459375 C 9.890625 18.496875 9.454688 18.726563 9.173438 19.120313 L 3.689063 26.160938 C 3.689063 26.160938 3.675 26.170313 3.665625 26.184375 L 3.548438 26.357813 C 3.515625 26.395313 3.492188 26.41875 3.46875 26.465625 C 3.435938 26.507813 3.398438 26.564063 3.365625 26.634375 C 3.365625 26.648438 3.351563 26.671875 3.342188 26.685938 C 3.304688 26.765625 3.28125 26.845313 3.271875 26.939063 C 3.257813 26.985938 3.248438 27.032813 3.248438 27.089063 C 3.234375 27.135938 3.210938 27.182813 3.210938 27.24375 C 3.210938 27.24375 3.210938 27.248438 3.210938 27.2625 C 3.210938 27.271875 3.210938 27.271875 3.210938 27.285938 C 3.210938 27.379688 3.210938 27.473438 3.210938 27.567188 L 3.210938 30.6 C 3.210938 31.471875 3.904688 32.15625 4.776563 32.15625 L 33.815625 32.15625 C 34.682813 32.15625 35.38125 31.471875 35.38125 30.6 L 35.38125 27.482813 C 35.38125 27.426563 35.38125 27.35625 35.38125 27.285938 C 35.38125 27.24375 35.38125 27.20625 35.38125 27.159375 C 35.371875 27.103125 35.371875 27.042188 35.348438 26.985938 C 35.348438 26.939063 35.310938 26.878125 35.301563 26.835938 C 35.240625 26.657813 35.160938 26.498438 35.04375 26.357813 L 34.93125 26.184375 C 34.917188 26.170313 34.907813 26.160938 34.907813 26.160938 L 29.423438 19.120313 C 29.095313 18.684375 28.560938 18.426563 28.017188 18.459375 C 27.4125 18.50625 26.878125 18.867188 26.634375 19.425 C 26.395313 19.96875 26.489063 20.60625 26.859375 21.079688 L 30.478125 25.734375 L 8.11875 25.734375 L 11.732813 21.079688 C 12.126563 20.582813 12.201563 19.898438 11.910938 19.33125 C 11.620313 18.759375 11.015625 18.426563 10.378125 18.459375 Z " transform="scale(.83333)"/>
<path d="M 24.698438 4.8 C 23.821875 4.89375 23.053125 5.460938 22.720313 6.285938 L 18.796875 15.248438 L 17.235938 13.06875 C 16.457813 11.98125 14.948438 11.732813 13.870313 12.510938 C 12.7875 13.289063 12.534375 14.798438 13.3125 15.876563 L 17.334375 21.510938 C 17.845313 22.204688 18.69375 22.589063 19.551563 22.495313 C 20.423438 22.40625 21.164063 21.848438 21.510938 21.060938 L 27.135938 8.189063 C 27.496875 7.410938 27.403125 6.492188 26.892188 5.784375 C 26.395313 5.090625 25.560938 4.720313 24.698438 4.8 Z " transform="scale(.83333)"/>
</g>
</svg>
