<svg width="32" xmlns="http://www.w3.org/2000/svg" height="32" viewBox="0 0 32 32" xmlns:xlink="http://www.w3.org/1999/xlink">
<g style="stroke:#a77b55">
<path style="fill:#a77b55" d="M 5.783203 37.986328 C 5.080078 37.916016 4.482422 37.21875 4.488281 36.474609 L 4.488281 7.792969 C 4.488281 7.001953 5.167969 6.275391 5.923828 6.275391 L 41.255859 6.275391 C 42.005859 6.275391 42.691406 7.001953 42.691406 7.792969 L 42.691406 33.808594 C 42.691406 34.605469 42.005859 35.326172 41.255859 35.326172 L 27.457031 35.326172 L 27.457031 36.474609 C 27.457031 37.265625 26.777344 37.986328 26.027344 37.986328 L 5.923828 37.986328 C 5.876953 37.992188 5.830078 37.992188 5.783203 37.986328 Z " transform="scale(.66667)"/>
<path style="fill:#e9b080" d="M 3.017578 10.019531 C 2.191406 10.089844 1.494141 10.787109 1.494141 11.53125 L 1.494141 40.201172 C 1.494141 40.992188 2.296875 41.712891 3.181641 41.712891 L 44.818359 41.712891 C 45.703125 41.712891 46.505859 40.992188 46.505859 40.201172 L 46.505859 14.197266 C 46.505859 13.400391 45.703125 12.679688 44.818359 12.679688 L 28.558594 12.679688 L 28.558594 11.53125 C 28.558594 10.740234 27.755859 10.019531 26.871094 10.019531 L 3.181641 10.019531 C 3.128906 10.019531 3.076172 10.019531 3.017578 10.019531 Z " transform="scale(.66667)"/>
</g>
<path style="fill:#a77b55" d="M 15.332031 12.667969 C 13.058594 12.667969 10.667969 15.0625 10.667969 18 C 10.667969 20.941406 13.058594 23.332031 15.332031 23.332031 C 18.941406 23.332031 21.332031 20.941406 21.332031 18 C 21.332031 15.0625 18.941406 12.667969 16 12.667969 Z M 16.433594 13.417969 C 16.929688 13.464844 17.410156 13.578125 17.851562 13.769531 C 17.816406 13.8125 17.789062 13.847656 17.765625 13.917969 C 17.632812 14.324219 17.429688 14.128906 17.667969 14.636719 C 17.902344 15.140625 18.097656 15.269531 18.167969 15.035156 C 18.234375 14.800781 17.996094 14.46875 18.265625 14.601562 C 18.535156 14.738281 18.734375 14.566406 18.535156 14.867188 C 18.332031 15.171875 18.335938 15.335938 18.101562 15.269531 C 17.863281 15.203125 17.867188 15.667969 17.632812 15.734375 C 17.398438 15.804688 17.316406 15.632812 17.316406 15.800781 C 17.316406 15.96875 17.449219 15.816406 17.417969 16.085938 C 17.40625 16.167969 17.410156 16.183594 17.398438 16.21875 C 17.179688 16.15625 17.078125 16.121094 16.917969 16.183594 C 16.75 16.253906 16.550781 16.683594 16.550781 16.683594 C 16.761719 16.894531 16.859375 17.046875 16.933594 17.117188 C 16.886719 17.140625 16.828125 17.152344 16.785156 17.183594 C 16.445312 17.421875 16.183594 17.464844 16.082031 17.800781 C 15.980469 18.136719 16.015625 17.828125 16.015625 18.234375 C 16.015625 18.636719 15.914062 18.363281 16.117188 18.734375 C 16.320312 19.105469 16.8125 19.28125 17.050781 19.484375 C 17.285156 19.6875 17.527344 19.042969 18 19.652344 C 18.472656 20.257812 18.5 20.015625 18.332031 20.351562 C 18.164062 20.6875 18 20.800781 17.933594 20.933594 C 17.867188 21.066406 18.0625 21.53125 18.300781 21.632812 C 18.304688 21.632812 18.3125 21.632812 18.316406 21.632812 C 18.304688 21.664062 18.296875 21.6875 18.285156 21.71875 C 17.976562 21.855469 17.605469 22.046875 17.535156 22.066406 C 17.367188 22.113281 16.777344 22.214844 16.351562 22.332031 C 16.296875 22.347656 16.253906 22.347656 16.234375 22.351562 C 16.285156 22.292969 16.707031 22.074219 16.917969 21.949219 C 17.203125 21.785156 16.898438 21.800781 16.898438 21.800781 C 16.898438 21.800781 16.445312 21.75 15.515625 21.75 C 15.050781 21.75 14.851562 21.769531 14.75 21.800781 C 14.699219 21.816406 14.675781 21.832031 14.648438 21.851562 C 14.625 21.871094 14.609375 21.894531 14.566406 21.917969 C 14.398438 22.011719 14.664062 22.113281 14.449219 22.183594 C 14.289062 22.238281 14.269531 22.183594 14.132812 22.082031 C 14.230469 21.984375 14.367188 21.867188 14.535156 21.667969 C 14.835938 21.300781 14.933594 21.367188 15.035156 21.035156 C 15.132812 20.699219 14.183594 20.800781 14.183594 20.601562 C 14.183594 20.402344 14.019531 20.265625 13.714844 20.132812 C 13.414062 20 13.621094 19.933594 13.285156 19.835938 C 12.945312 19.734375 12.566406 20.332031 12.464844 20.132812 C 12.367188 19.933594 12.785156 19.933594 12.785156 19.699219 C 12.785156 19.472656 12.304688 19.871094 12.214844 19.585938 C 12.214844 19.574219 12.203125 19.574219 12.199219 19.566406 C 12.191406 19.523438 12.195312 19.5 12.199219 19.46875 C 12.222656 19.226562 12.5 19.132812 12.617188 18.902344 C 12.75 18.632812 12.683594 19.101562 12.851562 19.335938 C 13.019531 19.566406 12.949219 19.035156 12.851562 18.734375 C 12.75 18.433594 12.914062 18.433594 13.148438 18.035156 C 13.386719 17.632812 13.382812 17.402344 13.382812 17.101562 C 13.382812 16.800781 13.546875 16.769531 13.882812 16.46875 C 14.039062 16.332031 14.160156 16.210938 14.25 16.101562 C 14.273438 16.089844 14.292969 16.089844 14.316406 16.085938 C 14.671875 15.941406 14.824219 15.726562 15.132812 15.085938 C 15.441406 14.441406 15.011719 15.042969 14.917969 15.019531 C 14.820312 14.996094 14.683594 14.824219 14.351562 14.632812 C 14.28125 14.59375 14.21875 14.578125 14.167969 14.570312 L 14.785156 13.550781 C 14.980469 13.5 15.191406 13.460938 15.398438 13.4375 C 15.476562 13.867188 15.433594 14.269531 15.433594 14.269531 C 15.433594 14.269531 15.316406 14.40625 15.316406 14.503906 C 15.316406 14.597656 15.953125 13.714844 16.050781 13.667969 C 16.144531 13.621094 16.386719 13.921875 16.433594 13.46875 C 16.4375 13.441406 16.429688 13.441406 16.433594 13.417969 Z M 17.332031 15.21875 C 17.300781 15.207031 17.257812 15.21875 17.214844 15.238281 C 17.214844 15.355469 17.171875 15.441406 17.148438 15.484375 C 17.136719 15.464844 17.101562 15.4375 17.101562 15.4375 C 17.050781 15.527344 16.941406 15.613281 17.050781 15.585938 C 17.160156 15.5625 17.242188 15.628906 17.167969 15.535156 C 17.152344 15.519531 17.160156 15.527344 17.148438 15.519531 C 17.164062 15.53125 17.191406 15.535156 17.25 15.535156 C 17.316406 15.535156 17.351562 15.535156 17.398438 15.535156 C 17.320312 15.597656 17.230469 15.621094 17.351562 15.652344 C 17.511719 15.695312 17.582031 15.703125 17.582031 15.671875 C 17.582031 15.636719 17.535156 15.519531 17.535156 15.519531 C 17.566406 15.507812 17.59375 15.492188 17.566406 15.4375 C 17.515625 15.335938 17.4375 15.234375 17.332031 15.21875 Z M 19.882812 15.503906 C 19.964844 15.632812 20.046875 15.765625 20.117188 15.902344 C 20.070312 16.171875 19.953125 16.351562 20.148438 16.351562 C 20.207031 16.351562 20.253906 16.339844 20.300781 16.335938 C 20.304688 16.351562 20.3125 16.367188 20.316406 16.382812 C 19.980469 16.382812 19.820312 16.484375 19.648438 16.453125 C 19.480469 16.417969 19.011719 16.386719 19.316406 16.085938 C 19.492188 15.90625 19.714844 15.625 19.882812 15.5 Z M 17.785156 16.117188 C 17.8125 16.128906 17.839844 16.160156 17.867188 16.21875 C 17.96875 16.453125 18.132812 16.652344 18 16.683594 C 17.867188 16.71875 17.800781 16.75 17.800781 16.75 C 17.800781 16.75 18.265625 17.054688 18.300781 16.71875 C 18.332031 16.382812 18.167969 16.183594 18.167969 16.183594 C 18.167969 16.183594 18.398438 16.417969 18.464844 16.550781 C 18.535156 16.6875 18.53125 16.550781 18.699219 16.71875 C 18.867188 16.886719 18.832031 16.050781 19.066406 16.285156 C 19.300781 16.519531 19.449219 16.515625 19.382812 16.683594 C 19.316406 16.851562 19.816406 16.480469 19.816406 16.816406 C 19.816406 17.144531 20.023438 17.273438 19.617188 17.433594 C 19.460938 17.425781 19.339844 17.398438 19.316406 17.351562 C 19.25 17.214844 18.867188 17.316406 18.867188 17.316406 C 17.859375 17.066406 17.421875 16.988281 17.132812 17.035156 C 17.140625 17.023438 17.144531 17.023438 17.148438 17.015625 C 17.296875 16.753906 17.574219 16.382812 17.484375 16.25 C 17.613281 16.175781 17.710938 16.097656 17.785156 16.117188 Z M 20.617188 17.800781 C 20.621094 17.867188 20.617188 17.933594 20.617188 18 C 20.617188 18.191406 20.605469 18.382812 20.582031 18.566406 C 20.28125 18.296875 19.851562 18.300781 19.851562 18.300781 C 19.851562 18.300781 20.113281 18.003906 20.484375 17.867188 C 20.53125 17.851562 20.578125 17.828125 20.617188 17.800781 Z "/>
</svg>
