<svg version="1.1" viewBox="0 0 32 32" xmlns="http://www.w3.org/2000/svg">
 <defs>
  <radialGradient id="radialGradient3031" cx="32.5" cy="56.5" r="33.5" gradientTransform="matrix(1 0 0 .10448 0 50.597)" gradientUnits="userSpaceOnUse">
   <stop offset="0"/>
   <stop style="stop-opacity:0" offset="1"/>
  </radialGradient>
 </defs>
 <g transform="translate(0 -1020.4)">
  <path transform="matrix(.71642 0 0 .85714 -7.2836 999.93)" d="m66 56.5a33.5 3.5 0 1 1-67 0 33.5 3.5 0 1 1 67 0z" style="fill:url(#radialGradient3031);opacity:.3"/>
  <g transform="matrix(.5 0 0 .5 44.069 524.1)">
   <path d="m-88.14 1001.6v42.823h64v-21.412l-3.048-18.353-23.952-0.118-3-6h-30.952c-1.524 0-3.048 1.529-3.048 3.059z" style="fill:#d32f2f"/>
   <rect x="-83.14" y="1006.5" width="31.571" height="11.882" style="fill:#fffdf0"/>
   <path d="m-85.08 998.53c-1.524 0-3.063 1.533-3.063 3.063v2c0-1.529 1.539-3.063 3.063-3.063h29.938l3 6 24.938 0.125 3.063 18.344v-2l-3.063-18.344-23.938-0.125-3-6z" style="opacity:.03"/>
   <path d="m-24.14 1007.7v42.823h-64v-40h30l3-6 27.952 0.118c1.524 0 3.048 1.529 3.048 3.059z" style="fill:#ef5350"/>
   <path d="m-88.14 1048.5v2h64v-2z" style="opacity:.15"/>
   <path d="m-55.14 1004.5-3 6h-30v2h31l3-6 26.938 0.125c1.524 0 3.063 1.533 3.063 3.063v-2c0-1.529-1.539-3.063-3.063-3.063z" style="opacity:.03"/>
   <path d="m-52.321 1042.2h-0.10909l-0.10909-0.1106v-3.4286c0-0.7742-0.10909-1.4378-0.43636-1.9908 2.5091-0.4423 5.2364-1.7695 5.2364-6.7465 0-1.3272-0.43636-2.5438-1.2-3.5392 0.21818-0.6636 0.32727-1.8801-0.21818-3.4285l-0.32727-0.3318s-0.21818-0.1106-0.43636-0.1106c-0.65455 0-1.6364 0.2212-3.2727 1.3272-0.87273-0.1106-1.8545-0.3318-2.9455-0.3318s-2.0727 0.1106-3.0545 0.3318c-1.5273-0.9954-2.6182-1.2166-3.2727-1.2166-0.21818 0-0.32727 0.1106-0.43636 0.1106-0.10909 0-0.32727 0.2212-0.32727 0.3318-0.54546 1.5483-0.43636 2.7649-0.21818 3.4285-0.76364 0.9954-1.2 2.212-1.2 3.5392 0 4.8664 2.8364 6.1936 5.2364 6.7465-0.10909 0.2212-0.21818 0.553-0.32727 0.8848-0.21818 0.1106-0.54546 0.2212-0.98182 0.2212-0.43636 0-0.87273-0.1106-1.2-0.4424l-0.10909-0.1106c-0.10909-0.1106-0.10909-0.2212-0.21818-0.2212l-0.21818-0.2212c0-0.1106-0.87273-1.4377-2.4-1.5483-0.54545 0-0.98182 0.2212-1.0909 0.553-0.21818 0.553 0.43636 0.9953 0.76364 1.2165 0 0 0.65454 0.3318 1.0909 1.5484 0.21818 0.7742 1.2 2.212 3.4909 2.212h0.76364v1.5484l-0.10909 0.1106s-0.10909 0 0 0c-4.9091-1.9908-8.1818-6.6359-8.1818-11.834 0-6.7465 5.3455-12.166 12-12.166s12 5.4194 12 12.166c0 5.1982-3.2727 9.8433-8.1818 11.502z" style="fill:#ab3634;stroke-width:1.0984"/>
  </g>
 </g>
</svg>
