<svg width="256" xmlns="http://www.w3.org/2000/svg" height="256" viewBox="0 0 256 256" xmlns:xlink="http://www.w3.org/1999/xlink">
<defs>
<linearGradient gradientTransform="matrix(5.33333 0 0 5.33333 -.00005 -5356.59835)" id="linear0" y1="1002.362" y2="1053.158" gradientUnits="userSpaceOnUse" x2="0">
<stop offset="0" style="stop-color:#ce3718"/>
<stop offset="1" style="stop-color:#6b3835"/>
</linearGradient>
</defs>
<path style="fill:url(#linear0)" d="M 10.375 0.00390625 L 245.628906 0.00390625 C 251.355469 0.00390625 256 4.644531 256 10.375 L 256 245.628906 C 256 251.359375 251.355469 256.003906 245.628906 256.003906 L 10.375 256.003906 C 4.644531 256.003906 0 251.359375 0 245.628906 L 0 10.375 C 0 4.644531 4.644531 0.00390625 10.375 0.00390625 Z "/>
<path style="fill:#fffffc" d="M 77.332031 48 C 69.347656 48 69.332031 56 69.332031 56 L 69.332031 69.667969 C 69.328125 69.792969 69.328125 70.042969 69.332031 70.167969 L 69.332031 191.832031 C 69.332031 199.820312 80.863281 207.832031 84 207.832031 L 180.667969 208 C 183.800781 208 186.667969 205.136719 186.667969 202 L 186.667969 70.167969 C 186.667969 67.03125 183.800781 64.167969 180.667969 64.167969 C 159.28125 64.042969 90.667969 64 90.667969 64 L 80 53.5 C 109.949219 53.234375 144.625 53.5 175.167969 53.5 C 179.160156 53.5 169.328125 48 165.332031 48 Z M 128 96 C 149.332031 96 149.332031 117.332031 149.332031 117.332031 L 149.332031 138.667969 L 138.667969 149.332031 L 160 160 L 160 170.667969 L 96 170.667969 L 96 160 L 117.332031 149.332031 L 106.667969 138.667969 L 106.667969 117.332031 C 106.667969 117.332031 106.667969 96 128 96 Z "/>
<path style="fill:#fff;fill-opacity:.149" d="M 10.667969 0 C 4.757812 0 0 4.757812 0 10.667969 L 0 245.332031 C 0 251.242188 4.757812 256 10.667969 256 L 89.5 256 L 158 0 Z "/>
</svg>
