<svg width="256" xmlns="http://www.w3.org/2000/svg" height="256" viewBox="0 0 256 256" xmlns:xlink="http://www.w3.org/1999/xlink">
<defs>
<linearGradient gradientTransform="matrix(5.33333 0 0 5.33333 0 -5356.5984)" id="linear0" y1="1053.158" y2="1004.847" gradientUnits="userSpaceOnUse" x2="0">
<stop offset="0" style="stop-color:#e06a30"/>
<stop offset="1" style="stop-color:#ff9058"/>
</linearGradient>
</defs>
<path style="fill:url(#linear0)" d="M 10.375 0 L 245.625 0 C 251.355469 0 256 4.644531 256 10.371094 L 256 245.625 C 256 251.355469 251.355469 256 245.625 256 L 10.375 256 C 4.644531 256 0 251.355469 0 245.625 L 0 10.371094 C 0 4.644531 4.644531 0 10.375 0 Z "/>
<g style="fill:#fff">
<path d="M 47.5 42.667969 L 47.5 74.5 C 120.421875 82.351562 180.804688 142.464844 180.5 213.332031 L 208.332031 213.332031 C 213.003906 116.246094 127.027344 45.859375 47.5 42.667969 Z M 47.5 100.167969 L 47.5 135 C 89.640625 138.386719 120.359375 165.25 120.832031 213.332031 L 154.332031 213.332031 C 152.492188 140.019531 99.859375 105.371094 47.5 100.167969 Z M 73.667969 162.5 C 59.609375 162.09375 47.90625 173.109375 47.5 187.167969 C 47.09375 201.222656 58.109375 212.925781 72.167969 213.332031 C 86.222656 213.738281 97.925781 202.722656 98.332031 188.667969 C 98.738281 174.609375 87.722656 162.90625 73.667969 162.5 Z "/>
<path style="fill-opacity:.149" d="M 10.667969 0 C 4.757812 0 0 4.757812 0 10.667969 L 0 245.332031 C 0 251.242188 4.757812 256 10.667969 256 L 89.5 256 L 158 0 Z "/>
</g>
</svg>
