<svg width="256" xmlns="http://www.w3.org/2000/svg" height="256" viewBox="0 0 256 256" xmlns:xlink="http://www.w3.org/1999/xlink">
<defs>
<linearGradient gradientTransform="matrix(5.33333 0 0 -5.33333 0 5612.5984)" id="linear0" y1="1053.158" y2="1004.847" gradientUnits="userSpaceOnUse" x2="0">
<stop offset="0" style="stop-color:#3b809c"/>
<stop offset="1" style="stop-color:#2e5b6b"/>
</linearGradient>
</defs>
<path style="fill:url(#linear0)" d="M 10.375 256 L 245.625 256 C 251.355469 256 256 251.355469 256 245.625 L 256 10.371094 C 256 4.644531 251.355469 0 245.625 0 L 10.375 0 C 4.644531 0 0 4.644531 0 10.371094 L 0 245.625 C 0 251.355469 4.644531 256 10.375 256 Z "/>
<g style="fill:#fff">
<path d="M 128 42.667969 C 80.871094 42.667969 42.667969 80.871094 42.667969 128 C 42.667969 175.128906 80.871094 213.332031 128 213.332031 C 175.128906 213.332031 213.332031 175.128906 213.332031 128 C 213.332031 80.871094 175.128906 42.667969 128 42.667969 Z M 128 53.332031 C 169.238281 53.332031 202.667969 86.761719 202.667969 128 C 202.667969 163.277344 178.21875 192.855469 145.332031 200.667969 C 145 199.996094 144.601562 199.28125 144.667969 198.265625 C 144.851562 195.304688 144.964844 191.464844 145.332031 188.132812 C 145.703125 184.800781 147.054688 156.871094 151.867188 149.464844 C 156.679688 142.0625 170.386719 133.191406 175.199219 132.265625 C 180.011719 131.339844 179.199219 129.398438 179.199219 127.734375 C 179.199219 126.066406 178.363281 122.421875 177.066406 121.867188 C 175.769531 121.3125 170.730469 124.5625 169.066406 124.933594 C 167.402344 125.300781 159.378906 125.984375 158.265625 124.132812 C 157.15625 122.28125 167.238281 103.421875 168.535156 101.199219 C 169.828125 98.980469 170.40625 95.945312 168 92.800781 C 165.59375 89.652344 163.992188 86.53125 163.066406 86.53125 C 160.015625 86.53125 154.085938 93.554688 151.867188 94.667969 C 149.644531 95.777344 132.066406 108.3125 130.398438 110.535156 C 128.734375 112.753906 126.539062 113.652344 124.132812 113.464844 C 121.726562 113.28125 114.058594 113.183594 111.464844 114.667969 C 108.875 116.148438 96.960938 128.253906 94 129.734375 C 91.039062 131.214844 87.183594 132.082031 85.332031 132.265625 C 83.484375 132.453125 77.398438 139.238281 75.734375 140.535156 C 74.066406 141.828125 60.917969 147.558594 59.066406 148.667969 C 57.214844 149.777344 72.578125 165.363281 74.800781 165.734375 C 76.90625 166.085938 73.589844 173.621094 69.601562 174.398438 C 59.453125 161.648438 53.332031 145.558594 53.332031 128 C 53.332031 86.761719 86.761719 53.332031 128 53.332031 Z M 121.867188 121.332031 C 124.230469 121.082031 126.132812 121.464844 126.132812 121.464844 C 126.980469 123.441406 123 129.554688 119.332031 130.398438 C 115.667969 131.246094 107.214844 143.753906 106.933594 140.933594 C 106.652344 138.113281 110.300781 128.765625 114.535156 124.535156 C 116.648438 122.417969 119.503906 121.582031 121.867188 121.332031 Z "/>
<path style="fill-opacity:.149" d="M 10.667969 0 C 4.757812 0 0 4.757812 0 10.667969 L 0 245.332031 C 0 251.242188 4.757812 256 10.667969 256 L 89.5 256 L 158 0 Z "/>
</g>
</svg>
