<svg width="256" xmlns="http://www.w3.org/2000/svg" height="256" viewBox="0 0 256 256" xmlns:xlink="http://www.w3.org/1999/xlink">
<defs>
<linearGradient gradientTransform="matrix(5.33333 0 0 5.33333 0 -5356.59733)" id="linear0" y1="1053.158" y2="1004.847" gradientUnits="userSpaceOnUse" x2="0">
<stop offset="0" style="stop-color:#9e1e25"/>
<stop offset="1" style="stop-color:#e06359"/>
</linearGradient>
</defs>
<path style="fill:url(#linear0)" d="M 10.375 0 L 245.625 0 C 251.355469 0 256 4.644531 256 10.375 L 256 245.625 C 256 251.355469 251.355469 256 245.625 256 L 10.375 256 C 4.644531 256 0 251.355469 0 245.625 L 0 10.375 C 0 4.644531 4.644531 0 10.375 0 Z "/>
<path style="fill:none;stroke:#fff;stroke-width:7.692" d="M -137.98988 250.248094 C -150.79093 248.047984 -162.819696 241.775425 -173.748407 234.744052 C -179.275623 231.187955 -184.816308 227.052646 -188.381385 221.52992 C -195.489088 210.506919 -199.130495 201.962409 -200.365251 184.051715 C -200.679553 179.467404 -201.092635 175.718236 -201.285705 175.718236 C -201.869408 175.718236 -209.161202 180.75604 -211.100891 182.502658 L -212.92384 184.141516 L -214.109205 181.312802 C -216.978329 174.44307 -217.036699 174.564301 -209.843685 172.593182 C -206.278609 171.618847 -202.673122 170.774723 -201.828998 170.720843 C -199.188866 170.554712 -204.967523 169.382817 -208.869351 169.297506 C -210.88986 169.248116 -216.152165 168.588083 -220.565855 167.820289 L -228.589523 166.428383 L -228.05072 163.568239 C -227.565798 160.977497 -223.933371 152.855049 -223.264358 152.855049 C -223.111697 152.855049 -219.40743 154.529827 -215.03415 156.572787 C -210.660869 158.615746 -205.187534 160.999947 -202.870683 161.871012 L -198.663533 163.455989 L -202.28698 160.402775 C -204.280549 158.719017 -207.589695 155.787033 -209.637144 153.874284 L -213.359372 150.407988 L -209.529384 146.730661 C -207.423564 144.710151 -205.313254 143.057824 -204.846292 143.057824 C -204.37484 143.057824 -202.709042 145.603666 -201.142025 148.71076 C -199.575007 151.822345 -197.383877 156.873618 -196.948345 157.143019 C -196.723844 157.27772 -194.829055 151.216192 -191.959932 145.028943 C -189.297349 139.290696 -185.754723 133.574899 -182.98887 129.4351 C -177.699625 121.528173 -171.476456 114.119638 -164.332833 107.838099 C -160.897967 104.825295 -152.887769 100.285884 -152.887769 100.285884 L -162.159663 99.47768 C -168.962044 98.880507 -171.943418 95.468091 -172.3116 92.684278 C -172.765092 89.222472 -169.797188 84.364269 -166.074961 82.464991 C -162.177623 80.475911 -151.864045 79.604847 -147.270753 80.880013 C -145.497195 81.373915 -143.930177 81.656787 -143.786497 81.513106 C -143.642816 81.369425 -144.082838 79.923639 -144.760831 78.298251 C -146.839711 73.323308 -146.395199 69.026358 -143.503625 66.134784 C -141.128404 63.755073 -140.764713 63.660783 -136.00529 64.091825 C -124.456957 65.138 -107.201806 78.311721 -99.393659 92.042205 C -97.485401 95.400741 -94.508517 100.074853 -92.752918 102.625185 C -92.752918 102.625185 -87.243663 104.425683 -84.760681 105.88045 C -75.812069 111.129284 -64.658857 120.481998 -60.442727 125.304281 C -53.653816 133.067527 -46.330592 142.393301 -42.177322 151.903165 C -38.450605 160.434205 -37.593011 169.032595 -36.654596 178.115907 C -35.114519 192.982367 -38.360804 209.249713 -46.312631 221.902592 C -53.245224 232.939064 -64.887848 241.375813 -77.051315 246.058905 C -96.053084 253.368659 -117.923976 253.69643 -137.98988 250.248094 Z " transform="matrix(.86999 0 0 .86999 243.21707 -9.57141)"/>
<g style="fill:#fff">
<path d="M 161.335938 186.4375 C 168.539062 181.589844 173.984375 177.121094 173.394531 176.542969 C 172.695312 175.859375 158.714844 173.773438 154.851562 173.773438 C 151.417969 173.773438 141.03125 176.917969 139.878906 178.308594 C 139.242188 179.074219 139.625 179.773438 141.691406 181.585938 C 144.046875 183.652344 154.808594 189.402344 156.328125 189.402344 C 156.660156 189.402344 158.917969 188.066406 161.335938 186.4375 Z "/>
<path d="M 187.402344 178.375 C 187.402344 173.59375 184.675781 168.21875 179.484375 162.75 C 174.160156 157.148438 164.28125 150.128906 159.347656 148.449219 C 156.457031 147.460938 156.085938 147.492188 153.191406 148.953125 C 144.613281 153.273438 135.117188 164.191406 135.59375 167.492188 C 135.949219 169.980469 140.695312 170.132812 155.792969 172.058594 C 163.214844 173.003906 171.03125 174.285156 173.160156 174.902344 C 177.449219 176.148438 184.914062 179.722656 185.625 180.871094 C 186.441406 182.195312 187.402344 180.847656 187.402344 178.375 Z "/>
<g style="stroke:#fff;stroke-width:1.047">
<path d="M -129.387 161.022398 C -131.54221 161.161588 -131.865491 162.827386 -132.803906 166.176942 C -133.957841 170.285311 -133.396588 174.537361 -131.070757 179.346173 C -129.333119 182.92472 -129.122088 183.068401 -126.706457 182.484698 C -125.30557 182.143456 -120.070206 181.806705 -115.068323 181.716904 C -107.345487 181.582204 -105.558458 181.281372 -103.129357 179.777215 C -100.206353 177.972227 -98.652806 174.074889 -99.734901 171.255155 C -100.044712 170.446952 -105.706629 168.148061 -114.969542 165.054436 C -123.240161 162.293073 -127.227299 160.887697 -129.387 161.022398 Z M -115.045873 169.979989 C -114.789941 169.971009 -114.52054 169.997949 -114.255629 170.02938 C -111.431406 170.357151 -109.765608 173.895288 -111.471816 175.951717 C -112.571871 177.271783 -116.136948 177.657925 -117.721925 176.61624 C -120.89188 174.528381 -118.85341 170.11469 -115.045873 169.979989 Z " transform="matrix(.86999 0 0 .86999 243.21707 -9.57141)"/>
<path d="M -79.211015 162.858816 C -80.2078 162.885756 -82.668331 164.380933 -87.836345 166.504713 C -97.103749 170.321231 -97.215999 170.411031 -97.42703 173.190354 C -97.682961 176.58481 -97.242939 177.249333 -93.547652 178.955541 C -90.88507 180.190297 -89.327032 178.299998 -87.257133 177.770176 C -85.928087 177.433424 -85.137843 177.006872 -83.341834 176.50848 C -81.545826 176.010088 -78.17831 175.592516 -75.86595 175.588026 C -70.913456 175.583536 -72.700485 175.224334 -74.029531 170.18204 C -75.282247 165.427108 -77.073765 162.791466 -79.211015 162.858816 Z M -91.149981 170.869014 C -89.403363 170.869014 -87.989006 172.16214 -87.989006 173.751607 C -87.989006 175.345564 -89.403363 176.6342 -91.149981 176.6342 C -92.896599 176.6342 -94.315446 175.345564 -94.315446 173.751607 C -94.315446 173.118514 -94.086455 172.521341 -93.704803 172.040909 C -93.610512 171.919678 -93.507242 171.816408 -93.394991 171.713137 C -93.11212 171.434756 -92.757408 171.228215 -92.375757 171.098005 C -92.245546 171.053104 -92.128805 171.017184 -91.994105 170.994734 C -91.976145 170.990244 -91.962675 170.976774 -91.940225 170.972284 C -91.688783 170.909424 -91.428362 170.869014 -91.149981 170.869014 Z " transform="matrix(.86999 0 0 .86999 243.21707 -9.57141)"/>
</g>
<path d="M 156.28125 147.785156 C 155.464844 147.851562 154.640625 148.230469 153.195312 148.960938 C 152.601562 149.261719 152.003906 149.589844 151.398438 149.9375 C 151.65625 150.019531 151.929688 150.121094 152.242188 150.226562 C 157.171875 151.90625 167.054688 158.917969 172.375 164.523438 C 176.671875 169.046875 179.285156 173.503906 180.054688 177.617188 C 182.839844 178.914062 185.242188 180.257812 185.625 180.882812 C 186.445312 182.207031 187.402344 180.84375 187.402344 178.375 C 187.402344 173.59375 184.671875 168.214844 179.476562 162.746094 C 174.15625 157.144531 164.273438 150.128906 159.34375 148.449219 C 157.898438 147.957031 157.097656 147.71875 156.28125 147.785156 Z "/>
<path style="fill-opacity:.149" d="M 10.667969 0 C 4.757812 0 0 4.757812 0 10.667969 L 0 245.332031 C 0 251.242188 4.757812 256 10.667969 256 L 89.5 256 L 158 0 Z "/>
</g>
</svg>
