<svg width="256" xmlns="http://www.w3.org/2000/svg" height="256" viewBox="0 0 256 256" xmlns:xlink="http://www.w3.org/1999/xlink">
<defs>
<linearGradient gradientTransform="matrix(5.33333 0 0 -5.33333 0 -5356.5984)" id="linear0" y1="-1051.702" y2="-1001.474" gradientUnits="userSpaceOnUse" x2="0">
<stop offset="0" style="stop-color:#ce5b00"/>
<stop offset="1" style="stop-color:#edb547"/>
</linearGradient>
</defs>
<path style="fill:url(#linear0)" d="M 10.375 256 L 245.625 256 C 251.355469 256 256 251.355469 256 245.625 L 256 10.371094 C 256 4.644531 251.355469 0 245.625 0 L 10.375 0 C 4.644531 0 0 4.644531 0 10.371094 L 0 245.625 C 0 251.355469 4.644531 256 10.375 256 Z "/>
<g style="fill:#fff">
<path d="M 140.085938 88.113281 C 140.085938 101.652344 139.601562 113.980469 138.636719 125.097656 C 137.667969 136.058594 136.460938 147.015625 135.007812 157.976562 L 120.988281 157.976562 C 119.539062 147.015625 118.328125 136.058594 117.363281 125.097656 C 116.394531 113.980469 115.914062 101.652344 115.914062 88.113281 L 115.914062 42.667969 L 140.085938 42.667969 L 140.085938 88.113281 M 144.195312 197.136719 C 144.195312 201.488281 142.746094 205.273438 139.84375 208.496094 C 136.945312 211.722656 132.996094 213.332031 128 213.332031 C 123.003906 213.332031 119.054688 211.722656 116.152344 208.496094 C 113.253906 205.273438 111.804688 201.488281 111.804688 197.136719 C 111.804688 192.785156 113.253906 188.996094 116.152344 185.773438 C 119.054688 182.550781 123.003906 180.941406 128 180.941406 C 132.996094 180.941406 136.945312 182.550781 139.84375 185.773438 C 142.746094 188.996094 144.195312 192.785156 144.195312 197.136719 "/>
<path style="fill-opacity:.149" d="M 10.667969 0 C 4.757812 0 0 4.757812 0 10.667969 L 0 245.332031 C 0 251.242188 4.757812 256 10.667969 256 L 89.5 256 L 158 0 Z "/>
</g>
</svg>
