<svg width="256" xmlns="http://www.w3.org/2000/svg" height="256" viewBox="0 0 256 256" xmlns:xlink="http://www.w3.org/1999/xlink">
<defs>
<linearGradient gradientTransform="matrix(5.33333 0 0 5.33333 0 -5356.5984)" id="linear0" y1="1053.158" y2="1004.847" gradientUnits="userSpaceOnUse" x2="0">
<stop offset="0" style="stop-color:#5276cc"/>
<stop offset="1" style="stop-color:#5984e0"/>
</linearGradient>
</defs>
<path style="fill:url(#linear0)" d="M 10.375 0 L 245.625 0 C 251.355469 0 256 4.644531 256 10.371094 L 256 245.625 C 256 251.355469 251.355469 256 245.625 256 L 10.375 256 C 4.644531 256 0 251.355469 0 245.625 L 0 10.371094 C 0 4.644531 4.644531 0 10.375 0 Z "/>
<g style="fill:#fff">
<path style="stroke:#557ed7;stroke-linejoin:round;stroke-linecap:round;stroke-width:.171" d="M 24.000191 11.749885 C 17.226488 11.749885 11.749826 17.226547 11.749826 24.00025 C 11.749826 30.77336 17.226488 36.250021 24.000191 36.250021 C 24.042337 36.250021 24.082703 36.250615 24.124849 36.250021 L 24.124849 24.781443 L 32.718566 15.531192 C 33.353137 16.117087 33.985334 16.879878 34.531456 17.78098 C 32.400984 14.175976 28.4968 11.749885 24.000191 11.749885 Z M 35.156529 18.968797 C 35.29306 19.27332 35.418906 19.589122 35.531098 19.90611 C 35.415938 19.587341 35.292467 19.266197 35.156529 18.968797 Z M 35.531098 19.90611 C 35.643291 20.223692 35.757265 20.546024 35.843932 20.874885 C 35.754296 20.540681 35.645072 20.221318 35.531098 19.90611 Z M 36.187633 25.249803 C 36.039824 26.484515 35.667036 27.777995 35.062739 29.1249 C 34.93808 29.440702 34.778992 29.789745 34.593786 30.125136 C 35.440869 28.662477 36.008362 27.016985 36.187633 25.249803 Z M 30.718688 34.218682 C 30.221242 34.546356 29.666808 34.856221 29.093973 35.125127 C 29.665621 34.863345 30.198091 34.56179 30.718688 34.218682 Z " transform="matrix(6.58048 0 0 6.58048 -33.71403 -34.08551)"/>
<path d="M 133.984375 218.835938 L 133.984375 142.734375 L 206.066406 171.355469 C 198.511719 190.492188 173.871094 216.777344 133.984375 218.835938 Z "/>
<path d="M 208.605469 159.3125 L 136.488281 130.753906 L 193.066406 69.855469 C 209.996094 85.488281 226.375 119.707031 208.605469 159.3125 Z "/>
<path style="fill-opacity:.149" d="M 10.667969 0 C 4.757812 0 0 4.757812 0 10.667969 L 0 245.332031 C 0 251.242188 4.757812 256 10.667969 256 L 89.5 256 L 158 0 Z "/>
</g>
</svg>
