<svg width="256" xmlns="http://www.w3.org/2000/svg" height="256" viewBox="0 0 256 256" xmlns:xlink="http://www.w3.org/1999/xlink">
<defs>
<linearGradient gradientTransform="matrix(5.33333 0 0 5.33333 0 -5356.5984)" id="linear0" y1="1008.155" y2="1050.347" gradientUnits="userSpaceOnUse" x2="0">
<stop offset="0" style="stop-color:#ec883c"/>
<stop offset="1" style="stop-color:#ec793e"/>
</linearGradient>
</defs>
<path style="fill:url(#linear0)" d="M 10.375 0 L 245.625 0 C 251.355469 0 256 4.644531 256 10.371094 L 256 245.625 C 256 251.355469 251.355469 256 245.625 256 L 10.375 256 C 4.644531 256 0 251.355469 0 245.625 L 0 10.371094 C 0 4.644531 4.644531 0 10.375 0 Z "/>
<g style="fill:#fff">
<path style="fill-rule:evenodd" d="M 132.5 50.167969 C 129.683594 50.167969 126.871094 51.148438 124.5 53 C 122.117188 54.851562 120.53125 57.429688 120.332031 60.332031 C 120.136719 63.234375 121.140625 66.152344 123.332031 68.167969 L 123.332031 68.332031 C 128.476562 72.859375 133.8125 77.527344 139 82.167969 L 80.832031 82.167969 C 76.695312 82.167969 73.179688 83.199219 70.5 85.332031 C 67.820312 87.46875 66.234375 90.613281 65.667969 94.167969 C 64.554688 101.125 69.351562 109 77.332031 109 L 102.667969 109 L 49.667969 152.832031 C 49.671875 152.832031 49.660156 152.722656 49.5 152.832031 C 46.257812 155.605469 44.035156 159.414062 43.167969 163.332031 C 42.296875 167.253906 42.695312 171.375 45 174.667969 C 49.683594 181.351562 59.113281 181.226562 65.667969 175.332031 L 93.5 149.832031 C 93.542969 152.796875 94.21875 157.523438 95.332031 161.5 C 97.621094 169.625 101.460938 177.066406 106.832031 183.667969 C 112.339844 190.4375 119.035156 195.984375 126.832031 199.832031 C 135.039062 203.878906 143.972656 205.851562 153.167969 205.832031 C 162.359375 205.832031 171.132812 203.742188 179.332031 199.667969 C 187.125 195.78125 193.996094 190.289062 199.5 183.5 C 204.855469 176.875 208.714844 169.296875 211 161.167969 C 212.160156 157.050781 212.867188 152.863281 213.167969 148.667969 C 213.457031 144.539062 213.359375 140.457031 212.832031 136.332031 C 211.808594 128.285156 209.332031 120.703125 205.5 113.832031 C 202.496094 108.445312 198.527344 103.667969 194.167969 99.5 L 194.332031 99.332031 L 192.167969 97.5 L 140.5 53.332031 C 140.503906 53.335938 140.347656 53.015625 140.332031 53 L 140.167969 53 C 137.925781 51.125 135.277344 50.160156 132.5 50.167969 Z M 152.5 96.667969 C 179.179688 96.667969 200.832031 118.320312 200.832031 145 C 200.832031 171.679688 179.179688 193.167969 152.5 193.167969 C 125.820312 193.167969 104.167969 171.679688 104.167969 145 C 104.167969 118.320312 125.820312 96.667969 152.5 96.667969 Z M 152 130.832031 C 144.019531 130.832031 137.5 137.351562 137.5 145.332031 C 137.5 153.316406 144.019531 159.832031 152 159.832031 C 159.980469 159.832031 166.332031 153.316406 166.332031 145.332031 C 166.332031 137.351562 159.980469 130.832031 152 130.832031 Z "/>
<path style="fill-opacity:.149" d="M 10.667969 0 C 4.757812 0 0 4.757812 0 10.667969 L 0 245.332031 C 0 251.242188 4.757812 256 10.667969 256 L 89.5 256 L 158 0 Z "/>
</g>
</svg>
