<svg width="256" xmlns="http://www.w3.org/2000/svg" height="256" viewBox="0 0 256 256" xmlns:xlink="http://www.w3.org/1999/xlink">
<defs>
<linearGradient gradientTransform="matrix(5.33333 0 0 -5.33333 -8749.63413 -1943.18475)" id="linear0" y1="-414.82" y2="-365.619" gradientUnits="userSpaceOnUse" x2="0">
<stop offset="0" style="stop-color:#204a86"/>
<stop offset="1" style="stop-color:#2871a4"/>
</linearGradient>
</defs>
<path style="fill:url(#linear0)" d="M 10.371094 256 L 245.625 256 C 251.355469 256 255.996094 251.355469 255.996094 245.625 L 255.996094 10.371094 C 255.996094 4.644531 251.355469 0 245.625 0 L 10.371094 0 C 4.640625 0 -0.00390625 4.644531 -0.00390625 10.371094 L -0.00390625 245.625 C -0.00390625 251.355469 4.640625 256 10.371094 256 Z "/>
<g style="fill:#fff">
<path d="M 210.832031 51.667969 C 210.832031 51.667969 191.609375 54.578125 180.667969 70 C 172.457031 81.566406 173.113281 97.339844 174 104.5 C 158.875 84.253906 132.996094 65 110.332031 65 C 102.691406 65 95.433594 66.550781 88.667969 69.332031 C 84.945312 68.050781 76.6875 65.632812 68.667969 67.5 C 57.972656 69.988281 52.71875 74.96875 47 85.167969 C 41.277344 95.363281 42.667969 108.359375 43.167969 113.832031 C 43.664062 119.304688 47.332031 123.5 47.332031 123.5 L 47.667969 121.332031 L 46.5 120.5 C 46.5 120.5 44.503906 111.394531 45 107.167969 C 45.496094 102.9375 47.1875 98.402344 51.667969 95.667969 C 54.832031 93.730469 57.410156 94.082031 59.332031 94.5 C 57.542969 97.300781 55.910156 100.253906 54.5 103.332031 C 53.84375 103.054688 53.253906 102.832031 52.5 102.832031 C 49.476562 102.832031 47 105.144531 47 108.167969 C 47 110.574219 48.507812 112.601562 50.667969 113.332031 C 48.730469 120.023438 47.667969 127.253906 47.667969 134.667969 C 47.667969 144.28125 49.496094 153.664062 52.667969 162 C 48.082031 164.277344 43.527344 169.730469 51.5 175.167969 C 50.925781 175.410156 50.472656 175.617188 50.167969 176 C 46.1875 180.976562 55.1875 184.847656 59.167969 187.832031 C 61.3125 189.441406 67.367188 192.007812 75.667969 192.832031 C 85.597656 200.1875 97.507812 204.332031 110.332031 204.332031 C 135.851562 204.332031 165.417969 183.078125 179.167969 159.667969 C 182.546875 162.269531 187.246094 165.625 193 168.5 C 203.945312 173.972656 213.332031 171 213.332031 171 C 213.332031 171 201.480469 157.609375 197.5 146.667969 C 193.519531 135.722656 197.847656 120.304688 200.332031 114.832031 C 202.820312 109.359375 204.996094 83.433594 204 70.5 C 203.003906 57.566406 210.832031 51.667969 210.832031 51.667969 Z M 125.5 70.832031 C 128.007812 70.972656 130.214844 71.671875 131.667969 72.332031 C 135.535156 74.09375 141.832031 83.832031 141.832031 83.832031 C 141.832031 83.832031 130.832031 69.464844 121.332031 73.332031 C 111.835938 77.203125 106.871094 85.1875 106.167969 91.167969 C 105.96875 92.84375 105.933594 94.710938 105.832031 96.332031 C 107.9375 95.195312 110.886719 94.082031 115.167969 93.832031 C 116.574219 93.75 118.152344 93.875 119.832031 94 C 132.160156 94.914062 137.863281 96.535156 142.167969 99.5 L 142.5 99.832031 C 142.757812 100.019531 143.082031 100.140625 143.332031 100.332031 C 143.769531 100.671875 144.09375 101.105469 144.5 101.5 C 144.617188 101.613281 144.71875 101.71875 144.832031 101.832031 L 145.667969 102.5 C 146.261719 102.976562 146.867188 103.679688 147.5 104.5 C 146.910156 99.765625 145.871094 92.417969 144.5 89.332031 L 142.667969 85 C 142.667969 85 146.882812 89.617188 149.5 100.332031 C 152.117188 111.046875 154.714844 111.167969 154 117.832031 L 153.832031 119 C 153.851562 119.117188 153.816406 119.21875 153.832031 119.332031 C 153.9375 120.078125 154 120.828125 154 121.5 C 154 127.691406 147.167969 138.832031 147.167969 138.832031 C 147.167969 138.832031 150.453125 132.40625 151.167969 123.832031 C 151.484375 120.03125 150.964844 117.40625 150.332031 115.5 C 149.65625 122.378906 147.183594 134.8125 136.832031 137.667969 C 122.917969 141.503906 112.570312 141.140625 105.167969 126.832031 C 105.261719 127.289062 105.386719 127.738281 105.5 128.167969 C 107.609375 136.257812 115.800781 143.6875 126 146.5 C 130.976562 147.875 135.386719 147.015625 138.667969 145.832031 C 134.84375 147.5625 129.726562 149.382812 125.5 149 C 117.761719 148.296875 105.945312 140.378906 100.5 131.832031 C 95.910156 124.628906 96.976562 117.984375 96.332031 106.5 C 96.742188 96 99.984375 84.925781 109.832031 76.832031 C 115.988281 71.777344 121.320312 70.601562 125.5 70.832031 Z M 131.667969 102.332031 C 127.683594 102.332031 124.5 105.683594 124.5 109.667969 C 124.5 113.652344 127.683594 116.832031 131.667969 116.832031 C 135.652344 116.832031 138.832031 113.652344 138.832031 109.667969 C 138.832031 105.683594 135.652344 102.332031 131.667969 102.332031 Z M 125.832031 153.667969 C 126.101562 153.761719 126.445312 153.980469 126.667969 154.332031 C 128.425781 157.148438 125.535156 162.761719 118.5 170.5 C 111.464844 178.238281 105.832031 182.667969 105.832031 182.667969 C 105.832031 182.667969 114.664062 173.722656 111.5 172.667969 C 108.335938 171.613281 103.769531 179.152344 85 180.332031 C 73.277344 181.070312 54.167969 177.332031 54.167969 177.332031 C 54.167969 177.332031 72.5 179.960938 85.667969 178 C 100.09375 175.847656 115.570312 167.480469 107.832031 167.832031 C 100.09375 168.183594 95.667969 168 95.667969 168 C 95.667969 168 106.242188 165.203125 114.332031 161.332031 C 120.402344 158.429688 123.1875 154.507812 125 153.832031 C 125.300781 153.71875 125.5625 153.574219 125.832031 153.667969 Z "/>
<path style="fill-opacity:.149" d="M 10.667969 0 C 4.757812 0 0 4.757812 0 10.667969 L 0 245.332031 C 0 251.242188 4.757812 256 10.667969 256 L 89.5 256 L 158 0 Z "/>
</g>
</svg>
