<svg width="256" xmlns="http://www.w3.org/2000/svg" height="256" viewBox="0 0 256 256" xmlns:xlink="http://www.w3.org/1999/xlink">
<defs>
<linearGradient gradientTransform="matrix(5.33333 0 0 -5.33333 0 5612.5984)" id="linear0" y1="1053.158" y2="1004.847" gradientUnits="userSpaceOnUse" x2="0">
<stop offset="0" style="stop-color:#378eb1"/>
<stop offset="1" style="stop-color:#17789c"/>
</linearGradient>
</defs>
<path style="fill:url(#linear0)" d="M 10.375 256 L 245.625 256 C 251.355469 256 256 251.355469 256 245.625 L 256 10.371094 C 256 4.644531 251.355469 0 245.625 0 L 10.375 0 C 4.644531 0 0 4.644531 0 10.371094 L 0 245.625 C 0 251.355469 4.644531 256 10.375 256 Z "/>
<g style="fill:#fff">
<path style="fill-rule:evenodd" d="M 121.488281 59.03125 L 121.488281 114.015625 L 91.453125 91.023438 L 81.277344 99.179688 L 118.640625 128 L 80.707031 156.820312 L 92.59375 165.824219 L 121.488281 142.4375 L 121.488281 196.96875 L 175.292969 156.820312 L 139.636719 128.453125 L 174.152344 100.480469 Z M 136.21875 85.644531 L 153.800781 100.933594 L 136.21875 114.464844 Z M 135.652344 142.890625 L 154.367188 156.367188 L 136.789062 168.542969 Z "/>
<path style="fill-opacity:.149" d="M 10.667969 0 C 4.757812 0 0 4.757812 0 10.667969 L 0 245.332031 C 0 251.242188 4.757812 256 10.667969 256 L 89.5 256 L 158 0 Z "/>
</g>
</svg>
