<svg width="256" xmlns="http://www.w3.org/2000/svg" height="256" viewBox="0 0 256 256" xmlns:xlink="http://www.w3.org/1999/xlink">
<defs>
<linearGradient gradientTransform="matrix(0 -5.33333 5.33333 0 -5356.5984 256)" id="linear0" x1="0" gradientUnits="userSpaceOnUse" x2="48">
<stop offset="0" style="stop-color:#dd5c12"/>
<stop offset="1" style="stop-color:#f3964c"/>
</linearGradient>
</defs>
<path style="fill:url(#linear0)" d="M 0 245.332031 L 0 10.664062 C 0 4.773438 4.777344 0 10.667969 0 L 245.332031 0 C 251.222656 0 256 4.773438 256 10.664062 L 256 245.332031 C 256 251.222656 251.222656 256 245.332031 256 L 10.667969 256 C 4.777344 256 0 251.222656 0 245.332031 Z "/>
<path style="fill:#fff;fill-opacity:.149" d="M 10.667969 0 C 4.757812 0 0 4.757812 0 10.667969 L 0 245.332031 C 0 251.242188 4.757812 256 10.667969 256 L 89.5 256 L 158 0 Z "/>
<g style="stroke:#fff">
<g style="fill:none">
<g style="stroke-width:2.986">
<path d="M 29.493835 -175.503297 L 31.842163 16.35919 L 99.554565 9.062438 L 162.561157 18.506102 L 223.68634 14.216856 L 226.506165 -172.926088 L 166.319397 -178.075929 L 98.611572 -168.206544 Z " transform="matrix(.85333 0 0 .85333 18.77333 196.26672)"/>
<path style="stroke-opacity:.941" d="M 98.611572 -168.206544 L 98.611572 9.492735 " transform="matrix(.85333 0 0 .85333 18.77333 196.26672)"/>
<path d="M 164.323547 -178.506227 L 164.323547 17.650084 " transform="matrix(.85333 0 0 .85333 18.77333 196.26672)"/>
</g>
<path style="stroke-width:4.113" d="M 204.409912 10.353331 L 164.442566 -23.127504 L 139.988831 -34.71808 L 125.885132 -64.33539 L 101.902893 -86.225648 L 101.435974 -99.102541 L 109.428528 -130.006166 " transform="matrix(.85333 0 0 .85333 18.77333 196.26672)"/>
<g style="stroke-width:3.656">
<path d="M 162.561157 -24.844118 L 200.175598 -43.301149 " transform="matrix(.85333 0 0 .85333 18.77333 196.26672)"/>
<path d="M 155.978516 -28.277345 L 186.538818 -54.031129 " transform="matrix(.85333 0 0 .85333 18.77333 196.26672)"/>
</g>
<path style="stroke-width:2.285" d="M 147.514465 -31.710573 L 121.183899 -13.253542 " transform="matrix(.85333 0 0 .85333 18.77333 196.26672)"/>
<path style="stroke-width:3.463" d="M 138.441589 -39.799257 L 109.57959 -26.688905 L 92.266968 -41.030641 L 46.087769 -38.160463 " transform="matrix(.85333 0 0 .85333 18.77333 196.26672)"/>
<path style="stroke-width:3.656" d="M 124.942139 -66.052003 L 146.571472 -91.805788 L 188.420227 -119.701906 L 202.995422 -121.848817 L 203.466919 -121.848817 " transform="matrix(.85333 0 0 .85333 18.77333 196.26672)"/>
<path style="stroke-width:3.199" d="M 136.226013 -80.215211 L 131.52478 -98.241945 L 152.215698 -109.402223 " transform="matrix(.85333 0 0 .85333 18.77333 196.26672)"/>
<g style="stroke-width:2.285">
<path d="M 143.280151 -104.252382 L 142.813232 -123.135133 L 155.978516 -122.279115 L 193.592957 -154.469057 " transform="matrix(.85333 0 0 .85333 18.77333 196.26672)"/>
<path d="M 101.435974 -97.381349 L 124.003723 -117.985292 " transform="matrix(.85333 0 0 .85333 18.77333 196.26672)"/>
</g>
<path style="stroke-width:3.199" d="M 100.964478 -93.522401 L 80.745056 -85.795351 L 57.234314 -104.252382 L 48.770264 -105.538698 " transform="matrix(.85333 0 0 .85333 18.77333 196.26672)"/>
<path style="stroke-width:2.285" d="M 102.37439 -102.961488 L 69.928101 -120.132204 L 50.180176 -119.276186 L 53.471497 -133.869691 " transform="matrix(.85333 0 0 .85333 18.77333 196.26672)"/>
</g>
<g style="fill:#fff">
<path d="M 17097.22015 140.577278 C 17097.22015 146.008123 17093.037868 150.411512 17087.879401 150.411512 C 17082.720935 150.411512 17078.538653 146.008123 17078.538653 140.577278 C 17078.538653 135.146432 17082.720935 130.743044 17087.879401 130.743044 C 17093.037868 130.743044 17097.22015 135.146432 17097.22015 140.577278 Z " transform="matrix(.40816 0 0 .37258 -6776.2985 38.08041)"/>
<path d="M 17064.782097 167.608796 C 17064.782097 172.22187 17061.700416 175.96475 17057.900951 175.96475 C 17054.101487 175.96475 17051.019806 172.22187 17051.019806 167.608796 C 17051.019806 162.995723 17054.101487 159.252842 17057.900951 159.252842 C 17061.700416 159.252842 17064.782097 162.995723 17064.782097 167.608796 Z " transform="matrix(.40816 0 0 .37258 -6768.27349 36.9816)"/>
<path d="M 17046.1025 147.45576 C 17046.121641 151.334936 17043.872587 154.920552 17040.21668 156.86014 C 17036.560772 158.799727 17032.053095 158.799727 17028.387617 156.86014 C 17024.731709 154.920552 17022.492226 151.334936 17022.511367 147.45576 C 17022.492226 143.587069 17024.731709 139.990968 17028.387617 138.051381 C 17032.053095 136.111793 17036.560772 136.111793 17040.21668 138.051381 C 17043.872587 139.990968 17046.121641 143.587069 17046.1025 147.45576 Z " transform="matrix(.40816 0 0 .37258 -6766.6688 30.3887)"/>
<path d="M 17067.732127 110.100349 C 17067.732127 114.986013 17064.650446 118.949063 17060.850981 118.949063 C 17057.051517 118.949063 17053.969836 114.986013 17053.969836 110.100349 C 17053.969836 105.214685 17057.051517 101.251635 17060.850981 101.251635 C 17064.650446 101.251635 17067.732127 105.214685 17067.732127 110.100349 Z " transform="matrix(.40816 0 0 .37258 -6779.50882 30.3887)"/>
<path d="M 17030.368593 110.105371 C 17030.378163 113.617598 17028.416223 116.878202 17025.219696 118.639557 C 17022.02317 120.400912 17018.080149 120.400912 17014.883622 118.639557 C 17011.687096 116.878202 17009.715585 113.617598 17009.725156 110.105371 C 17009.715585 106.58266 17011.687096 103.33254 17014.883622 101.571185 C 17018.080149 99.80983 17022.02317 99.80983 17025.219696 101.571185 C 17028.416223 103.33254 17030.378163 106.58266 17030.368593 110.105371 Z " transform="matrix(.40816 0 0 .37258 -6773.89141 24.89465)"/>
<g style="fill-opacity:.941">
<path d="M 17026.436458 256.57585 C 17026.436458 259.291273 17024.015137 261.492967 17021.02916 261.492967 C 17018.043183 261.492967 17015.621862 259.291273 17015.621862 256.57585 C 17015.621862 253.860428 17018.043183 251.658733 17021.02916 251.658733 C 17024.015137 251.658733 17026.436458 253.860428 17026.436458 256.57585 Z " transform="matrix(.40816 0 0 .37258 -6769.47789 60.0567)"/>
<path d="M 17037.251054 282.627834 C 17037.260625 285.972312 17035.298685 289.065168 17032.102158 290.732165 C 17028.905632 292.409646 17024.962611 292.409646 17021.766084 290.732165 C 17018.569557 289.065168 17016.598047 285.972312 17016.607617 282.627834 C 17016.598047 279.283355 17018.569557 276.190499 17021.766084 274.523502 C 17024.962611 272.846021 17028.905632 272.846021 17032.102158 274.523502 C 17035.298685 276.190499 17037.260625 279.283355 17037.251054 282.627834 Z " transform="matrix(.40816 0 0 .37258 -6769.47789 39.5455)"/>
<path d="M 17051.017284 307.203065 C 17051.017284 310.893524 17049.151049 314.311392 17046.107649 316.156621 C 17043.06425 318.001851 17039.312637 318.001851 17036.269238 316.156621 C 17033.225838 314.311392 17031.350032 310.893524 17031.359603 307.203065 C 17031.350032 303.512606 17033.225838 300.094738 17036.269238 298.249509 C 17039.312637 296.404279 17043.06425 296.404279 17046.107649 298.249509 C 17049.151049 300.094738 17051.017284 303.512606 17051.017284 307.203065 Z " transform="matrix(.40816 0 0 .37258 -6784.72559 33.31889)"/>
<path d="M 17088.375024 335.713389 C 17088.394165 338.701402 17086.145112 341.47973 17082.489204 342.978979 C 17078.833296 344.478228 17074.325619 344.478228 17070.660141 342.978979 C 17067.004233 341.47973 17064.764751 338.701402 17064.783892 335.713389 C 17064.764751 332.714891 17067.004233 329.947047 17070.660141 328.447798 C 17074.325619 326.948549 17078.833296 326.948549 17082.489204 328.447798 C 17086.145112 329.947047 17088.394165 332.714891 17088.375024 335.713389 Z " transform="matrix(.40816 0 0 .37258 -6773.89141 36.9816)"/>
</g>
<path d="M 17035.292392 360.775898 C 17035.292392 362.956623 17032.871071 364.707494 17029.885094 364.707494 C 17026.899117 364.707494 17024.477796 362.956623 17024.477796 360.775898 C 17024.477796 358.605656 17026.899117 356.844301 17029.885094 356.844301 C 17032.871071 356.844301 17035.292392 358.605656 17035.292392 360.775898 Z " transform="matrix(.40816 0 0 .37258 -6799.97141 -27.84844)"/>
<path style="fill-opacity:.941" d="M 17051.012737 354.884883 C 17051.012737 358.680185 17047.270695 361.762557 17042.657743 361.762557 C 17038.044792 361.762557 17034.30275 358.680185 17034.30275 354.884883 C 17034.30275 351.079098 17038.044792 347.996726 17042.657743 347.996726 C 17047.270695 347.996726 17051.012737 351.079098 17051.012737 354.884883 Z " transform="matrix(.40816 0 0 .37258 -6767.87217 34.78395)"/>
<path d="M 16905.527751 414.355413 C 16905.527751 419.513668 16901.345469 423.696887 16896.187003 423.696887 C 16891.028536 423.696887 16886.846254 419.513668 16886.846254 414.355413 C 16886.846254 409.197159 16891.028536 405.01394 16896.187003 405.01394 C 16901.345469 405.01394 16905.527751 409.197159 16905.527751 414.355413 Z " transform="matrix(.40816 0 0 .37258 -6778.30383 25.99347)"/>
<path d="M 16959.593878 339.151679 C 16959.613019 342.684874 16958.588982 345.966447 16956.904585 347.748771 C 16955.220188 349.531095 16953.143402 349.531095 16951.468576 347.748771 C 16949.784178 345.966447 16948.760141 342.684874 16948.779282 339.151679 C 16948.760141 335.618484 16949.784178 332.336912 16951.468576 330.554588 C 16953.143402 328.772264 16955.220188 328.772264 16956.904585 330.554588 C 16958.588982 332.336912 16959.613019 335.618484 16959.593878 339.151679 Z " transform="matrix(.40816 0 0 .37258 -6792.75025 61.88805)"/>
<path d="M 16923.217705 338.657999 C 16923.217705 342.736375 16919.035423 346.038917 16913.876957 346.038917 C 16908.71849 346.038917 16904.545778 342.736375 16904.545778 338.657999 C 16904.545778 334.590107 16908.71849 331.287566 16913.876957 331.287566 C 16919.035423 331.287566 16923.217705 334.590107 16923.217705 338.657999 Z " transform="matrix(.40816 0 0 .37258 -6721.32881 -66.30692)"/>
<path d="M 16962.538045 287.543704 C 16962.576326 290.898667 16960.987634 294.022975 16958.384474 295.710941 C 16955.790885 297.398907 16952.584788 297.398907 16949.981629 295.710941 C 16947.38804 294.022975 16945.799347 290.898667 16945.828058 287.543704 C 16945.799347 284.178257 16947.38804 281.064433 16949.981629 279.376467 C 16952.584788 277.688502 16955.790885 277.688502 16958.384474 279.376467 C 16960.987634 281.064433 16962.576326 284.178257 16962.538045 287.543704 Z " transform="matrix(.40816 0 0 .37258 -6791.54569 -16.86029)"/>
<path d="M 16931.083821 260.014729 C 16931.083821 265.172984 16927.782019 269.356203 16923.714583 269.356203 C 16919.637575 269.356203 16916.335774 265.172984 16916.335774 260.014729 C 16916.335774 254.856474 16919.637575 250.673255 16923.714583 250.673255 C 16927.782019 250.673255 16931.083821 254.856474 16931.083821 260.014729 Z " transform="matrix(.40816 0 0 .37258 -6759.84802 .72074)"/>
<path d="M 16927.153447 211.359364 C 16927.153447 215.699847 16923.191285 219.222558 16918.300791 219.222558 C 16913.419867 219.222558 16909.457705 215.699847 16909.457705 211.359364 C 16909.457705 207.008397 16913.419867 203.496171 16918.300791 203.496171 C 16923.191285 203.496171 16927.153447 207.008397 16927.153447 211.359364 Z " transform="matrix(.40816 0 0 .37258 -6776.2985 19.76685)"/>
<path d="M 16904.540836 131.727987 C 16904.559977 135.24891 16902.129035 138.516467 16898.16679 140.281296 C 16894.204546 142.046126 16889.32352 142.046126 16885.361275 140.281296 C 16881.39903 138.516467 16878.968088 135.24891 16878.987229 131.727987 C 16878.968088 128.207064 16881.39903 124.939508 16885.361275 123.174678 C 16889.32352 121.409848 16894.204546 121.409848 16898.16679 123.174678 C 16902.129035 124.939508 16904.559977 128.207064 16904.540836 131.727987 Z " transform="matrix(.20408 0 0 .4471 -3337.69088 20.57264)"/>
<path d="M 16769.865886 129.274136 C 16769.865886 134.013021 16767.999651 138.405925 16764.956251 140.775367 C 16761.912852 143.155293 16758.161239 143.155293 16755.11784 140.775367 C 16752.07444 138.405925 16750.198634 134.013021 16750.198634 129.274136 C 16750.198634 124.524767 16752.07444 120.142347 16755.11784 117.762421 C 16758.161239 115.392978 16761.912852 115.392978 16764.956251 117.762421 C 16767.999651 120.142347 16769.865886 124.524767 16769.865886 129.274136 Z " transform="matrix(.40816 0 0 .37258 -6783.11987 34.78395)"/>
<path d="M 16819.997549 191.203024 C 16819.997549 197.984951 16813.393862 203.489123 16805.255203 203.489123 C 16797.105501 203.489123 16790.512856 197.984951 16790.512856 191.203024 C 16790.512856 184.421097 16797.105501 178.916925 16805.255203 178.916925 C 16813.393862 178.916925 16819.997549 184.421097 16819.997549 191.203024 Z " transform="matrix(.35373 0 0 .23846 -5879.7993 55.85191)"/>
<path d="M 16774.778276 220.690748 C 16774.797417 224.391691 16772.46223 227.820043 16768.653195 229.675757 C 16764.84416 231.531471 16760.145075 231.531471 16756.326469 229.675757 C 16752.517435 227.820043 16750.182247 224.391691 16750.201388 220.690748 C 16750.182247 217.000289 16752.517435 213.571937 16756.326469 211.716223 C 16760.145075 209.860509 16764.84416 209.860509 16768.653195 211.716223 C 16772.46223 213.571937 16774.797417 217.000289 16774.778276 220.690748 Z " transform="matrix(.40816 0 0 .37258 -6779.91006 30.75498)"/>
<path d="M 16826.884402 308.67678 C 16826.884402 312.482566 16822.92224 315.554453 16818.031746 315.554453 C 16813.150822 315.554453 16809.18866 312.482566 16809.18866 308.67678 C 16809.18866 304.881479 16813.150822 301.799107 16818.031746 301.799107 C 16822.92224 301.799107 16826.884402 304.881479 16826.884402 308.67678 Z " transform="matrix(.40816 0 0 .37258 -6801.57602 -39.20285)"/>
<path d="M 16837.692573 331.284684 C 16837.692573 336.71553 16834.831012 341.118918 16831.30909 341.118918 C 16827.777598 341.118918 16824.916037 336.71553 16824.916037 331.284684 C 16824.916037 325.853838 16827.777598 321.460934 16831.30909 321.460934 C 16834.831012 321.460934 16837.692573 325.853838 16837.692573 331.284684 Z " transform="matrix(.40816 0 0 .37258 -6814.0148 -18.32537)"/>
<path d="M 16817.054682 382.895475 C 16817.054682 386.42867 16814.193121 389.290872 16810.661629 389.290872 C 16807.130137 389.290872 16804.268575 386.42867 16804.268575 382.895475 C 16804.268575 379.372764 16807.130137 376.510562 16810.661629 376.510562 C 16814.193121 376.510562 16817.054682 379.372764 16817.054682 382.895475 Z " transform="matrix(.40816 0 0 .37258 -6708.08738 -40.66793)"/>
<path d="M 16835.72563 393.713876 C 16835.72563 398.32695 16831.763468 402.06983 16826.882544 402.06983 C 16821.99205 402.06983 16818.029888 398.32695 16818.029888 393.713876 C 16818.029888 389.100803 16821.99205 385.357923 16826.882544 385.357923 C 16831.763468 385.357923 16835.72563 389.100803 16835.72563 393.713876 Z " transform="matrix(.40816 0 0 .37258 -6814.81745 21.5982)"/>
<path d="M 16793.465761 385.353915 C 16793.485358 389.584313 16789.448399 393.484457 16782.903039 395.607519 C 16776.357679 397.714855 16768.283762 397.714855 16761.738402 395.607519 C 16755.193042 393.484457 16751.156083 389.584313 16751.195277 385.353915 C 16751.156083 381.139243 16755.193042 377.223373 16761.738402 375.116037 C 16768.283762 372.992974 16776.357679 372.992974 16782.903039 375.116037 C 16789.448399 377.223373 16793.485358 381.139243 16793.465761 385.353915 Z " transform="matrix(.19933 0 0 .24839 -3279.45549 73.85292)"/>
<path d="M 16796.402684 348.987901 C 16796.412254 351.797682 16794.536448 354.397778 16791.493049 355.802669 C 16788.449649 357.207559 16784.698037 357.207559 16781.654637 355.802669 C 16778.611238 354.397778 16776.745002 351.797682 16776.745002 348.987901 C 16776.745002 346.167636 16778.611238 343.56754 16781.654637 342.162649 C 16784.698037 340.757758 16788.449649 340.757758 16791.493049 342.162649 C 16794.536448 343.56754 16796.412254 346.167636 16796.402684 348.987901 Z " transform="matrix(.40816 0 0 .37258 -6793.15029 27.82481)"/>
<path d="M 16805.257204 333.744641 C 16805.257204 337.823017 16802.395643 341.115074 16798.864151 341.115074 C 16795.332659 341.115074 16792.471098 337.823017 16792.471098 333.744641 C 16792.471098 329.676749 16795.332659 326.374207 16798.864151 326.374207 C 16802.395643 326.374207 16805.257204 329.676749 16805.257204 333.744641 Z " transform="matrix(.40816 0 0 .37258 -6739.38543 -39.20285)"/>
<path d="M 16774.780785 341.120509 C 16774.789159 343.933467 16772.821238 346.539969 16769.622319 347.946448 C 16766.431773 349.352926 16762.487556 349.352926 16759.288637 347.946448 C 16756.089718 346.539969 16754.121796 343.933467 16754.138544 341.120509 C 16754.121796 338.307552 16756.089718 335.70105 16759.288637 334.294571 C 16762.487556 332.888092 16766.431773 332.888092 16769.622319 334.294571 C 16772.821238 335.70105 16774.789159 338.307552 16774.780785 341.120509 Z " transform="matrix(.46647 0 0 .30273 -7701.83979 -24.71222)"/>
<path d="M 16895.694019 284.101088 C 16895.694019 288.441571 16892.612338 291.964281 16888.812874 291.964281 C 16885.013409 291.964281 16881.931728 288.441571 16881.931728 284.101088 C 16881.931728 279.760605 16885.013409 276.237894 16888.812874 276.237894 C 16892.612338 276.237894 16895.694019 279.760605 16895.694019 284.101088 Z " transform="matrix(.40816 0 0 .37258 -6772.28621 -14.29638)"/>
<path style="fill-opacity:.941" d="M 17088.375348 290.004339 C 17088.384918 295.27792 17086.24114 300.174069 17082.728789 302.816102 C 17079.226008 305.468619 17074.90974 305.468619 17071.406959 302.816102 C 17067.894608 300.174069 17065.75083 295.27792 17065.7604 290.004339 C 17065.75083 284.720273 17067.894608 279.824124 17071.406959 277.182091 C 17074.90974 274.540058 17079.226008 274.540058 17082.728789 277.182091 C 17086.24114 279.824124 17088.384918 284.720273 17088.375348 290.004339 Z " transform="matrix(.40816 0 0 .37258 -6779.10639 43.57449)"/>
<path d="M 16837.694709 146.962452 C 16837.71385 149.604485 16835.464796 152.057802 16831.808889 153.378818 C 16828.152981 154.699835 16823.645304 154.699835 16819.989396 153.378818 C 16816.323918 152.057802 16814.084436 149.604485 16814.103576 146.962452 C 16814.084436 144.320419 16816.323918 141.877587 16819.989396 140.556571 C 16823.645304 139.235554 16828.152981 139.235554 16831.808889 140.556571 C 16835.464796 141.877587 16837.71385 144.320419 16837.694709 146.962452 Z " transform="matrix(.40816 0 0 .37258 -6796.76177 25.62719)"/>
<path d="M 16945.8326 414.353926 C 16945.8326 417.887121 16942.310678 420.749323 16937.965699 420.749323 C 16933.62072 420.749323 16930.098798 417.887121 16930.098798 414.353926 C 16930.098798 410.831215 16933.62072 407.969013 16937.965699 407.969013 C 16942.310678 407.969013 16945.8326 410.831215 16945.8326 414.353926 Z " transform="matrix(.40816 0 0 .37258 -6793.55145 35.15027)"/>
</g>
</g>
</svg>
