<svg width="256" xmlns="http://www.w3.org/2000/svg" height="256" viewBox="0 0 256 256" xmlns:xlink="http://www.w3.org/1999/xlink">
<defs>
<linearGradient gradientTransform="matrix(5.33333 0 0 -5.33333 0 5612.5984)" id="linear0" y1="1053.158" y2="1004.847" gradientUnits="userSpaceOnUse" x2="0">
<stop offset="0" style="stop-color:#536b7e"/>
<stop offset="1" style="stop-color:#4b5f6c"/>
</linearGradient>
</defs>
<path style="fill:url(#linear0)" d="M 10.375 256 L 245.625 256 C 251.355469 256 256 251.355469 256 245.625 L 256 10.371094 C 256 4.644531 251.355469 0 245.625 0 L 10.375 0 C 4.644531 0 0 4.644531 0 10.371094 L 0 245.625 C 0 251.355469 4.644531 256 10.375 256 Z "/>
<path style="fill:none;stroke:#fff;stroke-width:1.6" d="M 28.375076 19.875324 C 28.375076 24.983871 24.233962 29.124984 19.125415 29.124984 C 14.01635 29.125502 9.874719 24.983871 9.875237 19.874806 C 9.875237 14.766259 14.01635 10.625146 19.124897 10.625146 C 24.233444 10.625146 28.375076 14.766777 28.375076 19.875324 Z " transform="matrix(3.77125 -3.77125 3.77125 3.77125 -43.48401 100.76565)"/>
<g style="fill:#fff">
<path d="M 164.710938 177.59375 L 177.589844 164.714844 L 206.039062 193.164062 L 193.160156 206.042969 Z "/>
<path d="M 137.40625 146.441406 L 146.441406 137.40625 L 174.894531 165.855469 L 165.859375 174.894531 Z "/>
<path style="fill-opacity:.149" d="M 10.667969 0 C 4.757812 0 0 4.757812 0 10.667969 L 0 245.332031 C 0 251.242188 4.757812 256 10.667969 256 L 89.5 256 L 158 0 Z "/>
</g>
</svg>
