<svg width="256" xmlns="http://www.w3.org/2000/svg" height="256" viewBox="0 0 256 256" xmlns:xlink="http://www.w3.org/1999/xlink">
<defs>
<linearGradient gradientTransform="matrix(5.33333 0 0 5.33333 0 -5356.5984)" id="linear0" y1="1053.158" y2="1004.847" gradientUnits="userSpaceOnUse" x2="0">
<stop offset="0" style="stop-color:#e06a30"/>
<stop offset="1" style="stop-color:#ff9058"/>
</linearGradient>
</defs>
<path style="fill:url(#linear0)" d="M 10.375 0 L 245.625 0 C 251.355469 0 256 4.644531 256 10.371094 L 256 245.625 C 256 251.355469 251.355469 256 245.625 256 L 10.375 256 C 4.644531 256 0 251.355469 0 245.625 L 0 10.371094 C 0 4.644531 4.644531 0 10.375 0 Z "/>
<g style="fill:#fff">
<path d="M 128 42.667969 C 84.15625 42.667969 48.511719 78.3125 48.511719 122.15625 L 48.511719 178.265625 L 48.585938 178.265625 C 49.796875 196.441406 65.042969 209.753906 83.582031 210.996094 C 84.871094 211.082031 84.621094 213.332031 85.917969 213.332031 L 92.933594 213.332031 C 94.226562 213.332031 95.269531 212.289062 95.269531 210.996094 L 95.269531 140.859375 C 95.269531 139.5625 94.226562 138.519531 92.933594 138.519531 L 85.917969 138.519531 C 84.621094 138.519531 84.871094 140.773438 83.582031 140.859375 C 75.675781 141.386719 68.414062 144.167969 62.539062 148.53125 L 62.539062 124.492188 L 66.046875 124.492188 C 67.214844 124.492188 67.214844 123.324219 67.214844 123.324219 L 67.214844 122.15625 C 67.21875 110.042969 70.777344 98.675781 76.859375 89.207031 L 76.933594 89.132812 L 77.441406 88.253906 C 77.992188 87.070312 79.125 87.890625 79.125 87.890625 L 80.144531 88.546875 L 88.109375 93.953125 C 88.109375 93.953125 89.816406 94.765625 90.738281 93.515625 C 105.847656 73.867188 134.035156 69.425781 154.738281 83.652344 C 158.929688 86.53125 162.550781 90.070312 165.550781 94.101562 C 166.578125 95.738281 168.253906 94.613281 168.253906 94.613281 L 176.292969 89.277344 L 177.316406 88.621094 C 178.480469 87.585938 178.921875 88.914062 178.921875 88.914062 L 179.578125 89.9375 L 179.652344 89.9375 L 179.652344 90.007812 C 185.464844 99.320312 188.773438 110.273438 188.785156 122.082031 C 188.785156 122.105469 188.785156 122.132812 188.785156 122.15625 C 188.785156 122.425781 188.785156 123.324219 188.785156 123.324219 C 188.785156 123.324219 188.785156 124.492188 189.953125 124.492188 L 193.460938 124.492188 L 193.460938 148.53125 C 187.585938 144.167969 180.324219 141.386719 172.417969 140.859375 C 171.128906 140.773438 171.378906 138.519531 170.082031 138.519531 L 163.066406 138.519531 C 161.773438 138.519531 160.730469 139.5625 160.730469 140.859375 L 160.730469 210.996094 C 160.730469 212.289062 161.773438 213.332031 163.066406 213.332031 L 170.082031 213.332031 C 171.378906 213.332031 171.128906 211.082031 172.417969 210.996094 C 190.957031 209.753906 206.203125 196.441406 207.414062 178.265625 L 207.488281 178.265625 L 207.488281 122.15625 C 207.488281 78.3125 171.84375 42.667969 128 42.667969 Z "/>
<path style="fill-opacity:.149" d="M 0 0 L 0 256 L 89.5 256 L 158 0 Z "/>
</g>
</svg>
