<svg width="256" xmlns="http://www.w3.org/2000/svg" height="256" viewBox="0 0 256 256" xmlns:xlink="http://www.w3.org/1999/xlink">
<defs>
<linearGradient gradientTransform="matrix(5.33333 0 0 5.33333 0 -5356.5984)" id="linear0" y1="1053.158" y2="1004.847" gradientUnits="userSpaceOnUse" x2="0">
<stop offset="0" style="stop-color:#9e1e4c"/>
<stop offset="1" style="stop-color:#d23759"/>
</linearGradient>
</defs>
<path style="fill:url(#linear0)" d="M 10.375 0 L 245.625 0 C 251.355469 0 256 4.644531 256 10.375 L 256 245.625 C 256 251.355469 251.355469 256 245.625 256 L 10.375 256 C 4.644531 256 0 251.355469 0 245.625 L 0 10.375 C 0 4.644531 4.644531 0 10.375 0 Z "/>
<g style="fill:#fff">
<path d="M 81.316406 132.039062 L 52.503906 159.964844 C 63.789062 185.644531 72.789062 193.101562 81.761719 200.300781 Z "/>
<path d="M 96.390625 167.054688 L 198.785156 167.5 C 181.234375 198.847656 157.835938 224.042969 95.945312 208.722656 Z "/>
<path d="M 203.21875 155.972656 L 178.835938 156.859375 L 178.394531 61.558594 C 200.011719 83.976562 214.445312 111.265625 203.21875 155.972656 Z "/>
<path d="M 167.3125 105 L 166.425781 53.578125 C 139.9375 37.992188 121.4375 42.515625 103.039062 46.488281 Z "/>
<path d="M 89.742188 52.25 L 120.324219 81.0625 L 49.402344 146.222656 C 48.3125 114.898438 44.914062 83.574219 89.742188 52.25 Z "/>
<path style="fill-opacity:.149" d="M 0 0 L 0 256 L 89.5 256 L 158 0 Z "/>
</g>
</svg>
