<svg width="256" xmlns="http://www.w3.org/2000/svg" height="256" viewBox="0 0 256 256" xmlns:xlink="http://www.w3.org/1999/xlink">
<defs>
<linearGradient gradientTransform="matrix(5.33333 0 0 5.33333 0 -5356.59813)" id="linear0" y1="1053.158" y2="1004.847" gradientUnits="userSpaceOnUse" x2="0">
<stop offset="0" style="stop-color:#296c20"/>
<stop offset="1" style="stop-color:#76c35a"/>
</linearGradient>
</defs>
<path style="fill:url(#linear0)" d="M 10.375 0 L 245.625 0 C 251.355469 0 256 4.644531 256 10.371094 L 256 245.625 C 256 251.355469 251.355469 256 245.625 256 L 10.375 256 C 4.644531 256 0 251.355469 0 245.625 L 0 10.371094 C 0 4.644531 4.644531 0 10.375 0 Z "/>
<path style="fill:none;stroke:#fff;stroke-width:8" d="M 31.997803 31.997803 L 224.002197 31.997803 L 224.002197 224.002197 L 31.997803 224.002197 Z " transform="matrix(.85333 0 0 .85333 18.77333 18.77333)"/>
<g style="fill:#fff">
<path d="M 90.566406 46.65625 L 99.101562 46.65625 L 99.101562 207.785156 L 90.566406 207.785156 Z "/>
<path d="M 208.320312 97.277344 L 208.320312 105.808594 L 47.191406 105.808594 L 47.191406 97.277344 Z "/>
<path d="M 208.320312 152.113281 L 208.320312 160.648438 L 47.191406 160.648438 L 47.191406 152.113281 Z "/>
<path style="fill-opacity:.149" d="M 10.667969 0 C 4.757812 0 0 4.757812 0 10.667969 L 0 245.332031 C 0 251.242188 4.757812 256 10.667969 256 L 89.5 256 L 158 0 Z "/>
</g>
</svg>
