<svg width="256" xmlns="http://www.w3.org/2000/svg" height="256" viewBox="0 0 256 256" xmlns:xlink="http://www.w3.org/1999/xlink">
<defs>
<linearGradient gradientTransform="matrix(5.33333 0 0 5.33333 0 -5356.5984)" id="linear0" y1="1053.158" y2="1004.847" gradientUnits="userSpaceOnUse" x2="0">
<stop offset="0" style="stop-color:#3f3f3f"/>
<stop offset="1" style="stop-color:#535353"/>
</linearGradient>
</defs>
<path style="fill:url(#linear0)" d="M 10.375 0 L 245.625 0 C 251.355469 0 256 4.644531 256 10.371094 L 256 245.625 C 256 251.355469 251.355469 256 245.625 256 L 10.375 256 C 4.644531 256 0 251.355469 0 245.625 L 0 10.371094 C 0 4.644531 4.644531 0 10.375 0 Z "/>
<path style="fill:#fff" d="M 58.597656 115.425781 L 98.59375 115.425781 C 107.421875 115.425781 114.527344 122.53125 114.527344 131.355469 L 114.527344 171.351562 C 114.527344 180.179688 107.421875 187.285156 98.59375 187.285156 L 58.597656 187.285156 C 49.773438 187.285156 42.667969 180.179688 42.667969 171.351562 L 42.667969 131.355469 C 42.667969 122.53125 49.773438 115.425781 58.597656 115.425781 Z "/>
<path style="stroke-opacity:.502;fill:none;stroke:#fff;stroke-linejoin:round;stroke-width:5.341;stroke-miterlimit:20" d="M 46.72406 -92.06665 L 93.539551 -92.06665 C 102.438477 -92.06665 109.538391 -84.957581 109.538391 -76.063232 L 109.538391 -29.19281 C 109.538391 -20.293884 102.438477 -13.198547 93.539551 -13.198547 L 46.669128 -13.198547 C 37.770203 -13.198547 30.670288 -20.293884 30.670288 -29.19281 L 30.670288 -76.081543 C 30.670288 -84.975891 37.825134 -92.06665 46.72406 -92.06665 Z " transform="matrix(.85333 0 0 .85333 18.77333 196.26667)"/>
<path style="fill:#fff" d="M 105.304688 68.714844 L 145.304688 68.714844 C 154.128906 68.714844 161.234375 75.820312 161.234375 84.648438 L 161.234375 124.644531 C 161.234375 133.46875 154.128906 140.574219 145.304688 140.574219 L 105.304688 140.574219 C 96.480469 140.574219 89.375 133.46875 89.375 124.644531 L 89.375 84.648438 C 89.375 75.820312 96.480469 68.714844 105.304688 68.714844 Z "/>
<path style="stroke-opacity:.502;fill:none;stroke:#fff;stroke-linejoin:round;stroke-width:5.341;stroke-miterlimit:20" d="M 101.458862 -146.801453 L 148.278931 -146.801453 C 157.173279 -146.801453 164.277771 -139.69696 164.277771 -130.802612 L 164.277771 -83.927612 C 164.277771 -75.028687 157.173279 -67.93335 148.278931 -67.93335 L 101.408508 -67.93335 C 92.509583 -67.93335 85.409668 -75.033264 85.409668 -83.927612 L 85.409668 -130.816345 C 85.409668 -139.715271 92.559937 -146.801453 101.458862 -146.801453 Z " transform="matrix(.85333 0 0 .85333 18.77333 196.26667)"/>
<path style="fill:#fff" d="M 157.40625 102.847656 L 197.402344 102.847656 C 206.226562 102.847656 213.332031 109.953125 213.332031 118.78125 L 213.332031 158.777344 C 213.332031 167.605469 206.226562 174.707031 197.402344 174.707031 L 157.40625 174.707031 C 148.578125 174.707031 141.472656 167.605469 141.472656 158.777344 L 141.472656 118.78125 C 141.472656 109.953125 148.578125 102.847656 157.40625 102.847656 Z "/>
<path style="stroke-opacity:.502;fill:none;stroke:#fff;stroke-linejoin:round;stroke-width:5.341;stroke-miterlimit:20" d="M 162.510803 -106.802063 L 209.330872 -106.802063 C 218.22522 -106.802063 225.329712 -99.697571 225.329712 -90.798645 L 225.329712 -43.928223 C 225.329712 -35.029297 218.229797 -27.93396 209.330872 -27.93396 L 162.460449 -27.93396 C 153.561523 -27.93396 146.461609 -35.033875 146.461609 -43.928223 L 146.461609 -90.816956 C 146.461609 -99.715881 153.611877 -106.802063 162.510803 -106.802063 Z " transform="matrix(.85333 0 0 .85333 18.77333 196.26667)"/>
<path style="fill:#fff;fill-opacity:.149" d="M 10.667969 0 C 4.757812 0 0 4.757812 0 10.667969 L 0 245.332031 C 0 251.242188 4.757812 256 10.667969 256 L 89.5 256 L 158 0 Z "/>
</svg>
