<svg width="256" xmlns="http://www.w3.org/2000/svg" height="256" viewBox="0 0 256 256" xmlns:xlink="http://www.w3.org/1999/xlink">
<defs>
<linearGradient gradientTransform="matrix(5.33333 0 0 -5.33333 0 5612.59819)" id="linear0" y1="1053.158" y2="1004.847" gradientUnits="userSpaceOnUse" x2="0">
<stop offset="0" style="stop-color:#ff1919"/>
<stop offset="1" style="stop-color:#380000"/>
</linearGradient>
</defs>
<path style="fill:url(#linear0)" d="M 10.371094 256 L 245.625 256 C 251.355469 256 255.996094 251.355469 255.996094 245.625 L 255.996094 10.371094 C 255.996094 4.644531 251.355469 0 245.625 0 L 10.371094 0 C 4.640625 0 -0.00390625 4.644531 -0.00390625 10.371094 L -0.00390625 245.625 C -0.00390625 251.355469 4.640625 256 10.371094 256 Z "/>
<g style="fill:#fff">
<path d="M 115 143.5 L 86 182.167969 C 97.597656 191.15625 112.191406 196.5 128 196.5 C 143.382812 196.5 157.5625 191.386719 169 182.832031 L 140 143.5 C 134.1875 150.300781 121.589844 149.59375 115 143.5 Z "/>
<path d="M 141.824219 126.953125 C 141.824219 134.683594 135.558594 140.949219 127.828125 140.949219 C 120.097656 140.949219 113.832031 134.683594 113.832031 126.953125 C 113.832031 119.222656 120.097656 112.957031 127.828125 112.957031 C 135.558594 112.957031 141.824219 119.222656 141.824219 126.953125 Z "/>
<path d="M 148 62.5 L 135.167969 106.832031 C 143.164062 108.226562 149.984375 119.578125 148.5 127.832031 L 196.5 128 C 196.5 97.121094 176.070312 71.082031 148 62.5 Z "/>
<path d="M 108.167969 62.332031 C 80.253906 70.777344 59.867188 96.585938 59.5 127.167969 L 106.332031 127.332031 C 104.800781 118.914062 112.84375 109.277344 121 106.832031 Z "/>
</g>
<path style="fill:none;stroke:#fff;stroke-width:1.916" d="M 39.067594 24.400238 C 39.067594 32.259944 32.696756 38.630782 24.83705 38.630782 C 16.978046 38.630782 10.606506 32.259944 10.606506 24.400238 C 10.606506 16.541233 16.978046 10.169693 24.83705 10.169693 C 32.696756 10.169693 39.067594 16.541233 39.067594 24.400238 Z " transform="matrix(5.56736 0 0 5.56736 -10.2768 -7.84491)"/>
<path style="fill:#fff;fill-opacity:.149" d="M 10.667969 0 C 4.757812 0 0 4.757812 0 10.667969 L 0 245.332031 C 0 251.242188 4.757812 256 10.667969 256 L 89.5 256 L 158 0 Z "/>
</svg>
