<svg width="256" xmlns="http://www.w3.org/2000/svg" height="256" viewBox="0 0 256 256" xmlns:xlink="http://www.w3.org/1999/xlink">
<defs>
<linearGradient gradientTransform="matrix(5.33333 0 0 -5.33333 0 -5356.5984)" id="linear0" y1="-1053.122" y2="-1004.487" gradientUnits="userSpaceOnUse" x2="0">
<stop offset="0" style="stop-color:#61625f"/>
<stop offset="1" style="stop-color:#8e908b"/>
</linearGradient>
</defs>
<path style="fill:url(#linear0)" d="M 10.375 256 L 245.625 256 C 251.355469 256 256 251.355469 256 245.625 L 256 10.371094 C 256 4.644531 251.355469 0 245.625 0 L 10.375 0 C 4.644531 0 0 4.644531 0 10.371094 L 0 245.625 C 0 251.355469 4.644531 256 10.375 256 Z "/>
<g style="fill:#fff">
<path d="M 86.953125 44.335938 L 86.953125 59.699219 L 76.742188 59.699219 L 76.742188 75.144531 L 86.953125 75.144531 L 86.953125 167.167969 L 76.742188 167.167969 L 76.742188 182.613281 L 86.953125 182.613281 L 86.953125 192.855469 L 79.296875 192.855469 L 89.503906 213.339844 L 99.714844 192.855469 L 92.058594 192.855469 L 92.058594 182.613281 L 138 182.613281 C 171.9375 182.613281 199.257812 155.203125 199.257812 121.15625 C 199.257812 87.109375 171.9375 59.699219 138 59.699219 L 92.058594 59.699219 L 92.058594 44.335938 Z M 92.058594 75.144531 L 138 75.144531 C 163.675781 75.144531 183.863281 95.394531 183.863281 121.15625 C 183.863281 146.917969 163.675781 167.167969 138 167.167969 L 92.058594 167.167969 Z "/>
<path d="M 84.402344 42.675781 L 94.609375 42.675781 L 94.609375 52.914062 L 84.402344 52.914062 Z "/>
<path style="fill-opacity:.149" d="M 10.667969 0 C 4.757812 0 0 4.757812 0 10.667969 L 0 245.332031 C 0 251.242188 4.757812 256 10.667969 256 L 89.5 256 L 158 0 Z "/>
</g>
</svg>
