<svg width="256" xmlns="http://www.w3.org/2000/svg" height="256" viewBox="0 0 256 256" xmlns:xlink="http://www.w3.org/1999/xlink">
<defs>
<linearGradient gradientTransform="matrix(5.33333 0 0 -5.33333 0 5612.59851)" id="linear0" y1="1053.158" y2="1004.847" gradientUnits="userSpaceOnUse" x2="0">
<stop offset="0" style="stop-color:#26c1ef"/>
<stop offset="1" style="stop-color:#2f5bbc"/>
</linearGradient>
</defs>
<path style="fill:url(#linear0)" d="M 10.371094 256 L 245.625 256 C 251.351562 256 255.996094 251.355469 255.996094 245.625 L 255.996094 10.371094 C 255.996094 4.644531 251.351562 0 245.625 0 L 10.371094 0 C 4.640625 0 -0.00390625 4.644531 -0.00390625 10.371094 L -0.00390625 245.625 C -0.00390625 251.355469 4.640625 256 10.371094 256 Z "/>
<g style="fill:#fff">
<path d="M 112.667969 54.417969 C 103.320312 56.363281 94.550781 60.015625 86.832031 65.082031 C 87.058594 70.707031 85.121094 76.460938 80.832031 80.75 C 76.546875 85.039062 70.792969 86.976562 65.167969 86.75 C 60.097656 94.46875 56.449219 103.238281 54.5 112.582031 C 58.667969 116.398438 61.167969 121.820312 61.167969 127.917969 C 61.167969 134.015625 58.667969 139.601562 54.5 143.417969 C 56.449219 152.761719 60.097656 161.363281 65.167969 169.082031 C 70.792969 168.859375 76.546875 170.960938 80.832031 175.25 C 85.121094 179.539062 87.058594 185.125 86.832031 190.75 C 94.550781 195.816406 103.320312 199.636719 112.667969 201.582031 C 116.480469 197.414062 121.902344 194.75 128 194.75 C 134.097656 194.75 139.519531 197.414062 143.332031 201.582031 C 152.648438 199.640625 161.464844 195.792969 169.167969 190.75 C 169.15625 190.449219 169.167969 190.21875 169.167969 189.917969 C 169.167969 184.578125 171.09375 179.324219 175.167969 175.25 C 179.453125 170.960938 185.207031 168.859375 190.832031 169.082031 C 195.902344 161.363281 199.550781 152.761719 201.5 143.417969 C 197.332031 139.601562 194.832031 134.015625 194.832031 127.917969 C 194.832031 121.820312 197.332031 116.398438 201.5 112.582031 C 199.550781 103.238281 195.902344 94.46875 190.832031 86.75 C 185.207031 86.976562 179.453125 85.039062 175.167969 80.75 C 171.09375 76.675781 169.167969 71.421875 169.167969 66.082031 C 169.167969 65.78125 169.15625 65.382812 169.167969 65.082031 C 161.464844 60.039062 152.648438 56.359375 143.332031 54.417969 C 139.519531 58.585938 134.097656 61.25 128 61.25 C 121.902344 61.25 116.480469 58.585938 112.667969 54.417969 Z M 149.667969 77.917969 C 152.046875 77.917969 153.796875 78.171875 156 78.75 C 159.210938 79.59375 161.832031 82.1875 161.832031 85.25 C 161.835938 88.953125 159.183594 91.582031 155.167969 91.582031 C 153.253906 91.582031 152.46875 91.25 149.667969 91.25 C 141.398438 91.25 134.679688 97.984375 134.667969 106.25 L 134.667969 119.25 C 134.667969 120.421875 135.664062 121.25 136.832031 121.25 L 146.667969 121.25 C 150.335938 121.25 153.332031 124.238281 153.332031 127.917969 C 153.332031 131.59375 150.332031 134.582031 146.667969 134.582031 L 134.667969 134.582031 L 134.667969 149.582031 C 134.667969 165.261719 122.011719 178.082031 106.332031 178.082031 C 103.953125 178.082031 102.203125 177.828125 100 177.25 C 96.789062 176.410156 94.167969 173.644531 94.167969 170.582031 C 94.167969 166.882812 96.980469 164.25 101 164.25 C 102.910156 164.25 103.535156 164.582031 106.332031 164.582031 C 114.601562 164.582031 121.320312 158.015625 121.332031 149.75 L 121.332031 136.582031 C 121.332031 135.414062 120.335938 134.582031 119.167969 134.582031 L 109.332031 134.582031 C 105.664062 134.582031 102.667969 131.597656 102.667969 127.917969 C 102.664062 124.21875 105.792969 121.25 109.5 121.25 L 121.332031 121.25 L 121.332031 106.25 C 121.332031 90.570312 133.984375 77.917969 149.667969 77.917969 Z "/>
<path style="fill-opacity:.149" d="M 10.667969 0 C 4.757812 0 0 4.757812 0 10.667969 L 0 245.332031 C 0 251.242188 4.757812 256 10.667969 256 L 89.5 256 L 158 0 Z "/>
</g>
</svg>
