<svg width="256" xmlns="http://www.w3.org/2000/svg" height="256" viewBox="0 0 256 256" xmlns:xlink="http://www.w3.org/1999/xlink">
<defs>
<linearGradient gradientTransform="matrix(5.33333 0 0 -5.33333 0 5612.59893)" id="linear0" y1="1053.158" y2="1004.847" gradientUnits="userSpaceOnUse" x2="0">
<stop offset="0" style="stop-color:#2396ea"/>
<stop offset="1" style="stop-color:#116cac"/>
</linearGradient>
</defs>
<path style="fill:url(#linear0)" d="M 10.375 256 L 245.625 256 C 251.355469 256 256 251.355469 256 245.625 L 256 10.375 C 256 4.644531 251.355469 0 245.625 0 L 10.375 0 C 4.644531 0 0 4.644531 0 10.375 L 0 245.625 C 0 251.355469 4.644531 256 10.375 256 Z "/>
<g style="fill:#f9f9f9">
<path d="M 91.851562 152.90625 C 91.851562 152.90625 148.773438 132.574219 143.351562 105.917969 C 137.929688 79.265625 100.886719 69.777344 76.945312 85.136719 C 53 100.5 30.410156 132.574219 50.289062 163.746094 C 70.167969 194.917969 109.019531 189.046875 133.414062 170.070312 C 157.808594 151.097656 177.234375 158.324219 186.722656 155.164062 C 196.207031 152 197.113281 141.609375 186.269531 137.542969 C 175.429688 133.476562 159.164062 137.542969 144.707031 151.546875 C 130.25 165.554688 117.601562 180.460938 95.917969 172.328125 C 74.234375 164.199219 47.578125 123.539062 67.910156 103.210938 C 88.238281 82.878906 106.171875 91.46875 112 103.40625 C 117.828125 115.34375 116.246094 123.542969 108.117188 134.382812 C 99.984375 145.226562 91.851562 152.90625 91.851562 152.90625 Z "/>
<path d="M 46.675781 168.265625 C 46.675781 168.265625 56.613281 184.980469 73.78125 189.949219 C 90.949219 194.917969 99.078125 194.464844 110.375 189.039062 C 121.667969 183.613281 137.320312 173.414062 149.332031 167.40625 C 160 162.070312 170.667969 162.070312 181.332031 162.070312 C 198.648438 162.070312 207.050781 175.933594 204.339844 184.972656 C 201.628906 194.007812 197.113281 199.425781 183.109375 199.425781 C 169.101562 199.425781 174.074219 184.519531 148.320312 192.199219 C 122.570312 199.878906 94.109375 207.105469 76.039062 198.070312 C 57.96875 189.039062 46.675781 168.257812 46.675781 168.257812 Z "/>
<path d="M 138.667969 130.070312 C 138.667969 130.070312 144.683594 123.375 149.332031 114.070312 C 154.667969 103.40625 155.578125 96.753906 142.277344 83.296875 C 128.976562 69.839844 131.15625 72.613281 129.0625 62.929688 C 126.96875 53.246094 148.890625 50.0625 153.921875 58.984375 C 158.949219 67.910156 147.710938 66.019531 154.667969 76.738281 C 161.621094 87.457031 165.632812 99.773438 160 108.738281 C 154.367188 117.703125 138.667969 130.070312 138.667969 130.070312 Z "/>
<path d="M 202.726562 148.800781 C 198.253906 151.039062 192.503906 156.789062 196.015625 159.980469 C 199.53125 163.175781 209.753906 161.582031 211.988281 157.425781 C 214.226562 153.273438 213.585938 150.398438 210.710938 148.800781 C 207.835938 147.203125 202.726562 148.800781 202.726562 148.800781 Z "/>
<path d="M 159.941406 114.183594 C 166.675781 106.21875 170.878906 96.742188 171.640625 91.75 C 172.402344 86.757812 176.707031 75.96875 180.417969 73.058594 C 184.132812 70.152344 192.976562 74.464844 190.75 80.359375 C 188.523438 86.253906 179.554688 88.765625 178.890625 92.449219 C 178.226562 96.125 182.070312 97.734375 177.628906 102.066406 C 173.1875 106.394531 159.941406 114.183594 159.941406 114.183594 Z "/>
</g>
<path style="fill:#fff;fill-opacity:.149" d="M 0 0 L 0 256 L 89.5 256 L 158 0 Z "/>
</svg>
