<svg width="256" xmlns="http://www.w3.org/2000/svg" height="256" viewBox="0 0 256 256" xmlns:xlink="http://www.w3.org/1999/xlink">
<defs>
<linearGradient gradientTransform="matrix(5.33333 0 0 -5.33333 0 -5356.5984)" id="linear0" y1="-1002.362" y2="-1052.362" gradientUnits="userSpaceOnUse" x2="0">
<stop offset="0" style="stop-color:#648db5"/>
<stop offset=".768" style="stop-color:#527fab"/>
<stop offset="1" style="stop-color:#3f709f"/>
</linearGradient>
</defs>
<path style="fill:url(#linear0)" d="M 10.375 256 L 245.625 256 C 251.355469 256 256 251.355469 256 245.625 L 256 10.371094 C 256 4.644531 251.355469 0 245.625 0 L 10.375 0 C 4.644531 0 0 4.644531 0 10.371094 L 0 245.625 C 0 251.355469 4.644531 256 10.375 256 Z "/>
<path style="fill:#ededec" d="M 128 50.667969 C 80.871094 50.667969 42.667969 84.097656 42.667969 125.332031 C 42.667969 150.199219 56.640625 172.097656 78 185.667969 C 77.21875 188.523438 76.230469 191.539062 74.667969 194.667969 C 69.332031 205.332031 64 205.332031 64 205.332031 C 64 205.332031 80 205.332031 90.667969 200 C 92.921875 198.875 94.890625 197.035156 96.667969 194.832031 C 106.382812 198.199219 116.917969 200 128 200 C 175.128906 200 213.332031 166.570312 213.332031 125.332031 C 213.332031 84.097656 175.128906 50.667969 128 50.667969 Z M 122.167969 69.332031 L 138.167969 69.332031 L 138.167969 121 L 136.5 149 L 123.832031 149 L 122.167969 121 Z M 122.167969 167 L 138.167969 167 L 138.167969 187 L 122.167969 187 Z "/>
<path style="fill:#fff;fill-opacity:.149" d="M 10.667969 0 C 4.757812 0 0 4.757812 0 10.667969 L 0 245.332031 C 0 251.242188 4.757812 256 10.667969 256 L 89.5 256 L 158 0 Z "/>
</svg>
