<svg width="256" xmlns="http://www.w3.org/2000/svg" height="256" viewBox="0 0 256 256" xmlns:xlink="http://www.w3.org/1999/xlink">
<defs>
<linearGradient gradientTransform="matrix(5.33333 0 0 -5.33333 .00053 5612.59808)" id="linear0" y1="1053.158" y2="1004.847" gradientUnits="userSpaceOnUse" x2="0">
<stop offset="0" style="stop-color:#9cd662"/>
<stop offset="1" style="stop-color:#5dad28"/>
</linearGradient>
</defs>
<path style="fill:url(#linear0)" d="M 10.375 256 L 245.628906 256 C 251.355469 256 256 251.355469 256 245.628906 L 256 10.375 C 256 4.644531 251.355469 0 245.628906 0 L 10.375 0 C 4.644531 0 0 4.644531 0 10.375 L 0 245.628906 C 0 251.355469 4.644531 256 10.375 256 Z "/>
<g style="fill:#fff">
<path style="stroke:#fff;stroke-linejoin:round;stroke-linecap:round;stroke-width:1.395" d="M 24.00293 8.69751 C 23.860107 8.69751 23.715088 8.74585 23.605957 8.855713 L 7.656738 24.859131 C 7.438477 25.078125 7.438477 25.431885 7.656738 25.650879 L 21.261475 39.30249 L 26.738525 39.30249 L 40.343262 25.650879 C 40.561523 25.431885 40.561523 25.078125 40.343262 24.859131 L 24.394043 8.855713 C 24.284912 8.74585 24.14502 8.69751 24.00293 8.69751 Z M 23.904785 11.31665 C 24.265137 11.306396 24.628418 11.430176 24.911133 11.682129 L 26.614014 13.198975 C 27.180176 13.702881 27.201416 14.535645 26.662354 15.070312 L 14.97876 26.682129 L 11.693115 26.774414 L 10.648682 25.847168 C 10.08252 25.342529 10.060547 24.505371 10.599609 23.969971 L 22.92041 11.736328 C 23.189941 11.468994 23.544434 11.326904 23.904785 11.31665 Z M 24.736816 20.5979 C 25.098633 20.589111 25.460449 20.711426 25.743164 20.963379 L 27.446045 22.480225 C 28.012207 22.984863 28.03125 23.819824 27.489258 24.352295 L 20.303467 31.412842 L 17.012695 31.494141 L 15.968262 30.566895 C 15.4021 30.062256 15.383057 29.227295 15.925049 28.695557 L 23.741455 21.012451 C 24.012451 20.746582 24.375732 20.606689 24.736816 20.5979 Z M 23.947998 31.297852 C 24.298096 31.300781 24.647461 31.442871 24.911133 31.712402 L 26.499756 33.338379 C 27.027832 33.878906 27.016846 34.739502 26.472656 35.270508 L 25.466309 36.246826 L 22.278076 36.219727 L 21.309814 35.226562 C 20.781738 34.686035 20.792725 33.820312 21.337646 33.289307 L 22.974609 31.696289 C 23.24707 31.431152 23.598633 31.294922 23.947998 31.297852 Z " transform="scale(5.33333)"/>
<path style="fill-opacity:.149" d="M 10.667969 0 C 4.757812 0 0 4.757812 0 10.667969 L 0 245.332031 C 0 251.242188 4.757812 256 10.667969 256 L 89.5 256 L 158 0 Z "/>
</g>
</svg>
