<svg width="256" xmlns="http://www.w3.org/2000/svg" height="256" viewBox="0 0 256 256" xmlns:xlink="http://www.w3.org/1999/xlink">
<defs>
<linearGradient gradientTransform="matrix(5.33333 0 0 5.33333 0 -5356.5984)" id="linear0" y1="1053.153" y2="1003.79" gradientUnits="userSpaceOnUse" x2="0">
<stop offset="0" style="stop-color:#fbaf3d"/>
<stop offset="1" style="stop-color:#e2bc88"/>
</linearGradient>
</defs>
<path style="fill:url(#linear0)" d="M 10.375 0 L 245.625 0 C 251.355469 0 256 4.644531 256 10.371094 L 256 245.625 C 256 251.355469 251.355469 256 245.625 256 L 10.375 256 C 4.644531 256 0 251.355469 0 245.625 L 0 10.371094 C 0 4.644531 4.644531 0 10.375 0 Z "/>
<g style="fill:#fff">
<path d="M 49 106.769531 C 45.269531 106.945312 42.667969 107.84375 42.667969 111.933594 L 42.667969 198.101562 C 42.667969 203.558594 47.246094 207.933594 53 207.933594 L 202.832031 207.933594 C 208.585938 207.933594 213.332031 203.558594 213.332031 198.101562 L 213.332031 111.933594 C 213.332031 106.480469 208.585938 106.769531 202.832031 106.769531 L 53 106.769531 C 51.5625 106.769531 50.242188 106.710938 49 106.769531 Z "/>
<path d="M 69.28125 64.066406 L 47.949219 96.066406 L 122.617188 96.066406 L 122.617188 48.066406 L 85.28125 48.066406 C 79.949219 48.066406 69.28125 64.066406 69.28125 64.066406 Z M 133.28125 48.066406 L 133.28125 96.066406 L 207.949219 96.066406 L 186.617188 64.066406 C 186.617188 64.066406 175.949219 48.066406 170.617188 48.066406 Z "/>
<path style="fill-opacity:.149" d="M 10.667969 0 C 4.757812 0 0 4.757812 0 10.667969 L 0 245.332031 C 0 251.242188 4.757812 256 10.667969 256 L 89.5 256 L 158 0 Z "/>
</g>
</svg>
