<svg width="256" xmlns="http://www.w3.org/2000/svg" height="256" viewBox="0 0 256 256" xmlns:xlink="http://www.w3.org/1999/xlink">
<defs>
<linearGradient gradientTransform="matrix(5.33333 0 0 5.33333 0 -5356.5984)" id="linear0" y1="1053.158" y2="1004.847" gradientUnits="userSpaceOnUse" x2="0">
<stop offset="0" style="stop-color:#9e1e25"/>
<stop offset="1" style="stop-color:#e06359"/>
</linearGradient>
</defs>
<path style="fill:url(#linear0)" d="M 10.375 0 L 245.625 0 C 251.355469 0 256 4.644531 256 10.371094 L 256 245.625 C 256 251.355469 251.355469 256 245.625 256 L 10.375 256 C 4.644531 256 0 251.355469 0 245.625 L 0 10.371094 C 0 4.644531 4.644531 0 10.375 0 Z "/>
<g style="fill:#fff">
<path d="M 77.257812 43.414062 L 42.667969 195.535156 L 70.773438 195.535156 L 87.101562 127.460938 L 163.824219 127.460938 L 91.972656 191.222656 L 110.703125 212.601562 L 120.296875 207.699219 C 138.441406 198.453125 146.050781 203.863281 159.816406 207.632812 C 173.207031 211.316406 185.796875 215.257812 211.914062 200.332031 L 206.726562 173.992188 C 178.222656 194.082031 169.203125 176.15625 148.902344 175.445312 L 207.027344 126.6875 L 213.332031 100.660156 L 91.582031 100.660156 L 99.421875 69.425781 L 179.222656 69.425781 L 184.695312 43.398438 L 77.257812 43.398438 Z "/>
<path style="fill-opacity:.149" d="M 10.667969 0 C 4.757812 0 0 4.757812 0 10.667969 L 0 245.332031 C 0 251.242188 4.757812 256 10.667969 256 L 89.5 256 L 158 0 Z "/>
</g>
</svg>
