<svg width="256" xmlns="http://www.w3.org/2000/svg" height="256" viewBox="0 0 256 256" xmlns:xlink="http://www.w3.org/1999/xlink">
<defs>
<linearGradient gradientTransform="matrix(5.33333 0 0 5.33333 0 -5356.5984)" id="linear0" y1="1053.158" y2="1004.847" gradientUnits="userSpaceOnUse" x2="0">
<stop offset="0" style="stop-color:#9e1e4c"/>
<stop offset="1" style="stop-color:#d23759"/>
</linearGradient>
</defs>
<path style="fill:url(#linear0)" d="M 10.375 0 L 245.625 0 C 251.355469 0 256 4.644531 256 10.375 L 256 245.625 C 256 251.355469 251.355469 256 245.625 256 L 10.375 256 C 4.644531 256 0 251.355469 0 245.625 L 0 10.375 C 0 4.644531 4.644531 0 10.375 0 Z "/>
<g style="fill:#fff">
<path d="M 123.175781 42.667969 C 118.21875 42.667969 113.332031 43.222656 108.355469 44.398438 C 68.542969 53.832031 21.183594 118.234375 81.914062 146.902344 C 110.507812 160.398438 108.46875 221.785156 148.28125 212.351562 C 188.09375 202.921875 211.382812 157.679688 200.359375 111.3125 C 190.714844 70.746094 157.886719 42.710938 123.175781 42.667969 Z M 110.890625 55.464844 C 117.972656 55.464844 123.710938 61.191406 123.710938 68.257812 C 123.710938 75.328125 117.972656 81.054688 110.890625 81.054688 C 103.8125 81.054688 98.074219 75.328125 98.074219 68.257812 C 98.074219 61.191406 103.8125 55.464844 110.890625 55.464844 Z M 149.347656 59.730469 C 156.429688 59.730469 162.167969 65.457031 162.167969 72.523438 C 162.167969 79.59375 156.429688 85.320312 149.347656 85.320312 C 142.269531 85.320312 136.53125 79.59375 136.53125 72.523438 C 136.53125 65.457031 142.269531 59.730469 149.347656 59.730469 Z M 80.980469 81.054688 C 88.0625 81.054688 93.800781 86.785156 93.800781 93.851562 C 93.800781 100.921875 88.0625 106.648438 80.980469 106.648438 C 73.902344 106.648438 68.164062 100.921875 68.164062 93.851562 C 68.164062 86.785156 73.902344 81.054688 80.980469 81.054688 Z M 174.988281 89.585938 C 182.066406 89.585938 187.804688 95.316406 187.804688 102.382812 C 187.804688 109.449219 182.066406 115.179688 174.988281 115.179688 C 167.90625 115.179688 162.167969 109.449219 162.167969 102.382812 C 162.167969 95.316406 167.90625 89.585938 174.988281 89.585938 Z M 104.882812 123.3125 C 110.9375 123.203125 117.125 128.589844 119.4375 136.507812 C 122.082031 145.554688 118.757812 154.523438 111.960938 156.5 C 105.164062 158.480469 97.511719 152.75 94.867188 143.707031 C 92.226562 134.660156 95.550781 125.691406 102.347656 123.710938 C 103.195312 123.464844 104.019531 123.328125 104.882812 123.308594 Z M 179.261719 127.976562 C 186.339844 127.976562 192.078125 133.707031 192.078125 140.773438 C 192.078125 147.839844 186.339844 153.570312 179.261719 153.570312 C 172.179688 153.570312 166.441406 147.839844 166.441406 140.773438 C 166.441406 133.707031 172.179688 127.976562 179.261719 127.976562 Z M 162.167969 162.101562 C 169.25 162.101562 174.988281 167.828125 174.988281 174.898438 C 174.988281 181.964844 169.25 187.691406 162.167969 187.691406 C 155.089844 187.691406 149.347656 181.964844 149.347656 174.898438 C 149.347656 167.828125 155.089844 162.101562 162.167969 162.101562 Z "/>
<path style="fill-opacity:.149" d="M 0 0 L 0 256 L 89.5 256 L 158 0 Z "/>
</g>
</svg>
