<svg width="256" xmlns="http://www.w3.org/2000/svg" height="256" viewBox="0 0 256 256" xmlns:xlink="http://www.w3.org/1999/xlink">
<defs>
<linearGradient gradientTransform="matrix(5.33333 0 0 5.33333 0 -5356.5984)" id="linear0" y1="1053.158" y2="1004.847" gradientUnits="userSpaceOnUse" x2="0">
<stop offset="0" style="stop-color:#6e6e6e"/>
<stop offset="1" style="stop-color:#c6c6c6"/>
</linearGradient>
</defs>
<path style="fill:url(#linear0)" d="M 10.332031 0 C 4.585938 0 0 4.585938 0 10.332031 L 0 245.667969 C 0 251.414062 4.585938 256 10.332031 256 L 245.667969 256 C 251.414062 256 256 251.414062 256 245.667969 L 256 10.332031 C 256 4.585938 251.414062 0 245.667969 0 Z "/>
<g style="fill:#fff">
<path d="M 126.863281 42.664062 C 146.359375 42.664062 162.164062 58.46875 162.164062 77.96875 L 162.164062 132.382812 C 162.164062 151.882812 146.359375 167.6875 126.863281 167.6875 C 107.367188 167.6875 91.5625 151.882812 91.5625 132.382812 L 91.5625 77.96875 C 91.5625 58.46875 107.367188 42.664062 126.863281 42.664062 Z "/>
<path d="M 70.878906 127.753906 C 70.878906 127.753906 70.878906 190.511719 122.226562 190.332031 L 122.226562 201.921875 L 105.109375 201.921875 L 105.109375 213.332031 L 150.753906 213.332031 L 150.753906 201.921875 L 133.636719 201.921875 L 133.636719 190.332031 C 190.359375 186.652344 184.984375 127.753906 184.984375 127.753906 L 173.574219 127.753906 C 173.574219 127.753906 173.574219 179.101562 127.933594 179.101562 C 82.289062 179.101562 82.289062 127.753906 82.289062 127.753906 Z "/>
<path style="fill-opacity:.149" d="M 10.667969 0 C 4.757812 0 0 4.757812 0 10.667969 L 0 245.332031 C 0 251.242188 4.757812 256 10.667969 256 L 89.5 256 L 158 0 Z "/>
</g>
</svg>
