<svg width="256" xmlns="http://www.w3.org/2000/svg" height="256" viewBox="0 0 256 256" xmlns:xlink="http://www.w3.org/1999/xlink">
<path style="fill:#00abec" d="M 153.289062 47.941406 C 135.226562 54.453125 123.808594 71.246094 125.109375 89.628906 L 125.542969 96.722656 L 118.320312 95.855469 C 92.019531 92.527344 69.039062 81.234375 49.53125 62.269531 L 39.996094 52.863281 L 37.539062 59.808594 C 32.335938 75.300781 35.660156 91.65625 46.496094 102.660156 C 52.277344 108.738281 50.976562 109.605469 41.007812 105.988281 C 37.539062 104.832031 34.503906 103.960938 34.214844 104.394531 C 33.203125 105.410156 36.671875 118.582031 39.417969 123.792969 C 43.171875 131.03125 50.832031 138.125 59.214844 142.324219 L 66.296875 145.652344 L 57.914062 145.796875 C 49.820312 145.796875 49.53125 145.941406 50.398438 148.980469 C 53.289062 158.390625 64.707031 168.378906 77.421875 172.722656 L 86.382812 175.761719 L 78.578125 180.394531 C 67.019531 187.054688 53.433594 190.816406 39.851562 191.105469 C 33.347656 191.25 28 191.832031 28 192.265625 C 28 193.710938 45.628906 201.820312 55.890625 205.003906 C 86.671875 214.414062 123.230469 210.359375 150.6875 194.292969 C 170.199219 182.855469 189.707031 160.128906 198.8125 138.125 C 203.722656 126.398438 208.636719 104.976562 208.636719 94.695312 C 208.636719 88.039062 209.070312 87.167969 217.164062 79.207031 C 221.933594 74.574219 226.414062 69.507812 227.277344 68.0625 C 228.722656 65.3125 228.578125 65.3125 221.210938 67.773438 C 208.925781 72.113281 207.191406 71.535156 213.261719 65.019531 C 217.742188 60.390625 223.089844 51.992188 223.089844 49.53125 C 223.089844 49.097656 220.921875 49.820312 218.464844 51.125 C 215.863281 52.570312 210.082031 54.742188 205.746094 56.046875 L 197.945312 58.507812 L 190.863281 53.730469 C 186.960938 51.125 181.46875 48.230469 178.578125 47.359375 C 171.210938 45.332031 159.9375 45.625 153.289062 47.941406 Z "/>
</svg>
