<svg width="256" xmlns="http://www.w3.org/2000/svg" height="256" viewBox="0 0 256 256" xmlns:xlink="http://www.w3.org/1999/xlink">
<g style="fill:none;stroke:#8bb3cc">
<path style="stroke-linecap:round;stroke-width:.79" d="M 33.057424 27.317077 C 33.057424 32.345216 28.981407 36.421232 23.953269 36.421232 C 18.925131 36.421232 14.849114 32.345216 14.849114 27.317077 C 14.849114 22.28931 18.925131 18.213294 23.953269 18.213294 C 28.981407 18.213294 33.057424 22.28931 33.057424 27.317077 Z " transform="matrix(10.52747 0 0 10.52747 -124.16741 -159.58372)"/>
<path d="M 13.061809 1023.771194 C 20.63094 1023.582353 26.883352 1023.834141 34.62911 1023.771194 " transform="matrix(8.31554 0 0 8.31554 -71.57303 -8423.39)"/>
<path d="M 12.531458 1028.206132 L 35.468559 1028.206132 " transform="matrix(8.31554 0 0 8.31554 -71.57303 -8423.39)"/>
<path d="M 13.061809 1032.37566 C 21.203099 1032.347475 27.547113 1032.344656 34.62911 1032.37566 " transform="matrix(8.31554 0 0 8.31554 -71.57303 -8423.39)"/>
<path d="M 24.479155 1039.83111 L 24.479155 1016.89354 " transform="matrix(8.31554 0 0 8.31554 -75.55739 -8423.39)"/>
<path d="M 19.880742 1039.100644 C 17.130808 1032.786224 17.341258 1024.865249 19.880742 1017.962228 " transform="matrix(8.31554 0 0 8.31554 -75.55739 -8423.39)"/>
<path d="M 29.077567 1039.100644 C 31.827501 1032.786224 31.617052 1024.865249 29.077567 1017.962228 " transform="matrix(8.31554 0 0 8.31554 -75.55739 -8423.39)"/>
</g>
<path style="fill:#8bb3cc" d="M 123.84375 69.792969 L 140.472656 69.792969 C 165.421875 69.792969 165.421875 94.738281 165.421875 94.738281 L 165.421875 119.425781 C 165.421875 127.742188 148.789062 144.632812 148.789062 144.632812 L 148.789062 152.945312 L 173.734375 169.578125 L 173.734375 186.207031 L 82.265625 186.207031 L 82.265625 169.578125 L 115.527344 152.945312 L 115.527344 144.632812 C 115.527344 144.632812 98.839844 127.742188 98.894531 119.425781 L 98.894531 94.738281 C 98.894531 94.738281 98.894531 69.792969 123.84375 69.792969 Z "/>
</svg>
