<svg width="256" xmlns="http://www.w3.org/2000/svg" height="256" viewBox="0 0 256 256" xmlns:xlink="http://www.w3.org/1999/xlink">
<path style="fill:#2c889f" d="M 10.375 256 L 245.625 256 C 251.355469 256 256 251.355469 256 245.625 L 256 10.371094 C 256 4.644531 251.355469 0 245.625 0 L 10.375 0 C 4.644531 0 0 4.644531 0 10.371094 L 0 245.625 C 0 251.355469 4.644531 256 10.375 256 Z "/>
<g style="fill:#fff">
<path d="M 102.378906 93.90625 L 102.378906 110.988281 L 110.917969 110.988281 L 110.917969 196.246094 L 93.835938 196.246094 L 93.835938 213.328125 L 162.164062 213.328125 L 162.164062 196.246094 L 145.082031 196.246094 L 145.082031 93.90625 Z "/>
<path d="M 145.082031 59.742188 C 145.082031 69.175781 137.433594 76.824219 128 76.824219 C 118.566406 76.824219 110.917969 69.175781 110.917969 59.742188 C 110.917969 50.308594 118.566406 42.660156 128 42.660156 C 137.433594 42.660156 145.082031 50.308594 145.082031 59.742188 Z "/>
<path style="fill-opacity:.149" d="M 10.667969 0 C 4.757812 0 0 4.757812 0 10.667969 L 0 245.332031 C 0 251.242188 4.757812 256 10.667969 256 L 89.5 256 L 158 0 Z "/>
</g>
</svg>
