<svg width="256" xmlns="http://www.w3.org/2000/svg" height="256" viewBox="0 0 256 256" xmlns:xlink="http://www.w3.org/1999/xlink">
<defs>
<linearGradient gradientTransform="matrix(5.33333 0 0 -5.33333 0 5612.5984)" id="linear0" y1="1053.158" y2="1004.847" gradientUnits="userSpaceOnUse" x2="0">
<stop offset="0" style="stop-color:#71a536"/>
<stop offset="1" style="stop-color:#617147"/>
</linearGradient>
</defs>
<path style="fill:url(#linear0)" d="M 10.375 256 L 245.625 256 C 251.355469 256 256 251.355469 256 245.625 L 256 10.371094 C 256 4.644531 251.355469 0 245.625 0 L 10.375 0 C 4.644531 0 0 4.644531 0 10.371094 L 0 245.625 C 0 251.355469 4.644531 256 10.375 256 Z "/>
<g style="fill:#fff">
<path d="M 42.765625 59.027344 L 42.765625 197.691406 L 196.839844 197.691406 L 196.839844 59.027344 Z M 47.902344 64.160156 L 191.703125 64.160156 L 191.703125 192.554688 L 47.902344 192.554688 Z "/>
<path d="M 191.902344 48.160156 L 191.902344 213.496094 L 213.234375 213.496094 L 213.234375 202.828125 L 202.566406 202.828125 L 202.566406 48.160156 Z "/>
<path d="M 68.941406 74.828125 L 112.195312 74.828125 C 117.921875 74.828125 122.566406 79.472656 122.566406 85.199219 L 122.566406 128.453125 C 122.566406 134.183594 117.921875 138.828125 112.195312 138.828125 L 68.941406 138.828125 C 63.210938 138.828125 58.566406 134.183594 58.566406 128.453125 L 58.566406 85.199219 C 58.566406 79.472656 63.210938 74.828125 68.941406 74.828125 Z "/>
<path d="M 133.234375 74.828125 L 143.902344 74.828125 L 143.902344 90.828125 L 133.234375 90.828125 Z "/>
<path d="M 149.234375 74.828125 L 159.902344 74.828125 L 159.902344 90.828125 L 149.234375 90.828125 Z "/>
<path d="M 165.234375 74.828125 L 175.902344 74.828125 L 175.902344 90.828125 L 165.234375 90.828125 Z "/>
<path d="M 133.234375 96.160156 L 175.902344 96.160156 L 175.902344 112.160156 L 133.234375 112.160156 Z "/>
<path d="M 133.234375 117.496094 L 175.902344 117.496094 L 175.902344 133.496094 L 133.234375 133.496094 Z "/>
<path d="M 58.566406 144.160156 L 175.902344 144.160156 L 175.902344 154.828125 L 58.566406 154.828125 Z "/>
<path d="M 58.566406 160.160156 L 175.902344 160.160156 L 175.902344 170.828125 L 58.566406 170.828125 Z "/>
<path d="M 58.566406 176.160156 L 74.566406 176.160156 L 74.566406 181.332031 L 58.566406 181.332031 Z "/>
<path d="M 79.902344 176.160156 L 95.902344 176.160156 L 95.902344 181.332031 L 79.902344 181.332031 Z "/>
<path d="M 111.902344 176.160156 L 122.566406 176.160156 L 122.566406 181.332031 L 111.902344 181.332031 Z "/>
<path d="M 127.902344 176.160156 L 138.566406 176.160156 L 138.566406 181.332031 L 127.902344 181.332031 Z "/>
<path d="M 143.902344 176.160156 L 154.566406 176.160156 L 154.566406 181.332031 L 143.902344 181.332031 Z "/>
<path d="M 159.902344 176.160156 L 175.902344 176.160156 L 175.902344 181.332031 L 159.902344 181.332031 Z "/>
<path style="fill-opacity:.149" d="M 10.667969 0 C 4.757812 0 0 4.757812 0 10.667969 L 0 245.332031 C 0 251.242188 4.757812 256 10.667969 256 L 89.5 256 L 158 0 Z "/>
</g>
</svg>
