<svg width="256" xmlns="http://www.w3.org/2000/svg" height="256" viewBox="0 0 256 256" xmlns:xlink="http://www.w3.org/1999/xlink">
<defs>
<linearGradient gradientTransform="matrix(5.33333 0 0 5.33333 0 -5356.59835)" id="linear0" y1="1053.158" y2="1004.847" gradientUnits="userSpaceOnUse" x2="0">
<stop offset="0" style="stop-color:#6e1c1c"/>
<stop offset="1" style="stop-color:#c93e20"/>
</linearGradient>
</defs>
<path style="fill:url(#linear0)" d="M 10.375 0 L 245.625 0 C 251.355469 0 256 4.644531 256 10.371094 L 256 245.625 C 256 251.355469 251.355469 256 245.625 256 L 10.375 256 C 4.644531 256 0 251.355469 0 245.625 L 0 10.371094 C 0 4.644531 4.644531 0 10.375 0 Z "/>
<path style="fill:#fff;fill-rule:evenodd" d="M 89.992188 97.253906 C 99.921875 86.328125 112.417969 71.011719 125.804688 58.273438 C 128.898438 54.261719 142.792969 54.296875 146.730469 58.382812 L 165.460938 82.175781 L 165.539062 91.519531 L 148.902344 84.03125 C 151.511719 92.558594 154.96875 101.296875 148.902344 107.65625 L 135.257812 88.757812 L 127.65625 101.164062 C 117.902344 93.039062 121.503906 86.394531 121.082031 79.308594 L 113.617188 97.253906 C 101.265625 110.683594 97.324219 98.871094 89.992188 97.253906 Z "/>
<path style="fill:none;stroke:#fff;stroke-linecap:round;stroke-width:.623" d="M 26.46617 1039.951237 L 23.643298 1040.80523 L 23.109336 1038.634013 L 20.896376 1038.34587 L 22.891344 1036.569473 C 22.956858 1036.127693 15.726039 1033.914733 15.543993 1033.438167 C 15.316725 1033.080452 18.171484 1032.687952 18.263667 1030.665734 C 17.341262 1030.680808 16.685549 1030.359619 14.554915 1029.788551 C 14.554915 1029.788551 12.216147 1029.400689 12.190057 1028.925862 C 12.112949 1028.342619 13.688748 1027.348324 16.24029 1024.462837 C 18.791252 1021.577351 22.317958 1016.800674 22.643205 1016.652255 C 23.555174 1015.87595 25.468976 1015.95074 26.130487 1016.652255 C 26.51661 1016.866767 31.645783 1022.798335 34.622872 1026.730875 " transform="matrix(6.73765 0 0 6.73765 -29.69488 -6801.33483)"/>
<g style="fill:#fff">
<path d="M 99.164062 106.777344 C 73.625 106.46875 74.445312 122.03125 71.792969 125.730469 C 64.632812 126.148438 70.527344 134.992188 73.476562 134.992188 C 76.421875 134.992188 85.265625 128.675781 96.636719 131.203125 C 108.007812 133.730469 121.480469 131.203125 110.53125 141.730469 C 99.582031 152.257812 88.636719 150.996094 91.582031 156.890625 C 94.53125 162.785156 97.898438 167.839844 113.480469 171.628906 C 129.0625 175.417969 132.429688 173.3125 134.957031 178.367188 C 137.484375 183.417969 135.378906 185.105469 140.429688 180.894531 C 145.484375 176.683594 158.539062 178.367188 153.90625 169.523438 C 149.273438 160.679688 139.589844 166.996094 148.851562 158.996094 C 158.117188 150.996094 155.589844 155.207031 163.171875 147.625 C 170.75 140.046875 184.648438 142.152344 172.011719 135.835938 C 159.378906 129.519531 156.855469 129.941406 144.222656 128.253906 C 131.585938 126.570312 133.691406 130.78125 127.796875 121.9375 C 121.902344 113.09375 123.585938 110.148438 115.164062 110.570312 C 106.742188 110.988281 99.164062 106.777344 99.164062 106.777344 Z "/>
<path style="fill-opacity:.149" d="M 10.667969 0 C 4.757812 0 0 4.757812 0 10.667969 L 0 245.332031 C 0 251.242188 4.757812 256 10.667969 256 L 89.5 256 L 158 0 Z "/>
</g>
</svg>
