<svg width="256" xmlns="http://www.w3.org/2000/svg" height="256" viewBox="0 0 256 256" xmlns:xlink="http://www.w3.org/1999/xlink">
<defs>
<linearGradient gradientTransform="matrix(5.33333 0 0 -5.33333 0 -5356.5984)" id="linear0" y1="-1003.614" x1="25.456" y2="-1052.934" gradientUnits="userSpaceOnUse" x2="24.489">
<stop offset="0" style="stop-color:#9ddf5f"/>
<stop offset="1" style="stop-color:#3d790a"/>
</linearGradient>
</defs>
<path style="fill:url(#linear0)" d="M 10.371094 256 L 245.628906 256 C 251.375 256 256 251.375 256 245.628906 L 256 10.371094 C 256 4.625 251.375 0 245.628906 0 L 10.371094 0 C 4.625 0 0 4.625 0 10.371094 L 0 245.628906 C 0 251.375 4.625 256 10.371094 256 Z "/>
<path style="fill:#fff;fill-opacity:.149" d="M 0 0 L 0 256 L 89.5 256 L 158 0 Z "/>
<path style="fill:#fffffc" d="M 128 50.667969 C 80.871094 50.667969 42.667969 84.097656 42.667969 125.332031 C 42.667969 150.199219 56.640625 172.097656 78 185.667969 C 77.21875 188.523438 76.230469 191.539062 74.667969 194.667969 C 69.332031 205.332031 64 205.332031 64 205.332031 C 64 205.332031 80 205.332031 90.667969 200 C 92.921875 198.875 94.890625 197.035156 96.667969 194.832031 C 106.382812 198.199219 116.917969 200 128 200 C 175.128906 200 213.332031 166.570312 213.332031 125.332031 C 213.332031 84.097656 175.128906 50.667969 128 50.667969 Z M 112 68.667969 C 143.515625 68.667969 143.5 105 143.5 105 L 143.5 141.332031 C 143.5 141.332031 143.441406 153.558594 136.167969 160.832031 C 128.894531 168.105469 121.667969 170.5 121.667969 170.5 C 121.667969 170.5 121.652344 175.410156 126.5 177.832031 C 131.347656 180.257812 133.832031 180.167969 133.832031 180.167969 L 133.832031 189.832031 C 133.832031 189.832031 131.273438 192.332031 124 192.332031 C 116.726562 192.332031 109.589844 187.441406 107.167969 180.167969 C 104.742188 172.894531 104.667969 170.5 104.667969 170.5 C 104.667969 170.5 98.738281 171.738281 90.167969 163.167969 C 85.316406 158.320312 80.332031 148.605469 80.332031 141.332031 L 80.332031 102.667969 C 80.332031 102.667969 80.484375 68.667969 112 68.667969 Z M 160 73.667969 L 167.332031 73.667969 L 167.332031 93 L 179.332031 93 L 179.332031 102.667969 L 167.332031 102.667969 L 167.332031 148.832031 C 167.332031 148.832031 169.652344 153.667969 174.5 153.667969 C 178.136719 153.667969 179.105469 152.183594 179.332031 151.5 L 179.332031 160.832031 C 179.332031 160.832031 176.953125 165.667969 164.832031 165.667969 C 152.710938 165.667969 152.667969 153.667969 152.667969 153.667969 L 152.667969 102.667969 L 147.832031 102.667969 L 147.832031 93 L 152.667969 93 Z M 113.5 80.832031 C 101.378906 80.832031 101.332031 95.332031 101.332031 95.332031 L 101.332031 141.332031 C 101.332031 141.332031 101.378906 158.332031 113.5 158.332031 C 125.621094 158.332031 125.667969 141.332031 125.667969 141.332031 L 125.667969 92.832031 C 125.667969 92.832031 125.621094 80.832031 113.5 80.832031 Z "/>
</svg>
