<svg width="256" xmlns="http://www.w3.org/2000/svg" height="256" viewBox="0 0 256 256" xmlns:xlink="http://www.w3.org/1999/xlink">
<defs>
<linearGradient gradientTransform="matrix(5.33333 0 0 5.33333 0 -5356.5984)" id="linear0" y1="1053.158" y2="1004.847" gradientUnits="userSpaceOnUse" x2="0">
<stop offset="0" style="stop-color:#de9745"/>
<stop offset="1" style="stop-color:#f4be62"/>
</linearGradient>
</defs>
<path style="fill:url(#linear0)" d="M 10.375 0 L 245.625 0 C 251.355469 0 256 4.644531 256 10.371094 L 256 245.625 C 256 251.355469 251.355469 256 245.625 256 L 10.375 256 C 4.644531 256 0 251.355469 0 245.625 L 0 10.371094 C 0 4.644531 4.644531 0 10.375 0 Z "/>
<g style="fill:#fff">
<path style="fill-opacity:.149" d="M 0 0 L 0 256 L 89.5 256 L 158 0 Z "/>
<path d="M 75.734375 42.667969 L 118.398438 63.734375 C 118.398438 63.734375 144.621094 56.367188 151.734375 71.464844 C 151.734375 71.464844 165.621094 66.632812 180.265625 71.199219 C 180.265625 71.199219 174.515625 77.882812 174.933594 93.332031 C 174.933594 93.332031 178.554688 157.078125 129.601562 179.199219 C 129.601562 179.199219 144.40625 196.128906 135.199219 213.332031 C 135.199219 213.332031 133.132812 204.875 125.601562 196.800781 C 125.601562 196.800781 114.285156 185.898438 113.867188 181.332031 C 113.867188 181.332031 99.226562 183.265625 92.535156 174.132812 C 92.535156 174.132812 85.859375 168.96875 80 168.265625 C 80 168.265625 100.789062 163.390625 119.199219 171.464844 C 119.199219 171.464844 134.175781 162.003906 136.265625 151.464844 L 123.734375 152 C 123.734375 152 126.683594 143.863281 138.398438 140 C 138.398438 140 137.515625 123.0625 133.332031 119.199219 C 133.332031 119.199219 116.289062 118.84375 106.667969 125.867188 C 106.667969 125.867188 119.324219 112.945312 125.601562 110.132812 C 125.601562 110.132812 110.121094 109.476562 101.332031 114.398438 C 101.332031 114.398438 109.992188 100.675781 116.265625 97.867188 C 116.265625 97.867188 108.265625 87.035156 108.265625 81.066406 C 108.265625 81.066406 99.460938 73.675781 96.535156 65.601562 L 109.601562 73.332031 C 109.601562 73.332031 93.304688 50.390625 75.734375 42.667969 Z "/>
</g>
</svg>
