<svg width="256" xmlns="http://www.w3.org/2000/svg" height="256" viewBox="0 0 256 256" xmlns:xlink="http://www.w3.org/1999/xlink">
<defs>
<linearGradient gradientTransform="matrix(5.33333 0 0 -5.33333 0 5612.5984)" id="linear0" y1="1053.158" y2="1004.847" gradientUnits="userSpaceOnUse" x2="0">
<stop offset="0" style="stop-color:#fc5612"/>
<stop offset="1" style="stop-color:#b55328"/>
</linearGradient>
<linearGradient gradientTransform="matrix(3.37813 0 0 -3.49552 50.40459 3769.304)" id="linear1" y1="1015.994" y2="1041.86" gradientUnits="userSpaceOnUse" x2="0">
<stop offset="0" style="stop-color:#fff"/>
<stop offset="1" style="stop-color:#fff;stop-opacity:0"/>
</linearGradient>
<linearGradient gradientTransform="matrix(3.37813 0 0 3.49552 50.39685 -3505.34896)" id="linear2" y1="1015.994" y2="1041.86" gradientUnits="userSpaceOnUse" x2="0">
<stop offset="0" style="stop-color:#fff"/>
<stop offset="1" style="stop-color:#fff;stop-opacity:0"/>
</linearGradient>
</defs>
<path style="fill:url(#linear0)" d="M 10.375 256 L 245.625 256 C 251.355469 256 256 251.355469 256 245.625 L 256 10.371094 C 256 4.644531 251.355469 0 245.625 0 L 10.375 0 C 4.644531 0 0 4.644531 0 10.371094 L 0 245.625 C 0 251.355469 4.644531 256 10.375 256 Z "/>
<path style="fill:#fff;fill-opacity:.149" d="M 0 0 L 0 256 L 89.5 256 L 158 0 Z "/>
<path style="fill:url(#linear1)" d="M 101.257812 170.214844 L 118.453125 170.214844 L 118.453125 131.960938 L 143.078125 131.960938 L 143.078125 170.214844 L 161.703125 170.214844 L 131.03125 217.296875 Z "/>
<path style="fill:url(#linear2)" d="M 101.25 93.738281 L 118.445312 93.738281 L 118.445312 131.988281 L 143.070312 131.988281 L 143.070312 93.738281 L 161.695312 93.738281 L 131.023438 46.65625 Z "/>
</svg>
