<svg width="256" xmlns="http://www.w3.org/2000/svg" height="256" viewBox="0 0 256 256" xmlns:xlink="http://www.w3.org/1999/xlink">
<defs>
<linearGradient gradientTransform="matrix(5.33333 0 0 -5.33333 0 -5356.5984)" id="linear0" y1="-1051.702" y2="-1001.474" gradientUnits="userSpaceOnUse" x2="0">
<stop offset="0" style="stop-color:#ce5b00"/>
<stop offset="1" style="stop-color:#edb547"/>
</linearGradient>
</defs>
<path style="fill:url(#linear0)" d="M 10.375 256 L 245.625 256 C 251.355469 256 256 251.355469 256 245.625 L 256 10.371094 C 256 4.644531 251.355469 0 245.625 0 L 10.375 0 C 4.644531 0 0 4.644531 0 10.371094 L 0 245.625 C 0 251.355469 4.644531 256 10.375 256 Z "/>
<g style="fill:#fff">
<g style="stroke:#fff;stroke-width:4.763;fill-rule:evenodd">
<path d="M 151.487792 -149.035277 C 132.939208 -148.765196 114.495909 -141.193785 99.687254 -122.695555 C 84.535277 -103.771605 95.329344 -77.184691 108.595335 -69.567503 C 119.320738 -64.59619 128.727782 -72.822203 130.123961 -78.091063 C 126.274168 -76.328673 113.868773 -76.191344 111.602843 -83.712401 C 109.222472 -101.180663 120.748961 -113.622679 137.049925 -115.40338 C 164.575255 -118.40631 186.053526 -91.123595 188.25537 -65.397276 C 191.359007 -29.114928 163.174498 7.117067 129.904234 17.499147 L 225.618041 17.618166 L 225.618041 -113.320555 C 219.534361 -120.219054 212.548888 -126.554503 204.483092 -131.919493 C 188.786375 -142.36566 170.040953 -149.309935 151.487792 -149.035277 Z " transform="matrix(.85333 0 0 .85333 18.77339 196.26661)"/>
<path d="M 104.512083 -10.964598 C 123.060667 -11.234679 141.503966 -18.80609 156.312621 -37.30432 C 171.464598 -56.22827 160.670531 -82.815184 147.40454 -90.432372 C 136.679137 -95.403685 127.272093 -87.177672 125.875914 -81.908812 C 129.725707 -83.671202 142.176878 -84.518065 144.442809 -76.997008 C 146.82318 -59.524168 135.250914 -46.377196 118.94995 -44.596495 C 91.42462 -41.593565 69.946349 -68.87628 67.744505 -94.602599 C 64.640868 -130.884947 92.825377 -167.116942 126.095641 -177.499022 L 30.381834 -177.618041 L 30.381834 -46.67932 C 36.465514 -39.780821 43.450987 -33.445372 51.516783 -28.080382 C 67.2135 -17.634215 85.958922 -10.68994 104.512083 -10.964598 Z " transform="matrix(.85333 0 0 .85333 18.77339 196.26661)"/>
</g>
<path style="fill-opacity:.149" d="M 10.667969 0 C 4.757812 0 0 4.757812 0 10.667969 L 0 245.332031 C 0 251.242188 4.757812 256 10.667969 256 L 89.5 256 L 158 0 Z "/>
</g>
</svg>
