<?xml version="1.0" encoding="UTF-8" standalone="no"?>
<svg
   xmlns:dc="http://purl.org/dc/elements/1.1/"
   xmlns:cc="http://creativecommons.org/ns#"
   xmlns:rdf="http://www.w3.org/1999/02/22-rdf-syntax-ns#"
   xmlns:svg="http://www.w3.org/2000/svg"
   xmlns="http://www.w3.org/2000/svg"
   xmlns:xlink="http://www.w3.org/1999/xlink"
   xmlns:sodipodi="http://sodipodi.sourceforge.net/DTD/sodipodi-0.dtd"
   xmlns:inkscape="http://www.inkscape.org/namespaces/inkscape"
   width="256"
   height="256"
   viewBox="0 0 256 256"
   id="svg2"
   version="1.1"
   inkscape:version="0.48.4 r9939"
   sodipodi:docname="mumble.svg">
  <metadata
     id="metadata23">
    <rdf:RDF>
      <cc:Work
         rdf:about="">
        <dc:format>image/svg+xml</dc:format>
        <dc:type
           rdf:resource="http://purl.org/dc/dcmitype/StillImage" />
        <dc:title />
      </cc:Work>
    </rdf:RDF>
  </metadata>
  <sodipodi:namedview
     pagecolor="#ffffff"
     bordercolor="#666666"
     borderopacity="1"
     objecttolerance="10"
     gridtolerance="10"
     guidetolerance="10"
     inkscape:pageopacity="0"
     inkscape:pageshadow="2"
     inkscape:window-width="1920"
     inkscape:window-height="1023"
     id="namedview21"
     showgrid="false"
     inkscape:zoom="2"
     inkscape:cx="195.36463"
     inkscape:cy="63.948535"
     inkscape:window-x="0"
     inkscape:window-y="29"
     inkscape:window-maximized="1"
     inkscape:current-layer="svg2" />
  <defs
     id="defs4">
    <linearGradient
       gradientTransform="matrix(5.33333 0 0 5.33333 0 -5356.5984)"
       id="linear0"
       y1="1053.158"
       y2="1004.847"
       gradientUnits="userSpaceOnUse"
       x2="0">
      <stop
         offset="0"
         style="stop-color:#283452;stop-opacity:1;"
         id="stop7" />
      <stop
         offset="1"
         style="stop-color:#3b6497;stop-opacity:1;"
         id="stop9" />
    </linearGradient>
    <linearGradient
       gradientTransform="matrix(5.33333,0,0,5.33333,0,-5356.5986)"
       id="linear0-4"
       y1="1053.158"
       y2="1028.182"
       gradientUnits="userSpaceOnUse"
       x2="0">
      <stop
         offset="0"
         style="stop-color:#1e1e1e;stop-opacity:1;"
         id="stop7-9" />
      <stop
         offset="1"
         style="stop-color:#2a2a2a;stop-opacity:1;"
         id="stop9-5" />
    </linearGradient>
    <linearGradient
       y2="1028.182"
       x2="0"
       y1="1053.158"
       gradientTransform="matrix(5.33333,0,0,5.33333,3.047525e-4,-5356.5987)"
       gradientUnits="userSpaceOnUse"
       id="linearGradient3014"
       xlink:href="#linear0-4"
       inkscape:collect="always" />
  </defs>
  <g
     id="g2997">
    <path
       id="path11-9"
       d="M 10.332334,3.5254495e-7 C 4.5862444,3.5254495e-7 3.047525e-4,4.5859304 3.047525e-4,10.332031 l 0,235.335949 c 0,5.74609 4.5859386475,10.33203 10.3320292475,10.33203 l 235.335946,0 c 5.74609,0 10.33203,-4.58594 10.33203,-10.33203 l 0,-235.335948 C 256.00031,4.5859314 251.41437,3.4254395e-7 245.66828,3.4254395e-7 z"
       style="fill:url(#linearGradient3014)"
       inkscape:connector-curvature="0" />
    <path
       style="fill:#ffffff;fill-opacity:0.14900004"
       d="M 10.667969,0 C 4.757812,0 0,4.757812 0,10.667969 L 0,245.33203 C 0,251.24219 4.757812,256 10.667969,256 L 89.5,256 158,0 z"
       id="path19"
       inkscape:connector-curvature="0" />
    <g
       id="g4055">
      <g
         style="fill:#ffffff;fill-opacity:1;stroke:#ffffff;stroke-width:1.00049996;stroke-linejoin:round;stroke-miterlimit:4;stroke-opacity:1;stroke-dasharray:none"
         id="g3928"
         transform="matrix(0.55172413,0,0,0.55172413,37.627269,60.436389)">
        <path
           style="fill:#ffffff;fill-opacity:1;stroke:#ffffff;stroke-width:1.00049996;stroke-linejoin:round;stroke-miterlimit:4;stroke-opacity:1;stroke-dasharray:none"
           d="m 116.01961,-44.85347 c -42.653166,0 -60.750003,36.59415 -60.750003,53.6875 l 0,72.78125 c -28.975472,11.14226 -50.0625002,45.081 -50.0625002,85.25 0,49.23092 31.6619722,89.125 70.7187502,89.125 1.895366,0 3.767238,-0.0968 5.625,-0.28125 l 0,-177.6875 0,-1.96875 0,-68.03125 c 6.009218,-21.44174 16.831848,-27.34816 29.312503,-27.9375 l 0,73.21875 c 0,11.95991 12.40241,32.5625 31.75,32.5625 l 15.875,0 9.59375,0 15.90625,0 c 19.34759,0 31.71875,-20.60259 31.71875,-32.5625 l 0,-73.21875 c 12.48066,0.58934 23.33453,6.49576 29.34375,27.9375 l 0,68.21875 0,1.875 0,177.46875 c 2.18493,0.25624 4.38694,0.40625 6.625,0.40625 0.42093,0 0.83082,-0.022 1.25,-0.0312 -6.32587,5.16411 -13.05855,10.19042 -22.59375,14.1875 l -35.96875,0 c -2.14997,-8.08227 -13.88625,-14.25 -28.03125,-14.25 -15.67108,0 -28.375,7.58318 -28.375,16.9375 0,9.35432 12.70392,16.9375 28.375,16.9375 13.10781,0 24.11677,-5.32168 27.375,-12.53125 l 0,0.15625 39.5,0 c 13.26903,-6.15762 24.37024,-14.10959 33.75,-23.5 31.70892,-8.80321 55.4375,-44.41573 55.4375,-87.03125 0,-40.64063 -21.5923,-74.92767 -51.09375,-85.65625 l 0,-72.375 c 0,-17.09335 -18.06558,-53.6875 -60.71875,-53.6875 -17.41354,0 -20.625,8.40625 -20.625,8.40625 l 0,85.40625 c -2.43444,11.16268 -7.5,18.04933 -15.71875,19.8125 l -6.15625,0 -9.59375,0 -6.125,0 c -8.21875,-1.76317 -13.28431,-8.64982 -15.71875,-19.8125 l 0,-85.40625 c 0,0 -3.21146,-8.40625 -20.625,-8.40625 z"
           id="path3995"
           inkscape:connector-curvature="0" />
      </g>
      <g
         transform="matrix(0.64977643,0,0,1.1281101,24.325914,365.93453)"
         style="font-size:64px;font-style:normal;font-weight:normal;line-height:125%;letter-spacing:0px;word-spacing:0px;fill:#ffffff;fill-opacity:1;stroke:none;font-family:Sans"
         id="flowRoot3997">
        <path
           d="m 106.15625,-212.67922 14.21875,0 c 6.47914,5e-5 11.17705,0.92713 14.09375,2.78125 2.93746,1.83337 4.40621,4.76046 4.40625,8.78125 -4e-5,2.7292 -0.64587,4.96878 -1.9375,6.71875 -1.27087,1.75003 -2.96878,2.80211 -5.09375,3.15625 l 0,0.3125 c 2.8958,0.64586 4.97913,1.85419 6.25,3.625 1.29163,1.77085 1.93746,4.12502 1.9375,7.0625 -4e-5,4.16668 -1.51045,7.41667 -4.53125,9.75 -3.00003,2.33333 -7.08336,3.5 -12.25,3.5 l -17.09375,0 0,-45.6875 m 9.6875,18.09375 5.625,0 c 2.62498,3e-5 4.52081,-0.40622 5.6875,-1.21875 1.18747,-0.81247 1.78122,-2.15622 1.78125,-4.03125 -3e-5,-1.74997 -0.64586,-2.99996 -1.9375,-3.75 -1.27086,-0.7708 -3.29169,-1.15621 -6.0625,-1.15625 l -5.09375,0 0,10.15625 m 0,7.6875 0,11.90625 6.3125,0 c 2.66664,10e-6 4.63539,-0.51041 5.90625,-1.53125 1.2708,-1.02082 1.90622,-2.58332 1.90625,-4.6875 -3e-5,-3.79165 -2.70836,-5.68748 -8.125,-5.6875 l -6,0"
           style="font-weight:bold;fill:#ffffff;-inkscape-font-specification:Sans Bold"
           id="path4049" />
        <path
           d="m 149.15625,-166.99172 0,-45.6875 9.6875,0 0,37.6875 18.53125,0 0,8 -28.21875,0"
           style="font-weight:bold;fill:#ffffff;-inkscape-font-specification:Sans Bold"
           id="path4051" />
        <path
           d="m 211.59375,-166.99172 -26.3125,0 0,-45.6875 26.3125,0 0,7.9375 -16.625,0 0,10.03125 15.46875,0 0,7.9375 -15.46875,0 0,11.78125 16.625,0 0,8"
           style="font-weight:bold;fill:#ffffff;-inkscape-font-specification:Sans Bold"
           id="path4053" />
      </g>
    </g>
  </g>
</svg>
