<svg width="256" xmlns="http://www.w3.org/2000/svg" height="256" viewBox="0 0 256 256" xmlns:xlink="http://www.w3.org/1999/xlink">
<path style="fill:#fbaf3d" d="M 53.332031 58.667969 C 47.425781 58.667969 42.667969 63.425781 42.667969 69.332031 L 42.667969 186.667969 C 42.667969 192.574219 47.425781 197.332031 53.332031 197.332031 L 202.667969 197.332031 C 208.574219 197.332031 213.332031 192.574219 213.332031 186.667969 L 213.332031 69.332031 C 213.332031 63.425781 208.574219 58.667969 202.667969 58.667969 Z M 197.332031 64 C 200.277344 64 202.667969 66.386719 202.667969 69.332031 C 202.667969 72.277344 200.277344 74.667969 197.332031 74.667969 C 194.386719 74.667969 192 72.277344 192 69.332031 C 192 66.386719 194.386719 64 197.332031 64 Z M 64 80.332031 L 192 80.332031 C 197.910156 80.332031 202.667969 85.089844 202.667969 91 L 202.667969 176 C 202.667969 181.910156 197.910156 186.667969 192 186.667969 L 64 186.667969 C 58.089844 186.667969 53.332031 181.910156 53.332031 176 L 53.332031 91 C 53.332031 85.089844 58.089844 80.332031 64 80.332031 Z M 80.332031 85.332031 C 77.210938 85.664062 74.648438 88.527344 74.667969 91.667969 L 74.667969 153.332031 C 74.667969 156.683594 77.648438 159.667969 81 159.667969 L 106.667969 159.667969 L 106.667969 165.5 L 149.332031 165.5 L 149.332031 159.667969 L 175 159.667969 C 178.351562 159.667969 181.332031 156.683594 181.332031 153.332031 L 181.332031 91.667969 C 181.332031 88.316406 178.351562 85.332031 175 85.332031 Z M 88.832031 96.167969 C 89.097656 96.113281 89.402344 96.113281 89.667969 96.167969 L 166.332031 96.167969 C 168.566406 96.167969 170.667969 98.097656 170.667969 100.332031 L 170.667969 145 C 170.667969 147.234375 168.566406 149.167969 166.332031 149.167969 L 89.667969 149.167969 C 87.433594 149.167969 85.332031 147.234375 85.332031 145 L 85.332031 100.332031 C 85.296875 98.34375 86.878906 96.539062 88.832031 96.167969 Z M 96 170.5 L 96 181.332031 L 160 181.332031 L 160 170.5 Z "/>
</svg>
