<svg width="256" xmlns="http://www.w3.org/2000/svg" height="256" viewBox="0 0 256 256" xmlns:xlink="http://www.w3.org/1999/xlink">
<g style="fill:none;stroke:#eea254;stroke-linecap:round">
<path style="stroke-width:3.487" d="M 28.158367 27.54439 C 28.158367 37.376961 20.186631 45.348697 10.354059 45.348697 C 0.521487 45.348697 -7.450249 37.376961 -7.450249 27.54439 C -7.450249 17.711818 0.521487 9.740845 10.354059 9.740845 C 20.186631 9.740845 28.158367 17.711818 28.158367 27.54439 Z " transform="matrix(5.11573 0 0 5.11573 75.03143 -12.90966)"/>
<path style="stroke-width:22.267" d="M 127.324219 -128.035156 L 127.324219 -82.277344 L 168.949219 -40.652344 " transform="translate(0 208)"/>
<g style="stroke-width:3.884">
<path d="M 127.96875 -158.542969 L 127.96875 -146.40625 " transform="translate(0 208)"/>
<path d="M 127.96875 -13.070312 L 127.96875 -0.933594 " transform="translate(0 208)"/>
<path d="M 49.675781 -78.363281 L 61.8125 -78.363281 " transform="translate(0 208)"/>
<path d="M 193.425781 -78.363281 L 205.558594 -78.363281 " transform="translate(0 208)"/>
</g>
</g>
</svg>
