<svg width="256" xmlns="http://www.w3.org/2000/svg" height="256" viewBox="0 0 256 256" xmlns:xlink="http://www.w3.org/1999/xlink">
<defs>
<linearGradient gradientTransform="matrix(4.93056 0 0 5.33333 19.33333 -5356.5984)" id="linear0" y1="1053.158" y2="1004.847" gradientUnits="userSpaceOnUse" x2="0">
<stop offset="0" style="stop-color:#131313"/>
<stop offset="1" style="stop-color:#828282"/>
</linearGradient>
</defs>
<path style="fill:url(#linear0)" d="M 12 0 C 5.332031 0 0 5.332031 0 12 L 0 244 C 0 250.667969 5.332031 256 12 256 C 18.96875 256 21.929688 256.8125 23.167969 256 C 23.449219 256.027344 23.675781 256 24 256 L 245.667969 256 C 251.414062 256 256 251.414062 256 245.667969 L 256 10.332031 C 256 4.585938 251.414062 0 245.667969 0 L 23.667969 0 C 22.949219 0 22.34375 0.0273438 21.832031 0.167969 C 20.15625 -0.199219 17.210938 0 12 0 Z "/>
<path style="fill:#fff;fill-opacity:.149" d="M 0 0 L 0 256 L 89.5 256 L 158 0 Z "/>
<path style="fill:none;stroke:#fff;stroke-width:1.837" d="M 40.305082 24.223658 C 40.306427 33.35287 32.905672 40.754971 23.77646 40.754971 C 14.647247 40.754971 7.246492 33.35287 7.247838 24.223658 C 7.246492 15.093101 14.647247 7.691001 23.77646 7.691001 C 32.905672 7.691001 40.306427 15.093101 40.305082 24.223658 Z " transform="matrix(2.90405 0 0 2.90405 58.95189 46.69227)"/>
<path style="fill:#fff" d="M 128 79.4375 C 107.222656 79.4375 90.398438 96.261719 90.398438 117.039062 C 90.398438 137.8125 107.222656 154.640625 128 154.640625 C 148.777344 154.640625 165.601562 137.8125 165.601562 117.039062 C 165.601562 96.261719 148.777344 79.4375 128 79.4375 Z M 128 101.039062 C 136.835938 101.039062 144 108.203125 144 117.039062 C 144 125.875 136.835938 133.039062 128 133.039062 C 119.164062 133.039062 112 125.875 112 117.039062 C 112 108.203125 119.164062 101.039062 128 101.039062 Z "/>
<path style="fill:none;stroke:#fff;stroke-width:2" d="M 12.68335 1013.3622 L 35.31665 1013.3622 C 35.764893 1013.3622 36.128174 1013.724749 36.128174 1014.172991 L 36.128174 1042.550677 C 36.128174 1042.998919 35.764893 1043.3622 35.31665 1043.3622 L 12.68335 1043.3622 C 12.235107 1043.3622 11.871826 1042.998919 11.871826 1042.550677 L 11.871826 1014.172991 C 11.871826 1013.724749 12.235107 1013.3622 12.68335 1013.3622 Z " transform="matrix(5.33333 0 0 5.33333 0 -5356.5984)"/>
<g style="fill:#fff">
<path d="M 101.332031 181.332031 C 101.332031 187.222656 96.558594 192 90.667969 192 C 84.777344 192 80 187.222656 80 181.332031 C 80 175.441406 84.777344 170.667969 90.667969 170.667969 C 96.558594 170.667969 101.332031 175.441406 101.332031 181.332031 Z "/>
<path d="M 176 181.332031 C 176 187.222656 171.222656 192 165.332031 192 C 159.441406 192 154.667969 187.222656 154.667969 181.332031 C 154.667969 175.441406 159.441406 170.667969 165.332031 170.667969 C 171.222656 170.667969 176 175.441406 176 181.332031 Z "/>
</g>
</svg>
