<svg width="256" xmlns="http://www.w3.org/2000/svg" height="256" viewBox="0 0 256 256" xmlns:xlink="http://www.w3.org/1999/xlink">
<defs>
<linearGradient gradientTransform="matrix(5.33333 0 0 -5.33333 .00053 5612.59856)" id="linear0" y1="1053.158" y2="1004.847" gradientUnits="userSpaceOnUse" x2="0">
<stop offset="0" style="stop-color:#a87dd7"/>
<stop offset="1" style="stop-color:#401968"/>
</linearGradient>
</defs>
<path style="fill:url(#linear0)" d="M 10.375 256 L 245.628906 256 C 251.355469 256 256 251.355469 256 245.625 L 256 10.371094 C 256 4.644531 251.355469 0 245.628906 0 L 10.375 0 C 4.644531 0 0 4.644531 0 10.371094 L 0 245.625 C 0 251.355469 4.644531 256 10.375 256 Z "/>
<g style="fill:#fff">
<path style="fill-opacity:.149" d="M 0 0 L 0 256 L 89.5 256 L 158 0 Z "/>
<path d="M 128.09375 42.667969 C 117 42.667969 106.441406 44.824219 96.730469 48.671875 C 91.660156 45.769531 85.789062 44.003906 79.546875 44.003906 C 60.429688 44.003906 44.84375 59.585938 44.84375 78.703125 C 44.84375 84.753906 46.441406 90.421875 49.183594 95.386719 C 44.988281 105.472656 42.675781 116.488281 42.675781 128.085938 C 42.675781 175.171875 81.011719 213.335938 128.09375 213.335938 C 175.171875 213.335938 213.34375 175.164062 213.34375 128.085938 C 213.34375 114.007812 209.6875 100.902344 203.667969 89.214844 C 203.929688 87.359375 204.167969 85.464844 204.167969 83.539062 C 204.167969 61.21875 185.949219 43 163.628906 43 C 158.734375 43 154.128906 44.074219 149.78125 45.671875 C 149.726562 45.636719 149.660156 45.695312 149.617188 45.671875 C 149.441406 45.5625 149.328125 45.390625 149.113281 45.335938 C 142.40625 43.628906 135.394531 42.667969 128.09375 42.667969 Z M 163.628906 48.339844 C 183.0625 48.339844 198.828125 64.105469 198.828125 83.539062 C 198.828125 85.679688 198.695312 87.847656 198.328125 89.878906 C 194.464844 104.777344 181.078125 115.90625 164.960938 115.90625 C 145.824219 115.90625 130.261719 100.339844 130.261719 81.207031 C 130.261719 73.125 133.109375 65.855469 137.769531 60.019531 C 138.15625 59.585938 138.527344 59.097656 138.933594 58.683594 C 145.265625 52.308594 153.910156 48.339844 163.625 48.339844 Z M 79.546875 49.339844 C 84.703125 49.339844 89.515625 50.847656 93.726562 53.179688 C 93.921875 53.621094 94.28125 53.933594 94.726562 54.179688 C 96.925781 55.449219 98.929688 56.917969 100.734375 58.683594 C 102.113281 60.035156 103.308594 61.59375 104.402344 63.1875 C 107.226562 67.699219 108.90625 72.984375 108.90625 78.703125 C 108.90625 94.933594 95.777344 108.066406 79.546875 108.066406 C 72.445312 108.066406 65.933594 105.578125 60.859375 101.390625 C 60.253906 100.890625 59.589844 100.433594 59.023438 99.890625 C 58.972656 99.832031 58.914062 99.78125 58.859375 99.722656 C 58.804688 99.667969 58.746094 99.609375 58.695312 99.554688 C 57.050781 97.800781 55.699219 95.824219 54.523438 93.71875 C 54.382812 93.457031 54.242188 93.226562 54.019531 93.050781 C 53.894531 92.949219 53.835938 92.789062 53.683594 92.714844 C 51.425781 88.554688 50.179688 83.773438 50.179688 78.703125 C 50.179688 62.472656 63.3125 49.339844 79.542969 49.339844 Z "/>
<path d="M 100.945312 77.753906 C 100.945312 85.136719 94.964844 91.117188 87.582031 91.117188 C 80.203125 91.117188 74.21875 85.136719 74.21875 77.753906 C 74.21875 70.375 80.203125 64.394531 87.582031 64.394531 C 94.964844 64.394531 100.945312 70.375 100.945312 77.753906 Z "/>
<path d="M 186.046875 70.371094 C 186.046875 78.722656 179.277344 85.492188 170.925781 85.492188 C 162.574219 85.492188 155.804688 78.722656 155.804688 70.371094 C 155.804688 62.019531 162.574219 55.25 170.925781 55.25 C 179.277344 55.25 186.046875 62.019531 186.046875 70.371094 Z "/>
</g>
</svg>
