<svg width="256" xmlns="http://www.w3.org/2000/svg" height="256" viewBox="0 0 256 256" xmlns:xlink="http://www.w3.org/1999/xlink">
<path style="fill:#909ea9" d="M 59.71875 28 C 56.035156 28.386719 52.980469 31.820312 53 35.5 L 53 109.5625 L 35.03125 109.5625 C 34.789062 109.5625 34.492188 109.5625 34.25 109.5625 C 30.847656 109.949219 27.980469 113.382812 28 117.0625 L 28 201.511719 C 28 205.4375 31.378906 209.011719 35.03125 209.011719 L 53 209.011719 L 53 220.5 C 53 224.425781 56.546875 228 60.5 228 L 195.5 228 C 199.453125 228 203 224.425781 203 220.5 L 203 209.011719 L 220.96875 209.011719 C 224.621094 209.011719 228 205.4375 228 201.511719 L 228 117.0625 C 228 113.136719 224.621094 109.5625 220.96875 109.5625 L 203 109.5625 L 203 48.15625 C 198 43.0625 177.773438 32.988281 173 28 L 60.5 28 C 60.238281 28 59.980469 28 59.71875 28 Z M 65.5 40.5 L 159.25 40.5 L 159.25 65.5 L 190.5 65.5 L 190.5 109.25 L 65.5 109.25 Z M 40.5 115.5 L 215.5 115.5 L 215.5 165.5 L 40.5 165.5 Z M 209.25 178 C 212.011719 178 215.5 181.488281 215.5 184.25 C 215.5 187.011719 212.011719 190.5 209.25 190.5 C 206.488281 190.5 203 187.011719 203 184.25 C 203 181.488281 206.488281 178 209.25 178 Z M 65.5 171.75 L 190.5 171.75 L 190.5 215.5 L 65.5 215.5 Z "/>
</svg>
