<svg width="256" xmlns="http://www.w3.org/2000/svg" height="256" viewBox="0 0 256 256" xmlns:xlink="http://www.w3.org/1999/xlink">
<defs>
<linearGradient gradientTransform="matrix(5.33333 0 0 5.33333 0 -5356.5984)" id="linear0" y1="1053.158" y2="1004.847" gradientUnits="userSpaceOnUse" x2="0">
<stop offset="0" style="stop-color:#694242"/>
<stop offset="1" style="stop-color:#a83030"/>
</linearGradient>
</defs>
<path style="fill:url(#linear0)" d="M 4.726562 0 L 244.78125 0 C 250.996094 0 256 4.625 256 10.371094 L 256 245.628906 C 256 251.375 250.996094 256 244.78125 256 L 5.089844 256 C -1.125 256 0 251.375 0 245.628906 L 0 10.371094 C 0 4.625 -1.488281 0 4.726562 0 Z "/>
<path style="fill:#fff;fill-opacity:.149" d="M 0 0 L 0 256 L 89.5 256 L 158 0 Z "/>
<path style="fill:none;stroke:#fff;stroke-width:3.207" d="M 37.999899 22.500107 C 37.999899 31.06074 31.060729 37.99991 22.500096 37.99991 C 13.939463 37.99991 7.000293 31.06074 7.000293 22.500107 C 7.000293 13.939474 13.939463 7.000304 22.500096 7.000304 C 31.060729 7.000304 37.999899 13.939474 37.999899 22.500107 Z " transform="matrix(4.98923 0 0 4.98923 15.74192 15.74187)"/>
<g style="fill:#fff">
<path d="M 106.667969 80 L 106.667969 176 L 176 128 Z "/>
<path d="M 160 197.332031 L 160 106.667969 L 176 106.667969 L 176 192 Z "/>
</g>
</svg>
