<svg width="256" xmlns="http://www.w3.org/2000/svg" height="256" viewBox="0 0 256 256" xmlns:xlink="http://www.w3.org/1999/xlink">
<defs>
<linearGradient gradientTransform="matrix(5.33333 0 0 5.33333 0 -5356.5984)" id="linear0" y1="1050.362" y2="1003.362" gradientUnits="userSpaceOnUse" x2="0">
<stop offset="0" style="stop-color:#ce5b00"/>
<stop offset="1" style="stop-color:#ce7c00"/>
</linearGradient>
</defs>
<path style="fill:url(#linear0)" d="M 9.707031 0.664062 L 244.960938 0.664062 C 250.6875 0.664062 255.332031 5.308594 255.332031 11.039062 L 255.332031 246.292969 C 255.332031 252.019531 250.6875 256.664062 244.960938 256.664062 L 9.707031 256.664062 C 3.976562 256.664062 -0.667969 252.019531 -0.667969 246.292969 L -0.667969 11.039062 C -0.667969 5.308594 3.976562 0.664062 9.707031 0.664062 Z "/>
<g style="fill:#fff">
<path style="fill-opacity:.149" d="M 0 0 L 0 256 L 89.5 256 L 158 0 Z "/>
<path d="M 100.332031 42.667969 C 94.972656 42.667969 90.667969 46.972656 90.667969 52.332031 L 90.667969 182.332031 C 90.667969 187.695312 94.972656 192 100.332031 192 L 155.667969 192 C 161.027344 192 165.332031 187.695312 165.332031 182.332031 L 165.332031 52.332031 C 165.332031 46.972656 161.027344 42.667969 155.667969 42.667969 Z M 111 53.332031 L 145 53.332031 C 150.363281 53.332031 154.667969 57.636719 154.667969 63 L 154.667969 171.667969 C 154.667969 177.027344 150.363281 181.332031 145 181.332031 L 111 181.332031 C 105.636719 181.332031 101.332031 177.027344 101.332031 171.667969 L 101.332031 63 C 101.332031 57.636719 105.636719 53.332031 111 53.332031 Z "/>
<path d="M 101.332031 186.667969 L 101.332031 213.332031 L 154.667969 213.332031 L 154.667969 186.667969 Z M 106.667969 197.332031 L 117.332031 197.332031 L 117.332031 208 L 106.667969 208 Z M 138.667969 197.332031 L 149.332031 197.332031 L 149.332031 208 L 138.667969 208 Z "/>
<path d="M 117.332031 138.667969 L 138.667969 138.667969 L 138.667969 117.332031 L 149.332031 117.332031 L 128 96 L 106.667969 117.332031 L 117.332031 117.332031 Z "/>
</g>
</svg>
