<svg width="256" xmlns="http://www.w3.org/2000/svg" height="256" viewBox="0 0 256 256" xmlns:xlink="http://www.w3.org/1999/xlink">
<defs>
<linearGradient gradientTransform="matrix(5.33333 0 0 5.33333 0 -5356.5984)" id="linear0" y1="1053.158" y2="1004.847" gradientUnits="userSpaceOnUse" x2="0">
<stop offset="0" style="stop-color:#9e1e4c"/>
<stop offset="1" style="stop-color:#d23759"/>
</linearGradient>
</defs>
<path style="fill:url(#linear0)" d="M 10.375 0 L 245.625 0 C 251.355469 0 256 4.644531 256 10.371094 L 256 245.625 C 256 251.355469 251.355469 256 245.625 256 L 10.375 256 C 4.644531 256 0 251.355469 0 245.625 L 0 10.371094 C 0 4.644531 4.644531 0 10.375 0 Z "/>
<g style="fill:#fff">
<path style="fill-opacity:.149" d="M 0 0 L 0 256 L 89.5 256 L 158 0 Z "/>
<path d="M 183.097656 47.625 C 176.78125 47.734375 170.566406 52.003906 169.570312 59.957031 C 167.980469 72.6875 179.914062 67.914062 189.464844 67.914062 C 199.011719 67.914062 202.195312 88.601562 199.808594 99.742188 C 197.417969 110.878906 172.042969 137.191406 114.671875 110.878906 C 67.4375 89.21875 43.855469 118.0625 42.667969 118.636719 C 47.136719 161.675781 83.582031 208.347656 127.800781 208.347656 C 175.039062 208.347656 213.332031 156.925781 213.332031 109.6875 C 213.332031 104.261719 212.707031 98.917969 211.742188 93.773438 C 210.863281 91.171875 210 88.578125 209.355469 86.214844 C 208.199219 81.976562 206.894531 78.402344 205.773438 75.074219 C 205.726562 74.96875 205.824219 74.789062 205.773438 74.675781 C 201.253906 64.632812 194.914062 55.554688 187.078125 48.019531 C 187.042969 47.957031 186.914062 48.085938 186.878906 48.019531 C 185.652344 47.710938 184.363281 47.601562 183.097656 47.621094 Z "/>
<path d="M 169.96875 77.859375 C 169.96875 80.496094 167.832031 82.636719 165.195312 82.636719 C 162.558594 82.636719 160.421875 80.496094 160.421875 77.859375 C 160.421875 75.222656 162.558594 73.085938 165.195312 73.085938 C 167.832031 73.085938 169.96875 75.222656 169.96875 77.859375 Z "/>
<path d="M 160.421875 60.554688 C 160.421875 62.421875 158.910156 63.9375 157.039062 63.9375 C 155.171875 63.9375 153.660156 62.421875 153.660156 60.554688 C 153.660156 58.6875 155.171875 57.175781 157.039062 57.175781 C 158.910156 57.175781 160.421875 58.6875 160.421875 60.554688 Z "/>
</g>
</svg>
