<svg width="256" xmlns="http://www.w3.org/2000/svg" height="256" viewBox="0 0 256 256" xmlns:xlink="http://www.w3.org/1999/xlink">
<defs>
<linearGradient gradientTransform="matrix(5.33333 0 0 -5.33333 0 5612.5984)" id="linear0" y1="1004.658" y2="1052.039" gradientUnits="userSpaceOnUse" x2="0">
<stop offset="0" style="stop-color:#464745"/>
<stop offset="1" style="stop-color:#828680"/>
</linearGradient>
</defs>
<path style="fill:url(#linear0)" d="M 10.375 256 L 245.625 256 C 251.355469 256 256 251.355469 256 245.625 L 256 10.371094 C 256 4.644531 251.355469 0 245.625 0 L 10.375 0 C 4.644531 0 0 4.644531 0 10.371094 L 0 245.625 C 0 251.355469 4.644531 256 10.375 256 Z "/>
<g style="fill:#fff">
<path d="M 82.109375 192.230469 L 82.109375 103.113281 L 58.496094 117.789062 L 42.667969 88.296875 L 81.207031 64.347656 L 101.917969 63.925781 C 116.464844 72.527344 142.082031 71.21875 154.519531 63.925781 L 174.523438 63.710938 L 213.332031 86.976562 L 197.554688 116.390625 L 175.878906 102.921875 L 175.878906 192.289062 Z "/>
<path style="fill-opacity:.149" d="M 0 0 L 0 256 L 89.5 256 L 158 0 Z "/>
</g>
</svg>
