<?xml version="1.0" encoding="UTF-8" standalone="no"?>
<svg
   xmlns:dc="http://purl.org/dc/elements/1.1/"
   xmlns:cc="http://creativecommons.org/ns#"
   xmlns:rdf="http://www.w3.org/1999/02/22-rdf-syntax-ns#"
   xmlns:svg="http://www.w3.org/2000/svg"
   xmlns="http://www.w3.org/2000/svg"
   xmlns:sodipodi="http://sodipodi.sourceforge.net/DTD/sodipodi-0.dtd"
   xmlns:inkscape="http://www.inkscape.org/namespaces/inkscape"
   width="24"
   height="24"
   viewBox="0 0 24 24"
   id="svg2"
   version="1.1"
   inkscape:version="0.91 r"
   sodipodi:docname="applications-roleplaying.svg">
  <metadata
     id="metadata24">
    <rdf:RDF>
      <cc:Work
         rdf:about="">
        <dc:format>image/svg+xml</dc:format>
        <dc:type
           rdf:resource="http://purl.org/dc/dcmitype/StillImage" />
        <dc:title />
      </cc:Work>
    </rdf:RDF>
  </metadata>
  <defs
     id="defs22" />
  <sodipodi:namedview
     pagecolor="#ffffff"
     bordercolor="#666666"
     borderopacity="1"
     objecttolerance="10"
     gridtolerance="10"
     guidetolerance="10"
     inkscape:pageopacity="0"
     inkscape:pageshadow="2"
     inkscape:window-width="1680"
     inkscape:window-height="1026"
     id="namedview20"
     showgrid="false"
     inkscape:zoom="10.727273"
     inkscape:cx="16.64804"
     inkscape:cy="11"
     inkscape:window-x="0"
     inkscape:window-y="24"
     inkscape:window-maximized="1"
     inkscape:current-layer="svg2" />
  <g
     style="fill:#549ca4;stroke:#549ca4;stroke-width:4.54500008"
     id="g4"
     transform="translate(1.1137614,1.1157142)">
    <path
       d="m 69.173955,106.24127 c 1.607628,7.53289 2.526273,13.22849 1.194238,20.80731 -10.288822,8.35967 -36.607996,12.12611 -36.562064,20.76137 l -3.536782,25.99765 c 0,8.58933 24.527816,15.57103 54.797163,15.57103 30.26935,0 54.79716,-6.9817 54.79716,-15.57103 l -3.53678,-25.99765 c -0.0459,-7.39509 -26.5029,-12.12611 -36.653928,-20.76137 -0.872712,-7.02764 -0.183729,-13.82561 1.286098,-20.80731 z"
       transform="scale(0.08504,0.08504)"
       id="path6"
       inkscape:connector-curvature="0" />
    <path
       d="m 84.836849,57.553098 c -12.585434,0 -22.736459,9.783567 -22.736459,21.863746 0.09186,4.455428 0.459322,9.783568 3.031527,21.863746 1.515764,4.68509 15.019843,18.0973 15.111708,19.659 2.985595,1.51576 7.578819,1.51576 10.610347,0 0,-1.5617 12.126108,-14.97391 13.687808,-19.659 2.8478,-12.585433 2.8478,-17.178657 3.03153,-21.863746 0,-12.080179 -10.19696,-21.863746 -22.736461,-21.863746 z"
       transform="scale(0.08504,0.08504)"
       id="path8"
       inkscape:connector-curvature="0" />
    <g
       style="stroke-linejoin:round"
       id="g10">
      <path
         d="M 132.74418,71.194973 C 125.07349,66.647681 112.62585,34.954435 114.55501,48.458514 l 4.54729,31.785111 z"
         transform="scale(0.08504,0.08504)"
         id="path12"
         inkscape:connector-curvature="0" />
      <path
         d="m 177.98743,71.194973 c 7.71662,-4.547292 20.11832,-36.240538 18.18917,-22.736459 l -4.54729,31.785111 z"
         transform="scale(0.08504,0.08504)"
         id="path14"
         inkscape:connector-curvature="0" />
    </g>
    <path
       d="m 134.81113,107.57331 c 2.11288,9.87543 3.26119,17.36238 1.56169,27.23782 -13.22848,10.9778 -47.034612,15.93848 -46.988679,27.28375 l -4.547292,34.08172 c 0,11.29933 31.509521,20.43985 70.414121,20.43985 38.95054,0 70.50599,-9.14052 70.50599,-20.43985 l -4.59322,-34.08172 c -0.0459,-9.73764 -34.08172,-15.89256 -47.12648,-27.28375 -1.14831,-9.18645 -0.22966,-18.05137 1.69949,-27.23782 z"
       transform="scale(0.08504,0.08504)"
       id="path16"
       inkscape:connector-curvature="0" />
    <path
       d="m 155.25097,39.36393 c -18.78628,0 -34.08172,14.238995 -34.08172,31.831043 0.18373,6.476446 0.73492,14.238995 4.54729,31.785107 2.29661,6.84391 22.55273,25.03307 22.73646,27.28375 4.4095,2.29662 11.34527,2.29662 15.89256,0 0,-2.25068 18.18916,-20.43984 20.48578,-27.28375 4.31763,-18.281028 4.31763,-24.987135 4.54729,-31.785107 0,-17.592048 -15.29544,-31.831043 -34.12766,-31.831043 z"
       transform="scale(0.08504,0.08504)"
       id="path18"
       inkscape:connector-curvature="0" />
  </g>
</svg>
