<?xml version="1.0" encoding="UTF-8" standalone="no"?>
<svg
   xmlns:dc="http://purl.org/dc/elements/1.1/"
   xmlns:cc="http://creativecommons.org/ns#"
   xmlns:rdf="http://www.w3.org/1999/02/22-rdf-syntax-ns#"
   xmlns:svg="http://www.w3.org/2000/svg"
   xmlns="http://www.w3.org/2000/svg"
   xmlns:sodipodi="http://sodipodi.sourceforge.net/DTD/sodipodi-0.dtd"
   xmlns:inkscape="http://www.inkscape.org/namespaces/inkscape"
   width="24"
   height="24"
   viewBox="0 0 19.2 19.2"
   id="svg2"
   version="1.1"
   inkscape:version="0.91 r"
   sodipodi:docname="applications-science.svg">
  <metadata
     id="metadata34">
    <rdf:RDF>
      <cc:Work
         rdf:about="">
        <dc:format>image/svg+xml</dc:format>
        <dc:type
           rdf:resource="http://purl.org/dc/dcmitype/StillImage" />
        <dc:title />
      </cc:Work>
    </rdf:RDF>
  </metadata>
  <defs
     id="defs32" />
  <sodipodi:namedview
     pagecolor="#ffffff"
     bordercolor="#666666"
     borderopacity="1"
     objecttolerance="10"
     gridtolerance="10"
     guidetolerance="10"
     inkscape:pageopacity="0"
     inkscape:pageshadow="2"
     inkscape:window-width="1920"
     inkscape:window-height="1056"
     id="namedview30"
     showgrid="true"
     inkscape:zoom="11.313708"
     inkscape:cx="-0.93773943"
     inkscape:cy="32.464201"
     inkscape:window-x="0"
     inkscape:window-y="24"
     inkscape:window-maximized="1"
     inkscape:current-layer="svg2">
    <inkscape:grid
       type="xygrid"
       id="grid4235" />
  </sodipodi:namedview>
  <g
     id="g4213"
     transform="matrix(0.45833218,0,0,0.45833218,0.80010566,0.80099984)">
    <path
       style="color:#000000;font-style:normal;font-variant:normal;font-weight:normal;font-stretch:normal;font-size:medium;line-height:normal;font-family:sans-serif;text-indent:0;text-align:start;text-decoration:none;text-decoration-line:none;text-decoration-style:solid;text-decoration-color:#000000;letter-spacing:normal;word-spacing:normal;text-transform:none;direction:ltr;block-progression:tb;writing-mode:lr-tb;baseline-shift:baseline;text-anchor:start;white-space:normal;clip-rule:nonzero;display:inline;overflow:visible;visibility:visible;opacity:1;isolation:auto;mix-blend-mode:normal;color-interpolation:sRGB;color-interpolation-filters:linearRGB;solid-color:#000000;solid-opacity:1;fill:#5b93d7;fill-opacity:1;fill-rule:evenodd;stroke:none;stroke-width:1.12220645;stroke-linecap:butt;stroke-linejoin:miter;stroke-miterlimit:4;stroke-dasharray:none;stroke-dashoffset:0;stroke-opacity:1;color-rendering:auto;image-rendering:auto;shape-rendering:auto;text-rendering:auto;enable-background:accumulate"
       d="M 16.25,5.4160156 C 15.178163,5.4290621 14.484375,5.5 14.484375,5.5 L 14.3125,5.519531 14.167969,5.615234 c -0.293863,0.1959085 -0.448008,0.6352876 -0.416016,0.9082031 0.03199,0.2729155 0.132136,0.4432417 0.222656,0.5878906 0.08776,0.1402494 0.114862,0.153172 0.189453,0.2382813 l 0.154297,4.261719 -4.199218,16.486328 c -0.7798824,2.582295 -0.9647505,4.19867 -0.9355472,5.21875 0.014667,0.512319 0.084889,0.876139 0.1660156,1.132813 0.081127,0.256672 0.2304687,0.474609 0.2304687,0.474609 l 0.052734,0.06836 0.068359,0.05469 c 2.6188989,2.027758 5.6754609,2.304806 8.3710939,2.099609 -0.01516,-0.41589 0.0015,-0.873591 0.105468,-1.429687 -2.497436,0.204271 -5.217044,-0.01716 -7.496093,-1.720703 -0.03521,-0.116588 -0.08458,-0.330184 -0.0957,-0.71875 -0.02316,-0.808889 0.127569,-2.297782 0.886718,-4.802735 l 0.0039,-0.01563 4.25,-16.697265 -0.171874,-4.8359382 c 0.545997,-0.040555 1.824529,-0.035451 3.59375,0.1132813 l -0.453126,4.6171879 3.044922,14.082031 0.902344,-2.470703 -2.53125,-11.693359 0.433594,-4.3984382 c 0.09883,-0.1573212 0.318483,-0.2744501 0.33789,-0.4082031 0.04636,-0.3195254 -0.03125,-0.5761719 -0.03125,-0.5761719 L 20.732422,5.7519531 20.283203,5.6816406 C 18.772211,5.448791 17.321837,5.4029692 16.25,5.4160156 Z"
       transform="scale(0.8,0.8)"
       id="path8"
       inkscape:connector-curvature="0"
       sodipodi:nodetypes="sccccccccssccccccsccccccccccscccs" />
    <path
       style="fill:#adc3e2;fill-rule:evenodd"
       d="m 11.986328,28.5 -0.0039,0.02344 c -0.0049,0.01954 -0.0098,0.03418 -0.0098,0.04883 -0.751952,2.480468 -0.89453,3.936523 -0.875,4.693359 0.0098,0.27832 0.03418,0.439453 0.05859,0.546875 2.160125,1.538718 4.719741,1.704241 7.113281,1.484375 0.189391,-0.807657 0.514184,-1.755253 1.03711,-2.882813 l 1.417968,-3.890624 c -3.85519,1.739601 -6.771304,1.08833 -8.738281,-0.02344 z"
       transform="scale(0.8,0.8)"
       id="path12"
       inkscape:connector-curvature="0"
       sodipodi:nodetypes="ccccccccc" />
  </g>
  <path
     style="color:#000000;font-style:normal;font-variant:normal;font-weight:normal;font-stretch:normal;font-size:medium;line-height:normal;font-family:sans-serif;text-indent:0;text-align:start;text-decoration:none;text-decoration-line:none;text-decoration-style:solid;text-decoration-color:#000000;letter-spacing:normal;word-spacing:normal;text-transform:none;direction:ltr;block-progression:tb;writing-mode:lr-tb;baseline-shift:baseline;text-anchor:start;white-space:normal;clip-rule:nonzero;display:inline;overflow:visible;visibility:visible;opacity:1;isolation:auto;mix-blend-mode:normal;color-interpolation:sRGB;color-interpolation-filters:linearRGB;solid-color:#000000;solid-opacity:1;fill:#5b93d7;fill-opacity:1;fill-rule:evenodd;stroke:none;stroke-width:1.12220645;stroke-linecap:butt;stroke-linejoin:miter;stroke-miterlimit:4;stroke-dasharray:none;stroke-dashoffset:0;stroke-opacity:1;color-rendering:auto;image-rendering:auto;shape-rendering:auto;text-rendering:auto;enable-background:accumulate"
     d="m 10.582634,3.5894854 -0.128012,0.027752 -0.215738,0.4932443 0.161132,0.089519 c 0.0013,0.011027 0.0027,0.025066 0.0027,0.025066 l 0,0.00806 0.05102,1.4296027 0.009,0.029539 c 0.01474,0.051596 0.02077,0.050848 0.02686,0.057292 -3.29e-4,-0.00835 -0.05076,0.1039622 -0.102047,0.191566 -0.0546,0.093257 -0.105631,0.1745599 -0.105631,0.1745599 l -0.01522,0.023274 -2.387446,6.5473477 0.00898,-0.02059 c -0.4415498,0.944989 -0.5141525,1.558653 -0.4502755,1.96492 0.031936,0.203134 0.099014,0.352415 0.166503,0.452066 0.063542,0.09382 0.1382655,0.147767 0.1477052,0.154866 1.9898326,1.665484 4.5094183,1.132005 5.6718613,0.94531 1.330151,-0.213307 1.600582,-1.480628 1.600582,-1.480628 l 0.009,-0.04565 -0.0081,-0.04655 C 14.565586,11.984528 12.893185,5.7980934 12.868923,5.7083766 l 0.159343,-1.2908495 -9.16e-4,-0.02238 c -0.0058,-0.1181159 0.04209,-0.1566565 0.04209,-0.1566565 l 0.08862,-0.091309 -0.0188,-0.1262205 C 13.110697,3.8280995 12.949105,3.6940457 12.834012,3.6539375 12.719387,3.6139938 12.619983,3.6234263 12.619168,3.6234996 l -9.17e-4,0 C 11.2502,3.4694138 10.582634,3.5894826 10.582634,3.5894826 Z m 0.320474,0.5066721 c 0.105829,-0.019415 0.465764,-0.1079437 1.700843,0.039389 l 0.0081,8.708e-4 c -0.05123,0.095422 -0.106725,0.1145579 -0.09847,0.2837737 l 0.0017,-0.043863 -0.169189,1.3678351 0.01343,0.04834 c 0,0 1.684854,6.2527469 2.145747,8.8479599 -0.01071,0.0606 -0.163419,0.874557 -1.162839,1.034828 l -9.17e-4,0 c -1.198383,0.19247 -3.4857602,0.667035 -5.2716931,-0.837888 l -0.010743,-0.009 -0.011641,-0.0081 c 0,0 0.00862,0.01186 -0.017004,-0.02596 -0.025611,-0.03781 -0.064166,-0.110702 -0.085038,-0.24349 -0.041754,-0.265575 -0.00605,-0.78114 0.4082019,-1.667721 l 0.00541,-0.0098 2.3731222,-6.5088543 c 0.013,-0.020501 0.04773,-0.074727 0.09937,-0.1629229 0.06044,-0.103238 0.12213,-0.1891009 0.160237,-0.3303214 0.02931,-0.1086072 0.01518,-0.2177137 -0.01343,-0.290038 -0.0048,-0.011999 -0.0084,-0.016784 -0.01343,-0.026853 l -0.04833,-1.3311328 0,0.017008 c 0,0 -3.7e-5,-0.068333 -0.01343,-0.1441239 z"
     id="path14"
     inkscape:connector-curvature="0" />
  <path
     style="fill:#adc3e2;fill-rule:evenodd"
     inkscape:connector-curvature="0"
     id="path28"
     d="M 8.9084475,12.104635 8.6094577,12.92283 c -0.00357,0.01253 -0.00898,0.02507 -0.014327,0.03759 -0.4046214,0.864743 -0.4278962,1.346351 -0.3938792,1.562984 0.016115,0.105631 0.04476,0.150391 0.053707,0.162922 1.6865199,1.423337 3.8206295,0.972167 5.0398645,0.777017 0.739419,-0.118164 0.914874,-0.658852 0.952471,-0.819985 -0.105631,-0.590819 -0.275715,-1.371415 -0.472655,-2.223627 -2.191401,0.542479 -3.7901921,0.19873 -4.8661992,-0.315103 z" />
  <g
     id="g4209"
     transform="translate(3.5221849e-4,-19.197864)" />
</svg>
