<svg width="16" xmlns="http://www.w3.org/2000/svg" height="16" viewBox="0 0 16 16" xmlns:xlink="http://www.w3.org/1999/xlink">
<g style="fill:#909ea9">
<path d="M 3.273438 3.027344 L 10.742188 3.027344 C 11.0625 3.027344 11.320312 3.285156 11.320312 3.605469 L 11.320312 11.089844 C 11.320312 11.40625 11.0625 11.664062 10.742188 11.664062 L 3.273438 11.664062 C 2.953125 11.664062 2.695312 11.40625 2.695312 11.089844 L 2.695312 3.605469 C 2.695312 3.285156 2.953125 3.027344 3.273438 3.027344 Z "/>
<path d="M 12.976562 11.4375 L 12.960938 5.253906 L 13.164062 4.757812 L 13.324219 5.226562 L 13.332031 11.4375 Z "/>
<path d="M 13.050781 11.347656 C 13.046875 11.425781 13.066406 11.558594 13.082031 11.691406 C 13.097656 11.800781 13.097656 11.871094 13.105469 11.898438 C 13.078125 11.914062 13.054688 11.929688 13 11.953125 C 12.960938 11.96875 12.917969 11.984375 12.886719 11.992188 C 12.851562 12.003906 12.828125 12.003906 12.832031 12.003906 C 12.828125 12 12.824219 11.996094 12.8125 11.984375 C 12.792969 11.960938 12.761719 11.925781 12.730469 11.890625 C 12.667969 11.820312 12.589844 11.730469 12.5 11.660156 C 12.410156 11.589844 12.308594 11.53125 12.199219 11.535156 C 12.085938 11.539062 11.96875 11.621094 11.886719 11.773438 C 11.722656 12.074219 11.738281 12.273438 11.71875 12.390625 C 11.710938 12.449219 11.695312 12.476562 11.65625 12.503906 C 11.617188 12.53125 11.542969 12.558594 11.40625 12.578125 C 11.117188 12.621094 10.890625 12.703125 10.730469 12.710938 C 10.648438 12.71875 10.578125 12.707031 10.53125 12.671875 C 10.484375 12.636719 10.449219 12.570312 10.417969 12.453125 C 10.285156 11.96875 10.425781 11.617188 10.425781 11.617188 L 10.324219 11.578125 C 10.324219 11.578125 10.160156 11.964844 10.300781 12.484375 C 10.339844 12.617188 10.394531 12.710938 10.46875 12.765625 C 10.542969 12.820312 10.632812 12.832031 10.730469 12.828125 C 10.921875 12.816406 11.152344 12.734375 11.425781 12.691406 C 11.570312 12.671875 11.65625 12.632812 11.71875 12.585938 C 11.78125 12.539062 11.8125 12.480469 11.824219 12.410156 C 11.847656 12.273438 11.839844 12.105469 11.988281 11.828125 C 12.0625 11.695312 12.128906 11.652344 12.199219 11.648438 C 12.269531 11.648438 12.355469 11.679688 12.4375 11.742188 C 12.519531 11.808594 12.585938 11.894531 12.644531 11.960938 C 12.675781 11.996094 12.707031 12.03125 12.730469 12.054688 C 12.742188 12.070312 12.75 12.078125 12.761719 12.085938 C 12.769531 12.097656 12.777344 12.101562 12.800781 12.109375 C 12.847656 12.121094 12.875 12.109375 12.917969 12.097656 C 12.957031 12.085938 13 12.074219 13.042969 12.054688 C 13.125 12.023438 13.199219 11.984375 13.199219 11.984375 L 13.230469 11.960938 L 13.230469 11.921875 C 13.230469 11.921875 13.203125 11.8125 13.1875 11.679688 C 13.171875 11.550781 13.164062 11.394531 13.167969 11.347656 Z "/>
</g>
</svg>
