<svg width="63.75" xmlns="http://www.w3.org/2000/svg" height="63.75" viewBox="0 0 51 51" xmlns:xlink="http://www.w3.org/1999/xlink">
<g style="stroke-opacity:.298;stroke:#000;stroke-width:.5">
<path style="fill:#b28d6c" d="M 5.783088 37.988971 C 5.080882 37.915441 4.485294 37.216912 4.488971 36.470588 L 4.488971 7.794118 C 4.488971 7 5.169118 6.279412 5.919118 6.279412 L 41.257353 6.279412 C 42.007353 6.279412 42.691176 7 42.691176 7.794118 L 42.691176 33.808824 C 42.691176 34.602941 42.007353 35.323529 41.257353 35.327206 L 27.459559 35.327206 L 27.459559 36.470588 C 27.459559 37.264706 26.775735 37.985294 26.025735 37.988971 L 5.919118 37.988971 C 5.875 37.988971 5.827206 37.988971 5.783088 37.988971 Z " transform="scale(1.0625)"/>
<path style="fill:#dfb188" d="M 3.018382 10.018382 C 2.191176 10.091912 1.492647 10.786765 1.496324 11.533088 L 1.496324 40.202206 C 1.496324 40.992647 2.297794 41.716912 3.183824 41.716912 L 44.816176 41.716912 C 45.702206 41.716912 46.503676 40.992647 46.503676 40.202206 L 46.503676 14.194853 C 46.503676 13.400735 45.702206 12.680147 44.816176 12.680147 L 28.558824 12.680147 L 28.558824 11.533088 C 28.558824 10.742647 27.753676 10.018382 26.871324 10.018382 L 3.183824 10.018382 C 3.128676 10.018382 3.073529 10.018382 3.018382 10.018382 Z " transform="scale(1.0625)"/>
</g>
<path style="fill:#b28d6c" d="M 18.210938 26.253906 C 17.253906 26.253906 16.480469 27.015625 16.480469 27.957031 C 16.480469 28.898438 17.253906 29.664062 18.210938 29.664062 C 19.164062 29.664062 19.941406 28.898438 19.941406 27.957031 C 19.941406 27.015625 19.164062 26.253906 18.210938 26.253906 Z M 30.5625 34.003906 C 29.734375 34.476562 29.453125 35.519531 29.929688 36.335938 C 30.40625 37.148438 31.464844 37.429688 32.292969 36.957031 C 33.117188 36.488281 33.402344 35.445312 32.925781 34.628906 C 32.445312 33.8125 31.390625 33.535156 30.5625 34.003906 Z M 21.96875 27.957031 C 21.96875 26.273438 22.816406 24.785156 24.117188 23.882812 L 22.851562 21.792969 C 21.335938 22.789062 20.210938 24.316406 19.742188 26.101562 C 20.289062 26.539062 20.640625 27.207031 20.640625 27.957031 C 20.640625 28.707031 20.289062 29.375 19.742188 29.816406 C 20.210938 31.601562 21.335938 33.125 22.851562 34.125 L 24.117188 32.035156 C 22.816406 31.132812 21.96875 29.644531 21.96875 27.957031 Z M 27.019531 22.976562 C 29.660156 22.976562 31.828125 24.972656 32.054688 27.515625 L 34.519531 27.480469 C 34.398438 25.601562 33.566406 23.914062 32.285156 22.675781 C 31.628906 22.917969 30.867188 22.882812 30.210938 22.507812 C 29.554688 22.132812 29.140625 21.503906 29.027344 20.816406 C 28.390625 20.644531 27.71875 20.546875 27.019531 20.546875 C 25.824219 20.546875 24.695312 20.824219 23.691406 21.316406 L 24.890625 23.4375 C 25.539062 23.140625 26.261719 22.976562 27.019531 22.976562 Z M 27.019531 32.941406 C 26.261719 32.941406 25.539062 32.773438 24.890625 32.476562 L 23.691406 34.601562 C 24.695312 35.089844 25.824219 35.367188 27.019531 35.367188 C 27.71875 35.367188 28.390625 35.273438 29.027344 35.097656 C 29.140625 34.414062 29.554688 33.78125 30.210938 33.40625 C 30.871094 33.035156 31.628906 32.996094 32.285156 33.242188 C 33.566406 32 34.398438 30.316406 34.519531 28.4375 L 32.054688 28.398438 C 31.828125 30.945312 29.660156 32.941406 27.019531 32.941406 Z M 30.5625 21.910156 C 31.390625 22.382812 32.445312 22.101562 32.925781 21.289062 C 33.402344 20.472656 33.121094 19.429688 32.292969 18.957031 C 31.464844 18.488281 30.40625 18.765625 29.929688 19.582031 C 29.453125 20.398438 29.734375 21.441406 30.5625 21.910156 Z "/>
</svg>
