<svg width="63.75" xmlns="http://www.w3.org/2000/svg" height="63.75" viewBox="0 0 51 51" xmlns:xlink="http://www.w3.org/1999/xlink">
<g style="stroke-opacity:.298;stroke:#000;stroke-width:.5">
<path style="fill:#b28d6c" d="M 5.783088 37.988971 C 5.080882 37.915441 4.485294 37.216912 4.488971 36.470588 L 4.488971 7.794118 C 4.488971 7 5.169118 6.279412 5.919118 6.279412 L 41.257353 6.279412 C 42.007353 6.279412 42.691176 7 42.691176 7.794118 L 42.691176 33.808824 C 42.691176 34.602941 42.007353 35.323529 41.257353 35.327206 L 27.459559 35.327206 L 27.459559 36.470588 C 27.459559 37.264706 26.775735 37.985294 26.025735 37.988971 L 5.919118 37.988971 C 5.875 37.988971 5.827206 37.988971 5.783088 37.988971 Z " transform="scale(1.0625)"/>
<path style="fill:#dfb188" d="M 3.018382 10.018382 C 2.191176 10.091912 1.492647 10.786765 1.496324 11.533088 L 1.496324 40.202206 C 1.496324 40.992647 2.297794 41.716912 3.183824 41.716912 L 44.816176 41.716912 C 45.702206 41.716912 46.503676 40.992647 46.503676 40.202206 L 46.503676 14.194853 C 46.503676 13.400735 45.702206 12.680147 44.816176 12.680147 L 28.558824 12.680147 L 28.558824 11.533088 C 28.558824 10.742647 27.753676 10.018382 26.871324 10.018382 L 3.183824 10.018382 C 3.128676 10.018382 3.073529 10.018382 3.018382 10.018382 Z " transform="scale(1.0625)"/>
</g>
<g style="fill:#b28d6c">
<g>
<path d="M 18.175781 20.1875 C 17.582031 20.246094 17.066406 20.875 17.078125 21.546875 L 17.078125 35.859375 C 17.082031 36.5625 17.648438 37.199219 18.273438 37.1875 L 32.835938 37.1875 C 33.449219 37.175781 33.992188 36.550781 34 35.859375 L 34 21.546875 C 34.007812 20.84375 33.460938 20.195312 32.835938 20.1875 Z M 19.179688 22.3125 L 31.886719 22.3125 L 31.886719 32.9375 L 19.179688 32.9375 Z "/>
</g>
<g style="fill-rule:evenodd">
<path d="M 17.046875 31.273438 C 17.292969 31.09375 17.855469 30.5625 18.78125 29.644531 C 19.703125 28.722656 20.933594 27.457031 22.53125 25.796875 C 23.574219 27.28125 24.34375 28.351562 24.910156 29.054688 C 25.464844 29.75 25.773438 30.054688 25.847656 29.972656 C 26.4375 29.441406 26.933594 28.992188 27.363281 28.601562 C 27.785156 28.207031 28.109375 27.882812 28.371094 27.621094 C 29.667969 29.253906 30.746094 30.597656 31.6875 31.730469 C 32.617188 32.859375 33.351562 33.710938 33.921875 34.339844 L 30.390625 31.40625 C 30.097656 32.15625 29.621094 32.542969 28.949219 32.578125 C 28.253906 32.601562 27.199219 31.757812 26.351562 31.601562 C 25.5 31.445312 24.652344 31.925781 23.898438 31.667969 C 23.125 31.394531 22.53125 30.316406 21.804688 30.035156 C 21.078125 29.761719 20.34375 29.761719 19.570312 30.035156 C 18.730469 30.445312 17.890625 30.859375 17.046875 31.273438 Z "/>
<path d="M 17 30.714844 C 17.242188 30.527344 17.808594 30.003906 18.730469 29.082031 C 19.652344 28.15625 20.886719 26.894531 22.480469 25.230469 C 23.527344 26.714844 24.292969 27.792969 24.863281 28.496094 C 25.417969 29.195312 25.726562 29.488281 25.800781 29.40625 C 26.390625 28.878906 26.886719 28.429688 27.3125 28.039062 C 27.734375 27.644531 28.0625 27.320312 28.324219 27.058594 C 29.621094 28.691406 30.695312 30.035156 31.640625 31.171875 C 32.566406 32.296875 33.304688 33.152344 33.875 33.78125 L 30.34375 30.84375 C 30.050781 31.601562 29.574219 31.980469 28.898438 32.019531 C 28.210938 32.042969 27.15625 31.191406 26.304688 31.039062 C 25.453125 30.882812 24.609375 31.363281 23.851562 31.105469 C 23.085938 30.828125 22.484375 29.757812 21.761719 29.476562 C 21.03125 29.199219 20.300781 29.199219 19.523438 29.476562 C 18.683594 29.886719 17.84375 30.300781 17 30.714844 Z "/>
</g>
<g>
<path d="M 20.25 29.75 L 28.691406 29.75 C 29.863281 29.75 30.816406 30.703125 30.816406 31.875 L 30.816406 32.9375 C 30.816406 34.109375 29.863281 35.0625 28.691406 35.0625 L 20.25 35.0625 C 19.074219 35.0625 18.125 34.109375 18.125 32.9375 L 18.125 31.875 C 18.125 30.703125 19.074219 29.75 20.25 29.75 Z "/>
<path d="M 30.820312 31.875 L 31.871094 31.875 C 32.457031 31.875 32.933594 32.351562 32.933594 32.9375 C 32.933594 33.523438 32.457031 34 31.871094 34 L 30.820312 34 C 30.234375 34 29.757812 33.523438 29.757812 32.9375 C 29.757812 32.351562 30.234375 31.875 30.820312 31.875 Z "/>
<path d="M 29.789062 30.941406 L 30.84375 30.941406 C 31.136719 30.941406 31.375 31.179688 31.375 31.472656 L 31.375 32.535156 C 31.375 32.832031 31.136719 33.066406 30.84375 33.066406 L 29.789062 33.066406 C 29.496094 33.066406 29.257812 32.832031 29.257812 32.535156 L 29.257812 31.472656 C 29.257812 31.179688 29.496094 30.941406 29.789062 30.941406 Z "/>
</g>
</g>
</svg>
