<svg width="63.75" xmlns="http://www.w3.org/2000/svg" height="63.75" viewBox="0 0 51 51" xmlns:xlink="http://www.w3.org/1999/xlink">
<g style="stroke-opacity:.298;stroke:#000;stroke-width:.5">
<path style="fill:#b28d6c" d="M 5.783088 37.988971 C 5.080882 37.915441 4.485294 37.216912 4.488971 36.470588 L 4.488971 7.794118 C 4.488971 7 5.169118 6.279412 5.919118 6.279412 L 41.257353 6.279412 C 42.007353 6.279412 42.691176 7 42.691176 7.794118 L 42.691176 33.808824 C 42.691176 34.602941 42.007353 35.323529 41.257353 35.327206 L 27.459559 35.327206 L 27.459559 36.470588 C 27.459559 37.264706 26.775735 37.985294 26.025735 37.988971 L 5.919118 37.988971 C 5.875 37.988971 5.827206 37.988971 5.783088 37.988971 Z " transform="scale(1.0625)"/>
<path style="fill:#dfb188" d="M 3.018382 10.018382 C 2.191176 10.091912 1.492647 10.786765 1.496324 11.533088 L 1.496324 40.202206 C 1.496324 40.992647 2.297794 41.716912 3.183824 41.716912 L 44.816176 41.716912 C 45.702206 41.716912 46.503676 40.992647 46.503676 40.202206 L 46.503676 14.194853 C 46.503676 13.400735 45.702206 12.680147 44.816176 12.680147 L 28.558824 12.680147 L 28.558824 11.533088 C 28.558824 10.742647 27.753676 10.018382 26.871324 10.018382 L 3.183824 10.018382 C 3.128676 10.018382 3.073529 10.018382 3.018382 10.018382 Z " transform="scale(1.0625)"/>
</g>
</svg>
