<svg width="63.75" xmlns="http://www.w3.org/2000/svg" height="63.75" viewBox="0 0 51 51" xmlns:xlink="http://www.w3.org/1999/xlink">
<g style="stroke-opacity:.298;stroke:#000;stroke-width:.5">
<path style="fill:#b28d6c" d="M 5.783088 37.988971 C 5.080882 37.915441 4.485294 37.216912 4.488971 36.470588 L 4.488971 7.794118 C 4.488971 7 5.169118 6.279412 5.919118 6.279412 L 41.257353 6.279412 C 42.007353 6.279412 42.691176 7 42.691176 7.794118 L 42.691176 33.808824 C 42.691176 34.602941 42.007353 35.323529 41.257353 35.327206 L 27.459559 35.327206 L 27.459559 36.470588 C 27.459559 37.264706 26.775735 37.985294 26.025735 37.988971 L 5.919118 37.988971 C 5.875 37.988971 5.827206 37.988971 5.783088 37.988971 Z " transform="scale(1.0625)"/>
<path style="fill:#dfb188" d="M 3.018382 10.018382 C 2.191176 10.091912 1.492647 10.786765 1.496324 11.533088 L 1.496324 40.202206 C 1.496324 40.992647 2.297794 41.716912 3.183824 41.716912 L 44.816176 41.716912 C 45.702206 41.716912 46.503676 40.992647 46.503676 40.202206 L 46.503676 14.194853 C 46.503676 13.400735 45.702206 12.680147 44.816176 12.680147 L 28.558824 12.680147 L 28.558824 11.533088 C 28.558824 10.742647 27.753676 10.018382 26.871324 10.018382 L 3.183824 10.018382 C 3.128676 10.018382 3.073529 10.018382 3.018382 10.018382 Z " transform="scale(1.0625)"/>
</g>
<path style="fill:#b28d6c" d="M 18.0625 20.1875 L 18.0625 25.5 L 23.375 25.5 L 21.546875 23.671875 C 22.636719 22.820312 24.011719 22.3125 25.5 22.3125 C 29.019531 22.3125 31.875 25.167969 31.875 28.6875 C 31.875 32.207031 29.019531 35.0625 25.5 35.0625 C 21.980469 35.0625 19.125 32.207031 19.125 28.6875 C 19.125 27.941406 19.253906 27.226562 19.492188 26.5625 L 17.265625 26.5625 C 17.089844 27.238281 17 27.957031 17 28.6875 C 17 33.382812 20.804688 37.1875 25.5 37.1875 C 30.195312 37.1875 34 33.382812 34 28.6875 C 34 23.992188 30.195312 20.1875 25.5 20.1875 C 23.421875 20.1875 21.5 20.90625 20.023438 22.148438 Z M 25.398438 23.34375 C 25.355469 23.351562 25.3125 23.359375 25.265625 23.375 C 24.773438 23.484375 24.425781 23.929688 24.4375 24.4375 L 24.4375 28.355469 C 24.4375 28.386719 24.4375 28.421875 24.4375 28.453125 C 24.375 28.726562 24.421875 29.015625 24.570312 29.25 C 24.582031 29.261719 24.59375 29.273438 24.601562 29.285156 C 24.613281 29.308594 24.625 29.328125 24.636719 29.351562 C 24.648438 29.363281 24.660156 29.375 24.671875 29.382812 C 24.679688 29.394531 24.691406 29.40625 24.703125 29.417969 C 24.714844 29.429688 24.726562 29.441406 24.734375 29.453125 C 24.746094 29.460938 24.757812 29.472656 24.769531 29.484375 C 24.792969 29.496094 24.8125 29.507812 24.835938 29.515625 C 24.847656 29.527344 24.859375 29.539062 24.867188 29.550781 C 24.878906 29.5625 24.890625 29.574219 24.902344 29.585938 C 24.925781 29.597656 24.945312 29.605469 24.96875 29.617188 C 25.011719 29.640625 25.054688 29.664062 25.101562 29.683594 L 27.726562 31.210938 C 28.238281 31.503906 28.890625 31.324219 29.1875 30.8125 C 29.480469 30.300781 29.300781 29.644531 28.789062 29.351562 L 26.5625 28.054688 L 26.5625 24.4375 C 26.574219 24.132812 26.453125 23.835938 26.230469 23.625 C 26.007812 23.417969 25.703125 23.3125 25.398438 23.34375 Z "/>
</svg>
