<svg width="63.75" xmlns="http://www.w3.org/2000/svg" height="63.75" viewBox="0 0 51 51" xmlns:xlink="http://www.w3.org/1999/xlink">
<g style="stroke-opacity:.298;fill:#dfb188;stroke:#000;stroke-width:.5">
<path d="M 12.904412 22.970588 C 12.308824 23.003676 11.761029 23.301471 11.404412 23.779412 L 4.595588 32.529412 C 4.580882 32.540441 4.573529 32.551471 4.5625 32.5625 L 4.404412 32.779412 C 4.375 32.823529 4.341912 32.860294 4.3125 32.904412 C 4.264706 32.977941 4.224265 33.047794 4.1875 33.125 C 4.176471 33.147059 4.165441 33.165441 4.154412 33.1875 C 4.117647 33.290441 4.084559 33.393382 4.0625 33.5 C 4.047794 33.5625 4.040441 33.621324 4.029412 33.6875 C 4.022059 33.753676 4.003676 33.808824 4 33.875 C 4 33.886029 4 33.897059 4 33.904412 C 4 33.919118 4 33.926471 4 33.9375 C 3.988971 34.051471 3.988971 34.165441 4 34.279412 L 4 38.0625 C 4 39.139706 4.860294 40 5.9375 40 L 42.0625 40 C 43.139706 40 44 39.139706 44 38.0625 L 44 34.1875 C 44.003676 34.102941 44.003676 34.022059 44 33.9375 C 44 33.882353 44.003676 33.834559 44 33.779412 C 43.992647 33.709559 43.981618 33.636029 43.970588 33.5625 C 43.955882 33.5 43.926471 33.4375 43.904412 33.375 C 43.834559 33.161765 43.731618 32.959559 43.595588 32.779412 L 43.4375 32.5625 C 43.426471 32.551471 43.419118 32.540441 43.404412 32.529412 L 36.595588 23.779412 C 36.1875 23.227941 35.529412 22.922794 34.845588 22.970588 C 34.095588 23.014706 33.4375 23.470588 33.136029 24.154412 C 32.834559 24.841912 32.9375 25.636029 33.404412 26.220588 L 37.904412 32 L 10.095588 32 L 14.595588 26.220588 C 15.091912 25.599265 15.176471 24.746324 14.808824 24.044118 C 14.444853 23.338235 13.698529 22.919118 12.904412 22.970588 Z " transform="scale(1.0625)"/>
<path d="M 26 10 C 26 11.102941 25.102941 12 24 12 C 22.897059 12 22 11.102941 22 10 C 22 8.897059 22.897059 8 24 8 C 25.102941 8 26 8.897059 26 10 Z " transform="matrix(1.0625 0 0 1.0625 0 4.25)"/>
<path d="M 26 10 C 26 11.102941 25.102941 12 24 12 C 22.897059 12 22 11.102941 22 10 C 22 8.897059 22.897059 8 24 8 C 25.102941 8 26 8.897059 26 10 Z " transform="matrix(1.0625 0 0 1.0625 0 -1.0625)"/>
<path d="M 17.970588 15.970588 C 17.158088 15.974265 16.430147 16.470588 16.128676 17.224265 C 15.827206 17.981618 16.011029 18.841912 16.595588 19.404412 L 22.595588 25.404412 C 23.371324 26.176471 24.628676 26.176471 25.404412 25.404412 L 31.404412 19.404412 C 32.003676 18.926471 32.272059 18.147059 32.099265 17.400735 C 31.930147 16.654412 31.345588 16.069853 30.599265 15.900735 C 29.852941 15.727941 29.073529 15.996324 28.595588 16.595588 L 24 21.1875 L 19.404412 16.595588 C 19.033088 16.198529 18.514706 15.974265 17.970588 15.970588 Z " transform="scale(1.0625)"/>
</g>
</svg>
