<?xml version="1.0" encoding="UTF-8" standalone="no"?>
<svg
   xmlns:dc="http://purl.org/dc/elements/1.1/"
   xmlns:cc="http://creativecommons.org/ns#"
   xmlns:rdf="http://www.w3.org/1999/02/22-rdf-syntax-ns#"
   xmlns:svg="http://www.w3.org/2000/svg"
   xmlns="http://www.w3.org/2000/svg"
   xmlns:sodipodi="http://sodipodi.sourceforge.net/DTD/sodipodi-0.dtd"
   xmlns:inkscape="http://www.inkscape.org/namespaces/inkscape"
   viewBox="0 0 48 48"
   id="svg2"
   version="1.1"
   inkscape:version="0.91 r"
   sodipodi:docname="preferences-other.svg">
  <metadata
     id="metadata24">
    <rdf:RDF>
      <cc:Work
         rdf:about="">
        <dc:format>image/svg+xml</dc:format>
        <dc:type
           rdf:resource="http://purl.org/dc/dcmitype/StillImage" />
        <dc:title />
      </cc:Work>
    </rdf:RDF>
  </metadata>
  <defs
     id="defs22" />
  <sodipodi:namedview
     pagecolor="#ffffff"
     bordercolor="#666666"
     borderopacity="1"
     objecttolerance="10"
     gridtolerance="10"
     guidetolerance="10"
     inkscape:pageopacity="0"
     inkscape:pageshadow="2"
     inkscape:window-width="1680"
     inkscape:window-height="1026"
     id="namedview20"
     showgrid="true"
     inkscape:zoom="13.906433"
     inkscape:cx="21.666031"
     inkscape:cy="21.411083"
     inkscape:window-x="0"
     inkscape:window-y="24"
     inkscape:window-maximized="1"
     inkscape:current-layer="svg2">
    <inkscape:grid
       type="xygrid"
       id="grid4152" />
  </sodipodi:namedview>
  <rect
     style="fill:#cf9545"
     id="rect6"
     height="15"
     rx="0"
     y="24"
     x="13.000166"
     width="22" />
  <path
     style="fill:#cf9545"
     d="m 7.597166,28.053606 5.40278,-4.053656 0.88522,1.179395 L 8.482055,29.233 Z"
     id="rect8"
     inkscape:connector-curvature="0"
     sodipodi:nodetypes="ccccc" />
  <rect
     style="fill:#cf9545"
     id="rect10"
     transform="matrix(0.79988839,0.60014879,0.60014879,-0.79988839,0,0)"
     height="1.4744492"
     rx="0"
     y="0.33351082"
     x="42.399677"
     width="6.7544174" />
  <rect
     style="fill:#cf9545"
     id="rect12"
     transform="matrix(0.95334222,0.30189172,-0.30189172,0.95334222,0,0)"
     height="3.5159287"
     y="11.340939"
     x="19.907896"
     width="3.5159287" />
  <rect
     style="fill:#cf9545"
     id="rect14"
     transform="matrix(0.9598803,-0.28041009,0.28041009,0.9598803,0,0)"
     height="5.780282"
     y="15.228557"
     x="14.251587"
     width="5.780282" />
  <path
     style="fill:#cf9545"
     inkscape:connector-curvature="0"
     id="path16"
     d="M 28.782447,19.54974 27.12757,21.658 24.474325,21.278965 23.475957,18.79167 l 1.654877,-2.108261 2.653245,0.379035 z" />
  <path
     style="fill:#cf9545"
     inkscape:connector-curvature="0"
     id="path18"
     d="m 33.615143,14.338008 -1.69138,0.554057 -0.502451,1.707422 -1.049605,-1.437385 -1.77912,0.04976 1.042688,-1.44241 -0.597106,-1.676667 1.694022,0.545927 1.410089,-1.086001 0.0042,1.779812 z" />
</svg>
