<?xml version="1.0" encoding="UTF-8" standalone="no"?>
<svg
   xmlns:dc="http://purl.org/dc/elements/1.1/"
   xmlns:cc="http://creativecommons.org/ns#"
   xmlns:rdf="http://www.w3.org/1999/02/22-rdf-syntax-ns#"
   xmlns:svg="http://www.w3.org/2000/svg"
   xmlns="http://www.w3.org/2000/svg"
   xmlns:sodipodi="http://sodipodi.sourceforge.net/DTD/sodipodi-0.dtd"
   xmlns:inkscape="http://www.inkscape.org/namespaces/inkscape"
   width="48"
   height="48"
   viewBox="0 0 48 48"
   id="svg2"
   version="1.1"
   inkscape:version="0.91 r"
   sodipodi:docname="preferences-system-network-proxy.svg">
  <metadata
     id="metadata28">
    <rdf:RDF>
      <cc:Work
         rdf:about="">
        <dc:format>image/svg+xml</dc:format>
        <dc:type
           rdf:resource="http://purl.org/dc/dcmitype/StillImage" />
        <dc:title />
      </cc:Work>
    </rdf:RDF>
  </metadata>
  <defs
     id="defs26" />
  <sodipodi:namedview
     pagecolor="#ffffff"
     bordercolor="#666666"
     borderopacity="1"
     objecttolerance="10"
     gridtolerance="10"
     guidetolerance="10"
     inkscape:pageopacity="0"
     inkscape:pageshadow="2"
     inkscape:window-width="1920"
     inkscape:window-height="1056"
     id="namedview24"
     showgrid="true"
     inkscape:zoom="14.75"
     inkscape:cx="1.163497"
     inkscape:cy="19.671533"
     inkscape:window-x="0"
     inkscape:window-y="24"
     inkscape:window-maximized="1"
     inkscape:current-layer="svg2">
    <inkscape:grid
       type="xygrid"
       id="grid4156" />
  </sodipodi:namedview>
  <path
     style="fill:#e78684;fill-opacity:1"
     d="M 24 6 C 21.24177 6 18.636867 6.6399462 16.298828 7.7519531 L 16.132812 7.6914062 C 16.112114 7.7475696 16.094717 7.8050788 16.074219 7.8613281 C 10.115783 10.797705 6 16.916369 6 24 C 6 31.089213 10.121842 37.212842 16.087891 40.146484 C 16.11139 40.201186 16.130512 40.257943 16.154297 40.3125 L 16.300781 40.248047 C 18.638415 41.35958 21.242395 42 24 42 C 26.759156 42 29.364487 41.358803 31.703125 40.246094 L 31.851562 40.310547 C 31.875555 40.255438 31.894267 40.197835 31.917969 40.142578 C 37.880637 37.207721 42 31.086736 42 24 C 42 16.918545 37.887107 10.800722 31.931641 7.8632812 C 31.910965 7.8064544 31.893926 7.7481454 31.873047 7.6914062 L 31.703125 7.7539062 C 29.364487 6.6411972 26.759156 6 24 6 z M 23 8.0507812 L 23 15 L 25 15 L 25 8.0507812 C 26.883476 8.1669773 28.672043 8.6143265 30.320312 9.3242188 C 31.069254 11.500728 31.667453 13.736221 32.095703 16 L 30 16 L 30 18 L 32.429688 18 C 32.67194 19.664847 32.820217 21.335666 32.880859 23 L 30 23 L 30 25 L 32.908203 25 C 32.893907 26.686284 32.787952 28.357882 32.576172 30 L 30 30 L 30 32 L 32.267578 32 C 31.846048 34.311933 31.207518 36.543623 30.359375 38.660156 C 28.700441 39.378861 26.897965 39.832129 25 39.949219 L 25 33 L 23 33 L 23 39.949219 C 21.105083 39.832317 19.305179 39.380738 17.648438 38.664062 C 16.798188 36.546456 16.158843 34.313075 15.736328 32 L 18 32 L 18 30 L 15.425781 30 C 15.213692 28.358148 15.108086 26.685984 15.09375 25 L 18 25 L 18 23 L 15.121094 23 C 15.181826 21.335316 15.32952 19.665228 15.572266 18 L 18 18 L 18 16 L 15.90625 16 C 16.33532 13.735849 16.935101 11.499272 17.685547 9.3222656 C 19.332263 8.6137992 21.118676 8.1668445 23 8.0507812 z M 15.144531 10.701172 C 14.625539 12.443316 14.191712 14.21308 13.865234 16 L 10.158203 16 C 11.391807 13.872222 13.104824 12.061467 15.144531 10.701172 z M 32.863281 10.705078 C 34.899807 12.064846 36.609645 13.874727 37.841797 16 L 34.138672 16 C 33.812938 14.21469 33.380909 12.445744 32.863281 10.705078 z M 9.1621094 18 L 13.539062 18 C 13.30495 19.663866 13.16824 21.334453 13.109375 23 L 8.0488281 23 C 8.1575525 21.241251 8.5320071 19.55725 9.1621094 18 z M 34.462891 18 L 38.837891 18 C 39.467992 19.55725 39.842447 21.241251 39.951172 23 L 34.892578 23 C 34.833831 21.333939 34.696763 19.664396 34.462891 18 z M 8.0488281 25 L 13.082031 25 C 13.095586 26.682689 13.200502 28.352549 13.404297 30 L 9.1972656 30 C 8.5657792 28.439238 8.1577013 26.763194 8.0488281 25 z M 34.919922 25 L 39.951172 25 C 39.842299 26.763194 39.434221 28.439238 38.802734 30 L 34.597656 30 C 34.801181 28.352844 34.906331 26.682384 34.919922 25 z M 10.158203 32 L 13.703125 32 C 14.012499 33.774658 14.439714 35.512688 14.988281 37.199219 C 13.015047 35.851035 11.358496 34.07665 10.158203 32 z M 34.300781 32 L 37.841797 32 C 36.642412 34.075079 34.986883 35.847497 33.015625 37.195312 C 33.562984 35.509915 33.991982 33.773367 34.300781 32 z "
     id="path6" />
  <rect
     style="opacity:1;fill:none;fill-opacity:1;fill-rule:nonzero;stroke:#e78684;stroke-width:2;stroke-linecap:round;stroke-linejoin:miter;stroke-miterlimit:4;stroke-dasharray:none;stroke-dashoffset:0;stroke-opacity:1"
     id="rect4185"
     width="12"
     height="18"
     x="18"
     y="15"
     rx="0.088183403"
     ry="0.084290698" />
  <circle
     style="opacity:1;fill:#e78684;fill-opacity:1;fill-rule:nonzero;stroke:none;stroke-width:2;stroke-linecap:round;stroke-linejoin:miter;stroke-miterlimit:4;stroke-dasharray:none;stroke-dashoffset:0;stroke-opacity:1"
     id="path4203"
     cx="26"
     cy="24"
     r="1.5" />
</svg>
