<svg xmlns="http://www.w3.org/2000/svg" viewBox="0 0 24 24" xmlns:xlink="http://www.w3.org/1999/xlink">
<path style="opacity:.6;fill:#fff;stroke:#fff;stroke-width:2" d="m 12,5 c -3.8659932,0 -7,3.1340068 -7,7 0,3.524819 2.610031,6.41897 6,6.90625 l 0,-2 C 8.7215844,16.440019 7,14.416246 7,12 7,9.2385763 9.2385763,7 12,7 c 2.761424,0 5,2.2385763 5,5 0,1.638967 -0.809764,3.061012 -2.03125,3.96875 L 13,14 l 0,5 5,0 -1.59375,-1.59375 C 17.974342,16.120966 19,14.187108 19,12 19,8.1340068 15.865993,5 12,5 z"/>
<path style="opacity:.8" d="m 12,5 c -3.8659932,0 -7,3.1340068 -7,7 0,3.524819 2.610031,6.41897 6,6.90625 l 0,-2 0,-1.0625 C 9.2756909,15.399078 8,13.863188 8,12 8,9.790861 9.790861,8 12,8 c 2.209139,0 4,1.790861 4,4 0,1.365064 0.04417,2.281537 -1,3 l -2,-2 0,6 6,0 -2,-2 c 0.195798,-0.160486 -0.208441,0.08678 -0.03125,-0.09375 0.348726,-0.355295 0.670426,-0.764383 0.9375,-1.1875 0.140593,-0.222737 0.259721,-0.448721 0.375,-0.6875 0.12306,-0.249564 0.250909,-0.484751 0.34375,-0.75 0.07447,-0.218637 0.134566,-0.459757 0.1875,-0.6875 0.01449,-0.06114 0.0184,-0.125739 0.03125,-0.1875 0.03771,-0.184492 0.07079,-0.37306 0.09375,-0.5625 0.0013,-0.01032 -0.0012,-0.02092 0,-0.03125 C 18.968608,12.547798 19,12.273388 19,12 19,8.1340068 15.865993,5 12,5 z"/>
</svg>
