<svg xmlns="http://www.w3.org/2000/svg" viewBox="0 0 24 24" xmlns:xlink="http://www.w3.org/1999/xlink">
<defs>
<clipPath id="clipPath9796-2">
<rect width="17.919" x="111.3" y="89.936" rx="3.189" height="6.378" style="fill:url(#linearGradient9800);color:#000"/>
</clipPath>
<clipPath id="clipPath10731-4">
<path style="color:#000" d="m225.55 397.97h35.506c0.13661 0 0.24657 0.11972 0.24657 0.2685 4.1015 9.6068 2.9062 22.295 0 28.982 0 0.14878-0.10994 0.26851-0.24657 0.26851h-35.506c-0.13659 0-0.24656-0.11973-0.24656-0.26851-4.1457-8.194-4.0808-21.376 0-28.982 0-0.14878 0.10994-0.2685 0.24656-0.2685z"/>
</clipPath>
<filter width="1.056" x="-.028" y="-.115" height="1.229" style="color-interpolation-filters:sRGB" id="filter9723-0">
<feGaussianBlur stdDeviation=".14623"/>
</filter>
<filter width="1.028" x="-.014" y="-.223" height="1.445" style="color-interpolation-filters:sRGB" id="filter9103-2">
<feGaussianBlur stdDeviation="1.39181"/>
</filter>
<filter width="1.09" x="-.045" y="-.708" height="2.415" style="color-interpolation-filters:sRGB" id="filter9109-5">
<feGaussianBlur stdDeviation="4.42217"/>
</filter>
<linearGradient id="linearGradient9349-8">
<stop offset="0"/>
<stop offset="1" style="stop-opacity:0"/>
</linearGradient>
<linearGradient id="linearGradient9119-9">
<stop offset="0" style="stop-color:#fff"/>
<stop offset="1" style="stop-color:#fff;stop-opacity:0"/>
</linearGradient>
<linearGradient id="linearGradient9396-7-3">
<stop offset="0" style="stop-color:#cfcfcf"/>
<stop offset=".176" style="stop-color:#dfdfdf"/>
<stop offset=".264" style="stop-color:#b3b3b3"/>
<stop offset=".37" style="stop-color:#fff"/>
<stop offset=".475" style="stop-color:#f0f0f0"/>
<stop offset=".75" style="stop-color:#999"/>
<stop offset="1" style="stop-color:#d9d9d9"/>
</linearGradient>
<linearGradient id="linearGradient9800" y1="92.375" y2="95.25" x1="126.42" gradientUnits="userSpaceOnUse" x2="126.34">
<stop offset="0" style="stop-color:#949494"/>
<stop offset="1" style="stop-color:#f1f1f1"/>
</linearGradient>
<linearGradient gradientTransform="matrix(.37571 0 0 .30973 -29.922 -23.512)" id="linearGradient5627" x1="111.77" gradientUnits="userSpaceOnUse" x2="125.59">
<stop offset="0" style="stop-color:#bfbfbf"/>
<stop offset=".104" style="stop-color:#6e6e6e"/>
<stop offset=".351" style="stop-color:#f5f5f5"/>
<stop offset=".443" style="stop-color:#3b3b3b"/>
<stop offset=".501" style="stop-color:#8d8d8d"/>
<stop offset=".621" style="stop-color:#343434"/>
<stop offset=".772" style="stop-color:#c0c0c0"/>
<stop offset="1" style="stop-color:#505050"/>
</linearGradient>
<linearGradient id="linearGradient4796" xlink:href="#linearGradient9396-7-3" y1="224.42" y2="185" x1="181.96" gradientUnits="userSpaceOnUse" x2="249.38"/>
<linearGradient gradientTransform="matrix(.11451 0 0 .12471 -5.9102 -11.87)" id="linearGradient4720" x1="157.06" gradientUnits="userSpaceOnUse" x2="202.41">
<stop offset="0" style="stop-color:#67767d"/>
<stop offset=".175" style="stop-color:#eef0f1"/>
<stop offset=".826" style="stop-color:#f1f3f4"/>
<stop offset="1" style="stop-color:#89939d"/>
</linearGradient>
<linearGradient gradientTransform="matrix(.089 0 0 .10103 -1.3561 -6.6926)" id="linearGradient4725" x1="140" gradientUnits="userSpaceOnUse" x2="244">
<stop offset="0" style="stop-color:#ababab"/>
<stop offset=".363" style="stop-color:#fff"/>
<stop offset="1" style="stop-color:#52544e"/>
</linearGradient>
<linearGradient id="linearGradient4798" xlink:href="#linearGradient9349-8" y1="57.49" y2="62.195" gradientUnits="userSpaceOnUse" x2="0"/>
<linearGradient gradientTransform="matrix(.17854 0 0 .13865 -6.6287 -7.667)" id="linearGradient5586" x1="59.312" gradientUnits="userSpaceOnUse" x2="100.09">
<stop offset="0" style="stop-color:#bfbfbf"/>
<stop offset=".308"/>
<stop offset=".351" style="stop-color:#f5f5f5"/>
<stop offset=".443" style="stop-color:#3b3b3b"/>
<stop offset=".501" style="stop-color:#8d8d8d"/>
<stop offset=".667" style="stop-color:#343434"/>
<stop offset="1" style="stop-color:#8f8f8f"/>
</linearGradient>
<linearGradient gradientTransform="matrix(.37571 0 0 .37156 -29.734 -29.79)" id="linearGradient5609" y1="92.375" y2="95.25" x1="126.42" gradientUnits="userSpaceOnUse" x2="126.34">
<stop offset="0" style="stop-color:#949494"/>
<stop offset="1" style="stop-color:#f1f1f1"/>
</linearGradient>
<linearGradient gradientTransform="matrix(.37571 0 0 .37156 -29.734 -29.79)" id="linearGradient5606" x1="124.14" gradientUnits="userSpaceOnUse" x2="129.22">
<stop offset="0" style="stop-color:#555"/>
<stop offset="1" style="stop-color:#242424"/>
</linearGradient>
<linearGradient id="linearGradient4794" xlink:href="#linearGradient9396-7-3" y1="230.27" y2="160.24" x1="175.11" gradientUnits="userSpaceOnUse" x2="284.32"/>
<linearGradient id="linearGradient4800" y1="135.56" y2="207.78" gradientUnits="userSpaceOnUse" x2="0">
<stop offset="0" style="stop-color:#fff"/>
<stop offset="1" style="stop-color:#060606"/>
</linearGradient>
<linearGradient gradientTransform="matrix(.08315 0 0 .08935 -.46123 -2.7061)" id="linearGradient4727" y1="154.24" y2="238.73" x1="146.22" gradientUnits="userSpaceOnUse" x2="181.36">
<stop offset="0" style="stop-color:#e1e2e2"/>
<stop offset="1" style="stop-color:#181b1c"/>
</linearGradient>
<linearGradient id="linearGradient5582" x1="1" gradientUnits="userSpaceOnUse" x2="23">
<stop offset="0" style="stop-color:#939393"/>
<stop offset=".088" style="stop-color:#636363"/>
<stop offset=".927" style="stop-color:#515151"/>
<stop offset="1" style="stop-color:#9a9a9a"/>
</linearGradient>
<radialGradient cx="33.5" cy="164.25" gradientTransform="matrix(7.25 -.00005 .00112 5.9749 -264.63 -969.58)" id="radialGradient4695" xlink:href="#linearGradient9119-9" r="1" gradientUnits="userSpaceOnUse"/>
<radialGradient cx="79" cy="87.75" gradientTransform="matrix(1 0 0 .5 0 45.75)" id="radialGradient5646" xlink:href="#linearGradient9119-9" r="15" gradientUnits="userSpaceOnUse"/>
<radialGradient cx="77.988" cy="99.143" gradientTransform="matrix(1 0 0 .5 0 45.75)" id="radialGradient4770" r="15" gradientUnits="userSpaceOnUse">
<stop offset="0" style="stop-color:#eeeeec"/>
<stop offset="1" style="stop-color:#cdcdcd"/>
</radialGradient>
<radialGradient cx="171.25" cy="188.5" gradientTransform="matrix(1.2634 0 0 1.2634 -45.113 -49.657)" id="radialGradient4790" r="19" gradientUnits="userSpaceOnUse">
<stop offset="0" style="stop-color:#0052cb"/>
<stop offset="1" style="stop-color:#204a87;stop-opacity:0"/>
</radialGradient>
<radialGradient cx="171.86" cy="163.67" gradientTransform="matrix(.15025 -.0442 .05635 .22706 -20.95 -16.201)" id="radialGradient4751" r="106.11" gradientUnits="userSpaceOnUse">
<stop offset="0" style="stop-color:#f0f0f0"/>
<stop offset="1" style="stop-color:#a0a0a0"/>
</radialGradient>
<radialGradient cx="146.25" cy="95.75" gradientTransform="matrix(.23651 0 0 .00551 -22.607 4.9987)" id="radialGradient4745" xlink:href="#linearGradient9349-8" r="112.25" gradientUnits="userSpaceOnUse"/>
<radialGradient cx="33.5" cy="164.25" gradientTransform="matrix(7.5944 -.00005 .00118 5.9749 -257.08 -969.58)" id="radialGradient4698" xlink:href="#linearGradient9119-9" r="1" gradientUnits="userSpaceOnUse"/>
<radialGradient cx="160.5" cy="246.5" gradientTransform="matrix(.08901 0 0 .08554 -1.3353 -1.5594)" id="radialGradient4734" xlink:href="#linearGradient9119-9" r="88.5" gradientUnits="userSpaceOnUse"/>
</defs>
<g style="fill-rule:evenodd">
<rect width="235" x="29" y="236" rx="16.518" ry="7.5" height="15" style="opacity:.812;filter:url(#filter9103-2)" transform="matrix(.08546 0 0 .0595 -.51945 4.8343)"/>
<rect width="235" x="29" y="239" rx="16.518" ry="7.5" height="15" style="opacity:.305;filter:url(#filter9109-5)" transform="matrix(.09367 0 0 .13802 -1.7222 -13.522)"/>
</g>
<rect width="21" x="1.5" y="4.5" rx="1" height="16" style="fill:url(#radialGradient4751);stroke:url(#linearGradient5582)"/>
<rect width="19.983" x="1.991" y="4.908" rx="1.26" ry=".618" height="1.236" style="opacity:.327;fill:url(#radialGradient4745);fill-rule:evenodd"/>
<path style="opacity:.601;fill:url(#linearGradient4800)" d="m244 185a52 54 0 1 1 -104 0 52 54 0 1 1 104 0z" transform="matrix(.12299 0 0 .11938 -9.2101 -9.4775)"/>
<path style="fill:#fff" d="m22.103 5.4058s-0.36456 0.82025-0.66285 0.82025h-14.34c-0.75123 0.39372-1.5319 0.39372-2.3421 0h-2.2316c-0.3533-0.0164-0.5743-0.6562-0.5743-0.6562s0.27619 0.27889 0.75123 0.26248h1.9444c0.86907 0.78744 1.9186 0.78744 2.6404 0h14.019c0.54133 0.016407 0.79542-0.42653 0.79542-0.42653z"/>
<path style="opacity:.7;fill:none;stroke:url(#linearGradient4798);stroke-width:1.638" d="m315.81 59.875a5.2031 3.0938 0 1 1 -10.406 0 5.2031 3.0938 0 1 1 10.406 0z" transform="matrix(.76877 0 0 .48485 -231.21 -24.03)"/>
<g style="fill-rule:evenodd">
<rect width="15.755" x="5.074" y="19.054" height=".946" style="opacity:.5;fill:url(#radialGradient4734)"/>
<path style="fill:url(#linearGradient4796)" d="m244 185a52 54 0 1 1 -104 0 52 54 0 1 1 104 0z" transform="matrix(.10624 0 0 .10236 -5.7792 -6.1061)"/>
<path style="fill:url(#linearGradient4725);stroke:url(#linearGradient4727)" d="m14.619 8.8807c-2.2 0-4.0096 2.002-4.0096 4.4308l-0.04537 1.0715c0 2.4563 1.83 4.4225 4.055 4.4225s4.055-1.9662 4.055-4.4225l-0.04537-1.0715c0-2.4288-1.8096-4.4308-4.0096-4.4308z"/>
<path style="fill:url(#linearGradient4794)" d="m244 185a52 54 0 1 1 -104 0 52 54 0 1 1 104 0z" transform="matrix(.07339 0 0 .07352 .52753 .98684)"/>
<path style="fill:#999" d="m244 185a52 54 0 1 1 -104 0 52 54 0 1 1 104 0z" transform="matrix(.05504 0 0 .05514 4.0504 4.387)"/>
</g>
<path style="fill:url(#linearGradient4720)" d="m12.49 13h4.4179c0.017 0 0.03068 0.01622 0.03068 0.03638 0.51034 1.3018 0.36161 3.0211 0 3.9272 0 0.02016-0.01369 0.03638-0.03068 0.03638h-4.4179c-0.01699 0-0.03067-0.01622-0.03067-0.03638-0.51584-1.1103-0.50776-2.8965 0-3.9272 0-0.02015 0.01368-0.03638 0.03067-0.03638z"/>
<path d="m12.62 13h3.8543c0.01484 0 0.02677 0.01212 0.02677 0.0272 0.44522 0.97325 0.31547 2.2587 0 2.9361 0 0.01506-0.01194 0.0272-0.02677 0.0272h-3.8543c-0.01483 0-0.02676-0.01212-0.02676-0.0272-0.45003-0.83011-0.44298-2.1655 0-2.9361 0-0.01506 0.01193-0.0272 0.02676-0.0272z"/>
<path style="fill:none" d="m287.42 221a61.921 61.921 0 1 1 -123.84 0 61.921 61.921 0 1 1 123.84 0z" transform="matrix(-.06264 .05416 -.05264 -.06444 40.492 15.179)"/>
<path style="fill:#555" d="m252 118a7 7 0 1 1 -14 0 7 7 0 1 1 14 0z" transform="matrix(.16222 0 0 .16688 -20.001 -11.678)"/>
<path d="m252 118a7 7 0 1 1 -14 0 7 7 0 1 1 14 0z" transform="matrix(.16222 0 0 .16688 -20.001 -11.845)"/>
<path style="fill:#828282" d="m19.742 7.0644c-0.42103 0-0.7604 0.34912-0.7604 0.78224 0 0.067242 0.0099 0.13065 0.02535 0.19295 0.05649-0.23202 0.21005-0.42279 0.41569-0.5215-0.0082 0.029723-0.0152 0.061456-0.0152 0.093869 0 0.18886 0.15099 0.33897 0.33458 0.33897s0.33458-0.15011 0.33458-0.33897c0-0.032413-0.007-0.064146-0.0152-0.093869 0.20564 0.098709 0.35919 0.28947 0.41569 0.5215 0.01549-0.062299 0.02535-0.12571 0.02535-0.19295 0-0.43312-0.33937-0.78224-0.7604-0.78224h-0.000016z"/>
<g style="clip-path:url(#clipPath10731-4)" transform="matrix(.09381 0 0 .09919 -8.3386 -26.414)">
<path style="fill:url(#radialGradient4790);fill-rule:evenodd" d="m200 201a19 19 0 1 1 -38 0 19 19 0 1 1 38 0z" transform="translate(62.194 210.14)"/>
</g>
<rect width="1.048" x="-3" y="5.824" rx=".524" ry="1.954" height="11.95" style="opacity:.5;fill:url(#radialGradient4698)" transform="scale(-1 1)"/>
<rect width="1" x="-22.075" y="5.824" rx=".5" ry="1.954" height="11.95" style="opacity:.5;fill:url(#radialGradient4695)" transform="scale(-1 1)"/>
<path style="opacity:.577;fill:none;stroke:#2e3436;stroke-width:1.258" d="m331.06 72.53a6.2812 6.2812 0 0 1 5.3845 6.7409" transform="matrix(.76618 0 0 .82437 -238.17 -51.903)"/>
<path style="fill:url(#radialGradient4770)" d="m94 91.5a15 7.5 0 1 1 -30 0 15 7.5 0 1 1 30 0z" transform="matrix(.24266 0 0 .17955 -11.568 -11.207)"/>
<path style="opacity:.8;fill:url(#radialGradient5646)" d="m94 91.5a15 7.5 0 1 1 -30 0 15 7.5 0 1 1 30 0z" transform="matrix(.17854 0 0 .11878 -6.2026 -5.9761)"/>
<path style="fill:url(#linearGradient5586)" d="m4.0053 4.907c-0.028529 0.083976-0.044634 0.16802-0.044634 0.25564 0 0.59169 0.79194 1.1267 1.5828 1.3569 0.97074 0.70341 3.2942 0.58518 4.2786-0.035143 0.73862-0.26123 1.4195-0.78436 1.4195-1.3217 0-0.087578-0.01055-0.1717-0.03905-0.25564-0.2064 0.59831-1.1127 1.0882-2.321 1.2955v-0.00435c-0.5636-0.2719-2.0574-0.2845-2.5217 0.0173v-0.00435c-1.2251-0.2039-2.146-0.7004-2.3545-1.3042z"/>
<rect width="6.732" x="12.081" y="3.627" rx="1.057" height="2.37" style="fill:url(#linearGradient5609)"/>
<path style="fill:url(#linearGradient5606)" d="m13.284 3.627c-0.66371 0-1.2093 0.52796-1.2093 1.1844 0 0.070562 0.02337 0.1419 0.03519 0.209 0.09329-0.39763 0.57738-0.69668 1.1741-0.69668h4.3324c0.59706 0 1.0812 0.2987 1.1741 0.69668 0.01178-0.066991 0.02349-0.13857 0.02349-0.209 0-0.65639-0.53386-1.1844-1.1976-1.1844h-4.3324 0.000025z"/>
<path style="fill:url(#linearGradient5627)" d="m14.646 3c-0.37726 0-0.68097 0.27945-0.68097 0.6259 0 0.15113-0.2583 0.17266-0.2583 0.17266h-0.42267c-0.66372 0-1.2093 0.4577-1.2093 1.0252v0.15108c0 0.56748 0.5456 1.0252 1.2093 1.0252h2.7826c0.66372 0 1.1976-0.4577 1.1976-1.0252v-0.15108c0-0.56748-0.53386-1.0252-1.1976-1.0252h-0.38745s-0.35223 0-0.35223-0.17266c0-0.34675-0.30371-0.6259-0.68097-0.6259z"/>
<rect width=".517" x="14.13" y="3.173" rx=".128" ry=".118" height="1.683" style="fill:#fff"/>
<path style="fill:#191919;filter:url(#filter9723-0);clip-path:url(#clipPath9796-2)" d="m111.94 94.956s0.31125 1.4375 1.875 1.4375h8.0625c1.4375 0 2.5-1.3125 2.5-1.3125s-1.625 1.125-2.5625 1h-2c-0.875 0-0.5625-2.6875-1.5-2.75h-1.0625c-0.75 0.125-0.5 2.625-1.4375 2.5625h-2c-1 0.0625-1.875-0.9375-1.875-0.9375z" transform="matrix(.37571 0 0 .34532 -29.434 -27.282)"/>
</svg>
