<svg xmlns="http://www.w3.org/2000/svg" viewBox="0 0 24 24" xmlns:xlink="http://www.w3.org/1999/xlink">
<path style="opacity:.6;fill:#fff" d="M 20,12 A 8,8 0 1 1 4,12 8,8 0 1 1 20,12 z"/>
<path style="opacity:.8" d="M 11,9.0503294 11,13 l 2,1 2,0 0,-1 -2,-1 0,-2.9496706 z"/>
<path style="opacity:.8" d="m 12,5.0000002 c -3.8659933,0 -7,3.1340065 -7,6.9999998 0,3.865993 3.1340067,7 7,7 3.865993,0 7,-3.134007 7,-7 C 19,8.1340067 15.865993,5.0000002 12,5.0000002 z M 12,7.625 c 2.416246,0 4.375,1.9587549 4.375,4.375 0,2.416246 -1.958754,4.375 -4.375,4.375 C 9.5837549,16.375 7.625,14.416246 7.625,12 7.625,9.5837549 9.5837549,7.625 12,7.625 z"/>
</svg>
