<svg xmlns="http://www.w3.org/2000/svg" viewBox="0 0 32 32" xmlns:xlink="http://www.w3.org/1999/xlink">
<g style="fill:#2e3436">
<path style="stroke:#fff;stroke-width:2" d="m 2,4 0,8 4,0 0,-4 5,0 0,-4 -9,0 z m 19,0 0,4 5,0 0,4 4,0 0,-8 -9,0 z m -19,16 0,8 9,0 0,-4 -5,0 0,-4 -4,0 z m 24,0 0,4 -5,0 0,4 9,0 0,-8 -4,0 z"/>
<path d="M 2 4 L 2 12 L 6 12 L 6 8 L 11 8 L 11 4 L 2 4 z M 21 4 L 21 8 L 26 8 L 26 12 L 30 12 L 30 4 L 21 4 z M 2 20 L 2 28 L 11 28 L 11 24 L 6 24 L 6 20 L 2 20 z M 26 20 L 26 24 L 21 24 L 21 28 L 30 28 L 30 20 L 26 20 z "/>
</g>
</svg>
