<?xml version="1.0" encoding="UTF-8" standalone="no"?>
<svg
   xmlns:dc="http://purl.org/dc/elements/1.1/"
   xmlns:cc="http://creativecommons.org/ns#"
   xmlns:rdf="http://www.w3.org/1999/02/22-rdf-syntax-ns#"
   xmlns:svg="http://www.w3.org/2000/svg"
   xmlns="http://www.w3.org/2000/svg"
   xmlns:sodipodi="http://sodipodi.sourceforge.net/DTD/sodipodi-0.dtd"
   xmlns:inkscape="http://www.inkscape.org/namespaces/inkscape"
   width="22"
   viewBox="0 0 22 22"
   height="22"
   id="svg2"
   version="1.1"
   inkscape:version="0.48.4 r9939"
   sodipodi:docname="battery-000-charging.svg">
  <metadata
     id="metadata12">
    <rdf:RDF>
      <cc:Work
         rdf:about="">
        <dc:format>image/svg+xml</dc:format>
        <dc:type
           rdf:resource="http://purl.org/dc/dcmitype/StillImage" />
      </cc:Work>
    </rdf:RDF>
  </metadata>
  <defs
     id="defs10" />
  <sodipodi:namedview
     pagecolor="#ffffff"
     bordercolor="#666666"
     borderopacity="1"
     objecttolerance="10"
     gridtolerance="10"
     guidetolerance="10"
     inkscape:pageopacity="0"
     inkscape:pageshadow="2"
     inkscape:window-width="1366"
     inkscape:window-height="744"
     id="namedview8"
     showgrid="false"
     inkscape:zoom="24.178267"
     inkscape:cx="5.974826"
     inkscape:cy="11"
     inkscape:window-x="0"
     inkscape:window-y="24"
     inkscape:window-maximized="1"
     inkscape:current-layer="svg2" />
  <path
     d="m 21,9.5 -2.5,0 0,-2.5 -17.5,0 0,10 17.5,0 0,-2.5 2.5,0 0,-5 z m -3.75,4.166667 -6.25,-0.833334 0,2.5 -8.75,-5 6.25,0.833334 0,-2.5000003 8.75,5.0000003 z"
     id="path4"
     inkscape:connector-curvature="0"
     style="opacity:0.3" />
  <path
     d="m 21,8.5 -2.5,0 0,-2.5 -17.5,0 0,10 17.5,0 0,-2.5 2.5,0 0,-5 z m -3.75,4.166667 -6.25,-0.833334 0,2.5 -8.75,-5 6.25,0.833334 0,-2.5000003 8.75,5.0000003 z"
     id="path6"
     class="error"
     inkscape:connector-curvature="0"
     style="fill:#ef555c" />
</svg>
