<?xml version="1.0" encoding="UTF-8" standalone="no"?>
<svg
   xmlns:dc="http://purl.org/dc/elements/1.1/"
   xmlns:cc="http://creativecommons.org/ns#"
   xmlns:rdf="http://www.w3.org/1999/02/22-rdf-syntax-ns#"
   xmlns:svg="http://www.w3.org/2000/svg"
   xmlns="http://www.w3.org/2000/svg"
   xmlns:sodipodi="http://sodipodi.sourceforge.net/DTD/sodipodi-0.dtd"
   xmlns:inkscape="http://www.inkscape.org/namespaces/inkscape"
   width="22"
   viewBox="0 0 22 22"
   height="22"
   id="svg3067"
   version="1.1"
   inkscape:version="0.91 r"
   sodipodi:docname="new-messages-red.svg">
  <metadata
     id="metadata3077">
    <rdf:RDF>
      <cc:Work
         rdf:about="">
        <dc:format>image/svg+xml</dc:format>
        <dc:type
           rdf:resource="http://purl.org/dc/dcmitype/StillImage" />
      </cc:Work>
    </rdf:RDF>
  </metadata>
  <defs
     id="defs3075" />
  <sodipodi:namedview
     pagecolor="#ffffff"
     bordercolor="#666666"
     borderopacity="1"
     objecttolerance="10"
     gridtolerance="10"
     guidetolerance="10"
     inkscape:pageopacity="0"
     inkscape:pageshadow="2"
     inkscape:window-width="1280"
     inkscape:window-height="998"
     id="namedview3073"
     showgrid="false"
     inkscape:zoom="30.341309"
     inkscape:cx="10.100657"
     inkscape:cy="5.4180892"
     inkscape:window-x="0"
     inkscape:window-y="0"
     inkscape:window-maximized="1"
     inkscape:current-layer="svg3067" />
  <path
     d="M 3,16 18.999999,16 17,13 5,13 z m 5,1 c 0.4432112,1.158348 1.6119244,2 3,2 1.388076,0 2.556789,-0.841652 3,-2 L 8,17 z M 11.022979,3.0071978 C 8.7582861,2.8818939 6.5841328,4.4104953 5.7040373,6.1966719 5.1120695,7.444388 5.0846995,7.6407305 5.0396915,11.03345 L 5,14 17,14 17,11.313844 C 17,8.5231009 16.95648,7.985223 16.657381,7.0378522 16.344746,6.0476094 15.990242,5.4540201 15.228413,4.6479397 14.049239,3.3349702 12.304308,3.0105781 11.022979,3.0071978 z"
     fill="#55cdef"
     id="path3071"
     style="fill:#ef555c;fill-opacity:1" />
</svg>
