<?xml version="1.0" encoding="UTF-8" standalone="no"?>
<svg
   xmlns:dc="http://purl.org/dc/elements/1.1/"
   xmlns:cc="http://creativecommons.org/ns#"
   xmlns:rdf="http://www.w3.org/1999/02/22-rdf-syntax-ns#"
   xmlns:svg="http://www.w3.org/2000/svg"
   xmlns="http://www.w3.org/2000/svg"
   xmlns:xlink="http://www.w3.org/1999/xlink"
   xmlns:sodipodi="http://sodipodi.sourceforge.net/DTD/sodipodi-0.dtd"
   xmlns:inkscape="http://www.inkscape.org/namespaces/inkscape"
   width="22"
   viewBox="0 0 6.208889 6.208889"
   height="22"
   id="svg2"
   version="1.1"
   inkscape:version="0.91 r"
   sodipodi:docname="spotify-client.svg">
  <metadata
     id="metadata53">
    <rdf:RDF>
      <cc:Work
         rdf:about="">
        <dc:format>image/svg+xml</dc:format>
        <dc:type
           rdf:resource="http://purl.org/dc/dcmitype/StillImage" />
      </cc:Work>
    </rdf:RDF>
  </metadata>
  <sodipodi:namedview
     pagecolor="#ffffff"
     bordercolor="#666666"
     borderopacity="1"
     objecttolerance="10"
     gridtolerance="10"
     guidetolerance="10"
     inkscape:pageopacity="0"
     inkscape:pageshadow="2"
     inkscape:window-width="1366"
     inkscape:window-height="747"
     id="namedview51"
     showgrid="true"
     inkscape:zoom="13.92"
     inkscape:cx="-9.6903306"
     inkscape:cy="2.0578164"
     inkscape:window-x="0"
     inkscape:window-y="21"
     inkscape:window-maximized="1"
     inkscape:current-layer="svg2">
    <inkscape:grid
       type="xygrid"
       id="grid9949" />
  </sodipodi:namedview>
  <defs
     id="defs4">
    <clipPath
       id="clipPath198"
       clipPathUnits="userSpaceOnUse">
      <path
         d="m 3213.98,3344.37 c -15.44,0 -31.06,4.19 -45.1,12.98 -226.76,141.73 -488.58,216.65 -757.12,216.65 -149.2,0 -296.38,-22.94 -437.44,-68.2 -44.84,-14.35 -92.86,10.31 -107.25,55.16 -14.38,44.83 10.32,92.85 55.16,107.24 157.92,50.65 322.63,76.35 489.53,76.35 300.53,0 593.59,-83.89 847.49,-242.58 39.95,-24.97 52.07,-77.57 27.12,-117.51 -16.17,-25.86 -43.97,-40.09 -72.39,-40.09 z"
         id="path7"
         inkscape:connector-curvature="0" />
    </clipPath>
    <clipPath
       id="clipPath182"
       clipPathUnits="userSpaceOnUse">
      <path
         d="m 3369.85,3687.72 c -16.29,0 -32.8,4.21 -47.88,13.08 -274.98,161.5 -589.72,246.88 -910.21,246.88 -173.15,0 -344.61,-24.65 -509.62,-73.28 -50.25,-14.79 -102.87,13.93 -117.67,64.11 -14.77,50.2 13.93,102.88 64.12,117.66 182.42,53.74 371.89,80.99 563.17,80.99 354.19,0 702.15,-94.39 1006.18,-272.98 45.13,-26.5 60.22,-84.55 33.72,-129.68 -17.66,-30.05 -49.31,-46.78 -81.81,-46.78 z"
         id="path10"
         inkscape:connector-curvature="0" />
    </clipPath>
    <clipPath
       id="clipPath214"
       clipPathUnits="userSpaceOnUse">
      <path
         d="m 3058.65,3002.27 c -14.89,0 -29.94,4.4 -43.13,13.52 -178.01,123.45 -386.8,188.7 -603.76,188.7 -125.5,0 -248.31,-21.67 -365,-64.43 -39.31,-14.41 -82.83,5.8 -97.24,45.1 -14.4,39.32 5.78,82.85 45.1,97.25 133.45,48.9 273.8,73.67 417.14,73.67 247.98,0 486.64,-74.6 690.13,-215.72 34.42,-23.85 42.95,-71.06 19.12,-105.45 -14.73,-21.23 -38.35,-32.64 -62.36,-32.64 z"
         id="path13"
         inkscape:connector-curvature="0" />
    </clipPath>
    <linearGradient
       id="linearGradient4460">
      <stop
         offset="0"
         style="stop-color:#82b206"
         id="stop16" />
      <stop
         offset="1"
         style="stop-color:#b3d500"
         id="stop18" />
    </linearGradient>
    <linearGradient
       gradientTransform="matrix(1.09524,0,0,1.09524,-133.00183,-9.56867)"
       xlink:href="#linearGradient4460"
       id="linearGradient4500"
       y1="279.09601"
       y2="268.32999"
       gradientUnits="userSpaceOnUse"
       x2="0" />
    <clipPath
       id="clipPath9804">
      <path
         id="path9806"
         d="m 30.762 32.961 c -0.227 0 -0.461 -0.07 -0.664 -0.215 c -2.75 -1.961 -5.977 -2.996 -9.328 -2.996 c -1.938 0 -3.836 0.344 -5.637 1.023 c -0.609 0.227 -1.281 -0.094 -1.504 -0.719 c -0.223 -0.621 0.09 -1.313 0.695 -1.543 c 2.063 -0.773 4.23 -1.168 6.445 -1.168 c 3.832 0 7.52 1.184 10.66 3.426 c 0.535 0.375 0.664 1.125 0.297 1.672 c -0.227 0.336 -0.594 0.52 -0.965 0.52 m 0 0" />
    </clipPath>
    <clipPath
       id="clipPath9800">
      <path
         id="path9802"
         d="m 13 27 l 19 0 l 0 6 l -19 0 m 0 -6" />
    </clipPath>
    <clipPath
       id="clipPath9796">
      <path
         id="path9798"
         d="m 33.16 27.527 c -0.238 0 -0.48 -0.066 -0.699 -0.203 c -3.5 -2.25 -7.547 -3.441 -11.695 -3.441 c -2.305 0 -4.578 0.367 -6.758 1.082 c -0.691 0.23 -1.434 -0.16 -1.656 -0.875 c -0.223 -0.711 0.16 -1.473 0.852 -1.703 c 2.441 -0.801 4.984 -1.211 7.563 -1.211 c 4.645 0 9.172 1.332 13.09 3.852 c 0.617 0.395 0.805 1.23 0.418 1.867 c -0.25 0.41 -0.68 0.633 -1.117 0.633 m 0 0" />
    </clipPath>
    <clipPath
       id="clipPath9792">
      <path
         id="path9794"
         d="m 12 21 l 23 0 l 0 7 l -23 0 m 0 -7" />
    </clipPath>
    <clipPath
       id="clipPath9788">
      <path
         id="path9790"
         d="m 35.57 22.08 c -0.25 0 -0.508 -0.063 -0.738 -0.207 c -4.25 -2.563 -9.109 -3.918 -14.06 -3.918 c -2.676 0 -5.324 0.398 -7.871 1.164 c -0.777 0.234 -1.59 -0.223 -1.82 -1.02 c -0.227 -0.797 0.215 -1.633 0.992 -1.867 c 2.816 -0.852 5.746 -1.285 8.699 -1.285 c 5.473 0 10.848 1.496 15.543 4.332 c 0.699 0.422 0.934 1.344 0.523 2.066 c -0.273 0.477 -0.77 0.734 -1.273 0.734 m 0 0" />
    </clipPath>
    <clipPath
       id="clipPath9784">
      <path
         id="path9786"
         d="m 11 14 l 27 0 l 0 9 l -27 0 m 0 -9" />
    </clipPath>
    <clipPath
       id="clip6">
      <path
         id="path9782"
         d="m 30.762 32.961 c -0.227 0 -0.461 -0.07 -0.664 -0.215 c -2.75 -1.961 -5.977 -2.996 -9.328 -2.996 c -1.938 0 -3.836 0.344 -5.637 1.023 c -0.609 0.227 -1.281 -0.094 -1.504 -0.719 c -0.223 -0.621 0.09 -1.313 0.695 -1.543 c 2.063 -0.773 4.23 -1.168 6.445 -1.168 c 3.832 0 7.52 1.184 10.66 3.426 c 0.535 0.375 0.664 1.125 0.297 1.672 c -0.227 0.336 -0.594 0.52 -0.965 0.52 m 0 0" />
    </clipPath>
    <clipPath
       id="clip5">
      <path
         id="path9779"
         d="m 13 27 l 19 0 l 0 6 l -19 0 m 0 -6" />
    </clipPath>
    <clipPath
       id="clip4">
      <path
         id="path9776"
         d="m 33.16 27.527 c -0.238 0 -0.48 -0.066 -0.699 -0.203 c -3.5 -2.25 -7.547 -3.441 -11.695 -3.441 c -2.305 0 -4.578 0.367 -6.758 1.082 c -0.691 0.23 -1.434 -0.16 -1.656 -0.875 c -0.223 -0.711 0.16 -1.473 0.852 -1.703 c 2.441 -0.801 4.984 -1.211 7.563 -1.211 c 4.645 0 9.172 1.332 13.09 3.852 c 0.617 0.395 0.805 1.23 0.418 1.867 c -0.25 0.41 -0.68 0.633 -1.117 0.633 m 0 0" />
    </clipPath>
    <clipPath
       id="clip3">
      <path
         id="path9773"
         d="m 12 21 l 23 0 l 0 7 l -23 0 m 0 -7" />
    </clipPath>
    <clipPath
       id="clip2">
      <path
         id="path9770"
         d="m 35.57 22.08 c -0.25 0 -0.508 -0.063 -0.738 -0.207 c -4.25 -2.563 -9.109 -3.918 -14.06 -3.918 c -2.676 0 -5.324 0.398 -7.871 1.164 c -0.777 0.234 -1.59 -0.223 -1.82 -1.02 c -0.227 -0.797 0.215 -1.633 0.992 -1.867 c 2.816 -0.852 5.746 -1.285 8.699 -1.285 c 5.473 0 10.848 1.496 15.543 4.332 c 0.699 0.422 0.934 1.344 0.523 2.066 c -0.273 0.477 -0.77 0.734 -1.273 0.734 m 0 0" />
    </clipPath>
    <clipPath
       id="clip1">
      <path
         id="path9767"
         d="m 11 14 l 27 0 l 0 9 l -27 0 m 0 -9" />
    </clipPath>
    <clipPath
       id="clipPath-375834240">
      <g
         id="g9762"
         transform="translate(0,-1004.3622)">
        <path
           id="path9764"
           fill="#1890d0"
           transform="matrix(15.333333,0,0,11.5,414.99999,878.8622)"
           d="m -24 13 c 0 1.105 -0.672 2 -1.5 2 -0.828 0 -1.5 -0.895 -1.5 -2 0 -1.105 0.672 -2 1.5 -2 0.828 0 1.5 0.895 1.5 2 z" />
      </g>
    </clipPath>
    <clipPath
       id="clipPath-363610498">
      <g
         id="g9757"
         transform="translate(0,-1004.3622)">
        <path
           id="path9759"
           fill="#1890d0"
           transform="matrix(15.333333,0,0,11.5,414.99999,878.8622)"
           d="m -24 13 c 0 1.105 -0.672 2 -1.5 2 -0.828 0 -1.5 -0.895 -1.5 -2 0 -1.105 0.672 -2 1.5 -2 0.828 0 1.5 0.895 1.5 2 z" />
      </g>
    </clipPath>
    <linearGradient
       gradientTransform="matrix(0,-1,1,0,-1.5e-6,47.999998)"
       gradientUnits="userSpaceOnUse"
       x2="47"
       x1="1"
       id="linearGradient3764">
      <stop
         id="stop9752"
         stop-opacity="1"
         stop-color="#99b901" />
      <stop
         id="stop9754"
         stop-opacity="1"
         stop-color="#a8cd01"
         offset="1" />
    </linearGradient>
    <linearGradient
       inkscape:collect="always"
       xlink:href="#linearGradient3764"
       id="linearGradient10019"
       gradientUnits="userSpaceOnUse"
       gradientTransform="matrix(0,-0.09079101,0.09079101,0,12.134682,6.0180121)"
       x1="1"
       x2="47" />
    <clipPath
       id="clipPath3266">
      <path
         id="path3268"
         d="m 0,155.906 155.906,0 L 155.906,0 0,0 0,155.906 z" />
    </clipPath>
  </defs>
  <path
     style="fill:#ececec;fill-opacity:1;fill-rule:evenodd"
     d="M 11 3 C 6.5679998 3 3 6.5679998 3 11 C 3 15.432 6.5679998 19 11 19 C 15.432 19 19 15.432 19 11 C 19 6.5679998 15.432 3 11 3 z M 8.875 7.90625 C 11.249109 7.8358516 14.08711 8.3645658 16 9.65625 C 16.305873 9.8636996 16.39363 10.287107 16.1875 10.59375 C 15.981409 10.899707 15.585854 10.987258 15.28125 10.78125 C 13.064222 9.2844388 9.2601779 8.9609287 7.03125 9.5 C 6.6714573 9.586203 6.3043481 9.3583906 6.21875 9 C 6.1317501 8.6422054 6.3603179 8.3050306 6.71875 8.21875 C 7.3590114 8.0640758 8.0836304 7.9297163 8.875 7.90625 z M 9.03125 10.40625 C 11.139736 10.367521 13.347602 10.953846 14.9375 12.0625 C 15.189251 12.23883 15.236787 12.560638 15.0625 12.8125 C 14.88549 13.064202 14.563681 13.174256 14.3125 13 C 12.466866 11.710366 9.5223014 11.163548 7.21875 11.71875 C 6.9197856 11.791432 6.6351945 11.611467 6.5625 11.3125 C 6.4904954 11.013576 6.6705417 10.727612 6.96875 10.65625 C 7.6269877 10.497503 8.3284216 10.419148 9.03125 10.40625 z M 9.09375 12.71875 C 10.988425 12.695674 12.610221 13.182282 13.96875 14.125 C 14.171513 14.263692 14.201197 14.515993 14.0625 14.71875 C 13.921807 14.920701 13.66939 14.983679 13.46875 14.84375 C 11.855419 13.724521 9.7308569 13.35893 7.21875 13.78125 C 6.9769572 13.821088 6.7585768 13.648718 6.71875 13.40625 C 6.6782252 13.164419 6.851239 12.946711 7.09375 12.90625 C 7.7808748 12.790462 8.4621917 12.726439 9.09375 12.71875 z "
     transform="scale(0.28222223,0.28222223)"
     id="rect31" />
</svg>
