<?xml version="1.0" encoding="UTF-8" standalone="no"?>
<!-- Created with Inkscape (http://www.inkscape.org/) -->

<svg
   xmlns:dc="http://purl.org/dc/elements/1.1/"
   xmlns:cc="http://creativecommons.org/ns#"
   xmlns:rdf="http://www.w3.org/1999/02/22-rdf-syntax-ns#"
   xmlns:svg="http://www.w3.org/2000/svg"
   xmlns="http://www.w3.org/2000/svg"
   xmlns:sodipodi="http://sodipodi.sourceforge.net/DTD/sodipodi-0.dtd"
   xmlns:inkscape="http://www.inkscape.org/namespaces/inkscape"
   id="svg9065"
   version="1.1"
   inkscape:version="0.48.4 r9939"
   width="22"
   height="22"
   sodipodi:docname="state-ok.svg">
  <metadata
     id="metadata9071">
    <rdf:RDF>
      <cc:Work
         rdf:about="">
        <dc:format>image/svg+xml</dc:format>
        <dc:type
           rdf:resource="http://purl.org/dc/dcmitype/StillImage" />
        <dc:title />
      </cc:Work>
    </rdf:RDF>
  </metadata>
  <defs
     id="defs9069" />
  <sodipodi:namedview
     pagecolor="#ffffff"
     bordercolor="#666666"
     borderopacity="1"
     objecttolerance="10"
     gridtolerance="10"
     guidetolerance="10"
     inkscape:pageopacity="0"
     inkscape:pageshadow="2"
     inkscape:window-width="1280"
     inkscape:window-height="998"
     id="namedview9067"
     showgrid="true"
     inkscape:zoom="8"
     inkscape:cx="13.889113"
     inkscape:cy="-0.0030789295"
     inkscape:window-x="0"
     inkscape:window-y="0"
     inkscape:window-maximized="1"
     inkscape:current-layer="svg9065"
     showguides="true"
     inkscape:guide-bbox="true">
    <inkscape:grid
       type="xygrid"
       id="grid3065" />
  </sodipodi:namedview>
  <path
     style="fill:#000000;fill-opacity:0.30196078;stroke:none"
     d="m 10.1875,5.000203 c -0.9674046,0 -1.788432,0.5886096 -2.1875002,1.4375 -0.2302276,-0.1950819 -0.5240391,-0.3125 -0.84375,-0.3125 -0.7394262,0 -1.34375,0.6348171 -1.34375,1.40625 0,0.2987722 0.096865,0.5853905 0.25,0.8125 -0.5177565,0.3443344 -0.9036631,0.8776712 -1.09375,1.5 -0.092251,-0.010984 -0.1861814,-0.03125 -0.28125,-0.03125 -1.3544025,0 -2.4375,1.149471 -2.4375,2.5625 0,1.413029 1.0830975,2.5625 2.4375,2.5625 0.2525628,0 0.4885487,-0.0497 0.71875,-0.125 l 1.125,-1.09375 c 0.3612972,-0.373423 0.9199528,-0.373423 1.28125,0 l 0.625,0.625 c 0.082958,-0.124157 0.1417664,-0.259703 0.1875,-0.40625 0.4341268,0.441546 0.9781411,0.758762 1.5937502,0.90625 l 4.1875,-7.28125 c -0.423609,-0.3512558 -0.951591,-0.5625 -1.53125,-0.5625 -0.09552,0 -0.188577,0.020163 -0.28125,0.03125 -0.228668,-1.1658408 -1.22118,-2.03125 -2.40625,-2.03125 z m 7.09375,5.34375 -2.65625,4.53125 c 0.242503,0.07697 0.484266,0.125 0.75,0.125 0.716951,0 1.366541,-0.29886 1.84375,-0.78125 0.254732,0.368125 0.656558,0.59375 1.125,0.59375 0.77463,0 1.40625,-0.62934 1.40625,-1.4375 0,-0.80816 -0.63162,-1.46875 -1.40625,-1.46875 -0.119612,0 -0.232904,0.0019 -0.34375,0.03125 -0.06376,-0.618956 -0.331808,-1.165371 -0.71875,-1.59375 z"
     id="path3137"
     inkscape:connector-curvature="0"
     sodipodi:nodetypes="scssccssscccccccscsccscssscc" />
  <path
     inkscape:connector-curvature="0"
     id="use3133"
     d="M 5.8710827,15.673708 10.467278,20.269903 17.715122,7.7187562 15.991549,6.7022902 10.025336,16.999534 7.2852967,14.259495 5.8710827,15.673708 z"
     style="fill:#000000;fill-opacity:0.30196078;stroke:#000000;stroke-width:0;stroke-linejoin:round;stroke-miterlimit:4;stroke-opacity:0.30196078;stroke-dasharray:none" />
  <g
     transform="matrix(0.06584938,0,0,0.06869972,-11.839726,1.0965445)"
     id="g3003"
     style="fill:#dcdcdc;fill-opacity:1;stroke:none">
    <path
       style="fill:#dcdcdc;fill-opacity:1;stroke:none"
       d="M 10.1875,4 C 9.2200956,4 8.3990682,4.5886096 8,5.4375 7.7697724,5.2424181 7.4759609,5.125 7.15625,5.125 6.4168238,5.125 5.8125,5.7598171 5.8125,6.53125 c 0,0.2987722 0.096865,0.5853905 0.25,0.8125 -0.5177565,0.3443344 -0.9036631,0.8776712 -1.09375,1.5 C 4.8764994,8.8327661 4.7825686,8.8125 4.6875,8.8125 3.3330975,8.8125 2.25,9.9619712 2.25,11.375 c 0,1.413029 1.0830975,2.5625 2.4375,2.5625 0.2525628,0 0.4885487,-0.0497 0.71875,-0.125 l 1.125,-1.09375 c 0.3612972,-0.373423 0.9199528,-0.373423 1.28125,0 l 0.625,0.625 c 0.082958,-0.124157 0.1417664,-0.259703 0.1875,-0.40625 0.4341268,0.441546 0.9781411,0.758762 1.59375,0.90625 L 14.40625,6.5625 C 13.982641,6.2112442 13.454659,6 12.875,6 12.77948,6 12.686423,6.0201631 12.59375,6.03125 12.365082,4.8654092 11.37257,4 10.1875,4 z M 17.28125,9.34375 14.625,13.875 c 0.242503,0.07697 0.484266,0.125 0.75,0.125 0.716951,0 1.366541,-0.29886 1.84375,-0.78125 0.254732,0.368125 0.656558,0.59375 1.125,0.59375 0.77463,0 1.40625,-0.62934 1.40625,-1.4375 0,-0.80816 -0.63162,-1.46875 -1.40625,-1.46875 -0.119612,0 -0.232904,0.0019 -0.34375,0.03125 -0.06376,-0.618956 -0.331808,-1.1653706 -0.71875,-1.59375 z"
       transform="matrix(15.186172,0,0,14.5561,179.80011,-15.961411)"
       id="circle265"
       inkscape:connector-curvature="0"
       sodipodi:nodetypes="scssccssscccccccscsccscssscc" />
  </g>
  <path
     style="fill:#dcdcdc;fill-opacity:1;stroke:#dcdcdc;stroke-width:0.29999999999999999;stroke-miterlimit:4;stroke-dasharray:none;stroke-opacity:1;stroke-linejoin:round"
     d="M 5.8710827,14.695602 10.467278,19.291797 17.715122,6.7406503 15.991549,5.7241843 10.025336,16.021428 7.2852967,13.281389 5.8710827,14.695602 z"
     id="rect5629-8-1"
     inkscape:connector-curvature="0" />
</svg>
