<?xml version="1.0" encoding="UTF-8" standalone="no"?>
<!-- Created with Inkscape (http://www.inkscape.org/) -->

<svg
   xmlns:dc="http://purl.org/dc/elements/1.1/"
   xmlns:cc="http://creativecommons.org/ns#"
   xmlns:rdf="http://www.w3.org/1999/02/22-rdf-syntax-ns#"
   xmlns:svg="http://www.w3.org/2000/svg"
   xmlns="http://www.w3.org/2000/svg"
   xmlns:sodipodi="http://sodipodi.sourceforge.net/DTD/sodipodi-0.dtd"
   xmlns:inkscape="http://www.inkscape.org/namespaces/inkscape"
   id="svg9065"
   version="1.1"
   inkscape:version="0.48.5 r10040"
   width="22"
   height="22"
   sodipodi:docname="state-ok.svg">
  <metadata
     id="metadata9071">
    <rdf:RDF>
      <cc:Work
         rdf:about="">
        <dc:format>image/svg+xml</dc:format>
        <dc:type
           rdf:resource="http://purl.org/dc/dcmitype/StillImage" />
        <dc:title />
      </cc:Work>
    </rdf:RDF>
  </metadata>
  <defs
     id="defs9069" />
  <sodipodi:namedview
     pagecolor="#ffffff"
     bordercolor="#666666"
     borderopacity="1"
     objecttolerance="10"
     gridtolerance="10"
     guidetolerance="10"
     inkscape:pageopacity="0"
     inkscape:pageshadow="2"
     inkscape:window-width="1280"
     inkscape:window-height="998"
     id="namedview9067"
     showgrid="true"
     inkscape:zoom="32"
     inkscape:cx="9.4024684"
     inkscape:cy="7.785064"
     inkscape:window-x="0"
     inkscape:window-y="0"
     inkscape:window-maximized="1"
     inkscape:current-layer="svg9065"
     showguides="true"
     inkscape:guide-bbox="true">
    <inkscape:grid
       type="xygrid"
       id="grid3065"
       empspacing="5"
       visible="true"
       enabled="true"
       snapvisiblegridlinesonly="true" />
  </sodipodi:namedview>
  <g
     transform="matrix(0.06584938,0,0,0.06869972,-11.839726,1.0965445)"
     id="g3003"
     style="fill:#ececec;fill-opacity:1;stroke:none">
    <path
       style="fill:#ececec;fill-opacity:1;stroke:none"
       d="M 10.1875,4 C 9.2200956,4 8.3990682,4.5886096 8,5.4375 7.7697724,5.2424181 7.4759609,5.125 7.15625,5.125 6.4168238,5.125 5.8125,5.7598171 5.8125,6.53125 c 0,0.2987722 0.096865,0.5853905 0.25,0.8125 -0.5177565,0.3443344 -0.9036631,0.8776712 -1.09375,1.5 C 4.8764994,8.8327661 4.7825686,8.8125 4.6875,8.8125 3.3330975,8.8125 2.25,9.9619712 2.25,11.375 c 0,1.413029 1.0830975,2.5625 2.4375,2.5625 0.2525628,0 0.4885487,-0.0497 0.71875,-0.125 l 1.125,-1.09375 c 0.3612972,-0.373423 0.9199528,-0.373423 1.28125,0 l 0.625,0.625 c 0.082958,-0.124157 0.1417664,-0.259703 0.1875,-0.40625 0.4341268,0.441546 0.9781411,0.758762 1.59375,0.90625 L 14.40625,6.5625 C 13.982641,6.2112442 13.454659,6 12.875,6 12.77948,6 12.686423,6.0201631 12.59375,6.03125 12.365082,4.8654092 11.37257,4 10.1875,4 z M 17.28125,9.34375 14.625,13.875 c 0.242503,0.07697 0.484266,0.125 0.75,0.125 0.716951,0 1.366541,-0.29886 1.84375,-0.78125 0.254732,0.368125 0.656558,0.59375 1.125,0.59375 0.77463,0 1.40625,-0.62934 1.40625,-1.4375 0,-0.80816 -0.63162,-1.46875 -1.40625,-1.46875 -0.119612,0 -0.232904,0.0019 -0.34375,0.03125 -0.06376,-0.618956 -0.331808,-1.1653706 -0.71875,-1.59375 z"
       transform="matrix(15.186172,0,0,14.5561,179.80011,-15.961411)"
       id="circle265"
       inkscape:connector-curvature="0"
       sodipodi:nodetypes="scssccssscccccccscsccscssscc" />
  </g>
  <path
     style="fill:#ececec;fill-opacity:1;stroke:none;stroke-width:0.29999999999999999;stroke-miterlimit:4;stroke-dasharray:none;stroke-opacity:1;stroke-linejoin:round"
     d="M 15.96875 5.5625 A 0.15001501 0.15001501 0 0 0 15.9375 5.59375 A 0.15001501 0.15001501 0 0 0 15.90625 5.59375 A 0.15001501 0.15001501 0 0 0 15.875 5.625 A 0.15001501 0.15001501 0 0 0 15.875 5.65625 L 10 15.78125 L 7.40625 13.1875 A 0.15001501 0.15001501 0 0 0 7.375 13.15625 A 0.15001501 0.15001501 0 0 0 7.34375 13.15625 A 0.15001501 0.15001501 0 0 0 7.3125 13.125 A 0.15001501 0.15001501 0 0 0 7.28125 13.125 A 0.15001501 0.15001501 0 0 0 7.25 13.125 A 0.15001501 0.15001501 0 0 0 7.21875 13.15625 A 0.15001501 0.15001501 0 0 0 7.1875 13.15625 A 0.15001501 0.15001501 0 0 0 7.1875 13.1875 L 5.75 14.59375 A 0.15001501 0.15001501 0 0 0 5.75 14.625 A 0.15001501 0.15001501 0 0 0 5.71875 14.65625 A 0.15001501 0.15001501 0 0 0 5.71875 14.6875 A 0.15001501 0.15001501 0 0 0 5.71875 14.71875 A 0.15001501 0.15001501 0 0 0 5.71875 14.75 A 0.15001501 0.15001501 0 0 0 5.75 14.78125 A 0.15001501 0.15001501 0 0 0 5.75 14.8125 L 10.375 19.40625 A 0.15001501 0.15001501 0 0 0 10.40625 19.4375 A 0.15001501 0.15001501 0 0 0 10.4375 19.4375 A 0.15001501 0.15001501 0 0 0 10.46875 19.4375 A 0.15001501 0.15001501 0 0 0 10.5 19.4375 A 0.15001501 0.15001501 0 0 0 10.53125 19.4375 A 0.15001501 0.15001501 0 0 0 10.5625 19.40625 A 0.15001501 0.15001501 0 0 0 10.59375 19.375 L 17.84375 6.8125 A 0.15001501 0.15001501 0 0 0 17.875 6.78125 A 0.15001501 0.15001501 0 0 0 17.875 6.75 A 0.15001501 0.15001501 0 0 0 17.875 6.71875 A 0.15001501 0.15001501 0 0 0 17.84375 6.65625 A 0.15001501 0.15001501 0 0 0 17.8125 6.625 A 0.15001501 0.15001501 0 0 0 17.78125 6.625 L 16.0625 5.59375 A 0.15001501 0.15001501 0 0 0 16.03125 5.59375 A 0.15001501 0.15001501 0 0 0 16 5.5625 A 0.15001501 0.15001501 0 0 0 15.96875 5.5625 z "
     id="rect5629-8-1" />
</svg>
