<svg width="22" xmlns="http://www.w3.org/2000/svg" height="22" viewBox="0 0 22 22" style="enable-background:new 0 0 22 22">
<defs/>
<g style="line-height:normal;color:#000">
<g>
<g style="opacity:.3" transform="matrix(.01723 0 0 .01723 -6.9977 14.95612)">
<path d="m 23.78125,8 c -0.96024,0.095132 -1.768104,1.0039786 -1.75,1.96875 l 0,3.78125 0,0.03125 0,7.9375 c 0,1.022654 0.930471,1.953124 1.953125,1.953124 1.022654,0 1.953125,-0.93047 1.953125,-1.953124 l 0,-7.875 0,-0.03125 0,-3.84375 C 25.951975,8.9340301 25.00347,7.9855249 23.96875,8 23.9063,7.99698 23.843701,7.99698 23.78125,8 Z m -6.6875,4.78125 C 12.870253,15.890398 8.7978629,20.062551 9.375,24.5625 c 0.2785101,0.846041 1.199362,1.429441 2.083299,1.319862 0.883937,-0.109579 1.634459,-0.900174 1.697951,-1.788612 0.414434,-3.847501 2.559874,-6.406168 5.40625,-7.75 z m 13.75,0.03125 -1.46875,3.5625 c 2.846376,1.343832 4.991816,3.902499 5.40625,7.75 0.06349,0.888438 0.814014,1.679033 1.697951,1.788612 0.883937,0.109579 1.804789,-0.473821 2.083299,-1.319862 0.216051,-4.857408 -4.293803,-10.086516 -7.71875,-11.78125 z" transform="matrix(29 0 0 29 347.76584 -867.89944)"/>
<path d="m 17.28125,12.75 a 1.9417784,1.9417784 0 0 0 -0.875,0.25 c -3.904805,2.138297 -6.09611,5.602454 -6.8125,9.3125 l 3.90625,0 c 0.618254,-2.346128 2.143236,-4.461687 4.78125,-5.90625 a 1.9417784,1.9417784 0 0 0 -1,-3.65625 z m 12.90625,0 a 1.9417784,1.9417784 0 0 0 -0.71875,3.625 c 2.672372,1.612292 4.217759,3.7017 4.90625,5.9375 l 3.90625,0 c -0.800478,-3.55327 -2.978893,-6.937133 -6.8125,-9.25 A 1.9417784,1.9417784 0 0 0 30.1875,12.75 Z M 11.125,32.15625 c 0.0044,0.0084 -0.0044,0.02287 0,0.03125 l 4.5625,0 c -0.009,-0.01141 -0.02231,-0.0198 -0.03125,-0.03125 l -4.53125,0 z m 21.25,0 c -0.0091,0.01139 -0.02208,0.0199 -0.03125,0.03125 l 4.59375,0 c 0.0044,-0.0083 -0.0044,-0.02293 0,-0.03125 l -4.5625,0 z M 22.4375,39.9375 C 22.916584,39.984189 23.406887,40 23.90625,40 c 0.504991,0 1.013496,-0.01608 1.5,-0.0625 l -2.96875,0 z" transform="matrix(29 0 0 29 347.76584 -867.89944)"/>
</g>
<path style="opacity:.3" d="m 12.981476,19.0135 a 0.49451577,0.97011266 0 0 0 -0.502825,-0.96347 l -2.9935557,0 a 0.4969769,0.97494074 0 0 0 0,1.949881 l 2.9935557,0 A 0.49451577,0.97011266 0 0 0 12.981476,19.0135 Z"/>
<path style="opacity:.3" d="m 4.8628188,14.58926 a 0.97486269,0.97494079 0 0 0 0.093667,1.935951 l 5.8698312,0 a 0.97003499,0.9701127 0 0 0 0.12489,0 0.97486269,0.97494079 0 0 0 0.171724,0 l 5.86983,0 a 0.97003499,0.9701127 0 0 0 0.98351,-0.983588 0.97003499,0.9701127 0 0 0 -0.98351,-0.952363 l -5.86983,0 a 0.97486269,0.97494079 0 0 0 -0.171724,0.01561 0.97003499,0.9701127 0 0 0 -0.12489,-0.01561 l -5.8698312,0 a 0.97486269,0.97494079 0 0 0 -0.093667,0 z"/>
</g>
<g style="fill:#55cdef">
<g transform="matrix(.01723 0 0 .01723 -6.95262 13.95609)">
<path d="m 23.78125,8 c -0.96024,0.095132 -1.768104,1.0039786 -1.75,1.96875 l 0,3.78125 0,0.03125 0,7.9375 c 0,1.022654 0.930471,1.953124 1.953125,1.953124 1.022654,0 1.953125,-0.93047 1.953125,-1.953124 l 0,-7.875 0,-0.03125 0,-3.84375 C 25.951975,8.9340301 25.00347,7.9855249 23.96875,8 23.9063,7.99698 23.843701,7.99698 23.78125,8 Z m -6.6875,4.78125 C 12.870253,15.890398 8.7978629,20.062551 9.375,24.5625 c 0.2785101,0.846041 1.199362,1.429441 2.083299,1.319862 0.883937,-0.109579 1.634459,-0.900174 1.697951,-1.788612 0.414434,-3.847501 2.559874,-6.406168 5.40625,-7.75 z m 13.75,0.03125 -1.46875,3.5625 c 2.846376,1.343832 4.991816,3.902499 5.40625,7.75 0.06349,0.888438 0.814014,1.679033 1.697951,1.788612 0.883937,0.109579 1.804789,-0.473821 2.083299,-1.319862 0.216051,-4.857408 -4.293803,-10.086516 -7.71875,-11.78125 z" transform="matrix(29 0 0 29 347.76584 -867.89944)"/>
<path d="m 17.28125,12.75 a 1.9417784,1.9417784 0 0 0 -0.875,0.25 c -3.904805,2.138297 -6.09611,5.602454 -6.8125,9.3125 l 3.90625,0 c 0.618254,-2.346128 2.143236,-4.461687 4.78125,-5.90625 a 1.9417784,1.9417784 0 0 0 -1,-3.65625 z m 12.90625,0 a 1.9417784,1.9417784 0 0 0 -0.71875,3.625 c 2.672372,1.612292 4.217759,3.7017 4.90625,5.9375 l 3.90625,0 c -0.800478,-3.55327 -2.978893,-6.937133 -6.8125,-9.25 A 1.9417784,1.9417784 0 0 0 30.1875,12.75 Z M 11.125,32.15625 c 0.0044,0.0084 -0.0044,0.02287 0,0.03125 l 4.5625,0 c -0.009,-0.01141 -0.02231,-0.0198 -0.03125,-0.03125 l -4.53125,0 z m 21.25,0 c -0.0091,0.01139 -0.02208,0.0199 -0.03125,0.03125 l 4.59375,0 c 0.0044,-0.0083 -0.0044,-0.02293 0,-0.03125 l -4.5625,0 z M 22.4375,39.9375 C 22.916584,39.984189 23.406887,40 23.90625,40 c 0.504991,0 1.013496,-0.01608 1.5,-0.0625 l -2.96875,0 z" transform="matrix(29 0 0 29 347.76584 -867.89944)"/>
</g>
<g>
<path d="m 13.030951,18.014037 a 0.49462457,0.97024837 0 0 0 -0.502935,-0.963605 l -2.9942146,0 a 0.49708624,0.97507713 0 0 0 0,1.950154 l 2.9942146,0 a 0.49462457,0.97024837 0 0 0 0.502935,-0.986549 z"/>
<path d="m 4.9105079,13.589112 a 0.97507717,0.97507717 0 0 0 0.093688,1.936221 l 5.8711231,0 a 0.97024841,0.97024841 0 0 0 0.124917,0 0.97507717,0.97507717 0 0 0 0.171762,0 l 5.871122,0 a 0.97024841,0.97024841 0 0 0 0.983725,-0.983725 0.97024841,0.97024841 0 0 0 -0.983725,-0.952496 l -5.871122,0 a 0.97507717,0.97507717 0 0 0 -0.171762,0.01562 0.97024841,0.97024841 0 0 0 -0.124917,-0.01562 l -5.871123,0 a 0.97507717,0.97507717 0 0 0 -0.093688,0 z"/>
</g>
</g>
</g>
</svg>
