<svg width="32" xmlns="http://www.w3.org/2000/svg" height="32" viewBox="0 0 32 32" xmlns:xlink="http://www.w3.org/1999/xlink">
<g style="fill:#909ea9">
<path d="M 12.4375 5.332031 C 11.464844 5.332031 10.667969 6.128906 10.667969 7.105469 L 10.667969 24.875 C 10.667969 25.847656 11.464844 26.667969 12.4375 26.667969 L 19.542969 26.667969 C 20.515625 26.667969 21.332031 25.847656 21.332031 24.875 L 21.332031 7.105469 C 21.332031 6.128906 20.515625 5.332031 19.542969 5.332031 Z M 13.105469 6.667969 L 18.894531 6.667969 C 19.511719 6.667969 20 7.15625 20 7.769531 L 20 16.292969 C 20 16.90625 19.511719 17.394531 18.894531 17.394531 L 13.105469 17.394531 C 12.488281 17.394531 12 16.90625 12 16.292969 L 12 7.769531 C 12 7.15625 12.488281 6.667969 13.105469 6.667969 Z M 16 18.667969 C 17.839844 18.667969 19.332031 20.160156 19.332031 22 C 19.332031 23.839844 17.839844 25.332031 16 25.332031 C 14.160156 25.332031 12.667969 23.839844 12.667969 22 C 12.667969 20.160156 14.160156 18.667969 16 18.667969 Z "/>
<path d="M 14.667969 24 L 14.667969 20 L 18 22 Z "/>
</g>
</svg>
