<svg xmlns="http://www.w3.org/2000/svg" viewBox="0 0 48 48" xmlns:xlink="http://www.w3.org/1999/xlink">
<defs>
<linearGradient id="linearGradient10924">
<stop offset="0" style="stop-color:#26c2f0"/>
<stop offset="1" style="stop-color:#305bbd"/>
</linearGradient>
<linearGradient gradientTransform="translate(-435.42857 -1440.7244)" id="linearGradient10355" xlink:href="#linearGradient10924" y1="1053.158" y2="1004.847" x2="0" gradientUnits="userSpaceOnUse"/>
</defs>
<g transform="translate(435.42857 -388.36218)">
<rect width="48" x="-435.429" y="-436.362" rx="1.945" height="48" style="fill:url(#linearGradient10355)" transform="scale(1 -1)"/>
</g>
<g style="fill:#fff" transform="translate(435.42857 -388.36218)">
<path style="color:#000" d="m -414.76643,396.34404 c -2.03455,0.42395 -3.94325,1.21871 -5.62358,2.32199 0.049,1.2244 -0.37262,2.47692 -1.30612,3.41044 -0.93352,0.9335 -2.18603,1.35509 -3.41043,1.30612 -1.10329,1.68033 -1.89805,3.58904 -2.322,5.62358 0.90766,0.83054 1.45125,2.0106 1.45125,3.33787 0,1.32726 -0.54359,2.54362 -1.45125,3.37415 0.42395,2.03455 1.21871,3.90696 2.322,5.5873 1.2244,-0.049 2.47691,0.4089 3.41043,1.3424 0.9335,0.93352 1.35509,2.14975 1.30612,3.37415 1.68033,1.10329 3.58903,1.93433 5.62358,2.35828 0.83053,-0.90766 2.01062,-1.48753 3.33787,-1.48753 1.32726,0 2.50733,0.57987 3.33787,1.48753 2.02796,-0.42258 3.94729,-1.2605 5.62358,-2.35828 -0.002,-0.0656 0,-0.11586 0,-0.1814 0,-1.16252 0.41916,-2.30577 1.30612,-3.19275 0.93352,-0.9335 2.18603,-1.39137 3.41043,-1.3424 1.10329,-1.68034 1.89805,-3.55275 2.322,-5.5873 -0.90766,-0.83053 -1.45125,-2.04689 -1.45125,-3.37415 0,-1.32727 0.54359,-2.50733 1.45125,-3.33787 -0.42395,-2.03454 -1.21871,-3.94325 -2.322,-5.62358 -1.2244,0.049 -2.47691,-0.37262 -3.41043,-1.30612 -0.88696,-0.88698 -1.30612,-2.03023 -1.30612,-3.19275 0,-0.0656 -0.002,-0.15212 0,-0.21769 -1.67629,-1.09778 -3.59562,-1.89941 -5.62358,-2.32199 -0.83054,0.90766 -2.01061,1.48753 -3.33787,1.48753 -1.32725,0 -2.50734,-0.57987 -3.33787,-1.48753 z m 8.05442,5.11565 c 0.51784,0 0.89937,0.056 1.37869,0.1814 0.69905,0.1833 1.26953,0.74838 1.26984,1.41497 3.1e-4,0.80582 -0.57704,1.37868 -1.45125,1.37868 -0.41648,0 -0.58747,-0.0726 -1.19728,-0.0726 -1.79976,0 -3.26227,1.46564 -3.2653,3.26531 l 0,2.82993 c 0,0.2547 0.21717,0.43537 0.47165,0.43537 l 2.14059,0 c 0.79833,0 1.45062,0.65085 1.45125,1.45125 0,0.80072 -0.65324,1.45125 -1.45125,1.45125 l -2.61224,0 0,3.2653 c 0,3.4132 -2.75461,6.20408 -6.1678,6.20408 -0.51795,0 -0.89937,-0.0558 -1.37869,-0.1814 -0.69906,-0.1832 -1.26953,-0.78487 -1.26984,-1.45125 0,-0.80562 0.61291,-1.37868 1.48753,-1.37868 0.41607,0 0.55152,0.0726 1.161,0.0726 1.79975,0 3.26248,-1.42999 3.2653,-3.22903 l 0,-2.86621 c 0,-0.25417 -0.21717,-0.43537 -0.47165,-0.43537 l -2.14059,0 c -0.79851,0 -1.45125,-0.65033 -1.45125,-1.45125 -2.1e-4,-0.80542 0.68055,-1.45125 1.48753,-1.45125 l 2.57596,0 0,-3.2653 c 0,-3.41351 2.75408,-6.1678 6.1678,-6.1678 z"/>
<path style="opacity:.15" d="m -433.42857,388.36219 c -1.108,0 -2,0.892 -2,2 l 0,44 c 0,1.108 0.892,2 2,2 l 14.78125,0 12.84375,-48 -27.625,0 z"/>
</g>
</svg>
