<svg xmlns="http://www.w3.org/2000/svg" viewBox="0 0 48 48" xmlns:xlink="http://www.w3.org/1999/xlink">
<defs>
<linearGradient id="linearGradient3708">
<stop offset="0" style="stop-color:#616161"/>
<stop offset="1" style="stop-color:#c7c7c7"/>
</linearGradient>
<linearGradient xlink:href="#linearGradient3708" id="linearGradient3801" y1="1053.158" y2="1004.847" x2="0" gradientUnits="userSpaceOnUse"/>
</defs>
<g transform="translate(0 -1004.3622)">
<rect width="48" x="0" y="1004.362" rx="1.945" height="48" style="fill:url(#linearGradient3801)"/>
</g>
<g style="fill:#fff" transform="translate(0 -1004.3622)">
<path style="opacity:.8" d="M 13.9375 8 C 12.860223 8 12 8.8602228 12 9.9375 L 12 38.0625 C 12 39.139777 12.860223 40 13.9375 40 L 34.0625 40 C 35.139777 40 36 39.139777 36 38.0625 L 36 9.9375 C 36 8.8602228 35.139777 8 34.0625 8 L 13.9375 8 z M 15.78125 10 L 32.21875 10 C 33.203689 10 34 10.796311 34 11.78125 L 34 15.25 C 34 16.234939 33.203689 17.03125 32.21875 17.03125 L 15.78125 17.03125 C 14.796311 17.03125 14 16.234939 14 15.25 L 14 11.78125 C 14 10.796311 14.796311 10 15.78125 10 z M 15 19 L 17 19 C 17.554 19 18 19.446 18 20 L 18 22 C 18 22.554 17.554 23 17 23 L 15 23 C 14.446 23 14 22.554 14 22 L 14 20 C 14 19.446 14.446 19 15 19 z M 20 19 L 22 19 C 22.554 19 23 19.446 23 20 L 23 22 C 23 22.554 22.554 23 22 23 L 20 23 C 19.446 23 19 22.554 19 22 L 19 20 C 19 19.446 19.446 19 20 19 z M 25 19 L 27 19 C 27.554 19 28 19.446 28 20 L 28 22 C 28 22.554 27.554 23 27 23 L 25 23 C 24.446 23 24 22.554 24 22 L 24 20 C 24 19.446 24.446 19 25 19 z M 30 19 L 33 19 C 33.554 19 34 19.446 34 20 L 34 22 C 34 22.554 33.554 23 33 23 L 30 23 C 29.446 23 29 22.554 29 22 L 29 20 C 29 19.446 29.446 19 30 19 z M 15 24 L 17 24 C 17.554 24 18 24.446 18 25 L 18 27 C 18 27.554 17.554 28 17 28 L 15 28 C 14.446 28 14 27.554 14 27 L 14 25 C 14 24.446 14.446 24 15 24 z M 20 24 L 22 24 C 22.554 24 23 24.446 23 25 L 23 27 C 23 27.554 22.554 28 22 28 L 20 28 C 19.446 28 19 27.554 19 27 L 19 25 C 19 24.446 19.446 24 20 24 z M 25 24 L 27 24 C 27.554 24 28 24.446 28 25 L 28 27 C 28 27.554 27.554 28 27 28 L 25 28 C 24.446 28 24 27.554 24 27 L 24 25 C 24 24.446 24.446 24 25 24 z M 30 24 L 33 24 C 33.554 24 34 24.446 34 25 L 34 27 C 34 27.554 33.554 28 33 28 L 30 28 C 29.446 28 29 27.554 29 27 L 29 25 C 29 24.446 29.446 24 30 24 z M 15 29 L 17 29 C 17.554 29 18 29.446 18 30 L 18 32 C 18 32.554 17.554 33 17 33 L 15 33 C 14.446 33 14 32.554 14 32 L 14 30 C 14 29.446 14.446 29 15 29 z M 20 29 L 22 29 C 22.554 29 23 29.446 23 30 L 23 32 C 23 32.554 22.554 33 22 33 L 20 33 C 19.446 33 19 32.554 19 32 L 19 30 C 19 29.446 19.446 29 20 29 z M 25 29 L 27 29 C 27.554 29 28 29.446 28 30 L 28 32 C 28 32.554 27.554 33 27 33 L 25 33 C 24.446 33 24 32.554 24 32 L 24 30 C 24 29.446 24.446 29 25 29 z M 30 29 L 33 29 C 33.554 29 34 29.446 34 30 L 34 37 C 34 37.554 33.554 38 33 38 L 30 38 C 29.446 38 29 37.554 29 37 L 29 30 C 29 29.446 29.446 29 30 29 z M 15 34 L 17 34 C 17.554 34 18 34.446 18 35 L 18 37 C 18 37.554 17.554 38 17 38 L 15 38 C 14.446 38 14 37.554 14 37 L 14 35 C 14 34.446 14.446 34 15 34 z M 20 34 L 22 34 C 22.554 34 23 34.446 23 35 L 23 37 C 23 37.554 22.554 38 22 38 L 20 38 C 19.446 38 19 37.554 19 37 L 19 35 C 19 34.446 19.446 34 20 34 z M 25 34 L 27 34 C 27.554 34 28 34.446 28 35 L 28 37 C 28 37.554 27.554 38 27 38 L 25 38 C 24.446 38 24 37.554 24 37 L 24 35 C 24 34.446 24.446 34 25 34 z " transform="translate(0 1004.3622)"/>
<path style="opacity:.15" d="m 2,1004.3622 c -1.108,0 -2,0.892 -2,2 l 0,44 c 0,1.108 0.892,2 2,2 l 14.78125,0 12.84375,-48 -27.625,0 z"/>
</g>
</svg>
