<svg xmlns="http://www.w3.org/2000/svg" viewBox="0 0 48 48" xmlns:xlink="http://www.w3.org/1999/xlink">
<defs>
<linearGradient id="linearGradient3795">
<stop offset="0" style="stop-color:#270948"/>
<stop offset="1" style="stop-color:#3d1990"/>
</linearGradient>
<linearGradient gradientTransform="translate(-1052.3622 -1004.3622)" id="linearGradient881" xlink:href="#linearGradient3795" x1="0" x2="48" gradientUnits="userSpaceOnUse"/>
</defs>
<g transform="translate(0 -1004.3622)">
<rect width="48" x="-1052.362" y="0" rx="2" height="48" style="fill:url(#linearGradient881)" transform="matrix(0 -1 1 0 0 0)"/>
</g>
<g style="fill:#fff" transform="translate(0 -1004.3622)">
<path d="m 27.317989,1014.7709 c 0.748216,0.1494 1.391579,0.321 1.9045,0.5563 0.791457,0.3492 1.297828,0.8133 1.540718,1.3481 -0.734776,-0.1354 -1.383966,-0.1 -1.968696,0.1285 4.192257,1.6539 6.177235,3.6317 5.948886,5.9061 -0.306648,-0.4776 -0.720681,-0.785 -1.241134,-0.9417 0.641931,2.4954 0.713044,4.5372 0.192591,6.1629 -0.356318,-1.0837 -0.691724,-1.7191 -0.98435,-1.9473 0.407092,3.3441 -0.143554,5.8144 -1.647712,7.4255 0.285028,-0.9837 0.407178,-1.7832 0.342382,-2.4181 -1.767567,2.6454 -3.780939,4.0013 -6.034482,4.0872 -0.890797,-0.011 -1.733902,-0.1281 -2.525068,-0.3852 -1.160484,-0.389 -2.209998,-1.0682 -3.145635,-2.0115 1.459198,0.1201 2.786652,-0.1345 3.958792,-0.7276 l 1.925899,-1.2411 c 0.24945,-0.093 0.477751,-0.086 0.706163,0.022 0.470265,-0.064 0.648713,-0.3285 0.492174,-0.749 -0.227893,-0.3136 -0.584929,-0.5851 -1.027146,-0.8346 -0.962603,-0.4993 -1.969322,-0.4276 -3.017241,0.2354 -0.998281,0.5637 -1.954844,0.5346 -2.888847,-0.064 -0.613331,-0.4201 -1.205693,-0.9849 -1.776107,-1.6906 l -0.213988,-0.321 0,-0.021 c 0.02834,-0.6986 0.299889,-1.0699 0.855954,-1.1556 0.627387,0.056 1.34876,0.1925 2.161285,0.4279 0.135536,-0.7771 -0.04315,-1.5839 -0.534971,-2.418 l 0,-0.022 c 0.762857,-0.7059 1.455499,-1.2128 2.032892,-1.5407 0.256722,-0.1356 0.399448,-0.3426 0.449377,-0.6207 0.0072,-0.011 0.01407,-0.022 0.02139,-0.022 0.007,-0.011 0.03553,-0.015 0.0428,-0.021 0.149559,-0.2211 0.08527,-0.3996 -0.17119,-0.5564 -0.534704,0.028 -1.070179,-0.021 -1.604916,-0.1284 l 0,0.021 c -0.221108,-0.063 -0.49223,-0.2497 -0.834556,-0.5777 l -0.877353,-0.856 -0.278186,-0.214 -0.0428,-0.043 c 0.0286,-0.014 0.04283,-0.051 0.06419,-0.064 0.121185,-0.649 0.335506,-1.1914 0.620568,-1.6691 l 0.06419,-0.064 c 0.285352,-0.4705 0.82054,-0.9776 1.626314,-1.5193 -1.497375,0.1851 -2.839672,0.8563 -4.044387,2.0115 -0.99825,-0.3639 -2.190342,-0.2851 -3.552212,0.2353 l -0.149793,0.1284 c -0.02091,0.011 -0.04345,0.012 -0.06419,0.021 l 0.213989,-0.1497 c -0.846846,-0.3986 -1.414167,-1.5388 -1.690512,-3.3596 -1.090867,1.0693 -1.619129,2.9972 -1.583517,5.7562 -0.07479,0.104 -0.191344,0.2591 -0.299584,0.4279 -0.03498,0.027 -0.07268,0.058 -0.107,0.085 -0.0076,0 0,0.014 0,0.022 -0.0076,0 -0.02139,0 -0.02139,0 -0.0078,0.011 -0.0214,0.011 -0.0214,0.022 -0.1665694,0.2576 -0.3752844,0.6538 -0.6633644,1.1771 -0.4548456,0.8112 -0.5978763,1.4782 -0.6205677,2.0542 0.00859,-0.015 0.012788,-0.028 0.021393,-0.043 0.0017,0.1329 0.00905,0.2451 0.042798,0.3639 l 0.8773537,-0.7063 c -0.320739,0.8057 -0.535096,1.6622 -0.641965,2.5679 -0.3279779,2.9729 0.514544,5.915 2.5250674,8.8163 3.015847,3.9002 6.799909,5.9709 11.362801,6.2485 4.56341,0.2711 8.468222,-1.4066 11.683785,-5.0287 2.174203,-2.6665 3.502302,-5.4516 4.00159,-8.367 0.49948,-2.0035 0.563153,-3.724 0.17119,-5.1785 -0.135501,1.0408 -0.29985,1.5693 -0.449376,1.6049 -0.04265,-1.7325 -0.293083,-3.2819 -0.77036,-4.6435 0,-0.011 -0.01497,-0.028 -0.02139,-0.043 -0.371511,-1.0625 -0.863458,-2.0046 -1.497921,-2.8461 0.293972,1.1551 0.440936,2.0618 0.449376,2.7178 -0.622508,-2.1854 -2.349803,-3.9907 -4.857544,-4.7506 -1.24075,-0.3706 -2.725758,-0.5707 -4.429567,-0.6207 z m 9.13732,5.692 c 0.039,0.07 0.07061,0.1451 0.106989,0.2139 -0.0019,0.013 0.0021,0.031 0,0.043 -0.0076,-0.015 -0.02139,-0.028 -0.02139,-0.043 -0.03199,-0.072 -0.05154,-0.1432 -0.0856,-0.2139 z"/>
<path style="opacity:.15" d="m 2,1004.3622 c -1.108,0 -2,0.892 -2,2 l 0,44 c 0,1.108 0.892,2 2,2 l 14.78125,0 12.84375,-48 -27.625,0 z"/>
</g>
</svg>
