<svg xmlns="http://www.w3.org/2000/svg" viewBox="0 0 48 48" xmlns:xlink="http://www.w3.org/1999/xlink">
<defs>
<linearGradient gradientTransform="translate(0 -2056.7244)" xlink:href="#linearGradient3881" id="linearGradient3801" y1="1004.362" y2="1054.362" x2="0" gradientUnits="userSpaceOnUse"/>
<linearGradient id="linearGradient3881">
<stop offset="0" style="stop-color:#474845"/>
<stop offset="1" style="stop-color:#838681"/>
</linearGradient>
</defs>
<g transform="translate(0 -1004.3622)">
<rect width="48" x="0" y="-1052.362" rx="1.945" height="48" style="fill:url(#linearGradient3801)" transform="scale(1 -1)"/>
</g>
<g style="fill:#fff" transform="translate(0 -1004.3622)">
<path style="opacity:.15" d="M 0 0 L 0 48 L 16.78125 48 L 29.625 0 L 0 0 z " transform="translate(0 1004.3622)"/>
<path d="M 11.9375 8.03125 C 10.860223 8.03125 10.009642 8.9227 10 10 L 10 14.9375 L 10 18.46875 L 10 38.09375 C 10 39.17105 10.860223 40.03125 11.9375 40.03125 L 36.125 40.03125 C 37.202277 40.03125 38.0625 39.17105 38.0625 38.09375 L 38.0625 14.9375 C 38.0625 13.8602 37.202277 13 36.125 13 L 18.8125 13 L 18.8125 10 C 18.8125 8.9227 17.952278 8.03125 16.875 8.03125 L 11.9375 8.03125 z M 12 10 L 17 10 L 15 13 L 14 13 L 12 10 z M 30.125 17.15625 L 30.1875 17.15625 C 30.1875 17.15625 30.367137 17.17475 30.5 17.21875 C 30.632863 17.26275 30.80187 17.35235 31 17.46875 C 31.396261 17.70115 31.923317 18.1109 32.6875 18.875 C 33.426389 19.6138 33.826616 20.166 34.0625 20.5625 C 34.180442 20.7607 34.26563 20.90385 34.3125 21.03125 C 34.35937 21.15875 34.375 21.3125 34.375 21.3125 C 34.41053 21.5347 34.33947 21.7715 34.1875 21.9375 L 21.125 35.03125 C 21.04707 35.11425 20.918835 35.17855 20.8125 35.21875 L 15.4375 37.125 C 14.899929 37.3309 14.231586 36.69375 14.4375 36.15625 L 16.375 30.75 C 16.41511 30.6437 16.479773 30.54665 16.5625 30.46875 L 29.625 17.375 C 29.749071 17.2501 29.949589 17.17105 30.125 17.15625 z " transform="translate(0 1004.3622)"/>
</g>
</svg>
