<svg xmlns="http://www.w3.org/2000/svg" viewBox="0 0 48 48" xmlns:xlink="http://www.w3.org/1999/xlink">
<g transform="translate(0 -1004.3622)">
<path style="fill:#85b9ab;line-height:normal;color:#000" d="m 9.0750164,1014.3728 c -0.5855364,0.061 -1.0781484,0.6113 -1.0749995,1.2 l 0,25.6246 c 6.25e-5,0.6283 0.5716982,1.1999 1.1999994,1.2 l 29.5999837,0 c 0.628301,-10e-5 1.199937,-0.5717 1.2,-1.2 l 0,-25.6246 c -6.3e-5,-0.6283 -0.571699,-1.1999 -1.2,-1.2 l -29.5999837,0 c -0.041629,0 -0.083371,0 -0.1249999,0 z M 37,1016.3622 c 0.441828,0 1,0.5581 1,1 0,0.4418 -0.558172,1 -1,1 -0.441828,0 -1,-0.5582 -1,-1 0,-0.4419 0.558172,-1 1,-1 z m -27,3 28,0 0,21 -28,0 z"/>
</g>
</svg>
