<svg xmlns="http://www.w3.org/2000/svg" viewBox="0 0 48 48" xmlns:xlink="http://www.w3.org/1999/xlink">
<defs>
<linearGradient id="linearGradient3881-9">
<stop offset="0" style="stop-color:#474845"/>
<stop offset="1" style="stop-color:#838681"/>
</linearGradient>
<linearGradient gradientTransform="translate(0 -.00004)" id="linearGradient3058" xlink:href="#linearGradient3881-9" y1="1053.158" y2="1004.847" x2="0" gradientUnits="userSpaceOnUse"/>
</defs>
<g transform="translate(0 -1004.3622)">
<rect width="48" x="0" y="1004.362" rx="1.945" height="48" style="fill:url(#linearGradient3058)"/>
</g>
<g style="fill:#fff" transform="translate(0 -1004.3622)">
<path style="opacity:.15" d="M 0 0 L 0 48 L 16.78125 48 L 29.625 0 L 0 0 z " transform="translate(0 1004.3622)"/>
<path d="m 9.9469028,1023.3622 28.1061942,0 c 1.078584,0 1.946903,-0.051 1.946903,0.9718 l 0,16.1568 c 0,1.0234 -0.868319,1.8472 -1.946903,1.8472 l -28.1061942,0 C 8.8683186,1042.338 8,1041.5142 8,1040.4908 l 0,-16.1568 c 0,-1.0234 0.8683186,-0.9718 1.9469028,-0.9718 z"/>
<path d="m 13,11 -4,6 14,0 0,-9 -7,0 c -1,0 -3,3 -3,3 z m 12,-3 0,9 14,0 -4,-6 c 0,0 -2,-3 -3,-3 z" transform="translate(0 1004.3622)"/>
</g>
</svg>
