<svg xmlns="http://www.w3.org/2000/svg" viewBox="0 0 48 48" xmlns:xlink="http://www.w3.org/1999/xlink">
<path style="fill:#555;line-height:normal;color:#000" d="m 34.62153,13.327096 a 3.0002998,3.0002998 0 0 0 -0.243068,-0.198873 3.0002998,3.0002998 0 0 0 -4.02167,0.265165 l -6.363961,6.363961 -6.363961,-6.363961 a 3.0002998,3.0002998 0 1 0 -4.24264,4.24264 l 6.363961,6.363961 -6.363961,6.363961 a 3.0002998,3.0002998 0 1 0 4.24264,4.242641 l 6.363961,-6.363961 6.363961,6.363961 a 3.0002998,3.0002998 0 0 0 4.507806,-0.220971 3.0002998,3.0002998 0 0 0 -0.265165,-4.02167 l -6.363961,-6.363961 6.363961,-6.363961 a 3.0002998,3.0002998 0 0 0 0.0221,-4.308932 z"/>
</svg>
