<svg xmlns="http://www.w3.org/2000/svg" viewBox="0 0 48 48" xmlns:xlink="http://www.w3.org/1999/xlink">
<g style="fill:#555555#5555555">
<path style="line-height:normal;color:#000" d="M 10.34375 4 C 9.6072267 4.0767109 8.9960396 4.764118 9 5.5 L 9 42.5 C 9.0000789 43.285337 9.7096842 43.999922 10.5 44 L 26 44 L 26 41 L 12.03125 41 L 12.03125 7 L 30 7 L 30 11 L 36 11 L 35.96875 30 L 39 30 L 39 8.03125 C 38 7.0124701 33.954345 4.9979644 33 4 L 10.5 4 C 10.44764 3.99729 10.396114 3.99729 10.34375 4 z "/>
<path d="m 27.998671,32.020937 0,12 16,0 0,-12 z m 4,2 8,0 -4,4 z m -2,1 5,5 2,0 5,-5 0,7 -12,0 z"/>
</g>
</svg>
