<svg xmlns="http://www.w3.org/2000/svg" viewBox="0 0 48 48" xmlns:xlink="http://www.w3.org/1999/xlink">
<path style="fill:#555555#5555555;line-height:normal;color:#000" d="M 24 2.0625 C 15.18121 2.0625 8 9.2437108 8 18.0625 C 8 25.158571 12.648228 31.199471 19.0625 33.28125 L 19.0625 34.03125 L 14.5 34.03125 C 13.902301 34.02955 13.314576 34.413337 13.09375 34.96875 C 12.872923 35.524162 13.033027 36.215864 13.46875 36.625 L 23 45.59375 C 23.550513 46.114838 24.511987 46.114838 25.0625 45.59375 L 34.53125 36.625 C 34.966974 36.215864 35.127077 35.524162 34.90625 34.96875 C 34.685424 34.413337 34.097699 34.029507 33.5 34.03125 L 29.0625 34.03125 L 29.0625 33.21875 C 35.399683 31.097653 40 25.109829 40 18.0625 C 40 9.2437108 32.818789 2.0625 24 2.0625 z M 24 5.0625 C 31.197468 5.0625 37 10.865032 37 18.0625 C 37 23.460602 33.726471 28.06633 29.0625 30.03125 L 29.0625 25.53125 C 29.062422 24.745873 28.347877 24.031328 27.5625 24.03125 L 20.5625 24.03125 C 20.51046 24.02855 20.458286 24.02855 20.40625 24.03125 C 19.674329 24.10797 19.058564 24.795331 19.0625 25.53125 L 19.0625 30.0625 C 14.325648 28.126045 11 23.506135 11 18.0625 C 11 10.865032 16.802531 5.0625 24 5.0625 z M 24 14.15625 C 21.85945 14.15625 20.09375 15.921949 20.09375 18.0625 C 20.09375 20.203051 21.85945 21.96875 24 21.96875 C 26.140551 21.96875 27.90625 20.203051 27.90625 18.0625 C 27.90625 15.921949 26.140551 14.15625 24 14.15625 z M 24 17.15625 C 24.519231 17.15625 24.90625 17.54327 24.90625 18.0625 C 24.90625 18.581731 24.519231 18.96875 24 18.96875 C 23.48077 18.96875 23.09375 18.581731 23.09375 18.0625 C 23.09375 17.54327 23.48077 17.15625 24 17.15625 z "/>
</svg>
