<?xml version="1.0" encoding="UTF-8" standalone="no"?>
<!-- Generator: Adobe Illustrator 18.1.1, SVG Export Plug-In . SVG Version: 6.00 Build 0)  -->

<svg
   xmlns:dc="http://purl.org/dc/elements/1.1/"
   xmlns:cc="http://creativecommons.org/ns#"
   xmlns:rdf="http://www.w3.org/1999/02/22-rdf-syntax-ns#"
   xmlns:svg="http://www.w3.org/2000/svg"
   xmlns="http://www.w3.org/2000/svg"
   xmlns:sodipodi="http://sodipodi.sourceforge.net/DTD/sodipodi-0.dtd"
   xmlns:inkscape="http://www.inkscape.org/namespaces/inkscape"
   version="1.1"
   id="Layer_1"
   x="0px"
   y="0px"
   width="32"
   height="32"
   viewBox="0 0 32 32"
   enable-background="new 0 0 400 400"
   xml:space="preserve"
   inkscape:version="0.91 r"
   sodipodi:docname="goa-account-google.svg"><metadata
     id="metadata27"><rdf:RDF><cc:Work
         rdf:about=""><dc:format>image/svg+xml</dc:format><dc:type
           rdf:resource="http://purl.org/dc/dcmitype/StillImage" /><dc:title></dc:title></cc:Work></rdf:RDF></metadata><defs
     id="defs25" /><sodipodi:namedview
     pagecolor="#ffffff"
     bordercolor="#666666"
     borderopacity="1"
     objecttolerance="10"
     gridtolerance="10"
     guidetolerance="10"
     inkscape:pageopacity="0"
     inkscape:pageshadow="2"
     inkscape:window-width="1920"
     inkscape:window-height="1056"
     id="namedview23"
     showgrid="true"
     inkscape:zoom="32"
     inkscape:cx="19.506312"
     inkscape:cy="14.681672"
     inkscape:window-x="0"
     inkscape:window-y="24"
     inkscape:window-maximized="1"
     inkscape:current-layer="Layer_1"><inkscape:grid
       type="xygrid"
       id="grid4155" /></sodipodi:namedview><path
     style="color:#000000;font-style:normal;font-variant:normal;font-weight:normal;font-stretch:normal;font-size:medium;line-height:normal;font-family:sans-serif;text-indent:0;text-align:start;text-decoration:none;text-decoration-line:none;text-decoration-style:solid;text-decoration-color:#000000;letter-spacing:normal;word-spacing:normal;text-transform:none;direction:ltr;block-progression:tb;writing-mode:lr-tb;baseline-shift:baseline;text-anchor:start;white-space:normal;clip-rule:nonzero;display:inline;overflow:visible;visibility:visible;opacity:1;isolation:auto;mix-blend-mode:normal;color-interpolation:sRGB;color-interpolation-filters:linearRGB;solid-color:#000000;solid-opacity:1;fill:#fbbc05;fill-opacity:1;fill-rule:nonzero;stroke:none;stroke-width:6;stroke-linecap:square;stroke-linejoin:miter;stroke-miterlimit:4;stroke-dasharray:none;stroke-dashoffset:0;stroke-opacity:1;color-rendering:auto;image-rendering:auto;shape-rendering:auto;text-rendering:auto;enable-background:accumulate"
     d="M 6.9165934,8.1770833 C 5.7666702,9.503514 4.8813932,11.091843 4.3983644,12.894531 c -0.252204,0.941238 -0.3770034,1.886356 -0.3945312,2.820313 -0.00533,0.183015 -0.00445,0.36675 -0.0013,0.550781 0.016095,0.940321 0.1418672,1.89203 0.3958333,2.839844 0.4830289,1.802688 1.3670037,3.391017 2.5169269,4.717448 l 2.4661463,-3.316406 c -0.491245,-0.724888 -0.879307,-1.538702 -1.119792,-2.436198 -0.153708,-0.573648 -0.231878,-1.147086 -0.25651,-1.714844 -0.0054,-0.12448 -0.011987,-0.24837 -0.01172,-0.373698 1.72e-4,-0.07376 0.00567,-0.14658 0.00781,-0.220052 0.01755,-0.605804 0.09745,-1.218952 0.261719,-1.832032 0.240484,-0.897498 0.627247,-1.71131 1.11849,-2.436198 L 6.9165934,8.1770833 Z"
     id="path4282"
     inkscape:connector-curvature="0" /><path
     style="color:#000000;font-style:normal;font-variant:normal;font-weight:normal;font-stretch:normal;font-size:medium;line-height:normal;font-family:sans-serif;text-indent:0;text-align:start;text-decoration:none;text-decoration-line:none;text-decoration-style:solid;text-decoration-color:#000000;letter-spacing:normal;word-spacing:normal;text-transform:none;direction:ltr;block-progression:tb;writing-mode:lr-tb;baseline-shift:baseline;text-anchor:start;white-space:normal;clip-rule:nonzero;display:inline;overflow:visible;visibility:visible;opacity:1;isolation:auto;mix-blend-mode:normal;color-interpolation:sRGB;color-interpolation-filters:linearRGB;solid-color:#000000;solid-opacity:1;fill:#34a853;fill-opacity:1;fill-rule:nonzero;stroke:none;stroke-width:6;stroke-linecap:square;stroke-linejoin:miter;stroke-miterlimit:4;stroke-dasharray:none;stroke-dashoffset:0;stroke-opacity:1;color-rendering:auto;image-rendering:auto;shape-rendering:auto;text-rendering:auto;enable-background:accumulate"
     d="m 8.4395817,18.643229 -3.239583,2.565104 C 7.1480907,25.216173 11.251614,28 15.989062,28 c 0.963522,0 1.898136,-0.123929 2.796874,-0.341146 0.01593,-0.0039 0.03227,-0.0065 0.04818,-0.01042 0.0052,-0.0013 0.01043,-0.0027 0.01563,-0.0039 0.160303,-0.03968 0.318831,-0.08281 0.476562,-0.128906 0.23019,-0.06545 0.458595,-0.137434 0.686198,-0.217448 0.01547,-0.0055 0.03141,-0.0088 0.04687,-0.01432 0.0026,-9.34e-4 0.0052,-0.0017 0.0078,-0.0026 0.654934,-0.233846 1.297552,-0.52832 1.920572,-0.888021 1.616246,-0.93314 2.921336,-2.198298 3.904948,-3.652344 l -3.841148,-1.523414 c -0.562702,0.65017 -1.236186,1.224443 -2.022136,1.684896 -0.02352,0.01375 -0.04664,0.02815 -0.07031,0.04167 -0.39349,0.225037 -0.796298,0.413248 -1.207032,0.563802 -0.205066,0.07517 -0.411945,0.140164 -0.619791,0.197916 -0.01773,0.0049 -0.0356,0.0095 -0.05339,0.01432 -0.179134,0.04847 -0.359933,0.08886 -0.540364,0.125 C 17.037529,23.943381 16.520619,24 15.989062,24 12.476253,24 9.5242067,21.771062 8.4395817,18.643229 Z"
     id="path4231"
     inkscape:connector-curvature="0" /><path
     style="color:#000000;font-style:normal;font-variant:normal;font-weight:normal;font-stretch:normal;font-size:medium;line-height:normal;font-family:sans-serif;text-indent:0;text-align:start;text-decoration:none;text-decoration-line:none;text-decoration-style:solid;text-decoration-color:#000000;letter-spacing:normal;word-spacing:normal;text-transform:none;direction:ltr;block-progression:tb;writing-mode:lr-tb;baseline-shift:baseline;text-anchor:start;white-space:normal;clip-rule:nonzero;display:inline;overflow:visible;visibility:visible;opacity:1;isolation:auto;mix-blend-mode:normal;color-interpolation:sRGB;color-interpolation-filters:linearRGB;solid-color:#000000;solid-opacity:1;fill:#4285f4;fill-opacity:1;fill-rule:nonzero;stroke:none;stroke-width:6;stroke-linecap:square;stroke-linejoin:miter;stroke-miterlimit:4;stroke-dasharray:none;stroke-dashoffset:0;stroke-opacity:1;color-rendering:auto;image-rendering:auto;shape-rendering:auto;text-rendering:auto;enable-background:accumulate"
     d="m 15.999999,14 0,4 7.747396,0 c -0.508243,1.99032 -1.755967,3.672692 -3.438802,4.744792 l 3.239583,2.563802 C 26.259141,23.104309 27.999999,19.748208 27.999999,16 c 0,-0.682645 -0.07159,-1.347787 -0.182292,-2 -3.939236,0 -7.878472,0 -11.817708,0 z"
     id="path4241"
     inkscape:connector-curvature="0"
     sodipodi:nodetypes="cccccscc" /><path
     style="color:#000000;font-style:normal;font-variant:normal;font-weight:normal;font-stretch:normal;font-size:medium;line-height:normal;font-family:sans-serif;text-indent:0;text-align:start;text-decoration:none;text-decoration-line:none;text-decoration-style:solid;text-decoration-color:#000000;letter-spacing:normal;word-spacing:normal;text-transform:none;direction:ltr;block-progression:tb;writing-mode:lr-tb;baseline-shift:baseline;text-anchor:start;white-space:normal;clip-rule:nonzero;display:inline;overflow:visible;visibility:visible;opacity:1;isolation:auto;mix-blend-mode:normal;color-interpolation:sRGB;color-interpolation-filters:linearRGB;solid-color:#000000;solid-opacity:1;fill:#ea4335;fill-opacity:1;fill-rule:nonzero;stroke:none;stroke-width:6;stroke-linecap:square;stroke-linejoin:miter;stroke-miterlimit:4;stroke-dasharray:none;stroke-dashoffset:0;stroke-opacity:1;color-rendering:auto;image-rendering:auto;shape-rendering:auto;text-rendering:auto;enable-background:accumulate"
     d="M 15.989062,4 C 11.251614,4 7.1480907,6.7838273 5.1999987,10.791667 l 3.239583,2.565104 C 9.5242067,10.228938 12.476253,8 15.989062,8 c 2.049933,0 3.905812,0.7642093 5.316406,2.016927 L 24.116666,7.2057293 C 21.97454,5.2238791 19.122008,4 15.989062,4 Z"
     id="path4248"
     inkscape:connector-curvature="0"
     sodipodi:nodetypes="sccsccs" /></svg>