
<!-- Created with Inkscape (http://www.inkscape.org/) -->
<svg viewBox="0 0 16 16" style="enable-background:new" xmlns="http://www.w3.org/2000/svg">
 <defs>
  <filter id="filter7554" style="color-interpolation-filters:sRGB">
   <feBlend in2="BackgroundImage" mode="darken"/>
  </filter>
 </defs>
 <g style="display:inline;filter:url(#filter7554)" transform="matrix(1 0 0 1 -385 159)">
  <rect y="-158" x="388" rx="0.5" height="3" width="3" style="fill:#353535;opacity:1;fill-opacity:1;stroke:none;fill-rule:nonzero"/>
  <rect y="-158" x="392" rx="0.5" height="3" width="3" style="fill:#353535;opacity:1;fill-opacity:1;stroke:none;fill-rule:nonzero"/>
  <rect y="-158" x="396" rx="0.5" height="3" width="3" style="fill:#353535;opacity:1;fill-opacity:1;stroke:none;fill-rule:nonzero"/>
  <rect y="-154" x="396" rx="0.5" height="3" width="3" style="fill:#353535;opacity:1;fill-opacity:1;stroke:none;fill-rule:nonzero"/>
  <rect y="-154" x="392" rx="0.5" height="3" width="3" style="fill:#353535;opacity:1;fill-opacity:1;stroke:none;fill-rule:nonzero"/>
  <rect y="-154" x="388" rx="0.5" height="3" width="3" style="fill:#353535;opacity:1;fill-opacity:1;stroke:none;fill-rule:nonzero"/>
  <rect y="-150" x="388" rx="0.5" height="3" width="3" style="fill:#353535;opacity:1;fill-opacity:1;stroke:none;fill-rule:nonzero"/>
  <rect y="-150" x="392" rx="0.5" height="3" width="3" style="fill:#353535;opacity:1;fill-opacity:1;stroke:none;fill-rule:nonzero"/>
  <rect y="-150" x="396" rx="0.5" height="3" width="3" style="fill:#353535;opacity:1;fill-opacity:1;stroke:none;fill-rule:nonzero"/>
  <rect y="-150" x="396" rx="0.5" height="3" width="3" style="fill:#353535;opacity:1;fill-opacity:1;stroke:none;fill-rule:nonzero"/>
  <rect y="-146" x="392" rx="0.5" height="3" width="3" style="fill:#353535;opacity:1;fill-opacity:1;stroke:none;fill-rule:nonzero"/>
 </g>
</svg>
