<svg width="24" xmlns="http://www.w3.org/2000/svg" height="24" viewBox="0 0 24 24" xmlns:xlink="http://www.w3.org/1999/xlink">
<path style="fill:#a33639" d="M 4 0.5 C 3.484375 0.5 3 0.984375 3 1.5 L 3 22.5 C 3 22.984375 3.515625 23.5 4 23.5 L 20 23.5 C 20.484375 23.5 21 22.984375 21 22.5 L 21 7 L 14.5 0.5 Z "/>
<path style="fill:#000;fill-opacity:.196" d="M 14.5 6 L 14.53125 6.03125 L 14.609375 6 Z M 15.5 7 L 21 12.5 L 21 7 Z "/>
<path style="fill:#fff;fill-opacity:.392" d="M 14.5 0.5 L 21 7 L 15.5 7 C 15.015625 7 14.5 6.484375 14.5 6 Z "/>
<g style="fill:#fff">
<path d="M 12 8 C 9.789062 8 8 8.558594 8 9.25 L 8 10.25 C 8 10.941406 9.789062 11.5 12 11.5 C 14.207031 11.5 16 10.941406 16 10.25 L 16 9.25 C 16 8.558594 14.207031 8 12 8 Z "/>
<path d="M 11.988281 12 C 10.195312 12 8.6875 11.632812 8.175781 11.125 C 8.058594 11.242188 8 11.371094 8 11.5 L 8 12.5 C 8 13.191406 9.789062 13.75 12 13.75 C 14.207031 13.75 16 13.191406 16 12.5 L 16 11.5 C 16 11.371094 15.929688 11.242188 15.808594 11.125 C 15.300781 11.632812 13.777344 12 11.988281 12 Z "/>
<path d="M 11.988281 14.25 C 10.195312 14.25 8.6875 13.882812 8.175781 13.375 C 8.058594 13.492188 8 13.621094 8 13.75 L 8 14.75 C 8 15.441406 9.789062 16 12 16 C 14.207031 16 16 15.441406 16 14.75 L 16 13.75 C 16 13.621094 15.929688 13.492188 15.808594 13.375 C 15.300781 13.882812 13.777344 14.25 11.988281 14.25 Z "/>
</g>
<path style="fill:#000;fill-opacity:.196" d="M 3 17.5 L 3 22.5 C 3 22.984375 3.515625 23.5 4 23.5 L 20 23.5 C 20.484375 23.5 21 22.984375 21 22.5 L 21 17.5 Z "/>
<g style="fill:#fff">
<path d="M 7.707031 22.417969 L 7.566406 21.535156 L 6.761719 21.535156 L 6.625 22.417969 L 6 22.417969 C 6.144531 21.664062 6.289062 20.976562 6.433594 20.359375 C 6.582031 19.734375 6.722656 19.144531 6.859375 18.585938 L 7.511719 18.585938 C 7.65625 19.148438 7.796875 19.746094 7.9375 20.375 C 8.078125 21.003906 8.21875 21.683594 8.351562 22.417969 L 7.707031 22.417969 M 7.171875 19.328125 C 7.136719 19.472656 7.105469 19.613281 7.078125 19.746094 C 7.050781 19.871094 7.027344 20 7 20.128906 C 6.976562 20.253906 6.953125 20.378906 6.933594 20.507812 C 6.914062 20.632812 6.894531 20.765625 6.875 20.902344 L 7.464844 20.902344 C 7.445312 20.765625 7.425781 20.632812 7.40625 20.507812 C 7.386719 20.378906 7.363281 20.253906 7.335938 20.128906 C 7.3125 20 7.289062 19.871094 7.257812 19.746094 C 7.234375 19.613281 7.203125 19.472656 7.171875 19.328125 "/>
<path d="M 9.839844 22.5 C 9.414062 22.5 9.085938 22.328125 8.863281 21.980469 C 8.640625 21.632812 8.527344 21.140625 8.527344 20.5 C 8.527344 20.183594 8.5625 19.898438 8.628906 19.652344 C 8.699219 19.402344 8.792969 19.195312 8.914062 19.027344 C 9.035156 18.851562 9.179688 18.722656 9.347656 18.636719 C 9.515625 18.546875 9.699219 18.5 9.898438 18.5 C 10.003906 18.5 10.101562 18.511719 10.183594 18.535156 C 10.273438 18.558594 10.347656 18.582031 10.414062 18.613281 C 10.480469 18.640625 10.535156 18.671875 10.574219 18.703125 C 10.621094 18.738281 10.65625 18.761719 10.679688 18.777344 L 10.523438 19.386719 C 10.445312 19.324219 10.355469 19.273438 10.25 19.230469 C 10.144531 19.183594 10.023438 19.164062 9.886719 19.164062 C 9.792969 19.164062 9.699219 19.183594 9.609375 19.230469 C 9.523438 19.273438 9.441406 19.34375 9.371094 19.449219 C 9.300781 19.546875 9.246094 19.679688 9.199219 19.851562 C 9.15625 20.019531 9.136719 20.230469 9.136719 20.480469 C 9.136719 20.917969 9.195312 21.253906 9.3125 21.492188 C 9.433594 21.722656 9.628906 21.835938 9.898438 21.835938 C 10.054688 21.835938 10.183594 21.816406 10.28125 21.769531 C 10.386719 21.722656 10.46875 21.679688 10.53125 21.632812 L 10.683594 22.234375 C 10.597656 22.300781 10.484375 22.363281 10.335938 22.417969 C 10.195312 22.472656 10.027344 22.5 9.839844 22.5 "/>
<path d="M 12.277344 22.5 C 11.851562 22.5 11.527344 22.328125 11.300781 21.980469 C 11.078125 21.632812 10.964844 21.140625 10.964844 20.5 C 10.964844 20.183594 11 19.898438 11.066406 19.652344 C 11.136719 19.402344 11.230469 19.195312 11.351562 19.027344 C 11.476562 18.851562 11.621094 18.722656 11.785156 18.636719 C 11.953125 18.546875 12.136719 18.5 12.335938 18.5 C 12.445312 18.5 12.539062 18.511719 12.625 18.535156 C 12.710938 18.558594 12.789062 18.582031 12.855469 18.613281 C 12.917969 18.640625 12.972656 18.671875 13.015625 18.703125 C 13.058594 18.738281 13.09375 18.761719 13.117188 18.777344 L 12.960938 19.386719 C 12.886719 19.324219 12.796875 19.273438 12.6875 19.230469 C 12.582031 19.183594 12.464844 19.164062 12.328125 19.164062 C 12.234375 19.164062 12.140625 19.183594 12.046875 19.230469 C 11.960938 19.273438 11.882812 19.34375 11.808594 19.449219 C 11.742188 19.546875 11.683594 19.679688 11.640625 19.851562 C 11.597656 20.019531 11.574219 20.230469 11.574219 20.480469 C 11.574219 20.917969 11.632812 21.253906 11.75 21.492188 C 11.871094 21.722656 12.066406 21.835938 12.335938 21.835938 C 12.492188 21.835938 12.621094 21.816406 12.722656 21.769531 C 12.824219 21.722656 12.910156 21.679688 12.96875 21.632812 L 13.121094 22.234375 C 13.039062 22.300781 12.921875 22.363281 12.777344 22.417969 C 12.632812 22.472656 12.464844 22.5 12.277344 22.5 "/>
<path d="M 14.136719 21.800781 C 14.152344 21.804688 14.171875 21.804688 14.191406 21.804688 C 14.210938 21.804688 14.226562 21.804688 14.242188 21.804688 C 14.378906 21.804688 14.496094 21.773438 14.585938 21.707031 C 14.679688 21.640625 14.753906 21.550781 14.808594 21.433594 C 14.867188 21.320312 14.910156 21.183594 14.933594 21.027344 C 14.957031 20.867188 14.96875 20.691406 14.96875 20.5 C 14.96875 20.335938 14.960938 20.171875 14.941406 20.015625 C 14.921875 19.859375 14.886719 19.722656 14.839844 19.601562 C 14.789062 19.480469 14.722656 19.386719 14.640625 19.316406 C 14.554688 19.242188 14.445312 19.207031 14.3125 19.207031 C 14.285156 19.207031 14.257812 19.207031 14.222656 19.210938 C 14.191406 19.210938 14.164062 19.214844 14.136719 19.222656 L 14.136719 21.800781 M 15.582031 20.5 C 15.582031 20.855469 15.542969 21.160156 15.472656 21.410156 C 15.40625 21.65625 15.308594 21.859375 15.183594 22.015625 C 15.0625 22.171875 14.914062 22.289062 14.742188 22.363281 C 14.574219 22.433594 14.386719 22.46875 14.179688 22.46875 C 14.074219 22.46875 13.96875 22.460938 13.863281 22.445312 C 13.761719 22.433594 13.652344 22.410156 13.535156 22.375 L 13.535156 18.636719 C 13.671875 18.597656 13.800781 18.574219 13.921875 18.5625 C 14.042969 18.550781 14.15625 18.542969 14.257812 18.542969 C 14.457031 18.542969 14.636719 18.582031 14.800781 18.65625 C 14.964844 18.730469 15.105469 18.847656 15.21875 19.007812 C 15.332031 19.164062 15.421875 19.367188 15.484375 19.613281 C 15.546875 19.859375 15.582031 20.152344 15.582031 20.5 "/>
<path d="M 18 21.261719 C 18 21.492188 17.96875 21.6875 17.90625 21.84375 C 17.84375 21.996094 17.761719 22.121094 17.652344 22.214844 C 17.550781 22.304688 17.425781 22.371094 17.277344 22.414062 C 17.136719 22.449219 16.980469 22.46875 16.816406 22.46875 C 16.679688 22.46875 16.542969 22.457031 16.398438 22.4375 C 16.257812 22.421875 16.117188 22.394531 15.976562 22.359375 L 15.976562 18.636719 C 16.089844 18.613281 16.214844 18.589844 16.351562 18.574219 C 16.488281 18.554688 16.621094 18.542969 16.757812 18.542969 C 16.984375 18.542969 17.167969 18.574219 17.3125 18.636719 C 17.457031 18.695312 17.566406 18.773438 17.648438 18.871094 C 17.730469 18.964844 17.785156 19.074219 17.816406 19.195312 C 17.84375 19.3125 17.859375 19.433594 17.859375 19.550781 C 17.859375 19.734375 17.824219 19.894531 17.75 20.035156 C 17.683594 20.175781 17.589844 20.289062 17.472656 20.371094 C 17.679688 20.464844 17.816406 20.59375 17.886719 20.753906 C 17.960938 20.914062 18 21.085938 18 21.261719 M 16.574219 20.742188 L 16.574219 21.78125 C 16.617188 21.789062 16.664062 21.796875 16.710938 21.800781 C 16.765625 21.804688 16.816406 21.804688 16.863281 21.804688 C 16.933594 21.804688 17 21.800781 17.0625 21.789062 C 17.128906 21.769531 17.183594 21.746094 17.234375 21.707031 C 17.285156 21.667969 17.328125 21.609375 17.359375 21.539062 C 17.394531 21.464844 17.410156 21.371094 17.410156 21.261719 C 17.410156 21.074219 17.363281 20.945312 17.269531 20.867188 C 17.175781 20.78125 17.054688 20.742188 16.898438 20.742188 L 16.574219 20.742188 M 16.808594 20.109375 C 16.960938 20.109375 17.078125 20.070312 17.15625 19.984375 C 17.234375 19.898438 17.273438 19.78125 17.273438 19.632812 C 17.273438 19.542969 17.261719 19.46875 17.238281 19.417969 C 17.214844 19.359375 17.183594 19.316406 17.144531 19.285156 C 17.105469 19.253906 17.0625 19.234375 17.007812 19.222656 C 16.957031 19.210938 16.902344 19.207031 16.847656 19.207031 C 16.804688 19.207031 16.757812 19.207031 16.707031 19.210938 C 16.660156 19.214844 16.613281 19.222656 16.574219 19.230469 L 16.574219 20.109375 L 16.808594 20.109375 "/>
</g>
</svg>
