<svg width="24" xmlns="http://www.w3.org/2000/svg" height="24" viewBox="0 0 24 24" xmlns:xlink="http://www.w3.org/1999/xlink">
<path style="fill:#c19553" d="M 4 0.5 C 3.484375 0.5 3 0.984375 3 1.5 L 3 22.5 C 3 22.984375 3.515625 23.5 4 23.5 L 20 23.5 C 20.484375 23.5 21 22.984375 21 22.5 L 21 7 L 14.5 0.5 Z "/>
<path style="fill:#000;fill-opacity:.196" d="M 14.5 6 L 14.53125 6.03125 L 14.609375 6 Z M 15.5 7 L 21 12.5 L 21 7 Z "/>
<path style="fill:#fff;fill-opacity:.392" d="M 14.5 0.5 L 21 7 L 15.5 7 C 15.015625 7 14.5 6.484375 14.5 6 Z "/>
<path style="fill:#000;fill-opacity:.196" d="M 3 17.5 L 3 22.5 C 3 22.984375 3.515625 23.5 4 23.5 L 20 23.5 C 20.484375 23.5 21 22.984375 21 22.5 L 21 17.5 Z "/>
<g style="fill:#fff">
<path d="M 9 0.5 L 9 2.5 L 11 2.5 L 11 0.5 Z M 9 2.5 L 7 2.5 L 7 4.5 L 9 4.5 Z M 9 4.5 L 9 6.5 L 11 6.5 L 11 4.5 Z M 9 6.5 L 7 6.5 L 7 8.5 L 9 8.5 Z M 9 8.5 L 9 10.5 L 11 10.5 L 11 8.5 Z M 7 11.5 L 7 15.5 L 11 15.5 L 11 11.5 Z "/>
<path d="M 9.8125 22.5 L 7 22.5 L 7 18.5 L 7.898438 18.5 L 7.898438 21.839844 L 9.8125 21.839844 L 9.8125 22.5 "/>
<path d="M 13.390625 18.5 L 13.390625 22.5 L 12.503906 22.5 L 12.503906 20.734375 L 11.316406 20.734375 L 11.316406 22.5 L 10.425781 22.5 L 10.425781 18.5 L 11.316406 18.5 L 11.316406 20.078125 L 12.503906 20.078125 L 12.503906 18.5 L 13.390625 18.5 "/>
<path d="M 16.933594 19.054688 C 16.726562 19.339844 16.539062 19.605469 16.363281 19.855469 C 16.191406 20.105469 16.027344 20.347656 15.878906 20.574219 C 15.730469 20.796875 15.585938 21.015625 15.453125 21.226562 C 15.324219 21.433594 15.195312 21.636719 15.078125 21.839844 L 17 21.839844 L 17 22.5 L 14.050781 22.5 L 14.050781 22.042969 C 14.15625 21.855469 14.269531 21.660156 14.390625 21.460938 C 14.511719 21.253906 14.644531 21.03125 14.792969 20.800781 C 14.945312 20.566406 15.105469 20.316406 15.277344 20.042969 C 15.457031 19.773438 15.652344 19.476562 15.863281 19.160156 L 14.144531 19.160156 L 14.144531 18.5 L 16.933594 18.5 L 16.933594 19.054688 "/>
</g>
</svg>
