<svg width="24" xmlns="http://www.w3.org/2000/svg" height="24" viewBox="0 0 24 24" xmlns:xlink="http://www.w3.org/1999/xlink">
<path style="fill:#dcdcdc" d="M 4 0.5 C 3.488281 0.5 3 0.984375 3 1.5 L 3 22.5 C 3 22.988281 3.515625 23.5 4 23.5 L 20 23.5 C 20.484375 23.5 21 22.988281 21 22.5 L 21 7 L 14.5 0.5 Z "/>
<path style="fill:#000;fill-opacity:.196" d="M 14.5 6 L 14.53125 6.03125 L 14.609375 6 Z M 15.5 7 L 21 12.5 L 21 7 Z "/>
<path style="fill:#fff;fill-opacity:.392" d="M 14.5 0.5 L 21 7 L 15.5 7 C 15.015625 7 14.5 6.488281 14.5 6 Z "/>
<g style="fill:#535353">
<path d="M 9.6875 15.496094 C 9.6875 15.800781 9.769531 16.019531 9.921875 16.15625 C 10.082031 16.292969 10.316406 16.367188 10.625 16.375 L 10.625 17 C 10.109375 16.996094 9.707031 16.863281 9.425781 16.613281 C 9.144531 16.355469 9.003906 16 9.003906 15.539062 L 9.003906 14.183594 C 9.003906 13.871094 8.917969 13.652344 8.746094 13.519531 C 8.574219 13.386719 8.324219 13.316406 8 13.316406 L 8 12.683594 C 8.351562 12.679688 8.605469 12.609375 8.765625 12.472656 C 8.925781 12.332031 9.003906 12.121094 9.003906 11.835938 L 9.003906 10.464844 C 9.003906 10.003906 9.148438 9.640625 9.441406 9.382812 C 9.734375 9.128906 10.128906 9 10.625 9 L 10.625 9.625 C 10 9.640625 9.6875 9.9375 9.6875 10.515625 L 9.6875 11.835938 C 9.6875 12.476562 9.382812 12.855469 8.777344 12.972656 L 8.777344 13.027344 C 9.382812 13.144531 9.6875 13.523438 9.6875 14.164062 L 9.6875 15.496094 "/>
<path d="M 15.214844 12.972656 C 14.605469 12.855469 14.300781 12.476562 14.300781 11.835938 L 14.300781 10.515625 C 14.300781 9.9375 13.996094 9.640625 13.378906 9.625 L 13.378906 9 C 13.878906 9 14.269531 9.128906 14.558594 9.390625 C 14.84375 9.652344 14.988281 10.007812 14.988281 10.464844 L 14.988281 11.835938 C 14.988281 12.125 15.066406 12.339844 15.230469 12.472656 C 15.390625 12.609375 15.648438 12.679688 16 12.683594 L 16 13.316406 C 15.667969 13.316406 15.417969 13.386719 15.246094 13.519531 C 15.074219 13.652344 14.988281 13.871094 14.988281 14.183594 L 14.988281 15.539062 C 14.988281 15.996094 14.847656 16.351562 14.570312 16.605469 C 14.292969 16.863281 13.894531 16.996094 13.378906 17 L 13.378906 16.375 C 13.679688 16.367188 13.910156 16.292969 14.066406 16.15625 C 14.222656 16.019531 14.300781 15.800781 14.300781 15.496094 L 14.300781 14.164062 C 14.300781 13.824219 14.378906 13.566406 14.527344 13.386719 C 14.675781 13.207031 14.90625 13.085938 15.214844 13.027344 L 15.214844 12.972656 "/>
</g>
</svg>
