<svg width="24" xmlns="http://www.w3.org/2000/svg" height="24" viewBox="0 0 24 24" xmlns:xlink="http://www.w3.org/1999/xlink">
<path style="fill:#207145" d="M 4 0.5 C 3.484375 0.5 3 0.984375 3 1.5 L 3 22.5 C 3 22.984375 3.515625 23.5 4 23.5 L 20 23.5 C 20.484375 23.5 21 22.984375 21 22.5 L 21 1.5 C 21 0.984375 20.515625 0.5 20 0.5 Z "/>
<path style="fill:#fff" d="M 17 7 C 17 10.519531 17 13.949219 17 17 C 13.488281 17 10.035156 17 7 17 C 7 13.480469 7 10.050781 7 7 C 10.472656 7 14.023438 7 17 7 Z M 16 8 L 11.5 8 L 11.5 10 L 16 10 Z M 10.5 8 L 8 8 L 8 10 L 10.5 10 Z M 16 11 L 11.5 11 L 11.5 13 L 16 13 Z M 10.5 11 L 8 11 L 8 13 L 10.5 13 Z M 16 14 L 11.5 14 L 11.5 16 L 16 16 Z M 10.5 14 L 8 14 L 8 16 L 10.5 16 Z "/>
</svg>
