<svg width="24" xmlns="http://www.w3.org/2000/svg" height="24" viewBox="0 0 24 24" xmlns:xlink="http://www.w3.org/1999/xlink">
<path style="fill:#dcdcdc" d="M 4 0.5 C 3.488281 0.5 3 0.984375 3 1.5 L 3 22.5 C 3 22.988281 3.515625 23.5 4 23.5 L 20 23.5 C 20.484375 23.5 21 22.988281 21 22.5 L 21 7 L 14.5 0.5 Z "/>
<path style="fill:#000;fill-opacity:.196" d="M 14.5 6 L 14.53125 6.03125 L 14.609375 6 Z M 15.5 7 L 21 12.5 L 21 7 Z "/>
<path style="fill:#fff;fill-opacity:.392" d="M 14.5 0.5 L 21 7 L 15.5 7 C 15.015625 7 14.5 6.488281 14.5 6 Z "/>
<g style="fill:#535353">
<path d="M 8.855469 8.238281 L 8.4375 8.238281 L 8.4375 6.652344 C 8.285156 6.792969 8.105469 6.898438 7.898438 6.96875 L 7.898438 6.589844 C 8.007812 6.550781 8.125 6.484375 8.253906 6.382812 C 8.382812 6.28125 8.46875 6.164062 8.515625 6.03125 L 8.855469 6.03125 L 8.855469 8.238281 "/>
<path d="M 8.855469 11.292969 L 8.4375 11.292969 L 8.4375 9.703125 C 8.285156 9.847656 8.105469 9.957031 7.898438 10.023438 L 7.898438 9.640625 C 8.007812 9.605469 8.125 9.535156 8.253906 9.4375 C 8.382812 9.335938 8.46875 9.21875 8.515625 9.085938 L 8.855469 9.085938 L 8.855469 11.292969 "/>
<path d="M 10.191406 9.085938 C 10.402344 9.085938 10.570312 9.160156 10.6875 9.3125 C 10.832031 9.492188 10.902344 9.792969 10.902344 10.207031 C 10.902344 10.621094 10.832031 10.921875 10.6875 11.105469 C 10.566406 11.253906 10.402344 11.328125 10.191406 11.328125 C 9.980469 11.328125 9.808594 11.246094 9.675781 11.082031 C 9.546875 10.917969 9.484375 10.621094 9.484375 10.203125 C 9.484375 9.789062 9.554688 9.492188 9.699219 9.308594 C 9.816406 9.160156 9.980469 9.085938 10.191406 9.085938 M 10.191406 9.433594 C 10.144531 9.433594 10.097656 9.449219 10.058594 9.484375 C 10.015625 9.515625 9.988281 9.574219 9.964844 9.65625 C 9.933594 9.769531 9.917969 9.949219 9.917969 10.207031 C 9.917969 10.464844 9.933594 10.644531 9.960938 10.738281 C 9.984375 10.832031 10.015625 10.898438 10.058594 10.929688 C 10.097656 10.964844 10.144531 10.980469 10.191406 10.980469 C 10.242188 10.980469 10.289062 10.964844 10.328125 10.929688 C 10.367188 10.898438 10.398438 10.839844 10.421875 10.753906 C 10.449219 10.644531 10.464844 10.464844 10.464844 10.207031 C 10.464844 9.949219 10.449219 9.773438 10.425781 9.675781 C 10.398438 9.582031 10.363281 9.515625 10.328125 9.484375 C 10.285156 9.449219 10.242188 9.433594 10.191406 9.433594 "/>
<path d="M 8.855469 14.871094 L 8.4375 14.871094 L 8.4375 13.285156 C 8.285156 13.425781 8.105469 13.535156 7.898438 13.601562 L 7.898438 13.222656 C 8.007812 13.1875 8.125 13.117188 8.253906 13.015625 C 8.382812 12.917969 8.46875 12.800781 8.515625 12.664062 L 8.855469 12.664062 L 8.855469 14.871094 "/>
<path d="M 10.191406 12.664062 C 10.402344 12.664062 10.570312 12.742188 10.6875 12.894531 C 10.832031 13.074219 10.902344 13.371094 10.902344 13.785156 C 10.902344 14.203125 10.832031 14.503906 10.6875 14.683594 C 10.566406 14.832031 10.402344 14.910156 10.191406 14.910156 C 9.980469 14.910156 9.808594 14.828125 9.675781 14.664062 C 9.546875 14.5 9.484375 14.207031 9.484375 13.785156 C 9.484375 13.367188 9.554688 13.074219 9.699219 12.890625 C 9.816406 12.742188 9.980469 12.664062 10.191406 12.664062 M 10.191406 13.011719 C 10.144531 13.011719 10.097656 13.03125 10.058594 13.0625 C 10.015625 13.097656 9.988281 13.152344 9.964844 13.238281 C 9.933594 13.347656 9.917969 13.527344 9.917969 13.785156 C 9.917969 14.042969 9.933594 14.222656 9.960938 14.320312 C 9.984375 14.417969 10.015625 14.480469 10.058594 14.511719 C 10.097656 14.542969 10.144531 14.558594 10.191406 14.558594 C 10.242188 14.558594 10.289062 14.542969 10.328125 14.511719 C 10.367188 14.480469 10.398438 14.417969 10.421875 14.335938 C 10.449219 14.230469 10.464844 14.042969 10.464844 13.785156 C 10.464844 13.527344 10.449219 13.355469 10.425781 13.257812 C 10.398438 13.160156 10.363281 13.097656 10.328125 13.0625 C 10.285156 13.03125 10.242188 13.011719 10.191406 13.011719 "/>
<path d="M 12.253906 14.871094 L 11.835938 14.871094 L 11.835938 13.285156 C 11.683594 13.425781 11.503906 13.535156 11.292969 13.601562 L 11.292969 13.222656 C 11.40625 13.1875 11.523438 13.117188 11.652344 13.015625 C 11.78125 12.917969 11.867188 12.800781 11.914062 12.664062 L 12.253906 12.664062 L 12.253906 14.871094 "/>
<path d="M 8.855469 17.957031 L 8.4375 17.957031 L 8.4375 16.367188 C 8.285156 16.515625 8.105469 16.621094 7.898438 16.6875 L 7.898438 16.308594 C 8.007812 16.269531 8.125 16.203125 8.253906 16.101562 C 8.382812 16.003906 8.46875 15.886719 8.515625 15.75 L 8.855469 15.75 L 8.855469 17.957031 "/>
<path d="M 10.191406 15.75 C 10.402344 15.75 10.570312 15.824219 10.6875 15.980469 C 10.832031 16.15625 10.902344 16.457031 10.902344 16.871094 C 10.902344 17.289062 10.832031 17.585938 10.6875 17.769531 C 10.566406 17.917969 10.402344 17.996094 10.191406 17.996094 C 9.980469 17.996094 9.808594 17.910156 9.675781 17.746094 C 9.546875 17.582031 9.484375 17.292969 9.484375 16.871094 C 9.484375 16.457031 9.554688 16.15625 9.699219 15.976562 C 9.816406 15.824219 9.980469 15.75 10.191406 15.75 M 10.191406 16.097656 C 10.144531 16.097656 10.097656 16.117188 10.058594 16.148438 C 10.015625 16.179688 9.988281 16.238281 9.964844 16.324219 C 9.933594 16.433594 9.917969 16.613281 9.917969 16.871094 C 9.917969 17.128906 9.933594 17.308594 9.960938 17.40625 C 9.984375 17.503906 10.015625 17.5625 10.058594 17.597656 C 10.097656 17.628906 10.144531 17.644531 10.191406 17.644531 C 10.242188 17.644531 10.289062 17.628906 10.328125 17.597656 C 10.367188 17.5625 10.398438 17.503906 10.421875 17.421875 C 10.449219 17.316406 10.464844 17.128906 10.464844 16.871094 C 10.464844 16.613281 10.449219 16.4375 10.425781 16.339844 C 10.398438 16.246094 10.363281 16.179688 10.328125 16.148438 C 10.285156 16.117188 10.242188 16.097656 10.191406 16.097656 "/>
<path d="M 12.253906 17.957031 L 11.835938 17.957031 L 11.835938 16.367188 C 11.683594 16.515625 11.503906 16.621094 11.292969 16.6875 L 11.292969 16.308594 C 11.40625 16.269531 11.523438 16.203125 11.652344 16.101562 C 11.78125 16.003906 11.867188 15.886719 11.914062 15.75 L 12.253906 15.75 L 12.253906 17.957031 "/>
<path d="M 13.589844 15.75 C 13.800781 15.75 13.964844 15.824219 14.085938 15.980469 C 14.230469 16.15625 14.300781 16.457031 14.300781 16.871094 C 14.300781 17.289062 14.226562 17.585938 14.085938 17.769531 C 13.964844 17.917969 13.800781 17.996094 13.589844 17.996094 C 13.378906 17.996094 13.207031 17.910156 13.074219 17.746094 C 12.945312 17.582031 12.882812 17.292969 12.882812 16.871094 C 12.882812 16.457031 12.953125 16.15625 13.097656 15.976562 C 13.214844 15.824219 13.378906 15.75 13.589844 15.75 M 13.589844 16.097656 C 13.539062 16.097656 13.496094 16.117188 13.453125 16.148438 C 13.414062 16.179688 13.382812 16.238281 13.363281 16.324219 C 13.332031 16.433594 13.316406 16.613281 13.316406 16.871094 C 13.316406 17.128906 13.332031 17.308594 13.355469 17.40625 C 13.382812 17.503906 13.414062 17.5625 13.453125 17.597656 C 13.496094 17.628906 13.539062 17.644531 13.589844 17.644531 C 13.640625 17.644531 13.683594 17.628906 13.726562 17.597656 C 13.765625 17.5625 13.796875 17.503906 13.820312 17.421875 C 13.847656 17.316406 13.859375 17.128906 13.859375 16.871094 C 13.859375 16.613281 13.847656 16.4375 13.824219 16.339844 C 13.796875 16.246094 13.761719 16.179688 13.726562 16.148438 C 13.683594 16.117188 13.640625 16.097656 13.589844 16.097656 "/>
</g>
</svg>
