<svg width="24" xmlns="http://www.w3.org/2000/svg" height="24" viewBox="0 0 24 24" xmlns:xlink="http://www.w3.org/1999/xlink">
<path style="fill:#c19553" d="M 4 0.5 C 3.484375 0.5 3 0.984375 3 1.5 L 3 22.5 C 3 22.984375 3.515625 23.5 4 23.5 L 20 23.5 C 20.484375 23.5 21 22.984375 21 22.5 L 21 7 L 14.5 0.5 Z "/>
<path style="fill:#000;fill-opacity:.196" d="M 14.5 6 L 14.53125 6.03125 L 14.609375 6 Z M 15.5 7 L 21 12.5 L 21 7 Z "/>
<path style="fill:#fff;fill-opacity:.392" d="M 14.5 0.5 L 21 7 L 15.5 7 C 15.015625 7 14.5 6.484375 14.5 6 Z "/>
<path style="fill:#000;fill-opacity:.196" d="M 3 17.5 L 3 22.5 C 3 22.984375 3.515625 23.5 4 23.5 L 20 23.5 C 20.484375 23.5 21 22.984375 21 22.5 L 21 17.5 Z "/>
<g style="fill:#fff">
<path d="M 9 0.5 L 9 2.5 L 11 2.5 L 11 0.5 Z M 9 2.5 L 7 2.5 L 7 4.5 L 9 4.5 Z M 9 4.5 L 9 6.5 L 11 6.5 L 11 4.5 Z M 9 6.5 L 7 6.5 L 7 8.5 L 9 8.5 Z M 9 8.5 L 9 10.5 L 11 10.5 L 11 8.5 Z M 7 11.5 L 7 15.5 L 11 15.5 L 11 11.5 Z "/>
<path d="M 10.148438 18.585938 L 10.148438 19.21875 L 9.007812 19.21875 L 9.007812 22.417969 L 8.140625 22.417969 L 8.140625 19.21875 L 7 19.21875 L 7 18.585938 L 10.148438 18.585938 "/>
<path d="M 12.507812 19.164062 C 12.300781 19.164062 12.128906 19.195312 11.988281 19.261719 C 11.847656 19.328125 11.734375 19.421875 11.640625 19.539062 C 11.550781 19.65625 11.484375 19.796875 11.445312 19.960938 C 11.40625 20.121094 11.386719 20.300781 11.386719 20.5 C 11.386719 20.957031 11.46875 21.296875 11.632812 21.515625 C 11.796875 21.730469 12.035156 21.835938 12.351562 21.835938 C 12.40625 21.835938 12.460938 21.835938 12.519531 21.832031 C 12.582031 21.828125 12.636719 21.820312 12.6875 21.8125 L 12.6875 20.414062 L 13.550781 20.414062 L 13.550781 22.328125 C 13.449219 22.359375 13.285156 22.398438 13.066406 22.4375 C 12.851562 22.480469 12.589844 22.5 12.285156 22.5 C 12.011719 22.5 11.769531 22.457031 11.546875 22.375 C 11.335938 22.289062 11.148438 22.164062 10.996094 22 C 10.84375 21.828125 10.722656 21.621094 10.640625 21.371094 C 10.554688 21.121094 10.511719 20.832031 10.511719 20.5 C 10.511719 20.171875 10.5625 19.886719 10.660156 19.640625 C 10.757812 19.386719 10.890625 19.175781 11.058594 19.007812 C 11.226562 18.839844 11.425781 18.710938 11.652344 18.628906 C 11.882812 18.542969 12.128906 18.5 12.386719 18.5 C 12.554688 18.5 12.707031 18.511719 12.835938 18.535156 C 12.972656 18.558594 13.089844 18.582031 13.1875 18.613281 C 13.285156 18.640625 13.363281 18.671875 13.425781 18.703125 C 13.488281 18.738281 13.539062 18.761719 13.570312 18.777344 L 13.347656 19.386719 C 13.246094 19.328125 13.117188 19.277344 12.96875 19.230469 C 12.820312 19.183594 12.664062 19.164062 12.507812 19.164062 "/>
<path d="M 16.9375 19.117188 C 16.738281 19.390625 16.550781 19.648438 16.382812 19.886719 C 16.214844 20.125 16.058594 20.355469 15.914062 20.574219 C 15.769531 20.789062 15.632812 20.996094 15.503906 21.199219 C 15.375 21.398438 15.253906 21.59375 15.136719 21.789062 L 17 21.789062 L 17 22.417969 L 14.144531 22.417969 L 14.144531 21.980469 C 14.246094 21.800781 14.355469 21.617188 14.472656 21.421875 C 14.589844 21.222656 14.722656 21.015625 14.867188 20.789062 C 15.011719 20.566406 15.167969 20.328125 15.335938 20.066406 C 15.507812 19.804688 15.695312 19.523438 15.902344 19.21875 L 14.234375 19.21875 L 14.234375 18.585938 L 16.9375 18.585938 L 16.9375 19.117188 "/>
</g>
</svg>
