<svg width="24" xmlns="http://www.w3.org/2000/svg" height="24" viewBox="0 0 24 24" xmlns:xlink="http://www.w3.org/1999/xlink">
<path style="fill:#c19553" d="M 4.027344 3 C 3.515625 3 3 3.515625 3 4.027344 L 3 20 C 3 20.484375 3.515625 21 4 21 L 20 21 C 20.484375 21 21 20.484375 21 20 L 21 4 C 21 3.515625 20.484375 3 20 3 Z "/>
<g style="fill:#fff">
<path style="fill-opacity:.196" d="M 4.027344 3 C 3.515625 3 3 3.515625 3 4.027344 L 3 9 C 5 9 19 9 21 9 L 21 4 C 21 3.515625 20.484375 3 20 3 Z "/>
<path style="fill-opacity:.392" d="M 10.5 5 L 10.5 13 L 13.5 13 L 13.5 5 Z "/>
</g>
</svg>
