<svg width="128" xmlns="http://www.w3.org/2000/svg" height="128" viewBox="0 0 128 128" xmlns:xlink="http://www.w3.org/1999/xlink">
<g style="fill:#648db5">
<path d="M 63.496094 21.347656 C 60.015625 21.363281 56.691406 21.660156 53.769531 22.175781 C 45.152344 23.699219 43.589844 26.882812 43.589844 32.757812 L 43.589844 40.519531 L 63.945312 40.519531 L 63.945312 43.105469 L 35.949219 43.105469 C 30.03125 43.105469 24.851562 46.660156 23.230469 53.425781 C 21.359375 61.179688 21.277344 66.019531 23.230469 74.117188 C 24.675781 80.144531 28.132812 84.4375 34.050781 84.4375 L 40.050781 84.4375 L 40.050781 74.136719 C 40.050781 67.417969 45.863281 61.488281 52.769531 61.488281 L 74.101562 61.488281 C 79.761719 61.488281 85.113281 56.828125 85.113281 51.144531 L 85.113281 32.757812 C 85.113281 27.242188 79.625 23.097656 74.101562 22.175781 C 70.605469 21.59375 66.976562 21.332031 63.496094 21.347656 Z M 52.488281 27.585938 C 54.589844 27.585938 56.304688 29.332031 56.304688 31.476562 C 56.304688 33.617188 54.589844 35.34375 52.488281 35.34375 C 50.375 35.34375 48.667969 33.617188 48.667969 31.476562 C 48.667969 29.332031 50.375 27.585938 52.488281 27.585938 Z "/>
<path d="M 87.988281 43.105469 L 87.988281 52.144531 C 87.988281 59.152344 82.042969 64.21875 75.269531 64.21875 L 52.933594 64.21875 C 47.363281 64.21875 42.753906 69.820312 42.753906 75.398438 L 42.753906 94.78125 C 42.753906 100.300781 47.554688 103.546875 52.933594 105.128906 C 59.378906 107.023438 66.390625 107.367188 74.101562 105.128906 C 79.226562 103.644531 84.28125 100.65625 84.28125 94.78125 L 84.28125 87.023438 L 63.945312 87.023438 L 63.945312 84.4375 L 94.460938 84.4375 C 100.378906 84.4375 102.582031 80.3125 104.640625 74.117188 C 106.765625 67.738281 106.675781 61.605469 104.640625 53.425781 C 103.175781 47.535156 100.382812 43.105469 94.460938 43.105469 Z M 75.382812 92.195312 C 77.492188 92.195312 79.203125 93.925781 79.203125 96.0625 C 79.203125 98.210938 77.492188 99.957031 75.382812 99.957031 C 73.28125 99.957031 71.5625 98.210938 71.5625 96.0625 C 71.5625 93.925781 73.28125 92.195312 75.382812 92.195312 Z "/>
</g>
</svg>
