<?xml version="1.0" encoding="UTF-8" standalone="no"?>
<svg
   xmlns:dc="http://purl.org/dc/elements/1.1/"
   xmlns:cc="http://creativecommons.org/ns#"
   xmlns:rdf="http://www.w3.org/1999/02/22-rdf-syntax-ns#"
   xmlns:svg="http://www.w3.org/2000/svg"
   xmlns="http://www.w3.org/2000/svg"
   xmlns:sodipodi="http://sodipodi.sourceforge.net/DTD/sodipodi-0.dtd"
   xmlns:inkscape="http://www.inkscape.org/namespaces/inkscape"
   width="128"
   height="128"
   viewBox="0 0 128 128"
   id="svg2"
   version="1.1"
   inkscape:version="0.91 r"
   sodipodi:docname="applications-libraries.svg">
  <metadata
     id="metadata16">
    <rdf:RDF>
      <cc:Work
         rdf:about="">
        <dc:format>image/svg+xml</dc:format>
        <dc:type
           rdf:resource="http://purl.org/dc/dcmitype/StillImage" />
        <dc:title />
      </cc:Work>
    </rdf:RDF>
  </metadata>
  <defs
     id="defs14" />
  <sodipodi:namedview
     pagecolor="#ffffff"
     bordercolor="#666666"
     borderopacity="1"
     objecttolerance="10"
     gridtolerance="10"
     guidetolerance="10"
     inkscape:pageopacity="0"
     inkscape:pageshadow="2"
     inkscape:window-width="1680"
     inkscape:window-height="1026"
     id="namedview12"
     showgrid="true"
     inkscape:zoom="3.6875"
     inkscape:cx="38.537878"
     inkscape:cy="57.11723"
     inkscape:window-x="0"
     inkscape:window-y="24"
     inkscape:window-maximized="1"
     inkscape:current-layer="svg2">
    <inkscape:grid
       type="xygrid"
       id="grid4144" />
  </sodipodi:namedview>
  <path
     style="fill:#b2a445"
     d="M 19.125039,12 C 17.392754,12 16,13.47168 16,15.320312 l 0,97.359378 C 16,114.52832 17.392754,116 19.125039,116 l 17.734599,0 c 1.74709,0 3.140664,-1.47168 3.140664,-3.32031 l 0,-97.359378 C 40.000302,13.47168 38.606726,12 36.859638,12 Z m 0.875011,8 16.000202,0 0,40 -16.000202,0 z m 8.0001,70 c 3.31375,0 6.000076,2.686292 6.000076,6 0,3.31371 -2.686326,6 -6.000076,6 -3.31375,0 -6.000074,-2.68629 -6.000074,-6 0,-3.313708 2.686324,-6 6.000074,-6 z"
     id="path6"
     inkscape:connector-curvature="0"
     sodipodi:nodetypes="ssssssssscccccsssss" />
  <path
     style="fill:#b2a445"
     d="m 50.773874,12 c -1.530684,0 -2.773472,1.47168 -2.773472,3.320312 l 0,97.359378 c 0,1.84863 1.242788,3.32031 2.773472,3.32031 l 10.43763,0 c 1.556844,0 2.7891,-1.47168 2.7891,-3.32031 l 0,-97.359378 C 64.000604,13.47168 62.768348,12 61.211504,12 Z m 1.226578,8 8.000102,0 0,40 -8.000102,0 z m 4.000052,72 c 2.209166,0 4.00005,1.79086 4.00005,4 0,2.20914 -1.790884,4 -4.00005,4 -2.209168,0 -4.000052,-1.79086 -4.000052,-4 0,-2.20914 1.790884,-4 4.000052,-4 z"
     id="path8"
     inkscape:connector-curvature="0"
     sodipodi:nodetypes="ssssssssscccccsssss" />
  <path
     style="fill:#b2a445"
     d="m 69.862298,15.502132 c -1.848156,0.494796 -2.969694,2.317392 -2.491228,4.101552 l 25.198776,93.963986 c 0.47847,1.78416 2.361814,2.80227 4.20997,2.30748 l 12.602474,-3.37398 c 1.87974,-0.50325 2.98479,-2.32143 2.50632,-4.10559 L 86.689828,14.431592 c -0.478466,-1.78416 -2.345316,-2.806692 -4.22506,-2.30344 z m 2.583732,7.583616 11.591254,-3.103252 10.352894,38.605008 -11.591258,3.103252 z m 23.913188,66.007136 c 3.200836,-0.85694 6.490902,1.04098 7.348562,4.239124 0.85766,3.198142 -1.04186,6.485442 -4.242694,7.342372 -3.200836,0.85695 -6.490902,-1.04098 -7.34856,-4.23912 -0.857664,-3.19814 1.041856,-6.485432 4.242692,-7.342376 z"
     id="path8-1"
     inkscape:connector-curvature="0"
     sodipodi:nodetypes="ssssssssscccccsssss" />
</svg>
