<?xml version="1.0" encoding="UTF-8" standalone="no"?>
<svg
   xmlns:dc="http://purl.org/dc/elements/1.1/"
   xmlns:cc="http://creativecommons.org/ns#"
   xmlns:rdf="http://www.w3.org/1999/02/22-rdf-syntax-ns#"
   xmlns:svg="http://www.w3.org/2000/svg"
   xmlns="http://www.w3.org/2000/svg"
   xmlns:sodipodi="http://sodipodi.sourceforge.net/DTD/sodipodi-0.dtd"
   xmlns:inkscape="http://www.inkscape.org/namespaces/inkscape"
   width="128"
   height="128"
   viewBox="0 0 128 128"
   id="svg2"
   version="1.1"
   inkscape:version="0.91 r"
   sodipodi:docname="preferences-system-network-proxy.svg">
  <metadata
     id="metadata28">
    <rdf:RDF>
      <cc:Work
         rdf:about="">
        <dc:format>image/svg+xml</dc:format>
        <dc:type
           rdf:resource="http://purl.org/dc/dcmitype/StillImage" />
        <dc:title />
      </cc:Work>
    </rdf:RDF>
  </metadata>
  <defs
     id="defs26" />
  <sodipodi:namedview
     pagecolor="#ffffff"
     bordercolor="#666666"
     borderopacity="1"
     objecttolerance="10"
     gridtolerance="10"
     guidetolerance="10"
     inkscape:pageopacity="0"
     inkscape:pageshadow="2"
     inkscape:window-width="1920"
     inkscape:window-height="1056"
     id="namedview24"
     showgrid="true"
     inkscape:zoom="1.3037281"
     inkscape:cx="-325.99943"
     inkscape:cy="-75.86882"
     inkscape:window-x="0"
     inkscape:window-y="24"
     inkscape:window-maximized="1"
     inkscape:current-layer="svg2">
    <inkscape:grid
       type="xygrid"
       id="grid4156" />
  </sodipodi:namedview>
  <path
     style="fill:#e78684;fill-opacity:1"
     d="m 64,14 c -7.758768,0 -15.110544,1.773842 -21.667968,4.9375 L 42.03125,18.82812 C 41.99185,18.935 41.96101,19.045336 41.92187,19.152338 25.392632,27.317366 14,44.341132 14,64 c 0,19.67628 11.41186,36.71456 27.964844,44.8711 0.04554,0.1056 0.08298,0.21496 0.1289,0.3203 l 0.269532,-0.1172 C 48.913152,112.22886 56.253012,114 64,114 c 7.750082,0 15.092676,-1.77268 21.644532,-4.92968 l 0.277344,0.121 c 0.04702,-0.108 0.0862,-0.21994 0.13282,-0.32814 C 102.59751,100.70312 114,83.66882 114,64 114,44.348582 102.61674,27.328804 86.097656,19.160156 c -0.04006,-0.10974 -0.07294,-0.222414 -0.11328,-0.332032 l -0.308594,0.11328 C 79.116366,15.775366 71.761874,14 64,14 Z M 61,20.113282 61,36 47.347656,36 C 45.602688,36 44,37.480708 44,39.335938 L 44,40 42.257812,40 c 1.143622,-5.581462 2.647042,-11.092704 4.5,-16.472656 C 51.18047,21.645632 55.967724,20.450764 61,20.113282 Z m 6,0 c 5.02797,0.338324 9.82531,1.506826 14.246094,3.386718 1.85377,5.386508 3.341224,10.913472 4.484374,16.5 L 84,40 84,39.335938 C 84,37.480708 82.397312,36 80.652344,36 L 67,36 67,20.113282 Z M 88.878906,27.6875 C 93.646852,30.956504 97.720328,35.151882 100.87891,40 L 91.875,40 C 91.060206,35.856472 90.067762,31.741844 88.878906,27.6875 Z M 39.132812,27.6953 C 37.942538,31.749292 36.928936,35.855912 36.113282,40 l -9.003906,0 C 30.26881,35.147074 34.36237,30.96512 39.132812,27.695312 Z M 50,42 l 28,0 0,44 -28,0 0,-44 z m -26.160156,4 11.230468,0 c -0.754224,4.988396 -1.224572,10.00092 -1.410156,15 l -13.546874,0 c 0.356634,-5.317856 1.653506,-10.370464 3.726562,-15 z M 41.167968,46 44,46 l 0,15 -4.304688,0 c 0.19212,-4.994436 0.688422,-10.009348 1.472656,-15 z M 84,46 l 2.808594,0 c 0.78315,4.991078 1.28156,10.005704 1.472656,15 L 84,61 84,46 Z m 8.929688,0 11.226562,0 c 2.07458,4.629846 3.38146,9.68096 3.73828,15 L 94.328124,61 C 94.142606,56.00269 93.683042,50.987104 92.929688,46 Z M 70,60 a 4,4 0 0 0 -4,4 4,4 0 0 0 4,4 4,4 0 0 0 4,-4 4,4 0 0 0 -4,-4 z m -49.886718,7 13.46875,0 c 0.04996,5.05166 0.372048,10.06736 1.042968,15 L 23.839844,82 C 21.766788,77.37046 20.469916,72.31786 20.113282,67 Z M 39.617188,67 44,67 44,82 40.726562,82 C 40.025184,77.0854 39.670076,72.06646 39.617188,67 Z M 84,67 l 4.355468,0 c -0.05384,5.06796 -0.42254,10.08372 -1.125,15 L 84,82 84,67 Z m 10.40625,0 13.48828,0 c -0.35704,5.31748 -1.65591,10.37218 -3.73047,15 l -10.82031,0 c 0.670528,-4.93316 1.012654,-9.9482 1.0625,-15 z m -67.296874,21 8.5,0 c 0.781428,4.07258 1.81286,8.06338 3.054686,11.96484 C 34.09719,96.74532 30.16326,92.6908 27.109376,88 Z M 41.769532,88 44,88 44,88.66406 C 44,90.5193 45.602688,92 47.347656,92 L 61,92 61,107.88672 C 55.926772,107.5465 51.100938,106.33824 46.648438,104.42968 44.546268,99.18908 42.919934,93.68744 41.769532,88 Z M 84,88 86.191406,88 C 85.040416,93.68774 83.45347,99.21048 81.351562,104.45312 76.901506,106.35938 72.067918,107.5453 67,107.88672 L 67,92 80.652344,92 C 82.397312,92 84,90.5193 84,88.66406 L 84,88 Z m 8.359376,0 8.515624,0 C 97.819932,92.68602 93.910202,96.76174 89.34375,99.98046 90.584672,96.07842 91.578494,92.0723 92.359376,88 Z"
     id="path6"
     inkscape:connector-curvature="0" />
</svg>
