<?xml version="1.0" encoding="UTF-8" standalone="no"?>
<svg
   xmlns:dc="http://purl.org/dc/elements/1.1/"
   xmlns:cc="http://creativecommons.org/ns#"
   xmlns:rdf="http://www.w3.org/1999/02/22-rdf-syntax-ns#"
   xmlns:svg="http://www.w3.org/2000/svg"
   xmlns="http://www.w3.org/2000/svg"
   xmlns:sodipodi="http://sodipodi.sourceforge.net/DTD/sodipodi-0.dtd"
   xmlns:inkscape="http://www.inkscape.org/namespaces/inkscape"
   width="128"
   height="128"
   viewBox="0 0 128 128"
   id="svg2"
   version="1.1"
   inkscape:version="0.91 r"
   sodipodi:docname="preferences-desktop-peripherals-directory.svg">
  <metadata
     id="metadata36">
    <rdf:RDF>
      <cc:Work
         rdf:about="">
        <dc:format>image/svg+xml</dc:format>
        <dc:type
           rdf:resource="http://purl.org/dc/dcmitype/StillImage" />
        <dc:title />
      </cc:Work>
    </rdf:RDF>
  </metadata>
  <defs
     id="defs34" />
  <sodipodi:namedview
     pagecolor="#ffffff"
     bordercolor="#666666"
     borderopacity="1"
     objecttolerance="10"
     gridtolerance="10"
     guidetolerance="10"
     inkscape:pageopacity="0"
     inkscape:pageshadow="2"
     inkscape:window-width="1680"
     inkscape:window-height="1026"
     id="namedview32"
     showgrid="true"
     inkscape:zoom="5.2149125"
     inkscape:cx="2.5350123"
     inkscape:cy="25.042135"
     inkscape:window-x="0"
     inkscape:window-y="24"
     inkscape:window-maximized="1"
     inkscape:current-layer="svg2">
    <inkscape:grid
       type="xygrid"
       id="grid4164" />
  </sodipodi:namedview>
  <path
     style="fill:#555555"
     inkscape:connector-curvature="0"
     id="path6"
     d="m 48.203124,25.7629 c 0,-1.533172 -0.896552,-2.7629 -2,-2.7629 -1.103448,0 -2,1.229728 -2,2.7629 l 0,10.2371 4,0 z" />
  <path
     style="fill:#555555"
     inkscape:connector-curvature="0"
     id="path8"
     d="m 44.203124,102.22112 c 0,1.53318 0.896552,2.77888 2,2.77888 1.103448,0 2,-1.2457 2,-2.77888 l 0,-10.22112 -4,0 z" />
  <path
     style="fill:#555555"
     inkscape:connector-curvature="0"
     id="path10"
     d="M 66,25.7629 C 66,24.229728 65.100864,23 63.994236,23 62.887608,23 62,24.229728 62,25.7629 L 62,36 l 4,0 z" />
  <path
     style="fill:#555555"
     inkscape:connector-curvature="0"
     id="path12"
     d="M 62,102.22112 C 62,103.7543 62.887608,105 63.994236,105 65.100864,105 66,103.7543 66,102.22112 L 66,92 62,92 Z" />
  <path
     style="fill:#555555"
     inkscape:connector-curvature="0"
     id="path14"
     d="M 84,25.7629 C 84,24.229728 83.112388,23 81.994236,23 80.887608,23 80,24.229728 80,25.7629 L 80,36 l 4,0 z" />
  <path
     style="fill:#555555"
     inkscape:connector-curvature="0"
     id="path16"
     d="M 80,102.22112 C 80,103.7543 80.887608,105 82.00576,105 83.112388,105 84,103.7543 84,102.22112 L 84,92 80,92 Z" />
  <path
     style="fill:#555555"
     inkscape:connector-curvature="0"
     id="path18"
     d="M 25.766296,80 C 24.231242,80 23,80.88762 23,81.99424 23,83.10086 24.231242,84 25.766296,84 L 36,84 36,80 Z" />
  <path
     style="fill:#555555"
     inkscape:connector-curvature="0"
     id="path20"
     d="M 102.21772,84 C 103.75277,84 105,83.10086 105,81.99424 105,80.88762 103.75277,80 102.21772,80 L 92,80 l 0,4 z" />
  <path
     style="fill:#555555"
     inkscape:connector-curvature="0"
     id="path22"
     d="M 25.766296,62 C 24.231242,62 23,62.896552 23,64 c 0,1.091952 1.231242,2 2.766296,2 L 36,66 36,62 Z" />
  <path
     style="fill:#555555"
     inkscape:connector-curvature="0"
     id="path24"
     d="M 102.21772,66 C 103.75277,66 105,65.091952 105,64 c 0,-1.103448 -1.24723,-2 -2.78228,-2 L 92,62 l 0,4 z" />
  <path
     style="fill:#555555"
     inkscape:connector-curvature="0"
     id="path26"
     d="M 25.766296,44 C 24.231242,44 23,44.896552 23,46 c 0,1.091952 1.231242,2 2.766296,2 L 36,48 36,44 Z" />
  <path
     style="fill:#555555"
     inkscape:connector-curvature="0"
     id="path28"
     d="M 102.21772,48 C 103.75277,48 105,47.091952 105,46 c 0,-1.103448 -1.24723,-2 -2.78228,-2 L 92,44 l 0,4 z" />
  <path
     style="fill:#555555"
     inkscape:connector-curvature="0"
     id="path30"
     d="M 78.573756,84 C 81.553744,84 84,81.5807 84,78.58256 L 84,49.417444 C 84,46.419296 81.553744,44 78.573756,44 L 49.41142,44 C 46.431432,44 44,46.419296 44,49.417444 L 44,78.58256 C 44,81.5807 46.431432,84 49.41142,84 Z" />
</svg>
