<?xml version="1.0" encoding="UTF-8" standalone="no"?>
<svg
   xmlns:dc="http://purl.org/dc/elements/1.1/"
   xmlns:cc="http://creativecommons.org/ns#"
   xmlns:rdf="http://www.w3.org/1999/02/22-rdf-syntax-ns#"
   xmlns:svg="http://www.w3.org/2000/svg"
   xmlns="http://www.w3.org/2000/svg"
   xmlns:sodipodi="http://sodipodi.sourceforge.net/DTD/sodipodi-0.dtd"
   xmlns:inkscape="http://www.inkscape.org/namespaces/inkscape"
   width="128"
   height="128"
   viewBox="0 0 128 128"
   id="svg2"
   version="1.1"
   inkscape:version="0.91 r"
   sodipodi:docname="preferences-system-directory.svg">
  <metadata
     id="metadata16">
    <rdf:RDF>
      <cc:Work
         rdf:about="">
        <dc:format>image/svg+xml</dc:format>
        <dc:type
           rdf:resource="http://purl.org/dc/dcmitype/StillImage" />
        <dc:title />
      </cc:Work>
    </rdf:RDF>
  </metadata>
  <defs
     id="defs14" />
  <sodipodi:namedview
     pagecolor="#ffffff"
     bordercolor="#666666"
     borderopacity="1"
     objecttolerance="10"
     gridtolerance="10"
     guidetolerance="10"
     inkscape:pageopacity="0"
     inkscape:pageshadow="2"
     inkscape:window-width="1680"
     inkscape:window-height="1026"
     id="namedview12"
     showgrid="true"
     inkscape:zoom="3.6875"
     inkscape:cx="-42.057563"
     inkscape:cy="-18.169159"
     inkscape:window-x="0"
     inkscape:window-y="24"
     inkscape:window-maximized="1"
     inkscape:current-layer="svg2">
    <inkscape:grid
       type="xygrid"
       id="grid4144" />
  </sodipodi:namedview>
  <path
     style="fill:#555555"
     inkscape:connector-curvature="0"
     id="path6"
     d="M 112,54.307696 112,73.6923 C 112,74.97042 110.63314,76 108.98225,76 L 91.017752,76 C 89.349112,76 88,74.97042 88,73.6923 L 88,54.307696 C 88,53.04734 89.349112,52 91.017752,52 l 17.964498,0 C 110.63314,52 112,53.04734 112,54.307696 Z" />
  <path
     style="fill:#555555"
     inkscape:connector-curvature="0"
     id="path8"
     d="M 76,54.307696 76,73.6923 C 76,74.97042 74.650888,76 72.982252,76 l -17.9645,0 C 53.349112,76 52,74.97042 52,73.6923 L 52,54.307696 C 52,53.04734 53.349112,52 55.017752,52 l 17.9645,0 C 74.650888,52 76,53.04734 76,54.307696 Z" />
  <path
     style="fill:#555555"
     inkscape:connector-curvature="0"
     id="path10"
     d="M 40,54.307696 40,73.6923 C 40,74.97042 38.633132,76 36.982248,76 L 19.01775,76 C 17.349112,76 16,74.97042 16,73.6923 L 16,54.307696 C 16,53.04734 17.349112,52 19.01775,52 l 17.964498,0 C 38.633132,52 40,53.04734 40,54.307696 Z" />
</svg>
