<?xml version="1.0" encoding="UTF-8" standalone="yes"?>
<svg xmlns="http://www.w3.org/2000/svg" xmlns:xlink="http://www.w3.org/1999/xlink" width="96px" height="96px" viewBox="0 0 72 72" version="1.1">
  <g id="surface1">
    <path style=" stroke:none;fill-rule:nonzero;fill:rgb(52.156863%,60%,0%);fill-opacity:1;" d="M 55.078125 11.996094 C 51.613281 11.996094 49.089844 15.136719 46.886719 17.386719 C 44.816406 20.074219 42.65625 23.222656 42.070312 26.363281 C 42.070312 27.707031 43.378906 28.152344 43.917969 29.058594 C 46.03125 30.847656 48.191406 33.542969 46.886719 36.683594 C 44.953125 40.277344 41.394531 42.972656 38.605469 46.113281 C 36.398438 48.355469 33.519531 51.496094 30.011719 50.15625 C 27.398438 48.808594 25.917969 46.566406 23.886719 45.214844 C 21.050781 45.214844 18.628906 47.011719 16.285156 48.355469 C 13.269531 50.601562 10.167969 53.296875 9.082031 56.886719 C 8.457031 59.582031 11.511719 61.378906 13.40625 62.722656 C 18.128906 66.316406 24.519531 66.761719 29.964844 64.96875 C 38.695312 61.828125 45.714844 55.089844 51.925781 48.808594 C 57.191406 42.519531 62.277344 35.339844 62.953125 27.257812 C 63.402344 21.421875 60.480469 16.035156 55.980469 12.445312 L 55.527344 11.996094 Z M 55.078125 11.996094 "/>
  </g>
</svg>