<?xml version="1.0" encoding="UTF-8" standalone="yes"?>
<svg xmlns="http://www.w3.org/2000/svg" xmlns:xlink="http://www.w3.org/1999/xlink" width="96px" height="96px" viewBox="0 0 72 72" version="1.1">
  <g id="surface1">
    <path style=" stroke:none;fill-rule:nonzero;fill:rgb(53.333333%,53.333333%,53.333333%);fill-opacity:1;" d="M 18 33 L 48 15 L 48 21 L 18 39 Z M 18 33 "/>
    <path style=" stroke:none;fill-rule:nonzero;fill:rgb(53.333333%,53.333333%,53.333333%);fill-opacity:1;" d="M 18 39 L 48 57 L 48 51 L 18 33 Z M 18 39 "/>
    <path style=" stroke:none;fill-rule:evenodd;fill:rgb(14.901961%,54.509804%,82.352941%);fill-opacity:1;" d="M 59.996094 18 C 59.996094 24.628906 54.621094 30 47.996094 30 C 41.371094 30 36 24.628906 36 18 C 36 11.371094 41.371094 5.996094 47.996094 5.996094 C 54.621094 5.996094 59.996094 11.371094 59.996094 18 Z M 59.996094 18 "/>
    <path style=" stroke:none;fill-rule:evenodd;fill:rgb(16.470588%,63.137255%,59.607843%);fill-opacity:1;" d="M 29.996094 36 C 29.996094 42.628906 24.621094 48 17.996094 48 C 11.371094 48 6 42.628906 6 36 C 6 29.371094 11.371094 23.996094 17.996094 23.996094 C 24.621094 23.996094 29.996094 29.371094 29.996094 36 Z M 29.996094 36 "/>
    <path style=" stroke:none;fill-rule:evenodd;fill:rgb(86.27451%,19.607843%,18.431373%);fill-opacity:1;" d="M 59.996094 54.011719 C 59.996094 60.644531 54.621094 66.019531 47.996094 66.019531 C 41.371094 66.019531 36 60.644531 36 54.011719 C 36 47.386719 41.371094 42.011719 47.996094 42.011719 C 54.621094 42.011719 59.996094 47.386719 59.996094 54.011719 Z M 59.996094 54.011719 "/>
  </g>
</svg>