<?xml version="1.0" encoding="UTF-8" standalone="yes"?>
<svg xmlns="http://www.w3.org/2000/svg" xmlns:xlink="http://www.w3.org/1999/xlink" width="96px" height="96px" viewBox="0 0 72 72" version="1.1">
  <g id="surface1">
    <path style=" stroke:none;fill-rule:evenodd;fill:rgb(100%,100%,100%);fill-opacity:1;" d="M 12 9 L 42 9 C 48 9 48 9 48 15 L 48 57 C 48 63 48 63 42 63 L 12 63 C 6 63 6 63 6 57 L 6 15 C 6 9 6 9 12 9 Z M 12 9 "/>
    <path style=" stroke:none;fill-rule:evenodd;fill:rgb(14.901961%,54.509804%,82.352941%);fill-opacity:1;" d="M 44.917969 56.511719 L 65.574219 40.339844 C 70.148438 36.757812 70.132812 35.824219 65.574219 32.253906 L 44.917969 16.082031 C 42.039062 13.828125 42 15.039062 42 20.242188 C 41.941406 22.261719 42 27 42 27 C 41.953125 27 42.046875 27 42 27 C 21.476562 27 11.871094 40.339844 12 56.636719 C 20.132812 48.425781 29.605469 44.867188 42 45.117188 L 42 51 C 42 53.9375 42.042969 58.503906 44.917969 56.511719 Z M 44.917969 56.511719 "/>
  </g>
</svg>