<?xml version="1.0" encoding="UTF-8" standalone="yes"?>
<svg xmlns="http://www.w3.org/2000/svg" xmlns:xlink="http://www.w3.org/1999/xlink" width="96px" height="96px" viewBox="0 0 72 72" version="1.1">
  <g id="surface1">
    <path style=" stroke:none;fill-rule:evenodd;fill:rgb(100%,100%,100%);fill-opacity:1;" d="M 60 9 L 30 9 C 24 9 24 9 24 15 L 24 57 C 24 63 24 63 30 63 L 60 63 C 66 63 66 63 66 57 L 66 15 C 66 9 66 9 60 9 Z M 60 9 "/>
    <path style=" stroke:none;fill-rule:evenodd;fill:rgb(14.901961%,54.509804%,82.352941%);fill-opacity:1;" d="M 27.082031 15.488281 L 6.425781 31.660156 C 1.851562 35.242188 1.863281 36.175781 6.425781 39.746094 L 27.082031 55.917969 C 29.957031 58.171875 30 56.960938 30 51.757812 C 30.058594 49.738281 30 45 30 45 C 30.046875 45 29.953125 45 30 45 C 50.523438 45 60.128906 31.660156 60 15.363281 C 51.867188 23.574219 42.390625 27.132812 30 26.882812 L 30 21 C 30 18.0625 29.957031 13.496094 27.082031 15.488281 Z M 27.082031 15.488281 "/>
  </g>
</svg>