<?xml version="1.0" encoding="UTF-8" standalone="yes"?>
<svg xmlns="http://www.w3.org/2000/svg" xmlns:xlink="http://www.w3.org/1999/xlink" width="96px" height="96px" viewBox="0 0 72 72" version="1.1">
  <g id="surface1">
    <path style=" stroke:none;fill-rule:nonzero;fill:rgb(86.27451%,19.607843%,18.431373%);fill-opacity:1;" d="M 57 24 L 57 60 C 57 66 57 66 51 66 L 21 66 C 15 66 15 66 15 60 L 15 24 C 27 24 48 24 57 24 Z M 57 24 "/>
    <path style=" stroke:none;fill-rule:nonzero;fill:rgb(100%,100%,100%);fill-opacity:0.666667;" d="M 21 30 L 21 60 L 27 60 L 27 30 Z M 21 30 "/>
    <path style=" stroke:none;fill-rule:nonzero;fill:rgb(100%,100%,100%);fill-opacity:0.666667;" d="M 33 30 L 33 60 L 39 60 L 39 30 Z M 33 30 "/>
    <path style=" stroke:none;fill-rule:nonzero;fill:rgb(100%,100%,100%);fill-opacity:0.666667;" d="M 45 30 L 45 60 L 51 60 L 51 30 Z M 45 30 "/>
    <path style=" stroke:none;fill-rule:nonzero;fill:rgb(86.27451%,19.607843%,18.431373%);fill-opacity:1;" d="M 15 18 L 57 18 L 57 12 L 45 12 L 45 6 L 27 6 L 27 12 L 15 12 Z M 15 18 "/>
  </g>
</svg>