<?xml version="1.0" encoding="UTF-8" standalone="yes"?>
<svg xmlns="http://www.w3.org/2000/svg" xmlns:xlink="http://www.w3.org/1999/xlink" width="96px" height="96px" viewBox="0 0 72 72" version="1.1">
  <g id="surface1">
    <path style=" stroke:none;fill-rule:nonzero;fill:rgb(53.333333%,53.333333%,53.333333%);fill-opacity:1;" d="M 12 12 L 12 60 L 60 60 L 60 12 Z M 15 15 C 29 15 43 15 57 15 C 57 29 57 43 57 57 C 43 57 29 57 15 57 C 15 43 15 29 15 15 Z M 15 15 "/>
    <path style=" stroke:none;fill-rule:nonzero;fill:rgb(14.901961%,54.509804%,82.352941%);fill-opacity:1;" d="M 34.5 9 L 34.5 16.5 L 37.5 16.5 L 37.5 9 Z M 34.5 19.5 L 34.5 24 L 37.5 24 L 37.5 19.5 Z M 34.5 27 L 34.5 31.5 L 37.5 31.5 L 37.5 27 Z M 34.5 34.5 L 34.5 39 L 37.5 39 L 37.5 34.5 Z M 34.5 42 L 34.5 46.5 L 37.5 46.5 L 37.5 42 Z M 34.5 49.5 L 34.5 54 L 37.5 54 L 37.5 49.5 Z M 34.5 57 L 34.5 64.5 L 37.5 64.5 L 37.5 57 Z M 34.5 57 "/>
  </g>
</svg>