<?xml version="1.0" encoding="UTF-8" standalone="yes"?>
<svg xmlns="http://www.w3.org/2000/svg" xmlns:xlink="http://www.w3.org/1999/xlink" width="96px" height="96px" viewBox="0 0 72 72" version="1.1">
  <g id="surface1">
    <path style=" stroke:none;fill-rule:nonzero;fill:rgb(47.45098%,81.568627%,45.098039%);fill-opacity:1;" d="M 15 45 L 57 45 L 57 57 L 15 57 Z M 15 45 "/>
    <path style=" stroke:none;fill-rule:nonzero;fill:rgb(80.784314%,80.784314%,80.784314%);fill-opacity:1;" d="M 15 30 L 57 30 L 57 42 L 15 42 Z M 15 30 "/>
    <path style=" stroke:none;fill-rule:nonzero;fill:rgb(53.333333%,53.333333%,53.333333%);fill-opacity:1;" d="M 12 12 C 12 28 12 44 12 60 C 28 60 44 60 60 60 C 60 44 60 28 60 12 C 44 12 28 12 12 12 Z M 15 15 L 27 15 L 27 27 L 15 27 Z M 30 15 L 42 15 L 42 27 L 30 27 Z M 45 15 L 57 15 L 57 27 L 45 27 Z M 15 30 L 27 30 L 27 42 L 15 42 Z M 30 30 L 42 30 L 42 42 L 30 42 Z M 45 30 L 57 30 L 57 42 L 45 42 Z M 15 45 L 27 45 L 27 57 L 15 57 Z M 30 45 L 42 45 L 42 57 L 30 57 Z M 45 45 L 57 45 L 57 57 L 45 57 Z M 45 45 "/>
  </g>
</svg>