<?xml version="1.0" encoding="UTF-8" standalone="yes"?>
<svg xmlns="http://www.w3.org/2000/svg" xmlns:xlink="http://www.w3.org/1999/xlink" width="96px" height="96px" viewBox="0 0 72 72" version="1.1">
  <g id="surface1">
    <path style=" stroke:none;fill-rule:evenodd;fill:rgb(14.901961%,54.509804%,82.352941%);fill-opacity:1;" d="M 6 36 C 6 52.566406 19.433594 66 36 66 C 52.566406 66 66 52.566406 66 36 C 66 19.433594 52.566406 6 36 6 C 19.433594 6 6 19.433594 6 36 Z M 6 36 "/>
    <path style=" stroke:none;fill-rule:nonzero;fill:rgb(100%,100%,100%);fill-opacity:0.901961;" d="M 18 35.988281 C 18 36.910156 18.394531 37.78125 19.03125 38.425781 L 30.1875 49.957031 C 30.792969 50.597656 31.652344 50.964844 32.53125 50.988281 C 33.925781 51.035156 35.175781 50.246094 35.71875 48.925781 C 36.261719 47.613281 35.972656 46.074219 34.96875 45.082031 L 29.0625 38.988281 L 54 38.988281 L 54 32.988281 L 29.0625 32.988281 L 34.96875 26.894531 C 36.28125 25.546875 36.28125 23.371094 34.96875 22.019531 C 33.65625 20.671875 31.5 20.671875 30.1875 22.019531 L 19.03125 33.550781 C 18.394531 34.199219 18 35.074219 18 35.988281 Z M 18 35.988281 "/>
  </g>
</svg>