<?xml version="1.0" encoding="UTF-8" standalone="yes"?>
<svg xmlns="http://www.w3.org/2000/svg" xmlns:xlink="http://www.w3.org/1999/xlink" width="96px" height="96px" viewBox="0 0 72 72" version="1.1">
  <g id="surface1">
    <path style=" stroke:none;fill-rule:evenodd;fill:rgb(14.901961%,54.509804%,82.352941%);fill-opacity:1;" d="M 66 36 C 66 52.566406 52.566406 66 36 66 C 19.433594 66 6 52.566406 6 36 C 6 19.433594 19.433594 6 36 6 C 52.566406 6 66 19.433594 66 36 Z M 66 36 "/>
    <path style=" stroke:none;fill-rule:nonzero;fill:rgb(100%,100%,100%);fill-opacity:0.901961;" d="M 21 21 L 51 21 L 51 27 L 21 27 Z M 21 21 "/>
    <path style=" stroke:none;fill-rule:nonzero;fill:rgb(100%,100%,100%);fill-opacity:0.901961;" d="M 21 33 L 51 33 L 51 39 L 21 39 Z M 21 33 "/>
    <path style=" stroke:none;fill-rule:nonzero;fill:rgb(100%,100%,100%);fill-opacity:0.901961;" d="M 21 45 L 51 45 L 51 51 L 21 51 Z M 21 45 "/>
  </g>
</svg>