<?xml version="1.0" encoding="UTF-8" standalone="yes"?>
<svg xmlns="http://www.w3.org/2000/svg" xmlns:xlink="http://www.w3.org/1999/xlink" width="96px" height="96px" viewBox="0 0 72 72" version="1.1">
  <defs>
    <linearGradient id="linear0" gradientUnits="userSpaceOnUse" x1="2.250833" y1="4.75" x2="4.750833" y2="4.75" gradientTransform="matrix(4.285714,0,0,4.1652,3,3.723084)">
      <stop offset="0" style="stop-color:rgb(88.627451%,82.352941%,56.470588%);stop-opacity:0.705882;"/>
      <stop offset="0.505041" style="stop-color:rgb(88.627451%,82.352941%,56.470588%);stop-opacity:1;"/>
      <stop offset="1" style="stop-color:rgb(88.627451%,82.352941%,56.470588%);stop-opacity:0.705882;"/>
    </linearGradient>
  </defs>
  <g id="surface1">
    <path style=" stroke:none;fill-rule:nonzero;fill:rgb(72.156863%,80%,82.745098%);fill-opacity:1;" d="M 39 39 L 69 39 L 69 69 L 39 69 Z M 39 39 "/>
    <path style=" stroke:none;fill-rule:nonzero;fill:rgb(89.803922%,70.980392%,54.509804%);fill-opacity:1;" d="M 54 46.535156 C 48.285156 46.535156 45.953125 53.335938 49.128906 57.242188 C 49.808594 58.078125 50.53125 59.117188 49.980469 60.230469 C 49.707031 60.792969 49.328125 61.199219 48.910156 61.554688 C 50.347656 65.398438 57.183594 66.121094 59.089844 61.554688 C 58.671875 61.199219 58.292969 60.792969 58.019531 60.230469 C 57.46875 59.117188 58.332031 58.179688 58.871094 57.242188 C 62.144531 51.5625 59.714844 46.535156 54 46.535156 Z M 54 46.535156 "/>
    <path style=" stroke:none;fill-rule:nonzero;fill:rgb(81.176471%,21.176471%,17.647059%);fill-opacity:1;" d="M 48.910156 61.558594 C 46.773438 63.675781 43.285156 63.449219 43.285156 69 L 64.714844 69 C 64.714844 63.449219 61.226562 63.675781 59.089844 61.558594 C 57.550781 62.808594 55.839844 63.601562 54 63.601562 C 52.160156 63.601562 50.449219 62.808594 48.910156 61.558594 Z M 48.910156 61.558594 "/>
    <path style=" stroke:none;fill-rule:nonzero;fill:rgb(58.823529%,25.490196%,23.529412%);fill-opacity:1;" d="M 47.570312 52.824219 C 49.566406 51.429688 50.785156 49.554688 54 49.535156 C 57.214844 49.519531 58.570312 51.242188 60.429688 52.347656 C 60.570312 43.597656 47.386719 44.027344 47.570312 52.824219 Z M 47.570312 52.824219 "/>
    <path style=" stroke:none;fill-rule:nonzero;fill:rgb(23.921569%,69.803922%,88.235294%);fill-opacity:1;" d="M 39 3 L 69 3 L 69 33 L 39 33 Z M 39 3 "/>
    <path style=" stroke:none;fill-rule:nonzero;fill:rgb(63.529412%,52.54902%,41.568627%);fill-opacity:1;" d="M 60.1875 17.785156 L 43.285156 33 L 69 33 L 69 28.714844 Z M 60.1875 17.785156 "/>
    <path style=" stroke:none;fill-rule:nonzero;fill:rgb(89.803922%,84.313725%,25.098039%);fill-opacity:1;" d="M 56.144531 11.570312 C 56.144531 13.816406 54.101562 15.855469 51.855469 15.855469 C 49.613281 15.855469 47.570312 13.816406 47.570312 11.570312 C 47.570312 9.328125 49.613281 7.285156 51.855469 7.285156 C 54.101562 7.285156 56.144531 9.328125 56.144531 11.570312 Z M 56.144531 11.570312 "/>
    <path style=" stroke:none;fill-rule:nonzero;fill:rgb(58.039216%,47.058824%,36.078431%);fill-opacity:1;" d="M 49.085938 13.714844 L 39 26.144531 L 39 33 L 60.429688 33 Z M 49.085938 13.714844 "/>
    <path style=" stroke:none;fill-rule:nonzero;fill:rgb(30.980392%,70.588235%,36.862745%);fill-opacity:1;" d="M 3 39 L 33 39 L 33 69 L 3 69 Z M 3 39 "/>
    <path style=" stroke:none;fill-rule:nonzero;fill:rgb(94.509804%,93.72549%,36.470588%);fill-opacity:1;" d="M 17.859375 42.863281 C 15.121094 42.863281 12.902344 44.953125 12.902344 47.53125 C 12.902344 47.660156 12.90625 47.789062 12.917969 47.917969 C 12.535156 47.828125 12.144531 47.777344 11.746094 47.773438 C 9.339844 47.800781 7.285156 49.875 7.285156 52.453125 C 7.285156 54.382812 8.542969 56.109375 10.449219 56.808594 C 9.878906 57.585938 9.574219 58.511719 9.570312 59.460938 C 9.570312 62.039062 11.789062 64.128906 14.527344 64.132812 C 15.664062 64.128906 16.765625 63.761719 17.648438 63.085938 C 18.554688 63.859375 19.734375 64.289062 20.964844 64.289062 C 23.699219 64.289062 25.910156 62.191406 25.910156 59.609375 C 25.910156 58.738281 25.648438 57.882812 25.15625 57.140625 C 27.265625 56.554688 28.714844 54.734375 28.714844 52.664062 C 28.714844 50.082031 27.066406 48.027344 23.265625 47.992188 C 23.105469 47.992188 22.941406 47.996094 22.78125 48.007812 C 22.800781 47.851562 22.8125 47.691406 22.8125 47.53125 C 22.8125 44.949219 20.597656 42.859375 17.859375 42.863281 Z M 18 50.144531 C 20.132812 50.144531 21.859375 51.871094 21.859375 54.003906 C 21.859375 56.132812 20.132812 57.863281 18 57.863281 C 15.867188 57.863281 14.140625 56.132812 14.140625 54.003906 C 14.140625 51.871094 15.867188 50.144531 18 50.144531 Z M 18 50.144531 "/>
    <path style=" stroke:none;fill-rule:nonzero;fill:rgb(61.568627%,55.294118%,42.745098%);fill-opacity:1;" d="M 20.570312 54 C 20.570312 55.421875 19.421875 56.574219 18 56.574219 C 16.578125 56.574219 15.429688 55.421875 15.429688 54 C 15.429688 52.582031 16.578125 51.429688 18 51.429688 C 19.421875 51.429688 20.570312 52.582031 20.570312 54 Z M 20.570312 54 "/>
    <path style=" stroke:none;fill-rule:nonzero;fill:rgb(23.529412%,20.392157%,36.470588%);fill-opacity:1;" d="M 3 3 L 33 3 L 33 33 L 3 33 Z M 3 3 "/>
    <path style=" stroke:none;fill-rule:nonzero;fill:url(#linear0);" d="M 21.707031 18.300781 C 20.546875 18.414062 19.308594 18.484375 18.003906 18.484375 C 16.695312 18.484375 15.457031 18.414062 14.300781 18.300781 L 12.644531 27.8125 C 16.253906 29.058594 19.832031 28.972656 23.359375 27.8125 Z M 21.707031 18.300781 "/>
    <path style=" stroke:none;fill-rule:nonzero;fill:rgb(47.058824%,47.058824%,47.058824%);fill-opacity:1;" d="M 28.714844 13.558594 C 28.714844 15.292969 23.917969 17.101562 18 17.101562 C 12.082031 17.101562 7.285156 15.292969 7.285156 13.558594 C 7.285156 11.828125 12.082031 9.839844 18 9.839844 C 23.917969 9.839844 28.714844 11.828125 28.714844 13.558594 Z M 28.714844 13.558594 "/>
    <path style=" stroke:none;fill-rule:nonzero;fill:rgb(80%,80%,80%);fill-opacity:1;" d="M 22.464844 11.785156 C 22.464844 12.6875 20.464844 13.496094 18 13.496094 C 15.535156 13.496094 13.535156 12.6875 13.535156 11.785156 C 13.535156 9.085938 15.320312 7.285156 18 7.285156 C 20.679688 7.285156 22.464844 9.085938 22.464844 11.785156 Z M 22.464844 11.785156 "/>
  </g>
</svg>