<?xml version="1.0" encoding="UTF-8" standalone="yes"?>
<svg xmlns="http://www.w3.org/2000/svg" xmlns:xlink="http://www.w3.org/1999/xlink" width="96px" height="96px" viewBox="0 0 72 72" version="1.1">
  <g id="surface1">
    <path style=" stroke:none;fill-rule:nonzero;fill:rgb(88.627451%,72.156863%,32.941176%);fill-opacity:1;" d="M 18.765625 33 L 15.171875 45.171875 L 3 48.761719 L 15.171875 52.328125 L 18.765625 64.5 L 22.328125 52.328125 L 34.5 48.761719 L 22.328125 45.171875 "/>
    <path style=" stroke:none;fill-rule:nonzero;fill:rgb(88.627451%,72.156863%,32.941176%);fill-opacity:1;" d="M 56.25 16.5 L 53.417969 26.417969 L 43.5 29.257812 L 53.417969 32.082031 L 56.25 42 L 59.082031 32.082031 L 69 29.257812 L 59.082031 26.417969 "/>
    <path style=" stroke:none;fill-rule:nonzero;fill:rgb(88.627451%,72.156863%,32.941176%);fill-opacity:1;" d="M 44.25 3 L 42 10.5 L 34.5 12.742188 L 42 15 L 44.25 22.5 L 46.5 15 L 54 12.742188 L 46.5 10.5 "/>
    <path style=" stroke:none;fill-rule:nonzero;fill:rgb(36.078431%,41.176471%,50.980392%);fill-opacity:1;" d="M 33.113281 20.984375 C 31.761719 19.082031 28.03125 16.332031 24.980469 18.433594 C 21.847656 20.589844 23.285156 24.914062 24.640625 26.8125 L 52.085938 65.328125 C 53.730469 67.636719 56.941406 68.191406 59.289062 66.574219 C 61.636719 64.960938 62.203125 61.804688 60.558594 59.5 Z M 33.113281 20.984375 "/>
    <path style=" stroke:none;fill-rule:nonzero;fill:rgb(77.254902%,61.568627%,63.137255%);fill-opacity:1;" d="M 22.914062 6.671875 C 21.269531 4.363281 18.058594 3.808594 15.710938 5.425781 C 13.363281 7.039062 12.796875 10.195312 14.441406 12.5 L 24.640625 26.8125 C 23.605469 25.359375 24.554688 22.609375 26.835938 21.035156 C 29.121094 19.464844 32.109375 19.570312 33.113281 20.984375 Z M 22.914062 6.671875 "/>
  </g>
</svg>