<?xml version="1.0" encoding="UTF-8" standalone="yes"?>
<svg xmlns="http://www.w3.org/2000/svg" xmlns:xlink="http://www.w3.org/1999/xlink" width="96px" height="96px" viewBox="0 0 72 72" version="1.1">
  <g id="surface1">
    <path style=" stroke:none;fill-rule:nonzero;fill:rgb(14.901961%,54.509804%,81.960784%);fill-opacity:1;" d="M 15 15 L 57 15 C 68.90625 15 69 15 69 27 L 69 45 C 69 57 69 57 57 57 C 51 57 51 57 46.382812 57 C 47.933594 58.324219 49.050781 60.285156 48.238281 62.433594 C 47.378906 65.542969 42.886719 66.324219 40.957031 63.769531 C 37.363281 60.144531 35.371094 56.601562 31.875 52.886719 C 35.582031 48.964844 37.769531 45.191406 41.582031 41.386719 C 44.089844 39.070312 48.738281 41.152344 48.539062 44.601562 C 48.621094 46.402344 47.503906 46.855469 46.335938 48 C 51 48 51 48 57 48 C 60 48 60 48 60 45 L 60 27 C 60 24 60 24 57 24 C 47.542969 24 15 24 15 24 C 12 24 12 24 12 27 L 12 45 C 12 48 12 48 15 48 L 21 48 C 24 48 24 48 24.035156 51.089844 C 24 52.054688 24.019531 53.066406 24 54 C 24 57 24 57 21 57 L 15 57 C 3 57 3 57 3 45 L 3 27 C 3 15 2.90625 15 15 15 Z M 15 15 "/>
  </g>
</svg>