<?xml version="1.0" encoding="UTF-8" standalone="yes"?>
<svg xmlns="http://www.w3.org/2000/svg" xmlns:xlink="http://www.w3.org/1999/xlink" width="96px" height="96px" viewBox="0 0 72 72" version="1.1">
  <g id="surface1">
    <path style=" stroke:none;fill-rule:nonzero;fill:rgb(70.588235%,58.039216%,48.627451%);fill-opacity:1;" d="M 16.277344 4.542969 L 63.628906 11.199219 C 66.085938 11.542969 67.800781 13.820312 67.457031 16.277344 L 60.800781 63.628906 C 60.457031 66.085938 58.179688 67.800781 55.722656 67.457031 L 8.371094 60.800781 C 5.914062 60.457031 4.199219 58.179688 4.542969 55.722656 L 11.199219 8.371094 C 11.542969 5.914062 13.820312 4.199219 16.277344 4.542969 Z M 16.277344 4.542969 "/>
    <path style=" stroke:none;fill-rule:nonzero;fill:rgb(95.294118%,92.941176%,78.039216%);fill-opacity:1;" d="M 16.109375 6.910156 L 63.140625 13.519531 C 64.390625 13.695312 65.265625 14.855469 65.089844 16.109375 L 58.480469 63.140625 C 58.304688 64.390625 57.144531 65.265625 55.890625 65.089844 L 8.859375 58.480469 C 7.609375 58.304688 6.734375 57.144531 6.910156 55.890625 L 13.519531 8.859375 C 13.695312 7.609375 14.855469 6.734375 16.109375 6.910156 Z M 16.109375 6.910156 "/>
    <path style=" stroke:none;fill-rule:nonzero;fill:rgb(72.156863%,72.941176%,12.941176%);fill-opacity:1;" d="M 6 33 L 12 33 C 13.65625 33 15 34.34375 15 36 L 15 39 C 15 40.65625 13.65625 42 12 42 L 6 42 C 4.34375 42 3 40.65625 3 39 L 3 36 C 3 34.34375 4.34375 33 6 33 Z M 6 33 "/>
    <path style=" stroke:none;fill-rule:nonzero;fill:rgb(72.156863%,72.941176%,12.941176%);fill-opacity:1;" d="M 24 33 L 30 33 C 31.65625 33 33 34.34375 33 36 L 33 39 C 33 40.65625 31.65625 42 30 42 L 24 42 C 22.34375 42 21 40.65625 21 39 L 21 36 C 21 34.34375 22.34375 33 24 33 Z M 24 33 "/>
    <path style=" stroke:none;fill-rule:nonzero;fill:rgb(72.156863%,72.941176%,12.941176%);fill-opacity:1;" d="M 42 33 L 48 33 C 49.65625 33 51 34.34375 51 36 L 51 39 C 51 40.65625 49.65625 42 48 42 L 42 42 C 40.34375 42 39 40.65625 39 39 L 39 36 C 39 34.34375 40.34375 33 42 33 Z M 42 33 "/>
    <path style=" stroke:none;fill-rule:nonzero;fill:rgb(72.156863%,72.941176%,12.941176%);fill-opacity:1;" d="M 60 33 L 66 33 C 67.65625 33 69 34.34375 69 36 L 69 39 C 69 40.65625 67.65625 42 66 42 L 60 42 C 58.34375 42 57 40.65625 57 39 L 57 36 C 57 34.34375 58.34375 33 60 33 Z M 60 33 "/>
  </g>
</svg>