<?xml version="1.0" encoding="UTF-8" standalone="yes"?>
<svg xmlns="http://www.w3.org/2000/svg" xmlns:xlink="http://www.w3.org/1999/xlink" width="96px" height="96px" viewBox="0 0 72 72" version="1.1">
  <defs>
    <clipPath id="clip1">
      <path d="M 6 7 L 66 7 L 66 55 L 6 55 Z M 6 7 "/>
    </clipPath>
    <clipPath id="clip2">
      <path d="M 66 36 C 66 52.574219 52.558594 66 36 66 C 19.441406 66 6 52.574219 6 36 C 6 19.425781 19.441406 6 36 6 C 52.558594 6 66 19.425781 66 36 Z M 66 36 "/>
    </clipPath>
  </defs>
  <g id="surface1">
    <path style=" stroke:none;fill-rule:nonzero;fill:rgb(16.078431%,56.078431%,85.098039%);fill-opacity:1;" d="M 36 6 C 52.570312 6 66 19.429688 66 36 C 66 52.570312 52.570312 66 36 66 C 19.429688 66 6 52.570312 6 36 C 6 19.429688 19.429688 6 36 6 Z M 36 6 "/>
    <path style=" stroke:none;fill-rule:nonzero;fill:rgb(90.196078%,90.196078%,90.196078%);fill-opacity:1;" d="M 20.546875 57.210938 L 19.9375 58.148438 L 18.796875 58.675781 L 19.445312 59.496094 L 18.464844 59.980469 L 17.996094 59.957031 C 18.703125 60.488281 19.433594 60.988281 20.1875 61.457031 L 20.992188 61.378906 L 22.742188 61.949219 L 20.992188 61.949219 C 25.410156 64.511719 30.523438 66 36 66 C 44 66 51.246094 62.847656 56.625 57.746094 L 53.234375 57.871094 L 49.234375 58.683594 C 49.234375 58.683594 47.308594 59.714844 47.074219 59.664062 C 46.839844 59.609375 47.894531 58.316406 47.894531 58.316406 L 46.019531 58.441406 L 44.832031 57.460938 L 43.652344 58.265625 C 43.652344 58.265625 42.070312 58.398438 41.660156 58.398438 C 41.25 58.398438 40.71875 59.128906 40.71875 59.128906 L 37.5 59.011719 L 31.957031 59.253906 L 30.492188 60.515625 L 30.132812 60.566406 L 25.929688 60.273438 L 23.035156 60.566406 L 22.019531 60.066406 L 22.0625 59.988281 C 22.0625 59.988281 21.207031 58.265625 21.207031 58.03125 C 21.207031 57.800781 20.554688 57.21875 20.554688 57.21875 Z M 20.546875 57.210938 "/>
    <g clip-path="url(#clip1)" clip-rule="nonzero">
      <g clip-path="url(#clip2)" clip-rule="nonzero">
        <path style=" stroke:none;fill-rule:nonzero;fill:rgb(80.392157%,90.196078%,14.901961%);fill-opacity:1;" d="M 25.566406 7.183594 L 24.46875 7.507812 L 23.207031 7.59375 L 22.425781 8.160156 L 21.414062 8.121094 L 21.496094 8.773438 L 22.960938 8.730469 L 23.492188 10.160156 L 23.695312 10.9375 L 22.878906 11.386719 L 22.554688 11.992188 L 22.796875 13.378906 L 23.777344 13.542969 L 24.714844 12.644531 L 25.53125 11.789062 L 26.792969 11.464844 L 28.382812 10.6875 L 29.320312 9.546875 L 30.667969 7.914062 L 31.605469 7.667969 L 31.5625 7.304688 L 30.097656 7.304688 L 25.570312 7.183594 M 22.675781 7.265625 L 21.617188 7.3125 L 19.78125 7.800781 L 18.722656 8.125 L 17.5 7.636719 L 17.335938 8.371094 L 18.796875 9.226562 C 18.796875 9.226562 21.46875 7.753906 21.617188 7.753906 M 50.144531 7.554688 L 49.898438 7.96875 L 51.40625 8.160156 L 51.488281 7.808594 M 38.566406 7.808594 C 38.496094 7.835938 36.570312 7.839844 36.570312 7.839844 L 36.082031 7.96875 L 36.734375 8.746094 L 37.425781 8.09375 L 37.875 8.378906 L 38.527344 8.054688 C 38.527344 8.054688 38.644531 7.777344 38.566406 7.808594 M 45.902344 8.414062 L 45.296875 8.496094 L 44.761719 8.824219 L 44.15625 9.277344 L 43.789062 9.929688 L 44.359375 10.5 L 44.851562 10.542969 L 45.054688 10.210938 L 44.5625 9.800781 L 44.851562 9.558594 L 44.890625 9.359375 L 45.503906 8.949219 C 45.503906 8.949219 46.296875 8.960938 46.351562 8.949219 C 46.414062 8.933594 46.601562 8.703125 46.601562 8.703125 L 46.398438 8.410156 M 12.160156 8.65625 L 12.035156 9.066406 L 12.648438 9.269531 L 13.339844 8.945312 M 53.613281 8.78125 L 50.835938 8.90625 L 50.101562 9.394531 L 49.292969 9.882812 L 48.597656 10.453125 L 48.679688 10.699219 L 48.3125 10.738281 L 48.3125 10.746094 L 42.984375 11.632812 L 38.316406 15.140625 L 37.828125 15.507812 L 37.789062 15.507812 L 37.457031 15.386719 C 37.457031 15.386719 37.257812 15.398438 37.171875 15.472656 C 37.089844 15.539062 37.011719 15.605469 36.761719 15.628906 C 36.515625 15.65625 36.027344 15.628906 35.988281 15.628906 L 35.703125 15.628906 L 35.742188 15.332031 L 35.945312 15.007812 L 35.578125 14.71875 C 35.578125 14.71875 35.335938 15.015625 35.332031 15.082031 C 35.320312 15.15625 35.492188 15.449219 35.492188 15.449219 C 35.492188 15.449219 35.410156 15.683594 35.371094 15.734375 C 35.332031 15.785156 34.960938 15.898438 34.960938 15.898438 L 34.394531 15.613281 C 34.394531 15.613281 34.160156 15.5625 34.191406 15.695312 C 34.21875 15.828125 34.480469 15.949219 34.480469 16.0625 C 34.480469 16.167969 34.316406 16.421875 34.316406 16.421875 L 34.117188 16.667969 L 33.789062 17 L 33.339844 17.117188 C 33.339844 17.117188 33.019531 17.207031 32.925781 17.238281 C 32.84375 17.269531 32.601562 17.324219 32.601562 17.324219 L 32.269531 17.367188 L 32.070312 17.65625 L 32.433594 17.90625 L 32.679688 18.308594 C 32.679688 18.308594 32.839844 18.601562 32.882812 18.601562 C 32.921875 18.601562 33.003906 18.886719 33.003906 18.886719 L 32.757812 19.210938 L 32.632812 19.210938 L 31.773438 19.375 L 31.617188 19.007812 L 31.046875 19.578125 L 30.800781 20.515625 L 30.800781 21.296875 L 31.777344 21.828125 L 32.558594 21.542969 L 33.332031 20.152344 L 34.027344 19.300781 L 35.289062 19.097656 L 35.574219 18.851562 L 37.003906 20.523438 L 37.167969 21.09375 L 37.578125 20.890625 L 37.449219 20.402344 L 37.699219 20.402344 L 37.542969 20.070312 L 36.152344 18.765625 L 36.273438 18.519531 L 36.722656 18.480469 L 37.699219 19.457031 L 38.195312 20.035156 L 38.195312 20.929688 L 38.441406 21.09375 L 38.929688 21.582031 L 39.289062 21.460938 L 39.09375 20.722656 L 39.214844 20.273438 L 39.460938 19.988281 L 40.03125 20.191406 L 40.234375 20.273438 L 40.195312 19.621094 L 40.519531 19.007812 L 40.722656 18.113281 L 41.457031 18.234375 L 41.582031 18.644531 L 41.867188 18.847656 L 42.191406 18.5625 L 41.988281 18.113281 L 42.84375 18.113281 L 42.558594 18.601562 L 43.132812 19.089844 L 43.621094 19.335938 L 43.90625 19.90625 L 43.253906 20.066406 L 42.316406 19.859375 L 41.5 19.859375 L 40.726562 20.273438 L 40.5625 20.519531 L 39.996094 20.640625 L 40.242188 21.253906 L 40.691406 21.78125 L 41.5 21.496094 L 41.703125 21.859375 L 42.070312 21.574219 L 42.558594 21.65625 L 42.601562 22.191406 L 42.4375 23.203125 L 41.988281 23.164062 L 41.457031 23.082031 L 41.214844 23.6875 L 39.421875 23.359375 L 39.09375 22.949219 L 38.6875 23.316406 L 38.238281 23.925781 L 37.09375 23.273438 L 35.953125 22.585938 L 35.953125 21.359375 L 35.214844 21.402344 L 35.175781 21.808594 L 33.382812 21.726562 L 32.816406 22.25 L 31.714844 22.292969 L 30.976562 22.945312 L 30.527344 24.207031 L 29.386719 25.109375 L 28.570312 26.210938 L 28.53125 28.328125 L 28.285156 28.980469 L 28.199219 29.761719 L 28.695312 30.613281 L 28.980469 31.425781 L 29.957031 32.609375 L 30.535156 33.097656 L 31.097656 33.21875 L 31.222656 32.730469 L 33.261719 32.730469 L 33.789062 32.484375 L 34.441406 32.566406 L 34.644531 32.976562 L 35.339844 33.015625 L 35.789062 33.34375 L 35.789062 34.035156 L 35.625 34.605469 L 35.464844 35.054688 L 35.871094 35.792969 L 36.40625 36.40625 L 36.648438 37.957031 L 36.691406 38.96875 L 36.324219 39.824219 L 36.28125 40.640625 L 36.570312 42.148438 L 36.8125 42.394531 L 37.179688 43.820312 L 37.222656 44.429688 L 37.957031 45.410156 L 38.042969 46.183594 L 38.160156 47.082031 L 38.605469 46.632812 L 39.75 46.515625 L 40.445312 46.515625 L 41.707031 44.558594 L 41.792969 43.785156 L 42.648438 42.929688 L 42.683594 41.949219 L 43.136719 40.96875 L 44.195312 39.953125 L 44.195312 38.8125 L 43.953125 37.75 L 43.789062 36.285156 L 44.566406 35.0625 L 45.957031 33.347656 L 46.476562 32.820312 L 46.679688 32.125 L 47.007812 31.515625 L 47.09375 30.613281 L 46.3125 30.613281 L 45.953125 30.980469 L 45.21875 30.777344 L 44.769531 30.042969 L 44.402344 29.308594 L 43.546875 28.65625 L 43.34375 27.59375 L 42.976562 26.976562 L 42.574219 26.203125 L 42.039062 25.265625 L 41.921875 24.652344 L 42.488281 24.570312 L 42.820312 25.265625 L 43.472656 26.488281 L 43.960938 27.386719 L 44.488281 28.363281 L 45.0625 29.304688 L 45.835938 30.085938 L 46.527344 29.433594 L 47.316406 29.230469 L 47.882812 28.539062 L 48.660156 28.089844 L 49.105469 27.3125 L 49.152344 26.664062 L 48.785156 26.25 L 48.296875 25.679688 L 47.964844 25.882812 L 47.769531 26.214844 L 47.234375 25.96875 L 47.070312 25.558594 L 46.707031 25.023438 L 46.136719 24.496094 L 46.136719 23.433594 L 46.503906 24.128906 L 46.953125 24.824219 L 47.726562 25.273438 L 48.261719 25.152344 L 48.589844 25.519531 L 50.910156 25.472656 L 50.871094 25.519531 L 51.605469 26.171875 L 52.140625 26.90625 L 52.296875 27.265625 L 52.664062 27.265625 L 52.785156 26.863281 L 52.90625 27.46875 L 53.109375 28.570312 L 53.554688 29.632812 L 53.800781 30.527344 L 54.167969 31.382812 L 54.453125 31.746094 L 54.863281 31.5 L 54.980469 31.089844 L 55.144531 30.078125 L 55.101562 29.179688 L 55.429688 28.769531 C 55.429688 28.769531 55.773438 28.300781 55.835938 28.28125 C 55.902344 28.265625 56.652344 27.429688 56.652344 27.429688 L 57.019531 26.976562 L 57.425781 26.730469 L 57.925781 26.445312 L 58.113281 26.445312 L 58.203125 26.894531 L 58.40625 27.421875 L 59.058594 28.273438 L 59.058594 28.597656 L 59.175781 28.964844 L 59.621094 28.761719 L 59.582031 28.273438 L 59.996094 28.359375 L 60.078125 28.808594 L 60.042969 29.5 L 60.164062 29.988281 L 60.527344 30.074219 L 60.648438 29.664062 L 61.097656 29.949219 L 61.179688 30.359375 L 61.585938 30.972656 L 61.996094 31.421875 L 62.28125 31.671875 L 62.972656 31.058594 L 63.257812 30.484375 L 63.140625 29.832031 L 63.019531 28.976562 L 62.246094 28.242188 L 62.121094 27.503906 L 62.453125 26.984375 C 62.453125 26.984375 62.65625 26.566406 62.855469 26.78125 C 63.054688 27 63.152344 27.027344 63.058594 27.269531 C 62.972656 27.511719 62.816406 28.050781 62.816406 28.050781 L 63.304688 28.253906 L 63.507812 27.5625 L 63.304688 27.066406 L 63.796875 26.863281 L 64.695312 26.414062 L 65.261719 25.722656 L 65.710938 24.667969 L 65.671875 23.886719 L 65.222656 22.871094 L 64.324219 21.808594 L 63.753906 21.285156 L 63.46875 20.46875 L 63.996094 20.339844 C 63.996094 20.339844 64.300781 19.820312 64.566406 20.097656 C 64.832031 20.382812 65.21875 20.789062 65.21875 20.789062 C 65.21875 20.789062 65.683594 21.523438 65.75 21.605469 C 65.816406 21.6875 66.292969 22.128906 66.359375 22.214844 C 66.429688 22.296875 66.726562 22.625 66.726562 22.625 L 67.21875 21.9375 L 67.335938 21.808594 L 67.335938 21.5625 L 66.640625 21.152344 L 66.035156 20.585938 L 66.484375 19.601562 L 67.21875 19.242188 L 67.335938 18.910156 L 67.335938 16.992188 L 66.972656 16.257812 L 66.566406 15.6875 C 66.566406 15.6875 66.144531 15.625 66.035156 15.648438 C 65.925781 15.667969 65.019531 14.996094 65.019531 14.996094 L 65.105469 14.34375 L 65.433594 13.769531 L 66.984375 13.574219 L 67.347656 13.613281 L 67.347656 13.207031 L 65.105469 10.269531 L 62.949219 10.023438 L 61.273438 9.613281 C 61.273438 9.613281 60.769531 10 60.5 10.023438 C 60.234375 10.046875 59.316406 10.1875 59.316406 10.1875 L 58.378906 9.613281 L 56.421875 9.449219 L 56.335938 9.410156 L 54.660156 9.328125 L 53.652344 8.757812 M 38.347656 15.140625 L 43.011719 11.613281 L 41.421875 12.472656 L 41.015625 12.179688 L 40.816406 11.855469 L 40.898438 11.523438 L 41.800781 11.566406 L 42.207031 11.40625 L 41.394531 10.996094 L 40.253906 10.585938 L 39.109375 10.382812 L 37.886719 10.628906 L 36.625 11.648438 L 36.050781 12.21875 L 35.203125 13.160156 L 34.863281 13.199219 L 34.746094 13.648438 L 34.90625 14.097656 C 34.90625 14.097656 35.085938 14.300781 35.109375 14.300781 C 35.136719 14.300781 35.441406 14.136719 35.441406 14.136719 C 35.441406 14.136719 35.46875 13.984375 35.644531 13.933594 C 35.8125 13.882812 35.96875 13.851562 35.96875 13.851562 L 36.214844 14.339844 L 36.507812 14.75 L 36.628906 15.074219 C 36.628906 15.074219 37.101562 14.785156 37.117188 14.75 C 37.132812 14.707031 37.160156 14.214844 37.160156 14.214844 L 37.519531 13.96875 C 37.519531 13.96875 37.617188 13.792969 37.605469 13.765625 C 37.59375 13.738281 37.355469 13.480469 37.355469 13.480469 L 37.160156 13.398438 L 37.242188 12.984375 C 37.242188 12.984375 37.398438 12.917969 37.398438 12.863281 C 37.398438 12.8125 37.648438 12.617188 37.648438 12.617188 L 37.9375 12.253906 L 38.140625 12.011719 L 38.425781 11.808594 L 38.753906 12.050781 L 38.753906 12.214844 L 38.46875 12.542969 L 38.382812 12.867188 L 38.382812 13.316406 L 38.632812 13.519531 L 39.078125 13.480469 L 39.488281 13.398438 L 39.847656 13.601562 L 39.765625 13.886719 C 39.765625 13.886719 39.511719 14.132812 39.429688 14.171875 C 39.359375 14.210938 38.902344 14.089844 38.789062 14.132812 C 38.667969 14.171875 38.375 14.542969 38.375 14.542969 C 38.375 14.542969 38.339844 14.871094 38.375 14.953125 C 38.386719 14.980469 38.371094 15.042969 38.355469 15.121094 M 43.007812 11.625 L 48.339844 10.71875 L 48.300781 10.515625 L 47.894531 9.941406 L 47.039062 9.859375 C 47.039062 9.859375 47.242188 10.726562 47.242188 10.839844 C 47.242188 10.945312 46.675781 10.875 46.675781 10.875 L 45.695312 10.921875 C 45.695312 10.921875 44.28125 11.246094 44.101562 11.246094 C 43.933594 11.246094 43.105469 11.585938 43.046875 11.613281 L 43.011719 11.617188 M 10.335938 9.238281 L 9.683594 9.976562 L 10.253906 10.261719 L 10.992188 9.929688 L 11.035156 10.746094 L 11.644531 11.160156 L 12.296875 10.542969 L 13.195312 10.703125 L 13.5625 9.855469 L 12.09375 9.726562 M 14.417969 9.363281 L 14.988281 10.792969 L 14.296875 10.875 L 13.765625 11.527344 L 12.578125 11.164062 L 11.523438 11.574219 L 10.503906 11.328125 L 9.324219 10.589844 L 7.691406 10.628906 L 6.261719 11.242188 L 5.324219 10.792969 L 4.757812 10.753906 L 4.757812 28.484375 L 5.859375 29.097656 L 6.511719 29.011719 L 7.449219 29.457031 L 8.875 30.238281 L 9.078125 31.183594 L 10.21875 32.277344 L 10.871094 31.789062 L 11.402344 32.199219 L 11.320312 31.257812 L 10.300781 31.507812 L 9.972656 30.324219 L 9.851562 29.789062 L 8.949219 28.980469 L 8.949219 28.410156 L 9.644531 27.671875 L 9.195312 27.144531 L 8.460938 27.261719 L 7.359375 28.363281 L 6.460938 28.246094 C 6.460938 28.246094 6.054688 27.554688 5.972656 27.390625 C 5.890625 27.226562 6.21875 26.65625 6.21875 26.65625 L 6.136719 24.980469 L 7.074219 24.328125 L 7.808594 24.078125 L 8.867188 24.078125 L 10.332031 23.753906 L 10.863281 24.445312 L 10.777344 25.261719 L 11.390625 25.789062 L 11.476562 25.214844 C 11.476562 25.214844 11.4375 24.277344 11.355469 24.035156 C 11.273438 23.789062 12.089844 23.21875 12.089844 23.21875 L 12.742188 22.417969 L 13.515625 21.472656 L 13.882812 20.738281 L 15.109375 20.089844 L 15.917969 19.1875 C 15.917969 19.1875 17.144531 18.996094 17.386719 18.855469 C 17.636719 18.738281 17.472656 18.289062 17.222656 17.878906 C 16.976562 17.46875 17.347656 17.0625 17.347656 17.0625 L 18.285156 16.496094 L 19.09375 16.65625 L 19.179688 17.640625 C 19.179688 17.640625 19.945312 18.371094 20.195312 18.246094 C 20.441406 18.128906 20.558594 17.714844 20.558594 17.714844 L 20.152344 16.65625 L 20.398438 15.601562 L 19.296875 15.757812 L 19.296875 13.964844 L 18.96875 14.296875 L 18.113281 14.335938 L 17.992188 13.4375 L 17.425781 12.746094 C 17.425781 12.746094 16.863281 13.070312 16.324219 13.277344 C 15.785156 13.480469 15.917969 13.886719 15.917969 13.886719 L 15.875 14.988281 L 14.980469 15.722656 L 14.40625 16.578125 C 14.40625 16.578125 14.046875 16.332031 14.046875 16.171875 C 14.046875 16.007812 13.960938 15.558594 13.960938 15.558594 L 13.023438 14.824219 C 13.023438 14.824219 12.289062 14.292969 12.246094 14.132812 C 12.207031 13.96875 12.695312 13.234375 12.695312 13.234375 C 12.695312 13.234375 13.75 12.582031 14 12.378906 C 14.25 12.175781 15.585938 12.828125 15.75 12.710938 C 15.917969 12.585938 16.5625 11.566406 16.5625 11.566406 L 17.136719 10.789062 L 16.5625 11.441406 L 15.585938 10.503906 L 15.75 9.566406 L 14.402344 9.359375 M 17.675781 9.40625 L 17.34375 10.222656 L 17.546875 10.671875 L 18.285156 10.585938 L 18.613281 11.195312 L 17.960938 11.890625 L 17.226562 11.972656 L 17.878906 12.261719 L 18.570312 12.867188 L 19.257812 13.03125 L 19.507812 12.09375 L 19.546875 11.523438 L 20.363281 11.644531 C 20.363281 11.644531 20.113281 12.054688 20.234375 12.054688 C 20.367188 12.054688 20.851562 11.523438 20.851562 11.523438 L 19.460938 10.089844 C 19.460938 10.089844 18.890625 9.644531 18.726562 9.765625 C 18.554688 9.882812 18.109375 9.847656 18.109375 9.847656 L 17.660156 9.398438 M 28.996094 11.734375 L 28.832031 12.265625 C 29.417969 12.722656 29.648438 12.714844 29.648438 12.714844 L 30.335938 12.554688 L 30.789062 12.105469 L 30.5 11.738281 L 28.996094 11.738281 M 32.617188 14.0625 L 32.292969 14.347656 C 32.210938 14.746094 32.09375 15.15625 32.09375 15.15625 L 32.710938 15.449219 L 32.792969 15.808594 L 32.460938 16.140625 L 32.175781 16.628906 L 32.378906 16.832031 L 33.113281 16.710938 L 33.765625 16.425781 L 33.40625 15.933594 L 33.28125 15.078125 L 32.835938 14.589844 M 31.617188 15.605469 L 31.25 16.214844 L 31.738281 16.417969 L 31.941406 16.050781 M 11.476562 17.035156 L 12.332031 17.398438 L 12.902344 18.136719 L 13.265625 18.703125 C 13.265625 18.703125 12.941406 19.800781 12.855469 20.007812 C 12.769531 20.210938 12.519531 19.597656 12.519531 19.597656 L 12.324219 18.539062 L 11.632812 18.828125 L 11.105469 20.085938 L 11.222656 19.03125 L 11.382812 18.292969 L 10.527344 17.96875 L 11.265625 17.273438 L 11.46875 17.03125 M 45.882812 18.011719 C 46.054688 17.957031 46.371094 18.214844 46.371094 18.214844 L 46.039062 18.503906 L 46.164062 18.910156 L 46.53125 19.890625 L 46.890625 20.5 L 47.386719 21.273438 L 46.851562 21.523438 L 46.160156 21.074219 L 45.871094 20.21875 C 45.871094 20.21875 45.480469 19.691406 45.296875 19.609375 C 45.125 19.523438 44.972656 19.242188 44.972656 19.242188 L 45.132812 18.550781 C 45.132812 18.550781 45.695312 18.082031 45.871094 18.019531 M 35.570312 19.5625 L 35.082031 20.5 L 35.441406 20.867188 L 35.773438 20.578125 L 35.816406 20.175781 M 33.933594 20.539062 L 33.933594 20.785156 L 34.140625 20.746094 M 36.746094 21.152344 L 36.503906 21.234375 L 36.910156 21.929688 L 37.277344 21.644531 M 10.496094 26.617188 L 10.089844 26.820312 L 10.777344 27.1875 L 11.5625 27.34375 L 12.011719 27.957031 L 12.539062 27.628906 L 12.453125 27.261719 L 11.554688 26.609375 L 10.496094 26.609375 M 12.691406 30.652344 L 11.632812 31.226562 L 11.507812 32.402344 L 11.265625 33.707031 L 10.53125 34.6875 L 10.566406 36.148438 L 11.183594 37.65625 L 11.835938 39.492188 L 13.546875 41.203125 L 13.628906 42.179688 L 13.746094 46.589844 L 14.359375 49.074219 C 14.359375 49.074219 14.734375 50.511719 14.644531 50.628906 C 14.558594 50.742188 15.136719 51.804688 15.136719 51.804688 L 16.28125 53.597656 L 17.871094 54.289062 L 17.21875 53.511719 L 16.886719 52.613281 L 17.21875 51.675781 L 16.363281 51.226562 C 16.363281 51.226562 16.933594 50.855469 17.015625 50.738281 C 17.101562 50.621094 16.890625 50.125 16.890625 50.125 L 16.644531 49.515625 L 17.296875 48.664062 L 18.316406 48.414062 L 18.476562 47.636719 L 17.867188 47.347656 L 18.113281 46.695312 L 19.089844 46.578125 L 19.949219 44.496094 L 20.558594 43.066406 L 21.816406 42.457031 C 21.816406 42.457031 22.226562 41.242188 22.226562 41.066406 C 22.226562 40.898438 22.347656 39.070312 22.347656 39.070312 L 23.328125 37.730469 L 23.453125 36.832031 L 22.714844 36.382812 L 22.109375 35.644531 L 21.007812 35.730469 L 19.25 34.710938 L 18.890625 33.855469 C 18.890625 33.855469 18.273438 32.800781 18.152344 32.800781 C 18.035156 32.800781 17.296875 32.84375 17.296875 32.84375 L 16.609375 32.148438 L 16.15625 31.292969 L 14.402344 30.925781 L 13.835938 30.640625 L 12.695312 30.640625 M 60.214844 31.289062 C 60.363281 31.457031 61.28125 34.183594 61.402344 34.183594 C 61.515625 34.183594 62.214844 34.269531 62.214844 34.269531 L 61.847656 33.167969 M 55.535156 31.375 L 55.125 31.90625 L 55.328125 32.683594 L 55.777344 32.195312 L 55.691406 31.578125 M 66.085938 32.3125 L 64.171875 33.371094 C 64.171875 33.492188 63.230469 34.269531 63.230469 34.269531 L 63.476562 35.085938 L 64.007812 35.691406 L 64.375 36.59375 L 66.820312 35 L 66.082031 32.308594 M 60.097656 32.882812 L 59.527344 32.964844 L 62.136719 36.878906 L 62.828125 37.652344 L 64.535156 37.738281 L 65.597656 38.070312 L 64.457031 37.253906 L 62.824219 36.800781 L 62.417969 35.296875 L 61.519531 34.558594 L 60.09375 32.890625 M 46.402344 39.238281 L 46.402344 39.8125 C 46.375 39.894531 45.871094 40.300781 45.871094 40.300781 L 45.261719 40.585938 L 44.8125 40.953125 L 45.136719 41.402344 L 45.339844 41.605469 L 44.8125 42.054688 L 44.8125 42.789062 L 45.015625 43.5625 L 45.464844 43.6875 L 45.992188 42.871094 L 46.324219 42.339844 L 46.238281 41.691406 L 46.726562 40.914062 L 46.890625 40.546875 L 46.890625 39.8125 L 46.773438 39.242188 M 67.351562 40.179688 C 67.347656 40.179688 67.3125 40.222656 67.3125 40.222656 L 66.660156 41.566406 C 66.660156 41.566406 65.222656 41.78125 65.1875 41.898438 C 65.160156 42.007812 64.453125 42.386719 64.453125 42.386719 C 64.304688 42.386719 63.839844 43.242188 63.839844 43.242188 L 63.753906 45.933594 L 63.59375 46.910156 L 64.003906 47.441406 L 65.996094 46.746094 L 66.648438 46.011719 L 67.339844 46.011719 L 67.339844 40.183594 M 19.695312 51.59375 L 19.410156 51.789062 L 19.289062 51.832031 L 19.941406 52.15625 L 19.691406 51.589844 M 18.589844 51.832031 L 18.304688 52.484375 L 18.871094 52.359375 L 18.585938 51.832031 "/>
      </g>
    </g>
  </g>
</svg>