<?xml version="1.0" encoding="UTF-8" standalone="yes"?>
<svg xmlns="http://www.w3.org/2000/svg" xmlns:xlink="http://www.w3.org/1999/xlink" width="96px" height="96px" viewBox="0 0 72 72" version="1.1">
  <g id="surface1">
    <path style=" stroke:none;fill-rule:evenodd;fill:rgb(90.196078%,69.019608%,49.803922%);fill-opacity:1;" d="M 54 15 C 57 15 57 15 57 18 L 57 60 C 57 63 57 63 54 63 L 18 63 C 15 63 15 63 15 60 L 15 18 C 15 15 15 15 18 15 "/>
    <path style=" stroke:none;fill-rule:nonzero;fill:rgb(100%,100%,100%);fill-opacity:1;" d="M 51 15 L 21 15 L 21 57 L 51 57 "/>
    <path style=" stroke:none;fill-rule:nonzero;fill:rgb(66.666667%,66.666667%,66.666667%);fill-opacity:1;" d="M 24 9 L 24 18.214844 L 48 18.214844 L 48 9 "/>
    <path style=" stroke:none;fill-rule:nonzero;fill:rgb(52.54902%,52.54902%,52.54902%);fill-opacity:1;" d="M 28.5 27 L 43.5 27 C 48 27 48 27 48 31.5 L 48 43.5 C 48 48 48 48 43.5 48 C 41.8125 48 39.84375 47.984375 38.15625 47.984375 C 38.71875 48.46875 39.242188 49.175781 38.949219 49.957031 C 38.636719 51.089844 37.003906 51.371094 36.300781 50.445312 C 34.996094 49.125 34.269531 47.835938 33 46.484375 C 34.347656 45.058594 35.144531 43.6875 36.53125 42.304688 C 37.441406 41.460938 39.132812 42.21875 39.058594 43.472656 C 39.089844 44.128906 38.582031 44.570312 38.15625 44.984375 C 40.039062 44.964844 41.617188 45.066406 43.5 45 C 45 45 45 45 45 43.5 L 45 31.5 C 45 30 45 30 43.5 30 L 28.5 30 C 27 30 27 30 27 31.5 L 27 43.5 C 27 45 27 45 28.5 45 C 30 45 30 45 30 46.5 C 30 48 30 48 28.5 48 C 24 48 24 48 24 43.5 L 24 31.5 C 24 27 24 27 28.5 27 Z M 28.5 27 "/>
  </g>
</svg>