<?xml version="1.0" encoding="UTF-8" standalone="yes"?>
<svg xmlns="http://www.w3.org/2000/svg" xmlns:xlink="http://www.w3.org/1999/xlink" width="96px" height="96px" viewBox="0 0 72 72" version="1.1">
  <g id="surface1">
    <path style=" stroke:none;fill-rule:evenodd;fill:rgb(90.196078%,69.019608%,49.803922%);fill-opacity:1;" d="M 54 15 C 57 15 57 15 57 18 L 57 60 C 57 63 57 63 54 63 L 18 63 C 15 63 15 63 15 60 L 15 18 C 15 15 15 15 18 15 "/>
    <path style=" stroke:none;fill-rule:nonzero;fill:rgb(100%,100%,100%);fill-opacity:1;" d="M 51 15 L 21 15 L 21 57 L 51 57 "/>
    <path style=" stroke:none;fill-rule:nonzero;fill:rgb(66.666667%,66.666667%,66.666667%);fill-opacity:1;" d="M 24 9 L 24 18.214844 L 48 18.214844 L 48 9 "/>
    <path style=" stroke:none;fill-rule:nonzero;fill:rgb(52.54902%,52.54902%,52.54902%);fill-opacity:1;" d="M 36.75 45 L 33.5625 48 L 48 48 L 48 45 Z M 36.75 45 "/>
    <path style=" stroke:none;fill-rule:nonzero;fill:rgb(52.54902%,52.54902%,52.54902%);fill-opacity:1;" d="M 30.375 51 L 27.1875 54 L 48 54 L 48 51 Z M 30.375 51 "/>
    <path style=" stroke:none;fill-rule:nonzero;fill:rgb(52.54902%,52.54902%,52.54902%);fill-opacity:1;" d="M 43.125 33 L 46.3125 36 L 48 36 L 48 33 Z M 43.125 33 "/>
    <path style=" stroke:none;fill-rule:nonzero;fill:rgb(52.54902%,52.54902%,52.54902%);fill-opacity:1;" d="M 43.125 39 L 39.9375 42 L 48 42 L 48 39 Z M 43.125 39 "/>
    <path style=" stroke:none;fill-rule:nonzero;fill:rgb(52.54902%,52.54902%,52.54902%);fill-opacity:1;" d="M 30.375 21 L 33.5625 24 L 48 24 L 48 21 Z M 30.375 21 "/>
    <path style=" stroke:none;fill-rule:nonzero;fill:rgb(52.54902%,52.54902%,52.54902%);fill-opacity:1;" d="M 36.75 27 L 39.9375 30 L 48 30 L 48 27 Z M 36.75 27 "/>
    <path style=" stroke:none;fill-rule:nonzero;fill:rgb(52.156863%,60%,0%);fill-opacity:1;" d="M 42 36 L 27 21 L 27 30 L 12 30 L 12 42 L 27 42 L 27 51 Z M 42 36 "/>
  </g>
</svg>