<?xml version="1.0" encoding="UTF-8" standalone="yes"?>
<svg xmlns="http://www.w3.org/2000/svg" xmlns:xlink="http://www.w3.org/1999/xlink" width="96px" height="96px" viewBox="0 0 72 72" version="1.1">
  <g id="surface1">
    <path style=" stroke:none;fill-rule:evenodd;fill:rgb(52.156863%,60%,0%);fill-opacity:1;" d="M 66 36 C 66 52.566406 52.566406 66 36 66 C 19.433594 66 6 52.566406 6 36 C 6 19.433594 19.433594 6 36 6 C 52.566406 6 66 19.433594 66 36 Z M 66 36 "/>
    <path style=" stroke:none;fill-rule:nonzero;fill:rgb(100%,100%,100%);fill-opacity:0.901961;" d="M 53.050781 28.824219 C 50.097656 22.238281 43.488281 18 36.042969 18 C 28.425781 18 21.449219 22.636719 18.707031 29.511719 L 24.488281 31.683594 C 26.316406 27.082031 30.960938 24.003906 36.042969 24.003906 C 40.941406 24.003906 45.277344 26.753906 47.285156 31.050781 L 43.074219 32.683594 L 53.847656 38.714844 L 57 27.300781 Z M 53.050781 28.824219 "/>
    <path style=" stroke:none;fill-rule:nonzero;fill:rgb(100%,100%,100%);fill-opacity:0.901961;" d="M 36.042969 48.003906 C 31.175781 48.003906 26.753906 45.164062 24.773438 40.898438 L 28.921875 39.347656 L 18.261719 33.445312 L 15 44.558594 L 18.980469 43.066406 C 21.871094 49.636719 28.640625 54 36.042969 54 C 43.6875 54 50.457031 49.550781 53.292969 42.667969 L 47.542969 40.449219 C 45.65625 45.042969 41.136719 48.003906 36.042969 48.003906 Z M 36.042969 48.003906 "/>
  </g>
</svg>