<?xml version="1.0" encoding="UTF-8" standalone="no"?>
<svg
   xmlns:dc="http://purl.org/dc/elements/1.1/"
   xmlns:cc="http://creativecommons.org/ns#"
   xmlns:rdf="http://www.w3.org/1999/02/22-rdf-syntax-ns#"
   xmlns:svg="http://www.w3.org/2000/svg"
   xmlns="http://www.w3.org/2000/svg"
   xmlns:sodipodi="http://sodipodi.sourceforge.net/DTD/sodipodi-0.dtd"
   xmlns:inkscape="http://www.inkscape.org/namespaces/inkscape"
   viewBox="0 0 32 32"
   id="svg2"
   version="1.1"
   inkscape:version="0.91 r"
   sodipodi:docname="xfce-multimedia.svg"
   width="32"
   height="32">
  <metadata
     id="metadata12">
    <rdf:RDF>
      <cc:Work
         rdf:about="">
        <dc:format>image/svg+xml</dc:format>
        <dc:type
           rdf:resource="http://purl.org/dc/dcmitype/StillImage" />
        <dc:title />
      </cc:Work>
    </rdf:RDF>
  </metadata>
  <defs
     id="defs10" />
  <sodipodi:namedview
     pagecolor="#ffffff"
     bordercolor="#666666"
     borderopacity="1"
     objecttolerance="10"
     gridtolerance="10"
     guidetolerance="10"
     inkscape:pageopacity="0"
     inkscape:pageshadow="2"
     inkscape:window-width="1920"
     inkscape:window-height="1056"
     id="namedview8"
     showgrid="true"
     inkscape:snap-intersection-paths="true"
     inkscape:object-paths="false"
     inkscape:zoom="22.627417"
     inkscape:cx="10.781814"
     inkscape:cy="19.354602"
     inkscape:window-x="0"
     inkscape:window-y="24"
     inkscape:window-maximized="1"
     inkscape:current-layer="svg2">
    <inkscape:grid
       type="xygrid"
       id="grid4140" />
  </sodipodi:namedview>
  <g
     transform="matrix(0.66666748,0,0,0.66666748,-0.30499672,-670.90896)"
     id="g4">
    <path
       style="fill:#4c7686"
       d="m 20,6 0,20.736328 a 4.136024,6.2040367 75 0 0 -5.158203,-0.285156 4.136024,6.2040367 75 0 0 -4.9218751,5.601562 4.136024,6.2040367 75 0 0 7.0625001,2.388672 4.136024,6.2040367 75 0 0 5.013672,-4.80664 l 0.0039,0 0,-15.253907 13,1.734375 0,15.869141 a 4.136024,6.2040367 75 0 0 -5.158203,-0.285156 4.136024,6.2040367 75 0 0 -4.921875,5.601562 4.136024,6.2040367 75 0 0 7.0625,2.388672 4.136024,6.2040367 75 0 0 5.013672,-4.808594 L 37,34.882812 37,8.2773438 20,6 Z m 2,4.621094 13,1.734375 0,1.759765 -13,-1.734375 0,-1.759765 z"
       transform="translate(0.45762712,1006.3622)"
       id="path6"
       inkscape:connector-curvature="0" />
  </g>
</svg>
