<?xml version="1.0" encoding="UTF-8" standalone="no"?>
<svg
   xmlns:dc="http://purl.org/dc/elements/1.1/"
   xmlns:cc="http://creativecommons.org/ns#"
   xmlns:rdf="http://www.w3.org/1999/02/22-rdf-syntax-ns#"
   xmlns:svg="http://www.w3.org/2000/svg"
   xmlns="http://www.w3.org/2000/svg"
   xmlns:sodipodi="http://sodipodi.sourceforge.net/DTD/sodipodi-0.dtd"
   xmlns:inkscape="http://www.inkscape.org/namespaces/inkscape"
   width="32"
   height="32"
   viewBox="0 0 32 32"
   id="svg2"
   version="1.1"
   inkscape:version="0.91 r"
   sodipodi:docname="applications-java.svg">
  <metadata
     id="metadata26">
    <rdf:RDF>
      <cc:Work
         rdf:about="">
        <dc:format>image/svg+xml</dc:format>
        <dc:type
           rdf:resource="http://purl.org/dc/dcmitype/StillImage" />
      </cc:Work>
    </rdf:RDF>
  </metadata>
  <defs
     id="defs24" />
  <sodipodi:namedview
     pagecolor="#ffffff"
     bordercolor="#666666"
     borderopacity="1"
     objecttolerance="10"
     gridtolerance="10"
     guidetolerance="10"
     inkscape:pageopacity="0"
     inkscape:pageshadow="2"
     inkscape:window-width="1920"
     inkscape:window-height="1056"
     id="namedview22"
     showgrid="false"
     inkscape:zoom="7.375"
     inkscape:cx="16"
     inkscape:cy="16"
     inkscape:window-x="0"
     inkscape:window-y="24"
     inkscape:window-maximized="1"
     inkscape:current-layer="svg2" />
  <g
     style="fill:#e660c1;fill-rule:evenodd"
     id="g4"
     transform="matrix(1.0412387,0,0,1.0412387,-0.48622666,-0.48669113)">
    <path
       d="m 12.589844,22.59375 c 0,0 -0.949219,0.550781 0.667968,0.738281 1.964844,0.222657 2.964844,0.191407 5.125,-0.21875 0,0 0.570313,0.355469 1.359376,0.664063 -4.84375,2.078125 -10.960938,-0.117188 -7.152344,-1.183594"
       id="path6"
       inkscape:connector-curvature="0" />
    <path
       d="m 11.996094,19.886719 c 0,0 -1.0625,0.789062 0.558594,0.953125 2.09375,0.214844 3.746093,0.234375 6.609374,-0.316406 0,0 0.394532,0.402343 1.019532,0.621093 -5.859375,1.710938 -12.382813,0.132813 -8.1875,-1.257812"
       id="path8"
       inkscape:connector-curvature="0" />
    <path
       d="m 16.980469,15.292969 c 1.195312,1.375 -0.3125,2.609375 -0.3125,2.609375 0,0 3.03125,-1.5625 1.640625,-3.519532 -1.300782,-1.832031 -2.296875,-2.734374 3.101562,-5.867187 0,0 -8.46875,2.117187 -4.429687,6.777344"
       id="path10"
       inkscape:connector-curvature="0" />
    <path
       d="m 23.386719,24.597656 c 0,0 0.703125,0.578125 -0.769531,1.023438 -2.792969,0.847656 -11.632813,1.105468 -14.089844,0.03125 -0.882813,-0.382813 0.773437,-0.914063 1.292968,-1.027344 0.542969,-0.117188 0.855469,-0.09375 0.855469,-0.09375 -0.980469,-0.691406 -6.347656,1.355469 -2.726562,1.941406 9.875,1.601563 18,-0.71875 15.4375,-1.875"
       id="path12"
       inkscape:connector-curvature="0" />
    <path
       d="m 13.039062,17.082031 c 0,0 -4.496093,1.066407 -1.589843,1.457031 1.226562,0.160157 3.671875,0.125 5.945312,-0.06641 1.863281,-0.15625 3.730469,-0.492187 3.730469,-0.492187 0,0 -0.65625,0.285156 -1.132812,0.605469 C 15.429688,19.789062 6.609375,19.230469 9.148438,18 c 2.148437,-1.035156 3.890624,-0.917969 3.890624,-0.917969"
       id="path14"
       inkscape:connector-curvature="0" />
    <path
       d="m 21.105469,21.589844 c 4.644531,-2.414063 2.5,-4.730469 1,-4.417969 -0.367188,0.07813 -0.53125,0.144531 -0.53125,0.144531 0,0 0.132812,-0.21875 0.394531,-0.308594 2.964844,-1.042968 5.246094,3.074219 -0.953125,4.703126 0,0 0.07031,-0.0625 0.08984,-0.121094"
       id="path16"
       inkscape:connector-curvature="0" />
    <path
       d="m 18.308594,3.464844 c 0,0 2.570312,2.570312 -2.4375,6.523437 -4.015625,3.171875 -0.917969,4.984375 0,7.046875 -2.34375,-2.113281 -4.066406,-3.976562 -2.914063,-5.710937 1.695313,-2.542969 6.390625,-3.773438 5.351563,-7.859375"
       id="path18"
       inkscape:connector-curvature="0" />
    <path
       d="m 13.496094,28.125 c 4.457031,0.285156 11.296875,-0.160156 11.460937,-2.265625 0,0 -0.3125,0.796875 -3.683593,1.433594 C 17.472656,28.007812 12.78125,27.925781 10,27.46875 c 0,0 0.570312,0.46875 3.496094,0.65625"
       id="path20"
       inkscape:connector-curvature="0" />
  </g>
</svg>
