<svg width="32" xmlns="http://www.w3.org/2000/svg" height="32" viewBox="0 0 32 32" xmlns:xlink="http://www.w3.org/1999/xlink">
<g style="fill:#cf9545">
<path d="M 8.917969 15.761719 L 23.070312 15.761719 L 23.070312 25.769531 L 8.917969 25.769531 Z "/>
<path d="M 5.335938 18.464844 L 8.9375 15.761719 L 9.527344 16.550781 L 5.925781 19.253906 Z "/>
<path d="M 22.472656 16.550781 L 26.074219 19.253906 L 26.664062 18.464844 L 23.0625 15.761719 Z "/>
<path d="M 10.371094 11.449219 L 12.605469 12.15625 L 11.898438 14.390625 L 9.664062 13.683594 Z "/>
<path d="M 11.964844 7.316406 L 15.664062 6.234375 L 16.746094 9.933594 L 13.046875 11.015625 Z "/>
<path d="M 19.1875 13.269531 L 18.085938 14.675781 L 16.316406 14.421875 L 15.652344 12.761719 L 16.753906 11.359375 L 18.523438 11.609375 Z "/>
<path d="M 22.410156 9.792969 L 21.28125 10.164062 L 20.949219 11.300781 L 20.246094 10.34375 L 19.0625 10.378906 L 19.757812 9.414062 L 19.359375 8.296875 L 20.488281 8.660156 L 21.429688 7.9375 L 21.429688 9.125 Z "/>
</g>
</svg>
