<svg width="16" xmlns="http://www.w3.org/2000/svg" height="16" viewBox="0 0 16 16" xmlns:xlink="http://www.w3.org/1999/xlink">
<path style="fill:#909ea9" d="M 4.332031 4 C 4.148438 4 4 4.148438 4 4.332031 L 3.488281 4.332031 C 3.039062 4.332031 2.667969 4.707031 2.667969 5.15625 L 2.667969 10.84375 C 2.667969 11.292969 3.039062 11.667969 3.488281 11.667969 L 12.511719 11.667969 C 12.960938 11.667969 13.332031 11.292969 13.332031 10.84375 L 13.332031 5.15625 C 13.332031 4.707031 12.960938 4.332031 12.511719 4.332031 L 6 4.332031 C 6 4.148438 5.851562 4 5.667969 4 Z M 12.167969 5 C 12.441406 5 12.667969 5.222656 12.667969 5.5 C 12.667969 5.777344 12.441406 6 12.167969 6 C 11.890625 6 11.667969 5.777344 11.667969 5.5 C 11.667969 5.222656 11.890625 5 12.167969 5 Z M 7.8125 6.332031 C 7.875 6.328125 7.9375 6.332031 8 6.332031 C 9.015625 6.332031 9.832031 7.148438 9.832031 8.167969 C 9.832031 9.183594 9.015625 10 8 10 C 6.984375 10 6.167969 9.183594 6.167969 8.167969 C 6.167969 7.214844 6.886719 6.425781 7.8125 6.332031 Z "/>
</svg>
