<svg width="16" xmlns="http://www.w3.org/2000/svg" height="16" viewBox="0 0 16 16" xmlns:xlink="http://www.w3.org/1999/xlink">
<path style="fill:#8f9da9" d="M 4.875 0 C 4.378906 0 3.980469 0.398438 3.980469 0.898438 L 3.980469 12.957031 C 3.980469 13.457031 4.378906 13.855469 4.875 13.855469 L 4.96875 13.855469 L 4.96875 15.832031 L 10.894531 15.832031 L 10.894531 13.855469 L 10.988281 13.855469 C 11.484375 13.855469 11.886719 13.457031 11.886719 12.957031 L 11.886719 0.898438 C 11.886719 0.398438 11.484375 0 10.988281 0 Z M 6.84375 2 L 9.019531 2 C 9.519531 2 9.917969 2.398438 9.917969 2.894531 L 9.917969 10.957031 C 9.917969 11.457031 9.519531 11.855469 9.019531 11.855469 L 6.84375 11.855469 C 6.347656 11.855469 5.949219 11.457031 5.949219 10.957031 L 5.949219 2.894531 C 5.949219 2.398438 6.347656 2 6.84375 2 Z M 5.9375 13.84375 L 6.925781 13.84375 L 6.925781 14.832031 L 5.9375 14.832031 Z M 8.90625 13.84375 L 9.894531 13.84375 L 9.894531 14.832031 L 8.90625 14.832031 Z "/>
</svg>
