<svg xmlns="http://www.w3.org/2000/svg" viewBox="0 0 22 22">
 <path style="fill:#353535;fill-opacity:1" d="m 3 1 c -1.108 0 -2 0.892 -2 2 l 0 5.719 c 0.209 -0.436 0.459 -0.828 0.775 -1.145 c 0.383 -0.392 0.833 -0.687 1.35 -0.887 c 0.517 -0.2 1.07 -0.301 1.662 -0.301 c 0.358 0 0.683 0.03 0.975 0.088 c 0.292 0.05 0.547 0.109 0.764 0.176 c 0.217 0.067 0.395 0.138 0.537 0.213 c 0.142 0.075 0.24 0.129 0.299 0.162 l -0.461 1.287 c -0.2 -0.125 -0.488 -0.241 -0.863 -0.35 c -0.367 -0.117 -0.766 -0.176 -1.199 -0.176 c -0.375 0 -0.726 0.068 -1.051 0.201 c -0.325 0.125 -0.608 0.316 -0.85 0.574 c -0.233 0.258 -0.417 0.583 -0.551 0.975 c -0.133 0.392 -0.199 0.847 -0.199 1.363 c 0 0.458 0.05 0.878 0.15 1.262 c 0.108 0.383 0.27 0.717 0.486 1 c 0.217 0.275 0.493 0.492 0.826 0.65 c 0.333 0.15 0.733 0.225 1.199 0.225 c 0.558 0 1.013 -0.054 1.363 -0.162 c 0.35 -0.117 0.621 -0.224 0.813 -0.324 l 0.424 1.287 c -0.1 0.067 -0.237 0.133 -0.412 0.199 c -0.167 0.067 -0.366 0.135 -0.6 0.201 c -0.233 0.058 -0.495 0.103 -0.787 0.137 c -0.292 0.042 -0.604 0.063 -0.938 0.063 c -0.65 0 -1.233 -0.101 -1.75 -0.301 c -0.517 -0.2 -0.954 -0.492 -1.313 -0.875 c -0.268 -0.293 -0.476 -0.647 -0.65 -1.033 l 0 5.771 c 0 1.108 0.892 2 2 2 l 16 0 c 1.108 0 2 -0.892 2 -2 l 0 -1.32 c -0.05 0.022 -0.097 0.046 -0.152 0.064 c -0.208 0.067 -0.458 0.1 -0.75 0.1 c -0.113 0 -0.229 -0.009 -0.35 -0.025 c -0.117 -0.012 -0.23 -0.032 -0.338 -0.057 c -0.104 -0.021 -0.2 -0.043 -0.287 -0.068 c -0.087 -0.029 -0.153 -0.055 -0.199 -0.08 l 0.15 -0.645 c 0.088 0.042 0.214 0.09 0.381 0.145 c 0.167 0.05 0.373 0.074 0.619 0.074 c 0.329 0 0.565 -0.063 0.711 -0.188 c 0.141 -0.125 0.21 -0.29 0.215 -0.492 l 0 -0.055 c -0.005 -0.121 -0.029 -0.225 -0.082 -0.309 c -0.054 -0.092 -0.132 -0.165 -0.232 -0.219 c -0.096 -0.058 -0.209 -0.098 -0.338 -0.119 c -0.125 -0.025 -0.257 -0.037 -0.398 -0.037 l -0.258 0 l 0 -0.613 l 0.313 0 c 0.096 0 0.193 -0.009 0.289 -0.025 c 0.1 -0.021 0.188 -0.054 0.268 -0.1 c 0.079 -0.05 0.143 -0.114 0.193 -0.193 c 0.05 -0.079 0.076 -0.182 0.076 -0.307 c 0 -0.1 -0.019 -0.185 -0.057 -0.256 c -0.038 -0.071 -0.088 -0.13 -0.15 -0.176 c -0.058 -0.046 -0.126 -0.079 -0.205 -0.1 c -0.079 -0.021 -0.162 -0.031 -0.25 -0.031 c -0.188 0 -0.354 0.03 -0.5 0.088 c -0.146 0.054 -0.276 0.117 -0.389 0.188 l -0.275 -0.563 c 0.058 -0.038 0.13 -0.077 0.213 -0.119 c 0.083 -0.042 0.175 -0.082 0.275 -0.119 c 0.104 -0.037 0.215 -0.067 0.332 -0.088 c 0.117 -0.025 0.238 -0.037 0.367 -0.037 c 0.242 0 0.45 0.03 0.625 0.088 c 0.067 0.022 0.126 0.051 0.184 0.08 l 0 -10.486 c 0 -1.108 -0.892 -2 -2 -2 l -16 0 z m 8.408 7.574 c 0.45 0 0.816 0.059 1.1 0.176 c 0.292 0.117 0.533 0.271 0.725 0.463 c 0.092 -0.067 0.208 -0.138 0.35 -0.213 c 0.142 -0.075 0.302 -0.141 0.477 -0.199 c 0.175 -0.067 0.357 -0.122 0.549 -0.164 c 0.2 -0.042 0.4 -0.063 0.6 -0.063 c 0.508 0 0.925 0.077 1.25 0.227 c 0.333 0.142 0.592 0.345 0.775 0.611 c 0.192 0.258 0.322 0.576 0.389 0.951 c 0.075 0.367 0.111 0.769 0.111 1.211 l 0 3.676 l -1.512 0 l 0 -3.438 c 0 -0.683 -0.083 -1.175 -0.25 -1.475 c -0.167 -0.308 -0.488 -0.463 -0.963 -0.463 c -0.242 0 -0.471 0.042 -0.688 0.125 c -0.217 0.075 -0.38 0.15 -0.488 0.225 c 0.067 0.208 0.114 0.429 0.139 0.662 c 0.025 0.233 0.037 0.483 0.037 0.75 l 0 3.613 l -1.512 0 l 0 -3.438 c 0 -0.683 -0.089 -1.175 -0.264 -1.475 c -0.167 -0.308 -0.483 -0.463 -0.949 -0.463 c -0.167 0 -0.351 0.012 -0.551 0.037 c -0.2 0.025 -0.349 0.046 -0.449 0.063 l 0 5.275 l -1.514 0 l 0 -6.324 c 0.292 -0.083 0.672 -0.163 1.139 -0.238 c 0.475 -0.075 0.975 -0.113 1.5 -0.113 z m 9.592 6.824 c -0.001 0 -0.001 0.002 -0.002 0.002 c 0.001 0 0.001 0.002 0.002 0.002 l 0 -0.004 z"/>
</svg>
