<svg viewBox="0 0 22 22" xmlns="http://www.w3.org/2000/svg">
 <path d="m 3 1 c -1.108 0 -2 0.892 -2 2 l 0 16 c 0 1.108 0.892 2 2 2 l 16 0 c 1.108 0 2 -0.892 2 -2 l 0 -16 c 0 -1.108 -0.892 -2 -2 -2 l -16 0 z m -1.1 5.588 l 1.287 0 c 0.333 0.35 0.691 0.767 1.074 1.25 c 0.383 0.475 0.767 0.97 1.15 1.486 c 0.392 0.517 0.767 1.038 1.125 1.563 c 0.367 0.517 0.691 1 0.975 1.451 l 0 -5.75 l 1.563 0 l 0 8.662 l -1.338 0 c -0.283 -0.475 -0.599 -0.984 -0.949 -1.525 c -0.35 -0.55 -0.713 -1.1 -1.088 -1.65 c -0.375 -0.558 -0.759 -1.095 -1.15 -1.611 c -0.383 -0.525 -0.75 -0.995 -1.1 -1.412 l 0 6.199 l -1.549 0 l 0 -8.662 z m 11.951 1.963 c 0.458 0 0.88 0.083 1.264 0.25 c 0.392 0.158 0.725 0.388 1 0.688 c 0.275 0.3 0.487 0.661 0.637 1.086 c 0.158 0.417 0.238 0.884 0.238 1.4 c 0 0.517 -0.075 0.987 -0.225 1.412 c -0.15 0.425 -0.364 0.788 -0.639 1.088 c -0.275 0.3 -0.608 0.535 -1 0.701 c -0.383 0.167 -0.809 0.25 -1.275 0.25 c -0.467 0 -0.89 -0.083 -1.273 -0.25 c -0.383 -0.167 -0.713 -0.401 -0.988 -0.701 c -0.275 -0.3 -0.492 -0.663 -0.65 -1.088 c -0.15 -0.425 -0.225 -0.895 -0.225 -1.412 c 0 -0.517 0.075 -0.984 0.225 -1.4 c 0.158 -0.425 0.375 -0.786 0.65 -1.086 c 0.283 -0.3 0.617 -0.529 1 -0.688 c 0.383 -0.167 0.803 -0.25 1.262 -0.25 z m 0 1.313 c -0.5 0 -0.89 0.191 -1.174 0.574 c -0.275 0.375 -0.412 0.887 -0.412 1.537 c 0 0.658 0.137 1.179 0.412 1.563 c 0.283 0.383 0.674 0.576 1.174 0.576 c 0.5 0 0.889 -0.193 1.164 -0.576 c 0.283 -0.383 0.424 -0.904 0.424 -1.563 c 0 -0.65 -0.14 -1.162 -0.424 -1.537 c -0.275 -0.383 -0.664 -0.574 -1.164 -0.574 z m 6.684 3.531 l 0.045 0.625 c -0.225 0.004 -0.437 0.028 -0.633 0.074 c -0.196 0.042 -0.369 0.108 -0.523 0.199 c -0.154 0.092 -0.288 0.212 -0.4 0.357 c -0.108 0.146 -0.192 0.325 -0.25 0.537 c 0.204 -0.096 0.426 -0.145 0.668 -0.145 c 0.258 0 0.477 0.038 0.656 0.113 c 0.183 0.071 0.331 0.168 0.443 0.293 c 0.113 0.125 0.194 0.271 0.244 0.438 c 0.054 0.163 0.082 0.335 0.082 0.514 c 0 0.163 -0.03 0.329 -0.088 0.5 c -0.054 0.171 -0.141 0.327 -0.262 0.469 c -0.117 0.137 -0.266 0.252 -0.445 0.344 c -0.179 0.088 -0.391 0.131 -0.637 0.131 c -0.496 0 -0.874 -0.163 -1.137 -0.488 c -0.258 -0.329 -0.389 -0.78 -0.389 -1.355 c 0 -0.417 0.061 -0.785 0.182 -1.105 c 0.125 -0.325 0.3 -0.599 0.525 -0.82 c 0.229 -0.221 0.503 -0.387 0.824 -0.5 c 0.325 -0.117 0.69 -0.176 1.094 -0.18 z m -1.188 2.25 c -0.121 0 -0.237 0.01 -0.35 0.031 c -0.113 0.021 -0.215 0.052 -0.307 0.094 c -0.004 0.033 -0.008 0.07 -0.012 0.111 l 0 0.113 c 0 0.167 0.01 0.325 0.031 0.475 c 0.025 0.146 0.065 0.274 0.119 0.387 c 0.058 0.108 0.135 0.197 0.23 0.264 c 0.1 0.063 0.223 0.094 0.369 0.094 c 0.121 0 0.223 -0.026 0.307 -0.076 c 0.087 -0.05 0.157 -0.114 0.211 -0.193 c 0.054 -0.079 0.094 -0.164 0.119 -0.256 c 0.025 -0.096 0.037 -0.188 0.037 -0.275 c 0 -0.25 -0.059 -0.439 -0.18 -0.568 c -0.121 -0.133 -0.314 -0.199 -0.576 -0.199 z" style="fill:#353535;fill-opacity:1"/>
</svg>
