<?xml version="1.0" encoding="UTF-8" standalone="no"?>
<!-- Created with Inkscape (http://www.inkscape.org/) -->

<svg
   xmlns:dc="http://purl.org/dc/elements/1.1/"
   xmlns:cc="http://creativecommons.org/ns#"
   xmlns:rdf="http://www.w3.org/1999/02/22-rdf-syntax-ns#"
   xmlns:svg="http://www.w3.org/2000/svg"
   xmlns="http://www.w3.org/2000/svg"
   xmlns:sodipodi="http://sodipodi.sourceforge.net/DTD/sodipodi-0.dtd"
   xmlns:inkscape="http://www.inkscape.org/namespaces/inkscape"
   id="svg2"
   version="1.1"
   inkscape:version="0.91 r"
   width="22"
   height="22"
   viewBox="0 0 22 22"
   sodipodi:docname="museeq-offline.svg">
  <metadata
     id="metadata8">
    <rdf:RDF>
      <cc:Work
         rdf:about="">
        <dc:format>image/svg+xml</dc:format>
        <dc:type
           rdf:resource="http://purl.org/dc/dcmitype/StillImage" />
        <dc:title></dc:title>
      </cc:Work>
    </rdf:RDF>
  </metadata>
  <defs
     id="defs6" />
  <sodipodi:namedview
     pagecolor="#8f8f8f"
     bordercolor="#666666"
     borderopacity="1"
     objecttolerance="10"
     gridtolerance="10"
     guidetolerance="10"
     inkscape:pageopacity="0"
     inkscape:pageshadow="2"
     inkscape:window-width="1920"
     inkscape:window-height="1056"
     id="namedview4"
     showgrid="true"
     showguides="false"
     inkscape:zoom="31.999999"
     inkscape:cx="7.6666257"
     inkscape:cy="10.232556"
     inkscape:window-x="0"
     inkscape:window-y="24"
     inkscape:window-maximized="1"
     inkscape:current-layer="svg2">
    <inkscape:grid
       type="xygrid"
       id="grid4142" />
  </sodipodi:namedview>
  <g
     style="font-style:normal;font-variant:normal;font-weight:normal;font-stretch:normal;font-size:25.43720245px;line-height:125%;font-family:Ubuntu;-inkscape-font-specification:Ubuntu;letter-spacing:0px;word-spacing:0px;fill:#353535;fill-opacity:1;stroke:none;stroke-width:1px;stroke-linecap:butt;stroke-linejoin:miter;stroke-opacity:1;opacity:0.4"
     id="text4156"
     transform="translate(-0.446741,0)">
    <path
       d="m 16.446523,16.472179 c -0.457869,0.118707 -1.473827,0.370664 -2.22496,0.475308 -0.983812,0.13706 -2.121788,0.213172 -2.973376,0.197684 C 10.640521,17.134119 9.8383676,17.006361 9.4483307,16.853737 9.0752517,16.701114 8.7350293,16.497616 8.446741,16.243244 l 0,4.756757 -1.9999998,0 0,-16.0000008 1.9999998,0 0,6.1812398 c 0,0.7292 0.043153,1.348172 0.1279443,1.856916 0.1017488,0.508744 0.254372,0.924218 0.4578696,1.246423 0.2204558,0.322205 0.500265,0.559619 0.8394277,0.712242 0.3561204,0.135665 1.1490824,0.250372 1.6578264,0.250372 0.220456,0 1.190695,-0.05537 1.411149,-0.07231 0.237414,-0.01696 0.453353,-0.03392 0.656851,-0.05087 0.203498,-0.01696 0.342888,-0.04497 0.495511,-0.06193 0.152624,-0.03391 0.293042,-0.0483 0.343916,-0.06526 l 0,-9.9968208 2.009288,0 z"
       style="font-style:normal;font-variant:normal;font-weight:normal;font-stretch:normal;font-family:'Ubuntu Mono';-inkscape-font-specification:'Ubuntu Mono';fill:#353535;fill-opacity:1"
       id="path4161"
       inkscape:connector-curvature="0"
       sodipodi:nodetypes="casccccccscccsccccccc" />
  </g>
</svg>
