<svg xmlns="http://www.w3.org/2000/svg" width="22" viewBox="0 0 6.208889 6.208889" height="22">
 <g transform="matrix(0.17072645,0,0,0.16912832,-0.82226378,-0.77111118)" style="fill:#353535;fill-opacity:1;color:#bebebe">
  <path d="m 13.402 16.09 c -3.834 0 -6.932 3.099 -6.932 6.932 0 3.834 3.099 6.932 6.932 6.932 2.032 0 3.921 -0.305 5.19 -1.697 l 0 6.408 c 0 0.961 0.692 1.602 1.653 1.602 0.961 0 1.653 -0.641 1.653 -1.602 l 0 -17.09 c 0 -0.961 -0.679 -1.488 -1.64 -1.488 -0.961 0 -1.605 0.529 -1.666 1.488 l -0.048 0.759 0.048 2.445 2.204 0 c -1.193 1.649 -2.037 2.679 -3.306 4.272 -1.311 -1.61 -2 -2.658 -3.306 -4.272 l 2.204 0 0 -4.272 c -0.698 -0.231 -2.212 -0.42 -2.986 -0.42 z"/>
  <path d="m 25.704 9.565 c -0.961 0 -1.602 0.641 -1.602 1.602 l 0 17.09 c 0 0.961 0.641 1.697 1.602 1.697 0.961 0 1.62 -0.739 1.704 -1.697 l 0.048 -0.551 -0.048 -2.653 -2.204 0 c 1.244 -1.542 2.059 -2.732 3.306 -4.272 1.304 1.615 1.997 2.661 3.306 4.272 l -2.204 0 0 4.272 c 0.698 0.231 2.212 0.629 2.986 0.629 3.834 0 6.932 -3.099 6.932 -6.932 0 -3.834 -3.099 -6.932 -6.932 -6.932 -2.032 0 -3.921 1.165 -5.19 2.556 l 0 -7.476 c 0 -0.961 -0.742 -1.602 -1.704 -1.602 z"/>
 </g>
</svg>
