<?xml version="1.0" encoding="UTF-8" standalone="no"?>
<svg
   xmlns:dc="http://purl.org/dc/elements/1.1/"
   xmlns:cc="http://creativecommons.org/ns#"
   xmlns:rdf="http://www.w3.org/1999/02/22-rdf-syntax-ns#"
   xmlns:svg="http://www.w3.org/2000/svg"
   xmlns="http://www.w3.org/2000/svg"
   xmlns:sodipodi="http://sodipodi.sourceforge.net/DTD/sodipodi-0.dtd"
   xmlns:inkscape="http://www.inkscape.org/namespaces/inkscape"
   width="22"
   viewBox="0 0 22 22"
   height="22"
   style="enable-background:new"
   id="svg13559"
   version="1.1"
   inkscape:version="0.91 r"
   sodipodi:docname="weather-none-available.svg">
  <metadata
     id="metadata13664">
    <rdf:RDF>
      <cc:Work
         rdf:about="">
        <dc:format>image/svg+xml</dc:format>
        <dc:type
           rdf:resource="http://purl.org/dc/dcmitype/StillImage" />
        <dc:title></dc:title>
      </cc:Work>
    </rdf:RDF>
  </metadata>
  <sodipodi:namedview
     pagecolor="#ffffff"
     bordercolor="#666666"
     borderopacity="1"
     objecttolerance="10"
     gridtolerance="10"
     guidetolerance="10"
     inkscape:pageopacity="0"
     inkscape:pageshadow="2"
     inkscape:window-width="1920"
     inkscape:window-height="1056"
     id="namedview13662"
     showgrid="true"
     inkscape:zoom="41.7193"
     inkscape:cx="8.5050164"
     inkscape:cy="11.106972"
     inkscape:window-x="0"
     inkscape:window-y="24"
     inkscape:window-maximized="1"
     inkscape:current-layer="svg13559">
    <inkscape:grid
       type="xygrid"
       id="grid4152" />
  </sodipodi:namedview>
  <defs
     id="defs13561" />
  <path
     inkscape:connector-curvature="0"
     id="path17697"
     d="M 8.0976562,4.75 C 7.942565,4.7489601 7.7837117,4.7587933 7.6152344,4.7832031 4.9245737,5.1730869 5.0078125,7.7714844 5.0078125,7.7714844 3.9057627,7.9823884 3.0039062,9.065306 3.0039062,10.197266 c 0,1.131978 1.1523868,2.134474 2.1171876,2.425781 0.5738974,0.173283 1.3222656,0 1.3222656,0 0.340672,0.676344 1.4666184,1.126953 2.25,1.126953 0.3743974,0 0.7422769,-0.05076 1.0957031,-0.125 0.019076,-0.252192 0.061582,-0.496943 0.15625,-0.720703 0.1077085,-0.254585 0.2464215,-0.492036 0.4140625,-0.708985 0.153798,-0.199032 0.316833,-0.385192 0.490234,-0.558593 l 0.0059,-0.0059 0.0039,-0.0039 c 0.157154,-0.149297 0.302076,-0.298191 0.433594,-0.445312 0.118877,-0.132863 0.211983,-0.263093 0.283203,-0.392579 0.05071,-0.0922 0.07422,-0.185536 0.07422,-0.308593 0,-0.158077 -0.02822,-0.216155 -0.123047,-0.302735 l -0.0078,-0.0078 -0.0078,-0.0078 c -0.0623,-0.0623 -0.189942,-0.128906 -0.482422,-0.128906 -0.248002,0 -0.479028,0.03182 -0.699219,0.09375 l -0.0078,0.002 -0.0078,0.002 c -0.217183,0.0543 -0.4562306,0.149566 -0.7167968,0.291016 L 9.0878906,10.699219 8.3203125,8.5976562 8.6875,8.3886719 C 9.0384635,8.1894764 9.4315272,8.0369721 9.859375,7.9277344 10.298091,7.809645 10.746972,7.75 11.203125,7.75 c 0.543674,0 1.018628,0.076632 1.427734,0.2539062 0.374486,0.1543471 0.697962,0.3598769 0.947266,0.6308594 0.236605,0.2571797 0.412249,0.5558577 0.509766,0.8808594 0.0871,0.2903153 0.134765,0.578976 0.134765,0.865234 0,0.344151 -0.06912,0.675777 -0.210937,0.972657 -0.11762,0.2627 -0.268829,0.507373 -0.453125,0.730468 -0.170656,0.206584 -0.35401,0.40397 -0.550782,0.591797 l -0.0039,0.0039 -0.0059,0.0039 c -0.01351,0.01228 -0.02376,0.02669 -0.03711,0.03906 1.642631,0.107942 4.26234,0.224795 5.009765,-0.09961 1.598329,-0.693725 1.102527,-2.8628853 0.03906,-3.5957032 -1.063469,-0.7328149 -2.457032,-0.2167969 -2.457032,-0.2167969 0,0 -0.0077,-1.4902002 -1.511718,-2.203125 C 12.537062,5.8944865 11.267578,7.46875 11.267578,7.46875 c 0,0 -0.843531,-2.702605 -3.1699218,-2.71875 z"
     style="fill:#353535;fill-opacity:1;enable-background:new;opacity:0.4" />
  <text
     xml:space="preserve"
     style="font-style:normal;font-variant:normal;font-weight:normal;font-stretch:normal;font-size:12.46537399px;line-height:125%;font-family:Ubuntu;-inkscape-font-specification:Ubuntu;letter-spacing:0px;word-spacing:0px;fill:#353535;fill-opacity:1;stroke:none;stroke-width:1px;stroke-linecap:butt;stroke-linejoin:miter;stroke-opacity:1;"
     x="8.7355537"
     y="17.08795"
     id="text4154"
     sodipodi:linespacing="125%"><tspan
       sodipodi:role="line"
       id="tspan4156"
       x="8.7355537"
       y="17.08795"
       style="font-style:normal;font-variant:normal;font-weight:500;font-stretch:normal;font-family:Ubuntu;-inkscape-font-specification:'Ubuntu Medium';fill:#353535;fill-opacity:1;">?</tspan></text>
</svg>
