<svg width="48" xmlns="http://www.w3.org/2000/svg" viewBox="0 0 48 48" height="48" xmlns:xlink="http://www.w3.org/1999/xlink">
<g style="stroke:#777">
<path style="fill:#fff;stroke-width:.5" d="m 25.932203,35.18644 a 12.254237,12.508474 0 1 1 -24.5084741,0 12.254237,12.508474 0 1 1 24.5084741,0 z" transform="matrix(1.59979 0 0 1.56727 2.11819 -31.14659)"/>
<path style="fill:#bebebe;color:#000" d="m 21.499999,12.5 c -1.662,0 -3,1.28225 -3,2.875 l 0,5.75 C 16.838,21.125 14.5,22.40725 14.5,24 l 0,8.625 c 0,1.59275 2.338,2.875 3.999999,2.875 L 30.5,35.5 c 1.662,0 3,-1.28225 3,-2.875 L 33.5,24 c 0,-1.59275 -1.338,-2.875 -3,-2.875 l 0,-5.75 C 30.5,13.78225 29.162001,12.5 27.500001,12.5 l -6.000002,0 z m 1.5,2.875 3.000001,0 c 0.831001,0 1.500001,0.641125 1.500001,1.4375 l 0,4.3125 -6.000002,0 0,-4.3125 c 0,-0.796375 0.669001,-1.4375 1.5,-1.4375 z"/>
</g>
</svg>
