<svg width="24" xmlns="http://www.w3.org/2000/svg" height="24" viewBox="0 0 24 24" xmlns:xlink="http://www.w3.org/1999/xlink">
<defs>
<clipPath id="clip1">
<rect width="24" height="24"/>
</clipPath>
<filter width="100%" x="0" y="0" height="100%" filterUnits="objectBoundingBox" id="alpha">
<feColorMatrix values="0 0 0 0 1 0 0 0 0 1 0 0 0 0 1 0 0 0 1 0" in="SourceGraphic" type="matrix"/>
</filter>
<g style="clip-path:url(#clip1)" id="surface6">
<path style="stroke-opacity:.302;fill:none;stroke:#000;stroke-linecap:round;stroke-width:1.7" d="M 2.851237 11.144206 C 2.851237 11.144206 5.748047 7.849935 11.982096 7.849935 C 18.183919 7.849935 21.148763 11.151367 21.148763 11.151367 " transform="matrix(1.09091 0 0 1.09091 -1.09091 -1.09091)"/>
<path style="fill:none;stroke:#dcdcdc;stroke-linecap:round;stroke-width:1.7" d="M 2.851237 10.145182 C 2.851237 10.145182 5.748047 6.850911 11.982096 6.850911 C 18.183919 6.850911 21.148763 10.148763 21.148763 10.148763 " transform="matrix(1.09091 0 0 1.09091 -1.09091 -1.09091)"/>
</g>
<mask id="mask0">
<g style="filter:url(#alpha)">
<rect width="24" x="0" y="0" height="24" style="fill:#000;fill-opacity:.4"/>
</g>
</mask>
</defs>
<use style="mask:url(#mask0)" xlink:href="#surface6"/>
<g style="stroke-linecap:round;fill:none;stroke-width:1.7">
<path style="stroke-opacity:.302;stroke:#000" d="M 4.350586 12.750977 C 4.350586 12.750977 6.495443 10.538086 11 10.616862 C 15.540365 10.695638 17.649414 12.786784 17.649414 12.786784 " transform="scale(1.09091)"/>
<path style="stroke:#dcdcdc" d="M 4.350586 11.751953 C 4.350586 11.751953 6.495443 9.535482 11 9.614258 C 15.540365 9.696615 17.649414 11.78776 17.649414 11.78776 " transform="scale(1.09091)"/>
<path style="stroke-opacity:.302;stroke:#000" d="M 7.351237 15.189453 C 7.351237 15.189453 8.318034 14.118815 10.94987 14.097331 C 13.545898 14.079427 14.648763 15.189453 14.648763 15.189453 " transform="scale(1.09091)"/>
<path style="stroke:#dcdcdc" d="M 7.351237 14.19043 C 7.351237 14.19043 8.318034 13.119792 10.94987 13.098307 C 13.545898 13.080404 14.648763 14.19043 14.648763 14.19043 " transform="scale(1.09091)"/>
</g>
<g style="fill-rule:evenodd">
<path style="fill:#000;fill-opacity:.302" d="M 11.066406 18.546875 C 10.550781 18.546875 10.136719 18.871094 10.136719 19.273438 C 10.136719 19.421875 10.191406 19.5625 10.292969 19.675781 C 10.292969 19.675781 11.390625 20.550781 11.390625 20.550781 C 11.554688 20.660156 11.765625 20.726562 12 20.726562 C 12.277344 20.726562 12.523438 20.632812 12.695312 20.484375 C 12.695312 20.484375 13.679688 19.710938 13.679688 19.710938 C 13.796875 19.585938 13.863281 19.4375 13.863281 19.273438 C 13.863281 18.871094 13.449219 18.546875 12.933594 18.546875 C 12.933594 18.546875 11.066406 18.546875 11.066406 18.546875 Z "/>
<path style="fill:#dcdcdc" d="M 11.066406 17.453125 C 10.550781 17.453125 10.136719 17.78125 10.136719 18.183594 C 10.136719 18.332031 10.191406 18.46875 10.292969 18.585938 C 10.292969 18.585938 11.390625 19.460938 11.390625 19.460938 C 11.554688 19.570312 11.765625 19.636719 12 19.636719 C 12.277344 19.636719 12.523438 19.542969 12.695312 19.394531 C 12.695312 19.394531 13.679688 18.617188 13.679688 18.617188 C 13.796875 18.496094 13.863281 18.34375 13.863281 18.183594 C 13.863281 17.78125 13.449219 17.453125 12.933594 17.453125 C 12.933594 17.453125 11.066406 17.453125 11.066406 17.453125 Z "/>
</g>
<path style="fill:#000;fill-opacity:.302" d="M 20.726562 15.273438 C 19.519531 15.273438 18.546875 16.265625 18.546875 17.488281 L 18.546875 18.546875 C 17.941406 18.546875 17.453125 19.03125 17.453125 19.636719 L 17.453125 22.910156 C 17.453125 23.511719 17.941406 24 18.546875 24 L 22.910156 24 C 23.511719 24 24 23.511719 24 22.910156 L 24 19.636719 C 24 19.03125 23.511719 18.546875 22.910156 18.546875 L 22.910156 17.488281 C 22.910156 16.265625 21.9375 15.273438 20.726562 15.273438 Z M 20.726562 16.363281 C 21.332031 16.363281 21.816406 16.847656 21.816406 17.453125 L 21.816406 18.546875 L 19.636719 18.546875 L 19.636719 17.453125 C 19.636719 16.847656 20.121094 16.363281 20.726562 16.363281 Z "/>
<path style="fill:#dcdcdc" d="M 20.726562 14.183594 C 19.519531 14.183594 18.546875 15.175781 18.546875 16.398438 L 18.546875 17.453125 C 17.941406 17.453125 17.453125 17.941406 17.453125 18.546875 L 17.453125 21.816406 C 17.453125 22.421875 17.941406 22.910156 18.546875 22.910156 L 22.910156 22.910156 C 23.511719 22.910156 24 22.421875 24 21.816406 L 24 18.546875 C 24 17.941406 23.511719 17.453125 22.910156 17.453125 L 22.910156 16.398438 C 22.910156 15.175781 21.9375 14.183594 20.726562 14.183594 Z M 20.726562 15.273438 C 21.332031 15.273438 21.816406 15.753906 21.816406 16.363281 L 21.816406 17.453125 L 19.636719 17.453125 L 19.636719 16.363281 C 19.636719 15.753906 20.121094 15.273438 20.726562 15.273438 Z "/>
</svg>
