<?xml version="1.0" encoding="UTF-8" standalone="no"?>
<svg
   xmlns:dc="http://purl.org/dc/elements/1.1/"
   xmlns:cc="http://creativecommons.org/ns#"
   xmlns:rdf="http://www.w3.org/1999/02/22-rdf-syntax-ns#"
   xmlns:svg="http://www.w3.org/2000/svg"
   xmlns="http://www.w3.org/2000/svg"
   xmlns:sodipodi="http://sodipodi.sourceforge.net/DTD/sodipodi-0.dtd"
   xmlns:inkscape="http://www.inkscape.org/namespaces/inkscape"
   viewBox="0 0 16 16"
   id="svg2142"
   version="1.1"
   inkscape:version="0.91 r"
   sodipodi:docname="content-loading-symbolic.svg">
  <metadata
     id="metadata2156">
    <rdf:RDF>
      <cc:Work
         rdf:about="">
        <dc:format>image/svg+xml</dc:format>
        <dc:type
           rdf:resource="http://purl.org/dc/dcmitype/StillImage" />
      </cc:Work>
    </rdf:RDF>
  </metadata>
  <defs
     id="defs2154" />
  <sodipodi:namedview
     pagecolor="#ffffff"
     bordercolor="#666666"
     borderopacity="1"
     objecttolerance="10"
     gridtolerance="10"
     guidetolerance="10"
     inkscape:pageopacity="0"
     inkscape:pageshadow="2"
     inkscape:window-width="640"
     inkscape:window-height="480"
     id="namedview2152" />
  <g
     style="fill:#353535"
     transform="translate(-201.0004 -867)"
     id="g2144">
    <path
       d="m 29,209 a 1,1 0 1 1 -2,0 1,1 0 1 1 2,0 z"
       transform="matrix(2.00002 0 0 2.00002 147.99952 456.9948)"
       id="path2146" />
    <path
       d="m 29,209 a 1,1 0 1 1 -2,0 1,1 0 1 1 2,0 z"
       transform="matrix(2 0 0 2 153.00025 457)"
       id="path2148" />
    <path
       d="m 29,209 a 1,1 0 1 1 -2,0 1,1 0 1 1 2,0 z"
       transform="matrix(2 0 0 2 158.0002 457)"
       id="path2150" />
  </g>
</svg>
