<?xml version="1.0" encoding="UTF-8" standalone="no"?>
<svg
   xmlns:dc="http://purl.org/dc/elements/1.1/"
   xmlns:cc="http://creativecommons.org/ns#"
   xmlns:rdf="http://www.w3.org/1999/02/22-rdf-syntax-ns#"
   xmlns:svg="http://www.w3.org/2000/svg"
   xmlns="http://www.w3.org/2000/svg"
   xmlns:sodipodi="http://sodipodi.sourceforge.net/DTD/sodipodi-0.dtd"
   xmlns:inkscape="http://www.inkscape.org/namespaces/inkscape"
   viewBox="0 0 16 16"
   id="svg2461"
   version="1.1"
   inkscape:version="0.91 r"
   sodipodi:docname="edit-clear-symbolic.svg">
  <metadata
     id="metadata2471">
    <rdf:RDF>
      <cc:Work
         rdf:about="">
        <dc:format>image/svg+xml</dc:format>
        <dc:type
           rdf:resource="http://purl.org/dc/dcmitype/StillImage" />
      </cc:Work>
    </rdf:RDF>
  </metadata>
  <defs
     id="defs2469" />
  <sodipodi:namedview
     pagecolor="#ffffff"
     bordercolor="#666666"
     borderopacity="1"
     objecttolerance="10"
     gridtolerance="10"
     guidetolerance="10"
     inkscape:pageopacity="0"
     inkscape:pageshadow="2"
     inkscape:window-width="640"
     inkscape:window-height="480"
     id="namedview2467" />
  <g
     transform="translate(-41 -760)"
     id="g2463">
    <path
       style="fill:#353535;color:#000"
       d="m 126,540 -6,6 6,6 9.0353,0 C 135.56563,551.9779 136,551.50823 136,551 l 0,-10 c 0,-0.53079 -0.34561,-1 -1.0089,-1 L 126,540 z m 1,3 1,0 c 0.0104,-1.2e-4 0.0208,-4.6e-4 0.0313,0 0.25495,0.0112 0.50987,0.12858 0.6875,0.3125 l 1.2812,1.28125 1.3125,-1.28125 C 131.57812,543.082 131.75917,543.007 132,543 l 1,0 0,1 c 0,0.28647 -0.0343,0.55065 -0.25,0.75 l -1.28125,1.28125 1.25,1.25 C 132.90694,547.46942 132.99999,547.7347 133,548 l 0,1 -1,0 c -0.2653,-10e-6 -0.53059,-0.0931 -0.71875,-0.28125 L 130,547.4375 l -1.28125,1.28125 C 128.53059,548.90694 128.26529,549 128,549 l -1,0 0,-1 c 0,-0.26529 0.0931,-0.53058 0.28125,-0.71875 l 1.28125,-1.25 -1.28125,-1.28125 C 127.07051,544.55537 126.97809,544.28075 127,544 l 0,-1 z"
       transform="translate(-79 222)"
       id="path2465" />
  </g>
</svg>
