<?xml version="1.0" encoding="UTF-8" standalone="no"?>
<svg
   xmlns:dc="http://purl.org/dc/elements/1.1/"
   xmlns:cc="http://creativecommons.org/ns#"
   xmlns:rdf="http://www.w3.org/1999/02/22-rdf-syntax-ns#"
   xmlns:svg="http://www.w3.org/2000/svg"
   xmlns="http://www.w3.org/2000/svg"
   xmlns:sodipodi="http://sodipodi.sourceforge.net/DTD/sodipodi-0.dtd"
   xmlns:inkscape="http://www.inkscape.org/namespaces/inkscape"
   viewBox="0 0 16 16.003"
   id="svg2487"
   version="1.1"
   inkscape:version="0.91 r"
   sodipodi:docname="edit-paste-symbolic.svg">
  <metadata
     id="metadata2501">
    <rdf:RDF>
      <cc:Work
         rdf:about="">
        <dc:format>image/svg+xml</dc:format>
        <dc:type
           rdf:resource="http://purl.org/dc/dcmitype/StillImage" />
      </cc:Work>
    </rdf:RDF>
  </metadata>
  <defs
     id="defs2499" />
  <sodipodi:namedview
     pagecolor="#ffffff"
     bordercolor="#666666"
     borderopacity="1"
     objecttolerance="10"
     gridtolerance="10"
     guidetolerance="10"
     inkscape:pageopacity="0"
     inkscape:pageshadow="2"
     inkscape:window-width="640"
     inkscape:window-height="480"
     id="namedview2497" />
  <g
     style="fill:#353535"
     transform="translate(-60 -668)"
     id="g2489">
    <path
       d="m 64.031245,673.03127 0,6.96874 5.000005,0 1.990842,-1.98705 -0.0221,-4.98168 -6.96875,0 3e-6,-1e-5 z"
       id="path2491" />
    <rect
       width="5.063"
       x="65"
       y="668"
       rx=".53"
       height="4"
       id="rect2493" />
    <path
       style="line-height:normal;color:#000"
       d="m 62.5,669 c -0.293087,0 -0.646731,0.036 -1,0.3125 -0.353269,0.27647 -0.53125,0.76875 -0.53125,1.125 l 0,12.03125 c 0,0.384 0.127689,0.81517 0.4375,1.125 0.285418,0.28544 0.709136,0.38602 1.09375,0.375 l 0,0.0313 0.09375,0 9.875,0 c 0.362847,0 0.759922,-0.12788 1.0625,-0.40625 C 73.833828,683.31538 74,682.88305 74,682.46875 L 74,670.375 c 0,-0.33333 -0.118934,-0.72959 -0.40625,-1 C 73.306434,669.10459 72.924851,669 72.625,669 l -1.65625,0 0,2 1.03125,0 0,11 -9.03125,0 0,-11 0.96875,0 0,-2 -1.4375,0 z"
       id="path2495" />
  </g>
</svg>
