<?xml version="1.0" encoding="UTF-8" standalone="no"?>
<svg
   xmlns:dc="http://purl.org/dc/elements/1.1/"
   xmlns:cc="http://creativecommons.org/ns#"
   xmlns:rdf="http://www.w3.org/1999/02/22-rdf-syntax-ns#"
   xmlns:svg="http://www.w3.org/2000/svg"
   xmlns="http://www.w3.org/2000/svg"
   xmlns:sodipodi="http://sodipodi.sourceforge.net/DTD/sodipodi-0.dtd"
   xmlns:inkscape="http://www.inkscape.org/namespaces/inkscape"
   viewBox="0 0 16 16"
   id="svg2655"
   version="1.1"
   inkscape:version="0.91 r"
   sodipodi:docname="edit-redo-symbolic.svg">
  <metadata
     id="metadata2667">
    <rdf:RDF>
      <cc:Work
         rdf:about="">
        <dc:format>image/svg+xml</dc:format>
        <dc:type
           rdf:resource="http://purl.org/dc/dcmitype/StillImage" />
      </cc:Work>
    </rdf:RDF>
  </metadata>
  <defs
     id="defs2665" />
  <sodipodi:namedview
     pagecolor="#ffffff"
     bordercolor="#666666"
     borderopacity="1"
     objecttolerance="10"
     gridtolerance="10"
     guidetolerance="10"
     inkscape:pageopacity="0"
     inkscape:pageshadow="2"
     inkscape:window-width="640"
     inkscape:window-height="480"
     id="namedview2663" />
  <g
     style="fill:#353535;line-height:normal"
     transform="translate(-141.00015 -667)"
     id="g2657">
    <path
       style="color:#000"
       d="m 146.5,673 c -1.92115,0 -3.5,1.57885 -3.5,3.5 0,1.92115 1.57885,3.5 3.5,3.5 l 0.5,0 0,-2 -0.5,0 c -0.84027,0 -1.5,-0.65973 -1.5,-1.5 0,-0.84027 0.65973,-1.5 1.5,-1.5 l 6.5,0 0,-2 -6.5,0 z"
       id="path2659" />
    <path
       style="color:#353535"
       d="m 150.0002,670 0,1 c 0,0.25689 0.12983,0.52846 0.3125,0.71875 l 2.28125,2.28125 -2.28125,2.28125 c -0.18267,0.19029 -0.3125,0.46186 -0.3125,0.71875 l 0,1 1,0 c 0.30945,0 0.55232,-0.0903 0.75,-0.28125 L 155.40645,674 151.7502,670.28125 C 151.55252,670.0903 151.30965,670 151.0002,670 z"
       id="path2661" />
  </g>
</svg>
