<svg xmlns="http://www.w3.org/2000/svg" viewBox="0 0 16 16">
<g style="fill:#353535;line-height:normal;color:#000" transform="translate(-160.0002 -706)">
<path d="m 165,709 0,2 6,0 c 0.42816,0 1,0.61414 1,1 l 0,1 -5,0 c -0.91927,0 -1.7356,0.38396 -2.25,0.96875 -0.5144,0.58479 -0.75639,1.31063 -0.75,2.03125 0.006,0.72062 0.26893,1.45271 0.78125,2.03125 C 165.29357,718.60979 166.09172,719 167,719 l 6,0 1,0 0,-1 0,-6 c 0,-1.63434 -1.3198,-3 -3,-3 l -6,0 z m 2,6 5,0 0,2 -5,0 c -0.39787,0 -0.56691,-0.10979 -0.71875,-0.28125 C 166.12941,716.54729 166.00248,716.27938 166,716 c -0.002,-0.27938 0.10467,-0.55354 0.25,-0.71875 C 166.39533,715.11604 166.57764,715 167,715 z"/>
<path d="m 164,709 0,2 5,0 c 0.42816,0 1,0.61414 1,1 l 0,1 -5,0 c -0.91927,0 -1.7356,0.38396 -2.25,0.96875 -0.5144,0.58479 -0.75639,1.31063 -0.75,2.03125 0.006,0.72062 0.26893,1.45271 0.78125,2.03125 C 163.29357,718.60979 164.09172,719 165,719 l 6,0 1,0 0,-1 0,-6 c 0,-1.63434 -1.3198,-3 -3,-3 l -5,0 z m 1,6 5,0 0,2 -5,0 c -0.39787,0 -0.56691,-0.10979 -0.71875,-0.28125 C 164.12941,716.54729 164.00248,716.27938 164,716 c -0.002,-0.27938 0.10467,-0.55354 0.25,-0.71875 C 164.39533,715.11604 164.57764,715 165,715 z"/>
</g>
</svg>
