<svg xmlns="http://www.w3.org/2000/svg" viewBox="0 0 16.0001 15.9999">
<g style="fill:#353535;line-height:normal" transform="translate(-81.00014 -807)">
<path style="color:#353535" d="m 92.000179,819 -0.999993,0 c -0.256903,10e-6 -0.528453,0.11786 -0.718755,0.28369 l -1.281223,1.16309 -1.281234,-1.1631 C 87.52893,819.11762 87.257123,819 87.000201,819.00004 l -0.999993,0 -1e-5,0.90779 c 0,0.28091 0.09021,0.50137 0.281297,0.68082 l 2.718741,2.41128 2.718704,-2.41128 c 0.190934,-0.17949 0.281258,-0.39993 0.281258,-0.68084 l 0,-0.90778 z"/>
<path style="color:#000" d="m 85,807 0,2 6,0 c 0.428164,0 1,0.61414 1,1 l 0,1 -5,0 c -0.919269,0 -1.735601,0.38396 -2.25,0.96875 -0.514399,0.58479 -0.756392,1.31063 -0.75,2.03125 0.0064,0.72062 0.268927,1.45271 0.78125,2.03125 C 85.293573,816.60979 86.091722,817 87,817 l 6,0 1,0 0,-1 0,-6 c 0,-1.63434 -1.319804,-3 -3,-3 l -6,0 z m 2,6 5,0 0,2 -5,0 c -0.397872,0 -0.566911,-0.10979 -0.71875,-0.28125 C 86.129411,814.54729 86.002478,814.27938 86,814 c -0.0025,-0.27938 0.104672,-0.55354 0.25,-0.71875 C 86.395328,813.11604 86.577639,813 87,813 z"/>
</g>
</svg>
