<svg width="16.0001" xmlns="http://www.w3.org/2000/svg" viewBox="0 0 16.0001 16" height="16" xmlns:xlink="http://www.w3.org/1999/xlink" style="enable-background:new">
<defs/>
<path style="fill:#bebebe" d="m 10.540285,3.9999998 c -3.0154495,0 -5.4597158,0.5047535 -5.4597158,1.1324834 0,0.6276992 2.4442663,1.1324527 5.4597158,1.1324527 3.015451,0 5.459716,-0.5047535 5.459716,-1.1324527 0,-0.6277299 -2.444265,-1.1324834 -5.459716,-1.1324834 z M 6.3033181,7.2207775 C 2.8215495,7.2207775 0,7.6983022 0,8.3012992 c 0,0.6029955 2.8215495,1.101299 6.3033181,1.101299 3.4817686,0 6.3080579,-0.4983035 6.3080579,-1.101299 0,-0.602997 -2.8262893,-1.0805217 -6.3080579,-1.0805217 z m 3.6729856,3.1065115 c -2.324372,0 -4.2085307,0.368838 -4.2085307,0.831169 0,0.462294 1.8841587,0.841542 4.2085307,0.841542 2.3243753,0 4.2085313,-0.379248 4.2085313,-0.841542 0,-0.462331 -1.884156,-0.831169 -4.2085313,-0.831169 z"/>
</svg>
