<svg width="16" xmlns="http://www.w3.org/2000/svg" viewBox="0 0 16 16" height="16">
<g style="fill:#bebebe" transform="matrix(.03306 0 0 .03306 -.46283 -.47891)">
<rect width="150" x="14" y="434" height="45"/>
<rect width="150" x="14" y="334" height="45"/>
<rect width="270" x="14" y="234" height="45"/>
<rect width="270" x="14" y="134" height="45"/>
<rect width="270" x="14" y="34" height="45"/>
<path d="m 253.803,471.326 c -20.471,-5.189 -39.48,-20.199 -44.87,-41.26 -5.641,-20.109 1.74,-41.701 14.399,-57.58 23.49,-29.4 63.79,-44.471 100.78,-37.52 0.3,-98.411 -0.02,-196.831 0.16,-295.241 8.92,13.15 18.55,26.01 30.59,36.51 25.59,23.2 57.43,37.94 83.74,60.2 22.68,19.311 42.37,43.26 52.42,71.62 7.37,20.28 8.87,42.55 4.58,63.68 -5.65,27.109 -22.28,42.379 -40.2,63.301 6.1,-25.25 13.06,-42.271 5.26,-67.611 -5.189,-17.57 -16.58,-32.82 -30.76,-44.209 -16.21,-13.09 -35.2,-22.13 -54.27,-30.23 -0.25,65.02 -0.03,130.051 -0.11,195.081 1,22.449 -10.45,43.93 -26.85,58.68 -25.119,22.72 -61.829,33.069 -94.869,24.579"/>
</g>
</svg>
