<svg width="16" xmlns="http://www.w3.org/2000/svg" height="16" viewBox="0 0 16 16" xmlns:xlink="http://www.w3.org/1999/xlink">
<path style="fill:#38a34e" d="M 2.667969 0.332031 C 2.324219 0.332031 2 0.65625 2 1 L 2 15 C 2 15.324219 2.34375 15.667969 2.667969 15.667969 L 13.332031 15.667969 C 13.65625 15.667969 14 15.324219 14 15 L 14 4.667969 L 9.667969 0.332031 Z "/>
<path style="fill:#000;fill-opacity:.196" d="M 9.667969 4 L 9.6875 4.019531 L 9.738281 4 Z M 10.332031 4.667969 L 14 8.332031 L 14 4.667969 Z "/>
<path style="fill:#fff;fill-opacity:.392" d="M 9.667969 0.332031 L 14 4.667969 L 10.332031 4.667969 C 10.007812 4.667969 9.667969 4.324219 9.667969 4 Z "/>
<path style="fill:#000;fill-opacity:.196" d="M 2 11.667969 L 2 15 C 2 15.324219 2.34375 15.667969 2.667969 15.667969 L 13.332031 15.667969 C 13.65625 15.667969 14 15.324219 14 15 L 14 11.667969 Z "/>
<g style="fill:#fff">
<path d="M 5.679688 5.332031 C 5.492188 5.351562 5.328125 5.550781 5.332031 5.761719 L 5.332031 10.25 C 5.335938 10.472656 5.511719 10.667969 5.710938 10.667969 L 10.300781 10.667969 C 10.496094 10.664062 10.664062 10.46875 10.667969 10.25 L 10.667969 5.761719 C 10.667969 5.539062 10.496094 5.335938 10.300781 5.332031 Z M 6.003906 6 L 9.996094 6 L 9.996094 8.863281 C 9.96875 8.828125 9.953125 8.816406 9.925781 8.78125 C 9.625 8.425781 9.285156 8 8.878906 7.488281 C 8.796875 7.570312 8.699219 7.667969 8.566406 7.792969 C 8.429688 7.914062 8.269531 8.0625 8.082031 8.230469 C 8.058594 8.253906 7.964844 8.15625 7.789062 7.9375 C 7.613281 7.71875 7.367188 7.382812 7.039062 6.917969 C 6.597656 7.375 6.277344 7.703125 6.003906 7.980469 Z "/>
<path d="M 5.464844 12.363281 C 5.835938 12.363281 6.121094 12.429688 6.324219 12.566406 C 6.527344 12.695312 6.628906 12.914062 6.628906 13.214844 C 6.628906 13.523438 6.527344 13.742188 6.320312 13.882812 C 6.117188 14.015625 5.828125 14.082031 5.453125 14.082031 L 5.246094 14.082031 L 5.246094 14.945312 L 4.667969 14.945312 L 4.667969 12.425781 C 4.722656 12.414062 4.785156 12.402344 4.855469 12.394531 C 4.925781 12.386719 5 12.382812 5.070312 12.378906 C 5.144531 12.375 5.214844 12.371094 5.28125 12.367188 C 5.351562 12.363281 5.410156 12.363281 5.464844 12.363281 M 5.53125 12.804688 C 5.496094 12.804688 5.449219 12.804688 5.386719 12.808594 C 5.324219 12.808594 5.277344 12.8125 5.246094 12.816406 L 5.246094 13.640625 L 5.480469 13.640625 C 5.664062 13.640625 5.804688 13.609375 5.898438 13.546875 C 5.992188 13.480469 6.039062 13.371094 6.039062 13.210938 C 6.039062 13.0625 5.992188 12.960938 5.898438 12.898438 C 5.808594 12.835938 5.683594 12.804688 5.53125 12.804688 "/>
<path d="M 7.851562 14.574219 C 7.949219 14.574219 8.027344 14.566406 8.089844 14.550781 C 8.15625 14.53125 8.210938 14.507812 8.246094 14.476562 C 8.285156 14.441406 8.308594 14.40625 8.320312 14.367188 C 8.335938 14.328125 8.34375 14.285156 8.34375 14.246094 C 8.34375 14.191406 8.328125 14.144531 8.292969 14.105469 C 8.257812 14.0625 8.214844 14.027344 8.160156 13.996094 C 8.109375 13.964844 8.050781 13.933594 7.984375 13.910156 C 7.917969 13.882812 7.851562 13.859375 7.785156 13.835938 C 7.699219 13.808594 7.609375 13.777344 7.515625 13.742188 C 7.417969 13.707031 7.332031 13.660156 7.253906 13.605469 C 7.179688 13.550781 7.117188 13.480469 7.066406 13.402344 C 7.015625 13.320312 6.992188 13.21875 6.992188 13.097656 C 6.992188 12.859375 7.078125 12.671875 7.253906 12.535156 C 7.433594 12.402344 7.679688 12.332031 7.988281 12.332031 C 8.167969 12.332031 8.320312 12.351562 8.453125 12.386719 C 8.589844 12.421875 8.699219 12.460938 8.792969 12.507812 L 8.621094 12.898438 C 8.542969 12.859375 8.457031 12.828125 8.359375 12.800781 C 8.265625 12.773438 8.15625 12.757812 8.03125 12.757812 C 7.722656 12.757812 7.570312 12.855469 7.570312 13.050781 C 7.570312 13.101562 7.585938 13.144531 7.617188 13.183594 C 7.648438 13.21875 7.6875 13.253906 7.734375 13.28125 C 7.785156 13.308594 7.839844 13.335938 7.898438 13.355469 C 7.960938 13.378906 8.023438 13.398438 8.082031 13.417969 C 8.171875 13.449219 8.265625 13.484375 8.363281 13.523438 C 8.464844 13.558594 8.554688 13.609375 8.636719 13.671875 C 8.722656 13.730469 8.789062 13.808594 8.84375 13.902344 C 8.898438 13.992188 8.921875 14.109375 8.921875 14.25 C 8.921875 14.488281 8.832031 14.675781 8.65625 14.804688 C 8.480469 14.933594 8.210938 15 7.851562 15 C 7.609375 15 7.417969 14.976562 7.273438 14.933594 C 7.128906 14.886719 7.023438 14.84375 6.949219 14.804688 L 7.117188 14.394531 C 7.203125 14.4375 7.304688 14.480469 7.417969 14.515625 C 7.539062 14.554688 7.683594 14.574219 7.851562 14.574219 "/>
<path d="M 9.941406 14.535156 C 9.957031 14.535156 9.976562 14.539062 9.996094 14.539062 C 10.011719 14.539062 10.03125 14.539062 10.046875 14.539062 C 10.175781 14.539062 10.289062 14.515625 10.375 14.472656 C 10.464844 14.425781 10.539062 14.367188 10.589844 14.289062 C 10.648438 14.214844 10.6875 14.121094 10.707031 14.019531 C 10.734375 13.910156 10.746094 13.792969 10.746094 13.667969 C 10.746094 13.554688 10.738281 13.449219 10.71875 13.34375 C 10.699219 13.238281 10.667969 13.148438 10.621094 13.066406 C 10.570312 12.988281 10.507812 12.925781 10.425781 12.878906 C 10.34375 12.828125 10.238281 12.804688 10.113281 12.804688 C 10.085938 12.804688 10.058594 12.804688 10.027344 12.808594 C 9.996094 12.808594 9.96875 12.8125 9.941406 12.816406 L 9.941406 14.535156 M 11.332031 13.667969 C 11.332031 13.902344 11.300781 14.105469 11.230469 14.273438 C 11.164062 14.4375 11.070312 14.574219 10.953125 14.679688 C 10.832031 14.78125 10.691406 14.859375 10.523438 14.910156 C 10.363281 14.957031 10.183594 14.980469 9.984375 14.980469 C 9.882812 14.980469 9.78125 14.972656 9.679688 14.964844 C 9.582031 14.953125 9.476562 14.941406 9.363281 14.917969 L 9.363281 12.425781 C 9.496094 12.398438 9.621094 12.382812 9.734375 12.375 C 9.851562 12.367188 9.960938 12.363281 10.058594 12.363281 C 10.25 12.363281 10.425781 12.386719 10.582031 12.4375 C 10.742188 12.484375 10.875 12.566406 10.984375 12.671875 C 11.09375 12.777344 11.179688 12.910156 11.238281 13.078125 C 11.300781 13.238281 11.332031 13.433594 11.332031 13.667969 "/>
</g>
</svg>
