<svg width="16" xmlns="http://www.w3.org/2000/svg" height="16" viewBox="0 0 16 16" xmlns:xlink="http://www.w3.org/1999/xlink">
<path style="fill:#dcdcdc" d="M 2.667969 0.332031 C 2.324219 0.332031 2 0.65625 2 1 L 2 15 C 2 15.324219 2.34375 15.667969 2.667969 15.667969 L 13.332031 15.667969 C 13.65625 15.667969 14 15.324219 14 15 L 14 4.667969 L 9.667969 0.332031 Z "/>
<path style="fill:#000;fill-opacity:.196" d="M 9.667969 4 L 9.6875 4.019531 L 9.738281 4 Z M 10.332031 4.667969 L 14 8.332031 L 14 4.667969 Z "/>
<path style="fill:#fff;fill-opacity:.392" d="M 9.667969 0.332031 L 14 4.667969 L 10.332031 4.667969 C 10.007812 4.667969 9.667969 4.324219 9.667969 4 Z "/>
<g style="fill:#545454">
<path d="M 4.671875 10.605469 L 4.5625 9.941406 L 3.929688 9.941406 L 3.824219 10.605469 L 3.332031 10.605469 C 3.445312 10.039062 3.558594 9.523438 3.675781 9.058594 C 3.789062 8.59375 3.898438 8.148438 4.007812 7.730469 L 4.519531 7.730469 C 4.632812 8.152344 4.742188 8.601562 4.851562 9.074219 C 4.964844 9.542969 5.074219 10.054688 5.179688 10.605469 L 4.671875 10.605469 M 4.253906 8.289062 C 4.226562 8.398438 4.203125 8.5 4.179688 8.601562 C 4.160156 8.695312 4.136719 8.792969 4.117188 8.886719 C 4.101562 8.980469 4.082031 9.074219 4.066406 9.171875 C 4.050781 9.265625 4.035156 9.367188 4.019531 9.46875 L 4.480469 9.46875 C 4.464844 9.367188 4.449219 9.265625 4.4375 9.171875 C 4.421875 9.074219 4.402344 8.980469 4.382812 8.886719 C 4.363281 8.792969 4.34375 8.695312 4.320312 8.601562 C 4.300781 8.5 4.277344 8.398438 4.253906 8.289062 "/>
<path d="M 6.101562 10.1875 C 6.179688 10.1875 6.246094 10.179688 6.296875 10.160156 C 6.351562 10.140625 6.390625 10.109375 6.421875 10.078125 C 6.453125 10.039062 6.472656 10 6.484375 9.957031 C 6.496094 9.910156 6.503906 9.863281 6.503906 9.816406 C 6.503906 9.757812 6.488281 9.707031 6.460938 9.660156 C 6.433594 9.613281 6.398438 9.574219 6.355469 9.539062 C 6.308594 9.5 6.261719 9.46875 6.207031 9.441406 C 6.15625 9.410156 6.101562 9.382812 6.046875 9.355469 C 5.976562 9.328125 5.902344 9.289062 5.824219 9.25 C 5.75 9.210938 5.679688 9.160156 5.613281 9.097656 C 5.554688 9.035156 5.503906 8.960938 5.460938 8.871094 C 5.421875 8.777344 5.402344 8.664062 5.402344 8.527344 C 5.402344 8.257812 5.472656 8.046875 5.613281 7.894531 C 5.761719 7.742188 5.960938 7.667969 6.210938 7.667969 C 6.359375 7.667969 6.484375 7.6875 6.589844 7.726562 C 6.699219 7.765625 6.792969 7.8125 6.867188 7.863281 L 6.730469 8.304688 C 6.664062 8.257812 6.59375 8.222656 6.515625 8.191406 C 6.4375 8.160156 6.347656 8.144531 6.246094 8.144531 C 5.996094 8.144531 5.871094 8.253906 5.871094 8.476562 C 5.871094 8.53125 5.882812 8.578125 5.910156 8.625 C 5.933594 8.664062 5.96875 8.699219 6.003906 8.734375 C 6.046875 8.765625 6.089844 8.792969 6.140625 8.820312 C 6.191406 8.84375 6.242188 8.867188 6.289062 8.886719 C 6.363281 8.921875 6.4375 8.960938 6.519531 9.003906 C 6.601562 9.042969 6.675781 9.101562 6.742188 9.171875 C 6.808594 9.238281 6.867188 9.328125 6.910156 9.429688 C 6.953125 9.535156 6.972656 9.664062 6.972656 9.820312 C 6.972656 10.089844 6.902344 10.300781 6.753906 10.449219 C 6.613281 10.59375 6.394531 10.667969 6.101562 10.667969 C 5.90625 10.667969 5.746094 10.640625 5.628906 10.59375 C 5.511719 10.539062 5.425781 10.492188 5.367188 10.449219 L 5.503906 9.984375 C 5.574219 10.035156 5.65625 10.078125 5.75 10.125 C 5.847656 10.167969 5.964844 10.1875 6.101562 10.1875 "/>
<path d="M 8.261719 10.667969 C 7.925781 10.667969 7.671875 10.535156 7.496094 10.277344 C 7.320312 10.015625 7.230469 9.648438 7.230469 9.167969 C 7.230469 8.929688 7.257812 8.714844 7.3125 8.53125 C 7.363281 8.34375 7.4375 8.1875 7.53125 8.0625 C 7.628906 7.929688 7.742188 7.832031 7.875 7.769531 C 8.007812 7.699219 8.152344 7.667969 8.304688 7.667969 C 8.390625 7.667969 8.464844 7.675781 8.53125 7.695312 C 8.601562 7.710938 8.660156 7.730469 8.710938 7.75 C 8.761719 7.773438 8.804688 7.796875 8.839844 7.820312 C 8.875 7.84375 8.902344 7.863281 8.917969 7.875 L 8.796875 8.332031 C 8.738281 8.285156 8.667969 8.246094 8.582031 8.214844 C 8.5 8.179688 8.40625 8.164062 8.296875 8.164062 C 8.222656 8.164062 8.152344 8.179688 8.082031 8.214844 C 8.011719 8.246094 7.949219 8.300781 7.894531 8.378906 C 7.839844 8.453125 7.792969 8.550781 7.757812 8.679688 C 7.726562 8.804688 7.710938 8.964844 7.710938 9.152344 C 7.710938 9.480469 7.753906 9.734375 7.847656 9.910156 C 7.941406 10.082031 8.09375 10.167969 8.304688 10.167969 C 8.429688 10.167969 8.53125 10.152344 8.609375 10.117188 C 8.691406 10.085938 8.753906 10.050781 8.804688 10.015625 L 8.921875 10.46875 C 8.855469 10.515625 8.765625 10.5625 8.652344 10.605469 C 8.539062 10.648438 8.410156 10.667969 8.261719 10.667969 "/>
<path d="M 9.246094 10.605469 L 9.246094 10.132812 L 9.765625 10.132812 L 9.765625 8.207031 L 9.246094 8.207031 L 9.246094 7.730469 L 10.753906 7.730469 L 10.753906 8.207031 L 10.238281 8.207031 L 10.238281 10.132812 L 10.753906 10.132812 L 10.753906 10.605469 L 9.246094 10.605469 "/>
<path d="M 11.164062 10.605469 L 11.164062 10.132812 L 11.679688 10.132812 L 11.679688 8.207031 L 11.164062 8.207031 L 11.164062 7.730469 L 12.667969 7.730469 L 12.667969 8.207031 L 12.152344 8.207031 L 12.152344 10.132812 L 12.667969 10.132812 L 12.667969 10.605469 L 11.164062 10.605469 "/>
</g>
</svg>
