<svg width="16" xmlns="http://www.w3.org/2000/svg" height="16" viewBox="0 0 16 16" xmlns:xlink="http://www.w3.org/1999/xlink">
<path style="fill:#cc2929" d="M 2.667969 0.332031 C 2.324219 0.332031 2 0.65625 2 1 L 2 15 C 2 15.324219 2.34375 15.667969 2.667969 15.667969 L 13.332031 15.667969 C 13.65625 15.667969 14 15.324219 14 15 L 14 4.667969 L 9.667969 0.332031 Z "/>
<path style="fill:#000;fill-opacity:.196" d="M 9.667969 4 L 9.6875 4.019531 L 9.738281 4 Z M 10.332031 4.667969 L 14 8.332031 L 14 4.667969 Z "/>
<path style="fill:#fff;fill-opacity:.392" d="M 9.667969 0.332031 L 14 4.667969 L 10.332031 4.667969 C 10.007812 4.667969 9.667969 4.324219 9.667969 4 Z "/>
<path style="fill:#fff;fill-rule:evenodd" d="M 5.332031 10.136719 L 5.484375 11.277344 C 5.484375 11.277344 7.441406 11.890625 8.421875 9.089844 L 10.132812 9.089844 L 10.132812 7.839844 L 9.066406 7.839844 C 9.066406 7.839844 9.5625 6.53125 10.667969 6.421875 C 10.667969 6.394531 10.546875 5.339844 10.546875 5.339844 C 10.546875 5.339844 8.730469 5.089844 7.628906 7.78125 C 6.675781 10.414062 5.332031 10.136719 5.332031 10.136719 Z "/>
</svg>
