<svg width="16" xmlns="http://www.w3.org/2000/svg" height="16" viewBox="0 0 16 16" xmlns:xlink="http://www.w3.org/1999/xlink">
<path style="fill:#3468ce" d="M 2.667969 0.332031 C 2.324219 0.332031 2 0.65625 2 1 L 2 15 C 2 15.324219 2.34375 15.667969 2.667969 15.667969 L 13.332031 15.667969 C 13.65625 15.667969 14 15.324219 14 15 L 14 4.667969 L 9.667969 0.332031 Z "/>
<path style="fill:#000;fill-opacity:.196" d="M 9.667969 4 L 9.6875 4.019531 L 9.738281 4 Z M 10.332031 4.667969 L 14 8.332031 L 14 4.667969 Z "/>
<path style="fill:#fff;fill-opacity:.392" d="M 9.667969 0.332031 L 14 4.667969 L 10.332031 4.667969 C 10.007812 4.667969 9.667969 4.324219 9.667969 4 Z "/>
<path style="fill:#fff" d="M 5.359375 6 L 7.640625 6 C 7.746094 6 7.832031 6.089844 7.832031 6.199219 L 7.832031 8.132812 C 7.832031 8.242188 7.746094 8.332031 7.640625 8.332031 L 5.359375 8.332031 C 5.253906 8.332031 5.167969 8.242188 5.167969 8.132812 L 5.167969 6.199219 C 5.167969 6.089844 5.253906 6 5.359375 6 Z "/>
<g style="fill:none;stroke:#fff;stroke-linejoin:round;stroke-linecap:round">
<path d="M 26.503906 17.503906 L 31.496094 17.503906 " transform="matrix(.33333 0 0 .33333 -.16667 .33333)"/>
<path d="M 26.503906 20.503906 L 31.496094 20.503906 " transform="matrix(.33333 0 0 .33333 -.16667 .33333)"/>
<path d="M 26.503906 23.503906 L 31.496094 23.503906 " transform="matrix(.33333 0 0 .33333 -.16667 .33333)"/>
<path d="M 16.003906 26.503906 L 32 26.503906 " transform="matrix(.33333 0 0 .33333 -.16667 .33333)"/>
<path d="M 16.003906 29.503906 L 32 29.503906 " transform="matrix(.33333 0 0 .33333 -.16667 .33333)"/>
<path d="M 16.003906 32.503906 L 32 32.503906 " transform="matrix(.33333 0 0 .33333 -.16667 .33333)"/>
</g>
</svg>
