<svg width="16" height="16" version="1.1" viewBox="0 0 4.52 4.52" xmlns="http://www.w3.org/2000/svg">
 <path d="m0.282 0c-0.282 0-0.282 0.282-0.282 0.282v1.69s1.25e-9 0.282 0.282 0.282h0.847v0.558h-0.847v0.564h1.13v-1.69h-0.564c-0.156 0-0.282-0.13-0.282-0.282v-0.564c0-0.16 0.126-0.282 0.282-0.282h1.13c0.169 0 0.282 0.12 0.282 0.282v0.282h0.564v-0.847c0-0.282-0.282-0.282-0.282-0.282h-2.26zm1.69 1.41c-0.152 0-0.282 0.144-0.282 0.282v1.41c0 0.145 0.0882 0.282 0.282 0.282h0.847v0.568h-0.847v0.564h2.26v-0.564h-0.847v-0.568h0.847c0.181 0 0.282-0.123 0.282-0.282v-1.41c0-0.139-0.111-0.282-0.282-0.282h-2.26zm0.564 0.564h1.13c0.155 0 0.282 0.109 0.282 0.282v0.282c0 0.143-0.109 0.282-0.282 0.282h-1.13c-0.175 0-0.282-0.117-0.282-0.282v-0.282c0-0.157 0.118-0.282 0.282-0.282z" style="fill:#353535"/>
</svg>
