<svg width="22" xmlns="http://www.w3.org/2000/svg" height="22" viewBox="0 0 22 22" xmlns:xlink="http://www.w3.org/1999/xlink">
<g style="fill:#909ea9">
<path d="M 4.160156 4.144531 C 3.890625 4.171875 3.664062 4.425781 3.667969 4.695312 L 3.667969 14.59375 C 3.667969 14.882812 3.929688 15.144531 4.214844 15.144531 L 9.167969 15.144531 L 9.167969 16.074219 L 12.832031 16.074219 L 12.832031 15.144531 L 17.785156 15.144531 C 18.070312 15.144531 18.332031 14.882812 18.332031 14.59375 L 18.332031 4.695312 C 18.332031 4.40625 18.070312 4.144531 17.785156 4.144531 Z M 4.886719 5.074219 C 4.910156 5.070312 4.933594 5.070312 4.957031 5.074219 L 17.042969 5.074219 C 17.234375 5.074219 17.410156 5.246094 17.410156 5.441406 L 17.410156 13.878906 C 17.410156 14.070312 17.234375 14.246094 17.042969 14.246094 L 4.957031 14.246094 C 4.765625 14.246094 4.589844 14.070312 4.589844 13.878906 L 4.589844 5.441406 C 4.585938 5.269531 4.71875 5.105469 4.886719 5.074219 Z M 6.886719 16.527344 L 6.886719 17.453125 L 15.59375 17.453125 L 15.59375 16.527344 Z "/>
<path d="M 5.5 5.957031 L 5.5 7.792969 L 7.332031 5.957031 Z "/>
<path d="M 5.5 13.292969 L 7.332031 13.292969 L 5.5 11.457031 Z "/>
<path d="M 16.5 13.292969 L 16.5 11.457031 L 14.667969 13.292969 Z "/>
<path d="M 16.5 5.957031 L 14.667969 5.957031 L 16.5 7.792969 Z "/>
</g>
</svg>
