<svg width="22" xmlns="http://www.w3.org/2000/svg" height="22" viewBox="0 0 22 22" xmlns:xlink="http://www.w3.org/1999/xlink">
<g style="fill:#8f9da9">
<path d="M 1.359375 5.441406 C 0.605469 5.441406 0 6.050781 0 6.804688 L 0 16.328125 C 0 17.082031 0.605469 17.6875 1.359375 17.6875 L 20.410156 17.6875 C 21.164062 17.6875 21.769531 17.082031 21.769531 16.328125 L 21.769531 6.804688 C 21.769531 6.050781 21.164062 5.441406 20.410156 5.441406 Z M 4.082031 8.164062 L 17.6875 8.164062 C 18.441406 8.164062 19.050781 8.769531 19.050781 9.523438 L 19.050781 13.605469 C 19.050781 14.359375 18.441406 14.96875 17.6875 14.96875 L 4.082031 14.96875 C 3.328125 14.96875 2.722656 14.359375 2.722656 13.605469 L 2.722656 9.523438 C 2.722656 8.769531 3.328125 8.164062 4.082031 8.164062 Z "/>
<path d="M 4.082031 9.523438 L 4.082031 10.886719 L 5.441406 10.886719 L 5.441406 9.523438 Z "/>
<path d="M 6.804688 9.523438 L 6.804688 10.886719 L 8.164062 10.886719 L 8.164062 9.523438 Z "/>
<path d="M 9.523438 9.523438 L 9.523438 10.886719 L 10.886719 10.886719 L 10.886719 9.523438 Z "/>
<path d="M 12.246094 9.523438 L 12.246094 10.886719 L 13.605469 10.886719 L 13.605469 9.523438 Z "/>
<path d="M 4.082031 12.246094 L 4.082031 13.605469 L 6.851562 13.605469 L 6.851562 12.246094 Z "/>
<path d="M 8.164062 12.246094 L 8.164062 13.605469 L 14.917969 13.605469 L 14.917969 12.246094 Z "/>
<path d="M 14.96875 9.523438 L 14.96875 10.886719 L 16.328125 10.886719 L 16.328125 13.605469 L 17.6875 13.605469 L 17.6875 9.523438 Z "/>
</g>
</svg>
