<?xml version="1.0" encoding="UTF-8" standalone="no"?>
<svg
   xmlns:dc="http://purl.org/dc/elements/1.1/"
   xmlns:cc="http://creativecommons.org/ns#"
   xmlns:rdf="http://www.w3.org/1999/02/22-rdf-syntax-ns#"
   xmlns:svg="http://www.w3.org/2000/svg"
   xmlns="http://www.w3.org/2000/svg"
   xmlns:sodipodi="http://sodipodi.sourceforge.net/DTD/sodipodi-0.dtd"
   xmlns:inkscape="http://www.inkscape.org/namespaces/inkscape"
   width="22"
   height="22"
   viewBox="0 0 22 22"
   id="svg1911"
   version="1.1"
   inkscape:version="0.91 r"
   sodipodi:docname="media-zip.svg">
  <metadata
     id="metadata1927">
    <rdf:RDF>
      <cc:Work
         rdf:about="">
        <dc:format>image/svg+xml</dc:format>
        <dc:type
           rdf:resource="http://purl.org/dc/dcmitype/StillImage" />
      </cc:Work>
    </rdf:RDF>
  </metadata>
  <defs
     id="defs1925" />
  <sodipodi:namedview
     pagecolor="#ffffff"
     bordercolor="#666666"
     borderopacity="1"
     objecttolerance="10"
     gridtolerance="10"
     guidetolerance="10"
     inkscape:pageopacity="0"
     inkscape:pageshadow="2"
     inkscape:window-width="640"
     inkscape:window-height="480"
     id="namedview1923" />
  <g
     style="fill:#909ea9"
     id="g1913">
    <path
       d="M 6.1875 3.667969 C 6.132812 3.675781 6.078125 3.695312 6.03125 3.722656 L 3.882812 5.054688 C 3.75 5.136719 3.667969 5.289062 3.667969 5.441406 L 3.667969 17.429688 C 3.667969 17.671875 3.886719 17.890625 4.125 17.890625 L 5.816406 17.890625 C 5.824219 18.125 6.039062 18.332031 6.273438 18.332031 L 15.726562 18.332031 C 15.960938 18.332031 16.175781 18.125 16.183594 17.890625 L 17.875 17.890625 C 18.113281 17.890625 18.332031 17.671875 18.332031 17.429688 L 18.332031 5.441406 C 18.332031 5.289062 18.25 5.136719 18.117188 5.054688 L 15.96875 3.722656 C 15.894531 3.683594 15.8125 3.664062 15.726562 3.667969 L 6.273438 3.667969 C 6.246094 3.660156 6.214844 3.660156 6.1875 3.667969 Z M 6.417969 4.582031 L 16.042969 4.582031 L 17.417969 5.5 L 17.417969 16.957031 L 16.042969 16.957031 L 16.042969 12.375 L 5.957031 12.375 L 5.957031 16.957031 L 4.582031 16.957031 L 4.582031 5.5 Z M 6.417969 14.207031 L 15.582031 14.207031 L 15.582031 14.667969 L 6.417969 14.667969 Z M 6.417969 16.042969 L 15.582031 16.042969 L 15.582031 16.5 L 6.417969 16.5 Z "
       id="path1915" />
    <path
       d="M 10.3125 4.125 L 8.707031 4.125 L 8.707031 5.5 L 15.125 5.5 L 15.125 4.125 Z "
       id="path1917" />
    <path
       d="M 6.417969 11.457031 L 6.417969 8.25 L 12.832031 8.25 L 12.832031 11.457031 Z "
       id="path1919" />
    <path
       d="M 13.75 8.25 L 13.75 11.457031 L 15.582031 11.457031 L 15.582031 8.25 Z "
       id="path1921" />
  </g>
</svg>
