<?xml version="1.0" encoding="UTF-8" standalone="no"?>
<!-- Created with Inkscape (http://www.inkscape.org/) -->

<svg
   xmlns:dc="http://purl.org/dc/elements/1.1/"
   xmlns:cc="http://creativecommons.org/ns#"
   xmlns:rdf="http://www.w3.org/1999/02/22-rdf-syntax-ns#"
   xmlns:svg="http://www.w3.org/2000/svg"
   xmlns="http://www.w3.org/2000/svg"
   xmlns:xlink="http://www.w3.org/1999/xlink"
   xmlns:sodipodi="http://sodipodi.sourceforge.net/DTD/sodipodi-0.dtd"
   xmlns:inkscape="http://www.inkscape.org/namespaces/inkscape"
   width="32"
   height="32"
   id="svg2"
   version="1.1"
   inkscape:version="0.48.5 r10040"
   sodipodi:docname="document-open-recent.svg"
   inkscape:export-filename="/media/Data/Main/Visuals/Icons/Numix/Desktop/repos/numix-wiki/Gjorgi/Numix-folders/48/New/folder-144.png"
   inkscape:export-xdpi="270"
   inkscape:export-ydpi="270">
  <defs
     id="defs4">
    <radialGradient
       gradientUnits="userSpaceOnUse"
       gradientTransform="matrix(1,0,0,0.10447761,0,50.597015)"
       r="33.5"
       fy="56.5"
       fx="32.5"
       cy="56.5"
       cx="32.5"
       id="radialGradient3964"
       xlink:href="#linearGradient3958"
       inkscape:collect="always" />
    <linearGradient
       id="linearGradient3958"
       inkscape:collect="always">
      <stop
         id="stop3960"
         offset="0"
         style="stop-color:#000000;stop-opacity:1;" />
      <stop
         id="stop3962"
         offset="1"
         style="stop-color:#000000;stop-opacity:0;" />
    </linearGradient>
  </defs>
  <sodipodi:namedview
     id="base"
     pagecolor="#ffffff"
     bordercolor="#666666"
     borderopacity="1.0"
     inkscape:pageopacity="0.0"
     inkscape:pageshadow="2"
     inkscape:zoom="38.673255"
     inkscape:cx="20.662447"
     inkscape:cy="23.046346"
     inkscape:document-units="px"
     inkscape:current-layer="layer1"
     showgrid="true"
     inkscape:window-width="1920"
     inkscape:window-height="1052"
     inkscape:window-x="0"
     inkscape:window-y="28"
     inkscape:window-maximized="1"
     showguides="true"
     inkscape:guide-bbox="true">
    <inkscape:grid
       type="xygrid"
       id="grid2985"
       empspacing="5"
       visible="true"
       enabled="true"
       snapvisiblegridlinesonly="true" />
  </sodipodi:namedview>
  <metadata
     id="metadata7">
    <rdf:RDF>
      <cc:Work
         rdf:about="">
        <dc:format>image/svg+xml</dc:format>
        <dc:type
           rdf:resource="http://purl.org/dc/dcmitype/StillImage" />
        <dc:title />
      </cc:Work>
    </rdf:RDF>
  </metadata>
  <g
     inkscape:label="Layer 1"
     inkscape:groupmode="layer"
     id="layer1"
     transform="translate(0,-1020.3622)">
    <rect
       style="fill:#388e3c;fill-opacity:1;stroke:none"
       id="rect3048"
       width="26"
       height="18"
       x="3"
       y="1021.3622"
       rx="1.04"
       ry="1" />
    <path
       style="fill:#66bb6a;fill-opacity:1;stroke:none"
       d="m 32,1033.0341 0,18.3281 -32,0 0,-17 15,0 1.5,-3 13.976191,0.062 c 0.761904,0 1.523809,0.8051 1.523809,1.61 z"
       id="rect2987"
       inkscape:connector-curvature="0"
       sodipodi:nodetypes="ccccccccc" />
    <path
       sodipodi:nodetypes="ccccc"
       id="path3794"
       d="m 0,1050.3622 0,1 32,0 0,-1 z"
       style="opacity:0.15;fill:#000000;fill-opacity:1;stroke:none"
       inkscape:connector-curvature="0" />
    <path
       style="opacity:0.02999998;fill:#000000;fill-opacity:1;stroke:none"
       d="m 16.5,1031.3622 -1.5,3 -15,0 0,1 15.5,0 1.5,-3 13.46875,0.062 c 0.761904,0 1.53125,0.7666 1.53125,1.5313 l 0,-1 c 0,0 -0.769346,-1.5313 -1.53125,-1.5313 z"
       id="path3015"
       inkscape:connector-curvature="0"
       sodipodi:nodetypes="ccccccccscc" />
    <path
       inkscape:connector-curvature="0"
       style="opacity:0.02999998;fill:#000000;fill-opacity:1;stroke:none"
       d="m 4,1021.3622 c -0.554,0 -1,0.446 -1,1 l 0,1 c 0,-0.554 0.446,-1 1,-1 l 24,0 c 0.554,0 1,0.446 1,1 l 0,-1 c 0,-0.554 -0.446,-1 -1,-1 z"
       id="rect3818"
       sodipodi:nodetypes="sscsscsss" />
    <path
       inkscape:connector-curvature="0"
       style="fill:#4caf50;fill-opacity:1;fill-rule:evenodd"
       d="m 29.998767,1041.3616 c 0.04395,2.1285 -1.089886,4.1149 -2.963493,5.1931 -1.875073,1.0767 -4.19694,1.0767 -6.070548,0 -1.873608,-1.0782 -3.00744,-3.0646 -2.963494,-5.1931 -0.04395,-2.1285 1.089886,-4.1149 2.963494,-5.1916 1.873608,-1.0781 4.195475,-1.0781 6.070548,0 1.873608,1.0767 3.00744,3.0631 2.963493,5.1916 z"
       id="path2993" />
    <path
       inkscape:connector-curvature="0"
       style="fill:#ffffff"
       d="m 27.281377,1037.5895 c -0.127447,0.045 -0.234384,0.1304 -0.307629,0.2432 l -3.269658,3.1656 -2.040607,-1.9483 c -0.08203,-0.271 -0.338391,-0.4497 -0.622582,-0.4351 -0.284191,0.014 -0.521505,0.2212 -0.572776,0.4996 -0.0498,0.2768 0.09815,0.5522 0.3589,0.665 l 2.458103,2.4362 c 0.235849,0.2153 0.600609,0.2153 0.836459,0 l 3.688619,-3.6535 c 0.14356,-0.1891 0.164068,-0.4454 0.0498,-0.6533 -0.114263,-0.2097 -0.339857,-0.334 -0.578636,-0.3194 z"
       id="path2995" />
  </g>
</svg>
