<svg width="22.5" xmlns="http://www.w3.org/2000/svg" height="22.5" viewBox="0 0 18 18" xmlns:xlink="http://www.w3.org/1999/xlink">
<g style="stroke-opacity:.298;stroke:#000;stroke-width:.5">
<path style="fill:#b28d6c" d="M 5.78125 37.989583 C 5.083333 37.916667 4.489583 37.21875 4.489583 36.46875 L 4.489583 7.791667 C 4.489583 7 5.166667 6.28125 5.916667 6.28125 L 41.260417 6.28125 C 42.010417 6.28125 42.6875 7 42.6875 7.791667 L 42.6875 33.8125 C 42.6875 34.604167 42.010417 35.322917 41.260417 35.322917 L 27.458333 35.322917 L 27.458333 36.46875 C 27.458333 37.260417 26.78125 37.989583 26.03125 37.989583 L 5.916667 37.989583 C 5.875 37.989583 5.822917 37.989583 5.78125 37.989583 Z " transform="scale(.375)"/>
<path style="fill:#dfb188" d="M 3.020833 10.020833 C 2.1875 10.09375 1.489583 10.791667 1.5 11.53125 L 1.5 40.197917 C 1.5 40.989583 2.302083 41.71875 3.1875 41.71875 L 44.8125 41.71875 C 45.697917 41.71875 46.5 40.989583 46.5 40.197917 L 46.5 14.197917 C 46.5 13.40625 45.697917 12.677083 44.8125 12.677083 L 28.5625 12.677083 L 28.5625 11.53125 C 28.5625 10.739583 27.760417 10.020833 26.875 10.020833 L 3.1875 10.020833 C 3.125 10.020833 3.072917 10.020833 3.020833 10.020833 Z " transform="scale(.375)"/>
</g>
<g style="fill:#b28d6c">
<g>
<path d="M 6.414062 7.125 C 6.207031 7.144531 6.023438 7.367188 6.027344 7.605469 L 6.027344 12.65625 C 6.03125 12.90625 6.230469 13.128906 6.449219 13.125 L 11.589844 13.125 C 11.804688 13.121094 11.996094 12.902344 12 12.65625 L 12 7.605469 C 12.003906 7.355469 11.808594 7.128906 11.589844 7.125 Z M 6.769531 7.875 L 11.253906 7.875 L 11.253906 11.625 L 6.769531 11.625 Z "/>
</g>
<g style="fill-rule:evenodd">
<path d="M 6.015625 11.039062 C 6.101562 10.976562 6.300781 10.789062 6.628906 10.464844 C 6.953125 10.136719 7.386719 9.691406 7.953125 9.105469 C 8.320312 9.628906 8.589844 10.007812 8.792969 10.253906 C 8.988281 10.5 9.097656 10.609375 9.121094 10.578125 C 9.332031 10.390625 9.507812 10.234375 9.65625 10.09375 C 9.804688 9.957031 9.921875 9.839844 10.011719 9.75 C 10.472656 10.324219 10.851562 10.796875 11.183594 11.199219 C 11.511719 11.597656 11.773438 11.898438 11.972656 12.121094 L 10.726562 11.085938 C 10.625 11.351562 10.457031 11.488281 10.21875 11.5 C 9.972656 11.507812 9.601562 11.207031 9.300781 11.152344 C 9 11.097656 8.703125 11.269531 8.433594 11.175781 C 8.164062 11.082031 7.953125 10.699219 7.695312 10.601562 C 7.441406 10.503906 7.179688 10.503906 6.90625 10.601562 C 6.609375 10.746094 6.316406 10.890625 6.015625 11.039062 Z "/>
<path d="M 6 10.839844 C 6.085938 10.773438 6.285156 10.589844 6.609375 10.265625 C 6.9375 9.9375 7.371094 9.492188 7.933594 8.90625 C 8.304688 9.429688 8.574219 9.808594 8.773438 10.058594 C 8.96875 10.304688 9.078125 10.410156 9.105469 10.378906 C 9.3125 10.191406 9.488281 10.035156 9.640625 9.894531 C 9.789062 9.757812 9.90625 9.640625 9.996094 9.550781 C 10.453125 10.125 10.835938 10.601562 11.167969 11 C 11.496094 11.398438 11.753906 11.699219 11.957031 11.921875 L 10.710938 10.886719 C 10.605469 11.152344 10.4375 11.289062 10.199219 11.300781 C 9.957031 11.308594 9.585938 11.007812 9.285156 10.957031 C 8.984375 10.898438 8.683594 11.070312 8.417969 10.976562 C 8.148438 10.878906 7.9375 10.503906 7.679688 10.402344 C 7.421875 10.304688 7.164062 10.304688 6.890625 10.402344 C 6.59375 10.546875 6.296875 10.695312 6 10.839844 Z "/>
</g>
<g>
<path d="M 7.148438 10.5 L 10.125 10.5 C 10.539062 10.5 10.875 10.835938 10.875 11.25 L 10.875 11.625 C 10.875 12.039062 10.539062 12.375 10.125 12.375 L 7.148438 12.375 C 6.730469 12.375 6.398438 12.039062 6.398438 11.625 L 6.398438 11.25 C 6.398438 10.835938 6.730469 10.5 7.148438 10.5 Z "/>
<path d="M 10.878906 11.25 L 11.25 11.25 C 11.457031 11.25 11.625 11.417969 11.625 11.625 C 11.625 11.832031 11.457031 12 11.25 12 L 10.878906 12 C 10.671875 12 10.503906 11.832031 10.503906 11.625 C 10.503906 11.417969 10.671875 11.25 10.878906 11.25 Z "/>
<path d="M 10.515625 10.921875 L 10.886719 10.921875 C 10.988281 10.921875 11.074219 11.003906 11.074219 11.109375 L 11.074219 11.484375 C 11.074219 11.585938 10.988281 11.671875 10.886719 11.671875 L 10.515625 11.671875 C 10.410156 11.671875 10.328125 11.585938 10.328125 11.484375 L 10.328125 11.109375 C 10.328125 11.003906 10.410156 10.921875 10.515625 10.921875 Z "/>
</g>
</g>
</svg>
