<svg xmlns="http://www.w3.org/2000/svg" viewBox="0 0 48 48" xmlns:xlink="http://www.w3.org/1999/xlink">
<defs>
<linearGradient id="linearGradient3795">
<stop offset="0" style="stop-color:#5276cc"/>
<stop offset="1" style="stop-color:#5984e1"/>
</linearGradient>
<linearGradient xlink:href="#linearGradient3795" id="linearGradient3801" y1="1053.158" y2="1004.847" x2="0" gradientUnits="userSpaceOnUse"/>
</defs>
<g transform="translate(0 -1004.3622)">
<rect width="48" x="0" y="1004.362" rx="1.945" height="48" style="fill:url(#linearGradient3801)"/>
</g>
<g style="fill:#fff" transform="matrix(1.23384 0 0 1.23384 -6.32138 -1245.61329)">
<path style="stroke:#567ed8;stroke-linejoin:round;stroke-linecap:round;stroke-width:.171" d="m 24,11.75 c -6.773597,0 -12.25,5.476403 -12.25,12.25 0,6.773597 5.476403,12.25 12.25,12.25 0.04223,0 0.08287,4.25e-4 0.125,0 l 0,-11.4375 0,-0.03125 8.59375,-9.25 c 0.634279,0.585652 1.266799,1.348502 1.8125,2.25 C 32.401195,14.175751 28.496824,11.75 24,11.75 z m 11.15625,7.21875 c 0.13691,0.304503 0.262738,0.620305 0.375,0.9375 -0.115072,-0.318662 -0.238647,-0.640053 -0.375,-0.9375 z m 0.375,0.9375 c 0.112262,0.317195 0.226088,0.64007 0.3125,0.96875 -0.08928,-0.334051 -0.198776,-0.65382 -0.3125,-0.96875 z M 36.1875,25.25 c -0.147431,1.23425 -0.520458,2.527922 -1.125,3.875 -0.124555,0.315508 -0.283429,0.665015 -0.46875,1 0.847296,-1.462815 1.414728,-3.108118 1.59375,-4.875 z m -5.46875,8.96875 c -0.497568,0.327685 -1.051766,0.637742 -1.625,0.90625 0.571959,-0.261487 1.104566,-0.563416 1.625,-0.90625 z" transform="translate(0 1004.3622)"/>
<path d="m 25.484485,1042.7972 1e-6,-11.5645 10.953654,4.3494 c -1.148088,2.9082 -4.892821,6.9024 -10.953655,7.2151 z"/>
<path d="m 36.823808,1033.7516 -10.959213,-4.3398 8.597901,-9.2545 c 2.572851,2.3756 5.062118,7.5762 2.361312,13.5943 z"/>
</g>
<g transform="translate(0 -1004.3622)">
<path style="opacity:.15;fill:#fff" d="m 2,1004.3622 c -1.108,0 -2,0.892 -2,2 l 0,44 c 0,1.108 0.892,2 2,2 l 14.78125,0 12.84375,-48 -27.625,0 z"/>
</g>
</svg>
