<svg xmlns="http://www.w3.org/2000/svg" viewBox="0 0 48 48" xmlns:xlink="http://www.w3.org/1999/xlink">
<defs>
<linearGradient id="linearGradient3795">
<stop offset="0" style="stop-color:#868bd8"/>
<stop offset="1" style="stop-color:#4a42a4"/>
</linearGradient>
<linearGradient gradientTransform="translate(0 -2056.7244)" xlink:href="#linearGradient3795" id="linearGradient3801" y1="1053.158" y2="1004.847" x2="0" gradientUnits="userSpaceOnUse"/>
</defs>
<g transform="translate(0 -1004.3622)">
<rect width="48" x="0" y="-1052.362" rx="1.945" height="48" style="fill:url(#linearGradient3801)" transform="scale(1 -1)"/>
</g>
<g style="fill:#fff" transform="translate(0 -1004.3622)">
<path style="fill-rule:evenodd" d="m 14.287929,1042.9269 c 0,0 1.90757,0.5538 4.446774,0.8704 1.028314,0.1283 4.940859,0.5765 7.940667,0.5647 0,0 3.653506,0 5.670224,-0.2823 2.11017,-0.2998 3.30567,-0.6823 3.971006,-1.4458 0.01733,-0.182 0.321135,-0.7754 -0.499103,-1.3476 -2.097028,-1.4629 -4.808018,-1.8633 -10.073785,-3.1138 -5.822922,-1.464 -7.563096,-2.8659 -8.432446,-3.8805 -0.824207,-1.0168 0.154711,-3.1285 4.846747,-4.1644 2.375625,-0.5781 11.223501,-0.6842 11.223501,-0.6842 -2.538402,-2.0155 -7.303974,-5.6236 -8.278079,-6.3909 -0.854334,-0.6729 -2.231061,-1.7057 -2.379052,-2.6286 -0.19964,-0.8984 1.214483,-1.331 1.963135,-1.3809 2.412328,-0.1664 5.706402,0.1165 8.634468,0.6988 1.47181,0.2926 1.730221,0.2495 1.730221,0.2495 2.096229,0.1 3.72663,-0.9982 3.643446,-3.3107 -0.01663,-2.3457 -2.361998,-4.2268 -4.957748,-4.3089 -2.444434,-0.078 -8.468101,0.3494 -8.468101,0.3494 7.020704,1.4473 8.168431,1.8168 8.534647,2.6619 0.216278,0.499 -0.361277,0.9953 -2.295871,0.8983 -2.106164,-0.105 -6.421781,-0.6156 -6.421781,-0.6156 -4.109274,-0.6321 -6.970791,-1.231 -8.218546,0.3994 -0.815175,1.0652 0.116455,2.3623 0.482462,3.1276 1.630403,2.845 4.449697,4.7967 6.238779,6.1722 0.673159,0.5177 2.728425,1.6637 2.728425,1.6637 -6.388508,-1.7467 -11.479351,-0.7652 -14.706876,0.9317 -3.7099953,2.1961 -3.0753628,5.9019 2.811605,9.3666 3.477083,2.0462 5.208328,3.0293 10.90139,3.7282 3.327676,0.5306 3.823524,0.7477 3.798234,1.0247 -0.03561,0.39 -3.938636,0.5377 -5.011444,0.6117 -2.729236,0.1882 -9.787608,0.2354 -9.822899,0.2354 z"/>
<path style="opacity:.15" d="m 2,1004.3622 c -1.10800003,0 -2,0.892 -2,2 l 0,44 c 0,1.108 0.89199997,2 2,2 l 14.78125,0 12.84375,-48 -27.625,0 z"/>
</g>
</svg>
