<svg xmlns="http://www.w3.org/2000/svg" viewBox="0 0 48 48" xmlns:xlink="http://www.w3.org/1999/xlink">
<defs>
<linearGradient id="linearGradient3790">
<stop offset="0" style="stop-color:#729fcf"/>
<stop offset="1" style="stop-color:#afc1d3"/>
</linearGradient>
<linearGradient xlink:href="#linearGradient3790" id="linearGradient3796" y1="-1044.65" y2="-1004.381" x2="0" gradientUnits="userSpaceOnUse"/>
</defs>
<g transform="translate(0 -1004.3622)">
<rect width="48" x="0" y="-1052.362" rx="1.945" height="48" style="fill:url(#linearGradient3796)" transform="scale(1 -1)"/>
</g>
<g style="fill:#fff" transform="translate(0 -1004.3622)">
<path d="m 18.518199,1034.8799 c 0,0 -3.957907,-3.1003 -6.794407,-7.586 -2.8364993,-4.4856 -3.6280813,-7.3221 -2.4407093,-8.1796 1.1873733,-0.8576 5.8708953,0.9894 9.4330113,3.2322 3.562117,2.2429 2.941442,1.9533 2.941442,1.9533 0,0 0.01142,-1.5913 0.860808,-1.9169 0.993317,-0.3808 1.783667,1.3219 1.783667,1.3219 0,0 1.142526,-2.4137 4.30885,-5.5141 3.166326,-3.1003 6.651953,-5.2356 8.103186,-4.7738 1.451233,0.4617 2.46843,4.2636 2.534395,8.8811 0.06597,4.6176 -3.076232,9.2803 -3.076232,9.2803 0,0 2.005518,3.2201 1.611139,5.4022 -0.482546,2.6699 -1.520535,4.43 -3.565453,4.6279 -2.044919,0.1979 -5.738965,-3.3643 -5.738965,-3.3643 0,0 0.13193,4.6836 -1.583163,5.0793 -1.715092,0.3958 -4.551592,-1.781 -6.20072,-4.0238 -1.649128,-2.2428 -2.176849,-4.4197 -2.176849,-4.4197 z"/>
<path style="opacity:.15" d="m 2,1004.3622 c -1.10799996,0 -1.99999996,0.892 -1.99999996,2 l 0,44 c 0,1.108 0.892,2 1.99999996,2 l 14.78125,0 12.84375,-48 -27.625,0 z"/>
</g>
</svg>
