<svg width="48" xmlns="http://www.w3.org/2000/svg" viewBox="0 0 48 48" height="48" xmlns:xlink="http://www.w3.org/1999/xlink">
<defs>
<linearGradient id="linearGradient3795">
<stop offset="0" style="stop-color:#9f1e25"/>
<stop offset="1" style="stop-color:#e16459"/>
</linearGradient>
<linearGradient xlink:href="#linearGradient3795" id="linearGradient3801" y1="1053.158" y2="1004.847" x2="0" gradientUnits="userSpaceOnUse"/>
</defs>
<g transform="translate(0 -1004.3622)">
<rect width="48" x="0" y="1004.362" rx="1.945" height="48" style="fill:url(#linearGradient3801)"/>
</g>
<g style="fill:#fff" transform="matrix(.16 0 0 .16 3.52 36.8)">
<path style="line-height:normal;color:#000" d="m 34.718845,-177 c -3.659607,0.38816 -6.738432,3.8271 -6.718751,7.51271 l 0,136.40257 c 3.94e-4,3.93354 3.573113,7.512089 7.500001,7.512709 l 67.499985,0 -7e-5,42.572011 49.99998,0 7e-5,-42.572011 67.49994,0 c 3.92694,-6.2e-4 7.49962,-3.579169 7.5,-7.512709 l 0,-136.40257 c -3.8e-4,-3.93353 -3.57306,-7.51208 -7.5,-7.51271 l -184.999905,0 z m 12.031161,12.44292 c -0.62509,-3.75635 -0.31157,-0.0626 0,0 l 162.499994,0 c 2.61793,6.2e-4 6.24975,3.63803 6.25,6.26059 l 0,112.6906 c -2.5e-4,2.62256 -3.63207,6.25997 -6.25,6.26059 l -162.499994,0 c -2.61792,-6.2e-4 -6.249742,-3.63803 -6.250004,-6.26059 l 0,-112.6906 c -0.04125,-2.33708 3.957984,-5.82485 6.250004,-6.26059 z M 28,-1.78176 l 0,12.52117 200,0 0,-12.52117 z"/>
<path style="opacity:.5" d="m 96.218319,-111.87235 c 0.65065,2.21624 2.42832,4.36413 2.55892,6.71311 0.306971,5.519396 -3.76325,11.097986 -5.98233,15.867347 -0.87087,1.871737 -1.15163,4.411428 -2.29445,6.092147 -1.43212,2.10639 -4.71654,-0.05248 -6.79293,-0.242283 -1.48281,-0.135787 -2.84511,0.04455 -2.44113,1.778669 -0.59784,0.527285 -0.50266,1.117428 0.35057,1.393886 2.38953,0.774144 4.90311,0.939225 7.27796,1.962669 -0.97007,0.521487 -2.13822,1.72649 -0.28726,2.065197 1.81391,0.331994 2.27516,-0.954482 3.68315,-1.589176 1.73369,-0.781467 3.27044,-0.841885 4.78641,-2.205867 1.52882,-1.375577 2.085711,-3.531706 3.065821,-5.288405 1.28464,-2.302902 3.18201,-4.373591 4.31409,-6.713108 l 0.30514,0 c 0,6.934031 1.11285,15.430386 -1.79393,21.952173 -0.91359,2.049939 -5.783921,0.74668 -6.163761,2.803943 -0.23774,1.287697 2.212181,0.703046 2.770291,0.570615 l 0,0.305141 c -2.957041,1.240399 -4.536421,5.417479 0,4.271979 0.20688,1.238874 1.03778,1.822609 1.83084,0.610283 1.95413,0.440624 2.29772,-1.501906 3.79596,-2.383765 1.66363,-0.979198 3.33062,-1.270608 4.67935,-2.815844 3.41575,-3.912522 3.7157,-11.120571 5.82392,-15.855145 1.02772,-2.307784 3.22687,-4.141378 4.04618,-6.409189 0.59563,-1.648068 -1.62335,-4.490151 -1.00392,-5.311291 0.93251,-1.23674 4.60153,0.29996 5.84926,0.47816 3.68733,0.52606 9.1399,-1.42562 12.81593,-2.1839 l 0,0.30514 c -9.5262,4.721149 -9.983,14.723072 -6.43146,23.495886 1.23735,3.056296 4.1188,5.441281 4.29547,8.849099 -3.07613,0 -6.25143,-1.903777 -9.15271,-1.479325 -3.31658,0.485175 -2.54427,6.772613 -0.47266,8.325477 1.64776,1.234907 2.88755,-0.497686 4.43797,-0.769872 3.61593,-0.634694 9.36174,0.889487 12.44122,-1.932155 1.31974,-1.209275 0.81138,-2.884501 1.05,-4.449266 0.44001,-2.885417 1.21507,-5.924014 1.76585,-8.849099 l 0.61028,0 c 1.32584,2.776786 6.1782,6.015862 9.15424,6.743624 2.28734,0.559324 5.77938,0.353048 7.01826,2.715758 -2.8067,-1.207445 -8.15308,-2.619028 -10.93993,-0.653613 -3.50852,2.474391 3.84936,4.228039 5.44738,4.315309 -0.36098,1.97518 0.17027,4.14382 2.73437,3.13014 3.24121,-1.281594 7.08203,-4.129783 9.42857,-6.724705 0.66551,-0.735696 1.79606,-1.177846 2.03285,-2.219904 0.42414,-1.865634 -1.77318,-3.331838 -2.95743,-4.395561 -3.12374,-2.805774 -8.91745,-4.332702 -9.37547,-9.013875 -0.68291,-6.978583 5.00554,-10.740365 7.73594,-16.477628 2.31358,-4.86182 1.46163,-11.979236 0.47084,-17.087916 3.57534,1.91476 4.69978,6.51568 4.87036,10.37481 0.35915,8.129876 -4.58536,14.792634 -2.21258,23.190734 0.64232,2.273913 1.49244,6.394542 3.78222,7.618769 1.60261,0.856532 2.5696,-0.68138 2.28887,-2.126225 -1.13452,-5.840405 -2.15399,-10.127336 -0.72319,-16.172491 1.17602,-4.968921 2.65748,-9.545741 3.00687,-14.646777 0.11076,-1.61908 0.60357,-3.31018 -0.0537,-4.88227 -1.1571,-2.76854 -3.94274,-6.65269 -6.68687,-7.95808 -2.17719,-1.03565 -4.77363,-0.97066 -7.01825,-1.83848 -1.83939,-0.71098 -3.10268,-2.27797 -4.88226,-3.08837 -3.48258,-1.58581 -7.15801,-2.35611 -10.67995,-3.73419 -6.15806,-2.40949 -12.76742,-5.33445 -17.99144,-9.50037 -2.93363,-2.33942 -4.68758,-5.97826 -7.94558,-8.06552 -8.92416,-5.71713 -23.43852,-6.47821 -32.955267,-2.27065 -4.35497,1.92544 -7.28592,5.92462 -9.59004,9.90837 -0.62395,1.07873 -1.91986,2.35373 -1.91516,3.66169 0.005,1.30106 1.28175,2.26833 1.83698,3.35656 0.9208,1.80466 1.58387,4.10589 1.86265,6.10282 0.32101,2.29985 -1.41665,3.87133 -1.20574,6.10283 0.179,1.89371 0.84582,5.90174 2.36765,7.15129 3.49528,2.87016 10.34631,-0.74851 13.35677,-2.87931 z"/>
</g>
<g transform="matrix(.16 0 0 .16 3.52 36.8)">
<path style="fill:none;stroke:#fff;stroke-linejoin:round;stroke-linecap:round;stroke-width:6.374" d="m 39.186821,-96.684454 67.304019,0 14.10072,-51.128716 0,87.626349 18.83982,-68.311729 8.85062,32.091146 68.53118,0"/>
</g>
<path style="opacity:.15;fill:#fff" d="M 2,0 C 0.892,0 0,0.892 0,2 l 0,44 c 0,1.108 0.892,2 2,2 L 16.78125,48 29.625,0 2,0 z"/>
</svg>
