<svg xmlns="http://www.w3.org/2000/svg" viewBox="0 0 256 256" xmlns:xlink="http://www.w3.org/1999/xlink">
<g style="fill:#c00" transform="translate(0 208)">
<path d="m 107.97192,-82.18898 c 0,-2.91643 -0.53868,-6.100152 -2.23298,-8.545701 -3.39707,-4.901928 -10.689416,-6.461303 -15.765446,-3.372072 -2.56572,1.562546 -3.99257,4.290476 -4.7971,7.091146 -1.59709,5.56128 -0.86476,11.907823 0.25213,17.492904 0.35696,1.786216 0.72565,3.575093 1.22671,5.328449 0.18099,0.632543 0.26478,1.551636 0.6762,2.077788 0.71803,0.919933 2.47102,1.186354 3.54587,1.005384 3.22508,-0.542052 2.42663,-5.852252 2.31687,-8.11014 -0.25724,-5.288989 -1.81578,-10.422548 -0.30585,-15.683217 0.63935,-2.226079 1.87443,-4.729338 4.12268,-5.696231 2.02945,-0.873843 4.077216,0.19521 4.880846,2.177498 1.3012,3.209721 0.97611,6.915235 1.79225,10.254767 0.27735,1.135244 0.58236,2.259578 1.09433,3.317862 0.14831,0.305791 0.35278,0.941704 0.78261,0.903154 1.04491,-0.0955 2.53054,-1.838997 3.31393,-2.48579 2.53055,-2.091197 5.13055,-4.330525 8.04418,-5.878151 1.37085,-0.728063 3.6266,-1.906857 5.02663,-0.668572 0.35688,0.315851 0.64429,0.692872 0.89985,1.092494 1.64567,2.577959 0.0117,4.586256 -1.05823,7.037525 -1.38509,3.172672 -2.80443,6.313713 -4.81126,9.149024 -1.72528,2.438039 -4.08323,4.575416 -5.46158,7.238736 -0.88737,1.715006 -1.38928,3.594363 -1.02226,5.52965 0.29747,1.565046 1.5108,2.5101 3.10701,2.143128 1.19488,-0.274801 2.00433,-1.298615 2.68555,-2.243668 1.21416,-1.685676 2.34199,-3.435023 3.54858,-5.127539 2.33445,-3.273272 5.08868,-6.333893 7.05198,-9.852656 2.3663,-4.241975 3.50762,-9.041793 3.50491,-13.87354 -0.002,-3.948595 -1.43359,-9.983377 -6.03298,-10.81111 -0.8655,-0.155001 -1.85517,-0.0704 -2.71489,0.0796 -1.06827,0.186001 -2.14081,0.533692 -3.11694,1.006234 -2.61516,1.265085 -4.87663,3.154292 -6.81976,5.302539 -1.21237,1.338825 -2.29833,3.022971 -3.73713,4.122095"/>
<path d="m 103.64952,-179.86484 c -3.62659,0.47672 -7.313426,0.42729 -10.958096,0.99029 -6.9833,1.07828 -13.67083,3.24737 -20.21074,5.864 -2.38139,0.95244 -4.73085,2.01391 -7.03843,3.13081 -0.85876,0.41567 -2.16858,0.74821 -2.85905,1.41509 -0.35938,0.3476 -0.32251,1.16208 -0.36616,1.62685 -0.12141,1.30786 -0.28482,2.61422 -0.41142,3.92118 -0.48844,5.0435 -0.83282,10.23971 -0.11055,15.2802 0.23378,1.62871 0.7399,4.58294 2.7417,4.89531 3.07839,0.48175 5.47002,-3.30612 6.9806,-5.39803 3.5284,-4.88506 7.54295,-9.43367 13.32985,-11.61777 6.81161,-2.57145 14.61301,-3.17718 21.818016,-3.67147 20.22007,-1.38576 42.31731,2.30735 57.21226,17.20042 2.11827,2.11801 4.1233,4.36578 5.82846,6.83663 6.66914,9.65656 10.19573,20.63695 11.89427,32.16946 0.79854,5.4149 1.34404,10.894259 0.10893,16.286258 -2.14343,9.355055 -7.76345,17.497734 -14.22113,24.42983 -4.42,4.744697 -9.39392,9.033363 -14.57055,12.931647 -2.89002,2.175808 -6.13118,4.021485 -8.84842,6.400163 -3.12959,2.73964 -5.73297,6.167923 -7.71133,9.823436 -5.32423,9.842716 -6.75198,21.68608 -5.18597,32.6724998 0.32091,2.2520482 0.61086,4.51487646 1.12114,6.7360146 0.1525,0.6643824 0.17932,1.8063366 0.60917,2.3492386 0.80441,1.0154537 2.99977,1.5742558 4.22903,1.633746 1.28201,0.062 2.13501,-0.9232734 2.44924,-2.0727576 0.53794,-1.9696872 0.21619,-4.15130521 -0.0955,-6.1326824 -0.63852,-4.0582349 -1.22338,-8.14539 -1.04238,-12.264765 0.3335,-7.606518 3.27448,-14.694344 8.5469,-20.207434 5.36188,-5.60676 12.60393,-8.839672 18.69745,-13.536479 12.28074,-9.465595 23.28252,-22.236401 27.50732,-37.434667 1.50995,-5.43478 2.01017,-11.193951 1.32058,-16.788978 -0.87145,-7.07698 -3.45974,-14.14584 -5.89804,-20.81046 -7.43091,-20.31075 -20.18123,-39.63051 -40.42571,-48.9229 -8.03333,-3.68835 -16.43716,-5.36731 -25.13617,-6.57879 -4.08143,-0.56811 -8.15984,-0.91664 -12.26537,-1.09677 -2.28319,-0.0997 -4.76518,-0.35272 -7.03933,-0.0536"/>
<path d="m 71.977054,-48.365846 c -3.94589,0.564682 -5.0929,3.727494 -4.36397,7.295657 0.93347,4.566076 4.52482,8.048999 8.08334,10.791839 9.1174,7.027586 20.89359,10.82617 32.374296,10.323448 4.48023,-0.196051 9.36138,-0.936683 13.47293,-2.83769 2.20457,-1.018794 4.51065,-4.689278 1.50826,-6.260093 -0.41143,-0.215321 -0.94931,-0.348532 -1.40772,-0.423932 -1.31126,-0.214481 -2.77941,0.343501 -4.02208,0.700413 -2.19117,0.629202 -4.38054,1.273464 -6.63632,1.635396 -6.73932,1.082474 -14.026846,-0.457442 -19.606506,-4.450407 -4.51307,-3.229001 -8.16135,-7.488137 -11.60541,-11.792463 -2.10818,-2.632599 -4.01366,-5.52423 -7.8026,-4.982048"/>
<path d="m 66.848914,-26.049024 c -1.00382,0.13237 -2.15515,0.0947 -3.01483,0.725552 -1.79315,1.316215 0.18183,3.963655 1.12532,5.163389 2.73573,3.475983 6.33812,6.361603 9.93278,8.905033 10.02164,7.0887357 21.37373,11.17829058 33.582156,12.01506364 3.51004,0.24045086 7.08542,-0.009 10.55689,-0.58730215 1.26938,-0.21197077 2.84893,-0.30748112 4.0221,-0.85541312 3.31966,-1.55248567 2.3595,-7.82338857 -0.60331,-9.21770367 -1.29376,-0.6082627 -3.36936,0.1952107 -4.72601,0.3837114 -3.20853,0.4473916 -6.42607,0.4926418 -9.65296,0.4138715 -8.457136,-0.2069407 -17.466386,-2.8117006 -24.835256,-6.9221656 -2.89669,-1.616996 -5.55706,-3.584123 -8.04417,-5.773331 -1.51245,-1.331305 -3.06604,-3.509733 -5.02754,-4.182335 -0.91333,-0.313351 -2.36807,-0.194371 -3.31815,-0.0695"/>
<path d="m 68.859814,-7.2473556 c -1.42941,0.1600206 -2.507,0.9056833 -3.44708,1.9663472 -0.64773,0.7305527 -1.26274,1.3907851 -1.6348,2.3123784 -2.05123,5.0739186 3.41695,9.8634961 7.19356,12.2596349 4.20281,2.6659401 8.79479,4.6422871 13.47291,6.3070931 10.55117,3.755214 22.926476,6.158882 33.883376,2.80166 3.25701,-0.997013 6.47637,-2.8201 8.8442,-5.284169 1.33389,-1.388255 2.24976,-3.4904429 -0.19691,-4.3793262 -1.44962,-0.5261519 -3.21002,0.813513 -4.52482,1.3430152 -3.10369,1.251694 -6.32124,2.201778 -9.65294,2.604769 -4.38807,0.532002 -8.33907,-0.433991 -12.56809,-1.492145 -3.612436,-0.903153 -7.265536,-1.8063468 -10.758096,-3.1082116 -2.97965,-1.110934 -5.9393,-2.4305088 -8.5466,-4.2754056 -0.77926,-0.551282 -1.71272,-1.0422538 -2.3512,-1.7602564 -2.08728,-2.34840864 -3.65581,-5.0965187 -5.89382,-7.3300068 -0.96695,-0.9651735 -2.34109,-2.1314078 -3.82088,-1.9663372"/>
</g>
</svg>
