<svg xmlns="http://www.w3.org/2000/svg" viewBox="0 0 48 48" xmlns:xlink="http://www.w3.org/1999/xlink">
<defs>
<linearGradient id="linearGradient3795">
<stop offset="0" style="stop-color:#c27237"/>
<stop offset="1" style="stop-color:#e6a939"/>
</linearGradient>
<linearGradient gradientTransform="translate(0 -2056.7244)" xlink:href="#linearGradient3795" id="linearGradient3801" y1="1004.191" y2="1052.836" x2="0" gradientUnits="userSpaceOnUse"/>
</defs>
<g transform="translate(0 -1004.3622)">
<rect width="48" x="0" y="-1052.362" rx="1.945" height="48" style="fill:url(#linearGradient3801)" transform="scale(1 -1)"/>
<path style="opacity:.15;fill:#fff" d="M 0 0 L 0 48 L 16.78125 48 L 29.625 0 L 0 0 z " transform="translate(0 1004.3622)"/>
<rect width="25" x="11.5" y="1010.471" height="25" style="fill:none"/>
</g>
<g style="fill:#fff;stroke:#fff;stroke-width:.701" transform="matrix(.74327 0 0 .74327 6.2704 -740.34594)">
<rect width="4.602" x="2.752" y="1022.748" rx="1.104" height="11.229"/>
<path style="stroke-linejoin:round;stroke-linecap:round;stroke-width:.511" d="m 6.8938942,1023.2662 13.6215408,-11.7859 0,14.9433 1.656675,2.4228 -1.656675,1.8175 0,14.5802 -13.6727209,-11.3792 z"/>
</g>
<g transform="matrix(1.42707 0 0 1.42707 -10.7289 -1435.84985)">
<path style="fill:#fff" d="m 30.78613,1016.6165 c -1.974321,3.4196 -5.016995,7.5012 -4.438439,9.6604 2.59614,3.9651 6.19924,4.1606 9.073747,0 0.671283,-2.5053 -2.692195,-6.2948 -4.635308,-9.6604 z"/>
</g>
</svg>
