<?xml version="1.0" encoding="UTF-8" standalone="no"?>
<!-- Generator: Adobe Illustrator 15.1.0, SVG Export Plug-In . SVG Version: 6.00 Build 0)  -->

<svg
   xmlns:dc="http://purl.org/dc/elements/1.1/"
   xmlns:cc="http://creativecommons.org/ns#"
   xmlns:rdf="http://www.w3.org/1999/02/22-rdf-syntax-ns#"
   xmlns:svg="http://www.w3.org/2000/svg"
   xmlns="http://www.w3.org/2000/svg"
   xmlns:sodipodi="http://sodipodi.sourceforge.net/DTD/sodipodi-0.dtd"
   xmlns:inkscape="http://www.inkscape.org/namespaces/inkscape"
   version="1.1"
   id="Layer_1"
   x="0px"
   y="0px"
   width="16"
   height="16"
   viewBox="0 0 16 16"
   enable-background="new 0 0 24 24"
   xml:space="preserve"
   inkscape:version="0.91 r"
   sodipodi:docname="copy-sync3.svg"><metadata
     id="metadata29"><rdf:RDF><cc:Work
         rdf:about=""><dc:format>image/svg+xml</dc:format><dc:type
           rdf:resource="http://purl.org/dc/dcmitype/StillImage" /><dc:title /></cc:Work></rdf:RDF></metadata><defs
     id="defs27" /><sodipodi:namedview
     pagecolor="#ffffff"
     bordercolor="#666666"
     borderopacity="1"
     objecttolerance="10"
     gridtolerance="10"
     guidetolerance="10"
     inkscape:pageopacity="0"
     inkscape:pageshadow="2"
     inkscape:window-width="1366"
     inkscape:window-height="747"
     id="namedview25"
     showgrid="false"
     inkscape:zoom="3.4766084"
     inkscape:cx="-33.168818"
     inkscape:cy="3.5366853"
     inkscape:window-x="0"
     inkscape:window-y="21"
     inkscape:window-maximized="1"
     inkscape:current-layer="Layer_1" /><polygon
     points="16.033,8.347 22.172,0.866 22.76,1.286 18.162,10.28 "
     id="polygon17"
     style="opacity:0.4;fill:#353535;fill-opacity:1"
     transform="matrix(0.64210641,0,0,0.64213625,0.29472305,0.53484503)" /><path
     style="fill:#353535;fill-opacity:1"
     d="m 3.6818345,7.136006 -2.5908994,0.863673 0,-0.863673 2.5908994,-2.2481194 0.862991,0.5201304 2.9883636,7.351176 -2.1240884,1.285557 z"
     id="polygon19"
     inkscape:connector-curvature="0" /><polyline
     points="22.76,22.08 18.725,12.97 17.379,11.625 10.359,17.238 11.273,19.037 22.354,22.385     22.723,22.385   "
     id="polyline21"
     style="opacity:0.4;fill:#353535;fill-opacity:1"
     transform="matrix(0.64210641,0,0,0.64213625,0.29472305,0.53484503)" /><path
     d="M 7.6397781,9.726383 6.2907128,7.136006 8.0000001,6.2723324 c 0.862991,0 2.5896149,0.8636736 2.5896149,0.8636736 L 7.6397781,9.726383 Z"
     id="path23"
     inkscape:connector-curvature="0"
     style="opacity:0.4;fill:#353535;fill-opacity:1" /></svg>