<?xml version="1.0" encoding="UTF-8" standalone="no"?>
<svg
   xmlns:dc="http://purl.org/dc/elements/1.1/"
   xmlns:cc="http://creativecommons.org/ns#"
   xmlns:rdf="http://www.w3.org/1999/02/22-rdf-syntax-ns#"
   xmlns:svg="http://www.w3.org/2000/svg"
   xmlns="http://www.w3.org/2000/svg"
   xmlns:sodipodi="http://sodipodi.sourceforge.net/DTD/sodipodi-0.dtd"
   xmlns:inkscape="http://www.inkscape.org/namespaces/inkscape"
   width="128"
   height="128"
   viewBox="0 0 128 128"
   id="svg2"
   version="1.1"
   inkscape:version="0.91 r13725"
   sodipodi:docname="appointment-soon.svg">
  <metadata
     id="metadata14">
    <rdf:RDF>
      <cc:Work
         rdf:about="">
        <dc:format>image/svg+xml</dc:format>
        <dc:type
           rdf:resource="http://purl.org/dc/dcmitype/StillImage" />
        <dc:title></dc:title>
      </cc:Work>
    </rdf:RDF>
  </metadata>
  <defs
     id="defs12" />
  <sodipodi:namedview
     pagecolor="#ffffff"
     bordercolor="#666666"
     borderopacity="1"
     objecttolerance="10"
     gridtolerance="10"
     guidetolerance="10"
     inkscape:pageopacity="0"
     inkscape:pageshadow="2"
     inkscape:window-width="1366"
     inkscape:window-height="704"
     id="namedview10"
     showgrid="false"
     inkscape:zoom="3.6875"
     inkscape:cx="-6.9198026"
     inkscape:cy="20.610169"
     inkscape:window-x="0"
     inkscape:window-y="27"
     inkscape:window-maximized="1"
     inkscape:current-layer="svg2" />
  <path
     style="fill:#ffffff;fill-rule:evenodd"
     d="M 124,64 C 124,97.13843 97.138428,124 64,124 30.861572,124 4,97.13843 4,64 4,30.861572 30.861572,4 64,4 c 33.138428,0 60,26.861572 60,60 z"
     id="path4"
     inkscape:connector-curvature="0" />
  <path
     style="fill:#268bd2"
     d="M 63.898438 22.300781 C 60.375 22.351562 57.550781 25.273438 57.601562 28.800781 L 57.601562 64 C 57.601562 65.5 58.125 66.949219 59.101562 68.101562 L 75.101562 87.300781 C 76.523438 89.226562 78.875 90.175781 81.226562 89.824219 C 83.574219 89.449219 85.523438 87.824219 86.300781 85.574219 C 87.074219 83.324219 86.523438 80.824219 84.898438 79.101562 L 70.398438 61.699219 L 70.398438 28.800781 C 70.425781 27.074219 69.75 25.398438 68.523438 24.175781 C 67.300781 22.949219 65.625 22.273438 63.898438 22.300781 Z "
     id="path6" />
  <path
     style="fill:#aaa"
     d="M 64 0 C 28.726562 0 0 28.726562 0 64 C 0 99.273438 28.726562 128 64 128 C 99.273438 128 128 99.273438 128 64 C 128 28.726562 99.273438 0 64 0 Z M 64 12.800781 C 92.351562 12.800781 115.199219 35.648438 115.199219 64 C 115.199219 92.351562 92.351562 115.199219 64 115.199219 C 35.648438 115.199219 12.800781 92.351562 12.800781 64 C 12.800781 35.648438 35.648438 12.800781 64 12.800781 Z "
     id="path8" />
  <path
     inkscape:connector-curvature="0"
     style="fill:#dc322f;fill-opacity:1;fill-rule:evenodd"
     d="m 64,96.003837 a 32,32 0 0 1 -63.99999977,0 32,32 0 1 1 63.99999977,0 z"
     id="path4191" />
  <g
     transform="translate(-64,0.00383627)"
     id="g4193">
    <path
       inkscape:connector-curvature="0"
       style="line-height:125%;letter-spacing:0;word-spacing:0;fill:#ffffff;fill-opacity:0.9"
       d="m 91,74.999999 10,0 L 101,103 91,103 91,74.999999"
       id="path4195" />
    <path
       inkscape:connector-curvature="0"
       style="fill:#ffffff;fill-opacity:0.9;fill-rule:evenodd"
       d="m 91.000002,112.00002 c 0,-2.76141 2.238578,-4.99998 4.999999,-4.99998 2.761425,0 4.999999,2.23857 4.999999,4.99998 0,2.76141 -2.238574,4.99998 -4.999999,4.99998 -2.761421,0 -4.999999,-2.23857 -4.999999,-4.99998 z"
       id="path4199" />
  </g>
</svg>
