<?xml version="1.0" encoding="UTF-8" standalone="no"?>
<svg
   xmlns:dc="http://purl.org/dc/elements/1.1/"
   xmlns:cc="http://creativecommons.org/ns#"
   xmlns:rdf="http://www.w3.org/1999/02/22-rdf-syntax-ns#"
   xmlns:svg="http://www.w3.org/2000/svg"
   xmlns="http://www.w3.org/2000/svg"
   xmlns:sodipodi="http://sodipodi.sourceforge.net/DTD/sodipodi-0.dtd"
   xmlns:inkscape="http://www.inkscape.org/namespaces/inkscape"
   width="128"
   height="128"
   viewBox="0 0 128 128"
   id="svg2"
   version="1.1"
   inkscape:version="0.91 r13725"
   sodipodi:docname="semi-starred-rtl.svg">
  <metadata
     id="metadata18">
    <rdf:RDF>
      <cc:Work
         rdf:about="">
        <dc:format>image/svg+xml</dc:format>
        <dc:type
           rdf:resource="http://purl.org/dc/dcmitype/StillImage" />
        <dc:title></dc:title>
      </cc:Work>
    </rdf:RDF>
  </metadata>
  <defs
     id="defs16" />
  <sodipodi:namedview
     pagecolor="#ffffff"
     bordercolor="#666666"
     borderopacity="1"
     objecttolerance="10"
     gridtolerance="10"
     guidetolerance="10"
     inkscape:pageopacity="0"
     inkscape:pageshadow="2"
     inkscape:window-width="1366"
     inkscape:window-height="704"
     id="namedview14"
     showgrid="true"
     inkscape:zoom="5.2149126"
     inkscape:cx="32.669621"
     inkscape:cy="70.914384"
     inkscape:window-x="0"
     inkscape:window-y="27"
     inkscape:window-maximized="1"
     inkscape:current-layer="svg2">
    <inkscape:grid
       type="xygrid"
       id="grid2995" />
  </sodipodi:namedview>
  <path
     style="color:#000000;fill:#dfdd41;fill-opacity:1"
     d="m 63.998728,6.0136719 c 8.304048,0.284118 13.007004,29.4678191 19.777344,34.3066401 6.804613,4.863318 36.420728,-0.103395 39.042968,7.800782 2.62324,7.907183 -24.167129,21.45313 -26.726562,29.380859 -2.558428,7.924572 11.218332,34.342617 4.453122,39.259767 -6.767887,4.91907 -28.03085,-16.15351 -36.419919,-16.11914 -0.04046,1.6e-4 -0.08591,0.009 -0.126953,0.01 -4.88802,-31.170221 -8.222082,-62.459978 0,-94.6386681 z"
     id="path6"
     inkscape:connector-curvature="0"
     sodipodi:nodetypes="cssssccc" />
  <path
     style="opacity:1;fill:#808080;fill-opacity:1;stroke:none;stroke-width:0.5;stroke-linecap:round;stroke-linejoin:round;stroke-miterlimit:4;stroke-dasharray:none;stroke-opacity:1"
     d="m 63.863962,6 c 0.04554,-1.807e-4 0.08944,0.012121 0.134766,0.013672 l 0,94.6386681 c -8.465563,0.23779 -29.262663,21.47246 -36.0332,16.63086 -6.80604,-4.86697 6.818693,-31.614968 4.193356,-39.521481 C 29.534634,69.858365 2.610078,56.564531 5.170608,48.640625 7.732128,40.713561 37.445073,45.500891 44.211619,40.580078 50.975567,35.661181 55.478158,6.0321999 63.863962,6 Z"
     id="rect4136"
     inkscape:connector-curvature="0" />
</svg>
