<svg xmlns="http://www.w3.org/2000/svg" viewBox="0 0 48 48">
 <path d="m32.591 11.198l-.862 4.164c-.099.443-.517.838-1.035.838h-7.49c-.838 0-1.528.69-1.528 1.528v.912c0 .838.69 1.528 1.528 1.528h6.332c.591 0 1.084.567.961 1.183-.123.641-.788 3.893-.862 4.238-.049.37-.443.838-1.035.838h-5.174c-1.084.025-1.306.049-1.946.838-.641.788-6.307 7.884-6.307 7.884-.049.074-.099.049-.099-.025v-24.12c0-.567.468-1.035 1.035-1.035h15.546c.542 0 1.084.542.936 1.232M33.724 6c0 0-16.532 0-19.19 0-2.636 0-3.425 1.996-3.425 3.252v30.501c0 1.503.764 1.946 1.183 2.119.419.172 1.528.296 2.316-.493 0 0 9.116-10.619 9.264-10.791.148-.172.222-.172.32-.172.099 0 3.868 0 5.765 0 2.464 0 2.932-1.7 3.203-2.735.222-.862 2.759-13.181 3.548-17.07.591-3.01-.172-4.607-2.981-4.607" fill="#fa4778"/>
</svg>
