<svg xmlns="http://www.w3.org/2000/svg" viewBox="0 0 48 48">
 <path d="m 39 17 -6 3 0 8 6 3 z" style="fill:#cf8c3b"/>
 <path d="m 24 32.08 -7 -4.04 0 -8.08 7 -4.04 7 4.04 0 8.08 z" style="fill:#f8c100"/>
 <path d="m 9 17 6 3 0 8 -6 3 z" style="fill:#363dbe"/>
 <path d="m 37.562 33.49 -5.598 -3.696 -6.928 4 0.402 6.696 z" style="fill:#9d2c34"/>
 <path d="m 22.562 7.51 0.402 6.696 -6.928 4 -5.598 -3.696 z" style="fill:#3695ba"/>
 <path d="m 22.562 40.49 0.402 -6.696 -6.928 -4 -5.598 3.696 z" style="fill:#b93780"/>
 <path d="m 37.562 14.51 -5.598 3.696 -6.928 -4 0.402 -6.696 z" style="fill:#8eb335"/>
</svg>
