<svg width="47.5" xmlns="http://www.w3.org/2000/svg" height="47.5" viewBox="0 0 38 38" xmlns:xlink="http://www.w3.org/1999/xlink">
<g style="stroke:#a57855">
<g style="fill:#a57855;fill-rule:evenodd;stroke-linejoin:round">
<path style="stroke-width:5.418" d="M 30.710526 148.184211 C 69 147.657895 84.5 142.947368 96.263158 139.315789 C 108.026316 135.657895 125.473684 127.815789 125.473684 127.815789 L 169.473684 217.657895 L 30.710526 217.657895 Z " transform="scale(.14844)"/>
<path style="stroke-width:6.123" d="M 157.289474 182.078947 C 157.289474 182.078947 137.526316 193.052632 131.842105 195.815789 C 123.973684 199.631579 110.421053 209.921053 86.684211 217.289474 L 31.052632 217.289474 L 31.052632 173.394737 C 63.184211 172.394737 86.342105 171.394737 100.736842 165.368421 C 115.105263 159.342105 142.210526 145.289474 142.210526 145.289474 Z " transform="scale(.14844)"/>
<path style="stroke-width:5.418" d="M 132.526316 142.184211 C 153.368421 121.289474 147.315789 115.026316 168.473684 113.210526 C 189.631579 111.394737 225.289474 127.289474 225.289474 127.289474 L 225.289474 217.605263 L 169.473684 217.605263 Z " transform="scale(.14844)"/>
<path style="stroke-width:6.123" d="M 224.605263 184.105263 C 224.605263 184.105263 219.631579 181.473684 213.157895 178.736842 C 206.789474 176.078947 201.657895 174.763158 190.078947 178.078947 C 182.236842 180.315789 175.710526 185.289474 162.342105 195.342105 L 145.236842 152.315789 C 158.526316 140.342105 169 131.894737 182.368421 130.894737 C 195.763158 129.894737 206.789474 132.236842 213.5 135.578947 C 220.184211 138.921053 223.947368 141.263158 223.947368 141.263158 Z " transform="scale(.14844)"/>
</g>
<g>
<path style="fill:none;stroke-linecap:round;stroke-width:8.073" d="M 34.394737 32.026316 L 221.605263 32.026316 C 222.921053 32.026316 223.973684 33.078947 223.973684 34.394737 L 223.973684 221.605263 C 223.973684 222.921053 222.921053 223.973684 221.605263 223.973684 L 34.394737 223.973684 C 33.078947 223.973684 32.026316 222.921053 32.026316 221.605263 L 32.026316 34.394737 C 32.026316 33.078947 33.078947 32.026316 34.394737 32.026316 Z " transform="scale(.14844)"/>
</g>
</g>
</svg>
