<?xml version="1.0" encoding="UTF-8" standalone="no"?>
<!-- Created with Inkscape (http://www.inkscape.org/) -->

<svg
   xmlns:dc="http://purl.org/dc/elements/1.1/"
   xmlns:cc="http://creativecommons.org/ns#"
   xmlns:rdf="http://www.w3.org/1999/02/22-rdf-syntax-ns#"
   xmlns:svg="http://www.w3.org/2000/svg"
   xmlns="http://www.w3.org/2000/svg"
   xmlns:xlink="http://www.w3.org/1999/xlink"
   xmlns:sodipodi="http://sodipodi.sourceforge.net/DTD/sodipodi-0.dtd"
   xmlns:inkscape="http://www.inkscape.org/namespaces/inkscape"
   width="22"
   height="22"
   id="svg2"
   version="1.1"
   inkscape:version="0.48.5 r10040"
   sodipodi:docname="network.svg"
   inkscape:export-filename="/media/Data/Main/Visuals/Icons/Numix/Desktop/repos/numix-wiki/Gjorgi/Numix-folders/48/New/folder-144.png"
   inkscape:export-xdpi="270"
   inkscape:export-ydpi="270">
  <defs
     id="defs4">
    <radialGradient
       inkscape:collect="always"
       xlink:href="#linearGradient3760"
       id="radialGradient3766"
       cx="11"
       cy="19"
       fx="11"
       fy="19"
       r="11"
       gradientTransform="matrix(1,0,0,0.09090909,0,17.272727)"
       gradientUnits="userSpaceOnUse" />
    <linearGradient
       inkscape:collect="always"
       id="linearGradient3760">
      <stop
         style="stop-color:#000000;stop-opacity:1;"
         offset="0"
         id="stop3762" />
      <stop
         style="stop-color:#000000;stop-opacity:0;"
         offset="1"
         id="stop3764" />
    </linearGradient>
    <radialGradient
       r="11"
       fy="19"
       fx="11"
       cy="19"
       cx="11"
       gradientTransform="matrix(1,0,0,0.09090909,0,17.272727)"
       gradientUnits="userSpaceOnUse"
       id="radialGradient3783"
       xlink:href="#linearGradient3760"
       inkscape:collect="always" />
  </defs>
  <sodipodi:namedview
     id="base"
     pagecolor="#ffffff"
     bordercolor="#666666"
     borderopacity="1.0"
     inkscape:pageopacity="0.0"
     inkscape:pageshadow="2"
     inkscape:zoom="45.206341"
     inkscape:cx="6.1819328"
     inkscape:cy="9.0688981"
     inkscape:document-units="px"
     inkscape:current-layer="layer1"
     showgrid="true"
     inkscape:window-width="1920"
     inkscape:window-height="1052"
     inkscape:window-x="0"
     inkscape:window-y="28"
     inkscape:window-maximized="1"
     showguides="true"
     inkscape:guide-bbox="true">
    <inkscape:grid
       type="xygrid"
       id="grid2985"
       empspacing="5"
       visible="true"
       enabled="true"
       snapvisiblegridlinesonly="true" />
  </sodipodi:namedview>
  <metadata
     id="metadata7">
    <rdf:RDF>
      <cc:Work
         rdf:about="">
        <dc:format>image/svg+xml</dc:format>
        <dc:type
           rdf:resource="http://purl.org/dc/dcmitype/StillImage" />
        <dc:title></dc:title>
      </cc:Work>
    </rdf:RDF>
  </metadata>
  <g
     inkscape:label="Layer 1"
     inkscape:groupmode="layer"
     id="layer1"
     transform="translate(0,-1030.3622)">
    <path
       sodipodi:type="arc"
       style="opacity:0.25;fill:url(#radialGradient3783);fill-opacity:1;stroke:none"
       id="path2990"
       sodipodi:cx="11"
       sodipodi:cy="19"
       sodipodi:rx="11"
       sodipodi:ry="1"
       d="m 22,19 c 0,0.552285 -4.924868,1 -11,1 -6.0751322,0 -11,-0.447715 -11,-1 0,-0.552285 4.9248678,-1 11,-1 6.075132,0 11,0.447715 11,1 z"
       transform="matrix(1.1818182,0,0,1,-2,1031.3622)" />
    <path
       sodipodi:nodetypes="ccccccccc"
       inkscape:connector-curvature="0"
       id="path3029"
       d="m 0,1033.3622 0,14 22,0 0,-7 -1,-6 -8,0 -1,-2 -11,0 c -0.5,0 -1,0.5 -1,1 z"
       style="fill:#ef6c00;fill-opacity:1;stroke:none" />
    <path
       style="opacity:0.02999998;fill:#000000;fill-opacity:1;stroke:none"
       d="m 1,1032.3622 c -0.5,0 -1,0.5 -1,1 l 0,1 c 0,-0.5 0.5,-1 1,-1 l 10,0 1,2 9,0 0,6 0,-1 0,-6 -8,0 -1,-2 z"
       id="path3806"
       inkscape:connector-curvature="0"
       sodipodi:nodetypes="sscsccccccccs" />
    <rect
       style="fill:#fffdf0;fill-opacity:1;stroke:none"
       id="rect3799"
       width="10"
       height="3.9999914"
       x="2"
       y="1035.3622" />
    <path
       style="fill:#ffa726;fill-opacity:1;stroke:none"
       d="m 22,1035.4289 0,14.9333 -22,0 0,-14 11,0 1,-2 9,0 c 0.5,0 1,0.5333 1,1.0667 z"
       id="rect2987"
       inkscape:connector-curvature="0"
       sodipodi:nodetypes="cccccccc" />
    <path
       sodipodi:nodetypes="ccccc"
       id="path3794"
       d="m 0,1049.3622 0,1 22,0 0,-1 z"
       style="opacity:0.15;fill:#000000;fill-opacity:1;stroke:none"
       inkscape:connector-curvature="0" />
    <path
       style="fill:none;stroke:none"
       d="m 11,1034.8622 -2.5,1.5 1.5,0 z"
       id="path3801"
       inkscape:connector-curvature="0" />
    <path
       style="opacity:0.02999998;fill:#000000;fill-opacity:1;stroke:none"
       d="m 12,1034.3622 -1,2 -11,0 0,1 12,0 1,-2 8,0 c 0.5,0 1,0.5 1,1 l 0,-1 c 0,-0.5 -0.5,-1 -1,-1 z"
       id="path3033"
       inkscape:connector-curvature="0"
       sodipodi:nodetypes="ccccccscssc" />
    <path
       style="line-height:normal;opacity:1.0;color:#000000;fill:#b17621;fill-opacity:1"
       id="path3974"
       d="m 14.874126,1038.3622 c -0.444165,0.01 -0.881119,0.2723 -0.951049,0.7673 -0.111888,0.7921 0.727273,0.4951 1.398602,0.4951 0.671328,0 0.895104,1.2871 0.727272,1.9802 -0.167833,0.693 -1.95221,2.3302 -5.986014,0.693 -3.321097,-1.3477 -4.979258,0.4469 -5.062937,0.4828 0.314303,2.6776 2.876874,5.5816 5.986014,5.5816 3.321433,0 6.013986,-3.1995 6.013986,-6.1386 0,-0.3376 -0.04397,-0.67 -0.111888,-0.9901 -0.06175,-0.1617 -0.122491,-0.3231 -0.167832,-0.4703 -0.08128,-0.2637 -0.17306,-0.4862 -0.251749,-0.6931 -0.0034,-0.01 0.0035,-0.018 0,-0.024 -0.317939,-0.6249 -0.763704,-1.1897 -1.314684,-1.6585 -0.0025,-0.01 -0.01151,0.01 -0.01399,0 -0.0861,-0.019 -0.176902,-0.026 -0.265734,-0.024 z"
       inkscape:connector-curvature="0" />
    <path
       style="line-height:normal;opacity:1.0;color:#000000;fill:#b17621;fill-opacity:1"
       id="path3976"
       d="m 14,1041.3622 c 0,0.5523 -0.447715,0.9999 -1,0.9999 -0.552285,0 -1,-0.4476 -1,-0.9999 0,-0.5523 0.447715,-1.0001 1,-1.0001 0.552285,0 1,0.4478 1,1.0001 z"
       inkscape:connector-curvature="0" />
    <path
       style="line-height:normal;opacity:1.0;color:#000000;fill:#b17621;fill-opacity:1"
       id="path3978"
       d="m 11,1038.8621 c 0,0.2762 -0.223858,0.5 -0.5,0.5 -0.276142,0 -0.5,-0.2238 -0.5,-0.5 0,-0.2762 0.223858,-0.5 0.5,-0.5 0.276142,0 0.5,0.2238 0.5,0.5 z"
       inkscape:connector-curvature="0" />
  </g>
</svg>
