<svg width="22" xmlns="http://www.w3.org/2000/svg" height="22" viewBox="0 0 22 22" xmlns:xlink="http://www.w3.org/1999/xlink">
<g style="fill:#f8f8f8;stroke:#757575;stroke-width:.8">
<path d="M 10.378698 18.861075 C 9.887789 18.895165 9.451425 19.126984 9.17188 19.522438 L 3.690062 26.558802 C 3.690062 26.558802 3.676425 26.572438 3.662789 26.586075 L 3.54688 26.756529 C 3.512789 26.797438 3.492335 26.817893 3.47188 26.86562 C 3.430971 26.906529 3.39688 26.967893 3.362789 27.036075 C 3.362789 27.049711 3.349153 27.070165 3.342335 27.083802 C 3.301425 27.16562 3.280971 27.247438 3.267335 27.336075 C 3.260516 27.383802 3.24688 27.431529 3.24688 27.492893 C 3.233244 27.533802 3.212789 27.581529 3.212789 27.642893 C 3.212789 27.642893 3.212789 27.649711 3.212789 27.663347 C 3.212789 27.670165 3.212789 27.670165 3.212789 27.683802 C 3.212789 27.779256 3.212789 27.874711 3.212789 27.963347 L 3.212789 31.004256 C 3.212789 31.870165 3.908244 32.558802 4.774153 32.558802 L 33.819607 32.558802 C 34.685516 32.558802 35.380971 31.870165 35.380971 31.004256 L 35.380971 27.881529 C 35.380971 27.826984 35.380971 27.758802 35.380971 27.683802 C 35.380971 27.642893 35.380971 27.608802 35.380971 27.561075 C 35.374153 27.499711 35.374153 27.445165 35.34688 27.383802 C 35.34688 27.336075 35.312789 27.281529 35.299153 27.233802 C 35.244607 27.063347 35.162789 26.899711 35.040062 26.756529 L 34.930971 26.586075 C 34.917335 26.572438 34.903698 26.558802 34.903698 26.558802 L 29.42188 19.522438 C 29.094607 19.086075 28.562789 18.826984 28.017335 18.861075 C 27.417335 18.908802 26.878698 19.270165 26.640062 19.822438 C 26.394607 20.367893 26.490062 21.008802 26.858244 21.479256 L 30.478698 26.136075 L 8.115062 26.136075 L 11.735516 21.479256 C 12.130971 20.981529 12.199153 20.299711 11.912789 19.733802 C 11.619607 19.161075 11.012789 18.826984 10.378698 18.861075 Z " transform="matrix(.57292 0 0 .57292 -.0555 -.05192)"/>
<path d="M 20.912789 11.661075 C 20.912789 12.54062 20.190062 13.256529 19.29688 13.256529 C 18.403698 13.256529 17.680971 12.54062 17.680971 11.661075 C 17.680971 10.767893 18.403698 10.045165 19.29688 10.045165 C 20.190062 10.045165 20.912789 10.767893 20.912789 11.661075 Z " transform="matrix(.57292 0 0 .57292 -.0555 -.05192)"/>
<path d="M 20.912789 7.631529 C 20.912789 8.531529 20.190062 9.247438 19.29688 9.247438 C 18.403698 9.247438 17.680971 8.531529 17.680971 7.631529 C 17.680971 6.745165 18.403698 6.022438 19.29688 6.022438 C 20.190062 6.022438 20.912789 6.745165 20.912789 7.631529 Z " transform="matrix(.57292 0 0 .57292 -.0555 -.05192)"/>
<path d="M 14.449153 13.236075 C 13.801425 13.249711 13.208244 13.645165 12.962789 14.245165 C 12.724153 14.858802 12.874153 15.547438 13.337789 16.011075 L 18.158244 20.831529 C 18.799153 21.445165 19.794607 21.445165 20.435516 20.831529 L 25.255971 16.011075 C 25.733244 15.61562 25.951425 14.988347 25.815062 14.381529 C 25.678698 13.795165 25.201425 13.317893 24.608244 13.181529 C 24.001425 13.038347 23.380971 13.256529 22.985516 13.733802 L 19.29688 17.436075 L 15.608244 13.733802 C 15.308244 13.420165 14.892335 13.236075 14.449153 13.236075 Z " transform="matrix(.57292 0 0 .57292 -.0555 -.05192)"/>
</g>
</svg>
