<?xml version="1.0" encoding="UTF-8" standalone="no"?>
<svg
   xmlns:dc="http://purl.org/dc/elements/1.1/"
   xmlns:cc="http://creativecommons.org/ns#"
   xmlns:rdf="http://www.w3.org/1999/02/22-rdf-syntax-ns#"
   xmlns:svg="http://www.w3.org/2000/svg"
   xmlns="http://www.w3.org/2000/svg"
   xmlns:sodipodi="http://sodipodi.sourceforge.net/DTD/sodipodi-0.dtd"
   xmlns:inkscape="http://www.inkscape.org/namespaces/inkscape"
   width="64px"
   height="64px"
   viewBox="0 0 48 48"
   version="1.1"
   id="svg2"
   inkscape:version="0.91 r"
   sodipodi:docname="weather-severe-alert.svg">
  <metadata
     id="metadata13">
    <rdf:RDF>
      <cc:Work
         rdf:about="">
        <dc:format>image/svg+xml</dc:format>
        <dc:type
           rdf:resource="http://purl.org/dc/dcmitype/StillImage" />
      </cc:Work>
    </rdf:RDF>
  </metadata>
  <defs
     id="defs11" />
  <sodipodi:namedview
     pagecolor="#ffffff"
     bordercolor="#666666"
     borderopacity="1"
     objecttolerance="10"
     gridtolerance="10"
     guidetolerance="10"
     inkscape:pageopacity="0"
     inkscape:pageshadow="2"
     inkscape:window-width="1920"
     inkscape:window-height="1056"
     id="namedview9"
     showgrid="true"
     inkscape:zoom="10.429825"
     inkscape:cx="36.709908"
     inkscape:cy="22.230661"
     inkscape:window-x="0"
     inkscape:window-y="24"
     inkscape:window-maximized="1"
     inkscape:current-layer="svg2">
    <inkscape:grid
       type="xygrid"
       id="grid4141" />
  </sodipodi:namedview>
  <path
     inkscape:connector-curvature="0"
     id="path5"
     d="M 17.476562,12 C 17.128906,12 16.753906,12.015625 16.375,12.066406 10.316406,12.84375 10.5,18.042969 10.5,18.042969 8.019531,18.464844 6,20.628906 6,22.894531 c 0,2.265625 2.585938,4.269531 4.757812,4.851563 1.289063,0.347656 2.984376,0 2.984376,0 C 14.507812,29.097656 17.039062,30 18.800781,30 c 2.875,0 5.832031,-0.953125 6.511719,-2.253906 0,0 11.910156,0.953125 14.382812,0 3.597657,-1.386719 2.476563,-5.722656 0.08203,-7.1875 -2.394532,-1.464844 -5.523438,-0.441406 -5.523438,-0.441406 0,0 -0.01563,-2.984376 -3.402344,-4.410157 -3.382812,-1.425781 -6.238281,1.730469 -6.238281,1.730469 0,0 -1.898437,-5.40625 -7.136719,-5.4375 z m 0,0"
     style="fill:#ebebeb;fill-opacity:1;fill-rule:nonzero;stroke:none" />
  <path
     inkscape:connector-curvature="0"
     id="path7"
     d="m 21.749999,18 0.5625,13.499999 3.375,0 L 26.249999,18 Z m 0,15.749999 0,4.5 4.5,0 0,-4.5 z m 0,0"
     style="fill:#ee545c;fill-opacity:1;fill-rule:nonzero;stroke:none" />
</svg>
