<?xml version="1.0" encoding="UTF-8" standalone="no"?>
<svg
   xmlns:dc="http://purl.org/dc/elements/1.1/"
   xmlns:cc="http://creativecommons.org/ns#"
   xmlns:rdf="http://www.w3.org/1999/02/22-rdf-syntax-ns#"
   xmlns:svg="http://www.w3.org/2000/svg"
   xmlns="http://www.w3.org/2000/svg"
   xmlns:sodipodi="http://sodipodi.sourceforge.net/DTD/sodipodi-0.dtd"
   xmlns:inkscape="http://www.inkscape.org/namespaces/inkscape"
   width="16"
   height="16"
   viewBox="0 0 16 16"
   id="svg3036"
   version="1.1"
   inkscape:version="0.91 r"
   sodipodi:docname="stock_volume-min.svg">
  <metadata
     id="metadata3088">
    <rdf:RDF>
      <cc:Work
         rdf:about="">
        <dc:format>image/svg+xml</dc:format>
        <dc:type
           rdf:resource="http://purl.org/dc/dcmitype/StillImage" />
      </cc:Work>
    </rdf:RDF>
  </metadata>
  <sodipodi:namedview
     pagecolor="#ffffff"
     bordercolor="#666666"
     borderopacity="1"
     objecttolerance="10"
     gridtolerance="10"
     guidetolerance="10"
     inkscape:pageopacity="0"
     inkscape:pageshadow="2"
     inkscape:window-width="1280"
     inkscape:window-height="998"
     id="namedview3086"
     showgrid="false"
     inkscape:zoom="59"
     inkscape:cx="5.0833614"
     inkscape:cy="9.7179556"
     inkscape:window-x="0"
     inkscape:window-y="0"
     inkscape:window-maximized="1"
     inkscape:current-layer="svg3036" />
  <defs
     id="defs3038" />
  <path
     style="fill:#353535;fill-opacity:1"
     inkscape:connector-curvature="0"
     id="path3334"
     d="M 8.3640364,4.9969786 7.6280279,5.7502517 c 0.9061611,0.9546825 0.9061611,2.4169184 0,3.3716009 L 8.3640364,9.875126 c 1.4364029,-1.5186304 1.4364029,-3.3595173 0,-4.8781474 z" />
  <path
     style="fill:#353535;fill-opacity:1;opacity:0.40000000000000002"
     inkscape:connector-curvature="0"
     id="path3336"
     d="m 9.4680486,4.6223565 c 1.4918004,1.522658 1.4918004,4.4793553 0,6.0020135 l 1.1040114,1.123868 c 2.136798,-2.1792553 2.136798,-6.0704943 0,-8.2497488 z" />
  <path
     style="fill:#353535;fill-opacity:1;opacity:0.40000000000000002"
     inkscape:connector-curvature="0"
     id="path3338"
     d="m 11.308068,3.1238671 c 2.623513,2.5297079 2.583942,6.4692843 0,8.9989929 l 1.104012,1.123867 c 3.430747,-3.371601 3.470317,-7.8751263 0,-11.2467272 z" />
  <path
     style="fill:#353535;fill-opacity:1"
     inkscape:connector-curvature="0"
     id="path3342"
     d="m 6,3.0000005 -2,2 0,5.0000005 2,2 3.2e-6,-3.0030217 L 7.5,7.5000005 l -1.5,-1.5 z"
     sodipodi:nodetypes="cccccccc" />
  <path
     style="fill:#353535;fill-opacity:1"
     inkscape:connector-curvature="0"
     id="path3344"
     d="M 1.7499995,5.0000005 C 1.3588707,5.0000005 1,5.4159226 1,5.8363155 l 0,3.32737 C 1,9.6466908 1.3266127,10.000001 1.7499995,10.000001 L 4,10.000001 4,5.0000005 z"
     sodipodi:nodetypes="ssssccs" />
</svg>
