<?xml version="1.0" encoding="UTF-8" standalone="no"?>
<svg
   xmlns:dc="http://purl.org/dc/elements/1.1/"
   xmlns:cc="http://creativecommons.org/ns#"
   xmlns:rdf="http://www.w3.org/1999/02/22-rdf-syntax-ns#"
   xmlns:svg="http://www.w3.org/2000/svg"
   xmlns="http://www.w3.org/2000/svg"
   xmlns:sodipodi="http://sodipodi.sourceforge.net/DTD/sodipodi-0.dtd"
   xmlns:inkscape="http://www.inkscape.org/namespaces/inkscape"
   version="1.2"
   width="16"
   height="16"
   id="svg2"
   inkscape:version="0.91 r"
   sodipodi:docname="clementine-75-playing.svg">
  <metadata
     id="metadata41">
    <rdf:RDF>
      <cc:Work
         rdf:about="">
        <dc:format>image/svg+xml</dc:format>
        <dc:type
           rdf:resource="http://purl.org/dc/dcmitype/StillImage" />
        <dc:title>Clementine Music Player Logo</dc:title>
      </cc:Work>
    </rdf:RDF>
  </metadata>
  <sodipodi:namedview
     pagecolor="#ffffff"
     bordercolor="#666666"
     borderopacity="1"
     objecttolerance="10"
     gridtolerance="10"
     guidetolerance="10"
     inkscape:pageopacity="0"
     inkscape:pageshadow="2"
     inkscape:window-width="1920"
     inkscape:window-height="1056"
     id="namedview39"
     showgrid="true"
     inkscape:zoom="16"
     inkscape:cx="-8.4972797"
     inkscape:cy="7.2504132"
     inkscape:window-x="0"
     inkscape:window-y="24"
     inkscape:window-maximized="1"
     inkscape:current-layer="svg2">
    <inkscape:grid
       type="xygrid"
       id="grid4135" />
  </sodipodi:namedview>
  <title
     id="title4">Clementine Music Player Logo</title>
  <defs
     id="defs6" />
  <path
     style="opacity:0.4;fill:#353535;fill-opacity:1"
     inkscape:connector-curvature="0"
     id="path20"
     d="m 4.2078685,2.8421184 c -0.02441,0.0016 -0.051149,0.00452 -0.075196,0.00834 -0.022833,0.00366 -0.044369,0.010981 -0.06684,0.016699 -0.00268,8e-4 -0.00569,-8e-4 -0.00834,0 -0.02508,0.00667 -0.050977,0.015838 -0.075197,0.025029 C 3.5023382,3.0525077 2.802845,3.666299 2.5702848,4.1946462 2.4704195,4.4116026 2.3851896,4.652861 2.3112771,4.9460654 2.1742483,5.4887038 2.1364646,6.2138328 2.244436,7.0667378 c 0.088176,0.71998 0.2904469,1.560533 0.6851171,2.462985 0.2450674,0.6526242 0.7342959,1.4557542 1.6459522,2.2542582 0.1070655,0.07932 0.2109947,0.154766 0.3174933,0.225425 0.8564138,0.568153 1.6237316,0.820104 2.2224531,0.918402 0.9816953,0.219029 1.8633155,0.262712 2.6151431,0.217076 0.8936222,-0.05111 1.6375402,-0.223107 2.1723212,-0.46755 0.225099,-0.122185 0.523029,-0.304364 0.685118,-0.450851 0.47751,-0.431543 0.855031,-0.80748 1.061096,-1.135478 0.0083,-0.01149 0.01738,-0.0218 0.02505,-0.0334 0.02297,-0.03849 0.04073,-0.07133 0.05848,-0.108538 0.0087,-0.01748 0.01764,-0.03238 0.02505,-0.05009 0.01305,-0.03127 0.02444,-0.06147 0.03342,-0.09184 0.0024,-0.01814 0.0063,-0.01919 0.0083,-0.0334 0.0027,-0.01058 0.0063,-0.02292 0.0083,-0.03339 0.0037,-0.02361 0.0063,-0.06454 0.0083,-0.07514 0.004,-0.01985 -1.95e-4,-0.01662 0,-0.0167 -1.82e-4,-1.21e-4 0.0011,-0.0048 0,-0.02503 -0.0013,-0.02065 -2.19e-4,-0.05673 0,-0.133585 -0.0064,-0.05135 -0.01807,-0.107473 -0.03342,-0.158633 -0.0308,-0.101125 -0.07723,-0.200414 -0.142037,-0.300568 C 13.514544,9.8358908 13.328991,9.6438728 13.089137,9.4546028 12.644377,9.1037138 12.02082,8.7645738 11.292794,8.4360128 10.673004,8.1556838 9.9915088,7.8998668 9.3294868,7.6177978 8.8671731,7.3925818 8.5022362,7.2742148 8.3686486,7.1669398 8.3520454,7.1536078 8.344562,7.1385228 8.3352313,7.1251938 8.2141605,7.1015228 8.0211839,6.7746868 7.6835314,6.3654258 7.2937806,5.8384278 6.9218066,5.2809298 6.5472393,4.7707476 6.1095398,4.1730321 5.6866146,3.6687436 5.2856212,3.3263529 5.0691376,3.1415399 4.8602444,3.0061241 4.6589897,2.925596 4.5554374,2.8841551 4.4568447,2.8523884 4.3582065,2.842105 c -0.049967,-0.00532 -0.1018384,-0.00324 -0.1503915,0 z" />
  <text
     style="font-size:2.13813591px;font-family:'Bitstream Vera Sans'"
     id="text37"
     font-size="8"
     transform="scale(1.0003583,0.99964182)"
     y="12.091435"
     x="15.038541" />
  <path
     style="fill:#353535;fill-opacity:1"
     d="M 6.6874099,4.9702546 2.4005954,7.9161968 c 0.1154962,0.504897 0.2796597,1.044836 0.5283947,1.613592 0.2450673,0.6526252 0.7346054,1.4556962 1.6462617,2.2542002 0.1070654,0.07932 0.2116745,0.155187 0.3181731,0.225846 0.8564138,0.568153 1.6228086,0.819291 2.2215301,0.917589 0.9816952,0.219029 1.8631577,0.262959 2.6149848,0.217323 0.8936222,-0.05111 1.6384562,-0.222874 2.1732372,-0.467317 0.225098,-0.122185 0.522551,-0.303784 0.68464,-0.450272 0.47751,-0.431543 0.854985,-0.808334 1.06105,-1.136332 0.0083,-0.01149 0.01789,-0.02108 0.02557,-0.03267 0.02297,-0.03849 0.04048,-0.07216 0.05824,-0.109371 0.0087,-0.01748 0.01816,-0.03201 0.02557,-0.04971 0.01305,-0.03127 0.02369,-0.06196 0.03267,-0.09233 0.0024,-0.01814 0.0064,-0.01846 0.0085,-0.03267 0.0027,-0.01058 0.0064,-0.02362 0.0085,-0.03409 0.0037,-0.02361 0.0064,-0.06468 0.0085,-0.07528 0.004,-0.01985 -1.94e-4,-0.01554 0,-0.01562 -1.81e-4,-1.21e-4 0.0011,-0.0053 0,-0.02557 -0.0013,-0.02065 -2.18e-4,-0.05666 0,-0.133519 -0.0064,-0.05135 -0.01874,-0.107927 -0.03409,-0.159087 -0.0308,-0.101124 -0.07724,-0.199553 -0.142041,-0.299707 C 13.514256,9.8364008 13.329018,9.6437828 13.089165,9.4545128 12.644404,9.1036238 12.020365,8.7646368 11.292339,8.4360748 10.672411,8.1557478 9.9913458,7.8999848 9.3293238,7.6179148 8.8670692,7.3926938 8.50277,7.2749128 8.3691817,7.1676378 8.3525785,7.1543068 8.3444231,7.1383558 8.3350924,7.1250248 8.2140216,7.1013528 8.0207738,6.7743638 7.6831212,6.3651028 7.3418673,5.9036788 7.0150805,5.4262098 6.6874099,4.9702546 Z"
     id="path4144"
     inkscape:connector-curvature="0" />
</svg>
