<?xml version="1.0" encoding="UTF-8" standalone="no"?>
<!-- Generator: Adobe Illustrator 16.0.0, SVG Export Plug-In . SVG Version: 6.00 Build 0)  -->

<svg
   xmlns:dc="http://purl.org/dc/elements/1.1/"
   xmlns:cc="http://creativecommons.org/ns#"
   xmlns:rdf="http://www.w3.org/1999/02/22-rdf-syntax-ns#"
   xmlns:svg="http://www.w3.org/2000/svg"
   xmlns="http://www.w3.org/2000/svg"
   xmlns:sodipodi="http://sodipodi.sourceforge.net/DTD/sodipodi-0.dtd"
   xmlns:inkscape="http://www.inkscape.org/namespaces/inkscape"
   version="1.1"
   id="Capa_1"
   x="0px"
   y="0px"
   width="16"
   height="16"
   viewBox="0 0 16 16"
   xml:space="preserve"
   inkscape:version="0.91 r"
   sodipodi:docname="hangouts-available-missed.svg"><metadata
     id="metadata42"><rdf:RDF><cc:Work
         rdf:about=""><dc:format>image/svg+xml</dc:format><dc:type
           rdf:resource="http://purl.org/dc/dcmitype/StillImage" /><dc:title /></cc:Work></rdf:RDF></metadata><defs
     id="defs40" /><sodipodi:namedview
     pagecolor="#ffffff"
     bordercolor="#666666"
     borderopacity="1"
     objecttolerance="10"
     gridtolerance="10"
     guidetolerance="10"
     inkscape:pageopacity="0"
     inkscape:pageshadow="2"
     inkscape:window-width="1920"
     inkscape:window-height="1056"
     id="namedview38"
     showgrid="true"
     inkscape:zoom="28.893352"
     inkscape:cx="10.122873"
     inkscape:cy="0.38408477"
     inkscape:window-x="0"
     inkscape:window-y="24"
     inkscape:window-maximized="1"
     inkscape:current-layer="Capa_1"><inkscape:grid
       type="xygrid"
       id="grid4170" /></sodipodi:namedview><g
     id="g3"
     transform="matrix(0.03690888,0,0,0.03690888,1.3529415,-3.294117)"><g
       id="hangout"><path
         d="M 180.09375,143.43749 C 90.206251,143.43749 17.531244,216.1125 17.531244,306 c 0,89.88749 72.675007,162.5625 162.562506,162.5625 l 0,54.1875 c 93.71251,-43.9875 162.5625,-130.6875 162.5625,-216.75 0,-89.8875 -72.67501,-162.56251 -162.5625,-162.56251 z m -108.375006,108.375 81.281256,0 0,81.28125 -20.33355,54.18751 -40.640619,0 27.106979,-54.18751 -47.414066,0 z m 135.468756,0 81.28125,0 0,81.28125 -33.88041,54.18751 -40.64062,0 27.10697,-54.18751 -33.86719,0 z"
         id="path6"
         style="fill:#353535;fill-opacity:1"
         inkscape:connector-curvature="0"
         sodipodi:nodetypes="ssccsscccccccccccccccc" /></g></g><g
     id="g8"
     transform="translate(0,-506.75)" /><g
     id="g10"
     transform="translate(0,-506.75)" /><g
     id="g12"
     transform="translate(0,-506.75)" /><g
     id="g14"
     transform="translate(0,-506.75)" /><g
     id="g16"
     transform="translate(0,-506.75)" /><g
     id="g18"
     transform="translate(0,-506.75)" /><g
     id="g20"
     transform="translate(0,-506.75)" /><g
     id="g22"
     transform="translate(0,-506.75)" /><g
     id="g24"
     transform="translate(0,-506.75)" /><g
     id="g26"
     transform="translate(0,-506.75)" /><g
     id="g28"
     transform="translate(0,-506.75)" /><g
     id="g30"
     transform="translate(0,-506.75)" /><g
     id="g32"
     transform="translate(0,-506.75)" /><g
     id="g34"
     transform="translate(0,-506.75)" /><g
     id="g36"
     transform="translate(0,-506.75)" /></svg>