<?xml version="1.0" encoding="UTF-8" standalone="no"?>
<svg
   xmlns:dc="http://purl.org/dc/elements/1.1/"
   xmlns:cc="http://creativecommons.org/ns#"
   xmlns:rdf="http://www.w3.org/1999/02/22-rdf-syntax-ns#"
   xmlns:svg="http://www.w3.org/2000/svg"
   xmlns="http://www.w3.org/2000/svg"
   xmlns:sodipodi="http://sodipodi.sourceforge.net/DTD/sodipodi-0.dtd"
   xmlns:inkscape="http://www.inkscape.org/namespaces/inkscape"
   viewBox="0 0 16 16"
   id="svg2"
   version="1.1"
   inkscape:version="0.91 r13725"
   sodipodi:docname="indicator-keyboard-He-3.svg">
  <metadata
     id="metadata14">
    <rdf:RDF>
      <cc:Work
         rdf:about="">
        <dc:format>image/svg+xml</dc:format>
        <dc:type
           rdf:resource="http://purl.org/dc/dcmitype/StillImage" />
      </cc:Work>
    </rdf:RDF>
  </metadata>
  <defs
     id="defs12" />
  <sodipodi:namedview
     pagecolor="#ffffff"
     bordercolor="#666666"
     borderopacity="1"
     objecttolerance="10"
     gridtolerance="10"
     guidetolerance="10"
     inkscape:pageopacity="0"
     inkscape:pageshadow="2"
     inkscape:window-width="640"
     inkscape:window-height="480"
     id="namedview10"
     showgrid="false"
     inkscape:zoom="14.75"
     inkscape:cx="8"
     inkscape:cy="8"
     inkscape:window-x="65"
     inkscape:window-y="24"
     inkscape:window-maximized="0"
     inkscape:current-layer="svg2" />
  <path
     style="fill:#353535;fill-opacity:1"
     d="M 1.5996094 0 C 0.71320937 2.9605947e-16 0 0.71320937 0 1.5996094 L 0 14.400391 C 2.9605947e-16 15.286791 0.71320937 16 1.5996094 16 L 14.400391 16 C 15.286791 16 16 15.286791 16 14.400391 L 16 1.5996094 C 16 0.71320937 15.286791 0 14.400391 0 L 1.5996094 0 z M 1.4140625 4.859375 L 2.0253906 4.859375 L 2.0253906 7.5683594 L 5.4101562 7.5683594 L 5.4101562 4.859375 L 6.0214844 4.859375 L 6.0214844 11.095703 L 5.4101562 11.095703 L 5.4101562 8.0996094 L 2.0253906 8.0996094 L 2.0253906 11.095703 L 1.4140625 11.095703 L 1.4140625 4.859375 z M 9.3554688 6.3359375 C 9.9254689 6.3359375 10.378844 6.5205781 10.714844 6.8925781 C 11.056844 7.2645781 11.228516 7.8373281 11.228516 8.6113281 C 11.228516 8.6593281 11.22475 8.7078594 11.21875 8.7558594 C 11.21875 8.8038594 11.214984 8.848625 11.208984 8.890625 L 7.9433594 8.890625 C 7.9613594 9.460625 8.1012344 9.8990779 8.3652344 10.205078 C 8.6292344 10.511078 9.049 10.664062 9.625 10.664062 C 9.9430001 10.664062 10.194859 10.634219 10.380859 10.574219 C 10.566859 10.514219 10.703109 10.463875 10.787109 10.421875 L 10.894531 10.925781 C 10.810531 10.973781 10.651969 11.029703 10.417969 11.095703 C 10.189969 11.161703 9.919422 11.195312 9.6074219 11.195312 C 9.1994219 11.195312 8.8524531 11.135625 8.5644531 11.015625 C 8.2764531 10.895625 8.0395156 10.727719 7.8535156 10.511719 C 7.6675156 10.295719 7.5312656 10.040094 7.4472656 9.7460938 C 7.3632656 9.4460938 7.3222656 9.119625 7.3222656 8.765625 C 7.3222656 8.357625 7.3781875 8.003125 7.4921875 7.703125 C 7.6121875 7.397125 7.7651719 7.1415 7.9511719 6.9375 C 8.1431719 6.7335 8.3596094 6.5842812 8.5996094 6.4882812 C 8.8456094 6.3862812 9.0974687 6.3359375 9.3554688 6.3359375 z M 9.3652344 6.8574219 C 9.1552344 6.8574219 8.964875 6.8984219 8.796875 6.9824219 C 8.634875 7.0664219 8.4912344 7.1802187 8.3652344 7.3242188 C 8.2452344 7.4622188 8.150125 7.6245469 8.078125 7.8105469 C 8.012125 7.9965469 7.9729375 8.1924844 7.9609375 8.3964844 L 10.625 8.3964844 C 10.613 7.9104844 10.499203 7.5317188 10.283203 7.2617188 C 10.067203 6.9917187 9.7612344 6.8574219 9.3652344 6.8574219 z M 13.216797 8.7539062 C 13.419597 8.7539062 13.593981 8.7793781 13.738281 8.8300781 C 13.886481 8.8807781 14.007969 8.953275 14.105469 9.046875 C 14.202969 9.136575 14.275466 9.2463 14.322266 9.375 C 14.369066 9.4997999 14.392578 9.6350031 14.392578 9.7832031 C 14.392578 10.021103 14.327919 10.217041 14.199219 10.369141 C 14.074419 10.517341 13.913744 10.625106 13.714844 10.691406 C 13.824044 10.718706 13.927897 10.759859 14.029297 10.818359 C 14.134597 10.872959 14.228647 10.945456 14.310547 11.035156 C 14.392447 11.120956 14.459066 11.226762 14.509766 11.351562 C 14.560466 11.476362 14.585938 11.623316 14.585938 11.791016 C 14.585938 11.962616 14.554587 12.119372 14.492188 12.263672 C 14.433687 12.407972 14.343556 12.535331 14.222656 12.644531 C 14.105656 12.749831 13.956737 12.834084 13.773438 12.896484 C 13.590137 12.954984 13.374606 12.984375 13.128906 12.984375 C 13.000206 12.984375 12.880684 12.974578 12.771484 12.955078 C 12.666184 12.939478 12.574088 12.919884 12.492188 12.896484 C 12.410288 12.873084 12.33975 12.849572 12.28125 12.826172 C 12.22665 12.802772 12.185503 12.783178 12.158203 12.767578 L 12.257812 12.427734 C 12.281212 12.443334 12.3204 12.462928 12.375 12.486328 C 12.4296 12.509728 12.494259 12.533241 12.568359 12.556641 C 12.646359 12.576141 12.730619 12.593775 12.824219 12.609375 C 12.921719 12.624975 13.027525 12.632813 13.140625 12.632812 C 13.511125 12.632812 13.7776 12.556397 13.9375 12.404297 C 14.0974 12.248297 14.175781 12.040597 14.175781 11.779297 C 14.175781 11.607697 14.142472 11.464663 14.076172 11.351562 C 14.013772 11.238462 13.927553 11.148331 13.814453 11.082031 C 13.705253 11.011831 13.575934 10.962847 13.427734 10.935547 C 13.283434 10.904347 13.128644 10.888672 12.964844 10.888672 L 12.90625 10.888672 L 12.90625 10.574219 L 13.041016 10.574219 C 13.146316 10.574219 13.254081 10.564422 13.363281 10.544922 C 13.476381 10.521522 13.578269 10.480375 13.667969 10.421875 C 13.761569 10.363375 13.837984 10.285 13.896484 10.1875 C 13.958884 10.09 13.988281 9.9646001 13.988281 9.8125 C 13.988281 9.6838 13.968681 9.5760281 13.925781 9.4863281 C 13.882881 9.3927281 13.8241 9.3182719 13.75 9.2636719 C 13.6798 9.2090719 13.595547 9.1698844 13.498047 9.1464844 C 13.404447 9.1191844 13.304519 9.1054687 13.199219 9.1054688 C 12.988619 9.1054688 12.825984 9.1348594 12.708984 9.1933594 C 12.591984 9.2518594 12.495975 9.3067219 12.421875 9.3574219 L 12.257812 9.0585938 C 12.296813 9.0312937 12.345797 8.9999438 12.404297 8.9648438 C 12.466697 8.9297438 12.539194 8.8964344 12.621094 8.8652344 C 12.702994 8.8340344 12.791172 8.8085625 12.888672 8.7890625 C 12.990072 8.7656625 13.099797 8.7539062 13.216797 8.7539062 z "
     id="path4" />
</svg>
