<?xml version="1.0" encoding="UTF-8" standalone="no"?>
<svg
   xmlns:dc="http://purl.org/dc/elements/1.1/"
   xmlns:cc="http://creativecommons.org/ns#"
   xmlns:rdf="http://www.w3.org/1999/02/22-rdf-syntax-ns#"
   xmlns:svg="http://www.w3.org/2000/svg"
   xmlns="http://www.w3.org/2000/svg"
   xmlns:sodipodi="http://sodipodi.sourceforge.net/DTD/sodipodi-0.dtd"
   xmlns:inkscape="http://www.inkscape.org/namespaces/inkscape"
   viewBox="0 0 16 16"
   id="svg2"
   version="1.1"
   inkscape:version="0.91 r13725"
   sodipodi:docname="indicator-keyboard-Ar-4.svg">
  <metadata
     id="metadata14">
    <rdf:RDF>
      <cc:Work
         rdf:about="">
        <dc:format>image/svg+xml</dc:format>
        <dc:type
           rdf:resource="http://purl.org/dc/dcmitype/StillImage" />
      </cc:Work>
    </rdf:RDF>
  </metadata>
  <defs
     id="defs12" />
  <sodipodi:namedview
     pagecolor="#ffffff"
     bordercolor="#666666"
     borderopacity="1"
     objecttolerance="10"
     gridtolerance="10"
     guidetolerance="10"
     inkscape:pageopacity="0"
     inkscape:pageshadow="2"
     inkscape:window-width="640"
     inkscape:window-height="480"
     id="namedview10"
     showgrid="false"
     inkscape:zoom="14.75"
     inkscape:cx="8"
     inkscape:cy="8"
     inkscape:window-x="65"
     inkscape:window-y="24"
     inkscape:window-maximized="0"
     inkscape:current-layer="svg2" />
  <path
     style="fill:#353535;fill-opacity:1"
     d="M 1.5996094 0 C 0.71320937 2.9605947e-16 0 0.71320937 0 1.5996094 L 0 14.400391 C 2.9605947e-16 15.286791 0.71320937 16 1.5996094 16 L 14.400391 16 C 15.286791 16 16 15.286791 16 14.400391 L 16 1.5996094 C 16 0.71320937 15.286791 0 14.400391 0 L 1.5996094 0 z M 4.5 4.859375 L 5.0390625 4.859375 C 5.2610625 5.321375 5.4719219 5.7821406 5.6699219 6.2441406 C 5.8679219 6.7061406 6.0656719 7.1893594 6.2636719 7.6933594 C 6.4676719 8.1913594 6.6747656 8.7231094 6.8847656 9.2871094 C 7.0947656 9.8451096 7.3223594 10.447703 7.5683594 11.095703 L 6.8945312 11.095703 C 6.7805313 10.789703 6.6723125 10.496844 6.5703125 10.214844 C 6.4683125 9.9328435 6.3694375 9.6567188 6.2734375 9.3867188 L 3.2402344 9.3867188 C 3.1382344 9.6567187 3.0355937 9.9328436 2.9335938 10.214844 C 2.8315937 10.496844 2.7271406 10.789703 2.6191406 11.095703 L 1.9804688 11.095703 C 2.2204687 10.447703 2.4442969 9.8451096 2.6542969 9.2871094 C 2.8642969 8.7231094 3.0695781 8.1913594 3.2675781 7.6933594 C 3.4715781 7.1893594 3.6711406 6.7061406 3.8691406 6.2441406 C 4.0671406 5.7821406 4.278 5.321375 4.5 4.859375 z M 4.7519531 5.5605469 C 4.5239531 6.0765469 4.3019375 6.6027187 4.0859375 7.1367188 C 3.8759375 7.6707187 3.6576875 8.2452813 3.4296875 8.8632812 L 6.0839844 8.8632812 C 5.8559844 8.2452813 5.6339687 7.6707187 5.4179688 7.1367188 C 5.2019688 6.6027188 4.9799531 6.0765469 4.7519531 5.5605469 z M 10.013672 6.3535156 C 10.205672 6.3535156 10.384734 6.3684375 10.552734 6.3984375 C 10.726734 6.4284375 10.848062 6.4582812 10.914062 6.4882812 L 10.796875 6.9921875 C 10.748875 6.9681875 10.65 6.9439219 10.5 6.9199219 C 10.356 6.8899219 10.163828 6.875 9.9238281 6.875 C 9.6718281 6.875 9.4685 6.8936875 9.3125 6.9296875 C 9.1625 6.9656875 9.063625 6.9955312 9.015625 7.0195312 L 9.015625 11.095703 L 8.4296875 11.095703 L 8.4296875 6.6582031 C 8.5796875 6.5922031 8.7867812 6.5269375 9.0507812 6.4609375 C 9.3147812 6.3889375 9.6356716 6.3535156 10.013672 6.3535156 z M 13.119141 8.8417969 L 13.517578 8.8417969 L 13.517578 11.486328 L 14.019531 11.486328 L 14.019531 11.796875 L 13.517578 11.796875 L 13.517578 12.896484 L 13.142578 12.896484 L 13.142578 11.796875 L 11.304688 11.796875 L 11.304688 11.5625 C 11.374888 11.3753 11.472856 11.163688 11.597656 10.929688 C 11.726356 10.695687 11.87135 10.456638 12.03125 10.210938 C 12.19115 9.9652374 12.363581 9.7261874 12.550781 9.4921875 C 12.737981 9.2542875 12.928041 9.0367969 13.119141 8.8417969 z M 13.142578 9.2695312 C 13.006078 9.4099313 12.866962 9.5706063 12.726562 9.7539062 C 12.586162 9.9372063 12.452919 10.129225 12.324219 10.328125 C 12.199419 10.523125 12.081856 10.719069 11.972656 10.917969 C 11.863456 11.116869 11.771366 11.306928 11.697266 11.486328 L 13.142578 11.486328 L 13.142578 9.2695312 z "
     id="path4" />
</svg>
