<?xml version="1.0" encoding="UTF-8" standalone="no"?>
<svg
   xmlns:dc="http://purl.org/dc/elements/1.1/"
   xmlns:cc="http://creativecommons.org/ns#"
   xmlns:rdf="http://www.w3.org/1999/02/22-rdf-syntax-ns#"
   xmlns:svg="http://www.w3.org/2000/svg"
   xmlns="http://www.w3.org/2000/svg"
   xmlns:sodipodi="http://sodipodi.sourceforge.net/DTD/sodipodi-0.dtd"
   xmlns:inkscape="http://www.inkscape.org/namespaces/inkscape"
   viewBox="0 0 16 16"
   id="svg2"
   version="1.1"
   inkscape:version="0.91 r13725"
   sodipodi:docname="indicator-keyboard-Fr-4.svg">
  <metadata
     id="metadata14">
    <rdf:RDF>
      <cc:Work
         rdf:about="">
        <dc:format>image/svg+xml</dc:format>
        <dc:type
           rdf:resource="http://purl.org/dc/dcmitype/StillImage" />
      </cc:Work>
    </rdf:RDF>
  </metadata>
  <defs
     id="defs12" />
  <sodipodi:namedview
     pagecolor="#ffffff"
     bordercolor="#666666"
     borderopacity="1"
     objecttolerance="10"
     gridtolerance="10"
     guidetolerance="10"
     inkscape:pageopacity="0"
     inkscape:pageshadow="2"
     inkscape:window-width="640"
     inkscape:window-height="480"
     id="namedview10"
     showgrid="false"
     inkscape:zoom="14.75"
     inkscape:cx="8"
     inkscape:cy="8"
     inkscape:window-x="65"
     inkscape:window-y="24"
     inkscape:window-maximized="0"
     inkscape:current-layer="svg2" />
  <path
     style="fill:#353535;fill-opacity:1"
     d="M 1.5996094 0 C 0.71320937 2.9605947e-16 0 0.71320937 0 1.5996094 L 0 14.400391 C 2.9605947e-16 15.286791 0.71320937 16 1.5996094 16 L 14.400391 16 C 15.286791 16 16 15.286791 16 14.400391 L 16 1.5996094 C 16 0.71320937 15.286791 0 14.400391 0 L 1.5996094 0 z M 2.9648438 4.859375 L 6.5195312 4.859375 L 6.5195312 5.390625 L 3.5761719 5.390625 L 3.5761719 7.5859375 L 6.1855469 7.5859375 L 6.1855469 8.1171875 L 3.5761719 8.1171875 L 3.5761719 11.095703 L 2.9648438 11.095703 L 2.9648438 4.859375 z M 9.0292969 6.3535156 C 9.2212969 6.3535156 9.4023125 6.3684375 9.5703125 6.3984375 C 9.7443125 6.4284375 9.8636875 6.4582812 9.9296875 6.4882812 L 9.8125 6.9921875 C 9.7645 6.9681875 9.665625 6.9439219 9.515625 6.9199219 C 9.371625 6.8899219 9.1794531 6.875 8.9394531 6.875 C 8.6874531 6.875 8.484125 6.8936875 8.328125 6.9296875 C 8.178125 6.9656875 8.07925 6.9955312 8.03125 7.0195312 L 8.03125 11.095703 L 7.4453125 11.095703 L 7.4453125 6.6582031 C 7.5953125 6.5922031 7.8024063 6.5269375 8.0664062 6.4609375 C 8.3304062 6.3889375 8.6512969 6.3535156 9.0292969 6.3535156 z M 12.134766 8.8417969 L 12.533203 8.8417969 L 12.533203 11.486328 L 13.035156 11.486328 L 13.035156 11.796875 L 12.533203 11.796875 L 12.533203 12.896484 L 12.158203 12.896484 L 12.158203 11.796875 L 10.322266 11.796875 L 10.322266 11.5625 C 10.392466 11.3753 10.488481 11.163688 10.613281 10.929688 C 10.741981 10.695687 10.886975 10.456638 11.046875 10.210938 C 11.206775 9.9652374 11.381159 9.7261874 11.568359 9.4921875 C 11.755559 9.2542875 11.943666 9.0367969 12.134766 8.8417969 z M 12.158203 9.2695312 C 12.021703 9.4099313 11.882587 9.5706063 11.742188 9.7539062 C 11.601787 9.9372063 11.468544 10.129225 11.339844 10.328125 C 11.215044 10.523125 11.097481 10.719069 10.988281 10.917969 C 10.879081 11.116869 10.786991 11.306928 10.712891 11.486328 L 12.158203 11.486328 L 12.158203 9.2695312 z "
     id="path4" />
</svg>
