<?xml version="1.0" encoding="UTF-8" standalone="no"?>
<svg
   xmlns:dc="http://purl.org/dc/elements/1.1/"
   xmlns:cc="http://creativecommons.org/ns#"
   xmlns:rdf="http://www.w3.org/1999/02/22-rdf-syntax-ns#"
   xmlns:svg="http://www.w3.org/2000/svg"
   xmlns="http://www.w3.org/2000/svg"
   xmlns:sodipodi="http://sodipodi.sourceforge.net/DTD/sodipodi-0.dtd"
   xmlns:inkscape="http://www.inkscape.org/namespaces/inkscape"
   viewBox="0 0 16 16"
   id="svg2"
   version="1.1"
   inkscape:version="0.91 r13725"
   sodipodi:docname="indicator-keyboard-Ps-1.svg">
  <metadata
     id="metadata14">
    <rdf:RDF>
      <cc:Work
         rdf:about="">
        <dc:format>image/svg+xml</dc:format>
        <dc:type
           rdf:resource="http://purl.org/dc/dcmitype/StillImage" />
      </cc:Work>
    </rdf:RDF>
  </metadata>
  <defs
     id="defs12" />
  <sodipodi:namedview
     pagecolor="#ffffff"
     bordercolor="#666666"
     borderopacity="1"
     objecttolerance="10"
     gridtolerance="10"
     guidetolerance="10"
     inkscape:pageopacity="0"
     inkscape:pageshadow="2"
     inkscape:window-width="640"
     inkscape:window-height="480"
     id="namedview10"
     showgrid="false"
     inkscape:zoom="14.75"
     inkscape:cx="8"
     inkscape:cy="8"
     inkscape:window-x="65"
     inkscape:window-y="24"
     inkscape:window-maximized="0"
     inkscape:current-layer="svg2" />
  <path
     style="fill:#353535;fill-opacity:1"
     d="M 1.5996094 0 C 0.71320937 2.9605947e-16 0 0.71320937 0 1.5996094 L 0 14.400391 C 2.9605947e-16 15.286791 0.71320937 16 1.5996094 16 L 14.400391 16 C 15.286791 16 16 15.286791 16 14.400391 L 16 1.5996094 C 16 0.71320937 15.286791 0 14.400391 0 L 1.5996094 0 z M 4.359375 4.8046875 C 5.241375 4.8046875 5.8980781 4.9725937 6.3300781 5.3085938 C 6.7620781 5.6445937 6.9785156 6.1222344 6.9785156 6.7402344 C 6.9785156 7.0942344 6.9150625 7.3964375 6.7890625 7.6484375 C 6.6630625 7.8944375 6.484 8.0959531 6.25 8.2519531 C 6.016 8.4019531 5.7267656 8.5139375 5.3847656 8.5859375 C 5.0487656 8.6519375 4.6681875 8.6835937 4.2421875 8.6835938 L 3.3964844 8.6835938 L 3.3964844 11.095703 L 2.7851562 11.095703 L 2.7851562 4.9765625 C 3.0011562 4.9165625 3.2530156 4.8736094 3.5410156 4.8496094 C 3.8350156 4.8196094 4.107375 4.8046875 4.359375 4.8046875 z M 4.3867188 5.3359375 C 4.1587188 5.3359375 3.9627812 5.3452813 3.8007812 5.3632812 C 3.6447812 5.3752813 3.5104844 5.3864375 3.3964844 5.3984375 L 3.3964844 8.1523438 L 4.1699219 8.1523438 C 4.4999219 8.1523438 4.7985 8.1356094 5.0625 8.0996094 C 5.3325 8.0576094 5.5600938 7.9848125 5.7460938 7.8828125 C 5.9380937 7.7748125 6.0855 7.6274062 6.1875 7.4414062 C 6.2895 7.2554062 6.3398437 7.0184688 6.3398438 6.7304688 C 6.3398438 6.4544687 6.2819688 6.226875 6.1679688 6.046875 C 6.0599688 5.866875 5.9145156 5.7250469 5.7285156 5.6230469 C 5.5485156 5.5150469 5.3414219 5.4404375 5.1074219 5.3984375 C 4.8734219 5.3564375 4.6327188 5.3359375 4.3867188 5.3359375 z M 9.3339844 6.3359375 C 9.6519844 6.3359375 9.9131875 6.3620156 10.117188 6.4160156 C 10.327187 6.4700156 10.474594 6.5185469 10.558594 6.5605469 L 10.423828 7.0820312 C 10.351828 7.0460313 10.228687 6.9975 10.054688 6.9375 C 9.8866875 6.8775 9.6385938 6.8476563 9.3085938 6.8476562 C 9.1765937 6.8476562 9.0496875 6.8625781 8.9296875 6.8925781 C 8.8156875 6.9165781 8.7130469 6.9595312 8.6230469 7.0195312 C 8.5330469 7.0735313 8.4622031 7.144375 8.4082031 7.234375 C 8.3542031 7.318375 8.3261719 7.4247812 8.3261719 7.5507812 C 8.3261719 7.6767813 8.3504375 7.7830469 8.3984375 7.8730469 C 8.4464375 7.9630469 8.5154688 8.0451875 8.6054688 8.1171875 C 8.7014687 8.1831875 8.8152656 8.2466406 8.9472656 8.3066406 C 9.0852656 8.3666406 9.2420156 8.4319063 9.4160156 8.5039062 C 9.5960156 8.5759062 9.7676875 8.6505156 9.9296875 8.7285156 C 10.097688 8.8005156 10.243141 8.8900469 10.369141 8.9980469 C 10.495141 9.1000469 10.597781 9.2269531 10.675781 9.3769531 C 10.753781 9.5209531 10.792969 9.7037812 10.792969 9.9257812 C 10.792969 10.345781 10.634406 10.664859 10.316406 10.880859 C 10.004406 11.096859 9.5752969 11.203125 9.0292969 11.203125 C 8.6212969 11.203125 8.3077969 11.167703 8.0917969 11.095703 C 7.8757969 11.029703 7.7321563 10.979359 7.6601562 10.943359 L 7.8144531 10.412109 C 7.8324531 10.424109 7.8716406 10.444609 7.9316406 10.474609 C 7.9916406 10.498609 8.0718281 10.528453 8.1738281 10.564453 C 8.2758281 10.594453 8.3952031 10.622484 8.5332031 10.646484 C 8.6772031 10.670484 8.8432969 10.681641 9.0292969 10.681641 C 9.3652969 10.681641 9.6414219 10.627531 9.8574219 10.519531 C 10.079422 10.405531 10.189453 10.217125 10.189453 9.953125 C 10.189453 9.827125 10.168953 9.7189062 10.126953 9.6289062 C 10.090953 9.5389062 10.0275 9.4587188 9.9375 9.3867188 C 9.8475 9.3147188 9.728125 9.2456875 9.578125 9.1796875 C 9.434125 9.1136875 9.2531094 9.0353125 9.0371094 8.9453125 C 8.8631094 8.8733125 8.6989687 8.8005156 8.5429688 8.7285156 C 8.3869687 8.6505156 8.2489063 8.56475 8.1289062 8.46875 C 8.0089063 8.36675 7.9118437 8.2454219 7.8398438 8.1074219 C 7.7678438 7.9694219 7.7324219 7.8015156 7.7324219 7.6035156 C 7.7324219 7.2255156 7.87425 6.9195469 8.15625 6.6855469 C 8.44425 6.4515469 8.8359844 6.3359375 9.3339844 6.3359375 z M 12.947266 8.8417969 L 13.214844 8.8417969 L 13.214844 12.896484 L 12.835938 12.896484 L 12.835938 9.421875 C 12.793038 9.468675 12.736216 9.5157063 12.666016 9.5664062 C 12.599716 9.6171063 12.5233 9.66805 12.4375 9.71875 C 12.3517 9.76555 12.261569 9.812575 12.167969 9.859375 C 12.074369 9.902275 11.980319 9.9375437 11.886719 9.9648438 L 11.775391 9.671875 C 12.009391 9.5899751 12.219044 9.4880813 12.402344 9.3632812 C 12.585644 9.2345813 12.767866 9.0601969 12.947266 8.8417969 z "
     id="path4" />
</svg>
