<?xml version="1.0" encoding="UTF-8" standalone="no"?>
<svg
   xmlns:dc="http://purl.org/dc/elements/1.1/"
   xmlns:cc="http://creativecommons.org/ns#"
   xmlns:rdf="http://www.w3.org/1999/02/22-rdf-syntax-ns#"
   xmlns:svg="http://www.w3.org/2000/svg"
   xmlns="http://www.w3.org/2000/svg"
   xmlns:sodipodi="http://sodipodi.sourceforge.net/DTD/sodipodi-0.dtd"
   xmlns:inkscape="http://www.inkscape.org/namespaces/inkscape"
   viewBox="0 0 16 16"
   id="svg2"
   version="1.1"
   inkscape:version="0.91 r13725"
   sodipodi:docname="indicator-keyboard-By.svg">
  <metadata
     id="metadata13">
    <rdf:RDF>
      <cc:Work
         rdf:about="">
        <dc:format>image/svg+xml</dc:format>
        <dc:type
           rdf:resource="http://purl.org/dc/dcmitype/StillImage" />
      </cc:Work>
    </rdf:RDF>
  </metadata>
  <defs
     id="defs11" />
  <sodipodi:namedview
     pagecolor="#ffffff"
     bordercolor="#666666"
     borderopacity="1"
     objecttolerance="10"
     gridtolerance="10"
     guidetolerance="10"
     inkscape:pageopacity="0"
     inkscape:pageshadow="2"
     inkscape:window-width="459"
     inkscape:window-height="369"
     id="namedview9"
     showgrid="false"
     inkscape:zoom="14.75"
     inkscape:cx="8"
     inkscape:cy="8"
     inkscape:window-x="65"
     inkscape:window-y="24"
     inkscape:window-maximized="0"
     inkscape:current-layer="svg2" />
  <path
     style="fill:#353535;fill-opacity:1"
     d="M 1.5996094 0 C 0.71320937 2.9605947e-16 0 0.71320937 0 1.5996094 L 0 14.400391 C 2.9605947e-16 15.286791 0.71320937 16 1.5996094 16 L 14.400391 16 C 15.286791 16 16 15.286791 16 14.400391 L 16 1.5996094 C 16 0.71320937 15.286791 0 14.400391 0 L 1.5996094 0 z M 5.09375 4.0078125 C 5.42975 4.0078125 5.746875 4.0358438 6.046875 4.0898438 C 6.352875 4.1438437 6.6196563 4.233375 6.8476562 4.359375 C 7.0756563 4.485375 7.2566719 4.6532812 7.3886719 4.8632812 C 7.5266719 5.0672813 7.5957031 5.3229062 7.5957031 5.6289062 C 7.5957031 5.9649062 7.5079844 6.2521875 7.3339844 6.4921875 C 7.1659844 6.7261875 6.9383906 6.8885156 6.6503906 6.9785156 C 6.8303906 7.0205156 6.9964844 7.0802031 7.1464844 7.1582031 C 7.2964844 7.2362031 7.4270156 7.3388437 7.5410156 7.4648438 C 7.6550156 7.5848438 7.7427344 7.7340625 7.8027344 7.9140625 C 7.8687344 8.0880625 7.9023438 8.2989219 7.9023438 8.5449219 C 7.9023438 9.1329219 7.6672188 9.5825313 7.1992188 9.8945312 C 6.7312188 10.200531 6.00925 10.353516 5.03125 10.353516 C 4.92925 10.353516 4.8079219 10.347938 4.6699219 10.335938 C 4.5379219 10.329938 4.3998594 10.316828 4.2558594 10.298828 C 4.1178594 10.286828 3.9873281 10.271906 3.8613281 10.253906 C 3.7353281 10.229906 3.6271094 10.205641 3.5371094 10.181641 L 3.5371094 4.1796875 C 3.6451094 4.1496875 3.7644844 4.1254219 3.8964844 4.1074219 C 4.0284844 4.0834219 4.1627812 4.0647344 4.3007812 4.0527344 C 4.4447813 4.0347344 4.5828438 4.0235781 4.7148438 4.0175781 C 4.8528437 4.0115781 4.97975 4.0078125 5.09375 4.0078125 z M 5.09375 4.53125 C 4.87175 4.53125 4.6833437 4.5368281 4.5273438 4.5488281 C 4.3773438 4.5608281 4.2504375 4.57575 4.1484375 4.59375 L 4.1484375 6.7890625 L 5.3359375 6.7890625 C 5.5579375 6.7890625 5.7687969 6.7741406 5.9667969 6.7441406 C 6.1647969 6.7081406 6.3364687 6.6484531 6.4804688 6.5644531 C 6.6304687 6.4744531 6.7460781 6.3568906 6.8300781 6.2128906 C 6.9140781 6.0628906 6.9570312 5.8744844 6.9570312 5.6464844 C 6.9570312 5.4424844 6.9122656 5.2708125 6.8222656 5.1328125 C 6.7322656 4.9888125 6.6035469 4.8732031 6.4355469 4.7832031 C 6.2735469 4.6932031 6.0776094 4.62975 5.8496094 4.59375 C 5.6216094 4.55175 5.36975 4.53125 5.09375 4.53125 z M 8.5839844 5.6464844 L 9.2050781 5.6464844 C 9.2710781 5.9344844 9.3550313 6.2460313 9.4570312 6.5820312 C 9.5590312 6.9120312 9.6728281 7.255375 9.7988281 7.609375 C 9.9308281 7.963375 10.074469 8.3252656 10.230469 8.6972656 C 10.386469 9.0692656 10.556328 9.4349219 10.736328 9.7949219 C 10.868328 9.4229219 10.983938 9.0721875 11.085938 8.7421875 C 11.187937 8.4121875 11.281234 8.0857187 11.365234 7.7617188 C 11.455234 7.4317187 11.539187 7.0959063 11.617188 6.7539062 C 11.701187 6.4119063 11.788906 6.0424844 11.878906 5.6464844 L 12.462891 5.6464844 C 12.270891 6.5164844 12.052641 7.3615938 11.806641 8.1835938 C 11.560641 9.0055937 11.293859 9.7593597 11.005859 10.443359 C 10.891859 10.713359 10.774297 10.944719 10.654297 11.136719 C 10.534297 11.334719 10.4 11.497047 10.25 11.623047 C 10.106 11.749047 9.9343281 11.842344 9.7363281 11.902344 C 9.5443281 11.962344 9.3167344 11.992188 9.0527344 11.992188 C 8.9027344 11.992188 8.7646719 11.9735 8.6386719 11.9375 C 8.5186719 11.9015 8.4440625 11.875422 8.4140625 11.857422 L 8.53125 11.371094 C 8.55525 11.389094 8.6205156 11.413359 8.7285156 11.443359 C 8.8425156 11.479359 8.9600781 11.496094 9.0800781 11.496094 C 9.2480781 11.496094 9.3972969 11.479359 9.5292969 11.443359 C 9.6672969 11.407359 9.7904375 11.343906 9.8984375 11.253906 C 10.006437 11.169906 10.101547 11.057922 10.185547 10.919922 C 10.275547 10.781922 10.363266 10.608437 10.447266 10.398438 C 10.249266 10.032438 10.057094 9.6518594 9.8710938 9.2558594 C 9.6910938 8.8598594 9.5194219 8.4605937 9.3574219 8.0585938 C 9.2014219 7.6505938 9.0577812 7.24575 8.9257812 6.84375 C 8.7937813 6.43575 8.6799844 6.0364844 8.5839844 5.6464844 z M 4.1484375 7.3105469 L 4.1484375 9.7675781 C 4.2384375 9.7795781 4.3727344 9.7964531 4.5527344 9.8144531 C 4.7327344 9.8264531 4.9175156 9.8320312 5.1035156 9.8320312 C 5.3795156 9.8320312 5.6462969 9.8133437 5.9042969 9.7773438 C 6.1682969 9.7413438 6.3977031 9.6760781 6.5957031 9.5800781 C 6.7937031 9.4840781 6.9542188 9.3515938 7.0742188 9.1835938 C 7.1942188 9.0155937 7.2539062 8.7991562 7.2539062 8.5351562 C 7.2539062 8.2951562 7.2109531 8.0974063 7.1269531 7.9414062 C 7.0429531 7.7794063 6.9235781 7.6544531 6.7675781 7.5644531 C 6.6115781 7.4684531 6.4194063 7.4012344 6.1914062 7.3652344 C 5.9694062 7.3292344 5.7213125 7.3105469 5.4453125 7.3105469 L 4.1484375 7.3105469 z "
     id="path4" />
</svg>
