<?xml version="1.0" encoding="UTF-8" standalone="no"?>
<svg
   xmlns:dc="http://purl.org/dc/elements/1.1/"
   xmlns:cc="http://creativecommons.org/ns#"
   xmlns:rdf="http://www.w3.org/1999/02/22-rdf-syntax-ns#"
   xmlns:svg="http://www.w3.org/2000/svg"
   xmlns="http://www.w3.org/2000/svg"
   xmlns:sodipodi="http://sodipodi.sourceforge.net/DTD/sodipodi-0.dtd"
   xmlns:inkscape="http://www.inkscape.org/namespaces/inkscape"
   viewBox="0 0 16 16"
   id="svg2"
   version="1.1"
   inkscape:version="0.91 r13725"
   sodipodi:docname="indicator-keyboard-Ku-7.svg">
  <metadata
     id="metadata14">
    <rdf:RDF>
      <cc:Work
         rdf:about="">
        <dc:format>image/svg+xml</dc:format>
        <dc:type
           rdf:resource="http://purl.org/dc/dcmitype/StillImage" />
      </cc:Work>
    </rdf:RDF>
  </metadata>
  <defs
     id="defs12" />
  <sodipodi:namedview
     pagecolor="#ffffff"
     bordercolor="#666666"
     borderopacity="1"
     objecttolerance="10"
     gridtolerance="10"
     guidetolerance="10"
     inkscape:pageopacity="0"
     inkscape:pageshadow="2"
     inkscape:window-width="640"
     inkscape:window-height="480"
     id="namedview10"
     showgrid="false"
     inkscape:zoom="14.75"
     inkscape:cx="8"
     inkscape:cy="8"
     inkscape:window-x="65"
     inkscape:window-y="24"
     inkscape:window-maximized="0"
     inkscape:current-layer="svg2" />
  <path
     style="fill:#353535;fill-opacity:1"
     d="M 1.5996094 0 C 0.71320937 2.9605947e-16 0 0.71320937 0 1.5996094 L 0 14.400391 C 2.9605947e-16 15.286791 0.71320937 16 1.5996094 16 L 14.400391 16 C 15.286791 16 16 15.286791 16 14.400391 L 16 1.5996094 C 16 0.71320937 15.286791 0 14.400391 0 L 1.5996094 0 z M 1.7167969 4.859375 L 2.328125 4.859375 L 2.328125 7.765625 C 2.556125 7.561625 2.8079844 7.3284531 3.0839844 7.0644531 C 3.3659844 6.7944531 3.6421094 6.5239062 3.9121094 6.2539062 C 4.1881094 5.9839063 4.4455469 5.7264687 4.6855469 5.4804688 C 4.9255469 5.2344688 5.1177187 5.027375 5.2617188 4.859375 L 6 4.859375 C 5.826 5.045375 5.6151406 5.2673906 5.3691406 5.5253906 C 5.1231406 5.7773906 4.8619375 6.0385937 4.5859375 6.3085938 C 4.3099375 6.5785938 4.0357656 6.845375 3.7597656 7.109375 C 3.4897656 7.367375 3.2452969 7.5949688 3.0292969 7.7929688 C 3.2032969 7.9009687 3.3898906 8.0352656 3.5878906 8.1972656 C 3.7918906 8.3532656 3.9952187 8.5287031 4.1992188 8.7207031 C 4.4092188 8.9067031 4.6145 9.1044531 4.8125 9.3144531 C 5.0165 9.5184531 5.2049063 9.7255469 5.3789062 9.9355469 C 5.5589062 10.145547 5.7174688 10.348875 5.8554688 10.546875 C 5.9994688 10.744875 6.1170312 10.927703 6.2070312 11.095703 L 5.5234375 11.095703 C 5.3194375 10.783703 5.0880781 10.475922 4.8300781 10.169922 C 4.5780781 9.8639217 4.3112969 9.5746875 4.0292969 9.3046875 C 3.7472969 9.0346875 3.4580625 8.7884063 3.1640625 8.5664062 C 2.8760625 8.3444062 2.598125 8.1597656 2.328125 8.0097656 L 2.328125 11.095703 L 1.7167969 11.095703 L 1.7167969 4.859375 z M 7.0214844 6.4433594 L 7.6074219 6.4433594 L 7.6074219 8.8632812 C 7.6074219 9.1932813 7.6316875 9.4731719 7.6796875 9.7011719 C 7.7276875 9.9291721 7.8060625 10.115766 7.9140625 10.259766 C 8.0220625 10.397766 8.160125 10.498453 8.328125 10.564453 C 8.502125 10.624453 8.7110312 10.654297 8.9570312 10.654297 C 9.2330312 10.654297 9.4737344 10.639375 9.6777344 10.609375 C 9.8817344 10.579375 10.010453 10.553297 10.064453 10.529297 L 10.064453 6.4433594 L 10.648438 6.4433594 L 10.648438 10.933594 C 10.474437 10.981594 10.241266 11.035703 9.9472656 11.095703 C 9.6532656 11.155703 9.2931875 11.185547 8.8671875 11.185547 C 8.5191875 11.185547 8.2281406 11.135203 7.9941406 11.033203 C 7.7601406 10.931203 7.5717344 10.787563 7.4277344 10.601562 C 7.2837344 10.415563 7.1792812 10.189781 7.1132812 9.9257812 C 7.0532813 9.6617812 7.0214844 9.3707344 7.0214844 9.0527344 L 7.0214844 6.4433594 z M 11.820312 8.8417969 L 14.283203 8.8417969 L 14.283203 9.1816406 C 14.150603 9.3415406 14.005603 9.5551188 13.845703 9.8242188 C 13.689703 10.089419 13.540791 10.391163 13.400391 10.726562 C 13.259991 11.058062 13.13655 11.410756 13.03125 11.785156 C 12.92985 12.159556 12.869103 12.529884 12.845703 12.896484 L 12.441406 12.896484 C 12.464806 12.572784 12.523587 12.229888 12.617188 11.867188 C 12.714687 11.504488 12.83225 11.1518 12.96875 10.8125 C 13.10915 10.4732 13.258069 10.161653 13.417969 9.8769531 C 13.581769 9.5922532 13.740478 9.3649594 13.892578 9.1933594 L 11.820312 9.1933594 L 11.820312 8.8417969 z "
     id="path4" />
</svg>
