<?xml version="1.0" encoding="UTF-8" standalone="no"?>
<svg
   xmlns:dc="http://purl.org/dc/elements/1.1/"
   xmlns:cc="http://creativecommons.org/ns#"
   xmlns:rdf="http://www.w3.org/1999/02/22-rdf-syntax-ns#"
   xmlns:svg="http://www.w3.org/2000/svg"
   xmlns="http://www.w3.org/2000/svg"
   xmlns:sodipodi="http://sodipodi.sourceforge.net/DTD/sodipodi-0.dtd"
   xmlns:inkscape="http://www.inkscape.org/namespaces/inkscape"
   viewBox="0 0 16 16"
   id="svg2"
   version="1.1"
   inkscape:version="0.91 r13725"
   sodipodi:docname="indicator-keyboard-My.svg">
  <metadata
     id="metadata13">
    <rdf:RDF>
      <cc:Work
         rdf:about="">
        <dc:format>image/svg+xml</dc:format>
        <dc:type
           rdf:resource="http://purl.org/dc/dcmitype/StillImage" />
      </cc:Work>
    </rdf:RDF>
  </metadata>
  <defs
     id="defs11" />
  <sodipodi:namedview
     pagecolor="#ffffff"
     bordercolor="#666666"
     borderopacity="1"
     objecttolerance="10"
     gridtolerance="10"
     guidetolerance="10"
     inkscape:pageopacity="0"
     inkscape:pageshadow="2"
     inkscape:window-width="640"
     inkscape:window-height="480"
     id="namedview9"
     showgrid="false"
     inkscape:zoom="14.75"
     inkscape:cx="8"
     inkscape:cy="8"
     inkscape:window-x="65"
     inkscape:window-y="24"
     inkscape:window-maximized="0"
     inkscape:current-layer="svg2" />
  <path
     style="fill:#353535;fill-opacity:1"
     d="M 1.5996094 0 C 0.71320937 2.9605947e-16 0 0.71320937 0 1.5996094 L 0 14.400391 C 2.9605947e-16 15.286791 0.71320937 16 1.5996094 16 L 14.400391 16 C 15.286791 16 16 15.286791 16 14.400391 L 16 1.5996094 C 16 0.71320937 15.286791 0 14.400391 0 L 1.5996094 0 z M 2.8457031 4.0351562 L 3.3867188 4.0351562 C 3.5667187 4.3351562 3.7588906 4.6840781 3.9628906 5.0800781 C 4.1668906 5.4700781 4.3684062 5.8767344 4.5664062 6.3027344 C 4.7704062 6.7227344 4.9643906 7.1406875 5.1503906 7.5546875 C 5.3423906 7.9626875 5.5102969 8.3321094 5.6542969 8.6621094 C 5.7982969 8.3321094 5.9643906 7.9626875 6.1503906 7.5546875 C 6.3423906 7.1406875 6.536375 6.7227344 6.734375 6.3027344 C 6.938375 5.8767344 7.1417031 5.4700781 7.3457031 5.0800781 C 7.5497031 4.6840781 7.741875 4.3351562 7.921875 4.0351562 L 8.4355469 4.0351562 C 8.5375469 4.9831563 8.6215 5.9756719 8.6875 7.0136719 C 8.7595 8.0516719 8.8229531 9.1394375 8.8769531 10.273438 L 8.2558594 10.273438 C 8.2198594 9.3074375 8.1769063 8.3857656 8.1289062 7.5097656 C 8.0869063 6.6277656 8.0272187 5.8105469 7.9492188 5.0605469 C 7.9012187 5.1445469 7.8266094 5.2901406 7.7246094 5.4941406 C 7.6226094 5.6981406 7.5050469 5.9350781 7.3730469 6.2050781 C 7.2410469 6.4750781 7.1029844 6.766125 6.9589844 7.078125 C 6.8149844 7.384125 6.6751094 7.6825625 6.5371094 7.9765625 C 6.3991094 8.2645625 6.2722031 8.5332969 6.1582031 8.7792969 C 6.0502031 9.0252969 5.96625 9.2230469 5.90625 9.3730469 L 5.3574219 9.3730469 C 5.2974219 9.2230469 5.2097031 9.0252969 5.0957031 8.7792969 C 4.9877031 8.5332969 4.8645625 8.2645625 4.7265625 7.9765625 C 4.5885625 7.6825625 4.4486875 7.384125 4.3046875 7.078125 C 4.1606875 6.766125 4.022625 6.4750781 3.890625 6.2050781 C 3.758625 5.9350781 3.6410625 5.6981406 3.5390625 5.4941406 C 3.4370625 5.2901406 3.3624531 5.1445469 3.3144531 5.0605469 C 3.2364531 5.8105469 3.173 6.6277656 3.125 7.5097656 C 3.083 8.3857656 3.0438125 9.3074375 3.0078125 10.273438 L 2.40625 10.273438 C 2.46025 9.1394375 2.5199375 8.0516719 2.5859375 7.0136719 C 2.6579375 5.9756719 2.7437031 4.9831563 2.8457031 4.0351562 z M 9.7148438 5.6191406 L 10.335938 5.6191406 C 10.401938 5.9071406 10.485891 6.2186875 10.587891 6.5546875 C 10.689891 6.8846875 10.803687 7.2280312 10.929688 7.5820312 C 11.061688 7.9360313 11.207281 8.2979219 11.363281 8.6699219 C 11.519281 9.0419219 11.687187 9.4075781 11.867188 9.7675781 C 11.999188 9.3955781 12.114797 9.0448438 12.216797 8.7148438 C 12.318797 8.3848438 12.412094 8.058375 12.496094 7.734375 C 12.586094 7.404375 12.670047 7.0685625 12.748047 6.7265625 C 12.832047 6.3845625 12.919766 6.0151406 13.009766 5.6191406 L 13.59375 5.6191406 C 13.40175 6.4891406 13.1835 7.3362031 12.9375 8.1582031 C 12.6915 8.9802031 12.424719 9.7320156 12.136719 10.416016 C 12.022719 10.686016 11.905156 10.917375 11.785156 11.109375 C 11.665156 11.307375 11.530859 11.469703 11.380859 11.595703 C 11.236859 11.721703 11.065187 11.815 10.867188 11.875 C 10.675187 11.935 10.447594 11.964844 10.183594 11.964844 C 10.033594 11.964844 9.8955313 11.946156 9.7695312 11.910156 C 9.6495312 11.874156 9.5749219 11.848078 9.5449219 11.830078 L 9.6621094 11.34375 C 9.6861094 11.36175 9.751375 11.386016 9.859375 11.416016 C 9.9733751 11.452016 10.090937 11.46875 10.210938 11.46875 C 10.378938 11.46875 10.528156 11.452016 10.660156 11.416016 C 10.798156 11.380016 10.921297 11.316563 11.029297 11.226562 C 11.137297 11.142562 11.234359 11.030578 11.318359 10.892578 C 11.408359 10.754578 11.494125 10.581094 11.578125 10.371094 C 11.380125 10.005094 11.187953 9.6245156 11.001953 9.2285156 C 10.821953 8.8325156 10.652234 8.43325 10.490234 8.03125 C 10.334234 7.62325 10.188641 7.2184063 10.056641 6.8164062 C 9.9246406 6.4084062 9.8108438 6.0091406 9.7148438 5.6191406 z "
     id="path4" />
</svg>
