<?xml version="1.0" encoding="UTF-8" standalone="no"?>
<svg
   xmlns:dc="http://purl.org/dc/elements/1.1/"
   xmlns:cc="http://creativecommons.org/ns#"
   xmlns:rdf="http://www.w3.org/1999/02/22-rdf-syntax-ns#"
   xmlns:svg="http://www.w3.org/2000/svg"
   xmlns="http://www.w3.org/2000/svg"
   xmlns:sodipodi="http://sodipodi.sourceforge.net/DTD/sodipodi-0.dtd"
   xmlns:inkscape="http://www.inkscape.org/namespaces/inkscape"
   viewBox="0 0 16 16"
   id="svg2"
   version="1.1"
   inkscape:version="0.91 r13725"
   sodipodi:docname="indicator-keyboard-Ku-3.svg">
  <metadata
     id="metadata14">
    <rdf:RDF>
      <cc:Work
         rdf:about="">
        <dc:format>image/svg+xml</dc:format>
        <dc:type
           rdf:resource="http://purl.org/dc/dcmitype/StillImage" />
      </cc:Work>
    </rdf:RDF>
  </metadata>
  <defs
     id="defs12" />
  <sodipodi:namedview
     pagecolor="#ffffff"
     bordercolor="#666666"
     borderopacity="1"
     objecttolerance="10"
     gridtolerance="10"
     guidetolerance="10"
     inkscape:pageopacity="0"
     inkscape:pageshadow="2"
     inkscape:window-width="640"
     inkscape:window-height="480"
     id="namedview10"
     showgrid="false"
     inkscape:zoom="14.75"
     inkscape:cx="8"
     inkscape:cy="8"
     inkscape:window-x="65"
     inkscape:window-y="24"
     inkscape:window-maximized="0"
     inkscape:current-layer="svg2" />
  <path
     style="fill:#353535;fill-opacity:1"
     d="M 1.5996094 0 C 0.71320937 2.9605947e-16 0 0.71320937 0 1.5996094 L 0 14.400391 C 2.9605947e-16 15.286791 0.71320937 16 1.5996094 16 L 14.400391 16 C 15.286791 16 16 15.286791 16 14.400391 L 16 1.5996094 C 16 0.71320937 15.286791 0 14.400391 0 L 1.5996094 0 z M 1.7402344 4.859375 L 2.3515625 4.859375 L 2.3515625 7.765625 C 2.5795625 7.561625 2.8314219 7.3284531 3.1074219 7.0644531 C 3.3894219 6.7944531 3.6655469 6.5239062 3.9355469 6.2539062 C 4.2115469 5.9839063 4.4689844 5.7264687 4.7089844 5.4804688 C 4.9489844 5.2344688 5.1411562 5.027375 5.2851562 4.859375 L 6.0234375 4.859375 C 5.8494375 5.045375 5.6385781 5.2673906 5.3925781 5.5253906 C 5.1465781 5.7773906 4.885375 6.0385937 4.609375 6.3085938 C 4.333375 6.5785938 4.0592031 6.845375 3.7832031 7.109375 C 3.5132031 7.367375 3.2687344 7.5949688 3.0527344 7.7929688 C 3.2267344 7.9009687 3.4133281 8.0352656 3.6113281 8.1972656 C 3.8153281 8.3532656 4.0186562 8.5287031 4.2226562 8.7207031 C 4.4326563 8.9067031 4.6379375 9.1044531 4.8359375 9.3144531 C 5.0399375 9.5184531 5.2283438 9.7255469 5.4023438 9.9355469 C 5.5823437 10.145547 5.7409063 10.348875 5.8789062 10.546875 C 6.0229063 10.744875 6.1404687 10.927703 6.2304688 11.095703 L 5.546875 11.095703 C 5.342875 10.783703 5.1115156 10.475922 4.8535156 10.169922 C 4.6015156 9.8639217 4.3347344 9.5746875 4.0527344 9.3046875 C 3.7707344 9.0346875 3.4815 8.7884063 3.1875 8.5664062 C 2.8995 8.3444062 2.6215625 8.1597656 2.3515625 8.0097656 L 2.3515625 11.095703 L 1.7402344 11.095703 L 1.7402344 4.859375 z M 7.0449219 6.4433594 L 7.6308594 6.4433594 L 7.6308594 8.8632812 C 7.6308594 9.1932813 7.655125 9.4731719 7.703125 9.7011719 C 7.751125 9.9291721 7.8295 10.115766 7.9375 10.259766 C 8.0455 10.397766 8.1835625 10.498453 8.3515625 10.564453 C 8.5255625 10.624453 8.7344688 10.654297 8.9804688 10.654297 C 9.2564687 10.654297 9.4971719 10.639375 9.7011719 10.609375 C 9.9051717 10.579375 10.033891 10.553297 10.087891 10.529297 L 10.087891 6.4433594 L 10.671875 6.4433594 L 10.671875 10.933594 C 10.497875 10.981594 10.264703 11.035703 9.9707031 11.095703 C 9.6767031 11.155703 9.316625 11.185547 8.890625 11.185547 C 8.542625 11.185547 8.2515781 11.135203 8.0175781 11.033203 C 7.7835781 10.931203 7.5951719 10.787563 7.4511719 10.601562 C 7.3071719 10.415563 7.2027188 10.189781 7.1367188 9.9257812 C 7.0767188 9.6617812 7.0449219 9.3707344 7.0449219 9.0527344 L 7.0449219 6.4433594 z M 12.892578 8.7539062 C 13.095378 8.7539062 13.267809 8.7793781 13.412109 8.8300781 C 13.560309 8.8807781 13.68375 8.953275 13.78125 9.046875 C 13.87875 9.136575 13.951247 9.2463 13.998047 9.375 C 14.044847 9.4997999 14.068359 9.6350031 14.068359 9.7832031 C 14.068359 10.021103 14.0037 10.217041 13.875 10.369141 C 13.7502 10.517341 13.587572 10.625106 13.388672 10.691406 C 13.497872 10.718706 13.603678 10.759859 13.705078 10.818359 C 13.810378 10.872959 13.904428 10.945456 13.986328 11.035156 C 14.068228 11.120956 14.134847 11.226762 14.185547 11.351562 C 14.236247 11.476363 14.259766 11.623316 14.259766 11.791016 C 14.259766 11.962616 14.230369 12.119372 14.167969 12.263672 C 14.109469 12.407972 14.019337 12.535331 13.898438 12.644531 C 13.781437 12.749831 13.630566 12.834084 13.447266 12.896484 C 13.263966 12.954984 13.050387 12.984375 12.804688 12.984375 C 12.675987 12.984375 12.556466 12.974578 12.447266 12.955078 C 12.341966 12.939478 12.247916 12.919884 12.166016 12.896484 C 12.084116 12.873084 12.013578 12.849572 11.955078 12.826172 C 11.900478 12.802772 11.859331 12.783178 11.832031 12.767578 L 11.931641 12.427734 C 11.955041 12.443334 11.994228 12.462928 12.048828 12.486328 C 12.103428 12.509728 12.168087 12.533241 12.242188 12.556641 C 12.320187 12.576141 12.4064 12.593775 12.5 12.609375 C 12.5975 12.624975 12.703306 12.632813 12.816406 12.632812 C 13.186906 12.632812 13.451428 12.556397 13.611328 12.404297 C 13.771228 12.248297 13.851562 12.040597 13.851562 11.779297 C 13.851562 11.607697 13.818253 11.464662 13.751953 11.351562 C 13.689553 11.238462 13.601381 11.148331 13.488281 11.082031 C 13.379081 11.011831 13.249762 10.962847 13.101562 10.935547 C 12.957263 10.904347 12.804425 10.888672 12.640625 10.888672 L 12.582031 10.888672 L 12.582031 10.574219 L 12.716797 10.574219 C 12.822097 10.574219 12.927909 10.564422 13.037109 10.544922 C 13.150209 10.521522 13.252097 10.480375 13.341797 10.421875 C 13.435397 10.363375 13.511812 10.285 13.570312 10.1875 C 13.632713 10.09 13.664063 9.9646001 13.664062 9.8125 C 13.664062 9.6838 13.642509 9.5760281 13.599609 9.4863281 C 13.556709 9.3927281 13.497928 9.3182719 13.423828 9.2636719 C 13.353628 9.2090719 13.269375 9.1698844 13.171875 9.1464844 C 13.078275 9.1191844 12.9803 9.1054687 12.875 9.1054688 C 12.6644 9.1054688 12.499812 9.1348594 12.382812 9.1933594 C 12.265813 9.2518594 12.169803 9.3067219 12.095703 9.3574219 L 11.931641 9.0585938 C 11.970641 9.0312937 12.019625 8.9999438 12.078125 8.9648438 C 12.140525 8.9297438 12.213022 8.8964344 12.294922 8.8652344 C 12.376821 8.8340344 12.466953 8.8085625 12.564453 8.7890625 C 12.665853 8.7656625 12.775578 8.7539062 12.892578 8.7539062 z "
     id="path4" />
</svg>
