<?xml version="1.0" encoding="UTF-8" standalone="no"?>
<svg
   xmlns:dc="http://purl.org/dc/elements/1.1/"
   xmlns:cc="http://creativecommons.org/ns#"
   xmlns:rdf="http://www.w3.org/1999/02/22-rdf-syntax-ns#"
   xmlns:svg="http://www.w3.org/2000/svg"
   xmlns="http://www.w3.org/2000/svg"
   xmlns:sodipodi="http://sodipodi.sourceforge.net/DTD/sodipodi-0.dtd"
   xmlns:inkscape="http://www.inkscape.org/namespaces/inkscape"
   viewBox="0 0 16 16"
   id="svg2"
   version="1.1"
   inkscape:version="0.91 r13725"
   sodipodi:docname="indicator-keyboard-Br-2.svg">
  <metadata
     id="metadata14">
    <rdf:RDF>
      <cc:Work
         rdf:about="">
        <dc:format>image/svg+xml</dc:format>
        <dc:type
           rdf:resource="http://purl.org/dc/dcmitype/StillImage" />
      </cc:Work>
    </rdf:RDF>
  </metadata>
  <defs
     id="defs12" />
  <sodipodi:namedview
     pagecolor="#ffffff"
     bordercolor="#666666"
     borderopacity="1"
     objecttolerance="10"
     gridtolerance="10"
     guidetolerance="10"
     inkscape:pageopacity="0"
     inkscape:pageshadow="2"
     inkscape:window-width="459"
     inkscape:window-height="369"
     id="namedview10"
     showgrid="false"
     inkscape:zoom="14.75"
     inkscape:cx="8"
     inkscape:cy="8"
     inkscape:window-x="65"
     inkscape:window-y="24"
     inkscape:window-maximized="0"
     inkscape:current-layer="svg2" />
  <path
     style="fill:#353535;fill-opacity:1"
     d="M 1.5996094 0 C 0.71320937 2.9605947e-16 0 0.71320937 0 1.5996094 L 0 14.400391 C 2.9605947e-16 15.286791 0.71320937 16 1.5996094 16 L 14.400391 16 C 15.286791 16 16 15.286791 16 14.400391 L 16 1.5996094 C 16 0.71320937 15.286791 0 14.400391 0 L 1.5996094 0 z M 4.0410156 4.8046875 C 4.3770156 4.8046875 4.6941406 4.8327187 4.9941406 4.8867188 C 5.3001406 4.9407187 5.5669219 5.03025 5.7949219 5.15625 C 6.0229219 5.28225 6.2039375 5.4501562 6.3359375 5.6601562 C 6.4739375 5.8641563 6.5429688 6.1197812 6.5429688 6.4257812 C 6.5429688 6.7617812 6.45525 7.0490625 6.28125 7.2890625 C 6.11325 7.5230625 5.8856563 7.6853906 5.5976562 7.7753906 C 5.7776562 7.8173906 5.9417969 7.8770781 6.0917969 7.9550781 C 6.2417969 8.0330781 6.3742812 8.1357187 6.4882812 8.2617188 C 6.6022813 8.3817188 6.69 8.5309375 6.75 8.7109375 C 6.816 8.8849375 6.8476562 9.0957969 6.8476562 9.3417969 C 6.8476562 9.9297971 6.6144844 10.379406 6.1464844 10.691406 C 5.6784844 10.997406 4.9545625 11.150391 3.9765625 11.150391 C 3.8745625 11.150391 3.7551875 11.144813 3.6171875 11.132812 C 3.4851875 11.126813 3.347125 11.113703 3.203125 11.095703 C 3.065125 11.083703 2.9326406 11.068781 2.8066406 11.050781 C 2.6806406 11.026781 2.574375 11.002516 2.484375 10.978516 L 2.484375 4.9765625 C 2.592375 4.9465625 2.71175 4.9222969 2.84375 4.9042969 C 2.97575 4.8802969 3.1100469 4.8616094 3.2480469 4.8496094 C 3.3920469 4.8316094 3.5301094 4.8204531 3.6621094 4.8144531 C 3.8001094 4.8084531 3.9270156 4.8046875 4.0410156 4.8046875 z M 4.0410156 5.3261719 C 3.8190156 5.3261719 3.6286563 5.3337031 3.4726562 5.3457031 C 3.3226563 5.3577031 3.1977031 5.372625 3.0957031 5.390625 L 3.0957031 7.5859375 L 4.2832031 7.5859375 C 4.5052031 7.5859375 4.7160625 7.5710156 4.9140625 7.5410156 C 5.1120625 7.5050156 5.2817813 7.4453281 5.4257812 7.3613281 C 5.5757812 7.2713281 5.6933437 7.1537656 5.7773438 7.0097656 C 5.8613437 6.8597656 5.9042969 6.6713594 5.9042969 6.4433594 C 5.9042969 6.2393594 5.8575781 6.0676875 5.7675781 5.9296875 C 5.6775781 5.7856875 5.5488594 5.668125 5.3808594 5.578125 C 5.2188594 5.488125 5.024875 5.426625 4.796875 5.390625 C 4.568875 5.348625 4.3170156 5.3261719 4.0410156 5.3261719 z M 9.7089844 6.3535156 C 9.9009844 6.3535156 10.082 6.3684375 10.25 6.3984375 C 10.424 6.4284375 10.543375 6.4582812 10.609375 6.4882812 L 10.492188 6.9921875 C 10.444188 6.9681875 10.345312 6.9439219 10.195312 6.9199219 C 10.051313 6.8899219 9.8591406 6.875 9.6191406 6.875 C 9.3671406 6.875 9.1638125 6.8936875 9.0078125 6.9296875 C 8.8578125 6.9656875 8.7589375 6.9955312 8.7109375 7.0195312 L 8.7109375 11.095703 L 8.125 11.095703 L 8.125 6.6582031 C 8.275 6.5922031 8.4820937 6.5269375 8.7460938 6.4609375 C 9.0100937 6.3889375 9.3309844 6.3535156 9.7089844 6.3535156 z M 3.0957031 8.1074219 L 3.0957031 10.564453 C 3.1857031 10.576453 3.32 10.591375 3.5 10.609375 C 3.68 10.621375 3.8628281 10.628906 4.0488281 10.628906 C 4.3248281 10.628906 4.5916094 10.610219 4.8496094 10.574219 C 5.1136094 10.538219 5.3449687 10.472953 5.5429688 10.376953 C 5.7409687 10.280953 5.8995313 10.148469 6.0195312 9.9804688 C 6.1395313 9.8124687 6.2011719 9.5960312 6.2011719 9.3320312 C 6.2011719 9.0920313 6.1582187 8.8942813 6.0742188 8.7382812 C 5.9902188 8.5762813 5.8708437 8.449375 5.7148438 8.359375 C 5.5588438 8.263375 5.3666719 8.1981094 5.1386719 8.1621094 C 4.9166719 8.1261094 4.666625 8.1074219 4.390625 8.1074219 L 3.0957031 8.1074219 z M 12.189453 8.7539062 C 12.583353 8.7539062 12.879225 8.851875 13.078125 9.046875 C 13.277025 9.237975 13.376953 9.5044563 13.376953 9.8476562 C 13.376953 9.9997563 13.349522 10.14475 13.294922 10.28125 C 13.240322 10.41385 13.165866 10.543169 13.072266 10.667969 C 12.982566 10.792769 12.878719 10.912297 12.761719 11.029297 C 12.644719 11.146297 12.525197 11.263859 12.404297 11.380859 C 12.302897 11.478359 12.204922 11.578288 12.107422 11.679688 C 12.013822 11.777188 11.927609 11.877116 11.849609 11.978516 C 11.775509 12.076016 11.714769 12.172031 11.667969 12.269531 C 11.625069 12.363131 11.603516 12.457181 11.603516 12.550781 L 11.603516 12.5625 L 13.515625 12.5625 L 13.515625 12.896484 L 11.181641 12.896484 C 11.181641 12.888684 11.179715 12.874969 11.175781 12.855469 L 11.175781 12.755859 C 11.175781 12.572559 11.209091 12.402094 11.275391 12.246094 C 11.341691 12.086194 11.425944 11.937275 11.527344 11.796875 C 11.632644 11.656475 11.748247 11.525197 11.873047 11.404297 C 12.001747 11.283397 12.125188 11.165834 12.242188 11.052734 C 12.339687 10.959134 12.429825 10.869003 12.515625 10.783203 C 12.605325 10.693503 12.6837 10.603366 12.75 10.509766 C 12.8163 10.416166 12.869203 10.316237 12.908203 10.210938 C 12.947203 10.105638 12.966797 9.9900344 12.966797 9.8652344 C 12.966797 9.5922344 12.892341 9.39825 12.744141 9.28125 C 12.599841 9.16035 12.417613 9.0996094 12.195312 9.0996094 C 12.070512 9.0996094 11.958828 9.1152844 11.861328 9.1464844 C 11.763828 9.1776844 11.677616 9.2149125 11.603516 9.2578125 C 11.533316 9.2968125 11.472575 9.3379594 11.421875 9.3808594 C 11.371175 9.4237594 11.333947 9.4570688 11.310547 9.4804688 L 11.111328 9.2167969 C 11.134728 9.1894969 11.175875 9.1503094 11.234375 9.0996094 C 11.296775 9.0450094 11.373191 8.9921062 11.462891 8.9414062 C 11.556491 8.8907063 11.664256 8.8476 11.785156 8.8125 C 11.906056 8.7735 12.041253 8.7539063 12.189453 8.7539062 z "
     id="path4" />
</svg>
