<?xml version="1.0" encoding="UTF-8" standalone="no"?>
<svg
   xmlns:dc="http://purl.org/dc/elements/1.1/"
   xmlns:cc="http://creativecommons.org/ns#"
   xmlns:rdf="http://www.w3.org/1999/02/22-rdf-syntax-ns#"
   xmlns:svg="http://www.w3.org/2000/svg"
   xmlns="http://www.w3.org/2000/svg"
   xmlns:sodipodi="http://sodipodi.sourceforge.net/DTD/sodipodi-0.dtd"
   xmlns:inkscape="http://www.inkscape.org/namespaces/inkscape"
   viewBox="0 0 16 16"
   id="svg2"
   version="1.1"
   inkscape:version="0.91 r13725"
   sodipodi:docname="indicator-keyboard-Pl-9.svg">
  <metadata
     id="metadata14">
    <rdf:RDF>
      <cc:Work
         rdf:about="">
        <dc:format>image/svg+xml</dc:format>
        <dc:type
           rdf:resource="http://purl.org/dc/dcmitype/StillImage" />
      </cc:Work>
    </rdf:RDF>
  </metadata>
  <defs
     id="defs12" />
  <sodipodi:namedview
     pagecolor="#ffffff"
     bordercolor="#666666"
     borderopacity="1"
     objecttolerance="10"
     gridtolerance="10"
     guidetolerance="10"
     inkscape:pageopacity="0"
     inkscape:pageshadow="2"
     inkscape:window-width="459"
     inkscape:window-height="369"
     id="namedview10"
     showgrid="false"
     inkscape:zoom="14.75"
     inkscape:cx="8"
     inkscape:cy="8"
     inkscape:window-x="65"
     inkscape:window-y="24"
     inkscape:window-maximized="0"
     inkscape:current-layer="svg2" />
  <path
     style="fill:#353535;fill-opacity:1"
     d="M 1.5996094 0 C 0.71320937 2.9605947e-16 0 0.71320937 0 1.5996094 L 0 14.400391 C 2.9605947e-16 15.286791 0.71320937 16 1.5996094 16 L 14.400391 16 C 15.286791 16 16 15.286791 16 14.400391 L 16 1.5996094 C 16 0.71320937 15.286791 0 14.400391 0 L 1.5996094 0 z M 9.0234375 4.1113281 L 9.0234375 9.9628906 C 9.0234375 10.106891 9.0345938 10.2225 9.0585938 10.3125 C 9.0885937 10.3965 9.1315469 10.465531 9.1855469 10.519531 C 9.2395469 10.567531 9.3085781 10.604906 9.3925781 10.628906 C 9.4825781 10.652906 9.5870313 10.673406 9.7070312 10.691406 L 9.6269531 11.177734 C 9.4289531 11.171734 9.2535156 11.143703 9.1035156 11.095703 C 8.9595156 11.053703 8.8383281 10.988438 8.7363281 10.898438 C 8.6403281 10.802438 8.5637656 10.681109 8.5097656 10.537109 C 8.4617656 10.387109 8.4375 10.202469 8.4375 9.9804688 L 8.4375 4.2207031 L 9.0234375 4.1113281 z M 4.7324219 4.8046875 C 5.6144219 4.8046875 6.271125 4.9725937 6.703125 5.3085938 C 7.135125 5.6445937 7.3515625 6.1222344 7.3515625 6.7402344 C 7.3515625 7.0942344 7.2881094 7.3964375 7.1621094 7.6484375 C 7.0361094 7.8944375 6.8570469 8.0959531 6.6230469 8.2519531 C 6.3890469 8.4019531 6.0998125 8.5139375 5.7578125 8.5859375 C 5.4218125 8.6519375 5.0412344 8.6835937 4.6152344 8.6835938 L 3.7695312 8.6835938 L 3.7695312 11.095703 L 3.1582031 11.095703 L 3.1582031 4.9765625 C 3.3742031 4.9165625 3.6260625 4.8736094 3.9140625 4.8496094 C 4.2080625 4.8196094 4.4804219 4.8046875 4.7324219 4.8046875 z M 4.7597656 5.3359375 C 4.5317656 5.3359375 4.3358281 5.3452813 4.1738281 5.3632812 C 4.0178281 5.3752813 3.8835313 5.3864375 3.7695312 5.3984375 L 3.7695312 8.1523438 L 4.5429688 8.1523438 C 4.8729687 8.1523438 5.1695938 8.1356094 5.4335938 8.0996094 C 5.7035937 8.0576094 5.9331406 7.9848125 6.1191406 7.8828125 C 6.3111406 7.7748125 6.4565937 7.6274062 6.5585938 7.4414062 C 6.6605937 7.2554063 6.7128906 7.0184687 6.7128906 6.7304688 C 6.7128906 6.4544688 6.6550156 6.226875 6.5410156 6.046875 C 6.4330156 5.866875 6.2856094 5.7250469 6.0996094 5.6230469 C 5.9196094 5.5150469 5.7125156 5.4404375 5.4785156 5.3984375 C 5.2445156 5.3564375 5.0057656 5.3359375 4.7597656 5.3359375 z M 11.544922 8.7539062 C 11.970022 8.7539062 12.291366 8.9047781 12.509766 9.2050781 C 12.732066 9.5014781 12.841797 9.9168718 12.841797 10.451172 C 12.841797 11.266272 12.647813 11.879569 12.257812 12.292969 C 11.867813 12.702469 11.297628 12.908203 10.548828 12.908203 L 10.537109 12.591797 C 10.794509 12.591797 11.031594 12.562406 11.246094 12.503906 C 11.460594 12.445406 11.644781 12.355275 11.800781 12.234375 C 11.960681 12.109575 12.09 11.952819 12.1875 11.761719 C 12.2889 11.566719 12.357478 11.331594 12.392578 11.058594 C 12.287278 11.113194 12.159919 11.162178 12.011719 11.205078 C 11.863519 11.244078 11.706762 11.263672 11.539062 11.263672 C 11.320662 11.263672 11.134522 11.230363 10.982422 11.164062 C 10.830322 11.093863 10.706881 11.001772 10.613281 10.888672 C 10.519681 10.775572 10.451103 10.646247 10.408203 10.498047 C 10.365303 10.349847 10.345703 10.195056 10.345703 10.035156 C 10.345703 9.8869562 10.367262 9.7360844 10.414062 9.5839844 C 10.460862 9.4318844 10.533359 9.2966812 10.630859 9.1757812 C 10.732259 9.0509812 10.857659 8.9490938 11.005859 8.8710938 C 11.157959 8.7930937 11.338222 8.7539062 11.544922 8.7539062 z M 11.550781 9.0878906 C 11.406481 9.0878906 11.283041 9.1153219 11.181641 9.1699219 C 11.080241 9.2206219 10.997947 9.2892 10.935547 9.375 C 10.873147 9.4608 10.826122 9.5587751 10.794922 9.671875 C 10.767622 9.784975 10.753906 9.9025374 10.753906 10.023438 C 10.753906 10.331537 10.822484 10.560784 10.958984 10.708984 C 11.099384 10.857184 11.305119 10.929687 11.574219 10.929688 C 11.753619 10.929688 11.908416 10.910094 12.041016 10.871094 C 12.177516 10.828194 12.304875 10.781163 12.421875 10.726562 C 12.425808 10.679762 12.427734 10.634697 12.427734 10.591797 C 12.431668 10.548897 12.433594 10.499913 12.433594 10.445312 C 12.433594 10.262013 12.419878 10.087628 12.392578 9.9238281 C 12.369178 9.7600281 12.322153 9.6169874 12.251953 9.4921875 C 12.185653 9.3673875 12.095522 9.2694188 11.982422 9.1992188 C 11.869322 9.1251188 11.726281 9.0878906 11.550781 9.0878906 z "
     id="path4" />
</svg>
