<?xml version="1.0" encoding="UTF-8" standalone="no"?>
<svg
   xmlns:dc="http://purl.org/dc/elements/1.1/"
   xmlns:cc="http://creativecommons.org/ns#"
   xmlns:rdf="http://www.w3.org/1999/02/22-rdf-syntax-ns#"
   xmlns:svg="http://www.w3.org/2000/svg"
   xmlns="http://www.w3.org/2000/svg"
   xmlns:sodipodi="http://sodipodi.sourceforge.net/DTD/sodipodi-0.dtd"
   xmlns:inkscape="http://www.inkscape.org/namespaces/inkscape"
   viewBox="0 0 16 16"
   id="svg2"
   version="1.1"
   inkscape:version="0.91 r13725"
   sodipodi:docname="indicator-keyboard-Br.svg">
  <metadata
     id="metadata13">
    <rdf:RDF>
      <cc:Work
         rdf:about="">
        <dc:format>image/svg+xml</dc:format>
        <dc:type
           rdf:resource="http://purl.org/dc/dcmitype/StillImage" />
      </cc:Work>
    </rdf:RDF>
  </metadata>
  <defs
     id="defs11" />
  <sodipodi:namedview
     pagecolor="#ffffff"
     bordercolor="#666666"
     borderopacity="1"
     objecttolerance="10"
     gridtolerance="10"
     guidetolerance="10"
     inkscape:pageopacity="0"
     inkscape:pageshadow="2"
     inkscape:window-width="640"
     inkscape:window-height="480"
     id="namedview9"
     showgrid="false"
     inkscape:zoom="14.75"
     inkscape:cx="8"
     inkscape:cy="8"
     inkscape:window-x="65"
     inkscape:window-y="24"
     inkscape:window-maximized="0"
     inkscape:current-layer="svg2" />
  <path
     style="fill:#353535;fill-opacity:1"
     d="M 1.5996094 0 C 0.71320937 2.9605947e-16 0 0.71320937 0 1.5996094 L 0 14.400391 C 2.9605947e-16 15.286791 0.71320937 16 1.5996094 16 L 14.400391 16 C 15.286791 16 16 15.286791 16 14.400391 L 16 1.5996094 C 16 0.71320937 15.286791 0 14.400391 0 L 1.5996094 0 z M 5.4941406 4.828125 C 5.8301406 4.828125 6.1472656 4.8542031 6.4472656 4.9082031 C 6.7532656 4.9622031 7.022 5.0517344 7.25 5.1777344 C 7.478 5.3037344 7.6570625 5.4716406 7.7890625 5.6816406 C 7.9270625 5.8856406 7.9960938 6.1412656 7.9960938 6.4472656 C 7.9960938 6.7832656 7.908375 7.0705469 7.734375 7.3105469 C 7.566375 7.5445469 7.3387813 7.706875 7.0507812 7.796875 C 7.2307812 7.838875 7.396875 7.8985625 7.546875 7.9765625 C 7.696875 8.0545625 7.8274062 8.1572031 7.9414062 8.2832031 C 8.0554062 8.4032031 8.143125 8.554375 8.203125 8.734375 C 8.269125 8.908375 8.3027344 9.1172813 8.3027344 9.3632812 C 8.3027344 9.9512814 8.0676094 10.400891 7.5996094 10.712891 C 7.1316094 11.018891 6.4096406 11.171875 5.4316406 11.171875 C 5.3296406 11.171875 5.2083125 11.166297 5.0703125 11.154297 C 4.9383125 11.148297 4.80025 11.137141 4.65625 11.119141 C 4.51825 11.107141 4.3877188 11.092219 4.2617188 11.074219 C 4.1357188 11.050219 4.0275 11.025953 3.9375 11.001953 L 3.9375 4.9980469 C 4.0455 4.9680469 4.164875 4.9437813 4.296875 4.9257812 C 4.428875 4.9017813 4.5631719 4.8850469 4.7011719 4.8730469 C 4.8451719 4.8550469 4.9832344 4.8419375 5.1152344 4.8359375 C 5.2532344 4.8299375 5.3801406 4.828125 5.4941406 4.828125 z M 5.4941406 5.3496094 C 5.2721406 5.3496094 5.0837344 5.3551875 4.9277344 5.3671875 C 4.7777344 5.3791875 4.6508281 5.3941094 4.5488281 5.4121094 L 4.5488281 7.609375 L 5.7363281 7.609375 C 5.9583281 7.609375 6.1691875 7.5944531 6.3671875 7.5644531 C 6.5651875 7.5284531 6.7368594 7.4668125 6.8808594 7.3828125 C 7.0308594 7.2928125 7.1464687 7.1772031 7.2304688 7.0332031 C 7.3144687 6.8832031 7.3574219 6.6928437 7.3574219 6.4648438 C 7.3574219 6.2608437 7.3126562 6.091125 7.2226562 5.953125 C 7.1326562 5.809125 7.0039375 5.6915625 6.8359375 5.6015625 C 6.6739375 5.5115625 6.478 5.4481094 6.25 5.4121094 C 6.022 5.3701094 5.7701406 5.3496094 5.4941406 5.3496094 z M 11.162109 6.375 C 11.354109 6.375 11.535125 6.3899219 11.703125 6.4199219 C 11.877125 6.4499219 11.9965 6.4797656 12.0625 6.5097656 L 11.945312 7.0136719 C 11.897313 6.9896719 11.798437 6.9673594 11.648438 6.9433594 C 11.504437 6.9133594 11.312266 6.8984375 11.072266 6.8984375 C 10.820266 6.8984375 10.616938 6.9151719 10.460938 6.9511719 C 10.310937 6.9871719 10.212063 7.0170156 10.164062 7.0410156 L 10.164062 11.119141 L 9.578125 11.119141 L 9.578125 6.6816406 C 9.728125 6.6156406 9.9352189 6.550375 10.199219 6.484375 C 10.463219 6.412375 10.784109 6.375 11.162109 6.375 z M 4.5488281 8.1308594 L 4.5488281 10.587891 C 4.6388281 10.599891 4.7750781 10.614812 4.9550781 10.632812 C 5.1350781 10.644813 5.3179063 10.650391 5.5039062 10.650391 C 5.7799063 10.650391 6.0466875 10.631703 6.3046875 10.595703 C 6.5686875 10.559703 6.8000469 10.494438 6.9980469 10.398438 C 7.1960469 10.302437 7.3546094 10.169953 7.4746094 10.001953 C 7.5946094 9.833953 7.6542969 9.6194688 7.6542969 9.3554688 C 7.6542969 9.1154688 7.6113437 8.9157656 7.5273438 8.7597656 C 7.4433437 8.5977656 7.3239688 8.4728125 7.1679688 8.3828125 C 7.0119687 8.2868125 6.8197969 8.2195938 6.5917969 8.1835938 C 6.3697969 8.1475937 6.1217031 8.1308594 5.8457031 8.1308594 L 4.5488281 8.1308594 z "
     id="path4" />
</svg>
