<?xml version="1.0" encoding="UTF-8" standalone="no"?>
<svg
   xmlns:dc="http://purl.org/dc/elements/1.1/"
   xmlns:cc="http://creativecommons.org/ns#"
   xmlns:rdf="http://www.w3.org/1999/02/22-rdf-syntax-ns#"
   xmlns:svg="http://www.w3.org/2000/svg"
   xmlns="http://www.w3.org/2000/svg"
   xmlns:sodipodi="http://sodipodi.sourceforge.net/DTD/sodipodi-0.dtd"
   xmlns:inkscape="http://www.inkscape.org/namespaces/inkscape"
   viewBox="0 0 16 16"
   id="svg2"
   version="1.1"
   inkscape:version="0.91 r13725"
   sodipodi:docname="indicator-keyboard-Zh-5.svg">
  <metadata
     id="metadata14">
    <rdf:RDF>
      <cc:Work
         rdf:about="">
        <dc:format>image/svg+xml</dc:format>
        <dc:type
           rdf:resource="http://purl.org/dc/dcmitype/StillImage" />
      </cc:Work>
    </rdf:RDF>
  </metadata>
  <defs
     id="defs12" />
  <sodipodi:namedview
     pagecolor="#ffffff"
     bordercolor="#666666"
     borderopacity="1"
     objecttolerance="10"
     gridtolerance="10"
     guidetolerance="10"
     inkscape:pageopacity="0"
     inkscape:pageshadow="2"
     inkscape:window-width="459"
     inkscape:window-height="369"
     id="namedview10"
     showgrid="false"
     inkscape:zoom="14.75"
     inkscape:cx="8"
     inkscape:cy="8"
     inkscape:window-x="65"
     inkscape:window-y="24"
     inkscape:window-maximized="0"
     inkscape:current-layer="svg2" />
  <path
     style="fill:#353535;fill-opacity:1"
     d="M 1.5996094 0 C 0.71320937 2.9605947e-16 0 0.71320937 0 1.5996094 L 0 14.400391 C 2.9605947e-16 15.286791 0.71320937 16 1.5996094 16 L 14.400391 16 C 15.286791 16 16 15.286791 16 14.400391 L 16 1.5996094 C 16 0.71320937 15.286791 0 14.400391 0 L 1.5996094 0 z M 7.7402344 4.1113281 L 7.7402344 6.578125 C 7.9322344 6.506125 8.1262187 6.4520156 8.3242188 6.4160156 C 8.5222188 6.3740156 8.7219219 6.3535156 8.9199219 6.3535156 C 9.2799219 6.3535156 9.5783594 6.4038594 9.8183594 6.5058594 C 10.05836 6.6078594 10.250531 6.7552656 10.394531 6.9472656 C 10.538531 7.1332656 10.637406 7.3570938 10.691406 7.6210938 C 10.751406 7.8850937 10.78125 8.1761406 10.78125 8.4941406 L 10.78125 11.095703 L 10.197266 11.095703 L 10.197266 8.6835938 C 10.197266 8.3535938 10.173 8.0756562 10.125 7.8476562 C 10.083 7.6196563 10.008391 7.4330625 9.9003906 7.2890625 C 9.7983906 7.1450625 9.6603281 7.0424219 9.4863281 6.9824219 C 9.3123281 6.9164219 9.092125 6.8847656 8.828125 6.8847656 C 8.726125 6.8847656 8.6160938 6.8921562 8.4960938 6.9101562 C 8.3820937 6.9281563 8.273875 6.9506094 8.171875 6.9746094 C 8.069875 6.9926094 7.9765781 7.0131094 7.8925781 7.0371094 C 7.8145781 7.0611094 7.7642344 7.0797969 7.7402344 7.0917969 L 7.7402344 11.095703 L 7.1542969 11.095703 L 7.1542969 4.2207031 L 7.7402344 4.1113281 z M 1.8496094 4.859375 L 5.9257812 4.859375 L 5.9257812 5.4179688 C 5.7817813 5.5859687 5.613875 5.7892969 5.421875 6.0292969 C 5.235875 6.2692969 5.0343594 6.5323125 4.8183594 6.8203125 C 4.6023594 7.1023125 4.3803437 7.4064687 4.1523438 7.7304688 C 3.9303437 8.0484688 3.7083281 8.3711719 3.4863281 8.7011719 C 3.2703281 9.0251719 3.0632344 9.3460625 2.8652344 9.6640625 C 2.6732344 9.9820627 2.49975 10.282453 2.34375 10.564453 L 6.015625 10.564453 L 6.015625 11.095703 L 1.6777344 11.095703 L 1.6777344 10.636719 C 1.8097344 10.378719 1.9664844 10.097016 2.1464844 9.7910156 C 2.3324844 9.4790156 2.5302344 9.1618906 2.7402344 8.8378906 C 2.9502344 8.5078906 3.1684844 8.1776562 3.3964844 7.8476562 C 3.6244844 7.5176562 3.8502656 7.2023438 4.0722656 6.9023438 C 4.2942656 6.5963438 4.5031719 6.3146406 4.7011719 6.0566406 C 4.9051719 5.7986406 5.0917656 5.576625 5.2597656 5.390625 L 1.8496094 5.390625 L 1.8496094 4.859375 z M 12.355469 8.8417969 L 14.181641 8.8417969 L 14.181641 9.1757812 L 12.689453 9.1757812 C 12.68552 9.2498812 12.679642 9.3458906 12.671875 9.4628906 C 12.664075 9.5798906 12.656238 9.6994187 12.648438 9.8242188 C 12.640638 9.9451188 12.630841 10.062681 12.619141 10.175781 C 12.607441 10.288881 12.597644 10.379012 12.589844 10.445312 C 12.890144 10.453112 13.150741 10.490341 13.369141 10.556641 C 13.587541 10.622941 13.76585 10.711119 13.90625 10.824219 C 14.04665 10.937319 14.150497 11.074475 14.216797 11.234375 C 14.286997 11.394275 14.322266 11.572578 14.322266 11.767578 C 14.322266 11.939178 14.292875 12.097894 14.234375 12.246094 C 14.179775 12.394294 14.093562 12.523613 13.976562 12.632812 C 13.859562 12.742012 13.71065 12.828225 13.53125 12.890625 C 13.35185 12.953025 13.140231 12.984375 12.894531 12.984375 C 12.769731 12.984375 12.652169 12.974578 12.542969 12.955078 C 12.437669 12.939478 12.341659 12.919884 12.255859 12.896484 C 12.173959 12.873084 12.105375 12.849572 12.046875 12.826172 C 11.988375 12.802772 11.945269 12.783178 11.917969 12.767578 L 12.017578 12.427734 C 12.040978 12.443334 12.080166 12.462928 12.134766 12.486328 C 12.193266 12.509728 12.257931 12.533241 12.332031 12.556641 C 12.410031 12.576141 12.496244 12.593775 12.589844 12.609375 C 12.687344 12.624975 12.789231 12.632812 12.894531 12.632812 C 13.089531 12.632812 13.252159 12.611259 13.380859 12.568359 C 13.513459 12.521559 13.617313 12.458859 13.695312 12.380859 C 13.773312 12.302859 13.828175 12.212728 13.859375 12.111328 C 13.894475 12.006028 13.912109 11.894337 13.912109 11.773438 C 13.912109 11.617438 13.886638 11.476362 13.835938 11.351562 C 13.785237 11.226762 13.695106 11.120956 13.566406 11.035156 C 13.437706 10.949356 13.265275 10.884697 13.046875 10.841797 C 12.828475 10.794997 12.552197 10.771484 12.216797 10.771484 C 12.240197 10.572584 12.257837 10.392316 12.273438 10.228516 C 12.289037 10.060816 12.302753 9.9001469 12.314453 9.7480469 C 12.326153 9.5920469 12.333991 9.4431281 12.337891 9.2988281 C 12.345691 9.1506281 12.351569 8.9977969 12.355469 8.8417969 z "
     id="path4" />
</svg>
