<?xml version="1.0" encoding="UTF-8" standalone="no"?>
<svg
   xmlns:dc="http://purl.org/dc/elements/1.1/"
   xmlns:cc="http://creativecommons.org/ns#"
   xmlns:rdf="http://www.w3.org/1999/02/22-rdf-syntax-ns#"
   xmlns:svg="http://www.w3.org/2000/svg"
   xmlns="http://www.w3.org/2000/svg"
   xmlns:sodipodi="http://sodipodi.sourceforge.net/DTD/sodipodi-0.dtd"
   xmlns:inkscape="http://www.inkscape.org/namespaces/inkscape"
   viewBox="0 0 16 16"
   id="svg2"
   version="1.1"
   inkscape:version="0.91 r13725"
   sodipodi:docname="indicator-keyboard-No-4.svg">
  <metadata
     id="metadata14">
    <rdf:RDF>
      <cc:Work
         rdf:about="">
        <dc:format>image/svg+xml</dc:format>
        <dc:type
           rdf:resource="http://purl.org/dc/dcmitype/StillImage" />
      </cc:Work>
    </rdf:RDF>
  </metadata>
  <defs
     id="defs12" />
  <sodipodi:namedview
     pagecolor="#ffffff"
     bordercolor="#666666"
     borderopacity="1"
     objecttolerance="10"
     gridtolerance="10"
     guidetolerance="10"
     inkscape:pageopacity="0"
     inkscape:pageshadow="2"
     inkscape:window-width="640"
     inkscape:window-height="480"
     id="namedview10"
     showgrid="false"
     inkscape:zoom="14.75"
     inkscape:cx="8"
     inkscape:cy="8"
     inkscape:window-x="65"
     inkscape:window-y="24"
     inkscape:window-maximized="0"
     inkscape:current-layer="svg2" />
  <path
     style="fill:#353535;fill-opacity:1"
     d="M 1.5996094 0 C 0.71320937 2.9605947e-16 0 0.71320937 0 1.5996094 L 0 14.400391 C 2.9605947e-16 15.286791 0.71320937 16 1.5996094 16 L 14.400391 16 C 15.286791 16 16 15.286791 16 14.400391 L 16 1.5996094 C 16 0.71320937 15.286791 0 14.400391 0 L 1.5996094 0 z M 1.0917969 4.859375 L 1.578125 4.859375 C 1.884125 5.201375 2.2105937 5.596875 2.5585938 6.046875 C 2.9125938 6.490875 3.25775 6.9460625 3.59375 7.4140625 C 3.92975 7.8760625 4.2412969 8.3294375 4.5292969 8.7734375 C 4.8232969 9.2174375 5.064 9.6055469 5.25 9.9355469 L 5.25 4.859375 L 5.8535156 4.859375 L 5.8535156 11.095703 L 5.3398438 11.095703 C 5.2258437 10.885703 5.0784375 10.639422 4.8984375 10.357422 C 4.7244375 10.075422 4.5322656 9.7750312 4.3222656 9.4570312 C 4.1122656 9.1330312 3.89025 8.80475 3.65625 8.46875 C 3.42225 8.12675 3.1890781 7.7965156 2.9550781 7.4785156 C 2.7270781 7.1545156 2.5012969 6.8503594 2.2792969 6.5683594 C 2.0632969 6.2863594 1.8693125 6.0438437 1.6953125 5.8398438 L 1.6953125 11.095703 L 1.0917969 11.095703 L 1.0917969 4.859375 z M 9.28125 6.3359375 C 9.59325 6.3359375 9.8787188 6.395625 10.136719 6.515625 C 10.394719 6.629625 10.616734 6.7937656 10.802734 7.0097656 C 10.994734 7.2197656 11.142141 7.4753906 11.244141 7.7753906 C 11.352141 8.0753906 11.40625 8.4074375 11.40625 8.7734375 C 11.40625 9.1394375 11.352141 9.4734375 11.244141 9.7734375 C 11.142141 10.073438 10.994734 10.327109 10.802734 10.537109 C 10.616734 10.747109 10.394719 10.913203 10.136719 11.033203 C 9.8787187 11.147203 9.59325 11.203125 9.28125 11.203125 C 8.96925 11.203125 8.6857344 11.147203 8.4277344 11.033203 C 8.1697344 10.913203 7.9439531 10.747109 7.7519531 10.537109 C 7.5659531 10.327109 7.4185469 10.073438 7.3105469 9.7734375 C 7.2085469 9.4734375 7.1582031 9.1394375 7.1582031 8.7734375 C 7.1582031 8.4074375 7.2085469 8.0753906 7.3105469 7.7753906 C 7.4185469 7.4753906 7.5659531 7.2197656 7.7519531 7.0097656 C 7.9439531 6.7937656 8.1697344 6.629625 8.4277344 6.515625 C 8.6857344 6.395625 8.96925 6.3359375 9.28125 6.3359375 z M 9.28125 6.8652344 C 8.81925 6.8652344 8.4535938 7.0406719 8.1835938 7.3886719 C 7.9135937 7.7306719 7.7792969 8.1914375 7.7792969 8.7734375 C 7.7792969 9.3554375 7.9135937 9.818156 8.1835938 10.160156 C 8.4535937 10.502156 8.81925 10.673828 9.28125 10.673828 C 9.74325 10.673828 10.108906 10.502156 10.378906 10.160156 C 10.648906 9.818156 10.785156 9.3554375 10.785156 8.7734375 C 10.785156 8.1914375 10.648906 7.7306719 10.378906 7.3886719 C 10.108906 7.0406719 9.74325 6.8652344 9.28125 6.8652344 z M 14.007812 8.8417969 L 14.404297 8.8417969 L 14.404297 11.486328 L 14.908203 11.486328 L 14.908203 11.796875 L 14.404297 11.796875 L 14.404297 12.896484 L 14.03125 12.896484 L 14.03125 11.796875 L 12.193359 11.796875 L 12.193359 11.5625 C 12.263559 11.3753 12.361528 11.163687 12.486328 10.929688 C 12.615028 10.695688 12.760022 10.456637 12.919922 10.210938 C 13.079822 9.9652374 13.252253 9.7261874 13.439453 9.4921875 C 13.626653 9.2542875 13.816713 9.0367969 14.007812 8.8417969 z M 14.03125 9.2695312 C 13.89475 9.4099312 13.755634 9.5706063 13.615234 9.7539062 C 13.474834 9.9372063 13.339637 10.129225 13.210938 10.328125 C 13.086137 10.523125 12.970528 10.719069 12.861328 10.917969 C 12.752128 11.116869 12.660038 11.306928 12.585938 11.486328 L 14.03125 11.486328 L 14.03125 9.2695312 z "
     id="path4" />
</svg>
