<?xml version="1.0" encoding="UTF-8" standalone="no"?>
<svg
   xmlns:dc="http://purl.org/dc/elements/1.1/"
   xmlns:cc="http://creativecommons.org/ns#"
   xmlns:rdf="http://www.w3.org/1999/02/22-rdf-syntax-ns#"
   xmlns:svg="http://www.w3.org/2000/svg"
   xmlns="http://www.w3.org/2000/svg"
   xmlns:sodipodi="http://sodipodi.sourceforge.net/DTD/sodipodi-0.dtd"
   xmlns:inkscape="http://www.inkscape.org/namespaces/inkscape"
   viewBox="0 0 16 16"
   id="svg2"
   version="1.1"
   inkscape:version="0.91 r13725"
   sodipodi:docname="indicator-keyboard-Ja-4.svg">
  <metadata
     id="metadata14">
    <rdf:RDF>
      <cc:Work
         rdf:about="">
        <dc:format>image/svg+xml</dc:format>
        <dc:type
           rdf:resource="http://purl.org/dc/dcmitype/StillImage" />
      </cc:Work>
    </rdf:RDF>
  </metadata>
  <defs
     id="defs12" />
  <sodipodi:namedview
     pagecolor="#ffffff"
     bordercolor="#666666"
     borderopacity="1"
     objecttolerance="10"
     gridtolerance="10"
     guidetolerance="10"
     inkscape:pageopacity="0"
     inkscape:pageshadow="2"
     inkscape:window-width="640"
     inkscape:window-height="480"
     id="namedview10"
     showgrid="false"
     inkscape:zoom="14.75"
     inkscape:cx="8"
     inkscape:cy="8"
     inkscape:window-x="65"
     inkscape:window-y="24"
     inkscape:window-maximized="0"
     inkscape:current-layer="svg2" />
  <path
     style="fill:#353535;fill-opacity:1"
     d="M 1.5996094 0 C 0.71320937 2.9605947e-16 0 0.71320937 0 1.5996094 L 0 14.400391 C 2.9605947e-16 15.286791 0.71320937 16 1.5996094 16 L 14.400391 16 C 15.286791 16 16 15.286791 16 14.400391 L 16 1.5996094 C 16 0.71320937 15.286791 0 14.400391 0 L 1.5996094 0 z M 4.9667969 4.859375 L 5.578125 4.859375 L 5.578125 9.1347656 C 5.578125 9.4347656 5.5482812 9.7127031 5.4882812 9.9707031 C 5.4282813 10.222703 5.3238281 10.444719 5.1738281 10.636719 C 5.0298281 10.822719 4.8338906 10.970125 4.5878906 11.078125 C 4.3478906 11.180125 4.0456875 11.230469 3.6796875 11.230469 C 3.4636875 11.230469 3.2659375 11.209969 3.0859375 11.167969 C 2.9059375 11.131969 2.7454219 11.087203 2.6074219 11.033203 C 2.4694219 10.979203 2.3538125 10.921328 2.2578125 10.861328 C 2.1678125 10.801328 2.0987812 10.747219 2.0507812 10.699219 L 2.3378906 10.205078 C 2.3918906 10.253078 2.4571562 10.307187 2.5351562 10.367188 C 2.6191562 10.421187 2.7162188 10.471531 2.8242188 10.519531 C 2.9322188 10.567531 3.0515937 10.606719 3.1835938 10.636719 C 3.3155937 10.666719 3.4592344 10.681641 3.6152344 10.681641 C 4.0772344 10.681641 4.4168125 10.562266 4.6328125 10.322266 C 4.8548125 10.076265 4.9667969 9.6583125 4.9667969 9.0703125 L 4.9667969 4.859375 z M 8.5429688 6.3359375 C 8.8489687 6.3359375 9.1064063 6.3807031 9.3164062 6.4707031 C 9.5324062 6.5547031 9.7058906 6.6740781 9.8378906 6.8300781 C 9.9698906 6.9800781 10.066953 7.1591406 10.126953 7.3691406 C 10.186953 7.5791406 10.216797 7.8086875 10.216797 8.0546875 L 10.216797 10.988281 C 10.156797 11.006281 10.069078 11.026781 9.9550781 11.050781 C 9.8410781 11.068781 9.7085938 11.089281 9.5585938 11.113281 C 9.4085937 11.137281 9.2406875 11.155969 9.0546875 11.167969 C 8.8746875 11.185969 8.6900469 11.195313 8.4980469 11.195312 C 8.2520469 11.195312 8.0225 11.167281 7.8125 11.113281 C 7.6085 11.059281 7.4294375 10.975328 7.2734375 10.861328 C 7.1234375 10.741328 7.0021094 10.592109 6.9121094 10.412109 C 6.8281094 10.226109 6.7871094 10.000328 6.7871094 9.7363281 C 6.7871094 9.4843281 6.8356406 9.2698437 6.9316406 9.0898438 C 7.0276406 8.9098438 7.1619375 8.7624375 7.3359375 8.6484375 C 7.5099375 8.5284375 7.7170313 8.4407187 7.9570312 8.3867188 C 8.1970312 8.3327188 8.4582344 8.3066406 8.7402344 8.3066406 C 8.8242344 8.3066406 8.9119531 8.3122187 9.0019531 8.3242188 C 9.0979531 8.3302187 9.1874844 8.341375 9.2714844 8.359375 C 9.3614844 8.371375 9.4360937 8.3862969 9.4960938 8.4042969 C 9.5620937 8.4162969 9.6068594 8.4294063 9.6308594 8.4414062 L 9.6308594 8.1523438 C 9.6308594 7.9903438 9.6197031 7.8355469 9.5957031 7.6855469 C 9.5717031 7.5295469 9.5175937 7.3914844 9.4335938 7.2714844 C 9.3555937 7.1454844 9.2417969 7.0466094 9.0917969 6.9746094 C 8.9477969 6.8966094 8.755625 6.8574219 8.515625 6.8574219 C 8.173625 6.8574219 7.918 6.8816875 7.75 6.9296875 C 7.582 6.9776875 7.4588594 7.016875 7.3808594 7.046875 L 7.3007812 6.5332031 C 7.4027812 6.4852031 7.5575781 6.4404375 7.7675781 6.3984375 C 7.9835781 6.3564375 8.2429687 6.3359375 8.5429688 6.3359375 z M 8.7226562 8.8105469 C 8.5786562 8.8105469 8.4274844 8.8217031 8.2714844 8.8457031 C 8.1154844 8.8637031 7.9718438 8.9084687 7.8398438 8.9804688 C 7.7078437 9.0464688 7.599625 9.1397656 7.515625 9.2597656 C 7.431625 9.3797656 7.390625 9.5383281 7.390625 9.7363281 C 7.390625 9.9103281 7.4167031 10.057734 7.4707031 10.177734 C 7.5307031 10.297734 7.6128438 10.394797 7.7148438 10.466797 C 7.8228437 10.538797 7.9477969 10.592906 8.0917969 10.628906 C 8.2417969 10.658906 8.4097031 10.673828 8.5957031 10.673828 C 8.8237031 10.673828 9.0214531 10.666297 9.1894531 10.654297 C 9.3634531 10.636297 9.5108594 10.615797 9.6308594 10.591797 L 9.6308594 8.953125 C 9.5648594 8.923125 9.4604063 8.8932813 9.3164062 8.8632812 C 9.1724062 8.8272812 8.9746563 8.8105469 8.7226562 8.8105469 z M 13.048828 8.8417969 L 13.447266 8.8417969 L 13.447266 11.486328 L 13.949219 11.486328 L 13.949219 11.796875 L 13.447266 11.796875 L 13.447266 12.896484 L 13.072266 12.896484 L 13.072266 11.796875 L 11.236328 11.796875 L 11.236328 11.5625 C 11.306528 11.3753 11.402544 11.163688 11.527344 10.929688 C 11.656044 10.695687 11.801037 10.456638 11.960938 10.210938 C 12.120838 9.9652374 12.295222 9.7261874 12.482422 9.4921875 C 12.669622 9.2542875 12.857728 9.0367969 13.048828 8.8417969 z M 13.072266 9.2695312 C 12.935766 9.4099313 12.79665 9.5706063 12.65625 9.7539062 C 12.51585 9.9372063 12.382606 10.129225 12.253906 10.328125 C 12.129106 10.523125 12.011544 10.719069 11.902344 10.917969 C 11.793144 11.116869 11.701053 11.306928 11.626953 11.486328 L 13.072266 11.486328 L 13.072266 9.2695312 z "
     id="path4" />
</svg>
