<?xml version="1.0" encoding="UTF-8" standalone="no"?>
<svg
   xmlns:dc="http://purl.org/dc/elements/1.1/"
   xmlns:cc="http://creativecommons.org/ns#"
   xmlns:rdf="http://www.w3.org/1999/02/22-rdf-syntax-ns#"
   xmlns:svg="http://www.w3.org/2000/svg"
   xmlns="http://www.w3.org/2000/svg"
   xmlns:sodipodi="http://sodipodi.sourceforge.net/DTD/sodipodi-0.dtd"
   xmlns:inkscape="http://www.inkscape.org/namespaces/inkscape"
   viewBox="0 0 16 16"
   id="svg2"
   version="1.1"
   inkscape:version="0.91 r13725"
   sodipodi:docname="indicator-keyboard-Ik.svg">
  <metadata
     id="metadata13">
    <rdf:RDF>
      <cc:Work
         rdf:about="">
        <dc:format>image/svg+xml</dc:format>
        <dc:type
           rdf:resource="http://purl.org/dc/dcmitype/StillImage" />
      </cc:Work>
    </rdf:RDF>
  </metadata>
  <defs
     id="defs11" />
  <sodipodi:namedview
     pagecolor="#ffffff"
     bordercolor="#666666"
     borderopacity="1"
     objecttolerance="10"
     gridtolerance="10"
     guidetolerance="10"
     inkscape:pageopacity="0"
     inkscape:pageshadow="2"
     inkscape:window-width="640"
     inkscape:window-height="480"
     id="namedview9"
     showgrid="false"
     inkscape:zoom="14.75"
     inkscape:cx="8"
     inkscape:cy="8"
     inkscape:window-x="65"
     inkscape:window-y="24"
     inkscape:window-maximized="0"
     inkscape:current-layer="svg2" />
  <path
     style="fill:#353535;fill-opacity:1"
     d="M 1.5996094 0 C 0.71320937 2.9605947e-16 0 0.71320937 0 1.5996094 L 0 14.400391 C 2.9605947e-16 15.286791 0.71320937 16 1.5996094 16 L 14.400391 16 C 15.286791 16 16 15.286791 16 14.400391 L 16 1.5996094 C 16 0.71320937 15.286791 0 14.400391 0 L 1.5996094 0 z M 7.9238281 4.5078125 L 7.9238281 8.9355469 C 8.0738281 8.7915469 8.2417344 8.6274063 8.4277344 8.4414062 C 8.6137344 8.2554063 8.8003281 8.0650469 8.9863281 7.8730469 C 9.1783281 7.6810469 9.3573906 7.4964062 9.5253906 7.3164062 C 9.6933906 7.1364062 9.8370312 6.9778438 9.9570312 6.8398438 L 10.660156 6.8398438 C 10.522156 6.9838438 10.365406 7.1442187 10.191406 7.3242188 C 10.017406 7.5042187 9.8345781 7.6945781 9.6425781 7.8925781 C 9.4565781 8.0845781 9.2699844 8.2729844 9.0839844 8.4589844 L 8.5800781 8.9628906 C 8.7660781 9.0888906 8.9638281 9.2512188 9.1738281 9.4492188 C 9.3898281 9.6472188 9.6006875 9.863656 9.8046875 10.097656 C 10.014687 10.325656 10.210625 10.562594 10.390625 10.808594 C 10.576625 11.048594 10.731422 11.276188 10.857422 11.492188 L 10.164062 11.492188 C 10.020063 11.252187 9.8559219 11.017062 9.6699219 10.789062 C 9.4899219 10.555063 9.29775 10.336813 9.09375 10.132812 C 8.89575 9.9288122 8.6942344 9.7422187 8.4902344 9.5742188 C 8.2922344 9.4062187 8.1038281 9.2663438 7.9238281 9.1523438 L 7.9238281 11.492188 L 7.3378906 11.492188 L 7.3378906 4.6152344 L 7.9238281 4.5078125 z M 5.1425781 5.2558594 L 5.7539062 5.2558594 L 5.7539062 11.492188 L 5.1425781 11.492188 L 5.1425781 5.2558594 z "
     id="path4" />
</svg>
