<?xml version="1.0" encoding="UTF-8" standalone="no"?>
<svg
   xmlns:dc="http://purl.org/dc/elements/1.1/"
   xmlns:cc="http://creativecommons.org/ns#"
   xmlns:rdf="http://www.w3.org/1999/02/22-rdf-syntax-ns#"
   xmlns:svg="http://www.w3.org/2000/svg"
   xmlns="http://www.w3.org/2000/svg"
   xmlns:sodipodi="http://sodipodi.sourceforge.net/DTD/sodipodi-0.dtd"
   xmlns:inkscape="http://www.inkscape.org/namespaces/inkscape"
   viewBox="0 0 16 16"
   id="svg2"
   version="1.1"
   inkscape:version="0.91 r13725"
   sodipodi:docname="indicator-keyboard-Ta-5.svg">
  <metadata
     id="metadata14">
    <rdf:RDF>
      <cc:Work
         rdf:about="">
        <dc:format>image/svg+xml</dc:format>
        <dc:type
           rdf:resource="http://purl.org/dc/dcmitype/StillImage" />
      </cc:Work>
    </rdf:RDF>
  </metadata>
  <defs
     id="defs12" />
  <sodipodi:namedview
     pagecolor="#ffffff"
     bordercolor="#666666"
     borderopacity="1"
     objecttolerance="10"
     gridtolerance="10"
     guidetolerance="10"
     inkscape:pageopacity="0"
     inkscape:pageshadow="2"
     inkscape:window-width="459"
     inkscape:window-height="369"
     id="namedview10"
     showgrid="false"
     inkscape:zoom="14.75"
     inkscape:cx="8"
     inkscape:cy="8"
     inkscape:window-x="65"
     inkscape:window-y="24"
     inkscape:window-maximized="0"
     inkscape:current-layer="svg2" />
  <path
     style="fill:#353535;fill-opacity:1"
     d="M 1.5996094 0 C 0.71320937 2.9605947e-16 0 0.71320937 0 1.5996094 L 0 14.400391 C 2.9605947e-16 15.286791 0.71320937 16 1.5996094 16 L 14.400391 16 C 15.286791 16 16 15.286791 16 14.400391 L 16 1.5996094 C 16 0.71320937 15.286791 0 14.400391 0 L 1.5996094 0 z M 2.0546875 4.859375 L 6.6621094 4.859375 L 6.6621094 5.390625 L 4.6640625 5.390625 L 4.6640625 11.095703 L 4.0527344 11.095703 L 4.0527344 5.390625 L 2.0546875 5.390625 L 2.0546875 4.859375 z M 8.71875 6.3359375 C 9.02475 6.3359375 9.2841406 6.3807031 9.4941406 6.4707031 C 9.7101406 6.5547031 9.8836253 6.6740781 10.015625 6.8300781 C 10.147625 6.9800781 10.242734 7.1591406 10.302734 7.3691406 C 10.362734 7.5791406 10.394531 7.8086875 10.394531 8.0546875 L 10.394531 10.988281 C 10.334531 11.006281 10.246813 11.026781 10.132812 11.050781 C 10.018813 11.068781 9.8863281 11.089281 9.7363281 11.113281 C 9.5863281 11.137281 9.4184219 11.155969 9.2324219 11.167969 C 9.0524219 11.185969 8.8658281 11.195313 8.6738281 11.195312 C 8.4278281 11.195312 8.2002344 11.167281 7.9902344 11.113281 C 7.7862344 11.059281 7.6071719 10.975328 7.4511719 10.861328 C 7.3011719 10.741328 7.1798438 10.592109 7.0898438 10.412109 C 7.0058438 10.226109 6.9648437 10.000328 6.9648438 9.7363281 C 6.9648438 9.4843281 7.013375 9.2698437 7.109375 9.0898438 C 7.205375 8.9098438 7.3396719 8.7624375 7.5136719 8.6484375 C 7.6876719 8.5284375 7.8947656 8.4407187 8.1347656 8.3867188 C 8.3747656 8.3327188 8.6359688 8.3066406 8.9179688 8.3066406 C 9.0019687 8.3066406 9.0877344 8.3122187 9.1777344 8.3242188 C 9.2737344 8.3302187 9.3652188 8.341375 9.4492188 8.359375 C 9.5392188 8.371375 9.6138281 8.3862969 9.6738281 8.4042969 C 9.7398281 8.4162969 9.7845938 8.4294063 9.8085938 8.4414062 L 9.8085938 8.1523438 C 9.8085938 7.9903437 9.7974375 7.8355469 9.7734375 7.6855469 C 9.7494375 7.5295469 9.6953281 7.3914844 9.6113281 7.2714844 C 9.5333281 7.1454844 9.4195313 7.0466094 9.2695312 6.9746094 C 9.1255313 6.8966094 8.9333594 6.8574219 8.6933594 6.8574219 C 8.3513594 6.8574219 8.0957344 6.8816875 7.9277344 6.9296875 C 7.7597344 6.9776875 7.6365938 7.016875 7.5585938 7.046875 L 7.4785156 6.5332031 C 7.5805156 6.4852031 7.7353125 6.4404375 7.9453125 6.3984375 C 8.1613125 6.3564375 8.41875 6.3359375 8.71875 6.3359375 z M 8.9003906 8.8105469 C 8.7563906 8.8105469 8.6052187 8.8217031 8.4492188 8.8457031 C 8.2932188 8.8637031 8.1495781 8.9084688 8.0175781 8.9804688 C 7.8855781 9.0464687 7.7773594 9.1397656 7.6933594 9.2597656 C 7.6093594 9.3797656 7.5683594 9.5383281 7.5683594 9.7363281 C 7.5683594 9.9103281 7.5944375 10.057734 7.6484375 10.177734 C 7.7084375 10.297734 7.788625 10.394797 7.890625 10.466797 C 7.998625 10.538797 8.1255312 10.592906 8.2695312 10.628906 C 8.4195313 10.658906 8.5874375 10.673828 8.7734375 10.673828 C 9.0014375 10.673828 9.1991875 10.666297 9.3671875 10.654297 C 9.5411875 10.636297 9.6885937 10.615797 9.8085938 10.591797 L 9.8085938 8.953125 C 9.7425938 8.923125 9.6381406 8.8932812 9.4941406 8.8632812 C 9.3501406 8.8272813 9.1523906 8.8105469 8.9003906 8.8105469 z M 11.980469 8.8417969 L 13.804688 8.8417969 L 13.804688 9.1757812 L 12.314453 9.1757812 C 12.31052 9.2498812 12.304642 9.3458906 12.296875 9.4628906 C 12.289075 9.5798906 12.281238 9.6994187 12.273438 9.8242188 C 12.265638 9.9451188 12.255841 10.062681 12.244141 10.175781 C 12.232441 10.288881 12.222644 10.379012 12.214844 10.445312 C 12.515144 10.453112 12.773787 10.490341 12.992188 10.556641 C 13.210587 10.622941 13.39085 10.711119 13.53125 10.824219 C 13.67165 10.937319 13.773544 11.074475 13.839844 11.234375 C 13.910044 11.394275 13.945312 11.572578 13.945312 11.767578 C 13.945312 11.939178 13.915922 12.097894 13.857422 12.246094 C 13.802822 12.394294 13.718563 12.523613 13.601562 12.632812 C 13.484562 12.742012 13.33565 12.828225 13.15625 12.890625 C 12.97685 12.953025 12.765231 12.984375 12.519531 12.984375 C 12.394731 12.984375 12.277169 12.974578 12.167969 12.955078 C 12.062669 12.939478 11.966659 12.919884 11.880859 12.896484 C 11.798959 12.873084 11.728422 12.849572 11.669922 12.826172 C 11.611422 12.802772 11.568316 12.783178 11.541016 12.767578 L 11.640625 12.427734 C 11.664025 12.443334 11.703212 12.462928 11.757812 12.486328 C 11.816313 12.509728 11.882931 12.533241 11.957031 12.556641 C 12.035031 12.576141 12.121244 12.593775 12.214844 12.609375 C 12.312344 12.624975 12.414231 12.632812 12.519531 12.632812 C 12.714531 12.632812 12.875206 12.611259 13.003906 12.568359 C 13.136506 12.521559 13.242313 12.458859 13.320312 12.380859 C 13.398312 12.302859 13.453175 12.212728 13.484375 12.111328 C 13.519475 12.006028 13.537109 11.894337 13.537109 11.773438 C 13.537109 11.617438 13.511637 11.476362 13.460938 11.351562 C 13.410237 11.226762 13.320106 11.120956 13.191406 11.035156 C 13.062706 10.949356 12.888322 10.884697 12.669922 10.841797 C 12.451522 10.794997 12.175244 10.771484 11.839844 10.771484 C 11.863244 10.572584 11.882837 10.392316 11.898438 10.228516 C 11.914037 10.060816 11.927753 9.9001469 11.939453 9.7480469 C 11.951153 9.5920469 11.958991 9.4431281 11.962891 9.2988281 C 11.970691 9.1506281 11.976569 8.9977969 11.980469 8.8417969 z "
     id="path4" />
</svg>
