<?xml version="1.0" encoding="UTF-8" standalone="no"?>
<svg
   xmlns:dc="http://purl.org/dc/elements/1.1/"
   xmlns:cc="http://creativecommons.org/ns#"
   xmlns:rdf="http://www.w3.org/1999/02/22-rdf-syntax-ns#"
   xmlns:svg="http://www.w3.org/2000/svg"
   xmlns="http://www.w3.org/2000/svg"
   xmlns:sodipodi="http://sodipodi.sourceforge.net/DTD/sodipodi-0.dtd"
   xmlns:inkscape="http://www.inkscape.org/namespaces/inkscape"
   viewBox="0 0 16 16"
   id="svg2"
   version="1.1"
   inkscape:version="0.91 r13725"
   sodipodi:docname="indicator-keyboard-Pl-7.svg">
  <metadata
     id="metadata14">
    <rdf:RDF>
      <cc:Work
         rdf:about="">
        <dc:format>image/svg+xml</dc:format>
        <dc:type
           rdf:resource="http://purl.org/dc/dcmitype/StillImage" />
      </cc:Work>
    </rdf:RDF>
  </metadata>
  <defs
     id="defs12" />
  <sodipodi:namedview
     pagecolor="#ffffff"
     bordercolor="#666666"
     borderopacity="1"
     objecttolerance="10"
     gridtolerance="10"
     guidetolerance="10"
     inkscape:pageopacity="0"
     inkscape:pageshadow="2"
     inkscape:window-width="640"
     inkscape:window-height="480"
     id="namedview10"
     showgrid="false"
     inkscape:zoom="14.75"
     inkscape:cx="8"
     inkscape:cy="8"
     inkscape:window-x="65"
     inkscape:window-y="24"
     inkscape:window-maximized="0"
     inkscape:current-layer="svg2" />
  <path
     style="fill:#353535;fill-opacity:1"
     d="M 1.5996094 0 C 0.71320937 2.9605947e-16 0 0.71320937 0 1.5996094 L 0 14.400391 C 2.9605947e-16 15.286791 0.71320937 16 1.5996094 16 L 14.400391 16 C 15.286791 16 16 15.286791 16 14.400391 L 16 1.5996094 C 16 0.71320937 15.286791 0 14.400391 0 L 1.5996094 0 z M 9.0234375 4.1113281 L 9.0234375 9.9628906 C 9.0234375 10.106891 9.0345938 10.2225 9.0585938 10.3125 C 9.0885937 10.3965 9.1315469 10.465531 9.1855469 10.519531 C 9.2395469 10.567531 9.3085781 10.604906 9.3925781 10.628906 C 9.4825781 10.652906 9.5870313 10.673406 9.7070312 10.691406 L 9.6269531 11.177734 C 9.4289531 11.171734 9.2535156 11.143703 9.1035156 11.095703 C 8.9595156 11.053703 8.8383281 10.988438 8.7363281 10.898438 C 8.6403281 10.802438 8.5637656 10.681109 8.5097656 10.537109 C 8.4617656 10.387109 8.4375 10.202469 8.4375 9.9804688 L 8.4375 4.2207031 L 9.0234375 4.1113281 z M 4.7324219 4.8046875 C 5.6144219 4.8046875 6.271125 4.9725937 6.703125 5.3085938 C 7.135125 5.6445937 7.3515625 6.1222344 7.3515625 6.7402344 C 7.3515625 7.0942344 7.2881094 7.3964375 7.1621094 7.6484375 C 7.0361094 7.8944375 6.8570469 8.0959531 6.6230469 8.2519531 C 6.3890469 8.4019531 6.0998125 8.5139375 5.7578125 8.5859375 C 5.4218125 8.6519375 5.0412344 8.6835937 4.6152344 8.6835938 L 3.7695312 8.6835938 L 3.7695312 11.095703 L 3.1582031 11.095703 L 3.1582031 4.9765625 C 3.3742031 4.9165625 3.6260625 4.8736094 3.9140625 4.8496094 C 4.2080625 4.8196094 4.4804219 4.8046875 4.7324219 4.8046875 z M 4.7597656 5.3359375 C 4.5317656 5.3359375 4.3358281 5.3452813 4.1738281 5.3632812 C 4.0178281 5.3752813 3.8835313 5.3864375 3.7695312 5.3984375 L 3.7695312 8.1523438 L 4.5429688 8.1523438 C 4.8729687 8.1523438 5.1695938 8.1356094 5.4335938 8.0996094 C 5.7035937 8.0576094 5.9331406 7.9848125 6.1191406 7.8828125 C 6.3111406 7.7748125 6.4565937 7.6274062 6.5585938 7.4414062 C 6.6605937 7.2554063 6.7128906 7.0184687 6.7128906 6.7304688 C 6.7128906 6.4544688 6.6550156 6.226875 6.5410156 6.046875 C 6.4330156 5.866875 6.2856094 5.7250469 6.0996094 5.6230469 C 5.9196094 5.5150469 5.7125156 5.4404375 5.4785156 5.3984375 C 5.2445156 5.3564375 5.0057656 5.3359375 4.7597656 5.3359375 z M 10.378906 8.8417969 L 12.841797 8.8417969 L 12.841797 9.1816406 C 12.709197 9.3415406 12.564197 9.5551188 12.404297 9.8242188 C 12.248297 10.089419 12.099384 10.391163 11.958984 10.726562 C 11.818584 11.058062 11.695144 11.410756 11.589844 11.785156 C 11.488444 12.159556 11.427697 12.529884 11.404297 12.896484 L 11 12.896484 C 11.0234 12.572784 11.082181 12.229888 11.175781 11.867188 C 11.273281 11.504488 11.390844 11.1518 11.527344 10.8125 C 11.667744 10.4732 11.816663 10.161653 11.976562 9.8769531 C 12.140363 9.5922532 12.299072 9.3649594 12.451172 9.1933594 L 10.378906 9.1933594 L 10.378906 8.8417969 z "
     id="path4" />
</svg>
