<svg xmlns="http://www.w3.org/2000/svg" viewBox="0 0 16 16">
 <path d="m 1.6 0 c -0.886 0 -1.6 0.714 -1.6 1.6 l 0 12.8 c 0 0.886 0.714 1.6 1.6 1.6 l 12.8 0 c 0.886 0 1.6 -0.714 1.6 -1.6 l 0 -12.8 c 0 -0.886 -0.714 -1.6 -1.6 -1.6 l -12.8 0 z m 8.63 3.641 0 4.569 c 0.153 -0.16 0.316 -0.329 0.489 -0.509 c 0.173 -0.187 0.344 -0.37 0.511 -0.55 0.167 -0.187 0.322 -0.363 0.469 -0.53 0.153 -0.173 0.284 -0.323 0.391 -0.45 l 1.43 0 c -0.333 0.373 -0.686 0.759 -1.059 1.159 -0.367 0.4 -0.738 0.79 -1.111 1.17 c 0.2 0.167 0.411 0.369 0.631 0.609 0.22 0.233 0.432 0.483 0.639 0.75 0.207 0.267 0.4 0.533 0.58 0.8 0.18 0.267 0.33 0.514 0.45 0.741 l -1.4 0 c -0.12 -0.207 -0.259 -0.423 -0.419 -0.65 -0.153 -0.227 -0.32 -0.446 -0.5 -0.659 -0.18 -0.213 -0.363 -0.413 -0.55 -0.6 c -0.187 -0.193 -0.37 -0.357 -0.55 -0.491 l 0 2.4 -1.211 0 0 -7.559 1.211 -0.2 z m -9.658 0.83 1.169 0 c 0.147 0.253 0.311 0.563 0.491 0.93 c 0.18 0.367 0.363 0.753 0.55 1.159 0.187 0.4 0.37 0.811 0.55 1.231 0.187 0.413 0.356 0.797 0.509 1.15 0.153 -0.353 0.32 -0.737 0.5 -1.15 0.18 -0.42 0.363 -0.831 0.55 -1.231 0.187 -0.407 0.37 -0.793 0.55 -1.159 0.18 -0.367 0.344 -0.676 0.491 -0.93 l 1.141 0 c 0.06 0.507 0.115 1.047 0.169 1.62 0.053 0.567 0.101 1.15 0.141 1.75 0.047 0.593 0.087 1.193 0.12 1.8 0.04 0.6 0.073 1.186 0.1 1.759 l -1.241 0 c -0.027 -0.807 -0.06 -1.637 -0.1 -2.491 -0.033 -0.853 -0.086 -1.68 -0.159 -2.48 -0.073 0.153 -0.161 0.337 -0.261 0.55 -0.1 0.213 -0.205 0.447 -0.319 0.7 -0.113 0.247 -0.23 0.504 -0.35 0.77 -0.113 0.267 -0.227 0.526 -0.341 0.78 -0.107 0.247 -0.207 0.48 -0.3 0.7 -0.093 0.213 -0.174 0.397 -0.241 0.55 l -0.939 0 c -0.067 -0.153 -0.147 -0.339 -0.241 -0.559 -0.093 -0.22 -0.196 -0.453 -0.309 -0.7 c -0.107 -0.253 -0.221 -0.513 -0.341 -0.78 -0.113 -0.267 -0.226 -0.524 -0.339 -0.77 -0.113 -0.247 -0.22 -0.477 -0.32 -0.691 c -0.1 -0.22 -0.188 -0.403 -0.261 -0.55 c -0.073 0.8 -0.129 1.626 -0.169 2.48 -0.033 0.853 -0.064 1.684 -0.091 2.491 l -1.241 0 c 0.027 -0.573 0.057 -1.166 0.091 -1.78 0.04 -0.613 0.08 -1.22 0.12 -1.82 0.047 -0.607 0.097 -1.193 0.15 -1.759 0.053 -0.567 0.11 -1.09 0.17 -1.57 z m 14.734 5.464 l 0.425 0 0 3.466 -0.605 0 0 -2.655 c -0.09 0.07 -0.202 0.138 -0.339 0.205 -0.137 0.067 -0.269 0.122 -0.395 0.166 l -0.186 -0.461 c 0.193 -0.077 0.388 -0.175 0.581 -0.295 0.197 -0.12 0.369 -0.262 0.519 -0.425 z" style="fill:#353535;fill-opacity:1"/>
</svg>
