<?xml version="1.0" encoding="UTF-8" standalone="no"?>
<svg
   xmlns:dc="http://purl.org/dc/elements/1.1/"
   xmlns:cc="http://creativecommons.org/ns#"
   xmlns:rdf="http://www.w3.org/1999/02/22-rdf-syntax-ns#"
   xmlns:svg="http://www.w3.org/2000/svg"
   xmlns="http://www.w3.org/2000/svg"
   xmlns:sodipodi="http://sodipodi.sourceforge.net/DTD/sodipodi-0.dtd"
   xmlns:inkscape="http://www.inkscape.org/namespaces/inkscape"
   viewBox="0 0 16 16"
   id="svg2"
   version="1.1"
   inkscape:version="0.91 r13725"
   sodipodi:docname="indicator-keyboard-Is-3.svg">
  <metadata
     id="metadata14">
    <rdf:RDF>
      <cc:Work
         rdf:about="">
        <dc:format>image/svg+xml</dc:format>
        <dc:type
           rdf:resource="http://purl.org/dc/dcmitype/StillImage" />
      </cc:Work>
    </rdf:RDF>
  </metadata>
  <defs
     id="defs12" />
  <sodipodi:namedview
     pagecolor="#ffffff"
     bordercolor="#666666"
     borderopacity="1"
     objecttolerance="10"
     gridtolerance="10"
     guidetolerance="10"
     inkscape:pageopacity="0"
     inkscape:pageshadow="2"
     inkscape:window-width="640"
     inkscape:window-height="480"
     id="namedview10"
     showgrid="false"
     inkscape:zoom="14.75"
     inkscape:cx="8"
     inkscape:cy="8"
     inkscape:window-x="65"
     inkscape:window-y="24"
     inkscape:window-maximized="0"
     inkscape:current-layer="svg2" />
  <path
     style="fill:#353535;fill-opacity:1"
     d="M 1.5996094 0 C 0.71320937 2.9605947e-16 0 0.71320937 0 1.5996094 L 0 14.400391 C 2.9605947e-16 15.286791 0.71320937 16 1.5996094 16 L 14.400391 16 C 15.286791 16 16 15.286791 16 14.400391 L 16 1.5996094 C 16 0.71320937 15.286791 0 14.400391 0 L 1.5996094 0 z M 3.9550781 4.859375 L 4.5664062 4.859375 L 4.5664062 11.095703 L 3.9550781 11.095703 L 3.9550781 4.859375 z M 7.4101562 6.3359375 C 7.7281563 6.3359375 7.9893594 6.3620156 8.1933594 6.4160156 C 8.4033594 6.4700156 8.5507656 6.5185469 8.6347656 6.5605469 L 8.5 7.0820312 C 8.428 7.0460313 8.3048594 6.9975 8.1308594 6.9375 C 7.9628594 6.8775 7.7128125 6.8476562 7.3828125 6.8476562 C 7.2508125 6.8476562 7.1258594 6.8625781 7.0058594 6.8925781 C 6.8918594 6.9165781 6.7892188 6.9595312 6.6992188 7.0195312 C 6.6092188 7.0735313 6.538375 7.144375 6.484375 7.234375 C 6.430375 7.318375 6.4023438 7.4247812 6.4023438 7.5507812 C 6.4023438 7.6767812 6.4266094 7.7830469 6.4746094 7.8730469 C 6.5226094 7.9630469 6.5916406 8.0451875 6.6816406 8.1171875 C 6.7776406 8.1831875 6.8914375 8.2466406 7.0234375 8.3066406 C 7.1614375 8.3666406 7.3181875 8.4319062 7.4921875 8.5039062 C 7.6721875 8.5759063 7.8419062 8.6505156 8.0039062 8.7285156 C 8.1719062 8.8005156 8.3193125 8.8900469 8.4453125 8.9980469 C 8.5713125 9.1000469 8.6739531 9.2269531 8.7519531 9.3769531 C 8.8299531 9.5209531 8.8691406 9.7037812 8.8691406 9.9257812 C 8.8691406 10.345781 8.708625 10.664859 8.390625 10.880859 C 8.078625 11.096859 7.6514687 11.203125 7.1054688 11.203125 C 6.6974687 11.203125 6.3839688 11.167703 6.1679688 11.095703 C 5.9519688 11.029703 5.8083281 10.979359 5.7363281 10.943359 L 5.8886719 10.412109 C 5.9066719 10.424109 5.9458594 10.444609 6.0058594 10.474609 C 6.0658594 10.498609 6.148 10.528453 6.25 10.564453 C 6.352 10.594453 6.471375 10.622484 6.609375 10.646484 C 6.753375 10.670484 6.9194687 10.681641 7.1054688 10.681641 C 7.4414687 10.681641 7.7156406 10.627531 7.9316406 10.519531 C 8.1536406 10.405531 8.265625 10.217125 8.265625 9.953125 C 8.265625 9.827125 8.245125 9.7189062 8.203125 9.6289062 C 8.167125 9.5389063 8.1036719 9.4587187 8.0136719 9.3867188 C 7.9236719 9.3147187 7.8042969 9.2456875 7.6542969 9.1796875 C 7.5102969 9.1136875 7.3292813 9.0353125 7.1132812 8.9453125 C 6.9392812 8.8733125 6.7751406 8.8005156 6.6191406 8.7285156 C 6.4631406 8.6505156 6.3250781 8.56475 6.2050781 8.46875 C 6.0850781 8.36675 5.9880156 8.2454219 5.9160156 8.1074219 C 5.8440156 7.9694219 5.8085937 7.8015156 5.8085938 7.6035156 C 5.8085938 7.2255156 5.9504219 6.9195469 6.2324219 6.6855469 C 6.5204219 6.4515469 6.9121562 6.3359375 7.4101562 6.3359375 z M 10.677734 8.7539062 C 10.880534 8.7539062 11.052966 8.7793781 11.197266 8.8300781 C 11.345466 8.8807781 11.468906 8.953275 11.566406 9.046875 C 11.663906 9.136575 11.736403 9.2463 11.783203 9.375 C 11.830003 9.4997999 11.853516 9.6350031 11.853516 9.7832031 C 11.853516 10.021103 11.788856 10.217041 11.660156 10.369141 C 11.535356 10.517341 11.372728 10.625106 11.173828 10.691406 C 11.283028 10.718706 11.388834 10.759859 11.490234 10.818359 C 11.595534 10.872959 11.689584 10.945456 11.771484 11.035156 C 11.853384 11.120956 11.920003 11.226762 11.970703 11.351562 C 12.021403 11.476362 12.044922 11.623316 12.044922 11.791016 C 12.044922 11.962616 12.015525 12.119372 11.953125 12.263672 C 11.894625 12.407972 11.804494 12.535331 11.683594 12.644531 C 11.566594 12.749831 11.415722 12.834084 11.232422 12.896484 C 11.049122 12.954984 10.835544 12.984375 10.589844 12.984375 C 10.461144 12.984375 10.341622 12.974578 10.232422 12.955078 C 10.127122 12.939478 10.033072 12.919884 9.9511719 12.896484 C 9.8692719 12.873084 9.7987344 12.849572 9.7402344 12.826172 C 9.6856344 12.802772 9.6444875 12.783178 9.6171875 12.767578 L 9.7167969 12.427734 C 9.7401969 12.443334 9.7793844 12.462928 9.8339844 12.486328 C 9.8885844 12.509728 9.9532436 12.533241 10.027344 12.556641 C 10.105344 12.576141 10.191556 12.593775 10.285156 12.609375 C 10.382656 12.624975 10.488463 12.632813 10.601562 12.632812 C 10.972062 12.632812 11.236584 12.556397 11.396484 12.404297 C 11.556384 12.248297 11.636719 12.040597 11.636719 11.779297 C 11.636719 11.607697 11.603409 11.464663 11.537109 11.351562 C 11.474709 11.238462 11.386537 11.148331 11.273438 11.082031 C 11.164237 11.011831 11.034919 10.962847 10.886719 10.935547 C 10.742419 10.904347 10.589581 10.888672 10.425781 10.888672 L 10.367188 10.888672 L 10.367188 10.574219 L 10.501953 10.574219 C 10.607253 10.574219 10.713066 10.564422 10.822266 10.544922 C 10.935366 10.521522 11.037253 10.480375 11.126953 10.421875 C 11.220553 10.363375 11.296969 10.285 11.355469 10.1875 C 11.417869 10.09 11.449219 9.9646001 11.449219 9.8125 C 11.449219 9.6838 11.427666 9.5760281 11.384766 9.4863281 C 11.341866 9.3927281 11.283084 9.3182719 11.208984 9.2636719 C 11.138784 9.2090719 11.054531 9.1698844 10.957031 9.1464844 C 10.863431 9.1191844 10.765456 9.1054687 10.660156 9.1054688 C 10.449556 9.1054688 10.284969 9.1348594 10.167969 9.1933594 C 10.050969 9.2518594 9.9549594 9.3067219 9.8808594 9.3574219 L 9.7167969 9.0585938 C 9.7557969 9.0312937 9.8047812 8.9999437 9.8632812 8.9648438 C 9.9256813 8.9297438 9.998178 8.8964344 10.080078 8.8652344 C 10.161978 8.8340344 10.252109 8.8085625 10.349609 8.7890625 C 10.451009 8.7656625 10.560734 8.7539062 10.677734 8.7539062 z "
     id="path4" />
</svg>
