<?xml version="1.0" encoding="UTF-8" standalone="no"?>
<svg
   xmlns:dc="http://purl.org/dc/elements/1.1/"
   xmlns:cc="http://creativecommons.org/ns#"
   xmlns:rdf="http://www.w3.org/1999/02/22-rdf-syntax-ns#"
   xmlns:svg="http://www.w3.org/2000/svg"
   xmlns="http://www.w3.org/2000/svg"
   xmlns:sodipodi="http://sodipodi.sourceforge.net/DTD/sodipodi-0.dtd"
   xmlns:inkscape="http://www.inkscape.org/namespaces/inkscape"
   viewBox="0 0 16 16"
   id="svg2"
   version="1.1"
   inkscape:version="0.91 r13725"
   sodipodi:docname="indicator-keyboard-Lt.svg">
  <metadata
     id="metadata13">
    <rdf:RDF>
      <cc:Work
         rdf:about="">
        <dc:format>image/svg+xml</dc:format>
        <dc:type
           rdf:resource="http://purl.org/dc/dcmitype/StillImage" />
      </cc:Work>
    </rdf:RDF>
  </metadata>
  <defs
     id="defs11" />
  <sodipodi:namedview
     pagecolor="#ffffff"
     bordercolor="#666666"
     borderopacity="1"
     objecttolerance="10"
     gridtolerance="10"
     guidetolerance="10"
     inkscape:pageopacity="0"
     inkscape:pageshadow="2"
     inkscape:window-width="640"
     inkscape:window-height="480"
     id="namedview9"
     showgrid="false"
     inkscape:zoom="14.75"
     inkscape:cx="8"
     inkscape:cy="8"
     inkscape:window-x="65"
     inkscape:window-y="24"
     inkscape:window-maximized="0"
     inkscape:current-layer="svg2" />
  <path
     style="fill:#353535;fill-opacity:1"
     d="M 1.5996094 0 C 0.71320937 2.9605947e-16 0 0.71320937 0 1.5996094 L 0 14.400391 C 2.9605947e-16 15.286791 0.71320937 16 1.5996094 16 L 14.400391 16 C 15.286791 16 16 15.286791 16 14.400391 L 16 1.5996094 C 16 0.71320937 15.286791 0 14.400391 0 L 1.5996094 0 z M 4.4589844 4.8320312 L 5.0703125 4.8320312 L 5.0703125 10.537109 L 8.0039062 10.537109 L 8.0039062 11.068359 L 4.4589844 11.068359 L 4.4589844 4.8320312 z M 9.4902344 4.9394531 L 9.4902344 6.4160156 L 11.34375 6.4160156 L 11.34375 6.9101562 L 9.4902344 6.9101562 L 9.4902344 9.3867188 C 9.4902344 9.6507188 9.5107344 9.8652033 9.5527344 10.033203 C 9.6007344 10.195203 9.666 10.322109 9.75 10.412109 C 9.834 10.502109 9.9366406 10.561797 10.056641 10.591797 C 10.176641 10.621797 10.309125 10.636719 10.453125 10.636719 C 10.699125 10.636719 10.896875 10.610641 11.046875 10.556641 C 11.196875 10.496641 11.312484 10.442531 11.396484 10.394531 L 11.541016 10.880859 C 11.457016 10.934859 11.309609 10.996359 11.099609 11.068359 C 10.889609 11.134359 10.662016 11.167969 10.416016 11.167969 C 10.128016 11.167969 9.8855 11.132547 9.6875 11.060547 C 9.4955 10.982547 9.33875 10.86875 9.21875 10.71875 C 9.10475 10.56275 9.0245625 10.370578 8.9765625 10.142578 C 8.9285625 9.9145783 8.9042969 9.6440312 8.9042969 9.3320312 L 8.9042969 5.0488281 L 9.4902344 4.9394531 z "
     id="path4" />
</svg>
