<?xml version="1.0" encoding="UTF-8" standalone="no"?>
<svg
   xmlns:dc="http://purl.org/dc/elements/1.1/"
   xmlns:cc="http://creativecommons.org/ns#"
   xmlns:rdf="http://www.w3.org/1999/02/22-rdf-syntax-ns#"
   xmlns:svg="http://www.w3.org/2000/svg"
   xmlns="http://www.w3.org/2000/svg"
   xmlns:sodipodi="http://sodipodi.sourceforge.net/DTD/sodipodi-0.dtd"
   xmlns:inkscape="http://www.inkscape.org/namespaces/inkscape"
   width="16"
   height="16"
   viewBox="0 0 16 16"
   id="svg3351"
   version="1.1"
   inkscape:version="0.91 r"
   sodipodi:docname="nm-tech-cdma-1x.svg">
  <metadata
     id="metadata3377">
    <rdf:RDF>
      <cc:Work
         rdf:about="">
        <dc:format>image/svg+xml</dc:format>
        <dc:type
           rdf:resource="http://purl.org/dc/dcmitype/StillImage" />
        <dc:title />
      </cc:Work>
    </rdf:RDF>
  </metadata>
  <defs
     id="defs3375" />
  <sodipodi:namedview
     pagecolor="#ffffff"
     bordercolor="#666666"
     borderopacity="1"
     objecttolerance="10"
     gridtolerance="10"
     guidetolerance="10"
     inkscape:pageopacity="0"
     inkscape:pageshadow="2"
     inkscape:window-width="1920"
     inkscape:window-height="1056"
     id="namedview3373"
     showgrid="true"
     inkscape:zoom="41.7193"
     inkscape:cx="3.9584721"
     inkscape:cy="9.3375749"
     inkscape:window-x="0"
     inkscape:window-y="24"
     inkscape:window-maximized="1"
     inkscape:current-layer="svg3351">
    <inkscape:grid
       type="xygrid"
       id="grid3411" />
  </sodipodi:namedview>
  <rect
     style="opacity:1;fill:#353535;fill-opacity:1;fill-rule:nonzero;stroke:none;stroke-width:1;stroke-linecap:square;stroke-linejoin:miter;stroke-miterlimit:4;stroke-dasharray:none;stroke-dashoffset:0;stroke-opacity:1"
     id="rect4143"
     width="9"
     height="1"
     x="7"
     y="2"
     rx="0.5"
     ry="0.5" />
  <rect
     style="opacity:1;fill:#353535;fill-opacity:1;fill-rule:nonzero;stroke:none;stroke-width:1;stroke-linecap:square;stroke-linejoin:miter;stroke-miterlimit:4;stroke-dasharray:none;stroke-dashoffset:0;stroke-opacity:1"
     id="rect4145"
     width="1"
     height="12"
     x="11"
     y="2"
     rx="0.5"
     ry="0.49999997" />
  <path
     style="fill:none;fill-rule:evenodd;stroke:#353535;stroke-width:1;stroke-linecap:butt;stroke-linejoin:miter;stroke-miterlimit:4;stroke-dasharray:none;stroke-opacity:1"
     d="m 7.5,2.5 4,5.5 4,-5.5"
     id="path4147"
     inkscape:connector-curvature="0"
     sodipodi:nodetypes="ccc" />
  <g
     style="font-style:normal;font-variant:normal;font-weight:normal;font-stretch:normal;font-size:9.28792572px;line-height:125%;font-family:Ubuntu;-inkscape-font-specification:Ubuntu;letter-spacing:0px;word-spacing:0px;fill:#353535;fill-opacity:1;stroke:none;stroke-width:1px;stroke-linecap:butt;stroke-linejoin:miter;stroke-opacity:1"
     id="text4139"
     transform="matrix(1.1666667,0,0,1.1666667,-0.50000013,-2.3333339)">
    <path
       d="M 5.4984521,14 Q 4.2817338,14 3.640867,13.219814 3.0000001,12.439629 3.0000001,11 q 0,-0.71517 0.1950464,-1.2724456 Q 3.390093,9.1702789 3.7337462,8.7894739 4.0866874,8.399381 4.5603716,8.2043346 5.0433437,8.0000002 5.6099072,8.0000002 q 0.3065016,0 0.5479876,0.055728 0.250774,0.04644 0.4365325,0.1114551 0.1857586,0.065015 0.3065016,0.1393189 0.130031,0.074303 0.1950464,0.1114551 L 6.7987617,9.3281736 Q 6.5851394,9.1888547 6.2786379,9.0959755 5.9814242,8.9938083 5.5913314,8.9938083 q -0.2693499,0 -0.5294118,0.1021672 -0.250774,0.092879 -0.4551084,0.3250774 -0.1950464,0.2229102 -0.3250774,0.6037151 -0.120743,0.380805 -0.120743,0.947368 0,0.984521 0.3343653,1.513932 0.3436533,0.520124 1.1145511,0.520124 0.4458204,0 0.7337461,-0.102167 0.2972137,-0.102167 0.4736843,-0.204334 l 0.2879257,0.900928 Q 6.8637772,13.749226 6.4458205,13.879257 6.0371518,14 5.4984521,14 Z"
       style="font-style:normal;font-variant:normal;font-weight:bold;font-stretch:normal;font-family:'Ubuntu Mono';-inkscape-font-specification:'Ubuntu Mono Bold';fill:#353535;fill-opacity:1"
       id="path4144"
       inkscape:connector-curvature="0" />
  </g>
</svg>
