<?xml version="1.0" encoding="UTF-8" standalone="no"?>
<svg
   xmlns:dc="http://purl.org/dc/elements/1.1/"
   xmlns:cc="http://creativecommons.org/ns#"
   xmlns:rdf="http://www.w3.org/1999/02/22-rdf-syntax-ns#"
   xmlns:svg="http://www.w3.org/2000/svg"
   xmlns="http://www.w3.org/2000/svg"
   xmlns:sodipodi="http://sodipodi.sourceforge.net/DTD/sodipodi-0.dtd"
   xmlns:inkscape="http://www.inkscape.org/namespaces/inkscape"
   version="1.1"
   id="Layer_1"
   x="0px"
   y="0px"
   width="16"
   height="16"
   viewBox="-1 -1 16.355555 16.293578"
   enable-background="new 0 0 90 109"
   xml:space="preserve"
   inkscape:version="0.91 r13725"
   sodipodi:docname="qtox-online.svg"><sodipodi:namedview
     pagecolor="#ffffff"
     bordercolor="#666666"
     borderopacity="1"
     objecttolerance="10"
     gridtolerance="10"
     guidetolerance="10"
     inkscape:pageopacity="0"
     inkscape:pageshadow="2"
     inkscape:window-width="663"
     inkscape:window-height="480"
     id="namedview7"
     showgrid="false"
     inkscape:zoom="14.75"
     inkscape:cx="8"
     inkscape:cy="8"
     inkscape:window-x="0"
     inkscape:window-y="0"
     inkscape:window-maximized="0"
     inkscape:current-layer="Layer_1" /><metadata
     id="metadata11"><rdf:RDF><cc:Work
         rdf:about=""><dc:format>image/svg+xml</dc:format><dc:type
           rdf:resource="http://purl.org/dc/dcmitype/StillImage" /><dc:title /></cc:Work></rdf:RDF></metadata><defs
     id="defs9" /><path
     id="path3338"
     transform="matrix(1.0222222,0,0,1.0222221,-1,-1.0309881)"
     d="M 8 1 C 5.9392521 1 4.5 2.4392521 4.5 4.5 L 4.5 6 L 2.875 6 C 2.4824765 6 2 6.4824764 2 6.875 L 2 14.125 C 2 14.517523 2.4824765 15 2.875 15 L 13.125 15 C 13.517522 15 14 14.517523 14 14.125 L 14 6.875 C 14 6.4824764 13.517522 6 13.125 6 L 11.5 6 L 11.5 4.5 C 11.5 2.4392521 10.060748 1 8 1 z M 8.0039062 2.1699219 C 8.999267 2.1699219 10.385708 2.882729 10.330078 4.4980469 C 10.305238 5.2193456 9.8421992 5.9978695 9.2109375 6.7128906 C 8.9500678 7.0010956 8.4534212 7.4620738 8.0761719 7.6953125 C 8.3041326 7.3015941 8.4877677 6.928144 8.5410156 6.4921875 C 7.9990649 6.6204398 7.3370503 6.5511843 6.8144531 6.2578125 C 6.1650223 5.8932352 5.6993204 5.1944727 5.6738281 4.5058594 C 5.6135757 2.8782804 7.0085396 2.1699219 8.0039062 2.1699219 z M 8 8 A 2.9999999 2.9999999 0 0 1 11 11 A 2.9999999 2.9999999 0 0 1 8 14 A 2.9999999 2.9999999 0 0 1 5 11 A 2.9999999 2.9999999 0 0 1 8 8 z "
     style="opacity:1;fill:#353535;fill-opacity:1" /><path
     d=""
     id="ellipse3338"
     style="opacity:1;fill:#ffffff;fill-opacity:1"
     ry="2.5555549"
     rx="2.5555553"
     cy="14.79796"
     cx="11.266666" /></svg>