<?xml version="1.0" encoding="UTF-8" standalone="no"?>
<svg
   xmlns:dc="http://purl.org/dc/elements/1.1/"
   xmlns:cc="http://creativecommons.org/ns#"
   xmlns:rdf="http://www.w3.org/1999/02/22-rdf-syntax-ns#"
   xmlns:svg="http://www.w3.org/2000/svg"
   xmlns="http://www.w3.org/2000/svg"
   xmlns:sodipodi="http://sodipodi.sourceforge.net/DTD/sodipodi-0.dtd"
   xmlns:inkscape="http://www.inkscape.org/namespaces/inkscape"
   height="16"
   width="16"
   version="1.1"
   viewBox="0 0 16 16"
   id="svg2"
   inkscape:version="0.91 r"
   sodipodi:docname="si-syncing-1.svg">
  <metadata
     id="metadata12">
    <rdf:RDF>
      <cc:Work
         rdf:about="">
        <dc:format>image/svg+xml</dc:format>
        <dc:type
           rdf:resource="http://purl.org/dc/dcmitype/StillImage" />
        <dc:title></dc:title>
      </cc:Work>
    </rdf:RDF>
  </metadata>
  <defs
     id="defs10" />
  <sodipodi:namedview
     pagecolor="#ffffff"
     bordercolor="#666666"
     borderopacity="1"
     objecttolerance="10"
     gridtolerance="10"
     guidetolerance="10"
     inkscape:pageopacity="0"
     inkscape:pageshadow="2"
     inkscape:window-width="1920"
     inkscape:window-height="1056"
     id="namedview8"
     showgrid="true"
     inkscape:zoom="45.254834"
     inkscape:cx="9.1815374"
     inkscape:cy="9.2405553"
     inkscape:window-x="0"
     inkscape:window-y="24"
     inkscape:window-maximized="1"
     inkscape:current-layer="svg2">
    <inkscape:grid
       type="xygrid"
       id="grid4140" />
  </sodipodi:namedview>
  <g
     id="g4"
     style="opacity:1;fill:#353535;fill-opacity:1"
     transform="matrix(0.8660254,0.5,-0.5,0.8660254,3.8240968,-8.2680969)"
     inkscape:transform-center-x="-0.031278735"
     inkscape:transform-center-y="0.46539104">
    <path
       d="m 11.749506,6 c 1.715867,0.00199 3.348781,0.7385122 4.486,2.0234 0.08714,-0.015574 0.175482,-0.023405 0.264,-0.0234 0.828427,0 1.5,0.6715729 1.5,1.5 -6.03e-4,0.3944075 -0.156522,0.772708 -0.434,1.053 0.119953,0.473055 0.181743,0.958979 0.184,1.447 -0.0026,1.279201 -0.413922,2.524097 -1.174,3.553 0.1136,0.21481 0.173313,0.454002 0.174,0.697 0,0.828427 -0.671573,1.5 -1.5,1.5 -0.341677,-4.92e-4 -0.672947,-0.117618 -0.939,-0.332 -0.800212,0.380744 -1.674829,0.579505 -2.561,0.582 -2.1423082,-0.0021 -4.120961,-1.146293 -5.1914003,-3.002 -0.019518,0.001 -0.039055,0.0017 -0.0586,0.002 -0.8284271,0 -1.5,-0.671573 -1.5,-1.5 0.00138,-0.538554 0.2913662,-1.035035 0.75978,-1.3008 -0.00437,-0.06634 -0.00764,-0.132757 -0.0098,-0.19921 0,-3.3137085 2.6862915,-6 6.0000003,-6 z m 0,1 C 8.988082,7 6.7495057,9.2385763 6.7495057,12 l 2.9e-6,0.02148 c 0.4527451,0.07753 0.8450113,0.358219 1.0645,0.76172 l 3.4609004,-0.55273 c 0.130098,-0.712323 0.750494,-1.230021 1.4746,-1.2305 0.279637,3.11e-4 0.553619,0.07878 0.79102,0.22656 l 1.543,-1.2338 c -0.0553,-0.1582214 -0.0837,-0.3245926 -0.084,-0.4922 1.53e-4,-0.3530001 0.124797,-0.6946373 0.352,-0.9648 -0.942039,-0.9801257 -2.242558,-1.5344167 -3.602,-1.5352 z m 3.959,3.7734 -1.543,1.2344 c 0.0553,0.158219 0.08369,0.324586 0.08399,0.49219 -5.62e-4,0.32411 -0.106088,0.63932 -0.30078,0.89844 l 0.93359,1.3984 c 0.119967,-0.03041 0.243237,-0.04587 0.367,-0.046 0.202825,3e-5 0.403537,0.04119 0.59,0.121 0.5912,-0.840726 0.908953,-1.843217 0.91,-2.871 -0.0016,-0.338705 -0.03757,-0.676372 -0.10742,-1.0078 -0.04738,0.0049 -0.09496,0.0075 -0.14258,0.0078 -0.279637,-3.11e-4 -0.553619,-0.07878 -0.79102,-0.22656 z m -4.2734,2.4434 -3.4609003,0.55469 c -0.060844,0.327891 -0.22922,0.626156 -0.47852,0.84766 0.9088356,1.477938 2.5188843,2.379079 4.2539003,2.3809 0.701047,-0.0023 1.393769,-0.152049 2.0332,-0.43945 -0.02184,-0.102079 -0.03297,-0.20616 -0.0332,-0.31055 5.62e-4,-0.32411 0.106088,-0.63932 0.30078,-0.89844 l -0.93359,-1.3984 c -0.119992,0.03072 -0.243328,0.04647 -0.36719,0.04687 -0.548391,-0.0012 -1.052443,-0.301474 -1.3145,-0.7832 z"
       id="path6"
       style="fill:#353535;fill-opacity:1"
       inkscape:connector-curvature="0"
       sodipodi:nodetypes="ccccccccccccccccccccccccccccccccccccccccccccccccccccc" />
  </g>
</svg>
