<svg xmlns="http://www.w3.org/2000/svg" viewBox="0 0 16 16">
 <path d="m12.95 12.95-0.566-0.566m0.071-8.8388 0.495-0.495m-9.3341 0.5657-0.5656-0.5657m-2.0503 4.9498h1m12 0h1m-7-6v-1" style="stroke-opacity:1;fill:#353535;fill-opacity:1;stroke:#353535;stroke-linecap:round;stroke-width:2"/>
 <path d="m 8 4 c -2.209 0 -4 1.791 -4 4 0 0.287 0.036 0.574 0.094 0.844 0.581 -0.527 1.301 -0.906 2.156 -0.906 1.615 0 2.925 1.187 3.188 2.719 0.308 0.176 0.566 0.411 0.813 0.656 0.005 0.005 0.026 -0.005 0.031 0 1.053 -0.72 1.719 -1.94 1.719 -3.312 0 -2.209 -1.791 -4 -4 -4 z m -1.75 5 c -0.845 0 -1.568 0.455 -1.953 1.112 -0.217 -0.155 -0.493 -0.255 -0.797 -0.255 -0.69 0 -1.25 0.48 -1.25 1.071 0 0.133 0.027 0.258 0.078 0.375 -0.785 0.3 -1.328 0.981 -1.328 1.767 0 1.068 1 1.929 2.25 1.929 l 4.5 0 c 1.247 0 2.25 -0.86 2.25 -1.929 0 -0.846 -0.634 -1.56 -1.516 -1.821 0.002 -0.037 0.016 -0.07 0.016 -0.107 0 -1.183 -1.01 -2.143 -2.25 -2.143 z" style="fill:#353535;fill-opacity:1"/>
</svg>
