<?xml version="1.0" encoding="UTF-8" standalone="no"?>
<svg
   xmlns:dc="http://purl.org/dc/elements/1.1/"
   xmlns:cc="http://creativecommons.org/ns#"
   xmlns:rdf="http://www.w3.org/1999/02/22-rdf-syntax-ns#"
   xmlns:svg="http://www.w3.org/2000/svg"
   xmlns="http://www.w3.org/2000/svg"
   xmlns:sodipodi="http://sodipodi.sourceforge.net/DTD/sodipodi-0.dtd"
   xmlns:inkscape="http://www.inkscape.org/namespaces/inkscape"
   width="16"
   height="16"
   viewBox="0 0 16 16"
   id="svg2"
   version="1.1"
   inkscape:version="0.48.5 r10040"
   sodipodi:docname="application-vector.svg">
  <metadata
     id="metadata16">
    <rdf:RDF>
      <cc:Work
         rdf:about="">
        <dc:format>image/svg+xml</dc:format>
        <dc:type
           rdf:resource="http://purl.org/dc/dcmitype/StillImage" />
      </cc:Work>
    </rdf:RDF>
  </metadata>
  <defs
     id="defs14" />
  <sodipodi:namedview
     pagecolor="#ffffff"
     bordercolor="#666666"
     borderopacity="1"
     objecttolerance="10"
     gridtolerance="10"
     guidetolerance="10"
     inkscape:pageopacity="0"
     inkscape:pageshadow="2"
     inkscape:window-width="1280"
     inkscape:window-height="970"
     id="namedview12"
     showgrid="true"
     inkscape:zoom="14.75"
     inkscape:cx="-7.4234502"
     inkscape:cy="11.801695"
     inkscape:window-x="0"
     inkscape:window-y="0"
     inkscape:window-maximized="1"
     inkscape:current-layer="svg2">
    <inkscape:grid
       type="xygrid"
       id="grid3004" />
  </sodipodi:namedview>
  <path
     style="fill:#04aa9c;fill-opacity:1"
     d="M 2.667969,-4.46e-4 C 2.324219,-4.46e-4 2,0.337812 2,0.6964467 L 2,15.303108 C 2,15.641365 2.34375,16 2.667969,16 l 10.664062,0 C 13.65625,16 14,15.641365 14,15.303108 L 14,3.9995538 9.9999996,-4.46e-4 z"
     id="path4-3"
     inkscape:connector-curvature="0"
     sodipodi:nodetypes="ssssssccs" />
  <path
     style="fill:#000000;fill-opacity:0.19599998"
     d="m 10.583223,3.3315848 0.0154,0.01953 0.04005,-0.01953 z m 0.02978,0.667969 3.387,3.664062 0,-3.664062 z"
     id="path6"
     inkscape:connector-curvature="0"
     sodipodi:nodetypes="cccccccc" />
  <path
     style="fill:#ffffff;fill-opacity:0.39200003"
     d="m 9.9999996,-4.46e-4 3.9963964,3.9999998 -3.383784,0 c -0.299099,0 -0.6126124,-0.317117 -0.6126124,-0.616216 z"
     id="path8"
     inkscape:connector-curvature="0"
     sodipodi:nodetypes="ccssc" />
  <path
     style="fill:#ffffff"
     d="m 10.5738,4.7490785 c -0.271218,0 -0.509225,0.1439107 -0.6309957,0.3542435 l -2.6789661,0 c 0,0 -0.5313652,-0.011069 -1.0793359,0.2546131 -0.5424346,0.2656826 -1.1236164,0.8690032 -1.1236164,1.8708476 0,1.0018444 0.5811818,1.605165 1.1236164,1.8708476 0.2601479,0.1273066 0.5147596,0.1771217 0.7140216,0.2103327 l 0,0.1549815 -1.0129153,0.9741695 c -0.027675,-0.0055 -0.05535,-0.02214 -0.088561,-0.02214 -0.2047967,0 -0.3708476,0.160516 -0.3708476,0.354243 0,0.193728 0.1660509,0.354244 0.3708476,0.354244 0.1992633,0 0.3653143,-0.160516 0.3653143,-0.354244 0,-0.03321 -0.011071,-0.06089 -0.02214,-0.08856 l 1.0129153,-0.9741691 1.2121758,0 0,-0.3542434 0.3708489,0 c 0,0 0.3819184,0.011069 0.7583035,0.1881911 0.3708476,0.1771217 0.7084867,0.4594094 0.7084867,1.2287824 0,0.769373 -0.3376391,1.051661 -0.7084867,1.228783 -0.3763851,0.177122 -0.7583035,0.188191 -0.7583035,0.188191 l -2.6789661,0 C 5.9354252,11.977858 5.6974175,11.833948 5.4262002,11.833948 c -0.4040586,0 -0.7306271,0.315497 -0.7306271,0.708487 0,0.392989 0.3265685,0.708487 0.7306271,0.708487 0.2712173,0 0.509225,-0.143911 0.6309955,-0.354244 l 2.6789661,0 c 0,0 0.5313652,0.01107 1.0793359,-0.254613 0.5424343,-0.265683 1.1236163,-0.869003 1.1236163,-1.870848 0,-1.0018441 -0.581182,-1.6051647 -1.1236163,-1.8708473 C 9.267527,8.6346871 8.7361618,8.6457565 8.7361618,8.6457565 l -0.3708489,0 0,-0.110701 1.0129152,-0.9741696 c 0.033211,0.00553 0.055351,0.02214 0.088561,0.02214 0.204798,0 0.3708489,-0.1605162 0.3708489,-0.3542435 0,-0.1937272 -0.1660509,-0.3542435 -0.3708489,-0.3542435 -0.199262,0 -0.3653129,0.1605163 -0.3653129,0.3542435 0,0.033211 0.016604,0.060886 0.02214,0.088561 l -1.0073805,0.9741695 -1.2177119,0 0,0.2988936 C 6.7767534,8.5627304 6.6439121,8.5239846 6.5055347,8.4575654 6.1346871,8.2804437 5.7970478,7.9981556 5.7970478,7.2287827 5.7970478,6.4594098 6.1346871,6.1771217 6.5055347,6 6.8819198,5.8228783 7.2638382,5.8118089 7.2638382,5.8118089 l 2.6789661,0 c 0.1217707,0.2103327 0.3597777,0.3542434 0.6309957,0.3542434 0.404058,0 0.730627,-0.3154977 0.730627,-0.7084869 0,-0.3929892 -0.326569,-0.7084869 -0.730627,-0.7084869 z"
     id="path10"
     inkscape:connector-curvature="0" />
</svg>
