<svg width="22" xmlns="http://www.w3.org/2000/svg" height="22" viewBox="0 0 22 22" xmlns:xlink="http://www.w3.org/1999/xlink">
<path style="fill:#04aa9c" d="M 3.667969 0.457031 C 3.195312 0.457031 2.75 0.902344 2.75 1.375 L 2.75 20.625 C 2.75 21.070312 3.222656 21.542969 3.667969 21.542969 L 18.332031 21.542969 C 18.777344 21.542969 19.25 21.070312 19.25 20.625 L 19.25 6.417969 L 13.292969 0.457031 Z "/>
<path style="fill:#000;fill-opacity:.196" d="M 13.292969 5.5 L 13.320312 5.527344 L 13.390625 5.5 Z M 14.207031 6.417969 L 19.25 11.457031 L 19.25 6.417969 Z "/>
<path style="fill:#fff;fill-opacity:.392" d="M 13.292969 0.457031 L 19.25 6.417969 L 14.207031 6.417969 C 13.761719 6.417969 13.292969 5.945312 13.292969 5.5 Z "/>
<path style="fill:#fff" d="M 13.496094 8.25 C 13.230469 8.25 13.007812 8.386719 12.882812 8.59375 L 10.285156 8.59375 C 10.285156 8.59375 9.769531 8.585938 9.238281 8.839844 C 8.710938 9.097656 8.148438 9.683594 8.148438 10.65625 C 8.148438 11.628906 8.710938 12.214844 9.238281 12.472656 C 9.492188 12.59375 9.738281 12.644531 9.929688 12.675781 L 9.929688 12.828125 L 8.949219 13.773438 C 8.921875 13.761719 8.894531 13.75 8.859375 13.75 C 8.664062 13.75 8.503906 13.902344 8.503906 14.09375 C 8.503906 14.285156 8.664062 14.4375 8.859375 14.4375 C 9.058594 14.4375 9.21875 14.285156 9.21875 14.09375 C 9.21875 14.0625 9.203125 14.035156 9.195312 14.007812 L 10.175781 13.0625 L 11.355469 13.0625 L 11.355469 12.71875 L 11.714844 12.71875 C 11.714844 12.71875 12.085938 12.726562 12.449219 12.902344 C 12.808594 13.074219 13.140625 13.347656 13.140625 14.09375 C 13.140625 14.839844 12.808594 15.113281 12.449219 15.285156 C 12.085938 15.460938 11.714844 15.46875 11.714844 15.46875 L 9.117188 15.46875 C 8.992188 15.261719 8.769531 15.125 8.503906 15.125 C 8.109375 15.125 7.792969 15.433594 7.792969 15.8125 C 7.792969 16.191406 8.109375 16.5 8.503906 16.5 C 8.769531 16.5 8.992188 16.363281 9.117188 16.15625 L 11.714844 16.15625 C 11.714844 16.15625 12.230469 16.164062 12.761719 15.910156 C 13.289062 15.652344 13.851562 15.066406 13.851562 14.09375 C 13.851562 13.121094 13.289062 12.535156 12.761719 12.277344 C 12.230469 12.023438 11.714844 12.03125 11.714844 12.03125 L 11.355469 12.03125 L 11.355469 11.925781 L 12.335938 10.980469 C 12.367188 10.988281 12.394531 11 12.425781 11 C 12.621094 11 12.78125 10.847656 12.78125 10.65625 C 12.78125 10.464844 12.621094 10.3125 12.425781 10.3125 C 12.230469 10.3125 12.070312 10.464844 12.070312 10.65625 C 12.070312 10.6875 12.082031 10.714844 12.089844 10.742188 L 11.113281 11.6875 L 9.929688 11.6875 L 9.929688 11.976562 C 9.8125 11.949219 9.683594 11.914062 9.550781 11.847656 C 9.191406 11.675781 8.859375 11.402344 8.859375 10.65625 C 8.859375 9.910156 9.191406 9.636719 9.550781 9.464844 C 9.914062 9.289062 10.285156 9.28125 10.285156 9.28125 L 12.882812 9.28125 C 13.007812 9.488281 13.230469 9.625 13.496094 9.625 C 13.890625 9.625 14.207031 9.316406 14.207031 8.9375 C 14.207031 8.558594 13.890625 8.25 13.496094 8.25 Z "/>
</svg>
