<?xml version="1.0" encoding="UTF-8" standalone="no"?>
<svg
   xmlns:dc="http://purl.org/dc/elements/1.1/"
   xmlns:cc="http://creativecommons.org/ns#"
   xmlns:rdf="http://www.w3.org/1999/02/22-rdf-syntax-ns#"
   xmlns:svg="http://www.w3.org/2000/svg"
   xmlns="http://www.w3.org/2000/svg"
   xmlns:sodipodi="http://sodipodi.sourceforge.net/DTD/sodipodi-0.dtd"
   xmlns:inkscape="http://www.inkscape.org/namespaces/inkscape"
   width="22"
   viewBox="0 0 22 22"
   height="22"
   id="svg2"
   version="1.1"
   inkscape:version="0.91 r"
   sodipodi:docname="application-mathematica.svg"
   inkscape:export-filename="/home/andreas/application-mathematica.png"
   inkscape:export-xdpi="500"
   inkscape:export-ydpi="500">
  <metadata
     id="metadata16">
    <rdf:RDF>
      <cc:Work
         rdf:about="">
        <dc:format>image/svg+xml</dc:format>
        <dc:type
           rdf:resource="http://purl.org/dc/dcmitype/StillImage" />
        <dc:title />
      </cc:Work>
    </rdf:RDF>
  </metadata>
  <sodipodi:namedview
     pagecolor="#ffffff"
     bordercolor="#666666"
     borderopacity="1"
     objecttolerance="10"
     gridtolerance="10"
     guidetolerance="10"
     inkscape:pageopacity="0"
     inkscape:pageshadow="2"
     inkscape:window-width="1366"
     inkscape:window-height="747"
     id="namedview14"
     showgrid="false"
     inkscape:zoom="55.625731"
     inkscape:cx="10.659472"
     inkscape:cy="9.2695107"
     inkscape:window-x="0"
     inkscape:window-y="21"
     inkscape:window-maximized="1"
     inkscape:current-layer="svg2" />
  <defs
     id="defs4">
    <clipPath
       id="clipPath-141154033">
      <g
         transform="translate(0,-1004.3622)"
         id="g17">
        <path
           style="fill:#1890d0"
           inkscape:connector-curvature="0"
           d="m -24,13 c 0,1.105 -0.672,2 -1.5,2 -0.828,0 -1.5,-0.895 -1.5,-2 0,-1.105 0.672,-2 1.5,-2 0.828,0 1.5,0.895 1.5,2 z"
           transform="matrix(15.333333,0,0,11.5,414.99999,878.8622)"
           id="path19" />
      </g>
    </clipPath>
  </defs>
  <g
     id="g4180"
     transform="matrix(0.44444444,0,0,0.47826087,0.33333344,-0.47826088)">
    <path
       id="path6"
       d="M 8,1 C 6.9714285,1 6,1.9714285 6,3 l 0,42 c 0,0.971429 1.0285714,2 2,2 l 32,0 c 0.971429,0 2,-1.028571 2,-2 L 42,14 29,1 Z"
       style="fill:#e52f45;fill-opacity:1"
       inkscape:connector-curvature="0" />
    <path
       id="path8"
       d="M 29,12 29.0625,12.0625 29.21875,12 29,12 Z m 2,2 11,11 0,-11 -11,0 z"
       style="fill-opacity:0.19599998"
       inkscape:connector-curvature="0" />
    <path
       id="path10"
       d="m 29,1 13,13 -11,0 c -0.971429,0 -2,-1.028571 -2,-2 L 29,1 Z"
       style="fill:#ffffff;fill-opacity:0.39200003"
       inkscape:connector-curvature="0" />
    <g
       transform="matrix(0.87948557,0,0,0.87846842,2.8571549,7.465669)"
       clip-path="url(#clipPath-141154033)"
       id="g127">
      <!-- color: #eed6da -->
      <g
         id="g129">
        <path
           style="fill:#e52f45;fill-opacity:1;fill-rule:evenodd;stroke:none"
           inkscape:connector-curvature="0"
           d="m 24.348,11.246 -2.828,4.426 2.539,3.59 2.828,-3.531 -2.539,-4.484"
           id="path131" />
        <path
           sodipodi:nodetypes="cccc"
           style="fill:#ffffff;fill-opacity:1;stroke:#e52f45;stroke-width:0.56884319;stroke-linecap:square;stroke-linejoin:round;stroke-miterlimit:4;stroke-opacity:1"
           inkscape:connector-curvature="0"
           d="m -69.359,154.085 -2.539,-4.485 -2.828,4.426 2.539,3.59"
           transform="matrix(0.999992,0,0,0.999992,96.244757,-138.35281)"
           stroke-miterlimit="4"
           id="path133" />
        <path
           style="fill:#e63636;fill-opacity:1;fill-rule:evenodd;stroke:none"
           inkscape:connector-curvature="0"
           d="m 26.887,15.734 -2.828,3.531 4.844,-1.961 3.117,-3.531 -5.133,1.961"
           id="path135" />
        <path
           sodipodi:nodetypes="ccccc"
           style="fill:#ffffff;fill-opacity:1;stroke:#e52f45;stroke-width:0.56884319;stroke-linecap:square;stroke-linejoin:round;stroke-miterlimit:4;stroke-opacity:1"
           inkscape:connector-curvature="0"
           d="m -69.36,154.09 -2.828,3.531 4.844,-1.961 3.117,-3.531 z"
           transform="matrix(0.999992,0,0,0.999992,96.244757,-138.35281)"
           stroke-miterlimit="4"
           id="path137" />
        <path
           style="fill:#000000;fill-opacity:1;fill-rule:evenodd;stroke:none"
           inkscape:connector-curvature="0"
           d="m 28.906,17.305 -0.059,5.27 2.711,-3.531 0.461,-5.27 -3.113,3.531"
           id="path139" />
        <path
           sodipodi:nodetypes="ccccc"
           style="fill:#ffffff;fill-opacity:1;stroke:#e52f45;stroke-width:0.56884319;stroke-linecap:square;stroke-linejoin:round;stroke-miterlimit:4;stroke-opacity:1"
           inkscape:connector-curvature="0"
           d="m -67.34,155.66 -0.059,5.27 2.711,-3.523 0.461,-5.273 z"
           transform="matrix(0.999992,0,0,0.999992,96.244757,-138.35281)"
           stroke-miterlimit="4"
           id="path141" />
        <path
           style="fill:#f4a395;fill-opacity:1;fill-rule:evenodd;stroke:none"
           inkscape:connector-curvature="0"
           d="m 31.555,19.04 -2.711,3.531 4.211,1.512 3.578,-4.09 -5.078,-0.953"
           id="path143" />
        <path
           sodipodi:nodetypes="ccccc"
           style="fill:#ffffff;fill-opacity:1;stroke:#e52f45;stroke-width:0.56884319;stroke-linecap:square;stroke-linejoin:round;stroke-miterlimit:4;stroke-opacity:1"
           inkscape:connector-curvature="0"
           d="m -67.401,160.921 4.211,1.512 3.578,-4.09 -5.078,-0.953 z"
           transform="matrix(0.999992,0,0,0.999992,96.244757,-138.35281)"
           stroke-miterlimit="4"
           id="path145" />
        <path
           sodipodi:nodetypes="ccccc"
           style="fill:#ffffff;fill-opacity:1;fill-rule:evenodd;stroke:#e52f45;stroke-width:0.5449518;stroke-miterlimit:4;stroke-dasharray:none;stroke-opacity:1"
           inkscape:connector-curvature="0"
           d="m 33.05,24.09 -4.211,-1.512 3.059,3.867 4.844,1.902 -3.691,-4.258"
           id="path147" />
        <path
           style="fill:none;stroke:#e52f45;stroke-width:0.56884319;stroke-linecap:square;stroke-linejoin:round;stroke-miterlimit:4;stroke-opacity:1"
           inkscape:connector-curvature="0"
           d="m -63.19,162.44 -4.211,-1.512 3.059,3.867 4.844,1.902 m -3.691,-4.258"
           transform="matrix(0.999992,0,0,0.999992,96.244757,-138.35281)"
           stroke-miterlimit="4"
           id="path149" />
        <path
           style="fill:#781919;fill-opacity:1;fill-rule:evenodd;stroke:none"
           inkscape:connector-curvature="0"
           d="m 31.906,26.438 -4.848,1.289 4.441,1.23 5.25,-0.617 -4.844,-1.906"
           id="path151" />
        <path
           style="fill:#ffffff;fill-opacity:1;stroke:#e52f45;stroke-width:0.56884319;stroke-linecap:square;stroke-linejoin:round;stroke-miterlimit:4;stroke-opacity:1"
           inkscape:connector-curvature="0"
           d="m -64.34,164.79 -4.848,1.289 4.441,1.227 5.25,-0.617 -4.852,-1.902 m 0,0.004"
           transform="matrix(0.999992,0,0,0.999992,96.244757,-138.35281)"
           stroke-miterlimit="4"
           id="path153" />
        <path
           style="fill:#ffffff;fill-opacity:1;fill-rule:evenodd;stroke:#e52f45;stroke-width:0.56884319;stroke-linecap:square;stroke-linejoin:round;stroke-miterlimit:4;stroke-opacity:1"
           inkscape:connector-curvature="0"
           d="m -64.745,167.31 -4.441,-1.234 -0.289,4.09 4.848,2.523 -0.117,-5.383"
           transform="matrix(0.999992,0,0,0.999992,96.244757,-138.35281)"
           stroke-miterlimit="4"
           id="path155" />
        <path
           style="fill:#f15459;fill-opacity:1;fill-rule:evenodd;stroke:none"
           inkscape:connector-curvature="0"
           d="m 24.12,31.875 -0.059,4.875 2.711,-4.93 0.289,-4.09 -2.941,4.145"
           id="path157" />
        <path
           style="fill:#ffffff;fill-opacity:1;stroke:#e52f45;stroke-width:0.56884319;stroke-linecap:square;stroke-linejoin:round;stroke-miterlimit:4;stroke-opacity:1"
           inkscape:connector-curvature="0"
           d="m -72.13,170.23 -0.066,4.875 2.711,-4.93 0.289,-4.09 m -2.938,4.145"
           transform="matrix(0.999992,0,0,0.999992,96.244757,-138.35281)"
           stroke-miterlimit="4"
           id="path159" />
        <path
           style="fill:#f47f6a;fill-opacity:1;fill-rule:evenodd;stroke:none"
           inkscape:connector-curvature="0"
           d="m 21.516,15.676 -5.078,-2.074 2.945,3.813 4.672,1.848 -2.539,-3.586"
           id="path161" />
        <path
           sodipodi:nodetypes="ccccc"
           style="fill:#ffffff;fill-opacity:1;stroke:#e52f45;stroke-width:0.56884319;stroke-linecap:square;stroke-linejoin:round;stroke-miterlimit:4;stroke-opacity:1"
           inkscape:connector-curvature="0"
           d="m -74.73,154.03 -5.078,-2.074 2.945,3.813 4.672,1.848 z"
           transform="matrix(0.999992,0,0,0.999992,96.244757,-138.35281)"
           stroke-miterlimit="4"
           id="path163" />
        <path
           style="fill:#4c1217;fill-opacity:1;fill-rule:evenodd;stroke:none"
           inkscape:connector-curvature="0"
           d="m 19.387,17.414 -2.945,-3.809 0.578,5.492 2.539,3.137 -0.172,-4.82"
           id="path165" />
        <path
           style="fill:#ffffff;fill-opacity:1;stroke:#e52f45;stroke-width:0.56884319;stroke-linecap:square;stroke-linejoin:round;stroke-miterlimit:4;stroke-opacity:1"
           inkscape:connector-curvature="0"
           d="m -76.859,155.77 -2.945,-3.809 0.578,5.492 2.539,3.137 m -0.172,-4.82"
           transform="matrix(0.999992,0,0,0.999992,96.244757,-138.35281)"
           stroke-miterlimit="4"
           id="path167" />
        <path
           style="fill:#dc4d5b;fill-opacity:1;fill-rule:evenodd;stroke:none"
           inkscape:connector-curvature="0"
           d="m 17.02,19.1 -5.133,0.895 3.75,3.754 3.922,-1.512 L 17.02,19.1"
           id="path169" />
        <path
           sodipodi:nodetypes="ccccc"
           style="fill:#ffffff;fill-opacity:1;stroke:#e52f45;stroke-width:0.56884319;stroke-linecap:square;stroke-linejoin:round;stroke-miterlimit:4;stroke-opacity:1"
           inkscape:connector-curvature="0"
           d="m -79.23,157.45 -5.133,0.895 3.75,3.754 3.922,-1.512 z"
           transform="matrix(0.999992,0,0,0.999992,96.244757,-138.35281)"
           stroke-miterlimit="4"
           id="path171" />
        <path
           style="fill:#eb2536;fill-opacity:1;fill-rule:evenodd;stroke:none"
           inkscape:connector-curvature="0"
           d="m 15.637,23.746 -4.387,4.04 5.078,-1.566 3.23,-3.98 -3.922,1.52"
           id="path173" />
        <path
           style="fill:#ffffff;fill-opacity:1;stroke:#e52f45;stroke-width:0.56884319;stroke-linecap:square;stroke-linejoin:round;stroke-miterlimit:4;stroke-opacity:1"
           inkscape:connector-curvature="0"
           d="m -80.61,162.1 -4.387,4.04 5.078,-1.566 3.227,-3.981 -3.922,1.512 m 0,-0.004"
           transform="matrix(0.999992,0,0,0.999992,96.244757,-138.35281)"
           stroke-miterlimit="4"
           id="path175" />
        <path
           style="fill:#5f1726;fill-opacity:1;fill-rule:evenodd;stroke:none"
           inkscape:connector-curvature="0"
           d="m 16.328,26.21 -5.078,1.57 5.828,0.895 4.211,-0.84 -4.961,-1.625"
           id="path177" />
        <path
           style="fill:#ffffff;fill-opacity:1;stroke:#e52f45;stroke-width:0.56884319;stroke-linecap:square;stroke-linejoin:round;stroke-miterlimit:4;stroke-opacity:1"
           inkscape:connector-curvature="0"
           d="m -79.917,164.57 -5.078,1.57 5.828,0.895 4.211,-0.84 m -4.961,-1.625"
           transform="matrix(0.999992,0,0,0.999992,96.244757,-138.35281)"
           stroke-miterlimit="4"
           id="path179" />
        <path
           style="fill:#841920;fill-opacity:1;fill-rule:evenodd;stroke:none"
           inkscape:connector-curvature="0"
           d="m 21.289,27.836 -4.211,0.84 -0.922,5.719 5.191,-2.637 -0.059,-3.922"
           id="path181" />
        <path
           style="fill:#ffffff;fill-opacity:1;stroke:#e52f45;stroke-width:0.56884319;stroke-linecap:square;stroke-linejoin:round;stroke-miterlimit:4;stroke-opacity:1"
           inkscape:connector-curvature="0"
           d="m -74.956,166.19 -4.211,0.84 -0.922,5.719 5.191,-2.637 m -0.059,-3.922"
           transform="matrix(0.999992,0,0,0.999992,96.244757,-138.35281)"
           stroke-miterlimit="4"
           id="path183" />
        <path
           style="fill:#ffffff;fill-opacity:1;fill-rule:evenodd;stroke:#e52f45;stroke-width:0.56884319;stroke-linecap:square;stroke-linejoin:round;stroke-miterlimit:4;stroke-opacity:1"
           inkscape:connector-curvature="0"
           d="m -74.956,166.19 0.059,3.922 2.711,4.988 0.059,-4.875 -2.828,-4.04"
           transform="matrix(0.999992,0,0,0.999992,96.244757,-138.35281)"
           stroke-miterlimit="4"
           id="path185" />
        <path
           style="fill:#000000;fill-opacity:1;fill-rule:evenodd;stroke:none"
           inkscape:connector-curvature="0"
           d="m 24.12,24.03 4.727,-1.457 0.059,-5.27 -4.844,1.961 0.059,4.766"
           id="path187" />
        <path
           style="fill:#ffffff;fill-opacity:1;stroke:#e52f45;stroke-width:0.56884319;stroke-linecap:square;stroke-linejoin:round;stroke-miterlimit:4;stroke-opacity:1"
           inkscape:connector-curvature="0"
           d="m -72.13,162.38 4.727,-1.457 0.059,-5.27 -4.844,1.961 m 0.059,4.766"
           transform="matrix(0.999992,0,0,0.999992,96.244757,-138.35281)"
           stroke-miterlimit="4"
           id="path189" />
        <path
           style="fill:#e52f45;fill-opacity:1;fill-rule:evenodd;stroke:none"
           inkscape:connector-curvature="0"
           d="m 28.844,22.566 -4.727,1.457 2.941,3.699 4.844,-1.289 -3.059,-3.867"
           id="path191" />
        <path
           sodipodi:nodetypes="ccccc"
           style="fill:#ffffff;fill-opacity:1;stroke:#e52f45;stroke-width:0.56884319;stroke-linecap:square;stroke-linejoin:round;stroke-miterlimit:4;stroke-opacity:1"
           inkscape:connector-curvature="0"
           d="m -67.4,160.92 -4.727,1.457 2.941,3.699 4.844,-1.289 z"
           transform="matrix(0.999992,0,0,0.999992,96.244757,-138.35281)"
           stroke-miterlimit="4"
           id="path193" />
        <path
           style="fill:#ffffff;fill-opacity:1;fill-rule:evenodd;stroke:#e52f45;stroke-opacity:1"
           inkscape:connector-curvature="0"
           d="m 24.12,24.03 -2.828,3.809 2.828,4.04 2.941,-4.145 -2.941,-3.699"
           id="path195" />
        <path
           style="fill:#ffffff;fill-opacity:1;stroke:#e52f45;stroke-width:0.22753911;stroke-linecap:square;stroke-linejoin:round;stroke-miterlimit:4;stroke-dasharray:none;stroke-opacity:1"
           inkscape:connector-curvature="0"
           d="m -72.13,162.38 -2.828,3.809 2.828,4.04 2.938,-4.145 -2.938,-3.699 m 0,-0.004"
           transform="matrix(0.999992,0,0,0.999992,96.244757,-138.35281)"
           stroke-miterlimit="4"
           id="path197" />
        <path
           style="fill:#ffffff;fill-opacity:1;fill-rule:evenodd;stroke:none"
           inkscape:connector-curvature="0"
           d="m 16.328,26.21 4.961,1.625 2.828,-3.809 -4.559,-1.797 -3.23,3.98"
           id="path199" />
        <path
           sodipodi:nodetypes="ccccc"
           style="fill:none;stroke:#e52f45;stroke-width:0.56884319;stroke-linecap:square;stroke-linejoin:round;stroke-miterlimit:4;stroke-opacity:1"
           inkscape:connector-curvature="0"
           d="m -79.917,164.57 4.961,1.625 2.828,-3.809 -4.559,-1.797 z"
           transform="matrix(0.999992,0,0,0.999992,96.244757,-138.35281)"
           stroke-miterlimit="4"
           id="path201" />
        <path
           style="fill:#ffffff;fill-opacity:1;fill-rule:evenodd;stroke:none"
           inkscape:connector-curvature="0"
           d="m 24.12,24.03 -0.059,-4.766 -4.676,-1.855 0.176,4.82 4.559,1.797"
           id="path203" />
        <path
           style="fill:none;stroke:#e52f45;stroke-width:0.56884319;stroke-linecap:square;stroke-linejoin:round;stroke-miterlimit:4;stroke-opacity:1"
           inkscape:connector-curvature="0"
           d="m -72.13,162.38 -0.066,-4.766 -4.676,-1.855 0.176,4.82 z"
           transform="matrix(0.999992,0,0,0.999992,96.244757,-138.35281)"
           stroke-miterlimit="4"
           id="path205"
           sodipodi:nodetypes="ccccc" />
        <path
           style="fill:none;fill-opacity:1;fill-rule:evenodd;stroke:none"
           inkscape:connector-curvature="0"
           d="m 29.07,22.477 0.059,-5.465 -5.02,2.031 -4.855,-1.922 0.102,2.703 0.344,-0.008 -0.078,-2.184 4.492,1.777 4.668,-1.891 -0.055,5.07 2.938,3.715 -4.66,1.23 -2.832,3.992 -2.719,-3.879 -4.781,-1.563 3.117,-3.844 -0.09,-2.504 -0.348,0 0.086,2.395 -3.344,4.117 0.234,0.078 4.906,1.605 2.934,4.195 3.051,-4.301 5.03,-1.34 -3.18,-4.02"
           id="path207" />
      </g>
    </g>
  </g>
</svg>
