<svg width="22" xmlns="http://www.w3.org/2000/svg" height="22" viewBox="0 0 22 22" xmlns:xlink="http://www.w3.org/1999/xlink">
<path style="fill:#edaf02" d="M 3.667969 0.457031 C 3.195312 0.457031 2.75 0.902344 2.75 1.375 L 2.75 20.625 C 2.75 21.070312 3.222656 21.542969 3.667969 21.542969 L 18.332031 21.542969 C 18.777344 21.542969 19.25 21.070312 19.25 20.625 L 19.25 1.375 C 19.25 0.902344 18.804688 0.457031 18.332031 0.457031 Z "/>
<path style="fill:#fff" d="M 6.875 14.667969 L 6.875 7.792969 L 15.125 7.792969 L 15.125 14.667969 L 10.542969 14.667969 L 10.542969 11 L 12.832031 11 L 12.832031 12.375 L 11.917969 12.375 L 11.917969 13.292969 L 13.75 13.292969 L 13.75 9.167969 L 8.25 9.167969 L 8.25 14.667969 Z "/>
<path style="fill:#000;fill-opacity:.196" d="M 2.75 16.042969 L 2.75 20.625 C 2.75 21.070312 3.222656 21.542969 3.667969 21.542969 L 18.332031 21.542969 C 18.777344 21.542969 19.25 21.070312 19.25 20.625 L 19.25 16.042969 Z "/>
<g style="fill:#fff">
<path d="M 7.214844 18.792969 C 7.214844 18.960938 7.21875 19.121094 7.234375 19.273438 C 7.25 19.421875 7.28125 19.550781 7.324219 19.660156 C 7.371094 19.769531 7.433594 19.855469 7.515625 19.921875 C 7.59375 19.984375 7.703125 20.019531 7.839844 20.019531 C 7.972656 20.019531 8.078125 19.984375 8.15625 19.921875 C 8.242188 19.855469 8.308594 19.769531 8.347656 19.660156 C 8.394531 19.546875 8.425781 19.414062 8.4375 19.269531 C 8.457031 19.121094 8.464844 18.960938 8.464844 18.792969 C 8.464844 18.621094 8.457031 18.460938 8.4375 18.316406 C 8.425781 18.164062 8.394531 18.03125 8.347656 17.921875 C 8.308594 17.8125 8.246094 17.726562 8.164062 17.660156 C 8.082031 17.597656 7.976562 17.566406 7.839844 17.566406 C 7.703125 17.566406 7.59375 17.597656 7.515625 17.660156 C 7.433594 17.726562 7.371094 17.816406 7.324219 17.929688 C 7.28125 18.039062 7.25 18.167969 7.234375 18.316406 C 7.21875 18.460938 7.214844 18.621094 7.214844 18.792969 M 6.417969 18.792969 C 6.417969 18.1875 6.542969 17.730469 6.792969 17.421875 C 7.042969 17.113281 7.394531 16.957031 7.839844 16.957031 C 8.304688 16.957031 8.65625 17.113281 8.898438 17.421875 C 9.140625 17.730469 9.261719 18.1875 9.261719 18.792969 C 9.261719 19.398438 9.136719 19.855469 8.890625 20.164062 C 8.644531 20.472656 8.296875 20.625 7.84375 20.625 C 7.382812 20.625 7.027344 20.472656 6.78125 20.164062 C 6.539062 19.855469 6.417969 19.398438 6.417969 18.792969 "/>
<path d="M 12.464844 17.039062 L 12.464844 17.617188 L 11.425781 17.617188 L 11.425781 20.550781 L 10.632812 20.550781 L 10.632812 17.617188 L 9.59375 17.617188 L 9.59375 17.039062 L 12.464844 17.039062 "/>
<path d="M 14.613281 17.566406 C 14.425781 17.566406 14.269531 17.597656 14.140625 17.65625 C 14.015625 17.71875 13.90625 17.800781 13.824219 17.910156 C 13.742188 18.019531 13.683594 18.144531 13.644531 18.296875 C 13.609375 18.445312 13.59375 18.609375 13.59375 18.792969 C 13.59375 19.210938 13.667969 19.523438 13.816406 19.722656 C 13.964844 19.917969 14.183594 20.019531 14.472656 20.019531 C 14.519531 20.019531 14.570312 20.015625 14.625 20.011719 C 14.683594 20.007812 14.734375 20.003906 14.78125 19.996094 L 14.78125 18.710938 L 15.5625 18.710938 L 15.5625 20.464844 C 15.46875 20.496094 15.324219 20.53125 15.125 20.566406 C 14.929688 20.605469 14.691406 20.625 14.410156 20.625 C 14.164062 20.625 13.941406 20.585938 13.738281 20.511719 C 13.542969 20.433594 13.375 20.316406 13.234375 20.164062 C 13.09375 20.011719 12.988281 19.820312 12.910156 19.59375 C 12.835938 19.359375 12.796875 19.09375 12.796875 18.792969 C 12.796875 18.492188 12.839844 18.230469 12.929688 18.003906 C 13.019531 17.773438 13.140625 17.578125 13.292969 17.421875 C 13.445312 17.269531 13.628906 17.152344 13.835938 17.078125 C 14.042969 16.996094 14.265625 16.957031 14.503906 16.957031 C 14.660156 16.957031 14.792969 16.96875 14.914062 16.992188 C 15.035156 17.011719 15.144531 17.035156 15.234375 17.058594 C 15.320312 17.085938 15.394531 17.117188 15.449219 17.144531 C 15.507812 17.175781 15.554688 17.199219 15.582031 17.214844 L 15.378906 17.769531 C 15.285156 17.71875 15.171875 17.667969 15.035156 17.628906 C 14.898438 17.585938 14.757812 17.566406 14.613281 17.566406 "/>
</g>
</svg>
