<svg width="22" xmlns="http://www.w3.org/2000/svg" height="22" viewBox="0 0 22 22" xmlns:xlink="http://www.w3.org/1999/xlink">
<path style="fill:#38a34e" d="M 3.667969 0.457031 C 3.195312 0.457031 2.75 0.902344 2.75 1.375 L 2.75 20.625 C 2.75 21.070312 3.222656 21.542969 3.667969 21.542969 L 18.332031 21.542969 C 18.777344 21.542969 19.25 21.070312 19.25 20.625 L 19.25 6.417969 L 13.292969 0.457031 Z "/>
<path style="fill:#000;fill-opacity:.196" d="M 13.292969 5.5 L 13.320312 5.527344 L 13.390625 5.5 Z M 14.207031 6.417969 L 19.25 11.457031 L 19.25 6.417969 Z "/>
<path style="fill:#fff;fill-opacity:.392" d="M 13.292969 0.457031 L 19.25 6.417969 L 14.207031 6.417969 C 13.761719 6.417969 13.292969 5.945312 13.292969 5.5 Z "/>
<path style="fill:#fff" d="M 7.808594 8.25 C 7.550781 8.273438 7.328125 8.546875 7.332031 8.835938 L 7.332031 15.011719 C 7.335938 15.3125 7.578125 15.585938 7.851562 15.582031 L 14.164062 15.582031 C 14.429688 15.578125 14.664062 15.308594 14.667969 15.011719 L 14.667969 8.835938 C 14.671875 8.535156 14.433594 8.253906 14.164062 8.25 Z M 8.253906 9.167969 L 13.746094 9.167969 L 13.746094 13.105469 C 13.707031 13.058594 13.6875 13.042969 13.644531 12.992188 C 13.238281 12.5 12.769531 11.917969 12.207031 11.214844 C 12.09375 11.324219 11.960938 11.460938 11.777344 11.628906 C 11.589844 11.800781 11.371094 12.003906 11.113281 12.230469 C 11.082031 12.265625 10.953125 12.132812 10.710938 11.832031 C 10.464844 11.527344 10.128906 11.066406 9.675781 10.425781 C 9.070312 11.054688 8.632812 11.507812 8.253906 11.886719 Z "/>
</svg>
