<svg width="22" xmlns="http://www.w3.org/2000/svg" height="22" viewBox="0 0 22 22" xmlns:xlink="http://www.w3.org/1999/xlink">
<path style="fill:#5a68a4" d="M 3.667969 0.457031 C 3.195312 0.457031 2.75 0.902344 2.75 1.375 L 2.75 20.625 C 2.75 21.070312 3.222656 21.542969 3.667969 21.542969 L 18.332031 21.542969 C 18.777344 21.542969 19.25 21.070312 19.25 20.625 L 19.25 6.417969 L 13.292969 0.457031 Z "/>
<path style="fill:#fff;fill-opacity:.392" d="M 13.292969 0.457031 L 19.25 6.417969 L 14.207031 6.417969 C 13.761719 6.417969 13.292969 5.945312 13.292969 5.5 Z "/>
<path style="fill:#000;fill-opacity:.196" d="M 13.292969 5.5 L 13.320312 5.527344 L 13.390625 5.5 Z M 14.207031 6.417969 L 19.25 11.457031 L 19.25 6.417969 Z "/>
<path style="fill:#fff;fill-rule:evenodd" d="M 16.5 12.375 C 16.5 14.398438 14.039062 16.042969 11 16.042969 C 7.960938 16.042969 5.5 14.398438 5.5 12.375 C 5.5 10.351562 7.960938 8.707031 11 8.707031 C 14.039062 8.707031 16.5 10.351562 16.5 12.375 Z "/>
<g style="fill:#5a68a4">
<path d="M 9.457031 11.015625 C 9.691406 11.015625 9.875 11.097656 10.011719 11.257812 C 10.148438 11.417969 10.214844 11.640625 10.214844 11.929688 C 10.214844 12.214844 10.160156 12.488281 10.050781 12.753906 C 9.941406 13.015625 9.789062 13.226562 9.597656 13.378906 C 9.40625 13.535156 9.195312 13.609375 8.96875 13.609375 C 8.832031 13.609375 8.71875 13.582031 8.621094 13.527344 C 8.527344 13.472656 8.4375 13.378906 8.355469 13.246094 L 8.335938 13.246094 C 8.316406 13.484375 8.28125 13.703125 8.230469 13.90625 L 8.058594 14.667969 L 7.332031 14.667969 L 8.15625 11.0625 L 8.710938 11.0625 L 8.671875 11.445312 L 8.691406 11.445312 C 8.914062 11.160156 9.167969 11.015625 9.457031 11.015625 M 9.164062 11.5625 C 9.054688 11.5625 8.949219 11.613281 8.847656 11.714844 C 8.746094 11.816406 8.664062 11.949219 8.601562 12.117188 C 8.539062 12.285156 8.507812 12.46875 8.507812 12.671875 C 8.507812 12.792969 8.539062 12.886719 8.597656 12.960938 C 8.65625 13.03125 8.738281 13.066406 8.84375 13.066406 C 8.953125 13.066406 9.054688 13.015625 9.152344 12.914062 C 9.25 12.808594 9.328125 12.667969 9.390625 12.488281 C 9.449219 12.308594 9.480469 12.132812 9.480469 11.957031 C 9.480469 11.695312 9.375 11.5625 9.164062 11.5625 "/>
<path d="M 12.058594 13.566406 L 11.332031 13.566406 L 11.664062 12.105469 C 11.6875 12.003906 11.703125 11.914062 11.703125 11.839844 C 11.703125 11.65625 11.613281 11.5625 11.441406 11.5625 C 11.292969 11.5625 11.160156 11.648438 11.039062 11.816406 C 10.917969 11.988281 10.824219 12.226562 10.753906 12.53125 L 10.519531 13.566406 L 9.792969 13.566406 L 10.589844 10.082031 L 11.3125 10.082031 C 11.25 10.351562 11.203125 10.5625 11.167969 10.707031 C 11.136719 10.851562 11.066406 11.082031 10.960938 11.398438 L 10.980469 11.398438 C 11.082031 11.28125 11.191406 11.191406 11.3125 11.121094 C 11.433594 11.050781 11.578125 11.015625 11.738281 11.015625 C 11.960938 11.015625 12.128906 11.078125 12.25 11.203125 C 12.371094 11.328125 12.433594 11.507812 12.433594 11.738281 C 12.433594 11.847656 12.414062 11.980469 12.378906 12.140625 L 12.058594 13.566406 "/>
<path d="M 13.90625 11.015625 C 14.140625 11.015625 14.328125 11.097656 14.460938 11.257812 C 14.597656 11.417969 14.667969 11.640625 14.667969 11.929688 C 14.667969 12.214844 14.609375 12.488281 14.5 12.753906 C 14.390625 13.015625 14.242188 13.226562 14.050781 13.378906 C 13.859375 13.535156 13.648438 13.609375 13.417969 13.609375 C 13.285156 13.609375 13.171875 13.582031 13.074219 13.527344 C 12.976562 13.472656 12.886719 13.378906 12.804688 13.246094 L 12.789062 13.246094 C 12.769531 13.484375 12.734375 13.703125 12.683594 13.90625 L 12.511719 14.667969 L 11.785156 14.667969 L 12.609375 11.0625 L 13.164062 11.0625 L 13.121094 11.445312 L 13.144531 11.445312 C 13.367188 11.160156 13.621094 11.015625 13.90625 11.015625 M 13.617188 11.5625 C 13.507812 11.5625 13.402344 11.613281 13.296875 11.714844 C 13.195312 11.816406 13.113281 11.949219 13.050781 12.117188 C 12.992188 12.285156 12.960938 12.46875 12.960938 12.671875 C 12.960938 12.792969 12.992188 12.886719 13.050781 12.960938 C 13.109375 13.03125 13.191406 13.066406 13.296875 13.066406 C 13.402344 13.066406 13.507812 13.015625 13.605469 12.914062 C 13.703125 12.808594 13.78125 12.667969 13.839844 12.488281 C 13.902344 12.308594 13.933594 12.132812 13.933594 11.957031 C 13.933594 11.695312 13.828125 11.5625 13.617188 11.5625 "/>
</g>
</svg>
