<svg width="22" xmlns="http://www.w3.org/2000/svg" height="22" viewBox="0 0 22 22" xmlns:xlink="http://www.w3.org/1999/xlink">
<path style="fill:#207145" d="M 3.667969 0.457031 C 3.195312 0.457031 2.75 0.902344 2.75 1.375 L 2.75 20.625 C 2.75 21.070312 3.222656 21.542969 3.667969 21.542969 L 18.332031 21.542969 C 18.777344 21.542969 19.25 21.070312 19.25 20.625 L 19.25 1.375 C 19.25 0.902344 18.804688 0.457031 18.332031 0.457031 Z "/>
<path style="fill:#000;fill-opacity:.196" d="M 2.75 16.042969 L 2.75 20.625 C 2.75 21.070312 3.222656 21.542969 3.667969 21.542969 L 18.332031 21.542969 C 18.777344 21.542969 19.25 21.070312 19.25 20.625 L 19.25 16.042969 Z "/>
<g style="fill:#fff">
<path d="M 15.582031 7.792969 C 15.582031 11.019531 15.582031 11.410156 15.582031 14.207031 C 12.367188 14.207031 9.199219 14.207031 6.417969 14.207031 C 6.417969 10.980469 6.417969 10.589844 6.417969 7.792969 C 9.597656 7.792969 12.855469 7.792969 15.582031 7.792969 Z M 14.667969 8.707031 L 10.542969 8.707031 L 10.542969 10.542969 L 14.667969 10.542969 Z M 9.625 8.707031 L 7.332031 8.707031 L 7.332031 10.542969 L 9.625 10.542969 Z M 14.667969 11.457031 L 10.542969 11.457031 L 10.542969 13.292969 L 14.667969 13.292969 Z M 9.625 11.457031 L 7.332031 11.457031 L 7.332031 13.292969 L 9.625 13.292969 Z "/>
<path d="M 6.417969 20.625 L 6.417969 16.957031 L 8.851562 16.957031 L 8.851562 17.5625 L 7.214844 17.5625 L 7.214844 18.386719 L 8.636719 18.386719 L 8.636719 18.988281 L 7.214844 18.988281 L 7.214844 20.019531 L 8.992188 20.019531 L 8.992188 20.625 L 6.417969 20.625 "/>
<path d="M 12.335938 16.957031 L 12.335938 17.5625 L 11.277344 17.5625 L 11.277344 20.625 L 10.472656 20.625 L 10.472656 17.5625 L 9.414062 17.5625 L 9.414062 16.957031 L 12.335938 16.957031 "/>
<path d="M 15.582031 16.957031 L 15.582031 17.5625 L 14.523438 17.5625 L 14.523438 20.625 L 13.71875 20.625 L 13.71875 17.5625 L 12.660156 17.5625 L 12.660156 16.957031 L 15.582031 16.957031 "/>
</g>
</svg>
