<svg xmlns="http://www.w3.org/2000/svg" width="128" height="128" viewBox="0 0 128 128">
 <g>
  <path d="M 24 24 L 104 24 C 128 24 128 24 128 48 L 128 80 C 128 104 128 104 104 104 C 95 104 92.5 103.925781 83.5 103.925781 C 86.507812 106.496094 89.304688 110.28125 87.734375 114.441406 C 86.066406 120.480469 77.351562 121.980469 73.613281 117.039062 C 66.648438 110.011719 62.78125 103.132812 56 95.925781 C 63.1875 88.324219 67.429688 81.015625 74.832031 73.628906 C 79.699219 69.128906 88.703125 73.164062 88.324219 79.867188 C 88.480469 83.347656 85.761719 85.710938 83.5 87.925781 C 93.550781 87.828125 93.964844 88.355469 104 88 C 112 88 112 88 112 80 L 112 48 C 112 40 112 40 104 40 C 85.664062 40 24 40 24 40 C 16 40 16 40 16 48 L 16 80 C 16 88 16 88 24 88 L 32 88 C 40 88 40 88 40 96 C 40 104 40 104 32 104 L 24 104 C 0 104 0 104 0 80 L 0 48 C 0 24 0 24 24 24 Z " fill="#268bd1"/>
 </g>
</svg>
