<svg xmlns="http://www.w3.org/2000/svg" width="128" height="128" viewBox="0 0 128 128">
 <g>
  <path d="M 8 0 C 4.515625 0 0 4.515625 0 8 L 0 112 C 0 115.296875 4.703125 120 8 120 L 112 120 C 115.296875 120 120 115.296875 120 112 L 120 8 C 120 4.703125 115.296875 0 112 0 Z " fill="#c19553"/>
  <path d="M 8 0 C 4.515625 0 0 4.515625 0 8 L 0 40 C 13.546875 40 106.453125 40 120 40 L 120 8 C 120 4.703125 115.296875 0 112 0 Z " fill="#ffffff" fill-opacity="0.196"/>
  <path d="M 48 16 L 48 64 L 72 64 L 72 16 Z " fill="#ffffff" fill-opacity="0.392"/>
  <path d="M 64 80 L 128 80 L 128 104 L 64 104 Z " fill="#dc312f"/>
 </g>
</svg>
