<svg width="22" xmlns="http://www.w3.org/2000/svg" height="22" viewBox="0 0 22 22" xmlns:xlink="http://www.w3.org/1999/xlink">
<path style="fill:#c19553" d="M 3.667969 0.457031 C 3.195312 0.457031 2.75 0.902344 2.75 1.375 L 2.75 20.625 C 2.75 21.070312 3.222656 21.542969 3.667969 21.542969 L 18.332031 21.542969 C 18.777344 21.542969 19.25 21.070312 19.25 20.625 L 19.25 6.417969 L 13.292969 0.457031 Z "/>
<path style="fill:#000;fill-opacity:.196" d="M 13.292969 5.5 L 13.320312 5.527344 L 13.390625 5.5 Z M 14.207031 6.417969 L 19.25 11.457031 L 19.25 6.417969 Z "/>
<path style="fill:#fff;fill-opacity:.392" d="M 13.292969 0.457031 L 19.25 6.417969 L 14.207031 6.417969 C 13.761719 6.417969 13.292969 5.945312 13.292969 5.5 Z "/>
<path style="fill:#000;fill-opacity:.196" d="M 2.75 16.042969 L 2.75 20.625 C 2.75 21.070312 3.222656 21.542969 3.667969 21.542969 L 18.332031 21.542969 C 18.777344 21.542969 19.25 21.070312 19.25 20.625 L 19.25 16.042969 Z "/>
<g style="fill:#fff">
<path d="M 8.25 0.457031 L 8.25 2.292969 L 10.082031 2.292969 L 10.082031 0.457031 Z M 8.25 2.292969 L 6.417969 2.292969 L 6.417969 4.125 L 8.25 4.125 Z M 8.25 4.125 L 8.25 5.957031 L 10.082031 5.957031 L 10.082031 4.125 Z M 8.25 5.957031 L 6.417969 5.957031 L 6.417969 7.792969 L 8.25 7.792969 Z M 8.25 7.792969 L 8.25 9.625 L 10.082031 9.625 L 10.082031 7.792969 Z M 6.417969 10.542969 L 6.417969 14.207031 L 10.082031 14.207031 L 10.082031 10.542969 Z "/>
<path d="M 8.980469 17.527344 C 8.796875 17.777344 8.625 18.011719 8.472656 18.230469 C 8.316406 18.449219 8.175781 18.660156 8.042969 18.859375 C 7.910156 19.054688 7.78125 19.246094 7.664062 19.433594 C 7.546875 19.613281 7.4375 19.792969 7.328125 19.972656 L 9.039062 19.972656 L 9.039062 20.550781 L 6.417969 20.550781 L 6.417969 20.148438 C 6.511719 19.984375 6.613281 19.816406 6.71875 19.636719 C 6.824219 19.457031 6.945312 19.261719 7.078125 19.058594 C 7.210938 18.855469 7.355469 18.632812 7.507812 18.394531 C 7.667969 18.15625 7.839844 17.898438 8.027344 17.617188 L 6.5 17.617188 L 6.5 17.039062 L 8.980469 17.039062 L 8.980469 17.527344 "/>
<path d="M 10.308594 18.792969 C 10.308594 18.960938 10.316406 19.121094 10.328125 19.273438 C 10.347656 19.421875 10.375 19.550781 10.417969 19.660156 C 10.464844 19.769531 10.53125 19.855469 10.613281 19.921875 C 10.691406 19.984375 10.800781 20.019531 10.9375 20.019531 C 11.070312 20.019531 11.179688 19.984375 11.261719 19.921875 C 11.347656 19.855469 11.410156 19.769531 11.453125 19.660156 C 11.5 19.546875 11.53125 19.414062 11.542969 19.269531 C 11.558594 19.121094 11.570312 18.960938 11.570312 18.792969 C 11.570312 18.621094 11.558594 18.460938 11.542969 18.316406 C 11.53125 18.164062 11.5 18.03125 11.453125 17.921875 C 11.410156 17.8125 11.347656 17.726562 11.265625 17.660156 C 11.183594 17.597656 11.074219 17.566406 10.9375 17.566406 C 10.800781 17.566406 10.691406 17.597656 10.613281 17.660156 C 10.53125 17.726562 10.464844 17.816406 10.417969 17.929688 C 10.375 18.039062 10.347656 18.167969 10.328125 18.316406 C 10.316406 18.460938 10.308594 18.621094 10.308594 18.792969 M 9.507812 18.792969 C 9.507812 18.1875 9.632812 17.730469 9.886719 17.421875 C 10.136719 17.113281 10.488281 16.957031 10.9375 16.957031 C 11.40625 16.957031 11.761719 17.113281 12.003906 17.421875 C 12.25 17.730469 12.371094 18.1875 12.371094 18.792969 C 12.371094 19.398438 12.246094 19.855469 12 20.164062 C 11.75 20.472656 11.398438 20.625 10.945312 20.625 C 10.480469 20.625 10.121094 20.472656 9.871094 20.164062 C 9.628906 19.855469 9.507812 19.398438 9.507812 18.792969 "/>
<path d="M 13.519531 18.792969 C 13.519531 18.960938 13.527344 19.121094 13.539062 19.273438 C 13.558594 19.421875 13.585938 19.550781 13.628906 19.660156 C 13.675781 19.769531 13.742188 19.855469 13.824219 19.921875 C 13.90625 19.984375 14.015625 20.019531 14.152344 20.019531 C 14.285156 20.019531 14.390625 19.984375 14.472656 19.921875 C 14.558594 19.855469 14.621094 19.769531 14.664062 19.660156 C 14.710938 19.546875 14.742188 19.414062 14.753906 19.269531 C 14.773438 19.121094 14.78125 18.960938 14.78125 18.792969 C 14.78125 18.621094 14.773438 18.460938 14.753906 18.316406 C 14.742188 18.164062 14.710938 18.03125 14.664062 17.921875 C 14.621094 17.8125 14.558594 17.726562 14.476562 17.660156 C 14.398438 17.597656 14.289062 17.566406 14.152344 17.566406 C 14.015625 17.566406 13.90625 17.597656 13.824219 17.660156 C 13.742188 17.726562 13.675781 17.816406 13.628906 17.929688 C 13.585938 18.039062 13.558594 18.167969 13.539062 18.316406 C 13.527344 18.460938 13.519531 18.621094 13.519531 18.792969 M 12.71875 18.792969 C 12.71875 18.1875 12.84375 17.730469 13.097656 17.421875 C 13.351562 17.113281 13.699219 16.957031 14.152344 16.957031 C 14.617188 16.957031 14.972656 17.113281 15.21875 17.421875 C 15.460938 17.730469 15.582031 18.1875 15.582031 18.792969 C 15.582031 19.398438 15.460938 19.855469 15.210938 20.164062 C 14.960938 20.472656 14.609375 20.625 14.15625 20.625 C 13.691406 20.625 13.332031 20.472656 13.085938 20.164062 C 12.839844 19.855469 12.71875 19.398438 12.71875 18.792969 "/>
</g>
</svg>
