<svg width="22" xmlns="http://www.w3.org/2000/svg" height="22" viewBox="0 0 22 22" xmlns:xlink="http://www.w3.org/1999/xlink">
<path style="fill:#eb1b23" d="M 3.667969 0.457031 C 3.195312 0.457031 2.75 0.902344 2.75 1.375 L 2.75 20.625 C 2.75 21.070312 3.222656 21.542969 3.667969 21.542969 L 18.332031 21.542969 C 18.777344 21.542969 19.25 21.070312 19.25 20.625 L 19.25 6.417969 L 13.292969 0.457031 Z "/>
<path style="fill:#000;fill-opacity:.196" d="M 13.292969 5.5 L 13.320312 5.527344 L 13.390625 5.5 Z M 14.207031 6.417969 L 19.25 11.457031 L 19.25 6.417969 Z "/>
<path style="fill:#fff;fill-opacity:.392" d="M 13.292969 0.457031 L 19.25 6.417969 L 14.207031 6.417969 C 13.761719 6.417969 13.292969 5.945312 13.292969 5.5 Z "/>
<g style="fill:#fff">
<path d="M 7.953125 10.902344 C 8.304688 10.917969 8.695312 11.144531 8.984375 11.339844 C 9.835938 11.902344 10.511719 12.839844 10.378906 13.914062 C 10.507812 13.710938 10.511719 13.410156 10.511719 13.175781 C 10.511719 12.421875 10.109375 11.644531 9.597656 11.117188 C 9.425781 10.941406 9.246094 10.738281 9.023438 10.632812 L 11.550781 7.640625 L 12.15625 6.921875 C 12.203125 6.867188 12.359375 6.738281 12.324219 6.65625 C 12.292969 6.582031 12.148438 6.535156 12.082031 6.5 C 12.003906 6.464844 11.859375 6.394531 11.773438 6.425781 C 11.6875 6.457031 11.613281 6.582031 11.554688 6.652344 L 11.089844 7.195312 L 8.902344 9.757812 L 8.257812 10.515625 C 8.152344 10.636719 8.019531 10.757812 7.953125 10.902344 Z "/>
<path d="M 6.519531 11.777344 C 7.390625 10.855469 8.15625 9.824219 8.988281 8.863281 L 10.039062 7.621094 C 10.28125 7.34375 10.566406 7.0625 10.761719 6.75 C 10.636719 6.710938 10.347656 6.6875 10.226562 6.75 C 10.097656 6.8125 9.988281 6.988281 9.894531 7.097656 L 9.296875 7.777344 C 9.210938 7.878906 9.105469 8.042969 8.984375 8.105469 C 8.808594 8.199219 8.488281 8.160156 8.296875 8.167969 L 7.589844 8.222656 C 7.0625 8.261719 6.460938 8.261719 6.199219 8.824219 C 5.992188 9.28125 6.023438 9.925781 6.003906 10.417969 C 5.957031 11.449219 5.921875 12.496094 6.019531 13.527344 C 6.0625 13.964844 6.011719 14.53125 6.238281 14.925781 C 6.457031 15.308594 6.882812 15.390625 7.285156 15.429688 C 8.058594 15.503906 8.988281 15.480469 9.613281 14.9375 C 10.359375 14.292969 10.253906 13.136719 9.578125 12.5 C 8.835938 11.800781 7.484375 11.449219 6.519531 11.777344 Z "/>
<path d="M 9.136719 15.527344 C 9.277344 15.585938 9.519531 15.566406 9.671875 15.566406 L 10.648438 15.585938 C 11.882812 15.585938 13.101562 15.503906 14.335938 15.449219 C 14.917969 15.421875 15.582031 15.402344 15.824219 14.75 C 15.976562 14.335938 15.949219 13.804688 15.980469 13.371094 C 16.046875 12.363281 16.074219 11.328125 15.980469 10.320312 C 15.9375 9.851562 15.992188 9.261719 15.789062 8.824219 C 15.472656 8.148438 14.519531 8.199219 13.894531 8.183594 C 13.742188 8.179688 13.453125 8.089844 13.3125 8.15625 C 13.203125 8.210938 13.136719 8.488281 13.089844 8.59375 L 12.53125 9.816406 C 11.878906 11.265625 11.265625 12.746094 10.554688 14.167969 C 10.28125 14.71875 9.785156 15.414062 9.136719 15.527344 Z "/>
</g>
</svg>
