<svg width="22" xmlns="http://www.w3.org/2000/svg" height="22" viewBox="0 0 22 22" xmlns:xlink="http://www.w3.org/1999/xlink">
<path style="fill:#dcdcdc" d="M 3.667969 0.457031 C 3.195312 0.457031 2.75 0.902344 2.75 1.375 L 2.75 20.625 C 2.75 21.070312 3.222656 21.542969 3.667969 21.542969 L 18.332031 21.542969 C 18.777344 21.542969 19.25 21.070312 19.25 20.625 L 19.25 6.417969 L 13.292969 0.457031 Z "/>
<path style="fill:#000;fill-opacity:.196" d="M 13.292969 5.5 L 13.320312 5.527344 L 13.390625 5.5 Z M 14.207031 6.417969 L 19.25 11.457031 L 19.25 6.417969 Z "/>
<path style="fill:#fff;fill-opacity:.392" d="M 13.292969 0.457031 L 19.25 6.417969 L 14.207031 6.417969 C 13.761719 6.417969 13.292969 5.945312 13.292969 5.5 Z "/>
<g style="fill:#545454">
<path d="M 8.878906 14.203125 C 8.878906 14.484375 8.953125 14.683594 9.097656 14.8125 C 9.246094 14.9375 9.457031 15.003906 9.738281 15.007812 L 9.738281 15.582031 C 9.265625 15.578125 8.902344 15.457031 8.640625 15.226562 C 8.382812 14.992188 8.253906 14.667969 8.253906 14.246094 L 8.253906 13 C 8.253906 12.714844 8.175781 12.511719 8.015625 12.394531 C 7.859375 12.269531 7.632812 12.207031 7.332031 12.207031 L 7.332031 11.628906 C 7.65625 11.625 7.890625 11.558594 8.035156 11.433594 C 8.179688 11.304688 8.253906 11.113281 8.253906 10.847656 L 8.253906 9.59375 C 8.253906 9.167969 8.386719 8.839844 8.65625 8.601562 C 8.925781 8.367188 9.285156 8.25 9.738281 8.25 L 9.738281 8.820312 C 9.167969 8.835938 8.878906 9.109375 8.878906 9.636719 L 8.878906 10.847656 C 8.878906 11.4375 8.601562 11.785156 8.046875 11.890625 L 8.046875 11.941406 C 8.601562 12.046875 8.878906 12.394531 8.878906 12.984375 L 8.878906 14.203125 "/>
<path d="M 13.945312 11.890625 C 13.390625 11.785156 13.113281 11.4375 13.113281 10.847656 L 13.113281 9.636719 C 13.113281 9.109375 12.828125 8.835938 12.261719 8.820312 L 12.261719 8.25 C 12.722656 8.25 13.082031 8.367188 13.34375 8.605469 C 13.605469 8.84375 13.738281 9.175781 13.738281 9.59375 L 13.738281 10.847656 C 13.738281 11.113281 13.8125 11.308594 13.960938 11.4375 C 14.105469 11.558594 14.34375 11.625 14.667969 11.628906 L 14.667969 12.207031 C 14.363281 12.207031 14.132812 12.269531 13.976562 12.394531 C 13.816406 12.511719 13.738281 12.714844 13.738281 13 L 13.738281 14.246094 C 13.738281 14.664062 13.609375 14.988281 13.355469 15.222656 C 13.101562 15.457031 12.738281 15.578125 12.261719 15.582031 L 12.261719 15.007812 C 12.539062 15.003906 12.75 14.9375 12.894531 14.8125 C 13.039062 14.683594 13.113281 14.484375 13.113281 14.203125 L 13.113281 12.984375 C 13.113281 12.671875 13.179688 12.433594 13.316406 12.269531 C 13.453125 12.105469 13.664062 11.996094 13.945312 11.941406 L 13.945312 11.890625 "/>
</g>
</svg>
