<svg width="22" xmlns="http://www.w3.org/2000/svg" height="22" viewBox="0 0 22 22" xmlns:xlink="http://www.w3.org/1999/xlink">
<path style="fill:#e66f00" d="M 3.667969 0.457031 C 3.195312 0.457031 2.75 0.902344 2.75 1.375 L 2.75 20.625 C 2.75 21.070312 3.222656 21.542969 3.667969 21.542969 L 18.332031 21.542969 C 18.777344 21.542969 19.25 21.070312 19.25 20.625 L 19.25 6.417969 L 13.292969 0.457031 Z "/>
<path style="fill:#000;fill-opacity:.196" d="M 13.292969 5.5 L 13.320312 5.527344 L 13.390625 5.5 Z M 14.207031 6.417969 L 19.25 11.457031 L 19.25 6.417969 Z "/>
<path style="fill:#fff;fill-opacity:.392" d="M 13.292969 0.457031 L 19.25 6.417969 L 14.207031 6.417969 C 13.761719 6.417969 13.292969 5.945312 13.292969 5.5 Z "/>
<g style="fill-rule:evenodd;fill:#fff">
<path d="M 9.859375 13.714844 C 9.859375 13.714844 9.527344 13.898438 10.09375 13.957031 C 10.785156 14.035156 11.136719 14.023438 11.894531 13.886719 C 11.894531 13.886719 12.097656 14.003906 12.375 14.109375 C 10.671875 14.800781 8.519531 14.066406 9.859375 13.714844 "/>
<path d="M 9.648438 12.808594 C 9.648438 12.808594 9.277344 13.070312 9.847656 13.128906 C 10.582031 13.199219 11.164062 13.207031 12.171875 13.023438 C 12.171875 13.023438 12.308594 13.15625 12.527344 13.230469 C 10.46875 13.800781 8.175781 13.273438 9.648438 12.808594 "/>
<path d="M 11.402344 11.277344 C 11.824219 11.734375 11.292969 12.148438 11.292969 12.148438 C 11.292969 12.148438 12.359375 11.625 11.871094 10.972656 C 11.414062 10.363281 11.0625 10.0625 12.960938 9.019531 C 12.960938 9.019531 9.980469 9.722656 11.402344 11.277344 "/>
<path d="M 13.65625 14.382812 C 13.65625 14.382812 13.902344 14.574219 13.386719 14.722656 C 12.402344 15.003906 9.292969 15.089844 8.429688 14.734375 C 8.121094 14.605469 8.703125 14.429688 8.886719 14.390625 C 9.078125 14.351562 9.183594 14.359375 9.183594 14.359375 C 8.839844 14.128906 6.953125 14.8125 8.226562 15.007812 C 11.699219 15.542969 14.558594 14.765625 13.65625 14.382812 "/>
<path d="M 10.019531 11.875 C 10.019531 11.875 8.4375 12.230469 9.457031 12.359375 C 9.890625 12.414062 10.75 12.402344 11.550781 12.339844 C 12.203125 12.285156 12.859375 12.175781 12.859375 12.175781 C 12.859375 12.175781 12.628906 12.269531 12.464844 12.375 C 10.855469 12.777344 7.753906 12.589844 8.648438 12.179688 C 9.402344 11.835938 10.019531 11.875 10.019531 11.875 "/>
<path d="M 12.855469 13.378906 C 14.488281 12.574219 13.730469 11.800781 13.207031 11.90625 C 13.074219 11.929688 13.019531 11.953125 13.019531 11.953125 C 13.019531 11.953125 13.066406 11.882812 13.15625 11.851562 C 14.199219 11.503906 15 12.875 12.820312 13.417969 C 12.820312 13.417969 12.847656 13.398438 12.855469 13.378906 "/>
<path d="M 11.871094 7.332031 C 11.871094 7.332031 12.773438 8.191406 11.011719 9.507812 C 9.601562 10.566406 10.691406 11.171875 11.011719 11.859375 C 10.1875 11.152344 9.582031 10.53125 9.988281 9.953125 C 10.585938 9.105469 12.234375 8.695312 11.871094 7.332031 "/>
<path d="M 10.179688 15.558594 C 11.746094 15.652344 14.152344 15.503906 14.207031 14.800781 C 14.207031 14.800781 14.097656 15.066406 12.914062 15.28125 C 11.574219 15.519531 9.925781 15.492188 8.949219 15.335938 C 8.949219 15.335938 9.148438 15.496094 10.179688 15.558594 "/>
</g>
</svg>
