<svg width="22" xmlns="http://www.w3.org/2000/svg" height="22" viewBox="0 0 22 22" xmlns:xlink="http://www.w3.org/1999/xlink">
<path style="fill:#38a34e" d="M 3.667969 0.457031 C 3.195312 0.457031 2.75 0.902344 2.75 1.375 L 2.75 20.625 C 2.75 21.070312 3.222656 21.542969 3.667969 21.542969 L 18.332031 21.542969 C 18.777344 21.542969 19.25 21.070312 19.25 20.625 L 19.25 6.417969 L 13.292969 0.457031 Z "/>
<path style="fill:#000;fill-opacity:.196" d="M 13.292969 5.5 L 13.320312 5.527344 L 13.390625 5.5 Z M 14.207031 6.417969 L 19.25 11.457031 L 19.25 6.417969 Z "/>
<path style="fill:#fff;fill-opacity:.392" d="M 13.292969 0.457031 L 19.25 6.417969 L 14.207031 6.417969 C 13.761719 6.417969 13.292969 5.945312 13.292969 5.5 Z "/>
<path style="fill:#000;fill-opacity:.196" d="M 2.75 16.042969 L 2.75 20.625 C 2.75 21.070312 3.222656 21.542969 3.667969 21.542969 L 18.332031 21.542969 C 18.777344 21.542969 19.25 21.070312 19.25 20.625 L 19.25 16.042969 Z "/>
<g style="fill:#fff">
<path d="M 7.808594 7.332031 C 7.550781 7.359375 7.328125 7.628906 7.332031 7.921875 L 7.332031 14.09375 C 7.335938 14.398438 7.578125 14.671875 7.851562 14.667969 L 14.164062 14.667969 C 14.429688 14.660156 14.664062 14.394531 14.667969 14.09375 L 14.667969 7.921875 C 14.671875 7.617188 14.433594 7.335938 14.164062 7.332031 Z M 8.253906 8.25 L 13.746094 8.25 L 13.746094 12.1875 C 13.707031 12.140625 13.6875 12.125 13.644531 12.074219 C 13.238281 11.585938 12.769531 11.003906 12.207031 10.296875 C 12.09375 10.410156 11.960938 10.542969 11.777344 10.714844 C 11.589844 10.882812 11.371094 11.085938 11.113281 11.316406 C 11.082031 11.351562 10.953125 11.214844 10.710938 10.914062 C 10.464844 10.613281 10.128906 10.148438 9.675781 9.511719 C 9.070312 10.140625 8.632812 10.589844 8.253906 10.972656 Z "/>
<path d="M 8.261719 17.59375 C 8.074219 17.59375 7.914062 17.625 7.785156 17.683594 C 7.652344 17.746094 7.546875 17.832031 7.460938 17.941406 C 7.378906 18.046875 7.316406 18.175781 7.277344 18.328125 C 7.242188 18.472656 7.226562 18.640625 7.226562 18.820312 C 7.226562 19.242188 7.300781 19.550781 7.453125 19.75 C 7.605469 19.949219 7.828125 20.046875 8.121094 20.046875 C 8.167969 20.046875 8.21875 20.042969 8.277344 20.039062 C 8.332031 20.035156 8.382812 20.03125 8.429688 20.023438 L 8.429688 18.742188 L 9.226562 18.742188 L 9.226562 20.496094 C 9.132812 20.523438 8.984375 20.558594 8.78125 20.597656 C 8.582031 20.636719 8.339844 20.652344 8.054688 20.652344 C 7.804688 20.652344 7.578125 20.617188 7.375 20.539062 C 7.175781 20.460938 7.007812 20.34375 6.863281 20.195312 C 6.722656 20.039062 6.609375 19.847656 6.535156 19.621094 C 6.457031 19.390625 6.417969 19.125 6.417969 18.820312 C 6.417969 18.523438 6.460938 18.257812 6.550781 18.03125 C 6.644531 17.800781 6.765625 17.609375 6.921875 17.453125 C 7.078125 17.296875 7.261719 17.183594 7.472656 17.105469 C 7.683594 17.027344 7.910156 16.988281 8.152344 16.988281 C 8.308594 16.988281 8.445312 17 8.566406 17.019531 C 8.691406 17.039062 8.800781 17.0625 8.890625 17.089844 C 8.980469 17.117188 9.054688 17.144531 9.113281 17.175781 C 9.171875 17.203125 9.21875 17.226562 9.246094 17.242188 L 9.039062 17.796875 C 8.945312 17.746094 8.828125 17.699219 8.691406 17.65625 C 8.550781 17.617188 8.410156 17.59375 8.261719 17.59375 "/>
<path d="M 9.832031 20.578125 L 9.832031 20 L 10.707031 20 L 10.707031 17.644531 L 9.832031 17.644531 L 9.832031 17.066406 L 12.375 17.066406 L 12.375 17.644531 L 11.507812 17.644531 L 11.507812 20 L 12.375 20 L 12.375 20.578125 L 9.832031 20.578125 "/>
<path d="M 13.128906 20.578125 L 13.128906 17.066406 L 15.582031 17.066406 L 15.582031 17.644531 L 13.925781 17.644531 L 13.925781 18.496094 L 15.375 18.496094 L 15.375 19.074219 L 13.925781 19.074219 L 13.925781 20.578125 L 13.128906 20.578125 "/>
</g>
</svg>
