<svg width="22" xmlns="http://www.w3.org/2000/svg" height="22" viewBox="0 0 22 22" xmlns:xlink="http://www.w3.org/1999/xlink">
<path style="fill:#dcdcdc" d="M 3.667969 0.457031 C 3.195312 0.457031 2.75 0.902344 2.75 1.375 L 2.75 20.625 C 2.75 21.070312 3.222656 21.542969 3.667969 21.542969 L 18.332031 21.542969 C 18.777344 21.542969 19.25 21.070312 19.25 20.625 L 19.25 1.375 C 19.25 0.902344 18.804688 0.457031 18.332031 0.457031 Z "/>
<g style="fill:#888">
<path d="M 6.417969 7.332031 L 6.417969 7.792969 L 15.582031 7.792969 L 15.582031 7.332031 Z "/>
<path d="M 6.417969 8.25 L 6.417969 8.707031 L 15.582031 8.707031 L 15.582031 8.25 Z "/>
<path d="M 6.417969 9.167969 L 6.417969 9.625 L 15.582031 9.625 L 15.582031 9.167969 Z "/>
<path d="M 6.417969 10.082031 L 6.417969 10.542969 L 15.582031 10.542969 L 15.582031 10.082031 Z "/>
<path d="M 6.417969 11 L 6.417969 11.457031 L 15.582031 11.457031 L 15.582031 11 Z "/>
<path d="M 6.417969 11.917969 L 6.417969 12.375 L 15.582031 12.375 L 15.582031 11.917969 Z "/>
<path d="M 6.417969 12.832031 L 6.417969 13.292969 L 15.582031 13.292969 L 15.582031 12.832031 Z "/>
<path d="M 6.417969 13.75 L 6.417969 14.207031 L 15.582031 14.207031 L 15.582031 13.75 Z "/>
<path d="M 6.417969 14.667969 L 6.417969 15.125 L 15.582031 15.125 L 15.582031 14.667969 Z "/>
</g>
</svg>
