<svg width="22" xmlns="http://www.w3.org/2000/svg" height="22" viewBox="0 0 22 22" xmlns:xlink="http://www.w3.org/1999/xlink">
<path style="fill:#dcdcdc" d="M 3.667969 0.457031 C 3.195312 0.457031 2.75 0.902344 2.75 1.375 L 2.75 20.625 C 2.75 21.070312 3.222656 21.542969 3.667969 21.542969 L 18.332031 21.542969 C 18.777344 21.542969 19.25 21.070312 19.25 20.625 L 19.25 6.417969 L 13.292969 0.457031 Z "/>
<path style="fill:#000;fill-opacity:.196" d="M 13.292969 5.5 L 13.320312 5.527344 L 13.390625 5.5 Z M 14.207031 6.417969 L 19.25 11.457031 L 19.25 6.417969 Z "/>
<path style="fill:#fff;fill-opacity:.392" d="M 13.292969 0.457031 L 19.25 6.417969 L 14.207031 6.417969 C 13.761719 6.417969 13.292969 5.945312 13.292969 5.5 Z "/>
<path style="fill:#888" d="M 7.371094 7.792969 L 10.503906 7.792969 C 10.652344 7.792969 10.769531 7.914062 10.769531 8.066406 L 10.769531 10.722656 C 10.769531 10.875 10.652344 11 10.503906 11 L 7.371094 11 C 7.222656 11 7.105469 10.875 7.105469 10.722656 L 7.105469 8.066406 C 7.105469 7.914062 7.222656 7.792969 7.371094 7.792969 Z "/>
<g style="fill:none;stroke:#888;stroke-linejoin:round;stroke-linecap:round">
<path d="M 26.502841 17.497159 L 31.497159 17.497159 " transform="matrix(.45833 0 0 .45833 -.22917 0)"/>
<path d="M 26.502841 20.497159 L 31.497159 20.497159 " transform="matrix(.45833 0 0 .45833 -.22917 0)"/>
<path d="M 26.502841 23.497159 L 31.497159 23.497159 " transform="matrix(.45833 0 0 .45833 -.22917 0)"/>
<path d="M 16.002841 26.497159 L 32 26.497159 " transform="matrix(.45833 0 0 .45833 -.22917 0)"/>
<path d="M 16.002841 29.497159 L 32 29.497159 " transform="matrix(.45833 0 0 .45833 -.22917 0)"/>
<path d="M 16.002841 32.497159 L 32 32.497159 " transform="matrix(.45833 0 0 .45833 -.22917 0)"/>
<path d="M 16.002841 35.497159 L 32 35.497159 " transform="matrix(.45833 0 0 .45833 -.22917 0)"/>
</g>
</svg>
