<svg width="22" xmlns="http://www.w3.org/2000/svg" height="22" viewBox="0 0 22 22" xmlns:xlink="http://www.w3.org/1999/xlink">
<path style="fill:#38a34e" d="M 3.667969 0.457031 C 3.195312 0.457031 2.75 0.902344 2.75 1.375 L 2.75 20.625 C 2.75 21.070312 3.222656 21.542969 3.667969 21.542969 L 18.332031 21.542969 C 18.777344 21.542969 19.25 21.070312 19.25 20.625 L 19.25 6.417969 L 13.292969 0.457031 Z "/>
<path style="fill:#000;fill-opacity:.196" d="M 13.292969 5.5 L 13.320312 5.527344 L 13.390625 5.5 Z M 14.207031 6.417969 L 19.25 11.457031 L 19.25 6.417969 Z "/>
<path style="fill:#fff;fill-opacity:.392" d="M 13.292969 0.457031 L 19.25 6.417969 L 14.207031 6.417969 C 13.761719 6.417969 13.292969 5.945312 13.292969 5.5 Z "/>
<path style="fill:#000;fill-opacity:.196" d="M 2.75 16.042969 L 2.75 20.625 C 2.75 21.070312 3.222656 21.542969 3.667969 21.542969 L 18.332031 21.542969 C 18.777344 21.542969 19.25 21.070312 19.25 20.625 L 19.25 16.042969 Z "/>
<g style="fill:#fff">
<path d="M 7.808594 7.332031 C 7.550781 7.359375 7.328125 7.628906 7.332031 7.921875 L 7.332031 14.09375 C 7.335938 14.398438 7.578125 14.671875 7.851562 14.667969 L 14.164062 14.667969 C 14.429688 14.660156 14.664062 14.394531 14.667969 14.09375 L 14.667969 7.921875 C 14.671875 7.617188 14.433594 7.335938 14.164062 7.332031 Z M 8.253906 8.25 L 13.746094 8.25 L 13.746094 12.1875 C 13.707031 12.140625 13.6875 12.125 13.644531 12.074219 C 13.238281 11.585938 12.769531 11.003906 12.207031 10.296875 C 12.09375 10.410156 11.960938 10.542969 11.777344 10.714844 C 11.589844 10.882812 11.371094 11.085938 11.113281 11.316406 C 11.082031 11.351562 10.953125 11.214844 10.710938 10.914062 C 10.464844 10.613281 10.128906 10.148438 9.675781 9.511719 C 9.070312 10.140625 8.632812 10.589844 8.253906 10.972656 Z "/>
<path d="M 9.230469 17.039062 L 9.230469 17.617188 L 8.210938 17.617188 L 8.210938 20.550781 L 7.4375 20.550781 L 7.4375 17.617188 L 6.417969 17.617188 L 6.417969 17.039062 L 9.230469 17.039062 "/>
<path d="M 11.335938 17.566406 C 11.152344 17.566406 11 17.597656 10.875 17.65625 C 10.75 17.71875 10.644531 17.800781 10.5625 17.910156 C 10.484375 18.019531 10.425781 18.144531 10.386719 18.296875 C 10.355469 18.445312 10.335938 18.609375 10.335938 18.792969 C 10.335938 19.210938 10.410156 19.523438 10.554688 19.722656 C 10.703125 19.917969 10.917969 20.019531 11.199219 20.019531 C 11.246094 20.019531 11.296875 20.015625 11.351562 20.011719 C 11.40625 20.007812 11.453125 20.003906 11.5 19.996094 L 11.5 18.710938 L 12.269531 18.710938 L 12.269531 20.464844 C 12.175781 20.496094 12.035156 20.53125 11.839844 20.566406 C 11.644531 20.605469 11.414062 20.625 11.136719 20.625 C 10.894531 20.625 10.675781 20.585938 10.480469 20.511719 C 10.289062 20.433594 10.125 20.316406 9.988281 20.164062 C 9.847656 20.011719 9.742188 19.820312 9.667969 19.59375 C 9.59375 19.359375 9.554688 19.09375 9.554688 18.792969 C 9.554688 18.492188 9.597656 18.230469 9.6875 18.003906 C 9.773438 17.773438 9.894531 17.578125 10.042969 17.421875 C 10.195312 17.269531 10.371094 17.152344 10.574219 17.078125 C 10.777344 16.996094 10.996094 16.957031 11.230469 16.957031 C 11.382812 16.957031 11.515625 16.96875 11.632812 16.992188 C 11.753906 17.011719 11.855469 17.035156 11.945312 17.058594 C 12.03125 17.085938 12.101562 17.117188 12.15625 17.144531 C 12.214844 17.175781 12.257812 17.199219 12.289062 17.214844 L 12.089844 17.769531 C 11.996094 17.71875 11.882812 17.667969 11.75 17.628906 C 11.617188 17.585938 11.480469 17.566406 11.335938 17.566406 "/>
<path d="M 14.757812 20.550781 L 14.578125 19.738281 L 13.542969 19.738281 L 13.371094 20.550781 L 12.570312 20.550781 C 12.753906 19.859375 12.9375 19.230469 13.125 18.660156 C 13.3125 18.089844 13.496094 17.546875 13.671875 17.039062 L 14.507812 17.039062 C 14.691406 17.550781 14.871094 18.097656 15.050781 18.679688 C 15.234375 19.253906 15.414062 19.878906 15.582031 20.550781 L 14.757812 20.550781 M 14.070312 17.71875 C 14.027344 17.851562 13.988281 17.976562 13.953125 18.097656 C 13.917969 18.214844 13.882812 18.332031 13.851562 18.449219 C 13.820312 18.566406 13.792969 18.679688 13.765625 18.796875 C 13.738281 18.914062 13.714844 19.035156 13.6875 19.160156 L 14.445312 19.160156 C 14.421875 19.035156 14.394531 18.914062 14.371094 18.796875 C 14.34375 18.679688 14.316406 18.566406 14.28125 18.449219 C 14.253906 18.332031 14.21875 18.214844 14.183594 18.097656 C 14.148438 17.976562 14.113281 17.851562 14.070312 17.71875 "/>
</g>
</svg>
