<svg width="32.5" xmlns="http://www.w3.org/2000/svg" height="32.5" viewBox="0 0 26 26" xmlns:xlink="http://www.w3.org/1999/xlink">
<g style="stroke-opacity:.298;stroke:#000;stroke-width:.5">
<path style="fill:#b28d6c" d="M 5.783654 37.990385 C 5.076923 37.911058 4.485577 37.21875 4.485577 36.46875 L 4.485577 7.795673 C 4.485577 7.002404 5.170673 6.28125 5.920673 6.274038 L 41.257212 6.274038 C 42.007212 6.28125 42.692308 7.002404 42.692308 7.795673 L 42.692308 33.807692 C 42.692308 34.600962 42.007212 35.322115 41.257212 35.322115 L 27.461538 35.322115 L 27.461538 36.46875 C 27.461538 37.262019 26.776442 37.990385 26.026442 37.990385 L 5.920673 37.990385 C 5.877404 37.990385 5.826923 37.990385 5.783654 37.990385 Z " transform="scale(.54167)"/>
<path style="fill:#dfb188" d="M 3.021635 10.016827 C 2.192308 10.088942 1.492788 10.788462 1.492788 11.53125 L 1.492788 40.204327 C 1.492788 40.990385 2.300481 41.71875 3.180288 41.71875 L 44.819712 41.71875 C 45.699519 41.71875 46.507212 40.990385 46.507212 40.204327 L 46.507212 14.192308 C 46.507212 13.399038 45.699519 12.677885 44.819712 12.677885 L 28.557692 12.677885 L 28.557692 11.53125 C 28.557692 10.737981 27.757212 10.016827 26.870192 10.016827 L 3.180288 10.016827 C 3.129808 10.016827 3.072115 10.016827 3.021635 10.016827 Z " transform="scale(.54167)"/>
</g>
<g style="fill:#b28d6c">
<path d="M 16.960938 9.175781 C 16.566406 9.179688 16.175781 9.441406 16.113281 9.925781 C 16.011719 10.699219 16.761719 10.410156 17.363281 10.410156 C 17.960938 10.410156 18.160156 11.667969 18.011719 12.347656 C 17.863281 13.023438 16.269531 14.625 12.664062 13.023438 C 9.699219 11.707031 8.21875 13.460938 8.140625 13.496094 C 8.421875 16.117188 10.710938 18.957031 13.488281 18.957031 C 16.457031 18.957031 18.859375 15.828125 18.859375 12.953125 C 18.859375 12.621094 18.820312 12.296875 18.761719 11.984375 C 18.707031 11.824219 18.652344 11.667969 18.609375 11.523438 C 18.539062 11.265625 18.457031 11.046875 18.386719 10.84375 C 18.382812 10.839844 18.390625 10.828125 18.386719 10.820312 C 18.101562 10.210938 17.703125 9.65625 17.210938 9.199219 C 17.210938 9.195312 17.203125 9.203125 17.199219 9.199219 C 17.121094 9.179688 17.042969 9.171875 16.960938 9.175781 Z "/>
<path d="M 16.136719 11.015625 C 16.136719 11.175781 16.003906 11.304688 15.839844 11.304688 C 15.671875 11.304688 15.539062 11.175781 15.539062 11.015625 C 15.539062 10.855469 15.671875 10.722656 15.839844 10.722656 C 16.003906 10.722656 16.136719 10.855469 16.136719 11.015625 Z "/>
<path d="M 15.539062 9.960938 C 15.539062 10.074219 15.441406 10.167969 15.324219 10.167969 C 15.207031 10.167969 15.113281 10.074219 15.113281 9.960938 C 15.113281 9.847656 15.207031 9.757812 15.324219 9.757812 C 15.441406 9.757812 15.539062 9.847656 15.539062 9.960938 Z "/>
</g>
</svg>
