<svg width="32.5" xmlns="http://www.w3.org/2000/svg" height="32.5" viewBox="0 0 26 26" xmlns:xlink="http://www.w3.org/1999/xlink">
<g style="stroke-opacity:.298;stroke:#000;stroke-width:.5">
<path style="fill:#b28d6c" d="M 5.783654 37.990385 C 5.076923 37.911058 4.485577 37.21875 4.485577 36.46875 L 4.485577 7.795673 C 4.485577 7.002404 5.170673 6.28125 5.920673 6.274038 L 41.257212 6.274038 C 42.007212 6.28125 42.692308 7.002404 42.692308 7.795673 L 42.692308 33.807692 C 42.692308 34.600962 42.007212 35.322115 41.257212 35.322115 L 27.461538 35.322115 L 27.461538 36.46875 C 27.461538 37.262019 26.776442 37.990385 26.026442 37.990385 L 5.920673 37.990385 C 5.877404 37.990385 5.826923 37.990385 5.783654 37.990385 Z " transform="scale(.54167)"/>
<path style="fill:#dfb188" d="M 3.021635 10.016827 C 2.192308 10.088942 1.492788 10.788462 1.492788 11.53125 L 1.492788 40.204327 C 1.492788 40.990385 2.300481 41.71875 3.180288 41.71875 L 44.819712 41.71875 C 45.699519 41.71875 46.507212 40.990385 46.507212 40.204327 L 46.507212 14.192308 C 46.507212 13.399038 45.699519 12.677885 44.819712 12.677885 L 28.557692 12.677885 L 28.557692 11.53125 C 28.557692 10.737981 27.757212 10.016827 26.870192 10.016827 L 3.180288 10.016827 C 3.129808 10.016827 3.072115 10.016827 3.021635 10.016827 Z " transform="scale(.54167)"/>
</g>
<g style="fill:#b28d6c">
<path style="fill-rule:evenodd" d="M 8.667969 11.917969 L 8.667969 13 L 9.207031 13 L 9.207031 12.1875 C 9.207031 11.914062 9.480469 11.914062 9.480469 11.914062 L 10.292969 11.917969 L 10.292969 11.375 L 9.207031 11.375 C 9.207031 11.375 8.667969 11.375 8.667969 11.917969 Z M 15.707031 11.375 L 15.707031 11.917969 L 16.519531 11.917969 C 16.519531 11.917969 16.792969 11.914062 16.792969 12.1875 L 16.792969 13 L 17.332031 13 L 17.332031 11.917969 C 17.332031 11.375 16.792969 11.375 16.792969 11.375 Z M 8.667969 17.332031 L 8.667969 18.417969 C 8.667969 18.957031 9.207031 18.957031 9.207031 18.957031 L 10.292969 18.957031 L 10.292969 18.417969 L 9.480469 18.421875 C 9.207031 18.417969 9.207031 18.148438 9.207031 18.148438 L 9.207031 17.332031 Z M 16.792969 17.332031 L 16.792969 18.144531 C 16.792969 18.414062 16.519531 18.417969 16.519531 18.417969 L 15.707031 18.417969 L 15.707031 18.957031 L 16.792969 18.957031 C 16.792969 18.957031 17.332031 18.957031 17.332031 18.417969 L 17.332031 17.332031 Z "/>
<path d="M 10.292969 13.539062 L 10.292969 15.703125 C 10.292969 16.246094 10.832031 16.246094 10.832031 16.246094 L 12.457031 16.246094 C 13 16.246094 13 15.703125 13 15.703125 L 13 14.078125 L 11.917969 12.996094 L 10.832031 12.996094 C 10.832031 12.996094 10.292969 12.996094 10.292969 13.539062 Z M 10.832031 13.539062 L 11.917969 13.539062 L 11.917969 14.078125 L 12.457031 14.078125 L 12.457031 15.703125 L 10.832031 15.703125 Z "/>
</g>
</svg>
