<svg width="22" xmlns="http://www.w3.org/2000/svg" height="22" viewBox="0 0 22 22" xmlns:xlink="http://www.w3.org/1999/xlink">
<defs>
<linearGradient gradientTransform="matrix(.53081 0 0 .75859 -34.068 12.746)" id="linear7" y1="20.166" x1="16.965" y2="31.347" gradientUnits="userSpaceOnUse" x2="18.968">
<stop offset="0" style="stop-color:#fff;stop-opacity:.169"/>
<stop offset="1" style="stop-color:#fff;stop-opacity:0"/>
</linearGradient>
<linearGradient gradientTransform="matrix(.15278 0 0 .45833 10.69429 4.125)" id="linear8" x1="8" gradientUnits="userSpaceOnUse" x2="4.328">
<stop offset="0" style="stop-color:#867c31"/>
<stop offset="1" style="stop-color:#ffd616"/>
</linearGradient>
<linearGradient gradientTransform="matrix(.53081 0 0 .75859 -34.068 1.7462)" id="linear5" y1="20.166" x1="16.965" y2="31.347" gradientUnits="userSpaceOnUse" x2="18.968">
<stop offset="0" style="stop-color:#fff;stop-opacity:.169"/>
<stop offset="1" style="stop-color:#fff;stop-opacity:0"/>
</linearGradient>
<linearGradient gradientTransform="matrix(.53081 0 0 .75859 -34.068 23.746)" id="linear9" y1="20.166" x1="16.965" y2="31.347" gradientUnits="userSpaceOnUse" x2="18.968">
<stop offset="0" style="stop-color:#fff;stop-opacity:.169"/>
<stop offset="1" style="stop-color:#fff;stop-opacity:0"/>
</linearGradient>
<linearGradient gradientTransform="matrix(.15278 0 0 .45833 15.73596 4.125)" id="linear10" x1="8" gradientUnits="userSpaceOnUse" x2="4.328">
<stop offset="0" style="stop-color:#867c31"/>
<stop offset="1" style="stop-color:#ffd616"/>
</linearGradient>
<linearGradient gradientTransform="matrix(-.15278 0 0 .45833 16.34737 4.125)" id="linear13" x1="8" gradientUnits="userSpaceOnUse" x2="4.328">
<stop offset="0" style="stop-color:#867c31"/>
<stop offset="1" style="stop-color:#ffd616"/>
</linearGradient>
<linearGradient gradientTransform="matrix(-.15278 0 0 .45833 6.26404 4.125)" id="linear11" x1="8" gradientUnits="userSpaceOnUse" x2="4.328">
<stop offset="0" style="stop-color:#867c31"/>
<stop offset="1" style="stop-color:#ffd616"/>
</linearGradient>
<linearGradient gradientTransform="matrix(-.15278 0 0 .45833 11.30571 4.125)" id="linear12" x1="8" gradientUnits="userSpaceOnUse" x2="4.328">
<stop offset="0" style="stop-color:#867c31"/>
<stop offset="1" style="stop-color:#ffd616"/>
</linearGradient>
<linearGradient gradientTransform="matrix(.15278 0 0 .45833 5.65262 4.125)" id="linear6" x1="8" gradientUnits="userSpaceOnUse" x2="4.328">
<stop offset="0" style="stop-color:#867c31"/>
<stop offset="1" style="stop-color:#ffd616"/>
</linearGradient>
<linearGradient gradientTransform="matrix(-.15278 0 0 .45833 21.38904 4.125)" id="linear14" x1="8" gradientUnits="userSpaceOnUse" x2="4.328">
<stop offset="0" style="stop-color:#867c31"/>
<stop offset="1" style="stop-color:#ffd616"/>
</linearGradient>
<linearGradient gradientTransform="matrix(-.90952 0 0 .28921 16.45875 4.39808)" id="linear0" y1="42.891" x1="6.221" y2="39.267" gradientUnits="userSpaceOnUse" x2="6.238">
<stop offset="0" style="stop-color:#d2b900"/>
<stop offset="1" style="stop-color:#d2b900;stop-opacity:0"/>
</linearGradient>
<linearGradient gradientTransform="matrix(.53081 0 0 .75859 -34.068 -9.2538)" id="linear1" y1="20.166" x1="16.965" y2="31.347" gradientUnits="userSpaceOnUse" x2="18.968">
<stop offset="0" style="stop-color:#fff;stop-opacity:.169"/>
<stop offset="1" style="stop-color:#fff;stop-opacity:0"/>
</linearGradient>
<linearGradient gradientTransform="matrix(0 -.15278 .45833 0 -5.95833 12.83333)" id="linear3" x1="24" gradientUnits="userSpaceOnUse" x2="27">
<stop offset="0" style="stop-color:#867c31"/>
<stop offset="1" style="stop-color:#ffd616"/>
</linearGradient>
<linearGradient gradientTransform="matrix(.15278 0 0 .45833 .6111 4.125)" id="linear4" x1="8" gradientUnits="userSpaceOnUse" x2="4.328">
<stop offset="0" style="stop-color:#867c31"/>
<stop offset="1" style="stop-color:#ffd616"/>
</linearGradient>
<linearGradient gradientTransform="matrix(0 -.15278 .45833 0 -5.95833 15.43071)" id="linear2" x1="8" gradientUnits="userSpaceOnUse" x2="4.328">
<stop offset="0" style="stop-color:#867c31"/>
<stop offset="1" style="stop-color:#ffd616"/>
</linearGradient>
<radialGradient cx="6.509" cy="12.336" gradientTransform="matrix(2.0637 -.00488 .00195 .82308 -6.9477 9.5473)" id="radial2" r="21.999" gradientUnits="userSpaceOnUse">
<stop offset="0" style="stop-color:#fff;stop-opacity:.4"/>
<stop offset="1" style="stop-color:#fff;stop-opacity:0"/>
</radialGradient>
<radialGradient cx="21.5" cy="44.75" gradientTransform="matrix(.47199 0 0 .05392 -1.67182 15.46187)" id="radial0" r="17" gradientUnits="userSpaceOnUse">
<stop offset="0" style="stop-color:#000;stop-opacity:.302"/>
<stop offset="1" style="stop-color:#000;stop-opacity:0"/>
</radialGradient>
<radialGradient cx="10.78" cy="14.525" gradientTransform="matrix(2.7925 .12351 -.03207 .72512 -18.856 8.6275)" id="radial1" r="23" gradientUnits="userSpaceOnUse">
<stop offset="0" style="stop-color:#62842f"/>
<stop offset="1" style="stop-color:#364c17"/>
</radialGradient>
</defs>
<path style="fill:url(#radial0)" d="M 16.5 17.875 C 16.464844 18.378906 12.882812 18.785156 8.476562 18.785156 C 4.066406 18.785156 0.484375 18.378906 0.453125 17.875 C 0.429688 17.546875 1.957031 17.242188 4.445312 17.074219 C 6.9375 16.910156 10.015625 16.910156 12.503906 17.074219 C 14.996094 17.242188 16.523438 17.546875 16.5 17.875 Z "/>
<path style="fill:url(#radial1);stroke:#28380c;stroke-linejoin:round" d="M 46.5 35.497159 L 31.5 35.514205 L 31.5 38.497159 L 5.497159 38.497159 L 5.497159 35.488636 L 1.5 35.497159 L 1.5 15.502841 L 46.5 15.502841 Z " transform="scale(.45833)"/>
<path style="fill:url(#linear0)" d="M 5.042969 15.855469 C 4.675781 15.855469 4.582031 16.035156 4.582031 16.113281 L 4.582031 17.386719 L 5.5 17.386719 L 5.5 16.113281 C 5.5 16.035156 5.402344 15.855469 5.042969 15.855469 Z M 6.417969 15.855469 C 6.050781 15.855469 5.957031 16.035156 5.957031 16.113281 L 5.957031 17.386719 L 6.875 17.386719 L 6.875 16.113281 C 6.875 16.035156 6.777344 15.855469 6.417969 15.855469 Z M 7.792969 15.855469 C 7.425781 15.855469 7.332031 16.035156 7.332031 16.113281 L 7.332031 17.386719 L 8.25 17.386719 L 8.25 16.113281 C 8.25 16.035156 8.152344 15.855469 7.792969 15.855469 Z M 9.167969 15.855469 C 8.800781 15.855469 8.722656 16.035156 8.722656 16.113281 L 8.722656 17.386719 L 9.625 17.386719 L 9.625 16.113281 C 9.625 16.035156 9.527344 15.855469 9.167969 15.855469 Z M 10.542969 15.855469 C 10.175781 15.855469 10.097656 16.035156 10.097656 16.113281 L 10.097656 17.386719 L 11 17.386719 L 11 16.113281 C 11 16.035156 10.902344 15.855469 10.542969 15.855469 Z M 3.667969 15.871094 C 3.300781 15.871094 3.222656 16.0625 3.222656 16.140625 L 3.222656 17.417969 L 4.125 17.417969 L 4.125 16.140625 C 4.125 16.0625 4.027344 15.871094 3.667969 15.871094 Z M 11.917969 15.871094 C 11.550781 15.871094 11.457031 16.0625 11.457031 16.140625 L 11.457031 17.417969 L 12.375 17.417969 L 12.375 16.140625 C 12.375 16.0625 12.277344 15.871094 11.917969 15.871094 Z M 13.292969 15.871094 C 12.925781 15.871094 12.832031 16.0625 12.832031 16.140625 L 12.832031 17.417969 L 13.75 17.417969 L 13.75 16.140625 C 13.75 16.0625 13.652344 15.871094 13.292969 15.871094 Z "/>
<path style="fill:none;stroke:url(#radial2)" d="M 45.502841 34.5 L 30.502841 34.5 L 30.502841 37.482955 L 6.502841 37.482955 L 6.502841 34.491477 L 2.505682 34.5 C 2.497159 34.5 2.497159 16.5 2.497159 16.5 L 45.502841 16.5 C 45.494318 24.835227 45.502841 34.5 45.502841 34.5 Z " transform="scale(.45833)"/>
<path style="fill:#545653;stroke:#2e3436" d="M -29.582386 4.5 L -21.417614 4.5 C -20.897727 4.5 -20.471591 4.926136 -20.471591 5.446023 L -20.471591 9.494318 C -20.471591 10.014205 -20.897727 10.431818 -21.417614 10.431818 L -29.582386 10.431818 C -30.102273 10.431818 -30.528409 10.014205 -30.528409 9.494318 L -30.528409 5.446023 C -30.528409 4.926136 -30.102273 4.5 -29.582386 4.5 Z " transform="matrix(0 -.45833 .45833 0 0 0)"/>
<path style="fill:none;stroke:url(#linear1)" d="M -29.582386 5.514205 L -21.571023 5.514205 L -21.571023 9.392045 L -29.582386 9.392045 Z " transform="matrix(0 -.45833 .45833 0 0 0)"/>
<path style="fill:url(#linear2)" d="M 2.75 14.207031 L 2.75 14.667969 L 3.207031 14.667969 L 3.207031 14.207031 Z M 3.667969 14.207031 L 3.667969 14.667969 L 4.125 14.667969 L 4.125 14.207031 Z M 7.792969 14.207031 L 7.792969 14.667969 L 8.25 14.667969 L 8.25 14.207031 Z M 8.707031 14.207031 L 8.707031 14.667969 L 9.167969 14.667969 L 9.167969 14.207031 Z M 12.832031 14.207031 L 12.832031 14.667969 L 13.292969 14.667969 L 13.292969 14.207031 Z M 13.75 14.207031 L 13.75 14.667969 L 14.207031 14.667969 L 14.207031 14.207031 Z M 17.875 14.207031 L 17.875 14.667969 L 18.332031 14.667969 L 18.332031 14.207031 Z M 18.792969 14.207031 L 18.792969 14.667969 L 19.25 14.667969 L 19.25 14.207031 Z "/>
<path style="fill:url(#linear3)" d="M 2.75 8.707031 L 2.75 9.167969 L 3.207031 9.167969 L 3.207031 8.707031 Z M 3.667969 8.707031 L 3.667969 9.167969 L 4.125 9.167969 L 4.125 8.707031 Z M 7.792969 8.707031 L 7.792969 9.167969 L 8.25 9.167969 L 8.25 8.707031 Z M 8.707031 8.707031 L 8.707031 9.167969 L 9.167969 9.167969 L 9.167969 8.707031 Z M 12.832031 8.707031 L 12.832031 9.167969 L 13.292969 9.167969 L 13.292969 8.707031 Z M 13.75 8.707031 L 13.75 9.167969 L 14.207031 9.167969 L 14.207031 8.707031 Z M 17.875 8.707031 L 17.875 9.167969 L 18.332031 9.167969 L 18.332031 8.707031 Z M 18.792969 8.707031 L 18.792969 9.167969 L 19.25 9.167969 L 19.25 8.707031 Z "/>
<path style="fill:url(#linear4)" d="M 1.375 10.082031 L 1.375 10.542969 L 1.832031 10.542969 L 1.832031 10.082031 Z M 1.375 11 L 1.375 11.457031 L 1.832031 11.457031 L 1.832031 11 Z M 1.375 11.917969 L 1.375 12.375 L 1.832031 12.375 L 1.832031 11.917969 Z M 1.375 12.832031 L 1.375 13.292969 L 1.832031 13.292969 L 1.832031 12.832031 Z "/>
<path style="fill:#545653;stroke:#2e3436" d="M -29.582386 15.502841 L -21.417614 15.502841 C -20.897727 15.502841 -20.471591 15.928977 -20.471591 16.448864 L -20.471591 20.488636 C -20.471591 21.008523 -20.897727 21.434659 -21.417614 21.434659 L -29.582386 21.434659 C -30.102273 21.434659 -30.528409 21.008523 -30.528409 20.488636 L -30.528409 16.448864 C -30.528409 15.928977 -30.102273 15.502841 -29.582386 15.502841 Z " transform="matrix(0 -.45833 .45833 0 0 0)"/>
<path style="fill:none;stroke:url(#linear5)" d="M -29.582386 16.508523 L -21.571023 16.508523 L -21.571023 20.394886 L -29.582386 20.394886 Z " transform="matrix(0 -.45833 .45833 0 0 0)"/>
<path style="fill:url(#linear6)" d="M 6.417969 10.082031 L 6.417969 10.542969 L 6.875 10.542969 L 6.875 10.082031 Z M 6.417969 11 L 6.417969 11.457031 L 6.875 11.457031 L 6.875 11 Z M 6.417969 11.917969 L 6.417969 12.375 L 6.875 12.375 L 6.875 11.917969 Z M 6.417969 12.832031 L 6.417969 13.292969 L 6.875 13.292969 L 6.875 12.832031 Z "/>
<path style="fill:#545653;stroke:#2e3436" d="M -29.582386 26.505682 L -21.417614 26.505682 C -20.897727 26.505682 -20.471591 26.923295 -20.471591 27.443182 L -20.471591 31.491477 C -20.471591 32.011364 -20.897727 32.4375 -21.417614 32.4375 L -29.582386 32.4375 C -30.102273 32.4375 -30.528409 32.011364 -30.528409 31.491477 L -30.528409 27.443182 C -30.528409 26.923295 -30.102273 26.505682 -29.582386 26.505682 Z " transform="matrix(0 -.45833 .45833 0 0 0)"/>
<path style="fill:none;stroke:url(#linear7)" d="M -29.582386 27.511364 L -21.571023 27.511364 L -21.571023 31.389205 L -29.582386 31.389205 Z " transform="matrix(0 -.45833 .45833 0 0 0)"/>
<path style="fill:url(#linear8)" d="M 11.457031 10.082031 L 11.457031 10.542969 L 11.917969 10.542969 L 11.917969 10.082031 Z M 11.457031 11 L 11.457031 11.457031 L 11.917969 11.457031 L 11.917969 11 Z M 11.457031 11.917969 L 11.457031 12.375 L 11.917969 12.375 L 11.917969 11.917969 Z M 11.457031 12.832031 L 11.457031 13.292969 L 11.917969 13.292969 L 11.917969 12.832031 Z "/>
<path style="fill:#545653;stroke:#2e3436" d="M -29.582386 37.5 L -21.417614 37.5 C -20.897727 37.5 -20.471591 37.926136 -20.471591 38.446023 L -20.471591 42.494318 C -20.471591 43.014205 -20.897727 43.431818 -21.417614 43.431818 L -29.582386 43.431818 C -30.102273 43.431818 -30.528409 43.014205 -30.528409 42.494318 L -30.528409 38.446023 C -30.528409 37.926136 -30.102273 37.5 -29.582386 37.5 Z " transform="matrix(0 -.45833 .45833 0 0 0)"/>
<path style="fill:none;stroke:url(#linear9)" d="M -29.582386 38.514205 L -21.571023 38.514205 L -21.571023 42.392045 L -29.582386 42.392045 Z " transform="matrix(0 -.45833 .45833 0 0 0)"/>
<path style="fill:url(#linear10)" d="M 16.5 10.082031 L 16.5 10.542969 L 16.957031 10.542969 L 16.957031 10.082031 Z M 16.5 11 L 16.5 11.457031 L 16.957031 11.457031 L 16.957031 11 Z M 16.5 11.917969 L 16.5 12.375 L 16.957031 12.375 L 16.957031 11.917969 Z M 16.5 12.832031 L 16.5 13.292969 L 16.957031 13.292969 L 16.957031 12.832031 Z "/>
<path style="fill:url(#linear11)" d="M 5.042969 10.082031 L 5.042969 10.542969 L 5.5 10.542969 L 5.5 10.082031 Z M 5.042969 11 L 5.042969 11.457031 L 5.5 11.457031 L 5.5 11 Z M 5.042969 11.917969 L 5.042969 12.375 L 5.5 12.375 L 5.5 11.917969 Z M 5.042969 12.832031 L 5.042969 13.292969 L 5.5 13.292969 L 5.5 12.832031 Z "/>
<path style="fill:url(#linear12)" d="M 10.082031 10.082031 L 10.082031 10.542969 L 10.542969 10.542969 L 10.542969 10.082031 Z M 10.082031 11 L 10.082031 11.457031 L 10.542969 11.457031 L 10.542969 11 Z M 10.082031 11.917969 L 10.082031 12.375 L 10.542969 12.375 L 10.542969 11.917969 Z M 10.082031 12.832031 L 10.082031 13.292969 L 10.542969 13.292969 L 10.542969 12.832031 Z "/>
<path style="fill:url(#linear13)" d="M 15.125 10.082031 L 15.125 10.542969 L 15.582031 10.542969 L 15.582031 10.082031 Z M 15.125 11 L 15.125 11.457031 L 15.582031 11.457031 L 15.582031 11 Z M 15.125 11.917969 L 15.125 12.375 L 15.582031 12.375 L 15.582031 11.917969 Z M 15.125 12.832031 L 15.125 13.292969 L 15.582031 13.292969 L 15.582031 12.832031 Z "/>
<path style="fill:url(#linear14)" d="M 20.167969 10.082031 L 20.167969 10.542969 L 20.625 10.542969 L 20.625 10.082031 Z M 20.167969 11 L 20.167969 11.457031 L 20.625 11.457031 L 20.625 11 Z M 20.167969 11.917969 L 20.167969 12.375 L 20.625 12.375 L 20.625 11.917969 Z M 20.167969 12.832031 L 20.167969 13.292969 L 20.625 13.292969 L 20.625 12.832031 Z "/>
</svg>
