<svg width="22" xmlns="http://www.w3.org/2000/svg" height="22" viewBox="0 0 22 22" xmlns:xlink="http://www.w3.org/1999/xlink">
<g style="fill:#909ea9">
<path d="M 8.550781 3.667969 C 7.882812 3.667969 7.332031 4.214844 7.332031 4.882812 L 7.332031 17.101562 C 7.332031 17.769531 7.882812 18.332031 8.550781 18.332031 L 13.433594 18.332031 C 14.105469 18.332031 14.667969 17.769531 14.667969 17.101562 L 14.667969 4.882812 C 14.667969 4.214844 14.105469 3.667969 13.433594 3.667969 Z M 9.007812 4.582031 L 12.992188 4.582031 C 13.414062 4.582031 13.75 4.917969 13.75 5.34375 L 13.75 11.199219 C 13.75 11.625 13.414062 11.960938 12.992188 11.960938 L 9.007812 11.960938 C 8.585938 11.960938 8.25 11.625 8.25 11.199219 L 8.25 5.34375 C 8.25 4.917969 8.585938 4.582031 9.007812 4.582031 Z M 11 12.832031 C 12.265625 12.832031 13.292969 13.859375 13.292969 15.125 C 13.292969 16.390625 12.265625 17.417969 11 17.417969 C 9.734375 17.417969 8.707031 16.390625 8.707031 15.125 C 8.707031 13.859375 9.734375 12.832031 11 12.832031 Z "/>
<path d="M 10.082031 16.5 L 10.082031 13.75 L 12.375 15.125 Z "/>
</g>
</svg>
