<?xml version="1.0" encoding="UTF-8" standalone="no"?>
<svg
   xmlns:dc="http://purl.org/dc/elements/1.1/"
   xmlns:cc="http://creativecommons.org/ns#"
   xmlns:rdf="http://www.w3.org/1999/02/22-rdf-syntax-ns#"
   xmlns:svg="http://www.w3.org/2000/svg"
   xmlns="http://www.w3.org/2000/svg"
   xmlns:sodipodi="http://sodipodi.sourceforge.net/DTD/sodipodi-0.dtd"
   xmlns:inkscape="http://www.inkscape.org/namespaces/inkscape"
   width="24"
   height="24"
   viewBox="0 0 24 24"
   id="svg2"
   version="1.1"
   inkscape:version="0.91 r"
   sodipodi:docname="emblem-dropbox-app.svg">
  <metadata
     id="metadata16">
    <rdf:RDF>
      <cc:Work
         rdf:about="">
        <dc:format>image/svg+xml</dc:format>
        <dc:type
           rdf:resource="http://purl.org/dc/dcmitype/StillImage" />
        <dc:title />
      </cc:Work>
    </rdf:RDF>
  </metadata>
  <defs
     id="defs14" />
  <sodipodi:namedview
     pagecolor="#ffffff"
     bordercolor="#666666"
     borderopacity="1"
     objecttolerance="10"
     gridtolerance="10"
     guidetolerance="10"
     inkscape:pageopacity="0"
     inkscape:pageshadow="2"
     inkscape:window-width="1920"
     inkscape:window-height="1056"
     id="namedview12"
     showgrid="true"
     inkscape:zoom="39.333333"
     inkscape:cx="9.2867798"
     inkscape:cy="9.8206802"
     inkscape:window-x="0"
     inkscape:window-y="24"
     inkscape:window-maximized="1"
     inkscape:current-layer="svg2">
    <inkscape:grid
       type="xygrid"
       id="grid4150" />
  </sodipodi:namedview>
  <path
     style="fill:#fff;stroke:#777;stroke-width:.5"
     d="M 25.930511 35.186401 C 25.930511 42.095309 20.446393 47.69322 13.677926 47.69322 C 6.90946 47.69322 1.425342 42.095309 1.425342 35.186401 C 1.425342 28.277492 6.90946 22.679581 13.677926 22.679581 C 20.446393 22.679581 25.930511 28.277492 25.930511 35.186401 Z "
     transform="matrix(.7999 0 0 .78363 1.05909 -15.57329)"
     id="path4" />
  <path
     sodipodi:nodetypes="cccssscsscccccscsscccccccccsssccscccccsscssccccccccscssscccccsccsssccccccccccssscssccccscsssccccccc"
     inkscape:connector-curvature="0"
     id="path4-2"
     d="m 11.339236,5.8286654 c -0.503252,0.01905 -1.072462,0.1741525 -1.4085059,0.5773543 -0.010541,0.012465 -0.01946,0.02621 -0.026525,0.04092 -0.1121269,0.2379863 -0.151395,0.430709 -0.084102,0.6000838 0.067294,0.169376 0.2197049,0.245144 0.3394359,0.292466 0.119731,0.04732 0.230994,0.07963 0.303067,0.121986 0.07207,0.04236 0.104918,0.0725 0.123501,0.168206 0.02213,0.113996 0.0054,0.17435 -0.02045,0.220486 -0.0259,0.04615 -0.06675,0.09051 -0.12653,0.113652 -0.09309,0.03603 -0.254578,0.03615 -0.254578,0.03615 l -2.9927917,0 c -0.1058305,9e-5 -0.1916004,0.08586 -0.191692,0.191694 l 0,3.0074175 c 8.6e-6,0.214588 0.0436,0.338332 0.103344,0.430518 0.068159,0.09442 0.1500561,0.203564 0.2785209,0.275645 0.128463,0.07208 0.2967435,0.09806 0.4818776,0.06214 0.1651046,-0.03214 0.2957981,-0.125161 0.3765613,-0.231094 0.080954,-0.106178 0.1215339,-0.219163 0.1553225,-0.31368 0.03379,-0.09451 0.063224,-0.172092 0.087132,-0.208362 0.02354,-0.03572 0.01843,-0.03356 0.05531,-0.03637 0.034836,-0.0021 0.1254034,0.01931 0.2432114,0.06971 0.2584012,0.227438 0.4129022,0.689756 0.4288413,1.110762 0.0053,0.156649 -0.00873,0.303715 -0.03486,0.430364 l 0.0023,-0.0076 c -0.00882,0.03517 -0.00771,0.04003 -0.00531,0.02804 -8.501e-4,0.0042 -0.0017,0.0085 -0.00229,0.01288 -0.046406,0.361827 -0.1956437,0.713281 -0.4144469,0.903913 -0.15168,0.06239 -0.2469347,0.07224 -0.2629104,0.06592 C 8.474714,13.784767 8.451168,13.759627 8.415385,13.669122 8.379579,13.578622 8.345793,13.446651 8.2676352,13.313768 8.1894772,13.180886 8.045113,13.047119 7.8418228,13.007665 l 0,8e-4 C 7.5720343,12.955765 7.3417277,13.047175 7.2099277,13.188016 7.0781283,13.32886 7.0292352,13.494673 7.0046,13.610802 7.00175,13.623742 7.0002,13.636942 7,13.650212 l 0,3.158021 c 8.96e-5,0.106425 0.086785,0.192443 0.1932056,0.191693 l 3.0124924,6e-6 c 0.208116,-3.72e-4 0.339599,-0.04546 0.434309,-0.107562 0.06935,-0.04548 0.198224,-0.167745 0.270324,-0.296312 0.0721,-0.128568 0.09879,-0.296489 0.06288,-0.481886 -0.03948,-0.20336 -0.173066,-0.347698 -0.306098,-0.425818 -0.133031,-0.07812 -0.26538,-0.111938 -0.356104,-0.14775 -0.09073,-0.03582 -0.11637,-0.05936 -0.1235,-0.07728 -0.0064,-0.01613 0.0019,-0.110634 0.06667,-0.265948 0.227921,-0.25667 0.689612,-0.411251 1.110743,-0.425816 l 0.0015,0 c 0.15488,-0.0067 0.301085,0.0077 0.427324,0.0341 0.0077,0.0014 0.01561,0.0024 0.02349,0.0031 0.0036,8.51e-4 0.0071,0.0017 0.01058,0.0023 0.363454,0.04643 0.716521,0.196365 0.906929,0.413695 0.06248,0.151103 0.07294,0.24565 0.06668,0.261399 -0.0069,0.01772 -0.0334,0.04138 -0.124259,0.07728 -0.09086,0.03591 -0.223011,0.07029 -0.356104,0.148506 -0.133094,0.07822 -0.26661,0.222399 -0.3061,0.425816 -0.03596,0.185125 -0.0092,0.35343 0.06288,0.481887 0.07209,0.128457 0.170244,0.233876 0.273082,0.287477 0.129765,0.07926 0.235273,0.0929 0.433068,0.09138 L 15.808485,17 c 0.105829,-9.1e-5 0.191598,-0.08737 0.191691,-0.193203 l 0,-3.100436 c -8.7e-5,-0.120169 0.01575,-0.174473 0.0684,-0.230336 0.0549,-0.05825 0.11016,-0.09621 0.275791,-0.06364 l 7.51e-4,7.99e-4 c 0.09627,0.01841 0.126667,0.05113 0.168961,0.122745 0.0423,0.07161 0.07465,0.182031 0.121983,0.301559 0.04734,0.119525 0.123184,0.272187 0.292462,0.339442 0.169277,0.06725 0.361704,0.02835 0.600074,-0.08334 0.01498,-0.0069 0.02899,-0.01592 0.04168,-0.02651 0.339534,-0.282909 0.501326,-0.734749 0.558402,-1.169105 0.0011,-0.0083 0.0016,-0.01665 0.0016,-0.02501 0,0.02619 0.0015,0.01404 0.0015,-0.01895 l -0.0046,0.04091 c 0.0347,-0.158574 0.05033,-0.335047 0.04396,-0.522043 l 0,-7.99e-4 c -0.01907,-0.503606 -0.175948,-1.072606 -0.577344,-1.408535 -0.01269,-0.01057 -0.0267,-0.01952 -0.04168,-0.02652 -0.238373,-0.11169 -0.430778,-0.150648 -0.600075,-0.08334 -0.169294,0.0673 -0.245127,0.219818 -0.29246,0.339442 -0.04734,0.119624 -0.07962,0.230431 -0.121984,0.302315 -0.04236,0.07189 -0.07268,0.104862 -0.168961,0.123503 -0.114515,0.0219 -0.174928,0.0049 -0.221239,-0.02121 -0.04631,-0.026 -0.08135,-0.07139 -0.113652,-0.126532 -0.03365,-0.05743 -0.0337,-0.253066 -0.0337,-0.253066 l 1.53e-4,-3.0263605 c -9.8e-5,-0.105855 -0.08586,-0.191629 -0.191696,-0.191721 l -3.141855,0 c -0.08042,-1.41e-4 -0.170877,-0.02184 -0.224313,-0.07404 -0.05562,-0.05433 -0.09207,-0.110458 -0.06062,-0.272766 0.01863,-0.09625 0.05162,-0.126626 0.1235,-0.168962 0.07188,-0.04233 0.182721,-0.07479 0.30231,-0.121988 0.119588,-0.04721 0.272006,-0.122507 0.339435,-0.291709 0.06743,-0.1692002 0.02839,-0.3613374 -0.08334,-0.5993262 -0.0069,-0.014975 -0.01593,-0.02898 -0.02652,-0.041674 -0.281854,-0.3360792 -0.729186,-0.4970237 -1.16075,-0.5538653 -0.0073,-0.00194 -0.02043,-0.0032 -0.03335,-0.0046 -0.153759,-0.031901 -0.322123,-0.048566 -0.50309,-0.04243 l -8e-4,0 z"
     style="color:#000000;font-style:normal;font-variant:normal;font-weight:normal;font-stretch:normal;font-size:medium;line-height:normal;font-family:sans-serif;text-indent:0;text-align:start;text-decoration:none;text-decoration-line:none;text-decoration-style:solid;text-decoration-color:#000000;letter-spacing:normal;word-spacing:normal;text-transform:none;direction:ltr;block-progression:tb;writing-mode:lr-tb;baseline-shift:baseline;text-anchor:start;white-space:normal;clip-rule:nonzero;display:inline;overflow:visible;visibility:visible;opacity:1;isolation:auto;mix-blend-mode:normal;color-interpolation:sRGB;color-interpolation-filters:linearRGB;solid-color:#000000;solid-opacity:1;fill:#53a93f;fill-opacity:1;fill-rule:evenodd;stroke:none;stroke-width:0.98903728;stroke-linecap:butt;stroke-linejoin:round;stroke-miterlimit:4;stroke-dasharray:none;stroke-dashoffset:0;stroke-opacity:1;color-rendering:auto;image-rendering:auto;shape-rendering:auto;text-rendering:auto;enable-background:accumulate" />
</svg>
