<svg width="32" xmlns="http://www.w3.org/2000/svg" height="32" viewBox="0 0 32 32" xmlns:xlink="http://www.w3.org/1999/xlink">
<path style="fill:#eee" d="M 5.371094 4 C 4.6875 4 4 4.6875 4 5.371094 L 4 26.667969 C 4 27.3125 4.6875 28 5.332031 28 L 26.667969 28 C 27.3125 28 28 27.3125 28 26.667969 L 28 5.332031 C 28 4.6875 27.3125 4 26.667969 4 Z "/>
<path style="fill:#aaa" d="M 5.667969 4 C 5.222656 4 4.824219 4.21875 4.519531 4.519531 C 4.21875 4.824219 4 5.222656 4 5.667969 L 4 26.375 C 4 26.808594 4.203125 27.203125 4.5 27.5 C 4.796875 27.796875 5.191406 28 5.625 28 L 26.375 28 C 26.808594 28 27.203125 27.796875 27.5 27.5 C 27.796875 27.203125 28 26.808594 28 26.375 L 28 5.625 C 28 5.191406 27.796875 4.796875 27.5 4.5 C 27.203125 4.203125 26.808594 4 26.375 4 Z M 5.667969 4.667969 L 26.375 4.667969 C 26.570312 4.667969 26.824219 4.785156 27.019531 4.980469 C 27.214844 5.175781 27.332031 5.429688 27.332031 5.625 L 27.332031 26.375 C 27.332031 26.570312 27.214844 26.824219 27.019531 27.019531 C 26.824219 27.214844 26.570312 27.332031 26.375 27.332031 L 5.625 27.332031 C 5.429688 27.332031 5.175781 27.214844 4.980469 27.019531 C 4.785156 26.824219 4.667969 26.570312 4.667969 26.375 L 4.667969 5.667969 C 4.667969 5.445312 4.78125 5.175781 4.980469 4.980469 C 5.175781 4.78125 5.445312 4.667969 5.667969 4.667969 Z "/>
<g style="fill:#888">
<path d="M 8 16 L 11.554688 12.445312 L 15.109375 16 L 11.554688 19.554688 Z "/>
<path d="M 12.445312 11.554688 L 16 8 L 19.554688 11.554688 L 16 15.109375 Z "/>
<path d="M 16.890625 16 L 20.445312 12.445312 L 24 16 L 20.445312 19.554688 Z "/>
<path d="M 12.445312 20.445312 L 16 16.890625 L 19.554688 20.445312 L 16 24 Z "/>
</g>
</svg>
