<svg width="32" xmlns="http://www.w3.org/2000/svg" height="32" viewBox="0 0 32 32" xmlns:xlink="http://www.w3.org/1999/xlink">
<path style="fill:#b8c300" d="M 5.332031 0.667969 C 4.648438 0.667969 4 1.3125 4 2 L 4 30 C 4 30.648438 4.6875 31.332031 5.332031 31.332031 L 26.667969 31.332031 C 27.3125 31.332031 28 30.648438 28 30 L 28 2 C 28 1.3125 27.351562 0.667969 26.667969 0.667969 Z "/>
<path style="fill:#000;fill-opacity:.196" d="M 4 23.332031 L 4 30 C 4 30.648438 4.6875 31.332031 5.332031 31.332031 L 26.667969 31.332031 C 27.3125 31.332031 28 30.648438 28 30 L 28 23.332031 Z "/>
<g style="fill:#fff">
<path d="M 16.667969 21.332031 L 16.667969 13.332031 L 18.667969 13.332031 L 18.667969 21.332031 Z "/>
<path d="M 13.332031 21.332031 L 13.332031 10.667969 L 15.332031 10.667969 L 15.332031 21.332031 Z "/>
<path d="M 10 21.332031 L 10 15.332031 L 12 15.332031 L 12 21.332031 Z "/>
<path d="M 20 21.332031 L 20 18.667969 L 22 18.667969 L 22 21.332031 Z "/>
<path d="M 10.488281 27.332031 C 10.488281 27.582031 10.5 27.816406 10.515625 28.035156 C 10.542969 28.25 10.585938 28.4375 10.644531 28.597656 C 10.714844 28.757812 10.804688 28.882812 10.921875 28.976562 C 11.039062 29.070312 11.199219 29.117188 11.394531 29.117188 C 11.585938 29.117188 11.742188 29.070312 11.859375 28.976562 C 11.980469 28.882812 12.074219 28.757812 12.136719 28.597656 C 12.203125 28.429688 12.246094 28.242188 12.265625 28.027344 C 12.289062 27.8125 12.300781 27.582031 12.300781 27.332031 C 12.300781 27.085938 12.289062 26.855469 12.265625 26.640625 C 12.246094 26.417969 12.203125 26.230469 12.136719 26.070312 C 12.074219 25.910156 11.984375 25.785156 11.867188 25.691406 C 11.75 25.597656 11.59375 25.550781 11.394531 25.550781 C 11.199219 25.550781 11.039062 25.597656 10.921875 25.691406 C 10.804688 25.785156 10.714844 25.914062 10.644531 26.078125 C 10.585938 26.238281 10.542969 26.425781 10.515625 26.640625 C 10.5 26.855469 10.488281 27.085938 10.488281 27.332031 M 9.332031 27.332031 C 9.332031 26.453125 9.515625 25.789062 9.878906 25.34375 C 10.242188 24.890625 10.75 24.667969 11.394531 24.667969 C 12.066406 24.667969 12.578125 24.890625 12.929688 25.34375 C 13.28125 25.789062 13.457031 26.453125 13.457031 27.332031 C 13.457031 28.214844 13.277344 28.878906 12.921875 29.332031 C 12.5625 29.777344 12.058594 30 11.40625 30 C 10.734375 30 10.21875 29.777344 9.859375 29.332031 C 9.507812 28.878906 9.332031 28.214844 9.332031 27.332031 "/>
<path d="M 18.097656 24.78125 L 18.097656 25.625 L 16.59375 25.625 L 16.59375 29.894531 L 15.445312 29.894531 L 15.445312 25.625 L 13.9375 25.625 L 13.9375 24.78125 L 18.097656 24.78125 "/>
<path d="M 21.066406 30 C 20.257812 30 19.644531 29.769531 19.21875 29.304688 C 18.792969 28.84375 18.578125 28.1875 18.578125 27.332031 C 18.578125 26.910156 18.644531 26.53125 18.773438 26.203125 C 18.902344 25.871094 19.082031 25.59375 19.308594 25.367188 C 19.542969 25.136719 19.820312 24.964844 20.132812 24.847656 C 20.453125 24.726562 20.800781 24.667969 21.179688 24.667969 C 21.382812 24.667969 21.5625 24.683594 21.722656 24.714844 C 21.890625 24.742188 22.035156 24.777344 22.15625 24.816406 C 22.28125 24.855469 22.382812 24.894531 22.464844 24.9375 C 22.550781 24.984375 22.613281 25.015625 22.65625 25.039062 L 22.363281 25.847656 C 22.21875 25.765625 22.046875 25.695312 21.84375 25.640625 C 21.648438 25.582031 21.417969 25.550781 21.160156 25.550781 C 20.980469 25.550781 20.804688 25.582031 20.632812 25.640625 C 20.464844 25.695312 20.316406 25.792969 20.179688 25.929688 C 20.050781 26.0625 19.941406 26.242188 19.855469 26.464844 C 19.777344 26.691406 19.734375 26.972656 19.734375 27.308594 C 19.734375 27.890625 19.847656 28.339844 20.070312 28.652344 C 20.296875 28.960938 20.667969 29.117188 21.179688 29.117188 C 21.472656 29.117188 21.71875 29.085938 21.910156 29.027344 C 22.105469 28.964844 22.261719 28.90625 22.378906 28.84375 L 22.667969 29.644531 C 22.507812 29.734375 22.289062 29.816406 22.011719 29.894531 C 21.738281 29.964844 21.425781 30 21.066406 30 "/>
</g>
</svg>
