<?xml version="1.0" encoding="UTF-8" standalone="no"?>
<svg
   xmlns:dc="http://purl.org/dc/elements/1.1/"
   xmlns:cc="http://creativecommons.org/ns#"
   xmlns:rdf="http://www.w3.org/1999/02/22-rdf-syntax-ns#"
   xmlns:svg="http://www.w3.org/2000/svg"
   xmlns="http://www.w3.org/2000/svg"
   xmlns:sodipodi="http://sodipodi.sourceforge.net/DTD/sodipodi-0.dtd"
   xmlns:inkscape="http://www.inkscape.org/namespaces/inkscape"
   width="16"
   height="16"
   viewBox="0 0 16 16"
   id="svg2"
   version="1.1"
   inkscape:version="0.91 r"
   sodipodi:docname="applications-debugging.svg">
  <metadata
     id="metadata48">
    <rdf:RDF>
      <cc:Work
         rdf:about="">
        <dc:format>image/svg+xml</dc:format>
        <dc:type
           rdf:resource="http://purl.org/dc/dcmitype/StillImage" />
        <dc:title />
      </cc:Work>
    </rdf:RDF>
  </metadata>
  <defs
     id="defs46" />
  <sodipodi:namedview
     pagecolor="#ffffff"
     bordercolor="#666666"
     borderopacity="1"
     objecttolerance="10"
     gridtolerance="10"
     guidetolerance="10"
     inkscape:pageopacity="0"
     inkscape:pageshadow="2"
     inkscape:window-width="1920"
     inkscape:window-height="1056"
     id="namedview44"
     showgrid="true"
     inkscape:zoom="41.7193"
     inkscape:cx="3.7247218"
     inkscape:cy="7.1787084"
     inkscape:window-x="0"
     inkscape:window-y="24"
     inkscape:window-maximized="1"
     inkscape:current-layer="svg2">
    <inkscape:grid
       type="xygrid"
       id="grid4176" />
  </sodipodi:namedview>
  <path
     style="fill:#ec7878"
     inkscape:connector-curvature="0"
     id="path6"
     d="m 8.8056283,3.6698006 c -0.054687,0 -0.109375,0.015624 -0.160156,0.046874 -0.046875,0.035157 -0.089844,0.089844 -0.089844,0.160157 0.00781,0.027343 0.00391,0.050781 0.00391,0.078125 0,0.082031 0.0625,0.144531 0.144532,0.144531 0.078125,0 0.144531,-0.0625 0.144531,-0.144531 0,-0.078125 -0.0625,-0.144532 -0.144531,-0.144532 0.03125,-0.019531 0.070312,-0.027343 0.101562,-0.03125 0.113282,0 0.199219,0.066407 0.261719,0.164063 0.05859,0.097656 0.08984,0.226563 0.08984,0.332031 -0.00391,0.265625 -0.136719,0.488282 -0.328125,0.65625 -0.191406,0.171875 -0.449219,0.289063 -0.691406,0.332032 l 0.019531,0.109374 c 0.261719,-0.050781 0.535156,-0.171874 0.742187,-0.355468 0.210938,-0.1875 0.363282,-0.441406 0.367188,-0.738282 0.00391,-0.128906 -0.03125,-0.277343 -0.109375,-0.394531 -0.074219,-0.121093 -0.195313,-0.214843 -0.351563,-0.214843 z" />
  <path
     style="fill:#ec7878"
     inkscape:connector-curvature="0"
     id="path8"
     d="m 7.1962533,3.6698006 c 0.050781,0 0.109375,0.015624 0.15625,0.046874 0.050781,0.035157 0.09375,0.089844 0.089844,0.160157 -0.00391,0.027343 -0.00391,0.050781 0,0.078125 0,0.082031 -0.066406,0.144531 -0.148437,0.144531 -0.078126,0 -0.144532,-0.0625 -0.144532,-0.144531 0,-0.078125 0.0625,-0.144532 0.144532,-0.144532 -0.027344,-0.019531 -0.070313,-0.027343 -0.097657,-0.03125 -0.117187,0 -0.199219,0.066407 -0.261719,0.164063 -0.0625,0.097656 -0.09375,0.226563 -0.09375,0.332031 0.00781,0.265625 0.136719,0.488282 0.332032,0.65625 0.191406,0.171875 0.445312,0.289063 0.6875,0.332032 l -0.019532,0.109374 c -0.261718,-0.050781 -0.53125,-0.171874 -0.742187,-0.355468 -0.210937,-0.1875 -0.359375,-0.441406 -0.367187,-0.738282 0,-0.128906 0.03125,-0.277343 0.109374,-0.394531 0.074219,-0.121093 0.195313,-0.214843 0.355469,-0.214843 z" />
  <path
     style="fill:#ec7878"
     inkscape:connector-curvature="0"
     id="path10"
     d="m 7.8915663,4.7244876 c -0.625,0.027344 -1.226563,0.335937 -1.628906,0.808594 -0.210938,0.226562 -0.40625,0.476562 -0.496094,0.777343 0.00391,0.046876 0.019531,0.09375 0.035156,0.140626 -0.132812,0.00781 -0.300781,-0.011719 -0.394531,0.105468 -0.167969,0.1875 -0.207031,0.445313 -0.289063,0.671875 -0.375,1.300781 -0.179687,2.7851574 0.617188,3.8906254 0.4375,0.59375 1.082031,1.0625 1.824218,1.183594 0.121094,0.01172 0.265626,0.04687 0.378907,-0.01953 0.042969,-0.03516 0.101562,-0.02734 0.140625,0.01172 0.152344,0.07812 0.328125,0.0039 0.488281,-0.01953 0.753906,-0.164062 1.40625,-0.683594 1.8124997,-1.332031 0.753906,-1.1640634 0.878906,-2.6875004 0.410156,-3.9882814 -0.0625,-0.152348 -0.121093,-0.320317 -0.246093,-0.437504 -0.08203,-0.058594 -0.183594,-0.078125 -0.28125,-0.085938 0.0625,-0.128906 0.01953,-0.285156 -0.07422,-0.390625 -0.3398437,-0.554687 -0.8437497,-1.035156 -1.4804687,-1.222656 -0.265625,-0.074219 -0.542969,-0.09375 -0.816406,-0.09375 z" />
  <path
     style="fill:#ec7878"
     inkscape:connector-curvature="0"
     id="path12"
     d="m 7.9735973,4.8768316 c -0.00391,0 -0.011719,0 -0.015625,0.00391 -0.21875,0.015621 -0.441406,0.035152 -0.648438,0.109371 -0.597656,0.210938 -1.050781,0.695312 -1.359374,1.230469 -0.046876,0.085937 -0.015626,0.199219 0.082031,0.207031 0.664062,0.00391 1.332031,0 2,0.00391 0.667969,-0.00391 1.335937,0 2.0039057,-0.00391 0.09766,-0.00781 0.128906,-0.121094 0.08203,-0.207031 -0.3124997,-0.535157 -0.7656247,-1.019531 -1.3632807,-1.230469 -0.207031,-0.074219 -0.429687,-0.09375 -0.648437,-0.109375 -0.054688,-0.00391 -0.046876,0.011719 -0.074219,0.011719 -0.023438,0 -0.015625,-0.015625 -0.058594,-0.015625 z" />
  <path
     style="fill:#ec7878"
     inkscape:connector-curvature="0"
     id="path14"
     d="m 8.4540663,6.5955816 c -0.195313,0 -0.355469,0.160156 -0.355469,0.359375 l 0,5.0820314 c 0,0.07031 0,0.125 0.09375,0.136719 1.492187,-0.08203 2.7187497,-1.679688 2.7187497,-3.6250004 0,-0.644532 -0.128906,-1.25 -0.359375,-1.773438 -0.0039,-0.011718 -0.0078,-0.023437 -0.01172,-0.03125 0,-0.00391 -0.0039,-0.00391 -0.0039,-0.00391 0,-0.00391 0,-0.00391 0,-0.00391 -0.04297,-0.082032 -0.125,-0.140625 -0.226563,-0.140625 z" />
  <path
     style="fill:#ec7878"
     inkscape:connector-curvature="0"
     id="path16"
     d="m 7.5478163,6.5955816 c 0.195312,0 0.351562,0.160156 0.351562,0.359375 l 0,5.0820314 c 0,0.07031 0,0.125 -0.09375,0.136719 -1.492187,-0.08203 -2.714844,-1.679688 -2.714844,-3.6250004 0,-0.644532 0.128907,-1.25 0.355469,-1.773438 0.00391,-0.011718 0.00781,-0.023437 0.015625,-0.03125 0,-0.00391 0,-0.00391 0,-0.00391 0,-0.00391 0,-0.00391 0,-0.00391 0.042969,-0.082024 0.128906,-0.140617 0.226563,-0.140617 z" />
  <path
     style="fill:#ec7878;fill-rule:evenodd"
     d="m 5.9228163,6.7440186 -0.226563,0.28125 -0.359375,-0.027344 0.195313,0.300782 -0.136719,0.332031 0.347656,-0.09375 0.277344,0.230469 0.015625,-0.359375 0.308594,-0.1875 -0.339844,-0.128907 z m 1.121094,0.339844 -0.191407,0.957031 -0.894531,0.386719 0.851562,0.480469 0.089844,0.96875 0.714844,-0.660157 0.957031,0.214844 -0.410156,-0.886718 0.496094,-0.839844 -0.96875,0.113281 z m 2.929687,0.441406 -0.222656,0.28125 -0.359375,-0.027344 0.195312,0.300782 -0.136718,0.335937 0.347656,-0.097656 0.2734367,0.234375 0.01953,-0.359375 0.304688,-0.191406 -0.335938,-0.125 z m -4.328125,1.71875 -0.273438,0.550782 -0.257812,0.039062 c 0.089844,0.3085944 0.214844,0.6015624 0.371094,0.8828124 l 0.160156,-0.08594 0.542969,0.289063 -0.105469,-0.605469 0.441406,-0.4296884 -0.609375,-0.089843 z m 4.4687497,0.050782 -0.5390617,0.613281 -0.8125,-0.09375 0.417968,0.6992194 -0.339844,0.742187 0.792969,-0.175781 0.3749997,0.34375 c 0.101563,-0.109375 0.191407,-0.21875 0.277344,-0.339844 l 0.02344,-0.265625 0.21875,-0.121094 c 0.07031,-0.132812 0.136719,-0.269531 0.195313,-0.40625 l -0.449219,-0.195312 z m -2.6874997,1.6601564 -0.222656,0.277344 -0.359375,-0.02734 0.195312,0.304687 -0.132812,0.332031 0.34375,-0.09375 0.273437,0.230469 0.019532,-0.359375 0.304687,-0.1875 -0.335937,-0.128906 z"
     id="path20"
     inkscape:connector-curvature="0" />
  <path
     style="fill:#ec7878;fill-opacity:0.9020004;fill-rule:evenodd"
     d="m 10.540003,9.4666746 c 0,0.5585944 -1.1093747,1.0195324 -2.4765617,1.0195324 -1.367188,0 -2.480469,-0.460938 -2.480469,-1.0195324 0,-0.566406 1.113281,-1.019531 2.480469,-1.019531 1.367187,0 2.4765617,0.453125 2.4765617,1.019531 z"
     id="path22"
     inkscape:connector-curvature="0" />
  <path
     inkscape:connector-curvature="0"
     id="path24"
     d="m 6.2314103,11.294801 c 0.394531,0.402343 0.910156,0.699218 1.476562,0.761718 0.03125,0.0078 0.101562,0.0078 0.085938,-0.04687 -0.00391,-0.125 -0.00391,-0.246093 -0.00391,-0.371093 0,-0.07813 0,-0.0625 -0.058593,-0.02734 -0.582032,0.355468 -1.074219,-0.07422 -1.5,-0.316406 z m 3.519531,0.02734 c -0.425781,0.242188 -0.921875,0.671875 -1.503907,0.316407 -0.058593,-0.03516 -0.058593,-0.05078 -0.058593,0.02734 0,0.125 0,0.246094 -0.00391,0.371094 -0.015624,0.05469 0.050782,0.05859 0.089844,0.04687 0.566406,-0.0625 1.078125,-0.359375 1.476563,-0.761719 z"
     style="fill:#ec7878;fill-opacity:0.45899999" />
  <path
     style="fill:#ec7878;fill-rule:evenodd"
     d="m 9.5751603,6.0877686 c 0,0.6875 -0.695313,1.25 -1.554688,1.25 -0.859375,0 -1.554688,-0.5625 -1.554688,-1.25 0,-0.691406 0.695313,-1.25 1.554688,-1.25 0.859375,0 1.554688,0.558594 1.554688,1.25 z"
     id="path28"
     inkscape:connector-curvature="0" />
  <path
     style="fill:#ec7878;fill-rule:evenodd"
     d="m 7.3837533,3.9158936 c 0,0.046875 -0.039062,0.089844 -0.085937,0.089844 -0.046875,0 -0.085938,-0.042969 -0.085938,-0.089844 0,-0.050781 0.039063,-0.089843 0.085938,-0.089843 0.046875,0 0.085937,0.039062 0.085937,0.089843 z"
     id="path30"
     inkscape:connector-curvature="0" />
  <path
     style="fill:#ec7878;fill-rule:evenodd"
     d="m 8.7860973,3.9158936 c 0,0.046875 -0.039063,0.089844 -0.085937,0.089844 -0.046876,0 -0.085938,-0.042969 -0.085938,-0.089844 0,-0.050781 0.039062,-0.089843 0.085938,-0.089843 0.046874,0 0.085937,0.039062 0.085937,0.089843 z"
     id="path32"
     inkscape:connector-curvature="0" />
  <path
     style="fill:none;stroke:#ec7878;stroke-width:0.49999997;stroke-linecap:round;stroke-linejoin:round;stroke-miterlimit:4;stroke-dasharray:none"
     d="M 13.125,8.0000002 C 13.125,10.831211 10.832543,13.125 7.9999999,13.125 5.1713419,13.125 2.875,10.831211 2.875,8.0000002 2.875,5.1687881 5.1713419,2.875 7.9999999,2.875 10.832543,2.875 13.125,5.1687881 13.125,8.0000002 Z"
     id="path42"
     inkscape:connector-curvature="0" />
  <path
     style="fill:none;fill-rule:evenodd;stroke:#ec7878;stroke-width:0.75000006;stroke-linecap:round;stroke-linejoin:miter;stroke-miterlimit:4;stroke-dasharray:none;stroke-opacity:1"
     d="M 8,1.3930133 8,14.619659"
     id="path4178"
     inkscape:connector-curvature="0" />
  <path
     style="fill:none;fill-rule:evenodd;stroke:#ec7878;stroke-width:0.75000006;stroke-linecap:round;stroke-linejoin:miter;stroke-miterlimit:4;stroke-dasharray:none;stroke-opacity:1"
     d="m 14.613323,8.006336 -13.226646,0"
     id="path4178-7"
     inkscape:connector-curvature="0" />
</svg>
