<?xml version="1.0" encoding="UTF-8" standalone="no"?>
<svg
   xmlns:dc="http://purl.org/dc/elements/1.1/"
   xmlns:cc="http://creativecommons.org/ns#"
   xmlns:rdf="http://www.w3.org/1999/02/22-rdf-syntax-ns#"
   xmlns:svg="http://www.w3.org/2000/svg"
   xmlns="http://www.w3.org/2000/svg"
   xmlns:sodipodi="http://sodipodi.sourceforge.net/DTD/sodipodi-0.dtd"
   xmlns:inkscape="http://www.inkscape.org/namespaces/inkscape"
   width="16"
   height="16"
   viewBox="0 0 12.8 12.8"
   id="svg2"
   version="1.1"
   inkscape:version="0.91 r"
   sodipodi:docname="applications-science.svg">
  <metadata
     id="metadata34">
    <rdf:RDF>
      <cc:Work
         rdf:about="">
        <dc:format>image/svg+xml</dc:format>
        <dc:type
           rdf:resource="http://purl.org/dc/dcmitype/StillImage" />
        <dc:title />
      </cc:Work>
    </rdf:RDF>
  </metadata>
  <defs
     id="defs32" />
  <sodipodi:namedview
     pagecolor="#ffffff"
     bordercolor="#666666"
     borderopacity="1"
     objecttolerance="10"
     gridtolerance="10"
     guidetolerance="10"
     inkscape:pageopacity="0"
     inkscape:pageshadow="2"
     inkscape:window-width="1920"
     inkscape:window-height="1056"
     id="namedview30"
     showgrid="true"
     inkscape:zoom="11.313708"
     inkscape:cx="23.810999"
     inkscape:cy="32.464201"
     inkscape:window-x="0"
     inkscape:window-y="24"
     inkscape:window-maximized="1"
     inkscape:current-layer="svg2">
    <inkscape:grid
       type="xygrid"
       id="grid4235" />
  </sodipodi:namedview>
  <g
     id="g4213"
     transform="matrix(0.33334311,0,0,0.33334311,-5.8046562e-5,5.246645e-4)">
    <path
       style="color:#000000;font-style:normal;font-variant:normal;font-weight:normal;font-stretch:normal;font-size:medium;line-height:normal;font-family:sans-serif;text-indent:0;text-align:start;text-decoration:none;text-decoration-line:none;text-decoration-style:solid;text-decoration-color:#000000;letter-spacing:normal;word-spacing:normal;text-transform:none;direction:ltr;block-progression:tb;writing-mode:lr-tb;baseline-shift:baseline;text-anchor:start;white-space:normal;clip-rule:nonzero;display:inline;overflow:visible;visibility:visible;opacity:1;isolation:auto;mix-blend-mode:normal;color-interpolation:sRGB;color-interpolation-filters:linearRGB;solid-color:#000000;solid-opacity:1;fill:#5b93d7;fill-opacity:1;fill-rule:evenodd;stroke:none;stroke-width:1.12220645;stroke-linecap:butt;stroke-linejoin:miter;stroke-miterlimit:4;stroke-dasharray:none;stroke-dashoffset:0;stroke-opacity:1;color-rendering:auto;image-rendering:auto;shape-rendering:auto;text-rendering:auto;enable-background:accumulate"
       d="M 16.25,5.4160156 C 15.178163,5.4290621 14.484375,5.5 14.484375,5.5 L 14.3125,5.519531 14.167969,5.615234 c -0.293863,0.1959085 -0.448008,0.6352876 -0.416016,0.9082031 0.03199,0.2729155 0.132136,0.4432417 0.222656,0.5878906 0.08776,0.1402494 0.114862,0.153172 0.189453,0.2382813 l 0.154297,4.261719 -4.199218,16.486328 c -0.7798824,2.582295 -0.9647505,4.19867 -0.9355472,5.21875 0.014667,0.512319 0.084889,0.876139 0.1660156,1.132813 0.081127,0.256672 0.2304687,0.474609 0.2304687,0.474609 l 0.052734,0.06836 0.068359,0.05469 c 2.6188989,2.027758 5.6754609,2.304806 8.3710939,2.099609 -0.01516,-0.41589 0.0015,-0.873591 0.105468,-1.429687 -2.497436,0.204271 -5.217044,-0.01716 -7.496093,-1.720703 -0.03521,-0.116588 -0.08458,-0.330184 -0.0957,-0.71875 -0.02316,-0.808889 0.127569,-2.297782 0.886718,-4.802735 l 0.0039,-0.01563 4.25,-16.697265 -0.171874,-4.8359382 c 0.545997,-0.040555 1.824529,-0.035451 3.59375,0.1132813 l -0.453126,4.6171879 3.044922,14.082031 0.902344,-2.470703 -2.53125,-11.693359 0.433594,-4.3984382 c 0.09883,-0.1573212 0.318483,-0.2744501 0.33789,-0.4082031 0.04636,-0.3195254 -0.03125,-0.5761719 -0.03125,-0.5761719 L 20.732422,5.7519531 20.283203,5.6816406 C 18.772211,5.448791 17.321837,5.4029692 16.25,5.4160156 Z"
       transform="scale(0.8,0.8)"
       id="path8"
       inkscape:connector-curvature="0"
       sodipodi:nodetypes="sccccccccssccccccsccccccccccscccs" />
    <path
       style="fill:#adc3e2;fill-rule:evenodd"
       d="m 11.986328,28.5 -0.0039,0.02344 c -0.0049,0.01954 -0.0098,0.03418 -0.0098,0.04883 -0.751952,2.480468 -0.89453,3.936523 -0.875,4.693359 0.0098,0.27832 0.03418,0.439453 0.05859,0.546875 2.160125,1.538718 4.719741,1.704241 7.113281,1.484375 0.189391,-0.807657 0.514184,-1.755253 1.03711,-2.882813 l 1.417968,-3.890624 c -3.85519,1.739601 -6.771304,1.08833 -8.738281,-0.02344 z"
       transform="scale(0.8,0.8)"
       id="path12"
       inkscape:connector-curvature="0"
       sodipodi:nodetypes="ccccccccc" />
  </g>
  <path
     style="color:#000000;font-style:normal;font-variant:normal;font-weight:normal;font-stretch:normal;font-size:medium;line-height:normal;font-family:sans-serif;text-indent:0;text-align:start;text-decoration:none;text-decoration-line:none;text-decoration-style:solid;text-decoration-color:#000000;letter-spacing:normal;word-spacing:normal;text-transform:none;direction:ltr;block-progression:tb;writing-mode:lr-tb;baseline-shift:baseline;text-anchor:start;white-space:normal;clip-rule:nonzero;display:inline;overflow:visible;visibility:visible;opacity:1;isolation:auto;mix-blend-mode:normal;color-interpolation:sRGB;color-interpolation-filters:linearRGB;solid-color:#000000;solid-opacity:1;fill:#5b93d7;fill-opacity:1;fill-rule:evenodd;stroke:none;stroke-width:1.12220645;stroke-linecap:butt;stroke-linejoin:miter;stroke-miterlimit:4;stroke-dasharray:none;stroke-dashoffset:0;stroke-opacity:1;color-rendering:auto;image-rendering:auto;shape-rendering:auto;text-rendering:auto;enable-background:accumulate"
     d="m 7.1147339,2.0285791 -0.093102,0.020183 -0.1569055,0.3587344 0.1171907,0.065106 c 9.5e-4,0.00802 0.00195,0.018229 0.00195,0.018229 l 0,0.00586 0.037111,1.0397443 0.00651,0.021484 c 0.010715,0.037525 0.015105,0.036981 0.01953,0.041668 -2.42e-4,-0.00607 -0.036921,0.075613 -0.074221,0.1393271 -0.039706,0.067826 -0.076825,0.1269567 -0.076825,0.1269567 l -0.011065,0.016927 -1.736379,4.7618588 0.00651,-0.014975 C 4.8339018,9.316969 4.7810978,9.7632838 4.8275551,10.05876 c 0.023226,0.147739 0.072013,0.256311 0.1210973,0.328786 0.046211,0.06823 0.1005598,0.107471 0.107425,0.112634 1.4471971,1.2113 3.2796807,0.823303 4.1251207,0.68752 0.9674139,-0.155137 1.1640969,-1.076855 1.1640969,-1.076855 l 0.0065,-0.03321 -0.0059,-0.03386 C 10.011519,8.1342594 8.7951891,3.6348905 8.7775431,3.5696399 l 0.115889,-0.9388296 -6.5e-4,-0.016276 c -0.0041,-0.085905 0.03062,-0.1139357 0.03062,-0.1139357 l 0.06446,-0.066408 -0.01368,-0.0918 C 8.9534021,2.2021232 8.8358791,2.1046263 8.7521721,2.0754559 8.6688021,2.0464039 8.5965101,2.0532655 8.5959181,2.05332 l -6.5e-4,0 C 7.6002861,1.9412538 7.1147674,2.0285792 7.1147674,2.0285792 Z m 0.2330799,0.3685003 c 0.076968,-0.014122 0.3387483,-0.078507 1.2370153,0.028647 l 0.0059,6.5e-4 c -0.03726,0.0694 -0.07762,0.083318 -0.07162,0.2063876 l 0.0013,-0.031902 -0.123051,0.9948208 0.0098,0.035157 c 0,0 1.225388,4.547597 1.560593,6.4350847 -0.0078,0.04407 -0.118854,0.636062 -0.845728,0.752626 l -6.5e-4,0 c -0.871651,0.139984 -2.5352506,0.485132 -3.8341524,-0.609393 l -0.00782,-0.0065 -0.00847,-0.0059 c 0,0 0.00626,0.0086 -0.01237,-0.01888 -0.018616,-0.02751 -0.046656,-0.08051 -0.06184,-0.177089 -0.030366,-0.1931522 -0.0044,-0.5681203 0.2968836,-1.2129263 l 0.0039,-0.00716 1.7259618,-4.733863 c 0.00946,-0.01491 0.034716,-0.054349 0.072268,-0.1184931 0.043956,-0.075084 0.088824,-0.1375324 0.1165397,-0.2402414 0.021315,-0.07899 0.01104,-0.1583423 -0.00977,-0.2109435 -0.00345,-0.00873 -0.00615,-0.012207 -0.00977,-0.01953 l -0.035156,-0.9681275 0,0.01237 c 0,0 -2.66e-5,-0.049698 -0.00977,-0.1048208 z"
     id="path14"
     inkscape:connector-curvature="0" />
  <path
     style="fill:#adc3e2;fill-rule:evenodd"
     inkscape:connector-curvature="0"
     id="path28"
     d="M 5.8971061,8.2216121 5.679652,8.8166817 c -0.0026,0.00912 -0.00651,0.01823 -0.010415,0.027346 C 5.3749575,9.4729525 5.3580297,9.8232231 5.3827702,9.98078 c 0.01172,0.076825 0.032556,0.109379 0.039066,0.118493 1.2265985,1.035187 2.7787274,0.707052 3.6654724,0.565121 0.537776,-0.08594 0.665384,-0.479181 0.692728,-0.596372 C 9.7032166,9.6383221 9.5795106,9.070597 9.4362766,8.4507874 7.8424791,8.8453292 6.6796853,8.5953221 5.8971101,8.2216136 Z" />
  <g
     id="g4209"
     transform="matrix(0.33334311,0,0,0.33334311,-5.8046562e-5,5.246645e-4)" />
</svg>
