<svg width="128" xmlns="http://www.w3.org/2000/svg" height="128" viewBox="0 0 128 128" xmlns:xlink="http://www.w3.org/1999/xlink">
<path style="fill:#909ea9" d="M 35.832031 21.332031 C 32.269531 21.332031 29.332031 24.269531 29.332031 27.832031 L 29.332031 81.417969 C 29.332031 84.980469 32.269531 88 35.832031 88 L 92.167969 88 C 95.730469 88 98.667969 84.980469 98.667969 81.417969 L 98.667969 27.832031 C 98.667969 24.269531 95.730469 21.332031 92.167969 21.332031 Z M 35.832031 26.667969 L 92.167969 26.667969 C 92.867188 26.667969 93.332031 27.132812 93.332031 27.832031 L 93.332031 81.417969 C 93.332031 82.117188 92.867188 82.667969 92.167969 82.667969 L 35.832031 82.667969 C 35.132812 82.667969 34.667969 82.117188 34.667969 81.417969 L 34.667969 27.832031 C 34.667969 27.132812 35.132812 26.667969 35.832031 26.667969 Z M 88 74.667969 C 86.527344 74.667969 85.332031 75.859375 85.332031 77.332031 C 85.332031 78.804688 86.527344 80 88 80 C 89.472656 80 90.667969 78.804688 90.667969 77.332031 C 90.667969 75.859375 89.472656 74.667969 88 74.667969 Z M 39.082031 90.667969 C 42.988281 100.050781 52.679688 106.667969 64 106.667969 C 75.320312 106.667969 85.011719 100.050781 88.917969 90.667969 Z "/>
</svg>
