<svg width="128" xmlns="http://www.w3.org/2000/svg" height="128" viewBox="0 0 128 128" xmlns:xlink="http://www.w3.org/1999/xlink">
<path style="fill:#8e9da8" d="M 13.855469 21.105469 C 12.019531 21.445312 10.558594 23.203125 10.558594 25.066406 L 10.558594 101.601562 C 10.585938 103.660156 12.449219 105.519531 14.519531 105.558594 L 112.148438 105.558594 C 114.21875 105.519531 116.082031 103.660156 116.105469 101.601562 L 116.105469 35.949219 C 116.082031 33.894531 114.21875 32.03125 112.148438 31.992188 L 73.894531 31.992188 L 73.894531 25.066406 C 73.855469 23.007812 71.992188 21.144531 69.933594 21.105469 L 14.519531 21.105469 C 14.296875 21.09375 14.074219 21.09375 13.855469 21.105469 Z M 60.691406 47.773438 L 63.332031 47.773438 C 74.972656 47.773438 84.441406 57.253906 84.441406 68.894531 C 84.441406 80.535156 74.972656 90 60.691406 90 C 51.691406 90 42.226562 80.535156 42.226562 68.894531 C 42.226562 57.253906 51.691406 47.773438 60.691406 47.773438 Z M 61.027344 50.742188 C 60.207031 50.859375 59.335938 51.027344 58.554688 51.238281 L 56.082031 55.363281 C 56.289062 55.390625 56.457031 55.378906 56.730469 55.535156 C 58.058594 56.289062 58.671875 56.925781 59.050781 57.019531 C 59.425781 57.109375 61.09375 54.804688 59.871094 57.34375 C 58.644531 59.882812 58.152344 60.742188 56.730469 61.300781 C 56.652344 61.328125 56.496094 61.261719 56.40625 61.300781 C 56.042969 61.730469 55.535156 62.238281 54.921875 62.785156 C 53.59375 63.972656 52.941406 64.074219 52.941406 65.261719 C 52.941406 66.445312 53.046875 67.472656 52.121094 69.050781 C 51.183594 70.636719 50.402344 70.664062 50.792969 71.863281 C 51.199219 73.046875 51.472656 75.089844 50.792969 74.167969 C 50.128906 73.242188 50.507812 71.457031 49.972656 72.511719 C 49.503906 73.4375 48.410156 73.710938 48.320312 74.660156 C 48.308594 74.792969 48.292969 74.988281 48.320312 75.15625 C 48.671875 76.300781 50.636719 74.753906 50.636719 75.652344 C 50.636719 76.574219 48.917969 76.511719 49.308594 77.304688 C 49.714844 78.085938 51.277344 75.753906 52.617188 76.144531 C 53.945312 76.535156 53.058594 76.769531 54.257812 77.304688 C 55.457031 77.824219 56.082031 78.320312 56.082031 79.113281 C 56.082031 79.910156 59.933594 79.609375 59.542969 80.925781 C 59.140625 82.253906 58.761719 81.953125 57.566406 83.398438 C 56.902344 84.207031 56.300781 84.660156 55.910156 85.050781 C 56.457031 85.457031 56.589844 85.597656 57.226562 85.378906 C 58.074219 85.105469 57.070312 84.765625 57.722656 84.386719 C 57.890625 84.296875 57.957031 84.140625 58.058594 84.0625 C 58.152344 83.984375 58.191406 83.957031 58.386719 83.894531 C 58.789062 83.777344 59.519531 83.738281 61.355469 83.738281 C 65.027344 83.738281 66.964844 83.894531 66.964844 83.894531 C 66.964844 83.894531 68.097656 83.894531 66.964844 84.558594 C 66.132812 85.039062 64.53125 85.808594 64.324219 86.042969 C 64.402344 86.027344 64.441406 86.105469 64.648438 86.042969 C 66.355469 85.574219 68.777344 85.246094 69.441406 85.050781 C 69.714844 84.972656 71.199219 84.113281 72.410156 83.566406 C 72.449219 83.449219 72.527344 83.347656 72.566406 83.242188 L 72.410156 83.242188 C 71.472656 82.839844 70.652344 80.964844 70.925781 80.429688 C 71.183594 79.894531 71.902344 79.453125 72.566406 78.125 C 73.242188 76.796875 73.113281 77.890625 71.25 75.480469 C 69.386719 73.085938 68.386719 75.625 67.460938 74.832031 C 66.523438 74.023438 64.621094 73.320312 63.828125 71.863281 C 63.035156 70.390625 63.332031 71.472656 63.332031 69.882812 C 63.332031 68.28125 63.269531 69.402344 63.660156 68.058594 C 64.0625 66.730469 65.128906 66.523438 66.472656 65.585938 C 66.652344 65.457031 66.769531 65.519531 66.964844 65.429688 C 66.667969 65.144531 66.316406 64.441406 65.480469 63.605469 C 65.480469 63.605469 66.289062 61.902344 66.964844 61.628906 C 67.605469 61.378906 68.058594 61.550781 68.945312 61.796875 C 68.984375 61.652344 68.90625 61.628906 68.945312 61.300781 C 69.074219 60.234375 68.605469 60.808594 68.605469 60.144531 C 68.605469 59.480469 68.828125 60.246094 69.765625 59.988281 C 70.703125 59.714844 70.652344 57.734375 71.574219 58.007812 C 72.511719 58.269531 72.589844 57.722656 73.398438 56.523438 C 74.191406 55.3125 73.308594 55.898438 72.238281 55.363281 C 71.171875 54.832031 72.175781 56.25 71.914062 57.175781 C 71.640625 58.113281 70.859375 57.527344 69.933594 55.535156 C 68.996094 53.527344 69.726562 54.324219 70.261719 52.722656 C 70.351562 52.449219 70.457031 52.226562 70.585938 52.070312 C 68.855469 51.316406 66.953125 50.925781 64.988281 50.742188 C 64.972656 50.832031 64.988281 50.808594 64.988281 50.910156 C 64.792969 52.695312 63.878906 51.550781 63.503906 51.730469 C 63.125 51.925781 60.691406 55.417969 60.691406 55.039062 C 60.691406 54.660156 61.027344 54.050781 61.027344 54.050781 C 61.027344 54.050781 61.328125 52.449219 61.027344 50.742188 Z M 68.605469 57.839844 C 69.023438 57.902344 69.402344 58.269531 69.597656 58.660156 C 69.714844 58.878906 69.558594 58.945312 69.441406 58.996094 C 69.441406 58.996094 69.597656 59.519531 69.597656 59.648438 C 69.597656 59.777344 69.246094 59.816406 68.605469 59.648438 C 68.136719 59.53125 68.621094 59.402344 68.945312 59.152344 L 68.28125 59.152344 C 68.046875 59.152344 68.007812 59.035156 67.957031 58.996094 C 67.980469 59.023438 67.890625 59.089844 67.957031 59.152344 C 68.253906 59.53125 67.890625 59.230469 67.460938 59.324219 C 67.019531 59.425781 67.421875 59.035156 67.617188 58.660156 C 67.617188 58.660156 67.902344 58.90625 67.957031 58.996094 C 68.035156 58.816406 68.113281 58.464844 68.113281 58.007812 C 68.28125 57.929688 68.476562 57.800781 68.605469 57.839844 Z M 78.671875 58.996094 C 78.007812 59.492188 77.226562 60.597656 76.523438 61.300781 C 75.324219 62.5 77.175781 62.65625 77.851562 62.785156 C 78.515625 62.917969 79.152344 62.460938 80.480469 62.460938 C 80.46875 62.394531 80.351562 62.355469 80.324219 62.292969 C 80.144531 62.316406 80.039062 62.292969 79.832031 62.292969 C 79.050781 62.292969 79.480469 61.707031 79.660156 60.636719 C 79.386719 60.089844 78.996094 59.503906 78.671875 58.996094 Z M 70.429688 61.472656 C 70.144531 61.378906 69.777344 61.667969 69.269531 61.964844 C 69.636719 62.488281 68.527344 63.878906 67.957031 64.933594 C 67.929688 64.960938 67.8125 65.050781 67.785156 65.089844 C 68.933594 64.910156 70.730469 65.246094 74.714844 66.25 C 74.714844 66.25 76.261719 65.714844 76.523438 66.25 C 76.628906 66.433594 77.070312 66.535156 77.683594 66.574219 C 79.296875 65.949219 78.503906 65.558594 78.503906 64.269531 C 78.503906 62.941406 76.433594 64.269531 76.691406 63.605469 C 76.953125 62.941406 76.472656 63.058594 75.535156 62.121094 C 74.609375 61.199219 74.726562 64.441406 74.050781 63.777344 C 73.386719 63.113281 73.332031 63.644531 73.058594 63.113281 C 72.800781 62.578125 71.914062 61.628906 71.914062 61.628906 C 71.914062 61.628906 72.539062 62.449219 72.410156 63.777344 C 72.265625 65.105469 70.429688 63.945312 70.429688 63.945312 C 70.429688 63.945312 70.714844 63.738281 71.25 63.605469 C 71.785156 63.476562 71.160156 62.734375 70.753906 61.796875 C 70.652344 61.574219 70.546875 61.511719 70.429688 61.472656 Z M 81.640625 68.058594 C 81.496094 68.175781 81.328125 68.320312 81.144531 68.398438 C 79.675781 68.933594 78.503906 70.039062 78.503906 70.039062 C 78.503906 70.039062 80.273438 70.128906 81.472656 71.199219 C 81.5625 70.46875 81.640625 69.636719 81.640625 68.894531 C 81.640625 68.621094 81.652344 68.332031 81.640625 68.058594 Z "/>
</svg>
