<svg width="48" xmlns="http://www.w3.org/2000/svg" viewBox="0 0 48 48" height="48" xmlns:xlink="http://www.w3.org/1999/xlink">
<g style="stroke:#777">
<path style="fill:#f9f9f9;stroke-width:.5" d="m 25.932203,35.18644 a 12.254237,12.508474 0 1 1 -24.5084741,0 12.254237,12.508474 0 1 1 24.5084741,0 z" transform="matrix(1.59979 0 0 1.56727 2.11819 -31.14659)"/>
<path style="fill:#b2b2b2;line-height:100%" d="m 25.769513,35.25462 0,3.245377 -3.539032,0 0,-3.185832 C 20.16604,35.075971 18.543984,34.361393 17.364315,33.170429 16.184634,31.959617 15.563196,30.371665 15.5,28.406569 l 5.719328,0.02978 c 0.02107,0.714584 0.294911,1.280293 0.821562,1.697125 0.526632,0.416842 1.179671,0.62526 1.959107,0.625257 0.674092,3e-6 1.263933,-0.158792 1.769516,-0.476386 0.589831,-0.337435 0.884746,-0.803897 0.884761,-1.399384 -1.5e-5,-0.873368 -0.947969,-1.637569 -2.843867,-2.292608 -2.822805,-0.972613 -4.58179,-1.687192 -5.27695,-2.143738 -1.895911,-1.190953 -2.843868,-2.888078 -2.843866,-5.091376 -2e-6,-1.806281 0.621435,-3.32476 1.864313,-4.555442 1.200738,-1.171095 2.759596,-1.875749 4.676577,-2.113963 l 0,-3.1858315 3.539032,0 0,3.1858315 c 4.107795,0.69475 6.182758,2.987356 6.224908,6.877825 l -5.592937,0 c -10e-6,-0.754264 -0.231731,-1.369594 -0.695164,-1.845996 -0.463459,-0.49622 -1.095429,-0.744336 -1.895913,-0.744353 -0.631982,1.7e-5 -1.179686,0.168737 -1.64312,0.50616 -0.526651,0.357305 -0.789972,0.833691 -0.789967,1.429158 -5e-6,0.754293 0.95848,1.478796 2.875466,2.173512 2.801722,0.972633 4.592302,1.716986 5.371747,2.233059 1.916957,1.210824 2.875448,2.878174 2.875467,5.002054 -1.9e-5,1.885699 -0.631991,3.453802 -1.895913,4.704313 -1.200759,1.171116 -2.812283,1.915469 -4.834574,2.23306"/>
</g>
</svg>
