<svg xmlns="http://www.w3.org/2000/svg" viewBox="0 0 48 48" xmlns:xlink="http://www.w3.org/1999/xlink">
<defs>
<linearGradient gradientTransform="matrix(1.0606 0 0 1.0606 -1.4545 -1.4545)" id="linearGradient3217" y1="7.028" y2="40.32" gradientUnits="userSpaceOnUse" x2="0">
<stop offset="0" style="stop-color:#3d3e40"/>
<stop offset="1" style="stop-color:#4e4e4e"/>
</linearGradient>
<linearGradient gradientTransform="matrix(1 0 0 -1 0 48)" id="linearGradient3201" y1="7.028" y2="26.494" gradientUnits="userSpaceOnUse" x2="0">
<stop offset="0"/>
<stop offset="1"/>
</linearGradient>
<linearGradient gradientTransform="translate(-.39768 .39813)" id="linearGradient3212" y1="3.602" y2="26.091" gradientUnits="userSpaceOnUse" x2="0">
<stop offset="0" style="stop-color:#fff"/>
<stop offset="1" style="stop-color:#fff;stop-opacity:0"/>
</linearGradient>
<linearGradient id="linearGradient3222" y1="3" y2="45.184" gradientUnits="userSpaceOnUse" x2="0">
<stop offset="0" style="stop-color:#4d4d4d"/>
<stop offset="1" style="stop-color:#333"/>
</linearGradient>
<radialGradient cx="27.412" cy="12.08" gradientTransform="matrix(0 1.7731 -2.6591 0 59.48 -17.999)" id="radialGradient3215" r="18" gradientUnits="userSpaceOnUse">
<stop offset="0" style="stop-color:#fff"/>
<stop offset="1" style="stop-color:#d8d8d8"/>
</radialGradient>
<radialGradient cx="24.012" cy="24.003" gradientTransform="matrix(.95321 0 0 .95321 1.1236 1.1232)" id="radialGradient3220" r="21" gradientUnits="userSpaceOnUse">
<stop offset="0" style="stop-color:#808080"/>
<stop offset=".873" style="stop-color:#6d6d6d"/>
<stop offset="1" style="stop-color:#4f5053"/>
</radialGradient>
<radialGradient cx="62.625" cy="4.625" gradientTransform="matrix(2.1647 0 0 .75294 -111.56 36.518)" id="radialGradient3225" r="10.625" gradientUnits="userSpaceOnUse">
<stop offset="0"/>
<stop offset="1" style="stop-opacity:0"/>
</radialGradient>
<radialGradient cx="24" cy="24" id="radialGradient3199" r="17" gradientUnits="userSpaceOnUse">
<stop offset="0" style="stop-color:#fff;stop-opacity:0"/>
<stop offset=".7" style="stop-color:#fff;stop-opacity:0"/>
<stop offset="1"/>
</radialGradient>
</defs>
<path style="opacity:.3;fill:url(#radialGradient3225);fill-rule:evenodd" d="m47 40c0 4.4183-10.297 8-23 8s-23-3.5817-23-8 10.297-8 23-8 23 3.5817 23 8z"/>
<path style="fill:url(#radialGradient3220);stroke:url(#linearGradient3222)" d="m44.5 23.999c0 11.322-9.179 20.501-20.5 20.501-11.322 0-20.5-9.179-20.5-20.501 0-11.321 9.178-20.499 20.5-20.499 11.321 0 20.5 9.178 20.5 20.499z"/>
<path style="fill:url(#radialGradient3215);stroke:url(#linearGradient3217)" d="m41.5 23.999c0 9.6653-7.8356 17.501-17.5 17.501-9.6651 0-17.5-7.8354-17.5-17.501 0-9.6649 7.8352-17.499 17.5-17.499 9.6642 0 17.5 7.8345 17.5 17.499z"/>
<g style="fill:none">
<path style="opacity:.4;stroke:url(#linearGradient3212)" d="m43.5 23.999c0 10.77-8.7311 19.501-19.5 19.501-10.77 0-19.5-8.7309-19.5-19.501 0-10.769 8.7306-19.499 19.5-19.499s19.5 8.73 19.5 19.499z"/>
</g>
<g style="stroke-linecap:round">
<g style="fill:none;stroke:#000">
<g>
<path style="opacity:.5" d="m9.8617 24.537c2.7663 0 3.1166-0.07959 3.1166-0.07959"/>
<path style="opacity:.5" d="m35.022 24.537c2.7663 0 3.1166-0.07959 3.1166-0.07959"/>
<path style="opacity:.6" d="m23.543 38.033c0-2.7663-0.07959-3.1166-0.07959-3.1166"/>
<path style="opacity:.4" d="m23.543 13.083c0-2.7664-0.07959-3.1166-0.07959-3.1166"/>
</g>
<g style="stroke-width:.9">
<path d="m23.103 25.537 10.787-10.992"/>
<path d="m24.75 25.537-7.287-7.287"/>
</g>
</g>
<g>
<path style="fill:#f00;fill-rule:evenodd;stroke:#f00;stroke-width:.9" d="m24.672 24.653 10.973-3.089"/>
</g>
</g>
<path style="opacity:.2;fill:url(#radialGradient3199);stroke:url(#linearGradient3201)" d="m40.5 24.001c0-9.113-7.388-16.501-16.5-16.501-9.113 0-16.5 7.388-16.5 16.501 0 9.112 7.387 16.499 16.5 16.499 9.112 0 16.5-7.387 16.5-16.499z"/>
</svg>
