<svg xmlns="http://www.w3.org/2000/svg" viewBox="0 0 22 22" xmlns:xlink="http://www.w3.org/1999/xlink">
<path style="fill:#555555#2d2d2d#bada55" d="M 13,3 C 11.125,3 10.419922,4.1835938 10.15625,5.0625 8.7053886,5.2721726 7.4231966,6.0081578 6.5,7.0625 4.5279536,7.3095659 3,8.9609808 3,11 3,12.873395 4.2922431,14.413304 6.03125,14.84375 6.2872999,16.608647 8.411165,18 11,18 13.588835,18 15.7127,16.608647 15.96875,14.84375 17.707757,14.413304 19,12.873395 19,11 19,8.9609808 17.472046,7.3095659 15.5,7.0625 14.452478,5.8661708 12.946227,5.0722268 11.25,5 11.5,4.5 12,4 13,4 L 13,3 z M 9,8 c 1.104569,0 2,1.119288 2,2.5 0,-1.380712 0.895431,-2.5 2,-2.5 1.104569,0 2,1.119288 2,2.5 0,0.989821 -0.45747,1.844955 -1.125,2.25 0.700642,0.450299 1.125,1.072272 1.125,1.75 0,0.172589 -0.04047,0.337256 -0.09375,0.5 l -7.8125,0 C 7.0404664,14.837256 7,14.672589 7,14.5 7,13.822272 7.424358,13.200299 8.125,12.75 7.4574696,12.344955 7,11.489821 7,10.5 7,9.119288 7.8954305,8 9,8 z m 2,2.5 c 0,0.577509 -0.17441,1.107987 -0.4375,1.53125 C 10.706925,12.021378 10.85137,12 11,12 c 0.14863,0 0.293075,0.02138 0.4375,0.03125 C 11.17441,11.607987 11,11.077509 11,10.5 z M 9,10 c -0.5522847,0 -1,0.447715 -1,1 0,0.552285 0.4477153,1 1,1 0.552285,0 1,-0.447715 1,-1 0,-0.552285 -0.447715,-1 -1,-1 z m 4,0 c -0.552285,0 -1,0.447715 -1,1 0,0.552285 0.447715,1 1,1 0.552285,0 1,-0.447715 1,-1 0,-0.552285 -0.447715,-1 -1,-1 z m -4,3 0,1 1,0 0,-1 -1,0 z m 3,0 0,1 1,0 0,-1 -1,0 z m -4.1875,3 6.375,0 C 13.457757,16.607394 12.30887,17 11,17 9.69113,17 8.5422429,16.607394 7.8125,16 z"/>
</svg>
