<svg xmlns="http://www.w3.org/2000/svg" viewBox="0 0 22 22" xmlns:xlink="http://www.w3.org/1999/xlink">
<path style="fill:#555555#2d2d2d#bada55" d="M 4,3 4,8 9,8 7.28125,6.28125 C 8.3038891,5.4783825 9.599253,5 11,5 c 3.313708,0 6,2.6862915 6,6 0,3.313708 -2.686292,6 -6,6 C 7.6862915,17 5,14.313708 5,11 5,10.299289 5.1229842,9.625135 5.34375,9 L 3.25,9 C 3.0862956,9.637743 3,10.31119 3,11 c 0,4.418278 3.581722,8 8,8 4.418278,0 8,-3.581722 8,-8 C 19,6.581722 15.418278,3 11,3 9.043128,3 7.2338051,3.6769384 5.84375,4.84375 L 4,3 z m 6.90625,2.96875 A 1.0001,1.0001 0 0 0 10.78125,6 1.0001,1.0001 0 0 0 10,7 l 0,3.6875 a 1.0001,1.0001 0 0 0 0,0.09375 1.0001,1.0001 0 0 0 0.125,0.75 1.0001,1.0001 0 0 0 0.03125,0.03125 1.0001,1.0001 0 0 0 0.03125,0.0625 1.0001,1.0001 0 0 0 0.03125,0.03125 1.0001,1.0001 0 0 0 0.03125,0.03125 1.0001,1.0001 0 0 0 0.03125,0.03125 1.0001,1.0001 0 0 0 0.03125,0.03125 1.0001,1.0001 0 0 0 0.0625,0.03125 1.0001,1.0001 0 0 0 0.03125,0.03125 1.0001,1.0001 0 0 0 0.03125,0.03125 1.0001,1.0001 0 0 0 0.0625,0.03125 1.0001,1.0001 0 0 0 0.125,0.0625 l 2.46875,1.4375 a 1.0077822,1.0077822 0 1 0 1,-1.75 L 12,10.40625 12,7 A 1.0001,1.0001 0 0 0 10.90625,5.96875 z"/>
</svg>
