<svg xmlns="http://www.w3.org/2000/svg" viewBox="0 0 22 22">
<path style="fill:#555555#2d2d2d#bada55" d="M 8.1875,3.0169544 C 7.4019747,3.0986065 6.7615992,3.8877311 6.8434229,4.6732385 6.9252466,5.4587459 7.7145105,6.0989497 8.5,6.0169544 c 0,0 0.4515209,0.022635 0.84375,0.21875 C 9.735979,6.431819 10,6.5169544 10,7.5169544 L 10,14 7,11 l -2,0 0,2 6,6 1,0 6,-6 0,-2 -2,0 -3,3 0,-6.4830456 c 0,-2 -1.235979,-3.4148646 -2.34375,-3.96875 C 9.548479,2.994319 8.5,3.0169544 8.5,3.0169544 c -0.052036,-0.00271 -0.1042138,-0.00271 -0.15625,0 -0.052036,-0.00271 -0.1042137,-0.00271 -0.15625,0 z"/>
</svg>
