<svg xmlns="http://www.w3.org/2000/svg" viewBox="0 0 22 22">
<path style="fill:#555555#2d2d2d#bada55;line-height:normal;color:#000" d="m 10.963453,3.9998706 0,2 3,3 -6.463453,0 c 0,0 -1.0797291,-0.022636 -2.1875,0.53125 C 4.2047291,10.085007 3,11.499871 3,13.499871 c 0,2 1.2047291,3.414865 2.3125,3.96875 1.1077709,0.553885 2.1875,0.53125 2.1875,0.53125 0.7924689,0.01121 1.5213634,-0.707452 1.5213634,-1.5 0,-0.792548 -0.7288945,-1.511207 -1.5213634,-1.5 0,0 -0.4515209,-0.02263 -0.84375,-0.21875 C 6.2640209,14.585006 6,14.499871 6,13.499871 6,12.49987 6.2640209,12.414736 6.65625,12.218621 7.0484791,12.022506 7.5,11.999871 7.5,11.999871 l 6.463453,0 -3,3 0,2 2,0 6,-6 0,-1.0000004 -6,-6 z"/>
</svg>
