<svg xmlns="http://www.w3.org/2000/svg" viewBox="0 0 22 22" xmlns:xlink="http://www.w3.org/1999/xlink">
<path style="fill:#555555#2d2d2d#bada55" d="m 11,3 c -4.4182781,0 -8,3.5817219 -8,8 0,0.690562 0.085416,1.360424 0.25,2 L 4,13 6.4375,13 C 6.1666036,12.384392 6,11.715731 6,11 6,8.2385763 8.2385762,6 11,6 c 2.761424,0 5,2.2385763 5,5 0,0.715731 -0.166604,1.384392 -0.4375,2 L 18,13 18.75,13 C 18.914584,12.360424 19,11.690562 19,11 19,6.5817219 15.418278,3 11,3 z m 0,7 c -0.552285,0 -1,0.447715 -1,1 l 2,0 c 0,-0.552285 -0.447715,-1 -1,-1 z m -2,2 0,2 -2,0 -1,0 5,5 5,-5 -3,0 0,-2 -4,0 z"/>
</svg>
