<?xml version="1.0" encoding="UTF-8" standalone="no"?>
<svg
   xmlns:dc="http://purl.org/dc/elements/1.1/"
   xmlns:cc="http://creativecommons.org/ns#"
   xmlns:rdf="http://www.w3.org/1999/02/22-rdf-syntax-ns#"
   xmlns:svg="http://www.w3.org/2000/svg"
   xmlns="http://www.w3.org/2000/svg"
   xmlns:sodipodi="http://sodipodi.sourceforge.net/DTD/sodipodi-0.dtd"
   xmlns:inkscape="http://www.inkscape.org/namespaces/inkscape"
   width="24"
   viewBox="0 0 24 24"
   height="24"
   id="svg3050"
   version="1.1"
   inkscape:version="0.91 r"
   sodipodi:docname="caffeine-cup-empty.svg">
  <metadata
     id="metadata3074">
    <rdf:RDF>
      <cc:Work
         rdf:about="">
        <dc:format>image/svg+xml</dc:format>
        <dc:type
           rdf:resource="http://purl.org/dc/dcmitype/StillImage" />
        <dc:title />
      </cc:Work>
    </rdf:RDF>
  </metadata>
  <sodipodi:namedview
     pagecolor="#ffffff"
     bordercolor="#666666"
     borderopacity="1"
     objecttolerance="10"
     gridtolerance="10"
     guidetolerance="10"
     inkscape:pageopacity="0"
     inkscape:pageshadow="2"
     inkscape:window-width="1366"
     inkscape:window-height="747"
     id="namedview3072"
     showgrid="false"
     inkscape:zoom="21.454546"
     inkscape:cx="1.8448816"
     inkscape:cy="6.7245343"
     inkscape:window-x="0"
     inkscape:window-y="21"
     inkscape:window-maximized="1"
     inkscape:current-layer="svg3050" />
  <defs
     id="defs3052" />
  <rect
     style="fill:#ececec;fill-opacity:1"
     id="rect3064"
     ry="2.665"
     height="5.329"
     rx="3.382"
     y="14.671"
     x="5"
     width="11.771" />
  <rect
     style="fill:#ececec;fill-opacity:1"
     id="rect3066"
     height="7.3340001"
     y="10.037001"
     x="5"
     width="11.771" />
  <g
     id="g3068"
     transform="matrix(-0.20621,0,0,0.20963,35.60912,9.7473305)"
     style="line-height:125%;letter-spacing:0;word-spacing:0;fill:#ececec;fill-opacity:1">
    <path
       inkscape:connector-curvature="0"
       id="path3070"
       d="m 94.254036,9.800518 c -3.138034,2.6e-5 -5.6185,1.048202 -7.441406,3.144531 -1.809903,2.083354 -2.71485,4.941424 -2.714844,8.574219 -6e-6,3.73699 0.872389,6.627612 2.617187,8.671875 1.757803,2.031254 4.2578,3.046878 7.5,3.046875 1.99217,3e-6 4.264303,-0.35807 6.816407,-1.074219 l 0,2.910157 c -1.979188,0.742187 -4.420592,1.11328 -7.324219,1.113281 -4.205741,-1e-6 -7.454435,-1.276041 -9.746094,-3.828125 -2.278649,-2.552078 -3.417971,-6.178376 -3.417969,-10.878906 -2e-6,-2.942692 0.546872,-5.520814 1.640625,-7.734375 1.106766,-2.213518 2.695306,-3.9192453 4.765625,-5.117188 2.083323,-1.1978883 4.531237,-1.796846 7.34375,-1.796875 2.994773,2.9e-5 5.611958,0.5469035 7.851562,1.640625 l -1.40625,2.851563 c -2.161478,-1.0156 -4.322934,-1.523412 -6.484374,-1.523438"
       style="fill:#ececec;fill-opacity:1" />
  </g>
</svg>
