<?xml version="1.0" encoding="UTF-8" standalone="no"?>
<!-- Created with Inkscape (http://www.inkscape.org/) -->

<svg
   xmlns:dc="http://purl.org/dc/elements/1.1/"
   xmlns:cc="http://creativecommons.org/ns#"
   xmlns:rdf="http://www.w3.org/1999/02/22-rdf-syntax-ns#"
   xmlns:svg="http://www.w3.org/2000/svg"
   xmlns="http://www.w3.org/2000/svg"
   xmlns:sodipodi="http://sodipodi.sourceforge.net/DTD/sodipodi-0.dtd"
   xmlns:inkscape="http://www.inkscape.org/namespaces/inkscape"
   width="24"
   height="24"
   id="svg2"
   version="1.1"
   inkscape:version="0.91 r"
   sodipodi:docname="indicator-workspaces-18.svg"
   inkscape:export-filename="/media/Data/Main/Visuals/Icons/Numix/Desktop/repos/numix-wiki/Gjorgi/Numix-folders/48/New/folder-144.png"
   inkscape:export-xdpi="270"
   inkscape:export-ydpi="270">
  <defs
     id="defs4" />
  <sodipodi:namedview
     id="base"
     pagecolor="#ffffff"
     bordercolor="#666666"
     borderopacity="1.0"
     inkscape:pageopacity="0.0"
     inkscape:pageshadow="2"
     inkscape:zoom="23.257679"
     inkscape:cx="12.213754"
     inkscape:cy="10.829687"
     inkscape:document-units="px"
     inkscape:current-layer="layer1"
     showgrid="true"
     inkscape:window-width="1366"
     inkscape:window-height="747"
     inkscape:window-x="0"
     inkscape:window-y="21"
     inkscape:window-maximized="1"
     showguides="true"
     inkscape:guide-bbox="true">
    <inkscape:grid
       type="xygrid"
       id="grid2985"
       empspacing="5"
       visible="true"
       enabled="true"
       snapvisiblegridlinesonly="true" />
  </sodipodi:namedview>
  <metadata
     id="metadata7">
    <rdf:RDF>
      <cc:Work
         rdf:about="">
        <dc:format>image/svg+xml</dc:format>
        <dc:type
           rdf:resource="http://purl.org/dc/dcmitype/StillImage" />
        <dc:title />
      </cc:Work>
    </rdf:RDF>
  </metadata>
  <g
     inkscape:label="Layer 1"
     inkscape:groupmode="layer"
     id="layer1"
     transform="translate(0,-1028.8622)">
    <path
       style="fill:#ececec;fill-opacity:1;stroke:none"
       d="m 10,1045.8622 -2,2 c -1,1 -1,1 0,1 l 8,0 c 1,0 1,0 0,-1 l -2,-2 0,-1 -4,0 z"
       id="path3838"
       inkscape:connector-curvature="0"
       sodipodi:nodetypes="ccccccccc" />
    <path
       inkscape:connector-curvature="0"
       style="fill:#ececec;fill-opacity:1;stroke:none"
       d="m 6,1032.8622 c -1.108,0 -2,0.892 -2,2 l 0,9 c 0,1.108 0.892,2 2,2 l 12,0 c 1.108,0 2,-0.892 2,-2 l 0,-9 c 0,-1.108 -0.892,-2 -2,-2 l -12,0 z m 0,2 12,0 0,9 -12,0 0,-9 z"
       id="rect3831" />
    <g
       style="font-style:normal;font-variant:normal;font-weight:bold;font-stretch:normal;font-size:8.0629921px;line-height:125%;font-family:opensans;-inkscape-font-specification:'opensans Bold';letter-spacing:0px;word-spacing:0px;text-anchor:middle;fill:#ececec;fill-opacity:1;stroke:none;stroke-width:1px;stroke-linecap:butt;stroke-linejoin:miter;stroke-opacity:1"
       id="text4141"
       transform="translate(-0.22430405,0)">
      <path
         d="m 7.3164062,1041.4152 1.4526368,0 0,-4.123 -1.4910889,0.3077 0,-1.1194 1.4825439,-0.3076 1.563721,0 0,5.2423 1.452636,0 0,1.1364 -4.4604488,0 0,-1.1364 z"
         style="font-style:normal;font-variant:normal;font-weight:bold;font-stretch:normal;font-size:8.75px;font-family:opensans;-inkscape-font-specification:'opensans Bold';letter-spacing:-0.75"
         id="path4139"
         inkscape:connector-curvature="0" />
      <path
         d="m 14.671265,1039.6976 q -0.461426,0 -0.709229,0.2521 -0.247803,0.2521 -0.247803,0.7221 0,0.4699 0.247803,0.722 0.247803,0.2478 0.709229,0.2478 0.457153,0 0.700683,-0.2478 0.243531,-0.2521 0.243531,-0.722 0,-0.4743 -0.243531,-0.7221 -0.24353,-0.2521 -0.700683,-0.2521 z m -1.200562,-0.5426 q -0.581055,-0.1751 -0.875854,-0.5383 -0.2948,-0.3632 -0.2948,-0.9058 0,-0.8075 0.602417,-1.2304 0.602417,-0.423 1.768799,-0.423 1.157837,0 1.760254,0.423 0.602417,0.4187 0.602417,1.2304 0,0.5426 -0.299073,0.9058 -0.2948,0.3632 -0.875854,0.5383 0.649414,0.1795 0.978393,0.5854 0.333252,0.4016 0.333252,1.0168 0,0.9485 -0.632324,1.4355 -0.628052,0.4828 -1.867065,0.4828 -1.243286,0 -1.879883,-0.4828 -0.632324,-0.487 -0.632324,-1.4355 0,-0.6152 0.328979,-1.0168 0.333252,-0.4059 0.982666,-0.5854 z m 0.384522,-1.2774 q 0,0.3802 0.20935,0.5853 0.213623,0.2051 0.60669,0.2051 0.384521,0 0.593872,-0.2051 0.20935,-0.2051 0.20935,-0.5853 0,-0.3803 -0.20935,-0.5811 -0.209351,-0.2051 -0.593872,-0.2051 -0.393067,0 -0.60669,0.2051 -0.20935,0.2051 -0.20935,0.5811 z"
         style="font-style:normal;font-variant:normal;font-weight:bold;font-stretch:normal;font-size:8.75px;font-family:opensans;-inkscape-font-specification:'opensans Bold';letter-spacing:-0.75"
         id="path4141"
         inkscape:connector-curvature="0" />
    </g>
  </g>
</svg>
