<svg xmlns="http://www.w3.org/2000/svg" viewBox="0 0 24 24" xmlns:xlink="http://www.w3.org/1999/xlink">
<path style="fill:#555555#2d2d2d#bada55" d="M 6 4 L 6 20 L 11 20 L 15 20 L 18 20 L 18 13 L 18 11 L 18 9 L 18 6 L 15 4 L 6 4 z M 8 6 L 14 6 L 14 7 L 16 7 L 16 11 L 16 13 L 16 18 L 13 18 L 11.5 18 L 8 18 L 8 6 z M 9 8 L 9 10 L 10 10 L 10 9 L 11 9 L 11 8 L 9 8 z M 13 8 L 13 9 L 14 9 L 14 10 L 15 10 L 15 8 L 13 8 z M 9 15 L 9 17 L 11 17 L 11 16 L 10 16 L 10 15 L 9 15 z M 14 15 L 14 16 L 13 16 L 13 17 L 15 17 L 15 15 L 14 15 z "/>
</svg>
