<?xml version="1.0" encoding="UTF-8" standalone="no"?>
<svg
   xmlns:dc="http://purl.org/dc/elements/1.1/"
   xmlns:cc="http://creativecommons.org/ns#"
   xmlns:rdf="http://www.w3.org/1999/02/22-rdf-syntax-ns#"
   xmlns:svg="http://www.w3.org/2000/svg"
   xmlns="http://www.w3.org/2000/svg"
   xmlns:sodipodi="http://sodipodi.sourceforge.net/DTD/sodipodi-0.dtd"
   xmlns:inkscape="http://www.inkscape.org/namespaces/inkscape"
   width="22"
   viewBox="0 0 22 22"
   height="22"
   id="svg2"
   version="1.1"
   inkscape:version="0.48.4 r9939"
   sodipodi:docname="audio-volume-high-panel.svg">
  <metadata
     id="metadata46">
    <rdf:RDF>
      <cc:Work
         rdf:about="">
        <dc:format>image/svg+xml</dc:format>
        <dc:type
           rdf:resource="http://purl.org/dc/dcmitype/StillImage" />
      </cc:Work>
    </rdf:RDF>
  </metadata>
  <sodipodi:namedview
     pagecolor="#ffffff"
     bordercolor="#666666"
     borderopacity="1"
     objecttolerance="10"
     gridtolerance="10"
     guidetolerance="10"
     inkscape:pageopacity="0"
     inkscape:pageshadow="2"
     inkscape:window-width="1301"
     inkscape:window-height="744"
     id="namedview44"
     showgrid="true"
     inkscape:zoom="16.916091"
     inkscape:cx="3.2060303"
     inkscape:cy="10.99746"
     inkscape:window-x="65"
     inkscape:window-y="24"
     inkscape:window-maximized="1"
     inkscape:current-layer="svg2">
    <inkscape:grid
       type="xygrid"
       id="grid3023" />
  </sodipodi:namedview>
  <defs
     id="defs4">
    <clipPath
       id="clipPath6">
      <rect
         height="6.375"
         width="3.825"
         y="220.75"
         x="26.85"
         fill="#bebebe"
         color="#bebebe"
         id="rect8" />
    </clipPath>
    <clipPath
       id="clipPath10">
      <rect
         height="5.216"
         width="2.898"
         y="221.33"
         x="26.966"
         fill="#bebebe"
         color="#bebebe"
         id="rect12" />
    </clipPath>
    <clipPath
       id="clipPath14">
      <rect
         height="4.874"
         width="1.876"
         y="221.5"
         x="26.999"
         fill="#bebebe"
         color="#bebebe"
         id="rect16" />
    </clipPath>
  </defs>
  <g
     id="g18">
    <path
       d="m 11.991992,8.5 -0.999111,1 c 1.232629,1.276149 1.232629,3.223852 0,4.5 l 0.999111,1 c 1.951716,-2.020628 1.951716,-4.479372 0,-6.5 z"
       id="path20"
       inkscape:connector-curvature="0"
       style="opacity:0.3;color:#000000" />
    <path
       d="m 13.490657,8 c 2.025461,2.027265 2.025464,5.972736 0,8 l 1.498665,1.5 c 2.902308,-2.904895 2.902305,-8.095106 0,-11 z"
       id="path22"
       inkscape:connector-curvature="0"
       style="opacity:0.3;color:#000000" />
    <path
       d="m 15.988432,6 c 3.560632,3.3724938 3.508213,8.627505 0,12 l 1.498666,1.5 c 4.657623,-4.5 4.710043,-10.5 0,-15 z"
       id="path24"
       inkscape:connector-curvature="0"
       style="opacity:0.3;color:#000000" />
    <path
       d="m 11.991992,7.5 -0.999111,1 c 1.232629,1.2761494 1.232629,3.223852 0,4.5 l 0.999111,1 c 1.951716,-2.020628 1.951716,-4.4793718 0,-6.5 z"
       id="path26"
       inkscape:connector-curvature="0"
       style="color:#000000;fill:#353535" />
    <path
       d="m 13.490657,7 c 2.025461,2.0272647 2.025464,5.972736 0,8 l 1.498665,1.5 c 2.902308,-2.904895 2.902305,-8.095106 0,-11 z"
       id="path28"
       inkscape:connector-curvature="0"
       style="color:#000000;fill:#353535" />
    <path
       d="m 15.988432,5 c 3.560632,3.3724938 3.508213,8.627505 0,12 l 1.498666,1.5 c 4.657623,-4.5 4.710043,-10.5 0,-15 z"
       id="path30"
       inkscape:connector-curvature="0"
       style="color:#000000;fill:#353535" />
    <g
       transform="translate(0,1)"
       id="g32"
       style="opacity:0.3">
      <path
         d="m 7.9946611,5 -2.9973306,3 0,6 2.9973306,3 L 8,13 10,11 8,9 z"
         id="path34"
         inkscape:connector-curvature="0" />
      <path
         d="M 1.9991102,8 C 1.4760663,8 1,8.4981434 1,9 l 0,4 c 0,0.579702 0.432648,1 0.9991102,1 l 3.9973305,0 0,-6 z"
         id="path36"
         inkscape:connector-curvature="0"
         sodipodi:nodetypes="ssssccs" />
    </g>
    <g
       id="g38">
      <path
         d="m 8,5 -3.0026695,3 0,6 L 8,17 8,13 10,11 8,9 z"
         id="path40"
         inkscape:connector-curvature="0"
         style="fill:#353535"
         sodipodi:nodetypes="cccccccc" />
      <path
         d="M 2,8 C 1.4769561,8 1.0008898,8.4981434 1.0008898,9 l 0,4 c 0,0.579702 0.432648,1 0.9991102,1 l 3.9964407,0 0,-6 z"
         id="path42"
         inkscape:connector-curvature="0"
         style="fill:#353535"
         sodipodi:nodetypes="ssssccs" />
    </g>
  </g>
</svg>
