<svg width="22" xmlns="http://www.w3.org/2000/svg" viewBox="0 0 22 22" height="22">
<g style="opacity:.3" xml:space="preserve" transform="matrix(1.11111 0 0 1.125 -1.22222 -.375)">
<path xml:space="preserve" d="M 8,3 C 6.3431458,3 5,4.3431458 5,6 l 0,5.008911 c 0,1.656854 1.3431458,3 3,3 1.656854,0 3,-1.343146 3,-3 L 11,6 C 11,4.3431458 9.656854,3 8,3 Z"/>
<path xml:space="preserve" d="m 2,11 c 0,2.97562 2.1585893,5.433272 5,5.90625 L 7,18 l -1,0 0,1 4,0 0,-1 -1,0 0,-1.09375 C 11.84141,16.433272 14,13.97562 14,11 l -2,0 c 0,2.209139 -1.790861,4 -4,4 -2.209139,0 -4,-1.790861 -4,-4 l -2,0 z"/>
<path xml:space="preserve" d="m 20,4 a 2,2 0 1 1 -4,0 2,2 0 1 1 4,0 z" transform="translate(0 1)"/>
<path xml:space="preserve" d="m 20,4 a 2,2 0 1 1 -4,0 2,2 0 1 1 4,0 z" transform="translate(0 7)"/>
<path xml:space="preserve" d="m 20,4 a 2,2 0 1 1 -4,0 2,2 0 1 1 4,0 z" transform="translate(0 13)"/>
</g>
<g style="fill:#353535" transform="matrix(1.11111 0 0 1.125 -1.22222 -1.375)">
<path xml:space="preserve" d="M 8,3 C 6.3431458,3 5,4.3431458 5,6 l 0,5.008911 c 0,1.656854 1.3431458,3 3,3 1.656854,0 3,-1.343146 3,-3 L 11,6 C 11,4.3431458 9.656854,3 8,3 Z"/>
<path xml:space="preserve" d="m 2,11 c 0,2.97562 2.1585893,5.433272 5,5.90625 L 7,18 l -1,0 0,1 4,0 0,-1 -1,0 0,-1.09375 C 11.84141,16.433272 14,13.97562 14,11 l -2,0 c 0,2.209139 -1.790861,4 -4,4 -2.209139,0 -4,-1.790861 -4,-4 l -2,0 z"/>
<path xml:space="preserve" d="m 20,4 a 2,2 0 1 1 -4,0 2,2 0 1 1 4,0 z" transform="translate(0 1)"/>
<path xml:space="preserve" d="m 20,4 a 2,2 0 1 1 -4,0 2,2 0 1 1 4,0 z" transform="translate(0 7)"/>
<path xml:space="preserve" d="m 20,4 a 2,2 0 1 1 -4,0 2,2 0 1 1 4,0 z" transform="translate(0 13)"/>
</g>
</svg>
