<svg width="22" xmlns="http://www.w3.org/2000/svg" viewBox="0 0 22 22" height="22" style="enable-background:new">
<g style="opacity:.3" transform="translate(-464 -509)">
<path style="line-height:normal;color:#000" d="m 473.99429,514 2.01143,0 c 3.01713,0 2.95429,3.06249 2.95429,3.06249 l 0,2.625 c 0,1 -1.76002,3.06251 -1.76002,3.06251 l 0,1.3125 3.96001,2.1875 0,1.75 -6.6,0 -5.72,0 0,-1.75 3.96001,-2.1875 0,-1.3125 c 0,0 -1.76663,-2.0625 -1.76002,-3.06251 l 0,-2.625 c 0,0 -0.0628,-3.06246 2.95429,-3.06246 z"/>
</g>
<g style="fill:#353535" transform="translate(-464 -510)">
<path style="line-height:normal;color:#000" d="m 473.99429,514 2.01143,0 c 3.01713,0 2.95429,3.06249 2.95429,3.06249 l 0,2.625 c 0,1 -1.76002,3.06251 -1.76002,3.06251 l 0,1.3125 3.96001,2.1875 0,1.75 -6.6,0 -5.72,0 0,-1.75 3.96001,-2.1875 0,-1.3125 c 0,0 -1.76663,-2.0625 -1.76002,-3.06251 l 0,-2.625 c 0,0 -0.0628,-3.06246 2.95429,-3.06246 z"/>
</g>
</svg>
