<?xml version="1.0" encoding="UTF-8" standalone="no"?>
<svg
   xmlns:dc="http://purl.org/dc/elements/1.1/"
   xmlns:cc="http://creativecommons.org/ns#"
   xmlns:rdf="http://www.w3.org/1999/02/22-rdf-syntax-ns#"
   xmlns:svg="http://www.w3.org/2000/svg"
   xmlns="http://www.w3.org/2000/svg"
   xmlns:sodipodi="http://sodipodi.sourceforge.net/DTD/sodipodi-0.dtd"
   xmlns:inkscape="http://www.inkscape.org/namespaces/inkscape"
   width="22"
   viewBox="0 0 6.2088891 6.2088891"
   height="22"
   id="svg2"
   version="1.1"
   inkscape:version="0.48.4 r9939"
   sodipodi:docname="network-workgroup-symbolic.svg">
  <metadata
     id="metadata12">
    <rdf:RDF>
      <cc:Work
         rdf:about="">
        <dc:format>image/svg+xml</dc:format>
        <dc:type
           rdf:resource="http://purl.org/dc/dcmitype/StillImage" />
        <dc:title></dc:title>
      </cc:Work>
    </rdf:RDF>
  </metadata>
  <defs
     id="defs10" />
  <sodipodi:namedview
     pagecolor="#ffffff"
     bordercolor="#666666"
     borderopacity="1"
     objecttolerance="10"
     gridtolerance="10"
     guidetolerance="10"
     inkscape:pageopacity="0"
     inkscape:pageshadow="2"
     inkscape:window-width="1366"
     inkscape:window-height="740"
     id="namedview8"
     showgrid="true"
     inkscape:zoom="21.295229"
     inkscape:cx="9.8383965"
     inkscape:cy="7.8476784"
     inkscape:window-x="0"
     inkscape:window-y="28"
     inkscape:window-maximized="1"
     inkscape:current-layer="svg2">
    <inkscape:grid
       type="xygrid"
       id="grid2989"
       empspacing="5"
       visible="true"
       enabled="true"
       snapvisiblegridlinesonly="true" />
  </sodipodi:namedview>
  <path
     sodipodi:nodetypes="ccccccccccccccccccccccccccc"
     style="color:#000000;fill:#000000;fill-opacity:1;opacity:0.3"
     inkscape:connector-curvature="0"
     id="path2984"
     d="m 2.8222223,2.54 c -0.1516865,0 -0.2822222,0.1440592 -0.2822222,0.2819014 l 0,1.4095069 c 0,0.1453306 0.08804,0.2819014 0.2822222,0.2819014 l 0.8466659,0 8e-7,0.6729101 0.5644441,0 -1e-7,-0.6729101 0.8466672,0 c 0.1814704,0 0.2822222,-0.1225803 0.2822222,-0.2819014 l 0,-1.4095069 C 5.3622224,2.6825757 5.2514668,2.54 5.0800002,2.54 z m 0.5644444,0.5638029 1.1288889,0 c 0.1549948,0 0.2822223,0.1090621 0.2822223,0.2819013 l 1e-7,0.2819014 c 0,0.1428587 -0.1092193,0.2819013 -0.2822223,0.2819013 l -1.1288889,0 c -0.1750039,0 -0.2822223,-0.1170577 -0.2822223,-0.2819013 l -10e-8,-0.2819014 c 0,-0.156827 0.1178211,-0.2819013 0.2822223,-0.2819013 z m -0.5644444,1.9768389 0,0.5638028 2.2577779,0 0,-0.5638028 z" />
  <path
     sodipodi:nodetypes="ccccccccccccccccccccc"
     style="color:#000000;fill:#000000;fill-opacity:1;opacity:0.3"
     inkscape:connector-curvature="0"
     id="path2986"
     d="m 1.1288889,1.1253555 c -0.2822222,0 -0.2822222,0.2822222 -0.2822222,0.2822222 l 0,1.6933334 c 0,0 0,0.2822222 0.2822222,0.2822222 l 0.8466667,0 0,0.5581242 -0.8466667,0 0,0.5644444 1.1288889,0 0,-1.687013 -0.5644444,0 c -0.1553898,0 -0.2822222,-0.1302842 -0.2822222,-0.2822222 l 0,-0.5644445 C 1.4111112,1.8119149 1.5373179,1.6898 1.6933334,1.6898 l 1.1288889,0 c 0.169325,0 0.2822222,0.1198318 0.2822222,0.2822222 l 0,0.2822222 0.5644445,0 0,-0.8466667 c 0,-0.2822222 -0.2822222,-0.2822222 -0.2822222,-0.2822222 z" />
  <path
     d="m 2.8222223,2.2577778 c -0.1516865,0 -0.2822222,0.1440592 -0.2822222,0.2819014 l 0,1.4095069 c 0,0.1453306 0.08804,0.2819014 0.2822222,0.2819014 l 0.8466659,0 8e-7,0.6729101 0.5644441,0 -1e-7,-0.6729101 0.8466672,0 c 0.1814704,0 0.2822222,-0.1225803 0.2822222,-0.2819014 l 0,-1.4095069 c 0,-0.1393257 -0.1107556,-0.2819014 -0.2822222,-0.2819014 z m 0.5644444,0.5638029 1.1288889,0 c 0.1549948,0 0.2822223,0.1090621 0.2822223,0.2819013 l 1e-7,0.2819014 c 0,0.1428587 -0.1092193,0.2819013 -0.2822223,0.2819013 l -1.1288889,0 c -0.1750039,0 -0.2822223,-0.1170577 -0.2822223,-0.2819013 l -10e-8,-0.2819014 c 0,-0.156827 0.1178211,-0.2819013 0.2822223,-0.2819013 z m -0.5644444,1.9768389 0,0.5638028 2.2577779,0 0,-0.5638028 z"
     id="path4"
     inkscape:connector-curvature="0"
     style="color:#000000;fill:#353535;fill-opacity:1"
     sodipodi:nodetypes="ccccccccccccccccccccccccccc" />
  <path
     d="m 1.1288889,0.8431333 c -0.2822222,0 -0.2822222,0.2822222 -0.2822222,0.2822222 l 0,1.6933334 c 0,0 0,0.2822222 0.2822222,0.2822222 l 0.8466667,0 0,0.5581242 -0.8466667,0 0,0.5644444 1.1288889,0 0,-1.687013 -0.5644444,0 c -0.1553898,0 -0.2822222,-0.1302842 -0.2822222,-0.2822222 l 0,-0.5644445 c 0,-0.1601073 0.1262067,-0.2822222 0.2822222,-0.2822222 l 1.1288889,0 c 0.169325,0 0.2822222,0.1198318 0.2822222,0.2822222 l 0,0.2822222 0.5644445,0 0,-0.8466667 c 0,-0.2822222 -0.2822222,-0.2822222 -0.2822222,-0.2822222 z"
     id="path6"
     inkscape:connector-curvature="0"
     style="color:#000000;fill:#353535;fill-opacity:1"
     sodipodi:nodetypes="ccccccccccccccccccccc" />
</svg>
