<svg xmlns="http://www.w3.org/2000/svg" viewBox="0 0 22 22" width="22" height="22">
 <g transform="translate(3.5,0)">
  <g transform="translate(0,6)" fill="none" stroke-linecap="round">
   <path d="m 6.5,-1.5 h 2 c 2.216,0 4,1.338 4,3 v 9 c 0,1.662 -1.784,3 -4,3 h -2 c -2.216,0 -4,-1.338 -4,-3 v -9 c 0,-1.662 1.784,-3 4,-3 z m 1.0419,10e-7 v 4" opacity="0.3" stroke="#000000"/>
  </g>
  <path d="M 7.5,4.3333 V 7.6666" opacity="0.3" fill="none" stroke="#353535" stroke-linecap="round" stroke-width="2"/>
  <rect width="13.5" x="-17.75" y="3.25" rx="2.3" ry="3.3" height="8.5" transform="matrix(0,-1,1,0,0,0)" opacity="0.3" fill="none" stroke="#353535" stroke-linecap="round" stroke-width="0.5"/>
  <path d="m 6.5,3.5 h 2 c 2.216,0 4,1.338 4,3 v 9 c 0,1.662 -1.784,3 -4,3 h -2 c -2.216,0 -4,-1.338 -4,-3 v -9 c 0,-1.662 1.784,-3 4,-3 z m 1.0419,1e-6 v 4" fill="none" stroke="#353535" stroke-linecap="round"/>
  <g transform="matrix(1.2857143,0,0,1,-2.1428572,7)">
   <path d="M 5,6 C 4.446,6 4,6.446 4,7 l 0,2 c 0,1.110892 0.8073859,2 3,2 l 1,0 c 2.357305,0 3,-0.878472 3,-2 L 11,7 C 11,6.446 10.554,6 10,6 z" fill="#353535" fill-rule="evenodd"/>
  </g>
 </g>
</svg>
