<?xml version="1.0" encoding="UTF-8" standalone="no"?>
<!-- Created with Inkscape (http://www.inkscape.org/) -->

<svg
   xmlns:dc="http://purl.org/dc/elements/1.1/"
   xmlns:cc="http://creativecommons.org/ns#"
   xmlns:rdf="http://www.w3.org/1999/02/22-rdf-syntax-ns#"
   xmlns:svg="http://www.w3.org/2000/svg"
   xmlns="http://www.w3.org/2000/svg"
   xmlns:sodipodi="http://sodipodi.sourceforge.net/DTD/sodipodi-0.dtd"
   xmlns:inkscape="http://www.inkscape.org/namespaces/inkscape"
   width="22"
   height="22"
   viewBox="0 0 21.999999 21.999999"
   id="svg2"
   version="1.1"
   inkscape:version="0.91 r"
   sodipodi:docname="Zeichnung.svg">
  <defs
     id="defs4">
    <clipPath
       id="clipPath-273353313">
      <g
         transform="translate(0,-1004.3622)"
         id="g17">
        <path
           style="fill:#1890d0"
           inkscape:connector-curvature="0"
           d="m -24,13 c 0,1.105 -0.672,2 -1.5,2 -0.828,0 -1.5,-0.895 -1.5,-2 0,-1.105 0.672,-2 1.5,-2 0.828,0 1.5,0.895 1.5,2 z"
           transform="matrix(15.333333,0,0,11.5,414.99999,878.8622)"
           id="path19" />
      </g>
    </clipPath>
  </defs>
  <sodipodi:namedview
     id="base"
     pagecolor="#ffffff"
     bordercolor="#666666"
     borderopacity="1.0"
     inkscape:pageopacity="0.0"
     inkscape:pageshadow="2"
     inkscape:zoom="15.839192"
     inkscape:cx="6.0944288"
     inkscape:cy="4.9877582"
     inkscape:document-units="px"
     inkscape:current-layer="layer1"
     showgrid="false"
     units="px"
     inkscape:window-width="1366"
     inkscape:window-height="747"
     inkscape:window-x="0"
     inkscape:window-y="21"
     inkscape:window-maximized="1">
    <inkscape:grid
       type="xygrid"
       id="grid4153" />
  </sodipodi:namedview>
  <metadata
     id="metadata7">
    <rdf:RDF>
      <cc:Work
         rdf:about="">
        <dc:format>image/svg+xml</dc:format>
        <dc:type
           rdf:resource="http://purl.org/dc/dcmitype/StillImage" />
        <dc:title />
      </cc:Work>
    </rdf:RDF>
  </metadata>
  <g
     inkscape:label="Ebene 1"
     inkscape:groupmode="layer"
     id="layer1"
     transform="translate(0,-1030.3622)">
    <g
       id="g4153">
      <g
         id="g4147">
        <g
           style="fill:#353535;fill-opacity:1"
           id="g49"
           clip-path="url(#clipPath-273353313)"
           transform="matrix(-0.99641748,0,0,-0.99691891,40.865315,1062.0948)">
          <!-- color: #923165 -->
          <g
             style="fill:#353535;fill-opacity:1"
             id="g51">
            <path
               sodipodi:nodetypes="ccccccccccccccccccccccccc"
               id="path53"
               d="m 28.969099,15.215704 0,2.983517 -4.126498,2.590438 c -0.223,0.113374 -0.416404,0.335609 -0.418,0.507198 l 0,1.375401 -1.095708,0 0,3.043843 3.444,0 0,-3.043843 -1.096292,0 0,-1.054673 3.292498,-2.001084 0,7.230902 -1.992503,0 2.996098,3.729395 2.995732,-3.729395 -1.99183,0 0,-9.300901 3.200101,2.069999 0,1.400206 1.2,4.47e-4 0,-1.704334 c 0.004,-0.183487 -0.059,-0.369956 -0.258,-0.486314 l -4.145101,-2.64265 0,-0.970389"
               inkscape:connector-curvature="0"
               style="fill:#353535;fill-opacity:1;fill-rule:nonzero;stroke:none" />
          </g>
        </g>
        <path
           style="opacity:1;fill:#353535;fill-opacity:1;stroke:#353535;stroke-width:0.10405564;stroke-linecap:round;stroke-linejoin:round;stroke-miterlimit:4;stroke-dasharray:none;stroke-dashoffset:0;stroke-opacity:1"
           d="m 8.0357712,1040.1396 a 1.8229719,1.8231034 0 0 1 -1.8229719,1.8231 1.8229719,1.8231034 0 0 1 -1.822972,-1.8231 1.8229719,1.8231034 0 0 1 1.822972,-1.8231 1.8229719,1.8231034 0 0 1 1.8229719,1.8231 z"
           id="path4319"
           inkscape:connector-curvature="0" />
      </g>
      <path
         inkscape:connector-curvature="0"
         id="path4319-8"
         d="m 13.187568,1048.8622 a 2.187569,2.1875357 0 0 1 -2.187569,2.1876 2.187569,2.1875357 0 0 1 -2.1875691,-2.1876 2.187569,2.1875357 0 0 1 2.1875691,-2.1875 2.187569,2.1875357 0 0 1 2.187569,2.1875 z"
         style="opacity:1;fill:#353535;fill-opacity:1;stroke:#353535;stroke-width:0.1248615;stroke-linecap:round;stroke-linejoin:round;stroke-miterlimit:4;stroke-dasharray:none;stroke-dashoffset:0;stroke-opacity:1" />
    </g>
  </g>
</svg>
