<?xml version="1.0" encoding="UTF-8" standalone="no"?>
<svg
   xmlns:dc="http://purl.org/dc/elements/1.1/"
   xmlns:cc="http://creativecommons.org/ns#"
   xmlns:rdf="http://www.w3.org/1999/02/22-rdf-syntax-ns#"
   xmlns:svg="http://www.w3.org/2000/svg"
   xmlns="http://www.w3.org/2000/svg"
   xmlns:sodipodi="http://sodipodi.sourceforge.net/DTD/sodipodi-0.dtd"
   xmlns:inkscape="http://www.inkscape.org/namespaces/inkscape"
   width="22"
   viewBox="0 0 22 22"
   height="22"
   id="svg3868"
   version="1.1"
   inkscape:version="0.91 r"
   sodipodi:docname="screencloud-uploading.svg">
  <metadata
     id="metadata3894">
    <rdf:RDF>
      <cc:Work
         rdf:about="">
        <dc:format>image/svg+xml</dc:format>
        <dc:type
           rdf:resource="http://purl.org/dc/dcmitype/StillImage" />
      </cc:Work>
    </rdf:RDF>
  </metadata>
  <sodipodi:namedview
     pagecolor="#ffffff"
     bordercolor="#666666"
     borderopacity="1"
     objecttolerance="10"
     gridtolerance="10"
     guidetolerance="10"
     inkscape:pageopacity="0"
     inkscape:pageshadow="2"
     inkscape:window-width="1280"
     inkscape:window-height="998"
     id="namedview3892"
     showgrid="false"
     inkscape:zoom="21.454545"
     inkscape:cx="10.944451"
     inkscape:cy="7.005912"
     inkscape:window-x="0"
     inkscape:window-y="0"
     inkscape:window-maximized="1"
     inkscape:current-layer="svg3868" />
  <defs
     id="defs3870" />
  <g
     style="fill:#353535"
     id="g3882">
    <path
       d="M 8.09375 7.59375 C 5.1346536 7.59375 2.75 9.9781271 2.75 12.9375 C 2.75 13.059267 2.742008 13.192759 2.75 13.3125 C 1.7097616 13.814559 1 14.833817 1 16 C 1 17.670569 2.4473964 19 4.25 19 L 17.75 19 C 19.552604 19 21 17.670569 21 16 C 21 14.758861 20.213521 13.682406 19.0625 13.21875 C 19.09069 13.031107 19.09375 12.851751 19.09375 12.65625 C 19.09375 10.535566 17.370485 8.8125 15.25 8.8125 C 14.184926 8.8125 13.226795 9.237039 12.53125 9.9375 C 11.567217 8.5198721 9.9372351 7.59375 8.09375 7.59375 z M 5.875 9.21875 C 6.4536196 9.21875 6.9375 9.6663811 6.9375 10.21875 C 6.9375 10.771122 6.4536196 11.21875 5.875 11.21875 C 5.2963814 11.21875 4.84375 10.771122 4.84375 10.21875 C 4.84375 9.6663811 5.2963814 9.21875 5.875 9.21875 z M 10.96875 10 L 14 14.40625 L 12.15625 14.40625 L 12.15625 18 L 9.71875 18 L 9.71875 14.40625 L 8 14.40625 L 10.96875 10 z "
       id="path3884" />
    <path
       d="M 17.387025,8.7333328 16.985318,8.3533119 16.444561,8.4688203 16.681814,7.969305 16.404866,7.4906603 l 0.548338,0.071303 0.369594,-0.4113271 0.101638,0.5435833 0.50537,0.2244305 -0.485522,0.2646495 z"
       id="path3886" />
    <path
       d="m 17.831151,7.7231465 0.02137,-0.2582222 -0.200582,-0.1639963 0.252165,-0.059469 0.09397,-0.2414604 0.134476,0.2214686 0.25866,0.014765 -0.169054,0.1963437 0.06589,0.2505861 -0.238957,-0.1001216 z"
       id="path3888" />
    <path
       d="m 18.072102,9.2255087 -0.04862,-0.39244 -0.350814,-0.182427 0.358175,-0.1675125 0.06507,-0.3900486 0.269981,0.2889116 0.391032,-0.058636 -0.191317,0.3460698 0.176597,0.3538093 -0.388221,-0.075029 z"
       id="path3890" />
  </g>
</svg>
