<?xml version="1.0" encoding="UTF-8" standalone="no"?>
<svg
   xmlns:dc="http://purl.org/dc/elements/1.1/"
   xmlns:cc="http://creativecommons.org/ns#"
   xmlns:rdf="http://www.w3.org/1999/02/22-rdf-syntax-ns#"
   xmlns:svg="http://www.w3.org/2000/svg"
   xmlns="http://www.w3.org/2000/svg"
   xmlns:sodipodi="http://sodipodi.sourceforge.net/DTD/sodipodi-0.dtd"
   xmlns:inkscape="http://www.inkscape.org/namespaces/inkscape"
   width="22"
   viewBox="0 0 22 22"
   height="22"
   id="svg2"
   version="1.1"
   inkscape:version="0.48.4 r9939"
   sodipodi:docname="touchpad-indicator.svg">
  <metadata
     id="metadata14">
    <rdf:RDF>
      <cc:Work
         rdf:about="">
        <dc:format>image/svg+xml</dc:format>
        <dc:type
           rdf:resource="http://purl.org/dc/dcmitype/StillImage" />
        <dc:title></dc:title>
      </cc:Work>
    </rdf:RDF>
  </metadata>
  <defs
     id="defs12" />
  <sodipodi:namedview
     pagecolor="#ffffff"
     bordercolor="#666666"
     borderopacity="1"
     objecttolerance="10"
     gridtolerance="10"
     guidetolerance="10"
     inkscape:pageopacity="0"
     inkscape:pageshadow="2"
     inkscape:window-width="1301"
     inkscape:window-height="744"
     id="namedview10"
     showgrid="false"
     inkscape:zoom="15.326826"
     inkscape:cx="11.11283"
     inkscape:cy="12.562274"
     inkscape:window-x="65"
     inkscape:window-y="24"
     inkscape:window-maximized="1"
     inkscape:current-layer="svg2" />
  <g
     transform="matrix(0.99966826,0,0,0.99950852,-37.982168,-757.62428)"
     id="g3787"
     style="fill:#000000;fill-opacity:1;stroke:none;stroke-opacity:1;opacity:0.3">
    <path
       d="m 45,764 h 1 c 0.01037,-1.2e-4 0.02079,-4.6e-4 0.03125,0 0.25495,0.0112 0.50987,0.12858 0.6875,0.3125 l 2.281,2.28 2.312,-2.28 c 0.266,-0.23 0.447,-0.3 0.688,-0.31 h 1 v 1 c 0,0.28647 -0.03434,0.55065 -0.25,0.75 l -2.2812,2.2812 2.25,2.25 c 0.188,0.19 0.281,0.45 0.281,0.72 v 1 h -1 c -0.2653,-10e-6 -0.53059,-0.0931 -0.71875,-0.28125 l -2.281,-2.28 -2.281,2.28 c -0.188,0.19 -0.454,0.28 -0.719,0.28 h -1 v -1 c -3e-6,-0.26529 0.09306,-0.53058 0.28125,-0.71875 l 2.2812,-2.25 -2.281,-2.28 c -0.21,-0.19 -0.303,-0.47 -0.281,-0.75 v -1 z"
       style="text-indent:0;text-transform:none;block-progression:tb;color:#bebebe;fill:#000000;fill-opacity:1;enable-background:new;stroke:none;stroke-opacity:1"
       id="path3789"
       inkscape:connector-curvature="0" />
  </g>
  <rect
     ry="2"
     rx="2"
     y="4.5"
     x="3.5"
     height="15"
     width="15"
     id="rect3767"
     style="fill:none;stroke:#000000;stroke-opacity:1;opacity:0.3" />
  <rect
     style="fill:none;stroke:#353535;stroke-opacity:1"
     id="rect2993"
     width="15"
     height="15"
     x="3.5"
     y="3.5"
     rx="2"
     ry="2" />
  <rect
     style="fill:#353535;fill-opacity:1;stroke:none"
     id="rect3763"
     width="16"
     height="1"
     x="3"
     y="14" />
  <rect
     y="-12"
     x="14"
     height="2"
     width="5"
     id="rect3765"
     style="fill:#353535;fill-opacity:1;stroke:none"
     transform="matrix(0,1,-1,0,0,0)" />
  <g
     style="fill:#ef555c;fill-opacity:1"
     id="layer4-4-1"
     transform="matrix(0.99966826,0,0,0.99950852,-37.982168,-758.62428)">
    <path
       inkscape:connector-curvature="0"
       id="path10839-9"
       style="text-indent:0;text-transform:none;block-progression:tb;color:#bebebe;fill:#ef555c;fill-opacity:1;enable-background:new"
       d="m 45,764 h 1 c 0.01037,-1.2e-4 0.02079,-4.6e-4 0.03125,0 0.25495,0.0112 0.50987,0.12858 0.6875,0.3125 l 2.281,2.28 2.312,-2.28 c 0.266,-0.23 0.447,-0.3 0.688,-0.31 h 1 v 1 c 0,0.28647 -0.03434,0.55065 -0.25,0.75 l -2.2812,2.2812 2.25,2.25 c 0.188,0.19 0.281,0.45 0.281,0.72 v 1 h -1 c -0.2653,-10e-6 -0.53059,-0.0931 -0.71875,-0.28125 l -2.281,-2.28 -2.281,2.28 c -0.188,0.19 -0.454,0.28 -0.719,0.28 h -1 v -1 c -3e-6,-0.26529 0.09306,-0.53058 0.28125,-0.71875 l 2.2812,-2.25 -2.281,-2.28 c -0.21,-0.19 -0.303,-0.47 -0.281,-0.75 v -1 z" />
  </g>
</svg>
