<svg version="1.1" viewBox="0 0 48 48" xmlns="http://www.w3.org/2000/svg">
 <g transform="matrix(2.22 0 0 2.25 -.444 -.75)" style="fill:#ececec">
  <path d="m8 3c-1.66 0-3 1.34-3 3v5.01c0 1.66 1.34 3 3 3s3-1.34 3-3v-5.01c0-1.66-1.34-3-3-3zm9.86 0.00434a2 2 0 0 0-1.86 2 2 2 0 0 0 4 0 2 2 0 0 0-2.14-2zm0 6a2 2 0 0 0-1.86 2 2 2 0 0 0 4 0 2 2 0 0 0-2.14-2zm-15.9 2c0 2.98 2.16 5.43 5 5.91v1.09h-1v1h4v-1h-0.999v-1.09c2.84-0.473 5-2.93 5-5.91h-2c0 2.21-1.79 4-4 4s-4-1.79-4-4h-2zm15.9 4a2 2 0 0 0-1.86 2 2 2 0 0 0 4 0 2 2 0 0 0-2.14-2z"/>
 </g>
</svg>
