<svg version="1.1" viewBox="0 0 48 48" xmlns="http://www.w3.org/2000/svg">
 <path d="m17.3 6c-3.68 0-6.67 3.02-6.67 6.75v11.3c0 3.73 2.98 6.75 6.67 6.75 3.68 0 6.67-3.02 6.67-6.75v-11.3c0-3.73-2.98-6.75-6.67-6.75zm-13.3 18c0 6.7 4.8 12.2 11.1 13.3v2.46h-2.22v2.25h8.89v-2.25h-2.22v-2.46c6.31-1.06 11.1-6.6 11.1-13.3h-4.44c0 4.97-3.98 9-8.89 9s-8.89-4.03-8.89-9h-4.44zm35.3 9.01a4.44 4.5 0 0 0-4.14 4.49 4.44 4.5 0 0 0 8.89 0 4.44 4.5 0 0 0-4.75-4.49z" style="fill:#ececec"/>
 <path d="m39.3 6.01a4.44 4.5 0 0 0-4.14 4.49 4.44 4.5 0 0 0 8.89 0 4.44 4.5 0 0 0-4.75-4.49zm0 13.5a4.44 4.5 0 0 0-4.14 4.49 4.44 4.5 0 0 0 8.89 0 4.44 4.5 0 0 0-4.75-4.49z" style="fill:#ececec;opacity:.3"/>
</svg>
