<?xml version="1.0" encoding="UTF-8" standalone="no"?>
<svg
   xmlns:dc="http://purl.org/dc/elements/1.1/"
   xmlns:cc="http://creativecommons.org/ns#"
   xmlns:rdf="http://www.w3.org/1999/02/22-rdf-syntax-ns#"
   xmlns:svg="http://www.w3.org/2000/svg"
   xmlns="http://www.w3.org/2000/svg"
   xmlns:sodipodi="http://sodipodi.sourceforge.net/DTD/sodipodi-0.dtd"
   xmlns:inkscape="http://www.inkscape.org/namespaces/inkscape"
   width="24"
   height="24"
   viewBox="0 0 24 24"
   id="svg2"
   version="1.1"
   inkscape:version="0.48.5 r10040"
   sodipodi:docname="audio-output-none-panel.svg">
  <metadata
     id="metadata79">
    <rdf:RDF>
      <cc:Work
         rdf:about="">
        <dc:format>image/svg+xml</dc:format>
        <dc:type
           rdf:resource="http://purl.org/dc/dcmitype/StillImage" />
      </cc:Work>
    </rdf:RDF>
  </metadata>
  <sodipodi:namedview
     pagecolor="#ffffff"
     bordercolor="#666666"
     borderopacity="1"
     objecttolerance="10"
     gridtolerance="10"
     guidetolerance="10"
     inkscape:pageopacity="0"
     inkscape:pageshadow="2"
     inkscape:window-width="1280"
     inkscape:window-height="970"
     id="namedview77"
     showgrid="true"
     inkscape:zoom="27.812867"
     inkscape:cx="14.62042"
     inkscape:cy="12.734135"
     inkscape:window-x="0"
     inkscape:window-y="0"
     inkscape:window-maximized="1"
     inkscape:current-layer="svg2">
    <inkscape:grid
       type="xygrid"
       id="grid3087" />
  </sodipodi:namedview>
  <defs
     id="defs4">
    <clipPath
       id="clip3">
      <rect
         width="24"
         height="24"
         id="rect7" />
    </clipPath>
    <clipPath
       id="clip1">
      <rect
         width="24"
         height="24"
         id="rect10" />
    </clipPath>
    <clipPath
       id="clip2">
      <rect
         width="24"
         height="24"
         id="rect13" />
    </clipPath>
    <clipPath
       id="clip4">
      <rect
         width="24"
         height="24"
         id="rect16" />
    </clipPath>
    <filter
       width="100%"
       x="0"
       y="0"
       height="100%"
       filterUnits="objectBoundingBox"
       id="alpha">
      <feColorMatrix
         values="0 0 0 0 1 0 0 0 0 1 0 0 0 0 1 0 0 0 1 0"
         in="SourceGraphic"
         type="matrix"
         id="feColorMatrix19" />
    </filter>
    <g
       style="clip-path:url(#clip3)"
       id="surface12"
       clip-path="url(#clip3)">
      <path
         style="fill:#000;stroke:#000;stroke-width:.332"
         d="M 16.449219 11.730469 L 18.777344 11.730469 C 18.871094 11.730469 18.945312 11.802083 18.945312 11.895182 L 18.945312 12.224609 C 18.945312 12.317708 18.871094 12.392904 18.777344 12.392904 L 16.449219 12.392904 C 16.355469 12.392904 16.28125 12.317708 16.28125 12.224609 L 16.28125 11.895182 C 16.28125 11.802083 16.355469 11.730469 16.449219 11.730469 Z "
         transform="scale(1 1.09091)"
         id="path22" />
    </g>
    <g
       style="clip-path:url(#clip2)"
       id="surface9"
       clip-path="url(#clip2)">
      <path
         style="fill:#000;stroke:#000;stroke-width:.332"
         d="M 12.449219 11.730469 L 14.777344 11.730469 C 14.871094 11.730469 14.945312 11.802083 14.945312 11.895182 L 14.945312 12.224609 C 14.945312 12.317708 14.871094 12.392904 14.777344 12.392904 L 12.449219 12.392904 C 12.355469 12.392904 12.28125 12.317708 12.28125 12.224609 L 12.28125 11.895182 C 12.28125 11.802083 12.355469 11.730469 12.449219 11.730469 Z "
         transform="scale(1 1.09091)"
         id="path25" />
    </g>
    <g
       style="clip-path:url(#clip4)"
       id="surface15"
       clip-path="url(#clip4)">
      <path
         style="fill:#000;stroke:#000;stroke-width:.332"
         d="M 20.449219 11.730469 L 22.777344 11.730469 C 22.871094 11.730469 22.945312 11.802083 22.945312 11.895182 L 22.945312 12.224609 C 22.945312 12.317708 22.871094 12.392904 22.777344 12.392904 L 20.449219 12.392904 C 20.355469 12.392904 20.28125 12.317708 20.28125 12.224609 L 20.28125 11.895182 C 20.28125 11.802083 20.355469 11.730469 20.449219 11.730469 Z "
         transform="scale(1 1.09091)"
         id="path28" />
    </g>
    <g
       style="clip-path:url(#clip1)"
       id="surface6"
       clip-path="url(#clip1)">
      <path
         style="fill:#000;stroke:#000;stroke-width:.674"
         d="M 3.856491 1022.748881 L 6.245567 1022.748881 C 6.859581 1022.748881 7.350793 1023.245318 7.350793 1023.8532 L 7.350793 1032.870117 C 7.350793 1033.477999 6.859581 1033.974436 6.245567 1033.974436 L 3.856491 1033.974436 C 3.242476 1033.974436 2.751265 1033.477999 2.751265 1032.870117 L 2.751265 1023.8532 C 2.751265 1023.245318 3.242476 1022.748881 3.856491 1022.748881 Z "
         transform="matrix(.3499 0 0 .38556 2.59202 -383.52637)"
         id="path31" />
      <path
         style="fill:#000;stroke:#000;stroke-linejoin:round;stroke-linecap:round;stroke-width:.491"
         d="M 6.893073 1023.26558 L 20.513036 1011.4828 L 20.513036 1026.426567 L 22.176458 1028.847964 L 20.513036 1030.661479 L 20.513036 1045.240516 L 6.837254 1033.862991 Z "
         transform="matrix(.3499 0 0 .38556 2.59202 -383.52637)"
         id="path33" />
    </g>
    <mask
       id="mask0">
      <g
         style="filter:url(#alpha)"
         id="g36">
        <rect
           width="24"
           x="0"
           y="0"
           height="24"
           style="fill:#000;fill-opacity:.302"
           id="rect38" />
      </g>
    </mask>
    <mask
       id="mask3">
      <g
         style="filter:url(#alpha)"
         id="g41">
        <rect
           width="24"
           x="0"
           y="0"
           height="24"
           style="fill:#000;fill-opacity:.302"
           id="rect43" />
      </g>
    </mask>
    <mask
       id="mask1">
      <g
         style="filter:url(#alpha)"
         id="g46">
        <rect
           width="24"
           x="0"
           y="0"
           height="24"
           style="fill:#000;fill-opacity:.302"
           id="rect48" />
      </g>
    </mask>
    <mask
       id="mask2">
      <g
         style="filter:url(#alpha)"
         id="g51">
        <rect
           width="24"
           x="0"
           y="0"
           height="24"
           style="fill:#000;fill-opacity:.302"
           id="rect53" />
      </g>
    </mask>
  </defs>
  <g
     id="g3091"
     transform="matrix(1.0001112,0,0,1,0.9991101,1)">
    <g
       id="g3105"
       transform="translate(0,1)"
       style="opacity:0.3;fill:#000000;fill-opacity:1">
      <path
         sodipodi:nodetypes="cccccccc"
         style="fill:#000000;fill-opacity:1"
         inkscape:connector-curvature="0"
         id="path3107"
         d="M 6.0010672,5 3,8 l 0,6 3.0010672,3 0,-4 L 8,11 6.0010672,9 z" />
      <path
         sodipodi:nodetypes="ssssccs"
         style="fill:#000000;fill-opacity:1"
         inkscape:connector-curvature="0"
         id="path3109"
         d="M 1,8 C 0.4769561,8 8.898e-4,8.4981434 8.898e-4,9 l 0,4 c 0,0.579702 0.432648,1 0.9991102,1 l 3.9964407,0 0,-6 z" />
    </g>
    <g
       id="g3101">
      <path
         d="M 6.0010672,5 3,8 l 0,6 3.0010672,3 0,-4 L 8,11 6.0010672,9 z"
         id="path40"
         inkscape:connector-curvature="0"
         style="fill:#dcdcdc"
         sodipodi:nodetypes="cccccccc" />
      <path
         d="M 1,8 C 0.4769561,8 8.898e-4,8.4981434 8.898e-4,9 l 0,4 c 0,0.579702 0.432648,1 0.9991102,1 l 3.9964407,0 0,-6 z"
         id="path42"
         inkscape:connector-curvature="0"
         style="fill:#dcdcdc"
         sodipodi:nodetypes="ssssccs" />
    </g>
  </g>
  <rect
     style="opacity:0.3"
     ry="0.20999999"
     rx="0.255"
     y="12"
     x="9"
     height="2"
     width="4"
     id="rect3029" />
  <rect
     style="fill:#dcdcdc"
     width="4"
     height="2"
     x="9"
     y="11"
     rx="0.255"
     ry="0.20999999"
     id="rect3031" />
  <rect
     style="opacity:0.3"
     width="4"
     height="2"
     x="14"
     y="12"
     rx="0.255"
     ry="0.20999999"
     id="rect3033" />
  <rect
     style="fill:#dcdcdc"
     ry="0.20999999"
     rx="0.255"
     y="11"
     x="14"
     height="2"
     width="4"
     id="rect3035" />
  <rect
     style="opacity:0.3"
     ry="0.20999999"
     rx="0.255"
     y="12"
     x="19"
     height="2"
     width="4"
     id="rect3037" />
  <rect
     style="fill:#dcdcdc"
     width="4"
     height="2"
     x="19"
     y="11"
     rx="0.255"
     ry="0.20999999"
     id="rect3039" />
</svg>
