<?xml version="1.0" encoding="UTF-8" standalone="no"?>
<svg
   xmlns:dc="http://purl.org/dc/elements/1.1/"
   xmlns:cc="http://creativecommons.org/ns#"
   xmlns:rdf="http://www.w3.org/1999/02/22-rdf-syntax-ns#"
   xmlns:svg="http://www.w3.org/2000/svg"
   xmlns="http://www.w3.org/2000/svg"
   xmlns:sodipodi="http://sodipodi.sourceforge.net/DTD/sodipodi-0.dtd"
   xmlns:inkscape="http://www.inkscape.org/namespaces/inkscape"
   width="24"
   height="24"
   viewBox="0 0 24 24"
   id="svg3105"
   version="1.1"
   inkscape:version="0.91 r"
   sodipodi:docname="avatar-default.svg">
  <metadata
     id="metadata3129">
    <rdf:RDF>
      <cc:Work
         rdf:about="">
        <dc:format>image/svg+xml</dc:format>
        <dc:type
           rdf:resource="http://purl.org/dc/dcmitype/StillImage" />
      </cc:Work>
    </rdf:RDF>
  </metadata>
  <sodipodi:namedview
     pagecolor="#ffffff"
     bordercolor="#666666"
     borderopacity="1"
     objecttolerance="10"
     gridtolerance="10"
     guidetolerance="10"
     inkscape:pageopacity="0"
     inkscape:pageshadow="2"
     inkscape:window-width="1366"
     inkscape:window-height="747"
     id="namedview3127"
     showgrid="false"
     inkscape:zoom="19.666667"
     inkscape:cx="-3.6042264"
     inkscape:cy="7.2005173"
     inkscape:window-x="0"
     inkscape:window-y="21"
     inkscape:window-maximized="1"
     inkscape:current-layer="svg3105" />
  <defs
     id="defs3107">
    <clipPath
       id="clip1">
      <rect
         width="24"
         height="24"
         id="rect3110" />
    </clipPath>
    <filter
       width="100%"
       x="0"
       y="0"
       height="100%"
       filterUnits="objectBoundingBox"
       id="alpha">
      <feColorMatrix
         values="0 0 0 0 1 0 0 0 0 1 0 0 0 0 1 0 0 0 1 0"
         in="SourceGraphic"
         type="matrix"
         id="feColorMatrix3113" />
    </filter>
    <g
       style="clip-path:url(#clip1)"
       id="surface7"
       clip-path="url(#clip1)">
      <path
         style="fill:#000"
         d="M 10.902344 5.453125 L 13.097656 5.453125 C 16.386719 5.453125 16.320312 8.796875 16.320312 8.796875 L 16.320312 11.660156 C 16.320312 12.75 14.398438 15 14.398438 15 L 14.398438 16.433594 L 18.71875 18.816406 L 18.71875 20.726562 L 5.28125 20.726562 L 5.28125 18.816406 L 9.601562 16.433594 L 9.601562 15 C 9.601562 15 7.671875 12.75 7.679688 11.660156 L 7.679688 8.796875 C 7.679688 8.796875 7.613281 5.453125 10.902344 5.453125 Z "
         id="path3116" />
    </g>
    <mask
       id="mask0">
      <g
         style="filter:url(#alpha)"
         id="g3119">
        <rect
           width="24"
           x="0"
           y="0"
           height="24"
           style="fill:#000;fill-opacity:.302"
           id="rect3121" />
      </g>
    </mask>
  </defs>
  <path
     style="fill:#ececec;fill-opacity:1"
     d="m 10.995062,5 2.012743,0 c 3.015535,0 2.954651,3.0613812 2.954651,3.0613812 l 0,2.6245518 c 0,1.002558 -1.762046,3.064962 -1.762046,3.064962 l 0,1.310486 3.961022,2.187723 0,1.750896 -12.3199995,0 0,-1.750896 3.961023,-2.187723 0,-1.310486 c 0,0 -1.7692089,-2.062404 -1.7620456,-3.064962 l 0,-2.6245518 C 8.0404099,8.0613812 7.9795257,5 10.995062,5 Z"
     id="path3125"
     inkscape:connector-curvature="0" />
</svg>
