<svg width="24" xmlns="http://www.w3.org/2000/svg" height="24" viewBox="0 0 24 24" xmlns:xlink="http://www.w3.org/1999/xlink">
<path style="stroke-opacity:.302;fill:none;stroke:#000;stroke-linecap:round" d="M 12.500326 12.501628 L 12.500326 0.499023 C 12.500326 -0.0524089 12.944336 -0.5 13.499349 -0.5 L 18.501628 -0.5 C 19.05306 -0.5 19.500651 -0.0524089 19.500651 0.499023 L 19.500651 12.501628 C 19.500651 13.05306 19.05306 13.500651 18.501628 13.500651 L 13.499349 13.500651 C 12.944336 13.500651 12.500326 13.05306 12.500326 12.501628 Z M 14.501953 -0.618164 C 14.501953 -0.947591 14.505534 -1.273438 14.505534 -1.602865 C 14.544922 -2.200846 15.153646 -2.580404 15.71582 -2.498047 C 16.249349 -2.476562 16.89388 -2.623372 17.273438 -2.136393 C 17.624349 -1.699544 17.463216 -1.115885 17.499023 -0.60026 " transform="matrix(1.09091 0 0 1.09091 0 6.54545)"/>
<path style="fill:#000;fill-rule:evenodd;fill-opacity:.302" d="M 3.273438 5.453125 C 2.667969 5.453125 2.183594 5.941406 2.183594 6.546875 L 2.183594 20.726562 C 2.183594 21.332031 2.667969 21.816406 3.273438 21.816406 L 8.726562 21.816406 C 9.332031 21.816406 9.816406 21.332031 9.816406 20.726562 L 9.816406 6.546875 C 9.816406 5.941406 9.332031 5.453125 8.726562 5.453125 Z M 3.273438 8.726562 L 4.363281 8.726562 L 4.363281 9.816406 L 3.273438 9.816406 Z M 5.453125 8.726562 L 6.546875 8.726562 L 6.546875 9.816406 L 5.453125 9.816406 Z M 7.636719 9.816406 L 8.726562 9.816406 L 8.726562 17.453125 L 7.636719 17.453125 Z M 3.273438 10.910156 L 4.363281 10.910156 L 4.363281 12 L 3.273438 12 Z M 5.453125 10.910156 L 6.546875 10.910156 L 6.546875 12 L 5.453125 12 Z M 3.273438 13.089844 L 4.363281 13.089844 L 4.363281 14.183594 L 3.273438 14.183594 Z M 5.453125 13.089844 L 6.546875 13.089844 L 6.546875 14.183594 L 5.453125 14.183594 Z M 3.273438 15.273438 L 4.363281 15.273438 L 4.363281 16.363281 L 3.273438 16.363281 Z M 5.453125 15.273438 L 6.546875 15.273438 L 6.546875 16.363281 L 5.453125 16.363281 Z M 3.273438 17.453125 L 4.363281 17.453125 L 4.363281 18.546875 L 3.273438 18.546875 Z M 5.453125 17.453125 L 6.546875 17.453125 L 6.546875 18.546875 L 5.453125 18.546875 Z "/>
<g style="stroke-linecap:round;fill:none;stroke:#de372c">
<path style="stroke-opacity:.302;stroke-width:.5" d="M -11.499023 13.248698 L 0.5 13.248698 C 0.639648 13.248698 0.750651 13.363281 0.750651 13.499349 L 0.750651 18.501628 C 0.750651 18.637695 0.639648 18.748698 0.5 18.748698 L -11.499023 18.748698 C -11.638672 18.748698 -11.749674 18.637695 -11.749674 18.501628 L -11.749674 13.499349 C -11.749674 13.363281 -11.638672 13.248698 -11.499023 13.248698 Z " transform="matrix(0 -1.09091 1.09091 0 0 6.54545)"/>
<path d="M 12.500326 11.499023 L 12.500326 -0.5 C 12.500326 -1.055013 12.944336 -1.499023 13.499349 -1.499023 L 18.501628 -1.499023 C 19.05306 -1.499023 19.500651 -1.055013 19.500651 -0.5 L 19.500651 11.499023 C 19.500651 12.054036 19.05306 12.501628 18.501628 12.501628 L 13.499349 12.501628 C 12.944336 12.501628 12.500326 12.054036 12.500326 11.499023 Z M 14.501953 -1.617188 C 14.501953 -1.946615 14.505534 -2.272461 14.505534 -2.601888 C 14.544922 -3.19987 15.153646 -3.579427 15.71582 -3.500651 C 16.249349 -3.475586 16.89388 -3.622396 17.273438 -3.135417 C 17.624349 -2.698568 17.463216 -2.114909 17.499023 -1.599284 " transform="matrix(1.09091 0 0 1.09091 0 6.54545)"/>
</g>
<path style="fill:#dcdcdc;fill-rule:evenodd" d="M 3.273438 4.363281 C 2.667969 4.363281 2.183594 4.851562 2.183594 5.453125 L 2.183594 19.636719 C 2.183594 20.242188 2.667969 20.726562 3.273438 20.726562 L 8.726562 20.726562 C 9.332031 20.726562 9.816406 20.242188 9.816406 19.636719 L 9.816406 5.453125 C 9.816406 4.851562 9.332031 4.363281 8.726562 4.363281 Z M 3.273438 7.636719 L 4.363281 7.636719 L 4.363281 8.726562 L 3.273438 8.726562 Z M 5.453125 7.636719 L 6.546875 7.636719 L 6.546875 8.726562 L 5.453125 8.726562 Z M 7.636719 8.726562 L 8.726562 8.726562 L 8.726562 16.363281 L 7.636719 16.363281 Z M 3.273438 9.816406 L 4.363281 9.816406 L 4.363281 10.910156 L 3.273438 10.910156 Z M 5.453125 9.816406 L 6.546875 9.816406 L 6.546875 10.910156 L 5.453125 10.910156 Z M 3.273438 12 L 4.363281 12 L 4.363281 13.089844 L 3.273438 13.089844 Z M 5.453125 12 L 6.546875 12 L 6.546875 13.089844 L 5.453125 13.089844 Z M 3.273438 14.183594 L 4.363281 14.183594 L 4.363281 15.273438 L 3.273438 15.273438 Z M 5.453125 14.183594 L 6.546875 14.183594 L 6.546875 15.273438 L 5.453125 15.273438 Z M 3.273438 16.363281 L 4.363281 16.363281 L 4.363281 17.453125 L 3.273438 17.453125 Z M 5.453125 16.363281 L 6.546875 16.363281 L 6.546875 17.453125 L 5.453125 17.453125 Z "/>
</svg>
