<?xml version="1.0" encoding="UTF-8" standalone="no"?>
<svg
   xmlns:dc="http://purl.org/dc/elements/1.1/"
   xmlns:cc="http://creativecommons.org/ns#"
   xmlns:rdf="http://www.w3.org/1999/02/22-rdf-syntax-ns#"
   xmlns:svg="http://www.w3.org/2000/svg"
   xmlns="http://www.w3.org/2000/svg"
   xmlns:sodipodi="http://sodipodi.sourceforge.net/DTD/sodipodi-0.dtd"
   xmlns:inkscape="http://www.inkscape.org/namespaces/inkscape"
   width="24"
   height="24"
   viewBox="0 0 24 24"
   id="svg2"
   version="1.1"
   inkscape:version="0.48.5 r10040"
   sodipodi:docname="network-receive.svg">
  <metadata
     id="metadata32">
    <rdf:RDF>
      <cc:Work
         rdf:about="">
        <dc:format>image/svg+xml</dc:format>
        <dc:type
           rdf:resource="http://purl.org/dc/dcmitype/StillImage" />
      </cc:Work>
    </rdf:RDF>
  </metadata>
  <sodipodi:namedview
     pagecolor="#ffffff"
     bordercolor="#666666"
     borderopacity="1"
     objecttolerance="10"
     gridtolerance="10"
     guidetolerance="10"
     inkscape:pageopacity="0"
     inkscape:pageshadow="2"
     inkscape:window-width="1280"
     inkscape:window-height="970"
     id="namedview30"
     showgrid="true"
     inkscape:zoom="27.812867"
     inkscape:cx="12.030002"
     inkscape:cy="12.695647"
     inkscape:window-x="0"
     inkscape:window-y="0"
     inkscape:window-maximized="1"
     inkscape:current-layer="svg2">
    <inkscape:grid
       type="xygrid"
       id="grid3883" />
  </sodipodi:namedview>
  <defs
     id="defs4">
    <clipPath
       id="clip1">
      <rect
         width="24"
         height="24"
         id="rect7" />
    </clipPath>
    <filter
       width="100%"
       x="0"
       y="0"
       height="100%"
       filterUnits="objectBoundingBox"
       id="alpha">
      <feColorMatrix
         values="0 0 0 0 1 0 0 0 0 1 0 0 0 0 1 0 0 0 1 0"
         in="SourceGraphic"
         type="matrix"
         id="feColorMatrix10" />
    </filter>
    <g
       style="clip-path:url(#clip1)"
       id="surface6"
       clip-path="url(#clip1)">
      <path
         style="fill:#000;fill-rule:evenodd;fill-opacity:.302"
         d="M 13.089844 9.816406 L 7.636719 4.363281 L 2.183594 9.816406 L 5.453125 9.816406 L 5.453125 17.453125 L 9.816406 17.453125 L 9.816406 9.816406 Z "
         id="path13" />
      <path
         style="fill:#dcdcdc;fill-rule:evenodd"
         d="M 13.089844 8.726562 L 7.636719 3.273438 L 2.183594 8.726562 L 5.453125 8.726562 L 5.453125 16.363281 L 9.816406 16.363281 L 9.816406 8.726562 Z "
         id="path15" />
    </g>
    <mask
       id="mask0">
      <g
         style="filter:url(#alpha)"
         id="g18">
        <rect
           width="24"
           x="0"
           y="0"
           height="24"
           style="fill:#000;fill-opacity:.4"
           id="rect20" />
      </g>
    </mask>
  </defs>
  <path
     sodipodi:nodetypes="cccccccc"
     inkscape:connector-curvature="0"
     id="path3033"
     d="m 11,15 5.5,5.5 5.5,-5.5 -3,0 0,-8 -5,0 0,8 z"
     style="fill:#000000;fill-opacity:0.30199998;fill-rule:evenodd" />
  <path
     sodipodi:nodetypes="cccccccc"
     inkscape:connector-curvature="0"
     id="path3035"
     d="m 11,14 5.5,5.5 5.5,-5.5 -3,0 0,-8 -5,0 0,8 z"
     style="fill:#dcdcdc;fill-rule:evenodd" />
  <path
     sodipodi:nodetypes="cccccccc"
     inkscape:connector-curvature="0"
     id="path3033-1"
     d="M 13,10 7.5,4.5 2,10 l 3,0 0,8 5,0 0,-8 z"
     style="opacity:0.12000002;fill:#000000;fill-opacity:1;fill-rule:evenodd" />
  <path
     sodipodi:nodetypes="cccccccc"
     inkscape:connector-curvature="0"
     id="path3035-7"
     d="M 13,9 7.5,3.5 2,9 l 3,0 0,8 5,0 0,-8 z"
     style="opacity:0.4;fill:#dcdcdc;fill-rule:evenodd" />
</svg>
