<?xml version="1.0" encoding="UTF-8" standalone="no"?>
<svg
   xmlns:dc="http://purl.org/dc/elements/1.1/"
   xmlns:cc="http://creativecommons.org/ns#"
   xmlns:rdf="http://www.w3.org/1999/02/22-rdf-syntax-ns#"
   xmlns:svg="http://www.w3.org/2000/svg"
   xmlns="http://www.w3.org/2000/svg"
   xmlns:sodipodi="http://sodipodi.sourceforge.net/DTD/sodipodi-0.dtd"
   xmlns:inkscape="http://www.inkscape.org/namespaces/inkscape"
   width="24"
   height="24"
   viewBox="0 0 24 24"
   id="svg2"
   version="1.1"
   inkscape:version="0.48.5 r10040"
   sodipodi:docname="nm-adhoc.svg">
  <metadata
     id="metadata16">
    <rdf:RDF>
      <cc:Work
         rdf:about="">
        <dc:format>image/svg+xml</dc:format>
        <dc:type
           rdf:resource="http://purl.org/dc/dcmitype/StillImage" />
      </cc:Work>
    </rdf:RDF>
  </metadata>
  <defs
     id="defs14" />
  <sodipodi:namedview
     pagecolor="#ffffff"
     bordercolor="#666666"
     borderopacity="1"
     objecttolerance="10"
     gridtolerance="10"
     guidetolerance="10"
     inkscape:pageopacity="0"
     inkscape:pageshadow="2"
     inkscape:window-width="1280"
     inkscape:window-height="998"
     id="namedview12"
     showgrid="false"
     inkscape:zoom="27.812867"
     inkscape:cx="9.6636474"
     inkscape:cy="4.5107125"
     inkscape:window-x="0"
     inkscape:window-y="0"
     inkscape:window-maximized="1"
     inkscape:current-layer="svg2" />
  <path
     style="fill:#ececec;fill-opacity:1"
     d="M 3.601562 3.273438 C 2.933594 3.273438 2.398438 3.804688 2.398438 4.464844 L 2.398438 15.171875 C 2.398438 15.832031 2.933594 16.363281 3.601562 16.363281 L 20.398438 16.363281 C 21.066406 16.363281 21.601562 15.832031 21.601562 15.171875 L 21.601562 4.464844 C 21.601562 3.808594 21.066406 3.273438 20.398438 3.273438 Z M 4.800781 5.453125 L 19.199219 5.453125 L 19.199219 14.183594 L 4.800781 14.183594 Z M 8.398438 17.453125 L 8.398438 18.546875 L 6 18.546875 L 6 20.726562 L 18 20.726562 L 18 18.546875 L 15.601562 18.546875 L 15.601562 17.453125 Z "
     id="path8" />
  <path
     style="font-size:medium;font-style:normal;font-variant:normal;font-weight:normal;font-stretch:normal;text-indent:0;text-align:start;text-decoration:none;line-height:normal;letter-spacing:normal;word-spacing:normal;text-transform:none;direction:ltr;block-progression:tb;writing-mode:lr-tb;text-anchor:start;baseline-shift:baseline;color:#000000;fill:#ececec;fill-opacity:1;stroke:none;stroke-width:1;marker:none;visibility:visible;display:inline;overflow:visible;enable-background:accumulate;font-family:Sans;-inkscape-font-specification:Sans"
     d="M 12,7.090915 C 10.085795,7.0661355 8.754214,7.5077667 7.9125,7.9772794 7.070786,8.4467921 6.675,9.0000075 6.675,9.0000075 a 0.60006,0.54550955 0 1 0 1.0125,0.5795459 c 0,0 0.2090968,-0.3173468 0.8625,-0.6818187 0.6534032,-0.364472 1.743111,-0.7380055 3.45,-0.7159097 1.714438,0.022193 2.791763,0.3931508 3.45,0.7500006 0.658237,0.3568499 0.8625,0.6477278 0.8625,0.6477278 a 0.60006,0.54550955 0 1 0 0.975,-0.6136368 c 0,0 -0.40062,-0.5008489 -1.2375,-0.9545463 C 15.21312,7.557673 13.906656,7.1155962 12,7.090915 z m 0,2.18182 c -1.299545,0 -2.1857308,0.3118677 -2.7375,0.6477278 C 8.7107308,10.256323 8.475,10.670463 8.475,10.670463 a 0.60006,0.54550955 0 1 0 1.05,0.477274 c 0,0 0.065832,-0.129894 0.4125,-0.34091 0.346668,-0.211016 0.963607,-0.443182 2.0625,-0.443182 1.094952,0 1.716016,0.258084 2.0625,0.477273 0.346484,0.21919 0.375,0.34091 0.375,0.34091 a 0.60379658,0.54890644 0 1 0 1.0875,-0.477274 c 0,0 -0.235547,-0.43492 -0.7875,-0.7840912 C 14.185547,9.5712921 13.303486,9.272735 12,9.272735 z m 0,2.18182 c -0.544674,0 -0.969901,0.321902 -1.125,0.613637 -0.155099,0.291734 -0.15,0.579546 -0.15,0.579546 a 0.6002929,0.54572127 0 1 0 1.2,-0.03409 c 0,0 -0.009,-0.05132 0,-0.06818 0.009,-0.01686 -0.08345,0 0.075,0 a 0.60006,0.54550955 0 0 0 1.1625,0.170455 c 0,0 0.07966,-0.268443 -0.0375,-0.579546 C 13.007844,11.82527 12.542087,11.454555 12,11.454555 z"
     id="path10"
     inkscape:connector-curvature="0" />
</svg>
