<?xml version="1.0" encoding="UTF-8" standalone="no"?>
<svg
   xmlns:dc="http://purl.org/dc/elements/1.1/"
   xmlns:cc="http://creativecommons.org/ns#"
   xmlns:rdf="http://www.w3.org/1999/02/22-rdf-syntax-ns#"
   xmlns:svg="http://www.w3.org/2000/svg"
   xmlns="http://www.w3.org/2000/svg"
   xmlns:sodipodi="http://sodipodi.sourceforge.net/DTD/sodipodi-0.dtd"
   xmlns:inkscape="http://www.inkscape.org/namespaces/inkscape"
   width="24"
   height="24"
   viewBox="0 0 24 24"
   id="svg2"
   version="1.1"
   inkscape:version="0.91 r"
   sodipodi:docname="nm-device-wired-secure.svg">
  <metadata
     id="metadata18">
    <rdf:RDF>
      <cc:Work
         rdf:about="">
        <dc:format>image/svg+xml</dc:format>
        <dc:type
           rdf:resource="http://purl.org/dc/dcmitype/StillImage" />
        <dc:title />
      </cc:Work>
    </rdf:RDF>
  </metadata>
  <defs
     id="defs16" />
  <sodipodi:namedview
     pagecolor="#ffffff"
     bordercolor="#666666"
     borderopacity="1"
     objecttolerance="10"
     gridtolerance="10"
     guidetolerance="10"
     inkscape:pageopacity="0"
     inkscape:pageshadow="2"
     inkscape:window-width="1366"
     inkscape:window-height="747"
     id="namedview14"
     showgrid="true"
     inkscape:zoom="13.906433"
     inkscape:cx="-0.45985107"
     inkscape:cy="12.463721"
     inkscape:window-x="0"
     inkscape:window-y="21"
     inkscape:window-maximized="1"
     inkscape:current-layer="svg2">
    <inkscape:grid
       type="xygrid"
       id="grid3000" />
  </sodipodi:namedview>
  <path
     style="fill:#ececec;fill-opacity:1"
     d="m 20,14 c -1.106205,0 -1.997613,0.909579 -1.997613,2.030439 l 0,0.966875 C 17.447494,16.997314 17,17.444942 17,18 l 0,2.997314 C 17,21.552373 17.447494,22 18.002387,22 l 3.998806,0 C 22.552506,22 23,21.552373 23,20.997314 L 23,18 c 0,-0.555058 -0.447494,-1.002686 -0.998807,-1.002686 l 0,-0.966875 C 22.001193,14.909579 21.109785,14 20,14 Z m 0,0.999105 c 0.554892,0 0.998806,0.440465 0.998806,0.999104 l 0,0.999105 -1.997612,0 0,-0.999105 c 0,-0.558639 0.443914,-0.999104 0.998806,-0.999104 z"
     id="path12"
     inkscape:connector-curvature="0" />
  <path
     inkscape:connector-curvature="0"
     id="path3011"
     d="m 21,15.5 -5,5 -5,-5 3,0 0,-6.9999999 4,0 0,6.9999999 3,0 z m -8,-6.9999999 -5,-5 -5,5 3,0 L 6,15.5 l 4,0 0,-6.9999999 3,0 z"
     style="fill:#ececec;fill-opacity:1;fill-rule:evenodd" />
</svg>
