<?xml version="1.0" encoding="UTF-8" standalone="no"?>
<svg
   xmlns:dc="http://purl.org/dc/elements/1.1/"
   xmlns:cc="http://creativecommons.org/ns#"
   xmlns:rdf="http://www.w3.org/1999/02/22-rdf-syntax-ns#"
   xmlns:svg="http://www.w3.org/2000/svg"
   xmlns="http://www.w3.org/2000/svg"
   xmlns:sodipodi="http://sodipodi.sourceforge.net/DTD/sodipodi-0.dtd"
   xmlns:inkscape="http://www.inkscape.org/namespaces/inkscape"
   width="24"
   viewBox="0 0 24 24"
   height="24"
   id="svg2"
   version="1.1"
   inkscape:version="0.48.5 r10040"
   sodipodi:docname="nm-signal-100.svg">
  <metadata
     id="metadata30">
    <rdf:RDF>
      <cc:Work
         rdf:about="">
        <dc:format>image/svg+xml</dc:format>
        <dc:type
           rdf:resource="http://purl.org/dc/dcmitype/StillImage" />
      </cc:Work>
    </rdf:RDF>
  </metadata>
  <defs
     id="defs28" />
  <sodipodi:namedview
     pagecolor="#ffffff"
     bordercolor="#666666"
     borderopacity="1"
     objecttolerance="10"
     gridtolerance="10"
     guidetolerance="10"
     inkscape:pageopacity="0"
     inkscape:pageshadow="2"
     inkscape:window-width="1280"
     inkscape:window-height="970"
     id="namedview26"
     showgrid="false"
     inkscape:zoom="10.727273"
     inkscape:cx="11.186441"
     inkscape:cy="10.813559"
     inkscape:window-x="0"
     inkscape:window-y="0"
     inkscape:window-maximized="1"
     inkscape:current-layer="svg2" />
  <g
     style="line-height:normal;color:#000000"
     id="g4"
     transform="matrix(1.1111111,0,0,1.1176471,-0.22222222,-0.35294118)">
    <g
       style="opacity:0.3"
       transform="translate(0,1)"
       id="g6">
      <path
         style="opacity:0.4"
         d="M 10.999998,3 C 7.6899008,3 4.6013708,4.1418465 2,6.1212781 L 2.1751849,6.4098025 3.8613125,8.7966837 C 5.9570075,7.290793 8.5132999,6.4086482 11.021903,6.4098025 13.530507,6.4109425 16.06645,7.293913 18.16059,8.7966837 L 19.824826,6.4098025 20,6.1212781 C 17.398628,4.1418465 14.310099,3 10.999998,3 z"
         id="path8"
         inkscape:connector-curvature="0" />
      <path
         style="opacity:0.4"
         d="m 11.021825,7.5115235 c -2.3965651,0 -4.6389267,0.7796881 -6.5693475,2.1245735 l 1.5985458,2.281956 c 1.4816367,-0.945356 3.182445,-1.495067 4.9708017,-1.495067 1.788344,0 3.471558,0.549711 4.948898,1.495067 L 17.569269,9.636097 C 15.645317,8.2912116 13.418379,7.5115235 11.021825,7.5115235 z"
         id="path10"
         inkscape:connector-curvature="0" />
      <path
         style="opacity:0.4"
         d="m 11.021825,11.524615 c -1.5723002,0 -3.0659401,0.464341 -4.3795693,1.259012 l 1.6423426,2.334424 c 0.84105,-0.41345 1.7547647,-0.655746 2.7153227,-0.655746 0.96696,0 1.893588,0.23705 2.737225,0.655746 l 1.620439,-2.334424 c -1.305348,-0.788111 -2.770414,-1.259012 -4.33576,-1.259012 z"
         id="path12"
         inkscape:connector-curvature="0" />
      <path
         style="opacity:0.4"
         d="m 10.999998,15.590175 c -0.732914,0 -1.4264755,0.172342 -2.0802805,0.445895 L 10.999998,19 13.080294,16.009841 c -0.64836,-0.26985 -1.352577,-0.419666 -2.080296,-0.419666 z"
         id="path14"
         inkscape:connector-curvature="0" />
    </g>
    <g
       style="fill:#dcdcdc"
       id="g16">
      <path
         d="M 10.999998,3 C 7.6899008,3 4.6013708,4.1418465 2,6.1212781 L 2.1751849,6.4098025 3.8613125,8.7966837 C 5.9570075,7.290793 8.5132999,6.4086482 11.021903,6.4098025 13.530507,6.4109425 16.06645,7.293913 18.16059,8.7966837 L 19.824826,6.4098025 20,6.1212781 C 17.398628,4.1418465 14.310099,3 10.999998,3 z"
         id="path18"
         inkscape:connector-curvature="0" />
      <path
         d="m 11.021825,7.5115235 c -2.3965651,0 -4.6389267,0.7796881 -6.5693475,2.1245735 l 1.5985458,2.281956 c 1.4816367,-0.945356 3.182445,-1.495067 4.9708017,-1.495067 1.788344,0 3.471558,0.549711 4.948898,1.495067 L 17.569269,9.636097 C 15.645317,8.2912116 13.418379,7.5115235 11.021825,7.5115235 z"
         id="path20"
         inkscape:connector-curvature="0" />
      <path
         d="m 11.021825,11.524615 c -1.5723002,0 -3.0659401,0.464341 -4.3795693,1.259012 l 1.6423426,2.334424 c 0.84105,-0.41345 1.7547647,-0.655746 2.7153227,-0.655746 0.96696,0 1.893588,0.23705 2.737225,0.655746 l 1.620439,-2.334424 c -1.305348,-0.788111 -2.770414,-1.259012 -4.33576,-1.259012 z"
         id="path22"
         inkscape:connector-curvature="0" />
      <path
         d="m 10.999998,15.590175 c -0.732914,0 -1.4264755,0.172342 -2.0802805,0.445895 L 10.999998,19 13.080294,16.009841 c -0.64836,-0.26985 -1.352577,-0.419666 -2.080296,-0.419666 z"
         id="path24"
         inkscape:connector-curvature="0" />
    </g>
  </g>
</svg>
