<?xml version="1.0" encoding="UTF-8" standalone="no"?>
<svg
   xmlns:dc="http://purl.org/dc/elements/1.1/"
   xmlns:cc="http://creativecommons.org/ns#"
   xmlns:rdf="http://www.w3.org/1999/02/22-rdf-syntax-ns#"
   xmlns:svg="http://www.w3.org/2000/svg"
   xmlns="http://www.w3.org/2000/svg"
   xmlns:sodipodi="http://sodipodi.sourceforge.net/DTD/sodipodi-0.dtd"
   xmlns:inkscape="http://www.inkscape.org/namespaces/inkscape"
   width="24"
   height="24"
   viewBox="0 0 24 24"
   id="svg2"
   version="1.1"
   inkscape:version="0.48.5 r10040"
   sodipodi:docname="simplescreenrecorder-paused.svg">
  <metadata
     id="metadata32">
    <rdf:RDF>
      <cc:Work
         rdf:about="">
        <dc:format>image/svg+xml</dc:format>
        <dc:type
           rdf:resource="http://purl.org/dc/dcmitype/StillImage" />
      </cc:Work>
    </rdf:RDF>
  </metadata>
  <sodipodi:namedview
     pagecolor="#ffffff"
     bordercolor="#666666"
     borderopacity="1"
     objecttolerance="10"
     gridtolerance="10"
     guidetolerance="10"
     inkscape:pageopacity="0"
     inkscape:pageshadow="2"
     inkscape:window-width="1280"
     inkscape:window-height="998"
     id="namedview30"
     showgrid="true"
     inkscape:zoom="27.812867"
     inkscape:cx="11.491953"
     inkscape:cy="8.0390093"
     inkscape:window-x="0"
     inkscape:window-y="0"
     inkscape:window-maximized="1"
     inkscape:current-layer="svg2">
    <inkscape:grid
       type="xygrid"
       id="grid2994" />
  </sodipodi:namedview>
  <defs
     id="defs4">
    <filter
       id="0"
       filterUnits="objectBoundingBox"
       x="0"
       y="0"
       width="24"
       height="24">
      <feColorMatrix
         type="matrix"
         in="SourceGraphic"
         values="0 0 0 0 1 0 0 0 0 1 0 0 0 0 1 0 0 0 1 0"
         id="feColorMatrix7" />
    </filter>
    <mask
       id="1">
      <g
         filter="url(#0)"
         id="g10">
        <rect
           width="24"
           height="24"
           fill-opacity="0.302"
           id="rect12" />
      </g>
    </mask>
    <clipPath
       id="2">
      <rect
         width="24"
         height="24"
         id="rect15" />
    </clipPath>
    <g
       id="3"
       clip-path="url(#2)">
      <path
         d="M 20 7.050781 C 20.804688 7.050781 21.488281 7.3125 22.058594 7.835938 C 22.625 8.359375 22.910156 8.992188 22.910156 9.734375 L 22.910156 19.132812 C 22.910156 19.875 22.625 20.507812 22.058594 21.03125 C 21.488281 21.554688 20.804688 21.816406 20 21.816406 L 4 21.816406 C 3.195312 21.816406 2.511719 21.554688 1.941406 21.03125 C 1.375 20.507812 1.089844 19.875 1.089844 19.132812 L 1.089844 9.734375 C 1.089844 8.992188 1.375 8.359375 1.941406 7.835938 C 2.511719 7.3125 3.195312 7.050781 4 7.050781 L 6.546875 7.050781 L 7.125 5.621094 C 7.269531 5.28125 7.53125 4.984375 7.914062 4.734375 C 8.296875 4.488281 8.6875 4.363281 9.089844 4.363281 L 14.910156 4.363281 C 15.3125 4.363281 15.703125 4.488281 16.085938 4.734375 C 16.46875 4.984375 16.730469 5.28125 16.875 5.621094 L 17.453125 7.050781 Z M 12 19.132812 C 13.402344 19.132812 14.601562 18.671875 15.597656 17.753906 C 16.59375 16.832031 17.089844 15.726562 17.089844 14.433594 C 17.089844 13.140625 16.59375 12.03125 15.597656 11.113281 C 14.601562 10.195312 13.402344 9.734375 12 9.734375 C 10.597656 9.734375 9.398438 10.195312 8.402344 11.113281 C 7.40625 12.03125 6.910156 13.140625 6.910156 14.433594 C 6.910156 15.726562 7.40625 16.832031 8.402344 17.753906 C 9.398438 18.671875 10.597656 19.132812 12 19.132812 Z "
         id="path18" />
      <path
         d="M 15.355469 14.4375 C 15.359375 16.191406 13.855469 17.613281 12 17.613281 C 10.144531 17.613281 8.644531 16.191406 8.644531 14.4375 C 8.644531 12.6875 10.144531 11.265625 12 11.265625 C 13.855469 11.265625 15.359375 12.6875 15.355469 14.4375 Z "
         id="path20" />
    </g>
  </defs>
  <path
     d="m 20.000156,6.9574692 c 0.804688,0 1.488281,0.261719 2.058594,0.789063 0.566406,0.523437 0.851562,1.15625 0.851562,1.898437 l 0,9.3984378 c 0,0.738281 -0.285156,1.371093 -0.851562,1.898437 C 21.488437,21.465282 20.804844,21.727 20.000156,21.727 l -16,0 C 3.195468,21.727 2.511875,21.465282 1.941562,20.941844 1.375156,20.4145 1.09,19.781688 1.09,19.043407 l 0,-9.3984378 c 0,-0.742187 0.285156,-1.375 0.851562,-1.898437 0.570313,-0.527344 1.253906,-0.789063 2.058594,-0.789063 l 2.546875,0 0.578125,-1.425781 C 7.269687,5.1879382 7.531406,4.8949692 7.914218,4.6449692 8.297031,4.3988762 8.687656,4.2738762 9.09,4.2738762 l 5.820312,0 c 0.402344,0 0.792969,0.125 1.175782,0.371093 0.382812,0.25 0.644531,0.542969 0.789062,0.886719 l 0.578125,1.425781 z m -8,12.0859378 c 1.402344,0 2.601562,-0.460938 3.597656,-1.378907 C 16.593906,16.742626 17.09,15.637157 17.09,14.344188 17.09,13.051219 16.593906,11.941844 15.597812,11.023876 14.601718,10.102 13.4025,9.6449692 12.000156,9.6449692 c -1.402344,0 -2.601562,0.4570308 -3.597656,1.3789068 -0.996094,0.917968 -1.492188,2.027343 -1.492188,3.320312 0,1.292969 0.496094,2.398438 1.492188,3.320312 0.996094,0.917969 2.195312,1.378907 3.597656,1.378907 z"
     id="path3768"
     inkscape:connector-curvature="0"
     style="fill:#000000;fill-opacity:0.29126215" />
  <rect
     ry="0.71428573"
     y="12"
     x="9"
     height="5"
     width="2"
     id="rect3770"
     style="fill:#000000;fill-opacity:0.29126216;fill-rule:evenodd;stroke:none" />
  <rect
     ry="0.71428573"
     y="12"
     x="13"
     height="5"
     width="2"
     id="rect3772"
     style="fill:#000000;fill-opacity:0.29126216;fill-rule:evenodd;stroke:none" />
  <path
     style="fill:#dcdcdc"
     inkscape:connector-curvature="0"
     id="path26"
     d="m 20.000156,5.9574692 c 0.804688,0 1.488281,0.261719 2.058594,0.789063 0.566406,0.523437 0.851562,1.15625 0.851562,1.898437 l 0,9.3984378 c 0,0.738281 -0.285156,1.371093 -0.851562,1.898437 C 21.488437,20.465282 20.804844,20.727 20.000156,20.727 l -16,0 C 3.195468,20.727 2.511875,20.465282 1.941562,19.941844 1.375156,19.4145 1.09,18.781688 1.09,18.043407 l 0,-9.3984378 c 0,-0.742187 0.285156,-1.375 0.851562,-1.898437 0.570313,-0.527344 1.253906,-0.789063 2.058594,-0.789063 l 2.546875,0 0.578125,-1.425781 C 7.269687,4.1879382 7.531406,3.8949692 7.914218,3.6449692 8.297031,3.3988762 8.687656,3.2738762 9.09,3.2738762 l 5.820312,0 c 0.402344,0 0.792969,0.125 1.175782,0.371093 0.382812,0.25 0.644531,0.542969 0.789062,0.886719 l 0.578125,1.425781 z m -8,12.0859378 c 1.402344,0 2.601562,-0.460938 3.597656,-1.378907 C 16.593906,15.742626 17.09,14.637157 17.09,13.344188 17.09,12.051219 16.593906,10.941844 15.597812,10.023876 14.601718,9.1020002 13.4025,8.6449692 12.000156,8.6449692 c -1.402344,0 -2.601562,0.457031 -3.597656,1.3789068 -0.996094,0.917968 -1.492188,2.027343 -1.492188,3.320312 0,1.292969 0.496094,2.398438 1.492188,3.320312 0.996094,0.917969 2.195312,1.378907 3.597656,1.378907 z" />
  <rect
     style="fill:#dcdcdc;fill-opacity:1;fill-rule:evenodd;stroke:none"
     id="rect2996"
     width="2"
     height="5"
     x="9"
     y="11"
     ry="0.71428573" />
  <rect
     style="fill:#dcdcdc;fill-opacity:1;fill-rule:evenodd;stroke:none"
     id="rect2998"
     width="2"
     height="5"
     x="13"
     y="11"
     ry="0.71428573" />
</svg>
