<?xml version="1.0" encoding="UTF-8" standalone="no"?>
<svg
   xmlns:dc="http://purl.org/dc/elements/1.1/"
   xmlns:cc="http://creativecommons.org/ns#"
   xmlns:rdf="http://www.w3.org/1999/02/22-rdf-syntax-ns#"
   xmlns:svg="http://www.w3.org/2000/svg"
   xmlns="http://www.w3.org/2000/svg"
   xmlns:sodipodi="http://sodipodi.sourceforge.net/DTD/sodipodi-0.dtd"
   xmlns:inkscape="http://www.inkscape.org/namespaces/inkscape"
   width="24"
   viewBox="0 0 24 24"
   height="24"
   id="svg2"
   version="1.1"
   inkscape:version="0.48.4 r9939"
   sodipodi:docname="user-offline.svg">
  <metadata
     id="metadata12">
    <rdf:RDF>
      <cc:Work
         rdf:about="">
        <dc:format>image/svg+xml</dc:format>
        <dc:type
           rdf:resource="http://purl.org/dc/dcmitype/StillImage" />
        <dc:title />
      </cc:Work>
    </rdf:RDF>
  </metadata>
  <defs
     id="defs10">
    <g
       clip-path="url(#clip1)"
       id="surface6">
      <path
         id="path3784"
         d="m 12.480469,3.636719 c 0.625,-0.019531 1.246093,0.285156 1.542969,0.757812 0.296874,0.472657 0.257812,1.089844 -0.101563,1.53125 l -5.625,7.28125 C 7.742188,13.917969 6.394531,14.03125 5.691406,13.417969 l -3.375,-2.910157 C 1.628906,9.980469 1.59375,8.941406 2.246094,8.382812 2.898438,7.824219 4.101562,7.859375 4.707031,8.457031 l 1.917969,1.65625 4.484375,-5.8125 C 11.40625,3.90625 11.933594,3.648438 12.480469,3.636719 z"
         style="fill:#000000;fill-opacity:1;fill-rule:nonzero;stroke:none"
         inkscape:connector-curvature="0" />
    </g>
    <clipPath
       id="clip1">
      <rect
         id="rect3781"
         height="16"
         width="16"
         x="0"
         y="0" />
    </clipPath>
    <mask
       id="mask0">
      <g
         id="g3776"
         style="filter:url(#alpha)">
        <rect
           id="rect3778"
           style="fill:#000000;fill-opacity:0.30196102;stroke:none"
           height="16"
           width="16"
           y="0"
           x="0" />
      </g>
    </mask>
    <filter
       height="1"
       width="1"
       y="0"
       x="0"
       filterUnits="objectBoundingBox"
       id="alpha"
       color-interpolation-filters="sRGB">
      <feColorMatrix
         id="feColorMatrix3773"
         values="0 0 0 0 1 0 0 0 0 1 0 0 0 0 1 0 0 0 1 0"
         in="SourceGraphic"
         type="matrix" />
    </filter>
  </defs>
  <sodipodi:namedview
     pagecolor="#ffffff"
     bordercolor="#666666"
     borderopacity="1"
     objecttolerance="10"
     gridtolerance="10"
     guidetolerance="10"
     inkscape:pageopacity="0"
     inkscape:pageshadow="2"
     inkscape:window-width="1366"
     inkscape:window-height="742"
     id="namedview8"
     showgrid="false"
     showguides="true"
     inkscape:guide-bbox="true"
     inkscape:zoom="16.940914"
     inkscape:cx="8.3723984"
     inkscape:cy="7.2257358"
     inkscape:window-x="0"
     inkscape:window-y="26"
     inkscape:window-maximized="1"
     inkscape:current-layer="svg2">
    <sodipodi:guide
       orientation="0,1"
       position="5.1525424,28.135593"
       id="guide3807" />
  </sodipodi:namedview>
  <path
     inkscape:connector-curvature="0"
     id="path2993"
     d="M 4.8928651,5.0007499 C 4.4012816,5.0467433 3.9978794,5.5069741 4.0000084,6.000703 l 0,9.999532 c 5.2e-5,0.523423 0.4764161,0.999853 0.9999995,0.999952 l 7.9999961,0 L 17.000001,21 l 0,-3.999813 1.999999,0 c 0.523584,-9.9e-5 0.999947,-0.476529 1,-0.999952 L 20,6.000703 C 19.999947,5.4771785 19.523584,5.0007499 19,5.0007499 l -13.9999921,0 c -0.03123,-9.999e-4 -0.075913,-9.999e-4 -0.1071428,0 z m 2.535713,2.2856072 1.5357135,0 0.071429,0 C 9.423221,7.3019811 9.7660768,7.4711699 10.03572,7.7149084 l 1.964284,1.6784927 1.999999,-1.6784927 c 0.403571,-0.3062356 0.669643,-0.4191518 1.035714,-0.4285513 l 1.535713,0 0,1.3213666 c 0,0.3827946 -0.06607,0.7700519 -0.392857,1.0356657 l -1.964285,1.6784936 1.928571,1.678492 c 0.285714,0.249988 0.428571,0.611131 0.428571,0.96424 l 0,1.321367 -1.535713,0 c -0.403572,0 -0.785714,-0.142851 -1.071428,-0.392839 l -1.964285,-1.678492 -1.964284,1.678492 c -0.2857146,0.249988 -0.6696424,0.392839 -1.0714284,0.392839 l -1.5357135,0 0,-1.321367 c 0,-0.353109 0.1410719,-0.714252 0.4285712,-0.96424 L 9.821434,11.321883 7.8571493,9.6433894 C 7.5357186,9.3840255 7.3946467,8.9827061 7.4285781,8.6077237 l 0,-1.3213666 z"
     style="line-height:normal;opacity:0.3;color:#000000;fill:#000000;fill-opacity:1" />
  <path
     style="line-height:normal;color:#000000;fill:#e63f5b;fill-opacity:1"
     d="M 4.8928651,4.0007499 C 4.4012816,4.0467433 3.9978794,4.5069741 4.0000084,5.000703 l 0,9.999532 c 5.2e-5,0.523423 0.4764161,0.999853 0.9999995,0.999952 l 7.9999961,0 L 17.000001,20 l 0,-3.999813 1.999999,0 c 0.523584,-9.9e-5 0.999947,-0.476529 1,-0.999952 L 20,5.000703 C 19.999947,4.4771785 19.523584,4.0007499 19,4.0007499 l -13.9999921,0 c -0.03123,-9.999e-4 -0.075913,-9.999e-4 -0.1071428,0 z m 2.535713,2.2856072 1.5357135,0 0.071429,0 C 9.423221,6.3019811 9.7660768,6.4711699 10.03572,6.7149084 l 1.964284,1.6784927 1.999999,-1.6784927 c 0.403571,-0.3062356 0.669643,-0.4191518 1.035714,-0.4285513 l 1.535713,0 0,1.3213666 c 0,0.3827946 -0.06607,0.7700519 -0.392857,1.0356657 l -1.964285,1.6784936 1.928571,1.678492 c 0.285714,0.249988 0.428571,0.611131 0.428571,0.96424 l 0,1.321367 -1.535713,0 c -0.403572,0 -0.785714,-0.142851 -1.071428,-0.392839 l -1.964285,-1.678492 -1.964284,1.678492 c -0.2857146,0.249988 -0.6696424,0.392839 -1.0714284,0.392839 l -1.5357135,0 0,-1.321367 c 0,-0.353109 0.1410719,-0.714252 0.4285712,-0.96424 L 9.821434,10.321883 7.8571493,8.6433894 C 7.5357186,8.3840255 7.3946467,7.9827061 7.4285781,7.6077237 l 0,-1.3213666 z"
     id="path6"
     inkscape:connector-curvature="0" />
</svg>
