<svg height="16" version="1.1" viewBox="0 0 16 16" width="16" xmlns="http://www.w3.org/2000/svg">
 <g transform="translate(-81 -533.36)">
  <path d="m89 538.249c-1.931 0-3.733.665-5.25 1.82l3.5 5.008c.506-.385 1.106-.606 1.75-.606.644 0 1.244.221 1.75.606l3.5-5.008c-1.517-1.155-3.319-1.82-5.25-1.82z" fill="#353535" opacity=".4"/>
  <path d="m89 535.138c-2.575 0-4.977.888-7 2.428l1.75 2.503c1.517-1.155 3.319-1.82 5.25-1.82 1.931 0 3.733.665 5.25 1.82l1.75-2.503c-2.023-1.54-4.425-2.428-7-2.428z" fill="#353535" opacity=".75"/>
  <path d="m90.75 545.078c-.506-.385-1.106-.607-1.75-.607-.644 0-1.244.222-1.75.607l1.75 2.504z" fill="#353535" opacity=".75"/>
 </g>
 <g transform="translate(-81 -80.998)"/>
</svg>
