<?xml version="1.0" encoding="UTF-8" standalone="no"?>
<svg
   xmlns:dc="http://purl.org/dc/elements/1.1/"
   xmlns:cc="http://creativecommons.org/ns#"
   xmlns:rdf="http://www.w3.org/1999/02/22-rdf-syntax-ns#"
   xmlns:svg="http://www.w3.org/2000/svg"
   xmlns="http://www.w3.org/2000/svg"
   xmlns:sodipodi="http://sodipodi.sourceforge.net/DTD/sodipodi-0.dtd"
   xmlns:inkscape="http://www.inkscape.org/namespaces/inkscape"
   viewBox="0 0 22 22"
   id="svg2"
   version="1.1"
   inkscape:version="0.91 r"
   sodipodi:docname="aim.svg"
   width="22"
   height="22">
  <metadata
     id="metadata14">
    <rdf:RDF>
      <cc:Work
         rdf:about="">
        <dc:format>image/svg+xml</dc:format>
        <dc:type
           rdf:resource="http://purl.org/dc/dcmitype/StillImage" />
        <dc:title />
      </cc:Work>
    </rdf:RDF>
  </metadata>
  <defs
     id="defs12" />
  <sodipodi:namedview
     pagecolor="#ffffff"
     bordercolor="#666666"
     borderopacity="1"
     objecttolerance="10"
     gridtolerance="10"
     guidetolerance="10"
     inkscape:pageopacity="0"
     inkscape:pageshadow="2"
     inkscape:window-width="1920"
     inkscape:window-height="1056"
     id="namedview10"
     showgrid="true"
     inkscape:zoom="13.906433"
     inkscape:cx="14.363613"
     inkscape:cy="28.877132"
     inkscape:window-x="0"
     inkscape:window-y="24"
     inkscape:window-maximized="1"
     inkscape:current-layer="svg2">
    <inkscape:grid
       type="xygrid"
       id="grid4142" />
  </sodipodi:namedview>
  <g
     style="fill:#ffcc00"
     id="g4"
     transform="matrix(0.5,0,0,0.5,-0.99975,-0.99925)">
    <path
       d="m 19.98,17.906 c 0.723,0.34 4.363,-0.371 4.738,-0.051 0.375,0.324 -0.918,1.551 -0.191,2.09 1.727,1.285 6.289,1.664 10.387,0.152 l 1.551,4.266 c -2.25,1.242 -5.621,1.961 -9.934,1.551 L 37.859,37.32 33.664,41.097 24.949,31.945 C 21.422,38.121 16.812,40.539 13.187,42.75 L 10.14,37.945 c 14.383,-9.08 6.41,-13.148 9.898,-18.336 0.277,-0.414 -0.531,-1.305 -0.059,-1.703 z"
       id="path6"
       inkscape:connector-curvature="0" />
    <path
       d="m 29.652,12.11 c 0,3.789 -3.07,6.863 -6.859,6.863 -3.793,0 -6.863,-3.074 -6.863,-6.863 0,-3.789 3.07,-6.863 6.863,-6.863 3.789,0 6.859,3.074 6.859,6.863 z"
       id="path8"
       inkscape:connector-curvature="0" />
  </g>
</svg>
