<svg xmlns="http://www.w3.org/2000/svg" viewBox="0 0 64 64" xmlns:xlink="http://www.w3.org/1999/xlink">
<defs>
<linearGradient gradientTransform="matrix(1.3504 0 0 1.2464 -.08268 10.211)" id="linearGradient2526" y1="37.206" y2="33.759" x1="12.277" gradientUnits="userSpaceOnUse" x2="12.222">
<stop offset="0" style="stop-color:#eee"/>
<stop offset="1" style="stop-color:#eee;stop-opacity:0"/>
</linearGradient>
<linearGradient gradientTransform="matrix(1.3574 0 0 1.0099 -7.3634 6.5518)" id="linearGradient2557" y1="41" y2="50" x1="29.938" gradientUnits="userSpaceOnUse" x2="30">
<stop offset="0" style="stop-color:#7a7a7a"/>
<stop offset="1" style="stop-color:#474747"/>
</linearGradient>
<linearGradient id="linearGradient4035">
<stop offset="0" style="stop-color:#f5f5f5"/>
<stop offset=".47" style="stop-color:#e7e7e7"/>
<stop offset=".693" style="stop-color:#8c8c8c"/>
<stop offset=".835" style="stop-color:#ddd"/>
<stop offset="1" style="stop-color:#a8a8a8"/>
</linearGradient>
<linearGradient id="linearGradient5060">
<stop offset="0"/>
<stop offset="1" style="stop-opacity:0"/>
</linearGradient>
<linearGradient gradientTransform="matrix(1.3801 0 0 1.2584 .92871 8.1011)" id="linearGradient2529" xlink:href="#linearGradient5060" x1="7.062" gradientUnits="userSpaceOnUse" x2="24.688"/>
<linearGradient gradientTransform="matrix(.10181 0 0 .02745 -4.7966 43.268)" id="linearGradient2566" y1="366.65" y2="609.51" gradientUnits="userSpaceOnUse" x2="0">
<stop offset="0" style="stop-opacity:0"/>
<stop offset=".5"/>
<stop offset="1" style="stop-opacity:0"/>
</linearGradient>
<linearGradient gradientTransform="matrix(1.3526 0 0 1.3653 -.46328 -2.8344)" id="linearGradient2553" y1="29.797" y2="10" x1="17.814" gradientUnits="userSpaceOnUse" x2="18.073">
<stop offset="0" style="stop-color:#969696"/>
<stop offset="1" style="stop-color:#b4b4b4"/>
</linearGradient>
<radialGradient cx="127.32" cy="143.83" gradientTransform="matrix(.25406 -.03579 .00826 .14391 -9.9162 3.6124)" id="radialGradient2523" xlink:href="#linearGradient4035" r="78.728" gradientUnits="userSpaceOnUse"/>
<radialGradient cx="11.734" cy="8.49" gradientTransform="matrix(1.8622 .95185 -.63318 1.262 -.52977 -5.481)" id="radialGradient2551" r="23.048" gradientUnits="userSpaceOnUse">
<stop offset="0" style="stop-color:#e6e6e6"/>
<stop offset="1" style="stop-color:#c8c8c8"/>
</radialGradient>
<radialGradient fx="113.67" fy="98" cx="113.07" cy="97.588" gradientTransform="matrix(.37825 .07056 -.03896 .3065 11.536 -24.903)" id="radialGradient2532" xlink:href="#radialGradient4241" r="2.563" gradientUnits="userSpaceOnUse"/>
<radialGradient cx="24" cy="42" gradientTransform="matrix(1.3526 0 0 .48686 -.46328 31.949)" id="radialGradient2516" r="21" gradientUnits="userSpaceOnUse">
<stop offset="0" style="stop-color:#fff"/>
<stop offset="1" style="stop-color:#fff;stop-opacity:0"/>
</radialGradient>
<radialGradient cx="142.62" cy="191.85" gradientTransform="matrix(.2466 0 0 -.17432 -4.1482 59.731)" id="radialGradient2544" r="78.728" gradientUnits="userSpaceOnUse">
<stop offset="0" style="stop-color:#fff"/>
<stop offset=".47" style="stop-color:#e7e7e7"/>
<stop offset=".672" style="stop-color:#8c8c8c"/>
<stop offset=".835" style="stop-color:#ddd"/>
<stop offset="1" style="stop-color:#a8a8a8"/>
</radialGradient>
<radialGradient fx="113.67" fy="98" cx="113.07" cy="97.588" id="radialGradient4241" r="2.563" gradientUnits="userSpaceOnUse">
<stop offset="0" style="stop-color:#eee"/>
<stop offset=".16" style="stop-color:#cecece"/>
<stop offset=".468" style="stop-color:#888"/>
<stop offset="1" style="stop-color:#555"/>
</radialGradient>
<radialGradient cx="605.71" cy="486.65" gradientTransform="matrix(-.0598 0 0 .02745 43.482 43.268)" id="radialGradient2560" xlink:href="#linearGradient5060" r="117.14" gradientUnits="userSpaceOnUse"/>
<radialGradient cx="141.75" cy="206.43" gradientTransform="matrix(.47571 -.00691 .00352 .3975 -37.033 -36.799)" id="radialGradient2547" xlink:href="#linearGradient4035" r="78.728" gradientUnits="userSpaceOnUse"/>
<radialGradient fx="113.67" fy="98" cx="113.07" cy="97.588" gradientTransform="matrix(.50343 0 0 .4878 1.0794 -2.1034)" id="radialGradient2519" xlink:href="#radialGradient4241" r="2.563" gradientUnits="userSpaceOnUse"/>
<radialGradient cx="605.71" cy="486.65" gradientTransform="matrix(.0598 0 0 .02745 20.519 43.268)" id="radialGradient2563" xlink:href="#linearGradient5060" r="117.14" gradientUnits="userSpaceOnUse"/>
<radialGradient fx="113.67" fy="98" cx="113.07" cy="97.588" gradientTransform="matrix(.37411 -.0793 .04214 .31499 -33.912 -8.7733)" id="radialGradient2536" xlink:href="#radialGradient4241" r="2.563" gradientUnits="userSpaceOnUse"/>
<radialGradient fx="113.67" fy="98" cx="113.07" cy="97.588" gradientTransform="matrix(-.50343 0 0 .4878 62.921 -2.1034)" id="radialGradient2540" xlink:href="#radialGradient4241" r="2.563" gradientUnits="userSpaceOnUse"/>
</defs>
<rect width="49.159" x="7.42" y="53.333" height="6.667" style="opacity:.3;fill:url(#linearGradient2566)"/>
<path style="opacity:.3;fill:url(#radialGradient2563)" d="m56.556 53.334v6.666c3.079 0.012 7.444-1.494 7.444-3.334s-3.436-3.332-7.444-3.332z"/>
<path style="opacity:.3;fill:url(#radialGradient2560)" d="m7.4444 53.334v6.666c-3.0793 0.012-7.4444-1.494-7.4444-3.334s3.4364-3.332 7.4444-3.332z"/>
<g style="fill-rule:evenodd">
<path style="fill:url(#linearGradient2557);stroke:#353537;stroke-linejoin:round;stroke-linecap:round;stroke-width:.928" d="m1.464 48.464h61.072l-1.221 8.072h-58.494l-1.357-8.072z"/>
<rect width="60.869" x="1.566" y="47.626" height="1.363" style="fill:#d2d2d3"/>
</g>
<g style="stroke-linecap:round">
<path style="fill:url(#radialGradient2551);stroke:url(#linearGradient2553);stroke-linejoin:round;stroke-width:.996" d="m62.502 48.502l-9.211-35.188c-0.26-1.003-1.625-1.816-2.772-1.816h-37.356c-1.762 0-2.772 0.271-3.143 1.816l-8.522 35.154"/>
<path style="opacity:.4;fill:none;stroke:#fff" d="m61.5 48.516l-59-0.032"/>
</g>
<path style="fill:url(#radialGradient2547)" d="m54.961 32.764c-0.294-2.747-2.268-5.367-5.547-7.434-0.066-0.794-0.907-10.959-0.907-10.959-0.064-0.781-1.044-1.371-2.28-1.371h-7.754c-1.244 0-2.206 0.597-2.238 1.39-0.142 3.579-4.48 5.448-10.952 7.148-2.268 0.399-8.18 2.276-9.537 3.1-3.995 2.163-6.377 5.048-6.707 8.126-0.3003 2.8 1.143 5.601 4.064 7.889 4.275 3.348 11.339 5.347 18.897 5.347 7.557 0 14.621-1.999 18.897-5.347 2.668-2.089 4.103-4.608 4.103-7.161 0-0.243-0.014-0.486-0.039-0.728zm-22.961 11.847c-12.587 0-22.226-5.61-21.528-12.114 0.301-2.803 2.509-5.797 6.165-7.769 0.685-0.525 6.869-2.565 9.088-2.923 6.148-1.612 11.771-3.704 11.947-8.111 0.008-0.211 0.362-0.379 0.801-0.379h7.753c0.449 0 0.828 0.176 0.846 0.392l0.941 11.388c3.259 1.919 5.234 4.784 5.514 7.402 0.698 6.504-8.94 12.114-21.527 12.114z"/>
<path style="fill:url(#radialGradient2544)" d="m32 37c-4.487 0-7.926-1.689-7.999-3.93 0-0.025-0.001-0.048-0.001-0.072 0-0.811 0.451-1.582 1.307-2.235 1.449-1.104 3.951-1.763 6.693-1.763s5.243 0.659 6.693 1.763c0.881 0.671 1.333 1.469 1.306 2.306-0.074 2.241-3.513 3.931-7.999 3.931zm0-6.746c-4.216 0-6.364 1.674-6.313 3.203 0.049 1.505 2.875 2.707 6.313 2.707 3.437 0 6.264-1.203 6.313-2.707 0.05-1.529-2.098-3.203-6.313-3.203z"/>
<path style="fill:#e1e1e1" d="m7.9967 45.493c-0.0634 0.83-1.0134 1.507-2.1209 1.507-1.1071 0-1.9453-0.677-1.8713-1.507 0.0735-0.826 1.023-1.493 2.1195-1.493 1.0969 0 1.9352 0.667 1.8727 1.493z"/>
<path style="fill:url(#radialGradient2540)" d="m7.2803 44.909c0.1012 0.105 0.217 0.274 0.217 0.498 0 0.016-0.001 0.033-0.002 0.05-0.0438 0.572-0.7853 1.055-1.619 1.055-0.4747 0-0.9087-0.158-1.1604-0.425-0.1082-0.113-0.2316-0.302-0.2094-0.552 0.0508-0.568 0.7913-1.047 1.618-1.047 0.4712 0 0.9036 0.157 1.1558 0.421z"/>
<path style="fill:#f0f0f0" d="m11.016 13.31c0.118 0.526 0.883 0.813 1.706 0.639s1.387-0.744 1.26-1.268c-0.126-0.522-0.889-0.803-1.704-0.63s-1.38 0.735-1.262 1.259z"/>
<path style="fill:url(#radialGradient2536)" d="m11.497 12.82c-0.066 0.084-0.137 0.211-0.118 0.356 0.002 0.01 0.004 0.021 0.006 0.031 0.082 0.363 0.675 0.558 1.294 0.427 0.353-0.075 0.662-0.245 0.826-0.457 0.071-0.091 0.146-0.232 0.108-0.39-0.087-0.358-0.679-0.551-1.293-0.421-0.35 0.074-0.658 0.244-0.823 0.454z"/>
<path style="fill:#e1e1e1" d="m49 12.701c-0.018 0.531 0.641 1.089 1.474 1.245 0.831 0.155 1.515-0.153 1.526-0.685 0.011-0.529-0.649-1.081-1.473-1.235-0.825-0.154-1.508 0.148-1.527 0.675z"/>
<path style="fill:url(#radialGradient2532)" d="m49.585 12.435c-0.084 0.052-0.185 0.142-0.203 0.283-0.001 0.01-0.001 0.02-0.002 0.031-0.013 0.366 0.506 0.773 1.132 0.89 0.357 0.067 0.696 0.028 0.906-0.104 0.09-0.056 0.198-0.157 0.201-0.318 0.008-0.364-0.511-0.769-1.132-0.885-0.354-0.065-0.691-0.027-0.902 0.103z"/>
<g style="fill-rule:evenodd">
<path style="fill:url(#linearGradient2529)" d="m10 49h25v7h-24.324l-0.676-7z"/>
<path style="opacity:.811;fill:url(#linearGradient2526)" d="m10.529 56l-0.529-5c2.479 3.963 11.733 5 18 5h-17.471z"/>
</g>
<path style="fill:url(#radialGradient2523)" d="m14.542 13l-0.138 0.544-2.055 8.102-0.349 1.354 1.019-0.291 17.326-5.063 0.055-0.026 0.046-0.025c0.917-0.506 1.408-1.529 1.523-2.468 0.058-0.47 0.041-0.93-0.11-1.355-0.142-0.401-0.512-0.758-0.899-0.747v-0.025h-0.064-15.941-0.413zm0.587 0.501h15.968c0.008 0.068 0.026 0.106 0.009 0.235-0.05 0.407-0.265 1.864-0.807 2.182l-16.795 4.911 1.624-7.328h0.001z"/>
<path style="fill:#e1e1e1" d="m56.003 45.493c0.064 0.83 1.014 1.507 2.121 1.507s1.945-0.677 1.871-1.507c-0.073-0.826-1.023-1.493-2.119-1.493-1.097 0-1.935 0.667-1.873 1.493z"/>
<path style="fill:url(#radialGradient2519)" d="m56.72 44.909c-0.102 0.105-0.217 0.274-0.217 0.498 0 0.016 0.001 0.033 0.002 0.05 0.043 0.572 0.785 1.055 1.619 1.055 0.474 0 0.908-0.158 1.16-0.425 0.108-0.113 0.232-0.302 0.21-0.552-0.051-0.568-0.792-1.047-1.619-1.047-0.471 0-0.903 0.157-1.155 0.421z"/>
<rect width="56.811" x="3.595" y="48.99" height="6.816" style="opacity:.3;fill:url(#radialGradient2516)"/>
</svg>
