<svg width="22" xmlns="http://www.w3.org/2000/svg" height="22" viewBox="0 0 22 22" xmlns:xlink="http://www.w3.org/1999/xlink">
<defs>
<linearGradient gradientTransform="matrix(.45833 0 0 .45833 0 -460.33267)" id="linear0" y1="1053.158" y2="1004.847" gradientUnits="userSpaceOnUse" x2="0">
<stop offset="0" style="stop-color:#555"/>
<stop offset="1" style="stop-color:#909090"/>
</linearGradient>
</defs>
<path style="fill:url(#linear0)" d="M 0.917969 0 L 21.035156 0 C 21.570312 0 22 0.398438 22 0.890625 L 22 21.109375 C 22 21.601562 21.570312 22 21.035156 22 L 0.917969 22 C 0.382812 22 0 21.601562 0 21.109375 L 0 0.890625 C 0 0.398438 0.382812 0 0.917969 0 Z "/>
<g style="fill:#fff">
<path d="M 11.085938 7.136719 C 10.453125 7.125 9.777344 7.179688 9.109375 7.25 L 8.136719 7.886719 C 8.144531 8.265625 8.078125 8.773438 8.386719 9 L 11.390625 8.890625 L 11.613281 9.753906 L 10.835938 10.195312 C 8.566406 10.222656 7.699219 11.152344 7.414062 12.058594 C 7.496094 12.9375 7.636719 13.71875 8.082031 14.230469 C 8.882812 14.921875 9.75 14.949219 10.613281 14.8125 L 12.140625 14.203125 L 13.144531 14.839844 L 14.507812 13.894531 L 14.199219 12.8125 C 14.621094 11.777344 14.453125 10.761719 14.589844 9.722656 C 14.148438 8.765625 13.640625 7.882812 12.835938 7.445312 C 12.296875 7.230469 11.71875 7.148438 11.085938 7.136719 Z M 11.140625 11.113281 C 11.6875 11.113281 12.140625 11.566406 12.140625 12.117188 C 12.140625 12.664062 11.6875 13.089844 11.140625 13.089844 C 10.59375 13.089844 10.140625 12.664062 10.140625 12.117188 C 10.140625 11.566406 10.59375 11.113281 11.140625 11.113281 Z "/>
<path d="M 11.414062 6.976562 C 11.28125 6.964844 11.144531 6.976562 11.003906 6.988281 C 10.167969 7.023438 8.6875 7 8.109375 7.675781 C 7.757812 8.089844 7.921875 9.058594 8.460938 9.160156 C 9.136719 9.285156 10.273438 8.972656 11.003906 9.050781 C 11.511719 9.101562 11.660156 9.511719 11.246094 9.796875 C 10.808594 10.097656 9.8125 10.003906 9.308594 10.15625 C 7.570312 10.679688 6.945312 11.785156 7.371094 13.285156 C 7.648438 14.261719 8.632812 14.988281 9.703125 15.027344 C 11.765625 15.015625 11.378906 13.984375 12.378906 14.523438 C 12.707031 14.90625 13.367188 15.027344 13.710938 14.761719 C 14.261719 14.332031 15.09375 14.101562 14.507812 13.226562 C 14.226562 12.804688 14.882812 12.261719 14.734375 10.171875 C 14.605469 8.320312 13.417969 7.050781 11.414062 6.980469 Z M 11.011719 7.242188 C 12.085938 7.195312 12.90625 7.488281 13.484375 8 C 14.0625 8.507812 14.410156 9.253906 14.472656 10.1875 C 14.546875 11.203125 14.421875 11.820312 14.316406 12.257812 C 14.261719 12.476562 14.214844 12.652344 14.1875 12.828125 C 14.164062 13.003906 14.179688 13.199219 14.289062 13.363281 C 14.417969 13.554688 14.453125 13.6875 14.449219 13.765625 C 14.445312 13.847656 14.414062 13.898438 14.339844 13.976562 C 14.191406 14.136719 13.859375 14.308594 13.550781 14.546875 C 13.460938 14.617188 13.277344 14.65625 13.082031 14.621094 C 12.886719 14.585938 12.695312 14.488281 12.578125 14.351562 C 12.558594 14.328125 12.53125 14.308594 12.503906 14.296875 C 12.230469 14.148438 12.003906 14.078125 11.792969 14.109375 C 11.578125 14.144531 11.4375 14.261719 11.296875 14.355469 C 11.019531 14.542969 10.6875 14.761719 9.710938 14.765625 C 9.710938 14.765625 9.707031 14.765625 9.703125 14.765625 C 8.746094 14.726562 7.867188 14.058594 7.625 13.207031 C 7.425781 12.503906 7.472656 11.945312 7.75 11.488281 C 8.027344 11.027344 8.554688 10.652344 9.386719 10.40625 C 9.578125 10.347656 9.949219 10.320312 10.324219 10.289062 C 10.699219 10.253906 11.089844 10.222656 11.398438 10.011719 C 11.664062 9.828125 11.808594 9.519531 11.714844 9.246094 C 11.625 8.976562 11.347656 8.820312 11.027344 8.785156 C 10.613281 8.742188 10.136719 8.808594 9.679688 8.859375 C 9.21875 8.914062 8.785156 8.945312 8.511719 8.894531 C 8.386719 8.871094 8.261719 8.71875 8.210938 8.476562 C 8.160156 8.234375 8.210938 7.953125 8.3125 7.839844 C 8.527344 7.582031 8.980469 7.421875 9.503906 7.34375 C 10.023438 7.265625 10.582031 7.261719 11.011719 7.242188 Z "/>
<path style="fill-opacity:.8" d="M 11 3.667969 C 6.957031 3.667969 3.667969 6.957031 3.667969 11 C 3.667969 15.042969 6.957031 18.332031 11 18.332031 C 15.042969 18.332031 18.332031 15.042969 18.332031 11 C 18.332031 6.957031 15.042969 3.667969 11 3.667969 Z M 11 5 C 14.320312 5 17 7.679688 17 11 C 17 14.320312 14.320312 17 11 17 C 7.679688 17 5 14.320312 5 11 C 5 7.679688 7.679688 5 11 5 Z "/>
<path style="fill-opacity:.149" d="M 0.917969 0 C 0.410156 0 0 0.410156 0 0.917969 L 0 21.082031 C 0 21.589844 0.410156 22 0.917969 22 L 7.691406 22 L 13.578125 0 Z "/>
</g>
</svg>
