<svg width="22" xmlns="http://www.w3.org/2000/svg" height="22" viewBox="0 0 22 22" xmlns:xlink="http://www.w3.org/1999/xlink">
<defs>
<linearGradient gradientTransform="matrix(.45833 0 0 .45833 0 -460.33267)" id="linear0" y1="1053.158" y2="1004.847" gradientUnits="userSpaceOnUse" x2="0">
<stop offset="0" style="stop-color:#ff6400"/>
<stop offset="1" style="stop-color:#ef894e"/>
</linearGradient>
</defs>
<path style="fill:url(#linear0)" d="M 0.917969 0 L 21.035156 0 C 21.570312 0 22 0.398438 22 0.890625 L 22 21.109375 C 22 21.601562 21.570312 22 21.035156 22 L 0.917969 22 C 0.382812 22 0 21.601562 0 21.109375 L 0 0.890625 C 0 0.398438 0.382812 0 0.917969 0 Z "/>
<g style="fill:#fff">
<path d="M 14.835938 3.667969 C 15.242188 3.667969 15.660156 3.769531 16.011719 4.011719 C 17.410156 4.972656 18.789062 4.613281 18.789062 4.613281 C 18.789062 4.613281 17.386719 6.910156 15.609375 6.558594 C 13.929688 6.230469 13.605469 6.652344 13.546875 6.703125 L 13.460938 13.976562 C 13.460938 14.023438 13.464844 14.070312 13.460938 14.117188 C 13.382812 15.675781 12.042969 17.238281 10.167969 17.957031 C 7.792969 18.867188 5.285156 18.074219 4.558594 16.179688 C 3.832031 14.285156 5.160156 11.996094 7.535156 11.082031 C 9.375 10.378906 11.289062 10.710938 12.402344 11.769531 L 12.402344 4.496094 L 12.375 4.441406 C 12.375 4.441406 13.621094 3.648438 14.835938 3.667969 Z "/>
<path style="fill-opacity:.149" d="M 0.917969 0 C 0.410156 0 0 0.410156 0 0.917969 L 0 21.082031 C 0 21.589844 0.410156 22 0.917969 22 L 7.691406 22 L 13.578125 0 Z "/>
</g>
</svg>
