<svg width="22" xmlns="http://www.w3.org/2000/svg" height="22" viewBox="0 0 22 22" xmlns:xlink="http://www.w3.org/1999/xlink">
<defs>
<linearGradient gradientTransform="matrix(.45833 0 0 -.45833 0 482.33267)" id="linear0" y1="1053.158" y2="1004.847" gradientUnits="userSpaceOnUse" x2="0">
<stop offset="0" style="stop-color:#378eb1"/>
<stop offset="1" style="stop-color:#17789c"/>
</linearGradient>
</defs>
<path style="fill:url(#linear0)" d="M 0.890625 22 L 21.109375 22 C 21.601562 22 22 21.601562 22 21.109375 L 22 0.890625 C 22 0.398438 21.601562 0 21.109375 0 L 0.890625 0 C 0.398438 0 0 0.398438 0 0.890625 L 0 21.109375 C 0 21.601562 0.398438 22 0.890625 22 Z "/>
<g style="fill:#fff">
<path style="fill-rule:evenodd" d="M 10.703125 7.855469 L 10.703125 10.363281 L 9.332031 9.316406 L 8.867188 9.6875 L 10.574219 11.003906 L 8.84375 12.316406 L 9.382812 12.726562 L 10.703125 11.660156 L 10.703125 14.148438 L 13.15625 12.316406 L 11.53125 11.023438 L 13.105469 9.746094 Z M 11.375 9.070312 L 12.175781 9.765625 L 11.375 10.382812 Z M 11.347656 11.679688 L 12.203125 12.296875 L 11.402344 12.851562 Z "/>
<path d="M 8.15625 8.160156 C 6.589844 9.726562 6.585938 12.277344 8.152344 13.84375 L 8.898438 13.097656 C 7.734375 11.9375 7.738281 10.070312 8.902344 8.90625 Z M 13.097656 8.898438 C 14.257812 10.0625 14.269531 11.941406 13.101562 13.105469 L 13.847656 13.851562 C 15.417969 12.28125 15.40625 9.71875 13.84375 8.152344 Z "/>
<path d="M 5.816406 5.820312 C 2.957031 8.679688 2.949219 13.328125 5.804688 16.1875 L 7.164062 14.824219 C 5.042969 12.703125 5.050781 9.300781 7.175781 7.179688 Z M 14.824219 7.164062 C 16.945312 9.285156 16.960938 12.714844 14.835938 14.839844 L 16.195312 16.199219 C 19.054688 13.339844 19.039062 8.660156 16.183594 5.804688 Z "/>
<path style="fill-opacity:.149" d="M 0.917969 0 C 0.410156 0 0 0.410156 0 0.917969 L 0 21.082031 C 0 21.589844 0.410156 22 0.917969 22 L 7.691406 22 L 13.578125 0 Z "/>
</g>
</svg>
