<svg width="22" xmlns="http://www.w3.org/2000/svg" height="22" viewBox="0 0 22 22" xmlns:xlink="http://www.w3.org/1999/xlink">
<defs>
<linearGradient gradientTransform="matrix(.45833 0 0 .45833 0 -460.33267)" id="linear0" y1="1053.158" y2="1004.847" gradientUnits="userSpaceOnUse" x2="0">
<stop offset="0" style="stop-color:#9e1e4c"/>
<stop offset="1" style="stop-color:#d23759"/>
</linearGradient>
</defs>
<path style="fill:url(#linear0)" d="M 0.890625 0 L 21.109375 0 C 21.601562 0 22 0.398438 22 0.890625 L 22 21.109375 C 22 21.601562 21.601562 22 21.109375 22 L 0.890625 22 C 0.398438 22 0 21.601562 0 21.109375 L 0 0.890625 C 0 0.398438 0.398438 0 0.890625 0 Z "/>
<g style="fill:#fff">
<path d="M 6.988281 11.347656 L 4.511719 13.746094 C 5.480469 15.953125 6.253906 16.59375 7.027344 17.214844 Z "/>
<path d="M 8.285156 14.355469 L 17.082031 14.394531 C 15.574219 17.089844 13.5625 19.253906 8.246094 17.9375 Z "/>
<path d="M 17.464844 13.402344 L 15.367188 13.480469 L 15.332031 5.289062 C 17.1875 7.214844 18.429688 9.5625 17.464844 13.402344 Z "/>
<path d="M 14.378906 9.023438 L 14.300781 4.605469 C 12.027344 3.265625 10.4375 3.652344 8.855469 3.996094 Z "/>
<path d="M 7.710938 4.488281 L 10.339844 6.964844 L 4.246094 12.566406 C 4.152344 9.875 3.859375 7.183594 7.710938 4.488281 Z "/>
<path style="fill-opacity:.149" d="M 0 0 L 0 22 L 7.691406 22 L 13.578125 0 Z "/>
</g>
</svg>
