<svg width="22" xmlns="http://www.w3.org/2000/svg" height="22" viewBox="0 0 22 22" xmlns:xlink="http://www.w3.org/1999/xlink">
<defs>
<linearGradient gradientTransform="matrix(.45833 0 0 .45833 0 -460.33267)" id="linear0" y1="1053.158" y2="1004.847" gradientUnits="userSpaceOnUse" x2="0">
<stop offset="0" style="stop-color:#296c20"/>
<stop offset="1" style="stop-color:#76c35a"/>
</linearGradient>
</defs>
<path style="fill:url(#linear0)" d="M 0.890625 0 L 21.109375 0 C 21.601562 0 22 0.398438 22 0.890625 L 22 21.109375 C 22 21.601562 21.601562 22 21.109375 22 L 0.890625 22 C 0.398438 22 0 21.601562 0 21.109375 L 0 0.890625 C 0 0.398438 0.398438 0 0.890625 0 Z "/>
<path style="fill:#fff;fill-rule:evenodd" d="M 7.734375 9.964844 L 8.703125 11.988281 L 6.539062 12.511719 C 6.347656 11.621094 6.5 10.628906 7.734375 9.964844 Z M 13.851562 8.652344 C 12.335938 8.296875 10.695312 8.3125 9.015625 8.5625 C 8.953125 8.574219 8.894531 8.582031 8.832031 8.59375 L 8.273438 7.558594 C 7.730469 7.628906 7.21875 7.742188 6.746094 7.894531 L 7.277344 9.007812 C 6.410156 9.34375 5.695312 9.824219 5.179688 10.402344 C 4.332031 11.367188 3.996094 12.582031 4.402344 13.765625 C 4.484375 14.003906 4.597656 14.230469 4.734375 14.441406 L 5.089844 14.34375 L 7.074219 13.800781 L 9.28125 13.191406 L 11.054688 12.707031 L 10.4375 11.566406 L 9.300781 9.457031 C 9.359375 9.445312 9.421875 9.433594 9.484375 9.421875 C 12.320312 8.914062 13.875 9.695312 14.722656 10.527344 L 12.5625 11.054688 L 11.660156 9.613281 C 11.144531 9.582031 10.546875 9.613281 9.859375 9.730469 L 10.824219 11.472656 L 11.257812 12.257812 L 11.449219 12.597656 L 15.429688 11.503906 L 17.453125 10.949219 L 17.769531 10.863281 C 17.699219 10.699219 17.601562 10.542969 17.46875 10.390625 C 16.816406 9.632812 15.398438 8.957031 13.851562 8.652344 "/>
<path style="fill:none;stroke:#fff;stroke-linejoin:round;stroke-linecap:round;stroke-width:4.808" d="M -151.150381 121.953895 L -81.583619 121.953895 C -74.499102 121.953895 -68.772895 127.680102 -68.772895 134.764619 L -68.772895 204.331381 C -68.772895 211.415898 -74.499102 217.142105 -81.583619 217.142105 L -151.150381 217.142105 C -158.234898 217.142105 -163.961105 211.415898 -163.961105 204.331381 L -163.961105 134.764619 C -163.961105 127.680102 -158.234898 121.953895 -151.150381 121.953895 Z " transform="matrix(.14667 0 0 .14667 28.06716 -13.86704)"/>
<path style="fill:#fff;fill-opacity:.149" d="M 0.917969 0 C 0.410156 0 0 0.410156 0 0.917969 L 0 21.082031 C 0 21.589844 0.410156 22 0.917969 22 L 7.691406 22 L 13.578125 0 Z "/>
</svg>
