<svg width="22" xmlns="http://www.w3.org/2000/svg" height="22" viewBox="0 0 22 22" xmlns:xlink="http://www.w3.org/1999/xlink">
<defs>
<linearGradient gradientTransform="matrix(.45833 0 0 .45833 0 -460.33267)" id="linear0" y1="1050.112" y2="1003.795" gradientUnits="userSpaceOnUse" x2="0">
<stop offset="0" style="stop-color:#8f3f9b"/>
<stop offset="1" style="stop-color:#b263bf"/>
</linearGradient>
</defs>
<path style="fill:url(#linear0)" d="M 0.890625 0 L 21.109375 0 C 21.601562 0 22 0.398438 22 0.890625 L 22 21.109375 C 22 21.601562 21.601562 22 21.109375 22 L 0.890625 22 C 0.398438 22 0 21.601562 0 21.109375 L 0 0.890625 C 0 0.398438 0.398438 0 0.890625 0 Z "/>
<path style="fill:#fff" d="M 12.972656 18.0625 C 11.71875 18.414062 10.363281 18.433594 9.042969 18.066406 L 9.730469 16.40625 C 10.589844 16.609375 11.460938 16.597656 12.28125 16.402344 Z M 8.085938 15.726562 C 7.335938 15.265625 6.726562 14.644531 6.28125 13.925781 L 4.621094 14.613281 C 5.261719 15.746094 6.207031 16.71875 7.398438 17.386719 Z M 4.613281 7.398438 L 6.273438 8.085938 C 6.734375 7.335938 7.355469 6.726562 8.074219 6.28125 L 7.386719 4.621094 C 6.253906 5.261719 5.28125 6.207031 4.613281 7.398438 Z M 5.597656 12.28125 C 5.402344 11.460938 5.390625 10.589844 5.59375 9.730469 L 3.933594 9.042969 C 3.566406 10.363281 3.585938 11.71875 3.9375 12.972656 Z M 15.726562 13.914062 C 15.265625 14.664062 14.644531 15.273438 13.925781 15.71875 L 14.613281 17.378906 C 15.746094 16.738281 16.71875 15.792969 17.386719 14.601562 Z M 9.71875 5.597656 C 10.539062 5.402344 11.410156 5.390625 12.269531 5.59375 L 12.957031 3.933594 C 11.636719 3.566406 10.28125 3.585938 9.027344 3.9375 Z M 13.914062 6.273438 C 14.664062 6.734375 15.273438 7.355469 15.71875 8.074219 L 17.378906 7.386719 C 16.738281 6.253906 15.792969 5.28125 14.601562 4.613281 Z M 16.402344 9.71875 C 16.597656 10.539062 16.609375 11.410156 16.40625 12.269531 L 18.066406 12.957031 C 18.433594 11.636719 18.414062 10.28125 18.0625 9.027344 Z "/>
<g style="fill:none;stroke:#fff">
<path style="stroke-width:7.208" d="M 183.972565 131.732694 C 183.972565 163.538422 160.488555 189.355413 131.556987 189.355413 C 102.625419 189.355413 79.141409 163.538422 79.141409 131.732694 C 79.141409 99.926966 102.625419 74.109975 131.556987 74.109975 C 160.488555 74.109975 183.972565 99.926966 183.972565 131.732694 Z " transform="matrix(.08533 0 0 .07762 -.22584 .77495)"/>
<path style="stroke-width:9.559" d="M 183.945298 131.731777 C 183.945298 163.564673 160.513067 189.324626 131.556657 189.324626 C 102.600248 189.324626 79.168017 163.564673 79.168017 131.731777 C 79.168017 99.898882 102.600248 74.138928 131.556657 74.138928 C 160.513067 74.138928 183.945298 99.898882 183.945298 131.731777 Z " transform="matrix(.06435 0 0 .05853 2.53462 3.28932)"/>
</g>
<path style="fill:#fff;fill-opacity:.149" d="M 0.917969 0 C 0.410156 0 0 0.410156 0 0.917969 L 0 21.082031 C 0 21.589844 0.410156 22 0.917969 22 L 7.691406 22 L 13.578125 0 Z "/>
</svg>
