<svg width="22" xmlns="http://www.w3.org/2000/svg" height="22" viewBox="0 0 22 22" xmlns:xlink="http://www.w3.org/1999/xlink">
<defs>
<linearGradient gradientTransform="matrix(.45833 0 0 .45833 0 -460.33267)" id="linear0" y1="1053.158" y2="1004.847" gradientUnits="userSpaceOnUse" x2="0">
<stop offset="0" style="stop-color:#cd5b23"/>
<stop offset="1" style="stop-color:#ff6700"/>
</linearGradient>
</defs>
<path style="fill:url(#linear0)" d="M 0.890625 0 L 21.109375 0 C 21.601562 0 22 0.398438 22 0.890625 L 22 21.109375 C 22 21.601562 21.601562 22 21.109375 22 L 0.890625 22 C 0.398438 22 0 21.601562 0 21.109375 L 0 0.890625 C 0 0.398438 0.398438 0 0.890625 0 Z "/>
<g style="fill:#fff">
<path d="M 15.695312 17.910156 L 14.410156 17.488281 L 14.148438 17.613281 C 13.347656 17.992188 12.519531 18.214844 11.613281 18.296875 C 11.273438 18.328125 10.386719 18.308594 10.070312 18.265625 C 9.511719 18.1875 9.058594 18.082031 8.5625 17.90625 C 6.113281 17.050781 4.289062 14.941406 3.792969 12.394531 C 3.710938 11.960938 3.683594 11.683594 3.667969 11.179688 C 3.652344 10.464844 3.707031 9.925781 3.863281 9.277344 C 4.539062 6.464844 6.800781 4.324219 9.644531 3.789062 C 10.015625 3.71875 10.238281 3.695312 10.644531 3.675781 C 12.257812 3.597656 13.796875 4.03125 15.125 4.9375 C 15.578125 5.246094 15.832031 5.460938 16.261719 5.902344 C 16.640625 6.296875 16.878906 6.589844 17.132812 6.972656 C 18.207031 8.617188 18.578125 10.585938 18.175781 12.515625 C 17.941406 13.640625 17.386719 14.789062 16.644531 15.667969 C 16.570312 15.757812 16.511719 15.847656 16.511719 15.867188 C 16.511719 15.902344 17 18.214844 17.023438 18.300781 C 17.03125 18.320312 17.023438 18.335938 17.007812 18.332031 C 16.996094 18.332031 16.402344 18.140625 15.695312 17.910156 Z M 5.882812 14.386719 C 6.175781 14.332031 6.378906 14.183594 6.5 13.933594 C 6.613281 13.703125 6.621094 13.601562 6.585938 12.808594 C 6.566406 12.425781 6.546875 12.09375 6.542969 12.070312 C 6.535156 12.027344 6.523438 12.023438 6.386719 12.023438 C 6.089844 12.023438 5.871094 12.046875 5.855469 12.082031 C 5.84375 12.101562 5.855469 12.429688 5.871094 12.8125 C 5.90625 13.484375 5.902344 13.589844 5.855469 13.679688 C 5.777344 13.832031 5.476562 13.851562 5.371094 13.714844 C 5.304688 13.628906 5.292969 13.546875 5.257812 12.824219 C 5.238281 12.34375 5.21875 12.128906 5.203125 12.109375 C 5.183594 12.089844 5.113281 12.085938 4.867188 12.101562 C 4.699219 12.113281 4.550781 12.132812 4.539062 12.144531 C 4.511719 12.175781 4.578125 13.554688 4.617188 13.722656 C 4.65625 13.902344 4.71875 14.019531 4.824219 14.140625 C 4.925781 14.257812 5.054688 14.34375 5.1875 14.378906 C 5.296875 14.410156 5.746094 14.414062 5.882812 14.386719 Z M 7.40625 14.273438 C 7.960938 14.242188 8.199219 14.203125 8.339844 14.128906 C 8.5 14.046875 8.609375 13.882812 8.644531 13.660156 L 8.667969 13.535156 L 8.691406 13.605469 C 8.738281 13.746094 8.800781 13.847656 8.894531 13.945312 C 9.066406 14.117188 9.25 14.183594 9.59375 14.179688 C 9.949219 14.179688 10.183594 14.113281 10.34375 13.964844 C 10.554688 13.773438 10.648438 13.535156 10.648438 13.203125 C 10.648438 12.804688 10.589844 11.808594 10.5625 11.792969 C 10.550781 11.78125 10.453125 11.78125 10.347656 11.785156 C 9.988281 11.808594 9.902344 11.820312 9.894531 11.847656 C 9.886719 11.863281 9.898438 12.207031 9.917969 12.605469 C 9.949219 13.316406 9.949219 13.335938 9.914062 13.414062 C 9.863281 13.519531 9.765625 13.574219 9.632812 13.574219 C 9.511719 13.574219 9.4375 13.53125 9.378906 13.425781 C 9.347656 13.367188 9.335938 13.257812 9.304688 12.628906 C 9.285156 12.210938 9.261719 11.886719 9.25 11.875 C 9.222656 11.847656 8.632812 11.875 8.589844 11.90625 C 8.5625 11.929688 8.5625 11.992188 8.589844 12.550781 C 8.609375 12.890625 8.621094 13.207031 8.621094 13.25 L 8.621094 13.328125 L 8.578125 13.238281 C 8.535156 13.152344 8.417969 13.046875 8.324219 13.007812 C 8.277344 12.988281 8.277344 12.988281 8.347656 12.925781 C 8.386719 12.894531 8.4375 12.816406 8.460938 12.757812 C 8.5 12.667969 8.503906 12.625 8.496094 12.484375 C 8.484375 12.242188 8.402344 12.105469 8.199219 12 C 8.117188 11.953125 8.085938 11.949219 7.820312 11.949219 C 7.660156 11.949219 7.390625 11.957031 7.226562 11.964844 L 6.925781 11.980469 L 7.097656 11.941406 C 7.589844 11.832031 7.964844 11.539062 8.179688 11.09375 C 8.328125 10.785156 8.367188 10.585938 8.367188 10.128906 C 8.371094 9.738281 8.34375 9.539062 8.265625 9.277344 C 8.128906 8.820312 7.863281 8.488281 7.488281 8.300781 C 7.21875 8.164062 7.058594 8.128906 6.664062 8.128906 C 6.21875 8.125 5.992188 8.175781 5.660156 8.347656 C 5.425781 8.472656 5.171875 8.738281 5.042969 8.996094 C 4.898438 9.28125 4.84375 9.511719 4.832031 9.914062 C 4.808594 10.671875 4.984375 11.1875 5.402344 11.589844 C 5.679688 11.859375 6.082031 12 6.5625 12 C 6.636719 12 6.65625 12.007812 6.636719 12.027344 C 6.613281 12.058594 6.707031 14.183594 6.734375 14.257812 C 6.757812 14.316406 6.738281 14.3125 7.40625 14.273438 Z M 7.40625 13.53125 C 7.398438 13.4375 7.394531 13.351562 7.402344 13.347656 C 7.40625 13.34375 7.507812 13.335938 7.625 13.332031 C 7.839844 13.328125 7.84375 13.328125 7.890625 13.386719 C 7.953125 13.457031 7.953125 13.546875 7.894531 13.617188 C 7.855469 13.664062 7.824219 13.675781 7.699219 13.6875 C 7.613281 13.699219 7.519531 13.707031 7.484375 13.707031 L 7.421875 13.707031 Z M 7.371094 12.746094 C 7.363281 12.703125 7.355469 12.632812 7.355469 12.585938 L 7.355469 12.5 L 7.5 12.492188 C 7.734375 12.472656 7.820312 12.515625 7.820312 12.648438 C 7.820312 12.777344 7.734375 12.824219 7.503906 12.824219 L 7.382812 12.824219 Z M 6.382812 11.023438 C 6.269531 10.980469 6.152344 10.875 6.085938 10.753906 C 5.929688 10.457031 5.890625 9.796875 6.011719 9.464844 C 6.097656 9.234375 6.285156 9.089844 6.53125 9.066406 C 6.871094 9.039062 7.101562 9.222656 7.207031 9.605469 C 7.25 9.773438 7.269531 10.285156 7.238281 10.472656 C 7.171875 10.863281 6.960938 11.058594 6.609375 11.054688 C 6.527344 11.054688 6.425781 11.039062 6.382812 11.023438 Z M 11.386719 14.035156 C 11.429688 14.019531 11.433594 14.003906 11.429688 13.859375 C 11.429688 13.769531 11.421875 13.53125 11.410156 13.332031 C 11.398438 13.128906 11.394531 12.957031 11.398438 12.953125 C 11.402344 12.949219 11.574219 13.183594 11.773438 13.472656 L 12.140625 14.003906 L 12.351562 13.988281 C 12.46875 13.980469 12.601562 13.976562 12.644531 13.976562 C 12.808594 13.976562 12.804688 14.050781 12.746094 12.917969 C 12.71875 12.363281 12.695312 11.867188 12.695312 11.8125 C 12.695312 11.675781 12.664062 11.648438 12.507812 11.660156 C 12.441406 11.667969 12.308594 11.679688 12.210938 11.683594 C 12.082031 11.695312 12.035156 11.703125 12.023438 11.730469 C 12.015625 11.753906 12.039062 12.386719 12.0625 12.707031 C 12.066406 12.757812 12.0625 12.796875 12.054688 12.792969 C 12.046875 12.789062 11.878906 12.550781 11.683594 12.265625 C 11.484375 11.984375 11.3125 11.746094 11.300781 11.742188 C 11.257812 11.722656 10.707031 11.769531 10.6875 11.792969 C 10.652344 11.824219 10.761719 14.039062 10.796875 14.0625 C 10.824219 14.082031 11.324219 14.058594 11.386719 14.035156 Z M 14.152344 13.878906 C 14.1875 13.867188 14.1875 13.839844 14.144531 12.9375 C 14.125 12.542969 14.109375 12.214844 14.109375 12.214844 C 14.109375 12.210938 14.246094 12.203125 14.40625 12.191406 C 14.574219 12.183594 14.714844 12.164062 14.726562 12.152344 C 14.742188 12.132812 14.746094 12.046875 14.730469 11.84375 L 14.714844 11.558594 L 14.5625 11.546875 C 14.480469 11.542969 14.441406 11.535156 14.476562 11.53125 C 14.59375 11.527344 14.921875 11.429688 15.078125 11.355469 C 15.234375 11.28125 15.613281 11.03125 15.746094 10.917969 L 15.816406 10.855469 L 15.78125 10.085938 C 15.761719 9.664062 15.742188 9.300781 15.734375 9.285156 C 15.730469 9.265625 15.710938 9.246094 15.691406 9.242188 C 15.625 9.230469 14.09375 9.328125 14.078125 9.347656 C 14.050781 9.371094 14.089844 10.128906 14.117188 10.15625 C 14.128906 10.167969 14.25 10.167969 14.457031 10.15625 C 14.632812 10.144531 14.777344 10.140625 14.78125 10.144531 C 14.789062 10.148438 14.792969 10.214844 14.792969 10.289062 L 14.792969 10.429688 L 14.644531 10.515625 C 14.449219 10.628906 14.316406 10.667969 14.125 10.667969 C 13.648438 10.671875 13.417969 10.355469 13.386719 9.65625 C 13.367188 9.214844 13.429688 8.960938 13.617188 8.769531 C 13.734375 8.644531 13.871094 8.589844 14.066406 8.589844 C 14.144531 8.589844 14.242188 8.597656 14.285156 8.613281 C 14.390625 8.644531 14.511719 8.753906 14.5625 8.867188 C 14.597656 8.941406 14.617188 8.957031 14.660156 8.957031 C 14.691406 8.957031 14.921875 8.902344 15.175781 8.839844 L 15.636719 8.71875 L 15.636719 8.636719 C 15.636719 8.589844 15.605469 8.496094 15.558594 8.402344 C 15.367188 7.996094 15.0625 7.769531 14.625 7.703125 C 14.394531 7.667969 13.832031 7.691406 13.589844 7.742188 C 12.792969 7.914062 12.328125 8.511719 12.261719 9.453125 C 12.246094 9.648438 12.242188 9.585938 12.203125 8.789062 C 12.175781 8.203125 12.15625 7.902344 12.140625 7.886719 C 12.121094 7.867188 11.957031 7.871094 11.457031 7.898438 C 11.097656 7.917969 10.785156 7.9375 10.765625 7.941406 C 10.722656 7.957031 10.742188 7.855469 10.527344 9.03125 C 10.429688 9.574219 10.34375 10.023438 10.34375 10.035156 C 10.339844 10.042969 10.207031 9.597656 10.046875 9.039062 C 9.859375 8.382812 9.746094 8.023438 9.726562 8.015625 C 9.6875 7.992188 8.355469 8.070312 8.332031 8.09375 C 8.316406 8.113281 8.46875 11.59375 8.492188 11.753906 L 8.503906 11.824219 L 8.828125 11.808594 C 9.261719 11.789062 9.402344 11.773438 9.410156 11.746094 C 9.417969 11.734375 9.394531 11.1875 9.363281 10.53125 C 9.332031 9.878906 9.308594 9.339844 9.3125 9.335938 C 9.316406 9.332031 9.328125 9.371094 9.34375 9.421875 C 9.402344 9.667969 9.992188 11.707031 10.007812 11.722656 C 10.019531 11.734375 10.183594 11.730469 10.410156 11.71875 C 10.707031 11.699219 10.804688 11.6875 10.820312 11.664062 C 10.832031 11.648438 10.941406 11.097656 11.0625 10.441406 C 11.179688 9.785156 11.285156 9.253906 11.289062 9.257812 C 11.292969 9.261719 11.320312 9.792969 11.351562 10.441406 C 11.386719 11.121094 11.417969 11.625 11.429688 11.636719 C 11.453125 11.664062 12.292969 11.621094 12.320312 11.59375 C 12.332031 11.582031 12.320312 11.175781 12.292969 10.691406 C 12.269531 10.203125 12.257812 9.785156 12.261719 9.765625 C 12.265625 9.746094 12.269531 9.773438 12.273438 9.824219 C 12.277344 10.074219 12.371094 10.429688 12.496094 10.6875 C 12.753906 11.214844 13.148438 11.488281 13.75 11.558594 L 13.972656 11.582031 L 13.449219 11.609375 C 13.164062 11.625 12.886719 11.644531 12.835938 11.652344 L 12.746094 11.664062 L 12.75 11.949219 C 12.753906 12.152344 12.761719 12.242188 12.78125 12.261719 C 12.800781 12.28125 12.875 12.28125 13.097656 12.265625 C 13.253906 12.257812 13.386719 12.25 13.390625 12.253906 C 13.394531 12.257812 13.414062 12.625 13.4375 13.066406 C 13.460938 13.511719 13.484375 13.882812 13.492188 13.898438 C 13.5 13.914062 13.59375 13.914062 13.816406 13.90625 C 13.984375 13.898438 14.136719 13.886719 14.152344 13.878906 Z M 16.214844 13.78125 C 16.476562 13.710938 16.664062 13.554688 16.773438 13.3125 C 16.871094 13.097656 16.875 12.996094 16.839844 12.21875 C 16.824219 11.832031 16.800781 11.496094 16.789062 11.46875 L 16.769531 11.421875 L 16.476562 11.4375 C 16.152344 11.449219 16.117188 11.457031 16.101562 11.492188 C 16.097656 11.507812 16.105469 11.761719 16.121094 12.054688 C 16.167969 13.011719 16.164062 13.085938 16.023438 13.175781 C 15.941406 13.226562 15.765625 13.230469 15.683594 13.179688 C 15.5625 13.105469 15.554688 13.046875 15.515625 12.28125 C 15.5 11.894531 15.480469 11.5625 15.472656 11.542969 C 15.460938 11.503906 15.445312 11.503906 15.140625 11.515625 C 14.964844 11.523438 14.8125 11.535156 14.800781 11.539062 C 14.761719 11.566406 14.824219 12.929688 14.875 13.148438 C 14.96875 13.527344 15.207031 13.761719 15.550781 13.8125 C 15.71875 13.835938 16.070312 13.820312 16.214844 13.78125 Z M 17.429688 13.695312 C 17.507812 13.691406 17.582031 13.675781 17.585938 13.664062 C 17.609375 13.628906 17.59375 13.179688 17.574219 13.117188 L 17.554688 13.066406 L 17.269531 13.078125 C 17.082031 13.085938 16.976562 13.101562 16.957031 13.117188 C 16.921875 13.152344 16.953125 13.683594 16.992188 13.707031 C 17.015625 13.722656 17.109375 13.722656 17.429688 13.695312 Z M 17.453125 12.976562 C 17.515625 12.914062 17.558594 11.460938 17.5 11.402344 C 17.46875 11.371094 16.898438 11.398438 16.863281 11.4375 C 16.816406 11.484375 16.84375 11.839844 16.933594 12.421875 C 16.976562 12.707031 17.019531 12.953125 17.023438 12.976562 C 17.035156 13.007812 17.054688 13.011719 17.234375 13.007812 C 17.34375 13.003906 17.441406 12.988281 17.453125 12.976562 Z M 16.535156 11.367188 C 16.71875 11.355469 16.882812 11.339844 16.894531 11.332031 C 16.910156 11.320312 16.914062 11.214844 16.902344 10.933594 C 16.886719 10.460938 16.878906 10.382812 16.835938 10.371094 C 16.816406 10.367188 16.617188 10.375 16.390625 10.390625 C 16.164062 10.40625 15.960938 10.417969 15.9375 10.417969 C 15.910156 10.417969 15.886719 10.433594 15.878906 10.453125 C 15.875 10.46875 15.878906 10.679688 15.890625 10.917969 C 15.90625 11.257812 15.917969 11.359375 15.941406 11.378906 C 15.960938 11.390625 16.015625 11.398438 16.085938 11.394531 C 16.148438 11.386719 16.351562 11.375 16.535156 11.367188 Z M 16.5625 10.214844 C 16.710938 10.210938 16.703125 10.253906 16.761719 9.320312 C 16.8125 8.574219 16.816406 8.433594 16.796875 8.0625 C 16.785156 7.804688 16.769531 7.632812 16.757812 7.621094 C 16.726562 7.589844 15.78125 7.636719 15.734375 7.671875 C 15.707031 7.695312 15.703125 7.738281 15.722656 8.128906 C 15.742188 8.492188 15.765625 8.679688 15.878906 9.375 C 15.949219 9.828125 16.015625 10.207031 16.023438 10.21875 C 16.03125 10.230469 16.109375 10.234375 16.257812 10.226562 C 16.378906 10.21875 16.515625 10.214844 16.5625 10.210938 Z "/>
<path style="fill-opacity:.149" d="M 0.917969 0 C 0.410156 0 0 0.410156 0 0.917969 L 0 21.082031 C 0 21.589844 0.410156 22 0.917969 22 L 7.691406 22 L 13.578125 0 Z "/>
</g>
</svg>
