<svg width="22" xmlns="http://www.w3.org/2000/svg" height="22" viewBox="0 0 22 22" xmlns:xlink="http://www.w3.org/1999/xlink">
<defs>
<linearGradient gradientTransform="matrix(.45833 0 0 -.45833 0 482.33266)" id="linear0" y1="1053.158" y2="1004.847" gradientUnits="userSpaceOnUse" x2="0">
<stop offset="0" style="stop-color:#9de48e"/>
<stop offset="1" style="stop-color:#4c9626"/>
</linearGradient>
</defs>
<path style="fill:url(#linear0)" d="M 0.890625 22 L 21.109375 22 C 21.601562 22 22 21.601562 22 21.109375 L 22 0.890625 C 22 0.398438 21.601562 0 21.109375 0 L 0.890625 0 C 0.398438 0 0 0.398438 0 0.890625 L 0 21.109375 C 0 21.601562 0.398438 22 0.890625 22 Z "/>
<g style="fill:#fff">
<path d="M 10.957031 4.460938 C 10.75 4.460938 10.554688 4.476562 10.355469 4.496094 C 10.195312 4.511719 10.03125 4.53125 9.875 4.558594 L 9.875 4.570312 C 9.363281 4.660156 8.863281 4.792969 8.394531 4.988281 C 7.578125 5.328125 6.960938 5.675781 6.335938 6.28125 C 6.523438 6.648438 6.890625 7.292969 7.125 7.601562 L 5.300781 7.601562 C 4.910156 8.164062 4.652344 8.609375 4.441406 9.277344 C 4.226562 9.945312 4.105469 10.660156 4.105469 11.394531 C 4.105469 14.824219 6.605469 17.675781 9.875 18.234375 L 9.875 18.246094 C 10.027344 18.269531 10.1875 18.28125 10.34375 18.296875 C 10.546875 18.316406 10.746094 18.332031 10.957031 18.332031 C 10.988281 18.332031 11.015625 18.332031 11.042969 18.332031 C 11.253906 18.332031 11.46875 18.316406 11.671875 18.296875 C 11.828125 18.28125 11.976562 18.269531 12.128906 18.246094 L 12.128906 18.234375 C 15.398438 17.675781 17.894531 14.828125 17.894531 11.394531 C 17.894531 10.660156 17.777344 9.945312 17.5625 9.277344 C 17.347656 8.609375 17.09375 8.164062 16.699219 7.601562 L 14.875 7.601562 C 15.113281 7.292969 15.476562 6.648438 15.664062 6.28125 C 15.039062 5.675781 14.421875 5.328125 13.605469 4.988281 C 13.140625 4.792969 12.640625 4.660156 12.128906 4.570312 L 12.128906 4.558594 C 11.96875 4.53125 11.8125 4.511719 11.648438 4.496094 C 11.453125 4.476562 11.246094 4.460938 11.042969 4.460938 C 11.015625 4.457031 10.988281 4.460938 10.957031 4.460938 Z M 7.222656 10.644531 C 7.78125 10.644531 8.234375 11.097656 8.234375 11.65625 C 8.234375 12.214844 7.78125 12.664062 7.222656 12.664062 C 6.667969 12.664062 6.214844 12.214844 6.214844 11.65625 C 6.214844 11.097656 6.667969 10.644531 7.222656 10.644531 Z M 14.777344 10.644531 C 15.335938 10.644531 15.789062 11.097656 15.789062 11.65625 C 15.789062 12.214844 15.335938 12.664062 14.777344 12.664062 C 14.21875 12.664062 13.765625 12.214844 13.765625 11.65625 C 13.765625 11.097656 14.21875 10.644531 14.777344 10.644531 Z M 5.980469 14.105469 L 16.023438 14.105469 L 16.023438 14.316406 L 15.160156 14.316406 C 15.144531 15.042969 14.644531 15.4375 14.1875 15.867188 C 13.722656 15.375 13.46875 14.835938 13.632812 14.316406 L 8.371094 14.316406 C 8.53125 14.835938 8.28125 15.375 7.816406 15.867188 C 7.355469 15.4375 6.855469 15.042969 6.84375 14.316406 L 5.980469 14.316406 Z "/>
<path d="M 15.195312 7.425781 C 15.828125 6.605469 16.003906 5.851562 17.230469 3.667969 C 17.738281 4.207031 17.863281 6.476562 16.675781 7.425781 Z "/>
<path d="M 6.722656 7.425781 C 6.089844 6.605469 5.910156 5.851562 4.683594 3.667969 C 4.179688 4.207031 4.050781 6.476562 5.242188 7.425781 Z "/>
<path style="fill-opacity:.149" d="M 0.917969 0 C 0.410156 0 0 0.410156 0 0.917969 L 0 21.082031 C 0 21.589844 0.410156 22 0.917969 22 L 7.691406 22 L 13.578125 0 Z "/>
</g>
</svg>
