<svg width="22" xmlns="http://www.w3.org/2000/svg" height="22" viewBox="0 0 22 22" xmlns:xlink="http://www.w3.org/1999/xlink">
<defs>
<linearGradient gradientTransform="matrix(.45833 0 0 .45833 0 -460.33267)" id="linear0" y1="1053.158" y2="1004.847" gradientUnits="userSpaceOnUse" x2="0">
<stop offset="0" style="stop-color:#3f3f3f"/>
<stop offset="1" style="stop-color:#535353"/>
</linearGradient>
</defs>
<path style="fill:url(#linear0)" d="M 0.890625 0 L 21.109375 0 C 21.601562 0 22 0.398438 22 0.890625 L 22 21.109375 C 22 21.601562 21.601562 22 21.109375 22 L 0.890625 22 C 0.398438 22 0 21.601562 0 21.109375 L 0 0.890625 C 0 0.398438 0.398438 0 0.890625 0 Z "/>
<path style="fill:#fff" d="M 5.035156 9.917969 L 8.472656 9.917969 C 9.230469 9.917969 9.84375 10.53125 9.84375 11.289062 L 9.84375 14.726562 C 9.84375 15.484375 9.230469 16.09375 8.472656 16.09375 L 5.035156 16.09375 C 4.277344 16.09375 3.667969 15.484375 3.667969 14.726562 L 3.667969 11.289062 C 3.667969 10.53125 4.277344 9.917969 5.035156 9.917969 Z "/>
<path style="stroke-opacity:.502;fill:none;stroke:#fff;stroke-linejoin:round;stroke-width:5.341;stroke-miterlimit:20" d="M 46.714489 -92.091619 L 93.536222 -92.091619 C 102.431818 -92.091619 109.516335 -84.953835 109.516335 -76.058239 L 109.516335 -29.183239 C 109.516335 -20.287642 102.431818 -13.203125 93.536222 -13.203125 L 46.661222 -13.203125 C 37.765625 -13.203125 30.681108 -20.287642 30.681108 -29.183239 L 30.681108 -76.058239 C 30.681108 -84.953835 37.818892 -92.091619 46.714489 -92.091619 Z " transform="matrix(.07333 0 0 .07333 1.61333 16.86667)"/>
<path style="fill:#fff" d="M 9.050781 5.90625 L 12.488281 5.90625 C 13.246094 5.90625 13.855469 6.515625 13.855469 7.273438 L 13.855469 10.710938 C 13.855469 11.46875 13.246094 12.082031 12.488281 12.082031 L 9.050781 12.082031 C 8.292969 12.082031 7.679688 11.46875 7.679688 10.710938 L 7.679688 7.273438 C 7.679688 6.515625 8.292969 5.90625 9.050781 5.90625 Z "/>
<path style="stroke-opacity:.502;fill:none;stroke:#fff;stroke-linejoin:round;stroke-width:5.341;stroke-miterlimit:20" d="M 101.473011 -146.796875 L 148.294744 -146.796875 C 157.190341 -146.796875 164.274858 -139.712358 164.274858 -130.816761 L 164.274858 -83.941761 C 164.274858 -75.046165 157.190341 -67.908381 148.294744 -67.908381 L 101.419744 -67.908381 C 92.524148 -67.908381 85.386364 -75.046165 85.386364 -83.941761 L 85.386364 -130.816761 C 85.386364 -139.712358 92.577415 -146.796875 101.473011 -146.796875 Z " transform="matrix(.07333 0 0 .07333 1.61333 16.86667)"/>
<path style="fill:#fff" d="M 13.527344 8.839844 L 16.964844 8.839844 C 17.722656 8.839844 18.332031 9.449219 18.332031 10.207031 L 18.332031 13.644531 C 18.332031 14.402344 17.722656 15.015625 16.964844 15.015625 L 13.527344 15.015625 C 12.769531 15.015625 12.15625 14.402344 12.15625 13.644531 L 12.15625 10.207031 C 12.15625 9.449219 12.769531 8.839844 13.527344 8.839844 Z "/>
<path style="stroke-opacity:.502;fill:none;stroke:#fff;stroke-linejoin:round;stroke-width:5.341;stroke-miterlimit:20" d="M 162.517045 -106.793324 L 209.338778 -106.793324 C 218.234375 -106.793324 225.318892 -99.708807 225.318892 -90.81321 L 225.318892 -43.93821 C 225.318892 -35.042614 218.234375 -27.958097 209.338778 -27.958097 L 162.463778 -27.958097 C 153.568182 -27.958097 146.483665 -35.042614 146.483665 -43.93821 L 146.483665 -90.81321 C 146.483665 -99.708807 153.621449 -106.793324 162.517045 -106.793324 Z " transform="matrix(.07333 0 0 .07333 1.61333 16.86667)"/>
<path style="fill:#fff;fill-opacity:.149" d="M 0.917969 0 C 0.410156 0 0 0.410156 0 0.917969 L 0 21.082031 C 0 21.589844 0.410156 22 0.917969 22 L 7.691406 22 L 13.578125 0 Z "/>
</svg>
