<svg width="22" xmlns="http://www.w3.org/2000/svg" height="22" viewBox="0 0 22 22" xmlns:xlink="http://www.w3.org/1999/xlink">
<defs>
<linearGradient gradientTransform="matrix(.45833 0 0 -.45833 0 482.33267)" id="linear0" y1="1053.158" y2="1004.847" gradientUnits="userSpaceOnUse" x2="0">
<stop offset="0" style="stop-color:#648db5"/>
<stop offset=".768" style="stop-color:#527fab"/>
<stop offset="1" style="stop-color:#3f709f"/>
</linearGradient>
</defs>
<path style="fill:url(#linear0)" d="M 0.890625 22 L 21.109375 22 C 21.601562 22 22 21.601562 22 21.109375 L 22 0.890625 C 22 0.398438 21.601562 0 21.109375 0 L 0.890625 0 C 0.398438 0 0 0.398438 0 0.890625 L 0 21.109375 C 0 21.601562 0.398438 22 0.890625 22 Z "/>
<g style="fill:#fff">
<path d="M 12.332031 4.132812 C 10.933594 4.320312 9.429688 5.019531 8.203125 7.085938 C 5.410156 11.808594 5.609375 13.453125 5.160156 13.984375 C 4.714844 14.511719 3.511719 14.800781 3.683594 15.398438 C 3.859375 16 4.035156 15.921875 4.035156 15.921875 C 4.035156 15.921875 5.792969 18.539062 10.902344 17.863281 C 16.007812 17.183594 16.714844 16.078125 16.667969 15.527344 C 16.621094 14.980469 15.542969 14.578125 15.542969 14.578125 C 15.542969 14.578125 14.742188 11.695312 14.949219 10.507812 C 15.15625 9.324219 15.933594 7.597656 16.699219 7.226562 C 17.46875 6.851562 17.851562 8.480469 18.25 8.078125 C 18.644531 7.675781 17.582031 4.570312 16.414062 4.542969 C 15.753906 4.53125 14.128906 3.894531 12.332031 4.132812 Z M 12.332031 8.101562 L 12.726562 9.285156 L 13.90625 9.628906 L 12.910156 10.359375 L 12.953125 11.601562 L 11.953125 10.871094 L 10.773438 11.292969 L 11.152344 10.125 L 10.394531 9.144531 L 11.636719 9.128906 Z M 8.339844 11.578125 L 8.382812 12.433594 L 9.128906 12.894531 L 8.324219 13.191406 L 8.117188 14.039062 L 7.570312 13.378906 L 6.714844 13.4375 L 7.175781 12.722656 L 6.847656 11.917969 L 7.679688 12.140625 Z M 11.675781 11.753906 L 12.476562 12.855469 L 13.824219 12.804688 L 13.042969 13.914062 L 13.503906 15.183594 L 12.207031 14.769531 L 11.140625 15.613281 L 11.132812 14.246094 L 10.007812 13.496094 L 11.292969 13.0625 Z "/>
<path style="fill-opacity:.149" d="M 0.917969 0 C 0.410156 0 0 0.410156 0 0.917969 L 0 21.082031 C 0 21.589844 0.410156 22 0.917969 22 L 7.691406 22 L 13.578125 0 Z "/>
</g>
</svg>
