<svg width="22" xmlns="http://www.w3.org/2000/svg" height="22" viewBox="0 0 22 22" xmlns:xlink="http://www.w3.org/1999/xlink">
<defs>
<linearGradient gradientTransform="matrix(.45833 0 0 .45833 0 -460.33267)" id="linear0" y1="1053.158" y2="1004.847" gradientUnits="userSpaceOnUse" x2="0">
<stop offset="0" style="stop-color:#1f4dc0"/>
<stop offset="1" style="stop-color:#1e7af1"/>
</linearGradient>
</defs>
<path style="fill:url(#linear0)" d="M 0.890625 0 L 21.109375 0 C 21.601562 0 22 0.398438 22 0.890625 L 22 21.109375 C 22 21.601562 21.601562 22 21.109375 22 L 0.890625 22 C 0.398438 22 0 21.601562 0 21.109375 L 0 0.890625 C 0 0.398438 0.398438 0 0.890625 0 Z "/>
<g style="fill:#fff">
<path style="fill-opacity:.149" d="M 0.917969 0 C 0.410156 0 0 0.410156 0 0.917969 L 0 21.082031 C 0 21.589844 0.410156 22 0.917969 22 L 7.691406 22 L 13.578125 0 Z "/>
<path style="stroke:#fff;stroke-linejoin:round;stroke-width:1.118" d="M 214.954545 172.863636 C 194.363636 112.545455 158.5 105.590909 159.272727 95.954545 C 159.863636 88.909091 176.772727 84.545455 176.772727 84.545455 C 159.681818 80.727273 148.590909 85.090909 139.454545 92.045455 C 117.409091 80.272727 53.045455 80.227273 48.772727 121.227273 C 48.772727 121.227273 38.5 130.227273 41.681818 133.863636 C 44.772727 137.409091 60 123.5 92.090909 123.136364 C 99.272727 140.045455 112.818182 146.954545 130.863636 146.727273 C 123.363636 142.045455 114.454545 138.545455 114.590909 125.5 C 139 128.318182 156 138.227273 171.636364 148.863636 C 161.954545 135.045455 126.363636 105.772727 69.772727 117.545455 C 94.136364 69.954545 188.454545 110.5 214.954545 172.863636 Z " transform="scale(.08594)"/>
</g>
</svg>
