<svg width="22" xmlns="http://www.w3.org/2000/svg" height="22" viewBox="0 0 22 22" xmlns:xlink="http://www.w3.org/1999/xlink">
<defs>
<linearGradient gradientTransform="matrix(.45833 0 0 -.45833 0 -460.33267)" id="linear0" y1="-1047.454" y2="-1005.354" gradientUnits="userSpaceOnUse" x2="0">
<stop offset="0" style="stop-color:#3464a3"/>
<stop offset="1" style="stop-color:#408eb0"/>
</linearGradient>
</defs>
<path style="fill:url(#linear0)" d="M 0.890625 22 L 21.109375 22 C 21.601562 22 22 21.601562 22 21.109375 L 22 0.890625 C 22 0.398438 21.601562 0 21.109375 0 L 0.890625 0 C 0.398438 0 0 0.398438 0 0.890625 L 0 21.109375 C 0 21.601562 0.398438 22 0.890625 22 Z "/>
<g style="fill:#fff">
<path d="M 3.667969 6.769531 L 7.855469 4.089844 L 10.6875 6.445312 L 6.425781 9.152344 Z "/>
<path d="M 3.667969 11.933594 L 6.425781 9.554688 L 10.6875 12.210938 L 7.855469 14.667969 Z "/>
<path d="M 18.332031 6.769531 L 14.144531 4.089844 L 11.3125 6.445312 L 15.574219 9.152344 Z "/>
<path d="M 18.332031 11.933594 L 15.574219 9.554688 L 11.3125 12.210938 L 14.144531 14.667969 Z "/>
<path d="M 10.683594 13.171875 L 7.855469 15.65625 L 6.625 14.902344 L 6.625 15.503906 L 10.683594 17.910156 Z "/>
<path d="M 11.34375 13.171875 L 14.171875 15.65625 L 15.398438 14.902344 L 15.398438 15.503906 L 11.34375 17.910156 Z "/>
<path style="fill-opacity:.149" d="M 0.917969 0 C 0.410156 0 0 0.410156 0 0.917969 L 0 21.082031 C 0 21.589844 0.410156 22 0.917969 22 L 7.691406 22 L 13.578125 0 Z "/>
</g>
</svg>
