<svg width="22" xmlns="http://www.w3.org/2000/svg" height="22" viewBox="0 0 22 22" xmlns:xlink="http://www.w3.org/1999/xlink">
<defs>
<linearGradient gradientTransform="matrix(.45833 0 0 .45833 0 -460.33265)" id="linear0" y1="1053.158" y2="1004.847" gradientUnits="userSpaceOnUse" x2="0">
<stop offset="0" style="stop-color:#296c20"/>
<stop offset="1" style="stop-color:#76c35a"/>
</linearGradient>
</defs>
<path style="fill:url(#linear0)" d="M 0.890625 0 L 21.109375 0 C 21.601562 0 22 0.398438 22 0.890625 L 22 21.109375 C 22 21.601562 21.601562 22 21.109375 22 L 0.890625 22 C 0.398438 22 0 21.601562 0 21.109375 L 0 0.890625 C 0 0.398438 0.398438 0 0.890625 0 Z "/>
<g style="fill:#fff">
<path d="M 5.757812 4.589844 L 3.667969 7.984375 L 7.859375 7.984375 Z M 6.285156 4.589844 L 8.378906 7.984375 L 10.472656 4.589844 Z M 11 4.589844 L 8.90625 7.984375 L 13.09375 7.984375 Z M 11.527344 4.589844 L 13.621094 7.984375 L 15.714844 4.589844 Z M 16.242188 4.589844 L 14.140625 7.984375 L 18.332031 7.984375 Z M 3.667969 8.503906 L 10.59375 17.410156 L 8.121094 8.503906 Z M 8.640625 8.503906 L 11 17.410156 L 13.359375 8.503906 Z M 13.878906 8.503906 L 11.40625 17.410156 L 18.332031 8.503906 Z "/>
<path style="fill-opacity:.149" d="M 0.917969 0 C 0.410156 0 0 0.410156 0 0.917969 L 0 21.082031 C 0 21.589844 0.410156 22 0.917969 22 L 7.691406 22 L 13.578125 0 Z "/>
</g>
</svg>
