<svg width="22" xmlns="http://www.w3.org/2000/svg" height="22" viewBox="0 0 22 22" xmlns:xlink="http://www.w3.org/1999/xlink">
<defs>
<linearGradient gradientTransform="matrix(.45833 0 0 -.45833 0 -460.33267)" id="linear0" y1="-1050.994" y2="-1003.134" gradientUnits="userSpaceOnUse" x2="0">
<stop offset="0" style="stop-color:#3464a3"/>
<stop offset="1" style="stop-color:#6081ab"/>
</linearGradient>
</defs>
<path style="fill:url(#linear0)" d="M 0.890625 22 L 21.109375 22 C 21.601562 22 22 21.601562 22 21.109375 L 22 0.890625 C 22 0.398438 21.601562 0 21.109375 0 L 0.890625 0 C 0.398438 0 0 0.398438 0 0.890625 L 0 21.109375 C 0 21.601562 0.398438 22 0.890625 22 Z "/>
<path style="fill:#fff;fill-opacity:.149" d="M 0.917969 0 C 0.410156 0 0 0.410156 0 0.917969 L 0 21.082031 C 0 21.589844 0.410156 22 0.917969 22 L 7.691406 22 L 13.578125 0 Z "/>
<path style="fill:none;stroke:#fff;stroke-width:4.237" d="M 16.51369 24.71155 C 16.51369 24.71155 23.45119 24.71155 23.45119 24.71155 C 23.45119 24.71155 23.45119 31.64905 23.45119 31.64905 C 23.45119 35.484277 20.340395 38.595073 16.51369 38.595073 C 12.678463 38.595073 9.567667 35.484277 9.567667 31.64905 C 9.567667 27.822345 12.678463 24.71155 16.51369 24.71155 Z " transform="matrix(.45833 0 0 .45833 .25154 -.32613)"/>
<g style="fill:#fff">
<path d="M 13.476562 3.738281 L 13.476562 4.460938 C 13.277344 4.496094 13.082031 4.550781 12.898438 4.621094 C 12.710938 4.691406 12.535156 4.78125 12.367188 4.878906 C 12.199219 4.980469 12.039062 5.09375 11.890625 5.222656 C 11.738281 5.347656 11.601562 5.488281 11.476562 5.636719 C 11.351562 5.785156 11.238281 5.949219 11.136719 6.117188 C 11.039062 6.285156 10.953125 6.464844 10.886719 6.652344 C 10.816406 6.839844 10.761719 7.035156 10.726562 7.234375 C 10.691406 7.433594 10.671875 7.640625 10.671875 7.851562 C 10.671875 8.066406 10.691406 8.277344 10.730469 8.480469 C 10.769531 8.683594 10.824219 8.886719 10.894531 9.074219 C 10.96875 9.265625 11.054688 9.445312 11.160156 9.617188 C 11.261719 9.789062 11.378906 9.953125 11.511719 10.105469 C 11.640625 10.257812 11.785156 10.394531 11.941406 10.523438 C 12.09375 10.648438 12.261719 10.761719 12.433594 10.863281 C 12.609375 10.960938 12.796875 11.042969 12.988281 11.109375 C 13.179688 11.179688 13.382812 11.230469 13.589844 11.261719 L 13.589844 11.96875 L 14.179688 11.96875 C 14.421875 11.96875 14.65625 11.9375 14.886719 11.898438 L 14.886719 11.214844 C 15.054688 11.179688 15.214844 11.128906 15.371094 11.070312 L 15.71875 11.667969 C 16.125 11.503906 16.488281 11.265625 16.824219 10.988281 L 16.472656 10.382812 C 16.59375 10.269531 16.707031 10.148438 16.8125 10.019531 L 17.421875 10.371094 C 17.691406 10.035156 17.910156 9.65625 18.0625 9.246094 L 17.421875 8.875 C 17.46875 8.726562 17.503906 8.570312 17.53125 8.410156 L 18.273438 8.410156 C 18.300781 8.214844 18.332031 8.023438 18.332031 7.820312 C 18.332031 7.578125 18.300781 7.34375 18.261719 7.113281 L 17.5 7.113281 C 17.464844 6.960938 17.421875 6.808594 17.371094 6.664062 L 18.03125 6.28125 C 17.867188 5.875 17.628906 5.511719 17.351562 5.175781 L 16.699219 5.550781 C 16.59375 5.433594 16.484375 5.324219 16.363281 5.222656 L 16.734375 4.578125 C 16.394531 4.308594 16.023438 4.089844 15.609375 3.9375 L 15.238281 4.582031 C 15.085938 4.53125 14.933594 4.488281 14.773438 4.460938 L 14.773438 3.726562 C 14.578125 3.699219 14.382812 3.667969 14.179688 3.667969 C 13.941406 3.667969 13.707031 3.699219 13.476562 3.738281 Z M 14.179688 5.609375 C 15.410156 5.609375 16.390625 6.589844 16.390625 7.820312 C 16.390625 9.050781 15.410156 10.03125 14.179688 10.03125 L 11.96875 10.03125 L 11.96875 7.820312 C 11.96875 6.589844 12.949219 5.609375 14.179688 5.609375 Z "/>
<path d="M 11.972656 10.03125 L 11.972656 14.175781 C 11.972656 16.472656 10.113281 18.332031 7.820312 18.332031 C 7.472656 18.332031 7.222656 18.292969 6.902344 18.207031 C 6.429688 18.085938 6.046875 17.699219 6.046875 17.25 C 6.046875 16.710938 6.441406 16.316406 7.027344 16.316406 C 7.308594 16.316406 7.410156 16.371094 7.820312 16.371094 C 9.027344 16.371094 10.007812 15.390625 10.011719 14.179688 L 10.011719 12.273438 C 10.011719 12.105469 9.871094 11.964844 9.703125 11.964844 L 8.261719 11.964844 C 7.726562 11.964844 7.292969 11.539062 7.292969 11 C 7.289062 10.457031 7.730469 10.03125 8.273438 10.03125 "/>
<path d="M 10.027344 11.96875 L 10.027344 7.824219 C 10.027344 5.527344 11.886719 3.667969 14.179688 3.667969 C 14.527344 3.667969 14.777344 3.707031 15.097656 3.792969 C 15.570312 3.914062 15.953125 4.300781 15.953125 4.75 C 15.953125 5.289062 15.558594 5.683594 14.972656 5.683594 C 14.691406 5.683594 14.589844 5.628906 14.179688 5.628906 C 12.972656 5.628906 11.992188 6.609375 11.988281 7.820312 L 11.988281 9.726562 C 11.988281 9.894531 12.128906 10.035156 12.296875 10.035156 L 13.738281 10.035156 C 14.273438 10.035156 14.710938 10.460938 14.710938 11 C 14.710938 11.542969 14.269531 11.96875 13.726562 11.96875 "/>
</g>
</svg>
