<svg width="22" xmlns="http://www.w3.org/2000/svg" height="22" viewBox="0 0 22 22" xmlns:xlink="http://www.w3.org/1999/xlink">
<defs>
<clipPath id="clip1">
<rect width="22" height="22"/>
</clipPath>
<filter width="100%" x="0" y="0" height="100%" filterUnits="objectBoundingBox" id="alpha">
<feColorMatrix values="0 0 0 0 1 0 0 0 0 1 0 0 0 0 1 0 0 0 1 0" in="SourceGraphic" type="matrix"/>
</filter>
<g style="clip-path:url(#clip1)" id="surface6">
<path style="fill:#fff;stroke:#fff;stroke-width:.896" d="M 118.997869 69.776182 C 119.210938 74.357148 118.411932 79.630585 117.612926 84.105017 C 116.654119 89.325187 114.629972 96.889108 115.37571 102.056011 C 116.600852 110.472205 122.460227 113.934562 127.09446 119.953739 C 122.353693 119.527602 118.891335 118.622062 114.576705 116.544648 C 111.380682 115.05317 108.237926 113.242091 105.681108 110.845074 C 94.015625 99.712261 97.105114 83.678881 100.567472 69.776182 C 101.526278 65.994222 103.870028 56.299619 103.65696 52.783994 C 103.284091 47.137687 100.354403 43.036125 97.53125 38.455159 C 112.286222 39.999903 118.465199 56.885557 118.997869 69.776182 Z M 162.517045 71.587261 C 158.575284 77.766239 152.769176 82.666807 146.803267 86.768369 C 140.517756 91.136267 133.433239 95.291097 130.716619 102.908284 C 129.065341 107.808852 129.81108 113.188824 130.716619 118.142659 C 126.029119 115.479307 123.738636 109.779733 122.40696 104.719364 C 121.661222 101.949477 120.808949 96.782574 120.915483 93.95942 C 121.980824 70.89479 145.737926 65.994222 157.509943 54.48854 C 162.357244 49.747773 164.168324 45.060273 164.700994 38.455159 C 172.584517 47.404023 168.269886 62.638398 162.517045 71.587261 Z M 80.485795 83.14621 C 97.797585 98.060983 96.785511 127.038256 122.620028 122.617091 C 117.133523 131.193085 96.572443 130.607148 88.582386 125.759847 C 74.413352 117.237119 71.377131 94.971494 63.174006 85.063824 C 59.338778 80.429591 55.397017 79.044648 50.070312 76.967233 C 59.232244 71.054591 73.134943 76.807432 80.485795 83.14621 Z M 202.520597 93.799619 C 190.37571 106.95658 174.608665 105.571636 158.46875 105.624903 C 151.171165 105.624903 146.963068 106.370642 141.583097 111.963682 C 138.919744 114.786835 137.428267 118.568795 134.285511 120.859278 C 134.285511 115.159705 134.392045 112.016949 136.096591 106.530443 C 137.108665 103.227886 138.333807 100.351466 140.357955 97.528312 C 152.023438 81.228597 171.945312 86.821636 188.884233 86.821636 C 199.058239 86.768369 201.348722 84.95729 208.59304 77.872773 C 210.404119 83.359278 206.142756 89.911125 202.520597 93.799619 Z M 143.234375 118.036125 C 146.696733 116.011977 149.99929 114.573767 153.994318 113.668227 C 170.507102 110.046068 180.041903 120.965812 190.695312 131.565955 C 194.903409 135.774051 201.029119 141.73996 206.78196 143.55104 C 210.723722 144.776182 213.600142 144.563114 217.541903 144.136977 C 214.292614 149.783284 206.675426 151.381295 200.549716 151.913966 C 186.487216 153.032574 174.555398 143.55104 164.700994 134.921778 C 160.972301 131.619222 157.829545 128.103597 153.088778 126.185983 C 145.684659 123.203028 140.357955 126.132716 133.379972 127.997062 C 135.990057 123.149761 138.493608 120.806011 143.234375 118.036125 Z M 52.786932 127.304591 C 65.517756 123.256295 77.609375 126.185983 89.487926 131.45942 C 94.388494 133.643369 99.235795 136.466523 104.722301 136.786125 C 112.073153 137.212261 117.18679 131.352886 123.525568 128.902602 C 121.767756 133.909705 120.116477 137.265528 116.81392 141.420358 C 114.523438 144.243511 112.232955 146.320926 109.196733 148.23854 C 95.826705 156.867801 80.698864 150.262687 68.021307 143.870642 C 63.546875 141.686693 55.823153 137.638398 50.975852 137.318795 C 47.034091 136.999193 42.080256 139.076608 38.458097 140.514818 C 40.162642 133.696636 46.288352 129.382006 52.786932 127.304591 Z M 141.423295 128.902602 C 145.791193 128.955869 148.987216 129.48854 153.088778 131.086551 C 155.698864 132.151892 158.894886 133.749903 161.132102 135.507716 C 177.112216 148.23854 168.962358 170.504165 173.223722 187.123483 C 174.875 193.568795 178.923295 196.285415 182.651989 201.452318 C 161.877841 200.972915 152.289773 179.293227 152.183239 161.129165 C 152.129972 155.749193 152.023438 149.14408 149.946023 144.136977 C 148.348011 140.141949 144.885653 136.413256 141.423295 133.962972 C 138.706676 131.992091 136.309659 131.672489 134.285511 128.902602 C 134.285511 128.902602 141.423295 128.902602 141.423295 128.902602 Z M 129.81108 146.80033 C 129.757812 150.58229 129.43821 153.032574 128.213068 156.654733 C 121.075284 178.33442 94.708097 175.671068 80.539062 182.542517 C 73.454545 186.004875 72.549006 190.266239 68.021307 195.166807 C 66.902699 176.89621 75.212358 165.710131 92.204545 158.838682 C 105.787642 153.352176 118.997869 155.216523 124.910511 138.757006 C 125.922585 135.880585 126.082386 134.548909 126.18892 131.565955 C 130.290483 135.987119 129.864347 141.154023 129.81108 146.80033 Z M 142.0625 139.662545 C 144.193182 142.166097 146.377131 145.52192 147.602273 148.611409 C 156.391335 170.131295 135.776989 184.566665 128.852273 202.304591 C 126.348722 208.643369 127.733665 211.306722 128.852273 217.538966 C 113.884233 210.401182 117.080256 185.951608 122.939631 173.64692 C 122.939631 173.64692 128.159801 164.698057 128.159801 164.698057 C 130.982955 160.117091 134.818182 154.89692 135.617188 149.516949 C 136.522727 143.018369 132.6875 136.999193 129.81108 131.565955 C 135.244318 132.684562 138.493608 135.454449 142.0625 139.662545 Z " transform="matrix(.07333 0 0 .07333 1.61333 1.61355)"/>
</g>
<linearGradient gradientTransform="matrix(.45833 0 0 .45833 0 -460.33267)" id="linear0" y1="1050.112" y2="1003.795" gradientUnits="userSpaceOnUse" x2="0">
<stop offset="0" style="stop-color:#8f3f9b"/>
<stop offset="1" style="stop-color:#b263bf"/>
</linearGradient>
<mask id="mask0">
<g style="filter:url(#alpha)">
<rect width="22" x="0" y="0" height="22" style="fill:#000;fill-opacity:.8"/>
</g>
</mask>
</defs>
<path style="fill:url(#linear0)" d="M 0.890625 0 L 21.109375 0 C 21.601562 0 22 0.398438 22 0.890625 L 22 21.109375 C 22 21.601562 21.601562 22 21.109375 22 L 0.890625 22 C 0.398438 22 0 21.601562 0 21.109375 L 0 0.890625 C 0 0.398438 0.398438 0 0.890625 0 Z "/>
<path style="fill:none;stroke:#fff;stroke-width:18.4" d="M 218.820312 128.05033 C 218.767045 178.174619 178.12429 218.817375 128 218.817375 C 77.87571 218.817375 37.232955 178.174619 37.179688 128.05033 C 37.179688 77.872773 77.822443 37.17675 128 37.17675 C 178.177557 37.17675 218.820312 77.872773 218.820312 128.05033 Z " transform="matrix(.07333 0 0 .07333 1.61333 1.61355)"/>
<use style="mask:url(#mask0)" xlink:href="#surface6"/>
<g style="fill:#fff">
<path d="M 8.226562 15.5 L 8.226562 6.503906 L 15.273438 11 Z "/>
<path style="fill-opacity:.149" d="M 0.917969 0 C 0.410156 0 0 0.410156 0 0.917969 L 0 21.082031 C 0 21.589844 0.410156 22 0.917969 22 L 7.691406 22 L 13.578125 0 Z "/>
</g>
</svg>
