<svg width="22" xmlns="http://www.w3.org/2000/svg" height="22" viewBox="0 0 22 22" xmlns:xlink="http://www.w3.org/1999/xlink">
<defs>
<linearGradient gradientTransform="matrix(.45833 0 0 .45833 0 -460.33267)" id="linear0" y1="1053.158" y2="1004.847" gradientUnits="userSpaceOnUse" x2="0">
<stop offset="0" style="stop-color:#9e1e4c"/>
<stop offset="1" style="stop-color:#d23759"/>
</linearGradient>
</defs>
<path style="fill:url(#linear0)" d="M 0.890625 0 L 21.109375 0 C 21.601562 0 22 0.398438 22 0.890625 L 22 21.109375 C 22 21.601562 21.601562 22 21.109375 22 L 0.890625 22 C 0.398438 22 0 21.601562 0 21.109375 L 0 0.890625 C 0 0.398438 0.398438 0 0.890625 0 Z "/>
<g style="fill:#fff">
<path d="M 11.003906 3.667969 C 6.953125 3.667969 3.667969 6.945312 3.667969 10.996094 C 3.667969 15.046875 6.953125 18.332031 11.003906 18.332031 C 15.054688 18.332031 18.332031 15.046875 18.332031 10.996094 C 18.332031 6.945312 15.054688 3.667969 11.003906 3.667969 Z M 11.003906 5.296875 C 12.019531 5.296875 12.972656 5.5625 13.800781 6.027344 L 9.503906 8.503906 L 5.308594 10.917969 C 5.347656 7.804688 7.882812 5.296875 11.003906 5.296875 Z M 13.832031 6.046875 C 15.546875 7.03125 16.703125 8.875 16.703125 10.996094 C 16.703125 13.113281 15.546875 14.960938 13.832031 15.941406 Z M 5.308594 11.070312 L 9.503906 13.496094 L 13.789062 15.972656 C 12.964844 16.433594 12.015625 16.691406 11.003906 16.691406 C 7.882812 16.691406 5.347656 14.183594 5.308594 11.070312 Z "/>
<path style="fill-opacity:.149" d="M 0 0 L 0 22 L 7.691406 22 L 13.578125 0 Z "/>
</g>
</svg>
