<svg width="22" xmlns="http://www.w3.org/2000/svg" height="22" viewBox="0 0 22 22" xmlns:xlink="http://www.w3.org/1999/xlink">
<defs>
<linearGradient gradientTransform="matrix(.45833 0 0 -.45833 0 482.33267)" id="linear0" y1="1053.158" y2="1004.847" gradientUnits="userSpaceOnUse" x2="0">
<stop offset="0" style="stop-color:#e3b216"/>
<stop offset="1" style="stop-color:#c88009"/>
</linearGradient>
</defs>
<path style="fill:url(#linear0)" d="M 0.890625 22 L 21.109375 22 C 21.601562 22 22 21.601562 22 21.109375 L 22 0.890625 C 22 0.398438 21.601562 0 21.109375 0 L 0.890625 0 C 0.398438 0 0 0.398438 0 0.890625 L 0 21.109375 C 0 21.601562 0.398438 22 0.890625 22 Z "/>
<path style="fill:#fffffb" d="M 4.160156 5.5 C 3.890625 5.527344 3.664062 5.78125 3.667969 6.050781 L 3.667969 15.949219 C 3.667969 16.238281 3.929688 16.5 4.214844 16.5 L 17.785156 16.5 C 18.070312 16.5 18.332031 16.238281 18.332031 15.949219 L 18.332031 6.050781 C 18.332031 5.761719 18.070312 5.5 17.785156 5.5 L 4.214844 5.5 C 4.199219 5.5 4.179688 5.5 4.160156 5.5 Z M 5.5 6.417969 L 16.5 6.417969 L 11.019531 10.527344 Z M 4.585938 6.867188 L 10.679688 11.445312 C 10.863281 11.578125 11.136719 11.578125 11.320312 11.445312 L 17.414062 6.867188 L 17.414062 15.601562 L 4.585938 15.601562 Z "/>
<path style="fill:#fff;fill-opacity:.149" d="M 0.917969 0 C 0.410156 0 0 0.410156 0 0.917969 L 0 21.082031 C 0 21.589844 0.410156 22 0.917969 22 L 7.691406 22 L 13.578125 0 Z "/>
</svg>
