<svg width="22" xmlns="http://www.w3.org/2000/svg" height="22" viewBox="0 0 22 22" xmlns:xlink="http://www.w3.org/1999/xlink">
<defs>
<linearGradient gradientTransform="matrix(.45833 0 0 .45833 0 -460.33267)" id="linear0" y1="1050.112" y2="1003.795" gradientUnits="userSpaceOnUse" x2="0">
<stop offset="0" style="stop-color:#8f3f9b"/>
<stop offset="1" style="stop-color:#b263bf"/>
</linearGradient>
</defs>
<path style="fill:url(#linear0)" d="M 0.890625 0 L 21.109375 0 C 21.601562 0 22 0.398438 22 0.890625 L 22 21.109375 C 22 21.601562 21.601562 22 21.109375 22 L 0.890625 22 C 0.398438 22 0 21.601562 0 21.109375 L 0 0.890625 C 0 0.398438 0.398438 0 0.890625 0 Z "/>
<g style="fill:#fff">
<path d="M 15.449219 14.417969 C 16.679688 14.417969 17.675781 13.425781 17.675781 12.195312 C 17.675781 10.964844 16.679688 9.96875 15.449219 9.96875 C 14.21875 9.96875 13.222656 10.964844 13.222656 12.195312 C 13.222656 13.425781 14.21875 14.417969 15.449219 14.417969 M 6.578125 14.417969 C 7.804688 14.417969 8.804688 13.425781 8.804688 12.195312 C 8.804688 10.964844 7.804688 9.96875 6.578125 9.96875 C 5.347656 9.96875 4.351562 10.964844 4.351562 12.195312 C 4.351562 13.425781 5.347656 14.417969 6.578125 14.417969 M 12.679688 9.988281 L 9.355469 9.988281 L 9.355469 12.207031 L 12.679688 12.207031 Z M 14.878906 7.636719 L 7.183594 7.636719 L 7.183594 9.070312 L 14.878906 9.070312 Z M 15.765625 9.070312 L 18.332031 9.070312 L 18.332031 15.121094 L 3.667969 15.121094 L 3.667969 9.070312 L 6.296875 9.070312 L 6.296875 7.765625 C 6.296875 7.277344 6.691406 6.878906 7.183594 6.878906 L 14.875 6.878906 C 15.363281 6.878906 15.761719 7.277344 15.761719 7.765625 Z "/>
<path style="fill-opacity:.149" d="M 0.917969 0 C 0.410156 0 0 0.410156 0 0.917969 L 0 21.082031 C 0 21.589844 0.410156 22 0.917969 22 L 7.691406 22 L 13.578125 0 Z "/>
</g>
</svg>
