<svg width="22" xmlns="http://www.w3.org/2000/svg" height="22" viewBox="0 0 22 22" xmlns:xlink="http://www.w3.org/1999/xlink">
<defs>
<linearGradient gradientTransform="matrix(.45833 0 0 .45833 0 -460.33267)" id="linear0" y1="1047.808" x1="35.002" y2="1005.204" gradientUnits="userSpaceOnUse" x2="31.56">
<stop offset="0" style="stop-color:#4c4c4c"/>
<stop offset="1" style="stop-color:#727272"/>
</linearGradient>
</defs>
<path style="fill:url(#linear0)" d="M 0.890625 0 L 21.109375 0 C 21.601562 0 22 0.398438 22 0.890625 L 22 21.109375 C 22 21.601562 21.601562 22 21.109375 22 L 0.890625 22 C 0.398438 22 0 21.601562 0 21.109375 L 0 0.890625 C 0 0.398438 0.398438 0 0.890625 0 Z "/>
<g style="fill:#fff">
<path d="M 11.011719 3.667969 C 9.453125 3.667969 8.125 4.085938 6.9375 4.914062 L 8.453125 9.839844 C 8.886719 8.851562 9.800781 8.277344 10.949219 8.277344 C 11.039062 8.277344 11.128906 8.289062 11.21875 8.300781 C 11.230469 8.300781 11.246094 8.300781 11.257812 8.300781 L 17.804688 8.300781 C 16.730469 5.589844 14.105469 3.667969 11.011719 3.667969 Z M 6.253906 5.433594 C 4.683594 6.777344 3.675781 8.769531 3.675781 11 C 3.675781 15.050781 6.957031 18.332031 11.011719 18.332031 L 11.074219 18.3125 L 12.386719 13.449219 C 11.9375 13.765625 11.535156 13.867188 10.949219 13.867188 C 9.640625 13.867188 8.554688 12.945312 8.246094 11.726562 C 8.242188 11.707031 8.230469 11.6875 8.226562 11.664062 C 8.21875 11.652344 8.210938 11.636719 8.207031 11.625 C 8.203125 11.617188 8.207031 11.609375 8.207031 11.601562 C 8.203125 11.589844 8.203125 11.574219 8.207031 11.5625 L 8.183594 11.519531 Z M 11.152344 9.066406 C 9.972656 9.066406 9.09375 9.925781 9.09375 11.101562 C 9.09375 11.214844 9.097656 11.308594 9.113281 11.414062 C 9.113281 11.429688 9.132812 11.441406 9.132812 11.457031 C 9.132812 11.472656 9.132812 11.484375 9.132812 11.5 C 9.136719 11.503906 9.132812 11.511719 9.132812 11.519531 C 9.140625 11.53125 9.148438 11.546875 9.152344 11.5625 C 9.15625 11.566406 9.152344 11.574219 9.152344 11.582031 C 9.15625 11.597656 9.15625 11.609375 9.152344 11.625 C 9.390625 12.546875 10.015625 13.082031 11.007812 13.082031 C 12.066406 13.082031 12.945312 12.222656 12.945312 11.042969 C 12.945312 10.007812 12.167969 9.066406 11.152344 9.066406 Z M 12.878906 9.105469 C 13.460938 9.613281 13.730469 10.222656 13.730469 11.0625 C 13.730469 11.292969 13.679688 11.511719 13.628906 11.726562 C 13.640625 11.78125 13.640625 11.839844 13.628906 11.894531 L 11.902344 18.269531 C 15.527344 17.828125 18.324219 14.746094 18.324219 11 C 18.324219 10.292969 18.238281 9.773438 18.050781 9.125 Z "/>
<path style="fill-opacity:.149" d="M 0.917969 0 C 0.410156 0 0 0.410156 0 0.917969 L 0 21.082031 C 0 21.589844 0.410156 22 0.917969 22 L 7.691406 22 L 13.578125 0 Z "/>
</g>
</svg>
