<svg width="22" xmlns="http://www.w3.org/2000/svg" height="22" viewBox="0 0 22 22" xmlns:xlink="http://www.w3.org/1999/xlink">
<path style="fill:#2c889f" d="M 0.890625 22 L 21.109375 22 C 21.601562 22 22 21.601562 22 21.109375 L 22 0.890625 C 22 0.398438 21.601562 0 21.109375 0 L 0.890625 0 C 0.398438 0 0 0.398438 0 0.890625 L 0 21.109375 C 0 21.601562 0.398438 22 0.890625 22 Z "/>
<g style="fill:#fff">
<path d="M 8.796875 8.070312 L 8.796875 9.539062 L 9.53125 9.539062 L 9.53125 16.863281 L 8.0625 16.863281 L 8.0625 18.332031 L 13.9375 18.332031 L 13.9375 16.863281 L 12.46875 16.863281 L 12.46875 8.070312 Z "/>
<path d="M 12.46875 5.132812 C 12.46875 5.945312 11.8125 6.601562 11 6.601562 C 10.1875 6.601562 9.53125 5.945312 9.53125 5.132812 C 9.53125 4.324219 10.1875 3.667969 11 3.667969 C 11.8125 3.667969 12.46875 4.324219 12.46875 5.132812 Z "/>
<path style="fill-opacity:.149" d="M 0.917969 0 C 0.410156 0 0 0.410156 0 0.917969 L 0 21.082031 C 0 21.589844 0.410156 22 0.917969 22 L 7.691406 22 L 13.578125 0 Z "/>
</g>
</svg>
