<svg width="22" xmlns="http://www.w3.org/2000/svg" height="22" viewBox="0 0 22 22" xmlns:xlink="http://www.w3.org/1999/xlink">
<defs>
<linearGradient gradientTransform="matrix(.45833 0 0 -.45833 0 482.33268)" id="linear0" y1="1053.158" y2="1004.847" gradientUnits="userSpaceOnUse" x2="0">
<stop offset="0" style="stop-color:#d76868"/>
<stop offset="1" style="stop-color:#bc2f2f"/>
</linearGradient>
</defs>
<path style="fill:url(#linear0)" d="M 0.890625 22 L 21.109375 22 C 21.601562 22 22 21.601562 22 21.109375 L 22 0.890625 C 22 0.398438 21.601562 0 21.109375 0 L 0.890625 0 C 0.398438 0 0 0.398438 0 0.890625 L 0 21.109375 C 0 21.601562 0.398438 22 0.890625 22 Z "/>
<g style="fill:#fff">
<path d="M 8.117188 14.46875 C 7.886719 14.4375 7.46875 14.304688 7.191406 14.175781 C 5.386719 13.332031 4.648438 11.207031 5.535156 9.417969 C 6.554688 7.371094 9.328125 6.847656 10.996094 8.390625 C 11.476562 8.835938 11.695312 9.214844 12.417969 10.898438 C 13.175781 12.65625 13.316406 12.9375 13.5625 13.171875 C 13.824219 13.421875 14.070312 13.503906 14.539062 13.503906 C 15.304688 13.503906 15.851562 13.042969 15.851562 12.398438 C 15.851562 11.855469 15.65625 11.679688 14.652344 11.328125 C 13.121094 10.792969 12.628906 10.304688 12.625 9.332031 C 12.625 8.8125 12.761719 8.460938 13.105469 8.105469 C 13.597656 7.59375 14.449219 7.421875 15.203125 7.679688 C 15.523438 7.789062 16.195312 8.371094 16.195312 8.535156 C 16.195312 8.617188 15.804688 8.863281 15.589844 8.921875 C 15.476562 8.949219 15.378906 8.914062 15.246094 8.789062 C 14.980469 8.539062 14.800781 8.460938 14.480469 8.460938 C 13.929688 8.460938 13.585938 8.785156 13.585938 9.308594 C 13.585938 9.828125 13.804688 10.003906 14.890625 10.359375 C 16.390625 10.855469 16.828125 11.296875 16.839844 12.328125 C 16.851562 13.21875 16.441406 13.859375 15.621094 14.242188 C 15.246094 14.414062 15.121094 14.433594 14.515625 14.433594 C 13.648438 14.433594 13.257812 14.277344 12.773438 13.742188 C 12.445312 13.382812 12.113281 12.707031 11.050781 10.246094 C 10.609375 9.226562 10.042969 8.726562 9.101562 8.53125 C 8.625 8.433594 7.960938 8.523438 7.527344 8.746094 C 7.105469 8.964844 6.632812 9.449219 6.410156 9.890625 C 6.226562 10.253906 6.207031 10.355469 6.207031 10.984375 C 6.207031 11.582031 6.230469 11.722656 6.386719 12.054688 C 6.617188 12.554688 7.078125 13.015625 7.582031 13.269531 C 7.949219 13.449219 8.0625 13.46875 8.644531 13.46875 C 9.207031 13.46875 9.351562 13.445312 9.679688 13.289062 C 10.0625 13.109375 10.574219 12.664062 10.785156 12.328125 L 10.894531 12.15625 L 11.105469 12.632812 C 11.226562 12.894531 11.320312 13.144531 11.320312 13.1875 C 11.320312 13.320312 10.839844 13.753906 10.394531 14.019531 C 9.722656 14.429688 8.949219 14.582031 8.117188 14.46875 Z "/>
<path style="fill-opacity:.149" d="M 0.917969 0 C 0.410156 0 0 0.410156 0 0.917969 L 0 21.082031 C 0 21.589844 0.410156 22 0.917969 22 L 7.691406 22 L 13.578125 0 Z "/>
</g>
</svg>
