<svg width="22" xmlns="http://www.w3.org/2000/svg" height="22" viewBox="0 0 22 22" xmlns:xlink="http://www.w3.org/1999/xlink">
<defs>
<linearGradient gradientTransform="matrix(.45833 0 0 -.45833 0 482.33267)" id="linear0" y1="1053.158" y2="1004.847" gradientUnits="userSpaceOnUse" x2="0">
<stop offset="0" style="stop-color:#34d163"/>
<stop offset="1" style="stop-color:#28ac45"/>
</linearGradient>
</defs>
<path style="fill:url(#linear0)" d="M 0.890625 22 L 21.109375 22 C 21.601562 22 22 21.601562 22 21.109375 L 22 0.890625 C 22 0.398438 21.601562 0 21.109375 0 L 0.890625 0 C 0.398438 0 0 0.398438 0 0.890625 L 0 21.109375 C 0 21.601562 0.398438 22 0.890625 22 Z "/>
<path style="fill:none;stroke:#fff;stroke-width:.4" d="M 11.103611 1006.349064 L 11.103611 1010.395687 L 14.551541 1010.395687 L 14.551541 1007.930159 L 13.084742 1006.34226 Z " transform="matrix(2.87084 0 0 2.87084 -25.82586 -2883.8629)"/>
<g style="fill:#fff">
<path d="M 16.507812 8.203125 L 13.214844 4.605469 L 16.523438 4.605469 L 16.523438 8.203125 Z "/>
<path style="fill-opacity:.149" d="M 0 0 L 0 22 L 7.691406 22 L 13.578125 0 Z "/>
</g>
</svg>
