<svg width="22" xmlns="http://www.w3.org/2000/svg" height="22" viewBox="0 0 22 22" xmlns:xlink="http://www.w3.org/1999/xlink">
<defs>
<linearGradient gradientTransform="matrix(.45833 0 0 -.45833 0 482.33267)" id="linear0" y1="1053.158" y2="1004.847" gradientUnits="userSpaceOnUse" x2="0">
<stop offset="0" style="stop-color:#cfcfcf"/>
<stop offset="1" style="stop-color:#a6a6a6"/>
</linearGradient>
</defs>
<path style="fill:url(#linear0)" d="M 0.890625 22 L 21.109375 22 C 21.601562 22 22 21.601562 22 21.109375 L 22 0.890625 C 22 0.398438 21.601562 0 21.109375 0 L 0.890625 0 C 0.398438 0 0 0.398438 0 0.890625 L 0 21.109375 C 0 21.601562 0.398438 22 0.890625 22 Z "/>
<path style="fill:none;stroke:#4c4c4c;stroke-width:2.505" d="M 13.201705 1015.714473 L 13.201705 1041.061064 L 34.798295 1041.061064 L 34.798295 1025.617882 L 25.610795 1015.663336 Z " transform="matrix(.45833 0 0 .45833 0 -460.33267)"/>
<path style="fill:#4c4c4c" d="M 16.507812 8.203125 L 13.214844 4.605469 L 16.523438 4.605469 L 16.523438 8.203125 Z "/>
<path style="fill:#fff;fill-opacity:.149" d="M 0 0 L 0 22 L 7.691406 22 L 13.578125 0 Z "/>
</svg>
