<svg width="22" xmlns="http://www.w3.org/2000/svg" height="22" viewBox="0 0 22 22" xmlns:xlink="http://www.w3.org/1999/xlink">
<defs>
<linearGradient gradientTransform="matrix(.45833 0 0 .45833 .00003 -460.3327)" id="linear0" y1="1053.158" y2="1028.182" gradientUnits="userSpaceOnUse" x2="0">
<stop offset="0" style="stop-color:#1e1e1e"/>
<stop offset="1" style="stop-color:#292929"/>
</linearGradient>
</defs>
<path style="fill:url(#linear0)" d="M 0.886719 0 C 0.394531 0 0 0.394531 0 0.886719 L 0 21.113281 C 0 21.605469 0.394531 22 0.886719 22 L 21.113281 22 C 21.605469 22 22 21.605469 22 21.113281 L 22 0.886719 C 22 0.394531 21.605469 0 21.113281 0 Z "/>
<g style="fill:#fff">
<path style="fill-opacity:.149" d="M 0.917969 0 C 0.410156 0 0 0.410156 0 0.917969 L 0 21.082031 C 0 21.589844 0.410156 22 0.917969 22 L 7.691406 22 L 13.578125 0 Z "/>
<path style="stroke:#fff;stroke-linejoin:round" d="M 116.017352 -44.867998 C 73.340896 -44.867998 55.298147 -8.288178 55.298147 8.848314 L 55.298147 81.596019 C 26.297929 92.718261 5.206862 126.661698 5.206862 166.866545 C 5.206862 216.13396 36.843463 256.009259 75.894892 256.009259 C 77.789793 256.009259 79.684693 255.926872 81.579594 255.679711 L 81.579594 8.024444 C 87.593844 -13.396171 98.386538 -19.328034 110.826973 -19.904743 L 110.826973 53.337284 C 110.826973 65.283396 123.267407 85.880142 142.628347 85.880142 L 183.986612 85.880142 C 203.347553 85.880142 215.7056 65.283396 215.7056 53.337284 L 215.7056 -19.904743 C 228.228421 -19.328034 239.021116 -13.396171 245.035365 8.024444 L 245.035365 255.597324 C 247.259814 255.844485 249.401875 256.009259 251.708711 256.009259 C 252.120646 256.009259 252.532581 256.009259 252.944516 255.926872 C 246.600718 261.117252 239.844986 266.142857 230.370483 270.179819 L 194.367372 270.179819 C 192.22531 262.023508 180.443972 255.926872 166.355798 255.926872 C 150.619885 255.926872 137.932289 263.506474 137.932289 272.816203 C 137.932289 282.208319 150.619885 289.787921 166.355798 289.787921 C 179.455328 289.787921 190.412797 284.432767 193.708276 277.2651 L 193.708276 277.429874 L 233.17164 277.429874 C 246.435944 271.25085 257.558187 263.259313 266.950303 253.867197 C 298.66929 245.134177 322.396741 209.460614 322.396741 166.866545 C 322.396741 126.249763 300.811352 91.976778 271.316813 81.184084 L 271.316813 8.848314 C 271.316813 -8.288178 253.274064 -44.867998 210.597607 -44.867998 C 193.131567 -44.867998 189.918475 -36.464526 189.918475 -36.464526 L 189.918475 48.970774 C 187.529252 60.093017 182.421259 67.013523 174.264948 68.74365 L 152.350011 68.74365 C 144.111313 67.013523 139.085707 60.093017 136.614098 48.970774 L 136.614098 -36.464526 C 136.614098 -36.464526 133.401005 -44.867998 116.017352 -44.867998 Z " transform="matrix(.04741 0 0 .04741 3.23359 5.19375)"/>
<path d="M 8.019531 10.828125 L 8.8125 10.828125 C 9.175781 10.828125 9.4375 10.917969 9.597656 11.097656 C 9.761719 11.277344 9.84375 11.558594 9.84375 11.949219 C 9.84375 12.214844 9.808594 12.429688 9.738281 12.601562 C 9.667969 12.769531 9.570312 12.871094 9.453125 12.90625 L 9.453125 12.9375 C 9.613281 13 9.730469 13.117188 9.800781 13.289062 C 9.875 13.460938 9.910156 13.6875 9.910156 13.972656 C 9.910156 14.378906 9.824219 14.691406 9.65625 14.917969 C 9.488281 15.144531 9.261719 15.257812 8.972656 15.257812 L 8.019531 15.257812 L 8.019531 10.828125 M 8.558594 12.582031 L 8.875 12.582031 C 9.019531 12.582031 9.125 12.542969 9.191406 12.464844 C 9.257812 12.386719 9.289062 12.253906 9.289062 12.074219 C 9.289062 11.90625 9.253906 11.785156 9.183594 11.710938 C 9.109375 11.636719 9 11.597656 8.84375 11.597656 L 8.558594 11.597656 L 8.558594 12.582031 M 8.558594 13.328125 L 8.558594 14.484375 L 8.910156 14.484375 C 9.0625 14.484375 9.171875 14.433594 9.242188 14.335938 C 9.3125 14.234375 9.347656 14.082031 9.347656 13.878906 C 9.347656 13.511719 9.195312 13.328125 8.894531 13.328125 L 8.558594 13.328125 "/>
<path d="M 10.417969 15.257812 L 10.417969 10.828125 L 10.960938 10.828125 L 10.960938 14.484375 L 11.996094 14.484375 L 11.996094 15.257812 L 10.417969 15.257812 "/>
<path d="M 13.90625 15.257812 L 12.4375 15.257812 L 12.4375 10.828125 L 13.90625 10.828125 L 13.90625 11.597656 L 12.976562 11.597656 L 12.976562 12.570312 L 13.839844 12.570312 L 13.839844 13.339844 L 12.976562 13.339844 L 12.976562 14.484375 L 13.90625 14.484375 L 13.90625 15.257812 "/>
</g>
</svg>
