<svg width="22" xmlns="http://www.w3.org/2000/svg" height="22" viewBox="0 0 22 22" xmlns:xlink="http://www.w3.org/1999/xlink">
<defs>
<linearGradient gradientTransform="matrix(.45833 0 0 .45833 0 -460.33267)" id="linear0" y1="1053.158" y2="1004.847" gradientUnits="userSpaceOnUse" x2="0">
<stop offset="0" style="stop-color:#3c7ca3"/>
<stop offset="1" style="stop-color:#44a5c9"/>
</linearGradient>
</defs>
<path style="fill:url(#linear0)" d="M 0.917969 0 L 21.035156 0 C 21.570312 0 22 0.398438 22 0.890625 L 22 21.109375 C 22 21.601562 21.570312 22 21.035156 22 L 0.917969 22 C 0.382812 22 0 21.601562 0 21.109375 L 0 0.890625 C 0 0.398438 0.382812 0 0.917969 0 Z "/>
<path style="fill:#fff;fill-opacity:.149" d="M 0 0 L 0 22 L 7.691406 22 L 13.578125 0 Z "/>
<path style="fill:none;stroke:#fff;stroke-width:2.4" d="M 5.225378 1048.931965 L 5.225378 1040.010508 L 13.802299 1038.008146 L 13.802299 1048.015905 " transform="matrix(.96371 0 0 .96371 3.10881 -995.50985)"/>
<g style="fill:#fff">
<path d="M 9.050781 14.710938 C 9.621094 15.746094 9.101562 17.179688 7.890625 17.910156 C 6.679688 18.644531 5.234375 18.398438 4.664062 17.363281 C 4.09375 16.328125 4.613281 14.894531 5.824219 14.164062 C 7.035156 13.429688 8.476562 13.675781 9.050781 14.710938 Z "/>
<path d="M 17.304688 13.878906 C 17.875 14.914062 17.355469 16.347656 16.144531 17.078125 C 14.933594 17.8125 13.488281 17.566406 12.917969 16.53125 C 12.347656 15.496094 12.867188 14.0625 14.078125 13.332031 C 15.289062 12.597656 16.730469 12.84375 17.304688 13.878906 Z "/>
</g>
</svg>
