<svg width="22" xmlns="http://www.w3.org/2000/svg" height="22" viewBox="0 0 22 22" xmlns:xlink="http://www.w3.org/1999/xlink">
<defs>
<linearGradient gradientTransform="matrix(.45833 0 0 .45833 0 -460.33267)" id="linear0" y1="1053.158" y2="1004.847" gradientUnits="userSpaceOnUse" x2="0">
<stop offset="0" style="stop-color:#971323"/>
<stop offset="1" style="stop-color:#e31431"/>
</linearGradient>
</defs>
<path style="fill:url(#linear0)" d="M 0.890625 0 L 21.109375 0 C 21.601562 0 22 0.398438 22 0.890625 L 22 21.109375 C 22 21.601562 21.601562 22 21.109375 22 L 0.890625 22 C 0.398438 22 0 21.601562 0 21.109375 L 0 0.890625 C 0 0.398438 0.398438 0 0.890625 0 Z "/>
<g style="fill:#fff">
<path d="M 11 4.011719 C 7.84375 4.011719 5.277344 7.140625 5.277344 10.996094 C 5.277344 14.847656 7.84375 17.988281 11 17.988281 C 14.15625 17.988281 16.722656 14.847656 16.722656 10.996094 C 16.722656 7.140625 14.15625 4.011719 11 4.011719 Z M 11 4.90625 C 13.617188 4.90625 13.867188 7.632812 13.867188 10.996094 C 13.867188 14.355469 13.519531 17.085938 11 17.085938 C 8.4375 17.085938 8.132812 14.355469 8.132812 10.996094 C 8.132812 7.632812 8.429688 4.90625 11 4.90625 Z "/>
<path style="fill-opacity:.149" d="M 0 0 L 0 22 L 7.691406 22 L 13.578125 0 Z "/>
</g>
</svg>
