<svg width="22" xmlns="http://www.w3.org/2000/svg" height="22" viewBox="0 0 22 22" xmlns:xlink="http://www.w3.org/1999/xlink">
<defs>
<linearGradient gradientTransform="matrix(.45833 0 0 .45833 0 -460.33267)" id="linear0" y1="1053.158" y2="1004.847" gradientUnits="userSpaceOnUse" x2="0">
<stop offset="0" style="stop-color:#cc9e52"/>
<stop offset="1" style="stop-color:#e08559"/>
</linearGradient>
</defs>
<path style="fill:url(#linear0)" d="M 0.890625 0 L 21.109375 0 C 21.601562 0 22 0.398438 22 0.890625 L 22 21.109375 C 22 21.601562 21.601562 22 21.109375 22 L 0.890625 22 C 0.398438 22 0 21.601562 0 21.109375 L 0 0.890625 C 0 0.398438 0.398438 0 0.890625 0 Z "/>
<g style="fill:#fff">
<path d="M 10.992188 5.527344 C 8.738281 5.527344 6.910156 7.351562 6.910156 9.605469 C 6.910156 11.859375 8.738281 13.695312 10.992188 13.695312 C 13.246094 13.695312 15.070312 11.859375 15.070312 9.605469 C 15.070312 7.351562 13.246094 5.527344 10.992188 5.527344 Z M 10.992188 8.859375 C 11.40625 8.859375 11.738281 9.191406 11.738281 9.605469 C 11.738281 10.019531 11.40625 10.367188 10.992188 10.367188 C 10.574219 10.367188 10.242188 10.019531 10.242188 9.605469 C 10.242188 9.191406 10.574219 8.859375 10.992188 8.859375 Z "/>
<path style="fill-opacity:.149" d="M 0 0 L 0 22 L 7.691406 22 L 13.578125 0 Z "/>
</g>
<path style="fill:none;stroke:#fff;stroke-width:2" d="M 13.704545 1013.3622 L 34.295455 1013.3622 C 35.173295 1013.3622 35.880682 1014.069586 35.880682 1014.938905 L 35.880682 1041.785495 C 35.880682 1042.654814 35.173295 1043.3622 34.295455 1043.3622 L 13.704545 1043.3622 C 12.826705 1043.3622 12.119318 1042.654814 12.119318 1041.785495 L 12.119318 1014.938905 C 12.119318 1014.069586 12.826705 1013.3622 13.704545 1013.3622 Z " transform="matrix(.45833 0 0 .45833 0 -460.33267)"/>
<path style="fill:#fff" d="M 12.375 14.207031 L 14.207031 16.5 L 15.125 16.5 L 15.125 15.582031 Z "/>
</svg>
