<svg width="22" xmlns="http://www.w3.org/2000/svg" height="22" viewBox="0 0 22 22" xmlns:xlink="http://www.w3.org/1999/xlink">
<g style="fill:none;stroke:#909ea9;stroke-width:14.293">
<path d="M 128.363636 -171.090909 L 128.363636 -80.954545 " transform="matrix(.08594 0 0 .08594 0 17.875)"/>
<path d="M 71.636364 -79.545455 L 181.909091 -79.545455 " transform="matrix(.08594 0 0 .08594 0 17.875)"/>
<path d="M 127.545455 -172.863636 L 128.454545 -172.863636 C 160.181818 -172.863636 185.863636 -147.181818 185.863636 -115.454545 L 185.863636 -44.545455 C 185.863636 -12.818182 160.181818 12.863636 128.454545 12.863636 L 127.545455 12.863636 C 95.818182 12.863636 70.136364 -12.818182 70.136364 -44.545455 L 70.136364 -115.454545 C 70.136364 -147.181818 95.818182 -172.863636 127.545455 -172.863636 Z " transform="matrix(.08594 0 0 .08594 0 17.875)"/>
</g>
</svg>
