<svg width="22" xmlns="http://www.w3.org/2000/svg" height="22" viewBox="0 0 22 22" xmlns:xlink="http://www.w3.org/1999/xlink">
<defs>
<linearGradient gradientTransform="matrix(.45833 0 0 -.45833 0 482.33267)" id="linear0" y1="1053.158" y2="1004.847" gradientUnits="userSpaceOnUse" x2="0">
<stop offset="0" style="stop-color:#95d768"/>
<stop offset="1" style="stop-color:#60bc2f"/>
</linearGradient>
</defs>
<path style="fill:url(#linear0)" d="M 0.890625 22 L 21.109375 22 C 21.601562 22 22 21.601562 22 21.109375 L 22 0.890625 C 22 0.398438 21.601562 0 21.109375 0 L 0.890625 0 C 0.398438 0 0 0.398438 0 0.890625 L 0 21.109375 C 0 21.601562 0.398438 22 0.890625 22 Z "/>
<path style="fill:#fff" d="M 11.632812 5.085938 L 10.335938 5.085938 L 10.335938 10.859375 L 11.632812 10.859375 Z "/>
<path style="fill:none;stroke:#fff;stroke-width:4.175" d="M 27.401541 1013.793342 C 33.874787 1015.351926 38.698435 1021.313228 38.698435 1028.434935 C 38.698435 1036.751179 32.134178 1043.486084 24.045465 1043.486084 C 15.956752 1043.486084 9.392495 1036.751179 9.392495 1028.434935 C 9.392495 1021.313228 14.216143 1015.351926 20.689389 1013.793342 " transform="matrix(-.34336 0 0 .34336 19.25626 -342.0926)"/>
<path style="fill:#fff;fill-opacity:.149" d="M 0 0 L 0 22 L 7.691406 22 L 13.578125 0 Z "/>
</svg>
