<svg width="22" xmlns="http://www.w3.org/2000/svg" height="22" viewBox="0 0 22 22" xmlns:xlink="http://www.w3.org/1999/xlink">
<defs>
<linearGradient gradientTransform="matrix(.45833 0 0 -.45833 0 -460.33267)" id="linear0" y1="-1051.702" y2="-1001.474" gradientUnits="userSpaceOnUse" x2="0">
<stop offset="0" style="stop-color:#ce5b00"/>
<stop offset="1" style="stop-color:#edb547"/>
</linearGradient>
</defs>
<path style="fill:url(#linear0)" d="M 0.890625 22 L 21.109375 22 C 21.601562 22 22 21.601562 22 21.109375 L 22 0.890625 C 22 0.398438 21.601562 0 21.109375 0 L 0.890625 0 C 0.398438 0 0 0.398438 0 0.890625 L 0 21.109375 C 0 21.601562 0.398438 22 0.890625 22 Z "/>
<g style="fill:#fff">
<path d="M 11 3.667969 C 10.503906 3.667969 8.90625 7.847656 8.503906 8.152344 C 8.105469 8.460938 3.824219 8.765625 3.671875 9.261719 C 3.519531 9.753906 6.816406 12.636719 6.972656 13.132812 C 7.125 13.625 6.066406 18 6.46875 18.304688 C 6.867188 18.613281 10.503906 16.203125 11 16.203125 C 11.496094 16.203125 15.132812 18.613281 15.53125 18.304688 C 15.933594 18 14.882812 13.625 15.035156 13.132812 C 15.1875 12.636719 18.480469 9.753906 18.328125 9.261719 C 18.175781 8.765625 13.894531 8.460938 13.496094 8.152344 C 13.09375 7.847656 11.496094 3.667969 11 3.667969 Z "/>
<path style="fill-opacity:.149" d="M 0.917969 0 C 0.410156 0 0 0.410156 0 0.917969 L 0 21.082031 C 0 21.589844 0.410156 22 0.917969 22 L 7.691406 22 L 13.578125 0 Z "/>
</g>
</svg>
