<svg width="22" xmlns="http://www.w3.org/2000/svg" height="22" viewBox="0 0 22 22" xmlns:xlink="http://www.w3.org/1999/xlink">
<defs>
<linearGradient gradientTransform="matrix(.45833 0 0 .45833 0 -460.33267)" id="linear0" y1="1003.967" y2="1052.15" gradientUnits="userSpaceOnUse" x2="0">
<stop offset="0" style="stop-color:#8ebede"/>
<stop offset="1" style="stop-color:#478bb8"/>
</linearGradient>
</defs>
<rect width="22" x="0" y="0" height="22" style="fill:url(#linear0)"/>
<g style="fill:#fff">
<path style="fill-opacity:.322" d="M 0 0 L 0 22 L 7.691406 22 L 13.578125 0 Z "/>
<path d="M 13.785156 7.410156 C 12.371094 7.511719 9.890625 9.890625 10.238281 9.878906 C 13.125 9.78125 14.929688 9.945312 17.183594 10.636719 C 17.515625 10.738281 16.824219 7.644531 13.785156 7.410156 Z "/>
<path d="M 9.488281 5.457031 C 8.6875 6.609375 8.585938 11.132812 8.792969 10.851562 C 10.5 8.558594 14.597656 5.722656 17.039062 4.582031 C 20.054688 3.171875 11.277344 3.34375 9.488281 5.457031 Z "/>
<path d="M 5.855469 10.371094 C 6.316406 11.699219 9.277344 13.460938 9.175781 13.128906 C 8.332031 10.390625 8.027344 8.625 8.125 6.289062 C 8.136719 5.941406 5.296875 7.40625 5.855469 10.371094 Z "/>
<path d="M 6.242188 14.722656 C 7.550781 15.253906 10.839844 14.210938 10.523438 14.066406 C 7.890625 12.890625 6.347656 11.949219 4.636719 10.339844 C 4.382812 10.101562 3.621094 13.183594 6.242188 14.722656 Z "/>
<path d="M 10.035156 17.214844 C 11.289062 16.5625 12.601562 13.398438 12.289062 13.546875 C 9.683594 14.78125 7.960938 15.347656 5.617188 15.601562 C 5.269531 15.640625 7.15625 18.203125 10.035156 17.214844 Z "/>
<path d="M 14.457031 15.871094 C 14.761719 14.5 13.171875 11.464844 13.082031 11.800781 C 12.351562 14.566406 11.679688 16.234375 10.363281 18.171875 C 10.167969 18.460938 13.363281 18.6875 14.457031 15.871094 Z "/>
<path d="M 16.195312 11.5625 C 15.34375 10.441406 11.980469 9.667969 12.179688 9.949219 C 13.832031 12.296875 14.671875 13.886719 15.304688 16.140625 C 15.398438 16.472656 17.648438 14.214844 16.195312 11.5625 Z "/>
</g>
</svg>
