<svg width="22" xmlns="http://www.w3.org/2000/svg" height="22" viewBox="0 0 22 22" xmlns:xlink="http://www.w3.org/1999/xlink">
<defs>
<linearGradient gradientTransform="matrix(.45833 0 0 -.45833 0 -460.33267)" id="linear0" y1="-1003.614" x1="25.456" y2="-1052.934" gradientUnits="userSpaceOnUse" x2="24.489">
<stop offset="0" style="stop-color:#9ddf5f"/>
<stop offset="1" style="stop-color:#3d790a"/>
</linearGradient>
</defs>
<path style="fill:url(#linear0)" d="M 0.890625 22 L 21.109375 22 C 21.601562 22 22 21.601562 22 21.109375 L 22 0.890625 C 22 0.398438 21.601562 0 21.109375 0 L 0.890625 0 C 0.398438 0 0 0.398438 0 0.890625 L 0 21.109375 C 0 21.601562 0.398438 22 0.890625 22 Z "/>
<path style="fill:#fff;fill-opacity:.149" d="M 0.917969 0 C 0.410156 0 0 0.410156 0 0.917969 L 0 21.082031 C 0 21.589844 0.410156 22 0.917969 22 L 7.691406 22 L 13.578125 0 Z "/>
<path style="fill:#fffffc" d="M 9.273438 6.109375 C 12.296875 6.109375 15.480469 6.730469 17.804688 8.097656 C 18.117188 8.273438 18.332031 8.539062 18.332031 9.03125 C 18.332031 9.59375 17.882812 9.996094 17.363281 9.996094 C 17.152344 9.996094 17.027344 9.945312 16.832031 9.835938 C 14.96875 8.71875 12.074219 8.105469 9.277344 8.105469 C 7.882812 8.105469 6.464844 8.246094 5.164062 8.597656 C 5.015625 8.636719 4.828125 8.710938 4.636719 8.710938 C 4.089844 8.710938 3.667969 8.277344 3.667969 7.726562 C 3.667969 7.167969 4.011719 6.855469 4.386719 6.742188 C 5.855469 6.3125 7.492188 6.109375 9.273438 6.109375 Z M 9.066406 9.648438 C 11.761719 9.648438 14.367188 10.320312 16.417969 11.546875 C 16.761719 11.742188 16.886719 11.992188 16.886719 12.359375 C 16.886719 12.804688 16.53125 13.164062 16.085938 13.164062 C 15.859375 13.164062 15.71875 13.074219 15.570312 12.988281 C 13.894531 11.992188 11.574219 11.332031 9.03125 11.332031 C 7.726562 11.332031 6.601562 11.515625 5.667969 11.761719 C 5.46875 11.816406 5.355469 11.878906 5.167969 11.878906 C 4.726562 11.878906 4.363281 11.515625 4.363281 11.070312 C 4.363281 10.632812 4.578125 10.332031 5.003906 10.210938 C 6.164062 9.890625 7.34375 9.648438 9.066406 9.648438 Z M 9.207031 13.007812 C 11.460938 13.007812 13.46875 13.527344 15.195312 14.5625 C 15.453125 14.710938 15.601562 14.867188 15.601562 15.246094 C 15.601562 15.617188 15.300781 15.890625 14.960938 15.890625 C 14.796875 15.890625 14.683594 15.832031 14.527344 15.738281 C 13.035156 14.835938 11.175781 14.359375 9.199219 14.359375 C 8.097656 14.359375 6.988281 14.5 5.953125 14.71875 C 5.78125 14.753906 5.570312 14.820312 5.445312 14.820312 C 5.054688 14.820312 4.792969 14.507812 4.792969 14.171875 C 4.792969 13.738281 5.042969 13.523438 5.351562 13.464844 C 6.625 13.175781 7.890625 13.007812 9.207031 13.007812 Z "/>
</svg>
