<svg width="22" xmlns="http://www.w3.org/2000/svg" height="22" viewBox="0 0 22 22" xmlns:xlink="http://www.w3.org/1999/xlink">
<defs>
<linearGradient gradientTransform="matrix(.45833 0 0 .45833 0 -460.33267)" id="linear0" y1="1053.158" y2="1004.847" gradientUnits="userSpaceOnUse" x2="0">
<stop offset="0" style="stop-color:#cd5b23"/>
<stop offset="1" style="stop-color:#ff6700"/>
</linearGradient>
</defs>
<path style="fill:url(#linear0)" d="M 0.890625 0 L 21.109375 0 C 21.601562 0 22 0.398438 22 0.890625 L 22 21.109375 C 22 21.601562 21.601562 22 21.109375 22 L 0.890625 22 C 0.398438 22 0 21.601562 0 21.109375 L 0 0.890625 C 0 0.398438 0.398438 0 0.890625 0 Z "/>
<g style="fill:#fff">
<path d="M 4.929688 3.675781 L 4.929688 8.472656 C 4.929688 12.457031 5.070312 13.414062 5.226562 14.066406 C 5.8125 16.519531 7.390625 17.929688 9.929688 18.265625 C 11.308594 18.453125 14.085938 18.238281 16.269531 17.78125 L 17.070312 17.617188 L 17.070312 3.675781 L 13.023438 3.667969 L 13.023438 14.792969 L 8.976562 14.792969 L 8.976562 6.953125 L 7.460938 6.953125 L 9.484375 3.667969 Z "/>
<path style="fill-opacity:.149" d="M 0 0 L 0 22 L 7.691406 22 L 13.578125 0 Z "/>
</g>
</svg>
