<svg width="22" xmlns="http://www.w3.org/2000/svg" height="22" viewBox="0 0 22 22" xmlns:xlink="http://www.w3.org/1999/xlink">
<defs>
<linearGradient gradientTransform="matrix(.45833 0 0 .45833 0 -460.33267)" id="linear0" y1="1053.158" y2="1004.847" gradientUnits="userSpaceOnUse" x2="0">
<stop offset="0" style="stop-color:#000"/>
<stop offset="1" style="stop-color:#5a5d60"/>
</linearGradient>
</defs>
<path style="fill:url(#linear0)" d="M 0.890625 0 L 21.109375 0 C 21.601562 0 22 0.398438 22 0.890625 L 22 21.109375 C 22 21.601562 21.601562 22 21.109375 22 L 0.890625 22 C 0.398438 22 0 21.601562 0 21.109375 L 0 0.890625 C 0 0.398438 0.398438 0 0.890625 0 Z "/>
<path style="fill:#fff;fill-opacity:.149" d="M 0 0 L 0 22 L 7.691406 22 L 13.578125 0 Z "/>
<path style="fill:none;stroke:#fff;stroke-linejoin:round;stroke-width:2" d="M 9.025568 1017.376405 L 9.025568 1039.347995 L 39.068182 1039.347995 L 39.068182 1019.404814 L 25.994318 1019.404814 L 25.994318 1017.376405 Z " transform="matrix(.45833 0 0 .45833 0 -460.33267)"/>
<g style="fill:#fff">
<path d="M 5.5 6.421875 C 5.5 7.519531 5.5 7.332031 5.5 7.332031 L 6.417969 7.332031 L 6.417969 6.417969 Z "/>
<path d="M 6.417969 7.332031 L 6.417969 8.25 L 7.332031 8.25 L 7.332031 7.332031 Z "/>
<path d="M 5.5 8.25 L 5.5 9.167969 L 6.417969 9.167969 L 6.417969 8.25 Z "/>
<path d="M 6.417969 9.167969 L 6.417969 10.082031 L 7.332031 10.082031 L 7.332031 9.167969 Z "/>
<path d="M 5.5 10.082031 L 5.5 11 L 6.417969 11 L 6.417969 10.082031 Z "/>
<path d="M 6.417969 11 L 6.417969 11.917969 L 7.332031 11.917969 L 7.332031 11 Z "/>
<path d="M 5.5 11.917969 L 5.5 12.832031 L 6.417969 12.832031 L 6.417969 11.917969 Z "/>
<path d="M 6.417969 12.832031 L 6.417969 13.75 L 7.332031 13.75 L 7.332031 12.832031 Z "/>
</g>
</svg>
