<svg width="22" xmlns="http://www.w3.org/2000/svg" height="22" viewBox="0 0 22 22" xmlns:xlink="http://www.w3.org/1999/xlink">
<defs>
<linearGradient gradientTransform="matrix(.45833 0 0 .45833 -.05729 -460.27538)" id="linear0" y1="1053.158" y2="1004.847" gradientUnits="userSpaceOnUse" x2="0">
<stop offset="0" style="stop-color:#5280cc"/>
<stop offset="1" style="stop-color:#599ee0"/>
</linearGradient>
</defs>
<path style="fill:url(#linear0)" d="M 0.835938 0.0585938 L 21.050781 0.0585938 C 21.542969 0.0585938 21.941406 0.457031 21.941406 0.949219 L 21.941406 21.164062 C 21.941406 21.65625 21.542969 22.058594 21.050781 22.058594 L 0.835938 22.058594 C 0.34375 22.058594 -0.0585938 21.65625 -0.0585938 21.164062 L -0.0585938 0.949219 C -0.0585938 0.457031 0.34375 0.0585938 0.835938 0.0585938 Z "/>
<g style="fill:#fff">
<path style="fill-opacity:.149" d="M 0 0 L 0 22 L 7.691406 22 L 13.578125 0 Z "/>
<path d="M 11 8.25 L 11 13.75 L 15.582031 11 Z "/>
</g>
<path style="fill:none;stroke:#fff;stroke-width:2" d="M 10.943182 1013.3622 L 37.056818 1013.3622 C 38.130682 1013.3622 39 1014.231518 39 1015.305382 L 39 1041.419018 C 39 1042.492882 38.130682 1043.3622 37.056818 1043.3622 L 10.943182 1043.3622 C 9.869318 1043.3622 9 1042.492882 9 1041.419018 L 9 1015.305382 C 9 1014.231518 9.869318 1013.3622 10.943182 1013.3622 Z " transform="matrix(.45833 0 0 .45833 0 -460.33267)"/>
<path style="fill:#fff" d="M 11 8.25 L 11 4.125 L 4.125 4.125 L 4.125 17.875 L 11 17.875 L 11 13.75 L 7.332031 16.042969 L 7.332031 5.957031 Z "/>
</svg>
