<svg width="22" xmlns="http://www.w3.org/2000/svg" height="22" viewBox="0 0 22 22" xmlns:xlink="http://www.w3.org/1999/xlink">
<defs>
<linearGradient gradientTransform="matrix(.45833 0 0 -.45833 0 -460.33267)" id="linear0" y1="-1052.951" y2="-1004.488" gradientUnits="userSpaceOnUse" x2="0">
<stop offset="0" style="stop-color:#a30000"/>
<stop offset="1" style="stop-color:#a35400"/>
</linearGradient>
</defs>
<path style="fill:url(#linear0)" d="M 0.890625 22 L 21.109375 22 C 21.601562 22 22 21.601562 22 21.109375 L 22 0.890625 C 22 0.398438 21.601562 0 21.109375 0 L 0.890625 0 C 0.398438 0 0 0.398438 0 0.890625 L 0 21.109375 C 0 21.601562 0.398438 22 0.890625 22 Z "/>
<path style="fill:#fff;fill-opacity:.149" d="M 0 0 L 0 22 L 7.691406 22 L 13.578125 0 Z "/>
<path style="fill:#ededec" d="M 11 4.355469 C 6.949219 4.355469 3.667969 7.226562 3.667969 10.769531 C 3.667969 12.90625 4.867188 14.789062 6.703125 15.957031 C 6.636719 16.203125 6.550781 16.460938 6.417969 16.730469 C 5.957031 17.644531 5.5 17.644531 5.5 17.644531 C 5.5 17.644531 6.875 17.644531 7.792969 17.1875 C 7.984375 17.089844 8.15625 16.933594 8.308594 16.742188 C 9.140625 17.03125 10.046875 17.1875 11 17.1875 C 15.050781 17.1875 18.332031 14.316406 18.332031 10.769531 C 18.332031 7.226562 15.050781 4.355469 11 4.355469 Z M 8.492188 6.644531 L 11 9.167969 L 13.507812 6.644531 L 15.125 8.265625 L 12.617188 10.769531 L 15.125 13.292969 L 13.507812 14.894531 L 11 12.390625 L 8.492188 14.894531 L 6.875 13.292969 L 9.382812 10.769531 L 6.875 8.265625 Z "/>
</svg>
