<svg width="22" xmlns="http://www.w3.org/2000/svg" height="22" viewBox="0 0 22 22" xmlns:xlink="http://www.w3.org/1999/xlink">
<defs>
<linearGradient gradientTransform="matrix(.45833 0 0 -.45833 0 482.33267)" id="linear0" y1="1053.158" y2="1004.847" gradientUnits="userSpaceOnUse" x2="0">
<stop offset="0" style="stop-color:#536b7e"/>
<stop offset="1" style="stop-color:#4b5f6c"/>
</linearGradient>
</defs>
<path style="fill:url(#linear0)" d="M 0.890625 22 L 21.109375 22 C 21.601562 22 22 21.601562 22 21.109375 L 22 0.890625 C 22 0.398438 21.601562 0 21.109375 0 L 0.890625 0 C 0.398438 0 0 0.398438 0 0.890625 L 0 21.109375 C 0 21.601562 0.398438 22 0.890625 22 Z "/>
<g style="fill:#fff">
<path style="fill-opacity:.149" d="M 0 0 L 0 22 L 7.691406 22 L 13.578125 0 Z "/>
<path d="M 3.667969 3.667969 L 6.042969 7.289062 C 6.199219 7.042969 6.371094 6.804688 6.589844 6.589844 C 7.496094 5.683594 8.746094 5.339844 9.925781 5.527344 L 8.707031 3.667969 Z M 9.925781 5.527344 L 10.542969 6.460938 C 10.777344 6.5625 11.003906 6.683594 11.214844 6.847656 L 11.601562 6.230469 C 11.097656 5.855469 10.519531 5.625 9.925781 5.527344 Z M 11.601562 6.230469 C 11.75 6.339844 11.898438 6.453125 12.03125 6.589844 C 13.421875 7.980469 13.523438 10.195312 12.332031 11.703125 L 14.335938 13.707031 L 13.707031 14.335938 L 11.703125 12.332031 C 10.460938 13.316406 8.746094 13.414062 7.40625 12.648438 L 3.667969 18.332031 L 8.707031 18.332031 L 11 14.839844 L 13.292969 18.332031 L 18.332031 18.332031 L 13.519531 11 L 18.332031 3.667969 L 13.292969 3.667969 Z M 7.40625 12.648438 L 7.804688 12.03125 C 7.558594 11.894531 7.316406 11.726562 7.105469 11.515625 C 6.148438 10.5625 5.960938 9.144531 6.503906 7.992188 L 6.042969 7.289062 C 5.132812 8.769531 5.304688 10.75 6.589844 12.03125 C 6.835938 12.28125 7.113281 12.480469 7.40625 12.648438 Z M 6.503906 7.992188 L 8.480469 11 L 7.804688 12.03125 C 8.992188 12.691406 10.507812 12.523438 11.515625 11.515625 C 12.734375 10.296875 12.734375 8.320312 11.515625 7.105469 C 11.421875 7.011719 11.316406 6.925781 11.214844 6.847656 L 11 7.160156 L 10.542969 6.460938 C 9.40625 5.96875 8.035156 6.175781 7.105469 7.105469 C 6.839844 7.367188 6.652344 7.671875 6.503906 7.992188 Z M 14.523438 13.621094 L 16.527344 15.625 L 15.625 16.527344 L 13.621094 14.523438 Z "/>
</g>
</svg>
