<svg width="22" xmlns="http://www.w3.org/2000/svg" height="22" viewBox="0 0 22 22" xmlns:xlink="http://www.w3.org/1999/xlink">
<defs>
<linearGradient gradientTransform="matrix(.45833 0 0 -.45833 0 482.33267)" id="linear0" y1="1053.158" y2="1004.847" gradientUnits="userSpaceOnUse" x2="0">
<stop offset="0" style="stop-color:#31de09"/>
<stop offset="1" style="stop-color:#47ab00"/>
</linearGradient>
</defs>
<path style="fill:url(#linear0)" d="M 0.890625 22 L 21.109375 22 C 21.601562 22 22 21.601562 22 21.109375 L 22 0.890625 C 22 0.398438 21.601562 0 21.109375 0 L 0.890625 0 C 0.398438 0 0 0.398438 0 0.890625 L 0 21.109375 C 0 21.601562 0.398438 22 0.890625 22 Z "/>
<path style="fill:none;stroke:#fff;stroke-width:1.882" d="M 18.306818 10.934659 L 18.306818 16.840909 C 18.306818 17.514205 18.511364 18.605114 18.170455 19.210227 C 17.599432 20.215909 16.3125 21.119318 15.494318 21.9375 C 13.755682 23.676136 12.076705 25.465909 10.610795 27.434659 C 9.622159 28.764205 8.565341 30.264205 8.821023 32.002841 C 9.298295 35.207386 13.261364 37.090909 16.03125 37.883523 C 21.460227 39.443182 27.886364 39.588068 33.204545 37.474432 C 35.360795 36.622159 37.721591 35.377841 38.803977 33.213068 C 39.809659 31.201705 38.8125 29.360795 37.610795 27.707386 C 36.144886 25.678977 34.440341 23.838068 32.667614 22.073864 C 31.806818 21.213068 30.451705 20.267045 29.855114 19.210227 C 29.514205 18.605114 29.71875 17.514205 29.71875 16.840909 L 29.71875 10.934659 C 30.247159 10.934659 30.988636 11.0625 31.431818 10.713068 C 32.071023 10.227273 31.798295 9.289773 31.056818 9.09375 C 30.017045 8.829545 28.644886 9.051136 27.571023 9.051136 L 20.318182 9.051136 C 19.295455 9.051136 17.667614 8.744318 16.713068 9.153409 C 16.082386 9.426136 15.997159 10.40625 16.59375 10.772727 C 17.053977 11.053977 17.786932 10.934659 18.306818 10.934659 Z " transform="scale(.45833)"/>
<path style="fill:#fff;fill-opacity:.149" d="M 0 0 L 0 22 L 7.691406 22 L 13.578125 0 Z "/>
</svg>
