<svg width="256" xmlns="http://www.w3.org/2000/svg" height="256" viewBox="0 0 256 256" xmlns:xlink="http://www.w3.org/1999/xlink">
<g style="fill:#909ea9">
<path d="M 99.5 42.667969 C 91.714844 42.667969 85.332031 49.046875 85.332031 56.832031 L 85.332031 199 C 85.332031 206.789062 91.714844 213.332031 99.5 213.332031 L 156.332031 213.332031 C 164.121094 213.332031 170.667969 206.789062 170.667969 199 L 170.667969 56.832031 C 170.667969 49.046875 164.121094 42.667969 156.332031 42.667969 Z M 104.832031 53.332031 L 151.167969 53.332031 C 156.089844 53.332031 160 57.242188 160 62.167969 L 160 130.332031 C 160 135.257812 156.089844 139.167969 151.167969 139.167969 L 104.832031 139.167969 C 99.910156 139.167969 96 135.257812 96 130.332031 L 96 62.167969 C 96 57.242188 99.910156 53.332031 104.832031 53.332031 Z M 128 149.332031 C 142.726562 149.332031 154.667969 161.273438 154.667969 176 C 154.667969 190.726562 142.726562 202.667969 128 202.667969 C 113.273438 202.667969 101.332031 190.726562 101.332031 176 C 101.332031 161.273438 113.273438 149.332031 128 149.332031 Z "/>
<path d="M 117.332031 192 L 117.332031 160 L 144 176 Z "/>
</g>
</svg>
