<svg width="24" xmlns="http://www.w3.org/2000/svg" height="24" viewBox="0 0 24 24" xmlns:xlink="http://www.w3.org/1999/xlink">
<path style="fill:#909ea9" d="M 6.5 6 C 6.222656 6 6 6.222656 6 6.5 L 5.234375 6.5 C 4.558594 6.5 4 7.058594 4 7.734375 L 4 16.265625 C 4 16.941406 4.558594 17.5 5.234375 17.5 L 18.765625 17.5 C 19.441406 17.5 20 16.941406 20 16.265625 L 20 7.734375 C 20 7.058594 19.441406 6.5 18.765625 6.5 L 9 6.5 C 9 6.222656 8.777344 6 8.5 6 Z M 18.25 7.5 C 18.664062 7.5 19 7.835938 19 8.25 C 19 8.664062 18.664062 9 18.25 9 C 17.835938 9 17.5 8.664062 17.5 8.25 C 17.5 7.835938 17.835938 7.5 18.25 7.5 Z M 11.71875 9.5 C 11.8125 9.492188 11.90625 9.5 12 9.5 C 13.523438 9.5 14.75 10.726562 14.75 12.25 C 14.75 13.773438 13.523438 15 12 15 C 10.476562 15 9.25 13.773438 9.25 12.25 C 9.25 10.820312 10.328125 9.640625 11.71875 9.5 Z "/>
</svg>
