<?xml version="1.0" encoding="UTF-8" standalone="yes"?>
<svg xmlns="http://www.w3.org/2000/svg" xmlns:xlink="http://www.w3.org/1999/xlink" width="96px" height="96px" viewBox="0 0 72 72" version="1.1">
  <defs>
    <radialGradient id="radial0" gradientUnits="userSpaceOnUse" cx="24.218" cy="45.26" fx="24.218" fy="45.26" r="21.39" gradientTransform="matrix(1.683,0,0,0.105195,-4.7604,49.239)">
      <stop offset="0" style="stop-color:rgb(0%,0%,0%);stop-opacity:0.301961;"/>
      <stop offset="1" style="stop-color:rgb(0%,0%,0%);stop-opacity:0;"/>
    </radialGradient>
    <radialGradient id="radial1" gradientUnits="userSpaceOnUse" cx="10.125" cy="15.833" fx="10.125" fy="15.833" r="23" gradientTransform="matrix(1.6034,0.01259,-0.00619,0.788,-6.011,9.3958)">
      <stop offset="0" style="stop-color:rgb(72.156863%,69.803922%,92.941176%);stop-opacity:1;"/>
      <stop offset="1" style="stop-color:rgb(50.588235%,50.588235%,70.980392%);stop-opacity:1;"/>
    </radialGradient>
    <linearGradient id="linear0" gradientUnits="userSpaceOnUse" x1="19.885" y1="0" x2="18.962" y2="0" gradientTransform="matrix(0,-1.0833,1.0357,0,-0.5893,51.542)">
      <stop offset="0" style="stop-color:rgb(42.745098%,42.745098%,67.058824%);stop-opacity:1;"/>
      <stop offset="1" style="stop-color:rgb(67.45098%,67.45098%,81.568627%);stop-opacity:1;"/>
    </linearGradient>
    <linearGradient id="linear1" gradientUnits="userSpaceOnUse" x1="0" y1="13.962" x2="0" y2="33.038" gradientTransform="matrix(1,0,0,1,0,2)">
      <stop offset="0" style="stop-color:rgb(100%,100%,100%);stop-opacity:0.45098;"/>
      <stop offset="1" style="stop-color:rgb(100%,100%,100%);stop-opacity:0;"/>
    </linearGradient>
  </defs>
  <g id="surface1">
    <path style=" stroke:none;fill-rule:evenodd;fill:url(#radial0);" d="M 72 54 C 72 55.242188 55.882812 56.25 36 56.25 C 16.117188 56.25 0 55.242188 0 54 C 0 52.757812 16.117188 51.75 36 51.75 C 55.882812 51.75 72 52.757812 72 54 Z M 72 54 "/>
    <path style="fill-rule:evenodd;fill:url(#radial1);stroke-width:1;stroke-linecap:butt;stroke-linejoin:round;stroke:rgb(37.647059%,37.647059%,56.470588%);stroke-opacity:1;stroke-miterlimit:4;" d="M 6 35.494792 L 45.263021 35.494792 C 46.080729 35.528646 46.494792 35.401042 46.494792 34.609375 L 46.494792 32.085938 C 46.494792 31.322917 45.445312 31.304688 45.445312 31.304688 L 45.479167 18.721354 C 45.479167 18.721354 46.5 18.78125 46.5 17.953125 L 46.5 15.5 L 2.5 15.5 C 2.028646 15.5 1.5 16.028646 1.5 16.5 L 1.5 32.5 Z M 6 35.494792 " transform="matrix(1.5,0,0,1.5,0,0)"/>
    <path style="fill:none;stroke-width:1;stroke-linecap:butt;stroke-linejoin:miter;stroke:url(#linear0);stroke-miterlimit:4;" d="M 45 31.5 L 17.453125 31.5 C 16.924479 31.5 16.5 31.067708 16.5 30.53125 L 16.5 19.46875 C 16.5 18.932292 16.924479 18.5 17.453125 18.5 L 45 18.5 " transform="matrix(1.5,0,0,1.5,0,0)"/>
    <path style="fill:none;stroke-width:0.951;stroke-linecap:butt;stroke-linejoin:round;stroke:url(#linear1);stroke-miterlimit:4;" d="M 2.5 16.4375 L 2.5 32 C 3.791667 32.854167 5.020833 33.708333 6.3125 34.5625 L 45.5625 34.5625 L 45.5625 32.28125 C 44.78125 32.317708 44.351562 31.528646 44.5 30.833333 C 44.523438 26.731771 44.494792 22.630208 44.552083 18.53125 C 44.505208 17.778646 45.635417 18.028646 45.5625 17.492188 L 45.5 16.5 C 31.403646 16.5 16.598958 16.4375 2.5 16.4375 Z M 2.5 16.4375 " transform="matrix(1.5,0,0,1.5,0,0)"/>
    <path style=" stroke:none;fill-rule:evenodd;fill:rgb(26.666667%,26.666667%,34.901961%);fill-opacity:1;" d="M 13.5 35.304688 C 10.324219 35.304688 7.738281 35.269531 7.738281 35.398438 C 7.738281 35.527344 10.324219 35.683594 13.5 35.683594 C 16.671875 35.683594 19.261719 35.527344 19.261719 35.398438 C 19.261719 35.269531 16.671875 35.304688 13.5 35.304688 Z M 13.5 36.164062 C 11.125 36.164062 9.1875 36.117188 9.1875 36.207031 C 9.1875 36.300781 11.125 36.484375 13.5 36.484375 C 15.875 36.484375 17.8125 36.300781 17.8125 36.207031 C 17.8125 36.113281 15.875 36.164062 13.5 36.164062 Z M 13.5 37.207031 C 11.753906 37.207031 10.332031 37.167969 10.332031 37.246094 C 10.332031 37.328125 11.753906 37.5 13.5 37.5 C 15.242188 37.5 16.667969 37.328125 16.667969 37.246094 C 16.667969 37.167969 15.242188 37.207031 13.5 37.207031 Z M 10.140625 34.695312 C 10.796875 34.621094 11.113281 34.34375 11.246094 33.949219 C 11.382812 33.558594 11.648438 33.304688 12.113281 33.320312 C 12.574219 33.335938 12.652344 33.542969 12.574219 33.789062 C 12.496094 34.035156 12.515625 34.179688 12.453125 34.402344 C 12.328125 34.894531 14.664062 34.863281 14.542969 34.402344 C 14.484375 34.179688 14.5 34.035156 14.425781 33.789062 C 14.347656 33.542969 14.425781 33.335938 14.886719 33.320312 C 15.351562 33.304688 15.617188 33.558594 15.75 33.949219 C 15.886719 34.34375 16.203125 34.621094 16.859375 34.695312 C 17.511719 34.765625 18.265625 34.746094 18.910156 34.757812 C 19.554688 34.769531 19.800781 34.632812 18.980469 34.554688 C 18.15625 34.472656 17.058594 34.164062 16.851562 33.742188 C 16.644531 33.324219 16.425781 33.128906 15.671875 33.078125 C 14.085938 32.972656 12.984375 32.976562 11.328125 33.078125 C 10.574219 33.125 10.355469 33.324219 10.148438 33.742188 C 9.941406 34.164062 8.84375 34.472656 8.019531 34.554688 C 7.199219 34.632812 7.445312 34.769531 8.089844 34.757812 C 8.734375 34.746094 9.488281 34.765625 10.140625 34.695312 Z M 10.140625 34.695312 "/>
    <path style=" stroke:none;fill-rule:evenodd;fill:rgb(22.745098%,22.745098%,34.901961%);fill-opacity:1;" d="M 45.792969 41.9375 L 44.632812 41.9375 C 44.316406 41.9375 44.058594 42.207031 44.058594 42.535156 L 44.058594 44.398438 C 44.058594 44.730469 44.316406 45 44.632812 45 L 45.792969 45 C 46.105469 45 46.363281 44.730469 46.363281 44.398438 L 46.363281 42.535156 C 46.363281 42.207031 46.105469 41.9375 45.792969 41.9375 Z M 45.722656 44.203125 C 45.722656 44.464844 45.609375 44.675781 45.46875 44.675781 L 44.953125 44.675781 C 44.816406 44.675781 44.699219 44.464844 44.699219 44.203125 L 44.699219 42.730469 C 44.699219 42.472656 44.816406 42.257812 44.953125 42.257812 L 45.46875 42.257812 C 45.609375 42.257812 45.722656 42.472656 45.722656 42.730469 Z M 54.789062 42.867188 L 54.089844 42.867188 L 54.089844 42.863281 L 53.695312 42.863281 C 53.558594 42.863281 53.441406 42.554688 53.441406 42.257812 L 53.441406 42.078125 C 53.441406 41.78125 53.558594 41.535156 53.695312 41.535156 L 55.296875 41.535156 L 55.296875 41.167969 L 53.390625 41.167969 C 53.074219 41.167969 52.820312 41.476562 52.820312 41.855469 L 52.820312 42.480469 C 52.820312 42.859375 53.074219 43.234375 53.390625 43.234375 L 54.507812 43.234375 C 54.644531 43.234375 54.761719 43.480469 54.761719 43.777344 L 54.761719 44.085938 C 54.761719 44.382812 54.644531 44.628906 54.507812 44.628906 L 52.832031 44.628906 L 52.832031 45 L 54.789062 45 C 55.101562 45 55.359375 44.6875 55.359375 44.3125 L 55.359375 43.554688 C 55.359375 43.175781 55.101562 42.867188 54.789062 42.867188 Z M 38.222656 42.535156 L 38.222656 44.402344 C 38.222656 44.730469 38.496094 45 38.828125 45 L 40.238281 45 L 40.238281 44.675781 L 39.167969 44.675781 C 39.019531 44.675781 38.902344 44.464844 38.902344 44.203125 L 38.902344 43.613281 L 40.21875 43.613281 L 40.21875 43.324219 L 38.902344 43.324219 L 38.902344 42.734375 C 38.902344 42.472656 39.019531 42.261719 39.167969 42.261719 L 40.238281 42.261719 L 40.238281 41.9375 L 38.828125 41.9375 C 38.496094 41.9375 38.222656 42.207031 38.222656 42.539062 Z M 59.769531 42.535156 L 59.769531 44.402344 C 59.769531 44.730469 60.042969 45 60.375 45 L 61.785156 45 L 61.785156 44.675781 L 60.714844 44.675781 C 60.570312 44.675781 60.449219 44.464844 60.449219 44.203125 L 60.449219 42.730469 C 60.449219 42.472656 60.570312 42.257812 60.714844 42.257812 L 61.785156 42.257812 L 61.785156 41.9375 L 60.375 41.9375 C 60.042969 41.9375 59.769531 42.207031 59.769531 42.535156 Z M 41.957031 44.171875 L 41.417969 41.9375 L 40.773438 41.9375 L 40.773438 45 L 41.210938 45 L 41.210938 42.882812 L 41.71875 45 L 42.195312 45 L 42.679688 42.996094 L 42.679688 45 L 43.355469 45 L 43.355469 41.9375 L 42.496094 41.9375 Z M 35.988281 43.960938 L 35.3125 41.152344 L 34.5 41.152344 L 34.5 45 L 35.050781 45 L 35.050781 42.339844 L 35.691406 45 L 36.289062 45 L 36.941406 42.292969 L 36.941406 45 L 37.75 45 L 37.75 41.152344 L 36.667969 41.152344 L 35.992188 43.960938 Z M 49.050781 43.082031 L 49.050781 42.539062 C 49.050781 42.207031 48.792969 41.9375 48.476562 41.9375 L 47.027344 41.9375 L 47.027344 45 L 47.613281 45 L 47.613281 42.261719 L 48.285156 42.261719 C 48.421875 42.261719 48.539062 42.472656 48.539062 42.734375 L 48.539062 42.890625 C 48.539062 43.148438 48.421875 43.363281 48.285156 43.363281 L 48.140625 43.363281 L 48.140625 43.390625 L 47.875 43.390625 L 48.550781 45 L 49.054688 45 L 48.5 43.683594 C 48.804688 43.667969 49.050781 43.40625 49.050781 43.085938 Z M 58.253906 45 L 58.839844 45 L 58.839844 41.9375 L 58.253906 41.9375 Z M 55.503906 42.453125 L 56.289062 42.453125 L 56.289062 45 L 56.871094 45 L 56.871094 42.453125 L 57.65625 42.453125 L 57.65625 41.9375 L 55.503906 41.9375 Z M 64.5 41.9375 L 63.917969 41.9375 L 63.019531 43.011719 L 63.019531 41.9375 L 62.433594 41.9375 L 62.433594 45 L 63.019531 45 L 63.019531 43.683594 L 63.917969 45 L 64.5 45 L 63.351562 43.3125 Z M 50.625 43.140625 L 50.113281 41.9375 L 49.527344 41.9375 L 50.273438 43.679688 L 50.273438 45 L 50.855469 45 L 50.855469 43.667969 L 51.53125 41.9375 L 51.097656 41.9375 Z M 50.625 43.140625 "/>
    <path style=" stroke:none;fill-rule:evenodd;fill:rgb(26.666667%,26.666667%,34.901961%);fill-opacity:1;" d="M 18.476562 28.609375 L 18.476562 28.972656 L 18.570312 28.972656 C 18.652344 28.972656 18.675781 28.988281 18.675781 29.03125 C 18.675781 29.054688 18.664062 29.085938 18.644531 29.128906 L 18.269531 29.699219 C 18.222656 29.777344 18.171875 29.769531 18.128906 29.707031 L 17.773438 29.15625 C 17.757812 29.125 17.726562 29.089844 17.726562 29.046875 C 17.726562 29 17.765625 28.972656 17.859375 28.972656 L 17.953125 28.972656 L 17.953125 28.613281 L 16.65625 28.613281 L 16.65625 28.972656 C 16.976562 28.972656 16.960938 29.015625 17.078125 29.207031 L 17.777344 30.3125 L 17.777344 30.871094 C 17.777344 31.015625 17.726562 31.066406 17.582031 31.066406 L 17.355469 31.066406 L 17.355469 31.414062 L 18.789062 31.414062 L 18.789062 31.066406 L 18.566406 31.066406 C 18.421875 31.066406 18.371094 31.015625 18.371094 30.871094 L 18.371094 30.3125 L 18.964844 29.398438 C 19.179688 29.007812 19.210938 28.972656 19.367188 28.972656 L 19.5 28.972656 L 19.5 28.613281 L 18.476562 28.613281 Z M 8.046875 29.257812 C 8.046875 29.035156 8.335938 28.882812 8.675781 28.882812 C 8.941406 28.882812 9.253906 29.042969 9.402344 29.234375 C 9.480469 29.339844 9.570312 29.417969 9.59375 29.617188 L 9.882812 29.617188 L 9.882812 28.609375 L 9.570312 28.609375 C 9.570312 28.84375 9.507812 28.835938 9.441406 28.773438 C 9.203125 28.582031 8.953125 28.523438 8.65625 28.523438 C 7.949219 28.523438 7.5 28.882812 7.5 29.460938 C 7.5 30.015625 7.855469 30.167969 8.339844 30.273438 L 8.769531 30.375 C 9.277344 30.488281 9.433594 30.539062 9.433594 30.75 C 9.433594 30.960938 9.277344 31.105469 8.8125 31.109375 C 8.507812 31.113281 8.171875 30.980469 8.03125 30.792969 C 7.949219 30.691406 7.863281 30.636719 7.796875 30.371094 L 7.507812 30.371094 L 7.507812 31.414062 L 7.828125 31.414062 C 7.84375 31.265625 7.871094 31.148438 7.945312 31.207031 C 8.175781 31.386719 8.570312 31.5 8.828125 31.5 C 9.582031 31.5 9.996094 31.160156 9.996094 30.550781 C 10 29.382812 8.046875 29.875 8.046875 29.257812 Z M 15.292969 28.980469 L 15.472656 28.980469 C 15.625 28.980469 15.679688 29.03125 15.679688 29.179688 L 15.671875 30.296875 L 14.429688 28.632812 L 13.40625 28.632812 L 13.40625 28.980469 L 13.601562 28.980469 C 13.753906 28.980469 13.808594 29.03125 13.808594 29.179688 L 13.808594 30.890625 C 13.808594 31.035156 13.753906 31.089844 13.601562 31.089844 L 13.40625 31.089844 L 13.40625 31.433594 L 14.589844 31.433594 L 14.589844 31.089844 L 14.390625 31.089844 C 14.238281 31.089844 14.1875 31.035156 14.1875 30.890625 L 14.1875 29.46875 L 15.632812 31.429688 L 16.082031 31.433594 L 16.082031 29.179688 C 16.082031 29.03125 16.132812 28.980469 16.289062 28.980469 L 16.4375 28.980469 L 16.4375 28.632812 L 15.292969 28.632812 Z M 11.847656 28.5 C 10.9375 28.5 10.367188 29.074219 10.367188 30 C 10.367188 30.90625 10.929688 31.480469 11.820312 31.480469 C 12.765625 31.480469 13.316406 30.914062 13.316406 29.953125 C 13.316406 29.089844 12.722656 28.5 11.847656 28.5 Z M 11.828125 31.113281 C 11.324219 31.113281 11.03125 30.699219 11.03125 29.980469 C 11.03125 29.277344 11.335938 28.863281 11.851562 28.863281 C 12.347656 28.863281 12.636719 29.285156 12.636719 30.007812 C 12.636719 30.714844 12.34375 31.113281 11.828125 31.113281 Z M 11.828125 31.113281 "/>
    <path style=" stroke:none;fill-rule:evenodd;fill:rgb(26.666667%,26.666667%,34.901961%);fill-opacity:1;" d="M 10.242188 43.128906 L 7.5 45.636719 L 10.242188 48.148438 Z M 10.242188 43.128906 "/>
    <path style=" stroke:none;fill-rule:nonzero;fill:rgb(22.745098%,22.745098%,34.901961%);fill-opacity:1;" d="M 12.8125 46.929688 C 13.082031 46.609375 13.710938 45.78125 13.710938 45.027344 C 13.710938 44.414062 13.335938 44.007812 12.882812 44.007812 C 12.589844 44.007812 12.335938 44.101562 12.039062 44.214844 L 12.082031 44.964844 C 12.226562 44.832031 12.46875 44.679688 12.648438 44.679688 C 12.878906 44.679688 13.035156 44.871094 13.035156 45.164062 C 13.035156 45.695312 12.476562 46.359375 12.199219 46.757812 L 11.988281 47.054688 L 11.988281 47.683594 L 13.738281 47.683594 L 13.738281 47.054688 L 12.710938 47.054688 Z M 14.828125 45.335938 C 14.746094 45.335938 14.664062 45.34375 14.582031 45.355469 L 14.582031 44.683594 L 15.585938 44.683594 L 15.585938 44.070312 L 14.015625 44.070312 L 14.015625 45.992188 C 14.179688 45.941406 14.328125 45.894531 14.46875 45.894531 C 14.667969 45.894531 15.039062 46.007812 15.039062 46.519531 C 15.039062 46.769531 14.890625 47.117188 14.523438 47.117188 C 14.34375 47.117188 14.207031 47.046875 13.988281 46.9375 L 13.957031 47.582031 C 14.15625 47.679688 14.292969 47.746094 14.652344 47.746094 C 15.363281 47.746094 15.710938 47.132812 15.710938 46.535156 C 15.710938 45.757812 15.394531 45.332031 14.828125 45.332031 Z M 16.976562 45.371094 C 16.898438 45.371094 16.675781 45.390625 16.488281 45.679688 L 16.480469 45.679688 C 16.5 45.167969 16.59375 44.621094 17.085938 44.621094 C 17.261719 44.621094 17.445312 44.71875 17.5625 44.78125 L 17.601562 44.152344 C 17.382812 44.066406 17.21875 44.007812 16.988281 44.007812 C 16.132812 44.007812 15.863281 44.992188 15.863281 46.011719 C 15.863281 46.792969 16.03125 47.746094 16.839844 47.746094 C 17.648438 47.746094 17.746094 46.816406 17.746094 46.59375 C 17.746094 45.800781 17.382812 45.371094 16.976562 45.371094 Z M 16.804688 47.171875 C 16.511719 47.171875 16.511719 46.722656 16.511719 46.617188 C 16.511719 46.425781 16.511719 45.980469 16.804688 45.980469 C 17.066406 45.980469 17.097656 46.390625 17.097656 46.550781 C 17.097656 46.738281 17.070312 47.171875 16.804688 47.171875 Z M 19.640625 46.746094 L 19.636719 46.746094 L 19.300781 45.054688 L 18.5625 45.054688 L 18.5625 47.683594 L 19.011719 47.683594 L 19.011719 45.605469 L 19.015625 45.605469 L 19.46875 47.683594 L 19.789062 47.683594 L 20.257812 45.605469 L 20.265625 45.605469 L 20.265625 47.683594 L 20.710938 47.683594 L 20.710938 45.054688 L 20.007812 45.054688 L 19.644531 46.746094 Z M 22.082031 46.320312 L 22.082031 46.3125 C 22.199219 46.296875 22.457031 46.128906 22.457031 45.710938 C 22.457031 45.429688 22.320312 45.058594 21.882812 45.058594 L 21.105469 45.058594 L 21.105469 47.683594 L 21.855469 47.683594 C 21.976562 47.683594 22.5 47.625 22.5 46.957031 C 22.5 46.542969 22.316406 46.382812 22.082031 46.320312 Z M 21.578125 45.484375 L 21.707031 45.484375 C 21.945312 45.484375 21.988281 45.707031 21.988281 45.800781 C 21.988281 45.851562 21.980469 46.125 21.699219 46.125 L 21.578125 46.125 Z M 21.714844 47.242188 L 21.578125 47.242188 L 21.578125 46.554688 L 21.769531 46.554688 C 21.929688 46.554688 22.03125 46.671875 22.03125 46.902344 C 22.03125 47.242188 21.78125 47.242188 21.714844 47.242188 Z M 21.714844 47.242188 "/>
    <path style=" stroke:none;fill-rule:nonzero;fill:rgb(22.745098%,22.745098%,34.901961%);fill-opacity:1;" d="M 43.5 30.574219 L 44.035156 30.574219 L 44.035156 32.949219 L 44.613281 32.949219 L 44.613281 30.574219 L 45.148438 30.574219 L 45.148438 30.050781 L 43.5 30.050781 Z M 46.34375 30 C 45.636719 30 45.304688 30.648438 45.304688 31.5 C 45.304688 32.351562 45.636719 33 46.34375 33 C 47.050781 33 47.390625 32.351562 47.390625 31.5 C 47.390625 30.648438 47.050781 30 46.34375 30 Z M 46.34375 32.507812 C 46.007812 32.507812 45.894531 32.054688 45.894531 31.5 C 45.894531 30.941406 46.007812 30.488281 46.34375 30.488281 C 46.679688 30.488281 46.796875 30.941406 46.796875 31.5 C 46.796875 32.054688 46.679688 32.507812 46.34375 32.507812 Z M 49.191406 30.050781 L 47.546875 30.050781 L 47.546875 30.574219 L 48.082031 30.574219 L 48.082031 32.949219 L 48.65625 32.949219 L 48.65625 30.574219 L 49.191406 30.574219 Z M 49.894531 30.050781 L 49.078125 32.949219 L 49.632812 32.949219 L 49.800781 32.300781 L 50.570312 32.300781 L 50.722656 32.949219 L 51.316406 32.949219 L 50.527344 30.046875 L 49.890625 30.046875 Z M 49.90625 31.8125 L 50.199219 30.605469 L 50.207031 30.605469 L 50.460938 31.8125 Z M 52.144531 30.050781 L 51.566406 30.050781 L 51.566406 32.949219 L 52.957031 32.949219 L 52.957031 32.425781 L 52.144531 32.425781 L 52.144531 30.046875 Z M 54.816406 32.34375 C 55.046875 32.085938 55.585938 31.421875 55.585938 30.816406 C 55.585938 30.324219 55.265625 30 54.878906 30 C 54.625 30 54.410156 30.074219 54.152344 30.164062 L 54.191406 30.769531 C 54.3125 30.660156 54.519531 30.539062 54.675781 30.539062 C 54.875 30.539062 55.007812 30.695312 55.007812 30.925781 C 55.007812 31.355469 54.527344 31.886719 54.289062 32.207031 L 54.109375 32.441406 L 54.109375 32.949219 L 55.609375 32.949219 L 55.609375 32.441406 L 54.730469 32.441406 L 54.816406 32.339844 Z M 56.6875 31.0625 C 56.617188 31.0625 56.546875 31.070312 56.476562 31.078125 L 56.476562 30.539062 L 57.332031 30.539062 L 57.332031 30.050781 L 55.988281 30.050781 L 55.988281 31.589844 C 56.128906 31.550781 56.257812 31.511719 56.375 31.511719 C 56.550781 31.511719 56.867188 31.601562 56.867188 32.015625 C 56.867188 32.214844 56.738281 32.492188 56.421875 32.492188 C 56.269531 32.492188 56.152344 32.4375 55.964844 32.351562 L 55.9375 32.867188 C 56.109375 32.945312 56.226562 33 56.535156 33 C 57.144531 33 57.441406 32.503906 57.441406 32.027344 C 57.441406 31.402344 57.167969 31.0625 56.6875 31.0625 Z M 58.667969 31.089844 C 58.601562 31.089844 58.410156 31.109375 58.25 31.339844 L 58.242188 31.339844 C 58.257812 30.929688 58.339844 30.488281 58.761719 30.488281 C 58.910156 30.488281 59.066406 30.570312 59.171875 30.617188 L 59.203125 30.117188 C 59.015625 30.046875 58.875 30 58.675781 30 C 57.945312 30 57.710938 30.789062 57.710938 31.605469 C 57.710938 32.234375 57.855469 33 58.550781 33 C 59.242188 33 59.324219 32.25 59.324219 32.074219 C 59.324219 31.4375 59.015625 31.089844 58.667969 31.089844 Z M 58.519531 32.539062 C 58.269531 32.539062 58.269531 32.175781 58.269531 32.09375 C 58.269531 31.9375 58.269531 31.582031 58.519531 31.582031 C 58.746094 31.582031 58.769531 31.910156 58.769531 32.039062 C 58.769531 32.1875 58.75 32.539062 58.519531 32.539062 Z M 61.164062 32.253906 L 61.160156 32.253906 L 60.859375 30.996094 L 60.207031 30.996094 L 60.207031 32.949219 L 60.605469 32.949219 L 60.605469 31.40625 L 60.609375 31.40625 L 61.007812 32.949219 L 61.292969 32.949219 L 61.707031 31.40625 L 61.714844 31.40625 L 61.714844 32.949219 L 62.109375 32.949219 L 62.109375 30.996094 L 61.484375 30.996094 Z M 63.320312 31.9375 L 63.320312 31.929688 C 63.425781 31.917969 63.652344 31.792969 63.652344 31.484375 C 63.652344 31.273438 63.53125 30.996094 63.144531 30.996094 L 62.457031 30.996094 L 62.457031 32.949219 L 63.121094 32.949219 C 63.226562 32.949219 63.691406 32.90625 63.691406 32.410156 C 63.691406 32.101562 63.53125 31.980469 63.320312 31.9375 Z M 62.871094 31.3125 L 62.988281 31.3125 C 63.199219 31.3125 63.234375 31.480469 63.234375 31.550781 C 63.234375 31.585938 63.226562 31.789062 62.980469 31.789062 L 62.871094 31.789062 Z M 62.996094 32.617188 L 62.871094 32.617188 L 62.871094 32.109375 L 63.039062 32.109375 C 63.183594 32.109375 63.273438 32.195312 63.273438 32.367188 C 63.273438 32.617188 63.054688 32.617188 62.996094 32.617188 Z M 62.996094 32.617188 "/>
  </g>
</svg>