<?xml version="1.0" encoding="UTF-8" standalone="no"?>
<!-- Created with Inkscape (http://www.inkscape.org/) -->

<svg
   xmlns:dc="http://purl.org/dc/elements/1.1/"
   xmlns:cc="http://creativecommons.org/ns#"
   xmlns:rdf="http://www.w3.org/1999/02/22-rdf-syntax-ns#"
   xmlns:svg="http://www.w3.org/2000/svg"
   xmlns="http://www.w3.org/2000/svg"
   xmlns:xlink="http://www.w3.org/1999/xlink"
   xmlns:sodipodi="http://sodipodi.sourceforge.net/DTD/sodipodi-0.dtd"
   xmlns:inkscape="http://www.inkscape.org/namespaces/inkscape"
   width="32"
   height="32"
   id="svg2"
   version="1.1"
   inkscape:version="0.48.5 r10040"
   sodipodi:docname="folder-rss.svg"
   inkscape:export-filename="/media/Data/Main/Visuals/Icons/Numix/Desktop/repos/numix-wiki/Gjorgi/Numix-folders/48/New/folder-144.png"
   inkscape:export-xdpi="270"
   inkscape:export-ydpi="270">
  <defs
     id="defs4">
    <linearGradient
       id="linearGradient3958"
       inkscape:collect="always">
      <stop
         id="stop3960"
         offset="0"
         style="stop-color:#000000;stop-opacity:1;" />
      <stop
         id="stop3962"
         offset="1"
         style="stop-color:#000000;stop-opacity:0;" />
    </linearGradient>
    <radialGradient
       gradientUnits="userSpaceOnUse"
       gradientTransform="matrix(1,0,0,0.10447761,0,50.597015)"
       r="33.5"
       fy="56.5"
       fx="32.5"
       cy="56.5"
       cx="32.5"
       id="radialGradient3964"
       xlink:href="#linearGradient3958"
       inkscape:collect="always" />
    <radialGradient
       inkscape:collect="always"
       xlink:href="#linearGradient3958"
       id="radialGradient3031"
       gradientUnits="userSpaceOnUse"
       gradientTransform="matrix(1,0,0,0.10447761,0,50.597015)"
       cx="32.5"
       cy="56.5"
       fx="32.5"
       fy="56.5"
       r="33.5" />
    <radialGradient
       gradientUnits="userSpaceOnUse"
       gradientTransform="matrix(1,0,0,0.10447761,0,50.597015)"
       r="33.5"
       fy="56.5"
       fx="32.5"
       cy="56.5"
       cx="32.5"
       id="radialGradient3964-4"
       xlink:href="#linearGradient3958-4"
       inkscape:collect="always" />
    <linearGradient
       id="linearGradient3958-4"
       inkscape:collect="always">
      <stop
         id="stop3960-2"
         offset="0"
         style="stop-color:#000000;stop-opacity:1;" />
      <stop
         id="stop3962-1"
         offset="1"
         style="stop-color:#000000;stop-opacity:0;" />
    </linearGradient>
  </defs>
  <sodipodi:namedview
     id="base"
     pagecolor="#ffffff"
     bordercolor="#666666"
     borderopacity="1.0"
     inkscape:pageopacity="0.0"
     inkscape:pageshadow="2"
     inkscape:zoom="18.95"
     inkscape:cx="16.987447"
     inkscape:cy="14.118163"
     inkscape:document-units="px"
     inkscape:current-layer="layer1"
     showgrid="true"
     inkscape:window-width="1280"
     inkscape:window-height="998"
     inkscape:window-x="0"
     inkscape:window-y="0"
     inkscape:window-maximized="1"
     showguides="true"
     inkscape:guide-bbox="true">
    <inkscape:grid
       type="xygrid"
       id="grid2985"
       empspacing="5"
       visible="true"
       enabled="true"
       snapvisiblegridlinesonly="true" />
  </sodipodi:namedview>
  <metadata
     id="metadata7">
    <rdf:RDF>
      <cc:Work
         rdf:about="">
        <dc:format>image/svg+xml</dc:format>
        <dc:type
           rdf:resource="http://purl.org/dc/dcmitype/StillImage" />
        <dc:title />
      </cc:Work>
    </rdf:RDF>
  </metadata>
  <g
     inkscape:label="Layer 1"
     inkscape:groupmode="layer"
     id="layer1"
     transform="translate(0,-1020.3622)">
    <path
       sodipodi:type="arc"
       style="opacity:0.3;fill:url(#radialGradient3031);fill-opacity:1;stroke:none"
       id="path3956"
       sodipodi:cx="32.5"
       sodipodi:cy="56.5"
       sodipodi:rx="33.5"
       sodipodi:ry="3.5"
       d="M 66,56.5 C 66,58.432997 51.001539,60 32.5,60 13.998461,60 -1,58.432997 -1,56.5 -1,54.567003 13.998461,53 32.5,53 51.001539,53 66,54.567003 66,56.5 z"
       transform="matrix(0.71641791,0,0,0.85714286,-7.2835821,999.9336)" />
    <path
       sodipodi:nodetypes="ccccccccc"
       inkscape:connector-curvature="0"
       id="path3029"
       d="m 0,1024.8917 0,21.4117 32,0 0,-10.7059 -1.523809,-9.1765 -11.976191,-0.059 -1.5,-3 -15.4761905,0 C 0.761905,1023.3622 0,1024.1269 0,1024.8917 z"
       style="fill:replacecolour2;fill-opacity:1;stroke:none" />
    <rect
       style="fill:#fffdf0;fill-opacity:1;stroke:none"
       id="rect3799"
       width="15.785714"
       height="5.9411421"
       x="2.5000007"
       y="1027.3622" />
    <path
       style="opacity:0.02999998;fill:#000000;fill-opacity:1;stroke:none"
       d="M 1.53125,1023.3622 C 0.7693455,1023.3622 0,1024.1288 0,1024.8935 l 0,1 c 0,-0.7647 0.7693455,-1.5313 1.53125,-1.5313 l 14.96875,0 1.5,3 12.46875,0.062 1.53125,9.1719 0,-1 -1.53125,-9.1719 -11.96875,-0.062 -1.5,-3 z"
       id="path3790"
       inkscape:connector-curvature="0"
       sodipodi:nodetypes="sscsccccccccs" />
    <path
       style="fill:replacecolour1;fill-opacity:1;stroke:none"
       d="m 32,1027.9505 0,21.4117 -32,0 0,-20 15,0 1.5,-3 13.976191,0.059 c 0.761904,0 1.523809,0.7648 1.523809,1.5295 z"
       id="rect2987"
       inkscape:connector-curvature="0"
       sodipodi:nodetypes="cccccccc" />
    <path
       sodipodi:nodetypes="ccccc"
       id="path3794"
       d="m 0,1048.3622 0,1 32,0 0,-1 z"
       style="opacity:0.15;fill:#000000;fill-opacity:1;stroke:none"
       inkscape:connector-curvature="0" />
    <path
       style="opacity:0.02999998;fill:#000000;fill-opacity:1;stroke:none"
       d="m 16.5,1026.3622 -1.5,3 -15,0 0,1 15.5,0 1.5,-3 13.46875,0.062 c 0.761904,0 1.53125,0.7666 1.53125,1.5313 l 0,-1 c 0,-0.7647 -0.769346,-1.5313 -1.53125,-1.5313 z"
       id="path3015"
       inkscape:connector-curvature="0"
       sodipodi:nodetypes="ccccccccscc" />
    <path
       style="opacity:1.0;fill:replacecolour3;fill-opacity:1;fill-rule:nonzero;stroke:none"
       d="m 10,1033.3622 0,2 c 5.073325,0.5602 10.020089,4.9575 10,10 l 2,0 c 0,-7.2032 -6.468818,-11.772 -12,-12 z m 0,4 0,2 c 2.749326,0.2261 5.96934,2.792 6,6 l 2,0 c -0.11958,-4.8917 -4.584914,-7.6527 -8,-8 z"
       id="path3394"
       inkscape:connector-curvature="0"
       sodipodi:nodetypes="cccccccccc" />
    <path
       sodipodi:type="arc"
       style="fill:replacecolour3;fill-opacity:1;fill-rule:evenodd;stroke:none;opacity:1.0"
       id="path3016"
       sodipodi:cx="11.5"
       sodipodi:cy="23.5"
       sodipodi:rx="1.5"
       sodipodi:ry="1.5"
       d="m 13,23.5 a 1.5,1.5 0 1 1 -3,0 1.5,1.5 0 1 1 3,0 z"
       transform="translate(0,1020.3622)" />
  </g>
</svg>
