<svg width="32" xmlns="http://www.w3.org/2000/svg" height="32" viewBox="0 0 32 32" xmlns:xlink="http://www.w3.org/1999/xlink">
<path style="fill:#2f708c" d="M 13.933594 28.28125 L 13.933594 20.628906 C 12.183594 20.628906 10.433594 20.628906 8.683594 20.632812 L 2.425781 19.5 L 6.558594 26.894531 C 6.757812 27.257812 7.96875 28.28125 10.011719 28.28125 Z "/>
<path style="fill:#45b9b5" d="M 8.683594 20.632812 L 10.035156 18.214844 L 11.753906 19.242188 L 10.53125 15.71875 L 9.3125 12.199219 L 5.753906 12.863281 L 2.195312 13.53125 L 3.632812 14.390625 L 2.460938 16.488281 C 1.902344 17.488281 1.804688 18.378906 2.429688 19.5 L 6.558594 26.894531 C 6.660156 27.078125 7.011719 27.425781 7.601562 27.726562 C 5.605469 26.28125 6.757812 24.03125 8.683594 20.632812 Z "/>
<path style="fill:#318685" d="M 6.429688 9.25 L 12.835938 13.078125 C 13.710938 11.507812 14.585938 9.941406 15.457031 8.371094 L 19.535156 3.332031 L 11.28125 3.335938 C 10.875 3.335938 9.410156 3.90625 8.390625 5.738281 Z "/>
<path style="fill:#3db7a3" d="M 15.457031 8.371094 L 16.808594 10.789062 L 15.089844 11.816406 L 18.648438 12.484375 L 22.203125 13.148438 L 23.425781 9.628906 L 24.644531 6.109375 L 23.210938 6.964844 L 22.039062 4.867188 C 21.484375 3.871094 20.785156 3.332031 19.535156 3.335938 L 11.277344 3.335938 C 11.078125 3.335938 10.609375 3.476562 10.0625 3.851562 C 12.269531 2.789062 13.574219 4.945312 15.457031 8.371094 Z "/>
<path style="fill:#2d8576" d="M 27.714844 12.15625 L 21.089844 15.980469 C 21.964844 17.496094 22.839844 19.011719 23.71875 20.527344 L 25.863281 26.511719 L 30.203125 19.238281 C 30.414062 18.882812 30.695312 17.320312 29.675781 15.550781 Z "/>
<path style="fill:#409bbf" d="M 23.71875 20.523438 L 20.945312 20.566406 L 20.976562 18.5625 L 18.539062 21.382812 L 16.101562 24.199219 L 18.453125 26.949219 L 20.8125 29.695312 L 20.835938 28.023438 L 23.238281 27.988281 C 24.382812 27.972656 25.207031 27.609375 25.863281 26.511719 L 30.203125 19.238281 C 30.308594 19.058594 30.433594 18.578125 30.402344 17.917969 C 30.148438 20.367188 27.621094 20.496094 23.71875 20.523438 Z "/>
<path style="fill:#dc322f" d="M 25.332031 13.332031 L 25.832031 24 L 28.832031 24 L 29.332031 13.332031 Z M 25.332031 25.777344 L 25.332031 29.332031 L 29.332031 29.332031 L 29.332031 25.777344 Z "/>
</svg>
