<?xml version="1.0" encoding="UTF-8" standalone="no"?>
<!-- Created with Inkscape (http://www.inkscape.org/) -->

<svg
   xmlns:dc="http://purl.org/dc/elements/1.1/"
   xmlns:cc="http://creativecommons.org/ns#"
   xmlns:rdf="http://www.w3.org/1999/02/22-rdf-syntax-ns#"
   xmlns:svg="http://www.w3.org/2000/svg"
   xmlns="http://www.w3.org/2000/svg"
   xmlns:xlink="http://www.w3.org/1999/xlink"
   xmlns:sodipodi="http://sodipodi.sourceforge.net/DTD/sodipodi-0.dtd"
   xmlns:inkscape="http://www.inkscape.org/namespaces/inkscape"
   width="48"
   height="48"
   id="svg2"
   version="1.1"
   inkscape:version="0.48.5 r10040"
   sodipodi:docname="folder-ubuntu.svg">
  <defs
     id="defs4">
    <linearGradient
       id="linearGradient3855">
      <stop
         style="stop-color:#000000;stop-opacity:1;"
         offset="0"
         id="stop3857" />
      <stop
         style="stop-color:#000000;stop-opacity:0.29411766;"
         offset="1"
         id="stop3859" />
    </linearGradient>
    <linearGradient
       id="linearGradient3833">
      <stop
         id="stop3835"
         offset="0"
         style="stop-color:#fdfeff;stop-opacity:1;" />
      <stop
         id="stop3837"
         offset="1"
         style="stop-color:#dfe4e4;stop-opacity:1;" />
    </linearGradient>
    <linearGradient
       id="linearGradient3823">
      <stop
         style="stop-color:#49b7ef;stop-opacity:1;"
         offset="0"
         id="stop3825" />
      <stop
         style="stop-color:#1d8de2;stop-opacity:1;"
         offset="1"
         id="stop3827" />
    </linearGradient>
    <linearGradient
       id="linearGradient3956">
      <stop
         style="stop-color:#f8f4e1;stop-opacity:1;"
         offset="0"
         id="stop3958" />
      <stop
         style="stop-color:#eae5c8;stop-opacity:1;"
         offset="1"
         id="stop3960" />
    </linearGradient>
    <linearGradient
       id="linearGradient3915">
      <stop
         style="stop-color:#f8f4e1;stop-opacity:1;"
         offset="0"
         id="stop3917" />
      <stop
         style="stop-color:#ad9e57;stop-opacity:1;"
         offset="1"
         id="stop3919" />
    </linearGradient>
    <linearGradient
       inkscape:collect="always"
       id="linearGradient3861">
      <stop
         style="stop-color:#000000;stop-opacity:1;"
         offset="0"
         id="stop3863" />
      <stop
         style="stop-color:#000000;stop-opacity:0;"
         offset="1"
         id="stop3865" />
    </linearGradient>
    <linearGradient
       id="linearGradient3844">
      <stop
         style="stop-color:#000000;stop-opacity:0.39215687;"
         offset="0"
         id="stop3846" />
      <stop
         style="stop-color:#000000;stop-opacity:0;"
         offset="1"
         id="stop3848" />
    </linearGradient>
    <linearGradient
       id="linearGradient3810">
      <stop
         style="stop-color:#f2c66f;stop-opacity:1;"
         offset="0"
         id="stop3812" />
      <stop
         style="stop-color:#fbd68f;stop-opacity:1;"
         offset="1"
         id="stop3814" />
    </linearGradient>
    <linearGradient
       inkscape:collect="always"
       xlink:href="#linearGradient3810"
       id="linearGradient3816"
       x1="24"
       y1="1046.3622"
       x2="24"
       y2="1014.3622"
       gradientUnits="userSpaceOnUse" />
    <radialGradient
       inkscape:collect="always"
       xlink:href="#linearGradient3844"
       id="radialGradient3850"
       cx="24.075672"
       cy="41.38316"
       fx="24.075672"
       fy="41.38316"
       r="21.075672"
       gradientTransform="matrix(1,0,0,0.11307633,0,36.703704)"
       gradientUnits="userSpaceOnUse" />
    <linearGradient
       inkscape:collect="always"
       xlink:href="#linearGradient3810"
       id="linearGradient3856"
       gradientUnits="userSpaceOnUse"
       x1="24"
       y1="1046.3622"
       x2="24"
       y2="1014.3622"
       gradientTransform="translate(0,-3)" />
    <linearGradient
       inkscape:collect="always"
       xlink:href="#linearGradient3810"
       id="linearGradient3858"
       gradientUnits="userSpaceOnUse"
       x1="24"
       y1="1046.3622"
       x2="24"
       y2="1014.3622"
       gradientTransform="translate(0,-1004.3622)" />
    <linearGradient
       inkscape:collect="always"
       xlink:href="#linearGradient3861"
       id="linearGradient3867"
       x1="1.9952808"
       y1="28.5625"
       x2="46.004719"
       y2="28.5625"
       gradientUnits="userSpaceOnUse" />
    <linearGradient
       inkscape:collect="always"
       xlink:href="#linearGradient3915"
       id="linearGradient3921"
       x1="35"
       y1="8"
       x2="38"
       y2="5"
       gradientUnits="userSpaceOnUse" />
    <linearGradient
       inkscape:collect="always"
       xlink:href="#linearGradient3915"
       id="linearGradient3933"
       gradientUnits="userSpaceOnUse"
       x1="35"
       y1="8"
       x2="38"
       y2="5"
       gradientTransform="matrix(1.0436562,0,0,1.2222222,26.301501,1003.2511)" />
    <linearGradient
       inkscape:collect="always"
       xlink:href="#linearGradient3915"
       id="linearGradient3954"
       x1="35"
       y1="11"
       x2="44"
       y2="5"
       gradientUnits="userSpaceOnUse"
       gradientTransform="translate(22,1004.3622)" />
    <linearGradient
       inkscape:collect="always"
       xlink:href="#linearGradient3823"
       id="linearGradient3829"
       x1="21"
       y1="14"
       x2="20"
       y2="24"
       gradientUnits="userSpaceOnUse" />
    <linearGradient
       inkscape:collect="always"
       xlink:href="#linearGradient3833"
       id="linearGradient3839"
       gradientUnits="userSpaceOnUse"
       x1="21"
       y1="14"
       x2="20"
       y2="26" />
    <linearGradient
       inkscape:collect="always"
       xlink:href="#linearGradient3855"
       id="linearGradient3862"
       x1="22"
       y1="15"
       x2="20"
       y2="30"
       gradientUnits="userSpaceOnUse" />
  </defs>
  <sodipodi:namedview
     id="base"
     pagecolor="#ffffff"
     bordercolor="#666666"
     borderopacity="1.0"
     inkscape:pageopacity="0.0"
     inkscape:pageshadow="2"
     inkscape:zoom="35.255567"
     inkscape:cx="15.111769"
     inkscape:cy="18.212129"
     inkscape:document-units="px"
     inkscape:current-layer="layer1"
     showgrid="true"
     inkscape:window-width="1920"
     inkscape:window-height="1052"
     inkscape:window-x="0"
     inkscape:window-y="28"
     inkscape:window-maximized="1">
    <inkscape:grid
       type="xygrid"
       id="grid2990"
       empspacing="5"
       visible="true"
       enabled="true"
       snapvisiblegridlinesonly="true" />
  </sodipodi:namedview>
  <metadata
     id="metadata7">
    <rdf:RDF>
      <cc:Work
         rdf:about="">
        <dc:format>image/svg+xml</dc:format>
        <dc:type
           rdf:resource="http://purl.org/dc/dcmitype/StillImage" />
        <dc:title></dc:title>
      </cc:Work>
    </rdf:RDF>
  </metadata>
  <g
     inkscape:groupmode="layer"
     id="layer3"
     inkscape:label="Blob"
     sodipodi:insensitive="true">
    <path
       sodipodi:type="arc"
       style="opacity:0.65;fill:url(#radialGradient3850);fill-opacity:1;stroke:none"
       id="path3842"
       sodipodi:cx="24.075672"
       sodipodi:cy="41.38316"
       sodipodi:rx="21.075672"
       sodipodi:ry="2.3831596"
       d="m 45.151344,41.38316 a 21.075672,2.3831596 0 1 1 -42.151344,0 21.075672,2.3831596 0 1 1 42.151344,0 z"
       transform="matrix(1.1387537,0,0,1.0490275,-3.4162611,-1.9120725)" />
  </g>
  <g
     inkscape:label="Body"
     inkscape:groupmode="layer"
     id="layer1"
     transform="translate(0,-1004.3622)">
    <path
       sodipodi:nodetypes="ccccccccc"
       inkscape:connector-curvature="0"
       id="path3029"
       d="m 3,1014.3622 0,28 42,0 0,-14 -2,-12 -16,0 -2,-4 -20,0 c -1,0 -2,1 -2,2 z"
       style="fill:#1976d2;fill-opacity:1;stroke:none" />
    <rect
       style="fill:#fffdf0;fill-opacity:1;stroke:none"
       id="rect3799"
       width="21"
       height="7.9999828"
       x="6"
       y="1017.3622" />
    <path
       style="fill:#000000;fill-opacity:1;stroke:none;opacity:0.03"
       d="M 5,8 C 4,8 3,9 3,10 l 0,1 C 3,10 4,9 5,9 l 19,0 2,4 17,0 2,12 0,-1 -2,-12 -16,0 -2,-4 z"
       transform="translate(0,1004.3622)"
       id="path3810"
       inkscape:connector-curvature="0"
       sodipodi:nodetypes="sscsccccccccs" />
    <path
       style="fill:#42a5f5;fill-opacity:1;stroke:none"
       d="m 45,1018.3622 0,28 -42,0 0,-26 20,0 2,-4 18,0 c 1,0 2,1 2,2 z"
       id="rect2987"
       inkscape:connector-curvature="0"
       sodipodi:nodetypes="cccccccc" />
    <path
       sodipodi:nodetypes="ccccc"
       id="path3794"
       d="m 3,1045.3622 0,1 42,0 0,-1 z"
       style="opacity:0.15;fill:#000000;fill-opacity:1;stroke:none"
       inkscape:connector-curvature="0" />
    <path
       style="fill:none;stroke:none;stroke-width:1px;stroke-linecap:butt;stroke-linejoin:miter;stroke-opacity:1;fill-opacity:1"
       d="m 25,13 -5,3 3,0 z"
       id="path3801"
       inkscape:connector-curvature="0"
       transform="translate(0,1004.3622)" />
    <path
       style="opacity:0.03;fill:#000000;fill-opacity:1;stroke:none"
       d="m 25,12 -2,4 -20,0 0,1 21,0 2,-4 17,0 c 1,0 2,1 2,2 l 0,-1 c 0,-1 -1,-2 -2,-2 z"
       transform="translate(0,1004.3622)"
       id="path3805"
       inkscape:connector-curvature="0"
       sodipodi:nodetypes="ccccccscssc" />
    <path
       id="path3872"
       d="m 16.628307,1031.0705 c -0.899471,0 -1.628307,0.7186 -1.628307,1.6055 0,0.8865 0.728836,1.6052 1.628307,1.6052 0.899126,0 1.628048,-0.7187 1.628048,-1.6052 0,-0.8869 -0.728835,-1.6055 -1.628048,-1.6055 z m 11.625833,7.2965 c -0.778831,0.4433 -1.045411,1.4247 -0.595976,2.1922 0.449692,0.7679 1.445021,1.0309 2.223852,0.5877 0.778572,-0.4433 1.045325,-1.4247 0.595718,-2.1925 -0.44952,-0.7675 -1.445022,-1.0306 -2.223594,-0.5874 z m -8.089043,-5.6913 c 0,-1.5866 0.799654,-2.988 2.022497,-3.8365 l -1.190403,-1.966 c -1.424974,0.9386 -2.484926,2.3736 -2.925239,4.0543 0.514316,0.4133 0.842937,1.0428 0.842937,1.7484 0,0.7054 -0.328621,1.3349 -0.843024,1.7481 0.440228,1.6809 1.500267,3.1159 2.925241,4.0545 l 1.190488,-1.9662 c -1.222843,-0.8484 -2.022497,-2.2497 -2.022497,-3.8366 z m 4.756362,-4.6895 c 2.484839,0 4.523083,1.8784 4.736744,4.2736 l 2.320571,-0.033 c -0.114188,-1.7684 -0.897664,-3.3564 -2.101748,-4.5236 -0.619038,0.2306 -1.334191,0.1956 -1.952282,-0.1563 -0.618865,-0.3522 -1.007205,-0.9464 -1.113562,-1.5913 -0.601654,-0.1642 -1.23489,-0.2537 -1.889637,-0.2537 -1.126038,0 -2.189863,0.2606 -3.134854,0.7222 l 1.131201,1.9988 c 0.60897,-0.2794 1.287552,-0.4363 2.003567,-0.4363 z m 0,9.3792 c -0.716101,0 -1.394597,-0.157 -2.003653,-0.4364 l -1.131373,1.999 c 0.945077,0.4614 2.008987,0.7221 3.135026,0.7221 0.654747,0 1.287982,-0.09 1.889723,-0.2537 0.106357,-0.6448 0.494782,-1.2391 1.113734,-1.5916 0.618091,-0.3517 1.333245,-0.3867 1.952282,-0.156 1.203998,-1.1672 1.987475,-2.7553 2.10149,-4.5237 l -2.320572,-0.033 c -0.213487,2.3955 -2.251818,4.2736 -4.736657,4.2736 z m 3.332423,-10.381 c 0.778744,0.4434 1.774246,0.1804 2.223679,-0.5872 0.449693,-0.7679 0.183113,-1.7493 -0.595717,-2.1927 -0.778659,-0.4432 -1.774074,-0.1802 -2.223767,0.5877 -0.44952,0.7675 -0.182768,1.7491 0.595805,2.1922 z"
       style="line-height:normal;opacity:1.0;color:#000000;fill:#2a74b9;fill-opacity:1"
       inkscape:connector-curvature="0" />
  </g>
</svg>
