<svg width="16" xmlns="http://www.w3.org/2000/svg" height="16" viewBox="0 0 16 16" xmlns:xlink="http://www.w3.org/1999/xlink">
<defs>
<linearGradient gradientTransform="matrix(.33333 0 0 -.33333 0 -334.7874)" id="linear0" y1="-1004.362" y2="-1052.362" gradientUnits="userSpaceOnUse" x2="0">
<stop offset="0" style="stop-color:#8e5902"/>
<stop offset="1" style="stop-color:#4a2e01"/>
</linearGradient>
</defs>
<path style="fill:url(#linear0)" d="M 0.648438 16 L 15.351562 16 C 15.710938 16 16 15.710938 16 15.351562 L 16 0.648438 C 16 0.289062 15.710938 0 15.351562 0 L 0.648438 0 C 0.289062 0 0 0.289062 0 0.648438 L 0 15.351562 C 0 15.710938 0.289062 16 0.648438 16 Z "/>
<path style="fill:none;stroke:#fff;stroke-linejoin:round;stroke-linecap:round;stroke-width:6.203" d="M 185.284956 141.875069 C 185.338415 185.573554 153.957988 221.003127 115.25368 221.003127 C 76.549371 221.003127 45.168944 185.573554 45.222403 141.875069 C 45.168944 98.176584 76.549371 62.747011 115.25368 62.747011 C 153.957988 62.747011 185.338415 98.176584 185.284956 141.875069 Z " transform="matrix(.07307 0 0 .06472 -.42159 -1.18202)"/>
<g style="fill:#fff">
<path d="M 7.890625 2.746094 L 8.109375 2.746094 C 8.195312 2.746094 8.265625 2.816406 8.265625 2.902344 L 8.265625 12.933594 C 8.265625 13.019531 8.195312 13.089844 8.109375 13.089844 L 7.890625 13.089844 C 7.804688 13.089844 7.734375 13.019531 7.734375 12.933594 L 7.734375 2.902344 C 7.734375 2.816406 7.804688 2.746094 7.890625 2.746094 Z "/>
<path d="M 13.117188 7.890625 L 13.117188 8.109375 C 13.117188 8.195312 13.046875 8.265625 12.960938 8.265625 L 2.929688 8.265625 C 2.84375 8.265625 2.773438 8.195312 2.773438 8.109375 L 2.773438 7.890625 C 2.773438 7.804688 2.84375 7.734375 2.929688 7.734375 L 12.960938 7.734375 C 13.046875 7.734375 13.117188 7.804688 13.117188 7.890625 Z "/>
<path style="fill-opacity:.149" d="M 0.667969 0 C 0.296875 0 0 0.296875 0 0.667969 L 0 15.332031 C 0 15.703125 0.296875 16 0.667969 16 L 5.59375 16 L 9.875 0 Z "/>
</g>
</svg>
