<svg width="16" xmlns="http://www.w3.org/2000/svg" height="16" viewBox="0 0 16 16" xmlns:xlink="http://www.w3.org/1999/xlink">
<defs>
<linearGradient gradientTransform="matrix(.33333 0 0 -.33333 0 350.7874)" id="linear0" y1="1053.158" y2="1004.847" gradientUnits="userSpaceOnUse" x2="0">
<stop offset="0" style="stop-color:#8bce90"/>
<stop offset="1" style="stop-color:#1b8f37"/>
</linearGradient>
</defs>
<path style="fill:url(#linear0)" d="M 0.648438 16 L 15.351562 16 C 15.710938 16 16 15.710938 16 15.351562 L 16 0.648438 C 16 0.289062 15.710938 0 15.351562 0 L 0.648438 0 C 0.289062 0 0 0.289062 0 0.648438 L 0 15.351562 C 0 15.710938 0.289062 16 0.648438 16 Z "/>
<g style="fill:#fff">
<path style="fill-rule:evenodd" d="M 8.019531 3.480469 C 6.859375 3.480469 5.5625 3.902344 5.292969 5.324219 C 5.261719 5.472656 5.367188 5.550781 5.46875 5.574219 L 6.65625 5.699219 C 6.765625 5.691406 6.84375 5.585938 6.863281 5.480469 C 6.964844 4.988281 7.378906 4.761719 7.84375 4.761719 C 8.09375 4.761719 8.382812 4.851562 8.53125 5.074219 C 8.703125 5.320312 8.675781 5.660156 8.675781 5.949219 L 8.675781 6.105469 C 7.96875 6.183594 7.046875 6.234375 6.386719 6.519531 C 5.621094 6.847656 5.082031 7.511719 5.082031 8.488281 C 5.082031 9.742188 5.878906 10.375 6.90625 10.375 C 7.773438 10.375 8.246094 10.175781 8.917969 9.5 C 9.136719 9.816406 9.21875 9.96875 9.625 10.300781 C 9.714844 10.351562 9.824219 10.34375 9.90625 10.269531 C 10.148438 10.054688 10.59375 9.675781 10.84375 9.46875 C 10.945312 9.386719 10.933594 9.265625 10.855469 9.15625 C 10.632812 8.851562 10.386719 8.597656 10.386719 8.03125 L 10.386719 6.15625 C 10.386719 5.359375 10.449219 4.621094 9.855469 4.074219 C 9.386719 3.628906 8.613281 3.480469 8.019531 3.480469 Z M 8.675781 7.074219 L 8.675781 7.332031 C 8.675781 7.804688 8.6875 8.195312 8.449219 8.613281 C 8.253906 8.953125 7.945312 9.15625 7.605469 9.15625 C 7.136719 9.15625 6.863281 8.804688 6.863281 8.28125 C 6.863281 7.253906 7.796875 7.074219 8.675781 7.074219 Z M 12.550781 10.125 C 12.179688 10.128906 11.742188 10.214844 11.40625 10.449219 C 11.304688 10.519531 11.3125 10.617188 11.425781 10.605469 C 11.804688 10.558594 12.640625 10.453125 12.792969 10.644531 C 12.941406 10.835938 12.628906 11.625 12.488281 11.980469 C 12.445312 12.085938 12.539062 12.132812 12.636719 12.050781 C 13.261719 11.527344 13.417969 10.429688 13.292969 10.269531 C 13.226562 10.191406 12.925781 10.121094 12.550781 10.125 Z M 2.738281 10.332031 C 2.660156 10.34375 2.636719 10.4375 2.71875 10.511719 C 4.109375 11.765625 5.945312 12.519531 7.988281 12.519531 C 9.449219 12.519531 11.144531 12.070312 12.3125 11.207031 C 12.503906 11.066406 12.332031 10.84375 12.136719 10.925781 C 10.828125 11.484375 9.410156 11.75 8.113281 11.75 C 6.195312 11.75 4.335938 11.230469 2.832031 10.355469 C 2.800781 10.335938 2.765625 10.328125 2.738281 10.332031 Z "/>
<path style="fill-opacity:.149" d="M 0.667969 0 C 0.296875 0 0 0.296875 0 0.667969 L 0 15.332031 C 0 15.703125 0.296875 16 0.667969 16 L 5.59375 16 L 9.875 0 Z "/>
</g>
</svg>
