<svg width="16" xmlns="http://www.w3.org/2000/svg" height="16" viewBox="0 0 16 16" xmlns:xlink="http://www.w3.org/1999/xlink">
<defs>
<linearGradient gradientTransform="matrix(.33333 0 0 .33333 0 -334.7874)" id="linear0" y1="1053.158" y2="1004.847" gradientUnits="userSpaceOnUse" x2="0">
<stop offset="0" style="stop-color:#bf4b17"/>
<stop offset="1" style="stop-color:#e0aa59"/>
</linearGradient>
</defs>
<path style="fill:url(#linear0)" d="M 0.648438 0 L 15.351562 0 C 15.710938 0 16 0.289062 16 0.648438 L 16 15.351562 C 16 15.710938 15.710938 16 15.351562 16 L 0.648438 16 C 0.289062 16 0 15.710938 0 15.351562 L 0 0.648438 C 0 0.289062 0.289062 0 0.648438 0 Z "/>
<g style="fill:#fff">
<path d="M 8 2.667969 L 7.421875 4.011719 L 7.578125 4.367188 C 6.636719 4.433594 6.820312 4.625 6.820312 4.625 C 6.820312 4.625 5.742188 4.824219 5.742188 4.980469 C 5.742188 4.988281 5.742188 4.984375 5.742188 4.992188 C 5.523438 5.097656 5.3125 5.242188 5.109375 5.402344 C 2.394531 9.085938 5.296875 9.9375 4.652344 12.074219 C 4.515625 12.535156 3.929688 13.328125 3.929688 13.328125 C 3.929688 13.328125 5.109375 13.472656 5.597656 12.082031 C 5.992188 10.957031 4.65625 8.699219 5.652344 7.679688 C 7.066406 6.246094 8.113281 9.207031 7.667969 9.617188 C 7.21875 10.027344 7.332031 10.136719 7.332031 10.136719 L 8 11.496094 L 8.667969 10.136719 C 8.667969 10.136719 8.78125 10.027344 8.332031 9.617188 C 7.886719 9.207031 8.933594 6.246094 10.347656 7.679688 C 11.34375 8.699219 10.007812 10.957031 10.402344 12.082031 C 10.890625 13.472656 12.070312 13.328125 12.070312 13.328125 C 12.070312 13.328125 11.484375 12.535156 11.347656 12.074219 C 10.703125 9.9375 13.605469 9.085938 10.890625 5.402344 C 10.6875 5.242188 10.476562 5.097656 10.257812 4.992188 C 10.257812 4.984375 10.257812 4.988281 10.257812 4.980469 C 10.257812 4.824219 9.179688 4.625 9.179688 4.625 C 9.179688 4.625 9.363281 4.433594 8.421875 4.367188 L 8.578125 4.011719 Z "/>
<path style="fill-opacity:.149" d="M 0.667969 0 C 0.296875 0 0 0.296875 0 0.667969 L 0 15.332031 C 0 15.703125 0.296875 16 0.667969 16 L 5.59375 16 L 9.875 0 Z "/>
</g>
</svg>
