<svg width="16" xmlns="http://www.w3.org/2000/svg" height="16" viewBox="0 0 16 16" xmlns:xlink="http://www.w3.org/1999/xlink">
<defs>
<linearGradient gradientTransform="matrix(.33333 0 0 .33333 0 -334.7874)" id="linear0" y1="1053.158" y2="1004.847" gradientUnits="userSpaceOnUse" x2="0">
<stop offset="0" style="stop-color:#cf9917"/>
<stop offset="1" style="stop-color:#deab0f"/>
</linearGradient>
</defs>
<path style="fill:url(#linear0)" d="M 0.648438 0 L 15.351562 0 C 15.710938 0 16 0.289062 16 0.648438 L 16 15.351562 C 16 15.710938 15.710938 16 15.351562 16 L 0.648438 16 C 0.289062 16 0 15.710938 0 15.351562 L 0 0.648438 C 0 0.289062 0.289062 0 0.648438 0 Z "/>
<g style="fill:#fff">
<path d="M 8 2.667969 C 6.152344 2.667969 4.640625 4.167969 4.640625 6 C 4.640625 7.058594 5.207031 7.9375 5.984375 8.542969 L 5.984375 10.667969 L 10.015625 10.667969 L 10.015625 8.542969 C 10.792969 7.9375 11.359375 7.058594 11.359375 6 C 11.359375 4.167969 9.847656 2.667969 8 2.667969 Z M 8 4 C 9.121094 4 10.015625 4.886719 10.015625 6 C 10.015625 6.742188 9.617188 7.359375 9.007812 7.707031 L 8.671875 7.917969 L 8.671875 9.332031 L 7.328125 9.332031 L 7.328125 7.917969 L 6.992188 7.707031 C 6.386719 7.363281 5.984375 6.75 5.984375 6 C 5.984375 4.890625 6.878906 4 8 4 Z "/>
<path d="M 6.65625 12.667969 L 6.65625 13.332031 L 9.34375 13.332031 L 9.34375 12.667969 Z "/>
<path d="M 5.984375 11.332031 L 5.984375 12 L 10.015625 12 L 10.015625 11.332031 Z "/>
<path style="fill-opacity:.349" d="M 7.328125 6 L 7.328125 6.667969 L 8.671875 6.667969 L 8.671875 6 Z "/>
<path style="fill-opacity:.149" d="M 0.667969 0 C 0.296875 0 0 0.296875 0 0.667969 L 0 15.332031 C 0 15.703125 0.296875 16 0.667969 16 L 5.59375 16 L 9.875 0 Z "/>
</g>
</svg>
