<svg width="16" xmlns="http://www.w3.org/2000/svg" height="16" viewBox="0 0 16 16" xmlns:xlink="http://www.w3.org/1999/xlink">
<defs>
<linearGradient gradientTransform="matrix(.33333 0 0 .33333 0 -334.7874)" id="linear0" y1="1053.158" y2="1004.847" gradientUnits="userSpaceOnUse" x2="0">
<stop offset="0" style="stop-color:#005593"/>
<stop offset=".648" style="stop-color:#1c95dc"/>
<stop offset="1" style="stop-color:#3cc1ff;stop-opacity:.757"/>
</linearGradient>
</defs>
<path style="fill:url(#linear0)" d="M 0.648438 0 L 15.351562 0 C 15.710938 0 16 0.289062 16 0.648438 L 16 15.351562 C 16 15.710938 15.710938 16 15.351562 16 L 0.648438 16 C 0.289062 16 0 15.710938 0 15.351562 L 0 0.648438 C 0 0.289062 0.289062 0 0.648438 0 Z "/>
<g style="fill:#fff">
<path style="fill-rule:evenodd" d="M 8.140625 8.285156 C 8.0625 7.9375 8.484375 7.730469 8.773438 7.769531 C 9.335938 7.84375 9.601562 8.472656 9.472656 8.976562 C 9.273438 9.746094 8.402344 10.089844 7.6875 9.859375 C 6.714844 9.546875 6.289062 8.421875 6.621094 7.496094 C 7.046875 6.320312 8.429688 5.808594 9.5625 6.25 C 10.945312 6.78125 11.535156 8.425781 10.992188 9.769531 C 10.347656 11.359375 8.445312 12.03125 6.898438 11.382812 C 5.101562 10.628906 4.34375 8.464844 5.101562 6.707031 C 5.964844 4.703125 8.386719 3.863281 10.351562 4.726562 C 12.558594 5.699219 13.480469 8.386719 12.511719 10.558594 C 11.433594 12.976562 8.484375 13.980469 6.109375 12.902344 C 3.484375 11.714844 2.398438 8.503906 3.582031 5.917969 C 4.507812 3.886719 6.628906 2.609375 8.847656 2.667969 "/>
<path style="fill-opacity:.149" d="M 0.667969 0 C 0.296875 0 0 0.296875 0 0.667969 L 0 15.332031 C 0 15.703125 0.296875 16 0.667969 16 L 5.59375 16 L 9.875 0 Z "/>
</g>
</svg>
