<svg width="16" xmlns="http://www.w3.org/2000/svg" height="16" viewBox="0 0 16 16" xmlns:xlink="http://www.w3.org/1999/xlink">
<defs>
<linearGradient gradientTransform="matrix(.33333 0 0 -.33333 0 350.78739)" id="linear0" y1="1053.158" y2="1004.847" gradientUnits="userSpaceOnUse" x2="0">
<stop offset="0" style="stop-color:#ff1919"/>
<stop offset="1" style="stop-color:#380000"/>
</linearGradient>
</defs>
<path style="fill:url(#linear0)" d="M 0.648438 16 L 15.351562 16 C 15.710938 16 16 15.710938 16 15.351562 L 16 0.648438 C 16 0.289062 15.710938 0 15.351562 0 L 0.648438 0 C 0.289062 0 0 0.289062 0 0.648438 L 0 15.351562 C 0 15.710938 0.289062 16 0.648438 16 Z "/>
<g style="fill:#fff">
<path d="M 7.1875 8.96875 L 5.375 11.386719 C 6.101562 11.945312 7.011719 12.28125 8 12.28125 C 8.960938 12.28125 9.847656 11.960938 10.5625 11.425781 L 8.75 8.96875 C 8.386719 9.394531 7.597656 9.351562 7.1875 8.96875 Z "/>
<path d="M 8.863281 7.933594 C 8.863281 8.417969 8.472656 8.808594 7.988281 8.808594 C 7.507812 8.808594 7.113281 8.417969 7.113281 7.933594 C 7.113281 7.453125 7.507812 7.058594 7.988281 7.058594 C 8.472656 7.058594 8.863281 7.453125 8.863281 7.933594 Z "/>
<path d="M 9.25 3.90625 L 8.449219 6.675781 C 8.949219 6.765625 9.375 7.472656 9.28125 7.988281 L 12.28125 8 C 12.28125 6.070312 11.003906 4.441406 9.25 3.90625 Z "/>
<path d="M 6.761719 3.894531 C 5.015625 4.421875 3.742188 6.035156 3.71875 7.949219 L 6.644531 7.957031 C 6.550781 7.433594 7.050781 6.828125 7.5625 6.675781 Z "/>
</g>
<path style="fill:none;stroke:#fff;stroke-width:1.916" d="M 39.071804 24.400238 C 39.071804 32.25854 32.695353 38.634992 24.83705 38.634992 C 16.978748 38.634992 10.602296 32.25854 10.602296 24.400238 C 10.602296 16.541935 16.978748 10.165484 24.83705 10.165484 C 32.695353 10.165484 39.071804 16.541935 39.071804 24.400238 Z " transform="matrix(.34796 0 0 .34796 -.6423 -.49031)"/>
<path style="fill:#fff;fill-opacity:.149" d="M 0.667969 0 C 0.296875 0 0 0.296875 0 0.667969 L 0 15.332031 C 0 15.703125 0.296875 16 0.667969 16 L 5.59375 16 L 9.875 0 Z "/>
</svg>
