<svg width="16" xmlns="http://www.w3.org/2000/svg" height="16" viewBox="0 0 16 16" xmlns:xlink="http://www.w3.org/1999/xlink">
<defs>
<linearGradient gradientTransform="matrix(.33333 0 0 -.33333 0 350.7874)" id="linear0" y1="1006.261" y2="1052.743" gradientUnits="userSpaceOnUse" x2="0">
<stop offset="0" style="stop-color:#464745"/>
<stop offset="1" style="stop-color:#828680"/>
</linearGradient>
</defs>
<path style="fill:url(#linear0)" d="M 0.648438 16 L 15.351562 16 C 15.710938 16 16 15.710938 16 15.351562 L 16 0.648438 C 16 0.289062 15.710938 0 15.351562 0 L 0.648438 0 C 0.289062 0 0 0.289062 0 0.648438 L 0 15.351562 C 0 15.710938 0.289062 16 0.648438 16 Z "/>
<g style="fill:#fff">
<path d="M 3.1875 2.667969 C 2.902344 2.667969 2.667969 2.902344 2.667969 3.1875 L 2.667969 12.8125 C 2.667969 13.097656 2.902344 13.332031 3.1875 13.332031 L 12.8125 13.332031 C 13.097656 13.332031 13.332031 13.097656 13.332031 12.8125 L 13.332031 3.1875 C 13.332031 2.902344 13.097656 2.667969 12.8125 2.667969 Z M 4.074219 3.6875 L 11.925781 3.6875 C 12.152344 3.6875 12.332031 3.875 12.332031 4.101562 L 12.332031 11.921875 C 12.332031 12.148438 12.152344 12.339844 11.925781 12.339844 L 4.074219 12.339844 C 3.847656 12.339844 3.65625 12.148438 3.65625 11.921875 L 3.667969 11 C 3.667969 11 3.332031 11 3.332031 10.667969 L 3.332031 9.667969 C 3.332031 9.332031 3.667969 9.332031 3.667969 9.332031 L 3.667969 6.667969 C 3.667969 6.667969 3.332031 6.667969 3.332031 6.332031 L 3.332031 5.667969 C 3.332031 5.332031 3.667969 5.332031 3.667969 5.332031 L 3.65625 4.101562 C 3.65625 3.875 3.847656 3.6875 4.074219 3.6875 Z "/>
<path style="stroke:#fff;stroke-width:.433" d="M -42.144344 7.32028 C -42.144344 9.45582 -43.877674 11.18915 -46.013214 11.18915 C -48.148754 11.18915 -49.882084 9.45582 -49.882084 7.32028 C -49.882084 5.18474 -48.148754 3.45141 -46.013214 3.45141 C -43.877674 3.45141 -42.144344 5.18474 -42.144344 7.32028 Z " transform="matrix(.4079 0 0 .4079 26.76894 5.01403)"/>
</g>
<path style="fill:none;stroke:#fff;stroke-width:1.843" d="M -38.898235 9.150317 C -38.898235 13.221764 -42.202911 16.526441 -46.274359 16.526441 C -50.345807 16.526441 -53.650484 13.221764 -53.650484 9.150317 C -53.650484 5.078869 -50.345807 1.774192 -46.274359 1.774192 C -42.202911 1.774192 -38.898235 5.078869 -38.898235 9.150317 Z " transform="matrix(.3617 0 0 .3617 24.73759 4.6903)"/>
<path style="fill:#fff;fill-opacity:.149" d="M 0.667969 0 C 0.296875 0 0 0.296875 0 0.667969 L 0 15.332031 C 0 15.703125 0.296875 16 0.667969 16 L 5.59375 16 L 9.875 0 Z "/>
</svg>
