<svg width="16" xmlns="http://www.w3.org/2000/svg" height="16" viewBox="0 0 16 16" xmlns:xlink="http://www.w3.org/1999/xlink">
<defs>
<linearGradient gradientTransform="matrix(.33333 0 0 -.33333 0 350.7874)" id="linear0" y1="1053.158" y2="1004.847" gradientUnits="userSpaceOnUse" x2="0">
<stop offset="0" style="stop-color:#c5c5c5"/>
<stop offset="1" style="stop-color:#537280"/>
</linearGradient>
</defs>
<path style="fill:url(#linear0)" d="M 0.648438 16 L 15.351562 16 C 15.710938 16 16 15.710938 16 15.351562 L 16 0.648438 C 16 0.289062 15.710938 0 15.351562 0 L 0.648438 0 C 0.289062 0 0 0.289062 0 0.648438 L 0 15.351562 C 0 15.710938 0.289062 16 0.648438 16 Z "/>
<g style="fill:#fff">
<path d="M 7.925781 2.667969 C 6.667969 4.332031 2.382812 9.035156 4.207031 11.75 C 5.621094 13.851562 10.417969 13.863281 11.8125 11.75 C 13.628906 9 9 4.332031 7.925781 2.667969 Z M 6.8125 6.300781 C 6.878906 6.296875 6.945312 6.300781 7.011719 6.300781 C 7.117188 6.304688 7.230469 6.3125 7.332031 6.332031 C 9 6.667969 9.332031 8 9.332031 8 C 9.332031 8 7.667969 6.667969 6.667969 8 C 5.667969 9.332031 7.667969 11.332031 9 11.667969 C 9.59375 11.816406 10.046875 12.160156 10.375 12.5 C 8.507812 13.402344 5.492188 13.078125 4.449219 11.519531 C 3.476562 10.074219 4.234375 8.386719 5.355469 6.707031 C 5.824219 6.492188 6.335938 6.328125 6.8125 6.300781 Z "/>
<path style="fill-opacity:.149" d="M 0.667969 0 C 0.296875 0 0 0.296875 0 0.667969 L 0 15.332031 C 0 15.703125 0.296875 16 0.667969 16 L 5.59375 16 L 9.875 0 Z "/>
</g>
</svg>
