<svg width="16" xmlns="http://www.w3.org/2000/svg" height="16" viewBox="0 0 16 16" xmlns:xlink="http://www.w3.org/1999/xlink">
<defs>
<linearGradient gradientTransform="matrix(.33333 0 0 -.33333 0 350.7874)" id="linear0" y1="1053.158" y2="1004.847" gradientUnits="userSpaceOnUse" x2="0">
<stop offset="0" style="stop-color:#2396ea"/>
<stop offset="1" style="stop-color:#116cac"/>
</linearGradient>
</defs>
<path style="fill:url(#linear0)" d="M 0.648438 16 L 15.351562 16 C 15.710938 16 16 15.710938 16 15.351562 L 16 0.648438 C 16 0.289062 15.710938 0 15.351562 0 L 0.648438 0 C 0.289062 0 0 0.289062 0 0.648438 L 0 15.351562 C 0 15.710938 0.289062 16 0.648438 16 Z "/>
<g style="fill:#fff">
<path d="M 8.007812 3.832031 C 7.996094 3.828125 7.550781 4.203125 7.019531 4.667969 C 6.242188 5.339844 6.03125 5.511719 5.980469 5.511719 C 5.949219 5.511719 5.398438 5.460938 4.757812 5.394531 C 4.113281 5.324219 3.582031 5.273438 3.578125 5.28125 C 3.566406 5.289062 2.679688 8.226562 2.667969 8.292969 C 2.660156 8.320312 3.015625 8.636719 3.886719 9.375 L 5.113281 10.417969 L 5.554688 10.417969 C 5.796875 10.417969 6.035156 10.40625 6.09375 10.398438 L 6.203125 10.386719 L 4.910156 9.316406 C 4.199219 8.726562 3.621094 8.234375 3.617188 8.214844 C 3.617188 8.195312 3.738281 7.816406 3.886719 7.363281 C 4.035156 6.910156 4.183594 6.441406 4.21875 6.324219 C 4.289062 6.105469 4.292969 6.101562 4.363281 6.101562 C 4.402344 6.101562 4.875 6.15625 5.40625 6.222656 L 6.367188 6.339844 L 7.125 5.691406 C 7.539062 5.332031 7.90625 5.011719 7.941406 4.984375 L 8 4.929688 L 8.59375 5.441406 C 8.921875 5.722656 9.285156 6.042969 9.410156 6.148438 L 9.636719 6.339844 L 10.667969 6.214844 C 11.234375 6.144531 11.699219 6.089844 11.703125 6.097656 C 11.714844 6.117188 12.394531 8.207031 12.394531 8.222656 C 12.394531 8.230469 11.808594 8.71875 11.09375 9.308594 L 9.796875 10.386719 L 9.910156 10.398438 C 9.972656 10.40625 10.214844 10.417969 10.453125 10.417969 L 10.886719 10.421875 L 12.105469 9.382812 C 12.777344 8.808594 13.328125 8.335938 13.332031 8.320312 C 13.339844 8.300781 12.445312 5.289062 12.429688 5.273438 C 12.425781 5.269531 11.894531 5.324219 11.242188 5.394531 C 10.59375 5.460938 10.039062 5.515625 10.007812 5.511719 C 9.964844 5.507812 9.65625 5.257812 8.980469 4.671875 C 8.453125 4.214844 8.015625 3.835938 8.007812 3.832031 Z M 7.992188 5.648438 L 7.445312 6.203125 L 6.90625 6.761719 L 6.90625 7.246094 C 6.902344 8 6.992188 8.644531 7.167969 9.191406 C 7.328125 9.691406 7.519531 10.03125 7.804688 10.316406 C 7.898438 10.410156 7.984375 10.488281 7.992188 10.488281 C 8.039062 10.488281 8.265625 10.261719 8.386719 10.101562 C 8.5625 9.863281 8.714844 9.566406 8.828125 9.21875 C 9.011719 8.65625 9.085938 8.164062 9.101562 7.351562 L 9.113281 6.761719 L 8.554688 6.203125 Z M 11.351562 6.78125 C 11.34375 6.773438 11.027344 6.808594 10.644531 6.851562 C 10.257812 6.894531 9.929688 6.933594 9.917969 6.933594 C 9.902344 6.933594 9.894531 7.039062 9.894531 7.226562 C 9.894531 8.21875 9.535156 9.414062 9.007812 10.203125 C 8.882812 10.386719 8.871094 10.421875 8.921875 10.386719 C 9.265625 10.167969 11.710938 8.097656 11.703125 8.035156 C 11.691406 7.96875 11.363281 6.789062 11.351562 6.78125 Z M 4.648438 6.792969 C 4.640625 6.800781 4.558594 7.09375 4.464844 7.441406 L 4.292969 8.066406 L 4.351562 8.125 C 4.925781 8.628906 6.503906 9.949219 6.875 10.238281 C 7.003906 10.339844 7.117188 10.414062 7.117188 10.410156 C 7.121094 10.40625 7.0625 10.308594 6.980469 10.183594 C 6.460938 9.394531 6.152344 8.359375 6.101562 7.257812 C 6.09375 7.078125 6.078125 6.933594 6.070312 6.933594 C 6.0625 6.933594 5.746094 6.894531 5.363281 6.851562 C 4.980469 6.808594 4.65625 6.78125 4.648438 6.792969 Z M 6.714844 10.851562 L 5.417969 10.855469 L 6.707031 11.519531 C 7.417969 11.878906 8 12.167969 8.007812 12.167969 C 8.011719 12.164062 8.597656 11.871094 9.304688 11.511719 L 10.589844 10.855469 L 9.296875 10.851562 C 8.585938 10.847656 7.425781 10.847656 6.714844 10.851562 Z "/>
<path style="fill-opacity:.149" d="M 0.667969 0 C 0.296875 0 0 0.296875 0 0.667969 L 0 15.332031 C 0 15.703125 0.296875 16 0.667969 16 L 5.59375 16 L 9.875 0 Z "/>
</g>
</svg>
