<svg width="16" xmlns="http://www.w3.org/2000/svg" height="16" viewBox="0 0 16 16" xmlns:xlink="http://www.w3.org/1999/xlink">
<defs>
<linearGradient gradientTransform="matrix(.33333 0 0 -.33333 0 350.7874)" id="linear0" y1="1004.362" y2="1054.362" gradientUnits="userSpaceOnUse" x2="0">
<stop offset="0" style="stop-color:#464745"/>
<stop offset="1" style="stop-color:#828680"/>
</linearGradient>
</defs>
<path style="fill:url(#linear0)" d="M 0.648438 16 L 15.351562 16 C 15.710938 16 16 15.710938 16 15.351562 L 16 0.648438 C 16 0.289062 15.710938 0 15.351562 0 L 0.648438 0 C 0.289062 0 0 0.289062 0 0.648438 L 0 15.351562 C 0 15.710938 0.289062 16 0.648438 16 Z "/>
<g style="fill:#fff">
<path d="M 3.976562 2.675781 C 3.621094 2.675781 3.335938 2.972656 3.332031 3.332031 L 3.332031 12.699219 C 3.332031 13.058594 3.621094 13.34375 3.976562 13.34375 L 12.035156 13.34375 C 12.394531 13.34375 12.683594 13.058594 12.683594 12.699219 L 12.683594 4.980469 C 12.683594 4.621094 12.394531 4.332031 12.035156 4.332031 L 6.265625 4.332031 L 6.265625 3.332031 C 6.265625 2.972656 5.980469 2.675781 5.621094 2.675781 Z M 10.035156 5.71875 C 10.046875 5.71875 10.058594 5.71875 10.066406 5.71875 C 10.066406 5.71875 10.128906 5.726562 10.171875 5.738281 C 10.214844 5.753906 10.261719 5.785156 10.328125 5.824219 C 10.460938 5.902344 10.644531 6.039062 10.902344 6.292969 C 11.148438 6.539062 11.28125 6.722656 11.359375 6.855469 C 11.398438 6.921875 11.425781 6.96875 11.441406 7.011719 C 11.457031 7.054688 11.464844 7.105469 11.464844 7.105469 C 11.476562 7.179688 11.453125 7.257812 11.402344 7.3125 L 7.035156 11.675781 C 7.011719 11.703125 6.976562 11.726562 6.941406 11.738281 L 5.140625 12.375 C 4.960938 12.445312 4.75 12.230469 4.816406 12.050781 L 5.453125 10.25 C 5.464844 10.214844 5.488281 10.183594 5.515625 10.15625 L 9.878906 5.792969 C 9.921875 5.75 9.976562 5.722656 10.035156 5.71875 Z "/>
<path style="fill-opacity:.149" d="M 0.667969 0 C 0.296875 0 0 0.296875 0 0.667969 L 0 15.332031 C 0 15.703125 0.296875 16 0.667969 16 L 5.59375 16 L 9.875 0 Z "/>
</g>
</svg>
