<svg width="16" xmlns="http://www.w3.org/2000/svg" height="16" viewBox="0 0 16 16" xmlns:xlink="http://www.w3.org/1999/xlink">
<defs>
<linearGradient gradientTransform="matrix(.33333 0 0 -.33333 0 350.7874)" id="linear0" y1="1053.158" y2="1004.847" gradientUnits="userSpaceOnUse" x2="0">
<stop offset="0" style="stop-color:#8593f4"/>
<stop offset="1" style="stop-color:#455cbf"/>
</linearGradient>
</defs>
<path style="fill:url(#linear0)" d="M 0.648438 16 L 15.351562 16 C 15.710938 16 16 15.710938 16 15.351562 L 16 0.648438 C 16 0.289062 15.710938 0 15.351562 0 L 0.648438 0 C 0.289062 0 0 0.289062 0 0.648438 L 0 15.351562 C 0 15.710938 0.289062 16 0.648438 16 Z "/>
<path style="fill:#fff" d="M 8 2 C 4.6875 2 2 4.6875 2 8 C 2 11.3125 4.6875 14 8 14 C 11.3125 14 14 11.3125 14 8 C 14 4.6875 11.3125 2 8 2 Z M 8 6.160156 C 9.015625 6.160156 9.839844 6.984375 9.839844 8 C 9.839844 9.015625 9.015625 9.839844 8 9.839844 C 6.984375 9.839844 6.160156 9.015625 6.160156 8 C 6.160156 6.984375 6.984375 6.160156 8 6.160156 Z M 7 11 L 7.667969 11 L 7.667969 11.667969 L 7 11.667969 Z M 8.332031 11 L 9 11 L 9 11.667969 L 8.332031 11.667969 Z M 7 12.332031 L 7.667969 12.332031 L 7.667969 13 L 7 13 Z M 8.332031 12.332031 L 9 12.332031 L 9 13 L 8.332031 13 Z "/>
<path style="fill:none;stroke:#fff;stroke-width:2.351" d="M 30.50107 23.499821 C 30.50107 27.217583 27.467559 30.251094 23.749798 30.251094 C 20.032036 30.251094 16.998525 27.217583 16.998525 23.499821 C 16.998525 19.782059 20.032036 16.748548 23.749798 16.748548 C 27.467559 16.748548 30.50107 19.782059 30.50107 23.499821 Z " transform="matrix(.17126 0 0 .17126 3.93251 3.97533)"/>
<path style="fill:#fff;fill-opacity:.149" d="M 0.667969 0 C 0.296875 0 0 0.296875 0 0.667969 L 0 15.332031 C 0 15.703125 0.296875 16 0.667969 16 L 5.59375 16 L 9.875 0 Z "/>
</svg>
