<svg width="16" xmlns="http://www.w3.org/2000/svg" height="16" viewBox="0 0 16 16" xmlns:xlink="http://www.w3.org/1999/xlink">
<defs>
<linearGradient gradientTransform="matrix(.33333 0 0 -.33333 0 350.78741)" id="linear0" y1="1053.158" y2="1004.847" gradientUnits="userSpaceOnUse" x2="0">
<stop offset="0" style="stop-color:#26c1ef"/>
<stop offset="1" style="stop-color:#2f5bbc"/>
</linearGradient>
</defs>
<path style="fill:url(#linear0)" d="M 0.648438 16 L 15.351562 16 C 15.710938 16 16 15.710938 16 15.351562 L 16 0.648438 C 16 0.289062 15.710938 0 15.351562 0 L 0.648438 0 C 0.289062 0 0 0.289062 0 0.648438 L 0 15.351562 C 0 15.710938 0.289062 16 0.648438 16 Z "/>
<g style="fill:#fff">
<path d="M 7.042969 3.402344 C 6.457031 3.523438 5.910156 3.75 5.425781 4.066406 C 5.441406 4.417969 5.320312 4.777344 5.050781 5.046875 C 4.785156 5.316406 4.425781 5.4375 4.074219 5.421875 C 3.757812 5.90625 3.527344 6.453125 3.40625 7.035156 C 3.667969 7.273438 3.824219 7.613281 3.824219 7.996094 C 3.824219 8.375 3.667969 8.726562 3.40625 8.964844 C 3.527344 9.546875 3.757812 10.085938 4.074219 10.566406 C 4.425781 10.554688 4.785156 10.683594 5.050781 10.953125 C 5.320312 11.222656 5.441406 11.570312 5.425781 11.921875 C 5.910156 12.238281 6.457031 12.476562 7.042969 12.597656 C 7.28125 12.339844 7.617188 12.171875 8 12.171875 C 8.382812 12.171875 8.71875 12.339844 8.957031 12.597656 C 9.539062 12.476562 10.089844 12.238281 10.574219 11.921875 C 10.570312 11.902344 10.574219 11.886719 10.574219 11.871094 C 10.574219 11.535156 10.691406 11.207031 10.949219 10.953125 C 11.214844 10.683594 11.574219 10.554688 11.925781 10.566406 C 12.242188 10.085938 12.472656 9.546875 12.59375 8.964844 C 12.332031 8.726562 12.175781 8.375 12.175781 7.996094 C 12.175781 7.613281 12.332031 7.273438 12.59375 7.035156 C 12.472656 6.453125 12.242188 5.90625 11.925781 5.421875 C 11.574219 5.4375 11.214844 5.316406 10.949219 5.046875 C 10.691406 4.792969 10.574219 4.464844 10.574219 4.128906 C 10.574219 4.113281 10.570312 4.085938 10.574219 4.066406 C 10.089844 3.753906 9.539062 3.523438 8.957031 3.402344 C 8.71875 3.660156 8.382812 3.828125 8 3.828125 C 7.617188 3.828125 7.28125 3.660156 7.042969 3.402344 Z M 9.355469 4.871094 C 9.503906 4.871094 9.613281 4.886719 9.75 4.921875 C 9.949219 4.972656 10.113281 5.136719 10.113281 5.328125 C 10.113281 5.558594 9.949219 5.722656 9.699219 5.722656 C 9.578125 5.722656 9.527344 5.703125 9.355469 5.703125 C 8.835938 5.703125 8.417969 6.125 8.417969 6.640625 L 8.417969 7.453125 C 8.417969 7.527344 8.480469 7.578125 8.550781 7.578125 L 9.167969 7.578125 C 9.394531 7.578125 9.582031 7.765625 9.582031 7.996094 C 9.582031 8.226562 9.394531 8.410156 9.167969 8.410156 L 8.417969 8.410156 L 8.417969 9.347656 C 8.417969 10.328125 7.625 11.128906 6.644531 11.128906 C 6.496094 11.128906 6.386719 11.113281 6.25 11.078125 C 6.050781 11.027344 5.886719 10.851562 5.886719 10.660156 C 5.886719 10.429688 6.0625 10.265625 6.3125 10.265625 C 6.433594 10.265625 6.472656 10.285156 6.644531 10.285156 C 7.164062 10.285156 7.582031 9.875 7.582031 9.359375 L 7.582031 8.535156 C 7.582031 8.464844 7.519531 8.410156 7.449219 8.410156 L 6.832031 8.410156 C 6.605469 8.410156 6.417969 8.226562 6.417969 7.996094 C 6.417969 7.761719 6.613281 7.578125 6.84375 7.578125 L 7.582031 7.578125 L 7.582031 6.640625 C 7.582031 5.660156 8.375 4.871094 9.355469 4.871094 Z "/>
<path style="fill-opacity:.149" d="M 0.667969 0 C 0.296875 0 0 0.296875 0 0.667969 L 0 15.332031 C 0 15.703125 0.296875 16 0.667969 16 L 5.59375 16 L 9.875 0 Z "/>
</g>
</svg>
