<svg width="16" xmlns="http://www.w3.org/2000/svg" height="16" viewBox="0 0 16 16" xmlns:xlink="http://www.w3.org/1999/xlink">
<defs>
<linearGradient gradientTransform="matrix(.33333 0 0 -.33333 0 350.78743)" id="linear0" y1="1053.158" y2="1004.847" gradientUnits="userSpaceOnUse" x2="0">
<stop offset="0" style="stop-color:#2396ea"/>
<stop offset="1" style="stop-color:#116cac"/>
</linearGradient>
</defs>
<path style="fill:url(#linear0)" d="M 0.648438 16 L 15.351562 16 C 15.710938 16 16 15.710938 16 15.351562 L 16 0.648438 C 16 0.289062 15.710938 0 15.351562 0 L 0.648438 0 C 0.289062 0 0 0.289062 0 0.648438 L 0 15.351562 C 0 15.710938 0.289062 16 0.648438 16 Z "/>
<g style="fill:#f9f9f9">
<path d="M 5.742188 9.554688 C 5.742188 9.554688 9.296875 8.285156 8.960938 6.621094 C 8.621094 4.953125 6.304688 4.359375 4.808594 5.320312 C 3.3125 6.28125 1.902344 8.285156 3.144531 10.234375 C 4.386719 12.183594 6.8125 11.816406 8.339844 10.628906 C 9.863281 9.445312 11.078125 9.894531 11.671875 9.699219 C 12.261719 9.5 12.320312 8.851562 11.640625 8.597656 C 10.964844 8.34375 9.949219 8.597656 9.042969 9.472656 C 8.140625 10.347656 7.351562 11.277344 5.996094 10.769531 C 4.640625 10.261719 2.972656 7.722656 4.246094 6.449219 C 5.515625 5.179688 6.636719 5.71875 7 6.464844 C 7.363281 7.207031 7.265625 7.722656 6.757812 8.398438 C 6.25 9.078125 5.742188 9.554688 5.742188 9.554688 Z "/>
<path d="M 2.917969 10.515625 C 2.917969 10.515625 3.539062 11.5625 4.609375 11.871094 C 5.683594 12.183594 6.191406 12.152344 6.898438 11.816406 C 7.605469 11.476562 8.582031 10.839844 9.332031 10.460938 C 10 10.128906 10.667969 10.128906 11.332031 10.128906 C 12.414062 10.128906 12.941406 10.996094 12.769531 11.5625 C 12.601562 12.125 12.320312 12.464844 11.445312 12.464844 C 10.570312 12.464844 10.878906 11.53125 9.269531 12.011719 C 7.660156 12.492188 5.882812 12.945312 4.753906 12.378906 C 3.625 11.816406 2.917969 10.515625 2.917969 10.515625 Z "/>
<path d="M 8.667969 8.128906 C 8.667969 8.128906 9.042969 7.710938 9.332031 7.128906 C 9.667969 6.460938 9.722656 6.046875 8.890625 5.207031 C 8.0625 4.363281 8.199219 4.539062 8.066406 3.933594 C 7.933594 3.328125 9.304688 3.128906 9.621094 3.6875 C 9.933594 4.246094 9.230469 4.125 9.667969 4.796875 C 10.101562 5.464844 10.351562 6.234375 10 6.796875 C 9.648438 7.355469 8.667969 8.128906 8.667969 8.128906 Z "/>
<path d="M 12.671875 9.300781 C 12.390625 9.441406 12.03125 9.800781 12.25 10 C 12.46875 10.199219 13.109375 10.097656 13.25 9.839844 C 13.390625 9.578125 13.347656 9.398438 13.167969 9.300781 C 12.988281 9.199219 12.671875 9.300781 12.671875 9.300781 Z "/>
<path d="M 9.996094 7.136719 C 10.417969 6.636719 10.679688 6.046875 10.726562 5.734375 C 10.773438 5.421875 11.042969 4.746094 11.277344 4.566406 C 11.507812 4.382812 12.0625 4.652344 11.921875 5.023438 C 11.78125 5.390625 11.222656 5.546875 11.179688 5.777344 C 11.140625 6.007812 11.378906 6.109375 11.101562 6.378906 C 10.824219 6.648438 9.996094 7.136719 9.996094 7.136719 Z "/>
</g>
<path style="fill:#fff;fill-opacity:.149" d="M 0 0 L 0 16 L 5.59375 16 L 9.875 0 Z "/>
</svg>
