<svg width="16" xmlns="http://www.w3.org/2000/svg" height="16" viewBox="0 0 16 16" xmlns:xlink="http://www.w3.org/1999/xlink">
<defs>
<linearGradient gradientTransform="matrix(.33333 0 0 -.33333 0 -334.7874)" id="linear0" y1="-1002.362" y2="-1052.362" gradientUnits="userSpaceOnUse" x2="0">
<stop offset="0" style="stop-color:#648db5"/>
<stop offset=".768" style="stop-color:#527fab"/>
<stop offset="1" style="stop-color:#3f709f"/>
</linearGradient>
</defs>
<path style="fill:url(#linear0)" d="M 0.648438 16 L 15.351562 16 C 15.710938 16 16 15.710938 16 15.351562 L 16 0.648438 C 16 0.289062 15.710938 0 15.351562 0 L 0.648438 0 C 0.289062 0 0 0.289062 0 0.648438 L 0 15.351562 C 0 15.710938 0.289062 16 0.648438 16 Z "/>
<path style="fill:#ededec" d="M 8 3.167969 C 5.054688 3.167969 2.667969 5.257812 2.667969 7.832031 C 2.667969 9.386719 3.539062 10.757812 4.875 11.605469 C 4.828125 11.78125 4.765625 11.972656 4.667969 12.167969 C 4.332031 12.832031 4 12.832031 4 12.832031 C 4 12.832031 5 12.832031 5.667969 12.5 C 5.808594 12.429688 5.929688 12.316406 6.042969 12.175781 C 6.648438 12.386719 7.308594 12.5 8 12.5 C 10.945312 12.5 13.332031 10.410156 13.332031 7.832031 C 13.332031 5.257812 10.945312 3.167969 8 3.167969 Z M 7.636719 4.332031 L 8.636719 4.332031 L 8.636719 7.5625 L 8.53125 9.3125 L 7.738281 9.3125 L 7.636719 7.5625 Z M 7.636719 10.4375 L 8.636719 10.4375 L 8.636719 11.6875 L 7.636719 11.6875 Z "/>
<path style="fill:#fff;fill-opacity:.149" d="M 0.667969 0 C 0.296875 0 0 0.296875 0 0.667969 L 0 15.332031 C 0 15.703125 0.296875 16 0.667969 16 L 5.59375 16 L 9.875 0 Z "/>
</svg>
