<svg width="16" xmlns="http://www.w3.org/2000/svg" height="16" viewBox="0 0 16 16" xmlns:xlink="http://www.w3.org/1999/xlink">
<defs>
<linearGradient gradientTransform="matrix(.33333 0 0 .33333 0 -334.7874)" id="linear0" y1="1053.153" y2="1003.79" gradientUnits="userSpaceOnUse" x2="0">
<stop offset="0" style="stop-color:#fbaf3d"/>
<stop offset="1" style="stop-color:#e2bc88"/>
</linearGradient>
</defs>
<path style="fill:url(#linear0)" d="M 0.648438 0 L 15.351562 0 C 15.710938 0 16 0.289062 16 0.648438 L 16 15.351562 C 16 15.710938 15.710938 16 15.351562 16 L 0.648438 16 C 0.289062 16 0 15.710938 0 15.351562 L 0 0.648438 C 0 0.289062 0.289062 0 0.648438 0 Z "/>
<g style="fill:#fff">
<path d="M 3.0625 6.671875 C 2.828125 6.683594 2.667969 6.738281 2.667969 6.996094 L 2.667969 12.382812 C 2.667969 12.722656 2.953125 12.996094 3.3125 12.996094 L 12.675781 12.996094 C 13.035156 12.996094 13.332031 12.722656 13.332031 12.382812 L 13.332031 6.996094 C 13.332031 6.65625 13.035156 6.671875 12.675781 6.671875 L 3.3125 6.671875 C 3.222656 6.671875 3.140625 6.667969 3.0625 6.671875 Z "/>
<path d="M 4.332031 4.003906 L 2.996094 6.003906 L 7.664062 6.003906 L 7.664062 3.003906 L 5.332031 3.003906 C 4.996094 3.003906 4.332031 4.003906 4.332031 4.003906 Z M 8.332031 3.003906 L 8.332031 6.003906 L 12.996094 6.003906 L 11.664062 4.003906 C 11.664062 4.003906 10.996094 3.003906 10.664062 3.003906 Z "/>
<path style="fill-opacity:.149" d="M 0.667969 0 C 0.296875 0 0 0.296875 0 0.667969 L 0 15.332031 C 0 15.703125 0.296875 16 0.667969 16 L 5.59375 16 L 9.875 0 Z "/>
</g>
</svg>
