<svg width="16" xmlns="http://www.w3.org/2000/svg" height="16" viewBox="0 0 16 16" xmlns:xlink="http://www.w3.org/1999/xlink">
<defs>
<linearGradient gradientTransform="matrix(.33333 0 0 -.33333 0 -334.7874)" id="linear0" y1="-1051.959" y2="-1004.347" gradientUnits="userSpaceOnUse" x2="0">
<stop offset="0" style="stop-color:#f47800"/>
<stop offset="1" style="stop-color:#f49c00"/>
</linearGradient>
</defs>
<path style="fill:url(#linear0)" d="M 0.648438 16 L 15.351562 16 C 15.710938 16 16 15.710938 16 15.351562 L 16 0.648438 C 16 0.289062 15.710938 0 15.351562 0 L 0.648438 0 C 0.289062 0 0 0.289062 0 0.648438 L 0 15.351562 C 0 15.710938 0.289062 16 0.648438 16 Z "/>
<g style="fill:#fff">
<path style="fill-rule:evenodd" d="M 13.332031 3.667969 L 2.667969 12 L 4.332031 12 L 4.332031 11 L 4.667969 11 L 4.667969 12 L 5.667969 12 L 5.667969 11 L 6 11 L 6 12 L 7 12 L 7 11 L 7.332031 11 L 7.332031 12 L 8.332031 12 L 8.332031 11 L 8.667969 11 L 8.667969 12 L 9.667969 12 L 9.667969 11 L 10 11 L 10 12 L 11 12 L 11 11 L 11.332031 11 L 11.332031 12 L 12.332031 12 L 12.332031 11 L 12.667969 11 L 12.667969 12 L 13.332031 12 Z M 11.667969 7.332031 L 11.667969 10.332031 L 7.667969 10.332031 Z "/>
<path style="fill-opacity:.149" d="M 0.667969 0 C 0.296875 0 0 0.296875 0 0.667969 L 0 15.332031 C 0 15.703125 0.296875 16 0.667969 16 L 5.59375 16 L 9.875 0 Z "/>
</g>
</svg>
