<svg width="16" xmlns="http://www.w3.org/2000/svg" height="16" viewBox="0 0 16 16" xmlns:xlink="http://www.w3.org/1999/xlink">
<defs>
<linearGradient gradientTransform="matrix(.33333 0 0 .33333 0 -334.7874)" id="linear0" y1="1053.158" y2="1004.847" gradientUnits="userSpaceOnUse" x2="0">
<stop offset="0" style="stop-color:#296c20"/>
<stop offset="1" style="stop-color:#76c35a"/>
</linearGradient>
</defs>
<path style="fill:url(#linear0)" d="M 0.648438 0 L 15.351562 0 C 15.710938 0 16 0.289062 16 0.648438 L 16 15.351562 C 16 15.710938 15.710938 16 15.351562 16 L 0.648438 16 C 0.289062 16 0 15.710938 0 15.351562 L 0 0.648438 C 0 0.289062 0.289062 0 0.648438 0 Z "/>
<path style="fill:#fffffc" d="M 6.667969 2.667969 L 6.667969 3.667969 L 5.332031 3.667969 L 5.332031 13.332031 L 10.667969 13.332031 L 10.667969 3.667969 L 9.332031 3.667969 L 9.332031 2.667969 Z M 7 3 L 9 3 L 9 4 L 10.332031 4 L 10.332031 13 L 5.667969 13 L 5.667969 4 L 7 4 Z "/>
<g style="fill:#fff">
<path d="M 6.332031 4.667969 L 6.332031 5.667969 L 8.667969 5.667969 L 8.667969 4.667969 Z "/>
<path d="M 6.332031 6 L 9.667969 6 L 9.667969 7 L 6.332031 7 Z "/>
<path d="M 6.332031 7.332031 L 9 7.332031 L 9 8.332031 L 6.332031 8.332031 Z "/>
<path d="M 6.332031 8.667969 L 6.332031 9.667969 L 8.667969 9.667969 L 8.667969 8.667969 Z "/>
<path d="M 6.332031 10 L 9.667969 10 L 9.667969 11 L 6.332031 11 Z "/>
<path d="M 6.332031 11.332031 L 9 11.332031 L 9 12.332031 L 6.332031 12.332031 Z "/>
<path style="fill-opacity:.149" d="M 0.667969 0 C 0.296875 0 0 0.296875 0 0.667969 L 0 15.332031 C 0 15.703125 0.296875 16 0.667969 16 L 5.59375 16 L 9.875 0 Z "/>
</g>
</svg>
