<svg width="16" xmlns="http://www.w3.org/2000/svg" height="16" viewBox="0 0 16 16" xmlns:xlink="http://www.w3.org/1999/xlink">
<defs>
<linearGradient gradientTransform="matrix(.33333 0 0 .33333 0 -334.7874)" id="linear0" y1="1053.158" y2="1004.847" gradientUnits="userSpaceOnUse" x2="0">
<stop offset="0" style="stop-color:#cc9e52"/>
<stop offset="1" style="stop-color:#e08559"/>
</linearGradient>
</defs>
<path style="fill:url(#linear0)" d="M 0.648438 0 L 15.351562 0 C 15.710938 0 16 0.289062 16 0.648438 L 16 15.351562 C 16 15.710938 15.710938 16 15.351562 16 L 0.648438 16 C 0.289062 16 0 15.710938 0 15.351562 L 0 0.648438 C 0 0.289062 0.289062 0 0.648438 0 Z "/>
<g style="fill:#fff">
<path d="M 8 3.960938 C 5.769531 3.960938 3.964844 5.765625 3.964844 7.996094 C 3.964844 10.222656 5.769531 12.039062 8 12.039062 C 10.230469 12.039062 12.035156 10.222656 12.035156 7.996094 C 12.035156 5.765625 10.230469 3.960938 8 3.960938 Z M 10.199219 5.632812 C 11.167969 5.925781 11.421875 7.3125 10.671875 7.855469 L 11.261719 10.140625 L 10.4375 10.367188 L 9.835938 8.082031 C 8.765625 7.816406 8.519531 6.882812 9.160156 5.921875 L 9.84375 7.199219 L 10.242188 7.082031 Z M 8 7.253906 C 8.410156 7.253906 8.742188 7.582031 8.742188 7.996094 C 8.742188 8.40625 8.410156 8.746094 8 8.746094 C 7.589844 8.746094 7.257812 8.40625 7.257812 7.996094 C 7.257812 7.582031 7.589844 7.253906 8 7.253906 Z "/>
<path style="fill-opacity:.149" d="M 0.667969 0 C 0.296875 0 0 0.296875 0 0.667969 L 0 15.332031 C 0 15.703125 0.296875 16 0.667969 16 L 5.59375 16 L 9.875 0 Z "/>
</g>
</svg>
