<svg width="16" xmlns="http://www.w3.org/2000/svg" height="16" viewBox="0 0 16 16" xmlns:xlink="http://www.w3.org/1999/xlink">
<g style="fill:none;stroke:#8bb3cc">
<path style="stroke-linecap:round;stroke-width:.79" d="M 33.054455 27.317448 C 33.054455 32.345958 28.981778 36.418635 23.953269 36.418635 C 18.92476 36.418635 14.852082 32.345958 14.852082 27.317448 C 14.852082 22.288939 18.92476 18.210325 23.953269 18.210325 C 28.981778 18.210325 33.054455 22.288939 33.054455 27.317448 Z " transform="matrix(.65797 0 0 .65797 -7.76046 -9.97398)"/>
<path d="M 13.064158 1023.770254 C 20.632819 1023.582353 26.886171 1023.837899 34.627701 1023.770254 " transform="matrix(.51972 0 0 .51972 -4.47331 -526.46187)"/>
<path d="M 12.530519 1028.204723 L 35.469498 1028.204723 " transform="matrix(.51972 0 0 .51972 -4.47331 -526.46187)"/>
<path d="M 13.064158 1032.37613 C 21.204038 1032.346065 27.547583 1032.346065 34.627701 1032.37613 " transform="matrix(.51972 0 0 .51972 -4.47331 -526.46187)"/>
<path d="M 24.479155 1039.832049 L 24.479155 1016.89307 " transform="matrix(.51972 0 0 .51972 -4.72234 -526.46187)"/>
<path d="M 19.879333 1039.102993 C 17.128459 1032.789512 17.338909 1024.867597 19.879333 1017.960349 " transform="matrix(.51972 0 0 .51972 -4.72234 -526.46187)"/>
<path d="M 29.078976 1039.102993 C 31.82985 1032.789512 31.619401 1024.867597 29.078976 1017.960349 " transform="matrix(.51972 0 0 .51972 -4.72234 -526.46187)"/>
</g>
<path style="fill:#8bb3cc" d="M 7.738281 4.363281 L 8.78125 4.363281 C 10.339844 4.363281 10.339844 5.921875 10.339844 5.921875 L 10.339844 7.464844 C 10.339844 7.984375 9.300781 9.039062 9.300781 9.039062 L 9.300781 9.558594 L 10.859375 10.597656 L 10.859375 11.636719 L 5.140625 11.636719 L 5.140625 10.597656 L 7.21875 9.558594 L 7.21875 9.039062 C 7.21875 9.039062 6.175781 7.984375 6.179688 7.464844 L 6.179688 5.921875 C 6.179688 5.921875 6.179688 4.363281 7.738281 4.363281 Z "/>
</svg>
