<svg width="16" xmlns="http://www.w3.org/2000/svg" height="16" viewBox="0 0 16 16" xmlns:xlink="http://www.w3.org/1999/xlink">
<path style="fill:#00abec" d="M 9.582031 2.996094 C 8.453125 3.402344 7.738281 4.453125 7.820312 5.601562 L 7.847656 6.046875 L 7.394531 5.992188 C 5.75 5.78125 4.316406 5.078125 3.097656 3.890625 L 2.5 3.304688 L 2.347656 3.738281 C 2.019531 4.707031 2.230469 5.730469 2.90625 6.417969 C 3.265625 6.796875 3.1875 6.851562 2.5625 6.625 C 2.347656 6.550781 2.15625 6.496094 2.136719 6.523438 C 2.074219 6.589844 2.292969 7.410156 2.464844 7.738281 C 2.699219 8.191406 3.175781 8.632812 3.699219 8.894531 L 4.144531 9.101562 L 3.621094 9.113281 C 3.113281 9.113281 3.097656 9.121094 3.148438 9.3125 C 3.332031 9.898438 4.042969 10.523438 4.839844 10.796875 L 5.398438 10.984375 L 4.910156 11.273438 C 4.1875 11.691406 3.339844 11.925781 2.492188 11.945312 C 2.085938 11.953125 1.75 11.988281 1.75 12.015625 C 1.75 12.105469 2.851562 12.613281 3.492188 12.8125 C 5.417969 13.402344 7.703125 13.148438 9.417969 12.144531 C 10.636719 11.429688 11.855469 10.007812 12.425781 8.632812 C 12.734375 7.898438 13.039062 6.5625 13.039062 5.917969 C 13.039062 5.503906 13.066406 5.449219 13.574219 4.949219 C 13.871094 4.660156 14.152344 4.34375 14.203125 4.253906 C 14.296875 4.082031 14.285156 4.082031 13.824219 4.234375 C 13.058594 4.507812 12.949219 4.472656 13.328125 4.0625 C 13.609375 3.773438 13.941406 3.25 13.941406 3.097656 C 13.941406 3.070312 13.808594 3.113281 13.652344 3.195312 C 13.492188 3.285156 13.128906 3.421875 12.859375 3.503906 L 12.371094 3.65625 L 11.929688 3.359375 C 11.683594 3.195312 11.34375 3.015625 11.160156 2.960938 C 10.699219 2.832031 9.996094 2.851562 9.582031 2.996094 Z "/>
</svg>
