<svg width="16" xmlns="http://www.w3.org/2000/svg" height="16" viewBox="0 0 16 16" xmlns:xlink="http://www.w3.org/1999/xlink">
<defs>
<linearGradient gradientTransform="matrix(.33333 0 0 .33333 0 -334.7874)" id="linear0" y1="1053.158" y2="1004.847" gradientUnits="userSpaceOnUse" x2="0">
<stop offset="0" style="stop-color:#0075ab"/>
<stop offset="1" style="stop-color:#08b1ff"/>
</linearGradient>
</defs>
<path style="fill:url(#linear0)" d="M 0.667969 0 L 15.300781 0 C 15.6875 0 16 0.289062 16 0.648438 L 16 15.351562 C 16 15.710938 15.6875 16 15.300781 16 L 0.667969 16 C 0.277344 16 0 15.710938 0 15.351562 L 0 0.667969 C 0 0.339844 0.28125 0 0.667969 0 Z "/>
<path style="fill:#fff" d="M 7.980469 5.019531 C 6.355469 5.027344 5.039062 6.34375 5.039062 7.96875 C 5.039062 9.605469 6.367188 10.933594 8 10.933594 C 8.570312 10.933594 9.097656 10.761719 9.546875 10.480469 C 9.511719 11.089844 9.148438 11.605469 8.625 11.855469 L 8.625 13.332031 C 9.9375 13.019531 10.914062 11.863281 10.949219 10.460938 L 10.960938 10.460938 L 10.960938 5.019531 L 9.558594 5.019531 L 9.558594 7.96875 C 9.558594 8.832031 8.859375 9.527344 8 9.527344 C 7.140625 9.527344 6.441406 8.832031 6.441406 7.96875 C 6.441406 7.109375 7.140625 6.414062 8 6.414062 C 8.050781 6.414062 8.101562 6.417969 8.152344 6.421875 L 8.152344 5.019531 Z "/>
<path style="fill:none;stroke:#fff" d="M 24.46875 1012.870013 L 24.46875 1023.639544 C 24.316406 1023.616106 24.152344 1023.604388 24 1023.604388 C 21.421875 1023.604388 19.335938 1025.702044 19.335938 1028.280169 C 19.335938 1030.858294 21.421875 1032.944231 24 1032.944231 C 26.578125 1032.944231 28.664062 1030.858294 28.664062 1028.280169 L 28.664062 1019.409075 L 32.367188 1019.409075 C 32.367188 1015.846575 29.578125 1012.870013 25.863281 1012.870013 Z " transform="matrix(.33333 0 0 .33333 0 -334.7874)"/>
<path style="fill:#fff;fill-opacity:.149" d="M 0.667969 0 C 0.296875 0 0 0.296875 0 0.667969 L 0 15.332031 C 0 15.703125 0.296875 16 0.667969 16 L 5.59375 16 L 9.875 0 Z "/>
</svg>
