<svg width="16" xmlns="http://www.w3.org/2000/svg" height="16" viewBox="0 0 16 16" xmlns:xlink="http://www.w3.org/1999/xlink">
<defs>
<linearGradient gradientTransform="matrix(.33333 0 0 -.33333 0 350.7874)" id="linear0" y1="1053.158" y2="1004.847" gradientUnits="userSpaceOnUse" x2="0">
<stop offset="0" style="stop-color:#71a536"/>
<stop offset="1" style="stop-color:#617147"/>
</linearGradient>
</defs>
<path style="fill:url(#linear0)" d="M 0.648438 16 L 15.351562 16 C 15.710938 16 16 15.710938 16 15.351562 L 16 0.648438 C 16 0.289062 15.710938 0 15.351562 0 L 0.648438 0 C 0.289062 0 0 0.289062 0 0.648438 L 0 15.351562 C 0 15.710938 0.289062 16 0.648438 16 Z "/>
<g style="fill:#fff">
<path d="M 2.671875 3.6875 L 2.671875 12.355469 L 12.300781 12.355469 L 12.300781 3.6875 Z M 2.992188 4.011719 L 11.980469 4.011719 L 11.980469 12.035156 L 2.992188 12.035156 Z "/>
<path d="M 11.992188 3.011719 L 11.992188 13.34375 L 13.328125 13.34375 L 13.328125 12.675781 L 12.660156 12.675781 L 12.660156 3.011719 Z "/>
<path d="M 4.308594 4.675781 L 7.011719 4.675781 C 7.371094 4.675781 7.660156 4.96875 7.660156 5.324219 L 7.660156 8.027344 C 7.660156 8.386719 7.371094 8.675781 7.011719 8.675781 L 4.308594 8.675781 C 3.949219 8.675781 3.660156 8.386719 3.660156 8.027344 L 3.660156 5.324219 C 3.660156 4.96875 3.949219 4.675781 4.308594 4.675781 Z "/>
<path d="M 8.328125 4.675781 L 8.992188 4.675781 L 8.992188 5.675781 L 8.328125 5.675781 Z "/>
<path d="M 9.328125 4.675781 L 9.992188 4.675781 L 9.992188 5.675781 L 9.328125 5.675781 Z "/>
<path d="M 10.328125 4.675781 L 10.992188 4.675781 L 10.992188 5.675781 L 10.328125 5.675781 Z "/>
<path d="M 8.328125 6.011719 L 10.992188 6.011719 L 10.992188 7.011719 L 8.328125 7.011719 Z "/>
<path d="M 8.328125 7.34375 L 10.992188 7.34375 L 10.992188 8.34375 L 8.328125 8.34375 Z "/>
<path d="M 3.660156 9.011719 L 10.992188 9.011719 L 10.992188 9.675781 L 3.660156 9.675781 Z "/>
<path d="M 3.660156 10.011719 L 10.992188 10.011719 L 10.992188 10.675781 L 3.660156 10.675781 Z "/>
<path d="M 3.660156 11.011719 L 4.660156 11.011719 L 4.660156 11.332031 L 3.660156 11.332031 Z "/>
<path d="M 4.992188 11.011719 L 5.992188 11.011719 L 5.992188 11.332031 L 4.992188 11.332031 Z "/>
<path d="M 6.992188 11.011719 L 7.660156 11.011719 L 7.660156 11.332031 L 6.992188 11.332031 Z "/>
<path d="M 7.992188 11.011719 L 8.660156 11.011719 L 8.660156 11.332031 L 7.992188 11.332031 Z "/>
<path d="M 8.992188 11.011719 L 9.660156 11.011719 L 9.660156 11.332031 L 8.992188 11.332031 Z "/>
<path d="M 9.992188 11.011719 L 10.992188 11.011719 L 10.992188 11.332031 L 9.992188 11.332031 Z "/>
<path style="fill-opacity:.149" d="M 0.667969 0 C 0.296875 0 0 0.296875 0 0.667969 L 0 15.332031 C 0 15.703125 0.296875 16 0.667969 16 L 5.59375 16 L 9.875 0 Z "/>
</g>
</svg>
