<svg width="16" xmlns="http://www.w3.org/2000/svg" height="16" viewBox="0 0 16 16" xmlns:xlink="http://www.w3.org/1999/xlink">
<defs>
<linearGradient gradientTransform="matrix(.33333 0 0 -.33333 0 350.7874)" id="linear0" y1="1005.203" y2="1052.224" gradientUnits="userSpaceOnUse" x2="0">
<stop offset="0" style="stop-color:#464745"/>
<stop offset="1" style="stop-color:#828680"/>
</linearGradient>
</defs>
<path style="fill:url(#linear0)" d="M 0.648438 16 L 15.351562 16 C 15.710938 16 16 15.710938 16 15.351562 L 16 0.648438 C 16 0.289062 15.710938 0 15.351562 0 L 0.648438 0 C 0.289062 0 0 0.289062 0 0.648438 L 0 15.351562 C 0 15.710938 0.289062 16 0.648438 16 Z "/>
<g style="fill:#fff">
<g style="stroke:#fff;stroke-width:.255">
<path d="M 21 24.878906 C 20.25 24.878906 19.652344 25.5 19.652344 26.25 L 19.652344 32.25 C 19.652344 33 20.25 33.597656 21 33.597656 L 27 33.597656 C 27.75 33.597656 28.347656 33 28.347656 32.25 L 28.347656 26.25 C 28.347656 25.5 27.75 24.878906 27 24.878906 Z M 22.933594 26.683594 C 23.578125 26.71875 24.234375 26.71875 24.878906 26.71875 L 24.878906 29.003906 L 25.78125 29.003906 L 23.941406 31.78125 L 21.972656 28.96875 L 22.933594 28.96875 Z " transform="scale(.33333)"/>
<path d="M 9.503906 23.964844 C 8.753906 23.964844 8.121094 24.5625 8.121094 25.3125 L 8.121094 31.3125 C 8.121094 32.0625 8.753906 32.683594 9.503906 32.683594 L 15.503906 32.683594 C 16.253906 32.683594 16.839844 32.0625 16.839844 31.3125 L 16.839844 25.3125 C 16.839844 24.5625 16.253906 23.964844 15.503906 23.964844 Z M 12.5625 26.402344 L 12.5625 27.375 L 14.847656 27.375 C 14.8125 28.019531 14.8125 28.664062 14.8125 29.308594 L 12.527344 29.308594 L 12.527344 30.222656 L 9.714844 28.371094 Z " transform="scale(.33333)"/>
<path d="M 32.496094 23.964844 C 31.746094 23.964844 31.160156 24.5625 31.160156 25.3125 L 31.160156 31.3125 C 31.160156 32.0625 31.746094 32.683594 32.496094 32.683594 L 38.496094 32.683594 C 39.246094 32.683594 39.878906 32.0625 39.878906 31.3125 L 39.878906 25.3125 C 39.878906 24.5625 39.246094 23.964844 38.496094 23.964844 Z M 35.25 26.402344 L 38.0625 28.277344 L 35.214844 30.222656 L 35.214844 29.285156 L 32.964844 29.285156 C 33 28.640625 32.964844 27.984375 32.964844 27.339844 L 35.25 27.339844 Z " transform="scale(.33333)"/>
<path d="M 20.777344 14.402344 C 20.027344 14.402344 19.441406 15 19.441406 15.75 L 19.441406 21.75 C 19.441406 22.5 20.027344 23.121094 20.777344 23.121094 L 26.777344 23.121094 C 27.527344 23.121094 28.125 22.5 28.125 21.75 L 28.125 15.75 C 28.125 15 27.527344 14.402344 26.777344 14.402344 Z M 23.847656 16.21875 L 25.6875 18.996094 L 24.75 18.996094 L 24.75 21.28125 C 24.105469 21.28125 23.484375 21.28125 22.839844 21.316406 L 22.839844 19.03125 L 21.878906 19.03125 Z " transform="scale(.33333)"/>
</g>
<path style="fill-opacity:.149" d="M 0.667969 0 C 0.296875 0 0 0.296875 0 0.667969 L 0 15.332031 C 0 15.703125 0.296875 16 0.667969 16 L 5.59375 16 L 9.875 0 Z "/>
</g>
</svg>
