<svg width="16" xmlns="http://www.w3.org/2000/svg" height="16" viewBox="0 0 16 16" xmlns:xlink="http://www.w3.org/1999/xlink">
<defs>
<linearGradient gradientTransform="matrix(.33333 0 0 .33333 0 -334.7874)" id="linear0" y1="1053.158" y2="1004.847" gradientUnits="userSpaceOnUse" x2="0">
<stop offset="0" style="stop-color:#cc9e52"/>
<stop offset="1" style="stop-color:#e08559"/>
</linearGradient>
</defs>
<path style="fill:url(#linear0)" d="M 0.648438 0 L 15.351562 0 C 15.710938 0 16 0.289062 16 0.648438 L 16 15.351562 C 16 15.710938 15.710938 16 15.351562 16 L 0.648438 16 C 0.289062 16 0 15.710938 0 15.351562 L 0 0.648438 C 0 0.289062 0.289062 0 0.648438 0 Z "/>
<g style="fill:#fff">
<path d="M 9.128906 2.5625 L 6.722656 3.476562 L 5.125 8.757812 L 8.273438 7.730469 L 7.3125 11.359375 L 6.523438 11.019531 L 7.3125 13.230469 L 9.28125 11.4375 L 8.292969 11.554688 L 10.460938 5.800781 L 7.113281 6.945312 Z "/>
<path style="fill-opacity:.149" d="M 0.667969 0 C 0.296875 0 0 0.296875 0 0.667969 L 0 15.332031 C 0 15.703125 0.296875 16 0.667969 16 L 5.59375 16 L 9.875 0 Z "/>
</g>
</svg>
