<svg width="16" xmlns="http://www.w3.org/2000/svg" height="16" viewBox="0 0 16 16" xmlns:xlink="http://www.w3.org/1999/xlink">
<defs>
<linearGradient gradientTransform="matrix(.33333 0 0 -.33333 0 350.78741)" id="linear0" y1="1053.158" y2="1004.847" gradientUnits="userSpaceOnUse" x2="0">
<stop offset="0" style="stop-color:#d76868"/>
<stop offset="1" style="stop-color:#bc2f2f"/>
</linearGradient>
</defs>
<path style="fill:url(#linear0)" d="M 0.648438 16 L 15.351562 16 C 15.710938 16 16 15.710938 16 15.351562 L 16 0.648438 C 16 0.289062 15.710938 0 15.351562 0 L 0.648438 0 C 0.289062 0 0 0.289062 0 0.648438 L 0 15.351562 C 0 15.710938 0.289062 16 0.648438 16 Z "/>
<g style="fill:#fff">
<path d="M 5.90625 10.523438 C 5.734375 10.5 5.433594 10.40625 5.230469 10.308594 C 3.917969 9.695312 3.378906 8.148438 4.027344 6.847656 C 4.765625 5.359375 6.785156 4.980469 7.996094 6.101562 C 8.347656 6.425781 8.503906 6.703125 9.03125 7.925781 C 9.582031 9.207031 9.683594 9.410156 9.863281 9.578125 C 10.054688 9.761719 10.230469 9.820312 10.574219 9.820312 C 11.132812 9.820312 11.527344 9.488281 11.527344 9.015625 C 11.527344 8.621094 11.386719 8.492188 10.65625 8.238281 C 9.542969 7.847656 9.183594 7.492188 9.183594 6.789062 C 9.183594 6.410156 9.28125 6.152344 9.53125 5.894531 C 9.890625 5.523438 10.507812 5.398438 11.058594 5.585938 C 11.289062 5.664062 11.777344 6.085938 11.777344 6.207031 C 11.777344 6.265625 11.496094 6.445312 11.339844 6.488281 C 11.257812 6.507812 11.183594 6.480469 11.089844 6.390625 C 10.894531 6.210938 10.761719 6.152344 10.53125 6.152344 C 10.128906 6.152344 9.882812 6.390625 9.882812 6.769531 C 9.882812 7.148438 10.039062 7.277344 10.828125 7.535156 C 11.917969 7.894531 12.238281 8.21875 12.246094 8.96875 C 12.253906 9.613281 11.957031 10.082031 11.359375 10.355469 C 11.089844 10.480469 11 10.5 10.554688 10.496094 C 9.925781 10.496094 9.640625 10.382812 9.289062 9.996094 C 9.050781 9.734375 8.808594 9.242188 8.039062 7.453125 C 7.71875 6.710938 7.304688 6.347656 6.621094 6.207031 C 6.273438 6.132812 5.789062 6.199219 5.472656 6.363281 C 5.167969 6.519531 4.824219 6.871094 4.660156 7.195312 C 4.527344 7.457031 4.515625 7.53125 4.515625 7.988281 C 4.515625 8.421875 4.53125 8.527344 4.644531 8.765625 C 4.8125 9.128906 5.148438 9.46875 5.515625 9.648438 C 5.78125 9.78125 5.863281 9.796875 6.285156 9.796875 C 6.695312 9.796875 6.800781 9.777344 7.042969 9.664062 C 7.320312 9.535156 7.691406 9.210938 7.84375 8.96875 L 7.921875 8.839844 L 8.078125 9.1875 C 8.164062 9.378906 8.234375 9.558594 8.234375 9.59375 C 8.234375 9.6875 7.882812 10.003906 7.558594 10.195312 C 7.070312 10.492188 6.507812 10.605469 5.90625 10.523438 Z "/>
<path style="fill-opacity:.149" d="M 0.667969 0 C 0.296875 0 0 0.296875 0 0.667969 L 0 15.332031 C 0 15.703125 0.296875 16 0.667969 16 L 5.59375 16 L 9.875 0 Z "/>
</g>
</svg>
