<svg width="16" xmlns="http://www.w3.org/2000/svg" height="16" viewBox="0 0 16 16" xmlns:xlink="http://www.w3.org/1999/xlink">
<defs>
<linearGradient gradientTransform="matrix(.33333 0 0 -.33333 0 -334.7874)" id="linear0" y1="-1052.362" y2="-1002.362" gradientUnits="userSpaceOnUse" x2="0">
<stop offset="0" style="stop-color:#407f04"/>
<stop offset="1" style="stop-color:#4d993b"/>
</linearGradient>
</defs>
<path style="fill:url(#linear0)" d="M 0.648438 16 L 15.351562 16 C 15.710938 16 16 15.710938 16 15.351562 L 16 0.648438 C 16 0.289062 15.710938 0 15.351562 0 L 0.648438 0 C 0.289062 0 0 0.289062 0 0.648438 L 0 15.351562 C 0 15.710938 0.289062 16 0.648438 16 Z "/>
<g style="fill:#fff">
<path style="fill-opacity:.149" d="M 0.667969 0 C 0.296875 0 0 0.296875 0 0.667969 L 0 15.332031 C 0 15.703125 0.296875 16 0.667969 16 L 5.59375 16 L 9.875 0 Z "/>
<path style="fill-opacity:.6" d="M 5.078125 10.71875 C 5.078125 11.71875 5.890625 12.527344 6.890625 12.527344 C 7.890625 12.527344 8.707031 11.71875 8.707031 10.71875 C 8.707031 9.714844 7.890625 8.90625 6.890625 8.90625 C 5.890625 8.90625 5.078125 9.714844 5.078125 10.71875 Z M 6.558594 10.71875 C 6.558594 10.53125 6.707031 10.382812 6.890625 10.382812 C 7.074219 10.382812 7.226562 10.53125 7.226562 10.71875 C 7.226562 10.902344 7.074219 11.050781 6.890625 11.050781 C 6.707031 11.050781 6.558594 10.902344 6.558594 10.71875 Z "/>
<path d="M 4.09375 12.8125 C 4.09375 13.097656 4.375 13.332031 4.71875 13.332031 L 11.273438 13.332031 C 11.617188 13.332031 11.90625 13.097656 11.90625 12.8125 L 11.90625 8.613281 C 11.90625 8.328125 11.617188 8.09375 11.273438 8.09375 L 4.71875 8.09375 C 4.375 8.09375 4.09375 8.328125 4.09375 8.613281 Z M 4.582031 12.8125 L 4.582031 8.613281 C 4.582031 8.546875 4.636719 8.5 4.71875 8.5 L 11.273438 8.5 C 11.355469 8.5 11.417969 8.546875 11.417969 8.613281 L 11.417969 12.8125 C 11.417969 12.878906 11.355469 12.925781 11.273438 12.925781 L 4.71875 12.925781 C 4.636719 12.925781 4.582031 12.878906 4.582031 12.8125 Z "/>
<path d="M 8.933594 10.101562 L 9.953125 9.289062 L 9.953125 8.882812 L 9.542969 8.882812 Z "/>
<path d="M 8.023438 7.546875 C 8.132812 7.539062 8.238281 7.492188 8.316406 7.414062 L 9.6875 5.960938 C 9.773438 5.878906 9.828125 5.757812 9.832031 5.640625 C 9.839844 5.449219 9.71875 5.261719 9.542969 5.1875 C 9.371094 5.113281 9.152344 5.160156 9.019531 5.296875 L 8 6.332031 L 6.933594 5.25 C 6.753906 5.105469 6.460938 5.121094 6.300781 5.285156 C 6.136719 5.449219 6.125 5.738281 6.273438 5.914062 L 7.652344 7.414062 C 7.746094 7.507812 7.886719 7.558594 8.023438 7.546875 Z M 8.957031 4.820312 C 9.113281 4.800781 9.238281 4.652344 9.234375 4.496094 L 9.234375 3.714844 C 9.234375 3.550781 9.082031 3.402344 8.917969 3.402344 C 8.753906 3.402344 8.605469 3.550781 8.605469 3.714844 L 8.605469 4.496094 C 8.597656 4.667969 8.757812 4.824219 8.929688 4.820312 C 8.9375 4.820312 8.949219 4.820312 8.957031 4.820312 Z M 8.027344 4.878906 C 8.1875 4.867188 8.320312 4.714844 8.316406 4.558594 L 8.316406 2.980469 C 8.316406 2.816406 8.164062 2.667969 8 2.667969 C 7.835938 2.667969 7.6875 2.816406 7.6875 2.980469 L 7.6875 4.558594 C 7.679688 4.726562 7.832031 4.882812 8 4.878906 C 8.007812 4.878906 8.019531 4.878906 8.027344 4.878906 Z M 7.109375 4.820312 C 7.265625 4.800781 7.394531 4.652344 7.386719 4.496094 L 7.386719 3.382812 C 7.414062 3.207031 7.257812 3.027344 7.078125 3.027344 C 6.898438 3.027344 6.742188 3.207031 6.765625 3.382812 L 6.765625 4.496094 C 6.761719 4.671875 6.933594 4.835938 7.109375 4.820312 Z "/>
</g>
</svg>
