<svg width="16" xmlns="http://www.w3.org/2000/svg" height="16" viewBox="0 0 16 16" xmlns:xlink="http://www.w3.org/1999/xlink">
<defs>
<linearGradient gradientTransform="matrix(.33333 0 0 -.33333 0 350.7874)" id="linear0" y1="1053.158" y2="1004.847" gradientUnits="userSpaceOnUse" x2="0">
<stop offset="0" style="stop-color:#4ea34d"/>
<stop offset="1" style="stop-color:#3b862a"/>
</linearGradient>
</defs>
<path style="fill:url(#linear0)" d="M 0.648438 16 L 15.351562 16 C 15.710938 16 16 15.710938 16 15.351562 L 16 0.648438 C 16 0.289062 15.710938 0 15.351562 0 L 0.648438 0 C 0.289062 0 0 0.289062 0 0.648438 L 0 15.351562 C 0 15.710938 0.289062 16 0.648438 16 Z "/>
<g style="fill:#fff">
<path style="fill-opacity:.149" d="M 0 0 L 0 16 L 5.59375 16 L 9.875 0 Z "/>
<path d="M 5.460938 5.175781 L 11.578125 5.175781 L 11.578125 13.621094 L 5.460938 13.621094 Z "/>
<path d="M 4.519531 2.953125 L 6.402344 2.953125 L 6.402344 9.175781 L 4.519531 9.175781 Z "/>
<path d="M 7.578125 2.953125 L 9.460938 2.953125 L 9.460938 9.175781 L 7.578125 9.175781 Z "/>
<path d="M 10.636719 2.953125 L 12.519531 2.953125 L 12.519531 9.175781 L 10.636719 9.175781 Z "/>
</g>
<g style="fill-rule:evenodd;stroke-width:1.25;stroke:#000">
<g style="fill:#fb0061">
<path d="M 269.866625 121.818196 L 256.943842 123.114916 C 257.747558 128.340622 256.069287 141.159938 252.426677 153.072921 C 255.019069 156.650234 259.611607 164.75688 260.266516 170.145113 L 269.891659 170.008628 L 270.192258 169.985493 L 279.820385 170.150926 C 280.367873 164.670153 284.951072 156.612683 287.471851 152.943993 C 283.897095 141.284331 282.414599 128.255058 282.965071 123.076202 L 270.167224 121.795062 L 270.015433 121.655671 Z " transform="matrix(-.01199 -.01398 .01306 -.0128 9.03188 15.41013)"/>
<g style="stroke-linejoin:round">
<path d="M 259.061755 428.724121 C 257.577321 339.403018 257.601851 250.570075 257.322798 161.458349 C 261.763157 154.167239 259.974093 140.557267 259.720849 130.152704 L 280.328308 130.228503 C 280.891103 141.515681 278.15029 153.35926 283.338059 160.815802 C 284.063535 249.43995 284.940803 338.203489 284.16925 427.547145 C 283.360341 452.234337 277.27155 475.363931 274.048895 499.330451 C 269.003579 475.849183 260.5148 453.992592 259.061755 428.724121 Z " transform="matrix(-.01199 -.01398 .01306 -.0128 9.03188 15.41013)"/>
<path d="M 255.367295 39.692758 C 255.679829 40.87729 256.432819 40.970411 256.453707 43.083829 C 257.885864 66.238883 258.383401 86.142257 258.000028 108.228453 C 257.711364 109.459255 257.58046 111.433282 256.690598 112.710354 L 269.780092 113.062609 L 282.563019 112.834166 C 281.798093 111.533378 281.628398 109.582486 281.464671 108.235428 C 280.946247 86.218637 281.502299 66.385249 282.927326 43.161372 C 282.906439 41.047954 283.808237 40.978549 284.0969 39.747747 L 269.659186 39.952474 Z " transform="matrix(-.01199 -.01398 .01306 -.0128 9.03188 15.41013)"/>
<path d="M 269.476509 112.783827 L 256.389999 112.733489 C 256.389999 112.733489 258.074625 115.776373 256.580581 116.797798 C 254.937729 117.981749 243.952429 117.467549 240.190463 117.30386 C 239.752992 118.697188 239.934622 121.855747 240.404917 123.783504 C 248.22348 123.483912 254.95602 135.051615 266.06924 133.289872 C 264.13474 135.402709 263.429492 140.140256 265.420686 143.763839 C 267.188475 140.002028 269.090151 134.568107 269.837174 134.057394 C 270.744939 134.591823 272.149854 139.77126 273.99224 143.557369 C 275.763013 140.097474 275.265863 135.452466 273.137797 133.199076 C 284.435632 134.897809 291.090202 123.357309 299.066525 123.800942 C 299.498029 121.803781 299.616997 118.622087 299.301479 117.135638 C 295.393689 117.436392 284.417341 117.827942 282.902409 116.73595 C 281.387477 115.643957 282.714811 112.973557 282.714811 112.973557 C 282.714811 112.973557 269.625316 112.621302 269.476509 112.783827 Z " transform="matrix(-.01199 -.01398 .01306 -.0128 9.03188 15.41013)"/>
<path d="M 255.525054 40.435983 C 255.813718 39.205181 256.563724 38.996385 256.542836 36.882967 C 256.307496 28.289906 251.170453 25.965949 250.732595 12.100911 C 250.833272 -8.15065 287.973689 -9.347272 288.923617 10.672357 C 289.373411 25.745062 282.935891 28.808756 283.016456 36.96051 C 283.037343 39.073928 283.942125 39.30644 284.102868 40.351581 L 269.810977 40.091865 Z " transform="matrix(-.01199 -.01398 .01306 -.0128 9.03188 15.41013)"/>
</g>
</g>
<g style="fill:#009ffb">
<path d="M 269.861267 121.757995 L 257.085105 123.090318 C 257.615507 128.317374 256.129869 141.248091 252.597381 153.101882 C 254.978959 156.706881 259.646546 164.687565 260.19869 170.214507 L 270.019853 169.901288 L 279.884499 170.187844 C 280.392695 164.664079 284.968316 156.75393 287.427792 153.077776 C 283.837752 141.159807 282.303166 128.348533 282.993899 123.253632 L 270.161115 121.716062 L 270.022062 121.886972 Z " transform="matrix(-.0147 .01109 -.01196 -.01383 15.04428 8.67853)"/>
<g style="stroke-linejoin:round">
<path d="M 259.115097 428.914659 C 257.616205 339.306274 257.542725 250.558795 257.286709 161.382452 C 261.905814 154.072077 259.867101 140.573985 259.866636 130.123052 L 280.312937 130.141499 C 280.978323 141.408227 278.206326 153.307129 283.291073 160.775082 C 283.964249 249.438695 284.79822 338.231285 284.154691 427.533427 C 283.217128 452.20167 277.329802 475.441632 273.906486 499.245791 C 269.029621 475.845072 260.48075 454.018121 259.115097 428.914659 Z " transform="matrix(-.0147 .01109 -.01196 -.01383 15.04428 8.67853)"/>
<path d="M 255.44309 39.863426 C 255.66911 40.892064 256.590396 41.066152 256.442739 43.207294 C 257.816995 66.340524 258.352397 86.258864 257.818855 108.144258 C 257.766769 109.514716 257.59737 111.355971 256.645739 112.852228 L 269.691404 113.148317 L 282.693585 112.844632 C 281.685333 111.470996 281.693936 109.500764 281.446175 108.172239 C 280.919377 86.283667 281.444315 66.368505 283.090283 43.115832 C 282.938091 41.016623 283.837636 40.890824 283.911464 39.820253 L 269.688148 39.991783 Z " transform="matrix(-.0147 .01109 -.01196 -.01383 15.04428 8.67853)"/>
<path d="M 269.508867 112.719453 L 256.484944 112.723251 C 256.484944 112.723251 258.062548 115.683365 256.328683 116.834625 C 254.894667 117.943951 243.808886 117.52524 240.145482 117.128776 C 239.815289 118.841054 240.032705 121.839923 240.484745 123.897199 C 248.324282 123.406715 254.934546 135.205241 266.007189 133.353832 C 264.199496 135.575662 263.46528 140.070789 265.54701 143.717721 C 267.245995 139.996456 269.114379 134.433937 269.853129 134.179161 C 270.796156 134.653135 272.08705 139.925302 273.868932 143.614168 C 275.889507 140.150857 275.241793 135.394598 273.268771 133.2471 C 284.441518 134.865358 291.176767 123.320988 299.081529 123.730165 C 299.389981 121.718 299.633208 118.806174 299.20291 117.048785 C 295.443936 117.423004 284.423381 117.903955 282.976226 116.743162 C 281.368277 115.453393 282.85438 112.973609 282.85438 112.973609 C 282.85438 112.973609 269.508867 112.719453 269.508867 112.719453 Z " transform="matrix(-.0147 .01109 -.01196 -.01383 15.04428 8.67853)"/>
<path d="M 255.625627 40.29229 C 255.699455 39.221719 256.599 39.09592 256.446809 36.996711 C 256.415998 28.216123 251.101162 25.930114 250.86154 12.180424 C 250.904093 -8.121669 288.068065 -9.3809 288.925057 10.795394 C 289.3907 25.573722 283.107025 28.724434 283.094352 36.905249 C 282.946695 39.046391 283.867981 39.220479 284.094001 40.249117 L 269.848943 40.12076 Z " transform="matrix(-.0147 .01109 -.01196 -.01383 15.04428 8.67853)"/>
</g>
</g>
</g>
</svg>
