<svg width="16" xmlns="http://www.w3.org/2000/svg" height="16" viewBox="0 0 16 16" xmlns:xlink="http://www.w3.org/1999/xlink">
<defs>
<linearGradient gradientTransform="matrix(.33333 0 0 .33333 0 -334.7874)" id="linear0" y1="1052.227" y2="1004.044" gradientUnits="userSpaceOnUse" x2="0">
<stop offset="0" style="stop-color:#72d116"/>
<stop offset="1" style="stop-color:#a2d66f"/>
</linearGradient>
</defs>
<path style="fill:url(#linear0)" d="M 0.648438 0 L 15.351562 0 C 15.710938 0 16 0.289062 16 0.648438 L 16 15.351562 C 16 15.710938 15.710938 16 15.351562 16 L 0.648438 16 C 0.289062 16 0 15.710938 0 15.351562 L 0 0.648438 C 0 0.289062 0.289062 0 0.648438 0 Z "/>
<g style="fill:#fff">
<path style="fill-opacity:.231" d="M 0 0 L 0 16 L 5.59375 16 L 9.875 0 Z "/>
<path d="M 11.855469 2.667969 C 11.855469 2.667969 7.109375 3.535156 5.371094 5.042969 C 4.0625 6.179688 2.886719 7.367188 2.914062 9.621094 C 2.945312 11.875 4.828125 11.902344 4.828125 11.902344 C 4.828125 11.902344 4.605469 10.957031 4.675781 10.261719 C 4.769531 9.335938 5.679688 8.78125 5.679688 8.78125 C 5.679688 8.78125 5.121094 9.582031 5.277344 11.035156 C 5.402344 12.175781 5.957031 13.226562 6.855469 13.316406 C 7.875 13.421875 8.457031 12.949219 8.457031 12.949219 C 8.457031 12.949219 7.292969 12.386719 7.632812 10.871094 C 7.855469 9.886719 8.429688 9.429688 8.429688 9.429688 C 8.429688 9.429688 8.179688 10.5 8.296875 11.65625 C 8.394531 12.640625 9.035156 13.089844 10.359375 13.164062 C 11.441406 13.226562 12.121094 11.410156 12.367188 10.546875 C 12.617188 9.679688 12.65625 7.265625 12.75 5.9375 C 12.84375 4.613281 12.75 4.117188 12.75 4.117188 C 12.75 4.117188 9.941406 6.710938 8.644531 6.925781 C 7.347656 7.144531 7.347656 6.21875 8.089844 5.199219 C 8.828125 4.179688 11.855469 2.667969 11.855469 2.667969 Z "/>
</g>
</svg>
