<svg width="16" xmlns="http://www.w3.org/2000/svg" height="16" viewBox="0 0 16 16" xmlns:xlink="http://www.w3.org/1999/xlink">
<path style="fill:#859eb9" d="M 9.503906 3.179688 C 9.503906 3.972656 8.863281 4.613281 8.066406 4.613281 C 7.273438 4.613281 6.632812 3.972656 6.632812 3.179688 C 6.632812 2.390625 7.273438 1.75 8.066406 1.75 C 8.863281 1.75 9.503906 2.390625 9.503906 3.179688 Z M 13.09375 4.703125 C 13.023438 4.714844 12.960938 4.742188 12.910156 4.78125 L 8 5.542969 L 3.117188 4.769531 C 2.992188 4.679688 2.8125 4.652344 2.671875 4.71875 C 2.53125 4.785156 2.441406 4.945312 2.4375 5.097656 C 2.4375 5.25 2.535156 5.382812 2.671875 5.453125 L 6.5 6.664062 L 6.472656 9.4375 L 5.121094 13.59375 C 4.992188 13.785156 5.03125 14.027344 5.226562 14.152344 C 5.421875 14.28125 5.699219 14.242188 5.828125 14.050781 L 8.007812 9.566406 L 10.144531 14.042969 C 10.261719 14.238281 10.519531 14.308594 10.71875 14.195312 C 10.921875 14.082031 10.992188 13.832031 10.878906 13.636719 L 9.550781 9.464844 L 9.5 6.851562 L 13.378906 5.4375 C 13.535156 5.332031 13.605469 5.128906 13.535156 4.957031 C 13.46875 4.785156 13.28125 4.683594 13.089844 4.703125 Z "/>
</svg>
