<svg width="16" xmlns="http://www.w3.org/2000/svg" height="16" viewBox="0 0 16 16" xmlns:xlink="http://www.w3.org/1999/xlink">
<g style="fill:none;stroke:#eea254;stroke-linecap:round">
<path style="stroke-width:3.487" d="M 28.154549 27.54439 C 28.154549 37.379252 20.188921 45.344879 10.354059 45.344879 C 0.519197 45.344879 -7.446431 37.379252 -7.446431 27.54439 C -7.446431 17.709527 0.519197 9.7439 10.354059 9.7439 C 20.188921 9.7439 28.154549 17.709527 28.154549 27.54439 Z " transform="matrix(.31973 0 0 .31973 4.68946 -.80685)"/>
<path style="stroke-width:22.267" d="M 127.3125 -128.0625 L 127.3125 -82.25 L 168.9375 -40.625 " transform="matrix(.0625 0 0 .0625 0 13)"/>
<g style="stroke-width:3.884">
<path d="M 128 -158.5625 L 128 -146.375 " transform="matrix(.0625 0 0 .0625 0 13)"/>
<path d="M 128 -13.0625 L 128 -0.9375 " transform="matrix(.0625 0 0 .0625 0 13)"/>
<path d="M 49.6875 -78.375 L 61.8125 -78.375 " transform="matrix(.0625 0 0 .0625 0 13)"/>
<path d="M 193.4375 -78.375 L 205.5625 -78.375 " transform="matrix(.0625 0 0 .0625 0 13)"/>
</g>
</g>
</svg>
