<svg width="16" xmlns="http://www.w3.org/2000/svg" height="16" viewBox="0 0 16 16" xmlns:xlink="http://www.w3.org/1999/xlink">
<defs>
<linearGradient gradientTransform="matrix(.33333 0 0 .33333 0 -334.7874)" id="linear0" y1="1052.362" y2="1002.362" gradientUnits="userSpaceOnUse" x2="0">
<stop offset="0" style="stop-color:#754f7a"/>
<stop offset="1" style="stop-color:#ab7585"/>
</linearGradient>
</defs>
<path style="fill:url(#linear0)" d="M 0.648438 0 L 15.351562 0 C 15.710938 0 16 0.289062 16 0.648438 L 16 15.351562 C 16 15.710938 15.710938 16 15.351562 16 L 0.648438 16 C 0.289062 16 0 15.710938 0 15.351562 L 0 0.648438 C 0 0.289062 0.289062 0 0.648438 0 Z "/>
<path style="fill:#fff;fill-opacity:.149" d="M 0 0 L 0 16 L 5.59375 16 L 9.875 0 Z "/>
<path style="fill:none;stroke:#fff;stroke-linejoin:round;stroke-linecap:round;stroke-width:2" d="M 10.464844 1019.397356 L 37.535156 1019.397356 C 38.34375 1019.397356 39 1020.053606 39 1020.8622 L 39 1037.9247 C 39 1038.733294 38.34375 1039.389544 37.535156 1039.389544 L 10.464844 1039.389544 C 9.65625 1039.389544 9 1038.733294 9 1037.9247 L 9 1020.8622 C 9 1020.053606 9.65625 1019.397356 10.464844 1019.397356 Z " transform="matrix(.33333 0 0 .33333 0 -334.7874)"/>
<g style="fill:#fff">
<path d="M 4.332031 4.332031 L 5.667969 4.332031 C 5.851562 4.332031 6 4.484375 6 4.667969 C 6 4.851562 5.851562 5 5.667969 5 L 4.332031 5 C 4.148438 5 4 4.851562 4 4.667969 C 4 4.484375 4.148438 4.332031 4.332031 4.332031 Z "/>
<path d="M 11.667969 5.667969 L 12 5.667969 C 12.183594 5.667969 12.332031 5.816406 12.332031 6 L 12.332031 6.332031 C 12.332031 6.515625 12.183594 6.667969 12 6.667969 L 11.667969 6.667969 C 11.484375 6.667969 11.332031 6.515625 11.332031 6.332031 L 11.332031 6 C 11.332031 5.816406 11.484375 5.667969 11.667969 5.667969 Z "/>
</g>
<path style="fill:none;stroke:#fff;stroke-width:2" d="M 31.003906 26.5 C 31.003906 30.085937 28.085938 33.003906 24.5 33.003906 C 20.914062 33.003906 17.996094 30.085937 17.996094 26.5 C 17.996094 22.914062 20.914062 19.996094 24.5 19.996094 C 28.085938 19.996094 31.003906 22.914062 31.003906 26.5 Z " transform="matrix(.33333 0 0 .33333 -.16667 -.33333)"/>
</svg>
