<svg width="16" xmlns="http://www.w3.org/2000/svg" height="16" viewBox="0 0 16 16" xmlns:xlink="http://www.w3.org/1999/xlink">
<g style="fill:#85b9b0;fill-opacity:.8">
<path d="M 2.214844 6.816406 C 1.941406 6.828125 1.75 6.894531 1.75 7.195312 L 1.75 13.527344 C 1.75 13.929688 2.085938 14.25 2.507812 14.25 L 13.480469 14.25 C 13.902344 14.25 14.25 13.929688 14.25 13.527344 L 14.25 7.195312 C 14.25 6.792969 13.902344 6.816406 13.480469 6.816406 L 2.507812 6.816406 C 2.402344 6.816406 2.304688 6.808594 2.214844 6.816406 Z "/>
<path d="M 3.699219 3.675781 L 2.136719 6.027344 L 7.605469 6.027344 L 7.605469 2.5 L 4.871094 2.5 C 4.480469 2.5 3.699219 3.675781 3.699219 3.675781 Z M 8.386719 2.5 L 8.386719 6.027344 L 13.855469 6.027344 L 12.292969 3.675781 C 12.292969 3.675781 11.511719 2.5 11.121094 2.5 Z "/>
<path d="M 2.214844 6.816406 C 1.941406 6.828125 1.75 6.894531 1.75 7.195312 L 1.75 13.527344 C 1.75 13.929688 2.085938 14.25 2.507812 14.25 L 13.480469 14.25 C 13.902344 14.25 14.25 13.929688 14.25 13.527344 L 14.25 7.195312 C 14.25 6.792969 13.902344 6.816406 13.480469 6.816406 L 2.507812 6.816406 C 2.402344 6.816406 2.304688 6.808594 2.214844 6.816406 Z "/>
<path d="M 3.699219 3.675781 L 2.136719 6.027344 L 7.605469 6.027344 L 7.605469 2.5 L 4.871094 2.5 C 4.480469 2.5 3.699219 3.675781 3.699219 3.675781 Z M 8.386719 2.5 L 8.386719 6.027344 L 13.855469 6.027344 L 12.292969 3.675781 C 12.292969 3.675781 11.511719 2.5 11.121094 2.5 Z "/>
</g>
</svg>
