<svg width="16" xmlns="http://www.w3.org/2000/svg" height="16" viewBox="0 0 16 16" xmlns:xlink="http://www.w3.org/1999/xlink">
<defs>
<linearGradient gradientTransform="matrix(.33333 0 0 .33333 0 -334.7874)" id="linear0" y1="1053.158" y2="1004.847" gradientUnits="userSpaceOnUse" x2="0">
<stop offset="0" style="stop-color:#000"/>
<stop offset="1" style="stop-color:#5a5d60"/>
</linearGradient>
</defs>
<path style="fill:url(#linear0)" d="M 0.648438 0 L 15.351562 0 C 15.710938 0 16 0.289062 16 0.648438 L 16 15.351562 C 16 15.710938 15.710938 16 15.351562 16 L 0.648438 16 C 0.289062 16 0 15.710938 0 15.351562 L 0 0.648438 C 0 0.289062 0.289062 0 0.648438 0 Z "/>
<path style="fill:#fff;fill-opacity:.149" d="M 0 0 L 0 16 L 5.59375 16 L 9.875 0 Z "/>
<path style="fill:none;stroke:#fff;stroke-linejoin:round;stroke-width:2" d="M 9.023438 1017.381731 L 9.023438 1039.342669 L 39.070312 1039.342669 L 39.070312 1019.409075 L 25.992188 1019.409075 L 25.992188 1017.381731 Z " transform="matrix(.33333 0 0 .33333 0 -334.7874)"/>
<g style="fill:#fff">
<path d="M 4 4.667969 C 4 5.46875 4 5.332031 4 5.332031 L 4.667969 5.332031 L 4.667969 4.667969 Z "/>
<path d="M 4.667969 5.332031 L 4.667969 6 L 5.332031 6 L 5.332031 5.332031 Z "/>
<path d="M 4 6 L 4 6.667969 L 4.667969 6.667969 L 4.667969 6 Z "/>
<path d="M 4.667969 6.667969 L 4.667969 7.332031 L 5.332031 7.332031 L 5.332031 6.667969 Z "/>
<path d="M 4 7.332031 L 4 8 L 4.667969 8 L 4.667969 7.332031 Z "/>
<path d="M 4.667969 8 L 4.667969 8.667969 L 5.332031 8.667969 L 5.332031 8 Z "/>
<path d="M 4 8.667969 L 4 9.332031 L 4.667969 9.332031 L 4.667969 8.667969 Z "/>
<path d="M 4.667969 9.332031 L 4.667969 10 L 5.332031 10 L 5.332031 9.332031 Z "/>
</g>
</svg>
