<svg width="16" xmlns="http://www.w3.org/2000/svg" height="16" viewBox="0 0 16 16" xmlns:xlink="http://www.w3.org/1999/xlink">
<defs>
<linearGradient gradientTransform="matrix(.33333 0 0 .33333 0 -334.7874)" id="linear0" y1="1053.158" y2="1004.847" gradientUnits="userSpaceOnUse" x2="0">
<stop offset="0" style="stop-color:#000"/>
<stop offset="1" style="stop-color:#5a5d60"/>
</linearGradient>
</defs>
<path style="fill:url(#linear0)" d="M 0.648438 0 L 15.351562 0 C 15.710938 0 16 0.289062 16 0.648438 L 16 15.351562 C 16 15.710938 15.710938 16 15.351562 16 L 0.648438 16 C 0.289062 16 0 15.710938 0 15.351562 L 0 0.648438 C 0 0.289062 0.289062 0 0.648438 0 Z "/>
<g style="fill:#fff">
<path style="fill-opacity:.149" d="M 0 0 L 0 16 L 5.59375 16 L 9.875 0 Z "/>
<path d="M 12.148438 3.175781 C 11.230469 3.175781 10.765625 3.492188 10.402344 3.929688 C 10.035156 4.371094 9.816406 4.953125 9.566406 5.457031 C 9.394531 5.792969 9.019531 7.046875 8.671875 8.230469 C 8.5 8.824219 8.328125 9.410156 8.164062 9.902344 C 8.003906 10.390625 7.878906 10.757812 7.691406 11.039062 C 7.382812 11.503906 6.886719 11.761719 6.386719 11.761719 C 6.210938 11.761719 6.035156 11.730469 5.867188 11.667969 C 6.460938 12.492188 7.828125 13.828125 9.429688 11.601562 C 10.535156 10.058594 10.90625 6.734375 11.6875 5.480469 C 12.683594 3.890625 13.183594 4.265625 13.300781 4.398438 C 13.324219 4.269531 13.335938 4.132812 13.332031 4.003906 C 13.320312 3.761719 13.257812 3.578125 13.117188 3.445312 C 12.972656 3.308594 12.707031 3.175781 12.148438 3.175781 Z "/>
<path d="M 4.675781 4.578125 C 4.914062 4.847656 5.101562 5.183594 5.214844 5.585938 C 5.472656 6.476562 5.519531 7.589844 5.578125 8.566406 C 5.605469 9.054688 5.636719 9.507812 5.683594 9.867188 C 5.730469 10.222656 5.820312 10.488281 5.847656 10.527344 C 6 10.753906 6.195312 10.839844 6.386719 10.839844 C 6.578125 10.839844 6.773438 10.753906 6.925781 10.527344 C 6.964844 10.46875 7.109375 10.132812 7.253906 9.714844 C 7.011719 9.613281 6.660156 9.042969 6.386719 6.863281 C 6.230469 5.605469 5.308594 4.914062 4.675781 4.578125 Z "/>
<path d="M 3.222656 4.800781 C 3.105469 4.804688 3.007812 4.835938 2.929688 4.890625 C 2.824219 4.960938 2.734375 5.078125 2.691406 5.324219 L 2.667969 5.320312 C 2.683594 5.992188 3.125 6.433594 3.125 6.433594 C 3.125 6.433594 3.125 5.972656 3.585938 5.742188 C 3.835938 5.617188 4.144531 5.820312 4.378906 6.03125 C 4.363281 5.964844 4.347656 5.898438 4.328125 5.839844 C 4.140625 5.183594 3.695312 4.867188 3.347656 4.8125 C 3.300781 4.804688 3.261719 4.800781 3.222656 4.800781 Z "/>
</g>
</svg>
