<svg width="16" xmlns="http://www.w3.org/2000/svg" height="16" viewBox="0 0 16 16" xmlns:xlink="http://www.w3.org/1999/xlink">
<defs>
<linearGradient gradientTransform="matrix(.33333 0 0 .33333 0 -334.7874)" id="linear0" y1="1053.158" y2="1028.182" gradientUnits="userSpaceOnUse" x2="0">
<stop offset="0" style="stop-color:#2a2a2a"/>
<stop offset="1" style="stop-color:#424242"/>
</linearGradient>
</defs>
<path style="fill:url(#linear0)" d="M 0.644531 0 C 0.285156 0 0 0.285156 0 0.644531 L 0 15.355469 C 0 15.714844 0.285156 16 0.644531 16 L 15.355469 16 C 15.714844 16 16 15.714844 16 15.355469 L 16 0.644531 C 16 0.285156 15.714844 0 15.355469 0 Z "/>
<g style="fill:#fff">
<path style="fill-opacity:.149" d="M 0 0 L 0 16 L 5.59375 16 L 9.875 0 Z "/>
<path d="M 2.667969 4.332031 L 7.667969 4.332031 L 7.667969 7.667969 L 2.667969 7.667969 Z "/>
<path d="M 8.332031 4.332031 L 8.332031 7.667969 L 13.332031 7.667969 L 13.332031 4.332031 Z M 8.667969 4.667969 L 13 4.667969 L 13 7.332031 L 8.667969 7.332031 Z "/>
<path d="M 2.667969 8.332031 L 7.667969 8.332031 L 7.667969 11.667969 L 2.667969 11.667969 Z "/>
<path d="M 8.332031 8.332031 L 13.332031 8.332031 L 13.332031 11.667969 L 8.332031 11.667969 Z "/>
</g>
</svg>
