<svg width="16" xmlns="http://www.w3.org/2000/svg" height="16" viewBox="0 0 16 16" xmlns:xlink="http://www.w3.org/1999/xlink">
<defs>
<linearGradient gradientTransform="matrix(.33333 0 0 -.33333 0 350.7874)" id="linear0" y1="1053.158" y2="1004.847" gradientUnits="userSpaceOnUse" x2="0">
<stop offset="0" style="stop-color:#d768d2"/>
<stop offset="1" style="stop-color:#bc2f95"/>
</linearGradient>
</defs>
<path style="fill:url(#linear0)" d="M 0.648438 16 L 15.351562 16 C 15.710938 16 16 15.710938 16 15.351562 L 16 0.648438 C 16 0.289062 15.710938 0 15.351562 0 L 0.648438 0 C 0.289062 0 0 0.289062 0 0.648438 L 0 15.351562 C 0 15.710938 0.289062 16 0.648438 16 Z "/>
<g style="fill:#fff">
<path style="fill-opacity:.149" d="M 0 0 L 0 16 L 5.59375 16 L 9.875 0 Z "/>
<g style="fill-opacity:.784">
<path d="M 11.125 2.625 C 9.8125 3.617188 8.554688 4.777344 7.804688 6.324219 C 7.75 6.402344 7.597656 6.398438 7.554688 6.328125 C 6.914062 5.367188 5.96875 4.449219 4.640625 3.507812 L 3.695312 4.859375 C 5.617188 6.21875 6.398438 7.273438 6.792969 8.53125 C 6.796875 8.539062 6.796875 8.550781 6.792969 8.558594 C 6.675781 8.941406 6.335938 9.496094 5.792969 10.074219 C 5.175781 10.722656 4.371094 11.382812 3.597656 11.96875 L 4.582031 13.289062 C 5.386719 12.683594 6.257812 11.980469 6.980469 11.21875 C 7.355469 10.839844 7.679688 10.414062 7.972656 9.960938 C 8.023438 9.890625 8.152344 9.886719 8.21875 9.953125 C 8.394531 10.191406 8.589844 10.414062 8.785156 10.636719 C 9.507812 11.4375 10.375 12.175781 11.183594 12.816406 L 12.199219 11.515625 C 11.425781 10.902344 10.617188 10.207031 10 9.523438 C 9.445312 8.90625 9.09375 8.308594 8.980469 7.882812 C 8.976562 7.875 8.976562 7.867188 8.980469 7.855469 C 9.378906 6.511719 10.167969 5.394531 12.101562 3.957031 Z "/>
<path d="M 12.269531 5.332031 C 11.101562 6.105469 10.457031 7.011719 10.480469 7.972656 C 10.507812 8.933594 11.191406 9.824219 12.40625 10.589844 L 12.691406 10.09375 C 11.566406 9.386719 11.058594 8.640625 11.042969 7.957031 C 11.023438 7.273438 11.492188 6.53125 12.570312 5.820312 Z "/>
<path d="M 12.640625 6.660156 C 12.292969 7.046875 12.050781 7.386719 12.035156 7.777344 C 12.015625 8.167969 12.238281 8.539062 12.6875 8.941406 L 12.917969 8.671875 C 12.503906 8.300781 12.371094 8.039062 12.382812 7.796875 C 12.390625 7.558594 12.5625 7.273438 12.894531 6.90625 Z "/>
<path d="M 3.417969 5.871094 C 4.597656 6.632812 5.253906 7.53125 5.230469 8.484375 C 5.203125 9.4375 4.507812 10.320312 3.28125 11.070312 L 2.976562 10.558594 C 4.113281 9.863281 4.617188 9.132812 4.632812 8.46875 C 4.652344 7.800781 4.1875 7.074219 3.101562 6.375 Z "/>
<path d="M 2.742188 7.242188 C 3.089844 7.621094 3.328125 7.953125 3.347656 8.335938 C 3.363281 8.71875 3.140625 9.082031 2.691406 9.476562 L 2.464844 9.210938 C 2.878906 8.851562 3.011719 8.59375 3 8.355469 C 2.988281 8.117188 2.816406 7.839844 2.484375 7.480469 Z "/>
</g>
</g>
</svg>
