<svg width="16" xmlns="http://www.w3.org/2000/svg" height="16" viewBox="0 0 16 16" xmlns:xlink="http://www.w3.org/1999/xlink">
<defs>
<linearGradient gradientTransform="matrix(.33333 0 0 .33333 0 -334.7874)" id="linear0" y1="1050.112" y2="1003.795" gradientUnits="userSpaceOnUse" x2="0">
<stop offset="0" style="stop-color:#8f3f9b"/>
<stop offset="1" style="stop-color:#b263bf"/>
</linearGradient>
</defs>
<path style="fill:url(#linear0)" d="M 0.648438 0 L 15.351562 0 C 15.710938 0 16 0.289062 16 0.648438 L 16 15.351562 C 16 15.710938 15.710938 16 15.351562 16 L 0.648438 16 C 0.289062 16 0 15.710938 0 15.351562 L 0 0.648438 C 0 0.289062 0.289062 0 0.648438 0 Z "/>
<g style="fill:#fff">
<path d="M 10.78125 10.191406 L 11.308594 10.519531 L 10.953125 11.148438 L 10.414062 10.808594 Z "/>
<path d="M 2.667969 4.851562 L 2.667969 5.34375 L 4.078125 5.46875 L 6.742188 8.683594 L 6.824219 10.347656 C 6.75 10.636719 6.523438 10.53125 6.359375 10.589844 L 5.375 10.597656 L 5.386719 11.027344 L 9.773438 10.988281 L 9.773438 10.574219 L 8.480469 10.5625 C 8.320312 10.589844 8.332031 10.46875 8.316406 10.375 L 8.234375 8.792969 C 8.257812 8.667969 8.28125 8.539062 8.453125 8.414062 L 11.007812 6.367188 L 12.207031 6.152344 L 12.394531 5.773438 L 8.417969 5.773438 L 8.480469 6.179688 L 9.621094 6.289062 C 9.691406 6.34375 9.824219 6.339844 9.675781 6.585938 L 8.019531 8.03125 C 7.929688 8.082031 7.863281 8.054688 7.800781 8.003906 L 5.953125 5.578125 C 5.816406 5.386719 5.949219 5.351562 6.117188 5.335938 L 7.3125 5.28125 L 7.3125 4.871094 Z "/>
<path d="M 11.035156 9.625 L 11.484375 9.910156 L 13.332031 6.875 L 12.285156 6.273438 Z "/>
<path style="fill-opacity:.149" d="M 0.667969 0 C 0.296875 0 0 0.296875 0 0.667969 L 0 15.332031 C 0 15.703125 0.296875 16 0.667969 16 L 5.59375 16 L 9.875 0 Z "/>
</g>
</svg>
