<svg width="48" xmlns="http://www.w3.org/2000/svg" height="48" viewBox="0 0 48 48" xmlns:xlink="http://www.w3.org/1999/xlink">
<path style="fill:#fff;fill-rule:evenodd" d="M 44 24 C 44 35.046875 35.046875 44 24 44 C 12.953125 44 4 35.046875 4 24 C 4 12.953125 12.953125 4 24 4 C 35.046875 4 44 12.953125 44 24 Z "/>
<path style="fill:#268bd2" d="M 23.96875 10.96875 C 22.867188 10.984375 21.984375 11.898438 22 13 L 22 24 C 22 24.46875 22.164062 24.921875 22.46875 25.28125 L 27.46875 31.28125 C 27.914062 31.882812 28.648438 32.179688 29.382812 32.070312 C 30.117188 31.953125 30.726562 31.445312 30.96875 30.742188 C 31.210938 30.039062 31.039062 29.257812 30.53125 28.71875 L 26 23.28125 L 26 13 C 26.007812 12.460938 25.796875 11.9375 25.414062 11.554688 C 25.03125 11.171875 24.507812 10.960938 23.96875 10.96875 Z "/>
<path style="fill:#aaa" d="M 24 4 C 12.976562 4 4 12.976562 4 24 C 4 35.023438 12.976562 44 24 44 C 35.023438 44 44 35.023438 44 24 C 44 12.976562 35.023438 4 24 4 Z M 24 8 C 32.859375 8 40 15.140625 40 24 C 40 32.859375 32.859375 40 24 40 C 15.140625 40 8 32.859375 8 24 C 8 15.140625 15.140625 8 24 8 Z "/>
<path style="fill:#859900" d="M 44 28 L 36 28 L 36 20 L 28 20 L 28 28 L 20 28 L 20 36 L 28 36 L 28 44 L 36 44 L 36 36 L 44 36 Z "/>
</svg>
