<svg width="48" xmlns="http://www.w3.org/2000/svg" height="48" viewBox="0 0 48 48" xmlns:xlink="http://www.w3.org/1999/xlink">
<path style="fill:#c19553" d="M 5.289062 3 C 4.144531 3 3 4.144531 3 5.289062 L 3 40.777344 C 3 41.855469 4.144531 43 5.222656 43 L 40.777344 43 C 41.855469 43 43 41.855469 43 40.777344 L 43 5.222656 C 43 4.144531 41.855469 3 40.777344 3 Z "/>
<path style="fill:#fff;fill-opacity:.196" d="M 5.289062 3 C 4.144531 3 3 4.144531 3 5.289062 L 3 19 C 7.441406 19 38.558594 19 43 19 L 43 5.222656 C 43 4.144531 41.855469 3 40.777344 3 Z "/>
<path style="fill:#fff" d="M 23 7 L 19 7 L 19 3 L 23 3 L 23 11 L 19 11 L 19 15 L 23 15 L 23 23.03125 L 19 23 L 19 31 L 27 31 L 27 23 L 23 23.03125 L 23 19 L 27 19 L 27 15 L 23 15 L 23 11 L 27 11 L 27 7 Z "/>
<path style="fill:#268bd2;fill-rule:evenodd" d="M 29.183594 16.707031 L 42.933594 27.707031 C 45.691406 30.464844 45.683594 30.457031 42.933594 33.207031 L 29.183594 44.207031 C 27.269531 45.742188 27.269531 45.171875 27.269531 41.378906 C 27.230469 40.003906 27.183594 38.457031 27.269531 36.457031 C 27.238281 36.457031 27.300781 36.457031 27.269531 36.457031 C 13.605469 36.457031 7.183594 27.707031 7.269531 16.621094 C 12.683594 22.207031 19.019531 24.628906 27.269531 24.457031 C 27.269531 22.488281 27.230469 21.785156 27.269531 20.457031 C 27.269531 18.457031 27.269531 15.347656 29.183594 16.707031 Z "/>
</svg>
