<?xml version="1.0" encoding="UTF-8" standalone="no"?>
<svg
   xmlns:dc="http://purl.org/dc/elements/1.1/"
   xmlns:cc="http://creativecommons.org/ns#"
   xmlns:rdf="http://www.w3.org/1999/02/22-rdf-syntax-ns#"
   xmlns:svg="http://www.w3.org/2000/svg"
   xmlns="http://www.w3.org/2000/svg"
   xmlns:sodipodi="http://sodipodi.sourceforge.net/DTD/sodipodi-0.dtd"
   xmlns:inkscape="http://www.inkscape.org/namespaces/inkscape"
   viewBox="0 0 16 16.0123"
   id="svg2237"
   version="1.1"
   inkscape:version="0.91 r"
   sodipodi:docname="document-send-symbolic.svg">
  <metadata
     id="metadata2251">
    <rdf:RDF>
      <cc:Work
         rdf:about="">
        <dc:format>image/svg+xml</dc:format>
        <dc:type
           rdf:resource="http://purl.org/dc/dcmitype/StillImage" />
      </cc:Work>
    </rdf:RDF>
  </metadata>
  <defs
     id="defs2249" />
  <sodipodi:namedview
     pagecolor="#ffffff"
     bordercolor="#666666"
     borderopacity="1"
     objecttolerance="10"
     gridtolerance="10"
     guidetolerance="10"
     inkscape:pageopacity="0"
     inkscape:pageshadow="2"
     inkscape:window-width="640"
     inkscape:window-height="480"
     id="namedview2247" />
  <g
     style="fill:#bebebe"
     transform="matrix(1 0 0 .99837 -62 -738.82201)"
     id="g2239">
    <path
       style="color:#bebebe"
       d="m -15.0625,431 c -0.632499,0.0455 -1.027657,0.72053 -0.9375,1.3125 0.0028,4.24996 0.02115,8.50019 0.03125,12.75 0.05698,0.62486 0.692327,1.02649 1.28125,0.9375 3.252979,-0.003 6.497173,-0.0213 9.75,-0.0312 0.624253,-0.0569 1.026385,-0.69174 0.9375,-1.28125 -0.0044,-3.25599 -0.01605,-6.52564 -0.03125,-9.78125 -0.09405,-0.59835 -0.66512,-0.91374 -1.03125,-1.34375 -0.802576,-0.78917 -1.554622,-1.60576 -2.375,-2.375 -0.49046,-0.30313 -1.110769,-0.1456 -1.65625,-0.1875 l -5.96875,0 z m 5.0625,3.5625 3.71875,3.71875 C -6.09311,438.46942 -6.00003,438.73469 -6,439 l 0,1 -1,0 c -0.2653,0 -0.53058,-0.0931 -0.71875,-0.28125 L -9,438.4375 l 0.03125,5.625 -2.125,0.0625 0.0625,-5.65625 -1.25,1.25 C -12.46943,439.90686 -12.73469,440.00004 -13,440 l -1,0 0,-1 c 0,-0.26528 0.093,-0.53057 0.28125,-0.71875 L -10,434.5625 z"
       transform="matrix(1 0 0 1.00164 80 309.3275)"
       id="path2241" />
  </g>
  <g
     transform="matrix(1 0 0 .99837 0 -.0313)"
     id="g2243">
    <rect
       width="16"
       x="0"
       y=".031"
       height="16"
       style="fill-opacity:0"
       id="rect2245" />
  </g>
</svg>
