<svg version="1.1" viewBox="0 0 16 16" xmlns="http://www.w3.org/2000/svg">
 <g transform="translate(-141 -357)" style="enable-background:new">
  <path transform="translate(109 -508)" d="m43 880h4.02v-1h-2c1.5-0.5 1.78-1.3 1.83-1.79 0.0889-0.806-0.896-1.52-1.9-1.51-0.74 5e-3 -1.31 0.242-1.93 0.804l0.5 1c0.899-0.589 1.84-1.05 1.87-0.304 0.0196 0.536-1.87 0.804-2.38 1.84z" style="enable-background:new;fill:#bfbfbf;font-feature-settings:normal;font-variant-caps:normal;font-variant-ligatures:normal;font-variant-numeric:normal"/>
  <path d="m143 359h6c1.05 0 2 0.99 2 2v6h-6c-2.61 0-2.68-4 0-4h6" style="color:#000000;enable-background:accumulate;fill:none;stroke-width:2;stroke:#bfbfbf"/>
 </g>
</svg>
