<?xml version="1.0" encoding="UTF-8" standalone="no"?>
<svg
   xmlns:dc="http://purl.org/dc/elements/1.1/"
   xmlns:cc="http://creativecommons.org/ns#"
   xmlns:rdf="http://www.w3.org/1999/02/22-rdf-syntax-ns#"
   xmlns:svg="http://www.w3.org/2000/svg"
   xmlns="http://www.w3.org/2000/svg"
   xmlns:sodipodi="http://sodipodi.sourceforge.net/DTD/sodipodi-0.dtd"
   xmlns:inkscape="http://www.inkscape.org/namespaces/inkscape"
   viewBox="0 0 16 16"
   id="svg2044"
   version="1.1"
   inkscape:version="0.91 r"
   sodipodi:docname="format-text-strikethrough-symbolic.svg">
  <metadata
     id="metadata2056">
    <rdf:RDF>
      <cc:Work
         rdf:about="">
        <dc:format>image/svg+xml</dc:format>
        <dc:type
           rdf:resource="http://purl.org/dc/dcmitype/StillImage" />
      </cc:Work>
    </rdf:RDF>
  </metadata>
  <defs
     id="defs2054" />
  <sodipodi:namedview
     pagecolor="#ffffff"
     bordercolor="#666666"
     borderopacity="1"
     objecttolerance="10"
     gridtolerance="10"
     guidetolerance="10"
     inkscape:pageopacity="0"
     inkscape:pageshadow="2"
     inkscape:window-width="640"
     inkscape:window-height="480"
     id="namedview2052" />
  <g
     style="fill:#bebebe;line-height:normal;color:#000"
     transform="translate(-200.0002 -706)"
     id="g2046">
    <path
       d="m 204,709 0,2 6,0 c 0.42816,0 1,0.61414 1,1 l 2,0 c 0,-1.63434 -1.3198,-3 -3,-3 l -6,0 z m -1,7 c 0.006,0.72062 0.26893,1.45271 0.78125,2.03125 C 204.29357,718.60979 205.09172,719 206,719 l 6,0 1,0 0,-1 0,-2 -2,0 0,1 -5,0 c -0.39787,0 -0.56691,-0.10979 -0.71875,-0.28125 C 205.12941,716.54729 205.00248,716.27938 205,716 l -2,0 z"
       id="path2048" />
    <path
       d="m 201,713 0,2 14,0 0,-2 -14,0 z"
       id="path2050" />
  </g>
</svg>
