<?xml version="1.0" encoding="UTF-8" standalone="no"?>
<svg
   xmlns:dc="http://purl.org/dc/elements/1.1/"
   xmlns:cc="http://creativecommons.org/ns#"
   xmlns:rdf="http://www.w3.org/1999/02/22-rdf-syntax-ns#"
   xmlns:svg="http://www.w3.org/2000/svg"
   xmlns="http://www.w3.org/2000/svg"
   xmlns:sodipodi="http://sodipodi.sourceforge.net/DTD/sodipodi-0.dtd"
   xmlns:inkscape="http://www.inkscape.org/namespaces/inkscape"
   viewBox="0 0 16 16"
   width="16"
   height="16"
   id="svg2865"
   version="1.1"
   inkscape:version="0.91 r"
   sodipodi:docname="media-seek-backward-symbolic.svg">
  <metadata
     id="metadata2875">
    <rdf:RDF>
      <cc:Work
         rdf:about="">
        <dc:format>image/svg+xml</dc:format>
        <dc:type
           rdf:resource="http://purl.org/dc/dcmitype/StillImage" />
      </cc:Work>
    </rdf:RDF>
  </metadata>
  <defs
     id="defs2873" />
  <sodipodi:namedview
     pagecolor="#ffffff"
     bordercolor="#666666"
     borderopacity="1"
     objecttolerance="10"
     gridtolerance="10"
     guidetolerance="10"
     inkscape:pageopacity="0"
     inkscape:pageshadow="2"
     inkscape:window-width="640"
     inkscape:window-height="480"
     id="namedview2871" />
  <path
     d="m 13.990991,4 c -0.178982,0.008 -0.354338,0.0592 -0.504504,0.15625 l -5.0450456,3 C 8.1565013,7.33596 8,7.66798 8,8 8,8.33202 8.1565013,8.66404 8.4414414,8.84375 l 5.0450456,3 C 13.636653,11.94075 13.812009,11.992 13.990991,12 L 14.148649,12 15,12 15,4 14.148649,4 z"
     fill="#bebebe"
     color="#000000"
     id="path2867" />
  <path
     d="M 6.990991,4 C 6.8120089,4.008 6.6366533,4.0592 6.4864865,4.15625 l -5.0450455,3 C 1.156501,7.33596 1,7.66798 1,8 1,8.33202 1.156501,8.66404 1.441441,8.84375 l 5.0450455,3 C 6.6366533,11.94075 6.8120089,11.992 6.990991,12 L 7.1486486,12 8,12 8,4 7.1486486,4 z"
     fill="#bebebe"
     color="#000000"
     id="path2869" />
</svg>
