<?xml version="1.0" encoding="UTF-8" standalone="no"?>
<svg
   xmlns:dc="http://purl.org/dc/elements/1.1/"
   xmlns:cc="http://creativecommons.org/ns#"
   xmlns:rdf="http://www.w3.org/1999/02/22-rdf-syntax-ns#"
   xmlns:svg="http://www.w3.org/2000/svg"
   xmlns="http://www.w3.org/2000/svg"
   xmlns:sodipodi="http://sodipodi.sourceforge.net/DTD/sodipodi-0.dtd"
   xmlns:inkscape="http://www.inkscape.org/namespaces/inkscape"
   viewBox="0 0 16 16"
   id="svg2"
   version="1.1"
   inkscape:version="0.48.4 r9939"
   width="100%"
   height="100%"
   sodipodi:docname="media-skip-forward-symbolic.svg">
  <metadata
     id="metadata16">
    <rdf:RDF>
      <cc:Work
         rdf:about="">
        <dc:format>image/svg+xml</dc:format>
        <dc:type
           rdf:resource="http://purl.org/dc/dcmitype/StillImage" />
        <dc:title></dc:title>
      </cc:Work>
    </rdf:RDF>
  </metadata>
  <defs
     id="defs14" />
  <sodipodi:namedview
     pagecolor="#ffffff"
     bordercolor="#666666"
     borderopacity="1"
     objecttolerance="10"
     gridtolerance="10"
     guidetolerance="10"
     inkscape:pageopacity="0"
     inkscape:pageshadow="2"
     inkscape:window-width="1366"
     inkscape:window-height="742"
     id="namedview12"
     showgrid="false"
     inkscape:zoom="14.75"
     inkscape:cx="8.1355932"
     inkscape:cy="8"
     inkscape:window-x="0"
     inkscape:window-y="26"
     inkscape:window-maximized="1"
     inkscape:current-layer="svg2" />
  <path
     style="line-height:normal;color:#000000;fill:#bebebe"
     inkscape:connector-curvature="0"
     id="path6"
     d="m 1.009059,4 c 0.1789821,0.008 0.3543377,0.0592 0.5045045,0.15625 l 5.0450451,3 C 6.8435487,7.33596 7.00005,7.66798 7.00005,8 c 0,0.33202 -0.1565013,0.66404 -0.4414414,0.84375 l -5.0450451,3 C 1.3633967,11.94075 1.1880411,11.992 1.009059,12 L 0.85140135,12 5e-5,12 l 0,-8 0.85135135,0 z" />
  <path
     style="line-height:normal;color:#000000;fill:#bebebe"
     inkscape:connector-curvature="0"
     id="path10"
     d="m 8.009059,4 c 0.1789821,0.008 0.3543377,0.0592 0.5045045,0.15625 l 5.0450455,3 C 13.843549,7.33596 14.00005,7.66798 14.00005,8 c 0,0.33202 -0.156501,0.66404 -0.441441,0.84375 l -5.0450455,3 C 8.3633967,11.94075 8.1880411,11.992 8.009059,12 l -0.1576576,0 -0.8513514,0 0,-8 0.8513514,0 z" />
  <rect
     style="fill:#bebebe;fill-opacity:1;stroke:none"
     id="rect2996"
     width="2"
     height="8"
     x="14"
     y="4"
     rx="0.49166664"
     ry="0.51304346" />
</svg>
