<svg xmlns="http://www.w3.org/2000/svg" viewBox="0 0 16 16">
<g style="fill:#bebebe;color:#bebebe" transform="translate(-261.0002 -747)">
<path style="line-height:normal" d="m 266.6875,749 -0.3125,0.28125 -3.09375,3.0625 -0.28125,0.3125 0,0.40625 0,3.8125 0,0.40625 0.28125,0.3125 3.09375,3.125 0.3125,0.28125 0.40625,0 3.8125,0 0.40625,0 0.3125,-0.28125 3.09375,-3.125 0.28125,-0.3125 0,-0.40625 0,-3.8125 0,-0.40625 -0.28125,-0.3125 -3.09375,-3.0625 -0.3125,-0.28125 -0.40625,0 -3.8125,0 -0.40625,0 z m 0.84375,2 2.96875,0 2.5,2.5 0,2.96875 -2.53125,2.53125 -2.9375,0 L 265,756.46875 265,753.5 267.53125,751 z"/>
<path d="m 267.85645,752 -1.85625,1.83921 0,2.2892 1.85625,1.87159 2.28921,0 1.85454,-1.87159 0,-2.2892 -1.85454,-1.83921 -2.28921,0 z"/>
</g>
</svg>
