<svg xmlns="http://www.w3.org/2000/svg" viewBox="0 0 16 16.0243">
<g style="fill:#bebebe;line-height:normal;color:#000" transform="translate(-100 -685.97574)">
<path d="m 104.84002,687.8125 a 0.99998337,1.0002168 0 0 0 -0.34813,0.13393 c -1.05343,0.60965 -1.93145,1.46598 -2.54405,2.51786 -1.93955,3.33036 -0.81232,7.64928 2.51727,9.58928 3.32959,1.94001 7.64749,0.8125 9.58705,-2.51786 1.93955,-3.33035 0.81232,-7.64927 -2.51727,-9.58928 a 1.0081498,1.0083851 0 1 0 -1.01762,1.74107 c 2.39572,1.39588 3.18978,4.43408 1.79422,6.83036 -1.39555,2.39628 -4.43303,3.19052 -6.82876,1.79464 -2.38544,-1.38989 -3.19179,-4.41207 -1.821,-6.80357 l 0.0268,-0.0268 c 0.43759,-0.75138 1.06851,-1.38594 1.821,-1.82142 a 0.99998337,1.0002168 0 0 0 -0.66949,-1.84822 z"/>
<path d="M 107.78125,686 A 1.0001,1.0001 0 0 0 107,687 l 0,5 a 1.0001,1.0001 0 1 0 2,0 l 0,-5 a 1.0001,1.0001 0 0 0 -1.21875,-1 z"/>
</g>
</svg>
