<?xml version="1.0" encoding="UTF-8" standalone="no"?>
<svg
   xmlns:dc="http://purl.org/dc/elements/1.1/"
   xmlns:cc="http://creativecommons.org/ns#"
   xmlns:rdf="http://www.w3.org/1999/02/22-rdf-syntax-ns#"
   xmlns:svg="http://www.w3.org/2000/svg"
   xmlns="http://www.w3.org/2000/svg"
   xmlns:sodipodi="http://sodipodi.sourceforge.net/DTD/sodipodi-0.dtd"
   xmlns:inkscape="http://www.inkscape.org/namespaces/inkscape"
   viewBox="0 0 16 16"
   id="svg3742"
   version="1.1"
   inkscape:version="0.91 r"
   sodipodi:docname="view-filter-rtl-symbolic.svg">
  <metadata
     id="metadata3750">
    <rdf:RDF>
      <cc:Work
         rdf:about="">
        <dc:format>image/svg+xml</dc:format>
        <dc:type
           rdf:resource="http://purl.org/dc/dcmitype/StillImage" />
        <dc:title />
      </cc:Work>
    </rdf:RDF>
  </metadata>
  <defs
     id="defs3748" />
  <sodipodi:namedview
     pagecolor="#ffffff"
     bordercolor="#666666"
     borderopacity="1"
     objecttolerance="10"
     gridtolerance="10"
     guidetolerance="10"
     inkscape:pageopacity="0"
     inkscape:pageshadow="2"
     inkscape:window-width="1920"
     inkscape:window-height="1056"
     id="namedview3746"
     showgrid="true"
     inkscape:zoom="20.85965"
     inkscape:cx="9.1827501"
     inkscape:cy="8.6061365"
     inkscape:window-x="0"
     inkscape:window-y="24"
     inkscape:window-maximized="1"
     inkscape:current-layer="svg3742">
    <inkscape:grid
       type="xygrid"
       id="grid4133" />
  </sodipodi:namedview>
  <path
     style="color:#bebebe;fill:#bebebe"
     d="M 6,7 6,3 2,3 2,7 6,7 Z M 5,6 3,6 3,4 5,4 5,6 Z m 1,7 0,-4 -4,0 0,4 4,0 z m -1,-1 -2,0 0,-2 2,0 0,2 z m 6,-5 0,-1 4,0 0,1 z m 0,-3 0,-1 4,0 0,1 z m 0,6 0,-1 4,0 0,1 z m 0,3 0,-1 4,0 0,1 z M 9,14 8,14 8,2 9,2 Z"
     id="path3744"
     inkscape:connector-curvature="0" />
</svg>
