<?xml version="1.0" encoding="UTF-8" standalone="no"?>
<svg
   xmlns:dc="http://purl.org/dc/elements/1.1/"
   xmlns:cc="http://creativecommons.org/ns#"
   xmlns:rdf="http://www.w3.org/1999/02/22-rdf-syntax-ns#"
   xmlns:svg="http://www.w3.org/2000/svg"
   xmlns="http://www.w3.org/2000/svg"
   xmlns:sodipodi="http://sodipodi.sourceforge.net/DTD/sodipodi-0.dtd"
   xmlns:inkscape="http://www.inkscape.org/namespaces/inkscape"
   viewBox="0 0 16.0002 16.0001"
   id="svg3784"
   version="1.1"
   inkscape:version="0.91 r"
   sodipodi:docname="view-paged-symbolic.svg">
  <metadata
     id="metadata3802">
    <rdf:RDF>
      <cc:Work
         rdf:about="">
        <dc:format>image/svg+xml</dc:format>
        <dc:type
           rdf:resource="http://purl.org/dc/dcmitype/StillImage" />
      </cc:Work>
    </rdf:RDF>
  </metadata>
  <defs
     id="defs3800" />
  <sodipodi:namedview
     pagecolor="#ffffff"
     bordercolor="#666666"
     borderopacity="1"
     objecttolerance="10"
     gridtolerance="10"
     guidetolerance="10"
     inkscape:pageopacity="0"
     inkscape:pageshadow="2"
     inkscape:window-width="640"
     inkscape:window-height="480"
     id="namedview3798" />
  <g
     style="fill:#bebebe;color:#bebebe"
     transform="translate(-161 -866.99988)"
     id="g3786">
    <g
       style="line-height:normal"
       id="g3788">
      <path
         d="m 162,867 0,1 0,11 0,1 1,0 10,0 1,0 0,-1 0,-11 0,-1 -1,0 -10,0 -1,0 z m 2,2 8,0 0,9 -8,0 0,-9 z"
         id="path3790" />
      <path
         d="m 175.0002,869.99988 0,11 -10,0 0,2 12,0 0,-13 z"
         id="path3792" />
    </g>
    <rect
       width="4"
       x="-170"
       y="871"
       rx=".375"
       height="2"
       style="opacity:.35"
       transform="scale(-1 1)"
       id="rect3794" />
    <rect
       width="4"
       x="-170"
       y="874"
       rx=".375"
       height="2"
       style="opacity:.35"
       transform="scale(-1 1)"
       id="rect3796" />
  </g>
</svg>
