<svg width="16.25" xmlns="http://www.w3.org/2000/svg" height="16.25" viewBox="0 0 13 13">
<g style="opacity:.5">
<g style="stroke:#9c7a5e">
<g style="stroke-width:.806" transform="matrix(.99765 0 0 .98767 .22908 -.27221)">
<path style="fill:#9c7a5e" d="M 0.84765407,6.7851495 C 0.73437297,6.7734309 0.64062324,6.6640559 0.64062324,6.5429623 l 0,-4.601559 c 0,-0.1249999 0.10937469,-0.2421871 0.23046859,-0.2421871 l 5.66796407,0 c 0.1210939,0 0.2304686,0.1171872 0.2304686,0.2421871 l 0,4.1757782 c 0,0.1249999 -0.1093747,0.2421871 -0.2304686,0.2421871 l -2.2109355,0 0,0.1835937 c 0,0.1289061 -0.1093751,0.2421872 -0.2304686,0.2421872 l -3.22655997,0 c -0.007813,0.00391 -0.0156253,0.00391 -0.0234378,0 z"/>
</g>
<path style="fill:#b08c6b;stroke-width:.8" d="M 0.63437276,2.0002073 C 0.5018723,2.011782 0.38885732,2.1198083 0.38885732,2.2394089 l 0,4.5409711 c 0,0.1273169 0.12860324,0.2430597 0.26889782,0.2430597 l 6.66788826,0 c 0.1402942,0 0.2688978,-0.1157428 0.2688978,-0.2430597 l 0,-4.1204394 c 0,-0.1234589 -0.1286036,-0.2392013 -0.2688978,-0.2392013 l -2.6032435,0 0,-0.1813304 c 0,-0.1273168 -0.1286033,-0.2392016 -0.2727947,-0.2392016 l -3.79185006,0 c -0.007794,-0.00386 -0.0155883,-0.00386 -0.0233823,0 z"/>
</g>
</g>
<g style="stroke:#9c7a5e">
<g style="stroke-width:.806" transform="matrix(.99765 0 0 .98767 5.05408 4.52271)">
<path style="fill:#9c7a5e" d="M 0.84765407,6.7851495 C 0.73437297,6.7734309 0.64062324,6.6640559 0.64062324,6.5429623 l 0,-4.601559 c 0,-0.1249999 0.10937469,-0.2421871 0.23046859,-0.2421871 l 5.66796407,0 c 0.1210939,0 0.2304686,0.1171872 0.2304686,0.2421871 l 0,4.1757782 c 0,0.1249999 -0.1093747,0.2421871 -0.2304686,0.2421871 l -2.2109355,0 0,0.1835937 c 0,0.1289061 -0.1093751,0.2421872 -0.2304686,0.2421872 l -3.22655997,0 c -0.007813,0.00391 -0.0156253,0.00391 -0.0234378,0 z"/>
</g>
<g>
<path style="fill:#e0b288;stroke-width:.8" d="M 5.4593728,6.7951223 C 5.3268723,6.806697 5.2138573,6.9147233 5.2138573,7.0343239 l 0,4.5409711 c 0,0.127317 0.1286033,0.24306 0.2688978,0.24306 l 6.6678879,0 c 0.140295,0 0.268898,-0.115743 0.268898,-0.24306 l 0,-4.1204394 c 0,-0.1234589 -0.128603,-0.2392013 -0.268898,-0.2392013 l -2.6032431,0 0,-0.1813304 c 0,-0.1273168 -0.1286033,-0.2392016 -0.2727947,-0.2392016 l -3.7918501,0 c -0.00779,-0.00386 -0.015588,-0.00386 -0.023382,0 z"/>
</g>
</g>
</svg>
