<svg width="16.25" xmlns="http://www.w3.org/2000/svg" height="16.25" viewBox="0 0 13 13">
<path style="fill:#f7941e" d="m 6.3999962,0.99999651 c -0.017305,0 -0.030283,0.004243 -0.047586,0.008508 -0.056239,0.00424 -0.1081522,0.021257 -0.1600654,0.046769 0,0 -0.00433,0.00424 -0.00865,0.00851 C 6.0409309,1.1190436 5.9544089,1.2040772 5.8851915,1.2848593 5.7856915,1.3996549 5.6948434,1.5314572 5.6039957,1.6802663 5.4179739,1.9821357 5.2276258,2.3647875 5.032952,2.7474393 4.8382777,3.1343428 4.6436039,3.5212461 4.4878646,3.8188644 c -0.07787,0.1488088 -0.1514133,0.272108 -0.2076525,0.3571415 -0.012978,0.02551 -0.030282,0.038265 -0.043261,0.055272 -0.02163,0.00851 -0.038935,0.012755 -0.069217,0.02126 -0.099499,0.021257 -0.2422609,0.055271 -0.4109785,0.080782 C 3.41932,4.3885899 2.9823848,4.4353601 2.549776,4.4991344 2.112841,4.5629094 1.688884,4.6351883 1.3384709,4.7117188 1.1654272,4.7499838 1.009688,4.7839978 0.87125317,4.8392693 c -0.073544,0.029762 -0.1427611,0.059524 -0.2163045,0.1105439 -0.073543,0.05102 -0.1730436,0.1232989 -0.2249566,0.284863 -0.056239,0.1658156 -0.021631,0.2848629 0.00865,0.3698968 0.030282,0.085034 0.064891,0.148809 0.1038267,0.2125843 0.07787,0.1232988 0.1816958,0.2465976 0.2985002,0.3784001 0.23793473,0.2636044 0.54941353,0.5654742 0.86089183,0.8630921 0.3158046,0.3018699 0.6316093,0.5909844 0.8738702,0.8290788 0.1211304,0.1190472 0.2249566,0.2295911 0.289848,0.3061215 0.02163,0.021258 0.025956,0.034013 0.038935,0.055272 0,0.021258 0,0.038265 0,0.063776 -0.00865,0.097789 -0.02163,0.2380942 -0.047586,0.40391 C 2.805013,9.0484386 2.722817,9.4736073 2.6492731,9.8987759 2.5757301,10.319692 2.5065124,10.744862 2.4719036,11.093501 c -0.017305,0.174318 -0.030282,0.323127 -0.017305,0.471937 0.00433,0.07227 0.017305,0.153061 0.047586,0.238094 0.025956,0.08503 0.064891,0.195578 0.203326,0.297618 0.1427612,0.0978 0.2682177,0.102039 0.3590656,0.0978 0.086522,0 0.1600654,-0.0085 0.2336088,-0.02551 0.147087,-0.03826 0.294174,-0.09778 0.4585655,-0.165815 0.3287828,-0.140306 0.7267831,-0.32738 1.1161312,-0.52721 0.3893481,-0.199828 0.770044,-0.408161 1.0771962,-0.561222 0.1514133,-0.07654 0.289848,-0.136053 0.3850221,-0.174318 0.025956,-0.01275 0.043261,-0.01275 0.064891,-0.017 0.02163,0.0042 0.038935,0.0042 0.064891,0.017 0.095175,0.03826 0.2336086,0.09778 0.385022,0.174318 0.3071522,0.153061 0.6878481,0.361394 1.0771962,0.561222 0.3893481,0.19983 0.7873484,0.386904 1.1161313,0.52721 0.1643914,0.06803 0.3114788,0.12755 0.4585658,0.165815 0.07354,0.01702 0.147087,0.02551 0.233608,0.02551 0.09085,0.0042 0.2163044,0 0.3590657,-0.0978 0.138435,-0.102038 0.17737,-0.212584 0.203326,-0.297618 0.03028,-0.08503 0.04325,-0.165816 0.04759,-0.238094 0.01298,-0.14881 0,-0.297619 -0.01731,-0.471937 -0.03461,-0.348639 -0.103822,-0.773809 -0.177366,-1.1947251 -0.07354,-0.425169 -0.1557353,-0.8503377 -0.2076473,-1.1819693 -0.02596,-0.1658158 -0.03894,-0.3061212 -0.04759,-0.40391 0,-0.02551 0,-0.042517 0,-0.063775 0.01298,-0.02126 0.0173,-0.034015 0.03893,-0.055272 0.06489,-0.076529 0.1687183,-0.1870738 0.2898493,-0.306121 0.242261,-0.2380944 0.558065,-0.5272089 0.87387,-0.8290788 0.311479,-0.2976179 0.622956,-0.5994877 0.860892,-0.8630921 0.116804,-0.1318025 0.22063,-0.2551013 0.298499,-0.3784001 0.03894,-0.063777 0.07355,-0.1275505 0.103832,-0.2125843 0.03028,-0.085034 0.06489,-0.2040812 0.0087,-0.3698969 C 12.318079,5.0731116 12.218573,5.0008331 12.14503,4.9498128 12.071492,4.8987921 12.00227,4.8690304 11.928726,4.8392688 11.790291,4.7839969 11.634552,4.7499839 11.461507,4.7117183 11.111108,4.635188 10.68715,4.5629094 10.250216,4.499134 9.817607,4.4353588 9.380672,4.3885902 9.043237,4.3333183 8.8745194,4.3078084 8.7317584,4.2737947 8.6322586,4.2525364 8.6063018,4.2440328 8.5846715,4.2397811 8.5630408,4.2312779 8.5500627,4.2142712 8.5327584,4.2015162 8.5197802,4.1760059 8.4635411,4.0909724 8.3899974,3.9676732 8.3121278,3.8188644 8.1563885,3.5212461 7.9617147,3.1343428 7.7670404,2.7474393 7.5723666,2.3647875 7.3820184,1.9821357 7.1959967,1.6802663 7.1051489,1.5314572 7.014301,1.3996549 6.9148009,1.2848593 6.8196268,1.1700638 6.7460833,0.99999651 6.3999962,0.99999651 z"/>
</svg>
