<svg xmlns="http://www.w3.org/2000/svg" viewBox="0 0 16.0002 16" style="enable-background:new">
 <g transform="translate(-479.9998 -222)" style="fill:#bebebe">
  <path d="m 480 224.01 0 2 1 0 0 -1.5 c 0 -0.507 0.5 -0.507 0.5 -0.507 l 1.5 0.007 0 -1 -2 0 c 0 0 -1 0 -1 1 z m 13 -1 0 1 1.5 0 c 0 0 0.5 -0.007 0.5 0.5 l 0 1.5 1 0 0 -2 c 0 -1 -1 -1 -1 -1 z m -13 11 0 2 c 0 1 1 1 1 1 l 2 0 0 -1 -1.5 0.007 c -0.5 -0.007 -0.5 -0.5 -0.5 -0.5 l 0 -1.507 z m 15 0 0 1.5 c 0 0.493 -0.5 0.5 -0.5 0.5 l -1.5 0 0 1 2 0 c 0 0 1 0 1 -1 l 0 -2 z" style="color:#000;fill-rule:evenodd"/>
  <path d="m 483 227 0 4 c 0 1 1 1 1 1 l 3 0 c 1 0 1 -1 1 -1 l 0 -3 -2 -2 -2 0 c 0 0 -1 0 -1 1 z m 1 0 2 0 0 1 1 0 0 3 -3 0 z"/>
 </g>
</svg>
