<svg width="16" xmlns="http://www.w3.org/2000/svg" viewBox="0 0 16 16" height="16">
<g style="fill:#e0b389" transform="translate(0 -1036.3622)">
<path style="line-height:normal;color:#000" d="m 1,1036.3622 c 0,0 -1,0.038 -1,1 l 0,2 2,0 0,-1 1,0 0,-2 -1.90625,0 -0.09375,0 z m 3,0 0,2 2,0 0,-2 -2,0 z m 3,0 0,2 2,0 0,-2 -2,0 z m 3,0 0,2 2,0 0,-2 -2,0 z m 3,0 0,2 1,0 0,1 2,0 0,-2 c 0,-1 -1,-1 -1,-1 l -2,0 z m -13,4 0,2 2,0 0,-2 -2,0 z m 14,0 0,2 2,0 0,-2 -2,0 z m -14,3 0,2 2,0 0,-2 -2,0 z m 14,0 0,2 2,0 0,-2 -2,0 z m -14,3 0,2 2,0 0,-2 -2,0 z m 14,0 0,2 2,0 0,-2 -2,0 z m -14,3 0,2 c 0,1 1,1 1,1 l 2,0 0,-2 -1,0 0,-1 -2,0 z m 14,0 0,1 -1,0 0,2 2,0 c 0,0 1,0 1,-1 l 0,-2 -2,0 z m -10,1 0,2 2,0 0,-2 -2,0 z m 3,0 0,2 2,0 0,-2 -2,0 z m 3,0 0,2 2,0 0,-2 -2,0 z"/>
</g>
</svg>
