<svg width="16.25" xmlns="http://www.w3.org/2000/svg" height="16.25" viewBox="0 0 13 13">
<g style="stroke:#9c7a5f;stroke-width:.8">
<path style="fill:#9c7a5f" d="M 1.566387,10.288936 C 1.3749831,10.269405 1.2148288,10.078001 1.2148288,9.8787848 l 0,-7.7694356 c 0,-0.2148414 0.1874978,-0.4101515 0.3906203,-0.4101515 l 9.5701949,0 c 0.203122,0 0.386714,0.1953101 0.386714,0.4101515 l 0,7.046788 c 0,0.2148413 -0.183592,0.4101512 -0.386714,0.4101512 l -3.7382357,0 0,0.3124964 c 0,0.2148412 -0.1835913,0.4101512 -0.3867138,0.4101512 l -5.4452454,0 c -0.015625,0 -0.027343,0 -0.039062,0 z"/>
<path style="fill:#dfb188" d="M 0.81639618,2.7148102 C 0.59374278,2.7343414 0.40233882,2.9218392 0.406245,3.1249617 l 0,7.7616233 c 0,0.214841 0.21484104,0.410151 0.45702563,0.410151 l 11.27329837,0 c 0.242185,0 0.457026,-0.19531 0.457026,-0.410151 l 0,-7.0428822 c 0,-0.2148413 -0.214841,-0.4101512 -0.457026,-0.4101512 l -4.4022893,0 0,-0.3085899 c 0,-0.2148414 -0.2187472,-0.4101515 -0.4570256,-0.4101515 l -6.41398347,0 c -0.0156247,0 -0.0312497,0 -0.0468745,0 z"/>
</g>
<path style="fill:#9c7a5f" d="M 4.605469 5.144531 L 4.605469 6.5 L 5.957031 6.5 L 5.492188 6.035156 C 5.769531 5.816406 6.121094 5.6875 6.5 5.6875 C 7.398438 5.6875 8.125 6.414062 8.125 7.3125 C 8.125 8.210938 7.398438 8.9375 6.5 8.9375 C 5.601562 8.9375 4.875 8.210938 4.875 7.3125 C 4.875 7.121094 4.910156 6.941406 4.96875 6.769531 L 4.402344 6.769531 C 4.355469 6.945312 4.332031 7.125 4.332031 7.3125 C 4.332031 8.507812 5.304688 9.480469 6.5 9.480469 C 7.695312 9.480469 8.667969 8.507812 8.667969 7.3125 C 8.667969 6.117188 7.695312 5.144531 6.5 5.144531 C 5.96875 5.144531 5.480469 5.328125 5.101562 5.644531 Z M 6.476562 5.949219 C 6.464844 5.953125 6.453125 5.953125 6.441406 5.957031 C 6.316406 5.988281 6.226562 6.101562 6.230469 6.230469 L 6.230469 7.226562 C 6.230469 7.234375 6.230469 7.246094 6.230469 7.253906 C 6.214844 7.324219 6.226562 7.394531 6.261719 7.457031 C 6.265625 7.460938 6.269531 7.460938 6.273438 7.464844 C 6.273438 7.46875 6.277344 7.476562 6.28125 7.480469 C 6.28125 7.484375 6.285156 7.488281 6.289062 7.492188 C 6.292969 7.492188 6.292969 7.496094 6.296875 7.5 C 6.300781 7.5 6.300781 7.503906 6.304688 7.507812 C 6.308594 7.511719 6.3125 7.511719 6.3125 7.515625 C 6.320312 7.519531 6.324219 7.519531 6.332031 7.523438 C 6.332031 7.527344 6.335938 7.53125 6.339844 7.53125 C 6.34375 7.535156 6.34375 7.539062 6.347656 7.539062 C 6.351562 7.542969 6.359375 7.546875 6.363281 7.550781 C 6.375 7.554688 6.386719 7.5625 6.398438 7.566406 L 7.066406 7.957031 C 7.199219 8.03125 7.363281 7.984375 7.4375 7.855469 C 7.515625 7.722656 7.46875 7.554688 7.335938 7.480469 L 6.769531 7.152344 L 6.769531 6.230469 C 6.773438 6.152344 6.742188 6.074219 6.6875 6.023438 C 6.628906 5.96875 6.550781 5.941406 6.476562 5.949219 Z "/>
</svg>
