<svg width="16.25" xmlns="http://www.w3.org/2000/svg" height="16.25" viewBox="0 0 13 13">
<g style="stroke:#9c7a5f;stroke-width:.8">
<path style="fill:#9c7a5f" d="M 1.566387,10.288936 C 1.3749831,10.269405 1.2148288,10.078001 1.2148288,9.8787848 l 0,-7.7694356 c 0,-0.2148414 0.1874978,-0.4101515 0.3906203,-0.4101515 l 9.5701949,0 c 0.203122,0 0.386714,0.1953101 0.386714,0.4101515 l 0,7.046788 c 0,0.2148413 -0.183592,0.4101512 -0.386714,0.4101512 l -3.7382357,0 0,0.3124964 c 0,0.2148412 -0.1835913,0.4101512 -0.3867138,0.4101512 l -5.4452454,0 c -0.015625,0 -0.027343,0 -0.039062,0 z"/>
<path style="fill:#dfb188" d="M 0.81639618,2.7148102 C 0.59374278,2.7343414 0.40233882,2.9218392 0.406245,3.1249617 l 0,7.7616233 c 0,0.214841 0.21484104,0.410151 0.45702563,0.410151 l 11.27329837,0 c 0.242185,0 0.457026,-0.19531 0.457026,-0.410151 l 0,-7.0428822 c 0,-0.2148413 -0.214841,-0.4101512 -0.457026,-0.4101512 l -4.4022893,0 0,-0.3085899 c 0,-0.2148414 -0.2187472,-0.4101515 -0.4570256,-0.4101515 l -6.41398347,0 c -0.0156247,0 -0.0312497,0 -0.0468745,0 z"/>
</g>
<path style="fill:#9c7a5f" d="M 9.0473201,4.8512374 C 8.1828457,3.9867626 6.782395,3.9925254 5.9179202,4.8627645 5.1802344,5.5946874 5.0707338,6.7185045 5.5836556,7.5656909 L 3.4512833,9.7038275 c -0.2017113,0.195947 -0.2017113,0.5186845 0,0.7146335 l 0.028816,0.03458 c 0.2017114,0.195948 0.5186861,0.195948 0.7203959,0 L 6.3328685,8.3149038 c 0.8529492,0.5186846 1.9825305,0.409184 2.7144516,-0.3227375 0.87024,-0.8644763 0.87024,-2.2706898 0,-3.1351646 z M 8.5632157,5.3411065 c 0.5936054,0.5936069 0.5936054,1.5675823 0,2.1611892 -0.5936069,0.5878441 -1.5445311,0.5878441 -2.1439008,0.011527 l -0.011526,-0.01729 c -0.00576,-0.00576 -0.011526,-0.011526 -0.01729,-0.01729 C 5.8084196,6.8856376 5.8141824,5.9347134 6.4077893,5.3468708 7.0013962,4.7532639 7.9696088,4.7475011 8.5632157,5.3411065 z"/>
</svg>
