<svg width="16.25" xmlns="http://www.w3.org/2000/svg" height="16.25" viewBox="0 0 13 13">
<g style="stroke:#9c7a5f;stroke-width:.8">
<path style="fill:#9c7a5f" d="M 1.566387,10.288936 C 1.3749831,10.269405 1.2148288,10.078001 1.2148288,9.8787848 l 0,-7.7694356 c 0,-0.2148414 0.1874978,-0.4101515 0.3906203,-0.4101515 l 9.5701949,0 c 0.203122,0 0.386714,0.1953101 0.386714,0.4101515 l 0,7.046788 c 0,0.2148413 -0.183592,0.4101512 -0.386714,0.4101512 l -3.7382357,0 0,0.3124964 c 0,0.2148412 -0.1835913,0.4101512 -0.3867138,0.4101512 l -5.4452454,0 c -0.015625,0 -0.027343,0 -0.039062,0 z"/>
<path style="fill:#dfb188" d="M 0.81639618,2.7148102 C 0.59374278,2.7343414 0.40233882,2.9218392 0.406245,3.1249617 l 0,7.7616233 c 0,0.214841 0.21484104,0.410151 0.45702563,0.410151 l 11.27329837,0 c 0.242185,0 0.457026,-0.19531 0.457026,-0.410151 l 0,-7.0428822 c 0,-0.2148413 -0.214841,-0.4101512 -0.457026,-0.4101512 l -4.4022893,0 0,-0.3085899 c 0,-0.2148414 -0.2187472,-0.4101515 -0.4570256,-0.4101515 l -6.41398347,0 c -0.0156247,0 -0.0312497,0 -0.0468745,0 z"/>
</g>
<path style="fill:#9c7a5f" d="M 6.824219 5.195312 C 6.511719 5.273438 6.246094 5.5625 6.246094 5.5625 L 6.253906 5.574219 L 6.757812 7.449219 C 6.398438 7.253906 5.882812 7.304688 5.453125 7.613281 C 4.902344 8.011719 4.710938 8.691406 5.03125 9.128906 C 5.347656 9.566406 6.054688 9.597656 6.605469 9.199219 C 7.042969 8.882812 7.285156 8.390625 7.195312 7.980469 C 7.191406 7.96875 7.1875 7.957031 7.1875 7.945312 L 6.699219 6.066406 C 6.710938 6.050781 6.855469 5.988281 7.3125 5.957031 C 7.796875 5.921875 8.125 5.144531 8.125 5.144531 C 8.125 5.144531 7.578125 5.355469 7.152344 5.203125 C 7.042969 5.164062 6.929688 5.167969 6.824219 5.195312 Z "/>
</svg>
