<svg width="16.25" xmlns="http://www.w3.org/2000/svg" height="16.25" viewBox="0 0 13 13">
<g style="stroke:#9c7a5f;stroke-width:.8">
<path style="fill:#9c7a5f" d="M 1.566387,10.288936 C 1.3749831,10.269405 1.2148288,10.078001 1.2148288,9.8787848 l 0,-7.7694356 c 0,-0.2148414 0.1874978,-0.4101515 0.3906203,-0.4101515 l 9.5701949,0 c 0.203122,0 0.386714,0.1953101 0.386714,0.4101515 l 0,7.046788 c 0,0.2148413 -0.183592,0.4101512 -0.386714,0.4101512 l -3.7382357,0 0,0.3124964 c 0,0.2148412 -0.1835913,0.4101512 -0.3867138,0.4101512 l -5.4452454,0 c -0.015625,0 -0.027343,0 -0.039062,0 z"/>
<path style="fill:#dfb188" d="M 0.81639618,2.7148102 C 0.59374278,2.7343414 0.40233882,2.9218392 0.406245,3.1249617 l 0,7.7616233 c 0,0.214841 0.21484104,0.410151 0.45702563,0.410151 l 11.27329837,0 c 0.242185,0 0.457026,-0.19531 0.457026,-0.410151 l 0,-7.0428822 c 0,-0.2148413 -0.214841,-0.4101512 -0.457026,-0.4101512 l -4.4022893,0 0,-0.3085899 c 0,-0.2148414 -0.2187472,-0.4101515 -0.4570256,-0.4101515 l -6.41398347,0 c -0.0156247,0 -0.0312497,0 -0.0468745,0 z"/>
</g>
<path style="fill:#9c7a5f" d="M 3.7036043,4.2 C 3.7036043,4.2 3.3,4.217298 3.3,4.6036043 l 0,0.7956748 0.8014417,0 0,-0.3978374 0.3978374,0 0,-0.8014417 z m 1.1992791,0 0,0.8014417 0.7956749,0 0,-0.8014417 z m 1.1992792,0 0,0.8014417 0.7956748,0 0,-0.8014417 z m 1.1992791,0 0,0.8014417 0.7956749,0 0,-0.8014417 z m 1.1992792,0 0,0.8014417 0.3978374,0 0,0.3978374 0.8014417,0 0,-0.7956748 C 9.7,4.2 9.296396,4.2 9.296396,4.2 z M 3.3,5.8028834 l 0,0.7956749 0.8014417,0 0,-0.7956749 z m 5.5985583,0 0,0.7956749 0.8014417,0 0,-0.7956749 z M 3.3,7.0021626 l 0,0.7956748 0.8014417,0 0,-0.7956748 z m 5.5985583,0 0,0.7956748 0.8014417,0 0,-0.7956748 z M 3.3,8.2014417 l 0,0.7956749 0.8014417,0 0,-0.7956749 z m 5.5985583,0 0,0.7956749 0.8014417,0 0,-0.7956749 z M 3.3,9.4007209 3.3,10.196396 C 3.3,10.6 3.7036043,10.6 3.7036043,10.6 l 0.7956748,0 0,-0.8014417 -0.3978374,0 0,-0.3978374 z m 5.5985583,0 0,0.3978374 -0.3978374,0 0,0.8014417 0.7956751,0 c 0,0 0.403604,0 0.403604,-0.403604 l 0,-0.7956751 z m -3.9956749,0.3978374 0,0.8014417 0.7956749,0 0,-0.8014417 z m 1.1992792,0 0,0.8014417 0.7956748,0 0,-0.8014417 z m 1.1992791,0 0,0.8014417 0.7956749,0 0,-0.8014417 z"/>
</svg>
