<svg width="16.25" xmlns="http://www.w3.org/2000/svg" height="16.25" viewBox="0 0 13 13">
<g style="stroke:#9c7a5f;stroke-width:.8">
<path style="fill:#9c7a5f" d="M 1.566387,10.288936 C 1.3749831,10.269405 1.2148288,10.078001 1.2148288,9.8787848 l 0,-7.7694356 c 0,-0.2148414 0.1874978,-0.4101515 0.3906203,-0.4101515 l 9.5701949,0 c 0.203122,0 0.386714,0.1953101 0.386714,0.4101515 l 0,7.046788 c 0,0.2148413 -0.183592,0.4101512 -0.386714,0.4101512 l -3.7382357,0 0,0.3124964 c 0,0.2148412 -0.1835913,0.4101512 -0.3867138,0.4101512 l -5.4452454,0 c -0.015625,0 -0.027343,0 -0.039062,0 z"/>
<path style="fill:#dfb188" d="M 0.81639618,2.7148102 C 0.59374278,2.7343414 0.40233882,2.9218392 0.406245,3.1249617 l 0,7.7616233 c 0,0.214841 0.21484104,0.410151 0.45702563,0.410151 l 11.27329837,0 c 0.242185,0 0.457026,-0.19531 0.457026,-0.410151 l 0,-7.0428822 c 0,-0.2148413 -0.214841,-0.4101512 -0.457026,-0.4101512 l -4.4022893,0 0,-0.3085899 c 0,-0.2148414 -0.2187472,-0.4101515 -0.4570256,-0.4101515 l -6.41398347,0 c -0.0156247,0 -0.0312497,0 -0.0468745,0 z"/>
</g>
<path style="fill:#9c7a5f" d="m 3.9706453,6.8086947 c -0.3294531,0 -0.6004558,0.2656892 -0.6004558,0.5898289 0,0.3294545 0.2710027,0.5951424 0.6004558,0.5951424 0.3347679,0 0.6004557,-0.2656879 0.6004557,-0.5951424 0,-0.3241397 -0.2656878,-0.5898289 -0.6004557,-0.5898289 z M 8.2535439,9.4974635 C 7.966601,9.6621893 7.8709524,10.023527 8.0356797,10.305156 8.2004069,10.586786 8.5670568,10.682433 8.8540011,10.523021 9.140944,10.358293 9.2419065,9.996957 9.0771788,9.7153277 8.9071381,9.4336982 8.5404883,9.3327362 8.2535439,9.4974635 z M 5.2725188,7.3985236 c 0,-0.5845155 0.2975712,-1.0999509 0.7492427,-1.4134624 L 5.5807182,5.2623884 C 5.0546545,5.6077832 4.6667496,6.1391602 4.5020224,6.7555577 c 0.1912957,0.154099 0.3135128,0.3825915 0.3135128,0.6429659 0,0.2603744 -0.1222171,0.4941804 -0.3135128,0.6482794 0.1647272,0.6163988 0.5526321,1.1477745 1.0786958,1.4931706 L 6.0217615,8.811986 C 5.57009,8.503788 5.2725188,7.9830391 5.2725188,7.3985236 z M 7.0260639,5.6715484 c 0.919282,0 1.6685234,0.6961043 1.7482303,1.5781896 L 9.6298105,7.2337964 C 9.5873005,6.585517 9.2950445,6.0010015 8.8540011,5.5705864 8.6255086,5.6556068 8.3598207,5.6396651 8.1366417,5.5121346 7.9081492,5.3792907 7.7646784,5.1614264 7.7221682,4.922307 7.5043026,4.8638552 7.2704967,4.8319719 7.0260639,4.8319719 c -0.4144748,0 -0.8076932,0.095649 -1.1530893,0.2656892 L 6.2874494,5.8362743 C 6.5159419,5.7300002 6.7656881,5.6715484 7.0260639,5.6715484 z m 0,3.4592652 c -0.2603758,0 -0.510122,-0.058452 -0.7386145,-0.1647272 L 5.8729746,9.7046995 c 0.3453961,0.1700404 0.7386145,0.265689 1.1530893,0.265689 0.2444328,0 0.4782387,-0.031886 0.6961043,-0.095645 C 7.7646784,9.6409356 7.9081492,9.4177566 8.1366417,9.2902261 8.3598207,9.1626956 8.6255086,9.1467539 8.8540011,9.2317742 9.2950445,8.8013591 9.5873005,8.2168437 9.6298105,7.5685643 L 8.7742942,7.5526226 c -0.079707,0.8820867 -0.8289483,1.578191 -1.7482303,1.578191 z m 1.22748,-3.825915 C 8.5404883,5.4696244 8.9071381,5.3686624 9.0718653,5.0870329 9.2419065,4.8054034 9.140944,4.444067 8.8540011,4.2793397 8.5670568,4.1146139 8.2004069,4.2155745 8.0356797,4.4972054 7.8709524,4.7788349 7.966601,5.1401713 8.2535439,5.3048986 z"/>
</svg>
