<svg width="16" xmlns="http://www.w3.org/2000/svg" viewBox="0 0 16 16" height="16">
<path style="fill:#e0b289" d="m 1.7530661,6.5385162 c -0.81895886,0 -1.48255468,0.6542743 -1.48255468,1.4617272 0,0.8071444 0.66359582,1.4614958 1.48255468,1.4614958 0.8186438,0 1.4823188,-0.6543514 1.4823188,-1.4614958 0,-0.8075303 -0.6635967,-1.4617272 -1.4823188,-1.4617272 z M 12.338252,13.181833 c -0.709116,0.40361 -0.951834,1.297193 -0.542629,1.996038 0.40944,0.699155 1.315675,0.938617 2.024791,0.535006 0.708882,-0.403533 0.951756,-1.297116 0.542394,-1.996193 -0.409282,-0.698845 -1.315675,-0.938385 -2.024556,-0.534851 z M 4.9732724,8.0000113 c 0,-1.4445782 0.7280757,-2.7205285 1.8414601,-3.4931443 L 5.7308843,2.716844 C 4.433462,3.5714949 3.468388,4.8780348 3.0674881,6.408279 3.535766,6.7846221 3.8349725,7.3577109 3.8349725,8.0001661 c 0,0.6423013 -0.2992065,1.2153901 -0.7675636,1.5916561 C 3.4682305,11.12222 4.4333837,12.42876 5.730806,13.283334 L 6.8147325,11.493156 C 5.7013481,10.720695 4.9732724,9.4448222 4.9732724,8.0000113 z M 9.3038839,3.7302349 c 2.2624181,0 4.1182161,1.710306 4.3127511,3.891117 l 2.112854,-0.030438 C 15.625522,5.9807965 14.912176,4.5349045 13.815871,3.4722307 13.252245,3.6821857 12.601105,3.6503596 12.038341,3.3299432 11.474872,3.0092173 11.121293,2.468186 11.024456,1.8810384 10.476656,1.7315672 9.9001018,1.650073 9.3039632,1.650073 c -1.0252455,0 -1.9938449,0.2372997 -2.8542492,0.6575183 L 7.4796594,4.1275092 C 8.0341195,3.8731379 8.6519606,3.7302322 9.3038839,3.7302322 z m 0,8.5396311 c -0.6520007,0 -1.2697644,-0.142906 -1.8243019,-0.397277 L 6.44948,13.692661 c 0.8604808,0.420064 1.8291594,0.657441 2.8544039,0.657441 0.5961405,0 1.1726931,-0.0815 1.7205721,-0.230965 0.09684,-0.587148 0.450493,-1.128179 1.014042,-1.449137 0.562764,-0.320262 1.213903,-0.352088 1.777529,-0.142056 1.096226,-1.062751 1.809574,-2.508643 1.913383,-4.1187601 L 13.616557,8.3787462 C 13.422179,10.559866 11.566302,12.269863 9.3038839,12.269863 z M 12.338018,2.8181131 c 0.709036,0.4037652 1.61543,0.1642257 2.024634,-0.5346197 0.409439,-0.699154 0.166721,-1.59273745 -0.542395,-1.99642525 -0.708959,-0.40353299 -1.615273,-0.16406998 -2.024713,0.5350841 -0.409283,0.69884535 -0.166408,1.59250525 0.542474,1.99596085 z"/>
</svg>
