<svg width="16.25" xmlns="http://www.w3.org/2000/svg" height="16.25" viewBox="0 0 13 13">
<g style="stroke:#9c7a5f;stroke-width:.8">
<path style="fill:#9c7a5f" d="M 1.566387,10.288936 C 1.3749831,10.269405 1.2148288,10.078001 1.2148288,9.8787848 l 0,-7.7694356 c 0,-0.2148414 0.1874978,-0.4101515 0.3906203,-0.4101515 l 9.5701949,0 c 0.203122,0 0.386714,0.1953101 0.386714,0.4101515 l 0,7.046788 c 0,0.2148413 -0.183592,0.4101512 -0.386714,0.4101512 l -3.7382357,0 0,0.3124964 c 0,0.2148412 -0.1835913,0.4101512 -0.3867138,0.4101512 l -5.4452454,0 c -0.015625,0 -0.027343,0 -0.039062,0 z"/>
<path style="fill:#dfb188" d="M 0.81639618,2.7148102 C 0.59374278,2.7343414 0.40233882,2.9218392 0.406245,3.1249617 l 0,7.7616233 c 0,0.214841 0.21484104,0.410151 0.45702563,0.410151 l 11.27329837,0 c 0.242185,0 0.457026,-0.19531 0.457026,-0.410151 l 0,-7.0428822 c 0,-0.2148413 -0.214841,-0.4101512 -0.457026,-0.4101512 l -4.4022893,0 0,-0.3085899 c 0,-0.2148414 -0.2187472,-0.4101515 -0.4570256,-0.4101515 l -6.41398347,0 c -0.0156247,0 -0.0312497,0 -0.0468745,0 z"/>
</g>
<g style="fill:#9c7a5f" transform="matrix(1.30758 0 0 1.30758 -2.32618 -1.79649)">
<path d="m 8.480469,4.585938 c -0.199219,0.00391 -0.394531,0.132812 -0.425781,0.375 -0.046876,0.390624 0.328124,0.242187 0.625,0.242187 0.300781,0 0.402343,0.632813 0.324218,0.96875 C 8.929688,6.511719 8.132812,7.3125 6.332031,6.511719 4.847656,5.851562 4.109375,6.730469 4.070312,6.75 c 0.140626,1.308594 1.285157,2.730469 2.675782,2.730469 1.480468,0 2.683594,-1.566407 2.683594,-3.003907 C 9.429688,6.3125 9.410156,6.148438 9.378906,5.992188 9.351562,5.914062 9.324219,5.832031 9.304688,5.761719 9.269531,5.632812 9.226562,5.523438 9.191406,5.421875 c 0,-0.00391 0.00391,-0.00781 0,-0.011719 -0.140625,-0.304687 -0.339844,-0.582031 -0.585937,-0.8125 0,0 -0.00391,0.00391 -0.00391,0 C 8.5625,4.589844 8.519531,4.585938 8.480469,4.585938 z"/>
<path d="m 8.070312,5.507812 c 0,0.078126 -0.070312,0.144532 -0.152343,0.144532 -0.082031,0 -0.148438,-0.066406 -0.148438,-0.144532 0,-0.082031 0.066407,-0.144531 0.148438,-0.144531 0.082031,0 0.152343,0.0625 0.152343,0.144531 z"/>
<path d="m 7.769531,4.980469 c 0,0.058593 -0.046875,0.101562 -0.105469,0.101562 -0.058593,0 -0.105468,-0.042969 -0.105468,-0.101562 0,-0.054688 0.046875,-0.101563 0.105468,-0.101563 0.058594,0 0.105469,0.046875 0.105469,0.101563 z"/>
</g>
</svg>
