<svg width="16.25" xmlns="http://www.w3.org/2000/svg" height="16.25" viewBox="0 0 13 13">
<g style="stroke:#9c7a5f;stroke-width:.8">
<path style="fill:#9c7a5f" d="M 1.566387,10.288941 C 1.3749831,10.26941 1.2148288,10.081912 1.2148288,9.8787896 l 0,-7.7655295 c 0,-0.2148413 0.1874978,-0.4140576 0.3906203,-0.4140576 l 9.5701949,0 c 0.203122,0 0.386714,0.1992163 0.386714,0.4140576 l 0,7.0428819 c 0,0.2148413 -0.183592,0.4101512 -0.386714,0.4101512 l -3.7382357,0 0,0.3124964 c 0,0.2148414 -0.1835913,0.4101514 -0.3867138,0.4101514 l -5.4452454,0 c -0.015625,0 -0.027343,0 -0.039062,0 z"/>
<path style="fill:#dfb188" d="M 0.81639618,2.714815 C 0.59374278,2.7343462 0.40233882,2.921844 0.406245,3.1249665 l 0,7.7655295 c 0,0.210935 0.21484104,0.410151 0.45702563,0.410151 l 11.27329837,0 c 0.242185,0 0.457026,-0.199216 0.457026,-0.410151 l 0,-7.0467884 c 0,-0.2148413 -0.214841,-0.4101512 -0.457026,-0.4101512 l -4.4022893,0 0,-0.3085899 c 0,-0.2148413 -0.2187472,-0.4101515 -0.4570256,-0.4101515 l -6.41398347,0 c -0.0156247,0 -0.0312497,0 -0.0468745,0 z"/>
</g>
<path style="fill:#9c7a5f" d="M 6.5280738,10.598663 C 6.6723189,10.587123 6.8107931,10.523653 6.9146481,10.4198 L 8.7090438,8.5157791 C 8.824439,8.4061547 8.8936761,8.2503708 8.8994455,8.094587 8.9109843,7.8464884 8.7552019,7.5983883 8.5244115,7.5003013 8.2936211,7.4079852 8.0109032,7.4656835 7.8378097,7.6445464 L 6.4992254,9.0004404 5.0971733,7.5868481 C 4.8663829,7.390677 4.4798087,7.413756 4.2663279,7.6272368 4.0586166,7.8464884 4.0413084,8.2272918 4.2374795,8.4580822 L 6.043414,10.4198 c 0.1269354,0.126934 0.3057983,0.190402 0.4846598,0.178863 z M 7.7512629,7.0214124 c 0.2077114,-0.02885 0.375034,-0.2192517 0.3634952,-0.426963 l 0,-1.0212472 c 0,-0.2134807 -0.1961711,-0.4096533 -0.4096533,-0.4096533 -0.2192501,0 -0.4154227,0.1961726 -0.4154227,0.4096533 l 0,1.0212472 c -0.00577,0.225021 0.201942,0.4327323 0.426963,0.426963 0.011539,0 0.023079,0 0.034618,0 z m -1.2116488,0.080776 c 0.2077113,-0.01731 0.3808034,-0.2192502 0.375034,-0.4269615 l 0,-2.0655748 c 0,-0.2134808 -0.201942,-0.4096519 -0.4154227,-0.4096519 -0.2134808,0 -0.4096534,0.1961711 -0.4096534,0.4096519 l 0,2.0655748 c -0.011539,0.2192501 0.1904017,0.4269615 0.4096534,0.4269615 0.011539,0 0.023079,0 0.040389,0 z M 5.3337346,7.0214124 c 0.2019405,-0.02885 0.3692646,-0.2192517 0.3634938,-0.426963 l 0,-1.4539795 C 5.7318477,4.9039101 5.5241363,4.6673503 5.2875765,4.6673503 c -0.2307904,0 -0.4385032,0.2365598 -0.4038839,0.4731196 l 0,1.4539795 c -0.011539,0.2307904 0.2192516,0.4442711 0.450042,0.426963 z"/>
</svg>
