<svg width="16.25" xmlns="http://www.w3.org/2000/svg" height="16.25" viewBox="0 0 13 13">
<g style="stroke:#9c7a5f;stroke-width:.8">
<path style="fill:#9c7a5f" d="M 1.566387,10.288936 C 1.3749831,10.269405 1.2148288,10.078001 1.2148288,9.8787848 l 0,-7.7694356 c 0,-0.2148414 0.1874978,-0.4101515 0.3906203,-0.4101515 l 9.5701949,0 c 0.203122,0 0.386714,0.1953101 0.386714,0.4101515 l 0,7.046788 c 0,0.2148413 -0.183592,0.4101512 -0.386714,0.4101512 l -3.7382357,0 0,0.3124964 c 0,0.2148412 -0.1835913,0.4101512 -0.3867138,0.4101512 l -5.4452454,0 c -0.015625,0 -0.027343,0 -0.039062,0 z"/>
<path style="fill:#dfb188" d="M 0.81639618,2.7148102 C 0.59374278,2.7343414 0.40233882,2.9218392 0.406245,3.1249617 l 0,7.7616233 c 0,0.214841 0.21484104,0.410151 0.45702563,0.410151 l 11.27329837,0 c 0.242185,0 0.457026,-0.19531 0.457026,-0.410151 l 0,-7.0428822 c 0,-0.2148413 -0.214841,-0.4101512 -0.457026,-0.4101512 l -4.4022893,0 0,-0.3085899 c 0,-0.2148414 -0.2187472,-0.4101515 -0.4570256,-0.4101515 l -6.41398347,0 c -0.0156247,0 -0.0312497,0 -0.0468745,0 z"/>
</g>
<path style="fill:#9c7a5f" d="M 4.640625 6.691406 C 4.398438 6.691406 4.199219 6.886719 4.199219 7.125 C 4.199219 7.367188 4.398438 7.5625 4.640625 7.5625 C 4.886719 7.5625 5.082031 7.367188 5.082031 7.125 C 5.082031 6.886719 4.886719 6.691406 4.640625 6.691406 Z M 7.789062 8.667969 C 7.578125 8.789062 7.507812 9.054688 7.628906 9.261719 C 7.75 9.46875 8.019531 9.539062 8.230469 9.421875 C 8.441406 9.300781 8.515625 9.035156 8.394531 8.828125 C 8.269531 8.621094 8 8.546875 7.789062 8.667969 Z M 5.597656 7.125 C 5.597656 6.695312 5.816406 6.316406 6.148438 6.085938 L 5.824219 5.554688 C 5.4375 5.808594 5.152344 6.199219 5.03125 6.652344 C 5.171875 6.765625 5.261719 6.933594 5.261719 7.125 C 5.261719 7.316406 5.171875 7.488281 5.03125 7.601562 C 5.152344 8.054688 5.4375 8.445312 5.824219 8.699219 L 6.148438 8.164062 C 5.816406 7.9375 5.597656 7.554688 5.597656 7.125 Z M 6.886719 5.855469 C 7.5625 5.855469 8.113281 6.367188 8.171875 7.015625 L 8.800781 7.003906 C 8.769531 6.527344 8.554688 6.097656 8.230469 5.78125 C 8.0625 5.84375 7.867188 5.832031 7.703125 5.738281 C 7.535156 5.640625 7.429688 5.480469 7.398438 5.304688 C 7.238281 5.261719 7.066406 5.238281 6.886719 5.238281 C 6.582031 5.238281 6.292969 5.308594 6.039062 5.433594 L 6.34375 5.976562 C 6.511719 5.898438 6.695312 5.855469 6.886719 5.855469 Z M 6.886719 8.398438 C 6.695312 8.398438 6.511719 8.355469 6.34375 8.277344 L 6.039062 8.820312 C 6.292969 8.945312 6.582031 9.015625 6.886719 9.015625 C 7.066406 9.015625 7.238281 8.992188 7.398438 8.945312 C 7.429688 8.773438 7.535156 8.609375 7.703125 8.515625 C 7.867188 8.421875 8.0625 8.410156 8.230469 8.472656 C 8.554688 8.15625 8.769531 7.726562 8.800781 7.25 L 8.171875 7.238281 C 8.113281 7.886719 7.5625 8.398438 6.886719 8.398438 Z M 7.789062 5.585938 C 8 5.707031 8.269531 5.632812 8.390625 5.425781 C 8.515625 5.21875 8.441406 4.953125 8.230469 4.832031 C 8.019531 4.710938 7.75 4.785156 7.628906 4.992188 C 7.507812 5.199219 7.578125 5.464844 7.789062 5.585938 Z "/>
</svg>
