<svg width="16.25" xmlns="http://www.w3.org/2000/svg" height="16.25" viewBox="0 0 13 13">
<g style="stroke:#9c7a5f;stroke-width:.8">
<path style="fill:#9c7a5f" d="M 1.566387,10.288936 C 1.3749831,10.269405 1.2148288,10.078001 1.2148288,9.8787848 l 0,-7.7694356 c 0,-0.2148414 0.1874978,-0.4101515 0.3906203,-0.4101515 l 9.5701949,0 c 0.203122,0 0.386714,0.1953101 0.386714,0.4101515 l 0,7.046788 c 0,0.2148413 -0.183592,0.4101512 -0.386714,0.4101512 l -3.7382357,0 0,0.3124964 c 0,0.2148412 -0.1835913,0.4101512 -0.3867138,0.4101512 l -5.4452454,0 c -0.015625,0 -0.027343,0 -0.039062,0 z"/>
<path style="fill:#dfb188" d="M 0.81639618,2.7148102 C 0.59374278,2.7343414 0.40233882,2.9218392 0.406245,3.1249617 l 0,7.7616233 c 0,0.214841 0.21484104,0.410151 0.45702563,0.410151 l 11.27329837,0 c 0.242185,0 0.457026,-0.19531 0.457026,-0.410151 l 0,-7.0428822 c 0,-0.2148413 -0.214841,-0.4101512 -0.457026,-0.4101512 l -4.4022893,0 0,-0.3085899 c 0,-0.2148414 -0.2187472,-0.4101515 -0.4570256,-0.4101515 l -6.41398347,0 c -0.0156247,0 -0.0312497,0 -0.0468745,0 z"/>
</g>
<path style="fill:#9c7a5f" d="M 8.226562 5.582031 C 7.640625 4.996094 6.691406 5 6.105469 5.589844 C 5.605469 6.085938 5.53125 6.847656 5.878906 7.421875 L 4.433594 8.871094 C 4.296875 9.003906 4.296875 9.222656 4.433594 9.355469 L 4.453125 9.378906 C 4.589844 9.511719 4.804688 9.511719 4.941406 9.378906 L 6.386719 7.929688 C 6.964844 8.28125 7.730469 8.207031 8.226562 7.710938 C 8.816406 7.125 8.816406 6.171875 8.226562 5.585938 Z M 7.898438 5.914062 C 8.300781 6.316406 8.300781 6.976562 7.898438 7.378906 C 7.496094 7.777344 6.851562 7.777344 6.445312 7.386719 L 6.4375 7.375 C 6.433594 7.371094 6.429688 7.367188 6.425781 7.363281 C 6.03125 6.960938 6.035156 6.316406 6.4375 5.917969 C 6.839844 5.515625 7.496094 5.511719 7.898438 5.914062 Z "/>
</svg>
