<svg width="16.25" xmlns="http://www.w3.org/2000/svg" height="16.25" viewBox="0 0 13 13">
<g style="fill:#dfb188;stroke:#9c7a5f;stroke-width:.8">
<path d="M 3.4960508,6.2186733 C 3.3319903,6.2303922 3.1835547,6.308516 3.0898058,6.441327 L 1.2421721,8.8123917 c 0,0 -0.00391,0.00391 -0.00781,0.00781 l -0.039062,0.058593 c -0.011719,0.011719 -0.019531,0.019532 -0.027343,0.035156 -0.011719,0.015624 -0.023437,0.035156 -0.035156,0.058593 0,0.00391 -0.00391,0.011719 -0.00781,0.015624 -0.011719,0.027344 -0.019531,0.054687 -0.023437,0.085937 -0.00391,0.015624 -0.00781,0.031249 -0.00781,0.050781 -0.00391,0.015624 -0.011719,0.031249 -0.011719,0.050781 0,0 0,0.00391 0,0.00781 0,0.00391 0,0.00391 0,0.00781 0,0.03125 0,0.062499 0,0.093749 l 0,1.0234253 c 0,0.292965 0.2343723,0.523431 0.5273375,0.523431 l 9.7811294,0 c 0.292965,0 0.527337,-0.230466 0.527337,-0.523431 l 0,-1.0507688 c 0,-0.019532 0,-0.042968 0,-0.066405 0,-0.015624 0,-0.027344 0,-0.042968 -0.0039,-0.019532 -0.0039,-0.039062 -0.01172,-0.058593 0,-0.015624 -0.01172,-0.035156 -0.01562,-0.050781 -0.01953,-0.058593 -0.04687,-0.1132798 -0.08594,-0.1601543 l -0.03906,-0.058593 c -0.0039,-0.00391 -0.0078,-0.00781 -0.0078,-0.00781 L 9.9100337,6.4413286 C 9.8006601,6.2928929 9.6209747,6.2069564 9.4373833,6.218675 9.2342608,6.2342991 9.0545754,6.3553921 8.9725454,6.5428899 8.890515,6.7264812 8.9217647,6.9413225 9.0467631,7.1014768 l 1.2187349,1.566387 -7.5311572,0 1.218735,-1.566387 C 4.0858871,6.9335085 4.1093244,6.7030425 4.0116694,6.5116385 3.9140143,6.3202346 3.7108918,6.2069548 3.4960508,6.2186733 z"/>
<path d="m 7.0428822,3.7929322 c 0,0.2968713 -0.2421846,0.5390556 -0.5429622,0.5390556 -0.3007776,0 -0.5429622,-0.2421843 -0.5429622,-0.5390556 0,-0.3007776 0.2421846,-0.5429622 0.5429622,-0.5429622 0.3007776,0 0.5429622,0.2421846 0.5429622,0.5429622 z"/>
<path d="m 7.0428822,2.43747 c 0,0.3007776 -0.2421846,0.5429622 -0.5429622,0.5429622 -0.3007776,0 -0.5429622,-0.2421846 -0.5429622,-0.5429622 0,-0.3007776 0.2421846,-0.5429622 0.5429622,-0.5429622 0.3007776,0 0.5429622,0.2421846 0.5429622,0.5429622 z"/>
<path d="m 4.8671276,4.3241655 c -0.2187472,0.00391 -0.4179635,0.1367171 -0.4999939,0.3398396 -0.08203,0.2070287 -0.03125,0.4374945 0.1249984,0.5937428 l 1.62498,1.62498 c 0.2148413,0.2070287 0.5507745,0.2070287 0.7656158,0 l 1.62498,-1.62498 C 8.6678622,5.1249369 8.7420799,4.9140021 8.6952054,4.7108796 8.648331,4.5116633 8.4881767,4.351509 8.2889604,4.3046346 8.0858379,4.2577601 7.8749031,4.3319778 7.7420921,4.4921321 L 6.49992,5.7382106 5.2577479,4.4921321 C 5.1561867,4.3866647 5.0155633,4.3241655 4.8671276,4.3241655 z"/>
</g>
</svg>
