<svg xmlns="http://www.w3.org/2000/svg" viewBox="0 0 16 16">
 <g style="fill:#bebebe">
  <path d="m 7.25 0 0 16 1.5 0 0 -16 z"/>
  <path d="m 10.5 12.5 c 0 0.828 -1.119 1.5 -2.5 1.5 -1.381 0 -2.5 -0.672 -2.5 -1.5 0 -0.828 1.119 -1.5 2.5 -1.5 c 1.381 0 2.5 0.672 2.5 1.5 z"/>
  <path d="m 3.25 15 0 -14 -1.5 0 0 14 z"/>
  <path d="m 5 5.5 c 0 0.828 -1.119 1.5 -2.5 1.5 -1.381 0 -2.5 -0.672 -2.5 -1.5 0 -0.828 1.119 -1.5 2.5 -1.5 1.381 0 2.5 0.672 2.5 1.5 z"/>
  <path d="m 14.25 15 0 -14 -1.5 0 0 14 z"/>
  <path d="m 16 5.5 c 0 0.828 -1.119 1.5 -2.5 1.5 -1.381 0 -2.5 -0.672 -2.5 -1.5 0 -0.828 1.119 -1.5 2.5 -1.5 1.381 0 2.5 0.672 2.5 1.5 z"/>
 </g>
</svg>
