<?xml version="1.0" encoding="UTF-8" standalone="no"?>
<svg
   xmlns:dc="http://purl.org/dc/elements/1.1/"
   xmlns:cc="http://creativecommons.org/ns#"
   xmlns:rdf="http://www.w3.org/1999/02/22-rdf-syntax-ns#"
   xmlns:svg="http://www.w3.org/2000/svg"
   xmlns="http://www.w3.org/2000/svg"
   xmlns:sodipodi="http://sodipodi.sourceforge.net/DTD/sodipodi-0.dtd"
   xmlns:inkscape="http://www.inkscape.org/namespaces/inkscape"
   version="1.1"
   width="24"
   height="24"
   id="svg2"
   inkscape:version="0.91 r"
   sodipodi:docname="icq.svg">
  <metadata
     id="metadata22">
    <rdf:RDF>
      <cc:Work
         rdf:about="">
        <dc:format>image/svg+xml</dc:format>
        <dc:type
           rdf:resource="http://purl.org/dc/dcmitype/StillImage" />
        <dc:title />
      </cc:Work>
    </rdf:RDF>
  </metadata>
  <defs
     id="defs20" />
  <sodipodi:namedview
     pagecolor="#ffffff"
     bordercolor="#666666"
     borderopacity="1"
     objecttolerance="10"
     gridtolerance="10"
     guidetolerance="10"
     inkscape:pageopacity="0"
     inkscape:pageshadow="2"
     inkscape:window-width="1920"
     inkscape:window-height="1056"
     id="namedview18"
     showgrid="false"
     inkscape:zoom="8.0162065"
     inkscape:cx="6.5789376"
     inkscape:cy="19.703502"
     inkscape:window-x="0"
     inkscape:window-y="24"
     inkscape:window-maximized="1"
     inkscape:current-layer="svg2" />
  <path
     d="m 9.5027955,3.3297831 c -0.568763,-0.129324 -1.034329,-0.077594 -1.525498,0.181054 -0.543161,0.336243 -0.853539,0.8535396 -0.9828628,1.5774916 -0.1293245,0.7498155 0,1.4740296 0.3879718,2.1979816 L 7.5634615,7.5446948 6.9427047,7.3377758 C 6.1670232,7.1567223 5.4428086,7.2601818 4.7188568,7.6481538 3.9690407,8.0361263 3.503474,8.5790239 3.1930959,9.3291044 2.9085824,10.05332 2.934711,10.751406 3.2965553,11.397762 c 0.1551885,0.284514 0.3879719,0.517033 0.5946266,0.672222 0.310378,0.310378 0.6983509,0.491433 1.1636537,0.568763 l 0.181054,0.05173 -0.3879728,0.336241 c -0.3621073,0.310378 -0.568762,0.698088 -0.698086,1.08606 -0.1293239,0.465567 -0.077595,0.930869 0.1810531,1.370571 0.129325,0.206655 0.2583849,0.38771 0.4653037,0.517033 0.206919,0.181054 0.4655665,0.310378 0.775681,0.335979 0.5690266,0.129325 1.1636536,0.129325 1.8100099,-0.07786 l -0.4655663,0.775681 -0.1293245,0.336507 c -0.258384,0.827411 -0.181053,1.551625 0.206919,2.301177 0.1810538,0.284514 0.3879718,0.543427 0.5948908,0.775682 0.310378,0.284513 0.698087,0.465567 1.163654,0.594891 0.77568,0.206654 1.5516265,0.181054 2.3014425,-0.206655 0.724214,-0.388236 1.189518,-1.008728 1.422302,-1.784673 l 0.02586,-0.155189 c 0.491167,0.543425 0.956734,0.90527 1.474031,1.034594 0.517033,0.155188 1.03433,0.129324 1.499896,-0.181055 0.439702,-0.258648 0.749817,-0.69835 0.905005,-1.241247 0.129325,-0.569028 0.129325,-1.137789 0,-1.784146 0.258385,0.181054 0.517033,0.30985 0.82741,0.387709 0.827411,0.258648 1.551363,0.232519 2.275578,-0.15519 0.698351,-0.387708 1.163654,-1.008728 1.396436,-1.810274 0.20692,-0.775681 0.15519,-1.525233 -0.232782,-2.249448 l -0.12932,-0.206916 c -0.206919,-0.310379 -0.413574,-0.620757 -0.723952,-0.827411 -0.258384,-0.181054 -0.568762,-0.310379 -0.853275,-0.439703 0.80181,-0.387972 1.370572,-0.93087 1.62922,-1.6292191 0.181054,-0.569027 0.129324,-1.0343295 -0.129324,-1.499897 l 0,-0.051729 C 20.130864,7.7246933 19.717027,7.3884498 19.07067,7.2076603 18.682698,7.1300658 18.242997,7.1300658 17.855288,7.1559308 L 17.002012,7.3369843 17.286526,6.6906278 C 17.545174,5.8632167 17.467579,5.0614082 17.027877,4.3115917 l -0.07759,-0.129324 C 16.562311,3.5356471 15.993549,3.1479381 15.217868,2.9410196 14.416322,2.7341006 13.666505,2.8116951 12.94229,3.1996686 12.218339,3.5873761 11.701042,4.1822677 11.468522,4.9582127 l 0,0.051729 -0.02586,0.181054 -0.103458,-0.181054 -0.258649,-0.4655665 C 10.666449,3.8988101 10.149152,3.5108371 9.5027945,3.3297831 l 0,0 z m 6.5942125,1.5516266 c 0.129324,0.258384 0.206919,0.568762 0.206919,0.9050045 l -0.07759,0.5687631 c -0.103459,0.284512 -0.232783,0.543161 -0.387973,0.77568 l -2.327311,2.8448676 c -0.232784,-0.181054 -0.491432,-0.310378 -0.750081,-0.439702 l -0.258384,-2.9219336 -0.02587,-1.0343296 0.02587,-0.258384 c 0.129324,-0.517033 0.491168,-0.9050055 0.956735,-1.1636535 0.465303,-0.2583841 0.9826,-0.3103781 1.473768,-0.129324 0.543161,0.12906 0.931134,0.4135735 1.163917,0.8530115 l 0,0 z m -8.0165145,0.517297 c 0.02586,-0.465568 0.206919,-0.775682 0.517033,-0.956735 0.155189,-0.129324 0.387972,-0.129324 0.594627,-0.025865 0.465566,0.129324 0.8532755,0.4655665 1.1636535,1.111923 0.129325,0.258648 0.258648,0.5170325 0.310378,0.8274101 L 11.183218,9.4069624 10.795245,9.5362864 8.4938025,7.0279263 8.3644785,6.7695413 C 8.1580875,6.3037108 8.0287635,5.8642732 8.0804935,5.3987062 l 0,0 z m -1.3964373,3.0253922 0.6983503,0.284513 2.275578,1.6550851 c -0.206919,0.258385 -0.335979,0.517033 -0.413574,0.775681 l -3.7237444,0.465567 -0.258648,-0.05173 C 4.7964516,11.475621 4.4863375,11.268702 4.2794188,10.880994 4.0725001,10.493021 4.0725001,10.105313 4.2276885,9.7173404 4.4087427,9.2259084 4.7447214,8.8379364 5.2361536,8.6312819 5.7014561,8.3723699 6.1667607,8.2947754 6.6840562,8.4240989 l 0,0 z m 2.4566313,4.2149121 0.181054,0.517296 0.07759,0.181053 c -0.387972,0.33598 -0.672485,0.646357 -0.982599,0.930871 l -0.775945,0.64662 -0.206919,0.129324 C 6.9424367,15.276695 6.5288637,15.354554 6.0891617,15.302561 5.7011881,15.276701 5.3908101,15.14737 5.2614861,14.914851 l -0.077595,-0.284513 0.05173,-0.23252 c 0.129324,-0.388236 0.4655665,-0.77568 1.0604586,-1.060458 0.3101145,-0.129324 0.568762,-0.258648 0.7756813,-0.310377 l 2.068922,-0.387972 0,0 z M 17.208668,8.4499639 c 0.465567,-0.2069185 0.905005,-0.2586486 1.370572,-0.2069185 0.439702,0.05173 0.75008,0.2583845 0.905005,0.5687625 l 0.103459,0.335979 -0.05173,0.258648 c -0.181054,0.465567 -0.569027,0.8274101 -1.215384,1.1119231 -0.258384,0.129324 -0.542897,0.181054 -0.853276,0.23252 l -3.180581,0.387973 -0.05173,-0.181055 -0.05173,-0.07733 0.10346,-0.129324 2.611819,-2.1721176 0.310115,-0.12906 0,0 z m -6.593949,2.4566311 c 0.310114,-0.284513 0.723952,-0.465303 1.215383,-0.465303 0.465568,0 0.905005,0.181054 1.189519,0.465303 0.362108,0.362107 0.517297,0.75008 0.517297,1.215383 0,0.465303 -0.155189,0.905005 -0.517297,1.215382 -0.336243,0.33598 -0.723951,0.517033 -1.189519,0.517033 -0.491431,0 -0.905269,-0.181053 -1.215383,-0.517033 -0.336242,-0.310377 -0.517033,-0.750079 -0.517033,-1.215382 0,-0.465303 0.180791,-0.853276 0.517033,-1.215383 l 0,0 z m 0.594627,3.749609 c 0.05173,0.879403 0.129325,1.810272 0.258649,2.818738 l 0,1.034592 -0.02586,0.25865 c -0.181054,0.465038 -0.491432,0.853011 -0.956735,1.059929 -0.465303,0.258649 -0.9567355,0.310378 -1.4223025,0.181054 -0.517033,-0.128795 -0.905006,-0.439174 -1.111924,-0.853012 -0.129325,-0.258648 -0.232784,-0.569026 -0.232784,-0.879404 l 0.129324,-0.594363 c 0.05173,-0.258649 0.181054,-0.51756 0.387973,-0.724215 l 2.1721175,-2.586219 c 0.258649,0.12906 0.517033,0.258384 0.801546,0.28425 l 0,0 z m 1.991329,-0.336243 1.086059,1.111923 0.672221,0.827411 0.129324,0.258648 c 0.232785,0.439702 0.362108,0.85354 0.310378,1.344971 -0.05173,0.465568 -0.206918,0.801546 -0.517033,0.93087 -0.181053,0.129324 -0.387971,0.129324 -0.594627,0.103195 -0.491432,-0.128795 -0.879404,-0.517032 -1.163653,-1.137789 l -0.310378,-0.853011 -0.387972,-2.249975 0.439702,-0.15519 0.335979,-0.181053 0,0 z m 1.163653,-1.603355 2.922198,-0.258385 1.034329,-0.02586 0.258649,0.02586 c 0.387972,0.129325 0.75008,0.362108 0.956735,0.749815 0.258384,0.284514 0.387708,0.672222 0.387708,1.111925 l -0.07733,0.517031 c -0.129324,0.517562 -0.439702,0.905271 -0.879405,1.111925 -0.465566,0.258648 -0.930869,0.310378 -1.448166,0.129324 -0.310377,-0.07733 -0.517032,-0.206655 -0.698349,-0.413309 l -2.71528,-2.249977 0.181054,-0.387708 0.07786,-0.310641 0,0 z"
     style="fill:#292929;fill-opacity:1"
     id="path10"
     inkscape:connector-curvature="0" />
  <path
     d="m 16.097008,4.8814097 c 0.129324,0.258384 0.206919,0.568762 0.206919,0.9050045 l -0.07759,0.5687631 c -0.103459,0.284512 -0.232783,0.543161 -0.387973,0.77568 l -2.327311,2.8448676 c -0.232784,-0.181054 -0.491432,-0.310378 -0.750081,-0.439702 l -0.258384,-2.9219336 -0.02587,-1.0343296 0.02587,-0.258384 c 0.129324,-0.517033 0.491168,-0.9050055 0.956735,-1.1636535 0.465303,-0.2583841 0.9826,-0.3103781 1.473768,-0.129324 0.543161,0.12906 0.931134,0.4135735 1.163917,0.8530115 l 0,0 z m -8.0165145,0.517297 c 0.02586,-0.465568 0.206919,-0.775682 0.517033,-0.956735 0.155189,-0.129324 0.387972,-0.129324 0.594627,-0.025865 0.465566,0.129324 0.8532755,0.4655665 1.1636535,1.111923 0.129325,0.258648 0.258648,0.5170325 0.310378,0.8274101 L 11.183218,9.4069624 10.795245,9.5362864 8.4938025,7.0279263 8.3644785,6.7695413 C 8.1580875,6.3037108 8.0287635,5.8642732 8.0804935,5.3987062 l 0,0 z m -1.3964373,3.0253922 0.6983503,0.284513 2.275578,1.6550851 c -0.206919,0.258385 -0.335979,0.517033 -0.413574,0.775681 l -3.7237444,0.465567 -0.258648,-0.05173 C 4.7964516,11.475621 4.4863375,11.268702 4.2794188,10.880994 4.0725001,10.493021 4.0725001,10.105313 4.2276885,9.7173404 4.4087427,9.2259084 4.7447214,8.8379364 5.2361536,8.6312819 5.7014561,8.3723699 6.1667607,8.2947754 6.6840562,8.4240989 l 0,0 z m 10.5246118,0.025865 c 0.465567,-0.2069185 0.905005,-0.2586486 1.370572,-0.2069185 0.439702,0.05173 0.75008,0.258384 0.905005,0.568762 l 0.103459,0.335979 -0.05173,0.2586485 c -0.181054,0.465567 -0.569027,0.8274101 -1.215384,1.1119231 -0.258384,0.129324 -0.542897,0.181054 -0.853276,0.23252 l -3.180581,0.387974 -0.05173,-0.181055 -0.05173,-0.07733 0.10346,-0.129324 2.611819,-2.1721171 0.310115,-0.12906 0,0 z m -5.999322,6.2062401 c 0.05173,0.879403 0.129325,1.810272 0.258649,2.818738 l 0,1.034592 -0.02586,0.25865 c -0.181054,0.465038 -0.491432,0.853011 -0.956735,1.059929 -0.465303,0.258649 -0.9567355,0.310378 -1.4223025,0.181054 -0.517033,-0.128795 -0.905006,-0.439174 -1.111924,-0.853012 -0.129325,-0.258648 -0.232784,-0.569026 -0.232784,-0.879404 l 0.129324,-0.594363 c 0.05173,-0.258649 0.181054,-0.51756 0.387973,-0.724215 l 2.1721175,-2.586219 c 0.258649,0.12906 0.517033,0.258384 0.801546,0.28425 l 0,0 z m 1.991329,-0.336243 1.086059,1.111923 0.672221,0.827411 0.129324,0.258648 c 0.232785,0.439702 0.362108,0.85354 0.310378,1.344971 -0.05173,0.465568 -0.206918,0.801546 -0.517033,0.93087 -0.181053,0.129324 -0.387971,0.129324 -0.594627,0.103195 -0.491432,-0.128795 -0.879404,-0.517032 -1.163653,-1.137789 l -0.310378,-0.853011 -0.387972,-2.249975 0.439702,-0.15519 0.335979,-0.181053 0,0 z m 1.163653,-1.603355 2.922198,-0.258385 1.034329,-0.02586 0.258649,0.02586 c 0.387972,0.129325 0.75008,0.362108 0.956735,0.749815 0.258384,0.284514 0.387708,0.672222 0.387708,1.111925 l -0.07733,0.517031 c -0.129324,0.517562 -0.439702,0.905271 -0.879405,1.111925 -0.465566,0.258648 -0.930869,0.310378 -1.448166,0.129324 -0.310377,-0.07733 -0.517032,-0.206655 -0.698349,-0.413309 l -2.71528,-2.249977 0.181054,-0.387708 0.07786,-0.310641 0,0 z"
     style="fill:#73db47;fill-opacity:1"
     id="path12"
     inkscape:connector-curvature="0" />
  <path
     d="m 9.1406875,12.639011 0.181054,0.517296 0.07759,0.181053 c -0.387972,0.33598 -0.672485,0.646357 -0.982599,0.930871 l -0.775945,0.64662 -0.206919,0.129324 C 6.9424367,15.276695 6.5288637,15.354554 6.0891617,15.302561 5.7011881,15.276701 5.3908101,15.14737 5.2614861,14.914851 l -0.077595,-0.284513 0.05173,-0.23252 c 0.129324,-0.388236 0.4655665,-0.77568 1.0604586,-1.060458 0.3101145,-0.129324 0.568762,-0.258648 0.7756813,-0.310377 l 2.068922,-0.387972 0,0 z"
     style="fill:#f03c4e;fill-opacity:1"
     id="path14"
     inkscape:connector-curvature="0" />
  <path
     d="m 10.614719,10.906595 c 0.310114,-0.284513 0.723952,-0.465303 1.215383,-0.465303 0.465568,0 0.905005,0.181054 1.189519,0.465303 0.362108,0.362107 0.517297,0.75008 0.517297,1.215383 0,0.465303 -0.155189,0.905005 -0.517297,1.215382 -0.336243,0.33598 -0.723951,0.517033 -1.189519,0.517033 -0.491431,0 -0.905269,-0.181053 -1.215383,-0.517033 -0.336242,-0.310377 -0.517033,-0.750079 -0.517033,-1.215382 0,-0.465303 0.180791,-0.853276 0.517033,-1.215383 l 0,0 z"
     style="fill:#fffd59;fill-opacity:1"
     id="path16"
     inkscape:connector-curvature="0" />
</svg>
