<svg width="64" xmlns="http://www.w3.org/2000/svg" height="64" viewBox="0 0 64 64" xmlns:xlink="http://www.w3.org/1999/xlink">
<defs>
<linearGradient gradientTransform="matrix(1.33333 0 0 1.33333 0 -1339.1496)" id="linear0" y1="1053.158" y2="1004.847" gradientUnits="userSpaceOnUse" x2="0">
<stop offset="0" style="stop-color:#9e1e25"/>
<stop offset="1" style="stop-color:#e06359"/>
</linearGradient>
</defs>
<path style="fill:url(#linear0)" d="M 2.59375 0 L 61.40625 0 C 62.839844 0 64 1.160156 64 2.59375 L 64 61.40625 C 64 62.839844 62.839844 64 61.40625 64 L 2.59375 64 C 1.160156 64 0 62.839844 0 61.40625 L 0 2.59375 C 0 1.160156 1.160156 0 2.59375 0 Z "/>
<g style="fill:#fff">
<path d="M 33.824219 15.917969 C 33.824219 15.917969 35.046875 27.300781 26.394531 42.332031 C 17.742188 57.359375 15.203125 55.34375 14.292969 54.824219 C 13.382812 54.304688 12.210938 52.613281 16.050781 49.226562 C 19.886719 45.84375 21.386719 45.910156 21.386719 45.910156 C 21.386719 45.910156 17.871094 48.058594 16.503906 50.140625 C 15.140625 52.222656 14.03125 53.523438 14.359375 54.109375 C 14.683594 54.695312 18.605469 51.707031 20.230469 49.167969 C 22.816406 45.140625 27.695312 37.648438 29.972656 30.488281 C 32.25 23.332031 33.824219 15.917969 33.824219 15.917969 Z "/>
<path d="M 55.152344 42.265625 C 55.152344 42.265625 54.957031 42.785156 52.679688 42.589844 C 50.402344 42.394531 41.554688 39.597656 36.804688 33.871094 C 32.054688 28.148438 31.664062 20.273438 31.339844 16.175781 C 31.015625 12.078125 32.8125 13.21875 33.074219 13.738281 C 33.480469 14.082031 33.683594 15.199219 33.683594 15.199219 C 33.683594 15.199219 33.535156 13.519531 32.820312 12.804688 C 32.105469 12.089844 31.46875 12.078125 30.753906 13.3125 C 30.039062 14.550781 29.714844 17.996094 30.296875 21.316406 C 30.882812 24.632812 33.292969 32.246094 36.285156 35.761719 C 39.277344 39.273438 45.261719 42.332031 49.6875 43.242188 C 54.113281 44.152344 55.152344 42.265625 55.152344 42.265625 Z "/>
<path d="M 26.328125 43.761719 C 26.328125 43.761719 34.917969 40.964844 43.050781 40.183594 C 51.183594 39.402344 53.980469 40.25 54.699219 40.835938 C 55.414062 41.421875 55.414062 42.070312 55.414062 42.070312 C 55.414062 42.070312 56.324219 41.167969 55.726562 40.238281 C 55.214844 39.28125 54.4375 38.492188 47.996094 38.6875 C 41.554688 38.882812 41.097656 39.144531 35.179688 40.25 C 29.257812 41.355469 26.328125 43.761719 26.328125 43.761719 Z "/>
<path style="fill-opacity:.149" d="M 2.667969 0 C 1.1875 0 0 1.1875 0 2.667969 L 0 61.332031 C 0 62.8125 1.1875 64 2.667969 64 L 22.375 64 L 39.5 0 Z "/>
</g>
</svg>
