<svg width="64" xmlns="http://www.w3.org/2000/svg" height="64" viewBox="0 0 64 64" xmlns:xlink="http://www.w3.org/1999/xlink">
<defs>
<linearGradient gradientTransform="matrix(1.33333 0 0 1.33333 0 -1339.1496)" id="linear0" y1="1053.158" y2="1004.847" gradientUnits="userSpaceOnUse" x2="0">
<stop offset="0" style="stop-color:#bf4b17"/>
<stop offset="1" style="stop-color:#e0aa59"/>
</linearGradient>
</defs>
<path style="fill:url(#linear0)" d="M 2.59375 0 L 61.40625 0 C 62.839844 0 64 1.160156 64 2.59375 L 64 61.40625 C 64 62.839844 62.839844 64 61.40625 64 L 2.59375 64 C 1.160156 64 0 62.839844 0 61.40625 L 0 2.59375 C 0 1.160156 1.160156 0 2.59375 0 Z "/>
<g style="fill:#fff">
<path d="M 32 10.667969 L 29.6875 16.046875 L 30.308594 17.472656 C 26.554688 17.730469 27.285156 18.492188 27.285156 18.492188 C 27.285156 18.492188 22.972656 19.304688 22.972656 19.917969 C 22.972656 19.945312 22.964844 19.941406 22.972656 19.960938 C 22.097656 20.382812 21.25 20.972656 20.4375 21.605469 C 9.574219 36.34375 21.191406 39.746094 18.613281 48.289062 C 18.058594 50.132812 15.722656 53.316406 15.722656 53.316406 C 15.722656 53.316406 20.441406 53.894531 22.394531 48.335938 C 23.976562 43.832031 18.621094 34.792969 22.617188 30.722656 C 28.257812 24.976562 32.453125 36.820312 30.664062 38.460938 C 28.878906 40.101562 29.332031 40.550781 29.332031 40.550781 L 32 45.976562 L 34.667969 40.550781 C 34.667969 40.550781 35.121094 40.101562 33.335938 38.460938 C 31.546875 36.820312 35.742188 24.976562 41.382812 30.722656 C 45.378906 34.789062 40.023438 43.832031 41.605469 48.335938 C 43.558594 53.894531 48.277344 53.316406 48.277344 53.316406 C 48.277344 53.316406 45.941406 50.132812 45.386719 48.289062 C 42.808594 39.746094 54.425781 36.34375 43.5625 21.605469 C 42.75 20.972656 41.902344 20.382812 41.027344 19.960938 C 41.035156 19.941406 41.027344 19.945312 41.027344 19.917969 C 41.027344 19.304688 36.714844 18.492188 36.714844 18.492188 C 36.714844 18.492188 37.445312 17.730469 33.691406 17.472656 L 34.3125 16.046875 Z "/>
<path style="fill-opacity:.149" d="M 2.667969 0 C 1.1875 0 0 1.1875 0 2.667969 L 0 61.332031 C 0 62.8125 1.1875 64 2.667969 64 L 22.375 64 L 39.5 0 Z "/>
</g>
</svg>
