<svg width="64" xmlns="http://www.w3.org/2000/svg" height="64" viewBox="0 0 64 64" xmlns:xlink="http://www.w3.org/1999/xlink">
<defs>
<linearGradient gradientTransform="matrix(1.33333 0 0 1.33333 0 -1339.1496)" id="linear0" y1="1053.158" y2="1004.847" gradientUnits="userSpaceOnUse" x2="0">
<stop offset="0" style="stop-color:#3c84ce"/>
<stop offset="1" style="stop-color:#73abc6"/>
</linearGradient>
</defs>
<path style="fill:#fff;fill-opacity:.149" d="M -0.117188 0.117188 L -0.117188 64.117188 L 22.257812 64.117188 L 39.382812 0.117188 Z "/>
<path style="fill:url(#linear0)" d="M 2.59375 0 L 61.40625 0 C 62.839844 0 64 1.160156 64 2.59375 L 64 61.40625 C 64 62.839844 62.839844 64 61.40625 64 L 2.59375 64 C 1.160156 64 0 62.839844 0 61.40625 L 0 2.59375 C 0 1.160156 1.160156 0 2.59375 0 Z "/>
<g style="fill:#fff">
<path d="M 13.082031 22.667969 C 11.75 22.667969 10.667969 23.75 10.667969 25.082031 L 10.667969 32.417969 C 10.667969 33.75 11.75 34.832031 13.082031 34.832031 L 21.625 34.832031 C 22.957031 34.832031 24.042969 33.75 24.042969 32.417969 L 24.042969 25.082031 C 24.042969 23.75 22.957031 22.667969 21.625 22.667969 Z M 27.707031 29.167969 C 26.375 29.167969 25.332031 30.25 25.332031 31.582031 L 25.332031 38.917969 C 25.332031 40.25 26.375 41.332031 27.707031 41.332031 L 36.292969 41.332031 C 37.625 41.332031 38.667969 40.25 38.667969 38.917969 L 38.667969 31.582031 C 38.667969 30.25 37.625 29.167969 36.292969 29.167969 Z M 42.375 29.167969 C 41.042969 29.167969 39.957031 30.25 39.957031 31.582031 L 39.957031 38.917969 C 39.957031 40.25 41.042969 41.332031 42.375 41.332031 L 50.917969 41.332031 C 52.25 41.332031 53.332031 40.25 53.332031 38.917969 L 53.332031 31.582031 C 53.332031 30.25 52.25 29.167969 50.917969 29.167969 Z M 17.332031 38.207031 L 14.082031 41.332031 L 20.625 41.332031 Z "/>
<path style="fill-opacity:.149" d="M 2.667969 0 C 1.1875 0 0 1.1875 0 2.667969 L 0 61.332031 C 0 62.8125 1.1875 64 2.667969 64 L 22.375 64 L 39.5 0 Z "/>
</g>
</svg>
