<svg width="64" xmlns="http://www.w3.org/2000/svg" height="64" viewBox="0 0 64 64" xmlns:xlink="http://www.w3.org/1999/xlink">
<defs>
<linearGradient gradientTransform="matrix(1.33333 0 0 1.33333 0 -1339.1496)" id="linear0" y1="1053.158" y2="1004.847" gradientUnits="userSpaceOnUse" x2="0">
<stop offset="0" style="stop-color:#cf9917"/>
<stop offset="1" style="stop-color:#deab0f"/>
</linearGradient>
</defs>
<path style="fill:url(#linear0)" d="M 2.59375 0 L 61.40625 0 C 62.839844 0 64 1.160156 64 2.59375 L 64 61.40625 C 64 62.839844 62.839844 64 61.40625 64 L 2.59375 64 C 1.160156 64 0 62.839844 0 61.40625 L 0 2.59375 C 0 1.160156 1.160156 0 2.59375 0 Z "/>
<g style="fill:#fff">
<path d="M 32 10.667969 C 24.609375 10.667969 18.558594 16.667969 18.558594 24 C 18.558594 28.230469 20.832031 31.742188 23.9375 34.167969 L 23.9375 42.667969 L 40.0625 42.667969 L 40.0625 34.167969 C 43.167969 31.742188 45.441406 28.230469 45.441406 24 C 45.441406 16.667969 39.390625 10.667969 32 10.667969 Z M 32 16 C 36.484375 16 40.0625 19.550781 40.0625 24 C 40.0625 26.976562 38.464844 29.433594 36.03125 30.832031 L 34.6875 31.667969 L 34.6875 37.332031 L 29.3125 37.332031 L 29.3125 31.667969 L 27.96875 30.832031 C 25.546875 29.445312 23.9375 26.992188 23.9375 24.007812 C 23.9375 19.558594 27.515625 16.007812 32 16.007812 Z "/>
<path d="M 26.625 50.667969 L 26.625 53.332031 L 37.375 53.332031 L 37.375 50.667969 Z "/>
<path d="M 23.9375 45.332031 L 23.9375 48 L 40.0625 48 L 40.0625 45.332031 Z "/>
<path style="fill-opacity:.349" d="M 29.3125 24 L 29.3125 26.667969 L 34.6875 26.667969 L 34.6875 24 Z "/>
<path style="fill-opacity:.149" d="M 2.667969 0 C 1.1875 0 0 1.1875 0 2.667969 L 0 61.332031 C 0 62.8125 1.1875 64 2.667969 64 L 22.375 64 L 39.5 0 Z "/>
</g>
</svg>
