<svg width="64" xmlns="http://www.w3.org/2000/svg" height="64" viewBox="0 0 64 64" xmlns:xlink="http://www.w3.org/1999/xlink">
<g style="fill:#94c146">
<path d="M 2.59375 64 L 61.40625 64 C 62.839844 64 64 62.839844 64 61.40625 L 64 2.59375 C 64 1.160156 62.839844 0 61.40625 0 L 2.59375 0 C 1.160156 0 0 1.160156 0 2.59375 L 0 61.40625 C 0 62.839844 1.160156 64 2.59375 64 Z "/>
<path d="M 34.371094 29.417969 C 32.542969 29.871094 29.164062 32.117188 29.164062 32.875 C 29.164062 33.058594 29.339844 33.320312 29.582031 33.457031 C 30.023438 33.714844 30.46875 33.707031 30.746094 33.707031 C 31.769531 33.652344 33.011719 33.589844 33.582031 34 C 33.679688 34.515625 32.273438 35.777344 30.621094 36.707031 C 28.9375 37.660156 30.007812 37.421875 31.914062 36.417969 C 33.664062 35.496094 34.9375 34.355469 34.832031 33.792969 C 34.761719 33.433594 34.433594 33.359375 32.996094 33.332031 C 32.285156 33.320312 31.882812 33.332031 31.582031 33.292969 C 31.300781 33.273438 30.996094 33.308594 30.707031 33.125 C 30.316406 32.839844 30.316406 32.761719 30.707031 32.167969 C 31.164062 31.464844 32.800781 30.269531 34.121094 29.667969 C 34.660156 29.417969 34.765625 29.320312 34.371094 29.417969 Z "/>
</g>
<g style="fill:#fff">
<path d="M 41.523438 38.585938 C 46.59375 35.824219 50.464844 33.710938 50.820312 33.519531 C 51.871094 32.949219 52.96875 31.484375 50.820312 30.316406 C 50.128906 29.941406 46.359375 27.894531 41.519531 25.265625 L 34.859375 31.945312 Z "/>
<g style="fill-opacity:.502">
<path d="M 34.859375 31.945312 L 13.5625 53.320312 C 14.042969 53.378906 14.625 53.253906 15.289062 52.890625 C 16.664062 52.140625 31.457031 44.074219 41.523438 38.585938 Z "/>
<path d="M 34.859375 31.945312 L 41.519531 25.265625 C 41.519531 25.265625 16.769531 11.816406 15.289062 11.011719 C 14.71875 10.703125 14.097656 10.59375 13.546875 10.714844 Z "/>
</g>
<path style="fill-opacity:.902" d="M 34.859375 31.945312 L 13.546875 10.714844 C 12.667969 10.910156 11.945312 11.671875 11.945312 13.195312 C 11.945312 15.671875 11.945312 48.691406 11.945312 50.773438 C 11.945312 52.207031 12.515625 53.21875 13.5625 53.320312 Z "/>
<path style="fill-opacity:.149" d="M 2.667969 0 C 1.1875 0 0 1.1875 0 2.667969 L 0 61.332031 C 0 62.8125 1.1875 64 2.667969 64 L 22.375 64 L 39.5 0 Z "/>
</g>
</svg>
