<svg width="64" xmlns="http://www.w3.org/2000/svg" height="64" viewBox="0 0 64 64" xmlns:xlink="http://www.w3.org/1999/xlink">
<defs>
<linearGradient gradientTransform="matrix(1.33333 0 0 1.33333 0 -1339.1496)" id="linear0" y1="1053.158" y2="1004.847" gradientUnits="userSpaceOnUse" x2="0">
<stop offset="0" style="stop-color:#3f3f3f"/>
<stop offset="1" style="stop-color:#535353"/>
</linearGradient>
</defs>
<path style="fill:url(#linear0)" d="M 2.59375 0 L 61.40625 0 C 62.839844 0 64 1.160156 64 2.59375 L 64 61.40625 C 64 62.839844 62.839844 64 61.40625 64 L 2.59375 64 C 1.160156 64 0 62.839844 0 61.40625 L 0 2.59375 C 0 1.160156 1.160156 0 2.59375 0 Z "/>
<path style="fill:#fff" d="M 14.648438 28.855469 L 24.648438 28.855469 C 26.855469 28.855469 28.632812 30.632812 28.632812 32.839844 L 28.632812 42.839844 C 28.632812 45.042969 26.855469 46.820312 24.648438 46.820312 L 14.648438 46.820312 C 12.441406 46.820312 10.667969 45.042969 10.667969 42.839844 L 10.667969 32.839844 C 10.667969 30.632812 12.441406 28.855469 14.648438 28.855469 Z "/>
<path style="stroke-opacity:.502;fill:none;stroke:#fff;stroke-linejoin:round;stroke-width:5.341;stroke-miterlimit:20" d="M 46.719482 -92.06665 L 93.539551 -92.06665 C 102.438477 -92.06665 109.542969 -84.962158 109.542969 -76.063232 L 109.542969 -29.188232 C 109.542969 -20.289307 102.438477 -13.203125 93.539551 -13.203125 L 46.664551 -13.203125 C 37.765625 -13.203125 30.679443 -20.289307 30.679443 -29.188232 L 30.679443 -76.081543 C 30.679443 -84.980469 37.820557 -92.06665 46.719482 -92.06665 Z " transform="matrix(.21333 0 0 .21333 4.69333 49.06667)"/>
<path style="fill:#fff" d="M 26.328125 17.179688 L 36.324219 17.179688 C 38.53125 17.179688 40.308594 18.957031 40.308594 21.160156 L 40.308594 31.160156 C 40.308594 33.367188 38.53125 35.144531 36.324219 35.144531 L 26.328125 35.144531 C 24.121094 35.144531 22.34375 33.367188 22.34375 31.160156 L 22.34375 21.160156 C 22.34375 18.957031 24.121094 17.179688 26.328125 17.179688 Z "/>
<path style="stroke-opacity:.502;fill:none;stroke:#fff;stroke-linejoin:round;stroke-width:5.341;stroke-miterlimit:20" d="M 101.468018 -146.796875 L 148.269775 -146.796875 C 157.168701 -146.796875 164.273193 -139.692383 164.273193 -130.793457 L 164.273193 -83.936768 C 164.273193 -75.037842 157.168701 -67.93335 148.269775 -67.93335 L 101.413086 -67.93335 C 92.51416 -67.93335 85.409668 -75.037842 85.409668 -83.936768 L 85.409668 -130.811768 C 85.409668 -139.710693 92.569092 -146.796875 101.468018 -146.796875 Z " transform="matrix(.21333 0 0 .21333 4.69333 49.06667)"/>
<path style="fill:#fff" d="M 39.351562 25.710938 L 49.351562 25.710938 C 51.558594 25.710938 53.332031 27.488281 53.332031 29.695312 L 53.332031 39.695312 C 53.332031 41.902344 51.558594 43.675781 49.351562 43.675781 L 39.351562 43.675781 C 37.144531 43.675781 35.367188 41.902344 35.367188 39.695312 L 35.367188 29.695312 C 35.367188 27.488281 37.144531 25.710938 39.351562 25.710938 Z "/>
<path style="stroke-opacity:.502;fill:none;stroke:#fff;stroke-linejoin:round;stroke-width:5.341;stroke-miterlimit:20" d="M 162.515381 -106.806641 L 209.335449 -106.806641 C 218.234375 -106.806641 225.320557 -99.702148 225.320557 -90.803223 L 225.320557 -43.928223 C 225.320557 -35.029297 218.234375 -27.924805 209.335449 -27.924805 L 162.460449 -27.924805 C 153.561523 -27.924805 146.457031 -35.029297 146.457031 -43.928223 L 146.457031 -90.821533 C 146.457031 -99.720459 153.616455 -106.806641 162.515381 -106.806641 Z " transform="matrix(.21333 0 0 .21333 4.69333 49.06667)"/>
<path style="fill:#fff;fill-opacity:.149" d="M 2.667969 0 C 1.1875 0 0 1.1875 0 2.667969 L 0 61.332031 C 0 62.8125 1.1875 64 2.667969 64 L 22.375 64 L 39.5 0 Z "/>
</svg>
