<svg width="64" xmlns="http://www.w3.org/2000/svg" height="64" viewBox="0 0 64 64" xmlns:xlink="http://www.w3.org/1999/xlink">
<defs>
<linearGradient gradientTransform="matrix(1.33333 0 0 1.33333 0 -1339.1496)" id="linear0" y1="1053.158" y2="1004.847" gradientUnits="userSpaceOnUse" x2="0">
<stop offset="0" style="stop-color:#262626"/>
<stop offset="1" style="stop-color:#7a7a7a"/>
</linearGradient>
</defs>
<path style="fill:url(#linear0)" d="M 2.667969 0 L 61.195312 0 C 62.75 0 64 1.15625 64 2.59375 L 64 61.40625 C 64 62.84375 62.75 64 61.195312 64 L 2.667969 64 C 1.332031 64 0 62.667969 0 61.40625 L 0 2.59375 C 0 1.15625 1.113281 0 2.667969 0 Z "/>
<g style="fill:#fff">
<path d="M 30.894531 53.167969 C 26.046875 51.96875 14.84375 41.308594 11.484375 34.695312 C 10.394531 32.554688 10.394531 31.335938 11.480469 29.203125 C 12.980469 26.25 16.035156 22.472656 20.148438 18.488281 C 25.453125 13.355469 29.480469 10.710938 32 10.710938 C 34.609375 10.710938 39 13.664062 44.589844 19.179688 C 49.191406 23.714844 52.28125 27.886719 53.105469 30.671875 C 53.492188 31.972656 53.40625 32.785156 52.710938 34.363281 C 50.367188 39.683594 40.105469 50.023438 34.640625 52.566406 C 33.160156 53.257812 32.003906 53.441406 30.894531 53.167969 Z M 35.84375 38.753906 C 41.1875 35.214844 45.652344 32.234375 45.761719 32.128906 C 45.886719 32.007812 45.769531 31.800781 45.449219 31.574219 C 44.679688 31.023438 40.605469 28.242188 35.890625 25.050781 C 33.578125 23.488281 31.417969 22.007812 31.089844 21.769531 L 30.496094 21.328125 C 29.433594 20.714844 27.554688 19.304688 26.773438 18.929688 C 26.433594 18.6875 26.097656 18.488281 26.027344 18.488281 C 25.960938 18.488281 25.902344 19.203125 25.902344 20.078125 C 25.902344 22.984375 25.902344 24.789062 25.902344 26.992188 C 25.902344 29.597656 25.964844 31.734375 26.035156 31.734375 C 26.210938 31.734375 27.171875 31.148438 30.003906 29.316406 C 33.90625 26.796875 33.375 27.015625 34.269531 27.554688 C 35.925781 28.558594 39.484375 30.953125 39.9375 31.367188 C 40.816406 32.183594 41.371094 31.71875 32.570312 37.605469 L 25.890625 42.078125 L 25.941406 43.632812 C 25.96875 44.488281 26.023438 45.1875 26.0625 45.1875 C 26.097656 45.1875 30.503906 42.292969 35.84375 38.753906 Z "/>
<path style="fill-opacity:.149" d="M 2.667969 0 C 1.1875 0 0 1.1875 0 2.667969 L 0 61.332031 C 0 62.8125 1.1875 64 2.667969 64 L 22.375 64 L 39.5 0 Z "/>
</g>
</svg>
