<svg width="64" xmlns="http://www.w3.org/2000/svg" height="64" viewBox="0 0 64 64" xmlns:xlink="http://www.w3.org/1999/xlink">
<defs>
<linearGradient gradientTransform="matrix(1.33333 0 0 -1.33333 0 1403.1496)" id="linear0" y1="1053.158" y2="1004.847" gradientUnits="userSpaceOnUse" x2="0">
<stop offset="0" style="stop-color:#648db5"/>
<stop offset=".768" style="stop-color:#527fab"/>
<stop offset="1" style="stop-color:#3f709f"/>
</linearGradient>
</defs>
<path style="fill:url(#linear0)" d="M 2.59375 64 L 61.40625 64 C 62.839844 64 64 62.839844 64 61.40625 L 64 2.59375 C 64 1.160156 62.839844 0 61.40625 0 L 2.59375 0 C 1.160156 0 0 1.160156 0 2.59375 L 0 61.40625 C 0 62.839844 1.160156 64 2.59375 64 Z "/>
<g style="fill:#fff">
<path d="M 35.871094 12.023438 C 31.800781 12.566406 27.425781 14.597656 23.867188 20.613281 C 15.734375 34.359375 16.316406 39.136719 15.015625 40.679688 C 13.71875 42.21875 10.210938 43.054688 10.714844 44.800781 C 11.222656 46.542969 11.738281 46.320312 11.738281 46.320312 C 11.738281 46.320312 16.855469 53.9375 31.714844 51.960938 C 46.570312 49.984375 48.621094 46.769531 48.488281 45.171875 C 48.351562 43.574219 45.210938 42.410156 45.210938 42.410156 C 45.210938 42.410156 42.890625 34.023438 43.492188 30.574219 C 44.09375 27.125 46.351562 22.101562 48.585938 21.019531 C 50.816406 19.9375 51.933594 24.671875 53.085938 23.5 C 54.242188 22.328125 51.148438 13.289062 47.746094 13.222656 C 45.828125 13.179688 41.097656 11.328125 35.871094 12.023438 Z M 35.878906 23.574219 L 37.019531 27.007812 L 40.457031 28.011719 L 37.554688 30.136719 L 37.679688 33.75 L 34.773438 31.625 L 31.34375 32.855469 L 32.441406 29.453125 L 30.234375 26.601562 L 33.851562 26.5625 Z M 24.261719 33.679688 L 24.382812 36.171875 L 26.554688 37.507812 L 24.210938 38.378906 L 23.617188 40.84375 L 22.023438 38.921875 L 19.53125 39.089844 L 20.875 37.007812 L 19.917969 34.671875 L 22.34375 35.316406 Z M 33.964844 34.199219 L 36.292969 37.398438 L 40.214844 37.246094 L 37.9375 40.480469 L 39.28125 44.164062 L 35.511719 42.964844 L 32.410156 45.417969 L 32.386719 41.441406 L 29.117188 39.257812 L 32.855469 38.003906 Z "/>
<path style="fill-opacity:.149" d="M 2.667969 0 C 1.1875 0 0 1.1875 0 2.667969 L 0 61.332031 C 0 62.8125 1.1875 64 2.667969 64 L 22.375 64 L 39.5 0 Z "/>
</g>
</svg>
