<svg width="64" xmlns="http://www.w3.org/2000/svg" height="64" viewBox="0 0 64 64" xmlns:xlink="http://www.w3.org/1999/xlink">
<defs>
<linearGradient gradientTransform="matrix(1.33333 0 0 1.33333 0 -1339.1496)" id="linear0" y1="1053.158" y2="1004.847" gradientUnits="userSpaceOnUse" x2="0">
<stop offset="0" style="stop-color:#1f4dc0"/>
<stop offset="1" style="stop-color:#1e7af1"/>
</linearGradient>
</defs>
<path style="fill:url(#linear0)" d="M 2.59375 0 L 61.40625 0 C 62.839844 0 64 1.160156 64 2.59375 L 64 61.40625 C 64 62.839844 62.839844 64 61.40625 64 L 2.59375 64 C 1.160156 64 0 62.839844 0 61.40625 L 0 2.59375 C 0 1.160156 1.160156 0 2.59375 0 Z "/>
<g style="fill:#fff">
<path style="fill-opacity:.149" d="M 2.667969 0 C 1.1875 0 0 1.1875 0 2.667969 L 0 61.332031 C 0 62.8125 1.1875 64 2.667969 64 L 22.375 64 L 39.5 0 Z "/>
<path style="stroke:#fff;stroke-linejoin:round;stroke-width:1.118" d="M 214.9375 172.890625 C 194.375 112.515625 158.5 105.578125 159.296875 95.9375 C 159.859375 88.9375 176.765625 84.53125 176.765625 84.53125 C 159.671875 80.703125 148.609375 85.078125 139.453125 92.046875 C 117.390625 80.265625 53.0625 80.21875 48.75 121.203125 C 48.75 121.203125 38.484375 130.234375 41.671875 133.859375 C 44.796875 137.390625 60 123.484375 92.0625 123.140625 C 99.265625 140.0625 112.828125 146.9375 130.875 146.71875 C 123.390625 142.03125 114.46875 138.546875 114.578125 125.5 C 138.984375 128.3125 156.015625 138.25 171.625 148.875 C 161.953125 135.046875 126.359375 105.796875 69.765625 117.5625 C 94.140625 69.96875 188.46875 110.5 214.9375 172.890625 Z " transform="scale(.25)"/>
</g>
</svg>
