<svg width="64" xmlns="http://www.w3.org/2000/svg" height="64" viewBox="0 0 64 64" xmlns:xlink="http://www.w3.org/1999/xlink">
<defs>
<linearGradient gradientTransform="matrix(1.33333 0 0 -1.33333 0 1403.1496)" id="linear0" y1="1053.158" y2="1004.847" gradientUnits="userSpaceOnUse" x2="0">
<stop offset="0" style="stop-color:#8593f4"/>
<stop offset="1" style="stop-color:#455cbf"/>
</linearGradient>
</defs>
<path style="fill:url(#linear0)" d="M 2.59375 64 L 61.40625 64 C 62.839844 64 64 62.839844 64 61.40625 L 64 2.59375 C 64 1.160156 62.839844 0 61.40625 0 L 2.59375 0 C 1.160156 0 0 1.160156 0 2.59375 L 0 61.40625 C 0 62.839844 1.160156 64 2.59375 64 Z "/>
<path style="fill:#fff" d="M 32 8 C 18.753906 8 8 18.753906 8 32 C 8 45.246094 18.753906 56 32 56 C 45.246094 56 56 45.246094 56 32 C 56 18.753906 45.246094 8 32 8 Z M 32 24.640625 C 36.058594 24.640625 39.359375 27.941406 39.359375 32 C 39.359375 36.058594 36.058594 39.359375 32 39.359375 C 27.941406 39.359375 24.640625 36.058594 24.640625 32 C 24.640625 27.941406 27.941406 24.640625 32 24.640625 Z M 28 44 L 30.667969 44 L 30.667969 46.667969 L 28 46.667969 Z M 33.332031 44 L 36 44 L 36 46.667969 L 33.332031 46.667969 Z M 28 49.332031 L 30.667969 49.332031 L 30.667969 52 L 28 52 Z M 33.332031 49.332031 L 36 49.332031 L 36 52 L 33.332031 52 Z "/>
<path style="fill:none;stroke:#fff;stroke-width:2.351" d="M 30.50107 23.499821 C 30.50107 27.228987 27.478964 30.251094 23.749798 30.251094 C 20.020632 30.251094 16.998525 27.228987 16.998525 23.499821 C 16.998525 19.770655 20.020632 16.748548 23.749798 16.748548 C 27.478964 16.748548 30.50107 19.770655 30.50107 23.499821 Z " transform="matrix(.68506 0 0 .68506 15.73006 15.90131)"/>
<path style="fill:#fff;fill-opacity:.149" d="M 2.667969 0 C 1.1875 0 0 1.1875 0 2.667969 L 0 61.332031 C 0 62.8125 1.1875 64 2.667969 64 L 22.375 64 L 39.5 0 Z "/>
</svg>
