<svg width="64" xmlns="http://www.w3.org/2000/svg" height="64" viewBox="0 0 64 64" xmlns:xlink="http://www.w3.org/1999/xlink">
<defs>
<linearGradient gradientTransform="matrix(1.33333 0 0 -1.33333 0 1403.1496)" id="linear0" y1="1053.158" y2="1004.847" gradientUnits="userSpaceOnUse" x2="0">
<stop offset="0" style="stop-color:#868bd7"/>
<stop offset="1" style="stop-color:#4a42a3"/>
</linearGradient>
</defs>
<path style="fill:url(#linear0)" d="M 2.59375 64 L 61.40625 64 C 62.839844 64 64 62.839844 64 61.40625 L 64 2.59375 C 64 1.160156 62.839844 0 61.40625 0 L 2.59375 0 C 1.160156 0 0 1.160156 0 2.59375 L 0 61.40625 C 0 62.839844 1.160156 64 2.59375 64 Z "/>
<g style="fill:#fff">
<path style="fill-rule:evenodd" d="M 19.050781 51.417969 C 19.050781 51.417969 21.59375 52.15625 24.980469 52.582031 C 26.351562 52.75 31.566406 53.347656 35.566406 53.332031 C 35.566406 53.332031 40.4375 53.332031 43.128906 52.957031 C 45.941406 52.558594 47.535156 52.046875 48.421875 51.027344 C 48.445312 50.785156 48.851562 49.996094 47.757812 49.230469 C 44.960938 47.28125 41.347656 46.746094 34.324219 45.082031 C 26.5625 43.128906 24.242188 41.257812 23.082031 39.90625 C 21.984375 38.550781 23.289062 35.734375 29.542969 34.355469 C 32.710938 33.582031 44.507812 33.441406 44.507812 33.441406 C 41.125 30.753906 34.769531 25.945312 33.472656 24.921875 C 32.332031 24.023438 30.496094 22.644531 30.300781 21.414062 C 30.03125 20.21875 31.917969 19.640625 32.917969 19.574219 C 36.132812 19.351562 40.523438 19.730469 44.429688 20.507812 C 46.390625 20.894531 46.734375 20.839844 46.734375 20.839844 C 49.53125 20.972656 51.707031 19.507812 51.59375 16.425781 C 51.570312 13.296875 48.445312 10.789062 44.984375 10.679688 C 41.726562 10.574219 33.691406 11.144531 33.691406 11.144531 C 43.054688 13.074219 44.585938 13.566406 45.074219 14.695312 C 45.359375 15.359375 44.589844 16.019531 42.011719 15.890625 C 39.203125 15.753906 33.449219 15.070312 33.449219 15.070312 C 27.96875 14.230469 24.15625 13.429688 22.492188 15.605469 C 21.402344 17.023438 22.644531 18.753906 23.132812 19.773438 C 25.308594 23.566406 29.066406 26.167969 31.453125 28.003906 C 32.351562 28.695312 35.089844 30.222656 35.089844 30.222656 C 26.574219 27.894531 19.785156 29.203125 15.480469 31.464844 C 10.535156 34.390625 11.382812 39.332031 19.230469 43.953125 C 23.867188 46.679688 26.175781 47.992188 33.765625 48.925781 C 38.203125 49.632812 38.863281 49.921875 38.828125 50.289062 C 38.78125 50.808594 33.578125 51.007812 32.148438 51.105469 C 28.507812 51.355469 19.097656 51.417969 19.050781 51.417969 Z "/>
<path style="fill-opacity:.149" d="M 2.667969 0 C 1.1875 0 0 1.1875 0 2.667969 L 0 61.332031 C 0 62.8125 1.1875 64 2.667969 64 L 22.375 64 L 39.5 0 Z "/>
</g>
</svg>
