<svg width="64" xmlns="http://www.w3.org/2000/svg" height="64" viewBox="0 0 64 64" xmlns:xlink="http://www.w3.org/1999/xlink">
<defs>
<linearGradient gradientTransform="matrix(1.33333 0 0 -1.33333 0 -1339.1496)" id="linear0" y1="-1050.994" y2="-1003.134" gradientUnits="userSpaceOnUse" x2="0">
<stop offset="0" style="stop-color:#3464a3"/>
<stop offset="1" style="stop-color:#6081ab"/>
</linearGradient>
</defs>
<path style="fill:url(#linear0)" d="M 2.59375 64 L 61.40625 64 C 62.839844 64 64 62.839844 64 61.40625 L 64 2.59375 C 64 1.160156 62.839844 0 61.40625 0 L 2.59375 0 C 1.160156 0 0 1.160156 0 2.59375 L 0 61.40625 C 0 62.839844 1.160156 64 2.59375 64 Z "/>
<path style="fill:#fff;fill-opacity:.149" d="M 2.667969 0 C 1.1875 0 0 1.1875 0 2.667969 L 0 61.332031 C 0 62.8125 1.1875 64 2.667969 64 L 22.375 64 L 39.5 0 Z "/>
<path style="fill:none;stroke:#fff;stroke-width:4.237" d="M 16.51076 24.71155 C 16.51076 24.71155 23.45119 24.71155 23.45119 24.71155 C 23.45119 24.71155 23.45119 31.65198 23.45119 31.65198 C 23.45119 35.484011 20.342792 38.592409 16.51076 38.592409 C 12.678729 38.592409 9.570331 35.484011 9.570331 31.65198 C 9.570331 27.819948 12.678729 24.71155 16.51076 24.71155 Z " transform="matrix(1.33333 0 0 1.33333 .73175 -.94873)"/>
<g style="fill:#fff">
<path d="M 39.207031 10.875 L 39.207031 12.972656 C 38.625 13.082031 38.0625 13.238281 37.519531 13.445312 C 36.980469 13.648438 36.464844 13.90625 35.976562 14.195312 C 35.484375 14.488281 35.019531 14.824219 34.585938 15.191406 C 34.152344 15.558594 33.753906 15.960938 33.390625 16.398438 C 33.023438 16.832031 32.691406 17.300781 32.402344 17.796875 C 32.113281 18.289062 31.871094 18.808594 31.667969 19.351562 C 31.46875 19.894531 31.308594 20.460938 31.207031 21.046875 C 31.101562 21.628906 31.046875 22.222656 31.046875 22.835938 C 31.046875 23.460938 31.105469 24.074219 31.214844 24.671875 C 31.324219 25.265625 31.484375 25.847656 31.695312 26.398438 C 31.90625 26.953125 32.164062 27.480469 32.464844 27.980469 C 32.761719 28.484375 33.105469 28.957031 33.484375 29.394531 C 33.867188 29.835938 34.285156 30.242188 34.734375 30.609375 C 35.183594 30.980469 35.664062 31.3125 36.175781 31.597656 C 36.6875 31.886719 37.222656 32.128906 37.785156 32.324219 C 38.34375 32.519531 38.929688 32.664062 39.53125 32.761719 L 39.53125 34.820312 L 41.25 34.820312 C 41.953125 34.820312 42.632812 34.726562 43.304688 34.613281 L 43.304688 32.628906 C 43.792969 32.519531 44.261719 32.378906 44.71875 32.199219 L 45.722656 33.9375 C 46.910156 33.460938 47.972656 32.773438 48.9375 31.964844 L 47.925781 30.199219 C 48.277344 29.875 48.601562 29.523438 48.902344 29.152344 L 50.6875 30.175781 C 51.46875 29.1875 52.101562 28.09375 52.546875 26.898438 L 50.6875 25.824219 C 50.824219 25.386719 50.925781 24.929688 51 24.46875 L 53.160156 24.46875 C 53.242188 23.902344 53.332031 23.335938 53.332031 22.75 C 53.332031 22.046875 53.242188 21.367188 53.125 20.695312 L 50.90625 20.695312 C 50.808594 20.246094 50.683594 19.808594 50.527344 19.386719 L 52.449219 18.277344 C 51.972656 17.089844 51.285156 16.027344 50.476562 15.0625 L 48.582031 16.152344 C 48.277344 15.8125 47.949219 15.488281 47.601562 15.191406 L 48.6875 13.3125 C 47.699219 12.53125 46.609375 11.898438 45.410156 11.453125 L 44.328125 13.332031 C 43.890625 13.183594 43.441406 13.0625 42.980469 12.972656 L 42.980469 10.839844 C 42.414062 10.757812 41.84375 10.667969 41.25 10.667969 C 40.554688 10.667969 39.875 10.761719 39.207031 10.875 Z M 41.25 16.320312 C 44.832031 16.320312 47.679688 19.167969 47.679688 22.75 C 47.679688 26.328125 44.832031 29.179688 41.25 29.179688 L 34.820312 29.179688 L 34.820312 22.75 C 34.820312 19.167969 37.671875 16.320312 41.25 16.320312 Z "/>
<path d="M 34.832031 29.183594 L 34.832031 41.242188 C 34.832031 47.914062 29.421875 53.328125 22.746094 53.328125 C 21.734375 53.328125 21.011719 53.210938 20.078125 52.96875 C 18.710938 52.609375 17.59375 51.488281 17.59375 50.183594 C 17.59375 48.609375 18.734375 47.464844 20.445312 47.464844 C 21.257812 47.464844 21.554688 47.621094 22.746094 47.621094 C 26.265625 47.621094 29.117188 44.769531 29.125 41.25 L 29.125 35.707031 C 29.125 35.210938 28.722656 34.808594 28.222656 34.808594 L 24.035156 34.808594 C 22.472656 34.808594 21.210938 33.5625 21.210938 31.996094 C 21.210938 30.421875 22.484375 29.183594 24.0625 29.183594 "/>
<path d="M 29.167969 34.816406 L 29.167969 22.757812 C 29.167969 16.085938 34.582031 10.671875 41.253906 10.671875 C 42.265625 10.671875 42.988281 10.789062 43.925781 11.03125 C 45.289062 11.390625 46.40625 12.511719 46.410156 13.8125 C 46.410156 15.390625 45.265625 16.535156 43.554688 16.535156 C 42.742188 16.535156 42.445312 16.378906 41.253906 16.378906 C 37.734375 16.378906 34.882812 19.230469 34.875 22.75 L 34.875 28.292969 C 34.875 28.789062 35.277344 29.191406 35.777344 29.191406 L 39.96875 29.191406 C 41.527344 29.191406 42.789062 30.4375 42.789062 32.003906 C 42.789062 33.578125 41.515625 34.816406 39.9375 34.816406 "/>
</g>
</svg>
