<svg width="64" xmlns="http://www.w3.org/2000/svg" height="64" viewBox="0 0 64 64" xmlns:xlink="http://www.w3.org/1999/xlink">
<defs>
<linearGradient gradientTransform="matrix(1.33333 0 0 -1.33333 0 -1339.1496)" id="linear0" y1="-1057.362" y2="-1002.362" gradientUnits="userSpaceOnUse" x2="0">
<stop offset="0" style="stop-color:#204a86"/>
<stop offset="1" style="stop-color:#6984aa"/>
</linearGradient>
</defs>
<path style="fill:url(#linear0)" d="M 2.59375 64 L 61.40625 64 C 62.839844 64 64 62.839844 64 61.40625 L 64 2.59375 C 64 1.160156 62.839844 0 61.40625 0 L 2.59375 0 C 1.160156 0 0 1.160156 0 2.59375 L 0 61.40625 C 0 62.839844 1.160156 64 2.59375 64 Z "/>
<g style="fill:#fff">
<path d="M 12.101562 13.347656 C 11.320312 13.429688 10.664062 14.164062 10.667969 14.949219 L 10.667969 49.113281 C 10.667969 49.953125 11.429688 50.714844 12.265625 50.714844 L 51.734375 50.714844 C 52.570312 50.714844 53.332031 49.953125 53.332031 49.113281 L 53.332031 14.949219 C 53.332031 14.109375 52.570312 13.347656 51.734375 13.347656 L 12.265625 13.347656 C 12.210938 13.347656 12.15625 13.347656 12.101562 13.347656 Z M 49.332031 16 C 49.921875 16 50.667969 16.742188 50.667969 17.332031 C 50.667969 17.921875 49.921875 18.667969 49.332031 18.667969 C 48.746094 18.667969 48 17.921875 48 17.332031 C 48 16.742188 48.746094 16 49.332031 16 Z M 13.332031 20 L 50.667969 20 L 50.667969 48 L 13.332031 48 Z "/>
<path style="fill-opacity:.149" d="M 2.667969 0 C 1.1875 0 0 1.1875 0 2.667969 L 0 61.332031 C 0 62.8125 1.1875 64 2.667969 64 L 22.375 64 L 39.5 0 Z "/>
</g>
</svg>
