<svg width="64" xmlns="http://www.w3.org/2000/svg" height="64" viewBox="0 0 64 64" xmlns:xlink="http://www.w3.org/1999/xlink">
<defs>
<linearGradient gradientTransform="matrix(1.33333 0 0 -1.33333 0 -1339.14947)" id="linear0" y1="-1051.702" y2="-1001.474" gradientUnits="userSpaceOnUse" x2="0">
<stop offset="0" style="stop-color:#ce5b00"/>
<stop offset="1" style="stop-color:#edb547"/>
</linearGradient>
</defs>
<path style="fill:url(#linear0)" d="M 2.59375 64 L 61.40625 64 C 62.839844 64 64 62.839844 64 61.40625 L 64 2.59375 C 64 1.160156 62.839844 0 61.40625 0 L 2.59375 0 C 1.160156 0 0 1.160156 0 2.59375 L 0 61.40625 C 0 62.839844 1.160156 64 2.59375 64 Z "/>
<g style="fill:#fff">
<g style="fill-opacity:.941">
<path d="M 12.265625 10.667969 L 12.265625 33.015625 C 12.265625 35.050781 11.488281 39.5625 12.585938 41.265625 C 13.222656 42.257812 14.707031 42.574219 15.679688 42.980469 L 23.441406 46.222656 L 23.441406 23.195312 C 23.441406 21.085938 24.257812 16.328125 23.121094 14.5625 L 20.335938 13.152344 Z "/>
<path d="M 25.613281 46.222656 L 33.066406 44.191406 C 32.011719 39.980469 31.292969 36.617188 34.398438 33.074219 C 35.417969 31.914062 38.136719 31.0625 38.554688 29.554688 L 38.652344 23.535156 L 38.652344 10.667969 L 29.03125 13.277344 C 28.101562 13.554688 26.535156 13.644531 25.933594 14.566406 C 24.796875 16.308594 25.613281 21.101562 25.613281 23.195312 L 25.613281 46.222656 M 40.515625 10.667969 L 40.515625 29.96875 C 44.359375 30.835938 47.816406 33.308594 48.730469 37.757812 L 47.617188 44.492188 C 47.925781 45.832031 50.976562 46.070312 52 46.222656 L 52 13.035156 Z "/>
<path d="M 40.203125 53.332031 L 40.824219 53.332031 C 42.710938 48.5625 47.3125 43.953125 47.015625 38.433594 C 46.679688 32.191406 37.433594 29.671875 34.789062 35.386719 C 31.882812 41.667969 37.660156 48.117188 40.203125 53.332031 Z "/>
</g>
<path style="fill-opacity:.149" d="M 2.667969 0 C 1.1875 0 0 1.1875 0 2.667969 L 0 61.332031 C 0 62.8125 1.1875 64 2.667969 64 L 22.375 64 L 39.5 0 Z "/>
</g>
</svg>
