<svg width="64" xmlns="http://www.w3.org/2000/svg" height="64" viewBox="0 0 64 64" xmlns:xlink="http://www.w3.org/1999/xlink">
<defs>
<linearGradient gradientTransform="matrix(1.33333 0 0 1.33333 .11785 -1339.14959)" id="linear0" y1="1053.158" y2="1004.847" gradientUnits="userSpaceOnUse" x2="0">
<stop offset="0" style="stop-color:#7a8985"/>
<stop offset="1" style="stop-color:#a4a9a2"/>
</linearGradient>
</defs>
<path style="fill:url(#linear0)" d="M 2.710938 0 L 61.523438 0 C 62.957031 0 64.117188 1.160156 64.117188 2.59375 L 64.117188 61.40625 C 64.117188 62.839844 62.957031 64 61.523438 64 L 2.710938 64 C 1.277344 64 0.117188 62.839844 0.117188 61.40625 L 0.117188 2.59375 C 0.117188 1.160156 1.277344 0 2.710938 0 Z "/>
<g style="fill:#fff">
<path style="fill-opacity:.149" d="M 2.667969 0 C 1.1875 0 0 1.1875 0 2.667969 L 0 61.332031 C 0 62.8125 1.1875 64 2.667969 64 L 22.375 64 L 39.5 0 Z "/>
<path d="M 53.355469 18.558594 C 53.355469 21.136719 51.265625 23.226562 48.6875 23.226562 C 46.109375 23.226562 44.023438 21.136719 44.023438 18.558594 C 44.023438 15.980469 46.109375 13.894531 48.6875 13.894531 C 51.265625 13.894531 53.355469 15.980469 53.355469 18.558594 Z "/>
<path d="M 13.289062 20.550781 L 13.289062 48.550781 L 17.289062 48.550781 L 17.289062 20.550781 Z "/>
<path d="M 46.792969 49.902344 L 18.792969 49.902344 L 18.792969 51.234375 L 46.792969 51.234375 Z "/>
<path d="M 44.039062 30.59375 C 44.039062 32.433594 42.546875 33.925781 40.707031 33.925781 C 38.863281 33.925781 37.371094 32.433594 37.371094 30.59375 C 37.371094 28.75 38.863281 27.257812 40.707031 27.257812 C 42.546875 27.257812 44.039062 28.75 44.039062 30.59375 Z "/>
<path d="M 20.023438 18.597656 C 20.023438 21.175781 17.933594 23.261719 15.355469 23.261719 C 12.777344 23.261719 10.6875 21.175781 10.6875 18.597656 C 10.6875 16.019531 12.777344 13.929688 15.355469 13.929688 C 17.933594 13.929688 20.023438 16.019531 20.023438 18.597656 Z "/>
<path d="M 20 50.597656 C 20 53.175781 17.910156 55.261719 15.332031 55.261719 C 12.757812 55.261719 10.667969 53.175781 10.667969 50.597656 C 10.667969 48.019531 12.757812 45.929688 15.332031 45.929688 C 17.910156 45.929688 20 48.019531 20 50.597656 Z "/>
<path d="M 53.355469 50.605469 C 53.355469 53.179688 51.265625 55.269531 48.6875 55.269531 C 46.109375 55.269531 44.023438 53.179688 44.023438 50.605469 C 44.023438 48.027344 46.109375 45.9375 48.6875 45.9375 C 51.265625 45.9375 53.355469 48.027344 53.355469 50.605469 Z "/>
<path d="M 46.703125 20.671875 L 46.703125 48.671875 L 50.703125 48.671875 L 50.703125 20.671875 Z "/>
<path d="M 46.554688 16.5625 L 18.554688 16.5625 L 18.554688 20.5625 L 46.554688 20.5625 Z "/>
<path d="M 47.851562 48.5625 L 16.789062 48.5625 L 16.789062 52.5625 L 47.851562 52.5625 Z "/>
<path d="M 26.707031 30.59375 C 26.707031 32.433594 25.214844 33.925781 23.371094 33.925781 C 21.53125 33.925781 20.039062 32.433594 20.039062 30.59375 C 20.039062 28.75 21.53125 27.257812 23.371094 27.257812 C 25.214844 27.257812 26.707031 28.75 26.707031 30.59375 Z "/>
<path d="M 26.707031 11.925781 C 26.707031 13.765625 25.214844 15.257812 23.371094 15.257812 C 21.53125 15.257812 20.039062 13.765625 20.039062 11.925781 C 20.039062 10.085938 21.53125 8.59375 23.371094 8.59375 C 25.214844 8.59375 26.707031 10.085938 26.707031 11.925781 Z "/>
<path d="M 44.039062 11.925781 C 44.039062 13.765625 42.546875 15.257812 40.707031 15.257812 C 38.863281 15.257812 37.371094 13.765625 37.371094 11.925781 C 37.371094 10.085938 38.863281 8.59375 40.707031 8.59375 C 42.546875 8.59375 44.039062 10.085938 44.039062 11.925781 Z "/>
<path d="M 21.761719 13.371094 L 21.761719 29.5625 L 24.425781 29.5625 L 24.425781 13.371094 Z "/>
<path d="M 39.5625 13.476562 L 39.5625 29.667969 L 42.226562 29.667969 L 42.226562 13.476562 Z "/>
<path d="M 40.152344 10.339844 L 23.960938 10.339844 L 23.960938 13.007812 L 40.152344 13.007812 Z "/>
<path d="M 40.152344 29.195312 L 23.960938 29.195312 L 23.960938 31.863281 L 40.152344 31.863281 Z "/>
<path d="M 23.140625 28.660156 L 13.132812 52.839844 L 15.285156 53.730469 L 25.289062 29.550781 Z "/>
<path d="M 40.976562 28.660156 L 50.980469 52.839844 L 48.832031 53.730469 L 38.824219 29.550781 Z "/>
<path d="M 41.375 10.570312 L 49.957031 18.613281 L 48.71875 19.753906 L 40.132812 11.710938 Z "/>
<path d="M 22.058594 11.089844 L 13.472656 19.132812 L 14.710938 20.273438 L 23.296875 12.230469 Z "/>
</g>
</svg>
