<svg width="64" xmlns="http://www.w3.org/2000/svg" height="64" viewBox="0 0 64 64" xmlns:xlink="http://www.w3.org/1999/xlink">
<defs>
<linearGradient gradientTransform="matrix(1.33333 0 0 -1.33333 0 1403.1496)" id="linear0" y1="1053.158" y2="1004.847" gradientUnits="userSpaceOnUse" x2="0">
<stop offset="0" style="stop-color:#12a5fc"/>
<stop offset="1" style="stop-color:#2875b5"/>
</linearGradient>
</defs>
<path style="fill:url(#linear0)" d="M 2.59375 64 L 61.40625 64 C 62.839844 64 64 62.839844 64 61.40625 L 64 2.59375 C 64 1.160156 62.839844 0 61.40625 0 L 2.59375 0 C 1.160156 0 0 1.160156 0 2.59375 L 0 61.40625 C 0 62.839844 1.160156 64 2.59375 64 Z "/>
<g style="fill:#fff">
<path d="M 38.96875 12.683594 C 39.308594 12.945312 39.703125 13.296875 40.15625 13.746094 C 40.605469 14.15625 41.039062 14.679688 41.453125 15.3125 C 41.867188 15.910156 42.222656 16.621094 42.523438 17.441406 C 42.824219 18.261719 42.976562 19.195312 42.976562 20.242188 C 42.976562 21.285156 42.84375 22.203125 42.582031 22.984375 C 42.316406 23.769531 41.960938 24.476562 41.507812 25.113281 C 41.058594 25.710938 40.550781 26.269531 39.984375 26.792969 C 39.421875 27.277344 38.835938 27.746094 38.234375 28.191406 C 37.859375 28.566406 37.503906 28.957031 37.164062 29.367188 C 36.824219 29.777344 36.65625 30.300781 36.65625 30.9375 C 36.65625 31.570312 36.824219 32.074219 37.164062 32.449219 C 37.503906 32.785156 37.820312 33.082031 38.121094 33.34375 L 40.15625 34.910156 C 40.757812 35.433594 41.339844 35.957031 41.902344 36.480469 C 42.507812 37.003906 43.015625 37.5625 43.425781 38.160156 C 43.878906 38.757812 44.238281 39.429688 44.5 40.175781 C 44.761719 40.921875 44.894531 41.78125 44.894531 42.75 C 44.894531 44.058594 44.574219 45.34375 43.9375 46.613281 C 43.296875 47.882812 42.355469 49.003906 41.113281 49.972656 C 39.871094 50.980469 38.3125 51.785156 36.429688 52.382812 C 34.585938 53.015625 32.460938 53.332031 30.054688 53.332031 C 28.019531 53.332031 26.234375 53.109375 24.691406 52.660156 C 23.1875 52.214844 21.925781 51.617188 20.910156 50.871094 C 19.894531 50.125 19.144531 49.265625 18.652344 48.292969 C 18.164062 47.359375 17.921875 46.371094 17.921875 45.328125 C 17.921875 44.320312 18.238281 43.160156 18.878906 41.855469 C 19.480469 40.585938 20.609375 39.464844 22.265625 38.496094 C 23.128906 37.972656 24.050781 37.542969 25.03125 37.207031 C 26.046875 36.910156 27.042969 36.667969 28.019531 36.480469 C 29 36.292969 29.921875 36.164062 30.785156 36.085938 C 31.652344 36.011719 32.40625 35.957031 33.042969 35.917969 C 32.628906 35.398438 32.234375 34.855469 31.859375 34.296875 C 31.519531 33.699219 31.351562 32.96875 31.351562 32.113281 C 31.351562 31.625 31.40625 31.234375 31.519531 30.9375 C 31.632812 30.601562 31.765625 30.265625 31.914062 29.929688 C 31.613281 29.964844 31.3125 30.003906 31.011719 30.039062 C 30.710938 30.039062 30.410156 30.039062 30.109375 30.039062 C 28.605469 30.039062 27.269531 29.796875 26.101562 29.3125 C 24.9375 28.789062 23.957031 28.117188 23.167969 27.296875 C 22.378906 26.476562 21.777344 25.542969 21.363281 24.496094 C 20.949219 23.414062 20.742188 22.332031 20.742188 21.25 C 20.742188 19.941406 21.042969 18.636719 21.644531 17.328125 C 22.246094 15.984375 23.148438 14.792969 24.351562 13.746094 C 25.972656 12.441406 27.664062 11.601562 29.433594 11.226562 C 31.238281 10.851562 32.914062 10.667969 34.453125 10.667969 L 46.078125 10.667969 L 42.46875 12.683594 L 38.96875 12.683594 M 32.761719 28.472656 C 33.476562 28.472656 34.171875 28.324219 34.851562 28.023438 C 35.566406 27.726562 36.148438 27.351562 36.597656 26.90625 C 37.238281 26.269531 37.632812 25.5625 37.785156 24.777344 C 37.933594 23.992188 38.011719 23.339844 38.011719 22.816406 C 38.011719 21.808594 37.859375 20.707031 37.558594 19.511719 C 37.257812 18.320312 36.804688 17.199219 36.203125 16.152344 C 35.601562 15.109375 34.851562 14.25 33.945312 13.578125 C 33.082031 12.867188 32.066406 12.515625 30.898438 12.515625 C 30.148438 12.515625 29.414062 12.683594 28.699219 13.019531 C 27.984375 13.355469 27.402344 13.800781 26.949219 14.363281 C 26.460938 14.960938 26.121094 15.613281 25.933594 16.320312 C 25.78125 17.03125 25.707031 17.757812 25.707031 18.503906 C 25.707031 19.4375 25.839844 20.484375 26.101562 21.640625 C 26.402344 22.796875 26.835938 23.882812 27.402344 24.890625 C 28.003906 25.898438 28.734375 26.753906 29.601562 27.464844 C 30.503906 28.136719 31.558594 28.472656 32.761719 28.472656 M 41.113281 44.933594 C 41.113281 44.226562 40.980469 43.570312 40.71875 42.976562 C 40.492188 42.414062 40.136719 41.855469 39.648438 41.292969 C 39.15625 40.734375 38.519531 40.15625 37.726562 39.558594 C 36.9375 38.960938 36.015625 38.289062 34.960938 37.542969 C 34.738281 37.507812 34.53125 37.488281 34.34375 37.488281 C 34.191406 37.488281 33.964844 37.488281 33.664062 37.488281 C 33.550781 37.488281 33.289062 37.488281 32.875 37.488281 C 32.460938 37.523438 31.972656 37.5625 31.40625 37.597656 C 30.84375 37.675781 30.242188 37.765625 29.601562 37.878906 C 28.960938 38.027344 28.339844 38.195312 27.738281 38.382812 C 27.4375 38.496094 27.003906 38.664062 26.441406 38.886719 C 25.914062 39.148438 25.386719 39.503906 24.859375 39.949219 C 24.335938 40.398438 23.863281 40.957031 23.449219 41.628906 C 23.074219 42.300781 22.886719 43.144531 22.886719 44.152344 C 22.886719 46.167969 23.769531 47.808594 25.539062 49.078125 C 27.34375 50.347656 29.769531 50.980469 32.816406 50.980469 C 35.527344 50.980469 37.578125 50.402344 38.96875 49.246094 C 40.398438 48.125 41.113281 46.6875 41.113281 44.933594 "/>
<path style="fill-opacity:.149" d="M 0 0 L 0 64 L 22.375 64 L 39.5 0 Z "/>
</g>
</svg>
