<svg width="64" xmlns="http://www.w3.org/2000/svg" height="64" viewBox="0 0 64 64" xmlns:xlink="http://www.w3.org/1999/xlink">
<defs>
<linearGradient gradientTransform="matrix(1.33333 0 0 1.33333 0 -1339.1496)" id="linear0" y1="1053.158" y2="1004.847" gradientUnits="userSpaceOnUse" x2="0">
<stop offset="0" style="stop-color:#cc9e52"/>
<stop offset="1" style="stop-color:#e08559"/>
</linearGradient>
</defs>
<path style="fill:url(#linear0)" d="M 2.59375 0 L 61.40625 0 C 62.839844 0 64 1.160156 64 2.59375 L 64 61.40625 C 64 62.839844 62.839844 64 61.40625 64 L 2.59375 64 C 1.160156 64 0 62.839844 0 61.40625 L 0 2.59375 C 0 1.160156 1.160156 0 2.59375 0 Z "/>
<path style="fill:#fff" d="M 31.972656 16.078125 C 25.414062 16.078125 20.105469 21.386719 20.105469 27.945312 C 20.105469 34.503906 25.414062 39.84375 31.972656 39.84375 C 38.53125 39.84375 43.839844 34.503906 43.839844 27.945312 C 43.839844 21.386719 38.53125 16.078125 31.972656 16.078125 Z M 31.972656 25.765625 C 33.179688 25.765625 34.152344 26.738281 34.152344 27.945312 C 34.152344 29.152344 33.179688 30.15625 31.972656 30.15625 C 30.765625 30.15625 29.796875 29.152344 29.796875 27.945312 C 29.796875 26.738281 30.765625 25.765625 31.972656 25.765625 Z "/>
<path style="fill:none;stroke:#fff;stroke-width:2" d="M 13.702148 1013.3622 L 34.297852 1013.3622 C 35.170898 1013.3622 35.876953 1014.068255 35.876953 1014.941302 L 35.876953 1041.783098 C 35.876953 1042.656145 35.170898 1043.3622 34.297852 1043.3622 L 13.702148 1043.3622 C 12.829102 1043.3622 12.123047 1042.656145 12.123047 1041.783098 L 12.123047 1014.941302 C 12.123047 1014.068255 12.829102 1013.3622 13.702148 1013.3622 Z " transform="matrix(1.33333 0 0 1.33333 0 -1339.1496)"/>
<g style="fill:#fff">
<path d="M 36 41.332031 L 41.332031 48 L 44 48 L 44 45.332031 Z "/>
<path style="fill-opacity:.149" d="M 2.667969 0 C 1.1875 0 0 1.1875 0 2.667969 L 0 61.332031 C 0 62.8125 1.1875 64 2.667969 64 L 22.375 64 L 39.5 0 Z "/>
</g>
</svg>
