<svg width="64" xmlns="http://www.w3.org/2000/svg" height="64" viewBox="0 0 64 64" xmlns:xlink="http://www.w3.org/1999/xlink">
<defs>
<linearGradient gradientTransform="matrix(1.33333 0 0 -1.33333 0 1403.1496)" id="linear0" y1="1053.158" y2="1004.847" gradientUnits="userSpaceOnUse" x2="0">
<stop offset="0" style="stop-color:#2396ea"/>
<stop offset="1" style="stop-color:#116cac"/>
</linearGradient>
</defs>
<path style="fill:url(#linear0)" d="M 2.59375 64 L 61.40625 64 C 62.839844 64 64 62.839844 64 61.40625 L 64 2.59375 C 64 1.160156 62.839844 0 61.40625 0 L 2.59375 0 C 1.160156 0 0 1.160156 0 2.59375 L 0 61.40625 C 0 62.839844 1.160156 64 2.59375 64 Z "/>
<g style="fill:#fff">
<path style="fill-opacity:.8" d="M 13.875 26.957031 C 13.1875 27.039062 12.519531 27.304688 11.957031 27.792969 C 10.457031 29.089844 10.285156 31.375 11.582031 32.875 C 12.785156 34.261719 14.804688 34.5 16.292969 33.5 C 16.292969 33.511719 16.289062 33.527344 16.292969 33.542969 L 27.542969 31.207031 L 16.792969 27.957031 C 15.992188 27.179688 14.925781 26.832031 13.875 26.957031 Z "/>
<g style="fill-opacity:.4">
<path d="M 47.792969 20.832031 C 47.105469 20.914062 46.4375 21.179688 45.875 21.667969 C 45.449219 22.035156 45.125 22.476562 44.917969 22.957031 L 36.25 29.417969 L 47.25 27.875 C 48.371094 28.191406 49.636719 27.945312 50.582031 27.125 C 52.085938 25.828125 52.257812 23.542969 50.957031 22.042969 C 50.148438 21.105469 48.9375 20.695312 47.792969 20.832031 Z "/>
<path d="M 42.417969 13.75 C 41.5 13.683594 40.542969 13.976562 39.792969 14.625 C 38.917969 15.378906 38.527344 16.472656 38.582031 17.542969 L 34.207031 27.875 L 43.082031 20.832031 C 43.589844 20.695312 44.078125 20.449219 44.5 20.082031 C 46 18.785156 46.171875 16.5 44.875 15 C 44.226562 14.25 43.332031 13.816406 42.417969 13.75 Z "/>
</g>
<g style="fill-opacity:.6">
<path d="M 33.582031 10.667969 C 32.667969 10.601562 31.707031 10.890625 30.957031 11.542969 C 29.570312 12.742188 29.335938 14.765625 30.332031 16.25 L 31.832031 27.292969 L 35.832031 16.792969 C 37.164062 15.472656 37.285156 13.355469 36.042969 11.917969 C 35.390625 11.167969 34.5 10.734375 33.582031 10.667969 Z "/>
<path d="M 23.875 12.292969 C 23.1875 12.375 22.519531 12.679688 21.957031 13.167969 C 20.457031 14.464844 20.285156 16.707031 21.582031 18.207031 C 21.976562 18.660156 22.480469 19.003906 23 19.207031 L 29.5 27.417969 L 27.75 17 C 28.121094 15.84375 27.894531 14.527344 27.042969 13.542969 C 26.230469 12.605469 25.019531 12.15625 23.875 12.292969 Z "/>
</g>
<path style="fill-opacity:.8" d="M 17.542969 18.375 C 16.625 18.308594 15.667969 18.601562 14.917969 19.25 C 13.414062 20.546875 13.242188 22.832031 14.542969 24.332031 C 15.277344 25.183594 16.332031 25.570312 17.375 25.542969 L 28.292969 29 L 20.75 21.125 C 20.617188 20.589844 20.386719 20.070312 20 19.625 C 19.351562 18.875 18.457031 18.441406 17.542969 18.375 Z "/>
<path d="M 27.707031 33.375 L 16.667969 36.082031 C 15.621094 35.882812 14.535156 36.125 13.667969 36.875 C 12.164062 38.171875 11.992188 40.457031 13.292969 41.957031 C 14.589844 43.460938 16.832031 43.632812 18.332031 42.332031 C 18.742188 41.980469 19.042969 41.546875 19.25 41.082031 Z "/>
<path d="M 28.625 35.375 L 20.832031 43.25 C 20.34375 43.390625 19.871094 43.644531 19.457031 44 C 17.957031 45.296875 17.785156 47.582031 19.082031 49.082031 C 20.382812 50.585938 22.664062 50.757812 24.167969 49.457031 C 25.082031 48.667969 25.484375 47.496094 25.375 46.375 C 25.40625 46.382812 25.429688 46.40625 25.457031 46.417969 Z "/>
<path d="M 40.761719 31.394531 C 40.183594 31.394531 39.714844 31.863281 39.714844 32.441406 L 39.714844 33.875 C 39.1875 34.039062 38.664062 34.242188 38.183594 34.496094 L 37.171875 33.484375 C 36.761719 33.074219 36.078125 33.074219 35.667969 33.484375 L 33.449219 35.703125 C 33.039062 36.113281 33.039062 36.796875 33.449219 37.207031 L 34.460938 38.21875 C 34.207031 38.699219 34.003906 39.222656 33.839844 39.753906 L 32.402344 39.753906 C 31.824219 39.753906 31.359375 40.21875 31.359375 40.796875 L 31.359375 43.929688 C 31.359375 44.511719 31.824219 44.976562 32.402344 44.976562 L 33.839844 44.976562 C 34.003906 45.507812 34.207031 46.027344 34.460938 46.511719 L 33.449219 47.523438 C 33.039062 47.933594 33.039062 48.613281 33.449219 49.023438 L 35.667969 51.242188 C 36.078125 51.652344 36.761719 51.652344 37.171875 51.242188 L 38.183594 50.230469 C 38.664062 50.484375 39.1875 50.691406 39.714844 50.851562 L 39.714844 52.289062 C 39.714844 52.867188 40.183594 53.332031 40.761719 53.332031 L 43.894531 53.332031 C 44.472656 53.332031 44.941406 52.867188 44.941406 52.289062 L 44.941406 50.851562 C 45.46875 50.691406 45.992188 50.484375 46.472656 50.230469 L 47.484375 51.242188 C 47.894531 51.652344 48.578125 51.652344 48.988281 51.242188 L 51.207031 49.023438 C 51.617188 48.613281 51.617188 47.933594 51.207031 47.523438 L 50.195312 46.511719 C 50.449219 46.027344 50.652344 45.507812 50.816406 44.976562 L 52.253906 44.976562 C 52.832031 44.976562 53.296875 44.511719 53.296875 43.929688 L 53.296875 40.796875 C 53.296875 40.21875 52.832031 39.753906 52.253906 39.753906 L 50.816406 39.753906 C 50.652344 39.222656 50.449219 38.699219 50.195312 38.21875 L 51.207031 37.207031 C 51.617188 36.796875 51.617188 36.113281 51.207031 35.703125 L 48.988281 33.484375 C 48.578125 33.074219 47.894531 33.074219 47.484375 33.484375 L 46.472656 34.496094 C 45.992188 34.242188 45.46875 34.039062 44.941406 33.875 L 44.941406 32.441406 C 44.941406 31.863281 44.472656 31.394531 43.894531 31.394531 Z M 42.328125 39.753906 C 43.769531 39.753906 44.941406 40.921875 44.941406 42.363281 C 44.941406 43.808594 43.769531 44.976562 42.328125 44.976562 C 40.886719 44.976562 39.714844 43.808594 39.714844 42.363281 C 39.714844 40.921875 40.886719 39.753906 42.328125 39.753906 Z "/>
<path style="fill-opacity:.149" d="M 0 0 L 0 64 L 22.375 64 L 39.5 0 Z "/>
</g>
</svg>
