<svg width="64" xmlns="http://www.w3.org/2000/svg" height="64" viewBox="0 0 64 64" xmlns:xlink="http://www.w3.org/1999/xlink">
<g style="fill:#78b97f">
<path d="M 10.691406 14.757812 L 10.691406 49.421875 L 49.210938 49.421875 L 49.210938 14.757812 Z M 11.976562 16.039062 L 47.925781 16.039062 L 47.925781 48.140625 L 11.976562 48.140625 Z "/>
<path d="M 47.976562 12.039062 L 47.976562 53.375 L 53.308594 53.375 L 53.308594 50.707031 L 50.640625 50.707031 L 50.640625 12.039062 Z "/>
<path d="M 17.234375 18.707031 L 28.046875 18.707031 C 29.480469 18.707031 30.640625 19.867188 30.640625 21.300781 L 30.640625 32.113281 C 30.640625 33.546875 29.480469 34.707031 28.046875 34.707031 L 17.234375 34.707031 C 15.804688 34.707031 14.640625 33.546875 14.640625 32.113281 L 14.640625 21.300781 C 14.640625 19.867188 15.804688 18.707031 17.234375 18.707031 Z "/>
<path d="M 33.308594 18.707031 L 35.976562 18.707031 L 35.976562 22.707031 L 33.308594 22.707031 Z "/>
<path d="M 37.308594 18.707031 L 39.976562 18.707031 L 39.976562 22.707031 L 37.308594 22.707031 Z "/>
<path d="M 41.308594 18.707031 L 43.976562 18.707031 L 43.976562 22.707031 L 41.308594 22.707031 Z "/>
<path d="M 33.308594 24.039062 L 43.976562 24.039062 L 43.976562 28.039062 L 33.308594 28.039062 Z "/>
<path d="M 33.308594 29.375 L 43.976562 29.375 L 43.976562 33.375 L 33.308594 33.375 Z "/>
<path d="M 14.640625 36.039062 L 43.976562 36.039062 L 43.976562 38.707031 L 14.640625 38.707031 Z "/>
<path d="M 14.640625 40.039062 L 43.976562 40.039062 L 43.976562 42.707031 L 14.640625 42.707031 Z "/>
<path d="M 14.640625 44.039062 L 18.640625 44.039062 L 18.640625 45.332031 L 14.640625 45.332031 Z "/>
<path d="M 19.976562 44.039062 L 23.976562 44.039062 L 23.976562 45.332031 L 19.976562 45.332031 Z "/>
<path d="M 27.976562 44.039062 L 30.640625 44.039062 L 30.640625 45.332031 L 27.976562 45.332031 Z "/>
<path d="M 31.976562 44.039062 L 34.640625 44.039062 L 34.640625 45.332031 L 31.976562 45.332031 Z "/>
<path d="M 35.976562 44.039062 L 38.640625 44.039062 L 38.640625 45.332031 L 35.976562 45.332031 Z "/>
<path d="M 39.976562 44.039062 L 43.976562 44.039062 L 43.976562 45.332031 L 39.976562 45.332031 Z "/>
</g>
</svg>
