<svg width="64" xmlns="http://www.w3.org/2000/svg" height="64" viewBox="0 0 64 64" xmlns:xlink="http://www.w3.org/1999/xlink">
<defs>
<linearGradient gradientTransform="matrix(1.33333 0 0 1.33333 .00007 -1339.14967)" id="linear0" y1="1053.158" y2="1028.182" gradientUnits="userSpaceOnUse" x2="0">
<stop offset="0" style="stop-color:#1e1e1e"/>
<stop offset="1" style="stop-color:#292929"/>
</linearGradient>
</defs>
<path style="fill:url(#linear0)" d="M 2.582031 0 C 1.148438 0 0 1.144531 0 2.582031 L 0 61.417969 C 0 62.855469 1.148438 64 2.582031 64 L 61.417969 64 C 62.855469 64 64 62.855469 64 61.417969 L 64 2.582031 C 64 1.144531 62.855469 0 61.417969 0 Z "/>
<g style="fill:#fff">
<path style="fill-opacity:.149" d="M 2.667969 0 C 1.1875 0 0 1.1875 0 2.667969 L 0 61.332031 C 0 62.8125 1.1875 64 2.667969 64 L 22.375 64 L 39.5 0 Z "/>
<path style="stroke:#fff;stroke-linejoin:round" d="M 116.025076 -44.8577 C 73.374366 -44.8577 55.27755 -8.267581 55.27755 8.838016 L 55.27755 81.621765 C 26.305653 92.751731 5.206862 126.70804 5.206862 166.866545 C 5.206862 216.087617 36.869209 255.991236 75.923213 255.991236 C 77.820688 255.991236 79.689843 255.906275 81.558997 255.708031 L 81.558997 8.01672 C 87.562949 -13.421917 98.381389 -19.312586 110.870741 -19.907317 L 110.870741 53.30124 C 110.870741 65.252501 123.275131 85.869843 142.618049 85.869843 L 183.994336 85.869843 C 203.337254 85.869843 215.713324 65.252501 215.713324 53.30124 L 215.713324 -19.907317 C 228.174355 -19.312586 239.049436 -13.421917 245.053388 8.01672 L 245.053388 255.594749 C 247.234068 255.849634 249.443069 255.991236 251.68039 255.991236 C 252.105198 255.991236 252.501686 255.962916 252.926494 255.962916 C 246.611016 261.117252 239.870732 266.158305 230.326715 270.151499 L 194.359648 270.151499 C 192.207288 262.051829 180.482591 255.906275 166.322328 255.906275 C 150.661078 255.906275 137.945162 263.467855 137.945162 272.841949 C 137.945162 282.187722 150.661078 289.777623 166.322328 289.777623 C 179.434731 289.777623 190.451416 284.453364 193.708276 277.23163 L 193.708276 277.401553 L 233.215408 277.401553 C 246.469414 271.227679 257.57106 263.297932 266.945153 253.895518 C 298.664141 245.087834 322.396741 209.488935 322.396741 166.866545 C 322.396741 126.226591 300.788181 91.930436 271.306514 81.196957 L 271.306514 8.838016 C 271.306514 -8.267581 253.238019 -44.8577 210.587309 -44.8577 C 193.170186 -44.8577 189.969967 -36.446504 189.969967 -36.446504 L 189.969967 48.968199 C 187.534402 60.126486 182.465028 67.008374 174.252075 68.764246 L 152.36031 68.764246 C 144.147357 67.008374 139.077983 60.126486 136.642418 48.968199 L 136.642418 -36.446504 C 136.642418 -36.446504 133.442199 -44.8577 116.025076 -44.8577 Z " transform="matrix(.13793 0 0 .13793 9.40682 15.1091)"/>
<path d="M 23.324219 31.503906 L 25.636719 31.503906 C 26.6875 31.503906 27.453125 31.765625 27.925781 32.285156 C 28.402344 32.804688 28.640625 33.628906 28.640625 34.761719 C 28.640625 35.53125 28.535156 36.164062 28.328125 36.65625 C 28.121094 37.152344 27.84375 37.449219 27.5 37.546875 L 27.5 37.636719 C 27.96875 37.820312 28.308594 38.160156 28.515625 38.660156 C 28.722656 39.15625 28.828125 39.820312 28.828125 40.652344 C 28.828125 41.824219 28.582031 42.742188 28.09375 43.398438 C 27.605469 44.058594 26.941406 44.386719 26.101562 44.386719 L 23.324219 44.386719 L 23.324219 31.503906 M 24.898438 36.605469 L 25.8125 36.605469 C 26.238281 36.605469 26.546875 36.492188 26.738281 36.261719 C 26.929688 36.03125 27.027344 35.652344 27.027344 35.125 C 27.027344 34.632812 26.921875 34.277344 26.710938 34.066406 C 26.503906 33.847656 26.175781 33.742188 25.726562 33.742188 L 24.898438 33.742188 L 24.898438 36.605469 M 24.898438 38.773438 L 24.898438 42.132812 L 25.925781 42.132812 C 26.359375 42.132812 26.679688 41.988281 26.882812 41.699219 C 27.089844 41.410156 27.195312 40.972656 27.195312 40.378906 C 27.195312 39.308594 26.753906 38.773438 25.875 38.773438 L 24.898438 38.773438 "/>
<path d="M 30.3125 44.386719 L 30.3125 31.503906 L 31.886719 31.503906 L 31.886719 42.132812 L 34.894531 42.132812 L 34.894531 44.386719 L 30.3125 44.386719 "/>
<path d="M 40.453125 44.386719 L 36.179688 44.386719 L 36.179688 31.503906 L 40.453125 31.503906 L 40.453125 33.742188 L 37.753906 33.742188 L 37.753906 36.570312 L 40.265625 36.570312 L 40.265625 38.808594 L 37.753906 38.808594 L 37.753906 42.132812 L 40.453125 42.132812 L 40.453125 44.386719 "/>
</g>
</svg>
