<svg width="64" xmlns="http://www.w3.org/2000/svg" height="64" viewBox="0 0 64 64" xmlns:xlink="http://www.w3.org/1999/xlink">
<path style="fill:#e59759" d="M 29.332031 10 C 22.644531 10 17.929688 12.648438 16.332031 13.667969 L 15.957031 11.75 C 15.839844 11.046875 15.074219 10.523438 14.375 10.667969 C 13.699219 10.824219 13.226562 11.574219 13.375 12.25 L 21.375 52.25 C 21.394531 53.019531 22.203125 53.667969 22.960938 53.523438 C 23.71875 53.375 24.226562 52.472656 23.957031 51.75 L 20.125 32.5 C 22.128906 31.359375 26.234375 29.5 31.667969 29.5 C 35.554688 29.5 38.445312 30.46875 40.917969 31.457031 C 43.386719 32.445312 45.445312 33.5 47.667969 33.5 C 49.742188 33.5 51.164062 33.160156 52.082031 32.792969 C 53.003906 32.425781 53.457031 31.957031 53.457031 31.957031 L 53.707031 31.75 L 53.667969 31.417969 L 51.332031 13.25 L 51.167969 11.917969 L 50.207031 12.875 C 50.207031 12.875 49.996094 13.074219 49.25 13.375 C 48.503906 13.675781 47.257812 14 45.332031 14 C 43.554688 14 41.613281 13.054688 39.082031 12.042969 C 36.554688 11.03125 33.445312 10 29.332031 10 Z "/>
</svg>
