<svg width="64" xmlns="http://www.w3.org/2000/svg" height="64" viewBox="0 0 64 64" xmlns:xlink="http://www.w3.org/1999/xlink">
<path style="fill:#8babb7" d="M 13.25 10.667969 C 11.8125 10.667969 10.667969 11.8125 10.667969 13.25 L 10.667969 41.417969 C 10.667969 42.851562 11.8125 44 13.25 44 L 32 44 L 42.667969 53.332031 L 42.667969 44 L 50.75 44 C 52.1875 44 53.332031 42.851562 53.332031 41.417969 L 53.332031 13.25 C 53.332031 11.8125 52.1875 10.667969 50.75 10.667969 Z M 30.207031 17.292969 L 33.625 17.292969 L 33.625 24.5 L 39.332031 21.207031 L 40.917969 23.957031 L 35.125 27.332031 L 40.917969 30.707031 L 39.332031 33.457031 L 33.625 30.167969 L 33.625 37.375 L 30.207031 37.375 L 30.207031 30.167969 L 24.5 33.457031 L 22.917969 30.707031 L 28.707031 27.332031 L 22.917969 23.957031 L 24.5 21.207031 L 30.207031 24.5 Z "/>
</svg>
