<svg width="64" xmlns="http://www.w3.org/2000/svg" height="64" viewBox="0 0 64 64" xmlns:xlink="http://www.w3.org/1999/xlink">
<g style="fill:none;stroke:#eea254;stroke-linecap:round">
<path style="stroke-width:3.487" d="M 28.157603 27.54439 C 28.157603 37.376198 20.185867 45.347934 10.354059 45.347934 C 0.522251 45.347934 -7.449485 37.376198 -7.449485 27.54439 C -7.449485 17.712582 0.522251 9.740845 10.354059 9.740845 C 20.185867 9.740845 28.157603 17.712582 28.157603 27.54439 Z " transform="matrix(1.27893 0 0 1.27893 18.75786 -3.22742)"/>
<path style="stroke-width:22.267" d="M 127.328125 -128.03125 L 127.328125 -82.28125 L 168.953125 -40.65625 " transform="matrix(.25 0 0 .25 0 52)"/>
<g style="stroke-width:3.884">
<path d="M 127.96875 -158.546875 L 127.96875 -146.40625 " transform="matrix(.25 0 0 .25 0 52)"/>
<path d="M 127.96875 -13.0625 L 127.96875 -0.9375 " transform="matrix(.25 0 0 .25 0 52)"/>
<path d="M 49.671875 -78.359375 L 61.8125 -78.359375 " transform="matrix(.25 0 0 .25 0 52)"/>
<path d="M 193.421875 -78.359375 L 205.5625 -78.359375 " transform="matrix(.25 0 0 .25 0 52)"/>
</g>
</g>
</svg>
