<svg width="64" xmlns="http://www.w3.org/2000/svg" height="64" viewBox="0 0 64 64" xmlns:xlink="http://www.w3.org/1999/xlink">
<defs>
<linearGradient gradientTransform="matrix(1.33333 0 0 -1.33333 0 -1339.1496)" id="linear0" y1="-1003.614" x1="25.456" y2="-1052.934" gradientUnits="userSpaceOnUse" x2="24.489">
<stop offset="0" style="stop-color:#9ddf5f"/>
<stop offset="1" style="stop-color:#3d790a"/>
</linearGradient>
</defs>
<path style="fill:url(#linear0)" d="M 2.59375 64 L 61.40625 64 C 62.84375 64 64 62.84375 64 61.40625 L 64 2.59375 C 64 1.15625 62.84375 0 61.40625 0 L 2.59375 0 C 1.15625 0 0 1.15625 0 2.59375 L 0 61.40625 C 0 62.84375 1.15625 64 2.59375 64 Z "/>
<g style="fill:#fff">
<path style="fill-opacity:.149" d="M 0 0 L 0 64 L 22.375 64 L 39.5 0 Z "/>
<path d="M 29.332031 10.667969 L 29.332031 14.875 C 26.53125 15.304688 23.9375 16.398438 21.75 18 L 18.792969 15.042969 L 15.042969 18.792969 L 18 21.75 C 16.398438 23.941406 15.304688 26.53125 14.875 29.332031 L 10.667969 29.332031 L 10.667969 34.667969 L 14.875 34.667969 C 15.304688 37.46875 16.398438 40.058594 18 42.25 L 15.042969 45.207031 L 18.792969 48.957031 L 21.75 46 C 23.9375 47.601562 26.53125 48.695312 29.332031 49.125 L 29.332031 53.332031 L 34.667969 53.332031 L 34.667969 49.125 C 37.46875 48.695312 40.0625 47.601562 42.25 46 L 45.207031 48.957031 L 48.957031 45.207031 L 46 42.25 C 47.601562 40.058594 48.695312 37.46875 49.125 34.667969 L 53.332031 34.667969 L 53.332031 29.332031 L 49.125 29.332031 C 48.695312 26.53125 47.601562 23.941406 46 21.75 L 48.957031 18.792969 L 45.207031 15.042969 L 42.25 18 C 40.0625 16.398438 37.46875 15.304688 34.667969 14.875 L 34.667969 10.667969 Z M 28 17.167969 C 35.878906 17.167969 35.875 26.25 35.875 26.25 L 35.875 35.332031 C 35.875 35.332031 35.859375 38.390625 34.042969 40.207031 C 32.222656 42.027344 30.417969 42.625 30.417969 42.625 C 30.417969 42.625 30.414062 43.851562 31.625 44.457031 C 32.835938 45.0625 33.457031 45.042969 33.457031 45.042969 L 33.457031 47.457031 C 33.457031 47.457031 32.816406 48.082031 31 48.082031 C 29.183594 48.082031 27.398438 46.859375 26.792969 45.042969 C 26.1875 43.222656 26.167969 42.625 26.167969 42.625 C 26.167969 42.625 24.683594 42.933594 22.542969 40.792969 C 21.328125 39.578125 20.082031 37.152344 20.082031 35.332031 L 20.082031 25.667969 C 20.082031 25.667969 20.121094 17.167969 28 17.167969 Z M 40 18.417969 L 41.832031 18.417969 L 41.832031 23.25 L 44.832031 23.25 L 44.832031 25.667969 L 41.832031 25.667969 L 41.832031 37.207031 C 41.832031 37.207031 42.414062 38.417969 43.625 38.417969 C 44.535156 38.417969 44.777344 38.046875 44.832031 37.875 L 44.832031 40.207031 C 44.832031 40.207031 44.238281 41.417969 41.207031 41.417969 C 38.179688 41.417969 38.167969 38.417969 38.167969 38.417969 L 38.167969 25.667969 L 36.957031 25.667969 L 36.957031 23.25 L 38.167969 23.25 Z M 28.375 20.207031 C 25.34375 20.207031 25.332031 23.832031 25.332031 23.832031 L 25.332031 35.332031 C 25.332031 35.332031 25.34375 39.582031 28.375 39.582031 C 31.40625 39.582031 31.417969 35.332031 31.417969 35.332031 L 31.417969 23.207031 C 31.417969 23.207031 31.40625 20.207031 28.375 20.207031 Z "/>
</g>
</svg>
