<svg width="64" xmlns="http://www.w3.org/2000/svg" height="64" viewBox="0 0 64 64" xmlns:xlink="http://www.w3.org/1999/xlink">
<defs>
<linearGradient gradientTransform="matrix(1.33333 0 0 1.33333 0 -1339.1496)" id="linear0" y1="1052.362" y2="1002.362" gradientUnits="userSpaceOnUse" x2="0">
<stop offset="0" style="stop-color:#754f7a"/>
<stop offset="1" style="stop-color:#ab7585"/>
</linearGradient>
</defs>
<path style="fill:url(#linear0)" d="M 2.59375 0 L 61.40625 0 C 62.839844 0 64 1.160156 64 2.59375 L 64 61.40625 C 64 62.839844 62.839844 64 61.40625 64 L 2.59375 64 C 1.160156 64 0 62.839844 0 61.40625 L 0 2.59375 C 0 1.160156 1.160156 0 2.59375 0 Z "/>
<path style="fill:#fff;fill-opacity:.149" d="M 0 0 L 0 64 L 22.375 64 L 39.5 0 Z "/>
<path style="fill:none;stroke:#fff;stroke-linejoin:round;stroke-linecap:round;stroke-width:2" d="M 10.467773 1019.394427 L 37.532227 1019.394427 C 38.34375 1019.394427 39 1020.050677 39 1020.85927 L 39 1037.9247 C 39 1038.736223 38.34375 1039.392473 37.532227 1039.392473 L 10.467773 1039.392473 C 9.65625 1039.392473 9 1038.736223 9 1037.9247 L 9 1020.85927 C 9 1020.050677 9.65625 1019.394427 10.467773 1019.394427 Z " transform="matrix(1.33333 0 0 1.33333 0 -1339.1496)"/>
<g style="fill:#fff">
<path d="M 17.332031 17.332031 L 22.667969 17.332031 C 23.402344 17.332031 24 17.929688 24 18.667969 C 24 19.402344 23.402344 20 22.667969 20 L 17.332031 20 C 16.597656 20 16 19.402344 16 18.667969 C 16 17.929688 16.597656 17.332031 17.332031 17.332031 Z "/>
<path d="M 46.667969 22.667969 L 48 22.667969 C 48.738281 22.667969 49.332031 23.261719 49.332031 24 L 49.332031 25.332031 C 49.332031 26.070312 48.738281 26.667969 48 26.667969 L 46.667969 26.667969 C 45.929688 26.667969 45.332031 26.070312 45.332031 25.332031 L 45.332031 24 C 45.332031 23.261719 45.929688 22.667969 46.667969 22.667969 Z "/>
</g>
<path style="fill:none;stroke:#fff;stroke-width:2" d="M 31.000977 26.5 C 31.000977 30.088867 28.088867 33.000977 24.5 33.000977 C 20.911133 33.000977 17.999023 30.088867 17.999023 26.5 C 17.999023 22.911133 20.911133 19.999023 24.5 19.999023 C 28.088867 19.999023 31.000977 22.911133 31.000977 26.5 Z " transform="matrix(1.33333 0 0 1.33333 -.66667 -1.33333)"/>
</svg>
