<svg width="64" xmlns="http://www.w3.org/2000/svg" height="64" viewBox="0 0 64 64" xmlns:xlink="http://www.w3.org/1999/xlink">
<defs>
<linearGradient gradientTransform="matrix(1.33333 0 0 1.33333 0 -1339.1496)" id="linear0" y1="1053.158" y2="1004.847" gradientUnits="userSpaceOnUse" x2="0">
<stop offset="0" style="stop-color:#000"/>
<stop offset="1" style="stop-color:#5a5d60"/>
</linearGradient>
</defs>
<path style="fill:url(#linear0)" d="M 2.59375 0 L 61.40625 0 C 62.839844 0 64 1.160156 64 2.59375 L 64 61.40625 C 64 62.839844 62.839844 64 61.40625 64 L 2.59375 64 C 1.160156 64 0 62.839844 0 61.40625 L 0 2.59375 C 0 1.160156 1.160156 0 2.59375 0 Z "/>
<g style="fill:#fff">
<path style="fill-opacity:.149" d="M 0 0 L 0 64 L 22.375 64 L 39.5 0 Z "/>
<path d="M 44 13.34375 C 38.871094 13.34375 34.667969 17.546875 34.667969 22.675781 C 34.667969 27.804688 38.871094 32.011719 44 32.011719 C 49.132812 32.011719 53.335938 27.804688 53.335938 22.675781 C 53.335938 17.546875 49.132812 13.34375 44 13.34375 Z M 44 16.476562 C 47.453125 16.476562 50.203125 19.226562 50.203125 22.675781 C 50.203125 26.128906 47.453125 28.878906 44 28.878906 C 40.550781 28.878906 37.800781 26.128906 37.800781 22.675781 C 37.800781 19.226562 40.550781 16.476562 44 16.476562 Z "/>
<path d="M 48 22.667969 C 48 24.875 46.210938 26.667969 44 26.667969 C 41.789062 26.667969 40 24.875 40 22.667969 C 40 20.457031 41.789062 18.667969 44 18.667969 C 46.210938 18.667969 48 20.457031 48 22.667969 Z "/>
<path d="M 36 26.667969 L 36 38.667969 L 42.667969 40 L 48.363281 30.046875 L 42.414062 30.046875 Z "/>
<path d="M 37.332031 37.332031 C 33.667969 37.332031 30.667969 40.335938 30.667969 44 C 30.667969 47.664062 33.667969 50.667969 37.332031 50.667969 C 40.996094 50.667969 44 47.664062 44 44 C 44 40.335938 40.996094 37.332031 37.332031 37.332031 Z M 37.332031 39.570312 C 39.796875 39.570312 41.761719 41.535156 41.761719 44 C 41.761719 46.464844 39.796875 48.429688 37.332031 48.429688 C 34.867188 48.429688 32.90625 46.464844 32.90625 44 C 32.90625 41.535156 34.867188 39.570312 37.332031 39.570312 Z "/>
<path d="M 17.34375 28 C 13.683594 28 10.679688 31.003906 10.679688 34.667969 C 10.679688 38.332031 13.683594 41.332031 17.34375 41.332031 C 21.007812 41.332031 24.011719 38.332031 24.011719 34.667969 C 24.011719 31.003906 21.007812 28 17.34375 28 Z M 17.332031 30.667969 C 20 30.667969 21.332031 32 21.332031 34.667969 C 21.332031 37.332031 20 38.667969 17.332031 38.667969 C 14.667969 38.667969 13.332031 37.332031 13.332031 34.667969 C 13.332031 32 14.667969 30.667969 17.332031 30.667969 Z "/>
<path d="M 18.808594 32.285156 C 17.296875 31.640625 15.550781 32.347656 14.90625 33.859375 C 14.265625 35.371094 14.972656 37.117188 16.484375 37.761719 L 36.292969 46.664062 C 37.808594 47.308594 39.554688 46.601562 40.195312 45.089844 C 40.835938 43.574219 40.128906 41.828125 38.617188 41.1875 Z "/>
</g>
</svg>
