<svg width="64" xmlns="http://www.w3.org/2000/svg" height="64" viewBox="0 0 64 64" xmlns:xlink="http://www.w3.org/1999/xlink">
<path style="fill:#ee8154" d="M 8.679688 9.25 C 7.765625 9.347656 6.996094 10.210938 7 11.132812 L 7 45.054688 C 7 46.039062 7.894531 46.9375 8.875 46.9375 L 25.75 46.9375 L 25.75 50.019531 L 38.25 50.019531 L 38.25 46.9375 L 55.125 46.9375 C 56.105469 46.9375 57 46.039062 57 45.054688 L 57 11.132812 C 57 10.148438 56.105469 9.25 55.125 9.25 Z M 32 17.074219 C 32 17.074219 38.25 16.796875 38.257812 21.8125 L 38.257812 24.894531 C 38.257812 24.894531 41.433594 24.894531 41.433594 26.03125 L 41.433594 37.183594 C 41.433594 38.136719 39.855469 38.988281 38.875 38.988281 L 25.125 38.988281 C 24.144531 38.988281 22.761719 38.136719 22.761719 37.183594 L 22.761719 26.03125 C 22.761719 24.894531 25.777344 24.886719 25.777344 24.886719 L 25.699219 21.8125 C 25.75 16.789062 32 17.074219 32 17.074219 Z M 32 19.59375 C 32 19.59375 28.25 19.300781 28.25 23.070312 L 28.25 24.894531 L 35.75 24.894531 L 35.75 23.070312 C 35.75 19.300781 32 19.59375 32 19.59375 Z M 16.414062 51.570312 L 16.414062 54.75 L 47.859375 54.75 L 47.859375 51.570312 Z "/>
</svg>
