<svg width="64" xmlns="http://www.w3.org/2000/svg" height="64" viewBox="0 0 64 64" xmlns:xlink="http://www.w3.org/1999/xlink">
<defs>
<linearGradient gradientTransform="matrix(1.33333 0 0 -1.33333 0 1403.1496)" id="linear0" y1="1007.019" y2="1049.801" gradientUnits="userSpaceOnUse" x2="0">
<stop offset="0" style="stop-color:#464745"/>
<stop offset="1" style="stop-color:#828680"/>
</linearGradient>
</defs>
<path style="fill:url(#linear0)" d="M 2.59375 64 L 61.40625 64 C 62.839844 64 64 62.839844 64 61.40625 L 64 2.59375 C 64 1.160156 62.839844 0 61.40625 0 L 2.59375 0 C 1.160156 0 0 1.160156 0 2.59375 L 0 61.40625 C 0 62.839844 1.160156 64 2.59375 64 Z "/>
<g style="fill:#fff">
<path style="fill-opacity:.149" d="M 0 0 L 0 64 L 22.375 64 L 39.5 0 Z "/>
<path d="M 19.125 10.667969 C 18.851562 10.757812 18.652344 11.042969 18.667969 11.332031 L 18.667969 14.667969 L 16 14.667969 C 15.917969 14.652344 15.832031 14.652344 15.75 14.667969 C 15.140625 14.78125 14.65625 15.378906 14.667969 16 L 14.667969 52 C 14.667969 52.699219 15.300781 53.332031 16 53.332031 L 48 53.332031 C 48.699219 53.332031 49.332031 52.699219 49.332031 52 L 49.332031 16 C 49.332031 15.300781 48.699219 14.667969 48 14.667969 L 45.332031 14.667969 L 45.332031 11.332031 C 45.332031 10.984375 45.015625 10.667969 44.667969 10.667969 L 40.667969 10.667969 C 40.597656 10.65625 40.527344 10.65625 40.457031 10.667969 C 40.183594 10.757812 39.984375 11.042969 40 11.332031 L 40 14.667969 L 24 14.667969 L 24 11.332031 C 24 10.984375 23.683594 10.667969 23.332031 10.667969 L 19.332031 10.667969 C 19.265625 10.65625 19.195312 10.65625 19.125 10.667969 Z M 20 12 L 22.667969 12 L 22.667969 17.332031 C 22.667969 19.292969 20 19.292969 20 17.332031 Z M 41.332031 12 L 44 12 L 44 17.332031 C 44 19.332031 41.332031 19.292969 41.332031 17.332031 Z M 17.332031 24 L 46.667969 24 L 46.667969 50.667969 L 17.332031 50.667969 Z "/>
<path d="M 24 28 L 40 28 L 40 32 L 32 46.667969 L 26.667969 46.667969 L 34.667969 32 L 24 32 L 24 28 "/>
</g>
</svg>
