<svg width="64" xmlns="http://www.w3.org/2000/svg" height="64" viewBox="0 0 64 64" xmlns:xlink="http://www.w3.org/1999/xlink">
<defs>
<linearGradient gradientTransform="matrix(1.33333 0 0 1.33333 0 -1339.1496)" id="linear0" y1="1053.158" y2="1004.847" gradientUnits="userSpaceOnUse" x2="0">
<stop offset="0" style="stop-color:#000"/>
<stop offset="1" style="stop-color:#5a5d60"/>
</linearGradient>
</defs>
<path style="fill:url(#linear0)" d="M 2.59375 0 L 61.40625 0 C 62.839844 0 64 1.160156 64 2.59375 L 64 61.40625 C 64 62.839844 62.839844 64 61.40625 64 L 2.59375 64 C 1.160156 64 0 62.839844 0 61.40625 L 0 2.59375 C 0 1.160156 1.160156 0 2.59375 0 Z "/>
<g style="fill:#fff">
<path style="fill-opacity:.149" d="M 0 0 L 0 64 L 22.375 64 L 39.5 0 Z "/>
<path d="M 48.597656 12.703125 C 44.925781 12.703125 43.0625 13.96875 41.601562 15.722656 C 40.140625 17.476562 39.261719 19.816406 38.257812 21.824219 C 37.585938 23.175781 36.078125 28.191406 34.691406 32.925781 C 34 35.292969 33.304688 37.644531 32.65625 39.605469 C 32.007812 41.566406 31.515625 43.027344 30.765625 44.152344 C 29.53125 46.007812 27.542969 47.050781 25.546875 47.050781 C 24.839844 47.050781 24.140625 46.921875 23.46875 46.671875 C 25.839844 49.964844 31.316406 55.3125 37.710938 46.40625 C 42.144531 40.230469 43.625 26.929688 46.753906 21.921875 C 50.734375 15.554688 52.734375 17.0625 53.210938 17.59375 C 53.296875 17.074219 53.347656 16.527344 53.324219 16.011719 C 53.28125 15.046875 53.035156 14.320312 52.464844 13.773438 C 51.894531 13.230469 50.828125 12.703125 48.597656 12.703125 Z "/>
<path d="M 18.703125 18.316406 C 19.648438 19.386719 20.410156 20.738281 20.867188 22.339844 C 21.886719 25.910156 22.082031 30.351562 22.3125 34.261719 C 22.425781 36.21875 22.542969 38.035156 22.734375 39.460938 C 22.921875 40.886719 23.28125 41.945312 23.390625 42.105469 C 23.996094 43.019531 24.777344 43.363281 25.546875 43.363281 C 26.3125 43.363281 27.09375 43.019531 27.699219 42.105469 C 27.859375 41.867188 28.4375 40.535156 29.015625 38.855469 C 28.042969 38.449219 26.632812 36.167969 25.546875 27.457031 C 24.917969 22.429688 21.238281 19.652344 18.703125 18.316406 Z "/>
<path d="M 12.890625 19.207031 C 12.417969 19.214844 12.027344 19.34375 11.714844 19.558594 C 11.292969 19.851562 10.929688 20.320312 10.769531 21.300781 L 10.664062 21.285156 C 10.730469 23.964844 12.503906 25.738281 12.503906 25.738281 C 12.503906 25.738281 12.503906 23.894531 14.347656 22.972656 C 15.339844 22.476562 16.582031 23.28125 17.515625 24.128906 C 17.453125 23.863281 17.386719 23.601562 17.316406 23.351562 C 16.566406 20.726562 14.773438 19.46875 13.382812 19.25 C 13.210938 19.222656 13.046875 19.207031 12.890625 19.207031 Z "/>
</g>
</svg>
