<svg width="64" xmlns="http://www.w3.org/2000/svg" height="64" viewBox="0 0 64 64" xmlns:xlink="http://www.w3.org/1999/xlink">
<defs>
<linearGradient gradientTransform="matrix(1.33333 0 0 -1.33333 0 -1339.1496)" id="linear0" y1="-1052.951" y2="-1004.488" gradientUnits="userSpaceOnUse" x2="0">
<stop offset="0" style="stop-color:#a30000"/>
<stop offset="1" style="stop-color:#a35400"/>
</linearGradient>
</defs>
<path style="fill:url(#linear0)" d="M 2.59375 64 L 61.40625 64 C 62.839844 64 64 62.839844 64 61.40625 L 64 2.59375 C 64 1.160156 62.839844 0 61.40625 0 L 2.59375 0 C 1.160156 0 0 1.160156 0 2.59375 L 0 61.40625 C 0 62.839844 1.160156 64 2.59375 64 Z "/>
<path style="fill:#fff;fill-opacity:.149" d="M 0 0 L 0 64 L 22.375 64 L 39.5 0 Z "/>
<path style="fill:#ededec" d="M 32 12.667969 C 20.21875 12.667969 10.667969 21.023438 10.667969 31.332031 C 10.667969 37.550781 14.160156 43.023438 19.5 46.417969 C 19.304688 47.132812 19.058594 47.886719 18.667969 48.667969 C 17.332031 51.332031 16 51.332031 16 51.332031 C 16 51.332031 20 51.332031 22.667969 50 C 23.230469 49.71875 23.722656 49.257812 24.167969 48.707031 C 26.59375 49.550781 29.230469 50 32 50 C 43.78125 50 53.332031 41.644531 53.332031 31.332031 C 53.332031 21.023438 43.78125 12.667969 32 12.667969 Z M 24.707031 19.332031 L 32 26.667969 L 39.292969 19.332031 L 44 24.042969 L 36.707031 31.332031 L 44 38.667969 L 39.292969 43.332031 L 32 36.042969 L 24.707031 43.332031 L 20 38.667969 L 27.292969 31.332031 L 20 24.042969 Z "/>
</svg>
