<svg width="64" xmlns="http://www.w3.org/2000/svg" height="64" viewBox="0 0 64 64" xmlns:xlink="http://www.w3.org/1999/xlink">
<defs>
<linearGradient gradientTransform="matrix(1.33333 0 0 -1.33333 0 1403.1496)" id="linear0" y1="1053.158" y2="1004.847" gradientUnits="userSpaceOnUse" x2="0">
<stop offset="0" style="stop-color:#d768d2"/>
<stop offset="1" style="stop-color:#bc2f95"/>
</linearGradient>
</defs>
<path style="fill:url(#linear0)" d="M 2.59375 64 L 61.40625 64 C 62.839844 64 64 62.839844 64 61.40625 L 64 2.59375 C 64 1.160156 62.839844 0 61.40625 0 L 2.59375 0 C 1.160156 0 0 1.160156 0 2.59375 L 0 61.40625 C 0 62.839844 1.160156 64 2.59375 64 Z "/>
<g style="fill:#fff">
<path style="fill-opacity:.149" d="M 0 0 L 0 64 L 22.375 64 L 39.5 0 Z "/>
<g style="fill-opacity:.784">
<path d="M 44.503906 10.503906 C 39.25 14.472656 34.226562 19.105469 31.214844 25.289062 C 31 25.601562 30.394531 25.585938 30.214844 25.316406 C 27.652344 21.46875 23.882812 17.796875 18.554688 14.023438 L 14.785156 19.445312 C 22.464844 24.878906 25.589844 29.085938 27.175781 34.121094 C 27.1875 34.160156 27.1875 34.199219 27.175781 34.238281 C 26.710938 35.769531 25.347656 37.988281 23.167969 40.292969 C 20.707031 42.890625 17.480469 45.539062 14.394531 47.867188 L 18.324219 53.164062 C 21.550781 50.726562 25.023438 47.921875 27.914062 44.871094 C 29.417969 43.355469 30.722656 41.65625 31.894531 39.84375 C 32.09375 39.558594 32.605469 39.539062 32.867188 39.8125 C 33.582031 40.765625 34.359375 41.664062 35.148438 42.546875 C 38.03125 45.746094 41.5 48.703125 44.726562 51.261719 L 48.792969 46.0625 C 45.710938 43.613281 42.46875 40.832031 40.003906 38.097656 C 37.773438 35.625 36.371094 33.230469 35.921875 31.539062 C 35.910156 31.5 35.910156 31.464844 35.921875 31.425781 C 37.515625 26.039062 40.675781 21.570312 48.402344 15.832031 Z "/>
<path d="M 49.078125 21.324219 C 44.402344 24.414062 41.828125 28.054688 41.925781 31.894531 C 42.023438 35.738281 44.761719 39.304688 49.625 42.355469 L 50.769531 40.375 C 46.261719 37.542969 44.238281 34.5625 44.167969 31.828125 C 44.097656 29.089844 45.960938 26.132812 50.277344 23.28125 Z "/>
<path d="M 50.558594 26.644531 C 49.167969 28.195312 48.207031 29.550781 48.136719 31.113281 C 48.070312 32.671875 48.957031 34.15625 50.753906 35.761719 L 51.664062 34.683594 C 50.011719 33.210938 49.480469 32.152344 49.523438 31.191406 C 49.566406 30.226562 50.257812 29.085938 51.578125 27.617188 Z "/>
<path d="M 13.667969 23.480469 C 18.394531 26.527344 21.015625 30.125 20.917969 33.9375 C 20.816406 37.75 18.035156 41.273438 13.125 44.28125 L 11.90625 42.238281 C 16.449219 39.457031 18.464844 36.535156 18.535156 33.867188 C 18.605469 31.203125 16.75 28.304688 12.402344 25.5 Z "/>
<path d="M 10.960938 28.964844 C 12.359375 30.484375 13.316406 31.816406 13.386719 33.347656 C 13.457031 34.875 12.566406 36.332031 10.765625 37.90625 L 9.855469 36.851562 C 11.511719 35.402344 12.042969 34.367188 12 33.421875 C 11.957031 32.476562 11.265625 31.359375 9.941406 29.917969 Z "/>
</g>
</g>
</svg>
