<svg width="64" xmlns="http://www.w3.org/2000/svg" height="64" viewBox="0 0 64 64" xmlns:xlink="http://www.w3.org/1999/xlink">
<defs>
<linearGradient gradientTransform="matrix(1.33333 0 0 1.33333 0 -1339.1496)" id="linear0" y1="1050.112" y2="1003.795" gradientUnits="userSpaceOnUse" x2="0">
<stop offset="0" style="stop-color:#8f3f9b"/>
<stop offset="1" style="stop-color:#b263bf"/>
</linearGradient>
</defs>
<path style="fill:url(#linear0)" d="M 2.59375 0 L 61.40625 0 C 62.839844 0 64 1.160156 64 2.59375 L 64 61.40625 C 64 62.839844 62.839844 64 61.40625 64 L 2.59375 64 C 1.160156 64 0 62.839844 0 61.40625 L 0 2.59375 C 0 1.160156 1.160156 0 2.59375 0 Z "/>
<g style="fill:#fff">
<path d="M 43.125 40.773438 L 45.238281 42.082031 L 43.816406 44.585938 L 41.664062 43.238281 Z "/>
<path d="M 10.667969 19.414062 L 10.671875 21.367188 L 16.308594 21.882812 L 26.964844 34.738281 L 27.289062 41.382812 C 27.003906 42.539062 26.09375 42.125 25.441406 42.363281 L 21.503906 42.398438 L 21.539062 44.101562 L 39.089844 43.953125 L 39.089844 42.292969 L 33.921875 42.257812 C 33.277344 42.359375 33.332031 41.878906 33.269531 41.492188 L 32.945312 35.175781 C 33.023438 34.664062 33.132812 34.15625 33.816406 33.648438 L 44.035156 25.476562 L 48.820312 24.605469 L 49.574219 23.09375 L 33.667969 23.09375 L 33.921875 24.714844 L 38.492188 25.148438 C 38.761719 25.371094 39.300781 25.355469 38.707031 26.347656 L 32.074219 32.121094 C 31.722656 32.328125 31.453125 32.214844 31.203125 32.015625 L 23.8125 22.316406 C 23.261719 21.542969 23.796875 21.402344 24.464844 21.335938 L 29.246094 21.117188 L 29.246094 19.484375 Z "/>
<path d="M 44.144531 38.496094 L 45.9375 39.640625 L 53.332031 27.492188 L 49.148438 25.09375 Z "/>
<path style="fill-opacity:.149" d="M 2.667969 0 C 1.1875 0 0 1.1875 0 2.667969 L 0 61.332031 C 0 62.8125 1.1875 64 2.667969 64 L 22.375 64 L 39.5 0 Z "/>
</g>
</svg>
