<?xml version="1.0" encoding="UTF-8" standalone="no"?>
<svg
   xmlns:dc="http://purl.org/dc/elements/1.1/"
   xmlns:cc="http://creativecommons.org/ns#"
   xmlns:rdf="http://www.w3.org/1999/02/22-rdf-syntax-ns#"
   xmlns:svg="http://www.w3.org/2000/svg"
   xmlns="http://www.w3.org/2000/svg"
   xmlns:sodipodi="http://sodipodi.sourceforge.net/DTD/sodipodi-0.dtd"
   xmlns:inkscape="http://www.inkscape.org/namespaces/inkscape"
   width="32"
   height="32"
   viewBox="0 0 32 32"
   id="svg3083"
   version="1.1"
   inkscape:version="0.91 r13725"
   sodipodi:docname="application-x-lzop.svg">
  <metadata
     id="metadata3109">
    <rdf:RDF>
      <cc:Work
         rdf:about="">
        <dc:format>image/svg+xml</dc:format>
        <dc:type
           rdf:resource="http://purl.org/dc/dcmitype/StillImage" />
      </cc:Work>
    </rdf:RDF>
  </metadata>
  <defs
     id="defs3107" />
  <sodipodi:namedview
     pagecolor="#ffffff"
     bordercolor="#666666"
     borderopacity="1"
     objecttolerance="10"
     gridtolerance="10"
     guidetolerance="10"
     inkscape:pageopacity="0"
     inkscape:pageshadow="2"
     inkscape:window-width="1366"
     inkscape:window-height="704"
     id="namedview3105"
     showgrid="false"
     inkscape:zoom="64"
     inkscape:cx="19.967718"
     inkscape:cy="3.725675"
     inkscape:window-x="0"
     inkscape:window-y="27"
     inkscape:window-maximized="1"
     inkscape:current-layer="svg3083">
    <inkscape:grid
       type="xygrid"
       id="grid3141" />
  </sodipodi:namedview>
  <path
     style="fill:#c19553;fill-opacity:1"
     d="M 5.335888,2.978e-4 C 4.648414,3.127e-4 4,0.6767886 4,1.3940319 L 4,30.606268 C 4,31.282757 4.687474,32 5.335888,32 l 21.327332,0 c 0.648414,0 1.335888,-0.717243 1.335888,-1.393732 L 28,9.0000004 l -9,-9 z"
     id="path4-1"
     inkscape:connector-curvature="0"
     sodipodi:nodetypes="ssssssccs" />
  <path
     style="fill:#000000;fill-opacity:0.19599998"
     d="m 4,24 0,6.667969 C 4,31.316407 4.6875,32 5.332031,32 l 21.335938,0 C 27.3125,32 28,31.316407 28,30.667969 L 28,24 z"
     id="path10"
     inkscape:connector-curvature="0" />
  <path
     style="fill:#000000;fill-opacity:0.19599998"
     d="M 21,9.0000004 28,16 28,9.0000004 z"
     id="path6-4"
     inkscape:connector-curvature="0"
     sodipodi:nodetypes="cccc" />
  <path
     style="fill:#ffffff"
     inkscape:connector-curvature="0"
     id="path3097"
     d="m 11.273438,30.994531 -3.273438,0 0,-5 1.042969,0 0,4.174943 2.230469,0 0,0.825057" />
  <path
     style="fill:#ffffff;fill-opacity:0.39200003"
     d="m 19.000306,2.978e-4 8.991594,8.9997026 -7.613262,0 c -0.672951,0 -1.378332,-0.7134896 -1.378332,-1.3864402 z"
     id="path8-6"
     inkscape:connector-curvature="0"
     sodipodi:nodetypes="ccssc" />
  <path
     style="fill:#ffffff"
     inkscape:connector-curvature="0"
     id="path3099"
     d="m 15.355469,26.689718 c -0.786699,1.151322 -1.499198,2.312674 -2.164063,3.479756 l 2.242188,0 0,0.825057 -3.4375,0 0,-0.576775 c 0.662786,-1.246673 1.405661,-2.448932 2.113281,-3.598168 l -2.003906,0 0,-0.825057 3.25,0 0,0.695187"
     sodipodi:nodetypes="ccccccccccc" />
  <rect
     style="fill:#f9f9f9;fill-opacity:1;fill-rule:evenodd;stroke:none"
     id="rect3008"
     width="3"
     height="3"
     x="9"
     y="7.7326968e-07" />
  <path
     style="fill:#ffffff"
     inkscape:connector-curvature="0"
     id="path3101"
     d="m 17.039805,28.498095 c 0,0.243809 0.0083,0.472381 0.02913,0.685714 0.02081,0.209525 0.06243,0.392381 0.124871,0.548572 0.0666,0.15619 0.154006,0.278095 0.266389,0.369523 0.116544,0.09143 0.346251,0.137144 0.537718,0.137144 0.187304,0 0.417343,-0.04572 0.529726,-0.137144 0.120708,-0.09143 0.208116,-0.213333 0.270552,-0.369523 0.06243,-0.163809 0.108221,-0.346667 0.12487,-0.55619 0.02498,-0.209525 0.0333,-0.434287 0.0333,-0.678096 0,-0.239999 -0.0083,-0.464761 -0.0333,-0.674286 -0.01665,-0.217143 -0.06243,-0.399999 -0.12487,-0.556191 -0.06243,-0.15619 -0.149844,-0.278095 -0.262227,-0.369523 -0.112383,-0.09143 -0.346585,-0.137143 -0.538051,-0.137143 -0.191467,0 -0.421174,0.04571 -0.537718,0.137143 -0.112383,0.09143 -0.199792,0.217143 -0.266389,0.377143 -0.06243,0.15619 -0.104063,0.339048 -0.124871,0.548571 -0.02081,0.209525 -0.02913,0.434287 -0.02913,0.674286 m -1.039805,0 c 0,-0.857143 0.174818,-1.504762 0.528616,-1.939048 C 16.882414,26.117143 17.369407,25.9 17.997919,25.9 c 0.653486,0 1.148803,0.217143 1.490114,0.659047 C 19.829345,26.993333 20,27.640952 20,28.498095 20,29.359048 19.825183,30.006666 19.479709,30.448571 19.134235,30.882857 18.643081,31.1 18.006244,31.1 17.356919,31.1 16.85744,30.882857 16.511967,30.448571 16.170655,30.006666 16,29.359048 16,28.498095"
     sodipodi:nodetypes="ccccscccsccssccscccscscscc" />
  <rect
     style="fill:#f9f9f9;fill-opacity:1;fill-rule:evenodd;stroke:none"
     id="rect3010"
     width="3"
     height="3"
     x="12"
     y="3.0000007" />
  <path
     style="fill:#ffffff"
     inkscape:connector-curvature="0"
     id="path3103"
     d="m 22.273052,25.822656 c 0.641488,0 1.142531,0.136719 1.495538,0.40625 0.353008,0.265625 0.53141,0.699219 0.53141,1.304688 0,0.609375 -0.178402,1.054687 -0.539002,1.328125 -0.356803,0.269531 -0.857846,0.40625 -1.514516,0.40625 l -0.3606,0 0,1.726562 -1.005882,0 0,-5.046875 c 0.358409,-0.08344 0.722426,-0.08742 1.074207,-0.11328 0.117668,-0.0078 0.22395,-0.01172 0.318845,-0.01172 m 0.113874,0.886719 c -0.176801,-0.0038 -0.325263,0.0152 -0.501044,0.02342 l 0,1.652344 0.409945,0 c 0.322641,0 0.565571,-0.06641 0.72879,-0.191406 0.163219,-0.132812 0.24293,-0.355469 0.24293,-0.667969 0,-0.296875 -0.07971,-0.507812 -0.24293,-0.628906 -0.159422,-0.125 -0.371986,-0.1875 -0.637691,-0.1875"
     sodipodi:nodetypes="ccscscccccccccscscc" />
  <rect
     style="fill:#f9f9f9;fill-opacity:1;fill-rule:evenodd;stroke:none"
     id="rect3012"
     width="3"
     height="3"
     x="9"
     y="6.0000005" />
  <rect
     style="fill:#f9f9f9;fill-opacity:1;fill-rule:evenodd;stroke:none"
     id="rect3014"
     width="3"
     height="3"
     x="12"
     y="9.000001" />
  <rect
     style="fill:#f9f9f9;fill-opacity:1;fill-rule:evenodd;stroke:none"
     id="rect3016"
     width="3"
     height="3"
     x="9"
     y="12.000001" />
  <rect
     style="fill:#f9f9f9;fill-opacity:1;fill-rule:evenodd;stroke:none"
     id="rect3020"
     width="6"
     height="6"
     x="9"
     y="16" />
</svg>
