<?xml version="1.0" encoding="UTF-8" standalone="no"?>
<svg
   xmlns:dc="http://purl.org/dc/elements/1.1/"
   xmlns:cc="http://creativecommons.org/ns#"
   xmlns:rdf="http://www.w3.org/1999/02/22-rdf-syntax-ns#"
   xmlns:svg="http://www.w3.org/2000/svg"
   xmlns="http://www.w3.org/2000/svg"
   xmlns:sodipodi="http://sodipodi.sourceforge.net/DTD/sodipodi-0.dtd"
   xmlns:inkscape="http://www.inkscape.org/namespaces/inkscape"
   width="32"
   height="32"
   viewBox="0 0 32 32"
   id="svg2"
   version="1.1"
   inkscape:version="0.48.5 r10040"
   sodipodi:docname="application-vnd.oasis.opendocument.spreadsheet.svg">
  <metadata
     id="metadata26">
    <rdf:RDF>
      <cc:Work
         rdf:about="">
        <dc:format>image/svg+xml</dc:format>
        <dc:type
           rdf:resource="http://purl.org/dc/dcmitype/StillImage" />
      </cc:Work>
    </rdf:RDF>
  </metadata>
  <defs
     id="defs24" />
  <sodipodi:namedview
     pagecolor="#ffffff"
     bordercolor="#666666"
     borderopacity="1"
     objecttolerance="10"
     gridtolerance="10"
     guidetolerance="10"
     inkscape:pageopacity="0"
     inkscape:pageshadow="2"
     inkscape:window-width="1280"
     inkscape:window-height="970"
     id="namedview22"
     showgrid="true"
     inkscape:zoom="7.375"
     inkscape:cx="54.39487"
     inkscape:cy="11.905586"
     inkscape:window-x="0"
     inkscape:window-y="0"
     inkscape:window-maximized="1"
     inkscape:current-layer="svg2">
    <inkscape:grid
       type="xygrid"
       id="grid3057" />
  </sodipodi:namedview>
  <path
     style="fill:#207145;fill-opacity:1"
     d="M 5.335888,2.9724e-4 C 4.648414,3.1224e-4 4,0.67678814 4,1.3940314 L 4,30.606268 C 4,31.282757 4.687474,32 5.335888,32 l 21.327332,0 c 0.648414,0 1.335888,-0.717243 1.335888,-1.393732 L 28,8.9999999 19,-6.0000001e-8 z"
     id="path4-1"
     inkscape:connector-curvature="0"
     sodipodi:nodetypes="ssssssccs" />
  <path
     style="fill:#000000;fill-opacity:0.19599998"
     d="M 21,8.9999999 28,16 28,8.9999999 z"
     id="path6-4"
     inkscape:connector-curvature="0"
     sodipodi:nodetypes="cccc" />
  <path
     style="fill:#ffffff"
     d="m 22,11 0,10 -12,0 0,-10 z m -1,1 -6,0 0,2 6,0 z m -7,0 -3,0 0,2 3,0 z m 7,3 -6,0 0,2 6,0 z m -7,0 -3,0 0,2 3,0 z m 7,3 -6,0 0,2 6,0 z m -7,0 -3,0 0,2 3,0 z"
     id="path10-1"
     inkscape:connector-curvature="0"
     sodipodi:nodetypes="ccccccccccccccccccccccccccccccccccc" />
  <path
     style="fill:#000000;fill-opacity:0.19599998"
     d="m 4,24 0,6.667969 C 4,31.316407 4.6875,32 5.332031,32 l 21.335938,0 C 27.3125,32 28,31.316407 28,30.667969 L 28,24 z"
     id="path10"
     inkscape:connector-curvature="0" />
  <path
     style="fill:#ffffff;fill-opacity:0.39200003"
     d="m 19.000306,2.9724e-4 8.991594,8.99970266 -7.613262,0 c -0.672951,0 -1.378332,-0.7134896 -1.378332,-1.3864402 z"
     id="path8-6"
     inkscape:connector-curvature="0"
     sodipodi:nodetypes="ccssc" />
  <path
     style="fill:#ffffff"
     inkscape:connector-curvature="0"
     id="path16"
     d="m 10.168203,28.125576 c 0,0.269346 0.0084,0.521857 0.02946,0.757535 0.02946,0.231469 0.07575,0.433478 0.143089,0.606028 0.07155,0.172549 0.17255,0.307222 0.298806,0.408227 0.126255,0.101004 0.298806,0.151508 0.51344,0.151508 0.206217,0 0.37035,-0.05051 0.500815,-0.151508 0.130464,-0.101005 0.231469,-0.235678 0.298805,-0.408227 0.07575,-0.180966 0.122047,-0.382975 0.138881,-0.614445 0.02946,-0.231469 0.04208,-0.479772 0.04208,-0.749118 0,-0.265136 -0.01263,-0.513439 -0.04208,-0.744909 -0.01684,-0.239885 -0.06312,-0.441895 -0.138881,-0.614445 -0.06734,-0.172549 -0.164128,-0.307222 -0.290385,-0.408227 -0.126255,-0.101004 -0.298804,-0.151507 -0.509231,-0.151507 -0.214634,0 -0.387184,0.0505 -0.51344,0.151507 -0.126256,0.101005 -0.227261,0.239886 -0.298805,0.416645 -0.06734,0.172549 -0.113631,0.374558 -0.14309,0.606027 -0.02104,0.23147 -0.02946,0.479773 -0.02946,0.744909 m -1.2541417,0 c 0,-0.946918 0.197801,-1.662368 0.593402,-2.142139 0.395602,-0.488189 0.9427097,-0.728075 1.6455337,-0.728075 0.728076,0 1.279392,0.239886 1.662369,0.728075 0.378767,0.479771 0.572359,1.195221 0.572359,2.142139 0,0.951128 -0.193592,1.666577 -0.580777,2.154766 C 12.415556,30.760114 11.868448,31 11.161416,31 10.433341,31 9.873606,30.760114 9.4864216,30.280342 9.1076548,29.792153 8.914062,29.076704 8.914062,28.125576" />
  <path
     style="fill:#ffffff"
     inkscape:connector-curvature="0"
     id="path18"
     d="m 15.433069,29.994162 c 0.03367,0.0084 0.06734,0.0084 0.109422,0.0084 0.03788,0 0.07575,0 0.109423,0 0.28197,0 0.513439,-0.0463 0.702823,-0.143091 0.193592,-0.09259 0.345099,-0.223052 0.458729,-0.391393 0.122048,-0.164132 0.206218,-0.357724 0.252512,-0.584985 0.05471,-0.231469 0.07996,-0.48398 0.07996,-0.757535 0,-0.235677 -0.02104,-0.467145 -0.05892,-0.694406 -0.04208,-0.223038 -0.11363,-0.420839 -0.210426,-0.593388 -0.101005,-0.172551 -0.239886,-0.307224 -0.412435,-0.408228 -0.172549,-0.109421 -0.39981,-0.159924 -0.673364,-0.159924 -0.0505,0 -0.113631,0 -0.180967,0.0084 -0.06312,0 -0.126256,0.0042 -0.176759,0.01683 l 0,3.699295 m 2.967012,-1.868586 c 0,0.513441 -0.07575,0.946919 -0.223052,1.308852 -0.138882,0.357724 -0.336682,0.648113 -0.589194,0.871165 -0.25672,0.22726 -0.559734,0.391393 -0.91325,0.500814 -0.349307,0.09679 -0.732283,0.147299 -1.153136,0.147299 -0.218843,0 -0.437687,-0.0084 -0.652322,-0.03367 -0.206217,-0.01684 -0.429269,-0.0505 -0.669156,-0.09679 l 0,-5.374289 c 0.277763,-0.05471 0.542901,-0.08838 0.791203,-0.105217 0.248303,-0.01684 0.475563,-0.02945 0.690198,-0.02945 0.408228,0 0.778579,0.05471 1.115261,0.164132 0.34089,0.105218 0.62707,0.273554 0.858538,0.505023 0.235677,0.227261 0.416644,0.51765 0.542901,0.871166 0.134673,0.349307 0.202009,0.774369 0.202009,1.270974" />
  <path
     style="fill:#ffffff"
     inkscape:connector-curvature="0"
     id="path20"
     d="m 20.996741,30.082542 c 0.206218,0 0.374559,-0.01684 0.509232,-0.05051 0.138882,-0.04208 0.252511,-0.09679 0.332474,-0.159923 0.07996,-0.07155 0.130464,-0.151507 0.159923,-0.23147 0.03367,-0.08838 0.05051,-0.180966 0.05051,-0.269345 0,-0.113631 -0.03788,-0.210426 -0.109422,-0.303014 -0.07575,-0.08838 -0.168341,-0.164132 -0.281972,-0.231468 -0.113629,-0.06734 -0.239886,-0.130465 -0.382975,-0.185177 -0.138882,-0.05892 -0.277763,-0.113629 -0.420854,-0.159923 -0.185178,-0.05891 -0.378771,-0.126251 -0.58078,-0.206213 -0.202009,-0.07575 -0.382976,-0.172551 -0.551317,-0.290388 -0.159924,-0.122048 -0.294597,-0.265138 -0.39981,-0.437687 -0.109422,-0.176759 -0.159924,-0.395602 -0.159924,-0.656531 0,-0.517648 0.185175,-0.921667 0.559734,-1.212056 0.382976,-0.290388 0.900625,-0.433477 1.565572,-0.433477 0.378767,0 0.71124,0.03788 0.989003,0.11363 0.290389,0.07575 0.530274,0.164132 0.723867,0.25672 l -0.361934,0.845914 c -0.164132,-0.08418 -0.353515,-0.151507 -0.559734,-0.214635 -0.202009,-0.05892 -0.433477,-0.08838 -0.702823,-0.08838 -0.656531,0 -0.980587,0.210427 -0.980587,0.631278 0,0.109422 0.03367,0.202009 0.101005,0.286181 0.06312,0.07575 0.147298,0.147298 0.248303,0.214634 0.105217,0.05892 0.223051,0.113631 0.349308,0.159925 0.134673,0.0463 0.265136,0.09259 0.391393,0.134673 0.193592,0.06312 0.395602,0.138881 0.601819,0.218843 0.214634,0.07996 0.408227,0.185175 0.580776,0.319848 0.180967,0.130464 0.328266,0.298806 0.441895,0.500815 0.113631,0.193591 0.172551,0.441895 0.172551,0.744909 0,0.517648 -0.193593,0.917458 -0.57236,1.203638 C 22.335052,30.861119 21.762693,31 20.996741,31 c -0.517649,0 -0.925875,-0.0463 -1.233098,-0.143089 -0.307222,-0.101005 -0.538691,-0.193593 -0.694407,-0.273555 l 0.361934,-0.892208 c 0.180967,0.09679 0.395602,0.185175 0.639696,0.269346 0.256719,0.07996 0.563943,0.122048 0.925875,0.122048" />
</svg>
