<?xml version="1.0" encoding="UTF-8" standalone="no"?>
<svg
   xmlns:dc="http://purl.org/dc/elements/1.1/"
   xmlns:cc="http://creativecommons.org/ns#"
   xmlns:rdf="http://www.w3.org/1999/02/22-rdf-syntax-ns#"
   xmlns:svg="http://www.w3.org/2000/svg"
   xmlns="http://www.w3.org/2000/svg"
   xmlns:sodipodi="http://sodipodi.sourceforge.net/DTD/sodipodi-0.dtd"
   xmlns:inkscape="http://www.inkscape.org/namespaces/inkscape"
   width="32"
   height="32"
   viewBox="0 0 32 32"
   id="svg2"
   version="1.1"
   inkscape:version="0.48.5 r10040"
   sodipodi:docname="application-vnd.oasis.opendocument.drawing.svg">
  <metadata
     id="metadata26">
    <rdf:RDF>
      <cc:Work
         rdf:about="">
        <dc:format>image/svg+xml</dc:format>
        <dc:type
           rdf:resource="http://purl.org/dc/dcmitype/StillImage" />
      </cc:Work>
    </rdf:RDF>
  </metadata>
  <defs
     id="defs24" />
  <sodipodi:namedview
     pagecolor="#ffffff"
     bordercolor="#666666"
     borderopacity="1"
     objecttolerance="10"
     gridtolerance="10"
     guidetolerance="10"
     inkscape:pageopacity="0"
     inkscape:pageshadow="2"
     inkscape:window-width="1280"
     inkscape:window-height="970"
     id="namedview22"
     showgrid="true"
     inkscape:zoom="5.6568543"
     inkscape:cx="4.3339294"
     inkscape:cy="15.477664"
     inkscape:window-x="0"
     inkscape:window-y="0"
     inkscape:window-maximized="1"
     inkscape:current-layer="svg2">
    <inkscape:grid
       type="xygrid"
       id="grid3051" />
  </sodipodi:namedview>
  <path
     style="fill:#edaf02;fill-opacity:1"
     d="M 5.3358881,2.972e-4 C 4.648414,3.121e-4 4,0.676788 4,1.3940313 L 4,30.606268 C 4,31.282757 4.687474,32 5.3358881,32 L 26.66322,32 c 0.648414,0 1.335888,-0.717243 1.335888,-1.393732 L 28,8.9999998 l -9,-9 z"
     id="path4-1"
     inkscape:connector-curvature="0"
     sodipodi:nodetypes="ssssssccs" />
  <path
     style="fill:#000000;fill-opacity:0.19599998"
     d="M 21,8.9999998 28,16 28,8.9999998 z"
     id="path6-4"
     inkscape:connector-curvature="0"
     sodipodi:nodetypes="cccc" />
  <path
     style="fill:#ffffff;fill-opacity:0.39200003"
     d="m 19.000306,2.972e-4 8.991594,8.9997026 -7.613262,0 c -0.672951,0 -1.378332,-0.7134896 -1.378332,-1.3864402 z"
     id="path8-6"
     inkscape:connector-curvature="0"
     sodipodi:nodetypes="ccssc" />
  <path
     style="fill:#000000;fill-opacity:0.19599998"
     d="m 4,24 0,6.667969 C 4,31.316407 4.6875,32 5.332031,32 l 21.335938,0 C 27.3125,32 28,31.316407 28,30.667969 L 28,24 z"
     id="path12"
     inkscape:connector-curvature="0" />
  <path
     style="fill:#ffffff"
     d="m 10,22 0,-11 12,0 0,11 -7,0 0,-6 3,0 0,2 -1,0 0,2 3,0 0,-7 -8,0 0,9 z"
     id="path3027"
     inkscape:connector-curvature="0"
     sodipodi:nodetypes="ccccccccccccccc" />
  <g
     style="fill:#ffffff"
     id="g14"
     transform="matrix(1.0556532,0,0,1.0556532,-0.92951295,-0.66959459)">
    <path
       d="m 10.492188,27.332031 c 0,0.25 0.01172,0.484375 0.02734,0.703125 0.02734,0.214844 0.07031,0.402344 0.132813,0.5625 0.06641,0.160156 0.160156,0.285156 0.277344,0.378906 0.117187,0.09375 0.273437,0.140626 0.472656,0.140626 0.191406,0 0.347656,-0.04688 0.464844,-0.140626 0.121093,-0.09375 0.214843,-0.21875 0.277343,-0.378906 0.06641,-0.167968 0.113281,-0.355468 0.128907,-0.570312 0.02734,-0.214844 0.03906,-0.445313 0.03906,-0.695313 0,-0.246093 -0.01172,-0.476562 -0.03906,-0.691406 -0.01563,-0.222656 -0.0625,-0.410156 -0.128907,-0.570313 -0.0625,-0.160156 -0.152343,-0.285156 -0.269531,-0.378906 -0.117188,-0.09375 -0.273438,-0.140625 -0.472656,-0.140625 -0.199219,0 -0.355469,0.04687 -0.472656,0.140625 -0.117188,0.09375 -0.210938,0.222656 -0.277344,0.386719 -0.0625,0.160156 -0.105469,0.347656 -0.132813,0.5625 -0.01563,0.214844 -0.02734,0.445313 -0.02734,0.691406 m -1.160157,0 c 0,-0.878906 0.183594,-1.542969 0.546875,-1.988281 0.367188,-0.453125 0.875,-0.675781 1.523438,-0.675781 0.675781,0 1.1875,0.222656 1.539062,0.675781 0.355469,0.445312 0.53125,1.109375 0.53125,1.988281 0,0.882813 -0.179687,1.546875 -0.539062,2 C 12.574219,29.777344 12.066406,30 11.410156,30 c -0.671875,0 -1.1875,-0.222656 -1.546875,-0.667969 -0.355469,-0.453125 -0.53125,-1.117187 -0.53125,-2"
       id="path16"
       inkscape:connector-curvature="0" />
    <path
       d="m 15.363281,29.066406 c 0.03125,0.0078 0.06641,0.0078 0.101563,0.0078 0.03906,0 0.07422,0 0.105468,0 0.257813,0 0.472657,-0.04297 0.648438,-0.132813 0.179688,-0.08594 0.320312,-0.207031 0.425781,-0.363281 0.113281,-0.152344 0.1875,-0.335937 0.230469,-0.542969 0.05078,-0.214844 0.07422,-0.449218 0.07422,-0.703125 0,-0.21875 -0.01563,-0.433593 -0.05469,-0.644531 -0.03516,-0.207031 -0.101562,-0.390625 -0.195312,-0.550781 -0.08984,-0.160157 -0.21875,-0.285157 -0.378907,-0.378907 -0.160156,-0.101562 -0.367187,-0.148437 -0.621093,-0.148437 -0.05078,0 -0.105469,0 -0.167969,0.0078 -0.0625,0 -0.117188,0.0039 -0.167969,0.01562 l 0,3.433594 m 2.746094,-1.734375 c 0,0.472657 -0.06641,0.878907 -0.203125,1.214844 -0.128906,0.332031 -0.3125,0.601563 -0.546875,0.808594 -0.234375,0.210937 -0.515625,0.363281 -0.84375,0.460937 -0.324219,0.09375 -0.679687,0.140625 -1.066406,0.140625 -0.207031,0 -0.40625,-0.0078 -0.605469,-0.03125 -0.191406,-0.01563 -0.398438,-0.04687 -0.621094,-0.08984 l 0,-4.988282 c 0.261719,-0.05078 0.503906,-0.08203 0.734375,-0.09766 0.226563,-0.01563 0.441407,-0.02734 0.640625,-0.02734 0.375,0 0.71875,0.05078 1.027344,0.148438 0.316406,0.101562 0.582031,0.257812 0.800781,0.472656 0.214844,0.207031 0.382813,0.480469 0.5,0.808594 0.125,0.324218 0.183594,0.71875 0.183594,1.179687"
       id="path18"
       inkscape:connector-curvature="0" />
    <path
       d="m 21.257812,25.550781 c -0.273437,0 -0.503906,0.04297 -0.6875,0.132813 -0.1875,0.08594 -0.339843,0.210937 -0.464843,0.371094 -0.117188,0.152343 -0.203125,0.339843 -0.257813,0.558593 -0.05078,0.214844 -0.07422,0.457031 -0.07422,0.71875 0,0.613281 0.105468,1.0625 0.324218,1.355469 0.214844,0.285156 0.535156,0.429688 0.953125,0.429688 0.07031,0 0.144531,-0.0039 0.222657,-0.0078 0.08203,-0.0078 0.15625,-0.01563 0.222656,-0.02734 l 0,-1.863281 1.144531,0 0,2.550781 C 22.503906,29.8125 22.289062,29.863281 22,29.917969 21.714844,29.972656 21.367188,30 20.960938,30 c -0.359376,0 -0.683594,-0.05469 -0.976563,-0.164062 -0.285156,-0.117188 -0.527344,-0.285157 -0.730469,-0.503907 -0.207031,-0.226562 -0.363281,-0.503906 -0.476562,-0.835937 -0.109375,-0.335938 -0.164063,-0.722656 -0.164063,-1.164063 0,-0.433593 0.0625,-0.816406 0.195313,-1.144531 0.128906,-0.335938 0.304687,-0.617188 0.527344,-0.84375 0.222656,-0.226562 0.484374,-0.394531 0.789062,-0.503906 0.300781,-0.117188 0.628906,-0.171875 0.972656,-0.171875 0.222656,0 0.421875,0.01563 0.59375,0.04687 0.179688,0.02734 0.335938,0.0625 0.464844,0.101562 0.128906,0.03906 0.234375,0.07813 0.316406,0.121094 0.08594,0.04687 0.152344,0.07813 0.195313,0.101562 l -0.296875,0.808594 C 22.234375,25.769521 22.066406,25.70312 21.867188,25.64062 21.671875,25.58203 21.464844,25.55078 21.257812,25.55078"
       id="path20"
       inkscape:connector-curvature="0" />
  </g>
</svg>
