<?xml version="1.0" encoding="UTF-8" standalone="no"?>
<svg
   xmlns:dc="http://purl.org/dc/elements/1.1/"
   xmlns:cc="http://creativecommons.org/ns#"
   xmlns:rdf="http://www.w3.org/1999/02/22-rdf-syntax-ns#"
   xmlns:svg="http://www.w3.org/2000/svg"
   xmlns="http://www.w3.org/2000/svg"
   xmlns:sodipodi="http://sodipodi.sourceforge.net/DTD/sodipodi-0.dtd"
   xmlns:inkscape="http://www.inkscape.org/namespaces/inkscape"
   width="32"
   height="32"
   viewBox="0 0 32 32"
   id="svg2"
   version="1.1"
   inkscape:version="0.48.5 r10040"
   sodipodi:docname="application-vnd.ms-access.svg">
  <metadata
     id="metadata36">
    <rdf:RDF>
      <cc:Work
         rdf:about="">
        <dc:format>image/svg+xml</dc:format>
        <dc:type
           rdf:resource="http://purl.org/dc/dcmitype/StillImage" />
      </cc:Work>
    </rdf:RDF>
  </metadata>
  <defs
     id="defs34" />
  <sodipodi:namedview
     pagecolor="#ffffff"
     bordercolor="#666666"
     borderopacity="1"
     objecttolerance="10"
     gridtolerance="10"
     guidetolerance="10"
     inkscape:pageopacity="0"
     inkscape:pageshadow="2"
     inkscape:window-width="1280"
     inkscape:window-height="970"
     id="namedview32"
     showgrid="true"
     inkscape:zoom="14.75"
     inkscape:cx="12.06099"
     inkscape:cy="13.993641"
     inkscape:window-x="0"
     inkscape:window-y="0"
     inkscape:window-maximized="1"
     inkscape:current-layer="svg2">
    <inkscape:grid
       type="xygrid"
       id="grid3034" />
  </sodipodi:namedview>
  <path
     style="fill:#a33639;fill-opacity:1"
     d="M 5.335888,2.972e-4 C 4.648414,3.122e-4 4,0.6767882 4,1.3940315 L 4,30.606268 C 4,31.282757 4.687474,32 5.335888,32 l 21.327331,0 c 0.648414,0 1.335888,-0.717243 1.335888,-1.393732 L 28,9 19,2e-7 z"
     id="path4-1"
     inkscape:connector-curvature="0"
     sodipodi:nodetypes="ssssssccs" />
  <path
     style="fill:#000000;fill-opacity:0.19599998"
     d="m 4,24 0,6.667969 C 4,31.316407 4.6875,32 5.332031,32 l 21.335937,0 C 27.3125,32 28,31.316407 28,30.667969 L 28,24 z"
     id="path18"
     inkscape:connector-curvature="0" />
  <g
     style="fill:#ffffff"
     id="g20"
     transform="matrix(1,0,0,0.77634568,0,6.7096296)">
    <path
       d="m 10.277344,29.890625 -0.191406,-1.179687 -1.070313,0 -0.183594,1.179687 -0.832031,0 C 8.191406,28.886719 8.382812,27.96875 8.578125,27.144531 8.773438,26.3125 8.960938,25.523438 9.144531,24.78125 l 0.871094,0 c 0.191406,0.75 0.378906,1.542969 0.566406,2.386719 0.191407,0.835937 0.375,1.746093 0.554688,2.722656 l -0.859375,0 M 9.5625,25.773438 c -0.042969,0.191406 -0.085938,0.375 -0.125,0.550781 -0.035156,0.171875 -0.070312,0.34375 -0.105469,0.511719 -0.027343,0.167968 -0.058593,0.335937 -0.089843,0.503906 -0.027344,0.171875 -0.050782,0.347656 -0.078126,0.53125 l 0.789063,0 C 9.925781,27.6875 9.898438,27.511719 9.875,27.339844 9.847656,27.171875 9.816406,27.003906 9.78125,26.835938 9.75,26.667969 9.71875,26.496094 9.679688,26.324219 9.644531,26.148438 9.605469,25.964844 9.5625,25.773438"
       id="path22"
       inkscape:connector-curvature="0" />
    <path
       d="m 13.117188,30 c -0.566407,0 -1,-0.230469 -1.300782,-0.695312 -0.296875,-0.460938 -0.449218,-1.117188 -0.449218,-1.972657 0,-0.421875 0.04687,-0.800781 0.136718,-1.128906 0.09375,-0.332031 0.21875,-0.609375 0.378906,-0.835937 0.164063,-0.230469 0.359376,-0.402344 0.578126,-0.519532 0.226562,-0.121094 0.472656,-0.179687 0.734374,-0.179687 0.144532,0 0.273438,0.01563 0.386719,0.04687 0.117188,0.02734 0.21875,0.0625 0.304688,0.101562 0.08594,0.03906 0.15625,0.07813 0.214843,0.121094 0.05859,0.04687 0.105469,0.07813 0.136719,0.101562 l -0.210937,0.808594 c -0.09766,-0.08203 -0.21875,-0.152344 -0.363282,-0.207031 -0.136718,-0.05859 -0.296874,-0.08984 -0.480468,-0.08984 -0.125,0 -0.25,0.03125 -0.371094,0.08984 -0.117188,0.05469 -0.222656,0.152344 -0.316406,0.289063 -0.09375,0.132812 -0.167969,0.3125 -0.230469,0.535156 -0.05469,0.226562 -0.08203,0.507812 -0.08203,0.84375 0,0.582031 0.07813,1.03125 0.234375,1.34375 0.160156,0.308594 0.417969,0.464844 0.777343,0.464844 0.210938,0 0.378907,-0.03125 0.515626,-0.08984 0.136718,-0.0625 0.25,-0.121094 0.332031,-0.183594 l 0.199219,0.800781 c -0.109376,0.08984 -0.265626,0.171875 -0.460938,0.246094 C 13.589844,29.964844 13.371094,30 13.117188,30"
       id="path24"
       inkscape:connector-curvature="0" />
    <path
       d="m 16.371094,30 c -0.570313,0 -1.003906,-0.230469 -1.300782,-0.695312 -0.300781,-0.460938 -0.449218,-1.117188 -0.449218,-1.972657 0,-0.421875 0.04687,-0.800781 0.136718,-1.128906 0.08984,-0.332031 0.214844,-0.609375 0.378907,-0.835937 0.164062,-0.230469 0.355469,-0.402344 0.578125,-0.519532 0.222656,-0.121094 0.46875,-0.179687 0.734375,-0.179687 0.144531,0 0.269531,0.01563 0.382812,0.04687 0.117188,0.02734 0.21875,0.0625 0.304688,0.101562 0.08984,0.03906 0.160156,0.07813 0.214843,0.121094 0.0625,0.04687 0.109376,0.07813 0.136719,0.101562 l -0.207031,0.808594 c -0.101562,-0.08203 -0.222656,-0.152344 -0.363281,-0.207031 -0.140625,-0.05859 -0.300781,-0.08984 -0.480469,-0.08984 -0.128906,0 -0.25,0.03125 -0.371094,0.08984 -0.117187,0.05469 -0.226562,0.152344 -0.320312,0.289063 -0.08984,0.132812 -0.167969,0.3125 -0.226563,0.535156 -0.05859,0.226562 -0.08594,0.507812 -0.08594,0.84375 0,0.582031 0.07813,1.03125 0.234375,1.34375 0.160156,0.308594 0.421875,0.464844 0.78125,0.464844 0.207031,0 0.378906,-0.03125 0.511719,-0.08984 0.140624,-0.0625 0.25,-0.121094 0.332031,-0.183594 l 0.203125,0.800781 c -0.113282,0.08984 -0.265625,0.171875 -0.460938,0.246094 C 16.84375,29.964844 16.621094,30 16.371094,30"
       id="path26"
       inkscape:connector-curvature="0" />
    <path
       d="m 18.847656,29.066406 c 0.02344,0.0078 0.04687,0.0078 0.07422,0.0078 0.02344,0 0.04687,0 0.07031,0 0.183593,0 0.332031,-0.04297 0.453124,-0.132813 0.128907,-0.08594 0.226563,-0.207031 0.300782,-0.363281 0.07813,-0.152344 0.132812,-0.335937 0.164062,-0.542969 0.03516,-0.214844 0.05078,-0.449218 0.05078,-0.703125 0,-0.21875 -0.01172,-0.433593 -0.03906,-0.644531 -0.02734,-0.207031 -0.07031,-0.390625 -0.136719,-0.550781 -0.06641,-0.160157 -0.152344,-0.285157 -0.265625,-0.378907 -0.113281,-0.101562 -0.257812,-0.148437 -0.4375,-0.148437 -0.03516,0 -0.07422,0 -0.117187,0.0078 -0.04297,0 -0.08203,0.0039 -0.117188,0.01562 l 0,3.433594 m 1.925782,-1.734375 c 0,0.472657 -0.04688,0.878907 -0.144532,1.214844 -0.08984,0.332031 -0.21875,0.601563 -0.382812,0.808594 -0.164063,0.210937 -0.359375,0.363281 -0.589844,0.460937 -0.226562,0.09375 -0.476562,0.140625 -0.75,0.140625 -0.140625,0 -0.28125,-0.0078 -0.421875,-0.03125 -0.132813,-0.01563 -0.28125,-0.04687 -0.4375,-0.08984 l 0,-4.988282 c 0.183594,-0.05078 0.355469,-0.08203 0.515625,-0.09766 0.160156,-0.01563 0.308594,-0.02734 0.449219,-0.02734 0.265625,0 0.503906,0.05078 0.722656,0.148438 0.21875,0.101562 0.40625,0.257812 0.558594,0.472656 0.152343,0.207031 0.269531,0.480469 0.351562,0.808594 0.08594,0.324218 0.128907,0.71875 0.128907,1.179687"
       id="path28"
       inkscape:connector-curvature="0" />
    <path
       d="m 24,28.347656 c 0,0.308594 -0.04297,0.566406 -0.125,0.777344 -0.08203,0.203125 -0.195312,0.367188 -0.335938,0.496094 -0.140624,0.121094 -0.304687,0.207031 -0.5,0.261718 -0.191406,0.05078 -0.398437,0.07422 -0.621093,0.07422 -0.175781,0 -0.359375,-0.01172 -0.550781,-0.03906 -0.191407,-0.02344 -0.378907,-0.05859 -0.566407,-0.109375 l 0,-4.960938 c 0.152344,-0.03125 0.320313,-0.05859 0.5,-0.08203 0.183594,-0.02734 0.363281,-0.04297 0.539063,-0.04297 0.304687,0 0.550781,0.04297 0.742187,0.125 0.191407,0.07813 0.339844,0.183594 0.449219,0.3125 0.109375,0.128906 0.183594,0.269532 0.222656,0.429688 0.03906,0.160156 0.05859,0.320312 0.05859,0.480468 0,0.242188 -0.05078,0.457032 -0.144531,0.644532 -0.08984,0.1875 -0.214844,0.335937 -0.371094,0.445312 0.273437,0.125 0.457031,0.296875 0.554687,0.511719 C 23.949219,27.886719 24,28.113281 24,28.347656 m -1.898438,-0.691406 0,1.386719 c 0.05469,0.01172 0.117188,0.01953 0.179688,0.02344 0.07031,0.0078 0.136719,0.0078 0.203125,0.0078 0.08984,0 0.179687,-0.0078 0.265625,-0.02344 0.08594,-0.02344 0.164062,-0.05859 0.230469,-0.109375 0.06641,-0.05469 0.125,-0.128906 0.167969,-0.222656 0.04297,-0.09766 0.06641,-0.222656 0.06641,-0.371094 0,-0.246094 -0.06641,-0.421875 -0.191406,-0.527344 C 22.902344,27.710938 22.738281,27.65625 22.53125,27.65625 l -0.429688,0 m 0.3125,-0.84375 c 0.203126,0 0.355469,-0.05469 0.460938,-0.164062 0.105469,-0.117188 0.15625,-0.273438 0.15625,-0.472657 0,-0.121093 -0.01563,-0.214843 -0.04687,-0.289062 -0.03125,-0.07422 -0.07031,-0.132813 -0.121094,-0.171875 -0.05469,-0.04297 -0.113281,-0.07031 -0.183593,-0.08203 -0.07031,-0.01562 -0.140626,-0.02344 -0.214844,-0.02344 -0.0625,0 -0.125,0 -0.1875,0.0078 -0.06641,0.0039 -0.125,0.01172 -0.175782,0.02344 l 0,1.171875 0.3125,0"
       id="path30"
       inkscape:connector-curvature="0" />
  </g>
  <path
     style="fill:#000000;fill-opacity:0.19599998"
     d="m 21,9 7,7 0,-7 z"
     id="path6-4"
     inkscape:connector-curvature="0"
     sodipodi:nodetypes="cccc" />
  <path
     style="fill:#ffffff;fill-opacity:0.39200003"
     d="M 19.000305,2.972e-4 27.991899,9 20.378637,9 C 19.705686,9 19.000305,8.2865104 19.000305,7.6135598 z"
     id="path8-6"
     inkscape:connector-curvature="0"
     sodipodi:nodetypes="ccssc" />
  <g
     style="fill:#ffffff"
     id="g10"
     transform="matrix(0.93772881,0,0,0.93772881,0.9963399,-0.2564071)">
    <path
       d="m 16,12 c -2.945312,0 -5.332031,0.746094 -5.332031,1.667969 l 0,1.332031 c 0,0.921875 2.386719,1.667969 5.332031,1.667969 2.945312,0 5.332031,-0.746094 5.332031,-1.667969 l 0,-1.332031 C 21.332031,12.746094 18.945312,12 16,12 z"
       id="path12"
       inkscape:connector-curvature="0" />
    <path
       d="m 15.984375,17.332031 c -2.390625,0 -4.402344,-0.488281 -5.082031,-1.164062 -0.160156,0.15625 -0.234375,0.324219 -0.234375,0.5 l 0,1.332031 c 0,0.921875 2.386719,1.667969 5.332031,1.667969 2.945312,0 5.332031,-0.746094 5.332031,-1.667969 l 0,-1.332031 c 0,-0.175781 -0.09375,-0.34375 -0.25,-0.5 -0.679687,0.675781 -2.710937,1.164062 -5.097656,1.164062 z"
       id="path14"
       inkscape:connector-curvature="0" />
    <path
       d="m 15.984375,20.332031 c -2.390625,0 -4.402344,-0.488281 -5.082031,-1.164062 -0.160156,0.15625 -0.234375,0.324219 -0.234375,0.5 l 0,1.332031 c 0,0.921875 2.386719,1.667969 5.332031,1.667969 2.945312,0 5.332031,-0.746094 5.332031,-1.667969 l 0,-1.332031 c 0,-0.175781 -0.09375,-0.34375 -0.25,-0.5 -0.679687,0.675781 -2.710937,1.164062 -5.097656,1.164062 z"
       id="path16"
       inkscape:connector-curvature="0" />
  </g>
</svg>
