<svg version="1.1" viewBox="0 0 32 32" xmlns="http://www.w3.org/2000/svg">
 <path d="m5.34 0c-0.687 0-1.34 0.676-1.34 1.39v29.2c0 0.676 0.687 1.39 1.34 1.39h21.3c0.648 0 1.34-0.717 1.34-1.39l1e-3 -21.6-9-9z" style="fill:#c19553"/>
 <path d="m4 24v6.67c0 0.648 0.688 1.33 1.33 1.33h21.3c0.645 0 1.33-0.684 1.33-1.33v-6.67z" style="opacity:.2"/>
 <path d="m21 9 7 7v-7z" style="opacity:.2"/>
 <path d="m19 0 8.99 9h-7.61c-0.673 0-1.38-0.713-1.38-1.39z" style="fill:#fff;opacity:.4"/>
 <path d="m9 0v3h3v-3h-3zm3 3v3h3v-3h-3zm0 3h-3v3h3v-3zm0 3v3h3v-3h-3zm0 3h-3v3h3v-3zm-3 4v6h6v-6h-6z" style="fill:#fff"/>
 <path d="m21.9 24.9c-1.48 0-2.69 1.02-2.69 3.05 0 1.8 0.779 3.05 2.57 3.05h2e-3c0.284-2.9e-5 1.06-0.0369 1.65-0.406l-0.297-0.916c-0.384 0.253-0.812 0.254-1.25 0.312-0.631 0-1.49-0.22-1.49-2.07 0-0.644 0.155-2.01 1.47-2.01 0.66 0 1.11 0.254 1.24 0.34l0.307-0.924c-0.251-0.192-0.917-0.426-1.53-0.426zm-5.59 0.0098c-0.098 0-0.209-0.0012-0.34 0.0078-0.404 0.034-0.817 0.0455-1.23 0.146v5.89h1.21v-2.17h0.627c0.398 0.68 0.836 1.39 1.16 2.17h1.26c-0.395-0.822-0.801-1.68-1.33-2.46 0.748-0.333 0.932-1.02 0.932-1.61 0-1.7-1.38-1.98-2.29-1.98zm-5.47 0.043c-0.637 1.91-1.29 3.92-1.82 6h1.33l0.291-1.29h1.71l0.305 1.29h1.37c-0.472-1.91-1.09-3.96-1.78-6zm5.47 0.996c0.382 0 1.07 0.113 1.07 0.926-3.29e-4 0.913-0.876 0.916-1.17 0.916h-0.262v-1.81c0.116-0.01 0.236-0.0342 0.361-0.0312zm-4.81 0.17c0.23 0.793 0.475 1.71 0.621 2.56h-1.26c0.172-0.812 0.366-1.76 0.635-2.56z" style="fill:#fff"/>
</svg>
