<svg version="1.1" viewBox="0 0 32 32" xmlns="http://www.w3.org/2000/svg">
 <path d="m5.34 0c-0.687 0-1.34 0.676-1.34 1.39v29.2c0 0.676 0.687 1.39 1.34 1.39h21.3c0.648 0 1.34-0.717 1.34-1.39l1e-3 -21.6-9-9z" style="fill:#c19553"/>
 <path d="m4 24v6.67c0 0.648 0.688 1.33 1.33 1.33h21.3c0.645 0 1.33-0.684 1.33-1.33v-6.67z" style="opacity:.2"/>
 <path d="m16.6 24.9c-1.61 0-2.65 1.23-2.65 3.1 0 1.72 0.719 3.1 2.5 3.1 0.434 0 0.803-0.0298 1.1-0.0938 0.31-0.064 0.536-0.124 0.68-0.174v-2.96h-1.21v2.17c-0.07 0.014-0.147 0.0222-0.234 0.0312-0.086 4e-3 -0.164 0.0098-0.234 0.0098-1.14 0-1.36-1.08-1.36-2.08 0-1.6 0.719-2.07 1.58-2.07 0.603 0 1.08 0.282 1.18 0.346l0.314-0.939c-0.501-0.349-1.08-0.37-1.66-0.434zm-7.59 0.0859v0.99h1.74v5.01h1.21v-5.01h1.65v-0.99zm10.2 0v0.99h2.35c-0.833 1.38-1.7 2.82-2.48 4.32v0.688h4.02v-0.986h-2.62c0.78-1.4 1.61-2.8 2.53-4.18h0.0039v-0.834z" style="fill:#fff"/>
 <path d="m21 9 7 7v-7z" style="opacity:.2"/>
 <path d="m19 0 8.99 9h-7.61c-0.673 0-1.38-0.713-1.38-1.39z" style="fill-opacity:.392;fill:#fff"/>
 <path d="m9 0v3h3v-3h-3zm3 3v3h3v-3h-3zm0 3h-3v3h3v-3zm0 3v3h3v-3h-3zm0 3h-3v3h3v-3zm-3 4v6h6v-6h-6z" style="fill:#fff"/>
</svg>
