<svg version="1.1" viewBox="0 0 32 32" xmlns="http://www.w3.org/2000/svg">
 <path d="m5.34 0c-0.687 0-1.34 0.676-1.34 1.39v29.2c0 0.676 0.687 1.39 1.34 1.39h21.3c0.648 0 1.34-0.717 1.34-1.39l1e-3 -21.6-9-9z" style="fill:#c19553"/>
 <path d="m4 24v6.67c0 0.648 0.688 1.33 1.33 1.33h21.3c0.645 0 1.33-0.684 1.33-1.33v-6.67z" style="opacity:.2"/>
 <path d="m21 9 7 7v-7z" style="opacity:.2"/>
 <path d="m19 0 8.99 9h-7.61c-0.673 0-1.38-0.713-1.38-1.39z" style="fill:#fff;opacity:.4"/>
 <path d="m9 0v3h3v-3h-3zm3 3v3h3v-3h-3zm0 3h-3v3h3v-3zm0 3v3h3v-3h-3zm0 3h-3v3h3v-3zm-3 4v6h6v-6h-6z" style="fill:#fff"/>
 <path d="m16.7 24.9c-1.56-0.0193-2.73 1.1-2.73 3.1 0 1.83 0.78 3.1 2.62 3.1h2e-3c0.3 0 1.07-0.0394 1.68-0.412l-0.303-0.932c-0.368 0.214-0.787 0.316-1.27 0.316-0.665 0-1.52-0.241-1.52-2.1 0-0.689 0.169-2.04 1.5-2.04 0.646 0 1.09 0.232 1.26 0.344l0.311-0.939c-0.471-0.328-1.03-0.425-1.56-0.432zm-5.98 0.082c-0.798 2.49-1.3 4.16-1.75 6h1.27l0.279-1.3h1.64l0.293 1.3h1.31c-0.687-2.91-1.6-5.66-1.71-6zm8.33 0v6h3.89v-0.986h-2.71v-1.89h2.17v-0.984h-2.17v-1.15h2.5v-0.992zm-7.69 1.17c0.227 0.812 0.475 1.65 0.596 2.55h-1.21c0.151-0.869 0.344-1.71 0.609-2.55z" style="fill:#fff"/>
</svg>
