<?xml version="1.0" encoding="UTF-8" standalone="no"?>
<svg
   xmlns:dc="http://purl.org/dc/elements/1.1/"
   xmlns:cc="http://creativecommons.org/ns#"
   xmlns:rdf="http://www.w3.org/1999/02/22-rdf-syntax-ns#"
   xmlns:svg="http://www.w3.org/2000/svg"
   xmlns="http://www.w3.org/2000/svg"
   xmlns:sodipodi="http://sodipodi.sourceforge.net/DTD/sodipodi-0.dtd"
   xmlns:inkscape="http://www.inkscape.org/namespaces/inkscape"
   width="32"
   height="32"
   viewBox="0 0 32 32"
   id="svg2"
   version="1.1"
   inkscape:version="0.91 r13725"
   sodipodi:docname="application-x-perl.svg">
  <metadata
     id="metadata34">
    <rdf:RDF>
      <cc:Work
         rdf:about="">
        <dc:format>image/svg+xml</dc:format>
        <dc:type
           rdf:resource="http://purl.org/dc/dcmitype/StillImage" />
        <dc:title></dc:title>
      </cc:Work>
    </rdf:RDF>
  </metadata>
  <defs
     id="defs32" />
  <sodipodi:namedview
     pagecolor="#ffffff"
     bordercolor="#666666"
     borderopacity="1"
     objecttolerance="10"
     gridtolerance="10"
     guidetolerance="10"
     inkscape:pageopacity="0"
     inkscape:pageshadow="2"
     inkscape:window-width="1366"
     inkscape:window-height="713"
     id="namedview30"
     showgrid="true"
     inkscape:zoom="19.451772"
     inkscape:cx="23.350665"
     inkscape:cy="14.194461"
     inkscape:window-x="0"
     inkscape:window-y="28"
     inkscape:window-maximized="1"
     inkscape:current-layer="svg2">
    <inkscape:grid
       type="xygrid"
       id="grid3022" />
  </sodipodi:namedview>
  <path
     style="fill:#4cb4e0;fill-opacity:1"
     d="M 5.335888,2.971e-4 C 4.648414,3.121e-4 4,0.676788 4,1.3940313 L 4,30.606268 C 4,31.282757 4.687474,32 5.335888,32 l 21.327332,0 c 0.648414,0 1.335888,-0.717243 1.335888,-1.393732 L 28,8.9999998 l -9,-9 z"
     id="path4-1"
     inkscape:connector-curvature="0"
     sodipodi:nodetypes="ssssssccs" />
  <path
     style="fill:#000000;fill-opacity:0.19599998"
     d="M 21,8.9999998 28,16 28,8.9999998 z"
     id="path6-4"
     inkscape:connector-curvature="0"
     sodipodi:nodetypes="cccc" />
  <path
     style="fill:#ffffff;fill-opacity:0.39200003"
     d="m 19.000306,2.971e-4 8.991594,8.9997027 -7.613262,0 c -0.672951,0 -1.378332,-0.7134896 -1.378332,-1.3864402 z"
     id="path8-6"
     inkscape:connector-curvature="0"
     sodipodi:nodetypes="ccssc" />
  <g
     style="fill:none;stroke:#ffffff"
     id="g20"
     transform="matrix(1.1669608,0,0,1.1669009,-2.6710799,-3.0040641)">
    <g
       style="stroke-width:2"
       id="g22" />
  </g>
  <path
     inkscape:connector-curvature="0"
     style="fill:#ffffff;fill-rule:evenodd"
     d="m 17.804716,23.994038 c -0.385255,-0.05108 0.0679,-0.438942 0.195788,-0.516514 0.24631,-0.147576 0.446834,-0.315963 0.601569,-0.594087 0.244731,-0.446511 0.353854,-1.038706 0.458063,-1.551438 0.06947,-0.348127 0.13719,-0.55057 -0.04754,-0.845722 -0.183154,-0.293259 0.129471,-0.535435 -0.06474,-0.845721 -0.325259,-0.5203 -0.462625,-1.208986 -0.784726,-1.72361 -0.09158,-0.145683 -0.05842,-0.281906 -0.189469,-0.297043 -0.06316,-0.0076 -0.225786,0.143792 -0.281049,0.187308 -0.15947,0.128656 -0.353679,0.1892 -0.509991,0.314071 -0.07895,0.06244 -0.228944,0.01703 -0.293681,0.07757 -0.187891,0.175957 -0.143682,0.722744 -0.124733,1.002759 0.02842,0.399211 0.295258,0.524083 0.295258,0.908158 0,0.46354 -0.06966,0.779503 0.05192,1.254393 0.06947,0.272448 0.244822,0.582737 0.273242,0.860859 0.02369,0.219471 -0.01105,0.213795 -0.06474,0.421915 -0.06316,0.247851 -0.09148,0.469215 -0.287266,0.580843 -0.112106,0.06244 -0.626233,0.08892 -0.689389,-0.06244 -0.124737,-0.297043 0.35052,-0.399211 0.431045,-0.580842 0.173678,-0.389753 -0.185209,-1.400077 -0.341523,-1.738745 -0.08684,-0.183524 -0.240123,-0.3311 -0.3017,-0.516515 -0.08368,-0.249744 0.08526,-0.420024 0.05842,-0.611115 -0.0521,-0.372724 -0.183152,-0.76815 -0.281046,-1.12763 -0.228944,-0.83437 -0.546306,0.433268 -0.678937,0.753015 -0.05368,0.124871 -0.09158,0.262988 -0.143682,0.391643 -0.06316,0.151359 0.07579,0.281907 0.03789,0.469215 -0.03474,0.175956 -0.205259,0.27434 -0.299995,0.406779 -0.143681,0.202444 -0.243154,0.457864 -0.32052,0.705714 -0.161051,0.516515 -0.217893,1.417106 -0.516309,1.831453 -0.04263,0.06055 -0.162628,0.02649 -0.208417,0.07946 -0.104209,0.121088 0.02684,0.25542 -0.17684,0.336776 -0.156311,0.06244 -0.551043,0.130547 -0.699461,0.02271 -0.284207,-0.206228 0.07105,-0.459755 0.247891,-0.673552 0.249468,-0.297043 0.538411,-0.569491 0.732618,-0.923293 0.255787,-0.465432 0.309469,-0.989515 0.359994,-1.526842 0.02369,-0.259203 -0.209996,-0.387859 -0.0079,-0.698146 0.06474,-0.09839 0.262103,-0.08514 0.262103,-0.187308 0,-0.323532 0.0079,-0.648954 0,-0.970594 -0.0095,-0.391644 -0.0079,-1.036814 -0.320522,-1.284666 -0.415257,-0.332989 -0.942618,-0.420022 -1.338928,-0.775717 -0.39473,-0.355695 -0.756303,-0.677334 -0.99472,-1.244933 -0.123156,-0.297044 -0.187892,-0.58841 -0.287364,-0.893022 -0.07263,-0.225148 -0.0521,-0.149468 -0.168941,-0.281908 -0.06947,-0.07757 -0.172103,-0.132439 -0.24947,-0.219471 -0.200523,-0.230824 -0.236839,-0.457862 -0.574727,-0.361371 -0.134209,0.03973 -0.355258,0.340559 -0.431046,0.157035 -0.04894,-0.117304 -0.01895,-0.225148 0.0063,-0.344343 0.03789,-0.177847 -0.142103,-0.2365 -0.137366,-0.40678 0.0079,-0.293258 0.402625,-0.601653 0.607885,-0.650846 0.258943,-0.06244 0.543149,0.07189 0.817881,0.0076 0.22105,-0.05108 0.413678,-0.194876 0.626832,-0.257311 0.222628,-0.06811 0.423151,-0.09082 0.614201,0.07 0.08684,0.07379 0.119998,0.206227 0.195786,0.281907 0.06474,0.06244 0.121578,0.04541 0.195787,0.109736 0.224207,0.192983 0.241575,0.478675 -0.143683,0.391643 0.16263,0.804098 0.950511,2.966651 1.829972,1.848481 0.410519,-0.522191 0.787882,-1.101143 1.176297,-1.644145 0.342625,-0.478676 0.54157,-1.017895 1.124192,-0.925186 0.574726,0.09082 0.967879,0.563815 1.413134,0.955457 0.363154,0.32164 0.79104,0.391644 1.176297,0.658415 0.40894,0.281908 0.773672,0.756799 0.914197,1.299802 0.203681,0.785178 0.08684,1.541976 0.445255,2.287423 0.216313,0.452187 0.524202,0.768151 0.797357,1.142766 0.146839,0.202443 0.244731,0.480567 0.195786,0.751122 -0.03316,0.187308 -0.143684,0.221364 -0.143684,0.438944 0,0.380291 0.02835,0.756797 0.01415,1.137089 -0.01263,0.338667 -0.03474,0.669767 -0.07421,1.004651 -0.03474,0.289475 -0.135713,0.370831 -0.214657,0.584626 -0.116843,0.315964 -0.0979,0.454079 -0.378943,0.578951 -0.159472,0.07 -0.431047,0.211904 -0.60157,0.204335 -0.244733,-0.01324 -0.279469,-0.25542 -0.09158,-0.516515 0.121577,-0.17028 0.334813,-0.225147 0.470602,-0.408671 0.396308,-0.531651 0.566823,-2.130387 0.23525,-2.694202 -0.137367,-0.234608 -0.300069,-0.2365 -0.3127,-0.594086 -0.01263,-0.319748 0.07127,-0.431377 -0.1703,-0.720852 -0.767357,-0.469215 -0.822842,-0.804098 -1.072313,-0.643278 -0.303152,0.196767 -0.06474,1.303585 0,1.613872 0.116841,0.556247 0.576308,0.817343 0.274734,1.379265 -0.216313,0.401104 -0.317364,0.815451 -0.464204,1.284666 -0.132629,0.421915 -0.121576,1.025463 -0.333152,1.377374 -0.04105,0.06811 -0.105789,0.105951 -0.143683,0.172171 -0.02842,0.04919 -0.07105,0.191091 -0.09158,0.219471 -0.08842,0.12298 -0.107368,0.155144 -0.24947,0.219473 -0.252628,0.115411 -0.562098,0.07757 -0.83525,0.07757"
     id="path4"
     sodipodi:nodetypes="ccccccccccccscccccccccccccccccscccccscccccccccccccccccccccccccccsccccccccccccccccccc" />
</svg>
