<?xml version="1.0" encoding="UTF-8" standalone="no"?>
<svg
   xmlns:dc="http://purl.org/dc/elements/1.1/"
   xmlns:cc="http://creativecommons.org/ns#"
   xmlns:rdf="http://www.w3.org/1999/02/22-rdf-syntax-ns#"
   xmlns:svg="http://www.w3.org/2000/svg"
   xmlns="http://www.w3.org/2000/svg"
   xmlns:sodipodi="http://sodipodi.sourceforge.net/DTD/sodipodi-0.dtd"
   xmlns:inkscape="http://www.inkscape.org/namespaces/inkscape"
   width="32"
   height="32"
   viewBox="0 0 32 32"
   id="svg2"
   version="1.1"
   inkscape:version="0.91 r13725"
   sodipodi:docname="application-vnd.oasis.opendocument.text-web.svg">
  <metadata
     id="metadata44">
    <rdf:RDF>
      <cc:Work
         rdf:about="">
        <dc:format>image/svg+xml</dc:format>
        <dc:type
           rdf:resource="http://purl.org/dc/dcmitype/StillImage" />
      </cc:Work>
    </rdf:RDF>
  </metadata>
  <defs
     id="defs42" />
  <sodipodi:namedview
     pagecolor="#ffffff"
     bordercolor="#666666"
     borderopacity="1"
     objecttolerance="10"
     gridtolerance="10"
     guidetolerance="10"
     inkscape:pageopacity="0"
     inkscape:pageshadow="2"
     inkscape:window-width="1366"
     inkscape:window-height="704"
     id="namedview40"
     showgrid="false"
     inkscape:zoom="11.313708"
     inkscape:cx="17.135817"
     inkscape:cy="3.4008609"
     inkscape:window-x="0"
     inkscape:window-y="27"
     inkscape:window-maximized="1"
     inkscape:current-layer="svg2">
    <inkscape:grid
       type="xygrid"
       id="grid2998" />
  </sodipodi:namedview>
  <path
     style="fill:#7099c3;fill-opacity:1"
     d="M 5.335888,2.977e-4 C 4.648414,3.127e-4 4,0.6767886 4,1.3940318 L 4,30.606268 C 4,31.282757 4.687474,32 5.335888,32 l 21.327332,0 c 0.648414,0 1.335888,-0.717243 1.335888,-1.393732 L 28,9 19,4e-7 z"
     id="path4-1"
     inkscape:connector-curvature="0"
     sodipodi:nodetypes="ssssssccs" />
  <path
     style="fill:#000000;fill-opacity:0.19599998"
     d="m 21,9 7,7 0,-7 z"
     id="path6-4"
     inkscape:connector-curvature="0"
     sodipodi:nodetypes="cccc" />
  <path
     style="fill:#ffffff;fill-opacity:0.39200003"
     d="M 19.000306,2.977e-4 27.9919,9 20.378638,9 C 19.705687,9 19.000306,8.286511 19.000306,7.61356 z"
     id="path8-6"
     inkscape:connector-curvature="0"
     sodipodi:nodetypes="ccssc" />
  <path
     style="fill:#ffffff"
     inkscape:connector-curvature="0"
     id="path12"
     d="m 11.000589,14 0,1 L 21,15 21,14 z" />
  <path
     style="fill:#ffffff"
     inkscape:connector-curvature="0"
     id="path14"
     d="m 10.555433,16.335432 0,1.113641 11.105154,0 0,-1.113641 z" />
  <path
     style="fill:#ffffff"
     inkscape:connector-curvature="0"
     id="path16"
     d="m 11,19 0,1 9.999411,0 0,-1 z" />
  <path
     style="fill:#ffffff"
     inkscape:connector-curvature="0"
     id="path18"
     d="m 15.671477,11.339961 0,11.104584 0.872555,0 0,-11.104584 z" />
  <g
     style="fill:none;stroke:#ffffff"
     id="g20"
     transform="matrix(1.0182376,0,0,1.0181853,-0.183792,-1.4350832)">
    <g
       style="stroke-width:2"
       id="g22">
      <path
         d="m 20.440814,33.002083 c -1.998076,-6.001389 -1.998076,-12.002777 0,-18.004166"
         transform="matrix(0.54545,0,0,0.54545,2.90922,4.90928)"
         id="path24"
         inkscape:connector-curvature="0" />
      <path
         d="m 27.466306,33.002083 c 2.005237,-4.99877 2.005237,-12.002777 0,-18.004166"
         transform="matrix(0.54545,0,0,0.54545,2.90922,4.90928)"
         id="path26"
         inkscape:connector-curvature="0" />
    </g>
    <path
       style="stroke-width:1.82099998;stroke-linecap:round"
       d="m 33.055052,27.317092 c 0,5.026824 -4.074922,9.101746 -9.101746,9.101746 -5.026824,0 -9.101747,-4.074922 -9.101747,-9.101746 0,-5.026824 4.074923,-9.101747 9.101747,-9.101747 5.026824,0 9.101746,4.074923 9.101746,9.101747 z"
       transform="matrix(0.59913,0,0,0.59913,1.64887,1.63352)"
       id="path28"
       inkscape:connector-curvature="0" />
  </g>
  <path
     style="fill:#000000;fill-opacity:0.19599998"
     d="m 4,24 0,6.667969 C 4,31.316407 4.6875,32 5.332031,32 l 21.335938,0 C 27.3125,32 28,31.316407 28,30.667969 L 28,24 z"
     id="path3025"
     inkscape:connector-curvature="0" />
  <g
     style="fill:#ffffff"
     id="g3047"
     transform="matrix(1.044898,0,0,1.1743119,-0.68571532,-4.1009174)">
    <path
       d="m 22.667969,24.78125 0,5.109375 -1.052734,0 0,-2.505796 -1.722657,0 0,2.505796 -1.004882,0 0,-5.109375 1.004882,0 0,1.759829 1.722657,0 0,-1.759829 1.052734,0"
       id="path3053"
       inkscape:connector-curvature="0"
       sodipodi:nodetypes="ccccccccccccc" />
  </g>
  <path
     style="fill:#ffffff"
     inkscape:connector-curvature="0"
     id="path3025-3"
     d="m 10.167294,27.997802 c 0,0.281319 0.01393,0.545055 0.03248,0.791209 0.03248,0.241758 0.08351,0.452748 0.153123,0.632967 0.08352,0.18022 0.19025,0.320879 0.329452,0.426373 0.139204,0.105495 0.435641,0.158243 0.667649,0.158243 0.227368,0 0.518504,-0.05275 0.657708,-0.158243 0.143844,-0.105494 0.255207,-0.246153 0.329449,-0.426373 0.07888,-0.18901 0.129926,-0.399999 0.153125,-0.641758 0.02785,-0.241759 0.04176,-0.501099 0.04176,-0.782418 0,-0.276922 -0.01391,-0.536263 -0.04176,-0.778022 -0.02318,-0.250549 -0.07424,-0.461538 -0.153125,-0.641759 -0.07424,-0.180219 -0.180965,-0.320879 -0.32017,-0.426373 -0.139205,-0.105494 -0.430338,-0.158242 -0.666987,-0.158242 -0.232008,0 -0.528445,0.05274 -0.667649,0.158242 -0.139202,0.105494 -0.245926,0.25055 -0.329452,0.435165 -0.06959,0.18022 -0.120642,0.391208 -0.153123,0.632967 -0.01857,0.241759 -0.03248,0.5011 -0.03248,0.778022 m -1.267294,0 C 8.9,27.008792 9.118088,26.261538 9.549621,25.76044 9.981156,25.250549 10.584375,25 11.35,25 c 0.798107,0 1.405966,0.250549 1.823582,0.76044 0.417614,0.501098 0.626418,1.248352 0.626418,2.237362 0,0.993407 -0.213445,1.740659 -0.635698,2.25055 C 12.737404,30.749451 12.138829,31 11.36392,31 10.565814,31 9.953315,30.749451 9.526421,30.248352 9.108807,29.738461 8.9,28.991209 8.9,27.997802"
     sodipodi:nodetypes="cccsscccsccssccccccscscscc" />
  <path
     style="fill:#ffffff"
     inkscape:connector-curvature="0"
     id="path3027-6"
     d="m 18.559,25 0,0.990069 -1.552807,0 0,5.009931 -1.136274,0 0,-5.009931 -1.619919,0 0,-0.990069 4.309,0"
     sodipodi:nodetypes="ccccccccc" />
</svg>
