<svg width="32" xmlns="http://www.w3.org/2000/svg" height="32" viewBox="0 0 32 32" xmlns:xlink="http://www.w3.org/1999/xlink">
<defs>
<linearGradient gradientTransform="matrix(.33206 0 0 .33206 -9.95181 .67425)" id="linear0" y1="14" x1="102" y2="24" gradientUnits="userSpaceOnUse" x2="92">
<stop offset="0" style="stop-color:#c8c8c8"/>
<stop offset="1" style="stop-color:#efefef"/>
</linearGradient>
<linearGradient gradientTransform="matrix(.22989 0 0 .22989 1.28709 -66.98905)" id="linear1" y1="413" y2="419" gradientUnits="userSpaceOnUse" x2="0">
<stop offset="0" style="stop-color:#5baf34"/>
<stop offset=".5" style="stop-color:#4c902a"/>
<stop offset="1" style="stop-color:#396c20"/>
</linearGradient>
</defs>
<path style="fill:#e5e5e5" d="M 5.425781 29.332031 L 22.4375 29.332031 C 26.574219 29.332031 26.574219 25.195312 26.574219 25.195312 L 26.574219 8.644531 C 26.574219 8.644531 20.597656 2.667969 20.597656 2.667969 L 9.5625 2.667969 C 9.5625 2.667969 5.425781 2.667969 5.425781 6.804688 Z "/>
<path style="fill:url(#linear0)" d="M 20.597656 2.667969 L 20.597656 8.644531 L 26.574219 8.644531 Z "/>
<path style="fill:url(#linear1)" d="M 5.425781 29.332031 L 22.4375 29.332031 C 26.574219 29.332031 26.574219 25.195312 26.574219 25.195312 C 26.574219 25.195312 26.574219 21.515625 26.574219 21.515625 C 26.574219 21.515625 26.574219 27.953125 22.4375 27.953125 L 9.5625 27.953125 C 9.5625 27.953125 5.425781 27.953125 5.425781 29.332031 Z "/>
<g style="fill:#5baf34">
<path d="M 10.257812 9.332031 C 9.789062 9.378906 9.386719 9.871094 9.394531 10.398438 L 9.394531 21.625 C 9.398438 22.175781 9.839844 22.671875 10.332031 22.664062 L 21.753906 22.664062 C 22.234375 22.65625 22.660156 22.167969 22.667969 21.625 L 22.667969 10.398438 C 22.671875 9.847656 22.242188 9.339844 21.753906 9.332031 Z M 11.042969 11 L 21.007812 11 L 21.007812 19.332031 L 11.042969 19.332031 Z "/>
<path style="fill-rule:evenodd" d="M 9.972656 17.589844 C 10.164062 17.445312 9.964844 17.03125 10.691406 16.308594 C 11.414062 15.585938 12.378906 14.59375 13.632812 13.289062 C 14.453125 14.453125 15.054688 15.300781 15.5 15.847656 C 15.933594 16.398438 16.175781 16.628906 16.234375 16.566406 C 16.699219 16.152344 17.085938 15.796875 17.421875 15.488281 C 17.753906 15.183594 18.011719 14.925781 18.214844 14.722656 C 19.230469 16.003906 20.074219 17.058594 20.816406 17.949219 C 21.542969 18.832031 22.121094 19.5 22.570312 19.996094 L 20.96875 20.867188 C 20.738281 21.460938 20.546875 20.824219 20.019531 20.851562 C 19.480469 20.871094 19.714844 21.253906 19.050781 21.136719 C 18.378906 21.015625 17.355469 21.773438 16.761719 21.574219 C 16.160156 21.355469 14.222656 20.695312 13.65625 20.476562 C 13.082031 20.261719 11.550781 20.609375 10.941406 20.824219 C 10.28125 21.144531 10.386719 17.265625 9.726562 17.589844 Z "/>
</g>
</svg>
