<?xml version="1.0" encoding="UTF-8" standalone="no"?>
<svg
   xmlns:dc="http://purl.org/dc/elements/1.1/"
   xmlns:cc="http://creativecommons.org/ns#"
   xmlns:rdf="http://www.w3.org/1999/02/22-rdf-syntax-ns#"
   xmlns:svg="http://www.w3.org/2000/svg"
   xmlns="http://www.w3.org/2000/svg"
   xmlns:sodipodi="http://sodipodi.sourceforge.net/DTD/sodipodi-0.dtd"
   xmlns:inkscape="http://www.inkscape.org/namespaces/inkscape"
   width="32"
   height="32"
   viewBox="0 0 32 32"
   id="svg3003"
   version="1.1"
   inkscape:version="0.91 r13725"
   sodipodi:docname="application-vnd.oasis.opendocument.formula-template.svg">
  <metadata
     id="metadata3023">
    <rdf:RDF>
      <cc:Work
         rdf:about="">
        <dc:format>image/svg+xml</dc:format>
        <dc:type
           rdf:resource="http://purl.org/dc/dcmitype/StillImage" />
      </cc:Work>
    </rdf:RDF>
  </metadata>
  <defs
     id="defs3021" />
  <sodipodi:namedview
     pagecolor="#ffffff"
     bordercolor="#666666"
     borderopacity="1"
     objecttolerance="10"
     gridtolerance="10"
     guidetolerance="10"
     inkscape:pageopacity="0"
     inkscape:pageshadow="2"
     inkscape:window-width="1366"
     inkscape:window-height="704"
     id="namedview3019"
     showgrid="false"
     inkscape:zoom="1"
     inkscape:cx="15.872169"
     inkscape:cy="5.3780652"
     inkscape:window-x="0"
     inkscape:window-y="27"
     inkscape:window-maximized="1"
     inkscape:current-layer="svg3003">
    <inkscape:grid
       type="xygrid"
       id="grid3032" />
  </sodipodi:namedview>
  <path
     inkscape:connector-curvature="0"
     style="fill:#785a8b;fill-opacity:1"
     d="M 5.3437496,0 C 4.6562766,1.5e-5 4,0.689007 4,1.40625 l 0,29.1875 C 4,31.270239 4.6953366,32 5.3437496,32 L 26.65625,32 C 27.304664,32 28,31.270239 28,30.59375 L 28,8.9999996 28,1.375 C 28,0.702049 27.297951,0 26.625,0 L 19,0 5.3437496,0 z"
     id="path4-1" />
  <path
     style="fill:#000000;fill-opacity:0.19599998"
     d="m 4,24 0,6.667969 C 4,31.316407 4.6875,32 5.332031,32 l 21.335938,0 C 27.3125,32 28,31.316407 28,30.667969 L 28,24 z"
     id="path3007"
     inkscape:connector-curvature="0" />
  <path
     style="fill:#ffffff"
     inkscape:connector-curvature="0"
     id="path3011"
     d="m 12,11 0,6 -2,0 2,4 1,0 0,-9 c 2.952681,0 6.148715,0 9,0 l 0,-1 z m 3.6201,1.880127 -1.415503,1.47634 2.478143,2.583596 -2.478143,2.583596 L 15.6201,21 18.098243,18.416404 20.576386,21 l 1.415503,-1.476341 -2.478144,-2.583596 2.478144,-2.583596 -1.415503,-1.47634 -2.478143,2.583596 z"
     sodipodi:nodetypes="cccccccccccccccccccccc" />
  <path
     style="fill:#ffffff"
     inkscape:connector-curvature="0"
     id="path3017"
     d="m 19.18,31 0,-6 3.82,0 0,1 -2.737442,0 0,1.95688 2.2,0 0,0.98624 -2.2,0 0,2.05688 L 19.18,31"
     sodipodi:nodetypes="ccccccccccc" />
  <path
     style="fill:#ffffff"
     inkscape:connector-curvature="0"
     id="path3025"
     d="m 9.937294,27.997802 c 0,0.281319 0.01393,0.545055 0.03248,0.791209 0.03248,0.241758 0.08351,0.452748 0.153123,0.632967 0.08352,0.18022 0.19025,0.320879 0.329452,0.426373 0.139204,0.105495 0.435641,0.158243 0.667649,0.158243 0.227368,0 0.518504,-0.05275 0.657708,-0.158243 0.143844,-0.105494 0.255207,-0.246153 0.329449,-0.426373 0.07888,-0.18901 0.129926,-0.399999 0.153125,-0.641758 0.02785,-0.241759 0.04176,-0.501099 0.04176,-0.782418 0,-0.276922 -0.01391,-0.536263 -0.04176,-0.778022 -0.02318,-0.250549 -0.07424,-0.461538 -0.153125,-0.641759 -0.07424,-0.180219 -0.180965,-0.320879 -0.32017,-0.426373 -0.139205,-0.105494 -0.430338,-0.158242 -0.666987,-0.158242 -0.232008,0 -0.528445,0.05274 -0.667649,0.158242 -0.139202,0.105494 -0.245926,0.25055 -0.329452,0.435165 -0.06959,0.18022 -0.120642,0.391208 -0.153123,0.632967 -0.01857,0.241759 -0.03248,0.5011 -0.03248,0.778022 m -1.267294,0 c 0,-0.98901 0.218088,-1.736264 0.649621,-2.237362 C 9.751156,25.250549 10.354375,25 11.12,25 c 0.798107,0 1.405966,0.250549 1.823582,0.76044 0.417614,0.501098 0.626418,1.248352 0.626418,2.237362 0,0.993407 -0.213445,1.740659 -0.635698,2.25055 C 12.507404,30.749451 11.908829,31 11.13392,31 10.335814,31 9.723315,30.749451 9.296421,30.248352 8.878807,29.738461 8.67,28.991209 8.67,27.997802"
     sodipodi:nodetypes="cccsscccsccssccccccscscscc" />
  <path
     style="fill:#ffffff"
     inkscape:connector-curvature="0"
     id="path3027-6"
     d="m 18.67,25 0,0.990069 -1.68231,0 0,5.009931 -1.215381,0 0,-5.009931 -1.711309,0 0,-0.990069 4.609,0"
     sodipodi:nodetypes="ccccccccc" />
</svg>
