<svg width="32" xmlns="http://www.w3.org/2000/svg" height="32" viewBox="0 0 32 32" xmlns:xlink="http://www.w3.org/1999/xlink">
<defs>
<linearGradient gradientTransform="matrix(.33206 0 0 .33206 -9.95181 .67425)" id="linear0" y1="14" x1="102" y2="24" gradientUnits="userSpaceOnUse" x2="92">
<stop offset="0" style="stop-color:#c8c8c8"/>
<stop offset="1" style="stop-color:#efefef"/>
</linearGradient>
<linearGradient gradientTransform="matrix(.22989 0 0 .22989 1.28709 -66.98905)" id="linear1" y1="413" y2="419" gradientUnits="userSpaceOnUse" x2="0">
<stop offset="0" style="stop-color:#cc2929"/>
<stop offset=".5" style="stop-color:#bb2f2f"/>
<stop offset="1" style="stop-color:#a12c2c"/>
</linearGradient>
</defs>
<path style="fill:#e5e5e5" d="M 5.425781 29.332031 L 22.4375 29.332031 C 26.574219 29.332031 26.574219 25.195312 26.574219 25.195312 L 26.574219 8.644531 C 26.574219 8.644531 20.597656 2.667969 20.597656 2.667969 L 9.5625 2.667969 C 9.5625 2.667969 5.425781 2.667969 5.425781 6.804688 Z "/>
<path style="fill:url(#linear0)" d="M 20.597656 2.667969 L 20.597656 8.644531 L 26.574219 8.644531 Z "/>
<path style="fill:url(#linear1)" d="M 5.425781 29.332031 L 22.4375 29.332031 C 26.574219 29.332031 26.574219 25.195312 26.574219 25.195312 C 26.574219 25.195312 26.574219 21.515625 26.574219 21.515625 C 26.574219 21.515625 26.574219 27.953125 22.4375 27.953125 L 9.5625 27.953125 C 9.5625 27.953125 5.425781 27.953125 5.425781 29.332031 Z "/>
<path style="fill:#cc2929;fill-rule:evenodd" d="M 10.445312 20.679688 L 10.753906 23.207031 C 10.753906 23.207031 14.832031 24.574219 16.878906 18.347656 L 20.445312 18.347656 L 20.445312 15.566406 L 18.222656 15.566406 C 18.222656 15.566406 19.257812 12.664062 21.558594 12.417969 C 21.558594 12.355469 21.308594 10.011719 21.308594 10.011719 C 21.308594 10.011719 17.519531 9.457031 15.222656 15.4375 C 13.238281 21.292969 10.441406 20.679688 10.441406 20.679688 Z "/>
</svg>
