<svg version="1.1" viewBox="0 0 32 32" xmlns="http://www.w3.org/2000/svg">
 <path d="m5.34 0c-0.687 0-1.34 0.676-1.34 1.39v29.2c0 0.676 0.687 1.39 1.34 1.39h21.3c0.648 0 1.34-0.717 1.34-1.39l1e-3 -21.6-9-9z" style="fill:#c19553"/>
 <path d="m4 24v6.67c0 0.648 0.688 1.33 1.33 1.33h21.3c0.645 0 1.33-0.684 1.33-1.33v-6.67z" style="opacity:.2"/>
 <path d="m21 9 7 7v-7z" style="opacity:.2"/>
 <path d="m19.5 25v0.99h2.35c-0.834 1.38-1.7 2.82-2.48 4.32v0.689h4.02v-0.988h-2.62c0.78-1.4 1.61-2.8 2.54-4.18h0.00391v-0.832h-3.81zm-10.4 0.00195v0.99h1.74v5.01h1.18v-5.01h1.71v-0.99h-4.64zm5.77 0v6h3.65v-0.99h-2.47v-5.01h-1.18z" style="fill:#fff"/>
 <path d="m19 0 8.99 9h-7.61c-0.673 0-1.38-0.713-1.38-1.39z" style="fill:#fff;opacity:.4"/>
 <path d="m9 0v3h3v-3h-3zm3 3v3h3v-3h-3zm0 3h-3v3h3v-3zm0 3v3h3v-3h-3zm0 3h-3v3h3v-3zm-3 4v6h6v-6h-6z" style="fill:#fff"/>
</svg>
