<svg version="1.1" viewBox="0 0 32 32" xmlns="http://www.w3.org/2000/svg">
 <path d="m5.34 0c-0.687 0-1.34 0.676-1.34 1.39v29.2c0 0.676 0.687 1.39 1.34 1.39h21.3c0.648 0 1.34-0.717 1.34-1.39l1e-3 -21.6-9-9z" style="fill:#c19553"/>
 <path d="m4 24v6.67c0 0.648 0.688 1.33 1.33 1.33h21.3c0.645 0 1.33-0.684 1.33-1.33v-6.67z" style="opacity:.2"/>
 <path d="m21 9 7 7v-7z" style="opacity:.2"/>
 <path d="m20.6 24.9c-0.461 0-1.01 0.0598-1.57 0.148v5.88c0.76 0.161 1.45 0.176 1.69 0.176 1.02 0 2.44-0.228 2.44-1.91 0-0.801-0.513-1.21-1.08-1.41 0.324-0.173 0.791-0.584 0.791-1.29 0-1.29-1.15-1.6-2.27-1.6zm-8.85 0.0039c-1.62 0-2.82 1.12-2.82 3.1 0 1.72 0.734 3.1 2.7 3.1l0.0039 2e-3c0.416 0 1.14-0.0589 1.74-0.414l-0.314-0.932c-0.377 0.214-0.809 0.316-1.3 0.316-0.631 0-1.56-0.198-1.56-2.1 0-0.66 0.165-2.04 1.55-2.04 0.249 0 0.809 0.0382 1.3 0.344l0.322-0.939c-0.488-0.329-1.04-0.367-1.61-0.432zm3.68 0.0996c-0.622 1.91-1.29 3.92-1.81 6h1.3l0.268-1.19h1.72l0.275 1.19h1.34c-0.459-1.91-1.09-3.96-1.77-6zm5.36 0.945c0.508 4e-6 0.875 0.137 0.875 0.67 0 0.311-0.143 0.754-0.955 0.754h-0.482v-1.39c0.169-0.0295 0.344-0.0371 0.562-0.0371zm-4.73 0.189c0.228 0.791 0.51 1.84 0.65 2.69h-1.31c0.164-0.81 0.393-1.87 0.658-2.69zm4.17 2.23h0.664c0.51 0 1.05 0.156 1.05 0.818 4e-6 0.772-0.651 0.863-1.12 0.863-0.132 0-0.391-0.0052-0.594-0.0371z" style="fill:#fff"/>
 <path d="m19 0 8.99 9h-7.61c-0.673 0-1.38-0.713-1.38-1.39z" style="fill:#fff;opacity:.4"/>
 <path d="m9 0v3h3v-3h-3zm3 3v3h3v-3h-3zm0 3h-3v3h3v-3zm0 3v3h3v-3h-3zm0 3h-3v3h3v-3zm-3 4v6h6v-6h-6z" style="fill:#fff"/>
</svg>
