<?xml version="1.0" encoding="UTF-8" standalone="no"?>
<svg
   xmlns:dc="http://purl.org/dc/elements/1.1/"
   xmlns:cc="http://creativecommons.org/ns#"
   xmlns:rdf="http://www.w3.org/1999/02/22-rdf-syntax-ns#"
   xmlns:svg="http://www.w3.org/2000/svg"
   xmlns="http://www.w3.org/2000/svg"
   xmlns:sodipodi="http://sodipodi.sourceforge.net/DTD/sodipodi-0.dtd"
   xmlns:inkscape="http://www.inkscape.org/namespaces/inkscape"
   width="32"
   height="32"
   viewBox="0 0 32 32"
   id="svg2"
   version="1.1"
   inkscape:version="0.48.5 r10040"
   sodipodi:docname="application-torrent.svg">
  <metadata
     id="metadata16">
    <rdf:RDF>
      <cc:Work
         rdf:about="">
        <dc:format>image/svg+xml</dc:format>
        <dc:type
           rdf:resource="http://purl.org/dc/dcmitype/StillImage" />
      </cc:Work>
    </rdf:RDF>
  </metadata>
  <defs
     id="defs14" />
  <sodipodi:namedview
     pagecolor="#ffffff"
     bordercolor="#666666"
     borderopacity="1"
     objecttolerance="10"
     gridtolerance="10"
     guidetolerance="10"
     inkscape:pageopacity="0"
     inkscape:pageshadow="2"
     inkscape:window-width="1280"
     inkscape:window-height="970"
     id="namedview12"
     showgrid="true"
     inkscape:zoom="10.429825"
     inkscape:cx="-1.542803"
     inkscape:cy="19.070898"
     inkscape:window-x="0"
     inkscape:window-y="0"
     inkscape:window-maximized="1"
     inkscape:current-layer="svg2">
    <inkscape:grid
       type="xygrid"
       id="grid3004" />
  </sodipodi:namedview>
  <path
     style="fill:#00853d;fill-opacity:1"
     d="M 5.335888,2.978e-4 C 4.648414,3.128e-4 4,0.6767887 4,1.394032 L 4,30.606268 C 4,31.282757 4.687474,32 5.335888,32 l 21.327332,0 c 0.648414,0 1.335888,-0.717243 1.335888,-1.393732 L 28,9.0000005 l -9,-9 z"
     id="path4-1"
     inkscape:connector-curvature="0"
     sodipodi:nodetypes="ssssssccs" />
  <path
     style="fill:#000000;fill-opacity:0.19599998"
     d="M 21,9.0000005 28,16 28,9.0000005 z"
     id="path6-4"
     inkscape:connector-curvature="0"
     sodipodi:nodetypes="cccc" />
  <path
     style="fill:#ffffff;fill-opacity:0.39200003"
     d="m 19.000306,2.978e-4 8.991594,8.9997027 -7.613262,0 c -0.672951,0 -1.378332,-0.7134896 -1.378332,-1.3864402 z"
     id="path8-6"
     inkscape:connector-curvature="0"
     sodipodi:nodetypes="ccssc" />
  <path
     style="fill:#ffffff"
     d="m 19.341582,24.13913 -2.579695,0 c -0.783935,0 -1.554199,0.01367 -2.30167,-0.273395 -0.610742,-0.23694 -1.185021,-0.596909 -1.640796,-1.075348 -1.508621,-1.576571 -1.709163,-4.08268 -0.341833,-5.823287 0.83407,-1.061679 2.11936,-1.740608 3.482133,-1.740608 0.369179,0 1.148557,-0.05923 1.30352,0.378194 0.08204,0.223273 -0.08659,0.47844 -0.319043,0.51945 -0.218773,0.03645 -0.46945,-0.07291 -0.692781,-0.07746 -0.65176,-0.009 -1.239711,0.08202 -1.836779,0.350855 -2.215074,1.002443 -2.766564,4.251273 -0.957132,5.896192 0.469451,0.428318 0.998152,0.751833 1.61345,0.911313 0.542375,0.14581 1.10298,0.113918 1.659027,0.113918 l 3.354515,0 c 0.141291,0 0.341832,0.03645 0.474007,-0.009 0.104828,-0.03645 0.191427,-0.14581 0.26435,-0.223272 0.182311,-0.182262 0.455778,-0.382751 0.560606,-0.624249 l -4.211376,0 c -0.505911,0 -1.03917,0.05012 -1.545081,-0.02278 -0.59251,-0.08657 -1.121211,-0.364525 -1.558756,-0.770059 -0.227888,-0.209602 -0.410198,-0.478439 -0.546932,-0.751833 -0.834071,-1.672258 0.237004,-3.668033 2.06011,-3.986993 0.314485,-0.05923 0.656318,-0.04101 0.966246,0.02278 0.309928,0.05923 0.697338,0.17315 0.938901,0.382751 0.173194,0.150367 0.191425,0.396422 0.04102,0.569572 -0.218773,0.25061 -0.442104,0.09569 -0.683667,-0.009 -0.186867,-0.08202 -0.382851,-0.141253 -0.58795,-0.168592 -0.879649,-0.104797 -1.727394,0.387307 -2.064668,1.198376 -0.42843,1.020671 0.109386,2.246386 1.157672,2.610911 0.505908,0.173118 1.084744,0.104775 1.613445,0.104775 l 4.384569,0 c 0.173196,0 0.464894,0.05469 0.624415,-0.01367 0.06381,-0.02278 0.09572,-0.113918 0.127616,-0.168593 l 0.259794,-0.510333 c 0.309928,-0.710823 0.519584,-1.435317 0.601625,-2.205376 0.34639,-3.212377 -1.61345,-6.274388 -4.653479,-7.35885 -2.374596,-0.847521 -5.136601,-0.264281 -7.000728,1.421648 -0.865975,0.788285 -1.4903884,1.767946 -1.9005878,2.861522 -0.5423744,1.453542 -0.5423744,3.235159 0.00911,4.688703 0.1230599,0.332629 0.2552349,0.660701 0.4284294,0.970547 0.045579,0.08202 0.1048288,0.268838 0.2005414,0.300735 0.200542,0.07746 0.0319,-0.364526 0.01368,-0.432874 -0.1367335,-0.551457 -0.1823106,-1.098244 -0.1823106,-1.663259 0,-2.405865 1.6271216,-4.615798 3.8148486,-5.536225 0.656318,-0.273393 1.408349,-0.4511 2.119362,-0.4511 0.100272,0 0.214214,-0.01367 0.314485,0.01823 0.22333,0.07746 0.360063,0.337186 0.246119,0.560458 -0.150406,0.296175 -0.455776,0.22327 -0.724685,0.246054 -0.583394,0.05923 -1.148556,0.173149 -1.69093,0.400978 -1.563314,0.656145 -2.784795,2.077792 -3.135742,3.745494 -0.505913,2.364856 0.624413,4.839069 2.803026,5.932645 0.920668,0.460214 1.927933,0.606024 2.944315,0.533119 0.715569,-0.05012 1.422023,-0.218715 2.087458,-0.487553 0.205099,-0.08657 0.542373,-0.182262 0.688222,-0.355411 z"
     id="path10"
     inkscape:connector-curvature="0" />
</svg>
