<svg version="1.1" viewBox="0 0 32 32" xmlns="http://www.w3.org/2000/svg">
 <path d="m5.34 0c-0.687 0-1.34 0.676-1.34 1.39v29.2c0 0.676 0.687 1.39 1.34 1.39h21.3c0.648 0 1.34-0.717 1.34-1.39l1e-3 -21.6-9-9z" style="fill:#c19553"/>
 <path d="m21 9 7 7v-7h-7zm-17 15v6.67c0 0.648 0.688 1.33 1.33 1.33h21.3c0.645 0 1.33-0.684 1.33-1.33v-6.67h-24z" style="opacity:.2"/>
 <path d="m22.2 25c-0.505 0-0.989 0.0646-1.08 0.0775-0.125 0.018-0.234 0.0393-0.336 0.0658v5.93h1.03v-2.03h0.365c1.95 0 2.1-1.33 2.1-2.04 0-0.504-0.0236-2-2.07-2zm-12.9 0.0141c-0.0564 0-0.685 0.0036-1.37 0.143v5.82c0.722 0.174 1.42 0.176 1.47 0.176 1.69 0 2.08-0.921 2.08-1.89 0-0.75-0.384-1.17-0.92-1.39 0.184-0.117 0.672-0.499 0.672-1.28 0-1.49-1.34-1.58-1.93-1.58zm3.06 0.047v0.987h2.09c-0.742 1.38-1.52 2.84-2.2 4.34v0.691h3.58v-0.994h-2.33c0.691-1.4 1.43-2.8 2.26-4.19v-0.834zm4.27 7e-3v0.987h1.17v4.03h-1.17v0.992h3.29v-0.992h-1.08v-4.03h1.08v-0.987zm5.65 0.968c0.439 0 0.9 0.185 0.9 0.961 0 0.605-0.202 1.01-0.99 1.01h-0.418v-1.94c0.063-0.0132 0.145-0.0235 0.25-0.0235 0.113-0.0049 0.199-0.0095 0.258-0.0095zm-12.8 0.0095c0.703 0 0.744 0.42 0.744 0.67 0 0.653-0.518 0.747-0.813 0.747h-0.408v-1.37c0.195-0.0379 0.381-0.0423 0.477-0.0423zm-0.479 2.4h0.564c0.371 0 0.898 0.122 0.898 0.815 0 0.824-0.683 0.853-0.959 0.853-0.193 0-0.4-0.0185-0.504-0.0376v-1.63z" style="fill:#fff"/>
 <path d="m19 0 8.99 9h-7.61c-0.673 0-1.38-0.713-1.38-1.39z" style="fill:#fff;opacity:.4"/>
 <path d="m9 0v3h3v-3h-3zm3 3v3h3v-3h-3zm0 3h-3v3h3v-3zm0 3v3h3v-3h-3zm0 3h-3v3h3v-3zm-3 4v6h6v-6h-6z" style="fill:#fff"/>
</svg>
