<?xml version="1.0" encoding="UTF-8" standalone="no"?>
<svg
   xmlns:dc="http://purl.org/dc/elements/1.1/"
   xmlns:cc="http://creativecommons.org/ns#"
   xmlns:rdf="http://www.w3.org/1999/02/22-rdf-syntax-ns#"
   xmlns:svg="http://www.w3.org/2000/svg"
   xmlns="http://www.w3.org/2000/svg"
   xmlns:sodipodi="http://sodipodi.sourceforge.net/DTD/sodipodi-0.dtd"
   xmlns:inkscape="http://www.inkscape.org/namespaces/inkscape"
   width="32"
   height="32"
   viewBox="0 0 32 32"
   id="svg3003"
   version="1.1"
   inkscape:version="0.91 r13725"
   sodipodi:docname="application-vnd.openxmlformats-officedocument.spreadsheetml.template.svg">
  <metadata
     id="metadata3023">
    <rdf:RDF>
      <cc:Work
         rdf:about="">
        <dc:format>image/svg+xml</dc:format>
        <dc:type
           rdf:resource="http://purl.org/dc/dcmitype/StillImage" />
      </cc:Work>
    </rdf:RDF>
  </metadata>
  <defs
     id="defs3021" />
  <sodipodi:namedview
     pagecolor="#ffffff"
     bordercolor="#666666"
     borderopacity="1"
     objecttolerance="10"
     gridtolerance="10"
     guidetolerance="10"
     inkscape:pageopacity="0"
     inkscape:pageshadow="2"
     inkscape:window-width="1366"
     inkscape:window-height="704"
     id="namedview3019"
     showgrid="false"
     inkscape:zoom="1"
     inkscape:cx="16"
     inkscape:cy="3.2385898"
     inkscape:window-x="0"
     inkscape:window-y="27"
     inkscape:window-maximized="1"
     inkscape:current-layer="svg3003">
    <inkscape:grid
       type="xygrid"
       id="grid3061" />
  </sodipodi:namedview>
  <path
     inkscape:connector-curvature="0"
     style="fill:#207145;fill-opacity:1"
     d="M 5.3437501,-3e-7 C 4.6562761,1.47e-5 4,0.6890067 4,1.4062497 L 4,30.59375 C 4,31.270239 4.6953361,32 5.3437501,32 L 26.65625,32 C 27.304664,32 28,31.270239 28,30.59375 L 28,9 28,1.3749997 C 28,0.7020487 27.297951,-3e-7 26.625,-3e-7 l -7.625,0 -13.6562499,0 z"
     id="path4-1" />
  <path
     style="fill:#ffffff"
     d="m 23,9 0,13 -13.9999999,0 0,-13 z m -1,1 -7,0 0,3 7,0 z m -8,0 -4,0 0,3 4,0 z m 8,4 -7,0 0,3 7,0 z m -8,0 -4,0 0,3 4,0 z m 8,4 -7,0 0,3 7,0 z m -8,0 -4,0 0,3 4,0 z"
     id="path10"
     inkscape:connector-curvature="0"
     sodipodi:nodetypes="ccccccccccccccccccccccccccccccccccc" />
  <path
     style="fill:#000000;fill-opacity:0.19599998"
     d="m 4,24 0,6.667969 C 4,31.316407 4.6875001,32 5.3320311,32 L 26.667969,32 C 27.3125,32 28,31.316407 28,30.667969 L 28,24 z"
     id="path3007"
     inkscape:connector-curvature="0" />
  <g
     id="g3367"
     transform="matrix(0.8271577,0,0,0.89324969,0.5555807,3.3092596)">
    <path
       d="M 12.545016,31 C 12.207505,30.247256 11.811658,29.539499 11.438412,28.855302 11.014029,29.588667 10.65721,30.285529 10.290822,31 l -1.4117179,0 c 0.5215465,-1.025839 1.1979269,-1.992049 1.8261249,-2.956649 l -1.7168306,-2.64089 1.4117186,0 1.038295,1.787932 1.092941,-1.787932 1.316087,0 -1.675845,2.612185 c 0.71669,0.967757 1.271734,1.951127 1.785138,2.985354 l -1.411717,0"
       id="path3013"
       inkscape:connector-curvature="0"
       style="fill:#ffffff"
       sodipodi:nodetypes="ccccccccccccc" />
    <path
       d="m 18.679244,31 -3.71939,0 0,-5.597539 1.18512,0 0,4.674868 2.53427,0 0,0.922671"
       id="path3015"
       inkscape:connector-curvature="0"
       style="fill:#ffffff"
       sodipodi:nodetypes="ccccccc" />
    <path
       d="m 22.856579,25.402461 0,1.034425 -1.558289,0 0,4.563114 -1.18512,0 0,-4.563114 -1.562391,0 0,-1.034425 4.3058,0"
       id="path3017"
       inkscape:connector-curvature="0"
       style="fill:#ffffff"
       sodipodi:nodetypes="ccccccccc" />
    <path
       d="M 27.173425,31 C 26.833733,30.242914 26.438973,29.537497 26.066819,28.855302 25.643957,29.585911 25.286412,30.28398 24.91923,31 l -1.411718,0 c 0.527081,-1.034939 1.199838,-1.994984 1.826126,-2.956649 l -1.716831,-2.64089 1.411718,0 1.038294,1.787932 1.092944,-1.787932 1.316084,0 -1.675844,2.612185 C 27.508481,28.970741 28.06691,29.956048 28.585141,31 l -1.411716,0"
       id="path3013-7"
       inkscape:connector-curvature="0"
       style="fill:#ffffff"
       sodipodi:nodetypes="ccccccccccccc" />
  </g>
</svg>
