<?xml version="1.0" encoding="UTF-8" standalone="no"?>
<svg
   xmlns:dc="http://purl.org/dc/elements/1.1/"
   xmlns:cc="http://creativecommons.org/ns#"
   xmlns:rdf="http://www.w3.org/1999/02/22-rdf-syntax-ns#"
   xmlns:svg="http://www.w3.org/2000/svg"
   xmlns="http://www.w3.org/2000/svg"
   xmlns:sodipodi="http://sodipodi.sourceforge.net/DTD/sodipodi-0.dtd"
   xmlns:inkscape="http://www.inkscape.org/namespaces/inkscape"
   width="32"
   height="32"
   viewBox="0 0 32 32"
   id="svg2"
   version="1.1"
   inkscape:version="0.48.5 r10040"
   sodipodi:docname="audio-x-smart-playlist.svg">
  <metadata
     id="metadata26">
    <rdf:RDF>
      <cc:Work
         rdf:about="">
        <dc:format>image/svg+xml</dc:format>
        <dc:type
           rdf:resource="http://purl.org/dc/dcmitype/StillImage" />
      </cc:Work>
    </rdf:RDF>
  </metadata>
  <defs
     id="defs24" />
  <sodipodi:namedview
     pagecolor="#ffffff"
     bordercolor="#666666"
     borderopacity="1"
     objecttolerance="10"
     gridtolerance="10"
     guidetolerance="10"
     inkscape:pageopacity="0"
     inkscape:pageshadow="2"
     inkscape:window-width="1280"
     inkscape:window-height="970"
     id="namedview22"
     showgrid="true"
     inkscape:zoom="20.85965"
     inkscape:cx="19.477145"
     inkscape:cy="18.063331"
     inkscape:window-x="0"
     inkscape:window-y="0"
     inkscape:window-maximized="1"
     inkscape:current-layer="svg2">
    <inkscape:grid
       type="xygrid"
       id="grid3014" />
  </sodipodi:namedview>
  <path
     style="fill:#9b4a85;fill-opacity:1"
     d="M 5.3358878,2.98e-4 C 4.648414,3.13e-4 4,0.676789 4,1.3940318 L 4,30.606268 C 4,31.282757 4.687474,32 5.3358878,32 L 26.66322,32 c 0.648414,0 1.335888,-0.717243 1.335888,-1.393732 L 28,9.0000003 19,0 z"
     id="path4-1"
     inkscape:connector-curvature="0"
     sodipodi:nodetypes="ssssssccs" />
  <path
     style="fill:#000000;fill-opacity:0.19599998"
     d="M 21,9.0000003 28,16 28,9.0000003 z"
     id="path6-4"
     inkscape:connector-curvature="0"
     sodipodi:nodetypes="cccc" />
  <path
     style="fill:#ffffff;fill-opacity:0.39200003"
     d="m 19.000306,2.98e-4 8.991594,8.9997023 -7.613262,0 c -0.672951,0 -1.378332,-0.7134896 -1.378332,-1.3864402 z"
     id="path8-6"
     inkscape:connector-curvature="0"
     sodipodi:nodetypes="ccssc" />
  <path
     style="fill:#ffffff"
     inkscape:connector-curvature="0"
     id="path12"
     d="m 13.46875,13.453125 c -0.777344,0.195313 -1.429688,0.910156 -1.429688,0.910156 l 0.01953,0.01953 1.246094,4.625 c -0.890624,-0.484373 -2.160155,-0.36328 -3.210936,0.398439 -1.359375,0.980469 -1.832031,2.652344 -1.046875,3.730469 0.789063,1.082031 2.523437,1.15625 3.882813,0.175781 C 14,22.535156 14.59375,21.316406 14.378906,20.316406 c -0.0039,-0.03125 -0.01563,-0.0625 -0.02344,-0.09375 l -1.195313,-4.621094 c 0.02734,-0.03906 0.378906,-0.199218 1.503906,-0.277343 1.195313,-0.07813 2.003907,-1.992188 2.003907,-1.992188 0,0 -1.34375,0.515625 -2.398438,0.144531 -0.265625,-0.09375 -0.542969,-0.08984 -0.800781,-0.02344 z" />
  <path
     style="fill:#ffffff"
     inkscape:connector-curvature="0"
     id="path14"
     d="m 16,19 0,1 7,0 0,-1 z" />
  <path
     style="fill:#ffffff"
     inkscape:connector-curvature="0"
     id="path16"
     d="m 16,21 0,1 7,0 0,-1 z" />
  <path
     style="fill:#ffffff"
     inkscape:connector-curvature="0"
     id="path18"
     d="m 15,23 0,1 8,0 0,-1 z" />
  <path
     style="fill:#ffffff"
     inkscape:connector-curvature="0"
     id="path20"
     d="m 19.722656,12.886719 c -0.125,0 -0.222656,0.101563 -0.222656,0.222657 l 0,0.5 c -0.222656,0.05078 -0.429687,0.140624 -0.617187,0.257812 l -0.355469,-0.355469 c -0.08594,-0.08594 -0.226562,-0.08594 -0.3125,0 l -0.3125,0.3125 c -0.08594,0.08984 -0.08594,0.226563 0,0.3125 l 0.355469,0.355469 C 18.136719,14.679688 18.050782,14.886719 18,15.109376 l -0.5,0 c -0.125,0 -0.222656,0.101562 -0.222656,0.222656 l 0,0.445312 C 17.277344,15.898438 17.375004,16 17.5,16 l 0.5,0 c 0.05078,0.222657 0.136719,0.429688 0.257813,0.617188 l -0.355469,0.355469 c -0.08594,0.08594 -0.08594,0.222656 0,0.3125 l 0.3125,0.3125 c 0.08594,0.08594 0.226562,0.08594 0.3125,0 l 0.355469,-0.355469 C 19.070313,17.359376 19.277344,17.449219 19.5,17.5 l 0,0.5 c 0,0.121094 0.09766,0.222657 0.222656,0.222657 l 0.445313,0 c 0.121094,0 0.21875,-0.101563 0.21875,-0.222657 l 0,-0.5 c 0.226563,-0.05078 0.433594,-0.140624 0.621094,-0.257812 l 0.351562,0.355469 c 0.08984,0.08594 0.226563,0.08594 0.3125,0 l 0.3125,-0.3125 c 0.08984,-0.08984 0.08984,-0.226563 0,-0.3125 L 21.632813,16.617188 C 21.75,16.429688 21.835938,16.222657 21.886719,16 l 0.5,0 c 0.125,0 0.222656,-0.101562 0.222656,-0.222656 l 0,-0.445312 c 0,-0.121094 -0.09766,-0.222656 -0.222656,-0.222656 l -0.5,0 C 21.835938,14.886719 21.75,14.679688 21.632813,14.492188 l 0.351562,-0.355469 c 0.08984,-0.08594 0.08984,-0.222656 0,-0.3125 l -0.3125,-0.3125 c -0.08594,-0.08594 -0.222656,-0.08594 -0.3125,0 l -0.351562,0.355469 C 20.820313,13.75 20.613282,13.660157 20.386719,13.609376 l 0,-0.5 c 0,-0.121094 -0.09766,-0.222657 -0.21875,-0.222657 z m 0.222657,1.777344 c 0.488281,0 0.886719,0.398437 0.886719,0.890625 0,0.492188 -0.398438,0.890625 -0.886719,0.890625 -0.492188,0 -0.890625,-0.398437 -0.890625,-0.890625 0,-0.492188 0.398437,-0.890625 0.890625,-0.890625 z" />
</svg>
