<svg width="32" xmlns="http://www.w3.org/2000/svg" height="32" viewBox="0 0 32 32" xmlns:xlink="http://www.w3.org/1999/xlink">
<defs>
<linearGradient gradientTransform="matrix(.75 0 0 .77778 -2.5 -1.22222)" id="linear0" y1="13.571" x1="25.556" y2="5.857" gradientUnits="userSpaceOnUse" x2="33.556">
<stop offset="0" style="stop-color:#000"/>
<stop offset="1" style="stop-color:#000;stop-opacity:0"/>
</linearGradient>
<radialGradient cx="24" cy="24" gradientTransform="matrix(1.02222 .35555 -.40726 1.17087 1.24087 -20.63415)" id="radial0" r="15" gradientUnits="userSpaceOnUse">
<stop offset="0" style="stop-color:#e4e5e2"/>
<stop offset=".5" style="stop-color:#d6d9d2"/>
<stop offset="1" style="stop-color:#b7beb1"/>
</radialGradient>
</defs>
<path style="fill:url(#radial0)" d="M 6.902344 2.667969 C 6.410156 2.71875 5.996094 3.175781 6 3.667969 L 6 28.332031 C 6 28.855469 6.480469 29.332031 7.007812 29.332031 L 24.992188 29.332031 C 25.519531 29.332031 26 28.855469 26 28.332031 L 26 6 L 21.332031 2.667969 L 7.007812 2.667969 C 6.972656 2.667969 6.9375 2.667969 6.902344 2.667969 Z "/>
<path style="fill:url(#linear0)" d="M 21.332031 2.667969 L 21.332031 6 L 26 6 L 26 5 L 22.25 2.667969 Z "/>
<path style="fill:#545653" d="M 16.023438 9.332031 C 15.285156 9.332031 14.6875 9.929688 14.6875 10.667969 C 14.6875 11.160156 14.957031 11.582031 15.355469 11.8125 L 15.355469 12 L 11.355469 12 C 10.984375 12 10.6875 12.296875 10.6875 12.667969 L 10.6875 16.667969 L 10.875 16.667969 C 11.105469 16.269531 11.527344 16 12.023438 16 C 12.757812 16 13.355469 16.597656 13.355469 17.332031 C 13.355469 18.070312 12.757812 18.667969 12.023438 18.667969 C 11.527344 18.667969 11.105469 18.398438 10.875 18 L 10.6875 18 L 10.6875 22 C 10.6875 22.371094 10.984375 22.667969 11.355469 22.667969 L 15.355469 22.667969 L 15.355469 22.480469 C 14.957031 22.25 14.6875 21.828125 14.6875 21.332031 C 14.6875 20.597656 15.285156 20 16.023438 20 C 16.757812 20 17.355469 20.597656 17.355469 21.332031 C 17.355469 21.828125 17.085938 22.25 16.6875 22.480469 L 16.6875 22.667969 L 20.6875 22.667969 C 21.058594 22.667969 21.355469 22.371094 21.355469 22 L 21.355469 18 L 21.542969 18 C 21.773438 18.398438 22.195312 18.667969 22.6875 18.667969 C 23.425781 18.667969 24.023438 18.070312 24.023438 17.332031 C 24.023438 16.597656 23.425781 16 22.6875 16 C 22.195312 16 21.773438 16.269531 21.542969 16.667969 L 21.355469 16.667969 L 21.355469 12.667969 C 21.355469 12.296875 21.058594 12 20.6875 12 L 16.6875 12 L 16.6875 11.8125 C 17.085938 11.582031 17.355469 11.160156 17.355469 10.667969 C 17.355469 9.929688 16.757812 9.332031 16.023438 9.332031 Z "/>
</svg>
