<svg width="32" xmlns="http://www.w3.org/2000/svg" height="32" viewBox="0 0 32 32" xmlns:xlink="http://www.w3.org/1999/xlink">
<defs>
<linearGradient gradientTransform="matrix(.75 0 0 .77778 -2.5 -1.22222)" id="linear0" y1="13.571" x1="25.556" y2="5.857" gradientUnits="userSpaceOnUse" x2="33.556">
<stop offset="0" style="stop-color:#000"/>
<stop offset="1" style="stop-color:#000;stop-opacity:0"/>
</linearGradient>
<radialGradient cx="24" cy="24" gradientTransform="matrix(1.02222 .35555 -.40726 1.17087 1.24087 -20.63415)" id="radial0" r="15" gradientUnits="userSpaceOnUse">
<stop offset="0" style="stop-color:#e4e5e2"/>
<stop offset=".5" style="stop-color:#d6d9d2"/>
<stop offset="1" style="stop-color:#b7beb1"/>
</radialGradient>
</defs>
<path style="fill:url(#radial0)" d="M 6.902344 2.667969 C 6.410156 2.71875 5.996094 3.175781 6 3.667969 L 6 28.332031 C 6 28.855469 6.480469 29.332031 7.007812 29.332031 L 24.992188 29.332031 C 25.519531 29.332031 26 28.855469 26 28.332031 L 26 6 L 21.332031 2.667969 L 7.007812 2.667969 C 6.972656 2.667969 6.9375 2.667969 6.902344 2.667969 Z "/>
<path style="fill:url(#linear0)" d="M 21.332031 2.667969 L 21.332031 6 L 26 6 L 26 5 L 22.25 2.667969 Z "/>
<g style="fill:#545653">
<path d="M 21.332031 11.332031 L 21.332031 10.667969 L 10.667969 10.667969 L 10.667969 11.332031 L 10 11.332031 L 10 14.667969 L 10.667969 14.667969 L 10.667969 15.332031 L 21.332031 15.332031 L 21.332031 14.667969 L 22 14.667969 L 22 11.332031 Z M 10.667969 11.332031 L 17.332031 11.332031 L 17.332031 14.667969 L 10.667969 14.667969 Z M 18.667969 12 L 20.667969 12 L 20.667969 13.332031 L 20 13.332031 L 20 14 L 19.332031 14 L 19.332031 13.332031 L 18.667969 13.332031 Z "/>
<path d="M 10.667969 17.332031 L 10.667969 18 L 10 18 L 10 22 L 10.667969 22 L 10.667969 22.667969 L 14.667969 22.667969 L 14.667969 22 L 15.332031 22 L 15.332031 18 L 14.667969 18 L 14.667969 17.332031 Z M 13.332031 18.667969 L 14 18.667969 L 14 20 L 13.332031 20 L 13.332031 20.667969 L 12.667969 20.667969 L 12.667969 21.332031 L 12 21.332031 L 12 20.667969 L 11.332031 20.667969 L 11.332031 20 L 12 20 L 12 20.667969 L 12.667969 20.667969 L 12.667969 20 L 13.332031 20 Z "/>
<path d="M 17.988281 17.332031 L 17.988281 18 L 20.65625 18 L 20.65625 17.332031 Z M 20.65625 18 L 20.65625 18.667969 L 21.324219 18.667969 L 21.324219 18 Z M 21.324219 18.667969 L 21.324219 21.332031 L 21.988281 21.332031 L 21.988281 18.667969 Z M 21.324219 21.332031 L 20.65625 21.332031 L 20.65625 22 L 21.324219 22 Z M 20.65625 22 L 17.988281 22 L 17.988281 22.667969 L 20.65625 22.667969 Z M 17.988281 22 L 17.988281 21.332031 L 17.324219 21.332031 L 17.324219 22 Z M 17.324219 21.332031 L 17.324219 18.667969 L 16.65625 18.667969 L 16.65625 21.332031 Z M 17.324219 18.667969 L 17.988281 18.667969 L 17.988281 18 L 17.324219 18 Z "/>
<path d="M 18.65625 20.667969 L 17.988281 20.667969 L 17.988281 19.332031 L 18.65625 19.332031 L 18.65625 18.667969 L 19.988281 18.667969 L 19.988281 19.332031 L 20.65625 19.332031 L 20.65625 20.667969 L 19.988281 20.667969 L 19.988281 21.332031 L 18.65625 21.332031 Z "/>
</g>
</svg>
