<svg width="32" xmlns="http://www.w3.org/2000/svg" height="32" viewBox="0 0 32 32" xmlns:xlink="http://www.w3.org/1999/xlink">
<defs>
<linearGradient gradientTransform="matrix(.75 0 0 .77778 -2.5 -1.22222)" id="linear0" y1="13.571" x1="25.556" y2="5.857" gradientUnits="userSpaceOnUse" x2="33.556">
<stop offset="0" style="stop-color:#000"/>
<stop offset="1" style="stop-color:#000;stop-opacity:0"/>
</linearGradient>
<radialGradient cx="24" cy="24" gradientTransform="matrix(1.02222 .35555 -.40726 1.17087 1.24087 -20.63415)" id="radial0" r="15" gradientUnits="userSpaceOnUse">
<stop offset="0" style="stop-color:#e4e5e2"/>
<stop offset=".5" style="stop-color:#d6d9d2"/>
<stop offset="1" style="stop-color:#b7beb1"/>
</radialGradient>
</defs>
<path style="fill:url(#radial0)" d="M 6.902344 2.667969 C 6.410156 2.71875 5.996094 3.175781 6 3.667969 L 6 28.332031 C 6 28.855469 6.480469 29.332031 7.007812 29.332031 L 24.992188 29.332031 C 25.519531 29.332031 26 28.855469 26 28.332031 L 26 6 L 21.332031 2.667969 L 7.007812 2.667969 C 6.972656 2.667969 6.9375 2.667969 6.902344 2.667969 Z "/>
<path style="fill:url(#linear0)" d="M 21.332031 2.667969 L 21.332031 6 L 26 6 L 26 5 L 22.25 2.667969 Z "/>
<path style="fill:#754f7a" d="M 11.988281 12.082031 L 11.589844 14.0625 L 19.644531 14.0625 L 19.390625 15.339844 L 11.335938 15.339844 L 10.945312 17.316406 L 18.996094 17.316406 L 18.546875 19.574219 L 15.300781 20.648438 L 12.488281 19.574219 L 12.683594 18.59375 L 10.703125 18.59375 L 10.234375 20.96875 L 14.882812 22.75 L 20.246094 20.96875 L 20.957031 17.398438 L 21.101562 16.679688 L 22.015625 12.082031 Z "/>
</svg>
