<?xml version="1.0" encoding="UTF-8" standalone="no"?>
<svg
   xmlns:dc="http://purl.org/dc/elements/1.1/"
   xmlns:cc="http://creativecommons.org/ns#"
   xmlns:rdf="http://www.w3.org/1999/02/22-rdf-syntax-ns#"
   xmlns:svg="http://www.w3.org/2000/svg"
   xmlns="http://www.w3.org/2000/svg"
   xmlns:sodipodi="http://sodipodi.sourceforge.net/DTD/sodipodi-0.dtd"
   xmlns:inkscape="http://www.inkscape.org/namespaces/inkscape"
   width="32"
   height="32"
   viewBox="0 0 32 32"
   id="svg2"
   version="1.1"
   inkscape:version="0.91 r13725"
   sodipodi:docname="image-x-xpixmap.svg">
  <metadata
     id="metadata26">
    <rdf:RDF>
      <cc:Work
         rdf:about="">
        <dc:format>image/svg+xml</dc:format>
        <dc:type
           rdf:resource="http://purl.org/dc/dcmitype/StillImage" />
      </cc:Work>
    </rdf:RDF>
  </metadata>
  <defs
     id="defs24" />
  <sodipodi:namedview
     pagecolor="#ffffff"
     bordercolor="#666666"
     borderopacity="1"
     objecttolerance="10"
     gridtolerance="10"
     guidetolerance="10"
     inkscape:pageopacity="0"
     inkscape:pageshadow="2"
     inkscape:window-width="1366"
     inkscape:window-height="704"
     id="namedview22"
     showgrid="false"
     inkscape:zoom="1"
     inkscape:cx="19.821381"
     inkscape:cy="3.5229041"
     inkscape:window-x="0"
     inkscape:window-y="27"
     inkscape:window-maximized="1"
     inkscape:current-layer="svg2">
    <inkscape:grid
       type="xygrid"
       id="grid3257" />
  </sodipodi:namedview>
  <path
     style="fill:#38a34e;fill-opacity:1"
     d="M 5.335888,2.965e-4 C 4.648414,3.115e-4 4,0.6767875 4,1.3940305 L 4,30.606268 C 4,31.282757 4.687474,32 5.335888,32 l 21.327331,0 c 0.648414,0 1.335888,-0.717243 1.335888,-1.393732 L 28,8.999999 19,-5.0000001e-7 z"
     id="path4-1"
     inkscape:connector-curvature="0"
     sodipodi:nodetypes="ssssssccs" />
  <path
     style="fill:#000000;fill-opacity:0.19599998"
     d="m 20.999999,8.999999 7,7.000001 0,-7.000001 z"
     id="path6-4"
     inkscape:connector-curvature="0"
     sodipodi:nodetypes="cccc" />
  <path
     style="fill:#ffffff;fill-opacity:0.39200003"
     d="m 19.000305,2.965e-4 8.991594,8.9997025 -7.613262,0 c -0.672951,0 -1.378332,-0.713489 -1.378332,-1.3864398 z"
     id="path8-6"
     inkscape:connector-curvature="0"
     sodipodi:nodetypes="ccssc" />
  <path
     style="fill:#ffffff"
     d="m 11.644779,10.999946 c -0.351641,0.03296 -0.652001,0.406447 -0.644676,0.801908 l 0,8.414521 c 0.0037,0.41377 0.333328,0.787261 0.703283,0.783598 l 8.611547,0 c 0.362631,-0.0072 0.681306,-0.373491 0.684968,-0.783598 l 0,-8.414521 c 0.0073,-0.417431 -0.315011,-0.798245 -0.684968,-0.801908 z M 12,12 l 8,0 0,5.700547 -2.351679,-2.658114 -1.490813,1.387774 L 14.19418,13.969563 12,16.799413 Z"
     id="path10"
     inkscape:connector-curvature="0"
     sodipodi:nodetypes="ccccccccccccccccc" />
  <path
     style="fill:#000000;fill-opacity:0.19599998"
     d="m 4,24 0,6.667969 C 4,31.316407 4.6875,32 5.332031,32 l 21.335938,0 C 27.3125,32 28,31.316407 28,30.667969 L 28,24 z"
     id="path3011"
     inkscape:connector-curvature="0" />
  <path
     style="fill:#ffffff"
     inkscape:connector-curvature="0"
     id="path18"
     d="m 20.127636,24.996713 c 0.309706,0.886867 0.604355,1.775534 0.90302,2.655664 0.31324,-0.901559 0.615624,-1.766644 0.933119,-2.655664 l 1.053524,0 c 0.210011,2.0314 0.321606,4.039636 0.382701,6 l -1.169626,0 0.06449,-4.663165 -0.786911,2.367944 -0.90144,0 -0.788498,-2.367944 0.05161,4.663165 -1.169625,0 c 0.07958,-2.034972 0.17051,-4.016856 0.374098,-6 l 1.053524,0"
     sodipodi:nodetypes="cccccccccccccc" />
  <path
     style="fill:#ffffff"
     inkscape:connector-curvature="0"
     id="path20"
     d="m 15.628601,24.946713 c 0.750744,0 1.334656,0.157084 1.747764,0.471252 C 17.793446,25.727646 18,26.239295 18,26.943931 c 0,0.7181 -0.210525,1.234235 -0.631579,1.557381 -0.41708,0.314169 -1.004965,0.47574 -1.771598,0.47574 l -0.446823,0 0,2.019661 -1.15,0 0,-5.90638 c 0.580951,-0.118423 1.088046,-0.12074 1.628601,-0.143447 m 0.131081,1.03227 c -0.204505,-0.0046 -0.405458,0.02024 -0.609682,0.03124 l 0,1.929897 0.506404,0 c 0.37736,0 0.659385,-0.07182 0.850051,-0.219919 0.190666,-0.157086 0.285998,-0.417395 0.285998,-0.785421 0,-0.345589 -0.09533,-0.592436 -0.285998,-0.731567 -0.182721,-0.148109 -0.432968,-0.224407 -0.746773,-0.224407"
     sodipodi:nodetypes="ccscsccccccccscscc" />
  <path
     style="fill:#ffffff"
     inkscape:connector-curvature="0"
     id="path16"
     d="M 11.999643,31 C 11.687428,30.193083 11.32145,29.434002 10.97515,28.703591 10.577849,29.486294 10.248358,30.231857 9.913024,31 L 8.6,31 c 0.484474,-1.101617 1.114681,-2.13619 1.693549,-3.171887 L 8.700358,25 10.009201,25 10.97515,26.920551 11.99128,25 l 1.221028,0 -1.555556,2.800611 c 0.657804,1.03495 1.180314,2.088504 1.651733,3.199389 l -1.308842,0"
     sodipodi:nodetypes="ccccccccccccc" />
</svg>
