<svg version="1.1" viewBox="0 0 32 32" xmlns="http://www.w3.org/2000/svg">
 <path d="m5.34 0c-0.687 0-1.34 0.676-1.34 1.39v29.2c0 0.676 0.687 1.39 1.34 1.39h21.3c0.648 0 1.34-0.717 1.34-1.39l1e-3 -21.6-9-9z" style="fill:#7575ef"/>
 <path d="m21 9 7 7v-7z" style="opacity:.2"/>
 <path d="m19 0 8.99 9h-7.61c-0.673 0-1.38-0.713-1.38-1.39z" style="fill:#fff;opacity:.4"/>
 <path d="m16 9.5a1.5 1.5 0 0 0-1.5 1.5 1.5 1.5 0 0 0 0.0332 0.314l-4.09 2.52a1.5 1.5 0 0 0-0.941-0.332 1.5 1.5 0 0 0-1.5 1.5 1.5 1.5 0 0 0 1 1.41v4.17a1.5 1.5 0 0 0-1 1.41 1.5 1.5 0 0 0 1.5 1.5 1.5 1.5 0 0 0 0.941-0.332l4.07 2.5a1.5 1.5 0 0 0 1.49 1.33 1.5 1.5 0 0 0 1.49-1.33l4.07-2.5a1.5 1.5 0 0 1 2e-3 2e-3 1.5 1.5 0 0 0 0.941 0.332 1.5 1.5 0 0 0 1.5-1.5 1.5 1.5 0 0 0-1-1.41v-4.17a1.5 1.5 0 0 0 1-1.41 1.5 1.5 0 0 0-1.5-1.5 1.5 1.5 0 0 0-0.941 0.332l-4.09-2.52a1.5 1.5 0 0 0 0.0332-0.314 1.5 1.5 0 0 0-1.5-1.5zm-0.943 2.67a1.5 1.5 0 0 0 0.443 0.248v4.67a1.5 1.5 0 0 0-0.51 0.305l-4.01-2.16a1.5 1.5 0 0 0 0.0176-0.23 1.5 1.5 0 0 0-0.0332-0.316zm1.89 0 4.09 2.52a1.5 1.5 0 0 0-0.0332 0.316 1.5 1.5 0 0 0 0.0176 0.23l-4.01 2.16a1.5 1.5 0 0 0-0.51-0.305v-4.67a1.5 1.5 0 0 0 0.443-0.248zm-6.43 3.94 4.01 2.16a1.5 1.5 0 0 0-0.0176 0.23 1.5 1.5 0 0 0 0.0176 0.23l-4.01 2.16a1.5 1.5 0 0 0-0.51-0.305v-4.17a1.5 1.5 0 0 0 0.51-0.305zm11 0a1.5 1.5 0 0 0 0.51 0.305v4.17a1.5 1.5 0 0 0-1 1.41 1.5 1.5 0 0 0 0.0332 0.316l-3.8 2.34a1.5 1.5 0 0 0-0.736-0.566v-4.17a1.5 1.5 0 0 0 1-1.41 1.5 1.5 0 0 0-0.0176-0.232zm-6.5 3.5a1.5 1.5 0 0 0 0.51 0.305v4.17a1.5 1.5 0 0 0-0.736 0.566l-3.8-2.34a1.5 1.5 0 0 0 0.0332-0.316 1.5 1.5 0 0 0-0.0176-0.23z" style="fill:#fff"/>
</svg>
