<svg version="1.1" viewBox="0 0 32 32" xmlns="http://www.w3.org/2000/svg">
 <path d="m5.34 0.02c-0.688 0-1.34 0.676-1.34 1.39v29.2c0 0.676 0.688 1.39 1.34 1.39h21.3c0.649 0 1.34-0.717 1.34-1.39l1e-3 -21.6-9.01-9z" style="fill:#29a"/>
 <path d="m21 9 7 7v-7z" style="opacity:.2"/>
 <path d="m19 0 8.99 9h-7.61c-0.673 0-1.38-0.713-1.38-1.39z" style="fill:#fff;opacity:.4"/>
 <path d="m16 8-4 2v2l-2 1-1e-6 1h2l3.11e-4 9c8.3e-5 2.4 1.78 4 4 4 1.8 0 3.22-0.477 5.5-2.75l-0.9-1.15c-0.85 0.539-1.78 0.9-2.6 0.9-1.23 0-2-0.392-2-1.5l-3.11e-4 -8.5h3.5l0.5-2h-4z" style="fill:#fff"/>
</svg>
