<?xml version="1.0" encoding="UTF-8" standalone="no"?>
<svg
   xmlns:dc="http://purl.org/dc/elements/1.1/"
   xmlns:cc="http://creativecommons.org/ns#"
   xmlns:rdf="http://www.w3.org/1999/02/22-rdf-syntax-ns#"
   xmlns:svg="http://www.w3.org/2000/svg"
   xmlns="http://www.w3.org/2000/svg"
   xmlns:sodipodi="http://sodipodi.sourceforge.net/DTD/sodipodi-0.dtd"
   xmlns:inkscape="http://www.inkscape.org/namespaces/inkscape"
   viewBox="0 0 32 32"
   id="svg2"
   version="1.1"
   inkscape:version="0.91 r13725"
   sodipodi:docname="text-x-po0.svg">
  <metadata
     id="metadata18">
    <rdf:RDF>
      <cc:Work
         rdf:about="">
        <dc:format>image/svg+xml</dc:format>
        <dc:type
           rdf:resource="http://purl.org/dc/dcmitype/StillImage" />
        <dc:title></dc:title>
      </cc:Work>
    </rdf:RDF>
  </metadata>
  <defs
     id="defs16" />
  <sodipodi:namedview
     pagecolor="#ffffff"
     bordercolor="#666666"
     borderopacity="1"
     objecttolerance="10"
     gridtolerance="10"
     guidetolerance="10"
     inkscape:pageopacity="0"
     inkscape:pageshadow="2"
     inkscape:window-width="1366"
     inkscape:window-height="704"
     id="namedview14"
     showgrid="false"
     inkscape:zoom="1"
     inkscape:cx="10.146504"
     inkscape:cy="11.700785"
     inkscape:window-x="0"
     inkscape:window-y="27"
     inkscape:window-maximized="1"
     inkscape:current-layer="svg2"
     inkscape:object-nodes="true"
     showguides="false">
    <inkscape:grid
       type="xygrid"
       id="grid4154" />
  </sodipodi:namedview>
  <path
     d="m 5.336 0 c -0.687 0 -1.336 0.676 -1.336 1.394 l 0 29.21 c 0 0.676 0.687 1.394 1.336 1.394 l 21.327 0 c 0.648 0 1.336 -0.717 1.336 -1.394 l 0.001 -21.606 l -9 -9 z"
     style="fill:#dda06a;fill-opacity:1"
     id="path4" />
  <path
     d="m 21 9 7 7 0 -7 z"
     style="fill:#000;fill-opacity:0.196"
     id="path6" />
  <path
     d="m 19 0 8.992 9 -7.613 0 c -0.673 0 -1.378 -0.713 -1.378 -1.386 z"
     style="fill:#fff;fill-opacity:0.392"
     id="path8" />
  <path
     style="fill:#000000;fill-opacity:0.19599998"
     d="m 4,24 0,6.667969 C 4,31.316407 4.6875,32 5.332031,32 l 21.335938,0 C 27.3125,32 28,31.316407 28,30.667969 L 28,24 Z"
     id="path3025"
     inkscape:connector-curvature="0" />
  <path
     style="fill:#ffffff;fill-opacity:1"
     d="M 18.074219 26 C 17.470418 26.000001 16.997685 26.207912 16.65625 26.632812 C 16.318409 27.050384 16.150391 27.673888 16.150391 28.498047 C 16.150391 29.325869 16.313568 29.948148 16.640625 30.373047 C 16.974873 30.79062 17.455028 31 18.083984 31 C 18.691379 31 19.165751 30.79062 19.5 30.373047 C 19.830653 29.948148 20 29.325869 20 28.498047 C 19.999999 27.673889 19.834868 27.050384 19.507812 26.632812 C 19.180751 26.207912 18.703177 26 18.074219 26 z M 13.466797 26.005859 C 12.966363 26.00211 12.486608 26.06358 12 26.121094 L 12 31.005859 L 13 31.005859 L 13 29.380859 L 13.4375 29.380859 C 14.129664 29.380859 14.660226 29.212763 15.033203 28.953125 C 15.413356 28.689727 15.599609 28.258878 15.599609 27.671875 C 15.599608 27.088634 15.412043 26.65431 15.039062 26.398438 C 14.666085 26.1388 14.144593 26.01088 13.466797 26.005859 z M 18.074219 26.828125 C 18.257516 26.828125 18.425697 26.871075 18.537109 26.958984 C 18.644932 27.046894 18.727653 27.164273 18.785156 27.314453 C 18.849856 27.464635 18.888279 27.640821 18.90625 27.849609 C 18.9278 28.05107 18.941406 28.267283 18.941406 28.498047 C 18.941406 28.732475 18.92782 28.948929 18.90625 29.150391 C 18.8883 29.351852 18.849858 29.528043 18.785156 29.685547 C 18.727646 29.835729 18.638445 29.953104 18.523438 30.041016 C 18.415613 30.128926 18.253922 30.171875 18.074219 30.171875 C 17.890922 30.171875 17.7211 30.128925 17.613281 30.041016 C 17.501864 29.953106 17.416576 29.835727 17.355469 29.685547 C 17.297949 29.535369 17.255938 29.359665 17.234375 29.158203 C 17.216415 28.953079 17.208984 28.732475 17.208984 28.498047 C 17.208984 28.267283 17.216425 28.05107 17.234375 27.849609 C 17.255935 27.648147 17.297976 27.472446 17.355469 27.322266 C 17.416549 27.168422 17.501865 27.046896 17.613281 26.958984 C 17.7211 26.871064 17.890922 26.828125 18.074219 26.828125 z M 13.585938 26.910156 C 13.86925 26.907856 14.091208 26.969436 14.259766 27.089844 C 14.43191 27.206492 14.517578 27.38004 14.517578 27.666016 C 14.517578 27.967044 14.431908 28.149408 14.259766 28.277344 C 14.087623 28.397749 13.826409 28.438605 13.490234 28.462891 L 13 28.462891 L 13 26.921875 C 13.186057 26.911975 13.433936 26.911356 13.585938 26.910156 z "
     id="path20" />
  <path
     style="opacity:1;fill:#ffffff;fill-opacity:1;stroke:none;stroke-width:0.5;stroke-linecap:round;stroke-linejoin:round;stroke-miterlimit:4;stroke-dasharray:none;stroke-opacity:0.1375"
     d="m 12,10 0,12 1,0 0,-5 8.999916,0 -3.499833,-3 3.499833,-3 L 13,11 13,10 Z"
     id="rect4148"
     inkscape:connector-curvature="0"
     sodipodi:nodetypes="cccccccccc" />
</svg>
