<?xml version="1.0" encoding="UTF-8" standalone="no"?>
<svg
   xmlns:dc="http://purl.org/dc/elements/1.1/"
   xmlns:cc="http://creativecommons.org/ns#"
   xmlns:rdf="http://www.w3.org/1999/02/22-rdf-syntax-ns#"
   xmlns:svg="http://www.w3.org/2000/svg"
   xmlns="http://www.w3.org/2000/svg"
   xmlns:sodipodi="http://sodipodi.sourceforge.net/DTD/sodipodi-0.dtd"
   xmlns:inkscape="http://www.inkscape.org/namespaces/inkscape"
   width="32"
   height="32"
   viewBox="0 0 32 32"
   id="svg2"
   version="1.1"
   inkscape:version="0.48.5 r10040"
   sodipodi:docname="text-x-c++.svg">
  <metadata
     id="metadata22">
    <rdf:RDF>
      <cc:Work
         rdf:about="">
        <dc:format>image/svg+xml</dc:format>
        <dc:type
           rdf:resource="http://purl.org/dc/dcmitype/StillImage" />
      </cc:Work>
    </rdf:RDF>
  </metadata>
  <defs
     id="defs20" />
  <sodipodi:namedview
     pagecolor="#ffffff"
     bordercolor="#666666"
     borderopacity="1"
     objecttolerance="10"
     gridtolerance="10"
     guidetolerance="10"
     inkscape:pageopacity="0"
     inkscape:pageshadow="2"
     inkscape:window-width="1280"
     inkscape:window-height="970"
     id="namedview18"
     showgrid="true"
     inkscape:zoom="10.429825"
     inkscape:cx="-4.2875419"
     inkscape:cy="22.863194"
     inkscape:window-x="0"
     inkscape:window-y="0"
     inkscape:window-maximized="1"
     inkscape:current-layer="svg2">
    <inkscape:grid
       type="xygrid"
       id="grid3010" />
  </sodipodi:namedview>
  <path
     style="fill:#2d2d2d;fill-opacity:1"
     d="M 5.335888,2.977e-4 C 4.648414,3.127e-4 4,0.6767886 4,1.3940319 L 4,30.606268 C 4,31.282757 4.687474,32 5.335888,32 l 21.327332,0 c 0.648414,0 1.335888,-0.717243 1.335888,-1.393732 L 28,9.0000004 l -9,-9 z"
     id="path4-1"
     inkscape:connector-curvature="0"
     sodipodi:nodetypes="ssssssccs" />
  <path
     style="fill:#000000;fill-opacity:0.19599998"
     d="M 21,9.0000004 28,16 28,9.0000004 z"
     id="path6-4"
     inkscape:connector-curvature="0"
     sodipodi:nodetypes="cccc" />
  <path
     style="fill:#ffffff;fill-opacity:0.39200003"
     d="m 19.000306,2.977e-4 8.991594,8.9997027 -7.613262,0 c -0.672951,0 -1.378332,-0.7134896 -1.378332,-1.3864402 z"
     id="path8-6"
     inkscape:connector-curvature="0"
     sodipodi:nodetypes="ccssc" />
  <path
     style="fill:#dcdcdc"
     inkscape:connector-curvature="0"
     id="path12"
     d="m 8,18.594602 c 0,-0.520522 0.09375,-1.034696 0.277344,-1.542523 0.183594,-0.511001 0.449218,-0.968046 0.796875,-1.371132 0.355469,-0.399914 0.785156,-0.726828 1.289062,-0.974393 0.507813,-0.247566 1.085938,-0.374523 1.738281,-0.374523 0.765626,0 1.425782,0.174566 1.980469,0.517349 0.5625,0.345957 0.976563,0.796653 1.242188,1.348915 l -1.28125,0.879175 c -0.09375,-0.241218 -0.21875,-0.441174 -0.371094,-0.603044 -0.15625,-0.168218 -0.324219,-0.298349 -0.507813,-0.39674 -0.175781,-0.09522 -0.363281,-0.165044 -0.554687,-0.203131 -0.195313,-0.04761 -0.378906,-0.073 -0.554687,-0.073 -0.394532,0 -0.742188,0.0857 -1.039063,0.253914 -0.296875,0.168217 -0.546875,0.387218 -0.746094,0.660175 -0.195312,0.266609 -0.34375,0.571305 -0.449219,0.914088 -0.09375,0.339609 -0.144531,0.676044 -0.144531,1.01248 0,0.377695 0.058594,0.742696 0.171875,1.095001 0.117188,0.345957 0.285156,0.650653 0.492188,0.914088 0.21875,0.266609 0.476562,0.479262 0.773437,0.637957 0.296875,0.16187 0.621094,0.241218 0.976563,0.241218 0.183594,0 0.375,-0.02221 0.566406,-0.06983 0.195312,-0.05078 0.378906,-0.126957 0.554688,-0.231697 0.1875,-0.101565 0.355468,-0.234869 0.507812,-0.396739 0.152344,-0.168217 0.277344,-0.368175 0.375,-0.59987 l 1.363281,0.780784 c -0.128906,0.320565 -0.320312,0.606217 -0.566406,0.853783 -0.242187,0.241218 -0.519531,0.447523 -0.835937,0.61574 -0.3125,0.168217 -0.640626,0.295174 -0.988282,0.384045 C 12.722656,22.955565 12.378906,23 12.042969,23 11.445312,23 10.898438,22.873043 10.402344,22.615956 9.910156,22.358869 9.484375,22.025607 9.121094,21.616172 8.769531,21.197215 8.492188,20.727475 8.289062,20.206953 8.097656,19.676908 8,19.140516 8,18.594602"
     sodipodi:nodetypes="ccccsccccccssccscccsccccccccscccc" />
  <path
     style="fill:#dcdcdc"
     inkscape:connector-curvature="0"
     id="path14"
     d="m 20,19 -2,0 0,1 0,1 -1,0 0,-2 -2,0 0,-1 2,0 0,-2 1,0 0,2 2,0"
     sodipodi:nodetypes="ccccccccccccc" />
  <path
     style="fill:#dcdcdc"
     inkscape:connector-curvature="0"
     id="path16"
     d="m 26,18 0,1 -2,0 0,2 -1,0 0,-2 -2,0 0,-1 2,0 0,-2 1,0 0,2 1,0"
     sodipodi:nodetypes="ccccccccccccc" />
</svg>
