<?xml version="1.0" encoding="UTF-8" standalone="no"?>
<svg
   xmlns:dc="http://purl.org/dc/elements/1.1/"
   xmlns:cc="http://creativecommons.org/ns#"
   xmlns:rdf="http://www.w3.org/1999/02/22-rdf-syntax-ns#"
   xmlns:svg="http://www.w3.org/2000/svg"
   xmlns="http://www.w3.org/2000/svg"
   xmlns:sodipodi="http://sodipodi.sourceforge.net/DTD/sodipodi-0.dtd"
   xmlns:inkscape="http://www.inkscape.org/namespaces/inkscape"
   width="32"
   height="32"
   viewBox="0 0 32 32"
   id="svg2"
   version="1.1"
   inkscape:version="0.91 r13725"
   sodipodi:docname="wps-office-dot.svg">
  <metadata
     id="metadata36">
    <rdf:RDF>
      <cc:Work
         rdf:about="">
        <dc:format>image/svg+xml</dc:format>
        <dc:type
           rdf:resource="http://purl.org/dc/dcmitype/StillImage" />
      </cc:Work>
    </rdf:RDF>
  </metadata>
  <defs
     id="defs34" />
  <sodipodi:namedview
     pagecolor="#ffffff"
     bordercolor="#666666"
     borderopacity="1"
     objecttolerance="10"
     gridtolerance="10"
     guidetolerance="10"
     inkscape:pageopacity="0"
     inkscape:pageshadow="2"
     inkscape:window-width="1366"
     inkscape:window-height="704"
     id="namedview32"
     showgrid="false"
     inkscape:zoom="1"
     inkscape:cx="16.005173"
     inkscape:cy="0.97747719"
     inkscape:window-x="0"
     inkscape:window-y="27"
     inkscape:window-maximized="1"
     inkscape:current-layer="svg2">
    <inkscape:grid
       type="xygrid"
       id="grid3036" />
  </sodipodi:namedview>
  <path
     inkscape:connector-curvature="0"
     style="fill:#3468ce;fill-opacity:1"
     d="M 5.3437502,9.9999997e-8 C 4.6562764,1.51e-5 4,0.6890071 4,1.4062501 L 4,30.59375 C 4,31.270239 4.6953364,32 5.3437502,32 L 26.65625,32 C 27.304664,32 28,31.270239 28,30.59375 L 28,8.999999 28,1.3750001 C 28,0.7020491 27.297951,9.9999999e-8 26.625,9.9999999e-8 l -7.625,0 -13.6562498,0 z"
     id="path4-1" />
  <rect
     style="fill:#f9f9f9;fill-opacity:1;fill-rule:evenodd;stroke:none"
     id="rect3029"
     width="6"
     height="5"
     x="10"
     y="10" />
  <rect
     style="fill:#f9f9f9;fill-opacity:1;fill-rule:evenodd;stroke:none"
     id="rect3031"
     width="5"
     height="1"
     x="17"
     y="10" />
  <rect
     style="fill:#f9f9f9;fill-opacity:1;fill-rule:evenodd;stroke:none"
     id="rect3033"
     width="5"
     height="1"
     x="17"
     y="12" />
  <rect
     style="fill:#f9f9f9;fill-opacity:1;fill-rule:evenodd;stroke:none"
     id="rect3035"
     width="5"
     height="1"
     x="17"
     y="13.999999" />
  <rect
     style="fill:#f9f9f9;fill-opacity:1;fill-rule:evenodd;stroke:none"
     id="rect3037"
     width="12"
     height="1"
     x="10"
     y="15.999999" />
  <rect
     style="fill:#f9f9f9;fill-opacity:1;fill-rule:evenodd;stroke:none"
     id="rect3039"
     width="12"
     height="1"
     x="10"
     y="17.999998" />
  <rect
     style="fill:#f9f9f9;fill-opacity:1;fill-rule:evenodd;stroke:none"
     id="rect3041"
     width="12"
     height="1"
     x="10"
     y="19.999998" />
  <path
     style="fill:#000000;fill-opacity:0.19599998"
     d="m 4,24 0,6.667969 C 4,31.316407 4.6875,32 5.3320312,32 L 26.667969,32 C 27.3125,32 28,31.316407 28,30.667969 L 28,24 z"
     id="path22"
     inkscape:connector-curvature="0" />
  <g
     style="fill:#ffffff"
     id="g24"
     transform="matrix(1.0512595,0,0,1.0512595,-0.82991688,-0.42690971)">
    <path
       d="m 10.387901,28.923439 c 0.03098,0.0085 0.156374,0.0085 0.191228,0.0085 l 0.104569,0 c 0.25949,0 0.476376,-0.04685 0.65066,-0.144816 0.178157,-0.09371 0.321457,-0.225742 0.426027,-0.396113 0.112316,-0.166113 0.189775,-0.362039 0.232378,-0.592041 0.05035,-0.234261 0.07747,-0.489817 0.07747,-0.766672 0,-0.23852 -0.01936,-0.472779 -0.05809,-0.702781 -0.03486,-0.225723 -0.100706,-0.42591 -0.193657,-0.60054 -0.09295,-0.174632 -0.220759,-0.310929 -0.383425,-0.413152 -0.158791,-0.110741 -0.367932,-0.161852 -0.623548,-0.161852 -0.05035,0 -0.10457,0 -0.166538,0.0085 -0.06197,0 -0.20672,0.0043 -0.257068,0.01703 l 0,3.743912 m 2.844214,-1.891123 c 0,0.519633 -0.06971,0.95834 -0.205268,1.324638 -0.131681,0.362039 -0.31371,0.655931 -0.549962,0.881673 -0.236251,0.23 -0.515105,0.396113 -0.844308,0.506854 -0.325329,0.09796 -0.681643,0.149075 -1.072814,0.149075 -0.201394,0 -0.402789,-0.0085 -0.6041827,-0.03407 -0.1897764,-0.01704 -0.3989164,-0.05111 -0.6235493,-0.09796 l 0,-5.439108 c 0.2633621,-0.05111 0.5073597,-0.08944 0.735865,-0.106487 0.228506,-0.01704 0.445392,-0.02981 0.642913,-0.02981 0.379552,0 0.720374,0.05537 1.030211,0.166113 0.317584,0.106486 0.584819,0.276853 0.801705,0.511114 0.216887,0.230002 0.383425,0.523893 0.503487,0.881673 0.123935,0.353519 0.185903,0.783708 0.185903,1.286303"
       id="path26"
       inkscape:connector-curvature="0"
       sodipodi:nodetypes="csscccscscscccccccsccccscccc" />
    <path
       d="m 15.003456,27.03872 c 0,0.267602 0.008,0.518478 0.02797,0.75263 0.02398,0.22997 0.07194,0.430671 0.135892,0.602103 0.06795,0.171432 0.163869,0.305233 0.28777,0.405584 0.119904,0.10035 0.348357,0.150526 0.552194,0.150526 0.199841,0 0.394156,-0.05018 0.51406,-0.150526 0.127898,-0.100351 0.223821,-0.234152 0.28777,-0.405584 0.07194,-0.179794 0.115907,-0.380495 0.135892,-0.610465 0.02398,-0.229971 0.03997,-0.476666 0.03997,-0.744268 0,-0.263419 -0.01599,-0.510115 -0.03997,-0.740085 -0.01998,-0.238333 -0.06395,-0.439034 -0.135892,-0.610467 -0.06395,-0.171432 -0.155875,-0.305233 -0.27578,-0.405583 -0.123901,-0.100351 -0.322213,-0.150526 -0.52605,-0.150526 -0.203837,0 -0.43229,0.05017 -0.552194,0.150526 -0.123901,0.10035 -0.219825,0.238332 -0.28777,0.413946 -0.06395,0.171432 -0.111911,0.372134 -0.135892,0.602104 -0.01998,0.22997 -0.02797,0.476666 -0.02797,0.740085 m -1.134457,0 c 0,-0.940786 0.187849,-1.651604 0.56355,-2.128268 0.379695,-0.485028 0.903277,-0.723361 1.574741,-0.723361 0.699442,0 1.231017,0.238333 1.594726,0.723361 0.36371,0.476664 0.547563,1.187482 0.547563,2.128268 0,0.944969 -0.18785,1.655785 -0.555557,2.140813 -0.371703,0.476666 -0.899281,0.714998 -1.574741,0.714998 -0.699442,0 -1.235013,-0.238332 -1.606716,-0.714998 -0.36371,-0.485028 -0.543566,-1.195844 -0.543566,-2.140813"
       id="path28"
       inkscape:connector-curvature="0"
       sodipodi:nodetypes="ccccscccscccsccccccscscscc" />
    <path
       d="m 22.47772,24.187091 0,0.941793 -1.541008,0 0,4.765647 -1.095702,0 0,-4.765647 -1.444109,0 0,-0.941793 4.080819,0"
       id="path30"
       inkscape:connector-curvature="0"
       sodipodi:nodetypes="ccccccccc" />
  </g>
</svg>
