<?xml version="1.0" encoding="UTF-8" standalone="no"?>
<svg
   xmlns:dc="http://purl.org/dc/elements/1.1/"
   xmlns:cc="http://creativecommons.org/ns#"
   xmlns:rdf="http://www.w3.org/1999/02/22-rdf-syntax-ns#"
   xmlns:svg="http://www.w3.org/2000/svg"
   xmlns="http://www.w3.org/2000/svg"
   xmlns:sodipodi="http://sodipodi.sourceforge.net/DTD/sodipodi-0.dtd"
   xmlns:inkscape="http://www.inkscape.org/namespaces/inkscape"
   width="32"
   height="32"
   viewBox="0 0 32 32"
   id="svg3007"
   version="1.1"
   inkscape:version="0.91 r13725"
   sodipodi:docname="wps-office-ppt.svg">
  <metadata
     id="metadata3039">
    <rdf:RDF>
      <cc:Work
         rdf:about="">
        <dc:format>image/svg+xml</dc:format>
        <dc:type
           rdf:resource="http://purl.org/dc/dcmitype/StillImage" />
      </cc:Work>
    </rdf:RDF>
  </metadata>
  <defs
     id="defs3037" />
  <sodipodi:namedview
     pagecolor="#ffffff"
     bordercolor="#666666"
     borderopacity="1"
     objecttolerance="10"
     gridtolerance="10"
     guidetolerance="10"
     inkscape:pageopacity="0"
     inkscape:pageshadow="2"
     inkscape:window-width="1366"
     inkscape:window-height="704"
     id="namedview3035"
     showgrid="false"
     inkscape:zoom="1"
     inkscape:cx="16.126303"
     inkscape:cy="4.4387547"
     inkscape:window-x="0"
     inkscape:window-y="27"
     inkscape:window-maximized="1"
     inkscape:current-layer="svg3007">
    <inkscape:grid
       type="xygrid"
       id="grid3139" />
  </sodipodi:namedview>
  <path
     style="fill:#d14626;fill-opacity:1"
     d="M 5.335888,2.9716e-4 C 4.648414,3.1216e-4 4,0.67678816 4,1.3940322 L 4,30.606268 C 4,31.282757 4.687474,32 5.335888,32 l 21.327332,0 c 0.648414,0 1.335888,-0.717243 1.335888,-1.393732 L 28,9.0000002 19,1.6e-7 z"
     id="path4-1"
     inkscape:connector-curvature="0"
     sodipodi:nodetypes="ssssssccs" />
  <path
     style="fill:#000000;fill-opacity:0.19599998"
     d="M 21,9.0000002 28,16 28,9.0000002 z"
     id="path6-4"
     inkscape:connector-curvature="0"
     sodipodi:nodetypes="cccc" />
  <path
     style="fill:#ffffff;fill-opacity:0.39200003"
     d="m 19.000306,2.9716e-4 8.991594,8.99970304 -7.613262,0 c -0.672951,0 -1.378332,-0.7134896 -1.378332,-1.3864402 z"
     id="path8-6"
     inkscape:connector-curvature="0"
     sodipodi:nodetypes="ccssc" />
  <path
     style="fill:#000000;fill-opacity:0.19599998"
     d="m 4,24 0,6.667969 C 4,31.316407 4.6875,32 5.332031,32 l 21.335938,0 C 27.3125,32 28,31.316407 28,30.667969 L 28,24 z"
     id="path20"
     inkscape:connector-curvature="0" />
  <path
     style="fill:#ffffff"
     inkscape:connector-curvature="0"
     id="path3009"
     d="m 8,12 5,0 0,3 -5,0 z" />
  <g
     style="fill:#ffffff"
     id="g3027"
     transform="matrix(1.0497949,0,0,1.0497949,-0.79671876,-0.49384768)">
    <path
       d="m 10.929688,24.284598 c 0.738281,0 1.308593,0.146549 1.714843,0.448021 0.40625,0.28891 0.609375,0.770428 0.609375,1.440365 0,0.678311 -0.203125,1.168202 -0.617187,1.469674 -0.40625,0.301472 -0.984375,0.448021 -1.738281,0.448021 l -0.470955,0 0,1.909321 -1.095452,0 0,-5.581415 c 0.5320808,-0.11112 1.065207,-0.113881 1.597657,-0.13402 m 0.128906,0.975595 c -0.20109,-0.0042 -0.429978,0.01899 -0.631111,0.02934 l 0,1.825579 0.529548,0 c 0.367188,0 0.648438,-0.07118 0.835938,-0.209356 0.1875,-0.146549 0.28125,-0.393588 0.28125,-0.741118 0,-0.330782 -0.09375,-0.561072 -0.28125,-0.69506 -0.183594,-0.138175 -0.425781,-0.209356 -0.734375,-0.209356"
       id="path3029"
       inkscape:connector-curvature="0"
       sodipodi:nodetypes="ccscsccccccccscscc" />
    <path
       d="m 15.621094,24.284598 c 0.738281,0 1.308594,0.146549 1.714844,0.448021 0.40625,0.28891 0.609374,0.770428 0.609374,1.440365 0,0.678311 -0.203124,1.168202 -0.617187,1.469674 -0.40625,0.301472 -0.984375,0.448021 -1.734375,0.448021 l -0.470111,0 0,1.909321 -1.100201,0 0,-5.581415 c 0.532615,-0.111064 1.061939,-0.113758 1.597656,-0.13402 M 15.75,25.260194 c -0.20109,-0.0042 -0.425224,0.01899 -0.626361,0.02933 l 0,1.825579 0.524799,0 c 0.367187,0 0.648437,-0.07118 0.835937,-0.209356 0.1875,-0.146549 0.28125,-0.393588 0.28125,-0.741118 0,-0.330782 -0.09375,-0.561072 -0.28125,-0.695059 C 16.300781,25.331374 16.058594,25.260194 15.75,25.260194"
       id="path3031"
       inkscape:connector-curvature="0"
       sodipodi:nodetypes="ccscsccccccccscscc" />
    <path
       d="m 22.687021,24.284598 0,0.939866 -1.638415,0 0,4.775536 -1.162379,0 0,-4.775536 -1.485758,0 0,-0.939866 4.286552,0"
       id="path3033"
       inkscape:connector-curvature="0"
       sodipodi:nodetypes="ccccccccc" />
  </g>
  <path
     style="fill:#ffffff"
     inkscape:connector-curvature="0"
     id="path3011"
     d="m 8,17 5,0 0,3 -5,0 z" />
  <path
     style="fill:#ffffff"
     inkscape:connector-curvature="0"
     id="path3015"
     d="M 20,10.992539 20,15 l 4,0 c 0,-2.214356 -1.791478,-4.007461 -4,-4.007461 z" />
  <path
     style="fill:#ffffff"
     inkscape:connector-curvature="0"
     id="path3017"
     d="M 19.001814,12 C 16.792291,12 15,13.789768 15,16 c 0,2.210233 1.792291,4 4.001814,4 C 21.211338,20 23,18.210233 23,16 l -3.998186,0 z" />
</svg>
