<?xml version="1.0" encoding="UTF-8" standalone="no"?>
<svg
   xmlns:dc="http://purl.org/dc/elements/1.1/"
   xmlns:cc="http://creativecommons.org/ns#"
   xmlns:rdf="http://www.w3.org/1999/02/22-rdf-syntax-ns#"
   xmlns:svg="http://www.w3.org/2000/svg"
   xmlns="http://www.w3.org/2000/svg"
   xmlns:sodipodi="http://sodipodi.sourceforge.net/DTD/sodipodi-0.dtd"
   xmlns:inkscape="http://www.inkscape.org/namespaces/inkscape"
   width="32"
   height="32"
   viewBox="0 0 32 32"
   id="svg2"
   version="1.1"
   inkscape:version="0.91 r13725"
   sodipodi:docname="wps-office-xls.svg">
  <metadata
     id="metadata26">
    <rdf:RDF>
      <cc:Work
         rdf:about="">
        <dc:format>image/svg+xml</dc:format>
        <dc:type
           rdf:resource="http://purl.org/dc/dcmitype/StillImage" />
      </cc:Work>
    </rdf:RDF>
  </metadata>
  <defs
     id="defs24" />
  <sodipodi:namedview
     pagecolor="#ffffff"
     bordercolor="#666666"
     borderopacity="1"
     objecttolerance="10"
     gridtolerance="10"
     guidetolerance="10"
     inkscape:pageopacity="0"
     inkscape:pageshadow="2"
     inkscape:window-width="1366"
     inkscape:window-height="704"
     id="namedview22"
     showgrid="true"
     inkscape:zoom="45.254834"
     inkscape:cx="13.98077"
     inkscape:cy="2.9322283"
     inkscape:window-x="0"
     inkscape:window-y="27"
     inkscape:window-maximized="1"
     inkscape:current-layer="svg2">
    <inkscape:grid
       type="xygrid"
       id="grid3044" />
  </sodipodi:namedview>
  <path
     style="fill:#207145;fill-opacity:1"
     d="M 5.335888,2.969e-4 C 4.648414,3.119e-4 4,0.67678777 4,1.3940311 L 4,30.606268 C 4,31.282757 4.687474,32 5.335888,32 l 21.327332,0 c 0.648414,0 1.335888,-0.717243 1.335888,-1.393732 L 28,8.9999996 l -9,-9 z"
     id="path4-1"
     inkscape:connector-curvature="0"
     sodipodi:nodetypes="ssssssccs" />
  <path
     style="fill:#000000;fill-opacity:0.19599998"
     d="M 21,8.9999996 28,16 28,8.9999996 z"
     id="path6-4"
     inkscape:connector-curvature="0"
     sodipodi:nodetypes="cccc" />
  <path
     style="fill:#ffffff"
     d="m 22,11 0,10 -12,0 0,-10 z m -1,1 -6,0 0,2 6,0 z m -7,0 -3,0 0,2 3,0 z m 7,3 -6,0 0,2 6,0 z m -7,0 -3,0 0,2 3,0 z m 7,3 -6,0 0,2 6,0 z m -7,0 -3,0 0,2 3,0 z"
     id="path10-1"
     inkscape:connector-curvature="0"
     sodipodi:nodetypes="ccccccccccccccccccccccccccccccccccc" />
  <path
     style="fill:#000000;fill-opacity:0.19599998"
     d="m 4,24 0,6.667969 C 4,31.316407 4.6875,32 5.332031,32 l 21.335938,0 C 27.3125,32 28,31.316407 28,30.667969 L 28,24 z"
     id="path10"
     inkscape:connector-curvature="0" />
  <path
     style="fill:#ffffff;fill-opacity:0.39200003"
     d="m 19.000306,2.969e-4 8.991594,8.9997027 -7.613262,0 c -0.672951,0 -1.378332,-0.7134896 -1.378332,-1.3864402 z"
     id="path8-6"
     inkscape:connector-curvature="0"
     sodipodi:nodetypes="ccssc" />
  <path
     style="fill:#ffffff"
     inkscape:connector-curvature="0"
     id="path16"
     d="m 12.399643,30.992565 c -0.312215,-0.806917 -0.678193,-1.565998 -1.024493,-2.296409 -0.397301,0.782703 -0.726792,1.528266 -1.062126,2.296409 l -1.313024,0 c 0.4844742,-1.101617 1.114681,-2.13619 1.693549,-3.171887 l -1.5931905,-2.828113 1.3088425,0 0.965949,1.920551 1.01613,-1.920551 1.221028,0 -1.555556,2.800611 c 0.657804,1.03495 1.180314,2.088504 1.651733,3.199389 l -1.308842,0"
     sodipodi:nodetypes="ccccccccccccc" />
  <path
     style="fill:#ffffff"
     inkscape:connector-curvature="0"
     id="path18"
     d="M 18.504529,31 14.67,31 l 0,-6 1.225209,0 0,5.009931 2.60932,0 0,0.990069" />
  <path
     style="fill:#ffffff"
     inkscape:connector-curvature="0"
     id="path20"
     d="m 21.03047,30.041753 c 0.200717,0 0.367981,-0.01759 0.501793,-0.05275 0.137993,-0.04395 0.246714,-0.101092 0.321984,-0.167033 0.07945,-0.07473 0.133811,-0.158241 0.1589,-0.241758 0.03345,-0.09671 0.05017,-0.189011 0.05017,-0.281319 0,-0.118681 -0.03764,-0.219779 -0.108721,-0.316483 -0.07109,-0.0923 -0.163083,-0.171427 -0.275986,-0.241756 -0.112904,-0.07033 -0.238351,-0.136264 -0.372163,-0.193408 -0.137992,-0.06155 -0.275986,-0.118681 -0.413979,-0.167032 -0.18399,-0.06155 -0.376343,-0.131868 -0.572879,-0.215385 -0.196536,-0.07912 -0.376344,-0.18022 -0.543608,-0.303296 -0.15472,-0.127472 -0.288531,-0.276922 -0.393071,-0.457142 -0.104544,-0.184615 -0.158901,-0.413187 -0.158901,-0.685715 0,-0.540657 0.183991,-0.962635 0.551972,-1.265931 C 20.152325,25.14945 20.66248,25 21.314811,25 c 0.372162,0 0.698327,0.03957 0.974313,0.118682 0.284349,0.07912 0.518519,0.171428 0.710872,0.268132 l -0.355436,0.883514 c -0.163077,-0.08791 -0.347068,-0.158237 -0.551966,-0.224171 -0.196536,-0.06155 -0.426524,-0.0923 -0.689964,-0.0923 -0.643968,0 -0.965951,0.21978 -0.965951,0.659339 0,0.114286 0.03345,0.210989 0.100359,0.298902 0.06272,0.07912 0.146356,0.153846 0.246715,0.224175 0.104544,0.06153 0.217443,0.118681 0.34289,0.167033 0.133812,0.04835 0.25926,0.09671 0.384708,0.140659 0.192354,0.06593 0.388889,0.145054 0.589606,0.228571 0.213262,0.08352 0.401433,0.193407 0.57288,0.334066 0.175627,0.136264 0.321983,0.312087 0.434887,0.523076 0.108721,0.202197 0.167264,0.461538 0.167264,0.778021 0,0.540658 -0.188172,0.95824 -0.564517,1.25714 C 22.34349,30.854945 21.783156,31 21.030466,31 c -0.505973,0 -0.911589,-0.04835 -1.212664,-0.14945 -0.301075,-0.105494 -0.531064,-0.202198 -0.681601,-0.285715 l 0.355436,-0.931867 c 0.175627,0.101092 0.388889,0.193407 0.631422,0.281319 0.250896,0.08352 0.551971,0.127473 0.907407,0.127473" />
</svg>
