<?xml version="1.0" encoding="UTF-8" standalone="no"?>
<svg
   xmlns:dc="http://purl.org/dc/elements/1.1/"
   xmlns:cc="http://creativecommons.org/ns#"
   xmlns:rdf="http://www.w3.org/1999/02/22-rdf-syntax-ns#"
   xmlns:svg="http://www.w3.org/2000/svg"
   xmlns="http://www.w3.org/2000/svg"
   xmlns:sodipodi="http://sodipodi.sourceforge.net/DTD/sodipodi-0.dtd"
   xmlns:inkscape="http://www.inkscape.org/namespaces/inkscape"
   width="32"
   height="32"
   viewBox="0 0 32 32"
   id="svg2"
   version="1.1"
   inkscape:version="0.91 r13725"
   sodipodi:docname="wps-office-dps.svg">
  <metadata
     id="metadata34">
    <rdf:RDF>
      <cc:Work
         rdf:about="">
        <dc:format>image/svg+xml</dc:format>
        <dc:type
           rdf:resource="http://purl.org/dc/dcmitype/StillImage" />
      </cc:Work>
    </rdf:RDF>
  </metadata>
  <defs
     id="defs32" />
  <sodipodi:namedview
     pagecolor="#ffffff"
     bordercolor="#666666"
     borderopacity="1"
     objecttolerance="10"
     gridtolerance="10"
     guidetolerance="10"
     inkscape:pageopacity="0"
     inkscape:pageshadow="2"
     inkscape:window-width="1366"
     inkscape:window-height="704"
     id="namedview30"
     showgrid="false"
     inkscape:zoom="1"
     inkscape:cx="16"
     inkscape:cy="4.2687647"
     inkscape:window-x="0"
     inkscape:window-y="27"
     inkscape:window-maximized="1"
     inkscape:current-layer="svg2">
    <inkscape:grid
       type="xygrid"
       id="grid3091" />
  </sodipodi:namedview>
  <path
     style="fill:#d14626;fill-opacity:1"
     d="M 5.335888,2.966e-4 C 4.648414,3.116e-4 4,0.6767876 4,1.3940316 L 4,30.606268 C 4,31.282757 4.687474,32 5.335888,32 l 21.327332,0 c 0.648414,0 1.335888,-0.717243 1.335888,-1.393732 L 28,8.9999996 l -9,-9 z"
     id="path4-1"
     inkscape:connector-curvature="0"
     sodipodi:nodetypes="ssssssccs" />
  <path
     style="fill:#000000;fill-opacity:0.19599998"
     d="M 21,8.9999996 28,16 28,8.9999996 z"
     id="path6-4"
     inkscape:connector-curvature="0"
     sodipodi:nodetypes="cccc" />
  <path
     style="fill:#ffffff;fill-opacity:0.39200003"
     d="m 19.000306,2.966e-4 8.991594,8.999703 -7.613262,0 c -0.672951,0 -1.378332,-0.7134896 -1.378332,-1.3864402 z"
     id="path8-6"
     inkscape:connector-curvature="0"
     sodipodi:nodetypes="ccssc" />
  <path
     style="fill:#000000;fill-opacity:0.19599998"
     d="m 4,24 0,6.667969 C 4,31.316407 4.6875,32 5.332031,32 l 21.335938,0 C 27.3125,32 28,31.316407 28,30.667969 L 28,24 z"
     id="path20"
     inkscape:connector-curvature="0" />
  <path
     style="fill:#ffffff"
     inkscape:connector-curvature="0"
     id="path3009"
     d="m 8,12 5,0 0,3 -5,0 z" />
  <g
     style="fill:#ffffff"
     id="g22"
     transform="matrix(1.0495115,0,0,1.0495115,-0.79407292,-0.37597039)">
    <path
       d="m 10.41825,28.923121 c 0.03125,0.0085 0.14816,0.0085 0.187219,0.0085 l 0.101562,0 c 0.265625,0 0.488281,-0.04693 0.664063,-0.145057 0.183594,-0.09386 0.328125,-0.226118 0.4375,-0.396773 0.113281,-0.166389 0.191406,-0.362642 0.238281,-0.593027 0.05078,-0.234651 0.07422,-0.490633 0.07422,-0.767949 0,-0.238917 -0.01953,-0.473567 -0.05469,-0.703952 -0.03906,-0.226118 -0.105468,-0.426638 -0.199218,-0.601559 -0.09766,-0.174923 -0.226563,-0.311447 -0.390626,-0.41384 -0.164062,-0.110925 -0.375,-0.162122 -0.636718,-0.162122 -0.05078,0 -0.105469,0 -0.167969,0.0085 -0.06641,0 -0.202844,0.0043 -0.253625,0.01706 l 0,3.750148 m 2.890344,-1.894272 c 0,0.516233 -0.07031,0.959936 -0.210938,1.326844 -0.132812,0.362642 -0.320312,0.657023 -0.558594,0.883141 -0.242187,0.230384 -0.527343,0.396773 -0.863281,0.503432 -0.328125,0.102393 -0.691406,0.15359 -1.089843,0.15359 -0.210938,0 -0.414063,-0.0085 -0.617188,-0.03413 -0.195312,-0.01707 -0.40625,-0.05119 -0.636719,-0.09812 l 0,-5.448167 c 0.265625,-0.05546 0.515625,-0.08959 0.75,-0.106664 0.234375,-0.01707 0.453125,-0.02986 0.65625,-0.02986 0.382813,0 0.734375,0.05546 1.050781,0.162123 0.324219,0.110925 0.59375,0.28158 0.816407,0.516231 0.222656,0.226118 0.390625,0.524765 0.511719,0.883141 0.125,0.354109 0.191406,0.785014 0.191406,1.288446"
       id="path24"
       inkscape:connector-curvature="0"
       sodipodi:nodetypes="csscccscccscccccccscccsscccc" />
    <path
       d="m 15.6875,24.17368 c 0.746094,0 1.324219,0.151242 1.734375,0.449404 0.410156,0.293842 0.617187,0.773495 0.617187,1.443281 0,0.674107 -0.207031,1.166723 -0.625,1.469207 -0.410156,0.298163 -0.996093,0.449405 -1.753906,0.449405 l -0.51304,0 0,1.905648 -1.072897,0 0,-5.578667 c 0.537206,-0.110925 1.075587,-0.114205 1.613281,-0.13827 m 0.132812,0.980912 c -0.203459,-0.0043 -0.471668,0.01686 -0.673196,0.02588 l 0,1.827867 0.567728,0 c 0.375,0 0.65625,-0.07346 0.84375,-0.211739 0.191406,-0.14692 0.285156,-0.393229 0.285156,-0.738925 0,-0.328411 -0.09375,-0.561755 -0.285156,-0.695712 C 16.375,25.223712 16.128906,25.154573 15.820312,25.154573"
       id="path26"
       inkscape:connector-curvature="0"
       sodipodi:nodetypes="ccscsccccccccscscc" />
    <path
       d="m 20.503906,28.98275 c 0.195313,0 0.359375,-0.01676 0.484375,-0.05026 0.132813,-0.04188 0.238281,-0.09633 0.3125,-0.159152 0.07422,-0.0712 0.125,-0.150777 0.152344,-0.230354 0.03125,-0.09214 0.04687,-0.180094 0.04687,-0.268047 0,-0.113082 -0.03516,-0.2136 -0.105469,-0.301553 -0.06641,-0.08795 -0.15625,-0.16334 -0.265625,-0.230352 -0.105468,-0.0712 -0.226562,-0.129835 -0.359375,-0.184283 -0.132812,-0.05864 -0.265625,-0.113082 -0.398437,-0.159153 -0.175782,-0.05864 -0.359375,-0.125646 -0.550782,-0.205223 -0.1875,-0.07538 -0.363281,-0.171718 -0.519531,-0.288988 -0.152343,-0.12146 -0.277343,-0.263859 -0.378906,-0.435576 -0.101563,-0.175907 -0.152344,-0.393695 -0.152344,-0.653366 0,-0.515152 0.175781,-0.917223 0.53125,-1.206212 0.359375,-0.288988 0.851563,-0.431387 1.480469,-0.431387 0.359375,0 0.671875,0.0377 0.9375,0.113082 0.269531,0.07539 0.5,0.163341 0.683594,0.255482 l -0.34375,0.841835 c -0.15625,-0.08377 -0.332032,-0.150776 -0.53125,-0.2136 -0.1875,-0.05864 -0.410156,-0.08795 -0.664063,-0.08795 -0.617187,0 -0.929687,0.209413 -0.929687,0.628235 0,0.108895 0.03516,0.201036 0.09766,0.284801 0.0625,0.07539 0.140625,0.146588 0.234375,0.2136 0.101563,0.05864 0.214844,0.113082 0.332031,0.159153 0.128906,0.04607 0.25,0.09214 0.371094,0.129836 0.183594,0.06701 0.375,0.142399 0.570312,0.221976 0.203126,0.07958 0.382813,0.184282 0.550782,0.318306 0.167968,0.129835 0.308594,0.297365 0.414062,0.4984 0.109375,0.192658 0.164063,0.439764 0.164063,0.741317 0,0.515153 -0.179688,0.913035 -0.542969,1.197835 -0.351561,0.276427 -0.89453,0.414639 -1.621093,0.414639 -0.484375,0 -0.875,-0.04607 -1.164062,-0.142399 -0.292969,-0.100518 -0.511719,-0.19266 -0.65625,-0.272237 l 0.339844,-0.887906 c 0.171874,0.09633 0.375,0.184283 0.609374,0.268048 0.238282,0.07958 0.53125,0.121459 0.871094,0.121459"
       id="path28"
       inkscape:connector-curvature="0" />
  </g>
  <path
     style="fill:#ffffff"
     inkscape:connector-curvature="0"
     id="path3011"
     d="m 8,17 5,0 0,3 -5,0 z" />
  <path
     style="fill:#ffffff"
     inkscape:connector-curvature="0"
     id="path3015"
     d="M 20,10.992539 20,15 l 4,0 c 0,-2.214356 -1.791478,-4.007461 -4,-4.007461 z" />
  <path
     style="fill:#ffffff"
     inkscape:connector-curvature="0"
     id="path3017"
     d="M 19.001814,12 C 16.792291,12 15,13.789768 15,16 c 0,2.210233 1.792291,4 4.001814,4 C 21.211338,20 23,18.210233 23,16 l -3.998186,0 z" />
</svg>
