<svg xmlns="http://www.w3.org/2000/svg" viewBox="0 0 32 32">
<g style="fill:#919fa9">
<path d="m 16,6 c -4.420402,0 -8,3.5796598 -8,7.999927 0,4.420447 3.579598,8.021317 8,8.021317 4.420403,0 8,-3.60087 8,-8.021317 C 24,9.5796598 20.420403,6 16,6 z m 0,6.531897 c 0.814285,0 1.468084,0.653756 1.468084,1.46803 0,0.814274 -0.653799,1.48942 -1.468084,1.48942 -0.814285,0 -1.468086,-0.675146 -1.468086,-1.48942 0,-0.814274 0.653801,-1.46803 1.468086,-1.46803 z"/>
<path style="line-height:normal;color:#000" d="m 6.5625,2.0000001 c -1.41144,0 -2.5625,1.1511 -2.5625,2.5625 L 4,27.476857 c 0,1.4115 1.15106,2.5938 2.5625,2.5938 l 18.838935,0 c 1.41144,0 2.5625,-1.1823 2.5625,-2.5938 l 0,-22.9143569 c 0,-1.4114 -1.15106,-2.5625 -2.5625,-2.5625 z m 0,2 18.838935,0 c 0.338034,0 0.5625,0.2245 0.5625,0.5625 l 0,22.9143569 c 0,0.3381 -0.224466,0.5938 -0.5625,0.5938 l -18.838935,0 C 6.224466,28.070657 6,27.814957 6,27.476857 L 6,4.5625001 c 0,-0.338 0.224466,-0.5625 0.5625,-0.5625 z"/>
<path d="m 18,22 4,5 2,0 0,-2 z"/>
</g>
</svg>
