<svg xmlns="http://www.w3.org/2000/svg" viewBox="0 0 48 48">
<g style="color:#000;line-height:normal">
<g style="stroke:#9c7b5f">
<path style="fill:#9c7a5f" d="M 5.7816225,37.987179 C 5.0791136,37.914549 4.4850228,37.218632 4.4883018,36.472188 l 0,-28.6795646 C 4.4883753,6.999399 5.1708157,6.277716 5.9209027,6.277635 l 35.3374973,0 c 0.75009,8.1e-5 1.432527,0.721764 1.432605,1.5149884 l 0,26.0178146 c -7.8e-5,0.793226 -0.682515,1.514907 -1.432605,1.514988 l -13.798734,0 0,1.146762 c -7.5e-5,0.793225 -0.682514,1.514912 -1.432601,1.514991 l -20.1061623,0 c -0.04639,0.0023 -0.092892,0.0023 -0.1392802,0 z"/>
<path style="fill:#e0b189" d="m 3.0188482,10.01981 c -0.827686,0.0726 -1.5276343,0.768207 -1.5237714,1.514322 l 0,28.66694 c 8.85e-5,0.792876 0.8041275,1.514241 1.6878699,1.51432 l 41.6341213,0 c 0.883744,-7.9e-5 1.687781,-0.721444 1.687871,-1.51432 l 0,-26.006363 c -9e-5,-0.792875 -0.804127,-1.514241 -1.687871,-1.514321 l -16.257467,0 0,-1.146256 c -8.9e-5,-0.792875 -0.804128,-1.514242 -1.68787,-1.514322 l -23.6887843,0 c -0.054656,-0.0024 -0.1094421,-0.0024 -0.1640985,0 z"/>
</g>
<g>
<path style="fill:#9c7a5f" d="m 17,19 c 0,0 -1,0.038 -1,1 l 0,2 2,0 0,-1 1,0 0,-2 -1.90625,0 L 17,19 z m 3,0 0,2 2,0 0,-2 -2,0 z m 3,0 0,2 2,0 0,-2 -2,0 z m 3,0 0,2 2,0 0,-2 -2,0 z m 3,0 0,2 1,0 0,1 2,0 0,-2 c 0,-1 -1,-1 -1,-1 l -2,0 z m -13,4 0,2 2,0 0,-2 -2,0 z m 14,0 0,2 2,0 0,-2 -2,0 z m -14,3 0,2 2,0 0,-2 -2,0 z m 14,0 0,2 2,0 0,-2 -2,0 z m -14,3 0,2 2,0 0,-2 -2,0 z m 14,0 0,2 2,0 0,-2 -2,0 z m -14,3 0,2 c 0,1 1,1 1,1 l 2,0 0,-2 -1,0 0,-1 -2,0 z m 14,0 0,1 -1,0 0,2 2,0 c 0,0 1,0 1,-1 l 0,-2 -2,0 z m -10,1 0,2 2,0 0,-2 -2,0 z m 3,0 0,2 2,0 0,-2 -2,0 z m 3,0 0,2 2,0 0,-2 -2,0 z"/>
</g>
</g>
</svg>
