<svg width="48" xmlns="http://www.w3.org/2000/svg" viewBox="0 0 48 48" height="48">
<g style="line-height:normal">
<g style="stroke:#9c7b5f" transform="translate(0 .02821)">
<path style="fill:#9c7a5f" d="M 5.7726797,37.763615 C 5.072828,37.691952 4.4809845,37.005311 4.4842511,36.268818 l 0,-28.2972824 C 4.4843243,7.1888845 5.1641834,6.476821 5.9114331,6.4767411 l 35.2038309,0 c 0.747251,7.99e-5 1.427108,0.7121434 1.427185,1.4947945 l 0,25.6710124 c -7.7e-5,0.782652 -0.679934,1.494713 -1.427185,1.494793 l -13.74654,0 0,1.131477 c -7.4e-5,0.782651 -0.679932,1.494718 -1.427182,1.494797 l -20.0301089,0 c -0.046215,0.0023 -0.092541,0.0023 -0.1387534,0 z"/>
<path style="fill:#e0b189" d="m 3.0135456,10.496092 c -0.8278953,0.07094 -1.5280205,0.750639 -1.5241566,1.479691 l 0,28.01137 c 8.85e-5,0.774744 0.8043308,1.479612 1.6882966,1.479689 l 41.6446434,0 c 0.883968,-7.7e-5 1.688208,-0.704945 1.688298,-1.479689 l 0,-25.411636 c -9e-5,-0.774743 -0.80433,-1.479612 -1.688298,-1.479691 l -16.261576,0 0,-1.120043 c -8.9e-5,-0.774743 -0.804331,-1.479613 -1.688296,-1.479691 l -23.6947714,0 c -0.05467,-0.0023 -0.1094698,-0.0023 -0.16414,0 z"/>
</g>
<g style="color:#000" transform="translate(0 1.00002)">
<path style="fill:#9c7a5f" d="m 17.000001,18.999977 0,5 5,0 -1.71875,-1.71875 C 21.30389,21.478359 22.599254,20.999977 24,20.999977 c 3.313708,0 6,2.686293 6,6 0,3.313709 -2.686292,6 -6,6 -3.313708,0 -5.999999,-2.686291 -5.999999,-6 0,-0.700711 0.122984,-1.374865 0.34375,-2 l -2.09375,0 c -0.163705,0.637743 -0.25,1.31119 -0.25,2 0,4.418278 3.581722,8 7.999999,8 4.418278,0 8,-3.581722 8,-8 0,-4.418278 -3.581722,-7.999999 -8,-7.999999 -1.956871,0 -3.766194,0.676938 -5.156249,1.843749 l -1.84375,-1.84375 z m 6.90625,2.96875 a 1.0001,1.0001 0 0 0 -0.125,0.03125 1.0001,1.0001 0 0 0 -0.78125,1 l 0,3.6875 a 1.0001,1.0001 0 0 0 0,0.09375 1.0001,1.0001 0 0 0 0.125,0.75 1.0001,1.0001 0 0 0 0.03125,0.03125 1.0001,1.0001 0 0 0 0.03125,0.0625 1.0001,1.0001 0 0 0 0.03125,0.03125 1.0001,1.0001 0 0 0 0.03125,0.03125 1.0001,1.0001 0 0 0 0.03125,0.03125 1.0001,1.0001 0 0 0 0.03125,0.03125 1.0001,1.0001 0 0 0 0.0625,0.03125 1.0001,1.0001 0 0 0 0.03125,0.03125 1.0001,1.0001 0 0 0 0.03125,0.03125 1.0001,1.0001 0 0 0 0.0625,0.03125 1.0001,1.0001 0 0 0 0.125,0.0625 l 2.468749,1.4375 a 1.0077822,1.0077822 0 1 0 1,-1.75 L 25,26.406227 l 0,-3.40625 a 1.0001,1.0001 0 0 0 -1.093749,-1.03125 z"/>
</g>
</g>
</svg>
