<svg xmlns="http://www.w3.org/2000/svg" viewBox="0 0 48 48">
<g style="stroke:#9c7b5f;line-height:normal">
<path style="fill:#9c7a5f" d="M 5.7816225,37.987179 C 5.0791136,37.914549 4.4850228,37.218632 4.4883018,36.472188 l 0,-28.6795646 C 4.4883753,6.999399 5.1708157,6.277716 5.9209027,6.277635 l 35.3374973,0 c 0.75009,8.1e-5 1.432527,0.721764 1.432605,1.5149884 l 0,26.0178146 c -7.8e-5,0.793226 -0.682515,1.514907 -1.432605,1.514988 l -13.798734,0 0,1.146762 c -7.5e-5,0.793225 -0.682514,1.514912 -1.432601,1.514991 l -20.1061623,0 c -0.04639,0.0023 -0.092892,0.0023 -0.1392802,0 z"/>
<path style="fill:#e0b189" d="m 3.0188482,10.01981 c -0.827686,0.0726 -1.5276343,0.768207 -1.5237714,1.514322 l 0,28.66694 c 8.85e-5,0.792876 0.8041275,1.514241 1.6878699,1.51432 l 41.6341213,0 c 0.883744,-7.9e-5 1.687781,-0.721444 1.687871,-1.51432 l 0,-26.006363 c -9e-5,-0.792875 -0.804127,-1.514241 -1.687871,-1.514321 l -16.257467,0 0,-1.146256 c -8.9e-5,-0.792875 -0.804128,-1.514242 -1.68787,-1.514322 l -23.6887843,0 c -0.054656,-0.0024 -0.1094421,-0.0024 -0.1640985,0 z"/>
</g>
<path style="fill:#9c7a5f;display:block" d="m 22.740379,19 c -0.443825,0 -0.81505,0.3526 -0.81505,0.7964 v 1.037 c -0.280612,0.095 -0.552899,0.2036 -0.815048,0.3332 l -0.722459,-0.7221 c -0.313832,-0.3137 -0.816116,-0.3137 -1.129924,0 l -1.815338,1.7962 c -0.313833,0.3138 -0.313833,0.816 0,1.1296 l 0.722459,0.7223 c -0.13298,0.2666 -0.237479,0.5475 -0.333429,0.8332 h -1.01884 c -0.443827,0 -0.81505,0.3527 -0.81505,0.7964 v 2.5556 c 0,0.4437 0.371223,0.7964 0.81505,0.7964 h 1.01884 c 0.09594,0.2857 0.200455,0.5666 0.333429,0.8332 l -0.722459,0.7223 c -0.313833,0.3138 -0.313833,0.8158 0,1.1296 l 1.815338,1.7962 c 0.313832,0.3137 0.816116,0.3137 1.129924,0 l 0.722459,-0.7221 c 0.262149,0.13 0.534436,0.2389 0.815048,0.3332 v 1.037 c 0,0.4438 0.371231,0.7964 0.81505,0.7964 h 2.537735 c 0.443826,0 0.796556,-0.3526 0.796556,-0.7964 v -1.037 c 0.285903,-0.096 0.566872,-0.2004 0.833543,-0.3332 l 0.722461,0.7221 c 0.313831,0.3137 0.816117,0.3137 1.129924,0 l 1.815338,-1.7962 c 0.313832,-0.3138 0.313825,-0.816 0,-1.1296 L 29.834982,29.889 c 0.129866,-0.2621 0.23925,-0.5343 0.333429,-0.8148 h 1.037335 c 0.443826,0 0.796554,-0.3527 0.796554,-0.7964 v -2.5556 c 1e-6,-0.4437 -0.352706,-0.7964 -0.796554,-0.7964 H 30.168411 C 30.074231,24.6453 29.96485,24.3731 29.834982,24.111 l 0.740954,-0.7407 c 0.313832,-0.3138 0.313832,-0.8158 0,-1.1296 l -1.815338,-1.7962 c -0.313833,-0.3137 -0.816117,-0.3137 -1.129924,0 l -0.722461,0.7221 c -0.2667,-0.1332 -0.547671,-0.2372 -0.833543,-0.3332 v -1.037 C 26.07467,19.3526 25.721965,19 25.278114,19 h -2.537735 z m 1.25962,5.9258 c 1.145218,0 2.074671,0.9293 2.074671,2.0743 0,1.1448 -0.929453,2.0741 -2.074671,2.0741 -1.145219,0 -2.07467,-0.9293 -2.07467,-2.0741 0,-1.145 0.929451,-2.0743 2.07467,-2.0743 z"/>
</svg>
