<svg width="47.5" xmlns="http://www.w3.org/2000/svg" height="47.5" viewBox="0 0 38 38">
<g style="opacity:.5">
<path style="opacity:1;fill:#dcdcdc;fill-rule:evenodd;stroke:#777;stroke-width:.808" d="m 1.7186108,4.004122 27.7854252,0 c 0.713863,0 1.293632,0.572435 1.293632,1.279097 l 0,18.246871 c 0,0.706662 -0.579769,1.279096 -1.293632,1.279096 l -27.7854252,0 c -0.7138642,0 -1.2936303,-0.572434 -1.2936303,-1.279096 l 0,-18.246871 c 0,-0.706662 0.5797661,-1.279097 1.2936303,-1.279097 z"/>
<path style="opacity:.5;fill:#999;fill-rule:evenodd" d="M 0.4501595,24.390789 9.020473,14.951506 c 0.3944,-0.390835 0.7888,-0.900106 1.660424,-1.247516 0.871624,-0.343462 2.181033,-0.544802 4.535601,-0.544802 2.342736,0 3.660033,0.20134 4.535601,0.544802 0.871625,0.34741 1.26208,0.856681 1.660425,1.247516 l 8.566369,9.439283 -8.566369,-8.606289 c -1.727473,-1.638352 -3.813849,-1.891014 -6.196026,-1.792318 -2.255968,0.03948 -4.610537,0 -6.196025,1.792318 z"/>
<path style="opacity:1;fill:#dcdcdc;fill-rule:evenodd" d="m 1.6215275,4.805561 c -0.4496166,0 -0.7927439,0.355305 -0.7927439,0.821151 l 0,1.188299 8.9094984,9.20636 c 0.429895,0.446105 0.662592,0.797464 1.356736,1.081708 0.690199,0.288192 1.881288,0.505323 4.12148,0.505323 2.228361,0 3.423393,-0.217131 4.121481,-0.505323 0.694144,-0.284244 0.922896,-0.63955 1.356736,-1.081708 l 8.909498,-9.20636 0,-1.188299 c 0,-0.465846 -0.347072,-0.821151 -0.796688,-0.821151 z"/>
<g style="opacity:.5" transform="translate(-5.98401 -10.77664)">
<path style="fill:#999;fill-rule:evenodd" d="m 6.8326695,16.881272 8.5703135,9.439282 c 0.3944,0.390836 0.7888,0.900107 1.660424,1.247517 0.871624,0.343462 2.181033,0.544802 4.535601,0.544802 2.342736,0 3.660033,-0.20134 4.535601,-0.544802 0.871625,-0.34741 1.26208,-0.856681 1.660425,-1.247517 l 8.566369,-9.439282 -8.566369,8.606288 c -1.727473,1.638353 -3.813849,1.792319 -6.196026,1.697571 -2.255968,-0.04343 -4.610537,0.09475 -6.196025,-1.697571 z"/>
</g>
</g>
<g style="fill-rule:evenodd" transform="translate(-.05693 -3.18797)">
<path style="fill:#f9f9f9;stroke:#777;stroke-width:.808" d="m 8.1011208,14.382262 27.7854252,0 c 0.713863,0 1.293632,0.572435 1.293632,1.279097 l 0,18.246871 c 0,0.706662 -0.579769,1.279096 -1.293632,1.279096 l -27.7854252,0 c -0.7138642,0 -1.2936303,-0.572434 -1.2936303,-1.279096 l 0,-18.246871 c 0,-0.706662 0.5797661,-1.279097 1.2936303,-1.279097 z"/>
<path style="fill:#999" d="m 6.8326695,34.768929 8.5703135,-9.439283 c 0.3944,-0.390835 0.7888,-0.900106 1.660424,-1.247516 0.871624,-0.343462 2.181033,-0.544802 4.535601,-0.544802 2.342736,0 3.660033,0.20134 4.535601,0.544802 0.871625,0.34741 1.26208,0.856681 1.660425,1.247516 l 8.566369,9.439283 -8.566369,-8.606289 c -1.727473,-1.638352 -3.813849,-1.891014 -6.196026,-1.792318 -2.255968,0.03948 -4.610537,0 -6.196025,1.792318 z"/>
<path style="fill:#f9f9f9" d="m 8.0040375,15.183701 c -0.4496166,0 -0.7927439,0.355305 -0.7927439,0.821151 l 0,1.188299 8.9094984,9.20636 c 0.429895,0.446105 0.662592,0.797464 1.356736,1.081708 0.690199,0.288192 1.881288,0.505323 4.12148,0.505323 2.228361,0 3.423393,-0.217131 4.121481,-0.505323 0.694144,-0.284244 0.922896,-0.63955 1.356736,-1.081708 l 8.909498,-9.20636 0,-1.188299 c 0,-0.465846 -0.347072,-0.821151 -0.796688,-0.821151 z"/>
</g>
<g transform="translate(.34157 -3.58647)">
<path style="fill:#999;fill-rule:evenodd" d="m 6.8326695,16.881272 8.5703135,9.439282 c 0.3944,0.390836 0.7888,0.900107 1.660424,1.247517 0.871624,0.343462 2.181033,0.544802 4.535601,0.544802 2.342736,0 3.660033,-0.20134 4.535601,-0.544802 0.871625,-0.34741 1.26208,-0.856681 1.660425,-1.247517 l 8.566369,-9.439282 -8.566369,8.606288 c -1.727473,1.638353 -3.813849,1.792319 -6.196026,1.697571 -2.255968,-0.04343 -4.610537,0.09475 -6.196025,-1.697571 z"/>
</g>
</svg>
