<svg width="32" xmlns="http://www.w3.org/2000/svg" height="32" viewBox="0 0 32 32" xmlns:xlink="http://www.w3.org/1999/xlink">
<g style="fill:#aaa">
<path d="M 7.96875 16 C 7.976562 16.734375 8.585938 17.324219 9.320312 17.3125 L 16.65625 17.3125 C 16.96875 17.3125 17.269531 17.199219 17.507812 17 L 21.507812 13.667969 C 21.90625 13.371094 22.109375 12.878906 22.035156 12.390625 C 21.957031 11.902344 21.617188 11.492188 21.148438 11.332031 C 20.679688 11.171875 20.160156 11.285156 19.800781 11.625 L 16.175781 14.644531 L 9.320312 14.644531 C 8.960938 14.640625 8.613281 14.78125 8.355469 15.035156 C 8.101562 15.292969 7.960938 15.640625 7.96875 16 Z "/>
<path d="M 16 2.667969 C 8.652344 2.667969 2.667969 8.652344 2.667969 16 C 2.667969 23.347656 8.652344 29.332031 16 29.332031 C 17.894531 29.332031 19.699219 28.945312 21.332031 28.230469 L 21.332031 26 L 19.707031 26 C 18.554688 26.425781 17.304688 26.667969 16 26.667969 C 10.09375 26.667969 5.332031 21.90625 5.332031 16 C 5.332031 10.09375 10.09375 5.332031 16 5.332031 C 21.90625 5.332031 26.667969 10.09375 26.667969 16 L 26.667969 20.667969 L 28.480469 20.667969 C 29.027344 19.210938 29.332031 17.640625 29.332031 16 C 29.332031 8.652344 23.347656 2.667969 16 2.667969 Z "/>
<path d="M 18 22 L 22.667969 22 L 22.667969 17.332031 L 25.332031 17.332031 L 25.332031 22 L 30 22 L 30 24.667969 L 25.332031 24.667969 L 25.332031 29.332031 L 22.667969 29.332031 L 22.667969 24.667969 L 18 24.667969 Z "/>
</g>
</svg>
