<?xml version="1.0" encoding="UTF-8" standalone="no"?>
<svg
   xmlns:dc="http://purl.org/dc/elements/1.1/"
   xmlns:cc="http://creativecommons.org/ns#"
   xmlns:rdf="http://www.w3.org/1999/02/22-rdf-syntax-ns#"
   xmlns:svg="http://www.w3.org/2000/svg"
   xmlns="http://www.w3.org/2000/svg"
   xmlns:sodipodi="http://sodipodi.sourceforge.net/DTD/sodipodi-0.dtd"
   xmlns:inkscape="http://www.inkscape.org/namespaces/inkscape"
   width="32"
   height="32"
   viewBox="0 0 32 32"
   id="svg2"
   version="1.1"
   inkscape:version="0.91 r13725"
   sodipodi:docname="appointment-new.svg">
  <metadata
     id="metadata16">
    <rdf:RDF>
      <cc:Work
         rdf:about="">
        <dc:format>image/svg+xml</dc:format>
        <dc:type
           rdf:resource="http://purl.org/dc/dcmitype/StillImage" />
      </cc:Work>
    </rdf:RDF>
  </metadata>
  <defs
     id="defs14" />
  <sodipodi:namedview
     pagecolor="#ffffff"
     bordercolor="#666666"
     borderopacity="1"
     objecttolerance="10"
     gridtolerance="10"
     guidetolerance="10"
     inkscape:pageopacity="0"
     inkscape:pageshadow="2"
     inkscape:window-width="1366"
     inkscape:window-height="704"
     id="namedview12"
     showgrid="false"
     inkscape:zoom="7.375"
     inkscape:cx="16"
     inkscape:cy="16"
     inkscape:window-x="0"
     inkscape:window-y="27"
     inkscape:window-maximized="1"
     inkscape:current-layer="svg2" />
  <path
     style="fill:#ffffff;fill-rule:evenodd"
     d="M 30,16 C 30,23.731446 23.731446,30 16,30 8.2685542,30 2,23.731446 2,16 2,8.268554 8.2685542,2 16,2 23.731446,2 30,8.268554 30,16 Z"
     id="path4"
     inkscape:connector-curvature="0" />
  <path
     style="fill:#268bd2"
     d="M 15.976562 5.574219 C 15.09375 5.585938 14.386719 6.320312 14.398438 7.199219 L 14.398438 16 C 14.398438 16.375 14.53125 16.738281 14.773438 17.023438 L 18.773438 21.824219 C 19.132812 22.304688 19.71875 22.542969 20.304688 22.457031 C 20.894531 22.363281 21.382812 21.957031 21.574219 21.394531 C 21.769531 20.832031 21.632812 20.207031 21.226562 19.773438 L 17.601562 15.425781 L 17.601562 7.199219 C 17.605469 6.769531 17.4375 6.351562 17.132812 6.042969 C 16.824219 5.738281 16.40625 5.570312 15.976562 5.574219 Z "
     id="path6" />
  <path
     style="fill:#aaa"
     d="M 16 0 C 7.179688 0 0 7.179688 0 16 C 0 24.820312 7.179688 32 16 32 C 24.820312 32 32 24.820312 32 16 C 32 7.179688 24.820312 0 16 0 Z M 16 3.199219 C 23.085938 3.199219 28.800781 8.914062 28.800781 16 C 28.800781 23.085938 23.085938 28.800781 16 28.800781 C 8.914062 28.800781 3.199219 23.085938 3.199219 16 C 3.199219 8.914062 8.914062 3.199219 16 3.199219 Z "
     id="path8" />
  <path
     style="fill:#859900"
     d="M 32 20 L 26 20 L 26 14 L 20 14 L 20 20 L 14 20 L 14 26 L 20 26 L 20 32 L 26 32 L 26 26 L 32 26 Z "
     id="path10" />
</svg>
