<svg width="32" xmlns="http://www.w3.org/2000/svg" height="32" viewBox="0 0 32 32" xmlns:xlink="http://www.w3.org/1999/xlink">
<path style="fill:#aaa" d="M 8.929688 9.871094 C 8.929688 9.871094 7.984375 10.816406 8.929688 11.757812 L 13.171875 16 L 8.929688 20.242188 C 7.984375 21.183594 8.929688 22.128906 8.929688 22.128906 L 9.871094 23.070312 C 9.871094 23.070312 10.816406 24.015625 11.757812 23.070312 L 16 18.828125 L 20.242188 23.070312 C 21.183594 24.015625 22.128906 23.070312 22.128906 23.070312 L 23.070312 22.128906 C 23.070312 22.128906 24.015625 21.183594 23.070312 20.242188 L 18.828125 16 L 23.070312 11.757812 C 24.015625 10.816406 23.070312 9.871094 23.070312 9.871094 L 22.128906 8.929688 C 22.128906 8.929688 21.183594 7.984375 20.242188 8.929688 L 16 13.171875 L 11.757812 8.929688 C 10.816406 7.984375 9.871094 8.929688 9.871094 8.929688 Z "/>
</svg>
