<svg width="32" xmlns="http://www.w3.org/2000/svg" height="32" viewBox="0 0 32 32" xmlns:xlink="http://www.w3.org/1999/xlink">
<path style="fill:#aaa" d="M 16 2.667969 C 11.226562 2.667969 7.039062 5.210938 4.6875 9 L 2.8125 6.75 C 2.792969 6.738281 2.769531 6.738281 2.75 6.730469 C 2.480469 6.445312 1.90625 6.617188 1.832031 7 L -0.0820312 18.125 C -0.152344 18.4375 0.136719 18.777344 0.457031 18.769531 L 2.855469 18.167969 C 3.894531 24.476562 9.398438 29.3125 16 29.3125 C 23.339844 29.3125 29.332031 23.339844 29.332031 16 C 29.332031 8.660156 23.339844 2.667969 16 2.667969 Z M 17.625 6.707031 C 18.324219 6.714844 19.058594 6.851562 19.832031 7.082031 C 23.878906 8.625 26.75 11.402344 26.75 16 C 26.75 21.949219 21.949219 26.75 16 26.75 C 10.566406 26.75 6.113281 22.746094 5.375 17.519531 L 11.332031 16 C 11.722656 15.988281 11.980469 15.457031 11.75 15.144531 L 9.332031 13.332031 C 9.386719 13.132812 8.582031 12.582031 11.8125 9.144531 C 13.335938 7.527344 15.375 6.683594 17.625 6.707031 Z M 23.269531 10.105469 C 23.230469 10.109375 23.1875 10.117188 23.144531 10.125 C 22.988281 10.144531 22.839844 10.203125 22.707031 10.292969 L 15.625 15.042969 C 15.007812 15.273438 14.796875 16.191406 15.25 16.667969 C 15.25 16.671875 15.25 16.679688 15.25 16.6875 C 15.269531 16.703125 15.292969 16.714844 15.3125 16.730469 C 15.320312 16.734375 15.328125 16.742188 15.332031 16.75 C 15.355469 16.765625 15.375 16.777344 15.394531 16.792969 C 15.402344 16.796875 15.410156 16.804688 15.417969 16.8125 C 15.4375 16.828125 15.457031 16.839844 15.480469 16.855469 C 15.484375 16.859375 15.492188 16.867188 15.5 16.875 L 15.519531 16.894531 C 15.535156 16.902344 15.546875 16.910156 15.5625 16.917969 L 15.582031 16.917969 L 20.167969 19.542969 C 20.625 19.804688 21.28125 19.625 21.542969 19.167969 C 21.804688 18.707031 21.625 18.054688 21.167969 17.792969 L 17.917969 15.9375 L 23.832031 11.957031 C 24.210938 11.730469 24.398438 11.234375 24.269531 10.8125 C 24.144531 10.390625 23.710938 10.085938 23.269531 10.105469 Z "/>
</svg>
