<svg width="32" xmlns="http://www.w3.org/2000/svg" height="32" viewBox="0 0 32 32" xmlns:xlink="http://www.w3.org/1999/xlink">
<g style="fill:#aaa">
<path d="M 20.082031 25.332031 L 11.917969 25.332031 C 12.894531 26.546875 14.328125 27.375 16 27.375 C 17.671875 27.375 19.105469 26.546875 20.082031 25.332031 Z "/>
<path d="M 11.957031 18.667969 L 20.042969 18.667969 C 19.0625 17.496094 17.636719 16.707031 16 16.707031 C 14.363281 16.707031 12.9375 17.496094 11.957031 18.667969 Z "/>
<path d="M 24.644531 25.332031 L 22.644531 25.332031 L 22.644531 28.644531 L 9.355469 28.644531 L 9.355469 25.332031 L 7.355469 25.332031 L 7.355469 29.644531 C 7.355469 30.167969 7.832031 30.644531 8.355469 30.644531 L 23.644531 30.644531 C 24.167969 30.644531 24.644531 30.167969 24.644531 29.644531 Z "/>
<path d="M 12.875 1.292969 C 12.386719 1.34375 11.976562 1.800781 11.980469 2.292969 L 11.980469 7.1875 L 9.957031 7.1875 C 9.199219 7.183594 8.695312 8.253906 9.1875 8.832031 L 11.019531 11 L 8.355469 11 C 8.320312 11 8.285156 11 8.25 11 C 7.761719 11.050781 7.351562 11.507812 7.355469 12 L 7.355469 18.667969 L 3.332031 18.667969 C 3.3125 18.664062 3.292969 18.664062 3.269531 18.667969 C 2.925781 18.699219 2.664062 18.988281 2.667969 19.332031 L 2.667969 24.667969 C 2.667969 25.035156 2.964844 25.332031 3.332031 25.332031 L 28.667969 25.332031 C 29.035156 25.332031 29.332031 25.035156 29.332031 24.667969 L 29.332031 19.332031 C 29.332031 18.964844 29.035156 18.667969 28.667969 18.667969 L 24.644531 18.667969 L 24.644531 12 C 24.644531 11.476562 24.167969 11 23.644531 11 L 20.980469 11 L 22.8125 8.832031 C 23.304688 8.253906 22.800781 7.183594 22.042969 7.1875 L 20.019531 7.1875 L 20.019531 2.292969 C 20.019531 1.769531 19.542969 1.292969 19.019531 1.292969 L 12.980469 1.292969 C 12.945312 1.289062 12.910156 1.289062 12.875 1.292969 Z M 9.355469 13 L 12.707031 13 L 15.25 16 C 15.625 16.4375 16.398438 16.4375 16.769531 16 L 19.292969 13 L 22.644531 13 L 22.644531 18.667969 L 9.355469 18.667969 Z M 4 20 L 28 20 L 28 24 L 4 24 Z "/>
</g>
<path style="fill:none;stroke:#aaa" d="M 19.998047 30 L 19.998047 36 " transform="scale(.66667)"/>
<g style="fill:#aaa;fill-opacity:.302">
<path d="M 4.667969 20.667969 L 6 20.667969 L 6 23.332031 L 4.667969 23.332031 Z "/>
<path d="M 6.667969 21.332031 L 8 21.332031 L 8 23.332031 L 6.667969 23.332031 Z "/>
<path d="M 8.667969 21.332031 L 10.667969 21.332031 L 10.667969 23.332031 L 8.667969 23.332031 Z "/>
<path d="M 11.332031 20.667969 L 12 20.667969 L 12 23.332031 L 11.332031 23.332031 Z "/>
</g>
</svg>
