<svg width="32" xmlns="http://www.w3.org/2000/svg" height="32" viewBox="0 0 32 32" xmlns:xlink="http://www.w3.org/1999/xlink">
<path style="fill:#aaa" d="M 12.535156 2.675781 C 12.300781 2.722656 12.089844 2.867188 11.957031 3.066406 L 10.769531 4.851562 C 10.617188 5.082031 10.582031 5.390625 10.675781 5.652344 L 14.167969 15.441406 L 13.109375 18.433594 C 12.929688 18.332031 12.75 18.253906 12.535156 18.191406 C 11.234375 17.828125 10.066406 18.476562 9.246094 19.324219 C 8.425781 20.175781 7.386719 21.335938 7 22.707031 C 6.613281 24.078125 6.554688 25.402344 6.8125 26.554688 C 7.070312 27.707031 8.113281 28.863281 9.414062 29.230469 C 10.710938 29.59375 11.882812 28.945312 12.703125 28.097656 C 13.523438 27.246094 14.15625 26.082031 14.542969 24.714844 C 14.835938 23.929688 15.105469 23.136719 15.378906 22.296875 L 15.394531 22.28125 L 15.992188 20.589844 L 16.605469 22.28125 L 16.621094 22.296875 C 16.875 23.117188 17.1875 23.976562 17.457031 24.714844 C 17.84375 26.082031 18.476562 27.246094 19.296875 28.097656 C 20.117188 28.945312 21.289062 29.59375 22.585938 29.230469 C 23.886719 28.863281 24.953125 27.707031 25.210938 26.554688 C 25.46875 25.402344 25.410156 24.078125 25.023438 22.707031 C 24.640625 21.335938 23.574219 20.175781 22.753906 19.324219 C 21.933594 18.476562 20.765625 17.828125 19.464844 18.191406 C 19.25 18.253906 19.070312 18.332031 18.890625 18.433594 L 17.832031 15.441406 L 21.324219 5.652344 C 21.417969 5.390625 21.382812 5.082031 21.230469 4.851562 L 20.042969 3.066406 C 19.859375 2.792969 19.515625 2.636719 19.1875 2.675781 C 18.859375 2.722656 18.570312 2.960938 18.460938 3.273438 L 15.992188 10.238281 L 13.539062 3.273438 C 13.429688 2.960938 13.140625 2.722656 12.8125 2.675781 C 12.722656 2.664062 12.625 2.664062 12.535156 2.675781 Z M 11.828125 20.386719 C 11.867188 20.375 11.898438 20.382812 11.902344 20.386719 C 11.917969 20.390625 12.175781 20.566406 12.332031 21.257812 C 12.484375 21.949219 12.464844 22.972656 12.164062 24.046875 C 11.859375 25.117188 11.335938 26.007812 10.84375 26.515625 C 10.351562 27.023438 10.058594 27.023438 10.046875 27.019531 C 10.03125 27.015625 9.773438 26.855469 9.617188 26.164062 C 9.464844 25.472656 9.484375 24.449219 9.785156 23.375 C 10.085938 22.304688 10.613281 21.414062 11.105469 20.90625 C 11.472656 20.523438 11.71875 20.410156 11.828125 20.386719 Z M 20.097656 20.386719 C 20.113281 20.378906 20.40625 20.398438 20.894531 20.90625 C 21.386719 21.414062 21.914062 22.304688 22.214844 23.375 C 22.515625 24.449219 22.535156 25.472656 22.382812 26.164062 C 22.226562 26.855469 21.96875 27.015625 21.953125 27.019531 C 21.941406 27.023438 21.648438 27.023438 21.15625 26.515625 C 20.664062 26.007812 20.140625 25.117188 19.835938 24.046875 C 19.535156 22.972656 19.515625 21.949219 19.667969 21.257812 C 19.824219 20.566406 20.082031 20.390625 20.097656 20.386719 Z "/>
</svg>
