<svg width="32" xmlns="http://www.w3.org/2000/svg" height="32" viewBox="0 0 32 32" xmlns:xlink="http://www.w3.org/1999/xlink">
<path style="fill:#aaa" d="M 6.894531 2.667969 C 6.40625 2.71875 5.996094 3.175781 6 3.667969 L 6 28.332031 C 6 28.855469 6.472656 29.332031 7 29.332031 L 21.332031 29.332031 L 21.332031 27.332031 L 8.019531 27.332031 L 8.019531 4.667969 L 20 4.667969 L 20 7.332031 L 24 7.332031 L 24 16 L 26 16 L 26 5.332031 L 22 2.667969 L 7 2.667969 C 6.964844 2.664062 6.929688 2.664062 6.894531 2.667969 Z M 22.667969 17.332031 L 22.667969 22 L 18 22 L 18 24.667969 L 22.667969 24.667969 L 22.667969 29.332031 L 25.332031 29.332031 L 25.332031 24.667969 L 30 24.667969 L 30 22 L 25.332031 22 L 25.332031 17.332031 Z "/>
</svg>
