<svg width="32" xmlns="http://www.w3.org/2000/svg" height="32" viewBox="0 0 32 32" xmlns:xlink="http://www.w3.org/1999/xlink">
<path style="fill:#aaa" d="M 6.894531 2.625 C 6.40625 2.675781 5.996094 3.132812 6 3.625 L 6 13.292969 L 3.605469 13.292969 C 3.570312 13.289062 3.53125 13.289062 3.5 13.292969 C 3.046875 13.34375 2.664062 13.800781 2.667969 14.292969 L 2.667969 25.75 C 2.667969 26.273438 3.117188 26.75 3.605469 26.75 L 6 26.75 L 6 28.292969 C 6 28.816406 6.472656 29.292969 7 29.292969 L 25 29.292969 C 25.527344 29.292969 26 28.816406 26 28.292969 L 26 26.75 L 28.394531 26.75 C 28.882812 26.75 29.332031 26.273438 29.332031 25.75 L 29.332031 14.292969 C 29.332031 13.769531 28.882812 13.292969 28.394531 13.292969 L 26 13.292969 L 26 5.3125 C 25.332031 4.632812 22.636719 3.289062 22 2.625 L 7 2.625 C 6.964844 2.625 6.929688 2.625 6.894531 2.625 Z M 8.019531 4.625 L 20 4.625 L 20 7.292969 L 24 7.292969 L 24 13.292969 L 21.4375 13.292969 C 20.148438 11.703125 18.195312 10.667969 16 10.667969 C 13.804688 10.667969 11.847656 11.703125 10.5625 13.292969 L 8.019531 13.292969 Z M 16 12.667969 C 18.773438 12.667969 20.980469 14.894531 20.980469 17.667969 C 20.980469 20.441406 18.773438 22.667969 16 22.667969 C 13.226562 22.667969 11 20.441406 11 17.667969 C 11 14.894531 13.226562 12.667969 16 12.667969 Z M 6.667969 14.625 L 9.707031 14.625 C 9.261719 15.546875 9 16.578125 9 17.667969 C 9 18.738281 9.253906 19.753906 9.6875 20.667969 L 6.667969 20.667969 Z M 22.3125 14.625 L 25.332031 14.625 L 25.332031 20.667969 L 22.332031 20.667969 C 22.769531 19.753906 23.019531 18.738281 23.019531 17.667969 C 23.019531 16.578125 22.761719 15.542969 22.3125 14.625 Z M 27.332031 14.625 C 27.703125 14.625 28 14.921875 28 15.292969 C 28 15.660156 27.703125 15.957031 27.332031 15.957031 C 26.964844 15.957031 26.667969 15.660156 26.667969 15.292969 C 26.667969 14.921875 26.964844 14.625 27.332031 14.625 Z M 16 15 C 14.539062 15 13.332031 16.207031 13.332031 17.667969 C 13.332031 19.128906 14.539062 20.332031 16 20.332031 C 17.460938 20.332031 18.667969 19.128906 18.667969 17.667969 C 18.667969 16.207031 17.460938 15 16 15 Z M 8 22 L 10.5 22 C 11.78125 23.632812 13.773438 24.6875 16 24.6875 C 18.226562 24.6875 20.210938 23.632812 21.5 22 L 24 22 L 24 27.355469 L 8 27.355469 Z "/>
</svg>
