<svg width="32" xmlns="http://www.w3.org/2000/svg" height="32" viewBox="0 0 32 32" xmlns:xlink="http://www.w3.org/1999/xlink">
<path style="fill:#aaa" d="M 15.761719 1.980469 L 15.761719 5.9375 L 21.699219 11.875 L 8.90625 11.875 C 8.90625 11.875 6.769531 11.828125 4.578125 12.925781 C 2.382812 14.023438 0 16.824219 0 20.78125 C 0 24.738281 2.382812 27.539062 4.578125 28.636719 C 6.769531 29.734375 8.90625 29.6875 8.90625 29.6875 C 10.476562 29.710938 11.917969 28.289062 11.917969 26.71875 C 11.917969 25.148438 10.476562 23.726562 8.90625 23.75 C 8.90625 23.75 8.011719 23.703125 7.238281 23.316406 C 6.460938 22.929688 5.9375 22.761719 5.9375 20.78125 C 5.9375 18.800781 6.460938 18.632812 7.238281 18.246094 C 8.011719 17.859375 8.90625 17.8125 8.90625 17.8125 L 21.699219 17.8125 L 15.761719 23.75 L 15.761719 27.707031 L 19.71875 27.707031 L 31.59375 15.832031 L 31.59375 13.855469 L 19.71875 1.980469 Z "/>
</svg>
