<svg width="32" xmlns="http://www.w3.org/2000/svg" height="32" viewBox="0 0 32 32" xmlns:xlink="http://www.w3.org/1999/xlink">
<g style="fill:#aaa">
<path d="M 19.28125 24.679688 C 18.761719 24.664062 18.269531 24.445312 17.90625 24.074219 L 11.238281 17.40625 C 10.863281 17.03125 10.652344 16.523438 10.652344 15.992188 C 10.652344 15.460938 10.863281 14.949219 11.238281 14.574219 L 17.90625 7.90625 C 18.6875 7.125 19.957031 7.125 20.738281 7.90625 C 21.519531 8.691406 21.519531 9.957031 20.738281 10.742188 L 15.488281 15.992188 L 20.738281 21.242188 C 21.335938 21.816406 21.515625 22.699219 21.191406 23.460938 C 20.867188 24.222656 20.109375 24.707031 19.28125 24.679688 Z "/>
<path d="M 8.667969 7.792969 C 8.609375 6.6875 7.667969 5.839844 6.5625 5.894531 C 5.457031 5.953125 4.609375 6.894531 4.667969 8 L 4.667969 24 C 4.65625 24.722656 5.035156 25.390625 5.660156 25.753906 C 6.28125 26.121094 7.050781 26.121094 7.675781 25.753906 C 8.296875 25.390625 8.675781 24.722656 8.667969 24 L 8.667969 8 C 8.671875 7.929688 8.671875 7.859375 8.667969 7.792969 Z "/>
</g>
</svg>
