<svg width="32" xmlns="http://www.w3.org/2000/svg" height="32" viewBox="0 0 32 32" xmlns:xlink="http://www.w3.org/1999/xlink">
<path style="fill:#aaa" d="M 15.332031 6.667969 C 15.332031 6.667969 14 6.667969 14 8 L 14 14 L 8 14 C 6.667969 14 6.667969 15.332031 6.667969 15.332031 L 6.667969 16.667969 C 6.667969 16.667969 6.667969 18 8 18 L 14 18 L 14 24 C 14 25.332031 15.332031 25.332031 15.332031 25.332031 L 16.667969 25.332031 C 16.667969 25.332031 18 25.332031 18 24 L 18 18 L 24 18 C 25.332031 18 25.332031 16.667969 25.332031 16.667969 L 25.332031 15.332031 C 25.332031 15.332031 25.332031 14 24 14 L 18 14 L 18 8 C 18 6.667969 16.667969 6.667969 16.667969 6.667969 Z "/>
</svg>
