<svg width="32" xmlns="http://www.w3.org/2000/svg" height="32" viewBox="0 0 32 32" xmlns:xlink="http://www.w3.org/1999/xlink">
<g style="fill:#aaa">
<path d="M 5.875 3.332031 C 5.582031 3.363281 5.332031 3.644531 5.332031 3.9375 L 5.332031 18.730469 C 5.332031 19.042969 5.621094 19.332031 5.9375 19.332031 L 16 19.332031 L 16 27.394531 C 16 27.710938 16.289062 28 16.605469 28 L 27.394531 28 C 27.710938 28 28 27.710938 28 27.394531 L 28 13.605469 C 27.601562 13.195312 25.984375 12.398438 25.605469 12 L 17.332031 12 L 17.332031 4.9375 C 16.933594 4.53125 15.320312 3.734375 14.9375 3.332031 L 5.9375 3.332031 C 5.917969 3.332031 5.894531 3.332031 5.875 3.332031 Z M 7.332031 5.332031 L 13.332031 5.332031 L 13.332031 6.667969 L 15.332031 6.667969 L 15.332031 17.332031 L 7.332031 17.332031 Z M 18 14 L 24 14 L 24 15.332031 L 26 15.332031 L 26 26 L 18 26 Z "/>
<path d="M 8 8.027344 L 8 8.695312 L 14.667969 8.695312 L 14.667969 8.027344 Z "/>
<path d="M 8 9.316406 L 8 9.984375 L 10 9.984375 L 10 9.316406 Z "/>
<path d="M 13.332031 11.316406 L 13.332031 11.984375 L 14.667969 11.984375 L 14.667969 11.316406 Z "/>
<path d="M 8 12.671875 L 8 13.339844 L 11.332031 13.339844 L 11.332031 12.671875 Z "/>
<path d="M 12 12.671875 L 12 13.339844 L 14.667969 13.339844 L 14.667969 12.671875 Z "/>
<path d="M 10.667969 9.316406 L 10.667969 9.984375 L 14.667969 9.984375 L 14.667969 9.316406 Z "/>
<path d="M 8 11.332031 L 8 12 L 12.667969 12 L 12.667969 11.332031 Z "/>
<path d="M 18.667969 16.667969 L 18.667969 17.332031 L 25.332031 17.332031 L 25.332031 16.667969 Z "/>
<path d="M 18.667969 17.953125 L 18.667969 18.621094 L 20.667969 18.621094 L 20.667969 17.953125 Z "/>
<path d="M 24 19.953125 L 24 20.621094 L 25.332031 20.621094 L 25.332031 19.953125 Z "/>
<path d="M 18.667969 21.3125 L 18.667969 21.976562 L 22 21.976562 L 22 21.3125 Z "/>
<path d="M 22.667969 21.3125 L 22.667969 21.976562 L 25.332031 21.976562 L 25.332031 21.3125 Z "/>
<path d="M 21.332031 17.953125 L 21.332031 18.621094 L 25.332031 18.621094 L 25.332031 17.953125 Z "/>
<path d="M 18.667969 19.972656 L 18.667969 20.636719 L 23.332031 20.636719 L 23.332031 19.972656 Z "/>
</g>
</svg>
