<svg width="32" xmlns="http://www.w3.org/2000/svg" height="32" viewBox="0 0 32 32" xmlns:xlink="http://www.w3.org/1999/xlink">
<path style="fill:#aaa" d="M 15.855469 2.667969 C 12.441406 2.667969 9.035156 3.964844 6.4375 6.5625 C 1.238281 11.761719 1.238281 20.21875 6.4375 25.417969 C 11.636719 30.617188 20.09375 30.617188 25.292969 25.417969 C 30.492188 20.21875 30.492188 11.761719 25.292969 6.5625 C 22.691406 3.964844 19.269531 2.667969 15.855469 2.667969 Z M 11.4375 9.375 C 12.050781 9.328125 12.648438 9.566406 13.0625 10.019531 L 16.0625 13.167969 L 19.207031 10.167969 C 19.945312 9.445312 21.105469 9.398438 21.894531 10.0625 C 22.335938 10.429688 22.597656 10.96875 22.613281 11.542969 C 22.632812 12.117188 22.398438 12.671875 21.980469 13.0625 L 18.8125 16.0625 L 21.792969 19.207031 C 22.519531 19.9375 22.574219 21.101562 21.917969 21.894531 C 21.550781 22.34375 21.003906 22.609375 20.425781 22.625 C 19.84375 22.644531 19.289062 22.40625 18.894531 21.980469 L 15.917969 18.832031 L 12.769531 21.8125 C 12.261719 22.355469 11.496094 22.570312 10.78125 22.375 C 10.066406 22.175781 9.515625 21.601562 9.355469 20.875 C 9.199219 20.148438 9.453125 19.394531 10.019531 18.917969 L 13.167969 15.9375 L 10.167969 12.769531 C 9.621094 12.214844 9.449219 11.394531 9.71875 10.667969 C 9.992188 9.941406 10.664062 9.4375 11.4375 9.375 Z "/>
</svg>
