<svg width="32" xmlns="http://www.w3.org/2000/svg" height="32" viewBox="0 0 32 32" xmlns:xlink="http://www.w3.org/1999/xlink">
<path style="fill:#aaa" d="M 16 2.667969 C 16 2.667969 8 2.667969 8 8.667969 L 8 13.332031 C 8 13.332031 5.332031 13.332031 5.332031 16 L 5.332031 26.667969 C 5.332031 29.332031 8 29.332031 8 29.332031 L 24 29.332031 C 24 29.332031 26.667969 29.332031 26.667969 26.667969 L 26.667969 16 C 26.667969 13.332031 24 13.332031 24 13.332031 L 11.332031 13.332031 L 11.332031 10 C 11.332031 6 16 6 16 6 C 16 6 20.667969 6 20.667969 10 L 20.667969 10.667969 L 24 10.667969 L 24 8.667969 C 24 2.667969 16 2.667969 16 2.667969 Z "/>
</svg>
