<svg width="32" xmlns="http://www.w3.org/2000/svg" height="32" viewBox="0 0 32 32" xmlns:xlink="http://www.w3.org/1999/xlink">
<g style="fill:#aaa">
<path d="M 3.964844 14.457031 C 3.980469 13.9375 4.199219 13.441406 4.570312 13.082031 L 11.238281 6.414062 C 11.613281 6.035156 12.121094 5.824219 12.652344 5.824219 C 13.183594 5.824219 13.695312 6.035156 14.070312 6.414062 L 20.738281 13.082031 C 21.519531 13.863281 21.519531 15.132812 20.738281 15.914062 C 19.953125 16.695312 18.6875 16.695312 17.902344 15.914062 L 12.652344 10.664062 L 7.402344 15.914062 C 6.828125 16.507812 5.945312 16.6875 5.183594 16.363281 C 4.421875 16.042969 3.9375 15.28125 3.964844 14.457031 Z "/>
<path d="M 28.035156 17.542969 C 28.019531 18.0625 27.800781 18.558594 27.429688 18.917969 L 20.761719 25.585938 C 20.386719 25.964844 19.878906 26.175781 19.347656 26.175781 C 18.816406 26.175781 18.304688 25.964844 17.929688 25.585938 L 11.261719 18.917969 C 10.480469 18.136719 10.480469 16.867188 11.261719 16.085938 C 12.046875 15.304688 13.3125 15.304688 14.097656 16.085938 L 19.347656 21.335938 L 24.597656 16.085938 C 25.171875 15.492188 26.054688 15.3125 26.816406 15.636719 C 27.578125 15.957031 28.0625 16.71875 28.035156 17.542969 Z "/>
</g>
</svg>
