<svg width="32" xmlns="http://www.w3.org/2000/svg" height="32" viewBox="0 0 32 32" xmlns:xlink="http://www.w3.org/1999/xlink">
<path style="fill:#aaa" d="M 3.5625 6 C 3.050781 6.054688 2.664062 6.484375 2.667969 7 L 2.667969 25 C 2.667969 25.550781 3.113281 26 3.667969 26 L 28.332031 26 C 28.886719 26 29.332031 25.550781 29.332031 25 L 29.332031 7 C 29.332031 6.449219 28.886719 6 28.332031 6 L 3.667969 6 C 3.632812 6 3.597656 6 3.5625 6 Z M 6.625 8 L 25.375 8 L 16 14.769531 Z M 4.667969 9.042969 L 15.417969 16.8125 C 15.765625 17.0625 16.234375 17.0625 16.582031 16.8125 L 27.332031 9.042969 L 27.332031 24 L 4.667969 24 Z "/>
</svg>
