<svg width="32" xmlns="http://www.w3.org/2000/svg" height="32" viewBox="0 0 32 32" xmlns:xlink="http://www.w3.org/1999/xlink">
<g style="fill:#aaa">
<path d="M 16.019531 1.980469 L 23.449219 8.304688 L 16.019531 14.167969 L 16.003906 10.511719 C 14.546875 10.554688 12.03125 11.886719 10.972656 12.914062 C 8.363281 15.441406 8.351562 19.359375 10.214844 21.878906 C 11.898438 24.15625 14.179688 24.621094 15.699219 24.621094 C 20.097656 24.621094 22.851562 21.019531 23.105469 19.484375 L 28.417969 18.777344 C 27.988281 26.117188 21.542969 30.121094 15.886719 29.996094 L 15.886719 30.015625 C 12.707031 30.101562 9.527344 28.910156 7.109375 26.433594 C 2.375 21.59375 2.363281 13.78125 7.316406 8.933594 C 9.753906 6.550781 12.796875 5.488281 16.003906 5.429688 Z "/>
<path d="M 17.488281 18.109375 C 17.488281 18.976562 16.785156 19.679688 15.914062 19.679688 C 15.046875 19.679688 14.34375 18.976562 14.34375 18.109375 C 14.34375 17.242188 15.046875 16.539062 15.914062 16.539062 C 16.785156 16.539062 17.488281 17.242188 17.488281 18.109375 Z "/>
</g>
</svg>
