<svg width="32" xmlns="http://www.w3.org/2000/svg" height="32" viewBox="0 0 32 32" xmlns:xlink="http://www.w3.org/1999/xlink">
<path style="fill:#aaa" d="M 3.957031 1.980469 L 3.957031 3.957031 L 1.980469 3.957031 L 1.980469 27.707031 L 3.957031 27.707031 L 3.957031 29.6875 L 27.707031 29.6875 L 27.707031 27.707031 L 29.6875 27.707031 L 29.6875 3.957031 L 27.707031 3.957031 L 27.707031 1.980469 Z M 15.769531 8.101562 C 16.886719 7.996094 17.976562 9.023438 17.9375 10.144531 L 17.9375 14.90625 L 23.007812 19.050781 C 23.917969 19.566406 24.269531 20.863281 23.75 21.769531 C 23.230469 22.675781 21.9375 23.03125 21.027344 22.511719 L 15.214844 17.9375 C 15.128906 17.902344 15.046875 17.863281 14.96875 17.8125 C 14.925781 17.796875 14.882812 17.773438 14.84375 17.75 C 14.824219 17.730469 14.800781 17.710938 14.78125 17.6875 C 14.761719 17.667969 14.738281 17.648438 14.71875 17.628906 C 14.675781 17.609375 14.636719 17.589844 14.597656 17.566406 C 14.578125 17.546875 14.554688 17.527344 14.535156 17.503906 C 14.515625 17.484375 14.492188 17.464844 14.472656 17.441406 C 14.453125 17.421875 14.429688 17.402344 14.410156 17.378906 C 14.390625 17.359375 14.367188 17.339844 14.347656 17.316406 C 14.324219 17.277344 14.308594 17.238281 14.285156 17.195312 C 14.269531 17.175781 14.246094 17.15625 14.226562 17.132812 C 13.957031 16.695312 13.863281 16.148438 13.976562 15.648438 C 13.972656 15.585938 13.972656 15.523438 13.976562 15.460938 L 13.976562 10.144531 C 13.957031 9.234375 14.636719 8.363281 15.523438 8.164062 C 15.605469 8.136719 15.6875 8.121094 15.769531 8.101562 Z "/>
</svg>
