<svg version="1.1" viewBox="0 0 32 32" xmlns="http://www.w3.org/2000/svg">
 <path d="m16 13.5c1.38 0 2.5 1.12 2.5 2.5 0 1.38-1.12 2.5-2.5 2.5-1.38 0-2.5-1.12-2.5-2.5 0-1.38 1.12-2.5 2.5-2.5z" style="fill:none;stroke-linejoin:round;stroke:#888"/>
 <path d="m16 2.75c-7.35 0-13.2 5.91-13.2 13.2 0 7.35 5.91 13.2 13.2 13.2 7.35 0 13.2-5.91 13.2-13.2 0-7.35-5.91-13.2-13.2-13.2m0 7.95c2.92 0 5.3 2.38 5.3 5.3s-2.38 5.3-5.3 5.3-5.3-2.38-5.3-5.3 2.38-5.3 5.3-5.3z" style="fill:#d1d1d1"/>
 <circle cx="16" cy="16" r="13.5" style="fill:#666;stroke:#999"/>
 <circle cx="16" cy="16" r="5.5" style="fill:#666;stroke:#999"/>
 <path d="m30 4.42s1e-3 -0.78-1.74-1.78c-1.68-0.968-2.46-0.542-2.46-0.542l-9.04 15.7 1.23 2.25 2.92 0.151" style="fill:#ff6f03"/>
 <path d="m16.5 20.8-0.225 2.64 2.18-1.52-0.443-1.9z" style="fill:#333"/>
 <path d="m16.8 17.8-0.274 3.02 1.95 1.13 2.47-1.75" style="fill:#ffc13d"/>
</svg>
