<svg width="32" xmlns="http://www.w3.org/2000/svg" height="32" viewBox="0 0 32 32" xmlns:xlink="http://www.w3.org/1999/xlink">
<g style="fill:#aaa">
<path d="M 6.902344 2.667969 C 6.410156 2.71875 5.996094 3.175781 6 3.667969 L 6 28.332031 C 6 28.855469 6.480469 29.332031 7.007812 29.332031 L 24.992188 29.332031 C 25.519531 29.332031 26 28.855469 26 28.332031 L 26 5.332031 L 22 2.667969 L 7.007812 2.667969 C 6.972656 2.667969 6.9375 2.667969 6.902344 2.667969 Z M 8.011719 4.667969 L 20 4.667969 L 20 7.332031 L 24 7.332031 L 23.988281 27.332031 L 8.011719 27.332031 Z "/>
<path d="M 14.792969 10.667969 C 14.339844 10.765625 13.988281 11.207031 14 11.667969 L 14 14.003906 L 11.667969 14.003906 C 11.144531 14.003906 10.667969 14.480469 10.667969 15.003906 L 10.667969 17.003906 C 10.667969 17.527344 11.144531 18.003906 11.667969 18.003906 L 14 18.003906 L 14 20.335938 C 14 20.859375 14.476562 21.335938 15 21.335938 L 17 21.335938 C 17.523438 21.335938 18 20.859375 18 20.335938 L 18 18.003906 L 20.332031 18.003906 C 20.855469 18.003906 21.332031 17.527344 21.332031 17.003906 L 21.332031 15.003906 C 21.332031 14.480469 20.855469 14.003906 20.332031 14.003906 L 18 14.003906 L 18 11.667969 C 18 11.144531 17.523438 10.667969 17 10.667969 L 15 10.667969 C 14.929688 10.664062 14.859375 10.664062 14.792969 10.667969 Z "/>
</g>
</svg>
