<svg width="32" xmlns="http://www.w3.org/2000/svg" height="32" viewBox="0 0 32 32" xmlns:xlink="http://www.w3.org/1999/xlink">
<path style="fill:#aaa;stroke:#aaa;stroke-width:3" d="M 24 6.568359 C 23.953125 6.574219 23.900391 6.585938 23.853516 6.597656 C 23.683594 6.615234 23.519531 6.662109 23.361328 6.738281 C 23.355469 6.75 23.34375 6.761719 23.337891 6.767578 C 22.886719 6.949219 22.617188 7.212891 22.412109 7.458984 C 22.107422 7.816406 21.826172 8.226562 21.544922 8.695312 C 20.976562 9.638672 20.378906 10.833984 19.78125 12.035156 C 19.177734 13.236328 18.585938 14.449219 18.105469 15.375 C 17.859375 15.837891 17.630859 16.230469 17.466797 16.5 C 17.419922 16.582031 17.367188 16.617188 17.326172 16.669922 C 17.255859 16.693359 17.203125 16.710938 17.121094 16.728516 C 16.816406 16.798828 16.371094 16.904297 15.849609 16.986328 C 14.806641 17.15625 13.458984 17.314453 12.123047 17.507812 C 10.78125 17.701172 9.46875 17.923828 8.390625 18.169922 C 7.851562 18.287109 7.376953 18.398438 6.949219 18.568359 C 6.732422 18.65625 6.509766 18.755859 6.28125 18.914062 C 6.052734 19.072266 5.753906 19.294922 5.589844 19.810547 C 5.419922 20.320312 5.525391 20.695312 5.619141 20.958984 C 5.707031 21.222656 5.8125 21.427734 5.935547 21.621094 C 6.181641 22.013672 6.498047 22.388672 6.861328 22.798828 C 7.587891 23.625 8.548828 24.568359 9.521484 25.505859 C 10.488281 26.443359 11.466797 27.357422 12.205078 28.095703 C 12.580078 28.470703 12.896484 28.810547 13.101562 29.044922 C 13.166016 29.115234 13.183594 29.162109 13.21875 29.220703 C 13.224609 29.291016 13.224609 29.337891 13.21875 29.419922 C 13.195312 29.730469 13.154297 30.169922 13.072266 30.685547 C 12.914062 31.722656 12.667969 33.052734 12.439453 34.371094 C 12.210938 35.695312 11.988281 37.019531 11.888672 38.115234 C 11.841797 38.660156 11.800781 39.117188 11.830078 39.580078 C 11.847656 39.814453 11.894531 40.066406 11.976562 40.330078 C 12.058594 40.59375 12.175781 40.939453 12.609375 41.25 C 13.048828 41.566406 13.429688 41.572266 13.710938 41.566406 C 13.986328 41.560547 14.208984 41.537109 14.431641 41.478516 C 14.882812 41.367188 15.339844 41.179688 15.849609 40.962891 C 16.869141 40.529297 18.087891 39.943359 19.289062 39.322266 C 20.490234 38.701172 21.667969 38.039062 22.611328 37.564453 C 23.085938 37.330078 23.507812 37.142578 23.794922 37.019531 C 23.882812 36.984375 23.929688 36.978516 24 36.960938 C 24.070312 36.978516 24.117188 36.984375 24.205078 37.019531 C 24.492188 37.142578 24.914062 37.330078 25.388672 37.564453 C 26.332031 38.039062 27.509766 38.701172 28.710938 39.322266 C 29.912109 39.943359 31.130859 40.529297 32.150391 40.962891 C 32.660156 41.179688 33.117188 41.367188 33.568359 41.478516 C 33.791016 41.537109 34.013672 41.560547 34.289062 41.566406 C 34.570312 41.572266 34.951172 41.566406 35.390625 41.25 C 35.824219 40.939453 35.941406 40.59375 36.023438 40.330078 C 36.105469 40.066406 36.152344 39.814453 36.169922 39.580078 C 36.199219 39.117188 36.158203 38.660156 36.111328 38.115234 C 36.011719 37.019531 35.789062 35.695312 35.560547 34.371094 C 35.332031 33.052734 35.085938 31.722656 34.927734 30.685547 C 34.845703 30.169922 34.804688 29.730469 34.78125 29.419922 C 34.775391 29.337891 34.775391 29.291016 34.78125 29.220703 C 34.816406 29.162109 34.833984 29.115234 34.898438 29.044922 C 35.103516 28.810547 35.419922 28.470703 35.794922 28.095703 C 36.533203 27.357422 37.511719 26.443359 38.478516 25.505859 C 39.451172 24.568359 40.412109 23.625 41.138672 22.798828 C 41.501953 22.388672 41.818359 22.013672 42.064453 21.621094 C 42.1875 21.427734 42.292969 21.222656 42.380859 20.958984 C 42.474609 20.695312 42.580078 20.320312 42.410156 19.810547 C 42.246094 19.294922 41.947266 19.072266 41.71875 18.914062 C 41.490234 18.755859 41.267578 18.65625 41.050781 18.568359 C 40.623047 18.398438 40.148438 18.287109 39.609375 18.169922 C 38.53125 17.923828 37.21875 17.701172 35.876953 17.507812 C 34.541016 17.314453 33.193359 17.15625 32.150391 16.986328 C 31.628906 16.904297 31.183594 16.798828 30.878906 16.728516 C 30.796875 16.710938 30.744141 16.693359 30.673828 16.669922 C 30.632812 16.617188 30.580078 16.582031 30.533203 16.5 C 30.369141 16.230469 30.140625 15.837891 29.894531 15.375 C 29.414062 14.449219 28.822266 13.236328 28.21875 12.035156 C 27.621094 10.833984 27.023438 9.638672 26.455078 8.695312 C 26.173828 8.226562 25.892578 7.816406 25.587891 7.458984 C 25.289062 7.107422 25.072266 6.568359 24 6.568359 Z " transform="scale(.66667)"/>
</svg>
