<svg width="32" xmlns="http://www.w3.org/2000/svg" height="32" viewBox="0 0 32 32" xmlns:xlink="http://www.w3.org/1999/xlink">
<path style="fill:#aaa" d="M 0 1.980469 L 0 27.707031 L 17.8125 27.707031 L 17.8125 17.8125 L 31.667969 17.8125 L 31.667969 5.9375 L 15.832031 5.9375 L 15.832031 1.980469 Z M 19.792969 19.792969 L 19.792969 23.75 L 21.769531 23.75 L 21.769531 19.792969 Z M 23.75 19.792969 L 23.75 23.75 L 29.6875 23.75 L 29.6875 19.792969 Z M 19.792969 25.730469 L 19.792969 27.707031 L 21.769531 27.707031 L 21.769531 25.730469 Z M 23.75 25.730469 L 23.75 27.707031 L 31.667969 27.707031 L 31.667969 25.730469 Z M 19.792969 29.6875 L 19.792969 31.667969 L 21.769531 31.667969 L 21.769531 29.6875 Z M 23.75 29.6875 L 23.75 31.667969 L 31.667969 31.667969 L 31.667969 29.6875 Z "/>
</svg>
