<svg xmlns="http://www.w3.org/2000/svg" viewBox="0 0 32 32">
 <rect height="10" y="19" x="-13" transform="matrix(-1 0 0 1 0 0)" width="10" style="fill:#fff;stroke-miterlimit:23.7;stroke:#888;stroke-linecap:butt;stroke-linejoin:miter;stroke-width:2;stroke-dashoffset:0"/>
 <path d="m 26,6 0,6 -2.293,-2.293 -6,6 L 20,18 l -6,0 0,-6 2.293,2.293 6,-6 L 20,6 26,6" style="fill:#6c71c4"/>
 <path d="M 2,4 6,4 6,2 2,2 Z m 6,0 4,0 0,-2 -4,0 z m 6,0 4,0 0,-2 -4,0 z m 6,0 4,0 0,-2 -4,0 z m 8,2 2,0 0,-4 -4,0 0,2 2,0 z M 2,10 4,10 4,6 2,6 Z m 26,2 2,0 0,-4 -2,0 z m -26,4 2,0 0,-4 -2,0 z m 26,2 2,0 0,-4 -2,0 z m 0,6 2,0 0,-4 -2,0 z m 0,6 2,0 0,-4 -2,0 z m -12,0 4,0 0,-2 -4,0 z m 6,0 4,0 0,-2 -4,0 z" style="fill:#c3c3c3"/>
</svg>
