<?xml version="1.0" encoding="UTF-8" standalone="no"?>
<svg
   xmlns:dc="http://purl.org/dc/elements/1.1/"
   xmlns:cc="http://creativecommons.org/ns#"
   xmlns:rdf="http://www.w3.org/1999/02/22-rdf-syntax-ns#"
   xmlns:svg="http://www.w3.org/2000/svg"
   xmlns="http://www.w3.org/2000/svg"
   xmlns:sodipodi="http://sodipodi.sourceforge.net/DTD/sodipodi-0.dtd"
   xmlns:inkscape="http://www.inkscape.org/namespaces/inkscape"
   width="32"
   height="32"
   viewBox="0 0 32 32"
   id="svg2"
   version="1.1"
   inkscape:version="0.91 r13725"
   sodipodi:docname="window-new.svg">
  <metadata
     id="metadata22">
    <rdf:RDF>
      <cc:Work
         rdf:about="">
        <dc:format>image/svg+xml</dc:format>
        <dc:type
           rdf:resource="http://purl.org/dc/dcmitype/StillImage" />
        <dc:title></dc:title>
      </cc:Work>
    </rdf:RDF>
  </metadata>
  <defs
     id="defs20" />
  <sodipodi:namedview
     pagecolor="#ffffff"
     bordercolor="#666666"
     borderopacity="1"
     objecttolerance="10"
     gridtolerance="10"
     guidetolerance="10"
     inkscape:pageopacity="0"
     inkscape:pageshadow="2"
     inkscape:window-width="1366"
     inkscape:window-height="704"
     id="namedview18"
     showgrid="true"
     inkscape:zoom="11.91033"
     inkscape:cx="6.170494"
     inkscape:cy="13.42398"
     inkscape:window-x="0"
     inkscape:window-y="27"
     inkscape:window-maximized="1"
     inkscape:current-layer="svg2">
    <inkscape:grid
       type="xygrid"
       id="grid4219" />
  </sodipodi:namedview>
  <rect
     style="opacity:1;fill:#ffffff;fill-opacity:1;stroke:none;stroke-width:2;stroke-linecap:butt;stroke-linejoin:miter;stroke-miterlimit:4;stroke-dasharray:none;stroke-opacity:1"
     id="rect4135"
     width="30"
     height="25"
     x="1"
     y="4" />
  <path
     sodipodi:nodetypes="ccsssssscccccc"
     inkscape:connector-curvature="0"
     id="path4-4"
     d="M 1.0742411,2.000021 C 0.48830373,2.058561 -0.0038829,2.6079365 2.3090019e-5,3.1972861 l 0,25.6054489 C 2.3090019e-5,29.431114 0.57033467,30 1.199241,30 l 29.601542,0 C 31.429688,30 32,29.431114 32,28.802735 L 32,3.1972861 C 32,2.5689066 31.429688,2.000021 30.800783,2.000021 Z m 0.9257804,3.999997 27.9999805,0 0,21.964828 -27.9999805,0 z"
     style="fill:#888888;fill-opacity:1" />
  <path
     inkscape:connector-curvature="0"
     style="fill:#859900"
     d="m 32,20 -6,0 0,-6 -6,0 0,6 -6,0 0,6 6,0 0,6 6,0 0,-6 6,0 z"
     id="path16" />
</svg>
