<?xml version="1.0" encoding="UTF-8" standalone="no"?>
<svg
   xmlns:dc="http://purl.org/dc/elements/1.1/"
   xmlns:cc="http://creativecommons.org/ns#"
   xmlns:rdf="http://www.w3.org/1999/02/22-rdf-syntax-ns#"
   xmlns:svg="http://www.w3.org/2000/svg"
   xmlns="http://www.w3.org/2000/svg"
   xmlns:sodipodi="http://sodipodi.sourceforge.net/DTD/sodipodi-0.dtd"
   xmlns:inkscape="http://www.inkscape.org/namespaces/inkscape"
   width="32"
   height="32"
   viewBox="0 0 32 32"
   id="svg2"
   version="1.1"
   inkscape:version="0.91 r"
   sodipodi:docname="wrapped.svg">
  <metadata
     id="metadata12">
    <rdf:RDF>
      <cc:Work
         rdf:about="">
        <dc:format>image/svg+xml</dc:format>
        <dc:type
           rdf:resource="http://purl.org/dc/dcmitype/StillImage" />
      </cc:Work>
    </rdf:RDF>
  </metadata>
  <defs
     id="defs10" />
  <sodipodi:namedview
     pagecolor="#ffffff"
     bordercolor="#666666"
     borderopacity="1"
     objecttolerance="10"
     gridtolerance="10"
     guidetolerance="10"
     inkscape:pageopacity="0"
     inkscape:pageshadow="2"
     inkscape:window-width="1920"
     inkscape:window-height="1056"
     id="namedview8"
     showgrid="true"
     inkscape:zoom="14.75"
     inkscape:cx="27.375383"
     inkscape:cy="19.894751"
     inkscape:window-x="0"
     inkscape:window-y="24"
     inkscape:window-maximized="1"
     inkscape:current-layer="svg2">
    <inkscape:grid
       type="xygrid"
       id="grid4140" />
  </sodipodi:namedview>
  <g
     id="g4"
     transform="matrix(0,1,-1,0,32.000178,0)">
    <path
       d="m 6,6 20,0 c 6,0 6,0 6,6 l 0,8 c 0,6 0,6 -6,6 -2.25,0 -2.875,-0.01953 -5.125,-0.01953 0.75,0.644531 1.449219,1.589843 1.058594,2.628906 -0.417969,1.511719 -2.59375,1.886719 -3.53125,0.648437 C 16.660156,27.503906 15.695312,25.78125 14,23.980469 c 1.796875,-1.898438 2.855469,-3.726563 4.707031,-5.574219 1.21875,-1.125 3.46875,-0.113281 3.375,1.558594 0.03906,0.871094 -0.640625,1.464844 -1.207031,2.015625 2.511719,-0.02344 2.617188,0.109375 5.125,0.01953 2,0 2,0 2,-2 l 0,-8 c 0,-2 0,-2 -2,-2 -4.582031,0 -20,0 -20,0 -2,0 -2,0 -2,2 l 0,8 c 0,2 0,2 2,2 l 2,0 c 2,0 2,0 2,2 0,2 0,2 -2,2 L 6,26 C 0,26 0,26 0,20 L 0,12 C 0,6 0,6 6,6 Z"
       id="path6"
       inkscape:connector-curvature="0"
       style="fill:#268bd1" />
  </g>
</svg>
