<svg width="48" xmlns="http://www.w3.org/2000/svg" viewBox="0 0 48 48" height="48" xmlns:xlink="http://www.w3.org/1999/xlink">
<defs>
<linearGradient id="linearGradient3783">
<stop offset="0" style="stop-color:#204a87"/>
<stop offset="1" style="stop-color:#5d718e"/>
</linearGradient>
<linearGradient xlink:href="#linearGradient3783" id="linearGradient3789" y1="-1052.24" y2="-1004.321" x2="0" gradientUnits="userSpaceOnUse"/>
</defs>
<g transform="translate(0 -1004.3622)">
<rect width="48" x="0" y="-1052.362" rx="1.945" height="48" style="fill:url(#linearGradient3789)" transform="scale(1 -1)"/>
</g>
<path style="fill:#fff" d="m 8.1140574,17.784543 c 3.4786196,-3.121221 6.5841096,-8.5606157 10.1893696,-7.430941 5.97465,1.546378 3.39329,12.975731 6.78836,18.319189 4.64989,-2.622257 7.66697,-8.138419 6.41362,-11.000839 -0.28028,-0.799932 0.0609,-2.794847 -3.7566,-1.05202 -0.99086,0.452368 -0.95034,-1.300341 -0.77597,-1.537551 3.53435,-3.883799 5.57539,-5.5037577 7.99388,-5.4043207 2.03384,0.3397727 5.61064,2.6251917 4.95395,8.1064807 -1.36122,8.155978 -13.33626,20.963298 -17.33883,20.491376 -4.58239,1.010888 -6.91205,-13.465805 -10.35825,-20.266195 l -3.1536196,1.220243 c -1.29949,0.204795 -1.12017,-0.625584 -0.95591,-1.445422 z"/>
<g transform="translate(0 -1004.3622)">
<path style="opacity:.15;fill:#fff" d="m 2,1004.3622 c -1.108,0 -2,0.892 -2,2 l 0,44 c 0,1.108 0.892,2 2,2 l 14.78125,0 12.84375,-48 -27.625,0 z"/>
</g>
</svg>
