<svg xmlns="http://www.w3.org/2000/svg" viewBox="0 0 256 256" xmlns:xlink="http://www.w3.org/1999/xlink">
<g style="fill:#ff1890">
<g transform="translate(0 208)">
<path d="m 122.65501,-44.957413 c 0,8.260915 -6.4832,14.957413 -14.48104,14.957413 -7.99746,0 -14.48105,-6.696868 -14.48105,-14.957413 0,-8.260916 6.4832,-14.957413 14.48105,-14.957413 7.99746,0 14.48104,6.696868 14.48104,14.957413 z"/>
<path d="m 159.69292,-45.153847 c 0,8.151211 -6.67034,14.758758 -14.89861,14.758758 -8.22825,0 -14.89859,-6.607917 -14.89859,-14.758758 0,-8.151209 6.67034,-14.758755 14.89859,-14.758755 8.22827,0 14.89861,6.607918 14.89861,14.758755 z"/>
</g>
<g transform="matrix(.38898 0 0 .38787 28 78)">
<path d="m 20.591,73.837 -20.591,0 0,-25.351 21.173,0 0,-6.436 C 21.173,10.865 35.353,0 63.324,0 70.9,0 76.727,1.207 81.194,2.013 L 79.058,26.96 c -2.913,-1.006 -5.827,-1.61 -11.071,-1.61 -8.935,0 -12.432,6.438 -12.432,16.7 l 0,6.437 24.863,0 0,25.351 -24.863,0 0,79.467 -34.964,0 0,-79.468 z"/>
<rect width="34.964" x="98.675" y="2.415" height="150.889"/>
<rect width="34.965" x="163.552" y="4.829" height="26.557"/>
<rect width="34.965" x="163.552" y="48.486" height="104.817"/>
<path d="m 303.604,78.462 c -6.41,-4.021 -12.82,-5.833 -21.173,-5.833 -15.151,0 -26.806,10.864 -26.806,28.972 0,16.699 13.598,27.561 28.749,27.561 7.965,0 15.93,-1.809 21.756,-5.029 l 0.777,26.959 c -8.742,3.02 -19.23,4.629 -28.554,4.629 -33.412,0 -58.857,-20.119 -58.857,-54.723 0,-34.806 25.445,-54.924 58.857,-54.924 10.49,0 19.812,1.811 27.777,5.834 l -2.526,26.554 z"/>
<polygon points="356.44,101.399 356.44,153.304 321.477,153.304 321.477,2.415 321.477,2.415 356.44,2.415 356.44,92.548 356.829,92.548 385.965,48.486 424.231,48.486 389.073,96.569 427.145,153.304 384.799,153.304 356.829,101.399 "/>
<path d="m 512.417,77.456 c -3.885,-1.205 -7.771,-1.205 -11.848,-1.205 -16.316,0 -25.447,12.271 -25.447,32.793 l 0,44.26 -34.963,0 0,-104.818 31.855,0 0,19.314 0.389,0 c 6.02,-13.279 14.762,-21.728 29.914,-21.728 4.076,0 8.35,0.603 11.85,1.206 l -1.75,30.178 z"/>
</g>
</g>
</svg>
