<svg xmlns="http://www.w3.org/2000/svg" viewBox="0 0 48 48" xmlns:xlink="http://www.w3.org/1999/xlink">
<defs>
<linearGradient id="linearGradient3795">
<stop offset="0"/>
<stop offset="1" style="stop-color:#6d6d6d"/>
</linearGradient>
<linearGradient gradientTransform="scale(.09402 1)" xlink:href="#linearGradient3795" id="linearGradient3056" y1="1058.292" y2="988.181" gradientUnits="userSpaceOnUse" x2="0"/>
<linearGradient gradientTransform="matrix(.92448 0 0 1 3.625 0)" xlink:href="#linearGradient3795" id="linearGradient3787" y1="1053.158" y2="1004.847" gradientUnits="userSpaceOnUse" x2="0"/>
<linearGradient id="linearGradient3803-0">
<stop offset="0" style="stop-color:#fff"/>
<stop offset="1" style="stop-color:#fff;stop-opacity:0"/>
</linearGradient>
<linearGradient gradientTransform="matrix(.6334 0 0 .65541 10.29755 346.98877)" id="linearGradient3028-0" xlink:href="#linearGradient3803-5" y1="1015.994" y2="1041.86" x2="0" gradientUnits="userSpaceOnUse"/>
<linearGradient id="linearGradient3803-5">
<stop offset="0" style="stop-color:#fff"/>
<stop offset="1" style="stop-color:#fff;stop-opacity:0"/>
</linearGradient>
<linearGradient gradientTransform="matrix(.6334 0 0 -.65541 10.29901 1710.9862)" id="linearGradient3135" xlink:href="#linearGradient3803-0" y1="1015.994" y2="1041.86" x2="0" gradientUnits="userSpaceOnUse"/>
</defs>
<g transform="translate(0 -1004.3622)">
<path style="fill:url(#linearGradient3787)" d="m 4.444544,1004.3622 41.610912,0 c 1.077278,0 1.944544,0.8672 1.944544,1.9445 l 0,44.1109 c 0,1.0773 -0.867266,1.9446 -1.944544,1.9446 l -41.548412,0 c -1.0772772,0 -0.8820436,-0.8673 -0.8820436,-1.9446 l 0,-44.1109 c 0,-1.0773 -0.2577336,-1.9445 0.8195436,-1.9445 z"/>
<path style="fill:url(#linearGradient3056)" d="m 2.2564666,1004.3622 c 2.2002572,0 2.2564667,-0.1868 2.2564667,1.0632 l 0,46.0945 c 0,1.2501 -0.078307,0.8423 -2.2564667,0.8423 C 1.0063841,1052.3622 0,1051.3558 0,1050.1057 l 0,-43.4871 c 0,-1.25 1.0063841,-2.2564 2.2564666,-2.2564 z"/>
<path style="opacity:.15;fill:#fff" d="M 0 0 L 0 48 L 16.78125 48 L 29.625 0 L 0 0 z " transform="translate(0 1004.3622)"/>
<path style="fill:url(#linearGradient3135)" d="m 19.834226,1036.1568 3.224023,0 0,-7.1722 4.617086,0 0,7.1722 3.491891,0 -5.750643,8.8278 z"/>
<path style="fill:url(#linearGradient3028-0)" d="m 19.832772,1021.8176 3.224023,0 0,7.1722 4.617086,0 0,-7.1722 3.491891,0 -5.750643,-8.8278 z"/>
</g>
</svg>
