<svg xmlns="http://www.w3.org/2000/svg" viewBox="0 0 48 48" xmlns:xlink="http://www.w3.org/1999/xlink">
<g transform="translate(0 -1004.3622)">
<path style="fill:#a9b985" d="M 34 8 C 30.686292 8 28 10.686292 28 14 C 28 14.251327 28.032493 14.50679 28.0625 14.75 L 18.1875 19.6875 C 17.107029 18.638098 15.625179 18 14 18 C 10.686292 18 8 20.686292 8 24 C 8 27.313708 10.686292 30 14 30 C 15.625179 30 17.107029 29.361902 18.1875 28.3125 L 28.0625 33.25 C 28.032493 33.49321 28 33.748673 28 34 C 28 37.313708 30.686292 40 34 40 C 37.313708 40 40 37.313708 40 34 C 40 30.686292 37.313708 28 34 28 C 32.383349 28 30.922656 28.647821 29.84375 29.6875 L 19.9375 24.75 C 19.967507 24.50679 20 24.251327 20 24 C 20 23.748673 19.967507 23.49321 19.9375 23.25 L 29.84375 18.3125 C 30.922656 19.352179 32.383349 20 34 20 C 37.313708 20 40 17.313708 40 14 C 40 10.686292 37.313708 8 34 8 z " transform="translate(0 1004.3622)"/>
</g>
</svg>
