<svg xmlns="http://www.w3.org/2000/svg" viewBox="0 0 48 48" xmlns:xlink="http://www.w3.org/1999/xlink">
<defs>
<linearGradient id="linearGradient3963">
<stop offset="0" style="stop-color:#888a85"/>
<stop offset="1" style="stop-color:#a7a9a3"/>
</linearGradient>
<linearGradient xlink:href="#linearGradient3963" id="linearGradient3969" y1="1052.362" y2="1003.362" x2="0" gradientUnits="userSpaceOnUse"/>
</defs>
<g transform="translate(0 -1004.3622)">
<rect width="48" x="0" y="1004.348" height="48" style="fill:none"/>
<rect width="48" x="0" y="1004.362" rx="1.945" height="48" style="fill:url(#linearGradient3969)"/>
</g>
<g style="fill:#fff" transform="translate(0 -1004.3622)">
<path style="opacity:.15" d="m 2.4738922e-8,1004.3622 0,48 16.781249975261079,0 12.84375,-48 -29.624999975261076,0 z"/>
<path style="line-height:normal;color:#000" d="m 23.557632,1012.3631 c -8.344953,0 -14.2668313,6.8056 -14.2668313,15.1505 0,6.5142 3.2698023,12.0705 9.0588523,14.2036 l 0.662834,-3.7876 c -4.018516,-1.7471 -6.545827,-5.7379 -6.545827,-10.416 0,-6.2981 4.793004,-10.3148 11.090972,-10.3148 6.161309,0 9.090298,4.2545 8.696014,9.5477 -0.07822,1.3259 -0.666126,2.6873 -1.416812,3.4404 -0.817389,0.8199 -1.40086,1.3963 -2.577924,1.7755 -2.110903,0.6799 -1.840964,0.6394 -2.262994,0.6409 l -2.556646,-3.0774 c -0.362134,-0.4372 -1.211876,-0.2249 -1.325668,0.3314 l -2.390936,13.6292 c -0.06745,0.4263 0.302426,0.8677 0.733852,0.876 l 13.659115,-0.042 c 0.584075,0.016 0.975368,-0.814 0.591817,-1.2547 l -2.248901,-2.6989 c 0.697393,-0.4217 1.642866,-1.0928 2.746027,-2.4383 1.680991,-2.0501 3.325864,-5.3864 3.479877,-10.416 l 0.02368,0 c 0,-0.1102 0.0022,-0.2214 0,-0.3315 0.0024,-0.1437 0,-0.2799 0,-0.426 -5e-6,-0.04 -0.01638,-0.078 -0.02368,-0.1183 -0.455223,-7.9413 -7.075115,-14.2749 -15.126821,-14.2749 z"/>
</g>
</svg>
