<svg xmlns="http://www.w3.org/2000/svg" viewBox="0 0 48 48" xmlns:xlink="http://www.w3.org/1999/xlink">
<g transform="translate(0 -1004.3622)">
<path style="fill:#808080;line-height:normal;color:#000" d="m 29.333333,1015.9178 3.555556,0 c 5.333333,0 5.111111,5.4444 5.111111,5.4444 l 0,5 c 0,1.7778 -3,5 -3,5 l 0,2 5,3.8889 0,4.1111 -10,0 -10,0 0.444444,-4.1111 6.555556,-3.8889 0,-2 c 0,0 -3.011716,-3.0554 -3,-4.8332 l 0,-5.2779 c 0,0 -1.8e-5,-5.3333 5.333333,-5.3333 z m -12.444444,3.423 4.130079,0 0,7.1882 c 0,2.8332 2.953304,5.8332 2.953304,5.8332 l -6.9508,2.9786 -0.02147,4.0214 -9,0 0,-2 6.999998,-4 0,-2 c 0,0 -3.011716,-2.2224 -2.999998,-4 l 0,-3 c 0,-5.3334 4.888873,-5.021 4.888889,-5.021 z"/>
</g>
</svg>
