<?xml version="1.0" encoding="UTF-8" standalone="no"?>
<svg
   xmlns:dc="http://purl.org/dc/elements/1.1/"
   xmlns:cc="http://creativecommons.org/ns#"
   xmlns:rdf="http://www.w3.org/1999/02/22-rdf-syntax-ns#"
   xmlns:svg="http://www.w3.org/2000/svg"
   xmlns="http://www.w3.org/2000/svg"
   xmlns:sodipodi="http://sodipodi.sourceforge.net/DTD/sodipodi-0.dtd"
   xmlns:inkscape="http://www.inkscape.org/namespaces/inkscape"
   width="48"
   viewBox="0 0 48 48"
   height="48"
   id="svg2"
   version="1.1"
   inkscape:version="0.91 r13725"
   sodipodi:docname="emblem-pictures.svg">
  <metadata
     id="metadata16">
    <rdf:RDF>
      <cc:Work
         rdf:about="">
        <dc:format>image/svg+xml</dc:format>
        <dc:type
           rdf:resource="http://purl.org/dc/dcmitype/StillImage" />
      </cc:Work>
    </rdf:RDF>
  </metadata>
  <defs
     id="defs14" />
  <sodipodi:namedview
     pagecolor="#ffffff"
     bordercolor="#666666"
     borderopacity="1"
     objecttolerance="10"
     gridtolerance="10"
     guidetolerance="10"
     inkscape:pageopacity="0"
     inkscape:pageshadow="2"
     inkscape:window-width="1366"
     inkscape:window-height="704"
     id="namedview12"
     showgrid="false"
     inkscape:object-nodes="true"
     inkscape:zoom="5.1279297"
     inkscape:cx="25.535833"
     inkscape:cy="16.199581"
     inkscape:window-x="0"
     inkscape:window-y="27"
     inkscape:window-maximized="1"
     inkscape:current-layer="svg2">
    <inkscape:grid
       type="xygrid"
       id="grid4144" />
  </sodipodi:namedview>
  <g
     style="stroke:#777"
     id="g4">
    <path
       style="fill:#fff;stroke-width:.5"
       d="m 25.932203,35.18644 a 12.254237,12.508474 0 1 1 -24.5084741,0 12.254237,12.508474 0 1 1 24.5084741,0 z"
       transform="matrix(1.59979 0 0 1.56727 2.11819 -31.14659)"
       id="path6" />
  </g>
  <g
     style="fill:#427fed;fill-opacity:.941"
     transform="matrix(1.5 0 0 1.49999 11.98514 -1542.5323)"
     id="g8">
    <path
       style="color:#000000;line-height:normal"
       d="m 1.0507713,1036.3621 c -0.56357725,0.054 -1.050756761867,0.6481 -1.04070928,1.2813 l 0,13.4687 c 0.006172,0.663 0.54037835,1.2595 1.13253658,1.25 l 13.7652824,0 c 0.582865,-0.01 1.09583,-0.5974 1.101928,-1.25 l 0,-13.4687 c 0.0084,-0.663 -0.509756,-1.2744 -1.101928,-1.2813 l -13.7652824,0 z m 0.9591354,1.9997 12.0000003,0 0,10.0001 -12.0000003,0 z"
       id="path10"
       inkscape:connector-curvature="0"
       sodipodi:nodetypes="ccccccccccccccc" />
  </g>
</svg>
