<svg width="64" xmlns="http://www.w3.org/2000/svg" height="64" viewBox="0 0 64 64" xmlns:xlink="http://www.w3.org/1999/xlink">
<g style="fill:#aaa">
<path d="M 32 5.332031 C 17.304688 5.332031 5.332031 17.304688 5.332031 32 C 5.332031 46.695312 17.304688 58.667969 32 58.667969 C 46.695312 58.667969 58.667969 46.695312 58.667969 32 C 58.667969 17.304688 46.695312 5.332031 32 5.332031 Z M 32 10.667969 L 32 21.875 C 37.585938 21.875 42.125 26.414062 42.125 32 C 42.125 37.585938 37.585938 42.125 32 42.125 C 30.875 42.125 29.800781 41.925781 28.792969 41.582031 L 25.25 52.207031 C 18.8125 50.0625 13.71875 44.941406 11.667969 38.457031 C 11.019531 36.414062 10.667969 34.261719 10.667969 32 C 10.667969 20.1875 20.1875 10.667969 32 10.667969 Z M 11.667969 38.457031 L 22.332031 35.082031 C 22.328125 35.070312 22.335938 35.054688 22.332031 35.042969 Z "/>
<path d="M 32 23.980469 C 27.589844 23.980469 23.980469 27.589844 23.980469 32 C 23.980469 36.410156 27.589844 40.019531 32 40.019531 C 36.410156 40.019531 40.019531 36.410156 40.019531 32 C 40.019531 27.589844 36.410156 23.980469 32 23.980469 Z M 32 25.355469 C 35.691406 25.355469 38.644531 28.308594 38.644531 32 C 38.644531 35.691406 35.691406 38.644531 32 38.644531 C 28.308594 38.644531 25.355469 35.691406 25.355469 32 C 25.355469 28.308594 28.308594 25.355469 32 25.355469 Z "/>
<path d="M 32 26.675781 C 29.070312 26.675781 26.675781 29.070312 26.675781 32 C 26.675781 34.929688 29.070312 37.324219 32 37.324219 C 34.929688 37.324219 37.324219 34.929688 37.324219 32 C 37.324219 29.070312 34.929688 26.675781 32 26.675781 Z M 32 29.324219 C 33.488281 29.324219 34.675781 30.511719 34.675781 32 C 34.675781 33.488281 33.488281 34.675781 32 34.675781 C 30.511719 34.675781 29.324219 33.488281 29.324219 32 C 29.324219 30.511719 30.511719 29.324219 32 29.324219 Z "/>
</g>
</svg>
