<svg width="64" xmlns="http://www.w3.org/2000/svg" height="64" viewBox="0 0 64 64" xmlns:xlink="http://www.w3.org/1999/xlink">
<g style="fill:#aaa">
<path d="M 32.007812 5.335938 C 17.308594 5.335938 5.351562 17.296875 5.351562 31.992188 C 5.351562 46.6875 17.308594 58.648438 32.007812 58.648438 C 46.703125 58.648438 58.664062 46.6875 58.664062 31.992188 C 58.664062 17.296875 46.703125 5.335938 32.007812 5.335938 Z M 32.007812 10.667969 C 43.820312 10.667969 53.332031 20.179688 53.332031 31.992188 C 53.332031 43.808594 43.820312 53.316406 32.007812 53.316406 C 20.191406 53.316406 10.679688 43.808594 10.679688 31.992188 C 10.679688 20.179688 20.191406 10.667969 32.007812 10.667969 Z "/>
<path d="M 32 23.980469 C 27.589844 23.980469 23.980469 27.589844 23.980469 32 C 23.980469 36.410156 27.589844 40.019531 32 40.019531 C 36.410156 40.019531 40.019531 36.410156 40.019531 32 C 40.019531 27.589844 36.410156 23.980469 32 23.980469 Z M 32 25.355469 C 35.691406 25.355469 38.644531 28.308594 38.644531 32 C 38.644531 35.691406 35.691406 38.644531 32 38.644531 C 28.308594 38.644531 25.355469 35.691406 25.355469 32 C 25.355469 28.308594 28.308594 25.355469 32 25.355469 Z "/>
<path d="M 32 26.675781 C 29.070312 26.675781 26.675781 29.070312 26.675781 32 C 26.675781 34.929688 29.070312 37.324219 32 37.324219 C 34.929688 37.324219 37.324219 34.929688 37.324219 32 C 37.324219 29.070312 34.929688 26.675781 32 26.675781 Z M 32 29.324219 C 33.488281 29.324219 34.675781 30.511719 34.675781 32 C 34.675781 33.488281 33.488281 34.675781 32 34.675781 C 30.511719 34.675781 29.324219 33.488281 29.324219 32 C 29.324219 30.511719 30.511719 29.324219 32 29.324219 Z "/>
</g>
</svg>
