<svg width="64" xmlns="http://www.w3.org/2000/svg" height="64" viewBox="0 0 64 64" xmlns:xlink="http://www.w3.org/1999/xlink">
<path style="fill:#ffffff;fill-rule:evenodd" d="M 14.855469 0 L 49.144531 0 C 56 0 56 0 56 7.109375 L 56 56.890625 C 56 64 56 64 49.144531 64 L 14.855469 64 C 8 64 8 64 8 56.890625 L 8 7.109375 C 8 0 8 0 14.855469 0 Z "/>
<path style="fill:#89bf4f" d="M 64 37.332031 L 50.667969 37.332031 L 50.667969 24 L 37.332031 24 L 37.332031 37.332031 L 24 37.332031 L 24 50.667969 L 37.332031 50.667969 L 37.332031 64 L 50.667969 64 L 50.667969 50.667969 L 64 50.667969 Z "/>
</svg>
