<svg width="64" xmlns="http://www.w3.org/2000/svg" height="64" viewBox="0 0 64 64" xmlns:xlink="http://www.w3.org/1999/xlink">
<g style="fill:#aaa">
<path d="M 40.167969 50.667969 L 23.832031 50.667969 C 25.792969 53.089844 28.660156 54.75 32 54.75 C 35.339844 54.75 38.207031 53.089844 40.167969 50.667969 Z "/>
<path d="M 23.917969 37.332031 L 40.082031 37.332031 C 38.121094 34.992188 35.273438 33.417969 32 33.417969 C 28.726562 33.417969 25.878906 34.992188 23.917969 37.332031 Z "/>
<path d="M 49.292969 50.667969 L 45.292969 50.667969 L 45.292969 57.292969 L 18.707031 57.292969 L 18.707031 50.667969 L 14.707031 50.667969 L 14.707031 59.292969 C 14.707031 60.339844 15.660156 61.292969 16.707031 61.292969 L 47.292969 61.292969 C 48.339844 61.292969 49.292969 60.339844 49.292969 59.292969 Z "/>
<path d="M 25.75 2.582031 C 24.773438 2.6875 23.953125 3.601562 23.957031 4.582031 L 23.957031 14.375 L 19.917969 14.375 C 18.398438 14.363281 17.394531 16.507812 18.375 17.667969 L 22.042969 22 L 16.707031 22 C 16.640625 21.996094 16.570312 21.996094 16.5 22 C 15.523438 22.101562 14.703125 23.019531 14.707031 24 L 14.707031 37.332031 L 6.667969 37.332031 C 6.625 37.332031 6.582031 37.332031 6.542969 37.332031 C 5.855469 37.398438 5.332031 37.976562 5.332031 38.667969 L 5.332031 49.332031 C 5.332031 50.070312 5.929688 50.667969 6.667969 50.667969 L 57.332031 50.667969 C 58.070312 50.667969 58.667969 50.070312 58.667969 49.332031 L 58.667969 38.667969 C 58.667969 37.929688 58.070312 37.332031 57.332031 37.332031 L 49.292969 37.332031 L 49.292969 24 C 49.292969 22.953125 48.339844 22 47.292969 22 L 41.957031 22 L 45.625 17.667969 C 46.605469 16.507812 45.601562 14.363281 44.082031 14.375 L 40.042969 14.375 L 40.042969 4.582031 C 40.042969 3.535156 39.089844 2.582031 38.042969 2.582031 L 25.957031 2.582031 C 25.890625 2.578125 25.820312 2.578125 25.75 2.582031 Z M 18.707031 26 L 25.417969 26 L 30.5 32 C 31.25 32.875 32.792969 32.875 33.542969 32 L 38.582031 26 L 45.292969 26 L 45.292969 37.332031 L 18.707031 37.332031 Z M 8 40 L 56 40 L 56 48 L 8 48 Z "/>
</g>
<path style="fill:none;stroke:#aaa" d="M 20.000977 30 L 20.000977 36 " transform="scale(1.33333)"/>
<g style="fill:#aaa;fill-opacity:.302">
<path d="M 9.332031 41.332031 L 12 41.332031 L 12 46.667969 L 9.332031 46.667969 Z "/>
<path d="M 13.332031 42.667969 L 16 42.667969 L 16 46.667969 L 13.332031 46.667969 Z "/>
<path d="M 17.332031 42.667969 L 21.332031 42.667969 L 21.332031 46.667969 L 17.332031 46.667969 Z "/>
<path d="M 22.667969 41.332031 L 24 41.332031 L 24 46.667969 L 22.667969 46.667969 Z "/>
</g>
</svg>
