<svg width="64" xmlns="http://www.w3.org/2000/svg" height="64" viewBox="0 0 64 64" xmlns:xlink="http://www.w3.org/1999/xlink">
<g style="fill:#aaa">
<path d="M 13.792969 5.332031 C 12.808594 5.4375 11.996094 6.351562 12 7.332031 L 12 56.667969 C 12 57.714844 12.945312 58.667969 14 58.667969 L 50 58.667969 C 51.054688 58.667969 52 57.714844 52 56.667969 L 52 43.625 L 47.957031 47.625 L 47.957031 54.667969 L 16.042969 54.667969 L 16.042969 9.332031 L 40 9.332031 L 40 14.667969 L 48 14.667969 L 48 21.75 L 52 25.707031 L 52 10.707031 C 50.667969 9.351562 45.273438 6.664062 44 5.332031 L 14 5.332031 C 13.929688 5.328125 13.863281 5.328125 13.792969 5.332031 Z M 48 25.457031 L 47.957031 33 L 48.667969 33.707031 L 49.625 34.667969 L 48.667969 35.582031 L 47.957031 36.292969 L 47.957031 43.875 L 52 39.832031 L 52 29.457031 Z "/>
<path d="M 40.136719 17.285156 C 41.175781 17.316406 42.164062 17.75 42.886719 18.496094 L 56.222656 31.828125 C 56.972656 32.578125 57.398438 33.597656 57.398438 34.660156 C 57.398438 35.722656 56.972656 36.742188 56.222656 37.496094 L 42.886719 50.828125 C 41.324219 52.390625 38.785156 52.390625 37.222656 50.828125 C 35.65625 49.261719 35.65625 46.726562 37.222656 45.160156 L 47.722656 34.660156 L 37.222656 24.160156 C 36.03125 23.011719 35.671875 21.246094 36.316406 19.722656 C 36.964844 18.199219 38.484375 17.230469 40.136719 17.285156 Z "/>
</g>
</svg>
