<svg width="64" xmlns="http://www.w3.org/2000/svg" height="64" viewBox="0 0 64 64" xmlns:xlink="http://www.w3.org/1999/xlink">
<path style="fill:#aaa" d="M 12.496094 5.335938 C 11.515625 5.4375 10.660156 6.355469 10.667969 7.332031 L 10.667969 56.613281 C 10.667969 57.660156 11.613281 58.609375 12.664062 58.609375 L 34.140625 58.609375 C 34.496094 58.683594 34.867188 58.683594 35.222656 58.609375 L 51.289062 58.609375 C 52.339844 58.609375 53.285156 57.660156 53.285156 56.613281 L 53.285156 40.464844 C 53.347656 40.136719 53.347656 39.792969 53.285156 39.464844 L 53.285156 10.664062 C 51.953125 9.308594 49.0625 6.664062 47.792969 5.335938 L 12.664062 5.335938 C 12.59375 5.332031 12.566406 5.332031 12.496094 5.335938 Z M 14.667969 9.332031 L 41.332031 9.332031 L 41.332031 14.667969 L 49.332031 14.667969 L 49.332031 37.332031 L 34.640625 37.300781 C 34.558594 37.296875 34.472656 37.296875 34.390625 37.300781 C 33.082031 37.425781 31.972656 38.648438 31.976562 39.964844 L 32 54.667969 L 14.667969 54.667969 Z M 34.640625 39.964844 L 48 40 L 34.667969 53.332031 Z "/>
</svg>
