<?xml version="1.0" encoding="UTF-8" standalone="no"?>
<svg
   xmlns:dc="http://purl.org/dc/elements/1.1/"
   xmlns:cc="http://creativecommons.org/ns#"
   xmlns:rdf="http://www.w3.org/1999/02/22-rdf-syntax-ns#"
   xmlns:svg="http://www.w3.org/2000/svg"
   xmlns="http://www.w3.org/2000/svg"
   xmlns:sodipodi="http://sodipodi.sourceforge.net/DTD/sodipodi-0.dtd"
   xmlns:inkscape="http://www.inkscape.org/namespaces/inkscape"
   width="64"
   height="64"
   viewBox="0 0 64 64"
   id="svg2"
   version="1.1"
   inkscape:version="0.91 r13725"
   sodipodi:docname="geany-save-all.svg">
  <metadata
     id="metadata16">
    <rdf:RDF>
      <cc:Work
         rdf:about="">
        <dc:format>image/svg+xml</dc:format>
        <dc:type
           rdf:resource="http://purl.org/dc/dcmitype/StillImage" />
        <dc:title />
      </cc:Work>
    </rdf:RDF>
  </metadata>
  <defs
     id="defs14" />
  <sodipodi:namedview
     pagecolor="#ffffff"
     bordercolor="#666666"
     borderopacity="1"
     objecttolerance="10"
     gridtolerance="10"
     guidetolerance="10"
     inkscape:pageopacity="0"
     inkscape:pageshadow="2"
     inkscape:window-width="1366"
     inkscape:window-height="704"
     id="namedview12"
     showgrid="true"
     inkscape:zoom="15.527832"
     inkscape:cx="27.678767"
     inkscape:cy="46.623271"
     inkscape:window-x="0"
     inkscape:window-y="27"
     inkscape:window-maximized="1"
     inkscape:current-layer="svg2">
    <inkscape:grid
       type="xygrid"
       id="grid4138" />
  </sodipodi:namedview>
  <path
     inkscape:connector-curvature="0"
     style="fill:#268bd2;fill-rule:evenodd"
     d="M 16.445312,0 47.554688,0 C 56.890625,0 60,3.199219 60,12.800781 l 0,38.398438 C 60,60.800781 56.890625,64 47.554688,64 L 16.445312,64 C 7.109375,64 4,60.800781 4,51.199219 L 4,12.800781 C 4,3.199219 7.109375,0 16.445312,0 Z"
     id="path4139" />
  <path
     id="path4143"
     d="M 16.445312,0 47.554688,0 C 56.890625,0 60,3.199219 60,12.800781 l 0,25.597657 C 60,48 56.890625,51 47.554688,51 L 16.445312,51 C 7.109375,51 4,48 4,38.398438 L 4,12.800781 C 4,3.199219 7.109375,0 16.445312,0 Z"
     style="fill:#ffffff;fill-opacity:0.30199998;fill-rule:evenodd"
     inkscape:connector-curvature="0"
     sodipodi:nodetypes="sssssssss" />
  <path
     inkscape:connector-curvature="0"
     id="path10"
     d="M 32,31.999778 21,45 10,31.999778 l 6,0 L 16,20 l 10,0 0,11.999778 z"
     style="fill:#ffffff;fill-opacity:0.9020004"
     sodipodi:nodetypes="cccccccc" />
  <path
     inkscape:connector-curvature="0"
     id="path10-3"
     d="M 54,18.000694 43,31 32,18.000694 l 6,0 0,-11.9997782 10,0 0,11.9997782 z"
     style="fill:#ffffff;fill-opacity:0.9020004"
     sodipodi:nodetypes="cccccccc" />
</svg>
