<svg width="64" xmlns="http://www.w3.org/2000/svg" height="64" viewBox="0 0 64 64" xmlns:xlink="http://www.w3.org/1999/xlink">
<path style="fill:#aaa" d="M 31.523438 3.957031 L 31.523438 11.875 L 43.398438 23.75 L 17.8125 23.75 C 17.8125 23.75 13.542969 23.660156 9.152344 25.851562 C 4.765625 28.046875 0 33.644531 0 41.5625 C 0 49.480469 4.765625 55.078125 9.152344 57.273438 C 13.542969 59.464844 17.8125 59.375 17.8125 59.375 C 20.949219 59.421875 23.835938 56.574219 23.835938 53.4375 C 23.835938 50.300781 20.949219 47.453125 17.8125 47.5 C 17.8125 47.5 16.023438 47.410156 14.472656 46.632812 C 12.921875 45.859375 11.875 45.519531 11.875 41.5625 C 11.875 37.605469 12.921875 37.265625 14.472656 36.492188 C 16.023438 35.714844 17.8125 35.625 17.8125 35.625 L 43.398438 35.625 L 31.523438 47.5 L 31.523438 55.417969 L 39.441406 55.417969 L 63.191406 31.667969 L 63.191406 27.707031 L 39.441406 3.957031 Z "/>
</svg>
