<svg width="64" xmlns="http://www.w3.org/2000/svg" height="64" viewBox="0 0 64 64" xmlns:xlink="http://www.w3.org/1999/xlink">
<g style="fill:#aaa">
<path d="M 45.511719 21.453125 C 44.574219 21.113281 43.519531 21.570312 43.175781 22.507812 L 42.375 24.699219 C 41.707031 24.683594 41.050781 24.703125 40.394531 24.773438 L 39.425781 22.691406 C 39.007812 21.785156 37.945312 21.398438 37.039062 21.820312 L 31.816406 24.214844 C 30.914062 24.632812 30.523438 25.695312 30.945312 26.601562 L 31.914062 28.683594 C 31.425781 29.144531 30.988281 29.660156 30.566406 30.1875 L 28.414062 29.402344 C 27.476562 29.058594 26.421875 29.519531 26.078125 30.457031 L 24.105469 35.855469 C 23.761719 36.792969 24.273438 37.828125 25.210938 38.167969 L 27.363281 38.957031 C 27.347656 39.632812 27.351562 40.308594 27.425781 40.972656 L 25.339844 41.941406 C 24.4375 42.363281 24.046875 43.425781 24.46875 44.328125 L 26.917969 49.527344 C 27.339844 50.433594 28.398438 50.820312 29.304688 50.398438 L 31.386719 49.429688 C 31.84375 49.90625 32.332031 50.347656 32.851562 50.765625 L 32.050781 52.957031 C 31.710938 53.894531 32.222656 54.925781 33.160156 55.269531 L 38.519531 57.226562 C 39.457031 57.570312 40.476562 57.097656 40.816406 56.160156 L 41.617188 53.96875 C 42.296875 53.984375 42.972656 53.980469 43.636719 53.90625 L 44.605469 55.988281 C 45.027344 56.894531 46.085938 57.28125 46.992188 56.863281 L 52.214844 54.46875 C 53.121094 54.046875 53.507812 52.984375 53.085938 52.078125 L 52.09375 49.941406 C 52.570312 49.488281 53.011719 49 53.425781 48.476562 L 55.617188 49.277344 C 56.554688 49.621094 57.574219 49.148438 57.914062 48.210938 L 59.886719 42.808594 C 60.230469 41.871094 59.757812 40.855469 58.820312 40.511719 L 56.628906 39.710938 C 56.648438 39.046875 56.625 38.386719 56.554688 37.730469 L 58.691406 36.738281 C 59.597656 36.316406 59.984375 35.257812 59.5625 34.351562 L 57.113281 29.152344 C 56.695312 28.25 55.632812 27.859375 54.726562 28.28125 L 52.644531 29.25 C 52.183594 28.761719 51.671875 28.324219 51.140625 27.902344 L 51.941406 25.710938 C 52.285156 24.773438 51.8125 23.753906 50.871094 23.414062 Z M 43.597656 34.949219 C 46.015625 35.832031 47.261719 38.515625 46.378906 40.933594 C 45.496094 43.355469 42.816406 44.601562 40.394531 43.714844 C 37.976562 42.832031 36.730469 40.152344 37.613281 37.730469 C 38.496094 35.3125 41.179688 34.066406 43.597656 34.949219 Z "/>
<path d="M 15.582031 2.667969 C 15.066406 2.667969 14.664062 3.066406 14.664062 3.582031 L 14.664062 5.832031 C 13.984375 6.042969 13.328125 6.339844 12.707031 6.667969 L 11.125 5.082031 C 10.757812 4.71875 10.15625 4.71875 9.792969 5.082031 L 6.417969 8.457031 C 6.050781 8.824219 6.050781 9.425781 6.417969 9.792969 L 8 11.375 C 7.671875 11.996094 7.375 12.652344 7.167969 13.332031 L 4.917969 13.332031 C 4.398438 13.332031 4 13.730469 4 14.25 L 4 19.082031 C 4 19.601562 4.398438 20 4.917969 20 L 7.167969 20 C 7.375 20.683594 7.671875 21.335938 8 21.957031 L 6.417969 23.542969 C 6.050781 23.90625 6.050781 24.507812 6.417969 24.875 L 9.792969 28.25 C 10.15625 28.617188 10.757812 28.617188 11.125 28.25 L 12.707031 26.667969 C 13.328125 26.996094 13.984375 27.289062 14.664062 27.5 L 14.664062 29.75 C 14.664062 30.269531 15.066406 30.667969 15.582031 30.667969 L 20.414062 30.667969 C 20.933594 30.667969 21.332031 30.269531 21.332031 29.75 L 21.332031 27.5 C 22.015625 27.289062 22.667969 26.996094 23.289062 26.667969 L 24.875 28.25 C 25.238281 28.617188 25.839844 28.617188 26.207031 28.25 L 29.582031 24.875 C 29.945312 24.507812 29.945312 23.90625 29.582031 23.542969 L 27.996094 21.957031 C 28.324219 21.335938 28.621094 20.683594 28.832031 20 L 31.082031 20 C 31.597656 20 31.996094 19.601562 31.996094 19.082031 L 31.996094 14.25 C 31.996094 13.730469 31.597656 13.332031 31.082031 13.332031 L 28.832031 13.332031 C 28.621094 12.652344 28.324219 11.996094 27.996094 11.375 L 29.582031 9.792969 C 29.945312 9.425781 29.945312 8.824219 29.582031 8.457031 L 26.207031 5.082031 C 25.839844 4.71875 25.238281 4.71875 24.875 5.082031 L 23.289062 6.667969 C 22.667969 6.339844 22.015625 6.042969 21.332031 5.832031 L 21.332031 3.582031 C 21.332031 3.066406 20.933594 2.667969 20.414062 2.667969 Z M 18 12.667969 C 20.207031 12.667969 22 14.457031 22 16.667969 C 22 18.875 20.207031 20.667969 18 20.667969 C 15.789062 20.667969 14 18.875 14 16.667969 C 14 14.457031 15.789062 12.667969 18 12.667969 Z "/>
<path d="M 12.582031 41.332031 C 12.25 41.332031 12 41.585938 12 41.917969 L 12 43.582031 C 11.261719 43.773438 10.597656 44.078125 9.957031 44.457031 L 8.75 43.25 C 8.515625 43.015625 8.152344 43.015625 7.917969 43.25 L 5.917969 45.25 C 5.683594 45.484375 5.683594 45.847656 5.917969 46.082031 L 7.125 47.292969 C 6.746094 47.933594 6.4375 48.59375 6.25 49.332031 L 4.582031 49.332031 C 4.253906 49.332031 4 49.585938 4 49.917969 L 4 52.75 C 4 53.082031 4.253906 53.332031 4.582031 53.332031 L 6.25 53.332031 C 6.4375 54.070312 6.746094 54.734375 7.125 55.375 L 5.917969 56.582031 C 5.683594 56.816406 5.683594 57.183594 5.917969 57.417969 L 7.917969 59.417969 C 8.152344 59.652344 8.515625 59.652344 8.75 59.417969 L 9.957031 58.207031 C 10.597656 58.585938 11.261719 58.894531 12 59.082031 L 12 60.75 C 12 61.082031 12.25 61.332031 12.582031 61.332031 L 15.414062 61.332031 C 15.746094 61.332031 16 61.082031 16 60.75 L 16 59.082031 C 16.738281 58.894531 17.398438 58.585938 18.039062 58.207031 L 19.25 59.417969 C 19.484375 59.652344 19.847656 59.652344 20.082031 59.417969 L 22.082031 57.417969 C 22.316406 57.183594 22.316406 56.816406 22.082031 56.582031 L 20.875 55.375 C 21.253906 54.734375 21.558594 54.070312 21.75 53.332031 L 23.414062 53.332031 C 23.746094 53.332031 24 53.082031 24 52.75 L 24 49.917969 C 24 49.585938 23.746094 49.332031 23.414062 49.332031 L 21.75 49.332031 C 21.558594 48.59375 21.253906 47.933594 20.875 47.292969 L 22.082031 46.082031 C 22.316406 45.847656 22.316406 45.484375 22.082031 45.25 L 20.082031 43.25 C 19.847656 43.015625 19.484375 43.015625 19.25 43.25 L 18.039062 44.457031 C 17.398438 44.078125 16.738281 43.773438 16 43.582031 L 16 41.917969 C 16 41.585938 15.746094 41.332031 15.414062 41.332031 Z M 14 48.667969 C 15.472656 48.667969 16.664062 49.863281 16.664062 51.332031 C 16.664062 52.804688 15.472656 54 14 54 C 12.527344 54 11.332031 52.804688 11.332031 51.332031 C 11.332031 49.863281 12.527344 48.667969 14 48.667969 Z "/>
</g>
</svg>
