<svg width="64" xmlns="http://www.w3.org/2000/svg" height="64" viewBox="0 0 64 64" xmlns:xlink="http://www.w3.org/1999/xlink">
<g style="fill:#aaa">
<path d="M 25.4375 14.644531 C 26.476562 14.671875 27.464844 15.105469 28.1875 15.851562 L 41.523438 29.183594 C 42.273438 29.9375 42.699219 30.957031 42.699219 32.019531 C 42.699219 33.082031 42.273438 34.101562 41.523438 34.851562 L 28.1875 48.183594 C 26.625 49.75 24.085938 49.75 22.523438 48.183594 C 20.957031 46.621094 20.957031 44.082031 22.523438 42.519531 L 33.023438 32.019531 L 22.523438 21.519531 C 21.332031 20.367188 20.972656 18.601562 21.621094 17.078125 C 22.265625 15.554688 23.785156 14.585938 25.4375 14.644531 Z "/>
<path d="M 54.667969 16 C 54.550781 13.789062 52.667969 12.09375 50.457031 12.207031 C 48.25 12.324219 46.550781 14.207031 46.667969 16.417969 L 46.667969 48.417969 C 46.644531 49.859375 47.402344 51.199219 48.648438 51.929688 C 49.894531 52.65625 51.4375 52.65625 52.683594 51.929688 C 53.929688 51.199219 54.6875 49.859375 54.667969 48.417969 L 54.667969 16.417969 C 54.675781 16.277344 54.675781 16.140625 54.667969 16 Z "/>
</g>
</svg>
