<?xml version="1.0" encoding="UTF-8" standalone="no"?>
<!-- Created with Inkscape (http://www.inkscape.org/) -->

<svg
   xmlns:dc="http://purl.org/dc/elements/1.1/"
   xmlns:cc="http://creativecommons.org/ns#"
   xmlns:rdf="http://www.w3.org/1999/02/22-rdf-syntax-ns#"
   xmlns:svg="http://www.w3.org/2000/svg"
   xmlns="http://www.w3.org/2000/svg"
   xmlns:sodipodi="http://sodipodi.sourceforge.net/DTD/sodipodi-0.dtd"
   xmlns:inkscape="http://www.inkscape.org/namespaces/inkscape"
   id="svg7384"
   height="64"
   width="64"
   version="1.1"
   inkscape:version="0.91 r"
   sodipodi:docname="gtk-connect.svg">
  <defs
     id="defs11" />
  <sodipodi:namedview
     pagecolor="#ffffff"
     bordercolor="#666666"
     borderopacity="1"
     objecttolerance="10"
     gridtolerance="10"
     guidetolerance="10"
     inkscape:pageopacity="0"
     inkscape:pageshadow="2"
     inkscape:window-width="1366"
     inkscape:window-height="747"
     id="namedview9"
     showgrid="true"
     inkscape:zoom="7.3887087"
     inkscape:cx="2.3334721"
     inkscape:cy="32.839061"
     inkscape:window-x="0"
     inkscape:window-y="21"
     inkscape:window-maximized="1"
     inkscape:current-layer="svg7384">
    <inkscape:grid
       type="xygrid"
       id="grid4189" />
  </sodipodi:namedview>
  <metadata
     id="metadata90">
    <rdf:RDF>
      <cc:Work
         rdf:about="">
        <dc:format>image/svg+xml</dc:format>
        <dc:type
           rdf:resource="http://purl.org/dc/dcmitype/StillImage" />
        <dc:title>Gnome Symbolic Icon Theme</dc:title>
      </cc:Work>
    </rdf:RDF>
  </metadata>
  <title
     id="title9167">Gnome Symbolic Icon Theme</title>
  <g
     id="g3000"
     transform="matrix(0.80000001,0,0,0.80000001,1.4000005,43.399997)" />
  <path
     style="color:#000000;display:inline;overflow:visible;visibility:visible;opacity:1.;fill:#888888;fill-opacity:1;fill-rule:nonzero;stroke:none;marker:none;enable-background:accumulate"
     d="m 55.03338,3.9999957 c -0.426658,0 -0.834738,0.15928 -1.134218,0.465236 l -11.371268,11.3699613 -5.176704,0 c -0.426256,-0.003 -0.861656,0.16428 -1.163308,0.465266 l -7.532376,7.531538 c -0.611734,0.598858 -0.611734,1.727476 0,2.326334 l 9.219158,9.218102 c 0.307686,0.307371 0.728374,0.475688 1.16331,0.465264 0.417508,-0.003 0.838754,-0.170159 1.134216,-0.465264 l 7.561496,-7.560592 c 0.30114,-0.301456 0.46872,-0.707904 0.4653,-1.134094 l 0,-5.205176 11.342212,-11.340872 c 0.611736,-0.5988877 0.611736,-1.7274757 0,-2.3263333 l -3.34451,-3.344134 c -0.2996,-0.305824 -0.736616,-0.465236 -1.163308,-0.465236 z"
     id="path2994"
     inkscape:connector-curvature="0" />
  <path
     style="color:#000000;display:inline;overflow:visible;visibility:visible;opacity:1.;fill:#888888;fill-opacity:1;fill-rule:nonzero;stroke:none;marker:none;enable-background:accumulate"
     d="m 24.962028,28.164781 c -0.417512,0.003 -0.838756,0.19944 -1.134218,0.494356 l -7.561496,7.531504 c -0.301154,0.301454 -0.46872,0.736992 -0.465299,1.163182 l 0,5.17608 -11.3422118,11.369964 c -0.6117376,0.598888 -0.6117376,1.69839 0,2.297276 l 3.3445078,3.344104 c 0.5989202,0.611676 1.6985738,0.611676 2.297525,0 l 11.37127,-11.340906 5.176706,0 c 0.426248,0.003 0.861648,-0.16424 1.163304,-0.465266 l 7.532372,-7.560592 c 0.61177,-0.59886 0.61177,-1.698356 0,-2.297244 l -9.219154,-9.218102 c -0.30769,-0.30737 -0.728406,-0.504776 -1.163306,-0.494356 z"
     id="path3804-7"
     inkscape:connector-curvature="0" />
</svg>
