<svg width="64" xmlns="http://www.w3.org/2000/svg" height="64" viewBox="0 0 64 64" xmlns:xlink="http://www.w3.org/1999/xlink">
<g style="fill:#aaa">
<path d="M 58.667969 11.820312 L 23.117188 11.820312 L 23.117188 14.972656 L 58.667969 14.972656 Z "/>
<path d="M 21.636719 18.125 C 19.183594 18.125 17.191406 16.007812 17.191406 13.394531 C 17.191406 10.785156 19.183594 8.667969 21.636719 8.667969 C 24.089844 8.667969 26.082031 10.785156 26.082031 13.394531 C 26.082031 16.007812 24.089844 18.125 21.636719 18.125 Z "/>
<path d="M 5.332031 33.578125 L 49.769531 33.578125 L 49.769531 30.421875 L 5.332031 30.421875 Z "/>
<path d="M 51.25 27.269531 C 53.707031 27.269531 55.695312 29.386719 55.695312 32 C 55.695312 34.613281 53.707031 36.730469 51.25 36.730469 C 48.796875 36.730469 46.808594 34.613281 46.808594 32 C 46.808594 29.386719 48.796875 27.269531 51.25 27.269531 Z "/>
<path d="M 58.667969 49.027344 L 26.082031 49.027344 L 26.082031 52.179688 L 58.667969 52.179688 Z "/>
<path d="M 24.597656 55.332031 C 22.144531 55.332031 20.15625 53.214844 20.15625 50.605469 C 20.15625 47.992188 22.144531 45.875 24.597656 45.875 C 27.054688 45.875 29.042969 47.992188 29.042969 50.605469 C 29.042969 53.214844 27.054688 55.332031 24.597656 55.332031 Z "/>
</g>
</svg>
