<svg width="64" xmlns="http://www.w3.org/2000/svg" height="64" viewBox="0 0 64 64" xmlns:xlink="http://www.w3.org/1999/xlink">
<g style="fill:#aaa">
<path d="M 32 14 C 22.089844 14 14 22.089844 14 32 C 14 41.910156 22.089844 50 32 50 C 41.910156 50 50 41.910156 50 32 C 50 22.089844 41.910156 14 32 14 Z M 32 17 C 40.285156 17 47 23.714844 47 32 C 47 40.285156 40.285156 47 32 47 C 23.714844 47 17 40.285156 17 32 C 17 23.714844 23.714844 17 32 17 Z "/>
<path style="fill-opacity:.502" d="M 32 20 C 25.371094 20 20 25.371094 20 32 C 20 38.628906 25.371094 44 32 44 C 38.628906 44 44 38.628906 44 32 C 44 25.371094 38.628906 20 32 20 Z M 32 23 C 36.96875 23 41 27.03125 41 32 C 41 36.96875 36.96875 41 32 41 C 27.03125 41 23 36.96875 23 32 C 23 27.03125 27.03125 23 32 23 Z "/>
<path d="M 11 29 L 14 29 C 15.65625 29 17 30.34375 17 32 C 17 33.65625 15.65625 35 14 35 L 11 35 C 9.34375 35 8 33.65625 8 32 C 8 30.34375 9.34375 29 11 29 Z "/>
<path d="M 32 8 C 33.65625 8 35 9.34375 35 11 L 35 14 C 35 15.65625 33.65625 17 32 17 C 30.34375 17 29 15.65625 29 14 L 29 11 C 29 9.34375 30.34375 8 32 8 Z "/>
<path d="M 50 29 L 53 29 C 54.65625 29 56 30.34375 56 32 C 56 33.65625 54.65625 35 53 35 L 50 35 C 48.34375 35 47 33.65625 47 32 C 47 30.34375 48.34375 29 50 29 Z "/>
<path d="M 32 47 C 33.65625 47 35 48.34375 35 50 L 35 53 C 35 54.65625 33.65625 56 32 56 C 30.34375 56 29 54.65625 29 53 L 29 50 C 29 48.34375 30.34375 47 32 47 Z "/>
<path d="M 38 32 C 38 35.3125 35.3125 38 32 38 C 28.6875 38 26 35.3125 26 32 C 26 28.6875 28.6875 26 32 26 C 35.3125 26 38 28.6875 38 32 Z "/>
<path d="M 45.121094 41.878906 L 41.3125 45.433594 C 41.148438 45.589844 41.140625 45.847656 41.292969 46.011719 L 44.90625 49.875 C 45.058594 50.039062 45.320312 50.046875 45.484375 49.894531 L 49.289062 46.339844 C 49.457031 46.183594 49.464844 45.925781 49.308594 45.761719 L 45.699219 41.898438 C 45.542969 41.734375 45.285156 41.726562 45.121094 41.878906 Z "/>
<path d="M 21.078125 15.644531 L 16.742188 19.691406 C 16.722656 19.710938 16.722656 19.738281 16.742188 19.757812 L 41.054688 45.753906 C 41.074219 45.773438 41.101562 45.777344 41.121094 45.757812 L 45.457031 41.710938 C 45.476562 41.691406 45.476562 41.664062 45.457031 41.644531 L 21.144531 15.648438 C 21.128906 15.628906 21.097656 15.625 21.078125 15.644531 Z "/>
<path d="M 14.71875 13.152344 L 15.683594 16.4375 L 16.6875 19.710938 L 18.921875 17.683594 L 21.121094 15.621094 L 17.925781 14.367188 Z "/>
<path d="M 15.589844 15.957031 L 16.546875 15.046875 L 17.558594 14.203125 L 16.109375 13.632812 L 14.675781 12.992188 L 15.167969 14.472656 Z "/>
</g>
</svg>
