<svg width="64" xmlns="http://www.w3.org/2000/svg" height="64" viewBox="0 0 64 64" xmlns:xlink="http://www.w3.org/1999/xlink">
<path style="fill:#aaa" d="M 32 6.667969 C 31.929688 6.675781 31.859375 6.691406 31.792969 6.707031 C 31.546875 6.734375 31.304688 6.804688 31.082031 6.917969 C 31.070312 6.929688 31.054688 6.945312 31.042969 6.957031 C 30.394531 7.21875 30.007812 7.601562 29.707031 7.957031 C 29.277344 8.472656 28.867188 9.070312 28.457031 9.75 C 27.640625 11.113281 26.78125 12.84375 25.917969 14.582031 C 25.050781 16.324219 24.195312 18.074219 23.5 19.417969 C 23.152344 20.089844 22.820312 20.65625 22.582031 21.042969 C 22.511719 21.160156 22.441406 21.214844 22.375 21.292969 C 22.28125 21.328125 22.203125 21.347656 22.082031 21.375 C 21.640625 21.476562 21 21.628906 20.25 21.75 C 18.746094 21.992188 16.808594 22.21875 14.875 22.5 C 12.941406 22.78125 11.054688 23.105469 9.5 23.457031 C 8.722656 23.632812 8.039062 23.792969 7.417969 24.042969 C 7.105469 24.167969 6.789062 24.3125 6.457031 24.542969 C 6.128906 24.769531 5.699219 25.09375 5.457031 25.832031 C 5.214844 26.574219 5.367188 27.121094 5.5 27.5 C 5.632812 27.878906 5.78125 28.175781 5.957031 28.457031 C 6.316406 29.027344 6.765625 29.570312 7.292969 30.167969 C 8.34375 31.359375 9.726562 32.726562 11.125 34.082031 C 12.523438 35.4375 13.929688 36.757812 15 37.832031 C 15.535156 38.371094 15.996094 38.867188 16.292969 39.207031 C 16.378906 39.308594 16.402344 39.371094 16.457031 39.457031 C 16.464844 39.558594 16.46875 39.628906 16.457031 39.75 C 16.421875 40.199219 16.367188 40.835938 16.25 41.582031 C 16.019531 43.078125 15.660156 45.003906 15.332031 46.917969 C 15.003906 48.828125 14.6875 50.753906 14.542969 52.332031 C 14.46875 53.125 14.410156 53.789062 14.457031 54.457031 C 14.480469 54.792969 14.546875 55.15625 14.667969 55.542969 C 14.785156 55.925781 14.957031 56.421875 15.582031 56.875 C 16.210938 57.328125 16.765625 57.339844 17.167969 57.332031 C 17.566406 57.328125 17.882812 57.289062 18.207031 57.207031 C 18.859375 57.046875 19.515625 56.769531 20.25 56.457031 C 21.714844 55.832031 23.480469 54.984375 25.207031 54.082031 C 26.9375 53.183594 28.640625 52.222656 30 51.542969 C 30.679688 51.203125 31.289062 50.925781 31.707031 50.75 C 31.828125 50.699219 31.902344 50.691406 32 50.667969 C 32.097656 50.691406 32.171875 50.699219 32.292969 50.75 C 32.710938 50.925781 33.320312 51.203125 34 51.542969 C 35.359375 52.222656 37.0625 53.183594 38.792969 54.082031 C 40.519531 54.984375 42.285156 55.832031 43.75 56.457031 C 44.484375 56.769531 45.140625 57.046875 45.792969 57.207031 C 46.117188 57.289062 46.433594 57.328125 46.832031 57.332031 C 47.234375 57.339844 47.789062 57.328125 48.417969 56.875 C 49.042969 56.421875 49.214844 55.925781 49.332031 55.542969 C 49.453125 55.15625 49.519531 54.792969 49.542969 54.457031 C 49.589844 53.789062 49.53125 53.125 49.457031 52.332031 C 49.3125 50.753906 48.996094 48.828125 48.667969 46.917969 C 48.339844 45.003906 47.980469 43.078125 47.75 41.582031 C 47.632812 40.835938 47.578125 40.199219 47.542969 39.75 C 47.53125 39.628906 47.535156 39.558594 47.542969 39.457031 C 47.597656 39.371094 47.621094 39.308594 47.707031 39.207031 C 48.003906 38.867188 48.464844 38.371094 49 37.832031 C 50.070312 36.757812 51.476562 35.4375 52.875 34.082031 C 54.273438 32.726562 55.65625 31.359375 56.707031 30.167969 C 57.234375 29.570312 57.683594 29.027344 58.042969 28.457031 C 58.21875 28.175781 58.367188 27.878906 58.5 27.5 C 58.632812 27.121094 58.785156 26.574219 58.542969 25.832031 C 58.300781 25.09375 57.871094 24.769531 57.542969 24.542969 C 57.210938 24.3125 56.894531 24.167969 56.582031 24.042969 C 55.960938 23.792969 55.277344 23.632812 54.5 23.457031 C 52.945312 23.105469 51.058594 22.78125 49.125 22.5 C 47.191406 22.21875 45.253906 21.992188 43.75 21.75 C 43 21.628906 42.359375 21.476562 41.917969 21.375 C 41.796875 21.347656 41.71875 21.328125 41.625 21.292969 C 41.558594 21.214844 41.488281 21.160156 41.417969 21.042969 C 41.179688 20.65625 40.847656 20.089844 40.5 19.417969 C 39.804688 18.074219 38.949219 16.324219 38.082031 14.582031 C 37.21875 12.84375 36.359375 11.113281 35.542969 9.75 C 35.132812 9.070312 34.722656 8.472656 34.292969 7.957031 C 33.859375 7.445312 33.542969 6.667969 32 6.667969 Z "/>
</svg>
