<svg width="64" xmlns="http://www.w3.org/2000/svg" height="64" viewBox="0 0 64 64" xmlns:xlink="http://www.w3.org/1999/xlink">
<path style="fill:#aaa" d="M 32 5.332031 C 32 5.332031 16 5.332031 16 17.332031 L 16 26.667969 C 16 26.667969 10.667969 26.667969 10.667969 32 L 10.667969 53.332031 C 10.667969 58.667969 16 58.667969 16 58.667969 L 48 58.667969 C 48 58.667969 53.332031 58.667969 53.332031 53.332031 L 53.332031 32 C 53.332031 26.667969 48 26.667969 48 26.667969 L 22.667969 26.667969 L 22.667969 20 C 22.667969 12 32 12 32 12 C 32 12 41.332031 12 41.332031 20 L 41.332031 21.332031 L 48 21.332031 L 48 17.332031 C 48 5.332031 32 5.332031 32 5.332031 Z "/>
</svg>
