<svg width="64" xmlns="http://www.w3.org/2000/svg" height="64" viewBox="0 0 64 64" xmlns:xlink="http://www.w3.org/1999/xlink">
<path style="fill:#aaa" d="M 7.125 9.332031 C 6.148438 9.4375 5.328125 10.351562 5.332031 11.332031 L 5.332031 47.332031 C 5.332031 48.378906 6.285156 49.332031 7.332031 49.332031 L 25.332031 49.332031 L 25.332031 53.332031 L 38.667969 53.332031 L 38.667969 49.332031 L 56.667969 49.332031 C 57.714844 49.332031 58.667969 48.378906 58.667969 47.332031 L 58.667969 11.332031 C 58.667969 10.285156 57.714844 9.332031 56.667969 9.332031 Z M 32 17.328125 C 32 17.328125 38.667969 17.332031 38.671875 22.667969 L 38.671875 26.667969 C 38.671875 26.667969 41.332031 26.667969 41.332031 27.875 L 41.332031 39.5 C 41.332031 40.515625 40.378906 41.417969 39.332031 41.417969 L 24.667969 41.417969 C 23.621094 41.417969 22.667969 40.515625 22.667969 39.5 L 22.667969 27.875 C 22.667969 26.667969 25.363281 26.65625 25.363281 26.65625 L 25.277344 22.667969 C 25.332031 17.332031 32 17.328125 32 17.328125 Z M 32 20 C 32 20 28 20 28 24 L 28 26.667969 L 36 26.667969 L 36 24 C 36 20 32 20 32 20 Z M 16 54.667969 L 16 58.667969 L 49.332031 58.667969 L 49.332031 54.667969 Z "/>
</svg>
