<svg width="64" xmlns="http://www.w3.org/2000/svg" height="64" viewBox="0 0 64 64" xmlns:xlink="http://www.w3.org/1999/xlink">
<path style="fill:#aaa" d="M 30.609375 14.625 C 32.253906 14.585938 33.757812 15.5625 34.394531 17.082031 C 35.027344 18.601562 34.667969 20.355469 33.484375 21.5 L 26.984375 28 L 42.691406 28 C 46.023438 28 48.796875 30.253906 49.773438 32.207031 C 50.753906 34.164062 50.691406 36 50.691406 36 L 50.691406 42.667969 C 50.710938 44.109375 49.953125 45.449219 48.707031 46.179688 C 47.460938 46.90625 45.921875 46.90625 44.675781 46.179688 C 43.429688 45.449219 42.671875 44.109375 42.691406 42.667969 L 42.691406 36 L 26.984375 36 L 33.484375 42.5 C 35.046875 44.066406 35.046875 46.601562 33.484375 48.167969 C 31.917969 49.730469 29.382812 49.730469 27.816406 48.167969 L 14.484375 34.832031 C 13.730469 34.082031 13.308594 33.0625 13.308594 32 C 13.308594 30.9375 13.730469 29.917969 14.484375 29.167969 L 27.816406 15.832031 C 28.542969 15.089844 29.527344 14.65625 30.566406 14.625 C 30.582031 14.625 30.59375 14.625 30.609375 14.625 Z "/>
</svg>
