<?xml version="1.0" encoding="UTF-8" standalone="no"?>
<svg
   xmlns:dc="http://purl.org/dc/elements/1.1/"
   xmlns:cc="http://creativecommons.org/ns#"
   xmlns:rdf="http://www.w3.org/1999/02/22-rdf-syntax-ns#"
   xmlns:svg="http://www.w3.org/2000/svg"
   xmlns="http://www.w3.org/2000/svg"
   xmlns:sodipodi="http://sodipodi.sourceforge.net/DTD/sodipodi-0.dtd"
   xmlns:inkscape="http://www.inkscape.org/namespaces/inkscape"
   width="64"
   height="64"
   viewBox="0 0 64 64"
   id="svg2"
   version="1.1"
   inkscape:version="0.91 r"
   sodipodi:docname="mail-attachment.svg">
  <metadata
     id="metadata28">
    <rdf:RDF>
      <cc:Work
         rdf:about="">
        <dc:format>image/svg+xml</dc:format>
        <dc:type
           rdf:resource="http://purl.org/dc/dcmitype/StillImage" />
        <dc:title></dc:title>
      </cc:Work>
    </rdf:RDF>
  </metadata>
  <defs
     id="defs26" />
  <sodipodi:namedview
     pagecolor="#ffffff"
     bordercolor="#666666"
     borderopacity="1"
     objecttolerance="10"
     gridtolerance="10"
     guidetolerance="10"
     inkscape:pageopacity="0"
     inkscape:pageshadow="2"
     inkscape:window-width="1920"
     inkscape:window-height="1056"
     id="namedview24"
     showgrid="true"
     inkscape:zoom="3.9999998"
     inkscape:cx="-4.0246759"
     inkscape:cy="-20.596422"
     inkscape:window-x="0"
     inkscape:window-y="24"
     inkscape:window-maximized="1"
     inkscape:current-layer="svg2"
     showguides="false">
    <inkscape:grid
       type="xygrid"
       id="grid4186" />
  </sodipodi:namedview>
  <path
     style="opacity:1;fill:#808080;fill-opacity:1;fill-rule:nonzero;stroke:none;stroke-width:3;stroke-linecap:square;stroke-linejoin:miter;stroke-miterlimit:4;stroke-dasharray:none;stroke-dashoffset:0;stroke-opacity:1"
     d="m 35,6.0000001 c -1.554536,0 -3.109072,0.39994 -4.5,1.2031242 C 27.718142,8.8094963 26,11.787522 26,15 l 0,27 c 0,2.140598 1.146324,4.132656 3,5.20319 1.853674,1.070534 4.146326,1.070534 6,0 C 36.853674,46.132658 38,44.140596 38,42 l 0,-19 c 0,-0.554 -0.446,-1 -1,-1 l -2,0 c -0.554,0 -1,0.446 -1,1 l 0,19 c 0,0.718364 -0.378466,1.383306 -1,1.742254 -0.621534,0.358946 -1.378466,0.358946 -2,0 C 30.378466,43.383306 30,42.718366 30,42 l 0,-27 c 0,-1.790062 0.950244,-3.437132 2.5,-4.332032 1.549756,-0.8948977 3.450244,-0.8948977 5,0 1.549756,0.8949 2.5,2.54197 2.5,4.332032 l 0,31 c 0,2.85854 -1.521914,5.499956 -4,6.929754 -2.478086,1.429788 -5.521914,1.429788 -8,0 C 25.521914,51.499962 24,48.85854 24,46 l 0,-27 c 0,-0.554 -0.446,-1 -1,-1 l -2,0 c -0.554,0 -1,0.446 -1,1 l 0,27 c 0,4.282118 2.290064,8.25406 6,10.394596 3.709936,2.140538 8.290064,2.140538 12,0 C 41.709936,54.25406 44,50.282118 44,46 L 44,15 C 44,11.787522 42.281858,8.8094963 39.5,7.2031243 38.109072,6.3999401 36.554536,6.0000001 35,6.0000001 Z"
     id="rect4134"
     inkscape:connector-curvature="0"
     sodipodi:nodetypes="ssccssccssccssccssccssccssccssccss" />
</svg>
