<svg width="64" xmlns="http://www.w3.org/2000/svg" height="64" viewBox="0 0 64 64" xmlns:xlink="http://www.w3.org/1999/xlink">
<g style="fill:#aaa">
<path d="M 54.667969 15.457031 L 54.667969 23.75 C 55.851562 26.246094 56.542969 29.042969 56.542969 32 C 56.542969 34.957031 55.851562 37.753906 54.667969 40.25 L 54.667969 48.542969 C 58.78125 44.230469 61.332031 38.414062 61.332031 32 C 61.332031 25.585938 58.78125 19.769531 54.667969 15.457031 Z "/>
<path d="M 8.332031 6.667969 C 5.96875 6.667969 4 8.632812 4 11 L 4 53 C 4 55.367188 5.96875 57.332031 8.332031 57.332031 L 50.332031 57.332031 C 52.699219 57.332031 54.667969 55.367188 54.667969 53 L 54.667969 11 C 54.667969 8.632812 52.699219 6.667969 50.332031 6.667969 Z M 13.332031 10.667969 L 50.332031 10.667969 C 50.550781 10.667969 50.667969 10.78125 50.667969 11 L 50.667969 53 C 50.667969 53.21875 50.550781 53.332031 50.332031 53.332031 L 13.332031 53.332031 Z "/>
</g>
</svg>
