<svg width="64" xmlns="http://www.w3.org/2000/svg" height="64" viewBox="0 0 64 64" xmlns:xlink="http://www.w3.org/1999/xlink">
<g style="fill:#aaa">
<path d="M 44 28.007812 C 35.179688 28.007812 28 35.183594 28 44.007812 C 28 52.828125 35.179688 60.007812 44 60.007812 C 52.820312 60.007812 60 52.828125 60 44.007812 C 60 35.183594 52.820312 28.007812 44 28.007812 Z M 44 31.207031 C 51.089844 31.207031 56.800781 36.914062 56.800781 44.007812 C 56.800781 51.097656 51.089844 56.804688 44 56.804688 C 36.910156 56.804688 31.199219 51.097656 31.199219 44.007812 C 31.199219 36.914062 36.910156 31.207031 44 31.207031 Z "/>
<path d="M 43.996094 39.195312 C 41.347656 39.195312 39.183594 41.363281 39.183594 44.011719 C 39.183594 46.65625 41.347656 48.824219 43.996094 48.824219 C 46.644531 48.824219 48.8125 46.65625 48.8125 44.011719 C 48.8125 41.363281 46.644531 39.195312 43.996094 39.195312 Z M 43.996094 40.019531 C 46.210938 40.019531 47.984375 41.796875 47.984375 44.011719 C 47.984375 46.226562 46.210938 48 43.996094 48 C 41.78125 48 40.007812 46.226562 40.007812 44.011719 C 40.007812 41.796875 41.78125 40.019531 43.996094 40.019531 Z "/>
<path d="M 43.996094 40.8125 C 42.238281 40.8125 40.800781 42.25 40.800781 44.011719 C 40.800781 45.769531 42.238281 47.207031 43.996094 47.207031 C 45.753906 47.207031 47.191406 45.769531 47.191406 44.011719 C 47.191406 42.25 45.753906 40.8125 43.996094 40.8125 Z M 43.996094 42.40625 C 44.890625 42.40625 45.601562 43.117188 45.601562 44.011719 C 45.601562 44.902344 44.890625 45.617188 43.996094 45.617188 C 43.101562 45.617188 42.390625 44.902344 42.390625 44.011719 C 42.390625 43.117188 43.101562 42.40625 43.996094 42.40625 Z "/>
<path d="M 20 4.007812 C 11.179688 4.007812 4 11.183594 4 20.007812 C 4 28.828125 11.179688 36.007812 20 36.007812 C 28.820312 36.007812 36 28.828125 36 20.007812 C 36 11.183594 28.820312 4.007812 20 4.007812 Z M 20 7.207031 C 27.089844 7.207031 32.800781 12.914062 32.800781 20.007812 C 32.800781 27.097656 27.089844 32.804688 20 32.804688 C 12.910156 32.804688 7.199219 27.097656 7.199219 20.007812 C 7.199219 12.914062 12.910156 7.207031 20 7.207031 Z "/>
<path d="M 19.996094 15.195312 C 17.347656 15.195312 15.183594 17.363281 15.183594 20.011719 C 15.183594 22.65625 17.347656 24.824219 19.996094 24.824219 C 22.644531 24.824219 24.8125 22.65625 24.8125 20.011719 C 24.8125 17.363281 22.644531 15.195312 19.996094 15.195312 Z M 19.996094 16.019531 C 22.210938 16.019531 23.984375 17.796875 23.984375 20.011719 C 23.984375 22.226562 22.210938 24 19.996094 24 C 17.78125 24 16.007812 22.226562 16.007812 20.011719 C 16.007812 17.796875 17.78125 16.019531 19.996094 16.019531 Z "/>
<path d="M 19.996094 16.8125 C 18.238281 16.8125 16.800781 18.25 16.800781 20.011719 C 16.800781 21.769531 18.238281 23.207031 19.996094 23.207031 C 21.753906 23.207031 23.191406 21.769531 23.191406 20.011719 C 23.191406 18.25 21.753906 16.8125 19.996094 16.8125 Z M 19.996094 18.40625 C 20.890625 18.40625 21.601562 19.117188 21.601562 20.011719 C 21.601562 20.902344 20.890625 21.617188 19.996094 21.617188 C 19.101562 21.617188 18.390625 20.902344 18.390625 20.011719 C 18.390625 19.117188 19.101562 18.40625 19.996094 18.40625 Z "/>
</g>
</svg>
