<svg xmlns="http://www.w3.org/2000/svg" viewBox="0 0 64 64">
 <path d="m 6 29.528 0 21.412 32 0 0 -10.706 -1.524 -9.177 -11.976 -0.059 -1.5 -3 -15.476 0 c -0.762 0 -1.524 0.765 -1.524 1.53 z" style="fill:#512da8;fill-opacity:1;stroke:none"/>
 <rect y="31.998" x="8.5" height="5.941" style="fill:#fffdf0;fill-opacity:1;stroke:none" width="15.786"/>
 <path d="m 7.531 27.998 c -0.762 0 -1.531 0.766 -1.531 1.531 l 0 1 c 0 -0.765 0.769 -1.531 1.531 -1.531 l 14.969 0 1.5 3 12.469 0.062 1.531 9.172 0 -1 -1.531 -9.172 -11.969 -0.062 -1.5 -3 z" style="fill:#000;opacity:0.015;fill-opacity:1;stroke:none"/>
 <path d="m 38 32.588 0 21.412 -32 0 0 -20 15 0 1.5 -3 13.976 0.059 c 0.762 0 1.524 0.765 1.524 1.53 z" style="fill:#7e57c2;fill-opacity:1;stroke:none"/>
 <path d="m 6 52.998 0 1 32 0 0 -1 z" style="fill:#000;opacity:0.075;fill-opacity:1;stroke:none"/>
 <path d="m 22.5 30.998 -1.5 3 -15 0 0 1 15.5 0 1.5 -3 13.469 0.062 c 0.762 0 1.531 0.767 1.531 1.531 l 0 -1 c 0 -0.765 -0.769 -1.531 -1.531 -1.531 z" style="fill:#000;opacity:0.015;fill-opacity:1;stroke:none"/>
 <path d="m 26 11.528 0 21.412 32 0 0 -10.706 -1.524 -9.177 -11.976 -0.059 -1.5 -3 -15.476 0 c -0.762 0 -1.524 0.765 -1.524 1.53 z" style="fill:#512da8;fill-opacity:1;stroke:none"/>
 <rect y="13.998" x="28.5" height="5.941" style="fill:#fffdf0;fill-opacity:1;stroke:none" width="15.786"/>
 <path d="m 27.531 9.998 c -0.762 0 -1.531 0.766 -1.531 1.531 l 0 1 c 0 -0.765 0.769 -1.531 1.531 -1.531 l 14.969 0 1.5 3 12.469 0.062 1.531 9.172 0 -1 -1.531 -9.172 -11.969 -0.062 -1.5 -3 z" style="fill:#000;opacity:0.03;fill-opacity:1;stroke:none"/>
 <path d="m 7.523 27.998 c -0.093 0 -0.185 0.012 -0.277 0.033 c -0.565 0.132 -1.077 0.644 -1.211 1.211 c 0 0.001 0 0.001 0 0.002 c -0.022 0.094 -0.035 0.188 -0.035 0.283 c 0 0.001 0 0.001 0 0.002 l 0 1 l 0 3.469 l 0 0.002 l 0 0.998 l 0 15.941 l 0 2.059 l 0 1 l 0 0.002 l 32 0 l 0 -0.002 l 0 -1 l 0 -2.059 l 0 -9.707 l 0 -0.998 l 0 -0.002 l 0 -6.643 l 0 -1 c 0 0 0 -0.002 0 -0.002 c 0 -0.095 -0.013 -0.19 -0.035 -0.283 c 0 0 0 -0.002 0 -0.002 c -0.156 -0.659 -0.822 -1.244 -1.488 -1.244 l 0 -0.002 l -11.977 -0.059 l -1.5 -3 l -15.477 0 z" style="fill:#fff;opacity:0.5;fill-opacity:1;stroke:none"/>
 <path d="m 58 14.588 0 21.412 -32 0 0 -20 15 0 1.5 -3 13.976 0.059 c 0.762 0 1.524 0.765 1.524 1.529 z" style="fill:#7e57c2;fill-opacity:1;stroke:none"/>
 <path d="m 26 34.998 0 1 32 0 0 -1 z" style="fill:#000;opacity:0.15;fill-opacity:1;stroke:none"/>
 <path d="m 42.5 12.998 -1.5 3 -15 0 0 1 15.5 0 1.5 -3 13.469 0.062 c 0.762 0 1.531 0.767 1.531 1.531 l 0 -1 c 0 -0.765 -0.769 -1.531 -1.531 -1.531 z" style="fill:#000;opacity:0.03;fill-opacity:1;stroke:none"/>
 <path d="m 56 35.998 -11 0 0 -11 -13 0 0 11 -11 0 0 13 11 0 0 11 13 0 0 -11 11 0 z" style="fill:#4caf50;fill-opacity:1"/>
</svg>
