<svg width="64" xmlns="http://www.w3.org/2000/svg" height="64" viewBox="0 0 64 64" xmlns:xlink="http://www.w3.org/1999/xlink">
<path style="fill:#aaa" d="M 14.667969 5.292969 C 12 5.292969 12 7.957031 12 7.957031 L 12 12.542969 C 12 12.582031 12 12.625 12 12.667969 L 12 53.332031 C 12 56 16.285156 58.667969 17.332031 58.667969 L 42.667969 58.707031 L 42.667969 52 L 33.332031 52 L 33.332031 45.332031 L 21.332031 45.332031 L 21.332031 41.332031 L 29.332031 37.332031 L 25.332031 33.332031 L 25.332031 28 C 25.332031 24.316406 28.316406 21.332031 32 21.332031 C 35.683594 21.332031 38.667969 24.316406 38.667969 28 L 38.667969 33.332031 L 34.667969 37.332031 L 42.667969 41.332031 L 42.667969 32 L 52 32 L 52 12.667969 C 52 11.621094 51.046875 10.667969 50 10.667969 C 42.859375 10.625 20 10.667969 20 10.667969 L 17.332031 9.292969 C 17.34375 8.003906 18.082031 8.019531 18.457031 7.957031 L 46.667969 7.957031 C 48 7.957031 48 5.292969 46.667969 5.292969 Z M 45.332031 34.667969 L 45.332031 44 L 36 44 L 36 49.332031 L 45.332031 49.332031 L 45.332031 58.667969 L 50.667969 58.667969 L 50.667969 49.332031 L 60 49.332031 L 60 44 L 50.667969 44 L 50.667969 34.667969 Z "/>
</svg>
