<svg width="64" xmlns="http://www.w3.org/2000/svg" height="64" viewBox="0 0 64 64" xmlns:xlink="http://www.w3.org/1999/xlink">
<g style="fill:#aaa">
<path d="M 32 6.042969 C 21.988281 6.042969 14.035156 14.507812 14.035156 25.828125 C 14.035156 31.273438 14.898438 36.441406 17.964844 40.109375 C 18.183594 50.90625 6.667969 42.054688 6.667969 58.054688 L 57.332031 58.054688 C 57.332031 42.054688 45.910156 52.070312 45.910156 40.109375 C 48.972656 36.441406 50.070312 31.273438 50.070312 25.828125 C 50.070312 14.507812 42.011719 6.042969 32 6.042969 Z "/>
<path d="M 29.582031 21.339844 C 28.679688 21.53125 27.980469 22.417969 28 23.339844 L 28 28.003906 L 23.332031 28.003906 C 22.285156 28.003906 21.332031 28.957031 21.332031 30.003906 L 21.332031 34.003906 C 21.332031 35.050781 22.285156 36.003906 23.332031 36.003906 L 28 36.003906 L 28 40.671875 C 28 41.71875 28.953125 42.671875 30 42.671875 L 34 42.671875 C 35.046875 42.671875 36 41.71875 36 40.671875 L 36 36.003906 L 40.667969 36.003906 C 41.714844 36.003906 42.667969 35.050781 42.667969 34.003906 L 42.667969 30.003906 C 42.667969 28.957031 41.714844 28.003906 40.667969 28.003906 L 36 28.003906 L 36 23.339844 C 36 22.292969 35.046875 21.339844 34 21.339844 L 30 21.339844 C 29.863281 21.324219 29.722656 21.324219 29.582031 21.339844 Z "/>
</g>
</svg>
