<svg width="64" xmlns="http://www.w3.org/2000/svg" height="64" viewBox="0 0 64 64" xmlns:xlink="http://www.w3.org/1999/xlink">
<path style="fill:#aaa" d="M 15.75 20.042969 C 14.375 20.171875 13.328125 21.328125 13.332031 22.710938 L 13.332031 40.042969 C 13.332031 41.515625 14.527344 42.710938 16 42.710938 L 22.667969 42.710938 C 23.628906 42.722656 24.523438 42.21875 25.007812 41.386719 C 25.492188 40.558594 25.492188 39.53125 25.007812 38.699219 C 24.523438 37.867188 23.628906 37.363281 22.667969 37.375 L 18.667969 37.375 L 18.667969 25.375 L 45.332031 25.375 L 45.332031 37.375 L 40 37.375 L 40 33.375 C 40.007812 32.617188 39.25 31.949219 38.5 32.042969 C 38.203125 32.074219 37.921875 32.210938 37.707031 32.417969 L 31.042969 39.085938 C 30.53125 39.582031 30.53125 40.503906 31.042969 41 L 37.707031 47.667969 C 38.449219 48.433594 40.023438 47.773438 40 46.710938 L 40 42.710938 L 48 42.710938 C 49.472656 42.710938 50.667969 41.515625 50.667969 40.042969 L 50.667969 22.710938 C 50.667969 21.238281 49.472656 20.042969 48 20.042969 L 16 20.042969 C 15.917969 20.039062 15.832031 20.039062 15.75 20.042969 Z "/>
</svg>
