<svg width="64" xmlns="http://www.w3.org/2000/svg" height="64" viewBox="0 0 64 64" xmlns:xlink="http://www.w3.org/1999/xlink">
<path style="fill:#aaa" d="M 12.609375 14.625 C 11.636719 14.726562 10.8125 15.644531 10.820312 16.625 L 10.820312 34.75 L 7.332031 34.75 C 6.285156 34.75 5.332031 35.703125 5.332031 36.75 L 5.332031 47.375 C 5.332031 48.421875 6.285156 49.375 7.332031 49.375 L 33.332031 49.375 L 33.332031 41.332031 L 42.667969 41.332031 L 42.667969 32 L 53.292969 32 L 53.292969 16.625 C 53.292969 15.578125 52.339844 14.625 51.292969 14.625 L 12.820312 14.625 C 12.75 14.621094 12.679688 14.621094 12.609375 14.625 Z M 45.332031 34.667969 L 45.332031 44 L 36 44 L 36 49.332031 L 45.332031 49.332031 L 45.332031 58.667969 L 50.667969 58.667969 L 50.667969 49.332031 L 60 49.332031 L 60 44 L 50.667969 44 L 50.667969 34.667969 Z M 53.332031 34.75 L 53.332031 41.332031 L 58.667969 41.332031 L 58.667969 36.75 C 58.667969 35.703125 57.714844 34.75 56.667969 34.75 Z "/>
</svg>
