<?xml version="1.0" encoding="UTF-8" standalone="no"?>
<svg
   xmlns:dc="http://purl.org/dc/elements/1.1/"
   xmlns:cc="http://creativecommons.org/ns#"
   xmlns:rdf="http://www.w3.org/1999/02/22-rdf-syntax-ns#"
   xmlns:svg="http://www.w3.org/2000/svg"
   xmlns="http://www.w3.org/2000/svg"
   xmlns:sodipodi="http://sodipodi.sourceforge.net/DTD/sodipodi-0.dtd"
   xmlns:inkscape="http://www.inkscape.org/namespaces/inkscape"
   width="64"
   height="64"
   viewBox="0 0 64 64"
   id="svg2"
   version="1.1"
   inkscape:version="0.91 r"
   sodipodi:docname="x-clementine-artist.svg">
  <metadata
     id="metadata12">
    <rdf:RDF>
      <cc:Work
         rdf:about="">
        <dc:format>image/svg+xml</dc:format>
        <dc:type
           rdf:resource="http://purl.org/dc/dcmitype/StillImage" />
        <dc:title></dc:title>
      </cc:Work>
    </rdf:RDF>
  </metadata>
  <defs
     id="defs10" />
  <sodipodi:namedview
     pagecolor="#ffffff"
     bordercolor="#666666"
     borderopacity="1"
     objecttolerance="10"
     gridtolerance="10"
     guidetolerance="10"
     inkscape:pageopacity="0"
     inkscape:pageshadow="2"
     inkscape:window-width="1547"
     inkscape:window-height="876"
     id="namedview8"
     showgrid="false"
     inkscape:zoom="3.6875"
     inkscape:cx="-11.118644"
     inkscape:cy="32"
     inkscape:window-x="53"
     inkscape:window-y="24"
     inkscape:window-maximized="1"
     inkscape:current-layer="svg2" />
  <path
     style="fill:#6c71c4"
     d="m 15.684215,9.1291142 c -2.526553,9.0509888 -2.58531,21.5864308 1.919396,27.7662588 1.895893,2.933661 4.477286,6.793124 2.452126,10.301016 -3.740863,5.476688 -9.980859,8.429881 -15.6646222,11.410418 -1.9311474,0.20313 -1.2338978,2.007858 -1.363163,3.343826 -0.00392,1.058617 -0.3133708,2.441462 1.226063,1.945357 l 54.4912662,0 c 1.543351,0.496105 1.22998,-0.88674 1.226063,-1.945357 -0.129265,-1.335968 0.567984,-3.140696 -1.359246,-3.343826 C 52.928335,55.62627 46.688339,52.673077 42.943558,47.196389 40.918399,43.688497 43.503708,39.829034 45.395685,36.895373 50.155004,30.168658 50.773911,15.523793 47.30333,8.9220785 44.165704,3.1992919 41.000659,0.21875488 31.501606,-1.1357265e-7 21.986885,0.38672771 18.833591,3.1992919 15.684215,9.1291142 Z"
     id="path4"
     inkscape:connector-curvature="0" />
</svg>
