<?xml version="1.0" encoding="UTF-8" standalone="no"?>
<svg
   xmlns:dc="http://purl.org/dc/elements/1.1/"
   xmlns:cc="http://creativecommons.org/ns#"
   xmlns:rdf="http://www.w3.org/1999/02/22-rdf-syntax-ns#"
   xmlns:svg="http://www.w3.org/2000/svg"
   xmlns="http://www.w3.org/2000/svg"
   xmlns:sodipodi="http://sodipodi.sourceforge.net/DTD/sodipodi-0.dtd"
   xmlns:inkscape="http://www.inkscape.org/namespaces/inkscape"
   viewBox="0 0 64 64"
   id="svg2"
   version="1.1"
   inkscape:version="0.91 r13725"
   sodipodi:docname="edit-table-delete-column.svg"
   width="64"
   height="64">
  <metadata
     id="metadata98">
    <rdf:RDF>
      <cc:Work
         rdf:about="">
        <dc:format>image/svg+xml</dc:format>
        <dc:type
           rdf:resource="http://purl.org/dc/dcmitype/StillImage" />
        <dc:title></dc:title>
      </cc:Work>
    </rdf:RDF>
  </metadata>
  <sodipodi:namedview
     pagecolor="#ffffff"
     bordercolor="#666666"
     borderopacity="1"
     objecttolerance="10"
     gridtolerance="10"
     guidetolerance="10"
     inkscape:pageopacity="0"
     inkscape:pageshadow="2"
     inkscape:window-width="1366"
     inkscape:window-height="704"
     id="namedview96"
     showgrid="true"
     inkscape:zoom="4"
     inkscape:cx="19.222447"
     inkscape:cy="34.429007"
     inkscape:window-x="0"
     inkscape:window-y="27"
     inkscape:window-maximized="1"
     inkscape:current-layer="svg2">
    <inkscape:grid
       type="xygrid"
       id="grid4360" />
  </sodipodi:namedview>
  <defs
     id="defs4">
    <path
       id="SVGCleanerId_0"
       d="m 14,12 20,0 c 1.105,0 2,0.895 2,2 l 0,20 c 0,1.105 -0.895,2 -2,2 l -20,0 c -1.105,0 -2,-0.895 -2,-2 l 0,-20 c 0,-1.105 0.895,-2 2,-2 m 0,0"
       inkscape:connector-curvature="0" />
    <path
       d="m 14 12 l 20 0 c 1.105 0 2 0.895 2 2 l 0 20 c 0 1.105 -0.895 2 -2 2 l -20 0 c -1.105 0 -2 -0.895 -2 -2 l 0 -20 c 0 -1.105 0.895 -2 2 -2 m 0 0"
       id="SVGCleanerId_0-2" />
  </defs>
  <rect
     style="opacity:1;fill:#dc322f;fill-opacity:1;fill-rule:nonzero;stroke:none;stroke-width:1;stroke-linejoin:round;stroke-miterlimit:4;stroke-dasharray:none;stroke-opacity:1"
     id="rect4134"
     width="12"
     height="44"
     x="26"
     y="10" />
  <path
     inkscape:connector-curvature="0"
     style="fill:#888888"
     d="m 6,6 0,4 0,12 0,4 0,12 0,4 0,12 0,4 32,0 4,0 16,0 0,-4 L 58,6 42,6 38,6 6,6 Z m 3.999998,4 12,0 0,12 -12,0 0,-12 z m 16,0 L 38,10 l 0,12 -12.000002,0 0,-12 z M 42,10 l 12,0 0,12 -12,0 0,-12 z m -32.000002,16 12,0 0,12 -12,0 0,-12 z m 16,0 L 38,26 l 0,12 -12.000002,0 0,-12 z M 42,26 l 12,0 0,12 -12,0 0,-12 z m -32.000002,16 12,0 0,12 -12,0 0,-12 z m 16,0 L 38,42 l 0,12 -12.000002,0 0,-12 z M 42,42 l 12,0 0,12 -12,0 0,-12 z"
     id="path6" />
</svg>
