<?xml version="1.0" encoding="UTF-8" standalone="no"?>
<svg
   xmlns:dc="http://purl.org/dc/elements/1.1/"
   xmlns:cc="http://creativecommons.org/ns#"
   xmlns:rdf="http://www.w3.org/1999/02/22-rdf-syntax-ns#"
   xmlns:svg="http://www.w3.org/2000/svg"
   xmlns="http://www.w3.org/2000/svg"
   xmlns:sodipodi="http://sodipodi.sourceforge.net/DTD/sodipodi-0.dtd"
   xmlns:inkscape="http://www.inkscape.org/namespaces/inkscape"
   width="64"
   height="64"
   viewBox="0 0 64 64"
   id="svg2"
   version="1.1"
   inkscape:version="0.91 r13725"
   sodipodi:docname="eog-image-gallery.svg">
  <metadata
     id="metadata12">
    <rdf:RDF>
      <cc:Work
         rdf:about="">
        <dc:format>image/svg+xml</dc:format>
        <dc:type
           rdf:resource="http://purl.org/dc/dcmitype/StillImage" />
        <dc:title></dc:title>
      </cc:Work>
    </rdf:RDF>
  </metadata>
  <defs
     id="defs10" />
  <sodipodi:namedview
     pagecolor="#ffffff"
     bordercolor="#666666"
     borderopacity="1"
     objecttolerance="10"
     gridtolerance="10"
     guidetolerance="10"
     inkscape:pageopacity="0"
     inkscape:pageshadow="2"
     inkscape:window-width="1366"
     inkscape:window-height="704"
     id="namedview8"
     showgrid="false"
     inkscape:zoom="1"
     inkscape:cx="-21.152542"
     inkscape:cy="32"
     inkscape:window-x="0"
     inkscape:window-y="27"
     inkscape:window-maximized="1"
     inkscape:current-layer="svg2" />
  <rect
     style="opacity:1;fill:#b58900;fill-opacity:1;stroke:none;stroke-width:0.2;stroke-linecap:butt;stroke-linejoin:round;stroke-miterlimit:4;stroke-dasharray:none;stroke-opacity:0.61660061"
     id="rect4148"
     width="28"
     height="28"
     x="2"
     y="2"
     rx="3"
     ry="3" />
  <rect
     y="2"
     x="34"
     height="28"
     width="28"
     id="rect4150"
     style="opacity:1;fill:#268bd2;fill-opacity:1;stroke:none;stroke-width:0.2;stroke-linecap:butt;stroke-linejoin:round;stroke-miterlimit:4;stroke-dasharray:none;stroke-opacity:0.61660061"
     ry="3"
     rx="3" />
  <rect
     style="opacity:1;fill:#db3330;fill-opacity:1;stroke:none;stroke-width:0.2;stroke-linecap:butt;stroke-linejoin:round;stroke-miterlimit:4;stroke-dasharray:none;stroke-opacity:0.61660061"
     id="rect4152"
     width="28"
     height="28"
     x="34"
     y="34"
     ry="3"
     rx="3" />
  <rect
     y="34"
     x="2"
     height="28"
     width="28"
     id="rect4154"
     style="opacity:1;fill:#4caf50;fill-opacity:1;stroke:none;stroke-width:0.2;stroke-linecap:butt;stroke-linejoin:round;stroke-miterlimit:4;stroke-dasharray:none;stroke-opacity:0.61660061"
     ry="3"
     rx="3" />
  <path
     style="fill:#ffffff;fill-opacity:1"
     d="m 43.599998,9.999998 -5.6,8.671876 0,7.328124 19.999998,0 0,-5.6 -4,-6.4 -3.999998,4 z"
     id="path85"
     inkscape:connector-curvature="0"
     sodipodi:nodetypes="cccccccc" />
  <path
     style="opacity:1;fill:#ffffff;fill-opacity:1;fill-rule:nonzero;stroke:none"
     d="m 15.867187,38.004 c -2.552684,0 -4.625,1.951284 -4.625,4.359376 0,0.11844 0.0048,0.24092 0.0156,0.35936 -0.35916,-0.0838 -0.72304,-0.13204 -1.093752,-0.1328 -2.2473602,0.0252 -4.1640762,1.959096 -4.1640762,4.367188 0,1.801268 1.172628,3.411824 2.953124,4.062504 -0.533764,0.727572 -0.818772,1.591312 -0.820312,2.47656 0,2.408096 2.0715482,4.358608 4.6250002,4.359376 1.062912,-0.0014 2.09034,-0.3436 2.914064,-0.976564 0.847564,0.721428 1.94854,1.122692 3.093747,1.125 2.554224,0 4.61719,-1.95756 4.61719,-4.367188 -0.0014,-0.814488 -0.245508,-1.614024 -0.703126,-2.304688 1.96662,-0.546068 3.319542,-2.24614 3.320312,-4.179684 0,-2.40886 -1.53802,-4.326304 -5.085936,-4.359376 -0.15074,0 -0.303144,0.0016 -0.453126,0.0156 0.0184,-0.14844 0.02892,-0.29532 0.03124,-0.445312 0,-2.409628 -2.067698,-4.360144 -4.625001,-4.359376 z m 0.1328,6.796876 a 3.5999998,3.5999998 0 0 1 3.601561,3.601564 3.5999998,3.5999998 0 0 1 -3.601561,3.60156 3.5999998,3.5999998 0 0 1 -3.601564,-3.60156 3.5999998,3.5999998 0 0 1 3.601564,-3.601564 z"
     id="path35"
     inkscape:connector-curvature="0" />
  <path
     inkscape:connector-curvature="0"
     d="m 43.44933,47.992 c 0.636,0.781332 1.314668,1.749332 0.802668,2.789332 C 42.666666,54 37.999998,52.666668 37.999998,58 l 19.999998,0 c 0,-5.333332 -4.666668,-4 -6.252,-7.218668 -0.512,-1.04 0.3,-1.916 0.802668,-2.789332 3.056,-5.302668 0.782664,-9.993332 -4.550666,-9.993332 -5.333332,0 -7.514668,6.348 -4.550668,9.993332 z"
     style="fill:#ffffff;fill-opacity:1"
     id="path47" />
  <path
     inkscape:connector-curvature="0"
     style="fill:#ffffff;fill-opacity:1"
     d="m 5.9999988,13.999998 4,0 0,12 4.0000002,0 0,-12 4,0 0,12 3.999999,0 0,-12 4,0 -9.999999,-8 z"
     id="path6"
     sodipodi:nodetypes="cccccccccccc" />
</svg>
