<?xml version="1.0" encoding="UTF-8"?>
<svg xmlns="http://www.w3.org/2000/svg" xmlns:xlink="http://www.w3.org/1999/xlink" width="64px" height="64px" viewBox="0 0 64 64" version="1.1">
<g id="surface1">
<path style=" stroke:none;fill-rule:nonzero;fill:rgb(21.176471%,53.72549%,90.196078%);fill-opacity:1;" d="M 12.734375 47.089844 L 18.152344 52.507812 C 20.980469 55.335938 26.636719 55.335938 29.464844 52.507812 L 52.09375 29.878906 C 55.015625 26.953125 54.921875 21.394531 51.949219 18.421875 L 46.578125 13.050781 C 43.605469 10.078125 37.949219 10.078125 35.121094 12.90625 L 12.492188 35.535156 C 9.664062 38.363281 9.664062 44.019531 12.734375 47.089844 Z M 18.152344 41.191406 L 40.777344 18.566406 C 43.605469 15.738281 43.605469 15.738281 46.433594 18.566406 C 49.265625 21.394531 49.265625 21.394531 46.433594 24.222656 L 23.808594 46.847656 C 20.980469 49.679688 20.980469 49.679688 18.152344 46.847656 C 15.324219 44.019531 15.324219 44.019531 18.152344 41.191406 Z "/>
<path style=" stroke:none;fill-rule:nonzero;fill:rgb(21.176471%,53.72549%,90.196078%);fill-opacity:1;" d="M 38.65625 20.6875 L 55.628906 3.714844 C 58.457031 0.886719 64.113281 6.542969 61.285156 9.371094 L 44.3125 26.34375 C 41.484375 29.171875 35.828125 23.515625 38.65625 20.6875 Z "/>
<path style=" stroke:none;fill-rule:nonzero;fill:rgb(21.176471%,53.72549%,90.196078%);fill-opacity:1;" d="M 4.714844 54.628906 L 21.6875 37.65625 C 24.515625 34.828125 30.171875 40.484375 27.34375 43.3125 L 10.371094 60.285156 C 7.542969 63.113281 1.886719 57.457031 4.714844 54.628906 Z "/>
<path style=" stroke:none;fill-rule:nonzero;fill:rgb(0%,0%,0%);fill-opacity:0.101961;" d="M 38.65625 20.6875 L 55.628906 3.714844 C 58.457031 0.886719 64.113281 6.542969 61.285156 9.371094 L 44.3125 26.34375 C 41.484375 29.171875 35.828125 23.515625 38.65625 20.6875 Z "/>
<path style=" stroke:none;fill-rule:nonzero;fill:rgb(0%,0%,0%);fill-opacity:0.101961;" d="M 4.714844 54.628906 L 21.6875 37.65625 C 24.515625 34.828125 30.171875 40.484375 27.34375 43.3125 L 10.371094 60.285156 C 7.542969 63.113281 1.886719 57.457031 4.714844 54.628906 Z "/>
<path style=" stroke:none;fill-rule:nonzero;fill:rgb(96.862745%,58.039216%,11.764706%);fill-opacity:1;" d="M 24 40 L 64 40 L 44 64 Z "/>
</g>
</svg>
