<?xml version="1.0" encoding="UTF-8"?>
<svg xmlns="http://www.w3.org/2000/svg" xmlns:xlink="http://www.w3.org/1999/xlink" width="64px" height="64px" viewBox="0 0 64 64" version="1.1">
<g id="surface1">
<path style=" stroke:none;fill-rule:nonzero;fill:rgb(21.176471%,53.72549%,90.196078%);fill-opacity:1;" d="M 12.617188 4 L 51.382812 4 C 56.140625 4 60 7.855469 60 12.613281 L 60 51.382812 C 60 56.140625 56.140625 60 51.382812 60 L 12.617188 60 C 7.859375 60 4 56.140625 4 51.382812 L 4 12.613281 C 4 7.855469 7.859375 4 12.617188 4 Z "/>
<path style=" stroke:none;fill-rule:nonzero;fill:rgb(100%,100%,100%);fill-opacity:0.901961;" d="M 12 12 L 12 28 L 16 28 L 16 16 L 28 16 L 28 12 Z M 36 12 L 36 16 L 48 16 L 48 28 L 52 28 L 52 12 Z M 12 36 L 12 52 L 28 52 L 28 48 L 16 48 L 16 36 Z M 48 36 L 48 48 L 36 48 L 36 52 L 52 52 L 52 36 Z "/>
<path style=" stroke:none;fill-rule:nonzero;fill:rgb(100%,100%,100%);fill-opacity:0.901961;" d="M 20 20 L 20 44 L 44 44 L 44 20 Z M 24 24 L 40 24 L 40 40 L 24 40 Z "/>
</g>
</svg>
