<svg width="32" xmlns="http://www.w3.org/2000/svg" height="32" viewBox="0 0 32 32" xmlns:xlink="http://www.w3.org/1999/xlink">
<g style="fill:#648db5">
<path d="M 15.875 5.335938 C 15.003906 5.339844 14.171875 5.414062 13.441406 5.542969 C 11.289062 5.925781 10.898438 6.722656 10.898438 8.191406 L 10.898438 10.128906 L 15.988281 10.128906 L 15.988281 10.777344 L 8.988281 10.777344 C 7.507812 10.777344 6.210938 11.664062 5.808594 13.355469 C 5.339844 15.296875 5.320312 16.503906 5.808594 18.527344 C 6.167969 20.035156 7.035156 21.109375 8.511719 21.109375 L 10.011719 21.109375 L 10.011719 18.535156 C 10.011719 16.855469 11.464844 15.371094 13.191406 15.371094 L 18.527344 15.371094 C 19.941406 15.371094 21.277344 14.207031 21.277344 12.785156 L 21.277344 8.191406 C 21.277344 6.808594 19.90625 5.773438 18.527344 5.542969 C 17.652344 5.398438 16.742188 5.332031 15.875 5.335938 Z M 13.121094 6.898438 C 13.648438 6.898438 14.078125 7.332031 14.078125 7.871094 C 14.078125 8.402344 13.648438 8.835938 13.121094 8.835938 C 12.59375 8.835938 12.167969 8.402344 12.167969 7.871094 C 12.167969 7.332031 12.59375 6.898438 13.121094 6.898438 Z "/>
<path d="M 21.996094 10.777344 L 21.996094 13.035156 C 21.996094 14.789062 20.511719 16.054688 18.816406 16.054688 L 13.234375 16.054688 C 11.839844 16.054688 10.6875 17.453125 10.6875 18.847656 L 10.6875 23.695312 C 10.6875 25.074219 11.886719 25.886719 13.234375 26.28125 C 14.84375 26.753906 16.597656 26.839844 18.527344 26.28125 C 19.808594 25.910156 21.070312 25.164062 21.070312 23.695312 L 21.070312 21.757812 L 15.988281 21.757812 L 15.988281 21.109375 L 23.613281 21.109375 C 25.09375 21.109375 25.644531 20.078125 26.160156 18.527344 C 26.691406 16.933594 26.667969 15.402344 26.160156 13.355469 C 25.792969 11.882812 25.097656 10.777344 23.613281 10.777344 Z M 18.847656 23.050781 C 19.375 23.050781 19.800781 23.480469 19.800781 24.015625 C 19.800781 24.550781 19.375 24.988281 18.847656 24.988281 C 18.320312 24.988281 17.890625 24.550781 17.890625 24.015625 C 17.890625 23.480469 18.320312 23.050781 18.847656 23.050781 Z "/>
</g>
</svg>
