<?xml version="1.0" encoding="UTF-8" standalone="no"?>
<svg
   xmlns:dc="http://purl.org/dc/elements/1.1/"
   xmlns:cc="http://creativecommons.org/ns#"
   xmlns:rdf="http://www.w3.org/1999/02/22-rdf-syntax-ns#"
   xmlns:svg="http://www.w3.org/2000/svg"
   xmlns="http://www.w3.org/2000/svg"
   xmlns:sodipodi="http://sodipodi.sourceforge.net/DTD/sodipodi-0.dtd"
   xmlns:inkscape="http://www.inkscape.org/namespaces/inkscape"
   width="16"
   height="16"
   viewBox="0 0 16 16"
   id="svg2"
   version="1.1"
   inkscape:version="0.91 r13725"
   sodipodi:docname="image-x-krita2.svg">
  <metadata
     id="metadata16">
    <rdf:RDF>
      <cc:Work
         rdf:about="">
        <dc:format>image/svg+xml</dc:format>
        <dc:type
           rdf:resource="http://purl.org/dc/dcmitype/StillImage" />
        <dc:title></dc:title>
      </cc:Work>
    </rdf:RDF>
  </metadata>
  <defs
     id="defs14" />
  <sodipodi:namedview
     pagecolor="#ffffff"
     bordercolor="#666666"
     borderopacity="1"
     objecttolerance="10"
     gridtolerance="10"
     guidetolerance="10"
     inkscape:pageopacity="0"
     inkscape:pageshadow="2"
     inkscape:window-width="1366"
     inkscape:window-height="713"
     id="namedview12"
     showgrid="false"
     inkscape:zoom="1"
     inkscape:cx="10.701794"
     inkscape:cy="5.7867856"
     inkscape:window-x="0"
     inkscape:window-y="28"
     inkscape:window-maximized="1"
     inkscape:current-layer="svg2">
    <inkscape:grid
       type="xygrid"
       id="grid2993" />
  </sodipodi:namedview>
  <path
     style="fill:#9a773c;fill-opacity:1"
     d="M 2.667969,-4.463e-4 C 2.324219,-4.463e-4 2,0.3378117 2,0.6964464 L 2,15.303108 C 2,15.641365 2.34375,16 2.667969,16 l 10.664062,0 C 13.65625,16 14,15.641365 14,15.303108 L 14,3.9995535 10,-4.463e-4 z"
     id="path4-2"
     inkscape:connector-curvature="0"
     sodipodi:nodetypes="ssssssccs" />
  <path
     style="fill:#000000;fill-opacity:0.19599998"
     d="m 10.583223,3.3315845 0.0154,0.01953 0.04005,-0.01953 z m 0.02978,0.667969 3.387,3.664062 0,-3.664062 z"
     id="path6"
     inkscape:connector-curvature="0"
     sodipodi:nodetypes="cccccccc" />
  <path
     style="fill:#ffffff;fill-opacity:0.39200003"
     d="m 10,-4.463e-4 3.996396,3.9999998 -3.383784,0 C 10.313513,3.9995535 10,3.6824365 10,3.3833375 z"
     id="path8"
     inkscape:connector-curvature="0"
     sodipodi:nodetypes="ccssc" />
  <path
     style="fill:#ffffff;fill-opacity:1;fill-rule:nonzero;stroke:none"
     d="m 5.4241395,5.3339992 c -0.3903943,0 -0.9805526,0.7691748 -0.6720222,1.0448577 L 6.3622522,7.81757 C 6.4231112,7.6960811 6.5011542,7.5716614 6.6095671,7.4536602 6.7278872,7.3254858 6.8418572,7.2417521 6.9468733,7.1711254 L 5.7342542,5.564454 C 5.6072682,5.4285602 5.5847144,5.3339992 5.4241395,5.3339992 Z m 2.9638928,1.8293144 c -0.084069,0 -0.1729566,0.0029 -0.2570263,0.00521 -0.3506106,0.00205 -0.7181796,0.063139 -1.0436427,0.1822803 -0.2327621,0.1889623 -0.3943219,0.3972877 -0.548365,0.6464455 -0.3074064,0.8504252 0.0589,2.2829366 1.4068451,2.6157236 1.5279737,0.375804 1.6095893,-0.03052 2.2640306,0.417943 0.657838,0.447302 0.289518,1.125129 0.601454,0.936791 0.160214,-0.09533 0.668177,-0.808004 0.479091,-1.9705808 C 11.085764,8.7517129 10.552699,8.0884061 10.016295,7.6352911 9.6004759,7.2833205 8.9836777,7.1633151 8.3886798,7.1633151 Z"
     id="path47"
     inkscape:connector-curvature="0"
     sodipodi:nodetypes="cscccccsccccccccss" />
</svg>
