<svg width="16" xmlns="http://www.w3.org/2000/svg" height="16" viewBox="0 0 16 16" xmlns:xlink="http://www.w3.org/1999/xlink">
<g style="fill:#000;fill-opacity:.8">
<path d="M 3.082031 8.34375 C 2.851562 8.355469 2.6875 8.410156 2.6875 8.667969 L 2.6875 14.050781 C 2.6875 14.394531 2.972656 14.667969 3.332031 14.667969 L 12.699219 14.667969 C 13.058594 14.667969 13.355469 14.394531 13.355469 14.050781 L 13.355469 8.667969 C 13.355469 8.324219 13.058594 8.34375 12.699219 8.34375 L 3.332031 8.34375 C 3.242188 8.34375 3.160156 8.339844 3.082031 8.34375 Z M 10 12 L 10.988281 12 L 10.988281 12.332031 L 10.324219 12.332031 L 10.324219 13.332031 L 10.667969 13.332031 L 10.667969 12.667969 L 10.988281 12.667969 L 10.988281 13.667969 L 10 13.667969 Z M 11.332031 12 L 12.332031 12 L 12.332031 12.667969 L 12 12.667969 L 12 13 L 11.667969 13 L 11.65625 13.332031 L 12.324219 13.332031 L 12.324219 13.667969 L 11.332031 13.667969 L 11.332031 13 L 11.667969 13 L 11.667969 12.667969 L 12 12.667969 L 12 12.332031 L 11.332031 12.332031 Z "/>
<path d="M 4.351562 5.675781 L 3.019531 7.675781 L 7.683594 7.675781 L 7.683594 4.675781 L 5.351562 4.675781 C 5.019531 4.675781 4.351562 5.675781 4.351562 5.675781 Z M 8.351562 4.675781 L 8.351562 7.675781 L 13.019531 7.675781 L 11.683594 5.675781 C 11.683594 5.675781 11.019531 4.675781 10.683594 4.675781 Z "/>
</g>
</svg>
