<svg width="16" xmlns="http://www.w3.org/2000/svg" height="16" viewBox="0 0 16 16" xmlns:xlink="http://www.w3.org/1999/xlink">
<defs>
<linearGradient gradientTransform="matrix(.16603 0 0 .16603 -4.97591 .33713)" id="linear0" y1="14" x1="102" y2="24" gradientUnits="userSpaceOnUse" x2="92">
<stop offset="0" style="stop-color:#4e4e4e"/>
<stop offset="1" style="stop-color:#afafaf"/>
</linearGradient>
<linearGradient gradientTransform="matrix(.11494 0 0 .11494 .64369 -33.49459)" id="linear1" y1="413" y2="419" gradientUnits="userSpaceOnUse" x2="0">
<stop offset="0" style="stop-color:#f9f9f9"/>
<stop offset=".5" style="stop-color:#e8e8e8"/>
<stop offset="1" style="stop-color:#d8d8d8"/>
</linearGradient>
</defs>
<path style="fill:#4e4e4e" d="M 2.710938 14.667969 L 11.21875 14.667969 C 13.289062 14.667969 13.289062 12.597656 13.289062 12.597656 L 13.289062 4.320312 C 13.289062 4.320312 10.296875 1.332031 10.296875 1.332031 L 4.78125 1.332031 C 4.78125 1.332031 2.710938 1.332031 2.710938 3.402344 Z "/>
<path style="fill:url(#linear0)" d="M 10.296875 1.332031 L 10.296875 4.320312 L 13.289062 4.320312 Z "/>
<g style="fill-opacity:.149;fill:#ededec">
<path d="M 3.414062 1.582031 L 3.769531 1.582031 L 3.769531 14.625 L 3.414062 14.625 Z "/>
<path d="M 5.179688 1.375 L 5.53125 1.375 L 5.53125 14.667969 L 5.179688 14.667969 Z "/>
<path d="M 6.941406 1.375 L 7.296875 1.375 L 7.296875 14.667969 L 6.941406 14.667969 Z "/>
<path d="M 8.703125 1.375 L 9.058594 1.375 L 9.058594 14.667969 L 8.703125 14.667969 Z "/>
<path d="M 10.460938 4.320312 L 10.820312 4.320312 L 10.820312 14.667969 L 10.460938 14.667969 Z "/>
<path d="M 12.183594 4.324219 L 12.539062 4.324219 L 12.539062 14.523438 L 12.183594 14.523438 Z "/>
<path d="M 2.710938 4.320312 L 13.289062 4.320312 L 13.289062 4.699219 L 2.710938 4.699219 Z "/>
<path d="M 2.710938 6.027344 L 13.289062 6.027344 L 13.289062 6.359375 L 2.710938 6.359375 Z "/>
<path d="M 2.710938 7.6875 L 13.289062 7.6875 L 13.289062 8.019531 L 2.710938 8.019531 Z "/>
<path d="M 2.710938 9.351562 L 13.289062 9.351562 L 13.289062 9.683594 L 2.710938 9.683594 Z "/>
<path d="M 2.710938 11.011719 L 13.289062 11.011719 L 13.289062 11.34375 L 2.710938 11.34375 Z "/>
<path d="M 2.710938 12.671875 L 13.289062 12.671875 L 13.289062 13.003906 L 2.710938 13.003906 Z "/>
<path d="M 2.710938 2.703125 L 10.285156 2.703125 L 10.285156 3.035156 L 2.710938 3.035156 Z "/>
</g>
<path style="fill:url(#linear1)" d="M 2.710938 14.667969 L 11.21875 14.667969 C 13.289062 14.667969 13.289062 12.597656 13.289062 12.597656 C 13.289062 12.597656 13.289062 10.757812 13.289062 10.757812 C 13.289062 10.757812 13.289062 13.976562 11.21875 13.976562 L 4.78125 13.976562 C 4.78125 13.976562 2.710938 13.976562 2.710938 14.667969 Z "/>
<g style="fill:#f9f9f9">
<path d="M 4.667969 4.832031 L 11.332031 4.832031 L 11.332031 5.167969 L 4.667969 5.167969 Z "/>
<path d="M 4.667969 5.5 L 10 5.5 L 10 5.832031 L 4.667969 5.832031 Z "/>
<path d="M 4.667969 6.167969 L 6.332031 6.167969 L 6.332031 6.5 L 4.667969 6.5 Z "/>
<path d="M 7 6.167969 L 9.332031 6.167969 L 9.332031 6.5 L 7 6.5 Z "/>
<path d="M 4.667969 7.167969 L 9.667969 7.167969 L 9.667969 7.5 L 4.667969 7.5 Z "/>
<path d="M 4.667969 7.832031 L 5.667969 7.832031 L 5.667969 8.167969 L 4.667969 8.167969 Z "/>
<path d="M 6.332031 7.832031 L 10.332031 7.832031 L 10.332031 8.167969 L 6.332031 8.167969 Z "/>
<path d="M 4.667969 8.5 L 9.667969 8.5 L 9.667969 8.832031 L 4.667969 8.832031 Z "/>
<path d="M 4.667969 9.5 L 8.332031 9.5 L 8.332031 9.832031 L 4.667969 9.832031 Z "/>
<path d="M 4.667969 10.167969 L 7 10.167969 L 7 10.5 L 4.667969 10.5 Z "/>
<path d="M 7.332031 10.167969 L 10 10.167969 L 10 10.5 L 7.332031 10.5 Z "/>
<path d="M 4.667969 10.832031 L 7.667969 10.832031 L 7.667969 11.167969 L 4.667969 11.167969 Z "/>
</g>
</svg>
