<svg width="16" xmlns="http://www.w3.org/2000/svg" height="16" viewBox="0 0 16 16" xmlns:xlink="http://www.w3.org/1999/xlink">
<defs>
<linearGradient gradientTransform="matrix(.16603 0 0 .16603 -4.97591 .33713)" id="linear0" y1="14" x1="102" y2="24" gradientUnits="userSpaceOnUse" x2="92">
<stop offset="0" style="stop-color:#c8c8c8"/>
<stop offset="1" style="stop-color:#efefef"/>
</linearGradient>
<linearGradient gradientTransform="matrix(.11494 0 0 .11494 .64355 -33.49453)" id="linear1" y1="413" y2="419" gradientUnits="userSpaceOnUse" x2="0">
<stop offset="0" style="stop-color:#5f9fd8"/>
<stop offset=".5" style="stop-color:#4d88bb"/>
<stop offset="1" style="stop-color:#3c78ab"/>
</linearGradient>
</defs>
<path style="fill:#e5e5e5" d="M 2.710938 14.667969 L 11.21875 14.667969 C 13.289062 14.667969 13.289062 12.597656 13.289062 12.597656 L 13.289062 4.320312 C 13.289062 4.320312 10.296875 1.332031 10.296875 1.332031 L 4.78125 1.332031 C 4.78125 1.332031 2.710938 1.332031 2.710938 3.402344 Z "/>
<path style="fill:url(#linear0)" d="M 10.296875 1.332031 L 10.296875 4.320312 L 13.289062 4.320312 Z "/>
<path style="fill:url(#linear1)" d="M 2.710938 14.667969 L 11.21875 14.667969 C 13.289062 14.667969 13.289062 12.597656 13.289062 12.597656 C 13.289062 12.597656 13.289062 10.757812 13.289062 10.757812 C 13.289062 10.757812 13.289062 13.976562 11.21875 13.976562 L 4.78125 13.976562 C 4.78125 13.976562 2.710938 13.976562 2.710938 14.667969 Z "/>
<path style="fill:#5f9fd8;fill-rule:evenodd;stroke:#5f9fd8;stroke-linejoin:round;stroke-linecap:round;stroke-width:.472" d="M 26.648438 14.238281 L 30.761719 14.238281 L 30.761719 31.019531 L 21.679688 31.019531 L 21.679688 33.761719 L 17.238281 29.355469 L 21.867188 24.761719 L 21.867188 27.128906 L 26.648438 27.128906 Z " transform="scale(.33333)"/>
</svg>
