<svg width="16" xmlns="http://www.w3.org/2000/svg" height="16" viewBox="0 0 16 16" xmlns:xlink="http://www.w3.org/1999/xlink">
<defs>
<linearGradient gradientTransform="matrix(.16603 0 0 .16603 -4.97591 .33713)" id="linear0" y1="14" x1="102" y2="24" gradientUnits="userSpaceOnUse" x2="92">
<stop offset="0" style="stop-color:#c8c8c8"/>
<stop offset="1" style="stop-color:#efefef"/>
</linearGradient>
<linearGradient gradientTransform="matrix(.11494 0 0 .11494 .64355 -33.49453)" id="linear1" y1="413" y2="419" gradientUnits="userSpaceOnUse" x2="0">
<stop offset="0" style="stop-color:#5baf34"/>
<stop offset=".5" style="stop-color:#4c902a"/>
<stop offset="1" style="stop-color:#396c20"/>
</linearGradient>
</defs>
<path style="fill:#e5e5e5" d="M 2.710938 14.667969 L 11.21875 14.667969 C 13.289062 14.667969 13.289062 12.597656 13.289062 12.597656 L 13.289062 4.320312 C 13.289062 4.320312 10.296875 1.332031 10.296875 1.332031 L 4.78125 1.332031 C 4.78125 1.332031 2.710938 1.332031 2.710938 3.402344 Z "/>
<path style="fill:url(#linear0)" d="M 10.296875 1.332031 L 10.296875 4.320312 L 13.289062 4.320312 Z "/>
<path style="fill:url(#linear1)" d="M 2.710938 14.667969 L 11.21875 14.667969 C 13.289062 14.667969 13.289062 12.597656 13.289062 12.597656 C 13.289062 12.597656 13.289062 10.757812 13.289062 10.757812 C 13.289062 10.757812 13.289062 13.976562 11.21875 13.976562 L 4.78125 13.976562 C 4.78125 13.976562 2.710938 13.976562 2.710938 14.667969 Z "/>
<path style="fill:#5baf34" d="M 4.667969 6.609375 L 4.667969 9.390625 L 6.332031 9.390625 L 6.332031 8.277344 L 6.054688 8.277344 L 6.054688 7.722656 L 6.332031 7.722656 L 6.332031 6.609375 Z M 6.890625 6.609375 L 6.890625 9.390625 L 7.445312 9.390625 L 7.445312 7.722656 L 8 8.554688 L 8.554688 7.722656 L 8.554688 9.390625 L 9.109375 9.390625 L 9.109375 6.609375 L 8.554688 6.609375 L 8 7.445312 L 7.445312 6.609375 Z M 9.667969 6.609375 L 9.667969 9.390625 L 10.222656 9.390625 L 10.222656 8.277344 L 11.332031 8.277344 L 11.332031 6.609375 Z M 5.222656 7.167969 L 5.777344 7.167969 L 5.777344 7.722656 L 5.222656 7.722656 Z M 10.222656 7.167969 L 10.777344 7.167969 L 10.777344 7.722656 L 10.222656 7.722656 Z M 5.222656 8.277344 L 5.777344 8.277344 L 5.777344 8.832031 L 5.222656 8.832031 Z "/>
</svg>
