<svg version="1.1" viewBox="0 0 16 16" xmlns="http://www.w3.org/2000/svg">
 <path d="m2.67 0c-0.344 0-0.668 0.338-0.668 0.697v14.6c0 0.338 0.344 0.697 0.668 0.697h10.7c0.324 0 0.668-0.359 0.668-0.697v-11.3l-4-4z" style="fill:#e66f00"/>
 <path d="m10.6 4 3.39 3.66v-3.66z" style="opacity:.2"/>
 <path d="m10 0 4 4h-3.38c-0.299 0-0.613-0.317-0.613-0.616z" style="fill:#fff;opacity:.4"/>
 <path d="m8.9 4.33c0.38 1.32-1.33 1.72-1.95 2.54-0.424 0.563 0.206 1.17 1.06 1.85-0.334-0.667-1.47-1.25 0-2.28 1.83-1.28 0.893-2.11 0.893-2.11zm1.13 1.63s-3.1 0.683-1.62 2.19c0.436 0.443-0.111 0.844-0.111 0.844 0 0 1.1-0.506 0.598-1.14-0.474-0.588-0.837-0.886 1.13-1.9zm0.504 2.69c-0.0948 0.00408-0.195 0.0195-0.297 0.0508-0.0957 0.0307-0.145 0.0996-0.145 0.0996s0.061-0.0202 0.195-0.0469c0.547-0.0987 1.33 0.65-0.369 1.43v0.00195c-0.00667 0.0144-0.0332 0.0352-0.0332 0.0352 2.05-0.477 1.56-1.61 0.648-1.57zm-3.67 0.0762c-0.216 0.00425-0.722 0.0449-1.31 0.299-0.927 0.396 2.29 0.578 3.96 0.188 0.173-0.105 0.412-0.193 0.412-0.193s-0.68 0.104-1.36 0.156c-0.832 0.0627-1.72 0.0735-2.17 0.0215-1.06-0.125 0.58-0.469 0.58-0.469-0.00137-8.7e-5 -0.0387-0.00334-0.109-0.00195zm-0.27 0.906c-1.53 0.448 0.849 0.958 2.99 0.406-0.229-0.072-0.375-0.203-0.375-0.203-1.04 0.183-1.65 0.177-2.42 0.104-0.592-0.052-0.201-0.307-0.201-0.307zm0.211 0.877c-1.39 0.344 0.85 1.06 2.62 0.385-0.29-0.0987-0.498-0.219-0.498-0.219-0.792 0.136-1.15 0.148-1.88 0.0742-0.592-0.0627-0.246-0.24-0.246-0.24zm-0.896 0.58c-0.596-0.0199-1.95 0.511-0.793 0.676 3.6 0.521 6.57-0.234 5.65-0.604 0.0284 0.0232 0.208 0.191-0.289 0.326-1.02 0.276-4.25 0.359-5.15 0.00976-0.324-0.125 0.279-0.296 0.469-0.332 0.201-0.036 0.313-0.0312 0.312-0.0312-0.0446-0.028-0.114-0.0421-0.199-0.0449zm4.85 0.0723c-0.00219-0.00178-0.00391-0.00195-0.00391-0.00195v0.00195c0.00116 4.6e-4 0.00276-4.61e-4 0.00391 0zm0.564 0.402s-0.111 0.256-1.34 0.465c-1.39 0.229-3.1 0.202-4.12 0.0566l0.00195 0.00195c0.0267 0.0168 0.271 0.154 1.28 0.213 1.63 0.088 4.13-0.0537 4.19-0.736z" style="fill:#fff"/>
</svg>
