<svg version="1.1" viewBox="0 0 16 16" xmlns="http://www.w3.org/2000/svg">
 <path d="m2.67 0c-0.344 0-0.668 0.338-0.668 0.697v14.6c0 0.338 0.344 0.697 0.668 0.697h10.7c0.324 0 0.668-0.359 0.668-0.697v-11.3l-4-4z" style="fill:#c19553"/>
 <path d="m10.6 3.33 0.015 0.02 0.04-0.02zm0.03 0.668 3.39 3.66v-3.66z" style="opacity:.2"/>
 <path d="m10 0 4 4h-3.38c-0.299 0-0.613-0.317-0.613-0.616z" style="fill:#fff;opacity:.4"/>
 <path d="m4 0v1h1v-1h-1zm1 1v1h1v-1h-1zm0 1h-1v1h1v-1zm0 1v1h1v-1h-1zm0 1h-1v1h1v-1zm0 1v1h1v-1h-1zm-1 2v2h2v-2h-2z" style="fill:#fff"/>
</svg>
