<svg width="16" xmlns="http://www.w3.org/2000/svg" height="16" viewBox="0 0 16 16" xmlns:xlink="http://www.w3.org/1999/xlink">
<defs>
<linearGradient gradientTransform="matrix(.16603 0 0 .16603 -4.97591 .33713)" id="linear0" y1="14" x1="102" y2="24" gradientUnits="userSpaceOnUse" x2="92">
<stop offset="0" style="stop-color:#c8c8c8"/>
<stop offset="1" style="stop-color:#efefef"/>
</linearGradient>
<linearGradient gradientTransform="matrix(.11494 0 0 .11494 .64355 -33.49453)" id="linear1" y1="413" y2="419" gradientUnits="userSpaceOnUse" x2="0">
<stop offset="0" style="stop-color:#5baf34"/>
<stop offset=".5" style="stop-color:#4c902a"/>
<stop offset="1" style="stop-color:#396c20"/>
</linearGradient>
</defs>
<path style="fill:#e5e5e5" d="M 2.710938 14.667969 L 11.21875 14.667969 C 13.289062 14.667969 13.289062 12.597656 13.289062 12.597656 L 13.289062 4.320312 C 13.289062 4.320312 10.296875 1.332031 10.296875 1.332031 L 4.78125 1.332031 C 4.78125 1.332031 2.710938 1.332031 2.710938 3.402344 Z "/>
<path style="fill:url(#linear0)" d="M 10.296875 1.332031 L 10.296875 4.320312 L 13.289062 4.320312 Z "/>
<path style="fill:url(#linear1)" d="M 2.710938 14.667969 L 11.21875 14.667969 C 13.289062 14.667969 13.289062 12.597656 13.289062 12.597656 C 13.289062 12.597656 13.289062 10.757812 13.289062 10.757812 C 13.289062 10.757812 13.289062 13.976562 11.21875 13.976562 L 4.78125 13.976562 C 4.78125 13.976562 2.710938 13.976562 2.710938 14.667969 Z "/>
<path style="fill:#5baf34" d="M 4.667969 6.667969 L 4.667969 7.199219 L 5.179688 7.199219 L 5.179688 9.332031 L 5.691406 9.332031 L 5.691406 7.199219 L 6.207031 7.199219 L 6.207031 6.667969 Z M 6.71875 6.667969 L 6.71875 9.332031 L 7.230469 9.332031 L 7.230469 6.667969 Z M 7.742188 6.667969 L 7.742188 9.332031 L 8.257812 9.332031 L 8.257812 8.265625 L 9.28125 8.265625 L 9.28125 7.734375 L 8.257812 7.734375 L 8.257812 7.199219 L 9.28125 7.199219 L 9.28125 6.667969 Z M 9.792969 6.667969 L 9.792969 9.332031 L 10.308594 9.332031 L 10.308594 8.265625 L 11.332031 8.265625 L 11.332031 7.734375 L 10.308594 7.734375 L 10.308594 7.199219 L 11.332031 7.199219 L 11.332031 6.667969 Z "/>
</svg>
