<svg version="1.1" viewBox="0 0 16 16" xmlns="http://www.w3.org/2000/svg">
 <path d="m2.67 0c-0.344 0-0.668 0.338-0.668 0.697v14.6c0 0.338 0.344 0.697 0.668 0.697h10.7c0.324 0 0.63-0.359 0.63-0.697v-11.3l-4-4z" style="fill:#3178c6"/>
 <path d="m10.6 4 3.39 3.66v-3.66z" style="opacity:.2"/>
 <path d="m10 0 4 4h-3.38c-0.299 0-0.613-0.317-0.613-0.616z" style="fill:#fff;opacity:.4"/>
 <path d="m4 5v1h1l-0.00195 7h1v-7h1l0.00195-1h-3zm4 0v4h2l-0.00195 3h-2v1h3v-5h-2v-2h2v-1h-3z" style="fill:#fff"/>
</svg>
