<svg version="1.1" viewBox="0 0 16 16" xmlns="http://www.w3.org/2000/svg">
 <path d="m2.67 0c-0.344 0-0.668 0.338-0.668 0.697v14.6c0 0.338 0.344 0.697 0.668 0.697h10.7c0.324 0 0.668-0.359 0.668-0.697v-11.3l-4-4z" style="fill:#d83752"/>
 <path d="m10.6 4 3.39 3.66v-3.66z" style="opacity:.2"/>
 <path d="m10 0 4 4h-3.38c-0.299 0-0.613-0.317-0.613-0.616z" style="opacity:.4;fill:#fff"/>
 <path d="m6.8 5-2.8 8 1.6-0.5 0.9-2.5h2.5l0.3 1 1.7 3.9e-4 -2.3-6zm0.949 1.5 0.85 2.5h-1.75z" style="fill:#fff"/>
</svg>
