<svg version="1.1" viewBox="0 0 16 16" xmlns="http://www.w3.org/2000/svg">
 <path d="m2.67 0c-.344 0-.668.338-.668.697v14.6c0 .338.344.697.668.697h10.7c.324 0 .668-.359.668-.697v-11.3l-4-4z" fill="#b079c1"/>
 <path d="m10.6 3.33.015.02.04-.02zm.03.668 3.39 3.66v-3.66z" fill-opacity=".196"/>
 <path d="m10 0 4 4h-3.38c-.299 0-.613-.317-.613-.616z" fill="#fff" fill-opacity=".392"/>
 <path d="m8 5a1.5 1.5 0 00-1.5 1.5 1.5 1.5 0 001.5 1.5 1.5 1.5 0 001.5-1.5 1.5 1.5 0 00-1.5-1.5zm-2.5 4a1.5 1.5 0 00-1.5 1.5 1.5 1.5 0 001.5 1.5 1.5 1.5 0 001.5-1.5 1.5 1.5 0 00-1.5-1.5zm5 0a1.5 1.5 0 00-1.5 1.5 1.5 1.5 0 001.5 1.5 1.5 1.5 0 001.5-1.5 1.5 1.5 0 00-1.5-1.5z" fill="#fff"/>
</svg>
