<?xml version="1.0" encoding="UTF-8" standalone="no"?>
<svg
   xmlns:dc="http://purl.org/dc/elements/1.1/"
   xmlns:cc="http://creativecommons.org/ns#"
   xmlns:rdf="http://www.w3.org/1999/02/22-rdf-syntax-ns#"
   xmlns:svg="http://www.w3.org/2000/svg"
   xmlns="http://www.w3.org/2000/svg"
   xmlns:sodipodi="http://sodipodi.sourceforge.net/DTD/sodipodi-0.dtd"
   xmlns:inkscape="http://www.inkscape.org/namespaces/inkscape"
   width="16"
   height="16"
   viewBox="0 0 16 16"
   id="svg2"
   version="1.1"
   inkscape:version="0.91 r13725"
   sodipodi:docname="text-rust0d.svg">
  <metadata
     id="metadata16">
    <rdf:RDF>
      <cc:Work
         rdf:about="">
        <dc:format>image/svg+xml</dc:format>
        <dc:type
           rdf:resource="http://purl.org/dc/dcmitype/StillImage" />
        <dc:title />
      </cc:Work>
    </rdf:RDF>
  </metadata>
  <defs
     id="defs14" />
  <sodipodi:namedview
     pagecolor="#ffffff"
     bordercolor="#666666"
     borderopacity="1"
     objecttolerance="10"
     gridtolerance="10"
     guidetolerance="10"
     inkscape:pageopacity="0"
     inkscape:pageshadow="2"
     inkscape:window-width="1366"
     inkscape:window-height="704"
     id="namedview12"
     showgrid="true"
     inkscape:zoom="128"
     inkscape:cx="7.4016933"
     inkscape:cy="5.783347"
     inkscape:window-x="0"
     inkscape:window-y="27"
     inkscape:window-maximized="1"
     inkscape:current-layer="svg2"
     inkscape:object-nodes="true">
    <inkscape:grid
       type="xygrid"
       id="grid3004" />
  </sodipodi:namedview>
  <path
     style="fill:#b2542c;fill-opacity:1"
     d="M 2.667969,-4.46e-4 C 2.324219,-4.46e-4 2,0.337812 2,0.696447 L 2,15.303108 C 2,15.641365 2.34375,16 2.667969,16 l 10.664062,0 C 13.65625,16 14,15.641365 14,15.303108 l 0,-11.303554 -4,-4 z"
     id="path4-9"
     inkscape:connector-curvature="0"
     sodipodi:nodetypes="ssssssccs" />
  <path
     style="fill:#000000;fill-opacity:0.19599998"
     d="m 10.583223,3.331585 0.0154,0.01953 0.04005,-0.01953 z m 0.02978,0.667969 3.387,3.6640618 0,-3.6640618 z"
     id="path6"
     inkscape:connector-curvature="0"
     sodipodi:nodetypes="cccccccc" />
  <path
     style="fill:#ffffff;fill-opacity:0.39200003"
     d="m 10,-4.46e-4 3.996396,4 -3.383784,0 C 10.313513,3.999554 10,3.682437 10,3.383338 z"
     id="path8"
     inkscape:connector-curvature="0"
     sodipodi:nodetypes="ccssc" />
  <g
     transform="matrix(1.1777925,0,0,1.061307,0,-2.2499953)"
     style="font-style:normal;font-weight:normal;font-size:16.5667572px;line-height:125%;font-family:sans-serif;letter-spacing:0px;word-spacing:0px;fill:#ffffff;fill-opacity:1;stroke:none;stroke-width:1px;stroke-linecap:butt;stroke-linejoin:miter;stroke-opacity:1"
     id="text4213" />
  <path
     style="opacity:1;fill:#ffffff;fill-opacity:1;stroke:none;stroke-width:2;stroke-linecap:round;stroke-linejoin:round;stroke-miterlimit:4;stroke-dasharray:none;stroke-opacity:1"
     d="M 7.75 4 L 7.3125 5.1640625 A 3.9000001 3.9000001 0 0 0 6.6777344 5.3359375 L 5.7167969 4.5449219 L 5.2832031 4.7949219 L 5.4863281 6.0175781 A 3.9000001 3.9000001 0 0 0 5.0214844 6.4882812 L 3.7949219 6.2832031 L 3.5449219 6.7167969 L 4.3359375 7.6757812 A 3.9000001 3.9000001 0 0 0 4.1601562 8.3144531 L 3 8.75 L 3 9.25 L 4.1640625 9.6875 A 3.9000001 3.9000001 0 0 0 4.3359375 10.322266 L 3.5449219 11.283203 L 3.7949219 11.716797 L 5.0175781 11.513672 A 3.9000001 3.9000001 0 0 0 5.4882812 11.978516 L 5.2832031 13.205078 L 5.7167969 13.455078 L 6.6757812 12.664062 A 3.9000001 3.9000001 0 0 0 7.3144531 12.839844 L 7.75 14 L 8.25 14 L 8.6875 12.835938 A 3.9000001 3.9000001 0 0 0 9.3222656 12.664062 L 10.283203 13.455078 L 10.716797 13.205078 L 10.513672 11.982422 A 3.9000001 3.9000001 0 0 0 10.978516 11.511719 L 12.205078 11.716797 L 12.455078 11.283203 L 11.664062 10.324219 A 3.9000001 3.9000001 0 0 0 11.839844 9.6855469 L 13 9.25 L 13 8.75 L 11.835938 8.3125 A 3.9000001 3.9000001 0 0 0 11.664062 7.6777344 L 12.455078 6.7167969 L 12.205078 6.2832031 L 10.982422 6.4863281 A 3.9000001 3.9000001 0 0 0 10.511719 6.0214844 L 10.716797 4.7949219 L 10.283203 4.5449219 L 9.3242188 5.3359375 A 3.9000001 3.9000001 0 0 0 8.6855469 5.1601562 L 8.25 4 L 7.75 4 z M 8 6 A 3 3 0 0 1 11 9 A 3 3 0 0 1 8 12 A 3 3 0 0 1 5 9 A 3 3 0 0 1 8 6 z "
     id="path4239" />
  <path
     sodipodi:nodetypes="cccscccscccccccccccccccccc"
     inkscape:connector-curvature="0"
     id="path4143"
     style="font-style:normal;font-variant:normal;font-weight:bold;font-stretch:normal;font-size:6.69263983px;line-height:125%;font-family:'Roboto Slab';-inkscape-font-specification:'Roboto Slab Bold';letter-spacing:0px;word-spacing:0px;fill:#ffffff;fill-opacity:1;stroke:none;stroke-width:1px;stroke-linecap:butt;stroke-linejoin:miter;stroke-opacity:1"
     d="m 8,7.0000002 c 1.1782291,0 2,0.4716883 2,1.3699998 0,0.6666665 -0.6960053,0.887096 -0.9925307,0.97 0.2931555,0.131533 0.5550824,0.182279 0.8719087,0.76 0.190801,0.347917 0.230895,0.333185 0.820622,0.349667 l 0,0.550332 -1.0769697,0 C 9.2088722,10.999999 9.098679,10.721295 8.87,10.3 8.5277207,9.669409 8.1440646,9.704439 7.7,9.7 l -0.7,0 0,0.733334 1,-1e-6 L 8,11 l -2.8,0 0,-0.566667 0.8,1e-6 0,-2.8666672 -0.8,0 0,-0.5666666 z M 7,9 8,9 C 8.7479105,8.9924001 9,8.7345419 9,8.37 9,7.8840572 8.5711064,7.75 8.1,7.75 l -1.1,0 z" />
</svg>
