<svg version="1.1" viewBox="0 0 16 16" xmlns="http://www.w3.org/2000/svg">
 <path d="m2.67 0c-0.344 0-0.668 0.338-0.668 0.697v14.6c0 0.338 0.344 0.697 0.668 0.697h10.7c0.324 0 0.668-0.359 0.668-0.697v-11.3l-4-4z" style="fill:#91dc47"/>
 <path d="m10.6 4 3.39 3.66v-3.66z" style="opacity:.2"/>
 <path d="m10 0 4 4h-3.38c-0.299 0-0.613-0.317-0.613-0.616z" style="fill:#fff;opacity:.4"/>
 <g transform="matrix(1 0 0 .85 33.2 3.01)" style="fill:#fff">
  <path d="m-28.2 10.6 2.11-5.6-0.965-2.63h1.74l3.12 8.24h-1.82l-1.25-3.89-1.2 3.89z" style="fill:#fff"/>
 </g>
</svg>
