<svg width="16" xmlns="http://www.w3.org/2000/svg" height="16" viewBox="0 0 16 16" xmlns:xlink="http://www.w3.org/1999/xlink">
<defs>
<linearGradient gradientTransform="matrix(.375 0 0 .38889 -1.25 -.61111)" id="linear0" y1="13.571" x1="25.556" y2="5.857" gradientUnits="userSpaceOnUse" x2="33.556">
<stop offset="0" style="stop-color:#000"/>
<stop offset="1" style="stop-color:#000;stop-opacity:0"/>
</linearGradient>
<radialGradient cx="24" cy="24" gradientTransform="matrix(.51111 .17778 -.20363 .58543 .62043 -10.31708)" id="radial0" r="15" gradientUnits="userSpaceOnUse">
<stop offset="0" style="stop-color:#e4e5e2"/>
<stop offset=".5" style="stop-color:#d6d9d2"/>
<stop offset="1" style="stop-color:#b7beb1"/>
</radialGradient>
</defs>
<path style="fill:url(#radial0)" d="M 3.449219 1.335938 C 3.207031 1.359375 3 1.589844 3 1.835938 L 3 14.167969 C 3 14.429688 3.238281 14.667969 3.503906 14.667969 L 12.496094 14.667969 C 12.761719 14.667969 13 14.429688 13 14.167969 L 13 3 L 10.667969 1.332031 L 3.503906 1.335938 C 3.484375 1.332031 3.46875 1.332031 3.449219 1.335938 Z "/>
<path style="fill:url(#linear0)" d="M 10.667969 1.332031 L 10.667969 3 L 13 3 L 13 2.5 L 11.125 1.332031 Z "/>
<path style="fill:#ee2828" d="M 5.667969 5 L 4.667969 6 L 4.667969 7.667969 L 8 11 L 11.332031 7.667969 L 11.332031 6 L 10.332031 5 Z M 6.667969 5.332031 L 6.667969 7.667969 L 8 10.667969 L 6.332031 7.667969 L 6.332031 6 Z "/>
</svg>
