<svg width="16" xmlns="http://www.w3.org/2000/svg" height="16" viewBox="0 0 16 16" xmlns:xlink="http://www.w3.org/1999/xlink">
<defs>
<linearGradient gradientTransform="matrix(.375 0 0 .38889 -1.25 -.61111)" id="linear0" y1="13.571" x1="25.556" y2="5.857" gradientUnits="userSpaceOnUse" x2="33.556">
<stop offset="0" style="stop-color:#000"/>
<stop offset="1" style="stop-color:#000;stop-opacity:0"/>
</linearGradient>
<radialGradient cx="24" cy="24" gradientTransform="matrix(.51111 .17778 -.20363 .58543 .62043 -10.31708)" id="radial0" r="15" gradientUnits="userSpaceOnUse">
<stop offset="0" style="stop-color:#e4e5e2"/>
<stop offset=".5" style="stop-color:#d6d9d2"/>
<stop offset="1" style="stop-color:#b7beb1"/>
</radialGradient>
</defs>
<path style="fill:url(#radial0)" d="M 3.449219 1.335938 C 3.207031 1.359375 3 1.589844 3 1.835938 L 3 14.167969 C 3 14.429688 3.238281 14.667969 3.503906 14.667969 L 12.496094 14.667969 C 12.761719 14.667969 13 14.429688 13 14.167969 L 13 3 L 10.667969 1.332031 L 3.503906 1.335938 C 3.484375 1.332031 3.46875 1.332031 3.449219 1.335938 Z "/>
<path style="fill:url(#linear0)" d="M 10.667969 1.332031 L 10.667969 3 L 13 3 L 13 2.5 L 11.125 1.332031 Z "/>
<g style="fill:#878985">
<path d="M 7.851562 4.105469 C 7.550781 4.105469 7.261719 4.132812 7.007812 4.175781 C 6.257812 4.308594 6.121094 4.585938 6.121094 5.097656 L 6.121094 5.769531 L 7.890625 5.769531 L 7.890625 5.996094 L 5.457031 5.996094 C 4.945312 5.996094 4.496094 6.304688 4.355469 6.894531 C 4.191406 7.566406 4.183594 7.988281 4.355469 8.691406 C 4.480469 9.214844 4.78125 9.585938 5.292969 9.585938 L 5.902344 9.585938 L 5.902344 8.777344 C 5.902344 8.195312 6.40625 7.679688 7.007812 7.679688 L 8.773438 7.679688 C 9.265625 7.679688 9.65625 7.273438 9.65625 6.78125 L 9.65625 5.097656 C 9.65625 4.617188 9.253906 4.257812 8.773438 4.175781 C 8.46875 4.128906 8.15625 4.105469 7.851562 4.105469 Z M 6.894531 4.648438 C 7.078125 4.648438 7.226562 4.800781 7.226562 4.984375 C 7.226562 5.171875 7.078125 5.320312 6.894531 5.320312 C 6.710938 5.320312 6.5625 5.171875 6.5625 4.984375 C 6.5625 4.800781 6.710938 4.648438 6.894531 4.648438 Z "/>
<path d="M 10.003906 6.101562 L 10.003906 6.886719 C 10.003906 7.496094 9.488281 8.007812 8.898438 8.007812 L 7.132812 8.007812 C 6.648438 8.007812 6.246094 8.421875 6.246094 8.90625 L 6.246094 10.589844 C 6.246094 11.070312 6.664062 11.351562 7.132812 11.488281 C 7.691406 11.652344 8.230469 11.683594 8.898438 11.488281 C 9.34375 11.359375 9.78125 11.101562 9.78125 10.589844 L 9.78125 9.914062 L 8.015625 9.914062 L 8.015625 9.691406 L 10.667969 9.691406 C 11.179688 9.691406 11.375 9.332031 11.550781 8.792969 C 11.738281 8.242188 11.730469 7.707031 11.550781 6.996094 C 11.425781 6.484375 11.183594 6.101562 10.667969 6.101562 Z M 9.011719 10.367188 C 9.195312 10.367188 9.34375 10.515625 9.34375 10.703125 C 9.34375 10.886719 9.195312 11.039062 9.011719 11.039062 C 8.828125 11.039062 8.679688 10.886719 8.679688 10.703125 C 8.679688 10.515625 8.828125 10.367188 9.011719 10.367188 Z "/>
</g>
</svg>
