<svg width="256" xmlns="http://www.w3.org/2000/svg" height="256" viewBox="0 0 256 256" xmlns:xlink="http://www.w3.org/1999/xlink">
<path style="fill:#53cded;fill-opacity:.298" d="M 55.417969 31.667969 C 42.265625 31.667969 31.667969 42.265625 31.667969 55.417969 L 31.667969 197.917969 C 31.667969 211.066406 42.265625 221.667969 55.417969 221.667969 L 197.917969 221.667969 C 211.066406 221.667969 221.667969 211.066406 221.667969 197.917969 L 221.667969 55.417969 C 221.667969 42.265625 211.066406 31.667969 197.917969 31.667969 Z "/>
<path style="fill:#fff;fill-opacity:.8" d="M 79.167969 55.417969 L 174.167969 55.417969 L 174.167969 142.5 L 142.5 142.5 L 142.5 150.417969 L 110.832031 150.417969 L 110.832031 110.832031 L 142.5 110.832031 L 142.5 87.082031 L 110.832031 87.082031 L 110.832031 95 L 79.167969 95 Z M 110.832031 166.25 L 142.5 166.25 L 142.5 197.917969 L 110.832031 197.917969 Z "/>
</svg>
