<?xml version="1.0" encoding="UTF-8" standalone="no"?>
<svg
   xmlns:dc="http://purl.org/dc/elements/1.1/"
   xmlns:cc="http://creativecommons.org/ns#"
   xmlns:rdf="http://www.w3.org/1999/02/22-rdf-syntax-ns#"
   xmlns:svg="http://www.w3.org/2000/svg"
   xmlns="http://www.w3.org/2000/svg"
   xmlns:sodipodi="http://sodipodi.sourceforge.net/DTD/sodipodi-0.dtd"
   xmlns:inkscape="http://www.inkscape.org/namespaces/inkscape"
   width="64"
   height="64"
   viewBox="0 0 64 64"
   id="svg2"
   version="1.1"
   inkscape:version="0.91 r"
   sodipodi:docname="applications-libraries.svg">
  <metadata
     id="metadata16">
    <rdf:RDF>
      <cc:Work
         rdf:about="">
        <dc:format>image/svg+xml</dc:format>
        <dc:type
           rdf:resource="http://purl.org/dc/dcmitype/StillImage" />
        <dc:title />
      </cc:Work>
    </rdf:RDF>
  </metadata>
  <defs
     id="defs14" />
  <sodipodi:namedview
     pagecolor="#ffffff"
     bordercolor="#666666"
     borderopacity="1"
     objecttolerance="10"
     gridtolerance="10"
     guidetolerance="10"
     inkscape:pageopacity="0"
     inkscape:pageshadow="2"
     inkscape:window-width="1680"
     inkscape:window-height="1026"
     id="namedview12"
     showgrid="true"
     inkscape:zoom="20.85965"
     inkscape:cx="11.412643"
     inkscape:cy="13.367941"
     inkscape:window-x="0"
     inkscape:window-y="24"
     inkscape:window-maximized="1"
     inkscape:current-layer="svg2">
    <inkscape:grid
       type="xygrid"
       id="grid4144" />
  </sodipodi:namedview>
  <path
     style="fill:#b2a445"
     d="M 9.5625196,6 C 8.6963772,6 8,6.7358399 8,7.660156 L 8,56.339844 C 8,57.264162 8.6963772,58 9.5625196,58 l 8.8672994,0 c 0.873545,0 1.570332,-0.735838 1.570332,-1.660156 l 0,-48.679688 C 20.000151,6.7358399 19.303363,6 18.429819,6 Z m 0.4375054,4 8.000101,0 0,20 -8.000101,0 z m 4.00005,35 c 1.656875,0 3.000038,1.343146 3.000038,3 0,1.656854 -1.343163,3 -3.000038,3 -1.656875,0 -3.000037,-1.343146 -3.000037,-3 0,-1.656854 1.343162,-3 3.000037,-3 z"
     id="path6"
     inkscape:connector-curvature="0"
     sodipodi:nodetypes="ssssssssscccccsssss" />
  <path
     style="fill:#b2a445"
     d="m 25.386937,6 c -0.765342,0 -1.386736,0.7358399 -1.386736,1.660156 l 0,48.679688 C 24.000201,57.264162 24.621595,58 25.386937,58 l 5.218815,0 c 0.778422,0 1.39455,-0.735838 1.39455,-1.660156 l 0,-48.679688 C 32.000302,6.7358399 31.384174,6 30.605752,6 Z m 0.613289,4 4.000051,0 0,20 -4.000051,0 z m 2.000026,36 c 1.104583,0 2.000025,0.89543 2.000025,2 0,1.10457 -0.895442,2 -2.000025,2 -1.104584,0 -2.000026,-0.89543 -2.000026,-2 0,-1.10457 0.895442,-2 2.000026,-2 z"
     id="path8"
     inkscape:connector-curvature="0"
     sodipodi:nodetypes="ssssssssscccccsssss" />
  <path
     style="fill:#b2a445"
     d="m 34.931149,7.751066 c -0.924078,0.247398 -1.484847,1.158696 -1.245614,2.050776 l 12.599388,46.981992 c 0.239235,0.892082 1.180907,1.401138 2.104985,1.153742 l 6.301235,-1.68699 c 0.939874,-0.251628 1.492395,-1.160714 1.25316,-2.052798 L 43.344914,7.215796 C 43.105681,6.3237159 42.172256,5.81245 41.232384,6.064076 Z m 1.291866,3.791808 5.795627,-1.551626 5.176447,19.302504 -5.795629,1.551626 z m 11.956594,33.003568 c 1.600418,-0.42847 3.245449,0.52049 3.67428,2.119562 0.428832,1.599072 -0.520928,3.24272 -2.121346,3.671188 -1.600418,0.428472 -3.245451,-0.52049 -3.67428,-2.11956 -0.428832,-1.599072 0.520928,-3.242718 2.121346,-3.67119 z"
     id="path8-1"
     inkscape:connector-curvature="0"
     sodipodi:nodetypes="ssssssssscccccsssss" />
</svg>
