<svg width="64" xmlns="http://www.w3.org/2000/svg" height="64" viewBox="0 0 64 64" xmlns:xlink="http://www.w3.org/1999/xlink">
<g style="fill:none;stroke-linecap:round;stroke:#88b485">
<path style="stroke-width:8.073" d="M 34.388895 32.020513 L 221.601531 32.020513 C 222.927824 32.020513 223.969912 33.07839 223.969912 34.388895 L 223.969912 221.601531 C 223.969912 222.927824 222.927824 223.969912 221.601531 223.969912 L 34.388895 223.969912 C 33.07839 223.969912 32.020513 222.927824 32.020513 221.601531 L 32.020513 34.388895 C 32.020513 33.07839 33.07839 32.020513 34.388895 32.020513 Z " transform="scale(.2474)"/>
<g style="stroke-linejoin:round">
<path style="stroke-width:5.223" d="M 62.730522 117.029608 L 94.0721 117.029608 L 94.0721 148.371185 L 62.730522 148.371185 Z " transform="scale(.2474)"/>
<path style="stroke-width:5.063" d="M 193.402006 132.708291 C 193.402006 141.392355 186.34423 148.450131 177.628587 148.450131 C 168.944523 148.450131 161.902536 141.392355 161.902536 132.708291 C 161.902536 123.992649 168.944523 116.950662 177.628587 116.950662 C 186.34423 116.950662 193.402006 123.992649 193.402006 132.708291 Z " transform="scale(.2474)"/>
<path style="stroke-width:5.223" d="M 69.819877 60.630558 L 186.154759 60.630558 C 190.102061 60.630558 193.259903 64.072605 193.259903 68.398848 L 193.259903 84.188056 C 193.259903 88.498509 190.102061 91.940557 186.154759 91.940557 L 69.819877 91.940557 C 65.872575 91.940557 62.683155 88.498509 62.683155 84.188056 L 62.683155 68.398848 C 62.683155 64.072605 65.872575 60.630558 69.819877 60.630558 Z " transform="scale(.2474)"/>
</g>
</g>
<path style="fill:#88b485;fill-rule:evenodd" d="M 45.886719 32.832031 C 45.886719 33.898438 45.019531 34.773438 43.945312 34.773438 C 42.878906 34.773438 42.011719 33.898438 42.011719 32.832031 C 42.011719 31.765625 42.878906 30.890625 43.945312 30.890625 C 45.019531 30.890625 45.886719 31.765625 45.886719 32.832031 Z "/>
<g style="fill:none;stroke-linecap:round;stroke:#88b485;stroke-linejoin:round">
<g style="stroke-width:5.223">
<path d="M 151.497448 60.598979 L 151.497448 91.924768 L 184.086373 91.924768 C 189.186287 91.924768 193.244114 87.630103 193.244114 82.261772 L 193.244114 70.340921 C 193.244114 64.97259 189.186287 60.598979 184.086373 60.598979 Z " transform="scale(.2474)"/>
<path d="M 62.730522 164.049869 L 94.0721 164.049869 L 94.0721 195.391446 L 62.730522 195.391446 Z " transform="scale(.2474)"/>
</g>
<path style="stroke-width:5.063" d="M 193.402006 179.712763 C 193.402006 188.428405 186.34423 195.470392 177.628587 195.470392 C 168.944523 195.470392 161.902536 188.428405 161.902536 179.712763 C 161.902536 171.028698 168.944523 163.970923 177.628587 163.970923 C 186.34423 163.970923 193.402006 171.028698 193.402006 179.712763 Z " transform="scale(.2474)"/>
</g>
<g style="fill:#88b485">
<path d="M 17.453125 30.890625 L 18.75 30.890625 L 18.75 32.1875 L 17.453125 32.1875 Z "/>
<path d="M 17.453125 33.476562 L 18.75 33.476562 L 18.75 34.773438 L 17.453125 34.773438 Z "/>
<path d="M 20.039062 33.476562 L 21.335938 33.476562 L 21.335938 34.773438 L 20.039062 34.773438 Z "/>
<path d="M 20.039062 30.890625 L 21.335938 30.890625 L 21.335938 32.1875 L 20.039062 32.1875 Z "/>
<path d="M 18.75 32.1875 L 20.039062 32.1875 L 20.039062 33.476562 L 18.75 33.476562 Z "/>
<path d="M 40.710938 17.726562 L 42 17.726562 L 42 19.023438 L 40.710938 19.023438 Z "/>
<path d="M 43.292969 17.726562 L 44.582031 17.726562 L 44.582031 19.023438 L 43.292969 19.023438 Z "/>
<path d="M 42 19.023438 L 43.292969 19.023438 L 43.292969 20.3125 L 42 20.3125 Z "/>
</g>
</svg>
