<svg width="64" xmlns="http://www.w3.org/2000/svg" height="64" viewBox="0 0 64 64" xmlns:xlink="http://www.w3.org/1999/xlink">
<g style="fill:#648db5">
<path d="M 31.746094 10.671875 C 30.007812 10.679688 28.347656 10.828125 26.882812 11.089844 C 22.578125 11.847656 21.792969 13.441406 21.792969 16.378906 L 21.792969 20.257812 L 31.972656 20.257812 L 31.972656 21.550781 L 17.972656 21.550781 C 15.015625 21.550781 12.425781 23.332031 11.613281 26.714844 C 10.679688 30.589844 10.640625 33.007812 11.613281 37.058594 C 12.339844 40.070312 14.066406 42.21875 17.023438 42.21875 L 20.023438 42.21875 L 20.023438 37.066406 C 20.023438 33.707031 22.933594 30.746094 26.382812 30.746094 L 37.050781 30.746094 C 39.882812 30.746094 42.558594 28.414062 42.558594 25.574219 L 42.558594 16.378906 C 42.558594 13.621094 39.8125 11.546875 37.050781 11.089844 C 35.300781 10.796875 33.488281 10.664062 31.746094 10.671875 Z M 26.242188 13.792969 C 27.292969 13.792969 28.152344 14.667969 28.152344 15.738281 C 28.152344 16.808594 27.292969 17.671875 26.242188 17.671875 C 25.1875 17.671875 24.332031 16.808594 24.332031 15.738281 C 24.332031 14.667969 25.1875 13.792969 26.242188 13.792969 Z "/>
<path d="M 43.992188 21.550781 L 43.992188 26.074219 C 43.992188 29.578125 41.023438 32.109375 37.632812 32.109375 L 26.46875 32.109375 C 23.683594 32.109375 21.378906 34.910156 21.378906 37.699219 L 21.378906 47.390625 C 21.378906 50.148438 23.777344 51.773438 26.46875 52.5625 C 29.6875 53.511719 33.195312 53.683594 37.050781 52.5625 C 39.613281 51.820312 42.140625 50.328125 42.140625 47.390625 L 42.140625 43.511719 L 31.972656 43.511719 L 31.972656 42.21875 L 47.230469 42.21875 C 50.1875 42.21875 51.289062 40.15625 52.320312 37.058594 C 53.382812 33.871094 53.335938 30.804688 52.320312 26.714844 C 51.589844 23.769531 50.191406 21.550781 47.230469 21.550781 Z M 37.691406 46.097656 C 38.746094 46.097656 39.601562 46.964844 39.601562 48.03125 C 39.601562 49.105469 38.746094 49.976562 37.691406 49.976562 C 36.640625 49.976562 35.78125 49.105469 35.78125 48.03125 C 35.78125 46.964844 36.640625 46.097656 37.691406 46.097656 Z "/>
</g>
</svg>
