<?xml version="1.0" encoding="UTF-8" standalone="no"?>
<svg
   xmlns:dc="http://purl.org/dc/elements/1.1/"
   xmlns:cc="http://creativecommons.org/ns#"
   xmlns:rdf="http://www.w3.org/1999/02/22-rdf-syntax-ns#"
   xmlns:svg="http://www.w3.org/2000/svg"
   xmlns="http://www.w3.org/2000/svg"
   xmlns:sodipodi="http://sodipodi.sourceforge.net/DTD/sodipodi-0.dtd"
   xmlns:inkscape="http://www.inkscape.org/namespaces/inkscape"
   width="64"
   height="64"
   viewBox="0 0 64 64"
   id="svg2"
   version="1.1"
   inkscape:version="0.91 r"
   sodipodi:docname="preferences-certificates.svg">
  <metadata
     id="metadata30">
    <rdf:RDF>
      <cc:Work
         rdf:about="">
        <dc:format>image/svg+xml</dc:format>
        <dc:type
           rdf:resource="http://purl.org/dc/dcmitype/StillImage" />
        <dc:title />
      </cc:Work>
    </rdf:RDF>
  </metadata>
  <defs
     id="defs28" />
  <sodipodi:namedview
     pagecolor="#ffffff"
     bordercolor="#666666"
     borderopacity="1"
     objecttolerance="10"
     gridtolerance="10"
     guidetolerance="10"
     inkscape:pageopacity="0"
     inkscape:pageshadow="2"
     inkscape:window-width="1366"
     inkscape:window-height="704"
     id="namedview26"
     showgrid="false"
     inkscape:zoom="8"
     inkscape:cx="13.548193"
     inkscape:cy="33.17767"
     inkscape:window-x="0"
     inkscape:window-y="27"
     inkscape:window-maximized="1"
     inkscape:current-layer="svg2">
    <inkscape:grid
       type="xygrid"
       id="grid4158" />
  </sodipodi:namedview>
  <path
     inkscape:connector-curvature="0"
     d="m 31.984346,4.999994 c -2.036028,0 -3.743154,1.164342 -4.526238,2.807178 -1.55051,-1.052692 -3.711826,-1.26004 -5.465936,-0.287098 -1.754112,0.956992 -2.678154,2.791228 -2.505875,4.577614 -1.879405,-0.01596 -3.837119,0.717744 -4.839468,2.360582 -1.018012,1.658786 -0.814409,3.700371 0.313234,5.167758 C 13.221614,20.359722 12,21.98661 12,23.900594 c 0,1.913986 1.221614,3.540872 2.960063,4.274568 -1.111982,1.467388 -1.331246,3.493022 -0.313234,5.167758 1.002349,1.642838 2.960064,2.52008 4.839468,2.360582 -0.172276,1.786386 0.751763,3.62062 2.505875,4.577614 0.783084,0.430644 1.146436,0.590144 2.00783,0.590144 l 0,20.12874 8,-7.08174 8,7.08174 0,-20.12874 c 0.845736,0 1.224748,-0.016 2.007834,-0.590144 1.754116,-0.956994 2.678152,-2.791228 2.505872,-4.577614 1.879408,0.016 3.837124,-0.717744 4.839468,-2.360582 1.018012,-1.658786 0.814412,-3.70037 -0.31324,-5.167758 C 50.778384,27.441466 52,25.81458 52,23.900594 52,21.98661 50.778384,20.359722 49.039936,19.626028 50.15192,18.158641 50.37118,16.133006 49.353176,14.45827 48.350832,12.815432 46.393116,11.938189 44.513708,12.097688 44.685988,10.311302 43.761952,8.477066 42.007836,7.520074 40.253726,6.563082 38.092406,6.75448 36.541898,7.807172 35.758814,6.164336 34.051686,4.999994 32.015662,4.999994 Z m 0,7.001995 c 6.891144,0 12.498042,5.279408 12.498042,11.802907 0,6.523498 -5.591234,11.802906 -12.498042,11.802906 -6.891156,0 -12.498049,-5.279408 -12.498049,-11.802906 0,-6.523499 5.591231,-11.802907 12.498049,-11.802907 z m 0,2.360581 c -5.512926,0 -9.992174,4.226717 -9.992174,9.442326 0,5.215608 4.479248,9.442324 9.992174,9.442324 5.512916,0 9.992164,-4.226716 9.992164,-9.442324 0,-5.215609 -4.479248,-9.442326 -9.992164,-9.442326 z"
     style="fill:#d64c62;fill-opacity:1"
     id="path39"
     sodipodi:nodetypes="scccccscccccccccccccscccscssssssssssss" />
</svg>
