<svg width="22" xmlns="http://www.w3.org/2000/svg" viewBox="0 0 22 22" height="22">
<defs>
<clipPath>
<rect width="16" x="0" y="0" height="16"/>
</clipPath>
</defs>
<g style="line-height:normal;color:#000">
<path style="opacity:.3" d="M 3.8928651,4.0007499 C 3.4012816,4.0467433 2.9978794,4.5069741 3.0000084,5.000703 l 0,9.999532 c 5.2e-5,0.523423 0.4764161,0.999853 0.9999995,0.999952 l 7.9999961,0 L 16.000001,20 l 0,-3.999813 1.999999,0 c 0.523584,-9.9e-5 0.999947,-0.476529 1,-0.999952 L 19,5.000703 C 18.999947,4.4771785 18.523584,4.0007499 18,4.0007499 l -13.9999921,0 c -0.03123,-9.999e-4 -0.075913,-9.999e-4 -0.1071428,0 z m 2.535713,2.2856072 1.5357135,0 0.071429,0 c 0.3875004,0.015624 0.7303562,0.1848128 0.9999995,0.4285513 l 1.9642839,1.6784927 1.999999,-1.6784927 c 0.403571,-0.3062356 0.669643,-0.4191518 1.035714,-0.4285513 l 1.535713,0 0,1.3213666 c 0,0.3827946 -0.06607,0.7700519 -0.392857,1.0356657 l -1.964285,1.6784936 1.928571,1.678492 c 0.285714,0.249988 0.428571,0.611131 0.428571,0.96424 l 0,1.321367 -1.535713,0 c -0.403572,0 -0.785714,-0.142851 -1.071428,-0.392839 l -1.964285,-1.678492 -1.9642844,1.678492 c -0.2857142,0.249988 -0.669642,0.392839 -1.071428,0.392839 l -1.5357135,0 0,-1.321367 c 0,-0.353109 0.1410719,-0.714252 0.4285712,-0.96424 L 8.821434,10.321883 6.8571493,8.6433894 C 6.5357186,8.3840255 6.3946467,7.9827061 6.4285781,7.6077237 l 0,-1.3213666 z"/>
<path style="fill:#e63f5b" d="M 3.8928651,3.0007499 C 3.4012816,3.0467433 2.9978794,3.5069741 3.0000084,4.000703 l 0,9.999532 c 5.2e-5,0.523423 0.4764161,0.999853 0.9999995,0.999952 l 7.9999961,0 L 16.000001,19 l 0,-3.999813 1.999999,0 c 0.523584,-9.9e-5 0.999947,-0.476529 1,-0.999952 L 19,4.000703 C 18.999947,3.4771785 18.523584,3.0007499 18,3.0007499 l -13.9999921,0 c -0.03123,-9.999e-4 -0.075913,-9.999e-4 -0.1071428,0 z m 2.535713,2.2856072 1.5357135,0 0.071429,0 c 0.3875004,0.015624 0.7303562,0.1848128 0.9999995,0.4285513 l 1.9642839,1.6784927 1.999999,-1.6784927 c 0.403571,-0.3062356 0.669643,-0.4191518 1.035714,-0.4285513 l 1.535713,0 0,1.3213666 c 0,0.3827946 -0.06607,0.7700519 -0.392857,1.0356657 l -1.964285,1.6784936 1.928571,1.678492 c 0.285714,0.249988 0.428571,0.611131 0.428571,0.96424 l 0,1.321367 -1.535713,0 c -0.403572,0 -0.785714,-0.142851 -1.071428,-0.392839 l -1.964285,-1.678492 -1.9642844,1.678492 c -0.2857142,0.249988 -0.669642,0.392839 -1.071428,0.392839 l -1.5357135,0 0,-1.321367 c 0,-0.353109 0.1410719,-0.714252 0.4285712,-0.96424 L 8.821434,9.321883 6.8571493,7.6433894 C 6.5357186,7.3840255 6.3946467,6.9827061 6.4285781,6.6077237 l 0,-1.3213666 z"/>
</g>
</svg>
