<svg xmlns="http://www.w3.org/2000/svg" viewBox="0 0 15 22" width="15" height="22">
 <g fill="none" stroke-linecap="round">
  <g transform="translate(0 6)">
   <path d="m6.5-1.5h2c2.216 0 4 1.338 4 3v9c0 1.662-1.784 3-4 3h-2c-2.216 0-4-1.338-4-3v-9c0-1.662 1.784-3 4-3zm1.0419 0.000001v4" opacity="0.3" stroke="#000"/>
  </g>
  <g transform="translate(0 6)" stroke="#dcdcdc">
   <g transform="translate(-5 -7)" opacity="0.3">
    <path d="m12.5 5.3333v3.3333" stroke-width="2"/>
    <rect width="13.5" x="-18.75" y="8.25" rx="2.3" ry="3.3" height="8.5" transform="matrix(0 -1 1 0 0 0)" stroke-width="0.5"/>
   </g>
   <path d="m6.5-2.5h2c2.216 0 4 1.338 4 3v9c0 1.662-1.784 3-4 3h-2c-2.216 0-4-1.338-4-3v-9c0-1.662 1.784-3 4-3zm1.0419 0.000001v4"/>
  </g>
 </g>
 <g transform="matrix(1.2857143,0,0,1,-2.1428572,7)">
  <path d="M 5,8 C 4.4484,8 3.9877082,8.4489371 4,9 c 0.032187,1.442998 1.249741,2 3,2 l 1,0 c 1.5780187,0 2.880255,-0.41302 3,-2 0.03892,-0.5158337 -0.386,-1 -1,-1 z" fill="#df382c" fill-rule="evenodd"/>
 </g>
</svg>
