<svg xmlns="http://www.w3.org/2000/svg" viewBox="0 0 16 16">
<g style="fill:#bebebe" transform="translate(-100.0002 -746)">
<path d="m 103.34395,749.52122 c -1.20207,0.2879 -1.99303,1.09829 -2.1875,2.4375 -0.0536,0.5628 -0.28002,1.34482 0.25,1.71875 0.70817,0.42322 1.57418,0.35362 2.34375,0.21875 0.56137,-0.14838 0.80163,-0.2025 1.25,-0.625 0,0 -0.0518,-1.07046 0.1875,-1.65625 1.931,-0.81073 3.81009,-0.75064 5.6875,0 0.23926,0.58579 0.1875,1.65625 0.1875,1.65625 0.44837,0.4225 0.68863,0.47662 1.25,0.625 0.76957,0.13487 1.63558,0.20447 2.34375,-0.21875 0.53002,-0.37393 0.30355,-1.15595 0.25,-1.71875 -0.19447,-1.33921 -0.98543,-2.1496 -2.1875,-2.4375 -3.13782,-0.59102 -6.2763,-0.72425 -9.375,0 z"/>
<path style="line-height:normal;color:#bebebe" d="m 111.00018,757 -1.00001,0 c -0.25689,10e-6 -0.52845,0.12983 -0.71875,0.31251 l -1.28124,1.28124 -1.28125,-1.28125 c -0.19004,-0.18293 -0.46186,-0.3125 -0.71878,-0.31245 l -1,0 -1e-5,1 c 0,0.30945 0.0903,0.55231 0.28131,0.74998 l 2.71875,2.65625 2.71874,-2.65625 c 0.19093,-0.19772 0.28126,-0.44056 0.28126,-0.75 l 0,-1 z"/>
</g>
</svg>
