<svg xmlns="http://www.w3.org/2000/svg" viewBox="0 0 16 16">
<g style="fill:#bebebe;color:#bebebe" transform="translate(-260.0002 -706)">
<rect width="5" x="-274" y="709" height="2" transform="scale(-1 1)"/>
<rect width="6" x="-274" y="713" height="2" transform="scale(-1 1)"/>
<rect width="7" x="-271" y="717" height="2" transform="scale(-1 1)"/>
<path style="line-height:normal" d="m 261.59415,709 0,1 c 0,0.25689 0.12983,0.52846 0.3125,0.71875 L 263.1879,712 l -1.28125,1.28125 c -0.18267,0.19029 -0.3125,0.46186 -0.3125,0.71875 l 0,1 1,0 c 0.30945,0 0.55232,-0.0903 0.75,-0.28125 L 266.0004,712 263.34415,709.28125 C 263.14647,709.0903 262.9036,709 262.59415,709 l -1,0 z"/>
</g>
</svg>
