<svg width="16" xmlns="http://www.w3.org/2000/svg" height="16" viewBox="0 0 16 16" xmlns:xlink="http://www.w3.org/1999/xlink">
<path style="fill:#785a8b" d="M 2.667969 0.332031 C 2.324219 0.332031 2 0.65625 2 1 L 2 15 C 2 15.324219 2.34375 15.667969 2.667969 15.667969 L 13.332031 15.667969 C 13.65625 15.667969 14 15.324219 14 15 L 14 4.667969 L 9.667969 0.332031 Z "/>
<path style="fill:#000;fill-opacity:.196" d="M 9.667969 4 L 9.6875 4.019531 L 9.738281 4 Z M 10.332031 4.667969 L 14 8.332031 L 14 4.667969 Z "/>
<path style="fill:#fff;fill-opacity:.392" d="M 9.667969 0.332031 L 14 4.667969 L 10.332031 4.667969 C 10.007812 4.667969 9.667969 4.324219 9.667969 4 Z "/>
<path style="fill:#000;fill-opacity:.196" d="M 2 11.667969 L 2 15 C 2 15.324219 2.34375 15.667969 2.667969 15.667969 L 13.332031 15.667969 C 13.65625 15.667969 14 15.324219 14 15 L 14 11.667969 Z "/>
<g style="fill:#fff">
<path d="M 6 6 L 6 9.332031 L 5 9.332031 L 6 11 L 6.667969 11 L 6.667969 6.667969 C 8.089844 6.667969 9.628906 6.667969 11 6.667969 L 11 6 Z M 7.925781 7.089844 L 7.246094 7.800781 L 8.4375 9.042969 L 7.246094 10.289062 L 7.925781 11 L 9.121094 9.753906 L 10.3125 11 L 10.996094 10.289062 L 9.800781 9.042969 L 10.996094 7.800781 L 10.3125 7.089844 L 9.121094 8.332031 Z "/>
<path d="M 5.253906 13.667969 C 5.253906 13.789062 5.261719 13.90625 5.269531 14.015625 C 5.28125 14.125 5.304688 14.21875 5.335938 14.296875 C 5.371094 14.378906 5.417969 14.441406 5.476562 14.488281 C 5.535156 14.535156 5.617188 14.558594 5.71875 14.558594 C 5.816406 14.558594 5.894531 14.535156 5.953125 14.488281 C 6.015625 14.441406 6.0625 14.378906 6.09375 14.296875 C 6.128906 14.214844 6.152344 14.121094 6.160156 14.011719 C 6.171875 13.90625 6.179688 13.789062 6.179688 13.667969 C 6.179688 13.542969 6.171875 13.425781 6.160156 13.320312 C 6.152344 13.210938 6.128906 13.113281 6.09375 13.035156 C 6.0625 12.957031 6.015625 12.890625 5.957031 12.84375 C 5.898438 12.796875 5.816406 12.773438 5.71875 12.773438 C 5.617188 12.773438 5.535156 12.796875 5.476562 12.84375 C 5.417969 12.890625 5.371094 12.957031 5.335938 13.039062 C 5.304688 13.117188 5.28125 13.210938 5.269531 13.320312 C 5.261719 13.425781 5.253906 13.542969 5.253906 13.667969 M 4.667969 13.667969 C 4.667969 13.226562 4.757812 12.894531 4.945312 12.671875 C 5.128906 12.445312 5.386719 12.332031 5.71875 12.332031 C 6.058594 12.332031 6.320312 12.445312 6.5 12.671875 C 6.679688 12.894531 6.769531 13.226562 6.769531 13.667969 C 6.769531 14.105469 6.675781 14.441406 6.496094 14.664062 C 6.3125 14.886719 6.054688 15 5.722656 15 C 5.378906 15 5.117188 14.886719 4.933594 14.664062 C 4.757812 14.441406 4.667969 14.105469 4.667969 13.667969 "/>
<path d="M 7.730469 14.535156 C 7.746094 14.535156 7.761719 14.539062 7.78125 14.539062 C 7.800781 14.539062 7.816406 14.539062 7.832031 14.539062 C 7.964844 14.539062 8.074219 14.515625 8.164062 14.472656 C 8.253906 14.425781 8.324219 14.367188 8.378906 14.289062 C 8.4375 14.210938 8.476562 14.121094 8.496094 14.015625 C 8.523438 13.910156 8.535156 13.792969 8.535156 13.667969 C 8.535156 13.554688 8.523438 13.449219 8.507812 13.34375 C 8.488281 13.238281 8.453125 13.148438 8.40625 13.066406 C 8.359375 12.988281 8.296875 12.925781 8.214844 12.878906 C 8.132812 12.828125 8.027344 12.804688 7.898438 12.804688 C 7.875 12.804688 7.84375 12.804688 7.8125 12.808594 C 7.78125 12.808594 7.753906 12.8125 7.730469 12.816406 L 7.730469 14.535156 M 9.125 13.667969 C 9.125 13.902344 9.089844 14.105469 9.019531 14.273438 C 8.953125 14.4375 8.863281 14.574219 8.742188 14.679688 C 8.621094 14.78125 8.480469 14.859375 8.3125 14.910156 C 8.148438 14.957031 7.96875 14.980469 7.769531 14.980469 C 7.667969 14.980469 7.566406 14.972656 7.464844 14.960938 C 7.367188 14.953125 7.261719 14.9375 7.148438 14.917969 L 7.148438 12.425781 C 7.28125 12.398438 7.40625 12.382812 7.523438 12.375 C 7.636719 12.367188 7.746094 12.363281 7.847656 12.363281 C 8.039062 12.363281 8.210938 12.386719 8.371094 12.4375 C 8.53125 12.484375 8.664062 12.566406 8.773438 12.671875 C 8.886719 12.777344 8.96875 12.910156 9.03125 13.078125 C 9.09375 13.238281 9.125 13.433594 9.125 13.667969 "/>
<path d="M 9.546875 14.945312 L 9.546875 12.390625 L 11.332031 12.390625 L 11.332031 12.8125 L 10.128906 12.8125 L 10.128906 13.429688 L 11.183594 13.429688 L 11.183594 13.851562 L 10.128906 13.851562 L 10.128906 14.945312 L 9.546875 14.945312 "/>
</g>
</svg>
