<svg width="16" xmlns="http://www.w3.org/2000/svg" height="16" viewBox="0 0 16 16" xmlns:xlink="http://www.w3.org/1999/xlink">
<path style="fill:#c19553" d="M 2.667969 0.332031 C 2.324219 0.332031 2 0.65625 2 1 L 2 15 C 2 15.324219 2.34375 15.667969 2.667969 15.667969 L 13.332031 15.667969 C 13.65625 15.667969 14 15.324219 14 15 L 14 4.667969 L 9.667969 0.332031 Z "/>
<path style="fill:#000;fill-opacity:.196" d="M 9.667969 4 L 9.6875 4.019531 L 9.738281 4 Z M 10.332031 4.667969 L 14 8.332031 L 14 4.667969 Z "/>
<path style="fill:#fff;fill-opacity:.392" d="M 9.667969 0.332031 L 14 4.667969 L 10.332031 4.667969 C 10.007812 4.667969 9.667969 4.324219 9.667969 4 Z "/>
<path style="fill:#000;fill-opacity:.196" d="M 2 11.667969 L 2 15 C 2 15.324219 2.34375 15.667969 2.667969 15.667969 L 13.332031 15.667969 C 13.65625 15.667969 14 15.324219 14 15 L 14 11.667969 Z "/>
<g style="fill:#fff">
<path d="M 6 0.332031 L 6 1.667969 L 7.332031 1.667969 L 7.332031 0.332031 Z M 6 1.667969 L 4.667969 1.667969 L 4.667969 3 L 6 3 Z M 6 3 L 6 4.332031 L 7.332031 4.332031 L 7.332031 3 Z M 6 4.332031 L 4.667969 4.332031 L 4.667969 5.667969 L 6 5.667969 Z M 6 5.667969 L 6 7 L 7.332031 7 L 7.332031 5.667969 Z M 4.667969 7.667969 L 4.667969 10.332031 L 7.332031 10.332031 L 7.332031 7.667969 Z "/>
<path d="M 6.53125 12.746094 C 6.398438 12.925781 6.273438 13.097656 6.160156 13.257812 C 6.050781 13.417969 5.945312 13.570312 5.847656 13.714844 C 5.753906 13.859375 5.660156 14 5.574219 14.132812 C 5.488281 14.265625 5.40625 14.394531 5.328125 14.523438 L 6.574219 14.523438 L 6.574219 14.945312 L 4.667969 14.945312 L 4.667969 14.652344 C 4.734375 14.535156 4.808594 14.410156 4.886719 14.28125 C 4.964844 14.148438 5.050781 14.007812 5.148438 13.859375 C 5.246094 13.710938 5.347656 13.550781 5.460938 13.378906 C 5.574219 13.203125 5.703125 13.015625 5.839844 12.8125 L 4.726562 12.8125 L 4.726562 12.390625 L 6.53125 12.390625 L 6.53125 12.746094 "/>
<path d="M 7.496094 13.667969 C 7.496094 13.789062 7.503906 13.90625 7.511719 14.015625 C 7.523438 14.125 7.546875 14.21875 7.578125 14.296875 C 7.613281 14.378906 7.65625 14.441406 7.71875 14.488281 C 7.777344 14.535156 7.855469 14.558594 7.957031 14.558594 C 8.050781 14.558594 8.128906 14.535156 8.1875 14.488281 C 8.25 14.441406 8.296875 14.378906 8.328125 14.296875 C 8.363281 14.214844 8.386719 14.121094 8.394531 14.011719 C 8.40625 13.90625 8.414062 13.789062 8.414062 13.667969 C 8.414062 13.542969 8.40625 13.425781 8.394531 13.320312 C 8.386719 13.210938 8.363281 13.113281 8.328125 13.035156 C 8.296875 12.957031 8.253906 12.890625 8.195312 12.84375 C 8.132812 12.796875 8.054688 12.773438 7.957031 12.773438 C 7.855469 12.773438 7.777344 12.796875 7.71875 12.84375 C 7.65625 12.890625 7.613281 12.957031 7.578125 13.039062 C 7.546875 13.117188 7.523438 13.210938 7.511719 13.320312 C 7.503906 13.425781 7.496094 13.542969 7.496094 13.667969 M 6.914062 13.667969 C 6.914062 13.226562 7.003906 12.894531 7.1875 12.671875 C 7.375 12.445312 7.628906 12.332031 7.957031 12.332031 C 8.296875 12.332031 8.554688 12.445312 8.730469 12.671875 C 8.910156 12.894531 8.996094 13.226562 8.996094 13.667969 C 8.996094 14.105469 8.90625 14.441406 8.726562 14.664062 C 8.546875 14.886719 8.289062 15 7.960938 15 C 7.621094 15 7.359375 14.886719 7.179688 14.664062 C 7.003906 14.441406 6.914062 14.105469 6.914062 13.667969 "/>
<path d="M 9.832031 13.667969 C 9.832031 13.789062 9.839844 13.90625 9.847656 14.015625 C 9.859375 14.125 9.882812 14.21875 9.914062 14.296875 C 9.949219 14.378906 9.992188 14.441406 10.054688 14.488281 C 10.113281 14.535156 10.191406 14.558594 10.292969 14.558594 C 10.386719 14.558594 10.464844 14.535156 10.523438 14.488281 C 10.585938 14.441406 10.632812 14.378906 10.664062 14.296875 C 10.699219 14.214844 10.722656 14.121094 10.730469 14.011719 C 10.742188 13.90625 10.75 13.789062 10.75 13.667969 C 10.75 13.542969 10.742188 13.425781 10.730469 13.320312 C 10.722656 13.210938 10.699219 13.113281 10.664062 13.035156 C 10.632812 12.957031 10.589844 12.890625 10.53125 12.84375 C 10.46875 12.796875 10.390625 12.773438 10.292969 12.773438 C 10.191406 12.773438 10.113281 12.796875 10.054688 12.84375 C 9.992188 12.890625 9.949219 12.957031 9.914062 13.039062 C 9.882812 13.117188 9.859375 13.210938 9.847656 13.320312 C 9.839844 13.425781 9.832031 13.542969 9.832031 13.667969 M 9.25 13.667969 C 9.25 13.226562 9.339844 12.894531 9.523438 12.671875 C 9.710938 12.445312 9.964844 12.332031 10.292969 12.332031 C 10.632812 12.332031 10.890625 12.445312 11.066406 12.671875 C 11.246094 12.894531 11.332031 13.226562 11.332031 13.667969 C 11.332031 14.105469 11.242188 14.441406 11.0625 14.664062 C 10.882812 14.886719 10.625 15 10.296875 15 C 9.957031 15 9.695312 14.886719 9.515625 14.664062 C 9.339844 14.441406 9.25 14.105469 9.25 13.667969 "/>
</g>
</svg>
