<svg width="16" xmlns="http://www.w3.org/2000/svg" height="16" viewBox="0 0 16 16" xmlns:xlink="http://www.w3.org/1999/xlink">
<path style="fill:#edaf02" d="M 2.667969 0.332031 C 2.324219 0.332031 2 0.65625 2 1 L 2 15 C 2 15.324219 2.34375 15.667969 2.667969 15.667969 L 13.332031 15.667969 C 13.65625 15.667969 14 15.324219 14 15 L 14 1 C 14 0.65625 13.675781 0.332031 13.332031 0.332031 Z "/>
<path style="fill:#fff" d="M 5 11 L 5 5 L 11 5 L 11 11 L 7.667969 11 L 7.667969 8 L 9.332031 8 L 9.332031 9 L 8.667969 9 L 8.667969 10 L 10 10 L 10 6 L 6 6 L 6 11 Z "/>
</svg>
