<svg width="16" xmlns="http://www.w3.org/2000/svg" height="16" viewBox="0 0 16 16" xmlns:xlink="http://www.w3.org/1999/xlink">
<path style="fill:#dc322f" d="M 2.667969 0.332031 C 2.324219 0.332031 2 0.65625 2 1 L 2 15 C 2 15.324219 2.34375 15.667969 2.667969 15.667969 L 13.332031 15.667969 C 13.65625 15.667969 14 15.324219 14 15 L 14 4.667969 L 9.667969 0.332031 Z "/>
<path style="fill:#000;fill-opacity:.196" d="M 9.667969 4 L 9.6875 4.019531 L 9.738281 4 Z M 10.332031 4.667969 L 14 8.332031 L 14 4.667969 Z "/>
<path style="fill:#fff;fill-opacity:.392" d="M 9.667969 0.332031 L 14 4.667969 L 10.332031 4.667969 C 10.007812 4.667969 9.667969 4.324219 9.667969 4 Z "/>
<path style="fill:#fff" d="M 5.144531 6.003906 C 5.003906 6.019531 5 6.085938 5 6.335938 L 5 7.335938 L 11 7.335938 L 11 6.335938 C 11 6.003906 11 6.003906 10.667969 6.003906 L 5.332031 6.003906 C 5.25 6.003906 5.191406 5.996094 5.144531 6.003906 Z M 5 7.667969 L 5 11.667969 C 5 12 5 12 5.332031 12 L 10.667969 12 C 11 12 11 12 11 11.667969 L 11 7.667969 Z M 9.082031 8.335938 C 9.300781 8.335938 9.492188 8.390625 9.65625 8.492188 C 9.820312 8.59375 9.945312 8.734375 10.03125 8.929688 C 10.117188 9.121094 10.167969 9.347656 10.167969 9.617188 C 10.167969 10.191406 10.046875 10.621094 9.800781 10.90625 C 9.558594 11.191406 9.183594 11.332031 8.6875 11.332031 C 8.511719 11.332031 8.382812 11.320312 8.292969 11.300781 L 8.292969 10.8125 C 8.40625 10.839844 8.523438 10.855469 8.644531 10.855469 C 8.855469 10.855469 9.023438 10.820312 9.15625 10.761719 C 9.289062 10.699219 9.398438 10.609375 9.46875 10.480469 C 9.539062 10.347656 9.582031 10.167969 9.59375 9.9375 L 9.5625 9.9375 C 9.484375 10.0625 9.394531 10.148438 9.292969 10.199219 C 9.1875 10.25 9.070312 10.28125 8.917969 10.28125 C 8.660156 10.28125 8.449219 10.195312 8.300781 10.03125 C 8.152344 9.867188 8.082031 9.644531 8.082031 9.355469 C 8.082031 9.042969 8.175781 8.785156 8.355469 8.605469 C 8.535156 8.421875 8.773438 8.335938 9.082031 8.335938 Z M 6.78125 8.367188 L 7.300781 8.367188 L 7.300781 11.292969 L 6.675781 11.292969 L 6.675781 9.324219 L 6.6875 9.023438 C 6.582031 9.125 6.507812 9.1875 6.46875 9.21875 L 6.136719 9.492188 L 5.832031 9.117188 Z M 9.011719 8.835938 C 8.925781 8.851562 8.847656 8.894531 8.792969 8.960938 C 8.71875 9.046875 8.6875 9.179688 8.6875 9.34375 C 8.6875 9.484375 8.714844 9.59375 8.78125 9.679688 C 8.847656 9.761719 8.949219 9.804688 9.082031 9.804688 C 9.210938 9.804688 9.316406 9.757812 9.40625 9.679688 C 9.496094 9.59375 9.542969 9.503906 9.542969 9.398438 C 9.542969 9.238281 9.5 9.101562 9.417969 8.992188 C 9.332031 8.882812 9.222656 8.835938 9.09375 8.835938 C 9.0625 8.835938 9.039062 8.828125 9.011719 8.835938 Z "/>
</svg>
