<svg width="64" xmlns="http://www.w3.org/2000/svg" height="64" viewBox="0 0 64 64" xmlns:xlink="http://www.w3.org/1999/xlink">
<path style="fill:#dcdcdc" d="M 10.667969 1.332031 C 9.296875 1.332031 8 2.628906 8 4 L 8 60 C 8 61.296875 9.371094 62.667969 10.667969 62.667969 L 53.332031 62.667969 C 54.628906 62.667969 56 61.296875 56 60 L 56 4 C 56 2.628906 54.703125 1.332031 53.332031 1.332031 Z "/>
<g style="fill:#888">
<path d="M 18.667969 21.332031 L 18.667969 22.667969 L 45.332031 22.667969 L 45.332031 21.332031 Z "/>
<path d="M 18.667969 24 L 18.667969 25.332031 L 45.332031 25.332031 L 45.332031 24 Z "/>
<path d="M 18.667969 26.667969 L 18.667969 28 L 45.332031 28 L 45.332031 26.667969 Z "/>
<path d="M 18.667969 29.332031 L 18.667969 30.667969 L 45.332031 30.667969 L 45.332031 29.332031 Z "/>
<path d="M 18.667969 32 L 18.667969 33.332031 L 45.332031 33.332031 L 45.332031 32 Z "/>
<path d="M 18.667969 34.667969 L 18.667969 36 L 45.332031 36 L 45.332031 34.667969 Z "/>
<path d="M 18.667969 37.332031 L 18.667969 38.667969 L 45.332031 38.667969 L 45.332031 37.332031 Z "/>
<path d="M 18.667969 40 L 18.667969 41.332031 L 45.332031 41.332031 L 45.332031 40 Z "/>
<path d="M 18.667969 42.667969 L 18.667969 44 L 45.332031 44 L 45.332031 42.667969 Z "/>
</g>
</svg>
