<svg width="64" xmlns="http://www.w3.org/2000/svg" height="64" viewBox="0 0 64 64" xmlns:xlink="http://www.w3.org/1999/xlink">
<path style="fill:#c19553" d="M 10.667969 1.332031 C 9.296875 1.332031 8 2.628906 8 4 L 8 60 C 8 61.296875 9.371094 62.667969 10.667969 62.667969 L 53.332031 62.667969 C 54.628906 62.667969 56 61.296875 56 60 L 56 18.667969 L 38.667969 1.332031 Z "/>
<path style="fill:#000;fill-opacity:.196" d="M 38.667969 16 L 38.75 16.082031 L 38.957031 16 Z M 41.332031 18.667969 L 56 33.332031 L 56 18.667969 Z "/>
<path style="fill:#fff;fill-opacity:.392" d="M 38.667969 1.332031 L 56 18.667969 L 41.332031 18.667969 C 40.039062 18.667969 38.667969 17.296875 38.667969 16 Z "/>
<path style="fill:#000;fill-opacity:.196" d="M 8 46.667969 L 8 60 C 8 61.296875 9.371094 62.667969 10.667969 62.667969 L 53.332031 62.667969 C 54.628906 62.667969 56 61.296875 56 60 L 56 46.667969 Z "/>
<g style="fill:#fff">
<path d="M 24 1.332031 L 24 6.667969 L 29.332031 6.667969 L 29.332031 1.332031 Z M 24 6.667969 L 18.667969 6.667969 L 18.667969 12 L 24 12 Z M 24 12 L 24 17.332031 L 29.332031 17.332031 L 29.332031 12 Z M 24 17.332031 L 18.667969 17.332031 L 18.667969 22.667969 L 24 22.667969 Z M 24 22.667969 L 24 28 L 29.332031 28 L 29.332031 22.667969 Z M 18.667969 30.667969 L 18.667969 41.332031 L 29.332031 41.332031 L 29.332031 30.667969 Z "/>
<path d="M 26.128906 50.917969 C 25.59375 51.667969 25.097656 52.371094 24.652344 53.03125 C 24.203125 53.691406 23.785156 54.320312 23.398438 54.921875 C 23.011719 55.511719 22.644531 56.085938 22.292969 56.644531 C 21.957031 57.1875 21.632812 57.726562 21.320312 58.261719 L 26.296875 58.261719 L 26.296875 60 L 18.667969 60 L 18.667969 58.789062 C 18.941406 58.300781 19.234375 57.789062 19.546875 57.257812 C 19.855469 56.710938 20.207031 56.132812 20.59375 55.519531 C 20.980469 54.90625 21.398438 54.242188 21.84375 53.523438 C 22.308594 52.808594 22.8125 52.03125 23.359375 51.191406 L 18.910156 51.191406 L 18.910156 49.453125 L 26.128906 49.453125 L 26.128906 50.917969 "/>
<path d="M 28.167969 60 L 28.167969 58.261719 L 30.691406 58.261719 L 30.691406 51.191406 L 28.167969 51.191406 L 28.167969 49.453125 L 35.515625 49.453125 L 35.515625 51.191406 L 33.007812 51.191406 L 33.007812 58.261719 L 35.515625 58.261719 L 35.515625 60 L 28.167969 60 "/>
<path d="M 40.695312 49.332031 C 42.167969 49.332031 43.308594 49.613281 44.117188 50.167969 C 44.929688 50.714844 45.332031 51.609375 45.332031 52.859375 C 45.332031 54.121094 44.921875 55.035156 44.097656 55.605469 C 43.289062 56.160156 42.136719 56.4375 40.640625 56.4375 L 39.816406 56.4375 L 39.816406 60 L 37.515625 60 L 37.515625 49.589844 C 37.742188 49.542969 37.988281 49.503906 38.265625 49.46875 C 38.550781 49.4375 38.839844 49.414062 39.125 49.402344 C 39.410156 49.378906 39.691406 49.363281 39.964844 49.351562 C 40.242188 49.339844 40.484375 49.332031 40.695312 49.332031 M 40.957031 51.15625 C 40.820312 51.15625 40.625 51.164062 40.378906 51.171875 C 40.140625 51.171875 39.953125 51.183594 39.816406 51.207031 L 39.816406 54.617188 L 40.75 54.617188 C 41.488281 54.617188 42.042969 54.484375 42.414062 54.222656 C 42.789062 53.949219 42.976562 53.492188 42.976562 52.84375 C 42.976562 52.230469 42.789062 51.796875 42.414062 51.546875 C 42.054688 51.289062 41.566406 51.15625 40.957031 51.15625 "/>
</g>
</svg>
