<svg width="64" xmlns="http://www.w3.org/2000/svg" height="64" viewBox="0 0 64 64" xmlns:xlink="http://www.w3.org/1999/xlink">
<path style="fill:#c19553" d="M 10.667969 1.332031 C 9.296875 1.332031 8 2.628906 8 4 L 8 60 C 8 61.296875 9.371094 62.667969 10.667969 62.667969 L 53.332031 62.667969 C 54.628906 62.667969 56 61.296875 56 60 L 56 18.667969 L 38.667969 1.332031 Z "/>
<path style="fill:#000;fill-opacity:.196" d="M 38.667969 16 L 38.75 16.082031 L 38.957031 16 Z M 41.332031 18.667969 L 56 33.332031 L 56 18.667969 Z "/>
<path style="fill:#fff;fill-opacity:.392" d="M 38.667969 1.332031 L 56 18.667969 L 41.332031 18.667969 C 40.039062 18.667969 38.667969 17.296875 38.667969 16 Z "/>
<path style="fill:#000;fill-opacity:.196" d="M 8 46.667969 L 8 60 C 8 61.296875 9.371094 62.667969 10.667969 62.667969 L 53.332031 62.667969 C 54.628906 62.667969 56 61.296875 56 60 L 56 46.667969 Z "/>
<g style="fill:#fff">
<path d="M 24 1.332031 L 24 6.667969 L 29.332031 6.667969 L 29.332031 1.332031 Z M 24 6.667969 L 18.667969 6.667969 L 18.667969 12 L 24 12 Z M 24 12 L 24 17.332031 L 29.332031 17.332031 L 29.332031 12 Z M 24 17.332031 L 18.667969 17.332031 L 18.667969 22.667969 L 24 22.667969 Z M 24 22.667969 L 24 28 L 29.332031 28 L 29.332031 22.667969 Z M 18.667969 30.667969 L 18.667969 41.332031 L 29.332031 41.332031 L 29.332031 30.667969 Z "/>
<path d="M 23.640625 60 C 22.027344 60 20.792969 59.539062 19.941406 58.613281 C 19.09375 57.6875 18.667969 56.371094 18.667969 54.667969 C 18.667969 53.820312 18.796875 53.066406 19.054688 52.40625 C 19.3125 51.742188 19.671875 51.1875 20.128906 50.738281 C 20.597656 50.273438 21.144531 49.925781 21.773438 49.695312 C 22.414062 49.453125 23.109375 49.332031 23.863281 49.332031 C 24.269531 49.332031 24.632812 49.367188 24.953125 49.433594 C 25.289062 49.488281 25.578125 49.554688 25.824219 49.628906 C 26.070312 49.707031 26.273438 49.789062 26.433594 49.878906 C 26.605469 49.964844 26.734375 50.03125 26.820312 50.078125 L 26.230469 51.695312 C 25.945312 51.527344 25.601562 51.390625 25.195312 51.28125 C 24.800781 51.160156 24.34375 51.101562 23.828125 51.101562 C 23.46875 51.101562 23.117188 51.160156 22.773438 51.28125 C 22.4375 51.390625 22.136719 51.585938 21.867188 51.859375 C 21.605469 52.125 21.390625 52.480469 21.21875 52.933594 C 21.058594 53.382812 20.976562 53.945312 20.976562 54.617188 C 20.976562 55.785156 21.199219 56.679688 21.644531 57.308594 C 22.101562 57.925781 22.839844 58.234375 23.863281 58.234375 C 24.453125 58.234375 24.941406 58.171875 25.324219 58.050781 C 25.71875 57.929688 26.03125 57.808594 26.265625 57.6875 L 26.839844 59.289062 C 26.519531 59.464844 26.082031 59.632812 25.527344 59.785156 C 24.984375 59.929688 24.355469 60 23.640625 60 "/>
<path d="M 34.054688 59.785156 L 33.515625 57.425781 L 30.464844 57.425781 L 29.949219 59.785156 L 27.582031 59.785156 C 28.121094 57.769531 28.671875 55.9375 29.226562 54.285156 C 29.78125 52.625 30.316406 51.050781 30.835938 49.5625 L 33.3125 49.5625 C 33.855469 51.0625 34.390625 52.652344 34.921875 54.335938 C 35.464844 56.007812 35.988281 57.824219 36.492188 59.785156 L 34.054688 59.785156 M 32.019531 51.546875 C 31.894531 51.929688 31.777344 52.300781 31.667969 52.652344 C 31.570312 52.992188 31.46875 53.335938 31.371094 53.675781 C 31.285156 54.007812 31.199219 54.339844 31.113281 54.683594 C 31.039062 55.023438 30.964844 55.375 30.890625 55.738281 L 33.128906 55.738281 C 33.054688 55.375 32.980469 55.023438 32.90625 54.683594 C 32.832031 54.339844 32.746094 54.007812 32.648438 53.675781 C 32.5625 53.335938 32.460938 52.992188 32.351562 52.652344 C 32.253906 52.300781 32.140625 51.929688 32.019531 51.546875 "/>
<path d="M 45.332031 56.699219 C 45.332031 57.3125 45.214844 57.832031 44.980469 58.25 C 44.746094 58.65625 44.425781 58.988281 44.019531 59.242188 C 43.625 59.484375 43.152344 59.660156 42.597656 59.769531 C 42.054688 59.867188 41.46875 59.917969 40.839844 59.917969 C 40.335938 59.917969 39.808594 59.890625 39.269531 59.835938 C 38.726562 59.789062 38.1875 59.71875 37.660156 59.621094 L 37.660156 49.695312 C 38.089844 49.628906 38.566406 49.574219 39.082031 49.53125 C 39.601562 49.476562 40.113281 49.449219 40.617188 49.449219 C 41.480469 49.449219 42.183594 49.53125 42.726562 49.695312 C 43.269531 49.851562 43.695312 50.058594 44.003906 50.324219 C 44.308594 50.578125 44.519531 50.863281 44.628906 51.183594 C 44.742188 51.5 44.796875 51.820312 44.796875 52.140625 C 44.796875 52.625 44.660156 53.054688 44.390625 53.429688 C 44.132812 53.800781 43.78125 54.097656 43.335938 54.320312 C 44.113281 54.574219 44.636719 54.914062 44.90625 55.34375 C 45.191406 55.773438 45.332031 56.222656 45.332031 56.699219 M 39.933594 55.308594 L 39.933594 58.085938 C 40.09375 58.105469 40.265625 58.121094 40.453125 58.132812 C 40.648438 58.144531 40.839844 58.152344 41.023438 58.152344 C 41.285156 58.152344 41.535156 58.132812 41.78125 58.101562 C 42.03125 58.058594 42.246094 57.984375 42.429688 57.886719 C 42.628906 57.777344 42.789062 57.628906 42.910156 57.441406 C 43.035156 57.242188 43.097656 56.996094 43.097656 56.699219 C 43.097656 56.203125 42.917969 55.851562 42.558594 55.640625 C 42.214844 55.421875 41.746094 55.308594 41.152344 55.308594 L 39.933594 55.308594 M 40.820312 53.625 C 41.402344 53.625 41.839844 53.515625 42.132812 53.296875 C 42.429688 53.066406 42.578125 52.75 42.578125 52.355469 C 42.578125 52.113281 42.535156 51.921875 42.449219 51.777344 C 42.363281 51.621094 42.246094 51.507812 42.097656 51.429688 C 41.949219 51.34375 41.777344 51.285156 41.578125 51.265625 C 41.382812 51.230469 41.179688 51.214844 40.96875 51.214844 C 40.796875 51.214844 40.617188 51.222656 40.433594 51.230469 C 40.246094 51.242188 40.082031 51.257812 39.933594 51.28125 L 39.933594 53.625 L 40.820312 53.625 "/>
</g>
</svg>
