<svg width="64" xmlns="http://www.w3.org/2000/svg" height="64" viewBox="0 0 64 64" xmlns:xlink="http://www.w3.org/1999/xlink">
<path style="fill:#3468ce" d="M 10.667969 1.332031 C 9.296875 1.332031 8 2.628906 8 4 L 8 60 C 8 61.296875 9.371094 62.667969 10.667969 62.667969 L 53.332031 62.667969 C 54.628906 62.667969 56 61.296875 56 60 L 56 18.667969 L 38.667969 1.332031 Z "/>
<path style="fill:#000;fill-opacity:.196" d="M 38.667969 16 L 38.75 16.082031 L 38.957031 16 Z M 41.332031 18.667969 L 56 33.332031 L 56 18.667969 Z "/>
<path style="fill:#fff;fill-opacity:.392" d="M 38.667969 1.332031 L 56 18.667969 L 41.332031 18.667969 C 40.039062 18.667969 38.667969 17.296875 38.667969 16 Z "/>
<path style="fill:#fff" d="M 21.4375 24 L 30.5625 24 C 30.988281 24 31.332031 24.359375 31.332031 24.800781 L 31.332031 32.53125 C 31.332031 32.972656 30.988281 33.332031 30.5625 33.332031 L 21.4375 33.332031 C 21.011719 33.332031 20.667969 32.972656 20.667969 32.53125 L 20.667969 24.800781 C 20.667969 24.359375 21.011719 24 21.4375 24 Z "/>
<g style="fill:none;stroke:#fff;stroke-linejoin:round;stroke-linecap:round">
<path d="M 26.500977 17.500977 L 31.499023 17.500977 " transform="matrix(1.33333 0 0 1.33333 -.66667 1.33333)"/>
<path d="M 26.500977 20.500977 L 31.499023 20.500977 " transform="matrix(1.33333 0 0 1.33333 -.66667 1.33333)"/>
<path d="M 26.500977 23.500977 L 31.499023 23.500977 " transform="matrix(1.33333 0 0 1.33333 -.66667 1.33333)"/>
<path d="M 16.000977 26.500977 L 32 26.500977 " transform="matrix(1.33333 0 0 1.33333 -.66667 1.33333)"/>
<path d="M 16.000977 29.500977 L 32 29.500977 " transform="matrix(1.33333 0 0 1.33333 -.66667 1.33333)"/>
<path d="M 16.000977 32.500977 L 32 32.500977 " transform="matrix(1.33333 0 0 1.33333 -.66667 1.33333)"/>
</g>
</svg>
