<svg height="24" version="1.1" viewBox="0 0 6.773 6.773" width="24" xmlns="http://www.w3.org/2000/svg">
 <path d="m1.447.476 0 .466-.512 0c-.116 0-.194.097-.194.194l-0 5.161c-0 .097.097.194.194.194l4.904 0c.097 0 .194-.097.194-.194l0-5.161C6.032 1.039 5.935.942 5.838.942l-.511 0 0-.466C5.327.282 5.327.282 5.133.282l-.504 0c-.194 0-.194 0-.194.194l0 .37-2.096 0 0-.37c0-.194 0-.194-.194-.194l-.504 0c-.194 0-.194 0-.194.194zm.258.064.376 0 0 .778c0 .322-.376.322-.376 0zm2.988 0 .376 0 0 .778c0 .322-.376.322-.376 0zm-3.564 1.682 4.516 0 0 3.881-4.516-0z" fill="#cacaca"/>
 <g transform="matrix(.2822 0 0 .2822 -9.498 -8.884)"/>
 <g fill="#3798d6" transform="scale(1.1417 .8759)">
  <path d="m2.855 6.122-1.626 0 0-.356.57-.615q.108-.116.196-.214.088-.098.151-.191.063-.093.098-.189.035-.096.035-.207 0-.123-.075-.191-.073-.068-.197-.068-.131 0-.252.065-.121.065-.254.184L1.222 4.01q.075-.068.156-.129.081-.063.179-.111.098-.048.216-.076.118-.03.264-.03.174 0 .312.048.139.048.237.138.098.088.149.214.053.126.053.283 0 .143-.05.274Q2.688 4.75 2.602 4.876 2.515 5 2.401 5.124 2.288 5.247 2.159 5.375l-.292.293 0 .023.988 0 0 .431z" fill="#3798d6"/>
  <path d="m4.785 5.62-.292 0 0 .502-.499 0 0-.502-1.001 0 0-.356 1.03-1.565.471 0 0 1.524.292 0 0 .398zm-.791-.398 0-.411q0-.022 0-.061.002-.041.003-.093.002-.051.003-.106.003-.055.005-.104.003-.05.005-.086.003-.038.005-.055l-.015 0q-.03.07-.068.148-.036.078-.085.156l-.405.613.55 0z" fill="#3798d6"/>
 </g>
</svg>
