<svg width="24" xmlns="http://www.w3.org/2000/svg" height="24" viewBox="0 0 24 24" xmlns:xlink="http://www.w3.org/1999/xlink">
<g style="stroke:#a77b55">
<path style="fill:#a77b55" d="M 5.773438 37.760852 C 5.070312 37.69054 4.484375 37.00304 4.484375 36.268665 L 4.484375 7.97179 C 4.484375 7.19054 5.164062 6.479603 5.914062 6.479603 L 41.117188 6.479603 C 41.859375 6.479603 42.539062 7.19054 42.539062 7.97179 L 42.539062 33.643665 C 42.539062 34.424915 41.859375 35.135852 41.117188 35.135852 L 27.367188 35.135852 L 27.367188 36.268665 C 27.367188 37.049915 26.6875 37.760852 25.945312 37.760852 L 5.914062 37.760852 C 5.867188 37.768665 5.820312 37.768665 5.773438 37.760852 Z " transform="matrix(.5 0 0 .5 0 .0141)"/>
<path style="fill:#e9b080" d="M 3.015625 10.495228 C 2.1875 10.56554 1.484375 11.245228 1.492188 11.979603 L 1.492188 39.987415 C 1.492188 40.760852 2.296875 41.463977 3.179688 41.463977 L 44.820312 41.463977 C 45.703125 41.463977 46.507812 40.760852 46.507812 39.987415 L 46.507812 14.573353 C 46.507812 13.799915 45.703125 13.09679 44.820312 13.09679 L 28.5625 13.09679 L 28.5625 11.979603 C 28.5625 11.198353 27.757812 10.495228 26.875 10.495228 L 3.179688 10.495228 C 3.125 10.495228 3.070312 10.495228 3.015625 10.495228 Z " transform="matrix(.5 0 0 .5 0 .0141)"/>
</g>
<path style="fill:#a77b55" d="M 12.039062 17.996094 C 12.21875 17.984375 12.394531 17.90625 12.523438 17.777344 L 14.765625 15.398438 C 14.90625 15.261719 14.992188 15.070312 15 14.871094 C 15.011719 14.5625 14.816406 14.253906 14.53125 14.132812 C 14.242188 14.011719 13.886719 14.085938 13.671875 14.308594 L 12 16.003906 L 10.25 14.234375 C 9.957031 13.996094 9.480469 14.019531 9.210938 14.289062 C 8.945312 14.558594 8.925781 15.035156 9.171875 15.324219 L 11.429688 17.777344 C 11.585938 17.933594 11.816406 18.015625 12.039062 17.996094 Z M 13.566406 13.527344 C 13.820312 13.496094 14.03125 13.25 14.019531 12.996094 L 14.019531 11.71875 C 14.019531 11.453125 13.773438 11.207031 13.503906 11.207031 C 13.234375 11.207031 12.992188 11.453125 12.988281 11.71875 L 12.988281 12.996094 C 12.980469 13.277344 13.242188 13.535156 13.519531 13.527344 C 13.535156 13.527344 13.550781 13.527344 13.566406 13.527344 Z M 12.046875 13.628906 C 12.308594 13.605469 12.527344 13.359375 12.515625 13.097656 L 12.515625 10.515625 C 12.515625 10.246094 12.269531 10 12 10 C 11.730469 10 11.484375 10.246094 11.484375 10.515625 L 11.484375 13.097656 C 11.476562 13.371094 11.726562 13.628906 12 13.628906 C 12.015625 13.628906 12.03125 13.628906 12.046875 13.628906 Z M 10.542969 13.527344 C 10.796875 13.496094 11.003906 13.25 10.996094 12.996094 L 10.996094 11.175781 C 11.039062 10.886719 10.78125 10.589844 10.488281 10.589844 C 10.195312 10.589844 9.9375 10.886719 9.980469 11.175781 L 9.980469 12.996094 C 9.96875 13.289062 10.25 13.554688 10.542969 13.527344 Z "/>
</svg>
