<?xml version="1.0" encoding="UTF-8" standalone="yes"?>
<svg xmlns="http://www.w3.org/2000/svg" xmlns:xlink="http://www.w3.org/1999/xlink" width="64px" height="64px" viewBox="0 0 48 48" version="1.1">
  <defs>
    <linearGradient id="linear0" gradientUnits="userSpaceOnUse" x1="22.454058" y1="-7" x2="22.454058" y2="23" gradientTransform="matrix(1.125,0,0,1.125,-2.999998,-3)">
      <stop offset="0" style="stop-color:rgb(51.372549%,58.039216%,58.823529%);stop-opacity:1;"/>
      <stop offset="1" style="stop-color:rgb(40%,46.27451%,47.058824%);stop-opacity:1;"/>
    </linearGradient>
  </defs>
  <g id="surface1">
    <path style=" stroke:none;fill-rule:nonzero;fill:url(#linear0);" d="M 21.75 6 C 20.503906 6 19.5 7.003906 19.5 8.25 L 19.5 9 L 17.25 9 C 16.003906 9 15 10.003906 15 11.25 L 15 39.75 C 15 40.996094 16.003906 42 17.25 42 L 30.75 42 C 31.996094 42 33 40.996094 33 39.75 L 33 11.25 C 33 10.003906 31.996094 9 30.75 9 L 28.5 9 L 28.5 8.25 C 28.5 7.003906 27.496094 6 26.25 6 Z M 21.75 6 "/>
    <path style=" stroke:none;fill-rule:nonzero;fill:rgb(43.529412%,65.490196%,80.784314%);fill-opacity:0.2;" d="M 17.25 9 L 30.75 9 C 31.992188 9 33 10.007812 33 11.25 L 33 39.75 C 33 40.992188 31.992188 42 30.75 42 L 17.25 42 C 16.007812 42 15 40.992188 15 39.75 L 15 11.25 C 15 10.007812 16.007812 9 17.25 9 Z M 17.25 9 "/>
    <path style=" stroke:none;fill-rule:nonzero;fill:rgb(100%,100%,100%);fill-opacity:0.2;" d="M 24 6 L 27 6 L 27 9 L 24 9 Z M 24 6 "/>
    <path style=" stroke:none;fill-rule:nonzero;fill:rgb(100%,100%,100%);fill-opacity:0.2;" d="M 27 9 L 30 9 L 30 42 L 27 42 Z M 27 9 "/>
    <path style=" stroke:none;fill-rule:nonzero;fill:rgb(100%,100%,100%);fill-opacity:1;" d="M 21.640625 28.5 L 21.640625 27.695312 C 21.640625 26.972656 21.8125 26.34375 22.148438 25.808594 C 22.484375 25.273438 23.101562 24.703125 24 24.101562 C 24.863281 23.535156 25.433594 23.078125 25.703125 22.722656 C 25.984375 22.367188 26.125 21.972656 26.125 21.535156 C 26.125 21.046875 25.925781 20.671875 25.53125 20.414062 C 25.136719 20.160156 24.585938 20.03125 23.875 20.03125 C 22.640625 20.03125 21.234375 20.402344 19.65625 21.140625 L 18.308594 18.664062 C 20.144531 17.722656 22.089844 17.25 24.148438 17.25 C 25.84375 17.25 27.1875 17.625 28.183594 18.371094 C 29.1875 19.117188 29.691406 20.109375 29.691406 21.355469 C 29.691406 22.183594 29.484375 22.898438 29.074219 23.503906 C 28.660156 24.105469 27.878906 24.785156 26.726562 25.539062 C 25.9375 26.074219 25.4375 26.480469 25.222656 26.757812 C 25.015625 27.035156 24.914062 27.402344 24.914062 27.855469 L 24.914062 28.5 L 21.640625 28.5 "/>
    <path style=" stroke:none;fill-rule:nonzero;fill:rgb(100%,100%,100%);fill-opacity:1;" d="M 21.441406 31.851562 C 21.441406 31.226562 21.601562 30.757812 21.925781 30.4375 C 22.253906 30.117188 22.726562 29.957031 23.347656 29.957031 C 23.949219 29.957031 24.410156 30.121094 24.734375 30.445312 C 25.066406 30.773438 25.234375 31.242188 25.234375 31.851562 C 25.234375 32.441406 25.066406 32.90625 24.734375 33.246094 C 24.402344 33.582031 23.941406 33.75 23.347656 33.75 C 22.742188 33.75 22.269531 33.585938 21.9375 33.257812 C 21.605469 32.925781 21.441406 32.457031 21.441406 31.851562 "/>
  </g>
</svg>