<svg width="64" xmlns="http://www.w3.org/2000/svg" height="64" viewBox="0 0 64 64" xmlns:xlink="http://www.w3.org/1999/xlink">
<path style="fill:#909ea9" d="M 32 10.667969 C 23.164062 10.667969 16 17.832031 16 26.667969 C 16 35.503906 23.164062 42.667969 32 42.667969 C 40.835938 42.667969 48 35.503906 48 26.667969 C 48 17.832031 40.835938 10.667969 32 10.667969 Z M 32 17.332031 C 37.148438 17.332031 41.332031 21.519531 41.332031 26.667969 C 41.332031 31.8125 37.148438 36 32 36 C 26.851562 36 22.667969 31.8125 22.667969 26.667969 C 22.667969 21.519531 26.851562 17.332031 32 17.332031 Z M 32 18.667969 C 27.574219 18.667969 24 22.242188 24 26.667969 C 24 31.09375 27.574219 34.667969 32 34.667969 C 36.425781 34.667969 40 31.09375 40 26.667969 C 40 22.242188 36.425781 18.667969 32 18.667969 Z M 32 22.667969 C 34.667969 22.667969 36 24 36 26.667969 C 36 29.332031 34.667969 30.667969 32 30.667969 C 29.332031 30.667969 28 29.332031 28 26.667969 C 28 24 29.332031 22.667969 32 22.667969 Z M 28 44.082031 L 28 48.082031 L 36 48.082031 L 36 44.082031 Z M 21.332031 49.417969 L 21.332031 52.082031 L 42.667969 52.082031 L 42.667969 49.417969 Z "/>
</svg>
