<?xml version="1.0" encoding="UTF-8" standalone="yes"?>
<svg xmlns="http://www.w3.org/2000/svg" xmlns:xlink="http://www.w3.org/1999/xlink" width="64px" height="64px" viewBox="0 0 48 48" version="1.1">
  <g id="surface1">
    <path style=" stroke:none;fill-rule:nonzero;fill:rgb(55.686275%,55.686275%,55.686275%);fill-opacity:1;" d="M 37.539062 13.800781 L 38.359375 13.800781 C 38.714844 13.800781 39 14.085938 39 14.441406 L 39 17.359375 C 39 17.714844 38.714844 18 38.359375 18 L 37.539062 18 C 37.1875 18 36.898438 17.714844 36.898438 17.359375 L 36.898438 14.441406 C 36.898438 14.085938 37.1875 13.800781 37.539062 13.800781 Z M 37.539062 13.800781 "/>
    <path style=" stroke:none;fill-rule:nonzero;fill:rgb(27.45098%,27.45098%,27.45098%);fill-opacity:1;" d="M 14.25 3 L 37.6875 3 C 38.414062 3 38.941406 3.585938 39 4.3125 L 39 13.5 L 37.5 13.5 L 37.5 22.5 L 39 22.5 L 39 43.6875 C 39 44.414062 38.414062 45 37.6875 45 L 26.625 45 L 26.101562 43.5 L 21.898438 43.5 L 21.375 45 L 10.3125 45 C 9.585938 45 9 44.414062 9 43.6875 L 9 18 L 10.5 18 L 10.5 15 L 9 15 L 9 8.25 Z M 14.25 3 "/>
    <path style=" stroke:none;fill-rule:nonzero;fill:rgb(100%,83.921569%,25.882353%);fill-opacity:1;" d="M 12.523438 9 L 13.726562 9 C 14.015625 9 14.25 9.234375 14.25 9.523438 L 14.25 14.476562 C 14.25 14.765625 14.015625 15 13.726562 15 L 12.523438 15 C 12.234375 15 12 14.765625 12 14.476562 L 12 9.523438 C 12 9.234375 12.234375 9 12.523438 9 Z M 12.523438 9 "/>
    <path style=" stroke:none;fill-rule:nonzero;fill:rgb(100%,83.921569%,25.882353%);fill-opacity:1;" d="M 16.875 6 L 18.074219 6 C 18.363281 6 18.601562 6.234375 18.601562 6.523438 L 18.601562 14.476562 C 18.601562 14.765625 18.363281 15 18.074219 15 L 16.875 15 C 16.585938 15 16.351562 14.765625 16.351562 14.476562 L 16.351562 6.523438 C 16.351562 6.234375 16.585938 6 16.875 6 Z M 16.875 6 "/>
    <path style=" stroke:none;fill-rule:nonzero;fill:rgb(98.039216%,94.901961%,94.901961%);fill-opacity:0.2;" d="M 33 3 L 36 3 L 36 45 L 33 45 Z M 33 3 "/>
    <path style=" stroke:none;fill-rule:nonzero;fill:rgb(100%,83.921569%,25.882353%);fill-opacity:1;" d="M 21.226562 6 L 22.425781 6 C 22.714844 6 22.949219 6.234375 22.949219 6.523438 L 22.949219 14.476562 C 22.949219 14.765625 22.714844 15 22.425781 15 L 21.226562 15 C 20.933594 15 20.699219 14.765625 20.699219 14.476562 L 20.699219 6.523438 C 20.699219 6.234375 20.933594 6 21.226562 6 Z M 21.226562 6 "/>
    <path style=" stroke:none;fill-rule:nonzero;fill:rgb(100%,83.921569%,25.882353%);fill-opacity:1;" d="M 25.574219 6 L 26.773438 6 C 27.066406 6 27.300781 6.234375 27.300781 6.523438 L 27.300781 14.476562 C 27.300781 14.765625 27.066406 15 26.773438 15 L 25.574219 15 C 25.285156 15 25.050781 14.765625 25.050781 14.476562 L 25.050781 6.523438 C 25.050781 6.234375 25.285156 6 25.574219 6 Z M 25.574219 6 "/>
    <path style=" stroke:none;fill-rule:nonzero;fill:rgb(100%,83.921569%,25.882353%);fill-opacity:1;" d="M 29.925781 6 L 31.125 6 C 31.414062 6 31.648438 6.234375 31.648438 6.523438 L 31.648438 14.476562 C 31.648438 14.765625 31.414062 15 31.125 15 L 29.925781 15 C 29.636719 15 29.398438 14.765625 29.398438 14.476562 L 29.398438 6.523438 C 29.398438 6.234375 29.636719 6 29.925781 6 Z M 29.925781 6 "/>
    <path style=" stroke:none;fill-rule:nonzero;fill:rgb(100%,83.921569%,25.882353%);fill-opacity:1;" d="M 34.273438 6 L 35.476562 6 C 35.765625 6 36 6.234375 36 6.523438 L 36 14.476562 C 36 14.765625 35.765625 15 35.476562 15 L 34.273438 15 C 33.984375 15 33.75 14.765625 33.75 14.476562 L 33.75 6.523438 C 33.75 6.234375 33.984375 6 34.273438 6 Z M 34.273438 6 "/>
  </g>
</svg>