<?xml version="1.0" encoding="UTF-8" standalone="yes"?>
<svg xmlns="http://www.w3.org/2000/svg" xmlns:xlink="http://www.w3.org/1999/xlink" width="64px" height="64px" viewBox="0 0 48 48" version="1.1">
  <g id="surface1">
    <path style=" stroke:none;fill-rule:nonzero;fill:rgb(35.294118%,66.27451%,88.235294%);fill-opacity:1;" d="M 13.089844 8.183594 L 34.910156 8.183594 L 34.910156 32.183594 L 13.089844 32.183594 Z M 13.089844 8.183594 "/>
    <path style=" stroke:none;fill-rule:nonzero;fill:rgb(66.27451%,68.235294%,71.764706%);fill-opacity:1;" d="M 14.589844 31.636719 L 33.410156 31.636719 C 34.238281 31.636719 34.910156 32.308594 34.910156 33.136719 L 34.910156 38.863281 C 34.910156 39.691406 34.238281 40.363281 33.410156 40.363281 L 14.589844 40.363281 C 13.761719 40.363281 13.089844 39.691406 13.089844 38.863281 L 13.089844 33.136719 C 13.089844 32.308594 13.761719 31.636719 14.589844 31.636719 Z M 14.589844 31.636719 "/>
    <path style=" stroke:none;fill-rule:evenodd;fill:rgb(99.215686%,96.470588%,89.019608%);fill-opacity:0.188235;" d="M 30.546875 8.183594 L 16.363281 32.183594 L 34.910156 32.183594 L 34.910156 8.183594 Z M 30.546875 8.183594 "/>
    <path style=" stroke:none;fill-rule:nonzero;fill:rgb(2.745098%,21.176471%,25.882353%);fill-opacity:1;" d="M 13.636719 6 C 12.75 6 12 6.746094 12 7.632812 L 12 39.273438 C 12 39.347656 12.082031 40.011719 12.441406 40.398438 C 12.804688 40.785156 13.292969 41.035156 14.011719 41.25 C 15.449219 41.675781 17.953125 42 22.910156 42 L 25.089844 42 C 29.507812 42 32.023438 41.65625 33.542969 41.25 C 34.304688 41.046875 34.820312 40.839844 35.214844 40.566406 C 35.609375 40.296875 36 40.003906 36 39.273438 L 36 7.632812 C 36 6.746094 35.25 6 34.363281 6 Z M 15 9 L 33 9 L 33 30 L 15 30 Z M 15.375 32.25 C 15.996094 32.25 16.5 32.753906 16.5 33.375 C 16.5 33.996094 15.996094 34.5 15.375 34.5 C 14.753906 34.5 14.25 33.996094 14.25 33.375 C 14.25 32.753906 14.753906 32.25 15.375 32.25 Z M 18.375 32.25 C 18.996094 32.25 19.5 32.753906 19.5 33.375 C 19.5 33.996094 18.996094 34.5 18.375 34.5 C 17.753906 34.5 17.25 33.996094 17.25 33.375 C 17.25 32.753906 17.753906 32.25 18.375 32.25 Z M 21.375 32.25 C 21.996094 32.25 22.5 32.753906 22.5 33.375 C 22.5 33.996094 21.996094 34.5 21.375 34.5 C 20.753906 34.5 20.25 33.996094 20.25 33.375 C 20.25 32.753906 20.753906 32.25 21.375 32.25 Z M 26.625 32.25 C 27.246094 32.25 27.75 32.753906 27.75 33.375 C 27.75 33.996094 27.246094 34.5 26.625 34.5 C 26.003906 34.5 25.5 33.996094 25.5 33.375 C 25.5 32.753906 26.003906 32.25 26.625 32.25 Z M 29.625 32.25 C 30.246094 32.25 30.75 32.753906 30.75 33.375 C 30.75 33.996094 30.246094 34.5 29.625 34.5 C 29.003906 34.5 28.5 33.996094 28.5 33.375 C 28.5 32.753906 29.003906 32.25 29.625 32.25 Z M 32.625 32.25 C 33.246094 32.25 33.75 32.753906 33.75 33.375 C 33.75 33.996094 33.246094 34.5 32.625 34.5 C 32.003906 34.5 31.5 33.996094 31.5 33.375 C 31.5 32.753906 32.003906 32.25 32.625 32.25 Z M 15.375 35.25 C 15.996094 35.25 16.5 35.753906 16.5 36.375 C 16.5 36.996094 15.996094 37.5 15.375 37.5 C 14.753906 37.5 14.25 36.996094 14.25 36.375 C 14.25 35.753906 14.753906 35.25 15.375 35.25 Z M 18.375 35.25 C 18.996094 35.25 19.5 35.753906 19.5 36.375 C 19.5 36.996094 18.996094 37.5 18.375 37.5 C 17.753906 37.5 17.25 36.996094 17.25 36.375 C 17.25 35.753906 17.753906 35.25 18.375 35.25 Z M 24 35.25 C 25.242188 35.25 26.25 36.257812 26.25 37.5 C 26.25 38.742188 25.242188 39.75 24 39.75 C 22.757812 39.75 21.75 38.742188 21.75 37.5 C 21.75 36.257812 22.757812 35.25 24 35.25 Z M 29.625 35.25 C 30.246094 35.25 30.75 35.753906 30.75 36.375 C 30.75 36.996094 30.246094 37.5 29.625 37.5 C 29.003906 37.5 28.5 36.996094 28.5 36.375 C 28.5 35.753906 29.003906 35.25 29.625 35.25 Z M 32.625 35.25 C 33.246094 35.25 33.75 35.753906 33.75 36.375 C 33.75 36.996094 33.246094 37.5 32.625 37.5 C 32.003906 37.5 31.5 36.996094 31.5 36.375 C 31.5 35.753906 32.003906 35.25 32.625 35.25 Z M 32.625 35.25 "/>
    <path style=" stroke:none;fill-rule:nonzero;fill:rgb(93.333333%,90.980392%,83.529412%);fill-opacity:0.14902;" d="M 33 6 L 30 6 L 30 41.804688 L 33 41.367188 Z M 33 6 "/>
  </g>
</svg>