<?xml version="1.0" encoding="UTF-8" standalone="yes"?>
<svg xmlns="http://www.w3.org/2000/svg" xmlns:xlink="http://www.w3.org/1999/xlink" width="64px" height="64px" viewBox="0 0 48 48" version="1.1">
  <g id="surface1">
    <path style=" stroke:none;fill-rule:nonzero;fill:rgb(35.294118%,66.27451%,88.235294%);fill-opacity:1;" d="M 17.207031 6.945312 L 30.796875 6.945312 C 32.117188 6.945312 33.1875 8.019531 33.1875 9.339844 L 33.1875 39.246094 C 33.1875 40.566406 32.117188 41.636719 30.796875 41.636719 L 17.207031 41.636719 C 15.882812 41.636719 14.8125 40.566406 14.8125 39.246094 L 14.8125 9.339844 C 14.8125 8.019531 15.882812 6.945312 17.207031 6.945312 Z M 17.207031 6.945312 "/>
    <path style=" stroke:none;fill-rule:nonzero;fill:rgb(99.215686%,96.470588%,89.019608%);fill-opacity:0.188235;" d="M 18.75 41.0625 L 29.25 6.9375 L 33.1875 6.9375 L 33.1875 41.0625 Z M 18.75 41.0625 "/>
    <path style=" stroke:none;fill-rule:nonzero;fill:rgb(0%,16.862745%,21.176471%);fill-opacity:1;" d="M 22.957031 39.4375 L 25.042969 39.4375 C 25.917969 39.4375 26.625 40.144531 26.625 41.019531 C 26.625 41.890625 25.917969 42.601562 25.042969 42.601562 L 22.957031 42.601562 C 22.082031 42.601562 21.375 41.890625 21.375 41.019531 C 21.375 40.144531 22.082031 39.4375 22.957031 39.4375 Z M 22.957031 39.4375 "/>
    <path style=" stroke:none;fill-rule:nonzero;fill:rgb(0%,16.862745%,21.176471%);fill-opacity:1;" d="M 19.472656 5.703125 L 28.527344 5.703125 C 28.925781 5.703125 29.25 6.027344 29.25 6.425781 L 29.25 7.152344 C 29.25 7.550781 28.925781 7.875 28.527344 7.875 L 19.472656 7.875 C 19.074219 7.875 18.75 7.550781 18.75 7.152344 L 18.75 6.425781 C 18.75 6.027344 19.074219 5.703125 19.472656 5.703125 Z M 19.472656 5.703125 "/>
    <path style=" stroke:none;fill-rule:nonzero;fill:rgb(2.745098%,21.176471%,25.882353%);fill-opacity:1;" d="M 16.945312 4.5 C 15.0625 4.5 13.5 6.023438 13.5 7.902344 L 13.5 40.054688 C 13.5 41.9375 15.0625 43.5 16.945312 43.5 L 31.054688 43.5 C 32.9375 43.5 34.5 41.9375 34.5 40.054688 L 34.5 7.902344 C 34.5 6.023438 32.9375 4.5 31.054688 4.5 Z M 21.75 6 L 26.25 6 C 26.664062 6 27 6.335938 27 6.75 C 27 7.164062 26.664062 7.5 26.25 7.5 L 21.75 7.5 C 21.335938 7.5 21 7.164062 21 6.75 C 21 6.335938 21.335938 6 21.75 6 Z M 16.5 9 L 31.5 9 L 31.5 39 L 16.5 39 Z M 24 40.125 C 24.621094 40.125 25.125 40.628906 25.125 41.25 C 25.125 41.871094 24.621094 42.375 24 42.375 C 23.378906 42.375 22.875 41.871094 22.875 41.25 C 22.875 40.628906 23.378906 40.125 24 40.125 Z M 24 40.125 "/>
    <path style=" stroke:none;fill-rule:nonzero;fill:rgb(93.333333%,90.980392%,83.529412%);fill-opacity:0.14902;" d="M 28.5 4.5 L 31.5 4.5 L 31.5 43.5 L 28.5 43.5 Z M 28.5 4.5 "/>
  </g>
</svg>