<?xml version="1.0" encoding="UTF-8" standalone="no"?>
<svg
   xmlns:dc="http://purl.org/dc/elements/1.1/"
   xmlns:cc="http://creativecommons.org/ns#"
   xmlns:rdf="http://www.w3.org/1999/02/22-rdf-syntax-ns#"
   xmlns:svg="http://www.w3.org/2000/svg"
   xmlns="http://www.w3.org/2000/svg"
   xmlns:sodipodi="http://sodipodi.sourceforge.net/DTD/sodipodi-0.dtd"
   xmlns:inkscape="http://www.inkscape.org/namespaces/inkscape"
   width="64px"
   height="64px"
   viewBox="0 0 48 48"
   version="1.1"
   id="svg2"
   inkscape:version="0.91 r"
   sodipodi:docname="processor.svg">
  <metadata
     id="metadata51">
    <rdf:RDF>
      <cc:Work
         rdf:about="">
        <dc:format>image/svg+xml</dc:format>
        <dc:type
           rdf:resource="http://purl.org/dc/dcmitype/StillImage" />
        <dc:title></dc:title>
      </cc:Work>
    </rdf:RDF>
  </metadata>
  <defs
     id="defs49" />
  <sodipodi:namedview
     pagecolor="#ffffff"
     bordercolor="#666666"
     borderopacity="1"
     objecttolerance="10"
     gridtolerance="10"
     guidetolerance="10"
     inkscape:pageopacity="0"
     inkscape:pageshadow="2"
     inkscape:window-width="1920"
     inkscape:window-height="1056"
     id="namedview47"
     showgrid="true"
     inkscape:zoom="14.75"
     inkscape:cx="27.308423"
     inkscape:cy="26.120425"
     inkscape:window-x="0"
     inkscape:window-y="24"
     inkscape:window-maximized="1"
     inkscape:current-layer="svg2">
    <inkscape:grid
       type="xygrid"
       id="grid4179" />
  </sodipodi:namedview>
  <path
     inkscape:connector-curvature="0"
     id="path5"
     d="m 12.894229,10.874999 22.211539,0 c 1.116099,0 2.019231,0.903133 2.019231,2.019231 l 0,22.211539 c 0,1.116099 -0.903132,2.019231 -2.019231,2.019231 l -22.211539,0 c -1.116098,0 -2.01923,-0.903132 -2.01923,-2.019231 l 0,-22.211539 c 0,-1.116098 0.903132,-2.019231 2.01923,-2.019231 z m 0,0"
     style="fill:#579ccf;fill-opacity:1;fill-rule:nonzero;stroke:#858585;stroke-width:2.25;stroke-linecap:butt;stroke-linejoin:miter;stroke-miterlimit:4;stroke-dasharray:none;stroke-opacity:1" />
  <path
     inkscape:connector-curvature="0"
     id="path7"
     d="m 34.499999,15 c 0,0.828125 -0.671875,1.5 -1.5,1.5 -0.828125,0 -1.5,-0.671875 -1.5,-1.5 0,-0.828125 0.671875,-1.5 1.5,-1.5 0.828125,0 1.5,0.671875 1.5,1.5 z m 0,0"
     style="fill:#dedede;fill-opacity:1;fill-rule:nonzero;stroke:none" />
  <path
     inkscape:connector-curvature="0"
     id="path11"
     d="M 15,6.0000002 15,11.25 l -2.25,0 0,-5.2499998 z m 0,0"
     style="fill:#858585;fill-opacity:1;fill-rule:nonzero;stroke:none" />
  <path
     inkscape:connector-curvature="0"
     id="path41"
     d="m 20.250202,29.664061 c 0,0.09375 -0.03125,0.175782 -0.08984,0.238282 -0.0586,0.0625 -0.132816,0.09766 -0.226566,0.09766 l -1.61739,0 c -0.08984,0 -0.167968,-0.03516 -0.226562,-0.105469 C 18.027344,29.828124 18,29.749999 18,29.664061 l 0,-8.347656 c 0,-0.08203 0.02734,-0.160156 0.08984,-0.222656 0.0586,-0.0625 0.136722,-0.09375 0.226566,-0.09375 l 1.61739,0 c 0.09766,0 0.175781,0.03125 0.230468,0.08594 0.05859,0.05859 0.08594,0.136716 0.08594,0.230466 z m 0,-9.734469 c 0,0.09375 -0.03125,0.171874 -0.09375,0.234374 -0.0625,0.05859 -0.132812,0.08594 -0.222656,0.08594 l -1.597858,0 c -0.08594,0 -0.160157,-0.02734 -0.230469,-0.08594 C 18.035156,20.101466 18,20.023342 18,19.929592 l 0,-1.613187 c 0,-0.08203 0.03516,-0.15625 0.105469,-0.222656 0.07031,-0.05859 0.144531,-0.09375 0.230469,-0.09375 l 1.597858,0 c 0.08984,0 0.160156,0.03125 0.222656,0.09375 0.0625,0.0625 0.09375,0.136719 0.09375,0.222656 z"
     style="fill:#ffffff;fill-opacity:1;fill-rule:nonzero;stroke:none"
     sodipodi:nodetypes="scsscsscsscssscsscsscsssss" />
  <path
     inkscape:connector-curvature="0"
     id="path43"
     d="m 30,19.933467 c 0,0.09375 -0.09375,0.335937 -0.285156,0.726562 L 25.4375,29.699218 c -0.05859,0.117187 -0.113281,0.195312 -0.175781,0.238281 -0.05859,0.04297 -0.144531,0.0625 -0.25,0.0625 l -1.902078,0 c -0.148437,0 -0.222656,-0.08203 -0.222656,-0.242188 0,-0.03906 0.01563,-0.08594 0.03906,-0.136718 l 4.542969,-9.261845 0,-0.03125 c 0,-0.01953 -0.0039,-0.03906 -0.01563,-0.05469 -0.01171,-0.01562 -0.03124,-0.02344 -0.06249,-0.02344 l -4.574437,0 c -0.08203,0 -0.15625,-0.02734 -0.21875,-0.08203 -0.06641,-0.05859 -0.09766,-0.125 -0.09766,-0.203125 l 0,-1.663937 c 0,-0.08203 0.03125,-0.152343 0.09766,-0.214843 0.0625,-0.05468 0.136716,-0.08593 0.218747,-0.08593 l 6.550734,0 c 0.175781,0 0.324218,0.0625 0.445312,0.1875 C 29.9375,18.308593 30,18.460937 30,18.632811 Z"
     style="fill:#ffffff;fill-opacity:1;fill-rule:nonzero;stroke:none"
     sodipodi:nodetypes="scccsssccscsscsscsscss" />
  <path
     style="fill:#858585;fill-opacity:1;fill-rule:nonzero;stroke:none"
     d="m 35.249999,6.0000002 0,5.2499998 -2.25,0 0,-5.2499998 z m 0,0"
     id="path4202"
     inkscape:connector-curvature="0" />
  <path
     inkscape:connector-curvature="0"
     id="path4204"
     d="m 28.499999,6.0000002 0,5.2499998 -2.25,0 0,-5.2499998 z m 0,0"
     style="fill:#858585;fill-opacity:1;fill-rule:nonzero;stroke:none" />
  <path
     style="fill:#858585;fill-opacity:1;fill-rule:nonzero;stroke:none"
     d="m 21.75,6.0000002 0,5.2499998 -2.25,0 0,-5.2499998 z m 0,0"
     id="path4206"
     inkscape:connector-curvature="0" />
  <path
     style="fill:#858585;fill-opacity:1;fill-rule:nonzero;stroke:none"
     d="m 15,36.749999 0,5.25 -2.25,0 0,-5.25 z m 0,0"
     id="path4208"
     inkscape:connector-curvature="0" />
  <path
     inkscape:connector-curvature="0"
     id="path4210"
     d="m 35.249999,36.749999 0,5.25 -2.25,0 0,-5.25 z m 0,0"
     style="fill:#858585;fill-opacity:1;fill-rule:nonzero;stroke:none" />
  <path
     style="fill:#858585;fill-opacity:1;fill-rule:nonzero;stroke:none"
     d="m 28.499999,36.749999 0,5.25 -2.25,0 0,-5.25 z m 0,0"
     id="path4212"
     inkscape:connector-curvature="0" />
  <path
     inkscape:connector-curvature="0"
     id="path45"
     d="m 28.499999,9.7499997 3.75,0 0,28.4999993 -3.75,0 z m 0,0"
     style="fill:#ffffff;fill-opacity:0.25882401;fill-rule:nonzero;stroke:none" />
  <path
     inkscape:connector-curvature="0"
     id="path4214"
     d="m 21.75,36.749999 0,5.25 -2.25,0 0,-5.25 z m 0,0"
     style="fill:#858585;fill-opacity:1;fill-rule:nonzero;stroke:none" />
  <path
     inkscape:connector-curvature="0"
     id="path4216"
     d="m 11.25,14.25 -5.2500002,0 0,-2.25 L 11.25,12 Z m 0,0"
     style="fill:#858585;fill-opacity:1;fill-rule:nonzero;stroke:none" />
  <path
     style="fill:#858585;fill-opacity:1;fill-rule:nonzero;stroke:none"
     d="m 11.25,34.499999 -5.2500002,0 0,-2.25 5.2500002,0 z m 0,0"
     id="path4218"
     inkscape:connector-curvature="0" />
  <path
     inkscape:connector-curvature="0"
     id="path4220"
     d="m 11.25,27.749999 -5.2500002,0 0,-2.25 5.2500002,0 z m 0,0"
     style="fill:#858585;fill-opacity:1;fill-rule:nonzero;stroke:none" />
  <path
     style="fill:#858585;fill-opacity:1;fill-rule:nonzero;stroke:none"
     d="m 11.25,21 -5.2500002,0 0,-2.25 5.2500002,0 z m 0,0"
     id="path4222"
     inkscape:connector-curvature="0" />
  <path
     style="fill:#858585;fill-opacity:1;fill-rule:nonzero;stroke:none"
     d="m 41.999999,14.25 -5.25,0 0,-2.25 5.25,0 z m 0,0"
     id="path4224"
     inkscape:connector-curvature="0" />
  <path
     inkscape:connector-curvature="0"
     id="path4226"
     d="m 41.999999,34.499999 -5.25,0 0,-2.25 5.25,0 z m 0,0"
     style="fill:#858585;fill-opacity:1;fill-rule:nonzero;stroke:none" />
  <path
     style="fill:#858585;fill-opacity:1;fill-rule:nonzero;stroke:none"
     d="m 41.999999,27.749999 -5.25,0 0,-2.25 5.25,0 z m 0,0"
     id="path4228"
     inkscape:connector-curvature="0" />
  <path
     inkscape:connector-curvature="0"
     id="path4230"
     d="m 41.999999,21 -5.25,0 0,-2.25 5.25,0 z m 0,0"
     style="fill:#858585;fill-opacity:1;fill-rule:nonzero;stroke:none" />
</svg>
