<svg xmlns="http://www.w3.org/2000/svg" viewBox="0 0 24 24">
<g style="color:#000">
<path style="opacity:.3" d="m7.5 5.5-4.5 3.5 4.5 3-4.5 4 9 6 9-6-4.5-4 4.5-3-4.5-3.5-4.5 3.5-4.5-3.5zm4.5 4.5c1.4826 0 2.4128 0.55829 3 1.25v-1.25h1v2 1h-1-2v-1h1.3125c-0.435-0.557-1.142-1-2.312-1-3 0-3 3-3 3h-1s0-4 4-4zm3 4h1s0 4-4 4c-1.4826 0-2.4128-0.55829-3-1.25v1.25h-1v-2-1h1 2v1h-1.3125c0.43535 0.55672 1.1425 1 2.3125 1 3 0 3-3 3-3z"/>
<path style="fill:#dfdbd2" d="m7.5 4.5-4.5 3.5 4.5 3-4.5 4 9 6 9-6-4.5-4 4.5-3-4.5-3.5-4.5 3.5-4.5-3.5zm4.5 4.5c1.4826 0 2.4128 0.55829 3 1.25v-1.25h1v2 1h-1-2v-1h1.3125c-0.435-0.557-1.142-1-2.312-1-3 0-3 3-3 3h-1s0-4 4-4zm3 4h1s0 4-4 4c-1.4826 0-2.4128-0.55829-3-1.25v1.25h-1v-2-1h1 2v1h-1.3125c0.43535 0.55672 1.1425 1 2.3125 1 3 0 3-3 3-3z"/>
</g>
</svg>
