<svg width="256" xmlns="http://www.w3.org/2000/svg" height="256" viewBox="0 0 256 256" xmlns:xlink="http://www.w3.org/1999/xlink">
<defs>
<linearGradient gradientTransform="matrix(6 0 0 6.22224 -20 -9.77776)" id="linear0" y1="13.571" x1="25.556" y2="5.857" gradientUnits="userSpaceOnUse" x2="33.556">
<stop offset="0" style="stop-color:#000"/>
<stop offset="1" style="stop-color:#000;stop-opacity:0"/>
</linearGradient>
<radialGradient cx="24" cy="24" gradientTransform="matrix(8.17776 2.84443 -3.25808 9.36693 9.92693 -165.07323)" id="radial0" r="15" gradientUnits="userSpaceOnUse">
<stop offset="0" style="stop-color:#e4e5e2"/>
<stop offset=".5" style="stop-color:#d6d9d2"/>
<stop offset="1" style="stop-color:#b7beb1"/>
</radialGradient>
</defs>
<path style="fill:url(#radial0)" d="M 55.210938 21.34375 C 51.285156 21.753906 47.980469 25.417969 48 29.34375 L 48 226.667969 C 48 230.855469 51.835938 234.667969 56.050781 234.667969 L 199.949219 234.667969 C 204.164062 234.667969 208 230.855469 208 226.667969 L 208 48 L 170.667969 21.332031 L 56.050781 21.34375 C 55.769531 21.328125 55.492188 21.328125 55.210938 21.34375 Z "/>
<path style="fill:url(#linear0)" d="M 170.667969 21.332031 L 170.667969 48 L 208 48 L 208 40 L 178 21.332031 Z "/>
<g style="fill:#3464a3">
<path d="M 74.839844 153.546875 C 71.414062 154.667969 69.164062 157.945312 69.339844 161.546875 L 69.339844 192.042969 L 99.839844 192.042969 C 102.722656 192.082031 105.40625 190.566406 106.859375 188.078125 C 108.316406 185.585938 108.316406 182.503906 106.859375 180.011719 C 105.40625 177.519531 102.722656 176.003906 99.839844 176.042969 L 85.339844 176.042969 L 85.339844 161.546875 C 85.472656 158.910156 84.296875 156.378906 82.199219 154.78125 C 80.097656 153.179688 77.347656 152.71875 74.839844 153.546875 Z "/>
<path d="M 176.667969 153.492188 C 173.042969 154.425781 170.546875 157.75 170.667969 161.492188 L 170.667969 175.988281 L 156.167969 175.988281 C 153.285156 175.949219 150.601562 177.464844 149.144531 179.957031 C 147.691406 182.449219 147.691406 185.53125 149.144531 188.023438 C 150.601562 190.511719 153.285156 192.027344 156.167969 191.988281 L 186.664062 191.988281 L 186.664062 161.492188 C 186.746094 158.972656 185.632812 156.5625 183.667969 154.988281 C 181.699219 153.417969 179.105469 152.859375 176.667969 153.492188 Z "/>
<path d="M 153.660156 90.613281 C 150.796875 91.054688 148.390625 92.992188 147.347656 95.691406 C 146.304688 98.390625 146.78125 101.445312 148.597656 103.695312 C 150.417969 105.949219 153.300781 107.058594 156.160156 106.609375 L 170.65625 106.609375 L 170.65625 121.109375 C 170.617188 123.992188 172.132812 126.675781 174.625 128.132812 C 177.113281 129.585938 180.195312 129.585938 182.6875 128.132812 C 185.179688 126.675781 186.695312 123.992188 186.65625 121.109375 L 186.65625 90.613281 L 156.160156 90.613281 C 155.332031 90.480469 154.488281 90.480469 153.660156 90.613281 Z "/>
<path d="M 69.332031 90.667969 L 69.332031 121.164062 C 69.289062 124.046875 70.804688 126.730469 73.296875 128.1875 C 75.789062 129.640625 78.871094 129.640625 81.363281 128.1875 C 83.855469 126.730469 85.371094 124.046875 85.328125 121.164062 L 85.328125 106.664062 L 99.828125 106.664062 C 102.714844 106.707031 105.398438 105.191406 106.851562 102.699219 C 108.304688 100.207031 108.304688 97.125 106.851562 94.632812 C 105.398438 92.140625 102.714844 90.625 99.828125 90.667969 Z "/>
</g>
</svg>
