<svg width="64" xmlns="http://www.w3.org/2000/svg" height="64" viewBox="0 0 64 64" xmlns:xlink="http://www.w3.org/1999/xlink">
<path style="fill:#df1818" d="M 10.667969 1.332031 C 9.296875 1.332031 8 2.628906 8 4 L 8 60 C 8 61.296875 9.371094 62.667969 10.667969 62.667969 L 53.332031 62.667969 C 54.628906 62.667969 56 61.296875 56 60 L 56 18.667969 L 38.667969 1.332031 Z "/>
<path style="fill:#000;fill-opacity:.196" d="M 38.667969 16 L 38.75 16.082031 L 38.957031 16 Z M 41.332031 18.667969 L 56 33.332031 L 56 18.667969 Z "/>
<g style="fill:#fff">
<path style="fill-opacity:.392" d="M 38.667969 1.332031 L 56 18.667969 L 41.332031 18.667969 C 40.039062 18.667969 38.667969 17.296875 38.667969 16 Z "/>
<path d="M 31.375 21.355469 C 31.375 21.355469 32.292969 29.847656 25.785156 41.058594 C 19.277344 52.273438 17.371094 50.769531 16.683594 50.378906 C 16 49.992188 15.117188 48.730469 18.003906 46.207031 C 20.894531 43.679688 22.019531 43.730469 22.019531 43.730469 C 22.019531 43.730469 19.375 45.332031 18.347656 46.886719 C 17.320312 48.4375 16.488281 49.410156 16.734375 49.847656 C 16.976562 50.28125 19.929688 48.054688 21.152344 46.160156 C 23.09375 43.15625 26.765625 37.566406 28.476562 32.226562 C 30.191406 26.886719 31.375 21.355469 31.375 21.355469 Z "/>
<path d="M 47.417969 41.011719 C 47.417969 41.011719 47.269531 41.398438 45.554688 41.253906 C 43.84375 41.109375 37.1875 39.023438 33.617188 34.75 C 30.042969 30.476562 29.75 24.605469 29.503906 21.546875 C 29.261719 18.488281 30.613281 19.339844 30.808594 19.730469 C 31.117188 19.984375 31.265625 20.820312 31.265625 20.820312 C 31.265625 20.820312 31.15625 19.566406 30.617188 19.03125 C 30.082031 18.5 29.601562 18.488281 29.066406 19.410156 C 28.527344 20.332031 28.28125 22.90625 28.722656 25.382812 C 29.164062 27.855469 30.972656 33.535156 33.222656 36.15625 C 35.476562 38.777344 39.976562 41.058594 43.304688 41.738281 C 46.632812 42.417969 47.417969 41.011719 47.417969 41.011719 Z "/>
<path d="M 25.738281 42.128906 C 25.738281 42.128906 32.195312 40.039062 38.3125 39.457031 C 44.429688 38.875 46.535156 39.507812 47.074219 39.945312 C 47.613281 40.378906 47.613281 40.867188 47.613281 40.867188 C 47.613281 40.867188 48.296875 40.191406 47.847656 39.5 C 47.464844 38.785156 46.878906 38.195312 42.03125 38.34375 C 37.1875 38.488281 36.847656 38.683594 32.394531 39.507812 C 27.9375 40.332031 25.738281 42.128906 25.738281 42.128906 Z "/>
</g>
</svg>
