<svg width="64" xmlns="http://www.w3.org/2000/svg" height="64" viewBox="0 0 64 64" xmlns:xlink="http://www.w3.org/1999/xlink">
<path style="fill:#00853d" d="M 10.667969 1.332031 C 9.296875 1.332031 8 2.628906 8 4 L 8 60 C 8 61.296875 9.371094 62.667969 10.667969 62.667969 L 53.332031 62.667969 C 54.628906 62.667969 56 61.296875 56 60 L 56 18.667969 L 38.667969 1.332031 Z "/>
<path style="fill:#000;fill-opacity:.196" d="M 38.667969 16 L 38.75 16.082031 L 38.957031 16 Z M 41.332031 18.667969 L 56 33.332031 L 56 18.667969 Z "/>
<path style="fill:#fff;fill-opacity:.392" d="M 38.667969 1.332031 L 56 18.667969 L 41.332031 18.667969 C 40.039062 18.667969 38.667969 17.296875 38.667969 16 Z "/>
<path style="fill:#fff" d="M 37.730469 43.863281 L 33.308594 43.863281 C 31.957031 43.863281 30.644531 43.882812 29.363281 43.386719 C 28.3125 42.984375 27.324219 42.367188 26.546875 41.550781 C 23.960938 38.84375 23.621094 34.546875 25.960938 31.566406 C 27.390625 29.742188 29.59375 28.574219 31.925781 28.574219 C 32.5625 28.574219 33.898438 28.476562 34.164062 29.222656 C 34.300781 29.605469 34.011719 30.046875 33.617188 30.117188 C 33.242188 30.183594 32.816406 29.988281 32.433594 29.984375 C 31.3125 29.972656 30.308594 30.125 29.277344 30.589844 C 25.484375 32.308594 24.539062 37.871094 27.644531 40.699219 C 28.441406 41.425781 29.355469 41.980469 30.40625 42.257812 C 31.335938 42.503906 32.296875 42.453125 33.25 42.453125 L 38.996094 42.453125 C 39.238281 42.453125 39.585938 42.515625 39.816406 42.433594 C 39.988281 42.375 40.140625 42.183594 40.265625 42.058594 C 40.578125 41.746094 41.046875 41.398438 41.222656 40.984375 L 34.011719 40.984375 C 33.140625 40.984375 32.222656 41.070312 31.363281 40.945312 C 30.347656 40.796875 29.4375 40.324219 28.6875 39.625 C 28.296875 39.265625 27.984375 38.808594 27.75 38.335938 C 26.320312 35.46875 28.160156 32.050781 31.277344 31.496094 C 31.816406 31.402344 32.40625 31.425781 32.941406 31.535156 C 33.46875 31.644531 34.128906 31.832031 34.546875 32.195312 C 34.839844 32.449219 34.878906 32.875 34.617188 33.167969 C 34.238281 33.597656 33.859375 33.335938 33.449219 33.15625 C 33.125 33.015625 32.785156 32.914062 32.433594 32.871094 C 30.933594 32.6875 29.480469 33.527344 28.894531 34.921875 C 28.164062 36.671875 29.089844 38.773438 30.882812 39.394531 C 31.75 39.695312 32.742188 39.574219 33.644531 39.574219 L 41.167969 39.574219 C 41.460938 39.574219 41.960938 39.671875 42.234375 39.558594 C 42.339844 39.511719 42.398438 39.359375 42.453125 39.265625 L 42.902344 38.390625 C 43.429688 37.175781 43.792969 35.929688 43.933594 34.609375 C 44.523438 29.097656 41.160156 23.847656 35.957031 21.992188 C 31.882812 20.542969 27.148438 21.539062 23.953125 24.433594 C 22.464844 25.78125 21.394531 27.464844 20.695312 29.335938 C 19.765625 31.828125 19.765625 34.886719 20.707031 37.375 C 20.921875 37.941406 21.144531 38.511719 21.445312 39.039062 C 21.523438 39.179688 21.628906 39.496094 21.789062 39.558594 C 22.132812 39.6875 21.84375 38.929688 21.816406 38.8125 C 21.578125 37.871094 21.5 36.933594 21.5 35.964844 C 21.5 31.832031 24.289062 28.042969 28.039062 26.472656 C 29.164062 26 30.449219 25.699219 31.671875 25.699219 C 31.84375 25.699219 32.042969 25.671875 32.207031 25.730469 C 32.597656 25.863281 32.828125 26.308594 32.636719 26.683594 C 32.375 27.195312 31.855469 27.070312 31.390625 27.113281 C 30.390625 27.207031 29.417969 27.40625 28.488281 27.796875 C 25.808594 28.921875 23.722656 31.355469 23.113281 34.214844 C 22.25 38.273438 24.183594 42.519531 27.925781 44.390625 C 29.5 45.179688 31.226562 45.425781 32.96875 45.304688 C 34.195312 45.21875 35.40625 44.925781 36.546875 44.464844 C 36.902344 44.324219 37.476562 44.15625 37.730469 43.863281 Z "/>
</svg>
