<svg width="64" xmlns="http://www.w3.org/2000/svg" height="64" viewBox="0 0 64 64" xmlns:xlink="http://www.w3.org/1999/xlink">
<path style="fill:#c19553" d="M 10.667969 1.332031 C 9.296875 1.332031 8 2.628906 8 4 L 8 60 C 8 61.296875 9.371094 62.667969 10.667969 62.667969 L 53.332031 62.667969 C 54.628906 62.667969 56 61.296875 56 60 L 56 18.667969 L 38.667969 1.332031 Z "/>
<path style="fill:#000;fill-opacity:.196" d="M 38.667969 16 L 38.75 16.082031 L 38.957031 16 Z M 41.332031 18.667969 L 56 33.332031 L 56 18.667969 Z "/>
<path style="fill:#fff;fill-opacity:.392" d="M 38.667969 1.332031 L 56 18.667969 L 41.332031 18.667969 C 40.039062 18.667969 38.667969 17.296875 38.667969 16 Z "/>
<path style="fill:#000;fill-opacity:.196" d="M 8 46.667969 L 8 60 C 8 61.296875 9.371094 62.667969 10.667969 62.667969 L 53.332031 62.667969 C 54.628906 62.667969 56 61.296875 56 60 L 56 46.667969 Z "/>
<g style="fill:#fff">
<path d="M 24 1.332031 L 24 6.667969 L 29.332031 6.667969 L 29.332031 1.332031 Z M 24 6.667969 L 18.667969 6.667969 L 18.667969 12 L 24 12 Z M 24 12 L 24 17.332031 L 29.332031 17.332031 L 29.332031 12 Z M 24 17.332031 L 18.667969 17.332031 L 18.667969 22.667969 L 24 22.667969 Z M 24 22.667969 L 24 28 L 29.332031 28 L 29.332031 22.667969 Z M 18.667969 30.667969 L 18.667969 41.332031 L 29.332031 41.332031 L 29.332031 30.667969 Z "/>
<path d="M 20.6875 51.101562 C 20.207031 51.101562 19.800781 51.1875 19.472656 51.363281 C 19.140625 51.539062 18.867188 51.789062 18.648438 52.105469 C 18.441406 52.414062 18.285156 52.789062 18.1875 53.230469 C 18.101562 53.660156 18.054688 54.136719 18.054688 54.667969 C 18.054688 55.886719 18.25 56.789062 18.632812 57.375 C 19.015625 57.945312 19.582031 58.234375 20.328125 58.234375 C 20.449219 58.234375 20.578125 58.226562 20.722656 58.214844 C 20.863281 58.207031 20.996094 58.1875 21.117188 58.167969 L 21.117188 54.433594 L 23.140625 54.433594 L 23.140625 59.539062 C 22.898438 59.625 22.519531 59.722656 22.003906 59.835938 C 21.5 59.945312 20.886719 60 20.164062 60 C 19.527344 60 18.949219 59.890625 18.433594 59.667969 C 17.929688 59.4375 17.496094 59.101562 17.136719 58.664062 C 16.773438 58.210938 16.492188 57.65625 16.296875 56.996094 C 16.097656 56.324219 16 55.546875 16 54.667969 C 16 53.796875 16.113281 53.03125 16.34375 52.371094 C 16.574219 51.699219 16.886719 51.136719 17.285156 50.6875 C 17.679688 50.234375 18.144531 49.898438 18.683594 49.679688 C 19.21875 49.449219 19.796875 49.332031 20.410156 49.332031 C 20.804688 49.332031 21.15625 49.367188 21.460938 49.433594 C 21.78125 49.488281 22.054688 49.554688 22.285156 49.628906 C 22.515625 49.707031 22.703125 49.789062 22.84375 49.878906 C 22.996094 49.964844 23.113281 50.03125 23.191406 50.074219 L 22.664062 51.695312 C 22.421875 51.539062 22.125 51.402344 21.773438 51.28125 C 21.425781 51.160156 21.0625 51.101562 20.6875 51.101562 "/>
<path d="M 31.101562 50.984375 C 30.632812 51.710938 30.199219 52.394531 29.804688 53.03125 C 29.410156 53.671875 29.042969 54.28125 28.703125 54.863281 C 28.359375 55.4375 28.039062 55.992188 27.730469 56.53125 C 27.433594 57.0625 27.148438 57.582031 26.875 58.101562 L 31.25 58.101562 L 31.25 59.785156 L 24.539062 59.785156 L 24.539062 58.613281 C 24.78125 58.140625 25.039062 57.644531 25.3125 57.125 C 25.585938 56.597656 25.894531 56.035156 26.234375 55.441406 C 26.574219 54.847656 26.941406 54.203125 27.335938 53.511719 C 27.742188 52.816406 28.1875 52.0625 28.667969 51.25 L 24.753906 51.25 L 24.753906 49.5625 L 31.101562 49.5625 L 31.101562 50.984375 "/>
<path d="M 32.898438 59.785156 L 32.898438 58.101562 L 35.117188 58.101562 L 35.117188 51.25 L 32.898438 51.25 L 32.898438 49.5625 L 39.363281 49.5625 L 39.363281 51.25 L 37.15625 51.25 L 37.15625 58.101562 L 39.363281 58.101562 L 39.363281 59.785156 L 32.898438 59.785156 "/>
<path d="M 43.917969 49.449219 C 45.214844 49.449219 46.21875 49.71875 46.929688 50.257812 C 47.644531 50.785156 48 51.65625 48 52.867188 C 48 54.089844 47.636719 54.976562 46.914062 55.523438 C 46.203125 56.0625 45.1875 56.335938 43.871094 56.335938 L 43.148438 56.335938 L 43.148438 59.785156 L 41.121094 59.785156 L 41.121094 49.695312 C 41.320312 49.652344 41.539062 49.613281 41.78125 49.582031 C 42.035156 49.546875 42.285156 49.527344 42.539062 49.515625 C 42.789062 49.492188 43.035156 49.476562 43.277344 49.464844 C 43.519531 49.453125 43.734375 49.449219 43.917969 49.449219 M 44.148438 51.214844 C 44.03125 51.214844 43.859375 51.222656 43.640625 51.230469 C 43.433594 51.230469 43.265625 51.242188 43.148438 51.265625 L 43.148438 54.566406 L 43.96875 54.566406 C 44.617188 54.566406 45.105469 54.441406 45.433594 54.1875 C 45.761719 53.921875 45.925781 53.476562 45.925781 52.851562 C 45.925781 52.253906 45.761719 51.835938 45.433594 51.59375 C 45.117188 51.34375 44.6875 51.214844 44.148438 51.214844 "/>
</g>
</svg>
