<svg width="64" xmlns="http://www.w3.org/2000/svg" height="64" viewBox="0 0 64 64" xmlns:xlink="http://www.w3.org/1999/xlink">
<path style="fill:#c19553" d="M 10.667969 1.332031 C 9.296875 1.332031 8 2.628906 8 4 L 8 60 C 8 61.296875 9.371094 62.667969 10.667969 62.667969 L 53.332031 62.667969 C 54.628906 62.667969 56 61.296875 56 60 L 56 18.667969 L 38.667969 1.332031 Z "/>
<path style="fill:#000;fill-opacity:.196" d="M 38.667969 16 L 38.75 16.082031 L 38.957031 16 Z M 41.332031 18.667969 L 56 33.332031 L 56 18.667969 Z "/>
<path style="fill:#fff;fill-opacity:.392" d="M 38.667969 1.332031 L 56 18.667969 L 41.332031 18.667969 C 40.039062 18.667969 38.667969 17.296875 38.667969 16 Z "/>
<path style="fill:#000;fill-opacity:.196" d="M 8 46.667969 L 8 60 C 8 61.296875 9.371094 62.667969 10.667969 62.667969 L 53.332031 62.667969 C 54.628906 62.667969 56 61.296875 56 60 L 56 46.667969 Z "/>
<g style="fill:#fff">
<path d="M 24 1.332031 L 24 6.667969 L 29.332031 6.667969 L 29.332031 1.332031 Z M 24 6.667969 L 18.667969 6.667969 L 18.667969 12 L 24 12 Z M 24 12 L 24 17.332031 L 29.332031 17.332031 L 29.332031 12 Z M 24 17.332031 L 18.667969 17.332031 L 18.667969 22.667969 L 24 22.667969 Z M 24 22.667969 L 24 28 L 29.332031 28 L 29.332031 22.667969 Z M 18.667969 30.667969 L 18.667969 41.332031 L 29.332031 41.332031 L 29.332031 30.667969 Z "/>
<path d="M 25.199219 59.78125 L 24.65625 57.394531 L 21.578125 57.394531 L 21.054688 59.78125 L 18.667969 59.78125 C 19.214844 57.746094 19.769531 55.894531 20.328125 54.222656 C 20.886719 52.542969 21.429688 50.953125 21.949219 49.449219 L 24.453125 49.449219 C 25 50.964844 25.539062 52.570312 26.074219 54.273438 C 26.621094 55.964844 27.152344 57.800781 27.660156 59.78125 L 25.199219 59.78125 M 23.144531 51.453125 C 23.019531 51.84375 22.902344 52.214844 22.789062 52.570312 C 22.691406 52.917969 22.589844 53.261719 22.492188 53.605469 C 22.40625 53.941406 22.316406 54.28125 22.230469 54.625 C 22.15625 54.96875 22.082031 55.324219 22.007812 55.691406 L 24.265625 55.691406 C 24.191406 55.324219 24.117188 54.96875 24.039062 54.625 C 23.964844 54.28125 23.878906 53.941406 23.78125 53.605469 C 23.691406 53.261719 23.59375 52.917969 23.480469 52.570312 C 23.382812 52.214844 23.269531 51.84375 23.144531 51.453125 "/>
<path d="M 31.824219 49.332031 C 32.480469 49.332031 33.078125 49.398438 33.613281 49.535156 C 34.148438 49.667969 34.609375 49.871094 34.996094 50.152344 C 35.378906 50.429688 35.671875 50.785156 35.871094 51.21875 C 36.082031 51.640625 36.1875 52.144531 36.1875 52.722656 C 36.1875 53.324219 36.050781 53.867188 35.777344 54.359375 C 35.503906 54.847656 35.050781 55.21875 34.417969 55.476562 C 34.628906 55.765625 34.851562 56.089844 35.089844 56.445312 C 35.324219 56.789062 35.554688 57.15625 35.777344 57.546875 C 36.003906 57.925781 36.214844 58.308594 36.414062 58.699219 C 36.625 59.078125 36.804688 59.4375 36.953125 59.78125 L 34.546875 59.78125 C 34.261719 59.113281 33.925781 58.476562 33.539062 57.863281 C 33.167969 57.238281 32.761719 56.609375 32.328125 55.976562 L 31.132812 55.976562 L 31.132812 59.78125 L 28.835938 59.78125 L 28.835938 49.601562 C 29.0625 49.554688 29.304688 49.515625 29.566406 49.484375 C 29.839844 49.4375 30.113281 49.410156 30.386719 49.398438 C 30.660156 49.378906 30.921875 49.359375 31.167969 49.351562 C 31.417969 49.339844 31.636719 49.332031 31.824219 49.332031 M 33.855469 52.707031 C 33.855469 52.160156 33.671875 51.757812 33.296875 51.503906 C 32.921875 51.246094 32.433594 51.121094 31.824219 51.121094 C 31.734375 51.121094 31.628906 51.125 31.503906 51.136719 C 31.382812 51.136719 31.257812 51.148438 31.132812 51.167969 L 31.132812 54.273438 L 31.636719 54.273438 C 32.417969 54.273438 32.984375 54.140625 33.335938 53.875 C 33.683594 53.59375 33.855469 53.207031 33.855469 52.707031 "/>
<path d="M 45.332031 56.328125 C 45.332031 56.828125 45.257812 57.300781 45.109375 57.746094 C 44.972656 58.191406 44.734375 58.582031 44.398438 58.914062 C 44.078125 59.25 43.652344 59.515625 43.132812 59.714844 C 42.609375 59.90625 41.972656 60 41.226562 60 C 40.445312 60 39.789062 59.910156 39.269531 59.734375 C 38.746094 59.554688 38.304688 59.335938 37.945312 59.082031 L 38.820312 57.445312 C 39.132812 57.625 39.472656 57.796875 39.847656 57.964844 C 40.234375 58.128906 40.625 58.214844 41.023438 58.214844 C 41.621094 58.214844 42.097656 58.074219 42.460938 57.796875 C 42.832031 57.507812 43.019531 56.976562 43.019531 56.210938 L 43.019531 51.152344 L 39.15625 51.152344 L 39.15625 49.449219 L 45.332031 49.449219 L 45.332031 56.328125 "/>
</g>
</svg>
