<svg width="64" xmlns="http://www.w3.org/2000/svg" height="64" viewBox="0 0 64 64" xmlns:xlink="http://www.w3.org/1999/xlink">
<path style="fill:#7099c3" d="M 10.667969 1.332031 C 9.296875 1.332031 8 2.628906 8 4 L 8 60 C 8 61.296875 9.371094 62.667969 10.667969 62.667969 L 53.332031 62.667969 C 54.628906 62.667969 56 61.296875 56 60 L 56 4 C 56 2.628906 54.703125 1.332031 53.332031 1.332031 Z "/>
<g style="fill:#fff">
<path d="M 22.183594 26.546875 L 22.183594 28.726562 L 41.816406 28.726562 L 41.816406 26.546875 Z "/>
<path d="M 21.089844 30.910156 L 21.089844 33.089844 L 42.910156 33.089844 L 42.910156 30.910156 Z "/>
<path d="M 22.183594 35.273438 L 22.183594 37.453125 L 41.816406 37.453125 L 41.816406 35.273438 Z "/>
<path d="M 30.910156 21.089844 L 30.910156 42.910156 L 33.089844 42.910156 L 33.089844 21.089844 Z "/>
</g>
<g style="fill:none;stroke:#fff">
<g style="stroke-width:2">
<path d="M 20.440814 32.998539 C 18.442738 27.000731 18.442738 20.999342 20.440814 15.001534 " transform="matrix(1.09089 0 0 1.09089 5.81844 5.81852)"/>
<path d="M 27.469887 32.998539 C 29.467962 27.999769 29.467962 20.999342 27.469887 15.001534 " transform="matrix(1.09089 0 0 1.09089 5.81844 5.81852)"/>
</g>
<path style="stroke-linecap:round;stroke-width:1.821" d="M 33.058312 27.317125 C 33.058312 32.343949 28.98013 36.422132 23.953306 36.422132 C 18.926482 36.422132 14.848299 32.343949 14.848299 27.317125 C 14.848299 22.290301 18.926482 18.212119 23.953306 18.212119 C 28.98013 18.212119 33.058312 22.290301 33.058312 27.317125 Z " transform="matrix(1.19826 0 0 1.19826 3.29773 -.73299)"/>
</g>
</svg>
