<svg width="64" xmlns="http://www.w3.org/2000/svg" height="64" viewBox="0 0 64 64" xmlns:xlink="http://www.w3.org/1999/xlink">
<path style="fill:#5a68a4" d="M 10.667969 1.332031 C 9.296875 1.332031 8 2.628906 8 4 L 8 60 C 8 61.296875 9.371094 62.667969 10.667969 62.667969 L 53.332031 62.667969 C 54.628906 62.667969 56 61.296875 56 60 L 56 18.667969 L 38.667969 1.332031 Z "/>
<path style="fill:#fff;fill-opacity:.392" d="M 38.667969 1.332031 L 56 18.667969 L 41.332031 18.667969 C 40.039062 18.667969 38.667969 17.296875 38.667969 16 Z "/>
<path style="fill:#000;fill-opacity:.196" d="M 38.667969 16 L 38.75 16.082031 L 38.957031 16 Z M 41.332031 18.667969 L 56 33.332031 L 56 18.667969 Z "/>
<path style="fill:#fff;fill-rule:evenodd" d="M 48 36 C 48 41.890625 40.835938 46.667969 32 46.667969 C 23.164062 46.667969 16 41.890625 16 36 C 16 30.109375 23.164062 25.332031 32 25.332031 C 40.835938 25.332031 48 30.109375 48 36 Z "/>
<g style="fill:#5a68a4">
<path d="M 27.507812 32.046875 C 28.191406 32.046875 28.730469 32.28125 29.121094 32.75 C 29.519531 33.214844 29.71875 33.867188 29.71875 34.703125 C 29.71875 35.535156 29.554688 36.332031 29.234375 37.101562 C 28.914062 37.863281 28.480469 38.472656 27.921875 38.921875 C 27.367188 39.371094 26.753906 39.59375 26.085938 39.59375 C 25.699219 39.59375 25.363281 39.511719 25.082031 39.351562 C 24.804688 39.191406 24.542969 38.917969 24.304688 38.53125 L 24.25 38.53125 C 24.195312 39.222656 24.09375 39.863281 23.949219 40.453125 L 23.441406 42.667969 L 21.332031 42.667969 L 23.730469 32.183594 L 25.34375 32.183594 L 25.222656 33.292969 L 25.285156 33.292969 C 25.933594 32.460938 26.671875 32.046875 27.507812 32.046875 M 26.660156 33.636719 C 26.34375 33.636719 26.035156 33.785156 25.734375 34.078125 C 25.441406 34.371094 25.203125 34.761719 25.019531 35.25 C 24.84375 35.738281 24.753906 36.277344 24.753906 36.867188 C 24.753906 37.214844 24.839844 37.492188 25.011719 37.699219 C 25.1875 37.90625 25.425781 38.011719 25.730469 38.011719 C 26.042969 38.011719 26.339844 37.863281 26.625 37.5625 C 26.910156 37.261719 27.140625 36.851562 27.3125 36.332031 C 27.492188 35.808594 27.578125 35.289062 27.578125 34.78125 C 27.578125 34.019531 27.273438 33.636719 26.660156 33.636719 "/>
<path d="M 35.078125 39.464844 L 32.96875 39.464844 L 33.925781 35.210938 C 34.003906 34.917969 34.039062 34.660156 34.039062 34.4375 C 34.039062 33.902344 33.789062 33.636719 33.28125 33.636719 C 32.851562 33.636719 32.460938 33.882812 32.113281 34.378906 C 31.761719 34.875 31.484375 35.5625 31.285156 36.449219 L 30.597656 39.464844 L 28.488281 39.464844 L 30.800781 29.332031 L 32.910156 29.332031 C 32.730469 30.117188 32.589844 30.722656 32.492188 31.144531 C 32.390625 31.5625 32.191406 32.234375 31.886719 33.15625 L 31.945312 33.15625 C 32.234375 32.820312 32.554688 32.554688 32.910156 32.355469 C 33.265625 32.148438 33.675781 32.046875 34.144531 32.046875 C 34.789062 32.046875 35.289062 32.230469 35.636719 32.59375 C 35.992188 32.957031 36.171875 33.472656 36.171875 34.144531 C 36.171875 34.460938 36.117188 34.851562 36.007812 35.316406 L 35.078125 39.464844 "/>
<path d="M 40.457031 32.046875 C 41.140625 32.046875 41.679688 32.28125 42.070312 32.75 C 42.46875 33.214844 42.667969 33.867188 42.667969 34.703125 C 42.667969 35.535156 42.503906 36.332031 42.183594 37.101562 C 41.863281 37.863281 41.429688 38.472656 40.871094 38.921875 C 40.316406 39.371094 39.703125 39.59375 39.035156 39.59375 C 38.648438 39.59375 38.3125 39.511719 38.03125 39.351562 C 37.753906 39.191406 37.492188 38.917969 37.253906 38.53125 L 37.199219 38.53125 C 37.144531 39.222656 37.042969 39.863281 36.898438 40.453125 L 36.394531 42.667969 L 34.28125 42.667969 L 36.679688 32.183594 L 38.292969 32.183594 L 38.171875 33.292969 L 38.238281 33.292969 C 38.882812 32.460938 39.621094 32.046875 40.457031 32.046875 M 39.609375 33.636719 C 39.292969 33.636719 38.984375 33.785156 38.683594 34.078125 C 38.390625 34.371094 38.152344 34.761719 37.96875 35.25 C 37.792969 35.738281 37.703125 36.277344 37.703125 36.867188 C 37.703125 37.214844 37.789062 37.492188 37.964844 37.699219 C 38.136719 37.90625 38.375 38.011719 38.679688 38.011719 C 38.992188 38.011719 39.289062 37.863281 39.574219 37.5625 C 39.859375 37.261719 40.089844 36.851562 40.261719 36.332031 C 40.441406 35.808594 40.527344 35.289062 40.527344 34.78125 C 40.527344 34.019531 40.222656 33.636719 39.609375 33.636719 "/>
</g>
</svg>
