<svg width="64" xmlns="http://www.w3.org/2000/svg" height="64" viewBox="0 0 64 64" xmlns:xlink="http://www.w3.org/1999/xlink">
<path style="fill:#7c9c35" d="M 10.667969 1.332031 C 9.296875 1.332031 8 2.628906 8 4 L 8 60 C 8 61.296875 9.371094 62.667969 10.667969 62.667969 L 53.332031 62.667969 C 54.628906 62.667969 56 61.296875 56 60 L 56 18.667969 L 38.667969 1.332031 Z "/>
<path style="fill:#000;fill-opacity:.196" d="M 38.667969 16 L 38.75 16.082031 L 38.957031 16 Z M 41.332031 18.667969 L 56 33.332031 L 56 18.667969 Z "/>
<g style="fill:#fff">
<path style="fill-opacity:.392" d="M 38.667969 1.332031 L 56 18.667969 L 41.332031 18.667969 C 40.039062 18.667969 38.667969 17.296875 38.667969 16 Z "/>
<path d="M 32 43.046875 L 23.621094 34.667969 L 32 26.285156 L 34.792969 29.078125 L 29.207031 34.667969 L 32 37.460938 L 40.378906 29.082031 L 33.078125 21.78125 C 32.484375 21.183594 31.515625 21.183594 30.921875 21.78125 L 19.113281 33.585938 C 18.519531 34.183594 18.519531 35.148438 19.113281 35.746094 L 30.921875 47.550781 C 31.515625 48.148438 32.484375 48.148438 33.078125 47.550781 L 44.886719 35.746094 C 45.480469 35.148438 45.480469 34.183594 44.886719 33.585938 L 43.171875 31.875 Z "/>
</g>
</svg>
