<svg width="64" xmlns="http://www.w3.org/2000/svg" height="64" viewBox="0 0 64 64" xmlns:xlink="http://www.w3.org/1999/xlink">
<path style="fill:#a33639" d="M 10.667969 1.332031 C 9.296875 1.332031 8 2.628906 8 4 L 8 60 C 8 61.296875 9.371094 62.667969 10.667969 62.667969 L 53.332031 62.667969 C 54.628906 62.667969 56 61.296875 56 60 L 56 18.667969 L 38.667969 1.332031 Z "/>
<path style="fill:#000;fill-opacity:.196" d="M 38.667969 16 L 38.75 16.082031 L 38.957031 16 Z M 41.332031 18.667969 L 56 33.332031 L 56 18.667969 Z "/>
<path style="fill:#fff;fill-opacity:.392" d="M 38.667969 1.332031 L 56 18.667969 L 41.332031 18.667969 C 40.039062 18.667969 38.667969 17.296875 38.667969 16 Z "/>
<g style="fill:#fff">
<path d="M 32 24 C 26.109375 24 21.332031 25.492188 21.332031 27.332031 L 21.332031 30 C 21.332031 31.839844 26.109375 33.332031 32 33.332031 C 37.890625 33.332031 42.667969 31.839844 42.667969 30 L 42.667969 27.332031 C 42.667969 25.492188 37.890625 24 32 24 Z "/>
<path d="M 31.964844 34.667969 C 27.191406 34.667969 23.164062 33.6875 21.804688 32.332031 C 21.488281 32.648438 21.332031 32.984375 21.332031 33.332031 L 21.332031 36 C 21.332031 37.839844 26.109375 39.332031 32 39.332031 C 37.890625 39.332031 42.667969 37.839844 42.667969 36 L 42.667969 33.332031 C 42.667969 32.984375 42.476562 32.648438 42.160156 32.332031 C 40.800781 33.6875 36.742188 34.667969 31.964844 34.667969 Z "/>
<path d="M 31.964844 40.667969 C 27.191406 40.667969 23.164062 39.6875 21.804688 38.332031 C 21.488281 38.648438 21.332031 38.984375 21.332031 39.332031 L 21.332031 42 C 21.332031 43.839844 26.109375 45.332031 32 45.332031 C 37.890625 45.332031 42.667969 43.839844 42.667969 42 L 42.667969 39.332031 C 42.667969 38.984375 42.476562 38.648438 42.160156 38.332031 C 40.800781 39.6875 36.742188 40.667969 31.964844 40.667969 Z "/>
</g>
</svg>
