<svg width="64" xmlns="http://www.w3.org/2000/svg" height="64" viewBox="0 0 64 64" xmlns:xlink="http://www.w3.org/1999/xlink">
<path style="fill:#c19553" d="M 10.667969 1.332031 C 9.296875 1.332031 8 2.628906 8 4 L 8 60 C 8 61.296875 9.371094 62.667969 10.667969 62.667969 L 53.332031 62.667969 C 54.628906 62.667969 56 61.296875 56 60 L 56 18.667969 L 38.667969 1.332031 Z "/>
<path style="fill:#000;fill-opacity:.196" d="M 38.667969 16 L 38.75 16.082031 L 38.957031 16 Z M 41.332031 18.667969 L 56 33.332031 L 56 18.667969 Z "/>
<path style="fill:#fff;fill-opacity:.392" d="M 38.667969 1.332031 L 56 18.667969 L 41.332031 18.667969 C 40.039062 18.667969 38.667969 17.296875 38.667969 16 Z "/>
<path style="fill:#000;fill-opacity:.196" d="M 8 46.667969 L 8 60 C 8 61.296875 9.371094 62.667969 10.667969 62.667969 L 53.332031 62.667969 C 54.628906 62.667969 56 61.296875 56 60 L 56 46.667969 Z "/>
<g style="fill:#fff">
<path d="M 24 1.332031 L 24 6.667969 L 29.332031 6.667969 L 29.332031 1.332031 Z M 24 6.667969 L 18.667969 6.667969 L 18.667969 12 L 24 12 Z M 24 12 L 24 17.332031 L 29.332031 17.332031 L 29.332031 12 Z M 24 17.332031 L 18.667969 17.332031 L 18.667969 22.667969 L 24 22.667969 Z M 24 22.667969 L 24 28 L 29.332031 28 L 29.332031 22.667969 Z M 18.667969 30.667969 L 18.667969 41.332031 L 29.332031 41.332031 L 29.332031 30.667969 Z "/>
<path d="M 22.925781 56.71875 C 22.925781 57.347656 22.816406 57.875 22.605469 58.300781 C 22.394531 58.714844 22.105469 59.050781 21.738281 59.308594 C 21.382812 59.558594 20.957031 59.738281 20.453125 59.847656 C 19.964844 59.949219 19.4375 60 18.871094 60 C 18.414062 60 17.941406 59.972656 17.453125 59.917969 C 16.960938 59.871094 16.476562 59.796875 16 59.699219 L 16 49.585938 C 16.390625 49.519531 16.816406 49.460938 17.285156 49.417969 C 17.75 49.363281 18.214844 49.332031 18.667969 49.332031 C 19.449219 49.332031 20.082031 49.417969 20.570312 49.585938 C 21.0625 49.742188 21.445312 49.957031 21.722656 50.226562 C 22 50.484375 22.191406 50.773438 22.289062 51.101562 C 22.390625 51.425781 22.441406 51.75 22.441406 52.074219 C 22.441406 52.570312 22.316406 53.007812 22.074219 53.386719 C 21.839844 53.769531 21.523438 54.074219 21.121094 54.296875 C 21.824219 54.554688 22.296875 54.902344 22.539062 55.339844 C 22.796875 55.777344 22.925781 56.238281 22.925781 56.71875 M 18.050781 55.304688 L 18.050781 58.132812 C 18.195312 58.15625 18.351562 58.171875 18.519531 58.183594 C 18.695312 58.195312 18.871094 58.199219 19.035156 58.199219 C 19.269531 58.199219 19.5 58.183594 19.71875 58.148438 C 19.941406 58.105469 20.136719 58.03125 20.304688 57.929688 C 20.484375 57.820312 20.628906 57.667969 20.738281 57.476562 C 20.847656 57.273438 20.90625 57.023438 20.90625 56.71875 C 20.90625 56.214844 20.742188 55.855469 20.421875 55.644531 C 20.109375 55.417969 19.6875 55.304688 19.152344 55.304688 L 18.050781 55.304688 M 18.851562 53.589844 C 19.375 53.589844 19.769531 53.476562 20.039062 53.253906 C 20.304688 53.019531 20.4375 52.699219 20.4375 52.292969 C 20.4375 52.046875 20.398438 51.851562 20.320312 51.707031 C 20.242188 51.546875 20.136719 51.429688 20.003906 51.351562 C 19.871094 51.261719 19.714844 51.207031 19.535156 51.183594 C 19.359375 51.152344 19.175781 51.132812 18.988281 51.132812 C 18.832031 51.132812 18.667969 51.140625 18.503906 51.152344 C 18.335938 51.160156 18.1875 51.179688 18.050781 51.199219 L 18.050781 53.589844 L 18.851562 53.589844 "/>
<path d="M 30.867188 50.898438 C 30.386719 51.636719 29.949219 52.332031 29.546875 52.984375 C 29.148438 53.636719 28.773438 54.257812 28.429688 54.851562 C 28.085938 55.433594 27.757812 56 27.445312 56.550781 C 27.144531 57.089844 26.855469 57.621094 26.578125 58.148438 L 31.015625 58.148438 L 31.015625 59.867188 L 24.207031 59.867188 L 24.207031 58.671875 C 24.453125 58.1875 24.714844 57.683594 24.992188 57.15625 C 25.269531 56.617188 25.582031 56.046875 25.925781 55.441406 C 26.273438 54.835938 26.644531 54.179688 27.042969 53.472656 C 27.457031 52.765625 27.90625 51.996094 28.394531 51.167969 L 24.425781 51.167969 L 24.425781 49.453125 L 30.867188 49.453125 L 30.867188 50.898438 "/>
<path d="M 32.683594 59.867188 L 32.683594 58.148438 L 34.9375 58.148438 L 34.9375 51.167969 L 32.683594 51.167969 L 32.683594 49.453125 L 39.242188 49.453125 L 39.242188 51.167969 L 37.003906 51.167969 L 37.003906 58.148438 L 39.242188 58.148438 L 39.242188 59.867188 L 32.683594 59.867188 "/>
<path d="M 43.863281 49.332031 C 45.175781 49.332031 46.191406 49.609375 46.914062 50.15625 C 47.636719 50.695312 48 51.582031 48 52.816406 C 48 54.0625 47.632812 54.964844 46.898438 55.523438 C 46.175781 56.074219 45.148438 56.347656 43.8125 56.347656 L 43.078125 56.347656 L 43.078125 59.867188 L 41.027344 59.867188 L 41.027344 49.585938 C 41.226562 49.539062 41.449219 49.5 41.695312 49.46875 C 41.949219 49.433594 42.203125 49.410156 42.460938 49.402344 C 42.714844 49.378906 42.96875 49.363281 43.210938 49.351562 C 43.457031 49.339844 43.671875 49.332031 43.863281 49.332031 M 44.097656 51.132812 C 43.972656 51.132812 43.800781 51.140625 43.578125 51.152344 C 43.367188 51.152344 43.199219 51.160156 43.078125 51.183594 L 43.078125 54.550781 L 43.914062 54.550781 C 44.570312 54.550781 45.0625 54.421875 45.398438 54.160156 C 45.730469 53.894531 45.898438 53.4375 45.898438 52.800781 C 45.898438 52.195312 45.730469 51.765625 45.398438 51.519531 C 45.074219 51.261719 44.640625 51.132812 44.097656 51.132812 "/>
</g>
</svg>
