<svg width="64" xmlns="http://www.w3.org/2000/svg" height="64" viewBox="0 0 64 64" xmlns:xlink="http://www.w3.org/1999/xlink">
<path style="fill:#dc322f" d="M 10.667969 1.332031 C 9.296875 1.332031 8 2.628906 8 4 L 8 60 C 8 61.296875 9.371094 62.667969 10.667969 62.667969 L 53.332031 62.667969 C 54.628906 62.667969 56 61.296875 56 60 L 56 18.667969 L 38.667969 1.332031 Z "/>
<path style="fill:#000;fill-opacity:.196" d="M 38.667969 16 L 38.75 16.082031 L 38.957031 16 Z M 41.332031 18.667969 L 56 33.332031 L 56 18.667969 Z "/>
<path style="fill:#fff;fill-opacity:.392" d="M 38.667969 1.332031 L 56 18.667969 L 41.332031 18.667969 C 40.039062 18.667969 38.667969 17.296875 38.667969 16 Z "/>
<g style="fill:#fff">
<path d="M 42.667969 25.332031 L 42.667969 24 L 21.332031 24 L 21.332031 25.332031 L 20 25.332031 L 20 32 L 21.332031 32 L 21.332031 33.332031 L 42.667969 33.332031 L 42.667969 32 L 44 32 L 44 25.332031 Z M 21.332031 25.332031 L 34.667969 25.332031 L 34.667969 32 L 21.332031 32 Z M 37.332031 26.667969 L 41.332031 26.667969 L 41.332031 29.332031 L 40 29.332031 L 40 30.667969 L 38.667969 30.667969 L 38.667969 29.332031 L 37.332031 29.332031 Z "/>
<path d="M 21.332031 37.332031 L 21.332031 38.667969 L 20 38.667969 L 20 46.667969 L 21.332031 46.667969 L 21.332031 48 L 29.332031 48 L 29.332031 46.667969 L 30.667969 46.667969 L 30.667969 38.667969 L 29.332031 38.667969 L 29.332031 37.332031 Z M 28 40 L 29.332031 40 L 29.332031 41.332031 L 28 41.285156 L 28 42.667969 L 26.667969 42.667969 L 26.667969 44 L 25.332031 44 L 25.332031 45.332031 L 24 45.332031 L 24 44 L 22.667969 44 L 22.667969 42.667969 L 24 42.667969 L 24 44 L 25.332031 44 L 25.332031 42.667969 L 26.667969 42.667969 L 26.667969 41.332031 L 28 41.332031 Z "/>
<path d="M 35.980469 37.332031 L 35.980469 38.667969 L 41.3125 38.667969 L 41.3125 37.332031 Z M 41.3125 38.667969 L 41.3125 40 L 42.644531 40 L 42.644531 38.667969 Z M 42.644531 40 L 42.644531 45.332031 L 43.980469 45.332031 L 43.980469 40 Z M 42.644531 45.332031 L 41.3125 45.332031 L 41.3125 46.667969 L 42.644531 46.667969 Z M 41.3125 46.667969 L 35.980469 46.667969 L 35.980469 48 L 41.3125 48 Z M 35.980469 46.667969 L 35.980469 45.332031 L 34.644531 45.332031 L 34.644531 46.667969 Z M 34.644531 45.332031 L 34.644531 40 L 33.3125 40 L 33.3125 45.332031 Z M 34.644531 40 L 35.980469 40 L 35.980469 38.667969 L 34.644531 38.667969 Z "/>
<path d="M 37.3125 44 L 35.980469 44 L 35.980469 41.332031 L 37.3125 41.332031 L 37.3125 40 L 39.980469 40 L 39.980469 41.332031 L 41.3125 41.332031 L 41.3125 44 L 39.980469 44 L 39.980469 45.332031 L 37.3125 45.332031 Z "/>
</g>
</svg>
