<?xml version="1.0" encoding="UTF-8" standalone="yes"?>
<svg xmlns="http://www.w3.org/2000/svg" xmlns:xlink="http://www.w3.org/1999/xlink" width="96px" height="96px" viewBox="0 0 72 72" version="1.1">
  <g id="surface1">
    <path style=" stroke:none;fill-rule:nonzero;fill:rgb(75.686275%,58.431373%,32.54902%);fill-opacity:1;" d="M 12 1.5 C 10.457031 1.5 9 2.957031 9 4.5 L 9 67.5 C 9 68.957031 10.542969 70.5 12 70.5 L 60 70.5 C 61.457031 70.5 63 68.957031 63 67.5 L 63 21 L 43.5 1.5 Z M 12 1.5 "/>
    <path style=" stroke:none;fill-rule:nonzero;fill:rgb(0%,0%,0%);fill-opacity:0.196078;" d="M 43.5 18 L 43.59375 18.09375 L 43.828125 18 Z M 46.5 21 L 63 37.5 L 63 21 Z M 46.5 21 "/>
    <path style=" stroke:none;fill-rule:nonzero;fill:rgb(100%,100%,100%);fill-opacity:0.392157;" d="M 43.5 1.5 L 63 21 L 46.5 21 C 45.042969 21 43.5 19.457031 43.5 18 Z M 43.5 1.5 "/>
    <path style=" stroke:none;fill-rule:nonzero;fill:rgb(0%,0%,0%);fill-opacity:0.196078;" d="M 9 52.5 L 9 67.5 C 9 68.957031 10.542969 70.5 12 70.5 L 60 70.5 C 61.457031 70.5 63 68.957031 63 67.5 L 63 52.5 Z M 9 52.5 "/>
    <path style=" stroke:none;fill-rule:nonzero;fill:rgb(100%,100%,100%);fill-opacity:1;" d="M 27 1.5 L 27 7.5 L 33 7.5 L 33 1.5 Z M 27 7.5 L 21 7.5 L 21 13.5 L 27 13.5 Z M 27 13.5 L 27 19.5 L 33 19.5 L 33 13.5 Z M 27 19.5 L 21 19.5 L 21 25.5 L 27 25.5 Z M 27 25.5 L 27 31.5 L 33 31.5 L 33 25.5 Z M 21 34.5 L 21 46.5 L 33 46.5 L 33 34.5 Z M 21 34.5 "/>
    <path style=" stroke:none;fill-rule:nonzero;fill:rgb(100%,100%,100%);fill-opacity:1;" d="M 30.445312 55.632812 L 30.445312 57.5625 L 27.023438 57.5625 L 27.023438 67.347656 L 24.421875 67.347656 L 24.421875 57.5625 L 21 57.5625 L 21 55.632812 L 30.445312 55.632812 "/>
    <path style=" stroke:none;fill-rule:nonzero;fill:rgb(100%,100%,100%);fill-opacity:1;" d="M 40.816406 63.808594 C 40.816406 64.515625 40.683594 65.109375 40.417969 65.589844 C 40.152344 66.054688 39.789062 66.433594 39.328125 66.722656 C 38.878906 67 38.339844 67.203125 37.710938 67.328125 C 37.09375 67.441406 36.429688 67.5 35.714844 67.5 C 35.144531 67.5 34.546875 67.46875 33.933594 67.40625 C 33.316406 67.355469 32.707031 67.273438 32.105469 67.160156 L 32.105469 55.785156 C 32.59375 55.707031 33.132812 55.644531 33.722656 55.59375 C 34.308594 55.53125 34.890625 55.5 35.464844 55.5 C 36.445312 55.5 37.242188 55.59375 37.859375 55.785156 C 38.472656 55.960938 38.957031 56.199219 39.304688 56.503906 C 39.65625 56.792969 39.894531 57.121094 40.019531 57.488281 C 40.144531 57.851562 40.210938 58.21875 40.210938 58.585938 C 40.210938 59.140625 40.054688 59.632812 39.746094 60.0625 C 39.453125 60.492188 39.054688 60.832031 38.550781 61.082031 C 39.433594 61.375 40.027344 61.765625 40.335938 62.257812 C 40.65625 62.75 40.816406 63.265625 40.816406 63.808594 M 34.6875 62.21875 L 34.6875 65.398438 C 34.871094 65.425781 35.066406 65.441406 35.277344 65.457031 C 35.5 65.46875 35.714844 65.472656 35.925781 65.472656 C 36.21875 65.472656 36.507812 65.457031 36.789062 65.417969 C 37.066406 65.367188 37.3125 65.285156 37.523438 65.171875 C 37.746094 65.046875 37.929688 64.875 38.066406 64.660156 C 38.207031 64.433594 38.277344 64.148438 38.277344 63.808594 C 38.277344 63.242188 38.074219 62.835938 37.667969 62.597656 C 37.277344 62.34375 36.746094 62.21875 36.074219 62.21875 L 34.6875 62.21875 M 35.695312 60.289062 C 36.351562 60.289062 36.851562 60.164062 37.1875 59.910156 C 37.523438 59.644531 37.691406 59.285156 37.691406 58.832031 C 37.691406 58.554688 37.640625 58.332031 37.542969 58.167969 C 37.445312 57.992188 37.3125 57.859375 37.144531 57.769531 C 36.976562 57.671875 36.78125 57.605469 36.554688 57.582031 C 36.332031 57.542969 36.101562 57.523438 35.863281 57.523438 C 35.667969 57.523438 35.464844 57.53125 35.253906 57.542969 C 35.042969 57.554688 34.855469 57.574219 34.6875 57.601562 L 34.6875 60.289062 L 35.695312 60.289062 "/>
    <path style=" stroke:none;fill-rule:nonzero;fill:rgb(100%,100%,100%);fill-opacity:1;" d="M 50.8125 57.261719 C 50.210938 58.09375 49.65625 58.875 49.152344 59.605469 C 48.648438 60.339844 48.179688 61.039062 47.746094 61.707031 C 47.3125 62.363281 46.898438 63 46.507812 63.621094 C 46.128906 64.226562 45.765625 64.824219 45.414062 65.417969 L 51 65.417969 L 51 67.347656 L 42.433594 67.347656 L 42.433594 66.003906 C 42.742188 65.460938 43.070312 64.894531 43.421875 64.300781 C 43.769531 63.695312 44.164062 63.050781 44.597656 62.371094 C 45.03125 61.6875 45.5 60.949219 46.003906 60.15625 C 46.519531 59.359375 47.089844 58.496094 47.703125 57.5625 L 42.707031 57.5625 L 42.707031 55.632812 L 50.8125 55.632812 L 50.8125 57.261719 "/>
  </g>
</svg>