<?xml version="1.0" encoding="UTF-8" standalone="yes"?>
<svg xmlns="http://www.w3.org/2000/svg" xmlns:xlink="http://www.w3.org/1999/xlink" width="96px" height="96px" viewBox="0 0 72 72" version="1.1">
  <g id="surface1">
    <path style=" stroke:none;fill-rule:nonzero;fill:rgb(22.352941%,63.921569%,30.980392%);fill-opacity:1;" d="M 12 1.5 C 10.457031 1.5 9 2.957031 9 4.5 L 9 67.5 C 9 68.957031 10.542969 70.5 12 70.5 L 60 70.5 C 61.457031 70.5 63 68.957031 63 67.5 L 63 21 L 43.5 1.5 Z M 12 1.5 "/>
    <path style=" stroke:none;fill-rule:nonzero;fill:rgb(0%,0%,0%);fill-opacity:0.196078;" d="M 43.5 18 L 43.59375 18.09375 L 43.828125 18 Z M 46.5 21 L 63 37.5 L 63 21 Z M 46.5 21 "/>
    <path style=" stroke:none;fill-rule:nonzero;fill:rgb(100%,100%,100%);fill-opacity:0.392157;" d="M 43.5 1.5 L 63 21 L 46.5 21 C 45.042969 21 43.5 19.457031 43.5 18 Z M 43.5 1.5 "/>
    <path style=" stroke:none;fill-rule:nonzero;fill:rgb(0%,0%,0%);fill-opacity:0.196078;" d="M 9 52.5 L 9 67.5 C 9 68.957031 10.542969 70.5 12 70.5 L 60 70.5 C 61.457031 70.5 63 68.957031 63 67.5 L 63 52.5 Z M 9 52.5 "/>
    <path style=" stroke:none;fill-rule:nonzero;fill:rgb(100%,100%,100%);fill-opacity:1;" d="M 25.554688 24 C 24.707031 24.082031 23.984375 24.972656 24 25.921875 L 24 46.125 C 24.007812 47.121094 24.804688 48.015625 25.695312 48 L 46.351562 48 C 47.226562 47.984375 47.992188 47.105469 48 46.125 L 48 25.921875 C 48.011719 24.925781 47.242188 24.011719 46.351562 24 Z M 27.011719 27 L 44.988281 27 L 44.988281 39.890625 C 44.859375 39.734375 44.792969 39.679688 44.660156 39.515625 C 43.320312 37.914062 41.792969 36.007812 39.953125 33.703125 C 39.585938 34.066406 39.140625 34.507812 38.542969 35.0625 C 37.933594 35.617188 37.214844 36.285156 36.375 37.03125 C 36.269531 37.148438 35.84375 36.703125 35.058594 35.71875 C 34.253906 34.730469 33.152344 33.21875 31.671875 31.125 C 29.683594 33.183594 28.253906 34.65625 27.011719 35.90625 Z M 27.011719 27 "/>
    <path style=" stroke:none;fill-rule:nonzero;fill:rgb(100%,100%,100%);fill-opacity:1;" d="M 29.78125 63.808594 C 29.78125 64.515625 29.644531 65.109375 29.378906 65.589844 C 29.109375 66.054688 28.742188 66.433594 28.277344 66.722656 C 27.828125 67 27.285156 67.203125 26.648438 67.328125 C 26.027344 67.441406 25.359375 67.5 24.640625 67.5 C 24.0625 67.5 23.460938 67.46875 22.839844 67.40625 C 22.21875 67.355469 21.605469 67.273438 21 67.160156 L 21 55.785156 C 21.492188 55.707031 22.035156 55.644531 22.628906 55.59375 C 23.222656 55.53125 23.808594 55.5 24.386719 55.5 C 25.371094 55.5 26.175781 55.59375 26.796875 55.785156 C 27.417969 55.960938 27.902344 56.199219 28.257812 56.503906 C 28.609375 56.792969 28.847656 57.121094 28.976562 57.488281 C 29.101562 57.851562 29.167969 58.21875 29.167969 58.585938 C 29.167969 59.140625 29.011719 59.632812 28.699219 60.0625 C 28.40625 60.492188 28.003906 60.832031 27.496094 61.082031 C 28.382812 61.375 28.984375 61.765625 29.292969 62.257812 C 29.617188 62.75 29.78125 63.265625 29.78125 63.808594 M 23.601562 62.21875 L 23.601562 65.398438 C 23.785156 65.425781 23.984375 65.441406 24.195312 65.457031 C 24.421875 65.46875 24.640625 65.472656 24.851562 65.472656 C 25.148438 65.472656 25.4375 65.457031 25.71875 65.417969 C 26 65.367188 26.246094 65.285156 26.457031 65.171875 C 26.683594 65.046875 26.867188 64.875 27.007812 64.660156 C 27.148438 64.433594 27.21875 64.148438 27.21875 63.808594 C 27.21875 63.242188 27.015625 62.835938 26.605469 62.597656 C 26.210938 62.34375 25.675781 62.21875 25 62.21875 L 23.601562 62.21875 M 24.617188 60.289062 C 25.28125 60.289062 25.78125 60.164062 26.121094 59.910156 C 26.457031 59.644531 26.628906 59.285156 26.628906 58.832031 C 26.628906 58.554688 26.578125 58.332031 26.480469 58.167969 C 26.382812 57.992188 26.246094 57.859375 26.078125 57.769531 C 25.910156 57.671875 25.710938 57.605469 25.484375 57.582031 C 25.257812 57.542969 25.027344 57.523438 24.785156 57.523438 C 24.589844 57.523438 24.386719 57.53125 24.171875 57.542969 C 23.960938 57.554688 23.773438 57.574219 23.601562 57.601562 L 23.601562 60.289062 L 24.617188 60.289062 "/>
    <path style=" stroke:none;fill-rule:nonzero;fill:rgb(100%,100%,100%);fill-opacity:1;" d="M 33.84375 55.632812 C 33.941406 55.898438 34.0625 56.238281 34.203125 56.65625 C 34.355469 57.070312 34.519531 57.519531 34.6875 58 C 34.859375 58.476562 35.027344 58.964844 35.195312 59.457031 C 35.367188 59.949219 35.527344 60.402344 35.683594 60.820312 C 35.851562 60.351562 36.027344 59.871094 36.210938 59.378906 C 36.394531 58.875 36.570312 58.394531 36.742188 57.941406 C 36.910156 57.476562 37.066406 57.039062 37.207031 56.636719 C 37.347656 56.230469 37.472656 55.898438 37.585938 55.632812 L 39.746094 55.632812 C 39.84375 56.65625 39.933594 57.652344 40.019531 58.621094 C 40.117188 59.59375 40.195312 60.558594 40.253906 61.519531 C 40.324219 62.464844 40.378906 63.425781 40.421875 64.394531 C 40.464844 65.355469 40.5 66.339844 40.527344 67.347656 L 38.136719 67.347656 L 38.265625 58.246094 L 36.65625 63.203125 L 34.75 63.203125 L 33.207031 58.246094 L 33.3125 67.347656 L 30.921875 67.347656 C 30.964844 66.390625 31.007812 65.390625 31.050781 64.359375 C 31.105469 63.324219 31.164062 62.292969 31.21875 61.273438 C 31.273438 60.25 31.339844 59.261719 31.410156 58.300781 C 31.492188 57.34375 31.585938 56.453125 31.683594 55.632812 L 33.84375 55.632812 "/>
    <path style=" stroke:none;fill-rule:nonzero;fill:rgb(100%,100%,100%);fill-opacity:1;" d="M 45.753906 55.5 C 47.417969 55.5 48.707031 55.808594 49.625 56.425781 C 50.542969 57.03125 51 58.03125 51 59.417969 C 51 60.820312 50.535156 61.835938 49.605469 62.464844 C 48.6875 63.082031 47.382812 63.390625 45.691406 63.390625 L 44.757812 63.390625 L 44.757812 67.347656 L 42.15625 67.347656 L 42.15625 55.785156 C 42.410156 55.734375 42.691406 55.6875 43.003906 55.652344 C 43.328125 55.613281 43.652344 55.589844 43.976562 55.574219 C 44.300781 55.550781 44.617188 55.53125 44.929688 55.519531 C 45.238281 55.507812 45.511719 55.5 45.753906 55.5 M 46.050781 57.523438 C 45.894531 57.523438 45.675781 57.53125 45.394531 57.542969 C 45.125 57.542969 44.914062 57.558594 44.757812 57.582031 L 44.757812 61.367188 L 45.816406 61.367188 C 46.648438 61.367188 47.277344 61.222656 47.699219 60.933594 C 48.121094 60.628906 48.335938 60.117188 48.335938 59.398438 C 48.335938 58.71875 48.121094 58.238281 47.699219 57.960938 C 47.289062 57.671875 46.742188 57.523438 46.050781 57.523438 "/>
  </g>
</svg>