<?xml version="1.0" encoding="UTF-8" standalone="yes"?>
<svg xmlns="http://www.w3.org/2000/svg" xmlns:xlink="http://www.w3.org/1999/xlink" width="96px" height="96px" viewBox="0 0 72 72" version="1.1">
  <g id="surface1">
    <path style=" stroke:none;fill-rule:nonzero;fill:rgb(21.960784%,40%,62.745098%);fill-opacity:1;" d="M 12 1.5 C 10.457031 1.5 9 2.957031 9 4.5 L 9 67.5 C 9 68.957031 10.542969 70.5 12 70.5 L 60 70.5 C 61.457031 70.5 63 68.957031 63 67.5 L 63 21 L 43.5 1.5 Z M 12 1.5 "/>
    <path style=" stroke:none;fill-rule:nonzero;fill:rgb(0%,0%,0%);fill-opacity:0.196078;" d="M 43.5 18 L 43.59375 18.09375 L 43.828125 18 Z M 46.5 21 L 63 37.5 L 63 21 Z M 46.5 21 "/>
    <path style=" stroke:none;fill-rule:nonzero;fill:rgb(100%,100%,100%);fill-opacity:0.392157;" d="M 43.5 1.5 L 63 21 L 46.5 21 C 45.042969 21 43.5 19.457031 43.5 18 Z M 43.5 1.5 "/>
    <path style=" stroke:none;fill-rule:nonzero;fill:rgb(100%,100%,100%);fill-opacity:1;" d="M 24 31.539062 C 24 34.242188 24 36.296875 24 39 C 24 40.5 24 42 25.5 42 C 27 42 27 40.5 27 39 L 27 34.5 L 31.5 34.5 C 33 34.5 34.5 34.5 34.5 33 C 34.5 31.5 33 31.5 31.5 31.5 C 28.5 31.519531 27 31.539062 24 31.539062 Z M 24 31.539062 "/>
    <path style=" stroke:none;fill-rule:nonzero;fill:rgb(100%,100%,100%);fill-opacity:1;" d="M 48 31.539062 C 48 34.242188 48 36.296875 48 39 C 48 40.5 48 42 46.5 42 C 45 42 45 40.5 45 39 L 45 34.5 L 40.5 34.5 C 39 34.5 37.5 34.5 37.5 33 C 37.5 31.5 39 31.5 40.5 31.5 C 43.5 31.519531 45 31.539062 48 31.539062 Z M 48 31.539062 "/>
    <path style=" stroke:none;fill-rule:nonzero;fill:rgb(100%,100%,100%);fill-opacity:1;" d="M 47.960938 55.5 C 45.257812 55.5 43.203125 55.5 40.5 55.5 C 39 55.5 37.5 55.5 37.5 54 C 37.5 52.5 39 52.5 40.5 52.5 L 45 52.5 L 45 48 C 45 46.5 45 45 46.5 45 C 48 45 48 46.5 48 48 C 47.980469 51 47.960938 52.5 47.960938 55.5 Z M 47.960938 55.5 "/>
    <path style=" stroke:none;fill-rule:nonzero;fill:rgb(100%,100%,100%);fill-opacity:1;" d="M 24.039062 55.5 C 26.742188 55.5 28.796875 55.5 31.5 55.5 C 33 55.5 34.5 55.5 34.5 54 C 34.5 52.5 33 52.5 31.5 52.5 L 27 52.5 L 27 48 C 27 46.5 27 45 25.5 45 C 24 45 24 46.5 24 48 C 24.019531 51 24.039062 52.5 24.039062 55.5 Z M 24.039062 55.5 "/>
  </g>
</svg>