<?xml version="1.0" encoding="UTF-8" standalone="yes"?>
<svg xmlns="http://www.w3.org/2000/svg" xmlns:xlink="http://www.w3.org/1999/xlink" width="96px" height="96px" viewBox="0 0 72 72" version="1.1">
  <g id="surface1">
    <path style=" stroke:none;fill-rule:nonzero;fill:rgb(75.686275%,58.431373%,32.54902%);fill-opacity:1;" d="M 12 1.5 C 10.457031 1.5 9 2.957031 9 4.5 L 9 67.5 C 9 68.957031 10.542969 70.5 12 70.5 L 60 70.5 C 61.457031 70.5 63 68.957031 63 67.5 L 63 21 L 43.5 1.5 Z M 12 1.5 "/>
    <path style=" stroke:none;fill-rule:nonzero;fill:rgb(0%,0%,0%);fill-opacity:0.196078;" d="M 43.5 18 L 43.59375 18.09375 L 43.828125 18 Z M 46.5 21 L 63 37.5 L 63 21 Z M 46.5 21 "/>
    <path style=" stroke:none;fill-rule:nonzero;fill:rgb(100%,100%,100%);fill-opacity:0.392157;" d="M 43.5 1.5 L 63 21 L 46.5 21 C 45.042969 21 43.5 19.457031 43.5 18 Z M 43.5 1.5 "/>
    <path style=" stroke:none;fill-rule:nonzero;fill:rgb(0%,0%,0%);fill-opacity:0.196078;" d="M 9 52.5 L 9 67.5 C 9 68.957031 10.542969 70.5 12 70.5 L 60 70.5 C 61.457031 70.5 63 68.957031 63 67.5 L 63 52.5 Z M 9 52.5 "/>
    <path style=" stroke:none;fill-rule:nonzero;fill:rgb(100%,100%,100%);fill-opacity:1;" d="M 27 1.5 L 27 7.5 L 33 7.5 L 33 1.5 Z M 27 7.5 L 21 7.5 L 21 13.5 L 27 13.5 Z M 27 13.5 L 27 19.5 L 33 19.5 L 33 13.5 Z M 27 19.5 L 21 19.5 L 21 25.5 L 27 25.5 Z M 27 25.5 L 27 31.5 L 33 31.5 L 33 25.5 Z M 21 34.5 L 21 46.5 L 33 46.5 L 33 34.5 Z M 21 34.5 "/>
    <path style=" stroke:none;fill-rule:nonzero;fill:rgb(100%,100%,100%);fill-opacity:1;" d="M 29.4375 67.5 L 21 67.5 L 21 55.5 L 23.691406 55.5 L 23.691406 65.523438 L 29.4375 65.523438 L 29.4375 67.5 "/>
    <path style=" stroke:none;fill-rule:nonzero;fill:rgb(100%,100%,100%);fill-opacity:1;" d="M 40.175781 55.5 L 40.175781 67.5 L 37.507812 67.5 L 37.507812 62.207031 L 33.949219 62.207031 L 33.949219 67.5 L 31.28125 67.5 L 31.28125 55.5 L 33.949219 55.5 L 33.949219 60.230469 L 37.507812 60.230469 L 37.507812 55.5 L 40.175781 55.5 "/>
    <path style=" stroke:none;fill-rule:nonzero;fill:rgb(100%,100%,100%);fill-opacity:1;" d="M 50.804688 57.167969 C 50.183594 58.019531 49.613281 58.820312 49.089844 59.570312 C 48.570312 60.320312 48.085938 61.039062 47.636719 61.722656 C 47.191406 62.394531 46.761719 63.046875 46.359375 63.679688 C 45.96875 64.300781 45.589844 64.914062 45.230469 65.523438 L 51 65.523438 L 51 67.5 L 42.148438 67.5 L 42.148438 66.125 C 42.46875 65.566406 42.808594 64.984375 43.167969 64.378906 C 43.53125 63.757812 43.9375 63.097656 44.382812 62.402344 C 44.832031 61.703125 45.316406 60.949219 45.835938 60.132812 C 46.371094 59.320312 46.957031 58.433594 47.59375 57.476562 L 42.433594 57.476562 L 42.433594 55.5 L 50.804688 55.5 L 50.804688 57.167969 "/>
  </g>
</svg>