<?xml version="1.0" encoding="UTF-8" standalone="yes"?>
<svg xmlns="http://www.w3.org/2000/svg" xmlns:xlink="http://www.w3.org/1999/xlink" width="96px" height="96px" viewBox="0 0 72 72" version="1.1">
  <g id="surface1">
    <path style=" stroke:none;fill-rule:nonzero;fill:rgb(20.392157%,40.784314%,80.784314%);fill-opacity:1;" d="M 12 1.5 C 10.457031 1.5 9 2.957031 9 4.5 L 9 67.5 C 9 68.957031 10.542969 70.5 12 70.5 L 60 70.5 C 61.457031 70.5 63 68.957031 63 67.5 L 63 21 L 43.5 1.5 Z M 12 1.5 "/>
    <path style=" stroke:none;fill-rule:nonzero;fill:rgb(0%,0%,0%);fill-opacity:0.196078;" d="M 43.5 18 L 43.59375 18.09375 L 43.828125 18 Z M 46.5 21 L 63 37.5 L 63 21 Z M 46.5 21 "/>
    <path style=" stroke:none;fill-rule:nonzero;fill:rgb(100%,100%,100%);fill-opacity:0.392157;" d="M 43.5 1.5 L 63 21 L 46.5 21 C 45.042969 21 43.5 19.457031 43.5 18 Z M 43.5 1.5 "/>
    <path style=" stroke:none;fill-rule:nonzero;fill:rgb(97.647059%,97.647059%,97.647059%);fill-opacity:1;" d="M 23.367188 27 L 33.632812 27 C 34.109375 27 34.5 27.402344 34.5 27.902344 L 34.5 36.597656 C 34.5 37.097656 34.109375 37.5 33.632812 37.5 L 23.367188 37.5 C 22.890625 37.5 22.5 37.097656 22.5 36.597656 L 22.5 27.902344 C 22.5 27.402344 22.890625 27 23.367188 27 Z M 23.367188 27 "/>
    <path style="fill:none;stroke-width:1;stroke-linecap:round;stroke-linejoin:round;stroke:rgb(97.647059%,97.647059%,97.647059%);stroke-opacity:1;stroke-miterlimit:4;" d="M 25.5 18.5 L 32.5 18.5 " transform="matrix(1.5,0,0,1.5,0,0)"/>
    <path style="fill:none;stroke-width:1;stroke-linecap:round;stroke-linejoin:round;stroke:rgb(97.647059%,97.647059%,97.647059%);stroke-opacity:1;stroke-miterlimit:4;" d="M 15.5 27.5 L 32.5 27.5 " transform="matrix(1.5,0,0,1.5,0,0)"/>
    <path style="fill:none;stroke-width:1;stroke-linecap:round;stroke-linejoin:round;stroke:rgb(97.647059%,97.647059%,97.647059%);stroke-opacity:1;stroke-miterlimit:4;" d="M 15.5 30.5 L 32.5 30.5 " transform="matrix(1.5,0,0,1.5,0,0)"/>
    <path style="fill:none;stroke-width:1;stroke-linecap:round;stroke-linejoin:round;stroke:rgb(97.647059%,97.647059%,97.647059%);stroke-opacity:1;stroke-miterlimit:4;" d="M 15.5 33.5 L 32.5 33.5 " transform="matrix(1.5,0,0,1.5,0,0)"/>
    <path style="fill:none;stroke-width:1;stroke-linecap:round;stroke-linejoin:round;stroke:rgb(97.647059%,97.647059%,97.647059%);stroke-opacity:1;stroke-miterlimit:4;" d="M 25.5 21.5 L 32.5 21.5 " transform="matrix(1.5,0,0,1.5,0,0)"/>
    <path style="fill:none;stroke-width:1;stroke-linecap:round;stroke-linejoin:round;stroke:rgb(97.647059%,97.647059%,97.647059%);stroke-opacity:1;stroke-miterlimit:4;" d="M 25.5 24.5 L 32.5 24.5 " transform="matrix(1.5,0,0,1.5,0,0)"/>
    <path style="fill:none;stroke-width:1;stroke-linecap:round;stroke-linejoin:round;stroke:rgb(97.647059%,97.647059%,97.647059%);stroke-opacity:1;stroke-miterlimit:4;" d="M 15.5 36.5 L 32.5 36.5 " transform="matrix(1.5,0,0,1.5,0,0)"/>
  </g>
</svg>