<?xml version="1.0" encoding="UTF-8" standalone="yes"?>
<svg xmlns="http://www.w3.org/2000/svg" xmlns:xlink="http://www.w3.org/1999/xlink" width="96px" height="96px" viewBox="0 0 72 72" version="1.1">
  <g id="surface1">
    <path style=" stroke:none;fill-rule:nonzero;fill:rgb(21.960784%,40%,62.745098%);fill-opacity:1;" d="M 12 1.5 C 10.457031 1.5 9 2.957031 9 4.5 L 9 67.5 C 9 68.957031 10.542969 70.5 12 70.5 L 60 70.5 C 61.457031 70.5 63 68.957031 63 67.5 L 63 21 L 43.5 1.5 Z M 12 1.5 "/>
    <path style=" stroke:none;fill-rule:nonzero;fill:rgb(0%,0%,0%);fill-opacity:0.196078;" d="M 43.5 18 L 43.59375 18.09375 L 43.828125 18 Z M 46.5 21 L 63 37.5 L 63 21 Z M 46.5 21 "/>
    <path style=" stroke:none;fill-rule:nonzero;fill:rgb(100%,100%,100%);fill-opacity:0.392157;" d="M 43.5 1.5 L 63 21 L 46.5 21 C 45.042969 21 43.5 19.457031 43.5 18 Z M 43.5 1.5 "/>
    <path style=" stroke:none;fill-rule:nonzero;fill:rgb(100%,100%,100%);fill-opacity:1;" d="M 24 25.539062 C 24 28.242188 24 30.296875 24 33 C 24 34.5 24 36 25.5 36 C 27 36 27 34.5 27 33 L 27 28.5 L 31.5 28.5 C 33 28.5 34.5 28.5 34.5 27 C 34.5 25.5 33 25.5 31.5 25.5 C 28.5 25.519531 27 25.539062 24 25.539062 Z M 24 25.539062 "/>
    <path style=" stroke:none;fill-rule:nonzero;fill:rgb(100%,100%,100%);fill-opacity:1;" d="M 48 25.539062 C 48 28.242188 48 30.296875 48 33 C 48 34.5 48 36 46.5 36 C 45 36 45 34.5 45 33 L 45 28.5 L 40.5 28.5 C 39 28.5 37.5 28.5 37.5 27 C 37.5 25.5 39 25.5 40.5 25.5 C 43.5 25.519531 45 25.539062 48 25.539062 Z M 48 25.539062 "/>
    <path style=" stroke:none;fill-rule:nonzero;fill:rgb(100%,100%,100%);fill-opacity:1;" d="M 47.960938 49.5 C 45.257812 49.5 43.203125 49.5 40.5 49.5 C 39 49.5 37.5 49.5 37.5 48 C 37.5 46.5 39 46.5 40.5 46.5 L 45 46.5 L 45 42 C 45 40.5 45 39 46.5 39 C 48 39 48 40.5 48 42 C 47.980469 45 47.960938 46.5 47.960938 49.5 Z M 47.960938 49.5 "/>
    <path style=" stroke:none;fill-rule:nonzero;fill:rgb(100%,100%,100%);fill-opacity:1;" d="M 24.039062 49.5 C 26.742188 49.5 28.796875 49.5 31.5 49.5 C 33 49.5 34.5 49.5 34.5 48 C 34.5 46.5 33 46.5 31.5 46.5 L 27 46.5 L 27 42 C 27 40.5 27 39 25.5 39 C 24 39 24 40.5 24 42 C 24.019531 45 24.039062 46.5 24.039062 49.5 Z M 24.039062 49.5 "/>
    <path style=" stroke:none;fill-rule:nonzero;fill:rgb(0%,0%,0%);fill-opacity:0.196078;" d="M 9 52.5 L 9 67.5 C 9 68.957031 10.542969 70.5 12 70.5 L 60 70.5 C 61.457031 70.5 63 68.957031 63 67.5 L 63 52.5 Z M 9 52.5 "/>
    <path style=" stroke:none;fill-rule:nonzero;fill:rgb(100%,100%,100%);fill-opacity:1;" d="M 23.585938 61.5 C 23.585938 62.058594 23.605469 62.582031 23.648438 63.078125 C 23.703125 63.5625 23.800781 63.984375 23.9375 64.34375 C 24.089844 64.703125 24.296875 64.984375 24.558594 65.195312 C 24.820312 65.40625 25.171875 65.511719 25.613281 65.511719 C 26.042969 65.511719 26.386719 65.40625 26.648438 65.195312 C 26.925781 64.984375 27.132812 64.703125 27.269531 64.34375 C 27.421875 63.96875 27.515625 63.542969 27.558594 63.058594 C 27.613281 62.578125 27.640625 62.058594 27.640625 61.5 C 27.640625 60.941406 27.613281 60.421875 27.558594 59.941406 C 27.515625 59.445312 27.421875 59.015625 27.269531 58.65625 C 27.132812 58.296875 26.929688 58.015625 26.667969 57.804688 C 26.40625 57.59375 26.054688 57.488281 25.613281 57.488281 C 25.171875 57.488281 24.820312 57.59375 24.558594 57.804688 C 24.296875 58.015625 24.089844 58.304688 23.9375 58.675781 C 23.800781 59.035156 23.703125 59.457031 23.648438 59.941406 C 23.605469 60.421875 23.585938 60.941406 23.585938 61.5 M 21 61.5 C 21 59.519531 21.40625 58.027344 22.21875 57.023438 C 23.035156 56.007812 24.164062 55.5 25.613281 55.5 C 27.117188 55.5 28.261719 56.007812 29.046875 57.023438 C 29.835938 58.027344 30.226562 59.519531 30.226562 61.5 C 30.226562 63.480469 29.828125 64.980469 29.027344 65.996094 C 28.226562 67 27.097656 67.5 25.632812 67.5 C 24.132812 67.5 22.980469 67 22.179688 65.996094 C 21.394531 64.980469 21 63.480469 21 61.5 "/>
    <path style=" stroke:none;fill-rule:nonzero;fill:rgb(100%,100%,100%);fill-opacity:1;" d="M 34.449219 65.402344 C 34.515625 65.414062 34.59375 65.417969 34.675781 65.417969 C 34.757812 65.417969 34.835938 65.417969 34.902344 65.417969 C 35.484375 65.417969 35.964844 65.320312 36.351562 65.121094 C 36.75 64.925781 37.070312 64.652344 37.304688 64.304688 C 37.550781 63.957031 37.722656 63.550781 37.820312 63.078125 C 37.929688 62.597656 37.984375 62.070312 37.984375 61.5 C 37.984375 61.003906 37.945312 60.523438 37.863281 60.050781 C 37.777344 59.582031 37.632812 59.164062 37.425781 58.804688 C 37.21875 58.449219 36.9375 58.164062 36.578125 57.953125 C 36.21875 57.730469 35.757812 57.617188 35.191406 57.617188 C 35.082031 57.617188 34.957031 57.625 34.820312 57.636719 C 34.683594 57.636719 34.558594 57.648438 34.449219 57.671875 L 34.449219 65.402344 M 40.570312 61.5 C 40.570312 62.566406 40.421875 63.476562 40.117188 64.230469 C 39.828125 64.972656 39.421875 65.582031 38.894531 66.050781 C 38.371094 66.523438 37.746094 66.867188 37.011719 67.089844 C 36.296875 67.300781 35.503906 67.40625 34.632812 67.40625 C 34.179688 67.40625 33.730469 67.382812 33.289062 67.332031 C 32.863281 67.296875 32.398438 67.226562 31.902344 67.128906 L 31.902344 55.910156 C 32.484375 55.796875 33.027344 55.722656 33.539062 55.6875 C 34.046875 55.648438 34.523438 55.628906 34.964844 55.628906 C 35.808594 55.628906 36.570312 55.742188 37.261719 55.964844 C 37.964844 56.1875 38.558594 56.539062 39.042969 57.023438 C 39.523438 57.492188 39.894531 58.101562 40.160156 58.84375 C 40.433594 59.574219 40.570312 60.460938 40.570312 61.5 "/>
    <path style=" stroke:none;fill-rule:nonzero;fill:rgb(100%,100%,100%);fill-opacity:1;" d="M 44.460938 55.761719 C 44.558594 56.019531 44.675781 56.355469 44.8125 56.761719 C 44.964844 57.171875 45.125 57.613281 45.289062 58.082031 C 45.453125 58.550781 45.621094 59.03125 45.785156 59.511719 C 45.953125 59.996094 46.109375 60.441406 46.261719 60.851562 C 46.425781 60.390625 46.601562 59.921875 46.777344 59.4375 C 46.957031 58.941406 47.128906 58.472656 47.296875 58.027344 C 47.460938 57.566406 47.613281 57.140625 47.75 56.746094 C 47.890625 56.347656 48.011719 56.019531 48.125 55.761719 L 50.234375 55.761719 C 50.332031 56.761719 50.421875 57.742188 50.503906 58.695312 C 50.601562 59.648438 50.675781 60.597656 50.730469 61.539062 C 50.800781 62.464844 50.855469 63.40625 50.894531 64.359375 C 50.9375 65.300781 50.972656 66.269531 51 67.257812 L 48.660156 67.257812 L 48.785156 58.324219 L 47.214844 63.191406 L 45.351562 63.191406 L 43.839844 58.324219 L 43.945312 67.257812 L 41.605469 67.257812 C 41.648438 66.316406 41.691406 65.339844 41.730469 64.324219 C 41.785156 63.308594 41.839844 62.296875 41.894531 61.296875 C 41.953125 60.292969 42.011719 59.320312 42.082031 58.378906 C 42.164062 57.4375 42.253906 56.566406 42.351562 55.761719 L 44.460938 55.761719 "/>
  </g>
</svg>