<?xml version="1.0" encoding="UTF-8" standalone="yes"?>
<svg xmlns="http://www.w3.org/2000/svg" xmlns:xlink="http://www.w3.org/1999/xlink" width="96px" height="96px" viewBox="0 0 72 72" version="1.1">
  <g id="surface1">
    <path style=" stroke:none;fill-rule:nonzero;fill:rgb(0%,52.156863%,24.313725%);fill-opacity:1;" d="M 12 1.5 C 10.457031 1.5 9 2.957031 9 4.5 L 9 67.5 C 9 68.957031 10.542969 70.5 12 70.5 L 60 70.5 C 61.457031 70.5 63 68.957031 63 67.5 L 63 21 L 43.5 1.5 Z M 12 1.5 "/>
    <path style=" stroke:none;fill-rule:nonzero;fill:rgb(0%,0%,0%);fill-opacity:0.196078;" d="M 43.5 18 L 43.59375 18.09375 L 43.828125 18 Z M 46.5 21 L 63 37.5 L 63 21 Z M 46.5 21 "/>
    <path style=" stroke:none;fill-rule:nonzero;fill:rgb(100%,100%,100%);fill-opacity:0.392157;" d="M 43.5 1.5 L 63 21 L 46.5 21 C 45.042969 21 43.5 19.457031 43.5 18 Z M 43.5 1.5 "/>
    <path style=" stroke:none;fill-rule:nonzero;fill:rgb(100%,100%,100%);fill-opacity:1;" d="M 42.445312 49.34375 L 37.46875 49.34375 C 35.953125 49.34375 34.472656 49.371094 33.03125 48.8125 C 31.851562 48.355469 30.742188 47.660156 29.863281 46.742188 C 26.957031 43.699219 26.574219 38.863281 29.203125 35.511719 C 30.816406 33.457031 33.292969 32.144531 35.917969 32.144531 C 36.632812 32.144531 38.132812 32.035156 38.433594 32.875 C 38.589844 33.308594 38.261719 33.804688 37.820312 33.882812 C 37.398438 33.957031 36.917969 33.738281 36.488281 33.734375 C 35.226562 33.71875 34.097656 33.890625 32.9375 34.414062 C 28.671875 36.34375 27.605469 42.605469 31.097656 45.785156 C 32 46.605469 33.023438 47.226562 34.207031 47.539062 C 35.253906 47.816406 36.332031 47.757812 37.40625 47.757812 L 43.871094 47.757812 C 44.144531 47.757812 44.535156 47.832031 44.792969 47.738281 C 44.988281 47.667969 45.15625 47.457031 45.300781 47.316406 C 45.652344 46.960938 46.179688 46.574219 46.375 46.109375 L 38.261719 46.109375 C 37.285156 46.109375 36.25 46.203125 35.285156 46.0625 C 34.140625 45.898438 33.117188 45.363281 32.273438 44.582031 C 31.835938 44.171875 31.484375 43.65625 31.21875 43.125 C 29.609375 39.902344 31.679688 36.054688 35.1875 35.433594 C 35.792969 35.328125 36.457031 35.355469 37.058594 35.476562 C 37.652344 35.601562 38.394531 35.8125 38.863281 36.21875 C 39.195312 36.507812 39.238281 36.984375 38.945312 37.316406 C 38.519531 37.800781 38.09375 37.503906 37.628906 37.300781 C 37.265625 37.140625 36.882812 37.027344 36.488281 36.980469 C 34.800781 36.769531 33.164062 37.71875 32.507812 39.285156 C 31.683594 41.253906 32.726562 43.621094 34.746094 44.320312 C 35.71875 44.660156 36.832031 44.523438 37.851562 44.523438 L 46.3125 44.523438 C 46.644531 44.523438 47.207031 44.632812 47.511719 44.503906 C 47.632812 44.453125 47.695312 44.28125 47.757812 44.171875 L 48.265625 43.1875 C 48.859375 41.824219 49.265625 40.421875 49.425781 38.9375 C 50.089844 32.734375 46.304688 26.828125 40.449219 24.742188 C 35.867188 23.109375 30.539062 24.230469 26.949219 27.488281 C 25.273438 29.003906 24.070312 30.898438 23.285156 33.003906 C 22.238281 35.808594 22.234375 39.246094 23.296875 42.046875 C 23.539062 42.683594 23.789062 43.324219 24.125 43.917969 C 24.214844 44.078125 24.332031 44.433594 24.511719 44.503906 C 24.898438 44.648438 24.574219 43.796875 24.542969 43.664062 C 24.277344 42.605469 24.191406 41.550781 24.191406 40.460938 C 24.191406 35.8125 27.328125 31.550781 31.542969 29.78125 C 32.808594 29.25 34.257812 28.910156 35.632812 28.910156 C 35.828125 28.910156 36.046875 28.878906 36.234375 28.945312 C 36.671875 29.09375 36.933594 29.59375 36.714844 30.019531 C 36.421875 30.59375 35.835938 30.453125 35.316406 30.5 C 34.191406 30.609375 33.097656 30.832031 32.050781 31.269531 C 29.035156 32.539062 26.6875 35.273438 26.003906 38.492188 C 25.03125 43.054688 27.207031 47.832031 31.417969 49.941406 C 33.1875 50.824219 35.132812 51.105469 37.089844 50.964844 C 38.46875 50.871094 39.832031 50.542969 41.113281 50.023438 C 41.515625 49.863281 42.160156 49.675781 42.445312 49.34375 Z M 42.445312 49.34375 "/>
  </g>
</svg>