<?xml version="1.0" encoding="UTF-8" standalone="yes"?>
<svg xmlns="http://www.w3.org/2000/svg" xmlns:xlink="http://www.w3.org/1999/xlink" width="96px" height="96px" viewBox="0 0 72 72" version="1.1">
  <g id="surface1">
    <path style=" stroke:none;fill-rule:nonzero;fill:rgb(20.392157%,40.784314%,80.784314%);fill-opacity:1;" d="M 12 1.5 C 10.457031 1.5 9 2.957031 9 4.5 L 9 67.5 C 9 68.957031 10.542969 70.5 12 70.5 L 60 70.5 C 61.457031 70.5 63 68.957031 63 67.5 L 63 21 L 43.5 1.5 Z M 12 1.5 "/>
    <path style=" stroke:none;fill-rule:nonzero;fill:rgb(97.647059%,97.647059%,97.647059%);fill-opacity:1;" d="M 23.367188 24 L 33.632812 24 C 34.109375 24 34.5 24.402344 34.5 24.902344 L 34.5 33.597656 C 34.5 34.097656 34.109375 34.5 33.632812 34.5 L 23.367188 34.5 C 22.890625 34.5 22.5 34.097656 22.5 33.597656 L 22.5 24.902344 C 22.5 24.402344 22.890625 24 23.367188 24 Z M 23.367188 24 "/>
    <path style="fill:none;stroke-width:1;stroke-linecap:round;stroke-linejoin:round;stroke:rgb(97.647059%,97.647059%,97.647059%);stroke-opacity:1;stroke-miterlimit:4;" d="M 25.5 16.5 L 31.5 16.5 " transform="matrix(1.5,0,0,1.5,0,0)"/>
    <path style="fill:none;stroke-width:1;stroke-linecap:round;stroke-linejoin:round;stroke:rgb(97.647059%,97.647059%,97.647059%);stroke-opacity:1;stroke-miterlimit:4;" d="M 15.5 25.5 L 31.5 25.5 " transform="matrix(1.5,0,0,1.5,0,0)"/>
    <path style="fill:none;stroke-width:1;stroke-linecap:round;stroke-linejoin:round;stroke:rgb(97.647059%,97.647059%,97.647059%);stroke-opacity:1;stroke-miterlimit:4;" d="M 15.5 28.5 L 31.5 28.5 " transform="matrix(1.5,0,0,1.5,0,0)"/>
    <path style="fill:none;stroke-width:1;stroke-linecap:round;stroke-linejoin:round;stroke:rgb(97.647059%,97.647059%,97.647059%);stroke-opacity:1;stroke-miterlimit:4;" d="M 15.5 31.5 L 31.5 31.5 " transform="matrix(1.5,0,0,1.5,0,0)"/>
    <path style="fill:none;stroke-width:1;stroke-linecap:round;stroke-linejoin:round;stroke:rgb(97.647059%,97.647059%,97.647059%);stroke-opacity:1;stroke-miterlimit:4;" d="M 25.5 19.5 L 31.5 19.5 " transform="matrix(1.5,0,0,1.5,0,0)"/>
    <path style="fill:none;stroke-width:1;stroke-linecap:round;stroke-linejoin:round;stroke:rgb(97.647059%,97.647059%,97.647059%);stroke-opacity:1;stroke-miterlimit:4;" d="M 25.5 22.5 L 31.5 22.5 " transform="matrix(1.5,0,0,1.5,0,0)"/>
    <path style=" stroke:none;fill-rule:nonzero;fill:rgb(0%,0%,0%);fill-opacity:0.196078;" d="M 43.5 18 L 43.59375 18.09375 L 43.828125 18 Z M 46.5 21 L 63 37.5 L 63 21 Z M 46.5 21 "/>
    <path style=" stroke:none;fill-rule:nonzero;fill:rgb(100%,100%,100%);fill-opacity:0.392157;" d="M 43.5 1.5 L 63 21 L 46.5 21 C 45.042969 21 43.5 19.457031 43.5 18 Z M 43.5 1.5 "/>
    <path style=" stroke:none;fill-rule:nonzero;fill:rgb(0%,0%,0%);fill-opacity:0.196078;" d="M 9 52.5 L 9 67.5 C 9 68.957031 10.542969 70.5 12 70.5 L 60 70.5 C 61.457031 70.5 63 68.957031 63 67.5 L 63 52.5 Z M 9 52.5 "/>
    <path style=" stroke:none;fill-rule:nonzero;fill:rgb(100%,100%,100%);fill-opacity:1;" d="M 24.457031 55.5 C 25.222656 55.5 25.914062 55.578125 26.53125 55.730469 C 27.152344 55.882812 27.6875 56.121094 28.132812 56.4375 C 28.578125 56.757812 28.917969 57.167969 29.148438 57.664062 C 29.394531 58.152344 29.515625 58.726562 29.515625 59.390625 C 29.515625 60.082031 29.355469 60.707031 29.039062 61.269531 C 28.722656 61.832031 28.199219 62.261719 27.460938 62.554688 C 27.707031 62.886719 27.96875 63.257812 28.242188 63.664062 C 28.515625 64.0625 28.78125 64.484375 29.039062 64.929688 C 29.300781 65.367188 29.542969 65.804688 29.773438 66.253906 C 30.019531 66.6875 30.230469 67.105469 30.402344 67.5 L 27.613281 67.5 C 27.28125 66.734375 26.894531 66 26.445312 65.296875 C 26.015625 64.578125 25.546875 63.859375 25.042969 63.128906 L 23.660156 63.128906 L 23.660156 67.5 L 21 67.5 L 21 55.804688 C 21.257812 55.753906 21.539062 55.710938 21.84375 55.671875 C 22.160156 55.621094 22.476562 55.589844 22.792969 55.578125 C 23.109375 55.550781 23.414062 55.53125 23.703125 55.519531 C 23.988281 55.507812 24.242188 55.5 24.457031 55.5 M 26.8125 59.371094 C 26.8125 58.746094 26.597656 58.285156 26.164062 57.992188 C 25.734375 57.699219 25.164062 57.550781 24.457031 57.550781 C 24.355469 57.550781 24.234375 57.558594 24.089844 57.570312 C 23.945312 57.570312 23.800781 57.582031 23.660156 57.609375 L 23.660156 61.175781 L 24.242188 61.175781 C 25.148438 61.175781 25.804688 61.019531 26.207031 60.714844 C 26.613281 60.394531 26.8125 59.945312 26.8125 59.371094 "/>
    <path style=" stroke:none;fill-rule:nonzero;fill:rgb(100%,100%,100%);fill-opacity:1;" d="M 40.90625 55.632812 L 40.90625 57.589844 L 37.382812 57.589844 L 37.382812 67.5 L 34.703125 67.5 L 34.703125 57.589844 L 31.179688 57.589844 L 31.179688 55.632812 L 40.90625 55.632812 "/>
    <path style=" stroke:none;fill-rule:nonzero;fill:rgb(100%,100%,100%);fill-opacity:1;" d="M 42.808594 67.5 L 42.808594 55.632812 L 51 55.632812 L 51 57.589844 L 45.46875 57.589844 L 45.46875 60.464844 L 50.308594 60.464844 L 50.308594 62.417969 L 45.46875 62.417969 L 45.46875 67.5 L 42.808594 67.5 "/>
  </g>
</svg>