<?xml version="1.0" encoding="UTF-8" standalone="yes"?>
<svg xmlns="http://www.w3.org/2000/svg" xmlns:xlink="http://www.w3.org/1999/xlink" width="96px" height="96px" viewBox="0 0 72 72" version="1.1">
  <g id="surface1">
    <path style=" stroke:none;fill-rule:nonzero;fill:rgb(60.392157%,46.666667%,23.529412%);fill-opacity:1;" d="M 12 1.5 C 10.457031 1.5 9 2.957031 9 4.5 L 9 67.5 C 9 68.957031 10.542969 70.5 12 70.5 L 60 70.5 C 61.457031 70.5 63 68.957031 63 67.5 L 63 21 L 43.5 1.5 Z M 12 1.5 "/>
    <path style=" stroke:none;fill-rule:nonzero;fill:rgb(0%,0%,0%);fill-opacity:0.196078;" d="M 43.5 18 L 43.59375 18.09375 L 43.828125 18 Z M 46.5 21 L 63 37.5 L 63 21 Z M 46.5 21 "/>
    <path style=" stroke:none;fill-rule:nonzero;fill:rgb(100%,100%,100%);fill-opacity:0.392157;" d="M 43.5 1.5 L 63 21 L 46.5 21 C 45.042969 21 43.5 19.457031 43.5 18 Z M 43.5 1.5 "/>
    <path style=" stroke:none;fill-rule:nonzero;fill:rgb(100%,100%,100%);fill-opacity:1;" d="M 24.410156 24 C 22.65625 24 20 27.460938 21.386719 28.703125 L 28.632812 35.175781 C 28.90625 34.628906 29.257812 34.070312 29.746094 33.539062 C 30.28125 32.960938 30.792969 32.585938 31.265625 32.269531 L 25.808594 25.039062 C 25.234375 24.425781 25.132812 24 24.410156 24 Z M 37.75 32.234375 C 37.371094 32.234375 36.972656 32.246094 36.59375 32.257812 C 35.015625 32.265625 33.363281 32.539062 31.898438 33.078125 C 30.851562 33.925781 30.121094 34.863281 29.429688 35.984375 C 28.046875 39.8125 29.695312 46.261719 35.761719 47.757812 C 42.636719 49.449219 43.003906 47.621094 45.949219 49.640625 C 48.910156 51.652344 47.253906 54.703125 48.65625 53.855469 C 49.378906 53.425781 51.664062 50.21875 50.8125 44.984375 C 49.890625 39.382812 47.492188 36.394531 45.078125 34.355469 C 43.207031 32.773438 40.429688 32.234375 37.753906 32.234375 Z M 37.75 32.234375 "/>
  </g>
</svg>