<?xml version="1.0" encoding="UTF-8" standalone="yes"?>
<svg xmlns="http://www.w3.org/2000/svg" xmlns:xlink="http://www.w3.org/1999/xlink" width="96px" height="96px" viewBox="0 0 72 72" version="1.1">
  <g id="surface1">
    <path style=" stroke:none;fill-rule:nonzero;fill:rgb(82.352941%,27.843137%,14.901961%);fill-opacity:1;" d="M 12 1.5 C 10.457031 1.5 9 2.957031 9 4.5 L 9 67.5 C 9 68.957031 10.542969 70.5 12 70.5 L 60 70.5 C 61.457031 70.5 63 68.957031 63 67.5 L 63 21 L 43.5 1.5 Z M 12 1.5 "/>
    <path style=" stroke:none;fill-rule:nonzero;fill:rgb(0%,0%,0%);fill-opacity:0.196078;" d="M 43.5 18 L 43.59375 18.09375 L 43.828125 18 Z M 46.5 21 L 63 37.5 L 63 21 Z M 46.5 21 "/>
    <path style=" stroke:none;fill-rule:nonzero;fill:rgb(100%,100%,100%);fill-opacity:0.392157;" d="M 43.5 1.5 L 63 21 L 46.5 21 C 45.042969 21 43.5 19.457031 43.5 18 Z M 43.5 1.5 "/>
    <path style=" stroke:none;fill-rule:nonzero;fill:rgb(0%,0%,0%);fill-opacity:0.196078;" d="M 9 52.5 L 9 67.5 C 9 68.957031 10.542969 70.5 12 70.5 L 60 70.5 C 61.457031 70.5 63 68.957031 63 67.5 L 63 52.5 Z M 9 52.5 "/>
    <path style=" stroke:none;fill-rule:nonzero;fill:rgb(100%,100%,100%);fill-opacity:1;" d="M 21.140625 57.003906 C 22.59375 57.003906 23.71875 57.277344 24.519531 57.824219 C 25.320312 58.363281 25.71875 59.246094 25.71875 60.472656 C 25.71875 61.714844 25.3125 62.613281 24.5 63.171875 C 23.699219 63.722656 22.5625 63.996094 21.082031 63.996094 L 20.269531 63.996094 L 20.269531 67.5 L 18 67.5 L 18 57.253906 C 18.222656 57.210938 18.46875 57.171875 18.738281 57.136719 C 19.023438 57.105469 19.304688 57.082031 19.589844 57.070312 C 19.871094 57.046875 20.148438 57.03125 20.417969 57.019531 C 20.691406 57.007812 20.929688 57.003906 21.140625 57.003906 M 21.398438 58.796875 C 21.261719 58.796875 21.070312 58.804688 20.824219 58.8125 C 20.589844 58.8125 20.40625 58.824219 20.269531 58.847656 L 20.269531 62.203125 L 21.195312 62.203125 C 21.921875 62.203125 22.46875 62.074219 22.839844 61.816406 C 23.207031 61.546875 23.390625 61.09375 23.390625 60.457031 C 23.390625 59.855469 23.207031 59.429688 22.839844 59.183594 C 22.480469 58.925781 22 58.796875 21.398438 58.796875 "/>
    <path style=" stroke:none;fill-rule:nonzero;fill:rgb(100%,100%,100%);fill-opacity:1;" d="M 30.371094 57.003906 C 31.824219 57.003906 32.953125 57.277344 33.753906 57.824219 C 34.550781 58.363281 34.953125 59.246094 34.953125 60.472656 C 34.953125 61.714844 34.546875 62.613281 33.734375 63.171875 C 32.933594 63.722656 31.792969 63.996094 30.316406 63.996094 L 29.503906 63.996094 L 29.503906 67.5 L 27.234375 67.5 L 27.234375 57.253906 C 27.453125 57.210938 27.703125 57.171875 27.972656 57.136719 C 28.253906 57.105469 28.539062 57.082031 28.820312 57.070312 C 29.105469 57.046875 29.382812 57.03125 29.652344 57.019531 C 29.921875 57.007812 30.164062 57.003906 30.371094 57.003906 M 30.632812 58.796875 C 30.496094 58.796875 30.304688 58.804688 30.058594 58.8125 C 29.824219 58.8125 29.640625 58.824219 29.503906 58.847656 L 29.503906 62.203125 L 30.429688 62.203125 C 31.15625 62.203125 31.703125 62.074219 32.070312 61.816406 C 32.441406 61.546875 32.625 61.09375 32.625 60.457031 C 32.625 59.855469 32.441406 59.429688 32.070312 59.183594 C 31.714844 58.925781 31.234375 58.796875 30.632812 58.796875 "/>
    <path style=" stroke:none;fill-rule:nonzero;fill:rgb(100%,100%,100%);fill-opacity:1;" d="M 44.242188 57 L 44.242188 58.730469 L 41.230469 58.730469 L 41.230469 67.5 L 38.941406 67.5 L 38.941406 58.730469 L 35.929688 58.730469 L 35.929688 57 L 44.242188 57 "/>
    <path style=" stroke:none;fill-rule:nonzero;fill:rgb(100%,100%,100%);fill-opacity:1;" d="M 18 25.5 L 28.5 25.5 L 28.5 33 L 18 33 Z M 18 25.5 "/>
    <path style=" stroke:none;fill-rule:nonzero;fill:rgb(100%,100%,100%);fill-opacity:1;" d="M 18 37.5 L 28.5 37.5 L 28.5 45 L 18 45 Z M 18 37.5 "/>
    <path style=" stroke:none;fill-rule:nonzero;fill:rgb(100%,100%,100%);fill-opacity:1;" d="M 45 25.5 L 45 34.5 L 54 34.5 C 54 29.53125 49.96875 25.5 45 25.5 Z M 45 25.5 "/>
    <path style=" stroke:none;fill-rule:nonzero;fill:rgb(100%,100%,100%);fill-opacity:1;" d="M 43.5 27 C 37.5 27 33 31.363281 33 36.75 C 33 42.136719 37.363281 46.5 42.75 46.5 C 48.136719 46.5 52.5 42 52.5 36 L 43.5 36 Z M 43.5 27 "/>
    <path style=" stroke:none;fill-rule:nonzero;fill:rgb(100%,100%,100%);fill-opacity:1;" d="M 51.589844 67.5 C 51.363281 66.929688 51.078125 66.300781 50.738281 65.609375 C 50.414062 64.917969 50.070312 64.226562 49.707031 63.539062 C 49.359375 64.195312 49.007812 64.878906 48.65625 65.59375 C 48.308594 66.296875 48.003906 66.929688 47.753906 67.5 L 45.34375 67.5 C 45.464844 67.199219 45.640625 66.835938 45.867188 66.414062 C 46.109375 65.988281 46.371094 65.53125 46.648438 65.042969 C 46.9375 64.550781 47.238281 64.050781 47.554688 63.539062 C 47.867188 63.011719 48.167969 62.511719 48.457031 62.03125 L 45.523438 57.148438 L 47.933594 57.148438 L 49.707031 60.460938 L 51.574219 57.148438 L 53.820312 57.148438 L 50.957031 61.980469 C 51.285156 62.460938 51.601562 62.964844 51.917969 63.488281 C 52.230469 64.011719 52.519531 64.523438 52.785156 65.023438 C 53.0625 65.515625 53.304688 65.976562 53.511719 66.414062 C 53.714844 66.835938 53.878906 67.199219 54 67.5 L 51.589844 67.5 "/>
  </g>
</svg>