<?xml version="1.0" encoding="UTF-8" standalone="yes"?>
<svg xmlns="http://www.w3.org/2000/svg" xmlns:xlink="http://www.w3.org/1999/xlink" width="96px" height="96px" viewBox="0 0 72 72" version="1.1">
  <g id="surface1">
    <path style=" stroke:none;fill-rule:nonzero;fill:rgb(82.352941%,27.843137%,14.901961%);fill-opacity:1;" d="M 12 1.5 C 10.457031 1.5 9 2.957031 9 4.5 L 9 67.5 C 9 68.957031 10.542969 70.5 12 70.5 L 60 70.5 C 61.457031 70.5 63 68.957031 63 67.5 L 63 4.5 C 63 2.957031 61.542969 1.5 60 1.5 Z M 12 1.5 "/>
    <path style=" stroke:none;fill-rule:nonzero;fill:rgb(0%,0%,0%);fill-opacity:0.196078;" d="M 9 52.5 L 9 67.5 C 9 68.957031 10.542969 70.5 12 70.5 L 60 70.5 C 61.457031 70.5 63 68.957031 63 67.5 L 63 52.5 Z M 9 52.5 "/>
    <path style=" stroke:none;fill-rule:nonzero;fill:rgb(100%,100%,100%);fill-opacity:1;" d="M 23.59375 61.5 C 23.59375 62.058594 23.617188 62.582031 23.65625 63.078125 C 23.710938 63.5625 23.808594 63.984375 23.949219 64.34375 C 24.101562 64.703125 24.308594 64.988281 24.570312 65.195312 C 24.832031 65.40625 25.1875 65.511719 25.628906 65.511719 C 26.058594 65.511719 26.40625 65.40625 26.667969 65.195312 C 26.945312 64.988281 27.152344 64.703125 27.289062 64.34375 C 27.441406 63.972656 27.539062 63.542969 27.582031 63.0625 C 27.636719 62.578125 27.664062 62.058594 27.664062 61.5 C 27.664062 60.941406 27.636719 60.421875 27.582031 59.941406 C 27.539062 59.445312 27.441406 59.015625 27.289062 58.65625 C 27.152344 58.300781 26.953125 58.015625 26.6875 57.804688 C 26.425781 57.59375 26.074219 57.488281 25.628906 57.488281 C 25.1875 57.488281 24.832031 57.59375 24.570312 57.804688 C 24.308594 58.015625 24.101562 58.304688 23.949219 58.675781 C 23.808594 59.035156 23.710938 59.457031 23.65625 59.941406 C 23.617188 60.421875 23.59375 60.941406 23.59375 61.5 M 21 61.5 C 21 59.519531 21.410156 58.027344 22.226562 57.023438 C 23.042969 56.007812 24.175781 55.5 25.628906 55.5 C 27.136719 55.5 28.289062 56.007812 29.074219 57.023438 C 29.863281 58.027344 30.257812 59.519531 30.257812 61.5 C 30.257812 63.480469 29.859375 64.980469 29.054688 65.996094 C 28.253906 67 27.117188 67.5 25.652344 67.5 C 24.140625 67.5 22.984375 67 22.183594 65.996094 C 21.394531 64.980469 21 63.480469 21 61.5 "/>
    <path style=" stroke:none;fill-rule:nonzero;fill:rgb(100%,100%,100%);fill-opacity:1;" d="M 40.683594 55.761719 L 40.683594 57.65625 L 37.296875 57.65625 L 37.296875 67.257812 L 34.722656 67.257812 L 34.722656 57.65625 L 31.339844 57.65625 L 31.339844 55.761719 L 40.683594 55.761719 "/>
    <path style=" stroke:none;fill-rule:nonzero;fill:rgb(100%,100%,100%);fill-opacity:1;" d="M 45.851562 55.628906 C 47.484375 55.628906 48.75 55.933594 49.652344 56.539062 C 50.550781 57.136719 51 58.113281 51 59.476562 C 51 60.851562 50.542969 61.847656 49.628906 62.464844 C 48.730469 63.074219 47.449219 63.375 45.789062 63.375 L 44.875 63.375 L 44.875 67.257812 L 42.320312 67.257812 L 42.320312 55.910156 C 42.570312 55.859375 42.847656 55.816406 43.152344 55.777344 C 43.46875 55.742188 43.789062 55.71875 44.105469 55.703125 C 44.425781 55.679688 44.738281 55.660156 45.042969 55.648438 C 45.347656 55.636719 45.617188 55.628906 45.851562 55.628906 M 46.140625 57.617188 C 45.988281 57.617188 45.773438 57.625 45.5 57.636719 C 45.234375 57.636719 45.027344 57.648438 44.875 57.671875 L 44.875 61.390625 L 45.914062 61.390625 C 46.730469 61.390625 47.347656 61.246094 47.761719 60.960938 C 48.175781 60.664062 48.382812 60.164062 48.382812 59.457031 C 48.382812 58.789062 48.175781 58.316406 47.761719 58.046875 C 47.359375 57.761719 46.820312 57.617188 46.140625 57.617188 "/>
    <path style=" stroke:none;fill-rule:nonzero;fill:rgb(100%,100%,100%);fill-opacity:1;" d="M 18 24 L 28.5 24 L 28.5 31.5 L 18 31.5 Z M 18 24 "/>
    <path style=" stroke:none;fill-rule:nonzero;fill:rgb(100%,100%,100%);fill-opacity:1;" d="M 18 36 L 28.5 36 L 28.5 43.5 L 18 43.5 Z M 18 36 "/>
    <path style=" stroke:none;fill-rule:nonzero;fill:rgb(100%,100%,100%);fill-opacity:1;" d="M 45 24 L 45 33 L 54 33 C 54 28.03125 49.96875 24 45 24 Z M 45 24 "/>
    <path style=" stroke:none;fill-rule:nonzero;fill:rgb(100%,100%,100%);fill-opacity:1;" d="M 43.5 25.5 C 37.5 25.5 33 29.863281 33 35.25 C 33 40.636719 37.363281 45 42.75 45 C 48.136719 45 52.5 40.5 52.5 34.5 L 43.5 34.5 Z M 43.5 25.5 "/>
  </g>
</svg>