<?xml version="1.0" encoding="UTF-8" standalone="yes"?>
<svg xmlns="http://www.w3.org/2000/svg" xmlns:xlink="http://www.w3.org/1999/xlink" width="96px" height="96px" viewBox="0 0 72 72" version="1.1">
  <g id="surface1">
    <path style=" stroke:none;fill-rule:nonzero;fill:rgb(75.686275%,58.431373%,32.54902%);fill-opacity:1;" d="M 12 1.5 C 10.457031 1.5 9 2.957031 9 4.5 L 9 67.5 C 9 68.957031 10.542969 70.5 12 70.5 L 60 70.5 C 61.457031 70.5 63 68.957031 63 67.5 L 63 21 L 43.5 1.5 Z M 12 1.5 "/>
    <path style=" stroke:none;fill-rule:nonzero;fill:rgb(0%,0%,0%);fill-opacity:0.196078;" d="M 43.5 18 L 43.59375 18.09375 L 43.828125 18 Z M 46.5 21 L 63 37.5 L 63 21 Z M 46.5 21 "/>
    <path style=" stroke:none;fill-rule:nonzero;fill:rgb(100%,100%,100%);fill-opacity:0.392157;" d="M 43.5 1.5 L 63 21 L 46.5 21 C 45.042969 21 43.5 19.457031 43.5 18 Z M 43.5 1.5 "/>
    <path style=" stroke:none;fill-rule:nonzero;fill:rgb(0%,0%,0%);fill-opacity:0.196078;" d="M 9 52.5 L 9 67.5 C 9 68.957031 10.542969 70.5 12 70.5 L 60 70.5 C 61.457031 70.5 63 68.957031 63 67.5 L 63 52.5 Z M 9 52.5 "/>
    <path style=" stroke:none;fill-rule:nonzero;fill:rgb(100%,100%,100%);fill-opacity:1;" d="M 27 1.5 L 27 7.5 L 33 7.5 L 33 1.5 Z M 27 7.5 L 21 7.5 L 21 13.5 L 27 13.5 Z M 27 13.5 L 27 19.5 L 33 19.5 L 33 13.5 Z M 27 19.5 L 21 19.5 L 21 25.5 L 27 25.5 Z M 27 25.5 L 27 31.5 L 33 31.5 L 33 25.5 Z M 21 34.5 L 21 46.5 L 33 46.5 L 33 34.5 Z M 21 34.5 "/>
    <path style=" stroke:none;fill-rule:nonzero;fill:rgb(100%,100%,100%);fill-opacity:1;" d="M 25.367188 67.257812 L 18 67.257812 L 18 55.761719 L 20.347656 55.761719 L 20.347656 65.363281 L 25.367188 65.363281 L 25.367188 67.257812 "/>
    <path style=" stroke:none;fill-rule:nonzero;fill:rgb(100%,100%,100%);fill-opacity:1;" d="M 34.550781 57.359375 C 34.007812 58.175781 33.507812 58.941406 33.054688 59.660156 C 32.601562 60.378906 32.175781 61.066406 31.785156 61.722656 C 31.394531 62.367188 31.023438 62.992188 30.667969 63.597656 C 30.328125 64.195312 30 64.78125 29.683594 65.363281 L 34.722656 65.363281 L 34.722656 67.257812 L 26.996094 67.257812 L 26.996094 65.941406 C 27.273438 65.40625 27.570312 64.851562 27.886719 64.269531 C 28.199219 63.671875 28.554688 63.042969 28.945312 62.375 C 29.335938 61.703125 29.761719 60.980469 30.214844 60.199219 C 30.679688 59.417969 31.191406 58.570312 31.75 57.65625 L 27.242188 57.65625 L 27.242188 55.761719 L 34.550781 55.761719 L 34.550781 57.359375 "/>
    <path style=" stroke:none;fill-rule:nonzero;fill:rgb(100%,100%,100%);fill-opacity:1;" d="M 38.472656 61.5 C 38.472656 62.058594 38.488281 62.582031 38.527344 63.078125 C 38.578125 63.5625 38.667969 63.984375 38.792969 64.34375 C 38.933594 64.703125 39.121094 64.984375 39.359375 65.195312 C 39.601562 65.40625 39.921875 65.511719 40.328125 65.511719 C 40.71875 65.511719 41.035156 65.40625 41.273438 65.195312 C 41.527344 64.984375 41.714844 64.703125 41.84375 64.34375 C 41.980469 63.972656 42.070312 63.542969 42.105469 63.058594 C 42.15625 62.578125 42.183594 62.058594 42.183594 61.5 C 42.183594 60.941406 42.15625 60.421875 42.105469 59.941406 C 42.070312 59.445312 41.980469 59.015625 41.84375 58.65625 C 41.714844 58.300781 41.53125 58.015625 41.292969 57.804688 C 41.054688 57.59375 40.730469 57.488281 40.328125 57.488281 C 39.921875 57.488281 39.601562 57.59375 39.359375 57.804688 C 39.121094 58.015625 38.933594 58.304688 38.792969 58.675781 C 38.667969 59.035156 38.578125 59.457031 38.527344 59.941406 C 38.488281 60.421875 38.472656 60.941406 38.472656 61.5 M 36.105469 61.5 C 36.105469 59.519531 36.476562 58.027344 37.222656 57.023438 C 37.964844 56.007812 39 55.5 40.328125 55.5 C 41.703125 55.5 42.75 56.007812 43.46875 57.023438 C 44.191406 58.027344 44.550781 59.519531 44.550781 61.5 C 44.550781 63.480469 44.183594 64.980469 43.453125 65.996094 C 42.71875 67 41.683594 67.5 40.347656 67.5 C 38.96875 67.5 37.914062 67 37.183594 65.996094 C 36.464844 64.980469 36.105469 63.480469 36.105469 61.5 "/>
    <path style=" stroke:none;fill-rule:nonzero;fill:rgb(100%,100%,100%);fill-opacity:1;" d="M 49.304688 55.628906 C 50.792969 55.628906 51.949219 55.933594 52.769531 56.539062 C 53.589844 57.136719 54 58.113281 54 59.476562 C 54 60.851562 53.582031 61.847656 52.75 62.464844 C 51.929688 63.074219 50.761719 63.375 49.246094 63.375 L 48.414062 63.375 L 48.414062 67.257812 L 46.082031 67.257812 L 46.082031 55.910156 C 46.3125 55.859375 46.5625 55.816406 46.839844 55.777344 C 47.132812 55.742188 47.421875 55.71875 47.710938 55.703125 C 48.003906 55.679688 48.285156 55.660156 48.566406 55.648438 C 48.84375 55.636719 49.089844 55.628906 49.304688 55.628906 M 49.570312 57.617188 C 49.429688 57.617188 49.234375 57.625 48.980469 57.636719 C 48.742188 57.636719 48.550781 57.648438 48.414062 57.671875 L 48.414062 61.386719 L 49.359375 61.386719 C 50.105469 61.386719 50.667969 61.246094 51.046875 60.960938 C 51.425781 60.664062 51.613281 60.164062 51.613281 59.457031 C 51.613281 58.789062 51.425781 58.316406 51.046875 58.046875 C 50.679688 57.761719 50.1875 57.617188 49.570312 57.617188 "/>
  </g>
</svg>