<?xml version="1.0" encoding="UTF-8" standalone="yes"?>
<svg xmlns="http://www.w3.org/2000/svg" xmlns:xlink="http://www.w3.org/1999/xlink" width="96px" height="96px" viewBox="0 0 72 72" version="1.1">
  <g id="surface1">
    <path style=" stroke:none;fill-rule:nonzero;fill:rgb(48.627451%,61.568627%,20.784314%);fill-opacity:1;" d="M 12 1.5 C 10.457031 1.5 9 2.957031 9 4.5 L 9 67.5 C 9 68.957031 10.542969 70.5 12 70.5 L 60 70.5 C 61.457031 70.5 63 68.957031 63 67.5 L 63 21 L 43.5 1.5 Z M 12 1.5 "/>
    <path style=" stroke:none;fill-rule:nonzero;fill:rgb(0%,0%,0%);fill-opacity:0.196078;" d="M 43.5 18 L 43.59375 18.09375 L 43.828125 18 Z M 46.5 21 L 63 37.5 L 63 21 Z M 46.5 21 "/>
    <path style=" stroke:none;fill-rule:nonzero;fill:rgb(100%,100%,100%);fill-opacity:0.392157;" d="M 43.5 1.5 L 63 21 L 46.5 21 C 45.042969 21 43.5 19.457031 43.5 18 Z M 43.5 1.5 "/>
    <path style=" stroke:none;fill-rule:nonzero;fill:rgb(100%,100%,100%);fill-opacity:1;" d="M 36 48.425781 L 26.574219 39 L 36 29.574219 L 39.140625 32.714844 L 32.855469 39 L 36 42.140625 L 45.425781 32.714844 L 37.214844 24.503906 C 36.542969 23.832031 35.457031 23.832031 34.785156 24.503906 L 21.503906 37.785156 C 20.832031 38.457031 20.832031 39.542969 21.503906 40.214844 L 34.785156 53.496094 C 35.457031 54.167969 36.542969 54.167969 37.214844 53.496094 L 50.496094 40.214844 C 51.167969 39.542969 51.167969 38.457031 50.496094 37.785156 L 48.570312 35.859375 Z M 36 48.425781 "/>
  </g>
</svg>