<?xml version="1.0" encoding="UTF-8" standalone="yes"?>
<svg xmlns="http://www.w3.org/2000/svg" xmlns:xlink="http://www.w3.org/1999/xlink" width="96px" height="96px" viewBox="0 0 72 72" version="1.1">
  <g id="surface1">
    <path style=" stroke:none;fill-rule:nonzero;fill:rgb(86.27451%,86.27451%,86.27451%);fill-opacity:1;" d="M 12 1.5 C 10.457031 1.5 9 2.957031 9 4.5 L 9 67.5 C 9 68.957031 10.542969 70.5 12 70.5 L 60 70.5 C 61.457031 70.5 63 68.957031 63 67.5 L 63 21 L 43.5 1.5 Z M 12 1.5 "/>
    <path style=" stroke:none;fill-rule:nonzero;fill:rgb(0%,0%,0%);fill-opacity:0.196078;" d="M 43.5 18 L 43.59375 18.09375 L 43.828125 18 Z M 46.5 21 L 63 37.5 L 63 21 Z M 46.5 21 "/>
    <path style=" stroke:none;fill-rule:nonzero;fill:rgb(100%,100%,100%);fill-opacity:0.392157;" d="M 43.5 1.5 L 63 21 L 46.5 21 C 45.042969 21 43.5 19.457031 43.5 18 Z M 43.5 1.5 "/>
    <path style=" stroke:none;fill-rule:nonzero;fill:rgb(53.333333%,53.333333%,53.333333%);fill-opacity:1;" d="M 42.964844 25.5 C 38.527344 25.5 34.929688 29.097656 34.929688 33.535156 C 34.929688 34.921875 35.28125 36.230469 35.898438 37.371094 C 35.902344 37.371094 35.898438 37.382812 35.898438 37.386719 L 21 52.285156 L 21 55.5 L 24.214844 55.5 L 25.285156 54.429688 L 25.285156 52.285156 L 27.429688 52.285156 L 28.5 51.214844 L 30.644531 51.214844 L 31.714844 50.144531 L 31.714844 48 L 32.785156 46.929688 L 34.929688 46.929688 L 34.929688 44.785156 L 39.113281 40.601562 C 39.117188 40.601562 39.125 40.597656 39.128906 40.601562 C 40.269531 41.21875 41.578125 41.570312 42.964844 41.570312 C 47.402344 41.570312 51 37.972656 51 33.535156 L 51 33.503906 C 50.984375 29.074219 47.390625 25.5 42.964844 25.5 Z M 44.570312 29.785156 C 45.753906 29.785156 46.710938 30.746094 46.714844 31.929688 C 46.714844 33.113281 45.753906 34.070312 44.570312 34.070312 C 43.386719 34.070312 42.429688 33.113281 42.429688 31.929688 C 42.429688 30.746094 43.386719 29.785156 44.570312 29.785156 Z M 44.570312 29.785156 "/>
  </g>
</svg>