<?xml version="1.0" encoding="UTF-8" standalone="yes"?>
<svg xmlns="http://www.w3.org/2000/svg" xmlns:xlink="http://www.w3.org/1999/xlink" width="96px" height="96px" viewBox="0 0 72 72" version="1.1">
  <g id="surface1">
    <path style=" stroke:none;fill-rule:nonzero;fill:rgb(53.333333%,53.333333%,53.333333%);fill-opacity:1;" d="M 12 1.5 C 10.457031 1.5 9 2.957031 9 4.5 L 9 67.5 C 9 68.957031 10.542969 70.5 12 70.5 L 60 70.5 C 61.457031 70.5 63 68.957031 63 67.5 L 63 21 L 43.5 1.5 Z M 12 1.5 "/>
    <path style=" stroke:none;fill-rule:nonzero;fill:rgb(0%,0%,0%);fill-opacity:0.196078;" d="M 43.5 18 L 43.59375 18.09375 L 43.828125 18 Z M 46.5 21 L 63 37.5 L 63 21 Z M 46.5 21 "/>
    <path style=" stroke:none;fill-rule:nonzero;fill:rgb(100%,100%,100%);fill-opacity:0.392157;" d="M 43.5 1.5 L 63 21 L 46.5 21 C 45.042969 21 43.5 19.457031 43.5 18 Z M 43.5 1.5 "/>
    <path style=" stroke:none;fill-rule:nonzero;fill:rgb(100%,100%,100%);fill-opacity:1;" d="M 27.46875 33 C 26.996094 33.046875 27 33.25 27 34.03125 L 27 42 C 27 40.34375 28.34375 39 30 39 C 31.65625 39 33 40.34375 33 42 C 33 43.65625 31.65625 45 30 45 C 28.34375 45 27 43.65625 27 42 L 27 49.875 C 27 51.003906 27 51 28.125 51 L 36 51 C 34.34375 51 33 49.65625 33 48 C 33 46.34375 34.34375 45 36 45 C 37.65625 45 39 46.34375 39 48 C 39 49.65625 37.65625 51 36 51 L 43.875 51 C 45.003906 51 45 51 45 49.875 L 45 34.125 C 45 32.996094 45 33 43.875 33 L 28.125 33 C 27.84375 33 27.628906 32.984375 27.46875 33 Z M 27.46875 33 "/>
    <path style=" stroke:none;fill-rule:nonzero;fill:rgb(100%,100%,100%);fill-opacity:1;" d="M 39 30 C 39 31.65625 37.65625 33 36 33 C 34.34375 33 33 31.65625 33 30 C 33 28.34375 34.34375 27 36 27 C 37.65625 27 39 28.34375 39 30 Z M 39 30 "/>
    <path style=" stroke:none;fill-rule:nonzero;fill:rgb(100%,100%,100%);fill-opacity:1;" d="M 51 42 C 51 43.65625 49.65625 45 48 45 C 46.34375 45 45 43.65625 45 42 C 45 40.34375 46.34375 39 48 39 C 49.65625 39 51 40.34375 51 42 Z M 51 42 "/>
  </g>
</svg>