<?xml version="1.0" encoding="UTF-8" standalone="yes"?>
<svg xmlns="http://www.w3.org/2000/svg" xmlns:xlink="http://www.w3.org/1999/xlink" width="96px" height="96px" viewBox="0 0 72 72" version="1.1">
  <g id="surface1">
    <path style=" stroke:none;fill-rule:nonzero;fill:rgb(7.45098%,64.705882%,32.54902%);fill-opacity:1;" d="M 12 1.5 C 10.457031 1.5 9 2.957031 9 4.5 L 9 67.5 C 9 68.957031 10.542969 70.5 12 70.5 L 60 70.5 C 61.457031 70.5 63 68.957031 63 67.5 L 63 21 L 43.5 1.5 Z M 12 1.5 "/>
    <path style=" stroke:none;fill-rule:nonzero;fill:rgb(0%,0%,0%);fill-opacity:0.196078;" d="M 43.5 18 L 43.59375 18.09375 L 43.828125 18 Z M 46.5 21 L 63 37.5 L 63 21 Z M 46.5 21 "/>
    <path style=" stroke:none;fill-rule:nonzero;fill:rgb(100%,100%,100%);fill-opacity:0.392157;" d="M 43.5 1.5 L 63 21 L 46.5 21 C 45.042969 21 43.5 19.457031 43.5 18 Z M 43.5 1.5 "/>
    <path style=" stroke:none;fill-rule:nonzero;fill:rgb(100%,100%,100%);fill-opacity:1;" d="M 51 27 C 51 37.558594 51 47.84375 51 57 C 40.46875 57 30.109375 57 21 57 C 21 46.441406 21 36.15625 21 27 C 31.414062 27 42.074219 27 51 27 Z M 48 30 L 34.5 30 L 34.5 36 L 48 36 Z M 31.5 30 L 24 30 L 24 36 L 31.5 36 Z M 48 39 L 34.5 39 L 34.5 45 L 48 45 Z M 31.5 39 L 24 39 L 24 45 L 31.5 45 Z M 48 48 L 34.5 48 L 34.5 54 L 48 54 Z M 31.5 48 L 24 48 L 24 54 L 31.5 54 Z M 31.5 48 "/>
  </g>
</svg>