<?xml version="1.0" encoding="UTF-8" standalone="yes"?>
<svg xmlns="http://www.w3.org/2000/svg" xmlns:xlink="http://www.w3.org/1999/xlink" width="96px" height="96px" viewBox="0 0 72 72" version="1.1">
  <g id="surface1">
    <path style=" stroke:none;fill-rule:nonzero;fill:rgb(53.333333%,53.333333%,53.333333%);fill-opacity:1;" d="M 12 1.5 C 10.457031 1.5 9 2.957031 9 4.5 L 9 67.5 C 9 68.957031 10.542969 70.5 12 70.5 L 60 70.5 C 61.457031 70.5 63 68.957031 63 67.5 L 63 21 L 43.5 1.5 Z M 12 1.5 "/>
    <path style=" stroke:none;fill-rule:nonzero;fill:rgb(0%,0%,0%);fill-opacity:0.196078;" d="M 43.5 18 L 43.59375 18.09375 L 43.828125 18 Z M 46.5 21 L 63 37.5 L 63 21 Z M 46.5 21 "/>
    <path style=" stroke:none;fill-rule:nonzero;fill:rgb(100%,100%,100%);fill-opacity:0.392157;" d="M 43.5 1.5 L 63 21 L 46.5 21 C 45.042969 21 43.5 19.457031 43.5 18 Z M 43.5 1.5 "/>
    <path style=" stroke:none;fill-rule:nonzero;fill:rgb(100%,100%,100%);fill-opacity:1;" d="M 27.46875 30 C 26.996094 30.046875 27 30.25 27 31.03125 L 27 39 C 27 37.34375 28.34375 36 30 36 C 31.65625 36 33 37.34375 33 39 C 33 40.65625 31.65625 42 30 42 C 28.34375 42 27 40.65625 27 39 L 27 46.875 C 27 48.003906 27 48 28.125 48 L 36 48 C 34.34375 48 33 46.65625 33 45 C 33 43.34375 34.34375 42 36 42 C 37.65625 42 39 43.34375 39 45 C 39 46.65625 37.65625 48 36 48 L 43.875 48 C 45.003906 48 45 48 45 46.875 L 45 31.125 C 45 29.996094 45 30 43.875 30 L 28.125 30 C 27.84375 30 27.628906 29.984375 27.46875 30 Z M 27.46875 30 "/>
    <path style=" stroke:none;fill-rule:nonzero;fill:rgb(100%,100%,100%);fill-opacity:1;" d="M 39 27 C 39 28.65625 37.65625 30 36 30 C 34.34375 30 33 28.65625 33 27 C 33 25.34375 34.34375 24 36 24 C 37.65625 24 39 25.34375 39 27 Z M 39 27 "/>
    <path style=" stroke:none;fill-rule:nonzero;fill:rgb(100%,100%,100%);fill-opacity:1;" d="M 51 39 C 51 40.65625 49.65625 42 48 42 C 46.34375 42 45 40.65625 45 39 C 45 37.34375 46.34375 36 48 36 C 49.65625 36 51 37.34375 51 39 Z M 51 39 "/>
    <path style=" stroke:none;fill-rule:nonzero;fill:rgb(0%,0%,0%);fill-opacity:0.196078;" d="M 9 52.5 L 9 67.5 C 9 68.957031 10.542969 70.5 12 70.5 L 60 70.5 C 61.457031 70.5 63 68.957031 63 67.5 L 63 52.5 Z M 9 52.5 "/>
    <path style=" stroke:none;fill-rule:nonzero;fill:rgb(100%,100%,100%);fill-opacity:1;" d="M 23.589844 61.5 C 23.589844 62.058594 23.609375 62.582031 23.652344 63.078125 C 23.707031 63.5625 23.804688 63.984375 23.941406 64.34375 C 24.09375 64.699219 24.300781 64.984375 24.5625 65.195312 C 24.824219 65.40625 25.179688 65.511719 25.621094 65.511719 C 26.046875 65.511719 26.394531 65.40625 26.65625 65.195312 C 26.933594 64.984375 27.140625 64.699219 27.277344 64.34375 C 27.429688 63.96875 27.527344 63.542969 27.566406 63.058594 C 27.621094 62.578125 27.652344 62.058594 27.652344 61.5 C 27.652344 60.941406 27.621094 60.421875 27.566406 59.9375 C 27.527344 59.445312 27.429688 59.015625 27.277344 58.65625 C 27.140625 58.296875 26.9375 58.015625 26.675781 57.804688 C 26.414062 57.59375 26.0625 57.488281 25.621094 57.488281 C 25.179688 57.488281 24.824219 57.59375 24.5625 57.804688 C 24.300781 58.015625 24.09375 58.304688 23.941406 58.675781 C 23.804688 59.035156 23.707031 59.457031 23.652344 59.9375 C 23.609375 60.421875 23.589844 60.941406 23.589844 61.5 M 21 61.5 C 21 59.519531 21.40625 58.027344 22.222656 57.023438 C 23.039062 56.007812 24.167969 55.5 25.621094 55.5 C 27.125 55.5 28.273438 56.007812 29.058594 57.023438 C 29.847656 58.027344 30.242188 59.519531 30.242188 61.5 C 30.242188 63.480469 29.839844 64.980469 29.039062 65.996094 C 28.238281 67 27.105469 67.5 25.640625 67.5 C 24.136719 67.5 22.980469 67 22.179688 65.996094 C 21.394531 64.980469 21 63.480469 21 61.5 "/>
    <path style=" stroke:none;fill-rule:nonzero;fill:rgb(100%,100%,100%);fill-opacity:1;" d="M 38.175781 67.257812 C 37.914062 66.625 37.589844 65.925781 37.203125 65.160156 C 36.828125 64.390625 36.433594 63.625 36.019531 62.855469 C 35.621094 63.585938 35.21875 64.347656 34.820312 65.140625 C 34.417969 65.921875 34.074219 66.625 33.78125 67.257812 L 31.027344 67.257812 C 31.164062 66.925781 31.367188 66.519531 31.628906 66.050781 C 31.90625 65.582031 32.203125 65.074219 32.519531 64.527344 C 32.851562 63.984375 33.195312 63.425781 33.554688 62.855469 C 33.914062 62.273438 34.257812 61.714844 34.589844 61.183594 L 31.234375 55.761719 L 33.992188 55.761719 L 36.019531 59.4375 L 38.15625 55.761719 L 40.722656 55.761719 L 37.449219 61.128906 C 37.824219 61.660156 38.1875 62.21875 38.546875 62.800781 C 38.90625 63.382812 39.238281 63.953125 39.542969 64.507812 C 39.859375 65.054688 40.136719 65.566406 40.371094 66.050781 C 40.605469 66.519531 40.792969 66.925781 40.929688 67.257812 L 38.175781 67.257812 "/>
    <path style=" stroke:none;fill-rule:nonzero;fill:rgb(100%,100%,100%);fill-opacity:1;" d="M 51 55.761719 L 51 57.65625 L 47.621094 57.65625 L 47.621094 67.257812 L 45.054688 67.257812 L 45.054688 57.65625 L 41.675781 57.65625 L 41.675781 55.761719 L 51 55.761719 "/>
  </g>
</svg>