<?xml version="1.0" encoding="UTF-8" standalone="yes"?>
<svg xmlns="http://www.w3.org/2000/svg" xmlns:xlink="http://www.w3.org/1999/xlink" width="96px" height="96px" viewBox="0 0 72 72" version="1.1">
  <g id="surface1">
    <path style=" stroke:none;fill-rule:nonzero;fill:rgb(59.607843%,70.196078%,81.568627%);fill-opacity:1;" d="M 12 1.5 C 10.457031 1.5 9 2.957031 9 4.5 L 9 67.5 C 9 68.957031 10.542969 70.5 12 70.5 L 60 70.5 C 61.457031 70.5 63 68.957031 63 67.5 L 63 21 L 43.5 1.5 Z M 12 1.5 "/>
    <path style=" stroke:none;fill-rule:nonzero;fill:rgb(0%,0%,0%);fill-opacity:0.196078;" d="M 43.5 18 L 43.59375 18.09375 L 43.828125 18 Z M 46.5 21 L 63 37.5 L 63 21 Z M 46.5 21 "/>
    <path style=" stroke:none;fill-rule:nonzero;fill:rgb(100%,100%,100%);fill-opacity:0.392157;" d="M 43.5 1.5 L 63 21 L 46.5 21 C 45.042969 21 43.5 19.457031 43.5 18 Z M 43.5 1.5 "/>
    <path style=" stroke:none;fill-rule:nonzero;fill:rgb(100%,100%,100%);fill-opacity:1;" d="M 36 28.503906 C 26.054688 28.503906 18 33.878906 18 40.503906 C 18 45.726562 23.011719 50.160156 30 51.808594 L 30 47.832031 C 26.375 46.199219 24 43.53125 24 40.503906 C 24 35.535156 30.382812 31.503906 38.25 31.503906 C 46.117188 31.503906 52.5 35.539062 52.5 40.503906 C 52.5 44.394531 48.585938 47.699219 43.117188 48.957031 C 43.554688 49.679688 43.996094 50.402344 44.433594 51.105469 C 50.121094 49.089844 54 45.101562 54 40.503906 C 54 33.878906 45.945312 28.503906 36 28.503906 Z M 36 28.503906 "/>
    <path style=" stroke:none;fill-rule:nonzero;fill:rgb(100%,100%,100%);fill-opacity:1;" d="M 31.5 34.507812 L 31.5 57 L 36 57 L 36 49.5 L 37.5 49.5 L 42 57 L 46.5 57 L 42 49.5 L 41.671875 48.984375 C 44.484375 47.90625 46.492188 45.199219 46.492188 42 C 46.492188 37.863281 43.136719 34.507812 38.992188 34.507812 M 36 39.007812 L 38.992188 39.007812 C 40.652344 39.007812 41.992188 40.347656 41.992188 42 C 41.992188 43.664062 40.648438 45 38.992188 45 L 36 45 L 36 39 M 36 39.007812 "/>
  </g>
</svg>