<?xml version="1.0" encoding="UTF-8" standalone="yes"?>
<svg xmlns="http://www.w3.org/2000/svg" xmlns:xlink="http://www.w3.org/1999/xlink" width="96px" height="96px" viewBox="0 0 72 72" version="1.1">
  <g id="surface1">
    <path style=" stroke:none;fill-rule:nonzero;fill:rgb(17.647059%,17.647059%,17.647059%);fill-opacity:1;" d="M 12 1.5 C 10.457031 1.5 9 2.957031 9 4.5 L 9 67.5 C 9 68.957031 10.542969 70.5 12 70.5 L 60 70.5 C 61.457031 70.5 63 68.957031 63 67.5 L 63 21 L 43.5 1.5 Z M 12 1.5 "/>
    <path style=" stroke:none;fill-rule:nonzero;fill:rgb(0%,0%,0%);fill-opacity:0.196078;" d="M 43.5 18 L 43.59375 18.09375 L 43.828125 18 Z M 46.5 21 L 63 37.5 L 63 21 Z M 46.5 21 "/>
    <path style=" stroke:none;fill-rule:nonzero;fill:rgb(100%,100%,100%);fill-opacity:0.392157;" d="M 43.5 1.5 L 63 21 L 46.5 21 C 45.042969 21 43.5 19.457031 43.5 18 Z M 43.5 1.5 "/>
    <path style=" stroke:none;fill-rule:nonzero;fill:rgb(86.27451%,86.27451%,86.27451%);fill-opacity:1;" d="M 16.5 41.800781 C 16.5 40.355469 16.726562 38.933594 17.175781 37.535156 C 17.628906 36.109375 18.277344 34.84375 19.121094 33.734375 C 19.984375 32.621094 21.035156 31.722656 22.273438 31.035156 C 23.511719 30.34375 24.925781 30 26.515625 30 C 28.382812 30 29.992188 30.476562 31.347656 31.433594 C 32.722656 32.390625 33.734375 33.632812 34.378906 35.167969 L 31.257812 37.601562 C 31.023438 36.933594 30.71875 36.378906 30.34375 35.933594 C 29.972656 35.464844 29.558594 35.101562 29.109375 34.832031 C 28.675781 34.566406 28.222656 34.378906 27.753906 34.265625 C 27.28125 34.132812 26.828125 34.066406 26.398438 34.066406 C 25.433594 34.066406 24.589844 34.300781 23.863281 34.765625 C 23.136719 35.234375 22.527344 35.84375 22.039062 36.601562 C 21.566406 37.332031 21.203125 38.179688 20.949219 39.132812 C 20.710938 40.066406 20.59375 41 20.59375 41.933594 C 20.59375 42.976562 20.730469 43.988281 21.007812 44.96875 C 21.300781 45.921875 21.703125 46.765625 22.214844 47.5 C 22.746094 48.234375 23.375 48.824219 24.101562 49.265625 C 24.828125 49.710938 25.621094 49.933594 26.484375 49.933594 C 26.9375 49.933594 27.398438 49.867188 27.871094 49.734375 C 28.34375 49.601562 28.792969 49.390625 29.226562 49.101562 C 29.675781 48.8125 30.089844 48.445312 30.464844 48 C 30.835938 47.535156 31.140625 46.976562 31.375 46.332031 L 34.703125 48.5 C 34.390625 49.390625 33.929688 50.179688 33.320312 50.867188 C 32.730469 51.535156 32.054688 52.101562 31.289062 52.566406 C 30.523438 53.035156 29.714844 53.390625 28.871094 53.632812 C 28.027344 53.878906 27.191406 54 26.367188 54 C 24.914062 54 23.578125 53.644531 22.363281 52.933594 C 21.164062 52.222656 20.125 51.300781 19.238281 50.167969 C 18.375 49.011719 17.699219 47.710938 17.207031 46.265625 C 16.734375 44.800781 16.5 43.3125 16.5 41.800781 "/>
    <path style=" stroke:none;fill-rule:nonzero;fill:rgb(86.27451%,86.27451%,86.27451%);fill-opacity:1;" d="M 55.5 39.667969 L 51.226562 39.667969 L 50.257812 44.234375 L 54.117188 44.234375 L 54.117188 47.566406 L 49.550781 47.566406 L 48.195312 53.800781 L 45.011719 53.800781 L 46.398438 47.566406 L 42.863281 47.566406 L 41.535156 53.800781 L 38.355469 53.800781 L 39.710938 47.566406 L 36.410156 47.566406 L 36.410156 44.234375 L 40.417969 44.234375 L 41.390625 39.667969 L 37.796875 39.667969 L 37.796875 36.535156 L 42.066406 36.535156 L 43.453125 30.132812 L 46.632812 30.132812 L 45.21875 36.535156 L 48.753906 36.535156 L 50.109375 30.132812 L 53.289062 30.132812 L 51.90625 36.535156 L 55.5 36.535156 L 55.5 39.667969 M 47.105469 44.234375 L 48.046875 39.667969 L 44.542969 39.667969 L 43.570312 44.234375 L 47.105469 44.234375 "/>
  </g>
</svg>