<?xml version="1.0" encoding="UTF-8" standalone="yes"?>
<svg xmlns="http://www.w3.org/2000/svg" xmlns:xlink="http://www.w3.org/1999/xlink" width="96px" height="96px" viewBox="0 0 72 72" version="1.1">
  <g id="surface1">
    <path style=" stroke:none;fill-rule:nonzero;fill:rgb(64.313725%,21.568627%,22.745098%);fill-opacity:1;" d="M 12 1.5 C 10.457031 1.5 9 2.957031 9 4.5 L 9 67.5 C 9 68.957031 10.542969 70.5 12 70.5 L 60 70.5 C 61.457031 70.5 63 68.957031 63 67.5 L 63 21 L 43.5 1.5 Z M 12 1.5 "/>
    <path style=" stroke:none;fill-rule:nonzero;fill:rgb(0%,0%,0%);fill-opacity:0.196078;" d="M 43.5 18 L 43.59375 18.09375 L 43.828125 18 Z M 46.5 21 L 63 37.5 L 63 21 Z M 46.5 21 "/>
    <path style=" stroke:none;fill-rule:nonzero;fill:rgb(100%,100%,100%);fill-opacity:0.392157;" d="M 43.5 1.5 L 63 21 L 46.5 21 C 45.042969 21 43.5 19.457031 43.5 18 Z M 43.5 1.5 "/>
    <path style=" stroke:none;fill-rule:nonzero;fill:rgb(100%,100%,100%);fill-opacity:1;" d="M 36 24 C 29.371094 24 24 25.679688 24 27.75 L 24 30.75 C 24 32.820312 29.371094 34.5 36 34.5 C 42.625 34.5 48 32.820312 48 30.75 L 48 27.75 C 48 25.679688 42.625 24 36 24 Z M 36 24 "/>
    <path style=" stroke:none;fill-rule:nonzero;fill:rgb(100%,100%,100%);fill-opacity:1;" d="M 35.960938 36 C 30.589844 36 26.058594 34.894531 24.53125 33.375 C 24.171875 33.730469 24 34.109375 24 34.5 L 24 37.5 C 24 39.570312 29.371094 41.25 36 41.25 C 42.625 41.25 48 39.570312 48 37.5 L 48 34.5 C 48 34.109375 47.789062 33.730469 47.429688 33.375 C 45.902344 34.894531 41.335938 36 35.960938 36 Z M 35.960938 36 "/>
    <path style=" stroke:none;fill-rule:nonzero;fill:rgb(100%,100%,100%);fill-opacity:1;" d="M 35.960938 42.75 C 30.589844 42.75 26.058594 41.644531 24.53125 40.125 C 24.171875 40.480469 24 40.859375 24 41.25 L 24 44.25 C 24 46.320312 29.371094 48 36 48 C 42.625 48 48 46.320312 48 44.25 L 48 41.25 C 48 40.859375 47.789062 40.480469 47.429688 40.125 C 45.902344 41.644531 41.335938 42.75 35.960938 42.75 Z M 35.960938 42.75 "/>
    <path style=" stroke:none;fill-rule:nonzero;fill:rgb(0%,0%,0%);fill-opacity:0.196078;" d="M 9 52.5 L 9 67.5 C 9 68.957031 10.542969 70.5 12 70.5 L 60 70.5 C 61.457031 70.5 63 68.957031 63 67.5 L 63 52.5 Z M 9 52.5 "/>
    <path style=" stroke:none;fill-rule:nonzero;fill:rgb(100%,100%,100%);fill-opacity:1;" d="M 25.054688 63.613281 C 25.492188 63.613281 25.851562 63.585938 26.132812 63.523438 C 26.429688 63.457031 26.664062 63.367188 26.832031 63.257812 C 27 63.136719 27.113281 63.007812 27.167969 62.867188 C 27.238281 62.71875 27.273438 62.570312 27.273438 62.417969 C 27.273438 62.230469 27.199219 62.0625 27.042969 61.910156 C 26.886719 61.761719 26.691406 61.632812 26.449219 61.523438 C 26.210938 61.402344 25.945312 61.296875 25.648438 61.207031 C 25.351562 61.109375 25.054688 61.019531 24.761719 60.941406 C 24.367188 60.839844 23.957031 60.726562 23.535156 60.597656 C 23.113281 60.464844 22.726562 60.300781 22.375 60.101562 C 22.035156 59.902344 21.753906 59.660156 21.527344 59.371094 C 21.304688 59.070312 21.191406 58.703125 21.191406 58.265625 C 21.191406 57.398438 21.585938 56.71875 22.375 56.230469 C 23.175781 55.746094 24.273438 55.5 25.667969 55.5 C 26.472656 55.5 27.167969 55.566406 27.761719 55.695312 C 28.367188 55.824219 28.875 55.96875 29.28125 56.128906 L 28.519531 57.546875 C 28.167969 57.40625 27.773438 57.289062 27.339844 57.1875 C 26.914062 57.089844 26.421875 57.039062 25.859375 57.039062 C 24.480469 57.039062 23.789062 57.394531 23.789062 58.101562 C 23.789062 58.28125 23.859375 58.4375 24 58.578125 C 24.140625 58.707031 24.316406 58.828125 24.527344 58.9375 C 24.753906 59.035156 25 59.125 25.269531 59.207031 C 25.550781 59.285156 25.824219 59.359375 26.089844 59.429688 C 26.5 59.539062 26.921875 59.664062 27.359375 59.804688 C 27.808594 59.933594 28.21875 60.113281 28.585938 60.34375 C 28.964844 60.5625 29.273438 60.839844 29.515625 61.179688 C 29.753906 61.507812 29.875 61.925781 29.875 62.433594 C 29.875 63.300781 29.472656 63.972656 28.667969 64.453125 C 27.878906 64.917969 26.675781 65.152344 25.054688 65.152344 C 23.972656 65.152344 23.105469 65.074219 22.457031 64.914062 C 21.808594 64.746094 21.324219 64.589844 21 64.453125 L 21.761719 62.957031 C 22.140625 63.117188 22.589844 63.265625 23.113281 63.40625 C 23.648438 63.546875 24.296875 63.613281 25.054688 63.613281 "/>
    <path style=" stroke:none;fill-rule:nonzero;fill:rgb(100%,100%,100%);fill-opacity:1;" d="M 31.289062 60.371094 C 31.289062 58.777344 31.703125 57.578125 32.535156 56.769531 C 33.367188 55.953125 34.519531 55.546875 36 55.546875 C 37.535156 55.546875 38.703125 55.953125 39.507812 56.769531 C 40.308594 57.578125 40.710938 58.777344 40.710938 60.371094 C 40.710938 61.765625 40.394531 62.867188 39.761719 63.675781 C 39.128906 64.472656 38.210938 64.953125 37.015625 65.125 C 37.167969 65.375 37.542969 65.578125 38.132812 65.738281 C 38.738281 65.90625 39.5625 66.054688 40.605469 66.183594 L 40.054688 67.5 C 38.410156 67.339844 37.164062 67.070312 36.316406 66.691406 C 35.484375 66.324219 34.992188 65.792969 34.839844 65.09375 C 33.699219 64.894531 32.816406 64.402344 32.199219 63.613281 C 31.589844 62.816406 31.289062 61.738281 31.289062 60.371094 M 33.929688 60.371094 C 33.929688 60.820312 33.949219 61.238281 33.992188 61.628906 C 34.050781 62.015625 34.148438 62.359375 34.289062 62.660156 C 34.445312 62.945312 34.65625 63.175781 34.921875 63.347656 C 35.191406 63.515625 35.550781 63.601562 36 63.601562 C 36.4375 63.601562 36.789062 63.515625 37.054688 63.347656 C 37.339844 63.175781 37.550781 62.945312 37.691406 62.660156 C 37.84375 62.359375 37.945312 62.015625 37.984375 61.628906 C 38.042969 61.238281 38.070312 60.820312 38.070312 60.371094 C 38.070312 59.921875 38.042969 59.503906 37.984375 59.117188 C 37.945312 58.71875 37.84375 58.375 37.691406 58.085938 C 37.550781 57.796875 37.34375 57.566406 37.078125 57.398438 C 36.808594 57.230469 36.449219 57.144531 36 57.144531 C 35.550781 57.144531 35.191406 57.230469 34.921875 57.398438 C 34.65625 57.566406 34.445312 57.800781 34.289062 58.101562 C 34.148438 58.390625 34.050781 58.726562 33.992188 59.117188 C 33.949219 59.503906 33.929688 59.921875 33.929688 60.371094 "/>
    <path style=" stroke:none;fill-rule:nonzero;fill:rgb(100%,100%,100%);fill-opacity:1;" d="M 51 64.960938 L 42.78125 64.960938 L 42.78125 55.710938 L 45.402344 55.710938 L 45.402344 63.433594 L 51 63.433594 L 51 64.960938 "/>
  </g>
</svg>