<?xml version="1.0" encoding="UTF-8" standalone="yes"?>
<svg xmlns="http://www.w3.org/2000/svg" xmlns:xlink="http://www.w3.org/1999/xlink" width="96px" height="96px" viewBox="0 0 72 72" version="1.1">
  <g id="surface1">
    <path style=" stroke:none;fill-rule:nonzero;fill:rgb(86.27451%,86.27451%,86.27451%);fill-opacity:1;" d="M 12 1.5 C 10.457031 1.5 9 2.957031 9 4.5 L 9 67.5 C 9 68.957031 10.542969 70.5 12 70.5 L 60 70.5 C 61.457031 70.5 63 68.957031 63 67.5 L 63 21 L 43.5 1.5 Z M 12 1.5 "/>
    <path style=" stroke:none;fill-rule:nonzero;fill:rgb(0%,0%,0%);fill-opacity:0.196078;" d="M 43.5 18 L 43.59375 18.09375 L 43.828125 18 Z M 46.5 21 L 63 37.5 L 63 21 Z M 46.5 21 "/>
    <path style=" stroke:none;fill-rule:nonzero;fill:rgb(100%,100%,100%);fill-opacity:0.392157;" d="M 43.5 1.5 L 63 21 L 46.5 21 C 45.042969 21 43.5 19.457031 43.5 18 Z M 43.5 1.5 "/>
    <path style=" stroke:none;fill-rule:nonzero;fill:rgb(53.333333%,53.333333%,53.333333%);fill-opacity:1;" d="M 36 24 C 27.714844 24 21 30.714844 21 39 C 21 47.285156 27.714844 54 36 54 C 44.285156 54 51 47.285156 51 39 C 51 30.714844 44.285156 24 36 24 Z M 36 27 C 42.628906 27 48 32.371094 48 39 C 48 45.628906 42.628906 51 36 51 C 29.371094 51 24 45.628906 24 39 C 24 32.371094 29.371094 27 36 27 Z M 36 27 "/>
    <path style=" stroke:none;fill-rule:nonzero;fill:rgb(53.333333%,53.333333%,53.333333%);fill-opacity:1;" d="M 39 33 C 39 34.65625 37.65625 36 36 36 C 34.34375 36 33 34.65625 33 33 C 33 31.34375 34.34375 30 36 30 C 37.65625 30 39 31.34375 39 33 Z M 39 33 "/>
    <path style=" stroke:none;fill-rule:nonzero;fill:rgb(53.333333%,53.333333%,53.333333%);fill-opacity:1;" d="M 34.5 37.5 L 37.5 37.5 C 39 37.5 39 37.496094 39 39 L 39 46.5 C 39 48 39.003906 48 37.5 48 L 34.5 48 C 33 48 33 48.003906 33 46.5 L 33 39 C 33 37.5 32.996094 37.5 34.5 37.5 Z M 34.5 37.5 "/>
  </g>
</svg>