<?xml version="1.0" encoding="UTF-8" standalone="yes"?>
<svg xmlns="http://www.w3.org/2000/svg" xmlns:xlink="http://www.w3.org/1999/xlink" width="96px" height="96px" viewBox="0 0 72 72" version="1.1">
  <g id="surface1">
    <path style=" stroke:none;fill-rule:nonzero;fill:rgb(96.862745%,80.784314%,41.960784%);fill-opacity:1;" d="M 12 1.5 C 10.457031 1.5 9 2.957031 9 4.5 L 9 67.5 C 9 68.957031 10.542969 70.5 12 70.5 L 60 70.5 C 61.457031 70.5 63 68.957031 63 67.5 L 63 21 L 43.5 1.5 Z M 12 1.5 "/>
    <path style=" stroke:none;fill-rule:nonzero;fill:rgb(0%,0%,0%);fill-opacity:0.196078;" d="M 46.5 21 L 63 37.5 L 63 21 Z M 46.5 21 "/>
    <path style=" stroke:none;fill-rule:nonzero;fill:rgb(100%,100%,100%);fill-opacity:0.392157;" d="M 43.5 1.5 L 63 21 L 46.5 21 C 45.042969 21 43.5 19.457031 43.5 18 Z M 43.5 1.5 "/>
    <path style=" stroke:none;fill-rule:nonzero;fill:rgb(33.333333%,33.333333%,33.333333%);fill-opacity:1;" d="M 30.46875 53.140625 C 28.867188 52.316406 27.613281 50.125 28.453125 48.414062 C 29.160156 46.972656 31.570312 46.578125 31.695312 44.746094 C 31.8125 43.011719 33.183594 41.597656 34.917969 41.582031 C 36.734375 41.566406 38.910156 41.351562 40.253906 42.78125 C 41.289062 43.878906 40.996094 46.375 42.601562 46.949219 C 43.984375 47.441406 45.203125 48.824219 44.867188 50.507812 C 44.515625 52.28125 43.035156 53.269531 41.367188 53.519531 C 37.742188 54.058594 33.972656 54.382812 30.472656 53.148438 M 24.441406 44.367188 C 22.636719 43.105469 22.433594 40.644531 22.515625 38.570312 C 22.546875 37.800781 22.554688 35.171875 23.121094 35.902344 C 23.695312 36.648438 23.542969 37.246094 24.703125 37.027344 C 26.460938 36.695312 27.128906 39.292969 28.488281 40.3125 C 29.714844 41.226562 29.671875 43.585938 28.171875 44.363281 C 27.011719 44.964844 25.570312 45.046875 24.449219 44.355469 M 44.0625 44.25 C 42.433594 43.585938 42.445312 41.175781 43.84375 40.136719 C 45.148438 39.167969 45.640625 36.890625 47.730469 37.101562 C 48.355469 37.167969 48.238281 34.085938 48.753906 35.625 C 49.28125 37.222656 49.363281 38.953125 49.488281 40.625 C 49.625 42.445312 48.484375 44.523438 46.5625 44.78125 C 45.699219 44.898438 44.777344 44.765625 44.058594 44.242188 M 30.667969 37.097656 C 28.742188 36.148438 28.351562 33.269531 29.578125 31.613281 C 30.589844 30.242188 30.257812 27.695312 31.675781 27.039062 C 32.496094 26.65625 31.074219 29.304688 32.652344 29.445312 C 34.886719 29.644531 33.671875 32.210938 34.421875 33.601562 C 35.269531 35.175781 34.957031 37.324219 32.988281 37.535156 C 32.203125 37.621094 31.34375 37.554688 30.667969 37.097656 M 37.320312 36.925781 C 36.117188 36.058594 36.628906 34.414062 36.945312 33.21875 C 37.265625 31.984375 36.234375 29.273438 37.984375 29.375 C 40.042969 29.488281 38.246094 26.746094 39.027344 27.027344 C 40.527344 27.5625 40.527344 30.167969 41.660156 31.539062 C 42.792969 32.90625 42.949219 35.386719 41.480469 36.695312 C 40.316406 37.726562 38.589844 37.65625 37.3125 36.925781 "/>
  </g>
</svg>