<?xml version="1.0" encoding="UTF-8" standalone="yes"?>
<svg xmlns="http://www.w3.org/2000/svg" xmlns:xlink="http://www.w3.org/1999/xlink" width="96px" height="96px" viewBox="0 0 72 72" version="1.1">
  <g id="surface1">
    <path style=" stroke:none;fill-rule:nonzero;fill:rgb(82.352941%,27.843137%,14.901961%);fill-opacity:1;" d="M 12 1.5 C 10.457031 1.5 9 2.957031 9 4.5 L 9 67.5 C 9 68.957031 10.542969 70.5 12 70.5 L 60 70.5 C 61.457031 70.5 63 68.957031 63 67.5 L 63 21 L 43.5 1.5 Z M 12 1.5 "/>
    <path style=" stroke:none;fill-rule:nonzero;fill:rgb(0%,0%,0%);fill-opacity:0.196078;" d="M 43.5 18 L 43.59375 18.09375 L 43.828125 18 Z M 46.5 21 L 63 37.5 L 63 21 Z M 46.5 21 "/>
    <path style=" stroke:none;fill-rule:nonzero;fill:rgb(100%,100%,100%);fill-opacity:0.392157;" d="M 43.5 1.5 L 63 21 L 46.5 21 C 45.042969 21 43.5 19.457031 43.5 18 Z M 43.5 1.5 "/>
    <path style=" stroke:none;fill-rule:nonzero;fill:rgb(0%,0%,0%);fill-opacity:0.196078;" d="M 9 52.5 L 9 67.5 C 9 68.957031 10.542969 70.5 12 70.5 L 60 70.5 C 61.457031 70.5 63 68.957031 63 67.5 L 63 52.5 Z M 9 52.5 "/>
    <path style=" stroke:none;fill-rule:nonzero;fill:rgb(100%,100%,100%);fill-opacity:1;" d="M 23.625 65.402344 C 23.695312 65.414062 23.773438 65.417969 23.859375 65.417969 C 23.945312 65.417969 24.023438 65.417969 24.09375 65.417969 C 24.691406 65.417969 25.1875 65.320312 25.585938 65.121094 C 26 64.925781 26.328125 64.652344 26.570312 64.304688 C 26.824219 63.957031 27.003906 63.550781 27.101562 63.078125 C 27.214844 62.597656 27.273438 62.070312 27.273438 61.5 C 27.273438 61.003906 27.230469 60.519531 27.144531 60.050781 C 27.058594 59.582031 26.910156 59.164062 26.695312 58.804688 C 26.484375 58.445312 26.191406 58.164062 25.820312 57.953125 C 25.453125 57.730469 24.976562 57.617188 24.394531 57.617188 C 24.277344 57.617188 24.152344 57.625 24.007812 57.636719 C 23.867188 57.636719 23.738281 57.648438 23.625 57.671875 L 23.625 65.402344 M 29.941406 61.5 C 29.941406 62.566406 29.785156 63.476562 29.472656 64.230469 C 29.171875 64.972656 28.753906 65.582031 28.210938 66.050781 C 27.671875 66.519531 27.023438 66.867188 26.269531 67.089844 C 25.53125 67.300781 24.710938 67.40625 23.816406 67.40625 C 23.347656 67.40625 22.886719 67.382812 22.429688 67.332031 C 21.988281 67.296875 21.511719 67.226562 21 67.128906 L 21 55.910156 C 21.597656 55.796875 22.160156 55.722656 22.6875 55.6875 C 23.210938 55.648438 23.703125 55.628906 24.15625 55.628906 C 25.027344 55.628906 25.816406 55.742188 26.527344 55.964844 C 27.25 56.1875 27.863281 56.539062 28.359375 57.023438 C 28.859375 57.492188 29.242188 58.101562 29.511719 58.84375 C 29.796875 59.574219 29.941406 60.460938 29.941406 61.5 "/>
    <path style=" stroke:none;fill-rule:nonzero;fill:rgb(100%,100%,100%);fill-opacity:1;" d="M 35.296875 55.628906 C 36.972656 55.628906 38.277344 55.933594 39.199219 56.539062 C 40.125 57.132812 40.585938 58.113281 40.585938 59.476562 C 40.585938 60.851562 40.117188 61.847656 39.179688 62.464844 C 38.253906 63.074219 36.9375 63.375 35.230469 63.375 L 34.292969 63.375 L 34.292969 67.257812 L 31.667969 67.257812 L 31.667969 55.910156 C 31.925781 55.859375 32.210938 55.816406 32.523438 55.777344 C 32.847656 55.742188 33.175781 55.714844 33.503906 55.703125 C 33.832031 55.679688 34.152344 55.660156 34.464844 55.648438 C 34.777344 55.636719 35.054688 55.628906 35.296875 55.628906 M 35.59375 57.617188 C 35.4375 57.617188 35.21875 57.625 34.933594 57.636719 C 34.664062 57.636719 34.449219 57.648438 34.292969 57.671875 L 34.292969 61.386719 L 35.359375 61.386719 C 36.199219 61.386719 36.832031 61.246094 37.257812 60.960938 C 37.6875 60.664062 37.898438 60.164062 37.898438 59.457031 C 37.898438 58.789062 37.6875 58.316406 37.257812 58.042969 C 36.847656 57.761719 36.292969 57.617188 35.59375 57.617188 "/>
    <path style=" stroke:none;fill-rule:nonzero;fill:rgb(100%,100%,100%);fill-opacity:1;" d="M 46.136719 65.585938 C 46.574219 65.585938 46.9375 65.550781 47.222656 65.476562 C 47.523438 65.386719 47.757812 65.277344 47.925781 65.140625 C 48.097656 64.992188 48.210938 64.832031 48.269531 64.65625 C 48.339844 64.472656 48.375 64.285156 48.375 64.101562 C 48.375 63.863281 48.296875 63.65625 48.140625 63.46875 C 47.984375 63.28125 47.785156 63.121094 47.542969 62.984375 C 47.300781 62.835938 47.03125 62.707031 46.734375 62.597656 C 46.433594 62.472656 46.136719 62.359375 45.835938 62.261719 C 45.4375 62.136719 45.027344 61.996094 44.597656 61.835938 C 44.171875 61.671875 43.78125 61.46875 43.425781 61.222656 C 43.082031 60.972656 42.800781 60.671875 42.570312 60.3125 C 42.34375 59.9375 42.230469 59.480469 42.230469 58.9375 C 42.230469 57.859375 42.628906 57.015625 43.425781 56.410156 C 44.234375 55.804688 45.34375 55.5 46.753906 55.5 C 47.566406 55.5 48.269531 55.582031 48.867188 55.742188 C 49.476562 55.902344 49.988281 56.082031 50.402344 56.28125 L 49.632812 58.042969 C 49.277344 57.871094 48.878906 57.722656 48.441406 57.597656 C 48.011719 57.476562 47.515625 57.414062 46.945312 57.414062 C 45.550781 57.414062 44.855469 57.851562 44.855469 58.730469 C 44.855469 58.953125 44.925781 59.152344 45.066406 59.328125 C 45.210938 59.488281 45.386719 59.636719 45.601562 59.773438 C 45.828125 59.894531 46.078125 60.007812 46.347656 60.105469 C 46.632812 60.207031 46.910156 60.296875 47.179688 60.386719 C 47.59375 60.523438 48.019531 60.675781 48.460938 60.851562 C 48.917969 61.011719 49.328125 61.234375 49.699219 61.519531 C 50.082031 61.789062 50.394531 62.136719 50.636719 62.558594 C 50.878906 62.96875 51 63.488281 51 64.117188 C 51 65.195312 50.59375 66.03125 49.785156 66.625 C 48.988281 67.207031 47.769531 67.5 46.136719 67.5 C 45.039062 67.5 44.164062 67.402344 43.511719 67.203125 C 42.855469 66.992188 42.367188 66.800781 42.039062 66.625 L 42.804688 64.769531 C 43.191406 64.96875 43.644531 65.152344 44.171875 65.328125 C 44.710938 65.5 45.367188 65.585938 46.136719 65.585938 "/>
    <path style=" stroke:none;fill-rule:nonzero;fill:rgb(100%,100%,100%);fill-opacity:1;" d="M 18 25.5 L 28.5 25.5 L 28.5 33 L 18 33 Z M 18 25.5 "/>
    <path style=" stroke:none;fill-rule:nonzero;fill:rgb(100%,100%,100%);fill-opacity:1;" d="M 18 37.5 L 28.5 37.5 L 28.5 45 L 18 45 Z M 18 37.5 "/>
    <path style=" stroke:none;fill-rule:nonzero;fill:rgb(100%,100%,100%);fill-opacity:1;" d="M 45 25.5 L 45 34.5 L 54 34.5 C 54 29.53125 49.96875 25.5 45 25.5 Z M 45 25.5 "/>
    <path style=" stroke:none;fill-rule:nonzero;fill:rgb(100%,100%,100%);fill-opacity:1;" d="M 43.5 27 C 37.5 27 33 31.363281 33 36.75 C 33 42.136719 37.363281 46.5 42.75 46.5 C 48.136719 46.5 52.5 42 52.5 36 L 43.5 36 Z M 43.5 27 "/>
  </g>
</svg>