<?xml version="1.0" encoding="UTF-8" standalone="no"?>
<svg
   xmlns:dc="http://purl.org/dc/elements/1.1/"
   xmlns:cc="http://creativecommons.org/ns#"
   xmlns:rdf="http://www.w3.org/1999/02/22-rdf-syntax-ns#"
   xmlns:svg="http://www.w3.org/2000/svg"
   xmlns="http://www.w3.org/2000/svg"
   xmlns:xlink="http://www.w3.org/1999/xlink"
   xmlns:sodipodi="http://sodipodi.sourceforge.net/DTD/sodipodi-0.dtd"
   xmlns:inkscape="http://www.inkscape.org/namespaces/inkscape"
   viewBox="0 0 128 128"
   id="svg2"
   version="1.1"
   inkscape:version="0.91 r13725"
   sodipodi:docname="active-notes.svg"
   width="128"
   height="128">
  <metadata
     id="metadata98">
    <rdf:RDF>
      <cc:Work
         rdf:about="">
        <dc:format>image/svg+xml</dc:format>
        <dc:type
           rdf:resource="http://purl.org/dc/dcmitype/StillImage" />
        <dc:title></dc:title>
      </cc:Work>
    </rdf:RDF>
  </metadata>
  <sodipodi:namedview
     pagecolor="#ffffff"
     bordercolor="#666666"
     borderopacity="1"
     objecttolerance="10"
     gridtolerance="10"
     guidetolerance="10"
     inkscape:pageopacity="0"
     inkscape:pageshadow="2"
     inkscape:window-width="1366"
     inkscape:window-height="704"
     id="namedview96"
     showgrid="false"
     inkscape:zoom="2.8284271"
     inkscape:cx="65.540395"
     inkscape:cy="21.033104"
     inkscape:window-x="0"
     inkscape:window-y="27"
     inkscape:window-maximized="1"
     inkscape:current-layer="svg2">
    <inkscape:grid
       type="xygrid"
       id="grid4360" />
  </sodipodi:namedview>
  <defs
     id="defs4">
    <path
       id="SVGCleanerId_0"
       d="m 14,12 20,0 c 1.105,0 2,0.895 2,2 l 0,20 c 0,1.105 -0.895,2 -2,2 l -20,0 c -1.105,0 -2,-0.895 -2,-2 l 0,-20 c 0,-1.105 0.895,-2 2,-2 m 0,0"
       inkscape:connector-curvature="0" />
  </defs>
  <g
     id="g34"
     transform="translate(0,80)" />
  <use
     height="100%"
     width="100%"
     y="0"
     x="0"
     style="fill:none;stroke:#af8566;stroke-width:2.87999988;stroke-linecap:butt;stroke-linejoin:miter;stroke-miterlimit:4;stroke-dasharray:none;stroke-opacity:1"
     id="use72"
     xlink:href="#SVGCleanerId_0"
     stroke-miterlimit="4"
     transform="matrix(4.1666667,0,0,4.1666667,-36.000001,-36.000001)" />
  <use
     height="100%"
     width="100%"
     y="0"
     x="0"
     style="fill:#fff4ab;fill-opacity:1;fill-rule:nonzero;stroke:none"
     id="use74"
     xlink:href="#SVGCleanerId_0"
     transform="matrix(3.9999999,0,0,3.9999999,-31.999999,-32.000001)" />
  <path
     style="fill:#e4d66a;fill-opacity:1;fill-rule:nonzero;stroke:none"
     inkscape:connector-curvature="0"
     id="path84"
     d="m 16,88 96,0 0,8 -96,0 z"
     sodipodi:nodetypes="ccccc" />
  <path
     style="fill:#e4d66a;fill-opacity:1;fill-rule:nonzero;stroke:none"
     inkscape:connector-curvature="0"
     id="path84-3"
     d="m 16.000001,63.999999 95.999999,0 0,7.999998 -95.999999,0 z"
     sodipodi:nodetypes="ccccc" />
  <path
     style="fill:#e4d66a;fill-opacity:1;fill-rule:nonzero;stroke:none"
     inkscape:connector-curvature="0"
     id="path84-3-9"
     d="m 16.000001,39.999999 95.999999,0 0,8 -95.999999,0 z"
     sodipodi:nodetypes="ccccc" />
  <path
     style="fill:#e6b2a9;fill-opacity:1;fill-rule:nonzero;stroke:none"
     inkscape:connector-curvature="0"
     id="path86"
     d="m 40.000001,15.999998 7.999998,0 0,96.000002 -7.999998,0 z"
     sodipodi:nodetypes="ccccc" />
  <path
     inkscape:connector-curvature="0"
     style="fill:#268bd2;fill-rule:evenodd"
     d="m 72.000001,100.00917 a 28,28 0 1 1 55.999999,0 28,28 0 0 1 -55.999999,0 z"
     id="path4191" />
  <g
     id="g4331"
     transform="matrix(-4,0,0,-4,200.00342,130.00576)">
    <g
       id="g4193"
       transform="matrix(0.5,0,0,1,19,-6)"
       style="line-height:125%;letter-spacing:0;word-spacing:0">
      <path
         id="path4195"
         d="m 14,18 -4,0 0,-6 4,0 0,6"
         style="fill:#ffffff;fill-opacity:0.9"
         inkscape:connector-curvature="0" />
    </g>
    <g
       id="g4197"
       transform="matrix(0.49999884,0,0,0.49999884,18.999996,2.4968895e-5)"
       style="fill-rule:evenodd">
      <path
         id="path4199"
         transform="matrix(1.24868,0,0,1.15686,-2.44444,-0.82353)"
         d="m 13.169492,7.6271181 c 0,0.9547974 -0.717104,1.7288137 -1.601695,1.7288137 -0.884592,0 -1.6016952,-0.7740163 -1.6016952,-1.7288137 0,-0.9547974 0.7171032,-1.7288136 1.6016952,-1.7288136 0.884591,0 1.601695,0.7740162 1.601695,1.7288136 z"
         style="fill:#ffffff;fill-opacity:0.9"
         inkscape:connector-curvature="0" />
    </g>
  </g>
</svg>
