<?xml version="1.0" encoding="UTF-8"?>
<svg xmlns="http://www.w3.org/2000/svg" xmlns:xlink="http://www.w3.org/1999/xlink" width="128px" height="128px" viewBox="0 0 128 128" version="1.1">
<g id="surface1">
<path style=" stroke:none;fill-rule:nonzero;fill:rgb(53.333333%,53.333333%,53.333333%);fill-opacity:1;" d="M 8 8 L 8 24 L 120 24 L 120 8 Z "/>
<path style=" stroke:none;fill-rule:nonzero;fill:rgb(53.333333%,53.333333%,53.333333%);fill-opacity:1;" d="M 8 72 L 8 88 L 80 88 L 80 72 Z "/>
<path style=" stroke:none;fill-rule:nonzero;fill:rgb(53.333333%,53.333333%,53.333333%);fill-opacity:1;" d="M 8 40 L 8 56 L 120 56 L 120 40 Z "/>
<path style=" stroke:none;fill-rule:nonzero;fill:rgb(53.333333%,53.333333%,53.333333%);fill-opacity:1;" d="M 8 104 L 8 120 L 80 120 L 80 104 Z "/>
<path style=" stroke:none;fill-rule:evenodd;fill:rgb(83.921569%,29.019608%,21.568627%);fill-opacity:0.301961;" d="M 8 8 L 120 8 L 120 120 L 8 120 Z "/>
<path style=" stroke:none;fill-rule:nonzero;fill:rgb(83.921569%,28.627451%,21.568627%);fill-opacity:1;" d="M 96 72 L 96 80 L 104 80 L 104 112 L 96 112 L 96 120 L 120 120 L 120 112 L 112 112 L 112 80 L 120 80 L 120 72 Z "/>
</g>
</svg>
