<?xml version="1.0" encoding="UTF-8" standalone="no"?>
<svg
   xmlns:dc="http://purl.org/dc/elements/1.1/"
   xmlns:cc="http://creativecommons.org/ns#"
   xmlns:rdf="http://www.w3.org/1999/02/22-rdf-syntax-ns#"
   xmlns:svg="http://www.w3.org/2000/svg"
   xmlns="http://www.w3.org/2000/svg"
   xmlns:sodipodi="http://sodipodi.sourceforge.net/DTD/sodipodi-0.dtd"
   xmlns:inkscape="http://www.inkscape.org/namespaces/inkscape"
   width="128"
   height="128"
   viewBox="0 0 128 128"
   id="svg2"
   version="1.1"
   inkscape:version="0.91 r"
   sodipodi:docname="gtk-dnd-multiple.svg">
  <metadata
     id="metadata22">
    <rdf:RDF>
      <cc:Work
         rdf:about="">
        <dc:format>image/svg+xml</dc:format>
        <dc:type
           rdf:resource="http://purl.org/dc/dcmitype/StillImage" />
        <dc:title />
      </cc:Work>
    </rdf:RDF>
  </metadata>
  <defs
     id="defs20" />
  <sodipodi:namedview
     pagecolor="#ffffff"
     bordercolor="#666666"
     borderopacity="1"
     objecttolerance="10"
     gridtolerance="10"
     guidetolerance="10"
     inkscape:pageopacity="0"
     inkscape:pageshadow="2"
     inkscape:window-width="1366"
     inkscape:window-height="747"
     id="namedview18"
     showgrid="true"
     inkscape:zoom="1.84375"
     inkscape:cx="128.48379"
     inkscape:cy="134.11137"
     inkscape:window-x="0"
     inkscape:window-y="21"
     inkscape:window-maximized="1"
     inkscape:current-layer="svg2">
    <inkscape:grid
       type="xygrid"
       id="grid4176" />
  </sodipodi:namedview>
  <path
     inkscape:connector-curvature="0"
     id="path6"
     d="M 15.997603,2.0075 72.00241,2.0005 c 13.99747,0 13.99747,0 13.99747,11.5 l 0,68.99996 c 0,11.49998 0,11.49998 -13.99747,11.49998 l -56.004807,0 c -13.9974724,0 -13.9974724,0 -13.9974724,-11.5 l 0,-68.99246 c 0,-11.5 0,-11.5 13.9974724,-11.5 z"
     style="fill:#ffffff;fill-opacity:1;fill-rule:evenodd;stroke:#cfcfcf;stroke-width:4;stroke-miterlimit:4;stroke-dasharray:15.99999999, 15.99999999;stroke-dashoffset:0;stroke-opacity:1" />
  <path
     inkscape:connector-curvature="0"
     id="path6-8"
     d="m 31.997605,18.00703 56.004805,-0.007 c 13.99747,0 13.99747,0 13.99747,11.5 l 0,68.99997 c 0,11.49998 0,11.49998 -13.99747,11.49998 l -56.004805,0 c -13.997475,0 -13.997475,0 -13.997475,-11.5 l 0,-68.99247 c 0,-11.5 0,-11.5 13.997475,-11.5 z"
     style="fill:#c2c2c2;fill-opacity:1;fill-rule:evenodd;stroke:#888888;stroke-width:4;stroke-miterlimit:4;stroke-dasharray:15.99999999, 15.99999999;stroke-dashoffset:0;stroke-opacity:1" />
  <g
     transform="matrix(2,0,0,2,-23.999994,-16.00047)"
     style="opacity:1;fill:#888888;fill-opacity:1"
     id="g10-1-3">
    <path
       inkscape:connector-curvature="0"
       d="m 28,24 0,4 28,0 0,-4 z"
       id="path12-4-7"
       style="fill:#888888;fill-opacity:1" />
    <path
       inkscape:connector-curvature="0"
       d="m 28,48 0,4 16,0 0,-4 z"
       id="path14-7-8"
       style="fill:#888888;fill-opacity:1" />
    <path
       inkscape:connector-curvature="0"
       d="m 28,36 0,4 28,0 0,-4 z"
       id="path16-8-5"
       style="fill:#888888;fill-opacity:1" />
  </g>
  <path
     inkscape:connector-curvature="0"
     id="path8"
     d="m 54.66406,32 58.67188,0 C 128,32 128,32 128,44 l 0,72 c 0,12 0,12 -14.66406,12 l -58.67188,0 C 40,128 40,128 40,116 L 40,44 C 40,32 40,32 54.66406,32 Z"
     style="fill:#ffffff;fill-rule:evenodd" />
  <g
     style="fill:#888888"
     id="g10"
     transform="scale(2,2)">
    <path
       d="m 28,24 0,4 28,0 0,-4 z"
       id="path12"
       inkscape:connector-curvature="0" />
    <path
       d="m 28,48 0,4 16,0 0,-4 z"
       id="path14"
       inkscape:connector-curvature="0" />
    <path
       d="m 28,36 0,4 28,0 0,-4 z"
       id="path16"
       inkscape:connector-curvature="0" />
  </g>
</svg>
