<?xml version="1.0" encoding="UTF-8" standalone="no"?>
<svg
   xmlns:dc="http://purl.org/dc/elements/1.1/"
   xmlns:cc="http://creativecommons.org/ns#"
   xmlns:rdf="http://www.w3.org/1999/02/22-rdf-syntax-ns#"
   xmlns:svg="http://www.w3.org/2000/svg"
   xmlns="http://www.w3.org/2000/svg"
   xmlns:sodipodi="http://sodipodi.sourceforge.net/DTD/sodipodi-0.dtd"
   xmlns:inkscape="http://www.inkscape.org/namespaces/inkscape"
   width="128"
   height="128"
   viewBox="0 0 128 128"
   id="svg2"
   version="1.1"
   inkscape:version="0.91 r13725"
   sodipodi:docname="eog-image-gallery.svg">
  <metadata
     id="metadata12">
    <rdf:RDF>
      <cc:Work
         rdf:about="">
        <dc:format>image/svg+xml</dc:format>
        <dc:type
           rdf:resource="http://purl.org/dc/dcmitype/StillImage" />
        <dc:title></dc:title>
      </cc:Work>
    </rdf:RDF>
  </metadata>
  <defs
     id="defs10" />
  <sodipodi:namedview
     pagecolor="#ffffff"
     bordercolor="#666666"
     borderopacity="1"
     objecttolerance="10"
     gridtolerance="10"
     guidetolerance="10"
     inkscape:pageopacity="0"
     inkscape:pageshadow="2"
     inkscape:window-width="1366"
     inkscape:window-height="704"
     id="namedview8"
     showgrid="false"
     inkscape:zoom="1"
     inkscape:cx="-14.545046"
     inkscape:cy="48.89444"
     inkscape:window-x="0"
     inkscape:window-y="27"
     inkscape:window-maximized="1"
     inkscape:current-layer="svg2" />
  <rect
     style="opacity:1;fill:#b58900;fill-opacity:1;stroke:none;stroke-width:0.2;stroke-linecap:butt;stroke-linejoin:round;stroke-miterlimit:4;stroke-dasharray:none;stroke-opacity:0.61660061"
     id="rect4148"
     width="56"
     height="56"
     x="4"
     y="4"
     rx="5"
     ry="5" />
  <rect
     y="4"
     x="68"
     height="56"
     width="56"
     id="rect4150"
     style="opacity:1;fill:#268bd2;fill-opacity:1;stroke:none;stroke-width:0.2;stroke-linecap:butt;stroke-linejoin:round;stroke-miterlimit:4;stroke-dasharray:none;stroke-opacity:0.61660061"
     ry="5"
     rx="5" />
  <rect
     style="opacity:1;fill:#db3330;fill-opacity:1;stroke:none;stroke-width:0.2;stroke-linecap:butt;stroke-linejoin:round;stroke-miterlimit:4;stroke-dasharray:none;stroke-opacity:0.61660061"
     id="rect4152"
     width="56"
     height="56"
     x="68"
     y="68"
     ry="5"
     rx="5" />
  <rect
     y="68"
     x="4"
     height="56"
     width="56"
     id="rect4154"
     style="opacity:1;fill:#4caf50;fill-opacity:1;stroke:none;stroke-width:0.2;stroke-linecap:butt;stroke-linejoin:round;stroke-miterlimit:4;stroke-dasharray:none;stroke-opacity:0.61660061"
     ry="5"
     rx="5" />
  <path
     style="fill:#ffffff;fill-opacity:1"
     d="m 87.199992,19.999998 -11.199994,17.34376 0,14.65624 39.999992,0 0,-11.2 -8,-12.8 -7.999998,8 z"
     id="path85"
     inkscape:connector-curvature="0"
     sodipodi:nodetypes="cccccccc" />
  <path
     style="opacity:1;fill:#ffffff;fill-opacity:1;fill-rule:nonzero;stroke:none"
     d="m 31.734376,76.008 c -5.105368,0 -9.25,3.90258 -9.25,8.71876 0,0.23688 0.0096,0.48184 0.0312,0.71872 -0.71832,-0.1676 -1.44608,-0.26408 -2.187504,-0.2656 -4.494719,0.0504 -8.328151,3.91818 -8.328151,8.73438 0,3.60252 2.345256,6.82364 5.906247,8.125 -1.067528,1.45514 -1.637544,3.18262 -1.640624,4.95312 0,4.8162 4.143096,8.71722 9.25,8.71876 2.125824,-0.002 4.18068,-0.6872 5.828128,-1.95314 1.695128,1.44286 3.89708,2.24538 6.187494,2.25 5.108448,0 9.23438,-3.91512 9.23438,-8.73438 -0.0028,-1.62896 -0.491016,-3.22804 -1.406252,-4.60936 3.93324,-1.09214 6.639084,-4.49228 6.640624,-8.35938 0,-4.81772 -3.07604,-8.6526 -10.171872,-8.71874 -0.30148,0 -0.606288,0.004 -0.906252,0.0312 0.0368,-0.29688 0.05784,-0.59064 0.06248,-0.89064 0,-4.81924 -4.135396,-8.72028 -9.250002,-8.71874 z m 0.2656,13.59376 a 7.1999996,7.1999996 0 0 1 7.203122,7.20312 7.1999996,7.1999996 0 0 1 -7.203122,7.20312 7.1999996,7.1999996 0 0 1 -7.203128,-7.20312 7.1999996,7.1999996 0 0 1 7.203128,-7.20312 z"
     id="path35"
     inkscape:connector-curvature="0" />
  <path
     inkscape:connector-curvature="0"
     d="m 86.898672,95.984 c 1.272,1.56266 2.62932,3.49866 1.60532,5.57866 C 85.333332,108 75.999998,105.33334 75.999998,116 l 39.999992,0 c 0,-10.66666 -9.33334,-8 -12.504,-14.43734 -1.024,-2.08 0.6,-3.832 1.60534,-5.57866 6.112,-10.60534 1.56532,-19.986662 -9.101338,-19.986662 -10.66666,0 -15.02933,12.696002 -9.10132,19.986662 z"
     style="fill:#ffffff;fill-opacity:1"
     id="path47" />
  <path
     inkscape:connector-curvature="0"
     style="fill:#ffffff;fill-opacity:1"
     d="m 12.000001,27.999998 7.999999,0 0,24 8,0 0,-24 8,0 0,24 7.999998,0 0,-24 8,0 L 32,11.999996 Z"
     id="path6"
     sodipodi:nodetypes="cccccccccccc" />
</svg>
