<?xml version="1.0" encoding="UTF-8"?>
<svg xmlns="http://www.w3.org/2000/svg" xmlns:xlink="http://www.w3.org/1999/xlink" width="128px" height="128px" viewBox="0 0 128 128" version="1.1">
<g id="surface1">
<path style=" stroke:none;fill-rule:nonzero;fill:rgb(21.176471%,53.72549%,90.196078%);fill-opacity:1;" d="M 8 32 C 0 32 0 32 0 40 L 0 120 C 0 128 0 128 8 128 L 120 128 C 128 128 128 128 128 120 C 128 94.25 128 54.875 128 40 C 128 32 128 32 120 32 Z "/>
<path style=" stroke:none;fill-rule:nonzero;fill:rgb(100%,100%,100%);fill-opacity:0.101961;" d="M 3.5 32.054688 C 0.125 32.429688 0 34.054688 0 40.046875 L 64 80 L 128 40.046875 C 128 32.054688 128 32.054688 120 32.054688 L 8 32.054688 C 6 32.054688 4.625 31.929688 3.5 32.054688 Z "/>
<path style=" stroke:none;fill-rule:nonzero;fill:rgb(0%,0%,0%);fill-opacity:0.101961;" d="M 128 40 L 64 80 L 128 120 Z "/>
<path style=" stroke:none;fill-rule:evenodd;fill:rgb(90.980392%,36.078431%,25.490196%);fill-opacity:1;" d="M 128 32 C 128 49.671875 113.675781 64 96 64 C 78.328125 64 64 49.671875 64 32 C 64 14.328125 78.328125 0 96 0 C 113.675781 0 128 14.328125 128 32 Z "/>
<path style=" stroke:none;fill-rule:nonzero;fill:rgb(100%,100%,100%);fill-opacity:0.901961;" d="M 88 8 L 104 8 L 104 40 L 88 40 Z "/>
<path style=" stroke:none;fill-rule:nonzero;fill:rgb(100%,100%,100%);fill-opacity:0.901961;" d="M 88 48 L 104 48 L 104 56 L 88 56 Z "/>
</g>
</svg>
