<?xml version="1.0" encoding="UTF-8" standalone="no"?>
<svg
   xmlns:dc="http://purl.org/dc/elements/1.1/"
   xmlns:cc="http://creativecommons.org/ns#"
   xmlns:rdf="http://www.w3.org/1999/02/22-rdf-syntax-ns#"
   xmlns:svg="http://www.w3.org/2000/svg"
   xmlns="http://www.w3.org/2000/svg"
   xmlns:sodipodi="http://sodipodi.sourceforge.net/DTD/sodipodi-0.dtd"
   xmlns:inkscape="http://www.inkscape.org/namespaces/inkscape"
   width="128"
   height="128"
   viewBox="0 0 128 128"
   id="svg2"
   version="1.1"
   inkscape:version="0.48.5 r10040"
   sodipodi:docname="package-purge.svg">
  <metadata
     id="metadata18">
    <rdf:RDF>
      <cc:Work
         rdf:about="">
        <dc:format>image/svg+xml</dc:format>
        <dc:type
           rdf:resource="http://purl.org/dc/dcmitype/StillImage" />
      </cc:Work>
    </rdf:RDF>
  </metadata>
  <defs
     id="defs16" />
  <sodipodi:namedview
     pagecolor="#ffffff"
     bordercolor="#666666"
     borderopacity="1"
     objecttolerance="10"
     gridtolerance="10"
     guidetolerance="10"
     inkscape:pageopacity="0"
     inkscape:pageshadow="2"
     inkscape:window-width="640"
     inkscape:window-height="480"
     id="namedview14"
     showgrid="false"
     inkscape:zoom="0.921875"
     inkscape:cx="70.359222"
     inkscape:cy="89.716573"
     inkscape:window-x="0"
     inkscape:window-y="0"
     inkscape:window-maximized="0"
     inkscape:current-layer="svg2" />
  <path
     style="fill:#c19553"
     inkscape:connector-curvature="0"
     id="path6"
     d="M 8,0 C 4.515625,0 0,4.515625 0,8 l 0,104 c 0,3.29688 4.703125,8 8,8 l 104,0 c 3.29688,0 8,-4.70312 8,-8 L 120,8 c 0,-3.296875 -4.70312,-8 -8,-8 z" />
  <path
     style="fill:#ffffff;fill-opacity:0.19599998"
     inkscape:connector-curvature="0"
     id="path8"
     d="M 8,0 C 4.515625,0 0,4.515625 0,8 l 0,32 c 13.546875,0 106.45313,0 120,0 l 0,-32 c 0,-3.296875 -4.70312,-8 -8,-8 z" />
  <path
     style="fill:#ffffff;fill-opacity:0.39200003"
     inkscape:connector-curvature="0"
     id="path10"
     d="m 48,16 0,48 24,0 0,-48 z" />
  <g
     style="fill-rule:evenodd"
     id="g4"
     transform="matrix(0.50014613,0,0,0.50014613,63.710109,63.710108)">
    <path
       inkscape:connector-curvature="0"
       style="fill:#dc322f"
       d="M 128,64.007812 C 127.99609,99.351562 99.34375,128 64,128 28.65625,128 0.00390625,99.351562 0,64.007812 -0.00390625,28.660156 28.648438,0 64,0 c 35.351562,0 64.00391,28.660156 64,64.007812 z"
       id="path6-2" />
    <path
       inkscape:connector-curvature="0"
       style="fill:#ffffff;fill-opacity:0.9020004"
       d="m 32.03125,32.003906 0,10.664063 c -0.230469,2.988281 0.773438,6.042969 3.015625,8.117187 L 48.71875,64.234375 35.046875,77.683594 c -2.003906,2 -3.015625,4.824218 -3.015625,7.648437 l 0,10.667969 10.664062,0 c 2.820313,0 5.644532,-1.011719 7.648438,-3.015625 L 64.015625,79.304688 77.691406,92.984375 C 79.691406,94.988281 82.515625,96 85.339844,96 L 96,96 96,85.332031 c 0,-2.824219 -1.011719,-5.648437 -3.011719,-7.648437 L 79.542969,64.234375 93.21875,50.785156 C 95.515625,48.660156 96,45.71875 96,42.667969 l 0,-10.664063 -10.660156,0 c -2.5625,0.07422 -4.589844,1.023438 -7.417969,3.476563 L 64.015625,48.929688 50.34375,35.480469 c -1.890625,-1.957031 -4.472656,-3.359375 -7.1875,-3.476563 -0.109375,-0.0078 -0.351562,-0.0039 -0.460938,0 z"
       id="path8-4" />
  </g>
</svg>
