<?xml version="1.0" encoding="UTF-8" standalone="no"?>
<svg
   xmlns:dc="http://purl.org/dc/elements/1.1/"
   xmlns:cc="http://creativecommons.org/ns#"
   xmlns:rdf="http://www.w3.org/1999/02/22-rdf-syntax-ns#"
   xmlns:svg="http://www.w3.org/2000/svg"
   xmlns="http://www.w3.org/2000/svg"
   xmlns:sodipodi="http://sodipodi.sourceforge.net/DTD/sodipodi-0.dtd"
   xmlns:inkscape="http://www.inkscape.org/namespaces/inkscape"
   width="128"
   height="128"
   viewBox="0 0 128 128"
   id="svg2"
   version="1.1"
   inkscape:version="0.91 r"
   sodipodi:docname="x-clementine-artist.svg">
  <metadata
     id="metadata12">
    <rdf:RDF>
      <cc:Work
         rdf:about="">
        <dc:format>image/svg+xml</dc:format>
        <dc:type
           rdf:resource="http://purl.org/dc/dcmitype/StillImage" />
        <dc:title></dc:title>
      </cc:Work>
    </rdf:RDF>
  </metadata>
  <defs
     id="defs10" />
  <sodipodi:namedview
     pagecolor="#ffffff"
     bordercolor="#666666"
     borderopacity="1"
     objecttolerance="10"
     gridtolerance="10"
     guidetolerance="10"
     inkscape:pageopacity="0"
     inkscape:pageshadow="2"
     inkscape:window-width="1547"
     inkscape:window-height="876"
     id="namedview8"
     showgrid="false"
     inkscape:zoom="1.84375"
     inkscape:cx="-22.237288"
     inkscape:cy="64"
     inkscape:window-x="53"
     inkscape:window-y="24"
     inkscape:window-maximized="1"
     inkscape:current-layer="svg2" />
  <path
     style="fill:#6c71c4"
     d="m 32.363392,18.257705 c -5.049166,18.105362 -5.162763,43.171622 3.846611,55.53483 3.787854,5.863247 8.954534,13.578045 4.904232,20.597535 -7.489531,10.94916 -19.969471,16.85928 -31.3330323,22.82409 -3.8622797,0.39843 -2.4677854,4.0156 -2.7263147,6.67965 -0.00392,2.12108 -0.6306569,4.89059 2.4521158,3.89841 l 108.9859962,0 c 3.08277,0.99218 2.45603,-1.77733 2.45212,-3.89841 -0.25854,-2.66405 1.13596,-6.28122 -2.72631,-6.67965 C 106.85525,111.24935 94.375299,105.33923 86.885768,94.39007 82.835468,87.37058 88.006064,79.655782 91.790002,73.792535 101.3086,60.331676 102.54641,31.046693 95.605275,17.843645 89.333968,6.3984005 82.999986,0.44140359 64.001961,1.9332242e-7 44.96868,0.77343364 38.666036,6.3984005 32.363392,18.257705 Z"
     id="path4"
     inkscape:connector-curvature="0" />
</svg>
