<?xml version="1.0" encoding="UTF-8"?>
<svg xmlns="http://www.w3.org/2000/svg" xmlns:xlink="http://www.w3.org/1999/xlink" width="128px" height="128px" viewBox="0 0 128 128" version="1.1">
<g id="surface1">
<path style=" stroke:none;fill-rule:nonzero;fill:rgb(21.176471%,53.72549%,90.196078%);fill-opacity:1;" d="M 25.230469 8 L 102.769531 8 C 112.285156 8 120 15.714844 120 25.230469 L 120 102.765625 C 120 112.285156 112.285156 120 102.769531 120 L 25.230469 120 C 15.714844 120 8 112.285156 8 102.765625 L 8 25.230469 C 8 15.714844 15.714844 8 25.230469 8 Z "/>
<path style=" stroke:none;fill-rule:nonzero;fill:rgb(100%,100%,100%);fill-opacity:0.901961;" d="M 24 48 L 24 80 C 50.746094 80 78.996094 80 104 80 L 104 48 C 74.078125 48 52.847656 48 24 48 Z M 96 56 L 96 72 C 74.582031 72 50.761719 72 32 72 L 32 56 C 54.667969 56 73.441406 56 96 56 Z "/>
</g>
</svg>
