<svg width="48" xmlns="http://www.w3.org/2000/svg" height="48" viewBox="0 0 48 48" xmlns:xlink="http://www.w3.org/1999/xlink">
<path style="fill:#fff" d="M 10 6 C 4 6 4 10 4 11.929688 L 4 46 L 44 46 L 44 12 C 44 10 44 6 38 6 Z "/>
<path style="fill:#888" d="M 10 6 C 4 6 4 10 4 11.929688 L 4 46 L 44 46 L 44 12 C 44 10 44 6 38 6 Z M 10 8 L 38 8 C 42 8 42.125 10.003906 42 12 L 42 44 L 6 44 L 6 12 C 6 10 6 8 10 8 Z "/>
<path style="fill:#000;fill-opacity:.102" d="M 6 20 L 18 20 L 18 44 L 6 44 Z "/>
<g style="fill:#888;fill-opacity:.902">
<path d="M 6 18 L 6 20 L 42 20 L 42 18 Z "/>
<path d="M 18 20 L 18 44 L 20 44 L 20 20 Z "/>
</g>
<path style="fill:#859900" d="M 48 32 L 40 32 L 40 23.25 L 32 23.316406 L 32 32 L 24 32 L 24 40 L 32 40 L 32 48 L 40 48 L 40 40 L 48 40 Z "/>
</svg>
