<?xml version="1.0" encoding="UTF-8" standalone="no"?>
<svg
   xmlns:dc="http://purl.org/dc/elements/1.1/"
   xmlns:cc="http://creativecommons.org/ns#"
   xmlns:rdf="http://www.w3.org/1999/02/22-rdf-syntax-ns#"
   xmlns:svg="http://www.w3.org/2000/svg"
   xmlns="http://www.w3.org/2000/svg"
   xmlns:xlink="http://www.w3.org/1999/xlink"
   xmlns:sodipodi="http://sodipodi.sourceforge.net/DTD/sodipodi-0.dtd"
   xmlns:inkscape="http://www.inkscape.org/namespaces/inkscape"
   width="16"
   height="16"
   viewBox="0 0 16 16"
   id="svg2"
   version="1.1"
   inkscape:version="0.91 r"
   sodipodi:docname="ac-adapter.svg">
  <metadata
     id="metadata10">
    <rdf:RDF>
      <cc:Work
         rdf:about="">
        <dc:format>image/svg+xml</dc:format>
        <dc:type
           rdf:resource="http://purl.org/dc/dcmitype/StillImage" />
        <dc:title></dc:title>
      </cc:Work>
    </rdf:RDF>
  </metadata>
  <defs
     id="defs8">
    <linearGradient
       inkscape:collect="always"
       xlink:href="#linearGradient3784"
       id="linearGradient3790"
       x1="22.454058"
       y1="-7"
       x2="22.454058"
       y2="23"
       gradientUnits="userSpaceOnUse" />
    <linearGradient
       id="linearGradient3784">
      <stop
         style="stop-color:#839496;stop-opacity:1;"
         offset="0"
         id="stop3786" />
      <stop
         style="stop-color:#667678;stop-opacity:1;"
         offset="1"
         id="stop3788" />
    </linearGradient>
  </defs>
  <sodipodi:namedview
     pagecolor="#ffffff"
     bordercolor="#666666"
     borderopacity="1"
     objecttolerance="10"
     gridtolerance="10"
     guidetolerance="10"
     inkscape:pageopacity="0"
     inkscape:pageshadow="2"
     inkscape:window-width="1366"
     inkscape:window-height="747"
     id="namedview6"
     showgrid="true"
     inkscape:zoom="20.85965"
     inkscape:cx="16.963388"
     inkscape:cy="9.9705282"
     inkscape:window-x="0"
     inkscape:window-y="21"
     inkscape:window-maximized="1"
     inkscape:current-layer="svg2"
     borderlayer="true">
    <inkscape:grid
       type="xygrid"
       id="grid3010" />
  </sodipodi:namedview>
  <path
     id="path4164"
     style="fill:#909ea9;fill-opacity:1"
     d="m 9.9710756,12.20263 0,2.316744 c 0,0.191818 -0.151822,0.34464 -0.3423822,0.34464 l -0.551616,0 c -0.1905605,0 -0.342382,-0.152822 -0.342382,-0.34464 l 0,-2.316744 -1.4693905,0 0,2.316744 c 0,0.191818 -0.151822,0.34464 -0.3423825,0.34464 l -0.5516155,0 c -0.1905605,0 -0.3423825,-0.152822 -0.3423825,-0.34464 l 0,-2.316744 z"
     inkscape:connector-curvature="0"
     sodipodi:nodetypes="cssssccsssscc" />
  <path
     id="path4164-3"
     style="fill:#20262b;fill-opacity:1"
     d="m 1.0462905,1.1361806 c 0.110771,0.004 0.2144156,0.036623 0.2995855,0.081373 0.113556,0.059666 0.1941882,0.1441157 0.2282547,0.2536931 0.150651,0.4845768 0.4519015,0.932179 0.8464442,1.2397455 0.5728052,0.4778591 1.425187,0.6485322 2.3110798,0.8807464 0.4464158,0.1082222 0.9117563,0.2332813 1.3790398,0.4212261 0.469244,0.1866091 0.928706,0.4540978 1.326732,0.8328793 0.4426496,0.4289175 0.7629931,0.9798525 0.9130185,1.5795995 0.049085,0.197461 0.078081,0.396326 0.090351,0.598333 l 1.4741446,0 c 0.8879654,0 1.6025404,0.719286 1.6025404,1.613104 l 0,3.4894785 -7.0758999,0 0,-3.4894785 c 0,-0.893818 0.7145758,-1.613104 1.6025393,-1.613104 l 1.2696675,0 C 7.303663,6.9142888 7.292743,6.8040718 7.266233,6.6982833 7.169098,6.3068708 6.9563365,5.9388218 6.667063,5.6595773 6.4101385,5.4046698 6.0653296,5.2122798 5.692225,5.0564573 5.3171371,4.9019607 4.9015412,4.796354 4.4653558,4.6878846 3.5861604,4.4867431 2.5964563,4.2423129 1.7358083,3.5965251 1.1547475,3.139343 0.72631452,2.5096707 0.50893802,1.8063134 c -0.049155,-0.1590502 -0.02332,-0.324297 0.057064,-0.4451596 0.080385,-0.1208627 0.21276995,-0.1948411 0.36615895,-0.2153999 0.03835,-0.00514 0.077203,-0.010907 0.11412953,-0.00957 z"
     inkscape:connector-curvature="0"
     sodipodi:nodetypes="cssccccccssccssccccccsscc" />
</svg>
