<?xml version="1.0" encoding="UTF-8" standalone="no"?>
<svg
   xmlns:dc="http://purl.org/dc/elements/1.1/"
   xmlns:cc="http://creativecommons.org/ns#"
   xmlns:rdf="http://www.w3.org/1999/02/22-rdf-syntax-ns#"
   xmlns:svg="http://www.w3.org/2000/svg"
   xmlns="http://www.w3.org/2000/svg"
   xmlns:sodipodi="http://sodipodi.sourceforge.net/DTD/sodipodi-0.dtd"
   xmlns:inkscape="http://www.inkscape.org/namespaces/inkscape"
   viewBox="0 0 16 16"
   id="svg2"
   version="1.1"
   inkscape:version="0.91 r"
   sodipodi:docname="stock_mic.svg"
   width="16"
   height="16">
  <metadata
     id="metadata26">
    <rdf:RDF>
      <cc:Work
         rdf:about="">
        <dc:format>image/svg+xml</dc:format>
        <dc:type
           rdf:resource="http://purl.org/dc/dcmitype/StillImage" />
        <dc:title />
      </cc:Work>
    </rdf:RDF>
  </metadata>
  <defs
     id="defs24" />
  <sodipodi:namedview
     pagecolor="#ffffff"
     bordercolor="#666666"
     borderopacity="1"
     objecttolerance="10"
     gridtolerance="10"
     guidetolerance="10"
     inkscape:pageopacity="0"
     inkscape:pageshadow="2"
     inkscape:window-width="1920"
     inkscape:window-height="1056"
     id="namedview22"
     showgrid="true"
     inkscape:zoom="15.999999"
     inkscape:cx="11.309875"
     inkscape:cy="8.6992996"
     inkscape:window-x="0"
     inkscape:window-y="24"
     inkscape:window-maximized="1"
     inkscape:current-layer="svg2">
    <inkscape:grid
       type="xygrid"
       id="grid4165" />
  </sodipodi:namedview>
  <rect
     style="opacity:1;fill:#d6d6d6;fill-opacity:1;fill-rule:nonzero;stroke:none;stroke-width:0.1;stroke-linecap:butt;stroke-linejoin:miter;stroke-miterlimit:4;stroke-dasharray:none;stroke-dashoffset:0;stroke-opacity:1"
     id="rect4167"
     width="6"
     height="11"
     x="5"
     y="0"
     rx="3.5"
     ry="3.5" />
  <path
     style="opacity:1;fill:#373737;fill-opacity:1;fill-rule:nonzero;stroke:none;stroke-width:2;stroke-linecap:round;stroke-linejoin:miter;stroke-miterlimit:4;stroke-dasharray:none;stroke-dashoffset:0;stroke-opacity:1"
     inkscape:transform-center-x="-0.0038265024"
     inkscape:transform-center-y="0.16538146"
     d="M 5,8.0025696 3.5,9 3.51148,8 Z"
     id="path4171"
     inkscape:connector-curvature="0"
     sodipodi:nodetypes="cccc" />
  <path
     sodipodi:nodetypes="cccc"
     inkscape:connector-curvature="0"
     id="path4156"
     d="M 11,8.0025696 12.5,9 12.48852,8 Z"
     inkscape:transform-center-y="0.16538146"
     inkscape:transform-center-x="0.0038265024"
     style="opacity:1;fill:#373737;fill-opacity:1;fill-rule:nonzero;stroke:none;stroke-width:2;stroke-linecap:round;stroke-linejoin:miter;stroke-miterlimit:4;stroke-dasharray:none;stroke-dashoffset:0;stroke-opacity:1" />
  <path
     style="color:#000000;font-style:normal;font-variant:normal;font-weight:normal;font-stretch:normal;font-size:medium;line-height:normal;font-family:sans-serif;text-indent:0;text-align:start;text-decoration:none;text-decoration-line:none;text-decoration-style:solid;text-decoration-color:#000000;letter-spacing:normal;word-spacing:normal;text-transform:none;direction:ltr;block-progression:tb;writing-mode:lr-tb;baseline-shift:baseline;text-anchor:start;white-space:normal;clip-rule:nonzero;display:inline;overflow:visible;visibility:visible;opacity:1;isolation:auto;mix-blend-mode:normal;color-interpolation:sRGB;color-interpolation-filters:linearRGB;solid-color:#000000;solid-opacity:1;fill:#547181;fill-opacity:1;fill-rule:nonzero;stroke:none;stroke-width:2;stroke-linecap:round;stroke-linejoin:miter;stroke-miterlimit:4;stroke-dasharray:none;stroke-dashoffset:0;stroke-opacity:1;color-rendering:auto;image-rendering:auto;shape-rendering:auto;text-rendering:auto;enable-background:accumulate"
     d="M 3.5900816,7.4768519 A 0.44025567,0.44025566 0 0 0 3.1572112,7.9236111 c 0,1.729376 0.923684,3.3297449 2.4212963,4.1944439 0.6039049,0.348686 1.265768,0.550583 1.9375001,0.618056 C 7.2751248,14.229261 6.3526709,15.196699 5.3586002,16 l 5.2824078,0 C 9.6469371,15.196699 8.7244828,14.229261 8.4836001,12.736111 c 0.6717322,-0.06747 1.333595,-0.26937 1.9374999,-0.618056 1.497612,-0.864699 2.421296,-2.4650679 2.421297,-4.1944439 a 0.44025567,0.44025566 0 1 0 -0.87963,0 c 0,1.416262 -0.755055,2.7224359 -1.9814819,3.4305559 -1.226427,0.70812 -2.7365367,0.70812 -3.9629627,0 C 4.791896,10.646047 4.0368409,9.3398731 4.0368409,7.9236111 A 0.44025567,0.44025566 0 0 0 3.5900816,7.4768519 Z"
     id="path4169"
     inkscape:connector-curvature="0" />
  <path
     style="opacity:1;fill:#547181;fill-opacity:1;fill-rule:nonzero;stroke:none;stroke-width:0.1;stroke-linecap:butt;stroke-linejoin:miter;stroke-miterlimit:4;stroke-dasharray:none;stroke-dashoffset:0;stroke-opacity:1"
     d="M 5 7.3007812 L 5 7.5 C 5 9.439 6.338 11 8 11 C 9.662 11 11 9.439 11 7.5 L 11 7.3007812 L 5 7.3007812 z "
     id="rect4148" />
  <path
     style="opacity:1;fill:#373737;fill-opacity:1;fill-rule:nonzero;stroke:none;stroke-width:2;stroke-linecap:round;stroke-linejoin:miter;stroke-miterlimit:4;stroke-dasharray:none;stroke-dashoffset:0;stroke-opacity:1"
     d="M 5 7 L 5 7.5 C 5 7.6714077 5.0227574 7.8353173 5.0429688 8 L 10.957031 8 C 10.977243 7.8353173 11 7.6714077 11 7.5 L 11 7 L 5 7 z "
     id="rect4181" />
  <path
     style="opacity:0.2;fill:#ffffff;fill-opacity:1;fill-rule:nonzero;stroke:none;stroke-width:0.1;stroke-linecap:butt;stroke-linejoin:miter;stroke-miterlimit:4;stroke-dasharray:none;stroke-dashoffset:0;stroke-opacity:1"
     d="M 8 0 L 8 11 C 8.3530299 11 8.6859254 10.916634 9 10.787109 L 9 0.21289062 C 8.6859254 0.083366378 8.3530299 0 8 0 z "
     id="rect4211" />
  <path
     style="opacity:0.2;fill:#ffffff;fill-opacity:1;fill-rule:nonzero;stroke:none;stroke-width:0.1;stroke-linecap:butt;stroke-linejoin:miter;stroke-miterlimit:4;stroke-dasharray:none;stroke-dashoffset:0;stroke-opacity:1"
     d="M 9 11.755859 C 8.6723135 11.841311 8.3360953 11.884766 8 11.884766 L 8 16 L 9 16 L 9 14.193359 C 8.7555799 13.766886 8.5733992 13.288159 8.484375 12.736328 C 8.6576093 12.718928 8.8289033 12.691743 9 12.65625 L 9 11.755859 z "
     id="path4184" />
  <path
     style="opacity:1;fill:#828282;fill-opacity:1;fill-rule:nonzero;stroke:none;stroke-width:1.5;stroke-linecap:round;stroke-linejoin:miter;stroke-miterlimit:4;stroke-dasharray:none;stroke-dashoffset:0;stroke-opacity:1"
     d="M 5 5 L 5 6 L 6 6 C 6.554 6 7 5.777 7 5.5 C 7 5.223 6.554 5 6 5 L 5 5 z "
     id="rect4162" />
  <path
     style="opacity:1;fill:#828282;fill-opacity:1;fill-rule:nonzero;stroke:none;stroke-width:1.5;stroke-linecap:round;stroke-linejoin:miter;stroke-miterlimit:4;stroke-dasharray:none;stroke-dashoffset:0;stroke-opacity:1"
     d="M 5.0429688 3 C 5.0227574 3.1646827 5 3.3285923 5 3.5 L 5 4 L 6 4 C 6.554 4 7 3.777 7 3.5 C 7 3.223 6.554 3 6 3 L 5.0429688 3 z "
     id="rect4174" />
  <path
     id="path4182"
     d="m 11,5 0,1 -1,0 C 9.446,6 9,5.777 9,5.5 9,5.223 9.446,5 10,5 l 1,0 z"
     style="opacity:1;fill:#828282;fill-opacity:1;fill-rule:nonzero;stroke:none;stroke-width:1.5;stroke-linecap:round;stroke-linejoin:miter;stroke-miterlimit:4;stroke-dasharray:none;stroke-dashoffset:0;stroke-opacity:1"
     inkscape:connector-curvature="0" />
  <path
     id="path4185"
     d="M 10.957031,3 C 10.977243,3.1646827 11,3.3285923 11,3.5 L 11,4 10,4 C 9.446,4 9,3.777 9,3.5 9,3.223 9.446,3 10,3 l 0.957031,0 z"
     style="opacity:1;fill:#828282;fill-opacity:1;fill-rule:nonzero;stroke:none;stroke-width:1.5;stroke-linecap:round;stroke-linejoin:miter;stroke-miterlimit:4;stroke-dasharray:none;stroke-dashoffset:0;stroke-opacity:1"
     inkscape:connector-curvature="0" />
</svg>
