<svg width="16" xmlns="http://www.w3.org/2000/svg" height="16" viewBox="0 0 16 16" xmlns:xlink="http://www.w3.org/1999/xlink">
<g style="fill:#8f9da9">
<path d="M 7.917969 0 C 3.542969 0 0 3.542969 0 7.917969 C 0 12.289062 3.542969 15.832031 7.917969 15.832031 C 12.289062 15.832031 15.832031 12.289062 15.832031 7.917969 C 15.832031 3.542969 12.289062 0 7.917969 0 Z M 7.917969 4.949219 C 9.554688 4.949219 10.886719 6.277344 10.886719 7.917969 C 10.886719 9.554688 9.554688 10.886719 7.917969 10.886719 C 6.277344 10.886719 4.949219 9.554688 4.949219 7.917969 C 4.949219 6.277344 6.277344 4.949219 7.917969 4.949219 Z "/>
<path d="M 7.917969 5.9375 C 6.824219 5.9375 5.9375 6.824219 5.9375 7.917969 C 5.9375 9.011719 6.824219 9.894531 7.917969 9.894531 C 9.011719 9.894531 9.894531 9.011719 9.894531 7.917969 C 9.894531 6.824219 9.011719 5.9375 7.917969 5.9375 Z M 7.917969 6.925781 C 8.464844 6.925781 8.90625 7.371094 8.90625 7.917969 C 8.90625 8.464844 8.464844 8.90625 7.917969 8.90625 C 7.371094 8.90625 6.925781 8.464844 6.925781 7.917969 C 6.925781 7.371094 7.371094 6.925781 7.917969 6.925781 Z "/>
</g>
</svg>
