<?xml version="1.0" encoding="UTF-8" standalone="no"?>
<svg
   xmlns:dc="http://purl.org/dc/elements/1.1/"
   xmlns:cc="http://creativecommons.org/ns#"
   xmlns:rdf="http://www.w3.org/1999/02/22-rdf-syntax-ns#"
   xmlns:svg="http://www.w3.org/2000/svg"
   xmlns="http://www.w3.org/2000/svg"
   xmlns:sodipodi="http://sodipodi.sourceforge.net/DTD/sodipodi-0.dtd"
   xmlns:inkscape="http://www.inkscape.org/namespaces/inkscape"
   width="16"
   height="16"
   viewBox="0 0 16 16"
   id="svg1007"
   version="1.1"
   inkscape:version="0.91 r"
   sodipodi:docname="media-jaz.svg">
  <metadata
     id="metadata1023">
    <rdf:RDF>
      <cc:Work
         rdf:about="">
        <dc:format>image/svg+xml</dc:format>
        <dc:type
           rdf:resource="http://purl.org/dc/dcmitype/StillImage" />
      </cc:Work>
    </rdf:RDF>
  </metadata>
  <defs
     id="defs1021" />
  <sodipodi:namedview
     pagecolor="#ffffff"
     bordercolor="#666666"
     borderopacity="1"
     objecttolerance="10"
     gridtolerance="10"
     guidetolerance="10"
     inkscape:pageopacity="0"
     inkscape:pageshadow="2"
     inkscape:window-width="640"
     inkscape:window-height="480"
     id="namedview1019" />
  <g
     style="fill:#909ea9"
     id="g1009">
    <path
       d="M 4.5 2.667969 C 4.460938 2.671875 4.421875 2.6875 4.386719 2.707031 L 2.824219 3.675781 C 2.726562 3.738281 2.667969 3.847656 2.667969 3.957031 L 2.667969 12.675781 C 2.667969 12.851562 2.824219 13.011719 3 13.011719 L 4.230469 13.011719 C 4.234375 13.179688 4.390625 13.332031 4.5625 13.332031 L 11.4375 13.332031 C 11.609375 13.332031 11.765625 13.179688 11.769531 13.011719 L 13 13.011719 C 13.175781 13.011719 13.332031 12.851562 13.332031 12.675781 L 13.332031 3.957031 C 13.332031 3.847656 13.273438 3.738281 13.175781 3.675781 L 11.613281 2.707031 C 11.5625 2.679688 11.5 2.664062 11.4375 2.667969 L 4.5625 2.667969 C 4.542969 2.664062 4.519531 2.664062 4.5 2.667969 Z M 4.667969 3.332031 L 11.667969 3.332031 L 12.667969 4 L 12.667969 12.332031 L 11.667969 12.332031 L 11.667969 9 L 4.332031 9 L 4.332031 12.332031 L 3.332031 12.332031 L 3.332031 4 Z M 4.667969 10.332031 L 11.332031 10.332031 L 11.332031 10.667969 L 4.667969 10.667969 Z M 4.667969 11.667969 L 11.332031 11.667969 L 11.332031 12 L 4.667969 12 Z "
       id="path1011" />
    <path
       d="M 7.5 3 L 6.332031 3 L 6.332031 4 L 11 4 L 11 3 Z "
       id="path1013" />
    <path
       d="M 4.667969 8.332031 L 4.667969 6 L 9.332031 6 L 9.332031 8.332031 Z "
       id="path1015" />
    <path
       d="M 10 6 L 10 8.332031 L 11.332031 8.332031 L 11.332031 6 Z "
       id="path1017" />
  </g>
</svg>
