<svg width="24" xmlns="http://www.w3.org/2000/svg" height="24" viewBox="0 0 24 24" xmlns:xlink="http://www.w3.org/1999/xlink">
<path style="fill:#dcdcdc" d="M 4 0.5 C 3.484375 0.5 3 0.984375 3 1.5 L 3 22.5 C 3 22.984375 3.515625 23.5 4 23.5 L 20 23.5 C 20.484375 23.5 21 22.984375 21 22.5 L 21 1.5 C 21 0.984375 20.515625 0.5 20 0.5 Z "/>
<g style="fill:#888">
<path d="M 7 8 L 7 8.5 L 17 8.5 L 17 8 Z "/>
<path d="M 7 9 L 7 9.5 L 17 9.5 L 17 9 Z "/>
<path d="M 7 10 L 7 10.5 L 17 10.5 L 17 10 Z "/>
<path d="M 7 11 L 7 11.5 L 17 11.5 L 17 11 Z "/>
<path d="M 7 12 L 7 12.5 L 17 12.5 L 17 12 Z "/>
<path d="M 7 13 L 7 13.5 L 17 13.5 L 17 13 Z "/>
<path d="M 7 14 L 7 14.5 L 17 14.5 L 17 14 Z "/>
<path d="M 7 15 L 7 15.5 L 17 15.5 L 17 15 Z "/>
<path d="M 7 16 L 7 16.5 L 17 16.5 L 17 16 Z "/>
</g>
</svg>
