<svg width="24" xmlns="http://www.w3.org/2000/svg" height="24" viewBox="0 0 24 24" xmlns:xlink="http://www.w3.org/1999/xlink">
<path style="fill:#7099c3" d="M 4 0.5 C 3.484375 0.5 3 0.984375 3 1.5 L 3 22.5 C 3 22.984375 3.515625 23.5 4 23.5 L 20 23.5 C 20.484375 23.5 21 22.984375 21 22.5 L 21 7 L 14.5 0.5 Z "/>
<path style="fill:#000;fill-opacity:.196" d="M 14.5 6 L 14.53125 6.03125 L 14.609375 6 Z M 15.5 7 L 21 12.5 L 21 7 Z "/>
<path style="fill:#fff;fill-opacity:.392" d="M 14.5 0.5 L 21 7 L 15.5 7 C 15.015625 7 14.5 6.484375 14.5 6 Z "/>
<path style="fill:#000;fill-opacity:.196" d="M 3 17.5 L 3 22.5 C 3 22.984375 3.515625 23.5 4 23.5 L 20 23.5 C 20.484375 23.5 21 22.984375 21 22.5 L 21 17.5 Z "/>
<g style="fill:#fff">
<path d="M 8.316406 9.953125 L 8.316406 10.773438 L 15.683594 10.773438 L 15.683594 9.953125 Z "/>
<path d="M 7.910156 11.589844 L 7.910156 12.410156 L 16.089844 12.410156 L 16.089844 11.589844 Z "/>
<path d="M 8.316406 13.226562 L 8.316406 14.046875 L 15.683594 14.046875 L 15.683594 13.226562 Z "/>
<path d="M 11.589844 7.910156 L 11.589844 16.089844 L 12.410156 16.089844 L 12.410156 7.910156 Z "/>
</g>
<g style="stroke:#fff;fill:none">
<g style="stroke-width:2">
<path d="M 20.438427 33.00458 C 18.442738 26.998417 18.442738 21.001803 20.438427 14.99564 " transform="matrix(.40908 0 0 .40908 2.18192 2.18192)"/>
<path d="M 27.466306 33.00458 C 29.471543 28.001036 29.471543 21.001803 27.466306 14.99564 " transform="matrix(.40908 0 0 .40908 2.18192 2.18192)"/>
</g>
<path style="stroke-linecap:round;stroke-width:1.821" d="M 33.055052 27.317192 C 33.055052 32.341843 28.977956 36.418938 23.953306 36.418938 C 18.928655 36.418938 14.851559 32.341843 14.851559 27.317192 C 14.851559 22.292541 18.928655 18.215446 23.953306 18.215446 C 28.977956 18.215446 33.055052 22.292541 33.055052 27.317192 Z " transform="matrix(.44935 0 0 .44935 1.23665 -.2749)"/>
</g>
<g style="fill:#fff">
<path d="M 7.875 20.5 C 7.875 20.6875 7.882812 20.859375 7.894531 21.027344 C 7.914062 21.1875 7.949219 21.328125 7.996094 21.445312 C 8.046875 21.566406 8.117188 21.660156 8.203125 21.730469 C 8.292969 21.800781 8.414062 21.835938 8.5625 21.835938 C 8.707031 21.835938 8.824219 21.800781 8.910156 21.730469 C 9.003906 21.660156 9.074219 21.566406 9.121094 21.445312 C 9.171875 21.324219 9.207031 21.179688 9.21875 21.019531 C 9.238281 20.859375 9.246094 20.6875 9.246094 20.5 C 9.246094 20.3125 9.238281 20.140625 9.21875 19.980469 C 9.207031 19.816406 9.171875 19.671875 9.121094 19.550781 C 9.074219 19.433594 9.007812 19.335938 8.917969 19.269531 C 8.828125 19.199219 8.710938 19.164062 8.5625 19.164062 C 8.414062 19.164062 8.292969 19.199219 8.203125 19.269531 C 8.117188 19.335938 8.046875 19.433594 7.996094 19.558594 C 7.949219 19.679688 7.914062 19.820312 7.894531 19.980469 C 7.882812 20.140625 7.875 20.3125 7.875 20.5 M 7 20.5 C 7 19.839844 7.136719 19.34375 7.414062 19.007812 C 7.6875 18.667969 8.070312 18.5 8.5625 18.5 C 9.070312 18.5 9.457031 18.667969 9.722656 19.007812 C 9.988281 19.34375 10.125 19.839844 10.125 20.5 C 10.125 21.160156 9.988281 21.660156 9.71875 22 C 9.445312 22.332031 9.0625 22.5 8.570312 22.5 C 8.058594 22.5 7.667969 22.332031 7.398438 22 C 7.132812 21.660156 7 21.160156 7 20.5 "/>
<path d="M 11.550781 21.800781 C 11.574219 21.804688 11.601562 21.804688 11.628906 21.804688 C 11.65625 21.804688 11.683594 21.804688 11.707031 21.804688 C 11.902344 21.804688 12.066406 21.773438 12.195312 21.707031 C 12.332031 21.640625 12.4375 21.550781 12.519531 21.433594 C 12.601562 21.320312 12.660156 21.183594 12.691406 21.027344 C 12.730469 20.863281 12.75 20.691406 12.75 20.5 C 12.75 20.335938 12.734375 20.171875 12.707031 20.015625 C 12.679688 19.859375 12.628906 19.722656 12.558594 19.601562 C 12.488281 19.480469 12.394531 19.386719 12.273438 19.316406 C 12.152344 19.242188 11.996094 19.207031 11.804688 19.207031 C 11.765625 19.207031 11.722656 19.207031 11.679688 19.210938 C 11.632812 19.210938 11.589844 19.214844 11.550781 19.222656 L 11.550781 21.800781 M 13.625 20.5 C 13.625 20.855469 13.574219 21.160156 13.46875 21.410156 C 13.371094 21.65625 13.234375 21.859375 13.058594 22.015625 C 12.878906 22.171875 12.667969 22.289062 12.421875 22.363281 C 12.175781 22.433594 11.910156 22.46875 11.613281 22.46875 C 11.460938 22.46875 11.308594 22.460938 11.160156 22.445312 C 11.015625 22.433594 10.859375 22.410156 10.691406 22.375 L 10.691406 18.636719 C 10.886719 18.597656 11.070312 18.574219 11.242188 18.5625 C 11.417969 18.550781 11.578125 18.542969 11.726562 18.542969 C 12.011719 18.542969 12.269531 18.582031 12.503906 18.65625 C 12.742188 18.730469 12.941406 18.847656 13.105469 19.007812 C 13.269531 19.164062 13.394531 19.367188 13.484375 19.613281 C 13.578125 19.859375 13.625 20.152344 13.625 20.5 "/>
<path d="M 17 18.585938 L 17 22.417969 L 16.136719 22.417969 L 16.136719 20.730469 L 14.988281 20.730469 L 14.988281 22.417969 L 14.128906 22.417969 L 14.128906 18.585938 L 14.988281 18.585938 L 14.988281 20.097656 L 16.136719 20.097656 L 16.136719 18.585938 L 17 18.585938 "/>
</g>
</svg>
