<svg width="24" xmlns="http://www.w3.org/2000/svg" height="24" viewBox="0 0 24 24" xmlns:xlink="http://www.w3.org/1999/xlink">
<path style="fill:#38a34e" d="M 4 0.5 C 3.484375 0.5 3 0.984375 3 1.5 L 3 22.5 C 3 22.984375 3.515625 23.5 4 23.5 L 20 23.5 C 20.484375 23.5 21 22.984375 21 22.5 L 21 7 L 14.5 0.5 Z "/>
<path style="fill:#000;fill-opacity:.196" d="M 14.5 6 L 14.53125 6.03125 L 14.609375 6 Z M 15.5 7 L 21 12.5 L 21 7 Z "/>
<path style="fill:#fff;fill-opacity:.392" d="M 14.5 0.5 L 21 7 L 15.5 7 C 15.015625 7 14.5 6.484375 14.5 6 Z "/>
<path style="fill:#000;fill-opacity:.196" d="M 3 17.5 L 3 22.5 C 3 22.984375 3.515625 23.5 4 23.5 L 20 23.5 C 20.484375 23.5 21 22.984375 21 22.5 L 21 17.5 Z "/>
<g style="fill:#fff">
<path d="M 8.519531 8 C 8.234375 8.027344 7.996094 8.324219 8 8.640625 L 8 15.375 C 8.003906 15.707031 8.269531 16.003906 8.566406 16 L 15.449219 16 C 15.742188 15.996094 15.996094 15.703125 16 15.375 L 16 8.640625 C 16.003906 8.308594 15.746094 8.003906 15.449219 8 Z M 9.003906 9 L 14.996094 9 L 14.996094 13.296875 C 14.953125 13.246094 14.929688 13.226562 14.886719 13.171875 C 14.441406 12.636719 13.929688 12.003906 13.316406 11.234375 C 13.195312 11.355469 13.046875 11.503906 12.847656 11.6875 C 12.644531 11.871094 12.40625 12.09375 12.125 12.34375 C 12.089844 12.382812 11.949219 12.234375 11.6875 11.90625 C 11.417969 11.578125 11.050781 11.074219 10.558594 10.375 C 9.894531 11.0625 9.417969 11.550781 9.003906 11.96875 Z "/>
<path d="M 9.015625 19.195312 C 8.808594 19.195312 8.632812 19.226562 8.492188 19.292969 C 8.351562 19.359375 8.230469 19.453125 8.136719 19.570312 C 8.046875 19.6875 7.980469 19.828125 7.941406 19.992188 C 7.902344 20.152344 7.882812 20.332031 7.882812 20.53125 C 7.882812 20.988281 7.964844 21.328125 8.128906 21.546875 C 8.296875 21.761719 8.539062 21.867188 8.859375 21.867188 C 8.910156 21.867188 8.96875 21.867188 9.027344 21.863281 C 9.089844 21.859375 9.144531 21.851562 9.199219 21.84375 L 9.199219 20.445312 L 10.066406 20.445312 L 10.066406 22.359375 C 9.964844 22.390625 9.800781 22.429688 9.578125 22.46875 C 9.363281 22.511719 9.097656 22.53125 8.789062 22.53125 C 8.515625 22.53125 8.265625 22.488281 8.046875 22.40625 C 7.828125 22.320312 7.644531 22.195312 7.488281 22.03125 C 7.332031 21.859375 7.210938 21.652344 7.128906 21.40625 C 7.042969 21.152344 7 20.863281 7 20.53125 C 7 20.207031 7.050781 19.917969 7.148438 19.671875 C 7.246094 19.417969 7.382812 19.207031 7.550781 19.039062 C 7.722656 18.871094 7.921875 18.742188 8.152344 18.660156 C 8.382812 18.574219 8.628906 18.53125 8.894531 18.53125 C 9.0625 18.53125 9.214844 18.542969 9.347656 18.570312 C 9.484375 18.589844 9.601562 18.613281 9.699219 18.644531 C 9.796875 18.671875 9.878906 18.703125 9.941406 18.734375 C 10.007812 18.769531 10.054688 18.792969 10.089844 18.808594 L 9.863281 19.417969 C 9.757812 19.359375 9.632812 19.308594 9.480469 19.261719 C 9.328125 19.214844 9.175781 19.195312 9.015625 19.195312 "/>
<path d="M 10.722656 22.449219 L 10.722656 21.820312 L 11.679688 21.820312 L 11.679688 19.25 L 10.722656 19.25 L 10.722656 18.617188 L 13.5 18.617188 L 13.5 19.25 L 12.554688 19.25 L 12.554688 21.820312 L 13.5 21.820312 L 13.5 22.449219 L 10.722656 22.449219 "/>
<path d="M 14.320312 22.449219 L 14.320312 18.617188 L 17 18.617188 L 17 19.25 L 15.191406 19.25 L 15.191406 20.179688 L 16.773438 20.179688 L 16.773438 20.808594 L 15.191406 20.808594 L 15.191406 22.449219 L 14.320312 22.449219 "/>
</g>
</svg>
