<svg width="24" xmlns="http://www.w3.org/2000/svg" height="24" viewBox="0 0 24 24" xmlns:xlink="http://www.w3.org/1999/xlink">
<path style="fill:#c19553" d="M 4.027344 3 C 3.515625 3 3 3.515625 3 4.027344 L 3 20 C 3 20.484375 3.515625 21 4 21 L 20 21 C 20.484375 21 21 20.484375 21 20 L 21 4 C 21 3.515625 20.484375 3 20 3 Z "/>
<g style="fill:#fff">
<path style="fill-opacity:.196" d="M 4.027344 3 C 3.515625 3 3 3.515625 3 4.027344 L 3 9 C 5 9 19 9 21 9 L 21 4 C 21 3.515625 20.484375 3 20 3 Z "/>
<path style="fill-opacity:.392" d="M 10.5 5 L 10.5 13 L 13.5 13 L 13.5 5 Z "/>
</g>
<g style="fill:#fff">
<path d="M 7.871094 18.320312 C 7.894531 18.324219 7.917969 18.324219 7.945312 18.324219 C 7.976562 18.324219 8 18.324219 8.023438 18.324219 C 8.222656 18.324219 8.386719 18.292969 8.519531 18.222656 C 8.65625 18.15625 8.765625 18.0625 8.84375 17.945312 C 8.929688 17.828125 8.988281 17.691406 9.019531 17.53125 C 9.058594 17.367188 9.078125 17.1875 9.078125 16.992188 C 9.078125 16.824219 9.0625 16.660156 9.035156 16.5 C 9.007812 16.339844 8.957031 16.199219 8.886719 16.078125 C 8.816406 15.957031 8.71875 15.859375 8.597656 15.789062 C 8.476562 15.714844 8.316406 15.675781 8.125 15.675781 C 8.085938 15.675781 8.042969 15.675781 7.996094 15.679688 C 7.949219 15.679688 7.90625 15.6875 7.871094 15.695312 L 7.871094 18.320312 M 9.960938 16.992188 C 9.960938 17.355469 9.910156 17.664062 9.804688 17.921875 C 9.707031 18.171875 9.566406 18.378906 9.390625 18.539062 C 9.210938 18.699219 8.996094 18.816406 8.746094 18.894531 C 8.5 18.964844 8.230469 19 7.933594 19 C 7.777344 19 7.625 18.992188 7.472656 18.976562 C 7.328125 18.960938 7.167969 18.9375 7 18.90625 L 7 15.09375 C 7.199219 15.058594 7.382812 15.03125 7.558594 15.019531 C 7.734375 15.007812 7.894531 15 8.046875 15 C 8.332031 15 8.59375 15.039062 8.832031 15.113281 C 9.070312 15.1875 9.273438 15.308594 9.4375 15.472656 C 9.601562 15.632812 9.730469 15.839844 9.820312 16.089844 C 9.914062 16.339844 9.960938 16.640625 9.960938 16.992188 "/>
<path d="M 10.597656 18.949219 L 10.597656 15.042969 L 13.246094 15.042969 L 13.246094 15.6875 L 11.464844 15.6875 L 11.464844 16.566406 L 13.015625 16.566406 L 13.015625 17.207031 L 11.464844 17.207031 L 11.464844 18.304688 L 13.402344 18.304688 L 13.402344 18.949219 L 10.597656 18.949219 "/>
<path d="M 17 17.769531 C 17 18.003906 16.957031 18.203125 16.867188 18.363281 C 16.777344 18.519531 16.652344 18.644531 16.5 18.742188 C 16.347656 18.832031 16.167969 18.902344 15.953125 18.941406 C 15.746094 18.980469 15.523438 19 15.28125 19 C 15.089844 19 14.890625 18.988281 14.683594 18.96875 C 14.476562 18.953125 14.269531 18.925781 14.066406 18.886719 L 14.066406 15.09375 C 14.230469 15.070312 14.414062 15.046875 14.613281 15.03125 C 14.808594 15.011719 15.003906 15 15.199219 15 C 15.527344 15 15.796875 15.03125 16.003906 15.09375 C 16.210938 15.152344 16.375 15.234375 16.492188 15.335938 C 16.609375 15.429688 16.6875 15.539062 16.730469 15.664062 C 16.773438 15.785156 16.796875 15.90625 16.796875 16.027344 C 16.796875 16.214844 16.742188 16.378906 16.640625 16.519531 C 16.539062 16.664062 16.40625 16.777344 16.238281 16.859375 C 16.535156 16.957031 16.734375 17.089844 16.835938 17.253906 C 16.945312 17.417969 17 17.589844 17 17.769531 M 14.9375 17.238281 L 14.9375 18.300781 C 14.996094 18.308594 15.0625 18.3125 15.132812 18.320312 C 15.210938 18.324219 15.28125 18.324219 15.351562 18.324219 C 15.453125 18.324219 15.550781 18.320312 15.644531 18.304688 C 15.738281 18.289062 15.820312 18.261719 15.890625 18.222656 C 15.964844 18.183594 16.027344 18.125 16.074219 18.054688 C 16.121094 17.976562 16.144531 17.882812 16.144531 17.769531 C 16.144531 17.582031 16.078125 17.445312 15.941406 17.367188 C 15.808594 17.28125 15.628906 17.238281 15.402344 17.238281 L 14.9375 17.238281 M 15.277344 16.597656 C 15.496094 16.597656 15.664062 16.554688 15.777344 16.46875 C 15.890625 16.382812 15.945312 16.261719 15.945312 16.109375 C 15.945312 16.019531 15.929688 15.945312 15.898438 15.890625 C 15.863281 15.832031 15.820312 15.785156 15.761719 15.757812 C 15.707031 15.722656 15.640625 15.703125 15.566406 15.695312 C 15.488281 15.679688 15.414062 15.675781 15.332031 15.675781 C 15.265625 15.675781 15.199219 15.675781 15.128906 15.679688 C 15.054688 15.6875 14.992188 15.691406 14.9375 15.699219 L 14.9375 16.597656 L 15.277344 16.597656 "/>
</g>
</svg>
