<svg width="24" xmlns="http://www.w3.org/2000/svg" height="24" viewBox="0 0 24 24" xmlns:xlink="http://www.w3.org/1999/xlink">
<path style="fill:#eee" d="M 4.027344 3 C 3.515625 3 3 3.515625 3 4.027344 L 3 20 C 3 20.484375 3.515625 21 4 21 L 20 21 C 20.484375 21 21 20.484375 21 20 L 21 4 C 21 3.515625 20.484375 3 20 3 Z "/>
<path style="fill:#888" d="M 11.664062 6.054688 C 10.660156 6.375 11.539062 7.867188 10.105469 8.597656 C 8.464844 9.429688 7.652344 7.324219 6.667969 8.828125 C 5.683594 10.332031 8.027344 10.097656 7.960938 11.871094 C 7.894531 13.640625 5.574219 13.265625 6.445312 14.828125 C 7.316406 16.390625 8.28125 14.339844 9.855469 15.273438 C 11.425781 16.210938 9.921875 17.941406 11.777344 18 C 13.632812 18.058594 12.253906 16.238281 13.894531 15.40625 C 15.535156 14.570312 16.347656 16.675781 17.332031 15.171875 C 18.316406 13.667969 15.972656 13.902344 16.039062 12.128906 C 16.105469 10.359375 18.425781 10.738281 17.554688 9.175781 C 16.683594 7.613281 15.71875 9.660156 14.144531 8.726562 C 12.574219 7.792969 14.078125 6.058594 12.222656 6 C 11.988281 5.996094 11.804688 6.007812 11.664062 6.054688 Z M 11.679688 10.5625 C 12.507812 10.390625 13.320312 10.898438 13.496094 11.695312 C 13.671875 12.488281 13.144531 13.269531 12.320312 13.4375 C 11.492188 13.609375 10.679688 13.101562 10.503906 12.304688 C 10.328125 11.511719 10.855469 10.730469 11.679688 10.5625 Z "/>
<path style="fill:#aaa" d="M 4.25 3 C 3.917969 3 3.617188 3.164062 3.390625 3.390625 C 3.164062 3.617188 3 3.917969 3 4.25 L 3 19.78125 C 3 20.105469 3.152344 20.402344 3.375 20.625 C 3.597656 20.847656 3.894531 21 4.21875 21 L 19.78125 21 C 20.105469 21 20.402344 20.847656 20.625 20.625 C 20.847656 20.402344 21 20.105469 21 19.78125 L 21 4.21875 C 21 3.894531 20.847656 3.597656 20.625 3.375 C 20.402344 3.152344 20.105469 3 19.78125 3 Z M 4.25 3.5 L 19.78125 3.5 C 19.929688 3.5 20.121094 3.589844 20.265625 3.734375 C 20.410156 3.878906 20.5 4.070312 20.5 4.21875 L 20.5 19.78125 C 20.5 19.929688 20.410156 20.121094 20.265625 20.265625 C 20.121094 20.410156 19.929688 20.5 19.78125 20.5 L 4.21875 20.5 C 4.070312 20.5 3.878906 20.410156 3.734375 20.265625 C 3.589844 20.121094 3.5 19.929688 3.5 19.78125 L 3.5 4.25 C 3.5 4.082031 3.585938 3.882812 3.734375 3.734375 C 3.882812 3.585938 4.082031 3.5 4.25 3.5 Z "/>
</svg>
