<?xml version="1.0" encoding="UTF-8" standalone="no"?>
<svg
   xmlns:dc="http://purl.org/dc/elements/1.1/"
   xmlns:cc="http://creativecommons.org/ns#"
   xmlns:rdf="http://www.w3.org/1999/02/22-rdf-syntax-ns#"
   xmlns:svg="http://www.w3.org/2000/svg"
   xmlns="http://www.w3.org/2000/svg"
   xmlns:sodipodi="http://sodipodi.sourceforge.net/DTD/sodipodi-0.dtd"
   xmlns:inkscape="http://www.inkscape.org/namespaces/inkscape"
   width="24"
   height="24"
   viewBox="0 0 24 24"
   id="svg3012"
   version="1.1"
   inkscape:version="0.48.5 r10040"
   sodipodi:docname="polly-normal.svg">
  <metadata
     id="metadata3022">
    <rdf:RDF>
      <cc:Work
         rdf:about="">
        <dc:format>image/svg+xml</dc:format>
        <dc:type
           rdf:resource="http://purl.org/dc/dcmitype/StillImage" />
      </cc:Work>
    </rdf:RDF>
  </metadata>
  <defs
     id="defs3020" />
  <sodipodi:namedview
     pagecolor="#ffffff"
     bordercolor="#666666"
     borderopacity="1"
     objecttolerance="10"
     gridtolerance="10"
     guidetolerance="10"
     inkscape:pageopacity="0"
     inkscape:pageshadow="2"
     inkscape:window-width="640"
     inkscape:window-height="480"
     id="namedview3018"
     showgrid="false"
     inkscape:zoom="9.8333333"
     inkscape:cx="12"
     inkscape:cy="12"
     inkscape:window-x="0"
     inkscape:window-y="0"
     inkscape:window-maximized="0"
     inkscape:current-layer="svg3012" />
  <path
     style="fill:#353535;fill-opacity:1"
     d="M 15.671875 3.59375 C 13.972656 3.566406 11.972656 4.015625 9.953125 5 C 7.15625 6.367188 5.066406 8.496094 4.113281 10.8125 C 3.851562 10.695312 3.5625 10.535156 3.269531 10.34375 C 1.890625 9.4375 1.144531 8.09375 1.144531 8.09375 C 1.144531 8.09375 0.789062 10.773438 1.925781 12.40625 C 2.511719 13.246094 3.125 13.78125 3.582031 14.09375 C 3.644531 14.832031 3.828125 15.570312 4.175781 16.28125 C 6.140625 20.308594 11.765625 21.609375 16.734375 19.183594 C 20.152344 17.519531 20.957031 14.910156 20.859375 11.625 C 21.082031 11.472656 21.265625 11.324219 21.421875 11.15625 C 21.511719 11.183594 21.613281 11.210938 21.671875 11.25 C 22.265625 11.628906 22.421875 12.375 22.421875 12.375 C 22.421875 12.375 23.296875 10.539062 22.703125 8.96875 C 22.28125 7.863281 21.21875 7.375 20.390625 7.25 C 20.363281 7.082031 20.355469 6.921875 20.328125 6.75 C 20.003906 4.730469 18.15625 3.636719 15.671875 3.59375 Z M 6.613281 4.5625 C 6.613281 4.5625 5.589844 5.316406 5.175781 6.4375 C 5.171875 6.4375 5.675781 7.375 5.675781 7.375 C 5.675781 7.375 5.796875 7.195312 6.488281 6.78125 C 6.359375 5.632812 6.613281 4.5625 6.613281 4.5625 Z M 15.71875 4.773438 C 16.554688 4.773438 16.996094 5.355469 16.996094 6.105469 C 16.996094 6.855469 16.503906 7.339844 15.71875 7.339844 C 14.929688 7.339844 14.371094 7 14.371094 6.054688 C 14.371094 5.113281 14.882812 4.773438 15.71875 4.773438 Z M 3.738281 5.40625 C 3.738281 5.40625 2.679688 6.933594 2.644531 8.65625 C 2.644531 8.667969 3.800781 9.6875 3.800781 9.6875 C 3.800781 9.6875 3.894531 9.328125 4.675781 8.40625 C 3.925781 6.9375 3.738281 5.40625 3.738281 5.40625 Z M 18.546875 6.96875 C 18.585938 6.96875 18.582031 6.96875 18.609375 6.96875 C 18.371094 7.039062 17.871094 7.3125 17.546875 8.25 C 17.261719 9.074219 17.359375 9.6875 17.359375 9.6875 C 17.359375 9.6875 16.21875 10.390625 16.171875 11.78125 C 16.140625 12.453125 16.390625 13.1875 17.953125 13.09375 C 18.484375 13.140625 20.328125 12.21875 20.328125 12.21875 C 20.328125 12.21875 18 14.28125 16.21875 13.828125 C 14.859375 13.484375 14.855469 12.453125 14.8125 11.984375 C 14.71875 10.890625 16.03125 9.703125 16.03125 9.703125 C 16.03125 9.703125 15.925781 8.425781 16.425781 7.832031 C 17.398438 6.621094 18.199219 7.019531 18.546875 6.96875 Z "
     id="path3016" />
</svg>
