<svg width="24" xmlns="http://www.w3.org/2000/svg" height="24" viewBox="0 0 24 24" xmlns:xlink="http://www.w3.org/1999/xlink">
<path style="fill:#000;fill-opacity:.302" d="M 15.671875 4.6875 C 13.972656 4.65625 11.972656 5.105469 9.953125 6.089844 C 7.15625 7.457031 5.066406 9.589844 4.113281 11.902344 C 3.851562 11.785156 3.5625 11.628906 3.269531 11.433594 C 1.890625 10.527344 1.144531 9.183594 1.144531 9.183594 C 1.144531 9.183594 0.789062 11.863281 1.925781 13.496094 C 2.511719 14.335938 3.125 14.871094 3.582031 15.183594 C 3.644531 15.925781 3.828125 16.660156 4.175781 17.371094 C 6.140625 21.398438 11.765625 22.699219 16.734375 20.277344 C 20.152344 18.609375 20.957031 16.003906 20.859375 12.714844 C 21.082031 12.5625 21.265625 12.414062 21.421875 12.246094 C 21.511719 12.273438 21.613281 12.304688 21.671875 12.339844 C 22.265625 12.71875 22.421875 13.464844 22.421875 13.464844 C 22.421875 13.464844 23.296875 11.628906 22.703125 10.058594 C 22.28125 8.953125 21.21875 8.464844 20.390625 8.339844 C 20.363281 8.171875 20.355469 8.011719 20.328125 7.839844 C 20.003906 5.824219 18.15625 4.730469 15.671875 4.6875 Z M 6.613281 5.652344 C 6.613281 5.652344 5.589844 6.40625 5.175781 7.527344 C 5.171875 7.527344 5.675781 8.464844 5.675781 8.464844 C 5.675781 8.464844 5.796875 8.285156 6.488281 7.871094 C 6.359375 6.726562 6.613281 5.652344 6.613281 5.652344 Z M 15.71875 5.863281 C 16.554688 5.863281 16.996094 6.445312 16.996094 7.195312 C 16.996094 7.945312 16.503906 8.429688 15.71875 8.429688 C 14.929688 8.429688 14.371094 8.089844 14.371094 7.148438 C 14.371094 6.203125 14.882812 5.863281 15.71875 5.863281 Z M 3.738281 6.5 C 3.738281 6.5 2.679688 8.023438 2.644531 9.746094 C 2.644531 9.757812 3.800781 10.777344 3.800781 10.777344 C 3.800781 10.777344 3.894531 10.417969 4.675781 9.496094 C 3.925781 8.03125 3.738281 6.5 3.738281 6.5 Z M 18.546875 8.0625 C 18.585938 8.0625 18.582031 8.0625 18.609375 8.0625 C 18.371094 8.128906 17.871094 8.40625 17.546875 9.339844 C 17.261719 10.164062 17.359375 10.777344 17.359375 10.777344 C 17.359375 10.777344 16.21875 11.480469 16.171875 12.871094 C 16.140625 13.542969 16.390625 14.277344 17.953125 14.183594 C 18.484375 14.230469 20.328125 13.308594 20.328125 13.308594 C 20.328125 13.308594 18 15.375 16.21875 14.921875 C 14.859375 14.574219 14.855469 13.542969 14.8125 13.078125 C 14.71875 11.984375 16.03125 10.796875 16.03125 10.796875 C 16.03125 10.796875 15.925781 9.515625 16.425781 8.921875 C 17.398438 7.710938 18.199219 8.109375 18.546875 8.0625 Z "/>
<path style="fill:#353535" d="M 15.671875 3.59375 C 13.972656 3.566406 11.972656 4.015625 9.953125 5 C 7.15625 6.367188 5.066406 8.496094 4.113281 10.8125 C 3.851562 10.695312 3.5625 10.535156 3.269531 10.34375 C 1.890625 9.4375 1.144531 8.09375 1.144531 8.09375 C 1.144531 8.09375 0.789062 10.773438 1.925781 12.40625 C 2.511719 13.246094 3.125 13.78125 3.582031 14.09375 C 3.644531 14.832031 3.828125 15.570312 4.175781 16.28125 C 6.140625 20.308594 11.765625 21.609375 16.734375 19.183594 C 20.152344 17.519531 20.957031 14.910156 20.859375 11.625 C 21.082031 11.472656 21.265625 11.324219 21.421875 11.15625 C 21.511719 11.183594 21.613281 11.210938 21.671875 11.25 C 22.265625 11.628906 22.421875 12.375 22.421875 12.375 C 22.421875 12.375 23.296875 10.539062 22.703125 8.96875 C 22.28125 7.863281 21.21875 7.375 20.390625 7.25 C 20.363281 7.082031 20.355469 6.921875 20.328125 6.75 C 20.003906 4.730469 18.15625 3.636719 15.671875 3.59375 Z M 6.613281 4.5625 C 6.613281 4.5625 5.589844 5.316406 5.175781 6.4375 C 5.171875 6.4375 5.675781 7.375 5.675781 7.375 C 5.675781 7.375 5.796875 7.195312 6.488281 6.78125 C 6.359375 5.632812 6.613281 4.5625 6.613281 4.5625 Z M 15.71875 4.773438 C 16.554688 4.773438 16.996094 5.355469 16.996094 6.105469 C 16.996094 6.855469 16.503906 7.339844 15.71875 7.339844 C 14.929688 7.339844 14.371094 7 14.371094 6.054688 C 14.371094 5.113281 14.882812 4.773438 15.71875 4.773438 Z M 3.738281 5.40625 C 3.738281 5.40625 2.679688 6.933594 2.644531 8.65625 C 2.644531 8.667969 3.800781 9.6875 3.800781 9.6875 C 3.800781 9.6875 3.894531 9.328125 4.675781 8.40625 C 3.925781 6.9375 3.738281 5.40625 3.738281 5.40625 Z M 18.546875 6.96875 C 18.585938 6.96875 18.582031 6.96875 18.609375 6.96875 C 18.371094 7.039062 17.871094 7.3125 17.546875 8.25 C 17.261719 9.074219 17.359375 9.6875 17.359375 9.6875 C 17.359375 9.6875 16.21875 10.390625 16.171875 11.78125 C 16.140625 12.453125 16.390625 13.1875 17.953125 13.09375 C 18.484375 13.140625 20.328125 12.21875 20.328125 12.21875 C 20.328125 12.21875 18 14.28125 16.21875 13.828125 C 14.859375 13.484375 14.855469 12.453125 14.8125 11.984375 C 14.71875 10.890625 16.03125 9.703125 16.03125 9.703125 C 16.03125 9.703125 15.925781 8.425781 16.425781 7.832031 C 17.398438 6.621094 18.199219 7.019531 18.546875 6.96875 Z "/>
</svg>
