<?xml version="1.0" encoding="UTF-8" standalone="no"?>
<svg
   xmlns:dc="http://purl.org/dc/elements/1.1/"
   xmlns:cc="http://creativecommons.org/ns#"
   xmlns:rdf="http://www.w3.org/1999/02/22-rdf-syntax-ns#"
   xmlns:svg="http://www.w3.org/2000/svg"
   xmlns="http://www.w3.org/2000/svg"
   xmlns:sodipodi="http://sodipodi.sourceforge.net/DTD/sodipodi-0.dtd"
   xmlns:inkscape="http://www.inkscape.org/namespaces/inkscape"
   width="24"
   viewBox="0 0 24 24"
   height="24"
   style="enable-background:new"
   id="svg2"
   version="1.1"
   inkscape:version="0.91 r"
   sodipodi:docname="weather-clear.svg">
  <metadata
     id="metadata34">
    <rdf:RDF>
      <cc:Work
         rdf:about="">
        <dc:format>image/svg+xml</dc:format>
        <dc:type
           rdf:resource="http://purl.org/dc/dcmitype/StillImage" />
        <dc:title></dc:title>
      </cc:Work>
    </rdf:RDF>
  </metadata>
  <sodipodi:namedview
     pagecolor="#ffffff"
     bordercolor="#666666"
     borderopacity="1"
     objecttolerance="10"
     gridtolerance="10"
     guidetolerance="10"
     inkscape:pageopacity="0"
     inkscape:pageshadow="2"
     inkscape:window-width="1366"
     inkscape:window-height="747"
     id="namedview32"
     showgrid="false"
     inkscape:zoom="25.333333"
     inkscape:cx="12"
     inkscape:cy="12"
     inkscape:window-x="0"
     inkscape:window-y="21"
     inkscape:window-maximized="1"
     inkscape:current-layer="svg2" />
  <defs
     id="defs4">
    <clipPath
       id="clipPath6">
      <rect
         width="477.14301"
         x="-830"
         y="1580.934"
         height="208.571"
         style="fill:#ffff00"
         id="rect8" />
    </clipPath>
    <clipPath
       id="clipPath10">
      <rect
         width="477.14301"
         x="-830"
         y="1580.934"
         height="208.571"
         style="fill:#ffff00"
         id="rect12" />
    </clipPath>
    <clipPath
       id="clipPath14">
      <rect
         width="477.14301"
         x="-830"
         y="1580.934"
         height="208.571"
         style="fill:#ffff00"
         id="rect16" />
    </clipPath>
    <clipPath
       id="clipPath18">
      <rect
         width="477.14301"
         x="-830"
         y="1580.934"
         height="208.571"
         style="fill:#ffff00"
         id="rect20" />
    </clipPath>
    <clipPath
       id="clipPath22">
      <rect
         width="477.14301"
         x="-830"
         y="1580.934"
         height="208.571"
         style="fill:#ffff00"
         id="rect24" />
    </clipPath>
    <clipPath
       id="clipPath26">
      <rect
         width="477.14301"
         x="-830"
         y="1580.934"
         height="208.571"
         style="fill:#ffff00"
         id="rect28" />
    </clipPath>
  </defs>
  <path
     style="opacity:0.3;fill:#000000;fill-opacity:1;enable-background:new"
     d="M 10.43128,4.999968 C 10.192222,6.9796414 9.050638,7.4456609 7.487534,6.2124664 8.024263,8.13293 7.147328,8.9973628 5.231287,8.4562136 6.462091,10.025094 5.98357,11.15418 4.006288,11.38746 c 1.737498,0.978448 1.731248,2.20904 -0.0063,3.181249 1.979675,0.23906 2.445691,1.380638 1.212499,2.943756 1.920465,-0.53674 2.784889,0.34018 2.243747,2.256237 1.568883,-1.230819 2.697957,-0.752299 2.931251,1.224998 0.978438,-1.737558 2.209029,-1.731237 3.181246,0.0063 0.239039,-1.979698 1.380626,-2.445697 2.943746,-1.212499 -0.536752,-1.920478 0.340186,-2.784896 2.256246,-2.243757 -1.230815,-1.568952 -0.75228,-2.697991 1.225013,-2.931291 -1.737528,-0.978473 -1.731251,-2.209041 0.0063,-3.181259 C 18.020269,11.192096 17.55429,10.050528 18.787478,8.4874035 16.866985,9.024149 16.002595,8.1472159 16.543732,6.2311565 14.974832,7.4619848 13.845785,6.9834515 13.612486,5.006158 12.634038,6.7436518 11.403437,6.7374058 10.43124,4.999918 Z"
     id="path30-4"
     inkscape:connector-curvature="0" />
  <path
     style="fill:#353535;fill-opacity:1"
     d="M 10.431216,4.0000086 C 10.192158,5.979682 9.0505735,6.4457015 7.4874696,5.212507 8.0241991,7.1329706 7.1472641,7.9974034 5.2312225,7.4562542 6.4620272,9.025134 5.9835057,10.15422 4.006224,10.3875 c 1.7374982,0.978449 1.7312477,2.209041 -0.00626,3.18125 1.9796754,0.23906 2.4456907,1.380638 1.2124987,2.943756 1.9204652,-0.53674 2.7848889,0.34018 2.2437473,2.256237 1.5688827,-1.230819 2.697957,-0.752299 2.931251,1.224998 0.978438,-1.737558 2.209029,-1.731237 3.181246,0.0063 0.239039,-1.979698 1.380626,-2.445697 2.943746,-1.212499 -0.536752,-1.920478 0.340186,-2.784896 2.256246,-2.243757 -1.230815,-1.568952 -0.75228,-2.697991 1.225013,-2.931291 -1.737528,-0.978473 -1.731251,-2.209041 0.0063,-3.18126 -1.979767,-0.239098 -2.445746,-1.380666 -1.212558,-2.9437899 -1.920493,0.5367453 -2.784883,-0.3401876 -2.243746,-2.256247 -1.5689,1.2308283 -2.697947,0.752295 -2.931246,-1.2249985 -0.978448,1.7374938 -2.209049,1.7312478 -3.181246,-0.00624 z"
     id="path30"
     inkscape:connector-curvature="0" />
</svg>
