<?xml version="1.0" encoding="UTF-8" standalone="no"?>
<svg
   xmlns:dc="http://purl.org/dc/elements/1.1/"
   xmlns:cc="http://creativecommons.org/ns#"
   xmlns:rdf="http://www.w3.org/1999/02/22-rdf-syntax-ns#"
   xmlns:svg="http://www.w3.org/2000/svg"
   xmlns="http://www.w3.org/2000/svg"
   xmlns:sodipodi="http://sodipodi.sourceforge.net/DTD/sodipodi-0.dtd"
   xmlns:inkscape="http://www.inkscape.org/namespaces/inkscape"
   viewBox="0 0 24 24"
   id="svg2"
   version="1.1"
   inkscape:version="0.91 r13725"
   sodipodi:docname="indicator-keyboard-Zh-1.svg">
  <metadata
     id="metadata10">
    <rdf:RDF>
      <cc:Work
         rdf:about="">
        <dc:format>image/svg+xml</dc:format>
        <dc:type
           rdf:resource="http://purl.org/dc/dcmitype/StillImage" />
      </cc:Work>
    </rdf:RDF>
  </metadata>
  <defs
     id="defs8" />
  <sodipodi:namedview
     pagecolor="#ffffff"
     bordercolor="#666666"
     borderopacity="1"
     objecttolerance="10"
     gridtolerance="10"
     guidetolerance="10"
     inkscape:pageopacity="0"
     inkscape:pageshadow="2"
     inkscape:window-width="640"
     inkscape:window-height="480"
     id="namedview6"
     showgrid="false"
     inkscape:zoom="9.8333333"
     inkscape:cx="12"
     inkscape:cy="12"
     inkscape:window-x="65"
     inkscape:window-y="24"
     inkscape:window-maximized="0"
     inkscape:current-layer="svg2" />
  <path
     d="M 4,2 C 2.892,2 2,2.892 2,4 l 0,16 c 0,1.108 0.892,2 2,2 l 16,0 c 1.108,0 2,-0.892 2,-2 L 22,4 C 22,2.892 21.108,2 20,2 L 4,2 Z m 8.15,5.141 0,3.082 c 0.24,-0.09 0.483,-0.158 0.73,-0.203 0.248,-0.053 0.497,-0.078 0.744,-0.078 0.45,0 0.825,0.064 1.125,0.191 0.3,0.127 0.539,0.311 0.719,0.551 0.18,0.232 0.304,0.514 0.371,0.844 0.075,0.33 0.113,0.694 0.113,1.092 l 0,3.25 -0.732,0 0,-3.01 c 0,-0.412 -0.03,-0.762 -0.09,-1.047 -0.052,-0.285 -0.146,-0.517 -0.281,-0.697 -0.127,-0.18 -0.3,-0.308 -0.518,-0.383 -0.218,-0.082 -0.49,-0.123 -0.82,-0.123 -0.127,0 -0.266,0.011 -0.416,0.033 -0.143,0.022 -0.279,0.048 -0.406,0.078 -0.127,0.022 -0.243,0.05 -0.348,0.08 -0.098,0.03 -0.161,0.051 -0.191,0.066 l 0,5.01 -0.73,0 0,-8.594 0.73,-0.135 z m -7.363,0.934 5.096,0 0,0.697 C 9.703,8.982 9.494,9.238 9.254,9.538 9.022,9.838 8.77,10.166 8.5,10.526 8.23,10.879 7.951,11.258 7.666,11.663 7.389,12.061 7.111,12.465 6.834,12.878 6.564,13.283 6.306,13.686 6.059,14.083 5.819,14.48 5.602,14.855 5.407,15.208 l 4.59,0 0,0.662 -5.424,0 0,-0.572 C 4.738,14.976 4.934,14.622 5.159,14.239 5.391,13.849 5.639,13.453 5.901,13.048 6.164,12.636 6.438,12.222 6.723,11.81 7.008,11.398 7.289,11.003 7.567,10.628 7.844,10.245 8.107,9.894 8.354,9.571 8.609,9.249 8.841,8.971 9.051,8.739 l -4.264,0 0,-0.664 z m 14.303,4.979 0.338,0 0,5.066 -0.477,0 0,-4.342 c -0.054,0.059 -0.123,0.118 -0.211,0.182 -0.083,0.063 -0.178,0.126 -0.285,0.189 -0.107,0.058 -0.221,0.117 -0.338,0.176 -0.117,0.054 -0.233,0.099 -0.35,0.133 l -0.139,-0.367 c 0.293,-0.102 0.552,-0.231 0.781,-0.387 0.229,-0.161 0.455,-0.377 0.68,-0.65 z"
     style="fill:#353535;fill-opacity:1"
     id="path4"
     inkscape:connector-curvature="0" />
</svg>
