<?xml version="1.0" encoding="UTF-8" standalone="no"?>
<svg
   xmlns:dc="http://purl.org/dc/elements/1.1/"
   xmlns:cc="http://creativecommons.org/ns#"
   xmlns:rdf="http://www.w3.org/1999/02/22-rdf-syntax-ns#"
   xmlns:svg="http://www.w3.org/2000/svg"
   xmlns="http://www.w3.org/2000/svg"
   xmlns:sodipodi="http://sodipodi.sourceforge.net/DTD/sodipodi-0.dtd"
   xmlns:inkscape="http://www.inkscape.org/namespaces/inkscape"
   viewBox="0 0 24 24"
   id="svg2"
   version="1.1"
   inkscape:version="0.91 r13725"
   sodipodi:docname="indicator-keyboard-Fr-1.svg">
  <metadata
     id="metadata10">
    <rdf:RDF>
      <cc:Work
         rdf:about="">
        <dc:format>image/svg+xml</dc:format>
        <dc:type
           rdf:resource="http://purl.org/dc/dcmitype/StillImage" />
      </cc:Work>
    </rdf:RDF>
  </metadata>
  <defs
     id="defs8" />
  <sodipodi:namedview
     pagecolor="#ffffff"
     bordercolor="#666666"
     borderopacity="1"
     objecttolerance="10"
     gridtolerance="10"
     guidetolerance="10"
     inkscape:pageopacity="0"
     inkscape:pageshadow="2"
     inkscape:window-width="459"
     inkscape:window-height="369"
     id="namedview6"
     showgrid="false"
     inkscape:zoom="9.8333333"
     inkscape:cx="12"
     inkscape:cy="12"
     inkscape:window-x="65"
     inkscape:window-y="24"
     inkscape:window-maximized="0"
     inkscape:current-layer="svg2" />
  <path
     d="M 4,2 C 2.892,2 2,2.892 2,4 l 0,16 c 0,1.108 0.892,2 2,2 l 16,0 c 1.108,0 2,-0.892 2,-2 L 22,4 C 22,2.892 21.108,2 20,2 L 4,2 Z m 2.293,6.074 4.445,0 0,0.664 -3.68,0 0,2.744 3.262,0 0,0.664 -3.262,0 0,3.723 -0.766,0 0,-7.795 z m 7.582,1.867 c 0.24,0 0.466,0.019 0.676,0.057 0.217,0.037 0.367,0.074 0.449,0.111 l -0.146,0.631 c -0.06,-0.03 -0.184,-0.06 -0.371,-0.09 -0.18,-0.037 -0.419,-0.057 -0.719,-0.057 -0.315,0 -0.571,0.023 -0.766,0.068 -0.188,0.045 -0.311,0.081 -0.371,0.111 l 0,5.096 -0.73,0 0,-5.545 c 0.188,-0.083 0.445,-0.166 0.775,-0.248 0.33,-0.09 0.731,-0.135 1.203,-0.135 z m 3.494,3.111 0.338,0 0,5.066 -0.477,0 0,-4.342 c -0.054,0.059 -0.123,0.118 -0.211,0.182 -0.083,0.063 -0.178,0.126 -0.285,0.189 -0.107,0.058 -0.221,0.117 -0.338,0.176 -0.117,0.054 -0.233,0.099 -0.35,0.133 l -0.139,-0.367 c 0.293,-0.102 0.552,-0.231 0.781,-0.387 0.229,-0.161 0.455,-0.377 0.68,-0.65 z"
     style="fill:#353535;fill-opacity:1"
     id="path4"
     inkscape:connector-curvature="0" />
</svg>
