<svg xmlns="http://www.w3.org/2000/svg" width="24" height="24" viewBox="-1 -1 24.533333 24.440367" style="enable-background:new 0 0 90 109">
 <path transform="matrix(1.0222222,0,0,1.0222222,-1,-1.0464826)" d="m 12 4 c -2.209 0 -4 1.791 -4 4 l 0 2 l -2 0 a 1 1 0 0 0 -1 1 l 0 8 a 1 1 0 0 0 1 1 l 12 0 a 1 1 0 0 0 1 -1 l 0 -8 a 1 1 0 0 0 -1 -1 l -2 0 l 0 -2 c 0 -2.209 -1.791 -4 -4 -4 z m 0 2 c 1.105 0 2 0.895 2 2 c 0 0.471 -0.101 0.842 -0.234 1.107 c -0.133 0.265 -0.429 0.619 -0.766 0.893 c -0.329 0.267 -1 0.607 -1 0.607 c 0 0 0.306 -0.371 0.43 -0.656 c -0.141 0.032 -0.285 0.049 -0.43 0.049 c -1.105 0.001 -2 -0.895 -2 -2 c 0 -1.105 0.895 -2 2 -2 z m 0 5 a 4 4 0 0 1 4 4 a 4 4 0 0 1 -4 4 a 4 4 0 0 1 -4 -4 a 4 4 0 0 1 4 -4 z" style="stroke-dasharray:none;fill:#353535;opacity:1;stroke-miterlimit:4;fill-opacity:1;stroke-linecap:round;stroke-linejoin:round;stroke-width:0.709;stroke-dashoffset:0"/>
</svg>
