<svg width="16" xmlns="http://www.w3.org/2000/svg" height="16" viewBox="0 0 16 16" xmlns:xlink="http://www.w3.org/1999/xlink">
<g style="fill:#e660c1;fill-rule:evenodd">
<path d="M 6.292969 11.296875 C 6.292969 11.296875 5.820312 11.574219 6.628906 11.667969 C 7.609375 11.777344 8.109375 11.761719 9.191406 11.558594 C 9.191406 11.558594 9.476562 11.734375 9.871094 11.890625 C 7.449219 12.929688 4.390625 11.828125 6.292969 11.296875 "/>
<path d="M 5.996094 9.941406 C 5.996094 9.941406 5.46875 10.335938 6.277344 10.417969 C 7.324219 10.527344 8.152344 10.535156 9.582031 10.261719 C 9.582031 10.261719 9.78125 10.460938 10.089844 10.570312 C 7.164062 11.425781 3.902344 10.640625 5.996094 9.941406 "/>
<path d="M 8.492188 7.644531 C 9.089844 8.332031 8.335938 8.953125 8.335938 8.953125 C 8.335938 8.953125 9.851562 8.167969 9.152344 7.191406 C 8.503906 6.277344 8.007812 5.824219 10.703125 4.257812 C 10.703125 4.257812 6.46875 5.316406 8.492188 7.644531 "/>
<path d="M 11.695312 12.300781 C 11.695312 12.300781 12.042969 12.589844 11.308594 12.8125 C 9.910156 13.234375 5.492188 13.363281 4.265625 12.828125 C 3.824219 12.636719 4.648438 12.371094 4.910156 12.3125 C 5.183594 12.253906 5.335938 12.265625 5.335938 12.265625 C 4.847656 11.917969 2.164062 12.945312 3.972656 13.238281 C 8.914062 14.039062 12.976562 12.878906 11.695312 12.300781 "/>
<path d="M 6.519531 8.539062 C 6.519531 8.539062 4.273438 9.074219 5.722656 9.269531 C 6.339844 9.351562 7.558594 9.332031 8.699219 9.238281 C 9.628906 9.160156 10.5625 8.992188 10.5625 8.992188 C 10.5625 8.992188 10.234375 9.132812 9.996094 9.292969 C 7.714844 9.894531 3.304688 9.613281 4.574219 9 C 5.648438 8.480469 6.519531 8.539062 6.519531 8.539062 "/>
<path d="M 10.554688 10.792969 C 12.875 9.589844 11.800781 8.429688 11.054688 8.585938 C 10.871094 8.625 10.789062 8.65625 10.789062 8.65625 C 10.789062 8.65625 10.855469 8.550781 10.984375 8.503906 C 12.46875 7.984375 13.605469 10.039062 10.507812 10.855469 C 10.507812 10.855469 10.542969 10.824219 10.554688 10.792969 "/>
<path d="M 9.152344 1.730469 C 9.152344 1.730469 10.441406 3.019531 7.933594 4.996094 C 5.925781 6.582031 7.476562 7.484375 7.933594 8.515625 C 6.761719 7.460938 5.902344 6.53125 6.480469 5.664062 C 7.324219 4.390625 9.671875 3.773438 9.152344 1.730469 "/>
<path d="M 6.746094 14.0625 C 8.976562 14.207031 12.398438 13.984375 12.480469 12.929688 C 12.480469 12.929688 12.324219 13.328125 10.636719 13.644531 C 8.734375 14.003906 6.390625 13.964844 5 13.734375 C 5 13.734375 5.285156 13.96875 6.746094 14.0625 "/>
</g>
</svg>
