<?xml version="1.0" encoding="UTF-8" standalone="no"?>
<svg
   xmlns:dc="http://purl.org/dc/elements/1.1/"
   xmlns:cc="http://creativecommons.org/ns#"
   xmlns:rdf="http://www.w3.org/1999/02/22-rdf-syntax-ns#"
   xmlns:svg="http://www.w3.org/2000/svg"
   xmlns="http://www.w3.org/2000/svg"
   xmlns:sodipodi="http://sodipodi.sourceforge.net/DTD/sodipodi-0.dtd"
   xmlns:inkscape="http://www.inkscape.org/namespaces/inkscape"
   width="16"
   height="16"
   viewBox="0 0 16 16"
   id="svg2"
   version="1.1"
   inkscape:version="0.91 r"
   sodipodi:docname="xfce-games.svg">
  <metadata
     id="metadata10">
    <rdf:RDF>
      <cc:Work
         rdf:about="">
        <dc:format>image/svg+xml</dc:format>
        <dc:type
           rdf:resource="http://purl.org/dc/dcmitype/StillImage" />
        <dc:title />
      </cc:Work>
    </rdf:RDF>
  </metadata>
  <defs
     id="defs8" />
  <sodipodi:namedview
     pagecolor="#ffffff"
     bordercolor="#666666"
     borderopacity="1"
     objecttolerance="10"
     gridtolerance="10"
     guidetolerance="10"
     inkscape:pageopacity="0"
     inkscape:pageshadow="2"
     inkscape:window-width="1920"
     inkscape:window-height="1056"
     id="namedview6"
     showgrid="true"
     inkscape:zoom="10.429825"
     inkscape:cx="9.5318342"
     inkscape:cy="3.6554075"
     inkscape:window-x="0"
     inkscape:window-y="24"
     inkscape:window-maximized="1"
     inkscape:current-layer="svg2">
    <inkscape:grid
       type="xygrid"
       id="grid4138" />
  </sodipodi:namedview>
  <path
     style="fill:#d64c62"
     d="m 6.3125003,4.0000003 c -0.8129817,0 -1.1457149,0.07291 -1.4052723,0.14907 -0.4042307,0.118611 -0.817262,0.33078 -1.0761709,0.663114 C 2.3148332,6.7584003 1.329532,11.367232 1.6025436,11.870492 1.8755557,12.37579 4.3324806,11.369177 5.620118,9.4315233 5.717913,9.2868613 5.8974617,8.9998643 5.8974617,8.9998643 l 4.2050743,0 c 0,0 0.179546,0.286997 0.277344,0.431659 1.287661,1.9376537 3.744556,2.9442667 4.017574,2.4389687 0.273017,-0.50326 -0.712263,-5.1120917 -2.228514,-7.0583077 -0.258913,-0.332334 -0.671932,-0.544503 -1.076171,-0.663114 -0.259562,-0.07616 -0.592276,-0.14907 -1.405272,-0.14907 z m 4.1972617,1.283884 c 0.219035,0.0084 0.407088,0.158411 0.463867,0.370133 0.07205,0.267027 -0.08634,0.541831 -0.353516,0.613308 -0.266996,0.07137 -0.541249,-0.08742 -0.612304,-0.354508 -0.07143,-0.266711 0.08683,-0.540839 0.353516,-0.612331 0.04837,-0.01293 0.09841,-0.01853 0.148437,-0.016602 z M 5.0000014,5 6,5 l 0,1 1,0 0,0.9997783 -1,0 0,1.000043 -0.9999986,0 0,-1.000043 -0.9999991,0 0,-0.9997783 0.9999991,0 z m 6.7353456,0.9909453 c 0.21931,0.0085 0.407448,0.159003 0.463867,0.37111 0.07143,0.266711 -0.08683,0.54084 -0.353516,0.612331 -0.267015,0.07206 -0.541806,-0.08635 -0.61328,-0.35353 -0.07199,-0.267324 0.08692,-0.542265 0.354491,-0.613308 0.04837,-0.01294 0.09841,-0.01853 0.148438,-0.016603 z m -1.932615,0.517601 c 0.219309,0.0085 0.407447,0.159002 0.463866,0.37111 0.07143,0.266711 -0.08683,0.540839 -0.353515,0.612331 -0.266699,0.07143 -0.540816,-0.08684 -0.612304,-0.353531 -0.07143,-0.266711 0.08683,-0.54084 0.353515,-0.612332 0.04832,-0.01327 0.09836,-0.01919 0.148438,-0.017578 z m 1.174803,0.708038 c 0.23783,-0.01503 0.453219,0.139872 0.514648,0.370133 0.07137,0.267008 -0.08741,0.541273 -0.354492,0.612331 -0.266699,0.07143 -0.540816,-0.08683 -0.612304,-0.353531 -0.07143,-0.266711 0.08683,-0.540839 0.353515,-0.612331 0.03224,-0.0088 0.06528,-0.01438 0.09863,-0.016602 z"
     id="path4"
     inkscape:connector-curvature="0"
     sodipodi:nodetypes="sssccccccssssccccccccccccccccccccccccccccccccccccc" />
</svg>
