<?xml version="1.0" encoding="UTF-8" standalone="no"?>
<svg
   xmlns:dc="http://purl.org/dc/elements/1.1/"
   xmlns:cc="http://creativecommons.org/ns#"
   xmlns:rdf="http://www.w3.org/1999/02/22-rdf-syntax-ns#"
   xmlns:svg="http://www.w3.org/2000/svg"
   xmlns="http://www.w3.org/2000/svg"
   xmlns:sodipodi="http://sodipodi.sourceforge.net/DTD/sodipodi-0.dtd"
   xmlns:inkscape="http://www.inkscape.org/namespaces/inkscape"
   width="16"
   height="16"
   viewBox="0 0 16 16"
   id="svg2"
   version="1.1"
   inkscape:version="0.91 r"
   sodipodi:docname="applications-ocaml.svg">
  <metadata
     id="metadata10">
    <rdf:RDF>
      <cc:Work
         rdf:about="">
        <dc:format>image/svg+xml</dc:format>
        <dc:type
           rdf:resource="http://purl.org/dc/dcmitype/StillImage" />
        <dc:title />
      </cc:Work>
    </rdf:RDF>
  </metadata>
  <defs
     id="defs8" />
  <sodipodi:namedview
     pagecolor="#ffffff"
     bordercolor="#666666"
     borderopacity="1"
     objecttolerance="10"
     gridtolerance="10"
     guidetolerance="10"
     inkscape:pageopacity="0"
     inkscape:pageshadow="2"
     inkscape:window-width="961"
     inkscape:window-height="480"
     id="namedview6"
     showgrid="false"
     inkscape:zoom="14.75"
     inkscape:cx="8"
     inkscape:cy="8"
     inkscape:window-x="10"
     inkscape:window-y="34"
     inkscape:window-maximized="0"
     inkscape:current-layer="svg2" />
  <path
     style="fill:#d56f7f;fill-rule:evenodd"
     d="m 6.1374451,13.156682 c 0.398437,-0.04687 -0.066407,-0.378907 -0.199219,-0.445313 -0.253907,-0.128906 -0.460938,-0.273437 -0.621094,-0.511718 -0.253906,-0.382813 -0.378906,-0.894532 -0.484375,-1.335938 -0.074219,-0.296875 -0.128906,-0.472656 0.0625,-0.726562 0.1875,-0.2499995 -0.136719,-0.4609375 0.066406,-0.7265625 0.335938,-0.449219 0.476563,-1.039063 0.808594,-1.484375 0.09375,-0.125 0.058594,-0.242188 0.195312,-0.253906 0.066407,-0.00781 0.230469,0.125 0.289063,0.160156 0.164063,0.113281 0.363281,0.164062 0.527344,0.269531 0.078125,0.054688 0.234375,0.015625 0.300781,0.066407 0.195312,0.152343 0.148438,0.625 0.128906,0.863281 -0.03125,0.34375 -0.304687,0.453125 -0.304687,0.78125 0,0.3984365 0.085937,0.6718745 -0.039063,1.0781245 -0.074218,0.234375 -0.253906,0.503906 -0.28125,0.742187 -0.027344,0.1875 0.00781,0.183594 0.066406,0.363281 0.0625,0.214844 0.082032,0.402344 0.28125,0.5 0.117188,0.05469 0.582032,0.07422 0.648438,-0.05469 0.128906,-0.253906 -0.363281,-0.34375 -0.445312,-0.5 -0.179688,-0.335937 0.242187,-1.203125 0.402343,-1.496094 0.089844,-0.15625 0.261719,-0.285156 0.324219,-0.441406 0.085938,-0.2148435 -0.085938,-0.3632805 -0.058594,-0.5273435 0.050782,-0.320312 0.1875,-0.660156 0.289063,-0.96875 0.234375,-0.71875 0.5625,0.371094 0.699219,0.648438 0.054687,0.105469 0.09375,0.222656 0.148437,0.335937 0.066406,0.128906 -0.078125,0.242188 -0.039063,0.402344 0.035157,0.1523435 0.210938,0.2382805 0.308594,0.3515615 0.148438,0.171876 0.25,0.394532 0.332032,0.605469 0.164062,0.445313 0.222656,1.21875 0.5312499,1.574219 0.04297,0.05469 0.167968,0.02344 0.214843,0.07031 0.105469,0.105469 -0.02734,0.21875 0.183594,0.289063 0.160156,0.05469 0.566406,0.113281 0.71875,0.01953 0.292969,-0.175781 -0.07422,-0.394531 -0.253906,-0.578125 -0.257813,-0.257806 -0.554688,-0.492181 -0.757813,-0.796869 -0.2617179,-0.398437 -0.3164059,-0.851562 -0.3710939,-1.3125 -0.023437,-0.2226555 0.2187499,-0.3320305 0.011719,-0.6015615 -0.070312,-0.082032 -0.273437,-0.070313 -0.273437,-0.160156 0,-0.277344 -0.00781,-0.558594 0,-0.835938 0.011718,-0.335938 0.00781,-0.890625 0.332031,-1.105469 0.4257809,-0.285156 0.9726559,-0.359375 1.3789059,-0.664062 0.40625,-0.308594 0.78125,-0.585938 1.027344,-1.070313 0.125,-0.257812 0.191406,-0.507812 0.296875,-0.769531 0.07422,-0.195313 0.05078,-0.128906 0.171875,-0.242187 0.07422,-0.066407 0.179687,-0.113282 0.257813,-0.191407 0.207031,-0.195312 0.246093,-0.390625 0.59375,-0.308593 0.136718,0.035156 0.363281,0.292968 0.441406,0.132812 0.05078,-0.097656 0.01953,-0.191406 -0.0039,-0.292969 -0.03906,-0.15625 0.144531,-0.203125 0.140624,-0.351562 -0.0078,-0.253907 -0.414062,-0.515625 -0.625,-0.558594 -0.269531,-0.054687 -0.5625,0.058594 -0.84375,0.00391 -0.230468,-0.042969 -0.425781,-0.167969 -0.648437,-0.21875 -0.226563,-0.058593 -0.433594,-0.078125 -0.632813,0.058594 -0.08984,0.0625 -0.121093,0.175781 -0.199218,0.242187 -0.07031,0.054688 -0.125,0.039063 -0.203125,0.09375 -0.230469,0.167969 -0.25,0.414063 0.148437,0.339844 -0.167974,0.691402 -0.980474,2.550778 -1.8867239,1.58984 -0.421876,-0.449219 -0.8125,-0.949219 -1.214844,-1.414062 -0.351563,-0.414063 -0.554688,-0.878907 -1.15625,-0.796876 -0.59375,0.078126 -1,0.484376 -1.457032,0.820313 -0.375,0.277344 -0.816406,0.339844 -1.214843,0.566406 -0.417969,0.242188 -0.796875,0.652344 -0.941407,1.117188 -0.207031,0.675781 -0.089843,1.328125 -0.457031,1.96875 -0.222656,0.390625 -0.542969,0.660156 -0.824219,0.984375 -0.148437,0.171875 -0.25,0.414062 -0.199218,0.644531 0.03125,0.164063 0.148437,0.191406 0.148437,0.378906 0,0.328125 -0.019531,0.6523435 -0.00391,0.9765625 0.011719,0.292968 0.035156,0.578125 0.078125,0.867187 0.035156,0.246094 0.125,0.316407 0.207031,0.5 0.121094,0.273438 0.101563,0.390625 0.390625,0.5 0.164063,0.05859 0.445313,0.183594 0.621094,0.175781 0.25,-0.01172 0.289062,-0.21875 0.09375,-0.445312 -0.125,-0.144531 -0.359375,-0.191406 -0.496094,-0.351562 -0.410156,-0.457032 -0.585937,-1.8320315 -0.246094,-2.3164065 0.144532,-0.203125 0.324219,-0.203125 0.335938,-0.511719 0.015625,-0.273437 -0.097656,-0.371093 0.152344,-0.621093 0.789062,-0.402344 0.871094,-0.691407 1.128906,-0.550781 0.3125,0.167968 0.066406,1.121093 0,1.386718 -0.121094,0.476563 -0.59375,0.703125 -0.28125,1.1874995 0.222656,0.34375 0.324219,0.699219 0.476562,1.105469 0.136719,0.363281 0.125,0.878906 0.34375,1.183594 0.042969,0.05859 0.109376,0.08984 0.148438,0.148437 0.027344,0.04297 0.074219,0.164063 0.09375,0.1875 0.089844,0.105469 0.113281,0.132813 0.257812,0.191406 0.261719,0.09766 0.578126,0.06641 0.859376,0.06641"
     id="path4"
     inkscape:connector-curvature="0" />
</svg>
