<svg width="16" xmlns="http://www.w3.org/2000/svg" height="16" viewBox="0 0 16 16" xmlns:xlink="http://www.w3.org/1999/xlink">
<g style="fill:#8ccd7c">
<path d="M 4.640625 5.015625 C 3.035156 5.015625 1.730469 6.328125 1.730469 7.941406 C 1.730469 8.042969 1.734375 8.140625 1.742188 8.238281 C 1.769531 8.867188 1.730469 9.769531 2.460938 11.964844 C 3.078125 13.832031 3.550781 13.792969 3.550781 13.792969 L 4.277344 13.425781 C 4.277344 13.425781 3.914062 12.695312 3.914062 11.964844 C 3.914062 11.613281 3.996094 11.179688 4.082031 10.820312 C 4.261719 10.855469 4.453125 10.867188 4.640625 10.867188 C 6.246094 10.867188 7.546875 9.558594 7.546875 7.941406 C 7.546875 6.328125 6.246094 5.015625 4.640625 5.015625 Z "/>
<path d="M 11.191406 10.816406 C 12.800781 10.816406 14.101562 9.507812 14.101562 7.890625 C 14.101562 7.792969 14.101562 7.691406 14.089844 7.59375 C 14.066406 6.96875 14.101562 6.0625 13.375 3.867188 C 12.753906 2.003906 12.285156 2.042969 12.285156 2.042969 L 11.558594 2.40625 C 11.558594 2.40625 11.921875 3.136719 11.921875 3.867188 C 11.921875 4.21875 11.835938 4.652344 11.75 5.011719 C 11.570312 4.976562 11.382812 4.964844 11.191406 4.964844 C 9.589844 4.964844 8.285156 6.277344 8.285156 7.890625 C 8.285156 9.507812 9.589844 10.816406 11.191406 10.816406 Z "/>
</g>
</svg>
