<svg width="256" xmlns="http://www.w3.org/2000/svg" height="256" viewBox="0 0 256 256" xmlns:xlink="http://www.w3.org/1999/xlink">
<g style="fill:#e660c1;fill-rule:evenodd">
<path d="M 100.703125 180.753906 C 100.703125 180.753906 93.125 185.15625 106.066406 186.667969 C 121.769531 188.4375 129.765625 188.175781 147.058594 184.921875 C 147.058594 184.921875 151.613281 187.761719 157.941406 190.234375 C 119.191406 206.847656 70.261719 189.269531 100.703125 180.753906 "/>
<path d="M 95.964844 159.089844 C 95.964844 159.089844 87.472656 165.390625 100.441406 166.71875 C 117.1875 168.4375 130.417969 168.59375 153.308594 164.191406 C 153.308594 164.191406 156.484375 167.394531 161.457031 169.140625 C 114.609375 182.839844 62.421875 170.234375 95.964844 159.089844 "/>
<path d="M 135.859375 122.34375 C 145.417969 133.332031 133.359375 143.230469 133.359375 143.230469 C 133.359375 143.230469 157.605469 130.703125 146.457031 115.050781 C 136.066406 100.417969 128.097656 93.175781 171.277344 68.125 C 171.277344 68.125 103.515625 85.050781 135.859375 122.34375 "/>
<path d="M 187.109375 196.796875 C 187.109375 196.796875 192.707031 201.40625 180.9375 204.972656 C 158.59375 211.746094 87.863281 213.800781 68.230469 205.234375 C 61.171875 202.160156 74.402344 197.917969 78.566406 197.003906 C 82.917969 196.066406 85.390625 196.25 85.390625 196.25 C 77.550781 190.703125 34.636719 207.109375 63.59375 211.796875 C 142.605469 224.609375 207.605469 206.042969 187.109375 196.796875 "/>
<path d="M 104.324219 136.640625 C 104.324219 136.640625 68.359375 145.183594 91.589844 148.308594 C 101.40625 149.609375 120.964844 149.324219 139.167969 147.785156 C 154.0625 146.535156 169.011719 143.855469 169.011719 143.855469 C 169.011719 143.855469 163.75 146.121094 159.949219 148.699219 C 123.4375 158.308594 52.863281 153.828125 73.175781 144.011719 C 90.363281 135.703125 104.324219 136.640625 104.324219 136.640625 "/>
<path d="M 168.855469 172.707031 C 205.988281 153.410156 188.828125 134.871094 176.847656 137.371094 C 173.90625 137.996094 172.605469 138.515625 172.605469 138.515625 C 172.605469 138.515625 173.671875 136.796875 175.753906 136.066406 C 199.480469 127.734375 217.707031 160.652344 168.125 173.699219 C 168.125 173.699219 168.699219 173.175781 168.855469 172.707031 "/>
<path d="M 146.457031 27.707031 C 146.457031 27.707031 167.03125 48.28125 126.953125 79.921875 C 94.84375 105.285156 119.636719 119.765625 126.953125 136.277344 C 108.203125 119.375 94.425781 104.480469 103.671875 90.597656 C 117.214844 70.261719 154.765625 60.390625 146.457031 27.707031 "/>
<path d="M 107.96875 225 C 143.621094 227.292969 198.359375 223.722656 199.660156 206.875 C 199.660156 206.875 197.160156 213.253906 170.183594 218.332031 C 139.765625 224.0625 102.238281 223.410156 80 219.738281 C 80 219.738281 84.558594 223.488281 107.96875 225 "/>
</g>
</svg>
