<svg width="256" xmlns="http://www.w3.org/2000/svg" height="256" viewBox="0 0 256 256" xmlns:xlink="http://www.w3.org/1999/xlink">
<g style="stroke:#85b2b4">
<g style="stroke-linecap:round;fill:none">
<path style="stroke-width:8.073" d="M 34.392842 32.024461 L 221.605478 32.024461 C 222.91993 32.024461 223.973859 33.07839 223.973859 34.392842 L 223.973859 221.605478 C 223.973859 222.91993 222.91993 223.973859 221.605478 223.973859 L 34.392842 223.973859 C 33.07839 223.973859 32.024461 222.91993 32.024461 221.605478 L 32.024461 34.392842 C 32.024461 33.07839 33.07839 32.024461 34.392842 32.024461 Z " transform="scale(.9896)"/>
<path style="stroke-width:7.598" d="M 127.079439 32.711291 L 127.10707 32.711291 C 127.474169 32.711291 127.789953 33.027075 127.789953 33.394174 L 127.789953 221.972577 C 127.789953 222.367307 127.474169 222.659408 127.10707 222.659408 L 127.079439 222.659408 C 126.71234 222.659408 126.396555 222.367307 126.396555 221.972577 L 126.396555 33.394174 C 126.396555 33.027075 126.71234 32.711291 127.079439 32.711291 Z " transform="scale(.9896)"/>
</g>
<g style="fill:#85b2b4;stroke-linejoin:round">
<g style="stroke-width:3">
<path d="M 205.078125 192.367813 L 188.578403 176.448344 L 204.446557 159.79073 L 192.999381 149.472483 L 176.657551 165.340636 L 159.972306 149.472483 L 148.079085 160.157829 L 164.736699 176.393082 L 148.079085 192.340182 L 159.972306 203.47552 L 176.62992 186.790275 L 193.342796 203.47552 Z " transform="scale(.9896)"/>
<path style="fill-rule:evenodd" d="M 68.868577 68.710685 L 68.868577 50.738619 L 89.659016 50.738619 L 89.659016 68.710685 L 107.658713 68.710685 L 107.658713 89.737962 L 89.659016 89.737962 L 89.659016 107.737659 L 68.840946 107.737659 L 68.762 89.737962 L 50.659673 89.737962 L 50.659673 68.710685 Z " transform="scale(.9896)"/>
</g>
<g style="stroke-width:3.032">
<path d="M 187.974466 79.103931 L 204.028143 63.156831 L 192.47439 52.735954 L 175.947037 68.789631 L 163.919608 79.948653 L 147.052786 96.077329 L 159.103899 107.287667 L 175.919406 90.448477 Z " transform="scale(.9896)"/>
<g style="stroke-linecap:round;stroke-miterlimit:10">
<path d="M 168.289271 61.814748 C 168.289271 66.843611 164.211708 70.921174 159.182845 70.921174 C 154.15793 70.921174 150.104051 66.843611 150.104051 61.814748 C 150.104051 56.817464 154.15793 52.735954 159.182845 52.735954 C 164.211708 52.735954 168.289271 56.817464 168.289271 61.814748 Z " transform="scale(.9896)"/>
<path d="M 198.60455 98.208872 C 198.60455 103.237735 194.526987 107.287667 189.498124 107.287667 C 184.473209 107.287667 180.41933 103.237735 180.41933 98.208872 C 180.41933 93.183957 184.473209 89.106394 189.498124 89.106394 C 194.526987 89.106394 198.60455 93.183957 198.60455 98.208872 Z " transform="scale(.9896)"/>
</g>
</g>
<g style="stroke-width:2.727">
<path style="fill-rule:evenodd" d="M 104.998232 170.10503 L 104.998232 183.735063 L 53.185946 183.735063 L 53.185946 170.10503 Z " transform="scale(.9896)"/>
<g style="stroke-linecap:round;stroke-miterlimit:10">
<path d="M 85.920921 156.474996 C 85.920921 160.998604 82.261772 164.657753 77.738164 164.657753 C 73.210609 164.657753 69.55146 160.998604 69.55146 156.474996 C 69.55146 151.947441 73.210609 148.288292 77.738164 148.288292 C 82.261772 148.288292 85.920921 151.947441 85.920921 156.474996 Z " transform="scale(.9896)"/>
<path d="M 85.920921 197.396675 C 85.920921 201.8966 82.261772 205.551801 77.738164 205.551801 C 73.210609 205.551801 69.55146 201.8966 69.55146 197.396675 C 69.55146 192.86912 73.210609 189.18234 77.738164 189.18234 C 82.261772 189.18234 85.920921 192.86912 85.920921 197.396675 Z " transform="scale(.9896)"/>
</g>
</g>
</g>
</g>
</svg>
