<?xml version="1.0" encoding="UTF-8" standalone="no"?>
<!-- Created with Inkscape (http://www.inkscape.org/) -->

<svg
   xmlns:dc="http://purl.org/dc/elements/1.1/"
   xmlns:cc="http://creativecommons.org/ns#"
   xmlns:rdf="http://www.w3.org/1999/02/22-rdf-syntax-ns#"
   xmlns:svg="http://www.w3.org/2000/svg"
   xmlns="http://www.w3.org/2000/svg"
   xmlns:sodipodi="http://sodipodi.sourceforge.net/DTD/sodipodi-0.dtd"
   xmlns:inkscape="http://www.inkscape.org/namespaces/inkscape"
   id="svg7384"
   height="128"
   width="128"
   version="1.1"
   inkscape:version="0.91 r"
   sodipodi:docname="network-vpn.svg">
  <defs
     id="defs12" />
  <sodipodi:namedview
     pagecolor="#ffffff"
     bordercolor="#666666"
     borderopacity="1"
     objecttolerance="10"
     gridtolerance="10"
     guidetolerance="10"
     inkscape:pageopacity="0"
     inkscape:pageshadow="2"
     inkscape:window-width="1366"
     inkscape:window-height="747"
     id="namedview10"
     showgrid="true"
     inkscape:zoom="2.6074563"
     inkscape:cx="41.501417"
     inkscape:cy="32.122486"
     inkscape:window-x="0"
     inkscape:window-y="21"
     inkscape:window-maximized="1"
     inkscape:current-layer="svg7384">
    <inkscape:grid
       type="xygrid"
       id="grid4142" />
  </sodipodi:namedview>
  <metadata
     id="metadata90">
    <rdf:RDF>
      <cc:Work
         rdf:about="">
        <dc:format>image/svg+xml</dc:format>
        <dc:type
           rdf:resource="http://purl.org/dc/dcmitype/StillImage" />
        <dc:title>Gnome Symbolic Icon Theme</dc:title>
      </cc:Work>
    </rdf:RDF>
  </metadata>
  <title
     id="title9167">Gnome Symbolic Icon Theme</title>
  <path
     style="color:#bebebe;text-indent:0;text-transform:none;block-progression:tb;fill:#919fa9;fill-opacity:1"
     d="m 55.999724,78.00027 0,23.99984 -39.999724,0 0,15.99989 95.99934,0 0,-15.99989 -39.999728,0 0,-23.99984 -15.999888,0 z"
     id="path12679-6"
     inkscape:connector-curvature="0" />
  <path
     inkscape:connector-curvature="0"
     d="m 63.999668,10.000742 c -12.346356,0 -19.99986,6.839788 -19.99986,19.999704 l 0,15.999884 0,7.999944 7.999944,0 27.999808,0 3.999972,0 0,-7.999944 0,-15.999884 c 0,-13.159916 -7.653504,-19.999704 -19.999864,-19.999704 z m 0,11.99976 c 4.513008,0 7.999948,3.487008 7.999948,7.999944 l 0,7.999948 -15.999892,0 0,-7.999948 c 0,-4.512936 3.48694,-7.999944 7.999944,-7.999944 z"
     style="color:#bebebe;text-indent:0;text-transform:none;block-progression:tb;fill:#909ea9;fill-opacity:1"
     id="path13314"
     sodipodi:nodetypes="zsccccccszssccss" />
  <path
     style="color:#bebebe;fill:#909ea9;fill-opacity:1"
     d="m 32.799668,38.80037 c 0.799446,-0.8 2.2,-0.79982 2.2,-0.79982 l 58,-9e-5 c 0,0 1.403742,-9e-5 2.2,0.79991 0.796258,0.8 0.8,2.2 0.8,2.2 l -2.2e-4,44.99985 -63.999558,0 0,-44.99985 c 0,0 3.32e-4,-1.4 0.799778,-2.2 z"
     id="rect13312"
     inkscape:connector-curvature="0"
     sodipodi:nodetypes="zcczccccz" />
  <g
     id="g4185"
     transform="translate(-49.474513,79.646763)">
    <g
       id="g4161"
       style="fill:none;stroke:#ffffff">
      <g
         id="g4163"
         transform="translate(-38.38147,-1006.1003)"
         style="stroke-width:0.5" />
      <g
         id="g4169"
         transform="translate(-39.59798,-1004.3622)"
         style="stroke-width:0.40000001" />
    </g>
    <g
       id="g4175"
       transform="translate(0,-1004.3622)" />
  </g>
</svg>
