<svg width="24" xmlns="http://www.w3.org/2000/svg" height="24" viewBox="0 0 24 24" xmlns:xlink="http://www.w3.org/1999/xlink">
<defs>
<linearGradient gradientTransform="matrix(.5 0 0 -.5 0 -502.1811)" id="linear0" y1="-1004.362" y2="-1052.362" gradientUnits="userSpaceOnUse" x2="0">
<stop offset="0" style="stop-color:#8e5902"/>
<stop offset="1" style="stop-color:#4a2e01"/>
</linearGradient>
</defs>
<path style="fill:url(#linear0)" d="M 0.972656 24 L 23.027344 24 C 23.566406 24 24 23.566406 24 23.027344 L 24 0.972656 C 24 0.433594 23.566406 0 23.027344 0 L 0.972656 0 C 0.433594 0 0 0.433594 0 0.972656 L 0 23.027344 C 0 23.566406 0.433594 24 0.972656 24 Z "/>
<path style="fill:none;stroke:#fff;stroke-linejoin:round;stroke-linecap:round;stroke-width:6.203" d="M 185.320596 141.875069 C 185.320596 185.573554 153.957988 220.983008 115.25368 220.983008 C 76.549371 220.983008 45.186764 185.573554 45.186764 141.875069 C 45.186764 98.176584 76.549371 62.76713 115.25368 62.76713 C 153.957988 62.76713 185.320596 98.176584 185.320596 141.875069 Z " transform="matrix(.1096 0 0 .09708 -.63238 -1.77303)"/>
<g style="fill:#fff">
<path d="M 11.835938 4.121094 L 12.164062 4.121094 C 12.292969 4.121094 12.398438 4.226562 12.398438 4.355469 L 12.398438 19.402344 C 12.398438 19.53125 12.292969 19.636719 12.164062 19.636719 L 11.835938 19.636719 C 11.707031 19.636719 11.601562 19.53125 11.601562 19.402344 L 11.601562 4.355469 C 11.601562 4.226562 11.707031 4.121094 11.835938 4.121094 Z "/>
<path d="M 19.675781 11.835938 L 19.675781 12.164062 C 19.675781 12.292969 19.570312 12.398438 19.441406 12.398438 L 4.390625 12.398438 C 4.261719 12.398438 4.15625 12.292969 4.15625 12.164062 L 4.15625 11.835938 C 4.15625 11.707031 4.261719 11.601562 4.390625 11.601562 L 19.441406 11.601562 C 19.570312 11.601562 19.675781 11.707031 19.675781 11.835938 Z "/>
<path style="fill-opacity:.149" d="M 1 0 C 0.445312 0 0 0.445312 0 1 L 0 23 C 0 23.554688 0.445312 24 1 24 L 8.390625 24 L 14.8125 0 Z "/>
</g>
</svg>
