<svg width="24" xmlns="http://www.w3.org/2000/svg" height="24" viewBox="0 0 24 24" xmlns:xlink="http://www.w3.org/1999/xlink">
<defs>
<linearGradient gradientTransform="matrix(.5 0 0 .5 0 -502.1811)" id="linear0" y1="1053.158" y2="1004.847" gradientUnits="userSpaceOnUse" x2="0">
<stop offset="0" style="stop-color:#9e1e25"/>
<stop offset="1" style="stop-color:#e06359"/>
</linearGradient>
</defs>
<path style="fill:url(#linear0)" d="M 1 0 L 23 0 C 23.550781 0 24 0.449219 24 1 L 24 23 C 24 23.550781 23.550781 24 23 24 L 1 24 C 0.449219 24 0 23.550781 0 23 L 0 1 C 0 0.449219 0.449219 0 1 0 Z "/>
<g style="fill:#fff">
<path d="M 9.496094 7.492188 L 7.296875 13.464844 L 11.707031 13.464844 Z M 8.582031 5.894531 L 10.421875 5.894531 L 14.996094 17.894531 L 13.308594 17.894531 L 12.214844 14.816406 L 6.804688 14.816406 L 5.710938 17.894531 L 4 17.894531 Z "/>
<path d="M 17.503906 14.078125 C 16.492188 14.078125 15.792969 14.195312 15.402344 14.425781 C 15.011719 14.65625 14.816406 15.050781 14.816406 15.609375 C 14.816406 16.054688 14.960938 16.410156 15.253906 16.671875 C 15.546875 16.929688 15.945312 17.058594 16.449219 17.058594 C 17.144531 17.058594 17.699219 16.8125 18.117188 16.324219 C 18.539062 15.828125 18.75 15.175781 18.75 14.359375 L 18.75 14.078125 Z M 20 13.5625 L 20 17.910156 L 18.75 17.910156 L 18.75 16.753906 C 18.464844 17.214844 18.105469 17.558594 17.679688 17.78125 C 17.253906 17.996094 16.734375 18.105469 16.117188 18.105469 C 15.335938 18.105469 14.714844 17.890625 14.253906 17.453125 C 13.792969 17.015625 13.566406 16.425781 13.566406 15.691406 C 13.566406 14.835938 13.851562 14.1875 14.421875 13.753906 C 15 13.316406 15.855469 13.101562 16.992188 13.101562 L 18.75 13.101562 L 18.75 12.976562 C 18.75 12.402344 18.558594 11.957031 18.175781 11.644531 C 17.800781 11.328125 17.269531 11.167969 16.585938 11.167969 C 16.148438 11.167969 15.726562 11.21875 15.3125 11.324219 C 14.902344 11.429688 14.503906 11.585938 14.121094 11.792969 L 14.121094 10.636719 C 14.582031 10.460938 15.027344 10.328125 15.457031 10.242188 C 15.886719 10.152344 16.308594 10.105469 16.714844 10.105469 C 17.816406 10.105469 18.640625 10.390625 19.183594 10.964844 C 19.726562 11.535156 20 12.402344 20 13.5625 Z "/>
<path style="fill-opacity:.149" d="M 1 0 C 0.445312 0 0 0.445312 0 1 L 0 23 C 0 23.554688 0.445312 24 1 24 L 8.390625 24 L 14.8125 0 Z "/>
</g>
</svg>
