<svg width="24" xmlns="http://www.w3.org/2000/svg" height="24" viewBox="0 0 24 24" xmlns:xlink="http://www.w3.org/1999/xlink">
<defs>
<linearGradient gradientTransform="matrix(.5 0 0 .5 0 -502.1811)" id="linear0" y1="1053.158" y2="1004.847" gradientUnits="userSpaceOnUse" x2="0">
<stop offset="0" style="stop-color:#9e1e25"/>
<stop offset="1" style="stop-color:#e06359"/>
</linearGradient>
</defs>
<path style="fill:url(#linear0)" d="M 0.972656 0 L 23.027344 0 C 23.566406 0 24 0.433594 24 0.972656 L 24 23.027344 C 24 23.566406 23.566406 24 23.027344 24 L 0.972656 24 C 0.433594 24 0 23.566406 0 23.027344 L 0 0.972656 C 0 0.433594 0.433594 0 0.972656 0 Z "/>
<g style="fill:#fff">
<path d="M 19.324219 15.089844 C 19.277344 15.023438 19.203125 14.9375 19.121094 14.851562 C 18.253906 13.960938 17.605469 12.910156 17.257812 11.75 C 17.242188 11.695312 17.226562 11.640625 17.210938 11.585938 C 17.199219 11.53125 17.183594 11.476562 17.171875 11.421875 C 16.890625 10.242188 16.925781 9.007812 17.234375 7.804688 C 17.234375 7.804688 17.28125 7.605469 17.292969 7.523438 C 17.550781 6.003906 16.613281 4.511719 15.097656 4.105469 C 13.550781 3.6875 11.964844 4.558594 11.457031 6.054688 C 11.4375 6.109375 11.394531 6.25 11.394531 6.253906 C 11.0625 7.429688 10.484375 8.5 9.667969 9.378906 C 8.738281 10.351562 7.558594 11.042969 6.238281 11.398438 C 4.628906 11.828125 3.671875 13.488281 4.101562 15.097656 C 4.535156 16.710938 6.191406 17.667969 7.800781 17.234375 C 9.003906 16.925781 10.238281 16.890625 11.417969 17.171875 C 11.472656 17.183594 11.527344 17.199219 11.582031 17.214844 C 11.640625 17.226562 11.691406 17.246094 11.746094 17.257812 C 12.910156 17.609375 13.960938 18.253906 14.847656 19.121094 C 14.957031 19.230469 15.050781 19.308594 15.140625 19.371094 C 16.332031 20.28125 18.03125 20.210938 19.121094 19.121094 C 20.226562 18.019531 20.289062 16.273438 19.324219 15.085938 Z M 12.007812 15.632812 C 10.429688 15.210938 9.496094 13.589844 9.917969 12.015625 C 10.339844 10.4375 11.960938 9.5 13.535156 9.921875 C 15.113281 10.347656 16.050781 11.96875 15.628906 13.542969 C 15.203125 15.121094 13.585938 16.054688 12.007812 15.632812 Z "/>
<path style="fill-opacity:.149" d="M 1 0 C 0.445312 0 0 0.445312 0 1 L 0 23 C 0 23.554688 0.445312 24 1 24 L 8.390625 24 L 14.8125 0 Z "/>
</g>
</svg>
