<svg width="24" xmlns="http://www.w3.org/2000/svg" height="24" viewBox="0 0 24 24" xmlns:xlink="http://www.w3.org/1999/xlink">
<defs>
<linearGradient gradientTransform="matrix(.5 0 0 -.5 0 526.1811)" id="linear0" y1="1053.158" y2="1004.847" gradientUnits="userSpaceOnUse" x2="0">
<stop offset="0" style="stop-color:#e3b216"/>
<stop offset="1" style="stop-color:#c88009"/>
</linearGradient>
</defs>
<path style="fill:url(#linear0)" d="M 0.972656 24 L 23.027344 24 C 23.566406 24 24 23.566406 24 23.027344 L 24 0.972656 C 24 0.433594 23.566406 0 23.027344 0 L 0.972656 0 C 0.433594 0 0 0.433594 0 0.972656 L 0 23.027344 C 0 23.566406 0.433594 24 0.972656 24 Z "/>
<g style="fill:#fff">
<path d="M 11.847656 4.769531 C 10.730469 4.769531 9.820312 5.679688 9.820312 6.796875 C 9.820312 7.742188 10.484375 8.523438 11.355469 8.75 L 11.355469 9.789062 C 9.351562 10.03125 7.796875 11.734375 7.796875 13.804688 C 7.796875 14.363281 7.914062 14.890625 8.117188 15.375 L 7.4375 15.773438 C 6.800781 15.148438 5.820312 14.984375 5.011719 15.453125 C 4.042969 16.011719 3.714844 17.25 4.273438 18.21875 C 4.832031 19.1875 6.070312 19.515625 7.039062 18.957031 C 7.867188 18.476562 8.230469 17.507812 7.964844 16.625 L 8.628906 16.25 C 9.367188 17.222656 10.527344 17.859375 11.847656 17.859375 C 13.257812 17.859375 14.492188 17.148438 15.21875 16.058594 L 16.070312 16.550781 C 15.761719 17.449219 16.105469 18.460938 16.960938 18.957031 C 17.929688 19.515625 19.167969 19.1875 19.726562 18.21875 C 20.285156 17.25 19.957031 16.011719 18.988281 15.453125 C 18.203125 15 17.257812 15.136719 16.621094 15.71875 L 15.65625 15.167969 C 15.808594 14.742188 15.902344 14.285156 15.902344 13.804688 C 15.902344 11.738281 14.355469 10.042969 12.359375 9.789062 L 12.359375 8.75 C 13.234375 8.523438 13.875 7.742188 13.875 6.796875 C 13.875 5.679688 12.96875 4.769531 11.847656 4.769531 Z M 12.417969 11.363281 C 12.695312 11.363281 12.925781 11.386719 13.117188 11.457031 C 13.3125 11.527344 13.46875 11.613281 13.589844 11.722656 C 13.714844 11.832031 13.820312 11.964844 13.875 12.101562 C 13.929688 12.230469 13.949219 12.367188 13.949219 12.5 C 13.949219 12.726562 13.90625 12.921875 13.800781 13.105469 C 13.695312 13.285156 13.53125 13.449219 13.308594 13.578125 C 13.082031 13.707031 12.785156 13.792969 12.4375 13.863281 C 12.085938 13.929688 11.675781 13.976562 11.1875 13.976562 L 10.65625 13.976562 C 10.632812 14.085938 10.609375 14.175781 10.597656 14.277344 C 10.59375 14.378906 10.597656 14.492188 10.597656 14.582031 C 10.597656 14.910156 10.683594 15.164062 10.84375 15.339844 C 11.007812 15.515625 11.273438 15.585938 11.640625 15.585938 C 11.851562 15.585938 12.039062 15.578125 12.207031 15.546875 C 12.375 15.515625 12.523438 15.488281 12.644531 15.453125 C 12.769531 15.417969 12.867188 15.367188 12.945312 15.339844 C 13.027344 15.304688 13.085938 15.300781 13.117188 15.300781 C 13.148438 15.300781 13.160156 15.316406 13.175781 15.339844 C 13.191406 15.359375 13.191406 15.375 13.191406 15.414062 C 13.191406 15.449219 13.199219 15.5 13.191406 15.546875 C 13.1875 15.59375 13.167969 15.628906 13.15625 15.679688 C 13.140625 15.726562 13.121094 15.769531 13.097656 15.8125 C 13.078125 15.855469 13.066406 15.894531 13.042969 15.925781 C 13.003906 15.964844 12.9375 16 12.832031 16.039062 C 12.734375 16.078125 12.613281 16.121094 12.472656 16.152344 C 12.335938 16.183594 12.183594 16.210938 12.019531 16.230469 C 11.855469 16.25 11.691406 16.25 11.527344 16.25 C 11.234375 16.25 10.972656 16.21875 10.75 16.152344 C 10.527344 16.085938 10.347656 15.984375 10.199219 15.851562 C 10.054688 15.710938 9.933594 15.542969 9.859375 15.339844 C 9.789062 15.132812 9.765625 14.894531 9.765625 14.621094 C 9.765625 14.40625 9.78125 14.164062 9.820312 13.917969 C 9.863281 13.671875 9.921875 13.441406 10.011719 13.199219 C 10.101562 12.957031 10.210938 12.71875 10.351562 12.5 C 10.492188 12.277344 10.667969 12.078125 10.863281 11.910156 C 11.0625 11.742188 11.289062 11.617188 11.546875 11.511719 C 11.804688 11.410156 12.09375 11.363281 12.417969 11.363281 Z M 12.359375 12.003906 C 12.144531 12.003906 11.957031 12.042969 11.792969 12.121094 C 11.625 12.191406 11.464844 12.277344 11.335938 12.402344 C 11.210938 12.527344 11.109375 12.691406 11.015625 12.859375 C 10.925781 13.023438 10.863281 13.183594 10.808594 13.371094 L 11.300781 13.371094 C 11.644531 13.371094 11.941406 13.355469 12.171875 13.3125 C 12.40625 13.269531 12.601562 13.214844 12.738281 13.140625 C 12.878906 13.066406 12.964844 12.976562 13.023438 12.875 C 13.082031 12.777344 13.117188 12.683594 13.117188 12.574219 C 13.117188 12.40625 13.042969 12.257812 12.910156 12.15625 C 12.777344 12.050781 12.605469 12.003906 12.359375 12.003906 Z "/>
<path style="fill-opacity:.149" d="M 1 0 C 0.445312 0 0 0.445312 0 1 L 0 23 C 0 23.554688 0.445312 24 1 24 L 8.390625 24 L 14.8125 0 Z "/>
</g>
</svg>
