<svg width="24" xmlns="http://www.w3.org/2000/svg" height="24" viewBox="0 0 24 24" xmlns:xlink="http://www.w3.org/1999/xlink">
<defs>
<linearGradient gradientTransform="matrix(.5 0 0 -.5 0 526.1811)" id="linear0" y1="1053.158" y2="1004.847" gradientUnits="userSpaceOnUse" x2="0">
<stop offset="0" style="stop-color:#378eb1"/>
<stop offset="1" style="stop-color:#17789c"/>
</linearGradient>
</defs>
<path style="fill:url(#linear0)" d="M 0.972656 24 L 23.027344 24 C 23.566406 24 24 23.566406 24 23.027344 L 24 0.972656 C 24 0.433594 23.566406 0 23.027344 0 L 0.972656 0 C 0.433594 0 0 0.433594 0 0.972656 L 0 23.027344 C 0 23.566406 0.433594 24 0.972656 24 Z "/>
<g style="fill:#fff">
<path style="fill-rule:evenodd" d="M 11.390625 5.535156 L 11.390625 10.6875 L 8.574219 8.535156 L 7.621094 9.296875 L 11.121094 12 L 7.566406 14.703125 L 8.679688 15.546875 L 11.390625 13.355469 L 11.390625 18.464844 L 16.433594 14.703125 L 13.089844 12.042969 L 16.328125 9.421875 Z M 12.769531 8.027344 L 14.417969 9.460938 L 12.769531 10.730469 Z M 12.71875 13.394531 L 14.472656 14.660156 L 12.824219 15.800781 Z "/>
<path style="fill-opacity:.149" d="M 1 0 C 0.445312 0 0 0.445312 0 1 L 0 23 C 0 23.554688 0.445312 24 1 24 L 8.390625 24 L 14.8125 0 Z "/>
</g>
</svg>
