<svg width="24" xmlns="http://www.w3.org/2000/svg" height="24" viewBox="0 0 24 24" xmlns:xlink="http://www.w3.org/1999/xlink">
<defs>
<linearGradient gradientTransform="matrix(.5 0 0 .5 0 -502.1811)" id="linear0" y1="1053.158" y2="1004.847" gradientUnits="userSpaceOnUse" x2="0">
<stop offset="0" style="stop-color:#616161"/>
<stop offset="1" style="stop-color:#c7c7c7"/>
</linearGradient>
</defs>
<path style="fill:url(#linear0)" d="M 0.972656 0 L 23.027344 0 C 23.566406 0 24 0.433594 24 0.972656 L 24 23.027344 C 24 23.566406 23.566406 24 23.027344 24 L 0.972656 24 C 0.433594 24 0 23.566406 0 23.027344 L 0 0.972656 C 0 0.433594 0.433594 0 0.972656 0 Z "/>
<g style="fill:#fff">
<path style="fill-opacity:.8" d="M 6.96875 4 C 6.429688 4 6 4.429688 6 4.96875 L 6 19.03125 C 6 19.570312 6.429688 20 6.96875 20 L 17.03125 20 C 17.570312 20 18 19.570312 18 19.03125 L 18 4.96875 C 18 4.429688 17.570312 4 17.03125 4 Z M 7.890625 5 L 16.109375 5 C 16.601562 5 17 5.398438 17 5.890625 L 17 7.625 C 17 8.117188 16.601562 8.515625 16.109375 8.515625 L 7.890625 8.515625 C 7.398438 8.515625 7 8.117188 7 7.625 L 7 5.890625 C 7 5.398438 7.398438 5 7.890625 5 Z M 7.5 9.5 L 8.5 9.5 C 8.777344 9.5 9 9.722656 9 10 L 9 11 C 9 11.277344 8.777344 11.5 8.5 11.5 L 7.5 11.5 C 7.222656 11.5 7 11.277344 7 11 L 7 10 C 7 9.722656 7.222656 9.5 7.5 9.5 Z M 10 9.5 L 11 9.5 C 11.277344 9.5 11.5 9.722656 11.5 10 L 11.5 11 C 11.5 11.277344 11.277344 11.5 11 11.5 L 10 11.5 C 9.722656 11.5 9.5 11.277344 9.5 11 L 9.5 10 C 9.5 9.722656 9.722656 9.5 10 9.5 Z M 12.5 9.5 L 13.5 9.5 C 13.777344 9.5 14 9.722656 14 10 L 14 11 C 14 11.277344 13.777344 11.5 13.5 11.5 L 12.5 11.5 C 12.222656 11.5 12 11.277344 12 11 L 12 10 C 12 9.722656 12.222656 9.5 12.5 9.5 Z M 15 9.5 L 16.5 9.5 C 16.777344 9.5 17 9.722656 17 10 L 17 11 C 17 11.277344 16.777344 11.5 16.5 11.5 L 15 11.5 C 14.722656 11.5 14.5 11.277344 14.5 11 L 14.5 10 C 14.5 9.722656 14.722656 9.5 15 9.5 Z M 7.5 12 L 8.5 12 C 8.777344 12 9 12.222656 9 12.5 L 9 13.5 C 9 13.777344 8.777344 14 8.5 14 L 7.5 14 C 7.222656 14 7 13.777344 7 13.5 L 7 12.5 C 7 12.222656 7.222656 12 7.5 12 Z M 10 12 L 11 12 C 11.277344 12 11.5 12.222656 11.5 12.5 L 11.5 13.5 C 11.5 13.777344 11.277344 14 11 14 L 10 14 C 9.722656 14 9.5 13.777344 9.5 13.5 L 9.5 12.5 C 9.5 12.222656 9.722656 12 10 12 Z M 12.5 12 L 13.5 12 C 13.777344 12 14 12.222656 14 12.5 L 14 13.5 C 14 13.777344 13.777344 14 13.5 14 L 12.5 14 C 12.222656 14 12 13.777344 12 13.5 L 12 12.5 C 12 12.222656 12.222656 12 12.5 12 Z M 15 12 L 16.5 12 C 16.777344 12 17 12.222656 17 12.5 L 17 13.5 C 17 13.777344 16.777344 14 16.5 14 L 15 14 C 14.722656 14 14.5 13.777344 14.5 13.5 L 14.5 12.5 C 14.5 12.222656 14.722656 12 15 12 Z M 7.5 14.5 L 8.5 14.5 C 8.777344 14.5 9 14.722656 9 15 L 9 16 C 9 16.277344 8.777344 16.5 8.5 16.5 L 7.5 16.5 C 7.222656 16.5 7 16.277344 7 16 L 7 15 C 7 14.722656 7.222656 14.5 7.5 14.5 Z M 10 14.5 L 11 14.5 C 11.277344 14.5 11.5 14.722656 11.5 15 L 11.5 16 C 11.5 16.277344 11.277344 16.5 11 16.5 L 10 16.5 C 9.722656 16.5 9.5 16.277344 9.5 16 L 9.5 15 C 9.5 14.722656 9.722656 14.5 10 14.5 Z M 12.5 14.5 L 13.5 14.5 C 13.777344 14.5 14 14.722656 14 15 L 14 16 C 14 16.277344 13.777344 16.5 13.5 16.5 L 12.5 16.5 C 12.222656 16.5 12 16.277344 12 16 L 12 15 C 12 14.722656 12.222656 14.5 12.5 14.5 Z M 15 14.5 L 16.5 14.5 C 16.777344 14.5 17 14.722656 17 15 L 17 18.5 C 17 18.777344 16.777344 19 16.5 19 L 15 19 C 14.722656 19 14.5 18.777344 14.5 18.5 L 14.5 15 C 14.5 14.722656 14.722656 14.5 15 14.5 Z M 7.5 17 L 8.5 17 C 8.777344 17 9 17.222656 9 17.5 L 9 18.5 C 9 18.777344 8.777344 19 8.5 19 L 7.5 19 C 7.222656 19 7 18.777344 7 18.5 L 7 17.5 C 7 17.222656 7.222656 17 7.5 17 Z M 10 17 L 11 17 C 11.277344 17 11.5 17.222656 11.5 17.5 L 11.5 18.5 C 11.5 18.777344 11.277344 19 11 19 L 10 19 C 9.722656 19 9.5 18.777344 9.5 18.5 L 9.5 17.5 C 9.5 17.222656 9.722656 17 10 17 Z M 12.5 17 L 13.5 17 C 13.777344 17 14 17.222656 14 17.5 L 14 18.5 C 14 18.777344 13.777344 19 13.5 19 L 12.5 19 C 12.222656 19 12 18.777344 12 18.5 L 12 17.5 C 12 17.222656 12.222656 17 12.5 17 Z "/>
<path style="fill-opacity:.149" d="M 1 0 C 0.445312 0 0 0.445312 0 1 L 0 23 C 0 23.554688 0.445312 24 1 24 L 8.390625 24 L 14.8125 0 Z "/>
</g>
</svg>
