<svg width="24" xmlns="http://www.w3.org/2000/svg" height="24" viewBox="0 0 24 24" xmlns:xlink="http://www.w3.org/1999/xlink">
<defs>
<linearGradient gradientTransform="matrix(.5 0 0 .5 0 -502.1811)" id="linear0" y1="1053.158" y2="1004.847" gradientUnits="userSpaceOnUse" x2="0">
<stop offset="0" style="stop-color:#9e1e4c"/>
<stop offset="1" style="stop-color:#d23759"/>
</linearGradient>
</defs>
<path style="fill:url(#linear0)" d="M 0.972656 0 L 23.027344 0 C 23.566406 0 24 0.433594 24 0.972656 L 24 23.027344 C 24 23.566406 23.566406 24 23.027344 24 L 0.972656 24 C 0.433594 24 0 23.566406 0 23.027344 L 0 0.972656 C 0 0.433594 0.433594 0 0.972656 0 Z "/>
<g style="fill:#fff">
<path d="M 7.625 12.378906 L 4.921875 14.996094 C 5.980469 17.40625 6.824219 18.101562 7.664062 18.777344 Z "/>
<path d="M 9.035156 15.660156 L 18.636719 15.703125 C 16.992188 18.640625 14.796875 21.003906 8.996094 19.566406 Z "/>
<path d="M 19.050781 14.621094 L 16.765625 14.707031 L 16.722656 5.769531 C 18.75 7.871094 20.105469 10.429688 19.050781 14.621094 Z "/>
<path d="M 15.6875 9.84375 L 15.601562 5.023438 C 13.121094 3.5625 11.382812 3.984375 9.660156 4.359375 Z "/>
<path d="M 8.414062 4.898438 L 11.28125 7.597656 L 4.632812 13.707031 C 4.53125 10.773438 4.210938 7.835938 8.414062 4.898438 Z "/>
<path style="fill-opacity:.149" d="M 0 0 L 0 24 L 8.390625 24 L 14.8125 0 Z "/>
</g>
</svg>
