<svg width="24" xmlns="http://www.w3.org/2000/svg" height="24" viewBox="0 0 24 24" xmlns:xlink="http://www.w3.org/1999/xlink">
<defs>
<linearGradient gradientTransform="matrix(.5 0 0 .5 0 -502.1811)" id="linear0" y1="1053.158" y2="1004.847" gradientUnits="userSpaceOnUse" x2="0">
<stop offset="0" style="stop-color:#0075ab"/>
<stop offset="1" style="stop-color:#08b1ff"/>
</linearGradient>
</defs>
<path style="fill:url(#linear0)" d="M 1 0 L 22.949219 0 C 23.53125 0 24 0.433594 24 0.972656 L 24 23.027344 C 24 23.566406 23.53125 24 22.949219 24 L 1 24 C 0.417969 24 0 23.566406 0 23.027344 L 0 1 C 0 0.507812 0.421875 0 1 0 Z "/>
<path style="fill:none;stroke:#fff;stroke-width:1.366" d="M 10.539062 35.476562 L 21.820312 35.476562 L 24 39.320312 L 26.171875 35.476562 L 37.320312 35.476562 C 38.484375 35.476562 39.320312 34.59375 39.320312 33.75 L 39.320312 10.398438 C 39.320312 9.617188 38.5625 8.679688 37.34375 8.679688 L 10.726562 8.679688 C 9.742188 8.679688 8.679688 9.382812 8.679688 10.46875 L 8.679688 33.851562 C 8.679688 34.796875 9.84375 35.476562 10.539062 35.476562 Z " transform="scale(.5)"/>
<g style="fill:#fff">
<path style="fill-rule:evenodd;stroke:#fff;stroke-linejoin:round;stroke-linecap:round;stroke-width:.772" d="M 21.226562 21.554688 C 22.75 20.320312 25.65625 13.09375 28.492188 12.273438 C 31.335938 11.453125 31.421875 12.6875 32.054688 12.625 C 32.695312 12.570312 34.53125 11.570312 34.648438 11.773438 C 34.765625 11.984375 32.195312 15.523438 32.03125 16.117188 C 31.875 16.703125 33.132812 23.664062 30.140625 25.851562 C 27.1875 28.007812 25.265625 27.203125 25.265625 27.203125 L 19.648438 29.171875 L 15.421875 32.570312 C 15.046875 32.648438 13.578125 32.085938 13.859375 31.703125 L 15.835938 29.515625 L 14.117188 29.414062 L 15.84375 27.21875 L 14.789062 26.960938 Z " transform="scale(.5)"/>
<path style="fill-opacity:.149" d="M 1 0 C 0.445312 0 0 0.445312 0 1 L 0 23 C 0 23.554688 0.445312 24 1 24 L 8.390625 24 L 14.8125 0 Z "/>
</g>
</svg>
