<svg width="24" xmlns="http://www.w3.org/2000/svg" height="24" viewBox="0 0 24 24" xmlns:xlink="http://www.w3.org/1999/xlink">
<defs>
<linearGradient gradientTransform="matrix(.5 0 0 .5 0 -502.1811)" id="linear0" y1="1053.158" y2="1004.847" gradientUnits="userSpaceOnUse" x2="0">
<stop offset="0" style="stop-color:#cf9917"/>
<stop offset="1" style="stop-color:#deab0f"/>
</linearGradient>
</defs>
<path style="fill:url(#linear0)" d="M 0.972656 0 L 23.027344 0 C 23.566406 0 24 0.433594 24 0.972656 L 24 23.027344 C 24 23.566406 23.566406 24 23.027344 24 L 0.972656 24 C 0.433594 24 0 23.566406 0 23.027344 L 0 0.972656 C 0 0.433594 0.433594 0 0.972656 0 Z "/>
<g style="fill:#fff">
<path d="M 12 4 C 9.226562 4 6.960938 6.25 6.960938 9 C 6.960938 10.585938 7.8125 11.902344 8.976562 12.8125 L 8.976562 16 L 15.023438 16 L 15.023438 12.8125 C 16.1875 11.902344 17.039062 10.585938 17.039062 9 C 17.039062 6.25 14.773438 4 12 4 Z M 12 6 C 13.683594 6 15.023438 7.332031 15.023438 9 C 15.023438 10.117188 14.425781 11.039062 13.511719 11.5625 L 13.007812 11.875 L 13.007812 14 L 10.992188 14 L 10.992188 11.875 L 10.488281 11.5625 C 9.582031 11.042969 8.976562 10.121094 8.976562 9.003906 C 8.976562 7.332031 10.316406 6.003906 12 6.003906 Z "/>
<path d="M 9.984375 19 L 9.984375 20 L 14.015625 20 L 14.015625 19 Z "/>
<path d="M 8.976562 17 L 8.976562 18 L 15.023438 18 L 15.023438 17 Z "/>
<path style="fill-opacity:.349" d="M 10.992188 9 L 10.992188 10 L 13.007812 10 L 13.007812 9 Z "/>
<path style="fill-opacity:.149" d="M 1 0 C 0.445312 0 0 0.445312 0 1 L 0 23 C 0 23.554688 0.445312 24 1 24 L 8.390625 24 L 14.8125 0 Z "/>
</g>
</svg>
