<svg width="24" xmlns="http://www.w3.org/2000/svg" height="24" viewBox="0 0 24 24" xmlns:xlink="http://www.w3.org/1999/xlink">
<defs>
<linearGradient gradientTransform="matrix(.5 0 0 .5 0 -502.1811)" id="linear0" y1="1053.158" y2="1004.847" gradientUnits="userSpaceOnUse" x2="0">
<stop offset="0" style="stop-color:#52a2cc"/>
<stop offset="1" style="stop-color:#59b2e0"/>
</linearGradient>
</defs>
<path style="fill:url(#linear0)" d="M 0.972656 0 L 23.027344 0 C 23.566406 0 24 0.433594 24 0.972656 L 24 23.027344 C 24 23.566406 23.566406 24 23.027344 24 L 0.972656 24 C 0.433594 24 0 23.566406 0 23.027344 L 0 0.972656 C 0 0.433594 0.433594 0 0.972656 0 Z "/>
<g style="fill:none;stroke:#fff">
<path style="stroke-linecap:round;stroke-width:.79" d="M 33.057907 27.315257 C 33.057907 32.34301 28.980974 36.419943 23.953221 36.419943 C 18.925467 36.419943 14.848534 32.34301 14.848534 27.315257 C 14.848534 22.287503 18.925467 18.215208 23.953221 18.215208 C 28.980974 18.215208 33.057907 22.287503 33.057907 27.315257 Z " transform="matrix(.8422 0 0 .8422 -8.17341 -11.00491)"/>
<path style="stroke-width:.621" d="M 29.168812 24.13361 C 29.168812 25.403446 28.139807 26.432451 26.869971 26.432451 C 25.600135 26.432451 24.57113 25.403446 24.57113 24.13361 C 24.57113 22.867423 25.600135 21.838418 26.869971 21.838418 C 28.139807 21.838418 29.168812 22.867423 29.168812 24.13361 Z " transform="matrix(1.07051 0 0 1.07051 -16.76463 -13.83532)"/>
<g style="stroke-linecap:round;stroke-linejoin:round">
<path d="M 24.481443 1024.695721 L 34.827725 1024.695721 " transform="matrix(.66524 0 0 .66524 -3.96584 -672.11121)"/>
<path d="M 27.540701 1029.469573 L 24.745678 1039.815855 " transform="matrix(.66524 0 0 .66524 -3.96584 -672.11121)"/>
<path d="M 20.341756 1028.970462 L 17.235522 1019.105675 " transform="matrix(.66524 0 0 .66524 -3.96584 -672.11121)"/>
</g>
</g>
<g style="fill:#fff">
<path d="M 13.503906 12 C 13.503906 12.832031 12.832031 13.507812 12 13.507812 C 11.167969 13.507812 10.496094 12.832031 10.496094 12 C 10.496094 11.171875 11.167969 10.496094 12 10.496094 C 12.832031 10.496094 13.503906 11.171875 13.503906 12 Z "/>
<path style="fill-opacity:.149" d="M 1 0 C 0.445312 0 0 0.445312 0 1 L 0 23 C 0 23.554688 0.445312 24 1 24 L 8.390625 24 L 14.8125 0 Z "/>
</g>
</svg>
