<svg width="24" xmlns="http://www.w3.org/2000/svg" height="24" viewBox="0 0 24 24" xmlns:xlink="http://www.w3.org/1999/xlink">
<defs>
<linearGradient gradientTransform="matrix(.5 0 0 -.5 0 526.18111)" id="linear0" y1="1053.158" y2="1004.847" gradientUnits="userSpaceOnUse" x2="0">
<stop offset="0" style="stop-color:#26c1ef"/>
<stop offset="1" style="stop-color:#2f5bbc"/>
</linearGradient>
</defs>
<path style="fill:url(#linear0)" d="M 0.972656 24 L 23.027344 24 C 23.5625 24 24 23.566406 24 23.027344 L 24 0.972656 C 24 0.433594 23.5625 0 23.027344 0 L 0.972656 0 C 0.433594 0 0 0.433594 0 0.972656 L 0 23.027344 C 0 23.566406 0.433594 24 0.972656 24 Z "/>
<g style="fill:#fff">
<path d="M 12.714844 18.992188 L 12.714844 18.390625 C 12.710938 18.058594 12.738281 17.371094 12.71875 16.863281 C 12.664062 15.566406 12.660156 15.472656 12.609375 15.503906 C 12.585938 15.519531 12.5625 15.433594 12.558594 15.308594 C 12.554688 15.1875 12.492188 14.992188 12.417969 14.878906 C 12.015625 14.253906 11.820312 13.988281 11.496094 13.625 C 11.300781 13.402344 11.140625 13.191406 11.140625 13.152344 C 11.140625 13.113281 11.082031 13.03125 11.007812 12.964844 C 10.671875 12.664062 10 11.472656 9.917969 11.027344 C 9.894531 10.890625 9.875 10.476562 9.875 10.105469 C 9.878906 9.523438 9.917969 9.316406 10.171875 8.558594 C 10.332031 8.074219 10.484375 7.507812 10.511719 7.292969 C 10.5625 6.914062 10.554688 6.894531 10.3125 6.664062 C 10.175781 6.535156 9.882812 6.332031 9.667969 6.214844 L 9.273438 6 L 8.527344 6.082031 C 6.578125 6.304688 5.417969 6.878906 4.292969 8.1875 C 4.003906 8.527344 3.914062 8.488281 4.089844 8.101562 C 4.25 7.75 5.039062 6.90625 5.214844 6.90625 C 5.238281 6.90625 5.429688 6.796875 5.636719 6.664062 C 6.359375 6.195312 7.070312 5.957031 8.523438 5.691406 C 9.378906 5.539062 9.574219 5.480469 9.664062 5.347656 C 9.917969 4.976562 10.339844 4.625 10.578125 4.578125 C 10.945312 4.511719 11.59375 4.667969 11.820312 4.878906 C 12.132812 5.167969 12.199219 5.496094 12.148438 6.496094 C 12.125 6.984375 12.058594 7.542969 11.996094 7.734375 C 11.9375 7.925781 11.878906 8.269531 11.863281 8.496094 L 11.839844 8.914062 L 12.359375 9.050781 C 12.640625 9.125 13.023438 9.222656 13.207031 9.265625 C 13.773438 9.394531 14.121094 9.511719 14.3125 9.636719 C 14.414062 9.707031 14.597656 9.808594 14.71875 9.871094 C 15.386719 10.199219 15.800781 10.433594 16.21875 10.71875 C 16.480469 10.894531 16.722656 11.039062 16.761719 11.039062 C 16.84375 11.039062 17.253906 11.332031 17.675781 11.699219 C 17.839844 11.84375 18.234375 12.140625 18.550781 12.367188 C 19.449219 13 20.074219 13.507812 19.992188 13.53125 C 19.953125 13.546875 19.832031 13.488281 19.726562 13.402344 C 19.617188 13.320312 19.484375 13.25 19.425781 13.25 C 19.371094 13.25 19.203125 13.171875 19.050781 13.078125 C 18.707031 12.859375 18.484375 12.789062 18.484375 12.890625 C 18.484375 12.933594 18.574219 12.984375 18.738281 13.027344 C 18.910156 13.074219 19.035156 13.152344 19.035156 13.214844 C 19.035156 13.277344 19.105469 13.324219 19.199219 13.328125 C 19.289062 13.328125 19.429688 13.375 19.503906 13.433594 C 19.617188 13.519531 19.628906 13.5625 19.558594 13.648438 C 19.496094 13.71875 19.492188 13.769531 19.546875 13.800781 C 19.589844 13.828125 19.65625 13.914062 19.699219 13.992188 C 19.765625 14.113281 19.738281 14.148438 19.511719 14.242188 C 19.21875 14.363281 18.8125 14.320312 18.714844 14.15625 C 18.679688 14.101562 18.5625 14.019531 18.457031 13.976562 C 18.339844 13.929688 18.296875 13.882812 18.355469 13.863281 C 18.40625 13.84375 18.566406 13.882812 18.707031 13.949219 C 18.851562 14.015625 19.003906 14.058594 19.046875 14.046875 C 19.179688 14 18.644531 13.648438 18.3125 13.566406 C 17.964844 13.476562 16.488281 13.503906 16.082031 13.601562 C 15.839844 13.664062 15.832031 13.667969 16 13.726562 C 16.121094 13.765625 16.195312 13.75 16.238281 13.683594 C 16.285156 13.609375 16.300781 13.625 16.304688 13.742188 C 16.304688 13.886719 16.253906 13.90625 15.804688 13.949219 C 15.53125 13.976562 15.035156 14.078125 14.699219 14.179688 C 14.101562 14.359375 14.089844 14.367188 14.089844 14.597656 C 14.089844 14.730469 14.152344 15.054688 14.230469 15.324219 C 14.335938 15.6875 14.355469 15.894531 14.3125 16.136719 C 14.277344 16.3125 14.265625 16.472656 14.28125 16.488281 C 14.296875 16.507812 14.28125 16.554688 14.246094 16.601562 C 14.1875 16.667969 14.082031 18.085938 14.0625 19.039062 C 14.054688 19.40625 13.945312 19.515625 13.734375 19.382812 C 13.648438 19.328125 13.652344 19.289062 13.742188 19.140625 C 13.808594 19.039062 13.859375 18.757812 13.867188 18.449219 C 13.871094 18.164062 13.90625 17.664062 13.9375 17.34375 C 13.992188 16.835938 13.996094 15.960938 13.953125 14.753906 L 13.945312 14.449219 L 13.445312 14.414062 C 13.171875 14.394531 12.898438 14.367188 12.835938 14.351562 C 12.660156 14.300781 12.695312 14.910156 12.898438 15.464844 C 13.074219 15.929688 13.027344 16.695312 13.027344 17.21875 C 13.023438 17.347656 12.953125 18.007812 12.980469 18.199219 L 13.125 19.253906 C 12.714844 19.648438 12.757812 19.324219 12.714844 18.992188 Z M 12.46875 14.429688 C 12.46875 14.390625 12.433594 14.355469 12.394531 14.355469 C 12.355469 14.355469 12.320312 14.390625 12.320312 14.429688 C 12.320312 14.472656 12.355469 13.789062 12.394531 13.789062 C 12.433594 13.789062 12.46875 14.472656 12.46875 14.429688 Z M 12.335938 13.878906 C 12.3125 13.605469 12.332031 13.472656 12.386719 13.472656 C 12.4375 13.472656 12.46875 13.621094 12.46875 13.859375 C 12.472656 14.300781 12.609375 14.214844 12.621094 13.765625 L 12.628906 13.507812 L 12.703125 13.765625 C 12.808594 14.140625 12.941406 14.242188 12.882812 13.902344 C 12.851562 13.742188 12.863281 13.613281 12.910156 13.582031 C 12.953125 13.554688 12.988281 13.621094 12.988281 13.742188 C 12.992188 13.859375 13.027344 14.019531 13.0625 14.097656 C 13.117188 14.210938 13.121094 14.191406 13.089844 14.007812 C 13.066406 13.878906 13.074219 13.726562 13.109375 13.675781 C 13.148438 13.617188 13.183594 13.6875 13.207031 13.875 C 13.234375 14.097656 13.28125 14.179688 13.390625 14.199219 C 13.511719 14.21875 13.519531 14.207031 13.445312 14.128906 C 13.394531 14.074219 13.355469 13.949219 13.355469 13.84375 C 13.355469 13.667969 13.363281 13.671875 13.484375 13.910156 C 13.554688 14.050781 14.96875 13.378906 15.03125 13.398438 C 15.121094 13.429688 13.816406 14.214844 13.734375 14.117188 C 13.667969 14.035156 13.652344 13.894531 13.6875 13.679688 C 13.726562 13.410156 13.703125 13.316406 13.542969 13.078125 C 13.4375 12.925781 13.367188 12.769531 13.390625 12.734375 C 13.445312 12.644531 13.007812 12.296875 12.777344 12.25 C 12.457031 12.183594 11.996094 11.941406 11.816406 11.75 L 11.648438 11.574219 L 11.832031 11.539062 C 11.984375 11.507812 12.019531 11.539062 12.054688 11.714844 C 12.09375 11.921875 12.242188 12.007812 12.25 11.832031 C 12.253906 11.78125 12.285156 11.8125 12.324219 11.90625 C 12.410156 12.117188 12.617188 12.132812 12.5625 11.921875 C 12.542969 11.839844 12.496094 11.753906 12.460938 11.734375 C 12.429688 11.714844 12.421875 11.648438 12.441406 11.589844 C 12.472656 11.511719 12.417969 11.464844 12.253906 11.433594 C 12.109375 11.40625 12.027344 11.34375 12.027344 11.265625 C 12.027344 11.199219 11.929688 11.027344 11.808594 10.882812 C 11.667969 10.710938 11.613281 11.828125 11.640625 11.730469 C 11.683594 11.5625 11.050781 12.332031 10.878906 12.441406 C 10.824219 12.476562 11.214844 10.371094 11.257812 10.371094 C 11.375 10.375 11.761719 10.644531 11.640625 10.691406 C 11.582031 10.714844 11.363281 10.691406 11.320312 10.667969 C 11.269531 10.636719 10.988281 10.640625 11.019531 10.769531 C 11.046875 10.878906 11.03125 11.039062 10.984375 11.125 C 10.917969 11.253906 10.921875 11.300781 11.019531 11.371094 C 11.15625 11.46875 11.1875 11.921875 11.058594 11.921875 C 11.011719 11.921875 10.992188 11.847656 11.011719 11.738281 C 11.03125 11.628906 11.003906 11.519531 10.933594 11.460938 C 10.839844 11.382812 12.234375 10.394531 12.265625 10.601562 C 12.300781 10.828125 10.796875 11.953125 10.738281 11.757812 C 10.625 11.367188 15.402344 10.535156 15.324219 10.675781 C 15.285156 10.746094 14.25 13.410156 14.210938 13.386719 C 14.171875 13.363281 12.289062 14.460938 12.289062 14.507812 C 12.289062 14.554688 10.398438 11.734375 10.484375 11.753906 C 10.582031 11.78125 10.605469 11.8125 10.550781 11.847656 C 10.488281 11.886719 11.253906 11.628906 11.332031 11.816406 C 11.46875 12.132812 13.710938 10.96875 13.796875 10.917969 C 13.835938 10.894531 11.894531 13 11.894531 13.074219 C 11.894531 13.28125 11.296875 13.191406 11.402344 13.046875 C 11.484375 12.9375 11.488281 12.949219 11.453125 13.136719 C 11.421875 13.3125 12.660156 12.730469 12.761719 12.695312 C 12.847656 12.660156 11.65625 13.296875 11.65625 13.394531 C 11.65625 13.472656 11.695312 13.558594 11.742188 13.589844 C 11.800781 13.625 11.8125 13.578125 11.789062 13.441406 C 11.757812 13.289062 11.777344 13.25 11.867188 13.265625 C 11.933594 13.277344 12 13.351562 12.015625 13.425781 C 12.03125 13.515625 12.011719 13.542969 11.953125 13.507812 C 11.894531 13.472656 11.875 13.507812 11.890625 13.625 C 11.929688 13.890625 12.101562 13.890625 12.101562 13.625 C 12.101562 13.5 12.128906 13.398438 12.164062 13.398438 C 12.199219 13.398438 12.203125 13.507812 12.175781 13.636719 C 12.132812 13.839844 12.25 14.285156 12.347656 14.285156 C 12.359375 14.285156 12.355469 14.101562 12.335938 13.878906 Z M 13.285156 13.367188 C 13.28125 13.289062 13.300781 13.246094 13.324219 13.269531 C 13.347656 13.296875 13.351562 13.359375 13.332031 13.410156 C 13.308594 13.472656 13.289062 13.453125 13.285156 13.367188 Z M 12.691406 13.289062 C 12.691406 13.226562 12.722656 13.175781 12.761719 13.175781 C 12.800781 13.175781 12.8125 13.226562 12.789062 13.289062 C 12.734375 13.429688 12.691406 13.429688 12.691406 13.289062 Z M 11.21875 12.628906 C 11.21875 12.550781 11.234375 12.507812 11.257812 12.53125 C 11.285156 12.558594 11.285156 12.621094 11.265625 12.675781 C 11.242188 12.734375 11.222656 12.714844 11.21875 12.628906 Z M 11.035156 12.121094 C 11.0625 12.050781 11.105469 12.007812 11.125 12.03125 C 11.148438 12.054688 11.125 12.113281 11.074219 12.164062 C 11.003906 12.234375 10.996094 12.226562 11.035156 12.121094 Z M 11.4375 12.148438 C 11.4375 12.109375 11.46875 12.058594 11.507812 12.035156 C 11.550781 12.007812 11.582031 12.039062 11.582031 12.101562 C 11.582031 12.167969 11.550781 12.21875 11.507812 12.21875 C 11.46875 12.21875 11.4375 12.1875 11.4375 12.148438 Z M 11.214844 12.074219 C 11.214844 12.035156 11.246094 11.984375 11.289062 11.960938 C 11.328125 11.933594 11.363281 11.964844 11.363281 12.027344 C 11.363281 12.09375 11.328125 12.144531 11.289062 12.144531 C 11.246094 12.144531 11.214844 12.113281 11.214844 12.074219 Z M 11.246094 11.6875 C 11.214844 11.632812 11.21875 11.613281 11.25 11.644531 C 11.28125 11.671875 11.367188 11.621094 11.441406 11.53125 C 11.515625 11.441406 11.578125 11.40625 11.582031 11.449219 C 11.582031 11.496094 11.519531 11.589844 11.441406 11.65625 C 11.332031 11.757812 11.292969 11.765625 11.246094 11.6875 Z M 12.171875 11.632812 C 12.171875 11.589844 12.207031 11.554688 12.246094 11.554688 C 12.339844 11.554688 12.339844 11.605469 12.246094 11.664062 C 12.207031 11.691406 12.171875 11.675781 12.171875 11.632812 Z M 11.582031 11.148438 C 11.578125 10.960938 11.566406 10.945312 11.488281 11.042969 C 11.378906 11.1875 11.214844 11.144531 11.214844 10.96875 C 11.214844 10.78125 11.289062 10.738281 11.460938 10.828125 C 11.707031 10.960938 11.988281 11.25 11.925781 11.308594 C 11.894531 11.339844 11.839844 11.316406 11.800781 11.257812 C 11.738281 11.160156 11.722656 11.160156 11.660156 11.257812 C 11.601562 11.34375 11.585938 11.320312 11.582031 11.148438 Z M 14.054688 13.988281 C 13.894531 13.8125 13.796875 13.796875 13.796875 13.953125 C 13.796875 14.015625 13.097656 13.359375 13.191406 13.394531 C 13.414062 13.480469 14.214844 14.167969 14.054688 13.988281 Z M 19.472656 14.042969 C 19.484375 14.09375 19.320312 14.03125 19.207031 13.953125 C 19.011719 13.8125 19.070312 13.664062 19.179688 13.804688 C 19.460938 14.171875 19.410156 13.859375 19.40625 13.722656 Z M 14.410156 13.878906 C 14.265625 13.6875 14.015625 13.628906 14.015625 13.789062 C 14.015625 13.9375 12.496094 10.984375 12.6875 10.984375 C 12.859375 10.984375 14.539062 14.058594 14.410156 13.878906 Z M 14.828125 13.804688 C 14.730469 13.6875 14.460938 13.652344 14.460938 13.753906 C 14.460938 13.863281 14.941406 12.097656 15.128906 12.097656 C 15.28125 12.097656 14.90625 13.898438 14.828125 13.804688 Z M 13.128906 11.433594 C 13.070312 11.339844 14.976562 13.671875 14.976562 13.765625 C 14.976562 13.808594 11.757812 9.753906 11.84375 9.753906 C 11.925781 9.753906 13.152344 11.472656 13.128906 11.433594 Z M 15.726562 13.714844 C 15.675781 13.695312 15.609375 13.699219 15.585938 13.722656 C 15.5625 13.746094 15.414062 12.894531 15.492188 12.890625 C 15.578125 12.886719 15.785156 13.738281 15.726562 13.714844 Z M 18.527344 13.421875 C 18.480469 13.285156 18.664062 13.152344 18.664062 13.28125 C 18.664062 13.34375 18.5 13.347656 18.566406 13.347656 C 18.628906 13.347656 18.542969 13.46875 18.527344 13.421875 Z M 16.746094 13.230469 C 16.746094 13.203125 16.816406 12.957031 16.757812 12.957031 C 16.738281 12.957031 17.941406 12.066406 18.03125 12.164062 C 18.125 12.261719 17.105469 13.296875 17.160156 13.273438 C 17.21875 13.253906 16.746094 13.242188 16.746094 13.230469 Z M 16.101562 11.054688 C 16.101562 10.941406 18.15625 13.015625 18.066406 13.070312 C 18.003906 13.109375 18.015625 13.152344 18.113281 13.226562 C 18.269531 13.339844 16.101562 11.148438 16.101562 11.054688 Z M 14.238281 13.128906 C 14.015625 13.070312 13.800781 12.988281 13.761719 12.949219 C 13.664062 12.855469 13.769531 12.863281 14.195312 12.992188 C 14.394531 13.054688 14.691406 13.101562 14.859375 13.09375 L 15.160156 13.089844 L 18.027344 12.824219 C 18.171875 12.8125 15.050781 13.328125 14.925781 13.304688 C 14.621094 13.253906 13.757812 12.6875 13.882812 12.640625 C 13.953125 12.617188 13.933594 12.554688 13.804688 12.417969 L 13.632812 12.226562 L 13.875 12.234375 C 14.003906 12.238281 14.175781 12.300781 14.25 12.375 C 14.40625 12.53125 15.011719 10.734375 15.238281 10.613281 C 15.355469 10.550781 15.402344 10.550781 15.425781 10.613281 C 15.441406 10.660156 15.503906 10.699219 15.566406 10.699219 C 15.660156 10.699219 15.664062 10.675781 15.589844 10.585938 C 15.511719 10.496094 15.523438 10.476562 15.652344 10.476562 C 15.773438 10.476562 15.808594 10.519531 15.808594 10.679688 L 16.480469 13.097656 L 15.53125 12.484375 C 15.421875 12.410156 15.632812 12.261719 15.621094 12.25 C 15.609375 12.238281 15.417969 12.207031 15.195312 12.179688 C 14.902344 12.144531 14.820312 12.152344 14.902344 12.210938 C 15 12.277344 14.996094 12.289062 14.886719 12.289062 C 14.820312 12.292969 14.71875 12.230469 14.667969 12.152344 C 14.558594 12 13.964844 11.902344 13.917969 12.03125 C 13.902344 12.074219 13.804688 12.015625 13.699219 11.902344 C 13.539062 11.734375 13.453125 11.703125 13.207031 11.71875 C 13.039062 11.730469 12.910156 11.777344 12.910156 11.828125 C 12.910156 11.949219 13.082031 12.039062 13.117188 11.9375 C 13.160156 11.800781 13.257812 11.835938 13.304688 12.003906 C 13.324219 12.089844 13.378906 12.136719 13.417969 12.113281 C 13.460938 12.085938 13.476562 12.007812 13.457031 11.9375 C 13.421875 11.828125 13.425781 11.828125 13.5 11.945312 C 13.546875 12.019531 13.570312 12.121094 13.550781 12.175781 C 13.53125 12.230469 13.550781 12.308594 13.59375 12.355469 C 13.742188 12.503906 13.601562 12.511719 13.445312 12.363281 C 13.214844 12.148438 13.191406 12.183594 13.375 12.472656 C 13.464844 12.613281 13.582031 12.730469 13.640625 12.730469 C 13.714844 12.734375 13.71875 12.757812 13.65625 12.835938 C 13.511719 13.011719 13.824219 12.851562 14.320312 12.867188 C 14.558594 12.875 14.597656 13.226562 14.238281 13.128906 Z M 14.40625 12.347656 C 14.226562 12.265625 14.195312 12.179688 14.308594 12.109375 C 14.347656 12.085938 14.449219 12.132812 14.53125 12.214844 C 14.765625 12.449219 14.71875 12.5 14.40625 12.347656 Z M 16.070312 13.140625 C 16.15625 13.050781 15.996094 13.019531 15.71875 13.066406 C 15.316406 13.132812 15.433594 11.054688 15.835938 10.996094 C 16.003906 10.972656 16.050781 13.160156 16.070312 13.140625 Z M 16.597656 13.191406 C 16.597656 13.113281 16.441406 12.957031 16.363281 12.957031 C 16.269531 12.957031 17.546875 11.925781 17.648438 11.96875 C 17.792969 12.023438 16.597656 13.257812 16.597656 13.191406 Z M 17.78125 13.136719 C 17.78125 13.125 17.679688 13.082031 17.558594 13.039062 C 17.351562 12.96875 17.339844 12.972656 17.410156 13.101562 C 17.457031 13.191406 15.472656 11.382812 15.570312 11.355469 C 15.652344 11.335938 17.78125 13.148438 17.78125 13.136719 Z M 14.867188 12.808594 C 14.839844 12.765625 14.785156 12.734375 14.746094 12.734375 C 14.707031 12.734375 14.691406 12.765625 14.71875 12.808594 C 14.742188 12.847656 13.644531 10.386719 13.683594 10.386719 C 13.726562 10.386719 14.890625 12.847656 14.867188 12.808594 Z M 16.007812 12.769531 C 16.007812 12.679688 15.976562 12.671875 15.875 12.726562 C 15.800781 12.769531 15.660156 12.78125 15.566406 12.753906 C 15.449219 12.722656 17.917969 12.046875 17.953125 12.105469 C 18.035156 12.238281 16.007812 12.90625 16.007812 12.769531 Z M 14.609375 12.734375 C 14.609375 12.695312 14.558594 12.660156 14.496094 12.660156 C 14.4375 12.660156 14.386719 12.695312 14.386719 12.734375 C 14.386719 12.773438 14.535156 12.480469 14.597656 12.480469 C 14.65625 12.480469 14.609375 12.773438 14.609375 12.734375 Z M 16.527344 12.730469 C 16.527344 12.6875 16.492188 12.671875 16.453125 12.699219 C 16.355469 12.753906 13.859375 11.746094 13.957031 11.746094 C 13.996094 11.746094 16.527344 12.773438 16.527344 12.730469 Z M 17.410156 12.699219 C 17.332031 12.601562 17.351562 12.585938 17.550781 12.585938 C 17.675781 12.585938 17.78125 12.554688 17.78125 12.515625 C 17.78125 12.476562 17.734375 12.460938 17.675781 12.484375 C 17.621094 12.503906 17.550781 12.488281 17.523438 12.441406 C 17.496094 12.398438 18.230469 13.234375 18.191406 13.261719 C 18.152344 13.285156 17.65625 13.058594 17.597656 13.011719 C 17.542969 12.964844 16.996094 12.988281 16.839844 13 C 16.683594 13.011719 16.398438 12.230469 16.457031 12.257812 C 17.339844 12.679688 16.722656 13.121094 16.640625 13.113281 C 16.554688 13.109375 16.035156 12.121094 16.023438 12.050781 C 15.992188 11.882812 16.097656 11.890625 16.394531 12.070312 C 16.667969 12.238281 17.378906 12.277344 17.425781 12.128906 C 17.472656 11.992188 17.699219 12.121094 17.835938 12.359375 C 17.929688 12.523438 18.003906 12.570312 18.117188 12.542969 C 18.207031 12.519531 18.308594 12.550781 18.367188 12.617188 C 18.417969 12.683594 18.488281 12.734375 18.523438 12.734375 C 18.628906 12.734375 18.355469 13.042969 18.191406 12.992188 C 18.109375 12.964844 18.097656 13.230469 18.039062 13.136719 C 17.976562 13.039062 16.292969 12.949219 16.171875 12.902344 C 16.054688 12.851562 16.335938 12.980469 16.335938 12.945312 C 16.335938 12.910156 16.699219 12.472656 16.632812 12.472656 C 16.527344 12.472656 17.046875 11.660156 17.191406 11.8125 C 17.433594 12.070312 17.730469 13.246094 17.347656 13.128906 C 17.199219 13.085938 16.625 12.019531 16.59375 12.035156 C 16.566406 12.054688 16.519531 12.019531 16.496094 11.957031 C 16.449219 11.828125 16.617188 11.738281 16.789062 11.804688 C 16.871094 11.835938 16.898438 11.8125 16.878906 11.71875 C 16.867188 11.648438 15.261719 13.226562 15.085938 13.140625 C 14.703125 12.949219 16.082031 11.175781 16.273438 11.195312 C 16.351562 11.203125 16.480469 11.203125 16.5625 11.195312 C 16.683594 11.1875 15.089844 12.949219 15.203125 12.742188 L 15.132812 13.226562 C 15.449219 12.503906 5.476562 16.238281 16.082031 11.054688 C 16.1875 11 15.9375 11.183594 15.9375 11.140625 C 15.933594 11.015625 15.492188 11.054688 15.492188 11.179688 C 15.492188 11.257812 15.457031 11.25 15.347656 11.148438 C 15.265625 11.078125 15.21875 10.988281 15.242188 10.949219 C 15.265625 10.914062 15.242188 10.835938 15.195312 10.777344 C 15.121094 10.6875 15.144531 10.667969 15.335938 10.667969 C 15.464844 10.667969 15.566406 10.703125 15.566406 10.746094 C 15.566406 10.789062 15.605469 10.800781 15.65625 10.769531 C 15.722656 10.726562 15.722656 10.710938 15.65625 10.6875 C 15.605469 10.667969 15.058594 12.46875 15.566406 10.570312 C 15.566406 10.492188 15.105469 13.128906 14.984375 13.128906 C 14.957031 13.128906 14.953125 10.230469 15.042969 10.328125 C 15.179688 10.476562 15.191406 10.519531 15.105469 10.570312 C 14.941406 10.664062 14.882812 11.003906 15.011719 11.109375 C 15.074219 11.160156 15.105469 11.230469 15.085938 11.261719 C 15.066406 11.292969 15.230469 11.34375 15.453125 11.371094 C 15.714844 11.40625 15.863281 11.457031 15.863281 11.519531 C 15.863281 11.574219 15.882812 11.671875 15.910156 11.742188 C 15.953125 11.851562 15.929688 11.863281 15.746094 11.820312 C 15.625 11.789062 15.480469 11.707031 15.417969 11.632812 C 15.289062 11.476562 15.050781 11.378906 15.050781 11.484375 C 15.050781 11.523438 15.078125 11.554688 15.117188 11.554688 C 15.152344 11.554688 15.199219 11.621094 15.21875 11.703125 C 15.246094 11.808594 15.222656 11.847656 15.121094 11.847656 C 14.972656 11.847656 14.800781 11.601562 14.847656 11.457031 C 14.863281 11.410156 14.78125 11.335938 14.664062 11.296875 C 14.484375 11.234375 13.355469 12.160156 13.171875 11.808594 C 13.164062 11.792969 14.140625 10.75 14.101562 10.773438 C 13.992188 10.839844 14.226562 11.210938 14.480469 11.378906 C 14.640625 11.484375 14.683594 11.5625 14.664062 11.714844 C 14.636719 11.890625 14.667969 11.921875 14.945312 12 C 15.117188 12.046875 15.355469 12.0625 15.476562 12.039062 C 15.636719 12 15.707031 12.019531 15.738281 12.101562 C 15.761719 12.167969 15.847656 12.21875 15.929688 12.21875 C 16.007812 12.21875 16.125 12.273438 16.191406 12.335938 C 16.335938 12.480469 16.28125 12.570312 16.128906 12.445312 C 16.054688 12.386719 16.007812 12.382812 15.972656 12.4375 C 15.949219 12.480469 16.003906 12.542969 16.097656 12.578125 C 16.296875 12.652344 16.378906 12.621094 16.378906 12.46875 C 16.378906 12.40625 16.410156 12.378906 16.453125 12.402344 C 16.496094 12.429688 16.507812 12.480469 16.484375 12.519531 C 16.460938 12.554688 16.476562 12.585938 16.519531 12.585938 C 16.5625 12.585938 16.597656 12.546875 16.597656 12.5 C 16.597656 12.433594 16.625 12.4375 16.691406 12.507812 C 16.765625 12.585938 16.765625 12.613281 16.691406 12.640625 C 16.460938 12.722656 16.640625 12.808594 17.050781 12.808594 C 17.445312 12.808594 17.492188 12.792969 17.410156 12.699219 Z M 17.082031 12.667969 C 17.058594 12.628906 17.070312 12.578125 17.109375 12.554688 C 17.148438 12.53125 17.199219 12.542969 17.222656 12.582031 C 17.246094 12.617188 17.234375 12.667969 17.195312 12.695312 C 17.15625 12.71875 17.105469 12.707031 17.082031 12.667969 Z M 16.820312 12.585938 C 16.820312 12.546875 16.855469 12.511719 16.894531 12.511719 C 16.933594 12.511719 16.96875 12.546875 16.96875 12.585938 C 16.96875 12.628906 16.933594 12.660156 16.894531 12.660156 C 16.855469 12.660156 16.820312 12.628906 16.820312 12.585938 Z M 16.105469 11.644531 C 16.078125 11.574219 16.023438 11.492188 15.980469 11.464844 C 15.9375 11.4375 15.925781 11.394531 15.949219 11.367188 C 16.003906 11.3125 16.453125 11.625 16.453125 11.714844 C 16.453125 11.832031 16.152344 11.773438 16.105469 11.644531 Z M 15.804688 12.546875 C 15.847656 12.335938 15.753906 12.230469 15.683594 12.410156 C 15.621094 12.578125 15.628906 12.734375 15.707031 12.734375 C 15.742188 12.734375 15.785156 12.652344 15.804688 12.546875 Z M 14.238281 12.53125 C 14.238281 12.5 14.171875 12.433594 14.089844 12.382812 C 13.929688 12.28125 13.890625 12.355469 14.03125 12.5 C 14.132812 12.597656 14.238281 12.613281 14.238281 12.53125 Z M 12.957031 12.125 C 12.886719 12.070312 12.820312 11.980469 12.808594 11.921875 C 12.75 11.625 12.542969 11.40625 12.542969 11.636719 C 12.542969 11.796875 12.851562 12.21875 12.96875 12.21875 C 13.070312 12.21875 13.070312 12.207031 12.957031 12.125 Z M 14.34375 11.832031 C 14.421875 11.757812 14.410156 11.726562 14.285156 11.664062 C 14.171875 11.609375 14.136719 11.53125 14.152344 11.390625 C 14.175781 11.171875 13.96875 11.003906 13.800781 11.109375 C 13.726562 11.15625 13.742188 11.191406 13.863281 11.257812 C 14.035156 11.347656 14.058594 11.664062 13.894531 11.664062 C 13.847656 11.664062 13.785156 11.691406 13.753906 11.71875 C 13.722656 11.75 13.785156 11.773438 13.890625 11.773438 C 13.996094 11.773438 14.101562 11.808594 14.128906 11.847656 C 14.1875 11.945312 14.222656 11.941406 14.34375 11.832031 Z M 13.164062 11.3125 C 13.105469 11.277344 13.058594 11.195312 13.058594 11.125 C 13.058594 11.050781 12.941406 10.953125 12.761719 10.878906 C 12.484375 10.757812 12.46875 10.761719 12.46875 10.886719 C 12.46875 10.976562 12.542969 11.035156 12.691406 11.0625 C 12.875 11.101562 12.910156 11.144531 12.910156 11.324219 C 12.910156 11.574219 13.054688 11.660156 13.183594 11.488281 C 13.25 11.394531 13.246094 11.355469 13.164062 11.3125 Z M 13.613281 11.554688 C 13.554688 11.460938 13.5 11.460938 13.5 11.554688 C 13.5 11.59375 13.535156 11.628906 13.578125 11.628906 C 13.621094 11.628906 13.636719 11.59375 13.613281 11.554688 Z M 16.132812 12.988281 C 15.917969 12.867188 16.746094 11.234375 16.746094 11.335938 C 16.746094 11.425781 17.050781 11.550781 17.144531 11.496094 C 17.179688 11.476562 16.230469 13.039062 16.132812 12.988281 Z M 13.542969 11.066406 C 13.519531 11.003906 13.472656 10.972656 13.433594 10.996094 C 13.394531 11.019531 13.402344 11.113281 13.453125 11.222656 C 13.515625 11.351562 13.546875 11.371094 13.5625 11.289062 C 13.578125 11.226562 13.566406 11.125 13.542969 11.066406 Z M 10.230469 11.09375 C 10.210938 11.042969 13.207031 10.339844 13.207031 10.441406 C 13.207031 10.542969 10.210938 11.328125 10.230469 11.277344 C 10.25 11.226562 10.25 11.144531 10.230469 11.09375 Z M 10.847656 11.179688 C 10.847656 11.144531 10.8125 11.113281 10.773438 11.113281 C 10.730469 11.113281 13.429688 11.054688 13.429688 11.117188 C 13.429688 11.179688 10.730469 11.320312 10.773438 11.296875 C 10.8125 11.269531 10.847656 11.21875 10.847656 11.179688 Z M 12.542969 11.238281 C 12.542969 11.1875 12.476562 11.105469 12.398438 11.058594 C 12.308594 11 12.25 10.867188 12.234375 10.691406 C 12.214844 10.480469 13.226562 11.675781 13.117188 11.65625 C 13.035156 11.640625 11.945312 12.96875 11.917969 12.921875 C 11.886719 12.878906 11.8125 10.3125 11.820312 10.464844 C 11.828125 10.722656 11.953125 10.878906 11.953125 10.632812 C 11.953125 10.570312 11.980469 10.519531 12.019531 10.519531 C 12.105469 10.519531 12.171875 10.710938 12.171875 10.957031 C 12.171875 11.171875 12.289062 11.332031 12.445312 11.332031 C 12.5 11.332031 12.542969 11.289062 12.542969 11.238281 Z M 14.796875 11.054688 C 14.785156 10.9375 14.726562 10.84375 14.65625 10.828125 C 14.589844 10.816406 13.179688 12.449219 13.179688 12.402344 C 13.179688 12.339844 14.511719 10.660156 14.453125 10.71875 C 14.394531 10.78125 14.417969 10.863281 14.539062 11.03125 C 14.75 11.3125 14.824219 11.320312 14.796875 11.054688 Z M 13.277344 10.773438 C 13.21875 10.707031 13.21875 10.632812 13.28125 10.519531 C 13.382812 10.328125 13.324219 10.246094 13.171875 10.371094 C 13.058594 10.464844 13.015625 10.894531 13.105469 10.988281 C 13.132812 11.015625 13.199219 11 13.253906 10.953125 C 13.328125 10.894531 13.332031 10.84375 13.277344 10.773438 Z M 13.886719 10.816406 L 14.011719 10.59375 L 15.054688 13.617188 C 15.101562 13.75 11.6875 10.9375 11.6875 10.847656 C 11.6875 10.703125 13.546875 10.414062 13.4375 10.546875 C 13.371094 10.625 13.375 10.667969 13.453125 10.730469 C 13.507812 10.777344 13.574219 10.792969 13.601562 10.765625 C 13.625 10.738281 13.648438 10.789062 13.648438 10.878906 C 13.648438 11.101562 13.738281 11.078125 13.886719 10.816406 Z M 10.773438 10.816406 C 10.941406 10.648438 10.703125 11.238281 10.582031 11.238281 C 10.496094 11.238281 10.558594 10.808594 10.554688 10.910156 C 10.550781 11 10.617188 10.972656 10.773438 10.816406 Z M 15.273438 11.28125 C 15.214844 11.183594 15.789062 10.722656 15.789062 10.816406 C 15.789062 10.855469 15.824219 10.890625 15.867188 10.890625 C 15.910156 10.890625 15.296875 11.320312 15.273438 11.28125 Z M 10.152344 10.613281 C 10.078125 10.539062 12.820312 10.863281 12.882812 10.960938 C 12.929688 11.035156 11.347656 12.296875 11.375 12.222656 C 11.390625 12.171875 10.175781 10.640625 10.152344 10.613281 Z M 12.730469 10.652344 C 12.640625 10.601562 12.621094 10.527344 12.652344 10.367188 C 12.710938 10.105469 14.183594 10.484375 14.019531 10.730469 C 13.910156 10.902344 12.332031 10.519531 12.523438 10.65625 C 12.636719 10.738281 12.753906 10.785156 12.789062 10.761719 C 12.828125 10.742188 12.800781 10.691406 12.730469 10.652344 Z M 10.882812 10.054688 C 10.929688 10.015625 10.886719 10.007812 10.773438 10.042969 L 10.585938 10.097656 L 10.734375 9.929688 L 10.882812 9.757812 L 10.644531 9.933594 C 10.375 10.125 10.339844 10.191406 10.53125 10.125 C 10.601562 10.097656 10.570312 10.148438 10.457031 10.230469 C 10.347656 10.316406 10.492188 8.828125 10.492188 8.867188 C 10.492188 8.929688 10.660156 10.257812 10.882812 10.054688 Z M 11.71875 11.039062 C 11.65625 10.941406 14.753906 10.351562 14.753906 10.449219 C 14.753906 10.488281 14.808594 10.519531 14.871094 10.519531 C 14.933594 10.519531 11.742188 11.078125 11.71875 11.039062 Z M 11.140625 10.332031 C 11.140625 10.316406 11.289062 11.507812 11.226562 11.507812 C 11.164062 11.507812 10.929688 10.332031 10.957031 10.375 C 11 10.441406 11.140625 10.410156 11.140625 10.332031 Z M 10.183594 10.171875 C 10.183594 10.097656 10.277344 10 10.398438 9.945312 C 10.527344 9.886719 10.601562 9.808594 10.578125 9.75 C 10.558594 9.695312 10.617188 9.597656 10.710938 9.53125 C 10.925781 9.382812 10.992188 9.382812 10.980469 9.542969 C 10.960938 9.804688 10.996094 9.9375 11.070312 9.890625 C 11.117188 9.863281 11.132812 9.796875 11.113281 9.742188 C 11.089844 9.6875 11.121094 9.59375 11.179688 9.535156 C 11.269531 9.441406 11.25 9.417969 11.011719 9.355469 C 10.832031 9.308594 10.792969 9.28125 10.898438 9.273438 C 10.984375 9.269531 11.078125 9.238281 11.101562 9.199219 C 11.121094 9.164062 11.066406 9.148438 10.976562 9.167969 C 10.8125 9.203125 10.703125 8.640625 10.84375 8.527344 C 10.921875 8.460938 10.851562 8.011719 10.910156 8.011719 C 10.972656 8.011719 11.289062 8.929688 11.261719 8.855469 C 11.226562 8.765625 10.742188 7.726562 10.863281 7.765625 C 10.976562 7.800781 11.519531 8.8125 11.492188 8.742188 C 11.4375 8.574219 11.246094 8.585938 11.160156 8.765625 C 11.09375 8.898438 10.695312 7.710938 10.691406 7.609375 C 10.683594 7.441406 11.246094 7.722656 11.296875 7.84375 C 11.316406 7.890625 11.429688 8.484375 11.4375 8.382812 C 11.441406 8.28125 11.464844 8.238281 11.484375 8.289062 C 11.503906 8.339844 10.703125 7.382812 10.765625 7.382812 C 10.847656 7.382812 12.15625 6.269531 12.097656 6.199219 C 12.050781 6.144531 11.609375 8.117188 11.632812 8.027344 C 11.65625 7.933594 11.640625 7.867188 11.59375 7.867188 C 11.546875 7.867188 11.507812 7.933594 11.507812 8.019531 C 11.507812 8.105469 11.476562 8.148438 11.433594 8.121094 C 11.390625 8.097656 11.378906 8.007812 11.402344 7.925781 C 11.433594 7.832031 11.414062 7.75 11.351562 7.710938 C 11.285156 7.667969 11.28125 7.644531 11.339844 7.644531 C 11.386719 7.644531 11.449219 7.675781 11.472656 7.71875 C 11.496094 7.757812 11.554688 7.792969 11.597656 7.792969 C 11.640625 7.792969 11.621094 7.710938 11.554688 7.609375 C 11.40625 7.382812 11.40625 7.34375 11.546875 7.398438 C 11.605469 7.417969 11.65625 7.402344 11.65625 7.355469 C 11.65625 7.3125 11.707031 7.277344 11.769531 7.277344 C 11.828125 7.277344 11.335938 7.433594 11.335938 7.402344 C 11.339844 7.371094 9.328125 5.824219 9.34375 5.652344 C 9.367188 5.402344 11.917969 6.539062 11.820312 6.539062 C 11.730469 6.539062 11.722656 6.519531 11.789062 6.453125 C 11.851562 6.386719 11.816406 6.324219 11.640625 6.195312 C 11.507812 6.097656 11.386719 6.054688 11.363281 6.09375 C 11.335938 6.136719 11.238281 6.121094 11.109375 6.054688 C 10.992188 5.996094 10.878906 5.960938 10.859375 5.984375 C 10.839844 6.003906 10.859375 6.023438 10.90625 6.023438 C 10.953125 6.023438 10.992188 6.054688 10.992188 6.09375 C 10.992188 6.132812 10.941406 6.144531 10.878906 6.121094 C 10.816406 6.097656 10.78125 6.03125 10.800781 5.976562 C 10.847656 5.859375 10.726562 5.769531 10.660156 5.875 C 10.632812 5.921875 10.570312 5.925781 10.480469 5.878906 C 10.410156 5.835938 10.335938 5.820312 10.316406 5.835938 C 10.300781 5.851562 10.289062 5.800781 10.289062 5.722656 C 10.289062 5.550781 10.355469 5.539062 10.503906 5.691406 C 10.644531 5.832031 10.707031 5.832031 10.652344 5.691406 C 10.628906 5.628906 10.644531 5.578125 10.683594 5.578125 C 10.726562 5.578125 10.78125 5.644531 10.808594 5.726562 C 10.835938 5.808594 10.882812 5.875 10.917969 5.875 C 10.953125 5.875 11.042969 5.894531 11.117188 5.917969 C 11.21875 5.949219 11.226562 5.945312 11.152344 5.890625 C 11.082031 5.839844 11.074219 5.804688 11.132812 5.769531 C 11.179688 5.742188 10.589844 5.8125 10.589844 5.769531 C 10.589844 5.730469 11.179688 5.589844 11.140625 5.617188 C 11.101562 5.640625 11.066406 5.628906 11.066406 5.585938 C 11.066406 5.542969 11.015625 5.527344 10.957031 5.550781 C 10.894531 5.574219 10.847656 5.558594 10.847656 5.511719 C 10.847656 5.46875 10.886719 5.429688 10.9375 5.429688 C 11 5.429688 10.992188 5.40625 10.917969 5.359375 C 10.828125 5.296875 10.828125 5.285156 10.914062 5.285156 C 10.972656 5.285156 11.078125 5.339844 11.15625 5.40625 C 11.28125 5.523438 11.507812 7.128906 11.601562 6.996094 C 11.738281 6.8125 9.929688 5.847656 9.574219 5.773438 C 9.292969 5.714844 10.265625 4.953125 10.207031 5.011719 C 10.191406 5.03125 10.167969 5.140625 10.160156 5.257812 C 10.152344 5.382812 10.085938 5.5 9.996094 5.546875 C 9.796875 5.65625 9.761719 5.609375 9.917969 5.4375 C 9.992188 5.355469 10.035156 5.25 10.019531 5.203125 C 9.992188 5.121094 9.664062 5.5625 9.664062 5.679688 C 9.613281 5.804688 9.523438 5.8125 9.886719 5.996094 C 9.976562 6.039062 11.914062 5.398438 11.753906 5.570312 L 12.085938 6.195312 L 11.933594 6.972656 C 11.800781 7.644531 11.488281 8.902344 11.277344 9.402344 C 11.097656 9.832031 11.742188 6.335938 11.847656 6.335938 C 11.875 6.335938 11.679688 8.214844 11.804688 8.101562 C 11.925781 7.992188 10.613281 8.992188 10.558594 9.066406 C 10.476562 9.171875 11.636719 8.105469 11.722656 8.105469 C 11.78125 8.105469 10.582031 9.257812 10.476562 9.339844 C 10.375 9.417969 10.242188 9.476562 10.183594 9.46875 C 10.109375 9.457031 11.695312 8.492188 11.679688 8.625 C 11.660156 8.8125 11.621094 8.59375 11.773438 8.550781 C 11.921875 8.511719 10.351562 9.789062 10.25 9.871094 C 10.117188 9.984375 10.324219 8.238281 10.421875 8.238281 C 10.460938 8.238281 13.648438 9.90625 13.648438 9.835938 Z M 10.824219 8.816406 C 10.875 8.765625 10.9375 8.742188 10.957031 8.765625 C 10.980469 8.789062 10.941406 8.828125 10.867188 8.855469 C 10.761719 8.898438 10.753906 8.886719 10.824219 8.816406 Z M 10.664062 8.648438 C 10.761719 8.496094 11.066406 8.332031 11.066406 8.429688 C 11.066406 8.503906 10.859375 8.667969 10.820312 8.625 C 10.796875 8.601562 10.753906 8.636719 10.730469 8.703125 C 10.703125 8.769531 10.652344 8.824219 10.613281 8.824219 C 10.578125 8.824219 10.597656 8.746094 10.664062 8.648438 Z M 11.65625 7.054688 C 11.65625 7.015625 11.601562 6.980469 11.535156 6.980469 C 11.464844 6.980469 11.429688 6.960938 11.453125 6.9375 C 11.515625 6.875 11.804688 6.976562 11.804688 7.058594 C 11.804688 7.097656 11.769531 7.128906 11.730469 7.128906 C 11.691406 7.128906 11.65625 7.09375 11.65625 7.054688 Z M 11.628906 6.714844 C 11.601562 6.648438 11.597656 6.574219 11.617188 6.554688 C 11.636719 6.535156 11.675781 6.574219 11.703125 6.640625 C 11.726562 6.710938 11.734375 6.78125 11.710938 6.800781 C 11.691406 6.824219 11.652344 6.785156 11.628906 6.714844 Z M 11.382812 6.464844 C 11.386719 6.382812 11.417969 6.316406 11.453125 6.316406 C 11.53125 6.316406 11.523438 6.519531 11.441406 6.570312 C 11.402344 6.597656 11.375 6.546875 11.382812 6.464844 Z M 10.339844 5.441406 C 10.195312 5.347656 10.269531 5.101562 10.453125 5.078125 C 10.625 5.050781 10.816406 5.300781 10.734375 5.433594 C 10.679688 5.523438 10.476562 5.523438 10.339844 5.441406 Z M 11.683594 10.117188 C 11.660156 10.054688 11.613281 10.023438 11.574219 10.046875 C 11.472656 10.109375 11.5 9.609375 11.617188 9.609375 C 11.683594 9.609375 11.710938 10.183594 11.683594 10.117188 Z M 11.910156 10.1875 C 11.910156 10.148438 12.453125 10.175781 12.410156 10.175781 C 12.367188 10.175781 12.226562 10.363281 12.253906 10.40625 C 12.3125 10.5 11.910156 10.28125 11.910156 10.1875 Z M 13.613281 9.945312 C 13.554688 9.886719 13.425781 10.019531 13.472656 10.089844 C 13.503906 10.140625 13.539062 10.132812 13.582031 10.070312 C 13.613281 10.015625 13.628906 9.960938 13.613281 9.945312 Z M 12.984375 10.003906 C 12.984375 9.910156 14.167969 10.300781 14.109375 10.394531 C 14.082031 10.4375 12.804688 10.078125 12.871094 10.078125 C 12.933594 10.078125 12.984375 10.046875 12.984375 10.003906 Z M 11.472656 9.929688 C 11.496094 9.890625 11.484375 9.859375 11.445312 9.859375 C 11.402344 9.859375 11.351562 9.890625 11.324219 9.929688 C 11.300781 9.972656 11.3125 10.003906 11.351562 10.003906 C 11.394531 10.003906 11.449219 9.972656 11.472656 9.929688 Z M 12.808594 9.695312 C 12.835938 9.65625 12.78125 11.015625 12.683594 11.027344 C 12.59375 11.042969 12.503906 9.710938 12.488281 9.757812 C 12.453125 9.863281 12.742188 9.804688 12.808594 9.695312 Z M 12.371094 12.519531 C 12.152344 12.417969 13.480469 9.914062 13.441406 9.925781 C 13.324219 9.964844 14.03125 9.847656 14.238281 9.851562 C 14.375 9.855469 12.664062 12.65625 12.371094 12.519531 Z M 11.363281 9.667969 C 11.363281 9.652344 11.328125 9.636719 11.289062 9.636719 C 11.246094 9.636719 11.214844 9.671875 11.214844 9.714844 C 11.214844 9.757812 11.246094 9.773438 11.289062 9.746094 C 11.328125 9.722656 11.363281 9.6875 11.363281 9.667969 Z M 11.804688 9.632812 C 11.804688 9.589844 11.769531 9.574219 11.730469 9.597656 C 11.636719 9.65625 11.636719 9.710938 11.730469 9.710938 C 11.769531 9.710938 11.804688 9.675781 11.804688 9.632812 Z M 12.171875 9.519531 C 12.171875 9.503906 12.140625 9.488281 12.101562 9.488281 C 12.058594 9.488281 12.027344 9.523438 12.027344 9.566406 C 12.027344 9.609375 12.058594 9.625 12.101562 9.597656 C 12.140625 9.574219 12.171875 9.539062 12.171875 9.519531 Z M 13.28125 9.570312 C 13.28125 9.535156 14.730469 14.050781 14.65625 14.027344 C 14.585938 14 12.425781 14.425781 12.367188 14.402344 C 12.304688 14.378906 12.882812 9.398438 12.984375 9.480469 C 13.183594 9.644531 13.28125 9.675781 13.28125 9.570312 Z M 11.582031 9.488281 C 11.582031 9.394531 11.457031 9.394531 11.398438 9.488281 C 11.375 9.527344 11.40625 9.5625 11.46875 9.5625 C 11.53125 9.5625 11.582031 9.527344 11.582031 9.488281 Z M 11.339844 7.566406 C 11.339844 7.523438 11.769531 7.507812 11.730469 7.535156 C 11.636719 7.59375 11.636719 7.644531 11.730469 7.644531 C 11.769531 7.644531 11.339844 7.609375 11.339844 7.566406 Z M 11.078125 7.074219 C 11 6.992188 11.964844 5.984375 12.011719 6.207031 L 11.378906 6.609375 L 12.085938 6.21875 C 12.1875 6.160156 11.101562 7.097656 11.078125 7.074219 Z M 11.472656 5.875 C 11.449219 5.832031 11.394531 5.800781 11.351562 5.800781 C 11.3125 5.800781 11.300781 5.832031 11.324219 5.875 C 11.351562 5.914062 11.402344 5.949219 11.445312 5.949219 C 11.484375 5.949219 11.496094 5.914062 11.472656 5.875 Z M 11.804688 5.765625 C 11.679688 5.613281 11.5 5.617188 11.558594 5.769531 C 11.589844 5.851562 11.621094 5.859375 11.65625 5.800781 C 11.695312 5.742188 11.726562 5.753906 11.757812 5.839844 C 11.785156 5.910156 11.828125 5.949219 11.855469 5.921875 C 11.878906 5.898438 11.859375 5.828125 11.804688 5.765625 Z M 11.179688 6.300781 C 11.121094 6.242188 11.953125 5.433594 11.953125 5.515625 C 11.953125 5.660156 11.363281 6.523438 11.398438 6.414062 C 11.414062 6.367188 11.226562 6.347656 11.179688 6.300781 Z "/>
<path style="fill-opacity:.149" d="M 1 0 C 0.445312 0 0 0.445312 0 1 L 0 23 C 0 23.554688 0.445312 24 1 24 L 8.390625 24 L 14.8125 0 Z "/>
</g>
</svg>
