<svg width="24" xmlns="http://www.w3.org/2000/svg" height="24" viewBox="0 0 24 24" xmlns:xlink="http://www.w3.org/1999/xlink">
<defs>
<linearGradient gradientTransform="matrix(.5 0 0 -.5 .00005 526.18107)" id="linear0" y1="1053.158" y2="1004.847" gradientUnits="userSpaceOnUse" x2="0">
<stop offset="0" style="stop-color:#9cd662"/>
<stop offset="1" style="stop-color:#5dad28"/>
</linearGradient>
</defs>
<path style="fill:url(#linear0)" d="M 0.972656 24 L 23.027344 24 C 23.566406 24 24 23.566406 24 23.027344 L 24 0.972656 C 24 0.433594 23.566406 0 23.027344 0 L 0.972656 0 C 0.433594 0 0 0.433594 0 0.972656 L 0 23.027344 C 0 23.566406 0.433594 24 0.972656 24 Z "/>
<g style="fill:#fff">
<path d="M 10.199219 6.339844 C 8.359375 6.339844 6.847656 7.839844 6.847656 9.679688 C 6.847656 10.859375 7.507812 11.851562 8.441406 12.445312 C 8.46875 12.414062 8.480469 12.367188 8.511719 12.339844 C 8.667969 12.179688 8.882812 12.09375 9.070312 11.96875 C 8.214844 11.550781 7.609375 10.699219 7.609375 9.679688 C 7.609375 8.25 8.769531 7.101562 10.199219 7.101562 C 11.625 7.101562 12.773438 8.25 12.773438 9.679688 C 12.773438 10.441406 12.441406 11.109375 11.921875 11.578125 C 12 11.605469 12.09375 11.59375 12.167969 11.625 C 12.34375 11.699219 12.476562 11.835938 12.632812 11.933594 C 13.183594 11.339844 13.535156 10.550781 13.535156 9.679688 C 13.535156 7.839844 12.039062 6.339844 10.199219 6.339844 Z "/>
<path style="stroke:#fff;stroke-width:2.631" d="M 29.004205 16.659966 C 24.697277 16.659966 21.222954 20.13429 21.222954 24.441218 C 21.222954 24.667357 21.325744 24.86266 21.346303 25.088799 C 21.387419 25.109357 21.428535 25.109357 21.469651 25.129915 C 22.405046 25.52052 23.23765 26.075589 23.936627 26.784845 C 24.645882 27.483821 25.200952 28.316425 25.591556 29.25182 C 25.899928 29.981634 26.023277 30.803959 26.09523 31.626284 C 26.989509 31.986051 27.96602 32.22247 29.004205 32.22247 C 33.300854 32.22247 36.785457 28.737867 36.785457 24.441218 C 36.785457 20.13429 33.300854 16.659966 29.004205 16.659966 Z " transform="matrix(.38002 0 0 .38002 3.86845 2.43451)"/>
</g>
<g style="stroke:#fff;stroke-width:2.631;fill:none">
<path d="M 24.432879 19.069854 C 24.432879 23.366503 20.937997 26.861385 16.641348 26.861385 C 12.344699 26.861385 8.860097 23.366503 8.860097 19.069854 C 8.860097 14.773205 12.344699 11.288602 16.641348 11.288602 C 20.937997 11.288602 24.432879 14.773205 24.432879 19.069854 Z " transform="matrix(.38002 0 0 .38002 4.54705 7.4562)"/>
<path style="stroke-linejoin:round;stroke-linecap:round" d="M 44.045005 23.200525 C 44.045005 34.271077 35.061103 43.254979 23.990551 43.254979 C 12.919999 43.254979 3.936096 34.271077 3.936096 23.200525 C 3.936096 12.129973 12.919999 3.146071 23.990551 3.146071 C 35.061103 3.146071 44.045005 12.129973 44.045005 23.200525 Z " transform="matrix(.38002 0 0 .38002 2.88311 3.18334)"/>
</g>
<path style="fill:#fff;fill-opacity:.149" d="M 1 0 C 0.445312 0 0 0.445312 0 1 L 0 23 C 0 23.554688 0.445312 24 1 24 L 8.390625 24 L 14.8125 0 Z "/>
</svg>
