<svg width="24" xmlns="http://www.w3.org/2000/svg" height="24" viewBox="0 0 24 24" xmlns:xlink="http://www.w3.org/1999/xlink">
<defs>
<linearGradient gradientTransform="matrix(.5 0 0 -.5 0 526.18108)" id="linear0" y1="1053.158" y2="1004.847" gradientUnits="userSpaceOnUse" x2="0">
<stop offset="0" style="stop-color:#ff1919"/>
<stop offset="1" style="stop-color:#380000"/>
</linearGradient>
</defs>
<path style="fill:url(#linear0)" d="M 0.972656 24 L 23.027344 24 C 23.5625 24 24 23.566406 24 23.027344 L 24 0.972656 C 24 0.433594 23.5625 0 23.027344 0 L 0.972656 0 C 0.433594 0 0 0.433594 0 0.972656 L 0 23.027344 C 0 23.566406 0.433594 24 0.972656 24 Z "/>
<g style="fill:#fff">
<path d="M 10.78125 13.453125 L 8.0625 17.078125 C 9.148438 17.921875 10.519531 18.421875 12 18.421875 C 13.441406 18.421875 14.769531 17.941406 15.84375 17.140625 L 13.125 13.453125 C 12.578125 14.089844 11.398438 14.023438 10.78125 13.453125 Z "/>
<path d="M 13.296875 11.902344 C 13.296875 12.625 12.707031 13.214844 11.984375 13.214844 C 11.257812 13.214844 10.671875 12.625 10.671875 11.902344 C 10.671875 11.175781 11.257812 10.589844 11.984375 10.589844 C 12.707031 10.589844 13.296875 11.175781 13.296875 11.902344 Z "/>
<path d="M 13.875 5.859375 L 12.671875 10.015625 C 13.421875 10.144531 14.0625 11.210938 13.921875 11.984375 L 18.421875 12 C 18.421875 9.105469 16.507812 6.664062 13.875 5.859375 Z "/>
<path d="M 10.140625 5.84375 C 7.523438 6.636719 5.613281 9.054688 5.578125 11.921875 L 9.96875 11.9375 C 9.824219 11.148438 10.578125 10.246094 11.34375 10.015625 Z "/>
</g>
<path style="fill:none;stroke:#fff;stroke-width:1.916" d="M 39.06432 24.400238 C 39.06432 32.25854 32.695353 38.627507 24.83705 38.627507 C 16.978748 38.627507 10.60978 32.25854 10.60978 24.400238 C 10.60978 16.541935 16.978748 10.172968 24.83705 10.172968 C 32.695353 10.172968 39.06432 16.541935 39.06432 24.400238 Z " transform="matrix(.52194 0 0 .52194 -.96345 -.73546)"/>
<path style="fill:#fff;fill-opacity:.149" d="M 1 0 C 0.445312 0 0 0.445312 0 1 L 0 23 C 0 23.554688 0.445312 24 1 24 L 8.390625 24 L 14.8125 0 Z "/>
</svg>
