<svg width="24" xmlns="http://www.w3.org/2000/svg" height="24" viewBox="0 0 24 24" xmlns:xlink="http://www.w3.org/1999/xlink">
<defs>
<linearGradient gradientTransform="matrix(.5 0 0 -.5 0 526.1811)" id="linear0" y1="1006.261" y2="1052.743" gradientUnits="userSpaceOnUse" x2="0">
<stop offset="0" style="stop-color:#464745"/>
<stop offset="1" style="stop-color:#828680"/>
</linearGradient>
</defs>
<path style="fill:url(#linear0)" d="M 0.972656 24 L 23.027344 24 C 23.566406 24 24 23.566406 24 23.027344 L 24 0.972656 C 24 0.433594 23.566406 0 23.027344 0 L 0.972656 0 C 0.433594 0 0 0.433594 0 0.972656 L 0 23.027344 C 0 23.566406 0.433594 24 0.972656 24 Z "/>
<g style="fill:#fff">
<path d="M 4.78125 4 C 4.351562 4 4 4.351562 4 4.78125 L 4 19.21875 C 4 19.648438 4.351562 20 4.78125 20 L 19.21875 20 C 19.648438 20 20 19.648438 20 19.21875 L 20 4.78125 C 20 4.351562 19.648438 4 19.21875 4 Z M 6.109375 5.53125 L 17.890625 5.53125 C 18.230469 5.53125 18.5 5.8125 18.5 6.15625 L 18.5 17.882812 C 18.5 18.222656 18.230469 18.507812 17.890625 18.507812 L 6.109375 18.507812 C 5.769531 18.507812 5.480469 18.222656 5.484375 17.882812 L 5.5 16.5 C 5.5 16.5 5 16.5 5 16 L 5 14.5 C 5 14 5.5 14 5.5 14 L 5.5 10 C 5.5 10 5 10 5 9.5 L 5 8.5 C 5 8 5.5 8 5.5 8 L 5.484375 6.15625 C 5.484375 5.8125 5.769531 5.53125 6.109375 5.53125 Z "/>
<path style="stroke:#fff;stroke-width:.433" d="M -42.144344 7.32028 C -42.144344 9.459012 -43.874482 11.18915 -46.013214 11.18915 C -48.151946 11.18915 -49.882084 9.459012 -49.882084 7.32028 C -49.882084 5.181548 -48.151946 3.45141 -46.013214 3.45141 C -43.874482 3.45141 -42.144344 5.181548 -42.144344 7.32028 Z " transform="matrix(.61186 0 0 .61186 40.15342 7.52105)"/>
</g>
<path style="fill:none;stroke:#fff;stroke-width:1.843" d="M -38.901835 9.150317 C -38.901835 13.225364 -42.199312 16.522841 -46.274359 16.522841 C -50.349407 16.522841 -53.646884 13.225364 -53.646884 9.150317 C -53.646884 5.075269 -50.349407 1.777792 -46.274359 1.777792 C -42.199312 1.777792 -38.901835 5.075269 -38.901835 9.150317 Z " transform="matrix(.54256 0 0 .54256 37.10639 7.03545)"/>
<path style="fill:#fff;fill-opacity:.149" d="M 1 0 C 0.445312 0 0 0.445312 0 1 L 0 23 C 0 23.554688 0.445312 24 1 24 L 8.390625 24 L 14.8125 0 Z "/>
</svg>
