<svg width="24" xmlns="http://www.w3.org/2000/svg" height="24" viewBox="0 0 24 24" xmlns:xlink="http://www.w3.org/1999/xlink">
<defs>
<linearGradient gradientTransform="matrix(.5 0 0 -.5 0 526.1811)" id="linear0" y1="1053.158" y2="1004.847" gradientUnits="userSpaceOnUse" x2="0">
<stop offset="0" style="stop-color:#2396ea"/>
<stop offset="1" style="stop-color:#116cac"/>
</linearGradient>
</defs>
<path style="fill:url(#linear0)" d="M 0.972656 24 L 23.027344 24 C 23.566406 24 24 23.566406 24 23.027344 L 24 0.972656 C 24 0.433594 23.566406 0 23.027344 0 L 0.972656 0 C 0.433594 0 0 0.433594 0 0.972656 L 0 23.027344 C 0 23.566406 0.433594 24 0.972656 24 Z "/>
<g style="fill:#fff">
<path d="M 12.007812 5.75 C 11.996094 5.746094 11.328125 6.304688 10.527344 7 C 9.367188 8.011719 9.046875 8.269531 8.972656 8.269531 C 8.921875 8.269531 8.097656 8.191406 7.132812 8.089844 C 6.167969 7.988281 5.375 7.914062 5.367188 7.921875 C 5.351562 7.933594 4.019531 12.34375 4 12.4375 C 3.992188 12.480469 4.527344 12.953125 5.832031 14.0625 L 7.667969 15.625 L 8.332031 15.625 C 8.691406 15.625 9.054688 15.609375 9.144531 15.597656 L 9.304688 15.582031 L 7.367188 13.972656 C 6.300781 13.09375 5.429688 12.351562 5.429688 12.324219 C 5.425781 12.296875 5.609375 11.722656 5.832031 11.046875 C 6.050781 10.367188 6.273438 9.664062 6.332031 9.484375 C 6.433594 9.15625 6.4375 9.152344 6.542969 9.152344 C 6.605469 9.152344 7.308594 9.234375 8.105469 9.332031 L 9.554688 9.511719 L 10.6875 8.535156 C 11.3125 8 11.863281 7.519531 11.910156 7.472656 L 12 7.394531 L 12.894531 8.160156 C 13.382812 8.585938 13.929688 9.066406 14.117188 9.222656 L 14.457031 9.511719 L 16 9.324219 C 16.851562 9.21875 17.546875 9.132812 17.554688 9.144531 C 17.570312 9.175781 18.589844 12.308594 18.589844 12.332031 C 18.589844 12.34375 17.714844 13.078125 16.644531 13.964844 L 14.695312 15.582031 L 14.867188 15.597656 C 14.957031 15.609375 15.320312 15.625 15.679688 15.625 L 16.332031 15.632812 L 18.160156 14.070312 C 19.167969 13.214844 19.996094 12.503906 20 12.480469 C 20.007812 12.449219 18.667969 7.933594 18.644531 7.910156 C 18.636719 7.90625 17.839844 7.988281 16.867188 8.089844 C 15.890625 8.191406 15.058594 8.273438 15.007812 8.269531 C 14.945312 8.261719 14.488281 7.890625 13.472656 7.007812 C 12.683594 6.320312 12.023438 5.753906 12.007812 5.75 Z M 11.992188 8.472656 L 11.167969 9.304688 L 10.355469 10.144531 L 10.355469 10.867188 C 10.355469 12.003906 10.484375 12.96875 10.75 13.785156 C 10.992188 14.539062 11.277344 15.046875 11.707031 15.472656 C 11.847656 15.617188 11.972656 15.734375 11.992188 15.734375 C 12.058594 15.734375 12.402344 15.394531 12.582031 15.152344 C 12.847656 14.792969 13.070312 14.351562 13.242188 13.832031 C 13.519531 12.984375 13.628906 12.246094 13.652344 11.027344 L 13.667969 10.144531 L 12.832031 9.304688 Z M 17.027344 10.171875 C 17.019531 10.160156 16.542969 10.210938 15.964844 10.277344 C 15.386719 10.34375 14.894531 10.402344 14.875 10.402344 C 14.851562 10.402344 14.839844 10.558594 14.839844 10.839844 C 14.839844 12.328125 14.304688 14.121094 13.507812 15.304688 C 13.324219 15.578125 13.308594 15.628906 13.382812 15.582031 C 13.898438 15.25 17.570312 12.144531 17.554688 12.054688 C 17.535156 11.953125 17.042969 10.1875 17.027344 10.171875 Z M 6.972656 10.1875 C 6.960938 10.203125 6.835938 10.640625 6.695312 11.160156 L 6.4375 12.097656 L 6.527344 12.1875 C 7.386719 12.941406 9.753906 14.921875 10.3125 15.355469 C 10.507812 15.507812 10.671875 15.621094 10.679688 15.617188 C 10.683594 15.609375 10.59375 15.460938 10.472656 15.277344 C 9.695312 14.09375 9.226562 12.539062 9.152344 10.882812 C 9.140625 10.617188 9.117188 10.402344 9.105469 10.402344 C 9.097656 10.402344 8.617188 10.34375 8.042969 10.277344 C 7.472656 10.210938 6.988281 10.171875 6.972656 10.1875 Z M 10.070312 16.277344 L 8.125 16.285156 L 10.0625 17.277344 C 11.125 17.820312 12 18.253906 12.007812 18.25 C 12.019531 18.242188 12.894531 17.804688 13.957031 17.269531 L 15.882812 16.285156 L 13.945312 16.277344 C 12.878906 16.269531 11.136719 16.269531 10.070312 16.277344 Z "/>
<path style="fill-opacity:.149" d="M 1 0 C 0.445312 0 0 0.445312 0 1 L 0 23 C 0 23.554688 0.445312 24 1 24 L 8.390625 24 L 14.8125 0 Z "/>
</g>
</svg>
