<svg width="24" xmlns="http://www.w3.org/2000/svg" height="24" viewBox="0 0 24 24" xmlns:xlink="http://www.w3.org/1999/xlink">
<defs>
<linearGradient gradientTransform="matrix(.5 0 0 .5 0 -502.1811)" id="linear0" y1="1053.158" y2="1004.847" gradientUnits="userSpaceOnUse" x2="0">
<stop offset="0" style="stop-color:#9e1e25"/>
<stop offset="1" style="stop-color:#e06359"/>
</linearGradient>
</defs>
<path style="fill:url(#linear0)" d="M 0.972656 0 L 23.027344 0 C 23.566406 0 24 0.433594 24 0.972656 L 24 23.027344 C 24 23.566406 23.566406 24 23.027344 24 L 0.972656 24 C 0.433594 24 0 23.566406 0 23.027344 L 0 0.972656 C 0 0.433594 0.433594 0 0.972656 0 Z "/>
<g style="fill:#fff">
<path d="M 19.570312 8.136719 C 17.71875 9.742188 12.171875 15.804688 11.230469 15.804688 C 10.613281 15.804688 10.09375 15.382812 9.921875 14.738281 C 9.824219 14.34375 9.976562 14.847656 4.429688 17.265625 C 4.984375 16.921875 8.875 14.011719 9.378906 13.660156 C 9.886719 13.304688 12.382812 11.601562 13.109375 11.058594 C 14.445312 10.042969 14.964844 9.226562 14.964844 8.117188 C 14.964844 7.25 14.421875 6.730469 13.554688 6.730469 C 13.011719 6.730469 12.617188 6.855469 12.046875 7.175781 C 11.109375 7.71875 10.269531 8.386719 9.75 8.980469 C 8.808594 10.117188 7.96875 12.835938 7.96875 14.839844 C 7.96875 16.296875 8.734375 17.210938 9.996094 17.210938 C 11.453125 17.210938 16.582031 12.351562 18.53125 10.398438 L 19.570312 8.136719 M 9.871094 12.464844 C 10.292969 9.820312 11.429688 7.769531 12.492188 7.769531 C 12.914062 7.769531 13.183594 8.191406 13.183594 8.785156 C 13.183594 10.019531 12.515625 10.761719 9.871094 12.464844 "/>
<path style="fill-opacity:.149" d="M 1 0 C 0.445312 0 0 0.445312 0 1 L 0 23 C 0 23.554688 0.445312 24 1 24 L 8.390625 24 L 14.8125 0 Z "/>
</g>
</svg>
