<svg width="24" xmlns="http://www.w3.org/2000/svg" height="24" viewBox="0 0 24 24" xmlns:xlink="http://www.w3.org/1999/xlink">
<defs>
<linearGradient gradientTransform="matrix(.5 0 0 .5 0 -502.1811)" id="linear0" y1="1052.362" y2="1002.362" gradientUnits="userSpaceOnUse" x2="0">
<stop offset="0" style="stop-color:#4d9a05"/>
<stop offset="1" style="stop-color:#90aa6e"/>
</linearGradient>
</defs>
<path style="fill:url(#linear0)" d="M 0.972656 0 L 23.027344 0 C 23.566406 0 24 0.433594 24 0.972656 L 24 23.027344 C 24 23.566406 23.566406 24 23.027344 24 L 0.972656 24 C 0.433594 24 0 23.566406 0 23.027344 L 0 0.972656 C 0 0.433594 0.433594 0 0.972656 0 Z "/>
<path style="fill:none;stroke:#fff;stroke-width:1.441" d="M 11.652816 1014.805932 L 17.572839 1014.805932 C 19.120584 1014.805932 20.372738 1016.058087 20.372738 1017.605832 L 20.372738 1023.525854 C 20.372738 1025.073599 19.120584 1026.329859 17.572839 1026.329859 L 11.652816 1026.329859 C 10.105071 1026.329859 8.848811 1025.073599 8.848811 1023.525854 L 8.848811 1017.605832 C 8.848811 1016.058087 10.105071 1014.805932 11.652816 1014.805932 Z " transform="matrix(.95149 0 0 .95149 -2.05623 -959.22106)"/>
<g style="fill:#fff">
<path style="stroke:#fff;stroke-linejoin:round;stroke-width:.746" d="M 21.041923 1013.869895 L 19.067213 1012.70806 L 14.612828 1020.565843 L 13.307303 1018.221646 L 11.209431 1019.477906 L 13.47152 1023.538171 L 15.569392 1023.521749 Z " transform="matrix(.95149 0 0 .95149 -2.05623 -959.22106)"/>
<path style="fill-opacity:.149" d="M 1 0 C 0.445312 0 0 0.445312 0 1 L 0 23 C 0 23.554688 0.445312 24 1 24 L 8.390625 24 L 14.8125 0 Z "/>
</g>
</svg>
