<svg width="24" xmlns="http://www.w3.org/2000/svg" height="24" viewBox="0 0 24 24" xmlns:xlink="http://www.w3.org/1999/xlink">
<defs>
<linearGradient gradientTransform="matrix(.5 0 0 -.5 0 -502.1811)" id="linear0" y1="-1050.994" y2="-1003.134" gradientUnits="userSpaceOnUse" x2="0">
<stop offset="0" style="stop-color:#3464a3"/>
<stop offset="1" style="stop-color:#6081ab"/>
</linearGradient>
</defs>
<path style="fill:url(#linear0)" d="M 0.972656 24 L 23.027344 24 C 23.566406 24 24 23.566406 24 23.027344 L 24 0.972656 C 24 0.433594 23.566406 0 23.027344 0 L 0.972656 0 C 0.433594 0 0 0.433594 0 0.972656 L 0 23.027344 C 0 23.566406 0.433594 24 0.972656 24 Z "/>
<g style="fill:#fff">
<path d="M 13.011719 12.269531 L 13.011719 14.535156 C 13.011719 15.785156 11.996094 16.800781 10.746094 16.800781 C 10.554688 16.800781 10.417969 16.777344 10.242188 16.734375 C 9.988281 16.664062 9.777344 16.457031 9.777344 16.210938 C 9.777344 15.914062 9.992188 15.699219 10.3125 15.699219 C 10.464844 15.699219 10.519531 15.730469 10.746094 15.730469 C 11.402344 15.730469 11.941406 15.195312 11.941406 14.535156 L 11.941406 13.496094 C 11.941406 13.402344 11.863281 13.328125 11.773438 13.328125 L 10.984375 13.328125 C 10.691406 13.328125 10.457031 13.09375 10.457031 12.800781 C 10.457031 12.503906 10.695312 12.269531 10.992188 12.269531 "/>
<path d="M 11.949219 13.328125 L 11.949219 11.066406 C 11.949219 9.816406 12.964844 8.800781 14.214844 8.800781 C 14.40625 8.800781 14.539062 8.820312 14.714844 8.867188 C 14.972656 8.933594 15.183594 9.144531 15.183594 9.390625 C 15.183594 9.683594 14.96875 9.898438 14.648438 9.898438 C 14.496094 9.898438 14.4375 9.871094 14.214844 9.871094 C 13.554688 9.871094 13.019531 10.40625 13.019531 11.066406 L 13.019531 12.105469 C 13.019531 12.199219 13.09375 12.273438 13.1875 12.273438 L 13.972656 12.273438 C 14.265625 12.273438 14.503906 12.507812 14.503906 12.800781 C 14.503906 13.097656 14.265625 13.328125 13.96875 13.328125 "/>
</g>
<path style="fill:#fffffc" d="M 6.9375 4.003906 C 6.140625 4.003906 6.140625 4.800781 6.140625 4.800781 L 6.140625 6.171875 C 6.140625 6.183594 6.140625 6.199219 6.140625 6.210938 L 6.140625 18.390625 C 6.140625 19.1875 7.292969 19.984375 7.609375 19.984375 L 17.261719 20 C 17.574219 20 17.859375 19.714844 17.859375 19.402344 L 17.859375 6.210938 C 17.859375 5.898438 17.574219 5.609375 17.261719 5.609375 C 15.125 5.597656 8.261719 5.597656 8.261719 5.597656 L 7.203125 4.558594 C 10.199219 4.53125 13.664062 4.558594 16.714844 4.558594 C 17.117188 4.558594 16.132812 4 15.734375 4 Z M 8.316406 6.714844 L 16.792969 6.714844 L 16.792969 18.964844 L 8.316406 18.964844 Z "/>
<path style="fill:#fff;fill-opacity:.149" d="M 1 0 C 0.445312 0 0 0.445312 0 1 L 0 23 C 0 23.554688 0.445312 24 1 24 L 8.390625 24 L 14.8125 0 Z "/>
</svg>
