<svg width="24" xmlns="http://www.w3.org/2000/svg" height="24" viewBox="0 0 24 24" xmlns:xlink="http://www.w3.org/1999/xlink">
<defs>
<linearGradient gradientTransform="matrix(.5 0 0 .5 0 -502.1811)" id="linear0" y1="1053.153" y2="1003.79" gradientUnits="userSpaceOnUse" x2="0">
<stop offset="0" style="stop-color:#fbaf3d"/>
<stop offset="1" style="stop-color:#e2bc88"/>
</linearGradient>
</defs>
<path style="fill:url(#linear0)" d="M 0.972656 0 L 23.027344 0 C 23.566406 0 24 0.433594 24 0.972656 L 24 23.027344 C 24 23.566406 23.566406 24 23.027344 24 L 0.972656 24 C 0.433594 24 0 23.566406 0 23.027344 L 0 0.972656 C 0 0.433594 0.433594 0 0.972656 0 Z "/>
<g style="fill:#fff">
<path d="M 4.59375 10.007812 C 4.242188 10.027344 4 10.109375 4 10.492188 L 4 18.570312 C 4 19.082031 4.429688 19.492188 4.96875 19.492188 L 19.015625 19.492188 C 19.554688 19.492188 20 19.082031 20 18.570312 L 20 10.492188 C 20 9.984375 19.554688 10.007812 19.015625 10.007812 L 4.96875 10.007812 C 4.832031 10.007812 4.710938 10.003906 4.59375 10.007812 Z "/>
<path d="M 6.496094 6.007812 L 4.496094 9.007812 L 11.496094 9.007812 L 11.496094 4.507812 L 7.996094 4.507812 C 7.496094 4.507812 6.496094 6.007812 6.496094 6.007812 Z M 12.496094 4.507812 L 12.496094 9.007812 L 19.496094 9.007812 L 17.496094 6.007812 C 17.496094 6.007812 16.496094 4.507812 15.996094 4.507812 Z "/>
<path style="fill-opacity:.149" d="M 1 0 C 0.445312 0 0 0.445312 0 1 L 0 23 C 0 23.554688 0.445312 24 1 24 L 8.390625 24 L 14.8125 0 Z "/>
</g>
</svg>
