<svg width="24" xmlns="http://www.w3.org/2000/svg" height="24" viewBox="0 0 24 24" xmlns:xlink="http://www.w3.org/1999/xlink">
<defs>
<linearGradient gradientTransform="matrix(.5 0 0 -.5 0 526.1811)" id="linear0" y1="1053.158" y2="1004.847" gradientUnits="userSpaceOnUse" x2="0">
<stop offset="0" style="stop-color:#648db5"/>
<stop offset=".768" style="stop-color:#527fab"/>
<stop offset="1" style="stop-color:#3f709f"/>
</linearGradient>
</defs>
<path style="fill:url(#linear0)" d="M 0.972656 24 L 23.027344 24 C 23.566406 24 24 23.566406 24 23.027344 L 24 0.972656 C 24 0.433594 23.566406 0 23.027344 0 L 0.972656 0 C 0.433594 0 0 0.433594 0 0.972656 L 0 23.027344 C 0 23.566406 0.433594 24 0.972656 24 Z "/>
<g style="fill:#fff">
<path style="fill-opacity:.149" d="M 1 0 C 0.445312 0 0 0.445312 0 1 L 0 23 C 0 23.554688 0.445312 24 1 24 L 8.390625 24 L 14.8125 0 Z "/>
<path style="fill-opacity:.502" d="M 7.335938 14.988281 L 8.582031 13.847656 C 9.738281 12.980469 11.132812 12.492188 12.574219 12.492188 C 12.417969 10.484375 12.289062 8.574219 12.949219 6.628906 C 13.152344 6.027344 13.929688 4.808594 13.417969 4.207031 C 13.144531 3.886719 12.59375 3.992188 12.265625 4.15625 C 11.453125 4.558594 10.847656 5.308594 10.292969 6.003906 C 9.191406 7.378906 8.074219 9.078125 7.640625 10.808594 C 7.300781 12.167969 7.335938 13.59375 7.335938 14.988281 Z "/>
<path d="M 14.074219 12.679688 C 12.992188 12.59375 12.035156 12.40625 10.953125 12.671875 C 8.671875 13.226562 6.667969 15.070312 6.25 17.417969 C 6.09375 18.304688 6.222656 19.101562 6.335938 19.976562 L 9.644531 19.976562 C 9.289062 19.59375 8.949219 19.292969 8.769531 18.792969 C 7.949219 16.554688 11.296875 15.160156 12.519531 17.171875 C 12.679688 17.4375 12.796875 17.730469 12.820312 18.042969 C 12.84375 18.394531 12.769531 18.726562 12.617188 19.042969 C 12.441406 19.414062 12.175781 19.695312 11.828125 19.914062 C 12.167969 20.058594 12.644531 19.976562 13.011719 19.976562 L 15.507812 19.976562 L 14.925781 19.640625 C 14.773438 19.421875 15.039062 19.191406 15.195312 19.066406 C 15.46875 18.847656 17.070312 18.265625 17.113281 18.984375 C 17.136719 19.335938 16.570312 19.710938 16.382812 19.976562 L 17.816406 19.976562 C 17.816406 18.902344 17.894531 17.433594 17.441406 16.429688 C 17.265625 16.042969 16.347656 16.488281 16.363281 15.800781 C 16.371094 15.464844 16.910156 15.546875 17.128906 15.546875 C 16.90625 14.769531 16.363281 14.089844 15.757812 13.570312 L 14.933594 12.964844 C 14.726562 12.660156 14.921875 11.984375 14.855469 11.617188 C 14.734375 10.9375 14.324219 10.386719 13.972656 9.808594 L 13.078125 8.316406 C 12.976562 8.175781 12.734375 7.972656 12.578125 8.164062 C 12.269531 8.542969 12.6875 9.1875 12.882812 9.496094 C 13.523438 10.5 14.074219 11.460938 14.074219 12.679688 Z "/>
</g>
<path style="fill:#235b75" d="M 13.804688 12.636719 L 13.84375 12.65625 L 13.804688 12.636719 M 16.320312 15.921875 L 16.382812 15.609375 L 17.003906 15.609375 C 16.671875 15.472656 16.347656 15.53125 16.320312 15.921875 Z "/>
<g style="fill:#fff;fill-opacity:.502">
<path d="M 16.382812 15.609375 C 16.386719 16.003906 16.945312 16.625 17.316406 16.132812 C 17.550781 15.816406 17.121094 15.617188 16.878906 15.609375 Z "/>
<path d="M 11.703125 17.234375 C 11.46875 17.632812 11.167969 17.527344 10.953125 17.171875 C 10.324219 17.515625 10.425781 18.503906 11.203125 18.589844 C 11.992188 18.675781 12.261719 17.675781 11.703125 17.234375 Z "/>
<path d="M 15.945312 18.917969 L 15.945312 19.042969 C 16.238281 19.128906 16.523438 19.113281 16.816406 19.042969 C 16.695312 18.667969 16.230469 18.78125 15.945312 18.917969 Z "/>
</g>
</svg>
