<svg width="24" xmlns="http://www.w3.org/2000/svg" height="24" viewBox="0 0 24 24" xmlns:xlink="http://www.w3.org/1999/xlink">
<defs>
<linearGradient gradientTransform="matrix(.5 0 0 -.5 0 526.1811)" id="linear0" y1="1053.158" y2="1004.847" gradientUnits="userSpaceOnUse" x2="0">
<stop offset="0" style="stop-color:#e3b216"/>
<stop offset="1" style="stop-color:#c88009"/>
</linearGradient>
</defs>
<path style="fill:url(#linear0)" d="M 0.972656 24 L 23.027344 24 C 23.566406 24 24 23.566406 24 23.027344 L 24 0.972656 C 24 0.433594 23.566406 0 23.027344 0 L 0.972656 0 C 0.433594 0 0 0.433594 0 0.972656 L 0 23.027344 C 0 23.566406 0.433594 24 0.972656 24 Z "/>
<path style="fill:#fffffb" d="M 4.539062 6 C 4.246094 6.03125 4 6.304688 4 6.601562 L 4 17.398438 C 4 17.714844 4.285156 18 4.601562 18 L 19.398438 18 C 19.714844 18 20 17.714844 20 17.398438 L 20 6.601562 C 20 6.285156 19.714844 6 19.398438 6 L 4.601562 6 C 4.578125 6 4.558594 6 4.539062 6 Z M 6 7 L 18 7 L 12.023438 11.484375 Z M 5 7.492188 L 11.648438 12.488281 C 11.851562 12.632812 12.148438 12.632812 12.351562 12.488281 L 19 7.492188 L 19 17.019531 L 5 17.019531 Z "/>
<path style="fill:#fff;fill-opacity:.149" d="M 1 0 C 0.445312 0 0 0.445312 0 1 L 0 23 C 0 23.554688 0.445312 24 1 24 L 8.390625 24 L 14.8125 0 Z "/>
</svg>
