<svg width="24" xmlns="http://www.w3.org/2000/svg" height="24" viewBox="0 0 24 24" xmlns:xlink="http://www.w3.org/1999/xlink">
<defs>
<linearGradient gradientTransform="matrix(.5 0 0 .5 0 -502.1811)" id="linear0" y1="1053.158" y2="1004.847" gradientUnits="userSpaceOnUse" x2="0">
<stop offset="0" style="stop-color:#6e6e6e"/>
<stop offset="1" style="stop-color:#c6c6c6"/>
</linearGradient>
</defs>
<path style="fill:url(#linear0)" d="M 0.96875 0 C 0.429688 0 0 0.429688 0 0.96875 L 0 23.03125 C 0 23.570312 0.429688 24 0.96875 24 L 23.03125 24 C 23.570312 24 24 23.570312 24 23.03125 L 24 0.96875 C 24 0.429688 23.570312 0 23.03125 0 Z "/>
<g style="fill:#fff">
<path d="M 11.894531 4 C 13.722656 4 15.203125 5.480469 15.203125 7.308594 L 15.203125 12.410156 C 15.203125 14.238281 13.722656 15.722656 11.894531 15.722656 C 10.066406 15.722656 8.582031 14.238281 8.582031 12.410156 L 8.582031 7.308594 C 8.582031 5.480469 10.066406 4 11.894531 4 Z "/>
<path d="M 6.644531 11.976562 C 6.644531 11.976562 6.644531 17.859375 11.457031 17.84375 L 11.457031 18.929688 L 9.855469 18.929688 L 9.855469 20 L 14.132812 20 L 14.132812 18.929688 L 12.527344 18.929688 L 12.527344 17.84375 C 17.847656 17.5 17.34375 11.976562 17.34375 11.976562 L 16.273438 11.976562 C 16.273438 11.976562 16.273438 16.789062 11.992188 16.789062 C 7.714844 16.789062 7.714844 11.976562 7.714844 11.976562 Z "/>
<path style="fill-opacity:.149" d="M 1 0 C 0.445312 0 0 0.445312 0 1 L 0 23 C 0 23.554688 0.445312 24 1 24 L 8.390625 24 L 14.8125 0 Z "/>
</g>
</svg>
