<svg width="24" xmlns="http://www.w3.org/2000/svg" height="24" viewBox="0 0 24 24" xmlns:xlink="http://www.w3.org/1999/xlink">
<path style="fill:#2c889f" d="M 0.972656 24 L 23.027344 24 C 23.566406 24 24 23.566406 24 23.027344 L 24 0.972656 C 24 0.433594 23.566406 0 23.027344 0 L 0.972656 0 C 0.433594 0 0 0.433594 0 0.972656 L 0 23.027344 C 0 23.566406 0.433594 24 0.972656 24 Z "/>
<g style="fill:#fff">
<path d="M 9.597656 8.804688 L 9.597656 10.40625 L 10.398438 10.40625 L 10.398438 18.398438 L 8.796875 18.398438 L 8.796875 20 L 15.203125 20 L 15.203125 18.398438 L 13.601562 18.398438 L 13.601562 8.804688 Z "/>
<path d="M 13.601562 5.601562 C 13.601562 6.484375 12.882812 7.203125 12 7.203125 C 11.117188 7.203125 10.398438 6.484375 10.398438 5.601562 C 10.398438 4.714844 11.117188 4 12 4 C 12.882812 4 13.601562 4.714844 13.601562 5.601562 Z "/>
<path style="fill-opacity:.149" d="M 1 0 C 0.445312 0 0 0.445312 0 1 L 0 23 C 0 23.554688 0.445312 24 1 24 L 8.390625 24 L 14.8125 0 Z "/>
</g>
</svg>
