<svg width="24" xmlns="http://www.w3.org/2000/svg" height="24" viewBox="0 0 24 24" xmlns:xlink="http://www.w3.org/1999/xlink">
<defs>
<linearGradient gradientTransform="matrix(.5 0 0 .5 0 -502.1811)" id="linear0" y1="1053.158" y2="1004.847" gradientUnits="userSpaceOnUse" x2="0">
<stop offset="0" style="stop-color:#0075ab"/>
<stop offset="1" style="stop-color:#08b1ff"/>
</linearGradient>
</defs>
<path style="fill:url(#linear0)" d="M 1 0 L 22.949219 0 C 23.53125 0 24 0.433594 24 0.972656 L 24 23.027344 C 24 23.566406 23.53125 24 22.949219 24 L 1 24 C 0.417969 24 0 23.566406 0 23.027344 L 0 1 C 0 0.507812 0.421875 0 1 0 Z "/>
<path style="fill:#fff" d="M 11.96875 7.527344 C 9.535156 7.542969 7.558594 9.515625 7.558594 11.957031 C 7.558594 14.40625 9.550781 16.398438 12 16.398438 C 12.855469 16.398438 13.644531 16.140625 14.320312 15.722656 C 14.265625 16.632812 13.722656 17.410156 12.9375 17.785156 L 12.9375 19.996094 C 14.90625 19.53125 16.375 17.792969 16.425781 15.691406 L 16.441406 15.691406 L 16.441406 7.527344 L 14.335938 7.527344 L 14.335938 11.957031 C 14.335938 13.246094 13.289062 14.292969 12 14.292969 C 10.710938 14.292969 9.664062 13.246094 9.664062 11.957031 C 9.664062 10.667969 10.710938 9.617188 12 9.617188 C 12.078125 9.617188 12.15625 9.625 12.230469 9.632812 L 12.230469 7.527344 Z "/>
<path style="fill:none;stroke:#fff" d="M 24.46875 1012.870013 L 24.46875 1023.635638 C 24.3125 1023.620013 24.15625 1023.604388 24 1023.604388 C 21.421875 1023.604388 19.335938 1025.698138 19.335938 1028.276263 C 19.335938 1030.854388 21.421875 1032.948138 24 1032.948138 C 26.578125 1032.948138 28.664062 1030.854388 28.664062 1028.276263 L 28.664062 1019.401263 L 32.359375 1019.401263 C 32.359375 1015.846575 29.578125 1012.870013 25.867188 1012.870013 Z " transform="matrix(.5 0 0 .5 0 -502.1811)"/>
<path style="fill:#fff;fill-opacity:.149" d="M 1 0 C 0.445312 0 0 0.445312 0 1 L 0 23 C 0 23.554688 0.445312 24 1 24 L 8.390625 24 L 14.8125 0 Z "/>
</svg>
