<svg width="24" xmlns="http://www.w3.org/2000/svg" height="24" viewBox="0 0 24 24" xmlns:xlink="http://www.w3.org/1999/xlink">
<path style="fill:#94c146" d="M 0.972656 24 L 23.027344 24 C 23.566406 24 24 23.566406 24 23.027344 L 24 0.972656 C 24 0.433594 23.566406 0 23.027344 0 L 0.972656 0 C 0.433594 0 0 0.433594 0 0.972656 L 0 23.027344 C 0 23.566406 0.433594 24 0.972656 24 Z "/>
<g style="fill:#fff">
<path d="M 16.539062 9.691406 C 16.125 9.691406 15.785156 10.03125 15.785156 10.457031 L 15.785156 13.441406 C 15.785156 13.863281 16.125 14.207031 16.539062 14.207031 C 16.953125 14.207031 17.292969 13.863281 17.292969 13.441406 L 17.292969 10.457031 C 17.292969 10.03125 16.953125 9.691406 16.539062 9.691406 Z M 7.460938 9.691406 C 7.046875 9.691406 6.707031 10.03125 6.707031 10.457031 L 6.707031 13.441406 C 6.707031 13.863281 7.046875 14.207031 7.460938 14.207031 C 7.878906 14.207031 8.214844 13.863281 8.214844 13.441406 L 8.214844 10.457031 C 8.214844 10.03125 7.878906 9.691406 7.460938 9.691406 Z "/>
<path d="M 8.667969 9.714844 L 8.667969 15.171875 C 8.667969 15.496094 8.929688 15.757812 9.253906 15.757812 L 9.925781 15.757812 L 9.925781 17.417969 C 9.925781 17.84375 10.261719 18.183594 10.675781 18.183594 C 11.09375 18.183594 11.429688 17.84375 11.429688 17.417969 L 11.429688 15.757812 L 12.601562 15.757812 L 12.601562 17.417969 C 12.601562 17.84375 12.9375 18.183594 13.351562 18.183594 C 13.769531 18.183594 14.105469 17.84375 14.105469 17.417969 L 14.105469 15.757812 L 14.777344 15.757812 C 15.101562 15.757812 15.363281 15.496094 15.363281 15.171875 L 15.363281 9.714844 Z "/>
<path d="M 13.585938 6.886719 L 14.207031 5.988281 C 14.242188 5.933594 14.234375 5.863281 14.183594 5.832031 C 14.136719 5.800781 14.070312 5.816406 14.03125 5.867188 L 13.390625 6.800781 C 12.964844 6.632812 12.496094 6.542969 12 6.542969 C 11.503906 6.542969 11.035156 6.632812 10.609375 6.800781 L 9.96875 5.867188 C 9.929688 5.816406 9.863281 5.800781 9.816406 5.832031 C 9.765625 5.863281 9.757812 5.933594 9.792969 5.988281 L 10.414062 6.886719 C 9.429688 7.34375 8.738281 8.214844 8.652344 9.226562 L 15.347656 9.226562 C 15.261719 8.214844 14.570312 7.34375 13.585938 6.886719 Z M 10.585938 8.300781 C 10.382812 8.300781 10.21875 8.136719 10.21875 7.929688 C 10.21875 7.726562 10.382812 7.5625 10.585938 7.5625 C 10.792969 7.5625 10.957031 7.726562 10.957031 7.929688 C 10.957031 8.136719 10.792969 8.300781 10.585938 8.300781 Z M 13.457031 8.300781 C 13.253906 8.300781 13.089844 8.136719 13.089844 7.929688 C 13.089844 7.726562 13.253906 7.5625 13.457031 7.5625 C 13.664062 7.5625 13.828125 7.726562 13.828125 7.929688 C 13.828125 8.136719 13.664062 8.300781 13.457031 8.300781 Z "/>
</g>
<path style="fill:#94c146" d="M 12.890625 11.03125 C 12.203125 11.203125 10.9375 12.042969 10.9375 12.328125 C 10.9375 12.398438 11.003906 12.496094 11.09375 12.546875 C 11.257812 12.644531 11.425781 12.640625 11.53125 12.640625 C 11.914062 12.621094 12.378906 12.59375 12.59375 12.75 C 12.628906 12.945312 12.101562 13.414062 11.484375 13.765625 C 10.851562 14.121094 11.253906 14.03125 11.96875 13.65625 C 12.625 13.3125 13.101562 12.882812 13.0625 12.671875 C 13.035156 12.539062 12.914062 12.507812 12.375 12.5 C 12.105469 12.496094 11.957031 12.5 11.84375 12.484375 C 11.738281 12.476562 11.625 12.492188 11.515625 12.421875 C 11.367188 12.316406 11.367188 12.285156 11.515625 12.0625 C 11.6875 11.800781 12.300781 11.351562 12.796875 11.125 C 12.996094 11.03125 13.035156 10.996094 12.890625 11.03125 Z "/>
<path style="fill:#fff;fill-opacity:.149" d="M 1 0 C 0.445312 0 0 0.445312 0 1 L 0 23 C 0 23.554688 0.445312 24 1 24 L 8.390625 24 L 14.8125 0 Z "/>
</svg>
