<svg width="24" xmlns="http://www.w3.org/2000/svg" height="24" viewBox="0 0 24 24" xmlns:xlink="http://www.w3.org/1999/xlink">
<defs>
<linearGradient gradientTransform="matrix(.5 0 0 -.5 0 526.1811)" id="linear0" y1="1053.158" y2="1004.847" gradientUnits="userSpaceOnUse" x2="0">
<stop offset="0" style="stop-color:#cfcfcf"/>
<stop offset="1" style="stop-color:#a6a6a6"/>
</linearGradient>
</defs>
<path style="fill:url(#linear0)" d="M 0.972656 24 L 23.027344 24 C 23.566406 24 24 23.566406 24 23.027344 L 24 0.972656 C 24 0.433594 23.566406 0 23.027344 0 L 0.972656 0 C 0.433594 0 0 0.433594 0 0.972656 L 0 23.027344 C 0 23.566406 0.433594 24 0.972656 24 Z "/>
<path style="fill:none;stroke:#4c4c4c;stroke-width:2.505" d="M 13.203125 1015.713763 L 13.203125 1041.057513 L 34.796875 1041.057513 L 34.796875 1025.6122 L 25.609375 1015.666888 Z " transform="matrix(.5 0 0 .5 0 -502.1811)"/>
<path style="fill:#4c4c4c" d="M 18.007812 8.949219 L 14.417969 5.027344 L 18.023438 5.027344 L 18.023438 8.949219 Z "/>
<path style="fill:#fff;fill-opacity:.149" d="M 0 0 L 0 24 L 8.390625 24 L 14.8125 0 Z "/>
</svg>
