<svg width="24" xmlns="http://www.w3.org/2000/svg" height="24" viewBox="0 0 24 24" xmlns:xlink="http://www.w3.org/1999/xlink">
<defs>
<linearGradient gradientTransform="matrix(.5 0 0 -.5 0 -502.1811)" id="linear0" y1="-1052.362" y2="-1003.362" gradientUnits="userSpaceOnUse" x2="0">
<stop offset="0" style="stop-color:#3464a3"/>
<stop offset="1" style="stop-color:#7090ba"/>
</linearGradient>
</defs>
<path style="fill:url(#linear0)" d="M 0.972656 24 L 23.027344 24 C 23.566406 24 24 23.566406 24 23.027344 L 24 0.972656 C 24 0.433594 23.566406 0 23.027344 0 L 0.972656 0 C 0.433594 0 0 0.433594 0 0.972656 L 0 23.027344 C 0 23.566406 0.433594 24 0.972656 24 Z "/>
<g style="fill:#fff">
<path style="fill-opacity:.149" d="M 0 0 L 0 24 L 8.390625 24 L 14.8125 0 Z "/>
<path d="M 4.539062 6 C 4.246094 6.03125 4 6.304688 4 6.601562 L 4 17.398438 C 4 17.714844 4.285156 18 4.601562 18 L 19.398438 18 C 19.714844 18 20 17.714844 20 17.398438 L 20 6.601562 C 20 6.285156 19.714844 6 19.398438 6 Z M 5.332031 7.011719 C 5.355469 7.007812 5.382812 7.007812 5.40625 7.011719 L 18.59375 7.011719 C 18.800781 7.011719 18.992188 7.203125 18.992188 7.414062 L 18.992188 16.617188 C 18.992188 16.828125 18.800781 17.019531 18.59375 17.019531 L 5.40625 17.019531 C 5.195312 17.019531 5.007812 16.828125 5.007812 16.617188 L 5.007812 7.414062 C 5.003906 7.226562 5.148438 7.046875 5.332031 7.011719 Z "/>
<path d="M 8.5 15.992188 L 8.5 16.492188 L 15 16.492188 L 15 15.992188 Z "/>
<path d="M 8 15.992188 L 8 16.492188 L 7 16.492188 L 7 15.992188 Z "/>
<path d="M 6.5 15.992188 L 6.5 16.492188 L 5.5 16.492188 L 5.5 15.992188 Z "/>
<path d="M 17.5 15.992188 L 17.5 16.492188 L 17 16.492188 L 17 15.992188 Z "/>
<path d="M 16.5 15.992188 L 16.5 16.492188 L 15.5 16.492188 L 15.5 15.992188 Z "/>
<path d="M 18.5 15.992188 L 18.5 16.492188 L 18 16.492188 L 18 15.992188 Z "/>
<path d="M 16.5 13.992188 L 17.5 13.992188 L 17.5 15.492188 L 16.5 15.492188 Z "/>
<path d="M 16 14.992188 L 16 15.492188 L 15 15.492188 L 15 14.992188 Z "/>
<path d="M 14.5 14.992188 L 14.5 15.492188 L 13.5 15.492188 L 13.5 14.992188 Z "/>
<path d="M 13 14.992188 L 13 15.492188 L 12 15.492188 L 12 14.992188 Z "/>
<path d="M 11.5 14.992188 L 11.5 15.492188 L 10.5 15.492188 L 10.5 14.992188 Z "/>
<path d="M 10 14.992188 L 10 15.492188 L 9 15.492188 L 9 14.992188 Z "/>
<path d="M 8.5 14.992188 L 8.5 15.492188 L 7.5 15.492188 L 7.5 14.992188 Z "/>
<path d="M 7 14.992188 L 7 15.492188 L 5.5 15.492188 L 5.5 14.992188 Z "/>
<path d="M 18.5 14.992188 L 18.5 15.492188 L 18 15.492188 L 18 14.992188 Z "/>
<path d="M 18.5 13.992188 L 18.5 14.492188 L 18 14.492188 L 18 13.992188 Z "/>
<path d="M 15.5 13.992188 L 15.5 14.492188 L 14.5 14.492188 L 14.5 13.992188 Z "/>
<path d="M 14 13.992188 L 14 14.492188 L 13 14.492188 L 13 13.992188 Z "/>
<path d="M 12.5 13.992188 L 12.5 14.492188 L 11.5 14.492188 L 11.5 13.992188 Z "/>
<path d="M 11 13.992188 L 11 14.492188 L 10 14.492188 L 10 13.992188 Z "/>
<path d="M 9.5 13.992188 L 9.5 14.492188 L 8.5 14.492188 L 8.5 13.992188 Z "/>
<path d="M 8 13.992188 L 8 14.492188 L 7 14.492188 L 7 13.992188 Z "/>
<path d="M 6.5 13.992188 L 6.5 14.492188 L 5.5 14.492188 L 5.5 13.992188 Z "/>
<path d="M 16.5 13.992188 L 16.5 14.492188 L 16 14.492188 L 16 13.992188 Z "/>
<path d="M 5 13.492188 L 19 13.492188 L 19 12.992188 L 5 12.992188 Z "/>
</g>
</svg>
