<svg width="24" xmlns="http://www.w3.org/2000/svg" height="24" viewBox="0 0 24 24" xmlns:xlink="http://www.w3.org/1999/xlink">
<defs>
<linearGradient gradientTransform="matrix(.5 0 0 .5 0 -502.1811)" id="linear0" y1="1051.994" y2="1003.402" gradientUnits="userSpaceOnUse" x2="0">
<stop offset="0" style="stop-color:#4d9a05"/>
<stop offset="1" style="stop-color:#88c055"/>
</linearGradient>
</defs>
<path style="fill:url(#linear0)" d="M 0.910156 0.0625 L 22.964844 0.0625 C 23.503906 0.0625 23.9375 0.496094 23.9375 1.035156 L 23.9375 23.089844 C 23.9375 23.628906 23.503906 24.0625 22.964844 24.0625 L 0.910156 24.0625 C 0.371094 24.0625 -0.0625 23.628906 -0.0625 23.089844 L -0.0625 1.035156 C -0.0625 0.496094 0.371094 0.0625 0.910156 0.0625 Z "/>
<g style="fill:#fff">
<path style="fill-opacity:.149" d="M 0 0 L 0 24 L 8.390625 24 L 14.8125 0 Z "/>
<path d="M 14.289062 4.398438 C 11.535156 2.808594 11.515625 6.472656 11.515625 6.472656 L 12 12 L 17.027344 9.65625 C 17.027344 9.65625 20.191406 7.808594 17.4375 6.21875 C 16.585938 5.726562 15.960938 5.71875 15.5 5.9375 C 15.460938 5.429688 15.140625 4.890625 14.289062 4.398438 Z M 12 12 L 14.34375 17.027344 C 14.34375 17.027344 16.191406 20.191406 17.78125 17.4375 C 18.273438 16.585938 18.28125 15.960938 18.0625 15.5 C 18.570312 15.460938 19.109375 15.140625 19.601562 14.289062 C 21.191406 11.535156 17.527344 11.515625 17.527344 11.515625 Z M 12 12 L 6.972656 14.34375 C 6.972656 14.34375 3.808594 16.191406 6.5625 17.78125 C 7.414062 18.273438 8.039062 18.28125 8.5 18.0625 C 8.539062 18.570312 8.859375 19.109375 9.710938 19.601562 C 12.464844 21.191406 12.484375 17.527344 12.484375 17.527344 Z M 12 12 L 9.65625 6.972656 C 9.65625 6.972656 7.808594 3.808594 6.21875 6.5625 C 5.726562 7.414062 5.71875 8.039062 5.9375 8.5 C 5.429688 8.539062 4.890625 8.859375 4.398438 9.710938 C 2.808594 12.464844 6.472656 12.484375 6.472656 12.484375 Z "/>
</g>
</svg>
