<svg width="24" xmlns="http://www.w3.org/2000/svg" height="24" viewBox="0 0 24 24" xmlns:xlink="http://www.w3.org/1999/xlink">
<path style="fill:#909ea9" d="M 3.253906 3.28125 C 2.910156 3.316406 2.625 3.640625 2.625 3.988281 L 2.625 16.710938 C 2.625 17.082031 2.960938 17.417969 3.328125 17.417969 L 9.65625 17.417969 L 9.65625 18.832031 L 14.34375 18.832031 L 14.34375 17.417969 L 20.671875 17.417969 C 21.039062 17.417969 21.375 17.082031 21.375 16.710938 L 21.375 3.988281 C 21.375 3.617188 21.039062 3.28125 20.671875 3.28125 Z M 4.441406 4.695312 C 4.46875 4.6875 4.5 4.6875 4.53125 4.695312 L 19.53125 4.695312 C 19.773438 4.695312 19.996094 4.917969 20 5.167969 L 20 15.535156 C 19.996094 15.78125 19.773438 16.003906 19.53125 16.007812 L 4.53125 16.007812 C 4.285156 16.003906 4.0625 15.78125 4.0625 15.535156 L 4.0625 5.167969 C 4.058594 4.945312 4.226562 4.734375 4.441406 4.695312 Z M 6.375 19.304688 L 6.375 20.71875 L 18.09375 20.71875 L 18.09375 19.304688 Z "/>
<g style="stroke-linecap:round;stroke:#909ea9;fill:none;stroke-width:10.027">
<path d="M 58 -67.416667 L 58 -52.333333 L 73 -52.333333 " transform="matrix(.09375 0 0 .09375 0 19.5)"/>
<path d="M 198 -67.416667 L 198 -52.333333 L 183 -52.333333 " transform="matrix(.09375 0 0 .09375 0 19.5)"/>
<path d="M 183 -142.833333 L 198 -142.833333 L 198 -127.75 " transform="matrix(.09375 0 0 .09375 0 19.5)"/>
<path d="M 58 -127.75 L 58 -142.833333 L 73 -142.833333 " transform="matrix(.09375 0 0 .09375 0 19.5)"/>
</g>
</svg>
