<svg width="24" xmlns="http://www.w3.org/2000/svg" height="24" viewBox="0 0 24 24" xmlns:xlink="http://www.w3.org/1999/xlink">
<path style="fill:#ee5478" d="M 12 4.5 C 9.238281 4.5 7 6.738281 7 9.5 C 7 9.640625 7.019531 9.769531 7.03125 9.90625 C 5.25 10.671875 4 12.4375 4 14.5 C 4 17.261719 6.238281 19.5 9 19.5 C 10.136719 19.5 11.160156 19.109375 12 18.46875 C 12.839844 19.109375 13.863281 19.5 15 19.5 C 17.761719 19.5 20 17.261719 20 14.5 C 20 12.445312 18.742188 10.707031 16.96875 9.9375 C 16.980469 9.789062 17 9.652344 17 9.5 C 17 6.738281 14.761719 4.5 12 4.5 Z M 12 6.5 C 13.65625 6.5 15 7.84375 15 9.5 C 13.097656 9.5 11.46875 10.589844 10.625 12.15625 C 9.664062 11.65625 9 10.660156 9 9.5 C 9 7.84375 10.34375 6.5 12 6.5 Z M 15 11.5 C 16.65625 11.5 18 12.84375 18 14.5 C 18 16.15625 16.65625 17.5 15 17.5 C 13.34375 17.5 12 16.15625 12 14.5 C 12 12.84375 13.34375 11.5 15 11.5 Z M 7.625 11.84375 C 8.160156 12.824219 8.996094 13.613281 10.03125 14.0625 C 10.019531 14.210938 10 14.347656 10 14.5 C 10 15.417969 10.253906 16.261719 10.6875 17 C 10.207031 17.324219 9.621094 17.5 9 17.5 C 7.34375 17.5 6 16.15625 6 14.5 C 6 13.339844 6.664062 12.34375 7.625 11.84375 Z "/>
<path style="fill:#ff3d53;fill-opacity:.2" d="M 7.625 11.84375 C 7.605469 11.855469 7.582031 11.863281 7.5625 11.875 C 7.34375 11.992188 7.148438 12.144531 6.96875 12.3125 C 6.941406 12.335938 6.902344 12.347656 6.875 12.375 C 6.804688 12.441406 6.75 12.519531 6.6875 12.59375 C 6.601562 12.695312 6.507812 12.824219 6.4375 12.9375 C 6.359375 13.0625 6.308594 13.207031 6.25 13.34375 C 6.175781 13.519531 6.101562 13.683594 6.0625 13.875 C 6.058594 13.894531 6.066406 13.917969 6.0625 13.9375 C 6.027344 14.117188 6 14.308594 6 14.5 C 6 16.15625 7.34375 17.5 9 17.5 C 9.207031 17.5 9.398438 17.476562 9.59375 17.4375 C 9.984375 17.355469 10.367188 17.214844 10.6875 17 C 10.253906 16.261719 10 15.417969 10 14.5 C 10 14.347656 10.019531 14.210938 10.03125 14.0625 C 8.996094 13.613281 8.160156 12.824219 7.625 11.84375 Z "/>
<path style="fill:#ee5470;fill-opacity:.4" d="M 18 14.5 C 18 16.15625 16.65625 17.5 15 17.5 C 13.34375 17.5 12 16.15625 12 14.5 C 12 12.84375 13.34375 11.5 15 11.5 C 16.65625 11.5 18 12.84375 18 14.5 Z "/>
</svg>
