<svg width="24" xmlns="http://www.w3.org/2000/svg" height="24" viewBox="0 0 24 24" xmlns:xlink="http://www.w3.org/1999/xlink">
<g style="stroke:#c3be67">
<path style="fill:#c3be67;stroke-width:.674" d="M 3.855408 1022.744789 L 6.247275 1022.744789 C 6.857964 1022.744789 7.349909 1023.240259 7.349909 1023.853298 L 7.349909 1032.87253 C 7.349909 1033.485569 6.857964 1033.981038 6.247275 1033.981038 L 3.855408 1033.981038 C 3.244718 1033.981038 2.752774 1033.485569 2.752774 1032.87253 L 2.752774 1023.853298 C 2.752774 1023.240259 3.244718 1022.744789 3.855408 1022.744789 Z " transform="matrix(.46054 0 0 .46515 1.51347 -466.34494)"/>
<g style="stroke-linejoin:round">
<path style="fill:#c3be67;stroke-linecap:round;stroke-width:.491" d="M 6.891892 1023.265452 L 20.51366 1011.483346 L 20.51366 1026.423023 L 22.176093 1028.849986 L 20.51366 1030.66391 L 20.51366 1045.242481 L 6.841001 1033.863469 Z " transform="matrix(.46054 0 0 .46515 1.51347 -466.34494)"/>
<g style="stroke-width:11.128;fill:none">
<path d="M 138.791667 -113.833333 C 157.291667 -95.166667 157.291667 -64.833333 138.791667 -46.166667 " transform="matrix(.09375 0 0 .09375 0 19.5)"/>
<path d="M 163.208333 -137.458333 C 194.625 -105.708333 194.625 -54.291667 163.208333 -22.541667 " transform="matrix(.09375 0 0 .09375 0 19.5)"/>
<path d="M 188.625 -162.416667 C 233.708333 -116.916667 233.708333 -43.083333 188.625 2.416667 " transform="matrix(.09375 0 0 .09375 0 19.5)"/>
</g>
</g>
</g>
</svg>
