<svg width="24" xmlns="http://www.w3.org/2000/svg" height="24" viewBox="0 0 24 24" xmlns:xlink="http://www.w3.org/1999/xlink">
<defs>
<linearGradient gradientTransform="matrix(.5 0 0 .5 0 -502.1811)" id="linear0" y1="1053.158" y2="1007.865" gradientUnits="userSpaceOnUse" x2="0">
<stop offset="0" style="stop-color:#464745"/>
<stop offset="1" style="stop-color:#828680"/>
</linearGradient>
</defs>
<path style="fill:url(#linear0)" d="M 0.96875 0 C 0.429688 0 0 0.429688 0 0.96875 L 0 23.03125 C 0 23.570312 0.429688 24 0.96875 24 L 23.03125 24 C 23.570312 24 24 23.570312 24 23.03125 L 24 0.96875 C 24 0.429688 23.570312 0 23.03125 0 Z "/>
<path style="fill:none;stroke:#fff;stroke-linejoin:round;stroke-linecap:round;stroke-width:11.402" d="M 41.6715 -170.898748 L 214.32775 -170.898748 C 218.722281 -170.898748 222.286734 -167.372944 222.286734 -162.937254 L 222.286734 -106.524385 C 222.286734 -102.088696 218.722281 -98.562891 214.32775 -98.562891 L 41.6715 -98.562891 C 37.276969 -98.562891 33.712516 -102.088696 33.712516 -106.524385 L 33.712516 -162.937254 C 33.712516 -167.372944 37.276969 -170.898748 41.6715 -170.898748 Z " transform="matrix(.08 0 0 .06869 1.76003 17.34841)"/>
<g style="fill:#fff">
<path d="M 5.714844 6.316406 C 5.574219 6.316406 5.460938 6.398438 5.460938 6.496094 L 5.460938 9.691406 C 5.460938 9.789062 5.574219 9.871094 5.714844 9.871094 L 11.777344 9.871094 C 11.914062 9.871094 12.027344 9.789062 12.027344 9.691406 L 12.027344 6.496094 C 12.027344 6.398438 11.914062 6.316406 11.777344 6.316406 Z M 7.472656 8.804688 L 7.472656 7.382812 L 7.976562 7.382812 L 7.976562 8.804688 Z M 8.480469 8.804688 L 8.480469 7.382812 L 8.984375 7.382812 L 8.984375 8.804688 Z M 9.484375 8.804688 L 9.484375 7.382812 L 9.988281 7.382812 L 9.988281 8.804688 Z "/>
<path d="M 16 12.890625 L 16 14.53125 C 16 14.753906 15.699219 14.941406 15.332031 14.941406 L 14 14.941406 C 13.632812 14.941406 13.332031 14.753906 13.332031 14.53125 L 13.332031 12.890625 C 13.332031 12.664062 13.632812 12.480469 14 12.480469 L 15.332031 12.480469 C 15.699219 12.480469 16 12.664062 16 12.890625 Z "/>
<path d="M 20 14.121094 L 20 13.300781 L 16.667969 13.300781 L 16.667969 14.121094 Z "/>
<path d="M 12.667969 14.121094 L 12.667969 13.300781 L 4 13.300781 L 4 14.121094 Z "/>
<path d="M 9.332031 18.414062 L 9.332031 16.816406 C 9.332031 16.59375 9.632812 16.414062 10 16.414062 L 11.332031 16.414062 C 11.699219 16.414062 12 16.59375 12 16.816406 L 12 18.414062 C 12 18.636719 11.699219 18.816406 11.332031 18.816406 L 10 18.816406 C 9.632812 18.816406 9.332031 18.636719 9.332031 18.414062 Z "/>
<path d="M 4 17.214844 L 4 18.015625 L 8.667969 18.015625 L 8.667969 17.214844 Z "/>
<path d="M 12.667969 17.214844 L 12.667969 18.015625 L 20 18.015625 L 20 17.214844 Z "/>
<path style="fill-opacity:.149" d="M 1 0 C 0.445312 0 0 0.445312 0 1 L 0 23 C 0 23.554688 0.445312 24 1 24 L 8.390625 24 L 14.8125 0 Z "/>
</g>
</svg>
