<svg width="24" xmlns="http://www.w3.org/2000/svg" height="24" viewBox="0 0 24 24" xmlns:xlink="http://www.w3.org/1999/xlink">
<g style="fill:none;stroke:#eea254;stroke-linecap:round">
<path style="stroke-width:3.487" d="M 28.158621 27.54439 C 28.158621 37.375179 20.184849 45.348952 10.354059 45.348952 C 0.523269 45.348952 -7.450503 37.375179 -7.450503 27.54439 C -7.450503 17.7136 0.523269 9.739827 10.354059 9.739827 C 20.184849 9.739827 28.158621 17.7136 28.158621 27.54439 Z " transform="matrix(.4796 0 0 .4796 7.0342 -1.21028)"/>
<path style="stroke-width:22.267" d="M 127.333333 -128.041667 L 127.333333 -82.291667 L 168.958333 -40.666667 " transform="matrix(.09375 0 0 .09375 0 19.5)"/>
<g style="stroke-width:3.884">
<path d="M 127.958333 -158.541667 L 127.958333 -146.416667 " transform="matrix(.09375 0 0 .09375 0 19.5)"/>
<path d="M 127.958333 -13.083333 L 127.958333 -0.916667 " transform="matrix(.09375 0 0 .09375 0 19.5)"/>
<path d="M 49.666667 -78.375 L 61.791667 -78.375 " transform="matrix(.09375 0 0 .09375 0 19.5)"/>
<path d="M 193.416667 -78.375 L 205.541667 -78.375 " transform="matrix(.09375 0 0 .09375 0 19.5)"/>
</g>
</g>
</svg>
