<svg width="24" xmlns="http://www.w3.org/2000/svg" height="24" viewBox="0 0 24 24" xmlns:xlink="http://www.w3.org/1999/xlink">
<defs>
<linearGradient gradientTransform="matrix(.5 0 0 .5 0 -502.1811)" id="linear0" y1="1053.158" y2="1004.847" gradientUnits="userSpaceOnUse" x2="0">
<stop offset="0" style="stop-color:#cd5b23"/>
<stop offset="1" style="stop-color:#ff6700"/>
</linearGradient>
</defs>
<path style="fill:url(#linear0)" d="M 0.972656 0 L 23.027344 0 C 23.566406 0 24 0.433594 24 0.972656 L 24 23.027344 C 24 23.566406 23.566406 24 23.027344 24 L 0.972656 24 C 0.433594 24 0 23.566406 0 23.027344 L 0 0.972656 C 0 0.433594 0.433594 0 0.972656 0 Z "/>
<g style="fill:#fff">
<path style="fill-opacity:.149" d="M 0 0 L 0 24 L 8.390625 24 L 14.8125 0 Z "/>
<path d="M 4 4 L 4 9.332031 L 9.332031 9.332031 L 9.332031 4 Z M 10.09375 4 L 10.09375 5.523438 L 10.855469 5.523438 L 10.855469 4.761719 L 11.617188 4.761719 L 11.617188 4 Z M 11.617188 4.761719 L 11.617188 5.523438 L 12.382812 5.523438 L 12.382812 4.761719 Z M 12.382812 5.523438 L 12.382812 6.285156 L 13.90625 6.285156 L 13.90625 4 L 13.144531 4 L 13.144531 5.523438 Z M 12.382812 6.285156 L 10.09375 6.285156 L 10.09375 7.046875 L 11.617188 7.046875 L 11.617188 7.808594 L 10.855469 7.808594 L 10.855469 8.570312 L 11.617188 8.570312 L 11.617188 9.332031 L 12.382812 9.332031 L 12.382812 8.570312 L 13.144531 8.570312 L 13.144531 9.332031 L 12.382812 9.332031 L 12.382812 10.09375 L 11.617188 10.09375 L 11.617188 10.855469 L 13.144531 10.855469 L 13.144531 11.617188 L 13.90625 11.617188 L 13.90625 7.808594 L 13.144531 7.808594 L 13.144531 7.046875 L 12.382812 7.046875 Z M 13.144531 11.617188 L 12.382812 11.617188 L 12.382812 12.382812 L 11.617188 12.382812 L 11.617188 13.90625 L 12.382812 13.90625 L 12.382812 15.429688 L 10.855469 15.429688 L 10.855469 14.667969 L 11.617188 14.667969 L 11.617188 13.90625 L 10.855469 13.90625 L 10.855469 12.382812 L 10.09375 12.382812 L 10.09375 11.617188 L 10.855469 11.617188 L 10.855469 12.382812 L 11.617188 12.382812 L 11.617188 10.855469 L 10.09375 10.855469 L 10.09375 10.09375 L 7.808594 10.09375 L 7.808594 10.855469 L 7.046875 10.855469 L 7.046875 11.617188 L 6.285156 11.617188 L 6.285156 10.855469 L 7.046875 10.855469 L 7.046875 10.09375 L 5.523438 10.09375 L 5.523438 10.855469 L 4.761719 10.855469 L 4.761719 13.144531 L 5.523438 13.144531 L 5.523438 12.382812 L 7.808594 12.382812 L 7.808594 11.617188 L 8.570312 11.617188 L 8.570312 10.855469 L 9.332031 10.855469 L 9.332031 11.617188 L 8.570312 11.617188 L 8.570312 12.382812 L 9.332031 12.382812 L 9.332031 13.144531 L 8.570312 13.144531 L 8.570312 13.90625 L 10.09375 13.90625 L 10.09375 16.191406 L 10.855469 16.191406 L 10.855469 16.953125 L 13.144531 16.953125 L 13.144531 17.714844 L 10.855469 17.714844 L 10.855469 16.953125 L 10.09375 16.953125 L 10.09375 18.476562 L 10.855469 18.476562 L 10.855469 19.238281 L 10.09375 19.238281 L 10.09375 20 L 11.617188 20 L 11.617188 19.238281 L 12.382812 19.238281 L 12.382812 20 L 15.429688 20 L 15.429688 19.238281 L 16.191406 19.238281 L 16.191406 20 L 18.476562 20 L 18.476562 19.238281 L 16.953125 19.238281 L 16.953125 18.476562 L 16.191406 18.476562 L 16.191406 17.714844 L 15.429688 17.714844 L 15.429688 18.476562 L 13.90625 18.476562 L 13.90625 19.238281 L 13.144531 19.238281 L 13.144531 18.476562 L 13.90625 18.476562 L 13.90625 16.191406 L 14.667969 16.191406 L 14.667969 15.429688 L 13.144531 15.429688 L 13.144531 14.667969 L 13.90625 14.667969 L 13.90625 12.382812 L 13.144531 12.382812 Z M 15.429688 17.714844 L 15.429688 16.953125 L 14.667969 16.953125 L 14.667969 17.714844 Z M 16.953125 18.476562 L 18.476562 18.476562 L 18.476562 17.714844 L 16.953125 17.714844 Z M 18.476562 17.714844 L 19.238281 17.714844 L 19.238281 14.667969 L 16.953125 14.667969 L 16.953125 13.90625 L 16.191406 13.90625 L 16.191406 14.667969 L 15.429688 14.667969 L 15.429688 16.191406 L 16.191406 16.191406 L 16.191406 15.429688 L 16.953125 15.429688 L 16.953125 16.953125 L 18.476562 16.953125 Z M 16.191406 13.90625 L 16.191406 13.144531 L 14.667969 13.144531 L 14.667969 13.90625 Z M 16.953125 13.90625 L 17.714844 13.90625 L 17.714844 11.617188 L 18.476562 11.617188 L 18.476562 12.382812 L 19.238281 12.382812 L 19.238281 13.144531 L 20 13.144531 L 20 11.617188 L 19.238281 11.617188 L 19.238281 10.855469 L 20 10.855469 L 20 10.09375 L 18.476562 10.09375 L 18.476562 10.855469 L 17.714844 10.855469 L 17.714844 10.09375 L 16.953125 10.09375 L 16.953125 10.855469 L 16.191406 10.855469 L 16.191406 11.617188 L 16.953125 11.617188 Z M 16.191406 11.617188 L 15.429688 11.617188 L 15.429688 12.382812 L 16.191406 12.382812 Z M 19.238281 13.144531 L 18.476562 13.144531 L 18.476562 13.90625 L 19.238281 13.90625 Z M 8.570312 13.144531 L 8.570312 12.382812 L 7.808594 12.382812 L 7.808594 13.144531 Z M 7.808594 13.144531 L 5.523438 13.144531 L 5.523438 13.90625 L 7.808594 13.90625 Z M 4.761719 13.144531 L 4 13.144531 L 4 13.90625 L 4.761719 13.90625 Z M 4.761719 10.855469 L 4.761719 10.09375 L 4 10.09375 L 4 10.855469 Z M 10.09375 10.09375 L 10.855469 10.09375 L 10.855469 8.570312 L 10.09375 8.570312 Z M 14.667969 4 L 14.667969 9.332031 L 20 9.332031 L 20 4 Z M 4.761719 4.761719 L 8.570312 4.761719 L 8.570312 8.570312 L 4.761719 8.570312 Z M 15.429688 4.761719 L 19.238281 4.761719 L 19.238281 8.570312 L 15.429688 8.570312 Z M 5.523438 5.523438 L 5.523438 7.808594 L 7.808594 7.808594 L 7.808594 5.523438 Z M 16.191406 5.523438 L 16.191406 7.808594 L 18.476562 7.808594 L 18.476562 5.523438 Z M 14.667969 10.09375 L 14.667969 10.855469 L 15.429688 10.855469 L 15.429688 10.09375 Z M 4 14.667969 L 4 20 L 9.332031 20 L 9.332031 14.667969 Z M 4.761719 15.429688 L 8.570312 15.429688 L 8.570312 19.238281 L 4.761719 19.238281 Z M 5.523438 16.191406 L 5.523438 18.476562 L 7.808594 18.476562 L 7.808594 16.191406 Z M 19.238281 18.476562 L 19.238281 19.238281 L 20 19.238281 L 20 18.476562 Z "/>
</g>
</svg>
