<svg width="24" xmlns="http://www.w3.org/2000/svg" height="24" viewBox="0 0 24 24" xmlns:xlink="http://www.w3.org/1999/xlink">
<defs>
<linearGradient gradientTransform="matrix(.46224 0 0 .5 1.8125 -502.1811)" id="linear0" y1="1053.158" y2="1004.847" gradientUnits="userSpaceOnUse" x2="0">
<stop offset="0" style="stop-color:#131313"/>
<stop offset="1" style="stop-color:#828282"/>
</linearGradient>
</defs>
<path style="fill:url(#linear0)" d="M 1.125 0 C 0.5 0 0 0.5 0 1.125 L 0 22.875 C 0 23.5 0.5 24 1.125 24 C 1.777344 24 2.054688 24.078125 2.171875 24 C 2.199219 24.003906 2.21875 24 2.25 24 L 23.03125 24 C 23.570312 24 24 23.570312 24 23.03125 L 24 0.96875 C 24 0.429688 23.570312 0 23.03125 0 L 2.21875 0 C 2.152344 0 2.09375 0.00390625 2.046875 0.015625 C 1.890625 -0.0195312 1.613281 0 1.125 0 Z "/>
<path style="fill:#fff;fill-opacity:.149" d="M 0 0 L 0 24 L 8.390625 24 L 14.8125 0 Z "/>
<path style="fill:none;stroke:#fff;stroke-width:1.837" d="M 40.305082 24.224555 C 40.305082 33.349732 32.901636 40.753177 23.77646 40.753177 C 14.651283 40.753177 7.247838 33.349732 7.247838 24.224555 C 7.247838 15.099378 14.651283 7.695933 23.77646 7.695933 C 32.901636 7.695933 40.305082 15.099378 40.305082 24.224555 Z " transform="matrix(.27226 0 0 .27226 5.52674 4.3774)"/>
<path style="fill:#fff" d="M 12 7.449219 C 10.050781 7.449219 8.476562 9.023438 8.476562 10.972656 C 8.476562 12.921875 10.050781 14.496094 12 14.496094 C 13.949219 14.496094 15.523438 12.921875 15.523438 10.972656 C 15.523438 9.023438 13.949219 7.449219 12 7.449219 Z M 12 9.472656 C 12.828125 9.472656 13.5 10.144531 13.5 10.972656 C 13.5 11.800781 12.828125 12.472656 12 12.472656 C 11.171875 12.472656 10.5 11.800781 10.5 10.972656 C 10.5 10.144531 11.171875 9.472656 12 9.472656 Z "/>
<path style="fill:none;stroke:#fff;stroke-width:2" d="M 12.679688 1013.3622 L 35.320312 1013.3622 C 35.765625 1013.3622 36.125 1013.721575 36.125 1014.1747 L 36.125 1042.5497 C 36.125 1042.995013 35.765625 1043.3622 35.320312 1043.3622 L 12.679688 1043.3622 C 12.234375 1043.3622 11.875 1042.995013 11.875 1042.5497 L 11.875 1014.1747 C 11.875 1013.721575 12.234375 1013.3622 12.679688 1013.3622 Z " transform="matrix(.5 0 0 .5 0 -502.1811)"/>
<g style="fill:#fff">
<path d="M 9.5 17 C 9.5 17.550781 9.050781 18 8.5 18 C 7.949219 18 7.5 17.550781 7.5 17 C 7.5 16.449219 7.949219 16 8.5 16 C 9.050781 16 9.5 16.449219 9.5 17 Z "/>
<path d="M 16.5 17 C 16.5 17.550781 16.050781 18 15.5 18 C 14.949219 18 14.5 17.550781 14.5 17 C 14.5 16.449219 14.949219 16 15.5 16 C 16.050781 16 16.5 16.449219 16.5 17 Z "/>
</g>
</svg>
