<svg width="24" xmlns="http://www.w3.org/2000/svg" height="24" viewBox="0 0 24 24" xmlns:xlink="http://www.w3.org/1999/xlink">
<defs>
<linearGradient gradientTransform="matrix(.5 0 0 -.5 0 526.1811)" id="linear0" y1="1053.158" y2="1004.847" gradientUnits="userSpaceOnUse" x2="0">
<stop offset="0" style="stop-color:#d768d2"/>
<stop offset="1" style="stop-color:#bc2f95"/>
</linearGradient>
<linearGradient gradientTransform="matrix(1.36079 0 0 1.36217 -13.6019 991.15913)" id="linear1" y1="37.766" x1="28.513" y2="30.828" gradientUnits="userSpaceOnUse" x2="28.422">
<stop offset="0" style="stop-color:#fff;stop-opacity:.573"/>
<stop offset="1" style="stop-color:#fff;stop-opacity:0"/>
</linearGradient>
</defs>
<path style="fill:url(#linear0)" d="M 0.972656 24 L 23.027344 24 C 23.566406 24 24 23.566406 24 23.027344 L 24 0.972656 C 24 0.433594 23.566406 0 23.027344 0 L 0.972656 0 C 0.433594 0 0 0.433594 0 0.972656 L 0 23.027344 C 0 23.566406 0.433594 24 0.972656 24 Z "/>
<path style="fill:#fff;fill-opacity:.149" d="M 0 0 L 0 24 L 8.390625 24 L 14.8125 0 Z "/>
<path style="fill:#4a4a4a" d="M 8.507812 13.960938 L 8.699219 13.960938 C 8.757812 13.960938 8.800781 13.976562 8.832031 14 C 8.859375 14.027344 8.875 14.0625 8.875 14.109375 C 8.875 14.15625 8.859375 14.191406 8.832031 14.21875 C 8.800781 14.242188 8.757812 14.253906 8.699219 14.253906 L 8.625 14.253906 L 8.625 14.410156 L 8.507812 14.410156 L 8.507812 13.960938 M 8.625 14.046875 L 8.625 14.171875 L 8.6875 14.171875 C 8.710938 14.171875 8.726562 14.164062 8.738281 14.15625 C 8.75 14.144531 8.757812 14.128906 8.757812 14.109375 C 8.757812 14.085938 8.75 14.070312 8.738281 14.0625 C 8.726562 14.050781 8.710938 14.046875 8.6875 14.046875 L 8.625 14.046875 M 9.164062 14.039062 C 9.128906 14.039062 9.101562 14.050781 9.082031 14.074219 C 9.0625 14.101562 9.050781 14.140625 9.050781 14.1875 C 9.050781 14.234375 9.0625 14.269531 9.082031 14.296875 C 9.101562 14.320312 9.128906 14.335938 9.164062 14.335938 C 9.199219 14.335938 9.226562 14.320312 9.246094 14.296875 C 9.265625 14.269531 9.273438 14.234375 9.273438 14.1875 C 9.273438 14.136719 9.265625 14.101562 9.246094 14.074219 C 9.226562 14.050781 9.199219 14.039062 9.164062 14.039062 M 9.164062 13.953125 C 9.234375 13.953125 9.289062 13.972656 9.332031 14.015625 C 9.371094 14.058594 9.394531 14.113281 9.394531 14.1875 C 9.394531 14.257812 9.371094 14.316406 9.332031 14.355469 C 9.289062 14.398438 9.234375 14.417969 9.164062 14.417969 C 9.089844 14.417969 9.035156 14.398438 8.992188 14.355469 C 8.953125 14.316406 8.933594 14.257812 8.933594 14.1875 C 8.933594 14.113281 8.953125 14.054688 8.992188 14.015625 C 9.035156 13.972656 9.089844 13.953125 9.164062 13.953125 M 9.480469 13.960938 L 9.609375 13.960938 L 9.773438 14.269531 L 9.773438 13.960938 L 9.882812 13.960938 L 9.882812 14.410156 L 9.753906 14.410156 L 9.589844 14.101562 L 9.589844 14.410156 L 9.480469 14.410156 L 9.480469 13.960938 M 9.929688 13.960938 L 10.058594 13.960938 L 10.160156 14.121094 L 10.261719 13.960938 L 10.386719 13.960938 L 10.21875 14.222656 L 10.21875 14.410156 L 10.101562 14.410156 L 10.101562 14.222656 L 9.929688 13.960938 "/>
<g style="stroke-width:1.21">
<g style="fill:#fff;stroke:#fff">
<path d="M 16.757812 1024.534075 L 34.453125 1024.534075 C 34.453125 1024.534075 34.703125 1018.065325 33.007812 1016.448138 C 31.390625 1014.909075 29.09375 1015.252825 29.09375 1015.252825 L 29.007812 1015.932513 C 29.007812 1015.932513 28.15625 1015.338763 26.625 1015.252825 C 25.09375 1015.166888 23.992188 1015.338763 23.992188 1015.338763 L 24.5 1015.846575 C 24.5 1015.846575 22.375 1014.995013 20.335938 1014.995013 C 18.289062 1014.995013 17.867188 1015.08095 17.867188 1015.08095 L 18.632812 1015.510638 C 18.632812 1015.510638 16.929688 1014.745013 15.570312 1014.745013 C 14.210938 1014.745013 13.015625 1015.338763 13.015625 1015.338763 C 13.015625 1015.338763 14.976562 1016.3622 15.742188 1017.721575 C 16.507812 1019.08095 16.757812 1024.534075 16.757812 1024.534075 Z " transform="matrix(.5 0 0 .5 0 -502.1811)"/>
<path d="M 15.828125 1024.573138 L 15.828125 1030.534075 C 15.828125 1031.823138 16.875 1032.877825 18.164062 1032.877825 L 22.585938 1032.877825 C 22.257812 1036.14345 21.617188 1038.604388 21.78125 1041.440325 C 21.882812 1043.221575 23.421875 1045.534075 25.859375 1045.534075 C 28.046875 1045.534075 29.617188 1043.39345 29.773438 1041.276263 C 29.945312 1038.909075 28.882812 1036.151263 28.414062 1032.877825 L 32.539062 1032.877825 C 33.828125 1032.877825 34.875 1031.823138 34.875 1030.534075 L 34.875 1024.573138 C 34.875 1024.573138 15.828125 1024.573138 15.828125 1024.573138 Z " transform="matrix(.5 0 0 .5 0 -502.1811)"/>
</g>
<path style="fill:none;stroke:url(#linear1)" d="M 23.992188 1031.229388 C 23.726562 1033.838763 22.773438 1038.6122 22.90625 1040.885638 C 22.984375 1042.307513 23.804688 1044.260638 25.757812 1044.260638 C 27.507812 1044.260638 28.414062 1042.534075 28.539062 1040.838763 C 28.671875 1038.940325 27.5 1033.846575 27.117188 1031.229388 Z " transform="matrix(.5 0 0 .5 0 -502.1811)"/>
</g>
<g style="fill:#fff">
<path d="M 8.253906 10.414062 L 8.253906 13 C 8.253906 13.566406 8.667969 13.917969 9.234375 13.917969 L 16.160156 13.917969 C 16.722656 13.917969 17.097656 13.566406 17.097656 13 L 17.097656 10.414062 C 17.097656 10.414062 8.253906 10.414062 8.253906 10.414062 Z "/>
<path d="M 16.671875 10.445312 L 16.671875 11.753906 C 16.671875 12.03125 16.417969 12.257812 16.097656 12.257812 L 9.253906 12.257812 C 8.933594 12.257812 8.679688 12.03125 8.679688 11.753906 L 8.679688 10.445312 C 8.679688 10.445312 16.671875 10.445312 16.671875 10.445312 Z "/>
<path d="M 7.296875 5.574219 C 7.296875 5.574219 8.082031 6.0625 8.273438 6.785156 C 8.464844 7.507812 8.570312 8.210938 8.570312 8.210938 L 9.101562 7.042969 L 9.699219 7.617188 L 9.910156 6.679688 L 11.1875 7.019531 L 10.847656 6.316406 L 12.207031 6.957031 L 12.164062 6.488281 L 12.738281 7 L 13.207031 6.574219 L 14.226562 7.019531 L 14.824219 6.445312 L 15.671875 7 C 15.671875 7 15.523438 6.617188 15.609375 6.636719 C 15.695312 6.65625 16.4375 6.914062 16.4375 6.914062 L 16.628906 7.148438 C 16.628906 7.148438 16.5 6.496094 16.203125 6.234375 C 15.628906 5.722656 14.824219 5.765625 14.824219 5.765625 L 14.738281 6.359375 C 14.738281 6.359375 14.035156 5.871094 13.441406 5.785156 C 12.84375 5.699219 12.25 5.808594 12.25 5.808594 L 12.121094 6.0625 C 12.121094 6.0625 11.378906 5.765625 10.71875 5.699219 C 10.058594 5.636719 9.210938 5.660156 9.210938 5.660156 L 9.167969 5.890625 C 9.167969 5.890625 8.550781 5.59375 8.273438 5.574219 C 7.996094 5.550781 7.316406 5.59375 7.296875 5.574219 Z "/>
<path style="fill-opacity:.514" d="M 13.238281 18.257812 C 13.238281 18.632812 12.933594 18.9375 12.558594 18.9375 C 12.183594 18.9375 11.878906 18.632812 11.878906 18.257812 C 11.878906 17.882812 12.183594 17.578125 12.558594 17.578125 C 12.933594 17.578125 13.238281 17.882812 13.238281 18.257812 Z "/>
</g>
</svg>
