<svg width="24" xmlns="http://www.w3.org/2000/svg" height="24" viewBox="0 0 24 24" xmlns:xlink="http://www.w3.org/1999/xlink">
<defs>
<linearGradient gradientTransform="matrix(.5 0 0 .5 0 -502.1811)" id="linear0" y1="1053.158" y2="1004.847" gradientUnits="userSpaceOnUse" x2="0">
<stop offset="0" style="stop-color:#cd5b23"/>
<stop offset="1" style="stop-color:#ff6700"/>
</linearGradient>
</defs>
<path style="fill:url(#linear0)" d="M 0.972656 0 L 23.027344 0 C 23.566406 0 24 0.433594 24 0.972656 L 24 23.027344 C 24 23.566406 23.566406 24 23.027344 24 L 0.972656 24 C 0.433594 24 0 23.566406 0 23.027344 L 0 0.972656 C 0 0.433594 0.433594 0 0.972656 0 Z "/>
<g style="fill:#fff">
<path style="fill-opacity:.149" d="M 0 0 L 0 24 L 8.390625 24 L 14.8125 0 Z "/>
<path d="M 4.609375 7.5 L 19.390625 7.5 C 19.726562 7.5 20 7.78125 20 8.128906 L 20 18.871094 C 20 19.21875 19.726562 19.5 19.390625 19.5 L 4.609375 19.5 C 4.273438 19.5 4 19.21875 4 18.871094 L 4 8.128906 C 4 7.78125 4.273438 7.5 4.609375 7.5 Z "/>
<path d="M 10 7.5 L 10 6 L 14 6 L 14 7.5 L 15.5 7.5 L 15.5 6 C 15.5 6 15.5 4.5 14 4.5 C 12.546875 4.5 10 4.5 10 4.5 C 10 4.5 8.5 4.5 8.5 6 C 8.5 7.453125 8.5 7.5 8.5 7.5 Z "/>
</g>
</svg>
