<svg width="24" xmlns="http://www.w3.org/2000/svg" height="24" viewBox="0 0 24 24" xmlns:xlink="http://www.w3.org/1999/xlink">
<path style="fill:#909ea9" d="M 5.597656 2.625 C 5.253906 2.660156 4.96875 2.984375 4.96875 3.328125 L 4.96875 10.273438 L 3.285156 10.273438 C 3.261719 10.273438 3.234375 10.273438 3.210938 10.273438 C 2.890625 10.308594 2.625 10.628906 2.625 10.976562 L 2.625 18.890625 C 2.625 19.261719 2.941406 19.59375 3.285156 19.59375 L 4.96875 19.59375 L 4.96875 20.671875 C 4.96875 21.039062 5.300781 21.375 5.671875 21.375 L 18.328125 21.375 C 18.699219 21.375 19.03125 21.039062 19.03125 20.671875 L 19.03125 19.59375 L 20.714844 19.59375 C 21.058594 19.59375 21.375 19.261719 21.375 18.890625 L 21.375 10.976562 C 21.375 10.605469 21.058594 10.273438 20.714844 10.273438 L 19.03125 10.273438 L 19.03125 4.515625 C 18.5625 4.039062 16.667969 3.09375 16.21875 2.625 L 5.671875 2.625 C 5.648438 2.625 5.625 2.625 5.597656 2.625 Z M 6.140625 3.796875 L 14.929688 3.796875 L 14.929688 6.140625 L 17.859375 6.140625 L 17.859375 10.242188 L 6.140625 10.242188 Z M 3.796875 10.828125 L 20.203125 10.828125 L 20.203125 15.515625 L 3.796875 15.515625 Z M 19.617188 16.6875 C 19.875 16.6875 20.203125 17.015625 20.203125 17.273438 C 20.203125 17.53125 19.875 17.859375 19.617188 17.859375 C 19.359375 17.859375 19.03125 17.53125 19.03125 17.273438 C 19.03125 17.015625 19.359375 16.6875 19.617188 16.6875 Z M 6.140625 16.101562 L 17.859375 16.101562 L 17.859375 20.203125 L 6.140625 20.203125 Z "/>
</svg>
