<svg width="24" xmlns="http://www.w3.org/2000/svg" height="24" viewBox="0 0 24 24" xmlns:xlink="http://www.w3.org/1999/xlink">
<defs>
<linearGradient gradientTransform="matrix(.5 0 0 -.5 0 526.1811)" id="linear0" y1="1053.158" y2="1004.847" gradientUnits="userSpaceOnUse" x2="0">
<stop offset="0" style="stop-color:#31de09"/>
<stop offset="1" style="stop-color:#47ab00"/>
</linearGradient>
</defs>
<path style="fill:url(#linear0)" d="M 0.972656 24 L 23.027344 24 C 23.566406 24 24 23.566406 24 23.027344 L 24 0.972656 C 24 0.433594 23.566406 0 23.027344 0 L 0.972656 0 C 0.433594 0 0 0.433594 0 0.972656 L 0 23.027344 C 0 23.566406 0.433594 24 0.972656 24 Z "/>
<g style="fill:#4c4c4c;stroke:#4c4c4c">
<path d="M -34.834222 1009.434793 C -44.99082 1009.97815 -53.057584 1018.950508 -53.057584 1029.901244 C -53.057584 1041.200285 -44.461395 1050.367695 -33.845033 1050.367695 C -23.228671 1050.367695 -14.632483 1041.200285 -14.632483 1029.901244 C -14.632483 1018.58827 -23.228671 1009.434793 -33.845033 1009.434793 C -34.179407 1009.434793 -34.499848 1009.42086 -34.834222 1009.434793 Z " transform="matrix(.28037 0 0 .28037 21.56352 -276.67653)"/>
<path d="M 19.860776 1006.495865 L 27.885742 1006.495865 C 28.345506 1006.495865 28.707744 1007.098787 28.707744 1007.838737 L 28.707744 1011.949569 C 28.707744 1012.689519 28.345506 1013.292441 27.885742 1013.292441 L 19.860776 1013.292441 C 19.401012 1013.292441 19.038774 1012.689519 19.038774 1011.949569 L 19.038774 1007.838737 C 19.038774 1007.098787 19.401012 1006.495865 19.860776 1006.495865 Z " transform="matrix(.28037 0 0 .28507 5.30654 -281.30849)"/>
<path d="M 19.860776 1044.507362 L 27.885742 1044.507362 C 28.345506 1044.507362 28.707744 1045.110284 28.707744 1045.850234 L 28.707744 1049.947364 C 28.707744 1050.687314 28.345506 1051.290236 27.885742 1051.290236 L 19.860776 1051.290236 C 19.401012 1051.290236 19.038774 1050.687314 19.038774 1049.947364 L 19.038774 1045.850234 C 19.038774 1045.110284 19.401012 1044.507362 19.860776 1044.507362 Z " transform="matrix(.28037 0 0 .28507 5.30654 -281.30849)"/>
<path d="M 1025.149667 -46.623398 L 1033.177323 -46.619695 C 1033.624933 -46.61786 1033.997169 -46.013046 1034.000199 -45.273517 L 1033.997485 -41.18673 C 1033.990825 -40.43751 1033.623532 -39.835726 1033.175923 -39.83756 L 1025.138576 -39.831573 C 1024.690967 -39.833407 1024.318731 -40.438222 1024.3157 -41.17775 L 1024.318335 -45.283999 C 1024.315305 -46.023528 1024.682597 -46.625312 1025.149667 -46.623398 Z " transform="matrix(-.1999 .20155 -.1999 -.20155 212.916 -200.19019)"/>
<path d="M 1025.149722 -8.616168 L 1033.177378 -8.612464 C 1033.624987 -8.61063 1033.997224 -8.005815 1034.000254 -7.266287 L 1033.997539 -3.179499 C 1033.990879 -2.43028 1033.623587 -1.828496 1033.175978 -1.83033 L 1025.138631 -1.824343 C 1024.691022 -1.826177 1024.318785 -2.430991 1024.315755 -3.17052 L 1024.31839 -7.276769 C 1024.315359 -8.016297 1024.682651 -8.618082 1025.149722 -8.616168 Z " transform="matrix(-.1999 .20155 -.1999 -.20155 212.916 -200.19019)"/>
<path d="M 19.858129 1006.507096 L 27.885795 1006.497129 C 28.343106 1006.505738 28.711386 1007.108123 28.709571 1007.847644 L 28.70925 1011.944174 C 28.707436 1012.683694 28.336195 1013.287895 27.888591 1013.288993 L 19.851219 1013.289253 C 19.403614 1013.290351 19.035334 1012.687965 19.027442 1011.938738 L 19.027763 1007.842208 C 19.029578 1007.102687 19.400818 1006.498487 19.858129 1006.507096 Z " transform="matrix(.20023 .20122 -.20023 .20122 213.36141 -199.71149)"/>
<path d="M 19.852472 1044.504609 L 27.889843 1044.504349 C 28.347155 1044.512958 28.715435 1045.115343 28.71362 1045.854864 L 28.713299 1049.951394 C 28.711485 1050.690915 28.340244 1051.295115 27.89264 1051.296213 L 19.855268 1051.296473 C 19.397957 1051.287864 19.029677 1050.685479 19.031491 1049.945958 L 19.031812 1045.849428 C 19.033627 1045.109908 19.404867 1044.505707 19.852472 1044.504609 Z " transform="matrix(.20023 .20122 -.20023 .20122 213.36141 -199.71149)"/>
<path d="M 1025.145021 -46.626873 L 1033.167687 -46.626873 C 1033.624819 -46.626873 1034.001953 -46.01531 1034.001953 -45.275746 L 1034.001953 -41.179698 C 1034.001953 -40.440134 1033.624819 -39.842794 1033.167687 -39.842794 L 1025.145021 -39.842794 C 1024.687889 -39.842794 1024.310755 -40.440134 1024.310755 -41.179698 L 1024.310755 -45.275746 C 1024.310755 -46.01531 1024.687889 -46.626873 1025.145021 -46.626873 Z " transform="matrix(0 .34181 -.27465 0 5.34604 -339.62235)"/>
<path d="M 1025.145021 -8.610429 L 1033.167687 -8.610429 C 1033.624819 -8.610429 1034.001953 -8.013089 1034.001953 -7.273525 L 1034.001953 -3.177477 C 1034.001953 -2.437913 1033.624819 -1.82635 1033.167687 -1.82635 L 1025.145021 -1.82635 C 1024.687889 -1.82635 1024.310755 -2.437913 1024.310755 -3.177477 L 1024.310755 -7.273525 C 1024.310755 -8.013089 1024.687889 -8.610429 1025.145021 -8.610429 Z " transform="matrix(0 .34181 -.27465 0 5.34604 -339.62235)"/>
<path d="M -34.82029 1009.685573 C -44.767905 1010.214998 -52.695346 1019.061966 -52.695346 1029.873379 C -52.695346 1041.019166 -44.252412 1050.061186 -33.845033 1050.061186 C -23.437655 1050.061186 -14.994721 1041.019166 -14.994721 1029.873379 C -14.994721 1018.71366 -23.437655 1009.685573 -33.845033 1009.685573 C -34.165475 1009.685573 -34.485916 1009.657708 -34.82029 1009.685573 Z " transform="matrix(.28037 0 0 .28037 21.56352 -276.67653)"/>
<path d="M 19.860776 1006.498529 L 27.885742 1006.498529 C 28.345506 1006.498529 28.707744 1007.097615 28.707744 1007.849955 L 28.707744 1011.946032 C 28.707744 1012.68444 28.345506 1013.283527 27.885742 1013.283527 L 19.860776 1013.283527 C 19.401012 1013.283527 19.038774 1012.68444 19.038774 1011.946032 L 19.038774 1007.849955 C 19.038774 1007.097615 19.401012 1006.498529 19.860776 1006.498529 Z " transform="matrix(.28037 0 0 .28037 5.30654 -276.47827)"/>
<path d="M 19.860776 1044.505662 L 27.885742 1044.505662 C 28.345506 1044.505662 28.707744 1045.104748 28.707744 1045.857089 L 28.707744 1049.953165 C 28.707744 1050.691574 28.345506 1051.29066 27.885742 1051.29066 L 19.860776 1051.29066 C 19.401012 1051.29066 19.038774 1050.691574 19.038774 1049.953165 L 19.038774 1045.857089 C 19.038774 1045.104748 19.401012 1044.505662 19.860776 1044.505662 Z " transform="matrix(.28037 0 0 .28037 5.30654 -276.47827)"/>
<path d="M 1025.136214 -46.626153 L 1033.170309 -46.626153 C 1033.627441 -46.626153 1033.993147 -46.021927 1033.993147 -45.273838 L 1033.993147 -41.188118 C 1033.993147 -40.440029 1033.627441 -39.835802 1033.170309 -39.835802 L 1025.136214 -39.835802 C 1024.690511 -39.835802 1024.313377 -40.440029 1024.313377 -41.188118 L 1024.313377 -45.273838 C 1024.313377 -46.021927 1024.690511 -46.626153 1025.136214 -46.626153 Z " transform="matrix(0 .34181 -.27153 0 5.42187 -339.69747)"/>
<path d="M 1025.136214 -8.617452 L 1033.170309 -8.617452 C 1033.627441 -8.617452 1033.993147 -8.013226 1033.993147 -7.265137 L 1033.993147 -3.179417 C 1033.993147 -2.431328 1033.627441 -1.827102 1033.170309 -1.827102 L 1025.136214 -1.827102 C 1024.690511 -1.827102 1024.313377 -2.431328 1024.313377 -3.179417 L 1024.313377 -7.265137 C 1024.313377 -8.013226 1024.690511 -8.617452 1025.136214 -8.617452 Z " transform="matrix(0 .34181 -.27153 0 5.42187 -339.69747)"/>
<path d="M 19.856996 1006.5021 L 27.895885 1006.5021 C 28.349058 1006.5021 28.713566 1007.103046 28.713566 1007.851766 L 28.713566 1011.950023 C 28.713566 1012.67904 28.339206 1013.289838 27.886034 1013.289838 L 19.856996 1013.279987 C 19.403823 1013.279987 19.029463 1012.688892 19.029463 1011.940172 L 19.029463 1007.841914 C 19.039315 1007.103046 19.403823 1006.5021 19.856996 1006.5021 Z " transform="matrix(.19825 .19825 -.19825 .19825 211.32608 -196.64488)"/>
<path d="M 19.856996 1044.509495 L 27.895885 1044.509495 C 28.349058 1044.509495 28.713566 1045.110442 28.713566 1045.859162 L 28.713566 1049.957419 C 28.713566 1050.686436 28.339206 1051.297234 27.886034 1051.297234 L 19.856996 1051.287382 C 19.403823 1051.287382 19.029463 1050.696288 19.029463 1049.947568 L 19.029463 1045.84931 C 19.039315 1045.110442 19.403823 1044.509495 19.856996 1044.509495 Z " transform="matrix(.19825 .19825 -.19825 .19825 211.32608 -196.64488)"/>
<path d="M 1025.135933 -46.622629 L 1033.174822 -46.622629 C 1033.627995 -46.622629 1033.992503 -46.021683 1034.002355 -45.282814 L 1034.002355 -41.184557 C 1034.002355 -40.435837 1033.627995 -39.844742 1033.174822 -39.844742 L 1025.145784 -39.834891 C 1024.692612 -39.834891 1024.318252 -40.445689 1024.318252 -41.174706 L 1024.318252 -45.272963 C 1024.318252 -46.021683 1024.68276 -46.622629 1025.135933 -46.622629 Z " transform="matrix(-.19825 .19825 -.19825 -.19825 211.30766 -196.76665)"/>
<path d="M 1025.135933 -8.615234 L 1033.174822 -8.615234 C 1033.627995 -8.615234 1033.992503 -8.014287 1034.002355 -7.275419 L 1034.002355 -3.177161 C 1034.002355 -2.428441 1033.627995 -1.837346 1033.174822 -1.837346 L 1025.145784 -1.827495 C 1024.692612 -1.827495 1024.318252 -2.438293 1024.318252 -3.16731 L 1024.318252 -7.265567 C 1024.318252 -8.014287 1024.68276 -8.615234 1025.135933 -8.615234 Z " transform="matrix(-.19825 .19825 -.19825 -.19825 211.30766 -196.76665)"/>
<path d="M 33.584922 24.932628 C 33.584922 28.397854 30.777106 31.205669 27.311881 31.205669 C 23.846655 31.205669 21.03884 28.397854 21.03884 24.932628 C 21.03884 21.467403 23.846655 18.653443 27.311881 18.653443 C 30.777106 18.653443 33.584922 21.467403 33.584922 24.932628 Z " transform="matrix(.63578 0 0 .63578 -5.36438 -3.85169)"/>
<path style="stroke-linecap:round;stroke-width:.2" d="M 33.581642 24.925447 C 33.581642 28.394573 30.781263 31.208885 27.312137 31.208885 C 23.84301 31.208885 21.042631 28.394573 21.042631 24.925447 C 21.042631 21.470253 23.84301 18.655942 27.312137 18.655942 C 30.781263 18.655942 33.581642 21.470253 33.581642 24.925447 Z " transform="matrix(.28037 0 0 .28037 4.41658 5.08184)"/>
</g>
<g style="fill:#fff">
<g style="stroke:#f9f9f9">
<path d="M 18.242299 46.885155 C 18.253921 51.918709 14.150818 56.034499 9.117265 56.046121 C 4.062774 56.022701 0.00296363 51.933704 -0.00865869 46.90015 C -0.020281 41.866596 4.103759 37.785849 9.137312 37.774227 C 14.170866 37.762605 18.230676 41.851601 18.242299 46.885155 Z " transform="matrix(.08215 .04908 -.04908 .08215 9.9393 5.4524)"/>
<path d="M 83.670783 84.685062 C 83.682406 89.718616 79.593409 93.778426 74.559855 93.790049 C 69.526301 93.801671 65.410512 89.698568 65.433932 84.644078 C 65.42231 79.610524 69.511306 75.550714 74.54486 75.539091 C 79.578414 75.527469 83.694204 79.630572 83.670783 84.685062 Z " transform="matrix(.08215 .04908 -.04908 .08215 9.9393 5.4524)"/>
<path d="M -29.878486 1015.127784 C -24.302354 1015.131308 -19.681604 1019.273953 -18.929332 1024.631744 L -11.251855 1024.639184 C -11.604516 1020.418653 -13.34489 1016.490824 -16.271389 1013.388279 C -18.14791 1014.346186 -20.445014 1014.36594 -22.406905 1013.229202 C -24.358528 1012.10965 -25.487869 1010.102333 -25.600695 1008.00077 C -26.980402 1007.68231 -28.411887 1007.511397 -29.884883 1007.505218 C -32.676408 1007.517184 -35.369467 1008.123344 -37.833481 1009.269002 L -33.993414 1015.930442 C -32.722008 1015.404039 -31.341213 1015.138793 -29.878486 1015.127784 Z " transform="matrix(.16749 .10007 -.10007 .16749 119.66631 -156.99475)"/>
<path d="M -18.918019 1027.773493 C -19.683386 1033.128457 -24.302395 1037.264184 -29.868258 1037.277847 C -31.341254 1037.271669 -32.727879 1036.980664 -34.004246 1036.483849 L -37.841657 1043.137849 C -35.385345 1044.282376 -32.680842 1044.905461 -29.889317 1044.893495 C -28.416321 1044.899673 -26.984183 1044.720362 -25.589552 1044.400204 C -25.486082 1042.309345 -24.352694 1040.302811 -22.400288 1039.159633 C -20.437614 1038.033641 -18.13716 1038.05853 -16.260769 1039.013129 C -13.350197 1035.921461 -11.598597 1031.982971 -11.25081 1027.763746 Z " transform="matrix(.16749 .10007 -.10007 .16749 119.66631 -156.99475)"/>
<path d="M -40.962131 1026.20447 C -40.948687 1022.674772 -39.291246 1019.515531 -36.722587 1017.49107 L -40.552385 1010.846817 C -41.456598 1011.480345 -42.309467 1012.199808 -43.104075 1012.977751 C -45.316026 1015.208892 -46.910767 1017.887548 -47.795225 1020.81818 C -46.022174 1021.951133 -44.858458 1023.937912 -44.859241 1026.200642 C -44.860024 1028.463372 -46.031136 1030.4458 -47.794702 1031.592764 C -46.910852 1034.51639 -45.326118 1037.207839 -43.094978 1039.41979 C -42.317035 1040.214398 -41.456508 1040.913019 -40.554688 1041.563646 L -36.717277 1034.909646 C -39.28524 1032.875613 -40.958389 1029.7239 -40.962131 1026.20447 Z " transform="matrix(.16749 .10007 -.10007 .16749 119.66631 -156.99475)"/>
<path d="M 83.657556 9.133051 C 83.669179 14.166605 79.580182 18.226415 74.546628 18.238037 C 69.513074 18.24966 65.418221 14.1816 65.406599 9.148046 C 65.430019 4.093555 69.498079 -0.00129763 74.531633 -0.01292 C 79.586124 0.0105004 83.680977 4.07856 83.657556 9.133051 Z " transform="matrix(.08215 .04908 -.04908 .08215 9.9393 5.4524)"/>
</g>
<path style="fill-opacity:.149" d="M 0 0 L 0 24 L 8.390625 24 L 14.8125 0 Z "/>
</g>
</svg>
