<svg width="24" xmlns="http://www.w3.org/2000/svg" height="24" viewBox="0 0 24 24" xmlns:xlink="http://www.w3.org/1999/xlink">
<defs>
<linearGradient gradientTransform="matrix(.5 0 0 -.5 0 526.18105)" id="linear0" y1="1004.658" y2="1052.039" gradientUnits="userSpaceOnUse" x2="0">
<stop offset="0" style="stop-color:#464745"/>
<stop offset="1" style="stop-color:#828680"/>
</linearGradient>
</defs>
<path style="fill:url(#linear0)" d="M 0.972656 24 L 23.027344 24 C 23.566406 24 24 23.566406 24 23.027344 L 24 0.972656 C 24 0.433594 23.566406 0 23.027344 0 L 0.972656 0 C 0.433594 0 0 0.433594 0 0.972656 L 0 23.027344 C 0 23.566406 0.433594 24 0.972656 24 Z "/>
<g style="fill:#fff">
<path d="M 5.378906 4.011719 L 5.378906 9.242188 C 5.378906 13.589844 5.53125 14.632812 5.703125 15.34375 C 6.339844 18.023438 8.0625 19.558594 10.835938 19.929688 C 12.335938 20.128906 15.367188 19.894531 17.75 19.398438 L 18.621094 19.21875 L 18.621094 4.011719 L 14.207031 4 L 14.207031 16.136719 L 9.792969 16.136719 L 9.792969 7.585938 L 8.136719 7.585938 L 10.34375 4 Z "/>
<path style="fill-opacity:.149" d="M 0 0 L 0 24 L 8.390625 24 L 14.8125 0 Z "/>
</g>
</svg>
