<svg width="24" xmlns="http://www.w3.org/2000/svg" height="24" viewBox="0 0 24 24" xmlns:xlink="http://www.w3.org/1999/xlink">
<defs>
<linearGradient gradientTransform="matrix(.5 0 0 -.5 0 526.1811)" id="linear0" y1="1053.158" y2="1004.847" gradientUnits="userSpaceOnUse" x2="0">
<stop offset="0" style="stop-color:#fc5612"/>
<stop offset="1" style="stop-color:#b55328"/>
</linearGradient>
</defs>
<path style="fill:url(#linear0)" d="M 0.972656 24 L 23.027344 24 C 23.566406 24 24 23.566406 24 23.027344 L 24 0.972656 C 24 0.433594 23.566406 0 23.027344 0 L 0.972656 0 C 0.433594 0 0 0.433594 0 0.972656 L 0 23.027344 C 0 23.566406 0.433594 24 0.972656 24 Z "/>
<g style="fill:#fff">
<path style="stroke:#fff;stroke-width:2" d="M 11.542237 1046.00476 L 38.917574 1046.00476 L 36.143896 1040.528121 L 14.583068 1040.528121 C 14.583068 1040.528121 13.365164 1042.83821 11.542237 1046.00476 Z " transform="matrix(.49714 0 0 .49714 -.5428 -500.5069)"/>
<path d="M 7.953125 16.269531 L 10.96875 4.496094 C 11.972656 3.839844 11.925781 3.828125 13.027344 4.496094 L 16.046875 16.28125 C 12.832031 18.058594 10.875 17.953125 7.953125 16.269531 Z "/>
</g>
<path style="fill:#d05420" d="M 8.492188 11.992188 L 15.503906 11.992188 L 15.988281 13.875 L 8.011719 13.863281 Z "/>
<path style="fill:#dd541c" d="M 9.355469 8.589844 L 14.640625 8.589844 L 15.121094 10.472656 L 8.878906 10.460938 Z "/>
<path style="fill:#fff;fill-opacity:.149" d="M 0 0 L 0 24 L 8.390625 24 L 14.8125 0 Z "/>
</svg>
