<svg width="24" xmlns="http://www.w3.org/2000/svg" height="24" viewBox="0 0 24 24" xmlns:xlink="http://www.w3.org/1999/xlink">
<defs>
<linearGradient gradientTransform="matrix(.5 0 0 -.5 0 526.1811)" id="linear0" y1="1053.158" y2="1004.847" gradientUnits="userSpaceOnUse" x2="0">
<stop offset="0" style="stop-color:#536b7e"/>
<stop offset="1" style="stop-color:#4b5f6c"/>
</linearGradient>
</defs>
<path style="fill:url(#linear0)" d="M 0.972656 24 L 23.027344 24 C 23.566406 24 24 23.566406 24 23.027344 L 24 0.972656 C 24 0.433594 23.566406 0 23.027344 0 L 0.972656 0 C 0.433594 0 0 0.433594 0 0.972656 L 0 23.027344 C 0 23.566406 0.433594 24 0.972656 24 Z "/>
<g style="fill:#fff">
<path style="fill-opacity:.149" d="M 0 0 L 0 24 L 8.390625 24 L 14.8125 0 Z "/>
<path d="M 4 4 L 6.59375 7.953125 C 6.761719 7.679688 6.953125 7.421875 7.1875 7.1875 C 8.175781 6.199219 9.542969 5.824219 10.828125 6.03125 L 9.5 4 Z M 10.828125 6.03125 L 11.5 7.046875 C 11.757812 7.160156 12.003906 7.289062 12.234375 7.46875 L 12.65625 6.796875 C 12.105469 6.386719 11.476562 6.136719 10.828125 6.03125 Z M 12.65625 6.796875 C 12.816406 6.917969 12.980469 7.042969 13.125 7.1875 C 14.640625 8.703125 14.75 11.121094 13.453125 12.765625 L 15.640625 14.953125 L 14.953125 15.640625 L 12.765625 13.453125 C 11.414062 14.523438 9.542969 14.632812 8.078125 13.796875 L 4 20 L 9.5 20 L 12 16.1875 L 14.5 20 L 20 20 L 14.75 12 L 20 4 L 14.5 4 Z M 8.078125 13.796875 L 8.515625 13.125 C 8.246094 12.976562 7.980469 12.792969 7.75 12.5625 C 6.710938 11.523438 6.503906 9.976562 7.09375 8.71875 L 6.59375 7.953125 C 5.597656 9.566406 5.789062 11.726562 7.1875 13.125 C 7.457031 13.394531 7.761719 13.617188 8.078125 13.796875 Z M 7.09375 8.71875 L 9.25 12 L 8.515625 13.125 C 9.808594 13.84375 11.464844 13.660156 12.5625 12.5625 C 13.890625 11.234375 13.890625 9.078125 12.5625 7.75 C 12.460938 7.648438 12.347656 7.554688 12.234375 7.46875 L 12 7.8125 L 11.5 7.046875 C 10.261719 6.511719 8.765625 6.734375 7.75 7.75 C 7.460938 8.039062 7.257812 8.371094 7.09375 8.71875 Z M 15.84375 14.859375 L 18.03125 17.046875 L 17.046875 18.03125 L 14.859375 15.84375 Z "/>
</g>
</svg>
