<svg width="24" xmlns="http://www.w3.org/2000/svg" height="24" viewBox="0 0 24 24" xmlns:xlink="http://www.w3.org/1999/xlink">
<g style="fill:#cd251b">
<path d="M 8.066406 5.800781 L 7.988281 5.800781 L 7.1875 2.625 L 5.945312 2.625 L 7.414062 7.421875 L 7.414062 10.570312 L 8.648438 10.570312 L 8.648438 7.273438 L 10.085938 2.625 L 8.832031 2.625 Z "/>
<path d="M 10.027344 9.085938 C 10.027344 9.585938 10.171875 9.980469 10.460938 10.277344 C 10.746094 10.570312 11.132812 10.71875 11.609375 10.71875 C 12.109375 10.71875 12.5 10.574219 12.785156 10.289062 C 13.066406 10.003906 13.210938 9.609375 13.210938 9.109375 L 13.210938 6.082031 C 13.210938 5.636719 13.066406 5.269531 12.773438 4.988281 C 12.484375 4.703125 12.113281 4.5625 11.660156 4.5625 C 11.164062 4.5625 10.765625 4.695312 10.46875 4.964844 C 10.175781 5.234375 10.027344 5.59375 10.027344 6.050781 Z M 11.15625 6.003906 C 11.15625 5.878906 11.199219 5.773438 11.28125 5.695312 C 11.363281 5.617188 11.472656 5.578125 11.605469 5.578125 C 11.753906 5.578125 11.871094 5.617188 11.957031 5.695312 C 12.046875 5.773438 12.09375 5.878906 12.09375 6.003906 L 12.09375 9.199219 C 12.09375 9.355469 12.046875 9.480469 11.960938 9.570312 C 11.875 9.660156 11.757812 9.703125 11.605469 9.703125 C 11.460938 9.703125 11.351562 9.660156 11.273438 9.570312 C 11.195312 9.484375 11.15625 9.359375 11.15625 9.195312 Z "/>
<path d="M 14.90625 10.65625 C 15.109375 10.65625 15.324219 10.59375 15.542969 10.46875 C 15.757812 10.34375 15.96875 10.160156 16.171875 9.921875 L 16.171875 10.570312 L 17.269531 10.570312 L 17.269531 4.710938 L 16.171875 4.710938 L 16.171875 9.160156 C 16.070312 9.285156 15.957031 9.390625 15.832031 9.472656 C 15.710938 9.554688 15.609375 9.597656 15.527344 9.597656 C 15.425781 9.597656 15.351562 9.566406 15.304688 9.503906 C 15.257812 9.441406 15.234375 9.339844 15.234375 9.203125 L 15.234375 4.710938 L 14.140625 4.710938 L 14.140625 9.609375 C 14.140625 9.957031 14.203125 10.21875 14.332031 10.394531 C 14.460938 10.566406 14.652344 10.65625 14.90625 10.65625 Z "/>
<path d="M 19.214844 13.757812 C 19.214844 12.609375 18.269531 11.679688 17.101562 11.679688 C 15.4375 11.613281 13.738281 11.582031 12 11.585938 C 10.261719 11.582031 8.5625 11.613281 6.898438 11.679688 C 5.730469 11.679688 4.785156 12.609375 4.785156 13.757812 C 4.714844 14.664062 4.683594 15.570312 4.6875 16.480469 C 4.683594 17.386719 4.714844 18.292969 4.785156 19.203125 C 4.785156 20.347656 5.730469 21.277344 6.898438 21.277344 C 8.5625 21.347656 10.261719 21.378906 12 21.375 C 13.738281 21.378906 15.4375 21.347656 17.101562 21.277344 C 18.269531 21.277344 19.214844 20.347656 19.214844 19.203125 C 19.285156 18.296875 19.316406 17.386719 19.3125 16.480469 C 19.316406 15.570312 19.285156 14.664062 19.214844 13.757812 Z M 7.855469 19.535156 L 7.855469 19.601562 L 6.855469 19.601562 L 6.855469 14.105469 L 5.820312 14.105469 L 5.820312 13.101562 L 8.886719 13.101562 L 8.886719 14.105469 L 7.855469 14.105469 Z M 11.410156 14.859375 L 11.410156 19.601562 L 10.519531 19.601562 L 10.519531 19.078125 C 10.359375 19.273438 10.1875 19.417969 10.011719 19.519531 C 9.832031 19.621094 9.660156 19.671875 9.496094 19.671875 C 9.289062 19.671875 9.136719 19.601562 9.03125 19.460938 C 8.925781 19.320312 8.875 19.105469 8.875 18.824219 L 8.875 14.789062 L 9.761719 14.789062 L 9.761719 18.425781 C 9.761719 18.539062 9.78125 18.621094 9.820312 18.671875 C 9.855469 18.722656 9.914062 18.746094 10 18.746094 C 10.066406 18.746094 10.148438 18.714844 10.246094 18.648438 C 10.347656 18.582031 10.4375 18.496094 10.519531 18.390625 L 10.519531 14.789062 L 11.40625 14.789062 L 11.40625 14.859375 Z M 14.824219 15.988281 L 14.824219 18.621094 C 14.824219 18.957031 14.753906 19.214844 14.617188 19.394531 C 14.476562 19.574219 14.277344 19.664062 14.011719 19.664062 C 13.839844 19.664062 13.683594 19.628906 13.546875 19.558594 C 13.414062 19.492188 13.285156 19.382812 13.171875 19.238281 L 13.171875 19.605469 L 12.273438 19.605469 L 12.273438 13.101562 L 13.171875 13.101562 L 13.171875 15.171875 C 13.289062 15.027344 13.417969 14.917969 13.550781 14.84375 C 13.6875 14.765625 13.820312 14.730469 13.960938 14.730469 C 14.238281 14.730469 14.453125 14.832031 14.601562 15.035156 C 14.75 15.238281 14.824219 15.53125 14.824219 15.917969 Z M 18.101562 16.132812 L 18.101562 17.34375 L 16.40625 17.34375 L 16.40625 18.167969 C 16.40625 18.417969 16.4375 18.589844 16.492188 18.6875 C 16.550781 18.785156 16.652344 18.832031 16.792969 18.832031 C 16.941406 18.832031 17.042969 18.792969 17.101562 18.710938 C 17.160156 18.628906 17.191406 18.449219 17.191406 18.167969 L 17.191406 17.839844 L 18.101562 17.839844 L 18.101562 18.265625 C 18.101562 18.75 17.992188 19.117188 17.769531 19.363281 C 17.546875 19.609375 17.214844 19.730469 16.773438 19.730469 C 16.375 19.730469 16.0625 19.601562 15.835938 19.339844 C 15.609375 19.078125 15.492188 18.722656 15.492188 18.265625 L 15.492188 16.066406 C 15.492188 15.652344 15.617188 15.316406 15.871094 15.058594 C 16.121094 14.800781 16.445312 14.667969 16.839844 14.667969 C 17.246094 14.667969 17.558594 14.789062 17.777344 15.03125 C 17.996094 15.269531 18.101562 15.613281 18.101562 16.066406 Z "/>
<path d="M 13.539062 15.550781 C 13.476562 15.550781 13.414062 15.566406 13.351562 15.597656 C 13.292969 15.628906 13.230469 15.679688 13.167969 15.742188 L 13.167969 18.632812 C 13.242188 18.710938 13.3125 18.765625 13.378906 18.800781 C 13.449219 18.832031 13.519531 18.851562 13.59375 18.851562 C 13.703125 18.851562 13.78125 18.816406 13.835938 18.75 C 13.886719 18.683594 13.910156 18.574219 13.910156 18.421875 L 13.910156 16.042969 C 13.910156 15.882812 13.878906 15.757812 13.816406 15.675781 C 13.753906 15.59375 13.660156 15.550781 13.539062 15.550781 Z "/>
<path d="M 16.800781 15.570312 C 16.660156 15.570312 16.558594 15.613281 16.5 15.699219 C 16.4375 15.785156 16.40625 15.925781 16.40625 16.125 L 16.40625 16.535156 L 17.191406 16.535156 L 17.191406 16.125 C 17.191406 15.925781 17.160156 15.785156 17.097656 15.699219 C 17.035156 15.613281 16.9375 15.570312 16.800781 15.570312 Z "/>
</g>
</svg>
