<svg width="256" xmlns="http://www.w3.org/2000/svg" height="256" viewBox="0 0 256 256" xmlns:xlink="http://www.w3.org/1999/xlink">
<path style="fill:#38a34e" d="M 42.667969 5.332031 C 37.179688 5.332031 32 10.515625 32 16 L 32 240 C 32 245.179688 37.484375 250.667969 42.667969 250.667969 L 213.332031 250.667969 C 218.515625 250.667969 224 245.179688 224 240 L 224 74.667969 L 154.667969 5.332031 Z "/>
<path style="fill:#000;fill-opacity:.196" d="M 154.667969 64 L 155 64.332031 L 155.832031 64 Z M 165.332031 74.667969 L 224 133.332031 L 224 74.667969 Z "/>
<path style="fill:#fff;fill-opacity:.392" d="M 154.667969 5.332031 L 224 74.667969 L 165.332031 74.667969 C 160.152344 74.667969 154.667969 69.179688 154.667969 64 Z "/>
<path style="fill:#000;fill-opacity:.196" d="M 32 186.667969 L 32 240 C 32 245.179688 37.484375 250.667969 42.667969 250.667969 L 213.332031 250.667969 C 218.515625 250.667969 224 245.179688 224 240 L 224 186.667969 Z "/>
<g style="fill:#fff">
<path d="M 90.855469 85.332031 C 87.851562 85.621094 85.28125 88.789062 85.335938 92.167969 L 85.335938 164 C 85.367188 167.535156 88.203125 170.71875 91.359375 170.667969 L 164.808594 170.667969 C 167.917969 170.613281 170.632812 167.480469 170.667969 164 L 170.667969 92.167969 C 170.710938 88.628906 167.964844 85.371094 164.808594 85.332031 Z M 96.042969 96 L 159.957031 96 L 159.957031 141.832031 C 159.496094 141.277344 159.269531 141.085938 158.785156 140.5 C 154.03125 134.800781 148.59375 128.023438 142.054688 119.832031 C 140.746094 121.128906 139.160156 122.691406 137.035156 124.667969 C 134.878906 126.640625 132.3125 129.015625 129.339844 131.667969 C 128.960938 132.078125 127.449219 130.503906 124.652344 127 C 121.792969 123.480469 117.871094 118.105469 112.605469 110.667969 C 105.546875 117.984375 100.457031 123.222656 96.042969 127.667969 Z "/>
<path d="M 107.410156 198.257812 L 107.410156 204.992188 L 95.550781 204.992188 L 95.550781 239.140625 L 86.527344 239.140625 L 86.527344 204.992188 L 74.667969 204.992188 L 74.667969 198.257812 L 107.410156 198.257812 "/>
<path d="M 131.929688 204.398438 C 129.792969 204.398438 128 204.75 126.542969 205.457031 C 125.089844 206.160156 123.878906 207.152344 122.90625 208.429688 C 121.984375 209.660156 121.304688 211.160156 120.871094 212.917969 C 120.480469 214.636719 120.289062 216.550781 120.289062 218.664062 C 120.289062 223.554688 121.136719 227.164062 122.835938 229.496094 C 124.53125 231.789062 127.03125 232.933594 130.328125 232.933594 C 130.863281 232.933594 131.445312 232.910156 132.074219 232.867188 C 132.707031 232.820312 133.289062 232.753906 133.820312 232.667969 L 133.820312 217.742188 L 142.769531 217.742188 L 142.769531 238.148438 C 141.703125 238.5 140.03125 238.898438 137.75 239.339844 C 135.519531 239.777344 132.800781 240 129.601562 240 C 126.789062 240 124.242188 239.558594 121.960938 238.679688 C 119.730469 237.753906 117.8125 236.410156 116.214844 234.648438 C 114.613281 232.84375 113.375 230.621094 112.503906 227.976562 C 111.628906 225.292969 111.191406 222.1875 111.191406 218.664062 C 111.191406 215.1875 111.703125 212.128906 112.71875 209.484375 C 113.738281 206.800781 115.121094 204.554688 116.867188 202.75 C 118.613281 200.941406 120.675781 199.601562 123.050781 198.71875 C 125.429688 197.792969 127.976562 197.332031 130.691406 197.332031 C 132.4375 197.332031 133.992188 197.464844 135.347656 197.730469 C 136.753906 197.949219 137.96875 198.214844 138.988281 198.519531 C 140.003906 198.828125 140.832031 199.160156 141.460938 199.511719 C 142.140625 199.863281 142.648438 200.128906 142.988281 200.304688 L 140.660156 206.777344 C 139.59375 206.160156 138.285156 205.609375 136.730469 205.125 C 135.179688 204.640625 133.578125 204.398438 131.929688 204.398438 "/>
<path d="M 171.730469 239.140625 L 169.617188 229.695312 L 157.613281 229.695312 L 155.578125 239.140625 L 146.261719 239.140625 C 148.398438 231.082031 150.554688 223.75 152.738281 217.148438 C 154.921875 210.496094 157.03125 204.203125 159.070312 198.257812 L 168.820312 198.257812 C 170.953125 204.246094 173.0625 210.609375 175.148438 217.34375 C 177.28125 224.039062 179.34375 231.304688 181.332031 239.140625 L 171.730469 239.140625 M 163.726562 206.183594 C 163.242188 207.722656 162.78125 209.199219 162.34375 210.609375 C 161.953125 211.972656 161.566406 213.339844 161.179688 214.703125 C 160.839844 216.023438 160.5 217.367188 160.160156 218.730469 C 159.871094 220.097656 159.578125 221.503906 159.285156 222.957031 L 168.089844 222.957031 C 167.800781 221.503906 167.507812 220.097656 167.21875 218.730469 C 166.925781 217.367188 166.585938 216.023438 166.199219 214.703125 C 165.859375 213.339844 165.472656 211.972656 165.035156 210.609375 C 164.648438 209.199219 164.210938 207.722656 163.726562 206.183594 "/>
</g>
</svg>
