<svg width="256" xmlns="http://www.w3.org/2000/svg" height="256" viewBox="0 0 256 256" xmlns:xlink="http://www.w3.org/1999/xlink">
<path style="fill:#dcdcdc" d="M 42.667969 5.332031 C 37.179688 5.332031 32 10.515625 32 16 L 32 240 C 32 245.179688 37.484375 250.667969 42.667969 250.667969 L 213.332031 250.667969 C 218.515625 250.667969 224 245.179688 224 240 L 224 74.667969 L 154.667969 5.332031 Z "/>
<path style="fill:#000;fill-opacity:.196" d="M 154.667969 64 L 155 64.332031 L 155.832031 64 Z M 165.332031 74.667969 L 224 133.332031 L 224 74.667969 Z "/>
<path style="fill:#fff;fill-opacity:.392" d="M 154.667969 5.332031 L 224 74.667969 L 165.332031 74.667969 C 160.152344 74.667969 154.667969 69.179688 154.667969 64 Z "/>
<g style="fill:#888">
<path d="M 123.425781 184.027344 L 123.425781 158.347656 L 98.445312 158.347656 L 102.792969 151.011719 L 110.789062 151.011719 L 99.203125 131.460938 L 73.859375 131.460938 L 79.382812 134.566406 L 72 147.023438 L 91.824219 180.472656 L 93.707031 183.652344 L 94.175781 184.445312 Z "/>
<path d="M 169.003906 123.878906 L 146.179688 136.71875 L 158.667969 157.796875 L 149.972656 157.796875 L 145.972656 151.050781 L 134.386719 170.601562 L 147.058594 191.984375 L 147.058594 185.773438 L 161.824219 185.773438 L 181.644531 152.324219 L 183.53125 149.140625 L 184 148.351562 Z "/>
<path d="M 92.6875 110.210938 L 115.511719 123.050781 L 128.003906 101.972656 L 132.351562 109.3125 L 128.355469 116.054688 L 151.523438 116.054688 L 164.199219 94.671875 L 158.675781 97.78125 L 151.292969 85.324219 L 106.941406 85.324219 Z "/>
</g>
</svg>
