<svg width="256" xmlns="http://www.w3.org/2000/svg" height="256" viewBox="0 0 256 256" xmlns:xlink="http://www.w3.org/1999/xlink">
<path style="fill:#c19553" d="M 42.667969 5.332031 C 37.179688 5.332031 32 10.515625 32 16 L 32 240 C 32 245.179688 37.484375 250.667969 42.667969 250.667969 L 213.332031 250.667969 C 218.515625 250.667969 224 245.179688 224 240 L 224 74.667969 L 154.667969 5.332031 Z "/>
<path style="fill:#000;fill-opacity:.196" d="M 154.667969 64 L 155 64.332031 L 155.832031 64 Z M 165.332031 74.667969 L 224 133.332031 L 224 74.667969 Z "/>
<path style="fill:#fff;fill-opacity:.392" d="M 154.667969 5.332031 L 224 74.667969 L 165.332031 74.667969 C 160.152344 74.667969 154.667969 69.179688 154.667969 64 Z "/>
<path style="fill:#000;fill-opacity:.196" d="M 32 186.667969 L 32 240 C 32 245.179688 37.484375 250.667969 42.667969 250.667969 L 213.332031 250.667969 C 218.515625 250.667969 224 245.179688 224 240 L 224 186.667969 Z "/>
<g style="fill:#fff">
<path d="M 96 5.332031 L 96 26.667969 L 117.332031 26.667969 L 117.332031 5.332031 Z M 96 26.667969 L 74.667969 26.667969 L 74.667969 48 L 96 48 Z M 96 48 L 96 69.332031 L 117.332031 69.332031 L 117.332031 48 Z M 96 69.332031 L 74.667969 69.332031 L 74.667969 90.667969 L 96 90.667969 Z M 96 90.667969 L 96 112 L 117.332031 112 L 117.332031 90.667969 Z M 74.667969 122.667969 L 74.667969 165.332031 L 117.332031 165.332031 L 117.332031 122.667969 Z "/>
<path d="M 108.257812 197.332031 L 108.257812 204.363281 L 96.089844 204.363281 L 96.089844 240 L 86.832031 240 L 86.832031 204.363281 L 74.667969 204.363281 L 74.667969 197.332031 L 108.257812 197.332031 "/>
<path d="M 144.460938 240 L 115.421875 240 L 115.421875 197.332031 L 124.679688 197.332031 L 124.679688 232.96875 L 144.460938 232.96875 L 144.460938 240 "/>
<path d="M 180.660156 203.261719 C 178.523438 206.292969 176.554688 209.144531 174.765625 211.808594 C 172.972656 214.472656 171.304688 217.023438 169.765625 219.460938 C 168.222656 221.847656 166.753906 224.167969 165.359375 226.421875 C 164.015625 228.625 162.722656 230.808594 161.476562 232.96875 L 181.332031 232.96875 L 181.332031 240 L 150.878906 240 L 150.878906 235.105469 C 151.972656 233.128906 153.144531 231.0625 154.386719 228.902344 C 155.632812 226.695312 157.023438 224.351562 158.566406 221.871094 C 160.109375 219.390625 161.777344 216.703125 163.570312 213.808594 C 165.410156 210.914062 167.425781 207.765625 169.613281 204.363281 L 151.847656 204.363281 L 151.847656 197.332031 L 180.660156 197.332031 L 180.660156 203.261719 "/>
</g>
</svg>
