<svg width="256" xmlns="http://www.w3.org/2000/svg" height="256" viewBox="0 0 256 256" xmlns:xlink="http://www.w3.org/1999/xlink">
<path style="fill:#dcdcdc" d="M 42.667969 5.332031 C 37.179688 5.332031 32 10.515625 32 16 L 32 240 C 32 245.179688 37.484375 250.667969 42.667969 250.667969 L 213.332031 250.667969 C 218.515625 250.667969 224 245.179688 224 240 L 224 74.667969 L 154.667969 5.332031 Z "/>
<path style="fill:#000;fill-opacity:.196" d="M 154.667969 64 L 155 64.332031 L 155.832031 64 Z M 165.332031 74.667969 L 224 133.332031 L 224 74.667969 Z "/>
<path style="fill:#fff;fill-opacity:.392" d="M 154.667969 5.332031 L 224 74.667969 L 165.332031 74.667969 C 160.152344 74.667969 154.667969 69.179688 154.667969 64 Z "/>
<g style="fill:#888">
<path d="M 162.035156 117.640625 C 168.074219 119.492188 162.777344 128.109375 171.421875 132.332031 C 181.304688 137.15625 186.21875 124.980469 192.152344 133.671875 C 198.085938 142.367188 183.960938 141.015625 184.359375 151.246094 C 184.757812 161.476562 198.734375 159.304688 193.492188 168.332031 C 188.246094 177.359375 182.421875 165.511719 172.9375 170.917969 C 163.453125 176.320312 172.519531 186.324219 161.339844 186.660156 C 150.15625 186.996094 158.457031 176.496094 148.578125 171.671875 C 138.695312 166.847656 133.78125 179.019531 127.847656 170.328125 C 121.914062 161.636719 136.039062 162.984375 135.640625 152.757812 C 135.242188 142.527344 121.265625 144.699219 126.507812 135.671875 C 131.753906 126.644531 137.578125 138.492188 147.0625 133.085938 C 156.546875 127.683594 147.480469 117.679688 158.660156 117.34375 C 160.058594 117.300781 161.171875 117.378906 162.035156 117.640625 Z M 161.917969 143.6875 C 156.933594 142.710938 152.03125 145.644531 150.96875 150.234375 C 149.910156 154.824219 153.09375 159.339844 158.082031 160.316406 C 163.066406 161.292969 167.96875 158.359375 169.03125 153.769531 C 170.089844 149.175781 166.90625 144.664062 161.917969 143.6875 Z "/>
<path d="M 114.035156 74.976562 C 120.074219 76.828125 114.777344 85.445312 123.421875 89.664062 C 133.304688 94.492188 138.21875 82.316406 144.152344 91.007812 C 150.085938 99.699219 135.960938 98.351562 136.359375 108.582031 C 136.757812 118.808594 150.734375 116.636719 145.492188 125.664062 C 140.246094 134.691406 134.421875 122.84375 124.9375 128.25 C 115.453125 133.65625 124.519531 143.65625 113.339844 143.992188 C 102.15625 144.328125 110.457031 133.828125 100.578125 129.003906 C 90.695312 124.179688 85.78125 136.355469 79.847656 127.664062 C 73.914062 118.972656 88.039062 120.320312 87.640625 110.089844 C 87.242188 99.859375 73.265625 102.03125 78.507812 93.003906 C 83.753906 83.980469 89.578125 95.824219 99.0625 90.421875 C 108.546875 85.015625 99.480469 75.011719 110.660156 74.675781 C 112.058594 74.636719 113.171875 74.710938 114.035156 74.976562 Z M 113.917969 101.019531 C 108.933594 100.046875 104.03125 102.976562 102.96875 107.566406 C 101.910156 112.160156 105.09375 116.671875 110.082031 117.648438 C 115.066406 118.625 119.96875 115.695312 121.03125 111.101562 C 122.089844 106.511719 118.90625 101.996094 113.917969 101.019531 Z "/>
<path d="M 98.035156 133.640625 C 104.074219 135.492188 98.777344 144.109375 107.421875 148.332031 C 117.304688 153.15625 122.21875 140.980469 128.152344 149.671875 C 134.085938 158.367188 119.960938 157.015625 120.359375 167.246094 C 120.757812 177.476562 134.734375 175.304688 129.492188 184.332031 C 124.246094 193.359375 118.421875 181.511719 108.9375 186.917969 C 99.453125 192.320312 108.519531 202.324219 97.339844 202.660156 C 86.15625 202.996094 94.457031 192.496094 84.578125 187.671875 C 74.695312 182.847656 69.78125 195.019531 63.847656 186.328125 C 57.914062 177.636719 72.039062 178.984375 71.640625 168.757812 C 71.242188 158.527344 57.265625 160.699219 62.507812 151.671875 C 67.753906 142.644531 73.578125 154.492188 83.0625 149.085938 C 92.546875 143.683594 83.480469 133.679688 94.660156 133.34375 C 96.058594 133.300781 97.171875 133.378906 98.035156 133.640625 Z M 97.917969 159.6875 C 92.933594 158.710938 88.03125 161.644531 86.96875 166.234375 C 85.910156 170.824219 89.09375 175.339844 94.082031 176.316406 C 99.066406 177.292969 103.96875 174.359375 105.03125 169.769531 C 106.089844 165.175781 102.90625 160.664062 97.917969 159.6875 Z "/>
</g>
</svg>
