<svg width="256" xmlns="http://www.w3.org/2000/svg" height="256" viewBox="0 0 256 256" xmlns:xlink="http://www.w3.org/1999/xlink">
<path style="fill:#3468ce" d="M 42.667969 5.332031 C 37.179688 5.332031 32 10.515625 32 16 L 32 240 C 32 245.179688 37.484375 250.667969 42.667969 250.667969 L 213.332031 250.667969 C 218.515625 250.667969 224 245.179688 224 240 L 224 16 C 224 10.515625 218.820312 5.332031 213.332031 5.332031 Z "/>
<path style="fill:#fff" d="M 85.753906 85.332031 L 122.246094 85.332031 C 123.949219 85.332031 125.332031 86.769531 125.332031 88.539062 L 125.332031 119.460938 C 125.332031 121.230469 123.949219 122.667969 122.246094 122.667969 L 85.753906 122.667969 C 84.050781 122.667969 82.667969 121.230469 82.667969 119.460938 L 82.667969 88.539062 C 82.667969 86.769531 84.050781 85.332031 85.753906 85.332031 Z "/>
<g style="stroke-linecap:round;fill:none;stroke:#fff;stroke-linejoin:round">
<path d="M 26.500244 17.5 L 31.499756 17.5 " transform="matrix(5.33333 0 0 5.33333 -2.66667 -5.33333)"/>
<path d="M 26.500244 20.5 L 31.499756 20.5 " transform="matrix(5.33333 0 0 5.33333 -2.66667 -5.33333)"/>
<path d="M 26.500244 23.5 L 31.499756 23.5 " transform="matrix(5.33333 0 0 5.33333 -2.66667 -5.33333)"/>
<path d="M 16.000244 26.5 L 32 26.5 " transform="matrix(5.33333 0 0 5.33333 -2.66667 -5.33333)"/>
<path d="M 16.000244 29.5 L 32 29.5 " transform="matrix(5.33333 0 0 5.33333 -2.66667 -5.33333)"/>
<path d="M 16.000244 32.5 L 32 32.5 " transform="matrix(5.33333 0 0 5.33333 -2.66667 -5.33333)"/>
</g>
<path style="fill:#000;fill-opacity:.196" d="M 32 186.667969 L 32 240 C 32 245.179688 37.484375 250.667969 42.667969 250.667969 L 213.332031 250.667969 C 218.515625 250.667969 224 245.179688 224 240 L 224 186.667969 Z "/>
<g style="fill:#fff">
<path d="M 94.722656 212.738281 C 94.917969 213.601562 95.210938 214.667969 95.601562 215.941406 C 95.996094 217.210938 96.410156 218.621094 96.851562 220.164062 C 97.339844 221.710938 97.855469 223.371094 98.394531 225.140625 C 98.980469 226.914062 99.546875 228.730469 100.085938 230.59375 C 100.085938 228.230469 100.058594 225.710938 100.011719 223.027344 C 99.960938 220.300781 99.914062 217.53125 99.863281 214.714844 C 99.816406 211.894531 99.765625 209.054688 99.71875 206.195312 C 99.667969 203.285156 99.644531 200.492188 99.644531 197.808594 L 108.019531 197.808594 C 107.871094 201.261719 107.722656 204.832031 107.578125 208.511719 C 107.429688 212.144531 107.257812 215.78125 107.0625 219.417969 C 106.867188 223.003906 106.621094 226.550781 106.328125 230.046875 C 106.082031 233.546875 105.789062 236.863281 105.445312 240 L 97.953125 240 C 96.875 237.136719 95.800781 234.070312 94.722656 230.796875 C 93.644531 227.480469 92.566406 224.324219 91.488281 221.324219 C 90.410156 224.1875 89.285156 227.300781 88.109375 230.660156 C 86.933594 234.023438 85.855469 237.136719 84.878906 240 L 77.382812 240 C 76.992188 236.863281 76.648438 233.546875 76.355469 230.046875 C 76.0625 226.503906 75.792969 222.9375 75.546875 219.347656 C 75.351562 215.710938 75.179688 212.078125 75.035156 208.441406 C 74.886719 204.761719 74.765625 201.21875 74.667969 197.808594 L 83.042969 197.808594 C 82.992188 200.492188 82.941406 203.261719 82.894531 206.125 C 82.84375 208.988281 82.796875 211.851562 82.746094 214.714844 C 82.699219 217.53125 82.648438 220.300781 82.601562 223.027344 C 82.550781 225.710938 82.527344 228.230469 82.527344 230.59375 C 82.96875 229.140625 83.457031 227.550781 83.996094 225.824219 C 84.582031 224.097656 85.121094 222.390625 85.613281 220.710938 C 86.152344 219.03125 86.640625 217.484375 87.082031 216.078125 C 87.523438 214.667969 87.863281 213.554688 88.109375 212.738281 L 94.722656 212.738281 "/>
<path d="M 126.164062 197.332031 C 131.941406 197.332031 136.421875 198.445312 139.605469 200.671875 C 142.789062 202.855469 144.382812 206.445312 144.382812 211.441406 C 144.382812 216.484375 142.765625 220.144531 139.53125 222.414062 C 136.351562 224.640625 131.820312 225.753906 125.941406 225.753906 L 122.710938 225.753906 L 122.710938 240 L 113.675781 240 L 113.675781 198.355469 C 114.554688 198.171875 115.535156 198.015625 116.613281 197.878906 C 117.738281 197.742188 118.867188 197.652344 119.992188 197.605469 C 121.117188 197.515625 122.21875 197.445312 123.296875 197.402344 C 124.375 197.355469 125.332031 197.332031 126.164062 197.332031 M 127.191406 204.625 C 126.652344 204.625 125.894531 204.648438 124.914062 204.695312 C 123.984375 204.695312 123.25 204.738281 122.710938 204.832031 L 122.710938 218.460938 L 126.382812 218.460938 C 129.273438 218.460938 131.453125 217.9375 132.921875 216.894531 C 134.390625 215.804688 135.125 213.964844 135.125 211.375 C 135.125 208.917969 134.390625 207.191406 132.921875 206.195312 C 131.5 205.148438 129.589844 204.625 127.191406 204.625 "/>
<path d="M 181.332031 197.808594 L 181.332031 204.761719 L 169.359375 204.761719 L 169.359375 240 L 160.25 240 L 160.25 204.761719 L 148.273438 204.761719 L 148.273438 197.808594 L 181.332031 197.808594 "/>
</g>
</svg>
