<svg width="128" xmlns="http://www.w3.org/2000/svg" height="128" viewBox="0 0 128 128" xmlns:xlink="http://www.w3.org/1999/xlink">
<defs>
<linearGradient gradientTransform="matrix(2.66667 0 0 -2.66667 0 2806.2992)" id="linear0" y1="1053.158" y2="1004.847" gradientUnits="userSpaceOnUse" x2="0">
<stop offset="0" style="stop-color:#8bce90"/>
<stop offset="1" style="stop-color:#1b8f37"/>
</linearGradient>
</defs>
<path style="fill:url(#linear0)" d="M 5.1875 128 L 122.8125 128 C 125.679688 128 128 125.675781 128 122.8125 L 128 5.1875 C 128 2.320312 125.679688 0 122.8125 0 L 5.1875 0 C 2.320312 0 0 2.320312 0 5.1875 L 0 122.8125 C 0 125.675781 2.320312 128 5.1875 128 Z "/>
<g style="fill:#fff">
<path style="fill-rule:evenodd" d="M 64.167969 27.832031 C 54.878906 27.832031 44.507812 31.226562 42.332031 42.582031 C 42.105469 43.789062 42.945312 44.40625 43.75 44.582031 L 53.25 45.582031 C 54.136719 45.539062 54.746094 44.703125 54.917969 43.832031 C 55.726562 39.921875 59.027344 38.082031 62.75 38.082031 C 64.757812 38.082031 67.0625 38.804688 68.25 40.582031 C 69.617188 42.566406 69.417969 45.292969 69.417969 47.582031 L 69.417969 48.832031 C 63.761719 49.457031 56.378906 49.871094 51.082031 52.167969 C 44.972656 54.785156 40.667969 60.085938 40.667969 67.917969 C 40.667969 77.949219 47.03125 83 55.25 83 C 62.1875 83 65.984375 81.394531 71.332031 76 C 73.109375 78.542969 73.761719 79.75 77 82.417969 C 77.722656 82.800781 78.605469 82.746094 79.25 82.167969 C 81.199219 80.453125 84.757812 77.40625 86.75 75.75 C 87.546875 75.105469 87.457031 74.128906 86.832031 73.25 C 85.054688 70.816406 83.082031 68.777344 83.082031 64.25 L 83.082031 49.25 C 83.082031 42.875 83.582031 36.96875 78.832031 32.582031 C 75.097656 29.027344 68.914062 27.832031 64.167969 27.832031 Z M 69.417969 56.582031 L 69.417969 58.667969 C 69.417969 62.429688 69.5 65.566406 67.582031 68.917969 C 66.03125 71.640625 63.574219 73.25 60.832031 73.25 C 57.09375 73.25 54.917969 70.425781 54.917969 66.25 C 54.917969 58.027344 62.363281 56.582031 69.417969 56.582031 Z M 100.417969 81 C 97.429688 81.039062 93.925781 81.703125 91.25 83.582031 C 90.429688 84.164062 90.503906 84.941406 91.417969 84.832031 C 94.425781 84.46875 101.140625 83.636719 102.332031 85.167969 C 103.53125 86.695312 101.042969 93.015625 99.917969 95.832031 C 99.574219 96.6875 100.3125 97.0625 101.082031 96.417969 C 106.097656 92.226562 107.359375 83.4375 106.332031 82.167969 C 105.824219 81.539062 103.402344 80.960938 100.417969 81 Z M 21.917969 82.667969 C 21.296875 82.75 21.09375 83.488281 21.75 84.082031 C 32.890625 94.140625 47.574219 100.167969 63.917969 100.167969 C 75.582031 100.167969 89.160156 96.558594 98.5 89.667969 C 100.046875 88.527344 98.664062 86.75 97.082031 87.417969 C 86.609375 91.859375 75.273438 94 64.917969 94 C 49.566406 94 34.6875 89.828125 22.667969 82.832031 C 22.40625 82.679688 22.125 82.640625 21.917969 82.667969 Z "/>
<path style="fill-opacity:.149" d="M 5.332031 0 C 2.378906 0 0 2.378906 0 5.332031 L 0 122.667969 C 0 125.621094 2.378906 128 5.332031 128 L 44.75 128 L 79 0 Z "/>
</g>
</svg>
