<svg width="128" xmlns="http://www.w3.org/2000/svg" height="128" viewBox="0 0 128 128" xmlns:xlink="http://www.w3.org/1999/xlink">
<defs>
<linearGradient gradientTransform="matrix(2.66667 0 0 -2.66667 0 -2678.2992)" id="linear0" y1="-1052.24" y2="-1004.321" gradientUnits="userSpaceOnUse" x2="0">
<stop offset="0" style="stop-color:#204a86"/>
<stop offset="1" style="stop-color:#5c708e"/>
</linearGradient>
</defs>
<path style="fill:url(#linear0)" d="M 5.1875 128 L 122.8125 128 C 125.679688 128 128 125.675781 128 122.8125 L 128 5.1875 C 128 2.320312 125.679688 0 122.8125 0 L 5.1875 0 C 2.320312 0 0 2.320312 0 5.1875 L 0 122.8125 C 0 125.675781 2.320312 128 5.1875 128 Z "/>
<g style="fill:#fff">
<g style="fill-rule:evenodd">
<path d="M 69.429688 58.636719 C 69.429688 62.398438 69.519531 65.535156 67.605469 68.882812 C 66.054688 71.605469 63.585938 73.273438 60.847656 73.273438 C 57.109375 73.273438 54.914062 70.445312 54.914062 66.269531 C 54.914062 58.046875 62.375 56.554688 69.429688 56.554688 Z M 79.265625 82.175781 C 78.621094 82.753906 77.683594 82.789062 76.960938 82.40625 C 73.71875 79.742188 73.140625 78.515625 71.363281 75.96875 C 66.015625 81.367188 62.21875 82.984375 55.285156 82.984375 C 47.0625 82.984375 40.679688 77.96875 40.679688 67.9375 C 40.679688 60.105469 44.96875 54.777344 51.078125 52.160156 C 56.375 49.863281 63.773438 49.445312 69.429688 48.824219 L 69.429688 47.5625 C 69.429688 45.269531 69.613281 42.546875 68.246094 40.5625 C 67.058594 38.785156 64.777344 38.058594 62.773438 38.058594 C 59.050781 38.058594 55.738281 39.9375 54.925781 43.851562 C 54.757812 44.71875 54.117188 45.578125 53.230469 45.625 L 43.777344 44.609375 C 42.972656 44.429688 42.085938 43.804688 42.316406 42.597656 C 44.488281 31.238281 54.847656 27.816406 64.136719 27.816406 C 68.882812 27.816406 75.089844 29.070312 78.828125 32.625 C 83.574219 37.007812 83.117188 42.859375 83.117188 49.234375 L 83.117188 64.273438 C 83.117188 68.800781 85.019531 70.78125 86.800781 73.21875 C 87.425781 74.09375 87.566406 75.140625 86.769531 75.785156 C 84.777344 77.441406 81.238281 80.484375 79.289062 82.199219 L 79.265625 82.164062 Z "/>
<path d="M 98.464844 89.628906 C 89.125 96.519531 75.578125 100.1875 63.914062 100.1875 C 47.570312 100.1875 32.847656 94.148438 21.710938 84.089844 C 20.835938 83.300781 21.617188 82.21875 22.667969 82.832031 C 34.6875 89.828125 49.546875 94.039062 64.898438 94.039062 C 75.253906 94.039062 86.632812 91.890625 97.109375 87.445312 C 98.6875 86.777344 100.011719 88.488281 98.464844 89.628906 Z "/>
<path d="M 102.351562 85.191406 C 101.15625 83.660156 94.453125 84.464844 91.441406 84.828125 C 90.527344 84.933594 90.386719 84.140625 91.210938 83.558594 C 96.558594 79.804688 105.320312 80.890625 106.339844 82.144531 C 107.367188 83.417969 106.070312 92.203125 101.058594 96.390625 C 100.289062 97.039062 99.554688 96.695312 99.894531 95.84375 C 101.023438 93.023438 103.546875 86.71875 102.351562 85.191406 Z "/>
</g>
<path style="fill-opacity:.149" d="M 5.332031 0 C 2.378906 0 0 2.378906 0 5.332031 L 0 122.667969 C 0 125.621094 2.378906 128 5.332031 128 L 44.75 128 L 79 0 Z "/>
</g>
</svg>
