<svg width="128" xmlns="http://www.w3.org/2000/svg" height="128" viewBox="0 0 128 128" xmlns:xlink="http://www.w3.org/1999/xlink">
<defs>
<linearGradient gradientTransform="matrix(2.66667 0 0 2.66667 .23571 -2678.29917)" id="linear0" y1="1053.158" y2="1004.847" gradientUnits="userSpaceOnUse" x2="0">
<stop offset="0" style="stop-color:#464745"/>
<stop offset="1" style="stop-color:#828680"/>
</linearGradient>
</defs>
<path style="fill:url(#linear0)" d="M 5.421875 0 L 123.046875 0 C 125.914062 0 128.234375 2.320312 128.234375 5.1875 L 128.234375 122.8125 C 128.234375 125.675781 125.914062 128 123.046875 128 L 5.421875 128 C 2.558594 128 0.234375 125.675781 0.234375 122.8125 L 0.234375 5.1875 C 0.234375 2.320312 2.558594 0 5.421875 0 Z "/>
<g style="fill:#fff">
<path d="M 66.988281 80.945312 C 66.769531 73.207031 68.503906 65.691406 75.820312 60.367188 C 83.546875 54.347656 90.984375 46.8125 90.199219 37.933594 C 90.027344 29.371094 80.050781 22.660156 69.300781 21.695312 C 57.207031 20.019531 42.578125 24.164062 38.527344 33.605469 C 36.472656 38.199219 38.375 46.441406 45.273438 46.441406 C 49.308594 46.441406 51.160156 43.832031 51.464844 41.449219 C 51.695312 39.648438 50.953125 38.035156 50.515625 36.546875 C 50.019531 34.847656 52.144531 31.558594 54.460938 30.21875 C 56.398438 29.097656 58.421875 28.722656 58.722656 28.652344 C 65.671875 26.980469 72.601562 30.671875 75.496094 35.164062 C 78.386719 39.652344 75.203125 46.46875 70.628906 53.09375 C 66.050781 59.71875 61.140625 67.242188 61.160156 75.234375 C 61.160156 78.277344 60.890625 79.3125 61.082031 80.542969 C 61.238281 81.527344 64.492188 81.40625 66.988281 80.945312 Z M 63.816406 91.367188 C 57.167969 91.007812 52.566406 98.542969 56.5625 103.34375 C 60.128906 108.644531 70.125 107.335938 71.839844 101.332031 C 73.621094 96.664062 69.332031 91.289062 63.816406 91.367188 Z "/>
<path style="fill-opacity:.149" d="M 5.332031 0 C 2.378906 0 0 2.378906 0 5.332031 L 0 122.667969 C 0 125.621094 2.378906 128 5.332031 128 L 44.75 128 L 79 0 Z "/>
</g>
</svg>
