<svg width="128" xmlns="http://www.w3.org/2000/svg" height="128" viewBox="0 0 128 128" xmlns:xlink="http://www.w3.org/1999/xlink">
<defs>
<linearGradient gradientTransform="matrix(2.66667 0 0 -2.66667 0 2806.29909)" id="linear0" y1="1053.158" y2="1004.847" gradientUnits="userSpaceOnUse" x2="0">
<stop offset="0" style="stop-color:#a999e5"/>
<stop offset="1" style="stop-color:#4e1c72"/>
</linearGradient>
</defs>
<path style="fill:url(#linear0)" d="M 5.1875 128 L 122.8125 128 C 125.675781 128 128 125.675781 128 122.8125 L 128 5.1875 C 128 2.320312 125.675781 0 122.8125 0 L 5.1875 0 C 2.320312 0 0 2.320312 0 5.1875 L 0 122.8125 C 0 125.675781 2.320312 128 5.1875 128 Z "/>
<g style="fill:#fff">
<path d="M 84.917969 27.167969 C 84.324219 27.210938 83.796875 27.523438 83.332031 28.082031 C 82.808594 28.714844 82.589844 29.578125 82.667969 30.332031 C 82.78125 31.449219 83.070312 32.324219 84.417969 35 C 85.15625 36.46875 85.410156 37.070312 85.667969 38.25 C 86.027344 39.914062 86.167969 41.402344 86.167969 43.332031 C 86.167969 45.113281 86.03125 46.394531 85.75 48.082031 C 85.503906 49.566406 85.089844 51.363281 85 51.332031 C 84.863281 51.289062 84.707031 49.851562 84.582031 47.832031 C 84.4375 45.457031 84.289062 44.519531 84.082031 43.582031 C 83.53125 41.089844 82.371094 40.023438 80.332031 40.332031 C 79.761719 40.417969 78.835938 40.726562 78.75 40.832031 C 78.710938 40.878906 78.929688 41.625 79.5 43.25 C 79.945312 44.527344 80.25 45.558594 80.25 45.582031 C 80.25 45.664062 79.984375 45.808594 79.917969 45.75 C 79.878906 45.71875 79.519531 45.261719 79.167969 44.75 C 78.421875 43.667969 78.007812 43.105469 77.5 42.5 C 76.128906 40.871094 74.707031 40.078125 73.167969 40.167969 C 72.605469 40.199219 71.726562 40.375 71.582031 40.5 C 71.480469 40.585938 71.5 40.769531 73.417969 47.75 L 75.417969 54.832031 L 75 59.25 C 74.757812 61.660156 74.523438 63.683594 74.5 63.75 C 74.457031 63.867188 74.375 63.917969 73.582031 63.917969 C 73.136719 63.917969 72.234375 63.878906 71.582031 63.832031 C 70.144531 63.730469 68.363281 63.660156 67.75 63.75 C 67.128906 63.839844 66.261719 64.128906 65.417969 64.417969 C 62.78125 65.320312 60.425781 66.878906 58.5 69.167969 C 56.722656 71.277344 55.230469 73.960938 53.75 77.667969 C 53.304688 78.777344 52.394531 81.445312 52.167969 82.167969 C 51.605469 83.953125 51.300781 85.863281 51.25 87.917969 C 51.203125 89.746094 51.285156 91.214844 51.667969 92.75 C 52.113281 94.550781 52.832031 95.992188 53.75 97.167969 C 53.96875 97.449219 54.164062 97.65625 54.417969 97.917969 C 54.417969 97.925781 54.417969 97.988281 54.417969 98 C 54.417969 98.007812 54.5 97.992188 54.5 98 C 55.679688 99.183594 56.945312 99.917969 58.582031 100.25 C 59.753906 100.488281 61.832031 100.476562 61.832031 100.25 C 61.832031 100.210938 61.433594 99.164062 61 97.917969 C 60.566406 96.671875 60.25 95.613281 60.25 95.582031 C 60.25 95.527344 60.402344 95.417969 60.5 95.417969 C 60.527344 95.417969 60.863281 95.789062 61.167969 96.25 C 62.390625 98.113281 63.347656 99.1875 64.417969 99.917969 C 65.050781 100.351562 65.835938 100.730469 66.5 100.832031 C 66.910156 100.894531 67.929688 100.835938 68.332031 100.75 C 68.507812 100.714844 68.511719 100.628906 68.667969 100.582031 C 68.746094 100.5625 68.832031 100.523438 68.917969 100.5 C 69.105469 100.445312 69.195312 100.449219 69.25 100.417969 C 69.257812 100.414062 69.175781 100.191406 69.167969 100.167969 C 69.140625 100.109375 69.058594 100 69.082031 100 C 69.011719 99.871094 68.695312 99.359375 68.417969 98.917969 C 68.195312 98.554688 68.238281 98.550781 67.832031 97.917969 C 66.210938 95.375 66.132812 95.285156 66.167969 95.25 C 66.167969 95.238281 66.515625 95.417969 66.832031 95.667969 C 68.90625 97.28125 70.996094 98.460938 72.917969 99 C 75.324219 99.675781 77.613281 99.296875 79.332031 98 C 79.878906 97.589844 80.445312 97.085938 80.417969 97 C 80.417969 96.960938 78.351562 96.089844 75.917969 95.082031 C 73.480469 94.078125 71.511719 93.199219 71.5 93.167969 C 71.46875 93.070312 73.414062 93.195312 75.5 93.417969 C 76.167969 93.488281 77.25 93.59375 77.917969 93.667969 C 80.0625 93.898438 80.523438 93.917969 82 93.917969 C 83.570312 93.914062 84.226562 93.835938 85.417969 93.582031 C 87.273438 93.191406 89.289062 92.308594 90.917969 91.082031 C 91.578125 90.585938 91.871094 90.230469 91.832031 90.167969 C 91.808594 90.132812 89.222656 90.140625 84.167969 90.167969 C 78.964844 90.191406 76.589844 90.203125 76.5 90.167969 C 76.464844 90.113281 77 88.585938 77.082031 88.5 C 77.109375 88.476562 77.296875 88.546875 77.5 88.667969 C 81.003906 90.75 88.523438 90.230469 94 87.5 C 95.570312 86.714844 96.640625 85.945312 97.667969 84.917969 C 98.894531 83.683594 99.566406 82.375 99.667969 81.082031 C 99.695312 80.703125 99.691406 80.667969 99.582031 80.667969 C 99.464844 80.667969 97.605469 81.183594 96.582031 81.5 C 96.207031 81.617188 95.230469 81.910156 94.417969 82.167969 C 89.105469 83.847656 86.882812 84.363281 84 84.417969 C 82.351562 84.449219 80.867188 84.308594 80.917969 84.167969 C 80.96875 84.007812 83.230469 83.21875 84.75 82.832031 C 86.046875 82.503906 86.730469 82.359375 89.75 81.75 C 94.214844 80.847656 95.859375 80.453125 97.832031 79.667969 C 101.996094 78.007812 104.339844 75.347656 105.082031 71.417969 C 105.277344 70.394531 105.375 68.582031 105.25 68.582031 C 105.222656 68.582031 103.101562 69.796875 100.5 71.25 C 97.898438 72.703125 95.699219 73.851562 95.667969 73.832031 C 95.59375 73.789062 95.296875 73.117188 95.332031 73.082031 C 95.359375 73.070312 95.667969 72.890625 96.082031 72.667969 C 98.078125 71.59375 99.605469 70.472656 101.25 68.832031 C 104.328125 65.769531 106.144531 62.207031 106.582031 58.417969 C 106.699219 57.394531 106.660156 55.519531 106.5 54.582031 C 106.3125 53.476562 105.882812 51.878906 105.75 51.832031 C 105.71875 51.824219 103.882812 54.476562 101.667969 57.75 C 97 64.644531 96.703125 64.953125 96.667969 64.917969 C 96.585938 64.832031 97.714844 62.941406 99.582031 59.832031 C 100.390625 58.488281 101.257812 57.019531 101.5 56.582031 C 102.097656 55.511719 102.929688 53.671875 103.25 52.832031 C 104.378906 49.894531 104.539062 47.464844 103.75 45.082031 C 103.519531 44.390625 103.011719 43.238281 102.582031 42.582031 C 102.15625 41.933594 101.484375 41.144531 101.417969 41.167969 C 101.386719 41.175781 100.117188 44.152344 98.582031 47.832031 L 95.832031 54.5 L 91.917969 61.167969 C 88.046875 67.78125 87.875 68.039062 87.832031 68 C 87.800781 67.96875 88.136719 66.980469 88.5 66.082031 C 89.40625 63.835938 90.359375 62.054688 92.917969 57.667969 C 94.546875 54.863281 95.339844 53.558594 96 52.25 C 98.054688 48.175781 99.003906 44.921875 99.25 41.332031 C 99.296875 40.605469 99.300781 40.226562 99.25 39.75 C 98.992188 37.273438 98.089844 34.226562 97.167969 32.5 C 96.632812 31.496094 95.945312 30.632812 95.332031 30.332031 C 95.054688 30.195312 94.945312 30.25 94.5 30.25 C 94.039062 30.25 94.019531 30.25 93.667969 30.417969 C 92.808594 30.820312 92.5 31.457031 92.5 33.082031 C 92.5 33.953125 92.640625 34.636719 92.917969 36.582031 L 93.082031 37.917969 L 93 39.5 C 92.96875 41.039062 92.992188 41.480469 92.832031 42.917969 C 92.484375 46.078125 91.601562 49.722656 90.332031 53.582031 C 89.855469 55.039062 89.160156 57.128906 89.082031 57.25 C 88.898438 57.535156 89.335938 55.417969 90.25 51.667969 C 91.75 45.515625 92.105469 43.351562 92.167969 40.25 C 92.210938 38.101562 92.066406 36.570312 91.667969 34.832031 C 91.425781 33.792969 91.351562 33.546875 91 32.832031 C 90.015625 30.835938 88.320312 28.667969 86.917969 27.75 C 86.191406 27.277344 85.507812 27.125 84.917969 27.167969 Z M 66 43.917969 C 65.492188 43.921875 64.898438 44.03125 64.582031 44.082031 C 62.609375 44.417969 61.070312 45.09375 60.25 46.082031 C 59.609375 46.859375 59.425781 47.8125 59.75 48.75 C 59.792969 48.875 59.769531 48.980469 59.75 49 C 59.722656 49.019531 57.832031 49.253906 55.5 49.5 C 53.597656 49.699219 52.554688 49.839844 52 49.917969 C 51.925781 49.925781 51.53125 49.992188 51.5 50 C 51.472656 50.003906 51.167969 50.082031 51.167969 50.082031 L 51.167969 50.167969 C 51.191406 50.339844 51.289062 50.757812 51.5 51.5 C 51.875 52.8125 51.972656 53.082031 51.917969 53.082031 C 51.917969 53.082031 51.710938 52.902344 51.5 52.75 C 50.621094 52.121094 49.855469 51.875 49 51.832031 C 48.058594 51.789062 47.421875 52.011719 46.75 52.667969 C 46.414062 53.003906 46.21875 53.214844 46 53.667969 C 45.679688 54.328125 45.542969 54.886719 45.5 55.667969 C 45.449219 56.578125 45.675781 57.746094 46 58.5 L 46.082031 58.75 L 46.582031 58.75 C 46.835938 58.75 46.828125 58.726562 46.917969 58.667969 C 46.941406 58.652344 46.972656 58.617188 47 58.582031 C 47.035156 58.539062 47.097656 58.582031 47.082031 58.582031 L 47.167969 58.417969 C 47.203125 58.375 47.207031 58.316406 47.25 58.25 C 47.710938 57.542969 48.585938 57.078125 49.582031 56.832031 C 50.261719 56.667969 51.492188 56.667969 52.332031 56.832031 C 55.363281 57.433594 57.613281 59.445312 57.5 61.5 C 57.46875 62.046875 57.320312 62.429688 56.832031 62.917969 C 56.429688 63.324219 55.910156 63.671875 55 64.167969 C 54.679688 64.339844 54.167969 64.652344 53.832031 64.832031 C 53.5 65.015625 52.992188 65.257812 52.75 65.417969 C 52.269531 65.734375 51.667969 66.289062 51.667969 66.417969 C 51.667969 66.527344 51.96875 66.546875 53.25 66.417969 C 53.800781 66.359375 54.191406 66.234375 54.667969 66.167969 C 56.964844 65.839844 58.550781 65.363281 59.75 64.582031 C 60.886719 63.839844 61.761719 62.738281 62.082031 61.5 C 62.136719 61.300781 62.132812 61.167969 62.167969 61.167969 C 62.199219 61.167969 62.460938 61.285156 62.667969 61.417969 C 64.019531 62.257812 65.070312 62.53125 66 62.332031 C 66.832031 62.15625 67.695312 61.605469 69.167969 60.332031 C 69.558594 59.996094 69.882812 59.75 69.917969 59.75 C 69.953125 59.75 70.238281 60.449219 70.582031 61.25 C 70.925781 62.050781 71.289062 62.695312 71.332031 62.75 C 71.414062 62.84375 71.5 62.875 72.75 62.667969 C 73.460938 62.546875 74.054688 62.445312 74.082031 62.417969 C 74.15625 62.347656 73.832031 61.339844 73.582031 60.75 C 73.183594 59.800781 72.496094 59.035156 71.667969 58.5 C 71.167969 58.179688 70.371094 57.792969 69.167969 57.332031 C 67.855469 56.832031 67.285156 56.5 66.667969 56.082031 C 66.054688 55.671875 65.425781 55.152344 65.5 55.082031 C 65.53125 55.054688 65.769531 54.914062 66 54.832031 C 67.851562 54.191406 69.085938 53.039062 69.917969 51.082031 C 70.257812 50.277344 70.542969 49.199219 71 47.167969 C 71.207031 46.242188 71.480469 45.183594 71.582031 44.832031 C 71.683594 44.480469 71.683594 44.207031 71.667969 44.167969 C 71.484375 44.207031 70.414062 44.710938 67.832031 46 C 65.710938 47.0625 63.945312 47.925781 63.917969 47.917969 C 63.886719 47.90625 64.566406 47.328125 65.417969 46.582031 C 66.269531 45.839844 67.019531 45.144531 67.082031 45.082031 C 67.125 45.042969 67.148438 44.96875 67.167969 44.917969 C 67.191406 44.839844 67.167969 44.738281 67.167969 44.5 C 67.167969 44.0625 67.234375 44.058594 67.082031 44 C 66.96875 43.953125 66.507812 43.910156 66 43.917969 Z M 56.417969 52.082031 C 56.550781 52.066406 56.699219 52.078125 56.832031 52.082031 C 58.066406 52.132812 58.917969 53.25 58.917969 53.25 C 56.183594 54.933594 54.582031 52.832031 54.582031 52.832031 C 54.582031 52.832031 55.484375 52.210938 56.417969 52.082031 Z M 56.832031 60.167969 C 56.414062 60.199219 55.523438 60.390625 54.582031 60.582031 C 50.308594 61.457031 46.90625 62.925781 44.917969 64.832031 C 44.515625 65.21875 43.917969 65.839844 43.917969 65.917969 C 43.917969 65.933594 43.972656 66 44 66 C 44 66 44.082031 65.917969 44.082031 65.917969 C 44.082031 65.917969 44.167969 65.917969 44.167969 65.917969 C 44.238281 65.902344 45.554688 65.476562 46.082031 65.332031 C 47.140625 65.046875 48.246094 64.691406 50.75 64 L 57 62.332031 C 57.097656 62.234375 57.097656 60.25 57 60.167969 C 56.972656 60.152344 56.972656 60.15625 56.832031 60.167969 Z M 33.5 61.082031 C 32.871094 61.121094 32.007812 61.339844 31.5 61.582031 C 30.046875 62.273438 29.238281 63.523438 28.832031 65.5 C 28.597656 66.65625 28.511719 67.257812 28.5 70.332031 C 28.5 71.9375 28.519531 73.3125 28.5 73.332031 C 28.472656 73.355469 28.421875 73.269531 28.332031 73.167969 C 28.003906 72.785156 27.507812 72.09375 26.917969 70.917969 C 26.699219 70.484375 26.519531 70.246094 26.332031 69.917969 C 26.234375 69.738281 26.136719 69.410156 26.082031 69.332031 C 25.761719 68.847656 25.152344 68.1875 24.75 67.917969 C 24.40625 67.6875 23.929688 67.5 23.582031 67.5 C 22.578125 67.5 21.683594 68.433594 21.417969 69.75 C 21.160156 71.015625 21.621094 72.019531 22.667969 72.417969 C 22.835938 72.480469 23.15625 72.574219 23.667969 72.582031 C 24.054688 72.589844 24.394531 72.558594 24.417969 72.582031 C 24.441406 72.605469 24.503906 72.851562 24.582031 73.082031 C 24.816406 73.761719 25.390625 74.890625 26.25 76.332031 C 27.160156 77.859375 27.75 78.984375 28 79.667969 C 28.265625 80.398438 29.496094 85.21875 29.667969 86.167969 C 29.8125 86.992188 29.832031 87.6875 29.75 88.082031 C 29.714844 88.257812 29.585938 88.757812 29.417969 89.167969 C 28.945312 90.296875 28.925781 90.773438 29.25 91.667969 C 29.890625 93.441406 30.957031 94.65625 32.582031 95.332031 C 32.996094 95.503906 33.066406 95.484375 33.167969 95.25 C 33.386719 94.726562 33.734375 93.621094 33.832031 92.832031 C 33.992188 91.542969 33.839844 90.5625 33.167969 87.582031 C 32.855469 86.207031 32.640625 84.582031 32.75 84.582031 C 32.777344 84.582031 32.949219 84.738281 33.167969 84.917969 C 33.386719 85.09375 34.082031 85.65625 34.75 86.167969 C 36.492188 87.496094 36.761719 87.617188 38.75 89.582031 C 39.5 90.324219 40.03125 90.835938 40.5 91.25 C 41.433594 92.074219 41.976562 92.484375 42.75 92.75 C 43.167969 92.894531 43.308594 92.917969 43.667969 92.917969 C 44.539062 92.917969 44.953125 92.515625 45 91.667969 C 45.03125 91.070312 44.898438 90.394531 44.417969 89.417969 C 43.945312 88.460938 43.5625 87.953125 42.832031 87.25 C 41.984375 86.433594 41.128906 85.882812 38.582031 84.25 C 36.414062 82.859375 35.507812 82.175781 34.667969 81.332031 C 33.558594 80.222656 33.054688 79.285156 33 78.082031 C 32.953125 77.09375 33.195312 76.476562 33.832031 75.832031 C 34.488281 75.175781 35.210938 74.738281 37.332031 74 C 39.574219 73.21875 40.460938 72.757812 40.832031 72 C 40.964844 71.738281 40.917969 71.691406 40.917969 71.25 C 40.917969 70.824219 40.9375 70.699219 40.832031 70.5 C 40.34375 69.570312 38.886719 68.972656 36.5 68.832031 L 35.832031 68.832031 L 33.832031 70.832031 C 32.71875 71.945312 31.851562 72.851562 31.832031 72.832031 C 31.808594 72.816406 32.222656 70.175781 32.832031 67 C 33.445312 63.824219 34 61.21875 34 61.167969 C 34 61.074219 33.976562 61.054688 33.5 61.082031 Z "/>
<path style="fill-opacity:.149" d="M 5.332031 0 C 2.378906 0 0 2.378906 0 5.332031 L 0 122.667969 C 0 125.621094 2.378906 128 5.332031 128 L 44.75 128 L 79 0 Z "/>
</g>
</svg>
