<svg width="128" xmlns="http://www.w3.org/2000/svg" height="128" viewBox="0 0 128 128" xmlns:xlink="http://www.w3.org/1999/xlink">
<defs>
<linearGradient gradientTransform="matrix(2.66667 0 0 -2.66667 0 2806.2992)" id="linear0" y1="1053.158" y2="1004.847" gradientUnits="userSpaceOnUse" x2="0">
<stop offset="0" style="stop-color:#f1672e"/>
<stop offset="1" style="stop-color:#a11"/>
</linearGradient>
</defs>
<path style="fill:url(#linear0)" d="M 5.1875 128 L 122.8125 128 C 125.679688 128 128 125.675781 128 122.8125 L 128 5.1875 C 128 2.320312 125.679688 0 122.8125 0 L 5.1875 0 C 2.320312 0 0 2.320312 0 5.1875 L 0 122.8125 C 0 125.675781 2.320312 128 5.1875 128 Z "/>
<g style="fill:#fff">
<path d="M 64 21.367188 C 40.453125 21.367188 21.332031 40.484375 21.332031 64.035156 C 21.332031 87.582031 40.453125 106.699219 64 106.699219 C 87.546875 106.699219 106.667969 87.582031 106.667969 64.035156 C 106.667969 40.484375 87.546875 21.367188 64 21.367188 Z M 64 29.332031 C 82.667969 29.332031 98.667969 45.332031 98.667969 64 C 98.667969 82.667969 82.667969 98.667969 64 98.667969 C 45.332031 98.667969 29.332031 82.667969 29.332031 64 C 29.332031 45.332031 45.332031 29.332031 64 29.332031 Z M 64 57.367188 C 60.328125 57.367188 57.332031 60.363281 57.332031 64.035156 C 57.332031 67.707031 60.328125 70.699219 64 70.699219 C 67.671875 70.699219 70.667969 67.707031 70.667969 64.035156 C 70.667969 60.363281 67.671875 57.367188 64 57.367188 Z M 64 60.035156 C 66.253906 60.035156 68 61.78125 68 64.035156 C 68 66.289062 66.253906 68.035156 64 68.035156 C 61.746094 68.035156 60 66.289062 60 64.035156 C 60 61.78125 61.746094 60.035156 64 60.035156 Z "/>
<path d="M 24 74.667969 C 24 74.667969 20.410156 73.457031 26.800781 67.027344 C 33.191406 60.597656 33.152344 47.777344 33.152344 47.777344 C 33.152344 47.777344 39.582031 54.167969 38.3125 58.015625 C 37.039062 61.867188 37.039062 61.867188 37.039062 61.867188 C 37.039062 61.867188 42.160156 59.289062 43.429688 55.4375 C 44.703125 51.589844 42.121094 46.46875 43.394531 42.617188 C 44.664062 38.769531 51.054688 32.339844 51.054688 32.339844 C 51.054688 32.339844 49.785156 36.1875 52.363281 41.308594 C 54.941406 46.429688 58.792969 47.699219 56.25 55.398438 C 53.710938 63.097656 53.710938 63.097656 53.710938 63.097656 C 53.710938 63.097656 60.101562 56.671875 61.371094 52.820312 C 62.640625 48.96875 61.332031 40 61.332031 40 C 61.332031 40 71.613281 47.660156 70.34375 51.511719 C 69.070312 55.359375 69.070312 55.359375 69.070312 55.359375 C 69.070312 55.359375 74.191406 52.78125 75.460938 48.933594 C 76.734375 45.082031 78.042969 54.050781 76.773438 57.902344 C 75.5 61.753906 76.773438 57.902344 76.773438 57.902344 L 75.5 61.753906 C 75.5 61.753906 80.621094 59.171875 81.890625 55.324219 C 83.164062 51.472656 84.433594 47.621094 84.433594 47.621094 C 84.433594 47.621094 87.011719 52.742188 85.742188 56.59375 C 84.472656 60.441406 89.589844 57.863281 90.863281 54.011719 C 92.132812 50.164062 93.402344 46.3125 93.402344 46.3125 C 93.402344 46.3125 99.832031 52.703125 98.5625 56.554688 C 97.292969 60.40625 101.460938 66.367188 104 58.667969 C 104 50.667969 94.902344 29.863281 80 26.667969 C 77.332031 26.667969 56.503906 12.710938 37.332031 32 C 18.160156 51.289062 24.21875 61.90625 24.21875 61.90625 Z "/>
<path style="fill-opacity:.149" d="M 5.332031 0 C 2.378906 0 0 2.378906 0 5.332031 L 0 122.667969 C 0 125.621094 2.378906 128 5.332031 128 L 44.75 128 L 79 0 Z "/>
</g>
</svg>
