<svg width="128" xmlns="http://www.w3.org/2000/svg" height="128" viewBox="0 0 128 128" xmlns:xlink="http://www.w3.org/1999/xlink">
<defs>
<linearGradient gradientTransform="matrix(2.66667 0 0 2.66667 0 -2678.2992)" id="linear0" y1="1053.158" y2="1004.847" gradientUnits="userSpaceOnUse" x2="0">
<stop offset="0" style="stop-color:#616161"/>
<stop offset="1" style="stop-color:#c7c7c7"/>
</linearGradient>
</defs>
<path style="fill:url(#linear0)" d="M 5.1875 0 L 122.8125 0 C 125.679688 0 128 2.320312 128 5.1875 L 128 122.8125 C 128 125.675781 125.679688 128 122.8125 128 L 5.1875 128 C 2.320312 128 0 125.675781 0 122.8125 L 0 5.1875 C 0 2.320312 2.320312 0 5.1875 0 Z "/>
<g style="fill:#fff">
<path style="fill-opacity:.8" d="M 37.167969 21.332031 C 34.292969 21.332031 32 23.628906 32 26.5 L 32 101.5 C 32 104.371094 34.292969 106.667969 37.167969 106.667969 L 90.832031 106.667969 C 93.707031 106.667969 96 104.371094 96 101.5 L 96 26.5 C 96 23.628906 93.707031 21.332031 90.832031 21.332031 Z M 42.082031 26.667969 L 85.917969 26.667969 C 88.542969 26.667969 90.667969 28.789062 90.667969 31.417969 L 90.667969 40.667969 C 90.667969 43.292969 88.542969 45.417969 85.917969 45.417969 L 42.082031 45.417969 C 39.457031 45.417969 37.332031 43.292969 37.332031 40.667969 L 37.332031 31.417969 C 37.332031 28.789062 39.457031 26.667969 42.082031 26.667969 Z M 40 50.667969 L 45.332031 50.667969 C 46.8125 50.667969 48 51.855469 48 53.332031 L 48 58.667969 C 48 60.144531 46.8125 61.332031 45.332031 61.332031 L 40 61.332031 C 38.523438 61.332031 37.332031 60.144531 37.332031 58.667969 L 37.332031 53.332031 C 37.332031 51.855469 38.523438 50.667969 40 50.667969 Z M 53.332031 50.667969 L 58.667969 50.667969 C 60.144531 50.667969 61.332031 51.855469 61.332031 53.332031 L 61.332031 58.667969 C 61.332031 60.144531 60.144531 61.332031 58.667969 61.332031 L 53.332031 61.332031 C 51.855469 61.332031 50.667969 60.144531 50.667969 58.667969 L 50.667969 53.332031 C 50.667969 51.855469 51.855469 50.667969 53.332031 50.667969 Z M 66.667969 50.667969 L 72 50.667969 C 73.476562 50.667969 74.667969 51.855469 74.667969 53.332031 L 74.667969 58.667969 C 74.667969 60.144531 73.476562 61.332031 72 61.332031 L 66.667969 61.332031 C 65.1875 61.332031 64 60.144531 64 58.667969 L 64 53.332031 C 64 51.855469 65.1875 50.667969 66.667969 50.667969 Z M 80 50.667969 L 88 50.667969 C 89.476562 50.667969 90.667969 51.855469 90.667969 53.332031 L 90.667969 58.667969 C 90.667969 60.144531 89.476562 61.332031 88 61.332031 L 80 61.332031 C 78.523438 61.332031 77.332031 60.144531 77.332031 58.667969 L 77.332031 53.332031 C 77.332031 51.855469 78.523438 50.667969 80 50.667969 Z M 40 64 L 45.332031 64 C 46.8125 64 48 65.1875 48 66.667969 L 48 72 C 48 73.476562 46.8125 74.667969 45.332031 74.667969 L 40 74.667969 C 38.523438 74.667969 37.332031 73.476562 37.332031 72 L 37.332031 66.667969 C 37.332031 65.1875 38.523438 64 40 64 Z M 53.332031 64 L 58.667969 64 C 60.144531 64 61.332031 65.1875 61.332031 66.667969 L 61.332031 72 C 61.332031 73.476562 60.144531 74.667969 58.667969 74.667969 L 53.332031 74.667969 C 51.855469 74.667969 50.667969 73.476562 50.667969 72 L 50.667969 66.667969 C 50.667969 65.1875 51.855469 64 53.332031 64 Z M 66.667969 64 L 72 64 C 73.476562 64 74.667969 65.1875 74.667969 66.667969 L 74.667969 72 C 74.667969 73.476562 73.476562 74.667969 72 74.667969 L 66.667969 74.667969 C 65.1875 74.667969 64 73.476562 64 72 L 64 66.667969 C 64 65.1875 65.1875 64 66.667969 64 Z M 80 64 L 88 64 C 89.476562 64 90.667969 65.1875 90.667969 66.667969 L 90.667969 72 C 90.667969 73.476562 89.476562 74.667969 88 74.667969 L 80 74.667969 C 78.523438 74.667969 77.332031 73.476562 77.332031 72 L 77.332031 66.667969 C 77.332031 65.1875 78.523438 64 80 64 Z M 40 77.332031 L 45.332031 77.332031 C 46.8125 77.332031 48 78.523438 48 80 L 48 85.332031 C 48 86.8125 46.8125 88 45.332031 88 L 40 88 C 38.523438 88 37.332031 86.8125 37.332031 85.332031 L 37.332031 80 C 37.332031 78.523438 38.523438 77.332031 40 77.332031 Z M 53.332031 77.332031 L 58.667969 77.332031 C 60.144531 77.332031 61.332031 78.523438 61.332031 80 L 61.332031 85.332031 C 61.332031 86.8125 60.144531 88 58.667969 88 L 53.332031 88 C 51.855469 88 50.667969 86.8125 50.667969 85.332031 L 50.667969 80 C 50.667969 78.523438 51.855469 77.332031 53.332031 77.332031 Z M 66.667969 77.332031 L 72 77.332031 C 73.476562 77.332031 74.667969 78.523438 74.667969 80 L 74.667969 85.332031 C 74.667969 86.8125 73.476562 88 72 88 L 66.667969 88 C 65.1875 88 64 86.8125 64 85.332031 L 64 80 C 64 78.523438 65.1875 77.332031 66.667969 77.332031 Z M 80 77.332031 L 88 77.332031 C 89.476562 77.332031 90.667969 78.523438 90.667969 80 L 90.667969 98.667969 C 90.667969 100.144531 89.476562 101.332031 88 101.332031 L 80 101.332031 C 78.523438 101.332031 77.332031 100.144531 77.332031 98.667969 L 77.332031 80 C 77.332031 78.523438 78.523438 77.332031 80 77.332031 Z M 40 90.667969 L 45.332031 90.667969 C 46.8125 90.667969 48 91.855469 48 93.332031 L 48 98.667969 C 48 100.144531 46.8125 101.332031 45.332031 101.332031 L 40 101.332031 C 38.523438 101.332031 37.332031 100.144531 37.332031 98.667969 L 37.332031 93.332031 C 37.332031 91.855469 38.523438 90.667969 40 90.667969 Z M 53.332031 90.667969 L 58.667969 90.667969 C 60.144531 90.667969 61.332031 91.855469 61.332031 93.332031 L 61.332031 98.667969 C 61.332031 100.144531 60.144531 101.332031 58.667969 101.332031 L 53.332031 101.332031 C 51.855469 101.332031 50.667969 100.144531 50.667969 98.667969 L 50.667969 93.332031 C 50.667969 91.855469 51.855469 90.667969 53.332031 90.667969 Z M 66.667969 90.667969 L 72 90.667969 C 73.476562 90.667969 74.667969 91.855469 74.667969 93.332031 L 74.667969 98.667969 C 74.667969 100.144531 73.476562 101.332031 72 101.332031 L 66.667969 101.332031 C 65.1875 101.332031 64 100.144531 64 98.667969 L 64 93.332031 C 64 91.855469 65.1875 90.667969 66.667969 90.667969 Z "/>
<path style="fill-opacity:.149" d="M 5.332031 0 C 2.378906 0 0 2.378906 0 5.332031 L 0 122.667969 C 0 125.621094 2.378906 128 5.332031 128 L 44.75 128 L 79 0 Z "/>
</g>
</svg>
