<svg width="128" xmlns="http://www.w3.org/2000/svg" height="128" viewBox="0 0 128 128" xmlns:xlink="http://www.w3.org/1999/xlink">
<defs>
<linearGradient gradientTransform="matrix(2.66667 0 0 -2.66667 0 -2678.2992)" id="linear0" y1="-1004.362" y2="-1052.362" gradientUnits="userSpaceOnUse" x2="0">
<stop offset="0" style="stop-color:#8e5902"/>
<stop offset="1" style="stop-color:#4a2e01"/>
</linearGradient>
</defs>
<path style="fill:url(#linear0)" d="M 5.1875 128 L 122.8125 128 C 125.679688 128 128 125.675781 128 122.8125 L 128 5.1875 C 128 2.320312 125.679688 0 122.8125 0 L 5.1875 0 C 2.320312 0 0 2.320312 0 5.1875 L 0 122.8125 C 0 125.675781 2.320312 128 5.1875 128 Z "/>
<g style="fill:#f9fff3">
<path d="M 29.871094 21.105469 C 27.371094 21.105469 25.371094 23.105469 25.371094 25.605469 L 25.371094 39.773438 L 46.703125 39.773438 L 46.703125 25.605469 C 46.703125 23.105469 44.703125 21.105469 42.203125 21.105469 Z M 25.371094 42.441406 L 25.371094 85.105469 L 46.703125 85.105469 L 46.703125 42.441406 Z M 25.371094 87.773438 L 25.371094 101.941406 C 25.371094 104.441406 27.371094 106.441406 29.871094 106.441406 L 42.203125 106.441406 C 44.703125 106.441406 46.703125 104.441406 46.703125 101.941406 L 46.703125 87.773438 Z "/>
<path d="M 52.039062 47.773438 L 60.039062 47.773438 C 61.511719 47.773438 62.703125 48.964844 62.703125 50.441406 L 62.703125 103.773438 C 62.703125 105.246094 61.511719 106.441406 60.039062 106.441406 L 52.039062 106.441406 C 50.566406 106.441406 49.371094 105.246094 49.371094 103.773438 L 49.371094 50.441406 C 49.371094 48.964844 50.566406 47.773438 52.039062 47.773438 Z "/>
<path d="M 62.746094 37.917969 C 68.320312 40.03125 70.703125 37.105469 70.703125 37.105469 L 77.742188 106.082031 C 72.164062 103.96875 69.78125 106.894531 69.78125 106.894531 Z "/>
<path d="M 73.371094 54.9375 C 80.40625 50.289062 88.824219 50.796875 88.824219 50.796875 L 102.628906 102.3125 C 102.628906 102.3125 95.59375 106.957031 87.175781 106.453125 Z "/>
</g>
<path style="fill:#fff;fill-opacity:.149" d="M 5.332031 0 C 2.378906 0 0 2.378906 0 5.332031 L 0 122.667969 C 0 125.621094 2.378906 128 5.332031 128 L 44.75 128 L 79 0 Z "/>
</svg>
