<svg width="128" xmlns="http://www.w3.org/2000/svg" height="128" viewBox="0 0 128 128" xmlns:xlink="http://www.w3.org/1999/xlink">
<defs>
<linearGradient gradientTransform="matrix(2.66667 0 0 2.66667 0 -2678.2992)" id="linear0" y1="1053.158" y2="1004.847" gradientUnits="userSpaceOnUse" x2="0">
<stop offset="0" style="stop-color:#709336"/>
<stop offset="1" style="stop-color:#85cd4c"/>
</linearGradient>
</defs>
<path style="fill:url(#linear0)" d="M 5.332031 0 L 122.390625 0 C 125.5 0 128 2.3125 128 5.183594 L 128 122.8125 C 128 125.6875 125.5 128 122.390625 128 L 5.332031 128 C 2.226562 128 0 125.6875 0 122.8125 L 0 5.183594 C 0 2.3125 2.226562 0 5.332031 0 Z "/>
<g style="fill:#fff">
<path style="fill-rule:evenodd" d="M 38.667969 58.648438 L 57.390625 77.121094 L 89.332031 50.648438 C 89.265625 50.464844 78.78125 39.738281 78.667969 39.980469 L 57.332031 58.648438 L 49.332031 50.648438 Z "/>
<path style="fill-opacity:.8" d="M 24.199219 26.847656 C 22.636719 27.011719 21.324219 28.476562 21.332031 30.046875 L 21.332031 87.648438 C 21.332031 89.324219 22.859375 90.847656 24.535156 90.847656 L 53.332031 90.847656 L 53.332031 95.980469 L 74.667969 95.980469 L 74.667969 90.847656 L 103.464844 90.847656 C 105.140625 90.847656 106.667969 89.324219 106.667969 87.648438 L 106.667969 30.046875 C 106.667969 28.371094 105.140625 26.847656 103.464844 26.847656 Z M 28.601562 32.082031 C 28.734375 32.054688 28.867188 32.054688 29 32.082031 L 99.101562 32.082031 C 100.21875 32.082031 101.234375 33.097656 101.234375 34.214844 L 101.234375 83.148438 C 101.234375 84.265625 100.21875 85.28125 99.101562 85.28125 L 29 85.28125 C 27.882812 85.28125 26.867188 84.265625 26.867188 83.148438 L 26.867188 34.214844 C 26.847656 33.21875 27.621094 32.265625 28.601562 32.082031 Z M 40 98.648438 L 40 103.980469 L 88 103.980469 L 88 98.648438 Z "/>
<path style="fill-opacity:.149" d="M 5.332031 0 C 2.378906 0 0 2.378906 0 5.332031 L 0 122.667969 C 0 125.621094 2.378906 128 5.332031 128 L 44.75 128 L 79 0 Z "/>
</g>
</svg>
