<svg width="128" xmlns="http://www.w3.org/2000/svg" height="128" viewBox="0 0 128 128" xmlns:xlink="http://www.w3.org/1999/xlink">
<defs>
<linearGradient gradientTransform="matrix(2.66667 0 0 2.66667 0 -2678.2992)" id="linear0" y1="1053.158" y2="1004.847" gradientUnits="userSpaceOnUse" x2="0">
<stop offset="0" style="stop-color:#0075ab"/>
<stop offset="1" style="stop-color:#08b1ff"/>
</linearGradient>
</defs>
<path style="fill:url(#linear0)" d="M 5.332031 0 L 122.390625 0 C 125.5 0 128 2.3125 128 5.183594 L 128 122.8125 C 128 125.6875 125.5 128 122.390625 128 L 5.332031 128 C 2.226562 128 0 125.6875 0 122.8125 L 0 5.332031 C 0 2.707031 2.246094 0 5.332031 0 Z "/>
<path style="fill:none;stroke:#fff;stroke-width:1.366" d="M 10.539551 35.474121 L 21.823242 35.474121 L 24 39.316406 L 26.173828 35.474121 L 37.319824 35.474121 C 38.487305 35.474121 39.316406 34.598145 39.316406 33.75 L 39.316406 10.401855 C 39.316406 9.616699 38.559082 8.683594 37.341797 8.683594 L 10.728516 8.683594 C 9.744141 8.683594 8.683594 9.386719 8.683594 10.472168 L 8.683594 33.849609 C 8.683594 34.800293 9.84375 35.474121 10.539551 35.474121 Z " transform="scale(2.66667)"/>
<g style="fill:#fff">
<path style="fill-rule:evenodd;stroke:#fff;stroke-linejoin:round;stroke-linecap:round;stroke-width:.772" d="M 21.224121 21.555176 C 22.747559 20.317383 25.653809 13.092773 28.491211 12.273926 C 31.335938 11.453613 31.417969 12.684082 32.052246 12.626953 C 32.693848 12.569824 34.529297 11.57373 34.646484 11.775879 C 34.768066 11.983887 32.192871 15.525879 32.034668 16.116211 C 31.876465 16.700684 33.13623 23.661621 30.137695 25.853027 C 27.188965 28.007812 25.268555 27.203613 25.268555 27.203613 L 19.649414 29.175293 L 15.42334 32.569336 C 15.046875 32.649902 13.577637 32.085938 13.857422 31.705078 L 15.836426 29.513672 L 14.11377 29.415527 L 15.845215 27.219727 L 14.790527 26.964844 Z " transform="scale(2.66667)"/>
<path style="fill-opacity:.149" d="M 5.332031 0 C 2.378906 0 0 2.378906 0 5.332031 L 0 122.667969 C 0 125.621094 2.378906 128 5.332031 128 L 44.75 128 L 79 0 Z "/>
</g>
</svg>
