<svg width="128" xmlns="http://www.w3.org/2000/svg" height="128" viewBox="0 0 128 128" xmlns:xlink="http://www.w3.org/1999/xlink">
<defs>
<linearGradient gradientTransform="matrix(2.66667 0 0 2.66667 0 -2678.29907)" id="linear0" y1="1053.158" y2="1004.847" gradientUnits="userSpaceOnUse" x2="0">
<stop offset="0" style="stop-color:#296c20"/>
<stop offset="1" style="stop-color:#76c35a"/>
</linearGradient>
</defs>
<path style="fill:url(#linear0)" d="M 5.1875 0 L 122.8125 0 C 125.679688 0 128 2.320312 128 5.1875 L 128 122.8125 C 128 125.675781 125.679688 128 122.8125 128 L 5.1875 128 C 2.320312 128 0 125.675781 0 122.8125 L 0 5.1875 C 0 2.320312 2.320312 0 5.1875 0 Z "/>
<path style="fill:none;stroke:#fff;stroke-linejoin:round;stroke-linecap:round;stroke-width:8" d="M 39.056519 -171.268921 L 216.943481 -171.268921 C 220.843628 -171.268921 224.002197 -163.642578 224.002197 -154.240112 L 224.002197 -33.95813 C 224.002197 -24.555664 220.843628 -16.929321 216.943481 -16.929321 L 39.056519 -16.929321 C 35.156372 -16.929321 31.997803 -24.555664 31.997803 -33.95813 L 31.997803 -154.240112 C 31.997803 -163.642578 35.156372 -171.268921 39.056519 -171.268921 Z " transform="matrix(.42667 0 0 .42667 9.38667 98.13333)"/>
<path style="fill:#fff" d="M 77.8125 89.988281 L 94.75 89.988281 L 86.28125 104.648438 "/>
<path style="fill:none;stroke:#fff;stroke-linejoin:round;stroke-linecap:round;stroke-width:2" d="M 10.466603 1019.393035 L 37.53337 1019.393035 C 38.343928 1019.393035 39.000187 1020.049005 39.000187 1020.859207 L 39.000187 1037.926143 C 39.000187 1038.736345 38.343928 1039.392315 37.53337 1039.392315 L 10.466603 1039.392315 C 9.656045 1039.392315 8.999787 1038.736345 8.999787 1037.926143 L 8.999787 1020.859207 C 8.999787 1020.049005 9.656045 1019.393035 10.466603 1019.393035 Z " transform="matrix(1.99997 0 0 2.00085 16.00067 -2001.46064)"/>
<g style="fill:#fff">
<path d="M 42 34.132812 L 50 34.132812 C 51.105469 34.132812 52 35.027344 52 36.132812 C 52 37.238281 51.105469 38.132812 50 38.132812 L 42 38.132812 C 40.894531 38.132812 40 37.238281 40 36.132812 C 40 35.027344 40.894531 34.132812 42 34.132812 Z "/>
<path d="M 86 42.136719 L 88 42.136719 C 89.105469 42.136719 90 43.03125 90 44.136719 L 90 46.136719 C 90 47.242188 89.105469 48.136719 88 48.136719 L 86 48.136719 C 84.894531 48.136719 84 47.242188 84 46.136719 L 84 44.136719 C 84 43.03125 84.894531 42.136719 86 42.136719 Z "/>
</g>
<path style="fill:none;stroke:#fff;stroke-width:2" d="M 31.000073 26.499025 C 31.000073 30.08929 28.089878 33.000157 24.499987 33.000157 C 20.910095 33.000157 17.9999 30.08929 17.9999 26.499025 C 17.9999 22.910712 20.910095 19.999845 24.499987 19.999845 C 28.089878 19.999845 31.000073 22.910712 31.000073 26.499025 Z " transform="matrix(1.99997 0 0 2.00085 15.00068 6.11996)"/>
<path style="fill:#fff;fill-opacity:.149" d="M 5.332031 0 C 2.378906 0 0 2.378906 0 5.332031 L 0 122.667969 C 0 125.621094 2.378906 128 5.332031 128 L 44.75 128 L 79 0 Z "/>
</svg>
