<svg width="128" xmlns="http://www.w3.org/2000/svg" height="128" viewBox="0 0 128 128" xmlns:xlink="http://www.w3.org/1999/xlink">
<defs>
<linearGradient gradientTransform="matrix(2.66667 0 0 -2.66667 .00027 2806.29904)" id="linear0" y1="1053.158" y2="1004.847" gradientUnits="userSpaceOnUse" x2="0">
<stop offset="0" style="stop-color:#9cd662"/>
<stop offset="1" style="stop-color:#5dad28"/>
</linearGradient>
</defs>
<path style="fill:url(#linear0)" d="M 5.1875 128 L 122.8125 128 C 125.679688 128 128 125.679688 128 122.8125 L 128 5.1875 C 128 2.324219 125.679688 0 122.8125 0 L 5.1875 0 C 2.324219 0 0 2.324219 0 5.1875 L 0 122.8125 C 0 125.679688 2.324219 128 5.1875 128 Z "/>
<g style="fill:#fff">
<path d="M 54.390625 33.820312 C 44.578125 33.820312 36.527344 41.808594 36.527344 51.621094 C 36.527344 57.914062 40.050781 63.210938 45.015625 66.375 C 45.171875 66.210938 45.234375 65.96875 45.394531 65.808594 C 46.238281 64.96875 47.378906 64.503906 48.375 63.84375 C 43.804688 61.609375 40.582031 57.054688 40.582031 51.621094 C 40.582031 44 46.769531 37.875 54.390625 37.875 C 62.007812 37.875 68.132812 44 68.132812 51.621094 C 68.132812 55.675781 66.347656 59.242188 63.574219 61.753906 C 63.996094 61.894531 64.496094 61.832031 64.902344 62.007812 C 65.828125 62.398438 66.539062 63.117188 67.375 63.652344 C 70.316406 60.476562 72.1875 56.28125 72.1875 51.621094 C 72.1875 41.808594 64.199219 33.820312 54.390625 33.820312 Z "/>
<path style="stroke:#fff;stroke-width:2.631" d="M 28.999066 16.656112 C 24.699205 16.656112 21.218457 20.13686 21.218457 24.436721 C 21.218457 24.669927 21.32446 24.866514 21.343733 25.093939 C 21.382279 25.109357 21.430462 25.109357 21.469009 25.124776 C 22.399907 25.519877 23.232511 26.076874 23.937912 26.780347 C 24.641385 27.485748 25.200309 28.318352 25.593483 29.24925 C 25.901855 29.979706 26.021349 30.800746 26.094588 31.625641 C 26.994648 31.987978 27.969875 32.219257 28.999066 32.219257 C 33.300854 32.219257 36.781602 28.736582 36.781602 24.436721 C 36.781602 20.13686 33.300854 16.656112 28.999066 16.656112 Z " transform="matrix(2.02677 0 0 2.02677 20.63172 12.98403)"/>
</g>
<g style="stroke:#fff;stroke-width:2.631;fill:none">
<path d="M 24.428382 19.070496 C 24.428382 23.372285 20.941852 26.856888 16.641991 26.856888 C 12.34213 26.856888 8.857527 23.372285 8.857527 19.070496 C 8.857527 14.770635 12.34213 11.286033 16.641991 11.286033 C 20.941852 11.286033 24.428382 14.770635 24.428382 19.070496 Z " transform="matrix(2.02677 0 0 2.02677 24.25093 39.7664)"/>
<path style="stroke-linejoin:round;stroke-linecap:round" d="M 44.042435 23.200525 C 44.042435 34.274932 35.064958 43.25241 23.990551 43.25241 C 12.916144 43.25241 3.938666 34.274932 3.938666 23.200525 C 3.938666 12.126118 12.916144 3.148641 23.990551 3.148641 C 35.064958 3.148641 44.042435 12.126118 44.042435 23.200525 Z " transform="matrix(2.02677 0 0 2.02677 15.37659 16.97779)"/>
</g>
<path style="fill:#fff;fill-opacity:.149" d="M 5.332031 0 C 2.378906 0 0 2.378906 0 5.332031 L 0 122.667969 C 0 125.621094 2.378906 128 5.332031 128 L 44.75 128 L 79 0 Z "/>
</svg>
