<svg width="128" xmlns="http://www.w3.org/2000/svg" height="128" viewBox="0 0 128 128" xmlns:xlink="http://www.w3.org/1999/xlink">
<defs>
<linearGradient gradientTransform="matrix(2.66667 0 0 -2.66667 0 2806.29909)" id="linear0" y1="1053.158" y2="1004.847" gradientUnits="userSpaceOnUse" x2="0">
<stop offset="0" style="stop-color:#ff1919"/>
<stop offset="1" style="stop-color:#380000"/>
</linearGradient>
</defs>
<path style="fill:url(#linear0)" d="M 5.1875 128 L 122.8125 128 C 125.675781 128 128 125.675781 128 122.8125 L 128 5.1875 C 128 2.320312 125.675781 0 122.8125 0 L 5.1875 0 C 2.320312 0 0 2.320312 0 5.1875 L 0 122.8125 C 0 125.675781 2.320312 128 5.1875 128 Z "/>
<g style="fill:#fff">
<path d="M 57.5 71.75 L 43 91.082031 C 48.796875 95.578125 56.097656 98.25 64 98.25 C 71.691406 98.25 78.78125 95.695312 84.5 91.417969 L 70 71.75 C 67.09375 75.148438 60.796875 74.796875 57.5 71.75 Z "/>
<path d="M 70.914062 63.476562 C 70.914062 67.34375 67.78125 70.476562 63.914062 70.476562 C 60.046875 70.476562 56.914062 67.34375 56.914062 63.476562 C 56.914062 59.609375 60.046875 56.476562 63.914062 56.476562 C 67.78125 56.476562 70.914062 59.609375 70.914062 63.476562 Z "/>
<path d="M 74 31.25 L 67.582031 53.417969 C 71.582031 54.113281 74.992188 59.789062 74.25 63.917969 L 98.25 64 C 98.25 48.5625 88.035156 35.542969 74 31.25 Z "/>
<path d="M 54.082031 31.167969 C 40.125 35.390625 29.933594 48.292969 29.75 63.582031 L 53.167969 63.667969 C 52.398438 59.457031 56.421875 54.636719 60.5 53.417969 Z "/>
</g>
<path style="fill:none;stroke:#fff;stroke-width:1.916" d="M 39.067594 24.400238 C 39.067594 32.259944 32.696756 38.630782 24.83705 38.630782 C 16.977344 38.630782 10.606506 32.259944 10.606506 24.400238 C 10.606506 16.540532 16.977344 10.169693 24.83705 10.169693 C 32.696756 10.169693 39.067594 16.540532 39.067594 24.400238 Z " transform="matrix(2.78368 0 0 2.78368 -5.1384 -3.92245)"/>
<path style="fill:#fff;fill-opacity:.149" d="M 5.332031 0 C 2.378906 0 0 2.378906 0 5.332031 L 0 122.667969 C 0 125.621094 2.378906 128 5.332031 128 L 44.75 128 L 79 0 Z "/>
</svg>
