<svg width="128" xmlns="http://www.w3.org/2000/svg" height="128" viewBox="0 0 128 128" xmlns:xlink="http://www.w3.org/1999/xlink">
<defs>
<linearGradient gradientTransform="matrix(2.66667 0 0 2.66667 0 -2678.29928)" id="linear0" y1="1053.158" y2="1004.847" gradientUnits="userSpaceOnUse" x2="0">
<stop offset="0" style="stop-color:#cca252"/>
<stop offset="1" style="stop-color:#e0ad59"/>
</linearGradient>
</defs>
<path style="fill:url(#linear0)" d="M 5.1875 0 L 122.8125 0 C 125.679688 0 128 2.320312 128 5.1875 L 128 122.8125 C 128 125.675781 125.679688 128 122.8125 128 L 5.1875 128 C 2.320312 128 0 125.675781 0 122.8125 L 0 5.1875 C 0 2.320312 2.320312 0 5.1875 0 Z "/>
<path style="fill:none;stroke:#fff;stroke-width:2.542" d="M 23.019612 1017.738209 C 17.059163 1018.06194 12.314534 1023.360279 12.314534 1029.827565 C 12.314534 1036.504322 17.36971 1041.91692 23.59969 1041.91692 C 29.82967 1041.91692 34.884846 1036.504322 34.884846 1029.827565 C 34.884846 1023.150807 29.82967 1017.738209 23.59969 1017.738209 C 23.404866 1017.738209 23.211506 1017.72942 23.019612 1017.738209 Z " transform="matrix(2.66667 0 0 2.66667 1.06749 -2682.19512)"/>
<g style="fill:#fff">
<path d="M 59.726562 23.960938 L 68.273438 23.960938 C 68.757812 23.960938 69.148438 24.714844 69.148438 25.652344 L 69.148438 30.820312 C 69.148438 31.757812 68.757812 32.515625 68.273438 32.515625 L 59.726562 32.515625 C 59.242188 32.515625 58.851562 31.757812 58.851562 30.820312 L 58.851562 25.652344 C 58.851562 24.714844 59.242188 23.960938 59.726562 23.960938 Z "/>
<path d="M 59.726562 95.484375 L 68.273438 95.484375 C 68.757812 95.484375 69.148438 96.242188 69.148438 97.179688 L 69.148438 102.347656 C 69.148438 103.285156 68.757812 104.039062 68.273438 104.039062 L 59.726562 104.039062 C 59.242188 104.039062 58.851562 103.285156 58.851562 102.347656 L 58.851562 97.179688 C 58.851562 96.242188 59.242188 95.484375 59.726562 95.484375 Z "/>
<path d="M 71.035156 64.007812 C 71.035156 67.890625 67.886719 71.039062 64 71.039062 C 60.117188 71.039062 56.96875 67.890625 56.96875 64.007812 C 56.96875 60.121094 60.117188 56.972656 64 56.972656 C 67.886719 56.972656 71.035156 60.121094 71.035156 64.007812 Z "/>
<path d="M 101.90625 59.558594 L 101.90625 68.453125 C 101.90625 68.960938 101.152344 69.367188 100.210938 69.367188 L 95.046875 69.367188 C 94.109375 69.367188 93.351562 68.960938 93.351562 68.453125 L 93.351562 59.558594 C 93.351562 59.050781 94.109375 58.644531 95.046875 58.644531 L 100.210938 58.644531 C 101.152344 58.644531 101.90625 59.050781 101.90625 59.558594 Z "/>
<path d="M 34.648438 59.558594 L 34.648438 68.453125 C 34.648438 68.960938 33.890625 69.367188 32.953125 69.367188 L 27.789062 69.367188 C 26.847656 69.367188 26.09375 68.960938 26.09375 68.453125 L 26.09375 59.558594 C 26.09375 59.050781 26.847656 58.644531 27.789062 58.644531 L 32.953125 58.644531 C 33.890625 58.644531 34.648438 59.050781 34.648438 59.558594 Z "/>
<path d="M 89.292969 32.664062 L 95.332031 38.707031 C 95.679688 39.050781 95.421875 39.863281 94.757812 40.527344 L 91.105469 44.179688 C 90.441406 44.84375 89.628906 45.101562 89.285156 44.757812 L 83.242188 38.714844 C 82.898438 38.371094 83.15625 37.558594 83.820312 36.894531 L 87.472656 33.242188 C 88.136719 32.578125 88.949219 32.320312 89.292969 32.664062 Z "/>
<path d="M 38.714844 83.242188 L 44.757812 89.285156 C 45.101562 89.628906 44.84375 90.441406 44.179688 91.105469 L 40.527344 94.757812 C 39.863281 95.421875 39.050781 95.675781 38.707031 95.332031 L 32.664062 89.292969 C 32.320312 88.949219 32.578125 88.136719 33.242188 87.472656 L 36.894531 83.820312 C 37.558594 83.15625 38.371094 82.898438 38.714844 83.242188 Z "/>
<path d="M 95.332031 89.292969 L 89.292969 95.332031 C 88.949219 95.675781 88.136719 95.417969 87.472656 94.757812 L 83.820312 91.101562 C 83.15625 90.441406 82.898438 89.628906 83.242188 89.285156 L 89.285156 83.242188 C 89.628906 82.898438 90.441406 83.15625 91.105469 83.820312 L 94.757812 87.472656 C 95.421875 88.136719 95.679688 88.949219 95.332031 89.292969 Z "/>
<path d="M 44.757812 38.714844 L 38.714844 44.757812 C 38.371094 45.101562 37.558594 44.84375 36.894531 44.179688 L 33.242188 40.527344 C 32.578125 39.863281 32.320312 39.050781 32.664062 38.707031 L 38.707031 32.664062 C 39.050781 32.320312 39.863281 32.582031 40.527344 33.242188 L 44.179688 36.894531 C 44.84375 37.558594 45.101562 38.371094 44.757812 38.714844 Z "/>
<path style="fill-opacity:.149" d="M 5.332031 0 C 2.378906 0 0 2.378906 0 5.332031 L 0 122.667969 C 0 125.621094 2.378906 128 5.332031 128 L 44.75 128 L 79 0 Z "/>
</g>
</svg>
