<svg width="128" xmlns="http://www.w3.org/2000/svg" height="128" viewBox="0 0 128 128" xmlns:xlink="http://www.w3.org/1999/xlink">
<defs>
<linearGradient gradientTransform="matrix(2.66667 0 0 2.66667 0 -2678.2992)" id="linear0" y1="1053.158" y2="1004.847" gradientUnits="userSpaceOnUse" x2="0">
<stop offset="0" style="stop-color:#000"/>
<stop offset="1" style="stop-color:#5a5d60"/>
</linearGradient>
</defs>
<path style="fill:url(#linear0)" d="M 5.1875 0 L 122.8125 0 C 125.679688 0 128 2.320312 128 5.1875 L 128 122.8125 C 128 125.675781 125.679688 128 122.8125 128 L 5.1875 128 C 2.320312 128 0 125.675781 0 122.8125 L 0 5.1875 C 0 2.320312 2.320312 0 5.1875 0 Z "/>
<g style="fill:#fff">
<path d="M 32.417969 21.332031 L 95.417969 21.332031 C 98.640625 21.386719 101.460938 24.632812 101.417969 28.167969 L 101.417969 100 C 101.382812 103.480469 98.589844 106.613281 95.417969 106.667969 L 32.917969 106.667969 C 29.691406 106.71875 26.785156 103.535156 26.75 100 L 26.75 28.167969 C 26.695312 24.789062 29.347656 21.621094 32.417969 21.332031 Z M 32 26.667969 L 32 90.667969 L 96 90.667969 L 96 26.667969 Z "/>
<path d="M 63.984375 39.972656 C 63.363281 39.972656 62.769531 40.027344 62.175781 40.046875 C 54.882812 40.324219 49.242188 42.175781 45.335938 44.117188 C 41.109375 46.21875 38.648438 48.578125 38.648438 48.578125 C 37.261719 49.976562 37.269531 52.496094 38.664062 53.882812 C 40.058594 55.269531 42.59375 55.277344 44 53.910156 C 44 53.910156 45.046875 52.886719 47.382812 51.5625 C 46.695312 53.429688 46.359375 55.417969 46.359375 57.511719 C 46.359375 67.148438 54.292969 75.039062 63.984375 75.039062 C 73.671875 75.039062 81.609375 67.148438 81.609375 57.511719 C 81.609375 55.417969 81.273438 53.429688 80.585938 51.5625 C 82.921875 52.886719 83.96875 53.910156 83.96875 53.910156 C 85.367188 55.316406 87.929688 55.324219 89.335938 53.9375 C 90.742188 52.539062 90.734375 49.988281 89.320312 48.597656 C 89.320312 48.597656 86.859375 46.242188 82.632812 44.140625 C 78.722656 42.195312 73.085938 40.34375 65.792969 40.070312 C 65.203125 40.007812 64.589844 39.992188 63.984375 39.992188 Z M 63.984375 45.480469 C 69.589844 45.480469 77.355469 48.035156 77.355469 57.5 C 77.355469 65.789062 72.066406 70.699219 63.984375 70.699219 C 56.019531 70.699219 50.730469 65.671875 50.730469 57.5 C 50.730469 49.09375 58.375 45.480469 63.984375 45.480469 Z "/>
<path style="stroke:#fff;stroke-linejoin:round;stroke-linecap:round;stroke-width:3.186" d="M 24.999407 23.99983 C 24.999407 24.552018 24.552586 24.999696 24.000265 24.999696 C 23.447945 24.999696 22.999573 24.552018 22.999573 23.99983 C 22.999573 23.447641 23.447945 22.999963 24.000265 22.999963 C 24.552586 22.999963 24.999407 23.447641 24.999407 23.99983 Z " transform="matrix(2.51779 0 0 2.50424 3.55683 -2.60133)"/>
<path style="fill-opacity:.149" d="M 5.332031 0 C 2.378906 0 0 2.378906 0 5.332031 L 0 122.667969 C 0 125.621094 2.378906 128 5.332031 128 L 44.75 128 L 79 0 Z "/>
</g>
</svg>
