<svg width="128" xmlns="http://www.w3.org/2000/svg" height="128" viewBox="0 0 128 128" xmlns:xlink="http://www.w3.org/1999/xlink">
<defs>
<linearGradient gradientTransform="matrix(2.66667 0 0 2.66667 0 -2678.2992)" id="linear0" y1="1053.158" y2="1004.847" gradientUnits="userSpaceOnUse" x2="0">
<stop offset="0" style="stop-color:#b44ac8"/>
<stop offset="1" style="stop-color:#cd78de"/>
</linearGradient>
</defs>
<path style="fill:url(#linear0)" d="M 5.1875 0 L 122.8125 0 C 125.679688 0 128 2.320312 128 5.1875 L 128 122.8125 C 128 125.675781 125.679688 128 122.8125 128 L 5.1875 128 C 2.320312 128 0 125.675781 0 122.8125 L 0 5.1875 C 0 2.320312 2.320312 0 5.1875 0 Z "/>
<g style="fill:#fff">
<path d="M 71.792969 63.742188 C 71.792969 68.175781 68.195312 71.773438 63.761719 71.773438 C 59.328125 71.773438 55.734375 68.175781 55.734375 63.742188 C 55.734375 59.308594 59.328125 55.714844 63.761719 55.714844 C 68.195312 55.714844 71.792969 59.308594 71.792969 63.742188 Z "/>
<path d="M 56.878906 51.449219 L 106.019531 51.449219 L 86.878906 32.308594 Z "/>
<path d="M 49.578125 63.890625 L 74.148438 21.332031 L 48 28.339844 Z "/>
<path d="M 56.699219 76.441406 L 32.125 33.882812 L 25.121094 60.03125 Z "/>
<path d="M 71.121094 76.550781 L 21.980469 76.550781 L 41.121094 95.691406 Z "/>
<path d="M 78.421875 64.109375 L 53.851562 106.667969 L 80 99.660156 Z "/>
<path d="M 71.300781 51.558594 L 95.875 94.117188 L 102.878906 67.96875 Z "/>
<path style="fill-opacity:.149" d="M 5.332031 0 C 2.378906 0 0 2.378906 0 5.332031 L 0 122.667969 C 0 125.621094 2.378906 128 5.332031 128 L 44.75 128 L 79 0 Z "/>
</g>
</svg>
