<svg width="128" xmlns="http://www.w3.org/2000/svg" height="128" viewBox="0 0 128 128" xmlns:xlink="http://www.w3.org/1999/xlink">
<defs>
<linearGradient gradientTransform="matrix(2.66667 0 0 2.66667 0 -2678.2992)" id="linear0" y1="1053.158" y2="1004.847" gradientUnits="userSpaceOnUse" x2="0">
<stop offset="0" style="stop-color:#9e1e25"/>
<stop offset="1" style="stop-color:#e06359"/>
</linearGradient>
</defs>
<path style="fill:url(#linear0)" d="M 5.1875 0 L 122.8125 0 C 125.679688 0 128 2.320312 128 5.1875 L 128 122.8125 C 128 125.675781 125.679688 128 122.8125 128 L 5.1875 128 C 2.320312 128 0 125.675781 0 122.8125 L 0 5.1875 C 0 2.320312 2.320312 0 5.1875 0 Z "/>
<g style="fill:#fff">
<path d="M 38.628906 21.707031 L 21.332031 97.769531 L 35.386719 97.769531 L 43.550781 63.730469 L 81.914062 63.730469 L 45.988281 95.609375 L 55.351562 106.300781 L 60.148438 103.851562 C 69.21875 99.226562 73.023438 101.929688 79.90625 103.816406 C 86.601562 105.65625 92.898438 107.628906 105.957031 100.167969 L 103.363281 86.996094 C 89.113281 97.042969 84.601562 88.078125 74.453125 87.722656 L 103.511719 63.34375 L 106.667969 50.332031 L 45.792969 50.332031 L 49.710938 34.710938 L 89.609375 34.710938 L 92.347656 21.699219 L 38.628906 21.699219 Z "/>
<path style="fill-opacity:.149" d="M 5.332031 0 C 2.378906 0 0 2.378906 0 5.332031 L 0 122.667969 C 0 125.621094 2.378906 128 5.332031 128 L 44.75 128 L 79 0 Z "/>
</g>
</svg>
