<svg width="128" xmlns="http://www.w3.org/2000/svg" height="128" viewBox="0 0 128 128" xmlns:xlink="http://www.w3.org/1999/xlink">
<defs>
<linearGradient gradientTransform="matrix(2.66667 0 0 2.66667 0 -2678.29912)" id="linear0" y1="1053.158" y2="1004.847" gradientUnits="userSpaceOnUse" x2="0">
<stop offset="0" style="stop-color:#9e1e25"/>
<stop offset="1" style="stop-color:#e06359"/>
</linearGradient>
</defs>
<path style="fill:url(#linear0)" d="M 5.1875 0 L 122.8125 0 C 125.679688 0 128 2.320312 128 5.1875 L 128 122.8125 C 128 125.675781 125.679688 128 122.8125 128 L 5.1875 128 C 2.320312 128 0 125.675781 0 122.8125 L 0 5.1875 C 0 2.320312 2.320312 0 5.1875 0 Z "/>
<g style="fill:#fff">
<path d="M 21.332031 32.339844 L 21.332031 95.660156 L 106.667969 95.660156 L 106.667969 32.339844 Z M 34.503906 33.78125 L 92.957031 33.78125 L 64.449219 57.414062 Z M 34.503906 49.65625 L 56.332031 67.15625 L 34.503906 85.917969 Z M 92.957031 49.65625 L 92.957031 94.398438 L 34.503906 94.398438 L 34.503906 87.722656 L 57.777344 68.238281 L 64.449219 73.472656 L 71.488281 68.238281 L 92.957031 87.722656 L 92.957031 85.917969 L 72.117188 67.15625 Z "/>
<path style="fill-opacity:.149" d="M 5.332031 0 C 2.378906 0 0 2.378906 0 5.332031 L 0 122.667969 C 0 125.621094 2.378906 128 5.332031 128 L 44.75 128 L 79 0 Z "/>
</g>
</svg>
