<svg width="128" xmlns="http://www.w3.org/2000/svg" height="128" viewBox="0 0 128 128" xmlns:xlink="http://www.w3.org/1999/xlink">
<defs>
<linearGradient gradientTransform="matrix(2.66667 0 0 -2.66667 0 -2678.2992)" id="linear0" y1="-1052.362" y2="-1002.362" gradientUnits="userSpaceOnUse" x2="0">
<stop offset="0" style="stop-color:#407f04"/>
<stop offset="1" style="stop-color:#4d993b"/>
</linearGradient>
</defs>
<path style="fill:url(#linear0)" d="M 5.1875 128 L 122.8125 128 C 125.679688 128 128 125.675781 128 122.8125 L 128 5.1875 C 128 2.320312 125.679688 0 122.8125 0 L 5.1875 0 C 2.320312 0 0 2.320312 0 5.1875 L 0 122.8125 C 0 125.675781 2.320312 128 5.1875 128 Z "/>
<g style="fill:#fff">
<path d="M 24.199219 24.035156 C 22.636719 24.199219 21.324219 25.664062 21.332031 27.234375 L 21.332031 84.832031 C 21.332031 86.507812 22.859375 88.03125 24.535156 88.035156 L 53.332031 88.035156 L 53.332031 93.433594 L 74.667969 93.433594 L 74.667969 88.035156 L 103.464844 88.035156 C 105.140625 88.03125 106.667969 86.507812 106.667969 84.832031 L 106.667969 27.234375 C 106.667969 25.558594 105.140625 24.035156 103.464844 24.035156 Z M 28.433594 29.433594 C 28.566406 29.40625 28.699219 29.40625 28.832031 29.433594 L 99.160156 29.433594 C 100.277344 29.433594 101.292969 30.449219 101.292969 31.566406 L 101.292969 80.667969 C 101.292969 81.785156 100.277344 82.800781 99.160156 82.800781 L 28.832031 82.800781 C 27.714844 82.800781 26.699219 81.785156 26.699219 80.667969 L 26.699219 31.566406 C 26.683594 30.570312 27.457031 29.617188 28.433594 29.433594 Z M 40.066406 96.066406 L 40.066406 101.464844 L 90.734375 101.464844 L 90.734375 96.066406 Z "/>
<path d="M 76.785156 75.589844 C 78.289062 74.71875 79.269531 73.167969 79.773438 71.402344 C 80.28125 69.640625 80.347656 67.585938 80.097656 65.320312 C 79.589844 60.789062 77.730469 55.4375 74.640625 50.085938 C 71.550781 44.730469 67.847656 40.449219 64.175781 37.742188 C 62.339844 36.390625 60.527344 35.425781 58.746094 34.980469 C 56.964844 34.535156 55.128906 34.609375 53.625 35.476562 C 53.167969 35.742188 52.789062 36.089844 52.425781 36.464844 L 52.382812 36.390625 C 52.382812 36.390625 48.839844 39.234375 46.671875 44.210938 C 44.507812 49.183594 43.726562 56.472656 48.6875 65.070312 C 53.652344 73.664062 60.355469 76.628906 65.746094 77.242188 C 71.136719 77.855469 75.371094 76.207031 75.371094 76.207031 L 75.328125 76.132812 C 75.835938 76.007812 76.328125 75.851562 76.785156 75.589844 Z M 75.421875 73.230469 C 74.644531 73.675781 73.679688 73.734375 72.382812 73.410156 C 71.082031 73.085938 69.492188 72.40625 67.863281 71.203125 C 64.601562 68.800781 61.054688 64.691406 58.125 59.621094 C 55.199219 54.546875 53.410156 49.421875 52.960938 45.398438 C 52.738281 43.382812 52.941406 41.667969 53.308594 40.378906 C 53.679688 39.089844 54.210938 38.285156 54.988281 37.835938 C 55.765625 37.390625 56.730469 37.328125 58.027344 37.65625 C 59.328125 37.980469 60.917969 38.660156 62.546875 39.863281 C 65.808594 42.265625 69.355469 46.375 72.28125 51.445312 C 75.210938 56.519531 76.996094 61.644531 77.445312 65.667969 C 77.671875 67.683594 77.46875 69.398438 77.101562 70.6875 C 76.730469 71.972656 76.199219 72.78125 75.421875 73.230469 Z M 68.214844 74.539062 C 67.550781 74.539062 66.84375 74.566406 66.113281 74.472656 C 61.402344 73.9375 55.621094 71.625 51.046875 63.707031 C 46.476562 55.785156 47.363281 49.621094 49.253906 45.273438 C 49.550781 44.601562 49.921875 44 50.25 43.421875 C 50.253906 44.167969 50.222656 44.941406 50.3125 45.746094 C 50.820312 50.277344 52.675781 55.628906 55.765625 60.980469 C 58.855469 66.332031 62.5625 70.617188 66.234375 73.320312 C 66.886719 73.800781 67.570312 74.160156 68.214844 74.539062 Z "/>
<path d="M 55.765625 55.53125 L 77.5625 44.632812 L 80.285156 47.359375 L 61.292969 66.503906 C 61.292969 66.503906 61.214844 69.15625 58.492188 63.707031 C 55.765625 58.257812 55.765625 55.53125 55.765625 55.53125 Z "/>
<path d="M 84.828125 44.820312 C 84.828125 47.488281 82.664062 49.648438 80 49.648438 C 77.335938 49.648438 75.175781 47.488281 75.175781 44.820312 C 75.175781 42.15625 77.335938 39.996094 80 39.996094 C 82.664062 39.996094 84.828125 42.15625 84.828125 44.820312 Z "/>
<path style="fill-opacity:.149" d="M 5.332031 0 C 2.378906 0 0 2.378906 0 5.332031 L 0 122.667969 C 0 125.621094 2.378906 128 5.332031 128 L 44.75 128 L 79 0 Z "/>
</g>
</svg>
