<svg width="128" xmlns="http://www.w3.org/2000/svg" height="128" viewBox="0 0 128 128" xmlns:xlink="http://www.w3.org/1999/xlink">
<defs>
<linearGradient gradientTransform="matrix(2.66667 0 0 2.66667 0 -2678.2992)" id="linear0" y1="1053.158" y2="1004.847" gradientUnits="userSpaceOnUse" x2="0">
<stop offset="0" style="stop-color:#9e1e25"/>
<stop offset="1" style="stop-color:#e06359"/>
</linearGradient>
</defs>
<path style="fill:url(#linear0)" d="M 5.1875 0 L 122.8125 0 C 125.679688 0 128 2.320312 128 5.1875 L 128 122.8125 C 128 125.675781 125.679688 128 122.8125 128 L 5.1875 128 C 2.320312 128 0 125.675781 0 122.8125 L 0 5.1875 C 0 2.320312 2.320312 0 5.1875 0 Z "/>
<g style="fill:#fff">
<path d="M 24.199219 23.949219 C 22.636719 24.113281 21.324219 25.578125 21.332031 27.148438 L 21.332031 84.75 C 21.332031 86.425781 22.859375 87.949219 24.535156 87.949219 L 53.332031 87.949219 L 53.332031 93.351562 L 74.667969 93.351562 L 74.667969 87.949219 L 103.464844 87.949219 C 105.140625 87.949219 106.667969 86.425781 106.667969 84.75 L 106.667969 27.148438 C 106.667969 25.476562 105.140625 23.949219 103.464844 23.949219 Z M 28.433594 29.351562 C 28.566406 29.324219 28.699219 29.324219 28.832031 29.351562 L 99.160156 29.351562 C 100.277344 29.351562 101.292969 30.367188 101.292969 31.484375 L 101.292969 80.582031 C 101.292969 81.699219 100.277344 82.714844 99.160156 82.714844 L 28.832031 82.714844 C 27.714844 82.714844 26.699219 81.699219 26.699219 80.582031 L 26.699219 31.484375 C 26.683594 30.488281 27.457031 29.535156 28.433594 29.351562 Z M 40.066406 95.984375 L 40.066406 101.382812 L 90.734375 101.382812 L 90.734375 95.984375 Z "/>
<path d="M 29.332031 21.332031 L 40 21.332031 C 41.472656 21.332031 42.667969 22.527344 42.667969 24 C 42.667969 25.472656 41.472656 26.667969 40 26.667969 L 29.332031 26.667969 C 27.859375 26.667969 26.667969 25.472656 26.667969 24 C 26.667969 22.527344 27.859375 21.332031 29.332031 21.332031 Z "/>
<path d="M 90.667969 34.667969 L 93.332031 34.667969 C 94.804688 34.667969 96 35.859375 96 37.332031 L 96 40 C 96 41.472656 94.804688 42.667969 93.332031 42.667969 L 90.667969 42.667969 C 89.195312 42.667969 88 41.472656 88 40 L 88 37.332031 C 88 35.859375 89.195312 34.667969 90.667969 34.667969 Z "/>
</g>
<path style="fill:none;stroke:#fff;stroke-width:2" d="M 31.000488 26.500063 C 31.000488 30.090395 28.089844 32.999575 24.499512 32.999575 C 20.910645 32.999575 18 30.090395 18 26.500063 C 18 22.909731 20.910645 20.000552 24.499512 20.000552 C 28.089844 20.000552 31.000488 22.909731 31.000488 26.500063 Z " transform="matrix(2.66667 0 0 2.66667 -1 -13.37387)"/>
<path style="fill:#fff;fill-opacity:.149" d="M 5.332031 0 C 2.378906 0 0 2.378906 0 5.332031 L 0 122.667969 C 0 125.621094 2.378906 128 5.332031 128 L 44.75 128 L 79 0 Z "/>
</svg>
