<svg width="128" xmlns="http://www.w3.org/2000/svg" height="128" viewBox="0 0 128 128" xmlns:xlink="http://www.w3.org/1999/xlink">
<defs>
<linearGradient gradientTransform="matrix(2.66667 0 0 2.66667 0 -2678.29928)" id="linear0" y1="1053.158" y2="1004.847" gradientUnits="userSpaceOnUse" x2="0">
<stop offset="0" style="stop-color:#464745"/>
<stop offset="1" style="stop-color:#828680"/>
</linearGradient>
</defs>
<path style="fill:url(#linear0)" d="M 5.1875 0 L 122.8125 0 C 125.679688 0 128 2.320312 128 5.1875 L 128 122.8125 C 128 125.675781 125.679688 128 122.8125 128 L 5.1875 128 C 2.320312 128 0 125.675781 0 122.8125 L 0 5.1875 C 0 2.320312 2.320312 0 5.1875 0 Z "/>
<path style="fill:#fff;fill-opacity:.8" d="M 24.199219 24.535156 C 22.636719 24.699219 21.324219 26.164062 21.332031 27.734375 L 21.332031 84.9375 C 21.332031 86.613281 22.859375 88.136719 24.535156 88.140625 L 53.332031 88.140625 L 53.332031 93.355469 L 74.667969 93.355469 L 74.667969 88.140625 L 103.464844 88.140625 C 105.140625 88.136719 106.667969 86.613281 106.667969 84.9375 L 106.667969 27.734375 C 106.667969 26.058594 105.140625 24.535156 103.464844 24.535156 Z M 28.417969 29.554688 C 28.550781 29.527344 28.683594 29.527344 28.816406 29.554688 L 99.253906 29.554688 C 100.371094 29.554688 101.386719 30.570312 101.386719 31.6875 L 101.386719 80.789062 C 101.386719 81.90625 100.371094 82.921875 99.253906 82.921875 L 28.816406 82.921875 C 27.699219 82.921875 26.683594 81.90625 26.683594 80.789062 L 26.683594 31.6875 C 26.667969 30.691406 27.4375 29.738281 28.417969 29.554688 Z M 37.414062 96.082031 L 37.414062 101.296875 L 90.746094 101.296875 L 90.746094 96.082031 Z "/>
<g style="fill:none;stroke-linecap:round;stroke-opacity:.8;stroke:#fff;stroke-width:1.6">
<path d="M 9.049795 1036.59052 L 9.049795 1038.989934 L 11.450674 1038.989934 " transform="matrix(2.66667 0 0 2.66667 10.00003 -2695.4992)"/>
<path d="M 31.450185 1036.59052 L 31.450185 1038.989934 L 29.049306 1038.989934 " transform="matrix(2.66667 0 0 2.66667 10.00003 -2695.4992)"/>
<path d="M 29.049306 1024.811712 L 31.450185 1024.811712 L 31.450185 1027.212591 " transform="matrix(2.66667 0 0 2.66667 10.00003 -2695.4992)"/>
<path d="M 9.049795 1027.212591 L 9.049795 1024.811712 L 11.450674 1024.811712 " transform="matrix(2.66667 0 0 2.66667 10.00003 -2695.4992)"/>
</g>
<path style="fill:#fff;fill-opacity:.149" d="M 5.332031 0 C 2.378906 0 0 2.378906 0 5.332031 L 0 122.667969 C 0 125.621094 2.378906 128 5.332031 128 L 44.75 128 L 79 0 Z "/>
</svg>
