<svg width="128" xmlns="http://www.w3.org/2000/svg" height="128" viewBox="0 0 128 128" xmlns:xlink="http://www.w3.org/1999/xlink">
<defs>
<linearGradient gradientTransform="matrix(2.66667 0 0 2.66667 0 -2678.2992)" id="linear0" y1="1053.158" y2="1004.847" gradientUnits="userSpaceOnUse" x2="0">
<stop offset="0" style="stop-color:#6e6e6e"/>
<stop offset="1" style="stop-color:#c6c6c6"/>
</linearGradient>
</defs>
<path style="fill:url(#linear0)" d="M 5.167969 0 C 2.292969 0 0 2.292969 0 5.167969 L 0 122.832031 C 0 125.707031 2.292969 128 5.167969 128 L 122.832031 128 C 125.707031 128 128 125.707031 128 122.832031 L 128 5.167969 C 128 2.292969 125.707031 0 122.832031 0 Z "/>
<g style="fill:#fff">
<path d="M 63.429688 21.332031 C 73.179688 21.332031 81.082031 29.234375 81.082031 38.984375 L 81.082031 66.191406 C 81.082031 75.941406 73.179688 83.84375 63.429688 83.84375 C 53.683594 83.84375 45.78125 75.941406 45.78125 66.191406 L 45.78125 38.984375 C 45.78125 29.234375 53.683594 21.332031 63.429688 21.332031 Z "/>
<path d="M 35.441406 63.875 C 35.441406 63.875 35.441406 95.253906 61.113281 95.164062 L 61.113281 100.960938 L 52.554688 100.960938 L 52.554688 106.664062 L 75.375 106.664062 L 75.375 100.960938 L 66.820312 100.960938 L 66.820312 95.164062 C 95.179688 93.324219 92.492188 63.875 92.492188 63.875 L 86.785156 63.875 C 86.785156 63.875 86.785156 89.550781 63.964844 89.550781 C 41.144531 89.550781 41.144531 63.875 41.144531 63.875 Z "/>
<path style="fill-opacity:.149" d="M 5.332031 0 C 2.378906 0 0 2.378906 0 5.332031 L 0 122.667969 C 0 125.621094 2.378906 128 5.332031 128 L 44.75 128 L 79 0 Z "/>
</g>
</svg>
