<svg width="128" xmlns="http://www.w3.org/2000/svg" height="128" viewBox="0 0 128 128" xmlns:xlink="http://www.w3.org/1999/xlink">
<defs>
<linearGradient gradientTransform="matrix(2.66667 0 0 2.66667 0 -2678.2992)" id="linear0" y1="1067.43" x1="32.88" y2="995.835" gradientUnits="userSpaceOnUse" x2="26.787">
<stop offset="0" style="stop-color:#517f19"/>
<stop offset="1" style="stop-color:#b9b300"/>
</linearGradient>
</defs>
<path style="fill:url(#linear0)" d="M 5.1875 0 L 122.8125 0 C 125.679688 0 128 2.320312 128 5.1875 L 128 122.8125 C 128 125.675781 125.679688 128 122.8125 128 L 5.1875 128 C 2.320312 128 0 125.675781 0 122.8125 L 0 5.1875 C 0 2.320312 2.320312 0 5.1875 0 Z "/>
<g style="fill:#fff">
<path d="M 64.058594 21.332031 C 55.003906 21.332031 47.265625 23.785156 40.355469 28.59375 L 49.179688 57.246094 C 51.703125 51.503906 57.027344 48.167969 63.699219 48.167969 C 64.234375 48.167969 64.746094 48.234375 65.269531 48.285156 C 65.347656 48.285156 65.429688 48.285156 65.511719 48.285156 L 103.585938 48.285156 C 97.347656 32.523438 82.058594 21.332031 64.058594 21.332031 Z M 36.382812 31.605469 C 27.242188 39.4375 21.394531 51.023438 21.394531 64 C 21.394531 87.574219 40.484375 106.667969 64.058594 106.667969 L 64.4375 106.550781 L 72.058594 78.25 C 69.457031 80.082031 67.113281 80.679688 63.699219 80.679688 C 56.101562 80.679688 49.765625 75.320312 47.984375 68.230469 C 47.953125 68.101562 47.894531 67.996094 47.863281 67.867188 C 47.816406 67.789062 47.777344 67.707031 47.742188 67.625 C 47.734375 67.585938 47.75 67.542969 47.742188 67.503906 C 47.738281 67.425781 47.738281 67.34375 47.742188 67.261719 L 47.621094 67.015625 L 36.382812 31.601562 Z M 64.875 52.742188 C 58.023438 52.742188 52.898438 57.742188 52.898438 64.597656 C 52.898438 65.238281 52.925781 65.796875 53.019531 66.410156 C 53.03125 66.5 53.125 66.570312 53.140625 66.65625 C 53.144531 66.738281 53.144531 66.820312 53.140625 66.902344 C 53.148438 66.941406 53.132812 66.984375 53.140625 67.023438 C 53.1875 67.101562 53.226562 67.183594 53.261719 67.265625 C 53.269531 67.304688 53.253906 67.347656 53.261719 67.386719 C 53.265625 67.46875 53.265625 67.546875 53.261719 67.628906 C 54.640625 73 58.261719 76.113281 64.050781 76.113281 C 70.199219 76.113281 75.316406 71.109375 75.316406 64.253906 C 75.316406 58.226562 70.789062 52.75 64.875 52.75 Z M 74.921875 52.980469 C 78.316406 55.933594 79.894531 59.488281 79.894531 64.363281 C 79.894531 65.710938 79.597656 66.972656 79.289062 68.230469 C 79.371094 68.542969 79.371094 68.882812 79.289062 69.195312 L 69.257812 106.300781 C 90.351562 103.726562 106.605469 85.804688 106.605469 64 C 106.605469 59.882812 106.109375 56.863281 105.03125 53.097656 Z "/>
<path style="fill-opacity:.149" d="M 5.332031 0 C 2.378906 0 0 2.378906 0 5.332031 L 0 122.667969 C 0 125.621094 2.378906 128 5.332031 128 L 44.75 128 L 79 0 Z "/>
</g>
</svg>
