<svg width="128" xmlns="http://www.w3.org/2000/svg" height="128" viewBox="0 0 128 128" xmlns:xlink="http://www.w3.org/1999/xlink">
<defs>
<linearGradient gradientTransform="matrix(2.66667 0 0 2.66667 0 -2678.2992)" id="linear0" y1="1053.158" y2="1004.847" gradientUnits="userSpaceOnUse" x2="0">
<stop offset="0" style="stop-color:#cc9e52"/>
<stop offset="1" style="stop-color:#e08559"/>
</linearGradient>
</defs>
<path style="fill:url(#linear0)" d="M 5.1875 0 L 122.8125 0 C 125.679688 0 128 2.320312 128 5.1875 L 128 122.8125 C 128 125.675781 125.679688 128 122.8125 128 L 5.1875 128 C 2.320312 128 0 125.675781 0 122.8125 L 0 5.1875 C 0 2.320312 2.320312 0 5.1875 0 Z "/>
<path style="fill:#fff" d="M 63.945312 32.152344 C 50.832031 32.152344 40.210938 42.773438 40.210938 55.890625 C 40.210938 69.003906 50.832031 79.691406 63.945312 79.691406 C 77.0625 79.691406 87.683594 69.003906 87.683594 55.890625 C 87.683594 42.773438 77.0625 32.152344 63.945312 32.152344 Z M 63.945312 51.535156 C 66.363281 51.535156 68.304688 53.472656 68.304688 55.890625 C 68.304688 58.304688 66.363281 60.308594 63.945312 60.308594 C 61.53125 60.308594 59.589844 58.304688 59.589844 55.890625 C 59.589844 53.472656 61.53125 51.535156 63.945312 51.535156 Z "/>
<path style="fill:none;stroke:#fff;stroke-width:2" d="M 13.702148 1013.3622 L 34.297852 1013.3622 C 35.169434 1013.3622 35.876953 1014.068255 35.876953 1014.941302 L 35.876953 1041.783098 C 35.876953 1042.65468 35.169434 1043.3622 34.297852 1043.3622 L 13.702148 1043.3622 C 12.830566 1043.3622 12.123047 1042.65468 12.123047 1041.783098 L 12.123047 1014.941302 C 12.123047 1014.068255 12.830566 1013.3622 13.702148 1013.3622 Z " transform="matrix(2.66667 0 0 2.66667 0 -2678.2992)"/>
<g style="fill:#fff">
<path d="M 72 82.667969 L 82.667969 96 L 88 96 L 88 90.667969 Z "/>
<path style="fill-opacity:.149" d="M 5.332031 0 C 2.378906 0 0 2.378906 0 5.332031 L 0 122.667969 C 0 125.621094 2.378906 128 5.332031 128 L 44.75 128 L 79 0 Z "/>
</g>
</svg>
