<svg width="128" xmlns="http://www.w3.org/2000/svg" height="128" viewBox="0 0 128 128" xmlns:xlink="http://www.w3.org/1999/xlink">
<defs>
<clipPath id="clip2">
<path d="M 63.125 33.777344 C 47.457031 33.777344 34.757812 44.171875 34.757812 56.988281 C 34.757812 65.152344 39.914062 72.328125 47.703125 76.464844 C 47.410156 78.621094 46.058594 83.898438 39.671875 85.707031 C 47.945312 86.605469 53.4375 82.570312 56.355469 79.527344 C 58.523438 79.960938 60.792969 80.199219 63.125 80.199219 C 78.792969 80.199219 91.492188 69.808594 91.492188 56.988281 C 91.492188 44.171875 78.792969 33.777344 63.125 33.777344 Z "/>
</clipPath>
<clipPath id="clip1">
<path d="M 34 33 L 92 33 L 92 86 L 34 86 Z "/>
</clipPath>
<linearGradient gradientTransform="matrix(2.66667 0 0 -2.66667 0 2806.2992)" id="linear0" y1="1053.158" y2="1004.847" gradientUnits="userSpaceOnUse" x2="0">
<stop offset="0" style="stop-color:#6fa6e0"/>
<stop offset="1" style="stop-color:#0068e6"/>
</linearGradient>
</defs>
<path style="fill:url(#linear0)" d="M 5.1875 128 L 122.8125 128 C 125.679688 128 128 125.675781 128 122.8125 L 128 5.1875 C 128 2.320312 125.679688 0 122.8125 0 L 5.1875 0 C 2.320312 0 0 2.320312 0 5.1875 L 0 122.8125 C 0 125.675781 2.320312 128 5.1875 128 Z "/>
<path style="fill:none;stroke:#fff;stroke-linejoin:round;stroke-linecap:round;stroke-width:2.385" d="M -239.204421 989.550329 L -231.702066 989.549683 C -225.830324 989.550389 -221.069781 994.309398 -221.070486 1000.181141 C -221.069777 1006.053263 -225.830201 1010.813426 -231.701944 1010.812721 L -239.205713 1010.812987 C -245.077456 1010.812282 -249.836584 1006.053652 -249.837293 1000.18153 C -249.836588 994.309787 -245.076163 989.549623 -239.204421 989.550329 Z " transform="matrix(2.57581 -.69019 .69019 2.57581 -19.82851 -2680.92232)"/>
<path style="fill:#fff" d="M 33.738281 104.28125 L 38.390625 86.917969 L 57.363281 91.804688 Z "/>
<g style="clip-rule:nonzero;clip-path:url(#clip1)">
<g style="clip-path:url(#clip2)">
<path style="fill:#fff" d="M 93.125 62.761719 L 93.117188 62.703125 Z M 62.460938 78.980469 C 62.390625 78.546875 61.308594 78.691406 62.460938 78.980469 M 90.171875 66.976562 L 90.144531 66.980469 Z M 88.402344 67.089844 L 88.351562 67.265625 Z M 90.636719 78.386719 L 90.515625 78.34375 Z M 89.914062 77.050781 L 89.976562 76.984375 Z M 89.992188 77.089844 L 90.019531 77.078125 Z M 89.90625 77.019531 L 89.925781 76.984375 Z M 89.914062 77.050781 C 90.019531 77.28125 89.964844 77.179688 89.914062 77.050781 M 41.082031 85.605469 C 42.144531 85.675781 44.140625 85.746094 42.539062 85.308594 C 44.941406 84.296875 50.476562 85.550781 51.074219 84.714844 C 49.464844 84.214844 54.351562 84.695312 55.515625 84.601562 C 59.269531 85.839844 55.273438 81.746094 58.386719 81.683594 C 55.726562 82.851562 59.644531 83.558594 59.148438 85.082031 C 58.082031 85.761719 56.378906 85.023438 57.105469 85.839844 C 54.945312 85.988281 61.171875 87.039062 62.566406 86.804688 C 64.964844 86.820312 67.492188 86.511719 65.929688 85.625 C 69.199219 84.605469 71.410156 83.433594 75.585938 83.714844 C 79.777344 84.140625 83.410156 81.792969 87.515625 83.082031 C 85.316406 85.640625 92.039062 81.460938 94.042969 82.644531 C 97.621094 82.746094 101.324219 82.214844 104.734375 82.835938 C 106.378906 83.597656 110.542969 84.042969 106.5625 84.777344 C 105.273438 85.511719 99.703125 86.90625 104.195312 87.117188 C 105.574219 88.3125 99.757812 87.960938 98.613281 87.972656 C 80.460938 87.863281 62.277344 88.234375 44.140625 87.773438 C 40.144531 86.746094 51.347656 87.664062 46.304688 87.242188 C 45.492188 87.125 42.253906 86.484375 44.949219 86.375 C 43.671875 86.070312 42.300781 86.144531 41.085938 85.605469 M 52.691406 54.964844 L 52.671875 54.820312 Z M 50.527344 56.058594 L 50.492188 55.960938 L 50.527344 56.058594 M 50.378906 56.054688 L 50.261719 55.941406 Z M 50.011719 55.898438 L 50.027344 55.898438 Z M 49.542969 52.527344 L 49.445312 52.472656 Z M 49.429688 52.816406 L 49.460938 52.785156 Z M 49.222656 52.996094 L 49.40625 52.898438 L 49.222656 52.996094 M 52.761719 56.363281 L 52.832031 56.296875 Z M 52.652344 54.160156 L 52.617188 54.113281 Z M 52.632812 54.347656 L 52.625 54.292969 Z M 52.402344 56.742188 C 52.503906 56.222656 52.992188 56.75 52.402344 56.742188 M 49.171875 52.398438 L 49.113281 52.332031 Z M 49.109375 51.90625 L 49.117188 51.933594 L 49.109375 51.90625 M 49.105469 52.550781 C 49.332031 52.566406 49.203125 52.105469 49.105469 52.550781 M 49.003906 52.058594 L 48.976562 52.050781 Z M 48.859375 52.046875 L 48.914062 52.273438 L 48.859375 52.046875 M 48.835938 51.890625 L 48.804688 51.703125 Z M 48.78125 52.136719 L 48.75 52.128906 Z M 48.648438 52.042969 L 48.722656 52.117188 Z M 48.574219 51.449219 C 48.785156 51.425781 48.617188 51.898438 48.574219 51.449219 M 48.414062 51.289062 L 48.398438 50.941406 L 48.414062 51.289062 M 48.285156 51.59375 L 48.351562 51.570312 Z M 48.164062 52.03125 L 48.144531 51.851562 L 48.164062 52.03125 M 48.101562 51.882812 L 48.128906 51.863281 Z M 48.082031 51.519531 C 48.460938 51.816406 47.753906 51.859375 48.082031 51.519531 M 48.015625 51.074219 C 47.941406 50.800781 48.8125 51.132812 48.015625 51.074219 M 47.691406 53.910156 C 48.613281 53.601562 48.167969 54.402344 47.691406 53.910156 M 52.382812 54.3125 L 52.375 54.28125 Z M 52.367188 54.269531 L 52.308594 54.21875 Z M 49.90625 52.742188 L 49.878906 52.710938 Z M 49.855469 52.710938 L 49.824219 52.695312 Z M 49.792969 52.683594 L 49.777344 52.652344 Z M 49.671875 52.710938 L 49.699219 52.679688 L 49.671875 52.710938 M 52.246094 53.945312 L 52.300781 53.90625 Z M 51.933594 53.761719 L 51.902344 53.75 Z M 51.738281 53.894531 L 51.710938 53.882812 Z M 51.710938 54.109375 L 51.804688 54.082031 Z M 49.449219 53.3125 L 49.460938 53.304688 L 49.449219 53.3125 M 49.375 53.761719 L 49.257812 53.671875 Z M 49.117188 53.980469 L 49.085938 53.972656 Z M 46.835938 53.542969 L 46.910156 53.542969 L 46.835938 53.542969 M 52.492188 49.089844 L 52.523438 49.070312 Z M 52.507812 56.066406 L 52.535156 55.984375 Z M 51.539062 53.96875 L 51.59375 53.949219 Z M 51.40625 54.011719 C 50.375 54.246094 51.691406 53.511719 51.40625 54.011719 M 47.246094 51.671875 L 47.21875 51.6875 Z M 47.105469 51.675781 L 47.125 51.707031 Z M 47.597656 50.609375 L 47.625 50.816406 Z M 47.566406 50.445312 L 47.574219 50.390625 L 47.566406 50.445312 M 47.5625 49.542969 L 47.53125 49.601562 Z M 47.480469 51.476562 L 47.371094 51.59375 Z M 47.0625 51.054688 L 47.125 51 Z M 47.015625 51.074219 L 47.007812 51.011719 Z M 46.992188 51.066406 L 47.019531 51.089844 Z M 46.984375 50.96875 L 46.980469 50.996094 Z M 52.777344 55.476562 L 52.777344 55.367188 Z M 52.152344 56.589844 L 52.1875 56.648438 Z M 51.769531 56.460938 C 51.488281 56.410156 52.105469 56.273438 51.769531 56.460938 Z M 48.0625 52.65625 L 48.003906 52.609375 Z M 48.023438 52.589844 L 47.992188 52.519531 Z M 47.984375 52.53125 L 47.914062 52.480469 Z M 47.871094 52.480469 C 47.660156 52.433594 48.035156 52.457031 47.871094 52.480469 M 47.808594 53.136719 L 47.777344 53.105469 Z M 47.363281 52.292969 L 47.363281 52.292969 M 47.148438 52.242188 L 47.179688 52.222656 Z M 46.492188 52.816406 C 46.222656 52.597656 46.882812 52.707031 46.492188 52.816406 M 52.714844 57.058594 L 52.742188 57.035156 Z M 52.707031 57.078125 L 52.632812 57.132812 Z M 52.703125 57.0625 L 52.710938 57.035156 Z M 52.679688 57.230469 L 52.710938 57.222656 Z M 52.617188 57.273438 L 52.632812 57.234375 L 52.617188 57.273438 M 52.605469 57.207031 L 52.6875 57.164062 Z M 52.578125 57.28125 L 52.492188 57.257812 Z M 52.691406 55.679688 L 52.699219 55.589844 Z M 50.625 53.964844 L 50.566406 53.945312 Z M 53.1875 55.703125 L 53.15625 55.617188 Z M 45.210938 53.222656 L 45.304688 53.109375 Z M 45.039062 53.386719 L 45.054688 53.355469 Z M 52.820312 55.238281 L 52.738281 55.097656 L 52.820312 55.238281 M 52.746094 54.734375 L 52.757812 54.695312 Z M 52.671875 54.59375 C 52.675781 54.351562 52.902344 54.765625 52.671875 54.59375 M 52.671875 54.597656 L 52.597656 54.667969 Z M 52.25 53.980469 L 52.289062 53.988281 Z M 48.996094 53.40625 C 48.039062 54.964844 52.15625 53.386719 48.996094 53.40625 Z M 46.335938 52.285156 C 44.652344 52.519531 51.175781 54.203125 47.277344 52.445312 L 46.746094 52.285156 Z M 47.804688 53.207031 L 47.582031 53.207031 Z M 33.53125 40.246094 C 32.160156 40.539062 32.769531 41.046875 33.613281 40.359375 Z M 51.339844 35.535156 C 50.625 35.421875 49.296875 36.390625 50.75 35.828125 Z M 51.398438 35.8125 L 51.277344 35.84375 Z M 46.082031 35.433594 C 44.046875 36.382812 47.210938 36.296875 46.894531 37.105469 C 48.933594 37.625 44.074219 36.574219 42.929688 36.6875 C 39.761719 36.980469 36.191406 35.453125 33.539062 37.890625 C 32.792969 38.546875 34.285156 38.308594 32.328125 38.902344 C 30.0625 39.984375 33.679688 40.574219 30.671875 41.011719 C 27.722656 42.410156 33.742188 39.800781 34.847656 39.902344 C 39.214844 38.921875 37.773438 44.683594 36.101562 46.863281 C 36.164062 48.394531 38.875 54.722656 37.613281 50.152344 C 38.175781 49.253906 39.265625 55.519531 42.101562 54.960938 C 44.058594 55.175781 47.894531 59.8125 45.53125 56.164062 C 46.3125 54.484375 42.917969 54.992188 44.757812 52.96875 C 41.582031 55.882812 40.605469 50.207031 44.191406 50.019531 C 45.839844 48.984375 46.292969 50.414062 47.195312 51.421875 C 47.746094 48.335938 50.636719 45.464844 53.726562 44.910156 C 56.707031 44.398438 50.710938 43.109375 54.660156 42.964844 C 57.246094 41.417969 54.367188 45.261719 57.035156 43.753906 C 56.4375 42.472656 56.542969 39.515625 54.628906 39.644531 C 52.363281 36.65625 50.941406 45.359375 49.410156 41.054688 C 46.269531 38.53125 52.722656 39.082031 52.746094 37.628906 C 54.269531 36.535156 54.726562 36.855469 55.207031 37.4375 C 52.710938 38.210938 54.589844 38.625 56.035156 39.3125 C 54.914062 37.683594 59.160156 38.386719 56.78125 36.574219 C 54.773438 34.757812 52.648438 35.773438 51.910156 37.449219 C 51.808594 35.84375 53.113281 34.777344 50.847656 36.429688 C 49.238281 37.472656 47.089844 37.515625 49.535156 36.261719 C 49.515625 35.542969 46.816406 35.703125 46.082031 35.433594 Z M 53.832031 35.789062 C 53.210938 36.335938 54.007812 36.117188 53.832031 35.789062 Z M 54.949219 35.851562 L 55.171875 35.925781 Z M 53.460938 36.078125 L 53.402344 36.179688 Z M 55.839844 36.128906 L 55.75 36.15625 Z M 56.421875 36.449219 C 56.222656 36.710938 56.273438 36.300781 56.421875 36.449219 Z M 56.839844 36.621094 C 56.925781 36.929688 56.238281 36.660156 56.839844 36.621094 Z M 52.835938 36.636719 L 52.761719 36.632812 Z M 56.664062 36.667969 L 56.53125 36.6875 Z M 43.109375 36.714844 L 43.035156 36.714844 Z M 53.570312 36.730469 C 53.484375 36.917969 53.355469 36.550781 53.570312 36.730469 Z M 54.164062 36.71875 L 54.027344 36.71875 Z M 42.800781 36.773438 L 42.683594 36.800781 Z M 51.558594 36.773438 L 51.484375 36.773438 Z M 50.878906 36.859375 C 50.074219 37.921875 49.964844 36.917969 50.878906 36.859375 Z M 41.917969 36.914062 C 41.421875 37.109375 42.042969 36.699219 41.917969 36.914062 Z M 56.984375 36.886719 L 56.707031 36.867188 Z M 51.695312 37.019531 C 51.429688 37.585938 51.671875 36.703125 51.695312 37.019531 Z M 54.835938 37.011719 C 54.710938 37.1875 54.773438 36.847656 54.835938 37.011719 Z M 53.609375 37.054688 L 53.554688 37.050781 Z M 55.085938 37.039062 L 55.011719 37.035156 Z M 52.304688 37.289062 L 52.234375 37.316406 Z M 49.792969 37.3125 L 49.671875 37.335938 Z M 55.167969 37.324219 L 55.03125 37.320312 Z M 47.222656 37.519531 L 47.082031 37.5 Z M 50.023438 37.558594 L 49.949219 37.558594 Z M 44.429688 37.617188 C 44.003906 38.5625 42.984375 37.796875 43.796875 37.714844 Z M 55.617188 37.613281 C 56.265625 37.84375 54.984375 37.84375 55.617188 37.613281 Z M 57.683594 37.652344 L 57.605469 37.628906 Z M 34.953125 37.722656 L 34.878906 37.71875 Z M 52.152344 37.867188 C 51.960938 38.167969 51.917969 37.386719 52.152344 37.867188 Z M 51.179688 38.003906 C 51.125 38.195312 50.898438 37.769531 51.179688 38.003906 Z M 34.101562 38.257812 L 34.027344 38.289062 Z M 54.253906 38.304688 C 54.167969 38.460938 54.101562 38.109375 54.253906 38.304688 Z M 54.753906 38.621094 L 54.660156 38.617188 Z M 44.339844 39.097656 C 45.738281 39.214844 41.546875 39.589844 44.339844 39.097656 Z M 56.007812 39.246094 L 55.9375 39.246094 Z M 35.285156 39.410156 L 35.167969 39.386719 Z M 34.953125 39.449219 L 34.878906 39.449219 Z M 34.785156 39.503906 C 34.363281 39.980469 34.699219 39.332031 34.785156 39.503906 Z M 33.488281 39.894531 L 33.371094 39.894531 Z M 33.71875 39.882812 L 33.585938 39.90625 Z M 37.808594 40.207031 L 37.773438 40.140625 Z M 37.878906 40.308594 C 37.816406 40.472656 37.753906 40.136719 37.878906 40.308594 Z M 37.675781 40.390625 C 37.859375 40.722656 37.449219 40.40625 37.675781 40.390625 Z M 32.511719 40.429688 L 32.457031 40.429688 Z M 38.019531 40.609375 L 37.835938 40.621094 Z M 37.960938 40.757812 C 37.738281 41.0625 37.785156 40.585938 37.960938 40.757812 Z M 37.695312 40.886719 L 37.617188 40.945312 Z M 37.859375 41.050781 C 37.816406 41.265625 37.765625 40.832031 37.859375 41.050781 Z M 38.125 41.015625 L 38.054688 41.015625 Z M 37.648438 41.324219 C 37.507812 41.671875 37.648438 40.964844 37.648438 41.324219 Z M 46.078125 41.800781 C 46.308594 43.25 45.242188 41.722656 46.078125 41.800781 Z M 56.140625 41.769531 L 55.960938 41.816406 Z M 37.738281 41.917969 L 37.683594 41.917969 Z M 45.976562 42.617188 L 45.773438 42.785156 Z M 38.164062 43.105469 C 38.804688 43.648438 38.0625 43.457031 38.164062 43.105469 Z M 48.117188 43.46875 C 48.355469 44.789062 44.945312 43.675781 48.117188 43.46875 Z M 38.28125 43.609375 C 38.015625 43.824219 38.117188 43.417969 38.28125 43.609375 Z M 53.710938 43.722656 C 53.550781 43.878906 53.625 43.515625 53.710938 43.722656 Z M 54.132812 44.269531 L 53.996094 44.25 Z M 48.847656 44.347656 L 48.507812 44.335938 Z M 48.105469 44.390625 C 47.023438 46.894531 45.867188 45.066406 48.105469 44.390625 Z M 48.789062 44.511719 C 49.621094 45.539062 46.972656 44.695312 48.789062 44.511719 Z M 48.882812 44.457031 L 48.792969 44.453125 Z M 50.195312 45.078125 C 49.101562 45.753906 48.992188 44.882812 50.195312 45.078125 Z M 49.269531 45.472656 C 47.730469 46.191406 47.972656 45.609375 49.269531 45.472656 Z M 48.246094 45.691406 L 48.066406 45.691406 Z M 49.371094 47.144531 L 49.300781 47.121094 Z M 49.371094 47.824219 L 49.308594 47.796875 Z M 44.628906 49.832031 L 44.550781 49.832031 Z M 45.082031 56.359375 C 44.785156 56.667969 44.890625 55.757812 45.082031 56.359375 Z M 48.507812 34.636719 C 44.484375 35.34375 53.324219 35.445312 48.925781 34.726562 C 49.347656 34.597656 48.539062 34.671875 48.507812 34.636719 Z M 48.421875 35.007812 C 48.757812 35.296875 47.265625 34.757812 48.421875 35.007812 Z M 48.566406 34.925781 C 48.3125 35.121094 48.417969 34.742188 48.566406 34.925781 Z M 48.527344 35.285156 L 48.394531 35.28125 Z M 50.207031 34.335938 C 48.820312 34.855469 51.34375 34.410156 50.207031 34.335938 Z M 51.882812 34.15625 C 50.941406 35.007812 53.65625 34.117188 51.882812 34.15625 Z M 65.503906 33.242188 C 61.832031 33.929688 56.917969 32.53125 54.082031 34.246094 C 56.414062 35.300781 47.816406 34.792969 52.675781 35.261719 C 53.128906 35.320312 56.976562 35.398438 53.949219 34.972656 C 55.53125 35.464844 62.589844 32.664062 58.34375 34.394531 C 56.917969 34.660156 61.832031 35.722656 60.132812 36.753906 C 58.453125 38.121094 60.9375 41.414062 62.34375 38.296875 C 65.613281 37.789062 68.222656 35.097656 69.425781 33.613281 C 68.09375 33.558594 66.882812 33.007812 65.503906 33.242188 Z M 63.925781 33.539062 C 63.71875 33.734375 63.914062 33.316406 63.925781 33.539062 Z M 67.792969 33.558594 C 67.59375 33.816406 67.644531 33.40625 67.792969 33.558594 Z M 55.648438 33.621094 L 55.574219 33.621094 Z M 55.847656 33.910156 C 55.625 34.3125 55.332031 33.671875 55.847656 33.910156 Z M 56.484375 33.878906 C 56.480469 34.1875 56.1875 33.761719 56.484375 33.878906 Z M 55.820312 34.148438 C 55.667969 34.285156 55.738281 33.914062 55.820312 34.148438 Z M 55.738281 34.214844 L 55.660156 34.242188 Z M 54.976562 34.382812 L 54.886719 34.433594 Z M 58.886719 34.628906 L 58.789062 34.628906 Z M 58.285156 34.671875 L 58.183594 34.667969 Z M 51.660156 34.929688 L 51.589844 34.902344 Z M 51.027344 34.988281 L 50.953125 34.988281 Z M 66.929688 35.6875 L 66.875 35.6875 Z M 66.84375 35.808594 C 66.960938 36.386719 66.367188 35.582031 66.84375 35.808594 Z M 67.203125 35.796875 L 67.085938 35.792969 Z M 67.21875 35.871094 L 67.148438 35.871094 Z M 59.65625 38.410156 L 59.59375 38.375 Z M 43.898438 60.53125 L 43.964844 60.4375 Z M 43.625 60.664062 L 43.644531 60.636719 Z M 43.65625 60.46875 L 43.644531 60.375 Z M 43.609375 60.109375 L 43.59375 60.082031 Z M 43.570312 60.332031 L 43.519531 60.257812 Z M 43.269531 60.199219 C 43.296875 60.703125 43.765625 60.457031 43.269531 60.199219 M 43.300781 60.371094 L 43.304688 60.292969 Z M 55.597656 78.078125 C 54.972656 78.738281 57.296875 77.902344 55.597656 78.078125 Z M 49.101562 56.035156 C 46.191406 56.796875 47.777344 59 46.246094 60.945312 C 46.554688 65.03125 51.609375 67.574219 50.132812 72.386719 C 51.003906 75.085938 50.175781 76.070312 52.085938 78.496094 C 53.113281 79.976562 56.003906 79.476562 53.589844 78.183594 C 52.792969 75.75 53.152344 74.378906 54.820312 72.925781 C 54.296875 72.351562 56.996094 71.078125 56.75 69.386719 C 60.160156 67.679688 61.75 60.621094 56.347656 60.664062 C 54.816406 58.007812 51.847656 56.730469 49.101562 56.035156 Z M 49.269531 56.984375 C 48.886719 57.632812 49.199219 56.109375 49.269531 56.984375 Z M 50.019531 65.796875 C 50.308594 66.222656 49.542969 65.601562 50.019531 65.796875 Z M 57.789062 68.398438 L 57.734375 68.398438 Z M 56.289062 71.015625 L 56.28125 70.945312 Z M 53.390625 75.1875 L 53.25 75.191406 Z M 51.214844 75.851562 C 51.078125 76.027344 51.222656 75.648438 51.214844 75.851562 Z M 51.136719 75.996094 C 51.191406 76.328125 50.964844 75.6875 51.136719 75.996094 Z M 51.320312 76.128906 L 51.199219 76.152344 Z M 53.128906 78.683594 C 53.910156 79 52.828125 78.898438 53.128906 78.683594 Z M 52.867188 78.679688 L 52.773438 78.710938 Z M 71.753906 46.894531 L 71.78125 46.875 Z M 64.21875 47.480469 L 64.183594 47.453125 Z M 64.132812 47.214844 C 63.792969 47.085938 64.472656 47.152344 64.132812 47.214844 Z M 63.699219 46.898438 L 63.664062 46.839844 Z M 63.503906 46.929688 L 63.386719 46.867188 Z M 63.480469 46.769531 L 63.476562 46.738281 Z M 63.371094 46.984375 C 63.085938 46.921875 63.585938 46.972656 63.371094 46.984375 M 63.269531 46.941406 L 63.238281 46.898438 Z M 62.585938 46.652344 L 62.601562 46.605469 Z M 78.03125 47.933594 C 78.351562 48.632812 79.460938 47.765625 78.03125 47.933594 Z M 73.925781 45.421875 C 73.136719 46.671875 74.386719 47.511719 73.925781 45.421875 Z M 69.496094 41.265625 C 66.78125 43.40625 71.941406 41.839844 69.496094 41.265625 Z M 70.8125 40 C 69.316406 40.398438 70.578125 42.675781 70.535156 42.941406 C 72.835938 42.78125 70.882812 41.078125 70.8125 40 Z M 70.046875 40.550781 L 69.988281 40.546875 Z M 69.953125 39.011719 C 69.832031 39.617188 70.410156 38.96875 69.953125 39.011719 Z M 66.492188 37.761719 C 65.59375 39.828125 70.660156 37.175781 66.980469 37.929688 L 66.71875 37.898438 Z M 77.460938 36.375 C 75.722656 36.59375 72.828125 38.449219 73.246094 40.003906 C 74.867188 40.25 74.777344 41.066406 73.613281 40.867188 C 73.433594 42.910156 69.59375 43.070312 70.246094 44.835938 C 66.476562 45.851562 70.511719 49.671875 71.660156 46.179688 C 72.894531 43.566406 76.535156 46.90625 75.449219 47.269531 C 78.171875 46.847656 73.117188 43.597656 76.007812 45.355469 C 76.933594 46.9375 78.433594 48.542969 78.164062 46.210938 C 79.792969 46.320312 79.351562 43.140625 81.460938 44.871094 C 83.203125 44.941406 85.738281 47.410156 84.765625 44.015625 C 84.820312 41.816406 89.554688 43.183594 86.253906 41.089844 C 86.347656 39.144531 86.367188 35.273438 84.625 37.054688 C 83.304688 36.882812 77.894531 38.894531 81.144531 37.730469 C 80.304688 36.605469 78.660156 36.769531 77.460938 36.375 Z M 77.640625 36.449219 L 77.585938 36.449219 Z M 78.082031 36.425781 L 77.945312 36.445312 Z M 76.234375 36.8125 L 76.113281 36.789062 Z M 75.832031 36.894531 L 75.753906 36.914062 Z M 75.40625 37.160156 L 75.359375 37.15625 Z M 75.722656 37.121094 L 75.625 37.121094 Z M 77.515625 38.003906 C 74.804688 40.050781 80.589844 39.652344 77.152344 40.203125 C 78.535156 41.441406 72.433594 42.402344 76.023438 40.410156 C 75.917969 39.386719 76.246094 38.011719 77.515625 38.003906 Z M 74.386719 38.386719 C 74.15625 39.105469 74 38.292969 74.386719 38.386719 Z M 73.648438 38.847656 L 73.578125 38.84375 Z M 74.503906 41.351562 C 74.355469 41.542969 74.332031 41.109375 74.503906 41.351562 Z M 76.925781 41.363281 C 76.757812 41.414062 77.089844 41.179688 76.925781 41.363281 Z M 74.304688 41.429688 C 74.410156 41.753906 73.898438 41.265625 74.304688 41.429688 Z M 72.917969 42.152344 L 72.851562 42.179688 Z M 81.859375 44.082031 C 81.339844 45.253906 80.328125 43.921875 81.859375 44.082031 Z M 77.320312 47.03125 C 77.285156 47.453125 76.996094 46.730469 77.320312 47.03125 Z M 78.082031 46.9375 L 77.996094 46.953125 Z M 77.828125 47.082031 L 77.753906 47.082031 Z M 77.910156 47.226562 L 77.902344 47.15625 Z M 85.519531 34.75 C 83.1875 33.875 82.722656 38.070312 84.59375 35.578125 C 84.886719 35.460938 85.046875 34.667969 85.519531 34.75 Z M 83.453125 35.632812 L 83.382812 35.628906 Z M 75.589844 33.953125 C 72.140625 34.652344 78.085938 34.855469 77.011719 33.988281 L 76.253906 33.921875 Z M 75.945312 34.152344 C 75.769531 34.332031 75.769531 33.90625 75.945312 34.152344 Z M 75.148438 34.421875 L 75 34.386719 Z M 74.867188 34.523438 L 74.789062 34.523438 Z M 81.585938 33.773438 C 79.511719 33.835938 83.0625 34.199219 81.585938 33.773438 Z M 82.96875 33.59375 C 80.53125 34.246094 85.699219 33.882812 82.96875 33.59375 Z M 83.445312 33.800781 L 83.183594 33.863281 Z M 82.421875 33.855469 L 82.34375 33.882812 Z M 29.035156 63.59375 L 29.074219 63.546875 Z M 28.832031 63.28125 L 28.863281 63.261719 Z M 28.703125 63.453125 L 28.683594 63.425781 Z M 28.660156 63.285156 C 28.824219 63.265625 28.511719 63.167969 28.660156 63.285156 M 120.660156 58.386719 L 120.660156 58.386719 M 119.175781 57.867188 L 119.148438 57.804688 Z M 115.0625 55.003906 L 115.066406 54.945312 Z M 115.039062 55.066406 L 115.027344 55.003906 Z M 114.878906 53.984375 L 114.886719 53.957031 Z M 114.84375 55.640625 L 114.894531 55.515625 Z M 114.816406 53.753906 L 114.808594 53.722656 Z M 126.929688 66.597656 L 126.898438 66.640625 Z M 126.367188 67.589844 L 126.359375 67.558594 Z M 126.320312 67.523438 C 126.480469 67.4375 126.121094 67.460938 126.320312 67.523438 M 126.652344 64.800781 L 126.648438 64.765625 Z M 128.03125 65.042969 L 127.855469 64.984375 Z M 127.71875 64.855469 C 127.546875 64.972656 128.085938 64.863281 127.71875 64.855469 M 128.21875 65.152344 L 128.257812 65.113281 Z M 126.019531 65.132812 L 125.988281 65.125 Z M 121.765625 75.441406 L 121.796875 75.414062 Z M 121.730469 75.335938 C 121.984375 75.402344 121.75 75.082031 121.730469 75.335938 M 121.410156 72.613281 L 121.386719 72.710938 Z M 121.207031 72.851562 L 121.15625 72.875 Z M 120.089844 74.402344 C 122.742188 74.050781 120.886719 70.683594 120.355469 73.84375 L 120.246094 74.265625 L 120.089844 74.402344 M 119.996094 74.203125 L 119.914062 74.273438 Z M 116.589844 76.011719 C 118.3125 76.679688 121.558594 72.757812 118.105469 75.136719 C 117.628906 75.476562 117.066406 75.683594 116.589844 76.011719 M 116.761719 76.3125 C 116.246094 76.308594 116.730469 76.554688 116.761719 76.3125 M 115.285156 77.546875 L 115.128906 77.636719 L 115.285156 77.546875 M 115.152344 77.65625 L 115.125 77.660156 Z M 112.0625 74.496094 C 111.203125 76.578125 114.242188 73.933594 112.0625 74.496094 Z M 114.496094 64.105469 C 114.652344 66.582031 112.101562 66.46875 112.417969 64.398438 C 109.6875 64.488281 108.003906 66.964844 105.207031 68.324219 C 104.703125 70.496094 104.226562 73.988281 107.496094 71.863281 C 110.964844 69.414062 111.902344 76.699219 114.941406 72.53125 C 118.652344 69.695312 115.300781 67.246094 114.496094 64.105469 Z M 105.003906 69.503906 C 104.964844 69.71875 104.914062 69.28125 105.003906 69.503906 Z M 112.640625 73.601562 C 112.457031 73.808594 112.699219 73.398438 112.640625 73.601562 Z M 125.523438 66.167969 L 125.546875 66.132812 Z M 125.078125 66.621094 L 125.101562 66.59375 Z M 124.953125 66.441406 L 124.933594 66.382812 Z M 125.304688 65.769531 C 124.367188 65.859375 125.273438 66.191406 125.304688 65.769531 M 124.8125 66.316406 L 124.84375 66.292969 Z M 124.480469 66.003906 L 124.539062 65.953125 Z M 124.492188 66.800781 L 124.570312 66.757812 L 124.492188 66.800781 M 124.410156 66.605469 L 124.414062 66.574219 Z M 124.386719 66.117188 L 124.414062 66.089844 Z M 124.402344 66.453125 C 125.234375 66.789062 124.375 65.707031 124.40625 66.453125 M 111.515625 60.519531 C 112.207031 61.964844 114.070312 64.191406 115.628906 63.3125 C 119.136719 65.152344 113.589844 59.398438 112.320312 61.144531 C 112.292969 60.78125 112.015625 60.214844 111.515625 60.519531 Z M 121.921875 67.175781 L 121.949219 67.144531 Z M 121.855469 66.972656 L 121.855469 66.855469 Z M 121.863281 66.746094 C 121.980469 66.445312 121.640625 66.734375 121.863281 66.746094 M 121.789062 65.503906 L 121.804688 65.355469 Z M 121.769531 65.710938 L 121.789062 65.53125 Z M 121.738281 65.886719 L 121.742188 65.859375 Z M 121.789062 66.003906 L 121.707031 65.929688 Z M 121.726562 65.835938 C 121.945312 65.777344 121.511719 65.722656 121.726562 65.835938 M 121.695312 65.535156 L 121.730469 65.464844 L 121.695312 65.535156 M 121.675781 65.003906 L 121.691406 64.921875 Z M 121.65625 66.253906 L 121.683594 66.238281 Z M 121.667969 65.132812 L 121.660156 65.085938 Z M 121.6875 66.339844 C 121.925781 66.15625 121.476562 66.300781 121.6875 66.339844 M 121.480469 65.628906 L 121.480469 65.628906 M 121.515625 65.917969 C 121.835938 65.792969 121.222656 65.546875 121.515625 65.917969 M 121.441406 64.742188 L 121.453125 64.714844 Z M 121.496094 65.410156 C 121.371094 65.085938 121.238281 65.949219 121.496094 65.410156 M 121.523438 64.117188 L 121.519531 64.085938 Z M 121.355469 63.945312 L 121.410156 63.882812 L 121.355469 63.945312 M 120.085938 63.574219 L 120.046875 63.445312 L 120.085938 63.574219 M 120.132812 63.90625 C 120.648438 64.003906 119.644531 63.527344 120.132812 63.90625 M 119.902344 63.351562 C 120.359375 63.929688 119.59375 62.421875 119.902344 63.351562 M 119.710938 63.367188 L 119.765625 63.34375 Z M 119.71875 63.347656 L 119.6875 63.300781 Z M 119.542969 64.1875 L 119.683594 64.273438 L 119.542969 64.1875 M 119.5625 63.144531 L 119.554688 63.085938 Z M 119.617188 63.582031 C 120.414062 63.8125 119.183594 63.09375 119.617188 63.582031 M 119.367188 63.339844 L 119.390625 63.304688 Z M 119.402344 62.996094 C 120.109375 63.507812 118.761719 62.316406 119.402344 62.996094 M 119.242188 62.839844 L 119.179688 62.820312 Z M 119.210938 62.804688 L 119.179688 62.789062 Z M 119.101562 63.246094 L 119.097656 63.214844 Z M 119.042969 63.222656 L 119.074219 63.136719 Z M 119 62.777344 L 119 62.746094 Z M 118.960938 62.769531 L 118.933594 62.753906 Z M 118.929688 63.230469 L 118.902344 63.21875 Z M 118.988281 63.152344 C 119.054688 62.835938 118.636719 63.03125 118.988281 63.152344 M 118.859375 63.207031 L 118.867188 63.101562 Z M 118.808594 63.007812 L 118.796875 62.90625 Z M 118.746094 62.652344 C 119.328125 63.082031 118.34375 62.089844 118.746094 62.652344 Z M 118.640625 63.027344 L 118.628906 62.9375 Z M 118.679688 62.9375 L 118.667969 62.816406 L 118.679688 62.9375 M 115.972656 60.902344 L 115.976562 60.886719 Z M 115.722656 60.96875 C 115.914062 60.679688 116.089844 61.027344 115.722656 60.96875 M 118.519531 62.605469 L 118.519531 62.550781 Z M 118.417969 62.65625 L 118.417969 62.65625 M 118.210938 62.34375 C 118.828125 63.023438 117.980469 61.605469 118.210938 62.34375 M 118.117188 62.078125 L 118.117188 61.933594 Z M 118.015625 61.78125 L 118.011719 61.75 Z M 117.554688 61.3125 L 117.539062 61.253906 Z M 117.464844 63.382812 L 117.394531 63.308594 Z M 117.382812 61.234375 L 117.367188 61.207031 Z M 117.351562 61.183594 L 117.351562 61.148438 Z M 117.554688 61.527344 C 116.160156 59.699219 114.765625 58.515625 117.554688 61.527344 M 116.992188 61.226562 L 117.050781 61.214844 Z M 116.964844 63.242188 L 116.972656 63.101562 L 116.964844 63.242188 M 116.761719 61.066406 C 116.839844 61.28125 117.003906 60.859375 116.761719 61.0625 M 116.6875 60.753906 L 116.632812 60.679688 Z M 116.585938 61.828125 L 116.558594 61.820312 Z M 116.355469 62.25 C 118.171875 61.917969 117.148438 61.574219 116.355469 62.25 M 116.136719 62.085938 L 116.128906 62.054688 Z M 116.082031 61.011719 L 116.09375 60.980469 Z M 116.089844 62.21875 L 116.058594 62.097656 Z M 115.835938 62.078125 L 115.824219 61.992188 Z M 115.492188 61.839844 L 115.511719 61.761719 Z M 119.042969 66.863281 L 119.066406 66.800781 Z M 121.257812 67.660156 C 121.472656 67.621094 121.105469 67.464844 121.257812 67.660156 M 121.109375 67.496094 C 121.226562 67.136719 120.902344 67.433594 121.109375 67.496094 M 121.019531 68.007812 L 121.039062 67.980469 Z M 120.890625 67.335938 L 120.941406 67.246094 Z M 120.25 67.328125 C 121.183594 69.199219 120.699219 66.871094 120.25 67.328125 M 107.617188 53.195312 L 107.632812 53.148438 Z M 111.96875 57.667969 L 111.988281 57.550781 Z M 119.410156 42.4375 L 119.46875 42.472656 Z M 119.355469 42.519531 L 119.316406 42.410156 L 119.355469 42.519531 M 120.625 42.207031 L 120.605469 42.160156 L 120.625 42.207031 M 120.277344 42.300781 L 120.253906 42.261719 L 120.277344 42.300781 M 120.109375 42.375 C 120.515625 42.3125 119.609375 42.355469 120.109375 42.375 Z M 119.792969 42.339844 L 119.734375 42.351562 L 119.792969 42.339844 M 119.355469 42.519531 C 119.628906 42.449219 119.1875 42.359375 119.355469 42.519531 M 119.152344 42.496094 L 119.234375 42.433594 L 119.152344 42.496094 M 119.023438 40.71875 L 118.964844 40.695312 Z M 119.101562 42.515625 L 118.984375 42.402344 L 119.101562 42.515625 M 118.375 42.425781 L 118.316406 42.375 Z M 118.253906 42.507812 L 118.441406 42.582031 L 118.253906 42.507812 M 118.074219 42.417969 L 118.042969 42.40625 Z M 118.078125 42.460938 L 118.019531 42.441406 Z M 117.777344 42.441406 L 117.789062 42.371094 L 117.777344 42.441406 M 116.65625 42.265625 L 116.566406 42.25 Z M 116.339844 42.136719 C 116.640625 42.0625 115.914062 42.058594 116.339844 42.136719 M 109.296875 50.378906 L 109.214844 50.503906 L 109.296875 50.378906 M 109.183594 50.492188 L 109.210938 50.515625 Z M 109.132812 50.589844 L 109.171875 50.652344 Z M 109.070312 50.757812 L 109.070312 50.757812 M 108.929688 51.21875 L 109.011719 50.957031 L 108.929688 51.21875 M 108.628906 51.113281 L 108.648438 51.140625 Z M 108.320312 51.632812 L 108.371094 51.675781 Z M 107.992188 51.785156 L 108.042969 51.78125 L 107.992188 51.785156 M 107.90625 51.796875 L 107.921875 51.84375 L 107.90625 51.796875 M 115.28125 38.328125 L 115.378906 38.316406 Z M 106.875 52.097656 C 107.515625 53.628906 107.199219 50.378906 106.875 52.097656 M 103.699219 53.546875 C 104.226562 54.710938 104.542969 52.488281 103.699219 53.546875 M 98.984375 55.296875 L 98.902344 55 L 99.011719 55.359375 M 98.800781 54.59375 L 98.800781 54.667969 M 109.863281 63.230469 C 108.414062 63.402344 108.535156 64.394531 109.863281 63.230469 Z M 110.488281 61.316406 C 109.449219 61.890625 112.867188 61.390625 110.488281 61.316406 Z M 109.246094 59.878906 C 106.667969 59.53125 107.652344 63.441406 108.71875 61.65625 C 108.4375 60.667969 107.890625 60.269531 109.246094 59.878906 Z M 110.226562 59.660156 C 109.933594 61.9375 110.949219 59.402344 110.226562 59.660156 Z M 93.308594 58.988281 L 93.472656 59.464844 Z M 93.511719 59.515625 L 93.433594 59.515625 Z M 100.242188 58.390625 C 101.101562 62.390625 107.054688 64.386719 108.820312 63.195312 C 105.761719 63.355469 103.242188 62.628906 102.820312 60.089844 C 101.875 59.644531 101.324219 58.585938 100.242188 58.390625 Z M 107.171875 63.316406 L 107.054688 63.292969 Z M 106.863281 57.78125 C 105.253906 59.035156 102.996094 61.484375 106.636719 61.699219 C 107.164062 60.441406 108.035156 58.546875 106.863281 57.78125 Z M 95.457031 56.953125 C 94.742188 58.945312 97.332031 58.246094 95.457031 56.953125 Z M 107.472656 56.503906 C 106.023438 58.121094 106.421875 58.6875 107.472656 56.503906 Z M 108.21875 56.21875 C 108.234375 57.6875 109.84375 56.707031 108.21875 56.21875 Z M 108.851562 56.589844 L 108.84375 56.519531 Z M 108.824219 56.882812 L 108.753906 56.78125 Z M 108.890625 56.871094 L 108.882812 56.800781 Z M 108.730469 56.953125 L 108.722656 56.878906 Z M 108.941406 56.023438 C 109.449219 57.007812 107.917969 58.675781 109.6875 57.832031 C 109.738281 57.453125 109.332031 55.890625 108.941406 56.023438 Z M 107.546875 53.898438 C 107.320312 56.539062 110.160156 56.890625 107.546875 53.898438 Z M 81.070312 47.964844 C 79.488281 47.964844 81.472656 48.550781 81.070312 47.964844 Z M 110.832031 45.953125 C 111.835938 48.007812 108.003906 47.898438 109.53125 49.3125 C 110.460938 48.082031 113.496094 48.230469 110.832031 45.953125 Z M 111.03125 46.070312 L 110.914062 46.09375 Z M 110.296875 48.324219 C 110.179688 48.636719 109.964844 48.035156 110.296875 48.324219 Z M 110.003906 48.445312 C 109.648438 48.738281 109.964844 48.214844 110.003906 48.445312 Z M 109.652344 48.515625 L 109.644531 48.441406 Z M 109.769531 48.535156 C 109.339844 49.101562 109.410156 48.226562 109.769531 48.535156 Z M 110.230469 44.59375 C 110.101562 47.132812 113.617188 44.722656 110.230469 44.59375 Z M 101.308594 35.484375 C 102.1875 36.292969 102.695312 35.316406 101.308594 35.484375 Z M 92.484375 34.597656 C 90.597656 35.113281 88.964844 36.109375 87.933594 36.191406 C 89.664062 40.023438 86.851562 33.636719 86.734375 37.003906 C 84.304688 38.675781 87.894531 42.25 86.800781 42.636719 C 82.546875 41.519531 88.847656 50.203125 84.980469 46.261719 C 82.625 44.027344 82.152344 46.691406 79.140625 46.070312 C 77.292969 48.5625 83.347656 46.449219 81.070312 49.636719 C 82.625 51.277344 83.722656 58.21875 87.277344 54.589844 C 90.03125 53.9375 88.558594 50.355469 86.519531 51.738281 C 83.464844 48.0625 89.179688 52.632812 91.023438 51.640625 C 93.910156 51.980469 92.777344 57.65625 95.492188 56.652344 C 95.285156 53.753906 98.816406 51.015625 100.125 54.660156 C 101.308594 55.59375 101.867188 60.660156 102.898438 59.449219 C 101.652344 57.945312 100.707031 54.519531 103.414062 57.054688 C 105.863281 55.621094 101.308594 52.707031 105.167969 52.617188 C 109.261719 51.367188 105.058594 47.40625 105.492188 46.484375 C 106.628906 45.960938 109.171875 50.113281 107.832031 46.710938 C 107.535156 45.28125 109.40625 44.816406 109.195312 43.023438 C 111.652344 46.050781 109.128906 40.980469 107.550781 41.761719 C 104.511719 40.636719 109.640625 39.484375 110.851562 39.417969 C 110.746094 39.40625 112.082031 44.152344 113.113281 41.683594 C 112.449219 40.207031 111.195312 39.632812 113.722656 39.4375 C 114.089844 38.085938 113.984375 37.585938 115.777344 38.382812 C 112.761719 35.914062 108.4375 37.359375 104.886719 36.238281 C 101.492188 36.3125 98.304688 35.558594 94.996094 35.621094 C 95.460938 34.285156 93.523438 35.046875 92.484375 34.597656 Z M 95.601562 35.566406 L 95.40625 35.570312 Z M 89.277344 37.097656 C 89.375 37.441406 88.457031 36.519531 89.277344 37.097656 Z M 114.347656 37.65625 L 114.285156 37.628906 Z M 113.585938 38.339844 C 113.34375 38.550781 113.480469 38.125 113.585938 38.339844 Z M 99.609375 41.261719 C 100.09375 42.257812 98.320312 42.761719 99.609375 41.261719 Z M 91.882812 44.164062 C 91.707031 44.898438 91.332031 44.1875 91.882812 44.164062 Z M 92.117188 44.152344 L 92.019531 44.152344 Z M 92.667969 44.207031 L 92.535156 44.171875 Z M 92.910156 44.203125 L 92.75 44.199219 Z M 88.074219 44.269531 L 88.003906 44.269531 Z M 87.765625 44.449219 C 88.539062 44.792969 87.214844 45.578125 87.765625 44.449219 Z M 87.625 44.648438 C 87.667969 45.0625 87.371094 44.339844 87.625 44.648438 Z M 87.503906 44.960938 L 87.410156 44.699219 Z M 86.402344 45.863281 C 87.253906 46.621094 85.582031 45.8125 86.402344 45.863281 Z M 81.417969 50.453125 C 81.324219 50.675781 81.375 50.238281 81.417969 50.453125 Z M 96.886719 53.488281 L 96.832031 53.492188 Z M 83.84375 54.605469 L 83.773438 54.609375 Z M 102.695312 56.539062 L 102.652344 56.589844 Z M 103.539062 56.90625 C 103.636719 57.203125 103.28125 56.574219 103.539062 56.90625 Z M 89.875 33.726562 C 89.570312 34.828125 92.5 33.894531 90.445312 33.792969 Z M 88.019531 61.851562 L 87.976562 61.796875 Z M 85.214844 63.421875 L 85.183594 63.421875 Z M 85.171875 63.460938 L 85.230469 63.433594 Z M 85.835938 64.652344 L 85.84375 64.621094 Z M 85.75 64.820312 L 85.730469 64.753906 Z M 87.402344 55.960938 C 88.144531 55.925781 87 55.691406 87.402344 55.960938 M 86.976562 56.015625 L 86.921875 56 Z M 64.285156 54.488281 L 64.292969 54.398438 Z M 64.3125 54.695312 L 64.285156 54.605469 Z M 64.082031 55.070312 L 64.03125 54.925781 Z M 63.863281 54.523438 C 64.152344 54.550781 63.71875 54.359375 63.863281 54.523438 M 63.820312 55.101562 L 63.835938 55.027344 Z M 63.582031 54.375 L 63.664062 54.296875 Z M 67.210938 50.265625 L 67.285156 50.175781 L 67.210938 50.265625 M 67.035156 50.539062 C 66.960938 50.050781 67.417969 50.449219 67.035156 50.539062 M 66.660156 50.648438 C 66.421875 50.398438 66.910156 50.554688 66.660156 50.648438 Z M 66.34375 50.5625 C 66.046875 50.222656 67.039062 50.378906 66.34375 50.5625 Z M 66.179688 50.554688 L 66.195312 50.492188 Z M 66.03125 50.375 L 65.996094 50.292969 L 66.03125 50.375 M 65.953125 50.679688 L 65.984375 50.621094 Z M 66.382812 48.957031 C 66.132812 48.929688 66.539062 48.828125 66.382812 48.957031 M 84.609375 64.464844 L 84.523438 64.394531 Z M 84.410156 64.46875 L 84.34375 64.421875 Z M 84.296875 64.3125 L 84.257812 64.121094 L 84.296875 64.3125 M 87.816406 67.433594 C 87.433594 67.320312 87.9375 67.769531 87.816406 67.433594 Z M 84.789062 64.675781 L 84.789062 64.578125 Z M 86 64.585938 C 83.847656 65.292969 83.601562 71.429688 85.761719 67.664062 C 86.003906 66.800781 86.847656 65.128906 86 64.585938 Z M 73.8125 47.417969 C 69.671875 47.109375 66.152344 50.332031 65.996094 54.503906 C 65.296875 58.710938 70.449219 58.832031 73.191406 58.640625 C 75.324219 61.699219 74.78125 65.570312 75.320312 69.121094 C 75.574219 72.832031 79.328125 73.285156 80.902344 69.945312 C 82.042969 67.09375 83.84375 64.890625 83.371094 61.371094 C 84.90625 60.109375 88.683594 55.671875 84.417969 56.449219 C 81.964844 54.238281 81.292969 46.988281 76.789062 49.792969 C 74.964844 49.21875 74.515625 48.394531 73.8125 47.417969 Z M 81.480469 60.390625 C 81.363281 62.371094 79.886719 60.027344 81.480469 60.390625 Z M 80.089844 61.933594 C 80.972656 63.683594 80.023438 63.3125 80.089844 61.933594 Z M 81.539062 63.777344 C 82.011719 65.074219 81.417969 65.945312 81.539062 63.777344 Z "/>
</g>
</g>
<path style="fill:#fff;fill-opacity:.149" d="M 5.332031 0 C 2.378906 0 0 2.378906 0 5.332031 L 0 122.667969 C 0 125.621094 2.378906 128 5.332031 128 L 44.75 128 L 79 0 Z "/>
</svg>
