<svg width="128" xmlns="http://www.w3.org/2000/svg" height="128" viewBox="0 0 128 128" xmlns:xlink="http://www.w3.org/1999/xlink">
<defs>
<linearGradient gradientTransform="matrix(2.66667 0 0 -2.66667 0 2806.2992)" id="linear0" y1="1053.158" y2="1004.847" gradientUnits="userSpaceOnUse" x2="0">
<stop offset="0" style="stop-color:#2f7a8e"/>
<stop offset=".3" style="stop-color:#286776"/>
<stop offset="1" style="stop-color:#13333b"/>
</linearGradient>
</defs>
<path style="fill:url(#linear0)" d="M 5.1875 128 L 122.8125 128 C 125.679688 128 128 125.675781 128 122.8125 L 128 5.1875 C 128 2.320312 125.679688 0 122.8125 0 L 5.1875 0 C 2.320312 0 0 2.320312 0 5.1875 L 0 122.8125 C 0 125.675781 2.320312 128 5.1875 128 Z "/>
<g style="fill:#fff">
<path d="M 64 22.316406 C 40.4375 22.316406 21.332031 40.980469 21.332031 64 C 21.332031 87.019531 40.4375 105.679688 64 105.679688 C 87.5625 105.679688 106.667969 87.019531 106.667969 64 C 106.667969 50.824219 100.433594 39.074219 90.667969 31.4375 L 90.667969 59.222656 L 104.109375 59.222656 L 82.390625 80.878906 L 60.222656 59.222656 L 74.109375 59.222656 L 74.109375 23.511719 C 70.871094 22.742188 67.484375 22.316406 64 22.316406 Z "/>
<path style="fill-opacity:.149" d="M 5.332031 0 C 2.378906 0 0 2.378906 0 5.332031 L 0 122.667969 C 0 125.621094 2.378906 128 5.332031 128 L 44.75 128 L 79 0 Z "/>
</g>
</svg>
