<svg width="128" xmlns="http://www.w3.org/2000/svg" height="128" viewBox="0 0 128 128" xmlns:xlink="http://www.w3.org/1999/xlink">
<defs>
<linearGradient gradientTransform="matrix(2.66667 0 0 -2.66667 0 2806.2992)" id="linear0" y1="1053.158" y2="1004.847" gradientUnits="userSpaceOnUse" x2="0">
<stop offset="0" style="stop-color:#ff0dcf"/>
<stop offset="1" style="stop-color:#7f3f9f"/>
</linearGradient>
</defs>
<path style="fill:url(#linear0)" d="M 5.1875 128 L 122.8125 128 C 125.679688 128 128 125.675781 128 122.8125 L 128 5.1875 C 128 2.320312 125.679688 0 122.8125 0 L 5.1875 0 C 2.320312 0 0 2.320312 0 5.1875 L 0 122.8125 C 0 125.675781 2.320312 128 5.1875 128 Z "/>
<g style="fill:#fff">
<path d="M 113.183594 23.613281 L 58.117188 95.964844 C 56.652344 97.890625 57.03125 100.664062 58.957031 102.128906 L 60.125 103.015625 C 62.050781 104.476562 64.828125 104.101562 66.289062 102.175781 L 121.355469 29.828125 C 122.820312 27.902344 122.445312 25.128906 120.519531 23.664062 L 119.351562 22.777344 C 118.398438 22.054688 117.238281 21.777344 116.132812 21.917969 C 115 22.0625 113.921875 22.640625 113.183594 23.613281 "/>
<path d="M 36.449219 74.929688 C 47.394531 75.699219 48.046875 76.324219 48.851562 86.8125 C 49.65625 76.324219 50.308594 75.699219 61.257812 74.929688 C 50.308594 74.160156 49.65625 73.539062 48.851562 63.050781 C 48.046875 73.539062 47.394531 74.160156 36.449219 74.929688 "/>
<path d="M 16.644531 83.46875 C 23.472656 83.949219 23.878906 84.339844 24.378906 90.878906 C 24.882812 84.339844 25.289062 83.949219 32.117188 83.46875 C 25.289062 82.988281 24.882812 82.597656 24.378906 76.054688 C 23.878906 82.597656 23.472656 82.988281 16.644531 83.46875 "/>
<path d="M 32.117188 88.273438 C 38.945312 88.753906 39.351562 89.144531 39.851562 95.683594 C 40.355469 89.144531 40.761719 88.753906 47.585938 88.273438 C 40.761719 87.792969 40.355469 87.40625 39.851562 80.863281 C 39.351562 87.40625 38.945312 87.792969 32.117188 88.273438 "/>
<path d="M 43.46875 102.792969 C 50.308594 103.277344 50.714844 103.664062 51.21875 110.214844 C 51.71875 103.664062 52.125 103.277344 58.964844 102.792969 C 52.125 102.3125 51.71875 101.921875 51.21875 95.371094 C 50.714844 101.921875 50.308594 102.3125 43.46875 102.792969 "/>
<path d="M 20.386719 99.234375 C 28.355469 99.792969 28.828125 100.246094 29.410156 107.878906 C 29.996094 100.246094 30.472656 99.792969 38.433594 99.234375 C 30.472656 98.671875 29.996094 98.21875 29.410156 90.589844 C 28.828125 98.21875 28.355469 98.671875 20.386719 99.234375 "/>
<path d="M 21.914062 48.449219 C 33.800781 49.285156 34.511719 49.964844 35.382812 61.351562 C 36.253906 49.964844 36.960938 49.285156 48.851562 48.449219 C 36.960938 47.613281 36.253906 46.9375 35.382812 35.546875 C 34.511719 46.9375 33.800781 47.613281 21.914062 48.449219 "/>
<path d="M 2.589844 68.355469 C 14.996094 69.230469 15.734375 69.9375 16.644531 81.820312 C 17.554688 69.9375 18.292969 69.230469 30.699219 68.355469 C 18.292969 67.484375 17.554688 66.777344 16.644531 54.890625 C 15.734375 66.777344 14.996094 67.484375 2.589844 68.355469 "/>
<path style="fill-opacity:.149" d="M 5.332031 0 C 2.378906 0 0 2.378906 0 5.332031 L 0 122.667969 C 0 125.621094 2.378906 128 5.332031 128 L 44.75 128 L 79 0 Z "/>
</g>
</svg>
