<svg width="128" xmlns="http://www.w3.org/2000/svg" height="128" viewBox="0 0 128 128" xmlns:xlink="http://www.w3.org/1999/xlink">
<defs>
<linearGradient gradientTransform="matrix(2.66667 0 0 -2.66667 0 -2678.2992)" id="linear0" y1="-1003.614" x1="25.456" y2="-1052.934" gradientUnits="userSpaceOnUse" x2="24.489">
<stop offset="0" style="stop-color:#5f8936"/>
<stop offset="1" style="stop-color:#3d550a"/>
</linearGradient>
</defs>
<path style="fill:url(#linear0)" d="M 5.183594 128 L 122.816406 128 C 125.6875 128 128 125.6875 128 122.8125 L 128 5.183594 C 128 2.3125 125.6875 0 122.816406 0 L 5.183594 0 C 2.3125 0 0 2.3125 0 5.183594 L 0 122.8125 C 0 125.6875 2.3125 128 5.183594 128 Z "/>
<g style="fill:#fff">
<path style="fill-opacity:.149" d="M 5.332031 0 C 2.378906 0 0 2.378906 0 5.332031 L 0 122.667969 C 0 125.621094 2.378906 128 5.332031 128 L 44.75 128 L 79 0 Z "/>
<path d="M 24 24 L 24 50.667969 L 50.667969 50.667969 L 50.667969 24 Z M 50.667969 50.667969 L 50.667969 64 L 37.332031 64 L 37.332031 104 L 50.667969 104 L 50.667969 90.667969 L 77.332031 90.667969 L 77.332031 104 L 90.667969 104 L 90.667969 64 L 77.332031 64 L 77.332031 50.667969 Z M 77.332031 50.667969 L 104 50.667969 L 104 24 L 77.332031 24 Z "/>
</g>
</svg>
