<svg width="128" xmlns="http://www.w3.org/2000/svg" height="128" viewBox="0 0 128 128" xmlns:xlink="http://www.w3.org/1999/xlink">
<defs>
<linearGradient gradientTransform="matrix(2.66667 0 0 -2.66667 0 -2678.2992)" id="linear0" y1="-1052.237" y2="-1003.737" gradientUnits="userSpaceOnUse" x2="0">
<stop offset="0" style="stop-color:#878985"/>
<stop offset="1" style="stop-color:#9c9d97"/>
</linearGradient>
</defs>
<path style="fill:url(#linear0)" d="M 5.1875 128 L 122.8125 128 C 125.679688 128 128 125.675781 128 122.8125 L 128 5.1875 C 128 2.320312 125.679688 0 122.8125 0 L 5.1875 0 C 2.320312 0 0 2.320312 0 5.1875 L 0 122.8125 C 0 125.675781 2.320312 128 5.1875 128 Z "/>
<g style="fill:#fff">
<path style="fill-opacity:.149" d="M 0 0 L 0 128 L 44.75 128 L 79 0 Z "/>
<path d="M 70.738281 29.457031 C 71.285156 29.113281 72.246094 28.632812 72.878906 28.390625 C 75.8125 27.257812 78.519531 27.300781 82.214844 28.527344 L 83.8125 29.050781 L 84.976562 28.699219 C 87.203125 28.03125 90.613281 28.050781 93.28125 28.75 C 95.609375 29.359375 97.0625 30.066406 99.191406 31.699219 C 100.867188 32.972656 100.996094 33.097656 102.117188 34.417969 C 105.355469 38.242188 106.8125 42.335938 106.65625 47.164062 C 106.601562 48.800781 106.523438 49.273438 106.070312 50.796875 C 105.167969 53.816406 104.988281 54.824219 105.121094 56.183594 C 105.183594 56.847656 105.296875 57.589844 105.367188 57.824219 C 105.5625 58.425781 105.242188 60.761719 104.773438 62.285156 C 104.3125 63.792969 103.433594 65.347656 102.128906 66.964844 C 100.816406 68.589844 100.167969 69.085938 98.226562 69.960938 C 95.761719 71.074219 93.554688 71.453125 91.046875 71.191406 C 90.046875 71.082031 89.472656 70.929688 88.171875 70.410156 C 86.253906 69.644531 85.910156 69.480469 85.386719 69.085938 C 85.171875 68.921875 84.554688 68.460938 84.019531 68.058594 C 83.484375 67.65625 82.960938 67.234375 82.859375 67.113281 L 82.675781 66.902344 L 80.796875 68.488281 C 79.761719 69.363281 78.847656 70.082031 78.765625 70.085938 C 78.320312 70.121094 77.800781 69.695312 76.867188 68.578125 C 76.351562 67.960938 75.871094 67.386719 75.800781 67.304688 C 75.699219 67.191406 75.476562 67.273438 74.789062 67.699219 C 73.839844 68.289062 73.066406 69.003906 71.679688 70.59375 C 70.691406 71.722656 69.984375 72.210938 68.847656 72.550781 C 68.164062 72.757812 66.515625 72.65625 66.125 72.386719 C 65.917969 72.265625 65.914062 72.265625 65.75 72.746094 C 65.652344 73.023438 65.484375 73.636719 65.378906 74.125 C 65.269531 74.609375 65.140625 75.039062 65.089844 75.085938 C 65.039062 75.128906 64.96875 75.273438 64.9375 75.40625 C 64.886719 75.617188 64.617188 75.679688 63.113281 75.859375 C 62.144531 75.976562 61.25 76.050781 61.121094 76.035156 C 60.917969 76 60.890625 76.035156 60.894531 76.269531 C 60.894531 76.414062 60.855469 76.558594 60.804688 76.601562 C 60.757812 76.636719 60.628906 77.070312 60.523438 77.558594 C 60.421875 78.042969 60.253906 78.640625 60.164062 78.882812 L 59.992188 79.328125 L 59.339844 79.414062 C 58.984375 79.464844 58.109375 79.496094 57.402344 79.496094 C 56.148438 79.496094 55.484375 79.59375 54.90625 79.875 C 54.671875 79.992188 54.609375 80.171875 54.507812 80.761719 C 54.445312 81.167969 54.308594 81.785156 54.203125 82.125 L 54.015625 82.75 L 53.558594 82.84375 C 53.304688 82.894531 52.164062 82.914062 51.023438 82.890625 C 49.878906 82.859375 48.914062 82.890625 48.878906 82.980469 C 48.765625 83.222656 48.171875 86.011719 48.203125 86.167969 C 48.257812 86.375 47.078125 86.414062 45.617188 86.257812 C 44.367188 86.125 43.503906 86.257812 43.273438 86.597656 C 43.195312 86.714844 43.089844 87.167969 43.039062 87.601562 C 42.816406 89.5 42.445312 90.777344 41.945312 91.355469 C 41.664062 91.679688 41.609375 91.691406 41.257812 91.542969 C 40.554688 91.25 39.820312 91.253906 39.457031 91.542969 C 38.976562 91.953125 38.621094 92.695312 38.492188 93.578125 C 38.25 95.191406 37.96875 96.019531 37.476562 96.574219 C 37.089844 97.003906 37.054688 97.015625 36.46875 96.949219 C 36.132812 96.914062 35.828125 96.90625 35.789062 96.949219 C 35.75 96.984375 35.5625 96.949219 35.378906 96.886719 C 34.929688 96.730469 34.820312 96.839844 34.636719 97.679688 C 34.550781 98.066406 34.441406 98.417969 34.390625 98.460938 C 34.339844 98.503906 34.222656 98.746094 34.136719 99 C 34.046875 99.253906 33.859375 99.683594 33.714844 99.945312 L 33.453125 100.425781 L 27.929688 99.5625 L 22.402344 98.695312 L 22.09375 98.019531 C 21.175781 95.976562 21.082031 93.066406 21.855469 90.824219 L 22.222656 89.761719 L 45.304688 70.234375 C 58.246094 59.289062 68.375 50.65625 68.363281 50.585938 C 68.34375 50.523438 68.039062 49.992188 67.667969 49.414062 C 66.773438 47.996094 66.167969 46.585938 65.492188 44.316406 C 64.980469 42.621094 64.902344 42.238281 64.871094 40.714844 C 64.816406 39.011719 64.957031 37.742188 65.296875 36.78125 C 65.390625 36.503906 65.511719 36.082031 65.554688 35.855469 C 65.699219 35.074219 67.046875 32.964844 68.308594 31.542969 C 69.324219 30.398438 69.417969 30.320312 70.753906 29.476562 Z M 95.085938 40.160156 C 99.328125 45.125 100.652344 46.628906 100.871094 46.726562 L 101.15625 46.851562 L 101.417969 46.121094 C 101.953125 44.621094 101.894531 42.964844 101.230469 40.765625 C 100.796875 39.328125 100.585938 38.921875 99.597656 37.453125 C 98.792969 36.273438 98.046875 35.609375 96.503906 34.6875 C 95.144531 33.867188 94.507812 33.648438 92.898438 33.394531 C 92.003906 33.253906 91.402344 33.25 90.738281 33.363281 C 90.234375 33.453125 89.769531 33.574219 89.707031 33.621094 C 89.609375 33.703125 90.515625 34.792969 95.089844 40.148438 Z "/>
</g>
</svg>
