<svg width="128" xmlns="http://www.w3.org/2000/svg" height="128" viewBox="0 0 128 128" xmlns:xlink="http://www.w3.org/1999/xlink">
<path style="fill:#8babb7" d="M 26.5 21.332031 C 23.628906 21.332031 21.332031 23.628906 21.332031 26.5 L 21.332031 82.832031 C 21.332031 85.707031 23.628906 88 26.5 88 L 64 88 L 85.332031 106.667969 L 85.332031 88 L 101.5 88 C 104.371094 88 106.667969 85.707031 106.667969 82.832031 L 106.667969 26.5 C 106.667969 23.628906 104.371094 21.332031 101.5 21.332031 Z M 60.417969 34.582031 L 67.25 34.582031 L 67.25 49 L 78.667969 42.417969 L 81.832031 47.917969 L 70.25 54.667969 L 81.832031 61.417969 L 78.667969 66.917969 L 67.25 60.332031 L 67.25 74.75 L 60.417969 74.75 L 60.417969 60.332031 L 49 66.917969 L 45.832031 61.417969 L 57.417969 54.667969 L 45.832031 47.917969 L 49 42.417969 L 60.417969 49 Z "/>
</svg>
