<svg width="128" xmlns="http://www.w3.org/2000/svg" height="128" viewBox="0 0 128 128" xmlns:xlink="http://www.w3.org/1999/xlink">
<g style="fill:none;stroke:#eea254;stroke-linecap:round">
<path style="stroke-width:3.487" d="M 28.157603 27.54439 C 28.157603 37.377725 20.187394 45.347934 10.354059 45.347934 C 0.520724 45.347934 -7.449485 37.377725 -7.449485 27.54439 C -7.449485 17.711054 0.520724 9.740845 10.354059 9.740845 C 20.187394 9.740845 28.157603 17.711054 28.157603 27.54439 Z " transform="matrix(2.55787 0 0 2.55787 37.51572 -6.45483)"/>
<path style="stroke-width:22.267" d="M 127.328125 -128.03125 L 127.328125 -82.273438 L 168.945312 -40.648438 " transform="matrix(.5 0 0 .5 0 104)"/>
<g style="stroke-width:3.884">
<path d="M 127.96875 -158.539062 L 127.96875 -146.40625 " transform="matrix(.5 0 0 .5 0 104)"/>
<path d="M 127.96875 -13.070312 L 127.96875 -0.929688 " transform="matrix(.5 0 0 .5 0 104)"/>
<path d="M 49.671875 -78.367188 L 61.8125 -78.367188 " transform="matrix(.5 0 0 .5 0 104)"/>
<path d="M 193.421875 -78.367188 L 205.5625 -78.367188 " transform="matrix(.5 0 0 .5 0 104)"/>
</g>
</g>
</svg>
