<svg width="128" xmlns="http://www.w3.org/2000/svg" height="128" viewBox="0 0 128 128" xmlns:xlink="http://www.w3.org/1999/xlink">
<path style="fill:none;stroke:#b98595;stroke-width:17.397" d="M 123.921875 -160.484375 C 81.984375 -158.328125 48.617188 -123.046875 48.617188 -79.96875 C 48.617188 -35.5 84.171875 0.546875 128 0.546875 C 171.828125 0.546875 207.382812 -35.5 207.382812 -79.96875 C 207.382812 -124.4375 171.828125 -160.484375 128 -160.484375 C 126.632812 -160.484375 125.273438 -160.546875 123.921875 -160.484375 Z " transform="matrix(.5 0 0 .5 0 104)"/>
<g style="fill:#b98595">
<path d="M 58.363281 14 L 69.636719 14 C 70.277344 14 70.792969 14.941406 70.792969 16.113281 L 70.792969 22.566406 C 70.792969 23.738281 70.277344 24.683594 69.636719 24.683594 L 58.363281 24.683594 C 57.722656 24.683594 57.207031 23.738281 57.207031 22.566406 L 57.207031 16.113281 C 57.207031 14.941406 57.722656 14 58.363281 14 Z "/>
<path d="M 58.363281 103.316406 L 69.636719 103.316406 C 70.277344 103.316406 70.792969 104.261719 70.792969 105.433594 L 70.792969 111.882812 C 70.792969 113.054688 70.277344 114 69.636719 114 L 58.363281 114 C 57.722656 114 57.207031 113.054688 57.207031 111.882812 L 57.207031 105.433594 C 57.207031 104.261719 57.722656 103.316406 58.363281 103.316406 Z "/>
<path d="M 73.277344 64.007812 C 73.277344 68.859375 69.125 72.792969 64 72.792969 C 58.875 72.792969 54.722656 68.859375 54.722656 64.007812 C 54.722656 59.160156 58.875 55.226562 64 55.226562 C 69.125 55.226562 73.277344 59.160156 73.277344 64.007812 Z "/>
<path d="M 114 58.453125 L 114 69.5625 C 114 70.195312 113.003906 70.703125 111.765625 70.703125 L 104.949219 70.703125 C 103.714844 70.703125 102.714844 70.195312 102.714844 69.5625 L 102.714844 58.453125 C 102.714844 57.820312 103.714844 57.3125 104.949219 57.3125 L 111.765625 57.3125 C 113.003906 57.3125 114 57.820312 114 58.453125 Z "/>
<path d="M 25.285156 58.453125 L 25.285156 69.5625 C 25.285156 70.195312 24.285156 70.703125 23.050781 70.703125 L 16.234375 70.703125 C 14.996094 70.703125 14 70.195312 14 69.5625 L 14 58.453125 C 14 57.820312 14.996094 57.3125 16.234375 57.3125 L 23.050781 57.3125 C 24.285156 57.3125 25.285156 57.820312 25.285156 58.453125 Z "/>
<path d="M 97.359375 24.871094 L 105.332031 32.417969 C 105.785156 32.847656 105.445312 33.859375 104.570312 34.6875 L 99.75 39.25 C 98.875 40.078125 97.804688 40.398438 97.351562 39.96875 L 89.382812 32.425781 C 88.929688 31.996094 89.269531 30.984375 90.144531 30.15625 L 94.960938 25.59375 C 95.839844 24.765625 96.90625 24.441406 97.359375 24.871094 Z "/>
<path d="M 30.648438 88.03125 L 38.617188 95.574219 C 39.070312 96.003906 38.730469 97.015625 37.855469 97.84375 L 33.039062 102.40625 C 32.164062 103.234375 31.09375 103.558594 30.640625 103.128906 L 22.667969 95.582031 C 22.214844 95.152344 22.554688 94.140625 23.429688 93.3125 L 28.25 88.75 C 29.125 87.921875 30.195312 87.601562 30.648438 88.03125 Z "/>
<path d="M 105.332031 95.582031 L 97.359375 103.128906 C 96.90625 103.558594 95.839844 103.234375 94.960938 102.40625 L 90.144531 97.84375 C 89.269531 97.015625 88.929688 96.003906 89.382812 95.574219 L 97.351562 88.027344 C 97.804688 87.601562 98.875 87.921875 99.75 88.75 L 104.570312 93.3125 C 105.445312 94.140625 105.785156 95.152344 105.332031 95.582031 Z "/>
<path d="M 38.617188 32.425781 L 30.648438 39.96875 C 30.195312 40.398438 29.125 40.078125 28.25 39.25 L 23.429688 34.6875 C 22.554688 33.859375 22.214844 32.847656 22.667969 32.417969 L 30.640625 24.871094 C 31.09375 24.441406 32.164062 24.765625 33.039062 25.59375 L 37.855469 30.15625 C 38.730469 30.984375 39.070312 31.996094 38.617188 32.425781 Z "/>
</g>
</svg>
