<svg width="128" xmlns="http://www.w3.org/2000/svg" height="128" viewBox="0 0 128 128" xmlns:xlink="http://www.w3.org/1999/xlink">
<defs>
<linearGradient gradientTransform="matrix(2.66667 0 0 -2.66667 0 -2678.2992)" id="linear0" y1="-1003.614" x1="25.456" y2="-1052.934" gradientUnits="userSpaceOnUse" x2="24.489">
<stop offset="0" style="stop-color:#9ddf5f"/>
<stop offset="1" style="stop-color:#3d790a"/>
</linearGradient>
</defs>
<path style="fill:url(#linear0)" d="M 5.183594 128 L 122.816406 128 C 125.6875 128 128 125.6875 128 122.8125 L 128 5.183594 C 128 2.3125 125.6875 0 122.816406 0 L 5.183594 0 C 2.3125 0 0 2.3125 0 5.183594 L 0 122.8125 C 0 125.6875 2.3125 128 5.183594 128 Z "/>
<path style="fill:#fff;fill-opacity:.149" d="M 5.332031 0 C 2.378906 0 0 2.378906 0 5.332031 L 0 122.667969 C 0 125.621094 2.378906 128 5.332031 128 L 44.75 128 L 79 0 Z "/>
<path style="fill:#fffffc" d="M 53.960938 35.546875 C 71.550781 35.546875 90.0625 39.164062 103.578125 47.105469 C 105.402344 48.136719 106.667969 49.691406 106.667969 52.542969 C 106.667969 55.808594 104.042969 58.15625 101.015625 58.15625 C 99.796875 58.15625 99.074219 57.859375 97.929688 57.234375 C 87.085938 50.734375 70.257812 47.152344 53.984375 47.152344 C 45.859375 47.152344 37.609375 47.976562 30.054688 50.03125 C 29.183594 50.246094 28.082031 50.683594 26.980469 50.683594 C 23.785156 50.683594 21.332031 48.15625 21.332031 44.960938 C 21.332031 41.703125 23.351562 39.878906 25.527344 39.234375 C 34.066406 36.71875 43.601562 35.546875 53.960938 35.546875 Z M 52.742188 56.128906 C 68.421875 56.128906 83.589844 60.035156 95.515625 67.171875 C 97.515625 68.320312 98.253906 69.773438 98.253906 71.90625 C 98.253906 74.503906 96.1875 76.597656 93.582031 76.597656 C 92.285156 76.597656 91.464844 76.074219 90.582031 75.558594 C 80.835938 69.777344 67.332031 65.933594 52.542969 65.933594 C 44.957031 65.933594 38.40625 66.996094 32.988281 68.441406 C 31.820312 68.761719 31.164062 69.105469 30.074219 69.105469 C 27.496094 69.105469 25.394531 67.007812 25.394531 64.410156 C 25.394531 61.863281 26.628906 60.109375 29.121094 59.40625 C 35.855469 57.558594 42.730469 56.128906 52.742188 56.128906 Z M 53.5625 75.691406 C 66.671875 75.691406 78.355469 78.699219 88.410156 84.726562 C 89.90625 85.597656 90.78125 86.492188 90.78125 88.707031 C 90.78125 90.867188 89.027344 92.453125 87.054688 92.453125 C 86.085938 92.453125 85.425781 92.117188 84.519531 91.566406 C 75.835938 86.3125 65.011719 83.554688 53.523438 83.554688 C 47.113281 83.554688 40.660156 84.375 34.625 85.632812 C 33.644531 85.84375 32.410156 86.222656 31.671875 86.222656 C 29.398438 86.222656 27.882812 84.414062 27.882812 82.457031 C 27.882812 79.941406 29.332031 78.6875 31.140625 78.34375 C 38.539062 76.65625 45.910156 75.691406 53.5625 75.691406 Z "/>
</svg>
