<svg width="128" xmlns="http://www.w3.org/2000/svg" height="128" viewBox="0 0 128 128" xmlns:xlink="http://www.w3.org/1999/xlink">
<defs>
<linearGradient gradientTransform="matrix(2.66667 0 0 2.66667 0 -2678.2992)" id="linear0" y1="1053.158" y2="1004.847" gradientUnits="userSpaceOnUse" x2="0">
<stop offset="0" style="stop-color:#000"/>
<stop offset="1" style="stop-color:#5a5d60"/>
</linearGradient>
</defs>
<path style="fill:url(#linear0)" d="M 5.1875 0 L 122.8125 0 C 125.679688 0 128 2.320312 128 5.1875 L 128 122.8125 C 128 125.675781 125.679688 128 122.8125 128 L 5.1875 128 C 2.320312 128 0 125.675781 0 122.8125 L 0 5.1875 C 0 2.320312 2.320312 0 5.1875 0 Z "/>
<g style="fill:#fff">
<path style="fill-opacity:.149" d="M 0 0 L 0 128 L 44.75 128 L 79 0 Z "/>
<path d="M 88.003906 26.6875 C 77.746094 26.6875 69.335938 35.097656 69.335938 45.355469 C 69.335938 55.613281 77.746094 64.019531 88.003906 64.019531 C 98.261719 64.019531 106.671875 55.613281 106.671875 45.355469 C 106.671875 35.097656 98.261719 26.6875 88.003906 26.6875 Z M 88.003906 32.953125 C 94.902344 32.953125 100.40625 38.453125 100.40625 45.355469 C 100.40625 52.253906 94.902344 57.753906 88.003906 57.753906 C 81.105469 57.753906 75.601562 52.253906 75.601562 45.355469 C 75.601562 38.453125 81.105469 32.953125 88.003906 32.953125 Z "/>
<path d="M 96 45.332031 C 96 49.75 92.417969 53.332031 88 53.332031 C 83.582031 53.332031 80 49.75 80 45.332031 C 80 40.914062 83.582031 37.332031 88 37.332031 C 92.417969 37.332031 96 40.914062 96 45.332031 Z "/>
<path d="M 72 53.332031 L 72 77.332031 L 85.332031 80 L 96.726562 60.089844 L 84.828125 60.089844 Z "/>
<path d="M 74.667969 74.667969 C 67.339844 74.667969 61.332031 80.671875 61.332031 88 C 61.332031 95.328125 67.339844 101.332031 74.667969 101.332031 C 81.992188 101.332031 88 95.328125 88 88 C 88 80.671875 81.992188 74.667969 74.667969 74.667969 Z M 74.667969 79.140625 C 79.59375 79.140625 83.523438 83.070312 83.523438 88 C 83.523438 92.929688 79.59375 96.859375 74.667969 96.859375 C 69.738281 96.859375 65.808594 92.929688 65.808594 88 C 65.808594 83.070312 69.738281 79.140625 74.667969 79.140625 Z "/>
<path d="M 34.691406 56 C 27.363281 56 21.359375 62.007812 21.359375 69.332031 C 21.359375 76.660156 27.363281 82.667969 34.691406 82.667969 C 42.019531 82.667969 48.023438 76.660156 48.023438 69.332031 C 48.023438 62.007812 42.019531 56 34.691406 56 Z M 34.667969 61.332031 C 40 61.332031 42.667969 64 42.667969 69.332031 C 42.667969 74.667969 40 77.332031 34.667969 77.332031 C 29.332031 77.332031 26.667969 74.667969 26.667969 69.332031 C 26.667969 64 29.332031 61.332031 34.667969 61.332031 Z "/>
<path d="M 37.617188 64.566406 C 34.589844 63.285156 31.097656 64.695312 29.816406 67.722656 C 28.53125 70.746094 29.945312 74.238281 32.96875 75.519531 L 72.589844 93.332031 C 75.613281 94.613281 79.105469 93.203125 80.390625 90.175781 C 81.671875 87.152344 80.257812 83.660156 77.234375 82.378906 Z "/>
</g>
</svg>
