<svg width="128" xmlns="http://www.w3.org/2000/svg" height="128" viewBox="0 0 128 128" xmlns:xlink="http://www.w3.org/1999/xlink">
<defs>
<linearGradient gradientTransform="matrix(2.66667 0 0 2.66667 0 -2678.2992)" id="linear0" y1="1053.158" y2="1004.941" gradientUnits="userSpaceOnUse" x2="0">
<stop offset="0" style="stop-color:#b46949"/>
<stop offset="1" style="stop-color:#f6b068"/>
</linearGradient>
</defs>
<path style="fill:url(#linear0)" d="M 5.1875 0 L 122.8125 0 C 125.679688 0 128 2.320312 128 5.1875 L 128 122.8125 C 128 125.675781 125.679688 128 122.8125 128 L 5.1875 128 C 2.320312 128 0 125.675781 0 122.8125 L 0 5.1875 C 0 2.320312 2.320312 0 5.1875 0 Z "/>
<g style="fill:#fff">
<path d="M 32.730469 59.585938 L 50.519531 59.585938 L 50.519531 21.332031 L 76 21.332031 L 76 59.585938 L 95.269531 59.585938 L 63.535156 106.667969 Z "/>
<path style="fill-opacity:.149" d="M 0 0 L 0 128 L 44.75 128 L 79 0 Z "/>
</g>
</svg>
