<svg width="128" xmlns="http://www.w3.org/2000/svg" height="128" viewBox="0 0 128 128" xmlns:xlink="http://www.w3.org/1999/xlink">
<defs>
<linearGradient gradientTransform="matrix(2.66667 0 0 2.66667 0 -2678.2992)" id="linear0" y1="1053.158" y2="1004.847" gradientUnits="userSpaceOnUse" x2="0">
<stop offset="0" style="stop-color:#000"/>
<stop offset="1" style="stop-color:#5a5d60"/>
</linearGradient>
</defs>
<path style="fill:url(#linear0)" d="M 5.1875 0 L 122.8125 0 C 125.679688 0 128 2.320312 128 5.1875 L 128 122.8125 C 128 125.675781 125.679688 128 122.8125 128 L 5.1875 128 C 2.320312 128 0 125.675781 0 122.8125 L 0 5.1875 C 0 2.320312 2.320312 0 5.1875 0 Z "/>
<path style="fill:#fff;fill-opacity:.149" d="M 0 0 L 0 128 L 44.75 128 L 79 0 Z "/>
<path style="fill:none;stroke:#fff;stroke-linejoin:round;stroke-width:2" d="M 9.023438 1017.380266 L 9.023438 1039.344134 L 39.064453 1039.344134 L 39.064453 1019.40761 L 25.993652 1019.40761 L 25.993652 1017.380266 Z " transform="matrix(2.66667 0 0 2.66667 0 -2678.2992)"/>
<g style="fill:#fff">
<path d="M 32 37.359375 C 32 43.757812 32 42.667969 32 42.667969 L 37.332031 42.667969 L 37.332031 37.332031 Z "/>
<path d="M 37.332031 42.667969 L 37.332031 48 L 42.667969 48 L 42.667969 42.667969 Z "/>
<path d="M 32 48 L 32 53.332031 L 37.332031 53.332031 L 37.332031 48 Z "/>
<path d="M 37.332031 53.332031 L 37.332031 58.667969 L 42.667969 58.667969 L 42.667969 53.332031 Z "/>
<path d="M 32 58.667969 L 32 64 L 37.332031 64 L 37.332031 58.667969 Z "/>
<path d="M 37.332031 64 L 37.332031 69.332031 L 42.667969 69.332031 L 42.667969 64 Z "/>
<path d="M 32 69.332031 L 32 74.667969 L 37.332031 74.667969 L 37.332031 69.332031 Z "/>
<path d="M 37.332031 74.667969 L 37.332031 80 L 42.667969 80 L 42.667969 74.667969 Z "/>
</g>
</svg>
