<svg width="128" xmlns="http://www.w3.org/2000/svg" height="128" viewBox="0 0 128 128" xmlns:xlink="http://www.w3.org/1999/xlink">
<defs>
<linearGradient gradientTransform="matrix(2.66667 0 0 2.66667 0 -2678.2992)" id="linear0" y1="1053.158" y2="1004.847" gradientUnits="userSpaceOnUse" x2="0">
<stop offset="0" style="stop-color:#283452"/>
<stop offset="1" style="stop-color:#3b6396"/>
</linearGradient>
</defs>
<path style="fill:url(#linear0)" d="M 5.1875 0 L 122.8125 0 C 125.679688 0 128 2.320312 128 5.1875 L 128 122.8125 C 128 125.679688 125.679688 128 122.8125 128 L 5.1875 128 C 2.320312 128 0 125.679688 0 122.8125 L 0 5.1875 C 0 2.320312 2.320312 0 5.1875 0 Z "/>
<path style="fill:#fff;fill-opacity:.149" d="M 5.335938 0 C 2.378906 0 0 2.378906 0 5.335938 L 0 122.664062 C 0 125.621094 2.378906 128 5.335938 128 L 44.75 128 L 79 0 Z "/>
<path style="fill:none;stroke:#fff;stroke-width:8" d="M 75.726562 174.179688 C 87.796875 175.710938 114.820312 173.039062 140.296875 169.257812 C 165.023438 165.59375 188.539062 160.8125 196.804688 157.65625 C 201.453125 155.851562 206.101562 148.171875 209.632812 137.695312 C 213.164062 126.882812 215.679688 112.78125 215.492188 98.9375 C 215.398438 89.695312 178.867188 84.914062 138.8125 82.773438 C 95.835938 80.453125 49.132812 81.289062 44.265625 83.429688 C 37.140625 86.679688 40.96875 111.226562 48.742188 133.625 C 55.898438 154.273438 66.414062 172.992188 75.726562 174.179688 " transform="scale(.5)"/>
<g style="fill:#fff">
<g style="fill-rule:evenodd">
<path d="M 98.589844 78.730469 C 99.566406 78.289062 100.496094 77.363281 101.425781 76.066406 C 82.464844 76.363281 53.691406 76.363281 28.320312 76.316406 C 28.390625 76.464844 28.46875 76.609375 28.542969 76.757812 C 30.292969 76.757812 32.027344 76.757812 33.71875 76.757812 C 60.246094 76.710938 84.324219 76.710938 98.589844 78.734375 "/>
<path d="M 32.035156 71.992188 L 32.035156 68.964844 L 32.425781 68.964844 L 33.671875 70.742188 L 34.910156 68.964844 L 35.300781 68.964844 L 35.300781 71.992188 L 34.828125 71.992188 L 34.828125 69.816406 L 33.667969 71.503906 L 32.507812 69.816406 L 32.507812 71.992188 Z "/>
<path d="M 38.992188 71.992188 L 38.992188 68.964844 L 41.832031 68.964844 L 41.832031 69.40625 L 39.464844 69.40625 L 39.464844 70.164062 L 41.023438 70.164062 L 41.023438 70.597656 L 39.464844 70.597656 L 39.464844 71.558594 L 41.964844 71.558594 L 41.964844 71.992188 Z "/>
<path d="M 45.292969 68.96875 L 45.292969 71.992188 L 46.644531 71.992188 C 47.148438 71.992188 47.542969 71.855469 47.839844 71.585938 C 48.136719 71.3125 48.292969 70.945312 48.292969 70.488281 C 48.292969 70.039062 48.144531 69.671875 47.839844 69.386719 C 47.535156 69.105469 47.140625 68.96875 46.644531 68.96875 Z M 45.773438 69.402344 L 46.644531 69.402344 C 46.984375 69.402344 47.269531 69.5 47.476562 69.703125 C 47.691406 69.90625 47.808594 70.160156 47.808594 70.480469 C 47.808594 70.8125 47.703125 71.082031 47.492188 71.269531 C 47.289062 71.464844 47.003906 71.5625 46.644531 71.5625 L 45.773438 71.5625 Z "/>
<path d="M 51.691406 71.992188 L 51.691406 68.957031 L 52.175781 68.957031 L 52.175781 71.992188 Z "/>
<path d="M 56.832031 68.96875 L 55.285156 71.992188 L 55.789062 71.992188 L 56.183594 71.222656 L 57.785156 71.222656 L 58.179688 71.992188 L 58.679688 71.992188 L 57.136719 68.96875 Z M 56.988281 69.667969 L 57.578125 70.816406 L 56.390625 70.816406 Z "/>
<path d="M 67.40625 71.253906 C 67.21875 71.527344 67.035156 71.730469 66.707031 71.875 C 66.429688 72.019531 66.152344 72.089844 65.78125 72.089844 C 65.222656 72.089844 64.804688 71.941406 64.476562 71.636719 C 64.105469 71.335938 63.96875 70.953125 63.96875 70.488281 C 63.96875 70.023438 64.105469 69.644531 64.476562 69.335938 C 64.804688 69.035156 65.222656 68.882812 65.78125 68.882812 C 66.105469 68.882812 66.382812 68.945312 66.664062 69.074219 C 66.941406 69.191406 67.171875 69.371094 67.3125 69.59375 L 66.941406 69.859375 C 66.847656 69.6875 66.664062 69.550781 66.476562 69.457031 C 66.246094 69.367188 66.011719 69.320312 65.78125 69.320312 C 65.40625 69.320312 65.082031 69.429688 64.804688 69.652344 C 64.570312 69.871094 64.433594 70.152344 64.433594 70.480469 C 64.433594 70.816406 64.570312 71.09375 64.804688 71.3125 C 65.082031 71.535156 65.40625 71.648438 65.78125 71.648438 C 66.058594 71.648438 66.289062 71.597656 66.476562 71.488281 C 66.707031 71.378906 66.894531 71.214844 67.035156 70.992188 Z "/>
<path d="M 70.84375 71.992188 L 70.84375 68.964844 L 73.679688 68.964844 L 73.679688 69.40625 L 71.308594 69.40625 L 71.308594 70.164062 L 72.890625 70.164062 L 72.890625 70.597656 L 71.308594 70.597656 L 71.308594 71.558594 L 73.820312 71.558594 L 73.820312 71.992188 Z "/>
<path d="M 77.164062 71.992188 L 77.164062 68.964844 L 77.398438 68.964844 L 79.351562 71.09375 L 79.351562 68.964844 L 79.816406 68.964844 L 79.816406 71.992188 L 79.535156 71.992188 L 77.628906 69.871094 L 77.628906 71.992188 Z "/>
<path d="M 84.230469 71.992188 L 84.230469 69.382812 L 82.929688 69.382812 L 82.929688 68.964844 L 85.949219 68.964844 L 85.949219 69.382812 L 84.695312 69.382812 L 84.695312 71.992188 Z "/>
<path d="M 89.0625 71.992188 L 89.0625 68.964844 L 91.898438 68.964844 L 91.898438 69.40625 L 89.574219 69.40625 L 89.574219 70.164062 L 91.109375 70.164062 L 91.109375 70.597656 L 89.574219 70.597656 L 89.574219 71.558594 L 92.035156 71.558594 L 92.035156 71.992188 Z "/>
<path d="M 95.382812 68.96875 L 95.382812 71.992188 L 95.847656 71.992188 L 95.847656 70.667969 L 97.195312 70.667969 L 98.03125 71.992188 L 98.542969 71.992188 L 97.707031 70.667969 C 97.9375 70.621094 98.125 70.53125 98.265625 70.375 C 98.402344 70.21875 98.449219 70.035156 98.449219 69.820312 C 98.449219 69.554688 98.359375 69.335938 98.171875 69.1875 C 98.03125 69.039062 97.800781 68.96875 97.472656 68.96875 Z M 95.847656 69.410156 L 97.472656 69.410156 C 97.613281 69.410156 97.753906 69.457031 97.847656 69.519531 C 97.9375 69.582031 97.984375 69.6875 97.984375 69.816406 C 97.984375 69.949219 97.9375 70.046875 97.847656 70.117188 C 97.753906 70.191406 97.613281 70.226562 97.472656 70.226562 L 95.847656 70.226562 Z "/>
</g>
<path d="M 51.140625 48.113281 L 50.59375 51.878906 L 47.296875 51.878906 C 45.292969 51.878906 43.4375 52.589844 41.730469 54.007812 C 41.28125 54.378906 40.878906 54.765625 40.523438 55.179688 C 40.320312 54.765625 40.074219 54.378906 39.765625 54.007812 C 38.601562 52.589844 37.003906 51.878906 35 51.878906 L 30.742188 51.878906 C 30.589844 52.675781 30.742188 53.351562 31.191406 53.914062 C 31.644531 54.476562 32.265625 54.761719 33.0625 54.761719 L 34.457031 54.761719 C 35.652344 54.761719 36.585938 55.1875 37.257812 56.050781 C 37.929688 56.914062 38.15625 57.949219 37.929688 59.140625 C 37.703125 60.339844 37.09375 61.355469 36.09375 62.207031 C 35.09375 63.054688 33.984375 63.488281 32.796875 63.488281 L 31.402344 63.488281 C 30.601562 63.488281 29.875 63.761719 29.203125 64.324219 C 28.535156 64.886719 28.121094 65.558594 27.972656 66.359375 L 32.25 66.359375 C 34.253906 66.359375 36.097656 65.660156 37.804688 64.253906 C 38.25 63.886719 38.65625 63.492188 39.007812 63.078125 C 39.210938 63.492188 39.46875 63.886719 39.777344 64.253906 C 40.945312 65.660156 42.527344 66.359375 44.53125 66.359375 L 48.804688 66.359375 C 48.957031 65.558594 48.804688 64.886719 48.351562 64.324219 C 47.898438 63.761719 47.265625 63.488281 46.472656 63.488281 L 45.089844 63.488281 C 43.890625 63.488281 42.953125 63.054688 42.277344 62.207031 C 41.597656 61.355469 41.371094 60.339844 41.601562 59.140625 C 41.828125 57.949219 42.445312 56.914062 43.449219 56.050781 C 44.453125 55.1875 45.554688 54.761719 46.75 54.761719 L 48.144531 54.761719 C 48.921875 54.761719 49.636719 54.484375 50.292969 53.949219 L 49.539062 59.109375 C 49.238281 61.144531 49.714844 62.871094 50.976562 64.296875 C 52.210938 65.75 53.875 66.460938 55.882812 66.460938 C 57.925781 66.460938 59.785156 65.75 61.457031 64.296875 C 63.132812 62.871094 64.136719 61.144531 64.433594 59.109375 C 64.730469 57.066406 64.246094 55.339844 63.019531 53.914062 C 61.753906 52.496094 60.082031 51.777344 58.039062 51.777344 L 53.6875 51.777344 L 53.761719 51.207031 C 53.910156 50.367188 53.726562 49.628906 53.167969 49.019531 C 52.683594 48.410156 51.988281 48.113281 51.140625 48.113281 Z M 53.242188 54.703125 L 57.628906 54.703125 C 58.816406 54.703125 59.785156 55.117188 60.527344 55.980469 C 61.199219 56.839844 61.457031 57.898438 61.308594 59.109375 C 61.125 60.316406 60.566406 61.351562 59.597656 62.21875 C 58.632812 63.097656 57.554688 63.542969 56.328125 63.542969 C 55.101562 63.542969 54.132812 63.097656 53.425781 62.21875 C 52.722656 61.351562 52.460938 60.316406 52.609375 59.109375 Z "/>
<path d="M 72.648438 51.777344 C 70.605469 51.777344 68.746094 52.492188 67.109375 53.925781 C 65.4375 55.378906 64.433594 57.101562 64.136719 59.140625 L 63.058594 66.460938 C 63.910156 66.460938 64.691406 66.175781 65.363281 65.566406 C 66.066406 64.96875 66.476562 64.242188 66.589844 63.382812 L 67.222656 59.140625 C 67.40625 57.921875 67.964844 56.878906 68.929688 55.992188 C 69.898438 55.128906 71.011719 54.703125 72.203125 54.703125 C 73.429688 54.703125 74.394531 55.128906 75.101562 55.992188 C 75.808594 56.878906 76.070312 57.921875 75.882812 59.140625 L 75.289062 63.382812 C 75.140625 64.226562 75.363281 64.933594 75.882812 65.542969 C 76.402344 66.148438 77.074219 66.460938 77.929688 66.460938 L 79.007812 59.140625 C 79.15625 57.921875 79.75 56.878906 80.71875 55.992188 C 81.683594 55.128906 82.761719 54.703125 83.988281 54.703125 C 85.179688 54.703125 86.144531 55.128906 86.851562 55.992188 C 87.558594 56.878906 87.855469 57.921875 87.667969 59.140625 L 87.039062 63.382812 C 86.925781 64.226562 87.113281 64.933594 87.632812 65.542969 C 88.152344 66.148438 88.820312 66.460938 89.675781 66.460938 L 90.199219 63.035156 C 90.421875 63.484375 90.679688 63.910156 91.054688 64.3125 C 92.316406 65.746094 93.953125 66.460938 95.960938 66.460938 L 100.308594 66.460938 C 100.421875 65.65625 100.234375 64.964844 99.753906 64.390625 C 99.269531 63.824219 98.601562 63.542969 97.820312 63.542969 L 96.40625 63.542969 C 95.179688 63.542969 94.214844 63.105469 93.507812 62.242188 C 92.761719 61.382812 92.503906 60.351562 92.652344 59.140625 C 92.835938 57.921875 93.433594 56.878906 94.398438 55.992188 C 95.367188 55.128906 96.480469 54.703125 97.671875 54.703125 L 99.082031 54.703125 C 99.902344 54.703125 100.644531 54.402344 101.3125 53.832031 C 101.945312 53.261719 102.316406 52.589844 102.429688 51.777344 L 98.117188 51.777344 C 96.070312 51.777344 94.25 52.492188 92.578125 53.925781 C 91.757812 54.640625 91.089844 55.417969 90.605469 56.269531 C 90.382812 55.414062 89.9375 54.632812 89.34375 53.925781 C 88.078125 52.492188 86.441406 51.777344 84.398438 51.777344 C 83.28125 51.777344 82.167969 52.039062 81.050781 52.554688 C 79.9375 53.066406 78.933594 53.753906 78.113281 54.65625 C 77.519531 53.753906 76.738281 53.042969 75.808594 52.53125 C 74.84375 52.03125 73.800781 51.777344 72.648438 51.777344 Z "/>
</g>
</svg>
