<svg width="128" xmlns="http://www.w3.org/2000/svg" height="128" viewBox="0 0 128 128" xmlns:xlink="http://www.w3.org/1999/xlink">
<g style="fill:#cd251b">
<path d="M 43.019531 30.9375 L 42.609375 30.9375 L 38.335938 14 L 31.707031 14 L 39.539062 39.582031 L 39.539062 56.375 L 46.121094 56.375 L 46.121094 38.792969 L 53.78125 14 L 47.09375 14 Z "/>
<path d="M 53.484375 48.464844 C 53.484375 51.121094 54.25 53.234375 55.785156 54.808594 C 57.320312 56.378906 59.363281 57.164062 61.921875 57.164062 C 64.578125 57.164062 66.664062 56.402344 68.179688 54.882812 C 69.691406 53.359375 70.449219 51.257812 70.449219 48.582031 L 70.449219 32.4375 C 70.449219 30.054688 69.679688 28.109375 68.132812 26.59375 C 66.589844 25.082031 64.605469 24.324219 62.1875 24.324219 C 59.53125 24.324219 57.417969 25.042969 55.84375 26.476562 C 54.269531 27.914062 53.484375 29.839844 53.484375 32.261719 Z M 59.496094 32.027344 C 59.496094 31.34375 59.722656 30.792969 60.167969 30.375 C 60.613281 29.953125 61.191406 29.742188 61.90625 29.742188 C 62.679688 29.742188 63.304688 29.953125 63.777344 30.375 C 64.253906 30.792969 64.492188 31.34375 64.492188 32.027344 L 64.492188 49.054688 C 64.492188 49.894531 64.257812 50.550781 63.792969 51.03125 C 63.328125 51.511719 62.699219 51.75 61.90625 51.75 C 61.132812 51.75 60.535156 51.515625 60.121094 51.046875 C 59.703125 50.578125 59.496094 49.914062 59.496094 49.050781 Z "/>
<path d="M 79.496094 56.828125 C 80.589844 56.828125 81.722656 56.492188 82.886719 55.832031 C 84.050781 55.164062 85.171875 54.195312 86.25 52.925781 L 86.25 56.375 L 92.09375 56.375 L 92.09375 25.117188 L 86.25 25.117188 L 86.25 48.84375 C 85.703125 49.527344 85.097656 50.089844 84.445312 50.527344 C 83.785156 50.964844 83.246094 51.1875 82.8125 51.1875 C 82.265625 51.1875 81.871094 51.019531 81.625 50.6875 C 81.378906 50.355469 81.257812 49.820312 81.257812 49.078125 L 81.257812 25.117188 L 75.410156 25.117188 L 75.410156 51.242188 C 75.410156 53.105469 75.753906 54.5 76.4375 55.429688 C 77.125 56.363281 78.144531 56.828125 79.496094 56.828125 Z "/>
<path d="M 102.480469 73.367188 C 102.480469 67.257812 97.433594 62.296875 91.214844 62.296875 C 82.34375 61.929688 73.261719 61.765625 64 61.78125 C 54.738281 61.765625 45.660156 61.929688 36.785156 62.296875 C 30.566406 62.296875 25.519531 67.257812 25.519531 73.367188 C 25.148438 78.207031 24.984375 83.050781 25 87.890625 C 24.988281 92.730469 25.148438 97.570312 25.523438 102.414062 C 25.523438 108.527344 30.566406 113.484375 36.785156 113.484375 C 45.660156 113.851562 54.738281 114.015625 64 114 C 73.261719 114.015625 82.339844 113.851562 91.214844 113.484375 C 97.433594 113.484375 102.480469 108.527344 102.480469 102.414062 C 102.851562 97.574219 103.015625 92.730469 103 87.890625 C 103.015625 83.050781 102.851562 78.207031 102.480469 73.367188 Z M 41.886719 104.1875 L 41.886719 104.550781 L 36.558594 104.550781 L 36.558594 75.222656 L 31.046875 75.222656 L 31.046875 69.878906 L 47.402344 69.878906 L 47.402344 75.222656 L 41.886719 75.222656 Z M 60.84375 79.242188 L 60.84375 104.550781 L 56.113281 104.550781 L 56.113281 101.757812 C 55.238281 102.785156 54.332031 103.570312 53.386719 104.109375 C 52.445312 104.648438 51.53125 104.917969 50.640625 104.917969 C 49.546875 104.917969 48.722656 104.539062 48.167969 103.789062 C 47.613281 103.035156 47.335938 101.902344 47.335938 100.398438 L 47.335938 78.875 L 52.066406 78.875 L 52.066406 98.277344 C 52.066406 98.878906 52.167969 99.3125 52.363281 99.582031 C 52.5625 99.847656 52.882812 99.984375 53.328125 99.984375 C 53.675781 99.984375 54.117188 99.804688 54.648438 99.449219 C 55.179688 99.09375 55.667969 98.640625 56.113281 98.089844 L 56.113281 78.875 L 60.84375 78.875 Z M 79.0625 85.265625 L 79.0625 99.308594 C 79.0625 101.109375 78.691406 102.484375 77.949219 103.441406 C 77.210938 104.394531 76.136719 104.871094 74.734375 104.871094 C 73.808594 104.871094 72.984375 104.6875 72.261719 104.316406 C 71.535156 103.949219 70.863281 103.378906 70.242188 102.605469 L 70.242188 104.554688 L 65.460938 104.554688 L 65.460938 69.878906 L 70.242188 69.878906 L 70.242188 80.921875 C 70.878906 80.152344 71.554688 79.5625 72.273438 79.160156 C 72.988281 78.757812 73.714844 78.558594 74.449219 78.558594 C 75.945312 78.558594 77.089844 79.097656 77.878906 80.179688 C 78.667969 81.261719 79.0625 82.835938 79.0625 84.902344 Z M 96.550781 86.046875 L 96.550781 92.492188 L 87.5 92.492188 L 87.5 96.898438 C 87.5 98.230469 87.65625 99.15625 87.96875 99.667969 C 88.28125 100.183594 88.8125 100.441406 89.566406 100.441406 C 90.351562 100.441406 90.898438 100.222656 91.210938 99.785156 C 91.527344 99.351562 91.679688 98.390625 91.679688 96.898438 L 91.679688 95.140625 L 96.550781 95.140625 L 96.550781 97.40625 C 96.550781 100.003906 95.957031 101.957031 94.773438 103.269531 C 93.585938 104.582031 91.816406 105.238281 89.460938 105.238281 C 87.34375 105.238281 85.671875 104.542969 84.457031 103.148438 C 83.238281 101.757812 82.628906 99.84375 82.628906 97.40625 L 82.628906 85.679688 C 82.628906 83.484375 83.296875 81.695312 84.636719 80.3125 C 85.972656 78.929688 87.699219 78.234375 89.816406 78.234375 C 91.980469 78.234375 93.644531 78.875 94.808594 80.15625 C 95.96875 81.4375 96.550781 83.277344 96.550781 85.679688 Z "/>
<path d="M 72.214844 82.945312 C 71.878906 82.945312 71.542969 83.027344 71.214844 83.191406 C 70.886719 83.359375 70.5625 83.617188 70.238281 83.964844 L 70.238281 99.371094 C 70.625 99.78125 70.996094 100.078125 71.359375 100.261719 C 71.722656 100.441406 72.101562 100.53125 72.503906 100.53125 C 73.082031 100.53125 73.507812 100.355469 73.78125 100 C 74.054688 99.644531 74.191406 99.0625 74.191406 98.253906 L 74.191406 85.554688 C 74.191406 84.699219 74.023438 84.050781 73.683594 83.609375 C 73.347656 83.164062 72.855469 82.945312 72.214844 82.945312 Z "/>
<path d="M 89.613281 83.035156 C 88.863281 83.035156 88.320312 83.265625 87.992188 83.722656 C 87.664062 84.183594 87.5 84.941406 87.5 86 L 87.5 88.199219 L 91.679688 88.199219 L 91.679688 86 C 91.679688 84.941406 91.515625 84.183594 91.1875 83.722656 C 90.859375 83.265625 90.335938 83.035156 89.613281 83.035156 Z "/>
</g>
</svg>
