<svg width="128" xmlns="http://www.w3.org/2000/svg" height="128" viewBox="0 0 128 128" xmlns:xlink="http://www.w3.org/1999/xlink">
<defs>
<linearGradient gradientTransform="matrix(2.66667 0 0 -2.66667 1.41421 2805.82773)" id="linear0" y1="1053.158" y2="1004.847" gradientUnits="userSpaceOnUse" x2="0">
<stop offset="0" style="stop-color:#c2c2b9"/>
<stop offset="1" style="stop-color:#77756a"/>
</linearGradient>
</defs>
<path style="fill:url(#linear0)" d="M 6.601562 127.527344 L 124.226562 127.527344 C 127.089844 127.527344 129.414062 125.207031 129.414062 122.339844 L 129.414062 4.714844 C 129.414062 1.851562 127.089844 -0.472656 124.226562 -0.472656 L 6.601562 -0.472656 C 3.734375 -0.472656 1.414062 1.851562 1.414062 4.714844 L 1.414062 122.339844 C 1.414062 125.207031 3.734375 127.527344 6.601562 127.527344 Z "/>
<g style="fill:#fff">
<path style="fill-opacity:.149" d="M 0 0 L 0 128 L 44.75 128 L 79 0 Z "/>
<path d="M 35.46875 56.875 C 30.859375 61.488281 30.859375 68.914062 35.46875 73.523438 C 40.082031 78.136719 47.507812 78.136719 52.121094 73.523438 L 73.527344 52.117188 C 78.136719 47.507812 78.136719 40.082031 73.527344 35.46875 C 68.914062 30.859375 61.488281 30.859375 56.875 35.46875 Z M 36.660156 58.066406 C 40.601562 54.125 46.988281 54.125 50.929688 58.066406 C 54.871094 62.007812 54.871094 68.394531 50.929688 72.335938 C 46.988281 76.277344 40.601562 76.277344 36.660156 72.335938 C 32.71875 68.394531 32.71875 62.007812 36.660156 58.066406 Z M 58.066406 36.660156 C 62.007812 32.71875 68.394531 32.71875 72.335938 36.660156 C 76.277344 40.601562 76.277344 46.988281 72.335938 50.929688 C 68.394531 54.871094 62.007812 54.871094 58.066406 50.929688 C 54.125 46.988281 54.125 40.601562 58.066406 36.660156 Z "/>
<path d="M 54.5 75.902344 C 49.886719 80.515625 49.886719 87.941406 54.5 92.554688 C 59.109375 97.164062 66.535156 97.164062 71.148438 92.554688 L 92.554688 71.148438 C 97.164062 66.535156 97.164062 59.109375 92.554688 54.496094 C 87.941406 49.886719 80.515625 49.886719 75.90625 54.496094 Z M 55.6875 77.09375 C 59.628906 73.152344 66.015625 73.152344 69.957031 77.09375 C 73.898438 81.035156 73.898438 87.421875 69.957031 91.363281 C 66.015625 95.304688 59.628906 95.304688 55.6875 91.363281 C 51.746094 87.421875 51.746094 81.035156 55.6875 77.09375 Z M 77.09375 55.6875 C 81.035156 51.746094 87.421875 51.746094 91.363281 55.6875 C 95.304688 59.628906 95.304688 66.015625 91.363281 69.957031 C 87.421875 73.898438 81.035156 73.898438 77.09375 69.957031 C 73.152344 66.015625 73.152344 59.628906 77.09375 55.6875 Z "/>
</g>
<path style="fill:none;stroke:#fff;stroke-width:3.333" d="M 55 33 C 55 46.806152 43.806152 58 30 58 C 16.193848 58 5 46.806152 5 33 C 5 19.193848 16.193848 8 30 8 C 43.806152 8 55 19.193848 55 33 Z " transform="matrix(1.6 0 0 1.6 16 11.2)"/>
</svg>
