<svg width="128" xmlns="http://www.w3.org/2000/svg" height="128" viewBox="0 0 128 128" xmlns:xlink="http://www.w3.org/1999/xlink">
<path style="fill:#00853d" d="M 21.332031 2.667969 C 18.589844 2.667969 16 5.257812 16 8 L 16 120 C 16 122.589844 18.742188 125.332031 21.332031 125.332031 L 106.667969 125.332031 C 109.257812 125.332031 112 122.589844 112 120 L 112 37.332031 L 77.332031 2.667969 Z "/>
<path style="fill:#000;fill-opacity:.196" d="M 77.332031 32 L 77.5 32.167969 L 77.917969 32 Z M 82.667969 37.332031 L 112 66.667969 L 112 37.332031 Z "/>
<path style="fill:#fff;fill-opacity:.392" d="M 77.332031 2.667969 L 112 37.332031 L 82.667969 37.332031 C 80.078125 37.332031 77.332031 34.589844 77.332031 32 Z "/>
<path style="fill:#fff" d="M 75.460938 87.726562 L 66.613281 87.726562 C 63.917969 87.726562 61.289062 87.769531 58.726562 86.777344 C 56.628906 85.964844 54.652344 84.730469 53.09375 83.097656 C 47.921875 77.6875 47.238281 69.089844 51.917969 63.128906 C 54.78125 59.480469 59.1875 57.148438 63.851562 57.148438 C 65.128906 57.148438 67.796875 56.949219 68.328125 58.445312 C 68.605469 59.214844 68.023438 60.09375 67.234375 60.234375 C 66.484375 60.363281 65.628906 59.980469 64.867188 59.96875 C 62.625 59.941406 60.613281 60.246094 58.554688 61.179688 C 50.972656 64.613281 49.078125 75.746094 55.289062 81.398438 C 56.886719 82.851562 58.710938 83.960938 60.808594 84.515625 C 62.675781 85.007812 64.589844 84.90625 66.5 84.90625 L 77.996094 84.90625 C 78.476562 84.90625 79.175781 85.035156 79.628906 84.871094 C 79.976562 84.746094 80.277344 84.367188 80.53125 84.113281 C 81.15625 83.488281 82.097656 82.800781 82.449219 81.972656 L 68.023438 81.972656 C 66.285156 81.972656 64.445312 82.140625 62.726562 81.890625 C 60.691406 81.59375 58.871094 80.644531 57.375 79.253906 C 56.59375 78.53125 55.972656 77.613281 55.5 76.667969 C 52.636719 70.9375 56.320312 64.101562 62.558594 62.996094 C 63.632812 62.804688 64.8125 62.855469 65.882812 63.074219 C 66.941406 63.289062 68.257812 63.664062 69.089844 64.386719 C 69.679688 64.902344 69.753906 65.75 69.234375 66.339844 C 68.480469 67.199219 67.722656 66.675781 66.894531 66.3125 C 66.246094 66.027344 65.570312 65.828125 64.867188 65.738281 C 61.867188 65.371094 58.957031 67.054688 57.792969 69.84375 C 56.324219 73.34375 58.175781 77.546875 61.769531 78.792969 C 63.503906 79.394531 65.480469 79.152344 67.289062 79.152344 L 82.335938 79.152344 C 82.921875 79.152344 83.921875 79.34375 84.464844 79.117188 C 84.683594 79.023438 84.792969 78.722656 84.902344 78.53125 L 85.804688 76.78125 C 86.863281 74.351562 87.582031 71.863281 87.867188 69.222656 C 89.046875 58.199219 82.320312 47.699219 71.910156 43.988281 C 63.761719 41.085938 54.292969 43.078125 47.90625 48.867188 C 44.933594 51.558594 42.792969 54.929688 41.394531 58.671875 C 39.53125 63.65625 39.53125 69.773438 41.414062 74.75 C 41.84375 75.882812 42.292969 77.023438 42.890625 78.078125 C 43.050781 78.359375 43.257812 78.996094 43.578125 79.117188 C 44.265625 79.375 43.6875 77.859375 43.628906 77.628906 C 43.15625 75.742188 43.003906 73.867188 43.003906 71.929688 C 43.003906 63.667969 48.582031 56.089844 56.078125 52.941406 C 58.324219 52 60.902344 51.394531 63.34375 51.394531 C 63.691406 51.394531 64.085938 51.34375 64.414062 51.457031 C 65.191406 51.722656 65.65625 52.613281 65.269531 53.371094 C 64.75 54.386719 63.710938 54.136719 62.78125 54.226562 C 60.78125 54.414062 58.835938 54.8125 56.976562 55.59375 C 51.617188 57.84375 47.445312 62.710938 46.226562 68.433594 C 44.503906 76.542969 48.367188 85.035156 55.851562 88.78125 C 59 90.359375 62.457031 90.851562 65.9375 90.609375 C 68.390625 90.433594 70.8125 89.855469 73.09375 88.933594 C 73.804688 88.644531 74.953125 88.316406 75.460938 87.726562 Z "/>
</svg>
