<svg width="128" xmlns="http://www.w3.org/2000/svg" height="128" viewBox="0 0 128 128" xmlns:xlink="http://www.w3.org/1999/xlink">
<path style="fill:#a33639" d="M 21.332031 2.667969 C 18.589844 2.667969 16 5.257812 16 8 L 16 120 C 16 122.589844 18.742188 125.332031 21.332031 125.332031 L 106.667969 125.332031 C 109.257812 125.332031 112 122.589844 112 120 L 112 37.332031 L 77.332031 2.667969 Z "/>
<path style="fill:#000;fill-opacity:.196" d="M 77.332031 32 L 77.5 32.167969 L 77.917969 32 Z M 82.667969 37.332031 L 112 66.667969 L 112 37.332031 Z "/>
<path style="fill:#fff;fill-opacity:.392" d="M 77.332031 2.667969 L 112 37.332031 L 82.667969 37.332031 C 80.078125 37.332031 77.332031 34.589844 77.332031 32 Z "/>
<g style="fill:#fff">
<path d="M 64 48 C 52.21875 48 42.667969 50.984375 42.667969 54.667969 L 42.667969 60 C 42.667969 63.683594 52.21875 66.667969 64 66.667969 C 75.78125 66.667969 85.332031 63.683594 85.332031 60 L 85.332031 54.667969 C 85.332031 50.984375 75.78125 48 64 48 Z "/>
<path d="M 63.933594 69.332031 C 54.378906 69.332031 46.328125 67.371094 43.609375 64.667969 C 42.976562 65.296875 42.667969 65.96875 42.667969 66.667969 L 42.667969 72 C 42.667969 75.683594 52.21875 78.667969 64 78.667969 C 75.78125 78.667969 85.332031 75.683594 85.332031 72 L 85.332031 66.667969 C 85.332031 65.96875 84.957031 65.296875 84.320312 64.667969 C 81.601562 67.371094 73.484375 69.332031 63.933594 69.332031 Z "/>
<path d="M 63.933594 81.332031 C 54.378906 81.332031 46.328125 79.371094 43.609375 76.667969 C 42.976562 77.296875 42.667969 77.96875 42.667969 78.667969 L 42.667969 84 C 42.667969 87.683594 52.21875 90.667969 64 90.667969 C 75.78125 90.667969 85.332031 87.683594 85.332031 84 L 85.332031 78.667969 C 85.332031 77.96875 84.957031 77.296875 84.320312 76.667969 C 81.601562 79.371094 73.484375 81.332031 63.933594 81.332031 Z "/>
</g>
</svg>
