<svg width="128" xmlns="http://www.w3.org/2000/svg" height="128" viewBox="0 0 128 128" xmlns:xlink="http://www.w3.org/1999/xlink">
<path style="fill:#ce6a20" d="M 21.332031 2.667969 C 18.589844 2.667969 16 5.257812 16 8 L 16 120 C 16 122.589844 18.742188 125.332031 21.332031 125.332031 L 106.667969 125.332031 C 109.257812 125.332031 112 122.589844 112 120 L 112 37.332031 L 77.332031 2.667969 Z "/>
<path style="fill:#000;fill-opacity:.196" d="M 77.332031 32 L 77.5 32.167969 L 77.917969 32 Z M 82.667969 37.332031 L 112 66.667969 L 112 37.332031 Z "/>
<path style="fill:#fff;fill-opacity:.392" d="M 77.332031 2.667969 L 112 37.332031 L 82.667969 37.332031 C 80.078125 37.332031 77.332031 34.589844 77.332031 32 Z "/>
<path style="fill:#fff" d="M 64 37.332031 C 61.832031 37.332031 60 38.546875 59.167969 40.269531 C 57.515625 39.164062 55.210938 38.953125 53.332031 39.960938 C 51.46875 40.960938 50.476562 42.886719 50.667969 44.753906 C 48.65625 44.578125 46.578125 45.496094 45.5 47.226562 C 44.414062 48.96875 44.636719 51.105469 45.832031 52.636719 C 43.972656 53.410156 42.667969 55.109375 42.667969 57.121094 C 42.667969 59.132812 43.972656 60.832031 45.832031 61.605469 C 44.636719 63.136719 44.414062 65.269531 45.5 67.015625 C 46.578125 68.742188 48.65625 69.664062 50.667969 69.488281 C 50.476562 71.355469 51.46875 73.28125 53.332031 74.28125 C 54.167969 74.726562 55.089844 74.902344 56 74.898438 L 56 96 L 64 88.578125 L 72 96 L 72 74.898438 C 72.910156 74.902344 73.832031 74.726562 74.667969 74.28125 C 76.53125 73.28125 77.523438 71.355469 77.332031 69.488281 C 79.34375 69.664062 81.421875 68.742188 82.5 67.015625 C 83.585938 65.269531 83.363281 63.136719 82.167969 61.605469 C 84.027344 60.832031 85.332031 59.132812 85.332031 57.121094 C 85.332031 55.109375 84.027344 53.410156 82.167969 52.636719 C 83.363281 51.105469 83.585938 48.96875 82.5 47.226562 C 81.421875 45.496094 79.34375 44.578125 77.332031 44.753906 C 77.523438 42.886719 76.53125 40.960938 74.667969 39.960938 C 72.789062 38.953125 70.484375 39.164062 68.832031 40.269531 C 68 38.546875 66.167969 37.332031 64 37.332031 Z M 64 44.675781 C 71.363281 44.675781 77.332031 50.214844 77.332031 57.042969 C 77.332031 63.875 71.363281 69.410156 64 69.410156 C 56.636719 69.410156 50.667969 63.875 50.667969 57.042969 C 50.667969 50.214844 56.636719 44.675781 64 44.675781 Z M 64 47.148438 C 58.109375 47.148438 53.332031 51.578125 53.332031 57.042969 C 53.332031 62.507812 58.109375 66.9375 64 66.9375 C 69.890625 66.9375 74.667969 62.507812 74.667969 57.042969 C 74.667969 51.578125 69.890625 47.148438 64 47.148438 Z "/>
</svg>
