<svg width="128" xmlns="http://www.w3.org/2000/svg" height="128" viewBox="0 0 128 128" xmlns:xlink="http://www.w3.org/1999/xlink">
<path style="fill:#a33639" d="M 21.332031 2.667969 C 18.589844 2.667969 16 5.257812 16 8 L 16 120 C 16 122.589844 18.742188 125.332031 21.332031 125.332031 L 106.667969 125.332031 C 109.257812 125.332031 112 122.589844 112 120 L 112 37.332031 L 77.332031 2.667969 Z "/>
<path style="fill:#000;fill-opacity:.196" d="M 77.332031 32 L 77.5 32.167969 L 77.917969 32 Z M 82.667969 37.332031 L 112 66.667969 L 112 37.332031 Z "/>
<path style="fill:#fff;fill-opacity:.392" d="M 77.332031 2.667969 L 112 37.332031 L 82.667969 37.332031 C 80.078125 37.332031 77.332031 34.589844 77.332031 32 Z "/>
<g style="fill:#fff">
<path d="M 64 42.667969 C 52.21875 42.667969 42.667969 45.652344 42.667969 49.332031 L 42.667969 54.667969 C 42.667969 58.347656 52.21875 61.332031 64 61.332031 C 75.78125 61.332031 85.332031 58.347656 85.332031 54.667969 L 85.332031 49.332031 C 85.332031 45.652344 75.78125 42.667969 64 42.667969 Z "/>
<path d="M 63.933594 64 C 54.378906 64 46.328125 62.039062 43.609375 59.332031 C 42.976562 59.964844 42.667969 60.636719 42.667969 61.332031 L 42.667969 66.667969 C 42.667969 70.347656 52.21875 73.332031 64 73.332031 C 75.78125 73.332031 85.332031 70.347656 85.332031 66.667969 L 85.332031 61.332031 C 85.332031 60.636719 84.957031 59.964844 84.320312 59.332031 C 81.601562 62.039062 73.484375 64 63.933594 64 Z "/>
<path d="M 63.933594 76 C 54.378906 76 46.328125 74.039062 43.609375 71.332031 C 42.976562 71.964844 42.667969 72.636719 42.667969 73.332031 L 42.667969 78.667969 C 42.667969 82.347656 52.21875 85.332031 64 85.332031 C 75.78125 85.332031 85.332031 82.347656 85.332031 78.667969 L 85.332031 73.332031 C 85.332031 72.636719 84.957031 71.964844 84.320312 71.332031 C 81.601562 74.039062 73.484375 76 63.933594 76 Z "/>
</g>
<path style="fill:#000;fill-opacity:.196" d="M 16 93.332031 L 16 120 C 16 122.589844 18.742188 125.332031 21.332031 125.332031 L 106.667969 125.332031 C 109.257812 125.332031 112 122.589844 112 120 L 112 93.332031 Z "/>
<g style="fill:#fff">
<path d="M 41.957031 109.335938 C 41.957031 110.324219 41.992188 111.261719 42.066406 112.140625 C 42.167969 113 42.339844 113.75 42.585938 114.386719 C 42.855469 115.023438 43.226562 115.53125 43.695312 115.90625 C 44.164062 116.28125 44.792969 116.46875 45.582031 116.46875 C 46.34375 116.46875 46.960938 116.28125 47.429688 115.90625 C 47.921875 115.53125 48.292969 115.023438 48.539062 114.386719 C 48.8125 113.726562 48.984375 112.964844 49.058594 112.109375 C 49.15625 111.25 49.207031 110.324219 49.207031 109.335938 C 49.207031 108.34375 49.15625 107.417969 49.058594 106.558594 C 48.984375 105.679688 48.8125 104.921875 48.539062 104.28125 C 48.292969 103.644531 47.9375 103.136719 47.46875 102.761719 C 47 102.386719 46.371094 102.199219 45.582031 102.199219 C 44.792969 102.199219 44.164062 102.386719 43.695312 102.761719 C 43.226562 103.136719 42.855469 103.652344 42.585938 104.316406 C 42.339844 104.953125 42.167969 105.703125 42.066406 106.558594 C 41.992188 107.417969 41.957031 108.34375 41.957031 109.335938 M 37.332031 109.335938 C 37.332031 105.8125 38.0625 103.160156 39.515625 101.375 C 40.96875 99.570312 42.992188 98.667969 45.582031 98.667969 C 48.269531 98.667969 50.316406 99.570312 51.71875 101.375 C 53.125 103.160156 53.828125 105.8125 53.828125 109.335938 C 53.828125 112.855469 53.113281 115.519531 51.683594 117.324219 C 50.253906 119.109375 48.230469 120 45.617188 120 C 42.929688 120 40.871094 119.109375 39.441406 117.324219 C 38.035156 115.519531 37.332031 112.855469 37.332031 109.335938 "/>
<path d="M 61.375 116.269531 C 61.496094 116.289062 61.632812 116.300781 61.78125 116.300781 C 61.929688 116.300781 62.0625 116.300781 62.1875 116.300781 C 63.222656 116.300781 64.085938 116.125 64.777344 115.773438 C 65.492188 115.421875 66.058594 114.9375 66.476562 114.320312 C 66.921875 113.703125 67.230469 112.976562 67.402344 112.140625 C 67.601562 111.28125 67.699219 110.347656 67.699219 109.335938 C 67.699219 108.453125 67.625 107.59375 67.476562 106.757812 C 67.328125 105.921875 67.070312 105.183594 66.699219 104.546875 C 66.328125 103.90625 65.824219 103.402344 65.183594 103.027344 C 64.542969 102.628906 63.714844 102.433594 62.707031 102.433594 C 62.507812 102.433594 62.285156 102.441406 62.039062 102.464844 C 61.792969 102.464844 61.570312 102.488281 61.375 102.53125 L 61.375 116.269531 M 72.320312 109.335938 C 72.320312 111.226562 72.050781 112.84375 71.507812 114.1875 C 70.992188 115.507812 70.261719 116.589844 69.324219 117.425781 C 68.390625 118.261719 67.265625 118.878906 65.960938 119.273438 C 64.679688 119.648438 63.261719 119.835938 61.707031 119.835938 C 60.894531 119.835938 60.09375 119.792969 59.304688 119.703125 C 58.539062 119.636719 57.710938 119.515625 56.824219 119.339844 L 56.824219 99.394531 C 57.859375 99.195312 58.835938 99.0625 59.746094 98.996094 C 60.660156 98.933594 61.507812 98.898438 62.296875 98.898438 C 63.800781 98.898438 65.171875 99.097656 66.402344 99.492188 C 67.660156 99.890625 68.722656 100.515625 69.585938 101.375 C 70.449219 102.210938 71.113281 103.289062 71.582031 104.613281 C 72.074219 105.910156 72.320312 107.484375 72.320312 109.335938 "/>
<path d="M 90.667969 113.394531 C 90.667969 114.628906 90.433594 115.664062 89.964844 116.5 C 89.496094 117.316406 88.855469 117.976562 88.039062 118.480469 C 87.25 118.964844 86.300781 119.316406 85.191406 119.539062 C 84.109375 119.738281 82.9375 119.835938 81.679688 119.835938 C 80.667969 119.835938 79.621094 119.78125 78.535156 119.671875 C 77.449219 119.582031 76.378906 119.4375 75.316406 119.242188 L 75.316406 99.394531 C 76.179688 99.261719 77.128906 99.152344 78.164062 99.0625 C 79.199219 98.953125 80.222656 98.898438 81.234375 98.898438 C 82.960938 98.898438 84.367188 99.0625 85.453125 99.394531 C 86.535156 99.703125 87.386719 100.121094 88.003906 100.648438 C 88.621094 101.15625 89.039062 101.726562 89.261719 102.367188 C 89.484375 103.003906 89.59375 103.644531 89.59375 104.28125 C 89.59375 105.25 89.324219 106.109375 88.78125 106.855469 C 88.261719 107.605469 87.558594 108.199219 86.671875 108.640625 C 88.226562 109.148438 89.273438 109.828125 89.816406 110.6875 C 90.382812 111.546875 90.667969 112.449219 90.667969 113.394531 M 79.867188 110.621094 L 79.867188 116.171875 C 80.1875 116.214844 80.53125 116.246094 80.902344 116.269531 C 81.296875 116.289062 81.679688 116.300781 82.050781 116.300781 C 82.566406 116.300781 83.074219 116.269531 83.566406 116.203125 C 84.058594 116.113281 84.488281 115.972656 84.859375 115.773438 C 85.253906 115.554688 85.574219 115.257812 85.820312 114.882812 C 86.066406 114.484375 86.191406 113.992188 86.191406 113.394531 C 86.191406 112.40625 85.832031 111.699219 85.117188 111.28125 C 84.429688 110.84375 83.492188 110.621094 82.308594 110.621094 L 79.867188 110.621094 M 81.640625 107.253906 C 82.800781 107.253906 83.675781 107.035156 84.269531 106.59375 C 84.859375 106.128906 85.15625 105.503906 85.15625 104.710938 C 85.15625 104.226562 85.070312 103.839844 84.898438 103.554688 C 84.722656 103.246094 84.488281 103.015625 84.195312 102.863281 C 83.898438 102.683594 83.554688 102.574219 83.160156 102.53125 C 82.765625 102.464844 82.355469 102.433594 81.9375 102.433594 C 81.59375 102.433594 81.234375 102.441406 80.867188 102.464844 C 80.496094 102.488281 80.164062 102.519531 79.867188 102.5625 L 79.867188 107.253906 L 81.640625 107.253906 "/>
</g>
</svg>
