<svg width="24" xmlns="http://www.w3.org/2000/svg" height="24" viewBox="0 0 24 24" xmlns:xlink="http://www.w3.org/1999/xlink">
<path style="fill:#909ea9" d="M 12 5.5 C 9.566406 5.5 8.222656 6.917969 7.609375 8.28125 C 7.183594 9.226562 7.070312 10.136719 7.03125 10.625 C 5.289062 11.058594 4 12.625 4 14.5 C 4 16.710938 5.789062 18.5 8 18.5 L 8 11 C 8 11 8.003906 9.839844 8.515625 8.703125 C 9.027344 7.566406 9.933594 6.5 12 6.5 C 14.066406 6.5 14.972656 7.566406 15.484375 8.703125 C 15.996094 9.839844 16 11 16 11 L 16 18.5 C 18.210938 18.5 20 16.710938 20 14.5 C 20 12.625 18.710938 11.058594 16.96875 10.625 C 16.929688 10.136719 16.816406 9.226562 16.390625 8.28125 C 15.777344 6.917969 14.433594 5.5 12 5.5 Z "/>
</svg>
