<svg width="24" xmlns="http://www.w3.org/2000/svg" height="24" viewBox="0 0 24 24" xmlns:xlink="http://www.w3.org/1999/xlink">
<path style="fill:#909ea9" d="M 5.203125 7 C 4.542969 7 4 7.542969 4 8.203125 L 4 15.78125 C 4 16.441406 4.542969 17 5.203125 17 L 6 17 L 6 17.5 L 18 17.5 L 18 17 L 18.796875 17 C 19.457031 17 20 16.441406 20 15.78125 L 20 8.203125 C 20 7.542969 19.457031 7 18.796875 7 Z M 5.203125 8 L 18.796875 8 C 18.921875 8 19 8.078125 19 8.203125 L 19 15.78125 C 19 15.90625 18.921875 16 18.796875 16 L 17.703125 16 L 17.5 11.546875 L 17.5 11.5 C 17.5 11.425781 17.492188 11.355469 17.484375 11.28125 C 17.371094 10.003906 16.304688 9 15 9 C 13.621094 9 12.5 10.121094 12.5 11.5 C 12.5 12.878906 13.621094 14 15 14 C 15.855469 14 16.613281 13.5625 17.0625 12.90625 L 17.203125 16 L 17 16 L 17 16.5 L 7 16.5 L 7 16 L 6.984375 16 L 7.78125 12.375 C 8.054688 12.753906 8.5 13 9 13 C 9.828125 13 10.5 12.328125 10.5 11.5 C 10.5 10.671875 9.828125 10 9 10 C 8.265625 10 7.660156 10.535156 7.53125 11.234375 L 7.515625 11.234375 L 6.453125 16 L 5.203125 16 C 5.078125 16 5 15.90625 5 15.78125 L 5 8.203125 C 5 8.078125 5.078125 8 5.203125 8 Z M 5.75 8.5 C 5.613281 8.5 5.5 8.613281 5.5 8.75 C 5.5 8.886719 5.613281 9 5.75 9 C 5.886719 9 6 8.886719 6 8.75 C 6 8.613281 5.886719 8.5 5.75 8.5 Z M 18.25 8.5 C 18.113281 8.5 18 8.613281 18 8.75 C 18 8.886719 18.113281 9 18.25 9 C 18.386719 9 18.5 8.886719 18.5 8.75 C 18.5 8.613281 18.386719 8.5 18.25 8.5 Z M 9 10.5 C 9.550781 10.5 10 10.949219 10 11.5 C 10 12.050781 9.550781 12.5 9 12.5 C 8.449219 12.5 8 12.050781 8 11.5 C 8 10.949219 8.449219 10.5 9 10.5 Z M 15 10.5 C 15.550781 10.5 16 10.949219 16 11.5 C 16 12.050781 15.550781 12.5 15 12.5 C 14.449219 12.5 14 12.050781 14 11.5 C 14 10.949219 14.449219 10.5 15 10.5 Z M 5.75 15 C 5.613281 15 5.5 15.113281 5.5 15.25 C 5.5 15.386719 5.613281 15.5 5.75 15.5 C 5.886719 15.5 6 15.386719 6 15.25 C 6 15.113281 5.886719 15 5.75 15 Z M 8.9375 15 C 8.695312 15 8.5 15.195312 8.5 15.4375 L 8.5 15.5625 C 8.5 15.804688 8.695312 16 8.9375 16 L 15.0625 16 C 15.304688 16 15.5 15.804688 15.5 15.5625 L 15.5 15.4375 C 15.5 15.195312 15.304688 15 15.0625 15 Z M 18.25 15 C 18.113281 15 18 15.113281 18 15.25 C 18 15.386719 18.113281 15.5 18.25 15.5 C 18.386719 15.5 18.5 15.386719 18.5 15.25 C 18.5 15.113281 18.386719 15 18.25 15 Z "/>
</svg>
