<svg width="24" xmlns="http://www.w3.org/2000/svg" height="24" viewBox="0 0 24 24" xmlns:xlink="http://www.w3.org/1999/xlink">
<path style="fill:#909ea9" d="M 7.15625 6 L 7.15625 6.5 L 7 6.5 L 7 8 L 7.203125 8 C 7.210938 8.105469 7.226562 8.210938 7.265625 8.328125 C 7.34375 8.5625 7.511719 8.796875 7.796875 8.96875 C 8.082031 9.140625 8.46875 9.25 9 9.25 C 9.332031 9.25 9.621094 9.089844 9.90625 8.890625 C 10.191406 8.691406 10.476562 8.433594 10.78125 8.1875 C 11.394531 7.699219 12.082031 7.25 13 7.25 C 13.417969 7.25 13.703125 7.433594 13.953125 7.765625 C 14.203125 8.097656 14.378906 8.566406 14.5 9.046875 C 14.640625 9.613281 14.691406 10.121094 14.71875 10.5 L 5.40625 10.5 C 4.636719 10.5 4 11.136719 4 11.90625 L 4 17.09375 C 4 17.863281 4.636719 18.5 5.40625 18.5 L 18.59375 18.5 C 19.363281 18.5 20 17.863281 20 17.09375 L 20 11.90625 C 20 11.136719 19.363281 10.5 18.59375 10.5 L 15.21875 10.5 C 15.199219 10.105469 15.15625 9.570312 15 8.9375 C 14.871094 8.417969 14.671875 7.886719 14.359375 7.46875 C 14.046875 7.050781 13.582031 6.75 13 6.75 C 11.917969 6.75 11.105469 7.285156 10.46875 7.796875 C 10.148438 8.050781 9.871094 8.308594 9.625 8.484375 C 9.378906 8.660156 9.167969 8.75 9 8.75 C 8.53125 8.75 8.230469 8.65625 8.046875 8.546875 C 7.863281 8.4375 7.78125 8.3125 7.734375 8.171875 C 7.714844 8.113281 7.691406 8.058594 7.6875 8 L 8 8 L 8 6.5 L 7.828125 6.5 L 7.828125 6 Z M 5.40625 11.5 L 18.59375 11.5 C 18.828125 11.5 19 11.671875 19 11.90625 L 19 17.09375 C 19 17.328125 18.828125 17.5 18.59375 17.5 L 5.40625 17.5 C 5.171875 17.5 5 17.328125 5 17.09375 L 5 11.90625 C 5 11.671875 5.171875 11.5 5.40625 11.5 Z M 5.5 12 L 5.5 13 L 6 13 L 6 12 Z M 6.5 12 L 6.5 13 L 7.5 13 L 7.5 12 Z M 8 12 L 8 13 L 9 13 L 9 12 Z M 9.5 12 L 9.5 13 L 10.5 13 L 10.5 12 Z M 11 12 L 11 13 L 12 13 L 12 12 Z M 12.5 12 L 12.5 13 L 13.5 13 L 13.5 12 Z M 14 12 L 14 13 L 15 13 L 15 12 Z M 15.5 12 L 15.5 13 L 17.5 13 L 17.5 12 Z M 18 12 L 18 13 L 18.5 13 L 18.5 12 Z M 5.5 13.5 L 5.5 14 L 6.5 14 L 6.5 13.5 Z M 7 13.5 L 7 14 L 8 14 L 8 13.5 Z M 8.5 13.5 L 8.5 14 L 9.5 14 L 9.5 13.5 Z M 10 13.5 L 10 14 L 11 14 L 11 13.5 Z M 11.5 13.5 L 11.5 14 L 12.5 14 L 12.5 13.5 Z M 13 13.5 L 13 14 L 14 14 L 14 13.5 Z M 14.5 13.5 L 14.5 14 L 15.5 14 L 15.5 13.5 Z M 16 13.5 L 16 14 L 16.5 14 L 16.5 15.5 L 17.5 15.5 L 17.5 13.5 Z M 18 13.5 L 18 14 L 18.5 14 L 18.5 13.5 Z M 5.5 14.5 L 5.5 15.5 L 7 15.5 L 7 14.5 Z M 7.5 14.5 L 7.5 15.5 L 8.5 15.5 L 8.5 14.5 Z M 9 14.5 L 9 15.5 L 10 15.5 L 10 14.5 Z M 10.5 14.5 L 10.5 15.5 L 11.5 15.5 L 11.5 14.5 Z M 12 14.5 L 12 15.5 L 13 15.5 L 13 14.5 Z M 13.5 14.5 L 13.5 15.5 L 14.5 15.5 L 14.5 14.5 Z M 15 14.5 L 15 15.5 L 16 15.5 L 16 14.5 Z M 18 14.5 L 18 15.5 L 18.5 15.5 L 18.5 14.5 Z M 5.5 16 L 5.5 17 L 6.5 17 L 6.5 16 Z M 7 16 L 7 17 L 8 17 L 8 16 Z M 8.5 16 L 8.5 17 L 15 17 L 15 16 Z M 15.5 16 L 15.5 17 L 16.5 17 L 16.5 16 Z M 17 16 L 17 17 L 17.5 17 L 17.5 16 Z M 18 16 L 18 17 L 18.5 17 L 18.5 16 Z "/>
</svg>
