<?xml version="1.0" encoding="UTF-8" standalone="yes"?>
<svg xmlns="http://www.w3.org/2000/svg" xmlns:xlink="http://www.w3.org/1999/xlink" width="96px" height="96px" viewBox="0 0 72 72" version="1.1">
  <g id="surface1">
    <path style=" stroke:none;fill-rule:nonzero;fill:rgb(14.901961%,54.509804%,82.352941%);fill-opacity:1;" d="M 9 69 L 63 69 C 69 69 69 69 69 63 L 69 24 L 36 3 L 3 24 L 3 63 C 3 69 3 69 9 69 Z M 9 69 "/>
    <path style=" stroke:none;fill-rule:nonzero;fill:rgb(0%,0%,0%);fill-opacity:0.101961;" d="M 9 69 L 63 69 C 69 69 69 69 69 63 L 69 24 L 36 3 L 3 24 L 3 63 C 3 69 3 69 9 69 Z M 9 69 "/>
    <path style=" stroke:none;fill-rule:evenodd;fill:rgb(52.156863%,60%,0%);fill-opacity:1;" d="M 18.417969 27.5625 L 32.253906 44.855469 C 35.722656 48.320312 35.710938 48.3125 39.171875 44.855469 L 53.003906 27.5625 C 54.933594 25.152344 54.21875 25.152344 49.441406 25.152344 C 47.714844 25.105469 45.773438 25.046875 43.257812 25.152344 C 43.257812 25.113281 43.257812 25.191406 43.257812 25.152344 C 43.257812 7.96875 32.253906 -0.105469 18.3125 0 C 25.335938 6.808594 28.382812 14.777344 28.164062 25.152344 C 25.691406 25.152344 24.804688 25.105469 23.136719 25.152344 C 20.621094 25.152344 16.710938 25.152344 18.417969 27.5625 Z M 18.417969 27.5625 "/>
    <path style=" stroke:none;fill-rule:nonzero;fill:rgb(14.901961%,54.509804%,82.352941%);fill-opacity:1;" d="M 9 69 L 63 69 C 69 69 69 69 69 63 L 69 27 L 3 63 C 3 69 3 69 9 69 Z M 9 69 "/>
    <path style=" stroke:none;fill-rule:nonzero;fill:rgb(14.901961%,54.509804%,82.352941%);fill-opacity:1;" d="M 63 69 L 9 69 C 3 69 3 69 3 63 L 3 27 L 69 63 C 69 69 69 69 63 69 Z M 63 69 "/>
    <path style=" stroke:none;fill-rule:nonzero;fill:rgb(100%,100%,100%);fill-opacity:0.101961;" d="M 63 69 L 9 69 C 3 69 3 69 3 63 L 3 27 L 69 63 C 69 69 69 69 63 69 Z M 63 69 "/>
  </g>
</svg>