<svg xmlns="http://www.w3.org/2000/svg" viewBox="0 0 256 256" xmlns:xlink="http://www.w3.org/1999/xlink">
<g style="fill:#8ccd7c" transform="translate(0 208)">
<path d="m 75.016066,-126.89055 c -25.96619,0 -47.015941,21.17557 -47.016066,47.297338 6.3e-5,1.632178 0.025,3.213429 0.18375,4.802855 0.386875,10.124407 -0.18375,24.756796 11.570376,60.229004 10.00819,30.203468 17.631,29.56028 17.631,29.56028 l 11.754,-5.9119313 c 0,0 -5.877,-11.823859 -5.87693,-23.6483487 0,-5.683073 1.34456,-12.685846 2.75475,-18.475174 2.89137,0.559568 5.94568,0.739384 8.99918,0.739384 25.966204,0 47.016014,-21.175561 47.016074,-47.296697 0,-26.12114 -21.04987,-47.29671 -47.016074,-47.29671 z"/>
<path d="m 180.98393,-33.10946 c 25.96619,0 47.01594,-21.175561 47.01606,-47.297326 -6e-5,-1.632177 -0.025,-3.213429 -0.18375,-4.802854 -0.38625,-10.124407 0.18375,-24.7568 -11.57037,-60.22901 -10.00813,-30.20347 -17.63094,-29.56028 -17.63094,-29.56028 l -11.75407,5.91193 c 0,0 5.87707,11.82386 5.877,23.64835 -6e-5,5.68307 -1.34462,12.68584 -2.75481,18.47517 -2.89131,-0.55957 -5.94569,-0.73938 -8.99919,-0.73938 -25.96618,0 -47.01593,21.17557 -47.01606,47.296703 7e-5,26.121136 21.04994,47.296697 47.01606,47.296697 z"/>
</g>
</svg>
