<svg xmlns="http://www.w3.org/2000/svg" viewBox="0 0 256 256" xmlns:xlink="http://www.w3.org/1999/xlink">
<g style="stroke-linecap:round;stroke:#8ab685;fill:none">
<g>
<rect width="191.927" x="32.037" y="32.037" rx="2.348" height="191.927" style="stroke-width:8.073"/>
</g>
<g style="fill-rule:evenodd;stroke-linejoin:round">
<path style="stroke-width:5.223" d="m 62.725373,117.03654 h 31.340622 v 31.34063 H 62.725373 v -31.34063 z"/>
<path style="stroke-width:5.063" d="m 193.38964,132.70684 c 0,8.69442 -7.05635,15.75077 -15.75076,15.75077 -8.69441,0 -15.75074,-7.05635 -15.75074,-15.75077 0,-8.69438 7.05633,-15.75074 15.75074,-15.75074 8.69441,0 15.75076,7.05636 15.75076,15.75074 z"/>
<path style="stroke-width:5.223" d="M 69.805041,60.622171 H 186.16232 c 3.94102,0 7.11379,3.462305 7.11379,7.76308 v 15.806682 c 0,4.300713 -3.17271,7.763079 -7.11379,7.763079 H 69.805041 c -3.943694,0 -7.11432,-3.463145 -7.11432,-7.762037 V 68.386301 c 0,-4.300722 3.172715,-7.763088 7.113798,-7.763088 z"/>
</g>
</g>
<g style="fill-rule:evenodd">
<g>
<path style="fill:#8ab685" d="m 185.47613,132.70684 c 0,4.32501 -3.51015,7.83517 -7.83516,7.83517 -4.325,0 -7.83515,-3.51016 -7.83515,-7.83517 0,-4.32497 3.51015,-7.83512 7.83515,-7.83512 4.32501,0 7.83516,3.51015 7.83516,7.83512 z"/>
</g>
<g style="stroke-linecap:round;stroke:#8ab685;fill:none;stroke-linejoin:round">
<g style="stroke-width:5.223">
<path d="m 151.48914,60.611724 v 31.312468 h 32.59372 c 5.09885,0 9.16504,-4.284951 9.16504,-9.658142 V 70.339345 c 0,-5.373359 -4.06619,-9.727621 -9.16504,-9.727621 h -32.59372 z"/>
<path d="M 62.725373,164.04752 H 94.065995 V 195.3882 H 62.725373 v -31.34068 z"/>
</g>
<g>
<path style="stroke-width:5.063" d="m 193.38964,179.71786 c 0,8.69442 -7.05635,15.75078 -15.75076,15.75078 -8.69441,0 -15.75074,-7.05636 -15.75074,-15.75078 0,-8.69442 7.05633,-15.75078 15.75074,-15.75078 8.69441,0 15.75076,7.05636 15.75076,15.75078 z"/>
</g>
</g>
</g>
<g style="fill:#8ab685">
<rect width="5.223" x="70.561" y="124.872" rx="0" height="5.223"/>
<rect width="5.223" x="70.561" y="135.319" rx="0" height="5.223"/>
<rect width="5.223" x="81.007" y="135.319" rx="0" height="5.223"/>
<rect width="5.223" x="81.007" y="124.872" rx="0" height="5.223"/>
<rect width="5.223" x="75.784" y="130.095" rx="0" height="5.223"/>
<rect width="5.223" x="164.548" y="71.67" rx="0" height="5.223"/>
<rect width="5.223" x="174.995" y="71.67" rx="0" height="5.223"/>
<rect width="5.223" x="169.771" y="76.894" rx="0" height="5.223"/>
</g>
</svg>
