<svg xmlns="http://www.w3.org/2000/svg" viewBox="0 0 256 256" xmlns:xlink="http://www.w3.org/1999/xlink">
<g style="fill:#f9b083" transform="translate(0 208)">
<path d="M 34.911663,-170 C 31.13098,-170 28,-166.85274 28,-163.05244 l 0,143.895151 c 0,3.800299 3.13098,6.947554 6.911663,6.947554 l 86.060887,0 c 3.78069,0 6.91167,-3.147255 6.91167,-6.947554 l 0,-143.895151 c 0,-3.8003 -3.13098,-6.94756 -6.91167,-6.94756 l -86.060887,0 z m 21.849648,48.86127 c 4.672485,-0.31143 9.926521,1.1985 14.046182,2.91416 3.107324,1.29381 7.134613,7.17215 7.134613,7.17215 0,0 4.02729,-5.87834 7.134614,-7.17215 6.591457,-2.74525 16.35877,-5.07242 21.40375,0 6.72654,6.76164 3.64034,19.853656 0,28.688616 -5.14833,12.49465 -28.538364,28.689565 -28.538364,28.689565 0,0 -23.390026,-16.194915 -28.53836,-28.689565 -3.64034,-8.83496 -6.726543,-21.926976 0,-28.688616 1.891844,-1.90251 4.554017,-2.72542 7.357565,-2.91416 z"/>
<path d="m 139.75252,-165.03894 c -3.65189,-0.98334 -7.48636,1.24098 -8.4649,4.91293 L 94.240887,-21.135294 c -0.97845,3.671011 1.23529,7.526045 4.88718,8.510329 L 182.25652,9.7672606 c 3.65189,0.9833404 7.48655,-1.24286 8.46509,-4.91387 L 227.76833,-134.13827 c 0.97845,-3.67101 -1.23547,-7.5251 -4.88736,-8.50938 l -83.12845,-22.39129 z m 30.48484,52.76348 11.44155,40.208416 -29.90723,29.069887 -11.44155,-40.208427 29.90723,-29.069876 z"/>
</g>
</svg>
