<svg xmlns="http://www.w3.org/2000/svg" viewBox="0 0 256 256" xmlns:xlink="http://www.w3.org/1999/xlink">
<path style="fill:#caa87a" d="m 116.21025,203.58454 c 0,4.53491 -3.80756,8.21118 -8.50443,8.21118 -4.69687,0 -8.504428,-3.67627 -8.504428,-8.21118 0,-4.53492 3.807558,-8.21119 8.504428,-8.21119 4.69687,0 8.50443,3.67627 8.50443,8.21119 z M 75.447627,76.311113 c 0,4.53491 -3.807567,8.21118 -8.50443,8.21118 -4.696862,0 -8.504429,-3.67627 -8.504429,-8.21118 0,-4.534914 3.807567,-8.211185 8.504429,-8.211185 4.696863,0 8.50443,3.676271 8.50443,8.211185 z M 220.90275,104.17049 c 0,4.53492 -3.80756,8.21119 -8.50443,8.21119 -4.69687,0 -8.50443,-3.67627 -8.50443,-8.21119 0,-4.534907 3.80756,-8.211177 8.50443,-8.211177 4.69687,0 8.50443,3.67627 8.50443,8.211177 z m -95.82559,123.50427 c -5.72735,-1.66996 -11.18291,-7.18089 -15.54808,-15.7059 -1.67309,-3.26749 -1.99511,-3.68317 -2.85839,-3.68984 -1.50709,-0.0117 -4.01785,-1.17788 -4.88246,-2.26786 -1.982725,-2.49957 -1.45323,-5.58076 0.71123,-7.79368 0.62078,-0.63469 0.71803,-1.41399 0.71803,-1.73177 0,-0.31779 -0.41793,-2.07009 -0.92875,-3.89402 -1.10964,-3.96218 -3.1459,-13.2191 -3.495973,-15.8929 -0.137427,-1.04961 -0.364645,-2.07511 -0.504944,-2.27888 -0.168079,-0.24412 -2.136504,0.26961 -5.771455,1.5063 -10.391489,3.53539 -21.169085,6.26685 -31.273579,7.92594 -4.688112,0.76976 -16.734593,0.86008 -19.824971,0.14864 -7.099577,-1.63439 -10.94303,-5.21264 -11.371381,-10.58677 -0.23693,-2.97265 0.550805,-5.78606 2.800071,-10.00045 2.970188,-5.56518 6.456433,-9.98992 12.984754,-16.48025 5.334833,-5.30379 15.971347,-14.12305 21.861648,-18.12658 l 1.274804,-0.86645 -1.859132,-1.34818 C 42.912314,109.04579 29.306269,92.950033 30.036471,82.736283 c 0.614589,-8.59651 10.33529,-12.413877 27.374154,-10.749916 3.809037,0.371976 3.835633,0.369376 4.965925,-0.484375 3.446566,-2.603343 8.544293,-1.712723 10.751019,1.878301 0.771389,1.25531 1.170794,1.52916 2.806833,1.9246 3.151644,0.76179 12.283068,3.47472 17.272912,5.13175 2.574538,0.85496 4.769025,1.47543 4.876642,1.37882 0.107618,-0.0966 0.537997,-2.00792 0.956393,-4.24737 4.233831,-22.661638 11.271801,-39.081069 19.735791,-46.043162 4.33403,-3.564988 9.28834,-4.468543 13.79335,-2.515608 4.18221,1.81299 9.1086,7.153329 12.91561,14.000828 2.69669,4.850436 6.3546,14.873827 8.62545,23.635387 1.17257,4.524077 2.91087,12.912495 2.91087,14.046795 0,0.44733 0.16979,0.90753 0.37733,1.02267 0.20753,0.11515 2.91204,-0.6331 6.01001,-1.66275 27.62059,-9.18005 49.9936,-10.90364 58.67202,-4.52002 5.7112,4.20103 5.13633,12.61746 -1.49766,21.92688 -1.13308,1.59004 -1.36978,2.18965 -1.14259,2.894317 0.15764,0.48885 0.30134,1.98017 0.31936,3.31406 0.0294,2.17061 -0.0831,2.56151 -1.07058,3.72303 -1.56017,1.83504 -3.97494,2.72884 -6.61892,2.44989 -1.96964,-0.20781 -2.11263,-0.16849 -3.08614,0.84837 -1.82295,1.90415 -11.94267,10.27765 -16.65322,13.7796 -2.52548,1.8775 -4.59176,3.5474 -4.59176,3.7109 0,0.16349 1.28784,1.23834 2.86191,2.38854 4.5784,3.34556 12.24686,9.65132 15.71169,12.91969 15.93986,15.03612 22.17932,26.9546 18.06397,34.5054 -4.02106,7.37773 -17.9807,8.66984 -40.07188,3.70907 -5.63212,-1.26474 -19.03085,-5.18406 -23.82321,-6.96864 -1.55973,-0.5808 -2.95865,-0.93759 -3.10871,-0.79286 -0.15006,0.14474 -0.65006,2.34409 -1.11114,4.88747 -4.01416,22.14257 -10.77233,38.27479 -18.96109,45.26135 -1.24403,1.06139 -3.12511,2.32248 -4.18017,2.80241 -2.39788,1.09076 -5.83914,1.42578 -8.04348,0.78305 z m 5.13734,-4.49387 c 9.20682,-2.45436 17.08549,-18.90057 21.65146,-45.19604 0.52216,-3.00708 0.82251,-5.57836 0.66748,-5.71398 -0.15503,-0.13561 -2.77173,-1.18899 -5.8149,-2.34087 -3.04317,-1.15185 -8.4872,-3.46666 -12.09787,-5.14399 l -6.56482,-3.04971 -6.21837,2.85384 c -5.27477,2.4208 -11.15321,4.81973 -17.57062,7.1704 -1.24727,0.45687 -1.43076,0.6693 -1.42943,1.6549 0.002,1.56506 0.92729,6.57032 2.48831,13.46224 1.97135,8.70343 2.01004,8.79706 3.89413,9.42182 2.06429,0.68452 3.25812,1.45937 4.18387,3.30833 0.95047,1.89836 0.88862,4.1993 -0.61919,6.24383 -1.25733,1.70486 -1.29334,1.55303 1.59332,6.71665 3.47527,6.21651 7.0678,9.63784 11.35332,10.81228 1.47323,0.40375 2.36941,0.36383 4.48331,-0.1997 z m 82.26073,-42.66128 c 2.86251,-0.50557 5.97452,-2.03098 7.17281,-3.51592 1.54952,-1.92019 1.97988,-3.41973 1.77542,-6.18672 -0.42311,-5.72602 -5.73215,-13.3484 -16.0362,-23.02372 -6.03662,-5.66828 -20.94306,-17.03652 -22.03799,-16.80704 -0.3158,0.0661 -2.97737,1.73992 -5.91463,3.71941 -2.93727,1.97949 -7.92559,5.15173 -11.08515,7.04941 l -5.74465,3.45033 -0.45997,6.54068 c -0.25298,3.59738 -0.813,9.01997 -1.24449,12.05021 -0.43149,3.03024 -0.70634,5.57971 -0.61078,5.66551 0.44384,0.39841 10.27699,3.77576 16.28488,5.5933 16.64948,5.03686 29.68274,6.91602 37.90075,5.46455 z M 58.067068,180.18848 c 9.667911,-1.14066 22.421018,-4.35007 35.433386,-8.91706 2.866599,-1.0061 3.991942,-1.5633 3.988718,-1.97498 -0.002,-0.31541 -0.339353,-2.98302 -0.748616,-5.92802 -0.409261,-2.945 -0.951756,-8.43539 -1.205541,-12.20089 l -0.461424,-6.84633 -2.128862,-1.12763 c -3.712375,-1.9664 -12.298805,-7.20488 -16.077944,-9.80897 -2.005407,-1.38187 -3.783705,-2.51249 -3.951764,-2.51249 -0.412046,0 -2.552009,1.50756 -8.237945,5.80346 -5.873848,4.43788 -14.737553,12.16894 -18.677137,16.29048 -13.642068,14.27216 -14.72059,24.45059 -2.863571,27.02462 2.717236,0.58989 10.710059,0.69578 14.9307,0.19781 z m 51.171202,-14.76093 c 2.87984,-1.14323 7.08734,-2.9409 9.35001,-3.99482 l 4.11394,-1.91621 -3.73235,-1.74504 c -4.61989,-2.16001 -11.28313,-5.60441 -14.71707,-7.60762 -3.97034,-2.31612 -3.70741,-2.44572 -3.69982,1.82355 0.007,3.74949 0.37257,7.8318 1.17239,13.08052 0.51956,3.40943 -0.0954,3.37998 7.5129,0.35962 z m 44.51791,0.64072 c 1.38222,-9.29673 2.06306,-17.72654 1.43169,-17.72654 -0.22601,0 -0.51004,0.14395 -0.63117,0.31988 -0.35875,0.52107 -11.86168,6.55933 -16.70545,8.76924 -2.46347,1.12392 -4.48112,2.13438 -4.48367,2.24548 -0.0118,0.51655 18.22886,8.171 19.5026,8.18398 0.45938,0.005 0.68745,-0.45664 0.886,-1.79204 z m -19.07354,-12.29995 c 6.23804,-3.00921 14.78518,-7.52698 19.05576,-10.07234 l 2.02266,-1.20555 0.24859,-4.15024 c 0.30693,-5.12407 0.24641,-22.69837 -0.0827,-24.02601 -0.20177,-0.81389 -1.28995,-1.55323 -6.6801,-4.53868 -3.54149,-1.96151 -6.4839,-3.5664 -6.5387,-3.5664 -0.0548,0 -2.0511,-0.97629 -4.4362,-2.16955 -7.9983,-4.00146 -9.46066,-4.681277 -10.06988,-4.681277 -1.43385,0 -19.92196,9.262027 -26.57998,13.315837 -1.654414,1.0073 -1.804786,1.22075 -2.037365,2.89172 -0.457809,3.28925 -0.04439,26.01097 0.488485,26.84908 0.42458,0.66775 7.25958,4.69845 12.21088,7.20094 6.95028,3.51281 14.87283,7.27315 15.33922,7.28057 0.30609,0.005 3.48281,-1.40278 7.05938,-3.1281 z m -10.32381,-15.96437 c -6.73658,-2.16572 -9.89274,-9.11028 -6.68935,-14.71873 1.49559,-2.61845 3.90587,-4.3051 7.2517,-5.07456 2.92499,-0.67266 4.76154,-0.46304 7.94327,0.90662 6.71575,2.891 8.53302,11.09088 3.58019,16.15463 -2.69772,2.75814 -8.16227,3.99341 -12.08581,2.73204 z m -29.917869,-9.86367 c 0,-9.09904 -0.09943,-11.44411 -0.476986,-11.24952 -2.98618,1.5391 -17.266866,10.98927 -17.266866,11.42625 0,0.15378 1.10303,1.02926 2.451183,1.94551 3.237368,2.20026 14.641352,9.29823 15.006477,9.34023 0.157398,0.0181 0.286192,-5.14001 0.286192,-11.46247 z m 74.636609,6.78542 c 4.12105,-2.59048 8.11695,-5.20929 8.87978,-5.81959 1.35911,-1.08735 1.37167,-1.12034 0.62379,-1.64166 -6.46763,-4.50852 -16.36294,-10.7791 -17.01004,-10.7791 -0.18277,0 -0.37972,5.16389 -0.43766,11.47531 -0.0579,6.31141 0.0199,11.47524 0.17298,11.47515 0.15308,-9e-5 3.6501,-2.11964 7.77115,-4.71011 z M 82.166409,119.15488 c 4.593988,-2.95911 9.390569,-5.96066 10.659053,-6.6701 l 2.306347,-1.28988 0.243055,-3.77744 c 0.357893,-5.5622 0.929277,-11.121987 1.62033,-15.766387 0.917968,-6.16939 1.121992,-5.5394 -2.172655,-6.70856 -3.716971,-1.31902 -15.495977,-4.84793 -18.76245,-5.6211 l -2.544963,-0.60238 -1.177848,1.20422 c -2.329162,2.38131 -5.968982,3.0125 -8.885832,1.54089 -1.52906,-0.77145 -3.053611,-2.70097 -3.49816,-4.42742 -0.22135,-0.85965 -0.401502,-0.9267 -3.100148,-1.1537 -4.931499,-0.41483 -12.280472,-0.009 -14.838624,0.82041 -12.228839,3.96253 -8.556572,15.87806 10.052057,32.616217 3.472869,3.12378 8.890026,7.59867 12.038122,9.9442 8.397743,6.25681 8.269342,6.17611 9.048002,5.6867 0.363548,-0.22851 4.419725,-2.83656 9.013714,-5.79567 z m 105.555231,2.9609 c 5.86176,-4.20683 9.29624,-6.93132 14.61627,-11.59463 l 4.2958,-3.76549 -0.24008,-1.62469 c -0.34157,-2.31116 0.0938,-4.3032 1.45449,-5.694387 1.5781,-1.61344 3.06538,-2.27041 5.39165,-2.11367 l 1.97384,0.13298 1.80361,-2.38859 c 4.02702,-5.33326 5.50087,-10.92193 3.75761,-14.24846 -1.01289,-1.93283 -1.93659,-2.73535 -4.41646,-3.83713 -6.14879,-2.73185 -18.61772,-2.11306 -33.96135,1.68537 -6.65797,1.64824 -23.43311,6.84432 -24.13739,7.47653 -0.11315,0.10158 0.16757,2.92374 0.62385,6.27148 0.76853,5.63892 1.55327,14.301537 1.56658,17.293227 0.006,1.22049 0.14262,1.35318 3.34455,3.23464 5.55657,3.26505 12.70022,7.83036 15.9313,10.18124 1.67899,1.22161 3.13856,2.23102 3.24349,2.24315 0.10494,0.0122 2.24344,-1.45108 4.75224,-3.25157 z m -32.22658,-16.02821 c 0,-4.2512 -1.63074,-18.033187 -2.13377,-18.033187 -0.58577,0 -19.61676,8.29802 -19.61676,8.55343 0,0.10197 0.89282,0.55307 1.98402,1.00244 2.98865,1.23077 14.30028,7.106237 16.9046,8.780547 1.25925,0.80957 2.41832,1.48523 2.57573,1.50147 0.1574,0.0162 0.28618,-0.79587 0.28618,-1.8047 z m -53.48125,0.85992 c 2.50904,-1.56499 13.21132,-7.206147 16.74591,-8.826737 l 3.9038,-1.78988 -2.37744,-1.17305 c -4.99422,-2.46417 -16.98715,-7.20479 -17.6496,-6.97659 -0.53648,0.1848 -0.72596,1.21758 -1.4849,8.09416 -1.310797,11.876667 -1.299195,12.020277 0.86223,10.672097 z m 29.73433,-14.736907 c 3.52928,-1.5843 14.05315,-5.85304 18.97708,-7.69758 2.71668,-1.01769 2.64459,-0.26815 0.91118,-9.4752 -3.47659,-18.465937 -8.97493,-32.417561 -15.12622,-38.381672 -3.07317,-2.97965 -5.37958,-4.088826 -8.48946,-4.082633 -2.71718,0.0059 -4.8582,0.891933 -7.17104,2.969272 -7.17187,6.441597 -13.0959,21.018522 -16.81636,41.379013 -1.06943,5.85251 -1.1151,6.31572 -0.65541,6.64604 0.22658,0.16282 3.15939,1.37885 6.51737,2.7023 3.35798,1.32345 8.767,3.56379 12.02002,4.97855 3.25305,1.41475 5.96068,2.58503 6.01695,2.6006 0.0563,0.0156 1.77343,-0.72184 3.81589,-1.63869 z"/>
</svg>
