<svg width="47.5" xmlns="http://www.w3.org/2000/svg" height="47.5" viewBox="0 0 38 38" xmlns:xlink="http://www.w3.org/1999/xlink">
<g style="fill:#f9b082">
<path d="M 5.183594 5.640625 C 4.621094 5.640625 4.15625 6.109375 4.15625 6.671875 L 4.15625 28.03125 C 4.15625 28.59375 4.621094 29.0625 5.183594 29.0625 L 17.957031 29.0625 C 18.519531 29.0625 18.984375 28.59375 18.984375 28.03125 L 18.984375 6.671875 C 18.984375 6.109375 18.519531 5.640625 17.957031 5.640625 Z M 8.425781 12.894531 C 9.117188 12.847656 9.898438 13.070312 10.511719 13.324219 C 10.972656 13.519531 11.570312 14.390625 11.570312 14.390625 C 11.570312 14.390625 12.167969 13.519531 12.628906 13.324219 C 13.605469 12.917969 15.058594 12.574219 15.804688 13.324219 C 16.804688 14.328125 16.347656 16.273438 15.804688 17.585938 C 15.042969 19.4375 11.570312 21.84375 11.570312 21.84375 C 11.570312 21.84375 8.097656 19.4375 7.332031 17.585938 C 6.792969 16.273438 6.335938 14.328125 7.332031 13.324219 C 7.613281 13.042969 8.007812 12.921875 8.425781 12.894531 Z "/>
<path d="M 20.746094 6.378906 C 20.203125 6.230469 19.632812 6.5625 19.488281 7.105469 L 13.988281 27.738281 C 13.84375 28.28125 14.171875 28.855469 14.714844 29 L 27.054688 32.324219 C 27.597656 32.472656 28.164062 32.140625 28.308594 31.59375 L 33.808594 10.964844 C 33.953125 10.417969 33.625 9.847656 33.082031 9.699219 Z M 25.269531 14.210938 L 26.96875 20.175781 L 22.527344 24.492188 L 20.832031 18.523438 Z "/>
</g>
</svg>
