<svg xmlns="http://www.w3.org/2000/svg" viewBox="0 0 256 256" xmlns:xlink="http://www.w3.org/1999/xlink">
<defs>
<filter id="filter7817">
<feGaussianBlur stdDeviation=".73795"/>
</filter>
</defs>
<g style="fill:none;stroke:#6a98af">
<path style="opacity:.268;filter:url(#filter7817)" d="m -875.375,-181.59375 c -4.91183,5.6e-4 -11.11653,4.69263 -11.0625,11.9375 0.0523,7.01229 2.38253,10.80007 4.15625,15.09375 l 5.25,-2.1875 c -1.2055,-2.46943 -2.75521,-4.93394 -3.3125,-6.15625 -1.56018,-3.42248 -2.13025,-4.95392 -2,-7.5625 0.12595,-2.522 0.96662,-4.07568 2.5,-5.5625 1.53341,-1.48668 3.65452,-2.22555 6.1875,-1.875 5.36448,0.7432 7.09073,4.80332 7.21875,6.78125 0.10537,1.62681 -1.06611,5.63326 -5.1875,5.4375 -2.85712,-0.13595 -4.4631,-1.71971 -4.65625,-4.40625 -0.14229,-1.98 1.7736,-3.97857 4.875,-2.96875 0.4992,0.16244 0.53295,-0.73279 -0.0312,-1.1875 -1.45256,-1.17058 -7.20695,-0.72309 -7.1875,3.875 0.018,4.26106 3.4265,7.1059 6.71875,7.125 6.895,0.0406 8.249,-5.40233 8,-9.15625 -0.27589,-4.15969 -5.52194,-9.18819 -11.46875,-9.1875 z" transform="translate(0 1)"/>
<path style="opacity:.411;stroke-width:1.2" d="m -853.84375,-184.625 c -3.50913,1.44754 -10.63821,4.40905 -10.78125,4.46875 a 1.3300854,1.3300854 0 0 1 -1.34375,-0.1875 c -2.33454,-1.90653 -5.38328,-3.37018 -8.40625,-3.53125 a 1.3300854,1.3300854 0 0 1 -0.0312,0 c -7.38625,-0.46449 -14.35385,6.29145 -14.375,13.5625 a 1.3300854,1.3300854 0 0 1 0,0.0625 c -0.31885,6.4417 2.5025,12.60126 5.34375,18.6875 3.33516,-1.39164 10.50797,-4.39363 10.6875,-4.46875 a 1.3300854,1.3300854 0 0 1 1.34375,0.1875 c 2.29299,1.91617 5.21162,3.34962 8.15625,3.5625 a 1.3300854,1.3300854 0 0 1 0.0312,0 c 7.2609,0.60926 14.19323,-5.86236 14.5625,-12.96875 a 1.3300854,1.3300854 0 0 1 0.0312,-0.0312 c 0.52554,-6.62157 -2.43912,-12.97948 -5.21875,-19.34375 z"/>
</g>
<g style="fill:#b577d1">
<g transform="matrix(.85616 0 0 .85615 -76.92662 -93.62336)">
<path d="m 333.0473,281.96933 c 0,51.74447 -41.94718,93.69165 -93.69165,93.69165 -51.74447,0 -93.69165,-41.94718 -93.69165,-93.69165 0,-51.74447 41.94718,-93.69165 93.69165,-93.69165 51.74447,0 93.69165,41.94718 93.69165,93.69165 z"/>
<rect width="21.545" x="228.583" y="175.172" rx="3.536" height="18.467"/>
<rect width="32.625" x="223.043" y="162.84" rx="8.936" height="17.871" ry="8.935"/>
</g>
<g>
<rect width="41.108" x="108.06" y="31.053" rx="16.074" ry="10.013" height="21.081" style="stroke:#b577d1;stroke-linejoin:round;stroke-width:6.107"/>
</g>
</g>
<path style="fill:#f9f9f9" d="m 317.49095,281.96933 a 78.1353,78.1353 0 1 1 -156.2706,0 78.1353,78.1353 0 1 1 156.2706,0 z" transform="matrix(.85616 0 0 .85615 -76.92662 -93.62336)"/>
<rect width="7.87" x="124.065" y="85.278" rx="3.027" height="15.74" style="fill:#b577d1" id="rect3984"/>
<use width="744.094" height="1052.362" style="fill:#b577d1" xlink:href="#rect3984" transform="translate(0 107.76047)"/>
<use width="744.094" height="1052.362" style="fill:#b577d1" xlink:href="#rect3984" transform="matrix(0 -.99999 1.00001 0 -19.63459 275.78465)"/>
<use width="744.094" height="1052.362" style="fill:#b577d1" xlink:href="#rect3984" transform="matrix(0 -.99999 1.00001 0 86.30975 275.78465)"/>
<g style="fill:#808080" transform="matrix(.85616 0 0 .85615 -76.92662 -93.62336)">
<use width="744.094" height="1052.362" xlink:href="#rect3984" transform="matrix(.25365 .14645 -.21784 .37731 257.75344 108.96678)"/>
<use width="744.094" height="1052.362" xlink:href="#rect3984" transform="matrix(.14645 .25365 -.37731 .21784 340.67692 141.54553)"/>
<use width="744.094" height="1052.362" xlink:href="#rect3984" transform="matrix(.25365 -.14645 -.21784 -.37731 257.75344 453.16108)"/>
<use width="744.094" height="1052.362" xlink:href="#rect3984" transform="matrix(.14645 -.25365 -.37731 -.21784 340.67692 420.58233)"/>
<use width="744.094" height="1052.362" xlink:href="#rect3984" transform="matrix(-.25365 -.14645 .21784 -.37731 221.02885 453.16108)"/>
<use width="744.094" height="1052.362" xlink:href="#rect3984" transform="matrix(-.14645 -.25365 .37731 -.21784 138.10537 420.58233)"/>
<use width="744.094" height="1052.362" xlink:href="#rect3984" transform="matrix(-.25365 .14645 .21784 .37731 221.02885 109.40206)"/>
<use width="744.094" height="1052.362" xlink:href="#rect3984" transform="matrix(-.14645 .25365 .37731 .21784 138.10537 141.98081)"/>
</g>
<g style="fill:#b577d1">
<g>
<path d="m 128.23614,103.01766 c -1.65411,0.007 -3.33306,0.095 -5.02816,0.27742 -0.52346,0.0176 -0.99319,0.32629 -1.21712,0.79976 -0.22395,0.47346 -0.16456,1.03238 0.15387,1.44821 0.31843,0.41584 0.84253,0.61891 1.358,0.52616 12.82319,-1.38027 24.19987,2.48892 33.51528,11.40863 0.34689,0.40376 0.89291,0.57557 1.4085,0.44322 0.51559,-0.13235 0.91135,-0.54593 1.02087,-1.06685 0.10952,-0.52091 -0.0862,-1.05884 -0.5048,-1.38762 -8.61983,-8.25367 -19.12771,-12.49431 -30.70644,-12.44893 z"/>
<path d="m 132.31068,111.25338 c -0.69665,0.10201 -1.20884,0.70602 -1.19564,1.40997 0.0132,0.70396 0.54767,1.28833 1.24765,1.36416 7.12995,0.92163 12.84432,3.53454 18.22274,8.30507 0.57933,0.5123 1.46428,0.45796 1.97658,-0.12137 0.51231,-0.57933 0.45797,-1.46427 -0.12137,-1.97657 -5.74435,-5.0951 -12.09878,-7.99692 -19.71384,-8.98126 -0.13793,-0.0207 -0.27819,-0.0207 -0.41612,0 l 0,0 z"/>
<path d="m 127.10913,95.440811 c -4.63687,0.126497 -9.35109,0.889312 -14.04416,2.28866 -0.50605,0.120847 -0.90318,0.512631 -1.03089,1.016999 -0.1277,0.504369 0.0351,1.037932 0.42271,1.38504 0.38757,0.34711 0.93579,0.45038 1.42309,0.26806 17.8692,-5.328112 35.64125,-0.875773 48.8945,12.24087 0.5506,0.54582 1.43943,0.54194 1.98525,-0.009 0.54582,-0.5506 0.54194,-1.43942 -0.009,-1.98524 -10.44226,-10.33463 -23.73117,-15.585229 -37.64182,-15.205722 z"/>
</g>
<g style="fill-rule:evenodd">
<path d="m 174.9182,74.939768 -2.72428,10.793182 10.59444,8.172787 10.22459,-5.976018 c 0,-5.297174 -13.55427,-14.503433 -18.09475,-12.989951 z"/>
<path d="m 174.80646,109.55604 c -0.93718,-1.07596 -58.0528,45.25734 -58.0528,45.25734 l 2.17209,2.7272 c 0,0 56.81789,-46.90859 55.88071,-47.98454 z"/>
</g>
</g>
</svg>
