<svg xmlns="http://www.w3.org/2000/svg" viewBox="0 0 256 256" xmlns:xlink="http://www.w3.org/1999/xlink">
<g style="fill-rule:evenodd;color:#000">
<g>
<path style="fill:#f9f9f9;stroke:#5c93d8;stroke-width:7.56" d="m 76.147202,33.439152 c 0,0 14.590508,-1.463093 30.297228,0.951013 0,0 0.7973,2.926187 -1.75405,3.804044 L 102.2985,62.627883 126.85519,176.164 c 0,0 5.50858,14.31334 -11.63012,17.41704 -17.1387,3.10369 -42.846754,7.86268 -62.917072,-7.65578 0,0 -4.735693,-6.00047 3.608148,-33.51987 L 78.692575,63.019076 77.790539,38.293001 c 0,0 -3.608147,-3.517518 -1.643337,-4.853849 z"/>
<path style="opacity:.466;fill:#d3d7cf" d="m 354.28572,716.4693 a 88.928574,25.178572 0 1 1 -177.85715,0 88.928574,25.178572 0 1 1 177.85715,0 z" transform="matrix(.34804 0 0 .31228 -.84344 -39.69444)"/>
<path style="fill:#aec4e2" d="m 114.7811,151.12107 c -23.467662,12.63706 -40.977068,9.02107 -52.457675,2.51658 l -0.02958,0.13579 c -0.02115,0.0819 -0.04418,0.16339 -0.06906,0.24441 -4.053388,13.36876 -4.812425,21.21721 -4.69623,25.31061 0.04244,1.49507 0.184276,2.34732 0.315713,2.93299 17.279356,12.32876 39.375961,8.45425 56.117966,5.4224 6.56423,-1.18873 6.6512,-2.88533 7.06408,-5.0241 0.41288,-2.13877 -0.33544,-4.49906 -0.33544,-4.49906 -0.10389,-0.27181 -0.18632,-0.55014 -0.24666,-0.83282 l -5.66311,-26.2068 z"/>
<path style="fill:#f9f9f9;stroke:#5c93d8;stroke-width:7.56" d="m 143.35921,70.894366 -0.71756,-20.410165 c 0,0 0.0797,-2.633568 -1.3554,-3.43827 l 1.03648,-2.340951 c 0,0 8.61079,-1.902025 29.34047,0.585236 0,0 3.26891,-0.219463 3.66756,2.633569 0,0 -1.83378,1.902025 -1.67432,5.12083 l -2.39189,19.386 c 0,0 25.11481,92.906485 31.81209,131.239555 0,0 -3.02972,15.94772 -20.41076,18.7276 -17.38104,2.77988 -52.78096,10.24166 -80.52685,-13.16785 0,0 -9.413777,-6.28934 3.18919,-33.21223 l 34.92837,-95.824852 c 0,0 3.15713,-4.965908 3.60815,-6.621211 0.45102,-1.655301 -0.45102,-2.482954 -0.50553,-2.677261 z"/>
<path style="opacity:.466;fill:#d3d7cf" d="m 577.14287,815.57648 a 118.92857,39.642857 0 1 1 -237.85715,0 118.92857,39.642857 0 1 1 237.85715,0 z" transform="matrix(.35364 0 0 .31838 -8.45705 -51.9332)"/>
</g>
<g style="fill:#aec4e2">
<path style="opacity:.6" d="m 85.409932,39.939084 0.828746,22.857395 c 0.02355,0.605412 -0.03946,1.21105 -0.187454,1.801434 l -9.037282,35.467437 c 3.151342,0.22313 6.358483,1.42632 9.570047,3.9197 6.104701,4.73955 11.840715,3.93041 16.989301,0.13579 L 94.891185,63.973295 c -0.141032,-0.6463 -0.180897,-1.307751 -0.118392,-1.964378 l 2.121196,-21.689631 c -4.207957,-0.315184 -8.16217,-0.416974 -11.385397,-0.380202 -0.04165,5.79e-4 -0.05726,-5.8e-4 -0.09866,0 z"/>
<path style="opacity:.6" d="m 153.20928,51.734405 c -0.84554,-0.0056 -1.3982,0.01796 -2.10146,0.02714 l 0.61169,17.335411 c 0.64534,1.656694 0.9309,4.087923 0.31571,6.345756 -0.86644,3.179933 -1.79271,4.109562 -2.72302,5.703033 -0.68741,1.177425 -1.03146,1.709381 -1.32205,2.172585 l -18.11403,49.697878 c 10.85753,-4.03639 22.07944,-2.92036 29.77568,11.52375 0,-1e-5 14.43118,16.55302 10.82303,-28.96779 -0.34555,-4.35943 -0.16609,-8.22771 0.4341,-11.66859 -4.50784,-17.35098 -7.81389,-29.619563 -7.81389,-29.619563 -0.24164,-0.890299 -0.30846,-1.812978 -0.19732,-2.724782 l 2.35798,-19.109688 c -4.78811,-0.435508 -8.98455,-0.694952 -12.04642,-0.715142 z m -2.57503,15.298613 c 0.023,0.03515 0.0772,0.112737 0.15785,0.244415 -0.013,-0.02346 -0.0286,-0.06487 -0.0395,-0.08147 -0.11109,-0.170172 -0.18857,-0.270316 -0.11839,-0.162944 z m 0.19732,0.307782 c 0.0816,0.156708 0.17899,0.365502 0.26638,0.515989 -0.10206,-0.226172 -0.1913,-0.388649 -0.26638,-0.515989 z"/>
<path d="m 116.88256,166.19338 -4.38051,12.02163 c -0.0641,0.18374 -0.13651,0.36494 -0.21706,0.54315 -5.94756,12.70538 -6.29323,19.78344 -5.79136,22.96602 0.24761,1.57014 0.6586,2.22317 0.78929,2.417 24.79344,20.8998 56.16481,14.29011 74.084,11.42417 10.87108,-1.73869 13.44706,-9.69554 13.9999,-12.06689 -1.56001,-8.69392 -4.05129,-20.16374 -6.95555,-32.67024 -32.20772,7.97377 -55.70183,2.9212 -71.52871,-4.63484 z"/>
</g>
</g>
</svg>
