<svg width="47.5" xmlns="http://www.w3.org/2000/svg" height="47.5" viewBox="0 0 38 38">
<g style="fill:#555">
<path d="m 31.667969,16.441406 0,5.117188 c 0,0.335937 -0.359375,0.609375 -0.796875,0.609375 l -4.742188,0 c -0.441406,0 -0.796875,-0.273438 -0.796875,-0.609375 l 0,-5.117188 c 0,-0.335937 0.355469,-0.609375 0.796875,-0.609375 l 4.742188,0 c 0.4375,0 0.796875,0.273438 0.796875,0.609375 z"/>
<path d="m 22.167969,16.441406 0,5.117188 c 0,0.335937 -0.359375,0.609375 -0.796875,0.609375 l -4.742188,0 c -0.441406,0 -0.796875,-0.273438 -0.796875,-0.609375 l 0,-5.117188 c 0,-0.335937 0.355469,-0.609375 0.796875,-0.609375 l 4.742188,0 c 0.4375,0 0.796875,0.273438 0.796875,0.609375 z"/>
<path d="m 12.667969,16.441406 0,5.117188 c 0,0.335937 -0.359375,0.609375 -0.796875,0.609375 l -4.742188,0 c -0.441406,0 -0.796875,-0.273438 -0.796875,-0.609375 l 0,-5.117188 c 0,-0.335937 0.355469,-0.609375 0.796875,-0.609375 l 4.742188,0 c 0.4375,0 0.796875,0.273438 0.796875,0.609375 z"/>
</g>
</svg>
