<svg xmlns="http://www.w3.org/2000/svg" viewBox="0 0 256 256" xmlns:xlink="http://www.w3.org/1999/xlink">
<g style="fill:#fc0" transform="matrix(.96318 0 0 .96318 -26.04656 203.41428)">
<path d="m 137.68028,-112.03747 c 4.006,1.883 24.16,-2.059 26.225,-0.286 2.096,1.798 -5.067,8.584 -1.043,11.582 9.553,7.117 34.82,9.205 57.498,0.837 l 8.594,23.625 c -12.461,6.872 -31.113,10.854 -54.996,8.59 l 62.73,63.146 -23.246,20.913 -48.256,-50.675 c -19.522,34.198 -45.049,47.599 -65.13,59.831 l -16.874001,-26.614 c 79.656001,-50.287 35.510001,-72.796 54.821001,-101.526 1.545,-2.297 -2.943,-7.212 -0.323,-9.423 z"/>
<path d="m 198.55059,67.168678 c 0,22.238023 -16.31798,40.265502 -36.44723,40.265502 -20.12924,0 -36.44722,-18.027479 -36.44722,-40.265502 0,-22.238023 16.31798,-40.265503 36.44722,-40.265503 20.12925,0 36.44723,18.02748 36.44723,40.265503 z" transform="matrix(1.0426 0 0 .94374 -15.76687 -207.50917)"/>
</g>
</svg>
