<svg width="48" xmlns="http://www.w3.org/2000/svg" viewBox="0 0 48 48" height="48" xmlns:xlink="http://www.w3.org/1999/xlink">
<defs>
<linearGradient id="linearGradient3795">
<stop offset="0" style="stop-color:#5281cc"/>
<stop offset="1" style="stop-color:#599fe1"/>
</linearGradient>
<linearGradient gradientTransform="translate(0 -1004.362)" xlink:href="#linearGradient3795" id="linearGradient3042" y1="1053.158" y2="1004.847" gradientUnits="userSpaceOnUse" x2="0"/>
</defs>
<rect width="48" x="0" y="0" rx="1.945" height="48" style="fill:url(#linearGradient3042)"/>
<g transform="matrix(.16 0 0 .16 3.51992 3.51992)">
<rect width="191.987" x="32.007" y="32.007" rx="3.746" height="191.987" style="fill:none;stroke:#fff;stroke-linejoin:round;stroke-width:8.013"/>
<path style="fill:#fff;fill-rule:evenodd;color:#000" d="M 200.27142,72.999299 A 21.19229,18.846351 63.678184 1 1 162.07798,62.781536 21.19229,18.846351 63.678184 1 1 200.27142,72.999299 z"/>
<path style="fill:#fff;fill-rule:evenodd;color:#000" d="M 56.504734,72.991453 A 18.739194,21.071535 26.322873 1 0 94.480927,62.831899 18.739194,21.071535 26.322873 1 0 56.504734,72.991453 z"/>
<path style="fill:#fff;color:#000" d="m 128.46875,98.3125 c -0.13186,0.01291 -0.25058,0.04655 -0.375,0.0625 -0.009,-9.22e-4 -0.0223,9.02e-4 -0.0313,0 -2.05587,-0.207596 -6.21686,0.121705 -14.71875,8.34375 C 103.58509,116.15621 103,124.9375 103,124.9375 c 0,0 1.70676,1.1093 4.6875,2.375 0.89514,1.76372 3.01962,4.61073 8.03125,7.59375 7.13509,4.24556 10.62044,4.38816 12.34375,4.28125 0.2073,0.0109 0.45157,0.0313 0.71875,0.0313 1.93874,-0.038 5.3612,-0.65858 11.5,-4.3125 5.01164,-2.98313 7.13611,-5.83007 8.03125,-7.59375 2.98074,-1.26571 4.6875,-2.375 4.6875,-2.375 0,0 -0.5851,-8.78136 -10.34375,-18.21875 -7.31899,-7.07808 -11.43852,-8.33255 -13.75,-8.40625 -0.16063,-0.0051 -0.30564,-0.01291 -0.4375,0 z"/>
<path style="opacity:.308;fill:#fff;color:#000" d="m 217.99996,221.54834 0,-31.03494 c 0,-6.5621 -2.57763,-30.50275 -91.19512,-30.50275 -88.61755,0 -88.80488,26.41622 -88.80488,33.19255 l 0,27.5085 c 0,6.60523 43.5001,5.62704 87.73126,5.60367 45.7434,-0.024 92.26874,1.52563 92.26874,-4.76703 z"/>
<path style="opacity:.76;fill:#3187c7;stroke:#3187c7;stroke-linejoin:round;stroke-linecap:round;stroke-width:2.78" d="m 78.946326,67.246245 a 4.610088,4.6100668 0 0 1 -9.220176,0 4.610088,4.6100668 0 1 1 9.220176,0 z"/>
<path style="opacity:.76;fill:#3187c7;stroke:#3187c7;stroke-linejoin:round;stroke-linecap:round;stroke-width:2.78" d="m 184.94627,67.245905 a 4.61009,4.6100688 0 0 1 -9.22018,0 4.61009,4.6100688 0 1 1 9.22018,0 z"/>
</g>
<path style="opacity:.15;fill:#fff" d="M 0,0 0,48 16.78125,48 29.625,0 0,0 z"/>
</svg>
