<?xml version="1.0" encoding="UTF-8" standalone="no"?>
<svg
   xmlns:dc="http://purl.org/dc/elements/1.1/"
   xmlns:cc="http://creativecommons.org/ns#"
   xmlns:rdf="http://www.w3.org/1999/02/22-rdf-syntax-ns#"
   xmlns:svg="http://www.w3.org/2000/svg"
   xmlns="http://www.w3.org/2000/svg"
   xmlns:xlink="http://www.w3.org/1999/xlink"
   xmlns:sodipodi="http://sodipodi.sourceforge.net/DTD/sodipodi-0.dtd"
   xmlns:inkscape="http://www.inkscape.org/namespaces/inkscape"
   viewBox="0 0 48 48"
   id="svg2"
   version="1.1"
   inkscape:version="0.48.4 r9939"
   width="100%"
   height="100%"
   sodipodi:docname="Google Calendar-google.com.svg">
  <metadata
     id="metadata28">
    <rdf:RDF>
      <cc:Work
         rdf:about="">
        <dc:format>image/svg+xml</dc:format>
        <dc:type
           rdf:resource="http://purl.org/dc/dcmitype/StillImage" />
      </cc:Work>
    </rdf:RDF>
  </metadata>
  <sodipodi:namedview
     pagecolor="#ffffff"
     bordercolor="#666666"
     borderopacity="1"
     objecttolerance="10"
     gridtolerance="10"
     guidetolerance="10"
     inkscape:pageopacity="0"
     inkscape:pageshadow="2"
     inkscape:window-width="1366"
     inkscape:window-height="713"
     id="namedview26"
     showgrid="false"
     inkscape:zoom="4.9166667"
     inkscape:cx="-22.576271"
     inkscape:cy="24"
     inkscape:window-x="0"
     inkscape:window-y="29"
     inkscape:window-maximized="1"
     inkscape:current-layer="svg2" />
  <defs
     id="defs4">
    <linearGradient
       id="linearGradient3795">
      <stop
         offset="0"
         style="stop-color:#13a6fd"
         id="stop7" />
      <stop
         offset="1"
         style="stop-color:#2975b6"
         id="stop9" />
    </linearGradient>
    <linearGradient
       gradientTransform="translate(0 -2056.7244)"
       xlink:href="#linearGradient3795"
       id="linearGradient3801"
       y1="1053.158"
       y2="1004.847"
       x2="0"
       gradientUnits="userSpaceOnUse" />
  </defs>
  <g
     transform="translate(0 -1004.3622)"
     id="g12">
    <rect
       width="48"
       x="0"
       y="-1052.362"
       rx="1.945"
       height="48"
       style="fill:url(#linearGradient3801)"
       transform="scale(1 -1)"
       id="rect14" />
  </g>
  <g
     transform="matrix(0.15999997,0,0,0.15999997,3.5200038,36.8)"
     id="g4026">
    <path
       sodipodi:nodetypes="ccccccccccccccccccccccccccccccccccccccc"
       inkscape:connector-curvature="0"
       id="rect3176"
       d="m 67.092099,-179.96156 c -1.302656,0.42278 -2.236256,1.76804 -2.16826,3.12439 l 0,15.622 -12.615316,0 c -0.392967,-0.0625 -0.789593,-0.0625 -1.182686,0 -2.89143,0.54365 -5.176821,3.33311 -5.124972,6.2488 l 0,168.717571 C 46.00118,17.023072 49.00596,19.999375 52.308523,20 l 151.383817,0 c 3.30256,-6.25e-4 6.30734,-2.976928 6.30766,-6.248799 l 0,-168.717571 c -3.2e-4,-3.27187 -3.0051,-6.24817 -6.30766,-6.2488 l -12.61531,0 0,-15.622 c -2e-4,-1.63588 -1.50255,-3.12424 -3.15383,-3.12439 l -18.92298,0 c -0.3261,-0.0513 -0.65972,-0.0513 -0.98557,0 -1.30268,0.42278 -2.23627,1.76804 -2.16828,3.12439 l 0,15.622 -75.691898,0 0,-15.622 c -1.92e-4,-1.63588 -1.502551,-3.12424 -3.153829,-3.12439 l -18.922977,0 c -0.326103,-0.0513 -0.659716,-0.0513 -0.985567,0 z m 4.139396,6.24878 12.615318,0 0,24.99521 c 0,9.17792 -12.615318,9.17792 -12.615318,0 z m 100.922555,0 12.61532,0 0,24.99521 c 0,9.37319 -12.61532,9.17792 -12.61532,0 z m -113.537869,56.2392 138.768499,0 0,124.9759816 -138.768499,0 z"
       style="font-size:medium;font-style:normal;font-variant:normal;font-weight:normal;font-stretch:normal;text-indent:0;text-align:start;text-decoration:none;line-height:normal;letter-spacing:normal;word-spacing:normal;text-transform:none;direction:ltr;block-progression:tb;writing-mode:lr-tb;text-anchor:start;baseline-shift:baseline;color:#000000;fill:#ffffff;fill-opacity:1;fill-rule:nonzero;stroke:none;stroke-width:1.99999976;marker:none;visibility:visible;display:inline;overflow:visible;enable-background:accumulate;font-family:Sans;-inkscape-font-specification:Sans" />
    <g
       transform="matrix(6.3076581,0,0,6.2487991,-23.383374,-6506.0096)"
       id="text3997"
       style="font-size:20px;font-style:normal;font-weight:bold;line-height:125%;letter-spacing:0px;word-spacing:0px;fill:#000000;fill-opacity:1;stroke:none;font-family:Sans;-inkscape-font-specification:Sans Bold">
      <path
         style="fill:#ffffff;fill-opacity:1"
         sodipodi:nodetypes="cccccccc"
         inkscape:connector-curvature="0"
         id="path4002"
         d="m 18,1025.3622 12,0 0,3 -6,11 -4,0 6,-11 -8,0 0,-3" />
    </g>
  </g>
  <g
     transform="translate(0 -1004.3622)"
     id="g22">
    <path
       style="opacity:.15;fill:#fff"
       d="M 0 0 L 0 48 L 16.78125 48 L 29.625 0 L 0 0 z "
       transform="translate(0 1004.3622)"
       id="path24" />
  </g>
</svg>
