<svg xmlns="http://www.w3.org/2000/svg" viewBox="0 0 48 48" xmlns:xlink="http://www.w3.org/1999/xlink">
<defs>
<linearGradient gradientTransform="translate(0 -2056.7244)" xlink:href="#linearGradient3795" id="linearGradient3801" y1="1053.158" y2="1004.847" x2="0" gradientUnits="userSpaceOnUse"/>
<linearGradient id="linearGradient3795">
<stop offset="0" style="stop-color:#d868d3"/>
<stop offset="1" style="stop-color:#bd3096"/>
</linearGradient>
<linearGradient gradientTransform="matrix(1.36079 0 0 1.36217 -13.6019 991.15913)" xlink:href="#linearGradient4892" id="linearGradient3107" y1="37.766" x1="28.513" y2="30.828" gradientUnits="userSpaceOnUse" x2="28.422"/>
<linearGradient id="linearGradient4892">
<stop offset="0" style="stop-color:#fff"/>
<stop offset="1" style="stop-color:#fff;stop-opacity:0"/>
</linearGradient>
</defs>
<g transform="translate(0 -1004.3622)">
<rect width="48" x="0" y="-1052.362" rx="1.945" height="48" style="fill:url(#linearGradient3801)" transform="scale(1 -1)"/>
<path style="opacity:.15;fill:#fff" d="M 0 0 L 0 48 L 16.78125 48 L 29.625 0 L 0 0 z " transform="translate(0 1004.3622)"/>
<path style="fill:#4a4a4a" d="m 17.015809,1032.2866 0.383354,0 c 0.113981,0 0.201376,0.025 0.262169,0.077 0.06119,0.051 0.09178,0.1223 0.09178,0.2161 -2e-6,0.095 -0.03059,0.1665 -0.09178,0.2174 -0.06079,0.051 -0.148182,0.075 -0.262169,0.075 l -0.152382,0 0,0.3111 -0.230972,0 0,-0.8966 m 0.230972,0.1675 0,0.2504 0.127791,0 c 0.0448,0 0.07938,-0.012 0.103786,-0.033 0.0244,-0.022 0.03659,-0.053 0.03659,-0.094 0,-0.04 -0.01224,-0.072 -0.03659,-0.092 -0.0244,-0.022 -0.05898,-0.033 -0.103786,-0.033 l -0.127791,0 m 1.078075,-0.016 c -0.0704,0 -0.124988,0.027 -0.163781,0.078 -0.03879,0.052 -0.05818,0.1254 -0.05818,0.2198 0,0.095 0.01939,0.1672 0.05818,0.2192 0.03879,0.052 0.09339,0.078 0.163781,0.078 0.07079,0 0.125587,-0.026 0.164382,-0.078 0.03879,-0.052 0.05818,-0.1251 0.05818,-0.2192 -1e-6,-0.095 -0.01939,-0.1677 -0.05818,-0.2198 -0.03879,-0.052 -0.09361,-0.078 -0.164382,-0.078 m 0,-0.1676 c 0.143983,0 0.256771,0.041 0.338362,0.1238 0.08159,0.083 0.122388,0.1963 0.122388,0.3416 -1e-6,0.145 -0.04079,0.2587 -0.122388,0.3411 -0.0816,0.083 -0.194379,0.1238 -0.338362,0.1238 -0.143584,0 -0.256371,-0.041 -0.33836,-0.1238 -0.0816,-0.083 -0.12239,-0.1961 -0.12239,-0.3411 0,-0.1453 0.0408,-0.2591 0.12239,-0.3416 0.08199,-0.083 0.194776,-0.1238 0.33836,-0.1238 m 0.634727,0.016 0.257971,0 0.325762,0.6149 0,-0.6149 0.218975,0 0,0.8966 -0.257971,0 -0.325762,-0.615 0,0.615 -0.218975,0 0,-0.8966 m 0.902296,0 0.252571,0 0.203976,0.3194 0.203976,-0.3194 0.253171,0 -0.34136,0.5189 0,0.3777 -0.230973,0 0,-0.3777 -0.341361,-0.5189"/>
</g>
<g style="color:#000">
<g style="stroke-width:1.21">
<g style="fill:#fff;stroke:#fff" transform="translate(0 -1004.3622)">
<path d="m 16.76066,1024.5323 17.690233,0 c 0,0 0.255147,-6.4703 -1.445837,-8.088 -1.613813,-1.5346 -3.912263,-1.1918 -3.912263,-1.1918 l -0.08504,0.6811 c 0,0 -0.850491,-0.596 -2.381376,-0.6811 -1.530886,-0.085 -2.636525,0.085 -2.636525,0.085 l 0.510294,0.5108 c 0,0 -2.126228,-0.8513 -4.16741,-0.8513 -2.04118,0 -2.466427,0.085 -2.466427,0.085 l 0.765444,0.4256 c 0,0 -1.700985,-0.7663 -3.061772,-0.7663 -1.360786,0 -2.551476,0.596 -2.551476,0.596 0,0 1.956131,1.0217 2.721575,2.3838 0.765442,1.3621 1.020589,6.8108 1.020589,6.8108 z"/>
<path d="m 15.825119,1024.5748 0,5.9596 c 0,1.2915 1.048558,2.3411 2.338853,2.3411 l 4.422558,0 c -0.325581,3.2669 -0.969541,5.7296 -0.807967,8.5685 0.101208,1.7784 1.640367,4.0865 4.082361,4.0865 2.18702,0 3.759738,-2.1339 3.912263,-4.2567 0.170098,-2.3674 -0.889403,-5.1253 -1.360787,-8.3983 l 4.124885,0 c 1.290299,0 2.338854,-1.0496 2.338854,-2.3411 l 0,-5.9596 c 0,0 -19.05102,0 -19.05102,0 z"/>
</g>
<g transform="translate(0 -1004.3622)">
<path style="opacity:.573;fill:none;stroke:url(#linearGradient3107)" d="m 23.989842,1031.2282 c -0.260464,2.6134 -1.213051,7.387 -1.083793,9.6583 0.08097,1.4225 0.89922,3.3761 2.852816,3.3761 1.749615,0 2.657888,-1.7289 2.779907,-3.4273 0.136078,-1.8939 -1.042012,-6.9887 -1.41912,-9.6071 l -3.12981,0 z"/>
</g>
</g>
<g style="fill:#fff" transform="translate(0 -1004.3622)">
<path d="m 16.505512,1025.1894 0,5.172 c 0,1.1301 0.832441,1.8358 1.961447,1.8358 l 13.852388,0 c 1.129011,0 1.876398,-0.7057 1.876398,-1.8358 l 0,-5.172 c 0,0 -17.690233,0 -17.690233,0 z"/>
<path d="m 33.345253,1025.2559 0,2.6112 c 0,0.5579 -0.51208,1.0071 -1.148164,1.0071 l -13.69292,0 c -0.636083,0 -1.148164,-0.4492 -1.148164,-1.0071 l 0,-2.6112 c 0,0 15.989248,0 15.989248,0 z"/>
<path d="m 14.591906,1015.5079 c 0,0 1.57341,0.9791 1.956132,2.4264 0.382721,1.4473 0.595344,2.852 0.595344,2.852 l 1.063113,-2.3413 1.19069,1.1494 0.425247,-1.873 2.551476,0.6811 -0.680395,-1.4047 2.721575,1.2769 -0.08504,-0.9364 1.148164,1.0216 0.935541,-0.8513 2.04118,0.8939 1.190689,-1.1494 1.700984,1.1068 c 0,0 -0.297672,-0.7662 -0.127574,-0.7235 0.170099,0.042 1.65846,0.5533 1.65846,0.5533 l 0.382722,0.4682 c 0,0 -0.25929,-1.3043 -0.850493,-1.8303 -1.148163,-1.0218 -2.764099,-0.9367 -2.764099,-0.9367 l -0.170099,1.192 c 0,0 -1.403311,-0.979 -2.593999,-1.1493 -1.190689,-0.1703 -2.381378,0.043 -2.381378,0.043 l -0.255148,0.511 c 0,0 -1.488361,-0.5961 -2.806622,-0.7237 -1.318264,-0.1277 -3.019247,-0.085 -3.019247,-0.085 l -0.08504,0.4682 c 0,0 -1.233213,-0.5959 -1.786032,-0.6385 -0.552821,-0.043 -1.913608,0.043 -1.956132,0 z"/>
<path style="opacity:.515" d="m 30.25,36.5 a 1.125,1.125 0 1 1 -2.25,0 1.125,1.125 0 1 1 2.25,0 z" transform="matrix(1.20959 0 0 1.21082 -10.1141 996.68348)"/>
</g>
</g>
</svg>
