<svg width="256" xmlns="http://www.w3.org/2000/svg" height="256" viewBox="0 0 256 256" xmlns:xlink="http://www.w3.org/1999/xlink">
<g style="stroke:#a57953">
<path style="fill:#a57953" d="M 4.34668 24.5 C 3.887207 24.453125 3.5 23.991699 3.5 23.498047 L 3.5 4.506836 C 3.5 3.97998 3.945801 3.5 4.4375 3.5 L 27.5625 3.5 C 28.054199 3.5 28.5 3.97998 28.5 4.506836 L 28.5 20.741699 C 28.5 21.268555 27.781738 22.025391 27.290527 22.025391 L 18.825195 22.010254 L 18.825195 23.334473 C 18.825195 23.856934 18.414062 24.5 17.925293 24.5 L 4.4375 24.5 C 4.408203 24.5 4.378906 24.5 4.34668 24.5 Z " transform="matrix(8 0 0 8 0 8)"/>
<path style="fill:#e9b080" d="M 1.549805 5.5 C 0.980469 5.546875 0.5 6.008301 0.5 6.501953 L 0.5 25.493164 C 0.5 26.02002 1.053223 26.5 1.662598 26.5 L 30.337402 26.5 C 30.946777 26.5 31.5 26.02002 31.5 25.493164 L 31.5 9.258301 C 31.5 8.731445 30.609375 7.974609 30 7.974609 L 19.503418 7.989746 L 19.503418 6.665527 C 19.503418 6.143066 18.993164 5.5 18.387695 5.5 L 1.662598 5.5 C 1.626465 5.5 1.589844 5.5 1.549805 5.5 Z " transform="matrix(8 0 0 8 0 8)"/>
</g>
<g style="fill:#a57953">
<path d="M 158.976562 104.027344 C 155.425781 104.078125 151.929688 106.207031 151.386719 110.148438 C 150.480469 116.480469 157.1875 114.121094 162.558594 114.121094 C 167.929688 114.121094 169.71875 124.394531 168.382812 129.949219 C 167.046875 135.5 152.78125 148.578125 120.496094 135.5 C 93.953125 124.707031 80.683594 139.058594 80 139.367188 C 82.527344 160.777344 103.019531 184 127.886719 184 C 154.457031 184 176 158.414062 176 134.90625 C 176 132.207031 175.628906 129.535156 175.089844 126.992188 C 174.605469 125.691406 174.125 124.394531 173.753906 123.226562 C 173.101562 121.101562 172.363281 119.335938 171.738281 117.675781 C 171.707031 117.625 171.765625 117.546875 171.738281 117.46875 C 169.207031 112.484375 165.625 107.96875 161.222656 104.207031 C 161.191406 104.183594 161.136719 104.234375 161.109375 104.207031 C 160.425781 104.050781 159.6875 104 158.976562 104 Z "/>
<path d="M 151.617188 119.050781 C 151.617188 120.375 150.394531 121.4375 148.914062 121.4375 C 147.4375 121.4375 146.246094 120.375 146.246094 119.050781 C 146.246094 117.753906 147.4375 116.6875 148.914062 116.6875 C 150.394531 116.6875 151.617188 117.753906 151.617188 119.050781 Z "/>
<path d="M 146.246094 110.460938 C 146.246094 111.371094 145.390625 112.121094 144.339844 112.121094 C 143.289062 112.121094 142.4375 111.371094 142.4375 110.460938 C 142.4375 109.527344 143.289062 108.773438 144.339844 108.773438 C 145.390625 108.773438 146.246094 109.527344 146.246094 110.460938 Z "/>
</g>
</svg>
