<?xml version="1.0" encoding="UTF-8" standalone="no"?>
<!-- Created with Inkscape (http://www.inkscape.org/) -->

<svg
   xmlns:dc="http://purl.org/dc/elements/1.1/"
   xmlns:cc="http://creativecommons.org/ns#"
   xmlns:rdf="http://www.w3.org/1999/02/22-rdf-syntax-ns#"
   xmlns:svg="http://www.w3.org/2000/svg"
   xmlns="http://www.w3.org/2000/svg"
   xmlns:sodipodi="http://sodipodi.sourceforge.net/DTD/sodipodi-0.dtd"
   xmlns:inkscape="http://www.inkscape.org/namespaces/inkscape"
   width="256"
   height="256"
   id="svg2"
   version="1.1"
   inkscape:version="0.48.4 r9939"
   sodipodi:docname="folder-wine.svg"
   inkscape:export-filename="/media/Data/Main/Visuals/Icons/Numix/Desktop/repos/numix-wiki/Gjorgi/Numix-folders/48/New/folder-144.png"
   inkscape:export-xdpi="270"
   inkscape:export-ydpi="270">
  <defs
     id="defs4" />
  <sodipodi:namedview
     id="base"
     pagecolor="#ffffff"
     bordercolor="#666666"
     borderopacity="1.0"
     inkscape:pageopacity="0.0"
     inkscape:pageshadow="2"
     inkscape:zoom="18.368617"
     inkscape:cx="35.778861"
     inkscape:cy="64.870966"
     inkscape:document-units="px"
     inkscape:current-layer="layer1"
     showgrid="true"
     inkscape:window-width="1920"
     inkscape:window-height="1023"
     inkscape:window-x="0"
     inkscape:window-y="28"
     inkscape:window-maximized="1"
     showguides="true"
     inkscape:guide-bbox="true">
    <inkscape:grid
       type="xygrid"
       id="grid2985"
       empspacing="5"
       visible="true"
       enabled="true"
       snapvisiblegridlinesonly="true" />
  </sodipodi:namedview>
  <metadata
     id="metadata7">
    <rdf:RDF>
      <cc:Work
         rdf:about="">
        <dc:format>image/svg+xml</dc:format>
        <dc:type
           rdf:resource="http://purl.org/dc/dcmitype/StillImage" />
        <dc:title />
      </cc:Work>
    </rdf:RDF>
  </metadata>
  <g
     inkscape:label="Layer 1"
     inkscape:groupmode="layer"
     id="layer1"
     transform="translate(0,-796.3622)">
    <path
       style="fill:#e9a439;fill-opacity:1;stroke:none"
       d="m 32,836.36234 188,0 c 8,0 12,3.999 12,11.99684 l 0,27.9928 c 0,4.4308 -3.7896,3.9988 -8,3.9988 l -192,0 c -4.2104,0 -8,-3.5672 -8,-7.998 l 0,-35.99044 z"
       id="path3811"
       inkscape:connector-curvature="0"
       sodipodi:nodetypes="csssssscc" />
    <path
       style="opacity:0.02999998;fill:#000000;fill-opacity:1;stroke:none"
       d="m 24,860.36278 0,19.9996 208,0 0,-19.9996 z"
       id="path3807"
       inkscape:connector-curvature="0" />
    <path
       style="fill:#e9a439;fill-opacity:1;stroke:none"
       d="m 24,852.36238 0,-19.99992 c 0,-8 3.636364,-12 7.272728,-12 l 41.454544,0 c 3.636364,0 7.272728,4 7.272728,12 l 0,19.99992 z"
       id="rect3760"
       inkscape:connector-curvature="0"
       sodipodi:nodetypes="csssscc" />
    <rect
       style="fill:#f5c14e;fill-opacity:1;stroke:none"
       id="rect2990"
       width="240"
       height="160"
       x="8"
       y="868.36218"
       rx="16"
       ry="13.333333" />
    <path
       style="opacity:0.1;fill:#ffffff;fill-opacity:1;stroke:none"
       d="m 24,868.36238 c -8.864,0 -16,5.98834 -16,13.375 l 0,8 c 0,-7.38666 7.136,-13.375 16,-13.375 l 208,0 c 8.864,0 16,5.98834 16,13.375 l 0,-8 c 0,-7.38666 -7.136,-13.375 -16,-13.375 l -208,0 z"
       id="rect3004"
       inkscape:connector-curvature="0" />
    <path
       style="opacity:0.05;fill:#000000;fill-opacity:1;stroke:none"
       d="m 80,836.36238 0,8 8,0 132,0 c 8,0 12,4.002 12,12 l 0,-8 c 0,-7.99784 -4,-12 -12,-12 l -132,0 z"
       id="path3781"
       inkscape:connector-curvature="0"
       sodipodi:nodetypes="cccscsscc" />
    <path
       style="opacity:0.05;fill:#000000;fill-opacity:1;stroke:none"
       d="m 31.25,820.36238 c -3.636364,0 -7.25,4 -7.25,12 l 0,8 c 0,-8 3.613636,-12 7.25,-12 l 41.5,0 c 3.636364,0 7.25,4 7.25,12 l 0,-8 c 0,-8 -3.613636,-12 -7.25,-12 l -41.5,0 z"
       id="path3801"
       inkscape:connector-curvature="0" />
    <path
       style="line-height:normal;opacity:0.25;color:#000000;fill:#3c2f1b;fill-opacity:1"
       id="path3974"
       d="m 169.32401,891.53598 c -4.73776,0.076 -9.39861,3.1804 -10.14452,8.9636 -1.19347,9.254 7.75757,5.7836 14.91841,5.7836 7.16084,0 9.54778,15.0376 7.75758,23.1339 -1.79021,8.0976 -20.82358,27.22316 -63.85082,8.0976 -35.425024,-15.7463 -53.112084,5.2192 -54.00466,5.6388 3.352564,31.28276 30.686656,65.20872 63.85081,65.20872 35.42862,0 64.14919,-37.37836 64.14919,-71.71512 0,-3.9436 -0.46904,-7.8276 -1.19348,-11.5667 -0.65873,-1.8904 -1.30656,-3.7756 -1.7902,-5.4944 -0.86695,-3.0808 -1.84598,-5.68 -2.68532,-8.0976 -0.036,-0.076 0.0368,-0.208 0,-0.292 -3.39135,-7.2996 -8.14618,-13.8988 -14.02331,-19.3752 -0.0268,-0.064 -0.1228,0.068 -0.1492,0 -0.91842,-0.228 -1.88695,-0.304 -2.8345,-0.292 z"
       inkscape:connector-curvature="0" />
    <path
       style="line-height:normal;opacity:0.25;color:#000000;fill:#3c2f1b;fill-opacity:1"
       id="path3976"
       d="m 160,924.36318 c 0,4.4183 -3.58172,7.9991 -8,7.9991 -4.41828,0 -8,-3.5808 -8,-7.9991 0,-4.4184 3.58172,-8.0008 8,-8.0008 4.41828,0 8,3.5824 8,8.0008 z"
       inkscape:connector-curvature="0" />
    <path
       style="line-height:normal;opacity:0.25;color:#000000;fill:#3c2f1b;fill-opacity:1"
       id="path3978"
       d="m 136,912.36238 c 0,2.2096 -1.79086,4 -4,4 -2.20914,0 -4,-1.7904 -4,-4 0,-2.2096 1.79086,-4 4,-4 2.20914,0 4,1.7904 4,4 z"
       inkscape:connector-curvature="0" />
  </g>
</svg>
