<?xml version="1.0" encoding="UTF-8" standalone="no"?>
<!-- Created with Inkscape (http://www.inkscape.org/) -->

<svg
   xmlns:dc="http://purl.org/dc/elements/1.1/"
   xmlns:cc="http://creativecommons.org/ns#"
   xmlns:rdf="http://www.w3.org/1999/02/22-rdf-syntax-ns#"
   xmlns:svg="http://www.w3.org/2000/svg"
   xmlns="http://www.w3.org/2000/svg"
   xmlns:sodipodi="http://sodipodi.sourceforge.net/DTD/sodipodi-0.dtd"
   xmlns:inkscape="http://www.inkscape.org/namespaces/inkscape"
   width="256"
   height="256"
   id="svg2"
   version="1.1"
   inkscape:version="0.48.4 r9939"
   sodipodi:docname="folder-documents.svg"
   inkscape:export-filename="/media/Data/Main/Visuals/Icons/Numix/Desktop/repos/numix-wiki/Gjorgi/Numix-folders/48/New/folder-144.png"
   inkscape:export-xdpi="270"
   inkscape:export-ydpi="270">
  <defs
     id="defs4" />
  <sodipodi:namedview
     id="base"
     pagecolor="#ffffff"
     bordercolor="#666666"
     borderopacity="1.0"
     inkscape:pageopacity="0.0"
     inkscape:pageshadow="2"
     inkscape:zoom="12.989691"
     inkscape:cx="18.667529"
     inkscape:cy="39.798219"
     inkscape:document-units="px"
     inkscape:current-layer="layer1"
     showgrid="true"
     inkscape:window-width="1920"
     inkscape:window-height="1023"
     inkscape:window-x="0"
     inkscape:window-y="28"
     inkscape:window-maximized="1"
     showguides="true"
     inkscape:guide-bbox="true">
    <inkscape:grid
       type="xygrid"
       id="grid2985"
       empspacing="5"
       visible="true"
       enabled="true"
       snapvisiblegridlinesonly="true" />
  </sodipodi:namedview>
  <metadata
     id="metadata7">
    <rdf:RDF>
      <cc:Work
         rdf:about="">
        <dc:format>image/svg+xml</dc:format>
        <dc:type
           rdf:resource="http://purl.org/dc/dcmitype/StillImage" />
        <dc:title />
      </cc:Work>
    </rdf:RDF>
  </metadata>
  <g
     inkscape:label="Layer 1"
     inkscape:groupmode="layer"
     id="layer1"
     transform="translate(0,-796.3622)">
    <path
       style="fill:#e9a439;fill-opacity:1;stroke:none"
       d="m 32,836.36232 188,0 c 8,0 12,3.999 12,11.99684 l 0,27.9928 c 0,4.4308 -3.7896,3.9988 -8,3.9988 l -192,0 c -4.2104,0 -8,-3.5672 -8,-7.998 l 0,-35.99044 z"
       id="path3811"
       inkscape:connector-curvature="0"
       sodipodi:nodetypes="csssssscc" />
    <path
       style="opacity:0.02999998;fill:#000000;fill-opacity:1;stroke:none"
       d="m 24,860.36276 0,19.9996 208,0 0,-19.9996 z"
       id="path3807"
       inkscape:connector-curvature="0" />
    <path
       style="fill:#e9a439;fill-opacity:1;stroke:none"
       d="m 24,852.36236 0,-19.99992 c 0,-8 3.636364,-12 7.272728,-12 l 41.454544,0 c 3.636364,0 7.272728,4 7.272728,12 l 0,19.99992 z"
       id="rect3760"
       inkscape:connector-curvature="0"
       sodipodi:nodetypes="csssscc" />
    <rect
       style="fill:#f5c14e;fill-opacity:1;stroke:none"
       id="rect2990"
       width="240"
       height="160"
       x="8"
       y="868.36218"
       rx="16"
       ry="13.333333" />
    <path
       style="opacity:0.1;fill:#ffffff;fill-opacity:1;stroke:none"
       d="m 24,868.36236 c -8.864,0 -16,5.98832 -16,13.375 l 0,8 c 0,-7.38668 7.136,-13.375 16,-13.375 l 208,0 c 8.864,0 16,5.98832 16,13.375 l 0,-8 c 0,-7.38668 -7.136,-13.375 -16,-13.375 l -208,0 z"
       id="rect3004"
       inkscape:connector-curvature="0" />
    <path
       style="opacity:0.05;fill:#000000;fill-opacity:1;stroke:none"
       d="m 80,836.36236 0,8 8,0 132,0 c 8,0 12,4.002 12,12 l 0,-8 c 0,-7.99784 -4,-12 -12,-12 l -132,0 z"
       id="path3781"
       inkscape:connector-curvature="0"
       sodipodi:nodetypes="cccscsscc" />
    <path
       style="opacity:0.05;fill:#000000;fill-opacity:1;stroke:none"
       d="m 31.25,820.36236 c -3.636364,0 -7.25,4 -7.25,12 l 0,8 c 0,-8 3.613636,-12 7.25,-12 l 41.5,0 c 3.636364,0 7.25,4 7.25,12 l 0,-8 c 0,-8 -3.613636,-12 -7.25,-12 l -41.5,0 z"
       id="path3801"
       inkscape:connector-curvature="0" />
    <g
       id="g3768"
       transform="matrix(8,0,0,8,64,884.36236)"
       style="opacity:0.25;fill:#3c2f1b;fill-opacity:1">
      <path
         sodipodi:nodetypes="ssssssccsccccccc"
         inkscape:connector-curvature="0"
         id="rect2991-3"
         d="M 4,0 C 2.892,0 2,0.892 2,2 l 0,12 c 0,1.108 0.892,2 2,2 l 8,0 c 1.108,0 2,-0.892 2,-2 L 14,5 9,0 z m 0,2 6,0 1,1 1,1 0,10 -8,0 z"
         style="fill:#3c2f1b;fill-opacity:1;stroke:none" />
      <path
         sodipodi:nodetypes="cccc"
         inkscape:connector-curvature="0"
         id="path2997"
         d="m 9,0 0,5 5,0 z"
         style="fill:#3c2f1b;fill-opacity:1;stroke:none" />
      <rect
         ry="0.25"
         rx="0.25"
         y="7"
         x="5"
         height="1"
         width="4"
         id="rect3767"
         style="fill:#3c2f1b;fill-opacity:1;stroke:none" />
      <rect
         style="fill:#3c2f1b;fill-opacity:1;stroke:none"
         id="rect3771"
         width="6"
         height="1"
         x="5"
         y="9"
         rx="0.25"
         ry="0.25" />
      <rect
         ry="0.25"
         rx="0.25"
         y="11"
         x="5"
         height="1"
         width="6"
         id="rect3775"
         style="fill:#3c2f1b;fill-opacity:1;stroke:none" />
    </g>
  </g>
</svg>
