<?xml version="1.0" encoding="UTF-8" standalone="no"?>
<!-- Created with Inkscape (http://www.inkscape.org/) -->

<svg
   xmlns:dc="http://purl.org/dc/elements/1.1/"
   xmlns:cc="http://creativecommons.org/ns#"
   xmlns:rdf="http://www.w3.org/1999/02/22-rdf-syntax-ns#"
   xmlns:svg="http://www.w3.org/2000/svg"
   xmlns="http://www.w3.org/2000/svg"
   xmlns:xlink="http://www.w3.org/1999/xlink"
   xmlns:sodipodi="http://sodipodi.sourceforge.net/DTD/sodipodi-0.dtd"
   xmlns:inkscape="http://www.inkscape.org/namespaces/inkscape"
   width="256"
   height="256"
   id="svg2"
   version="1.1"
   inkscape:version="0.48.5 r10040"
   sodipodi:docname="folder-steam.svg"
   inkscape:export-filename="/media/Data/Main/Visuals/Icons/Numix/Desktop/repos/numix-wiki/Gjorgi/Numix-folders/48/New/folder-144.png"
   inkscape:export-xdpi="270"
   inkscape:export-ydpi="270">
  <defs
     id="defs4">
    <linearGradient
       inkscape:collect="always"
       id="linearGradient3958">
      <stop
         style="stop-color:#000000;stop-opacity:1;"
         offset="0"
         id="stop3960" />
      <stop
         style="stop-color:#000000;stop-opacity:0;"
         offset="1"
         id="stop3962" />
    </linearGradient>
    <radialGradient
       inkscape:collect="always"
       xlink:href="#linearGradient3958"
       id="radialGradient3964"
       cx="32.5"
       cy="56.5"
       fx="32.5"
       fy="56.5"
       r="33.5"
       gradientTransform="matrix(1,0,0,0.10447761,0,50.597015)"
       gradientUnits="userSpaceOnUse" />
  </defs>
  <sodipodi:namedview
     id="base"
     pagecolor="#ffffff"
     bordercolor="#666666"
     borderopacity="1.0"
     inkscape:pageopacity="0.0"
     inkscape:pageshadow="2"
     inkscape:zoom="1.8651839"
     inkscape:cx="192.27542"
     inkscape:cy="60.818934"
     inkscape:document-units="px"
     inkscape:current-layer="layer1"
     showgrid="true"
     inkscape:window-width="1280"
     inkscape:window-height="998"
     inkscape:window-x="0"
     inkscape:window-y="0"
     inkscape:window-maximized="1"
     showguides="true"
     inkscape:guide-bbox="true">
    <inkscape:grid
       type="xygrid"
       id="grid2985"
       empspacing="5"
       visible="true"
       enabled="true"
       snapvisiblegridlinesonly="true" />
  </sodipodi:namedview>
  <metadata
     id="metadata7">
    <rdf:RDF>
      <cc:Work
         rdf:about="">
        <dc:format>image/svg+xml</dc:format>
        <dc:type
           rdf:resource="http://purl.org/dc/dcmitype/StillImage" />
        <dc:title />
      </cc:Work>
    </rdf:RDF>
  </metadata>
  <g
     inkscape:label="Layer 1"
     inkscape:groupmode="layer"
     id="layer1"
     transform="translate(0,-796.3622)">
    <path
       sodipodi:type="arc"
       style="opacity:0.6;fill:url(#radialGradient3964);fill-opacity:1;stroke:none"
       id="path3956"
       sodipodi:cx="32.5"
       sodipodi:cy="56.5"
       sodipodi:rx="33.5"
       sodipodi:ry="3.5"
       d="M 66,56.5 C 66,58.432997 51.001539,60 32.5,60 13.998461,60 -1,58.432997 -1,56.5 -1,54.567003 13.998461,53 32.5,53 51.001539,53 66,54.567003 66,56.5 z"
       transform="matrix(4.5373134,0,0,4.5714282,-19.462687,762.07651)" />
    <path
       sodipodi:nodetypes="ccccccccc"
       inkscape:connector-curvature="0"
       id="path3029"
       d="m 9.9999988e-7,832.59756 0,171.29384 255.99998900000011,0 0,-85.64677 -12.19048,-73.41199 -95.80952,-0.4704 -12,-24 -123.809514,0 C 6.09524,820.36224 9.9999987e-7,826.47988 9.9999987e-7,832.59756 z"
       style="fill:#e65100;fill-opacity:1;stroke:none" />
    <rect
       style="fill:#fffdf0;fill-opacity:1;stroke:none"
       id="rect3799"
       width="126.28571"
       height="47.529133"
       x="19.999998"
       y="852.36218" />
    <path
       style="opacity:0.02999998;fill:#000000;fill-opacity:1;stroke:none"
       d="m 12.25,820.36224 c -6.095236,0 -12.24999900000013,6.13232 -12.24999900000013,12.25 l 0,8 C 9.9999987e-7,834.49456 6.154764,828.36224 12.25,828.36224 l 119.74999,0 12,24 99.75,0.5 12.25,73.37519 0,-8 -12.25,-73.37519 -95.75,-0.5 -12,-24 z"
       id="path3790"
       inkscape:connector-curvature="0"
       sodipodi:nodetypes="sscsccccccccs" />
    <path
       style="fill:#f57c00;fill-opacity:1;stroke:none"
       d="m 255.99999,857.06824 0,171.29396 -255.99998900000011,0 0,-159.99996 119.99998900000011,0 12,-24 111.80952,0.4704 c 6.09524,0 12.19048,6.118 12.19048,12.2356 z"
       id="rect2987"
       inkscape:connector-curvature="0"
       sodipodi:nodetypes="cccccccc" />
    <path
       sodipodi:nodetypes="ccccc"
       id="path3794"
       d="m 9.9999988e-7,1020.3622 0,8 255.99998900000011,0 0,-8 z"
       style="opacity:0.15;fill:#000000;fill-opacity:1;stroke:none"
       inkscape:connector-curvature="0" />
    <path
       style="opacity:0.02999998;fill:#000000;fill-opacity:1;stroke:none"
       d="m 131.99999,844.36224 -12,24 -119.99998900000011,0 0,8 123.99998900000011,0 12,-24 107.75,0.5 c 6.09524,0 12.25,6.1324 12.25,12.25 l 0,-8 c 0,-6.1176 -6.15476,-12.25 -12.25,-12.25 z"
       id="path3015"
       inkscape:connector-curvature="0"
       sodipodi:nodetypes="ccccccccscc" />
    <path
       inkscape:connector-curvature="0"
       style="opacity:0.4;fill:#3c2f1b;fill-opacity:1;fill-rule:nonzero;stroke:none"
       d="m 159.02226,896.35543 c -13.12878,0 -23.86476,10.958 -23.86476,24.4172 0,4.5168 1.29823,8.7844 3.40925,12.4356 l 0,26.4524 c -2.60018,0.5552 -5.00237,1.7672 -7.03157,3.3916 l -23.65167,-10.8524 c 0,-9.5988 -7.67275,-17.41 -17.046242,-17.41 -9.356737,0 -17.046264,7.8064 -17.046264,17.41 0,9.6176 7.685335,17.63477 17.046264,17.63477 3.796263,0 7.383395,-1.4388 10.227742,-3.6172 l 23.86476,11.0776 c 0.246,9.4016 7.83861,16.9568 17.04624,16.9568 9.37351,0 17.04625,-7.792 17.04625,-17.4088 0,-4.0064 -1.38734,-7.6668 -3.62232,-10.6256 l 0.21312,0 12.57162,-22.83557 c 0.0897,-0.096 0.12388,-0.188 0.21312,-0.22 8.41405,-3.8008 14.48931,-12.392 14.48931,-22.3828 0,-13.4456 -10.75275,-24.418 -23.86475,-24.418 z m 0,8.1384 c 8.81966,0 15.76778,7.236 15.76778,16.2788 0,9.0596 -6.95232,16.278 -15.76778,16.278 -8.83224,0 -15.76778,-7.2184 -15.76778,-16.278 0,-9.0428 6.93554,-16.2788 15.76778,-16.2788 z m 0,5.8796 c -5.63921,0 -10.22776,4.59 -10.22776,10.3992 0,5.7864 4.58855,10.4 10.22776,10.4 5.656,0 10.22776,-4.608 10.22776,-10.4 0,-5.8056 -4.57176,-10.3992 -10.22776,-10.3992 z m -68.184996,31.4264 c 5.598679,0 8.791419,2.3168 9.801586,7.008 l -5.966195,-2.7144 c -3.868563,-1.6872 -8.374109,0.096 -10.014669,4.07 -1.640575,3.968 0.17984,8.5052 4.048478,10.1756 l 4.474647,2.2596 c -0.747024,0.124 -1.490007,0.22 -2.343847,0.22 -6.818258,0 -10.227761,-3.6172 -10.227761,-10.624 0,-6.9904 3.409503,-10.4012 10.227761,-10.4012 z M 141.97601,965.087 c 6.31053,0 11.29314,5.2868 11.29314,11.756 0,6.4688 -4.98261,11.5304 -11.29314,11.5304 -5.12451,0 -9.4509,-3.3796 -10.86699,-8.14 l 8.09698,3.6192 c 3.86856,1.6864 8.3741,-0.312 10.01467,-4.2968 1.64056,-3.9668 -0.17992,-8.504 -4.04849,-10.1732 l -7.45773,-3.3924 c 1.30641,-0.5392 2.76029,-0.8976 4.26156,-0.8976 z"
       id="path3447" />
  </g>
</svg>
