<svg width="256" xmlns="http://www.w3.org/2000/svg" height="256" viewBox="0 0 256 256" xmlns:xlink="http://www.w3.org/1999/xlink">
<g style="stroke:#777">
<path style="fill:#f9f9f9;stroke-width:.973" d="M 8.518799 43.512451 L 33.464355 43.512451 C 39.531738 43.512451 39.531738 37.456787 39.531738 37.456787 L 39.531738 13.234863 C 39.531738 13.234863 30.767578 4.487549 30.767578 4.487549 L 14.586914 4.487549 C 14.586914 4.487549 8.518799 4.487549 8.518799 10.543213 Z " transform="scale(5.33333)"/>
<path style="fill:#dcdcdc" d="M 31.517578 5.492432 L 31.517578 12.520752 L 38.509277 12.520752 Z " transform="scale(5.33333)"/>
</g>
<path style="fill:#d64936" d="M 133.175781 48 C 128.988281 48.019531 124.605469 49.832031 120.324219 54.152344 C 109.722656 67.34375 111.398438 83.710938 113.917969 96.8125 C 106.507812 99.890625 98.9375 105.78125 93.167969 111.296875 C 89.019531 115.257812 85.300781 119.453125 82.496094 124.484375 L 79.117188 133.914062 C 74.035156 157.351562 98.757812 168.921875 117.691406 171.902344 C 127.3125 173.121094 135.105469 172.175781 144.59375 171.410156 C 152.992188 181.46875 151.425781 193.132812 137.183594 194.914062 C 141.457031 186.183594 136.070312 179.242188 127.125 177.582031 C 116.996094 175.703125 104.386719 179.390625 102.5 191.082031 C 101.582031 196.785156 106.886719 202.199219 111.402344 204.542969 C 120.945312 209.5 136.082031 208.59375 145.988281 205.171875 C 154.605469 202.195312 163.601562 195.585938 162.910156 185.480469 C 161.816406 178.59375 158.929688 173.097656 157.308594 166.617188 L 167.371094 160.542969 C 179.359375 152.402344 181.5625 135.042969 169.6875 125.523438 C 161.09375 118.636719 147.746094 116.9375 137.183594 119.453125 C 134.515625 110.683594 135.160156 111.179688 141.585938 104.988281 C 149.285156 97.300781 155.777344 89.316406 156.050781 77.949219 C 156.382812 64.105469 145.738281 47.9375 133.175781 48 Z M 136.832031 69.066406 C 137.726562 69.003906 138.601562 69.207031 139.328125 69.792969 C 141.207031 71.3125 139.410156 74.5 138.519531 76.0625 C 135.949219 80.566406 131.375 85.492188 126.496094 87.382812 C 126.539062 82.007812 127.601562 75.644531 131.585938 71.71875 C 132.746094 70.574219 134.867188 69.203125 136.832031 69.066406 Z M 123.351562 118.195312 L 124.609375 121.96875 C 113.613281 128.390625 100.660156 138.929688 109.652344 152.664062 L 117.0625 159.070312 L 109.515625 157.261719 C 88.332031 148.347656 107.40625 121.277344 123.351562 118.195312 Z M 146.617188 140.203125 C 154.628906 140.554688 165.222656 151.730469 152.90625 154.667969 Z M 132.785156 141.460938 L 139.699219 159.070312 L 131.527344 160.328125 L 133.058594 154.433594 C 131.710938 150.378906 121.394531 146.066406 129.621094 142.328125 Z "/>
</svg>
