<svg height="64" version="1.1" viewBox="0 0 18.062 18.062" width="64" xmlns="http://www.w3.org/2000/svg">
 <path d="m3.387.564 0 1.355-1.694 0c-.339 0-.564.282-.564.564l-0 15.014c-0 .282.282.564.564.564l14.676 0c.282 0 .564-.282.564-.564l0-15.014c-0-.282-.282-.564-.565-.564l-1.693 0 0-1.355C14.675 0 14.675 0 14.111 0l-1.468 0c-.564 0-.564 0-.564.564l0 1.129-6.096 0 0-1.129C5.983 0 5.983 0 5.419 0L3.951 0C3.387 0 3.387 0 3.387.564Zm.751.187 1.093 0 0 2.262c0 .937-1.093.937-1.093 0zm8.692 0 1.093 0 0 2.262c0 .937-1.093.937-1.093 0zM2.258 5.644l13.547 0 0 11.289-13.547-0z" fill="#cacaca"/>
 <g transform="matrix(.2822 0 0 .2822 -9.498 2.405)"/>
 <g fill="#3798d6" transform="scale(1.1417 .8759)">
  <path d="m7.682 17.186-4.731 0 0-1.037 1.659-1.789q.314-.338.569-.622.256-.285.439-.555.183-.27.285-.55.101-.28.101-.603 0-.357-.217-.555-.212-.198-.574-.198-.381 0-.733.188-.352.188-.738.535L2.931 11.041q.217-.198.453-.376.236-.183.521-.323.285-.14.627-.222.342-.087.767-.087.506 0 .907.14.405.14.69.4.285.256.434.622.154.367.154.825 0 .415-.145.796-.145.376-.395.743-.251.362-.584.723-.328.357-.704.728l-.849.854 0 .068 2.875 0 0 1.254z" fill="#3798d6"/>
  <path d="m11.823 17.186-1.49 0 0-4.08q0-.125 0-.299.005-.178.01-.367.01-.193.014-.386.01-.193.014-.352-.024.029-.082.087-.058.058-.13.13-.072.068-.15.14-.077.072-.15.13l-.81.651-.723-.897 2.272-1.809 1.225 0 0 7.051z" fill="#3798d6"/>
 </g>
</svg>
