<svg xmlns="http://www.w3.org/2000/svg" viewBox="0 0 64 64">
 <g transform="translate(0,-988.3622)">
  <g transform="translate(-20,-22)">
   <path d="m 26 1021.89 0 21.412 32 0 0 -10.706 -1.524 -9.177 -11.976 -0.059 -1.5 -3 -15.476 0 c -0.762 0 -1.524 0.765 -1.524 1.53 z" style="fill:#ef6c00;fill-opacity:1;stroke:none"/>
   <rect width="15.786" height="5.941" x="28.5" y="1024.36" style="fill:#fffdf0;fill-opacity:1;stroke:none"/>
   <path d="m 27.531 1020.36 c -0.762 0 -1.531 0.766 -1.531 1.531 l 0 1 c 0 -0.765 0.769 -1.531 1.531 -1.531 l 14.969 0 1.5 3 12.469 0.062 1.531 9.172 0 -1 -1.531 -9.172 -11.969 -0.062 -1.5 -3 z" style="fill:#000;opacity:0.03;fill-opacity:1;stroke:none"/>
   <path d="m 58 1024.95 0 21.412 -32 0 0 -20 15 0 1.5 -3 13.976 0.059 c 0.762 0 1.524 0.765 1.524 1.53 z" style="fill:#ffa726;fill-opacity:1;stroke:none"/>
   <path d="m 26 1045.36 0 1 32 0 0 -1 z" style="fill:#000;opacity:0.15;fill-opacity:1;stroke:none"/>
   <path d="m 42.5 1023.36 -1.5 3 -15 0 0 1 15.5 0 1.5 -3 13.469 0.062 c 0.762 0 1.531 0.767 1.531 1.531 l 0 -1 c 0 -0.765 -0.769 -1.531 -1.531 -1.531 z" style="fill:#000;opacity:0.03;fill-opacity:1;stroke:none"/>
  </g>
  <path d="m 26 1017.89 0 21.412 32 0 0 -10.706 -1.524 -9.177 -11.976 -0.059 -1.5 -3 -15.476 0 c -0.762 0 -1.524 0.765 -1.524 1.53 z" style="fill:#ef6c00;fill-opacity:1;stroke:none"/>
  <rect width="15.786" height="5.941" x="28.5" y="1020.36" style="fill:#fffdf0;fill-opacity:1;stroke:none"/>
  <path d="m 27.531 1016.36 c -0.762 0 -1.531 0.766 -1.531 1.531 l 0 1 c 0 -0.765 0.769 -1.531 1.531 -1.531 l 14.969 0 1.5 3 12.469 0.062 1.531 9.172 0 -1 -1.531 -9.172 -11.969 -0.062 -1.5 -3 z" style="fill:#000;opacity:0.03;fill-opacity:1;stroke:none"/>
  <path d="m 58 1020.95 0 21.412 -32 0 0 -20 15 0 1.5 -3 13.976 0.059 c 0.762 0 1.524 0.765 1.524 1.529 z" style="fill:#ffa726;fill-opacity:1;stroke:none"/>
  <path d="m 26 1041.36 0 1 32 0 0 -1 z" style="fill:#000;opacity:0.15;fill-opacity:1;stroke:none"/>
  <path d="m 42.5 1019.36 -1.5 3 -15 0 0 1 15.5 0 1.5 -3 13.469 0.062 c 0.762 0 1.531 0.767 1.531 1.531 l 0 -1 c 0 -0.765 -0.769 -1.531 -1.531 -1.531 z" style="fill:#000;opacity:0.03;fill-opacity:1;stroke:none"/>
 </g>
</svg>
