<svg height="64" version="1.1" viewBox="0 0 64 64" width="64" xmlns="http://www.w3.org/2000/svg">
 <path d="M9.332 5.332C9.332 5.332 5.332 5.332 5.332 9.332L5.332 12 10.668 12 10.668 10.668 12 10.668 12 5.336ZM28 5.332 28 10.668 36 10.668 36 5.332ZM41.332 5.332 41.332 10.668 48 10.668 48 5.332ZM52 5.336 52 10.668 53.332 10.668 53.332 12 58.668 12 58.668 9.332C58.668 9.332 58.668 5.332 54.668 5.332ZM16 5.332 16 10.668 22.668 10.668 22.668 5.332ZM53.332 16 53.332 22.664 58.668 22.668 58.668 16ZM5.332 16 5.332 22.668 10.668 22.668 10.668 16ZM53.332 28 53.332 37.332 58.668 37.332 58.668 28ZM53.332 42.664 53.332 48 58.668 48 58.668 42.668ZM5.332 28 5.332 36 10.668 36 10.668 28ZM5.332 41.332 5.332 48 10.668 48 10.668 41.332ZM5.332 52 5.332 54.668C5.332 58.668 9.332 58.668 9.332 58.668L12 58.668 12 53.332 10.668 53.332 10.668 52ZM53.332 52 53.332 53.332 52 53.332 52 58.668 54.668 58.668C58.668 58.668 58.668 54.668 58.668 54.668L58.668 52ZM16 53.332 16 58.668 22.668 58.668 22.668 53.332ZM28 53.332 28 58.668 36 58.668 36 53.332ZM41.332 53.332 41.332 58.668 48 58.668 48 53.332Z" fill="#f5c14e" opacity=".5"/>
 <path d="M24 12 24 24 30 30" fill="none" stroke="#e9a439" stroke-linecap="round" stroke-linejoin="round" stroke-opacity=".8" stroke-width="2" transform="scale(1.3333)"/>
</svg>
