<svg width="64" xmlns="http://www.w3.org/2000/svg" height="64" viewBox="0 0 64 64" xmlns:xlink="http://www.w3.org/1999/xlink">
<g style="fill:#53a3de">
<path d="M 29.820312 54.109375 L 29.820312 41.59375 L 17.925781 41.59375 L 19.996094 38.015625 L 23.804688 38.015625 L 18.289062 28.484375 L 6.21875 28.484375 L 8.847656 30 L 5.335938 36.070312 L 14.773438 52.375 L 15.671875 53.929688 L 15.894531 54.3125 Z "/>
<path d="M 51.523438 24.789062 L 40.65625 31.046875 L 46.601562 41.324219 L 42.460938 41.324219 L 40.558594 38.035156 L 35.042969 47.566406 L 41.074219 57.988281 L 41.074219 54.960938 L 48.105469 54.960938 L 57.542969 38.65625 L 58.441406 37.101562 L 58.664062 36.71875 Z "/>
<path d="M 15.183594 18.125 L 26.054688 24.382812 L 32 14.109375 L 34.070312 17.6875 L 32.167969 20.976562 L 43.203125 20.976562 L 49.234375 10.550781 L 46.605469 12.066406 L 43.089844 5.992188 L 21.972656 5.992188 Z "/>
</g>
<path style="fill:#ee2828" d="M 41.636719 30.269531 L 42.375 48 L 46.820312 48 L 47.5625 30.269531 Z M 41.636719 50.957031 L 41.636719 56.867188 L 47.5625 56.867188 L 47.5625 50.957031 Z "/>
</svg>
