<svg xmlns="http://www.w3.org/2000/svg" viewBox="0 0 64 64">
 <defs>
  <radialGradient id="radialGradient3964" cx="32.5" cy="56.5" r="33.5" gradientTransform="matrix(1,0,0,0.10447761,0,50.597015)" gradientUnits="userSpaceOnUse">
   <stop style="stop-color:#000;stop-opacity:1"/>
   <stop offset="1" style="stop-color:#000;stop-opacity:0"/>
  </radialGradient>
 </defs>
 <g transform="translate(0,-988.3622)">
  <path d="m 66 56.5 c 0 1.933 -14.998 3.5 -33.5 3.5 -18.502 0 -33.5 -1.567 -33.5 -3.5 0 -1.933 14.998 -3.5 33.5 -3.5 18.502 0 33.5 1.567 33.5 3.5 z" transform="matrix(1.1343284,0,0,1.1428571,-4.8656716,979.79077)" style="fill:url(#radialGradient3964);opacity:0.6;fill-opacity:1;stroke:none"/>
  <path d="m 0 997.42 0 42.823 64 0 0 -21.412 -3.048 -18.353 l -23.952 -0.118 l -3 -6 -30.952 0 c -1.524 0 -3.048 1.529 -3.048 3.059 z" style="fill:#ffb300;fill-opacity:1;stroke:none"/>
  <rect width="31.571" height="11.882" x="5" y="1002.36" style="fill:#fffdf0;fill-opacity:1;stroke:none"/>
  <path d="M 3.0625,6 C 1.538691,6 0,7.53308 0,9.0625 l 0,2 C 0,9.53308 1.538691,8 3.0625,8 L 33,8 36,14 60.9375,14.125 64,32.46875 l 0,-2 L 60.9375,12.125 37,12 34,6 z" transform="translate(0,988.3622)" style="fill:#000;opacity:0.03;fill-opacity:1;stroke:none"/>
  <path d="m 64 1003.54 0 42.824 -64 0 0 -40 30 0 3 -6 27.952 0.118 c 1.524 0 3.048 1.529 3.048 3.059 z" style="fill:#ffca28;fill-opacity:1;stroke:none"/>
  <path d="m 0 1044.36 0 2 64 0 0 -2 z" style="fill:#000;opacity:0.15;fill-opacity:1;stroke:none"/>
  <path d="m 33 12 -3 6 -30 0 0 2 31 0 3 -6 26.938 0.125 c 1.524 0 3.063 1.533 3.063 3.063 l 0 -2 c 0 -1.529 -1.539 -3.063 -3.063 -3.063 z" transform="translate(0,988.3622)" style="fill:#000;opacity:0.03;fill-opacity:1;stroke:none"/>
  <g style="opacity:1">
   <path transform="translate(0,988.3622)" d="m 32 24 c -5.184 0 -9.705 2.813 -12.12 7 l 3.625 0 c 2.02 -2.445 5.083 -4 8.5 -4 c 6.075 0 11 4.925 11 11 c 0 6.075 -4.925 11 -11 11 c -6.075 0 -11 -4.925 -11 -11 c 0 -0.338 0.033 -0.67 0.063 -1 l -3.03 0 c -0.023 0.33 -0.031 0.664 -0.031 1 c 0 7.732 6.268 14 14 14 c 7.732 0 14 -6.268 14 -14 c 0 -7.732 -6.268 -14 -14 -14 z" style="fill:#c79a18;opacity:1;fill-opacity:1;stroke:none"/>
   <path d="m 18 1012.36 0 10 10 0 z" style="fill:#c79a18;fill-opacity:1;stroke:none"/>
   <path d="m 31.813 1017.3 a 2 2 0 0 0 -0.25 0.062 2 2 0 0 0 -1.563 2 l 0 7.375 a 2 2 0 0 0 0 0.188 2 2 0 0 0 0.25 1.5 2 2 0 0 0 0.063 0.062 2 2 0 0 0 0.063 0.124 2 2 0 0 0 0.063 0.062 2 2 0 0 0 0.063 0.062 2 2 0 0 0 0.063 0.062 2 2 0 0 0 0.063 0.062 2 2 0 0 0 0.125 0.062 2 2 0 0 0 0.063 0.062 2 2 0 0 0 0.063 0.062 2 2 0 0 0 0.125 0.062 2 2 0 0 0 0.25 0.124 l 4.937 2.875 a 2.02 2.02 0 1 0 2 -3.5 l -4.187 -2.438 0 -6.812 a 2 2 0 0 0 -2.187 -2.063 z" style="fill:#c79a18;opacity:1;fill-opacity:1;color:#000"/>
  </g>
 </g>
</svg>
