<svg width="16" xmlns="http://www.w3.org/2000/svg" viewBox="0 0 16 16" height="16">
<path style="fill:#e0b189;stroke:#b28d6d;stroke-width:.198" d="m 1.08642,0.098765 0,4.938272 4.938271,0 L 4.32716,3.339506 C 5.337174,2.546551 6.616546,2.074074 8,2.074074 c 3.272798,0 5.925926,2.653128 5.925926,5.925926 0,3.272798 -2.653128,5.925926 -5.925926,5.925926 -3.272799,0 -5.925926,-2.653128 -5.925926,-5.925926 0,-0.69206 0.121466,-1.357891 0.339506,-1.975309 l -2.067901,0 C 0.183995,6.654561 0.098765,7.319694 0.098765,8 c 0,4.363731 3.537504,7.901235 7.901235,7.901235 4.363731,0 7.901235,-3.537504 7.901235,-7.901235 0,-4.363731 -3.537504,-7.901235 -7.901235,-7.901235 -1.932713,0 -3.719699,0.668582 -5.092593,1.820988 L 1.08642,0.098765 z M 7.907407,3.030864 A 0.98775309,0.98775309 0 0 0 7.783951,3.061724 0.98775309,0.98775309 0 0 0 7.012346,4.049379 l 0,3.641975 a 0.98775309,0.98775309 0 0 0 0,0.09259 0.98775309,0.98775309 0 0 0 0.123456,0.74074 0.98775309,0.98775309 0 0 0 0.03086,0.03087 0.98775309,0.98775309 0 0 0 0.03086,0.06173 0.98775309,0.98775309 0 0 0 0.03086,0.03086 0.98775309,0.98775309 0 0 0 0.03086,0.03086 0.98775309,0.98775309 0 0 0 0.03086,0.03086 0.98775309,0.98775309 0 0 0 0.03086,0.03086 0.98775309,0.98775309 0 0 0 0.06173,0.03086 0.98775309,0.98775309 0 0 0 0.03086,0.03086 0.98775309,0.98775309 0 0 0 0.03086,0.03086 0.98775309,0.98775309 0 0 0 0.06173,0.03086 0.98775309,0.98775309 0 0 0 0.123457,0.06173 l 2.438271,1.419753 a 0.9953406,0.9953406 0 1 0 0.987655,-1.728395 l -2.067902,-1.203704 0,-3.364197 A 0.98775309,0.98775309 0 0 0 7.907376,3.030832 z"/>
</svg>
