<svg width="16.25" xmlns="http://www.w3.org/2000/svg" height="16.25" viewBox="0 0 13 13" xmlns:xlink="http://www.w3.org/1999/xlink">
<g style="stroke-width:.5;stroke:#000;stroke-opacity:.298;fill:#dfb188">
<path d="M 12.908654 22.961538 C 12.302885 23.004808 11.754808 23.293269 11.408654 23.783654 L 4.586538 32.538462 C 4.586538 32.538462 4.572115 32.552885 4.557692 32.567308 L 4.413462 32.783654 C 4.370192 32.826923 4.341346 32.855769 4.3125 32.913462 C 4.269231 32.971154 4.225962 33.043269 4.182692 33.129808 C 4.182692 33.144231 4.168269 33.173077 4.153846 33.1875 C 4.110577 33.288462 4.081731 33.389423 4.067308 33.504808 C 4.052885 33.5625 4.038462 33.620192 4.038462 33.692308 C 4.024038 33.75 3.995192 33.807692 3.995192 33.879808 C 3.995192 33.879808 3.995192 33.894231 3.995192 33.908654 C 3.995192 33.923077 3.995192 33.923077 3.995192 33.9375 C 3.995192 34.052885 3.995192 34.168269 3.995192 34.283654 L 3.995192 38.0625 C 3.995192 39.144231 4.860577 39.995192 5.942308 39.995192 L 42.057692 39.995192 C 43.139423 39.995192 44.004808 39.144231 44.004808 38.0625 L 44.004808 34.182692 C 44.004808 34.110577 44.004808 34.024038 44.004808 33.9375 C 44.004808 33.879808 44.004808 33.836538 44.004808 33.778846 C 43.990385 33.706731 43.990385 33.634615 43.961538 33.5625 C 43.961538 33.504808 43.918269 33.432692 43.903846 33.375 C 43.831731 33.158654 43.730769 32.956731 43.586538 32.783654 L 43.442308 32.567308 C 43.427885 32.552885 43.413462 32.538462 43.413462 32.538462 L 36.591346 23.783654 C 36.1875 23.235577 35.524038 22.918269 34.846154 22.961538 C 34.096154 23.019231 33.432692 23.466346 33.129808 24.158654 C 32.826923 24.836538 32.942308 25.629808 33.403846 26.221154 L 37.903846 32.004808 L 10.096154 32.004808 L 14.596154 26.221154 C 15.086538 25.600962 15.173077 24.75 14.8125 24.043269 C 14.451923 23.336538 13.701923 22.918269 12.908654 22.961538 Z " transform="scale(.27083)"/>
<path d="M 26.004808 10.004808 C 26.004808 11.100962 25.110577 11.995192 24 11.995192 C 22.889423 11.995192 21.995192 11.100962 21.995192 10.004808 C 21.995192 8.894231 22.889423 8 24 8 C 25.110577 8 26.004808 8.894231 26.004808 10.004808 Z " transform="matrix(.27083 0 0 .27083 0 1.08333)"/>
<path d="M 26.004808 10 C 26.004808 11.110577 25.110577 12.004808 24 12.004808 C 22.889423 12.004808 21.995192 11.110577 21.995192 10 C 21.995192 8.889423 22.889423 7.995192 24 7.995192 C 25.110577 7.995192 26.004808 8.889423 26.004808 10 Z " transform="matrix(.27083 0 0 .27083 0 -.27083)"/>
<path d="M 17.971154 15.966346 C 17.163462 15.980769 16.427885 16.471154 16.125 17.221154 C 15.822115 17.985577 16.009615 18.836538 16.586538 19.413462 L 22.586538 25.413462 C 23.379808 26.177885 24.620192 26.177885 25.413462 25.413462 L 31.413462 19.413462 C 32.004808 18.923077 32.278846 18.144231 32.105769 17.394231 C 31.932692 16.658654 31.341346 16.067308 30.605769 15.894231 C 29.855769 15.721154 29.076923 15.995192 28.586538 16.586538 L 24 21.1875 L 19.413462 16.586538 C 19.038462 16.197115 18.519231 15.966346 17.971154 15.966346 Z " transform="scale(.27083)"/>
</g>
</svg>
