<svg width="48" xmlns="http://www.w3.org/2000/svg" viewBox="0 0 48 48" height="48">
<path style="fill:#d24726" d="M 8,1 C 6.9714285,1 6,1.9714285 6,3 l 0,42 c 0,0.971429 1.0285714,2 2,2 l 32,0 c 0.971429,0 2,-1.028571 2,-2 L 42,14 29,1 z"/>
<path style="fill-opacity:.196" d="M 29,12 29.0625,12.0625 29.21875,12 29,12 z m 2,2 11,11 0,-11 -11,0 z"/>
<path style="fill:#fff;fill-opacity:.392" d="m 29,1 13,13 -11,0 c -0.971429,0 -2,-1.028571 -2,-2 L 29,1 z"/>
<g style="fill:#fff">
<g>
<path d="m 12,16 7,0 0,5 -7,0 z"/>
<path d="m 12,24 7,0 0,5 -7,0 z"/>
</g>
<g transform="matrix(3.27074 0 0 3.18898 2.30769 3.4)">
<path d="m 8.3255558,3.9511112 0,1.9755556 1.9755562,0 c 0,-1.0910692 -0.8844881,-1.9755556 -1.9755562,-1.9755556 z"/>
<path d="m 8.0433322,4.2333334 c -1.0910693,0 -1.9755555,0.8844862 -1.9755555,1.9755557 0,1.0910693 0.8844862,1.9755555 1.9755555,1.9755555 1.0910694,0 1.9755558,-0.8844862 1.9755558,-1.9755555 l -1.9755558,0 0,-1.9755557 z"/>
</g>
</g>
<path style="fill-opacity:.196" d="m 6,35 0,10 c 0,0.971429 1.028571,2 2,2 l 32,0 c 0.971429,0 2,-1.028571 2,-2 l 0,-10 z"/>
<g style="fill:#fff;word-spacing:0;line-height:125%;letter-spacing:0" transform="matrix(1.05573 0 0 .94721 -12.53722 .42074)">
<path d="m 26.940633,38.800782 c 0.06101,0.183045 0.135097,0.418377 0.222259,0.705998 0.09587,0.287636 0.196108,0.597054 0.300703,0.928256 0.104589,0.331215 0.209181,0.666782 0.313777,1.006701 0.104589,0.33993 0.204823,0.653706 0.300702,0.94133 0.104589,-0.322488 0.213539,-0.653696 0.326851,-0.993626 0.113305,-0.348635 0.222255,-0.679844 0.326851,-0.993627 0.104588,-0.322486 0.200464,-0.623188 0.287629,-0.902108 0.08716,-0.278905 0.1656,-0.509879 0.235332,-0.692924 l 1.333551,0 c 0.06101,0.706005 0.117661,1.39457 0.169963,2.065697 0.06101,0.671139 0.108944,1.337914 0.143814,2.000327 0.04357,0.653705 0.07844,1.316122 0.104592,1.987253 0.02614,0.662419 0.04793,1.342268 0.06537,2.039549 l -1.477366,0 0.07844,-6.288609 -0.993626,3.425396 -1.176663,0 -0.954404,-3.425396 0.06537,6.288609 -1.477366,0 c 0.02615,-0.662417 0.0523,-1.350982 0.07844,-2.065697 0.03486,-0.714711 0.06973,-1.425066 0.104593,-2.131067 0.03486,-0.705993 0.07409,-1.3902 0.117666,-2.052623 0.0523,-0.662411 0.108949,-1.27689 0.169962,-1.843439 l 1.333551,0"/>
<path d="m 35.451828,40.016667 c -0.383508,7e-6 -0.706001,0.06974 -0.967478,0.209185 -0.261484,0.139463 -0.479384,0.335573 -0.653702,0.588331 -0.165606,0.244055 -0.287631,0.540399 -0.366073,0.889034 -0.06973,0.33993 -0.104594,0.719077 -0.104592,1.137441 -2e-6,0.967482 0.152528,1.682195 0.457591,2.144141 0.305058,0.453235 0.753933,0.679851 1.346625,0.67985 0.09587,1e-6 0.200465,-0.0044 0.313777,-0.01307 0.113304,-0.0087 0.217896,-0.02179 0.313777,-0.03922 l 0,-2.954731 1.608106,0 0,4.039876 c -0.191758,0.06973 -0.492461,0.148172 -0.902108,0.235332 -0.400942,0.08716 -0.889039,0.13074 -1.464292,0.130741 -0.505532,-1e-6 -0.963123,-0.08716 -1.372773,-0.261481 -0.400939,-0.183036 -0.745222,-0.448875 -1.032849,-0.797516 -0.287629,-0.357356 -0.509888,-0.797514 -0.666775,-1.320477 -0.156889,-0.531675 -0.235333,-1.146154 -0.235333,-1.843439 0,-0.688561 0.09152,-1.294324 0.274555,-1.81729 0.183035,-0.531671 0.431442,-0.976188 0.74522,-1.333551 0.313775,-0.35735 0.684205,-0.623188 1.111292,-0.797516 0.427082,-0.183029 0.884673,-0.274547 1.372774,-0.274555 0.313772,8e-6 0.592685,0.02616 0.836738,0.07844 0.252759,0.04359 0.47066,0.09588 0.653701,0.156889 0.183031,0.06102 0.331203,0.12639 0.444517,0.19611 0.122019,0.06974 0.213537,0.122032 0.274555,0.156888 l -0.418369,1.281255 c -0.191758,-0.122017 -0.42709,-0.230967 -0.705998,-0.32685 -0.278917,-0.09587 -0.566545,-0.143808 -0.862886,-0.143815"/>
<path d="m 40.838329,38.709264 c 1.028487,8e-6 1.826002,0.213551 2.392548,0.640628 0.566536,0.418376 0.849806,1.106941 0.849812,2.065697 -6e-6,0.967483 -0.287634,1.669122 -0.862886,2.104919 -0.566546,0.427088 -1.372777,0.64063 -2.418696,0.640627 l -0.575257,0 0,2.732473 -1.608106,0 0,-7.988233 c 0.156887,-0.03486 0.331208,-0.06536 0.522961,-0.09152 0.200467,-0.02614 0.400936,-0.04357 0.601406,-0.0523 0.200466,-0.01742 0.396576,-0.0305 0.588331,-0.03922 0.19175,-0.0087 0.361712,-0.01307 0.509887,-0.01307 m 0.183037,1.398922 c -0.09588,6e-6 -0.230978,0.0044 -0.405295,0.01307 -0.165607,6e-6 -0.296347,0.0087 -0.392221,0.02615 l 0,2.614806 0.653701,0 c 0.514242,4e-6 0.902105,-0.10023 1.163589,-0.300703 0.261476,-0.20918 0.392217,-0.562178 0.392221,-1.058996 -4e-6,-0.470659 -0.130745,-0.801868 -0.392221,-0.993627 -0.252768,-0.200461 -0.592693,-0.300696 -1.019774,-0.300702"/>
</g>
</svg>
