<svg width="22" xmlns="http://www.w3.org/2000/svg" height="22" viewBox="0 0 22 22" xmlns:xlink="http://www.w3.org/1999/xlink">
<path style="fill:#aaa" d="M 11 1.832031 C 7.71875 1.832031 4.839844 3.582031 3.222656 6.1875 L 1.933594 4.640625 C 1.921875 4.632812 1.90625 4.632812 1.890625 4.625 C 1.707031 4.433594 1.3125 4.550781 1.261719 4.8125 L -0.0585938 12.460938 C -0.105469 12.675781 0.09375 12.90625 0.316406 12.90625 L 1.960938 12.488281 C 2.679688 16.828125 6.460938 20.152344 11 20.152344 C 16.046875 20.152344 20.167969 16.046875 20.167969 11 C 20.167969 5.953125 16.046875 1.832031 11 1.832031 Z M 12.117188 4.613281 C 12.597656 4.617188 13.105469 4.710938 13.636719 4.871094 C 16.417969 5.929688 18.390625 7.839844 18.390625 11 C 18.390625 15.089844 15.089844 18.390625 11 18.390625 C 7.265625 18.390625 4.203125 15.636719 3.695312 12.046875 L 7.792969 11 C 8.058594 10.992188 8.238281 10.625 8.078125 10.414062 L 6.417969 9.167969 C 6.453125 9.027344 5.902344 8.648438 8.121094 6.289062 C 9.167969 5.171875 10.570312 4.59375 12.117188 4.613281 Z M 16 6.945312 C 15.96875 6.949219 15.941406 6.953125 15.914062 6.960938 C 15.804688 6.976562 15.703125 7.015625 15.613281 7.074219 L 10.742188 10.339844 C 10.320312 10.5 10.171875 11.128906 10.484375 11.457031 C 10.484375 11.464844 10.484375 11.46875 10.484375 11.472656 C 10.5 11.484375 10.511719 11.492188 10.527344 11.5 C 10.53125 11.507812 10.535156 11.511719 10.542969 11.515625 C 10.554688 11.527344 10.570312 11.535156 10.585938 11.542969 C 10.589844 11.550781 10.59375 11.554688 10.597656 11.558594 C 10.613281 11.570312 10.628906 11.578125 10.640625 11.585938 C 10.648438 11.59375 10.652344 11.597656 10.65625 11.601562 L 10.671875 11.617188 C 10.679688 11.621094 10.691406 11.625 10.699219 11.628906 L 10.714844 11.628906 L 13.863281 13.433594 C 14.179688 13.613281 14.628906 13.492188 14.808594 13.175781 C 14.988281 12.863281 14.867188 12.410156 14.550781 12.230469 L 12.316406 10.957031 L 16.386719 8.222656 C 16.644531 8.0625 16.773438 7.722656 16.6875 7.433594 C 16.597656 7.144531 16.300781 6.933594 16 6.945312 Z "/>
</svg>
