<svg width="22" xmlns="http://www.w3.org/2000/svg" height="22" viewBox="0 0 22 22" xmlns:xlink="http://www.w3.org/1999/xlink">
<g style="fill:#aaa">
<path d="M 4.039062 2.292969 C 3.835938 2.3125 3.664062 2.503906 3.667969 2.707031 L 3.667969 12.875 C 3.667969 13.09375 3.863281 13.292969 4.082031 13.292969 L 11 13.292969 L 11 18.835938 C 11 19.050781 11.199219 19.25 11.414062 19.25 L 18.835938 19.25 C 19.050781 19.25 19.25 19.050781 19.25 18.835938 L 19.25 9.351562 C 18.976562 9.074219 17.867188 8.523438 17.601562 8.25 L 11.917969 8.25 L 11.917969 3.394531 C 11.640625 3.113281 10.53125 2.566406 10.269531 2.292969 L 4.082031 2.292969 C 4.066406 2.289062 4.054688 2.289062 4.039062 2.292969 Z M 5.042969 3.667969 L 9.167969 3.667969 L 9.167969 4.582031 L 10.542969 4.582031 L 10.542969 11.917969 L 5.042969 11.917969 Z M 12.375 9.625 L 16.5 9.625 L 16.5 10.542969 L 17.875 10.542969 L 17.875 17.875 L 12.375 17.875 Z "/>
<path d="M 5.5 5.519531 L 5.5 5.976562 L 10.082031 5.976562 L 10.082031 5.519531 Z "/>
<path d="M 5.5 6.40625 L 5.5 6.863281 L 6.875 6.863281 L 6.875 6.40625 Z "/>
<path d="M 9.167969 7.78125 L 9.167969 8.238281 L 10.082031 8.238281 L 10.082031 7.78125 Z "/>
<path d="M 5.5 8.710938 L 5.5 9.171875 L 7.792969 9.171875 L 7.792969 8.710938 Z "/>
<path d="M 8.25 8.710938 L 8.25 9.171875 L 10.082031 9.171875 L 10.082031 8.710938 Z "/>
<path d="M 7.332031 6.40625 L 7.332031 6.863281 L 10.082031 6.863281 L 10.082031 6.40625 Z "/>
<path d="M 5.5 7.792969 L 5.5 8.25 L 8.707031 8.25 L 8.707031 7.792969 Z "/>
<path d="M 12.832031 11.457031 L 12.832031 11.917969 L 17.417969 11.917969 L 17.417969 11.457031 Z "/>
<path d="M 12.832031 12.34375 L 12.832031 12.800781 L 14.207031 12.800781 L 14.207031 12.34375 Z "/>
<path d="M 16.5 13.71875 L 16.5 14.175781 L 17.417969 14.175781 L 17.417969 13.71875 Z "/>
<path d="M 12.832031 14.652344 L 12.832031 15.109375 L 15.125 15.109375 L 15.125 14.652344 Z "/>
<path d="M 15.582031 14.652344 L 15.582031 15.109375 L 17.417969 15.109375 L 17.417969 14.652344 Z "/>
<path d="M 14.667969 12.34375 L 14.667969 12.800781 L 17.417969 12.800781 L 17.417969 12.34375 Z "/>
<path d="M 12.832031 13.730469 L 12.832031 14.1875 L 16.042969 14.1875 L 16.042969 13.730469 Z "/>
</g>
</svg>
