<svg version="1.1" viewBox="0 0 22 22" xmlns="http://www.w3.org/2000/svg">
 <g transform="translate(-3,3)" fill="#268bd2">
  <path d="m20.4-2c-1.29 0.00937-2.3 0.455-3.38 1.5l1 1.5c1.57-1.1 3.74-1.6 4 0 0.034 0.996-4.11 1.27-5 3.2l2e-3 1.8 7 5e-5v-2h-4c2.3-0.933 4-1 3.99-3 0.00443-2.07-1.74-3.02-3.49-3z" fill="#278bd3"/>
  <path d="m5 3v3h7c0.557 0 1 0.461 1 1v1h-4.5c-3.25 0-4.5 1.7-4.5 4.5 0 2.2 1.41 4.5 4.5 4.5h7.5v-10c0-2.29-1.82-4-4-4h-7zm3.68 8c0.11-0.00141 0.217 0 0.318 0h4v3h-4c-0.812 0-2-0.06-2-1.5 0-1.36 0.911-1.49 1.68-1.5z" style="fill:#278bd3"/>
 </g>
</svg>
