<svg version="1.1" viewBox="0 0 22 22" xmlns="http://www.w3.org/2000/svg">
 <g transform="translate(-3,3)" style="color:#000000;fill:#268bd2">
  <path d="m20.389 10c-1.2897 0.0094-2.2871 0.45088-3.3691 1.4961l0.87109 1.8594c1.5672-1.096 3.2114-1.958 3.2637-0.56445 0.034037 0.99621-3.2642 1.4956-4.1543 3.4277l0.001953 1.7812h6.998v-1-0.86133-0.13867h-3.125c2.2982-0.93345 2.7452-2.3154 2.8281-3.1934 0.15497-1.499-1.5606-2.8254-3.3145-2.8066z" style="color:#000000;enable-background:new;fill:#278bd3;font-feature-settings:normal;font-variant-caps:normal;font-variant-ligatures:normal;font-variant-numeric:normal;stroke-width:1.8002"/>
  <path d="m5.625-1v3h7.3125c0.55656 0 1.6794 0.464 1.625 1v1h-6.5c-3.25 0-4.0625 2-4.0625 4.8 0 2.2 0.8125 4.2 3.9 4.2h9.1v-9.8c0-2.288-1.716-4.2-3.9-4.2m-5.0375 8h6.5v3h-6.5c-0.8125 0-1.625 0-1.625-1.44 0-1.56 0.8125-1.56 1.625-1.56z" style="stroke-width:.90139"/>
 </g>
</svg>
