<svg width="22" xmlns="http://www.w3.org/2000/svg" viewBox="0 0 22 22" height="22">
<path style="fill:#8abf50" d="M 19.999336,11.744138 C 20.020946,10.86369 19.513233,10.061255 18.730067,9.721334 17.941498,9.375842 17.028703,9.570878 16.434577,10.206138 L 13,13.683356 13,5.3055042 C 13,3.5223159 11.89761,2.0146161 10.882191,1.4908053 9.8721782,0.96699439 8.9161746,1.0004285 8.9161746,1.0004285 l -3.456737,0 c -0.74536,-0.011146 -1.442107,0.3956452 -1.820188,1.0587673 -0.37808,0.6686957 -0.37808,1.4934217 0,2.1565438 C 4.0173306,4.8844352 4.7903488,5.0111456 5.5357088,5 l 3.4642914,0 0,8.683356 -3.4541436,-3.477218 c -0.8203771,-0.825857 -2.122653,-0.83587 -2.938227,0 -0.810173,0.835871 -0.810173,2.19555 0,3.031421 l 6.9134736,7.132753 C 9.9099852,20.771529 10.439298,21 10.990216,21 c 0.550917,0 1.08023,-0.228471 1.469113,-0.629688 l 6.913474,-7.132753 c 0.388882,-0.390074 0.61033,-0.913885 0.626531,-1.471131 0,-0.0056 0,-0.01672 0,-0.0223 z"/>
</svg>
