<?xml version="1.0" encoding="UTF-8" standalone="no"?>
<svg
   xmlns:dc="http://purl.org/dc/elements/1.1/"
   xmlns:cc="http://creativecommons.org/ns#"
   xmlns:rdf="http://www.w3.org/1999/02/22-rdf-syntax-ns#"
   xmlns:svg="http://www.w3.org/2000/svg"
   xmlns="http://www.w3.org/2000/svg"
   xmlns:sodipodi="http://sodipodi.sourceforge.net/DTD/sodipodi-0.dtd"
   xmlns:inkscape="http://www.inkscape.org/namespaces/inkscape"
   width="22"
   height="22"
   viewBox="0 0 22 22"
   id="svg2"
   version="1.1"
   inkscape:version="0.91 r13725"
   sodipodi:docname="go-jump.svg">
  <metadata
     id="metadata18">
    <rdf:RDF>
      <cc:Work
         rdf:about="">
        <dc:format>image/svg+xml</dc:format>
        <dc:type
           rdf:resource="http://purl.org/dc/dcmitype/StillImage" />
      </cc:Work>
    </rdf:RDF>
  </metadata>
  <defs
     id="defs16" />
  <sodipodi:namedview
     pagecolor="#ffffff"
     bordercolor="#666666"
     borderopacity="1"
     objecttolerance="10"
     gridtolerance="10"
     guidetolerance="10"
     inkscape:pageopacity="0"
     inkscape:pageshadow="2"
     inkscape:window-width="1366"
     inkscape:window-height="704"
     id="namedview14"
     showgrid="true"
     inkscape:zoom="58.513693"
     inkscape:cx="5.0796715"
     inkscape:cy="13.8786"
     inkscape:window-x="0"
     inkscape:window-y="27"
     inkscape:window-maximized="1"
     inkscape:current-layer="svg2">
    <inkscape:grid
       type="xygrid"
       id="grid4149" />
  </sodipodi:namedview>
  <g
     transform="matrix(0 -1 1 0 0 22)"
     id="g4">
    <path
       style="fill:#268bd2;fill-rule:evenodd"
       d="M 3.0136719,5 C 1.7549048,6.6726007 1,8.745886 1,11 1,16.522017 5.4779827,21 11,21 16.522017,21 21,16.522017 21,11 21,8.745886 20.245095,6.6726007 18.986328,5 15,4 7,4 3.0136719,5 Z"
       transform="matrix(0,1,-1,0,22,0)"
       id="path6"
       inkscape:connector-curvature="0"
       sodipodi:nodetypes="cssscc" />
    <g
       style="fill:#fff"
       id="g8">
      <path
         style="fill-rule:evenodd;fill-opacity:1;fill:#eaf4fb"
         d="M 11 1 C 7.9673291 1 5 2 3 5 L 10.003906 5 L 10.003906 13.3125 L 7.9726562 11.34375 C 7.6425927 11.01068 7.1294904 10.912604 6.6914062 11.09375 C 6.2533217 11.274895 5.9889043 11.691698 6.0039062 12.15625 C 6.0128962 12.44842 6.1346153 12.735903 6.3476562 12.9375 L 10.191406 16.65625 C 10.407448 16.869534 10.697846 17 11.003906 17 C 11.309964 17 11.600365 16.869534 11.816406 16.65625 L 15.660156 12.9375 C 16.110243 12.499245 16.110243 11.782007 15.660156 11.34375 C 15.210069 10.905494 14.485244 10.905494 14.035156 11.34375 L 12.003906 13.3125 L 12.003906 5 L 19 5 C 17 2 14.039773 1 11 1 z "
         transform="matrix(0,1,-1,0,22,0)"
         id="path10" />
    </g>
  </g>
</svg>
