<svg width="22" xmlns="http://www.w3.org/2000/svg" height="22" viewBox="0 0 22 22" xmlns:xlink="http://www.w3.org/1999/xlink">
<path style="fill:#aaa" d="M 5.429688 7.332031 C 5.214844 7.367188 5.039062 7.574219 5.042969 7.792969 L 5.042969 14.207031 C 5.039062 14.53125 5.449219 14.769531 5.730469 14.609375 L 11 11.53125 L 11 14.207031 C 10.996094 14.53125 11.410156 14.769531 11.6875 14.609375 L 17.1875 11.402344 C 17.472656 11.242188 17.472656 10.757812 17.1875 10.597656 L 11.6875 7.390625 C 11.597656 7.339844 11.488281 7.316406 11.386719 7.332031 C 11.171875 7.367188 10.996094 7.574219 11 7.792969 L 11 10.46875 L 5.730469 7.390625 C 5.640625 7.339844 5.53125 7.316406 5.429688 7.332031 Z "/>
</svg>
