<svg width="22" xmlns="http://www.w3.org/2000/svg" height="22" viewBox="0 0 22 22" xmlns:xlink="http://www.w3.org/1999/xlink">
<g style="fill:#aaa">
<path d="M 3.109375 10.929688 C 2.386719 10.980469 1.832031 11.582031 1.832031 12.304688 L 1.832031 18.792969 C 1.832031 18.796875 1.832031 18.800781 1.832031 18.804688 C 1.832031 18.835938 1.832031 18.863281 1.832031 18.890625 C 1.835938 18.929688 1.839844 18.96875 1.847656 19.007812 C 1.847656 19.015625 1.847656 19.027344 1.847656 19.035156 C 1.851562 19.050781 1.855469 19.0625 1.863281 19.078125 C 1.871094 19.105469 1.878906 19.136719 1.890625 19.164062 C 1.894531 19.183594 1.898438 19.203125 1.90625 19.222656 C 1.914062 19.246094 1.921875 19.269531 1.933594 19.292969 C 1.949219 19.335938 1.96875 19.378906 1.992188 19.421875 C 2.003906 19.457031 2.019531 19.488281 2.035156 19.523438 C 2.042969 19.53125 2.054688 19.542969 2.0625 19.550781 C 2.066406 19.558594 2.070312 19.570312 2.078125 19.578125 C 2.09375 19.605469 2.113281 19.628906 2.132812 19.652344 C 2.144531 19.664062 2.152344 19.679688 2.164062 19.695312 C 2.179688 19.714844 2.199219 19.734375 2.21875 19.75 C 2.234375 19.765625 2.25 19.78125 2.261719 19.792969 C 2.316406 19.839844 2.375 19.882812 2.433594 19.921875 C 2.472656 19.949219 2.511719 19.972656 2.550781 19.996094 C 2.566406 20.003906 2.585938 20.015625 2.605469 20.023438 C 2.628906 20.035156 2.652344 20.042969 2.679688 20.050781 C 2.691406 20.0625 2.707031 20.070312 2.722656 20.082031 C 2.792969 20.105469 2.863281 20.125 2.9375 20.136719 C 2.957031 20.144531 2.972656 20.148438 2.992188 20.152344 C 3.023438 20.15625 3.050781 20.164062 3.078125 20.167969 C 3.097656 20.167969 3.117188 20.167969 3.136719 20.167969 C 3.160156 20.167969 3.183594 20.167969 3.207031 20.167969 C 3.226562 20.167969 3.246094 20.167969 3.265625 20.167969 L 9.695312 20.167969 C 10.050781 20.171875 10.398438 20.039062 10.65625 19.792969 C 11.070312 19.40625 11.203125 18.804688 10.992188 18.277344 C 10.777344 17.75 10.265625 17.410156 9.695312 17.417969 L 6.53125 17.417969 L 9.222656 14.722656 C 9.632812 14.328125 9.757812 13.722656 9.535156 13.199219 C 9.3125 12.675781 8.789062 12.339844 8.222656 12.359375 C 7.863281 12.371094 7.523438 12.519531 7.277344 12.777344 L 4.582031 15.46875 L 4.582031 12.304688 C 4.582031 11.921875 4.425781 11.554688 4.144531 11.292969 C 3.867188 11.035156 3.488281 10.902344 3.109375 10.929688 Z "/>
<path d="M 18.902344 11 C 19.617188 10.945312 20.167969 10.351562 20.167969 9.636719 L 20.167969 3.199219 C 20.167969 3.195312 20.167969 3.191406 20.167969 3.1875 C 20.167969 3.15625 20.167969 3.128906 20.167969 3.101562 C 20.164062 3.0625 20.160156 3.023438 20.152344 2.988281 C 20.152344 2.976562 20.152344 2.96875 20.152344 2.957031 C 20.148438 2.945312 20.144531 2.929688 20.136719 2.914062 C 20.128906 2.886719 20.121094 2.859375 20.109375 2.832031 C 20.105469 2.8125 20.101562 2.792969 20.09375 2.773438 C 20.085938 2.75 20.078125 2.726562 20.066406 2.703125 C 20.050781 2.660156 20.03125 2.617188 20.011719 2.574219 C 19.996094 2.542969 19.984375 2.507812 19.96875 2.476562 C 19.957031 2.464844 19.949219 2.457031 19.9375 2.445312 C 19.933594 2.4375 19.929688 2.429688 19.925781 2.417969 C 19.90625 2.394531 19.886719 2.371094 19.867188 2.347656 C 19.859375 2.332031 19.847656 2.320312 19.839844 2.304688 C 19.820312 2.285156 19.800781 2.265625 19.78125 2.25 C 19.769531 2.234375 19.753906 2.21875 19.742188 2.207031 C 19.6875 2.160156 19.628906 2.117188 19.570312 2.078125 C 19.53125 2.050781 19.496094 2.027344 19.457031 2.007812 C 19.4375 1.996094 19.417969 1.988281 19.398438 1.976562 C 19.375 1.96875 19.351562 1.957031 19.328125 1.949219 C 19.3125 1.941406 19.300781 1.929688 19.285156 1.921875 C 19.214844 1.898438 19.144531 1.878906 19.074219 1.863281 C 19.054688 1.859375 19.035156 1.855469 19.015625 1.851562 C 18.988281 1.84375 18.957031 1.839844 18.929688 1.835938 C 18.910156 1.835938 18.890625 1.835938 18.875 1.835938 C 18.851562 1.835938 18.824219 1.835938 18.800781 1.835938 C 18.785156 1.835938 18.765625 1.835938 18.746094 1.835938 L 12.363281 1.835938 C 12.011719 1.832031 11.667969 1.964844 11.414062 2.207031 C 11 2.589844 10.871094 3.1875 11.082031 3.710938 C 11.292969 4.230469 11.800781 4.570312 12.363281 4.5625 L 15.503906 4.5625 L 12.832031 7.234375 C 12.425781 7.625 12.304688 8.230469 12.523438 8.75 C 12.746094 9.269531 13.265625 9.597656 13.828125 9.578125 C 14.183594 9.566406 14.519531 9.421875 14.765625 9.167969 L 17.4375 6.496094 L 17.4375 9.636719 C 17.4375 10.015625 17.59375 10.378906 17.871094 10.636719 C 18.152344 10.894531 18.523438 11.027344 18.902344 11 Z "/>
</g>
</svg>
