<svg width="22" xmlns="http://www.w3.org/2000/svg" height="22" viewBox="0 0 22 22" xmlns:xlink="http://www.w3.org/1999/xlink">
<path style="fill:#aaa" d="M 3.410156 2.304688 C 2.570312 2.304688 1.863281 2.976562 1.863281 3.824219 L 1.863281 15.425781 C 1.863281 16.273438 2.570312 16.945312 3.410156 16.945312 L 12.863281 16.945312 L 16.785156 19.292969 L 18.390625 20.253906 L 17.804688 18.492188 L 17.273438 16.945312 L 18.632812 16.945312 C 19.472656 16.945312 20.195312 16.273438 20.195312 15.425781 L 20.195312 3.824219 C 20.195312 2.976562 19.472656 2.304688 18.632812 2.304688 Z M 14.636719 4.554688 C 15.160156 4.535156 15.644531 4.816406 15.894531 5.273438 C 16.144531 5.730469 16.113281 6.289062 15.8125 6.71875 L 11.230469 13.59375 C 11 13.933594 10.628906 14.15625 10.21875 14.195312 C 9.804688 14.234375 9.398438 14.085938 9.109375 13.792969 L 6.359375 11.042969 C 5.976562 10.703125 5.8125 10.179688 5.9375 9.679688 C 6.0625 9.183594 6.449219 8.796875 6.949219 8.675781 C 7.445312 8.558594 7.96875 8.722656 8.308594 9.109375 L 9.867188 10.671875 L 13.519531 5.183594 C 13.765625 4.804688 14.183594 4.566406 14.636719 4.554688 Z "/>
</svg>
