<svg width="22" xmlns="http://www.w3.org/2000/svg" height="22" viewBox="0 0 22 22" xmlns:xlink="http://www.w3.org/1999/xlink">
<g style="fill:#aaa">
<path d="M 6.539062 2.789062 C 6.339844 2.796875 6.140625 2.851562 5.964844 2.949219 C 1.875 5.1875 0.675781 9.679688 1.746094 13.445312 C 2.816406 17.207031 6.160156 20.472656 10.820312 20.472656 C 15.414062 20.472656 18.859375 17.40625 19.992188 13.699219 C 21.128906 9.996094 19.925781 5.503906 15.742188 2.980469 C 15.359375 2.726562 14.867188 2.703125 14.460938 2.917969 C 14.054688 3.132812 13.796875 3.554688 13.792969 4.015625 C 13.785156 4.476562 14.03125 4.90625 14.433594 5.132812 C 17.710938 7.109375 18.433594 10.226562 17.597656 12.960938 C 16.761719 15.703125 14.320312 17.9375 10.820312 17.9375 C 7.308594 17.9375 4.976562 15.597656 4.171875 12.769531 C 3.371094 9.941406 4.117188 6.839844 7.175781 5.164062 C 7.695312 4.886719 7.957031 4.289062 7.804688 3.71875 C 7.648438 3.152344 7.125 2.765625 6.539062 2.789062 Z "/>
<path d="M 10.726562 1.355469 C 10.117188 1.4375 9.625 2.023438 9.640625 2.636719 L 9.640625 8.886719 C 9.550781 9.59375 10.175781 10.304688 10.886719 10.304688 C 11.59375 10.304688 12.21875 9.59375 12.132812 8.886719 L 12.132812 2.636719 C 12.148438 1.917969 11.4375 1.269531 10.726562 1.355469 Z "/>
</g>
</svg>
