<svg width="22" xmlns="http://www.w3.org/2000/svg" height="22" viewBox="0 0 22 22" xmlns:xlink="http://www.w3.org/1999/xlink">
<path style="fill:#aaa" d="M 5.035156 9.578125 C 5.042969 9.21875 5.191406 8.882812 5.449219 8.632812 L 10.03125 4.050781 C 10.289062 3.789062 10.640625 3.644531 11.007812 3.644531 C 11.371094 3.644531 11.722656 3.789062 11.980469 4.050781 L 16.5625 8.632812 C 17.101562 9.171875 17.101562 10.042969 16.5625 10.582031 C 16.027344 11.117188 15.152344 11.117188 14.617188 10.582031 L 11.007812 6.972656 L 7.398438 10.582031 C 7 10.988281 6.394531 11.113281 5.871094 10.890625 C 5.347656 10.667969 5.015625 10.148438 5.035156 9.578125 Z "/>
<g style="stroke-linecap:round;stroke:#aaa;stroke-linejoin:round;fill:none;stroke-width:4">
<path d="M 18.017045 26.991477 L 18.017045 32.011364 " transform="scale(.45833)"/>
<path d="M 24 26.991477 L 24 37.125 " transform="scale(.45833)"/>
<path d="M 30 26.982955 L 30 34.142045 " transform="scale(.45833)"/>
</g>
</svg>
