<svg width="22" xmlns="http://www.w3.org/2000/svg" height="22" viewBox="0 0 22 22" xmlns:xlink="http://www.w3.org/1999/xlink">
<path style="fill:#aaa" d="M 2.449219 4.125 C 2.097656 4.160156 1.832031 4.460938 1.832031 4.8125 L 1.832031 17.1875 C 1.832031 17.566406 2.140625 17.875 2.519531 17.875 L 19.480469 17.875 C 19.859375 17.875 20.167969 17.566406 20.167969 17.1875 L 20.167969 4.8125 C 20.167969 4.433594 19.859375 4.125 19.480469 4.125 L 2.519531 4.125 C 2.496094 4.125 2.472656 4.125 2.449219 4.125 Z M 4.554688 5.5 L 17.445312 5.5 L 11 10.15625 Z M 3.207031 6.214844 L 10.597656 11.558594 C 10.839844 11.730469 11.160156 11.730469 11.402344 11.558594 L 18.792969 6.214844 L 18.792969 16.5 L 3.207031 16.5 Z "/>
</svg>
