<?xml version="1.0" encoding="UTF-8" standalone="no"?>
<svg
   xmlns:dc="http://purl.org/dc/elements/1.1/"
   xmlns:cc="http://creativecommons.org/ns#"
   xmlns:rdf="http://www.w3.org/1999/02/22-rdf-syntax-ns#"
   xmlns:svg="http://www.w3.org/2000/svg"
   xmlns="http://www.w3.org/2000/svg"
   xmlns:sodipodi="http://sodipodi.sourceforge.net/DTD/sodipodi-0.dtd"
   xmlns:inkscape="http://www.inkscape.org/namespaces/inkscape"
   width="22"
   height="22"
   viewBox="0 0 22 22"
   id="svg2"
   version="1.1"
   inkscape:version="0.91 r"
   sodipodi:docname="mail-attachment.svg">
  <metadata
     id="metadata28">
    <rdf:RDF>
      <cc:Work
         rdf:about="">
        <dc:format>image/svg+xml</dc:format>
        <dc:type
           rdf:resource="http://purl.org/dc/dcmitype/StillImage" />
        <dc:title></dc:title>
      </cc:Work>
    </rdf:RDF>
  </metadata>
  <defs
     id="defs26" />
  <sodipodi:namedview
     pagecolor="#ffffff"
     bordercolor="#666666"
     borderopacity="1"
     objecttolerance="10"
     gridtolerance="10"
     guidetolerance="10"
     inkscape:pageopacity="0"
     inkscape:pageshadow="2"
     inkscape:window-width="1920"
     inkscape:window-height="1056"
     id="namedview24"
     showgrid="true"
     inkscape:zoom="31.999999"
     inkscape:cx="13.109281"
     inkscape:cy="9.9546901"
     inkscape:window-x="0"
     inkscape:window-y="24"
     inkscape:window-maximized="1"
     inkscape:current-layer="svg2"
     showguides="false">
    <inkscape:grid
       type="xygrid"
       id="grid4186" />
  </sodipodi:namedview>
  <rect
     style="opacity:1;fill:none;fill-opacity:1;fill-rule:nonzero;stroke:none;stroke-width:2;stroke-linecap:square;stroke-linejoin:miter;stroke-miterlimit:4;stroke-dasharray:none;stroke-dashoffset:0;stroke-opacity:1"
     id="rect4134"
     width="2"
     height="10"
     x="5"
     y="5.7500682"
     rx="0.5"
     ry="0.5" />
  <path
     style="opacity:1;fill:#808080;fill-opacity:1;fill-rule:nonzero;stroke:none;stroke-width:2;stroke-linecap:square;stroke-linejoin:miter;stroke-miterlimit:4;stroke-dasharray:none;stroke-dashoffset:0;stroke-opacity:1"
     d="m 12.5,0.25000013 c -0.777268,10e-9 -1.554536,0.19996654 -2.25,0.60154565 C 8.859071,1.654704 8,3.1436848 8,4.7498741 l 0,0.499986 0,0.499986 0,7.2497969 0,0.499986 0,0.499986 c 0,1.070267 0.573163,2.062335 1.5,2.597583 0.926837,0.535249 2.073163,0.535248 3,0 0.926837,-0.535248 1.5,-1.527316 1.5,-2.597583 l 0,-0.499986 0,-0.499986 0,-5.4998459 c 0,-0.2769923 -0.223,-0.499986 -0.5,-0.499986 l -1,0 c -0.277,0 -0.5,0.2229937 -0.5,0.499986 l 0,5.4998459 0,0.499986 0,0.499986 c 0,0.359166 -0.189233,0.687695 -0.5,0.867164 -0.310767,0.179465 -0.689233,0.179465 -1,0 C 10.189233,14.687305 10,14.358781 10,13.999615 l 0,-0.499986 0,-0.499986 0,-7.2497969 0,-0.499986 0,-0.499986 c 0,-0.8949974 0.475121,-1.7185199 1.25,-2.1659549 0.774879,-0.4474352 1.725121,-0.4474352 2.5,0 0.774879,0.447435 1.25,1.2709575 1.25,2.1659549 l 0,0.499986 0,0.499986 0,8.9997479 0,0.499986 0,0.499986 c 0,1.430857 -0.761016,2.749362 -2,3.464747 -1.238984,0.715385 -2.761016,0.715385 -4,0 C 7.761016,18.498928 7,17.180423 7,15.749566 L 7,15.24958 7,14.749594 7,6.4998251 C 7,6.2228328 6.777,5.9998391 6.5,5.9998391 l -1,0 c -0.277,0 -0.5,0.2229937 -0.5,0.499986 l 0,8.2497689 0,0.499986 0,0.499986 c 0,2.142085 1.144974,4.126035 3,5.197121 1.855026,1.071084 4.144974,1.071084 6,0 1.855026,-1.071086 3,-3.055036 3,-5.197121 l 0,-0.499986 0,-0.499986 0,-8.9997479 0,-0.499986 0,-0.499986 C 17,3.1436848 16.140929,1.6547041 14.75,0.85154578 14.054536,0.44996664 13.277268,0.25000012 12.5,0.25000013 Z"
     id="rect4136"
     inkscape:connector-curvature="0" />
</svg>
