<svg width="22" xmlns="http://www.w3.org/2000/svg" height="22" viewBox="0 0 22 22" xmlns:xlink="http://www.w3.org/1999/xlink">
<path style="fill:#aaa" d="M 4.054688 7.332031 C 3.839844 7.367188 3.664062 7.574219 3.667969 7.792969 L 3.667969 14.207031 C 3.664062 14.53125 4.074219 14.769531 4.355469 14.609375 L 9.625 11.53125 L 9.625 14.207031 C 9.621094 14.53125 10.035156 14.769531 10.3125 14.609375 L 15.8125 11.402344 C 16.097656 11.242188 16.097656 10.757812 15.8125 10.597656 L 10.3125 7.390625 C 10.222656 7.339844 10.113281 7.316406 10.011719 7.332031 C 9.796875 7.367188 9.621094 7.574219 9.625 7.792969 L 9.625 10.46875 L 4.355469 7.390625 C 4.265625 7.339844 4.15625 7.316406 4.054688 7.332031 Z M 16.957031 7.332031 C 16.703125 7.332031 16.5 7.539062 16.5 7.792969 L 16.5 14.207031 C 16.5 14.460938 16.703125 14.667969 16.957031 14.667969 L 17.875 14.667969 C 18.128906 14.667969 18.332031 14.460938 18.332031 14.207031 L 18.332031 7.792969 C 18.332031 7.539062 18.128906 7.332031 17.875 7.332031 Z "/>
</svg>
