<svg width="22" xmlns="http://www.w3.org/2000/svg" height="22" viewBox="0 0 22 22" xmlns:xlink="http://www.w3.org/1999/xlink">
<g style="fill:#aaa">
<path d="M 11.015625 1.363281 L 16.121094 5.707031 L 11.015625 9.742188 L 11 7.226562 C 10 7.253906 8.269531 8.171875 7.542969 8.878906 C 5.75 10.617188 5.742188 13.308594 7.023438 15.042969 C 8.179688 16.609375 9.75 16.929688 10.792969 16.929688 C 13.820312 16.929688 15.710938 14.449219 15.886719 13.394531 L 19.539062 12.910156 C 19.242188 17.957031 14.8125 20.707031 10.921875 20.621094 L 10.921875 20.636719 C 8.734375 20.695312 6.550781 19.875 4.886719 18.171875 C 1.632812 14.847656 1.625 9.472656 5.03125 6.140625 C 6.703125 4.503906 8.796875 3.773438 11 3.730469 Z "/>
<path d="M 12.023438 12.449219 C 12.023438 13.046875 11.539062 13.53125 10.941406 13.53125 C 10.34375 13.53125 9.863281 13.046875 9.863281 12.449219 C 9.863281 11.851562 10.34375 11.371094 10.941406 11.371094 C 11.539062 11.371094 12.023438 11.851562 12.023438 12.449219 Z "/>
</g>
</svg>
