<svg width="22" xmlns="http://www.w3.org/2000/svg" height="22" viewBox="0 0 22 22" xmlns:xlink="http://www.w3.org/1999/xlink">
<g style="fill:#aaa">
<path d="M 2.722656 1.359375 L 2.722656 2.722656 L 19.050781 2.722656 L 19.050781 1.359375 Z M 19.050781 2.722656 L 19.050781 19.050781 L 20.410156 19.050781 L 20.410156 2.722656 Z M 19.050781 19.050781 L 2.722656 19.050781 L 2.722656 20.410156 L 19.050781 20.410156 Z M 2.722656 19.050781 L 2.722656 2.722656 L 1.359375 2.722656 L 1.359375 19.050781 Z "/>
<path d="M 10.671875 4.101562 C 10.472656 4.15625 10.300781 4.296875 10.203125 4.484375 L 9.140625 6.652344 L 6.847656 5.886719 C 6.3125 5.71875 5.722656 6.339844 5.910156 6.863281 L 6.632812 9.117188 L 4.507812 10.222656 C 4.042969 10.484375 4.042969 11.28125 4.507812 11.542969 L 6.632812 12.648438 L 5.910156 14.898438 C 5.722656 15.425781 6.3125 16.042969 6.847656 15.878906 L 9.140625 15.113281 L 10.203125 17.28125 C 10.453125 17.789062 11.320312 17.789062 11.566406 17.28125 L 12.628906 15.113281 L 14.925781 15.878906 C 15.457031 16.042969 16.046875 15.425781 15.859375 14.898438 L 15.136719 12.648438 L 17.261719 11.542969 C 17.730469 11.28125 17.730469 10.484375 17.261719 10.222656 L 15.136719 9.117188 L 15.859375 6.863281 C 16.046875 6.339844 15.457031 5.71875 14.925781 5.886719 L 12.628906 6.652344 L 11.566406 4.484375 C 11.40625 4.167969 11.007812 3.996094 10.671875 4.101562 Z "/>
</g>
</svg>
