<svg width="22" xmlns="http://www.w3.org/2000/svg" height="22" viewBox="0 0 22 22" xmlns:xlink="http://www.w3.org/1999/xlink">
<path style="fill:#aaa" d="M 2.722656 1.359375 L 2.722656 2.722656 L 19.050781 2.722656 L 19.050781 1.359375 Z M 19.050781 2.722656 L 19.050781 19.050781 L 20.410156 19.050781 L 20.410156 2.722656 Z M 19.050781 19.050781 L 2.722656 19.050781 L 2.722656 20.410156 L 19.050781 20.410156 Z M 2.722656 19.050781 L 2.722656 2.722656 L 1.359375 2.722656 L 1.359375 19.050781 Z M 8.164062 5.441406 L 6.804688 6.804688 L 14.96875 6.804688 L 13.605469 5.441406 Z M 12.246094 6.804688 L 12.246094 9.523438 L 9.523438 9.523438 L 9.523438 6.804688 L 6.804688 6.804688 L 6.804688 9.523438 L 5.441406 9.523438 L 5.441406 16.328125 L 16.328125 16.328125 L 16.328125 9.523438 L 14.96875 9.523438 L 14.96875 6.804688 Z "/>
</svg>
