<svg width="22" xmlns="http://www.w3.org/2000/svg" height="22" viewBox="0 0 22 22" xmlns:xlink="http://www.w3.org/1999/xlink">
<path style="fill:#aaa" d="M 16.554688 14.65625 C 16.769531 14.621094 16.945312 14.414062 16.941406 14.195312 L 16.941406 7.78125 C 16.945312 7.460938 16.535156 7.21875 16.253906 7.378906 L 10.984375 10.457031 L 10.984375 7.78125 C 10.988281 7.460938 10.574219 7.21875 10.296875 7.378906 L 4.796875 10.585938 C 4.511719 10.746094 4.511719 11.230469 4.796875 11.390625 L 10.296875 14.597656 C 10.386719 14.652344 10.496094 14.671875 10.597656 14.65625 C 10.8125 14.621094 10.988281 14.414062 10.984375 14.195312 L 10.984375 11.519531 L 16.253906 14.597656 C 16.34375 14.652344 16.453125 14.671875 16.554688 14.65625 Z "/>
</svg>
