<svg width="22" xmlns="http://www.w3.org/2000/svg" height="22" viewBox="0 0 22 22" xmlns:xlink="http://www.w3.org/1999/xlink">
<path style="fill:#aaa" d="M 10.886719 0 C 4.875 0 0 4.875 0 10.886719 C 0 15.960938 3.464844 20.222656 8.164062 21.429688 L 8.164062 17.09375 C 5.769531 16.039062 4.082031 13.667969 4.082031 10.886719 C 4.082031 7.128906 7.128906 4.082031 10.886719 4.082031 C 13.667969 4.082031 16.039062 5.769531 17.09375 8.164062 L 21.429688 8.164062 C 20.222656 3.464844 15.960938 0 10.886719 0 Z M 11.863281 7.484375 C 11.46875 7.558594 11.085938 7.8125 10.886719 8.164062 L 10.078125 9.523438 L 6.804688 9.523438 C 6.03125 9.496094 5.328125 10.246094 5.398438 11.011719 C 5.410156 11.070312 5.425781 11.128906 5.441406 11.183594 C 5.578125 11.792969 6.179688 12.261719 6.804688 12.246094 L 10.460938 12.246094 C 10.503906 12.25 10.546875 12.25 10.585938 12.246094 C 10.933594 12.324219 11.308594 12.261719 11.609375 12.074219 C 11.621094 12.0625 11.636719 12.046875 11.652344 12.035156 C 11.679688 12.019531 11.710938 12.007812 11.734375 11.992188 C 11.75 11.976562 11.765625 11.960938 11.777344 11.949219 C 11.792969 11.933594 11.808594 11.917969 11.820312 11.90625 C 11.835938 11.890625 11.851562 11.875 11.863281 11.863281 C 11.875 11.851562 11.890625 11.835938 11.90625 11.820312 C 11.921875 11.792969 11.933594 11.765625 11.949219 11.734375 C 11.960938 11.722656 11.976562 11.707031 11.992188 11.691406 C 12.003906 11.679688 12.019531 11.664062 12.035156 11.652344 C 12.050781 11.625 12.0625 11.59375 12.074219 11.566406 C 12.105469 11.511719 12.136719 11.453125 12.160156 11.394531 L 13.265625 9.523438 C 13.621094 8.898438 13.378906 8.007812 12.757812 7.652344 C 12.601562 7.5625 12.421875 7.5 12.246094 7.484375 C 12.113281 7.46875 11.996094 7.460938 11.863281 7.484375 Z M 14.96875 9.523438 L 14.96875 12.246094 L 17.6875 12.246094 L 14.96875 17.6875 L 14.96875 20.410156 L 21.769531 20.410156 L 21.769531 17.6875 L 19.050781 17.6875 L 21.769531 12.246094 L 21.769531 9.523438 Z M 9.523438 16.328125 L 9.523438 17.6875 L 10.886719 17.6875 L 9.523438 20.410156 L 9.523438 21.769531 L 13.605469 21.769531 L 13.605469 20.410156 L 12.246094 20.410156 L 13.605469 17.6875 L 13.605469 16.328125 Z "/>
</svg>
