<svg width="22" xmlns="http://www.w3.org/2000/svg" height="22" viewBox="0 0 22 22" xmlns:xlink="http://www.w3.org/1999/xlink">
<g style="fill:#aaa">
<path d="M 11 2.078125 C 7.558594 2.078125 4.824219 4.988281 4.824219 8.878906 C 4.824219 10.75 5.121094 12.527344 6.175781 13.789062 C 6.25 17.5 2.292969 14.457031 2.292969 19.957031 L 19.707031 19.957031 C 19.707031 14.457031 15.78125 17.898438 15.78125 13.789062 C 16.835938 12.527344 17.210938 10.75 17.210938 8.878906 C 17.210938 4.988281 14.441406 2.078125 11 2.078125 Z "/>
<path d="M 10.167969 7.335938 C 9.859375 7.402344 9.617188 7.707031 9.625 8.023438 L 9.625 9.625 L 8.019531 9.625 C 7.660156 9.625 7.332031 9.953125 7.332031 10.3125 L 7.332031 11.6875 C 7.332031 12.050781 7.660156 12.375 8.019531 12.375 L 9.625 12.375 L 9.625 13.980469 C 9.625 14.339844 9.953125 14.667969 10.3125 14.667969 L 11.6875 14.667969 C 12.046875 14.667969 12.375 14.339844 12.375 13.980469 L 12.375 12.375 L 13.980469 12.375 C 14.339844 12.375 14.667969 12.050781 14.667969 11.6875 L 14.667969 10.3125 C 14.667969 9.953125 14.339844 9.625 13.980469 9.625 L 12.375 9.625 L 12.375 8.023438 C 12.375 7.664062 12.046875 7.335938 11.6875 7.335938 L 10.3125 7.335938 C 10.265625 7.332031 10.21875 7.332031 10.167969 7.335938 Z "/>
</g>
</svg>
