<svg width="22" xmlns="http://www.w3.org/2000/svg" height="22" viewBox="0 0 22 22" xmlns:xlink="http://www.w3.org/1999/xlink">
<path style="fill:#aaa;stroke:#aaa;stroke-width:3" d="M 24 6.571023 C 23.948864 6.579545 23.90625 6.588068 23.855114 6.596591 C 23.684659 6.613636 23.514205 6.664773 23.360795 6.741477 C 23.352273 6.75 23.34375 6.758523 23.335227 6.767045 C 22.883523 6.946023 22.619318 7.210227 22.40625 7.457386 C 22.107955 7.815341 21.826705 8.224432 21.545455 8.701705 C 20.974432 9.639205 20.377841 10.832386 19.78125 12.034091 C 19.176136 13.235795 18.588068 14.446023 18.102273 15.375 C 17.863636 15.84375 17.633523 16.235795 17.471591 16.5 C 17.420455 16.576705 17.369318 16.619318 17.326705 16.670455 C 17.258523 16.696023 17.207386 16.713068 17.122159 16.730114 C 16.815341 16.798295 16.372159 16.900568 15.852273 16.985795 C 14.803977 17.15625 13.457386 17.309659 12.119318 17.505682 C 10.78125 17.701705 9.46875 17.923295 8.394886 18.170455 C 7.849432 18.289773 7.380682 18.400568 6.946023 18.571023 C 6.732955 18.65625 6.511364 18.758523 6.28125 18.911932 C 6.051136 19.073864 5.752841 19.295455 5.590909 19.806818 C 5.420455 20.318182 5.522727 20.693182 5.616477 20.957386 C 5.710227 21.221591 5.8125 21.426136 5.931818 21.622159 C 6.1875 22.014205 6.494318 22.389205 6.860795 22.798295 C 7.59375 23.625 8.548295 24.571023 9.519886 25.508523 C 10.491477 26.446023 11.463068 27.357955 12.204545 28.099432 C 12.579545 28.465909 12.894886 28.815341 13.099432 29.045455 C 13.167614 29.113636 13.184659 29.164773 13.21875 29.215909 C 13.21875 29.284091 13.227273 29.335227 13.21875 29.420455 C 13.193182 29.735795 13.150568 30.170455 13.073864 30.690341 C 12.911932 31.721591 12.664773 33.051136 12.434659 34.372159 C 12.213068 35.693182 11.991477 37.022727 11.889205 38.113636 C 11.838068 38.659091 11.795455 39.119318 11.829545 39.579545 C 11.846591 39.809659 11.897727 40.065341 11.974432 40.329545 C 12.059659 40.59375 12.178977 40.934659 12.613636 41.25 C 13.048295 41.565341 13.431818 41.573864 13.713068 41.565341 C 13.985795 41.565341 14.207386 41.539773 14.428977 41.480114 C 14.889205 41.369318 15.340909 41.181818 15.852273 40.960227 C 16.866477 40.534091 18.085227 39.946023 19.286932 39.323864 C 20.488636 38.701705 21.673295 38.036932 22.610795 37.568182 C 23.088068 37.329545 23.505682 37.142045 23.795455 37.022727 C 23.880682 36.988636 23.931818 36.980114 24 36.963068 C 24.068182 36.980114 24.119318 36.988636 24.204545 37.022727 C 24.494318 37.142045 24.911932 37.329545 25.389205 37.568182 C 26.326705 38.036932 27.511364 38.701705 28.713068 39.323864 C 29.914773 39.946023 31.133523 40.534091 32.147727 40.960227 C 32.659091 41.181818 33.110795 41.369318 33.571023 41.480114 C 33.792614 41.539773 34.014205 41.565341 34.286932 41.565341 C 34.568182 41.573864 34.951705 41.565341 35.386364 41.25 C 35.821023 40.934659 35.940341 40.59375 36.025568 40.329545 C 36.102273 40.065341 36.153409 39.809659 36.170455 39.579545 C 36.204545 39.119318 36.161932 38.659091 36.110795 38.113636 C 36.008523 37.022727 35.786932 35.693182 35.565341 34.372159 C 35.335227 33.051136 35.088068 31.721591 34.926136 30.690341 C 34.849432 30.170455 34.806818 29.735795 34.78125 29.420455 C 34.772727 29.335227 34.78125 29.284091 34.78125 29.215909 C 34.815341 29.164773 34.832386 29.113636 34.900568 29.045455 C 35.105114 28.815341 35.420455 28.465909 35.795455 28.099432 C 36.536932 27.357955 37.508523 26.446023 38.480114 25.508523 C 39.451705 24.571023 40.40625 23.625 41.139205 22.798295 C 41.505682 22.389205 41.8125 22.014205 42.068182 21.622159 C 42.1875 21.426136 42.289773 21.221591 42.383523 20.957386 C 42.477273 20.693182 42.579545 20.318182 42.409091 19.806818 C 42.247159 19.295455 41.948864 19.073864 41.71875 18.911932 C 41.488636 18.758523 41.267045 18.65625 41.053977 18.571023 C 40.619318 18.400568 40.150568 18.289773 39.605114 18.170455 C 38.53125 17.923295 37.21875 17.701705 35.880682 17.505682 C 34.542614 17.309659 33.196023 17.15625 32.147727 16.985795 C 31.627841 16.900568 31.184659 16.798295 30.877841 16.730114 C 30.792614 16.713068 30.741477 16.696023 30.673295 16.670455 C 30.630682 16.619318 30.579545 16.576705 30.528409 16.5 C 30.366477 16.235795 30.136364 15.84375 29.897727 15.375 C 29.411932 14.446023 28.823864 13.235795 28.21875 12.034091 C 27.622159 10.832386 27.025568 9.639205 26.454545 8.701705 C 26.173295 8.224432 25.892045 7.815341 25.59375 7.457386 C 25.286932 7.107955 25.065341 6.571023 24 6.571023 Z " transform="scale(.45833)"/>
</svg>
