<?xml version="1.0" encoding="UTF-8" standalone="no"?>
<svg
   xmlns:dc="http://purl.org/dc/elements/1.1/"
   xmlns:cc="http://creativecommons.org/ns#"
   xmlns:rdf="http://www.w3.org/1999/02/22-rdf-syntax-ns#"
   xmlns:svg="http://www.w3.org/2000/svg"
   xmlns="http://www.w3.org/2000/svg"
   xmlns:sodipodi="http://sodipodi.sourceforge.net/DTD/sodipodi-0.dtd"
   xmlns:inkscape="http://www.inkscape.org/namespaces/inkscape"
   viewBox="0 0 22 22"
   id="svg2"
   version="1.1"
   inkscape:version="0.91 r13725"
   sodipodi:docname="transform-scale-vertical.svg"
   width="22"
   height="22">
  <metadata
     id="metadata14">
    <rdf:RDF>
      <cc:Work
         rdf:about="">
        <dc:format>image/svg+xml</dc:format>
        <dc:type
           rdf:resource="http://purl.org/dc/dcmitype/StillImage" />
        <dc:title></dc:title>
      </cc:Work>
    </rdf:RDF>
  </metadata>
  <defs
     id="defs12">
    <inkscape:path-effect
       effect="spiro"
       id="path-effect4173"
       is_visible="true" />
    <inkscape:path-effect
       is_visible="true"
       id="path-effect4157"
       effect="spiro" />
    <inkscape:path-effect
       is_visible="true"
       id="path-effect4157-5"
       effect="spiro" />
    <inkscape:path-effect
       effect="spiro"
       id="path-effect4145"
       is_visible="true" />
    <inkscape:path-effect
       is_visible="true"
       id="path-effect4157-6"
       effect="spiro" />
  </defs>
  <sodipodi:namedview
     pagecolor="#ffffff"
     bordercolor="#666666"
     borderopacity="1"
     objecttolerance="10"
     gridtolerance="10"
     guidetolerance="10"
     inkscape:pageopacity="0"
     inkscape:pageshadow="2"
     inkscape:window-width="1920"
     inkscape:window-height="1056"
     id="namedview10"
     showgrid="true"
     showguides="false"
     inkscape:zoom="19.666666"
     inkscape:cx="-5.5956151"
     inkscape:cy="12.15372"
     inkscape:window-x="0"
     inkscape:window-y="24"
     inkscape:window-maximized="1"
     inkscape:current-layer="svg2">
    <inkscape:grid
       type="xygrid"
       id="grid4159" />
  </sodipodi:namedview>
  <g
     id="g4170"
     transform="matrix(0,-1,1,0,-0.99999976,23)">
    <path
       sodipodi:nodetypes="ccccccccccccccccccccccccccccccccccccccccccccccccc"
       inkscape:connector-curvature="0"
       id="path6"
       style="opacity:1;fill:#c3c3c3;fill-opacity:1;stroke:none"
       d="m 11,3 0,1 2,0 0,-1 z m 4,0 0,1 2,0 0,-1 z m 4,0 0,1 1,0 0,1 1,0 0,-2 z m 1,4 0,2 1,0 0,-2 z m 0,4 0,2 1,0 0,-2 z m 0,4 0,2 1,0 0,-2 z m 0,4 0,1 -1,0 0,1 2,0 0,-2 z m -9,1 0,1 2,0 0,-1 z m 4,0 0,1 2,0 0,-1 z" />
    <rect
       width="6"
       height="17"
       x="-9.5"
       y="3.4999998"
       style="opacity:1;fill:#ffffff;fill-opacity:1;fill-rule:nonzero;stroke:#888888;stroke-width:1;stroke-linecap:butt;stroke-linejoin:miter;stroke-miterlimit:23.70000076;stroke-dasharray:none;stroke-dashoffset:0;stroke-opacity:1"
       id="rect6"
       transform="scale(-1,1)" />
    <path
       sodipodi:nodetypes="cc"
       style="fill:none;fill-rule:evenodd;stroke:#6c71c4;stroke-width:1px;stroke-linecap:butt;stroke-linejoin:miter;stroke-opacity:1"
       d="m 11.5,11.5 7,0"
       id="path4155"
       inkscape:path-effect="#path-effect4157"
       inkscape:original-d="m 11.5,11.5 7,0"
       inkscape:connector-curvature="0" />
    <path
       sodipodi:nodetypes="cccc"
       inkscape:connector-curvature="0"
       id="path4175"
       d="M 12.999687,9 10.5,11.5 12.999688,14 Z"
       style="fill:#6c71c4;fill-opacity:1;fill-rule:evenodd;stroke:none;stroke-width:1px;stroke-linecap:butt;stroke-linejoin:miter;stroke-opacity:1" />
    <path
       style="fill:#6c71c4;fill-opacity:1;fill-rule:evenodd;stroke:none;stroke-width:1px;stroke-linecap:butt;stroke-linejoin:miter;stroke-opacity:1"
       d="M 17,14 19.499687,11.5 17,9 Z"
       id="path4154"
       inkscape:connector-curvature="0"
       sodipodi:nodetypes="cccc" />
  </g>
</svg>
