<svg width="22" xmlns="http://www.w3.org/2000/svg" viewBox="0 0 22 22" height="22">
<g style="fill:#8abf50" transform="translate(-1)">
<path style="fill-rule:evenodd" d="M 13.253125,2.0034002 C 10.855092,1.9359379 8.4445846,2.8754267 6.7248897,4.5477626 5.0051947,6.2200985 3.9990477,8.6031717 4.000001,11.0017 l 3.5999997,0 C 7.5928097,8.3013556 9.912575,5.7996113 12.60625,5.6027201 15.561959,5.3866547 18.407889,8.038672 18.4,11.0017 c 0,2.8269 -2.572566,5.39898 -5.4,5.39898 -1.799999,0 -2.699999,0.89983 -2.699999,1.79966 0,0.89983 0.9,1.79966 2.699999,1.79966 2.356195,0 4.697881,-0.969774 6.363962,-2.635541 C 21.030042,15.698692 22,13.357449 21.999999,11.0017 22.000919,8.687542 21.067238,6.3862967 19.454079,4.7267688 17.840921,3.0672407 15.566805,2.0684825 13.253125,2.0034002 z"/>
<path d="m 1,11 8.9733999,0 0.9970441,0 c 0.15753,1.050026 -0.332876,1.333863 -1.037505,2.040581 L 6.9822666,16 C 5.9852222,17 5.9889037,17.003692 4.9881777,16 L 2.0419074,13.044996 C 1.1817571,12.359426 1,12.025494 1,11 z"/>
</g>
</svg>
