<svg width="22" xmlns="http://www.w3.org/2000/svg" height="22" viewBox="0 0 22 22" xmlns:xlink="http://www.w3.org/1999/xlink">
<g style="fill:#aaa">
<path d="M 9.703125 20.183594 C 10.410156 20.132812 10.960938 19.535156 10.960938 18.820312 L 10.960938 12.386719 C 10.960938 12.382812 10.960938 12.375 10.960938 12.371094 C 10.960938 12.34375 10.960938 12.316406 10.960938 12.285156 C 10.957031 12.25 10.953125 12.210938 10.945312 12.171875 C 10.945312 12.164062 10.945312 12.152344 10.945312 12.144531 C 10.941406 12.128906 10.9375 12.117188 10.929688 12.101562 C 10.921875 12.074219 10.914062 12.046875 10.902344 12.015625 C 10.898438 11.996094 10.894531 11.980469 10.890625 11.960938 C 10.878906 11.9375 10.871094 11.914062 10.859375 11.890625 C 10.84375 11.84375 10.824219 11.804688 10.804688 11.761719 C 10.792969 11.726562 10.777344 11.695312 10.761719 11.660156 C 10.753906 11.652344 10.742188 11.644531 10.734375 11.632812 C 10.730469 11.625 10.722656 11.613281 10.71875 11.605469 C 10.699219 11.582031 10.683594 11.558594 10.664062 11.535156 C 10.652344 11.519531 10.644531 11.503906 10.632812 11.492188 C 10.617188 11.472656 10.597656 11.453125 10.578125 11.433594 C 10.5625 11.417969 10.550781 11.40625 10.535156 11.390625 C 10.480469 11.34375 10.425781 11.300781 10.367188 11.265625 C 10.328125 11.238281 10.292969 11.214844 10.253906 11.191406 C 10.234375 11.183594 10.214844 11.171875 10.195312 11.164062 C 10.171875 11.15625 10.148438 11.144531 10.125 11.136719 C 10.113281 11.125 10.097656 11.117188 10.082031 11.109375 C 10.015625 11.082031 9.941406 11.0625 9.871094 11.050781 C 9.851562 11.046875 9.832031 11.039062 9.816406 11.035156 C 9.785156 11.03125 9.757812 11.027344 9.730469 11.023438 C 9.710938 11.023438 9.691406 11.023438 9.671875 11.023438 C 9.648438 11.023438 9.625 11.023438 9.601562 11.023438 C 9.582031 11.023438 9.566406 11.023438 9.546875 11.023438 L 3.199219 11.023438 C 2.847656 11.019531 2.507812 11.148438 2.253906 11.390625 C 1.84375 11.777344 1.714844 12.375 1.921875 12.898438 C 2.132812 13.417969 2.640625 13.757812 3.199219 13.75 L 6.324219 13.75 L 3.667969 16.421875 C 3.261719 16.8125 3.140625 17.414062 3.359375 17.933594 C 3.578125 18.453125 4.09375 18.785156 4.65625 18.765625 C 5.007812 18.753906 5.34375 18.605469 5.589844 18.351562 L 8.246094 15.683594 L 8.246094 18.820312 C 8.246094 19.199219 8.402344 19.5625 8.679688 19.820312 C 8.953125 20.082031 9.324219 20.210938 9.703125 20.183594 Z "/>
<path d="M 12.296875 1.839844 C 11.585938 1.890625 11.039062 2.484375 11.039062 3.199219 L 11.039062 9.609375 C 11.039062 9.613281 11.039062 9.617188 11.039062 9.621094 C 11.039062 9.652344 11.039062 9.679688 11.039062 9.707031 C 11.042969 9.746094 11.046875 9.785156 11.054688 9.820312 C 11.054688 9.832031 11.054688 9.839844 11.054688 9.847656 C 11.058594 9.863281 11.0625 9.878906 11.066406 9.890625 C 11.074219 9.921875 11.085938 9.949219 11.09375 9.976562 C 11.101562 9.996094 11.105469 10.015625 11.109375 10.03125 C 11.117188 10.058594 11.128906 10.082031 11.136719 10.105469 C 11.15625 10.148438 11.171875 10.191406 11.195312 10.230469 C 11.207031 10.265625 11.222656 10.296875 11.238281 10.332031 C 11.246094 10.339844 11.253906 10.347656 11.265625 10.359375 C 11.269531 10.367188 11.273438 10.378906 11.277344 10.386719 C 11.296875 10.410156 11.316406 10.433594 11.335938 10.457031 C 11.34375 10.472656 11.355469 10.484375 11.363281 10.5 C 11.382812 10.519531 11.402344 10.539062 11.421875 10.558594 C 11.433594 10.570312 11.449219 10.585938 11.460938 10.597656 C 11.515625 10.644531 11.574219 10.6875 11.632812 10.726562 C 11.667969 10.753906 11.707031 10.777344 11.746094 10.796875 C 11.761719 10.808594 11.78125 10.816406 11.800781 10.824219 C 11.824219 10.835938 11.847656 10.84375 11.871094 10.855469 C 11.886719 10.863281 11.898438 10.875 11.914062 10.882812 C 11.984375 10.90625 12.054688 10.925781 12.125 10.9375 C 12.144531 10.945312 12.164062 10.949219 12.183594 10.953125 C 12.210938 10.957031 12.238281 10.964844 12.265625 10.96875 C 12.285156 10.96875 12.304688 10.96875 12.324219 10.96875 C 12.347656 10.96875 12.371094 10.96875 12.394531 10.96875 C 12.414062 10.96875 12.433594 10.96875 12.449219 10.96875 L 18.789062 10.96875 C 19.140625 10.972656 19.480469 10.839844 19.738281 10.597656 C 20.144531 10.214844 20.273438 9.621094 20.066406 9.101562 C 19.855469 8.582031 19.351562 8.242188 18.789062 8.25 L 15.671875 8.25 L 18.324219 5.589844 C 18.726562 5.199219 18.851562 4.597656 18.628906 4.082031 C 18.410156 3.5625 17.898438 3.234375 17.335938 3.253906 C 16.984375 3.265625 16.648438 3.410156 16.40625 3.664062 L 13.75 6.324219 L 13.75 3.199219 C 13.75 2.820312 13.59375 2.457031 13.316406 2.199219 C 13.042969 1.941406 12.671875 1.8125 12.296875 1.839844 Z "/>
</g>
</svg>
