<?xml version="1.0" encoding="UTF-8"?>
<svg xmlns="http://www.w3.org/2000/svg" xmlns:xlink="http://www.w3.org/1999/xlink" width="48px" height="48px" viewBox="0 0 48 48" version="1.1">
<g id="surface1">
<path style=" stroke:none;fill-rule:evenodd;fill:rgb(20.784314%,52.941176%,90.196078%);fill-opacity:1;" d="M 24 4 C 12.957031 4 4 12.957031 4 24 C 4 35.042969 12.957031 44 24 44 C 35.042969 44 44 35.042969 44 24 C 44 12.957031 35.042969 4 24 4 Z "/>
<path style=" stroke:none;fill-rule:evenodd;fill:rgb(100%,100%,100%);fill-opacity:0.901961;" d="M 40 12 C 36 6 30.078125 4 24 4 C 17.933594 4 12 6 8 12 "/>
<path style=" stroke:none;fill-rule:nonzero;fill:rgb(100%,100%,100%);fill-opacity:0.901961;" d="M 24.007812 36 C 23.394531 36 22.8125 35.738281 22.382812 35.3125 L 14.695312 27.875 C 14.269531 27.472656 14.023438 26.898438 14.007812 26.3125 C 13.976562 25.382812 14.503906 24.550781 15.382812 24.1875 C 16.257812 23.824219 17.285156 24.019531 17.945312 24.6875 L 22.007812 28.625 L 22.007812 12 L 26.007812 12 L 26.007812 28.625 L 30.070312 24.6875 C 30.96875 23.8125 32.417969 23.8125 33.320312 24.6875 C 34.21875 25.5625 34.21875 27 33.320312 27.875 L 25.632812 35.3125 C 25.199219 35.738281 24.617188 36 24.007812 36 Z "/>
</g>
</svg>
