<?xml version="1.0" encoding="UTF-8" standalone="no"?>
<svg
   xmlns:dc="http://purl.org/dc/elements/1.1/"
   xmlns:cc="http://creativecommons.org/ns#"
   xmlns:rdf="http://www.w3.org/1999/02/22-rdf-syntax-ns#"
   xmlns:svg="http://www.w3.org/2000/svg"
   xmlns="http://www.w3.org/2000/svg"
   xmlns:sodipodi="http://sodipodi.sourceforge.net/DTD/sodipodi-0.dtd"
   xmlns:inkscape="http://www.inkscape.org/namespaces/inkscape"
   width="48"
   height="48"
   viewBox="0 0 48 48"
   id="svg2"
   version="1.1"
   inkscape:version="0.91 r13725"
   sodipodi:docname="starred.svg">
  <metadata
     id="metadata18">
    <rdf:RDF>
      <cc:Work
         rdf:about="">
        <dc:format>image/svg+xml</dc:format>
        <dc:type
           rdf:resource="http://purl.org/dc/dcmitype/StillImage" />
        <dc:title></dc:title>
      </cc:Work>
    </rdf:RDF>
  </metadata>
  <defs
     id="defs16" />
  <sodipodi:namedview
     pagecolor="#ffffff"
     bordercolor="#666666"
     borderopacity="1"
     objecttolerance="10"
     gridtolerance="10"
     guidetolerance="10"
     inkscape:pageopacity="0"
     inkscape:pageshadow="2"
     inkscape:window-width="1366"
     inkscape:window-height="704"
     id="namedview14"
     showgrid="true"
     inkscape:zoom="11.313708"
     inkscape:cx="-6.8582087"
     inkscape:cy="29.080565"
     inkscape:window-x="0"
     inkscape:window-y="27"
     inkscape:window-maximized="1"
     inkscape:current-layer="svg2">
    <inkscape:grid
       type="xygrid"
       id="grid2995" />
  </sodipodi:namedview>
  <path
     inkscape:connector-curvature="0"
     id="path6"
     d="M 24.050545,2.0000101 C 20.922416,1.9875297 19.163414,13.045848 16.6251,14.870311 c -2.537313,1.823744 -13.5799976,-0.039 -14.5577802,2.925067 -0.9781577,2.965194 9.0113632,8.04486 9.9657282,11.017759 0.95399,2.971714 -4.1835733,12.878909 -1.660954,14.722841 2.52362,1.84465 10.452619,-6.058028 13.580747,-6.045141 3.12691,0.01248 10.946201,8.064546 13.483046,6.240146 C 39.973732,41.905865 34.893696,31.875582 35.872635,28.91064 36.851169,25.946882 46.890839,20.961848 45.936067,17.990383 44.980921,15.017734 33.901406,16.813117 31.378287,14.967812 28.856137,13.123225 27.177455,2.0120846 24.050545,2.0000101 z"
     style="color:#000000;fill:#dfdd41;fill-opacity:1"
     sodipodi:nodetypes="csssscssssc" />
</svg>
