<?xml version="1.0" encoding="UTF-8" standalone="no"?>
<svg
   xmlns:dc="http://purl.org/dc/elements/1.1/"
   xmlns:cc="http://creativecommons.org/ns#"
   xmlns:rdf="http://www.w3.org/1999/02/22-rdf-syntax-ns#"
   xmlns:svg="http://www.w3.org/2000/svg"
   xmlns="http://www.w3.org/2000/svg"
   xmlns:sodipodi="http://sodipodi.sourceforge.net/DTD/sodipodi-0.dtd"
   xmlns:inkscape="http://www.inkscape.org/namespaces/inkscape"
   width="48"
   height="48"
   viewBox="0 0 48 48"
   id="svg2"
   version="1.1"
   inkscape:version="0.91 r"
   sodipodi:docname="stock_text-monospaced.svg">
  <metadata
     id="metadata10">
    <rdf:RDF>
      <cc:Work
         rdf:about="">
        <dc:format>image/svg+xml</dc:format>
        <dc:type
           rdf:resource="http://purl.org/dc/dcmitype/StillImage" />
        <dc:title />
      </cc:Work>
    </rdf:RDF>
  </metadata>
  <defs
     id="defs8" />
  <sodipodi:namedview
     pagecolor="#ffffff"
     bordercolor="#666666"
     borderopacity="1"
     objecttolerance="10"
     gridtolerance="10"
     guidetolerance="10"
     inkscape:pageopacity="0"
     inkscape:pageshadow="2"
     inkscape:window-width="1920"
     inkscape:window-height="1056"
     id="namedview6"
     showgrid="true"
     inkscape:zoom="27.812867"
     inkscape:cx="10.663369"
     inkscape:cy="23.699698"
     inkscape:window-x="0"
     inkscape:window-y="24"
     inkscape:window-maximized="1"
     inkscape:current-layer="svg2">
    <inkscape:grid
       type="xygrid"
       id="grid4142" />
  </sodipodi:namedview>
  <g
     style="font-style:normal;font-variant:normal;font-weight:normal;font-stretch:normal;font-size:38.75134659px;line-height:125%;font-family:Ubuntu;-inkscape-font-specification:Ubuntu;letter-spacing:0px;word-spacing:0px;fill:#268bd2;fill-opacity:1;stroke:none;stroke-width:1px;stroke-linecap:butt;stroke-linejoin:miter;stroke-opacity:1"
     id="text4138">
    <path
       d="m 10.000203,22 -4.0002036,0 0,-4 4.0002036,0 0,-4.772875 4.999816,-0.775027 0,5.547902 L 22,18 l 0,4 -6.999981,0 0,7.115177 c 0,0.67169 0.06459,1.214209 0.193757,1.627556 0.129171,0.413348 0.310011,0.736276 0.542519,0.968784 0.232508,0.232508 0.516684,0.387513 0.852529,0.465016 0.335845,0.0775 0.710442,0.116254 1.123789,0.116254 0.439182,0 0.839613,-0.01292 1.201292,-0.03875 0.387513,-0.02583 0.749193,-0.06458 1.085038,-0.116254 0.361679,-0.0775 0.723359,-0.18084 1.085038,-0.310011 0.387513,-0.129171 0.713651,-0.297094 1.152833,-0.503767 l 0.658772,4.107642 c -0.878363,0.361679 -1.98042,0.620022 -3.013789,0.775027 -1.007535,0.155005 -1.989236,0.232508 -2.945102,0.232508 -1.110872,0 -2.092573,-0.09042 -2.945103,-0.271259 -0.852529,-0.180839 -1.429698,-0.529601 -2.023885,-1.046286 -0.594187,-0.516685 -1.192476,-1.240043 -1.502487,-2.170076 -0.310011,-0.955867 -0.465017,-2.19591 -0.465017,-3.720129 z"
       style="font-style:normal;font-variant:normal;font-weight:bold;font-stretch:normal;font-family:'Ubuntu Mono';-inkscape-font-specification:'Ubuntu Mono Bold';fill:#268bd2;fill-opacity:1"
       id="path4164"
       inkscape:connector-curvature="0"
       sodipodi:nodetypes="ccccccccccsssssccccccssscsc" />
    <path
       d="m 42,23.961248 q 0,6.355221 -2.131324,9.455328 -2.131324,3.100108 -6.200215,3.100108 -4.068892,0 -6.200216,-3.100108 -2.131324,-3.100107 -2.131324,-9.455328 0,-6.277718 2.170076,-9.377826 2.170075,-3.100108 6.161464,-3.100108 4.068891,0 6.200215,3.100108 Q 42,17.644778 42,23.961248 Z m -4.301399,0 q 0,-4.107643 -1.046286,-6.238967 -1.007535,-2.170075 -2.983854,-2.170075 -1.937567,0 -2.983854,2.170075 -1.046286,2.131324 -1.046286,6.238967 0,4.146394 1.046286,6.316469 1.046287,2.131324 2.983854,2.131324 1.976319,0 2.983854,-2.131324 1.046286,-2.170075 1.046286,-6.316469 z m -1.860065,-0.387514 q 0,1.046287 -0.620021,1.821314 -0.58127,0.736275 -1.511303,0.736275 -1.007535,0 -1.588805,-0.736275 -0.58127,-0.775027 -0.58127,-1.821314 0,-1.046286 0.58127,-1.821313 0.58127,-0.775027 1.588805,-0.775027 0.930033,0 1.511303,0.775027 0.620021,0.775027 0.620021,1.821313 z"
       style="font-style:normal;font-variant:normal;font-weight:bold;font-stretch:normal;font-family:'Ubuntu Mono';-inkscape-font-specification:'Ubuntu Mono Bold';fill:#268bd2;fill-opacity:1"
       id="path4166" />
  </g>
</svg>
