<?xml version="1.0" encoding="UTF-8" standalone="no"?>
<svg
   xmlns:dc="http://purl.org/dc/elements/1.1/"
   xmlns:cc="http://creativecommons.org/ns#"
   xmlns:rdf="http://www.w3.org/1999/02/22-rdf-syntax-ns#"
   xmlns:svg="http://www.w3.org/2000/svg"
   xmlns="http://www.w3.org/2000/svg"
   xmlns:sodipodi="http://sodipodi.sourceforge.net/DTD/sodipodi-0.dtd"
   xmlns:inkscape="http://www.inkscape.org/namespaces/inkscape"
   width="128"
   viewBox="0 0 36.124446 36.124446"
   height="128"
   id="svg2"
   version="1.1"
   inkscape:version="0.91 r"
   sodipodi:docname="calendar-30.svg">
  <metadata
     id="metadata17">
    <rdf:RDF>
      <cc:Work
         rdf:about="">
        <dc:format>image/svg+xml</dc:format>
        <dc:type
           rdf:resource="http://purl.org/dc/dcmitype/StillImage" />
        <dc:title />
      </cc:Work>
    </rdf:RDF>
  </metadata>
  <defs
     id="defs15" />
  <sodipodi:namedview
     pagecolor="#ffffff"
     bordercolor="#666666"
     borderopacity="1"
     objecttolerance="10"
     gridtolerance="10"
     guidetolerance="10"
     inkscape:pageopacity="0"
     inkscape:pageshadow="2"
     inkscape:window-width="1366"
     inkscape:window-height="747"
     id="namedview13"
     showgrid="true"
     inkscape:zoom="5.6568543"
     inkscape:cx="12.551117"
     inkscape:cy="18.156652"
     inkscape:window-x="0"
     inkscape:window-y="21"
     inkscape:window-maximized="1"
     inkscape:current-layer="svg2"
     showguides="false">
    <inkscape:grid
       type="xygrid"
       id="grid4145"
       originx="0"
       originy="0"
       spacingy="0.28222223"
       spacingx="0.28222223" />
  </sodipodi:namedview>
  <path
     d="m 6.7739099,1.1288969 0,2.7093279 -3.3875103,0 c -0.6773338,0 -1.1288892,0.56448 -1.1284618,1.128888 L 2.2577794,34.995616 c -2.69e-4,0.5644 0.5641752,1.128848 1.1286202,1.128832 l 29.3511224,0 c 0.564448,1.6e-5 1.128888,-0.5644 1.12836,-1.128616 l 7.86e-4,-30.0287192 c -2.58e-4,-0.56448 -0.564704,-1.128888 -1.129146,-1.128888 l -3.38599,0 0,-2.7093279 C 29.350854,9.1448558e-7 29.350854,9.1448558e-7 28.221964,9.1448558e-7 l -2.935112,0 c -1.12889,0 -1.12889,0 -1.12889,1.12889598551442 l 0,2.2577759 -12.192003,0 0,-2.2577759 c 0,-1.12889598551442 0,-1.12889598551442 -1.128891,-1.12889598551442 l -2.9351115,0 c -1.1288892,0 -1.1280466,0 -1.1280466,1.12889598551442 z m 1.502838,0.3748 2.1855291,0 0,4.5242399 c 0,1.8743039 -2.1855291,1.8743039 -2.1855291,0 z m 17.3848941,0 2.18553,0 0,4.5242399 c 0,1.8743039 -2.18553,1.8743039 -2.18553,0 z m -21.1466222,9.7852181 27.0933542,0 0,22.578309 -27.0933542,-4.32e-4 z"
     id="path4"
     inkscape:connector-curvature="0"
     style="color:#000000;fill:#cacaca"
     sodipodi:nodetypes="scccccccccccccccccccsccsccccsscccccc" />
  <g
     transform="matrix(0.28222222,0,0,0.28222222,-9.4977623,20.46717)"
     style="font-style:normal;font-variant:normal;font-weight:normal;font-stretch:normal;font-size:20px;line-height:125%;font-family:'Droid Sans';-inkscape-font-specification:'Droid Sans';letter-spacing:0px;word-spacing:0px;fill:#000000;fill-opacity:1;stroke:none;stroke-width:1px;stroke-linecap:butt;stroke-linejoin:miter;stroke-opacity:1"
     id="flowRoot4147" />
  <g
     transform="scale(1.1417405,0.87585576)"
     style="font-style:normal;font-variant:normal;font-weight:normal;font-stretch:normal;font-size:12.85681343px;line-height:125%;font-family:Ubuntu;-inkscape-font-specification:Ubuntu;letter-spacing:0px;word-spacing:0px;fill:#3798d6;fill-opacity:1;stroke:none;stroke-width:1px;stroke-linecap:butt;stroke-linejoin:miter;stroke-opacity:1"
     id="text4155">
    <path
       d="m 14.81457,23.42374 q 0,0.733117 -0.241157,1.321539 -0.231511,0.578777 -0.6463,1.022505 -0.405144,0.434082 -0.964627,0.733117 -0.549838,0.289388 -1.196138,0.443728 l 0,0.05788 q 1.70739,0.212218 2.585201,1.041797 0.87781,0.819933 0.87781,2.218642 0,0.926042 -0.337619,1.717036 -0.327973,0.781348 -1.022505,1.360124 -0.684885,0.578777 -1.736328,0.90675 -1.041798,0.318327 -2.4597995,0.318327 -1.1382599,0 -2.141472,-0.192926 -1.0032121,-0.183279 -1.8713765,-0.56913 l 0,-2.536969 q 0.4340822,0.231511 0.9163957,0.405144 0.4823136,0.173632 0.9646271,0.299034 0.4823135,0.115755 0.9453345,0.173633 0.4726672,0.05788 0.8874569,0.05788 0.8295788,0 1.3794168,-0.15434 0.549837,-0.15434 0.87781,-0.434082 0.327974,-0.279742 0.463021,-0.665593 0.144694,-0.395497 0.144694,-0.858518 0,-0.434082 -0.183279,-0.781348 -0.173633,-0.356912 -0.578776,-0.598069 -0.395497,-0.250803 -1.041797,-0.38585 -0.6463002,-0.135048 -1.5916347,-0.135048 l -1.0032121,0 0,-2.093241 0.9839195,0 q 0.8874569,0 1.4758793,-0.15434 0.588423,-0.163987 0.935688,-0.434082 0.356912,-0.279742 0.501606,-0.6463 0.144694,-0.366559 0.144694,-0.781348 0,-0.752409 -0.472667,-1.176845 -0.463021,-0.424436 -1.4758792,-0.424436 -0.4630209,0 -0.8681643,0.09646 -0.3954971,0.08682 -0.7427628,0.23151 -0.3376195,0.135048 -0.6270076,0.308681 -0.2797418,0.163986 -0.5112523,0.327973 L 5.6795516,21.455901 q 0.4051433,-0.299034 0.8778106,-0.549837 0.4823135,-0.250803 1.0417972,-0.434082 0.5594837,-0.192926 1.2057838,-0.299035 0.6463001,-0.106109 1.3794168,-0.106109 1.041797,0 1.890669,0.231511 0.858518,0.221864 1.466233,0.655946 0.607715,0.424436 0.935688,1.051444 0.33762,0.617361 0.33762,1.418001 z"
       style="font-style:normal;font-variant:normal;font-weight:bold;font-stretch:normal;font-size:19.75556183px;font-family:'droid sans';-inkscape-font-specification:'droid sans Bold';text-align:center;letter-spacing:-0.22577788px;word-spacing:0.4515557px;text-anchor:middle;fill:#3798d6;fill-opacity:1"
       id="path4142" />
    <path
       d="m 26.038915,27.320834 q 0,1.707389 -0.270096,3.048221 -0.260449,1.340832 -0.848871,2.27652 -0.578777,0.935688 -1.504819,1.427648 -0.916395,0.49196 -2.218642,0.49196 -1.225076,0 -2.131826,-0.49196 -0.906749,-0.49196 -1.504818,-1.427648 -0.598069,-0.935688 -0.897103,-2.27652 -0.289388,-1.340832 -0.289388,-3.048221 0,-1.70739 0.260449,-3.057868 0.270096,-1.350478 0.848872,-2.286166 0.578776,-0.935688 1.495172,-1.427648 0.916396,-0.501606 2.218642,-0.501606 1.21543,0 2.12218,0.491959 0.906749,0.49196 1.514464,1.427648 0.607715,0.935689 0.90675,2.286167 0.299034,1.350477 0.299034,3.067514 z m -6.694512,0 q 0,2.411567 0.41479,3.626997 0.414789,1.21543 1.437294,1.21543 1.003212,0 1.437294,-1.205783 0.443729,-1.205784 0.443729,-3.636644 0,-2.421214 -0.443729,-3.636644 -0.434082,-1.225077 -1.437294,-1.225077 -0.511252,0 -0.868164,0.308681 -0.347266,0.308681 -0.56913,0.916396 -0.221864,0.607715 -0.318327,1.52411 -0.09646,0.90675 -0.09646,2.112534 z"
       style="font-style:normal;font-variant:normal;font-weight:bold;font-stretch:normal;font-size:19.75556183px;font-family:'droid sans';-inkscape-font-specification:'droid sans Bold';text-align:center;letter-spacing:-0.22577788px;word-spacing:0.4515557px;text-anchor:middle;fill:#3798d6;fill-opacity:1"
       id="path4144" />
  </g>
</svg>
