<svg width="128" xmlns="http://www.w3.org/2000/svg" height="128" viewBox="0 0 128 128" xmlns:xlink="http://www.w3.org/1999/xlink">
<path style="fill:#e9b080;fill-opacity:.4" d="M 18.667969 10.667969 C 18.667969 10.667969 10.667969 10.667969 10.667969 18.667969 L 10.667969 24.003906 L 21.332031 24 L 21.332031 21.332031 L 24 21.335938 L 24 10.667969 Z M 56 10.667969 L 56 21.332031 L 72 21.332031 L 72 10.667969 Z M 82.667969 10.667969 L 82.667969 21.332031 L 96 21.332031 L 96 10.667969 Z M 104 10.667969 L 104 21.335938 L 106.667969 21.332031 L 106.667969 24 L 117.332031 24.003906 L 117.332031 18.667969 C 117.332031 18.667969 117.332031 10.667969 109.332031 10.667969 Z M 32 10.667969 L 32 21.332031 L 45.332031 21.332031 L 45.332031 10.667969 Z M 106.667969 31.996094 L 106.667969 45.332031 L 117.332031 45.332031 L 117.332031 32 Z M 10.667969 32 L 10.667969 45.335938 L 21.332031 45.332031 L 21.332031 31.996094 Z M 106.667969 55.996094 L 106.667969 74.664062 L 117.332031 74.667969 L 117.332031 56 Z M 106.667969 85.332031 L 106.667969 95.996094 L 117.332031 96 L 117.332031 85.332031 Z M 10.667969 56 L 10.667969 72 L 21.332031 71.996094 L 21.332031 55.996094 Z M 10.667969 82.667969 L 10.667969 96 L 21.332031 95.996094 L 21.332031 82.664062 Z M 10.667969 104.003906 L 10.667969 109.332031 C 10.667969 117.332031 18.667969 117.332031 18.667969 117.332031 L 24 117.335938 L 24 106.667969 L 21.332031 106.664062 L 21.332031 104 Z M 106.667969 104 L 106.667969 106.664062 L 104 106.667969 L 104 117.335938 L 109.332031 117.332031 C 117.332031 117.332031 117.332031 109.332031 117.332031 109.332031 L 117.332031 104.003906 Z M 32 106.664062 L 32 117.332031 L 45.332031 117.332031 L 45.332031 106.664062 Z M 56 106.664062 L 56 117.332031 L 72 117.332031 L 72 106.664062 Z M 82.667969 106.664062 L 82.667969 117.332031 L 96 117.332031 L 96 106.664062 Z "/>
<path style="fill:none;stroke:#a57953;stroke-linejoin:round;stroke-linecap:round;stroke-width:2" d="M 24 12 L 24 24 L 30 30 " transform="scale(2.66667)"/>
</svg>
