<?xml version="1.0" encoding="UTF-8" standalone="no"?>
<!-- Created with Inkscape (http://www.inkscape.org/) -->

<svg
   xmlns:dc="http://purl.org/dc/elements/1.1/"
   xmlns:cc="http://creativecommons.org/ns#"
   xmlns:rdf="http://www.w3.org/1999/02/22-rdf-syntax-ns#"
   xmlns:svg="http://www.w3.org/2000/svg"
   xmlns="http://www.w3.org/2000/svg"
   xmlns:xlink="http://www.w3.org/1999/xlink"
   xmlns:sodipodi="http://sodipodi.sourceforge.net/DTD/sodipodi-0.dtd"
   xmlns:inkscape="http://www.inkscape.org/namespaces/inkscape"
   width="128"
   height="128"
   id="svg2"
   version="1.1"
   inkscape:version="0.48.5 r10040"
   sodipodi:docname="folder-art.svg"
   inkscape:export-filename="/media/Data/Main/Visuals/Icons/Numix/Desktop/repos/numix-wiki/Gjorgi/Numix-folders/48/New/folder-144.png"
   inkscape:export-xdpi="270"
   inkscape:export-ydpi="270">
  <defs
     id="defs4">
    <linearGradient
       inkscape:collect="always"
       id="linearGradient3958">
      <stop
         style="stop-color:#000000;stop-opacity:1;"
         offset="0"
         id="stop3960" />
      <stop
         style="stop-color:#000000;stop-opacity:0;"
         offset="1"
         id="stop3962" />
    </linearGradient>
    <radialGradient
       inkscape:collect="always"
       xlink:href="#linearGradient3958"
       id="radialGradient3964"
       cx="32.5"
       cy="56.5"
       fx="32.5"
       fy="56.5"
       r="33.5"
       gradientTransform="matrix(1,0,0,0.10447761,0,50.597015)"
       gradientUnits="userSpaceOnUse" />
  </defs>
  <sodipodi:namedview
     id="base"
     pagecolor="#ffffff"
     bordercolor="#666666"
     borderopacity="1.0"
     inkscape:pageopacity="0.0"
     inkscape:pageshadow="2"
     inkscape:zoom="3.7303676"
     inkscape:cx="72.627976"
     inkscape:cy="34.920012"
     inkscape:document-units="px"
     inkscape:current-layer="layer1"
     showgrid="true"
     inkscape:window-width="1280"
     inkscape:window-height="998"
     inkscape:window-x="0"
     inkscape:window-y="0"
     inkscape:window-maximized="1"
     showguides="true"
     inkscape:guide-bbox="true">
    <inkscape:grid
       type="xygrid"
       id="grid2985"
       empspacing="5"
       visible="true"
       enabled="true"
       snapvisiblegridlinesonly="true" />
  </sodipodi:namedview>
  <metadata
     id="metadata7">
    <rdf:RDF>
      <cc:Work
         rdf:about="">
        <dc:format>image/svg+xml</dc:format>
        <dc:type
           rdf:resource="http://purl.org/dc/dcmitype/StillImage" />
        <dc:title />
      </cc:Work>
    </rdf:RDF>
  </metadata>
  <g
     inkscape:label="Layer 1"
     inkscape:groupmode="layer"
     id="layer1"
     transform="translate(0,-924.3622)">
    <path
       sodipodi:type="arc"
       style="opacity:0.6;fill:url(#radialGradient3964);fill-opacity:1;stroke:none"
       id="path3956"
       sodipodi:cx="32.5"
       sodipodi:cy="56.5"
       sodipodi:rx="33.5"
       sodipodi:ry="3.5"
       d="M 66,56.5 C 66,58.432997 51.001539,60 32.5,60 13.998461,60 -1,58.432997 -1,56.5 -1,54.567003 13.998461,53 32.5,53 51.001539,53 66,54.567003 66,56.5 z"
       transform="matrix(2.2686573,0,0,2.2857147,-9.7313433,907.21932)" />
    <path
       sodipodi:nodetypes="ccccccccc"
       inkscape:connector-curvature="0"
       id="path3029"
       d="m 2.8444446e-6,942.47984 0,85.64696 128.0000271555554,0 0,-42.8234 -6.09524,-36.706 -47.904772,-0.2352 -6.000002,-12 -61.9047741,0 c -3.0476185,0 -6.0952390555554,3.0588 -6.0952390555554,6.11764 z"
       style="fill:#ec407a;fill-opacity:1;stroke:none" />
    <rect
       style="fill:#fffdf0;fill-opacity:1;stroke:none"
       id="rect3799"
       width="63.142868"
       height="23.764572"
       x="10.000005"
       y="952.36218" />
    <path
       style="opacity:0.02999998;fill:#000000;fill-opacity:1;stroke:none"
       d="m 6.1250041,936.3622 c -3.0476187,0 -6.1250012555554,3.06616 -6.1250012555554,6.12498 l 0,4 c 0,-3.05884 3.0773825555554,-6.125 6.1250012555554,-6.125 l 59.8750109,0 6.000001,12 49.875014,0.25 6.125,36.68762 0,-4 -6.125,-36.68762 -47.875012,-0.24998 -6.000002,-12 z"
       id="path3790"
       inkscape:connector-curvature="0"
       sodipodi:nodetypes="sscsccccccccs" />
    <path
       style="fill:#f06292;fill-opacity:1;stroke:none"
       d="m 128.00003,954.71518 0,85.64702 -128.0000271555554,0 0,-80 60.0000101555554,0 6.000002,-12 55.904775,0.2352 c 3.04762,0 6.09524,3.059 6.09524,6.11778 z"
       id="rect2987"
       inkscape:connector-curvature="0"
       sodipodi:nodetypes="cccccccc" />
    <path
       sodipodi:nodetypes="ccccc"
       id="path3794"
       d="m 2.8444446e-6,1036.3622 0,4 128.0000271555554,0 0,-4 z"
       style="opacity:0.15;fill:#000000;fill-opacity:1;stroke:none"
       inkscape:connector-curvature="0" />
    <path
       style="opacity:0.02999998;fill:#000000;fill-opacity:1;stroke:none"
       d="m 66.000015,948.3622 -6.000002,12 -60.0000101555554,0 0,4 62.0000101555554,0 6.000003,-12.00002 53.875014,0.25 c 3.04761,0 6.125,3.06622 6.125,6.12502 l 0,-4.00002 c 0,-3.0588 -3.07739,-6.125 -6.125,-6.125 z"
       id="path3015"
       inkscape:connector-curvature="0"
       sodipodi:nodetypes="ccccccccscc" />
    <path
       style="opacity:0.4;fill:#880e4f;fill-opacity:1;stroke:none"
       d="m 61.000013,982.3622 c -11.981592,0.2798 -21.000002,8.6792 -21.000002,17.25 0,8.5716 6,8.5 9.000002,8.5 3,0 6,-0.092 6,5.625 0,5.7136 3,8.625 9,8.625 21.000005,0 24.000005,-14.286 24.000005,-20 0,-8.5708 -9,-20 -27.000005,-20 z m -6,4 c 1.656854,0 3,1.3432 3,3 0,1.6568 -1.343146,2.9998 -3,2.9998 -1.656856,0 -3,-1.343 -3,-2.9998 0,-1.6568 1.343144,-3 3,-3 z m 12.000003,0 c 1.656854,0 3,1.3432 3,3 0,1.6568 -1.343146,2.9998 -3,2.9998 -1.656855,0 -3.000003,-1.343 -3.000003,-2.9998 0,-1.6568 1.343148,-3 3.000003,-3 z m 12.000002,8 c 1.656854,0 3,1.3432 3,3 0,1.6568 -1.343146,3 -3,3 -1.656856,0 -3,-1.3432 -3,-3 0,-1.6568 1.343144,-3 3,-3 z m -32.000005,2 c 1.656852,0 3,1.3432 3,3 0,1.6568 -1.343148,3 -3,3 -1.656854,0 -3.000002,-1.3432 -3.000002,-3 0,-1.6568 1.343148,-3 3.000002,-3 z m 18.000002,12 c 2.761425,0 5.000001,2.2386 5.000001,5 0,2.7614 -2.238576,5 -5.000001,5 -2.761426,0 -5.000002,-2.2386 -5.000002,-5 0,-2.7614 2.238576,-5 5.000002,-5 z"
       id="path3843"
       inkscape:connector-curvature="0" />
  </g>
</svg>
