<?xml version="1.0" encoding="UTF-8"?>
<svg xmlns="http://www.w3.org/2000/svg" xmlns:xlink="http://www.w3.org/1999/xlink" width="128px" height="128px" viewBox="0 0 128 128" version="1.1">
<g id="surface1">
<path style=" stroke:none;fill-rule:nonzero;fill:rgb(96.862745%,58.039216%,11.764706%);fill-opacity:1;" d="M 64 10 C 63.828125 10 63.695312 10.042969 63.523438 10.085938 C 62.960938 10.128906 62.441406 10.296875 61.921875 10.554688 C 61.921875 10.554688 61.878906 10.59375 61.835938 10.636719 C 60.410156 11.191406 59.542969 12.039062 58.851562 12.847656 C 57.855469 13.996094 56.949219 15.316406 56.039062 16.800781 C 54.179688 19.820312 52.277344 23.648438 50.328125 27.472656 C 48.382812 31.34375 46.4375 35.210938 44.878906 38.1875 C 44.101562 39.675781 43.363281 40.910156 42.800781 41.761719 C 42.671875 42.015625 42.5 42.144531 42.371094 42.3125 C 42.152344 42.398438 41.980469 42.441406 41.675781 42.523438 C 40.683594 42.738281 39.253906 43.078125 37.566406 43.332031 C 34.191406 43.886719 29.824219 44.355469 25.496094 44.992188 C 21.128906 45.628906 16.890625 46.351562 13.382812 47.117188 C 11.652344 47.5 10.097656 47.839844 8.710938 48.394531 C 7.976562 48.691406 7.285156 48.988281 6.550781 49.5 C 5.8125 50.007812 4.820312 50.730469 4.300781 52.347656 C 3.738281 54.003906 4.082031 55.195312 4.386719 56.046875 C 4.6875 56.894531 5.035156 57.535156 5.425781 58.171875 C 6.203125 59.40625 7.242188 60.636719 8.410156 61.957031 C 10.789062 64.589844 13.902344 67.609375 17.019531 70.585938 C 20.175781 73.605469 23.335938 76.496094 25.757812 78.878906 C 26.96875 80.066406 28.007812 81.171875 28.65625 81.9375 C 28.871094 82.152344 28.914062 82.277344 29.046875 82.492188 C 29.046875 82.703125 29.046875 82.875 29.046875 83.128906 C 28.957031 84.105469 28.828125 85.511719 28.570312 87.167969 C 28.050781 90.484375 27.226562 94.734375 26.492188 98.988281 C 25.757812 103.195312 25.066406 107.449219 24.71875 110.933594 C 24.546875 112.679688 24.417969 114.167969 24.546875 115.65625 C 24.589844 116.378906 24.71875 117.183594 25.023438 118.035156 C 25.28125 118.886719 25.671875 119.992188 27.054688 121.011719 C 28.484375 121.988281 29.738281 122.03125 30.644531 121.988281 C 31.511719 121.988281 32.246094 121.90625 32.980469 121.734375 C 34.453125 121.351562 35.921875 120.757812 37.566406 120.078125 C 40.855469 118.671875 44.835938 116.800781 48.730469 114.804688 C 52.621094 112.804688 56.429688 110.722656 59.5 109.191406 C 61.015625 108.425781 62.398438 107.832031 63.351562 107.449219 C 63.609375 107.320312 63.785156 107.320312 64 107.277344 C 64.214844 107.320312 64.390625 107.320312 64.648438 107.449219 C 65.601562 107.832031 66.984375 108.425781 68.5 109.191406 C 71.570312 110.722656 75.378906 112.804688 79.269531 114.804688 C 83.164062 116.800781 87.144531 118.671875 90.433594 120.078125 C 92.078125 120.757812 93.546875 121.351562 95.019531 121.734375 C 95.753906 121.90625 96.488281 121.988281 97.355469 121.988281 C 98.261719 122.03125 99.515625 121.988281 100.945312 121.011719 C 102.328125 119.992188 102.71875 118.886719 102.976562 118.035156 C 103.28125 117.183594 103.410156 116.378906 103.453125 115.65625 C 103.582031 114.167969 103.453125 112.679688 103.28125 110.933594 C 102.933594 107.449219 102.242188 103.195312 101.507812 98.988281 C 100.773438 94.734375 99.949219 90.484375 99.429688 87.167969 C 99.171875 85.511719 99.042969 84.105469 98.953125 83.128906 C 98.953125 82.875 98.953125 82.703125 98.953125 82.492188 C 99.085938 82.277344 99.128906 82.152344 99.34375 81.9375 C 99.992188 81.171875 101.03125 80.066406 102.242188 78.878906 C 104.664062 76.496094 107.824219 73.605469 110.980469 70.585938 C 114.097656 67.609375 117.210938 64.589844 119.589844 61.957031 C 120.757812 60.636719 121.796875 59.40625 122.574219 58.171875 C 122.964844 57.535156 123.3125 56.894531 123.613281 56.046875 C 123.917969 55.195312 124.261719 54.003906 123.699219 52.347656 C 123.179688 50.730469 122.1875 50.007812 121.449219 49.5 C 120.714844 48.988281 120.023438 48.691406 119.289062 48.394531 C 117.902344 47.839844 116.34375 47.5 114.613281 47.117188 C 111.109375 46.351562 106.871094 45.628906 102.503906 44.992188 C 98.175781 44.355469 93.808594 43.886719 90.433594 43.332031 C 88.746094 43.078125 87.316406 42.738281 86.324219 42.523438 C 86.0625 42.441406 85.847656 42.398438 85.628906 42.3125 C 85.5 42.144531 85.328125 42.015625 85.199219 41.761719 C 84.636719 40.910156 83.898438 39.675781 83.121094 38.1875 C 81.5625 35.210938 79.617188 31.34375 77.671875 27.472656 C 75.722656 23.648438 73.820312 19.820312 71.960938 16.800781 C 71.050781 15.316406 70.144531 13.996094 69.148438 12.847656 C 68.195312 11.699219 67.460938 10 64 10 Z "/>
</g>
</svg>
