<svg xmlns="http://www.w3.org/2000/svg" viewBox="0 0 96 96">
 <defs>
  <radialGradient id="radialGradient3850" cx="24.08" cy="41.38" r="21.08" gradientTransform="matrix(1,0,0,0.11307633,0,36.703704)" gradientUnits="userSpaceOnUse">
   <stop style="stop-color:#000;stop-opacity:0.392"/>
   <stop offset="1" style="stop-color:#000;stop-opacity:0"/>
  </radialGradient>
 </defs>
 <g transform="translate(0,48)">
  <path d="m 45.15 41.38 c 0 1.316 -9.436 2.383 -21.08 2.383 c -11.64 0 -21.08 -1.067 -21.08 -2.383 0 -1.316 9.436 -2.383 21.08 -2.383 c 11.64 0 21.08 1.067 21.08 2.383 z" transform="matrix(2.2775074,0,0,2.098055,-6.8325223,-53.824146)" style="fill:url(#radialGradient3850);opacity:0.65;fill-opacity:1;stroke:none"/>
 </g>
 <g transform="translate(0,-956.3622)">
  <path d="m 6 974.36 0 56 84 0 0 -28 -4 -24 -32 0 -4 -8 -40 0 c -2 0 -4 2 -4 4 z" style="fill:replacecolour2;fill-opacity:1;stroke:none"/>
  <rect width="42" height="16" x="12" y="980.36" style="fill:#fffdf0;fill-opacity:1;stroke:none"/>
  <path d="m 10 970.36 c -2 0 -4 2 -4 4 l 0 2 c 0 -2 2 -4 4 -4 l 38 0 4 8 34 0 4 24 0 -2 -4 -24 -32 0 -4 -8 z" style="fill:#000;opacity:0.03;fill-opacity:1;stroke:none"/>
  <path d="m 90 982.36 0 56 -84 0 0 -52 40 0 4 -8 36 0 c 2 0 4 2 4 4 z" style="fill:replacecolour1;fill-opacity:1;stroke:none"/>
  <path d="m 6 1036.36 0 2 84 0 0 -2 z" style="fill:#000;opacity:0.15;fill-opacity:1;stroke:none"/>
  <path d="m 50 978.36 -4 8 -40 0 0 2 42 0 4 -8 34 0 c 2 0 4 2 4 4 l 0 -2 c 0 -2 -2 -4 -4 -4 z" style="fill:#000;opacity:0.03;fill-opacity:1;stroke:none"/>
  <path d="m 33.749 997.17 c -1.1 0.02 -2.14 0.136 -3.188 0.5 -0.329 2.232 0.214 4.548 0.813 6.687 1.524 4.907 4.352 9.564 8.5 12.688 0.152 0.144 0.368 0.178 0.313 0.437 -0.022 1.087 -0.002 2.223 0 3.313 0.045 1.906 1.193 3.727 2.875 4.625 1.997 1.051 3.989 2.026 6 3.062 0.926 0.49 2.209 -0.072 2.5 -1.062 0.177 -0.651 0.053 -1.336 0.063 -2 -0.007 -1.4 -0.179 -2.805 -0.125 -4.188 1.83 -0.228 3.67 -1.114 4.75 -2.625 0.963 -1.289 1.305 -2.958 1.188 -4.562 1.958 -0.35 3.975 -0.645 5.938 -1 1.161 -0.232 1.665 -1.743 0.938 -2.688 -1.427 -1.808 -2.862 -3.579 -4.313 -5.375 -1.171 -1.4 -3.01 -2.176 -4.813 -1.937 -1.225 0.196 -2.48 0.46 -3.688 0.687 -3.901 -3.716 -9.145 -5.775 -14.438 -6.375 -1.087 -0.098 -2.212 -0.205 -3.313 -0.188 z m 6.625 4.062 c 1.279 -0.116 2.561 0.239 3.625 1.125 2.128 1.772 2.459 4.935 0.688 7.06 -1.772 2.128 -4.935 2.459 -7.06 0.687 -2.128 -1.772 -2.459 -4.935 -0.688 -7.06 0.886 -1.064 2.159 -1.696 3.438 -1.813 z m 0.125 1.688 c -0.852 0.078 -1.659 0.477 -2.25 1.187 -1.182 1.42 -0.982 3.505 0.438 4.688 1.42 1.182 3.505 0.982 4.688 -0.438 1.182 -1.42 0.982 -3.505 -0.438 -4.687 -0.71 -0.591 -1.585 -0.828 -2.438 -0.75 z m 20.313 13.625 c -0.438 -0.04 -0.874 0.292 -0.938 0.75 -0.558 2.536 -2.361 4.739 -4.75 5.75 -0.622 0.196 -0.761 1.029 -0.25 1.437 1.048 0.873 2.26 1.882 3.313 2.75 0.512 0.435 1.179 -0.02 1.188 -0.687 -0.016 -0.532 -0.077 -1.1 -0.125 -1.625 1.305 0.28 2.583 0.652 3.875 0.937 0.609 0.126 1.185 -0.607 0.938 -1.187 -0.511 -1.224 -1.038 -2.407 -1.563 -3.625 0.529 -0.062 1.037 -0.108 1.563 -0.188 0.651 -0.128 0.905 -1.076 0.375 -1.5 -1.054 -0.887 -2.119 -1.744 -3.188 -2.625 -0.125 -0.098 -0.292 -0.174 -0.438 -0.188 z" style="fill:replacecolour3;fill-opacity:1;stroke:none;fill-rule:nonzero"/>
 </g>
</svg>
