<?xml version="1.0" encoding="UTF-8" standalone="no"?>
<!-- Created with Inkscape (http://www.inkscape.org/) -->

<svg
   xmlns:dc="http://purl.org/dc/elements/1.1/"
   xmlns:cc="http://creativecommons.org/ns#"
   xmlns:rdf="http://www.w3.org/1999/02/22-rdf-syntax-ns#"
   xmlns:svg="http://www.w3.org/2000/svg"
   xmlns="http://www.w3.org/2000/svg"
   xmlns:xlink="http://www.w3.org/1999/xlink"
   xmlns:sodipodi="http://sodipodi.sourceforge.net/DTD/sodipodi-0.dtd"
   xmlns:inkscape="http://www.inkscape.org/namespaces/inkscape"
   width="96"
   height="96"
   id="svg2"
   version="1.1"
   inkscape:version="0.91 r"
   sodipodi:docname="custom-folder-books.svg">
  <defs
     id="defs4">
    <linearGradient
       id="linearGradient3844">
      <stop
         style="stop-color:#000000;stop-opacity:0.39215687;"
         offset="0"
         id="stop3846" />
      <stop
         style="stop-color:#000000;stop-opacity:0;"
         offset="1"
         id="stop3848" />
    </linearGradient>
    <radialGradient
       inkscape:collect="always"
       xlink:href="#linearGradient3844"
       id="radialGradient3850"
       cx="24.075672"
       cy="41.38316"
       fx="24.075672"
       fy="41.38316"
       r="21.075672"
       gradientTransform="matrix(1,0,0,0.11307633,0,36.703704)"
       gradientUnits="userSpaceOnUse" />
  </defs>
  <sodipodi:namedview
     id="base"
     pagecolor="#ffffff"
     bordercolor="#666666"
     borderopacity="1.0"
     inkscape:pageopacity="0.0"
     inkscape:pageshadow="2"
     inkscape:zoom="14.31821"
     inkscape:cx="23.131669"
     inkscape:cy="39.426167"
     inkscape:document-units="px"
     inkscape:current-layer="layer1"
     showgrid="true"
     inkscape:window-width="1366"
     inkscape:window-height="747"
     inkscape:window-x="0"
     inkscape:window-y="21"
     inkscape:window-maximized="1">
    <inkscape:grid
       type="xygrid"
       id="grid2990"
       empspacing="5"
       visible="true"
       enabled="true"
       snapvisiblegridlinesonly="true" />
  </sodipodi:namedview>
  <metadata
     id="metadata7">
    <rdf:RDF>
      <cc:Work
         rdf:about="">
        <dc:format>image/svg+xml</dc:format>
        <dc:type
           rdf:resource="http://purl.org/dc/dcmitype/StillImage" />
        <dc:title />
      </cc:Work>
    </rdf:RDF>
  </metadata>
  <g
     inkscape:groupmode="layer"
     id="layer3"
     inkscape:label="Blob"
     transform="translate(0,48)"
     sodipodi:insensitive="true">
    <path
       sodipodi:type="arc"
       style="opacity:0.65;fill:url(#radialGradient3850);fill-opacity:1;stroke:none"
       id="path3842"
       sodipodi:cx="24.075672"
       sodipodi:cy="41.38316"
       sodipodi:rx="21.075672"
       sodipodi:ry="2.3831596"
       d="M 45.151344,41.38316 A 21.075672,2.3831596 0 0 1 24.075672,43.766319 21.075672,2.3831596 0 0 1 3,41.38316 21.075672,2.3831596 0 0 1 24.075672,39 21.075672,2.3831596 0 0 1 45.151344,41.38316 Z"
       transform="matrix(1.992819,0,0,2.098055,0.0215431,-53.824145)" />
  </g>
  <g
     inkscape:label="Body"
     inkscape:groupmode="layer"
     id="layer1"
     transform="translate(0,-956.3622)">
    <path
       style="fill:#388e3c;fill-opacity:1;stroke:none"
       d="m 6,974.3622 0,56 84,0 0,-28 -4,-24 -32,0 -4,-8 -40,0 c -2,0 -4,2 -4,4 z"
       id="path3029"
       inkscape:connector-curvature="0"
       sodipodi:nodetypes="ccccccccc" />
    <rect
       y="980.36218"
       x="12"
       height="15.999966"
       width="42"
       id="rect3799"
       style="fill:#fffdf0;fill-opacity:1;stroke:none" />
    <path
       sodipodi:nodetypes="sscsccccccccs"
       inkscape:connector-curvature="0"
       id="path3810"
       d="m 10,970.3622 c -2,0 -4,2 -4,4 l 0,2 c 0,-2 2,-4 4,-4 l 38,0 4,8 34,0 4,24 0,-2 -4,-24 -32,0 -4,-8 z"
       style="opacity:0.02999998;fill:#000000;fill-opacity:1;stroke:none" />
    <path
       sodipodi:nodetypes="cccccccc"
       inkscape:connector-curvature="0"
       id="rect2987"
       d="m 90,982.3622 0,56 -84,0 0,-52 40,0 4,-8 36,0 c 2,0 4,2 4,4 z"
       style="fill:#66bb6a;fill-opacity:1;stroke:none" />
    <path
       inkscape:connector-curvature="0"
       style="opacity:0.15;fill:#000000;fill-opacity:1;stroke:none"
       d="m 6,1036.3622 0,2 84,0 0,-2 z"
       id="path3794"
       sodipodi:nodetypes="ccccc" />
    <path
       inkscape:connector-curvature="0"
       id="path3801"
       d="m 50,980.3622 -10,6 6,0 z"
       style="fill:none;stroke:none" />
    <path
       sodipodi:nodetypes="ccccccscssc"
       inkscape:connector-curvature="0"
       id="path3805"
       d="m 50,978.3622 -4,8 -40,0 0,2 42,0 4,-8 34,0 c 2,0 4,2 4,4 l 0,-2 c 0,-2 -2,-4 -4,-4 z"
       style="opacity:0.02999998;fill:#000000;fill-opacity:1;stroke:none" />
    <g
       style="opacity:1;fill:#448647;fill-opacity:1"
       id="layer3-1"
       inkscape:label="Symbol"
       transform="matrix(7.0866141,0,0,7.0866141,31.999999,932.36219)">
      <path
         sodipodi:nodetypes="ccccccccccccccccccccc"
         id="path53"
         d="m 2.5400002,13.546668 0,-3.104444 -0.5644445,0 0,3.104444 z M 1.6933336,10.301113 -3.1968253e-7,9.1722236 l 0,2.9633334 L 1.6933336,13.264446 Z m 2.8222227,1.834444 0,-2.9633334 -1.6933337,1.1288414 0,2.963428 z M 4.2333338,9.0311124 C 3.386667,9.0311123 2.8222225,9.3133345 2.257778,9.7837051 1.6933334,9.3133345 1.1288889,9.0311123 0.28222213,9.0311124 l 1.69333357,1.1288886 0.5644445,0 z"
         style="fill:#448647;fill-opacity:1;fill-rule:nonzero;stroke:none"
         inkscape:connector-curvature="0" />
    </g>
  </g>
</svg>
