<?xml version="1.0" encoding="UTF-8" standalone="no"?>
<!-- Created with Inkscape (http://www.inkscape.org/) -->
<svg
   xmlns:dc="http://purl.org/dc/elements/1.1/"
   xmlns:cc="http://web.resource.org/cc/"
   xmlns:rdf="http://www.w3.org/1999/02/22-rdf-syntax-ns#"
   xmlns:svg="http://www.w3.org/2000/svg"
   xmlns="http://www.w3.org/2000/svg"
   xmlns:xlink="http://www.w3.org/1999/xlink"
   xmlns:sodipodi="http://sodipodi.sourceforge.net/DTD/sodipodi-0.dtd"
   xmlns:inkscape="http://www.inkscape.org/namespaces/inkscape"
   inkscape:export-ydpi="90.000000"
   inkscape:export-xdpi="90.000000"
   inkscape:export-filename="/home/jimmac/Desktop/wi-fi.png"
   width="48px"
   height="48px"
   id="svg11300"
   sodipodi:version="0.32"
   inkscape:version="0.45"
   sodipodi:docbase="/home/dobey/Projects/gnome-icon-theme/scalable/apps"
   sodipodi:docname="im-icq.svg"
   inkscape:output_extension="org.inkscape.output.svg.inkscape">
  <defs
     id="defs3">
    <linearGradient
       inkscape:collect="always"
       id="linearGradient4876">
      <stop
         style="stop-color:#000000;stop-opacity:1;"
         offset="0"
         id="stop4878" />
      <stop
         style="stop-color:#000000;stop-opacity:0;"
         offset="1"
         id="stop4880" />
    </linearGradient>
    <radialGradient
       inkscape:collect="always"
       xlink:href="#linearGradient4876"
       id="radialGradient4882"
       cx="24.25"
       cy="39.5"
       fx="24.25"
       fy="39.5"
       r="19.75"
       gradientTransform="matrix(1,0,0,0.341772,0,26)"
       gradientUnits="userSpaceOnUse" />
  </defs>
  <sodipodi:namedview
     stroke="#fcaf3e"
     fill="#edd400"
     id="base"
     pagecolor="#ffffff"
     bordercolor="#666666"
     borderopacity="0.25490196"
     inkscape:pageopacity="0.0"
     inkscape:pageshadow="2"
     inkscape:zoom="1"
     inkscape:cx="33.11761"
     inkscape:cy="23.847589"
     inkscape:current-layer="layer1"
     showgrid="false"
     inkscape:grid-bbox="true"
     inkscape:document-units="px"
     inkscape:showpageshadow="false"
     inkscape:window-width="750"
     inkscape:window-height="546"
     inkscape:window-x="533"
     inkscape:window-y="347" />
  <metadata
     id="metadata4">
    <rdf:RDF>
      <cc:Work
         rdf:about="">
        <dc:format>image/svg+xml</dc:format>
        <dc:type
           rdf:resource="http://purl.org/dc/dcmitype/StillImage" />
        <dc:creator>
          <cc:Agent>
            <dc:title>Jakub Steiner</dc:title>
          </cc:Agent>
        </dc:creator>
        <dc:source>http://jimmac.musichall.cz</dc:source>
        <cc:license
           rdf:resource="http://creativecommons.org/licenses/GPL/2.0/" />
        <dc:title>IM - ICQ</dc:title>
      </cc:Work>
      <cc:License
         rdf:about="http://creativecommons.org/licenses/GPL/2.0/">
        <cc:permits
           rdf:resource="http://web.resource.org/cc/Reproduction" />
        <cc:permits
           rdf:resource="http://web.resource.org/cc/Distribution" />
        <cc:requires
           rdf:resource="http://web.resource.org/cc/Notice" />
        <cc:permits
           rdf:resource="http://web.resource.org/cc/DerivativeWorks" />
        <cc:requires
           rdf:resource="http://web.resource.org/cc/ShareAlike" />
        <cc:requires
           rdf:resource="http://web.resource.org/cc/SourceCode" />
      </cc:License>
    </rdf:RDF>
  </metadata>
  <g
     id="layer1"
     inkscape:label="Layer 1"
     inkscape:groupmode="layer">
    <path
       sodipodi:nodetypes="ccsccsc"
       id="path4856"
       d="M 22.405204,25.633363 L 7.5213078,29.093917 C 4.7544871,29.218216 2.4269788,27.090843 2.3026795,24.324022 C 2.1783801,21.557201 4.3057539,19.229694 7.072574,19.105394 L 22.206817,21.217386 C 23.430043,21.162431 24.459045,22.102955 24.513999,23.326181 C 24.568952,24.549407 23.628431,25.578409 22.405204,25.633363 z "
       style="color:#000000;fill:#edd400;fill-opacity:1;fill-rule:evenodd;stroke:#fcaf3e;stroke-width:0.99999952;stroke-linecap:round;stroke-linejoin:round;marker:none;marker-start:none;marker-mid:none;marker-end:none;stroke-miterlimit:4;stroke-dasharray:none;stroke-dashoffset:0;stroke-opacity:1;visibility:visible;display:inline;overflow:visible" />
    <path
       style="color:#000000;fill:#edd400;fill-opacity:1;fill-rule:evenodd;stroke:#fcaf3e;stroke-width:0.99999952;stroke-linecap:round;stroke-linejoin:round;marker:none;marker-start:none;marker-mid:none;marker-end:none;stroke-miterlimit:4;stroke-dasharray:none;stroke-dashoffset:0;stroke-opacity:1;visibility:visible;display:inline;overflow:visible"
       d="M 24.466812,20.280122 L 28.686207,5.5933087 C 29.923971,3.1156712 32.915071,2.1175056 35.392708,3.3552698 C 37.870346,4.5930337 38.868511,7.5841333 37.630747,10.06177 L 28.421239,22.255652 C 27.874018,23.351029 26.551637,23.792323 25.456261,23.245101 C 24.360884,22.697879 23.91959,21.375499 24.466812,20.280122 z "
       id="path4854"
       sodipodi:nodetypes="ccsccsc" />
    <path
       style="color:#000000;fill:#edd400;fill-opacity:1;fill-rule:evenodd;stroke:#fcaf3e;stroke-width:0.99999952;stroke-linecap:round;stroke-linejoin:round;marker:none;marker-start:none;marker-mid:none;marker-end:none;stroke-miterlimit:4;stroke-dasharray:none;stroke-dashoffset:0;stroke-opacity:1;visibility:visible;display:inline;overflow:visible"
       d="M 19.518735,23.347808 L 8.3359268,19.196609 C 6.4804543,18.086915 5.8800625,15.699796 6.9897565,13.844322 C 8.0994508,11.988851 10.486571,11.388459 12.342043,12.498152 L 21.289859,20.386386 C 22.110174,20.876988 22.37561,21.932346 21.885008,22.752659 C 21.394407,23.572974 20.339049,23.838409 19.518735,23.347808 z "
       id="path4858"
       sodipodi:nodetypes="ccsccsc" />
    <path
       sodipodi:nodetypes="ccsccsc"
       id="path4860"
       d="M 21.392197,22.256135 L 11.644708,10.487856 C 10.296996,8.0682652 11.159916,5.0353815 13.579508,3.6876687 C 15.999099,2.3399561 19.031983,3.2028765 20.379695,5.6224676 L 25.253979,20.105121 C 25.849811,21.174835 25.468309,22.515689 24.398595,23.111519 C 23.328881,23.70735 21.988027,23.325849 21.392197,22.256135 z "
       style="color:#000000;fill:#edd400;fill-opacity:1;fill-rule:evenodd;stroke:#fcaf3e;stroke-width:0.99999952;stroke-linecap:round;stroke-linejoin:round;marker:none;marker-start:none;marker-mid:none;marker-end:none;stroke-miterlimit:4;stroke-dasharray:none;stroke-dashoffset:0;stroke-opacity:1;visibility:visible;display:inline;overflow:visible" />
    <path
       style="color:#000000;fill:#edd400;fill-opacity:1;fill-rule:evenodd;stroke:#fcaf3e;stroke-width:0.99999952;stroke-linecap:round;stroke-linejoin:round;marker:none;marker-start:none;marker-mid:none;marker-end:none;stroke-miterlimit:4;stroke-dasharray:none;stroke-dashoffset:0;stroke-opacity:1;visibility:visible;display:inline;overflow:visible"
       d="M 26.160166,21.538521 L 41.184376,18.749437 C 43.953989,18.749437 46.183676,20.979125 46.183676,23.748737 C 46.183676,26.518349 43.953989,28.748037 41.184376,28.748037 L 26.160166,25.958953 C 24.935706,25.958953 23.94995,24.973197 23.94995,23.748737 C 23.94995,22.524277 24.935706,21.538521 26.160166,21.538521 z "
       id="rect4849"
       sodipodi:nodetypes="ccsccsc" />
    <path
       sodipodi:nodetypes="ccsccsc"
       id="path4852"
       d="M 27.368096,19.62061 L 36.436303,11.871076 C 38.308641,10.790081 40.686233,11.427155 41.767229,13.299493 C 42.848224,15.171831 42.211149,17.549424 40.338812,18.630419 L 29.093415,22.60895 C 28.265645,23.086863 27.214499,22.80521 26.736586,21.977439 C 26.258672,21.149669 26.540326,20.098523 27.368096,19.62061 z "
       style="color:#000000;fill:#edd400;fill-opacity:1;fill-rule:evenodd;stroke:#fcaf3e;stroke-width:0.99999952;stroke-linecap:round;stroke-linejoin:round;marker:none;marker-start:none;marker-mid:none;marker-end:none;stroke-miterlimit:4;stroke-dasharray:none;stroke-dashoffset:0;stroke-opacity:1;visibility:visible;display:inline;overflow:visible" />
    <path
       style="color:#000000;fill:#edd400;fill-opacity:1;fill-rule:evenodd;stroke:#fcaf3e;stroke-width:0.99999952;stroke-linecap:round;stroke-linejoin:round;marker:none;marker-start:none;marker-mid:none;marker-end:none;stroke-miterlimit:4;stroke-dasharray:none;stroke-dashoffset:0;stroke-opacity:1;visibility:visible;display:inline;overflow:visible"
       d="M 23.527372,20.093359 L 21.009809,8.4336228 C 20.946895,6.2725496 22.636025,4.4821185 24.7971,4.4192026 C 26.958172,4.3562875 28.748604,6.0454185 28.811519,8.2064914 L 26.976547,19.992944 C 27.004363,20.948366 26.25759,21.739925 25.302167,21.767739 C 24.346745,21.795555 23.555186,21.048781 23.527372,20.093359 z "
       id="path4862"
       sodipodi:nodetypes="ccsccsc" />
    <path
       sodipodi:type="arc"
       style="opacity:0.53846154;color:#000000;fill:url(#radialGradient4882);fill-opacity:1;fill-rule:evenodd;stroke:none;stroke-width:1;stroke-linecap:round;stroke-linejoin:round;marker:none;marker-start:none;marker-mid:none;marker-end:none;stroke-miterlimit:4;stroke-dasharray:none;stroke-dashoffset:0;stroke-opacity:1;visibility:visible;display:inline;overflow:visible"
       id="path4874"
       sodipodi:cx="24.25"
       sodipodi:cy="39.5"
       sodipodi:rx="19.75"
       sodipodi:ry="6.75"
       d="M 44 39.5 A 19.75 6.75 0 1 1  4.5,39.5 A 19.75 6.75 0 1 1  44 39.5 z"
       transform="matrix(1,0,0,1.5,0,-23.125)" />
    <path
       sodipodi:nodetypes="ccsccsc"
       id="path4864"
       d="M 25.46208,26.080991 L 21.468238,40.830737 C 20.268587,43.327051 17.293134,44.370934 14.79682,43.171282 C 12.300506,41.97163 11.256624,38.996177 12.456275,36.499864 L 21.477846,24.166289 C 22.008218,23.062656 23.323681,22.60115 24.427314,23.131522 C 25.530948,23.661895 25.992454,24.977357 25.46208,26.080991 z "
       style="color:#000000;fill:#edd400;fill-opacity:1;fill-rule:evenodd;stroke:#fcaf3e;stroke-width:0.99999952;stroke-linecap:round;stroke-linejoin:round;marker:none;marker-start:none;marker-mid:none;marker-end:none;stroke-miterlimit:4;stroke-dasharray:none;stroke-dashoffset:0;stroke-opacity:1;visibility:visible;display:inline;overflow:visible" />
    <path
       style="color:#000000;fill:#edd400;fill-opacity:1;fill-rule:evenodd;stroke:#fcaf3e;stroke-width:0.99999952;stroke-linecap:round;stroke-linejoin:round;marker:none;marker-start:none;marker-mid:none;marker-end:none;stroke-miterlimit:4;stroke-dasharray:none;stroke-dashoffset:0;stroke-opacity:1;visibility:visible;display:inline;overflow:visible"
       d="M 22.082795,27.542459 L 13.134405,35.430041 C 11.278852,36.539601 8.8917762,35.939035 7.7822162,34.083481 C 6.6726576,32.227928 7.2732234,29.840853 9.1287758,28.731293 L 20.311887,24.580908 C 21.132236,24.090365 22.187575,24.355878 22.678116,25.176228 C 23.168658,25.996578 22.903145,27.051916 22.082795,27.542459 z "
       id="path4868"
       sodipodi:nodetypes="ccsccsc" />
    <path
       style="color:#000000;fill:#edd400;fill-opacity:1;fill-rule:evenodd;stroke:#fcaf3e;stroke-width:0.99999952;stroke-linecap:round;stroke-linejoin:round;marker:none;marker-start:none;marker-mid:none;marker-end:none;stroke-miterlimit:4;stroke-dasharray:none;stroke-dashoffset:0;stroke-opacity:1;visibility:visible;display:inline;overflow:visible"
       d="M 28.506055,24.058095 L 38.432733,35.675624 C 39.817365,38.074278 39.001021,41.120029 36.602365,42.504661 C 34.203711,43.889293 31.15796,43.072949 29.773329,40.674294 L 24.677687,26.268033 C 24.065535,25.207575 24.426444,23.861034 25.486901,23.248881 C 26.547361,22.636727 27.893903,22.997638 28.506055,24.058095 z "
       id="path4870"
       sodipodi:nodetypes="ccsccsc" />
    <path
       sodipodi:nodetypes="ccsccsc"
       id="path4872"
       d="M 26.404273,26.253336 L 29.10021,37.873125 C 29.196234,40.03298 27.534738,41.849085 25.374881,41.945109 C 23.215027,42.041133 21.398921,40.379636 21.302898,38.219781 L 22.957041,26.406594 C 22.914587,25.451709 23.649144,24.648802 24.604028,24.606349 C 25.558912,24.563896 26.361821,25.298453 26.404273,26.253336 z "
       style="color:#000000;fill:#edd400;fill-opacity:1;fill-rule:evenodd;stroke:#fcaf3e;stroke-width:0.99999952;stroke-linecap:round;stroke-linejoin:round;marker:none;marker-start:none;marker-mid:none;marker-end:none;stroke-miterlimit:4;stroke-dasharray:none;stroke-dashoffset:0;stroke-opacity:1;visibility:visible;display:inline;overflow:visible" />
    <path
       sodipodi:nodetypes="ccsccsc"
       id="path4866"
       d="M 29.612568,23.187841 L 40.857676,27.16719 C 42.729935,28.248321 43.366836,30.625959 42.285705,32.49822 C 41.204574,34.370479 38.826935,35.00738 36.954675,33.92625 L 27.887032,26.176057 C 27.059296,25.698083 26.777718,24.646916 27.255693,23.819181 C 27.733666,22.991444 28.784833,22.709868 29.612568,23.187841 z "
       style="color:#000000;fill:#edd400;fill-opacity:1;fill-rule:evenodd;stroke:#fcaf3e;stroke-width:0.99999952;stroke-linecap:round;stroke-linejoin:round;marker:none;marker-start:none;marker-mid:none;marker-end:none;stroke-miterlimit:4;stroke-dasharray:none;stroke-dashoffset:0;stroke-opacity:1;visibility:visible;display:inline;overflow:visible" />
    <path
       sodipodi:type="arc"
       style="opacity:1;color:#000000;fill:#edd400;fill-opacity:1;fill-rule:evenodd;stroke:#fcaf3e;stroke-width:1.54177701;stroke-linecap:round;stroke-linejoin:round;marker:none;marker-start:none;marker-mid:none;marker-end:none;stroke-miterlimit:4;stroke-dasharray:none;stroke-dashoffset:0;stroke-opacity:1;visibility:visible;display:inline;overflow:visible"
       id="path4838"
       sodipodi:cx="24.748737"
       sodipodi:cy="23.251263"
       sodipodi:rx="8.6620579"
       sodipodi:ry="8.6620579"
       d="M 33.410795 23.251263 A 8.6620579 8.6620579 0 1 1  16.086679,23.251263 A 8.6620579 8.6620579 0 1 1  33.410795 23.251263 z"
       transform="matrix(0.648602,0,0,0.648602,8.82557,8.168736)" />
    <path
       transform="matrix(0.529696,0,0,0.529696,11.76835,10.93345)"
       d="M 33.410795 23.251263 A 8.6620579 8.6620579 0 1 1  16.086679,23.251263 A 8.6620579 8.6620579 0 1 1  33.410795 23.251263 z"
       sodipodi:ry="8.6620579"
       sodipodi:rx="8.6620579"
       sodipodi:cy="23.251263"
       sodipodi:cx="24.748737"
       id="path4884"
       style="opacity:0.36263736;color:#000000;fill:none;fill-opacity:1;fill-rule:evenodd;stroke:#ffffff;stroke-width:1.88787568;stroke-linecap:round;stroke-linejoin:round;marker:none;marker-start:none;marker-mid:none;marker-end:none;stroke-miterlimit:4;stroke-dasharray:none;stroke-dashoffset:0;stroke-opacity:1;visibility:visible;display:inline;overflow:visible"
       sodipodi:type="arc" />
  </g>
</svg>
