<svg width="128" xmlns="http://www.w3.org/2000/svg" height="128" viewBox="0 0 128 128" xmlns:xlink="http://www.w3.org/1999/xlink">
<g style="fill:#e660c1;fill-rule:evenodd">
<path d="M 50.351562 90.378906 C 50.351562 90.378906 46.5625 92.578125 53.035156 93.332031 C 60.886719 94.21875 64.882812 94.089844 73.527344 92.460938 C 73.527344 92.460938 75.808594 93.878906 78.972656 95.117188 C 59.597656 103.425781 35.128906 94.636719 50.351562 90.378906 "/>
<path d="M 47.980469 79.542969 C 47.980469 79.542969 43.738281 82.695312 50.222656 83.359375 C 58.59375 84.21875 65.207031 84.296875 76.652344 82.097656 C 76.652344 82.097656 78.242188 83.699219 80.730469 84.570312 C 57.304688 91.417969 31.210938 85.117188 47.980469 79.542969 "/>
<path d="M 67.929688 61.171875 C 72.707031 66.667969 66.679688 71.613281 66.679688 71.613281 C 66.679688 71.613281 78.800781 65.351562 73.230469 57.527344 C 68.035156 50.207031 64.050781 46.589844 85.636719 34.0625 C 85.636719 34.0625 51.757812 42.527344 67.929688 61.171875 "/>
<path d="M 93.554688 98.398438 C 93.554688 98.398438 96.355469 100.703125 90.46875 102.488281 C 79.296875 105.871094 43.933594 106.902344 34.113281 102.617188 C 30.585938 101.082031 37.199219 98.957031 39.285156 98.503906 C 41.457031 98.035156 42.695312 98.125 42.695312 98.125 C 38.777344 95.351562 17.316406 103.554688 31.796875 105.898438 C 71.300781 112.304688 103.800781 103.019531 93.554688 98.398438 "/>
<path d="M 52.160156 68.320312 C 52.160156 68.320312 34.179688 72.589844 45.792969 74.152344 C 50.703125 74.804688 60.480469 74.660156 69.582031 73.894531 C 77.03125 73.269531 84.503906 71.925781 84.503906 71.925781 C 84.503906 71.925781 81.875 73.058594 79.972656 74.347656 C 61.71875 79.152344 26.433594 76.914062 36.589844 72.003906 C 45.183594 67.851562 52.160156 68.320312 52.160156 68.320312 "/>
<path d="M 84.425781 86.355469 C 102.996094 76.707031 94.414062 67.433594 88.425781 68.683594 C 86.953125 68.996094 86.300781 69.257812 86.300781 69.257812 C 86.300781 69.257812 86.835938 68.398438 87.878906 68.035156 C 99.738281 63.867188 108.855469 80.324219 84.0625 86.847656 C 84.0625 86.847656 84.347656 86.589844 84.425781 86.355469 "/>
<path d="M 73.230469 13.855469 C 73.230469 13.855469 83.515625 24.140625 63.476562 39.960938 C 47.421875 52.644531 59.816406 59.882812 63.476562 68.136719 C 54.101562 59.6875 47.214844 52.238281 51.835938 45.300781 C 58.605469 35.128906 77.382812 30.195312 73.230469 13.855469 "/>
<path d="M 53.984375 112.5 C 71.808594 113.644531 99.179688 111.863281 99.832031 103.4375 C 99.832031 103.4375 98.582031 106.628906 85.089844 109.167969 C 69.882812 112.03125 51.121094 111.707031 40 109.871094 C 40 109.871094 42.277344 111.746094 53.984375 112.5 "/>
</g>
</svg>
