<?xml version="1.0" encoding="UTF-8" standalone="no"?>
<svg
   xmlns:dc="http://purl.org/dc/elements/1.1/"
   xmlns:cc="http://creativecommons.org/ns#"
   xmlns:rdf="http://www.w3.org/1999/02/22-rdf-syntax-ns#"
   xmlns:svg="http://www.w3.org/2000/svg"
   xmlns="http://www.w3.org/2000/svg"
   xmlns:sodipodi="http://sodipodi.sourceforge.net/DTD/sodipodi-0.dtd"
   xmlns:inkscape="http://www.inkscape.org/namespaces/inkscape"
   width="256"
   height="256"
   viewBox="0 0 204.8 204.8"
   id="svg2"
   version="1.1"
   inkscape:version="0.91 r"
   sodipodi:docname="applications-profiling.svg">
  <metadata
     id="metadata60">
    <rdf:RDF>
      <cc:Work
         rdf:about="">
        <dc:format>image/svg+xml</dc:format>
        <dc:type
           rdf:resource="http://purl.org/dc/dcmitype/StillImage" />
        <dc:title />
      </cc:Work>
    </rdf:RDF>
  </metadata>
  <defs
     id="defs58" />
  <sodipodi:namedview
     pagecolor="#ffffff"
     bordercolor="#666666"
     borderopacity="1"
     objecttolerance="10"
     gridtolerance="10"
     guidetolerance="10"
     inkscape:pageopacity="0"
     inkscape:pageshadow="2"
     inkscape:window-width="1920"
     inkscape:window-height="1056"
     id="namedview56"
     showgrid="true"
     inkscape:zoom="1.7566021"
     inkscape:cx="183.15075"
     inkscape:cy="100.73963"
     inkscape:window-x="0"
     inkscape:window-y="24"
     inkscape:window-maximized="1"
     inkscape:current-layer="svg2">
    <inkscape:grid
       type="xygrid"
       id="grid4229" />
  </sodipodi:namedview>
  <path
     style="fill:#b477d0"
     inkscape:connector-curvature="0"
     id="path8"
     d="m 98.102851,42.470819 8.594259,0 c 1.1703,0 2.10286,1.08334 2.10286,2.39584 l 0,7.729161 c 0,1.33334 -0.93256,2.39584 -2.10286,2.39584 l -8.594259,0 c -1.1703,0 -2.10287,-1.0625 -2.10287,-2.39584 l 0,-7.729161 c 0,-1.3125 0.93257,-2.39584 2.10287,-2.39584 z" />
  <path
     style="fill:#b477d0"
     inkscape:connector-curvature="0"
     id="path10"
     d="m 96.919091,34.116659 9.999999,0 c 3.35416,0 6.0625,2.70834 6.0625,6.0625 0,3.33334 -2.70834,6.0625 -6.0625,6.0625 l -9.999999,0 c -3.35417,0 -6.06251,-2.72916 -6.06251,-6.0625 0,-3.35416 2.70834,-6.0625 6.06251,-6.0625 z" />
  <path
     inkscape:connector-curvature="0"
     id="path12"
     d="m 99.211271,23.750719 6.396159,0 c 6.32114,0 11.44182,3.50158 11.44182,7.84762 l 0,0.8239 c 0,4.32546 -5.12068,7.82702 -11.44182,7.82702 l -6.396159,0 c -6.32114,0 -11.46058,-3.50156 -11.46058,-7.82702 l 0,-0.8239 c 0,-4.34604 5.13944,-7.84762 11.46058,-7.84762 z"
     style="fill:#b477d0;stroke:#b477d0;stroke-width:4.83478928;stroke-linejoin:round" />
  <path
     style="fill:#b477d0"
     d="m 101.40441,68.26666 1.99112,0 c 1.792,0 3.2711,1.09164 3.2711,2.46154 l 0,7.87692 c 0,1.3485 -1.4791,2.46154 -3.2711,2.46154 l -1.99112,0 c -1.791999,0 -3.271099,-1.11304 -3.271099,-2.46154 l 0,-7.87692 c 0,-1.3699 1.4791,-2.46154 3.271099,-2.46154 z"
     id="path20"
     inkscape:connector-curvature="0" />
  <path
     style="fill:#b477d0"
     d="m 101.40441,149.76 1.99112,0 c 1.792,0 3.2711,1.11118 3.2711,2.45742 l 0,7.88514 c 0,1.34624 -1.4791,2.45744 -3.2711,2.45744 l -1.99112,0 c -1.791999,0 -3.271099,-1.1112 -3.271099,-2.45744 l 0,-7.88514 c 0,-1.34624 1.4791,-2.45742 3.271099,-2.45742 z"
     id="path22"
     inkscape:connector-curvature="0" />
  <path
     style="fill:#b477d0"
     d="m 55.466637,116.1846 0,-1.96922 c 0,-1.79798 1.111176,-3.28206 2.478792,-3.28206 l 7.863778,0 c 1.34624,0 2.457424,1.48408 2.457424,3.28206 l 0,1.96922 c 0,1.82654 -1.111184,3.28206 -2.457424,3.28206 l -7.863778,0 c -1.367616,0 -2.478792,-1.45552 -2.478792,-3.28206 z"
     id="path24"
     inkscape:connector-curvature="0" />
  <path
     style="fill:#b477d0"
     d="m 136.53331,116.1846 0,-1.96922 c 0,-1.79798 1.11304,-3.28206 2.46154,-3.28206 l 7.87692,0 c 1.3699,0 2.46154,1.48408 2.46154,3.28206 l 0,1.96922 c 0,1.82654 -1.09164,3.28206 -2.46154,3.28206 l -7.87692,0 c -1.3485,0 -2.46154,-1.45552 -2.46154,-3.28206 z"
     id="path26"
     inkscape:connector-curvature="0" />
  <path
     style="fill:#b477d0"
     d="m 101.52081,79.42916 c -1.31252,0 -2.645839,0.0624 -3.979179,0.20832 -0.41664,0.0208 -0.79168,0.2708 -0.95833,0.64584 -0.18752,0.37496 -0.14584,0.81252 0.10416,1.14584 0.2708,0.31248 0.68752,0.47912 1.08333,0.41672 10.145839,-1.10418 19.166679,1.95834 26.541679,9.020821 0.2708,0.33336 0.70832,0.45834 1.10416,0.35416 0.41672,-0.1042 0.7292,-0.43752 0.8125,-0.85416 0.0834,-0.39584 -0.0624,-0.83332 -0.39584,-1.08332 -6.83332,-6.541681 -15.14584,-9.895841 -24.3125,-9.854161 z"
     id="path44"
     inkscape:connector-curvature="0" />
  <path
     style="fill:#b477d0"
     d="m 104.74997,85.95 c -0.56248,0.0834 -0.95832,0.54168 -0.95832,1.10416 0.0208,0.562481 0.43752,1.020841 1,1.083341 5.64582,0.7292 10.16666,2.79166 14.41664,6.58332 0.45832,0.39584 1.16668,0.35416 1.56252,-0.1042 0.41672,-0.45832 0.37496,-1.16666 -0.0834,-1.5625 -4.5625,-4.04166 -9.58334,-6.333341 -15.60418,-7.104161 -0.125,-0.0208 -0.2292,-0.0208 -0.33336,0 z"
     id="path46"
     inkscape:connector-curvature="0" />
  <path
     style="fill:#b477d0"
     d="m 100.62497,73.42916 c -3.666669,0.1042 -7.395839,0.70832 -11.124999,1.8125 -0.39584,0.0834 -0.70832,0.39584 -0.81251,0.79168 -0.10416,0.41672 0.0416,0.83334 0.33336,1.10416 0.31248,0.2708 0.75,0.35416 1.125,0.20832 14.145849,-4.20832 28.229169,-0.68752 38.708349,9.6875 0.43752,0.437521 1.14582,0.437521 1.58332,0 0.43752,-0.43752 0.41672,-1.14584 0,-1.5625 -8.27084,-8.1875 -18.79166,-12.35416 -29.8125,-12.04166 z"
     id="path48"
     inkscape:connector-curvature="0" />
  <path
     style="fill:#b477d0;fill-rule:evenodd"
     d="m 138.47913,57.2 -2.16666,8.54166 8.39582,6.45834 8.08336,-4.72918 c 0,-4.18748 -10.72918,-11.47916 -14.31252,-10.27082 z"
     id="path52"
     inkscape:connector-curvature="0" />
  <path
     style="fill:#b477d0;fill-rule:evenodd"
     d="m 138.39581,84.59584 c -0.75,-0.85418 -45.958349,35.83332 -45.958349,35.83332 l 1.70834,2.16668 c 0,0 44.979169,-37.14584 44.250009,-38 z"
     id="path54"
     inkscape:connector-curvature="0" />
  <circle
     style="opacity:1;fill:none;fill-opacity:1;fill-rule:nonzero;stroke:#b477d0;stroke-width:12.80000019;stroke-linecap:butt;stroke-linejoin:miter;stroke-miterlimit:4;stroke-dasharray:none;stroke-dashoffset:0;stroke-opacity:1"
     id="path4231"
     cx="102.4"
     cy="115.2"
     r="57.599998" />
</svg>
