<?xml version="1.0" encoding="UTF-8" standalone="no"?>
<svg
   xmlns:dc="http://purl.org/dc/elements/1.1/"
   xmlns:cc="http://creativecommons.org/ns#"
   xmlns:rdf="http://www.w3.org/1999/02/22-rdf-syntax-ns#"
   xmlns:svg="http://www.w3.org/2000/svg"
   xmlns="http://www.w3.org/2000/svg"
   xmlns:sodipodi="http://sodipodi.sourceforge.net/DTD/sodipodi-0.dtd"
   xmlns:inkscape="http://www.inkscape.org/namespaces/inkscape"
   width="256"
   height="256"
   viewBox="0 0 256 256"
   id="svg2"
   version="1.1"
   inkscape:version="0.91 r"
   sodipodi:docname="applications-java.svg">
  <metadata
     id="metadata26">
    <rdf:RDF>
      <cc:Work
         rdf:about="">
        <dc:format>image/svg+xml</dc:format>
        <dc:type
           rdf:resource="http://purl.org/dc/dcmitype/StillImage" />
      </cc:Work>
    </rdf:RDF>
  </metadata>
  <defs
     id="defs24" />
  <sodipodi:namedview
     pagecolor="#ffffff"
     bordercolor="#666666"
     borderopacity="1"
     objecttolerance="10"
     gridtolerance="10"
     guidetolerance="10"
     inkscape:pageopacity="0"
     inkscape:pageshadow="2"
     inkscape:window-width="1920"
     inkscape:window-height="1056"
     id="namedview22"
     showgrid="false"
     inkscape:zoom="0.921875"
     inkscape:cx="128"
     inkscape:cy="128"
     inkscape:window-x="0"
     inkscape:window-y="24"
     inkscape:window-maximized="1"
     inkscape:current-layer="svg2" />
  <g
     style="fill:#e660c1;fill-rule:evenodd"
     id="g4"
     transform="matrix(1.0412328,0,0,1.0412328,-3.8927033,-3.8890211)">
    <path
       d="m 100.70313,180.75391 c 0,0 -7.57813,4.40234 5.36328,5.91406 15.70312,1.76953 23.69921,1.50781 40.99218,-1.7461 0,0 4.55469,2.83985 10.88282,5.3125 -38.75,16.61329 -87.679691,-0.96484 -57.23828,-9.48046"
       id="path6"
       inkscape:connector-curvature="0" />
    <path
       d="m 95.964844,159.08984 c 0,0 -8.492188,6.30078 4.476566,7.62891 16.74609,1.71875 29.97656,1.875 52.86718,-2.52734 0,0 3.17578,3.20312 8.14844,4.94921 -46.84765,13.69922 -99.035155,1.09375 -65.492186,-10.05078"
       id="path8"
       inkscape:connector-curvature="0" />
    <path
       d="m 135.85937,122.34375 c 9.5586,10.98828 -2.5,20.88672 -2.5,20.88672 0,0 24.2461,-12.52735 13.09766,-28.17969 -10.39062,-14.63281 -18.35937,-21.874999 24.82031,-46.92578 0,0 -67.76171,16.925781 -35.41797,54.21875"
       id="path10"
       inkscape:connector-curvature="0" />
    <path
       d="m 187.10937,196.79687 c 0,0 5.59766,4.60938 -6.17187,8.17579 -22.34375,6.77343 -93.074219,8.82812 -112.707031,0.26171 -7.058594,-3.07421 6.171875,-7.3164 10.335937,-8.23046 4.351563,-0.9375 6.824219,-0.75391 6.824219,-0.75391 -7.839844,-5.54688 -50.753906,10.85937 -21.796875,15.54687 79.01172,12.8125 144.01172,-5.7539 123.51562,-15"
       id="path12"
       inkscape:connector-curvature="0" />
    <path
       d="m 104.32422,136.64062 c 0,0 -35.964845,8.54297 -12.734376,11.66797 9.816406,1.30078 29.374996,1.01563 47.578126,-0.52343 14.89453,-1.25 29.84375,-3.92969 29.84375,-3.92969 0,0 -5.26172,2.26562 -9.0625,4.84375 -36.51172,9.60937 -107.085939,5.1289 -86.773439,-4.6875 17.1875,-8.3086 31.148439,-7.3711 31.148439,-7.3711"
       id="path14"
       inkscape:connector-curvature="0" />
    <path
       d="m 168.85547,172.70703 c 37.13281,-19.29687 19.97265,-37.83594 7.99219,-35.33594 -2.94141,0.625 -4.24219,1.14453 -4.24219,1.14453 0,0 1.0664,-1.71875 3.14844,-2.44921 23.72656,-8.33203 41.95312,24.58593 -7.62891,37.63281 0,0 0.57422,-0.52344 0.73047,-0.99219"
       id="path16"
       inkscape:connector-curvature="0" />
    <path
       d="m 146.45703,27.707031 c 0,0 20.57422,20.574219 -19.5039,52.214844 -32.10938,25.363285 -7.31641,39.843755 0,56.355465 -18.75,-16.90234 -32.527349,-31.79687 -23.28125,-45.679684 13.54296,-20.335937 51.09374,-30.207031 42.78515,-62.890625"
       id="path18"
       inkscape:connector-curvature="0" />
    <path
       d="m 107.96875,225 c 35.65234,2.29297 90.39062,-1.27734 91.69141,-18.125 0,0 -2.5,6.37891 -29.47657,11.45703 -30.41797,5.73047 -67.94531,5.07813 -90.18359,1.40625 0,0 4.558594,3.75 27.96875,5.26172"
       id="path20"
       inkscape:connector-curvature="0" />
  </g>
</svg>
