<?xml version="1.0" encoding="UTF-8" standalone="no"?>
<svg
   xmlns:dc="http://purl.org/dc/elements/1.1/"
   xmlns:cc="http://creativecommons.org/ns#"
   xmlns:rdf="http://www.w3.org/1999/02/22-rdf-syntax-ns#"
   xmlns:svg="http://www.w3.org/2000/svg"
   xmlns="http://www.w3.org/2000/svg"
   xmlns:sodipodi="http://sodipodi.sourceforge.net/DTD/sodipodi-0.dtd"
   xmlns:inkscape="http://www.inkscape.org/namespaces/inkscape"
   width="256"
   height="256"
   viewBox="0 0 256 256"
   id="svg2"
   version="1.1"
   inkscape:version="0.91 r"
   sodipodi:docname="applications-sports.svg">
  <metadata
     id="metadata10">
    <rdf:RDF>
      <cc:Work
         rdf:about="">
        <dc:format>image/svg+xml</dc:format>
        <dc:type
           rdf:resource="http://purl.org/dc/dcmitype/StillImage" />
      </cc:Work>
    </rdf:RDF>
  </metadata>
  <defs
     id="defs8" />
  <sodipodi:namedview
     pagecolor="#ffffff"
     bordercolor="#666666"
     borderopacity="1"
     objecttolerance="10"
     gridtolerance="10"
     guidetolerance="10"
     inkscape:pageopacity="0"
     inkscape:pageshadow="2"
     inkscape:window-width="961"
     inkscape:window-height="480"
     id="namedview6"
     showgrid="false"
     inkscape:zoom="0.921875"
     inkscape:cx="128"
     inkscape:cy="128"
     inkscape:window-x="10"
     inkscape:window-y="34"
     inkscape:window-maximized="0"
     inkscape:current-layer="svg2" />
  <path
     style="fill:#9c9c37;stroke:#9c9c37;stroke-width:0.98985267"
     d="M 120.12939,226.59636 C 78.438185,223.75653 41.825082,190.89341 31.485289,151.10454 21.954085,109.88209 40.887587,63.425284 77.840532,41.886327 101.59042,27.722334 131.40668,25.925468 157.70733,33.319963 c 32.4764,9.972607 57.21457,38.878716 65.8864,71.093407 7.81246,29.71079 2.18749,63.43328 -18.54288,86.84723 -18.77335,23.35535 -48.7732,36.82013 -78.8004,35.62092 -2.03124,-0.0234 -4.08982,-0.12891 -6.12106,-0.28516 z m 24.84363,-4.66013 c 7.49996,-0.65234 6.17184,-2.9453 -0.625,-3.54295 -12.1601,-2.34374 -25.28503,-2.39452 -37.03107,1.71874 10.33979,4.97263 24.06238,3.67186 35.62483,2.18749 z m -36.82014,-6.58981 c 5.33592,-5.44138 -0.23437,-18.43741 -4.89841,-23.59364 -10.441355,-5.33591 -18.515535,-14.00774 -28.070175,-20.57021 -7.187465,-2.6328 -14.195244,2.34374 -21.120991,4.03514 -0.02734,6.84762 -0.496092,14.6093 5.546848,19.3749 9.94917,9.79292 21.953018,18.41007 35.495921,22.3163 4.347635,0.18359 8.906207,-0.0781 13.046807,-1.56249 z m 57.15988,0.28515 c 17.31632,-7.44527 33.54281,-19.42568 43.30839,-35.72639 3.5156,-4.68747 6.09372,-12.9179 -3.07421,-10.18354 -11.5351,7.24215 -21.95302,16.19914 -33.74983,23.04676 -7.16013,5.67966 -12.31635,13.46478 -17.42179,20.91006 1.76952,4.11716 7.55074,3.12498 10.93744,1.95311 z m 11.74604,-29.94516 c 8.69527,-7.13669 21.27333,-11.7187 25.85925,-22.52724 2.05468,-8.51558 2.21092,-17.31632 3.0703,-25.98815 -8.67184,-7.67965 -19.29679,-12.89056 -29.7108,-17.81241 -10.28901,0.80859 -18.59366,9.94917 -26.74596,15.85929 -4.3242,2.37109 -3.20311,7.76168 -4.40232,11.87494 -1.5625,9.63668 -3.3828,19.21866 -4.45311,28.93346 8.10153,5.96091 17.13664,11.45697 26.98034,13.77337 3.56639,0.0273 6.51169,-2.36718 9.4023,-4.11326 z m -62.05829,1.48436 c 7.89058,-2.99608 18.3085,-5.26169 22.0038,-13.59368 2.7617,-11.66791 4.27341,-23.62098 5.73044,-35.51936 -7.83981,-7.44918 -16.19914,-15.28508 -26.45691,-19.14053 -8.85542,-0.15625 -16.355384,6.09372 -24.218627,9.50386 -10.601511,2.89061 -14.296806,12.49994 -14.742116,22.44911 -3.124985,9.8437 0.44531,19.94521 9.374954,25.36316 7.812462,5.73044 17.839759,14.89446 28.308459,10.93744 z M 49.063328,173.3935 c -6.378875,-11.79682 -10.781198,-24.71082 -12.55072,-38.01935 -6.328095,1.27734 -0.574216,16.76945 1.17187,23.07411 2.968735,8.53902 7.5234,16.40617 12.265565,24.06238 0.859371,-3.15233 1.378899,-6.27731 -0.886715,-9.11714 z m -2.734362,-52.52318 c 2.785143,-3.98436 7.214809,-7.10934 8.906207,-11.66791 2.941392,-13.749939 7.761681,-27.031124 14.660085,-39.34747 -0.285155,-7.941367 -9.191362,-12.785094 -13.617122,-4.007793 -12.605406,16.195234 -22.49989,35.960763 -22.9452,56.820033 -1.664055,7.16012 4.585915,12.34369 8.179648,3.87889 1.58593,-1.87499 3.203109,-3.77342 4.816382,-5.67575 z m 162.471864,9.87104 c 5.33982,-7.00778 12.73431,-15.31242 10.83589,-24.82019 -3.35936,-17.992099 -12.60541,-35.077953 -26.82409,-46.79274 -4.24607,-1.796866 -11.95307,-8.359334 -14.89446,-2.164052 -4.35154,8.359334 -15.18352,16.249921 -11.27729,26.640495 3.33202,10.261669 5.78122,20.964747 10.65229,30.624847 8.98433,6.98044 19.34756,12.42182 29.78892,17.00383 z M 89.504537,126.07732 c 8.28121,-4.19138 16.328043,-8.80074 24.402223,-13.33196 2.70702,-9.50386 6.1445,-18.777257 9.32418,-28.097523 0.4414,-10.10542 -8.59371,-17.343665 -14.60931,-24.425662 -5.93747,-9.480423 -15.964764,-2.214833 -23.281135,1.249994 -16.093672,8.593708 -19.792872,27.472522 -25.288939,43.253691 0.781246,5.91013 6.199188,10.83198 10.1562,15.2343 5.445286,5.49217 11.589788,12.7851 19.296781,6.11716 z M 148.87925,75.061946 c 4.29685,-0.597653 9.0898,-0.156249 13.04681,-1.378899 5.96481,-6.378875 11.19916,-13.851495 13.67181,-22.265517 -2.99217,-8.460895 -12.89056,-12.316345 -20.85927,-15.206956 -10.12886,-2.99608 -20.98818,-4.480447 -31.50766,-3.281234 -7.57809,3.85545 -21.19912,15.078051 -13.51556,23.800664 5.62497,6.69528 11.61322,13.046812 17.73428,19.324125 7.16013,0.07812 14.29681,-0.496092 21.42959,-0.992183 z"
     id="path4"
     inkscape:connector-curvature="0" />
</svg>
