<?xml version="1.0" encoding="UTF-8" standalone="no"?>
<svg
   xmlns:dc="http://purl.org/dc/elements/1.1/"
   xmlns:cc="http://creativecommons.org/ns#"
   xmlns:rdf="http://www.w3.org/1999/02/22-rdf-syntax-ns#"
   xmlns:svg="http://www.w3.org/2000/svg"
   xmlns="http://www.w3.org/2000/svg"
   xmlns:sodipodi="http://sodipodi.sourceforge.net/DTD/sodipodi-0.dtd"
   xmlns:inkscape="http://www.inkscape.org/namespaces/inkscape"
   width="256"
   height="256"
   viewBox="0 0 204.8 204.8"
   id="svg2"
   version="1.1"
   inkscape:version="0.91 r"
   sodipodi:docname="applications-puzzles.svg">
  <metadata
     id="metadata10">
    <rdf:RDF>
      <cc:Work
         rdf:about="">
        <dc:format>image/svg+xml</dc:format>
        <dc:type
           rdf:resource="http://purl.org/dc/dcmitype/StillImage" />
        <dc:title />
      </cc:Work>
    </rdf:RDF>
  </metadata>
  <defs
     id="defs8" />
  <sodipodi:namedview
     pagecolor="#ffffff"
     bordercolor="#666666"
     borderopacity="1"
     objecttolerance="10"
     gridtolerance="10"
     guidetolerance="10"
     inkscape:pageopacity="0"
     inkscape:pageshadow="2"
     inkscape:window-width="1920"
     inkscape:window-height="1056"
     id="namedview6"
     showgrid="true"
     inkscape:zoom="1"
     inkscape:cx="231.56403"
     inkscape:cy="25.292132"
     inkscape:window-x="0"
     inkscape:window-y="24"
     inkscape:window-maximized="1"
     inkscape:current-layer="svg2">
    <inkscape:grid
       type="xygrid"
       id="grid4138" />
  </sodipodi:namedview>
  <path
     style="color:#000000;font-style:normal;font-variant:normal;font-weight:normal;font-stretch:normal;font-size:medium;line-height:normal;font-family:sans-serif;text-indent:0;text-align:start;text-decoration:none;text-decoration-line:none;text-decoration-style:solid;text-decoration-color:#000000;letter-spacing:normal;word-spacing:normal;text-transform:none;direction:ltr;block-progression:tb;writing-mode:lr-tb;baseline-shift:baseline;text-anchor:start;white-space:normal;clip-rule:nonzero;display:inline;overflow:visible;visibility:visible;opacity:1;isolation:auto;mix-blend-mode:normal;color-interpolation:sRGB;color-interpolation-filters:linearRGB;solid-color:#000000;solid-opacity:1;fill:#61c66c;fill-opacity:1;fill-rule:evenodd;stroke:none;stroke-width:0.98903728;stroke-linecap:butt;stroke-linejoin:round;stroke-miterlimit:4;stroke-dasharray:none;stroke-dashoffset:0;stroke-opacity:1;color-rendering:auto;image-rendering:auto;shape-rendering:auto;text-rendering:auto;enable-background:accumulate"
     d="m 90.625665,21.861808 c -6.79934,0.25736 -14.489815,2.35296 -19.030043,7.800519 -0.14244,0.1684 -0.26284,0.354 -0.35828,0.5528 -1.514932,3.21538 -2.045464,5.81922 -1.136276,8.10762 0.90918,2.28838 2.968388,3.31208 4.58606,3.95144 1.617644,0.63936 3.120916,1.07586 4.094668,1.64814 0.973752,0.57232 1.41758,0.9796 1.668588,2.27258 0.299039,1.540179 0.0736,2.355599 -0.2764,2.978939 -0.34992,0.62336 -0.901772,1.22294 -1.709524,1.53554 -1.257704,0.48672 -3.439544,0.48824 -3.439544,0.48824 l -40.435014,0 c -1.429828,0.0012 -2.588648,1.16006 -2.58988,2.58994 l -4e-6,40.639178 c 1.16e-4,2.89924 0.589024,4.5711 1.396272,5.816616 0.920876,1.27564 2.027372,2.75032 3.76302,3.72416 1.735648,0.97388 4.009256,1.32488 6.510547,0.83944 2.2307,-0.43432 3.99648,-1.69104 5.087648,-3.12226 1.09374,-1.43458 1.642028,-2.961076 2.098524,-4.238076 0.456496,-1.27698 0.854216,-2.3251 1.177224,-2.81514 0.31796,-0.4824 0.24896,-0.45344 0.747268,-0.49136 0.470632,-0.0288 1.694308,0.2608 3.285988,0.9418 3.491196,3.07286 5.578631,9.319176 5.793983,15.007296 0.07144,2.11642 -0.11804,4.1034 -0.47088,5.81454 l 0.0308,-0.1024 c -0.1192,0.4752 -0.10416,0.54072 -0.07168,0.3788 -0.012,0.0576 -0.0224,0.1156 -0.0308,0.174 -0.626855,4.88856 -2.643311,9.637 -5.599503,12.2126 -2.049308,0.84296 -3.336276,0.97604 -3.552112,0.89052 -0.24264,-0.096 -0.560584,-0.43562 -1.044172,-1.65834 -0.483524,-1.22264 -0.940116,-3.00566 -1.996104,-4.80102 -1.055992,-1.79536 -3.00644,-3.60266 -5.753032,-4.1357 l 0,0.01 c -3.645067,-0.712 -6.756695,0.52296 -8.537419,2.4259 -1.780724,1.90292 -2.441288,4.14318 -2.774148,5.71218 -0.0388,0.1748 -0.05944,0.35336 -0.06144,0.53232 L 32,170.21 c 0.0012,1.43788 1.172528,2.60004 2.61036,2.58992 l 40.701162,8e-5 c 2.811824,-0.006 4.588248,-0.61416 5.867867,-1.45322 0.936952,-0.61448 2.678136,-2.26636 3.65228,-4.0034 0.974136,-1.73706 1.33472,-4.0058 0.849648,-6.51068 -0.53336,-2.74752 -2.338264,-4.69766 -4.135632,-5.75312 -1.797355,-1.05548 -3.585499,-1.51238 -4.811243,-1.9962 -1.225776,-0.48384 -1.572264,-0.80198 -1.6686,-1.04416 -0.08672,-0.21808 0.0264,-1.49472 0.900824,-3.59316 3.079408,-3.46784 9.317179,-5.55634 15.007023,-5.75312 l 0.0208,0 c 2.09256,-0.0894 4.06792,0.1054 5.773516,0.46072 0.10472,0.02 0.21088,0.0336 0.31744,0.0408 0.048,0.012 0.0952,0.0224 0.14336,0.0304 4.910555,0.6272 9.680745,2.65306 12.253345,5.58936 0.84425,2.04154 0.98536,3.31894 0.90083,3.53172 -0.095,0.23936 -0.45136,0.55896 -1.67882,1.04416 -1.22754,0.4852 -3.01306,0.94964 -4.81126,2.00642 -1.79818,1.0568 -3.6021,3.0048 -4.135631,5.75314 -0.4856,2.50118 -0.12448,4.77512 0.849661,6.51068 0.97404,1.73554 2.30012,3.15984 3.68953,3.88404 1.75324,1.07092 3.17873,1.25518 5.85109,1.23464 l 40.86227,0.0208 c 1.42984,-0.001 2.58864,-1.18044 2.58989,-2.6103 l 0,-41.8894 c -0.001,-1.62356 0.2128,-2.35724 0.92419,-3.112 0.74192,-0.78704 1.48839,-1.29982 3.72617,-0.8599 l 0.0104,0.01 c 1.30064,0.24864 1.71137,0.6908 2.28279,1.6584 0.57136,0.96752 1.00855,2.45936 1.64811,4.07428 0.63959,1.6149 1.66431,3.67748 3.95137,4.58612 2.28705,0.90866 4.88687,0.38288 8.10747,-1.12604 0.20232,-0.0946 0.3916,-0.2152 0.56304,-0.3584 4.58736,-3.82232 6.7733,-9.92704 7.54446,-15.79554 0.014,-0.112 0.0216,-0.22488 0.0208,-0.33784 0,0.354 0.0208,0.1898 0.0208,-0.25592 l -0.0616,0.55272 c 0.4688,-2.14248 0.68016,-4.52678 0.59376,-7.05322 l 0,-0.01 c -0.2576,-6.80412 -2.37718,-14.491756 -7.80038,-19.030396 -0.1716,-0.1432 -0.36072,-0.2636 -0.56304,-0.3584 -3.2206,-1.50896 -5.82016,-2.03536 -8.10746,-1.12606 -2.2873,0.9093 -3.31186,2.96992 -3.95137,4.58612 -0.63944,1.61622 -1.07566,3.11332 -1.64811,4.08454 -0.5724,0.9712 -0.98183,1.41674 -2.28278,1.668596 -1.5472,0.29584 -2.36344,0.0648 -2.98912,-0.286636 -0.62584,-0.35144 -1.09904,-0.9646 -1.53552,-1.70956 -0.45471,-0.776 -0.45527,-3.41912 -0.45527,-3.41912 l 0.002,-40.895098 c -0.002,-1.42904 -1.16099,-2.58788 -2.59083,-2.58912 l -42.44895,0 c -1.08598,-0.002 -2.30822,-0.2952 -3.03017,-1.00042 -0.75144,-0.734 -1.2439,-1.49238 -0.81893,-3.685279 0.25192,-1.30048 0.69752,-1.71082 1.6686,-2.28282 0.97108,-0.572 2.46871,-1.0104 4.08442,-1.64814 1.61575,-0.63776 3.675,-1.65518 4.58606,-3.9412 0.91105,-2.28604 0.38344,-4.88196 -1.12604,-8.09738 -0.0946,-0.20232 -0.21512,-0.3916 -0.3584,-0.56304 -3.80804,-4.540699 -9.85188,-6.715199 -15.682639,-7.483179 -0.09864,-0.0264 -0.27616,-0.0432 -0.45048,-0.0616 -2.077408,-0.43104 -4.352156,-0.65616 -6.797172,-0.57328 l -0.0104,0 z"
     id="path4"
     inkscape:connector-curvature="0"
     sodipodi:nodetypes="cccssscsscccccscsscccccccccsssccscccccsscssccccccccscssscccccsccsssccccccccccssscssccccscsssccccccc" />
</svg>
