<?xml version="1.0" encoding="UTF-8" standalone="no"?>
<svg
   xmlns:dc="http://purl.org/dc/elements/1.1/"
   xmlns:cc="http://creativecommons.org/ns#"
   xmlns:rdf="http://www.w3.org/1999/02/22-rdf-syntax-ns#"
   xmlns:svg="http://www.w3.org/2000/svg"
   xmlns="http://www.w3.org/2000/svg"
   xmlns:sodipodi="http://sodipodi.sourceforge.net/DTD/sodipodi-0.dtd"
   xmlns:inkscape="http://www.inkscape.org/namespaces/inkscape"
   width="256"
   height="256"
   viewBox="0 0 256 256"
   id="svg2"
   version="1.1"
   inkscape:version="0.91 r"
   sodipodi:docname="applications-ocaml.svg">
  <metadata
     id="metadata10">
    <rdf:RDF>
      <cc:Work
         rdf:about="">
        <dc:format>image/svg+xml</dc:format>
        <dc:type
           rdf:resource="http://purl.org/dc/dcmitype/StillImage" />
        <dc:title />
      </cc:Work>
    </rdf:RDF>
  </metadata>
  <defs
     id="defs8" />
  <sodipodi:namedview
     pagecolor="#ffffff"
     bordercolor="#666666"
     borderopacity="1"
     objecttolerance="10"
     gridtolerance="10"
     guidetolerance="10"
     inkscape:pageopacity="0"
     inkscape:pageshadow="2"
     inkscape:window-width="1680"
     inkscape:window-height="1026"
     id="namedview6"
     showgrid="false"
     inkscape:zoom="7.375"
     inkscape:cx="16"
     inkscape:cy="16"
     inkscape:window-x="0"
     inkscape:window-y="24"
     inkscape:window-maximized="1"
     inkscape:current-layer="svg2" />
  <path
     style="fill:#d56f7f;fill-rule:evenodd"
     d="m 98.24464,210.5028 c 6.34387,-0.68752 -1.12502,-6.03136 -3.25006,-7.09388 -4.062572,-2.03128 -7.343892,-4.34384 -9.906436,-8.18764 -4.031324,-6.15636 -6.031364,-14.28152 -7.750148,-21.34416 -1.156268,-4.8126 -2.062536,-7.59388 0.968772,-11.65648 3.031304,-4.03132 -2.12504,-7.34388 1.062516,-11.6252 5.3751,-7.1564 7.6564,-16.65658 12.968996,-23.71922 1.500028,-2.00004 0.968772,-3.87506 3.12506,-4.09382 1.031268,-0.0938 3.718824,1.96878 4.62509,2.56254 2.62505,1.7813 5.84386,2.62506 8.40641,4.34384 1.31252,0.84378 3.78132,0.21872 4.84384,1.06252 3.09381,2.4063 2.37505,9.9377 2.06254,13.81278 -0.46873,5.46884 -4.87509,7.1876 -4.87509,12.5002 0,6.37516 1.34377,10.71896 -0.65625,17.25036 -1.12502,3.75004 -4.03133,8.0314 -4.50009,11.84396 -0.37496,3.03132 0.18752,2.93756 1.06253,5.8126 1.06251,3.40632 1.31252,6.46888 4.53133,8.00016 1.84379,0.84376 9.31268,1.21876 10.34395,-0.87504 2.06254,-4.0938 -5.78136,-5.46884 -7.09389,-7.96888 -2.87505,-5.37512 3.87508,-19.2816 6.43762,-23.93796 1.43753,-2.53128 4.18759,-4.5626 5.1876,-7.12512 1.37503,-3.43756 -1.40627,-5.78136 -0.96877,-8.40644 0.87502,-5.12508 3.03131,-10.56268 4.65635,-15.53152 3.78132,-11.46896 9.00017,5.96886 11.18771,10.3752 0.87501,1.71876 1.50003,3.62508 2.37504,5.37508 1.03127,2.0938 -1.25002,3.90636 -0.62505,6.46888 0.56249,2.43756 3.37506,3.78132 4.93759,5.59388 2.37505,2.81252 4.03133,6.3126 5.28135,9.71892 2.6563,7.12512 3.59382,19.50036 8.53142,25.21924 0.68753,0.81252 2.68754,0.3748 3.43756,1.09376 1.71878,1.65628 -0.43753,3.50008 2.9063,4.62508 2.5938,0.87504 9.09392,1.81252 11.53147,0.3124 4.6876,-2.8438 -1.15627,-6.3126 -4.09382,-9.28144 -4.09384,-4.06256 -8.87517,-7.81264 -12.06273,-12.68772 -4.21883,-6.40636 -5.1251,-13.62524 -5.93762,-21.03164 -0.40624,-3.56256 3.46882,-5.34384 0.12504,-9.59392 -1.06251,-1.37504 -4.31257,-1.18756 -4.31257,-2.5938 0,-4.4376 -0.12504,-8.90644 0,-13.34402 0.15624,-5.40634 0.12504,-14.28152 5.28135,-17.68782 6.84388,-4.59384 15.53154,-5.78138 22.09417,-10.68772 6.50012,-4.87508 12.46898,-9.312658 16.3753,-17.125318 2.06254,-4.09382 3.12507,-8.0939 4.75011,-12.28148 1.1875,-3.093803 0.875,-2.062543 2.7813,-3.906323 1.15626,-1.06252 2.8438,-1.81254 4.12506,-3.00006 3.31258,-3.18756 3.90634,-6.31262 9.46894,-4.96884 2.21878,0.53128 5.8751,4.68758 7.12514,2.15628 0.8125,-1.62502 0.31248,-3.0938 -0.125,-4.75008 -0.62506,-2.43754 2.37504,-3.25006 2.28128,-5.59386 -0.125,-4.031321 -6.65636,-8.281401 -10.03144,-8.968921 -4.25006,-0.84376 -8.93766,1.00002 -13.50024,0.125 -3.62508,-0.71874 -6.81264,-2.68756 -10.31271,-3.56258 -3.68756,-0.9375 -7.00013,-1.25002 -10.12519,0.96878 -1.43752,1.03126 -2.00004,2.8438 -3.25006,3.87508 -1.06252,0.875 -2.00004,0.62504 -3.21881,1.53126 -3.71882,2.65632 -4.00007,6.562641 2.37504,5.37512 -2.68755,11.062701 -15.68779,40.844524 -30.18807,25.437984 -6.78138,-7.187643 -13.00025,-15.156543 -19.40661,-22.625443 -5.65637,-6.593861 -8.93768,-14.000261 -18.53161,-12.718981 -9.50018,1.25002 -15.96905,7.75014 -23.312942,13.156501 -6.000112,4.40634 -13.062752,5.3751 -19.406617,9.06268 -6.750124,3.87506 -12.75024,10.406443 -15.062784,17.875323 -3.375064,10.8127 -1.437524,21.219158 -7.375141,31.500598 -3.562564,6.21888 -8.625164,10.5627 -13.125248,15.71906 -2.437542,2.7813 -4.062574,6.59386 -3.250062,10.34394 0.562514,2.56256 2.375044,3.03128 2.375044,6.03136 0,5.21884 -0.250004,10.40644 -0.03128,15.65656 0.218756,4.65632 0.593764,9.21892 1.218776,13.81276 0.593754,4.00004 2.062534,5.12508 3.343806,8.06264 1.937542,4.34384 1.62504,6.25012 6.25012,7.96888 2.625056,0.9688 7.125141,2.90632 9.937693,2.81256 4.031316,-0.1876 4.593832,-3.53128 1.500024,-7.12512 -2.00004,-2.3438 -5.71886,-3.0938 -7.968905,-5.62512 -6.531372,-7.31264 -9.34392,-29.31304 -3.875072,-37.0632 2.25004,-3.25004 5.156345,-3.28128 5.375101,-8.18764 0.18752,-4.40632 -1.593773,-5.9376 2.375044,-9.90642 12.656488,-6.46888 14.000264,-11.09396 18.094092,-8.87518 5.000096,2.7188 1.093776,17.93784 0,22.21916 -1.906284,7.6564 -9.50018,11.2502 -4.531332,18.96912 3.562564,5.53136 5.2501,11.2502 7.656392,17.68784 2.187536,5.8126 2.031288,14.12528 5.500105,18.96912 0.687508,0.93748 1.750032,1.46876 2.375044,2.37504 0.468764,0.65624 1.156272,2.62504 1.500032,3.03128 1.46878,1.68756 1.78128,2.12504 4.125076,3.00008 4.156328,1.59376 9.281424,1.06252 13.781508,1.06252"
     id="path4"
     inkscape:connector-curvature="0" />
</svg>
