<?xml version="1.0" encoding="UTF-8" standalone="no"?>
<svg
   xmlns:dc="http://purl.org/dc/elements/1.1/"
   xmlns:cc="http://creativecommons.org/ns#"
   xmlns:rdf="http://www.w3.org/1999/02/22-rdf-syntax-ns#"
   xmlns:svg="http://www.w3.org/2000/svg"
   xmlns="http://www.w3.org/2000/svg"
   xmlns:sodipodi="http://sodipodi.sourceforge.net/DTD/sodipodi-0.dtd"
   xmlns:inkscape="http://www.inkscape.org/namespaces/inkscape"
   width="256"
   height="256"
   viewBox="0 0 256 256"
   id="svg2"
   version="1.1"
   inkscape:version="0.91 r"
   sodipodi:docname="gnome-applications.svg">
  <metadata
     id="metadata20">
    <rdf:RDF>
      <cc:Work
         rdf:about="">
        <dc:format>image/svg+xml</dc:format>
        <dc:type
           rdf:resource="http://purl.org/dc/dcmitype/StillImage" />
      </cc:Work>
    </rdf:RDF>
  </metadata>
  <defs
     id="defs18" />
  <sodipodi:namedview
     pagecolor="#ffffff"
     bordercolor="#666666"
     borderopacity="1"
     objecttolerance="10"
     gridtolerance="10"
     guidetolerance="10"
     inkscape:pageopacity="0"
     inkscape:pageshadow="2"
     inkscape:window-width="961"
     inkscape:window-height="480"
     id="namedview16"
     showgrid="false"
     inkscape:zoom="0.921875"
     inkscape:cx="128"
     inkscape:cy="128"
     inkscape:window-x="10"
     inkscape:window-y="34"
     inkscape:window-maximized="0"
     inkscape:current-layer="svg2" />
  <g
     style="fill:#6f8bc0"
     id="g4"
     transform="translate(1.3366529,1.3339845)">
    <path
       d="m 190.70312,27.707031 c -41.51171,0 -49.29687,58.648438 -25.9375,58.648438 23.33204,0 67.42188,-58.648438 25.9375,-58.648438 z"
       id="path6"
       inkscape:connector-curvature="0" />
    <path
       d="m 121.79688,79.089844 c 12.42187,0.753906 26.0664,-47.058594 2.70703,-44.0625 -23.35938,3.019531 -15.15625,43.304687 -2.70703,44.0625 z"
       id="path8"
       inkscape:connector-curvature="0" />
    <path
       d="M 64.816406,108.80078 C 73.671875,104.94922 65.964844,67.160156 50.9375,77.472656 35.910156,87.761719 55.988281,112.65625 64.816406,108.80078 Z"
       id="path10"
       inkscape:connector-curvature="0" />
    <path
       d="M 89.738281,89.035156 C 100.26172,86.902344 100.83203,44.0625 82.082031,51.746094 63.308594,59.453125 79.21875,91.171875 89.738281,89.035156 Z"
       id="path12"
       inkscape:connector-curvature="0" />
    <path
       d="m 144.6875,184.87109 c 1.875,14.16407 -10.46875,21.14453 -22.52734,12.03125 -38.437504,-29.03906 63.64843,-43.51562 56.90234,-83.20312 -5.57422,-32.91797 -107.394531,-22.789064 -118.984375,28.75 -7.863281,34.84375 32.292969,83.17578 74.191405,83.17578 20.625,0 44.40234,-18.46484 48.82813,-41.84766 3.41406,-17.83984 -39.97266,-10.70312 -38.41016,1.09375 z"
       id="path14"
       inkscape:connector-curvature="0" />
  </g>
</svg>
