<svg xmlns="http://www.w3.org/2000/svg" viewBox="0 0 16 16">
 <g transform="translate(0,-1036.3622)">
  <rect width="12" height="9" x="2" transform="translate(0,1036.3622)" rx="1" style="fill:#1976d2;fill-opacity:1;stroke:none"/>
  <g transform="matrix(0.5,0,0,0.5,-4,533.68111)" style="fill:#fff1ed;opacity:0.6;fill-opacity:1">
   <rect y="1013.36" x="20" height="22" width="8" rx="0" style="stroke:none"/>
   <path d="m 22 1013.36 -6 0 8 -6 8 6 -6 0 -2 2 z" style="stroke:none"/>
  </g>
  <path d="m 16 1042.36 0 10 -16 0 0 -9 7 0 1 -2 7 0 c 0.5 0 1 0.5 1 1 z" style="fill:#42a5f5;fill-opacity:1;stroke:none"/>
  <path d="m 0 1051.36 0 1 16 0 0 -1 z" style="fill:#000;opacity:0.15;fill-opacity:1;stroke:none"/>
  <path d="M 8,5 7,7 0,7 0,8 8,8 9,6 15,6 c 0.5,0 1,0.5 1,1 L 16,6 C 16,5.5 15.5,5 15,5 z" transform="translate(0,1036.3622)" style="fill:#000;opacity:0.03;fill-opacity:1;stroke:none"/>
  <path d="M 3 0 C 2.446 0 2 0.446 2 1 L 2 2 C 2 1.446 2.446 1 3 1 L 13 1 C 13.554 1 14 1.446 14 2 L 14 1 C 14 0.446 13.554 0 13 0 L 3 0 z " transform="translate(0,1036.3622)" style="fill:#000;opacity:0.03;fill-opacity:1;stroke:none"/>
 </g>
</svg>
