<svg height="16" version="1.1" viewBox="0 0 4.516 4.516" width="16" xmlns="http://www.w3.org/2000/svg">
 <path d="m.847.141 0 .339-.423 0c-.085 0-.141.071-.141.141l-0 3.754c-0 .071.071.141.141.141l3.669 0c.071 0 .141-.071.141-.141L4.233.621C4.233.55 4.163.48 4.092.48l-.423 0 0-.339C3.669-0 3.669-0 3.528-0l-.367 0c-.141 0-.141 0-.141.141l0 .282-1.524 0 0-.282c0-.141 0-.141-.141-.141l-.367 0c-.141 0-.141 0-.141.141zm.188.047.273 0 0 .566c0 .234-.273.234-.273 0zm2.173-0 .273 0 0 .566c0 .234-.273.234-.273 0zM.564 1.411l3.387 0 0 2.822-3.387-0z" fill="#cacaca"/>
 <g transform="matrix(.2822 0 0 .2822 -9.498 -11.142)"/>
 <g fill="#3798d6" transform="scale(1.1417 .8759)">
  <path d="m1.396 3.548q0-.127.013-.252.014-.125.049-.24.036-.116.096-.215.061-.099.154-.171.094-.074.224-.115.131-.042.306-.042.025 0 .055.001.03.001.06.004.031.001.06.005.029.004.052.008l0 .298q-.046-.011-.098-.017-.051-.007-.102-.007-.163 0-.268.041Q1.896 2.886 1.834 2.958 1.773 3.03 1.746 3.132 1.721 3.233 1.715 3.356l.014 0q.024-.043.058-.081.035-.039.081-.065.046-.028.102-.043.058-.016.129-.016.115 0 .206.037.092.037.154.109.064.071.098.175.034.104.034.238 0 .143-.041.257-.04.113-.115.193-.075.078-.181.121-.106.041-.239.041-.13 0-.244-.046Q1.659 4.228 1.575 4.133 1.492 4.037 1.443 3.893 1.396 3.747 1.396 3.548Zm.613.475q.049 0 .089-.018.041-.019.07-.057.03-.039.046-.096.017-.058.017-.137 0-.129-.054-.203-.053-.075-.163-.075-.055 0-.101.022-.046.022-.078.057-.033.035-.051.078-.017.043-.017.088 0 .061.014.123.016.06.046.11.031.048.076.078.046.03.106.03z" fill="#3798d6"/>
 </g>
</svg>
