<svg height="16" version="1.1" viewBox="0 0 4.516 4.516" width="16" xmlns="http://www.w3.org/2000/svg">
 <path d="m.847.141 0 .339-.423 0c-.085 0-.141.071-.141.141l-0 3.754c-0 .071.071.141.141.141l3.669 0c.071 0 .141-.071.141-.141L4.233.621C4.233.55 4.163.48 4.092.48l-.423 0 0-.339C3.669-0 3.669-0 3.528-0l-.367 0c-.141 0-.141 0-.141.141l0 .282-1.524 0 0-.282c0-.141 0-.141-.141-.141l-.367 0c-.141 0-.141 0-.141.141zm.188.047.273 0 0 .566c0 .234-.273.234-.273 0zm2.173-0 .273 0 0 .566c0 .234-.273.234-.273 0zM.564 1.411l3.387 0 0 2.822-3.387-0z" fill="#cacaca"/>
 <g transform="matrix(.2822 0 0 .2822 -9.498 -11.142)"/>
 <g fill="#3798d6" transform="scale(1.1417 .8759)">
  <path d="m1.624 4.297-.373 0 0-1.02q0-.031 0-.075.001-.045.002-.092.002-.048.004-.096.002-.048.004-.088-.006.007-.02.022-.014.014-.033.033-.018.017-.037.035-.019.018-.037.033L.931 3.21.75 2.986 1.318 2.534l.306 0 0 1.763z" fill="#3798d6"/>
  <path d="m3.255 3.415q0 .213-.034.381-.033.168-.106.285-.072.117-.188.178-.115.061-.277.061-.153 0-.266-.061Q2.27 4.198 2.195 4.081 2.12 3.964 2.083 3.796 2.047 3.629 2.047 3.415q0-.213.033-.382.034-.169.106-.286.072-.117.187-.178.115-.063.277-.063.152 0 .265.061.113.061.189.178.076.117.113.286.037.169.037.383zm-.837 0q0 .301.052.453.052.152.18.152.125 0 .18-.151.055-.151.055-.455 0-.303-.055-.455-.054-.153-.18-.153-.064 0-.109.039-.043.039-.071.115-.028.076-.04.191-.012.113-.012.264z" fill="#3798d6"/>
 </g>
</svg>
