<svg xmlns="http://www.w3.org/2000/svg" viewBox="0 0 16 16">
 <rect x="2" width="12" rx="1" style="fill:#ef6c00;fill-opacity:1;stroke:none" height="9"/>
 <path d="m 8 0.998 l -4 3 l 2 0 l 0 11 l 4 0 l 0 -11 l 2 0 l -4 -3 z" style="fill:#fff1ed;opacity:0.6;fill-opacity:1;stroke:none"/>
 <path d="m 16 5.998 0 10 -16 0 0 -9 7 0 1 -2 7 0 c 0.5 0 1 0.5 1 1 z" style="fill:#ffa726;fill-opacity:1;stroke:none"/>
 <path d="m 0 14.998 0 1 16 0 0 -1 z" style="fill:#000;opacity:0.15;fill-opacity:1;stroke:none"/>
 <path d="M 8,5 7,7 0,7 0,8 8,8 9,6 15,6 c 0.5,0 1,0.5 1,1 L 16,6 C 16,5.5 15.5,5 15,5 Z" style="fill:#000;opacity:0.03;fill-opacity:1;stroke:none"/>
 <path d="M 3,0 C 2.446,0 2,0.446 2,1 L 2,2 C 2,1.446 2.446,1 3,1 l 10,0 c 0.554,0 1,0.446 1,1 L 14,1 C 14,0.446 13.554,0 13,0 L 3,0 Z" style="fill:#000;opacity:0.03;fill-opacity:1;stroke:none"/>
</svg>
