<svg viewBox="0 0 16 16" xmlns="http://www.w3.org/2000/svg">
 <g transform="translate(0 -1036.362)">
  <path d="m6.741 1036.36c-.444 0-.815.353-.815.796l0 1.037c-.281.095-.553.204-.815.333l-.722-.722c-.314-.314-.816-.314-1.13 0l-1.815 1.796c-.314.314-.314.816 0 1.13l.722.722c-.133.267-.237.547-.333.833l-1.019 0c-.444 0-.815.353-.815.796l0 2.556c0 .444.371.796.815.796l1.019 0c.096.286.2.567.333.833l-.722.722c-.314.314-.314.816 0 1.13l1.815 1.796c.314.314.816.314 1.13 0l.722-.722c.262.13.534.239.815.333l0 1.037c0 .444.371.796.815.796l2.537 0c.444 0 .796-.353.796-.796l0-1.037c.286-.096.567-.2.833-.333l.722.722c.314.314.816.314 1.13 0l1.815-1.796c.314-.314.314-.816 0-1.13l-.741-.741c.13-.262.239-.534.333-.815l1.037 0c.444 0 .796-.353.796-.796l0-2.556c0-.444-.353-.796-.796-.796l-1.037 0c-.094-.281-.204-.553-.333-.815l.741-.741c.314-.314.314-.816 0-1.13l-1.815-1.796c-.314-.314-.816-.314-1.13 0l-.722.722c-.267-.133-.548-.237-.833-.333l0-1.037c0-.444-.353-.796-.796-.796l-2.537 0zm1.259 5.926c1.145 0 2.074.929 2.074 2.074 0 1.145-.929 2.074-2.074 2.074-1.145 0-2.074-.929-2.074-2.074 0-1.145.929-2.074 2.074-2.074z" display="block" fill="#f2bb64"/>
 </g>
</svg>
