<svg height="16" version="1.1" width="16" xmlns="http://www.w3.org/2000/svg">
 <g transform="translate(0 -1036.362)">
  <path d="M12.5 1.313C10.575 1.313 9 2.827 9 4.688 9 5.312 9.19 5.902 9.5 6.406L9.5 10.063C9.119 10.139 8.766 10.307 8.469 10.531L5 9.031C5 7.705 3.875 6.625 2.5 6.625 1.128 6.625-0 7.704 0 9.031 0 10.36 1.127 11.469 2.5 11.469 3.057 11.469 3.583 11.27 4 10.969L7.5 12.5C7.536 13.799 8.65 14.844 10 14.844 11.375 14.844 12.5 13.767 12.5 12.438 12.5 11.884 12.297 11.378 11.969 10.969L12 10.969 13.844 7.813C13.857 7.807 13.862 7.787 13.875 7.781 15.109 7.256 16 6.069 16 4.688 16 2.829 14.423 1.313 12.5 1.313zM12.5 2.438C13.793 2.438 14.813 3.438 14.813 4.688 14.813 5.94 13.793 6.938 12.5 6.938 11.205 6.938 10.188 5.94 10.188 4.688 10.188 3.438 11.205 2.438 12.5 2.438zM12.5 3.25C11.673 3.25 11 3.884 11 4.688 11 5.487 11.673 6.125 12.5 6.125 13.33 6.125 14 5.488 14 4.688 14 3.885 13.33 3.25 12.5 3.25zM2.5 7.594C3.321 7.594 3.789 7.914 3.938 8.563L3.063 8.188C2.495 7.954 1.834 8.199 1.594 8.75 1.353 9.298 1.62 9.926 2.188 10.156L2.844 10.469C2.734 10.484 2.625 10.5 2.5 10.5 1.5 10.5 1 10 1 9.031 1 8.065 1.5 7.594 2.5 7.594zM10 10.813C10.926 10.813 11.656 11.543 11.656 12.438 11.656 13.332 10.926 14.031 10 14.031 9.248 14.031 8.614 13.564 8.406 12.906L9.594 13.406C10.161 13.639 10.822 13.363 11.063 12.813 11.303 12.264 11.036 11.637 10.469 11.406L9.375 10.938C9.567 10.864 9.78 10.813 10 10.813z" fill="#f06292" transform="translate(0 1036.362)"/>
 </g>
</svg>
