<svg height="16" version="1.1" viewBox="0 0 16 16" width="16" xmlns="http://www.w3.org/2000/svg" xmlns:xlink="http://www.w3.org/1999/xlink">
 <radialGradient id="radialGradient3800" cx="8" cy="14.313" gradientTransform="matrix(1 0 0 .1641 0 11.964)" gradientUnits="userSpaceOnUse" r="8">
  <stop offset="0"/>
  <stop offset="1" stop-opacity="0"/>
 </radialGradient>
 <path d="m16 14.313a8 1.313 0 1 1 -16 0 8 1.313 0 1 1 16 0z" fill="url(#radialGradient3800)" opacity=".35" transform="matrix(1 0 0 1.1428 0 -1.856)"/>
 <path d="M6.795 0C6.251 0 6 .5 6 1l0 1 0 1 1 0 0-1 0-.5c0-.516.055-.5 1-.5l1 0c1 0 1 0 1 .5l0 .5L10 3 11 3 11 2 11 1C11 .5 10.772 0 10.205 0z" fill="#f07a64"/>
 <rect fill="#f07a64" height="12" rx="1" width="10" x="3" y="3"/>
 <path d="M0 5C0 3 2 2 3 2l10 0c1 0 3 1 3 3z" fill="#ff8e78"/>
 <rect fill="#b64f46" height="6" rx=".5" width="2" x="4" y="7"/>
 <rect height="4" opacity=".1" width="10" x="3" y="5"/>
 <rect fill="#b64f46" height="6" rx=".5" width="2" x="7" y="7"/>
 <rect fill="#b64f46" height="6" rx=".5" width="2" x="10" y="7"/>
</svg>
