<svg width="22" xmlns="http://www.w3.org/2000/svg" height="22" viewBox="0 0 22 22" xmlns:xlink="http://www.w3.org/1999/xlink">
<defs>
<linearGradient gradientTransform="matrix(.22829 0 0 .22829 -6.84187 .46355)" id="linear0" y1="14" x1="102" y2="24" gradientUnits="userSpaceOnUse" x2="92">
<stop offset="0" style="stop-color:#6ba933"/>
<stop offset="1" style="stop-color:#c7e0b0"/>
</linearGradient>
<linearGradient gradientTransform="matrix(.15805 0 0 .15805 .88507 -46.05506)" id="linear1" y1="413" y2="419" gradientUnits="userSpaceOnUse" x2="0">
<stop offset="0" style="stop-color:#f9f9f9"/>
<stop offset=".5" style="stop-color:#e8e8e8"/>
<stop offset="1" style="stop-color:#d8d8d8"/>
</linearGradient>
</defs>
<path style="fill:#6ba933" d="M 3.730469 20.167969 L 15.425781 20.167969 C 18.269531 20.167969 18.269531 17.320312 18.269531 17.320312 L 18.269531 5.941406 C 18.269531 5.941406 14.160156 1.832031 14.160156 1.832031 L 6.574219 1.832031 C 6.574219 1.832031 3.730469 1.832031 3.730469 4.679688 Z "/>
<path style="fill:url(#linear0)" d="M 14.160156 1.832031 L 14.160156 5.941406 L 18.269531 5.941406 Z "/>
<g style="fill-opacity:.149;fill:#ededec">
<path d="M 4.695312 2.175781 L 5.183594 2.175781 L 5.183594 20.109375 L 4.695312 20.109375 Z "/>
<path d="M 7.121094 1.890625 L 7.609375 1.890625 L 7.609375 20.167969 L 7.121094 20.167969 Z "/>
<path d="M 9.546875 1.890625 L 10.03125 1.890625 L 10.03125 20.167969 L 9.546875 20.167969 Z "/>
<path d="M 11.96875 1.890625 L 12.453125 1.890625 L 12.453125 20.167969 L 11.96875 20.167969 Z "/>
<path d="M 14.382812 5.9375 L 14.878906 5.9375 L 14.878906 20.167969 L 14.382812 20.167969 Z "/>
<path d="M 16.75 5.945312 L 17.238281 5.945312 L 17.238281 19.96875 L 16.75 19.96875 Z "/>
<path d="M 3.730469 5.9375 L 18.269531 5.9375 L 18.269531 6.460938 L 3.730469 6.460938 Z "/>
<path d="M 3.730469 8.289062 L 18.269531 8.289062 L 18.269531 8.746094 L 3.730469 8.746094 Z "/>
<path d="M 3.730469 10.570312 L 18.269531 10.570312 L 18.269531 11.027344 L 3.730469 11.027344 Z "/>
<path d="M 3.730469 12.855469 L 18.269531 12.855469 L 18.269531 13.3125 L 3.730469 13.3125 Z "/>
<path d="M 3.730469 15.140625 L 18.269531 15.140625 L 18.269531 15.597656 L 3.730469 15.597656 Z "/>
<path d="M 3.730469 17.425781 L 18.269531 17.425781 L 18.269531 17.882812 L 3.730469 17.882812 Z "/>
<path d="M 3.730469 3.71875 L 14.144531 3.71875 L 14.144531 4.175781 L 3.730469 4.175781 Z "/>
</g>
<path style="fill:url(#linear1)" d="M 3.730469 20.167969 L 15.425781 20.167969 C 18.269531 20.167969 18.269531 17.320312 18.269531 17.320312 C 18.269531 17.320312 18.269531 14.792969 18.269531 14.792969 C 18.269531 14.792969 18.269531 19.21875 15.425781 19.21875 L 6.574219 19.21875 C 6.574219 19.21875 3.730469 19.21875 3.730469 20.167969 Z "/>
<path style="fill:#f9f9f9" d="M 6.417969 6.875 L 6.417969 15.125 L 15.582031 15.125 L 15.582031 6.875 Z M 7.335938 7.84375 L 11.933594 7.84375 L 11.933594 10.273438 L 7.335938 10.273438 Z M 12.851562 7.84375 L 14.691406 7.84375 L 14.691406 10.273438 L 12.851562 10.273438 Z M 7.335938 10.757812 L 11.933594 10.757812 L 11.933594 13.183594 L 7.335938 13.183594 Z M 12.851562 10.757812 L 14.691406 10.757812 L 14.691406 13.183594 L 12.851562 13.183594 Z M 7.335938 13.667969 L 11.933594 13.667969 L 11.933594 14.15625 L 7.335938 14.15625 Z M 12.851562 13.667969 L 14.691406 13.667969 L 14.691406 14.15625 L 12.851562 14.15625 Z "/>
</svg>
