<?xml version="1.0" encoding="UTF-8" standalone="no"?>
<svg
   xmlns:dc="http://purl.org/dc/elements/1.1/"
   xmlns:cc="http://creativecommons.org/ns#"
   xmlns:rdf="http://www.w3.org/1999/02/22-rdf-syntax-ns#"
   xmlns:svg="http://www.w3.org/2000/svg"
   xmlns="http://www.w3.org/2000/svg"
   xmlns:sodipodi="http://sodipodi.sourceforge.net/DTD/sodipodi-0.dtd"
   xmlns:inkscape="http://www.inkscape.org/namespaces/inkscape"
   width="22"
   height="22"
   viewBox="0 0 22 22"
   id="svg2"
   version="1.1"
   inkscape:version="0.48.5 r10040"
   sodipodi:docname="application-database.svg">
  <metadata
     id="metadata22">
    <rdf:RDF>
      <cc:Work
         rdf:about="">
        <dc:format>image/svg+xml</dc:format>
        <dc:type
           rdf:resource="http://purl.org/dc/dcmitype/StillImage" />
      </cc:Work>
    </rdf:RDF>
  </metadata>
  <defs
     id="defs20" />
  <sodipodi:namedview
     pagecolor="#ffffff"
     bordercolor="#666666"
     borderopacity="1"
     objecttolerance="10"
     gridtolerance="10"
     guidetolerance="10"
     inkscape:pageopacity="0"
     inkscape:pageshadow="2"
     inkscape:window-width="1280"
     inkscape:window-height="970"
     id="namedview18"
     showgrid="true"
     inkscape:zoom="42.909091"
     inkscape:cx="11.992312"
     inkscape:cy="11.697611"
     inkscape:window-x="0"
     inkscape:window-y="0"
     inkscape:window-maximized="1"
     inkscape:current-layer="svg2">
    <inkscape:grid
       type="xygrid"
       id="grid3010" />
  </sodipodi:namedview>
  <path
     style="fill:#a33639;fill-opacity:1"
     d="m 4,-4e-7 c -0.472657,0 -1,0.527344 -1,0.99999996 L 3,21 c 0,0.445312 0.554687,1 1,1 l 14,0 c 0.445313,0 0.992367,-0.554753 1,-1 l 0,-15.0000004 -6,-6 z"
     id="path4-2"
     inkscape:connector-curvature="0"
     sodipodi:nodetypes="ssssssccs" />
  <path
     style="fill:#000000;fill-opacity:0.19599998"
     d="M 14,5.9999996 19,11 19,5.9999996 z"
     id="path6"
     inkscape:connector-curvature="0"
     sodipodi:nodetypes="cccc" />
  <path
     style="fill:#ffffff;fill-opacity:0.39200003"
     d="m 13,-4e-7 6,6 -5,0 c -0.445312,0 -1,-0.554688 -1,-1 z"
     id="path8"
     inkscape:connector-curvature="0"
     sodipodi:nodetypes="ccssc" />
  <g
     style="fill:#ffffff"
     id="g10"
     transform="matrix(1.0905218,0,0,1.0905218,-0.99573933,-1.0786586)">
    <path
       d="m 11,8.25 c -2.023438,0 -3.667969,0.511719 -3.667969,1.144531 l 0,0.917969 c 0,0.632812 1.644531,1.144531 3.667969,1.144531 2.023438,0 3.667969,-0.511719 3.667969,-1.144531 l 0,-0.917969 C 14.667969,8.761719 13.023438,8.25 11,8.25 z"
       id="path12"
       inkscape:connector-curvature="0" />
    <path
       d="m 10.988281,11.917969 c -1.640625,0 -3.027343,-0.339844 -3.492187,-0.804688 -0.109375,0.109375 -0.164063,0.226563 -0.164063,0.34375 l 0,0.917969 c 0,0.632812 1.644531,1.144531 3.667969,1.144531 2.023438,0 3.667969,-0.511719 3.667969,-1.144531 l 0,-0.917969 c 0,-0.117187 -0.06641,-0.234375 -0.175781,-0.34375 -0.464844,0.464844 -1.863282,0.804688 -3.503907,0.804688 z"
       id="path14"
       inkscape:connector-curvature="0" />
    <path
       d="m 10.988281,13.980469 c -1.640625,0 -3.027343,-0.339844 -3.492187,-0.804688 -0.109375,0.109375 -0.164063,0.226563 -0.164063,0.34375 l 0,0.917969 c 0,0.632812 1.644531,1.144531 3.667969,1.144531 2.023438,0 3.667969,-0.511719 3.667969,-1.144531 l 0,-0.917969 c 0,-0.117187 -0.06641,-0.234375 -0.175781,-0.34375 -0.464844,0.464844 -1.863282,0.804688 -3.503907,0.804688 z"
       id="path16"
       inkscape:connector-curvature="0" />
  </g>
</svg>
