<svg width="22" xmlns="http://www.w3.org/2000/svg" height="22" viewBox="0 0 22 22" xmlns:xlink="http://www.w3.org/1999/xlink">
<defs>
<linearGradient gradientTransform="matrix(.51562 0 0 .53472 -1.71875 -.84028)" id="linear0" y1="13.571" x1="25.556" y2="5.857" gradientUnits="userSpaceOnUse" x2="33.556">
<stop offset="0" style="stop-color:#000"/>
<stop offset="1" style="stop-color:#000;stop-opacity:0"/>
</linearGradient>
<radialGradient cx="24" cy="24" gradientTransform="matrix(.70278 .24444 -.27999 .80497 .8531 -14.18598)" id="radial0" r="15" gradientUnits="userSpaceOnUse">
<stop offset="0" style="stop-color:#e4e5e2"/>
<stop offset=".5" style="stop-color:#d6d9d2"/>
<stop offset="1" style="stop-color:#b7beb1"/>
</radialGradient>
</defs>
<path style="fill:url(#radial0)" d="M 4.746094 1.835938 C 4.40625 1.871094 4.125 2.183594 4.125 2.523438 L 4.125 19.480469 C 4.125 19.839844 4.453125 20.167969 4.816406 20.167969 L 17.183594 20.167969 C 17.546875 20.167969 17.875 19.839844 17.875 19.480469 L 17.875 4.125 L 14.667969 1.832031 L 4.816406 1.835938 C 4.792969 1.832031 4.769531 1.832031 4.746094 1.835938 Z "/>
<path style="fill:url(#linear0)" d="M 14.667969 1.832031 L 14.667969 4.125 L 17.875 4.125 L 17.875 3.4375 L 15.296875 1.832031 Z "/>
<path style="fill:#545653;fill-opacity:.8" d="M 16.042969 14.253906 L 13.292969 11.960938 L 13.292969 13.335938 L 11 13.335938 C 9.988281 13.335938 9.167969 12.515625 9.167969 11.503906 C 9.167969 11.257812 9.210938 11.023438 9.296875 10.816406 L 7.175781 9.96875 C 6.984375 10.445312 6.875 10.957031 6.875 11.503906 C 6.875 13.78125 8.722656 15.628906 11 15.628906 L 13.292969 15.628906 L 13.292969 17.003906 L 16.042969 14.710938 Z M 13.40625 8.152344 C 13.207031 8.007812 13 7.882812 12.777344 7.777344 L 11.789062 9.855469 C 11.882812 9.902344 11.972656 9.949219 12.058594 10.011719 Z M 11.429688 7.40625 C 11.289062 7.390625 11.144531 7.378906 11 7.378906 C 10.824219 7.378906 10.65625 7.382812 10.484375 7.40625 L 10.769531 9.699219 C 10.847656 9.6875 10.921875 9.667969 11 9.667969 C 11.0625 9.667969 11.125 9.675781 11.1875 9.683594 Z M 10.183594 9.871094 L 9.152344 7.820312 C 8.675781 8.0625 8.242188 8.382812 7.890625 8.78125 L 9.625 10.300781 C 9.78125 10.125 9.96875 9.976562 10.183594 9.871094 Z "/>
</svg>
