<svg width="22" xmlns="http://www.w3.org/2000/svg" height="22" viewBox="0 0 22 22" xmlns:xlink="http://www.w3.org/1999/xlink">
<g style="fill:#000;fill-opacity:.8">
<path d="M 4.238281 11.472656 C 3.917969 11.488281 3.695312 11.566406 3.695312 11.917969 L 3.695312 19.320312 C 3.695312 19.789062 4.089844 20.167969 4.582031 20.167969 L 17.460938 20.167969 C 17.953125 20.167969 18.363281 19.789062 18.363281 19.320312 L 18.363281 11.917969 C 18.363281 11.449219 17.953125 11.472656 17.460938 11.472656 L 4.582031 11.472656 C 4.460938 11.472656 4.347656 11.46875 4.238281 11.472656 Z M 7.578125 14.050781 L 8.378906 14.050781 L 8.378906 17.53125 L 7.578125 17.53125 Z M 9.152344 14.050781 L 9.953125 14.050781 L 9.953125 15.382812 C 10.074219 15.238281 10.207031 15.136719 10.339844 15.066406 C 10.476562 14.996094 10.621094 14.953125 10.785156 14.953125 C 11.074219 14.953125 11.292969 15.046875 11.445312 15.226562 C 11.59375 15.402344 11.671875 15.660156 11.671875 16 L 11.671875 17.53125 L 10.871094 17.53125 L 10.871094 16.355469 C 10.871094 16.136719 10.867188 15.996094 10.855469 15.914062 C 10.847656 15.832031 10.824219 15.765625 10.800781 15.726562 C 10.769531 15.675781 10.722656 15.640625 10.671875 15.613281 C 10.617188 15.582031 10.554688 15.570312 10.484375 15.570312 C 10.316406 15.570312 10.191406 15.625 10.097656 15.753906 C 10.003906 15.882812 9.953125 16.070312 9.953125 16.300781 L 9.953125 17.53125 L 9.152344 17.53125 Z M 12.289062 15.023438 L 14.480469 15.023438 L 14.480469 15.582031 L 13.164062 16.957031 L 14.480469 16.957031 L 14.480469 17.53125 L 12.246094 17.53125 L 12.246094 16.972656 L 13.5625 15.597656 L 12.289062 15.597656 Z "/>
<path d="M 5.984375 7.804688 L 4.148438 10.554688 L 10.566406 10.554688 L 10.566406 6.429688 L 7.359375 6.429688 C 6.898438 6.429688 5.984375 7.804688 5.984375 7.804688 Z M 11.484375 6.429688 L 11.484375 10.554688 L 17.898438 10.554688 L 16.066406 7.804688 C 16.066406 7.804688 15.148438 6.429688 14.691406 6.429688 Z "/>
</g>
</svg>
