<?xml version="1.0" encoding="UTF-8" standalone="no"?>
<svg
   xmlns:dc="http://purl.org/dc/elements/1.1/"
   xmlns:cc="http://creativecommons.org/ns#"
   xmlns:rdf="http://www.w3.org/1999/02/22-rdf-syntax-ns#"
   xmlns:svg="http://www.w3.org/2000/svg"
   xmlns="http://www.w3.org/2000/svg"
   xmlns:sodipodi="http://sodipodi.sourceforge.net/DTD/sodipodi-0.dtd"
   xmlns:inkscape="http://www.inkscape.org/namespaces/inkscape"
   width="22"
   height="22"
   viewBox="0 0 22 22"
   id="svg2"
   version="1.1"
   inkscape:version="0.91 r13725"
   sodipodi:docname="application-roms_22.svg">
  <metadata
     id="metadata16">
    <rdf:RDF>
      <cc:Work
         rdf:about="">
        <dc:format>image/svg+xml</dc:format>
        <dc:type
           rdf:resource="http://purl.org/dc/dcmitype/StillImage" />
        <dc:title></dc:title>
      </cc:Work>
    </rdf:RDF>
  </metadata>
  <defs
     id="defs14" />
  <sodipodi:namedview
     pagecolor="#ffffff"
     bordercolor="#666666"
     borderopacity="1"
     objecttolerance="10"
     gridtolerance="10"
     guidetolerance="10"
     inkscape:pageopacity="0"
     inkscape:pageshadow="2"
     inkscape:window-width="1920"
     inkscape:window-height="1013"
     id="namedview12"
     showgrid="false"
     inkscape:zoom="11.313708"
     inkscape:cx="-8.4982778"
     inkscape:cy="-5.0667142"
     inkscape:window-x="0"
     inkscape:window-y="27"
     inkscape:window-maximized="1"
     inkscape:current-layer="svg2">
    <inkscape:grid
       type="xygrid"
       id="grid3004" />
  </sodipodi:namedview>
  <path
     style="fill:#a6a6a6;fill-opacity:1"
     d="M 4,0 C 3.527343,0 3,0.527344 3,1 l 0,20 c 0,0.445312 0.554687,1 1,1 l 14,0 c 0.445313,0 0.992367,-0.554753 1,-1 L 19,6 13,0 Z"
     id="path4-7"
     inkscape:connector-curvature="0"
     sodipodi:nodetypes="ssssssccs" />
  <path
     style="fill:#000000;fill-opacity:0.19599998"
     d="m 14,6 5,5 0,-5 z"
     id="path6"
     inkscape:connector-curvature="0"
     sodipodi:nodetypes="cccc" />
  <path
     style="fill:#ffffff;fill-opacity:0.39200003"
     d="m 13,0 6,6 -5,0 C 13.554688,6 13,5.445312 13,5 Z"
     id="path8"
     inkscape:connector-curvature="0"
     sodipodi:nodetypes="ccssc" />
  <path
     id="circle4216"
     style="opacity:1;fill:#ffffff;fill-opacity:1;fill-rule:nonzero;stroke:none;stroke-width:1.5;stroke-linecap:round;stroke-linejoin:miter;stroke-miterlimit:4;stroke-dasharray:none;stroke-dashoffset:0;stroke-opacity:1"
     d="m 13.307692,10.722207 a 0.38461538,0.38889652 0 0 1 -0.384616,0.388897 0.38461538,0.38889652 0 0 1 -0.384615,-0.388897 0.38461538,0.38889652 0 0 1 0.384615,-0.388897 0.38461538,0.38889652 0 0 1 0.384616,0.388897 z m 0.769232,0.777784 a 0.38461538,0.38889652 0 0 1 -0.384616,0.388897 0.38461538,0.38889652 0 0 1 -0.384615,-0.388897 0.38461538,0.38889652 0 0 1 0.384615,-0.388896 0.38461538,0.38889652 0 0 1 0.384616,0.388896 z m 0.76923,-0.777784 a 0.38461538,0.38889652 0 0 1 -0.384616,0.388897 0.38461538,0.38889652 0 0 1 -0.384615,-0.388897 0.38461538,0.38889652 0 0 1 0.384615,-0.388897 0.38461538,0.38889652 0 0 1 0.384616,0.388897 z M 14.076924,9.94444 A 0.38461538,0.38889652 0 0 1 13.692308,10.333337 0.38461538,0.38889652 0 0 1 13.307693,9.94444 0.38461538,0.38889652 0 0 1 13.692308,9.555544 0.38461538,0.38889652 0 0 1 14.076924,9.94444 Z M 9.076923,10.722171 A 0.76923083,0.7777929 0 0 1 8.3076919,11.499963 0.76923083,0.7777929 0 0 1 7.5384613,10.722171 0.76923083,0.7777929 0 0 1 8.3076919,9.944378 0.76923083,0.7777929 0 0 1 9.076923,10.722171 Z M 8.397085,8.000956 C 8.1204582,8.012331 7.8927865,8.132177 7.7360269,8.252374 6.8092061,8.963165 6,11.928046 6,13.497186 c 0,1.569109 0.356763,1.502404 0.6663159,1.502404 0.3095536,0 0.6987449,-0.215221 1.038913,-0.51803 0.9390865,-0.835887 1.3716561,-1.814896 2.3054381,-1.814896 l 1.978666,0 c 0.933782,0 1.366352,0.979009 2.305439,1.814896 0.340166,0.302809 0.729359,0.51803 1.038912,0.51803 C 15.643237,14.99959 16,15.0663 16,13.497186 16,11.928046 15.190794,8.963165 14.263973,8.252374 14.013156,8.060048 13.581479,7.868481 13.05604,8.120977 12.703694,8.290319 12.388761,8.388873 11.928485,8.388873 l -1.856972,0 C 9.611239,8.388873 9.296306,8.290323 8.94396,8.120977 8.7469213,8.02627 8.5630609,7.994073 8.397085,8.000956 Z"
     inkscape:connector-curvature="0" />
</svg>
