<svg width="22" xmlns="http://www.w3.org/2000/svg" height="22" viewBox="0 0 22 22" xmlns:xlink="http://www.w3.org/1999/xlink">
<defs>
<linearGradient gradientTransform="matrix(.22829 0 0 .22829 -6.84187 .46355)" id="linear0" y1="14" x1="102" y2="24" gradientUnits="userSpaceOnUse" x2="92">
<stop offset="0" style="stop-color:#c8c8c8"/>
<stop offset="1" style="stop-color:#efefef"/>
</linearGradient>
<linearGradient gradientTransform="matrix(.15805 0 0 .15805 .88488 -46.05497)" id="linear1" y1="413" y2="419" gradientUnits="userSpaceOnUse" x2="0">
<stop offset="0" style="stop-color:#ce2626"/>
<stop offset=".5" style="stop-color:#ab2626"/>
<stop offset="1" style="stop-color:#8d2020"/>
</linearGradient>
</defs>
<path style="fill:#e5e5e5" d="M 3.730469 20.167969 L 15.425781 20.167969 C 18.269531 20.167969 18.269531 17.320312 18.269531 17.320312 L 18.269531 5.941406 C 18.269531 5.941406 14.160156 1.832031 14.160156 1.832031 L 6.574219 1.832031 C 6.574219 1.832031 3.730469 1.832031 3.730469 4.679688 Z "/>
<path style="fill:url(#linear0)" d="M 14.160156 1.832031 L 14.160156 5.941406 L 18.269531 5.941406 Z "/>
<path style="fill:url(#linear1)" d="M 3.730469 20.167969 L 15.425781 20.167969 C 18.269531 20.167969 18.269531 17.320312 18.269531 17.320312 C 18.269531 17.320312 18.269531 14.792969 18.269531 14.792969 C 18.269531 14.792969 18.269531 19.21875 15.425781 19.21875 L 6.574219 19.21875 C 6.574219 19.21875 3.730469 19.21875 3.730469 20.167969 Z "/>
<path style="fill:#ce2626" d="M 6.785156 14.527344 C 6.785156 14.527344 9.578125 12.164062 13.402344 12.164062 C 17.226562 12.164062 14.207031 15.332031 12.457031 13.582031 C 10.703125 11.835938 9.621094 9.328125 9.621094 7.910156 C 9.621094 6.019531 12.457031 5.546875 11.722656 8.726562 C 11.363281 10.292969 9.621094 14.765625 8.675781 15.472656 C 8.042969 15.945312 6.5 14.742188 6.785156 14.527344 C 7.066406 14.3125 8.03125 13.582031 8.03125 13.582031 C 11.296875 12.636719 6.882812 14.578125 7.730469 15 C 8.675781 15.472656 9.550781 12.890625 10.1875 10.796875 C 10.824219 8.699219 11.511719 7.539062 10.660156 7.488281 C 9.855469 7.4375 10.554688 8.828125 11.511719 10.746094 C 12.464844 12.667969 12.929688 13.582031 13.875 13.582031 C 14.671875 13.582031 14.820312 12.636719 13.875 12.636719 C 13.152344 12.636719 11.984375 12.636719 10.566406 13.109375 C 9.117188 13.59375 6.785156 14.527344 6.785156 14.527344 Z "/>
</svg>
