<svg width="22" xmlns="http://www.w3.org/2000/svg" height="22" viewBox="0 0 22 22" xmlns:xlink="http://www.w3.org/1999/xlink">
<defs>
<linearGradient gradientTransform="matrix(.22829 0 0 .22829 -6.84187 .46355)" id="linear0" y1="14" x1="102" y2="24" gradientUnits="userSpaceOnUse" x2="92">
<stop offset="0" style="stop-color:#c8c8c8"/>
<stop offset="1" style="stop-color:#efefef"/>
</linearGradient>
<linearGradient gradientTransform="matrix(.15805 0 0 .15805 .88488 -46.05497)" id="linear1" y1="413" y2="419" gradientUnits="userSpaceOnUse" x2="0">
<stop offset="0" style="stop-color:#034da2"/>
<stop offset=".5" style="stop-color:#003777"/>
<stop offset="1" style="stop-color:#002d60"/>
</linearGradient>
</defs>
<path style="fill:#e5e5e5" d="M 3.730469 20.167969 L 15.425781 20.167969 C 18.269531 20.167969 18.269531 17.320312 18.269531 17.320312 L 18.269531 5.941406 C 18.269531 5.941406 14.160156 1.832031 14.160156 1.832031 L 6.574219 1.832031 C 6.574219 1.832031 3.730469 1.832031 3.730469 4.679688 Z "/>
<path style="fill:url(#linear0)" d="M 14.160156 1.832031 L 14.160156 5.941406 L 18.269531 5.941406 Z "/>
<path style="fill:url(#linear1)" d="M 3.730469 20.167969 L 15.425781 20.167969 C 18.269531 20.167969 18.269531 17.320312 18.269531 17.320312 C 18.269531 17.320312 18.269531 14.792969 18.269531 14.792969 C 18.269531 14.792969 18.269531 19.21875 15.425781 19.21875 L 6.574219 19.21875 C 6.574219 19.21875 3.730469 19.21875 3.730469 20.167969 Z "/>
<g style="fill-rule:evenodd;fill:#034da2">
<path d="M 8.964844 9.628906 L 8.113281 9.628906 L 6.417969 12.371094 L 7.179688 12.371094 L 7.417969 11.9375 L 8.289062 11.9375 L 8.289062 12.371094 L 8.964844 12.371094 Z M 7.746094 11.371094 L 8.332031 10.324219 L 8.3125 11.371094 Z "/>
<path d="M 15.582031 9.628906 L 15.582031 12.371094 L 14.886719 12.371094 L 14.886719 9.628906 Z "/>
<path d="M 14.582031 9.628906 L 14.582031 12.371094 L 13.886719 12.371094 L 13.886719 9.628906 Z "/>
<path d="M 10.597656 10.609375 L 11.316406 10.609375 L 11.316406 10.105469 C 11.316406 10.105469 11.335938 9.628906 10.859375 9.628906 C 10.359375 9.628906 9.703125 9.628906 9.617188 9.628906 C 9.53125 9.628906 9.203125 9.714844 9.203125 10.085938 C 9.203125 10.085938 9.203125 10.457031 9.203125 10.5 C 9.203125 10.542969 9.203125 10.695312 9.441406 10.847656 C 9.683594 11 10.511719 11.5 10.511719 11.5 C 10.511719 11.5 10.617188 11.542969 10.617188 11.675781 C 10.617188 11.804688 10.554688 11.804688 10.464844 11.804688 C 10.402344 11.804688 10.007812 11.804688 10.007812 11.804688 C 10.007812 11.804688 9.898438 11.828125 9.898438 11.695312 C 9.898438 11.566406 9.898438 11.371094 9.898438 11.371094 L 9.203125 11.371094 L 9.203125 11.914062 C 9.203125 11.914062 9.183594 12.371094 9.703125 12.371094 C 10.226562 12.371094 10.769531 12.371094 10.835938 12.371094 C 10.902344 12.371094 11.292969 12.351562 11.292969 11.9375 L 11.292969 11.5 C 11.292969 11.5 11.335938 11.28125 11.074219 11.109375 L 9.964844 10.457031 C 9.964844 10.457031 9.878906 10.390625 9.878906 10.324219 C 9.878906 10.28125 9.898438 10.171875 10.007812 10.171875 L 10.488281 10.171875 C 10.488281 10.171875 10.597656 10.171875 10.597656 10.304688 C 10.597656 10.457031 10.597656 10.609375 10.597656 10.609375 Z "/>
<path d="M 12.207031 11.371094 C 12.207031 11.371094 12.207031 11.566406 12.207031 11.695312 C 12.207031 11.847656 12.296875 11.828125 12.296875 11.828125 C 12.296875 11.828125 12.753906 11.828125 12.839844 11.828125 C 12.90625 11.828125 12.925781 11.828125 12.925781 11.675781 L 12.925781 11.390625 L 13.625 11.390625 L 13.625 11.9375 C 13.625 12.351562 13.230469 12.371094 13.167969 12.371094 C 13.101562 12.371094 12.558594 12.371094 12.035156 12.371094 C 11.511719 12.371094 11.535156 11.914062 11.535156 11.914062 L 11.535156 10.085938 C 11.535156 9.714844 11.859375 9.628906 11.945312 9.628906 C 12.035156 9.628906 12.6875 9.628906 13.167969 9.628906 C 13.644531 9.628906 13.644531 10.105469 13.644531 10.105469 L 13.644531 10.609375 L 12.925781 10.609375 C 12.925781 10.609375 12.925781 10.457031 12.925781 10.324219 C 12.925781 10.195312 12.816406 10.171875 12.816406 10.171875 L 12.339844 10.171875 C 12.207031 10.171875 12.207031 10.28125 12.207031 10.347656 Z "/>
</g>
</svg>
