<svg width="22" xmlns="http://www.w3.org/2000/svg" height="22" viewBox="0 0 22 22" xmlns:xlink="http://www.w3.org/1999/xlink">
<defs>
<linearGradient gradientTransform="matrix(.51562 0 0 .53472 -1.71875 -.84028)" id="linear0" y1="13.571" x1="25.556" y2="5.857" gradientUnits="userSpaceOnUse" x2="33.556">
<stop offset="0" style="stop-color:#000"/>
<stop offset="1" style="stop-color:#000;stop-opacity:0"/>
</linearGradient>
<radialGradient cx="24" cy="24" gradientTransform="matrix(.70278 .24444 -.27999 .80497 .8531 -14.18598)" id="radial0" r="15" gradientUnits="userSpaceOnUse">
<stop offset="0" style="stop-color:#e4e5e2"/>
<stop offset=".5" style="stop-color:#d6d9d2"/>
<stop offset="1" style="stop-color:#b7beb1"/>
</radialGradient>
</defs>
<path style="fill:url(#radial0)" d="M 4.746094 1.835938 C 4.40625 1.871094 4.125 2.183594 4.125 2.523438 L 4.125 19.480469 C 4.125 19.839844 4.453125 20.167969 4.816406 20.167969 L 17.183594 20.167969 C 17.546875 20.167969 17.875 19.839844 17.875 19.480469 L 17.875 4.125 L 14.667969 1.832031 L 4.816406 1.835938 C 4.792969 1.832031 4.769531 1.832031 4.746094 1.835938 Z "/>
<path style="fill:url(#linear0)" d="M 14.667969 1.832031 L 14.667969 4.125 L 17.875 4.125 L 17.875 3.4375 L 15.296875 1.832031 Z "/>
<g style="fill:#878985">
<path d="M 10.796875 5.644531 C 10.382812 5.648438 9.984375 5.683594 9.632812 5.742188 C 8.605469 5.925781 8.417969 6.304688 8.417969 7.007812 L 8.417969 7.933594 L 10.851562 7.933594 L 10.851562 8.246094 L 7.503906 8.246094 C 6.800781 8.246094 6.179688 8.667969 5.984375 9.476562 C 5.761719 10.402344 5.753906 10.980469 5.984375 11.949219 C 6.160156 12.667969 6.570312 13.183594 7.277344 13.183594 L 8.113281 13.183594 L 8.113281 12.070312 C 8.113281 11.269531 8.808594 10.558594 9.632812 10.558594 L 12.0625 10.558594 C 12.738281 10.558594 13.28125 10.003906 13.28125 9.324219 L 13.28125 7.007812 C 13.28125 6.347656 12.722656 5.855469 12.0625 5.742188 C 11.644531 5.675781 11.210938 5.644531 10.796875 5.644531 Z M 9.480469 6.390625 C 9.734375 6.390625 9.9375 6.597656 9.9375 6.855469 C 9.9375 7.109375 9.734375 7.316406 9.480469 7.316406 C 9.230469 7.316406 9.023438 7.109375 9.023438 6.855469 C 9.023438 6.597656 9.230469 6.390625 9.480469 6.390625 Z "/>
<path d="M 13.753906 8.386719 L 13.753906 9.46875 C 13.753906 10.304688 13.046875 11.007812 12.234375 11.007812 L 9.804688 11.007812 C 9.140625 11.007812 8.589844 11.578125 8.589844 12.246094 L 8.589844 14.5625 C 8.589844 15.21875 9.164062 15.609375 9.804688 15.796875 C 10.578125 16.023438 11.316406 16.066406 12.234375 15.796875 C 12.847656 15.621094 13.453125 15.261719 13.453125 14.5625 L 13.453125 13.632812 L 11.023438 13.632812 L 11.023438 13.324219 L 14.667969 13.324219 C 15.375 13.324219 15.636719 12.832031 15.882812 12.09375 C 16.136719 11.332031 16.128906 10.597656 15.882812 9.621094 C 15.710938 8.917969 15.375 8.386719 14.667969 8.386719 Z M 12.390625 14.253906 C 12.640625 14.253906 12.84375 14.460938 12.84375 14.714844 C 12.84375 14.972656 12.640625 15.179688 12.390625 15.179688 C 12.136719 15.179688 11.933594 14.972656 11.933594 14.714844 C 11.933594 14.460938 12.136719 14.253906 12.390625 14.253906 Z "/>
</g>
</svg>
