<?xml version="1.0" encoding="UTF-8" standalone="no"?>
<svg
   xmlns:dc="http://purl.org/dc/elements/1.1/"
   xmlns:cc="http://creativecommons.org/ns#"
   xmlns:rdf="http://www.w3.org/1999/02/22-rdf-syntax-ns#"
   xmlns:svg="http://www.w3.org/2000/svg"
   xmlns="http://www.w3.org/2000/svg"
   xmlns:sodipodi="http://sodipodi.sourceforge.net/DTD/sodipodi-0.dtd"
   xmlns:inkscape="http://www.inkscape.org/namespaces/inkscape"
   width="22"
   height="22"
   viewBox="0 0 22 22"
   id="svg2"
   version="1.1"
   inkscape:version="0.91 r13725"
   sodipodi:docname="application-arduino_22.svg">
  <metadata
     id="metadata16">
    <rdf:RDF>
      <cc:Work
         rdf:about="">
        <dc:format>image/svg+xml</dc:format>
        <dc:type
           rdf:resource="http://purl.org/dc/dcmitype/StillImage" />
        <dc:title></dc:title>
      </cc:Work>
    </rdf:RDF>
  </metadata>
  <defs
     id="defs14" />
  <sodipodi:namedview
     pagecolor="#ffffff"
     bordercolor="#666666"
     borderopacity="1"
     objecttolerance="10"
     gridtolerance="10"
     guidetolerance="10"
     inkscape:pageopacity="0"
     inkscape:pageshadow="2"
     inkscape:window-width="1920"
     inkscape:window-height="1013"
     id="namedview12"
     showgrid="false"
     inkscape:zoom="5.6568542"
     inkscape:cx="6.6058228"
     inkscape:cy="-2.3617924"
     inkscape:window-x="0"
     inkscape:window-y="27"
     inkscape:window-maximized="1"
     inkscape:current-layer="svg2">
    <inkscape:grid
       type="xygrid"
       id="grid3004" />
  </sodipodi:namedview>
  <path
     style="fill:#0ca1a6;fill-opacity:1"
     d="M 4,0 C 3.527343,0 3,0.527344 3,1 l 0,20 c 0,0.445312 0.554687,1 1,1 l 14,0 c 0.445313,0 0.992367,-0.554753 1,-1 L 19,6 13,0 Z"
     id="path4-7"
     inkscape:connector-curvature="0"
     sodipodi:nodetypes="ssssssccs" />
  <path
     style="fill:#000000;fill-opacity:0.19599998"
     d="m 14,6 5,5 0,-5 z"
     id="path6"
     inkscape:connector-curvature="0"
     sodipodi:nodetypes="cccc" />
  <path
     style="fill:#ffffff;fill-opacity:0.39200003"
     d="m 13,0 6,6 -5,0 C 13.554688,6 13,5.445312 13,5 Z"
     id="path8"
     inkscape:connector-curvature="0"
     sodipodi:nodetypes="ccssc" />
  <path
     d="M 16,11.5 C 16,10.12426 14.89045,9 13.542135,9 l 0,0 C 13.41573,9 13.289326,9.01479 13.162921,9.02959 l 0,0 C 12.109551,9.192308 11.407303,9.991124 11,10.597633 l 0,0 C 10.606741,9.991124 9.89045,9.177515 8.837079,9.029586 l 0,0 C 8.710674,9.014796 8.58427,9.000006 8.457866,9.000006 l 0,0 C 7.095506,9.000006 6,10.124266 6,11.500006 l 0,0 C 6,12.87574 7.10955,14 8.457866,14 l 0,0 c 0.126404,0 0.252808,-0.01479 0.379213,-0.02959 l 0,0 C 9.89045,13.807693 10.592697,13.008877 11,12.402368 l 0,0 c 0.393259,0.621302 1.095506,1.420118 2.162921,1.568047 l 0,0 C 13.289326,13.985208 13.41573,14 13.542135,14 l 0,0 C 14.89045,14 16,12.890532 16,11.5 l 0,0 z m -7.275281,1.597633 c -0.08427,0.01479 -0.168539,0.01479 -0.266853,0.01479 l 0,0 c -0.898877,0 -1.615169,-0.724852 -1.615169,-1.612426 l 0,0 c 0,-0.887575 0.730336,-1.612427 1.615169,-1.612427 l 0,0 c 0.08427,0 0.168539,0.01479 0.266853,0.01479 l 0,0 c 0.997191,0.147929 1.601124,1.183432 1.811798,1.597633 l 0,0 C 10.325843,11.9142 9.72191,12.949703 8.724719,13.097632 l 0,0 z M 11.463483,11.5 c 0.210674,-0.414201 0.814607,-1.449704 1.811798,-1.597633 l 0,0 c 0.08427,-0.01479 0.168539,-0.01479 0.266854,-0.01479 l 0,0 c 0.898876,0 1.615169,0.724852 1.615169,1.612426 l 0,0 c 0,0.887574 -0.730337,1.612426 -1.615169,1.612426 l 0,0 c -0.08427,0 -0.168539,0 -0.266854,-0.01479 l 0,0 C 12.27809,12.949704 11.674157,11.914201 11.463483,11.5 l 0,0 z"
     id="path43"
     inkscape:connector-curvature="0"
     style="opacity:0.7;fill:#ffffff" />
  <path
     style="fill:#ffffff"
     d="m 7,11 0,0 0,1 3,0 0,0 0,-1 0,0 z"
     id="polygon45"
     inkscape:connector-curvature="0"
     sodipodi:nodetypes="cccccccc" />
  <path
     style="fill:#ffffff"
     d="m 12,11 0,1 0,0 1,0 0,0 0,1 0,0 1,0 0,-1 1,0 0,-1 -1,0 0,-1 -1,0 0,1 z"
     id="polygon47"
     inkscape:connector-curvature="0"
     sodipodi:nodetypes="cccccccccccccccc" />
</svg>
