<svg xmlns="http://www.w3.org/2000/svg" viewBox="0 0 128 128" xmlns:xlink="http://www.w3.org/1999/xlink">
<defs>
<linearGradient gradientTransform="matrix(3.2239 0 0 2.4718 -173.38 13.355)" spreadMethod="reflect" id="linearGradient3429" y1="28" y2="12" x1="75.854" gradientUnits="userSpaceOnUse" x2="91">
<stop offset="0"/>
<stop offset="1" style="stop-opacity:0"/>
</linearGradient>
<linearGradient gradientTransform="matrix(2.0027 0 0 3.7516 15.935 -20.392)" id="linearGradient2608" y1="15.298" y2="24.628" x1="16.626" gradientUnits="userSpaceOnUse" x2="20.055">
<stop offset="0" style="stop-color:#fff"/>
<stop offset="1" style="stop-color:#fff;stop-opacity:0"/>
</linearGradient>
<linearGradient gradientTransform="matrix(2.6571 0 0 2.6477 .22866 .1761)" id="linearGradient2602" y1="4.858" y2="6.544" x1="35.517" gradientUnits="userSpaceOnUse" x2="34.103">
<stop offset="0" style="stop-color:#c4c4c4"/>
<stop offset="1" style="stop-color:#c4c4c4;stop-opacity:0"/>
</linearGradient>
<linearGradient gradientTransform="matrix(2.7576 0 0 2.6744 -2.1817 -4.186)" id="linearGradient2459" y1="2" y2="46.017" gradientUnits="userSpaceOnUse" x2="0">
<stop offset="0" style="stop-color:#fff"/>
<stop offset="1" style="stop-color:#fff;stop-opacity:0"/>
</linearGradient>
<linearGradient gradientTransform="matrix(2.6605 0 0 2.7752 .74553 -3.5662)" id="linearGradient2455" y1="8.059" y2="5.457" x1="32.892" gradientUnits="userSpaceOnUse" x2="36.358">
<stop offset="0" style="stop-color:#fefefe"/>
<stop offset="1" style="stop-color:#cbcbcb"/>
</linearGradient>
<linearGradient id="linearGradient5060">
<stop offset="0"/>
<stop offset="1" style="stop-opacity:0"/>
</linearGradient>
<linearGradient gradientTransform="matrix(2.1456 0 0 2.3791 158.09 -7.7465)" id="linearGradient3407" y1="53.624" y2="2.906" gradientUnits="userSpaceOnUse" x2="0">
<stop offset="0" style="stop-color:#643340"/>
<stop offset="1" style="stop-color:#a77a86"/>
</linearGradient>
<linearGradient gradientTransform="matrix(2.6726 0 0 2.7432 10.508 -1.0644)" id="linearGradient3422" y1="44.11" y2=".191" gradientUnits="userSpaceOnUse" x2="0">
<stop offset="0" style="stop-color:#51293c"/>
<stop offset="1" style="stop-color:#876374"/>
</linearGradient>
<linearGradient gradientTransform="matrix(3.2239 0 0 2.4722 -173.38 10.35)" spreadMethod="reflect" id="linearGradient3426" y1="28" y2="12" x1="75.854" gradientUnits="userSpaceOnUse" x2="91">
<stop offset="0" style="stop-color:#fff"/>
<stop offset="1" style="stop-color:#fff;stop-opacity:0"/>
</linearGradient>
<linearGradient gradientTransform="matrix(.17251 0 0 .0392 .64822 98.774)" id="linearGradient2483" y1="366.65" y2="609.51" gradientUnits="userSpaceOnUse" x2="0">
<stop offset="0" style="stop-opacity:0"/>
<stop offset=".5"/>
<stop offset="1" style="stop-opacity:0"/>
</linearGradient>
<radialGradient cx="102" cy="112.3" gradientTransform="matrix(.97872 0 0 -1.0535 1.3617 127.48)" id="radialGradient2462" r="139.56" gradientUnits="userSpaceOnUse">
<stop offset="0"/>
<stop offset=".189"/>
<stop offset=".257" style="stop-opacity:0"/>
<stop offset="1" style="stop-opacity:0"/>
</radialGradient>
<radialGradient cx="14.239" cy="11.49" gradientTransform="matrix(0 8.4511 -14.079 0 197.36 -104.85)" id="radialGradient3405" r="18" gradientUnits="userSpaceOnUse">
<stop offset="0" style="stop-color:#e694bb"/>
<stop offset=".262" style="stop-color:#d3819a"/>
<stop offset=".705" style="stop-color:#b25a64"/>
<stop offset="1" style="stop-color:#98313d"/>
</radialGradient>
<radialGradient cx="605.71" cy="486.65" gradientTransform="matrix(-.05904 0 0 .0392 56.93 98.774)" id="radialGradient2485" xlink:href="#linearGradient5060" r="117.14" gradientUnits="userSpaceOnUse"/>
<radialGradient cx="605.71" cy="486.65" gradientTransform="matrix(.05904 0 0 .0392 69.07 98.774)" id="radialGradient2487" xlink:href="#linearGradient5060" r="117.14" gradientUnits="userSpaceOnUse"/>
</defs>
<g transform="matrix(1.0408 0 0 .63024 -1.5714 43.69)">
<rect width="83.3" x="21.35" y="113.15" height="9.52" style="opacity:.3;fill:url(#linearGradient2483)"/>
<path style="opacity:.3;fill:url(#radialGradient2485)" d="m21.35 113.15v9.52c-3.04 0.01-7.35-2.14-7.35-4.76 0-2.63 3.393-4.76 7.35-4.76z"/>
<path style="opacity:.3;fill:url(#radialGradient2487)" d="m104.65 113.15v9.52c3.04 0.01 7.35-2.14 7.35-4.76 0-2.63-3.39-4.76-7.35-4.76z"/>
</g>
<path style="fill:url(#radialGradient3405);stroke:url(#linearGradient3407);stroke-linejoin:round" d="m17.5 1.5h63.496c1.396 5.2117 16.734 18.217 29.504 25.594v91.406h-93v-117z"/>
<path style="opacity:.2;fill:url(#linearGradient2608);fill-rule:evenodd" d="m18 2v70l91.19-26.74c0.46-0.137 0.8-0.879 0.81-1.758v-16.155l-29.315-25.347h-62.685z"/>
<path style="opacity:.05;fill:url(#radialGradient2462)" d="m18.979 118c-0.54 0-0.979-0.47-0.979-1.05v-113.78c0-0.5847 0.439-1.0566 0.979-1.0566 20.248 0.2912 42.687-0.4356 62.911 0.0725l27.82 23.902 0.29 90.862c0 0.58-0.44 1.05-0.98 1.05h-90.041z"/>
<path style="opacity:.4;fill:none;stroke:url(#linearGradient2459);stroke-linejoin:round" d="m109.5 26.518v90.982h-91v-115h63.055"/>
<g style="fill-rule:evenodd">
<path style="opacity:.05" d="m71.923 1.8392c13.028 0 6.551 25.808 6.551 25.808s31.506-7.19 31.506 5.562l0.08-6.058c-6.74-6.731-20.999-19.9-30.179-24.913 0-0.0003-7.958-0.3988-7.958-0.3988z"/>
<path style="opacity:.1" d="m74.396 1.8392c12.182 0 6.125 24.131 6.125 24.131s29.459-5.64 29.459 6.141c1.56-10.052-25.983-33.4-35.584-30.272v0.0002z"/>
<path style="opacity:.15" d="m30.771 9.4044s10.357-1.8023 10.357 2.8186c0-2.6095-5.831-9.9093-12.511-11.302 3.247 1.2432 2.806 5.4073 2.154 8.4834z" transform="matrix(2.6667 0 0 2.6667 .30873 -.61745)"/>
<path style="fill:url(#linearGradient2455)" d="m76.621 1.8392c8.498 0 6.229 20.432 6.229 20.432s27.13-2.616 27.13 9.707c0-3.003 0.23-5.153-0.35-6.09-4.21-6.731-22.391-21.836-28.956-23.815-0.491-0.1485-1.58-0.2338-4.053-0.2338z"/>
</g>
<path style="fill:none;stroke:url(#linearGradient2602);stroke-linejoin:round" d="m80.851 1.5c5.049 1.5479 24.409 15.567 29.649 25.481v32.528c-107.47 41.641-94.208-58.009-29.649-58.009z"/>
<path style="opacity:.1;fill:url(#linearGradient3429)" d="m88.984 43.017c-1.184-0.046-2.364 0.006-3.518 0.095-10.155 0.783-18.935 6.684-22.311 16.067-2.081 5.781-1.665 11.905 0.555 17.588l-45.71 38.543v2.69h27.04l-0.586-7.39 14.905 2.85 1.759-13.21 13.979 2.85 9.166-7.509c9.36 2.921 18.857 1.428 25.737-3.423v-31.658c-1.14 0.275-2.45 0.207-3.7-0.285-3.05-1.202-4.78-4.412-3.8-7.131 0.73-2.039 2.84-3.36 5.09-3.327 0.75 0.011 1.55 0.175 2.32 0.475 0.04 0.016 0.05 0.078 0.09 0.095v-4.943c-2.98-0.772-5.98-0.458-8.33 0.855-0.64-0.298-1.19-0.689-1.854-0.951-3.589-1.413-7.279-2.145-10.832-2.281z"/>
<path style="opacity:.4;fill:url(#linearGradient3426)" d="m88.984 40.017c-1.184-0.046-2.364 0.006-3.518 0.095-10.155 0.783-18.935 6.686-22.311 16.069-2.081 5.782-1.665 11.907 0.555 17.591l-45.71 38.848 0.125 5.38h27.162l-0.833-10.38 14.905 2.85 1.759-13.212 13.979 2.852 9.166-7.511c9.36 2.921 18.857 1.429 25.737-3.423v-31.664c-1.14 0.275-2.45 0.207-3.7-0.285-3.05-1.201-4.78-4.412-3.8-7.131 0.73-2.039 2.84-3.361 5.09-3.328 0.75 0.011 1.55 0.175 2.32 0.475 0.04 0.017 0.05 0.078 0.09 0.095v-4.944c-2.98-0.772-5.98-0.458-8.33 0.856-0.64-0.299-1.19-0.689-1.854-0.951-3.589-1.414-7.279-2.146-10.832-2.282z"/>
<path style="opacity:.4;fill:#fff" d="m78.036 95c-1.327-4.741-2.654-9.259-3.982-14h-20.069c-1.34 4.741-2.681 9.259-4.021 14h-12.464c6.305-20 12.61-40 18.914-60h15.092c6.331 20 12.663 40 18.994 60h-12.464zm-6.849-25l-7.187-26-7.028 26h14.215z"/>
<path style="fill:url(#linearGradient3422)" d="m78.036 94c-1.327-4.741-2.654-9.259-3.982-14h-20.069c-1.34 4.741-2.681 9.259-4.021 14h-12.464c6.305-20 12.61-40 18.914-60h15.092c6.331 20 12.663 40 18.994 60h-12.464zm-6.849-25l-7.187-26-7.028 26h14.215z"/>
</svg>
