<svg xmlns="http://www.w3.org/2000/svg" viewBox="0 0 128 128" xmlns:xlink="http://www.w3.org/1999/xlink">
<defs>
<linearGradient gradientTransform="matrix(.59475 0 0 .48982 554.16 1653.32)" id="linearGradient9013" xlink:href="#linearGradient8074-2-2" x1="343.816" x2="443.493" gradientUnits="userSpaceOnUse"/>
<linearGradient gradientTransform="matrix(.49105 0 0 .48984 266.032 -331.951)" id="linearGradient8991" xlink:href="#linearGradient17355" x1="1031.342" x2="1095.047" gradientUnits="userSpaceOnUse"/>
<linearGradient gradientTransform="matrix(.24845 0 0 .99998 -1112.15 377.619)" id="linearGradient8993" xlink:href="#linearGradient11600" x1="-17" x2="144" gradientUnits="userSpaceOnUse"/>
<linearGradient gradientTransform="matrix(.13665 0 0 1 792.323 98)" id="linearGradient9009" xlink:href="#linearGradient8074-2" x1="-17" x2="144" gradientUnits="userSpaceOnUse"/>
<linearGradient gradientTransform="matrix(.14049 0 0 .99998 792.079 111.981)" id="linearGradient9011" xlink:href="#linearGradient9014" x1="-17" x2="144" gradientUnits="userSpaceOnUse"/>
<linearGradient id="linearGradient4845" xlink:href="#linearGradient2490-113-580" y1="976.3" y2="992.375" x2="0" gradientUnits="userSpaceOnUse"/>
<linearGradient id="linearGradient9014">
<stop offset="0" style="stop-color:#fff;stop-opacity:0"/>
<stop offset=".493" style="stop-color:#fff"/>
<stop offset="1" style="stop-color:#fff;stop-opacity:0"/>
</linearGradient>
<linearGradient gradientTransform="matrix(.13665 0 0 1 792.323 113)" id="linearGradient9007" xlink:href="#linearGradient8074-2" x1="-17" x2="144" gradientUnits="userSpaceOnUse"/>
<linearGradient id="linearGradient11600">
<stop offset="0" style="stop-color:#d40000;stop-opacity:0"/>
<stop offset=".493" style="stop-color:#d40000"/>
<stop offset="1" style="stop-color:#d40000;stop-opacity:0"/>
</linearGradient>
<linearGradient id="linearGradient8074-2">
<stop offset="0" style="stop-opacity:0"/>
<stop offset=".493"/>
<stop offset="1" style="stop-opacity:0"/>
</linearGradient>
<linearGradient gradientTransform="matrix(.09317 0 0 1 770.584 111)" id="linearGradient9005" xlink:href="#linearGradient8074-2" x1="-17" x2="144" gradientUnits="userSpaceOnUse"/>
<linearGradient gradientTransform="matrix(.24845 0 0 .99998 -1112.15 434.619)" id="linearGradient8995" xlink:href="#linearGradient11600" x1="-17" x2="144" gradientUnits="userSpaceOnUse"/>
<linearGradient id="linearGradient8074-3">
<stop offset="0" style="stop-opacity:0"/>
<stop offset=".493"/>
<stop offset="1" style="stop-opacity:0"/>
</linearGradient>
<linearGradient gradientTransform="matrix(.09317 0 0 1 770.584 104)" id="linearGradient9003" xlink:href="#linearGradient8074-2" x1="-17" x2="144" gradientUnits="userSpaceOnUse"/>
<linearGradient gradientTransform="matrix(.3172 0 0 .48984 663.285 -525.928)" id="linearGradient8997" xlink:href="#linearGradient8074-2-2" x1="343.816" x2="443.493" gradientUnits="userSpaceOnUse"/>
<linearGradient gradientTransform="matrix(.09317 0 0 1 770.584 97)" id="linearGradient9001" xlink:href="#linearGradient8074-2" x1="-17" x2="144" gradientUnits="userSpaceOnUse"/>
<linearGradient id="linearGradient8074-2-2">
<stop offset="0" style="stop-opacity:0"/>
<stop offset=".493"/>
<stop offset="1" style="stop-opacity:0"/>
</linearGradient>
<linearGradient gradientTransform="matrix(7.97915 0 0 8.01241 -2320.61 -2003.73)" id="linearGradient19517" xlink:href="#linearGradient10286-3" y1="256.581" x1="294.343" y2="243.139" x2="294.418" gradientUnits="userSpaceOnUse"/>
<linearGradient gradientTransform="matrix(1 0 0 1.00011 0 -.10551)" id="linearGradient4841" xlink:href="#linearGradient2490-113-580" y1="976.378" y2="992.392" x2="0" gradientUnits="userSpaceOnUse"/>
<linearGradient gradientTransform="matrix(.39024 0 0 .39024 -82.3171 518.582)" id="linearGradient20903-8" xlink:href="#linearGradient7931-0" y1="-1192.638" x1="152" y2="-1230.756" x2="113.882" gradientUnits="userSpaceOnUse"/>
<linearGradient id="linearGradient8074-2-0">
<stop offset="0" style="stop-opacity:0"/>
<stop offset=".493"/>
<stop offset="1" style="stop-opacity:0"/>
</linearGradient>
<linearGradient gradientTransform="matrix(.40062 0 0 .99998 -3.53 1087.62)" id="linearGradient11311-5" xlink:href="#linearGradient8074-3" x1="-17" x2="144" gradientUnits="userSpaceOnUse"/>
<linearGradient gradientTransform="matrix(.67702 0 0 .99998 -43.33 1172.62)" id="linearGradient11309-4" xlink:href="#linearGradient8074-3" x1="-17" x2="144" gradientUnits="userSpaceOnUse"/>
<linearGradient gradientTransform="matrix(.57143 0 0 .99998 -100.2856 1135.46)" id="linearGradient19678" xlink:href="#linearGradient8074-3" x1="-17" x2="144" gradientUnits="userSpaceOnUse"/>
<linearGradient gradientTransform="matrix(.52172 0 0 1 30.8694 1248.8)" id="linearGradient20911-5" xlink:href="#linearGradient8074-3" x1="-17" x2="144" gradientUnits="userSpaceOnUse"/>
<linearGradient gradientTransform="matrix(.37057 .37057 -.70711 .70711 -789.729 780.329)" id="linearGradient20909-9" xlink:href="#linearGradient8074-2-0" x1="30.744" x2="144" gradientUnits="userSpaceOnUse"/>
<linearGradient id="linearGradient2490-113-580">
<stop offset="0" style="stop-color:#ed8137"/>
<stop offset="1" style="stop-color:#71171c"/>
</linearGradient>
<linearGradient id="linearGradient7931-0">
<stop offset="0"/>
<stop offset=".455" style="stop-opacity:.361"/>
<stop offset="1" style="stop-opacity:0"/>
</linearGradient>
<linearGradient gradientTransform="matrix(4.00013 0 0 4 -812.027 3074.65)" id="linearGradient22252-4" xlink:href="#linearGradient13374-5" y1="-755.388" y2="-781.623" x2="0" gradientUnits="userSpaceOnUse"/>
<linearGradient gradientTransform="matrix(1.00399 0 0 1.00959 -1.49914 -9.36636)" id="linearGradient18173" xlink:href="#linearGradient2490-113-580" y1="976.3" y2="992.375" x2="0" gradientUnits="userSpaceOnUse"/>
<linearGradient id="linearGradient10286-3">
<stop offset="0" style="stop-color:#b3b3b3"/>
<stop offset="1" style="stop-color:#e6e6e6"/>
</linearGradient>
<linearGradient gradientTransform="matrix(.37057 .37057 -.70711 .70711 -787.729 758.329)" id="linearGradient20895-1" xlink:href="#linearGradient8074-3" x1="78.822" x2="144" gradientUnits="userSpaceOnUse"/>
<linearGradient gradientTransform="matrix(.67702 0 0 .99998 -43.33 1176.62)" id="linearGradient20899-9" xlink:href="#linearGradient8074-3" x1="-17" x2="144" gradientUnits="userSpaceOnUse"/>
<linearGradient id="linearGradient13374-5">
<stop offset="0" style="stop-color:#fff;stop-opacity:.65"/>
<stop offset="1" style="stop-color:#fff;stop-opacity:.949"/>
</linearGradient>
<linearGradient gradientTransform="matrix(.51545 0 0 .48984 585.338 -532.928)" id="linearGradient8999" xlink:href="#linearGradient8074-2-2" x1="343.816" x2="443.493" gradientUnits="userSpaceOnUse"/>
<linearGradient id="linearGradient13791">
<stop offset="0" style="stop-color:#d36118"/>
<stop offset="1" style="stop-color:#f09e6f"/>
</linearGradient>
<linearGradient id="linearGradient10442">
<stop offset="0" style="stop-color:#808080"/>
<stop offset="1" style="stop-color:#333"/>
</linearGradient>
<linearGradient gradientTransform="matrix(.5 0 0 .5 363 -317.322)" id="linearGradient8959" xlink:href="#linearGradient10436" y1="-1508.638" y2="-1510.583" x2="0" gradientUnits="userSpaceOnUse"/>
<linearGradient gradientTransform="matrix(.83333 0 0 3.33333 -1257.83 4153.16)" id="linearGradient8971" xlink:href="#linearGradient10150" y1="-1568.638" x1="529.25" y2="-1574.638" x2="535" gradientUnits="userSpaceOnUse"/>
<linearGradient gradientTransform="matrix(1 0 0 1.05 0 54.7819)" id="linearGradient8967" xlink:href="#linearGradient9935" y1="-1075.638" y2="-1115.638" x2="0" gradientUnits="userSpaceOnUse"/>
<linearGradient id="linearGradient8963" xlink:href="#linearGradient13791" y1="-1074.763" y2="-1116.764" x2="0" gradientUnits="userSpaceOnUse"/>
<linearGradient id="linearGradient9935">
<stop offset="0" style="stop-color:#edbfa1"/>
<stop offset="1" style="stop-color:#fdf1ea"/>
</linearGradient>
<linearGradient id="linearGradient10138">
<stop offset="0" style="stop-color:#fff"/>
<stop offset="1" style="stop-color:#ffd5d5;stop-opacity:0"/>
</linearGradient>
<linearGradient id="linearGradient17355">
<stop offset="0" style="stop-color:#8e2103"/>
<stop offset=".169" style="stop-color:#e76c35"/>
<stop offset=".838" style="stop-color:#e76c35"/>
<stop offset="1" style="stop-color:#922504"/>
</linearGradient>
<linearGradient id="linearGradient16134-3-1-8">
<stop offset="0" style="stop-opacity:.502"/>
<stop offset="1" style="stop-opacity:0"/>
</linearGradient>
<linearGradient gradientTransform="matrix(.5 0 0 .5 363 -317.322)" id="linearGradient8961" xlink:href="#linearGradient10442" y1="-1508.638" y2="-1510.583" x2="0" gradientUnits="userSpaceOnUse"/>
<linearGradient gradientTransform="matrix(.40062 0 0 .99998 -3.53 1083.62)" id="linearGradient19680" xlink:href="#linearGradient8074-3" x1="-17" x2="144" gradientUnits="userSpaceOnUse"/>
<linearGradient gradientTransform="matrix(.37057 .37057 -.70711 .70711 -787.729 775.329)" id="linearGradient20897-3" xlink:href="#linearGradient8074-3" x1="30.744" x2="144" gradientUnits="userSpaceOnUse"/>
<linearGradient id="linearGradient10462-7">
<stop offset="0" style="stop-color:#808080;stop-opacity:.502"/>
<stop offset="1" style="stop-opacity:0"/>
</linearGradient>
<linearGradient gradientTransform="matrix(.5 0 0 .5 363 -317.322)" id="linearGradient8957" xlink:href="#linearGradient10423" y1="-1508.638" y2="-1510.583" x2="0" gradientUnits="userSpaceOnUse"/>
<linearGradient id="linearGradient10436">
<stop offset="0" style="stop-color:#808080"/>
<stop offset="1" style="stop-color:#333"/>
</linearGradient>
<linearGradient id="linearGradient10423">
<stop offset="0" style="stop-color:#808080"/>
<stop offset="1" style="stop-color:#333"/>
</linearGradient>
<linearGradient id="linearGradient10150">
<stop offset="0" style="stop-color:#f00"/>
<stop offset="1" style="stop-color:#ffc600;stop-opacity:0"/>
</linearGradient>
<linearGradient gradientTransform="matrix(.57919 0 0 .73476 271.358 -298.73)" id="linearGradient8983" xlink:href="#linearGradient10623-9" y1="-1063.638" y2="-1079.16" x2="0" gradientUnits="userSpaceOnUse"/>
<linearGradient id="linearGradient17453">
<stop offset="0" style="stop-color:#b34403"/>
<stop offset="1" style="stop-color:#622502"/>
</linearGradient>
<linearGradient gradientTransform="translate(0 262)" id="linearGradient8973" xlink:href="#linearGradient17453" y1="-1359.542" y2="-1341.542" x2="0" gradientUnits="userSpaceOnUse"/>
<linearGradient gradientTransform="matrix(.49105 0 0 .48984 266.032 -331.951)" id="linearGradient8981" xlink:href="#linearGradient17734" y1="-1561.09" y2="-1526.384" x2="0" gradientUnits="userSpaceOnUse"/>
<linearGradient id="linearGradient10623-9">
<stop offset="0" style="stop-color:#fff;stop-opacity:0"/>
<stop offset="1" style="stop-color:#fff;stop-opacity:.863"/>
</linearGradient>
<linearGradient id="linearGradient10617-0">
<stop offset="0" style="stop-color:#78db67"/>
<stop offset="1" style="stop-color:#ccf4c6"/>
</linearGradient>
<linearGradient id="linearGradient13214">
<stop offset="0" style="stop-color:#18a303"/>
<stop offset="1" style="stop-color:#106802"/>
</linearGradient>
<linearGradient gradientTransform="translate(-86 -38.9999)" id="linearGradient8985" xlink:href="#linearGradient13214" y1="-1054.638" x1="889" y2="-1042.638" x2="879" gradientUnits="userSpaceOnUse"/>
<linearGradient gradientTransform="matrix(.98211 0 0 .97968 -174.934 -59.2859)" id="linearGradient8988" xlink:href="#linearGradient10617-0" y1="-1045.339" x1="984.296" y2="-1051.718" x2="990.66" gradientUnits="userSpaceOnUse"/>
<linearGradient id="linearGradient17345">
<stop offset="0" style="stop-color:#8e2103"/>
<stop offset=".169" style="stop-color:#e97f3d"/>
<stop offset=".838" style="stop-color:#e97f3d"/>
<stop offset="1" style="stop-color:#922504"/>
</linearGradient>
<linearGradient id="linearGradient17734">
<stop offset="0" style="stop-color:#999"/>
<stop offset="1" style="stop-color:#606060"/>
</linearGradient>
<linearGradient id="linearGradient17459">
<stop offset="0" style="stop-color:#b34403"/>
<stop offset="1" style="stop-color:#622502"/>
</linearGradient>
<linearGradient gradientTransform="matrix(.83333 0 0 3.33333 318.167 4153.16)" id="linearGradient8969" xlink:href="#linearGradient10150" y1="-1568.638" x1="529.25" y2="-1574.638" x2="535" gradientUnits="userSpaceOnUse"/>
<linearGradient gradientTransform="matrix(.49105 0 0 .48984 266.032 -331.951)" id="linearGradient8979" xlink:href="#linearGradient17345" x1="1008.997" x2="1116.851" gradientUnits="userSpaceOnUse"/>
<linearGradient id="linearGradient17465">
<stop offset="0" style="stop-color:#b34403"/>
<stop offset="1" style="stop-color:#622502"/>
</linearGradient>
<linearGradient gradientTransform="translate(0 262)" id="linearGradient8975" xlink:href="#linearGradient17459" y1="-1359.542" y2="-1341.542" x2="0" gradientUnits="userSpaceOnUse"/>
<linearGradient gradientTransform="translate(0 262)" id="linearGradient8977" xlink:href="#linearGradient17465" y1="-1359.542" y2="-1341.542" x2="0" gradientUnits="userSpaceOnUse"/>
<radialGradient cx="152.333" cy="-754.638" gradientTransform="matrix(0 .08289 -.41024 0 467.31 -1076.51)" r="15" id="radialGradient8951" xlink:href="#linearGradient16134-3-1-8" gradientUnits="userSpaceOnUse"/>
<radialGradient cx="152.333" cy="-754.638" gradientTransform="matrix(0 .08289 -.41024 0 489.408 -1076.51)" r="15" id="radialGradient8953" xlink:href="#linearGradient16134-3-1-8" gradientUnits="userSpaceOnUse"/>
<radialGradient cx="152.333" cy="-754.638" gradientTransform="matrix(0 .13262 -2.00195 0 -722.871 -1085.32)" r="15" id="radialGradient8955" xlink:href="#linearGradient10462-7" gradientUnits="userSpaceOnUse"/>
<radialGradient cx="-1535.455" cy="-853" gradientTransform="matrix(-1.62419 0 0 -1.57137 -3568.11 -2128.09)" r="10" id="radialGradient8965" xlink:href="#linearGradient10138" gradientUnits="userSpaceOnUse"/>
</defs>
<g style="fill:url(#linearGradient4845);line-height:normal;color:#000" transform="matrix(7.99974 0 0 7.9969 -875.96984 -7807.9236)">
<path style="fill:url(#linearGradient4841)" d="m 111.56249,976.3733 c -0.4584,0.0875 -0.57071,0.28336 -0.56249,0.75001 l 0,14.50168 c 5e-5,0.52364 0.22641,0.74996 0.74999,0.75001 l 11.50001,0 c 0.52358,-5e-5 0.74994,-0.22637 0.74999,-0.75001 l 0,-8.98088 c 0.006,-0.26409 -0.0975,-0.52903 -0.28125,-0.71883 l -5.27042,-5.2707 c -0.18978,-0.18372 -0.45469,-0.2874 -0.71875,-0.28128 l -5.97958,0 c -0.0623,-0.006 -0.12518,-0.006 -0.1875,0 z"/>
<path style="fill:url(#linearGradient18173)" d="m 120.32938,976.3765 c -0.33282,0.10664 -0.44483,0.61349 -0.18825,0.85184 l 3.01199,3.02879 c 0.27825,0.26531 0.83246,0.0383 0.84712,-0.34705 l 0,-3.02878 c -3e-5,-0.26431 -0.23916,-0.50477 -0.502,-0.5048 l -3.01199,0 c -0.0519,-0.008 -0.105,-0.008 -0.15687,0 z"/>
</g>
<g transform="translate(0 63.83982)">
<path style="fill:url(#linearGradient19517);line-height:normal;color:#000" d="m 18.00024,-57.8378 0,2 0,112 0,2 1.999997,0 88.000003,0 2,0 0,-2 0,-70 0,-0.8752 -0.62497,-0.6248 -41.750004,-42 -0.499969,-0.5 -0.875016,0 -46.250044,0 -1.999997,0 z"/>
<path style="fill:url(#linearGradient22252-4)" d="m 22.00016,-53.8378 42.235028,0 41.764972,42 0,66 -84,0 0,-108 z"/>
</g>
<g style="color:#000" transform="translate(0 63.83982)">
<path style="opacity:.25;fill:url(#linearGradient20895-1)" d="m 86.7072,-56.7071 23.6621,23.6621 -0.7072,0.7072 L 86,-56 z"/>
<path style="opacity:.25;fill:url(#linearGradient20897-3)" d="m 68.7072,-57.7071 41.6621,41.6621 -0.7072,0.7072 L 68,-57 z"/>
<rect width="109" x="-54.838" y="-18" height="1" style="opacity:.5;fill:url(#linearGradient20899-9)" transform="rotate(90)"/>
<rect width="92" x="-110" y="-59.162" height="1" style="opacity:.5;fill:url(#linearGradient19678)" transform="scale(-1)"/>
<rect width="32" x="-55" y="21.162" height="32" style="opacity:.15;fill:url(#linearGradient20903-8)" transform="scale(-1 1)"/>
<path style="opacity:.1;fill:url(#linearGradient20909-9)" d="m 66.7072,-52.7071 41.6621,41.6621 -0.7072,0.7072 L 66,-52 z"/>
<rect width="83.997" x="22" y="54.162" height="1" style="opacity:.2;fill:url(#linearGradient20911-5)"/>
<rect width="109" x="-54.838" y="-22" height="1" style="opacity:.2;fill:url(#linearGradient11309-4)" transform="rotate(90)"/>
<rect width="64.5" x="-10.338" y="-107" height="1" style="opacity:.2;fill:url(#linearGradient11311-5)" transform="rotate(90)"/>
<rect width="64.5" x="-10.338" y="-111" height="1" style="opacity:.5;fill:url(#linearGradient19680)" transform="rotate(90)"/>
</g>
<g transform="translate(0 63.83982)">
<use width="5033" height="1085" transform="matrix(-1 0 0 1 65 1102.8)"/>
</g>
<g transform="translate(0 64)">
<use width="5033" height="1085" transform="translate(62.99831 1102.6004)"/>
<use width="5033" height="1085" transform="translate(62.99831 1102.6004)"/>
<use width="5033" height="1085" transform="translate(62.99831 1102.6004)"/>
<use width="5033" height="1085" transform="translate(62.99831 1102.6004)"/>
<use width="5033" height="1085" transform="translate(62.99831 1102.6004)"/>
<use width="5033" height="1085" transform="translate(62.99831 1102.6004)"/>
<use width="5033" height="1085" transform="translate(62.99831 1102.6004)"/>
<use width="5033" height="1085" transform="translate(62.99831 1102.6004)"/>
<use width="5033" height="1085" transform="translate(62.99831 1102.6004)"/>
<use width="5033" height="1085" transform="translate(62.99831 1102.6004)"/>
<use width="5033" height="1085" transform="translate(62.99831 1102.6004)"/>
<use width="5033" height="1085" transform="translate(62.99831 1102.6004)"/>
<use width="5033" height="1085" transform="translate(62.99831 1102.6004)"/>
</g>
<g style="color:#000" transform="translate(-725.00168 1166.6004)">
<rect width="12.276" x="770.767" y="-1065.087" height="2.449" style="opacity:.5;fill:url(#radialGradient8951)"/>
<rect width="12.276" x="792.865" y="-1065.087" height="2.449" style="opacity:.5;fill:url(#radialGradient8953)"/>
<rect width="59.909" x="758" y="-1067.046" height="3.919" style="opacity:.4;fill:url(#radialGradient8955)"/>
</g>
<g style="fill:#4d4d4d" transform="translate(-725.00168 1166.6004)">
<path d="m 786.12122,-1071.6377 -12.12121,7.9999 4.8844,0 2.69908,-0.5569 9.4165,-7.443 z"/>
<path d="m 789.99999,-1071.6377 12,7.9999 -5.00561,0 -2.5431,-0.4389 -9.45128,-7.561 z"/>
</g>
<g transform="translate(-725.00168 1166.6004)">
<path style="fill:url(#linearGradient8957)" d="m 785.12121,-1071.6377 -12.12121,7.9999 5.87879,0 10.12122,-7.9999 -3.8788,0 z"/>
<rect width="6" x="785" y="-1073.638" height="3" style="fill:url(#linearGradient8959);color:#000"/>
<path style="fill:url(#linearGradient8961)" d="m 791,-1071.6377 12,7.9999 -6,0 -10.00001,-7.9999 4.00001,0 z"/>
</g>
<g style="color:#000">
<g transform="translate(-725.00168 1166.6004)">
<rect width="64" x="756" y="-1118.638" height="46" style="fill:#a33e03"/>
<rect width="60" x="758" y="-1116.638" rx="1" height="42" style="fill:url(#linearGradient8963)"/>
<rect width="60" x="758" y="-1116.638" rx="1" height="42" style="fill:url(#linearGradient8967)"/>
<rect width="15.675" x="-1090.313" y="-803.427" rx="2" height="31.427" style="fill:url(#radialGradient8965)" transform="rotate(90)"/>
<rect width="15" x="769" y="-1096.638" height="4" style="opacity:.75;fill:#fff"/>
<rect width="10" x="759" y="-1115.638" rx="1" height="40" style="opacity:.35;fill:url(#linearGradient8969)"/>
<rect width="10" x="-817" y="-1115.638" rx="1" height="40" style="opacity:.35;fill:url(#linearGradient8971)" transform="scale(-1 1)"/>
</g>
<g style="fill:#fff" transform="translate(-725.00168 1166.6004)">
<rect width="26" x="788" y="-1096.638" height="18" style="opacity:.75"/>
<rect width="15" x="769" y="-1089.638" height="4" style="opacity:.75"/>
</g>
<g transform="translate(-725.00168 1166.6004)">
<rect width="15" x="769" y="-1097.638" height="4" style="fill:url(#linearGradient8973)"/>
<rect width="15" x="769" y="-1082.638" height="4" style="opacity:.75;fill:#fff"/>
<rect width="15" x="769" y="-1090.638" height="4" style="fill:url(#linearGradient8975)"/>
<rect width="15" x="769" y="-1083.638" height="4" style="fill:url(#linearGradient8977)"/>
<path style="fill:#fff" d="m 901,651.75 a 5.5,5.2500028 0 1 1 -11,0 5.5,5.2500028 0 1 1 11,0 z" transform="matrix(.36364 0 0 .38095 438.364 -1342.92)"/>
<path style="fill:#d36118" d="m 901,651.75 a 5.5,5.2500028 0 1 1 -11,0 5.5,5.2500028 0 1 1 11,0 z" transform="matrix(.36364 0 0 .38095 438.364 -1343.92)"/>
<path style="fill:#fff" d="m 901,651.75 a 5.5,5.2500028 0 1 1 -11,0 5.5,5.2500028 0 1 1 11,0 z" transform="matrix(.36364 0 0 .38095 438.364 -1335.92)"/>
<path style="fill:#d36118" d="m 901,651.75 a 5.5,5.2500028 0 1 1 -11,0 5.5,5.2500028 0 1 1 11,0 z" transform="matrix(.36364 0 0 .38095 438.364 -1336.92)"/>
<path style="fill:#fff" d="m 901,651.75 a 5.5,5.2500028 0 1 1 -11,0 5.5,5.2500028 0 1 1 11,0 z" transform="matrix(.36364 0 0 .38095 438.364 -1328.92)"/>
<path style="fill:#d36118" d="m 901,651.75 a 5.5,5.2500028 0 1 1 -11,0 5.5,5.2500028 0 1 1 11,0 z" transform="matrix(.36364 0 0 .38095 438.364 -1329.92)"/>
<rect width="52" x="762" y="-1111.638" height="4" style="opacity:.75;fill:#fff"/>
<rect width="52" x="762" y="-1112.638" height="4" style="fill:url(#linearGradient8979)"/>
<rect width="26" x="788" y="-1097.638" height="18" style="fill:url(#linearGradient8981)"/>
<rect width="22" x="790" y="-1095.638" height="14" style="fill:#e6e6e6"/>
<rect width="22" x="790" y="-1095.638" height="14" style="fill:url(#linearGradient8983)"/>
<g style="opacity:.05" transform="matrix(.98413 0 0 1 277.412 -8.99993)">
<rect width="20.323" x="521.871" y="-1081.638" height="1"/>
<rect width="20.323" x="521.871" y="-1084.638" height="1"/>
<rect width="20.323" x="521.871" y="-1078.638" height="1"/>
<rect width="20.323" x="521.871" y="-1075.638" height="1"/>
</g>
</g>
</g>
<g transform="translate(-725.00168 1166.6004)">
<path style="fill:none;stroke:url(#linearGradient8985);stroke-linejoin:round;stroke-linecap:round;stroke-width:3" d="m 792.5,-1084.1378 5.5,-5.5 4,4 7.5,-7.5"/>
</g>
<g style="color:#000" transform="translate(-725.00168 1166.6004)">
<path style="fill:none;stroke:url(#linearGradient8988);stroke-linejoin:round;stroke-linecap:round;stroke-width:1.5" d="m 792.5,-1084.1378 5.5,-5.5 4,4 7.5,-7.5"/>
<rect width="32" x="772" y="-1104.638" height="4" style="opacity:.75;fill:#fff"/>
<rect width="32" x="772" y="-1105.638" height="4" style="fill:url(#linearGradient8991)"/>
<rect width="40" x="-1116.374" y="-817" height="1" style="opacity:.15;fill:url(#linearGradient8993)" transform="rotate(90)"/>
<rect width="40" x="-1116.374" y="-760" height="1" style="opacity:.15;fill:url(#linearGradient8995)" transform="rotate(90)"/>
<rect width="32" x="772" y="-1105.638" height="1" style="opacity:.5;fill:url(#linearGradient8997)"/>
<rect width="52" x="762" y="-1112.638" height="1" style="opacity:.25;fill:url(#linearGradient8999)"/>
<rect width="15" x="769" y="-1097.638" height="1" style="opacity:.5;fill:url(#linearGradient9001)"/>
<rect width="15" x="769" y="-1090.638" height="1" style="opacity:.5;fill:url(#linearGradient9003)"/>
<rect width="15" x="769" y="-1083.638" height="1" style="opacity:.5;fill:url(#linearGradient9005)"/>
<rect width="22" x="790" y="-1081.638" height="1" style="opacity:.5;fill:url(#linearGradient9007)"/>
<rect width="22" x="790" y="-1096.638" height="1" style="opacity:.25;fill:url(#linearGradient9009)"/>
<rect width="22.619" x="789.69" y="-1082.638" height="1" style="fill:url(#linearGradient9011)"/>
<rect width="60" x="758" y="1073.638" height="1" style="opacity:.5;fill:url(#linearGradient9013)" transform="scale(1 -1)"/>
</g>
</svg>
