<svg width="128" xmlns="http://www.w3.org/2000/svg" height="128" viewBox="0 0 128 128" xmlns:xlink="http://www.w3.org/1999/xlink">
<defs>
<linearGradient gradientTransform="matrix(3 0 0 3.11112 -10 -4.88888)" id="linear0" y1="13.571" x1="25.556" y2="5.857" gradientUnits="userSpaceOnUse" x2="33.556">
<stop offset="0" style="stop-color:#000"/>
<stop offset="1" style="stop-color:#000;stop-opacity:0"/>
</linearGradient>
<radialGradient cx="24" cy="24" gradientTransform="matrix(4.08888 1.42221 -1.62904 4.68347 4.96347 -82.53661)" id="radial0" r="15" gradientUnits="userSpaceOnUse">
<stop offset="0" style="stop-color:#e4e5e2"/>
<stop offset=".5" style="stop-color:#d6d9d2"/>
<stop offset="1" style="stop-color:#b7beb1"/>
</radialGradient>
</defs>
<path style="fill:url(#radial0)" d="M 27.605469 10.671875 C 25.640625 10.875 23.988281 12.710938 24 14.671875 L 24 113.332031 C 24 115.429688 25.917969 117.332031 28.023438 117.332031 L 99.976562 117.332031 C 102.082031 117.332031 104 115.429688 104 113.332031 L 104 24 L 85.332031 10.667969 L 28.023438 10.671875 C 27.886719 10.664062 27.746094 10.664062 27.605469 10.671875 Z "/>
<path style="fill:url(#linear0)" d="M 85.332031 10.667969 L 85.332031 24 L 104 24 L 104 20 L 89 10.667969 Z "/>
<path style="fill:#204a86;fill-opacity:.8" d="M 66.667969 39.917969 L 42.667969 40 L 42.667969 58.667969 L 66.667969 58.582031 Z M 69.332031 39.917969 L 69.332031 42.582031 L 80 42.667969 L 80 40 Z M 69.332031 45.25 L 69.332031 47.917969 L 85.332031 48 L 85.332031 45.332031 Z M 69.332031 50.582031 L 69.332031 53.25 L 88 53.332031 L 88 50.667969 Z M 69.332031 55.917969 L 69.332031 58.582031 L 88 58.667969 L 88 56 Z M 42.667969 61.332031 L 42.667969 64 L 85.332031 64 L 85.332031 61.332031 Z M 42.667969 66.667969 L 42.667969 69.332031 L 82.667969 69.332031 L 82.667969 66.667969 Z M 42.667969 72 L 42.667969 74.667969 L 80 74.667969 L 80 72 Z M 42.667969 77.332031 L 42.667969 80 L 66.667969 80 L 66.667969 77.332031 Z M 69.332031 77.332031 L 69.332031 80 L 82.667969 80 L 82.667969 77.332031 Z M 42.667969 82.667969 L 42.667969 85.332031 L 66.667969 85.332031 L 66.667969 82.667969 Z M 72 82.667969 L 72 85.332031 L 85.332031 85.332031 L 85.332031 82.667969 Z M 42.667969 88 L 42.667969 90.667969 L 66.667969 90.667969 L 66.667969 88 Z M 74.667969 88 L 74.667969 90.667969 L 88 90.667969 L 88 88 Z "/>
</svg>
