<svg width="128" xmlns="http://www.w3.org/2000/svg" height="128" viewBox="0 0 128 128" xmlns:xlink="http://www.w3.org/1999/xlink">
<defs>
<linearGradient gradientTransform="matrix(1.32824 0 0 1.32824 -39.80725 2.69701)" id="linear0" y1="14" x1="102" y2="24" gradientUnits="userSpaceOnUse" x2="92">
<stop offset="0" style="stop-color:#c8c8c8"/>
<stop offset="1" style="stop-color:#efefef"/>
</linearGradient>
<linearGradient gradientTransform="matrix(.91955 0 0 .91955 5.14837 -267.95621)" id="linear1" y1="413" y2="419" gradientUnits="userSpaceOnUse" x2="0">
<stop offset="0" style="stop-color:#5baf34"/>
<stop offset=".5" style="stop-color:#4c902a"/>
<stop offset="1" style="stop-color:#396c20"/>
</linearGradient>
</defs>
<path style="fill:#e5e5e5" d="M 21.699219 117.332031 L 89.746094 117.332031 C 106.296875 117.332031 106.296875 100.78125 106.296875 100.78125 L 106.296875 34.574219 C 106.296875 34.574219 82.390625 10.667969 82.390625 10.667969 L 38.253906 10.667969 C 38.253906 10.667969 21.699219 10.667969 21.699219 27.21875 Z "/>
<path style="fill:url(#linear0)" d="M 82.390625 10.667969 L 82.390625 34.574219 L 106.296875 34.574219 Z "/>
<path style="fill:url(#linear1)" d="M 21.699219 117.332031 L 89.746094 117.332031 C 106.296875 117.332031 106.296875 100.78125 106.296875 100.78125 C 106.296875 100.78125 106.296875 86.070312 106.296875 86.070312 C 106.296875 86.070312 106.296875 111.816406 89.746094 111.816406 L 38.253906 111.816406 C 38.253906 111.816406 21.699219 111.816406 21.699219 117.332031 Z "/>
<path style="fill:#5baf34" d="M 37.332031 49.1875 L 37.332031 78.8125 L 55.109375 78.8125 L 55.109375 61.039062 L 46.222656 61.039062 L 46.222656 66.960938 L 49.183594 66.960938 L 49.183594 72.886719 L 43.257812 72.886719 L 43.257812 55.113281 L 55.109375 55.113281 L 55.109375 49.1875 Z M 61.035156 49.1875 L 61.035156 78.8125 L 66.964844 78.8125 L 66.964844 49.1875 Z M 72.890625 49.1875 L 72.890625 78.8125 L 78.816406 78.8125 L 78.816406 66.960938 L 90.667969 66.960938 L 90.667969 61.039062 L 78.816406 61.039062 L 78.816406 55.113281 L 90.667969 55.113281 L 90.667969 49.1875 Z "/>
</svg>
