<svg width="128" xmlns="http://www.w3.org/2000/svg" height="128" viewBox="0 0 128 128" xmlns:xlink="http://www.w3.org/1999/xlink">
<defs>
<linearGradient gradientTransform="matrix(1.32824 0 0 1.32824 -39.80725 2.69701)" id="linear0" y1="14" x1="102" y2="24" gradientUnits="userSpaceOnUse" x2="92">
<stop offset="0" style="stop-color:#c8c8c8"/>
<stop offset="1" style="stop-color:#efefef"/>
</linearGradient>
<linearGradient gradientTransform="matrix(.91955 0 0 .91955 5.14837 -267.95621)" id="linear1" y1="413" y2="419" gradientUnits="userSpaceOnUse" x2="0">
<stop offset="0" style="stop-color:#5baf34"/>
<stop offset=".5" style="stop-color:#4c902a"/>
<stop offset="1" style="stop-color:#396c20"/>
</linearGradient>
</defs>
<path style="fill:#e5e5e5" d="M 21.699219 117.332031 L 89.746094 117.332031 C 106.296875 117.332031 106.296875 100.78125 106.296875 100.78125 L 106.296875 34.574219 C 106.296875 34.574219 82.390625 10.667969 82.390625 10.667969 L 38.253906 10.667969 C 38.253906 10.667969 21.699219 10.667969 21.699219 27.21875 Z "/>
<path style="fill:url(#linear0)" d="M 82.390625 10.667969 L 82.390625 34.574219 L 106.296875 34.574219 Z "/>
<path style="fill:url(#linear1)" d="M 21.699219 117.332031 L 89.746094 117.332031 C 106.296875 117.332031 106.296875 100.78125 106.296875 100.78125 C 106.296875 100.78125 106.296875 86.070312 106.296875 86.070312 C 106.296875 86.070312 106.296875 111.816406 89.746094 111.816406 L 38.253906 111.816406 C 38.253906 111.816406 21.699219 111.816406 21.699219 117.332031 Z "/>
<path style="fill:#5baf34" d="M 37.332031 51.878906 L 37.332031 76.121094 L 42.183594 76.121094 L 42.183594 66.425781 L 51.878906 66.425781 L 51.878906 51.878906 Z M 56.726562 51.878906 L 56.726562 76.121094 L 61.574219 76.121094 L 61.574219 64 L 66.425781 76.121094 L 71.273438 76.121094 L 71.273438 51.878906 L 66.425781 51.878906 L 66.425781 64 L 61.574219 51.878906 Z M 76.121094 51.878906 L 76.121094 76.121094 L 90.667969 76.121094 L 90.667969 61.574219 L 83.394531 61.574219 L 83.394531 66.425781 L 85.816406 66.425781 L 85.816406 71.273438 L 80.96875 71.273438 L 80.96875 56.726562 L 90.667969 56.726562 L 90.667969 51.878906 Z M 42.183594 56.726562 L 47.03125 56.726562 L 47.03125 61.574219 L 42.183594 61.574219 Z "/>
</svg>
