<svg width="128" xmlns="http://www.w3.org/2000/svg" height="128" viewBox="0 0 128 128" xmlns:xlink="http://www.w3.org/1999/xlink">
<defs>
<linearGradient gradientTransform="matrix(1.32824 0 0 1.32824 -39.80725 2.69701)" id="linear0" y1="14" x1="102" y2="24" gradientUnits="userSpaceOnUse" x2="92">
<stop offset="0" style="stop-color:#c8c8c8"/>
<stop offset="1" style="stop-color:#efefef"/>
</linearGradient>
<linearGradient gradientTransform="matrix(.91955 0 0 .91955 5.14837 -267.95621)" id="linear1" y1="413" y2="419" gradientUnits="userSpaceOnUse" x2="0">
<stop offset="0" style="stop-color:#5baf34"/>
<stop offset=".5" style="stop-color:#4c902a"/>
<stop offset="1" style="stop-color:#396c20"/>
</linearGradient>
</defs>
<path style="fill:#e5e5e5" d="M 21.699219 117.332031 L 89.746094 117.332031 C 106.296875 117.332031 106.296875 100.78125 106.296875 100.78125 L 106.296875 34.574219 C 106.296875 34.574219 82.390625 10.667969 82.390625 10.667969 L 38.253906 10.667969 C 38.253906 10.667969 21.699219 10.667969 21.699219 27.21875 Z "/>
<path style="fill:url(#linear0)" d="M 82.390625 10.667969 L 82.390625 34.574219 L 106.296875 34.574219 Z "/>
<path style="fill:url(#linear1)" d="M 21.699219 117.332031 L 89.746094 117.332031 C 106.296875 117.332031 106.296875 100.78125 106.296875 100.78125 C 106.296875 100.78125 106.296875 86.070312 106.296875 86.070312 C 106.296875 86.070312 106.296875 111.816406 89.746094 111.816406 L 38.253906 111.816406 C 38.253906 111.816406 21.699219 111.816406 21.699219 117.332031 Z "/>
<g style="fill:#5baf34">
<path d="M 41.027344 37.328125 C 39.15625 37.507812 37.539062 39.488281 37.574219 41.601562 L 37.574219 86.496094 C 37.59375 88.707031 39.367188 90.695312 41.332031 90.664062 L 87.007812 90.664062 C 88.945312 90.628906 90.644531 88.671875 90.667969 86.496094 L 90.667969 41.601562 C 90.695312 39.390625 88.976562 37.351562 87.007812 37.328125 Z M 44.175781 43.996094 L 84.035156 43.996094 L 84.035156 77.328125 L 44.175781 77.328125 Z "/>
<path style="fill-rule:evenodd" d="M 39.894531 70.355469 C 40.65625 69.777344 39.867188 68.128906 42.765625 65.238281 C 45.65625 62.339844 49.523438 58.371094 54.53125 53.160156 C 57.804688 57.808594 60.21875 61.195312 62 63.398438 C 63.738281 65.585938 64.703125 66.519531 64.9375 66.261719 C 66.792969 64.601562 68.347656 63.195312 69.691406 61.960938 C 71.015625 60.726562 72.042969 59.703125 72.855469 58.894531 C 76.925781 64.011719 80.304688 68.230469 83.265625 71.792969 C 86.175781 75.328125 88.484375 78.007812 90.277344 79.976562 L 83.871094 83.46875 C 82.953125 85.84375 82.191406 83.292969 80.074219 83.414062 C 77.917969 83.484375 78.863281 85.023438 76.199219 84.542969 C 73.523438 84.054688 69.425781 87.101562 67.042969 86.292969 C 64.644531 85.425781 56.890625 82.789062 54.621094 81.90625 C 52.332031 81.039062 46.207031 82.429688 43.765625 83.296875 C 41.128906 84.585938 41.542969 69.058594 38.898438 70.359375 Z "/>
</g>
</svg>
