<svg width="128" xmlns="http://www.w3.org/2000/svg" height="128" viewBox="0 0 128 128" xmlns:xlink="http://www.w3.org/1999/xlink">
<defs>
<linearGradient gradientTransform="matrix(3 0 0 3.11112 -10 -4.88888)" id="linear0" y1="13.571" x1="25.556" y2="5.857" gradientUnits="userSpaceOnUse" x2="33.556">
<stop offset="0" style="stop-color:#000"/>
<stop offset="1" style="stop-color:#000;stop-opacity:0"/>
</linearGradient>
<radialGradient cx="24" cy="24" gradientTransform="matrix(4.08888 1.42221 -1.62904 4.68347 4.96347 -82.53661)" id="radial0" r="15" gradientUnits="userSpaceOnUse">
<stop offset="0" style="stop-color:#e4e5e2"/>
<stop offset=".5" style="stop-color:#d6d9d2"/>
<stop offset="1" style="stop-color:#b7beb1"/>
</radialGradient>
</defs>
<path style="fill:url(#radial0)" d="M 27.605469 10.671875 C 25.640625 10.875 23.988281 12.710938 24 14.671875 L 24 113.332031 C 24 115.429688 25.917969 117.332031 28.023438 117.332031 L 99.976562 117.332031 C 102.082031 117.332031 104 115.429688 104 113.332031 L 104 24 L 85.332031 10.667969 L 28.023438 10.671875 C 27.886719 10.664062 27.746094 10.664062 27.605469 10.671875 Z "/>
<path style="fill:url(#linear0)" d="M 85.332031 10.667969 L 85.332031 24 L 104 24 L 104 20 L 89 10.667969 Z "/>
<path style="fill:#3464a3" d="M 46.792969 88.085938 L 46.792969 54.667969 L 37.9375 60.171875 L 32 49.109375 L 46.453125 40.128906 L 54.21875 39.972656 C 59.675781 43.199219 69.28125 42.707031 73.945312 39.972656 L 81.445312 39.890625 L 96 48.617188 L 90.082031 59.648438 L 81.953125 54.597656 L 81.953125 88.109375 Z "/>
</svg>
