<svg width="128" xmlns="http://www.w3.org/2000/svg" height="128" viewBox="0 0 128 128" xmlns:xlink="http://www.w3.org/1999/xlink">
<defs>
<linearGradient gradientTransform="matrix(3 0 0 3.11112 -10 -4.88888)" id="linear0" y1="13.571" x1="25.556" y2="5.857" gradientUnits="userSpaceOnUse" x2="33.556">
<stop offset="0" style="stop-color:#000"/>
<stop offset="1" style="stop-color:#000;stop-opacity:0"/>
</linearGradient>
<radialGradient cx="24" cy="24" gradientTransform="matrix(4.08888 1.42221 -1.62904 4.68347 4.96347 -82.53661)" id="radial0" r="15" gradientUnits="userSpaceOnUse">
<stop offset="0" style="stop-color:#e4e5e2"/>
<stop offset=".5" style="stop-color:#d6d9d2"/>
<stop offset="1" style="stop-color:#b7beb1"/>
</radialGradient>
</defs>
<path style="fill:url(#radial0)" d="M 27.605469 10.671875 C 25.640625 10.875 23.988281 12.710938 24 14.671875 L 24 113.332031 C 24 115.429688 25.917969 117.332031 28.023438 117.332031 L 99.976562 117.332031 C 102.082031 117.332031 104 115.429688 104 113.332031 L 104 24 L 85.332031 10.667969 L 28.023438 10.671875 C 27.886719 10.664062 27.746094 10.664062 27.605469 10.671875 Z "/>
<path style="fill:url(#linear0)" d="M 85.332031 10.667969 L 85.332031 24 L 104 24 L 104 20 L 89 10.667969 Z "/>
<path style="fill:#545653" d="M 58.328125 64.097656 C 58.328125 66.71875 58.851562 68.785156 59.898438 70.296875 C 60.960938 71.8125 62.402344 72.566406 64.210938 72.566406 C 66 72.566406 67.429688 71.8125 68.496094 70.296875 C 69.558594 68.765625 70.09375 66.695312 70.09375 64.097656 C 70.09375 61.515625 69.550781 59.480469 68.464844 57.988281 C 67.398438 56.476562 65.960938 55.71875 64.152344 55.71875 C 62.378906 55.71875 60.960938 56.476562 59.898438 57.988281 C 58.851562 59.480469 58.328125 61.515625 58.328125 64.097656 M 70.695312 73.71875 C 70.09375 75.230469 69.117188 76.414062 67.769531 77.265625 C 66.441406 78.097656 64.882812 78.515625 63.09375 78.515625 C 59.636719 78.515625 56.820312 77.191406 54.648438 74.550781 C 52.496094 71.886719 51.421875 68.421875 51.421875 64.160156 C 51.421875 59.898438 52.507812 56.433594 54.679688 53.769531 C 56.851562 51.105469 59.65625 49.773438 63.09375 49.773438 C 64.882812 49.773438 66.441406 50.199219 67.769531 51.050781 C 69.117188 51.90625 70.09375 53.089844 70.695312 54.601562 L 70.695312 50.414062 L 77 50.414062 L 77 72.566406 C 79.496094 72.164062 81.457031 70.894531 82.882812 68.765625 C 84.3125 66.609375 85.023438 63.859375 85.023438 60.515625 C 85.023438 58.382812 84.734375 56.390625 84.152344 54.539062 C 83.566406 52.660156 82.683594 50.945312 81.496094 49.390625 C 79.585938 46.789062 77.191406 44.785156 74.316406 43.378906 C 71.460938 41.972656 68.363281 41.269531 65.023438 41.269531 C 62.691406 41.269531 60.460938 41.601562 58.328125 42.261719 C 56.195312 42.898438 54.226562 43.847656 52.417969 45.105469 C 49.441406 47.195312 47.117188 49.902344 45.449219 53.226562 C 43.796875 56.53125 42.976562 60.109375 42.976562 63.96875 C 42.976562 67.144531 43.507812 70.128906 44.574219 72.917969 C 45.660156 75.691406 47.21875 78.140625 49.25 80.273438 C 51.261719 82.363281 53.5625 83.949219 56.15625 85.035156 C 58.773438 86.144531 61.558594 86.699219 64.511719 86.699219 C 67.046875 86.699219 69.582031 86.199219 72.113281 85.195312 C 74.648438 84.195312 76.808594 82.839844 78.601562 81.136719 L 81.828125 86.316406 C 79.3125 88.382812 76.570312 89.960938 73.59375 91.046875 C 70.636719 92.15625 67.628906 92.707031 64.574219 92.707031 C 60.851562 92.707031 57.34375 92.003906 54.046875 90.597656 C 50.746094 89.214844 47.8125 87.1875 45.238281 84.523438 C 42.664062 81.859375 40.703125 78.78125 39.355469 75.285156 C 38.007812 71.769531 37.332031 67.996094 37.332031 63.96875 C 37.332031 60.089844 38.015625 56.390625 39.386719 52.875 C 40.753906 49.359375 42.703125 46.265625 45.238281 43.605469 C 47.769531 40.960938 50.71875 38.914062 54.074219 37.464844 C 57.453125 36.015625 60.953125 35.292969 64.574219 35.292969 C 69.078125 35.292969 73.171875 36.207031 76.851562 38.039062 C 80.53125 39.851562 83.605469 42.472656 86.082031 45.90625 C 87.589844 47.992188 88.726562 50.261719 89.492188 52.714844 C 90.273438 55.144531 90.667969 57.703125 90.667969 60.386719 C 90.667969 66.164062 89.027344 70.648438 85.75 73.847656 C 82.472656 77.042969 77.847656 78.640625 71.875 78.640625 L 70.695312 78.640625 L 70.695312 73.71875 "/>
</svg>
