<svg width="32" xmlns="http://www.w3.org/2000/svg" height="32" viewBox="0 0 32 32" xmlns:xlink="http://www.w3.org/1999/xlink">
<g style="stroke:#777">
<path style="fill:#fff;stroke-width:.5" d="M 25.932953 35.186401 C 25.932953 42.095309 20.446393 47.695712 13.677926 47.695712 C 6.90946 47.695712 1.4229 42.095309 1.4229 35.186401 C 1.4229 28.277492 6.90946 22.677089 13.677926 22.677089 C 20.446393 22.677089 25.932953 28.277492 25.932953 35.186401 Z " transform="matrix(1.06653 0 0 1.04485 1.41213 -20.76439)"/>
<path style="fill:#bebebe" d="M 21.498047 12.498047 C 19.839844 12.498047 18.498047 13.78125 18.498047 15.375 L 18.498047 21.123047 C 16.839844 21.123047 14.501953 22.40625 14.501953 24 L 14.501953 32.625 C 14.501953 34.21875 16.839844 35.501953 18.498047 35.501953 L 30.498047 35.501953 C 32.162109 35.501953 33.498047 34.21875 33.498047 32.625 L 33.498047 24 C 33.498047 22.40625 32.162109 21.123047 30.498047 21.123047 L 30.498047 15.375 C 30.498047 13.78125 29.162109 12.498047 27.498047 12.498047 Z M 22.998047 15.375 L 25.998047 15.375 C 26.830078 15.375 27.498047 16.013672 27.498047 16.810547 L 27.498047 21.123047 L 21.498047 21.123047 L 21.498047 16.810547 C 21.498047 16.013672 22.171875 15.375 22.998047 15.375 Z " transform="scale(.66667)"/>
</g>
</svg>
