<?xml version="1.0" encoding="UTF-8" standalone="no"?>
<svg
   xmlns:dc="http://purl.org/dc/elements/1.1/"
   xmlns:cc="http://creativecommons.org/ns#"
   xmlns:rdf="http://www.w3.org/1999/02/22-rdf-syntax-ns#"
   xmlns:svg="http://www.w3.org/2000/svg"
   xmlns="http://www.w3.org/2000/svg"
   xmlns:sodipodi="http://sodipodi.sourceforge.net/DTD/sodipodi-0.dtd"
   xmlns:inkscape="http://www.inkscape.org/namespaces/inkscape"
   width="32"
   height="32"
   viewBox="0 0 32 32"
   id="svg2"
   version="1.1"
   inkscape:version="0.91 r"
   sodipodi:docname="emblem-dropbox-app.svg">
  <metadata
     id="metadata16">
    <rdf:RDF>
      <cc:Work
         rdf:about="">
        <dc:format>image/svg+xml</dc:format>
        <dc:type
           rdf:resource="http://purl.org/dc/dcmitype/StillImage" />
        <dc:title></dc:title>
      </cc:Work>
    </rdf:RDF>
  </metadata>
  <defs
     id="defs14" />
  <sodipodi:namedview
     pagecolor="#ffffff"
     bordercolor="#666666"
     borderopacity="1"
     objecttolerance="10"
     gridtolerance="10"
     guidetolerance="10"
     inkscape:pageopacity="0"
     inkscape:pageshadow="2"
     inkscape:window-width="1920"
     inkscape:window-height="1056"
     id="namedview12"
     showgrid="true"
     inkscape:zoom="29.5"
     inkscape:cx="16.651065"
     inkscape:cy="12.340436"
     inkscape:window-x="0"
     inkscape:window-y="24"
     inkscape:window-maximized="1"
     inkscape:current-layer="svg2">
    <inkscape:grid
       type="xygrid"
       id="grid4169" />
  </sodipodi:namedview>
  <path
     style="fill:#fff;stroke:#777;stroke-width:.5"
     d="M 25.932953 35.186401 C 25.932953 42.095309 20.446393 47.695712 13.677926 47.695712 C 6.90946 47.695712 1.4229 42.095309 1.4229 35.186401 C 1.4229 28.277492 6.90946 22.677089 13.677926 22.677089 C 20.446393 22.677089 25.932953 28.277492 25.932953 35.186401 Z "
     transform="matrix(1.06653 0 0 1.04485 1.41213 -20.76439)"
     id="path4" />
  <path
     id="polygon4880"
     d="M 12.498277,9.223001 7.509,12.480873 l 3.450448,2.763182 5.029909,-3.10593 -3.49108,-2.915124 z m 3.49108,2.915124 5.029914,3.10593 3.450443,-2.763182 -4.989277,-3.257872 -3.49108,2.915124 z m 5.029914,3.10593 -5.029914,3.105932 3.49108,2.915122 4.989277,-3.25787 -3.450443,-2.763184 z m -5.029914,3.105932 -5.029909,-3.105932 -3.450448,2.763184 4.989277,3.25787 3.49108,-2.915122 z m 0.01058,0.627192 -3.501682,2.90629 -1.498197,-0.978775 0,1.097146 4.999878,2.99816 4.999876,-2.99816 0,-1.097146 -1.498197,0.978775 -3.501679,-2.90629 z"
     style="fill:#427fed;fill-opacity:1"
     inkscape:connector-curvature="0" />
</svg>
