<svg xmlns="http://www.w3.org/2000/svg" viewBox="0 0 48 48">
 <defs>
  <radialGradient id="radialGradient3850" cx="24.08" cy="41.38" r="21.08" gradientTransform="matrix(1,0,0,0.11307633,0,36.703704)" gradientUnits="userSpaceOnUse">
   <stop style="stop-color:#000;stop-opacity:0.392"/>
   <stop offset="1" style="stop-color:#000;stop-opacity:0"/>
  </radialGradient>
 </defs>
 <g>
  <path d="m 45.15 41.38 a 21.08 2.383 0 1 1 -42.15 0 21.08 2.383 0 1 1 42.15 0 z" transform="matrix(1.1387537,0,0,1.0490275,-3.4162611,-1.9120725)" style="fill:url(#radialGradient3850);opacity:0.65;fill-opacity:1;stroke:none"/>
 </g>
 <g transform="translate(0,-1004.3622)">
  <path d="m 3 1014.36 0 28 42 0 0 -14 -2 -12 -16 0 -2 -4 -20 0 c -1 0 -2 1 -2 2 z" style="fill:#ef6c00;fill-opacity:1;stroke:none"/>
  <rect width="21" height="8" x="6" y="1017.36" style="fill:#fffdf0;fill-opacity:1;stroke:none"/>
  <path d="M 5,8 C 4,8 3,9 3,10 l 0,1 C 3,10 4,9 5,9 l 19,0 2,4 17,0 2,12 0,-1 -2,-12 -16,0 -2,-4 z" transform="translate(0,1004.3622)" style="fill:#000;opacity:0.03;fill-opacity:1;stroke:none"/>
  <path d="m 45 1018.36 0 28 -42 0 0 -26 20 0 2 -4 18 0 c 1 0 2 1 2 2 z" style="fill:#ffa726;fill-opacity:1;stroke:none"/>
  <path d="m 3 1045.36 0 1 42 0 0 -1 z" style="fill:#000;opacity:0.15;fill-opacity:1;stroke:none"/>
  <path d="m 25 12 -2 4 -20 0 0 1 21 0 2 -4 17 0 c 1 0 2 1 2 2 l 0 -1 c 0 -1 -1 -2 -2 -2 z" transform="translate(0,1004.3622)" style="fill:#000;opacity:0.03;fill-opacity:1;stroke:none"/>
  <g transform="translate(37.390159,1.4935977)" style="opacity:1">
   <path transform="matrix(1.6457927,0,0,1.7226703,-7.161196,1022.6419)" d="m -5 8.259 c 0 0.962 -0.816 1.741 -1.823 1.741 -1.01 0 -1.823 -0.78 -1.823 -1.741 0 -0.962 0.816 -1.741 1.823 -1.741 1.01 0 1.823 0.78 1.823 1.741 z" style="fill:#b17621;fill-opacity:1;stroke:none"/>
   <path d="m -5 8.259 c 0 0.962 -0.816 1.741 -1.823 1.741 -1.01 0 -1.823 -0.78 -1.823 -1.741 0 -0.962 0.816 -1.741 1.823 -1.741 1.01 0 1.823 0.78 1.823 1.741 z" transform="matrix(1.6457927,0,0,1.7226703,2.838804,1022.6419)" style="fill:#b17621;fill-opacity:1;stroke:none"/>
   <rect rx="1" y="1025.87" x="-17.39" height="12" width="2" style="fill:#b17621;fill-opacity:1;stroke:none"/>
   <rect width="2" height="12" x="-7.39" y="1025.87" rx="1" style="fill:#b17621;fill-opacity:1;stroke:none"/>
   <rect rx="2" y="1023.87" x="-17.39" height="5" width="12" style="fill:#b17621;fill-opacity:1;stroke:none"/>
  </g>
 </g>
</svg>
