<svg xmlns="http://www.w3.org/2000/svg" viewBox="0 0 48 48">
 <defs>
  <radialGradient id="radialGradient3850" cx="24.08" cy="41.38" r="21.08" gradientTransform="matrix(1,0,0,0.11307633,0,36.703704)" gradientUnits="userSpaceOnUse">
   <stop style="stop-color:#000;stop-opacity:0.392"/>
   <stop offset="1" style="stop-color:#000;stop-opacity:0"/>
  </radialGradient>
 </defs>
 <g>
  <path d="m 45.15 41.38 a 21.08 2.383 0 1 1 -42.15 0 21.08 2.383 0 1 1 42.15 0 z" transform="matrix(1.1387537,0,0,1.0490275,-3.4162611,-1.9120725)" style="fill:url(#radialGradient3850);opacity:0.65;fill-opacity:1;stroke:none"/>
 </g>
 <g transform="translate(0,-1004.3622)">
  <path d="m 3 1014.36 0 28 42 0 0 -14 -2 -12 -16 0 -2 -4 -20 0 c -1 0 -2 1 -2 2 z" style="fill:#388e3c;fill-opacity:1;stroke:none"/>
  <rect width="21" height="8" x="6" y="1017.36" style="fill:#fffdf0;fill-opacity:1;stroke:none"/>
  <path d="M 5,8 C 4,8 3,9 3,10 l 0,1 C 3,10 4,9 5,9 l 19,0 2,4 17,0 2,12 0,-1 -2,-12 -16,0 -2,-4 z" transform="translate(0,1004.3622)" style="fill:#000;opacity:0.03;fill-opacity:1;stroke:none"/>
  <path d="m 45 1018.36 0 28 -42 0 0 -26 20 0 2 -4 18 0 c 1 0 2 1 2 2 z" style="fill:#66bb6a;fill-opacity:1;stroke:none"/>
  <path d="m 3 1045.36 0 1 42 0 0 -1 z" style="fill:#000;opacity:0.15;fill-opacity:1;stroke:none"/>
  <path d="m 25 12 -2 4 -20 0 0 1 21 0 2 -4 17 0 c 1 0 2 1 2 2 l 0 -1 c 0 -1 -1 -2 -2 -2 z" transform="translate(0,1004.3622)" style="fill:#000;opacity:0.03;fill-opacity:1;stroke:none"/>
  <g transform="translate(38.421265,-0.1145)" style="opacity:1">
   <g transform="translate(-22.421265,1025.4767)" style="fill:#448647;fill-opacity:1">
    <g transform="translate(0,-1036.3622)" style="fill-rule:evenodd">
     <path d="m 0.045 1046.8 c 0.229 -0.168 0.76 -0.668 1.63 -1.533 0.867 -0.87 2.027 -2.06 3.529 -3.624 0.983 1.398 1.706 2.406 2.241 3.069 0.522 0.655 0.812 0.942 0.882 0.862 0.555 -0.497 1.023 -0.92 1.426 -1.29 0.397 -0.37 0.705 -0.674 0.949 -0.922 1.221 1.536 2.235 2.801 3.123 3.87 0.873 1.061 1.566 1.864 2.103 2.455 l -3.324 -2.762 c -0.275 0.707 -0.723 1.072 -1.358 1.105 -0.653 0.019 -1.645 -0.773 -2.445 -0.92 -0.8 -0.146 -1.597 0.304 -2.308 0.061 -0.727 -0.257 -1.288 -1.273 -1.969 -1.536 -0.684 -0.26 -1.377 -0.26 -2.103 0 -0.791 0.387 -1.581 0.776 -2.375 1.166 z"/>
     <path d="m 0 1046.36 5 -5 3.282 3.678 2.218 -2.178 5.5 6.5 -3 2 -11 0 z"/>
    </g>
   </g>
   <path d="m -20.421 1025.48 c -1.108 0 -2 0.892 -2 2 l 0 12 c 0 1.108 0.892 2 2 2 l 12 0 c 1.108 0 2 -0.892 2 -2 l 0 -12 c 0 -1.108 -0.892 -2 -2 -2 l -12 0 z m 0 2 12 0 0 12 -12 0 0 -12 z" style="fill:#448647;fill-opacity:1"/>
  </g>
 </g>
</svg>
