<svg xmlns="http://www.w3.org/2000/svg" viewBox="0 0 48 48" xmlns:xlink="http://www.w3.org/1999/xlink">
<g style="fill:#54a3de" transform="matrix(.06954 0 0 .06936 18.46114 -71.62294)">
<path d="m 56.158741,1617.7293 0,-135.3604 -128.289364,0 22.332934,-38.6818 41.0541297,0 -59.4999537,-103.0569 -130.156187,0 28.36488,16.3764 -37.90806,65.6587 101.79851,176.3202 9.684027,16.7732 2.4043,4.1644 z"/>
<path d="m 290.22673,1300.6731 -117.22554,67.6802 64.14468,111.1018 -44.66589,0 -20.52706,-35.5539 -59.49992,103.0569 65.07809,112.7186 -6e-5,-32.7529 75.81613,0 101.79852,-176.3202 9.68401,-16.7732 2.40432,-4.1644 z"/>
<path d="m -101.71339,1228.6175 117.225538,67.6802 64.14467,-111.1018 22.332952,38.6818 -20.527092,35.5539 118.999892,0 65.07813,-112.7186 -28.36481,16.3766 -37.90807,-65.6587 -203.597073,0 -19.368019,0 -4.80864,0 z"/>
</g>
<path style="fill:#ef2929;color:#bebebe" d="m 31.226962,22.701412 0.555556,13.298988 3.333331,0 0.555558,-13.298988 -4.444445,0 z m 0,15.515486 0,4.432995 4.444445,0 0,-4.432995 -4.444445,0 z"/>
</svg>
