<?xml version="1.0" encoding="UTF-8" standalone="no"?>
<svg
   xmlns:dc="http://purl.org/dc/elements/1.1/"
   xmlns:cc="http://creativecommons.org/ns#"
   xmlns:rdf="http://www.w3.org/1999/02/22-rdf-syntax-ns#"
   xmlns:svg="http://www.w3.org/2000/svg"
   xmlns="http://www.w3.org/2000/svg"
   xmlns:sodipodi="http://sodipodi.sourceforge.net/DTD/sodipodi-0.dtd"
   xmlns:inkscape="http://www.inkscape.org/namespaces/inkscape"
   width="64px"
   height="64px"
   viewBox="0 0 48 48"
   version="1.1"
   id="svg122"
   inkscape:version="0.91 r"
   sodipodi:docname="face-worried.svg">
  <metadata
     id="metadata137">
    <rdf:RDF>
      <cc:Work
         rdf:about="">
        <dc:format>image/svg+xml</dc:format>
        <dc:type
           rdf:resource="http://purl.org/dc/dcmitype/StillImage" />
      </cc:Work>
    </rdf:RDF>
  </metadata>
  <defs
     id="defs135" />
  <sodipodi:namedview
     pagecolor="#ffffff"
     bordercolor="#666666"
     borderopacity="1"
     objecttolerance="10"
     gridtolerance="10"
     guidetolerance="10"
     inkscape:pageopacity="0"
     inkscape:pageshadow="2"
     inkscape:window-width="640"
     inkscape:window-height="480"
     id="namedview133" />
  <g
     id="surface1">
    <path
       style=" stroke:none;fill-rule:nonzero;fill:rgb(100%,85.490196%,36.862745%);fill-opacity:1;"
       d="M 42 24 C 42 32.5625 33.941406 39.5 24 39.5 C 14.058594 39.5 6 32.5625 6 24 C 6 15.441406 14.058594 8.5 24 8.5 C 33.941406 8.5 42 15.441406 42 24 Z M 42 24 "
       id="path125" />
    <path
       style=" stroke:none;fill-rule:nonzero;fill:rgb(39.607843%,39.607843%,39.607843%);fill-opacity:1;"
       d="M 32.5 19.5 C 32.5 17.566406 31.378906 16 30 16 C 28.621094 16 27.5 17.566406 27.5 19.5 C 27.5 21.433594 28.621094 23 30 23 C 31.378906 23 32.5 21.433594 32.5 19.5 Z M 32.5 19.5 "
       id="path127" />
    <path
       style=" stroke:none;fill-rule:nonzero;fill:rgb(39.607843%,39.607843%,39.607843%);fill-opacity:1;"
       d="M 20.5 19.5 C 20.5 17.566406 19.378906 16 18 16 C 16.621094 16 15.5 17.566406 15.5 19.5 C 15.5 21.433594 16.621094 23 18 23 C 19.378906 23 20.5 21.433594 20.5 19.5 Z M 20.5 19.5 "
       id="path129" />
    <path
       style=" stroke:none;fill-rule:nonzero;fill:rgb(39.607843%,39.607843%,39.607843%);fill-opacity:1;"
       d="M 27.308594 32.980469 C 26.296875 32.894531 25.117188 32.550781 23.125 31.761719 C 21.84375 31.25 21.390625 31.109375 20.824219 31.027344 C 20.304688 30.953125 19.972656 30.964844 19.601562 31.128906 C 19.09375 31.332031 18.796875 31.800781 18.707031 32.5625 L 18.664062 33 L 17 33 L 17 32.59375 C 17 31.839844 17.246094 31.121094 17.683594 30.589844 C 17.855469 30.378906 18.234375 30.066406 18.476562 29.929688 C 18.726562 29.792969 19.179688 29.632812 19.507812 29.566406 C 19.945312 29.476562 20.8125 29.480469 21.324219 29.566406 C 22.105469 29.703125 22.945312 29.972656 24.71875 30.660156 C 26.28125 31.269531 26.980469 31.453125 27.746094 31.453125 C 28.148438 31.453125 28.199219 31.449219 28.382812 31.378906 C 28.738281 31.242188 29.015625 30.957031 29.167969 30.5625 C 29.234375 30.386719 29.320312 29.929688 29.320312 29.734375 L 29.320312 29.5 L 31 29.5 L 31 29.875 C 31 30.214844 30.953125 30.585938 30.875 30.890625 C 30.59375 32 29.769531 32.714844 28.535156 32.933594 C 28.289062 33 27.574219 33.003906 27.308594 33 Z M 27.308594 32.980469 "
       id="path131" />
  </g>
</svg>
