<?xml version="1.0" encoding="UTF-8" standalone="no"?>
<svg
   xmlns:dc="http://purl.org/dc/elements/1.1/"
   xmlns:cc="http://creativecommons.org/ns#"
   xmlns:rdf="http://www.w3.org/1999/02/22-rdf-syntax-ns#"
   xmlns:svg="http://www.w3.org/2000/svg"
   xmlns="http://www.w3.org/2000/svg"
   xmlns:sodipodi="http://sodipodi.sourceforge.net/DTD/sodipodi-0.dtd"
   xmlns:inkscape="http://www.inkscape.org/namespaces/inkscape"
   width="64px"
   height="64px"
   viewBox="0 0 48 48"
   version="1.1"
   id="svg67"
   inkscape:version="0.91 r"
   sodipodi:docname="face-kiss.svg">
  <metadata
     id="metadata84">
    <rdf:RDF>
      <cc:Work
         rdf:about="">
        <dc:format>image/svg+xml</dc:format>
        <dc:type
           rdf:resource="http://purl.org/dc/dcmitype/StillImage" />
      </cc:Work>
    </rdf:RDF>
  </metadata>
  <defs
     id="defs82" />
  <sodipodi:namedview
     pagecolor="#ffffff"
     bordercolor="#666666"
     borderopacity="1"
     objecttolerance="10"
     gridtolerance="10"
     guidetolerance="10"
     inkscape:pageopacity="0"
     inkscape:pageshadow="2"
     inkscape:window-width="640"
     inkscape:window-height="480"
     id="namedview80" />
  <g
     id="surface1">
    <path
       style=" stroke:none;fill-rule:nonzero;fill:rgb(100%,85.490196%,36.862745%);fill-opacity:1;"
       d="M 42 24 C 42 32.5625 33.941406 39.5 24 39.5 C 14.058594 39.5 6 32.5625 6 24 C 6 15.441406 14.058594 8.5 24 8.5 C 33.941406 8.5 42 15.441406 42 24 Z M 42 24 "
       id="path70" />
    <path
       style=" stroke:none;fill-rule:nonzero;fill:rgb(39.607843%,39.607843%,39.607843%);fill-opacity:1;"
       d="M 18 18 C 16.621094 18 15.5 19.121094 15.5 20.5 C 15.5 20.753906 15.539062 21.003906 15.617188 21.246094 C 15.945312 20.207031 16.910156 19.5 18 19.5 C 19.09375 19.5 20.058594 20.210938 20.382812 21.253906 C 20.460938 21.011719 20.5 20.753906 20.5 20.5 C 20.5 19.121094 19.378906 18 18 18 Z M 18 18 "
       id="path72" />
    <path
       style=" stroke:none;fill-rule:nonzero;fill:rgb(39.607843%,39.607843%,39.607843%);fill-opacity:1;"
       d="M 32.5 20.5 C 32.5 21.878906 31.378906 23 30 23 C 28.621094 23 27.5 21.878906 27.5 20.5 C 27.5 19.121094 28.621094 18 30 18 C 31.378906 18 32.5 19.121094 32.5 20.5 Z M 32.5 20.5 "
       id="path74" />
    <path
       style=" stroke:none;fill-rule:nonzero;fill:rgb(100%,40%,40%);fill-opacity:1;"
       d="M 28.675781 28.707031 C 28.648438 28.578125 28.558594 28.308594 28.46875 28.105469 C 28.214844 27.5 28.183594 27.417969 28.097656 27.140625 C 27.9375 26.632812 27.972656 26.234375 28.21875 25.808594 C 28.339844 25.601562 28.402344 25.53125 28.53125 25.441406 C 28.75 25.289062 28.984375 25.21875 29.222656 25.234375 C 29.394531 25.242188 29.476562 25.25 29.695312 25.375 C 29.925781 25.507812 29.960938 25.5625 30.050781 25.714844 C 30.164062 25.898438 30.222656 26.191406 30.179688 26.347656 L 30.152344 26.445312 L 30.273438 26.359375 C 30.953125 25.875 31.910156 26.441406 31.863281 27.300781 C 31.847656 27.574219 31.597656 28.03125 31.355469 28.230469 C 31.042969 28.492188 30.664062 28.613281 29.90625 28.691406 C 29.410156 28.742188 28.792969 28.898438 28.734375 28.9375 C 28.664062 28.980469 28.726562 28.945312 28.675781 28.707031 Z M 28.675781 28.707031 "
       id="path76" />
    <path
       style=" stroke:none;fill-rule:nonzero;fill:rgb(39.607843%,39.607843%,39.607843%);fill-opacity:1;"
       d="M 22.390625 27.949219 C 23.640625 26.703125 25.050781 26.535156 25.699219 27.441406 C 26.082031 27.980469 24.78125 28.570312 24.78125 29.199219 C 24.78125 29.832031 25.429688 29.691406 25.632812 30.179688 C 25 32 23 31 22.390625 30.449219 C 23.320312 35.253906 27.917969 30.882812 26.105469 29.167969 C 28.605469 25.417969 23.878906 25.136719 22.390625 27.949219 Z M 22.390625 27.949219 "
       id="path78" />
  </g>
</svg>
