<svg width="256" xmlns="http://www.w3.org/2000/svg" height="256" viewBox="0 0 256 256" xmlns:xlink="http://www.w3.org/1999/xlink">
<g style="fill:#aaa">
<path d="M 128.027344 21.347656 C 69.242188 21.347656 21.402344 69.1875 21.402344 127.972656 C 21.402344 186.757812 69.242188 234.597656 128.027344 234.597656 C 186.808594 234.597656 234.652344 186.757812 234.652344 127.972656 C 234.652344 69.1875 186.808594 21.347656 128.027344 21.347656 Z M 128.027344 42.671875 C 175.28125 42.671875 213.324219 80.71875 213.324219 127.972656 C 213.324219 175.226562 175.28125 213.273438 128.027344 213.273438 C 80.773438 213.273438 42.726562 175.226562 42.726562 127.972656 C 42.726562 80.71875 80.773438 42.671875 128.027344 42.671875 Z "/>
<path d="M 128 106.699219 C 116.28125 106.699219 106.699219 116.28125 106.699219 128 C 106.699219 139.71875 116.28125 149.300781 128 149.300781 C 139.71875 149.300781 149.300781 139.71875 149.300781 128 C 149.300781 116.28125 139.71875 106.699219 128 106.699219 Z M 128 117.300781 C 133.953125 117.300781 138.699219 122.046875 138.699219 128 C 138.699219 133.953125 133.953125 138.699219 128 138.699219 C 122.046875 138.699219 117.300781 133.953125 117.300781 128 C 117.300781 122.046875 122.046875 117.300781 128 117.300781 Z "/>
</g>
</svg>
