<svg width="256" xmlns="http://www.w3.org/2000/svg" height="256" viewBox="0 0 256 256" xmlns:xlink="http://www.w3.org/1999/xlink">
<path style="stroke-opacity:.4;fill:none;stroke:#aaa;stroke-width:3" d="M 24 6.568359 C 23.95166 6.574951 23.90332 6.585205 23.855713 6.596924 C 23.684326 6.614502 23.517334 6.663574 23.364258 6.741211 C 23.354004 6.750732 23.344482 6.760254 23.334961 6.769775 C 22.885986 6.949219 22.619385 7.213623 22.410645 7.460449 C 22.110352 7.814941 21.826904 8.227295 21.543457 8.698242 C 20.976562 9.639404 20.381104 10.835449 19.779785 12.036621 C 19.179199 13.238525 18.587402 14.447021 18.104004 15.375732 C 17.862305 15.840088 17.630859 16.231934 17.467529 16.498535 C 17.418457 16.579102 17.369385 16.617188 17.323242 16.670654 C 17.257324 16.696289 17.203125 16.709473 17.121094 16.728516 C 16.813477 16.799561 16.370361 16.903564 15.849609 16.987793 C 14.806641 17.155518 13.461182 17.311523 12.12085 17.505615 C 10.779785 17.699707 9.470947 17.925293 8.39209 18.167725 C 7.853027 18.288574 7.379883 18.397705 6.947021 18.570557 C 6.730957 18.656982 6.510498 18.757324 6.281982 18.91626 C 6.054199 19.074463 5.756104 19.297119 5.588379 19.80835 C 5.420654 20.318848 5.526855 20.696777 5.617676 20.959717 C 5.708496 21.221924 5.811035 21.425537 5.935547 21.621094 C 6.183838 22.013672 6.49585 22.389404 6.860596 22.801758 C 7.589355 23.625732 8.550293 24.570557 9.519287 25.507324 C 10.489014 26.443359 11.4646 27.355225 12.207275 28.097168 C 12.579346 28.468506 12.897217 28.811279 13.10376 29.047119 C 13.164551 29.116699 13.180664 29.160645 13.21875 29.219971 C 13.222412 29.288086 13.226074 29.337891 13.21875 29.421387 C 13.193115 29.731934 13.155029 30.172119 13.074463 30.687744 C 12.914062 31.719727 12.666504 33.050537 12.438721 34.371826 C 12.210938 35.693848 11.989746 37.022461 11.889404 38.11377 C 11.8396 38.659424 11.799316 39.119385 11.831543 39.581543 C 11.847656 39.812988 11.893799 40.064209 11.976562 40.330078 C 12.058594 40.595215 12.176514 40.938721 12.612305 41.250732 C 13.047363 41.564209 13.432617 41.572266 13.710205 41.567871 C 13.988525 41.563477 14.206787 41.537109 14.433105 41.481445 C 14.88501 41.369385 15.340576 41.178955 15.849609 40.962891 C 16.866211 40.532227 18.088623 39.945557 19.289062 39.322266 C 20.48877 38.699707 21.669434 38.036865 22.612793 37.56665 C 23.084473 37.331543 23.506348 37.141113 23.797852 37.020264 C 23.881348 36.985107 23.931885 36.979248 24 36.962402 C 24.068115 36.979248 24.118652 36.985107 24.202148 37.020264 C 24.493652 37.141113 24.915527 37.331543 25.387207 37.56665 C 26.330566 38.036865 27.51123 38.699707 28.710938 39.322266 C 29.911377 39.945557 31.133789 40.532227 32.150391 40.962891 C 32.659424 41.178955 33.11499 41.369385 33.566895 41.481445 C 33.793213 41.537109 34.011475 41.563477 34.289795 41.567871 C 34.567383 41.572266 34.952637 41.563477 35.387695 41.250732 C 35.822754 40.937988 35.941406 40.595215 36.023438 40.330078 C 36.106201 40.064209 36.152344 39.812988 36.168457 39.581543 C 36.200684 39.119385 36.1604 38.659424 36.110596 38.11377 C 36.010254 37.022461 35.789062 35.693848 35.561279 34.371826 C 35.333496 33.050537 35.085938 31.719727 34.925537 30.687744 C 34.844971 30.172119 34.806885 29.731934 34.78125 29.421387 C 34.773926 29.337891 34.777588 29.288086 34.78125 29.219971 C 34.819336 29.160645 34.835449 29.116699 34.89624 29.047119 C 35.102783 28.811279 35.420654 28.468506 35.792725 28.097168 C 36.5354 27.355225 37.510986 26.443359 38.480713 25.507324 C 39.449707 24.570557 40.410645 23.625732 41.139404 22.801758 C 41.50415 22.389404 41.816162 22.013672 42.064453 21.621094 C 42.188965 21.425537 42.291504 21.221924 42.382324 20.959717 C 42.473145 20.696777 42.579346 20.318848 42.411621 19.80835 C 42.243896 19.297119 41.945801 19.074463 41.718018 18.91626 C 41.489502 18.757324 41.269043 18.656982 41.052979 18.570557 C 40.620117 18.397705 40.146973 18.288574 39.60791 18.167725 C 38.529053 17.925293 37.220215 17.699707 35.87915 17.505615 C 34.538818 17.311523 33.193359 17.155518 32.150391 16.987793 C 31.629639 16.903564 31.186523 16.799561 30.878906 16.728516 C 30.796875 16.709473 30.742676 16.696289 30.676758 16.670654 C 30.630615 16.617188 30.581543 16.579102 30.532471 16.498535 C 30.369141 16.231934 30.137695 15.840088 29.895996 15.375732 C 29.412598 14.447021 28.820801 13.238525 28.220215 12.036621 C 27.618896 10.835449 27.02417 9.639404 26.456543 8.698242 C 26.173096 8.227295 25.889648 7.814941 25.589355 7.460449 C 25.289795 7.105957 25.069336 6.568359 24 6.568359 Z " transform="scale(5.33333)"/>
</svg>
