<svg width="256" xmlns="http://www.w3.org/2000/svg" height="256" viewBox="0 0 256 256" xmlns:xlink="http://www.w3.org/1999/xlink">
<g style="fill:#aaa">
<path d="M 28.5 37.332031 C 24.597656 37.742188 21.3125 41.410156 21.332031 45.332031 L 21.332031 189.332031 C 21.332031 193.523438 25.144531 197.332031 29.332031 197.332031 L 101.332031 197.332031 L 101.332031 213.332031 L 154.667969 213.332031 L 154.667969 197.332031 L 226.667969 197.332031 C 230.855469 197.332031 234.667969 193.523438 234.667969 189.332031 L 234.667969 45.332031 C 234.667969 41.144531 230.855469 37.332031 226.667969 37.332031 Z M 42 53.332031 C 42.332031 53.28125 42.667969 53.28125 43 53.332031 L 213.667969 53.332031 C 216.460938 53.332031 219 55.875 219 58.667969 L 219 176 C 219 178.792969 216.460938 181.332031 213.667969 181.332031 L 43 181.332031 C 40.207031 181.332031 37.667969 178.792969 37.667969 176 L 37.667969 58.667969 C 37.621094 56.179688 39.554688 53.796875 42 53.332031 Z M 64 218.667969 L 64 234.667969 L 197.332031 234.667969 L 197.332031 218.667969 Z "/>
<g style="stroke:#aaa;stroke-linecap:round;stroke-width:2">
<path d="M 9.999756 1032.361956 L 9.999756 1035.361956 L 12.999756 1035.361956 " transform="matrix(5.33333 0 0 5.33333 0 -5356.5984)"/>
<path d="M 38.000244 1032.361956 L 38.000244 1035.361956 L 35.000244 1035.361956 " transform="matrix(5.33333 0 0 5.33333 0 -5356.5984)"/>
<path d="M 35.000244 1017.361956 L 38.000244 1017.361956 L 38.000244 1020.361956 " transform="matrix(5.33333 0 0 5.33333 0 -5356.5984)"/>
<path d="M 9.999756 1020.361956 L 9.999756 1017.361956 L 12.999756 1017.361956 " transform="matrix(5.33333 0 0 5.33333 0 -5356.5984)"/>
</g>
</g>
</svg>
