<svg width="256" xmlns="http://www.w3.org/2000/svg" height="256" viewBox="0 0 256 256" xmlns:xlink="http://www.w3.org/1999/xlink">
<g style="fill:#aaa">
<path d="M 55.167969 21.332031 C 51.238281 21.742188 47.980469 25.410156 48 29.332031 L 48 226.667969 C 48 230.855469 51.785156 234.667969 56 234.667969 L 138.667969 234.667969 L 138.667969 218.667969 L 64.167969 218.667969 L 64.167969 37.332031 L 160 37.332031 L 160 58.667969 L 192 58.667969 L 191.832031 160 L 208 160 L 208 42.832031 C 202.667969 37.398438 181.089844 26.65625 176 21.332031 L 56 21.332031 C 55.722656 21.320312 55.445312 21.320312 55.167969 21.332031 Z "/>
<path d="M 149.328125 170.777344 L 149.328125 234.777344 L 234.660156 234.777344 L 234.660156 170.777344 Z M 170.660156 181.445312 L 213.328125 181.445312 L 191.992188 202.777344 Z M 159.992188 186.777344 L 186.660156 213.445312 L 197.328125 213.445312 L 223.992188 186.777344 L 223.992188 224.113281 L 159.992188 224.113281 Z "/>
</g>
</svg>
