<svg width="256" xmlns="http://www.w3.org/2000/svg" height="256" viewBox="0 0 256 256" xmlns:xlink="http://www.w3.org/1999/xlink">
<path style="fill:#aaa" d="M 49.992188 21.34375 C 46.066406 21.753906 42.644531 25.414062 42.664062 29.335938 L 42.664062 226.453125 C 42.664062 230.636719 46.445312 234.445312 50.65625 234.445312 L 136.5625 234.445312 C 137.984375 234.742188 139.46875 234.742188 140.890625 234.445312 L 205.15625 234.445312 C 209.367188 234.445312 213.144531 230.636719 213.144531 226.453125 L 213.144531 161.859375 C 213.398438 160.542969 213.398438 159.179688 213.144531 157.863281 L 213.144531 42.652344 C 207.820312 37.226562 196.253906 26.660156 191.171875 21.34375 L 50.65625 21.34375 C 50.378906 21.328125 50.269531 21.328125 49.992188 21.34375 Z M 58.667969 37.332031 L 165.332031 37.332031 L 165.332031 58.667969 L 197.332031 58.667969 L 197.332031 149.332031 L 138.5625 149.203125 C 138.226562 149.1875 137.894531 149.1875 137.5625 149.203125 C 132.324219 149.699219 127.882812 154.597656 127.90625 159.859375 L 128 218.667969 L 58.667969 218.667969 Z M 138.5625 159.859375 L 192 160 L 138.667969 213.332031 Z "/>
</svg>
