<svg width="256" xmlns="http://www.w3.org/2000/svg" height="256" viewBox="0 0 256 256" xmlns:xlink="http://www.w3.org/1999/xlink">
<path style="fill:#aaa" d="M 102.5 48 C 100.742188 48.230469 99.074219 49.066406 97.832031 50.332031 L 23.832031 122.332031 C 20.859375 125.296875 20.859375 130.703125 23.832031 133.667969 L 97.832031 205.667969 C 99.277344 207.109375 101.292969 207.960938 103.332031 208 L 226.667969 208 C 230.855469 208 234.667969 204.1875 234.667969 200 L 234.667969 56 C 234.667969 51.8125 230.855469 48 226.667969 48 L 103.332031 48 C 103.054688 47.984375 102.777344 47.984375 102.5 48 Z M 128.167969 84.5 L 154.667969 111 L 181.167969 84.5 L 198.167969 101.5 L 171.667969 128 L 198.167969 154.5 L 181.167969 171.5 L 154.667969 145 L 128.167969 171.5 L 111.167969 154.5 L 137.667969 128 L 111.167969 101.5 Z "/>
</svg>
