<svg width="256" xmlns="http://www.w3.org/2000/svg" height="256" viewBox="0 0 256 256" xmlns:xlink="http://www.w3.org/1999/xlink">
<g style="fill:#aaa">
<path d="M 101.753906 58.574219 C 105.910156 58.695312 109.855469 60.429688 112.753906 63.40625 L 166.089844 116.742188 C 169.101562 119.742188 170.792969 123.820312 170.792969 128.074219 C 170.792969 132.328125 169.101562 136.40625 166.089844 139.40625 L 112.753906 192.742188 C 106.496094 199 96.347656 199 90.089844 192.742188 C 83.828125 186.480469 83.828125 176.332031 90.089844 170.074219 L 132.089844 128.074219 L 90.089844 86.074219 C 85.328125 81.472656 83.890625 74.414062 86.476562 68.316406 C 89.0625 62.21875 95.136719 58.347656 101.753906 58.574219 Z "/>
<path d="M 218.667969 64 C 218.207031 55.164062 210.671875 48.371094 201.832031 48.832031 C 192.996094 49.289062 186.203125 56.828125 186.667969 65.667969 L 186.667969 193.667969 C 186.585938 199.4375 189.617188 204.804688 194.601562 207.710938 C 199.585938 210.621094 205.75 210.621094 210.734375 207.710938 C 215.714844 204.804688 218.75 199.4375 218.667969 193.667969 L 218.667969 65.667969 C 218.695312 65.113281 218.695312 64.554688 218.667969 64 Z "/>
</g>
</svg>
