<svg width="256" xmlns="http://www.w3.org/2000/svg" height="256" viewBox="0 0 256 256" xmlns:xlink="http://www.w3.org/1999/xlink">
<g style="fill:#aaa">
<path d="M 128 56 C 88.363281 56 56 88.367188 56 128 C 56 167.632812 88.363281 200 128 200 C 167.632812 200 200 167.632812 200 128 C 200 88.367188 167.632812 56 128 56 Z M 128 68 C 161.136719 68 188 94.863281 188 128 C 188 161.136719 161.136719 188 128 188 C 94.863281 188 68 161.136719 68 128 C 68 94.863281 94.863281 68 128 68 Z "/>
<path style="fill-opacity:.502" d="M 128 80 C 101.488281 80 80 101.492188 80 128 C 80 154.507812 101.488281 176 128 176 C 154.507812 176 176 154.507812 176 128 C 176 101.492188 154.507812 80 128 80 Z M 128 92 C 147.882812 92 164 108.117188 164 128 C 164 147.882812 147.882812 164 128 164 C 108.117188 164 92 147.882812 92 128 C 92 108.117188 108.117188 92 128 92 Z "/>
<path d="M 44 116 L 56 116 C 62.625 116 68 121.371094 68 128 C 68 134.628906 62.625 140 56 140 L 44 140 C 37.371094 140 32 134.628906 32 128 C 32 121.371094 37.371094 116 44 116 Z "/>
<path d="M 128 32 C 134.625 32 140 37.371094 140 44 L 140 56 C 140 62.628906 134.625 68 128 68 C 121.371094 68 116 62.628906 116 56 L 116 44 C 116 37.371094 121.371094 32 128 32 Z "/>
<path d="M 200 116 L 212 116 C 218.625 116 224 121.371094 224 128 C 224 134.628906 218.625 140 212 140 L 200 140 C 193.371094 140 188 134.628906 188 128 C 188 121.371094 193.371094 116 200 116 Z "/>
<path d="M 128 188 C 134.625 188 140 193.371094 140 200 L 140 212 C 140 218.628906 134.625 224 128 224 C 121.371094 224 116 218.628906 116 212 L 116 200 C 116 193.371094 121.371094 188 128 188 Z "/>
<path d="M 152 128 C 152 141.253906 141.253906 152 128 152 C 114.746094 152 104 141.253906 104 128 C 104 114.746094 114.746094 104 128 104 C 141.253906 104 152 114.746094 152 128 Z "/>
<path d="M 180.480469 167.515625 L 165.25 181.738281 C 164.59375 182.351562 164.558594 183.382812 165.171875 184.042969 L 179.625 199.496094 C 180.242188 200.152344 181.273438 200.1875 181.933594 199.574219 L 197.164062 185.351562 C 197.820312 184.738281 197.855469 183.707031 197.242188 183.046875 L 182.789062 167.59375 C 182.171875 166.9375 181.140625 166.902344 180.480469 167.515625 Z "/>
<path d="M 84.316406 62.578125 L 66.972656 78.769531 C 66.898438 78.839844 66.894531 78.960938 66.964844 79.035156 L 164.21875 183.023438 C 164.289062 183.097656 164.40625 183.101562 164.484375 183.03125 L 181.824219 166.835938 C 181.902344 166.765625 181.90625 166.648438 181.835938 166.574219 L 84.582031 62.585938 C 84.511719 62.511719 84.390625 62.507812 84.316406 62.578125 Z "/>
<path d="M 58.871094 52.617188 L 62.726562 65.742188 L 66.757812 78.847656 L 75.6875 70.734375 L 84.484375 62.476562 L 71.699219 57.460938 Z "/>
<path d="M 62.359375 63.832031 L 66.183594 60.195312 L 70.238281 56.808594 L 64.441406 54.535156 L 58.707031 51.976562 L 60.679688 57.886719 Z "/>
</g>
</svg>
