<svg width="256" xmlns="http://www.w3.org/2000/svg" height="256" viewBox="0 0 256 256" xmlns:xlink="http://www.w3.org/1999/xlink">
<g style="fill:#aaa">
<path d="M 36.167969 127.167969 C 27.796875 127.792969 21.324219 134.773438 21.332031 143.167969 L 21.332031 218.667969 C 21.332031 218.722656 21.332031 218.777344 21.332031 218.832031 C 21.324219 219.167969 21.324219 219.5 21.332031 219.832031 C 21.371094 220.28125 21.425781 220.726562 21.5 221.167969 C 21.5 221.277344 21.5 221.390625 21.5 221.5 C 21.554688 221.667969 21.609375 221.835938 21.667969 222 C 21.765625 222.335938 21.878906 222.671875 22 223 C 22.050781 223.222656 22.105469 223.445312 22.167969 223.667969 C 22.269531 223.949219 22.382812 224.226562 22.5 224.5 C 22.695312 225.011719 22.917969 225.511719 23.167969 226 C 23.316406 226.394531 23.484375 226.785156 23.667969 227.167969 C 23.777344 227.28125 23.886719 227.390625 24 227.5 C 24.054688 227.613281 24.109375 227.722656 24.167969 227.832031 C 24.378906 228.117188 24.601562 228.394531 24.832031 228.667969 C 24.941406 228.835938 25.050781 229.003906 25.167969 229.167969 C 25.382812 229.394531 25.605469 229.617188 25.832031 229.832031 C 25.996094 230.003906 26.164062 230.171875 26.332031 230.332031 C 26.960938 230.882812 27.628906 231.386719 28.332031 231.832031 C 28.765625 232.132812 29.207031 232.410156 29.667969 232.667969 C 29.886719 232.78125 30.109375 232.894531 30.332031 233 C 30.609375 233.117188 30.886719 233.230469 31.167969 233.332031 C 31.332031 233.449219 31.496094 233.558594 31.667969 233.667969 C 32.480469 233.957031 33.316406 234.179688 34.167969 234.332031 C 34.386719 234.394531 34.609375 234.449219 34.832031 234.5 C 35.164062 234.566406 35.5 234.621094 35.832031 234.667969 C 36.054688 234.671875 36.277344 234.671875 36.5 234.667969 C 36.777344 234.675781 37.054688 234.675781 37.332031 234.667969 C 37.554688 234.671875 37.777344 234.671875 38 234.667969 L 112.832031 234.667969 C 116.976562 234.722656 120.980469 233.167969 124 230.332031 C 128.8125 225.8125 130.359375 218.800781 127.886719 212.679688 C 125.414062 206.554688 119.4375 202.578125 112.832031 202.667969 L 76 202.667969 L 107.332031 171.332031 C 112.097656 166.730469 113.53125 159.671875 110.945312 153.574219 C 108.359375 147.480469 102.285156 143.605469 95.667969 143.832031 C 91.511719 143.953125 87.566406 145.6875 84.667969 148.667969 L 53.332031 180 L 53.332031 143.167969 C 53.335938 138.714844 51.488281 134.464844 48.234375 131.429688 C 44.976562 128.394531 40.605469 126.851562 36.167969 127.167969 Z "/>
<path d="M 219.949219 127.992188 C 228.253906 127.371094 234.675781 120.449219 234.667969 112.121094 L 234.667969 37.234375 C 234.667969 37.179688 234.667969 37.125 234.667969 37.070312 C 234.675781 36.738281 234.675781 36.410156 234.667969 36.078125 C 234.628906 35.636719 234.574219 35.195312 234.5 34.757812 C 234.503906 34.644531 234.503906 34.535156 234.5 34.425781 C 234.449219 34.257812 234.394531 34.09375 234.335938 33.929688 C 234.238281 33.59375 234.125 33.265625 234.003906 32.9375 C 233.953125 32.714844 233.898438 32.496094 233.839844 32.277344 C 233.738281 31.996094 233.628906 31.722656 233.507812 31.449219 C 233.3125 30.941406 233.09375 30.445312 232.847656 29.960938 C 232.699219 29.570312 232.53125 29.183594 232.351562 28.804688 C 232.242188 28.691406 232.132812 28.582031 232.019531 28.472656 C 231.964844 28.363281 231.910156 28.253906 231.855469 28.144531 C 231.644531 27.859375 231.421875 27.585938 231.195312 27.316406 C 231.085938 27.148438 230.976562 26.984375 230.863281 26.820312 C 230.648438 26.59375 230.429688 26.375 230.203125 26.160156 C 230.039062 25.992188 229.875 25.824219 229.707031 25.664062 C 229.082031 25.117188 228.421875 24.621094 227.722656 24.175781 C 227.292969 23.878906 226.851562 23.601562 226.398438 23.347656 C 226.179688 23.234375 225.960938 23.125 225.738281 23.019531 C 225.464844 22.902344 225.1875 22.789062 224.910156 22.6875 C 224.746094 22.574219 224.582031 22.464844 224.414062 22.359375 C 223.605469 22.070312 222.777344 21.847656 221.933594 21.695312 C 221.714844 21.636719 221.492188 21.582031 221.269531 21.53125 C 220.941406 21.464844 220.613281 21.410156 220.277344 21.367188 C 220.058594 21.359375 219.839844 21.359375 219.617188 21.367188 C 219.34375 21.359375 219.066406 21.359375 218.789062 21.367188 C 218.570312 21.359375 218.351562 21.359375 218.128906 21.367188 L 143.875 21.367188 C 139.765625 21.308594 135.792969 22.851562 132.796875 25.664062 C 128.019531 30.148438 126.488281 37.101562 128.9375 43.175781 C 131.390625 49.25 137.324219 53.195312 143.875 53.105469 L 180.421875 53.105469 L 149.332031 84.183594 C 144.609375 88.75 143.183594 95.75 145.75 101.796875 C 148.316406 107.84375 154.34375 111.6875 160.910156 111.460938 C 165.03125 111.339844 168.945312 109.621094 171.824219 106.667969 L 202.914062 75.589844 L 202.914062 112.121094 C 202.910156 116.535156 204.746094 120.753906 207.976562 123.765625 C 211.207031 126.773438 215.542969 128.304688 219.949219 127.992188 Z "/>
</g>
</svg>
