<svg width="256" xmlns="http://www.w3.org/2000/svg" height="256" viewBox="0 0 256 256" xmlns:xlink="http://www.w3.org/1999/xlink">
<path style="fill:#aaa" d="M 128 21.332031 C 128 21.332031 64 21.332031 64 69.332031 L 64 106.667969 C 64 106.667969 42.667969 106.667969 42.667969 128 L 42.667969 213.332031 C 42.667969 234.667969 64 234.667969 64 234.667969 L 133.332031 234.667969 L 117.332031 218.667969 L 138.667969 197.332031 L 128 186.667969 L 112 170.667969 L 133.332031 149.332031 L 117.332031 133.332031 L 144 106.667969 L 90.667969 106.667969 L 90.667969 80 C 90.667969 48 128 48 128 48 C 128 48 165.332031 48 165.332031 80 L 165.332031 85.332031 L 192 85.332031 L 192 69.332031 C 192 21.332031 128 21.332031 128 21.332031 Z M 165.332031 106.667969 L 138.667969 133.332031 L 154.667969 149.332031 L 133.332031 170.667969 L 149.332031 186.667969 L 160 197.332031 L 154.667969 202.667969 L 138.667969 218.667969 L 154.667969 234.667969 L 192 234.667969 C 192 234.667969 213.332031 234.667969 213.332031 213.332031 L 213.332031 128 C 213.332031 106.667969 192 106.667969 192 106.667969 Z "/>
</svg>
