<svg width="256" xmlns="http://www.w3.org/2000/svg" height="256" viewBox="0 0 256 256" xmlns:xlink="http://www.w3.org/1999/xlink">
<path style="fill:#aaa" d="M 28.5 48 C 24.410156 48.429688 21.3125 51.886719 21.332031 56 L 21.332031 200 C 21.332031 204.417969 24.914062 208 29.332031 208 L 226.667969 208 C 231.085938 208 234.667969 204.417969 234.667969 200 L 234.667969 56 C 234.667969 51.582031 231.085938 48 226.667969 48 L 29.332031 48 C 29.054688 47.984375 28.777344 47.984375 28.5 48 Z M 53 64 L 203 64 L 128 118.167969 Z M 37.332031 72.332031 L 123.332031 134.5 C 126.121094 136.503906 129.878906 136.503906 132.667969 134.5 L 218.667969 72.332031 L 218.667969 192 L 37.332031 192 Z "/>
</svg>
