<svg width="256" xmlns="http://www.w3.org/2000/svg" height="256" viewBox="0 0 256 256" xmlns:xlink="http://www.w3.org/1999/xlink">
<path style="fill:#aaa" d="M 98.4375 15.027344 C 92.550781 15.207031 87.1875 17.839844 83.097656 22.1875 L 6.40625 101.378906 C -2.136719 110.15625 -2.136719 126.300781 6.40625 135.078125 L 83.097656 213.75 C 92.628906 223.878906 111.171875 221.953125 118.722656 210.183594 L 45.496094 135.078125 C 36.953125 126.300781 36.953125 110.15625 45.496094 101.378906 L 118.722656 25.753906 C 114.480469 18.957031 106.746094 14.84375 98.933594 15.027344 C 98.855469 15.027344 98.515625 15.027344 98.4375 15.027344 Z M 161.769531 15.546875 C 155.886719 15.730469 150.027344 18.332031 145.9375 22.707031 L 69.738281 101.875 C 61.199219 110.652344 61.199219 126.824219 69.738281 135.597656 L 145.9375 214.269531 C 154.453125 223.046875 170.078125 223.074219 178.59375 214.269531 C 187.109375 205.496094 187.082031 189.347656 178.59375 180.546875 L 141.484375 142.238281 L 207.292969 142.238281 L 207.292969 181.589844 C 207.109375 194.089844 218.410156 205.597656 230.546875 205.597656 C 242.65625 205.597656 253.464844 194.089844 253.308594 181.589844 L 253.308594 142.238281 C 253.308594 142.238281 253.464844 131.355469 247.863281 119.765625 C 242.238281 108.175781 226.40625 94.738281 207.292969 94.738281 L 168.699219 94.738281 C 168.671875 94.6875 151.378906 94.246094 141.980469 94.21875 L 178.59375 56.40625 C 185.183594 49.84375 187.578125 39.089844 184.035156 30.363281 C 180.496094 21.613281 171.433594 15.3125 162.265625 15.546875 C 162.1875 15.546875 161.847656 15.546875 161.769531 15.546875 Z "/>
</svg>
