<svg width="256" xmlns="http://www.w3.org/2000/svg" height="256" viewBox="0 0 256 256" xmlns:xlink="http://www.w3.org/1999/xlink">
<path style="fill:#aaa" d="M 126.667969 15.832031 L 126.667969 47.5 L 79.167969 95 L 183.125 95 C 183.125 95 200.207031 94.636719 217.761719 103.410156 C 235.285156 112.1875 254.375 134.582031 254.375 166.25 C 254.375 197.917969 235.285156 220.3125 217.761719 229.089844 C 200.207031 237.863281 183.125 237.5 183.125 237.5 C 170.574219 237.683594 159.035156 226.300781 159.035156 213.75 C 159.035156 201.199219 170.574219 189.816406 183.125 190 C 183.125 190 190.261719 189.636719 196.484375 186.535156 C 202.683594 183.4375 206.875 182.082031 206.875 166.25 C 206.875 150.417969 202.683594 149.0625 196.484375 145.964844 C 190.261719 142.863281 183.125 142.5 183.125 142.5 L 79.167969 142.5 L 126.667969 190 L 126.667969 221.667969 L 95 221.667969 L 0 126.667969 L 0 110.832031 L 95 15.832031 Z "/>
</svg>
