<svg width="256" xmlns="http://www.w3.org/2000/svg" height="256" viewBox="0 0 256 256" xmlns:xlink="http://www.w3.org/1999/xlink">
<defs>
<clipPath id="clip1">
<rect width="256" height="256"/>
</clipPath>
<clipPath id="clip2">
<rect width="256" height="256"/>
</clipPath>
<filter width="100%" x="0" y="0" height="100%" filterUnits="objectBoundingBox" id="alpha">
<feColorMatrix values="0 0 0 0 1 0 0 0 0 1 0 0 0 0 1 0 0 0 1 0" in="SourceGraphic" type="matrix"/>
</filter>
<g style="clip-path:url(#clip2)" id="surface9">
<path style="fill:#aaa;stroke:url(#linear1);stroke-linecap:square;stroke-width:.8" d="M 32.34375 14.156396 L 32.34375 15.499658 C 32.338623 15.964014 31.963623 16.339014 31.5 16.343408 L 28.5 16.343408 C 26.619873 16.343408 24.679688 17.149805 23.093994 18.562646 C 21.526611 19.958643 20.34375 22.037256 20.34375 24.499658 C 20.34375 26.341699 19.773193 27.83291 18.781494 28.843652 C 17.789062 29.854395 16.422363 30.343652 15 30.343652 L 9.343506 30.343652 L 9.343506 32.655908 L 15 32.655908 C 19.064209 32.655908 22.656006 29.276514 22.656006 24.499658 C 22.656006 22.766748 23.490234 21.319482 24.65625 20.280908 C 25.85376 19.214502 27.304688 18.656396 28.5 18.656396 L 31.5 18.656396 C 31.963623 18.660791 32.338623 19.035791 32.34375 19.500146 L 32.34375 20.843408 L 37.03125 17.499902 Z " transform="matrix(5.33333 0 0 5.33333 0 -.2)"/>
</g>
<g style="clip-path:url(#clip1)" id="surface6">
<path style="fill:#aaa;stroke:url(#linear0);stroke-linecap:square;stroke-width:.8" d="M 9.312744 16.312646 L 9.312744 18.687158 L 15 18.687158 C 16.413574 18.687158 17.766357 19.185205 18.75 20.187158 C 19.733643 21.189844 20.312256 22.666406 20.312256 24.499658 C 20.312256 26.975244 21.488525 29.066309 23.0625 30.468896 C 24.654785 31.887598 26.608154 32.687402 28.5 32.687402 L 31.5 32.687402 C 31.948975 32.687402 32.312256 33.051416 32.312256 33.499658 L 32.312256 34.937402 L 37.125 31.500146 L 32.312256 28.062158 L 32.312256 29.499902 C 32.312256 29.948877 31.948975 30.312158 31.5 30.312158 L 28.5 30.312158 C 27.320068 30.312158 25.877197 29.747461 24.687744 28.687646 C 23.52832 27.654932 22.6875 26.220117 22.6875 24.499658 C 22.6875 19.703027 19.086914 16.312646 15 16.312646 Z " transform="matrix(5.33333 0 0 5.33333 0 -.2)"/>
</g>
<linearGradient id="linear0" y1="12" y2="35" gradientUnits="userSpaceOnUse" x2="0">
<stop offset="0" style="stop-color:#aaa"/>
<stop offset="1" style="stop-color:#aaa;stop-opacity:0"/>
</linearGradient>
<linearGradient id="linear1" y1="13" y2="33" gradientUnits="userSpaceOnUse" x2="0">
<stop offset="0" style="stop-color:#aaa"/>
<stop offset="1" style="stop-color:#aaa;stop-opacity:0"/>
</linearGradient>
<mask id="mask0">
<g style="filter:url(#alpha)">
<rect width="256" x="0" y="0" height="256" style="fill:#aaa;fill-opacity:.6"/>
</g>
</mask>
<mask id="mask1">
<g style="filter:url(#alpha)">
<rect width="256" x="0" y="0" height="256" style="fill:#aaa;fill-opacity:.6"/>
</g>
</mask>
</defs>
<path style="fill:#aaa;fill-rule:evenodd;stroke:#aaa;stroke-linecap:square" d="M 31.499268 36.500244 L 31.499268 33.500244 L 28.499268 33.500244 C 26.377441 33.500244 24.252686 32.596436 22.530762 31.062744 C 20.808838 29.52832 19.499268 27.235107 19.499268 24.500244 C 19.499268 21.164062 17.460205 19.5 14.999268 19.5 C 11.671143 19.5 10.499268 19.5 10.499268 19.5 L 8.499756 19.5 L 8.499756 15.500244 L 10.499268 15.500244 C 10.499268 15.500244 11.671143 15.500244 14.999268 15.500244 C 19.538818 15.500244 23.499756 19.29126 23.499756 24.500244 C 23.499756 25.965088 24.19043 27.177979 25.218018 28.093506 C 26.246338 29.009766 27.621826 29.499756 28.499268 29.499756 L 31.499268 29.499756 L 31.499268 26.499756 L 38.499756 31.5 Z " transform="scale(5.33333)"/>
<use style="mask:url(#mask0)" xlink:href="#surface6"/>
<g style="fill:#aaa;fill-rule:evenodd">
<path style="fill-opacity:.6" d="M 111.832031 92.832031 C 105.699219 99.140625 100.796875 107.058594 98.164062 116.332031 C 100.304688 119.964844 101.496094 124.664062 101.496094 130.667969 C 101.496094 146.066406 108.851562 158.90625 118.496094 167.5 C 118.828125 167.792969 119.164062 168.046875 119.496094 168.332031 C 125.507812 161.40625 129.925781 152.769531 131.996094 143.167969 C 129.445312 139.542969 127.832031 135.425781 127.832031 130.667969 C 127.832031 115.199219 121.574219 101.898438 111.832031 92.832031 Z "/>
<path style="stroke:#aaa;stroke-linecap:square" d="M 31.499268 12.500244 L 31.499268 15.500244 L 28.499268 15.500244 C 26.377441 15.500244 24.252686 16.40332 22.530762 17.937744 C 20.808838 19.471436 19.499268 21.765381 19.499268 24.500244 C 19.499268 27.836426 17.460205 29.499756 14.999268 29.499756 C 11.671143 29.499756 10.499268 29.499756 10.499268 29.499756 L 8.499756 29.499756 L 8.499756 33.500244 L 10.499268 33.500244 C 10.499268 33.500244 11.671143 33.500244 14.999268 33.500244 C 19.538818 33.500244 23.499756 29.708496 23.499756 24.500244 C 23.499756 23.034668 24.19043 21.82251 25.218018 20.90625 C 26.246338 19.98999 27.621826 19.5 28.499268 19.5 L 31.499268 19.5 L 31.499268 22.5 L 38.499756 17.499756 Z " transform="scale(5.33333)"/>
</g>
<use style="mask:url(#mask1)" xlink:href="#surface9"/>
</svg>
