<svg width="256" xmlns="http://www.w3.org/2000/svg" height="256" viewBox="0 0 256 256" xmlns:xlink="http://www.w3.org/1999/xlink">
<path style="fill:#aaa" d="M 55.210938 21.34375 C 51.285156 21.753906 47.980469 25.417969 48 29.34375 L 48 226.667969 C 48 230.855469 51.835938 234.667969 56.050781 234.667969 L 199.949219 234.667969 C 204.164062 234.667969 208 230.855469 208 226.667969 L 208 42.765625 C 202.667969 37.332031 181.089844 26.65625 176 21.332031 L 56.050781 21.34375 C 55.769531 21.328125 55.492188 21.328125 55.210938 21.34375 Z M 64.101562 37.34375 L 160 37.332031 L 160 58.667969 L 192 58.667969 L 191.898438 218.667969 L 64.101562 218.667969 Z "/>
<g style="stroke-linecap:round;stroke:#aaa;fill:none;stroke-width:2">
<path d="M 15 35.000244 L 15 38.000244 L 18 38.000244 " transform="scale(5.33333)"/>
<path d="M 33 35.000244 L 33 38.000244 L 30 38.000244 " transform="scale(5.33333)"/>
<path d="M 30 14.000244 L 33 14.000244 L 33 17.000244 " transform="scale(5.33333)"/>
<path d="M 15 17.000244 L 15 14.000244 L 18 14.000244 " transform="scale(5.33333)"/>
</g>
</svg>
