<svg width="256" xmlns="http://www.w3.org/2000/svg" height="256" viewBox="0 0 256 256" xmlns:xlink="http://www.w3.org/1999/xlink">
<path style="fill:#aaa" d="M 28.5 36.5 C 24.410156 36.929688 21.3125 40.386719 21.332031 44.5 L 21.332031 211.5 C 21.332031 215.917969 24.914062 219.5 29.332031 219.5 L 170.667969 219.5 L 170.667969 208 L 133.332031 208 L 133.332031 203.5 L 37.332031 203.5 L 37.332031 69.332031 L 218.667969 69.332031 L 218.667969 165.332031 L 234.667969 165.332031 L 234.667969 44.5 C 234.667969 40.082031 231.085938 36.5 226.667969 36.5 L 29.332031 36.5 C 29.054688 36.484375 28.777344 36.484375 28.5 36.5 Z M 213.332031 48 C 216.277344 48 218.667969 50.386719 218.667969 53.332031 C 218.667969 56.277344 216.277344 58.667969 213.332031 58.667969 C 210.386719 58.667969 208 56.277344 208 53.332031 C 208 50.386719 210.386719 48 213.332031 48 Z M 181.332031 138.667969 L 181.332031 176 L 144 176 L 144 197.332031 L 181.332031 197.332031 L 181.332031 234.667969 L 202.667969 234.667969 L 202.667969 197.332031 L 240 197.332031 L 240 176 L 202.667969 176 L 202.667969 138.667969 Z M 213.332031 208 L 213.332031 219.5 L 226.667969 219.5 C 231.085938 219.5 234.667969 215.917969 234.667969 211.5 L 234.667969 208 Z "/>
</svg>
