<?xml version="1.0" encoding="UTF-8" standalone="no"?>
<!-- Created with Inkscape (http://www.inkscape.org/) -->

<svg
   xmlns:dc="http://purl.org/dc/elements/1.1/"
   xmlns:cc="http://creativecommons.org/ns#"
   xmlns:rdf="http://www.w3.org/1999/02/22-rdf-syntax-ns#"
   xmlns:svg="http://www.w3.org/2000/svg"
   xmlns="http://www.w3.org/2000/svg"
   xmlns:sodipodi="http://sodipodi.sourceforge.net/DTD/sodipodi-0.dtd"
   xmlns:inkscape="http://www.inkscape.org/namespaces/inkscape"
   width="48px"
   height="48px"
   id="svg1306"
   sodipodi:version="0.32"
   inkscape:version="0.91 r"
   sodipodi:docname="deja-dup-cloud.svg"
   inkscape:output_extension="org.inkscape.output.svg.inkscape"
   version="1.1">
  <sodipodi:namedview
     id="base"
     pagecolor="#ffffff"
     bordercolor="#666666"
     borderopacity="1.0"
     inkscape:pageopacity="0.0"
     inkscape:pageshadow="2"
     inkscape:zoom="22.627418"
     inkscape:cx="22.449263"
     inkscape:cy="13.050201"
     inkscape:current-layer="layer1"
     showgrid="true"
     inkscape:grid-bbox="true"
     inkscape:document-units="px"
     inkscape:window-width="1366"
     inkscape:window-height="747"
     inkscape:window-x="0"
     inkscape:window-y="21"
     inkscape:showpageshadow="false"
     showguides="true"
     inkscape:guide-bbox="true"
     inkscape:window-maximized="1">
    <inkscape:grid
       type="xygrid"
       id="grid4686" />
  </sodipodi:namedview>
  <defs
     id="defs1308" />
  <metadata
     id="metadata1311">
    <rdf:RDF>
      <cc:Work
         rdf:about="">
        <dc:format>image/svg+xml</dc:format>
        <dc:type
           rdf:resource="http://purl.org/dc/dcmitype/StillImage" />
        <dc:title />
        <dc:date>January 2006</dc:date>
        <dc:creator>
          <cc:Agent>
            <dc:title>Ryan Collier (pseudo)</dc:title>
          </cc:Agent>
        </dc:creator>
        <dc:publisher>
          <cc:Agent>
            <dc:title>http://www.tango-project.org</dc:title>
          </cc:Agent>
        </dc:publisher>
        <dc:source>http://www.pseudocode.org</dc:source>
        <dc:subject>
          <rdf:Bag>
            <rdf:li>weather</rdf:li>
            <rdf:li>applet</rdf:li>
            <rdf:li>notify</rdf:li>
          </rdf:Bag>
        </dc:subject>
        <cc:license
           rdf:resource="http://creativecommons.org/publicdomain/zero/1.0/" />
      </cc:Work>
      <cc:License
         rdf:about="http://creativecommons.org/publicdomain/zero/1.0/">
        <cc:permits
           rdf:resource="http://creativecommons.org/ns#Reproduction" />
        <cc:permits
           rdf:resource="http://creativecommons.org/ns#Distribution" />
        <cc:permits
           rdf:resource="http://creativecommons.org/ns#DerivativeWorks" />
      </cc:License>
    </rdf:RDF>
  </metadata>
  <g
     id="layer1"
     inkscape:label="Layer 1"
     inkscape:groupmode="layer">
    <path
       inkscape:connector-curvature="0"
       style="fill:#7e7e7e;fill-opacity:1;stroke:none"
       d="m 25.660263,8.75 c -2.898269,0 -5.340109,1.57371 -6.697049,3.8125 C 17.975986,12.08746 16.908818,11.75 15.72903,11.75 c -4.039399,0 -7.3177519,3.136 -7.3177519,7 0,3.864 3.2783529,7 7.3177509,7 2.529506,0 4.631185,-1.31932 5.945672,-3.1875 1.185685,0.68962 2.497423,1.1875 3.985561,1.1875 0.95457,0 1.832522,-0.23202 2.67882,-0.53125 0.533088,0.86773 1.232644,1.57972 2.090786,2.15625 -0.0073,0.13038 -0.06534,0.24282 -0.06534,0.375 0,3.864 3.278342,7 7.317751,7 4.039398,0 7.317751,-3.136 7.317751,-7 0,-2.36969 -1.316128,-4.35834 -3.201515,-5.625 0.0073,-0.13038 0.06534,-0.24282 0.06534,-0.375 0,-3.864 -3.278343,-7 -7.317752,-7 -0.650965,0 -1.228535,0.22219 -1.829438,0.375 C 31.467912,10.56616 28.805495,8.75 25.660263,8.75 Z"
       id="path8267" />
    <path
       style="fill:#c4c5c2;fill-opacity:1;stroke:none;stroke-width:1.02244461;stroke-linecap:butt;stroke-linejoin:miter;stroke-miterlimit:2;stroke-dasharray:none;stroke-dashoffset:0;stroke-opacity:1"
       d="m 30.364529,21.25 c -2.37391,0 -4.296471,1.55028 -4.932948,3.625 -0.724698,-0.36383 -1.510081,-0.625 -2.384803,-0.625 -2.885284,0 -5.226975,2.23999 -5.226965,5 0,0.57893 0.169898,1.1077 0.359354,1.625 -1.435816,0.77074 -2.45014,2.189 -2.45014,3.875 0,2.484 2.107513,4.50001 4.704269,4.5 0.18517,0 19.677295,0 19.862467,0 2.596746,0 4.704267,-2.016 4.704267,-4.5 0,-1.686 -1.014324,-3.10426 -2.450139,-3.875 0.189467,-0.51729 0.359354,-1.04608 0.359354,-1.625 0,-2.76 -2.34168,-4.99999 -5.226965,-5 -0.874722,0 -1.660105,0.26117 -2.384803,0.625 C 34.661,22.80028 32.738438,21.25 30.364529,21.25 Z"
       id="path7796"
       sodipodi:nodetypes="ccsscsssscsscc"
       inkscape:connector-curvature="0" />
    <path
       style="fill:#dadada;fill-opacity:1;stroke:none;stroke-width:1.02244461;stroke-linecap:butt;stroke-linejoin:miter;stroke-miterlimit:2;stroke-dasharray:none;stroke-dashoffset:0;stroke-opacity:1"
       d="m 17.68547,18 c -2.382019,0 -4.311148,1.55028 -4.9498,3.625 C 12.008497,21.26117 11.220431,21 10.342721,21 c -2.8951433,0 -5.244833,2.23999 -5.244823,5 0,0.57893 0.1704774,1.1077 0.3605817,1.625 -1.4407211,0.77074 -2.4585102,2.189 -2.4585102,3.875 0,2.484 2.1147117,4.50001 4.7203397,4.5 0.1858026,0 19.7445188,0 19.9303218,0 2.605616,0 4.720339,-2.016 4.720339,-4.5 0,-1.686 -1.01779,-3.10426 -2.458511,-3.875 0.190115,-0.51729 0.360582,-1.04608 0.360582,-1.625 0,-2.76 -2.349681,-4.99999 -5.244821,-5 -0.877711,0 -1.665777,0.26117 -2.39295,0.625 C 21.996618,19.55028 20.067489,18 17.68547,18 Z"
       id="path7854"
       sodipodi:nodetypes="ccsscsssscsscc"
       inkscape:connector-curvature="0" />
  </g>
</svg>
