<?xml version="1.0" encoding="UTF-8" standalone="no"?>
<svg
   xmlns:dc="http://purl.org/dc/elements/1.1/"
   xmlns:cc="http://creativecommons.org/ns#"
   xmlns:rdf="http://www.w3.org/1999/02/22-rdf-syntax-ns#"
   xmlns:svg="http://www.w3.org/2000/svg"
   xmlns="http://www.w3.org/2000/svg"
   xmlns:sodipodi="http://sodipodi.sourceforge.net/DTD/sodipodi-0.dtd"
   xmlns:inkscape="http://www.inkscape.org/namespaces/inkscape"
   viewBox="0 0 48 48"
   id="svg2"
   version="1.1"
   inkscape:version="0.48.4 r9939"
   width="100%"
   height="100%"
   sodipodi:docname="drive-harddisk-usb.svg">
  <metadata
     id="metadata12">
    <rdf:RDF>
      <cc:Work
         rdf:about="">
        <dc:format>image/svg+xml</dc:format>
        <dc:type
           rdf:resource="http://purl.org/dc/dcmitype/StillImage" />
      </cc:Work>
    </rdf:RDF>
  </metadata>
  <defs
     id="defs10" />
  <sodipodi:namedview
     pagecolor="#ffffff"
     bordercolor="#666666"
     borderopacity="1"
     objecttolerance="10"
     gridtolerance="10"
     guidetolerance="10"
     inkscape:pageopacity="0"
     inkscape:pageshadow="2"
     inkscape:window-width="1366"
     inkscape:window-height="704"
     id="namedview8"
     showgrid="true"
     inkscape:zoom="55.625734"
     inkscape:cx="28.498524"
     inkscape:cy="9.8411226"
     inkscape:window-x="0"
     inkscape:window-y="27"
     inkscape:window-maximized="1"
     inkscape:current-layer="svg2">
    <inkscape:grid
       type="xygrid"
       id="grid2989" />
  </sodipodi:namedview>
  <path
     style="fill:#dc4946;fill-opacity:1;stroke:none"
     d="m 24,40 c 7,0 7,-7 7,-7 l 0,-16.986546 c 0,-1.108 -0.892,-2 -2,-2 l -10,0 c -1.108,0 -2,0.892 -2,2 L 17,33 c 0,0 0,7 7,7 z"
     id="rect2991"
     inkscape:connector-curvature="0"
     sodipodi:nodetypes="scsssscs" />
  <path
     style="opacity:0.39446369;fill:#ffffff;fill-opacity:1;stroke:none"
     d="m 27,39.426407 0,-25.332659 2,0 0,24.040318 c -0.525813,0.411325 -1.186183,1.074805 -2,1.292341 z"
     id="rect3761"
     inkscape:connector-curvature="0"
     sodipodi:nodetypes="ccccc" />
  <rect
     style="fill:#657b83;fill-opacity:1;stroke:none"
     id="rect3763"
     width="10"
     height="6.0134563"
     x="19"
     y="-14.013456"
     transform="scale(1,-1)" />
  <rect
     style="opacity:0.31141872;fill:#ffffff;fill-opacity:1;stroke:none"
     id="rect3765"
     width="2"
     height="6.0134563"
     x="25"
     y="-14.013456"
     transform="scale(1,-1)" />
  <rect
     style="opacity:0.65397925;fill:#073642;fill-opacity:1;stroke:none"
     id="rect3767"
     width="2"
     height="2"
     x="20"
     y="-10.999998"
     transform="scale(1,-1)" />
  <rect
     style="opacity:0.65397925;fill:#073642;fill-opacity:1;stroke:none"
     id="rect3769"
     width="2"
     height="2"
     x="26"
     y="-10.999998"
     transform="scale(1,-1)" />
</svg>
