<?xml version="1.0" encoding="UTF-8" standalone="no"?>
<svg
   xmlns:dc="http://purl.org/dc/elements/1.1/"
   xmlns:cc="http://creativecommons.org/ns#"
   xmlns:rdf="http://www.w3.org/1999/02/22-rdf-syntax-ns#"
   xmlns:svg="http://www.w3.org/2000/svg"
   xmlns="http://www.w3.org/2000/svg"
   xmlns:sodipodi="http://sodipodi.sourceforge.net/DTD/sodipodi-0.dtd"
   xmlns:inkscape="http://www.inkscape.org/namespaces/inkscape"
   viewBox="0 0 48 48"
   id="svg1975"
   version="1.1"
   inkscape:version="0.91 r"
   sodipodi:docname="gnome-fs-server.svg">
  <metadata
     id="metadata2005">
    <rdf:RDF>
      <cc:Work
         rdf:about="">
        <dc:format>image/svg+xml</dc:format>
        <dc:type
           rdf:resource="http://purl.org/dc/dcmitype/StillImage" />
      </cc:Work>
    </rdf:RDF>
  </metadata>
  <defs
     id="defs2003" />
  <sodipodi:namedview
     pagecolor="#ffffff"
     bordercolor="#666666"
     borderopacity="1"
     objecttolerance="10"
     gridtolerance="10"
     guidetolerance="10"
     inkscape:pageopacity="0"
     inkscape:pageshadow="2"
     inkscape:window-width="640"
     inkscape:window-height="480"
     id="namedview2001" />
  <g
     transform="translate(0 -1004.3622)"
     id="g1977">
    <path
       style="fill:#919fa9"
       d="m 23.980077,1016.4198 c -4.918351,0 -8.901182,3.9829 -8.901182,8.9011 0,4.9184 3.982831,8.9249 8.901182,8.9249 4.918351,0 8.901181,-4.0065 8.901181,-8.9249 0,-4.9182 -3.98283,-8.9011 -8.901181,-8.9011 z m 0,7.2677 c 0.906012,0 1.63346,0.7274 1.63346,1.6334 0,0.906 -0.727448,1.6572 -1.63346,1.6572 -0.906013,0 -1.633463,-0.7512 -1.633463,-1.6572 0,-0.906 0.72745,-1.6334 1.633463,-1.6334 z"
       id="path1979" />
  </g>
  <g
     style="fill:none;stroke:#fff"
     id="g1981">
    <g
       style="stroke-width:.5"
       transform="translate(-38.38147 -1006.10034)"
       id="g1983">
      <path
         d="m 15,16.875 -2.184816,14.218428 19.934816,0 L 30,16.867078 z"
         transform="translate(0 1004.3622)"
         id="path1985" />
      <path
         d="m 12.741095,31.581214 0,3.027951 20.084798,0 0,-3.027951 z"
         transform="translate(0 1004.3622)"
         id="path1987" />
    </g>
    <g
       style="stroke-width:.4"
       transform="translate(-39.59798 -1004.3622)"
       id="g1989">
      <path
         d="m 24.860389,1036.3494 -9.148194,0 0,-0.9281 c 2.96581,0 6.426744,0 9.148195,0 z"
         id="path1991" />
      <path
         d="m 26.583962,1036.3494 4.507805,0 -2.61e-4,-0.6472 -4.507544,0 z"
         id="path1993" />
    </g>
  </g>
  <g
     style="fill:#919fa9"
     transform="translate(0 -1004.3622)"
     id="g1995">
    <path
       style="line-height:normal;color:#000"
       d="m 13.6875,1012.375 c -1.41144,0 -2.5625,1.1511 -2.5625,2.5625 l 0,26.8437 c 0,1.4115 1.15106,2.5938 2.5625,2.5938 l 20.625,0 c 1.41144,0 2.5625,-1.1823 2.5625,-2.5938 l 0,-26.8437 c 0,-1.4114 -1.15106,-2.5625 -2.5625,-2.5625 l -20.625,0 z m 0,2 20.625,0 c 0.338034,0 0.5625,0.2245 0.5625,0.5625 l 0,26.8437 c 0,0.3381 -0.224466,0.5938 -0.5625,0.5938 l -20.625,0 c -0.338034,0 -0.5625,-0.2557 -0.5625,-0.5938 l 0,-26.8437 c 0,-0.338 0.224466,-0.5625 0.5625,-0.5625 z"
       id="path1997" />
    <path
       d="m 27,1035.3622 4,5 2,0 0,-2 z"
       id="path1999" />
  </g>
</svg>
