<?xml version="1.0" encoding="UTF-8" standalone="no"?>
<svg
   xmlns:dc="http://purl.org/dc/elements/1.1/"
   xmlns:cc="http://creativecommons.org/ns#"
   xmlns:rdf="http://www.w3.org/1999/02/22-rdf-syntax-ns#"
   xmlns:svg="http://www.w3.org/2000/svg"
   xmlns="http://www.w3.org/2000/svg"
   xmlns:sodipodi="http://sodipodi.sourceforge.net/DTD/sodipodi-0.dtd"
   xmlns:inkscape="http://www.inkscape.org/namespaces/inkscape"
   viewBox="0 0 48 48"
   id="svg2"
   version="1.1"
   inkscape:version="0.48.4 r9939"
   width="100%"
   height="100%"
   sodipodi:docname="media-dvd.svg">
  <metadata
     id="metadata26">
    <rdf:RDF>
      <cc:Work
         rdf:about="">
        <dc:format>image/svg+xml</dc:format>
        <dc:type
           rdf:resource="http://purl.org/dc/dcmitype/StillImage" />
        <dc:title></dc:title>
      </cc:Work>
    </rdf:RDF>
  </metadata>
  <defs
     id="defs24" />
  <sodipodi:namedview
     pagecolor="#ffffff"
     bordercolor="#666666"
     borderopacity="1"
     objecttolerance="10"
     gridtolerance="10"
     guidetolerance="10"
     inkscape:pageopacity="0"
     inkscape:pageshadow="2"
     inkscape:window-width="1366"
     inkscape:window-height="704"
     id="namedview22"
     showgrid="true"
     inkscape:zoom="13.906433"
     inkscape:cx="15.946174"
     inkscape:cy="24"
     inkscape:window-x="0"
     inkscape:window-y="27"
     inkscape:window-maximized="1"
     inkscape:current-layer="svg2">
    <inkscape:grid
       type="xygrid"
       id="grid3003" />
  </sodipodi:namedview>
  <g
     transform="translate(0 -1004.3622)"
     id="g18"
     style="fill:#eee8d5">
    <path
       style="fill:#eee8d5"
       d="M 24 8 C 15.163444 8 8 15.163444 8 24 C 8 32.836556 15.163444 40 24 40 C 32.836556 40 40 32.836556 40 24 C 40 15.163444 32.836556 8 24 8 z M 24 19 C 26.755501 19 29 21.2445 29 24 C 29 26.7555 26.755501 29 24 29 C 21.244499 29 19 26.7555 19 24 C 19 21.2445 21.244499 19 24 19 z M 24 20 C 21.784939 20 20 21.7849 20 24 C 20 26.2151 21.784939 28 24 28 C 26.215061 28 28 26.2151 28 24 C 28 21.7849 26.215061 20 24 20 z M 24 21.5 C 25.380712 21.5 26.5 22.619288 26.5 24 C 26.5 25.380712 25.380712 26.5 24 26.5 C 22.619288 26.5 21.5 25.380712 21.5 24 C 21.5 22.619288 22.619288 21.5 24 21.5 z "
       transform="translate(0 1004.3622)"
       id="path20" />
  </g>
  <path
     style="opacity:0.25605535;fill:#657b83"
     d="m 22.267905,22.2125 c 0.389381,-0.377094 0.889998,-0.630713 1.430491,-0.69778 l -0.194403,-1.469182 c -0.863481,0.10709 -1.652119,0.485669 -2.273475,1.088498 l 1.037387,1.078464 z m -1.732096,-1.787501 c 0.776142,-0.746338 1.778556,-1.229887 2.851637,-1.365739 L 21.9955,8.1429864 c -3.438455,0.438791 -6.654202,1.9738196 -9.13307,4.3744576 l 7.673379,7.907555 z"
     id="path20-4"
     inkscape:connector-curvature="0"
     inkscape:transform-center-x="5.719587"
     inkscape:transform-center-y="-8.8222568" />
  <path
     inkscape:connector-curvature="0"
     style="opacity:0.46366781;fill:#fffefb;fill-opacity:1"
     d="m 26.333256,24.866732 c -0.188899,0.508069 -0.53138,0.952643 -0.990227,1.246054 l 0.808474,1.242039 c 0.73307,-0.468694 1.281622,-1.150135 1.582595,-1.961863 l -1.400836,-0.526226 z m 2.333258,0.866732 c -0.378816,1.007926 -1.075052,1.876206 -1.984873,2.461168 l 5.959708,9.251185 c 2.913827,-1.87753 5.154334,-4.648355 6.3569,-7.882807 L 28.666514,25.733464 z"
     id="path20-4-3"
     inkscape:transform-center-x="-8.1706389"
     inkscape:transform-center-y="7.1562744" />
  <path
     style="opacity:0.25605535;fill:#657b83"
     d="m 25.792781,25.726629 c -0.376129,0.390314 -0.86769,0.661067 -1.405546,0.746756 l 0.245016,1.461593 c 0.859267,-0.136839 1.634364,-0.542422 2.234535,-1.166347 L 25.792801,25.72661 z m 1.792784,1.726627 c -0.749939,0.772664 -1.735031,1.290563 -2.802781,1.463386 l 1.76803,10.861704 c 3.421255,-0.557252 6.582084,-2.202398 8.976584,-4.687195 l -7.941831,-7.637898 z"
     id="path20-4-2"
     inkscape:connector-curvature="0"
     inkscape:transform-center-x="-5.9573163"
     inkscape:transform-center-y="8.7524779" />
  <path
     inkscape:connector-curvature="0"
     style="opacity:0.42560554;fill:#fffefb;fill-opacity:1"
     d="m 21.683549,23.089305 c 0.198473,-0.504406 0.549299,-0.942425 1.013611,-1.227108 l -0.784844,-1.257104 c -0.741801,0.45475 -1.30314,1.125697 -1.619408,1.931589 l 1.390626,0.552646 z m -2.316453,-0.910691 c 0.397843,-1.000568 1.110336,-1.855543 2.031055,-2.423197 l -5.783718,-9.36222 c -2.948807,1.822099 -5.241306,4.550065 -6.5048147,7.761199 l 10.2574777,4.02422 z"
     id="path20-4-3-7"
     inkscape:transform-center-x="8.0966109"
     inkscape:transform-center-y="-7.2587376" />
  <path
     style="opacity:1;fill:#839496;fill-opacity:1;stroke:none"
     d="M 24 19 C 21.238576 19 19 21.238576 19 24 C 19 26.761424 21.238576 29 24 29 C 26.761424 29 29 26.761424 29 24 C 29 21.238576 26.761424 19 24 19 z M 24 20 C 26.209139 20 28 21.790861 28 24 C 28 26.209139 26.209139 28 24 28 C 21.790861 28 20 26.209139 20 24 C 20 21.790861 21.790861 20 24 20 z "
     id="path3837" />
  <path
     inkscape:connector-curvature="0"
     style="fill:#268bd2"
     d="m 9.9415073,30.087515 h 7.8774647 3.921281 c 0.07215,0 0.14539,-0.01151 0.218637,0 0.08745,0.01151 0.113687,0.135204 0.144302,0.217937 0.09948,0.260284 0.159607,0.539438 0.231758,0.811228 0.1771,0.668543 0.403389,1.323394 0.606714,1.983191 0.207707,0.676023 0.385895,1.358375 0.562987,2.043143 0.0809,0.312983 0.147581,0.619639 0.168353,0.942749 0.0033,0.04142 0.03389,0.08515 0.06013,0.08515 0.0175,-0.05868 0.03935,-0.115183 0.0634,-0.1703 0.05903,-0.132789 0.131183,-0.259248 0.205517,-0.380529 0.150859,-0.242908 0.319212,-0.469592 0.478818,-0.707436 0.179283,-0.266728 0.349819,-0.542085 0.53238,-0.806279 0.394642,-0.567054 0.810048,-1.11305 1.216706,-1.668828 0.417597,-0.568434 0.835194,-1.136869 1.252799,-1.705188 0.08965,-0.122662 0.183657,-0.241527 0.267833,-0.369252 0.06668,-0.09896 0.133373,-0.216557 0.242688,-0.256601 0.19896,-0.07134 0.431804,-0.03567 0.635138,-0.02647 0.604531,0.02992 1.213394,0.01151 1.819072,0.01151 h 1.940428 c 0.647163,0 1.294327,0 1.940429,0 0.318116,0 0.637329,-0.01151 0.955479,0.01841 0.292971,0.02762 0.582672,0.06789 0.87234,0.126459 1.066985,0.211496 2.157919,0.659684 2.947202,1.53742 0.370591,0.414359 0.675588,0.922613 0.812239,1.499793 0.128999,0.539668 0.103853,1.109252 -0.0328,1.641325 -0.275485,1.075423 -0.952168,2.00563 -1.75453,2.625385 -0.499582,0.384326 -1.001339,0.73862 -1.554533,1.012826 -0.545501,0.267878 -1.112845,0.474425 -1.692281,0.617223 -1.223245,0.302858 -2.476044,0.247856 -3.718992,0.247856 h -2.911194 c 0.02623,-0.336803 0.125713,-0.666011 0.194586,-0.993955 0.07325,-0.359356 0.148676,-0.719978 0.22301,-1.079219 0.150859,-0.728724 0.301718,-1.457333 0.453673,-2.185941 0.08527,-0.414474 0.166162,-0.830099 0.248156,-1.246874 0.03826,-0.199067 0.0798,-0.394453 0.125713,-0.592254 0.02515,-0.103557 0.04592,-0.256716 0.109315,-0.341751 0.03061,-0.04373 0.104949,-0.04947 0.149763,-0.05408 0.09838,-0.01266 0.19896,-0.01266 0.297344,-0.01151 0.232845,0.01151 0.464603,0.01266 0.697456,0.01266 h 1.997242 c -0.04045,0.356825 -0.131182,0.701108 -0.205516,1.049188 -0.0798,0.370517 -0.154137,0.746098 -0.230662,1.120413 -0.157415,0.75611 -0.320299,1.512335 -0.458046,2.274774 0.59688,0 1.192673,0.02531 1.782979,-0.07019 0.300623,-0.04947 0.615462,-0.14648 0.902997,-0.2566 0.265643,-0.09896 0.523633,-0.224037 0.765233,-0.380644 0.73681,-0.478222 1.328212,-1.309586 1.3632,-2.312285 0.01422,-0.424485 -0.08636,-0.851387 -0.319212,-1.186809 -0.285319,-0.415625 -0.726966,-0.641042 -1.162015,-0.781195 -1.085498,-0.353142 -2.256346,-0.224152 -3.372502,-0.217823 -0.323586,0 -0.646068,0 -0.970766,0.01151 -0.155233,0 -0.310465,0 -0.466793,0 -0.158511,0 -0.336698,-0.02301 -0.493026,0.01151 -0.133365,0.02531 -0.225193,0.207698 -0.308275,0.314135 -0.113687,0.146481 -0.226288,0.290546 -0.339984,0.437028 -0.218637,0.280304 -0.436178,0.559459 -0.655911,0.838728 -0.872339,1.116732 -1.736016,2.242209 -2.603939,3.364004 -0.684335,0.885101 -1.362096,1.776531 -2.053038,2.655302 -0.417597,0.530808 -0.851618,1.050454 -1.248383,1.602548 -0.03826,0.05408 -0.09511,0.115183 -0.116974,0.182843 -0.0011,0 -0.0011,0.01151 -0.0011,0.01151 -0.04373,0 -0.0481,0.01496 -0.05793,-0.04027 -0.0153,-0.0794 -0.0328,-0.156607 -0.05466,-0.234162 -0.04373,-0.166503 -0.09948,-0.329208 -0.155233,-0.492029 -0.231758,-0.679821 -0.430718,-1.37713 -0.643885,-2.063279 -0.437274,-1.417289 -0.875652,-2.835614 -1.312925,-4.252903 -0.135556,-0.436911 -0.27439,-0.873824 -0.40885,-1.30947 -0.06778,-0.21161 -0.133364,-0.421953 -0.200055,-0.633562 -0.03498,-0.112767 -0.08526,-0.449455 -0.231758,-0.449455 0,0.199066 0.0481,0.378112 0.101671,0.568319 0.06887,0.255451 0.107132,0.5109 0.127904,0.777512 0.05357,0.657383 -0.0043,1.330874 -0.229566,1.944299 -0.41978,1.139286 -1.340271,2.01311 -2.247599,2.631599 -0.956499,0.650938 -2.031127,1.052869 -3.125458,1.253087 -0.592506,0.109318 -1.183925,0.145331 -1.781875,0.141533 -0.639512,0 -1.277936,-0.01151 -1.917414,-0.01151 H 8.4678806 8.0000003 c 0,-0.167768 0.066685,-0.34923 0.1038536,-0.512051 0.080896,-0.34923 0.1486764,-0.703639 0.2208193,-1.055401 0.3039091,-1.45342 0.6045315,-2.908221 0.9106401,-4.360491 0.032796,-0.160289 0.066684,-0.319312 0.1005755,-0.478336 0.012025,-0.05868 -0.0011,-0.0863 0.056845,-0.0863 h 0.1169743 0.2339402 0.9390047 1.836566 c -0.307187,1.479771 -0.613279,2.963338 -0.919387,4.443109 0.617652,0 1.241844,0.03567 1.850749,-0.08055 0.306092,-0.05639 0.605627,-0.156493 0.897477,-0.27041 0.238313,-0.0932 0.471158,-0.190207 0.689803,-0.330475 0.815517,-0.522177 1.481245,-1.534887 1.377383,-2.649088 -0.114784,-1.239394 -1.259338,-1.706453 -2.195116,-1.821636 -0.566273,-0.07134 -1.137981,-0.05408 -1.706463,-0.05293 -0.650441,0 -1.299762,0 -1.950279,0 H 9.8189254 9.6625973 c -0.043727,0 -0.1574151,0.02647 -0.1574151,-0.02762 0,-0.134054 0.05466,-0.286749 0.083082,-0.41574 0.1179594,-0.54427 0.2349847,-1.087619 0.351925,-1.63189"
     id="path8-5" />
</svg>
