<svg xmlns="http://www.w3.org/2000/svg" viewBox="0 0 256 256" xmlns:xlink="http://www.w3.org/1999/xlink">
<g transform="translate(0 208)">
<path style="fill:none" d="m 131.32972,-111.12346 c 1.38269,-0.77715 2.98074,-1.21981 4.68599,-1.21981 l 0,0 0,0 14.05379,0 c 5.28844,0 9.54592,4.2575 9.54592,9.5459 l 0,16.086796 c 0,5.2884 -4.25748,9.5459 -9.54592,9.5459 l -14.05379,0 c -1.70525,0 -3.3033,-0.44266 -4.68599,-1.21981"/>
</g>
<g style="fill:none;stroke:#8bb4cc">
<g transform="matrix(8.31554 0 0 8.31554 -71.57303 -8423.39)">
<path style="stroke-linecap:round;stroke-width:.79" d="m 33.05724,27.317127 c 0,5.028 -4.075999,9.103999 -9.103999,9.103999 -5.028,0 -9.103999,-4.075999 -9.103999,-9.103999 0,-5.028 4.075999,-9.103999 9.103999,-9.103999 5.028,0 9.103999,4.075999 9.103999,9.103999 z" transform="matrix(1.266 0 0 1.266 -6.32483 993.77867)"/>
<path d="m 13.06158,1023.7712 c 7.569582,-0.1889 13.821691,0.063 21.56748,0"/>
<path d="m 12.53125,1028.206 22.937499,0"/>
<path d="m 13.06158,1032.3755 c 8.141652,-0.028 14.485576,-0.031 21.56748,0"/>
</g>
<g transform="matrix(8.31554 0 0 8.31554 -75.55739 -8423.39)">
<path d="m 24.479145,1039.8309 0,-22.9374"/>
<path d="m 19.880743,1039.1005 c -2.749827,-6.3145 -2.539605,-14.2353 0,-21.1382"/>
<path d="m 29.077548,1039.1005 c 2.749827,-6.3145 2.539605,-14.2353 0,-21.1382"/>
</g>
</g>
<g transform="translate(0 208)">
<path style="fill:#8bb4cc;line-height:normal;color:#000" d="m 123.84223,-138.20881 16.63108,0 c 24.94663,0 24.94663,24.94663 24.94663,24.94663 l 0,24.687186 c 0,8.315543 -16.63108,25.206074 -16.63108,25.206074 l 0,8.315543 24.94663,16.631086 0,16.631086 -45.73549,0 -45.735486,0 0,-16.631086 33.262176,-16.631086 0,-8.315543 c 0,0 -16.685882,-16.890531 -16.631091,-25.206074 l 0,-24.687186 c 0,0 -7.4e-5,-24.94663 24.946631,-24.94663 z"/>
</g>
</svg>
