<?xml version="1.0" encoding="UTF-8" standalone="no"?>
<!-- Created with Inkscape (http://www.inkscape.org/) -->

<svg
   xmlns:dc="http://purl.org/dc/elements/1.1/"
   xmlns:cc="http://creativecommons.org/ns#"
   xmlns:rdf="http://www.w3.org/1999/02/22-rdf-syntax-ns#"
   xmlns:svg="http://www.w3.org/2000/svg"
   xmlns="http://www.w3.org/2000/svg"
   xmlns:sodipodi="http://sodipodi.sourceforge.net/DTD/sodipodi-0.dtd"
   xmlns:inkscape="http://www.inkscape.org/namespaces/inkscape"
   id="svg3208"
   height="24"
   width="24"
   version="1.0"
   inkscape:version="0.91 r"
   sodipodi:docname="nm-stage01-connecting06.svg">
  <defs
     id="defs14778" />
  <sodipodi:namedview
     pagecolor="#ffffff"
     bordercolor="#666666"
     borderopacity="1"
     objecttolerance="10"
     gridtolerance="10"
     guidetolerance="10"
     inkscape:pageopacity="0"
     inkscape:pageshadow="2"
     inkscape:window-width="1142"
     inkscape:window-height="662"
     id="namedview14776"
     showgrid="false"
     inkscape:zoom="6.9532167"
     inkscape:cx="-17.352139"
     inkscape:cy="16.373608"
     inkscape:window-x="0"
     inkscape:window-y="34"
     inkscape:window-maximized="0"
     inkscape:current-layer="svg3208" />
  <metadata
     id="metadata17">
    <rdf:RDF>
      <cc:Work
         rdf:about="">
        <dc:format>image/svg+xml</dc:format>
        <dc:type
           rdf:resource="http://purl.org/dc/dcmitype/StillImage" />
      </cc:Work>
    </rdf:RDF>
  </metadata>
  <path
     style="color:#000000;line-height:normal;opacity:0.4;fill:#353535"
     d="m 11.999998,3.9999992 c -3.310097,0 -6.398627,1.141848 -8.999998,3.121278 l 0.175185,0.288525 1.686127,2.3868815 C 6.957007,8.2907917 9.5133,7.4086472 12.021903,7.4098022 c 2.508604,0.0011 5.044547,0.8841105 7.138687,2.3868815 L 20.824826,7.4098022 21,7.1212772 c -2.601372,-1.97943 -5.689901,-3.121278 -9.000002,-3.121278 z"
     id="path8424"
     inkscape:connector-curvature="0" />
  <path
     style="color:#000000;line-height:normal;opacity:0.8;fill:#353535"
     d="m 12.021825,8.5115237 c -2.396565,0 -4.638927,0.779689 -6.569348,2.1245733 l 1.598546,2.281957 c 1.481637,-0.945357 3.182445,-1.495068 4.970802,-1.495068 1.788344,0 3.471558,0.549711 4.948898,1.495068 l 1.598546,-2.281957 C 16.645317,9.2912127 14.418379,8.5115237 12.021825,8.5115237 Z"
     id="path8426"
     inkscape:connector-curvature="0" />
  <path
     style="color:#000000;line-height:normal;opacity:0.6;fill:#353535"
     d="m 12.021825,12.524616 c -1.5723,0 -3.06594,0.464341 -4.379569,1.259012 l 1.642342,2.334424 c 0.84105,-0.41345 1.754765,-0.655746 2.715323,-0.655746 0.96696,0 1.893588,0.23705 2.737225,0.655746 l 1.620439,-2.334424 c -1.305348,-0.788111 -2.770414,-1.259012 -4.33576,-1.259012 z"
     id="path8428"
     inkscape:connector-curvature="0" />
  <path
     style="color:#000000;line-height:normal;opacity:0.4;fill:#353535"
     d="m 11.999998,16.590175 c -0.732914,0 -1.426476,0.172343 -2.080281,0.445895 l 2.080281,2.963931 2.080296,-2.99016 c -0.64836,-0.269849 -1.352577,-0.419666 -2.080296,-0.419666 z"
     id="path8430"
     inkscape:connector-curvature="0" />
</svg>
