<svg width="16" xmlns="http://www.w3.org/2000/svg" viewBox="0 0 16 16" height="16">
<g style="fill:#ef555c">
<g transform="matrix(1.06671 0 0 1.06666 -.53371 0)">
<path d="m 7.0277774,4.1111112 0,0.7291665 -0.972222,0 0,7.0486113 3.888889,0 0,-7.0486113 -0.972222,0 0,-0.7291665 z"/>
</g>
<g style="color:#000" transform="matrix(.82967 0 0 .82963 -1.12633 -.59259)">
<path d="m 11,0.7142861 c -2.840316,0 -5.4109721,1.1520513 -7.2723211,3.0133933 l 1.808035,1.808035 c 1.396012,-1.396015 3.33405,-2.25 5.4642861,-2.25 l 0,-2.5714283 z"/>
<path style="opacity:.65" d="m 11,2.0000004 c -4.9705591,0 -9,4.029441 -9,8.9999996 0,4.970559 4.0294409,9 9,9 4.970571,0 9,-4.029441 9,-9 0,-4.9705586 -4.029429,-8.9999996 -9,-8.9999996 z m 0,1.285714 c 4.260484,0 7.714286,3.453802 7.714286,7.7142856 0,4.260484 -3.453802,7.714286 -7.714286,7.714286 C 6.7395289,18.714286 3.285714,15.260484 3.285714,11 3.285714,6.7395164 6.7395289,3.2857144 11,3.2857144 Z"/>
</g>
</g>
</svg>
