<?xml version="1.0" encoding="UTF-8" standalone="no"?>
<svg
   xmlns:dc="http://purl.org/dc/elements/1.1/"
   xmlns:cc="http://creativecommons.org/ns#"
   xmlns:rdf="http://www.w3.org/1999/02/22-rdf-syntax-ns#"
   xmlns:svg="http://www.w3.org/2000/svg"
   xmlns="http://www.w3.org/2000/svg"
   xmlns:sodipodi="http://sodipodi.sourceforge.net/DTD/sodipodi-0.dtd"
   xmlns:inkscape="http://www.inkscape.org/namespaces/inkscape"
   width="24"
   height="24"
   viewBox="0 0 24 24"
   id="svg3012"
   version="1.1"
   inkscape:version="0.91 r"
   sodipodi:docname="polly-normal.svg">
  <metadata
     id="metadata3022">
    <rdf:RDF>
      <cc:Work
         rdf:about="">
        <dc:format>image/svg+xml</dc:format>
        <dc:type
           rdf:resource="http://purl.org/dc/dcmitype/StillImage" />
      </cc:Work>
    </rdf:RDF>
  </metadata>
  <defs
     id="defs3020" />
  <sodipodi:namedview
     pagecolor="#ffffff"
     bordercolor="#666666"
     borderopacity="1"
     objecttolerance="10"
     gridtolerance="10"
     guidetolerance="10"
     inkscape:pageopacity="0"
     inkscape:pageshadow="2"
     inkscape:window-width="1366"
     inkscape:window-height="747"
     id="namedview3018"
     showgrid="false"
     inkscape:zoom="9.8333333"
     inkscape:cx="12"
     inkscape:cy="12"
     inkscape:window-x="0"
     inkscape:window-y="21"
     inkscape:window-maximized="1"
     inkscape:current-layer="svg3012" />
  <path
     style="fill:#353535;fill-opacity:1"
     d="M 15.365212,4.2953218 C 13.807567,4.270256 11.974202,4.6820474 10.122932,5.5844071 7.559084,6.8376851 5.6433597,8.7892168 4.7696463,10.912626 4.5297329,10.805202 4.2647547,10.65839 3.9961951,10.482931 2.7321755,9.6521872 2.0482438,8.420395 2.0482438,8.420395 c 0,0 -0.3258523,2.456424 0.7161586,3.953195 0.5371193,0.76987 1.0993036,1.260439 1.5182561,1.546902 0.057293,0.67677 0.2255901,1.353539 0.5442805,2.005244 1.8011389,3.691797 6.957481,4.884201 11.512249,2.660529 3.133194,-1.525418 3.870837,-3.917387 3.781317,-6.928834 0.204105,-0.139651 0.372403,-0.275721 0.515634,-0.429695 0.08235,0.02506 0.175459,0.05013 0.229171,0.08594 0.544281,0.347337 0.687512,1.031268 0.687512,1.031268 0,0 0.802098,-1.682973 0.257817,-3.1224505 C 21.423914,8.209128 20.449938,7.7615291 19.69081,7.6469437 19.665748,7.4929694 19.658579,7.3461572 19.633517,7.1886023 19.336311,5.3373327 17.642597,4.3347107 15.365212,4.2953218 Z M 7.0613536,5.1833584 c 0,0 -0.9381672,0.6910927 -1.3177317,1.7187805 -0.00358,0 0.4583415,0.8593902 0.4583415,0.8593902 0,0 0.1110048,-0.1647169 0.7448048,-0.5442805 C 6.8286023,6.1644951 7.0613536,5.1833584 7.0613536,5.1833584 Z m 8.3468284,0.1933632 c 0.76629,0 1.170919,0.5335379 1.170919,1.2210501 0,0.6875122 -0.45118,1.1315305 -1.170919,1.1315305 -0.72332,0 -1.235373,-0.3115292 -1.235373,-1.1780806 0,-0.8629717 0.469083,-1.1745 1.235373,-1.1745 z M 4.4258902,5.9568096 c 0,0 -0.9703941,1.4000902 -1.002622,2.9792195 0,0.010743 1.0599147,0.9453291 1.0599147,0.9453291 0,0 0.085939,-0.329433 0.8020975,-1.1744998 C 4.5977682,7.3604803 4.4258902,5.9568096 4.4258902,5.9568096 Z M 18.000676,7.3891267 c 0.0358,0 0.03223,0 0.05729,0 -0.218429,0.064454 -0.67677,0.3151097 -0.973976,1.1745 -0.261398,0.7555475 -0.171878,1.3177315 -0.171878,1.3177315 0,0 -1.045592,0.6445428 -1.088561,1.9193048 -0.02865,0.615896 0.200524,1.289085 1.632841,1.203146 0.486988,0.04296 2.177122,-0.802097 2.177122,-0.802097 0,0 -2.134152,1.890658 -3.766994,1.475286 -1.246115,-0.31511 -1.249696,-1.260439 -1.289085,-1.690134 -0.08594,-1.002622 1.117207,-2.0911828 1.117207,-2.0911828 0,0 -0.09668,-1.1709191 0.36166,-1.7151996 0.891618,-1.1100453 1.625681,-0.7448049 1.944371,-0.7913549 z"
     id="path3016"
     inkscape:connector-curvature="0" />
</svg>
