<?xml version="1.0" encoding="UTF-8" standalone="no"?>
<!-- Created with Inkscape (http://www.inkscape.org/) -->

<svg
   xmlns:dc="http://purl.org/dc/elements/1.1/"
   xmlns:cc="http://creativecommons.org/ns#"
   xmlns:rdf="http://www.w3.org/1999/02/22-rdf-syntax-ns#"
   xmlns:svg="http://www.w3.org/2000/svg"
   xmlns="http://www.w3.org/2000/svg"
   xmlns:sodipodi="http://sodipodi.sourceforge.net/DTD/sodipodi-0.dtd"
   xmlns:inkscape="http://www.inkscape.org/namespaces/inkscape"
   id="svg3208"
   height="22"
   width="22"
   version="1.0"
   inkscape:version="0.48.4 r9939"
   sodipodi:docname="nm-stage01-connecting01.svg">
  <defs
     id="defs18" />
  <sodipodi:namedview
     pagecolor="#ffffff"
     bordercolor="#666666"
     borderopacity="1"
     objecttolerance="10"
     gridtolerance="10"
     guidetolerance="10"
     inkscape:pageopacity="0"
     inkscape:pageshadow="2"
     inkscape:window-width="1366"
     inkscape:window-height="744"
     id="namedview16"
     showgrid="false"
     inkscape:zoom="19.666667"
     inkscape:cx="16.623373"
     inkscape:cy="11.689548"
     inkscape:window-x="0"
     inkscape:window-y="24"
     inkscape:window-maximized="1"
     inkscape:current-layer="svg3208" />
  <metadata
     id="metadata17">
    <rdf:RDF>
      <cc:Work
         rdf:about="">
        <dc:format>image/svg+xml</dc:format>
        <dc:type
           rdf:resource="http://purl.org/dc/dcmitype/StillImage" />
      </cc:Work>
    </rdf:RDF>
  </metadata>
  <path
     style="line-height:normal;opacity:0.12000002;color:#000000"
     d="M 10.999998,4 C 7.689901,4 4.601371,5.141847 2,7.121278 l 0.175185,0.288525 1.686127,2.386881 c 2.095695,-1.505891 4.6519877,-2.388036 7.160591,-2.386881 2.508604,0.0011 5.044547,0.88411 7.138687,2.386881 L 19.824826,7.409803 20,7.121278 C 17.398628,5.141847 14.310099,4 10.999998,4 z"
     id="path8414"
     inkscape:connector-curvature="0" />
  <path
     style="line-height:normal;opacity:0.12000002;color:#000000"
     d="m 11.021825,8.511524 c -2.3965653,0 -4.638927,0.779688 -6.569348,2.124573 l 1.598546,2.281956 c 1.481637,-0.945356 3.1824449,-1.495067 4.970802,-1.495067 1.788344,0 3.471558,0.549711 4.948898,1.495067 l 1.598546,-2.281956 C 15.645317,9.291212 13.418379,8.511524 11.021825,8.511524 z"
     id="path8416"
     inkscape:connector-curvature="0" />
  <path
     style="line-height:normal;opacity:0.12000002;color:#000000"
     d="m 11.021825,12.524615 c -1.5723001,0 -3.0659403,0.464341 -4.37957,1.259012 l 1.6423431,2.334424 c 0.8410498,-0.41345 1.7547649,-0.655746 2.7153229,-0.655746 0.96696,0 1.893588,0.23705 2.737225,0.655746 l 1.620439,-2.334424 c -1.305348,-0.788111 -2.770414,-1.259012 -4.33576,-1.259012 z"
     id="path8418"
     inkscape:connector-curvature="0" />
  <path
     style="line-height:normal;opacity:0.12000002;color:#000000"
     d="m 10.999998,16.590175 c -0.732914,0 -1.4264761,0.172342 -2.0802807,0.445895 L 10.999998,20 13.080294,17.009841 c -0.64836,-0.26985 -1.352577,-0.419666 -2.080296,-0.419666 z"
     id="path8420"
     inkscape:connector-curvature="0" />
  <path
     style="line-height:normal;opacity:0.4;color:#000000;fill:#dcdcdc"
     d="M 10.999998,3 C 7.689901,3 4.601371,4.141847 2,6.121278 l 0.175185,0.288525 1.686127,2.386881 c 2.095695,-1.505891 4.6519878,-2.388036 7.160591,-2.386881 2.508604,0.0011 5.044547,0.88411 7.138687,2.386881 L 19.824826,6.409803 20,6.121278 C 17.398628,4.141847 14.310099,3 10.999998,3 z"
     id="path8424"
     inkscape:connector-curvature="0" />
  <path
     style="line-height:normal;opacity:0.4;color:#000000;fill:#dcdcdc"
     d="m 11.021825,7.511524 c -2.3965652,0 -4.638927,0.779688 -6.569348,2.124573 l 1.598546,2.281956 c 1.481637,-0.945356 3.1824449,-1.495067 4.970802,-1.495067 1.788344,0 3.471558,0.549711 4.948898,1.495067 L 17.569269,9.636097 C 15.645317,8.291212 13.418379,7.511524 11.021825,7.511524 z"
     id="path8426"
     inkscape:connector-curvature="0" />
  <path
     style="line-height:normal;opacity:0.4;color:#000000;fill:#dcdcdc"
     d="m 11.021825,11.524615 c -1.5723001,0 -3.0659402,0.464341 -4.379569,1.259012 l 1.6423418,2.334424 c 0.8410501,-0.41345 1.7547652,-0.655746 2.7153232,-0.655746 0.96696,0 1.893588,0.23705 2.737225,0.655746 l 1.620439,-2.334424 c -1.305348,-0.788111 -2.770414,-1.259012 -4.33576,-1.259012 z"
     id="path8428"
     inkscape:connector-curvature="0" />
  <path
     style="line-height:normal;color:#000000;fill:#dcdcdc"
     d="m 10.999998,15.590175 c -0.732914,0 -1.4264761,0.172342 -2.0802812,0.445895 L 10.999998,19 13.080294,16.009841 c -0.64836,-0.26985 -1.352577,-0.419666 -2.080296,-0.419666 z"
     id="path8430"
     inkscape:connector-curvature="0" />
</svg>
