<?xml version="1.0" encoding="UTF-8" standalone="no"?>
<!-- Created with Inkscape (http://www.inkscape.org/) -->

<svg
   xmlns:dc="http://purl.org/dc/elements/1.1/"
   xmlns:cc="http://creativecommons.org/ns#"
   xmlns:rdf="http://www.w3.org/1999/02/22-rdf-syntax-ns#"
   xmlns:svg="http://www.w3.org/2000/svg"
   xmlns="http://www.w3.org/2000/svg"
   xmlns:sodipodi="http://sodipodi.sourceforge.net/DTD/sodipodi-0.dtd"
   xmlns:inkscape="http://www.inkscape.org/namespaces/inkscape"
   id="svg3208"
   height="22"
   width="22"
   version="1.0"
   inkscape:version="0.91 r"
   sodipodi:docname="nm-stage01-connecting10.svg">
  <defs
     id="defs17684" />
  <sodipodi:namedview
     pagecolor="#ffffff"
     bordercolor="#666666"
     borderopacity="1"
     objecttolerance="10"
     gridtolerance="10"
     guidetolerance="10"
     inkscape:pageopacity="0"
     inkscape:pageshadow="2"
     inkscape:window-width="1366"
     inkscape:window-height="747"
     id="namedview17682"
     showgrid="false"
     inkscape:zoom="19.666667"
     inkscape:cx="10.532426"
     inkscape:cy="6.8224839"
     inkscape:window-x="0"
     inkscape:window-y="21"
     inkscape:window-maximized="1"
     inkscape:current-layer="svg3208" />
  <metadata
     id="metadata17">
    <rdf:RDF>
      <cc:Work
         rdf:about="">
        <dc:format>image/svg+xml</dc:format>
        <dc:type
           rdf:resource="http://purl.org/dc/dcmitype/StillImage" />
      </cc:Work>
    </rdf:RDF>
  </metadata>
  <path
     style="line-height:normal;color:#000000;fill:#ececec"
     d="m 10.999998,3.0000002 c -3.310097,0 -6.398627,1.141847 -8.999998,3.121278 l 0.175185,0.288525 1.686127,2.3868808 c 2.095695,-1.5058908 4.651987,-2.3880358 7.160591,-2.3868808 2.508604,0.0011 5.044547,0.88411 7.138687,2.3868808 L 19.824826,6.4098032 20,6.1212782 c -2.601372,-1.979431 -5.689901,-3.121278 -9.000002,-3.121278 z"
     id="path8424"
     inkscape:connector-curvature="0" />
  <path
     style="line-height:normal;opacity:0.4;color:#000000;fill:#ececec"
     d="m 11.021825,7.5115242 c -2.396566,0 -4.638927,0.7796878 -6.569348,2.1245728 l 1.598546,2.281956 c 1.481637,-0.945356 3.182445,-1.495067 4.970802,-1.495067 1.788344,0 3.471558,0.549711 4.948898,1.495067 L 17.569269,9.636097 C 15.645317,8.291212 13.418379,7.5115242 11.021825,7.5115242 z"
     id="path8426"
     inkscape:connector-curvature="0" />
  <path
     style="line-height:normal;opacity:0.4;color:#000000;fill:#ececec"
     d="m 11.021825,11.524615 c -1.5723,0 -3.065941,0.464341 -4.379569,1.259012 l 1.642341,2.334424 c 0.841051,-0.41345 1.754766,-0.655746 2.715324,-0.655746 0.96696,0 1.893588,0.23705 2.737225,0.655746 l 1.620439,-2.334424 c -1.305348,-0.788111 -2.770414,-1.259012 -4.33576,-1.259012 z"
     id="path8428"
     inkscape:connector-curvature="0" />
  <path
     style="line-height:normal;opacity:0.4;color:#000000;fill:#ececec"
     d="m 10.999998,15.590175 c -0.732914,0 -1.426476,0.172342 -2.080282,0.445895 L 10.999998,19 13.080294,16.009841 c -0.64836,-0.26985 -1.352577,-0.419666 -2.080296,-0.419666 z"
     id="path8430"
     inkscape:connector-curvature="0" />
</svg>
