<?xml version="1.0" encoding="UTF-8" standalone="no"?>
<!-- Created with Inkscape (http://www.inkscape.org/) -->

<svg
   xmlns:dc="http://purl.org/dc/elements/1.1/"
   xmlns:cc="http://creativecommons.org/ns#"
   xmlns:rdf="http://www.w3.org/1999/02/22-rdf-syntax-ns#"
   xmlns:svg="http://www.w3.org/2000/svg"
   xmlns="http://www.w3.org/2000/svg"
   xmlns:sodipodi="http://sodipodi.sourceforge.net/DTD/sodipodi-0.dtd"
   xmlns:inkscape="http://www.inkscape.org/namespaces/inkscape"
   id="svg3208"
   height="22"
   width="22"
   version="1.0"
   inkscape:version="0.48.4 r9939"
   sodipodi:docname="nm-stage01-connecting11.svg">
  <defs
     id="defs18329" />
  <sodipodi:namedview
     pagecolor="#ffffff"
     bordercolor="#666666"
     borderopacity="1"
     objecttolerance="10"
     gridtolerance="10"
     guidetolerance="10"
     inkscape:pageopacity="0"
     inkscape:pageshadow="2"
     inkscape:window-width="811"
     inkscape:window-height="480"
     id="namedview18327"
     showgrid="false"
     inkscape:zoom="9.8333333"
     inkscape:cx="15.74242"
     inkscape:cy="12"
     inkscape:window-x="0"
     inkscape:window-y="34"
     inkscape:window-maximized="0"
     inkscape:current-layer="svg3208" />
  <metadata
     id="metadata17">
    <rdf:RDF>
      <cc:Work
         rdf:about="">
        <dc:format>image/svg+xml</dc:format>
        <dc:type
           rdf:resource="http://purl.org/dc/dcmitype/StillImage" />
      </cc:Work>
    </rdf:RDF>
  </metadata>
  <g
     id="g2989"
     transform="translate(-1,-0.5)">
    <path
       inkscape:connector-curvature="0"
       id="path8414"
       d="M 11.999998,4.4999998 C 8.689901,4.4999998 5.601371,5.6418468 3,7.6212782 l 0.175185,0.288525 1.686127,2.3868808 C 6.957007,8.7907932 9.5133,7.9086482 12.021903,7.9098032 c 2.508604,0.0011 5.044547,0.88411 7.138687,2.3868808 L 20.824826,7.9098032 21,7.6212782 C 18.398628,5.6418468 15.310099,4.4999998 11.999998,4.4999998 z"
       style="line-height:normal;opacity:0.12000002;color:#000000" />
    <path
       inkscape:connector-curvature="0"
       id="path8416"
       d="m 12.021825,9.0115242 c -2.396565,0 -4.638927,0.779688 -6.569348,2.1245728 l 1.598546,2.281956 c 1.481637,-0.945356 3.182445,-1.495067 4.970802,-1.495067 1.788344,0 3.471558,0.549711 4.948898,1.495067 l 1.598546,-2.281956 C 16.645317,9.7912122 14.418379,9.0115242 12.021825,9.0115242 z"
       style="line-height:normal;opacity:0.12000002;color:#000000" />
    <path
       inkscape:connector-curvature="0"
       id="path8418"
       d="m 12.021825,13.024615 c -1.5723,0 -3.06594,0.464341 -4.37957,1.259012 l 1.642343,2.334424 c 0.84105,-0.41345 1.754765,-0.655746 2.715323,-0.655746 0.96696,0 1.893588,0.23705 2.737225,0.655746 l 1.620439,-2.334424 c -1.305348,-0.788111 -2.770414,-1.259012 -4.33576,-1.259012 z"
       style="line-height:normal;opacity:0.12000002;color:#000000" />
    <path
       inkscape:connector-curvature="0"
       id="path8420"
       d="m 11.999998,17.090175 c -0.732914,0 -1.426476,0.172342 -2.080281,0.445895 L 11.999998,20.5 14.080294,17.509841 c -0.64836,-0.26985 -1.352577,-0.419666 -2.080296,-0.419666 z"
       style="line-height:normal;opacity:0.12000002;color:#000000" />
    <path
       inkscape:connector-curvature="0"
       id="path8424"
       d="M 11.999998,3.4999998 C 8.689901,3.4999998 5.601371,4.6418468 3,6.6212782 l 0.175185,0.288525 1.686127,2.386881 c 2.095695,-1.505891 4.651988,-2.388036 7.160591,-2.386881 2.508604,0.0011 5.044547,0.88411 7.138687,2.386881 L 20.824826,6.9098032 21,6.6212782 C 18.398628,4.6418468 15.310099,3.4999998 11.999998,3.4999998 z"
       style="line-height:normal;opacity:0.75;color:#000000;fill:#dcdcdc" />
    <path
       inkscape:connector-curvature="0"
       id="path8426"
       d="m 12.021825,8.0115242 c -2.396565,0 -4.638927,0.779688 -6.569348,2.1245728 l 1.598546,2.281956 c 1.481637,-0.945356 3.182445,-1.495067 4.970802,-1.495067 1.788344,0 3.471558,0.549711 4.948898,1.495067 l 1.598546,-2.281956 C 16.645317,8.7912122 14.418379,8.0115242 12.021825,8.0115242 z"
       style="line-height:normal;opacity:0.4;color:#000000;fill:#dcdcdc" />
    <path
       inkscape:connector-curvature="0"
       id="path8428"
       d="m 12.021825,12.024615 c -1.5723,0 -3.06594,0.464341 -4.379569,1.259012 l 1.642342,2.334424 c 0.84105,-0.41345 1.754765,-0.655746 2.715323,-0.655746 0.96696,0 1.893588,0.23705 2.737225,0.655746 l 1.620439,-2.334424 c -1.305348,-0.788111 -2.770414,-1.259012 -4.33576,-1.259012 z"
       style="line-height:normal;opacity:0.4;color:#000000;fill:#dcdcdc" />
    <path
       inkscape:connector-curvature="0"
       id="path8430"
       d="m 11.999998,16.090175 c -0.732914,0 -1.426476,0.172342 -2.080281,0.445895 L 11.999998,19.5 14.080294,16.509841 c -0.64836,-0.26985 -1.352577,-0.419666 -2.080296,-0.419666 z"
       style="line-height:normal;opacity:0.75;color:#000000;fill:#dcdcdc" />
  </g>
</svg>
