<svg width="32" xmlns="http://www.w3.org/2000/svg" height="32" viewBox="0 0 32 32" xmlns:xlink="http://www.w3.org/1999/xlink">
<path style="fill:#53cded;fill-opacity:.298" d="M 6.925781 3.957031 C 5.285156 3.957031 3.957031 5.285156 3.957031 6.925781 L 3.957031 24.738281 C 3.957031 26.382812 5.285156 27.707031 6.925781 27.707031 L 24.738281 27.707031 C 26.382812 27.707031 27.707031 26.382812 27.707031 24.738281 L 27.707031 6.925781 C 27.707031 5.285156 26.382812 3.957031 24.738281 3.957031 Z "/>
<path style="fill:#fff;fill-opacity:.8" d="M 9.894531 6.925781 L 21.769531 6.925781 L 21.769531 17.8125 L 17.8125 17.8125 L 17.8125 18.800781 L 13.855469 18.800781 L 13.855469 13.855469 L 17.8125 13.855469 L 17.8125 10.886719 L 13.855469 10.886719 L 13.855469 11.875 L 9.894531 11.875 Z M 13.855469 20.78125 L 17.8125 20.78125 L 17.8125 24.738281 L 13.855469 24.738281 Z "/>
</svg>
