<svg width="128" xmlns="http://www.w3.org/2000/svg" height="128" viewBox="0 0 128 128" xmlns:xlink="http://www.w3.org/1999/xlink">
<path style="fill:#dc322f" d="M 88 128 C 85.550781 128 83.226562 126.957031 81.5 125.25 L 50.75 95.5 C 47.148438 91.992188 47.148438 86.257812 50.75 82.75 C 54.351562 79.242188 60.148438 79.242188 63.75 82.75 L 80 98.5 L 80 0 L 96 0 L 96 98.5 L 112.25 82.75 C 114.890625 80.085938 118.996094 79.300781 122.5 80.75 C 126.003906 82.199219 128.121094 85.535156 128 89.25 C 127.929688 91.585938 126.953125 93.886719 125.25 95.5 L 94.5 125.25 C 92.773438 126.957031 90.449219 128 88 128 Z "/>
<g style="fill-rule:evenodd;fill:#268bd2">
<path d="M 32 96 C 32 87.164062 24.835938 80 16 80 C 7.164062 80 0 87.164062 0 96 C 0 104.835938 7.164062 112 16 112 C 24.835938 112 32 104.835938 32 96 Z "/>
<path d="M 32 56 C 32 47.164062 24.835938 40 16 40 C 7.164062 40 0 47.164062 0 56 C 0 64.835938 7.164062 72 16 72 C 24.835938 72 32 64.835938 32 56 Z "/>
<path d="M 32 16 C 32 7.164062 24.835938 0 16 0 C 7.164062 0 0 7.164062 0 16 C 0 24.835938 7.164062 32 16 32 C 24.835938 32 32 24.835938 32 16 Z "/>
</g>
</svg>
