<svg width="128" xmlns="http://www.w3.org/2000/svg" height="128" viewBox="0 0 128 128" xmlns:xlink="http://www.w3.org/1999/xlink">
<path style="fill:#909ea9" d="M 34.667969 32 C 33.1875 32 32 33.1875 32 34.667969 L 27.917969 34.667969 C 24.320312 34.667969 21.332031 37.652344 21.332031 41.25 L 21.332031 86.75 C 21.332031 90.347656 24.320312 93.332031 27.917969 93.332031 L 100.082031 93.332031 C 103.679688 93.332031 106.667969 90.347656 106.667969 86.75 L 106.667969 41.25 C 106.667969 37.652344 103.679688 34.667969 100.082031 34.667969 L 48 34.667969 C 48 33.1875 46.8125 32 45.332031 32 Z M 97.332031 40 C 99.542969 40 101.332031 41.789062 101.332031 44 C 101.332031 46.210938 99.542969 48 97.332031 48 C 95.125 48 93.332031 46.210938 93.332031 44 C 93.332031 41.789062 95.125 40 97.332031 40 Z M 62.5 50.667969 C 62.996094 50.617188 63.492188 50.667969 64 50.667969 C 72.132812 50.667969 78.667969 57.203125 78.667969 65.332031 C 78.667969 73.464844 72.132812 80 64 80 C 55.867188 80 49.332031 73.464844 49.332031 65.332031 C 49.332031 57.710938 55.082031 51.414062 62.5 50.667969 Z "/>
</svg>
