<svg width="128" xmlns="http://www.w3.org/2000/svg" height="128" viewBox="0 0 128 128" xmlns:xlink="http://www.w3.org/1999/xlink">
<g style="fill:#8f9da9">
<path d="M 7.917969 31.667969 C 3.527344 31.667969 0 35.195312 0 39.582031 L 0 95 C 0 99.386719 3.527344 102.917969 7.917969 102.917969 L 118.75 102.917969 C 123.136719 102.917969 126.667969 99.386719 126.667969 95 L 126.667969 39.582031 C 126.667969 35.195312 123.136719 31.667969 118.75 31.667969 Z M 23.75 47.5 L 102.917969 47.5 C 107.304688 47.5 110.832031 51.027344 110.832031 55.417969 L 110.832031 79.167969 C 110.832031 83.554688 107.304688 87.082031 102.917969 87.082031 L 23.75 87.082031 C 19.363281 87.082031 15.832031 83.554688 15.832031 79.167969 L 15.832031 55.417969 C 15.832031 51.027344 19.363281 47.5 23.75 47.5 Z "/>
<path d="M 23.75 55.417969 L 23.75 63.332031 L 31.667969 63.332031 L 31.667969 55.417969 Z "/>
<path d="M 39.582031 55.417969 L 39.582031 63.332031 L 47.5 63.332031 L 47.5 55.417969 Z "/>
<path d="M 55.417969 55.417969 L 55.417969 63.332031 L 63.332031 63.332031 L 63.332031 55.417969 Z "/>
<path d="M 71.25 55.417969 L 71.25 63.332031 L 79.167969 63.332031 L 79.167969 55.417969 Z "/>
<path d="M 23.75 71.25 L 23.75 79.167969 L 39.871094 79.167969 L 39.871094 71.25 Z "/>
<path d="M 47.5 71.25 L 47.5 79.167969 L 86.796875 79.167969 L 86.796875 71.25 Z "/>
<path d="M 87.082031 55.417969 L 87.082031 63.332031 L 95 63.332031 L 95 79.167969 L 102.917969 79.167969 L 102.917969 55.417969 Z "/>
</g>
</svg>
