<svg xmlns="http://www.w3.org/2000/svg" viewBox="0 0 48 48" xmlns:xlink="http://www.w3.org/1999/xlink">
<g style="fill:#555;line-height:normal;color:#000">
<path d="M 10.34375 4 C 9.6072267 4.0767109 8.9960396 4.764118 9 5.5 L 9 42.5 C 9.0000789 43.285337 9.7096842 43.999922 10.5 44 L 37.5 44 C 38.290316 43.999922 38.999921 43.285337 39 42.5 L 39 32.71875 L 35.96875 35.71875 L 35.96875 41 L 12.03125 41 L 12.03125 7 L 30 7 L 30 11 L 36 11 L 36 16.3125 L 39 19.28125 L 39 8.03125 C 38 7.0124701 33.954345 4.9979644 33 4 L 10.5 4 C 10.44764 3.99729 10.396114 3.99729 10.34375 4 z M 36 19.09375 L 35.96875 24.75 L 36.5 25.28125 L 37.21875 26 L 36.5 26.6875 L 35.96875 27.21875 L 35.96875 30.34375 L 35.96875 32.90625 L 39 29.875 L 39 27.90625 L 39 22.09375 L 36 19.09375 z "/>
<path d="m 30.103072,12.964547 a 3.0003,3.0003 0 0 1 2.0625,0.90625 l 10.000001,10 a 3.0003,3.0003 0 0 1 0,4.25 l -10.000001,10 a 3.0052038,3.0052038 0 0 1 -4.249999,-4.25 l 7.874999,-7.875 -7.874999,-7.875 a 3.0003,3.0003 0 0 1 2.187499,-5.15625 z"/>
</g>
</svg>
