<?xml version="1.0" encoding="UTF-8" standalone="no"?>
<svg
   xmlns:dc="http://purl.org/dc/elements/1.1/"
   xmlns:cc="http://creativecommons.org/ns#"
   xmlns:rdf="http://www.w3.org/1999/02/22-rdf-syntax-ns#"
   xmlns:svg="http://www.w3.org/2000/svg"
   xmlns="http://www.w3.org/2000/svg"
   xmlns:sodipodi="http://sodipodi.sourceforge.net/DTD/sodipodi-0.dtd"
   xmlns:inkscape="http://www.inkscape.org/namespaces/inkscape"
   width="48"
   height="48"
   viewBox="0 0 48 48"
   id="svg2"
   version="1.1"
   inkscape:version="0.91 r13725"
   sodipodi:docname="format-text-none.svg">
  <metadata
     id="metadata14">
    <rdf:RDF>
      <cc:Work
         rdf:about="">
        <dc:format>image/svg+xml</dc:format>
        <dc:type
           rdf:resource="http://purl.org/dc/dcmitype/StillImage" />
        <dc:title></dc:title>
      </cc:Work>
    </rdf:RDF>
  </metadata>
  <defs
     id="defs12" />
  <sodipodi:namedview
     pagecolor="#ffffff"
     bordercolor="#666666"
     borderopacity="1"
     objecttolerance="10"
     gridtolerance="10"
     guidetolerance="10"
     inkscape:pageopacity="0"
     inkscape:pageshadow="2"
     inkscape:window-width="1366"
     inkscape:window-height="704"
     id="namedview10"
     showgrid="false"
     inkscape:zoom="1"
     inkscape:cx="39.525049"
     inkscape:cy="14.799881"
     inkscape:window-x="0"
     inkscape:window-y="27"
     inkscape:window-maximized="1"
     inkscape:current-layer="svg2">
    <inkscape:grid
       type="xygrid"
       id="grid4142" />
  </sodipodi:namedview>
  <g
     style="fill:#268bd2"
     id="g4"
     transform="translate(0,4)">
    <path
       d="m 12,6 0,6 18,0 c 1.371094,0 4.132812,0.929688 4,2 l 0,2 -16,0 C 10,16 8,20 8,25.601562 8,30 10,34 17.601562,34 L 40,34 40,14.398438 C 40,9.824219 35.777344,6 30.398438,6 Z m 6,16 16,0 0,6 -16,0 C 16,28 14,28 14,25.121094 14,22 16,22 18,22 Z"
       id="path6"
       inkscape:connector-curvature="0" />
  </g>
  <path
     style="fill:#dc322f;fill-opacity:1"
     d="M 45.97,40.59325 40.56325,35.1865 45.97,29.77975 40.56325,24.373 35.1565,29.77975 29.74975,24.373 24.343,29.77975 29.74975,35.1865 24.343,40.59325 29.74975,46 35.1565,40.59325 40.56325,46 Z"
     id="path6-3"
     inkscape:connector-curvature="0" />
</svg>
