<svg width="48" xmlns="http://www.w3.org/2000/svg" height="48" viewBox="0 0 48 48" xmlns:xlink="http://www.w3.org/1999/xlink">
<path style="fill:#89bf4f" d="M 22 10 C 4.222656 23.945312 4 20.152344 4 24 C 4 26 4 26 10 26 L 10 42 C 9.996094 43.070312 11.097656 44.007812 12 44 L 18 44 C 18.902344 44.007812 20.003906 43.070312 20 42 L 20 28 L 28 28 L 28 42 C 27.996094 43.070312 29.097656 44.007812 30 44 L 36 44 C 36.902344 44.007812 38.003906 43.070312 38 42 L 38 26 C 44 26 44 26 44 24 C 44 20.148438 43.851562 24.015625 26 10 C 24 8 24 8 22 10 Z "/>
</svg>
