<svg xmlns="http://www.w3.org/2000/svg" viewBox="0 0 48 48">
<path style="fill:#555555#5555555;line-height:normal;color:#000" d="m 22.956472,10.96875 a 3.0003,3.0003 0 0 1 2.15625,5.15625 l -4.875,4.875 11.78125,0 c 2.5,0 4.579729,1.690708 5.3125,3.15625 C 38.064242,25.621792 38.018971,27 38.018971,27 l 0,5 a 3.0003,3.0003 0 1 1 -5.999999,0 l 0,-5 -11.78125,0 4.875,4.875 a 3.0052038,3.0052038 0 0 1 -4.25,4.25 l -10,-10 a 3.0003,3.0003 0 0 1 0,-4.25 l 10,-10 a 3.0003,3.0003 0 0 1 2.0625,-0.90625 3.0003,3.0003 0 0 1 0.03125,0 z"/>
</svg>
