<svg xmlns="http://www.w3.org/2000/svg" viewBox="0 0 48 48">
<path style="fill:#555555#5555555;line-height:normal;color:#000" d="m 21.187628,8 c -0.676368,0.1439566 -1.202581,0.8086463 -1.1875,1.5 L 20,11 6,11 c -2,0 -2,2 -2,2 l 0,3 40,0 0,-3 c 0,-2 -2,-2 -2,-2 L 28,11.03125 28,9.5 C 27.999921,8.7146233 27.285377,8.0000786 26.5,8 L 21.500128,8 C 21.39634,7.989131 21.291417,7.989131 21.187628,8 z M 4,18 4,37.5 c 7.86e-5,0.785377 0.7146233,1.499921 1.5,1.5 l 37,0 c 0.785377,-7.9e-5 1.499921,-0.714623 1.5,-1.5 L 44,18 z"/>
</svg>
