<svg xmlns="http://www.w3.org/2000/svg" viewBox="0 0 48 48">
<path style="fill:#555555#2d2d2d;line-height:normal;color:#000" d="m 11.812509,15.032282 a 2.0002,2.0002 0 0 0 -1.8125,2 l 0,13 a 2.0002,2.0002 0 0 0 2,2 l 5,0 a 2.0002,2.0002 0 1 0 0,-4 l -3,0 0,-9 20,0 0,9 -4,0 0,-3 c 0.0044,-0.567964 -0.561467,-1.070951 -1.125,-1 -0.221847,0.02398 -0.434654,0.124789 -0.59375,0.28125 l -5,5 c -0.384243,0.371767 -0.384243,1.065733 0,1.4375 l 5,5 c 0.555366,0.574295 1.737539,0.07993 1.71875,-0.71875 l 0,-3 6,0 a 2.0002,2.0002 0 0 0 2,-2 l 0,-13 a 2.0002,2.0002 0 0 0 -2,-2 l -24,0 a 2.0002,2.0002 0 0 0 -0.1875,0 z"/>
</svg>
