<svg width="47.5" xmlns="http://www.w3.org/2000/svg" height="47.5" viewBox="0 0 38 38" xmlns:xlink="http://www.w3.org/1999/xlink">
<path style="fill:#aaa" d="M 16.625 0 C 7.441406 0 0 7.441406 0 16.625 C 0 25.808594 7.441406 33.25 16.625 33.25 C 20.007812 33.25 23.128906 32.238281 25.753906 30.503906 L 33.25 38 L 38 38 L 38 33.25 L 30.503906 25.753906 C 32.238281 23.128906 33.25 20.007812 33.25 16.625 C 33.25 7.441406 25.808594 0 16.625 0 Z M 16.625 4.75 C 23.183594 4.75 28.5 10.066406 28.5 16.625 C 28.5 23.183594 23.183594 28.5 16.625 28.5 C 10.066406 28.5 4.75 23.183594 4.75 16.625 C 4.75 10.066406 10.066406 4.75 16.625 4.75 Z M 9.5 9.5 L 9.5 14.25 L 11.875 14.25 L 11.875 11.875 L 14.25 11.875 L 14.25 9.5 Z M 19 9.5 L 19 11.875 L 21.375 11.875 L 21.375 14.25 L 23.75 14.25 L 23.75 9.5 Z M 9.5 19 L 9.5 23.75 L 14.25 23.75 L 14.25 21.375 L 11.875 21.375 L 11.875 19 Z M 21.375 19 L 21.375 21.375 L 19 21.375 L 19 23.75 L 23.75 23.75 L 23.75 19 Z "/>
</svg>
