<?xml version="1.0" encoding="UTF-8" standalone="no"?>
<svg
   xmlns:dc="http://purl.org/dc/elements/1.1/"
   xmlns:cc="http://creativecommons.org/ns#"
   xmlns:rdf="http://www.w3.org/1999/02/22-rdf-syntax-ns#"
   xmlns:svg="http://www.w3.org/2000/svg"
   xmlns="http://www.w3.org/2000/svg"
   xmlns:sodipodi="http://sodipodi.sourceforge.net/DTD/sodipodi-0.dtd"
   xmlns:inkscape="http://www.inkscape.org/namespaces/inkscape"
   width="48"
   height="48"
   viewBox="0 0 48 48"
   id="svg2"
   version="1.1"
   inkscape:version="0.91 r13725"
   sodipodi:docname="stock_addressbook.svg">
  <metadata
     id="metadata14">
    <rdf:RDF>
      <cc:Work
         rdf:about="">
        <dc:format>image/svg+xml</dc:format>
        <dc:type
           rdf:resource="http://purl.org/dc/dcmitype/StillImage" />
      </cc:Work>
    </rdf:RDF>
  </metadata>
  <defs
     id="defs12" />
  <sodipodi:namedview
     pagecolor="#ffffff"
     bordercolor="#666666"
     borderopacity="1"
     objecttolerance="10"
     gridtolerance="10"
     guidetolerance="10"
     inkscape:pageopacity="0"
     inkscape:pageshadow="2"
     inkscape:window-width="1366"
     inkscape:window-height="704"
     id="namedview10"
     showgrid="true"
     inkscape:zoom="13.906433"
     inkscape:cx="9.9058035"
     inkscape:cy="26.876366"
     inkscape:window-x="0"
     inkscape:window-y="27"
     inkscape:window-maximized="1"
     inkscape:current-layer="svg2">
    <inkscape:grid
       type="xygrid"
       id="grid4142" />
  </sodipodi:namedview>
  <path
     style="fill:#6c71c4;fill-rule:evenodd"
     d="m 12,6 24,0 c 4,0 4,0 4,4 l 0,28 c 0,4 0,4 -4,4 L 12,42 C 8,42 8,42 8,38 L 8,10 C 8,6 8,6 12,6 Z"
     id="path4"
     inkscape:connector-curvature="0" />
  <path
     style="fill:#2d2d2d;fill-opacity:0.53299997"
     d="M 18.449219,15.136719 C 17.5625,18.25 17.542969,22.558594 19.125,24.683594 c 0.664062,1.007812 1.570312,2.332031 0.859375,3.539062 -1.3125,1.882813 -3.503906,2.898438 -5.496094,3.921875 -0.679687,0.07031 -0.433593,0.691407 -0.476562,1.148438 -0.0039,0.367187 -0.113281,0.84375 0.429687,0.671875 l 19.117188,0 c 0.542968,0.171875 0.433594,-0.304688 0.429687,-0.671875 -0.04297,-0.457031 0.203125,-1.078125 -0.476562,-1.148438 -1.992188,-1.023437 -4.183594,-2.039062 -5.496094,-3.921875 -0.710937,-1.207031 0.195313,-2.53125 0.859375,-3.539062 1.671875,-2.3125 1.886719,-7.347656 0.667969,-9.617188 C 28.445312,13.101562 27.332031,12.074219 24,12 c -3.339844,0.132812 -4.445312,1.101562 -5.550781,3.136719 z"
     id="path6"
     inkscape:connector-curvature="0" />
</svg>
