<svg xmlns="http://www.w3.org/2000/svg" viewBox="0 0 48 48" xmlns:xlink="http://www.w3.org/1999/xlink">
<g style="fill:#555555#5555555;line-height:normal;color:#000">
<path d="M 5.34375 6.84375 A 1.50015 1.50015 0 0 0 4 8.34375 L 4 39.65625 A 1.50015 1.50015 0 0 0 5.5 41.15625 L 42.5 41.15625 A 1.50015 1.50015 0 0 0 44 39.65625 L 44 8.34375 A 1.50015 1.50015 0 0 0 42.5 6.84375 L 5.5 6.84375 A 1.50015 1.50015 0 0 0 5.34375 6.84375 z M 40 9 C 40.552285 9 41 9.4477153 41 10 C 41 10.552285 40.552285 11 40 11 C 39.447715 11 39 10.552285 39 10 C 39 9.4477153 39.447715 9 40 9 z M 7 13 L 41 13 L 41 38.15625 L 7 38.15625 L 7 13 z "/>
<path d="m 22.1875,16.004077 c -0.676368,0.143957 -1.202581,0.808646 -1.1875,1.5 l 0,3.5 -3.5,0 c -0.785377,7.8e-5 -1.499921,0.714622 -1.5,1.5 l 0,3 c 7.9e-5,0.785376 0.714623,1.49992 1.5,1.499999 l 3.5,0 0,3.5 c 7.9e-5,0.785377 0.714623,1.499921 1.5,1.5 l 3,0 c 0.785377,-7.9e-5 1.499921,-0.714623 1.5,-1.5 l 0,-3.5 3.5,0 c 0.785377,-7.9e-5 1.499921,-0.714623 1.5,-1.499999 l 0,-3 c -7.9e-5,-0.785378 -0.714623,-1.499922 -1.5,-1.5 l -3.5,0 0,-3.5 c -7.9e-5,-0.785377 -0.714623,-1.499921 -1.5,-1.5 l -3,0 c -0.103788,-0.01087 -0.208712,-0.01087 -0.3125,0 z"/>
</g>
</svg>
