<?xml version="1.0" encoding="UTF-8" standalone="no"?>
<svg
   xmlns:dc="http://purl.org/dc/elements/1.1/"
   xmlns:cc="http://creativecommons.org/ns#"
   xmlns:rdf="http://www.w3.org/1999/02/22-rdf-syntax-ns#"
   xmlns:svg="http://www.w3.org/2000/svg"
   xmlns="http://www.w3.org/2000/svg"
   xmlns:sodipodi="http://sodipodi.sourceforge.net/DTD/sodipodi-0.dtd"
   xmlns:inkscape="http://www.inkscape.org/namespaces/inkscape"
   width="48"
   height="48"
   viewBox="0 0 48 48"
   id="svg2"
   version="1.1"
   inkscape:version="0.91 r13725"
   sodipodi:docname="tools-check-spelling.svg">
  <metadata
     id="metadata18">
    <rdf:RDF>
      <cc:Work
         rdf:about="">
        <dc:format>image/svg+xml</dc:format>
        <dc:type
           rdf:resource="http://purl.org/dc/dcmitype/StillImage" />
      </cc:Work>
    </rdf:RDF>
  </metadata>
  <defs
     id="defs16" />
  <sodipodi:namedview
     pagecolor="#ffffff"
     bordercolor="#666666"
     borderopacity="1"
     objecttolerance="10"
     gridtolerance="10"
     guidetolerance="10"
     inkscape:pageopacity="0"
     inkscape:pageshadow="2"
     inkscape:window-width="838"
     inkscape:window-height="480"
     id="namedview14"
     showgrid="false"
     inkscape:zoom="4.9166667"
     inkscape:cx="27.976385"
     inkscape:cy="24"
     inkscape:window-x="0"
     inkscape:window-y="27"
     inkscape:window-maximized="0"
     inkscape:current-layer="svg2" />
  <g
     transform="matrix(2.708382,0,0,2.6280072,2,3.2941173)"
     style="font-style:normal;font-weight:normal;font-size:44.45093918px;line-height:125%;font-family:sans-serif;letter-spacing:0px;word-spacing:0px;fill:#888888;fill-opacity:1;stroke:none;stroke-width:1px;stroke-linecap:butt;stroke-linejoin:miter;stroke-opacity:1"
     id="text4150">
    <path
       d="M 2.1865443,1.7906657 0,7.8789292 l 1.0091742,0 0.5802753,-1.6487256 2.1444952,0 0.5886849,1.6487256 1.0680428,0 -2.1865441,-6.0882635 z m 1.2194188,3.4777812 -1.488532,0 0.7484708,-2.2154751 z"
       style="font-style:normal;font-variant:normal;font-weight:bold;font-stretch:normal;font-size:8.33455086px;font-family:Cantarell;-inkscape-font-specification:'Cantarell Bold';fill:#888888;fill-opacity:1"
       id="path4142"
       inkscape:connector-curvature="0"
       sodipodi:nodetypes="ccccccccccccc" />
    <path
       d="m 7.7909159,2.8060887 c 0.9552075,0 1.2025378,0.2733183 1.2025378,0.7283714 0,0.4808108 -0.3240881,0.7555599 -1.1598945,0.7555599 -0.2956541,0 -0.5913081,0 -0.8869622,0 l 0,-1.4839313 z m -0.085288,2.3682797 c 1.2622384,0 1.7313134,0.3262644 1.7313134,0.8671767 0,0.6611149 -0.6396479,0.822816 -1.7227846,0.822816 l -0.7675605,0 0,-1.6814068 z M 5.907584,1.7915205 l 0,6.0874087 1.9174443,0 c 2.2345027,0 2.6609347,-1.0303089 2.6609347,-1.7085956 0,-0.5924276 -0.409375,-1.3050578 -1.2451809,-1.4596042 0.5458327,-0.3348504 0.7761059,-0.7899035 0.7761059,-1.3222298 0,-0.5409121 -0.3159476,-1.6326835 -2.0383442,-1.5969791 z"
       style="font-style:normal;font-variant:normal;font-weight:bold;font-stretch:normal;font-size:8.33455086px;font-family:Cantarell;-inkscape-font-specification:'Cantarell Bold';fill:#888888;fill-opacity:1"
       id="path4144"
       inkscape:connector-curvature="0"
       sodipodi:nodetypes="sscccscsscccccsscssc" />
    <path
       inkscape:connector-curvature="0"
       d="m 14.298703,1.7906657 c -1.964623,0 -3.221979,1.3138284 -3.221979,3.0312511 0,1.6916613 1.196236,3.0570124 3.160858,3.0570124 0.558826,0 1.213699,-0.1288066 1.85111,-0.3950072 l 0.15717,-0.06011 -0.349266,-0.8501242 -0.15717,0.06011 c -0.462777,0.1803293 -0.925554,0.2747876 -1.309747,0.2747876 -1.414528,0 -2.252766,-0.83295 -2.252766,-2.0952557 0,-1.133499 0.785847,-2.0866687 2.095596,-2.0866687 0.279413,0 0.707264,0 1.370869,0.2404392 l 0.165902,0.06011 0.349267,-0.8415371 -0.157171,-0.06011 C 15.363966,1.8765368 14.770212,1.7906657 14.298703,1.7906657 Z"
       style="font-style:normal;font-variant:normal;font-weight:bold;font-stretch:normal;font-size:8.33455086px;font-family:Cantarell;-inkscape-font-specification:'Cantarell Bold';fill:#888888;fill-opacity:1"
       id="path4146" />
  </g>
  <path
     style="fill:#859900"
     d="M 24 34 L 40 18 L 46 24 L 24 46 C 19.414062 41.414062 14.585938 36.578125 10 32 L 16 26 Z "
     id="path12" />
</svg>
