<svg width="128" xmlns="http://www.w3.org/2000/svg" height="128" viewBox="0 0 128 128" xmlns:xlink="http://www.w3.org/1999/xlink">
<defs>
<clipPath id="clip1">
<rect width="128" height="128"/>
</clipPath>
<filter width="100%" x="0" y="0" height="100%" filterUnits="objectBoundingBox" id="alpha">
<feColorMatrix values="0 0 0 0 1 0 0 0 0 1 0 0 0 0 1 0 0 0 1 0" in="SourceGraphic" type="matrix"/>
</filter>
<g style="clip-path:url(#clip1)" id="surface6">
<path style="fill:#9c7a5f;stroke:#9c7a5f;stroke-width:.838" d="M 6.392976 24.794211 C 6.041207 24.757185 5.744402 24.410374 5.746845 24.036411 L 5.746845 9.699916 C 5.746845 9.302503 6.087621 8.942116 6.462597 8.942116 L 24.126776 8.942116 C 24.501752 8.942116 24.84375 9.302503 24.84375 9.699916 L 24.84375 22.705941 C 24.84375 23.10212 24.501752 23.463741 24.126776 23.463741 L 17.229416 23.463741 L 17.229416 24.036411 C 17.229416 24.433824 16.88864 24.794211 16.513664 24.794211 L 6.462597 24.794211 C 6.43939 24.795446 6.416183 24.795446 6.392976 24.794211 Z " transform="matrix(3.19812 0 0 3.165 -12.19551 -10.9932)"/>
<path style="fill:#9c795f;stroke:#9c7a5f;stroke-width:.838" d="M 5.01155 10.813166 C 4.597489 10.848958 4.248162 11.197003 4.249384 11.569733 L 4.249384 25.901291 C 4.250605 26.29747 4.652452 26.657857 5.093385 26.657857 L 25.906385 26.657857 C 26.34854 26.657857 26.750387 26.29747 26.750387 25.901291 L 26.750387 12.900203 C 26.750387 12.504024 26.34854 12.142402 25.906385 12.142402 L 17.779055 12.142402 L 17.779055 11.569733 C 17.779055 11.173554 17.377208 10.813166 16.935054 10.813166 L 5.093385 10.813166 C 5.066514 10.811932 5.038421 10.811932 5.01155 10.813166 Z " transform="matrix(3.19812 0 0 3.165 -12.19551 -10.9932)"/>
</g>
<mask id="mask0">
<g style="filter:url(#alpha)">
<rect width="128" x="0" y="0" height="128" style="fill:#000;fill-opacity:.502"/>
</g>
</mask>
</defs>
<use style="mask:url(#mask0)" xlink:href="#surface6"/>
<g style="stroke:#9c7a5f">
<path style="fill:#9c795f" d="M 23.504883 39.407227 C 23.085938 39.363281 22.731445 38.94873 22.734375 38.503418 L 22.734375 21.388184 C 22.734375 20.915039 23.140137 20.484375 23.586914 20.484375 L 44.649902 20.484375 C 45.09668 20.484375 45.503906 20.915039 45.503906 21.388184 L 45.503906 36.914062 C 45.503906 37.388672 45.09668 37.819336 44.649902 37.819336 L 36.424805 37.819336 L 36.424805 38.503418 C 36.424805 38.976562 36.019043 39.407227 35.570801 39.407227 L 23.586914 39.407227 C 23.560547 39.408691 23.532715 39.408691 23.504883 39.407227 Z " transform="scale(2.66667)"/>
<path style="fill:#dfb188" d="M 21.443848 22.564453 C 20.947266 22.606934 20.526855 23.02002 20.529785 23.463867 L 20.529785 40.505859 C 20.529785 40.977539 21.011719 41.405273 21.541992 41.406738 L 46.533691 41.406738 C 47.063965 41.405273 47.547363 40.977539 47.547363 40.505859 L 47.547363 25.045898 C 47.547363 24.574219 47.063965 24.14502 46.533691 24.14502 L 36.774902 24.14502 L 36.774902 23.463867 C 36.774902 22.992188 36.292969 22.564453 35.76123 22.564453 L 21.541992 22.564453 C 21.509766 22.562988 21.477539 22.562988 21.443848 22.564453 Z " transform="scale(2.66667)"/>
</g>
</svg>
