<svg xmlns="http://www.w3.org/2000/svg" viewBox="0 0 128 128">
 <defs>
  <radialGradient id="radialGradient3815" cx="-9" cy="93.5" r="15" gradientTransform="matrix(1,0,0,0.36666667,0,59.216667)" gradientUnits="userSpaceOnUse">
   <stop style="stop-color:#000;stop-opacity:1"/>
   <stop offset="1" style="stop-color:#000;stop-opacity:0"/>
  </radialGradient>
 </defs>
 <g transform="translate(0,-924.3622)">
  <path d="m 6 93.5 a 15 5.5 0 1 1 -30 0 15 5.5 0 1 1 30 0 z" transform="matrix(6.6666667,0,0,4.5454545,124,596.3622)" style="fill:url(#radialGradient3815);opacity:0.6;fill-opacity:1;stroke:none"/>
  <path d="m 0 942.48 0 85.65 128 0 0 -42.823 -6.095 -36.706 l -47.905 -0.235 l -6 -12 -61.905 0 c -3.048 0 -6.095 3.059 -6.095 6.118 z" style="fill:#388e3c;fill-opacity:1;stroke:none"/>
  <rect width="63.14" height="23.765" x="10" y="952.36" style="fill:#fffdf0;fill-opacity:1;stroke:none"/>
  <path d="m 6.125 936.36 c -3.048 0 -6.125 3.066 -6.125 6.125 l 0 4 c 0 -3.059 3.077 -6.125 6.125 -6.125 l 59.875 0 6 12 49.875 0.25 6.125 36.688 0 -4 -6.125 -36.688 -47.875 -0.25 -6 -12 z" style="fill:#000;opacity:0.03;fill-opacity:1;stroke:none"/>
  <path d="m 128 954.72 0 85.65 -128 0 0 -80 60 0 6 -12 55.905 0.235 c 3.048 0 6.095 3.059 6.095 6.118 z" style="fill:#66bb6a;fill-opacity:1;stroke:none"/>
  <path d="m 0 1036.36 0 4 128 0 0 -4 z" style="fill:#000;opacity:0.15;fill-opacity:1;stroke:none"/>
  <path d="m 66 948.36 -6 12 -60 0 0 4 62 0 6 -12 53.875 0.25 c 3.048 0 6.125 3.066 6.125 6.125 l 0 -4 c 0 -3.059 -3.077 -6.125 -6.125 -6.125 z" style="fill:#000;opacity:0.03;fill-opacity:1;stroke:none"/>
  <g transform="matrix(2,0,0,2,2,-1052.3622)" style="opacity:1">
   <path transform="matrix(2.1943902,0,0,2.2968937,37.971951,1015.3933)" d="m -5 8.259 c 0 0.962 -0.816 1.741 -1.823 1.741 -1.01 0 -1.823 -0.78 -1.823 -1.741 0 -0.962 0.816 -1.741 1.823 -1.741 1.01 0 1.823 0.78 1.823 1.741 z" style="fill:#448647;fill-opacity:1;stroke:none"/>
   <path d="m -5 8.259 c 0 0.962 -0.816 1.741 -1.823 1.741 -1.01 0 -1.823 -0.78 -1.823 -1.741 0 -0.962 0.816 -1.741 1.823 -1.741 1.01 0 1.823 0.78 1.823 1.741 z" transform="matrix(2.1943902,0,0,2.2968937,53.971951,1015.3933)" style="fill:#448647;fill-opacity:1;stroke:none"/>
   <rect ry="2" rx="1.917" y="1017.36" x="23" height="19" width="4" style="fill:#448647;fill-opacity:1;stroke:none"/>
   <rect width="4" height="20" x="39" y="1016.36" rx="2" style="fill:#448647;fill-opacity:1;stroke:none"/>
   <rect ry="3.897" rx="4" y="1014.36" x="23" height="8" width="20" style="fill:#448647;fill-opacity:1;stroke:none"/>
  </g>
 </g>
</svg>
