<svg xmlns="http://www.w3.org/2000/svg" viewBox="0 0 128 128">
 <defs>
  <radialGradient id="radialGradient3815" cx="-9" cy="93.5" r="15" gradientTransform="matrix(1,0,0,0.36666667,0,59.216667)" gradientUnits="userSpaceOnUse">
   <stop style="stop-color:#000;stop-opacity:1"/>
   <stop offset="1" style="stop-color:#000;stop-opacity:0"/>
  </radialGradient>
 </defs>
 <g transform="translate(0,-924.3622)">
  <path d="M 6 93.5 A 15 5.5 0 0 1 -9 99 15 5.5 0 0 1 -24 93.5 15 5.5 0 0 1 -9 88 15 5.5 0 0 1 6 93.5" transform="matrix(6.6666667,0,0,4.5454545,124,596.3622)" style="fill:url(#radialGradient3815);opacity:0.6;fill-opacity:1;stroke:none"/>
  <path d="m 0 942.48 0 85.65 128 0 0 -42.823 -6.095 -36.706 l -47.905 -0.235 l -6 -12 -61.905 0 c -3.048 0 -6.095 3.059 -6.095 6.118 z" style="fill:#757575;fill-opacity:1;stroke:none"/>
  <rect width="63.14" height="23.765" x="10" y="952.36" style="fill:#fffdf0;fill-opacity:1;stroke:none"/>
  <path d="m 6.125 936.36 c -3.048 0 -6.125 3.066 -6.125 6.125 l 0 4 c 0 -3.059 3.077 -6.125 6.125 -6.125 l 59.875 0 6 12 49.875 0.25 6.125 36.688 0 -4 -6.125 -36.688 -47.875 -0.25 -6 -12 z" style="fill:#000;opacity:0.03;fill-opacity:1;stroke:none"/>
  <path d="m 128 954.72 0 85.65 -128 0 0 -80 60 0 6 -12 55.905 0.235 c 3.048 0 6.095 3.059 6.095 6.118 z" style="fill:#bdbdbd;fill-opacity:1;stroke:none"/>
  <path d="m 0 1036.36 0 4 128 0 0 -4 z" style="fill:#000;opacity:0.15;fill-opacity:1;stroke:none"/>
  <path d="m 66 948.36 -6 12 -60 0 0 4 62 0 6 -12 53.875 0.25 c 3.048 0 6.125 3.066 6.125 6.125 l 0 -4 c 0 -3.059 -3.077 -6.125 -6.125 -6.125 z" style="fill:#000;opacity:0.03;fill-opacity:1;stroke:none"/>
  <path d="m 61 982.36 c -11.982 0.28 -21 8.679 -21 17.25 0 8.572 6 8.5 9 8.5 3 0 6 -0.092 6 5.625 0 5.714 3 8.625 9 8.625 21 0 24 -14.286 24 -20 0 -8.571 -9 -20 -27 -20 z m -6 4 c 1.657 0 3 1.343 3 3 0 1.657 -1.343 3 -3 3 -1.657 0 -3 -1.343 -3 -3 0 -1.657 1.343 -3 3 -3 z m 12 0 c 1.657 0 3 1.343 3 3 0 1.657 -1.343 3 -3 3 -1.657 0 -3 -1.343 -3 -3 0 -1.657 1.343 -3 3 -3 z m 12 8 c 1.657 0 3 1.343 3 3 0 1.657 -1.343 3 -3 3 -1.657 0 -3 -1.343 -3 -3 0 -1.657 1.343 -3 3 -3 z m -32 2 c 1.657 0 3 1.343 3 3 0 1.657 -1.343 3 -3 3 -1.657 0 -3 -1.343 -3 -3 0 -1.657 1.343 -3 3 -3 z m 18 12 c 2.761 0 5 2.239 5 5 0 2.761 -2.239 5 -5 5 -2.761 0 -5 -2.239 -5 -5 0 -2.761 2.239 -5 5 -5 z" style="fill:#7f7f7f;opacity:1;fill-opacity:1;stroke:none"/>
 </g>
</svg>
