<svg xmlns="http://www.w3.org/2000/svg" viewBox="0 0 128 128">
 <defs>
  <radialGradient id="radialGradient3815" cx="-9" cy="93.5" r="15" gradientTransform="matrix(1,0,0,0.36666667,0,59.216667)" gradientUnits="userSpaceOnUse">
   <stop style="stop-color:#000;stop-opacity:1"/>
   <stop offset="1" style="stop-color:#000;stop-opacity:0"/>
  </radialGradient>
 </defs>
 <g transform="translate(0,-924.3622)">
  <path d="M 6 93.5 A 15 5.5 0 0 1 -9 99 15 5.5 0 0 1 -24 93.5 15 5.5 0 0 1 -9 88 15 5.5 0 0 1 6 93.5" transform="matrix(6.6666667,0,0,4.5454545,124,596.3622)" style="fill:url(#radialGradient3815);opacity:0.6;fill-opacity:1;stroke:none"/>
  <path d="m 0 942.48 0 85.65 128 0 0 -42.823 -6.095 -36.706 l -47.905 -0.235 l -6 -12 -61.905 0 c -3.048 0 -6.095 3.059 -6.095 6.118 z" style="fill:#e65100;fill-opacity:1;stroke:none"/>
  <rect width="63.14" height="23.765" x="10" y="952.36" style="fill:#fffdf0;fill-opacity:1;stroke:none"/>
  <path d="m 6.125 936.36 c -3.048 0 -6.125 3.066 -6.125 6.125 l 0 4 c 0 -3.059 3.077 -6.125 6.125 -6.125 l 59.875 0 6 12 49.875 0.25 6.125 36.688 0 -4 -6.125 -36.688 -47.875 -0.25 -6 -12 z" style="fill:#000;opacity:0.03;fill-opacity:1;stroke:none"/>
  <path d="m 128 954.72 0 85.65 -128 0 0 -80 60 0 6 -12 55.905 0.235 c 3.048 0 6.095 3.059 6.095 6.118 z" style="fill:#f57c00;fill-opacity:1;stroke:none"/>
  <path d="m 0 1036.36 0 4 128 0 0 -4 z" style="fill:#000;opacity:0.15;fill-opacity:1;stroke:none"/>
  <path d="m 66 948.36 -6 12 -60 0 0 4 62 0 6 -12 53.875 0.25 c 3.048 0 6.125 3.066 6.125 6.125 l 0 -4 c 0 -3.059 -3.077 -6.125 -6.125 -6.125 z" style="fill:#000;opacity:0.03;fill-opacity:1;stroke:none"/>
  <path d="m 79.51 974.36 c -6.564 0 -11.932 5.479 -11.932 12.209 0 2.258 0.649 4.392 1.705 6.218 l 0 13.226 c -1.3 0.278 -2.501 0.884 -3.516 1.696 l -11.826 -5.426 c 0 -4.799 -3.836 -8.705 -8.523 -8.705 -4.678 0 -8.523 3.903 -8.523 8.705 0 4.809 3.843 8.817 8.523 8.817 1.898 0 3.692 -0.719 5.114 -1.809 l 11.932 5.539 c 0.123 4.701 3.919 8.478 8.523 8.478 4.687 0 8.523 -3.896 8.523 -8.704 0 -2 -0.694 -3.833 -1.811 -5.313 l 0.107 0 6.286 -11.418 c 0.045 -0.048 0.062 -0.094 0.107 -0.11 4.207 -1.9 7.245 -6.196 7.245 -11.191 0 -6.723 -5.376 -12.209 -11.932 -12.209 z m 0 4.069 c 4.41 0 7.884 3.618 7.884 8.139 0 4.53 -3.476 8.139 -7.884 8.139 -4.416 0 -7.884 -3.609 -7.884 -8.139 0 -4.521 3.468 -8.139 7.884 -8.139 z m 0 2.94 c -2.82 0 -5.114 2.295 -5.114 5.2 0 2.893 2.294 5.2 5.114 5.2 2.828 0 5.114 -2.304 5.114 -5.2 0 -2.903 -2.286 -5.2 -5.114 -5.2 z m -34.09 15.713 c 2.799 0 4.396 1.158 4.901 3.504 l -2.983 -1.357 c -1.934 -0.844 -4.187 0.048 -5.01 2.035 -0.82 1.984 0.09 4.253 2.024 5.088 l 2.237 1.13 c -0.374 0.062 -0.745 0.11 -1.172 0.11 -3.409 0 -5.114 -1.809 -5.114 -5.312 0 -3.495 1.705 -5.201 5.114 -5.201 z m 25.569 11.644 c 3.155 0 5.647 2.643 5.647 5.878 0 3.234 -2.491 5.765 -5.647 5.765 -2.562 0 -4.725 -1.69 -5.433 -4.07 l 4.048 1.81 c 1.934 0.843 4.187 -0.156 5.01 -2.148 0.82 -1.983 -0.09 -4.252 -2.024 -5.087 l -3.729 -1.696 c 0.653 -0.27 1.38 -0.449 2.131 -0.449 z" style="fill:#ab5d0b;opacity:1;fill-opacity:1;stroke:none;fill-rule:nonzero"/>
 </g>
</svg>
