<svg width="128" xmlns="http://www.w3.org/2000/svg" height="128" viewBox="0 0 128 128" xmlns:xlink="http://www.w3.org/1999/xlink">
<path style="fill:#aaa" d="M 92.324219 35.539062 C 92.117188 35.351562 91.902344 35.175781 91.675781 35.007812 C 88.453125 32.449219 83.8125 32.757812 80.953125 35.714844 L 63.980469 52.6875 L 47.011719 35.714844 C 45 33.648438 42.03125 32.820312 39.238281 33.554688 C 36.449219 34.289062 34.269531 36.46875 33.535156 39.257812 C 32.800781 42.046875 33.628906 45.019531 35.695312 47.03125 L 52.667969 64 L 35.695312 80.96875 C 33.628906 82.980469 32.800781 85.949219 33.535156 88.742188 C 34.269531 91.53125 36.449219 93.710938 39.238281 94.445312 C 42.03125 95.179688 45 94.351562 47.011719 92.285156 L 63.980469 75.3125 L 80.953125 92.285156 C 82.554688 93.941406 84.792969 94.828125 87.09375 94.714844 C 89.398438 94.601562 91.539062 93.5 92.972656 91.695312 C 95.53125 88.46875 95.222656 83.832031 92.265625 80.96875 L 75.292969 64 L 92.265625 47.03125 C 93.828125 45.53125 94.714844 43.460938 94.726562 41.296875 C 94.738281 39.132812 93.871094 37.054688 92.324219 35.539062 Z "/>
</svg>
