<svg width="128" xmlns="http://www.w3.org/2000/svg" height="128" viewBox="0 0 128 128" xmlns:xlink="http://www.w3.org/1999/xlink">
<defs>
<clipPath id="clip1">
<rect width="128" height="128"/>
</clipPath>
<filter width="100%" x="0" y="0" height="100%" filterUnits="objectBoundingBox" id="alpha">
<feColorMatrix values="0 0 0 0 1 0 0 0 0 1 0 0 0 0 1 0 0 0 1 0" in="SourceGraphic" type="matrix"/>
</filter>
<g style="clip-path:url(#clip1)" id="surface6">
<path style="fill:#aaa" d="M 48 48 L 48 50.667969 L 66.667969 50.667969 L 66.667969 48 Z "/>
<path style="fill:#aaa" d="M 69.332031 48 L 69.332031 50.667969 L 82.667969 50.667969 L 82.667969 48 Z "/>
<path style="fill:#aaa" d="M 85.332031 48 L 85.332031 50.667969 L 96 50.667969 L 96 48 Z "/>
<path style="fill:#aaa" d="M 48 53.332031 L 48 56 L 61.332031 56 L 61.332031 53.332031 Z "/>
<path style="fill:#aaa" d="M 64 53.332031 L 64 56 L 74.667969 56 L 74.667969 53.332031 Z "/>
<path style="fill:#aaa" d="M 61.332031 58.667969 L 61.332031 61.332031 L 80 61.332031 L 80 58.667969 Z "/>
<path style="fill:#aaa" d="M 48 58.667969 L 48 61.332031 L 58.667969 61.332031 L 58.667969 58.667969 Z "/>
<path style="fill:#aaa" d="M 82.667969 58.667969 L 82.667969 61.332031 L 88 61.332031 L 88 58.667969 Z "/>
<path style="fill:#aaa" d="M 90.667969 58.667969 L 90.667969 61.332031 L 96 61.332031 L 96 58.667969 Z "/>
<path style="fill:#aaa" d="M 48 64 L 48 66.667969 L 56 66.667969 L 56 64 Z "/>
<path style="fill:#aaa" d="M 58.667969 64 L 58.667969 66.667969 L 64 66.667969 L 64 64 Z "/>
<path style="fill:#aaa" d="M 66.667969 64 L 66.667969 66.667969 L 85.332031 66.667969 L 85.332031 64 Z "/>
<path style="fill:#aaa" d="M 48 72 L 48 74.667969 L 66.667969 74.667969 L 66.667969 72 Z "/>
<path style="fill:#aaa" d="M 74.667969 72 L 74.667969 74.667969 L 82.667969 74.667969 L 82.667969 72 Z "/>
<path style="fill:#aaa" d="M 85.332031 72 L 85.332031 74.667969 L 93.332031 74.667969 L 93.332031 72 Z "/>
<path style="fill:#aaa" d="M 48 77.332031 L 48 80 L 61.332031 80 L 61.332031 77.332031 Z "/>
<path style="fill:#aaa" d="M 64 77.332031 L 64 80 L 74.667969 80 L 74.667969 77.332031 Z "/>
<path style="fill:#aaa" d="M 61.332031 82.667969 L 61.332031 85.332031 L 80 85.332031 L 80 82.667969 Z "/>
<path style="fill:#aaa" d="M 48 82.667969 L 48 85.332031 L 58.667969 85.332031 L 58.667969 82.667969 Z "/>
<path style="fill:#aaa" d="M 82.667969 82.667969 L 82.667969 85.332031 L 88 85.332031 L 88 82.667969 Z "/>
<path style="fill:#aaa" d="M 69.332031 72 L 69.332031 74.667969 L 72 74.667969 L 72 72 Z "/>
</g>
<mask id="mask0">
<g style="filter:url(#alpha)">
<rect width="128" x="0" y="0" height="128" style="fill:#aaa;fill-opacity:.6"/>
</g>
</mask>
</defs>
<path style="fill:#aaa;fill-opacity:.2" d="M 45.332031 45.332031 L 45.332031 96 L 98.667969 96 L 98.667969 45.332031 Z "/>
<use style="mask:url(#mask0)" xlink:href="#surface6"/>
<path style="fill:#aaa" d="M 33.082031 17.832031 L 68.582031 17.832031 L 68.582031 23.75 L 33.082031 23.75 Z M 80.082031 101.492188 L 80.082031 109.167969 L 21.5 109.167969 L 21.5 24.75 L 25.917969 24.75 L 25.917969 27.25 C 25.925781 29.101562 27.648438 30.824219 29.5 30.832031 L 72.167969 30.832031 C 74.019531 30.824219 75.65625 29.101562 75.667969 27.25 L 75.667969 24.75 L 80.082031 24.75 L 80.082031 39.890625 L 88.25 39.890625 L 88.25 20.667969 C 88.253906 18.523438 86.3125 16.582031 84.167969 16.582031 L 75.667969 16.582031 L 75.667969 14.25 C 75.65625 12.398438 74.019531 10.675781 72.167969 10.667969 L 29.5 10.667969 C 29.394531 10.660156 29.273438 10.660156 29.167969 10.667969 C 27.421875 10.832031 25.917969 12.496094 25.917969 14.25 L 25.917969 16.582031 L 17.417969 16.582031 C 17.285156 16.578125 17.214844 16.578125 17.082031 16.582031 C 15.074219 16.773438 13.320312 18.648438 13.332031 20.667969 L 13.332031 113.25 C 13.332031 115.394531 15.273438 117.335938 17.417969 117.332031 L 84.167969 117.332031 C 86.3125 117.335938 88.253906 115.394531 88.25 113.25 L 88.25 101.492188 Z "/>
<path style="fill:#aaa;fill-opacity:.2" d="M 32 37.332031 L 32 53.332031 L 48 37.332031 Z "/>
</svg>
