<svg width="128" xmlns="http://www.w3.org/2000/svg" height="128" viewBox="0 0 128 128" xmlns:xlink="http://www.w3.org/1999/xlink">
<g style="fill:#aaa">
<path d="M 57.082031 66.667969 C 55.132812 66.871094 53.488281 68.703125 53.5 70.667969 L 53.5 115.917969 C 53.5 118.011719 55.40625 119.917969 57.5 119.917969 L 118.75 119.917969 C 120.84375 119.917969 122.75 118.011719 122.75 115.917969 L 122.75 76.082031 C 122.75 73.988281 120.84375 72.082031 118.75 72.082031 L 93.582031 72.082031 L 93.582031 70.667969 C 93.582031 68.574219 91.675781 66.667969 89.582031 66.667969 L 57.5 66.667969 C 57.359375 66.660156 57.222656 66.660156 57.082031 66.667969 Z "/>
<path style="fill-opacity:.4" d="M 8.917969 8.082031 C 6.964844 8.289062 5.324219 10.121094 5.332031 12.082031 L 5.332031 57.332031 C 5.332031 59.425781 7.238281 61.332031 9.332031 61.332031 L 70.582031 61.332031 C 72.675781 61.332031 74.582031 59.425781 74.582031 57.332031 L 74.582031 17.417969 C 74.582031 15.324219 72.675781 13.417969 70.582031 13.417969 L 45.417969 13.417969 L 45.417969 12.082031 C 45.417969 9.988281 43.511719 8.082031 41.417969 8.082031 L 9.332031 8.082031 C 9.195312 8.074219 9.054688 8.074219 8.917969 8.082031 Z "/>
</g>
</svg>
