<svg width="128" xmlns="http://www.w3.org/2000/svg" height="128" viewBox="0 0 128 128" xmlns:xlink="http://www.w3.org/1999/xlink">
<path style="fill:#aaa" d="M 24.996094 10.671875 C 23.035156 10.875 21.320312 12.707031 21.332031 14.667969 L 21.332031 113.226562 C 21.332031 115.320312 23.222656 117.222656 25.328125 117.222656 L 68.28125 117.222656 C 68.992188 117.371094 69.734375 117.371094 70.445312 117.222656 L 102.578125 117.222656 C 104.683594 117.222656 106.574219 115.320312 106.574219 113.226562 L 106.574219 80.929688 C 106.699219 80.269531 106.699219 79.589844 106.574219 78.929688 L 106.574219 21.328125 C 103.910156 18.613281 98.128906 13.332031 95.585938 10.671875 L 25.328125 10.671875 C 25.1875 10.664062 25.136719 10.664062 24.996094 10.671875 Z M 29.332031 18.667969 L 82.667969 18.667969 L 82.667969 29.332031 L 98.667969 29.332031 L 98.667969 74.667969 L 69.28125 74.601562 C 69.113281 74.59375 68.949219 74.59375 68.78125 74.601562 C 66.160156 74.847656 63.941406 77.300781 63.953125 79.929688 L 64 109.332031 L 29.332031 109.332031 Z M 69.28125 79.929688 L 96 80 L 69.332031 106.667969 Z "/>
</svg>
