<svg width="128" xmlns="http://www.w3.org/2000/svg" height="128" viewBox="0 0 128 128" xmlns:xlink="http://www.w3.org/1999/xlink">
<path style="fill:#aaa" d="M 27.582031 10.667969 C 25.621094 10.871094 23.988281 12.703125 24 14.667969 L 24 113.332031 C 24 115.425781 25.890625 117.332031 28 117.332031 L 85.332031 117.332031 L 85.332031 109.332031 L 32.082031 109.332031 L 32.082031 18.667969 L 80 18.667969 L 80 29.332031 L 96 29.332031 L 96 64 L 104 64 L 104 21.332031 L 88 10.667969 L 28 10.667969 C 27.859375 10.660156 27.722656 10.660156 27.582031 10.667969 Z M 90.667969 69.332031 L 90.667969 88 L 72 88 L 72 98.667969 L 90.667969 98.667969 L 90.667969 117.332031 L 101.332031 117.332031 L 101.332031 98.667969 L 120 98.667969 L 120 88 L 101.332031 88 L 101.332031 69.332031 Z "/>
</svg>
