<svg width="128" xmlns="http://www.w3.org/2000/svg" height="128" viewBox="0 0 128 128" xmlns:xlink="http://www.w3.org/1999/xlink">
<path style="fill:#aaa" d="M 19.832031 13.417969 C 14.964844 13.417969 10.832031 17.320312 10.832031 22.25 L 10.832031 89.75 C 10.832031 94.679688 14.964844 98.582031 19.832031 98.582031 L 74.832031 98.582031 L 97.667969 112.25 L 107 117.832031 L 103.582031 107.582031 L 100.5 98.582031 L 108.417969 98.582031 C 113.285156 98.582031 117.5 94.679688 117.5 89.75 L 117.5 22.25 C 117.5 17.320312 113.285156 13.417969 108.417969 13.417969 Z M 85.167969 26.5 C 88.199219 26.394531 91.027344 28.011719 92.476562 30.679688 C 93.921875 33.34375 93.738281 36.597656 92 39.082031 L 65.332031 79.082031 C 63.996094 81.078125 61.832031 82.363281 59.441406 82.589844 C 57.054688 82.816406 54.6875 81.957031 53 80.25 L 37 64.25 C 34.769531 62.273438 33.824219 59.21875 34.542969 56.328125 C 35.265625 53.4375 37.53125 51.183594 40.429688 50.484375 C 43.328125 49.785156 46.371094 50.753906 48.332031 53 L 57.417969 62.082031 L 78.667969 30.167969 C 80.097656 27.945312 82.527344 26.574219 85.167969 26.5 Z "/>
</svg>
