<svg width="128" xmlns="http://www.w3.org/2000/svg" height="128" viewBox="0 0 128 128" xmlns:xlink="http://www.w3.org/1999/xlink">
<g style="fill:#aaa">
<path d="M 27.582031 10.5 C 25.621094 10.703125 23.988281 12.539062 24 14.5 L 24 53.167969 L 14.417969 53.167969 C 14.289062 53.160156 14.128906 53.160156 14 53.167969 C 12.183594 53.371094 10.65625 55.203125 10.667969 57.167969 L 10.667969 103 C 10.667969 105.09375 12.46875 107 14.417969 107 L 24 107 L 24 113.167969 C 24 115.261719 25.890625 117.167969 28 117.167969 L 100 117.167969 C 102.109375 117.167969 104 115.261719 104 113.167969 L 104 107 L 113.582031 107 C 115.53125 107 117.332031 105.09375 117.332031 103 L 117.332031 57.167969 C 117.332031 55.074219 115.53125 53.167969 113.582031 53.167969 L 104 53.167969 L 104 21.25 C 101.332031 18.535156 90.542969 13.160156 88 10.5 L 28 10.5 C 27.859375 10.492188 27.722656 10.492188 27.582031 10.5 Z M 32.082031 18.5 L 80 18.5 L 80 29.167969 L 96 29.167969 L 96 53.167969 L 85.75 53.167969 C 80.589844 46.8125 72.78125 42.667969 64 42.667969 C 55.21875 42.667969 47.382812 46.8125 42.25 53.167969 L 32.082031 53.167969 Z M 64 50.667969 C 75.09375 50.667969 83.917969 59.574219 83.917969 70.667969 C 83.917969 81.757812 75.09375 90.667969 64 90.667969 C 52.90625 90.667969 44 81.757812 44 70.667969 C 44 59.574219 52.90625 50.667969 64 50.667969 Z M 26.667969 58.5 L 38.832031 58.5 C 37.046875 62.179688 36 66.3125 36 70.667969 C 36 74.957031 37.015625 79.019531 38.75 82.667969 L 26.667969 82.667969 Z M 89.25 58.5 L 101.332031 58.5 L 101.332031 82.667969 L 89.332031 82.667969 C 91.074219 79.023438 92.082031 74.949219 92.082031 70.667969 C 92.082031 66.316406 91.042969 62.175781 89.25 58.5 Z M 109.332031 58.5 C 110.804688 58.5 112 59.695312 112 61.167969 C 112 62.640625 110.804688 63.832031 109.332031 63.832031 C 107.859375 63.832031 106.667969 62.640625 106.667969 61.167969 C 106.667969 59.695312 107.859375 58.5 109.332031 58.5 Z M 32 88 L 42 88 C 47.128906 94.53125 55.097656 98.75 64 98.75 C 72.902344 98.75 80.84375 94.53125 86 88 L 96 88 L 96 109.417969 L 32 109.417969 Z "/>
<path style="stroke:#aaa;stroke-linejoin:round;stroke-linecap:round;stroke-width:1.2" d="M 25.000195 26.000195 C 25.000195 26.552148 24.552539 26.999805 24 26.999805 C 23.447461 26.999805 22.999805 26.552148 22.999805 26.000195 C 22.999805 25.447656 23.447461 25 24 25 C 24.552539 25 25.000195 25.447656 25.000195 26.000195 Z " transform="matrix(6.66667 0 0 6.66667 -96 -102.66667)"/>
</g>
</svg>
