<svg width="128" xmlns="http://www.w3.org/2000/svg" height="128" viewBox="0 0 128 128" xmlns:xlink="http://www.w3.org/1999/xlink">
<path style="fill:#aaa" d="M 64 10.667969 C 64 10.667969 32 10.667969 32 34.667969 L 32 53.332031 C 32 53.332031 21.332031 53.332031 21.332031 64 L 21.332031 106.667969 C 21.332031 117.332031 32 117.332031 32 117.332031 L 96 117.332031 C 96 117.332031 106.667969 117.332031 106.667969 106.667969 L 106.667969 64 C 106.667969 53.332031 96 53.332031 96 53.332031 L 45.332031 53.332031 L 45.332031 40 C 45.332031 24 64 24 64 24 C 64 24 82.667969 24 82.667969 40 L 82.667969 42.667969 L 96 42.667969 L 96 34.667969 C 96 10.667969 64 10.667969 64 10.667969 Z "/>
</svg>
