<svg width="128" xmlns="http://www.w3.org/2000/svg" height="128" viewBox="0 0 128 128" xmlns:xlink="http://www.w3.org/1999/xlink">
<path style="fill:#aaa" d="M 66.78125 29.25 C 63.488281 29.171875 60.484375 31.121094 59.214844 34.160156 C 57.941406 37.203125 58.664062 40.710938 61.03125 43 L 74.03125 56 L 42.617188 56 C 35.949219 56 30.402344 60.507812 28.449219 64.417969 C 26.496094 68.324219 26.617188 72 26.617188 72 L 26.617188 85.332031 C 26.574219 88.21875 28.089844 90.902344 30.582031 92.355469 C 33.074219 93.8125 36.15625 93.8125 38.648438 92.355469 C 41.140625 90.902344 42.65625 88.21875 42.617188 85.332031 L 42.617188 72 L 74.03125 72 L 61.03125 85 C 57.902344 88.128906 57.902344 93.203125 61.03125 96.332031 C 64.164062 99.464844 69.238281 99.464844 72.367188 96.332031 L 99.03125 69.667969 C 100.539062 68.164062 101.386719 66.125 101.386719 64 C 101.386719 61.875 100.539062 59.835938 99.03125 58.332031 L 72.367188 31.667969 C 70.917969 30.175781 68.945312 29.3125 66.867188 29.25 C 66.839844 29.25 66.808594 29.25 66.78125 29.25 Z "/>
</svg>
