<svg width="128" xmlns="http://www.w3.org/2000/svg" height="128" viewBox="0 0 128 128" xmlns:xlink="http://www.w3.org/1999/xlink">
<path style="fill:#aaa" d="M 49.21875 7.511719 C 46.277344 7.605469 43.59375 8.917969 41.550781 11.09375 L 3.203125 50.691406 C -1.066406 55.078125 -1.066406 63.152344 3.203125 67.539062 L 41.550781 106.875 C 46.316406 111.941406 55.585938 110.976562 59.363281 105.089844 L 22.746094 67.539062 C 18.476562 63.152344 18.476562 55.078125 22.746094 50.691406 L 59.363281 12.878906 C 57.238281 9.480469 53.371094 7.421875 49.464844 7.511719 C 49.425781 7.511719 49.257812 7.511719 49.21875 7.511719 Z M 80.886719 7.773438 C 77.941406 7.863281 75.011719 9.167969 72.96875 11.355469 L 34.871094 50.9375 C 30.597656 55.324219 30.597656 63.410156 34.871094 67.800781 L 72.96875 107.136719 C 77.226562 111.523438 85.039062 111.535156 89.296875 107.136719 C 93.554688 102.746094 93.542969 94.675781 89.296875 90.273438 L 70.742188 71.121094 L 103.644531 71.121094 L 103.644531 90.792969 C 103.554688 97.042969 109.207031 102.800781 115.273438 102.800781 C 121.328125 102.800781 126.730469 97.042969 126.652344 90.792969 L 126.652344 71.121094 C 126.652344 71.121094 126.730469 65.675781 123.933594 59.882812 C 121.121094 54.089844 113.203125 47.371094 103.644531 47.371094 L 84.347656 47.371094 C 84.335938 47.34375 75.691406 47.121094 70.988281 47.109375 L 89.296875 28.203125 C 92.589844 24.921875 93.789062 19.542969 92.019531 15.183594 C 90.246094 10.808594 85.714844 7.65625 81.132812 7.773438 C 81.09375 7.773438 80.925781 7.773438 80.886719 7.773438 Z "/>
</svg>
