<svg width="128" xmlns="http://www.w3.org/2000/svg" height="128" viewBox="0 0 128 128" xmlns:xlink="http://www.w3.org/1999/xlink">
<path style="fill:#aaa" d="M 23.582031 42.667969 C 22.332031 42.863281 21.316406 44.066406 21.332031 45.332031 L 21.332031 82.667969 C 21.316406 84.535156 23.714844 85.933594 25.332031 85 L 56 67.082031 L 56 82.667969 C 55.984375 84.535156 58.378906 85.933594 60 85 L 92 66.332031 C 93.65625 65.417969 93.65625 62.582031 92 61.667969 L 60 43 C 59.476562 42.695312 58.847656 42.574219 58.25 42.667969 C 56.996094 42.863281 55.984375 44.066406 56 45.332031 L 56 60.917969 L 25.332031 43 C 24.8125 42.695312 24.183594 42.574219 23.582031 42.667969 Z M 98.667969 42.667969 C 97.1875 42.667969 96 43.855469 96 45.332031 L 96 82.667969 C 96 84.144531 97.1875 85.332031 98.667969 85.332031 L 104 85.332031 C 105.476562 85.332031 106.667969 84.144531 106.667969 82.667969 L 106.667969 45.332031 C 106.667969 43.855469 105.476562 42.667969 104 42.667969 Z "/>
</svg>
