<svg width="128" xmlns="http://www.w3.org/2000/svg" height="128" viewBox="0 0 128 128" xmlns:xlink="http://www.w3.org/1999/xlink">
<g style="fill:#aaa">
<path d="M 63.914062 7.921875 L 34.207031 33.214844 L 63.914062 56.679688 L 63.992188 42.050781 C 69.808594 42.210938 79.878906 47.554688 84.101562 51.648438 C 94.539062 61.769531 94.59375 77.4375 87.136719 87.523438 C 80.402344 96.625 71.273438 98.492188 65.210938 98.492188 C 47.601562 98.492188 36.601562 84.078125 35.578125 77.933594 L 14.324219 75.113281 C 16.050781 104.46875 41.824219 120.484375 64.449219 119.984375 L 64.449219 120.058594 C 77.175781 120.402344 89.886719 115.636719 99.566406 105.738281 C 118.492188 86.375 118.542969 55.117188 98.730469 35.730469 C 88.992188 26.199219 76.8125 21.945312 63.992188 21.710938 Z "/>
<path d="M 58.050781 72.4375 C 58.050781 75.90625 60.863281 78.722656 64.335938 78.722656 C 67.808594 78.722656 70.621094 75.90625 70.621094 72.4375 C 70.621094 68.964844 67.808594 66.152344 64.335938 66.152344 C 60.863281 66.152344 58.050781 68.964844 58.050781 72.4375 Z "/>
</g>
</svg>
