<svg width="128" xmlns="http://www.w3.org/2000/svg" height="128" viewBox="0 0 128 128" xmlns:xlink="http://www.w3.org/1999/xlink">
<g style="fill:#aaa">
<path d="M 15.832031 7.917969 L 15.832031 15.832031 L 110.832031 15.832031 L 110.832031 7.917969 Z M 110.832031 15.832031 L 110.832031 110.832031 L 118.75 110.832031 L 118.75 15.832031 Z M 110.832031 110.832031 L 15.832031 110.832031 L 15.832031 118.75 L 110.832031 118.75 Z M 15.832031 110.832031 L 15.832031 15.832031 L 7.917969 15.832031 L 7.917969 110.832031 Z "/>
<path d="M 62.097656 23.855469 C 60.9375 24.179688 59.921875 25 59.375 26.082031 L 53.191406 38.699219 L 39.832031 34.246094 C 36.730469 33.28125 33.292969 36.875 34.386719 39.933594 L 38.59375 53.046875 L 26.222656 59.480469 C 23.515625 61.003906 23.515625 65.625 26.222656 67.148438 L 38.59375 73.582031 L 34.386719 86.691406 C 33.292969 89.753906 36.730469 93.347656 39.832031 92.382812 L 53.191406 87.929688 L 59.375 100.546875 C 60.808594 103.503906 65.859375 103.503906 67.292969 100.546875 L 73.476562 87.929688 L 86.835938 92.382812 C 89.933594 93.347656 93.371094 89.753906 92.277344 86.691406 L 88.074219 73.582031 L 100.441406 67.148438 C 103.152344 65.625 103.152344 61.003906 100.441406 59.480469 L 88.074219 53.046875 L 92.277344 39.933594 C 93.371094 36.875 89.933594 33.28125 86.835938 34.246094 L 73.476562 38.699219 L 67.292969 26.082031 C 66.367188 24.257812 64.050781 23.253906 62.097656 23.855469 Z "/>
</g>
</svg>
