<svg width="128" xmlns="http://www.w3.org/2000/svg" height="128" viewBox="0 0 128 128" xmlns:xlink="http://www.w3.org/1999/xlink">
<g style="fill:#aaa">
<path d="M 27.605469 10.671875 C 25.640625 10.875 23.988281 12.710938 24 14.671875 L 24 113.332031 C 24 115.429688 25.917969 117.332031 28.023438 117.332031 L 99.976562 117.332031 C 102.082031 117.332031 104 115.429688 104 113.332031 L 104 21.382812 C 101.332031 18.667969 90.542969 13.328125 88 10.667969 L 28.023438 10.671875 C 27.886719 10.664062 27.746094 10.664062 27.605469 10.671875 Z M 32.050781 18.671875 L 80 18.667969 L 80 29.332031 L 96 29.332031 L 95.949219 109.332031 L 32.050781 109.332031 Z "/>
<path d="M 64 45.332031 C 63.34375 45.332031 62.714844 45.394531 62.082031 45.417969 C 54.359375 45.710938 48.386719 47.679688 44.25 49.75 C 39.773438 51.988281 37.167969 54.5 37.167969 54.5 C 35.601562 56.066406 35.601562 58.601562 37.167969 60.167969 C 38.730469 61.730469 41.269531 61.730469 42.832031 60.167969 C 42.832031 60.167969 43.941406 59.074219 46.417969 57.667969 C 45.691406 59.652344 45.332031 61.773438 45.332031 64 C 45.332031 74.261719 53.738281 82.667969 64 82.667969 C 74.261719 82.667969 82.667969 74.261719 82.667969 64 C 82.667969 61.773438 82.308594 59.652344 81.582031 57.667969 C 84.058594 59.074219 85.167969 60.167969 85.167969 60.167969 C 86.730469 61.730469 89.269531 61.730469 90.832031 60.167969 C 92.398438 58.601562 92.398438 56.066406 90.832031 54.5 C 90.832031 54.5 88.226562 51.988281 83.75 49.75 C 79.613281 47.679688 73.640625 45.710938 65.917969 45.417969 C 65.292969 45.351562 64.640625 45.332031 64 45.332031 Z M 64 53.332031 C 69.9375 53.332031 74.667969 58.0625 74.667969 64 C 74.667969 69.9375 69.9375 74.667969 64 74.667969 C 58.0625 74.667969 53.332031 69.9375 53.332031 64 C 53.332031 58.0625 58.0625 53.332031 64 53.332031 Z "/>
<path d="M 66.667969 64 C 66.667969 65.472656 65.472656 66.667969 64 66.667969 C 62.527344 66.667969 61.332031 65.472656 61.332031 64 C 61.332031 62.527344 62.527344 61.332031 64 61.332031 C 65.472656 61.332031 66.667969 62.527344 66.667969 64 Z "/>
</g>
</svg>
