<svg width="128" xmlns="http://www.w3.org/2000/svg" height="128" viewBox="0 0 128 128" xmlns:xlink="http://www.w3.org/1999/xlink">
<g style="fill:#aaa">
<path d="M 64 12.085938 C 43.972656 12.085938 28.070312 29.019531 28.070312 51.65625 C 28.070312 62.550781 29.796875 72.882812 35.925781 80.222656 C 36.371094 101.816406 13.332031 84.109375 13.332031 116.109375 L 114.667969 116.109375 C 114.667969 84.109375 91.820312 104.140625 91.820312 80.222656 C 97.949219 72.878906 100.140625 62.550781 100.140625 51.65625 C 100.140625 29.019531 84.027344 12.085938 64 12.085938 Z "/>
<path d="M 59.167969 42.675781 C 57.363281 43.0625 55.960938 44.832031 56 46.675781 L 56 56.011719 L 46.667969 56.011719 C 44.574219 56.011719 42.667969 57.917969 42.667969 60.011719 L 42.667969 68.011719 C 42.667969 70.105469 44.574219 72.011719 46.667969 72.011719 L 56 72.011719 L 56 81.34375 C 56 83.4375 57.90625 85.34375 60 85.34375 L 68 85.34375 C 70.09375 85.34375 72 83.4375 72 81.34375 L 72 72.011719 L 81.332031 72.011719 C 83.425781 72.011719 85.332031 70.105469 85.332031 68.011719 L 85.332031 60.011719 C 85.332031 57.917969 83.425781 56.011719 81.332031 56.011719 L 72 56.011719 L 72 46.675781 C 72 44.582031 70.09375 42.679688 68 42.675781 L 60 42.675781 C 59.722656 42.648438 59.445312 42.648438 59.167969 42.675781 Z "/>
</g>
</svg>
