<svg width="128" xmlns="http://www.w3.org/2000/svg" height="128" viewBox="0 0 128 128" xmlns:xlink="http://www.w3.org/1999/xlink">
<path style="fill:#aaa" d="M 14.25 18.25 C 12.207031 18.464844 10.65625 20.195312 10.667969 22.25 L 10.667969 105.75 C 10.667969 107.960938 12.457031 109.75 14.667969 109.75 L 85.332031 109.75 L 85.332031 104 L 66.667969 104 L 66.667969 101.75 L 18.667969 101.75 L 18.667969 34.667969 L 109.332031 34.667969 L 109.332031 82.667969 L 117.332031 82.667969 L 117.332031 22.25 C 117.332031 20.039062 115.542969 18.25 113.332031 18.25 L 14.667969 18.25 C 14.527344 18.242188 14.390625 18.242188 14.25 18.25 Z M 106.667969 24 C 108.140625 24 109.332031 25.195312 109.332031 26.667969 C 109.332031 28.140625 108.140625 29.332031 106.667969 29.332031 C 105.195312 29.332031 104 28.140625 104 26.667969 C 104 25.195312 105.195312 24 106.667969 24 Z M 90.667969 69.332031 L 90.667969 88 L 72 88 L 72 98.667969 L 90.667969 98.667969 L 90.667969 117.332031 L 101.332031 117.332031 L 101.332031 98.667969 L 120 98.667969 L 120 88 L 101.332031 88 L 101.332031 69.332031 Z M 106.667969 104 L 106.667969 109.75 L 113.332031 109.75 C 115.542969 109.75 117.332031 107.960938 117.332031 105.75 L 117.332031 104 Z "/>
</svg>
