<?xml version="1.0" encoding="UTF-8" standalone="no"?>
<svg
   xmlns:dc="http://purl.org/dc/elements/1.1/"
   xmlns:cc="http://creativecommons.org/ns#"
   xmlns:rdf="http://www.w3.org/1999/02/22-rdf-syntax-ns#"
   xmlns:svg="http://www.w3.org/2000/svg"
   xmlns="http://www.w3.org/2000/svg"
   xmlns:sodipodi="http://sodipodi.sourceforge.net/DTD/sodipodi-0.dtd"
   xmlns:inkscape="http://www.inkscape.org/namespaces/inkscape"
   width="16px"
   height="16px"
   viewBox="0 0 12 12"
   version="1.1"
   id="svg2941"
   inkscape:version="0.91 r"
   sodipodi:docname="face-angel.svg">
  <metadata
     id="metadata2958">
    <rdf:RDF>
      <cc:Work
         rdf:about="">
        <dc:format>image/svg+xml</dc:format>
        <dc:type
           rdf:resource="http://purl.org/dc/dcmitype/StillImage" />
      </cc:Work>
    </rdf:RDF>
  </metadata>
  <defs
     id="defs2956" />
  <sodipodi:namedview
     pagecolor="#ffffff"
     bordercolor="#666666"
     borderopacity="1"
     objecttolerance="10"
     gridtolerance="10"
     guidetolerance="10"
     inkscape:pageopacity="0"
     inkscape:pageshadow="2"
     inkscape:window-width="640"
     inkscape:window-height="480"
     id="namedview2954" />
  <g
     id="surface1">
    <path
       style=" stroke:none;fill-rule:nonzero;fill:rgb(100%,85.098039%,36.078431%);fill-opacity:1;"
       d="M 11.25 6 C 11.25 8.484375 8.898438 10.5 6 10.5 C 3.101562 10.5 0.75 8.484375 0.75 6 C 0.75 3.515625 3.097656 1.5 6 1.5 C 8.902344 1.5 11.25 3.515625 11.25 6 Z M 11.25 6 "
       id="path2944" />
    <path
       style=" stroke:none;fill-rule:nonzero;fill:rgb(61.960784%,56.078431%,34.901961%);fill-opacity:1;"
       d="M 8.554688 1.769531 C 8.984375 1.96875 9.386719 2.222656 9.75 2.519531 C 10.328125 2.582031 10.644531 2.65625 10.644531 2.734375 C 10.644531 2.933594 8.566406 3.097656 6 3.097656 C 3.433594 3.097656 1.355469 2.933594 1.355469 2.734375 C 1.355469 2.65625 1.667969 2.585938 2.238281 2.519531 C 2.605469 2.222656 3.007812 1.96875 3.4375 1.769531 C 1.621094 1.957031 0.484375 2.332031 0.484375 2.734375 C 0.484375 3.335938 2.953125 3.824219 6 3.824219 C 9.046875 3.824219 11.515625 3.335938 11.515625 2.734375 C 11.515625 2.328125 10.371094 1.957031 8.554688 1.769531 Z M 8.554688 1.769531 "
       id="path2946" />
    <path
       style=" stroke:none;fill-rule:nonzero;fill:rgb(38.823529%,38.823529%,38.823529%);fill-opacity:1;"
       d="M 4.078125 4.5 C 3.636719 4.5 3.28125 4.855469 3.28125 5.296875 C 3.28125 5.375 3.292969 5.457031 3.320312 5.535156 C 3.421875 5.203125 3.730469 4.976562 4.078125 4.976562 C 4.425781 4.976562 4.734375 5.203125 4.835938 5.535156 C 4.863281 5.457031 4.875 5.378906 4.875 5.296875 C 4.875 4.855469 4.519531 4.5 4.078125 4.5 Z M 4.078125 4.5 "
       id="path2948" />
    <path
       style=" stroke:none;fill-rule:nonzero;fill:rgb(38.823529%,38.823529%,38.823529%);fill-opacity:1;"
       d="M 3.75 7.125 C 3.9375 8.066406 4.886719 8.71875 6 8.71875 C 7.117188 8.71875 8.066406 8.066406 8.25 7.125 L 7.875 7.125 C 7.738281 7.6875 6.972656 8.066406 6 8.066406 C 5.03125 8.066406 4.261719 7.6875 4.125 7.125 Z M 3.75 7.125 "
       id="path2950" />
    <path
       style=" stroke:none;fill-rule:nonzero;fill:rgb(38.823529%,38.823529%,38.823529%);fill-opacity:1;"
       d="M 7.921875 4.5 C 7.480469 4.5 7.125 4.855469 7.125 5.296875 C 7.125 5.375 7.136719 5.457031 7.164062 5.535156 C 7.265625 5.203125 7.574219 4.976562 7.921875 4.976562 C 8.269531 4.976562 8.578125 5.203125 8.679688 5.535156 C 8.707031 5.457031 8.71875 5.378906 8.71875 5.296875 C 8.71875 4.855469 8.363281 4.5 7.921875 4.5 Z M 7.921875 4.5 "
       id="path2952" />
  </g>
</svg>
