<?xml version="1.0" encoding="UTF-8" standalone="no"?>
<svg
   xmlns:dc="http://purl.org/dc/elements/1.1/"
   xmlns:cc="http://creativecommons.org/ns#"
   xmlns:rdf="http://www.w3.org/1999/02/22-rdf-syntax-ns#"
   xmlns:svg="http://www.w3.org/2000/svg"
   xmlns="http://www.w3.org/2000/svg"
   xmlns:sodipodi="http://sodipodi.sourceforge.net/DTD/sodipodi-0.dtd"
   xmlns:inkscape="http://www.inkscape.org/namespaces/inkscape"
   width="16px"
   height="16px"
   viewBox="0 0 12 12"
   version="1.1"
   id="svg2800"
   inkscape:version="0.91 r"
   sodipodi:docname="face-kiss.svg">
  <metadata
     id="metadata2817">
    <rdf:RDF>
      <cc:Work
         rdf:about="">
        <dc:format>image/svg+xml</dc:format>
        <dc:type
           rdf:resource="http://purl.org/dc/dcmitype/StillImage" />
      </cc:Work>
    </rdf:RDF>
  </metadata>
  <defs
     id="defs2815" />
  <sodipodi:namedview
     pagecolor="#ffffff"
     bordercolor="#666666"
     borderopacity="1"
     objecttolerance="10"
     gridtolerance="10"
     guidetolerance="10"
     inkscape:pageopacity="0"
     inkscape:pageshadow="2"
     inkscape:window-width="640"
     inkscape:window-height="480"
     id="namedview2813" />
  <g
     id="surface1">
    <path
       style=" stroke:none;fill-rule:nonzero;fill:rgb(100%,85.098039%,36.078431%);fill-opacity:1;"
       d="M 11.25 6 C 11.25 8.484375 8.898438 10.5 6 10.5 C 3.101562 10.5 0.75 8.484375 0.75 6 C 0.75 3.515625 3.097656 1.5 6 1.5 C 8.902344 1.5 11.25 3.515625 11.25 6 Z M 11.25 6 "
       id="path2803" />
    <path
       style=" stroke:none;fill-rule:nonzero;fill:rgb(100%,40%,40%);fill-opacity:1;"
       d="M 7.195312 7.316406 C 7.1875 7.277344 7.160156 7.203125 7.136719 7.140625 C 7.0625 6.964844 7.050781 6.941406 7.027344 6.859375 C 6.980469 6.710938 6.992188 6.597656 7.0625 6.472656 C 7.101562 6.410156 7.117188 6.390625 7.15625 6.367188 C 7.21875 6.320312 7.285156 6.300781 7.355469 6.304688 C 7.40625 6.308594 7.429688 6.308594 7.492188 6.34375 C 7.5625 6.382812 7.570312 6.398438 7.597656 6.445312 C 7.628906 6.5 7.644531 6.585938 7.636719 6.628906 L 7.625 6.65625 L 7.664062 6.632812 C 7.859375 6.492188 8.140625 6.65625 8.125 6.90625 C 8.121094 6.984375 8.046875 7.121094 7.980469 7.179688 C 7.886719 7.253906 7.777344 7.289062 7.554688 7.3125 C 7.410156 7.328125 7.230469 7.371094 7.214844 7.382812 C 7.195312 7.398438 7.210938 7.386719 7.195312 7.316406 Z M 7.195312 7.316406 "
       id="path2805" />
    <path
       style=" stroke:none;fill-rule:nonzero;fill:rgb(38.823529%,38.823529%,38.823529%);fill-opacity:1;"
       d="M 5.4375 7.289062 C 5.792969 6.933594 6.195312 6.882812 6.378906 7.144531 C 6.492188 7.296875 6.121094 7.464844 6.121094 7.644531 C 6.121094 7.824219 6.304688 7.785156 6.363281 7.925781 C 6.183594 8.445312 5.609375 8.160156 5.4375 8.003906 C 5.703125 9.371094 7.015625 8.125 6.5 7.632812 C 7.210938 6.566406 5.859375 6.484375 5.4375 7.289062 Z M 5.4375 7.289062 "
       id="path2807" />
    <path
       style=" stroke:none;fill-rule:nonzero;fill:rgb(38.823529%,38.823529%,38.823529%);fill-opacity:1;"
       d="M 4.078125 4.5 C 3.636719 4.5 3.28125 4.855469 3.28125 5.296875 C 3.28125 5.375 3.292969 5.457031 3.320312 5.535156 C 3.421875 5.203125 3.730469 4.976562 4.078125 4.976562 C 4.425781 4.976562 4.734375 5.203125 4.835938 5.535156 C 4.863281 5.457031 4.875 5.378906 4.875 5.296875 C 4.875 4.855469 4.519531 4.5 4.078125 4.5 Z M 4.078125 4.5 "
       id="path2809" />
    <path
       style=" stroke:none;fill-rule:nonzero;fill:rgb(39.607843%,39.607843%,39.607843%);fill-opacity:1;"
       d="M 8.71875 4.921875 C 8.71875 5.363281 8.363281 5.71875 7.921875 5.71875 C 7.480469 5.71875 7.125 5.363281 7.125 4.921875 C 7.125 4.480469 7.480469 4.125 7.921875 4.125 C 8.363281 4.125 8.71875 4.480469 8.71875 4.921875 Z M 8.71875 4.921875 "
       id="path2811" />
  </g>
</svg>
