<?xml version="1.0" encoding="UTF-8" standalone="no"?>
<svg
   xmlns:dc="http://purl.org/dc/elements/1.1/"
   xmlns:cc="http://creativecommons.org/ns#"
   xmlns:rdf="http://www.w3.org/1999/02/22-rdf-syntax-ns#"
   xmlns:svg="http://www.w3.org/2000/svg"
   xmlns="http://www.w3.org/2000/svg"
   xmlns:sodipodi="http://sodipodi.sourceforge.net/DTD/sodipodi-0.dtd"
   xmlns:inkscape="http://www.inkscape.org/namespaces/inkscape"
   width="64"
   height="64"
   viewBox="0 0 64 64"
   id="svg2"
   version="1.1"
   inkscape:version="0.91 r"
   sodipodi:docname="applications-ocaml.svg">
  <metadata
     id="metadata10">
    <rdf:RDF>
      <cc:Work
         rdf:about="">
        <dc:format>image/svg+xml</dc:format>
        <dc:type
           rdf:resource="http://purl.org/dc/dcmitype/StillImage" />
        <dc:title />
      </cc:Work>
    </rdf:RDF>
  </metadata>
  <defs
     id="defs8" />
  <sodipodi:namedview
     pagecolor="#ffffff"
     bordercolor="#666666"
     borderopacity="1"
     objecttolerance="10"
     gridtolerance="10"
     guidetolerance="10"
     inkscape:pageopacity="0"
     inkscape:pageshadow="2"
     inkscape:window-width="1680"
     inkscape:window-height="1026"
     id="namedview6"
     showgrid="false"
     inkscape:zoom="7.375"
     inkscape:cx="16"
     inkscape:cy="16"
     inkscape:window-x="0"
     inkscape:window-y="24"
     inkscape:window-maximized="1"
     inkscape:current-layer="svg2" />
  <path
     style="fill:#d56f7f;fill-rule:evenodd"
     d="m 24.56117,52.625671 c 1.585968,-0.171883 -0.281255,-1.50784 -0.812515,-1.773471 -1.015643,-0.507822 -1.835973,-1.085957 -2.476609,-2.046913 -1.007831,-1.539091 -1.507841,-3.570379 -1.937537,-5.336039 -0.289067,-1.203146 -0.515634,-1.898471 0.242193,-2.914117 0.757826,-1.007831 -0.53126,-1.835972 0.265629,-2.906305 1.343775,-1.789095 1.9141,-4.16414 3.242249,-5.9298 0.375007,-0.500009 0.242193,-0.968768 0.781265,-1.023455 0.257817,-0.02344 0.929706,0.492195 1.156272,0.640636 0.656262,0.445321 1.460965,0.656263 2.101602,1.085959 0.328132,0.210942 0.945331,0.05468 1.21096,0.265629 0.773453,0.601573 0.593762,2.484423 0.515634,3.453191 -0.117182,1.367214 -1.218771,1.796908 -1.218771,3.125059 0,1.59378 0.335942,2.679739 -0.164063,4.312581 -0.281255,0.937518 -1.007831,2.00785 -1.125021,2.960992 -0.09374,0.757829 0.04688,0.73439 0.265631,1.453154 0.265629,0.851578 0.32813,1.617218 1.132833,2.000038 0.460947,0.210942 2.32817,0.304693 2.585987,-0.218755 0.515634,-1.023457 -1.445339,-1.367213 -1.773471,-1.992225 -0.718764,-1.343776 0.968768,-4.820403 1.609404,-5.984487 0.359383,-0.632826 1.046896,-1.140648 1.2969,-1.781284 0.343757,-0.859392 -0.351568,-1.445339 -0.242192,-2.101604 0.218754,-1.281272 0.757826,-2.640673 1.164086,-3.882885 0.94533,-2.867242 2.250042,1.492216 2.796927,2.593799 0.218754,0.429696 0.375007,0.906267 0.593761,1.343775 0.257817,0.523448 -0.312506,0.976583 -0.156263,1.617219 0.140623,0.609388 0.843766,0.94533 1.234397,1.398464 0.593764,0.703138 1.007833,1.578154 1.320339,2.429732 0.664075,1.781286 0.898455,4.875092 2.132853,6.304807 0.171883,0.20313 0.671886,0.09374 0.85939,0.273444 0.429696,0.414069 -0.109382,0.875016 0.726577,1.156271 0.648449,0.218755 2.273479,0.453133 2.882867,0.07812 1.171898,-0.710949 -0.289068,-1.578154 -1.023457,-2.320356 -1.023458,-1.015643 -2.218792,-1.953161 -3.015681,-3.171934 -1.054708,-1.601592 -1.281275,-3.406314 -1.484404,-5.257913 -0.101562,-0.890641 0.867204,-1.335961 0.03126,-2.398481 -0.265629,-0.343757 -1.078144,-0.296882 -1.078144,-0.648451 0,-1.109395 -0.03126,-2.226604 0,-3.336001 0.03906,-1.351587 0.03126,-3.570379 1.320337,-4.421957 1.71097,-1.14846 3.882885,-1.445342 5.523542,-2.671927 1.625031,-1.218773 3.117245,-2.328168 4.093827,-4.281331 0.515634,-1.023455 0.781265,-2.023474 1.187523,-3.07037 0.296879,-0.773452 0.218754,-0.515633 0.695325,-0.97658 0.289067,-0.265631 0.710951,-0.453135 1.031269,-0.750014 0.828142,-0.796891 0.976581,-1.578156 2.367233,-1.242212 0.554697,0.132823 1.468778,1.171896 1.781284,0.539073 0.203128,-0.406258 0.07812,-0.773451 -0.03126,-1.187523 -0.156263,-0.609385 0.593761,-0.812515 0.570323,-1.398462 -0.03126,-1.007833 -1.664093,-2.070353 -2.507859,-2.242231 -1.06252,-0.210942 -2.234419,0.250005 -3.375064,0.03126 -0.906267,-0.179683 -1.703158,-0.671889 -2.578175,-0.890643 -0.921891,-0.234378 -1.750033,-0.312506 -2.531298,0.242193 -0.35938,0.257817 -0.500009,0.710951 -0.812515,0.968768 -0.265629,0.218754 -0.500009,0.156263 -0.804701,0.382819 -0.929706,0.664075 -1.000019,1.640657 0.593759,1.343776 -0.671887,2.765678 -3.921948,10.21113 -7.547017,6.359496 -1.695344,-1.79691 -3.250061,-3.789136 -4.851653,-5.656357 -1.414091,-1.648469 -2.234418,-3.500066 -4.6329,-3.179748 -2.375045,0.312506 -3.992263,1.937536 -5.828236,3.289124 -1.500028,1.101585 -3.265688,1.343775 -4.851654,2.265669 -1.687531,0.968768 -3.18756,2.601611 -3.765696,4.468834 -0.843766,2.703175 -0.359381,5.304788 -1.843785,7.875149 -0.890641,1.554717 -2.156291,2.640674 -3.2813123,3.929762 -0.6093855,0.695325 -1.0156431,1.648467 -0.8125153,2.585985 0.1406286,0.640638 0.5937612,0.757826 0.5937612,1.50784 0,1.304713 -0.062501,2.601614 -0.00782,3.914138 0.054689,1.164084 0.1484408,2.304732 0.3046937,3.45319 0.1484388,1.000019 0.5156338,1.281274 0.8359518,2.015664 0.4843852,1.085958 0.4062597,1.562529 1.5625299,1.992223 0.656264,0.242193 1.781285,0.726578 2.484423,0.70314 1.007829,-0.04688 1.148458,-0.882826 0.375006,-1.781281 -0.50001,-0.585949 -1.429715,-0.773453 -1.992226,-1.406277 -1.6328429,-1.82816 -2.3359802,-7.328264 -0.968768,-9.265801 0.56251,-0.812515 1.289086,-0.820327 1.343775,-2.046912 0.04688,-1.101583 -0.398443,-1.484402 0.593761,-2.476609 3.164122,-1.617219 3.500066,-2.77349 4.523523,-2.218792 1.250024,0.679699 0.273444,4.484459 0,5.554791 -0.476571,1.9141 -2.375045,2.812553 -1.132833,4.742278 0.890641,1.382838 1.312525,2.812553 1.914098,4.421959 0.546884,1.453152 0.507822,3.531317 1.375026,4.742278 0.171877,0.234378 0.437508,0.367193 0.593761,0.593759 0.117191,0.164063 0.289068,0.656264 0.375008,0.757828 0.367195,0.421882 0.44532,0.53126 1.031269,0.750014 1.039082,0.398446 2.320356,0.265629 3.445377,0.265629"
     id="path4"
     inkscape:connector-curvature="0" />
</svg>
