<?xml version="1.0" encoding="UTF-8" standalone="no"?>
<!-- Created with Inkscape (http://www.inkscape.org/) -->

<svg
   xmlns:dc="http://purl.org/dc/elements/1.1/"
   xmlns:cc="http://creativecommons.org/ns#"
   xmlns:rdf="http://www.w3.org/1999/02/22-rdf-syntax-ns#"
   xmlns:svg="http://www.w3.org/2000/svg"
   xmlns="http://www.w3.org/2000/svg"
   xmlns:sodipodi="http://sodipodi.sourceforge.net/DTD/sodipodi-0.dtd"
   xmlns:inkscape="http://www.inkscape.org/namespaces/inkscape"
   version="1.0"
   width="64"
   height="64"
   id="svg3366"
   inkscape:version="0.91 r"
   sodipodi:docname="preferences-desktop-accessibility.svg">
  <metadata
     id="metadata30">
    <rdf:RDF>
      <cc:Work
         rdf:about="">
        <dc:format>image/svg+xml</dc:format>
        <dc:type
           rdf:resource="http://purl.org/dc/dcmitype/StillImage" />
        <dc:title />
      </cc:Work>
    </rdf:RDF>
  </metadata>
  <sodipodi:namedview
     pagecolor="#ffffff"
     bordercolor="#666666"
     borderopacity="1"
     objecttolerance="10"
     gridtolerance="10"
     guidetolerance="10"
     inkscape:pageopacity="0"
     inkscape:pageshadow="2"
     inkscape:window-width="1920"
     inkscape:window-height="1056"
     id="namedview28"
     showgrid="true"
     inkscape:zoom="5.6568543"
     inkscape:cx="-41.44362"
     inkscape:cy="-10.858509"
     inkscape:window-x="0"
     inkscape:window-y="24"
     inkscape:window-maximized="1"
     inkscape:current-layer="svg3366">
    <inkscape:grid
       type="xygrid"
       id="grid4158" />
  </sodipodi:namedview>
  <defs
     id="defs3368" />
  <path
     style="fill:#698ecc;fill-opacity:1;stroke:none;stroke-width:1.003654;stroke-linecap:round;stroke-linejoin:round;stroke-miterlimit:4;stroke-dasharray:none;stroke-dashoffset:0;stroke-opacity:1"
     d="M 32,6 C 17.654097,6 6,17.654096 6,32 6,46.345904 17.654097,58.000004 32,58 46.345898,58 58.000012,46.345904 58,32 58,17.654096 46.345898,6 32,6 Z m 0.18028,9.1 c 2.08868,0 3.783204,1.733088 3.783204,3.86953 0,2.136434 -1.694524,3.872072 -3.783204,3.872072 -2.088676,0 -3.785742,-1.735636 -3.785742,-3.872072 0,-2.13644 1.697066,-3.86953 3.785742,-3.86953 z m -13.634764,7.916798 c 0.19536,0.0072 0.39544,0.04552 0.599218,0.08126 L 32,25.352742 44.908594,23.191998 c 0.17476,-0.02928 0.322646,-0.0777 0.497654,-0.10664 0.500828,-0.05692 0.99174,0.218356 1.17051,0.688084 0.17876,0.469674 0.0014,1.014086 -0.41133,1.30254 l -10.082616,3.486134 0.005,7.396288 3.488672,11.286132 c 0.304316,0.530794 0.11868,1.204898 -0.413866,1.508204 -0.532542,0.303284 -1.211492,0.11948 -1.51582,-0.41133 L 32.020234,36.232622 26.281952,48.364264 C 25.939574,48.876074 25.211098,48.9797 24.697576,48.638482 24.184072,48.29732 24.081014,47.639476 24.42336,47.12774 L 27.978046,35.88985 28.046586,28.384382 17.974199,25.1166 c -0.366717,-0.19212 -0.627011,-0.546896 -0.622071,-0.959764 0.0051,-0.41281 0.250742,-0.847826 0.622071,-1.03086 0.185658,-0.09152 0.375935,-0.11638 0.571287,-0.10918 z"
     id="path2555"
     inkscape:connector-curvature="0" />
</svg>
