<svg xmlns="http://www.w3.org/2000/svg" viewBox="0 0 20 16">
<g style="fill:none;stroke-linecap:round;stroke-width:1.7">
<g style="opacity:.4" transform="translate(-2 -4)">
<path style="opacity:.3;stroke:#000" d="m 2.85,11.144409 c 0,0 2.8977535,-3.294409 9.131958,-3.294409 6.203557,0 9.168042,3.3 9.168042,3.3"/>
<path style="stroke:#dfdbd2" d="m 2.85,10.144409 c 0,0 2.8977535,-3.2944092 9.131958,-3.2944092 C 18.185515,6.8499998 21.15,10.15 21.15,10.15"/>
</g>
<path style="opacity:.3;stroke:#000" d="m 3.3499998,9.752608 c 0,0 2.1468917,-2.21577 6.6500012,-2.136936 C 14.540461,7.695162 16.65,9.788197 16.65,9.788197"/>
<path style="stroke:#dfdbd2" d="m 3.3499998,8.752608 c 0,0 2.1468917,-2.215771 6.6500012,-2.136937 C 14.540461,6.695161 16.65,8.788197 16.65,8.788197"/>
<path style="opacity:.3;stroke:#000" d="m 6.3499999,12.191046 c 0,0 0.9668981,-1.071983 3.5986811,-1.092208 2.598976,-0.01997 3.701319,1.092208 3.701319,1.092208"/>
<path style="stroke:#dfdbd2" d="m 6.3499999,11.191046 c 0,0 0.9668981,-1.071983 3.5986811,-1.092208 2.598976,-0.01997 3.701319,1.092208 3.701319,1.092208"/>
</g>
<g style="fill-rule:evenodd">
<path style="opacity:.3" d="m 9.145105,14 c -0.471902,0 -0.854895,0.298667 -0.854895,0.666667 0,0.136758 0.0529,0.263941 0.143587,0.369778 0,0 1.007602,0.801438 1.007602,0.801438 C 9.591259,15.938886 9.786534,16 10.000001,16 c 0.253303,0 0.480993,-0.08605 0.63758,-0.222693 0,0 0.900909,-0.710397 0.900909,-0.710397 0.107541,-0.111488 0.1713,-0.250094 0.1713,-0.400243 0,-0.368 -0.382993,-0.666667 -0.854895,-0.666667 0,0 -1.70979,0 -1.70979,0 z"/>
<path style="fill:#dfdbd2" d="m 9.145105,13 c -0.471902,0 -0.854895,0.298667 -0.854895,0.666667 0,0.136758 0.0529,0.263941 0.143587,0.369778 0,0 1.007602,0.801438 1.007602,0.801438 C 9.591259,14.938886 9.786534,15 10.000001,15 c 0.253303,0 0.480993,-0.08605 0.63758,-0.222693 0,0 0.900909,-0.710397 0.900909,-0.710397 0.107541,-0.111488 0.1713,-0.250094 0.1713,-0.400243 0,-0.368 -0.382993,-0.666667 -0.854895,-0.666667 0,0 -1.70979,0 -1.70979,0 z"/>
</g>
</svg>
