<svg xmlns="http://www.w3.org/2000/svg" viewBox="0 0 16 16">
<g style="fill:none;stroke-linecap:round">
<g style="stroke-width:1.7">
<g style="opacity:.4" transform="matrix(.8 0 0 .8 -1.6 -2.4)">
<path style="opacity:.3;stroke:#000" d="m2.85 11.144s2.8978-3.2944 9.132-3.2944c6.2036 0 9.168 3.3 9.168 3.3"/>
<path style="stroke:#dfdbd2" d="m2.85 10.144s2.8978-3.2944 9.132-3.2944c6.204 0.0004 9.168 3.3004 9.168 3.3004"/>
</g>
<g style="opacity:.4" transform="matrix(.8 0 0 .8 -1.6 -2.4)">
<path style="opacity:.3;stroke:#000" d="m5.35 13.753s2.1469-2.2158 6.65-2.1369c4.5405 0.07949 6.65 2.1725 6.65 2.1725"/>
<path style="stroke:#dfdbd2" d="m5.35 12.753s2.1469-2.2158 6.65-2.1369c4.5405 0.07949 6.65 2.1725 6.65 2.1725"/>
</g>
</g>
<g style="stroke-width:1.36">
<path style="opacity:.3;stroke:#000" d="m5.08 10.553s0.77352-0.85759 2.8789-0.87377c2.0791-0.0161 2.9611 0.8738 2.9611 0.8738"/>
<path style="stroke:#dfdbd2" d="m5.08 9.7528s0.77352-0.85759 2.8789-0.87377c2.0791-0.0159 2.9611 0.8738 2.9611 0.8738"/>
</g>
</g>
<g style="fill-rule:evenodd">
<path style="opacity:.3" d="m7.3161 12c-0.37752 0-0.68392 0.23893-0.68392 0.53333 0 0.10941 0.04232 0.21115 0.11487 0.29582l0.80608 0.64115c0.11989 0.0808 0.27611 0.12969 0.44688 0.12969 0.20264 0 0.38479-0.06884 0.51006-0.17815l0.72073-0.56832c0.086033-0.08919 0.13704-0.20008 0.13704-0.32019 0-0.2944-0.30639-0.53333-0.68392-0.53333h-1.3678z"/>
<path style="fill:#dfdbd2" d="m7.3161 11.2c-0.37752 0-0.68392 0.23893-0.68392 0.53333 0 0.10941 0.04232 0.21115 0.11487 0.29582l0.80608 0.64115c0.11989 0.0808 0.27611 0.12969 0.44688 0.12969 0.20264 0 0.38479-0.06884 0.51006-0.17815l0.72073-0.56832c0.086033-0.08919 0.13704-0.20008 0.13704-0.32019 0-0.2944-0.30639-0.53333-0.68392-0.53333h-1.3678z"/>
</g>
</svg>
