<svg xmlns="http://www.w3.org/2000/svg" viewBox="0 0 128 128" xmlns:xlink="http://www.w3.org/1999/xlink">
<defs>
<linearGradient gradientTransform="matrix(5.6434 0 0 5.6429 -286.51 19.309)" id="linearGradient2407" y1="-12.489" y2="5.468" gradientUnits="userSpaceOnUse" x2="0">
<stop offset="0" style="stop-color:#fff"/>
<stop offset="1" style="stop-color:#fff;stop-opacity:0"/>
</linearGradient>
<linearGradient gradientTransform="matrix(0 6.8295 -6.5939 0 147.89 -144.81)" id="linearGradient2932-8" x1="3.697" gradientUnits="userSpaceOnUse" x2="19.821">
<stop offset="0" style="stop-color:#808080"/>
<stop offset=".546" style="stop-color:#6d6d6d"/>
<stop offset="1" style="stop-color:#4f5053"/>
</linearGradient>
<linearGradient id="linearGradient3905" y1="-51.505" y2="51.495" gradientUnits="userSpaceOnUse" x2="0">
<stop offset="0" style="stop-color:#fff"/>
<stop offset="1" style="stop-color:#fff;stop-opacity:0"/>
</linearGradient>
<linearGradient gradientTransform="matrix(2.5558 0 0 2.5558 3.181 -61.84)" id="linearGradient2939-0" y1="2.684" y2="45.326" gradientUnits="userSpaceOnUse" x2="0">
<stop offset="0" style="stop-color:#808080"/>
<stop offset=".873" style="stop-color:#6d6d6d"/>
<stop offset="1" style="stop-color:#4f5053"/>
</linearGradient>
<linearGradient gradientTransform="matrix(0 6.8295 -6.5939 0 226.42 -504.22)" id="linearGradient2934-6" x1="56.323" gradientUnits="userSpaceOnUse" x2="72.452">
<stop offset="0" style="stop-color:#4d4d4d"/>
<stop offset="1" style="stop-color:#333"/>
</linearGradient>
<linearGradient gradientTransform="matrix(4.9528 0 0 4.9526 5.0877 -59.934)" id="linearGradient2937-8" y1="1" y2="23.063" gradientUnits="userSpaceOnUse" x2="0">
<stop offset="0" style="stop-color:#fff"/>
<stop offset="1" style="stop-color:#cdcdcd"/>
</linearGradient>
<radialGradient cx="62.625" cy="4.625" gradientTransform="matrix(5.7751 0 0 2.0086 -297.14 30.223)" id="radialGradient3954" r="10.625" gradientUnits="userSpaceOnUse">
<stop offset="0"/>
<stop offset="1" style="stop-opacity:0"/>
</radialGradient>
</defs>
<g transform="translate(0 64)">
<path style="opacity:.5;fill:url(#radialGradient3954)" d="m125.88 39.513c0 11.786-27.472 21.341-61.36 21.341s-61.36-9.5548-61.36-21.341 27.472-21.341 61.36-21.341 61.36 9.5548 61.36 21.341z"/>
</g>
<g style="color:#000" transform="translate(0 64)">
<path style="fill:#555555url(#linearGradient2937-8);stroke:url(#linearGradient2939-0);stroke-linejoin:round;stroke-linecap:round;stroke-width:1.004" d="m64.519-52.516c-28.702 0-52.018 23.315-52.018 52.014 0 28.7 23.316 52.014 52.018 52.014s52.018-23.315 52.018-52.014c0-28.7-23.316-52.014-52.018-52.014z"/>
<path style="fill:#555555url(#linearGradient2932-8);stroke:url(#linearGradient2934-6)" d="m63.5-52.5c-28.227 0.54981-51 23.644-51 52 0 28.355 22.773 51.419 51 51.969v-103.97z"/>
</g>
<g style="fill:#555555none" transform="translate(0 64)">
<path style="opacity:.4;stroke:url(#linearGradient2407);stroke-width:.999" d="m115.5-0.504c0 27.257-22.3 51.241-50.98 51.004-29.513-0.245-50.674-23.749-51.02-51.004-0.35612-28.087 23.287-51.115 51.02-50.996 27.255 0.11666 50.98 21.96 50.98 50.996z"/>
<path style="opacity:.2;stroke:url(#linearGradient3905)" d="m62.5-51.005v102"/>
</g>
</svg>
