<svg width="24" xmlns="http://www.w3.org/2000/svg" height="24" viewBox="0 0 24 24" xmlns:xlink="http://www.w3.org/1999/xlink">
<path style="fill:#6fbed5;fill-rule:evenodd" d="M 14.664062 19.609375 C 14.070312 19.542969 14.769531 19.042969 14.96875 18.941406 C 15.347656 18.753906 15.660156 18.535156 15.898438 18.175781 C 16.277344 17.601562 16.464844 16.835938 16.625 16.175781 C 16.734375 15.726562 16.820312 15.464844 16.53125 15.082031 C 16.25 14.703125 16.734375 14.390625 16.433594 13.992188 C 15.929688 13.320312 15.71875 12.429688 15.21875 11.765625 C 15.078125 11.578125 15.128906 11.402344 14.925781 11.382812 C 14.828125 11.375 14.578125 11.570312 14.492188 11.625 C 14.246094 11.792969 13.945312 11.871094 13.703125 12.03125 C 13.582031 12.113281 13.351562 12.054688 13.25 12.132812 C 12.960938 12.359375 13.027344 13.0625 13.054688 13.425781 C 13.101562 13.941406 13.511719 14.101562 13.511719 14.597656 C 13.511719 15.195312 13.386719 15.601562 13.574219 16.214844 C 13.679688 16.566406 13.953125 16.96875 13.996094 17.328125 C 14.03125 17.609375 13.980469 17.601562 13.898438 17.871094 C 13.796875 18.191406 13.773438 18.476562 13.472656 18.621094 C 13.296875 18.703125 12.601562 18.734375 12.503906 18.539062 C 12.308594 18.15625 13.042969 18.023438 13.167969 17.789062 C 13.4375 17.289062 12.804688 15.984375 12.5625 15.546875 C 12.429688 15.308594 12.171875 15.121094 12.078125 14.878906 C 11.949219 14.558594 12.210938 14.339844 12.167969 14.09375 C 12.085938 13.609375 11.882812 13.101562 11.734375 12.636719 C 11.378906 11.558594 10.890625 13.195312 10.683594 13.609375 C 10.601562 13.769531 10.542969 13.949219 10.460938 14.113281 C 10.363281 14.308594 10.578125 14.476562 10.519531 14.71875 C 10.464844 14.945312 10.203125 15.074219 10.054688 15.242188 C 9.832031 15.503906 9.679688 15.835938 9.558594 16.15625 C 9.3125 16.820312 9.222656 17.984375 8.761719 18.519531 C 8.695312 18.597656 8.511719 18.550781 8.441406 18.621094 C 8.277344 18.777344 8.480469 18.949219 8.167969 19.054688 C 7.925781 19.136719 7.3125 19.222656 7.085938 19.085938 C 6.644531 18.820312 7.195312 18.492188 7.46875 18.214844 C 7.855469 17.832031 8.300781 17.480469 8.601562 17.023438 C 8.996094 16.421875 9.078125 15.746094 9.15625 15.054688 C 9.195312 14.71875 8.832031 14.554688 9.144531 14.152344 C 9.246094 14.027344 9.550781 14.042969 9.550781 13.910156 C 9.550781 13.492188 9.5625 13.074219 9.550781 12.660156 C 9.535156 12.152344 9.539062 11.320312 9.054688 11 C 8.414062 10.570312 7.597656 10.460938 6.984375 10 C 6.375 9.539062 5.816406 9.125 5.445312 8.394531 C 5.257812 8.011719 5.15625 7.632812 5.003906 7.242188 C 4.890625 6.949219 4.921875 7.046875 4.742188 6.878906 C 4.632812 6.777344 4.476562 6.707031 4.355469 6.59375 C 4.046875 6.296875 3.988281 6.003906 3.46875 6.128906 C 3.257812 6.179688 2.917969 6.566406 2.800781 6.332031 C 2.726562 6.179688 2.769531 6.039062 2.808594 5.886719 C 2.867188 5.65625 2.589844 5.582031 2.597656 5.359375 C 2.609375 4.984375 3.21875 4.585938 3.539062 4.523438 C 3.9375 4.441406 4.378906 4.613281 4.800781 4.53125 C 5.144531 4.464844 5.441406 4.28125 5.769531 4.199219 C 6.117188 4.109375 6.425781 4.082031 6.722656 4.289062 C 6.855469 4.382812 6.90625 4.554688 7.023438 4.652344 C 7.125 4.734375 7.210938 4.710938 7.328125 4.796875 C 7.671875 5.042969 7.699219 5.414062 7.105469 5.300781 C 7.355469 6.335938 8.574219 9.128906 9.933594 7.683594 C 10.570312 7.011719 11.152344 6.265625 11.753906 5.5625 C 12.28125 4.945312 12.589844 4.25 13.492188 4.371094 C 14.378906 4.488281 14.988281 5.097656 15.675781 5.601562 C 16.238281 6.019531 16.898438 6.109375 17.496094 6.453125 C 18.128906 6.816406 18.691406 7.429688 18.910156 8.128906 C 19.222656 9.144531 19.042969 10.121094 19.597656 11.082031 C 19.929688 11.664062 20.40625 12.074219 20.832031 12.554688 C 21.058594 12.816406 21.207031 13.175781 21.132812 13.523438 C 21.082031 13.765625 20.910156 13.8125 20.910156 14.09375 C 20.910156 14.582031 20.933594 15.070312 20.914062 15.558594 C 20.894531 15.996094 20.859375 16.421875 20.796875 16.855469 C 20.746094 17.230469 20.609375 17.335938 20.484375 17.609375 C 20.304688 18.015625 20.335938 18.195312 19.898438 18.355469 C 19.652344 18.445312 19.234375 18.628906 18.96875 18.621094 C 18.589844 18.601562 18.539062 18.289062 18.828125 17.953125 C 19.015625 17.734375 19.367188 17.664062 19.574219 17.425781 C 20.1875 16.742188 20.453125 14.679688 19.9375 13.949219 C 19.726562 13.648438 19.457031 13.644531 19.4375 13.183594 C 19.417969 12.769531 19.585938 12.625 19.210938 12.253906 C 18.023438 11.648438 17.898438 11.214844 17.515625 11.421875 C 17.046875 11.675781 17.414062 13.105469 17.515625 13.507812 C 17.695312 14.222656 18.40625 14.5625 17.9375 15.285156 C 17.605469 15.804688 17.449219 16.335938 17.222656 16.945312 C 17.015625 17.488281 17.035156 18.265625 16.707031 18.71875 C 16.644531 18.808594 16.542969 18.859375 16.484375 18.941406 C 16.441406 19.007812 16.375 19.1875 16.34375 19.226562 C 16.207031 19.382812 16.175781 19.425781 15.957031 19.507812 C 15.566406 19.65625 15.085938 19.609375 14.664062 19.609375 "/>
</svg>
