<svg width="24" xmlns="http://www.w3.org/2000/svg" height="24" viewBox="0 0 24 24" xmlns:xlink="http://www.w3.org/1999/xlink">
<path style="fill:#e684a3" d="M 11.351562 2.597656 C 10.8125 2.597656 10.28125 2.660156 9.738281 2.785156 C 5.410156 3.8125 0.261719 10.8125 6.863281 13.929688 C 9.972656 15.398438 9.75 22.070312 14.078125 21.046875 C 18.40625 20.019531 20.941406 15.101562 19.742188 10.0625 C 18.695312 5.648438 15.125 2.601562 11.351562 2.597656 Z M 10.015625 3.988281 C 10.785156 3.988281 11.410156 4.613281 11.410156 5.378906 C 11.410156 6.148438 10.785156 6.773438 10.015625 6.773438 C 9.246094 6.773438 8.621094 6.148438 8.621094 5.378906 C 8.621094 4.613281 9.246094 3.988281 10.015625 3.988281 Z M 14.195312 4.453125 C 14.964844 4.453125 15.589844 5.074219 15.589844 5.84375 C 15.589844 6.609375 14.964844 7.234375 14.195312 7.234375 C 13.425781 7.234375 12.804688 6.609375 12.804688 5.84375 C 12.804688 5.074219 13.425781 4.453125 14.195312 4.453125 Z M 6.761719 6.773438 C 7.53125 6.773438 8.15625 7.394531 8.15625 8.160156 C 8.15625 8.929688 7.53125 9.554688 6.761719 9.554688 C 5.992188 9.554688 5.367188 8.929688 5.367188 8.160156 C 5.367188 7.394531 5.992188 6.773438 6.761719 6.773438 Z M 16.984375 7.699219 C 17.753906 7.699219 18.375 8.324219 18.375 9.089844 C 18.375 9.859375 17.753906 10.480469 16.984375 10.480469 C 16.214844 10.480469 15.589844 9.859375 15.589844 9.089844 C 15.589844 8.324219 16.214844 7.699219 16.984375 7.699219 Z M 9.363281 11.363281 C 10.019531 11.351562 10.695312 11.9375 10.945312 12.800781 C 11.230469 13.785156 10.867188 14.757812 10.132812 14.972656 C 9.390625 15.1875 8.558594 14.566406 8.273438 13.582031 C 7.984375 12.601562 8.347656 11.625 9.085938 11.410156 C 9.175781 11.382812 9.265625 11.367188 9.363281 11.363281 Z M 17.449219 11.871094 C 18.21875 11.871094 18.84375 12.496094 18.84375 13.265625 C 18.84375 14.03125 18.21875 14.65625 17.449219 14.65625 C 16.675781 14.65625 16.054688 14.03125 16.054688 13.265625 C 16.054688 12.496094 16.675781 11.871094 17.449219 11.871094 Z M 15.589844 15.582031 C 16.359375 15.582031 16.984375 16.207031 16.984375 16.972656 C 16.984375 17.742188 16.359375 18.363281 15.589844 18.363281 C 14.820312 18.363281 14.195312 17.742188 14.195312 16.972656 C 14.195312 16.207031 14.820312 15.582031 15.589844 15.582031 Z "/>
</svg>
