<svg width="24" xmlns="http://www.w3.org/2000/svg" height="24" viewBox="0 0 24 24" xmlns:xlink="http://www.w3.org/1999/xlink">
<g style="fill:#c0956e">
<path d="M 8.542969 4.042969 C 8.25 4.074219 8.003906 4.347656 8.003906 4.640625 L 8.003906 9.398438 C 8.003906 9.714844 8.292969 10 8.605469 10 L 15.394531 10 C 15.707031 10 15.996094 9.714844 15.996094 9.398438 L 15.996094 4.640625 C 15.996094 4.328125 15.707031 4.042969 15.394531 4.042969 Z "/>
<path d="M 3.539062 14.042969 C 3.246094 14.074219 3 14.347656 3 14.640625 L 3 19.398438 C 3 19.714844 3.285156 20 3.601562 20 L 10.390625 20 C 10.703125 20 10.988281 19.714844 10.988281 19.398438 L 10.988281 14.640625 C 10.988281 14.328125 10.703125 14.042969 10.390625 14.042969 Z "/>
<path d="M 13.539062 14.042969 C 13.246094 14.074219 13 14.347656 13 14.640625 L 13 19.398438 C 13 19.714844 13.285156 20 13.601562 20 L 20.390625 20 C 20.703125 20 20.988281 19.714844 20.988281 19.398438 L 20.988281 14.640625 C 20.988281 14.328125 20.703125 14.042969 20.390625 14.042969 Z "/>
<path d="M 11.5 10.5 L 11.5 11.5 L 6.5 11.5 L 6.5 13.5 L 7.5 13.5 L 7.5 12.5 L 16.5 12.5 L 16.5 13.5 L 17.5 13.5 L 17.5 11.5 L 12.5 11.5 L 12.5 10.5 Z "/>
</g>
</svg>
