
<svg xmlns="http://www.w3.org/2000/svg" viewBox="0 0 24 24">
 <g transform="matrix(1 0 0 1 0 -1028.36)">
  <rect ry="0.478" rx="0.472" width="17" y="1032.36" x="3.5" height="11" style="fill:#424242;opacity:1;fill-opacity:1;stroke:none;fill-rule:nonzero"/>
  <rect height="9" width="15" style="fill:#cecece;fill-opacity:1;stroke:none" y="1033.36" x="4.5"/>
  <path style="fill:#424242;fill-opacity:1;stroke:none" d="m 2 1047.36 20 0 0 0.5 c 0 0.277 -0.446 0.5 -1 0.5 l -18 0 c -0.554 0 -0.804 -0.304 -1 -0.5 z"/>
  <path style="fill:#b5b5b5;fill-opacity:1;stroke:none" d="m 3.5 1043.36 -1.5 4 20 0 -1.5 -4 z"/>
  <path style="fill:#757575;fill-opacity:1;stroke:none" d="m 4.5 1043.86 -0.5 1.5 16 0 -0.5 -1.5 z"/>
  <path style="fill:#757575;fill-opacity:1;stroke:none" d="m 10 1046.36 0 0.5 4 0 0 -0.5 z"/>
  <rect height="11" width="2" style="fill:#fff;opacity:0.4;fill-opacity:1;stroke:none;fill-rule:nonzero" y="1032.36" x="16"/>
 </g>
</svg>
