<svg xmlns="http://www.w3.org/2000/svg" viewBox="0 0 24 24">
 <rect width="14" height="10" x="4" y="7" rx="0.8" style="fill:#073642"/>
 <rect width="11.5" height="7.5" x="5.25" y="8.25" style="fill:#93a1a1"/>
 <rect rx="0.15" y="8" x="17" height="0.75" width="0.75" style="fill:#586e75"/>
 <rect width="2" height="10" x="15" y="7" style="fill:#fdf6e3;opacity:0.2"/>
 <path d="m 20 16.25 -1 -1.5 0 -6.514 c 0 0 0 -0.486 0.5 -0.486 0.5 0 0.5 0.486 0.5 0.486 l 0 6.514" style="fill:#073642"/>
 <rect width="2" height="0.5" x="-14.75" y="19.5" transform="matrix(0,-1,1,0,0,0)" style="fill:#586e75"/>
 <rect width="0.75" height="0.75" x="17" y="9.5" rx="0.15" style="fill:#586e75"/>
 <rect width="0.75" height="0.75" x="4.25" y="8" rx="0.15" style="fill:#586e75"/>
 <rect rx="0.15" y="9.5" x="4.25" height="0.75" width="0.75" style="fill:#586e75"/>
</svg>
