<svg xmlns="http://www.w3.org/2000/svg" viewBox="0 0 24 24">
<g transform="translate(0 8)">
<path style="fill:#919fa9;line-height:normal;color:#000" d="m 8.323855,-4 c -0.70572,0 -1.28125,0.57555 -1.28125,1.28125 l 0,13.40625 c 0,0.70575 0.57553,1.3125 1.28125,1.3125 l 7.35229,0 c 0.70572,0 1.28125,-0.60675 1.28125,-1.3125 l 0,-13.40625 C 16.957395,-3.42445 16.381865,-4 15.676145,-4 z m 1.03125,2.03125 5.32104,0 c 0.169017,0 0.28125,0.11225 0.28125,0.28125 l 0,9.375 C 14.957395,7.85655 14.845162,8 14.676145,8 L 9.355105,8 C 9.186088,8 9.073855,7.85655 9.073855,7.6875 l 0,-9.375 c 0,-0.169 0.112233,-0.28125 0.28125,-0.28125 z M 9.011355,9 l 2,0 0,1 -2,0 z m 3.94604,0 2,0 0,1 -2,0 z"/>
</g>
</svg>
