<svg width="48" xmlns="http://www.w3.org/2000/svg" viewBox="0 0 48 48" height="48" xmlns:xlink="http://www.w3.org/1999/xlink">
<path style="fill:#39a34f" d="M 8,1 C 6.9714285,1 6,1.9714285 6,3 l 0,42 c 0,0.971429 1.0285714,2 2,2 l 32,0 c 0.971429,0 2,-1.028571 2,-2 L 42,14 29,1 z"/>
<path style="fill-opacity:.196" d="M 29,12 29.0625,12.0625 29.21875,12 29,12 z m 2,2 11,11 0,-11 -11,0 z"/>
<path style="fill:#fff;fill-opacity:.392" d="m 29,1 13,13 -11,0 c -0.971429,0 -2,-1.028571 -2,-2 L 29,1 z"/>
<path style="fill:#fff;line-height:normal;color:#000" d="m 17.035432,17.999888 c -0.563237,0.054 -1.04532,0.64805 -1.035278,1.28125 l 0,8.5625 0,0.03125 0,0.53125 0,0.03125 0,4.3125 c 0.0061,0.663 0.537593,1.2595 1.129394,1.25 l 13.772329,0 c 0.582514,-0.01 1.091926,-0.5974 1.098021,-1.25 l 0,-13.46875 c 0.0084,-0.663 -0.506206,-1.27435 -1.098021,-1.28125 l -13.772329,0 -0.09412,0 z m 0.972533,2 11.984122,0 0,8.59375 c -0.08676,-0.104187 -0.129019,-0.140372 -0.219604,-0.25 -0.891777,-1.0689 -1.911389,-2.3394 -3.137205,-3.875 -0.245245,0.243 -0.542771,0.53615 -0.941161,0.90625 -0.404521,0.3701 -0.885282,0.8154 -1.443114,1.3125 -0.07049,0.0774 -0.354382,-0.2177 -0.878418,-0.875 -0.536377,-0.6601 -1.272005,-1.6677 -2.258787,-3.0625 -1.323503,1.372187 -2.278193,2.354408 -3.105833,3.1875 l 0,-5.9375 z"/>
</svg>
