<svg width="48" xmlns="http://www.w3.org/2000/svg" viewBox="0 0 48 48" height="48">
<path style="fill:#c19553" d="M 8,1 C 6.9714285,1 6,1.9714285 6,3 l 0,42 c 0,0.971429 1.0285714,2 2,2 l 32,0 c 0.971429,0 2,-1.028571 2,-2 L 42,14 29,1 z"/>
<path style="fill-opacity:.196" d="M 29,12 29.0625,12.0625 29.21875,12 29,12 z m 2,2 11,11 0,-11 -11,0 z"/>
<path style="fill:#fff;fill-opacity:.392" d="m 29,1 13,13 -11,0 c -0.971429,0 -2,-1.028571 -2,-2 L 29,1 z"/>
<path style="fill-opacity:.196" d="m 6,35 0,10 c 0,0.971429 1.0285714,2 2,2 l 32,0 c 0.971429,0 2,-1.028571 2,-2 l 0,-10 z"/>
<g style="fill:#fff">
<g>
<path d="m 18,1 0,4 4,0 0,-4 -4,0 z m 0,4 -4,0 0,4 4,0 0,-4 z m 0,4 0,4 4,0 0,-4 -4,0 z m 0,4 -4,0 0,4 4,0 0,-4 z m 0,4 0,4 4,0 0,-4 -4,0 z m -4,6 0,8 8,0 0,-8 -4,0 -4,0 z"/>
</g>
<g style="word-spacing:0;line-height:125%;letter-spacing:0" transform="scale(.99582 1.0042)">
<path d="m 17.265075,42.361625 c -6e-6,0.469116 -0.07959,0.862836 -0.238746,1.181162 -0.159169,0.309951 -0.376972,0.561262 -0.653409,0.753933 -0.26807,0.184296 -0.590585,0.318328 -0.967548,0.402098 -0.368593,0.07539 -0.766502,0.11309 -1.193727,0.11309 -0.343461,0 -0.699485,-0.02094 -1.068073,-0.06283 -0.368591,-0.03351 -0.732991,-0.08796 -1.093203,-0.163352 l 0,-7.551899 c 0.293195,-0.05025 0.615711,-0.09214 0.967548,-0.125655 0.351833,-0.04188 0.69948,-0.06282 1.042941,-0.06283 0.586389,8e-6 1.06388,0.06284 1.432473,0.188483 0.368585,0.117286 0.657593,0.27645 0.867024,0.477491 0.20942,0.192679 0.35183,0.410482 0.427228,0.653409 0.07539,0.242941 0.113085,0.485875 0.11309,0.728803 -5e-6,0.368595 -0.09215,0.695299 -0.276442,0.980113 -0.175923,0.284824 -0.414668,0.511004 -0.716236,0.67854 0.527748,0.192676 0.883772,0.452364 1.068072,0.779064 0.192666,0.326708 0.289002,0.670166 0.289008,1.030376 m -3.669143,-1.055507 0,2.111014 c 0.1089,0.01675 0.226178,0.02932 0.351836,0.0377 0.13403,0.0084 0.263874,0.01257 0.389532,0.01257 0.175915,1e-6 0.347644,-0.01256 0.515188,-0.0377 0.167537,-0.03351 0.314135,-0.08796 0.439794,-0.163352 0.134029,-0.08377 0.24293,-0.196859 0.326705,-0.33927 0.08377,-0.150785 0.125651,-0.339268 0.125655,-0.56545 -4e-6,-0.376964 -0.121471,-0.645029 -0.364401,-0.804196 -0.234561,-0.167537 -0.552888,-0.251307 -0.954982,-0.251311 l -0.829327,0 m 0.603147,-1.281686 c 0.393718,4e-6 0.691102,-0.08377 0.892154,-0.251312 0.201045,-0.175912 0.30157,-0.414658 0.301574,-0.716236 -4e-6,-0.184289 -0.02932,-0.330887 -0.08796,-0.439795 -0.05864,-0.117272 -0.138225,-0.205231 -0.238746,-0.263876 -0.100528,-0.06701 -0.217806,-0.108895 -0.351835,-0.125656 -0.134036,-0.02512 -0.272257,-0.03769 -0.414664,-0.0377 -0.117281,7e-6 -0.238748,0.0042 -0.364401,0.01257 -0.125658,0.0084 -0.238748,0.02095 -0.33927,0.0377 l 0,1.784309 0.603147,0"/>
<path d="m 23.246279,38.013943 c -0.360218,0.55289 -0.69111,1.072266 -0.992679,1.558129 -0.301577,0.485872 -0.582208,0.950797 -0.841892,1.394776 -0.259692,0.435609 -0.506814,0.858649 -0.741368,1.269121 -0.226183,0.4021 -0.443985,0.800009 -0.653409,1.193728 l 3.342438,0 0,1.281687 -5.126747,0 0,-0.892155 c 0.184294,-0.360211 0.381155,-0.737177 0.590581,-1.1309 0.209425,-0.402095 0.443982,-0.829323 0.703672,-1.281686 0.259686,-0.452357 0.540316,-0.942413 0.841892,-1.47017 0.309947,-0.527748 0.649217,-1.101575 1.01781,-1.721481 l -2.990602,0 0,-1.281687 4.850304,0 0,1.080638"/>
<path d="m 24.615925,44.711384 0,-1.281687 1.69635,0 0,-5.214705 -1.69635,0 0,-1.281687 4.938263,0 0,1.281687 -1.683785,0 0,5.214705 1.683785,0 0,1.281687 -4.938263,0"/>
<path d="m 33.034847,36.845346 c 0.988486,8e-6 1.754985,0.205245 2.299497,0.615712 0.544501,0.402105 0.816755,1.06389 0.816761,1.985358 -6e-6,0.929855 -0.276448,1.604206 -0.829327,2.023054 -0.544512,0.410478 -1.319387,0.615715 -2.324628,0.615713 l -0.552884,0 0,2.626201 -1.545564,0 0,-7.677555 c 0.150786,-0.0335 0.318327,-0.06282 0.502623,-0.08796 0.19267,-0.02512 0.385342,-0.04188 0.578015,-0.05026 0.19267,-0.01675 0.381153,-0.02931 0.56545,-0.0377 0.184292,-0.0084 0.347645,-0.01256 0.490057,-0.01257 m 0.175918,1.344514 c -0.09215,7e-6 -0.221995,0.0042 -0.389533,0.01257 -0.159166,7e-6 -0.284821,0.0084 -0.376966,0.02513 l 0,2.513111 0.628278,0 c 0.494241,4e-6 0.867019,-0.09633 1.118334,-0.289008 0.251307,-0.201044 0.376962,-0.540314 0.376967,-1.01781 -5e-6,-0.452354 -0.12566,-0.770681 -0.376967,-0.954982 -0.242938,-0.192665 -0.569642,-0.289001 -0.980113,-0.289008"/>
</g>
</g>
</svg>
