<svg width="48" xmlns="http://www.w3.org/2000/svg" viewBox="0 0 48 48" height="48">
<path style="fill:#39a34f" d="M 8,1 C 6.9714285,1 6,1.9714285 6,3 l 0,42 c 0,0.971429 1.0285714,2 2,2 l 32,0 c 0.971429,0 2,-1.028571 2,-2 L 42,14 29,1 z"/>
<path style="fill-opacity:.196" d="M 29,12 29.0625,12.0625 29.21875,12 29,12 z m 2,2 11,11 0,-11 -11,0 z"/>
<path style="fill:#fff;fill-opacity:.392" d="m 29,1 13,13 -11,0 c -0.971429,0 -2,-1.028571 -2,-2 L 29,1 z"/>
<path style="fill-opacity:.196" d="m 6,35 0,10 c 0,0.971429 1.0285714,2 2,2 l 32,0 c 0.971429,0 2,-1.028571 2,-2 l 0,-10 z"/>
<g style="fill:#fff">
<g>
<path style="line-height:normal;color:#000" d="m 17.035431,16 c -0.563237,0.054 -1.045319,0.64805 -1.035277,1.28125 l 0,8.5625 0,0.03125 0,0.53125 0,0.03125 0,4.3125 c 0.0061,0.663 0.537592,1.2595 1.129393,1.25 l 13.772329,0 c 0.582514,-0.01 1.091927,-0.5974 1.098021,-1.25 l 0,-13.46875 C 32.00833,16.61825 31.493691,16.0069 30.901876,16 l -13.772329,0 -0.09412,0 z m 0.972534,2 11.984121,0 0,8.59375 c -0.08675,-0.104187 -0.129019,-0.140372 -0.219604,-0.25 -0.891777,-1.0689 -1.911389,-2.3394 -3.137205,-3.875 -0.245245,0.243 -0.542771,0.53615 -0.941161,0.90625 -0.404521,0.3701 -0.885282,0.8154 -1.443114,1.3125 -0.07048,0.0774 -0.354382,-0.2177 -0.878417,-0.875 -0.536378,-0.6601 -1.272006,-1.6677 -2.258788,-3.0625 -1.323503,1.372187 -2.278193,2.354408 -3.105832,3.1875 l 0,-5.9375 z"/>
</g>
<g style="word-spacing:0;line-height:125%;letter-spacing:0" transform="scale(1.06683 .93736)">
<path d="m 15.368952,39.565176 c 1.039302,8e-6 1.845203,0.215796 2.417707,0.647364 0.572493,0.422776 0.858742,1.118581 0.858748,2.087419 -6e-6,0.977656 -0.290659,1.686674 -0.871959,2.127053 -0.572504,0.43158 -1.387213,0.647367 -2.44413,0.647365 l -0.581307,0 0,2.761206 -1.625016,0 0,-8.072234 c 0.158538,-0.03522 0.334691,-0.06605 0.528461,-0.09248 0.202575,-0.02642 0.405151,-0.04403 0.607729,-0.05285 0.202575,-0.01761 0.400747,-0.03082 0.594518,-0.03964 0.193767,-0.0088 0.365516,-0.0132 0.515249,-0.01321 m 0.184962,1.413632 c -0.09689,7e-6 -0.233407,0.0044 -0.409557,0.01321 -0.167349,7e-6 -0.299464,0.0088 -0.396346,0.02642 l 0,2.642303 0.660576,0 c 0.519649,4e-6 0.91159,-0.101284 1.175825,-0.303865 0.264225,-0.21138 0.39634,-0.56809 0.396345,-1.070133 -5e-6,-0.475608 -0.13212,-0.810299 -0.396345,-1.004074 -0.255427,-0.20257 -0.598926,-0.303858 -1.030498,-0.303865"/>
<path d="m 22.080401,46.646547 c 0.273034,1e-6 0.49763,-0.02642 0.673787,-0.07927 0.184957,-0.06165 0.330284,-0.140922 0.43598,-0.237808 0.105688,-0.10569 0.176149,-0.22019 0.211384,-0.343499 0.04403,-0.132113 0.06605,-0.264228 0.06606,-0.396345 -5e-6,-0.167344 -0.04845,-0.317074 -0.145327,-0.449192 -0.09689,-0.132112 -0.220196,-0.246612 -0.369922,-0.343499 -0.149735,-0.105689 -0.31708,-0.19817 -0.502038,-0.277442 -0.184964,-0.08807 -0.369925,-0.167342 -0.554883,-0.237807 -0.246618,-0.08807 -0.50204,-0.189361 -0.766268,-0.303865 -0.264232,-0.114496 -0.506443,-0.259822 -0.726633,-0.43598 -0.211386,-0.176149 -0.387539,-0.391937 -0.528461,-0.647364 -0.140923,-0.264225 -0.211385,-0.590109 -0.211384,-0.977652 -10e-7,-0.766261 0.246614,-1.365182 0.739845,-1.796766 0.502035,-0.431568 1.189033,-0.647355 2.060996,-0.647364 0.502033,9e-6 0.938013,0.05726 1.307939,0.17175 0.378725,0.114508 0.695801,0.242219 0.951229,0.383134 l -0.475614,1.255094 c -0.220197,-0.123301 -0.466812,-0.228993 -0.739845,-0.317077 -0.264234,-0.08807 -0.572503,-0.132108 -0.924806,-0.132115 -0.863155,7e-6 -1.29473,0.312679 -1.294728,0.938017 -2e-6,0.158545 0.04404,0.299467 0.132115,0.422769 0.08807,0.114505 0.19817,0.220197 0.330288,0.317076 0.14092,0.08808 0.295054,0.167351 0.462403,0.237807 0.17615,0.07047 0.347899,0.136524 0.515249,0.198173 0.255418,0.09689 0.519648,0.206985 0.792691,0.330288 0.28184,0.114504 0.537263,0.273042 0.766267,0.475614 0.237802,0.193773 0.431571,0.440388 0.581307,0.739845 0.149724,0.290656 0.22459,0.660578 0.224596,1.109767 -6e-6,0.766269 -0.251025,1.360787 -0.753057,1.783554 -0.493234,0.413961 -1.24629,0.620941 -2.259168,0.620941 -0.678194,0 -1.219865,-0.07046 -1.625016,-0.211384 -0.405154,-0.14973 -0.709019,-0.286249 -0.911595,-0.409557 l 0.475615,-1.321151 c 0.237806,0.140924 0.519651,0.273039 0.845537,0.396345 0.334689,0.123309 0.739842,0.184963 1.215459,0.184962"/>
<path d="m 27.959524,46.514431 c 0.04404,0.0088 0.09248,0.01321 0.145326,0.01321 0.05284,1e-6 0.101286,1e-6 0.145327,0 0.369919,1e-6 0.678188,-0.07046 0.924806,-0.211384 0.255419,-0.140921 0.457995,-0.33469 0.60773,-0.581307 0.158533,-0.246612 0.268629,-0.537265 0.330287,-0.87196 0.07046,-0.343496 0.105688,-0.717821 0.105692,-1.122978 -4e-6,-0.352303 -0.02643,-0.695802 -0.07927,-1.030498 -0.05285,-0.334686 -0.145331,-0.629743 -0.277441,-0.885171 -0.13212,-0.255417 -0.312677,-0.457993 -0.541672,-0.60773 -0.229003,-0.158531 -0.52406,-0.2378 -0.885172,-0.237807 -0.07046,7e-6 -0.149733,0.0044 -0.237807,0.01321 -0.08808,7e-6 -0.167348,0.0088 -0.237807,0.02642 l 0,5.495989 m 3.910608,-2.774417 c -7e-6,0.757463 -0.09689,1.404827 -0.290654,1.942092 -0.184967,0.528462 -0.444793,0.960038 -0.779479,1.294728 -0.334696,0.334693 -0.735445,0.581307 -1.202248,0.739845 -0.458002,0.149731 -0.964443,0.224596 -1.519324,0.224596 -0.290655,0 -0.576904,-0.01762 -0.858748,-0.05285 -0.273039,-0.02642 -0.568096,-0.07487 -0.885171,-0.145327 l 0,-7.979753 c 0.369921,-0.07926 0.717824,-0.132107 1.043709,-0.158539 0.325882,-0.02641 0.629747,-0.03963 0.911595,-0.03963 0.537265,8e-6 1.02609,0.07928 1.466478,0.237807 0.449186,0.158546 0.827916,0.409565 1.13619,0.753056 0.308263,0.334699 0.54607,0.766275 0.713421,1.294729 0.176148,0.519658 0.264224,1.149406 0.264231,1.889246"/>
</g>
</g>
</svg>
