<svg width="48" xmlns="http://www.w3.org/2000/svg" viewBox="0 0 48 48" height="48">
<path style="fill:#39a34f" d="M 8,1 C 6.9714285,1 6,1.9714285 6,3 l 0,42 c 0,0.971429 1.0285714,2 2,2 l 32,0 c 0.971429,0 2,-1.028571 2,-2 L 42,14 29,1 z"/>
<path style="fill-opacity:.196" d="M 29,12 29.0625,12.0625 29.21875,12 29,12 z m 2,2 11,11 0,-11 -11,0 z"/>
<path style="fill:#fff;fill-opacity:.392" d="m 29,1 13,13 -11,0 c -0.971429,0 -2,-1.028571 -2,-2 L 29,1 z"/>
<path style="fill-opacity:.196" d="m 6,35 0,10 c 0,0.971429 1.0285714,2 2,2 l 32,0 c 0.971429,0 2,-1.028571 2,-2 l 0,-10 z"/>
<g style="fill:#fff">
<g>
<path style="line-height:normal;color:#000" d="m 17.035431,16 c -0.563237,0.054 -1.045319,0.64805 -1.035277,1.28125 l 0,8.5625 0,0.03125 0,0.53125 0,0.03125 0,4.3125 c 0.0061,0.663 0.537592,1.2595 1.129393,1.25 l 13.772329,0 c 0.582514,-0.01 1.091927,-0.5974 1.098021,-1.25 l 0,-13.46875 C 32.00833,16.61825 31.493691,16.0069 30.901876,16 l -13.772329,0 -0.09412,0 z m 0.972534,2 11.984121,0 0,8.59375 c -0.08675,-0.104187 -0.129019,-0.140372 -0.219604,-0.25 -0.891777,-1.0689 -1.911389,-2.3394 -3.137205,-3.875 -0.245245,0.243 -0.542771,0.53615 -0.941161,0.90625 -0.404521,0.3701 -0.885282,0.8154 -1.443114,1.3125 -0.07048,0.0774 -0.354382,-0.2177 -0.878417,-0.875 -0.536378,-0.6601 -1.272006,-1.6677 -2.258788,-3.0625 -1.323503,1.372187 -2.278193,2.354408 -3.105832,3.1875 l 0,-5.9375 z"/>
</g>
<g style="word-spacing:0;line-height:125%;letter-spacing:0" transform="scale(1.05725 .94585)">
<path d="m 18.77831,44.974692 c -6e-6,0.498053 -0.0845,0.91606 -0.253472,1.254021 -0.168988,0.329071 -0.400226,0.595884 -0.693714,0.80044 -0.284606,0.195663 -0.627016,0.337963 -1.027231,0.426901 -0.39133,0.08004 -0.813784,0.120066 -1.267363,0.120066 -0.364647,0 -0.742632,-0.02224 -1.133956,-0.0667 -0.391327,-0.03558 -0.778206,-0.09338 -1.160637,-0.173429 l 0,-8.017735 c 0.311281,-0.05335 0.653691,-0.09782 1.027231,-0.133407 0.373536,-0.04446 0.742627,-0.0667 1.107274,-0.0667 0.622561,8e-6 1.129506,0.06671 1.520835,0.20011 0.391322,0.12452 0.698157,0.293502 0.920506,0.506945 0.222339,0.204564 0.373533,0.435802 0.453582,0.693714 0.08004,0.257926 0.12006,0.515845 0.120066,0.773758 -6e-6,0.391332 -0.09784,0.738188 -0.293494,1.040571 -0.186775,0.302393 -0.440247,0.542525 -0.760418,0.720396 0.560302,0.204561 0.938287,0.480267 1.133956,0.827121 0.204551,0.34686 0.306829,0.711504 0.306835,1.093934 m -3.895472,-1.120616 0,2.241231 c 0.115617,0.01779 0.240129,0.03113 0.373539,0.04002 0.142297,0.0089 0.28015,0.01334 0.41356,0.01334 0.186766,10e-7 0.369088,-0.01334 0.546967,-0.04002 0.177871,-0.03557 0.333512,-0.09338 0.466923,-0.173429 0.142296,-0.08894 0.257915,-0.209002 0.346857,-0.360198 0.08893,-0.160086 0.133402,-0.360195 0.133407,-0.600329 -5e-6,-0.400217 -0.128965,-0.684818 -0.386879,-0.853803 -0.24903,-0.177871 -0.586993,-0.266809 -1.01389,-0.266813 l -0.880484,0 m 0.640352,-1.360747 c 0.418004,5e-6 0.733732,-0.08893 0.947186,-0.266813 0.213447,-0.186764 0.320172,-0.440236 0.320176,-0.760418 -4e-6,-0.195656 -0.03113,-0.351297 -0.09338,-0.466923 -0.06226,-0.124506 -0.146752,-0.21789 -0.253473,-0.280153 -0.106729,-0.07114 -0.231242,-0.115613 -0.373538,-0.133407 -0.142304,-0.02667 -0.289051,-0.04001 -0.440242,-0.04002 -0.124516,7e-6 -0.253475,0.0045 -0.386879,0.01334 -0.133409,0.0089 -0.253475,0.02224 -0.360198,0.04002 l 0,1.894373 0.640352,0"/>
<path d="m 21.339717,39.211527 c 0.06225,0.186778 0.137851,0.426909 0.226791,0.720396 0.09783,0.293502 0.200107,0.60923 0.306835,0.947187 0.106722,0.337969 0.213448,0.680379 0.320176,1.02723 0.106722,0.346863 0.209,0.667038 0.306835,0.960528 0.106722,-0.329065 0.217894,-0.667028 0.333516,-1.01389 0.115616,-0.355745 0.226788,-0.693708 0.333517,-1.01389 0.106721,-0.329063 0.204552,-0.635898 0.293494,-0.920506 0.08893,-0.284593 0.168978,-0.520277 0.240132,-0.707055 l 1.360747,0 c 0.06225,0.720403 0.12006,1.423011 0.173429,2.107824 0.06225,0.684826 0.111166,1.365199 0.146747,2.041121 0.04446,0.667036 0.08004,1.342962 0.106725,2.02778 0.02668,0.675928 0.04891,1.369642 0.0667,2.081143 l -1.507495,0 0.08004,-6.416857 -1.01389,3.495253 -1.200659,0 -0.973868,-3.495253 0.0667,6.416857 -1.507494,0 c 0.02668,-0.675926 0.05336,-1.378534 0.08004,-2.107824 0.03557,-0.729287 0.07115,-1.454128 0.106725,-2.174528 0.03558,-0.72039 0.0756,-1.418551 0.120066,-2.094483 0.05336,-0.67592 0.111171,-1.30293 0.173429,-1.881033 l 1.360747,0"/>
<path d="m 28.850507,39.118143 c 1.049461,8e-6 1.863241,0.217905 2.441341,0.653692 0.578089,0.426908 0.867136,1.129516 0.867142,2.107824 -6e-6,0.987213 -0.2935,1.703161 -0.880483,2.147846 -0.5781,0.435798 -1.400773,0.653695 -2.468022,0.653692 l -0.586989,0 0,2.788198 -1.640901,0 0,-8.151142 c 0.160087,-0.03557 0.337963,-0.0667 0.533627,-0.09338 0.204555,-0.02667 0.409112,-0.04446 0.61367,-0.05336 0.204555,-0.01778 0.404664,-0.03112 0.60033,-0.04002 0.19566,-0.0089 0.369088,-0.01333 0.520285,-0.01334 m 0.186769,1.42745 c -0.09783,7e-6 -0.235687,0.0045 -0.41356,0.01334 -0.168984,7e-6 -0.302391,0.0089 -0.40022,0.02668 l 0,2.668132 0.667033,0 c 0.524729,4e-6 0.920502,-0.102274 1.187319,-0.306835 0.266808,-0.213446 0.400215,-0.573644 0.40022,-1.080594 -5e-6,-0.480257 -0.133412,-0.81822 -0.40022,-1.01389 -0.257924,-0.20455 -0.60478,-0.306828 -1.040572,-0.306835"/>
</g>
</g>
</svg>
