<svg width="48" xmlns="http://www.w3.org/2000/svg" viewBox="0 0 48 48" height="48">
<path style="fill:#ff6501" d="M 8,1 C 6.9714285,1 6,1.9714285 6,3 l 0,42 c 0,0.971429 1.0285714,2 2,2 l 32,0 c 0.971429,0 2,-1.028571 2,-2 L 42,14 29,1 z"/>
<path style="fill-opacity:.196" d="M 29,12 29.0625,12.0625 29.21875,12 29,12 z m 2,2 11,11 0,-11 -11,0 z"/>
<path style="fill:#fff;fill-opacity:.392" d="m 29,1 13,13 -11,0 c -0.971429,0 -2,-1.028571 -2,-2 L 29,1 z"/>
<path style="fill:#fff" d="m 14.12667,31.803666 c 0,-0.613906 0.212043,-1.129304 0.636077,-1.546193 0.42406,-0.42442 0.942774,-0.636656 1.556157,-0.63667 0.598209,1.6e-5 1.105564,0.212238 1.522023,0.63667 0.424048,0.416877 0.636077,0.932274 0.636077,1.546193 0,0.59879 -0.212029,1.110388 -0.636077,1.534862 -0.416485,0.416877 -0.923826,0.625314 -1.522023,0.625301 -0.613357,1.3e-5 -1.132071,-0.208424 -1.556157,-0.625301 -0.424034,-0.416849 -0.636077,-0.928461 -0.636077,-1.534862 m -0.126669,-9.857458 0,3.631372 c 4.640472,0 8.409465,3.774781 8.409465,8.42242 l 3.644725,0 c 0,-6.657382 -5.407152,-12.053792 -12.05419,-12.053792 z m 0.0062,-7.945808 0,4.014022 c 8.810672,0 15.964252,7.160383 15.964252,15.979048 l 4.029546,0 C 34.000048,22.953811 25.034574,14 14.006401,14 z"/>
</svg>
