<?xml version="1.0" encoding="UTF-8" standalone="no"?>
<svg
   xmlns:dc="http://purl.org/dc/elements/1.1/"
   xmlns:cc="http://creativecommons.org/ns#"
   xmlns:rdf="http://www.w3.org/1999/02/22-rdf-syntax-ns#"
   xmlns:svg="http://www.w3.org/2000/svg"
   xmlns="http://www.w3.org/2000/svg"
   xmlns:sodipodi="http://sodipodi.sourceforge.net/DTD/sodipodi-0.dtd"
   xmlns:inkscape="http://www.inkscape.org/namespaces/inkscape"
   width="48"
   viewBox="0 0 48 48"
   height="48"
   id="svg2"
   version="1.1"
   inkscape:version="0.91 r13725"
   sodipodi:docname="test6.svg">
  <metadata
     id="metadata36">
    <rdf:RDF>
      <cc:Work
         rdf:about="">
        <dc:format>image/svg+xml</dc:format>
        <dc:type
           rdf:resource="http://purl.org/dc/dcmitype/StillImage" />
        <dc:title />
      </cc:Work>
    </rdf:RDF>
  </metadata>
  <defs
     id="defs34" />
  <sodipodi:namedview
     pagecolor="#ffffff"
     bordercolor="#666666"
     borderopacity="1"
     objecttolerance="10"
     gridtolerance="10"
     guidetolerance="10"
     inkscape:pageopacity="0"
     inkscape:pageshadow="2"
     inkscape:window-width="1366"
     inkscape:window-height="713"
     id="namedview32"
     showgrid="false"
     inkscape:zoom="8"
     inkscape:cx="19.295679"
     inkscape:cy="24"
     inkscape:window-x="0"
     inkscape:window-y="28"
     inkscape:window-maximized="1"
     inkscape:current-layer="svg2">
    <inkscape:grid
       type="xygrid"
       id="grid3346" />
  </sodipodi:namedview>
  <path
     style="fill:#98b3d0;fill-opacity:1"
     d="M 8,1 C 6.9714285,1 6,1.9714285 6,3 l 0,42 c 0,0.971429 1.0285714,2 2,2 l 32,0 c 0.971429,0 2,-1.028571 2,-2 L 42,14 29,1 z"
     id="path4" />
  <path
     style="fill-opacity:.196"
     d="M 29,12 29.0625,12.0625 29.21875,12 29,12 z m 2,2 11,11 0,-11 -11,0 z"
     id="path6" />
  <path
     style="fill:#fff;fill-opacity:.392"
     d="m 29,1 13,13 -11,0 c -0.971429,0 -2,-1.028571 -2,-2 L 29,1 z"
     id="path8" />
  <g
     style="fill:#fff;line-height:normal;color:#000"
     transform="matrix(.81817 0 0 .81817 4.36383 7.36392)"
     id="g10" />
  <g
     style="stroke:#fff;fill:none"
     id="g20">
    <g
       style="stroke-width:2"
       transform="matrix(.81817 0 0 .81817 4.36383 7.36392)"
       id="g22" />
    <g
       transform="matrix(.81817 0 0 .81817 4.36383 7.36392)"
       id="g28" />
  </g>
  <path
     inkscape:connector-curvature="0"
     style="fill:#ffffff;fill-opacity:1;fill-rule:nonzero;stroke:none"
     d="m 18,18 0,18 3.0024,0 0,-6 1.9976,0 3.6,6 3.4,0 C 28.710256,33.76456 27.44598,31.856154 26.1324,29.636666 28.698874,28.777984 30,26.674252 30,24 30,20.530636 27.3096,18 23.9952,18 m -2.9976,2.999998 2.9976,0 C 26,20.999998 27,22.33215 27,24 c 0,1.66785 -1.092302,3 -3.0048,3 l -2.9976,0"
     id="path65"
     sodipodi:nodetypes="ccccccccsccszcc" />
</svg>
