<?xml version="1.0" encoding="UTF-8" standalone="no"?>
<svg
   xmlns:dc="http://purl.org/dc/elements/1.1/"
   xmlns:cc="http://creativecommons.org/ns#"
   xmlns:rdf="http://www.w3.org/1999/02/22-rdf-syntax-ns#"
   xmlns:svg="http://www.w3.org/2000/svg"
   xmlns="http://www.w3.org/2000/svg"
   xmlns:sodipodi="http://sodipodi.sourceforge.net/DTD/sodipodi-0.dtd"
   xmlns:inkscape="http://www.inkscape.org/namespaces/inkscape"
   width="48"
   viewBox="0 0 48 48"
   height="48"
   id="svg2"
   version="1.1"
   inkscape:version="0.91 r13725"
   sodipodi:docname="text-x-vcard.svg">
  <metadata
     id="metadata18">
    <rdf:RDF>
      <cc:Work
         rdf:about="">
        <dc:format>image/svg+xml</dc:format>
        <dc:type
           rdf:resource="http://purl.org/dc/dcmitype/StillImage" />
        <dc:title />
      </cc:Work>
    </rdf:RDF>
  </metadata>
  <defs
     id="defs16" />
  <sodipodi:namedview
     pagecolor="#ffffff"
     bordercolor="#666666"
     borderopacity="1"
     objecttolerance="10"
     gridtolerance="10"
     guidetolerance="10"
     inkscape:pageopacity="0"
     inkscape:pageshadow="2"
     inkscape:window-width="1366"
     inkscape:window-height="704"
     id="namedview14"
     showgrid="true"
     inkscape:zoom="22.627417"
     inkscape:cx="24"
     inkscape:cy="17.535534"
     inkscape:window-x="0"
     inkscape:window-y="27"
     inkscape:window-maximized="1"
     inkscape:current-layer="svg2">
    <inkscape:grid
       type="xygrid"
       id="grid2995" />
  </sodipodi:namedview>
  <path
     style="fill:#dcdcdc"
     d="M 8,1 C 6.9714285,1 6,1.9714285 6,3 l 0,42 c 0,0.971429 1.0285714,2 2,2 l 32,0 c 0.971429,0 2,-1.028571 2,-2 L 42,14 29,1 z"
     id="path4" />
  <path
     style="fill-opacity:.196"
     d="M 29,12 29.0625,12.0625 29.21875,12 29,12 z m 2,2 11,11 0,-11 -11,0 z"
     id="path6" />
  <path
     style="fill:#fff;fill-opacity:.392"
     d="m 29,1 13,13 -11,0 c -0.971429,0 -2,-1.028571 -2,-2 L 29,1 z"
     id="path8" />
  <g
     transform="scale(1.0078875,0.99217427)"
     style="font-size:25.28473091px;line-height:125%;font-family:'Ubuntu Mono';letter-spacing:0;word-spacing:0;fill:#888888"
     id="text10">
    <path
       d="m 33.733924,27.12974 q 0,1.775362 -0.558971,3.25483 -0.558972,1.467138 -1.579702,2.305503 -1.02073,0.838366 -2.369553,0.838366 -0.899214,0 -1.591853,-0.431512 -0.692639,-0.44384 -0.996428,-1.158916 l -0.194425,0 q -1.312367,1.590428 -3.341676,1.590428 -2.150825,0 -3.390283,-1.306863 -1.239459,-1.319192 -1.239459,-3.600038 0,-2.601398 1.628308,-4.191826 1.628308,-1.590428 4.253044,-1.590428 1.045033,0 2.296643,0.209592 1.263762,0.197262 2.077916,0.480826 l -0.279487,6.028831 q 0,1.713718 0.923519,1.713718 0.777699,0 1.239458,-1.146588 0.461759,-1.158917 0.461759,-3.02058 0,-1.984952 -0.814154,-3.501408 -0.814154,-1.528783 -2.296643,-2.330161 -1.470338,-0.801379 -3.365981,-0.801379 -2.454613,0 -4.265194,1.023299 -1.810582,1.023299 -2.782705,2.958935 -0.959973,1.923309 -0.959973,4.450733 0,3.402776 1.786279,5.227454 1.798429,1.812347 5.200863,1.812347 1.288065,0 2.831312,-0.283564 1.543247,-0.295894 3.037888,-0.850694 l 0,2.367148 q -2.600432,1.12193 -5.771987,1.12193 -4.61759,0 -7.205871,-2.46578 -2.576129,-2.465779 -2.576129,-6.854868 0,-3.045237 1.312368,-5.523346 1.32452,-2.490438 3.75483,-3.895932 2.442462,-1.417823 5.614017,-1.417823 2.673341,0 4.77556,1.1096 2.102218,1.109601 3.244464,3.156198 1.142246,2.046597 1.142246,4.721968 z m -12.443189,1.541113 q 0,2.601398 2.090066,2.601398 1.093641,0 1.664764,-0.776721 0.571122,-0.78905 0.692638,-2.552082 l 0.15797,-2.724687 q -0.619729,-0.135618 -1.397428,-0.135618 -1.518945,0 -2.369553,0.961654 -0.838457,0.961655 -0.838457,2.626056 z"
       style="font-weight:bold;font-family:'Open Sans'"
       id="path4195"
       inkscape:connector-curvature="0" />
  </g>
</svg>
