<svg width="48" xmlns="http://www.w3.org/2000/svg" viewBox="0 0 48 48" height="48">
<path style="fill:#3468ce" d="M 8 1 C 6.9714285 1 6 1.9714285 6 3 L 6 14 L 6 45 C 6 45.971429 7.0285714 47 8 47 L 40 47 C 40.971429 47 42 45.971429 42 45 L 42 14 L 42 3 C 42 1.9714285 41.028571 1 40 1 L 29 1 L 19 1 L 8 1 z "/>
<g style="fill:#fff">
<g transform="translate(-.5 -1)">
<rect width="8" x="16" y="17" rx=".579" height="7" ry=".601"/>
</g>
<g style="stroke:#fff;stroke-linejoin:round;stroke-linecap:round;stroke-dashoffset:.774" transform="translate(-.5 -1)">
<path d="m 26.5,17.5 5,0"/>
<path d="m 26.5,20.5 5,0"/>
<path d="m 26.5,23.5 5,0"/>
<path d="m 16,26.5 16,0"/>
<path d="m 16,29.5 16,0"/>
<path d="m 16,32.5 16,0"/>
</g>
</g>
<path style="fill-opacity:.196" d="m 6.0000005,35 0,10 c 0,0.971429 1.028571,2 2,2 L 40,47 c 0.971429,0 2,-1.028571 2,-2 l 0,-10 z"/>
<g style="fill:#fff;word-spacing:0;line-height:125%;letter-spacing:0" transform="scale(1.03818 .96322)">
<path d="m 17.107131,41.411226 c 0.03538,0.16806 0.08845,0.375918 0.15921,0.623573 0.07076,0.247665 0.145938,0.52186 0.225548,0.822586 0.08845,0.300734 0.181318,0.623576 0.278617,0.968528 0.106136,0.344958 0.207853,0.698758 0.305153,1.061401 -5e-6,-0.459938 -0.0044,-0.950835 -0.01327,-1.472694 -0.0088,-0.530696 -0.01769,-1.070241 -0.02653,-1.618636 -0.0088,-0.548385 -0.01769,-1.101198 -0.02653,-1.658439 -0.0089,-0.566074 -0.01327,-1.110041 -0.01327,-1.631905 l 1.512497,0 c -0.02654,0.672229 -0.05308,1.366561 -0.07961,2.083 -0.02654,0.707606 -0.0575,1.415206 -0.09287,2.122802 -0.03539,0.698759 -0.07961,1.388669 -0.132675,2.069732 -0.04423,0.681067 -0.0973,1.326752 -0.15921,1.937057 l -1.353287,0 C 17.49631,46.160996 17.30172,45.563959 17.107134,44.927117 16.91254,44.281434 16.71795,43.666706 16.523363,43.082933 c -0.194593,0.557238 -0.398028,1.163121 -0.610305,1.817649 -0.212283,0.654532 -0.406873,1.260414 -0.583771,1.817649 l -1.353286,0 c -0.07076,-0.610305 -0.132676,-1.25599 -0.185745,-1.937057 -0.05307,-0.689908 -0.101719,-1.38424 -0.145943,-2.082999 -0.03538,-0.707596 -0.06634,-1.415196 -0.09287,-2.122802 -0.02653,-0.716439 -0.04865,-1.406349 -0.06634,-2.069733 l 1.512496,0 c -0.0088,0.521864 -0.01769,1.061409 -0.02653,1.618637 -0.0088,0.557242 -0.01769,1.114477 -0.02654,1.671707 -0.0088,0.548395 -0.01769,1.08794 -0.02653,1.618636 -0.0088,0.521859 -0.01327,1.012756 -0.01327,1.472694 0.0796,-0.283038 0.168053,-0.592613 0.26535,-0.928726 0.106138,-0.336107 0.203433,-0.667794 0.291885,-0.995063 0.09729,-0.327261 0.185743,-0.627991 0.26535,-0.902191 0.0796,-0.27419 0.141518,-0.490893 0.185746,-0.650108 l 1.194076,0"/>
<path d="m 22.785627,38.412768 c 1.043707,8e-6 1.853024,0.216711 2.427954,0.650108 0.57492,0.424568 0.862383,1.123323 0.862389,2.096267 -6e-6,0.981801 -0.291891,1.693823 -0.875656,2.13607 -0.57493,0.433408 -1.393093,0.650111 -2.45449,0.650108 l -0.583771,0 0,2.77291 -1.631904,0 0,-8.10645 c 0.15921,-0.03537 0.33611,-0.06633 0.530701,-0.09287 0.203434,-0.02653 0.406869,-0.04422 0.610305,-0.05307 0.203434,-0.01768 0.402446,-0.03095 0.597038,-0.0398 0.194588,-0.0088 0.367066,-0.01326 0.517434,-0.01327 m 0.185745,1.419624 c -0.0973,7e-6 -0.234396,0.0044 -0.411293,0.01327 -0.168058,7e-6 -0.300733,0.0089 -0.398026,0.02654 l 0,2.653503 0.663376,0 c 0.521852,4e-6 0.915455,-0.101713 1.180809,-0.305153 0.265346,-0.212275 0.398021,-0.570498 0.398025,-1.074668 -4e-6,-0.477625 -0.132679,-0.813735 -0.398025,-1.008331 -0.256509,-0.203429 -0.601464,-0.305146 -1.034866,-0.305153"/>
<path d="m 32.749529,38.50564 0,1.353287 -2.162605,0 0,6.859304 -1.645171,0 0,-6.859304 -2.162605,0 0,-1.353287 5.970381,0"/>
</g>
</svg>
