<?xml version="1.0" encoding="UTF-8" standalone="no"?>
<svg
   xmlns:dc="http://purl.org/dc/elements/1.1/"
   xmlns:cc="http://creativecommons.org/ns#"
   xmlns:rdf="http://www.w3.org/1999/02/22-rdf-syntax-ns#"
   xmlns:svg="http://www.w3.org/2000/svg"
   xmlns="http://www.w3.org/2000/svg"
   xmlns:sodipodi="http://sodipodi.sourceforge.net/DTD/sodipodi-0.dtd"
   xmlns:inkscape="http://www.inkscape.org/namespaces/inkscape"
   width="48"
   viewBox="0 0 48 48"
   height="48"
   id="svg3015"
   version="1.1"
   inkscape:version="0.48.5 r10040"
   sodipodi:docname="wps-office-dpt.svg">
  <metadata
     id="metadata3047">
    <rdf:RDF>
      <cc:Work
         rdf:about="">
        <dc:format>image/svg+xml</dc:format>
        <dc:type
           rdf:resource="http://purl.org/dc/dcmitype/StillImage" />
      </cc:Work>
    </rdf:RDF>
  </metadata>
  <defs
     id="defs3045" />
  <sodipodi:namedview
     pagecolor="#ffffff"
     bordercolor="#666666"
     borderopacity="1"
     objecttolerance="10"
     gridtolerance="10"
     guidetolerance="10"
     inkscape:pageopacity="0"
     inkscape:pageshadow="2"
     inkscape:window-width="1280"
     inkscape:window-height="970"
     id="namedview3043"
     showgrid="false"
     inkscape:zoom="9.8333333"
     inkscape:cx="40.770291"
     inkscape:cy="23.078458"
     inkscape:window-x="0"
     inkscape:window-y="0"
     inkscape:window-maximized="1"
     inkscape:current-layer="svg3015" />
  <path
     style="fill:#d24726"
     d="M 8 1 C 6.9714285 1 6 1.9714285 6 3 L 6 14 L 6 45 C 6 45.971429 7.0285714 47 8 47 L 40 47 C 40.971429 47 42 45.971429 42 45 L 42 14 L 42 3 C 42 1.9714285 41.028571 1 40 1 L 29 1 L 19 1 L 8 1 z "
     id="path3017" />
  <path
     style="fill-opacity:.196"
     d="m 6,35 0,10 c 0,0.971429 1.028571,2 2,2 l 32,0 c 0.971429,0 2,-1.028571 2,-2 l 0,-10 z"
     id="path3033" />
  <g
     style="fill:#fff;word-spacing:0;line-height:125%;letter-spacing:0"
     transform="scale(1.05613 .94685)"
     id="g3035">
    <path
       d="m 14.895105,46.086605 c 0.04442,0.0089 0.09328,0.01333 0.146592,0.01333 0.0533,10e-7 0.102168,10e-7 0.146593,0 0.37314,10e-7 0.684093,-0.07107 0.932859,-0.213225 0.257643,-0.142149 0.461984,-0.337605 0.613022,-0.586369 0.159915,-0.248761 0.270969,-0.541945 0.333165,-0.879554 0.07107,-0.346487 0.106607,-0.724073 0.106612,-1.132758 -5e-6,-0.355371 -0.02666,-0.701861 -0.07996,-1.039472 -0.05331,-0.337601 -0.146597,-0.635228 -0.279858,-0.89288 -0.13327,-0.257641 -0.3154,-0.461982 -0.546389,-0.613022 -0.230998,-0.159912 -0.528624,-0.239872 -0.892881,-0.239879 -0.07108,7e-6 -0.151037,0.0044 -0.239878,0.01333 -0.08885,7e-6 -0.168805,0.0089 -0.239878,0.02665 l 0,5.543852 m 3.944664,-2.798579 c -6e-6,0.76406 -0.09773,1.417061 -0.293184,1.959005 -0.186578,0.533065 -0.448667,0.968399 -0.786268,1.306004 -0.337611,0.337607 -0.74185,0.586369 -1.212718,0.746288 -0.461991,0.151034 -0.972842,0.226551 -1.532555,0.226551 -0.293187,0 -0.581929,-0.01777 -0.866227,-0.05331 -0.275417,-0.02665 -0.573043,-0.07552 -0.89288,-0.146592 l 0,-8.049247 c 0.373143,-0.07995 0.724076,-0.133257 1.052799,-0.159919 0.32872,-0.02665 0.635231,-0.03997 0.919533,-0.03998 0.541944,8e-6 1.035027,0.07997 1.479249,0.239878 0.453099,0.159927 0.835127,0.413131 1.146085,0.759614 0.310948,0.337614 0.550826,0.772948 0.719635,1.306004 0.177681,0.524184 0.266525,1.159416 0.266531,1.905699"
       id="path3037" />
    <path
       d="m 22.184738,39.076831 c 1.048352,8e-6 1.861272,0.217675 2.438761,0.653001 0.577479,0.426458 0.866221,1.128323 0.866227,2.105598 -6e-6,0.986171 -0.29319,1.701362 -0.879553,2.145577 -0.57749,0.435338 -1.399294,0.653005 -2.465415,0.653002 l -0.586369,0 0,2.785253 -1.639168,0 0,-8.142533 c 0.159918,-0.03553 0.337605,-0.06663 0.533063,-0.09329 0.204339,-0.02664 0.408679,-0.04441 0.613022,-0.05331 0.204338,-0.01776 0.404237,-0.03109 0.599695,-0.03998 0.195454,-0.0089 0.368699,-0.01332 0.519737,-0.01333 m 0.186571,1.425942 c -0.09773,7e-6 -0.235438,0.0044 -0.413123,0.01333 -0.168806,7e-6 -0.302071,0.0089 -0.399797,0.02665 l 0,2.665314 0.666328,0 c 0.524175,4e-6 0.919529,-0.102166 1.186065,-0.306512 0.266527,-0.21322 0.399792,-0.573037 0.399797,-1.079451 -5e-6,-0.479751 -0.13327,-0.817357 -0.399797,-1.01282 C 23.153131,40.60495 22.80664,40.50278 22.371309,40.502773"
       id="path3039" />
    <path
       d="m 32.19299,39.170117 0,1.359309 -2.172231,0 0,6.889836 -1.652494,0 0,-6.889836 -2.172231,0 0,-1.359309 5.996956,0"
       id="path3041" />
  </g>
  <path
     style="fill:#ffffff"
     d="m 12,15.999985 6.99999,0 0,5.000005 -6.99999,0 z"
     id="path3015"
     inkscape:connector-curvature="0" />
  <path
     style="fill:#ffffff"
     d="m 12,23.999994 6.99999,0 0,5.000006 L 12,29 z"
     id="path3017-5"
     inkscape:connector-curvature="0" />
  <path
     style="fill:#ffffff"
     d="m 30.000003,15.999985 0,6.000015 5.999959,0 c 0,-3.313717 -2.686278,-6.000015 -5.999959,-6.000015 z"
     id="path3023"
     inkscape:connector-curvature="0" />
  <path
     style="fill:#ffffff"
     d="m 29.000003,17 c -4,0 -7,2.910147 -7,6.5 0,3.589852 2.910148,6.5 6.499999,6.5 3.589852,0 6.500001,-3 6.500001,-7 l -6,0 z"
     id="path3025"
     inkscape:connector-curvature="0"
     sodipodi:nodetypes="cssccc" />
</svg>
