<svg width="64" xmlns="http://www.w3.org/2000/svg" height="64" viewBox="0 0 64 64" xmlns:xlink="http://www.w3.org/1999/xlink">
<g style="stroke:#a57953">
<path style="fill:#a57953" d="M 4.345703 24.5 C 3.886719 24.453125 3.5 23.992188 3.5 23.498047 L 3.5 4.505859 C 3.5 3.980469 3.945312 3.5 4.4375 3.5 L 27.5625 3.5 C 28.054688 3.5 28.5 3.980469 28.5 4.505859 L 28.5 20.742188 C 28.5 21.269531 27.78125 22.025391 27.291016 22.025391 L 18.826172 22.009766 L 18.826172 23.333984 C 18.826172 23.857422 18.414062 24.5 17.925781 24.5 L 4.4375 24.5 C 4.408203 24.5 4.378906 24.5 4.345703 24.5 Z " transform="matrix(2 0 0 2 0 2)"/>
<path style="fill:#e9b080" d="M 1.548828 5.5 C 0.980469 5.546875 0.5 6.007812 0.5 6.501953 L 0.5 25.494141 C 0.5 26.019531 1.052734 26.5 1.662109 26.5 L 30.337891 26.5 C 30.947266 26.5 31.5 26.019531 31.5 25.494141 L 31.5 9.257812 C 31.5 8.730469 30.609375 7.974609 30 7.974609 L 19.503906 7.990234 L 19.503906 6.666016 C 19.503906 6.142578 18.994141 5.5 18.386719 5.5 L 1.662109 5.5 C 1.626953 5.5 1.589844 5.5 1.548828 5.5 Z " transform="matrix(2 0 0 2 0 2)"/>
</g>
<path style="fill:#a57953" d="M 23.246094 26 L 23.246094 32.253906 L 29.5 32.253906 L 27.347656 30.101562 C 28.628906 29.097656 30.25 28.503906 32 28.503906 C 36.148438 28.503906 39.5 31.859375 39.5 36.003906 C 39.5 40.140625 36.148438 43.503906 32 43.503906 C 27.851562 43.503906 24.5 40.140625 24.5 36.003906 C 24.5 35.125 24.652344 34.28125 24.929688 33.5 L 22.308594 33.5 C 22.101562 34.296875 22 35.140625 22 36.003906 C 22 41.527344 26.476562 46 32 46 C 37.523438 46 42 41.527344 42 36.003906 C 42 30.480469 37.523438 26 32 26 C 29.554688 26 27.289062 26.847656 25.554688 28.308594 Z M 31.882812 29.714844 C 31.832031 29.71875 31.78125 29.734375 31.730469 29.75 C 31.144531 29.882812 30.734375 30.410156 30.746094 31 L 30.746094 35.609375 C 30.746094 35.652344 30.746094 35.6875 30.746094 35.726562 C 30.675781 36.046875 30.734375 36.382812 30.910156 36.664062 C 30.914062 36.675781 30.929688 36.691406 30.945312 36.707031 C 30.960938 36.730469 30.96875 36.757812 30.980469 36.78125 C 30.996094 36.792969 31.011719 36.808594 31.027344 36.824219 C 31.03125 36.832031 31.046875 36.847656 31.0625 36.859375 C 31.078125 36.875 31.089844 36.890625 31.097656 36.898438 C 31.113281 36.910156 31.128906 36.925781 31.144531 36.941406 C 31.164062 36.957031 31.195312 36.964844 31.214844 36.976562 C 31.230469 36.992188 31.246094 37.007812 31.261719 37.015625 C 31.265625 37.027344 31.28125 37.042969 31.296875 37.058594 C 31.320312 37.074219 31.347656 37.082031 31.378906 37.09375 C 31.429688 37.125 31.480469 37.152344 31.53125 37.175781 L 34.617188 38.96875 C 35.222656 39.3125 35.992188 39.101562 36.335938 38.5 C 36.679688 37.902344 36.46875 37.125 35.867188 36.78125 L 33.253906 35.257812 L 33.253906 31 C 33.261719 30.644531 33.121094 30.292969 32.855469 30.050781 C 32.59375 29.800781 32.242188 29.675781 31.882812 29.714844 Z "/>
</svg>
