<svg width="64" xmlns="http://www.w3.org/2000/svg" height="64" viewBox="0 0 64 64" xmlns:xlink="http://www.w3.org/1999/xlink">
<path style="fill:#2f708c" d="M 27.867188 56.5625 L 27.867188 41.261719 C 24.367188 41.257812 20.867188 41.261719 17.367188 41.269531 L 4.855469 38.996094 L 13.113281 53.789062 C 13.519531 54.515625 15.941406 56.5625 20.027344 56.5625 Z "/>
<path style="fill:#45b9b5" d="M 17.371094 41.269531 L 20.070312 36.429688 L 23.507812 38.484375 L 21.0625 31.4375 L 18.621094 24.402344 L 11.503906 25.730469 L 4.390625 27.066406 L 7.261719 28.78125 L 4.921875 32.976562 C 3.804688 34.972656 3.609375 36.761719 4.855469 38.996094 L 13.113281 53.792969 C 13.316406 54.152344 14.027344 54.851562 15.199219 55.457031 C 11.210938 52.566406 13.515625 48.0625 17.371094 41.269531 Z "/>
<path style="fill:#318685" d="M 12.859375 18.5 L 25.671875 26.152344 C 27.421875 23.015625 29.171875 19.878906 30.914062 16.742188 L 39.074219 6.667969 L 22.558594 6.667969 C 21.75 6.667969 18.824219 7.816406 16.78125 11.476562 Z "/>
<path style="fill:#3db7a3" d="M 30.914062 16.742188 L 33.613281 21.582031 L 30.175781 23.636719 L 37.292969 24.96875 L 44.40625 26.296875 L 46.851562 19.257812 L 49.292969 12.214844 L 46.421875 13.933594 L 44.078125 9.734375 C 42.964844 7.738281 41.566406 6.667969 39.070312 6.667969 L 22.558594 6.667969 C 22.152344 6.667969 21.214844 6.957031 20.121094 7.707031 C 24.535156 5.574219 27.152344 9.894531 30.914062 16.742188 Z "/>
<path style="fill:#2d8576" d="M 55.429688 24.308594 L 42.179688 31.960938 C 43.925781 34.996094 45.679688 38.023438 47.4375 41.050781 L 51.722656 53.023438 L 60.40625 38.472656 C 60.832031 37.761719 61.394531 34.636719 59.351562 31.101562 Z "/>
<path style="fill:#409bbf" d="M 47.433594 41.050781 L 41.894531 41.128906 L 41.953125 37.125 L 37.074219 42.765625 L 32.199219 48.398438 L 36.910156 53.898438 L 41.621094 59.390625 L 41.671875 56.046875 L 46.476562 55.976562 C 48.761719 55.941406 50.410156 55.222656 51.722656 53.023438 L 60.40625 38.472656 C 60.621094 38.117188 60.867188 37.152344 60.804688 35.835938 C 60.296875 40.734375 55.246094 40.988281 47.433594 41.050781 Z "/>
</svg>
