<svg width="32" xmlns="http://www.w3.org/2000/svg" height="32" viewBox="0 0 32 32" xmlns:xlink="http://www.w3.org/1999/xlink">
<g style="fill:#fc0">
<path d="M 13.320312 11.9375 C 13.804688 12.164062 16.230469 11.691406 16.476562 11.902344 C 16.730469 12.121094 15.867188 12.9375 16.351562 13.296875 C 17.503906 14.15625 20.542969 14.40625 23.273438 13.398438 L 24.308594 16.242188 C 22.808594 17.070312 20.5625 17.550781 17.6875 17.277344 L 25.242188 24.878906 L 22.441406 27.398438 L 16.632812 21.296875 C 14.28125 25.414062 11.207031 27.027344 8.789062 28.5 L 6.757812 25.296875 C 16.347656 19.242188 11.035156 16.53125 13.359375 13.070312 C 13.546875 12.796875 13.003906 12.203125 13.320312 11.9375 Z "/>
<path d="M 19.769531 8.074219 C 19.769531 10.601562 17.722656 12.648438 15.195312 12.648438 C 12.667969 12.648438 10.617188 10.601562 10.617188 8.074219 C 10.617188 5.546875 12.667969 3.5 15.195312 3.5 C 17.722656 3.5 19.769531 5.546875 19.769531 8.074219 Z "/>
</g>
</svg>
