<svg width="32" xmlns="http://www.w3.org/2000/svg" height="32" viewBox="0 0 32 32" xmlns:xlink="http://www.w3.org/1999/xlink">
<defs>
<linearGradient gradientTransform="matrix(.66667 0 0 -.66667 0 701.5748)" id="linear0" y1="1053.158" y2="1004.847" gradientUnits="userSpaceOnUse" x2="0">
<stop offset="0" style="stop-color:#3b809c"/>
<stop offset="1" style="stop-color:#2e5b6b"/>
</linearGradient>
</defs>
<path style="fill:url(#linear0)" d="M 1.296875 32 L 30.703125 32 C 31.417969 32 32 31.417969 32 30.703125 L 32 1.296875 C 32 0.582031 31.417969 0 30.703125 0 L 1.296875 0 C 0.582031 0 0 0.582031 0 1.296875 L 0 30.703125 C 0 31.417969 0.582031 32 1.296875 32 Z "/>
<g style="fill:#fff">
<path d="M 16 5.332031 C 10.109375 5.332031 5.332031 10.109375 5.332031 16 C 5.332031 21.890625 10.109375 26.667969 16 26.667969 C 21.890625 26.667969 26.667969 21.890625 26.667969 16 C 26.667969 10.109375 21.890625 5.332031 16 5.332031 Z M 16 6.667969 C 21.15625 6.667969 25.332031 10.84375 25.332031 16 C 25.332031 20.410156 22.277344 24.105469 18.167969 25.082031 C 18.125 25 18.074219 24.910156 18.082031 24.785156 C 18.105469 24.414062 18.121094 23.933594 18.167969 23.515625 C 18.214844 23.101562 18.382812 19.609375 18.984375 18.683594 C 19.585938 17.757812 21.296875 16.648438 21.898438 16.535156 C 22.5 16.417969 22.398438 16.175781 22.398438 15.964844 C 22.398438 15.757812 22.296875 15.300781 22.132812 15.234375 C 21.972656 15.164062 21.339844 15.570312 21.132812 15.617188 C 20.925781 15.664062 19.921875 15.746094 19.785156 15.515625 C 19.644531 15.285156 20.90625 12.925781 21.066406 12.648438 C 21.230469 12.371094 21.300781 11.992188 21 11.601562 C 20.699219 11.207031 20.5 10.816406 20.382812 10.816406 C 20 10.816406 19.261719 11.695312 18.984375 11.832031 C 18.707031 11.972656 16.507812 13.539062 16.300781 13.816406 C 16.089844 14.09375 15.816406 14.207031 15.515625 14.183594 C 15.214844 14.160156 14.257812 14.148438 13.933594 14.332031 C 13.609375 14.519531 12.121094 16.03125 11.75 16.214844 C 11.378906 16.402344 10.898438 16.511719 10.667969 16.535156 C 10.433594 16.558594 9.675781 17.40625 9.464844 17.566406 C 9.257812 17.730469 7.613281 18.445312 7.382812 18.582031 C 7.152344 18.722656 9.074219 20.671875 9.351562 20.714844 C 9.613281 20.761719 9.199219 21.703125 8.699219 21.800781 C 7.433594 20.207031 6.667969 18.195312 6.667969 16 C 6.667969 10.84375 10.84375 6.667969 16 6.667969 Z M 15.234375 15.167969 C 15.527344 15.136719 15.765625 15.183594 15.765625 15.183594 C 15.871094 15.429688 15.375 16.195312 14.917969 16.300781 C 14.457031 16.40625 13.402344 17.96875 13.367188 17.617188 C 13.332031 17.265625 13.789062 16.09375 14.316406 15.566406 C 14.582031 15.300781 14.9375 15.199219 15.234375 15.167969 Z "/>
<path style="fill-opacity:.149" d="M 1.332031 0 C 0.59375 0 0 0.59375 0 1.332031 L 0 30.667969 C 0 31.40625 0.59375 32 1.332031 32 L 11.1875 32 L 19.75 0 Z "/>
</g>
</svg>
