<svg width="32" xmlns="http://www.w3.org/2000/svg" height="32" viewBox="0 0 32 32" xmlns:xlink="http://www.w3.org/1999/xlink">
<defs>
<linearGradient gradientTransform="matrix(.66667 0 0 .66667 0 -669.57481)" id="linear0" y1="1053.158" y2="1004.847" gradientUnits="userSpaceOnUse" x2="0">
<stop offset="0" style="stop-color:#46284e"/>
<stop offset="1" style="stop-color:#ac7ab9"/>
</linearGradient>
</defs>
<path style="fill:url(#linear0)" d="M 1.296875 0 L 30.703125 0 C 31.417969 0 32 0.582031 32 1.296875 L 32 30.703125 C 32 31.417969 31.417969 32 30.703125 32 L 1.296875 32 C 0.582031 32 0 31.417969 0 30.703125 L 0 1.296875 C 0 0.582031 0.582031 0 1.296875 0 Z "/>
<g style="fill:#fff">
<path d="M 16.5 5.335938 C 15.527344 5.359375 14.570312 5.507812 13.644531 5.765625 C 13.871094 5.871094 14.097656 5.980469 14.328125 6.078125 C 14.878906 5.867188 15.714844 5.648438 16.851562 5.667969 C 18.011719 5.6875 19.847656 6.226562 20.917969 6.566406 C 19.960938 6.015625 18.925781 5.613281 17.847656 5.375 C 17.828125 5.375 17.808594 5.378906 17.789062 5.375 C 17.359375 5.339844 16.929688 5.328125 16.5 5.335938 Z M 15.757812 6.097656 C 15.308594 6.121094 14.953125 6.152344 14.644531 6.195312 C 14.800781 6.261719 14.953125 6.328125 15.113281 6.390625 C 15.132812 6.390625 15.148438 6.390625 15.171875 6.390625 C 16.636719 6.398438 18.351562 6.738281 20.351562 7.46875 C 19.09375 7.144531 17.820312 6.953125 16.597656 6.960938 C 18.195312 7.558594 19.65625 8.117188 20.429688 8.816406 L 20.351562 9.617188 C 20.351562 9.617188 23.761719 11.132812 25.980469 13.117188 C 25.253906 10.421875 23.507812 8.117188 21.113281 6.6875 C 18.824219 6.136719 17.023438 6.039062 15.757812 6.097656 Z M 12.238281 6.273438 C 12.253906 6.5 12.28125 6.699219 12.335938 6.882812 C 12.511719 6.8125 12.695312 6.738281 12.882812 6.6875 C 12.667969 6.5625 12.449219 6.4375 12.238281 6.273438 Z M 11.203125 6.804688 C 7.597656 8.890625 5.089844 13.253906 5.746094 20.117188 C 5.746094 20.125 5.746094 20.128906 5.746094 20.136719 C 5.898438 20.484375 6.066406 20.824219 6.253906 21.152344 C 6 18.027344 6.101562 15.804688 7.175781 12.550781 C 7.175781 12.550781 6.289062 16.769531 7.546875 22.972656 C 7.546875 22.976562 7.542969 22.984375 7.546875 22.992188 C 7.773438 23.25 8.015625 23.5 8.269531 23.734375 C 6.90625 18.011719 6.824219 9.992188 11.4375 7.3125 C 11.351562 7.160156 11.269531 6.988281 11.203125 6.804688 Z M 14.113281 7.273438 C 13.667969 7.390625 13.25 7.566406 12.84375 7.761719 C 13.441406 8.382812 14.320312 8.476562 14.742188 8.445312 C 14.742188 8.445312 13.265625 8.957031 12.140625 8.132812 C 8.917969 10.199219 7.429688 15.269531 10.457031 25.355469 C 10.464844 25.355469 10.472656 25.355469 10.476562 25.355469 C 12.050781 26.210938 13.8125 26.664062 15.601562 26.667969 C 18.65625 26.664062 21.566406 25.363281 23.609375 23.089844 C 25.648438 20.8125 26.625 17.777344 26.296875 14.742188 C 25.898438 15.355469 25.394531 16.332031 25.140625 17.691406 C 25.140625 17.691406 19.972656 14.269531 15.894531 16.890625 C 15.894531 16.890625 10.285156 14.078125 13.78125 10.125 C 13.78125 10.125 14.859375 10.707031 15.445312 10.96875 C 12.5625 13.070312 16.089844 15.601562 16.089844 15.601562 C 16.089844 15.601562 18.957031 12.757812 24.398438 15.933594 C 24.398438 15.933594 24.792969 14.640625 25.277344 14.347656 C 22.558594 11.726562 18.828125 10.417969 18.828125 10.417969 L 18.90625 9.265625 C 16.613281 8.132812 15.203125 7.695312 14.113281 7.273438 Z M 16.597656 9.246094 C 16.597656 9.246094 17.6875 9.597656 18.238281 9.597656 C 18.238281 9.597656 18.277344 10.410156 17.496094 10.617188 C 16.898438 10.429688 16.597656 9.246094 16.597656 9.246094 Z "/>
<path style="fill-opacity:.149" d="M 1.332031 0 C 0.59375 0 0 0.59375 0 1.332031 L 0 30.667969 C 0 31.40625 0.59375 32 1.332031 32 L 11.1875 32 L 19.75 0 Z "/>
</g>
</svg>
