<svg width="32" xmlns="http://www.w3.org/2000/svg" height="32" viewBox="0 0 32 32" xmlns:xlink="http://www.w3.org/1999/xlink">
<defs>
<linearGradient gradientTransform="matrix(.66667 0 0 .66667 0 -669.5748)" id="linear0" y1="1002.362" y2="1047.362" gradientUnits="userSpaceOnUse" x2="0">
<stop offset="0" style="stop-color:#95cfe0"/>
<stop offset="1" style="stop-color:#699cd2"/>
</linearGradient>
</defs>
<path style="fill:url(#linear0)" d="M 1.332031 0 L 30.597656 0 C 31.375 0 32 0.578125 32 1.296875 L 32 30.703125 C 32 31.421875 31.375 32 30.597656 32 L 1.332031 32 C 0.554688 32 0 31.421875 0 30.703125 L 0 1.296875 C 0 0.578125 0.554688 0 1.332031 0 Z "/>
<g style="fill:#fff">
<path style="fill-rule:evenodd" d="M 15.492188 6.550781 C 15.445312 6.808594 15.394531 7.070312 15.34375 7.332031 C 11.15625 7.597656 6.867188 10.886719 6.625 16.230469 L 6.535156 16.230469 L 6.535156 17.203125 C 5.597656 17.523438 5.238281 19.039062 5.355469 19.902344 C 5.4375 21.011719 5.714844 21.84375 6.859375 22.21875 C 6.867188 22.105469 6.878906 21.980469 6.890625 21.863281 L 6.902344 22.261719 C 7.253906 22.332031 7.496094 22.363281 7.65625 22.308594 L 7.671875 22.851562 C 7.964844 22.96875 8.125 22.996094 8.21875 22.777344 C 8.21875 22.84375 8.226562 22.910156 8.230469 22.972656 C 8.597656 23.144531 9.207031 23.1875 9.574219 23.042969 C 9.691406 22.96875 9.777344 22.71875 9.855469 22.378906 C 11.851562 25.300781 15.757812 26.195312 19.28125 24.816406 C 20.367188 24.460938 21.457031 23.746094 22.21875 22.808594 C 22.28125 22.992188 22.34375 23.140625 22.425781 23.191406 C 22.792969 23.335938 23.402344 23.292969 23.769531 23.117188 C 23.773438 23.054688 23.78125 22.988281 23.78125 22.925781 C 23.875 23.144531 24.035156 23.117188 24.328125 23 L 24.34375 22.453125 C 24.503906 22.511719 24.746094 22.480469 25.097656 22.410156 L 25.109375 22.011719 C 25.121094 22.128906 25.132812 22.253906 25.140625 22.367188 C 26.285156 21.992188 26.5625 21.160156 26.644531 20.050781 C 26.761719 19.1875 26.402344 17.671875 25.464844 17.351562 L 25.464844 16.375 L 25.390625 16.375 C 25.226562 14.378906 24.535156 12.363281 23.265625 10.738281 C 21.707031 8.742188 19.277344 7.347656 15.976562 7.316406 C 15.917969 7.316406 15.859375 7.316406 15.800781 7.316406 C 15.6875 7.0625 15.585938 6.8125 15.492188 6.550781 Z M 16.023438 7.789062 C 19.167969 7.832031 21.410156 9.152344 22.882812 11.035156 C 24.074219 12.5625 24.742188 14.476562 24.902344 16.375 L 24.800781 16.375 L 24.800781 17.246094 C 24.648438 17.222656 24.503906 17.203125 24.476562 17.203125 C 24.460938 17.214844 24.445312 17.230469 24.433594 17.246094 L 24.445312 16.554688 C 24.445312 16.554688 23.984375 16.40625 23.945312 16.40625 C 23.941406 16.414062 23.933594 16.425781 23.929688 16.433594 C 23.921875 16.425781 23.910156 16.410156 23.902344 16.40625 L 22.941406 16.40625 C 22.632812 16.542969 22.457031 16.847656 22.335938 17.1875 C 20.695312 13.914062 17.667969 11.175781 16.023438 7.789062 Z M 15.152344 7.832031 C 15.179688 7.832031 15.210938 7.832031 15.238281 7.832031 C 15.171875 8.128906 15.097656 8.425781 15.019531 8.71875 C 14.371094 11.859375 11.867188 14.078125 10.164062 16.671875 C 10.019531 16.890625 9.886719 17.125 9.765625 17.363281 C 9.636719 16.902344 9.464844 16.4375 9.058594 16.257812 L 8.097656 16.257812 C 8.089844 16.265625 8.078125 16.277344 8.070312 16.289062 C 8.066406 16.277344 8.058594 16.265625 8.054688 16.257812 C 8.015625 16.257812 7.554688 16.40625 7.554688 16.40625 L 7.566406 17.097656 C 7.554688 17.082031 7.539062 17.066406 7.523438 17.054688 C 7.496094 17.054688 7.351562 17.078125 7.199219 17.097656 L 7.199219 16.226562 L 7.097656 16.226562 C 7.335938 11.230469 11.269531 8.179688 15.152344 7.832031 Z M 16.183594 17.363281 C 18.132812 17.363281 20.074219 17.535156 22.144531 17.808594 C 22.121094 17.890625 22.109375 17.980469 22.085938 18.058594 C 22.058594 18.183594 22.03125 18.339844 22.011719 18.5 C 21.820312 18.480469 21.628906 18.464844 21.4375 18.441406 C 21.726562 18.945312 21.675781 20.082031 21.363281 20.566406 C 20.972656 21.167969 20.199219 21.628906 19.222656 21.6875 C 18.773438 21.707031 18.277344 21.6875 17.820312 21.582031 C 17.371094 21.476562 16.964844 21.28125 16.714844 20.933594 L 16.714844 20.917969 C 16.433594 20.566406 16.351562 20.164062 16.347656 19.769531 C 16.34375 19.367188 16.40625 18.402344 16.390625 18.074219 C 16.144531 18.074219 15.898438 18.082031 15.652344 18.085938 C 15.640625 18.414062 15.6875 19.375 15.683594 19.769531 C 15.679688 20.171875 15.617188 20.578125 15.328125 20.933594 C 15.082031 21.289062 14.664062 21.476562 14.207031 21.582031 C 13.753906 21.691406 13.253906 21.707031 12.804688 21.6875 C 11.828125 21.628906 11.054688 21.167969 10.667969 20.566406 C 10.382812 20.125 10.308594 19.046875 10.519531 18.574219 C 10.351562 18.605469 10.1875 18.628906 10.015625 18.664062 C 9.992188 18.394531 9.96875 18.148438 9.929688 17.953125 C 12.121094 17.53125 14.15625 17.359375 16.183594 17.363281 Z M 17.277344 18.085938 C 17.046875 18.117188 16.851562 18.15625 16.714844 18.207031 C 16.714844 18.535156 16.667969 18.875 16.671875 19.195312 C 16.675781 19.5625 16.742188 19.890625 16.964844 20.167969 L 16.964844 20.183594 C 17.144531 20.4375 17.484375 20.601562 17.894531 20.699219 C 18.308594 20.796875 18.78125 20.820312 19.210938 20.800781 C 20.09375 20.75 20.773438 20.328125 21.097656 19.828125 C 21.40625 19.351562 21.398438 18.835938 20.980469 18.382812 C 19.710938 18.234375 18.488281 18.125 17.277344 18.085938 Z M 14.679688 18.101562 C 13.464844 18.15625 12.214844 18.289062 10.933594 18.5 C 10.929688 18.507812 10.933594 18.511719 10.933594 18.515625 C 10.628906 18.933594 10.65625 19.398438 10.933594 19.828125 C 11.253906 20.328125 11.933594 20.75 12.820312 20.800781 C 13.25 20.820312 13.722656 20.792969 14.132812 20.699219 C 14.546875 20.601562 14.882812 20.4375 15.0625 20.183594 L 15.0625 20.167969 C 15.289062 19.890625 15.355469 19.5625 15.359375 19.195312 C 15.363281 18.875 15.328125 18.535156 15.328125 18.207031 C 15.203125 18.160156 15.023438 18.128906 14.8125 18.101562 Z "/>
<path style="fill-opacity:.149" d="M 1.332031 0 C 0.59375 0 0 0.59375 0 1.332031 L 0 30.667969 C 0 31.40625 0.59375 32 1.332031 32 L 11.1875 32 L 19.75 0 Z "/>
</g>
</svg>
