<svg width="32" xmlns="http://www.w3.org/2000/svg" height="32" viewBox="0 0 32 32" xmlns:xlink="http://www.w3.org/1999/xlink">
<defs>
<linearGradient gradientTransform="matrix(.66667 0 0 .66667 0 -669.5748)" id="linear0" y1="1053.158" y2="1004.847" gradientUnits="userSpaceOnUse" x2="0">
<stop offset="0" style="stop-color:#ff6400"/>
<stop offset="1" style="stop-color:#ef894e"/>
</linearGradient>
</defs>
<path style="fill:url(#linear0)" d="M 1.332031 0 L 30.597656 0 C 31.375 0 32 0.578125 32 1.296875 L 32 30.703125 C 32 31.421875 31.375 32 30.597656 32 L 1.332031 32 C 0.554688 32 0 31.421875 0 30.703125 L 0 1.296875 C 0 0.578125 0.554688 0 1.332031 0 Z "/>
<g style="fill:#fff">
<path d="M 21.578125 5.335938 C 22.167969 5.335938 22.777344 5.484375 23.289062 5.835938 C 25.324219 7.234375 27.328125 6.707031 27.328125 6.707031 C 27.328125 6.707031 25.292969 10.050781 22.703125 9.539062 C 20.257812 9.0625 19.789062 9.679688 19.707031 9.75 L 19.582031 20.328125 C 19.582031 20.398438 19.585938 20.464844 19.582031 20.535156 C 19.464844 22.800781 17.515625 25.074219 14.792969 26.117188 C 11.335938 27.441406 7.683594 26.289062 6.628906 23.535156 C 5.570312 20.78125 7.503906 17.445312 10.960938 16.121094 C 13.632812 15.097656 16.421875 15.582031 18.039062 17.121094 L 18.039062 6.542969 L 18 6.457031 C 18 6.457031 19.816406 5.308594 21.578125 5.332031 Z "/>
<path style="fill-opacity:.149" d="M 1.332031 0 C 0.59375 0 0 0.59375 0 1.332031 L 0 30.667969 C 0 31.40625 0.59375 32 1.332031 32 L 11.1875 32 L 19.75 0 Z "/>
</g>
</svg>
