<svg width="32" xmlns="http://www.w3.org/2000/svg" height="32" viewBox="0 0 32 32" xmlns:xlink="http://www.w3.org/1999/xlink">
<defs>
<linearGradient gradientTransform="matrix(.66667 0 0 -.66667 0 701.5748)" id="linear0" y1="1053.158" y2="1004.847" gradientUnits="userSpaceOnUse" x2="0">
<stop offset="0" style="stop-color:#595959"/>
<stop offset="1" style="stop-color:#282828"/>
</linearGradient>
</defs>
<path style="fill:url(#linear0)" d="M 1.296875 32 L 30.703125 32 C 31.417969 32 32 31.417969 32 30.703125 L 32 1.296875 C 32 0.582031 31.417969 0 30.703125 0 L 1.296875 0 C 0.582031 0 0 0.582031 0 1.296875 L 0 30.703125 C 0 31.417969 0.582031 32 1.296875 32 Z "/>
<g style="fill:#fff">
<path d="M 11.980469 5.582031 L 9.269531 10.4375 L 13.625 12.957031 L 16 8.832031 L 16.832031 10.269531 L 16.0625 11.582031 L 20.480469 11.582031 L 22.894531 7.394531 L 21.832031 8 L 20.4375 5.582031 Z M 23.8125 13.105469 L 19.457031 15.625 L 21.832031 19.75 L 20.1875 19.75 L 19.417969 18.417969 L 17.207031 22.25 L 19.625 26.417969 L 19.625 25.207031 L 22.4375 25.207031 L 26.207031 18.667969 L 26.582031 18.042969 L 26.667969 17.894531 Z M 5.6875 14.582031 L 6.730469 15.207031 L 5.332031 17.644531 L 9.105469 24.167969 L 9.457031 24.792969 L 9.5625 24.957031 L 15.125 24.875 L 15.125 19.855469 L 10.375 19.855469 L 11.207031 18.417969 L 12.730469 18.417969 L 10.519531 14.582031 Z "/>
<path style="fill-opacity:.149" d="M 1.332031 0 C 0.59375 0 0 0.59375 0 1.332031 L 0 30.667969 C 0 31.40625 0.59375 32 1.332031 32 L 11.1875 32 L 19.75 0 Z "/>
</g>
</svg>
