<svg width="32" xmlns="http://www.w3.org/2000/svg" height="32" viewBox="0 0 32 32" xmlns:xlink="http://www.w3.org/1999/xlink">
<defs>
<linearGradient gradientTransform="matrix(.66667 0 0 -.66667 -1093.70427 -242.89809)" id="linear0" y1="-414.82" y2="-365.619" gradientUnits="userSpaceOnUse" x2="0">
<stop offset="0" style="stop-color:#204a86"/>
<stop offset="1" style="stop-color:#2871a4"/>
</linearGradient>
</defs>
<path style="fill:url(#linear0)" d="M 1.296875 32 L 30.703125 32 C 31.417969 32 32 31.417969 32 30.703125 L 32 1.296875 C 32 0.582031 31.417969 0 30.703125 0 L 1.296875 0 C 0.582031 0 0 0.582031 0 1.296875 L 0 30.703125 C 0 31.417969 0.582031 32 1.296875 32 Z "/>
<g style="fill:#fff">
<path d="M 26.355469 6.457031 C 26.355469 6.457031 23.953125 6.824219 22.582031 8.75 C 21.558594 10.195312 21.640625 12.167969 21.75 13.0625 C 19.859375 10.53125 16.625 8.125 13.792969 8.125 C 12.835938 8.125 11.929688 8.320312 11.082031 8.667969 C 10.617188 8.507812 9.585938 8.203125 8.582031 8.4375 C 7.246094 8.75 6.589844 9.371094 5.875 10.644531 C 5.160156 11.921875 5.332031 13.546875 5.394531 14.230469 C 5.457031 14.914062 5.917969 15.4375 5.917969 15.4375 L 5.957031 15.167969 L 5.8125 15.0625 C 5.8125 15.0625 5.5625 13.925781 5.625 13.394531 C 5.6875 12.867188 5.898438 12.300781 6.457031 11.957031 C 6.855469 11.714844 7.175781 11.761719 7.417969 11.8125 C 7.191406 12.164062 6.988281 12.53125 6.8125 12.917969 C 6.730469 12.882812 6.65625 12.855469 6.5625 12.855469 C 6.183594 12.855469 5.875 13.144531 5.875 13.519531 C 5.875 13.820312 6.0625 14.074219 6.332031 14.167969 C 6.089844 15.003906 5.957031 15.90625 5.957031 16.832031 C 5.957031 18.035156 6.1875 19.207031 6.582031 20.25 C 6.011719 20.535156 5.441406 21.214844 6.4375 21.894531 C 6.367188 21.925781 6.308594 21.953125 6.269531 22 C 5.773438 22.621094 6.898438 23.105469 7.394531 23.480469 C 7.664062 23.679688 8.421875 24 9.457031 24.105469 C 10.699219 25.023438 12.1875 25.542969 13.792969 25.542969 C 16.980469 25.542969 20.675781 22.882812 22.394531 19.957031 C 22.820312 20.285156 23.40625 20.703125 24.125 21.0625 C 25.492188 21.746094 26.667969 21.375 26.667969 21.375 C 26.667969 21.375 25.183594 19.703125 24.6875 18.332031 C 24.191406 16.964844 24.730469 15.039062 25.042969 14.355469 C 25.351562 13.671875 25.625 10.429688 25.5 8.8125 C 25.375 7.195312 26.355469 6.457031 26.355469 6.457031 Z M 15.6875 8.855469 C 16 8.871094 16.277344 8.960938 16.457031 9.042969 C 16.941406 9.261719 17.730469 10.480469 17.730469 10.480469 C 17.730469 10.480469 16.355469 8.683594 15.167969 9.167969 C 13.980469 9.648438 13.359375 10.648438 13.269531 11.394531 C 13.246094 11.605469 13.242188 11.839844 13.230469 12.042969 C 13.492188 11.898438 13.859375 11.761719 14.394531 11.730469 C 14.570312 11.71875 14.769531 11.734375 14.980469 11.75 C 16.519531 11.863281 17.234375 12.066406 17.769531 12.4375 L 17.8125 12.480469 C 17.84375 12.503906 17.886719 12.515625 17.917969 12.542969 C 17.972656 12.585938 18.011719 12.636719 18.0625 12.6875 C 18.078125 12.703125 18.089844 12.714844 18.105469 12.730469 L 18.207031 12.8125 C 18.28125 12.871094 18.359375 12.960938 18.4375 13.0625 C 18.363281 12.46875 18.234375 11.550781 18.0625 11.167969 L 17.832031 10.625 C 17.832031 10.625 18.359375 11.203125 18.6875 12.542969 C 19.015625 13.882812 19.339844 13.894531 19.25 14.730469 L 19.230469 14.875 C 19.230469 14.890625 19.226562 14.902344 19.230469 14.917969 C 19.242188 15.011719 19.25 15.105469 19.25 15.1875 C 19.25 15.960938 18.394531 17.355469 18.394531 17.355469 C 18.394531 17.355469 18.804688 16.550781 18.894531 15.480469 C 18.933594 15.003906 18.871094 14.675781 18.792969 14.4375 C 18.707031 15.296875 18.398438 16.851562 17.105469 17.207031 C 15.363281 17.6875 14.070312 17.644531 13.144531 15.855469 C 13.15625 15.910156 13.171875 15.96875 13.1875 16.019531 C 13.453125 17.03125 14.476562 17.960938 15.75 18.3125 C 16.371094 18.484375 16.921875 18.378906 17.332031 18.230469 C 16.855469 18.445312 16.214844 18.671875 15.6875 18.625 C 14.71875 18.535156 13.242188 17.546875 12.5625 16.480469 C 11.988281 15.578125 12.121094 14.746094 12.042969 13.3125 C 12.09375 12 12.5 10.617188 13.730469 9.605469 C 14.5 8.972656 15.164062 8.824219 15.6875 8.855469 Z M 16.457031 12.792969 C 15.960938 12.792969 15.5625 13.210938 15.5625 13.707031 C 15.5625 14.207031 15.960938 14.605469 16.457031 14.605469 C 16.957031 14.605469 17.355469 14.207031 17.355469 13.707031 C 17.355469 13.210938 16.957031 12.792969 16.457031 12.792969 Z M 15.730469 19.207031 C 15.761719 19.21875 15.804688 19.246094 15.832031 19.292969 C 16.054688 19.644531 15.691406 20.34375 14.8125 21.3125 C 13.933594 22.28125 13.230469 22.832031 13.230469 22.832031 C 13.230469 22.832031 14.332031 21.714844 13.9375 21.582031 C 13.542969 21.453125 12.972656 22.394531 10.625 22.542969 C 9.160156 22.632812 6.769531 22.167969 6.769531 22.167969 C 6.769531 22.167969 9.0625 22.496094 10.707031 22.25 C 12.511719 21.980469 14.445312 20.933594 13.480469 20.980469 C 12.511719 21.023438 11.957031 21 11.957031 21 C 11.957031 21 13.28125 20.648438 14.292969 20.167969 C 15.050781 19.804688 15.398438 19.3125 15.625 19.230469 C 15.664062 19.214844 15.695312 19.195312 15.730469 19.207031 Z "/>
<path style="fill-opacity:.149" d="M 1.332031 0 C 0.59375 0 0 0.59375 0 1.332031 L 0 30.667969 C 0 31.40625 0.59375 32 1.332031 32 L 11.1875 32 L 19.75 0 Z "/>
</g>
</svg>
