<svg width="32" xmlns="http://www.w3.org/2000/svg" height="32" viewBox="0 0 32 32" xmlns:xlink="http://www.w3.org/1999/xlink">
<defs>
<linearGradient gradientTransform="matrix(.66667 0 0 .66667 0 -669.57473)" id="linear0" y1="1053.158" y2="1004.847" gradientUnits="userSpaceOnUse" x2="0">
<stop offset="0" style="stop-color:#9e1e4c"/>
<stop offset="1" style="stop-color:#d23759"/>
</linearGradient>
</defs>
<path style="fill:url(#linear0)" d="M 1.296875 0 L 30.703125 0 C 31.417969 0 32 0.582031 32 1.296875 L 32 30.703125 C 32 31.417969 31.417969 32 30.703125 32 L 1.296875 32 C 0.582031 32 0 31.417969 0 30.703125 L 0 1.296875 C 0 0.582031 0.582031 0 1.296875 0 Z "/>
<g style="fill:#fff">
<path style="fill-opacity:.149" d="M 0 0 L 0 32 L 11.1875 32 L 19.75 0 Z "/>
<path d="M 8.121094 6.625 C 7.226562 6.625 6.367188 6.769531 5.855469 7.414062 C 5.074219 8.402344 5.464844 10.371094 5.464844 11.582031 C 5.464844 13.40625 5.269531 15.359375 5.609375 17.15625 C 5.972656 19.085938 7.25 21.183594 8.691406 22.488281 C 9.738281 23.433594 10.859375 24.105469 12.15625 24.65625 C 12.707031 24.886719 13.65625 24.957031 14.09375 25.316406 C 14.648438 25.1875 15.332031 25.375 15.910156 25.375 C 17.082031 25.375 18.253906 25.242188 19.363281 24.847656 C 20.496094 24.449219 21.640625 23.882812 22.59375 23.144531 C 23.117188 22.738281 23.605469 22.007812 24.1875 21.734375 C 24.316406 21.269531 24.761719 20.863281 25.007812 20.445312 C 25.46875 19.671875 25.851562 18.832031 26.136719 17.980469 C 26.84375 15.859375 26.535156 13.375 26.535156 11.171875 C 26.535156 10.171875 26.882812 8.375 26.269531 7.53125 C 25.34375 6.257812 23.148438 6.710938 21.78125 6.710938 L 10.101562 6.710938 C 9.523438 6.710938 8.8125 6.625 8.121094 6.625 Z M 21.066406 12.058594 C 21.3125 12.058594 21.570312 12.128906 21.839844 12.308594 C 22.449219 12.710938 22.644531 13.675781 22.214844 14.28125 C 21.816406 14.839844 21.222656 15.289062 20.726562 15.753906 L 18.144531 18.214844 C 17.574219 18.769531 16.988281 19.558594 16.148438 19.644531 C 15.304688 19.730469 14.75 19.046875 14.210938 18.507812 L 11.507812 15.933594 C 10.953125 15.429688 10.171875 14.871094 9.785156 14.222656 C 9.242188 13.308594 9.871094 12.222656 10.863281 12.078125 C 11.5 11.984375 11.945312 12.382812 12.390625 12.773438 L 14.914062 15.167969 C 15.175781 15.410156 15.601562 16.0625 15.972656 16.113281 C 16.378906 16.171875 17 15.296875 17.261719 15.046875 L 19.140625 13.285156 C 19.679688 12.75 20.324219 12.066406 21.066406 12.058594 Z "/>
<path style="fill-opacity:.149" d="M 1.332031 0 C 0.59375 0 0 0.59375 0 1.332031 L 0 30.667969 C 0 31.40625 0.59375 32 1.332031 32 L 11.1875 32 L 19.75 0 Z "/>
</g>
</svg>
