<svg width="32" xmlns="http://www.w3.org/2000/svg" height="32" viewBox="0 0 32 32" xmlns:xlink="http://www.w3.org/1999/xlink">
<defs>
<linearGradient gradientTransform="matrix(.66667 0 0 .66667 0 -669.57477)" id="linear0" y1="1053.158" y2="1004.847" gradientUnits="userSpaceOnUse" x2="0">
<stop offset="0" style="stop-color:#296c20"/>
<stop offset="1" style="stop-color:#76c35a"/>
</linearGradient>
</defs>
<path style="fill:url(#linear0)" d="M 1.296875 0 L 30.703125 0 C 31.417969 0 32 0.582031 32 1.296875 L 32 30.703125 C 32 31.417969 31.417969 32 30.703125 32 L 1.296875 32 C 0.582031 32 0 31.417969 0 30.703125 L 0 1.296875 C 0 0.582031 0.582031 0 1.296875 0 Z "/>
<path style="fill:none;stroke:#fff;stroke-width:8" d="M 32.016113 32.016113 L 223.983887 32.016113 L 223.983887 223.983887 L 32.016113 223.983887 Z " transform="matrix(.10667 0 0 .10667 2.34667 2.34667)"/>
<g style="fill:#fff">
<path d="M 11.320312 5.832031 L 12.386719 5.832031 L 12.386719 25.972656 L 11.320312 25.972656 Z "/>
<path d="M 26.039062 12.160156 L 26.039062 13.226562 L 5.898438 13.226562 L 5.898438 12.160156 Z "/>
<path d="M 26.039062 19.015625 L 26.039062 20.082031 L 5.898438 20.082031 L 5.898438 19.015625 Z "/>
<path style="fill-opacity:.149" d="M 1.332031 0 C 0.59375 0 0 0.59375 0 1.332031 L 0 30.667969 C 0 31.40625 0.59375 32 1.332031 32 L 11.1875 32 L 19.75 0 Z "/>
</g>
</svg>
