<svg width="32" xmlns="http://www.w3.org/2000/svg" height="32" viewBox="0 0 32 32" xmlns:xlink="http://www.w3.org/1999/xlink">
<defs>
<linearGradient gradientTransform="matrix(.66667 0 0 .66667 0 -669.5748)" id="linear0" y1="1053.158" y2="1004.847" gradientUnits="userSpaceOnUse" x2="0">
<stop offset="0" style="stop-color:#a12e2e"/>
<stop offset="1" style="stop-color:#eb68b5"/>
</linearGradient>
</defs>
<path style="fill:url(#linear0)" d="M 1.296875 0 L 30.703125 0 C 31.417969 0 32 0.582031 32 1.296875 L 32 30.703125 C 32 31.417969 31.417969 32 30.703125 32 L 1.296875 32 C 0.582031 32 0 31.417969 0 30.703125 L 0 1.296875 C 0 0.582031 0.582031 0 1.296875 0 Z "/>
<g style="fill:#fff">
<path d="M 18.1875 5.789062 L 15.617188 13.007812 L 25.746094 11.328125 C 24.246094 8.488281 21.480469 6.402344 18.1875 5.789062 Z "/>
<path d="M 26.0625 12.765625 L 18.4375 14.175781 L 24.976562 21.984375 C 26.722656 19.285156 27.171875 15.878906 26.0625 12.765625 Z "/>
<path d="M 23.875 22.972656 L 18.820312 17.167969 L 15.230469 26.65625 C 18.476562 26.796875 21.691406 25.480469 23.875 22.972656 Z "/>
<path d="M 13.8125 26.210938 L 16.382812 18.992188 L 6.253906 20.671875 C 7.753906 23.511719 10.519531 25.597656 13.8125 26.210938 Z "/>
<path d="M 5.9375 19.234375 L 13.566406 17.824219 L 7.023438 10.015625 C 5.28125 12.714844 4.828125 16.121094 5.9375 19.234375 Z "/>
<path d="M 8.125 9.027344 L 13.179688 14.832031 L 16.769531 5.34375 C 13.523438 5.203125 10.308594 6.519531 8.125 9.027344 Z "/>
<path d="M 17.484375 16 C 17.484375 16.808594 16.820312 17.464844 16 17.464844 C 15.179688 17.464844 14.515625 16.808594 14.515625 16 C 14.515625 15.191406 15.179688 14.535156 16 14.535156 C 16.820312 14.535156 17.484375 15.191406 17.484375 16 Z "/>
<path style="fill-opacity:.149" d="M 1.332031 0 C 0.59375 0 0 0.59375 0 1.332031 L 0 30.667969 C 0 31.40625 0.59375 32 1.332031 32 L 11.1875 32 L 19.75 0 Z "/>
</g>
</svg>
