<svg width="32" xmlns="http://www.w3.org/2000/svg" height="32" viewBox="0 0 32 32" xmlns:xlink="http://www.w3.org/1999/xlink">
<defs>
<linearGradient gradientTransform="matrix(.66667 0 0 .66667 0 -669.5748)" id="linear0" y1="1053.158" y2="1004.847" gradientUnits="userSpaceOnUse" x2="0">
<stop offset="0" style="stop-color:#262626"/>
<stop offset="1" style="stop-color:#7a7a7a"/>
</linearGradient>
</defs>
<path style="fill:url(#linear0)" d="M 1.332031 0 L 30.597656 0 C 31.375 0 32 0.578125 32 1.296875 L 32 30.703125 C 32 31.421875 31.375 32 30.597656 32 L 1.332031 32 C 0.667969 32 0 31.332031 0 30.703125 L 0 1.296875 C 0 0.578125 0.554688 0 1.332031 0 Z "/>
<g style="fill:#fff">
<path d="M 15.445312 26.582031 C 13.023438 25.984375 7.421875 20.65625 5.742188 17.347656 C 5.199219 16.277344 5.195312 15.667969 5.738281 14.601562 C 6.488281 13.125 8.019531 11.238281 10.074219 9.246094 C 12.726562 6.679688 14.742188 5.355469 16 5.355469 C 17.304688 5.355469 19.5 6.832031 22.296875 9.589844 C 24.59375 11.859375 26.140625 13.945312 26.554688 15.335938 C 26.746094 15.988281 26.703125 16.390625 26.355469 17.179688 C 25.183594 19.84375 20.050781 25.011719 17.320312 26.285156 C 16.578125 26.628906 16.003906 26.71875 15.445312 26.582031 Z M 17.921875 19.378906 C 20.59375 17.609375 22.824219 16.117188 22.878906 16.066406 C 22.945312 16.003906 22.886719 15.902344 22.726562 15.785156 C 22.339844 15.511719 20.300781 14.121094 17.945312 12.527344 C 16.789062 11.742188 15.707031 11.003906 15.546875 10.882812 L 15.246094 10.664062 C 14.71875 10.359375 13.777344 9.652344 13.386719 9.464844 C 13.214844 9.34375 13.050781 9.246094 13.015625 9.246094 C 12.980469 9.246094 12.953125 9.601562 12.953125 10.039062 C 12.953125 11.492188 12.949219 12.394531 12.953125 13.496094 C 12.953125 14.800781 12.980469 15.867188 13.019531 15.867188 C 13.105469 15.867188 13.585938 15.574219 15 14.660156 C 16.953125 13.398438 16.6875 13.507812 17.136719 13.777344 C 17.964844 14.277344 19.742188 15.476562 19.96875 15.683594 C 20.410156 16.09375 20.683594 15.859375 16.285156 18.804688 L 12.945312 21.039062 L 12.96875 21.816406 C 12.984375 22.242188 13.011719 22.59375 13.03125 22.59375 C 13.050781 22.59375 15.25 21.144531 17.921875 19.378906 Z "/>
<path style="fill-opacity:.149" d="M 1.332031 0 C 0.59375 0 0 0.59375 0 1.332031 L 0 30.667969 C 0 31.40625 0.59375 32 1.332031 32 L 11.1875 32 L 19.75 0 Z "/>
</g>
</svg>
