<svg width="32" xmlns="http://www.w3.org/2000/svg" height="32" viewBox="0 0 32 32" xmlns:xlink="http://www.w3.org/1999/xlink">
<defs>
<linearGradient gradientTransform="matrix(.66667 0 0 -.66667 0 701.5748)" id="linear0" y1="1053.158" y2="1004.847" gradientUnits="userSpaceOnUse" x2="0">
<stop offset="0" style="stop-color:#2396ea"/>
<stop offset="1" style="stop-color:#116cac"/>
</linearGradient>
</defs>
<path style="fill:url(#linear0)" d="M 1.296875 32 L 30.703125 32 C 31.417969 32 32 31.417969 32 30.703125 L 32 1.296875 C 32 0.582031 31.417969 0 30.703125 0 L 1.296875 0 C 0.582031 0 0 0.582031 0 1.296875 L 0 30.703125 C 0 31.417969 0.582031 32 1.296875 32 Z "/>
<g style="fill:#fff">
<path d="M 16.011719 7.667969 C 15.992188 7.660156 15.105469 8.40625 14.035156 9.335938 C 12.488281 10.679688 12.0625 11.023438 11.964844 11.023438 C 11.894531 11.023438 10.796875 10.921875 9.511719 10.785156 C 8.226562 10.652344 7.164062 10.550781 7.15625 10.558594 C 7.132812 10.582031 5.359375 16.457031 5.332031 16.585938 C 5.324219 16.640625 6.035156 17.269531 7.773438 18.75 L 10.226562 20.835938 L 11.105469 20.835938 C 11.589844 20.835938 12.074219 20.816406 12.191406 20.796875 L 12.40625 20.777344 L 9.820312 18.632812 C 8.398438 17.457031 7.238281 16.464844 7.238281 16.429688 C 7.238281 16.394531 7.476562 15.632812 7.773438 14.726562 C 8.070312 13.824219 8.363281 12.886719 8.441406 12.644531 C 8.578125 12.210938 8.582031 12.203125 8.726562 12.203125 C 8.804688 12.203125 9.746094 12.308594 10.808594 12.441406 L 12.738281 12.679688 L 14.25 11.382812 C 15.082031 10.664062 15.816406 10.027344 15.882812 9.964844 L 16 9.859375 L 17.191406 10.882812 C 17.84375 11.449219 18.574219 12.085938 18.820312 12.300781 L 19.273438 12.679688 L 21.332031 12.429688 C 22.46875 12.289062 23.398438 12.179688 23.40625 12.191406 C 23.429688 12.234375 24.785156 16.414062 24.785156 16.441406 C 24.785156 16.457031 23.617188 17.4375 22.191406 18.621094 L 19.59375 20.777344 L 19.820312 20.796875 C 19.941406 20.816406 20.429688 20.832031 20.90625 20.835938 L 21.773438 20.84375 L 24.214844 18.761719 C 25.558594 17.621094 26.660156 16.671875 26.667969 16.644531 C 26.675781 16.601562 24.890625 10.582031 24.855469 10.546875 C 24.851562 10.539062 23.785156 10.648438 22.488281 10.785156 C 21.191406 10.921875 20.078125 11.03125 20.011719 11.023438 C 19.925781 11.015625 19.316406 10.519531 17.964844 9.34375 C 16.910156 8.429688 16.03125 7.671875 16.011719 7.667969 Z M 15.988281 11.296875 L 14.894531 12.40625 L 13.808594 13.523438 L 13.808594 14.488281 C 13.804688 16.003906 13.980469 17.289062 14.332031 18.382812 C 14.65625 19.386719 15.035156 20.058594 15.605469 20.632812 C 15.800781 20.824219 15.964844 20.976562 15.988281 20.976562 C 16.078125 20.976562 16.535156 20.523438 16.773438 20.203125 C 17.128906 19.722656 17.425781 19.136719 17.65625 18.441406 C 18.023438 17.3125 18.167969 16.332031 18.203125 14.703125 L 18.226562 13.523438 L 17.105469 12.40625 Z M 22.703125 13.558594 C 22.691406 13.550781 22.054688 13.613281 21.285156 13.703125 C 20.515625 13.792969 19.859375 13.871094 19.832031 13.871094 C 19.804688 13.871094 19.785156 14.078125 19.785156 14.453125 C 19.785156 16.4375 19.074219 18.824219 18.011719 20.40625 C 17.765625 20.773438 17.742188 20.839844 17.84375 20.773438 C 18.53125 20.332031 23.425781 16.195312 23.40625 16.074219 C 23.382812 15.9375 22.722656 13.582031 22.703125 13.558594 Z M 9.296875 13.582031 C 9.277344 13.601562 9.117188 14.1875 8.929688 14.882812 L 8.582031 16.132812 L 8.703125 16.25 C 9.851562 17.257812 13.003906 19.898438 13.75 20.476562 C 14.007812 20.675781 14.230469 20.828125 14.238281 20.820312 C 14.246094 20.8125 14.125 20.613281 13.964844 20.371094 C 12.925781 18.792969 12.304688 16.71875 12.203125 14.511719 C 12.1875 14.152344 12.15625 13.871094 12.144531 13.871094 C 12.128906 13.871094 11.492188 13.789062 10.726562 13.703125 C 9.960938 13.613281 9.316406 13.5625 9.296875 13.582031 Z M 13.429688 21.703125 L 10.832031 21.714844 L 13.417969 23.035156 C 14.832031 23.757812 16 24.335938 16.011719 24.332031 C 16.023438 24.324219 17.191406 23.742188 18.605469 23.023438 L 21.179688 21.714844 L 18.59375 21.703125 C 17.175781 21.695312 14.851562 21.695312 13.429688 21.703125 Z "/>
<path style="fill-opacity:.149" d="M 1.332031 0 C 0.59375 0 0 0.59375 0 1.332031 L 0 30.667969 C 0 31.40625 0.59375 32 1.332031 32 L 11.1875 32 L 19.75 0 Z "/>
</g>
</svg>
