<svg width="32" xmlns="http://www.w3.org/2000/svg" height="32" viewBox="0 0 32 32" xmlns:xlink="http://www.w3.org/1999/xlink">
<defs>
<linearGradient gradientTransform="matrix(.66667 0 0 .66667 0 -669.5748)" id="linear0" y1="1053.158" y2="1004.847" gradientUnits="userSpaceOnUse" x2="0">
<stop offset="0" style="stop-color:#9e1e25"/>
<stop offset="1" style="stop-color:#e06359"/>
</linearGradient>
</defs>
<path style="fill:url(#linear0)" d="M 1.296875 0 L 30.703125 0 C 31.417969 0 32 0.582031 32 1.296875 L 32 30.703125 C 32 31.417969 31.417969 32 30.703125 32 L 1.296875 32 C 0.582031 32 0 31.417969 0 30.703125 L 0 1.296875 C 0 0.582031 0.582031 0 1.296875 0 Z "/>
<g style="fill:#fff">
<path d="M 6.050781 5.652344 C 5.660156 5.695312 5.332031 6.0625 5.332031 6.453125 L 5.332031 21.003906 C 5.332031 21.425781 5.714844 21.804688 6.132812 21.804688 L 13.332031 21.804688 L 13.332031 26.347656 L 18.667969 26.347656 L 18.667969 21.804688 L 25.867188 21.804688 C 26.285156 21.804688 26.667969 21.425781 26.667969 21.003906 L 26.667969 6.453125 C 26.667969 6.035156 26.285156 5.652344 25.867188 5.652344 Z M 7.332031 6.980469 C 7.265625 6.578125 7.300781 6.972656 7.332031 6.980469 L 24.667969 6.980469 C 24.945312 6.980469 25.332031 7.367188 25.332031 7.648438 L 25.332031 19.667969 C 25.332031 19.949219 24.945312 20.335938 24.667969 20.335938 L 7.332031 20.335938 C 7.054688 20.335938 6.667969 19.949219 6.667969 19.667969 L 6.667969 7.648438 C 6.664062 7.398438 7.089844 7.027344 7.332031 6.980469 Z M 5.332031 24.34375 L 5.332031 25.679688 L 26.667969 25.679688 L 26.667969 24.34375 Z "/>
<path style="fill-opacity:.502" d="M 12.609375 12.601562 C 12.679688 12.835938 12.867188 13.066406 12.882812 13.316406 C 12.914062 13.90625 12.480469 14.5 12.246094 15.007812 C 12.152344 15.207031 12.121094 15.480469 12 15.660156 C 11.847656 15.882812 11.496094 15.652344 11.277344 15.632812 C 11.117188 15.617188 10.972656 15.636719 11.015625 15.824219 C 10.953125 15.878906 10.960938 15.941406 11.050781 15.972656 C 11.308594 16.054688 11.574219 16.070312 11.828125 16.179688 C 11.726562 16.234375 11.601562 16.363281 11.796875 16.402344 C 11.992188 16.4375 12.039062 16.300781 12.191406 16.230469 C 12.375 16.148438 12.539062 16.140625 12.703125 15.996094 C 12.863281 15.847656 12.925781 15.621094 13.027344 15.433594 C 13.164062 15.1875 13.367188 14.964844 13.488281 14.714844 L 13.519531 14.714844 C 13.519531 15.457031 13.640625 16.363281 13.328125 17.058594 C 13.234375 17.277344 12.714844 17.136719 12.671875 17.355469 C 12.648438 17.492188 12.910156 17.429688 12.96875 17.417969 L 12.96875 17.449219 C 12.652344 17.582031 12.484375 18.027344 12.96875 17.90625 C 12.988281 18.039062 13.078125 18.101562 13.164062 17.972656 C 13.371094 18.019531 13.410156 17.8125 13.566406 17.714844 C 13.746094 17.613281 13.921875 17.582031 14.066406 17.417969 C 14.433594 17 14.464844 16.230469 14.6875 15.726562 C 14.796875 15.480469 15.03125 15.28125 15.121094 15.042969 C 15.183594 14.867188 14.945312 14.5625 15.011719 14.476562 C 15.113281 14.34375 15.503906 14.507812 15.636719 14.527344 C 16.03125 14.582031 16.613281 14.375 17.003906 14.292969 L 17.003906 14.324219 C 15.988281 14.828125 15.9375 15.894531 16.316406 16.832031 C 16.449219 17.15625 16.757812 17.410156 16.777344 17.777344 C 16.449219 17.777344 16.109375 17.574219 15.800781 17.617188 C 15.445312 17.667969 15.527344 18.339844 15.75 18.503906 C 15.925781 18.636719 16.058594 18.453125 16.222656 18.421875 C 16.609375 18.355469 17.222656 18.519531 17.550781 18.21875 C 17.691406 18.089844 17.636719 17.910156 17.660156 17.742188 C 17.707031 17.433594 17.792969 17.109375 17.851562 16.800781 L 17.914062 16.800781 C 18.058594 17.09375 18.574219 17.441406 18.890625 17.519531 C 19.136719 17.578125 19.507812 17.554688 19.640625 17.808594 C 19.339844 17.679688 18.769531 17.527344 18.472656 17.738281 C 18.097656 18.003906 18.882812 18.1875 19.054688 18.199219 C 19.015625 18.410156 19.074219 18.640625 19.347656 18.53125 C 19.691406 18.394531 20.101562 18.09375 20.351562 17.816406 C 20.421875 17.738281 20.542969 17.691406 20.570312 17.578125 C 20.613281 17.378906 20.378906 17.222656 20.253906 17.109375 C 19.921875 16.808594 19.300781 16.648438 19.253906 16.148438 C 19.179688 15.402344 19.789062 15.003906 20.078125 14.390625 C 20.324219 13.871094 20.234375 13.113281 20.128906 12.566406 C 20.511719 12.773438 20.628906 13.261719 20.648438 13.675781 C 20.6875 14.542969 20.160156 15.253906 20.414062 16.148438 C 20.480469 16.390625 20.570312 16.832031 20.816406 16.960938 C 20.988281 17.050781 21.089844 16.886719 21.058594 16.734375 C 20.9375 16.109375 20.828125 15.652344 20.984375 15.007812 C 21.109375 14.480469 21.265625 13.992188 21.304688 13.445312 C 21.316406 13.273438 21.367188 13.09375 21.296875 12.925781 C 21.175781 12.628906 20.878906 12.214844 20.585938 12.078125 C 20.351562 11.964844 20.074219 11.972656 19.835938 11.878906 C 19.640625 11.804688 19.503906 11.636719 19.316406 11.550781 C 18.945312 11.382812 18.550781 11.300781 18.175781 11.152344 C 17.519531 10.894531 16.8125 10.585938 16.257812 10.140625 C 15.945312 9.890625 15.757812 9.503906 15.410156 9.28125 C 14.457031 8.667969 12.910156 8.589844 11.894531 9.039062 C 11.429688 9.242188 11.117188 9.667969 10.871094 10.09375 C 10.804688 10.210938 10.667969 10.34375 10.667969 10.484375 C 10.667969 10.625 10.804688 10.726562 10.863281 10.84375 C 10.960938 11.035156 11.03125 11.28125 11.0625 11.492188 C 11.09375 11.738281 10.910156 11.90625 10.933594 12.144531 C 10.953125 12.347656 11.023438 12.773438 11.183594 12.90625 C 11.558594 13.214844 12.289062 12.828125 12.609375 12.601562 Z "/>
</g>
<path style="fill:none;stroke:#fff;stroke-linejoin:round;stroke-linecap:round;stroke-width:6.374" d="M 39.193848 -96.699219 L 106.503418 -96.699219 L 120.602539 -147.822266 L 120.602539 -60.187988 L 139.425781 -128.486328 L 148.288086 -96.40625 L 216.806152 -96.40625 " transform="matrix(.10667 0 0 .10667 2.34667 24.53333)"/>
<path style="fill:#fff;fill-opacity:.149" d="M 1.332031 0 C 0.59375 0 0 0.59375 0 1.332031 L 0 30.667969 C 0 31.40625 0.59375 32 1.332031 32 L 11.1875 32 L 19.75 0 Z "/>
</svg>
