<svg width="32" xmlns="http://www.w3.org/2000/svg" height="32" viewBox="0 0 32 32" xmlns:xlink="http://www.w3.org/1999/xlink">
<defs>
<linearGradient gradientTransform="matrix(.66667 0 0 .66667 -.00001 -669.57479)" id="linear0" y1="1002.362" y2="1053.158" gradientUnits="userSpaceOnUse" x2="0">
<stop offset="0" style="stop-color:#ce3718"/>
<stop offset="1" style="stop-color:#6b3835"/>
</linearGradient>
</defs>
<path style="fill:url(#linear0)" d="M 1.296875 0 L 30.703125 0 C 31.417969 0 32 0.582031 32 1.296875 L 32 30.703125 C 32 31.417969 31.417969 32 30.703125 32 L 1.296875 32 C 0.582031 32 0 31.417969 0 30.703125 L 0 1.296875 C 0 0.582031 0.582031 0 1.296875 0 Z "/>
<g style="fill:#fff">
<path d="M 14.476562 5.332031 L 17.523438 5.332031 C 22.09375 5.332031 22 10 22 10 L 22 14 C 22 15.523438 19.332031 18.667969 19.332031 18.667969 L 19.332031 20.667969 L 25.332031 24 L 25.332031 26.667969 L 6.667969 26.667969 L 6.667969 24 L 12.667969 20.667969 L 12.667969 18.667969 C 12.667969 18.667969 9.988281 15.523438 10 14 L 10 10 C 10 10 9.90625 5.332031 14.476562 5.332031 Z "/>
<path style="fill-opacity:.149" d="M 1.332031 0 C 0.59375 0 0 0.59375 0 1.332031 L 0 30.667969 C 0 31.40625 0.59375 32 1.332031 32 L 11.1875 32 L 19.75 0 Z "/>
</g>
</svg>
