<svg width="32" xmlns="http://www.w3.org/2000/svg" height="32" viewBox="0 0 32 32" xmlns:xlink="http://www.w3.org/1999/xlink">
<defs>
<linearGradient gradientTransform="matrix(.66667 0 0 -.66667 0 701.5748)" id="linear0" y1="1053.158" y2="1004.847" gradientUnits="userSpaceOnUse" x2="0">
<stop offset="0" style="stop-color:#7d78a5"/>
<stop offset="1" style="stop-color:#3d3860"/>
</linearGradient>
</defs>
<path style="fill:url(#linear0)" d="M 1.296875 32 L 30.703125 32 C 31.417969 32 32 31.417969 32 30.703125 L 32 1.296875 C 32 0.582031 31.417969 0 30.703125 0 L 1.296875 0 C 0.582031 0 0 0.582031 0 1.296875 L 0 30.703125 C 0 31.417969 0.582031 32 1.296875 32 Z "/>
<g style="fill:#fff">
<path d="M 15.734375 10.660156 L 15.109375 11.316406 L 15.734375 11.976562 L 16.355469 11.316406 Z M 16.03125 12.707031 C 14.632812 13.515625 15.515625 15.023438 14.898438 16.027344 C 14.015625 16.730469 13.394531 15.863281 12.941406 15.082031 C 12.613281 14.519531 12.203125 14.246094 11.746094 14.246094 C 11.582031 14.246094 11.445312 14.257812 11.328125 14.285156 C 11 14.34375 10.683594 14.570312 10.371094 14.960938 C 10.167969 15.210938 10.058594 15.472656 10.058594 15.742188 C 10.058594 15.992188 10.144531 16.246094 10.316406 16.492188 C 10.566406 16.734375 10.777344 16.847656 10.949219 17.132812 C 10.949219 17.269531 10.765625 17.449219 10.410156 17.660156 C 10.175781 17.796875 9.769531 17.894531 9.1875 17.957031 C 8.882812 17.988281 8.566406 18.003906 8.210938 18.003906 C 7.511719 18.003906 7.023438 17.945312 6.765625 17.816406 C 6.117188 17.496094 5.792969 17.09375 5.792969 16.621094 C 5.792969 15.988281 5.917969 15.472656 6.171875 15.101562 C 4.261719 16.960938 5.875 19.503906 7.804688 19.503906 C 9.890625 19.503906 11.765625 18.976562 12.042969 17.132812 C 12.117188 16.628906 11.882812 16.300781 11.597656 16.175781 C 11.34375 16.066406 11.214844 15.914062 11.214844 15.714844 C 11.214844 15.566406 11.300781 15.460938 11.476562 15.386719 C 12.039062 15.25 12.503906 15.113281 12.699219 15.972656 C 13.179688 18.074219 14.875 17.992188 15.675781 16.613281 C 16.523438 18.074219 17.972656 17.789062 18.238281 16.425781 C 18.238281 16.425781 19.246094 17.855469 20.804688 17.855469 C 23.441406 17.855469 23.570312 14.6875 26.683594 14.007812 C 24.136719 11.625 22.125 13.742188 20.445312 12.738281 C 22.128906 14.554688 23.707031 13.382812 24.988281 14.042969 C 23.679688 14.191406 22.382812 16.632812 20.832031 16.632812 C 19.917969 16.632812 19.464844 16.4375 18.773438 15.695312 C 18.332031 14.636719 18.144531 13.828125 18.578125 12.808594 C 17.628906 13.660156 17.765625 14.160156 17.726562 15.0625 C 17.683594 16.066406 16.976562 16.867188 16.308594 15.796875 C 15.734375 14.824219 15.472656 13.796875 16.03125 12.707031 Z M 24.636719 17.019531 L 24.011719 17.679688 L 24.636719 18.335938 L 25.257812 17.679688 Z M 17.511719 18.1875 L 16.890625 18.847656 L 17.511719 19.515625 L 18.132812 18.847656 Z M 19.292969 18.1875 L 18.671875 18.847656 L 19.292969 19.515625 L 19.914062 18.847656 Z M 6.832031 20.023438 L 6.207031 20.683594 L 6.832031 21.339844 L 7.453125 20.683594 Z M 8.609375 20.023438 L 7.988281 20.683594 L 8.609375 21.339844 L 9.230469 20.683594 Z "/>
<path style="fill-opacity:.149" d="M 1.332031 0 C 0.59375 0 0 0.59375 0 1.332031 L 0 30.667969 C 0 31.40625 0.59375 32 1.332031 32 L 11.1875 32 L 19.75 0 Z "/>
</g>
</svg>
