<svg width="32" xmlns="http://www.w3.org/2000/svg" height="32" viewBox="0 0 32 32" xmlns:xlink="http://www.w3.org/1999/xlink">
<defs>
<linearGradient gradientTransform="matrix(.66667 0 0 .66667 0 -669.5748)" id="linear0" y1="1050.112" y2="1003.795" gradientUnits="userSpaceOnUse" x2="0">
<stop offset="0" style="stop-color:#8f3f9b"/>
<stop offset="1" style="stop-color:#b263bf"/>
</linearGradient>
</defs>
<path style="fill:url(#linear0)" d="M 1.296875 0 L 30.703125 0 C 31.417969 0 32 0.582031 32 1.296875 L 32 30.703125 C 32 31.417969 31.417969 32 30.703125 32 L 1.296875 32 C 0.582031 32 0 31.417969 0 30.703125 L 0 1.296875 C 0 0.582031 0.582031 0 1.296875 0 Z "/>
<g style="fill:#fff">
<path d="M 22.472656 20.972656 C 24.257812 20.972656 25.710938 19.527344 25.710938 17.738281 C 25.710938 15.949219 24.257812 14.5 22.472656 14.5 C 20.683594 14.5 19.234375 15.949219 19.234375 17.738281 C 19.234375 19.527344 20.683594 20.972656 22.472656 20.972656 M 9.566406 20.972656 C 11.351562 20.972656 12.804688 19.527344 12.804688 17.738281 C 12.804688 15.949219 11.351562 14.5 9.566406 14.5 C 7.777344 14.5 6.328125 15.949219 6.328125 17.738281 C 6.328125 19.527344 7.777344 20.972656 9.566406 20.972656 M 18.445312 14.527344 L 13.605469 14.527344 L 13.605469 17.753906 L 18.445312 17.753906 Z M 21.644531 11.105469 L 10.449219 11.105469 L 10.449219 13.195312 L 21.644531 13.195312 Z M 22.933594 13.191406 L 26.667969 13.191406 L 26.667969 21.996094 L 5.332031 21.996094 L 5.332031 13.191406 L 9.15625 13.191406 L 9.160156 11.296875 C 9.160156 10.582031 9.734375 10.003906 10.449219 10.003906 L 21.636719 10.003906 C 22.34375 10.003906 22.925781 10.582031 22.925781 11.296875 Z "/>
<path style="fill-opacity:.149" d="M 1.332031 0 C 0.59375 0 0 0.59375 0 1.332031 L 0 30.667969 C 0 31.40625 0.59375 32 1.332031 32 L 11.1875 32 L 19.75 0 Z "/>
</g>
</svg>
