<svg width="32" xmlns="http://www.w3.org/2000/svg" height="32" viewBox="0 0 32 32" xmlns:xlink="http://www.w3.org/1999/xlink">
<defs>
<linearGradient gradientTransform="matrix(.66667 0 0 .66667 0 -669.57478)" id="linear0" y1="1053.158" y2="1004.847" gradientUnits="userSpaceOnUse" x2="0">
<stop offset="0" style="stop-color:#9e1e25"/>
<stop offset="1" style="stop-color:#e06359"/>
</linearGradient>
</defs>
<path style="fill:url(#linear0)" d="M 1.296875 0 L 30.703125 0 C 31.417969 0 32 0.582031 32 1.296875 L 32 30.703125 C 32 31.417969 31.417969 32 30.703125 32 L 1.296875 32 C 0.582031 32 0 31.417969 0 30.703125 L 0 1.296875 C 0 0.582031 0.582031 0 1.296875 0 Z "/>
<g style="fill:#fff">
<path d="M 5.332031 8.085938 L 5.332031 23.914062 L 26.667969 23.914062 L 26.667969 8.085938 Z M 8.625 8.445312 L 23.238281 8.445312 L 16.113281 14.355469 Z M 8.625 12.414062 L 14.082031 16.789062 L 8.625 21.480469 Z M 23.238281 12.414062 L 23.238281 23.601562 L 8.625 23.601562 L 8.625 21.929688 L 14.445312 17.058594 L 16.113281 18.367188 L 17.871094 17.058594 L 23.238281 21.929688 L 23.238281 21.480469 L 18.03125 16.789062 Z "/>
<path style="fill-opacity:.149" d="M 1.332031 0 C 0.59375 0 0 0.59375 0 1.332031 L 0 30.667969 C 0 31.40625 0.59375 32 1.332031 32 L 11.1875 32 L 19.75 0 Z "/>
</g>
</svg>
