<svg width="32" xmlns="http://www.w3.org/2000/svg" height="32" viewBox="0 0 32 32" xmlns:xlink="http://www.w3.org/1999/xlink">
<defs>
<linearGradient gradientTransform="matrix(.66667 0 0 .66667 0 -669.5748)" id="linear0" y1="1053.158" y2="1004.847" gradientUnits="userSpaceOnUse" x2="0">
<stop offset="0" style="stop-color:#9e1e25"/>
<stop offset="1" style="stop-color:#e06359"/>
</linearGradient>
</defs>
<path style="fill:url(#linear0)" d="M 1.296875 0 L 30.703125 0 C 31.417969 0 32 0.582031 32 1.296875 L 32 30.703125 C 32 31.417969 31.417969 32 30.703125 32 L 1.296875 32 C 0.582031 32 0 31.417969 0 30.703125 L 0 1.296875 C 0 0.582031 0.582031 0 1.296875 0 Z "/>
<g style="fill:#fff">
<path d="M 6.050781 5.988281 C 5.660156 6.027344 5.332031 6.394531 5.332031 6.789062 L 5.332031 21.1875 C 5.332031 21.605469 5.714844 21.988281 6.132812 21.988281 L 13.332031 21.988281 L 13.332031 23.335938 L 18.667969 23.335938 L 18.667969 21.988281 L 25.867188 21.988281 C 26.285156 21.988281 26.667969 21.605469 26.667969 21.1875 L 26.667969 6.789062 C 26.667969 6.367188 26.285156 5.988281 25.867188 5.988281 Z M 7.109375 7.335938 C 7.140625 7.332031 7.175781 7.332031 7.207031 7.335938 L 24.789062 7.335938 C 25.070312 7.335938 25.324219 7.589844 25.324219 7.871094 L 25.324219 20.144531 C 25.324219 20.425781 25.070312 20.679688 24.789062 20.679688 L 7.207031 20.679688 C 6.929688 20.679688 6.675781 20.425781 6.675781 20.144531 L 6.675781 7.871094 C 6.671875 7.621094 6.863281 7.382812 7.109375 7.335938 Z M 10.015625 23.996094 L 10.015625 25.347656 L 22.683594 25.347656 L 22.683594 23.996094 Z "/>
<path d="M 7.332031 5.332031 L 10 5.332031 C 10.367188 5.332031 10.667969 5.632812 10.667969 6 C 10.667969 6.367188 10.367188 6.667969 10 6.667969 L 7.332031 6.667969 C 6.964844 6.667969 6.667969 6.367188 6.667969 6 C 6.667969 5.632812 6.964844 5.332031 7.332031 5.332031 Z "/>
<path d="M 22.667969 8.667969 L 23.332031 8.667969 C 23.703125 8.667969 24 8.964844 24 9.332031 L 24 10 C 24 10.367188 23.703125 10.667969 23.332031 10.667969 L 22.667969 10.667969 C 22.296875 10.667969 22 10.367188 22 10 L 22 9.332031 C 22 8.964844 22.296875 8.667969 22.667969 8.667969 Z "/>
</g>
<path style="fill:none;stroke:#fff;stroke-width:2" d="M 31.001953 26.501528 C 31.001953 30.087466 28.089844 32.999575 24.498047 32.999575 C 20.912109 32.999575 18 30.087466 18 26.501528 C 18 22.909731 20.912109 19.997622 24.498047 19.997622 C 28.089844 19.997622 31.001953 22.909731 31.001953 26.501528 Z " transform="matrix(.66667 0 0 .66667 -.25 -3.34347)"/>
<path style="fill:#fff;fill-opacity:.149" d="M 1.332031 0 C 0.59375 0 0 0.59375 0 1.332031 L 0 30.667969 C 0 31.40625 0.59375 32 1.332031 32 L 11.1875 32 L 19.75 0 Z "/>
</svg>
