<svg width="32" xmlns="http://www.w3.org/2000/svg" height="32" viewBox="0 0 32 32" xmlns:xlink="http://www.w3.org/1999/xlink">
<defs>
<linearGradient gradientTransform="matrix(.66667 0 0 .66667 0 -669.5748)" id="linear0" y1="1053.158" y2="1004.847" gradientUnits="userSpaceOnUse" x2="0">
<stop offset="0" style="stop-color:#296c20"/>
<stop offset="1" style="stop-color:#76c35a"/>
</linearGradient>
</defs>
<path style="fill:url(#linear0)" d="M 1.296875 0 L 30.703125 0 C 31.417969 0 32 0.582031 32 1.296875 L 32 30.703125 C 32 31.417969 31.417969 32 30.703125 32 L 1.296875 32 C 0.582031 32 0 31.417969 0 30.703125 L 0 1.296875 C 0 0.582031 0.582031 0 1.296875 0 Z "/>
<path style="fill:#fffffc" d="M 13.332031 5.332031 L 13.332031 7.332031 L 10.667969 7.332031 L 10.667969 26.667969 L 21.332031 26.667969 L 21.332031 7.332031 L 18.667969 7.332031 L 18.667969 5.332031 Z M 14 6 L 18 6 L 18 8 L 20.667969 8 L 20.667969 26 L 11.332031 26 L 11.332031 8 L 14 8 Z "/>
<g style="fill:#fff">
<path d="M 12.667969 9.332031 L 12.667969 11.332031 L 17.332031 11.332031 L 17.332031 9.332031 Z "/>
<path d="M 12.667969 12 L 19.332031 12 L 19.332031 14 L 12.667969 14 Z "/>
<path d="M 12.667969 14.667969 L 18 14.667969 L 18 16.667969 L 12.667969 16.667969 Z "/>
<path d="M 12.667969 17.332031 L 12.667969 19.332031 L 17.332031 19.332031 L 17.332031 17.332031 Z "/>
<path d="M 12.667969 20 L 19.332031 20 L 19.332031 22 L 12.667969 22 Z "/>
<path d="M 12.667969 22.667969 L 18 22.667969 L 18 24.667969 L 12.667969 24.667969 Z "/>
<path style="fill-opacity:.149" d="M 1.332031 0 C 0.59375 0 0 0.59375 0 1.332031 L 0 30.667969 C 0 31.40625 0.59375 32 1.332031 32 L 11.1875 32 L 19.75 0 Z "/>
</g>
</svg>
