<svg width="32" xmlns="http://www.w3.org/2000/svg" height="32" viewBox="0 0 32 32" xmlns:xlink="http://www.w3.org/1999/xlink">
<defs>
<linearGradient gradientTransform="matrix(.66667 0 0 .66667 0 -669.5748)" id="linear0" y1="1050.655" y2="1004.112" gradientUnits="userSpaceOnUse" x2="0">
<stop offset="0" style="stop-color:#458704"/>
<stop offset="1" style="stop-color:#61c069"/>
</linearGradient>
</defs>
<path style="fill:url(#linear0)" d="M 1.296875 0 L 30.703125 0 C 31.417969 0 32 0.582031 32 1.296875 L 32 30.703125 C 32 31.417969 31.417969 32 30.703125 32 L 1.296875 32 C 0.582031 32 0 31.417969 0 30.703125 L 0 1.296875 C 0 0.582031 0.582031 0 1.296875 0 Z "/>
<g style="fill:#fff">
<g style="fill-opacity:.8">
<path d="M 8.722656 5.335938 C 8.328125 5.375 7.996094 5.742188 8 6.132812 L 8 25.867188 C 8 26.285156 8.382812 26.667969 8.804688 26.667969 L 23.195312 26.667969 C 23.617188 26.667969 24 26.285156 24 25.867188 L 24 7.476562 L 21.867188 5.332031 L 8.804688 5.332031 C 8.777344 5.332031 8.75 5.332031 8.722656 5.332031 Z M 9.332031 6.667969 L 19.332031 6.667969 L 19.332031 8.667969 L 22.667969 8.667969 L 22.667969 25.332031 L 9.332031 25.332031 Z "/>
<path d="M 10.667969 12.675781 L 10.667969 21.992188 L 21.339844 21.992188 L 21.339844 12.675781 Z M 12 14 L 16.667969 14 L 16.667969 16.667969 L 12 16.667969 Z M 18 14 L 20 14 L 20 16.667969 L 18 16.667969 Z M 12 17.332031 L 16.667969 17.332031 L 16.667969 19.332031 L 12 19.332031 Z M 18 17.332031 L 20 17.332031 L 20 19.332031 L 18 19.332031 Z M 12 20 L 16.667969 20 L 16.667969 20.667969 L 12 20.667969 Z M 18 20 L 20 20 L 20 20.667969 L 18 20.667969 Z "/>
</g>
<path style="fill-opacity:.149" d="M 1.332031 0 C 0.59375 0 0 0.59375 0 1.332031 L 0 30.667969 C 0 31.40625 0.59375 32 1.332031 32 L 11.1875 32 L 19.75 0 Z "/>
</g>
</svg>
