<svg width="32" xmlns="http://www.w3.org/2000/svg" height="32" viewBox="0 0 32 32" xmlns:xlink="http://www.w3.org/1999/xlink">
<defs>
<linearGradient gradientTransform="matrix(.66667 0 0 .66667 0 -669.5748)" id="linear0" y1="1053.158" y2="1004.847" gradientUnits="userSpaceOnUse" x2="0">
<stop offset="0" style="stop-color:#186866"/>
<stop offset="1" style="stop-color:#339ec0"/>
</linearGradient>
</defs>
<path style="fill:url(#linear0)" d="M 1.296875 0 L 30.703125 0 C 31.417969 0 32 0.582031 32 1.296875 L 32 30.703125 C 32 31.417969 31.417969 32 30.703125 32 L 1.296875 32 C 0.582031 32 0 31.417969 0 30.703125 L 0 1.296875 C 0 0.582031 0.582031 0 1.296875 0 Z "/>
<g style="stroke-linecap:round;stroke-linejoin:round;stroke:#fff;fill:none">
<path style="stroke-width:2" d="M 9.199219 1030.477434 L 21.884766 1043.162981 L 38.800781 1026.246966 L 38.800781 1013.561419 L 26.115234 1013.561419 Z " transform="matrix(.66667 0 0 .66667 0 -669.5748)"/>
<path style="stroke-width:2.5" d="M 37.996582 12.500977 C 37.996582 13.87793 36.883301 14.998535 35.499023 14.998535 C 34.12207 14.998535 33.001465 13.87793 33.001465 12.500977 C 33.001465 11.116699 34.12207 10.003418 35.499023 10.003418 C 36.883301 10.003418 37.996582 11.116699 37.996582 12.500977 Z " transform="matrix(.53333 0 0 .53333 3.2 3.2)"/>
</g>
<path style="fill:#fff;fill-opacity:.149" d="M 1.332031 0 C 0.59375 0 0 0.59375 0 1.332031 L 0 30.667969 C 0 31.40625 0.59375 32 1.332031 32 L 11.1875 32 L 19.75 0 Z "/>
</svg>
