<svg width="32" xmlns="http://www.w3.org/2000/svg" height="32" viewBox="0 0 32 32" xmlns:xlink="http://www.w3.org/1999/xlink">
<defs>
<linearGradient gradientTransform="matrix(.66667 0 0 -.66667 0 701.5748)" id="linear0" y1="1053.158" y2="1004.847" gradientUnits="userSpaceOnUse" x2="0">
<stop offset="0" style="stop-color:#fdd726"/>
<stop offset="1" style="stop-color:#ebab3c"/>
</linearGradient>
</defs>
<path style="fill:url(#linear0)" d="M 1.296875 32 L 30.703125 32 C 31.417969 32 32 31.417969 32 30.703125 L 32 1.296875 C 32 0.582031 31.417969 0 30.703125 0 L 1.296875 0 C 0.582031 0 0 0.582031 0 1.296875 L 0 30.703125 C 0 31.417969 0.582031 32 1.296875 32 Z "/>
<path style="fill:none;stroke:#fff;stroke-width:.4" d="M 11.104462 1006.349999 L 11.104462 1010.395857 L 14.550691 1010.395857 L 14.550691 1007.930924 L 13.083892 1006.342516 Z " transform="matrix(4.17576 0 0 4.17576 -37.56488 -4194.70967)"/>
<g style="fill:#fff">
<path d="M 24.007812 11.929688 L 19.222656 6.699219 L 24.03125 6.699219 L 24.03125 11.929688 Z "/>
<path style="fill-opacity:.149" d="M 0 0 L 0 32 L 11.1875 32 L 19.75 0 Z "/>
</g>
</svg>
