<svg width="32" xmlns="http://www.w3.org/2000/svg" height="32" viewBox="0 0 32 32" xmlns:xlink="http://www.w3.org/1999/xlink">
<defs>
<linearGradient gradientTransform="matrix(.66667 0 0 -.66667 0 -669.5748)" id="linear0" y1="-1052.362" y2="-1002.362" gradientUnits="userSpaceOnUse" x2="0">
<stop offset="0" style="stop-color:#407f04"/>
<stop offset="1" style="stop-color:#4d993b"/>
</linearGradient>
</defs>
<path style="fill:url(#linear0)" d="M 1.296875 32 L 30.703125 32 C 31.417969 32 32 31.417969 32 30.703125 L 32 1.296875 C 32 0.582031 31.417969 0 30.703125 0 L 1.296875 0 C 0.582031 0 0 0.582031 0 1.296875 L 0 30.703125 C 0 31.417969 0.582031 32 1.296875 32 Z "/>
<g style="fill:#fff">
<path style="fill-opacity:.149" d="M 1.332031 0 C 0.59375 0 0 0.59375 0 1.332031 L 0 30.667969 C 0 31.40625 0.59375 32 1.332031 32 L 11.1875 32 L 19.75 0 Z "/>
<path style="fill-opacity:.6" d="M 10.15625 21.433594 C 10.15625 23.4375 11.777344 25.058594 13.78125 25.058594 C 15.78125 25.058594 17.414062 23.4375 17.414062 21.433594 C 17.414062 19.429688 15.78125 17.808594 13.78125 17.808594 C 11.777344 17.808594 10.15625 19.429688 10.15625 21.433594 Z M 13.117188 21.433594 C 13.117188 21.066406 13.410156 20.769531 13.78125 20.769531 C 14.148438 20.769531 14.453125 21.066406 14.453125 21.433594 C 14.453125 21.800781 14.148438 22.097656 13.78125 22.097656 C 13.410156 22.097656 13.117188 21.800781 13.117188 21.433594 Z "/>
<path d="M 8.1875 25.625 C 8.1875 26.199219 8.75 26.667969 9.441406 26.667969 L 22.546875 26.667969 C 23.234375 26.667969 23.8125 26.199219 23.8125 25.625 L 23.8125 17.226562 C 23.8125 16.652344 23.234375 16.183594 22.546875 16.183594 L 9.441406 16.183594 C 8.75 16.183594 8.1875 16.652344 8.1875 17.226562 Z M 9.164062 25.625 L 9.164062 17.226562 C 9.164062 17.089844 9.273438 17 9.441406 17 L 22.546875 17 C 22.710938 17 22.835938 17.089844 22.835938 17.226562 L 22.835938 25.625 C 22.835938 25.761719 22.710938 25.851562 22.546875 25.851562 L 9.441406 25.851562 C 9.273438 25.851562 9.164062 25.761719 9.164062 25.625 Z "/>
<path d="M 17.867188 20.203125 L 19.902344 18.574219 L 19.902344 17.761719 L 19.089844 17.761719 Z "/>
<path d="M 16.046875 15.09375 C 16.265625 15.078125 16.480469 14.980469 16.636719 14.828125 L 19.375 11.925781 C 19.546875 11.757812 19.652344 11.519531 19.660156 11.277344 C 19.675781 10.898438 19.4375 10.523438 19.089844 10.375 C 18.738281 10.226562 18.300781 10.320312 18.039062 10.59375 L 16.003906 12.664062 L 13.863281 10.5 C 13.503906 10.207031 12.921875 10.238281 12.597656 10.570312 C 12.273438 10.898438 12.25 11.476562 12.546875 11.832031 L 15.300781 14.828125 C 15.496094 15.019531 15.773438 15.117188 16.046875 15.09375 Z M 17.914062 9.636719 C 18.222656 9.601562 18.480469 9.300781 18.464844 8.992188 L 18.464844 7.433594 C 18.464844 7.105469 18.167969 6.804688 17.835938 6.804688 C 17.507812 6.804688 17.207031 7.105469 17.207031 7.433594 L 17.207031 8.992188 C 17.195312 9.332031 17.515625 9.648438 17.855469 9.636719 C 17.875 9.636719 17.894531 9.636719 17.914062 9.636719 Z M 16.058594 9.761719 C 16.375 9.734375 16.640625 9.433594 16.628906 9.113281 L 16.628906 5.960938 C 16.628906 5.632812 16.328125 5.332031 16 5.332031 C 15.671875 5.332031 15.371094 5.632812 15.371094 5.960938 L 15.371094 9.113281 C 15.359375 9.449219 15.664062 9.761719 16 9.761719 C 16.019531 9.761719 16.039062 9.761719 16.058594 9.761719 Z M 14.21875 9.636719 C 14.53125 9.601562 14.785156 9.300781 14.773438 8.992188 L 14.773438 6.769531 C 14.824219 6.414062 14.511719 6.050781 14.152344 6.050781 C 13.796875 6.050781 13.480469 6.414062 13.535156 6.769531 L 13.535156 8.992188 C 13.519531 9.347656 13.867188 9.671875 14.21875 9.636719 Z "/>
</g>
</svg>
