<svg width="32" xmlns="http://www.w3.org/2000/svg" height="32" viewBox="0 0 32 32" xmlns:xlink="http://www.w3.org/1999/xlink">
<defs>
<linearGradient gradientTransform="matrix(.66667 0 0 -.66667 0 -669.5748)" id="linear0" y1="-1051.702" y2="-1001.474" gradientUnits="userSpaceOnUse" x2="0">
<stop offset="0" style="stop-color:#ce5b00"/>
<stop offset="1" style="stop-color:#edb547"/>
</linearGradient>
</defs>
<path style="fill:url(#linear0)" d="M 1.296875 32 L 30.703125 32 C 31.417969 32 32 31.417969 32 30.703125 L 32 1.296875 C 32 0.582031 31.417969 0 30.703125 0 L 1.296875 0 C 0.582031 0 0 0.582031 0 1.296875 L 0 30.703125 C 0 31.417969 0.582031 32 1.296875 32 Z "/>
<g style="fill:#fff">
<path style="fill-opacity:.149" d="M 0 0 L 0 32 L 11.1875 32 L 19.75 0 Z "/>
<path d="M 17.511719 11.015625 C 17.511719 12.707031 17.449219 14.246094 17.328125 15.636719 C 17.207031 17.007812 17.058594 18.378906 16.875 19.746094 L 15.125 19.746094 C 14.941406 18.378906 14.792969 17.007812 14.671875 15.636719 C 14.550781 14.246094 14.488281 12.707031 14.488281 11.015625 L 14.488281 5.332031 L 17.511719 5.332031 L 17.511719 11.015625 M 18.023438 24.640625 C 18.023438 25.1875 17.84375 25.660156 17.480469 26.0625 C 17.117188 26.464844 16.625 26.667969 16 26.667969 C 15.375 26.667969 14.882812 26.464844 14.519531 26.0625 C 14.15625 25.660156 13.976562 25.1875 13.976562 24.640625 C 13.976562 24.097656 14.15625 23.625 14.519531 23.222656 C 14.882812 22.820312 15.375 22.617188 16 22.617188 C 16.625 22.617188 17.117188 22.820312 17.480469 23.222656 C 17.84375 23.625 18.023438 24.097656 18.023438 24.640625 "/>
</g>
</svg>
