<svg width="32" xmlns="http://www.w3.org/2000/svg" height="32" viewBox="0 0 32 32" xmlns:xlink="http://www.w3.org/1999/xlink">
<defs>
<linearGradient gradientTransform="matrix(.66667 0 0 -.66667 0 -669.5748)" id="linear0" y1="-1003.614" x1="25.456" y2="-1052.934" gradientUnits="userSpaceOnUse" x2="24.489">
<stop offset="0" style="stop-color:#5f8936"/>
<stop offset="1" style="stop-color:#3d550a"/>
</linearGradient>
</defs>
<path style="fill:url(#linear0)" d="M 1.296875 32 L 30.703125 32 C 31.421875 32 32 31.421875 32 30.703125 L 32 1.296875 C 32 0.578125 31.421875 0 30.703125 0 L 1.296875 0 C 0.578125 0 0 0.578125 0 1.296875 L 0 30.703125 C 0 31.421875 0.578125 32 1.296875 32 Z "/>
<g style="fill:#fff">
<path style="fill-opacity:.149" d="M 1.332031 0 C 0.59375 0 0 0.59375 0 1.332031 L 0 30.667969 C 0 31.40625 0.59375 32 1.332031 32 L 11.1875 32 L 19.75 0 Z "/>
<path d="M 6 6 L 6 12.667969 L 12.667969 12.667969 L 12.667969 6 Z M 12.667969 12.667969 L 12.667969 16 L 9.332031 16 L 9.332031 26 L 12.667969 26 L 12.667969 22.667969 L 19.332031 22.667969 L 19.332031 26 L 22.667969 26 L 22.667969 16 L 19.332031 16 L 19.332031 12.667969 Z M 19.332031 12.667969 L 26 12.667969 L 26 6 L 19.332031 6 Z "/>
</g>
</svg>
