<svg width="32" xmlns="http://www.w3.org/2000/svg" height="32" viewBox="0 0 32 32" xmlns:xlink="http://www.w3.org/1999/xlink">
<path style="fill:none;stroke:#b98595;stroke-width:17.397" d="M 123.90625 -160.46875 C 82 -158.3125 48.625 -123.03125 48.625 -79.96875 C 48.625 -35.5 84.15625 0.53125 128 0.53125 C 171.84375 0.53125 207.375 -35.5 207.375 -79.96875 C 207.375 -124.4375 171.84375 -160.46875 128 -160.46875 C 126.625 -160.46875 125.28125 -160.5625 123.90625 -160.46875 Z " transform="matrix(.125 0 0 .125 0 26)"/>
<g style="fill:#b98595">
<path d="M 14.589844 3.5 L 17.410156 3.5 C 17.570312 3.5 17.699219 3.734375 17.699219 4.027344 L 17.699219 5.640625 C 17.699219 5.933594 17.570312 6.171875 17.410156 6.171875 L 14.589844 6.171875 C 14.429688 6.171875 14.300781 5.933594 14.300781 5.640625 L 14.300781 4.027344 C 14.300781 3.734375 14.429688 3.5 14.589844 3.5 Z "/>
<path d="M 14.589844 25.828125 L 17.410156 25.828125 C 17.570312 25.828125 17.699219 26.066406 17.699219 26.359375 L 17.699219 27.972656 C 17.699219 28.265625 17.570312 28.5 17.410156 28.5 L 14.589844 28.5 C 14.429688 28.5 14.300781 28.265625 14.300781 27.972656 L 14.300781 26.359375 C 14.300781 26.066406 14.429688 25.828125 14.589844 25.828125 Z "/>
<path d="M 18.320312 16.003906 C 18.320312 17.214844 17.28125 18.199219 16 18.199219 C 14.71875 18.199219 13.679688 17.214844 13.679688 16.003906 C 13.679688 14.789062 14.71875 13.804688 16 13.804688 C 17.28125 13.804688 18.320312 14.789062 18.320312 16.003906 Z "/>
<path d="M 28.5 14.613281 L 28.5 17.390625 C 28.5 17.546875 28.25 17.675781 27.941406 17.675781 L 26.238281 17.675781 C 25.929688 17.675781 25.679688 17.546875 25.679688 17.390625 L 25.679688 14.613281 C 25.679688 14.457031 25.929688 14.328125 26.238281 14.328125 L 27.941406 14.328125 C 28.25 14.328125 28.5 14.457031 28.5 14.613281 Z "/>
<path d="M 6.320312 14.613281 L 6.320312 17.390625 C 6.320312 17.546875 6.070312 17.675781 5.761719 17.675781 L 4.058594 17.675781 C 3.75 17.675781 3.5 17.546875 3.5 17.390625 L 3.5 14.613281 C 3.5 14.457031 3.75 14.328125 4.058594 14.328125 L 5.761719 14.328125 C 6.070312 14.328125 6.320312 14.457031 6.320312 14.613281 Z "/>
<path d="M 24.339844 6.21875 L 26.332031 8.105469 C 26.445312 8.210938 26.359375 8.464844 26.140625 8.671875 L 24.9375 9.8125 C 24.71875 10.019531 24.453125 10.101562 24.339844 9.992188 L 22.34375 8.105469 C 22.230469 8 22.316406 7.746094 22.535156 7.539062 L 23.742188 6.398438 C 23.960938 6.191406 24.226562 6.109375 24.339844 6.21875 Z "/>
<path d="M 7.660156 22.007812 L 9.65625 23.894531 C 9.769531 24 9.683594 24.253906 9.464844 24.460938 L 8.257812 25.601562 C 8.039062 25.808594 7.773438 25.890625 7.660156 25.78125 L 5.667969 23.894531 C 5.554688 23.789062 5.640625 23.535156 5.859375 23.328125 L 7.0625 22.1875 C 7.28125 21.980469 7.546875 21.898438 7.660156 22.007812 Z "/>
<path d="M 26.332031 23.894531 L 24.339844 25.78125 C 24.226562 25.890625 23.960938 25.808594 23.742188 25.601562 L 22.535156 24.460938 C 22.316406 24.253906 22.230469 24 22.34375 23.894531 L 24.339844 22.007812 C 24.453125 21.898438 24.71875 21.980469 24.9375 22.1875 L 26.140625 23.328125 C 26.359375 23.535156 26.445312 23.789062 26.332031 23.894531 Z "/>
<path d="M 9.65625 8.105469 L 7.660156 9.992188 C 7.546875 10.101562 7.28125 10.019531 7.0625 9.8125 L 5.859375 8.671875 C 5.640625 8.464844 5.554688 8.210938 5.667969 8.105469 L 7.660156 6.21875 C 7.773438 6.109375 8.039062 6.191406 8.257812 6.398438 L 9.464844 7.539062 C 9.683594 7.746094 9.769531 8 9.65625 8.105469 Z "/>
</g>
</svg>
