<svg width="32" xmlns="http://www.w3.org/2000/svg" height="32" viewBox="0 0 32 32" xmlns:xlink="http://www.w3.org/1999/xlink">
<path style="fill:#9e85b9" d="M 15.996094 9.75 C 15.773438 9.75 15.5625 9.769531 15.351562 9.777344 C 12.761719 9.875 10.757812 10.535156 9.367188 11.226562 C 7.867188 11.976562 6.992188 12.816406 6.992188 12.816406 C 6.5 13.316406 6.503906 14.214844 7 14.710938 C 7.496094 15.203125 8.394531 15.207031 8.894531 14.71875 C 8.894531 14.71875 9.265625 14.351562 10.097656 13.882812 C 9.851562 14.546875 9.730469 15.257812 9.730469 16 C 9.730469 19.4375 12.550781 22.25 15.996094 22.25 C 19.4375 22.25 22.257812 19.4375 22.257812 16 C 22.257812 15.257812 22.136719 14.546875 21.894531 13.882812 C 22.722656 14.351562 23.09375 14.71875 23.09375 14.71875 C 23.59375 15.21875 24.503906 15.222656 25.003906 14.726562 C 25.5 14.230469 25.5 13.320312 24.996094 12.824219 C 24.996094 12.824219 24.121094 11.984375 22.621094 11.234375 C 21.230469 10.542969 19.226562 9.882812 16.636719 9.785156 C 16.425781 9.761719 16.210938 9.757812 15.996094 9.757812 Z M 15.996094 11.714844 C 17.988281 11.714844 20.746094 12.625 20.746094 16 C 20.746094 18.953125 18.867188 20.703125 15.996094 20.703125 C 13.164062 20.703125 11.285156 18.910156 11.285156 16 C 11.285156 13.003906 14.003906 11.714844 15.996094 11.714844 Z "/>
<g style="stroke-linecap:round;stroke-linejoin:round;stroke:#9e85b9">
<path style="fill:#9e85b9;stroke-width:3.186" d="M 25.001631 24.001906 C 25.001631 24.553301 24.551877 24.999668 24.001692 24.999668 C 23.447141 24.999668 23.001754 24.553301 23.001754 24.001906 C 23.001754 23.446135 23.447141 22.999768 24.001692 22.999768 C 24.551877 22.999768 25.001631 23.446135 25.001631 24.001906 Z " transform="matrix(.89459 0 0 .89262 -5.47549 -5.42464)"/>
<path style="fill:none;stroke-width:8" d="M 179.706994 127.813932 C 179.706994 173.466477 153.596921 210.485745 121.397709 210.485745 C 89.198497 210.485745 63.088424 173.466477 63.088424 127.813932 C 63.088424 82.161388 89.198497 45.142119 121.397709 45.142119 C 153.596921 45.142119 179.706994 82.161388 179.706994 127.813932 Z " transform="matrix(.20272 0 0 .14298 -8.60944 -2.27468)"/>
<path style="fill:#9e85b9;stroke-width:1.648" d="M 64.713537 -223.726312 L 72.79092 -223.754167 C 74.066525 -223.735714 75.109292 -222.70772 75.106305 -221.432246 L 75.117198 -42.934771 C 75.114212 -41.659298 74.071949 -40.613231 72.769508 -40.615994 L 64.702945 -40.630857 C 63.443357 -40.622281 62.40059 -41.650276 62.38756 -42.952778 L 62.392683 -221.423224 C 62.395669 -222.698698 63.437932 -223.744765 64.713537 -223.726312 Z " transform="matrix(.10811 .06276 -.06406 .10734 0 26)"/>
</g>
</svg>
