<svg width="32" xmlns="http://www.w3.org/2000/svg" height="32" viewBox="0 0 32 32" xmlns:xlink="http://www.w3.org/1999/xlink">
<g style="stroke:#c3be67">
<path style="fill:#c3be67;stroke-width:.674" d="M 3.857528 1022.751087 L 6.249395 1022.751087 C 6.860085 1022.751087 7.35627 1023.242358 7.35627 1023.853298 L 7.35627 1032.87253 C 7.35627 1033.483469 6.860085 1033.97474 6.249395 1033.97474 L 3.857528 1033.97474 C 3.246839 1033.97474 2.750653 1033.483469 2.750653 1032.87253 L 2.750653 1023.853298 C 2.750653 1023.242358 3.246839 1022.751087 3.857528 1022.751087 Z " transform="matrix(.61406 0 0 .6202 2.01796 -621.79325)"/>
<g style="stroke-linejoin:round">
<path style="fill:#c3be67;stroke-linecap:round;stroke-width:.491" d="M 6.891892 1023.267552 L 20.517901 1011.483346 L 20.517901 1026.423023 L 22.171852 1028.847886 L 20.517901 1030.66181 L 20.517901 1045.242481 L 6.841001 1033.867668 Z " transform="matrix(.61406 0 0 .6202 2.01796 -621.79325)"/>
<g style="stroke-width:11.128;fill:none">
<path d="M 138.78125 -113.84375 C 157.28125 -95.15625 157.28125 -64.84375 138.78125 -46.15625 " transform="matrix(.125 0 0 .125 0 26)"/>
<path d="M 163.21875 -137.46875 C 194.625 -105.71875 194.625 -54.28125 163.21875 -22.53125 " transform="matrix(.125 0 0 .125 0 26)"/>
<path d="M 188.625 -162.4375 C 233.71875 -116.90625 233.71875 -43.09375 188.625 2.4375 " transform="matrix(.125 0 0 .125 0 26)"/>
</g>
</g>
</g>
</svg>
