<svg width="32" xmlns="http://www.w3.org/2000/svg" height="32" viewBox="0 0 32 32" xmlns:xlink="http://www.w3.org/1999/xlink">
<path style="fill:#d292c5" d="M 6.050781 6.050781 C 5.660156 6.089844 5.332031 6.457031 5.332031 6.851562 L 5.332031 21.25 C 5.332031 21.667969 5.714844 22.050781 6.132812 22.050781 L 13.332031 22.050781 L 13.332031 23.359375 L 18.667969 23.359375 L 18.667969 22.050781 L 25.867188 22.050781 C 26.285156 22.050781 26.667969 21.667969 26.667969 21.25 L 26.667969 6.851562 C 26.667969 6.429688 26.285156 6.050781 25.867188 6.050781 Z M 12.265625 8.714844 C 13.488281 8.714844 14.582031 9.253906 15.332031 10.101562 C 15.226562 10.089844 15.109375 10.082031 15 10.082031 C 12.730469 10.082031 10.898438 11.929688 10.898438 14.199219 C 10.898438 15.246094 11.289062 16.191406 11.933594 16.917969 C 9.816406 16.75 8.148438 14.992188 8.148438 12.832031 C 8.148438 10.5625 9.996094 8.714844 12.265625 8.714844 Z M 18.882812 10 L 19.199219 11.285156 L 20.484375 11.601562 L 19.199219 11.917969 L 18.882812 13.199219 L 18.566406 11.917969 L 17.285156 11.601562 L 18.566406 11.285156 Z M 21.117188 14.367188 L 21.433594 15.648438 L 22.714844 15.964844 L 21.433594 16.285156 L 21.117188 17.566406 L 20.800781 16.285156 L 19.515625 15.964844 L 20.800781 15.648438 Z M 16.214844 15.433594 L 16.535156 16.714844 L 17.816406 17.035156 L 16.535156 17.351562 L 16.214844 18.632812 L 15.898438 17.351562 L 14.617188 17.035156 L 15.898438 16.714844 Z M 9.390625 24.058594 L 9.390625 25.324219 L 22.726562 25.324219 L 22.726562 24.058594 Z "/>
</svg>
