<svg width="32" xmlns="http://www.w3.org/2000/svg" height="32" viewBox="0 0 32 32" xmlns:xlink="http://www.w3.org/1999/xlink">
<path style="fill:#7f7f7f" d="M 19.554688 7.703125 L 21.925781 7.703125 C 25.480469 7.703125 25.332031 11.332031 25.332031 11.332031 L 25.332031 14.667969 C 25.332031 15.851562 23.332031 18 23.332031 18 L 23.332031 19.332031 L 26.667969 21.925781 L 26.667969 24.667969 L 13.332031 24.667969 L 13.628906 21.925781 L 18 19.332031 L 18 18 C 18 18 15.992188 15.964844 16 14.777344 L 16 11.257812 C 16 11.257812 16 7.703125 19.554688 7.703125 Z M 11.257812 9.984375 L 14.011719 9.984375 L 14.011719 14.777344 C 14.011719 16.667969 15.980469 18.667969 15.980469 18.667969 L 11.347656 20.652344 L 11.332031 23.332031 L 5.332031 23.332031 L 5.332031 22 L 10 19.332031 L 10 18 C 10 18 7.992188 16.519531 8 15.332031 L 8 13.332031 C 8 9.777344 11.257812 9.984375 11.257812 9.984375 Z "/>
</svg>
