<svg width="32" xmlns="http://www.w3.org/2000/svg" height="32" viewBox="0 0 32 32" xmlns:xlink="http://www.w3.org/1999/xlink">
<defs>
<linearGradient gradientTransform="matrix(.66667 0 0 -.66667 0 701.5748)" id="linear0" y1="1005.798" y2="1053.107" gradientUnits="userSpaceOnUse" x2="0">
<stop offset="0" style="stop-color:#464745"/>
<stop offset="1" style="stop-color:#828680"/>
</linearGradient>
</defs>
<path style="fill:url(#linear0)" d="M 1.296875 32 L 30.703125 32 C 31.417969 32 32 31.417969 32 30.703125 L 32 1.296875 C 32 0.582031 31.417969 0 30.703125 0 L 1.296875 0 C 0.582031 0 0 0.582031 0 1.296875 L 0 30.703125 C 0 31.417969 0.582031 32 1.296875 32 Z "/>
<path style="fill:none;stroke:#fff;stroke-width:2.542" d="M 23.016832 1017.73736 C 17.056226 1018.061784 12.316334 1023.357046 12.316334 1029.829033 C 12.316334 1036.504472 17.369653 1041.915207 23.599696 1041.915207 C 29.829739 1041.915207 34.883058 1036.504472 34.883058 1029.829033 C 34.883058 1023.153594 29.829739 1017.73736 23.599696 1017.73736 C 23.407241 1017.73736 23.209287 1017.726363 23.016832 1017.73736 Z " transform="matrix(.71039 0 0 .71039 -.76507 -715.57977)"/>
<g style="fill:#fff">
<path d="M 14.863281 5.332031 L 17.136719 5.332031 C 17.269531 5.332031 17.371094 5.535156 17.371094 5.785156 L 17.371094 7.160156 C 17.371094 7.410156 17.269531 7.613281 17.136719 7.613281 L 14.863281 7.613281 C 14.730469 7.613281 14.628906 7.410156 14.628906 7.160156 L 14.628906 5.785156 C 14.628906 5.535156 14.730469 5.332031 14.863281 5.332031 Z "/>
<path d="M 14.863281 24.386719 L 17.136719 24.386719 C 17.269531 24.386719 17.371094 24.589844 17.371094 24.839844 L 17.371094 26.214844 C 17.371094 26.464844 17.269531 26.667969 17.136719 26.667969 L 14.863281 26.667969 C 14.730469 26.667969 14.628906 26.464844 14.628906 26.214844 L 14.628906 24.839844 C 14.628906 24.589844 14.730469 24.386719 14.863281 24.386719 Z "/>
<path d="M 17.875 16 C 17.875 17.035156 17.035156 17.875 16 17.875 C 14.964844 17.875 14.125 17.035156 14.125 16 C 14.125 14.96875 14.964844 14.128906 16 14.128906 C 17.035156 14.128906 17.875 14.96875 17.875 16 Z "/>
<path d="M 26.097656 14.816406 L 26.097656 17.1875 C 26.097656 17.320312 25.898438 17.429688 25.648438 17.429688 L 24.269531 17.429688 C 24.019531 17.429688 23.820312 17.320312 23.820312 17.1875 L 23.820312 14.816406 C 23.820312 14.683594 24.019531 14.574219 24.269531 14.574219 L 25.648438 14.574219 C 25.898438 14.574219 26.097656 14.683594 26.097656 14.816406 Z "/>
<path d="M 8.179688 14.816406 L 8.179688 17.1875 C 8.179688 17.320312 7.980469 17.429688 7.730469 17.429688 L 6.351562 17.429688 C 6.101562 17.429688 5.902344 17.320312 5.902344 17.1875 L 5.902344 14.816406 C 5.902344 14.683594 6.101562 14.574219 6.351562 14.574219 L 7.730469 14.574219 C 7.980469 14.574219 8.179688 14.683594 8.179688 14.816406 Z "/>
<path d="M 22.738281 7.652344 L 24.347656 9.261719 C 24.4375 9.355469 24.371094 9.570312 24.195312 9.746094 L 23.21875 10.71875 C 23.042969 10.894531 22.828125 10.964844 22.734375 10.875 L 21.125 9.265625 C 21.035156 9.171875 21.101562 8.957031 21.28125 8.78125 L 22.253906 7.804688 C 22.429688 7.628906 22.644531 7.5625 22.738281 7.652344 Z "/>
<path d="M 9.265625 21.125 L 10.875 22.734375 C 10.964844 22.828125 10.898438 23.042969 10.71875 23.21875 L 9.746094 24.191406 C 9.570312 24.371094 9.355469 24.4375 9.261719 24.347656 L 7.652344 22.738281 C 7.5625 22.644531 7.628906 22.429688 7.804688 22.253906 L 8.78125 21.28125 C 8.957031 21.101562 9.171875 21.035156 9.265625 21.125 Z "/>
<path d="M 24.347656 22.738281 L 22.738281 24.347656 C 22.644531 24.4375 22.429688 24.371094 22.253906 24.191406 L 21.28125 23.21875 C 21.101562 23.042969 21.035156 22.828125 21.125 22.734375 L 22.734375 21.125 C 22.828125 21.035156 23.042969 21.101562 23.21875 21.28125 L 24.195312 22.253906 C 24.371094 22.429688 24.4375 22.644531 24.347656 22.738281 Z "/>
<path d="M 10.875 9.265625 L 9.265625 10.875 C 9.171875 10.964844 8.957031 10.894531 8.78125 10.71875 L 7.804688 9.746094 C 7.628906 9.570312 7.5625 9.355469 7.652344 9.261719 L 9.261719 7.652344 C 9.355469 7.5625 9.570312 7.628906 9.746094 7.804688 L 10.71875 8.78125 C 10.898438 8.957031 10.964844 9.171875 10.875 9.265625 Z "/>
<path style="fill-opacity:.149" d="M 0 0 L 0 32 L 11.1875 32 L 19.75 0 Z "/>
</g>
</svg>
