<svg width="32" xmlns="http://www.w3.org/2000/svg" height="32" viewBox="0 0 32 32" xmlns:xlink="http://www.w3.org/1999/xlink">
<defs>
<linearGradient gradientTransform="matrix(.66667 0 0 -.66667 0 701.5748)" id="linear0" y1="1053.158" y2="1004.847" gradientUnits="userSpaceOnUse" x2="0">
<stop offset="0" style="stop-color:#536b7e"/>
<stop offset="1" style="stop-color:#4b5f6c"/>
</linearGradient>
</defs>
<path style="fill:url(#linear0)" d="M 1.296875 32 L 30.703125 32 C 31.417969 32 32 31.417969 32 30.703125 L 32 1.296875 C 32 0.582031 31.417969 0 30.703125 0 L 1.296875 0 C 0.582031 0 0 0.582031 0 1.296875 L 0 30.703125 C 0 31.417969 0.582031 32 1.296875 32 Z "/>
<path style="fill:#fff;fill-opacity:.149" d="M 0 0 L 0 32 L 11.1875 32 L 19.75 0 Z "/>
<path style="fill:none;stroke:#fff;stroke-width:1.6" d="M 28.372486 19.874806 C 28.376629 24.983353 24.233444 29.126538 19.124897 29.122395 C 14.01635 29.126538 9.873166 24.983353 9.877309 19.874806 C 9.873166 14.766259 14.01635 10.623074 19.124897 10.627217 C 24.233444 10.623074 28.376629 14.766259 28.372486 19.874806 Z " transform="matrix(.47141 -.47141 .47141 .47141 -5.4355 12.59571)"/>
<g style="fill:#fff">
<path d="M 20.589844 22.199219 L 22.199219 20.589844 L 25.753906 24.144531 L 24.144531 25.753906 Z "/>
<path d="M 17.175781 18.304688 L 18.304688 17.175781 L 21.863281 20.730469 L 20.730469 21.863281 Z "/>
</g>
</svg>
