<svg width="32" xmlns="http://www.w3.org/2000/svg" height="32" viewBox="0 0 32 32" xmlns:xlink="http://www.w3.org/1999/xlink">
<path style="fill:#ee8154" d="M 4.339844 4.625 C 3.882812 4.671875 3.496094 5.105469 3.5 5.566406 L 3.5 22.527344 C 3.5 23.019531 3.945312 23.46875 4.4375 23.46875 L 12.875 23.46875 L 12.875 25.007812 L 19.125 25.007812 L 19.125 23.46875 L 27.5625 23.46875 C 28.054688 23.46875 28.5 23.019531 28.5 22.527344 L 28.5 5.566406 C 28.5 5.074219 28.054688 4.625 27.5625 4.625 Z M 16 8.539062 C 16 8.539062 19.125 8.398438 19.128906 10.90625 L 19.128906 12.445312 C 19.128906 12.445312 20.71875 12.445312 20.71875 13.015625 L 20.71875 18.589844 C 20.714844 19.070312 19.929688 19.492188 19.4375 19.492188 L 12.5625 19.492188 C 12.070312 19.492188 11.382812 19.070312 11.382812 18.589844 L 11.382812 13.015625 C 11.382812 12.445312 12.886719 12.441406 12.886719 12.441406 L 12.847656 10.90625 C 12.875 8.394531 16 8.539062 16 8.539062 Z M 16 9.796875 C 16 9.796875 14.125 9.648438 14.125 11.535156 L 14.125 12.445312 L 17.875 12.445312 L 17.875 11.535156 C 17.875 9.648438 16 9.796875 16 9.796875 Z M 8.207031 25.785156 L 8.207031 27.375 L 23.929688 27.375 L 23.929688 25.785156 Z "/>
</svg>
