<svg width="32" xmlns="http://www.w3.org/2000/svg" height="32" viewBox="0 0 32 32" xmlns:xlink="http://www.w3.org/1999/xlink">
<defs>
<linearGradient gradientTransform="matrix(.66667 0 0 .66667 -.08333 -669.49147)" id="linear0" y1="1053.158" y2="1004.847" gradientUnits="userSpaceOnUse" x2="0">
<stop offset="0" style="stop-color:#5280cc"/>
<stop offset="1" style="stop-color:#599ee0"/>
</linearGradient>
</defs>
<path style="fill:url(#linear0)" d="M 1.214844 0.0820312 L 30.621094 0.0820312 C 31.335938 0.0820312 31.917969 0.664062 31.917969 1.378906 L 31.917969 30.785156 C 31.917969 31.503906 31.335938 32.082031 30.621094 32.082031 L 1.214844 32.082031 C 0.496094 32.082031 -0.0820312 31.503906 -0.0820312 30.785156 L -0.0820312 1.378906 C -0.0820312 0.664062 0.496094 0.0820312 1.214844 0.0820312 Z "/>
<g style="fill:#fff">
<path style="fill-opacity:.149" d="M 0 0 L 0 32 L 11.1875 32 L 19.75 0 Z "/>
<path d="M 16 12 L 16 20 L 22.667969 16 Z "/>
</g>
<path style="fill:none;stroke:#fff;stroke-width:2" d="M 10.945312 1013.3622 L 37.054688 1013.3622 C 38.126953 1013.3622 39 1014.235247 39 1015.307513 L 39 1041.416888 C 39 1042.489153 38.126953 1043.3622 37.054688 1043.3622 L 10.945312 1043.3622 C 9.873047 1043.3622 9 1042.489153 9 1041.416888 L 9 1015.307513 C 9 1014.235247 9.873047 1013.3622 10.945312 1013.3622 Z " transform="matrix(.66667 0 0 .66667 0 -669.5748)"/>
<path style="fill:#fff" d="M 16 12 L 16 6 L 6 6 L 6 26 L 16 26 L 16 20 L 10.667969 23.332031 L 10.667969 8.667969 Z "/>
</svg>
