<svg width="32" xmlns="http://www.w3.org/2000/svg" height="32" viewBox="0 0 32 32" xmlns:xlink="http://www.w3.org/1999/xlink">
<defs>
<linearGradient gradientTransform="matrix(.66667 0 0 .66667 0 -669.5748)" id="linear0" y1="1050.112" y2="1003.795" gradientUnits="userSpaceOnUse" x2="0">
<stop offset="0" style="stop-color:#8f3f9b"/>
<stop offset="1" style="stop-color:#b263bf"/>
</linearGradient>
</defs>
<path style="fill:url(#linear0)" d="M 1.296875 0 L 30.703125 0 C 31.417969 0 32 0.582031 32 1.296875 L 32 30.703125 C 32 31.417969 31.417969 32 30.703125 32 L 1.296875 32 C 0.582031 32 0 31.417969 0 30.703125 L 0 1.296875 C 0 0.582031 0.582031 0 1.296875 0 Z "/>
<g style="fill:#fff">
<path d="M 21.5625 20.386719 L 22.617188 21.042969 L 21.90625 22.292969 L 20.832031 21.621094 Z "/>
<path d="M 5.332031 9.707031 L 5.335938 10.683594 L 8.152344 10.941406 L 13.480469 17.367188 L 13.644531 20.691406 C 13.503906 21.269531 13.046875 21.0625 12.722656 21.183594 L 10.75 21.199219 L 10.769531 22.050781 L 19.546875 21.976562 L 19.546875 21.148438 L 16.960938 21.128906 C 16.636719 21.179688 16.664062 20.941406 16.636719 20.746094 L 16.472656 17.585938 C 16.511719 17.332031 16.566406 17.078125 16.90625 16.824219 L 22.019531 12.738281 L 24.410156 12.300781 L 24.789062 11.546875 L 16.832031 11.546875 L 16.960938 12.355469 L 19.246094 12.574219 C 19.382812 12.683594 19.652344 12.675781 19.355469 13.175781 L 16.039062 16.0625 C 15.863281 16.164062 15.726562 16.109375 15.601562 16.007812 L 11.90625 11.160156 C 11.632812 10.769531 11.898438 10.699219 12.230469 10.667969 L 14.625 10.558594 L 14.625 9.742188 Z "/>
<path d="M 22.074219 19.25 L 22.96875 19.820312 L 26.667969 13.746094 L 24.574219 12.546875 Z "/>
<path style="fill-opacity:.149" d="M 1.332031 0 C 0.59375 0 0 0.59375 0 1.332031 L 0 30.667969 C 0 31.40625 0.59375 32 1.332031 32 L 11.1875 32 L 19.75 0 Z "/>
</g>
</svg>
