<svg xmlns="http://www.w3.org/2000/svg" viewBox="0 0 22 22">
 <path d="m 3 1 c -1.108 0 -2 0.892 -2 2 l 0 16 c 0 1.108 0.892 2 2 2 l 16 0 c 1.108 0 2 -0.892 2 -2 l 0 -16 c 0 -1.108 -0.892 -2 -2 -2 l -16 0 z m -0.598 6.074 l 0.607 0 c 0.382 0.428 0.79 0.922 1.225 1.484 c 0.442 0.555 0.875 1.126 1.295 1.711 c 0.42 0.577 0.81 1.142 1.17 1.697 c 0.367 0.555 0.668 1.039 0.9 1.451 l 0 -6.344 l 0.754 0 l 0 7.795 l -0.643 0 c -0.143 -0.263 -0.326 -0.569 -0.551 -0.922 c -0.217 -0.353 -0.458 -0.728 -0.721 -1.125 c -0.262 -0.405 -0.54 -0.816 -0.832 -1.236 c -0.293 -0.428 -0.584 -0.841 -0.877 -1.238 c -0.285 -0.405 -0.566 -0.784 -0.844 -1.137 c -0.27 -0.352 -0.513 -0.655 -0.73 -0.91 l 0 6.568 l -0.754 0 l 0 -7.795 z m 10.236 1.844 c 0.39 0 0.746 0.077 1.068 0.227 c 0.322 0.143 0.601 0.347 0.834 0.617 c 0.24 0.263 0.423 0.582 0.551 0.957 c 0.135 0.375 0.201 0.791 0.201 1.248 c 0 0.457 -0.066 0.875 -0.201 1.25 c -0.127 0.375 -0.311 0.693 -0.551 0.955 c -0.233 0.262 -0.511 0.469 -0.834 0.619 c -0.322 0.142 -0.678 0.215 -1.068 0.215 c -0.39 0 -0.746 -0.072 -1.068 -0.215 c -0.322 -0.15 -0.604 -0.357 -0.844 -0.619 c -0.232 -0.262 -0.416 -0.58 -0.551 -0.955 c -0.127 -0.375 -0.191 -0.793 -0.191 -1.25 c 0 -0.457 0.064 -0.873 0.191 -1.248 c 0.135 -0.375 0.318 -0.695 0.551 -0.957 c 0.24 -0.27 0.521 -0.475 0.844 -0.617 c 0.322 -0.15 0.678 -0.227 1.068 -0.227 z m 0 0.664 c -0.578 0 -1.036 0.217 -1.373 0.652 c -0.338 0.428 -0.506 1 -0.506 1.732 c 0 0.728 0.168 1.305 0.506 1.732 c 0.338 0.428 0.796 0.643 1.373 0.643 c 0.578 0 1.036 -0.215 1.373 -0.643 c 0.338 -0.428 0.506 -1 0.506 -1.732 c 0 -0.727 -0.168 -1.305 -0.506 -1.732 c -0.337 -0.435 -0.796 -0.652 -1.373 -0.652 z m 6.623 2.449 l 0.029 0.402 c -0.297 0.02 -0.573 0.066 -0.826 0.139 c -0.249 0.068 -0.471 0.177 -0.666 0.328 c -0.195 0.146 -0.357 0.336 -0.488 0.57 c -0.132 0.234 -0.223 0.522 -0.271 0.863 c 0.132 -0.068 0.289 -0.127 0.475 -0.176 c 0.185 -0.054 0.384 -0.08 0.594 -0.08 c 0.273 0 0.503 0.043 0.693 0.131 c 0.19 0.083 0.344 0.197 0.461 0.338 c 0.117 0.141 0.202 0.303 0.256 0.488 c 0.054 0.185 0.08 0.381 0.08 0.586 c 0 0.19 -0.029 0.38 -0.088 0.57 c -0.058 0.19 -0.151 0.364 -0.277 0.52 c -0.122 0.151 -0.277 0.276 -0.467 0.373 c -0.185 0.098 -0.408 0.146 -0.666 0.146 c -0.531 0 -0.937 -0.186 -1.215 -0.557 c -0.273 -0.375 -0.408 -0.897 -0.408 -1.564 c 0 -0.99 0.236 -1.74 0.709 -2.252 c 0.478 -0.512 1.169 -0.787 2.076 -0.826 z m -1.199 2.463 c -0.224 0 -0.421 0.028 -0.592 0.082 c -0.166 0.049 -0.323 0.106 -0.469 0.174 c -0.01 0.083 -0.014 0.149 -0.014 0.197 l 0 0.17 c 0 0.229 0.014 0.446 0.043 0.65 c 0.034 0.205 0.093 0.385 0.176 0.541 c 0.088 0.156 0.202 0.28 0.344 0.373 c 0.141 0.088 0.322 0.131 0.541 0.131 c 0.18 0 0.334 -0.03 0.461 -0.094 c 0.127 -0.068 0.229 -0.156 0.307 -0.264 c 0.078 -0.107 0.134 -0.232 0.168 -0.373 c 0.039 -0.141 0.059 -0.291 0.059 -0.447 c 0 -0.39 -0.086 -0.676 -0.262 -0.861 c -0.171 -0.185 -0.425 -0.279 -0.762 -0.279 z" style="fill:#ececec;fill-opacity:1"/>
</svg>
