<svg xmlns="http://www.w3.org/2000/svg" viewBox="0 0 22 22">
 <path d="m 3 1 c -1.108 0 -2 0.892 -2 2 l 0 16 c 0 1.108 0.892 2 2 2 l 16 0 c 1.108 0 2 -0.892 2 -2 l 0 -16 c 0 -1.108 -0.892 -2 -2 -2 l -16 0 z m 0.424 6.074 l 4.5 0 l 0 0.664 l -3.736 0 l 0 2.711 l 3.33 0 l 0 0.652 l -3.33 0 l 0 3.105 l 4.03 0 l 0 0.662 l -4.791 0 l 0 -7.795 z m 8.422 1.867 c 0.442 0 0.811 0.064 1.104 0.191 c 0.3 0.127 0.535 0.311 0.707 0.551 c 0.18 0.232 0.308 0.514 0.383 0.844 c 0.075 0.33 0.113 0.694 0.113 1.092 l 0 3.25 l -0.732 0 l 0 -3.01 c 0 -0.412 -0.03 -0.762 -0.09 -1.047 c -0.053 -0.285 -0.146 -0.517 -0.281 -0.697 c -0.127 -0.18 -0.3 -0.308 -0.518 -0.383 c -0.21 -0.082 -0.476 -0.123 -0.799 -0.123 c -0.345 0 -0.643 0.019 -0.898 0.057 c -0.247 0.037 -0.409 0.07 -0.484 0.1 l 0 5.107 l -0.73 0 l 0 -5.613 c 0.218 -0.06 0.509 -0.126 0.877 -0.201 c 0.368 -0.075 0.817 -0.113 1.35 -0.113 z m 4.273 3.111 l 2.281 0 l 0 0.416 l -1.863 0 c -0.005 0.093 -0.012 0.213 -0.021 0.359 c -0.01 0.146 -0.02 0.297 -0.029 0.453 c -0.01 0.151 -0.022 0.296 -0.037 0.438 c -0.015 0.141 -0.027 0.255 -0.037 0.338 c 0.375 0.01 0.7 0.056 0.973 0.139 c 0.273 0.083 0.498 0.195 0.674 0.336 c 0.175 0.141 0.304 0.312 0.387 0.512 c 0.088 0.2 0.131 0.422 0.131 0.666 c 0 0.215 -0.036 0.414 -0.109 0.6 c -0.068 0.185 -0.176 0.346 -0.322 0.482 c -0.146 0.137 -0.33 0.244 -0.555 0.322 c -0.224 0.078 -0.49 0.117 -0.797 0.117 c -0.156 0 -0.303 -0.013 -0.439 -0.037 c -0.132 -0.02 -0.25 -0.045 -0.357 -0.074 c -0.102 -0.029 -0.191 -0.057 -0.264 -0.086 c -0.073 -0.029 -0.126 -0.055 -0.16 -0.074 l 0.123 -0.424 c 0.029 0.02 0.078 0.043 0.146 0.072 c 0.073 0.029 0.155 0.059 0.248 0.088 c 0.098 0.024 0.205 0.047 0.322 0.066 c 0.122 0.02 0.249 0.029 0.381 0.029 c 0.244 0 0.447 -0.026 0.607 -0.08 c 0.166 -0.059 0.297 -0.137 0.395 -0.234 c 0.098 -0.097 0.166 -0.209 0.205 -0.336 c 0.044 -0.132 0.064 -0.273 0.064 -0.424 c 0 -0.195 -0.03 -0.371 -0.094 -0.527 c -0.063 -0.156 -0.177 -0.287 -0.338 -0.395 c -0.161 -0.107 -0.377 -0.189 -0.65 -0.242 c -0.273 -0.058 -0.618 -0.088 -1.037 -0.088 c 0.029 -0.249 0.053 -0.475 0.072 -0.68 c 0.02 -0.21 0.036 -0.409 0.051 -0.6 c 0.015 -0.195 0.024 -0.382 0.029 -0.563 c 0.01 -0.185 0.017 -0.375 0.021 -0.57 z" style="fill:#ececec;fill-opacity:1"/>
</svg>
