<svg xmlns="http://www.w3.org/2000/svg" viewBox="0 0 22 22">
 <path d="m 3 1 c -1.108 0 -2 0.892 -2 2 l 0 16 c 0 1.108 0.892 2 2 2 l 16 0 c 1.108 0 2 -0.892 2 -2 l 0 -16 c 0 -1.108 -0.892 -2 -2 -2 l -16 0 z m 0.398 6.074 l 4.5 0 l 0 0.664 l -3.736 0 l 0 2.711 l 3.33 0 l 0 0.652 l -3.33 0 l 0 3.105 l 4.03 0 l 0 0.662 l -4.791 0 l 0 -7.795 z m 8.422 1.867 c 0.443 0 0.809 0.064 1.102 0.191 c 0.3 0.127 0.536 0.311 0.709 0.551 c 0.18 0.232 0.308 0.514 0.383 0.844 c 0.075 0.33 0.113 0.694 0.113 1.092 l 0 3.25 l -0.732 0 l 0 -3.01 c 0 -0.412 -0.03 -0.762 -0.09 -1.047 c -0.053 -0.285 -0.146 -0.517 -0.281 -0.697 c -0.128 -0.18 -0.3 -0.308 -0.518 -0.383 c -0.21 -0.082 -0.476 -0.123 -0.799 -0.123 c -0.345 0 -0.643 0.019 -0.898 0.057 c -0.247 0.037 -0.409 0.07 -0.484 0.1 l 0 5.107 l -0.73 0 l 0 -5.613 c 0.217 -0.06 0.509 -0.126 0.877 -0.201 c 0.367 -0.075 0.817 -0.113 1.35 -0.113 z m 5.158 3 c 0.531 0 0.934 0.187 1.207 0.563 c 0.278 0.371 0.416 0.889 0.416 1.557 c 0 1.019 -0.243 1.788 -0.73 2.305 c -0.488 0.512 -1.199 0.768 -2.135 0.768 l -0.016 -0.395 c 0.322 0 0.617 -0.036 0.885 -0.109 c 0.268 -0.073 0.5 -0.187 0.695 -0.338 c 0.2 -0.156 0.361 -0.353 0.482 -0.592 c 0.127 -0.244 0.212 -0.536 0.256 -0.877 c -0.132 0.068 -0.289 0.128 -0.475 0.182 c -0.185 0.049 -0.382 0.074 -0.592 0.074 c -0.273 0 -0.505 -0.042 -0.695 -0.125 c -0.19 -0.088 -0.344 -0.202 -0.461 -0.344 c -0.117 -0.141 -0.202 -0.305 -0.256 -0.49 c -0.054 -0.185 -0.08 -0.376 -0.08 -0.576 c 0 -0.185 0.029 -0.374 0.088 -0.564 c 0.059 -0.19 0.148 -0.361 0.27 -0.512 c 0.127 -0.156 0.283 -0.281 0.469 -0.379 c 0.19 -0.098 0.414 -0.146 0.672 -0.146 z m 0.008 0.416 c -0.18 0 -0.334 0.035 -0.461 0.104 c -0.127 0.063 -0.229 0.149 -0.307 0.256 c -0.078 0.107 -0.137 0.23 -0.176 0.371 c -0.034 0.141 -0.051 0.288 -0.051 0.439 c 0 0.385 0.085 0.67 0.256 0.855 c 0.175 0.185 0.431 0.277 0.768 0.277 c 0.224 0 0.42 -0.024 0.586 -0.072 c 0.171 -0.054 0.328 -0.115 0.475 -0.184 c 0.005 -0.059 0.008 -0.114 0.008 -0.168 c 0.005 -0.054 0.006 -0.113 0.006 -0.182 c 0 -0.229 -0.017 -0.448 -0.051 -0.652 c -0.029 -0.205 -0.088 -0.385 -0.176 -0.541 c -0.083 -0.156 -0.195 -0.277 -0.336 -0.365 c -0.141 -0.093 -0.322 -0.139 -0.541 -0.139 z" style="fill:#ececec;fill-opacity:1"/>
</svg>
