<svg xmlns="http://www.w3.org/2000/svg" viewBox="0 0 22 22">
 <path d="m 3 1 c -1.108 0 -2 0.892 -2 2 l 0 16 c 0 1.108 0.892 2 2 2 l 16 0 c 1.108 0 2 -0.892 2 -2 l 0 -16 c 0 -1.108 -0.892 -2 -2 -2 l -16 0 z m 5.967 5.934 c 0.21 0 0.415 0.015 0.617 0.045 c 0.203 0.03 0.39 0.071 0.562 0.123 c 0.18 0.045 0.342 0.098 0.484 0.158 c 0.15 0.06 0.274 0.124 0.371 0.191 l -0.27 0.641 c -0.217 -0.15 -0.484 -0.269 -0.799 -0.359 c -0.308 -0.09 -0.642 -0.135 -1 -0.135 c -0.248 0 -0.476 0.026 -0.686 0.078 c -0.203 0.045 -0.379 0.124 -0.529 0.236 c -0.15 0.105 -0.269 0.239 -0.359 0.404 c -0.083 0.165 -0.123 0.365 -0.123 0.598 c 0 0.24 0.045 0.442 0.135 0.607 c 0.09 0.165 0.214 0.306 0.371 0.426 c 0.165 0.12 0.357 0.229 0.574 0.326 c 0.218 0.097 0.452 0.2 0.707 0.305 c 0.307 0.127 0.597 0.255 0.867 0.383 c 0.278 0.127 0.518 0.277 0.721 0.449 c 0.203 0.172 0.362 0.383 0.482 0.631 c 0.12 0.247 0.18 0.55 0.18 0.91 c 0 0.705 -0.247 1.235 -0.742 1.588 c -0.487 0.353 -1.15 0.527 -1.99 0.527 c -0.3 0 -0.575 -0.019 -0.822 -0.057 c -0.248 -0.038 -0.469 -0.082 -0.664 -0.135 c -0.195 -0.06 -0.359 -0.12 -0.494 -0.18 c -0.135 -0.06 -0.239 -0.111 -0.314 -0.156 l 0.246 -0.664 c 0.075 0.045 0.177 0.096 0.305 0.156 c 0.127 0.06 0.277 0.12 0.449 0.18 c 0.173 0.052 0.368 0.099 0.586 0.137 c 0.218 0.037 0.458 0.055 0.721 0.055 c 0.607 0 1.079 -0.109 1.416 -0.326 c 0.338 -0.225 0.506 -0.585 0.506 -1.08 c 0 -0.285 -0.055 -0.52 -0.168 -0.707 c -0.105 -0.195 -0.248 -0.357 -0.428 -0.484 c -0.18 -0.135 -0.387 -0.248 -0.619 -0.338 c -0.232 -0.098 -0.475 -0.198 -0.73 -0.303 c -0.322 -0.127 -0.612 -0.26 -0.867 -0.395 c -0.255 -0.135 -0.472 -0.284 -0.652 -0.449 c -0.18 -0.172 -0.319 -0.368 -0.416 -0.586 c -0.09 -0.217 -0.135 -0.473 -0.135 -0.766 c 0 -0.668 0.222 -1.173 0.664 -1.518 c 0.442 -0.345 1.058 -0.518 1.846 -0.518 z m 5.664 2.035 c 0.24 0 0.466 0.019 0.676 0.057 c 0.217 0.037 0.367 0.076 0.449 0.113 l -0.146 0.629 c -0.06 -0.03 -0.184 -0.06 -0.371 -0.09 c -0.18 -0.037 -0.419 -0.057 -0.719 -0.057 c -0.315 0 -0.571 0.023 -0.766 0.068 c -0.188 0.045 -0.311 0.083 -0.371 0.113 l 0 5.096 l -0.73 0 l 0 -5.547 c 0.188 -0.082 0.445 -0.166 0.775 -0.248 c 0.33 -0.09 0.731 -0.135 1.203 -0.135 z" style="fill:#ececec;fill-opacity:1"/>
</svg>
