<svg xmlns="http://www.w3.org/2000/svg" viewBox="0 0 22 22">
 <path d="m 3 1 c -1.108 0 -2 0.892 -2 2 l 0 16 c 0 1.108 0.892 2 2 2 l 16 0 c 1.108 0 2 -0.892 2 -2 l 0 -16 c 0 -1.108 -0.892 -2 -2 -2 l -16 0 z m 9.883 5.635 l 0 5.535 c 0.188 -0.18 0.396 -0.387 0.629 -0.619 c 0.232 -0.232 0.465 -0.469 0.697 -0.709 c 0.24 -0.24 0.466 -0.472 0.676 -0.697 c 0.21 -0.225 0.389 -0.423 0.539 -0.596 l 0.879 0 c -0.172 0.18 -0.368 0.382 -0.586 0.607 c -0.217 0.225 -0.446 0.461 -0.686 0.709 c -0.232 0.24 -0.465 0.476 -0.697 0.709 l -0.631 0.629 c 0.232 0.158 0.48 0.36 0.742 0.607 c 0.27 0.248 0.534 0.518 0.789 0.811 c 0.262 0.285 0.505 0.581 0.73 0.889 c 0.233 0.3 0.426 0.585 0.584 0.855 l -0.865 0 c -0.18 -0.3 -0.387 -0.592 -0.619 -0.877 c -0.225 -0.293 -0.466 -0.567 -0.721 -0.822 c -0.248 -0.255 -0.497 -0.487 -0.752 -0.697 c -0.248 -0.21 -0.484 -0.387 -0.709 -0.529 l 0 2.926 l -0.732 0 l 0 -8.596 l 0.732 -0.135 z m -7.432 0.934 l 0.764 0 l 0 3.635 c 0.285 -0.255 0.6 -0.549 0.945 -0.879 c 0.353 -0.338 0.698 -0.674 1.035 -1.012 c 0.345 -0.338 0.667 -0.659 0.967 -0.967 c 0.3 -0.307 0.541 -0.567 0.721 -0.777 l 0.922 0 c -0.218 0.232 -0.48 0.51 -0.787 0.832 c -0.307 0.315 -0.634 0.643 -0.979 0.98 c -0.345 0.338 -0.69 0.67 -1.035 1 c -0.337 0.323 -0.64 0.608 -0.91 0.855 c 0.218 0.135 0.45 0.303 0.697 0.506 c 0.255 0.195 0.509 0.412 0.764 0.652 c 0.262 0.232 0.518 0.48 0.766 0.742 c 0.255 0.255 0.491 0.515 0.709 0.777 c 0.225 0.263 0.423 0.518 0.596 0.766 c 0.18 0.247 0.327 0.476 0.439 0.686 l -0.855 0 c -0.255 -0.39 -0.543 -0.776 -0.865 -1.158 c -0.315 -0.383 -0.649 -0.743 -1 -1.08 c -0.353 -0.338 -0.713 -0.646 -1.08 -0.924 c -0.36 -0.277 -0.709 -0.51 -1.047 -0.697 l 0 3.859 l -0.764 0 l 0 -7.797 z" style="fill:#ececec;fill-opacity:1"/>
</svg>
