<svg xmlns="http://www.w3.org/2000/svg" viewBox="0 0 22 22">
 <path d="m 3 1 c -1.108 0 -2 0.892 -2 2 l 0 16 c 0 1.108 0.892 2 2 2 l 16 0 c 1.108 0 2 -0.892 2 -2 l 0 -16 c 0 -1.108 -0.892 -2 -2 -2 l -16 0 z m -0.422 6.074 l 0.764 0 l 0 3.387 l 4.23 0 l 0 -3.387 l 0.766 0 l 0 7.795 l -0.766 0 l 0 -3.746 l -4.23 0 l 0 3.746 l -0.764 0 l 0 -7.795 z m 7.664 1.98 l 0.732 0 l 0 3.03 c 0 0.412 0.03 0.762 0.09 1.047 c 0.06 0.285 0.158 0.517 0.293 0.697 c 0.135 0.173 0.308 0.3 0.518 0.383 c 0.217 0.075 0.48 0.111 0.787 0.111 c 0.345 0 0.645 -0.019 0.9 -0.057 c 0.255 -0.037 0.415 -0.07 0.482 -0.1 l 0 -5.107 l 0.732 0 l 0 5.613 c -0.217 0.06 -0.511 0.126 -0.879 0.201 c -0.368 0.075 -0.817 0.113 -1.35 0.113 c -0.435 0 -0.797 -0.064 -1.09 -0.191 c -0.292 -0.128 -0.529 -0.307 -0.709 -0.539 c -0.18 -0.232 -0.312 -0.514 -0.395 -0.844 c -0.075 -0.33 -0.113 -0.694 -0.113 -1.092 l 0 -3.262 z m 8.844 2.977 l 0.029 0.402 c -0.297 0.02 -0.573 0.066 -0.826 0.139 c -0.249 0.068 -0.471 0.177 -0.666 0.328 c -0.195 0.146 -0.357 0.336 -0.488 0.57 c -0.132 0.234 -0.223 0.522 -0.271 0.863 c 0.132 -0.068 0.289 -0.127 0.475 -0.176 c 0.185 -0.054 0.384 -0.08 0.594 -0.08 c 0.273 0 0.503 0.043 0.693 0.131 c 0.19 0.083 0.344 0.197 0.461 0.338 c 0.117 0.141 0.202 0.303 0.256 0.488 c 0.054 0.185 0.08 0.381 0.08 0.586 c 0 0.19 -0.029 0.38 -0.088 0.57 c -0.059 0.19 -0.151 0.364 -0.277 0.52 c -0.122 0.151 -0.277 0.276 -0.467 0.373 c -0.185 0.098 -0.408 0.146 -0.666 0.146 c -0.531 0 -0.937 -0.186 -1.215 -0.557 c -0.273 -0.375 -0.408 -0.897 -0.408 -1.564 c 0 -0.99 0.236 -1.74 0.709 -2.252 c 0.478 -0.512 1.169 -0.787 2.076 -0.826 z m -1.199 2.463 c -0.224 0 -0.421 0.028 -0.592 0.082 c -0.166 0.049 -0.322 0.106 -0.469 0.174 c -0.01 0.083 -0.014 0.149 -0.014 0.197 l 0 0.17 c 0 0.229 0.014 0.446 0.043 0.65 c 0.034 0.205 0.093 0.385 0.176 0.541 c 0.088 0.156 0.202 0.28 0.344 0.373 c 0.141 0.088 0.322 0.131 0.541 0.131 c 0.18 0 0.334 -0.03 0.461 -0.094 c 0.127 -0.068 0.229 -0.156 0.307 -0.264 c 0.078 -0.107 0.134 -0.232 0.168 -0.373 c 0.039 -0.141 0.059 -0.291 0.059 -0.447 c 0 -0.39 -0.086 -0.676 -0.262 -0.861 c -0.171 -0.185 -0.425 -0.279 -0.762 -0.279 z" style="fill:#ececec;fill-opacity:1"/>
</svg>
