<svg xmlns="http://www.w3.org/2000/svg" viewBox="0 0 22 22">
 <path d="m 3 1 c -1.108 0 -2 0.892 -2 2 l 0 16 c 0 1.108 0.892 2 2 2 l 16 0 c 1.108 0 2 -0.892 2 -2 l 0 -16 c 0 -1.108 -0.892 -2 -2 -2 l -16 0 z m 4.113 5.904 c 0.21 0 0.415 0.015 0.617 0.045 c 0.203 0.03 0.39 0.072 0.563 0.125 c 0.18 0.045 0.342 0.096 0.484 0.156 c 0.15 0.06 0.274 0.124 0.371 0.191 l -0.27 0.643 c -0.217 -0.15 -0.484 -0.271 -0.799 -0.361 c -0.308 -0.09 -0.642 -0.135 -1 -0.135 c -0.247 0 -0.476 0.028 -0.686 0.08 c -0.202 0.045 -0.379 0.122 -0.529 0.234 c -0.15 0.105 -0.269 0.241 -0.359 0.406 c -0.082 0.165 -0.123 0.363 -0.123 0.596 c 0 0.24 0.045 0.442 0.135 0.607 c 0.09 0.165 0.214 0.308 0.371 0.428 c 0.165 0.12 0.355 0.229 0.572 0.326 c 0.217 0.098 0.454 0.2 0.709 0.305 c 0.308 0.127 0.597 0.253 0.867 0.381 c 0.277 0.127 0.518 0.279 0.721 0.451 c 0.203 0.173 0.362 0.381 0.482 0.629 c 0.12 0.248 0.18 0.552 0.18 0.912 c 0 0.705 -0.247 1.233 -0.742 1.586 c -0.487 0.352 -1.15 0.529 -1.99 0.529 c -0.3 0 -0.575 -0.019 -0.822 -0.057 c -0.247 -0.037 -0.469 -0.082 -0.664 -0.135 c -0.195 -0.06 -0.359 -0.12 -0.494 -0.18 c -0.135 -0.06 -0.239 -0.113 -0.314 -0.158 l 0.246 -0.664 c 0.075 0.045 0.177 0.098 0.305 0.158 c 0.128 0.06 0.277 0.12 0.449 0.18 c 0.173 0.053 0.368 0.097 0.586 0.135 c 0.218 0.038 0.456 0.057 0.719 0.057 c 0.607 0 1.08 -0.109 1.418 -0.326 c 0.338 -0.225 0.506 -0.585 0.506 -1.08 c 0 -0.285 -0.055 -0.521 -0.168 -0.709 c -0.105 -0.195 -0.248 -0.357 -0.428 -0.484 c -0.18 -0.135 -0.387 -0.246 -0.619 -0.336 c -0.232 -0.098 -0.475 -0.2 -0.73 -0.305 c -0.322 -0.128 -0.612 -0.258 -0.867 -0.393 c -0.255 -0.135 -0.472 -0.286 -0.652 -0.451 c -0.18 -0.173 -0.319 -0.366 -0.416 -0.584 c -0.09 -0.217 -0.135 -0.473 -0.135 -0.766 c 0 -0.667 0.222 -1.175 0.664 -1.52 c 0.442 -0.345 1.058 -0.518 1.846 -0.518 z m 5.664 2.037 c 0.24 0 0.466 0.019 0.676 0.057 c 0.217 0.037 0.367 0.074 0.449 0.111 l -0.146 0.631 c -0.06 -0.03 -0.184 -0.06 -0.371 -0.09 c -0.18 -0.037 -0.419 -0.057 -0.719 -0.057 c -0.315 0 -0.571 0.023 -0.766 0.068 c -0.188 0.045 -0.311 0.081 -0.371 0.111 l 0 5.096 l -0.732 0 l 0 -5.545 c 0.188 -0.083 0.447 -0.166 0.777 -0.248 c 0.33 -0.09 0.731 -0.135 1.203 -0.135 z m 1.754 3.111 l 3.078 0 l 0 0.424 c -0.166 0.2 -0.347 0.468 -0.547 0.805 c -0.195 0.332 -0.381 0.706 -0.557 1.125 c -0.175 0.414 -0.329 0.856 -0.461 1.324 c -0.127 0.468 -0.205 0.93 -0.234 1.389 l -0.504 0 c 0.029 -0.405 0.102 -0.834 0.219 -1.287 c 0.122 -0.453 0.269 -0.89 0.439 -1.314 c 0.175 -0.424 0.363 -0.814 0.563 -1.17 c 0.205 -0.356 0.404 -0.643 0.594 -0.857 l -2.59 0 l 0 -0.438 z" style="fill:#ececec;fill-opacity:1"/>
</svg>
