<svg xmlns="http://www.w3.org/2000/svg" viewBox="0 0 22 22">
 <path d="m 3 1 c -1.108 0 -2 0.892 -2 2 l 0 16 c 0 1.108 0.892 2 2 2 l 16 0 c 1.108 0 2 -0.892 2 -2 l 0 -16 c 0 -1.108 -0.892 -2 -2 -2 l -16 0 z m 1.916 6.01 c 1.073 0 1.878 0.202 2.418 0.607 c 0.547 0.405 0.822 1.01 0.822 1.801 c 0 0.585 -0.153 1.045 -0.461 1.383 c -0.308 0.338 -0.714 0.582 -1.217 0.732 c 0.12 0.15 0.275 0.352 0.463 0.607 c 0.195 0.255 0.393 0.536 0.596 0.844 c 0.202 0.3 0.401 0.615 0.596 0.945 c 0.195 0.33 0.361 0.643 0.496 0.943 l -0.822 0 c -0.157 -0.3 -0.33 -0.598 -0.518 -0.898 c -0.18 -0.3 -0.367 -0.59 -0.563 -0.867 c -0.188 -0.285 -0.371 -0.547 -0.551 -0.787 l -0.473 -0.631 c -0.24 0.023 -0.481 0.035 -0.721 0.035 l -1.26 0 l 0 3.148 l -0.764 0 l 0 -7.648 c 0.27 -0.075 0.583 -0.128 0.943 -0.158 c 0.367 -0.037 0.706 -0.057 1.014 -0.057 z m 0.09 0.664 c -0.285 0 -0.536 0.011 -0.754 0.033 c -0.21 0.015 -0.387 0.03 -0.529 0.045 l 0 3.32 l 1.059 0 c 0.353 0 0.685 -0.015 1 -0.045 c 0.315 -0.038 0.59 -0.114 0.822 -0.227 c 0.232 -0.12 0.416 -0.288 0.551 -0.506 c 0.135 -0.218 0.203 -0.514 0.203 -0.889 c 0 -0.345 -0.068 -0.63 -0.203 -0.855 c -0.135 -0.225 -0.312 -0.4 -0.529 -0.527 c -0.218 -0.135 -0.469 -0.226 -0.754 -0.271 c -0.277 -0.053 -0.565 -0.078 -0.865 -0.078 z m 4.783 1.385 l 0.73 0 l 0 3.03 c 0 0.412 0.03 0.762 0.09 1.047 c 0.06 0.285 0.158 0.517 0.293 0.697 c 0.135 0.173 0.308 0.3 0.518 0.383 c 0.218 0.075 0.48 0.111 0.787 0.111 c 0.345 0 0.645 -0.019 0.9 -0.057 c 0.255 -0.037 0.417 -0.07 0.484 -0.1 l 0 -5.107 l 0.73 0 l 0 5.613 c -0.218 0.06 -0.509 0.126 -0.877 0.201 c -0.367 0.075 -0.817 0.113 -1.35 0.113 c -0.435 0 -0.799 -0.064 -1.092 -0.191 c -0.293 -0.128 -0.529 -0.307 -0.709 -0.539 c -0.18 -0.232 -0.31 -0.514 -0.393 -0.844 c -0.075 -0.33 -0.113 -0.694 -0.113 -1.092 l 0 -3.262 z m 8.127 2.998 l 0.496 0 l 0 3.305 l 0.629 0 l 0 0.389 l -0.629 0 l 0 1.373 l -0.467 0 l 0 -1.373 l -2.297 0 l 0 -0.293 c 0.088 -0.234 0.209 -0.499 0.365 -0.791 c 0.161 -0.292 0.341 -0.591 0.541 -0.898 c 0.2 -0.307 0.418 -0.608 0.652 -0.9 c 0.234 -0.297 0.47 -0.567 0.709 -0.811 z m 0.029 0.533 c -0.171 0.175 -0.344 0.378 -0.52 0.607 c -0.175 0.229 -0.343 0.468 -0.504 0.717 c -0.156 0.244 -0.303 0.49 -0.439 0.738 c -0.136 0.249 -0.251 0.485 -0.344 0.709 l 1.807 0 l 0 -2.771 z" style="fill:#ececec;fill-opacity:1"/>
</svg>
