<svg xmlns="http://www.w3.org/2000/svg" viewBox="0 0 22 22">
 <path d="m 3 1 c -1.108 0 -2 0.892 -2 2 l 0 16 c 0 1.108 0.892 2 2 2 l 16 0 c 1.108 0 2 -0.892 2 -2 l 0 -16 c 0 -1.108 -0.892 -2 -2 -2 l -16 0 z m 1.793 6.074 l 4.443 0 l 0 0.664 l -3.678 0 l 0 2.744 l 3.262 0 l 0 0.664 l -3.262 0 l 0 3.723 l -0.766 0 l 0 -7.795 z m 7.582 1.867 c 0.24 0 0.464 0.019 0.674 0.057 c 0.217 0.037 0.369 0.074 0.451 0.111 l -0.146 0.631 c -0.06 -0.03 -0.184 -0.06 -0.371 -0.09 c -0.18 -0.037 -0.421 -0.057 -0.721 -0.057 c -0.315 0 -0.569 0.023 -0.764 0.068 c -0.188 0.045 -0.311 0.081 -0.371 0.111 l 0 5.096 l -0.732 0 l 0 -5.545 c 0.188 -0.083 0.447 -0.166 0.777 -0.248 c 0.33 -0.09 0.731 -0.135 1.203 -0.135 z m 3.209 3 c 0.531 0 0.934 0.187 1.207 0.563 c 0.278 0.371 0.416 0.889 0.416 1.557 c 0 1.019 -0.243 1.788 -0.73 2.305 c -0.487 0.512 -1.201 0.768 -2.137 0.768 l -0.014 -0.395 c 0.322 0 0.617 -0.036 0.885 -0.109 c 0.268 -0.073 0.5 -0.187 0.695 -0.338 c 0.2 -0.156 0.361 -0.353 0.482 -0.592 c 0.127 -0.244 0.212 -0.536 0.256 -0.877 c -0.132 0.068 -0.291 0.128 -0.477 0.182 c -0.185 0.049 -0.382 0.074 -0.592 0.074 c -0.273 0 -0.505 -0.042 -0.695 -0.125 c -0.19 -0.088 -0.342 -0.202 -0.459 -0.344 c -0.117 -0.141 -0.202 -0.305 -0.256 -0.49 c -0.054 -0.185 -0.082 -0.376 -0.082 -0.576 c 0 -0.185 0.029 -0.374 0.088 -0.564 c 0.059 -0.19 0.15 -0.361 0.271 -0.512 c 0.127 -0.156 0.282 -0.281 0.467 -0.379 c 0.19 -0.098 0.415 -0.146 0.674 -0.146 z m 0.008 0.416 c -0.18 0 -0.334 0.035 -0.461 0.104 c -0.127 0.063 -0.229 0.149 -0.307 0.256 c -0.078 0.107 -0.137 0.23 -0.176 0.371 c -0.034 0.141 -0.053 0.288 -0.053 0.439 c 0 0.385 0.085 0.67 0.256 0.855 c 0.176 0.185 0.433 0.277 0.77 0.277 c 0.224 0 0.418 -0.024 0.584 -0.072 c 0.171 -0.054 0.33 -0.115 0.477 -0.184 c 0.005 -0.059 0.006 -0.114 0.006 -0.168 c 0.005 -0.054 0.008 -0.113 0.008 -0.182 c 0 -0.229 -0.017 -0.448 -0.051 -0.652 c -0.029 -0.205 -0.088 -0.385 -0.176 -0.541 c -0.083 -0.156 -0.195 -0.277 -0.336 -0.365 c -0.141 -0.093 -0.322 -0.139 -0.541 -0.139 z" style="fill:#ececec;fill-opacity:1"/>
</svg>
