<svg xmlns="http://www.w3.org/2000/svg" viewBox="0 0 22 22">
 <path d="m 3 1 c -1.108 0 -2 0.892 -2 2 l 0 16 c 0 1.108 0.892 2 2 2 l 16 0 c 1.108 0 2 -0.892 2 -2 l 0 -16 c 0 -1.108 -0.892 -2 -2 -2 l -16 0 z m 8.03 5.141 l 0 5.535 c 0.188 -0.18 0.396 -0.387 0.629 -0.619 c 0.232 -0.233 0.465 -0.469 0.697 -0.709 c 0.24 -0.24 0.466 -0.472 0.676 -0.697 c 0.21 -0.225 0.391 -0.423 0.541 -0.596 l 0.877 0 c -0.172 0.18 -0.368 0.382 -0.586 0.607 c -0.217 0.225 -0.446 0.46 -0.686 0.707 c -0.233 0.24 -0.465 0.476 -0.697 0.709 l -0.631 0.631 c 0.233 0.158 0.48 0.36 0.742 0.607 c 0.27 0.247 0.534 0.518 0.789 0.811 c 0.263 0.285 0.505 0.581 0.73 0.889 c 0.232 0.3 0.428 0.584 0.586 0.854 l -0.867 0 c -0.18 -0.3 -0.387 -0.592 -0.619 -0.877 c -0.225 -0.293 -0.464 -0.565 -0.719 -0.82 c -0.248 -0.255 -0.499 -0.487 -0.754 -0.697 c -0.247 -0.21 -0.484 -0.387 -0.709 -0.529 l 0 2.924 l -0.732 0 l 0 -8.594 l 0.732 -0.135 z m -7.432 0.934 l 0.764 0 l 0 3.633 c 0.285 -0.255 0.6 -0.547 0.945 -0.877 c 0.352 -0.338 0.698 -0.674 1.035 -1.012 c 0.345 -0.338 0.667 -0.661 0.967 -0.969 c 0.3 -0.308 0.541 -0.565 0.721 -0.775 l 0.922 0 c -0.217 0.232 -0.48 0.51 -0.787 0.832 c -0.308 0.315 -0.634 0.641 -0.979 0.979 c -0.345 0.338 -0.69 0.672 -1.035 1 c -0.338 0.323 -0.64 0.608 -0.91 0.855 c 0.218 0.135 0.45 0.303 0.697 0.506 c 0.255 0.195 0.509 0.412 0.764 0.652 c 0.263 0.232 0.518 0.48 0.766 0.742 c 0.255 0.255 0.491 0.513 0.709 0.775 c 0.225 0.263 0.423 0.518 0.596 0.766 c 0.18 0.248 0.327 0.476 0.439 0.686 l -0.855 0 c -0.255 -0.39 -0.543 -0.776 -0.865 -1.158 c -0.315 -0.383 -0.649 -0.743 -1 -1.08 c -0.353 -0.337 -0.713 -0.644 -1.08 -0.922 c -0.36 -0.277 -0.709 -0.51 -1.047 -0.697 l 0 3.857 l -0.764 0 l 0 -7.795 z m 13.14 4.869 c 0.492 0 0.865 0.121 1.113 0.365 c 0.249 0.239 0.373 0.573 0.373 1 c 0 0.19 -0.035 0.37 -0.104 0.541 c -0.068 0.166 -0.16 0.326 -0.277 0.482 c -0.112 0.156 -0.242 0.307 -0.389 0.453 c -0.146 0.146 -0.294 0.293 -0.445 0.439 c -0.127 0.122 -0.251 0.246 -0.373 0.373 c -0.117 0.122 -0.225 0.246 -0.322 0.373 c -0.093 0.122 -0.168 0.243 -0.227 0.365 c -0.054 0.117 -0.08 0.235 -0.08 0.352 l 0 0.014 l 2.391 0 l 0 0.416 l -2.916 0 c 0 -0.01 -0.003 -0.026 -0.008 -0.051 l 0 -0.123 c 0 -0.229 0.04 -0.442 0.123 -0.637 c 0.083 -0.2 0.188 -0.387 0.314 -0.563 c 0.132 -0.175 0.276 -0.339 0.432 -0.49 c 0.161 -0.151 0.315 -0.298 0.461 -0.439 c 0.122 -0.117 0.236 -0.229 0.344 -0.336 c 0.112 -0.112 0.21 -0.227 0.293 -0.344 c 0.083 -0.117 0.149 -0.241 0.197 -0.373 c 0.049 -0.132 0.072 -0.276 0.072 -0.432 c 0 -0.341 -0.092 -0.584 -0.277 -0.73 c -0.18 -0.151 -0.41 -0.227 -0.688 -0.227 c -0.156 0 -0.294 0.02 -0.416 0.059 c -0.122 0.039 -0.23 0.085 -0.322 0.139 c -0.088 0.049 -0.163 0.099 -0.227 0.152 c -0.063 0.054 -0.109 0.096 -0.139 0.125 l -0.248 -0.33 c 0.029 -0.034 0.079 -0.081 0.152 -0.145 c 0.078 -0.068 0.173 -0.136 0.285 -0.199 c 0.117 -0.063 0.251 -0.116 0.402 -0.16 c 0.151 -0.049 0.319 -0.072 0.504 -0.072 z" style="fill:#ececec;fill-opacity:1"/>
</svg>
