<svg xmlns="http://www.w3.org/2000/svg" viewBox="0 0 22 22">
 <path d="m 3 1 c -1.108 0 -2 0.892 -2 2 l 0 16 c 0 1.108 0.892 2 2 2 l 16 0 c 1.108 0 2 -0.892 2 -2 l 0 -16 c 0 -1.108 -0.892 -2 -2 -2 l -16 0 z m 4.449 5.904 c 0.577 0 1.055 0.064 1.43 0.191 c 0.375 0.12 0.648 0.237 0.82 0.35 l -0.258 0.652 c -0.21 -0.15 -0.495 -0.269 -0.855 -0.359 c -0.36 -0.098 -0.75 -0.146 -1.17 -0.146 c -0.39 0 -0.759 0.07 -1.104 0.213 c -0.345 0.143 -0.643 0.356 -0.898 0.641 c -0.255 0.285 -0.457 0.639 -0.607 1.059 c -0.143 0.42 -0.215 0.908 -0.215 1.463 c 0 0.518 0.06 0.986 0.18 1.406 c 0.12 0.412 0.301 0.768 0.541 1.068 c 0.247 0.292 0.55 0.518 0.91 0.676 c 0.36 0.157 0.777 0.234 1.25 0.234 c 0.383 0 0.7 -0.017 0.955 -0.055 c 0.262 -0.045 0.439 -0.088 0.529 -0.125 l 0 -2.992 l 0.766 0 l 0 3.477 c -0.143 0.06 -0.424 0.135 -0.844 0.225 c -0.412 0.098 -0.924 0.146 -1.531 0.146 c -0.51 0 -0.981 -0.09 -1.416 -0.27 c -0.435 -0.18 -0.814 -0.44 -1.137 -0.777 c -0.315 -0.345 -0.562 -0.767 -0.742 -1.27 c -0.18 -0.51 -0.271 -1.092 -0.271 -1.744 c 0 -0.652 0.098 -1.23 0.293 -1.732 c 0.195 -0.51 0.457 -0.934 0.787 -1.271 c 0.338 -0.345 0.727 -0.607 1.17 -0.787 c 0.442 -0.18 0.915 -0.271 1.418 -0.271 z m 5.988 2.037 c 0.24 0 0.464 0.019 0.674 0.057 c 0.217 0.037 0.369 0.074 0.451 0.111 l -0.146 0.631 c -0.06 -0.03 -0.184 -0.06 -0.371 -0.09 c -0.18 -0.037 -0.421 -0.057 -0.721 -0.057 c -0.315 0 -0.571 0.023 -0.766 0.068 c -0.188 0.045 -0.311 0.081 -0.371 0.111 l 0 5.096 l -0.73 0 l 0 -5.545 c 0.188 -0.083 0.445 -0.166 0.775 -0.248 c 0.33 -0.09 0.733 -0.135 1.205 -0.135 z m 2.324 3.111 l 2.281 0 l 0 0.416 l -1.865 0 c -0.005 0.093 -0.012 0.213 -0.021 0.359 c -0.01 0.146 -0.02 0.297 -0.029 0.453 c -0.01 0.151 -0.022 0.296 -0.037 0.438 c -0.015 0.141 -0.027 0.255 -0.037 0.338 c 0.375 0.01 0.7 0.056 0.973 0.139 c 0.273 0.083 0.498 0.195 0.674 0.336 c 0.175 0.141 0.304 0.312 0.387 0.512 c 0.088 0.2 0.133 0.422 0.133 0.666 c 0 0.215 -0.038 0.414 -0.111 0.6 c -0.068 0.185 -0.174 0.346 -0.32 0.482 c -0.146 0.137 -0.332 0.244 -0.557 0.322 c -0.224 0.078 -0.49 0.117 -0.797 0.117 c -0.156 0 -0.303 -0.013 -0.439 -0.037 c -0.132 -0.02 -0.25 -0.045 -0.357 -0.074 c -0.102 -0.029 -0.191 -0.057 -0.264 -0.086 c -0.073 -0.029 -0.126 -0.055 -0.16 -0.074 l 0.123 -0.424 c 0.029 0.02 0.078 0.043 0.146 0.072 c 0.073 0.029 0.157 0.059 0.25 0.088 c 0.098 0.024 0.203 0.047 0.32 0.066 c 0.122 0.02 0.249 0.029 0.381 0.029 c 0.244 0 0.447 -0.026 0.607 -0.08 c 0.166 -0.059 0.297 -0.137 0.395 -0.234 c 0.098 -0.097 0.166 -0.209 0.205 -0.336 c 0.044 -0.132 0.066 -0.273 0.066 -0.424 c 0 -0.195 -0.032 -0.371 -0.096 -0.527 c -0.063 -0.156 -0.175 -0.287 -0.336 -0.395 c -0.161 -0.107 -0.379 -0.189 -0.652 -0.242 c -0.273 -0.058 -0.618 -0.088 -1.037 -0.088 c 0.029 -0.249 0.053 -0.475 0.072 -0.68 c 0.019 -0.21 0.036 -0.409 0.051 -0.6 c 0.015 -0.195 0.024 -0.382 0.029 -0.563 c 0.01 -0.185 0.019 -0.375 0.023 -0.57 z" style="fill:#ececec;fill-opacity:1"/>
</svg>
