<svg xmlns="http://www.w3.org/2000/svg" viewBox="0 0 22 22">
 <path d="m 3 1 c -1.108 0 -2 0.892 -2 2 l 0 16 c 0 1.108 0.892 2 2 2 l 16 0 c 1.108 0 2 -0.892 2 -2 l 0 -16 c 0 -1.108 -0.892 -2 -2 -2 l -16 0 z m 2.416 6.01 c 0.42 0 0.818 0.034 1.193 0.102 c 0.383 0.067 0.715 0.18 1 0.338 c 0.285 0.157 0.511 0.366 0.676 0.629 c 0.173 0.255 0.258 0.575 0.258 0.957 c 0 0.42 -0.109 0.78 -0.326 1.08 c -0.21 0.293 -0.494 0.495 -0.854 0.607 c 0.225 0.053 0.43 0.127 0.617 0.225 c 0.187 0.098 0.354 0.225 0.496 0.383 c 0.143 0.15 0.251 0.338 0.326 0.563 c 0.082 0.218 0.123 0.48 0.123 0.787 c 0 0.735 -0.292 1.297 -0.877 1.688 c -0.585 0.382 -1.488 0.574 -2.711 0.574 c -0.127 0 -0.279 -0.008 -0.451 -0.023 c -0.165 -0.007 -0.338 -0.022 -0.518 -0.045 c -0.172 -0.015 -0.337 -0.032 -0.494 -0.055 c -0.158 -0.03 -0.292 -0.06 -0.404 -0.09 l 0 -7.504 c 0.135 -0.037 0.284 -0.067 0.449 -0.09 c 0.165 -0.03 0.333 -0.053 0.506 -0.068 c 0.18 -0.022 0.353 -0.037 0.518 -0.045 c 0.172 -0.007 0.33 -0.012 0.473 -0.012 z m 0 0.652 c -0.277 0 -0.514 0.008 -0.709 0.023 c -0.188 0.015 -0.345 0.034 -0.473 0.057 l 0 2.744 l 1.486 0 c 0.277 0 0.54 -0.019 0.787 -0.057 c 0.247 -0.045 0.461 -0.12 0.641 -0.225 c 0.188 -0.112 0.334 -0.259 0.439 -0.439 c 0.105 -0.188 0.156 -0.422 0.156 -0.707 c 0 -0.255 -0.055 -0.47 -0.168 -0.643 c -0.113 -0.18 -0.274 -0.325 -0.484 -0.438 c -0.203 -0.113 -0.445 -0.191 -0.73 -0.236 c -0.285 -0.053 -0.6 -0.08 -0.945 -0.08 z m 7.334 1.283 c 0.443 0 0.809 0.064 1.102 0.191 c 0.3 0.127 0.536 0.311 0.709 0.551 c 0.18 0.232 0.308 0.514 0.383 0.844 c 0.075 0.33 0.113 0.694 0.113 1.092 l 0 3.25 l -0.732 0 l 0 -3.01 c 0 -0.412 -0.03 -0.762 -0.09 -1.047 c -0.053 -0.285 -0.146 -0.517 -0.281 -0.697 c -0.127 -0.18 -0.3 -0.308 -0.518 -0.383 c -0.21 -0.082 -0.476 -0.123 -0.799 -0.123 c -0.345 0 -0.645 0.019 -0.9 0.057 c -0.248 0.037 -0.407 0.07 -0.482 0.1 l 0 5.107 l -0.732 0 l 0 -5.613 c 0.218 -0.06 0.511 -0.126 0.879 -0.201 c 0.367 -0.075 0.817 -0.113 1.35 -0.113 z m -8.516 2.193 l 0 3.072 c 0.112 0.015 0.283 0.032 0.508 0.055 c 0.225 0.015 0.453 0.023 0.686 0.023 c 0.345 0 0.679 -0.023 1 -0.068 c 0.33 -0.045 0.618 -0.126 0.865 -0.246 c 0.247 -0.12 0.446 -0.286 0.596 -0.496 c 0.15 -0.21 0.227 -0.481 0.227 -0.811 c 0 -0.3 -0.053 -0.547 -0.158 -0.742 c -0.105 -0.203 -0.256 -0.36 -0.451 -0.473 c -0.195 -0.12 -0.434 -0.201 -0.719 -0.246 c -0.277 -0.045 -0.589 -0.068 -0.934 -0.068 l -1.621 0 z m 13.959 0.918 l 0.336 0 l 0 5.066 l -0.475 0 l 0 -4.342 c -0.054 0.059 -0.125 0.118 -0.213 0.182 c -0.083 0.063 -0.178 0.126 -0.285 0.189 c -0.107 0.058 -0.219 0.117 -0.336 0.176 c -0.117 0.054 -0.235 0.099 -0.352 0.133 l -0.139 -0.367 c 0.293 -0.102 0.554 -0.231 0.783 -0.387 c 0.229 -0.161 0.455 -0.377 0.68 -0.65 z" style="fill:#ececec;fill-opacity:1"/>
</svg>
