<svg xmlns="http://www.w3.org/2000/svg" viewBox="0 0 22 22">
 <path d="m 3 1 c -1.108 0 -2 0.892 -2 2 l 0 16 c 0 1.108 0.892 2 2 2 l 16 0 c 1.108 0 2 -0.892 2 -2 l 0 -16 c 0 -1.108 -0.892 -2 -2 -2 l -16 0 z m 3.713 6.074 l 0.676 0 c 0.277 0.577 0.54 1.155 0.787 1.732 c 0.248 0.578 0.495 1.181 0.742 1.811 c 0.255 0.622 0.513 1.287 0.775 1.992 c 0.262 0.697 0.548 1.45 0.855 2.26 l -0.844 0 c -0.143 -0.383 -0.277 -0.749 -0.404 -1.102 c -0.127 -0.353 -0.251 -0.698 -0.371 -1.035 l -3.791 0 c -0.128 0.338 -0.255 0.683 -0.383 1.035 c -0.128 0.352 -0.26 0.719 -0.395 1.102 l -0.799 0 c 0.3 -0.81 0.581 -1.562 0.844 -2.26 c 0.263 -0.705 0.518 -1.37 0.766 -1.992 c 0.255 -0.63 0.506 -1.233 0.754 -1.811 c 0.247 -0.578 0.51 -1.155 0.787 -1.732 z m 0.314 0.877 c -0.285 0.645 -0.562 1.301 -0.832 1.969 c -0.263 0.668 -0.535 1.388 -0.82 2.16 l 3.318 0 c -0.285 -0.773 -0.564 -1.493 -0.834 -2.16 c -0.27 -0.668 -0.547 -1.324 -0.832 -1.969 z m 6.578 0.99 c 0.24 0 0.464 0.019 0.674 0.057 c 0.218 0.037 0.369 0.074 0.451 0.111 l -0.146 0.631 c -0.06 -0.03 -0.184 -0.06 -0.371 -0.09 c -0.18 -0.037 -0.421 -0.057 -0.721 -0.057 c -0.315 0 -0.571 0.023 -0.766 0.068 c -0.188 0.045 -0.311 0.081 -0.371 0.111 l 0 5.096 l -0.73 0 l 0 -5.545 c 0.188 -0.083 0.445 -0.166 0.775 -0.248 c 0.33 -0.09 0.733 -0.135 1.205 -0.135 z m 3.209 3 c 0.531 0 0.932 0.187 1.205 0.563 c 0.278 0.371 0.418 0.889 0.418 1.557 c 0 1.019 -0.245 1.788 -0.732 2.305 c -0.488 0.512 -1.199 0.768 -2.135 0.768 l -0.014 -0.395 c 0.322 0 0.617 -0.036 0.885 -0.109 c 0.268 -0.073 0.498 -0.187 0.693 -0.338 c 0.2 -0.156 0.362 -0.353 0.484 -0.592 c 0.127 -0.244 0.212 -0.536 0.256 -0.877 c -0.132 0.068 -0.291 0.128 -0.477 0.182 c -0.185 0.049 -0.382 0.074 -0.592 0.074 c -0.273 0 -0.505 -0.042 -0.695 -0.125 c -0.19 -0.088 -0.344 -0.202 -0.461 -0.344 c -0.117 -0.141 -0.202 -0.305 -0.256 -0.49 c -0.054 -0.185 -0.08 -0.376 -0.08 -0.576 c 0 -0.185 0.029 -0.374 0.088 -0.564 c 0.059 -0.19 0.15 -0.361 0.271 -0.512 c 0.127 -0.156 0.282 -0.281 0.467 -0.379 c 0.19 -0.098 0.415 -0.146 0.674 -0.146 z m 0.006 0.416 c -0.18 0 -0.332 0.035 -0.459 0.104 c -0.127 0.063 -0.231 0.149 -0.309 0.256 c -0.078 0.107 -0.137 0.23 -0.176 0.371 c -0.034 0.141 -0.051 0.288 -0.051 0.439 c 0 0.385 0.085 0.67 0.256 0.855 c 0.175 0.185 0.431 0.277 0.768 0.277 c 0.224 0 0.42 -0.024 0.586 -0.072 c 0.171 -0.054 0.328 -0.115 0.475 -0.184 c 0.005 -0.059 0.008 -0.114 0.008 -0.168 c 0.005 -0.054 0.008 -0.113 0.008 -0.182 c 0 -0.229 -0.017 -0.448 -0.051 -0.652 c -0.029 -0.205 -0.088 -0.385 -0.176 -0.541 c -0.083 -0.156 -0.197 -0.277 -0.338 -0.365 c -0.141 -0.093 -0.322 -0.139 -0.541 -0.139 z" style="fill:#ececec;fill-opacity:1"/>
</svg>
