<svg xmlns="http://www.w3.org/2000/svg" viewBox="0 0 22 22">
 <path d="m 3 1 c -1.108 0 -2 0.892 -2 2 l 0 16 c 0 1.108 0.892 2 2 2 l 16 0 c 1.108 0 2 -0.892 2 -2 l 0 -16 c 0 -1.108 -0.892 -2 -2 -2 l -16 0 z m -0.635 6.074 l 0.607 0 c 0.383 0.428 0.792 0.922 1.227 1.484 c 0.442 0.555 0.873 1.126 1.293 1.711 c 0.42 0.577 0.81 1.142 1.17 1.697 c 0.367 0.555 0.668 1.039 0.9 1.451 l 0 -6.344 l 0.754 0 l 0 7.795 l -0.641 0 c -0.142 -0.263 -0.328 -0.569 -0.553 -0.922 c -0.218 -0.353 -0.456 -0.728 -0.719 -1.125 c -0.263 -0.405 -0.541 -0.816 -0.834 -1.236 c -0.293 -0.428 -0.584 -0.841 -0.877 -1.238 c -0.285 -0.405 -0.566 -0.784 -0.844 -1.137 c -0.27 -0.352 -0.513 -0.655 -0.73 -0.91 l 0 6.568 l -0.754 0 l 0 -7.795 z m 10.236 1.844 c 0.39 0 0.748 0.077 1.07 0.227 c 0.322 0.143 0.6 0.347 0.832 0.617 c 0.24 0.263 0.423 0.582 0.551 0.957 c 0.135 0.375 0.203 0.791 0.203 1.248 c 0 0.457 -0.068 0.875 -0.203 1.25 c -0.128 0.375 -0.311 0.693 -0.551 0.955 c -0.232 0.262 -0.51 0.469 -0.832 0.619 c -0.322 0.142 -0.68 0.215 -1.07 0.215 c -0.39 0 -0.746 -0.072 -1.068 -0.215 c -0.322 -0.15 -0.604 -0.357 -0.844 -0.619 c -0.232 -0.262 -0.416 -0.58 -0.551 -0.955 c -0.127 -0.375 -0.191 -0.793 -0.191 -1.25 c 0 -0.457 0.064 -0.873 0.191 -1.248 c 0.135 -0.375 0.318 -0.695 0.551 -0.957 c 0.24 -0.27 0.521 -0.475 0.844 -0.617 c 0.322 -0.15 0.678 -0.227 1.068 -0.227 z m 0 0.664 c -0.577 0 -1.034 0.217 -1.371 0.652 c -0.337 0.428 -0.508 1 -0.508 1.732 c 0 0.728 0.17 1.305 0.508 1.732 c 0.338 0.428 0.794 0.643 1.371 0.643 c 0.578 0 1.036 -0.215 1.373 -0.643 c 0.338 -0.428 0.506 -1 0.506 -1.732 c 0 -0.727 -0.168 -1.305 -0.506 -1.732 c -0.337 -0.435 -0.796 -0.652 -1.373 -0.652 z m 5.908 2.471 l 0.496 0 l 0 3.305 l 0.629 0 l 0 0.389 l -0.629 0 l 0 1.373 l -0.467 0 l 0 -1.373 l -2.297 0 l 0 -0.293 c 0.088 -0.234 0.209 -0.499 0.365 -0.791 c 0.161 -0.292 0.341 -0.591 0.541 -0.898 c 0.2 -0.307 0.416 -0.608 0.65 -0.9 c 0.234 -0.297 0.472 -0.567 0.711 -0.811 z m 0.029 0.533 c -0.171 0.175 -0.344 0.378 -0.52 0.607 c -0.175 0.229 -0.345 0.468 -0.506 0.717 c -0.156 0.244 -0.301 0.49 -0.438 0.738 c -0.136 0.249 -0.251 0.485 -0.344 0.709 l 1.807 0 l 0 -2.771 z" style="fill:#ececec;fill-opacity:1"/>
</svg>
