<svg xmlns="http://www.w3.org/2000/svg" viewBox="0 0 22 22">
 <path d="m 3 1 c -1.108 0 -2 0.892 -2 2 l 0 16 c 0 1.108 0.892 2 2 2 l 16 0 c 1.108 0 2 -0.892 2 -2 l 0 -16 c 0 -1.108 -0.892 -2 -2 -2 l -16 0 z m 9.852 5.141 l 0 7.313 c 0 0.18 0.015 0.325 0.045 0.438 c 0.038 0.105 0.089 0.192 0.156 0.26 c 0.068 0.06 0.155 0.105 0.26 0.135 c 0.113 0.03 0.243 0.056 0.393 0.078 l -0.1 0.607 c -0.247 -0.008 -0.467 -0.042 -0.654 -0.102 c -0.18 -0.053 -0.333 -0.134 -0.461 -0.246 c -0.12 -0.12 -0.214 -0.271 -0.281 -0.451 c -0.06 -0.188 -0.09 -0.42 -0.09 -0.697 l 0 -7.199 l 0.732 -0.135 z m -8.652 0.934 l 0.607 0 c 0.383 0.427 0.792 0.922 1.227 1.484 c 0.442 0.555 0.875 1.126 1.295 1.711 c 0.42 0.577 0.81 1.142 1.17 1.697 c 0.367 0.555 0.666 1.039 0.898 1.451 l 0 -6.344 l 0.754 0 l 0 7.795 l -0.641 0 c -0.143 -0.263 -0.326 -0.569 -0.551 -0.922 c -0.218 -0.353 -0.458 -0.728 -0.721 -1.125 c -0.262 -0.405 -0.54 -0.816 -0.832 -1.236 c -0.293 -0.428 -0.584 -0.841 -0.877 -1.238 c -0.285 -0.405 -0.566 -0.784 -0.844 -1.137 c -0.27 -0.352 -0.515 -0.655 -0.732 -0.91 l 0 6.568 l -0.754 0 l 0 -7.795 z m 12.475 4.979 l 0.498 0 l 0 3.305 l 0.629 0 l 0 0.389 l -0.629 0 l 0 1.373 l -0.469 0 l 0 -1.373 l -2.295 0 l 0 -0.293 c 0.088 -0.234 0.209 -0.499 0.365 -0.791 c 0.161 -0.292 0.341 -0.591 0.541 -0.898 c 0.2 -0.307 0.416 -0.608 0.65 -0.9 c 0.234 -0.297 0.47 -0.567 0.709 -0.811 z m 0.029 0.533 c -0.171 0.175 -0.344 0.378 -0.52 0.607 c -0.175 0.229 -0.343 0.468 -0.504 0.717 c -0.156 0.244 -0.303 0.49 -0.439 0.738 c -0.136 0.249 -0.251 0.485 -0.344 0.709 l 1.807 0 l 0 -2.771 z" style="fill:#ececec;fill-opacity:1"/>
</svg>
