<svg xmlns="http://www.w3.org/2000/svg" viewBox="0 0 22 22">
 <path d="m 3 1 c -1.108 0 -2 0.892 -2 2 l 0 16 c 0 1.108 0.892 2 2 2 l 16 0 c 1.108 0 2 -0.892 2 -2 l 0 -16 c 0 -1.108 -0.892 -2 -2 -2 l -16 0 z m 4.336 5.904 c 0.577 0 1.055 0.064 1.43 0.191 c 0.375 0.12 0.648 0.237 0.82 0.35 l -0.258 0.652 c -0.21 -0.15 -0.495 -0.269 -0.855 -0.359 c -0.36 -0.098 -0.75 -0.146 -1.17 -0.146 c -0.39 0 -0.759 0.07 -1.104 0.213 c -0.345 0.143 -0.643 0.356 -0.898 0.641 c -0.255 0.285 -0.457 0.639 -0.607 1.059 c -0.143 0.42 -0.215 0.908 -0.215 1.463 c 0 0.518 0.06 0.986 0.18 1.406 c 0.12 0.412 0.301 0.768 0.541 1.068 c 0.247 0.292 0.55 0.518 0.91 0.676 c 0.36 0.157 0.777 0.234 1.25 0.234 c 0.383 0 0.7 -0.017 0.955 -0.055 c 0.263 -0.045 0.439 -0.088 0.529 -0.125 l 0 -2.992 l 0.766 0 l 0 3.477 c -0.143 0.06 -0.424 0.135 -0.844 0.225 c -0.412 0.098 -0.924 0.146 -1.531 0.146 c -0.51 0 -0.981 -0.09 -1.416 -0.27 c -0.435 -0.18 -0.814 -0.44 -1.137 -0.777 c -0.315 -0.345 -0.562 -0.767 -0.742 -1.27 c -0.18 -0.51 -0.271 -1.092 -0.271 -1.744 c 0 -0.652 0.098 -1.23 0.293 -1.732 c 0.195 -0.51 0.457 -0.934 0.787 -1.271 c 0.337 -0.345 0.727 -0.607 1.17 -0.787 c 0.442 -0.18 0.915 -0.271 1.418 -0.271 z m 5.988 2.037 c 0.24 0 0.464 0.019 0.674 0.057 c 0.218 0.037 0.369 0.074 0.451 0.111 l -0.146 0.631 c -0.06 -0.03 -0.184 -0.06 -0.371 -0.09 c -0.18 -0.037 -0.421 -0.057 -0.721 -0.057 c -0.315 0 -0.571 0.023 -0.766 0.068 c -0.187 0.045 -0.311 0.081 -0.371 0.111 l 0 5.096 l -0.73 0 l 0 -5.545 c 0.188 -0.083 0.445 -0.166 0.775 -0.248 c 0.33 -0.09 0.733 -0.135 1.205 -0.135 z m 3.881 3.111 l 0.498 0 l 0 3.305 l 0.629 0 l 0 0.389 l -0.629 0 l 0 1.373 l -0.469 0 l 0 -1.373 l -2.297 0 l 0 -0.293 c 0.088 -0.234 0.211 -0.499 0.367 -0.791 c 0.161 -0.292 0.341 -0.591 0.541 -0.898 c 0.2 -0.307 0.416 -0.608 0.65 -0.9 c 0.234 -0.297 0.47 -0.567 0.709 -0.811 z m 0.029 0.533 c -0.171 0.175 -0.344 0.378 -0.52 0.607 c -0.175 0.229 -0.343 0.468 -0.504 0.717 c -0.156 0.244 -0.303 0.49 -0.439 0.738 c -0.136 0.249 -0.251 0.485 -0.344 0.709 l 1.807 0 l 0 -2.771 z" style="fill:#ececec;fill-opacity:1"/>
</svg>
