<svg xmlns="http://www.w3.org/2000/svg" viewBox="0 0 22 22">
 <path d="m 3 1 c -1.108 0 -2 0.892 -2 2 l 0 16 c 0 1.108 0.892 2 2 2 l 16 0 c 1.108 0 2 -0.892 2 -2 l 0 -16 c 0 -1.108 -0.892 -2 -2 -2 l -16 0 z m 1.16 6.074 l 4.5 0 l 0 0.664 l -3.736 0 l 0 2.711 l 3.33 0 l 0 0.652 l -3.33 0 l 0 3.105 l 4.03 0 l 0 0.662 l -4.791 0 l 0 -7.795 z m 7.77 1.844 c 0.397 0 0.724 0.034 0.979 0.102 c 0.262 0.068 0.446 0.127 0.551 0.18 l -0.168 0.652 c -0.09 -0.045 -0.243 -0.105 -0.461 -0.18 c -0.21 -0.075 -0.521 -0.111 -0.934 -0.111 c -0.165 0 -0.323 0.019 -0.473 0.057 c -0.143 0.03 -0.27 0.081 -0.383 0.156 c -0.113 0.068 -0.202 0.157 -0.27 0.27 c -0.067 0.105 -0.102 0.237 -0.102 0.395 c 0 0.158 0.03 0.292 0.09 0.404 c 0.06 0.113 0.145 0.215 0.258 0.305 c 0.12 0.083 0.263 0.161 0.428 0.236 c 0.173 0.075 0.368 0.158 0.586 0.248 c 0.225 0.09 0.438 0.184 0.641 0.281 c 0.21 0.09 0.393 0.201 0.551 0.336 c 0.157 0.127 0.285 0.285 0.383 0.473 c 0.098 0.18 0.146 0.41 0.146 0.688 c 0 0.525 -0.198 0.921 -0.596 1.191 c -0.39 0.27 -0.927 0.406 -1.609 0.406 c -0.51 0 -0.9 -0.047 -1.17 -0.137 c -0.27 -0.083 -0.449 -0.144 -0.539 -0.189 l 0.189 -0.664 c 0.023 0.015 0.071 0.041 0.146 0.078 c 0.075 0.03 0.177 0.068 0.305 0.113 c 0.127 0.037 0.277 0.07 0.449 0.1 c 0.18 0.03 0.387 0.045 0.619 0.045 c 0.42 0 0.765 -0.066 1.035 -0.201 c 0.277 -0.143 0.416 -0.379 0.416 -0.709 c 0 -0.158 -0.026 -0.292 -0.078 -0.404 c -0.045 -0.112 -0.124 -0.215 -0.236 -0.305 c -0.112 -0.09 -0.264 -0.175 -0.451 -0.258 c -0.18 -0.082 -0.404 -0.18 -0.674 -0.293 c -0.217 -0.09 -0.424 -0.18 -0.619 -0.27 c -0.195 -0.097 -0.368 -0.206 -0.518 -0.326 c -0.15 -0.128 -0.269 -0.279 -0.359 -0.451 c -0.09 -0.173 -0.135 -0.381 -0.135 -0.629 c 0 -0.472 0.175 -0.856 0.527 -1.148 c 0.36 -0.293 0.852 -0.439 1.475 -0.439 z m 4.332 3.03 c 0.253 0 0.473 0.039 0.658 0.117 c 0.185 0.073 0.336 0.169 0.453 0.291 c 0.122 0.122 0.21 0.262 0.264 0.418 c 0.059 0.156 0.088 0.317 0.088 0.482 c 0 0.161 -0.025 0.309 -0.074 0.445 c -0.049 0.132 -0.111 0.253 -0.189 0.365 c -0.078 0.107 -0.166 0.202 -0.264 0.285 c -0.098 0.083 -0.193 0.154 -0.285 0.213 c 0.341 0.146 0.58 0.329 0.717 0.549 c 0.141 0.219 0.211 0.452 0.211 0.695 c 0 0.21 -0.037 0.401 -0.115 0.576 c -0.073 0.175 -0.178 0.326 -0.314 0.453 c -0.137 0.122 -0.303 0.217 -0.498 0.285 c -0.195 0.073 -0.412 0.111 -0.65 0.111 c -0.239 0 -0.455 -0.035 -0.65 -0.104 c -0.19 -0.068 -0.357 -0.163 -0.498 -0.285 c -0.136 -0.127 -0.244 -0.272 -0.322 -0.438 c -0.073 -0.171 -0.109 -0.357 -0.109 -0.557 c 0 -0.171 0.024 -0.324 0.072 -0.461 c 0.049 -0.141 0.113 -0.266 0.191 -0.373 c 0.083 -0.112 0.175 -0.21 0.277 -0.293 c 0.107 -0.088 0.219 -0.163 0.336 -0.227 c -0.297 -0.146 -0.498 -0.318 -0.605 -0.518 c -0.107 -0.2 -0.162 -0.418 -0.162 -0.652 c 0 -0.21 0.036 -0.4 0.109 -0.57 c 0.073 -0.171 0.174 -0.315 0.301 -0.432 c 0.132 -0.122 0.286 -0.214 0.467 -0.277 c 0.18 -0.068 0.379 -0.102 0.594 -0.102 z m 0 0.408 c -0.161 0 -0.302 0.025 -0.424 0.074 c -0.122 0.049 -0.226 0.117 -0.309 0.205 c -0.078 0.083 -0.138 0.179 -0.182 0.291 c -0.039 0.112 -0.059 0.23 -0.059 0.352 c 0 0.136 0.014 0.261 0.043 0.373 c 0.034 0.112 0.096 0.214 0.184 0.307 c 0.088 0.088 0.209 0.172 0.365 0.25 c 0.156 0.073 0.362 0.143 0.615 0.211 c 0.224 -0.127 0.402 -0.282 0.533 -0.467 c 0.132 -0.185 0.197 -0.417 0.197 -0.695 c 0 -0.112 -0.02 -0.223 -0.059 -0.33 c -0.034 -0.107 -0.09 -0.202 -0.168 -0.285 c -0.073 -0.088 -0.171 -0.154 -0.293 -0.203 c -0.122 -0.054 -0.27 -0.082 -0.445 -0.082 z m -0.293 2.311 c -0.249 0.117 -0.442 0.277 -0.578 0.477 c -0.136 0.195 -0.205 0.431 -0.205 0.709 c 0 0.136 0.023 0.264 0.066 0.381 c 0.044 0.117 0.11 0.219 0.197 0.307 c 0.093 0.088 0.204 0.157 0.336 0.211 c 0.136 0.049 0.296 0.074 0.477 0.074 c 0.18 0 0.335 -0.025 0.467 -0.074 c 0.137 -0.054 0.25 -0.123 0.338 -0.211 c 0.093 -0.088 0.159 -0.19 0.203 -0.307 c 0.044 -0.117 0.066 -0.244 0.066 -0.381 c 0 -0.21 -0.042 -0.38 -0.125 -0.512 c -0.078 -0.132 -0.183 -0.239 -0.314 -0.322 c -0.127 -0.083 -0.272 -0.149 -0.438 -0.197 c -0.161 -0.049 -0.324 -0.101 -0.49 -0.154 z" style="fill:#ececec;fill-opacity:1"/>
</svg>
