<svg xmlns="http://www.w3.org/2000/svg" viewBox="0 0 22 22">
 <path d="m 3 1 c -1.108 0 -2 0.892 -2 2 l 0 16 c 0 1.108 0.892 2 2 2 l 16 0 c 1.108 0 2 -0.892 2 -2 l 0 -16 c 0 -1.108 -0.892 -2 -2 -2 l -16 0 z m -0.521 6.074 l 0.607 0 c 0.382 0.428 0.792 0.922 1.227 1.484 c 0.442 0.555 0.873 1.126 1.293 1.711 c 0.42 0.577 0.81 1.142 1.17 1.697 c 0.368 0.555 0.668 1.039 0.9 1.451 l 0 -6.344 l 0.754 0 l 0 7.795 l -0.641 0 c -0.143 -0.263 -0.328 -0.569 -0.553 -0.922 c -0.217 -0.353 -0.456 -0.728 -0.719 -1.125 c -0.262 -0.405 -0.541 -0.816 -0.834 -1.236 c -0.293 -0.428 -0.584 -0.841 -0.877 -1.238 c -0.285 -0.405 -0.566 -0.784 -0.844 -1.137 c -0.27 -0.352 -0.513 -0.655 -0.73 -0.91 l 0 6.568 l -0.754 0 l 0 -7.795 z m 10.236 1.844 c 0.39 0 0.748 0.077 1.07 0.227 c 0.322 0.143 0.6 0.347 0.832 0.617 c 0.24 0.263 0.423 0.582 0.551 0.957 c 0.135 0.375 0.203 0.791 0.203 1.248 c 0 0.457 -0.068 0.875 -0.203 1.25 c -0.127 0.375 -0.311 0.693 -0.551 0.955 c -0.232 0.262 -0.51 0.469 -0.832 0.619 c -0.322 0.142 -0.68 0.215 -1.07 0.215 c -0.39 0 -0.746 -0.072 -1.068 -0.215 c -0.322 -0.15 -0.604 -0.357 -0.844 -0.619 c -0.232 -0.262 -0.416 -0.58 -0.551 -0.955 c -0.127 -0.375 -0.191 -0.793 -0.191 -1.25 c 0 -0.457 0.064 -0.873 0.191 -1.248 c 0.135 -0.375 0.318 -0.695 0.551 -0.957 c 0.24 -0.27 0.521 -0.475 0.844 -0.617 c 0.323 -0.15 0.678 -0.227 1.068 -0.227 z m 0 0.664 c -0.577 0 -1.034 0.217 -1.371 0.652 c -0.338 0.428 -0.508 1 -0.508 1.732 c 0 0.728 0.17 1.305 0.508 1.732 c 0.338 0.428 0.794 0.643 1.371 0.643 c 0.578 0 1.036 -0.215 1.373 -0.643 c 0.337 -0.428 0.506 -1 0.506 -1.732 c 0 -0.727 -0.168 -1.305 -0.506 -1.732 c -0.338 -0.435 -0.796 -0.652 -1.373 -0.652 z m 4.35 2.471 l 2.281 0 l 0 0.416 l -1.863 0 c -0.005 0.093 -0.014 0.213 -0.023 0.359 c -0.01 0.146 -0.02 0.297 -0.029 0.453 c -0.01 0.151 -0.021 0.296 -0.035 0.438 c -0.015 0.141 -0.027 0.255 -0.037 0.338 c 0.375 0.01 0.7 0.056 0.973 0.139 c 0.273 0.083 0.496 0.195 0.672 0.336 c 0.175 0.141 0.306 0.312 0.389 0.512 c 0.088 0.2 0.131 0.422 0.131 0.666 c 0 0.215 -0.036 0.414 -0.109 0.6 c -0.068 0.185 -0.176 0.346 -0.322 0.482 c -0.146 0.137 -0.33 0.244 -0.555 0.322 c -0.224 0.078 -0.49 0.117 -0.797 0.117 c -0.156 0 -0.303 -0.013 -0.439 -0.037 c -0.132 -0.02 -0.252 -0.045 -0.359 -0.074 c -0.102 -0.029 -0.189 -0.057 -0.262 -0.086 c -0.073 -0.029 -0.128 -0.055 -0.162 -0.074 l 0.125 -0.424 c 0.029 0.02 0.078 0.043 0.146 0.072 c 0.073 0.029 0.155 0.059 0.248 0.088 c 0.098 0.024 0.205 0.047 0.322 0.066 c 0.122 0.02 0.249 0.029 0.381 0.029 c 0.244 0 0.445 -0.026 0.605 -0.08 c 0.166 -0.059 0.297 -0.137 0.395 -0.234 c 0.098 -0.097 0.166 -0.209 0.205 -0.336 c 0.044 -0.132 0.066 -0.273 0.066 -0.424 c 0 -0.195 -0.032 -0.371 -0.096 -0.527 c -0.063 -0.156 -0.175 -0.287 -0.336 -0.395 c -0.161 -0.107 -0.377 -0.189 -0.65 -0.242 c -0.273 -0.058 -0.62 -0.088 -1.039 -0.088 c 0.029 -0.249 0.055 -0.475 0.074 -0.68 c 0.02 -0.21 0.036 -0.409 0.051 -0.6 c 0.015 -0.195 0.024 -0.382 0.029 -0.563 c 0.01 -0.185 0.017 -0.375 0.021 -0.57 z" style="fill:#ececec;fill-opacity:1"/>
</svg>
