<svg xmlns="http://www.w3.org/2000/svg" viewBox="0 0 22 22">
 <path d="m 3 1 c -1.108 0 -2 0.892 -2 2 l 0 16 c 0 1.108 0.892 2 2 2 l 16 0 c 1.108 0 2 -0.892 2 -2 l 0 -16 c 0 -1.108 -0.892 -2 -2 -2 l -16 0 z m 1.559 5.04 l 0.674 0 c 0.225 0.375 0.466 0.81 0.721 1.305 c 0.255 0.487 0.506 0.997 0.754 1.529 c 0.255 0.525 0.498 1.047 0.73 1.564 c 0.24 0.51 0.451 0.97 0.631 1.383 c 0.18 -0.412 0.387 -0.873 0.619 -1.383 c 0.24 -0.517 0.483 -1.039 0.73 -1.564 c 0.255 -0.532 0.511 -1.042 0.766 -1.529 c 0.255 -0.495 0.494 -0.93 0.719 -1.305 l 0.643 0 c 0.127 1.185 0.232 2.425 0.314 3.723 c 0.09 1.297 0.169 2.655 0.236 4.072 l -0.777 0 c -0.045 -1.207 -0.096 -2.358 -0.156 -3.453 c -0.052 -1.103 -0.127 -2.123 -0.225 -3.061 c -0.06 0.105 -0.154 0.286 -0.281 0.541 c -0.127 0.255 -0.274 0.551 -0.439 0.889 c -0.165 0.338 -0.338 0.702 -0.518 1.092 c -0.18 0.382 -0.357 0.757 -0.529 1.125 c -0.172 0.36 -0.33 0.692 -0.473 1 c -0.135 0.307 -0.239 0.555 -0.314 0.742 l -0.686 0 c -0.075 -0.188 -0.184 -0.435 -0.326 -0.742 c -0.135 -0.308 -0.288 -0.64 -0.461 -1 c -0.173 -0.368 -0.349 -0.743 -0.529 -1.125 c -0.18 -0.39 -0.353 -0.754 -0.518 -1.092 c -0.165 -0.338 -0.312 -0.634 -0.439 -0.889 c -0.127 -0.255 -0.221 -0.436 -0.281 -0.541 c -0.098 0.938 -0.176 1.958 -0.236 3.061 c -0.053 1.095 -0.101 2.246 -0.146 3.453 l -0.754 0 c 0.067 -1.417 0.144 -2.775 0.227 -4.072 c 0.09 -1.297 0.199 -2.538 0.326 -3.723 z m 8.586 1.979 l 0.775 0 c 0.082 0.36 0.189 0.752 0.316 1.172 c 0.127 0.412 0.27 0.839 0.428 1.281 c 0.165 0.443 0.344 0.896 0.539 1.361 c 0.195 0.465 0.406 0.923 0.631 1.373 c 0.165 -0.465 0.31 -0.904 0.438 -1.316 c 0.127 -0.413 0.245 -0.822 0.35 -1.227 c 0.113 -0.412 0.217 -0.832 0.314 -1.26 c 0.105 -0.428 0.214 -0.89 0.326 -1.385 l 0.732 0 c -0.24 1.088 -0.515 2.146 -0.822 3.174 c -0.308 1.027 -0.642 1.969 -1 2.824 c -0.142 0.338 -0.287 0.625 -0.438 0.865 c -0.15 0.248 -0.318 0.45 -0.506 0.607 c -0.18 0.157 -0.395 0.275 -0.643 0.35 c -0.24 0.075 -0.525 0.111 -0.855 0.111 c -0.188 0 -0.358 -0.021 -0.516 -0.066 c -0.15 -0.045 -0.244 -0.079 -0.281 -0.102 l 0.145 -0.607 c 0.03 0.022 0.113 0.052 0.248 0.09 c 0.143 0.045 0.289 0.066 0.439 0.066 c 0.21 0 0.398 -0.021 0.563 -0.066 c 0.172 -0.045 0.326 -0.124 0.461 -0.236 c 0.135 -0.105 0.254 -0.244 0.359 -0.416 c 0.113 -0.173 0.221 -0.39 0.326 -0.652 c -0.248 -0.457 -0.486 -0.935 -0.719 -1.43 c -0.225 -0.495 -0.44 -0.994 -0.643 -1.496 c -0.195 -0.51 -0.374 -1.015 -0.539 -1.518 c -0.165 -0.51 -0.308 -1.01 -0.428 -1.498 z" style="fill:#ececec;fill-opacity:1"/>
</svg>
