<svg xmlns="http://www.w3.org/2000/svg" viewBox="0 0 22 22">
 <path d="m 3 1 c -1.108 0 -2 0.892 -2 2 l 0 16 c 0 1.108 0.892 2 2 2 l 16 0 c 1.108 0 2 -0.892 2 -2 l 0 -16 c 0 -1.108 -0.892 -2 -2 -2 l -16 0 z m 4.963 6 c 1.103 0 1.925 0.211 2.465 0.631 c 0.54 0.42 0.811 1.017 0.811 1.789 c 0 0.442 -0.079 0.82 -0.236 1.135 c -0.158 0.307 -0.383 0.559 -0.676 0.754 c -0.293 0.188 -0.653 0.328 -1.08 0.418 c -0.42 0.083 -0.895 0.123 -1.428 0.123 l -1.059 0 l 0 3.02 l -0.766 0 l 0 -7.65 c 0.27 -0.075 0.585 -0.128 0.945 -0.158 c 0.368 -0.037 0.708 -0.057 1.023 -0.057 z m 0.035 0.664 c -0.285 0 -0.53 0.011 -0.732 0.033 c -0.195 0.015 -0.363 0.03 -0.506 0.045 l 0 3.443 l 0.967 0 c 0.412 0 0.785 -0.023 1.115 -0.068 c 0.338 -0.053 0.621 -0.142 0.854 -0.27 c 0.24 -0.135 0.425 -0.318 0.553 -0.551 c 0.127 -0.232 0.191 -0.529 0.191 -0.889 c 0 -0.345 -0.072 -0.63 -0.215 -0.855 c -0.135 -0.225 -0.318 -0.402 -0.551 -0.529 c -0.225 -0.135 -0.485 -0.229 -0.777 -0.281 c -0.293 -0.053 -0.591 -0.078 -0.898 -0.078 z m 6.184 1.25 c 0.397 0 0.725 0.032 0.98 0.1 c 0.263 0.067 0.446 0.129 0.551 0.182 l -0.17 0.652 c -0.09 -0.045 -0.243 -0.107 -0.461 -0.182 c -0.21 -0.075 -0.521 -0.111 -0.934 -0.111 c -0.165 0 -0.323 0.019 -0.473 0.057 c -0.143 0.03 -0.27 0.081 -0.383 0.156 c -0.112 0.068 -0.202 0.159 -0.27 0.271 c -0.068 0.105 -0.102 0.235 -0.102 0.393 c 0 0.157 0.03 0.292 0.09 0.404 c 0.06 0.112 0.147 0.215 0.26 0.305 c 0.12 0.082 0.263 0.161 0.428 0.236 c 0.173 0.075 0.366 0.158 0.584 0.248 c 0.225 0.09 0.44 0.184 0.643 0.281 c 0.21 0.09 0.393 0.201 0.551 0.336 c 0.158 0.127 0.285 0.285 0.383 0.473 c 0.098 0.18 0.146 0.41 0.146 0.688 c 0 0.525 -0.2 0.921 -0.598 1.191 c -0.39 0.27 -0.925 0.406 -1.607 0.406 c -0.51 0 -0.9 -0.045 -1.17 -0.135 c -0.27 -0.082 -0.451 -0.146 -0.541 -0.191 l 0.191 -0.664 c 0.023 0.015 0.071 0.041 0.146 0.078 c 0.075 0.03 0.175 0.068 0.303 0.113 c 0.128 0.037 0.279 0.072 0.451 0.102 c 0.18 0.03 0.387 0.045 0.619 0.045 c 0.42 0 0.765 -0.068 1.035 -0.203 c 0.277 -0.143 0.416 -0.379 0.416 -0.709 c 0 -0.157 -0.028 -0.292 -0.08 -0.404 c -0.045 -0.113 -0.124 -0.215 -0.236 -0.305 c -0.112 -0.09 -0.262 -0.175 -0.449 -0.258 c -0.18 -0.082 -0.406 -0.18 -0.676 -0.293 c -0.217 -0.09 -0.422 -0.18 -0.617 -0.27 c -0.195 -0.098 -0.368 -0.206 -0.518 -0.326 c -0.15 -0.127 -0.271 -0.279 -0.361 -0.451 c -0.09 -0.173 -0.135 -0.381 -0.135 -0.629 c 0 -0.473 0.177 -0.856 0.529 -1.148 c 0.36 -0.293 0.85 -0.438 1.473 -0.438 z" style="fill:#ececec;fill-opacity:1"/>
</svg>
