<svg xmlns="http://www.w3.org/2000/svg" viewBox="0 0 22 22">
 <path d="m 3 1 c -1.108 0 -2 0.892 -2 2 l 0 16 c 0 1.108 0.892 2 2 2 l 16 0 c 1.108 0 2 -0.892 2 -2 l 0 -16 c 0 -1.108 -0.892 -2 -2 -2 l -16 0 z m -0.342 6.074 l 0.764 0 l 0 3.387 l 4.23 0 l 0 -3.387 l 0.766 0 l 0 7.795 l -0.766 0 l 0 -3.746 l -4.23 0 l 0 3.746 l -0.764 0 l 0 -7.795 z m 7.666 1.98 l 0.73 0 l 0 3.03 c 0 0.412 0.03 0.762 0.09 1.047 c 0.06 0.285 0.158 0.517 0.293 0.697 c 0.135 0.173 0.308 0.3 0.518 0.383 c 0.217 0.075 0.48 0.111 0.787 0.111 c 0.345 0 0.645 -0.019 0.9 -0.057 c 0.255 -0.037 0.417 -0.07 0.484 -0.1 l 0 -5.107 l 0.73 0 l 0 5.613 c -0.217 0.06 -0.509 0.126 -0.877 0.201 c -0.367 0.075 -0.819 0.113 -1.352 0.113 c -0.435 0 -0.797 -0.064 -1.09 -0.191 c -0.292 -0.128 -0.529 -0.307 -0.709 -0.539 c -0.18 -0.232 -0.312 -0.514 -0.395 -0.844 c -0.075 -0.33 -0.111 -0.694 -0.111 -1.092 l 0 -3.262 z m 7.307 2.889 c 0.253 0 0.47 0.03 0.65 0.094 c 0.185 0.063 0.339 0.154 0.461 0.271 c 0.122 0.112 0.213 0.249 0.271 0.41 c 0.058 0.156 0.088 0.326 0.088 0.512 c 0 0.297 -0.081 0.54 -0.242 0.73 c -0.156 0.185 -0.359 0.319 -0.607 0.402 c 0.136 0.034 0.27 0.087 0.396 0.16 c 0.132 0.068 0.247 0.159 0.35 0.271 c 0.102 0.107 0.187 0.239 0.25 0.395 c 0.063 0.156 0.094 0.339 0.094 0.549 c 0 0.214 -0.039 0.411 -0.117 0.592 c -0.073 0.18 -0.185 0.338 -0.336 0.475 c -0.146 0.132 -0.333 0.236 -0.563 0.314 c -0.229 0.073 -0.498 0.111 -0.805 0.111 c -0.161 0 -0.309 -0.013 -0.445 -0.037 c -0.132 -0.02 -0.249 -0.045 -0.352 -0.074 c -0.102 -0.029 -0.191 -0.057 -0.264 -0.086 c -0.068 -0.029 -0.12 -0.055 -0.154 -0.074 l 0.125 -0.424 c 0.029 0.02 0.078 0.043 0.146 0.072 c 0.068 0.029 0.15 0.059 0.242 0.088 c 0.098 0.024 0.203 0.047 0.32 0.066 c 0.122 0.02 0.253 0.029 0.395 0.029 c 0.463 0 0.796 -0.095 0.996 -0.285 c 0.2 -0.195 0.299 -0.457 0.299 -0.783 c 0 -0.215 -0.04 -0.392 -0.123 -0.533 c -0.078 -0.141 -0.189 -0.253 -0.33 -0.336 c -0.137 -0.088 -0.297 -0.149 -0.482 -0.184 c -0.18 -0.039 -0.373 -0.059 -0.578 -0.059 l -0.072 0 l 0 -0.395 l 0.168 0 c 0.132 0 0.266 -0.013 0.402 -0.037 c 0.141 -0.029 0.267 -0.079 0.379 -0.152 c 0.117 -0.073 0.212 -0.171 0.285 -0.293 c 0.078 -0.122 0.117 -0.279 0.117 -0.469 c 0 -0.161 -0.026 -0.296 -0.08 -0.408 c -0.054 -0.117 -0.126 -0.211 -0.219 -0.279 c -0.088 -0.068 -0.193 -0.115 -0.314 -0.145 c -0.117 -0.034 -0.241 -0.053 -0.373 -0.053 c -0.263 0 -0.469 0.036 -0.615 0.109 c -0.146 0.073 -0.265 0.142 -0.357 0.205 l -0.205 -0.373 c 0.049 -0.034 0.11 -0.073 0.184 -0.117 c 0.078 -0.044 0.167 -0.084 0.27 -0.123 c 0.102 -0.039 0.214 -0.071 0.336 -0.096 c 0.127 -0.029 0.264 -0.043 0.41 -0.043 z" style="fill:#ececec;fill-opacity:1"/>
</svg>
