<svg xmlns="http://www.w3.org/2000/svg" viewBox="0 0 22 22">
 <path d="m 3 1 c -1.108 0 -2 0.892 -2 2 l 0 16 c 0 1.108 0.892 2 2 2 l 16 0 c 1.108 0 2 -0.892 2 -2 l 0 -16 c 0 -1.108 -0.892 -2 -2 -2 l -16 0 z m 5.176 6.102 l 0.674 0 c 0.277 0.577 0.54 1.155 0.787 1.732 c 0.247 0.578 0.495 1.182 0.742 1.812 c 0.255 0.623 0.515 1.285 0.777 1.99 c 0.262 0.697 0.548 1.452 0.855 2.262 l -0.844 0 c -0.143 -0.383 -0.279 -0.751 -0.406 -1.104 c -0.127 -0.352 -0.251 -0.698 -0.371 -1.035 l -3.791 0 c -0.128 0.337 -0.255 0.683 -0.383 1.035 c -0.128 0.353 -0.258 0.721 -0.393 1.104 l -0.799 0 c 0.3 -0.81 0.581 -1.564 0.844 -2.262 c 0.263 -0.705 0.516 -1.368 0.764 -1.99 c 0.255 -0.63 0.506 -1.235 0.754 -1.812 c 0.247 -0.578 0.512 -1.155 0.789 -1.732 z m 0.314 0.877 c -0.285 0.645 -0.562 1.301 -0.832 1.969 c -0.262 0.668 -0.537 1.388 -0.822 2.16 l 3.318 0 c -0.285 -0.772 -0.562 -1.493 -0.832 -2.16 c -0.27 -0.668 -0.547 -1.324 -0.832 -1.969 z m 4.4 1.104 l 3.982 0 l 0 0.596 c -0.172 0.195 -0.396 0.466 -0.674 0.811 c -0.277 0.345 -0.574 0.731 -0.889 1.158 c -0.315 0.42 -0.626 0.863 -0.934 1.328 c -0.308 0.458 -0.578 0.892 -0.811 1.305 l 3.408 0 l 0 0.619 l -4.252 0 l 0 -0.529 c 0.195 -0.368 0.436 -0.772 0.721 -1.215 c 0.293 -0.442 0.591 -0.877 0.898 -1.305 c 0.308 -0.435 0.608 -0.84 0.9 -1.215 c 0.292 -0.383 0.54 -0.694 0.742 -0.934 l -3.094 0 l 0 -0.619 z" style="fill:#ececec;fill-opacity:1"/>
</svg>
