<svg xmlns="http://www.w3.org/2000/svg" viewBox="0 0 22 22">
 <path d="m 3 1 c -1.108 0 -2 0.892 -2 2 l 0 16 c 0 1.108 0.892 2 2 2 l 16 0 c 1.108 0 2 -0.892 2 -2 l 0 -16 c 0 -1.108 -0.892 -2 -2 -2 l -16 0 z m 10.941 5.141 l 0 7.313 c 0 0.18 0.015 0.325 0.045 0.438 c 0.037 0.105 0.091 0.192 0.158 0.26 c 0.067 0.06 0.155 0.105 0.26 0.135 c 0.113 0.03 0.243 0.056 0.393 0.078 l -0.102 0.607 c -0.247 -0.008 -0.465 -0.042 -0.652 -0.102 c -0.18 -0.053 -0.333 -0.134 -0.461 -0.246 c -0.12 -0.12 -0.214 -0.271 -0.281 -0.451 c -0.06 -0.188 -0.09 -0.42 -0.09 -0.697 l 0 -7.199 l 0.73 -0.135 z m -10.05 0.934 l 0.676 0 c 0.225 0.375 0.466 0.81 0.721 1.305 c 0.255 0.488 0.506 0.997 0.754 1.529 c 0.255 0.525 0.498 1.047 0.73 1.564 c 0.24 0.51 0.451 0.97 0.631 1.383 c 0.18 -0.412 0.385 -0.873 0.617 -1.383 c 0.24 -0.518 0.485 -1.039 0.732 -1.564 c 0.255 -0.532 0.509 -1.042 0.764 -1.529 c 0.255 -0.495 0.496 -0.93 0.721 -1.305 l 0.641 0 c 0.127 1.185 0.234 2.425 0.316 3.723 c 0.09 1.297 0.169 2.655 0.236 4.072 l -0.777 0 c -0.045 -1.208 -0.096 -2.358 -0.156 -3.453 c -0.053 -1.103 -0.129 -2.123 -0.227 -3.061 c -0.06 0.105 -0.154 0.286 -0.281 0.541 c -0.127 0.255 -0.273 0.551 -0.438 0.889 c -0.165 0.337 -0.338 0.702 -0.518 1.092 c -0.18 0.383 -0.357 0.758 -0.529 1.125 c -0.172 0.36 -0.33 0.692 -0.473 1 c -0.135 0.307 -0.239 0.555 -0.314 0.742 l -0.688 0 c -0.075 -0.188 -0.184 -0.435 -0.326 -0.742 c -0.135 -0.308 -0.288 -0.64 -0.461 -1 c -0.172 -0.367 -0.347 -0.742 -0.527 -1.125 c -0.18 -0.39 -0.353 -0.754 -0.518 -1.092 c -0.165 -0.337 -0.312 -0.634 -0.439 -0.889 c -0.127 -0.255 -0.221 -0.436 -0.281 -0.541 c -0.098 0.937 -0.176 1.958 -0.236 3.061 c -0.053 1.095 -0.101 2.246 -0.146 3.453 l -0.754 0 c 0.068 -1.418 0.142 -2.775 0.225 -4.072 c 0.09 -1.298 0.199 -2.538 0.326 -3.723 z m 13.05 4.869 c 0.254 0 0.47 0.03 0.65 0.094 c 0.185 0.063 0.339 0.154 0.461 0.271 c 0.122 0.112 0.211 0.249 0.27 0.41 c 0.058 0.156 0.088 0.326 0.088 0.512 c 0 0.297 -0.079 0.54 -0.24 0.73 c -0.156 0.185 -0.359 0.319 -0.607 0.402 c 0.136 0.034 0.268 0.087 0.395 0.16 c 0.132 0.068 0.249 0.159 0.352 0.271 c 0.102 0.107 0.185 0.239 0.248 0.395 c 0.063 0.156 0.096 0.339 0.096 0.549 c 0 0.214 -0.039 0.411 -0.117 0.592 c -0.073 0.18 -0.185 0.338 -0.336 0.475 c -0.146 0.132 -0.335 0.236 -0.564 0.314 c -0.229 0.073 -0.496 0.111 -0.803 0.111 c -0.161 0 -0.311 -0.013 -0.447 -0.037 c -0.132 -0.02 -0.249 -0.045 -0.352 -0.074 c -0.102 -0.029 -0.189 -0.057 -0.262 -0.086 c -0.068 -0.029 -0.12 -0.055 -0.154 -0.074 l 0.125 -0.424 c 0.029 0.02 0.078 0.043 0.146 0.072 c 0.068 0.029 0.148 0.059 0.24 0.088 c 0.098 0.024 0.205 0.047 0.322 0.066 c 0.122 0.02 0.253 0.029 0.395 0.029 c 0.463 0 0.794 -0.095 0.994 -0.285 c 0.2 -0.195 0.301 -0.457 0.301 -0.783 c 0 -0.215 -0.042 -0.392 -0.125 -0.533 c -0.078 -0.141 -0.187 -0.253 -0.328 -0.336 c -0.137 -0.088 -0.297 -0.149 -0.482 -0.184 c -0.18 -0.039 -0.373 -0.059 -0.578 -0.059 l -0.074 0 l 0 -0.395 l 0.168 0 c 0.132 0 0.266 -0.013 0.402 -0.037 c 0.141 -0.029 0.269 -0.079 0.381 -0.152 c 0.117 -0.073 0.212 -0.171 0.285 -0.293 c 0.078 -0.122 0.117 -0.279 0.117 -0.469 c 0 -0.161 -0.026 -0.296 -0.08 -0.408 c -0.054 -0.117 -0.128 -0.211 -0.221 -0.279 c -0.088 -0.068 -0.193 -0.115 -0.314 -0.145 c -0.117 -0.034 -0.241 -0.053 -0.373 -0.053 c -0.263 0 -0.467 0.036 -0.613 0.109 c -0.146 0.073 -0.265 0.142 -0.357 0.205 l -0.205 -0.373 c 0.049 -0.034 0.109 -0.073 0.182 -0.117 c 0.078 -0.044 0.169 -0.084 0.271 -0.123 c 0.102 -0.039 0.214 -0.071 0.336 -0.096 c 0.127 -0.029 0.264 -0.043 0.41 -0.043 z" style="fill:#ececec;fill-opacity:1"/>
</svg>
