<svg xmlns="http://www.w3.org/2000/svg" viewBox="0 0 22 22">
 <path d="m 3 1 c -1.108 0 -2 0.892 -2 2 l 0 16 c 0 1.108 0.892 2 2 2 l 16 0 c 1.108 0 2 -0.892 2 -2 l 0 -16 c 0 -1.108 -0.892 -2 -2 -2 l -16 0 z m 2.035 6.074 l 0.764 0 l 0 7.795 l -0.764 0 l 0 -7.795 z m 4.973 1.867 c 0.443 0 0.809 0.064 1.102 0.191 c 0.3 0.127 0.536 0.311 0.709 0.551 c 0.18 0.232 0.308 0.514 0.383 0.844 c 0.075 0.33 0.113 0.694 0.113 1.092 l 0 3.25 l -0.732 0 l 0 -3.01 c 0 -0.412 -0.03 -0.762 -0.09 -1.047 c -0.053 -0.285 -0.146 -0.517 -0.281 -0.697 c -0.128 -0.18 -0.3 -0.308 -0.518 -0.383 c -0.21 -0.082 -0.476 -0.123 -0.799 -0.123 c -0.345 0 -0.643 0.019 -0.898 0.057 c -0.248 0.037 -0.409 0.07 -0.484 0.1 l 0 5.107 l -0.732 0 l 0 -5.613 c 0.217 -0.06 0.511 -0.126 0.879 -0.201 c 0.367 -0.075 0.817 -0.113 1.35 -0.113 z m 5.832 3.111 l 0.496 0 l 0 3.305 l 0.629 0 l 0 0.389 l -0.629 0 l 0 1.373 l -0.467 0 l 0 -1.373 l -2.297 0 l 0 -0.293 c 0.088 -0.234 0.209 -0.499 0.365 -0.791 c 0.161 -0.292 0.341 -0.591 0.541 -0.898 c 0.2 -0.307 0.418 -0.608 0.652 -0.9 c 0.234 -0.297 0.47 -0.567 0.709 -0.811 z m 0.029 0.533 c -0.171 0.175 -0.344 0.378 -0.52 0.607 c -0.175 0.229 -0.345 0.468 -0.506 0.717 c -0.156 0.244 -0.301 0.49 -0.438 0.738 c -0.136 0.249 -0.251 0.485 -0.344 0.709 l 1.807 0 l 0 -2.771 z" style="fill:#ececec;fill-opacity:1"/>
</svg>
