<svg xmlns="http://www.w3.org/2000/svg" viewBox="0 0 22 22">
 <path d="m 3 1 c -1.108 0 -2 0.892 -2 2 l 0 16 c 0 1.108 0.892 2 2 2 l 16 0 c 1.108 0 2 -0.892 2 -2 l 0 -16 c 0 -1.108 -0.892 -2 -2 -2 l -16 0 z m -0.047 6.074 l 0.607 0 c 0.383 0.427 0.792 0.922 1.227 1.484 c 0.442 0.555 0.875 1.126 1.295 1.711 c 0.42 0.577 0.81 1.142 1.17 1.697 c 0.368 0.555 0.666 1.039 0.898 1.451 l 0 -6.344 l 0.754 0 l 0 7.795 l -0.641 0 c -0.143 -0.263 -0.326 -0.569 -0.551 -0.922 c -0.217 -0.353 -0.458 -0.728 -0.721 -1.125 c -0.263 -0.405 -0.54 -0.816 -0.832 -1.236 c -0.293 -0.428 -0.584 -0.841 -0.877 -1.238 c -0.285 -0.405 -0.566 -0.784 -0.844 -1.137 c -0.27 -0.352 -0.515 -0.655 -0.732 -0.91 l 0 6.568 l -0.754 0 l 0 -7.795 z m 10.238 1.844 c 0.39 0 0.746 0.077 1.068 0.227 c 0.322 0.143 0.6 0.347 0.832 0.617 c 0.24 0.263 0.423 0.582 0.551 0.957 c 0.135 0.375 0.203 0.791 0.203 1.248 c 0 0.457 -0.068 0.875 -0.203 1.25 c -0.127 0.375 -0.311 0.693 -0.551 0.955 c -0.232 0.262 -0.51 0.469 -0.832 0.619 c -0.323 0.142 -0.678 0.215 -1.068 0.215 c -0.39 0 -0.746 -0.072 -1.068 -0.215 c -0.322 -0.15 -0.604 -0.357 -0.844 -0.619 c -0.232 -0.262 -0.418 -0.58 -0.553 -0.955 c -0.127 -0.375 -0.191 -0.793 -0.191 -1.25 c 0 -0.457 0.064 -0.873 0.191 -1.248 c 0.135 -0.375 0.32 -0.695 0.553 -0.957 c 0.24 -0.27 0.521 -0.475 0.844 -0.617 c 0.322 -0.15 0.678 -0.227 1.068 -0.227 z m 0 0.664 c -0.578 0 -1.036 0.217 -1.373 0.652 c -0.337 0.428 -0.506 1 -0.506 1.732 c 0 0.728 0.168 1.305 0.506 1.732 c 0.338 0.428 0.796 0.643 1.373 0.643 c 0.577 0 1.034 -0.215 1.371 -0.643 c 0.338 -0.428 0.508 -1 0.508 -1.732 c 0 -0.727 -0.17 -1.305 -0.508 -1.732 c -0.338 -0.435 -0.794 -0.652 -1.371 -0.652 z m 5.52 2.471 l 0.336 0 l 0 5.066 l -0.477 0 l 0 -4.342 c -0.054 0.059 -0.123 0.118 -0.211 0.182 c -0.083 0.063 -0.178 0.126 -0.285 0.189 c -0.107 0.058 -0.219 0.117 -0.336 0.176 c -0.117 0.054 -0.235 0.099 -0.352 0.133 l -0.139 -0.367 c 0.293 -0.102 0.552 -0.231 0.781 -0.387 c 0.229 -0.161 0.457 -0.377 0.682 -0.65 z" style="fill:#ececec;fill-opacity:1"/>
</svg>
