<svg xmlns="http://www.w3.org/2000/svg" viewBox="0 0 22 22">
 <path d="m 3 1 c -1.108 0 -2 0.892 -2 2 l 0 16 c 0 1.108 0.892 2 2 2 l 16 0 c 1.108 0 2 -0.892 2 -2 l 0 -16 c 0 -1.108 -0.892 -2 -2 -2 l -16 0 z m 6.484 5.934 c 0.293 0 0.559 0.019 0.799 0.057 c 0.24 0.037 0.451 0.085 0.631 0.145 c 0.18 0.053 0.333 0.11 0.461 0.17 c 0.127 0.053 0.225 0.101 0.293 0.146 l -0.248 0.664 c -0.188 -0.113 -0.428 -0.221 -0.721 -0.326 c -0.285 -0.112 -0.641 -0.17 -1.068 -0.17 c -0.488 0 -0.916 0.083 -1.283 0.248 c -0.36 0.165 -0.663 0.397 -0.91 0.697 c -0.247 0.3 -0.435 0.656 -0.563 1.068 c -0.12 0.413 -0.18 0.871 -0.18 1.373 c 0 0.518 0.06 0.986 0.18 1.406 c 0.128 0.413 0.311 0.764 0.551 1.057 c 0.24 0.293 0.532 0.518 0.877 0.676 c 0.352 0.157 0.755 0.236 1.205 0.236 c 0.495 0 0.906 -0.045 1.236 -0.135 c 0.337 -0.098 0.593 -0.195 0.766 -0.293 l 0.213 0.652 c -0.053 0.038 -0.142 0.082 -0.27 0.135 c -0.127 0.045 -0.287 0.094 -0.482 0.146 c -0.195 0.053 -0.421 0.093 -0.676 0.123 c -0.255 0.037 -0.54 0.057 -0.855 0.057 c -0.502 0 -0.971 -0.09 -1.406 -0.27 c -0.427 -0.18 -0.802 -0.442 -1.125 -0.787 c -0.315 -0.345 -0.566 -0.769 -0.754 -1.271 c -0.18 -0.51 -0.27 -1.092 -0.27 -1.744 c 0 -0.653 0.098 -1.23 0.293 -1.732 c 0.202 -0.51 0.469 -0.938 0.799 -1.283 c 0.33 -0.345 0.711 -0.603 1.146 -0.775 c 0.435 -0.18 0.889 -0.27 1.361 -0.27 z m 5.506 2.035 c 0.24 0 0.466 0.019 0.676 0.057 c 0.217 0.037 0.367 0.076 0.449 0.113 l -0.146 0.629 c -0.06 -0.03 -0.184 -0.06 -0.371 -0.09 c -0.18 -0.037 -0.421 -0.057 -0.721 -0.057 c -0.315 0 -0.569 0.023 -0.764 0.068 c -0.188 0.045 -0.311 0.083 -0.371 0.113 l 0 5.096 l -0.732 0 l 0 -5.547 c 0.188 -0.082 0.447 -0.166 0.777 -0.248 c 0.33 -0.09 0.731 -0.135 1.203 -0.135 z" style="fill:#ececec;fill-opacity:1"/>
</svg>
