<svg xmlns="http://www.w3.org/2000/svg" viewBox="0 0 22 22">
 <path d="m 3 1 c -1.108 0 -2 0.892 -2 2 l 0 16 c 0 1.108 0.892 2 2 2 l 16 0 c 1.108 0 2 -0.892 2 -2 l 0 -16 c 0 -1.108 -0.892 -2 -2 -2 l -16 0 z m 3.875 6.04 c 0.63 0 1.209 0.081 1.734 0.246 c 0.525 0.165 0.975 0.412 1.35 0.742 c 0.382 0.33 0.679 0.743 0.889 1.238 c 0.21 0.495 0.314 1.072 0.314 1.732 c 0 0.667 -0.104 1.249 -0.314 1.744 c -0.21 0.495 -0.506 0.908 -0.889 1.238 c -0.375 0.33 -0.825 0.577 -1.35 0.742 c -0.525 0.165 -1.104 0.246 -1.734 0.246 c -0.315 0 -0.643 -0.017 -0.988 -0.055 c -0.345 -0.03 -0.65 -0.079 -0.912 -0.146 l 0 -7.516 c 0.262 -0.075 0.567 -0.128 0.912 -0.158 c 0.345 -0.038 0.673 -0.055 0.988 -0.055 z m 0.092 0.662 c -0.405 0 -0.701 0.013 -0.889 0.035 c -0.18 0.022 -0.293 0.037 -0.338 0.045 l 0 6.445 c 0.045 0.007 0.158 0.022 0.338 0.045 c 0.188 0.022 0.484 0.035 0.889 0.035 c 0.563 0 1.053 -0.077 1.473 -0.227 c 0.42 -0.157 0.774 -0.377 1.059 -0.662 c 0.285 -0.285 0.498 -0.63 0.641 -1.035 c 0.143 -0.413 0.213 -0.875 0.213 -1.385 c 0 -0.51 -0.07 -0.968 -0.213 -1.373 c -0.143 -0.405 -0.356 -0.75 -0.641 -1.035 c -0.285 -0.285 -0.639 -0.502 -1.059 -0.652 c -0.42 -0.158 -0.91 -0.236 -1.473 -0.236 z m 5.109 1.385 l 0.775 0 c 0.09 0.398 0.199 0.826 0.326 1.283 c 0.135 0.45 0.278 0.9 0.428 1.35 c 0.158 0.443 0.319 0.873 0.484 1.293 c 0.165 0.412 0.325 0.781 0.482 1.104 c 0.157 -0.322 0.319 -0.691 0.484 -1.104 c 0.165 -0.42 0.323 -0.85 0.473 -1.293 c 0.158 -0.45 0.3 -0.9 0.428 -1.35 c 0.135 -0.457 0.248 -0.886 0.338 -1.283 l 0.73 0 c -0.135 0.533 -0.284 1.057 -0.449 1.574 c -0.165 0.518 -0.342 1.025 -0.529 1.52 c -0.18 0.495 -0.372 0.97 -0.574 1.428 c -0.195 0.457 -0.387 0.89 -0.574 1.295 l -0.697 0 c -0.195 -0.405 -0.389 -0.837 -0.584 -1.295 c -0.195 -0.458 -0.387 -0.933 -0.574 -1.428 c -0.18 -0.495 -0.353 -1 -0.518 -1.52 c -0.165 -0.518 -0.314 -1.042 -0.449 -1.574 z" style="fill:#ececec;fill-opacity:1"/>
</svg>
