<svg xmlns="http://www.w3.org/2000/svg" viewBox="0 0 22 22">
 <path d="m 3 1 c -1.108 0 -2 0.892 -2 2 l 0 16 c 0 1.108 0.892 2 2 2 l 16 0 c 1.108 0 2 -0.892 2 -2 l 0 -16 c 0 -1.108 -0.892 -2 -2 -2 l -16 0 z m 1.963 6.01 c 1.073 0 1.88 0.202 2.42 0.607 c 0.548 0.405 0.82 1.01 0.82 1.801 c 0 0.585 -0.153 1.045 -0.461 1.383 c -0.308 0.338 -0.712 0.582 -1.215 0.732 c 0.12 0.15 0.273 0.352 0.461 0.607 c 0.195 0.255 0.393 0.536 0.596 0.844 c 0.202 0.3 0.401 0.615 0.596 0.945 c 0.195 0.33 0.361 0.643 0.496 0.943 l -0.822 0 c -0.157 -0.3 -0.33 -0.598 -0.518 -0.898 c -0.18 -0.3 -0.367 -0.59 -0.563 -0.867 c -0.188 -0.285 -0.371 -0.547 -0.551 -0.787 l -0.473 -0.631 c -0.24 0.023 -0.479 0.035 -0.719 0.035 l -1.26 0 l 0 3.148 l -0.766 0 l 0 -7.648 c 0.27 -0.075 0.585 -0.128 0.945 -0.158 c 0.368 -0.037 0.704 -0.057 1.012 -0.057 z m 0.09 0.664 c -0.285 0 -0.536 0.011 -0.754 0.033 c -0.21 0.015 -0.385 0.03 -0.527 0.045 l 0 3.32 l 1.057 0 c 0.353 0 0.687 -0.015 1 -0.045 c 0.315 -0.038 0.588 -0.114 0.82 -0.227 c 0.232 -0.12 0.416 -0.288 0.551 -0.506 c 0.135 -0.218 0.203 -0.514 0.203 -0.889 c 0 -0.345 -0.068 -0.63 -0.203 -0.855 c -0.135 -0.225 -0.31 -0.4 -0.527 -0.527 c -0.217 -0.135 -0.469 -0.226 -0.754 -0.271 c -0.277 -0.053 -0.567 -0.078 -0.867 -0.078 z m 7.158 1.248 c 0.39 0 0.746 0.077 1.068 0.227 c 0.322 0.143 0.6 0.347 0.832 0.617 c 0.24 0.263 0.423 0.582 0.551 0.957 c 0.135 0.375 0.203 0.791 0.203 1.248 c 0 0.457 -0.068 0.875 -0.203 1.25 c -0.127 0.375 -0.311 0.693 -0.551 0.955 c -0.232 0.262 -0.51 0.469 -0.832 0.619 c -0.322 0.142 -0.678 0.215 -1.068 0.215 c -0.39 0 -0.748 -0.072 -1.07 -0.215 c -0.322 -0.15 -0.604 -0.357 -0.844 -0.619 c -0.232 -0.262 -0.416 -0.58 -0.551 -0.955 c -0.128 -0.375 -0.191 -0.793 -0.191 -1.25 c 0 -0.457 0.064 -0.873 0.191 -1.248 c 0.135 -0.375 0.318 -0.695 0.551 -0.957 c 0.24 -0.27 0.521 -0.475 0.844 -0.617 c 0.322 -0.15 0.68 -0.227 1.07 -0.227 z m 0 0.664 c -0.578 0 -1.036 0.217 -1.373 0.652 c -0.338 0.428 -0.506 1 -0.506 1.732 c 0 0.728 0.168 1.305 0.506 1.732 c 0.337 0.428 0.796 0.643 1.373 0.643 c 0.577 0 1.034 -0.215 1.371 -0.643 c 0.337 -0.428 0.508 -1 0.508 -1.732 c 0 -0.727 -0.17 -1.305 -0.508 -1.732 c -0.338 -0.435 -0.794 -0.652 -1.371 -0.652 z m 5.123 2.361 c 0.492 0 0.863 0.121 1.111 0.365 c 0.249 0.239 0.373 0.573 0.373 1 c 0 0.19 -0.033 0.37 -0.102 0.541 c -0.068 0.166 -0.16 0.326 -0.277 0.482 c -0.112 0.156 -0.242 0.307 -0.389 0.453 c -0.146 0.146 -0.294 0.293 -0.445 0.439 c -0.127 0.122 -0.251 0.246 -0.373 0.373 c -0.117 0.122 -0.225 0.246 -0.322 0.373 c -0.093 0.122 -0.168 0.243 -0.227 0.365 c -0.054 0.117 -0.08 0.235 -0.08 0.352 l 0 0.014 l 2.391 0 l 0 0.416 l -2.918 0 c 0 -0.01 -0.001 -0.026 -0.006 -0.051 l 0 -0.123 c 0 -0.229 0.04 -0.442 0.123 -0.637 c 0.083 -0.2 0.188 -0.387 0.314 -0.563 c 0.132 -0.175 0.276 -0.339 0.432 -0.49 c 0.161 -0.151 0.315 -0.298 0.461 -0.439 c 0.122 -0.117 0.236 -0.229 0.344 -0.336 c 0.112 -0.112 0.21 -0.227 0.293 -0.344 c 0.083 -0.117 0.149 -0.241 0.197 -0.373 c 0.049 -0.132 0.072 -0.276 0.072 -0.432 c 0 -0.341 -0.092 -0.584 -0.277 -0.73 c -0.18 -0.151 -0.41 -0.227 -0.688 -0.227 c -0.156 0 -0.294 0.02 -0.416 0.059 c -0.122 0.039 -0.23 0.085 -0.322 0.139 c -0.088 0.049 -0.163 0.099 -0.227 0.152 c -0.063 0.054 -0.109 0.096 -0.139 0.125 l -0.25 -0.33 c 0.029 -0.034 0.081 -0.081 0.154 -0.145 c 0.078 -0.068 0.173 -0.136 0.285 -0.199 c 0.117 -0.063 0.251 -0.116 0.402 -0.16 c 0.151 -0.049 0.319 -0.072 0.504 -0.072 z" style="fill:#ececec;fill-opacity:1"/>
</svg>
