<svg xmlns="http://www.w3.org/2000/svg" viewBox="0 0 22 22">
 <path d="m 3 1 c -1.108 0 -2 0.892 -2 2 l 0 16 c 0 1.108 0.892 2 2 2 l 16 0 c 1.108 0 2 -0.892 2 -2 l 0 -16 c 0 -1.108 -0.892 -2 -2 -2 l -16 0 z m 1.391 6.074 l 0.764 0 l 0 7.133 l 3.668 0 l 0 0.662 l -4.432 0 l 0 -7.795 z m 4.529 1.98 l 0.775 0 c 0.09 0.398 0.199 0.824 0.326 1.281 c 0.135 0.45 0.278 0.9 0.428 1.35 c 0.158 0.443 0.319 0.875 0.484 1.295 c 0.165 0.413 0.327 0.779 0.484 1.102 c 0.158 -0.322 0.317 -0.689 0.482 -1.102 c 0.165 -0.42 0.323 -0.852 0.473 -1.295 c 0.158 -0.45 0.3 -0.9 0.428 -1.35 c 0.135 -0.458 0.248 -0.884 0.338 -1.281 l 0.73 0 c -0.135 0.533 -0.284 1.057 -0.449 1.574 c -0.165 0.518 -0.342 1.025 -0.529 1.52 c -0.18 0.495 -0.372 0.97 -0.574 1.428 c -0.195 0.457 -0.385 0.888 -0.572 1.293 l -0.697 0 c -0.195 -0.405 -0.391 -0.835 -0.586 -1.293 c -0.195 -0.457 -0.387 -0.933 -0.574 -1.428 c -0.18 -0.495 -0.353 -1 -0.518 -1.52 c -0.165 -0.518 -0.314 -1.042 -0.449 -1.574 z m 7.03 2.889 c 0.492 0 0.865 0.121 1.113 0.365 c 0.249 0.239 0.373 0.573 0.373 1 c 0 0.19 -0.035 0.37 -0.104 0.541 c -0.068 0.166 -0.16 0.326 -0.277 0.482 c -0.112 0.156 -0.242 0.307 -0.389 0.453 c -0.146 0.146 -0.294 0.293 -0.445 0.439 c -0.127 0.122 -0.251 0.246 -0.373 0.373 c -0.117 0.122 -0.225 0.246 -0.322 0.373 c -0.093 0.122 -0.168 0.243 -0.227 0.365 c -0.054 0.117 -0.08 0.235 -0.08 0.352 l 0 0.014 l 2.391 0 l 0 0.416 l -2.916 0 c 0 -0.01 -0.003 -0.026 -0.008 -0.051 l 0 -0.123 c 0 -0.229 0.04 -0.442 0.123 -0.637 c 0.083 -0.2 0.188 -0.387 0.314 -0.563 c 0.132 -0.175 0.276 -0.339 0.432 -0.49 c 0.161 -0.151 0.315 -0.298 0.461 -0.439 c 0.122 -0.117 0.236 -0.229 0.344 -0.336 c 0.112 -0.112 0.21 -0.227 0.293 -0.344 c 0.083 -0.117 0.149 -0.241 0.197 -0.373 c 0.049 -0.132 0.072 -0.276 0.072 -0.432 c 0 -0.341 -0.092 -0.584 -0.277 -0.73 c -0.18 -0.151 -0.41 -0.227 -0.688 -0.227 c -0.156 0 -0.294 0.02 -0.416 0.059 c -0.122 0.039 -0.23 0.085 -0.322 0.139 c -0.088 0.049 -0.163 0.099 -0.227 0.152 c -0.063 0.054 -0.109 0.096 -0.139 0.125 l -0.248 -0.33 c 0.029 -0.034 0.079 -0.081 0.152 -0.145 c 0.078 -0.068 0.173 -0.136 0.285 -0.199 c 0.117 -0.063 0.251 -0.116 0.402 -0.16 c 0.151 -0.049 0.319 -0.072 0.504 -0.072 z" style="fill:#ececec;fill-opacity:1"/>
</svg>
