<svg xmlns="http://www.w3.org/2000/svg" viewBox="0 0 22 22">
 <path d="m 3 1 c -1.108 0 -2 0.892 -2 2 l 0 16 c 0 1.108 0.892 2 2 2 l 16 0 c 1.108 0 2 -0.892 2 -2 l 0 -16 c 0 -1.108 -0.892 -2 -2 -2 l -16 0 z m -0.4 6.074 l 0.764 0 l 0 3.387 l 4.23 0 l 0 -3.387 l 0.766 0 l 0 7.795 l -0.766 0 l 0 -3.746 l -4.23 0 l 0 3.746 l -0.764 0 l 0 -7.795 z m 7.666 1.98 l 0.73 0 l 0 3.03 c 0 0.412 0.03 0.762 0.09 1.047 c 0.06 0.285 0.158 0.517 0.293 0.697 c 0.135 0.173 0.308 0.3 0.518 0.383 c 0.218 0.075 0.48 0.111 0.787 0.111 c 0.345 0 0.645 -0.019 0.9 -0.057 c 0.255 -0.037 0.417 -0.07 0.484 -0.1 l 0 -5.107 l 0.73 0 l 0 5.613 c -0.218 0.06 -0.509 0.126 -0.877 0.201 c -0.367 0.075 -0.817 0.113 -1.35 0.113 c -0.435 0 -0.799 -0.064 -1.092 -0.191 c -0.292 -0.128 -0.529 -0.307 -0.709 -0.539 c -0.18 -0.232 -0.312 -0.514 -0.395 -0.844 c -0.075 -0.33 -0.111 -0.694 -0.111 -1.092 l 0 -3.262 z m 7.555 2.889 c 0.253 0 0.473 0.039 0.658 0.117 c 0.185 0.073 0.338 0.169 0.455 0.291 c 0.122 0.122 0.208 0.262 0.262 0.418 c 0.058 0.156 0.088 0.317 0.088 0.482 c 0 0.161 -0.024 0.309 -0.072 0.445 c -0.049 0.132 -0.113 0.253 -0.191 0.365 c -0.078 0.107 -0.164 0.202 -0.262 0.285 c -0.098 0.083 -0.193 0.154 -0.285 0.213 c 0.341 0.146 0.58 0.329 0.717 0.549 c 0.141 0.219 0.211 0.452 0.211 0.695 c 0 0.21 -0.039 0.401 -0.117 0.576 c -0.073 0.175 -0.178 0.326 -0.314 0.453 c -0.137 0.122 -0.301 0.217 -0.496 0.285 c -0.195 0.073 -0.413 0.111 -0.652 0.111 c -0.239 0 -0.455 -0.035 -0.65 -0.104 c -0.19 -0.068 -0.355 -0.163 -0.496 -0.285 c -0.137 -0.127 -0.244 -0.272 -0.322 -0.438 c -0.073 -0.171 -0.109 -0.357 -0.109 -0.557 c 0 -0.171 0.024 -0.324 0.072 -0.461 c 0.049 -0.141 0.113 -0.266 0.191 -0.373 c 0.083 -0.112 0.175 -0.21 0.277 -0.293 c 0.107 -0.088 0.219 -0.163 0.336 -0.227 c -0.297 -0.146 -0.5 -0.318 -0.607 -0.518 c -0.107 -0.2 -0.16 -0.418 -0.16 -0.652 c 0 -0.21 0.036 -0.4 0.109 -0.57 c 0.073 -0.171 0.174 -0.315 0.301 -0.432 c 0.132 -0.122 0.286 -0.214 0.467 -0.277 c 0.18 -0.068 0.377 -0.102 0.592 -0.102 z m 0 0.408 c -0.161 0 -0.302 0.025 -0.424 0.074 c -0.122 0.049 -0.224 0.117 -0.307 0.205 c -0.078 0.083 -0.14 0.179 -0.184 0.291 c -0.039 0.112 -0.057 0.23 -0.057 0.352 c 0 0.136 0.014 0.261 0.043 0.373 c 0.034 0.112 0.096 0.214 0.184 0.307 c 0.088 0.088 0.209 0.172 0.365 0.25 c 0.156 0.073 0.36 0.143 0.613 0.211 c 0.224 -0.127 0.404 -0.282 0.535 -0.467 c 0.132 -0.185 0.197 -0.417 0.197 -0.695 c 0 -0.112 -0.02 -0.223 -0.059 -0.33 c -0.034 -0.107 -0.09 -0.202 -0.168 -0.285 c -0.073 -0.088 -0.171 -0.154 -0.293 -0.203 c -0.122 -0.054 -0.272 -0.082 -0.447 -0.082 z m -0.291 2.311 c -0.249 0.117 -0.442 0.277 -0.578 0.477 c -0.136 0.195 -0.205 0.431 -0.205 0.709 c 0 0.136 0.023 0.264 0.066 0.381 c 0.044 0.117 0.11 0.219 0.197 0.307 c 0.093 0.088 0.204 0.157 0.336 0.211 c 0.136 0.049 0.294 0.074 0.475 0.074 c 0.18 0 0.337 -0.025 0.469 -0.074 c 0.137 -0.054 0.248 -0.123 0.336 -0.211 c 0.093 -0.088 0.161 -0.19 0.205 -0.307 c 0.044 -0.117 0.066 -0.244 0.066 -0.381 c 0 -0.21 -0.042 -0.38 -0.125 -0.512 c -0.078 -0.132 -0.183 -0.239 -0.314 -0.322 c -0.127 -0.083 -0.272 -0.149 -0.438 -0.197 c -0.161 -0.049 -0.324 -0.101 -0.49 -0.154 z" style="fill:#ececec;fill-opacity:1"/>
</svg>
