<svg xmlns="http://www.w3.org/2000/svg" viewBox="0 0 22 22">
 <path d="m 3 1 c -1.108 0 -2 0.892 -2 2 l 0 16 c 0 1.108 0.892 2 2 2 l 16 0 c 1.108 0 2 -0.892 2 -2 l 0 -16 c 0 -1.108 -0.892 -2 -2 -2 l -16 0 z m 3.449 6.01 c 1.103 0 1.925 0.211 2.465 0.631 c 0.54 0.42 0.809 1.017 0.809 1.789 c 0 0.443 -0.079 0.82 -0.236 1.135 c -0.157 0.308 -0.381 0.559 -0.674 0.754 c -0.293 0.188 -0.653 0.326 -1.08 0.416 c -0.42 0.083 -0.897 0.125 -1.43 0.125 l -1.057 0 l 0 3.01 l -0.766 0 l 0 -7.648 c 0.27 -0.075 0.585 -0.128 0.945 -0.158 c 0.367 -0.037 0.708 -0.057 1.023 -0.057 z m 0.033 0.664 c -0.285 0 -0.528 0.011 -0.73 0.033 c -0.195 0.015 -0.363 0.03 -0.506 0.045 l 0 3.443 l 0.967 0 c 0.413 0 0.783 -0.023 1.113 -0.068 c 0.337 -0.053 0.623 -0.142 0.855 -0.27 c 0.24 -0.135 0.423 -0.318 0.551 -0.551 c 0.127 -0.232 0.191 -0.529 0.191 -0.889 c 0 -0.345 -0.07 -0.63 -0.213 -0.855 c -0.135 -0.225 -0.318 -0.402 -0.551 -0.529 c -0.225 -0.135 -0.485 -0.229 -0.777 -0.281 c -0.293 -0.053 -0.593 -0.078 -0.9 -0.078 z m 6.186 1.248 c 0.398 0 0.724 0.034 0.979 0.102 c 0.263 0.068 0.448 0.127 0.553 0.18 l -0.17 0.652 c -0.09 -0.045 -0.243 -0.105 -0.461 -0.18 c -0.21 -0.075 -0.521 -0.111 -0.934 -0.111 c -0.165 0 -0.323 0.019 -0.473 0.057 c -0.142 0.03 -0.27 0.081 -0.383 0.156 c -0.112 0.068 -0.202 0.157 -0.27 0.27 c -0.068 0.105 -0.102 0.237 -0.102 0.395 c 0 0.158 0.03 0.292 0.09 0.404 c 0.06 0.113 0.147 0.215 0.26 0.305 c 0.12 0.083 0.263 0.161 0.428 0.236 c 0.172 0.075 0.366 0.158 0.584 0.248 c 0.225 0.09 0.438 0.184 0.641 0.281 c 0.21 0.09 0.395 0.201 0.553 0.336 c 0.157 0.127 0.283 0.285 0.381 0.473 c 0.098 0.18 0.146 0.41 0.146 0.688 c 0 0.525 -0.198 0.921 -0.596 1.191 c -0.39 0.27 -0.927 0.406 -1.609 0.406 c -0.51 0 -0.9 -0.047 -1.17 -0.137 c -0.27 -0.083 -0.449 -0.144 -0.539 -0.189 l 0.191 -0.664 c 0.022 0.015 0.071 0.041 0.146 0.078 c 0.075 0.03 0.175 0.068 0.303 0.113 c 0.127 0.037 0.279 0.07 0.451 0.1 c 0.18 0.03 0.385 0.045 0.617 0.045 c 0.42 0 0.765 -0.066 1.035 -0.201 c 0.278 -0.143 0.416 -0.379 0.416 -0.709 c 0 -0.158 -0.026 -0.292 -0.078 -0.404 c -0.045 -0.112 -0.124 -0.215 -0.236 -0.305 c -0.113 -0.09 -0.262 -0.175 -0.449 -0.258 c -0.18 -0.082 -0.406 -0.18 -0.676 -0.293 c -0.217 -0.09 -0.424 -0.18 -0.619 -0.27 c -0.195 -0.097 -0.368 -0.206 -0.518 -0.326 c -0.15 -0.128 -0.269 -0.279 -0.359 -0.451 c -0.09 -0.173 -0.135 -0.381 -0.135 -0.629 c 0 -0.472 0.177 -0.856 0.529 -1.148 c 0.36 -0.293 0.85 -0.439 1.473 -0.439 z m 4.516 3.135 l 0.336 0 l 0 5.066 l -0.475 0 l 0 -4.342 c -0.054 0.059 -0.125 0.118 -0.213 0.182 c -0.083 0.063 -0.178 0.126 -0.285 0.189 c -0.107 0.058 -0.219 0.117 -0.336 0.176 c -0.117 0.054 -0.235 0.099 -0.352 0.133 l -0.139 -0.367 c 0.293 -0.102 0.552 -0.231 0.781 -0.387 c 0.229 -0.161 0.457 -0.377 0.682 -0.65 z" style="fill:#ececec;fill-opacity:1"/>
</svg>
