<svg xmlns="http://www.w3.org/2000/svg" viewBox="0 0 22 22">
 <path d="m 3 1 c -1.108 0 -2 0.892 -2 2 l 0 16 c 0 1.108 0.892 2 2 2 l 16 0 c 1.108 0 2 -0.892 2 -2 l 0 -16 c 0 -1.108 -0.892 -2 -2 -2 l -16 0 z m 3.057 6.074 l 0.766 0 l 0 7.795 l -0.766 0 l 0 -7.795 z m 3.432 0.135 l 0 1.846 l 2.316 0 l 0 0.617 l -2.316 0 l 0 3.094 c 0 0.33 0.026 0.601 0.078 0.811 c 0.06 0.203 0.143 0.36 0.248 0.473 c 0.105 0.112 0.233 0.187 0.383 0.225 c 0.15 0.037 0.314 0.057 0.494 0.057 c 0.307 0 0.555 -0.034 0.742 -0.102 c 0.188 -0.075 0.334 -0.143 0.439 -0.203 l 0.18 0.607 c -0.105 0.068 -0.288 0.146 -0.551 0.236 c -0.263 0.082 -0.548 0.125 -0.855 0.125 c -0.36 0 -0.663 -0.045 -0.91 -0.135 c -0.24 -0.098 -0.436 -0.24 -0.586 -0.428 c -0.143 -0.195 -0.243 -0.436 -0.303 -0.721 c -0.06 -0.285 -0.09 -0.622 -0.09 -1.012 l 0 -5.355 l 0.73 -0.135 z m 5.33 4.844 l 0.496 0 l 0 3.305 l 0.629 0 l 0 0.389 l -0.629 0 l 0 1.373 l -0.467 0 l 0 -1.373 l -2.297 0 l 0 -0.293 c 0.088 -0.234 0.209 -0.499 0.365 -0.791 c 0.161 -0.292 0.341 -0.591 0.541 -0.898 c 0.2 -0.307 0.416 -0.608 0.65 -0.9 c 0.234 -0.297 0.472 -0.567 0.711 -0.811 z m 0.029 0.533 c -0.171 0.175 -0.344 0.378 -0.52 0.607 c -0.175 0.229 -0.345 0.468 -0.506 0.717 c -0.156 0.244 -0.301 0.49 -0.438 0.738 c -0.137 0.249 -0.251 0.485 -0.344 0.709 l 1.807 0 l 0 -2.771 z" style="fill:#ececec;fill-opacity:1"/>
</svg>
