<svg xmlns="http://www.w3.org/2000/svg" viewBox="0 0 22 22">
 <path d="m 3 1 c -1.108 0 -2 0.892 -2 2 l 0 16 c 0 1.108 0.892 2 2 2 l 16 0 c 1.108 0 2 -0.892 2 -2 l 0 -16 c 0 -1.108 -0.892 -2 -2 -2 l -16 0 z m 10.09 5.736 c 0.15 0 0.278 0.053 0.383 0.158 c 0.105 0.098 0.158 0.232 0.158 0.404 c 0 0.173 -0.053 0.311 -0.158 0.416 c -0.105 0.097 -0.233 0.146 -0.383 0.146 c -0.15 0 -0.278 -0.049 -0.383 -0.146 c -0.105 -0.105 -0.156 -0.244 -0.156 -0.416 c 0 -0.172 0.051 -0.307 0.156 -0.404 c 0.105 -0.105 0.233 -0.158 0.383 -0.158 z m -8.092 0.338 l 0.764 0 l 0 3.387 l 4.23 0 l 0 -3.387 l 0.766 0 l 0 7.795 l -0.766 0 l 0 -3.746 l -4.23 0 l 0 3.746 l -0.764 0 l 0 -7.795 z m 7.732 1.98 l 0.73 0 l 0 5.814 l -0.73 0 l 0 -5.814 z m 3.936 2.998 l 0.336 0 l 0 5.066 l -0.475 0 l 0 -4.342 c -0.054 0.059 -0.123 0.118 -0.211 0.182 c -0.083 0.063 -0.178 0.126 -0.285 0.189 c -0.107 0.058 -0.221 0.117 -0.338 0.176 c -0.117 0.054 -0.233 0.099 -0.35 0.133 l -0.141 -0.367 c 0.293 -0.102 0.554 -0.231 0.783 -0.387 c 0.229 -0.161 0.455 -0.377 0.68 -0.65 z" style="fill:#ececec;fill-opacity:1"/>
</svg>
