<svg xmlns="http://www.w3.org/2000/svg" viewBox="0 0 22 22">
 <path d="m 3 1 c -1.108 0 -2 0.892 -2 2 l 0 16 c 0 1.108 0.892 2 2 2 l 16 0 c 1.108 0 2 -0.892 2 -2 l 0 -16 c 0 -1.108 -0.892 -2 -2 -2 l -16 0 z m 1.91 5.904 c 0.293 0 0.559 0.019 0.799 0.057 c 0.24 0.037 0.449 0.086 0.629 0.146 c 0.18 0.052 0.335 0.108 0.463 0.168 c 0.128 0.053 0.224 0.101 0.291 0.146 l -0.246 0.664 c -0.188 -0.112 -0.428 -0.221 -0.721 -0.326 c -0.285 -0.112 -0.641 -0.168 -1.068 -0.168 c -0.487 0 -0.916 0.081 -1.283 0.246 c -0.36 0.165 -0.663 0.399 -0.91 0.699 c -0.247 0.3 -0.435 0.656 -0.563 1.068 c -0.12 0.413 -0.182 0.869 -0.182 1.371 c 0 0.518 0.062 0.986 0.182 1.406 c 0.128 0.413 0.311 0.766 0.551 1.059 c 0.24 0.292 0.532 0.518 0.877 0.676 c 0.352 0.157 0.753 0.234 1.203 0.234 c 0.495 0 0.908 -0.045 1.238 -0.135 c 0.337 -0.098 0.593 -0.194 0.766 -0.291 l 0.213 0.652 c -0.053 0.037 -0.142 0.082 -0.27 0.135 c -0.127 0.045 -0.289 0.094 -0.484 0.146 c -0.195 0.053 -0.419 0.093 -0.674 0.123 c -0.255 0.037 -0.54 0.057 -0.855 0.057 c -0.503 0 -0.971 -0.09 -1.406 -0.27 c -0.427 -0.18 -0.802 -0.444 -1.125 -0.789 c -0.315 -0.345 -0.566 -0.767 -0.754 -1.27 c -0.18 -0.51 -0.27 -1.092 -0.27 -1.744 c 0 -0.652 0.098 -1.23 0.293 -1.732 c 0.203 -0.51 0.467 -0.938 0.797 -1.283 c 0.33 -0.345 0.713 -0.603 1.148 -0.775 c 0.435 -0.18 0.889 -0.271 1.361 -0.271 z m 5.73 2.037 c 0.735 0 1.268 0.213 1.598 0.641 c 0.037 -0.03 0.108 -0.079 0.213 -0.146 c 0.113 -0.075 0.251 -0.15 0.416 -0.225 c 0.165 -0.075 0.357 -0.139 0.574 -0.191 c 0.225 -0.053 0.472 -0.078 0.742 -0.078 c 0.443 0 0.8 0.068 1.07 0.203 c 0.277 0.128 0.491 0.311 0.641 0.551 c 0.15 0.233 0.25 0.514 0.303 0.844 c 0.053 0.33 0.08 0.69 0.08 1.08 l 0 3.25 l -0.732 0 l 0 -3.01 c 0 -0.382 -0.017 -0.713 -0.055 -0.99 c -0.03 -0.285 -0.098 -0.517 -0.203 -0.697 c -0.097 -0.188 -0.24 -0.326 -0.428 -0.416 c -0.188 -0.098 -0.43 -0.146 -0.73 -0.146 c -0.225 0 -0.432 0.021 -0.619 0.066 c -0.18 0.037 -0.338 0.086 -0.473 0.146 c -0.135 0.06 -0.248 0.12 -0.338 0.18 c -0.082 0.06 -0.142 0.105 -0.18 0.135 c 0.067 0.195 0.116 0.417 0.146 0.664 c 0.037 0.24 0.057 0.496 0.057 0.766 l 0 3.307 l -0.732 0 l 0 -3.01 c 0 -0.382 -0.019 -0.713 -0.057 -0.99 c -0.03 -0.285 -0.096 -0.517 -0.201 -0.697 c -0.105 -0.188 -0.256 -0.326 -0.451 -0.416 c -0.188 -0.098 -0.439 -0.146 -0.754 -0.146 c -0.352 0 -0.651 0.019 -0.898 0.057 c -0.24 0.037 -0.395 0.07 -0.463 0.1 l 0 5.107 l -0.73 0 l 0 -5.613 c 0.217 -0.06 0.499 -0.126 0.844 -0.201 c 0.352 -0.075 0.806 -0.113 1.361 -0.113 z m 8.389 3 c 0.492 0 0.863 0.121 1.111 0.365 c 0.249 0.239 0.373 0.573 0.373 1 c 0 0.19 -0.033 0.37 -0.102 0.541 c -0.068 0.166 -0.16 0.326 -0.277 0.482 c -0.112 0.156 -0.242 0.307 -0.389 0.453 c -0.146 0.146 -0.294 0.293 -0.445 0.439 c -0.127 0.122 -0.251 0.246 -0.373 0.373 c -0.117 0.122 -0.225 0.246 -0.322 0.373 c -0.093 0.122 -0.168 0.243 -0.227 0.365 c -0.054 0.117 -0.08 0.235 -0.08 0.352 l 0 0.014 l 2.391 0 l 0 0.416 l -2.918 0 c 0 -0.01 -0.001 -0.026 -0.006 -0.051 l 0 -0.123 c 0 -0.229 0.04 -0.442 0.123 -0.637 c 0.083 -0.2 0.188 -0.387 0.314 -0.563 c 0.132 -0.175 0.276 -0.339 0.432 -0.49 c 0.161 -0.151 0.315 -0.298 0.461 -0.439 c 0.122 -0.117 0.236 -0.229 0.344 -0.336 c 0.112 -0.112 0.21 -0.227 0.293 -0.344 c 0.083 -0.117 0.149 -0.241 0.197 -0.373 c 0.049 -0.132 0.072 -0.276 0.072 -0.432 c 0 -0.341 -0.092 -0.584 -0.277 -0.73 c -0.18 -0.151 -0.41 -0.227 -0.688 -0.227 c -0.156 0 -0.294 0.02 -0.416 0.059 c -0.122 0.039 -0.23 0.085 -0.322 0.139 c -0.088 0.049 -0.163 0.099 -0.227 0.152 c -0.063 0.054 -0.109 0.096 -0.139 0.125 l -0.25 -0.33 c 0.029 -0.034 0.081 -0.081 0.154 -0.145 c 0.078 -0.068 0.173 -0.136 0.285 -0.199 c 0.117 -0.063 0.251 -0.116 0.402 -0.16 c 0.151 -0.049 0.319 -0.072 0.504 -0.072 z" style="fill:#ececec;fill-opacity:1"/>
</svg>
