<svg xmlns="http://www.w3.org/2000/svg" viewBox="0 0 22 22">
 <path d="m 3 1 c -1.108 0 -2 0.892 -2 2 l 0 16 c 0 1.108 0.892 2 2 2 l 16 0 c 1.108 0 2 -0.892 2 -2 l 0 -16 c 0 -1.108 -0.892 -2 -2 -2 l -16 0 z m 8.197 5.141 l 0 3.082 c 0.24 -0.09 0.483 -0.158 0.73 -0.203 c 0.248 -0.053 0.495 -0.078 0.742 -0.078 c 0.45 0 0.825 0.064 1.125 0.191 c 0.3 0.127 0.541 0.311 0.721 0.551 c 0.18 0.232 0.304 0.514 0.371 0.844 c 0.075 0.33 0.113 0.694 0.113 1.092 l 0 3.25 l -0.732 0 l 0 -3.01 c 0 -0.412 -0.03 -0.762 -0.09 -1.047 c -0.052 -0.285 -0.146 -0.517 -0.281 -0.697 c -0.127 -0.18 -0.3 -0.308 -0.518 -0.383 c -0.218 -0.082 -0.49 -0.123 -0.82 -0.123 c -0.127 0 -0.266 0.011 -0.416 0.033 c -0.143 0.022 -0.279 0.048 -0.406 0.078 c -0.127 0.022 -0.243 0.05 -0.348 0.08 c -0.098 0.03 -0.161 0.051 -0.191 0.066 l 0 5.01 l -0.732 0 l 0 -8.594 l 0.732 -0.135 z m -7.67 0.934 l 5.76 0 l 0 0.664 l -2.498 0 l 0 7.131 l -0.766 0 l 0 -7.131 l -2.496 0 l 0 -0.664 z m 14.609 4.979 l 0.336 0 l 0 5.066 l -0.475 0 l 0 -4.342 c -0.054 0.059 -0.123 0.118 -0.211 0.182 c -0.083 0.063 -0.178 0.126 -0.285 0.189 c -0.107 0.058 -0.221 0.117 -0.338 0.176 c -0.117 0.054 -0.233 0.099 -0.35 0.133 l -0.141 -0.367 c 0.293 -0.102 0.554 -0.231 0.783 -0.387 c 0.229 -0.161 0.455 -0.377 0.68 -0.65 z" style="fill:#ececec;fill-opacity:1"/>
</svg>
