<svg xmlns="http://www.w3.org/2000/svg" viewBox="0 0 22 22">
 <path d="m 3 1 c -1.108 0 -2 0.892 -2 2 l 0 16 c 0 1.108 0.892 2 2 2 l 16 0 c 1.108 0 2 -0.892 2 -2 l 0 -16 c 0 -1.108 -0.892 -2 -2 -2 l -16 0 z m 2.104 6.04 l 0.889 0 c 0.315 0.66 0.66 1.331 1.035 2.01 c 0.383 0.675 0.781 1.319 1.193 1.934 c 0.398 -0.615 0.787 -1.259 1.17 -1.934 c 0.383 -0.682 0.734 -1.354 1.057 -2.01 l 0.832 0 c -0.397 0.713 -0.817 1.454 -1.26 2.227 c -0.443 0.765 -0.922 1.545 -1.439 2.34 l 0 3.229 l -0.766 0 l 0 -3.205 c -0.532 -0.818 -1.023 -1.606 -1.473 -2.363 c -0.442 -0.765 -0.856 -1.507 -1.238 -2.227 z m 9.139 1.844 c 0.39 0 0.746 0.075 1.068 0.225 c 0.322 0.143 0.6 0.349 0.832 0.619 c 0.24 0.263 0.423 0.582 0.551 0.957 c 0.135 0.375 0.203 0.791 0.203 1.248 c 0 0.458 -0.068 0.875 -0.203 1.25 c -0.128 0.375 -0.311 0.693 -0.551 0.955 c -0.232 0.263 -0.51 0.469 -0.832 0.619 c -0.322 0.143 -0.678 0.213 -1.068 0.213 c -0.39 0 -0.748 -0.07 -1.07 -0.213 c -0.322 -0.15 -0.604 -0.357 -0.844 -0.619 c -0.232 -0.262 -0.416 -0.58 -0.551 -0.955 c -0.127 -0.375 -0.191 -0.792 -0.191 -1.25 c 0 -0.457 0.064 -0.873 0.191 -1.248 c 0.135 -0.375 0.318 -0.695 0.551 -0.957 c 0.24 -0.27 0.521 -0.477 0.844 -0.619 c 0.322 -0.15 0.68 -0.225 1.07 -0.225 z m 0 0.664 c -0.578 0 -1.036 0.217 -1.373 0.652 c -0.338 0.428 -0.506 1 -0.506 1.732 c 0 0.728 0.168 1.305 0.506 1.732 c 0.337 0.428 0.796 0.643 1.373 0.643 c 0.577 0 1.034 -0.215 1.371 -0.643 c 0.337 -0.428 0.508 -1 0.508 -1.732 c 0 -0.727 -0.17 -1.305 -0.508 -1.732 c -0.338 -0.435 -0.794 -0.652 -1.371 -0.652 z" style="fill:#ececec;fill-opacity:1"/>
</svg>
