<svg xmlns="http://www.w3.org/2000/svg" viewBox="0 0 22 22">
 <path d="m 3 1 c -1.108 0 -2 0.892 -2 2 l 0 16 c 0 1.108 0.892 2 2 2 l 16 0 c 1.108 0 2 -0.892 2 -2 l 0 -16 c 0 -1.108 -0.892 -2 -2 -2 l -16 0 z m 7.598 5.141 l 0 3.082 c 0.24 -0.09 0.485 -0.158 0.732 -0.203 c 0.248 -0.053 0.495 -0.078 0.742 -0.078 c 0.45 0 0.825 0.064 1.125 0.191 c 0.3 0.127 0.541 0.311 0.721 0.551 c 0.18 0.232 0.304 0.514 0.371 0.844 c 0.075 0.33 0.111 0.694 0.111 1.092 l 0 3.25 l -0.73 0 l 0 -3.01 c 0 -0.412 -0.03 -0.762 -0.09 -1.047 c -0.053 -0.285 -0.146 -0.517 -0.281 -0.697 c -0.127 -0.18 -0.3 -0.308 -0.518 -0.383 c -0.217 -0.082 -0.492 -0.123 -0.822 -0.123 c -0.127 0 -0.266 0.011 -0.416 0.033 c -0.143 0.022 -0.277 0.048 -0.404 0.078 c -0.127 0.022 -0.245 0.05 -0.35 0.08 c -0.098 0.03 -0.161 0.051 -0.191 0.066 l 0 5.01 l -0.73 0 l 0 -8.594 l 0.73 -0.135 z m -7.363 0.934 l 5.096 0 l 0 0.697 c -0.18 0.21 -0.389 0.466 -0.629 0.766 c -0.232 0.3 -0.484 0.628 -0.754 0.988 c -0.27 0.353 -0.547 0.732 -0.832 1.137 c -0.277 0.398 -0.556 0.802 -0.834 1.215 c -0.27 0.405 -0.528 0.808 -0.775 1.205 c -0.24 0.397 -0.457 0.772 -0.652 1.125 l 4.59 0 l 0 0.662 l -5.422 0 l 0 -0.572 c 0.165 -0.322 0.359 -0.676 0.584 -1.059 c 0.232 -0.39 0.48 -0.786 0.742 -1.191 c 0.263 -0.412 0.537 -0.826 0.822 -1.238 c 0.285 -0.412 0.566 -0.807 0.844 -1.182 c 0.277 -0.383 0.54 -0.734 0.787 -1.057 c 0.255 -0.322 0.487 -0.6 0.697 -0.832 l -4.264 0 l 0 -0.664 z m 15.408 4.957 l 0.029 0.402 c -0.297 0.02 -0.573 0.066 -0.826 0.139 c -0.249 0.068 -0.471 0.177 -0.666 0.328 c -0.195 0.146 -0.359 0.336 -0.49 0.57 c -0.132 0.234 -0.221 0.522 -0.27 0.863 c 0.132 -0.068 0.289 -0.127 0.475 -0.176 c 0.185 -0.054 0.384 -0.08 0.594 -0.08 c 0.273 0 0.503 0.043 0.693 0.131 c 0.19 0.083 0.344 0.197 0.461 0.338 c 0.117 0.141 0.202 0.303 0.256 0.488 c 0.054 0.185 0.08 0.381 0.08 0.586 c 0 0.19 -0.029 0.38 -0.088 0.57 c -0.058 0.19 -0.151 0.364 -0.277 0.52 c -0.122 0.151 -0.279 0.276 -0.469 0.373 c -0.185 0.098 -0.406 0.146 -0.664 0.146 c -0.531 0 -0.937 -0.186 -1.215 -0.557 c -0.273 -0.375 -0.408 -0.897 -0.408 -1.564 c 0 -0.99 0.236 -1.74 0.709 -2.252 c 0.478 -0.512 1.169 -0.787 2.076 -0.826 z m -1.199 2.463 c -0.224 0 -0.421 0.028 -0.592 0.082 c -0.166 0.049 -0.322 0.106 -0.469 0.174 c -0.01 0.083 -0.014 0.149 -0.014 0.197 l 0 0.17 c 0 0.229 0.014 0.446 0.043 0.65 c 0.034 0.205 0.093 0.385 0.176 0.541 c 0.088 0.156 0.202 0.28 0.344 0.373 c 0.141 0.088 0.322 0.131 0.541 0.131 c 0.18 0 0.334 -0.03 0.461 -0.094 c 0.127 -0.068 0.229 -0.156 0.307 -0.264 c 0.078 -0.107 0.134 -0.232 0.168 -0.373 c 0.039 -0.141 0.059 -0.291 0.059 -0.447 c 0 -0.39 -0.088 -0.676 -0.264 -0.861 c -0.171 -0.185 -0.423 -0.279 -0.76 -0.279 z" style="fill:#ececec;fill-opacity:1"/>
</svg>
