<svg xmlns="http://www.w3.org/2000/svg" viewBox="0 0 22 22">
 <path d="m 3 1 c -1.108 0 -2 0.892 -2 2 l 0 16 c 0 1.108 0.892 2 2 2 l 16 0 c 1.108 0 2 -0.892 2 -2 l 0 -16 c 0 -1.108 -0.892 -2 -2 -2 l -16 0 z m 1.742 6.074 l 4.443 0 l 0 0.664 l -3.68 0 l 0 2.744 l 3.264 0 l 0 0.664 l -3.264 0 l 0 3.723 l -0.764 0 l 0 -7.795 z m 7.582 1.867 c 0.24 0 0.464 0.019 0.674 0.057 c 0.218 0.037 0.369 0.074 0.451 0.111 l -0.146 0.631 c -0.06 -0.03 -0.184 -0.06 -0.371 -0.09 c -0.18 -0.037 -0.421 -0.057 -0.721 -0.057 c -0.315 0 -0.571 0.023 -0.766 0.068 c -0.188 0.045 -0.311 0.081 -0.371 0.111 l 0 5.096 l -0.73 0 l 0 -5.545 c 0.188 -0.083 0.445 -0.166 0.775 -0.248 c 0.33 -0.09 0.733 -0.135 1.205 -0.135 z m 4.598 3.09 l 0.029 0.402 c -0.297 0.02 -0.573 0.066 -0.826 0.139 c -0.249 0.068 -0.471 0.177 -0.666 0.328 c -0.195 0.146 -0.359 0.336 -0.49 0.57 c -0.132 0.234 -0.221 0.522 -0.27 0.863 c 0.132 -0.068 0.289 -0.127 0.475 -0.176 c 0.185 -0.054 0.384 -0.08 0.594 -0.08 c 0.273 0 0.503 0.043 0.693 0.131 c 0.19 0.083 0.344 0.197 0.461 0.338 c 0.117 0.141 0.202 0.303 0.256 0.488 c 0.054 0.185 0.08 0.381 0.08 0.586 c 0 0.19 -0.029 0.38 -0.088 0.57 c -0.058 0.19 -0.151 0.364 -0.277 0.52 c -0.122 0.151 -0.279 0.276 -0.469 0.373 c -0.185 0.098 -0.406 0.146 -0.664 0.146 c -0.531 0 -0.937 -0.186 -1.215 -0.557 c -0.273 -0.375 -0.408 -0.897 -0.408 -1.564 c 0 -0.99 0.236 -1.74 0.709 -2.252 c 0.478 -0.512 1.169 -0.787 2.076 -0.826 z m -1.199 2.463 c -0.224 0 -0.421 0.028 -0.592 0.082 c -0.166 0.049 -0.322 0.106 -0.469 0.174 c -0.01 0.083 -0.014 0.149 -0.014 0.197 l 0 0.17 c 0 0.229 0.014 0.446 0.043 0.65 c 0.034 0.205 0.093 0.385 0.176 0.541 c 0.088 0.156 0.202 0.28 0.344 0.373 c 0.141 0.088 0.322 0.131 0.541 0.131 c 0.18 0 0.334 -0.03 0.461 -0.094 c 0.127 -0.068 0.229 -0.156 0.307 -0.264 c 0.078 -0.107 0.134 -0.232 0.168 -0.373 c 0.039 -0.141 0.059 -0.291 0.059 -0.447 c 0 -0.39 -0.088 -0.676 -0.264 -0.861 c -0.171 -0.185 -0.423 -0.279 -0.76 -0.279 z" style="fill:#ececec;fill-opacity:1"/>
</svg>
