<?xml version="1.0" encoding="UTF-8" standalone="no"?>
<svg
   xmlns:dc="http://purl.org/dc/elements/1.1/"
   xmlns:cc="http://creativecommons.org/ns#"
   xmlns:rdf="http://www.w3.org/1999/02/22-rdf-syntax-ns#"
   xmlns:svg="http://www.w3.org/2000/svg"
   xmlns="http://www.w3.org/2000/svg"
   xmlns:sodipodi="http://sodipodi.sourceforge.net/DTD/sodipodi-0.dtd"
   xmlns:inkscape="http://www.inkscape.org/namespaces/inkscape"
   viewBox="0 0 22 22"
   id="svg3055"
   version="1.1"
   inkscape:version="0.91 r"
   width="100%"
   height="100%"
   sodipodi:docname="nm-tech-cdma-1x.svg">
  <metadata
     id="metadata3075">
    <rdf:RDF>
      <cc:Work
         rdf:about="">
        <dc:format>image/svg+xml</dc:format>
        <dc:type
           rdf:resource="http://purl.org/dc/dcmitype/StillImage" />
        <dc:title />
      </cc:Work>
    </rdf:RDF>
  </metadata>
  <defs
     id="defs3073" />
  <sodipodi:namedview
     pagecolor="#ffffff"
     bordercolor="#666666"
     borderopacity="1"
     objecttolerance="10"
     gridtolerance="10"
     guidetolerance="10"
     inkscape:pageopacity="0"
     inkscape:pageshadow="2"
     inkscape:window-width="1920"
     inkscape:window-height="1056"
     id="namedview3071"
     showgrid="true"
     inkscape:zoom="15.170654"
     inkscape:cx="7.6156757"
     inkscape:cy="11.754875"
     inkscape:window-x="0"
     inkscape:window-y="24"
     inkscape:window-maximized="1"
     inkscape:current-layer="svg3055">
    <inkscape:grid
       type="xygrid"
       id="grid4137" />
  </sodipodi:namedview>
  <rect
     style="opacity:1;fill:#ececec;fill-opacity:1;fill-rule:nonzero;stroke:none;stroke-width:1;stroke-linecap:square;stroke-linejoin:miter;stroke-miterlimit:4;stroke-dasharray:none;stroke-dashoffset:0;stroke-opacity:1"
     id="rect4361"
     width="2"
     height="16"
     x="15"
     y="3"
     rx="1"
     ry="1" />
  <path
     style="opacity:1;fill:#ececec;fill-opacity:1;fill-rule:nonzero;stroke:none;stroke-width:1;stroke-linecap:square;stroke-linejoin:miter;stroke-miterlimit:4;stroke-dasharray:none;stroke-dashoffset:0;stroke-opacity:1"
     d="M 11 3 C 10.446 3 10 3.446 10 4 C 10 4.2444339 10.097572 4.4594594 10.242188 4.6328125 L 10.232422 4.640625 L 15.232422 10.640625 L 16 10 L 16.767578 10.640625 L 21.767578 4.640625 L 21.757812 4.6328125 C 21.902428 4.4594594 22 4.2444339 22 4 C 22 3.446 21.554 3 21 3 L 11 3 z M 13.134766 5 L 18.865234 5 L 16 8.4375 L 13.134766 5 z "
     id="rect4363" />
  <g
     style="font-style:normal;font-variant:normal;font-weight:normal;font-stretch:normal;font-size:15.47987652px;line-height:125%;font-family:Ubuntu;-inkscape-font-specification:Ubuntu;letter-spacing:0px;word-spacing:0px;fill:#ececec;fill-opacity:1;stroke:none;stroke-width:1px;stroke-linecap:butt;stroke-linejoin:miter;stroke-opacity:1"
     id="text4136">
    <path
       d="M 7.1640869,19 Q 5.136223,19 4.0681116,17.69969 3.0000001,16.399381 3.0000001,14 q 0,-1.191951 0.3250774,-2.120743 0.3250774,-0.928793 0.8978328,-1.563468 0.5882353,-0.6501548 1.377709,-0.9752322 0.8049536,-0.3405573 1.7492261,-0.3405573 0.5108359,0 0.9133127,0.092879 0.4179567,0.077399 0.7275542,0.1857585 0.3095975,0.1083591 0.5108359,0.2321982 0.2167183,0.123839 0.3250774,0.1857585 l -0.495356,1.517028 Q 8.9752324,10.981424 8.4643965,10.826625 7.9690404,10.656346 7.3188856,10.656346 q -0.4489164,0 -0.8823529,0.170279 -0.4179567,0.154799 -0.758514,0.541796 -0.3250774,0.371517 -0.5417957,1.006192 -0.2012384,0.634675 -0.2012384,1.578947 0,1.640867 0.5572756,2.52322 0.5727554,0.866873 1.8575852,0.866873 0.743034,0 1.2229102,-0.170279 0.4953561,-0.170278 0.7894737,-0.340557 l 0.4798762,1.501548 Q 9.4396287,18.582043 8.7430343,18.798761 8.0619197,19 7.1640869,19 Z"
       style="font-style:normal;font-variant:normal;font-weight:bold;font-stretch:normal;font-family:'Ubuntu Mono';-inkscape-font-specification:'Ubuntu Mono Bold';fill:#ececec;fill-opacity:1"
       id="path4141" />
  </g>
</svg>
