<svg xmlns="http://www.w3.org/2000/svg" viewBox="0 0 22 22">
 <g transform="matrix(.08 0 0 .08 .76 17.4)" style="fill:#ececec;fill-opacity:1">
  <path d="m 59.719 -180 c -3.683 0.387 -6.739 3.821 -6.719 7.5 l 0 74.06 -17.969 0 c -0.242 0 -0.539 0 -0.781 0 -3.404 0.388 -6.268 3.821 -6.25 7.5 l 0 84.45 c 0 3.927 3.378 7.5 7.03 7.5 l 17.969 0 0 11.489 c 0 3.927 3.548 7.5 7.5 7.5 l 135 0 c 3.952 0 7.5 -3.573 7.5 -7.5 l 0 -11.489 17.969 0 c 3.653 0 7.03 -3.573 7.03 -7.5 l 0 -84.45 c 0 -3.926 -3.378 -7.499 -7.03 -7.5 l -17.969 0 0 -61.41 c -5 -5.094 -25.23 -15.167 -30 -20.16 l -112.5 0 c -0.262 0 -0.519 0 -0.781 0 z m 5.781 12.5 93.75 0 0 25 31.25 0 0 43.75 -125 0 z m -25 81.25 l 175 0 0 37.5 -175 0 z m 168.75 56.25 c 2.761 0 6.25 3.489 6.25 6.25 0 2.761 -3.489 6.25 -6.25 6.25 -2.761 0 -6.25 -3.489 -6.25 -6.25 0 -2.761 3.489 -6.25 6.25 -6.25 z m -143.75 -6.25 125 0 0 43.75 -125 0 z" style="color:#000"/>
 </g>
</svg>
