<?xml version="1.0" encoding="UTF-8" standalone="no"?>
<svg
   xmlns:dc="http://purl.org/dc/elements/1.1/"
   xmlns:cc="http://creativecommons.org/ns#"
   xmlns:rdf="http://www.w3.org/1999/02/22-rdf-syntax-ns#"
   xmlns:svg="http://www.w3.org/2000/svg"
   xmlns="http://www.w3.org/2000/svg"
   xmlns:sodipodi="http://sodipodi.sourceforge.net/DTD/sodipodi-0.dtd"
   xmlns:inkscape="http://www.inkscape.org/namespaces/inkscape"
   width="22"
   viewBox="0 0 6.208889 6.208889"
   height="22"
   id="svg2"
   version="1.1"
   inkscape:version="0.91 r"
   sodipodi:docname="spotify-indicator.svg">
  <metadata
     id="metadata53">
    <rdf:RDF>
      <cc:Work
         rdf:about="">
        <dc:format>image/svg+xml</dc:format>
        <dc:type
           rdf:resource="http://purl.org/dc/dcmitype/StillImage" />
      </cc:Work>
    </rdf:RDF>
  </metadata>
  <sodipodi:namedview
     pagecolor="#ffffff"
     bordercolor="#666666"
     borderopacity="1"
     objecttolerance="10"
     gridtolerance="10"
     guidetolerance="10"
     inkscape:pageopacity="0"
     inkscape:pageshadow="2"
     inkscape:window-width="1366"
     inkscape:window-height="747"
     id="namedview51"
     showgrid="true"
     inkscape:zoom="13.92"
     inkscape:cx="-9.6903306"
     inkscape:cy="2.0578164"
     inkscape:window-x="0"
     inkscape:window-y="21"
     inkscape:window-maximized="1"
     inkscape:current-layer="svg2">
    <inkscape:grid
       type="xygrid"
       id="grid9949" />
  </sodipodi:namedview>
  <defs
     id="defs4" />
  <path
     style="fill:#ececec;fill-opacity:1;fill-rule:evenodd"
     d="M 11 3 C 6.5679998 3 3 6.5679998 3 11 C 3 15.432 6.5679998 19 11 19 C 15.432 19 19 15.432 19 11 C 19 6.5679998 15.432 3 11 3 z M 8.875 7.90625 C 11.249109 7.8358516 14.08711 8.3645658 16 9.65625 C 16.305873 9.8636996 16.39363 10.287107 16.1875 10.59375 C 15.981409 10.899707 15.585854 10.987258 15.28125 10.78125 C 13.064222 9.2844388 9.2601779 8.9609287 7.03125 9.5 C 6.6714573 9.586203 6.3043481 9.3583906 6.21875 9 C 6.1317501 8.6422054 6.3603179 8.3050306 6.71875 8.21875 C 7.3590114 8.0640758 8.0836304 7.9297163 8.875 7.90625 z M 9.03125 10.40625 C 11.139736 10.367521 13.347602 10.953846 14.9375 12.0625 C 15.189251 12.23883 15.236787 12.560638 15.0625 12.8125 C 14.88549 13.064202 14.563681 13.174256 14.3125 13 C 12.466866 11.710366 9.5223014 11.163548 7.21875 11.71875 C 6.9197856 11.791432 6.6351945 11.611467 6.5625 11.3125 C 6.4904954 11.013576 6.6705417 10.727612 6.96875 10.65625 C 7.6269877 10.497503 8.3284216 10.419148 9.03125 10.40625 z M 9.09375 12.71875 C 10.988425 12.695674 12.610221 13.182282 13.96875 14.125 C 14.171513 14.263692 14.201197 14.515993 14.0625 14.71875 C 13.921807 14.920701 13.66939 14.983679 13.46875 14.84375 C 11.855419 13.724521 9.7308569 13.35893 7.21875 13.78125 C 6.9769572 13.821088 6.7585768 13.648718 6.71875 13.40625 C 6.6782252 13.164419 6.851239 12.946711 7.09375 12.90625 C 7.7808748 12.790462 8.4621917 12.726439 9.09375 12.71875 z "
     transform="scale(0.28222223,0.28222223)"
     id="rect31" />
</svg>
