<?xml version="1.0" encoding="UTF-8" standalone="no"?>
<svg
   xmlns:dc="http://purl.org/dc/elements/1.1/"
   xmlns:cc="http://creativecommons.org/ns#"
   xmlns:rdf="http://www.w3.org/1999/02/22-rdf-syntax-ns#"
   xmlns:svg="http://www.w3.org/2000/svg"
   xmlns="http://www.w3.org/2000/svg"
   xmlns:sodipodi="http://sodipodi.sourceforge.net/DTD/sodipodi-0.dtd"
   xmlns:inkscape="http://www.inkscape.org/namespaces/inkscape"
   width="22"
   viewBox="0 0 22 22"
   height="22"
   id="svg2"
   version="1.1"
   inkscape:version="0.48.4 r9939"
   sodipodi:docname="ubuntuone-client-idle.svg">
  <metadata
     id="metadata12">
    <rdf:RDF>
      <cc:Work
         rdf:about="">
        <dc:format>image/svg+xml</dc:format>
        <dc:type
           rdf:resource="http://purl.org/dc/dcmitype/StillImage" />
        <dc:title></dc:title>
      </cc:Work>
    </rdf:RDF>
  </metadata>
  <defs
     id="defs10">
    <clipPath
       id="clipPath3108"
       clipPathUnits="userSpaceOnUse">
      <rect
         id="rect3110"
         transform="rotate(.22918)"
         style="fill:#fff"
         height="318.397"
         y="758.675"
         x="218.9"
         width="357.384" />
    </clipPath>
    <clipPath
       id="clipPath3104"
       clipPathUnits="userSpaceOnUse">
      <rect
         id="rect3106"
         transform="rotate(.22918)"
         style="fill:#fff"
         height="318.397"
         y="758.675"
         x="218.9"
         width="357.384" />
    </clipPath>
    <clipPath
       id="clipPath3100"
       clipPathUnits="userSpaceOnUse">
      <rect
         id="rect3102"
         transform="rotate(20.37582)"
         style="fill:#162d50"
         height="37.48"
         y=".064"
         x="8.208"
         width="506.461" />
    </clipPath>
    <clipPath
       id="clipPath3096"
       clipPathUnits="userSpaceOnUse">
      <rect
         id="rect3098"
         transform="rotate(20.37582)"
         style="fill:#162d50"
         height="37.48"
         y=".064"
         x="8.208"
         width="506.461" />
    </clipPath>
    <clipPath
       id="clipPath3092"
       clipPathUnits="userSpaceOnUse">
      <rect
         id="rect3094"
         transform="rotate(.6171)"
         height="235.885"
         y="804.242"
         x="221.386"
         width="350.457" />
    </clipPath>
    <clipPath
       id="clipPath3088"
       clipPathUnits="userSpaceOnUse">
      <rect
         id="rect3090"
         transform="rotate(.16206)"
         style="fill:#fff"
         height="279.027"
         y="793.52"
         x="257.321"
         width="287.432" />
    </clipPath>
    <clipPath
       id="clipPath3084"
       clipPathUnits="userSpaceOnUse">
      <rect
         id="rect3086"
         style="fill:#e20a17"
         height="30.006"
         y="977.09"
         x="276.365"
         width="79.477" />
    </clipPath>
    <clipPath
       id="clipPath3080"
       clipPathUnits="userSpaceOnUse">
      <rect
         id="rect3082"
         transform="matrix(.99975 -.02255 .02255 .99975 0 0)"
         style="fill:#f00"
         height="240.871"
         y="780.645"
         x="294.934"
         width="357.865" />
    </clipPath>
    <clipPath
       id="clipPath3076">
      <rect
         id="rect3078"
         style="fill:#ff0"
         height="208.571"
         y="1580.934"
         x="-830"
         width="477.143" />
    </clipPath>
    <clipPath
       id="clipPath3072">
      <rect
         id="rect3074"
         style="fill:#ff0"
         height="208.571"
         y="1580.934"
         x="-830"
         width="477.143" />
    </clipPath>
    <clipPath
       id="clipPath3068">
      <rect
         id="rect3070"
         style="fill:#ff0"
         height="208.571"
         y="1580.934"
         x="-830"
         width="477.143" />
    </clipPath>
    <clipPath
       id="clipPath3064">
      <rect
         id="rect3066"
         style="fill:#ff0"
         height="208.571"
         y="1580.934"
         x="-830"
         width="477.143" />
    </clipPath>
    <clipPath
       id="clipPath3060"
       clipPathUnits="userSpaceOnUse">
      <rect
         id="rect3062"
         style="fill:#fff"
         height="195"
         y="857.541"
         x="0"
         width="301.429" />
    </clipPath>
    <clipPath
       id="clipPath3056">
      <rect
         id="rect3058"
         style="fill:#ff0"
         height="208.571"
         y="1580.934"
         x="-830"
         width="477.143" />
    </clipPath>
    <clipPath
       id="clipPath3052">
      <rect
         id="rect3054"
         style="fill:#ff0"
         height="208.571"
         y="1580.934"
         x="-830"
         width="477.143" />
    </clipPath>
    <clipPath
       id="clipPath3048"
       clipPathUnits="userSpaceOnUse">
      <rect
         id="rect3050"
         style="fill:#fff"
         height="195"
         y=".06"
         x="0"
         width="301.429" />
    </clipPath>
    <clipPath
       id="clipPath3044">
      <rect
         id="rect3046"
         style="fill:#ff0"
         height="208.571"
         y="1580.934"
         x="-830"
         width="477.143" />
    </clipPath>
    <clipPath
       id="clipPath3040"
       clipPathUnits="userSpaceOnUse">
      <path
         clip-path="url(#clipPath11535)"
         id="path3042"
         d="m 699.2857,672.93231 a 40.714287,40.714287 0 1 1 -81.42858,0 40.714287,40.714287 0 1 1 81.42858,0 z"
         style="fill:#4a0;clip-path:url(#clipPath11535)" />
    </clipPath>
    <clipPath
       id="clipPath3036">
      <rect
         id="rect3038"
         style="fill:#ff0"
         height="208.571"
         y="1580.934"
         x="-830"
         width="477.143" />
    </clipPath>
    <clipPath
       id="clipPath3032">
      <rect
         id="rect3034"
         style="fill:#ff0"
         height="208.571"
         y="1580.934"
         x="-830"
         width="477.143" />
    </clipPath>
    <clipPath
       id="clipPath3028"
       clipPathUnits="userSpaceOnUse">
      <path
         clip-path="url(#clipPath11535)"
         id="path3030"
         transform="matrix(4.3233 0 0 4.3233 -2450.68 -2667.55)"
         d="m 699.2857,672.93231 a 40.714287,40.714287 0 1 1 -81.42858,0 40.714287,40.714287 0 1 1 81.42858,0 z"
         style="fill:#4a0;clip-path:url(#clipPath11535)" />
    </clipPath>
    <clipPath
       id="clipPath3024">
      <rect
         id="rect3026"
         style="fill:#ff0"
         height="208.571"
         y="1580.934"
         x="-830"
         width="477.143" />
    </clipPath>
    <clipPath
       id="clipPath3020">
      <rect
         id="rect3022"
         style="fill:#ff0"
         height="208.571"
         y="1580.934"
         x="-830"
         width="477.143" />
    </clipPath>
    <clipPath
       id="clipPath3016"
       clipPathUnits="userSpaceOnUse">
      <path
         clip-path="url(#clipPath11535)"
         id="path3018"
         transform="matrix(4.3233 0 0 4.3233 -2450.68 -2667.55)"
         d="m 699.2857,672.93231 a 40.714287,40.714287 0 1 1 -81.42858,0 40.714287,40.714287 0 1 1 81.42858,0 z"
         style="fill:#4a0;clip-path:url(#clipPath11535)" />
    </clipPath>
    <clipPath
       id="clipPath3012"
       clipPathUnits="userSpaceOnUse">
      <rect
         id="rect3014"
         transform="rotate(27.44968)"
         style="fill:#fff"
         height="41.394"
         y="815.74"
         x="448.118"
         width="63.987" />
    </clipPath>
    <clipPath
       id="clipPath3008"
       clipPathUnits="userSpaceOnUse">
      <rect
         id="rect3010"
         style="fill:#fff"
         height="195"
         y="857.541"
         x="0"
         width="301.429" />
    </clipPath>
    <clipPath
       id="clipPath3004"
       clipPathUnits="userSpaceOnUse">
      <rect
         id="rect3006"
         style="fill:#fff"
         height="195"
         y="857.541"
         x="0"
         width="301.429" />
    </clipPath>
    <clipPath
       id="clipPath3000"
       clipPathUnits="userSpaceOnUse">
      <path
         id="path3002"
         transform="matrix(4.3233 0 0 4.3233 -2450.68 -2667.55)"
         d="m 699.2857,672.93231 a 40.714287,40.714287 0 1 1 -81.42858,0 40.714287,40.714287 0 1 1 81.42858,0 z"
         style="fill:#4a0" />
    </clipPath>
    <clipPath
       id="clipPath2996">
      <rect
         id="rect2998"
         style="fill:#ff0"
         height="208.571"
         y="1580.934"
         x="-830"
         width="477.143" />
    </clipPath>
    <clipPath
       clipPathUnits="userSpaceOnUse"
       id="clipPath11535">
      <path
         id="path2994"
         d="m 699.2857,672.93231 a 40.714287,40.714287 0 1 1 -81.42858,0 40.714287,40.714287 0 1 1 81.42858,0 z"
         style="fill:#4a0" />
    </clipPath>
  </defs>
  <sodipodi:namedview
     pagecolor="#ffffff"
     bordercolor="#666666"
     borderopacity="1"
     objecttolerance="10"
     gridtolerance="10"
     guidetolerance="10"
     inkscape:pageopacity="0"
     inkscape:pageshadow="2"
     inkscape:window-width="1366"
     inkscape:window-height="742"
     id="namedview8"
     showgrid="false"
     inkscape:zoom="10.727273"
     inkscape:cx="11.372882"
     inkscape:cy="7.2711867"
     inkscape:window-x="0"
     inkscape:window-y="26"
     inkscape:window-maximized="1"
     inkscape:current-layer="svg2" />
  <path
     style="opacity:0.3;fill:#000000;fill-opacity:1"
     d="M 9.03125,6 C 8.638969,6.011053 8.238931,6.084271 7.84375,6.21875 6.15304,6.7940087 4.877345,8.4610106 4.5,10.53125 3.389755,10.799372 2.452608,11.778936 2.125,13.1875 c -0.46502,1.999566 0.503109,4.062531 2.15625,4.625 0.02709,0.0079 0.03541,0.02415 0.0625,0.03125 C 4.572078,17.94244 4.83669,18 5.09375,18 l 11.96875,0 c 0.429005,0 0.820766,-0.147428 1.15625,-0.40625 1.339861,-0.773796 2.072007,-2.618564 1.65625,-4.40625 -0.307166,-1.32076 -1.167002,-2.28982 -2.1875,-2.625 -0.0089,-0.04421 0.01007,-0.08079 0,-0.125 C 17.22248,8.437934 15.496876,7.2812805 13.84375,7.84375 13.5264,7.9519081 13.234914,8.0984577 12.96875,8.3125 12.057275,6.8315313 10.576851,5.9581262 9.03125,6 z M 8.4375,9 10.15625,9 c 0.23391,0 0.40625,0.217048 0.40625,0.46875 l 0,5.0625 C 10.5625,14.782952 10.39016,15 10.15625,15 L 8.4375,15 C 8.20359,15 8,14.782952 8,14.53125 L 8,9.46875 C 8,9.217048 8.20359,9 8.4375,9 z m 3.40625,0 1.71875,0 C 13.79641,9 14,9.217048 14,9.46875 l 0,5.0625 C 14,14.782952 13.79641,15 13.5625,15 l -1.71875,0 C 11.60984,15 11.4375,14.782952 11.4375,14.53125 l 0,-5.0625 C 11.4375,9.217048 11.60984,9 11.84375,9 z"
     id="path3960"
     inkscape:connector-curvature="0" />
  <path
     style="fill:#dcdcdc;fill-opacity:1"
     d="M 9.03125 5 C 8.638969 5.011053 8.238931 5.0842709 7.84375 5.21875 C 6.15304 5.7940087 4.877345 7.4610104 4.5 9.53125 C 3.389755 9.7993714 2.452608 10.778936 2.125 12.1875 C 1.65998 14.187066 2.628109 16.250031 4.28125 16.8125 C 4.30834 16.8204 4.31666 16.83665 4.34375 16.84375 C 4.572078 16.94244 4.83669 17 5.09375 17 L 17.0625 17 C 17.491505 17 17.883266 16.852572 18.21875 16.59375 C 19.558611 15.819954 20.290757 13.975186 19.875 12.1875 C 19.567834 10.86674 18.707998 9.8976795 17.6875 9.5625 C 17.6786 9.518289 17.69757 9.4817103 17.6875 9.4375 C 17.22248 7.4379342 15.496876 6.2812805 13.84375 6.84375 C 13.5264 6.9519081 13.234914 7.0984577 12.96875 7.3125 C 12.057275 5.8315313 10.576851 4.9581262 9.03125 5 z M 8.4375 9 L 10.15625 9 C 10.39016 9 10.5625 9.217048 10.5625 9.46875 L 10.5625 14.53125 C 10.5625 14.782952 10.39016 15 10.15625 15 L 8.4375 15 C 8.2035903 15 8 14.782952 8 14.53125 L 8 9.46875 C 8 9.217048 8.2035903 9 8.4375 9 z M 11.84375 9 L 13.5625 9 C 13.79641 9 14 9.217048 14 9.46875 L 14 14.53125 C 14 14.782952 13.79641 15 13.5625 15 L 11.84375 15 C 11.60984 15 11.4375 14.782952 11.4375 14.53125 L 11.4375 9.46875 C 11.4375 9.217048 11.60984 9 11.84375 9 z "
     id="path3114" />
</svg>
