<?xml version="1.0" encoding="UTF-8" standalone="no"?>
<svg
   xmlns:dc="http://purl.org/dc/elements/1.1/"
   xmlns:cc="http://creativecommons.org/ns#"
   xmlns:rdf="http://www.w3.org/1999/02/22-rdf-syntax-ns#"
   xmlns:svg="http://www.w3.org/2000/svg"
   xmlns="http://www.w3.org/2000/svg"
   xmlns:sodipodi="http://sodipodi.sourceforge.net/DTD/sodipodi-0.dtd"
   xmlns:inkscape="http://www.inkscape.org/namespaces/inkscape"
   viewBox="0 0 14 22"
   id="svg3065"
   version="1.1"
   inkscape:version="0.91 r"
   width="100%"
   height="100%"
   sodipodi:docname="xfce4-mixer-no-record.svg">
  <metadata
     id="metadata3079">
    <rdf:RDF>
      <cc:Work
         rdf:about="">
        <dc:format>image/svg+xml</dc:format>
        <dc:type
           rdf:resource="http://purl.org/dc/dcmitype/StillImage" />
      </cc:Work>
    </rdf:RDF>
  </metadata>
  <defs
     id="defs3077" />
  <sodipodi:namedview
     pagecolor="#ffffff"
     bordercolor="#666666"
     borderopacity="1"
     objecttolerance="10"
     gridtolerance="10"
     guidetolerance="10"
     inkscape:pageopacity="0"
     inkscape:pageshadow="2"
     inkscape:window-width="706"
     inkscape:window-height="480"
     id="namedview3075"
     showgrid="false"
     inkscape:zoom="10.727273"
     inkscape:cx="7.0000002"
     inkscape:cy="11"
     inkscape:window-x="0"
     inkscape:window-y="21"
     inkscape:window-maximized="0"
     inkscape:current-layer="svg3065" />
  <path
     style="color:#000000;opacity:0.4;fill:#ececec;fill-opacity:1"
     d="m 7,1.4999 c -1.662,0 -3,1.338 -3,3 l 0,8 c 0,1.662 1.338,3 3,3 1.662,0 3,-1.338 3,-3 l 0,-8 c 0,-1.662 -1.338,-3 -3,-3 z m -6,7 0,1 1,0 0,3 c 0,2.4238 1.7175,4.4415 4,4.9062 l 0,2.094 -1,0 0,1 4,0 0,-1 -1,0 0,-2.0938 c 2.283,-0.464 4,-2.482 4,-4.906 l 0,-3 1,0 0,-1 -1,0 -1,0 0,4 c 0,2.216 -1.784,4 -4,4 -2.216,0 -4,-1.784 -4,-4 l 0,-4 -1,0 -1,0 z"
     id="path3073"
     inkscape:connector-curvature="0" />
</svg>
