<?xml version="1.0" encoding="UTF-8" standalone="no"?>
<svg
   xmlns:dc="http://purl.org/dc/elements/1.1/"
   xmlns:cc="http://creativecommons.org/ns#"
   xmlns:rdf="http://www.w3.org/1999/02/22-rdf-syntax-ns#"
   xmlns:svg="http://www.w3.org/2000/svg"
   xmlns="http://www.w3.org/2000/svg"
   xmlns:sodipodi="http://sodipodi.sourceforge.net/DTD/sodipodi-0.dtd"
   xmlns:inkscape="http://www.inkscape.org/namespaces/inkscape"
   width="24"
   height="24"
   viewBox="0 0 24 24"
   id="svg2"
   version="1.1"
   inkscape:version="0.91 r"
   sodipodi:docname="simplescreenrecorder-paused.svg">
  <metadata
     id="metadata32">
    <rdf:RDF>
      <cc:Work
         rdf:about="">
        <dc:format>image/svg+xml</dc:format>
        <dc:type
           rdf:resource="http://purl.org/dc/dcmitype/StillImage" />
      </cc:Work>
    </rdf:RDF>
  </metadata>
  <sodipodi:namedview
     pagecolor="#ffffff"
     bordercolor="#666666"
     borderopacity="1"
     objecttolerance="10"
     gridtolerance="10"
     guidetolerance="10"
     inkscape:pageopacity="0"
     inkscape:pageshadow="2"
     inkscape:window-width="1366"
     inkscape:window-height="747"
     id="namedview30"
     showgrid="true"
     inkscape:zoom="9.8333334"
     inkscape:cx="-0.20066507"
     inkscape:cy="11.091523"
     inkscape:window-x="0"
     inkscape:window-y="21"
     inkscape:window-maximized="1"
     inkscape:current-layer="svg2">
    <inkscape:grid
       type="xygrid"
       id="grid2994" />
  </sodipodi:namedview>
  <defs
     id="defs4" />
  <path
     style="fill:#353535;fill-opacity:1"
     inkscape:connector-curvature="0"
     id="path26"
     d="m 19.332617,6.4601606 c 0.737559,0 1.364125,0.2399287 1.886861,0.7233667 C 21.738633,7.6633836 22,8.2435095 22,8.923903 l 0,8.615936 c 0,0.676813 -0.261367,1.256938 -0.780522,1.740376 C 20.696742,19.760072 20.070176,20 19.332617,20 L 4.6673826,20 C 3.9298239,20 3.3032582,19.760072 2.7805223,19.280215 2.2613675,18.796777 2,18.216652 2,17.539839 L 2,8.923903 C 2,8.2435095 2.2613675,7.6633836 2.7805223,7.1835273 3.3032582,6.7000893 3.9298239,6.4601606 4.6673826,6.4601606 l 2.3344075,0 0.5298962,-1.3070723 C 7.6641601,4.8379584 7.9040457,4.5693816 8.2549225,4.3401963 8.6058001,4.1145927 8.9638381,4 9.3326174,4 l 5.3347656,0 c 0.368779,0 0.726817,0.1145927 1.077695,0.3401963 0.350876,0.2291853 0.590762,0.4977621 0.723236,0.812892 L 16.99821,6.4601606 Z M 12,17.539839 c 1.285357,0 2.384532,-0.422561 3.297529,-1.264101 0.912997,-0.84512 1.367706,-1.858549 1.367706,-3.043867 0,-1.185318 -0.454709,-2.202328 -1.367706,-3.043867 C 14.384532,9.342882 13.285357,8.923903 12,8.923903 c -1.285357,0 -2.3845324,0.418979 -3.2975294,1.264101 -0.912997,0.841539 -1.3677055,1.858549 -1.3677055,3.043867 0,1.185318 0.4547085,2.198747 1.3677055,3.043867 0.912997,0.84154 2.0121724,1.264101 3.2975294,1.264101 z" />
  <rect
     style="fill:#353535;fill-opacity:1;fill-rule:evenodd;stroke:none"
     id="rect2996"
     width="1.8331543"
     height="4.5837069"
     x="9.2501249"
     y="11.082857"
     ry="0.71428573"
     rx="0.71428573" />
  <rect
     style="fill:#353535;fill-opacity:1;fill-rule:evenodd;stroke:none"
     id="rect2998"
     width="1.8331543"
     height="4.5837069"
     x="12.916434"
     y="11.082857"
     ry="0.71428573"
     rx="0.71428573" />
</svg>
