<svg xmlns="http://www.w3.org/2000/svg" viewBox="0 0 128 128">
<g style="stroke-width:.375" transform="matrix(2.6667 0 0 2.6667 -.0008 .0085)">
<path style="stroke-opacity:.298;fill:#b28d6d;stroke:#000;line-height:normal;color:#000" d="M 5.7816225,37.987179 C 5.0791136,37.914549 4.4850228,37.218632 4.4883018,36.472188 l 0,-28.6795646 C 4.4883753,6.999399 5.1708157,6.277716 5.9209027,6.277635 l 35.3374973,0 c 0.75009,8.1e-5 1.432527,0.721764 1.432605,1.5149884 l 0,26.0178146 c -7.8e-5,0.793226 -0.682515,1.514907 -1.432605,1.514988 l -13.798734,0 0,1.146762 c -7.5e-5,0.793225 -0.682514,1.514912 -1.432601,1.514991 l -20.1061623,0 c -0.04639,0.0023 -0.092892,0.0023 -0.1392802,0 z"/>
</g>
<path style="stroke-opacity:.298;fill:#e0b189;stroke:#000;line-height:normal;color:#000" d="m 8.0495626,26.728325 c -2.2071902,0.193602 -4.0737423,2.048577 -4.0634411,4.038242 l 0,76.446133 c 2.36e-4,2.11436 2.1443668,4.03802 4.5010426,4.03823 l 111.0257159,0 c 2.35668,-2.1e-4 4.5008,-1.92387 4.50104,-4.03823 l 0,-69.351172 c -2.4e-4,-2.11436 -2.14436,-4.038027 -4.50104,-4.03824 l -43.353792,0 0,-3.056721 c -2.37e-4,-2.11436 -2.144368,-4.038029 -4.501043,-4.038242 l -63.1708809,0 c -0.1457511,-0.0064 -0.2918492,-0.0064 -0.4376015,0 z"/>
</svg>
