<svg xmlns="http://www.w3.org/2000/svg" viewBox="0 0 16 16">
<path style="fill:#555555#2d2d2d#bada55" d="M 5.1875,0.0169544 C 4.4019747,0.0986065 3.7615992,0.8877311 3.8434229,1.6732385 3.9252466,2.4587459 4.7145105,3.0989497 5.5,3.0169544 c 0,0 0.4515209,0.022635 0.84375,0.21875 C 6.735979,3.431819 7,3.5169544 7,4.5169544 L 7,11 4,8 2,8 l 0,2 6,6 1,0 6,-6 0,-2 -2,0 -3,3 0,-6.4830456 c 0,-2 -1.235979,-3.4148646 -2.34375,-3.96875 C 6.548479,-0.005681 5.5,0.0169544 5.5,0.0169544 c -0.052036,-0.00271 -0.1042138,-0.00271 -0.15625,0 -0.052036,-0.00271 -0.1042137,-0.00271 -0.15625,0 z"/>
</svg>
