<svg xmlns="http://www.w3.org/2000/svg" viewBox="0 0 16 16" xmlns:xlink="http://www.w3.org/1999/xlink">
<path style="fill:#555555#2d2d2d#bada55;line-height:normal;color:#000" d="M 7.90625,0 C 7.6133029,0.03838053 7.3455227,0.23312973 7.21875,0.5 L 5.9375,3.03125 3.25,2.125 C 2.6271886,1.9167527 1.9167527,2.6271886 2.125,3.25 L 3.03125,5.9375 0.5,7.21875 c -0.55905214,0.3035386 -0.55905214,1.2589614 0,1.5625 L 3.03125,10.0625 2.125,12.75 c -0.2082473,0.622811 0.5021886,1.333247 1.125,1.125 L 5.9375,12.96875 7.21875,15.5 c 0.3035386,0.559052 1.2589614,0.559052 1.5625,0 L 10.0625,12.96875 12.75,13.875 c 0.622811,0.208247 1.333247,-0.502189 1.125,-1.125 L 12.96875,10.0625 15.5,8.78125 c 0.559052,-0.3035386 0.559052,-1.2589614 0,-1.5625 L 12.96875,5.9375 13.875,3.25 C 14.083247,2.6271886 13.372811,1.9167527 12.75,2.125 L 10.0625,3.03125 8.78125,0.5 C 8.6262181,0.17824538 8.2621625,-0.02978638 7.90625,0 z"/>
</svg>
