<svg width="128" xmlns="http://www.w3.org/2000/svg" height="128" viewBox="0 0 128 128" xmlns:xlink="http://www.w3.org/1999/xlink">
<path style="fill:#785a8b" d="M 21.332031 2.667969 C 18.589844 2.667969 16 5.257812 16 8 L 16 120 C 16 122.589844 18.742188 125.332031 21.332031 125.332031 L 106.667969 125.332031 C 109.257812 125.332031 112 122.589844 112 120 L 112 8 C 112 5.257812 109.410156 2.667969 106.667969 2.667969 Z "/>
<path style="fill:#000;fill-opacity:.196" d="M 16 93.332031 L 16 120 C 16 122.589844 18.742188 125.332031 21.332031 125.332031 L 106.667969 125.332031 C 109.257812 125.332031 112 122.589844 112 120 L 112 93.332031 Z "/>
<g style="fill:#fff">
<path d="M 48 44 L 48 70.667969 L 40 70.667969 L 48 84 L 53.332031 84 L 53.332031 49.332031 C 64.703125 49.332031 77.023438 49.332031 88 49.332031 L 88 44 Z M 63.421875 52.710938 L 57.96875 58.398438 L 67.511719 68.355469 L 57.96875 78.3125 L 63.421875 84 L 72.96875 74.042969 L 82.511719 84 L 87.96875 78.3125 L 78.421875 68.355469 L 87.96875 58.398438 L 82.511719 52.710938 L 72.96875 62.667969 Z "/>
<path d="M 42.042969 109.332031 C 42.042969 110.324219 42.082031 111.257812 42.15625 112.140625 C 42.257812 113 42.433594 113.746094 42.6875 114.386719 C 42.960938 115.023438 43.339844 115.53125 43.816406 115.90625 C 44.292969 116.277344 44.933594 116.464844 45.738281 116.464844 C 46.519531 116.464844 47.144531 116.277344 47.625 115.90625 C 48.125 115.53125 48.503906 115.023438 48.753906 114.386719 C 49.03125 113.726562 49.207031 112.964844 49.28125 112.105469 C 49.382812 111.25 49.433594 110.324219 49.433594 109.332031 C 49.433594 108.34375 49.382812 107.417969 49.28125 106.558594 C 49.207031 105.679688 49.03125 104.917969 48.753906 104.28125 C 48.503906 103.640625 48.136719 103.136719 47.660156 102.761719 C 47.183594 102.386719 46.542969 102.199219 45.738281 102.199219 C 44.933594 102.199219 44.292969 102.386719 43.816406 102.761719 C 43.339844 103.136719 42.960938 103.652344 42.6875 104.3125 C 42.433594 104.953125 42.257812 105.699219 42.15625 106.558594 C 42.082031 107.417969 42.042969 108.34375 42.042969 109.332031 M 37.332031 109.332031 C 37.332031 105.808594 38.074219 103.15625 39.558594 101.375 C 41.039062 99.570312 43.101562 98.667969 45.738281 98.667969 C 48.476562 98.667969 50.5625 99.570312 51.996094 101.375 C 53.425781 103.15625 54.144531 105.808594 54.144531 109.332031 C 54.144531 112.855469 53.414062 115.519531 51.957031 117.324219 C 50.5 119.109375 48.441406 120 45.777344 120 C 43.039062 120 40.9375 119.109375 39.480469 117.324219 C 38.050781 115.519531 37.332031 112.855469 37.332031 109.332031 "/>
<path d="M 73.066406 99.128906 L 73.066406 102.496094 L 66.921875 102.496094 L 66.921875 119.570312 L 62.246094 119.570312 L 62.246094 102.496094 L 56.105469 102.496094 L 56.105469 99.128906 L 73.066406 99.128906 "/>
<path d="M 76.382812 119.570312 L 76.382812 99.128906 L 90.667969 99.128906 L 90.667969 102.496094 L 81.019531 102.496094 L 81.019531 107.449219 L 89.460938 107.449219 L 89.460938 110.820312 L 81.019531 110.820312 L 81.019531 119.570312 L 76.382812 119.570312 "/>
</g>
</svg>
