<svg width="128" xmlns="http://www.w3.org/2000/svg" height="128" viewBox="0 0 128 128" xmlns:xlink="http://www.w3.org/1999/xlink">
<path style="fill:#207145" d="M 21.332031 2.667969 C 18.589844 2.667969 16 5.257812 16 8 L 16 120 C 16 122.589844 18.742188 125.332031 21.332031 125.332031 L 106.667969 125.332031 C 109.257812 125.332031 112 122.589844 112 120 L 112 37.332031 L 77.332031 2.667969 Z "/>
<path style="fill:#000;fill-opacity:.196" d="M 77.332031 32 L 77.5 32.167969 L 77.917969 32 Z M 82.667969 37.332031 L 112 66.667969 L 112 37.332031 Z "/>
<path style="fill:#fff;fill-opacity:.392" d="M 77.332031 2.667969 L 112 37.332031 L 82.667969 37.332031 C 80.078125 37.332031 77.332031 34.589844 77.332031 32 Z "/>
<path style="fill:#000;fill-opacity:.196" d="M 16 93.332031 L 16 120 C 16 122.589844 18.742188 125.332031 21.332031 125.332031 L 106.667969 125.332031 C 109.257812 125.332031 112 122.589844 112 120 L 112 93.332031 Z "/>
<g style="fill:#fff">
<path d="M 90.664062 48 C 90.664062 66.769531 90.667969 69.058594 90.667969 85.332031 C 71.949219 85.332031 53.523438 85.332031 37.335938 85.332031 C 37.335938 66.5625 37.335938 64.273438 37.335938 48 C 55.847656 48 74.796875 48 90.664062 48 Z M 85.332031 53.332031 L 61.335938 53.332031 L 61.335938 64 L 85.332031 64 Z M 56.003906 53.332031 L 42.671875 53.332031 L 42.671875 64 L 56.003906 64 Z M 85.332031 69.332031 L 61.335938 69.332031 L 61.335938 80 L 85.332031 80 Z M 56.003906 69.332031 L 42.671875 69.332031 L 42.671875 80 L 56.003906 80 Z "/>
<path d="M 41.984375 109.332031 C 41.984375 110.324219 42.023438 111.261719 42.097656 112.140625 C 42.195312 113 42.371094 113.746094 42.617188 114.386719 C 42.890625 115.023438 43.261719 115.53125 43.734375 115.90625 C 44.207031 116.28125 44.839844 116.464844 45.632812 116.464844 C 46.402344 116.464844 47.023438 116.28125 47.492188 115.90625 C 47.992188 115.53125 48.363281 115.023438 48.609375 114.386719 C 48.882812 113.726562 49.058594 112.964844 49.132812 112.105469 C 49.230469 111.25 49.28125 110.324219 49.28125 109.332031 C 49.28125 108.34375 49.230469 107.417969 49.132812 106.558594 C 49.058594 105.679688 48.882812 104.917969 48.609375 104.28125 C 48.363281 103.640625 48.003906 103.136719 47.53125 102.761719 C 47.058594 102.386719 46.425781 102.199219 45.632812 102.199219 C 44.839844 102.199219 44.207031 102.386719 43.734375 102.761719 C 43.261719 103.136719 42.890625 103.652344 42.617188 104.3125 C 42.371094 104.953125 42.195312 105.699219 42.097656 106.558594 C 42.023438 107.417969 41.984375 108.34375 41.984375 109.332031 M 37.332031 109.332031 C 37.332031 105.8125 38.066406 103.15625 39.53125 101.375 C 40.992188 99.570312 43.027344 98.667969 45.632812 98.667969 C 48.335938 98.667969 50.398438 99.570312 51.8125 101.375 C 53.226562 103.15625 53.933594 105.8125 53.933594 109.332031 C 53.933594 112.855469 53.214844 115.519531 51.773438 117.324219 C 50.335938 119.109375 48.300781 120 45.671875 120 C 42.964844 120 40.894531 119.109375 39.453125 117.324219 C 38.039062 115.519531 37.332031 112.855469 37.332031 109.332031 "/>
<path d="M 61.523438 116.269531 C 61.648438 116.289062 61.785156 116.300781 61.933594 116.300781 C 62.082031 116.300781 62.21875 116.300781 62.34375 116.300781 C 63.386719 116.300781 64.253906 116.125 64.949219 115.773438 C 65.667969 115.421875 66.238281 114.9375 66.660156 114.320312 C 67.109375 113.703125 67.417969 112.976562 67.59375 112.140625 C 67.789062 111.28125 67.890625 110.347656 67.890625 109.332031 C 67.890625 108.453125 67.816406 107.59375 67.667969 106.757812 C 67.515625 105.921875 67.257812 105.183594 66.882812 104.546875 C 66.511719 103.90625 66.003906 103.398438 65.359375 103.027344 C 64.714844 102.628906 63.882812 102.429688 62.863281 102.429688 C 62.667969 102.429688 62.441406 102.441406 62.195312 102.464844 C 61.945312 102.464844 61.722656 102.488281 61.523438 102.53125 L 61.523438 116.269531 M 72.542969 109.332031 C 72.542969 111.226562 72.269531 112.84375 71.722656 114.1875 C 71.203125 115.507812 70.46875 116.585938 69.527344 117.425781 C 68.585938 118.261719 67.457031 118.878906 66.140625 119.273438 C 64.851562 119.648438 63.421875 119.835938 61.859375 119.835938 C 61.042969 119.835938 60.234375 119.789062 59.441406 119.703125 C 58.671875 119.636719 57.839844 119.515625 56.949219 119.339844 L 56.949219 99.394531 C 57.988281 99.195312 58.96875 99.0625 59.886719 98.996094 C 60.804688 98.929688 61.660156 98.898438 62.457031 98.898438 C 63.96875 98.898438 65.347656 99.097656 66.585938 99.492188 C 67.851562 99.886719 68.917969 100.515625 69.789062 101.375 C 70.65625 102.210938 71.324219 103.289062 71.796875 104.609375 C 72.292969 105.910156 72.542969 107.484375 72.542969 109.332031 "/>
<path d="M 82.179688 116.597656 C 82.949219 116.597656 83.582031 116.53125 84.078125 116.402344 C 84.601562 116.246094 85.011719 116.046875 85.308594 115.804688 C 85.605469 115.542969 85.804688 115.253906 85.902344 114.949219 C 86.027344 114.617188 86.089844 114.285156 86.089844 113.957031 C 86.089844 113.539062 85.953125 113.164062 85.679688 112.832031 C 85.40625 112.503906 85.058594 112.21875 84.636719 111.976562 C 84.214844 111.710938 83.746094 111.480469 83.222656 111.28125 C 82.703125 111.0625 82.179688 110.863281 81.660156 110.6875 C 80.964844 110.46875 80.246094 110.214844 79.5 109.929688 C 78.757812 109.640625 78.074219 109.277344 77.453125 108.839844 C 76.859375 108.398438 76.363281 107.859375 75.964844 107.21875 C 75.570312 106.558594 75.371094 105.746094 75.371094 104.777344 C 75.371094 102.859375 76.066406 101.363281 77.453125 100.285156 C 78.867188 99.207031 80.804688 98.667969 83.261719 98.667969 C 84.675781 98.667969 85.902344 98.808594 86.945312 99.097656 C 88.011719 99.382812 88.90625 99.703125 89.625 100.054688 L 88.285156 103.191406 C 87.664062 102.882812 86.96875 102.617188 86.199219 102.398438 C 85.457031 102.179688 84.589844 102.066406 83.59375 102.066406 C 81.164062 102.066406 79.949219 102.851562 79.949219 104.414062 C 79.949219 104.808594 80.074219 105.160156 80.320312 105.46875 C 80.570312 105.753906 80.878906 106.019531 81.25 106.261719 C 81.648438 106.480469 82.082031 106.679688 82.554688 106.855469 C 83.050781 107.03125 83.535156 107.199219 84.003906 107.351562 C 84.722656 107.59375 85.46875 107.871094 86.238281 108.175781 C 87.03125 108.464844 87.75 108.859375 88.398438 109.367188 C 89.066406 109.851562 89.613281 110.46875 90.035156 111.214844 C 90.457031 111.941406 90.667969 112.867188 90.667969 113.988281 C 90.667969 115.90625 89.960938 117.390625 88.546875 118.449219 C 87.15625 119.484375 85.035156 120 82.179688 120 C 80.269531 120 78.746094 119.824219 77.601562 119.472656 C 76.460938 119.097656 75.605469 118.757812 75.035156 118.449219 L 76.375 115.144531 C 77.046875 115.496094 77.839844 115.828125 78.757812 116.136719 C 79.699219 116.445312 80.839844 116.597656 82.179688 116.597656 "/>
</g>
</svg>
