<?xml version="1.0" encoding="UTF-8" standalone="no"?>
<!-- Created with Inkscape (http://www.inkscape.org/) -->

<svg
   xmlns:dc="http://purl.org/dc/elements/1.1/"
   xmlns:cc="http://creativecommons.org/ns#"
   xmlns:rdf="http://www.w3.org/1999/02/22-rdf-syntax-ns#"
   xmlns:svg="http://www.w3.org/2000/svg"
   xmlns="http://www.w3.org/2000/svg"
   xmlns:xlink="http://www.w3.org/1999/xlink"
   xmlns:sodipodi="http://sodipodi.sourceforge.net/DTD/sodipodi-0.dtd"
   xmlns:inkscape="http://www.inkscape.org/namespaces/inkscape"
   width="64"
   height="64"
   id="svg2"
   version="1.1"
   inkscape:version="0.48.5 r10040"
   sodipodi:docname="folder-ubuntu.svg"
   inkscape:export-filename="/media/Data/Main/Visuals/Icons/Numix/Desktop/repos/numix-wiki/Gjorgi/Numix-folders/48/New/folder-144.png"
   inkscape:export-xdpi="270"
   inkscape:export-ydpi="270">
  <defs
     id="defs4">
    <linearGradient
       inkscape:collect="always"
       id="linearGradient3958">
      <stop
         style="stop-color:#000000;stop-opacity:1;"
         offset="0"
         id="stop3960" />
      <stop
         style="stop-color:#000000;stop-opacity:0;"
         offset="1"
         id="stop3962" />
    </linearGradient>
    <radialGradient
       inkscape:collect="always"
       xlink:href="#linearGradient3958"
       id="radialGradient3964"
       cx="32.5"
       cy="56.5"
       fx="32.5"
       fy="56.5"
       r="33.5"
       gradientTransform="matrix(1,0,0,0.10447761,0,50.597015)"
       gradientUnits="userSpaceOnUse" />
  </defs>
  <sodipodi:namedview
     id="base"
     pagecolor="#ffffff"
     bordercolor="#666666"
     borderopacity="1.0"
     inkscape:pageopacity="0.0"
     inkscape:pageshadow="2"
     inkscape:zoom="39.377997"
     inkscape:cx="26.49226"
     inkscape:cy="10.320439"
     inkscape:document-units="px"
     inkscape:current-layer="layer1"
     showgrid="true"
     inkscape:window-width="1920"
     inkscape:window-height="1052"
     inkscape:window-x="0"
     inkscape:window-y="28"
     inkscape:window-maximized="1"
     showguides="true"
     inkscape:guide-bbox="true">
    <inkscape:grid
       type="xygrid"
       id="grid2985"
       empspacing="5"
       visible="true"
       enabled="true"
       snapvisiblegridlinesonly="true" />
  </sodipodi:namedview>
  <metadata
     id="metadata7">
    <rdf:RDF>
      <cc:Work
         rdf:about="">
        <dc:format>image/svg+xml</dc:format>
        <dc:type
           rdf:resource="http://purl.org/dc/dcmitype/StillImage" />
        <dc:title></dc:title>
      </cc:Work>
    </rdf:RDF>
  </metadata>
  <g
     inkscape:label="Layer 1"
     inkscape:groupmode="layer"
     id="layer1"
     transform="translate(0,-988.3622)">
    <path
       sodipodi:type="arc"
       style="opacity:0.6;fill:url(#radialGradient3964);fill-opacity:1;stroke:none"
       id="path3956"
       sodipodi:cx="32.5"
       sodipodi:cy="56.5"
       sodipodi:rx="33.5"
       sodipodi:ry="3.5"
       d="M 66,56.5 C 66,58.432997 51.001539,60 32.5,60 13.998461,60 -1,58.432997 -1,56.5 -1,54.567003 13.998461,53 32.5,53 51.001539,53 66,54.567003 66,56.5 z"
       transform="matrix(1.1343284,0,0,1.1428571,-4.8656716,979.79077)" />
    <path
       sodipodi:nodetypes="ccccccccc"
       inkscape:connector-curvature="0"
       id="path3029"
       d="m 0,997.42103 0,42.82347 64,0 0,-21.4117 -3.047619,-18.353 L 37,1000.3622 l -3,-6 -30.952381,0 C 1.52381,994.3622 0,995.89161 0,997.42103 z"
       style="fill:replacecolour2;fill-opacity:1;stroke:none" />
    <rect
       style="fill:#fffdf0;fill-opacity:1;stroke:none"
       id="rect3799"
       width="31.571428"
       height="11.882284"
       x="5"
       y="1002.3622" />
    <path
       style="fill:#000000;fill-opacity:1;stroke:none;opacity:0.03"
       d="M 3.0625,6 C 1.538691,6 0,7.53308 0,9.0625 l 0,2 C 0,9.53308 1.538691,8 3.0625,8 L 33,8 36,14 60.9375,14.125 64,32.46875 l 0,-2 L 60.9375,12.125 37,12 34,6 z"
       transform="translate(0,988.3622)"
       id="path3790"
       inkscape:connector-curvature="0"
       sodipodi:nodetypes="sscsccccccccs" />
    <path
       style="fill:replacecolour1;fill-opacity:1;stroke:none"
       d="m 64,1003.5387 0,42.8235 -64,0 0,-40 30,0 3,-6 27.952381,0.1176 c 1.523809,0 3.047619,1.5295 3.047619,3.0589 z"
       id="rect2987"
       inkscape:connector-curvature="0"
       sodipodi:nodetypes="cccccccc" />
    <path
       sodipodi:nodetypes="ccccc"
       id="path3794"
       d="m 0,1044.3622 0,2 64,0 0,-2 z"
       style="opacity:0.15;fill:#000000;fill-opacity:1;stroke:none"
       inkscape:connector-curvature="0" />
    <path
       style="fill:#000000;fill-opacity:1;stroke:none;opacity:0.03"
       d="m 33,12 -3,6 -30,0 0,2 31,0 3,-6 26.9375,0.125 c 1.523809,0 3.0625,1.5331 3.0625,3.0625 l 0,-2 C 64,13.6581 62.461309,12.125 60.9375,12.125 z"
       id="path3015"
       inkscape:connector-curvature="0"
       sodipodi:nodetypes="ccccccccscc"
       transform="translate(0,988.3622)" />
    <path
       transform="translate(2,987.3622)"
       d="m 17,38 a 3,3 0 1 1 -6,0 3,3 0 1 1 6,0 z"
       sodipodi:ry="3"
       sodipodi:rx="3"
       sodipodi:cy="38"
       sodipodi:cx="14"
       id="path3007"
       style="opacity:1.0;fill:replacecolour3;fill-opacity:1;stroke:none"
       sodipodi:type="arc" />
    <path
       style="opacity:1.0;fill:replacecolour3;fill-opacity:1;stroke:none"
       d="m 32,1013.3622 c -2.292014,0 -4.429897,0.6326 -6.25,1.75 l 2.96875,2.9688 c 1.001591,-0.4513 2.11141,-0.7188 3.28125,-0.7188 4.078288,0 7.443689,3.0556 7.9375,7 l 4,0 c -0.162454,-1.9196 -0.761202,-3.7254 -1.71875,-5.2812 -0.375707,0.1693 -0.779895,0.2812 -1.21875,0.2812 -1.656854,0 -3,-1.3431 -3,-3 0,-0.4389 0.111916,-0.843 0.28125,-1.2187 -1.826963,-1.1244 -3.978641,-1.7813 -6.28125,-1.7813 z m -7.84375,2.9688 c -1.878982,1.6382 -3.265889,3.8313 -3.84375,6.3437 0.995283,0.4882 1.6875,1.5041 1.6875,2.6875 0,1.1834 -0.692217,2.1993 -1.6875,2.6875 0.622565,2.7067 2.141743,5.0828 4.25,6.75 l 2.875,-2.875 C 25.362257,1030.4794 24,1028.0829 24,1025.3622 c 0,-2.5103 1.159812,-4.752 2.96875,-6.2187 l -2.8125,-2.8125 z m 15.78125,10.0312 c -0.493811,3.9444 -3.859212,7 -7.9375,7 -0.945788,0 -1.845306,-0.1987 -2.6875,-0.5 l -3.03125,3.0313 c 1.701923,0.9299 3.642787,1.4687 5.71875,1.4687 1.512741,0 2.948232,-0.2704 4.28125,-0.7812 C 36.111916,1036.2052 36,1035.8011 36,1035.3622 c 0,-1.6569 1.343146,-3 3,-3 0.804062,0 1.523858,0.3288 2.0625,0.8438 1.620473,-1.8708 2.659256,-4.2313 2.875,-6.8438 l -4,0 z"
       id="path3030"
       inkscape:connector-curvature="0" />
    <path
       sodipodi:type="arc"
       style="opacity:1.0;fill:replacecolour3;fill-opacity:1;stroke:none"
       id="path3046"
       sodipodi:cx="14"
       sodipodi:cy="38"
       sodipodi:rx="3"
       sodipodi:ry="3"
       d="m 17,38 a 3,3 0 1 1 -6,0 3,3 0 1 1 6,0 z"
       transform="translate(29,976.3622)" />
    <path
       sodipodi:type="arc"
       style="opacity:1.0;fill:replacecolour3;fill-opacity:1;stroke:none"
       id="path3050"
       sodipodi:cx="14"
       sodipodi:cy="38"
       sodipodi:rx="3"
       sodipodi:ry="3"
       d="m 17,38 a 3,3 0 1 1 -6,0 3,3 0 1 1 6,0 z"
       transform="translate(27,999.3622)" />
  </g>
</svg>
