<svg width="64" xmlns="http://www.w3.org/2000/svg" height="64" viewBox="0 0 64 64" xmlns:xlink="http://www.w3.org/1999/xlink">
<g style="stroke:#a57953">
<path style="fill:#a57953" d="M 4.345703 24.5 C 3.886719 24.453125 3.5 23.992188 3.5 23.498047 L 3.5 4.505859 C 3.5 3.980469 3.945312 3.5 4.4375 3.5 L 27.5625 3.5 C 28.054688 3.5 28.5 3.980469 28.5 4.505859 L 28.5 20.742188 C 28.5 21.269531 27.78125 22.025391 27.291016 22.025391 L 18.826172 22.009766 L 18.826172 23.333984 C 18.826172 23.857422 18.414062 24.5 17.925781 24.5 L 4.4375 24.5 C 4.408203 24.5 4.378906 24.5 4.345703 24.5 Z " transform="matrix(2 0 0 2 0 2)"/>
<path style="fill:#e9b080" d="M 1.548828 5.5 C 0.980469 5.546875 0.5 6.007812 0.5 6.501953 L 0.5 25.494141 C 0.5 26.019531 1.052734 26.5 1.662109 26.5 L 30.337891 26.5 C 30.947266 26.5 31.5 26.019531 31.5 25.494141 L 31.5 9.257812 C 31.5 8.730469 30.609375 7.974609 30 7.974609 L 19.503906 7.990234 L 19.503906 6.666016 C 19.503906 6.142578 18.994141 5.5 18.386719 5.5 L 1.662109 5.5 C 1.626953 5.5 1.589844 5.5 1.548828 5.5 Z " transform="matrix(2 0 0 2 0 2)"/>
</g>
<path style="fill:#a57953" d="M 30.425781 26 C 29.871094 26 29.410156 26.445312 29.410156 26.996094 L 29.410156 28.292969 C 29.058594 28.410156 28.71875 28.546875 28.390625 28.710938 L 27.492188 27.808594 C 27.09375 27.414062 26.464844 27.414062 26.078125 27.808594 L 23.808594 30.050781 C 23.414062 30.445312 23.414062 31.074219 23.808594 31.464844 L 24.707031 32.363281 C 24.539062 32.699219 24.414062 33.050781 24.292969 33.410156 L 23.015625 33.410156 C 22.46875 33.410156 22 33.851562 22 34.40625 L 22 37.601562 C 22 38.148438 22.46875 38.597656 23.015625 38.597656 L 24.292969 38.597656 C 24.414062 38.949219 24.539062 39.300781 24.707031 39.636719 L 23.808594 40.535156 C 23.414062 40.933594 23.414062 41.554688 23.808594 41.949219 L 26.078125 44.191406 C 26.464844 44.585938 27.09375 44.585938 27.492188 44.191406 L 28.390625 43.289062 C 28.71875 43.453125 29.058594 43.589844 29.410156 43.707031 L 29.410156 45.003906 C 29.410156 45.5625 29.871094 46 30.425781 46 L 33.597656 46 C 34.152344 46 34.589844 45.5625 34.589844 45.003906 L 34.589844 43.707031 C 34.949219 43.589844 35.300781 43.457031 35.632812 43.289062 L 36.539062 44.191406 C 36.925781 44.585938 37.554688 44.585938 37.945312 44.191406 L 40.214844 41.949219 C 40.609375 41.554688 40.609375 40.933594 40.214844 40.535156 L 39.292969 39.613281 C 39.453125 39.285156 39.589844 38.949219 39.707031 38.597656 L 41.003906 38.597656 C 41.5625 38.597656 42 38.148438 42 37.601562 L 42 34.40625 C 42 33.851562 41.5625 33.410156 41.003906 33.410156 L 39.707031 33.410156 C 39.589844 33.058594 39.453125 32.714844 39.292969 32.394531 L 40.214844 31.464844 C 40.609375 31.074219 40.609375 30.445312 40.214844 30.050781 L 37.945312 27.808594 C 37.554688 27.414062 36.925781 27.414062 36.539062 27.808594 L 35.632812 28.710938 C 35.300781 28.542969 34.949219 28.417969 34.589844 28.292969 L 34.589844 26.996094 C 34.589844 26.445312 34.152344 26 33.597656 26 Z M 32 33.410156 C 33.425781 33.410156 34.589844 34.566406 34.589844 36.003906 C 34.589844 37.433594 33.425781 38.597656 32 38.597656 C 30.574219 38.597656 29.410156 37.433594 29.410156 36.003906 C 29.410156 34.566406 30.574219 33.410156 32 33.410156 Z "/>
</svg>
