<svg width="64" xmlns="http://www.w3.org/2000/svg" height="64" viewBox="0 0 64 64" xmlns:xlink="http://www.w3.org/1999/xlink">
<path style="fill:#dcdcdc;stroke:#777;stroke-linecap:square" d="M 22.013672 -42.527344 L 25.989258 -42.527344 C 26.276367 -42.527344 26.510742 -42.515625 26.510742 -42.500977 L 26.510742 -35.261719 C 26.510742 -35.24707 26.276367 -35.235352 25.989258 -35.235352 L 22.013672 -35.235352 C 21.723633 -35.235352 21.492188 -35.24707 21.492188 -35.261719 L 21.492188 -42.500977 C 21.492188 -42.515625 21.723633 -42.527344 22.013672 -42.527344 Z " transform="scale(1.33333 -1.33333)"/>
<path style="fill:#a77b55;stroke:#a77b55" d="M 5.803711 29.484375 C 5.103516 29.431641 4.511719 28.927734 4.517578 28.385742 L 4.517578 7.605469 C 4.517578 7.02832 5.197266 6.506836 5.944336 6.506836 L 41.132812 6.506836 C 41.879883 6.506836 42.55957 7.02832 42.55957 7.605469 L 42.55957 26.458008 C 42.55957 27.032227 41.879883 27.556641 41.132812 27.556641 L 27.392578 27.556641 L 27.392578 28.385742 C 27.392578 28.959961 26.712891 29.484375 25.96582 29.484375 L 5.944336 29.484375 C 5.897461 29.487305 5.850586 29.487305 5.803711 29.484375 Z " transform="scale(1.33333)"/>
<g style="stroke:#777;stroke-linecap:square;fill:#dcdcdc">
<path d="M 4.918945 40.470703 C 4.678711 40.470703 4.505859 40.646484 4.505859 40.866211 L 4.505859 45.111328 C 4.505859 45.328125 4.678711 45.506836 4.918945 45.506836 L 19.564453 45.506836 C 19.807617 45.506836 20.018555 45.328125 20.018555 45.111328 L 20.018555 40.866211 C 20.018555 40.646484 19.807617 40.470703 19.564453 40.470703 Z M 28.546875 40.470703 C 28.236328 40.470703 27.981445 40.693359 27.981445 40.986328 L 27.981445 44.991211 C 27.981445 45.28125 28.236328 45.506836 28.546875 45.506836 L 42.928711 45.506836 C 43.242188 45.506836 43.494141 45.28125 43.494141 44.991211 L 43.494141 40.986328 C 43.494141 40.693359 43.242188 40.470703 42.928711 40.470703 Z " transform="scale(1.33333)"/>
<path d="M -45.735352 -30.486328 L -40.224609 -30.486328 C -39.826172 -30.486328 -39.500977 -30.202148 -39.500977 -29.856445 L -39.500977 -18.143555 C -39.500977 -17.794922 -39.826172 -17.513672 -40.224609 -17.513672 L -45.735352 -17.513672 C -46.133789 -17.513672 -46.458984 -17.794922 -46.458984 -18.143555 L -46.458984 -29.856445 C -46.458984 -30.202148 -46.133789 -30.486328 -45.735352 -30.486328 Z " transform="matrix(0 -1.33333 -1.33333 0 0 0)"/>
</g>
<path style="fill:#e9b080;stroke:#a77b55" d="M 3.076172 9.298828 C 2.25 9.357422 1.549805 9.931641 1.555664 10.549805 L 1.555664 34.204102 C 1.555664 34.857422 2.358398 35.452148 3.240234 35.452148 L 44.859375 35.452148 C 45.744141 35.452148 46.546875 34.857422 46.546875 34.204102 L 46.546875 12.744141 C 46.546875 12.09082 45.744141 11.493164 44.859375 11.493164 L 28.608398 11.493164 L 28.608398 10.549805 C 28.608398 9.893555 27.805664 9.298828 26.920898 9.298828 L 3.240234 9.298828 C 3.1875 9.295898 3.131836 9.295898 3.076172 9.298828 Z " transform="scale(1.33333)"/>
</svg>
