<svg width="22" xmlns="http://www.w3.org/2000/svg" height="22" viewBox="0 0 22 22" xmlns:xlink="http://www.w3.org/1999/xlink">
<g style="fill:#c0956e">
<path d="M 7.832031 3.703125 C 7.5625 3.734375 7.335938 3.984375 7.339844 4.253906 L 7.339844 8.617188 C 7.339844 8.90625 7.601562 9.167969 7.886719 9.167969 L 14.113281 9.167969 C 14.398438 9.167969 14.660156 8.90625 14.660156 8.617188 L 14.660156 4.253906 C 14.660156 3.964844 14.398438 3.703125 14.113281 3.703125 Z "/>
<path d="M 3.242188 12.871094 C 2.972656 12.898438 2.75 13.152344 2.75 13.421875 L 2.75 17.785156 C 2.75 18.070312 3.011719 18.332031 3.300781 18.332031 L 9.523438 18.332031 C 9.8125 18.332031 10.074219 18.070312 10.074219 17.785156 L 10.074219 13.421875 C 10.074219 13.132812 9.8125 12.871094 9.523438 12.871094 Z "/>
<path d="M 12.410156 12.871094 C 12.140625 12.898438 11.914062 13.152344 11.917969 13.421875 L 11.917969 17.785156 C 11.917969 18.070312 12.179688 18.332031 12.464844 18.332031 L 18.691406 18.332031 C 18.976562 18.332031 19.238281 18.070312 19.238281 17.785156 L 19.238281 13.421875 C 19.238281 13.132812 18.976562 12.871094 18.691406 12.871094 Z "/>
<path d="M 10.542969 9.625 L 10.542969 10.542969 L 5.957031 10.542969 L 5.957031 12.375 L 6.875 12.375 L 6.875 11.457031 L 15.125 11.457031 L 15.125 12.375 L 16.042969 12.375 L 16.042969 10.542969 L 11.457031 10.542969 L 11.457031 9.625 Z "/>
</g>
</svg>
