<svg width="22" xmlns="http://www.w3.org/2000/svg" height="22" viewBox="0 0 22 22" xmlns:xlink="http://www.w3.org/1999/xlink">
<path style="fill:#909ea9" d="M 11 5.042969 C 8.769531 5.042969 7.539062 6.339844 6.976562 7.589844 C 6.585938 8.457031 6.480469 9.292969 6.445312 9.738281 C 4.847656 10.136719 3.667969 11.574219 3.667969 13.292969 C 3.667969 15.316406 5.308594 16.957031 7.332031 16.957031 L 7.332031 10.082031 C 7.332031 10.082031 7.335938 9.019531 7.804688 7.976562 C 8.273438 6.9375 9.105469 5.957031 11 5.957031 C 12.894531 5.957031 13.726562 6.9375 14.195312 7.976562 C 14.664062 9.019531 14.667969 10.082031 14.667969 10.082031 L 14.667969 16.957031 C 16.691406 16.957031 18.332031 15.316406 18.332031 13.292969 C 18.332031 11.574219 17.152344 10.136719 15.554688 9.738281 C 15.519531 9.292969 15.414062 8.457031 15.023438 7.589844 C 14.460938 6.339844 13.230469 5.042969 11 5.042969 Z "/>
</svg>
