<svg width="22" xmlns="http://www.w3.org/2000/svg" height="22" viewBox="0 0 22 22" xmlns:xlink="http://www.w3.org/1999/xlink">
<g style="fill:#909ea9">
<path d="M 11 3.667969 C 7.882812 3.667969 5.230469 5.621094 4.167969 8.363281 C 4.171875 8.359375 4.175781 8.355469 4.183594 8.351562 C 4.195312 8.339844 4.210938 8.332031 4.226562 8.320312 C 4.230469 8.320312 4.234375 8.320312 4.238281 8.320312 C 4.261719 8.3125 4.285156 8.300781 4.3125 8.292969 C 4.316406 8.289062 4.320312 8.285156 4.324219 8.277344 C 4.335938 8.277344 4.34375 8.277344 4.355469 8.277344 C 4.394531 8.265625 4.4375 8.253906 4.484375 8.25 C 4.507812 8.25 4.53125 8.25 4.554688 8.25 C 4.5625 8.246094 4.574219 8.238281 4.582031 8.234375 C 4.601562 8.238281 4.621094 8.246094 4.640625 8.25 L 9.96875 8.25 C 9.941406 8.25 10.007812 8.234375 10.140625 8.25 L 10.15625 8.25 C 10.160156 8.25 10.152344 8.265625 10.15625 8.265625 C 10.429688 8.308594 10.636719 8.515625 10.699219 8.621094 C 10.761719 8.734375 10.769531 8.785156 10.757812 8.75 C 10.832031 8.925781 10.875 9.066406 10.898438 9.152344 C 10.964844 9.367188 11.050781 9.597656 11.144531 9.855469 C 11.261719 9.710938 11.386719 9.558594 11.5 9.425781 C 11.691406 9.199219 11.882812 8.976562 12.074219 8.75 C 12.125 8.6875 12.160156 8.65625 12.175781 8.636719 C 12.175781 8.632812 12.175781 8.628906 12.175781 8.621094 C 12.179688 8.617188 12.273438 8.402344 12.617188 8.292969 C 12.625 8.292969 12.628906 8.292969 12.632812 8.292969 C 12.929688 8.199219 13.105469 8.25 13.148438 8.25 C 13.394531 8.261719 13.660156 8.25 13.949219 8.25 L 15.742188 8.25 C 15.871094 8.25 16.03125 8.25 16.226562 8.265625 C 16.378906 8.277344 16.53125 8.292969 16.6875 8.320312 C 17.109375 8.394531 17.570312 8.53125 17.988281 8.792969 C 17.050781 5.824219 14.28125 3.667969 11 3.667969 Z M 7.761719 9.625 C 7.980469 9.832031 8.171875 10.09375 8.207031 10.441406 C 8.230469 10.660156 8.132812 10.824219 8.078125 11.015625 C 8.140625 10.9375 8.261719 10.855469 8.292969 10.785156 C 8.34375 10.667969 8.367188 10.515625 8.351562 10.339844 C 8.34375 10.277344 8.335938 10.226562 8.320312 10.183594 C 8.320312 10.179688 8.324219 10.175781 8.320312 10.167969 C 8.292969 10.085938 8.25 9.941406 8.25 9.738281 C 8.246094 9.703125 8.246094 9.664062 8.25 9.625 Z M 17.300781 10.027344 C 17.394531 10.234375 17.496094 10.445312 17.488281 10.65625 C 17.484375 10.773438 17.414062 10.851562 17.386719 10.957031 C 17.460938 10.855469 17.585938 10.773438 17.617188 10.671875 C 17.648438 10.566406 17.652344 10.457031 17.632812 10.382812 C 17.609375 10.304688 17.550781 10.199219 17.445312 10.097656 C 17.414062 10.066406 17.339844 10.054688 17.300781 10.027344 Z M 6.34375 10.46875 C 6.296875 10.675781 6.25 10.882812 6.203125 11.085938 C 6.253906 11.070312 6.300781 11.0625 6.359375 11.042969 C 6.460938 11.007812 6.523438 10.992188 6.558594 10.972656 C 6.734375 10.875 6.847656 10.691406 6.847656 10.597656 C 6.84375 10.601562 6.835938 10.589844 6.804688 10.570312 C 6.738281 10.53125 6.589844 10.484375 6.445312 10.46875 C 6.417969 10.464844 6.375 10.46875 6.34375 10.46875 Z M 15.613281 10.5 C 15.601562 10.539062 15.589844 10.609375 15.582031 10.640625 C 15.582031 10.648438 15.582031 10.652344 15.582031 10.65625 C 15.550781 10.796875 15.519531 10.933594 15.484375 11.085938 C 15.527344 11.074219 15.566406 11.074219 15.613281 11.058594 C 15.695312 11.03125 15.777344 10.992188 15.839844 10.957031 C 16.019531 10.855469 16.109375 10.71875 16.113281 10.613281 C 16.113281 10.597656 16.109375 10.589844 16.113281 10.585938 C 16.121094 10.59375 16.074219 10.550781 15.941406 10.511719 C 15.859375 10.492188 15.707031 10.507812 15.613281 10.5 Z M 4.828125 10.757812 C 4.730469 11.160156 4.636719 11.566406 4.539062 11.972656 L 4.640625 11.972656 C 4.617188 11.875 4.617188 11.773438 4.640625 11.671875 C 4.714844 11.367188 4.796875 11.0625 4.871094 10.757812 Z M 14.109375 10.757812 C 14.082031 10.875 14.050781 10.992188 14.023438 11.113281 C 13.953125 11.394531 13.875 11.679688 13.808594 11.960938 L 13.921875 11.960938 C 13.90625 11.875 13.90625 11.785156 13.921875 11.703125 C 13.988281 11.382812 14.066406 11.070312 14.136719 10.769531 C 14.136719 10.765625 14.136719 10.761719 14.136719 10.757812 Z M 10.457031 11.84375 C 10.492188 11.949219 10.53125 12.054688 10.570312 12.160156 C 10.574219 12.175781 10.578125 12.1875 10.585938 12.203125 C 10.648438 12.132812 10.707031 12.058594 10.769531 11.988281 C 10.621094 11.957031 10.523438 11.914062 10.457031 11.84375 Z M 9.066406 12.046875 C 8.8125 12.316406 8.527344 12.527344 8.25 12.691406 C 7.722656 13 7.148438 13.1875 6.574219 13.277344 C 6.261719 13.328125 5.953125 13.347656 5.65625 13.347656 C 5.652344 13.347656 5.648438 13.347656 5.644531 13.347656 C 5.347656 13.347656 5.050781 13.347656 4.769531 13.347656 L 4.054688 13.347656 C 5.035156 16.246094 7.773438 18.332031 11 18.332031 C 14.648438 18.332031 17.667969 15.664062 18.234375 12.175781 C 18.117188 12.285156 17.992188 12.386719 17.859375 12.476562 C 17.617188 12.636719 17.34375 12.800781 17.03125 12.933594 C 16.738281 13.058594 16.4375 13.152344 16.128906 13.21875 C 15.457031 13.363281 14.832031 13.335938 14.28125 13.335938 L 12.949219 13.335938 C 12.753906 13.335938 12.570312 13.253906 12.441406 13.113281 C 12.308594 12.972656 12.246094 12.78125 12.261719 12.589844 C 12.273438 12.445312 12.308594 12.390625 12.332031 12.304688 C 12.050781 12.621094 11.765625 12.941406 11.472656 13.261719 C 11.285156 13.472656 11.109375 13.652344 10.957031 13.835938 C 10.949219 13.847656 10.9375 13.855469 10.929688 13.863281 C 10.929688 13.871094 10.929688 13.875 10.929688 13.878906 C 10.921875 13.882812 10.917969 13.886719 10.914062 13.894531 C 10.910156 13.902344 10.902344 13.902344 10.898438 13.90625 C 10.890625 13.917969 10.882812 13.925781 10.871094 13.9375 C 10.871094 13.9375 10.871094 13.949219 10.871094 13.949219 C 10.863281 13.960938 10.851562 13.96875 10.84375 13.980469 C 10.835938 13.984375 10.832031 13.988281 10.828125 13.992188 C 10.8125 14.007812 10.800781 14.023438 10.785156 14.035156 C 10.753906 14.0625 10.71875 14.085938 10.683594 14.109375 C 10.652344 14.125 10.621094 14.140625 10.585938 14.152344 C 10.546875 14.167969 10.507812 14.183594 10.46875 14.195312 C 10.425781 14.203125 10.382812 14.207031 10.339844 14.207031 C 10.398438 14.207031 10.457031 14.296875 10.082031 14.164062 C 9.898438 14.097656 9.726562 13.894531 9.683594 13.792969 C 9.640625 13.703125 9.644531 13.671875 9.640625 13.648438 C 9.640625 13.648438 9.640625 13.636719 9.640625 13.636719 C 9.636719 13.628906 9.640625 13.625 9.640625 13.621094 C 9.632812 13.617188 9.628906 13.613281 9.625 13.605469 C 9.617188 13.578125 9.609375 13.527344 9.582031 13.464844 C 9.464844 13.167969 9.359375 12.878906 9.265625 12.617188 C 9.199219 12.425781 9.132812 12.238281 9.066406 12.046875 Z "/>
<path d="M 4.554688 8.941406 L 9.964844 8.941406 C 9.996094 8.941406 10.03125 8.9375 10.066406 8.941406 C 10.105469 8.945312 10.117188 8.996094 10.128906 9.027344 C 10.175781 9.132812 10.203125 9.242188 10.238281 9.351562 C 10.316406 9.617188 10.421875 9.878906 10.515625 10.140625 C 10.609375 10.410156 10.691406 10.683594 10.773438 10.957031 C 10.808594 11.082031 10.839844 11.203125 10.851562 11.332031 C 10.851562 11.347656 10.867188 11.367188 10.878906 11.367188 C 10.886719 11.34375 10.894531 11.320312 10.90625 11.296875 C 10.933594 11.246094 10.96875 11.195312 11 11.144531 C 11.070312 11.050781 11.148438 10.957031 11.21875 10.863281 C 11.300781 10.757812 11.378906 10.648438 11.464844 10.542969 C 11.644531 10.316406 11.835938 10.101562 12.023438 9.878906 C 12.214844 9.652344 12.40625 9.425781 12.597656 9.199219 C 12.636719 9.148438 12.679688 9.101562 12.71875 9.050781 C 12.75 9.011719 12.78125 8.964844 12.832031 8.949219 C 12.921875 8.921875 13.027344 8.9375 13.121094 8.9375 C 13.398438 8.949219 13.675781 8.945312 13.957031 8.945312 L 14.84375 8.945312 C 15.140625 8.945312 15.4375 8.945312 15.734375 8.945312 C 15.878906 8.945312 16.027344 8.9375 16.171875 8.949219 C 16.304688 8.960938 16.4375 8.976562 16.570312 9 C 17.0625 9.085938 17.5625 9.265625 17.921875 9.613281 C 18.09375 9.777344 18.230469 9.980469 18.292969 10.210938 C 18.355469 10.425781 18.34375 10.652344 18.28125 10.863281 C 18.152344 11.292969 17.84375 11.664062 17.476562 11.910156 C 17.246094 12.0625 17.015625 12.203125 16.761719 12.3125 C 16.511719 12.421875 16.253906 12.503906 15.988281 12.558594 C 15.425781 12.679688 14.851562 12.660156 14.28125 12.660156 L 12.949219 12.660156 C 12.960938 12.523438 13.007812 12.394531 13.039062 12.261719 C 13.070312 12.121094 13.105469 11.976562 13.140625 11.832031 C 13.210938 11.542969 13.277344 11.253906 13.347656 10.960938 C 13.386719 10.796875 13.425781 10.632812 13.460938 10.464844 C 13.480469 10.386719 13.5 10.308594 13.519531 10.230469 C 13.53125 10.1875 13.539062 10.128906 13.570312 10.09375 C 13.582031 10.078125 13.617188 10.074219 13.636719 10.070312 C 13.683594 10.066406 13.730469 10.066406 13.773438 10.066406 C 13.882812 10.070312 13.988281 10.074219 14.09375 10.074219 L 15.007812 10.074219 C 14.992188 10.214844 14.949219 10.351562 14.914062 10.492188 C 14.878906 10.636719 14.84375 10.789062 14.808594 10.9375 C 14.738281 11.238281 14.664062 11.539062 14.597656 11.84375 C 14.871094 11.84375 15.144531 11.851562 15.417969 11.816406 C 15.554688 11.796875 15.699219 11.757812 15.832031 11.710938 C 15.953125 11.671875 16.070312 11.625 16.179688 11.5625 C 16.519531 11.371094 16.789062 11.039062 16.804688 10.640625 C 16.8125 10.472656 16.765625 10.300781 16.660156 10.167969 C 16.527344 10 16.328125 9.910156 16.128906 9.855469 C 15.628906 9.714844 15.09375 9.765625 14.582031 9.769531 C 14.433594 9.769531 14.285156 9.769531 14.136719 9.773438 C 14.066406 9.773438 13.996094 9.773438 13.921875 9.773438 C 13.851562 9.773438 13.769531 9.765625 13.695312 9.777344 C 13.636719 9.789062 13.59375 9.859375 13.554688 9.902344 C 13.503906 9.960938 13.453125 10.019531 13.398438 10.078125 C 13.300781 10.1875 13.199219 10.300781 13.097656 10.410156 C 12.699219 10.855469 12.304688 11.304688 11.90625 11.75 C 11.589844 12.105469 11.28125 12.460938 10.964844 12.808594 C 10.773438 13.019531 10.574219 13.226562 10.390625 13.449219 C 10.375 13.46875 10.347656 13.492188 10.339844 13.519531 C 10.339844 13.519531 10.339844 13.523438 10.339844 13.523438 C 10.316406 13.523438 10.316406 13.53125 10.3125 13.507812 C 10.304688 13.476562 10.296875 13.445312 10.285156 13.414062 C 10.265625 13.347656 10.242188 13.285156 10.214844 13.21875 C 10.109375 12.949219 10.019531 12.671875 9.921875 12.398438 C 9.71875 11.832031 9.519531 11.269531 9.320312 10.703125 C 9.257812 10.53125 9.191406 10.355469 9.132812 10.183594 C 9.101562 10.097656 9.070312 10.015625 9.039062 9.929688 C 9.023438 9.886719 9 9.75 8.933594 9.75 C 8.933594 9.832031 8.957031 9.902344 8.980469 9.976562 C 9.011719 10.078125 9.027344 10.179688 9.039062 10.285156 C 9.0625 10.550781 9.035156 10.816406 8.933594 11.0625 C 8.742188 11.515625 8.320312 11.863281 7.902344 12.109375 C 7.464844 12.367188 6.972656 12.527344 6.46875 12.609375 C 6.199219 12.652344 5.929688 12.667969 5.652344 12.664062 C 5.359375 12.664062 5.066406 12.660156 4.773438 12.660156 L 3.667969 12.660156 C 3.667969 12.59375 3.695312 12.523438 3.714844 12.457031 C 3.75 12.316406 3.78125 12.175781 3.816406 12.035156 C 3.953125 11.457031 4.09375 10.878906 4.234375 10.300781 C 4.246094 10.234375 4.261719 10.171875 4.277344 10.109375 C 4.285156 10.085938 4.277344 10.074219 4.304688 10.074219 L 5.738281 10.074219 C 5.597656 10.664062 5.457031 11.253906 5.316406 11.84375 C 5.601562 11.84375 5.886719 11.859375 6.164062 11.8125 C 6.304688 11.789062 6.441406 11.75 6.578125 11.703125 C 6.683594 11.667969 6.792969 11.628906 6.890625 11.574219 C 7.265625 11.363281 7.570312 10.960938 7.523438 10.519531 C 7.472656 10.023438 6.945312 9.839844 6.515625 9.792969 C 6.257812 9.765625 5.996094 9.769531 5.734375 9.769531 C 5.4375 9.769531 5.140625 9.769531 4.839844 9.769531 L 4.429688 9.769531 C 4.410156 9.769531 4.355469 9.78125 4.355469 9.761719 C 4.355469 9.707031 4.382812 9.644531 4.394531 9.59375 C 4.449219 9.378906 4.503906 9.160156 4.554688 8.945312 "/>
</g>
</svg>
