<?xml version="1.0" encoding="UTF-8" standalone="no"?>
<svg
   xmlns:dc="http://purl.org/dc/elements/1.1/"
   xmlns:cc="http://creativecommons.org/ns#"
   xmlns:rdf="http://www.w3.org/1999/02/22-rdf-syntax-ns#"
   xmlns:svg="http://www.w3.org/2000/svg"
   xmlns="http://www.w3.org/2000/svg"
   xmlns:sodipodi="http://sodipodi.sourceforge.net/DTD/sodipodi-0.dtd"
   xmlns:inkscape="http://www.inkscape.org/namespaces/inkscape"
   viewBox="0 0 22 22"
   id="svg2"
   version="1.1"
   inkscape:version="0.91 r"
   sodipodi:docname="xfce-utils.svg"
   width="22"
   height="22">
  <metadata
     id="metadata76">
    <rdf:RDF>
      <cc:Work
         rdf:about="">
        <dc:format>image/svg+xml</dc:format>
        <dc:type
           rdf:resource="http://purl.org/dc/dcmitype/StillImage" />
        <dc:title />
      </cc:Work>
    </rdf:RDF>
  </metadata>
  <defs
     id="defs74" />
  <sodipodi:namedview
     pagecolor="#ffffff"
     bordercolor="#666666"
     borderopacity="1"
     objecttolerance="10"
     gridtolerance="10"
     guidetolerance="10"
     inkscape:pageopacity="0"
     inkscape:pageshadow="2"
     inkscape:window-width="1920"
     inkscape:window-height="1056"
     id="namedview72"
     showgrid="true"
     inkscape:zoom="11.313708"
     inkscape:cx="13.360918"
     inkscape:cy="20.150391"
     inkscape:window-x="0"
     inkscape:window-y="24"
     inkscape:window-maximized="1"
     inkscape:current-layer="svg2">
    <inkscape:grid
       type="xygrid"
       id="grid4204" />
  </sodipodi:namedview>
  <g
     id="g4144"
     transform="matrix(0.43301271,0.25,-0.25,0.43301271,3.3749867,-4.3834711)">
    <path
       inkscape:connector-curvature="0"
       id="path4206"
       d="m 18.051787,5.786943 c -0.31478,-5e-7 -0.568193,0.2534148 -0.568195,0.5681946 l 0,0.9677052 C 16.367729,7.5472752 15.342644,8.0063777 14.427328,8.6168173 L 13.723745,7.9132324 c -0.222584,-0.2225817 -0.58088,-0.222582 -0.803464,0 l -1.606924,1.606925 c -0.222585,0.2225821 -0.222585,0.5808786 0,0.8034616 l 0.703583,0.703586 c -0.60905,0.91553 -1.065099,1.941395 -1.289533,3.056264 l -0.9699265,0 c -0.3147796,0 -0.5681967,0.253411 -0.5681941,0.568193 l -8e-7,2.272779 c -10e-8,0.31478 0.2534112,0.568198 0.5681948,0.568195 l 0.9854606,0 c 0.226847,1.112733 0.650949,2.155362 1.260684,3.06958 l -0.690268,0.690267 c -0.222586,0.22258 -0.222585,0.580879 0,0.803464 l 1.606924,1.606924 c 0.22258,0.222585 0.580879,0.222584 0.803463,0 l 0.692486,-0.692487 c 0.916558,0.6107 1.950889,1.05834 3.067361,1.282876 l 0,0.965488 c 0,0.31478 0.253411,0.568196 0.568195,0.568194 l 2.272777,0 c 0.31478,0 0.568198,-0.253412 0.568196,-0.568195 l 0,-0.985461 c 1.112735,-0.226847 2.155362,-0.650949 3.069582,-1.260684 l 0.690267,0.690269 c 0.22258,0.222586 0.58088,0.222584 0.803461,0 l 1.606927,-1.606924 c 0.222583,-0.222579 0.222582,-0.580879 -10e-7,-0.803464 l -0.692487,-0.692486 c 0.610699,-0.916558 1.058341,-1.950889 1.282876,-3.067361 l 0.967708,0 c 0.314781,-2e-6 0.568195,-0.253411 0.568194,-0.568195 l 0,-2.272778 c 1e-6,-0.314778 -0.253412,-0.568196 -0.568194,-0.568194 l -0.987684,0 c -0.226805,-1.113002 -0.650829,-2.15518 -1.260682,-3.06958 l 0.690269,-0.69027 c 0.222585,-0.22258 0.222583,-0.5808795 10e-7,-0.8034616 l -1.606927,-1.606925 c -0.222579,-0.2225836 -0.580877,-0.2225823 -0.803461,0 L 23.96012,8.6057205 C 23.043559,7.9950171 22.009258,7.5474025 20.892759,7.3228433 l -1e-6,-0.9677061 c 0,-0.3147797 -0.253411,-0.5681968 -0.568193,-0.568195 l -2.272778,8e-7 z m 1.136388,2.7277766 c 4.02499,-1.1e-6 7.273333,3.2483414 7.273333,7.2733324 -10e-7,4.024988 -3.248345,7.273332 -7.273333,7.273332 -4.024987,0 -7.273331,-3.248344 -7.273331,-7.273332 -1e-6,-4.024989 3.248344,-7.2733324 7.273331,-7.2733324 z"
       style="color:#000000;font-style:normal;font-variant:normal;font-weight:normal;font-stretch:normal;font-size:medium;line-height:normal;font-family:sans-serif;text-indent:0;text-align:start;text-decoration:none;text-decoration-line:none;text-decoration-style:solid;text-decoration-color:#000000;letter-spacing:normal;word-spacing:normal;text-transform:none;direction:ltr;block-progression:tb;writing-mode:lr-tb;baseline-shift:baseline;text-anchor:start;white-space:normal;clip-rule:nonzero;display:inline;overflow:visible;visibility:visible;opacity:1;isolation:auto;mix-blend-mode:normal;color-interpolation:sRGB;color-interpolation-filters:linearRGB;solid-color:#000000;solid-opacity:1;fill:#6891b8;fill-opacity:1;fill-rule:nonzero;stroke:none;stroke-width:1.20000005;stroke-linecap:square;stroke-linejoin:miter;stroke-miterlimit:4;stroke-dasharray:none;stroke-dashoffset:0;stroke-opacity:1;color-rendering:auto;image-rendering:auto;shape-rendering:auto;text-rendering:auto;enable-background:accumulate" />
    <circle
       transform="matrix(0.8660254,-0.5,0.5,0.8660254,0,0)"
       r="1.9886804"
       cy="23.266941"
       cx="8.7234201"
       id="path4384"
       style="opacity:1;fill:#6891b8;fill-opacity:1;fill-rule:nonzero;stroke:none;stroke-width:1.20000005;stroke-linecap:square;stroke-linejoin:miter;stroke-miterlimit:4;stroke-dasharray:none;stroke-dashoffset:0;stroke-opacity:1" />
  </g>
  <g
     id="g4442"
     transform="matrix(0.56817116,0,0,0.56817116,8.3903729,0.48780846)">
    <path
       inkscape:connector-curvature="0"
       id="path4206-9"
       d="m 15.829122,18.148316 c -0.195868,-0.195869 -0.511237,-0.195872 -0.707107,0 L 14.51987,18.750461 C 13.685884,18.195777 12.762363,17.8436 11.812976,17.653894 l 10e-7,-0.875597 c 3e-6,-0.276999 -0.222947,-0.499946 -0.499947,-0.499947 l -1.9997864,0 c -0.277,-3e-6 -0.499947,0.222946 -0.499946,0.499947 l -1e-6,0.875596 c -0.948656,0.190705 -1.87076,0.545267 -2.704131,1.099331 l -0.603527,-0.603527 c -0.195868,-0.195868 -0.511237,-0.195872 -0.707105,0 l -1.414215,1.414213 c -0.195869,0.195869 -0.195872,0.511238 0,0.707107 l 0.613194,0.613195 c -0.551235,0.83354 -0.936107,1.746199 -1.125569,2.694463 l -0.859025,0 c -0.277,-3e-6 -0.499947,0.222946 -0.499947,0.499947 l 0,1.999785 c -2e-6,0.277 0.222946,0.499947 0.499947,0.499947 l 0.861787,0 c 0.190316,0.950321 0.555379,1.872463 1.110377,2.706893 l -0.600765,0.600765 c -0.195868,0.195869 -0.195872,0.511237 10e-7,0.707106 l 1.414214,1.414214 c 0.195868,0.195869 0.511237,0.195872 0.707106,1e-6 l 0.613195,-0.613195 c 0.833541,0.551235 1.7462,0.936107 2.694465,1.125571 l -10e-7,0.859024 c -3e-6,0.277 0.222946,0.499947 0.499945,0.499946 l 1.9997874,1e-6 c 0.276999,2e-6 0.499946,-0.222947 0.499947,-0.499948 l 0,-0.861785 c 0.95032,-0.190318 1.872463,-0.555379 2.706892,-1.110379 l 0.602147,0.602146 c 0.19587,0.195869 0.511237,0.195872 0.707106,0 L 17.243336,30.5945 c 0.195868,-0.195868 0.195872,-0.511237 0,-0.707106 L 16.62876,29.272818 c 0.551427,-0.833682 0.936068,-1.746012 1.12557,-2.694464 l 0.859025,0 c 0.277,3e-6 0.499947,-0.222947 0.499947,-0.499946 l 0,-1.999787 c 2e-6,-0.276998 -0.222946,-0.499945 -0.499947,-0.499946 l -0.861786,0 C 17.561251,22.62835 17.196191,21.706242 16.64119,20.871782 l 0.602145,-0.602146 c 0.195869,-0.195869 0.195872,-0.511238 1e-6,-0.707107 l -1.414214,-1.414213 z m -0.990225,2.404438 c 2.50451,2.50451 2.50451,6.54701 0,9.05152 -2.50451,2.50451 -6.5470104,2.50451 -9.0515204,0 -2.504509,-2.504509 -2.504509,-6.547009 0,-9.051518 2.50451,-2.504511 6.5470114,-2.50451 9.0515204,-2e-6 z"
       style="color:#000000;font-style:normal;font-variant:normal;font-weight:normal;font-stretch:normal;font-size:medium;line-height:normal;font-family:sans-serif;text-indent:0;text-align:start;text-decoration:none;text-decoration-line:none;text-decoration-style:solid;text-decoration-color:#000000;letter-spacing:normal;word-spacing:normal;text-transform:none;direction:ltr;block-progression:tb;writing-mode:lr-tb;baseline-shift:baseline;text-anchor:start;white-space:normal;clip-rule:nonzero;display:inline;overflow:visible;visibility:visible;opacity:1;isolation:auto;mix-blend-mode:normal;color-interpolation:sRGB;color-interpolation-filters:linearRGB;solid-color:#000000;solid-opacity:1;fill:#6891b8;fill-opacity:1;fill-rule:nonzero;stroke:none;stroke-width:1.20000005;stroke-linecap:square;stroke-linejoin:miter;stroke-miterlimit:4;stroke-dasharray:none;stroke-dashoffset:0;stroke-opacity:1;color-rendering:auto;image-rendering:auto;shape-rendering:auto;text-rendering:auto;enable-background:accumulate" />
    <circle
       transform="matrix(0.96592583,0.25881905,-0.25881905,0.96592583,0,0)"
       r="1.75"
       cy="21.554749"
       cx="16.452524"
       id="path4384-0"
       style="opacity:1;fill:#6891b8;fill-opacity:1;fill-rule:nonzero;stroke:none;stroke-width:1.20000005;stroke-linecap:square;stroke-linejoin:miter;stroke-miterlimit:4;stroke-dasharray:none;stroke-dashoffset:0;stroke-opacity:1" />
  </g>
</svg>
