<?xml version="1.0" encoding="UTF-8" standalone="no"?>
<svg
   xmlns:dc="http://purl.org/dc/elements/1.1/"
   xmlns:cc="http://creativecommons.org/ns#"
   xmlns:rdf="http://www.w3.org/1999/02/22-rdf-syntax-ns#"
   xmlns:svg="http://www.w3.org/2000/svg"
   xmlns="http://www.w3.org/2000/svg"
   xmlns:sodipodi="http://sodipodi.sourceforge.net/DTD/sodipodi-0.dtd"
   xmlns:inkscape="http://www.inkscape.org/namespaces/inkscape"
   width="24"
   height="24"
   viewBox="0 0 24 24"
   id="svg2"
   version="1.1"
   inkscape:version="0.91 r"
   sodipodi:docname="applications-graphics.svg">
  <metadata
     id="metadata16">
    <rdf:RDF>
      <cc:Work
         rdf:about="">
        <dc:format>image/svg+xml</dc:format>
        <dc:type
           rdf:resource="http://purl.org/dc/dcmitype/StillImage" />
        <dc:title />
      </cc:Work>
    </rdf:RDF>
  </metadata>
  <defs
     id="defs14" />
  <sodipodi:namedview
     pagecolor="#ffffff"
     bordercolor="#666666"
     borderopacity="1"
     objecttolerance="10"
     gridtolerance="10"
     guidetolerance="10"
     inkscape:pageopacity="0"
     inkscape:pageshadow="2"
     inkscape:window-width="1920"
     inkscape:window-height="1056"
     id="namedview12"
     showgrid="false"
     inkscape:zoom="10.727273"
     inkscape:cx="11"
     inkscape:cy="11"
     inkscape:window-x="0"
     inkscape:window-y="24"
     inkscape:window-maximized="1"
     inkscape:current-layer="svg2" />
  <g
     style="fill:#4ea34d"
     id="g4"
     transform="translate(0.99903945,0.99983982)">
    <path
       d="M 10.824219,7.480469 C 7.335938,7.632812 3.941406,9.335938 5.382812,12.78125 c 2.101563,-0.792969 5.027344,0.386719 3.8125,0.972656 2.394532,1.972656 8.3125,-1.214844 7.722657,-3.921875 -0.609375,-1.652343 -3.378907,-2.472656 -6.09375,-2.351562 z m -0.09375,0.972656 c 0.726562,0 1.316406,0.195313 1.316406,0.433594 0,0.238281 -0.589844,0.433593 -1.316406,0.433593 -0.726563,0 -1.316407,-0.195312 -1.316407,-0.433593 0,-0.238281 0.589844,-0.433594 1.316407,-0.433594 z m 3.257812,0.71875 c 0.726563,0 1.316407,0.195313 1.316407,0.433594 0,0.238281 -0.589844,0.433593 -1.316407,0.433593 -0.730469,0 -1.320312,-0.195312 -1.320312,-0.433593 0,-0.238281 0.589843,-0.433594 1.320312,-0.433594 z M 8,9.832031 c 0.730469,0 1.320312,0.191407 1.320312,0.433594 0,0.238281 -0.589843,0.433594 -1.320312,0.433594 -0.726562,0 -1.316406,-0.195313 -1.316406,-0.433594 0,-0.242187 0.589844,-0.433594 1.316406,-0.433594 z m 5.957031,1.136719 c 0.726563,0 1.316407,0.195312 1.316407,0.433594 0,0.238281 -0.589844,0.433594 -1.316407,0.433594 -0.730469,0 -1.320312,-0.195313 -1.320312,-0.433594 0,-0.238282 0.589843,-0.433594 1.320312,-0.433594 z m -2.296875,1.648438 c 0.730469,0 1.320313,0.191406 1.320313,0.433593 0,0.238281 -0.589844,0.433594 -1.320313,0.433594 -0.726562,0 -1.316406,-0.195313 -1.316406,-0.433594 0,-0.242187 0.589844,-0.433593 1.316406,-0.433593 z"
       id="path6"
       inkscape:connector-curvature="0" />
    <path
       d="m 15.796875,4.175781 -6.46875,10.820313 c -0.503906,-0.01172 -0.976563,-0.25 -1.3125,-0.734375 l 6.929687,-10.5625 c 0.464844,-0.109375 0.75,0.050781 0.851563,0.476562 z"
       id="path8"
       inkscape:connector-curvature="0" />
    <path
       d="M 7.976562,16.875 C 8.703125,16.78125 9.824219,15.855469 9.300781,14.515625 8.042969,14.15625 8.328125,13.972656 8.328125,13.972656 6.601562,14.386719 5.289062,16.363281 5.648438,17.617188 5.878906,18.414062 5.839844,18.332031 5.839844,18.332031 6.320312,16.792969 6.328125,17.074219 7.976562,16.875 Z"
       id="path10"
       inkscape:connector-curvature="0" />
  </g>
</svg>
