<?xml version="1.0" encoding="UTF-8" standalone="no"?>
<svg
   xmlns:dc="http://purl.org/dc/elements/1.1/"
   xmlns:cc="http://creativecommons.org/ns#"
   xmlns:rdf="http://www.w3.org/1999/02/22-rdf-syntax-ns#"
   xmlns:svg="http://www.w3.org/2000/svg"
   xmlns="http://www.w3.org/2000/svg"
   xmlns:sodipodi="http://sodipodi.sourceforge.net/DTD/sodipodi-0.dtd"
   xmlns:inkscape="http://www.inkscape.org/namespaces/inkscape"
   width="22"
   height="22"
   viewBox="0 0 22 22"
   id="svg2"
   version="1.1"
   inkscape:version="0.91 r"
   sodipodi:docname="applications-java.svg">
  <metadata
     id="metadata26">
    <rdf:RDF>
      <cc:Work
         rdf:about="">
        <dc:format>image/svg+xml</dc:format>
        <dc:type
           rdf:resource="http://purl.org/dc/dcmitype/StillImage" />
      </cc:Work>
    </rdf:RDF>
  </metadata>
  <defs
     id="defs24" />
  <sodipodi:namedview
     pagecolor="#ffffff"
     bordercolor="#666666"
     borderopacity="1"
     objecttolerance="10"
     gridtolerance="10"
     guidetolerance="10"
     inkscape:pageopacity="0"
     inkscape:pageshadow="2"
     inkscape:window-width="1920"
     inkscape:window-height="1056"
     id="namedview22"
     showgrid="false"
     inkscape:zoom="10.727273"
     inkscape:cx="11"
     inkscape:cy="11"
     inkscape:window-x="0"
     inkscape:window-y="24"
     inkscape:window-maximized="1"
     inkscape:current-layer="svg2" />
  <g
     style="fill:#e660c1;fill-rule:evenodd"
     id="g4"
     transform="matrix(1.1157829,0,0,1.1157829,-1.1470088,-1.1463554)">
    <path
       d="m 8.652344,15.535156 c 0,0 -0.648438,0.375 0.460937,0.507813 1.351563,0.152343 2.039063,0.128906 3.523438,-0.152344 0,0 0.394531,0.246094 0.9375,0.457031 -3.332031,1.429688 -7.535157,-0.08203 -4.921875,-0.8125"
       id="path6"
       inkscape:connector-curvature="0" />
    <path
       d="m 8.246094,13.671875 c 0,0 -0.730469,0.542969 0.386718,0.65625 1.4375,0.148437 2.574219,0.160156 4.542969,-0.21875 0,0 0.273438,0.277344 0.699219,0.425781 -4.027344,1.175782 -8.511719,0.09375 -5.628906,-0.863281"
       id="path8"
       inkscape:connector-curvature="0" />
    <path
       d="m 11.675781,10.515625 c 0.820313,0.941406 -0.214843,1.792969 -0.214843,1.792969 0,0 2.082031,-1.078125 1.125,-2.421875 -0.894532,-1.257813 -1.578126,-1.878907 2.132812,-4.03125 0,0 -5.824219,1.453125 -3.042969,4.660156"
       id="path10"
       inkscape:connector-curvature="0" />
    <path
       d="m 16.078125,16.914062 c 0,0 0.484375,0.394532 -0.527344,0.699219 -1.921875,0.582031 -8,0.761719 -9.6875,0.02344 C 5.257812,17.375 6.394531,17.007812 6.75,16.929688 c 0.375,-0.08203 0.589844,-0.0625 0.589844,-0.0625 -0.675782,-0.480469 -4.363282,0.929687 -1.875,1.335937 6.789062,1.097656 12.375,-0.496094 10.613281,-1.289063"
       id="path12"
       inkscape:connector-curvature="0" />
    <path
       d="m 8.964844,11.742188 c 0,0 -3.089844,0.734374 -1.09375,1.003906 0.84375,0.109375 2.523437,0.08594 4.089844,-0.04687 1.277343,-0.105469 2.5625,-0.335938 2.5625,-0.335938 0,0 -0.453126,0.195313 -0.777344,0.414063 C 10.609375,13.605469 4.542969,13.21875 6.289062,12.375 7.765625,11.660156 8.964844,11.742188 8.964844,11.742188"
       id="path14"
       inkscape:connector-curvature="0" />
    <path
       d="m 14.511719,14.84375 c 3.191406,-1.660156 1.714843,-3.253906 0.6875,-3.039062 -0.253907,0.05469 -0.367188,0.09766 -0.367188,0.09766 0,0 0.09375,-0.144532 0.273438,-0.210938 2.039062,-0.714844 3.605469,2.113282 -0.65625,3.234375 0,0 0.04687,-0.04297 0.0625,-0.08203"
       id="path16"
       inkscape:connector-curvature="0" />
    <path
       d="m 12.585938,2.382812 c 0,0 1.769531,1.765626 -1.675782,4.484376 -2.757812,2.179687 -0.628906,3.425781 0,4.84375 -1.613281,-1.453126 -2.796875,-2.730469 -2,-3.925782 1.164063,-1.746094 4.390625,-2.59375 3.675782,-5.402344"
       id="path18"
       inkscape:connector-curvature="0" />
    <path
       d="m 9.277344,19.335938 c 3.066406,0.195312 7.769531,-0.109376 7.882812,-1.558594 0,0 -0.214844,0.550781 -2.535156,0.984375 -2.613281,0.492187 -5.839844,0.4375 -7.75,0.121093 0,0 0.390625,0.324219 2.402344,0.453126"
       id="path20"
       inkscape:connector-curvature="0" />
  </g>
</svg>
