<?xml version="1.0" encoding="UTF-8" standalone="no"?>
<svg
   xmlns:dc="http://purl.org/dc/elements/1.1/"
   xmlns:cc="http://creativecommons.org/ns#"
   xmlns:rdf="http://www.w3.org/1999/02/22-rdf-syntax-ns#"
   xmlns:svg="http://www.w3.org/2000/svg"
   xmlns="http://www.w3.org/2000/svg"
   xmlns:sodipodi="http://sodipodi.sourceforge.net/DTD/sodipodi-0.dtd"
   xmlns:inkscape="http://www.inkscape.org/namespaces/inkscape"
   viewBox="0 0 22 22"
   id="svg2"
   version="1.1"
   inkscape:version="0.91 r"
   sodipodi:docname="applications-utilities.svg"
   width="22"
   height="22">
  <metadata
     id="metadata20">
    <rdf:RDF>
      <cc:Work
         rdf:about="">
        <dc:format>image/svg+xml</dc:format>
        <dc:type
           rdf:resource="http://purl.org/dc/dcmitype/StillImage" />
        <dc:title />
      </cc:Work>
    </rdf:RDF>
  </metadata>
  <defs
     id="defs18" />
  <sodipodi:namedview
     pagecolor="#ffffff"
     bordercolor="#666666"
     borderopacity="1"
     objecttolerance="10"
     gridtolerance="10"
     guidetolerance="10"
     inkscape:pageopacity="0"
     inkscape:pageshadow="2"
     inkscape:window-width="1920"
     inkscape:window-height="1056"
     id="namedview16"
     showgrid="true"
     inkscape:zoom="16"
     inkscape:cx="8.6944717"
     inkscape:cy="19.978244"
     inkscape:window-x="0"
     inkscape:window-y="24"
     inkscape:window-maximized="1"
     inkscape:current-layer="svg2">
    <inkscape:grid
       type="xygrid"
       id="grid4148" />
  </sodipodi:namedview>
  <g
     transform="matrix(0.50704483,0,0,0.50690683,-1.0578981,-510.39296)"
     id="g4">
    <path
       style="fill:none;stroke:#308b97;stroke-width:1.97246277;stroke-miterlimit:4;stroke-dasharray:none"
       d="m 38.572117,1028.5775 a 14.791384,14.791383 0 1 1 -29.5827667,0 14.791384,14.791383 0 1 1 29.5827667,0 z"
       id="path6"
       inkscape:connector-curvature="0" />
  </g>
  <path
     style="fill:#308b97"
     inkscape:connector-curvature="0"
     id="path10"
     d="m 8.2500245,10.999985 c 0,0.690349 -0.559639,1.249989 -1.249989,1.249989 -0.690349,0 -1.249988,-0.55964 -1.249988,-1.249989 0,-0.69035 0.559639,-1.2499889 1.249988,-1.2499889 0.69035,0 1.249989,0.5596389 1.249989,1.2499889 z" />
  <path
     style="fill:#308b97"
     inkscape:connector-curvature="0"
     id="path12"
     d="m 12.249986,10.999985 c 0,0.690349 -0.559639,1.249989 -1.249989,1.249989 -0.690349,0 -1.249988,-0.55964 -1.249988,-1.249989 0,-0.69035 0.559639,-1.2499889 1.249988,-1.2499889 0.69035,0 1.249989,0.5596389 1.249989,1.2499889 z" />
  <path
     style="fill:#308b97"
     inkscape:connector-curvature="0"
     id="path14"
     d="m 16.249953,10.999985 c 0,0.690349 -0.55964,1.249989 -1.249989,1.249989 -0.69035,0 -1.249988,-0.55964 -1.249988,-1.249989 0,-0.69035 0.559638,-1.2499889 1.249988,-1.2499889 0.690349,0 1.249989,0.5596389 1.249989,1.2499889 z" />
</svg>
