<svg width="22" xmlns="http://www.w3.org/2000/svg" viewBox="0 0 22 22" height="22" xmlns:xlink="http://www.w3.org/1999/xlink">
<defs/>
<rect width="11.771" x="4" y="14.671" rx="3.382" height="5.329" ry="2.665" style="opacity:.3"/>
<rect width="11.771" x="4" y="10.037" height="7.334" style="opacity:.3"/>
<g style="opacity:.3;word-spacing:0;line-height:125%;letter-spacing:0" transform="matrix(-.20621 0 0 .20963 34.60912 9.74733)">
<path d="m 94.254036,9.800518 c -3.138034,2.6e-5 -5.6185,1.048202 -7.441406,3.144531 -1.809903,2.083354 -2.71485,4.941424 -2.714844,8.574219 -6e-6,3.73699 0.872389,6.627612 2.617187,8.671875 1.757803,2.031254 4.2578,3.046878 7.5,3.046875 1.99217,3e-6 4.264303,-0.35807 6.816407,-1.074219 l 0,2.910157 c -1.979188,0.742187 -4.420592,1.11328 -7.324219,1.113281 -4.205741,-1e-6 -7.454435,-1.276041 -9.746094,-3.828125 -2.278649,-2.552078 -3.417971,-6.178376 -3.417969,-10.878906 -2e-6,-2.942692 0.546872,-5.520814 1.640625,-7.734375 1.106766,-2.213518 2.695306,-3.9192453 4.765625,-5.117188 2.083323,-1.1978883 4.531237,-1.796846 7.34375,-1.796875 2.994773,2.9e-5 5.611958,0.5469035 7.851562,1.640625 l -1.40625,2.851563 c -2.161478,-1.0156 -4.322934,-1.523412 -6.484374,-1.523438"/>
</g>
<g style="fill:#dcdcdc">
<rect width="11.771" x="4" y="13.671" rx="3.382" height="5.329" ry="2.665"/>
<rect width="11.771" x="4" y="9.037" height="7.334"/>
<g style="word-spacing:0;line-height:125%;letter-spacing:0" transform="matrix(-.20621 0 0 .20963 34.60912 8.74733)">
<path d="m 94.254036,9.800518 c -3.138034,2.6e-5 -5.6185,1.048202 -7.441406,3.144531 -1.809903,2.083354 -2.71485,4.941424 -2.714844,8.574219 -6e-6,3.73699 0.872389,6.627612 2.617187,8.671875 1.757803,2.031254 4.2578,3.046878 7.5,3.046875 1.99217,3e-6 4.264303,-0.35807 6.816407,-1.074219 l 0,2.910157 c -1.979188,0.742187 -4.420592,1.11328 -7.324219,1.113281 -4.205741,-1e-6 -7.454435,-1.276041 -9.746094,-3.828125 -2.278649,-2.552078 -3.417971,-6.178376 -3.417969,-10.878906 -2e-6,-2.942692 0.546872,-5.520814 1.640625,-7.734375 1.106766,-2.213518 2.695306,-3.9192453 4.765625,-5.117188 2.083323,-1.1978883 4.531237,-1.796846 7.34375,-1.796875 2.994773,2.9e-5 5.611958,0.5469035 7.851562,1.640625 l -1.40625,2.851563 c -2.161478,-1.0156 -4.322934,-1.523412 -6.484374,-1.523438"/>
</g>
</g>
</svg>
