<?xml version="1.0" encoding="UTF-8" standalone="no"?>
<svg
   xmlns:dc="http://purl.org/dc/elements/1.1/"
   xmlns:cc="http://creativecommons.org/ns#"
   xmlns:rdf="http://www.w3.org/1999/02/22-rdf-syntax-ns#"
   xmlns:svg="http://www.w3.org/2000/svg"
   xmlns="http://www.w3.org/2000/svg"
   xmlns:sodipodi="http://sodipodi.sourceforge.net/DTD/sodipodi-0.dtd"
   xmlns:inkscape="http://www.inkscape.org/namespaces/inkscape"
   version="1.2"
   width="24"
   height="24"
   id="svg2"
   inkscape:version="0.91 r"
   sodipodi:docname="clementine-50-playing.svg">
  <metadata
     id="metadata41">
    <rdf:RDF>
      <cc:Work
         rdf:about="">
        <dc:format>image/svg+xml</dc:format>
        <dc:type
           rdf:resource="http://purl.org/dc/dcmitype/StillImage" />
        <dc:title>Clementine Music Player Logo</dc:title>
      </cc:Work>
    </rdf:RDF>
  </metadata>
  <sodipodi:namedview
     pagecolor="#ffffff"
     bordercolor="#666666"
     borderopacity="1"
     objecttolerance="10"
     gridtolerance="10"
     guidetolerance="10"
     inkscape:pageopacity="0"
     inkscape:pageshadow="2"
     inkscape:window-width="1920"
     inkscape:window-height="1056"
     id="namedview39"
     showgrid="true"
     inkscape:zoom="22.627417"
     inkscape:cx="9.8582427"
     inkscape:cy="11.325814"
     inkscape:window-x="0"
     inkscape:window-y="24"
     inkscape:window-maximized="1"
     inkscape:current-layer="svg2">
    <inkscape:grid
       type="xygrid"
       id="grid4135" />
  </sodipodi:namedview>
  <title
     id="title4">Clementine Music Player Logo</title>
  <defs
     id="defs6" />
  <path
     style="opacity:0.4;fill:#ececec;fill-opacity:1"
     inkscape:connector-curvature="0"
     id="path20"
     d="m 6.7858547,4.907942 c -0.033565,0.0022 -0.070332,0.00621 -0.103397,0.011462 -0.031396,0.00503 -0.061009,0.015099 -0.091908,0.022961 -0.00368,0.0011 -0.00783,-0.0011 -0.01147,0 C 6.5445957,4.951545 6.5089867,4.96415 6.4756827,4.976788 5.815724,5.1972353 4.8538945,6.0412214 4.5341155,6.7677187 4.3967969,7.0660419 4.2796026,7.3977812 4.1779702,7.8009483 3.9895504,8.5470963 3.9375964,9.544177 4.0860612,10.716952 c 0.1212456,0.990001 0.3993754,2.145793 0.9420618,3.386698 0.3369769,0.897383 1.0096845,2.001717 2.2632462,3.099689 0.147219,0.109065 0.2901256,0.21281 0.4365652,0.309968 1.1776012,0.781232 2.2326921,1.127674 3.0559566,1.262837 1.349868,0.301174 2.562129,0.361239 3.59592,0.298488 1.228764,-0.07028 2.25168,-0.30678 2.987024,-0.642898 0.309519,-0.16801 0.719184,-0.418512 0.942062,-0.619938 0.656594,-0.593388 1.1757,-1.110315 1.459047,-1.561325 0.0114,-0.0158 0.0239,-0.02998 0.03445,-0.04592 0.03158,-0.05293 0.056,-0.09808 0.08042,-0.149244 0.01202,-0.02403 0.02426,-0.04453 0.03445,-0.06888 0.01794,-0.043 0.0336,-0.08453 0.04595,-0.126284 0.0033,-0.02494 0.0086,-0.02638 0.01147,-0.04592 0.0037,-0.01455 0.0086,-0.03152 0.01147,-0.04592 0.0051,-0.03247 0.0086,-0.08874 0.01147,-0.103323 0.0055,-0.0273 -2.68e-4,-0.02285 0,-0.02296 -2.5e-4,-1.66e-4 0.0015,-0.0066 0,-0.03442 -0.0018,-0.0284 -3.01e-4,-0.078 0,-0.183685 -0.0088,-0.07061 -0.02485,-0.147779 -0.04595,-0.218126 -0.04235,-0.13905 -0.106199,-0.275576 -0.195306,-0.413292 -0.173295,-0.267858 -0.428437,-0.53189 -0.758245,-0.792143 -0.611562,-0.482486 -1.468976,-0.948815 -2.47004,-1.4006 -0.852424,-0.38546 -1.789505,-0.737217 -2.69981,-1.125073 -0.635699,-0.30968 -1.137501,-0.47244 -1.321189,-0.619947 -0.02283,-0.01833 -0.03312,-0.03907 -0.04595,-0.0574 -0.166477,-0.03255 -0.431827,-0.48196 -0.896112,-1.044709 C 11.0291,9.027981 10.517622,8.2613996 10.002578,7.5598798 9.4007243,6.7379984 8.8191863,6.0445828 8.2678053,5.5737827 7.9701321,5.3196578 7.6828961,5.1334561 7.4061634,5.0227269 7.2637751,4.9657441 7.1282064,4.9220637 6.9925752,4.9079236 c -0.068707,-0.00731 -0.1400317,-0.00445 -0.206794,0 z" />
  <text
     style="font-size:2.94001746px;font-family:'Bitstream Vera Sans'"
     id="text37"
     font-size="8"
     transform="scale(1.0003583,0.99964181)"
     y="18.626593"
     x="20.678432" />
  <path
     style="opacity:1;fill:#ececec;fill-opacity:1;fill-rule:nonzero;stroke:none;stroke-width:3;stroke-linecap:round;stroke-linejoin:miter;stroke-miterlimit:4;stroke-dasharray:none;stroke-dashoffset:0;stroke-opacity:1"
     d="m 12.931646,11.070537 -5.8886722,5.888672 c 0.086819,0.08155 0.1549161,0.162569 0.2480468,0.244141 0.147219,0.109065 0.2910604,0.213389 0.4375,0.310547 1.1776012,0.781232 2.2314229,1.126556 3.0546874,1.261719 1.349868,0.301174 2.561912,0.361579 3.595703,0.298828 1.228764,-0.07028 2.252938,-0.30646 2.988282,-0.642578 0.309519,-0.16801 0.718528,-0.417715 0.941406,-0.619141 0.656594,-0.593388 1.175637,-1.11149 1.458984,-1.5625 0.0114,-0.0158 0.02461,-0.02898 0.03516,-0.04492 0.03158,-0.05293 0.05566,-0.09923 0.08008,-0.15039 0.01202,-0.02403 0.02497,-0.04401 0.03516,-0.06836 0.01794,-0.043 0.03257,-0.0852 0.04492,-0.126953 0.0033,-0.02494 0.0088,-0.02538 0.01172,-0.04492 0.0037,-0.01455 0.0088,-0.03247 0.01172,-0.04687 0.0051,-0.03247 0.0088,-0.08893 0.01172,-0.103516 0.0055,-0.0273 -2.68e-4,-0.02137 0,-0.02148 -2.5e-4,-1.66e-4 0.0015,-0.0073 0,-0.03516 -0.0018,-0.0284 -3.01e-4,-0.07791 0,-0.183594 -0.0088,-0.07061 -0.02577,-0.148403 -0.04687,-0.21875 -0.04235,-0.13905 -0.106206,-0.274393 -0.195313,-0.412109 -0.173311,-0.267867 -0.42802,-0.532725 -0.757828,-0.792978 -0.611562,-0.482486 -1.469639,-0.948606 -2.470703,-1.400391 -0.852424,-0.38546 -1.788914,-0.737144 -2.699219,-1.125 -0.360801,-0.175763 -0.655629,-0.299115 -0.896484,-0.404297 z"
     id="rect4141"
     inkscape:connector-curvature="0" />
</svg>
