<svg xmlns="http://www.w3.org/2000/svg" viewBox="0 0 24 24">
 <path d="M 4,2 C 2.892,2 2,2.892 2,4 l 0,16 c 0,1.108 0.892,2 2,2 l 16,0 c 1.108,0 2,-0.892 2,-2 L 22,4 C 22,2.892 21.108,2 20,2 L 4,2 Z m 2.479,6.01 c 0.42,0 0.818,0.034 1.193,0.102 0.383,0.067 0.717,0.18 1,0.338 0.285,0.157 0.509,0.366 0.674,0.629 0.173,0.255 0.26,0.575 0.26,0.957 0,0.42 -0.109,0.78 -0.326,1.08 -0.21,0.293 -0.495,0.495 -0.855,0.607 0.225,0.053 0.432,0.127 0.619,0.225 0.188,0.098 0.352,0.225 0.494,0.383 0.143,0.15 0.251,0.338 0.326,0.563 0.082,0.218 0.123,0.48 0.123,0.787 0,0.735 -0.292,1.297 -0.877,1.688 C 8.525,15.751 7.622,15.943 6.399,15.943 6.272,15.943 6.122,15.935 5.95,15.92 5.785,15.913 5.612,15.898 5.432,15.875 5.26,15.86 5.093,15.843 4.936,15.82 4.778,15.79 4.644,15.76 4.532,15.73 l 0,-7.504 C 4.667,8.189 4.816,8.159 4.981,8.136 5.146,8.106 5.314,8.083 5.487,8.068 5.667,8.046 5.84,8.031 6.005,8.023 6.177,8.016 6.335,8.011 6.478,8.011 Z m 0,0.652 C 6.202,8.662 5.965,8.67 5.77,8.685 5.582,8.7 5.427,8.719 5.299,8.742 l 0,2.744 1.484,0 c 0.277,0 0.54,-0.019 0.787,-0.057 0.247,-0.045 0.461,-0.12 0.641,-0.225 C 8.399,11.092 8.545,10.945 8.65,10.765 8.755,10.577 8.808,10.343 8.808,10.058 8.808,9.803 8.751,9.588 8.638,9.415 8.525,9.235 8.366,9.09 8.156,8.977 7.954,8.864 7.709,8.786 7.424,8.741 7.139,8.688 6.824,8.661 6.479,8.661 Z m 4.363,1.396 0.777,0 c 0.082,0.36 0.187,0.75 0.314,1.17 0.128,0.413 0.27,0.839 0.428,1.281 0.165,0.443 0.346,0.896 0.541,1.361 0.195,0.465 0.404,0.923 0.629,1.373 0.165,-0.465 0.312,-0.904 0.439,-1.316 0.127,-0.412 0.243,-0.822 0.348,-1.227 0.113,-0.413 0.219,-0.832 0.316,-1.26 0.105,-0.428 0.214,-0.888 0.326,-1.383 l 0.73,0 c -0.24,1.088 -0.513,2.144 -0.82,3.172 -0.307,1.028 -0.642,1.969 -1,2.824 -0.143,0.337 -0.289,0.625 -0.439,0.865 -0.15,0.248 -0.318,0.45 -0.506,0.607 -0.18,0.158 -0.393,0.275 -0.641,0.35 -0.24,0.075 -0.525,0.111 -0.855,0.111 -0.188,0 -0.36,-0.021 -0.518,-0.066 -0.15,-0.045 -0.244,-0.079 -0.281,-0.102 l 0.146,-0.607 c 0.03,0.022 0.113,0.052 0.248,0.09 0.143,0.045 0.287,0.068 0.438,0.068 0.21,0 0.397,-0.023 0.563,-0.068 0.172,-0.045 0.326,-0.124 0.461,-0.236 0.135,-0.105 0.256,-0.244 0.361,-0.416 0.112,-0.172 0.221,-0.39 0.326,-0.652 -0.248,-0.458 -0.488,-0.935 -0.721,-1.43 -0.225,-0.495 -0.438,-0.994 -0.641,-1.496 -0.195,-0.51 -0.376,-1.015 -0.541,-1.518 -0.165,-0.51 -0.308,-1.01 -0.428,-1.496 z m -5.543,2.08 0,3.072 c 0.113,0.015 0.281,0.032 0.506,0.055 0.225,0.015 0.453,0.023 0.686,0.023 0.345,0 0.679,-0.023 1,-0.068 0.33,-0.045 0.618,-0.126 0.865,-0.246 0.247,-0.12 0.448,-0.286 0.598,-0.496 0.15,-0.21 0.225,-0.481 0.225,-0.811 0,-0.3 -0.053,-0.547 -0.158,-0.742 C 8.916,12.722 8.767,12.565 8.572,12.452 8.377,12.332 8.136,12.251 7.851,12.206 7.574,12.161 7.262,12.138 6.917,12.138 l -1.619,0 z m 12.508,0.809 c 0.492,0 0.863,0.121 1.111,0.365 0.249,0.239 0.373,0.573 0.373,1 0,0.19 -0.033,0.37 -0.102,0.541 -0.068,0.166 -0.16,0.326 -0.277,0.482 -0.112,0.156 -0.242,0.307 -0.389,0.453 -0.146,0.146 -0.294,0.293 -0.445,0.439 -0.127,0.122 -0.251,0.246 -0.373,0.373 -0.117,0.122 -0.225,0.246 -0.322,0.373 -0.093,0.122 -0.168,0.243 -0.227,0.365 -0.054,0.117 -0.08,0.235 -0.08,0.352 l 0,0.014 2.391,0 0,0.416 -2.918,0 c 0,-0.01 -0.001,-0.026 -0.006,-0.051 l 0,-0.123 c 0,-0.229 0.04,-0.442 0.123,-0.637 0.083,-0.2 0.188,-0.387 0.314,-0.563 0.132,-0.175 0.276,-0.339 0.432,-0.49 0.161,-0.151 0.315,-0.298 0.461,-0.439 0.122,-0.117 0.236,-0.229 0.344,-0.336 0.112,-0.112 0.21,-0.227 0.293,-0.344 0.083,-0.117 0.149,-0.241 0.197,-0.373 0.049,-0.132 0.072,-0.276 0.072,-0.432 0,-0.341 -0.092,-0.584 -0.277,-0.73 -0.18,-0.151 -0.41,-0.227 -0.688,-0.227 -0.156,0 -0.294,0.02 -0.416,0.059 -0.122,0.039 -0.23,0.085 -0.322,0.139 -0.088,0.049 -0.163,0.099 -0.227,0.152 -0.063,0.054 -0.109,0.096 -0.139,0.125 l -0.25,-0.33 c 0.029,-0.034 0.081,-0.081 0.154,-0.145 0.078,-0.068 0.173,-0.136 0.285,-0.199 0.117,-0.063 0.251,-0.116 0.402,-0.16 0.151,-0.049 0.319,-0.072 0.504,-0.072 z" style="fill:#ececec;fill-opacity:1"/>
</svg>
