<?xml version="1.0" encoding="UTF-8" standalone="no"?>
<svg
   xmlns:dc="http://purl.org/dc/elements/1.1/"
   xmlns:cc="http://creativecommons.org/ns#"
   xmlns:rdf="http://www.w3.org/1999/02/22-rdf-syntax-ns#"
   xmlns:svg="http://www.w3.org/2000/svg"
   xmlns="http://www.w3.org/2000/svg"
   xmlns:sodipodi="http://sodipodi.sourceforge.net/DTD/sodipodi-0.dtd"
   xmlns:inkscape="http://www.inkscape.org/namespaces/inkscape"
   viewBox="0 0 24 24"
   id="svg2"
   version="1.1"
   inkscape:version="0.91 r13725"
   sodipodi:docname="indicator-keyboard-Lo-1.svg">
  <metadata
     id="metadata10">
    <rdf:RDF>
      <cc:Work
         rdf:about="">
        <dc:format>image/svg+xml</dc:format>
        <dc:type
           rdf:resource="http://purl.org/dc/dcmitype/StillImage" />
      </cc:Work>
    </rdf:RDF>
  </metadata>
  <defs
     id="defs8" />
  <sodipodi:namedview
     pagecolor="#ffffff"
     bordercolor="#666666"
     borderopacity="1"
     objecttolerance="10"
     gridtolerance="10"
     guidetolerance="10"
     inkscape:pageopacity="0"
     inkscape:pageshadow="2"
     inkscape:window-width="640"
     inkscape:window-height="480"
     id="namedview6"
     showgrid="false"
     inkscape:zoom="9.8333333"
     inkscape:cx="12"
     inkscape:cy="12"
     inkscape:window-x="65"
     inkscape:window-y="24"
     inkscape:window-maximized="0"
     inkscape:current-layer="svg2" />
  <path
     d="M 4,2 C 2.892,2 2,2.892 2,4 l 0,16 c 0,1.108 0.892,2 2,2 l 16,0 c 1.108,0 2,-0.892 2,-2 L 22,4 C 22,2.892 21.108,2 20,2 L 4,2 Z m 1.119,6.074 0.764,0 0,7.133 3.668,0 0,0.662 -4.432,0 0,-7.795 z m 7.908,1.844 c 0.39,0 0.746,0.077 1.068,0.227 0.322,0.143 0.6,0.347 0.832,0.617 0.24,0.263 0.423,0.582 0.551,0.957 0.135,0.375 0.203,0.791 0.203,1.248 0,0.457 -0.068,0.875 -0.203,1.25 -0.128,0.375 -0.311,0.693 -0.551,0.955 -0.232,0.262 -0.51,0.469 -0.832,0.619 -0.322,0.142 -0.678,0.215 -1.068,0.215 -0.39,0 -0.748,-0.072 -1.07,-0.215 -0.322,-0.15 -0.604,-0.357 -0.844,-0.619 -0.232,-0.262 -0.416,-0.58 -0.551,-0.955 -0.127,-0.375 -0.191,-0.793 -0.191,-1.25 0,-0.457 0.064,-0.873 0.191,-1.248 0.135,-0.375 0.318,-0.695 0.551,-0.957 0.24,-0.27 0.521,-0.475 0.844,-0.617 0.322,-0.15 0.68,-0.227 1.07,-0.227 z m 0,0.664 c -0.577,0 -1.036,0.217 -1.373,0.652 -0.338,0.428 -0.506,1 -0.506,1.732 0,0.728 0.168,1.305 0.506,1.732 0.338,0.428 0.796,0.643 1.373,0.643 0.578,0 1.034,-0.215 1.371,-0.643 0.337,-0.428 0.506,-1 0.506,-1.732 0,-0.727 -0.168,-1.305 -0.506,-1.732 -0.338,-0.435 -0.794,-0.652 -1.371,-0.652 z m 5.518,2.471 0.336,0 0,5.066 -0.475,0 0,-4.342 c -0.054,0.059 -0.123,0.118 -0.211,0.182 -0.083,0.063 -0.178,0.126 -0.285,0.189 -0.107,0.058 -0.221,0.117 -0.338,0.176 -0.117,0.054 -0.233,0.099 -0.35,0.133 L 17.081,14.09 c 0.293,-0.102 0.554,-0.231 0.783,-0.387 0.229,-0.161 0.455,-0.377 0.68,-0.65 z"
     style="fill:#ececec;fill-opacity:1"
     id="path4"
     inkscape:connector-curvature="0" />
</svg>
