<svg xmlns="http://www.w3.org/2000/svg" viewBox="0 0 24 24">
 <path d="M 4,2 C 2.892,2 2,2.892 2,4 l 0,16 c 0,1.108 0.892,2 2,2 l 16,0 c 1.108,0 2,-0.892 2,-2 L 22,4 C 22,2.892 21.108,2 20,2 L 4,2 Z m 2.152,6.074 0.764,0 0,7.795 -0.764,0 0,-7.795 z m 4.973,1.867 c 0.443,0 0.809,0.064 1.102,0.191 0.3,0.127 0.536,0.311 0.709,0.551 0.18,0.232 0.308,0.514 0.383,0.844 0.075,0.33 0.113,0.694 0.113,1.092 l 0,3.25 -0.732,0 0,-3.01 c 0,-0.412 -0.03,-0.762 -0.09,-1.047 -0.053,-0.285 -0.146,-0.517 -0.281,-0.697 -0.127,-0.18 -0.3,-0.308 -0.518,-0.383 -0.21,-0.082 -0.476,-0.123 -0.799,-0.123 -0.345,0 -0.645,0.019 -0.9,0.057 -0.248,0.037 -0.407,0.07 -0.482,0.1 l 0,5.107 -0.732,0 0,-5.613 c 0.217,-0.06 0.511,-0.126 0.879,-0.201 0.367,-0.075 0.817,-0.113 1.35,-0.113 z m 5.01,3 c 0.254,0 0.47,0.03 0.65,0.094 0.185,0.063 0.339,0.154 0.461,0.271 0.122,0.112 0.213,0.249 0.271,0.41 0.058,0.156 0.088,0.326 0.088,0.512 0,0.297 -0.081,0.54 -0.242,0.73 -0.156,0.185 -0.359,0.319 -0.607,0.402 0.136,0.034 0.27,0.087 0.396,0.16 0.132,0.068 0.247,0.159 0.35,0.271 0.102,0.107 0.187,0.239 0.25,0.395 0.063,0.156 0.094,0.339 0.094,0.549 0,0.214 -0.039,0.411 -0.117,0.592 -0.073,0.18 -0.185,0.338 -0.336,0.475 -0.146,0.132 -0.333,0.236 -0.563,0.314 -0.229,0.073 -0.498,0.111 -0.805,0.111 -0.161,0 -0.309,-0.013 -0.445,-0.037 -0.132,-0.02 -0.249,-0.045 -0.352,-0.074 -0.102,-0.029 -0.191,-0.057 -0.264,-0.086 -0.068,-0.029 -0.118,-0.055 -0.152,-0.074 l 0.123,-0.424 c 0.029,0.02 0.078,0.043 0.146,0.072 0.068,0.029 0.15,0.059 0.242,0.088 0.098,0.024 0.203,0.047 0.32,0.066 0.122,0.02 0.255,0.029 0.396,0.029 0.463,0 0.794,-0.095 0.994,-0.285 0.2,-0.195 0.299,-0.457 0.299,-0.783 0,-0.215 -0.04,-0.392 -0.123,-0.533 -0.078,-0.141 -0.189,-0.253 -0.33,-0.336 -0.136,-0.088 -0.297,-0.149 -0.482,-0.184 -0.18,-0.039 -0.373,-0.059 -0.578,-0.059 l -0.072,0 0,-0.395 0.168,0 c 0.132,0 0.266,-0.013 0.402,-0.037 0.141,-0.029 0.269,-0.079 0.381,-0.152 0.117,-0.073 0.212,-0.171 0.285,-0.293 0.078,-0.122 0.115,-0.279 0.115,-0.469 0,-0.161 -0.026,-0.296 -0.08,-0.408 -0.054,-0.117 -0.126,-0.211 -0.219,-0.279 -0.088,-0.068 -0.193,-0.115 -0.314,-0.145 -0.117,-0.034 -0.241,-0.053 -0.373,-0.053 -0.263,0 -0.467,0.036 -0.613,0.109 -0.146,0.073 -0.267,0.142 -0.359,0.205 l -0.205,-0.373 c 0.049,-0.034 0.11,-0.073 0.184,-0.117 0.078,-0.044 0.167,-0.084 0.27,-0.123 0.102,-0.039 0.216,-0.071 0.338,-0.096 0.127,-0.029 0.262,-0.043 0.408,-0.043 z" style="fill:#ececec;fill-opacity:1"/>
</svg>
