<svg xmlns="http://www.w3.org/2000/svg" viewBox="0 0 24 24">
 <path d="M 4,2 C 2.892,2 2,2.892 2,4 l 0,16 c 0,1.108 0.892,2 2,2 l 16,0 c 1.108,0 2,-0.892 2,-2 L 22,4 C 22,2.892 21.108,2 20,2 L 4,2 Z m 4.03,5.904 c 0.21,0 0.415,0.015 0.617,0.045 0.203,0.03 0.39,0.072 0.563,0.125 0.18,0.045 0.342,0.096 0.484,0.156 0.15,0.06 0.274,0.124 0.371,0.191 L 9.795,9.064 C 9.578,8.914 9.311,8.793 8.996,8.703 8.688,8.613 8.354,8.568 7.996,8.568 7.748,8.568 7.52,8.596 7.31,8.648 7.108,8.693 6.931,8.77 6.781,8.882 6.631,8.987 6.512,9.123 6.422,9.288 6.34,9.453 6.299,9.651 6.299,9.884 c 0,0.24 0.045,0.442 0.135,0.607 0.09,0.165 0.214,0.308 0.371,0.428 0.165,0.12 0.357,0.229 0.574,0.326 0.217,0.098 0.452,0.2 0.707,0.305 0.308,0.127 0.597,0.253 0.867,0.381 0.277,0.127 0.518,0.279 0.721,0.451 0.202,0.173 0.362,0.381 0.482,0.629 0.12,0.248 0.18,0.552 0.18,0.912 0,0.705 -0.247,1.233 -0.742,1.586 -0.487,0.352 -1.15,0.529 -1.99,0.529 -0.3,0 -0.575,-0.019 -0.822,-0.057 C 6.535,15.944 6.313,15.899 6.118,15.846 5.923,15.786 5.759,15.726 5.624,15.666 5.489,15.606 5.385,15.553 5.31,15.508 l 0.246,-0.664 c 0.075,0.045 0.177,0.098 0.305,0.158 0.128,0.06 0.277,0.12 0.449,0.18 0.172,0.053 0.368,0.097 0.586,0.135 0.217,0.038 0.458,0.057 0.721,0.057 0.607,0 1.079,-0.109 1.416,-0.326 0.338,-0.225 0.506,-0.585 0.506,-1.08 0,-0.285 -0.055,-0.521 -0.168,-0.709 C 9.266,13.064 9.123,12.902 8.943,12.775 8.763,12.64 8.556,12.529 8.324,12.439 8.092,12.341 7.849,12.239 7.594,12.134 7.272,12.006 6.982,11.876 6.727,11.741 6.472,11.606 6.255,11.455 6.075,11.29 5.895,11.117 5.756,10.924 5.659,10.706 5.569,10.489 5.524,10.233 5.524,9.94 5.524,9.273 5.746,8.765 6.188,8.42 6.63,8.075 7.246,7.902 8.034,7.902 Z m 5.664,2.037 c 0.24,0 0.466,0.019 0.676,0.057 0.218,0.037 0.367,0.074 0.449,0.111 l -0.146,0.631 c -0.06,-0.03 -0.184,-0.06 -0.371,-0.09 -0.18,-0.037 -0.419,-0.057 -0.719,-0.057 -0.315,0 -0.571,0.023 -0.766,0.068 -0.188,0.045 -0.311,0.081 -0.371,0.111 l 0,5.096 -0.732,0 0,-5.545 c 0.188,-0.083 0.447,-0.166 0.777,-0.248 0.33,-0.09 0.731,-0.135 1.203,-0.135 z m 3.883,3.111 0.496,0 0,3.305 0.629,0 0,0.389 -0.629,0 0,1.373 -0.467,0 0,-1.373 -2.297,0 0,-0.293 c 0.088,-0.234 0.209,-0.499 0.365,-0.791 0.161,-0.292 0.341,-0.591 0.541,-0.898 0.2,-0.307 0.418,-0.608 0.652,-0.9 0.234,-0.297 0.47,-0.567 0.709,-0.811 z m 0.029,0.533 c -0.171,0.175 -0.344,0.378 -0.52,0.607 -0.176,0.229 -0.343,0.468 -0.504,0.717 -0.156,0.244 -0.303,0.49 -0.439,0.738 -0.136,0.249 -0.251,0.485 -0.344,0.709 l 1.807,0 0,-2.771 z" style="fill:#ececec;fill-opacity:1"/>
</svg>
