<svg xmlns="http://www.w3.org/2000/svg" viewBox="0 0 24 24">
 <path d="M 4,2 C 2.892,2 2,2.892 2,4 l 0,16 c 0,1.108 0.892,2 2,2 l 16,0 c 1.108,0 2,-0.892 2,-2 L 22,4 C 22,2.892 21.108,2 20,2 L 4,2 Z m 9.109,5.736 c 0.15,0 0.278,0.053 0.383,0.158 0.105,0.098 0.158,0.232 0.158,0.404 0,0.173 -0.053,0.311 -0.158,0.416 C 13.387,8.811 13.259,8.86 13.109,8.86 12.959,8.86 12.831,8.811 12.726,8.714 12.621,8.609 12.57,8.47 12.57,8.298 c 0,-0.172 0.051,-0.307 0.156,-0.404 0.105,-0.105 0.233,-0.158 0.383,-0.158 z m -7.06,0.338 0.766,0 0,3.633 C 7.1,11.452 7.415,11.16 7.76,10.83 8.113,10.492 8.458,10.156 8.795,9.818 9.14,9.48 9.462,9.157 9.762,8.849 c 0.3,-0.308 0.541,-0.565 0.721,-0.775 l 0.922,0 c -0.217,0.232 -0.48,0.51 -0.787,0.832 -0.307,0.315 -0.634,0.641 -0.979,0.979 -0.345,0.338 -0.69,0.672 -1.035,1 -0.337,0.323 -0.642,0.608 -0.912,0.855 0.217,0.135 0.45,0.303 0.697,0.506 0.255,0.195 0.511,0.412 0.766,0.652 0.262,0.232 0.518,0.48 0.766,0.742 0.255,0.255 0.49,0.513 0.707,0.775 0.225,0.263 0.425,0.518 0.598,0.766 0.18,0.248 0.325,0.476 0.438,0.686 l -0.854,0 C 10.555,15.477 10.265,15.091 9.943,14.709 9.628,14.326 9.294,13.966 8.943,13.629 8.59,13.292 8.23,12.985 7.863,12.707 7.503,12.43 7.156,12.197 6.818,12.01 l 0,3.857 -0.766,0 0,-7.795 z m 6.701,1.98 0.73,0 0,5.814 -0.73,0 0,-5.814 z m 3.541,2.889 c 0.492,0 0.863,0.121 1.111,0.365 0.249,0.239 0.373,0.573 0.373,1 0,0.19 -0.033,0.37 -0.102,0.541 -0.068,0.166 -0.162,0.326 -0.279,0.482 -0.112,0.156 -0.24,0.307 -0.387,0.453 -0.146,0.146 -0.296,0.293 -0.447,0.439 -0.127,0.122 -0.249,0.246 -0.371,0.373 -0.117,0.122 -0.225,0.246 -0.322,0.373 -0.093,0.122 -0.168,0.243 -0.227,0.365 -0.054,0.117 -0.08,0.235 -0.08,0.352 l 0,0.014 2.391,0 0,0.416 -2.918,0 c 0,-0.01 -0.003,-0.026 -0.008,-0.051 l 0,-0.123 c 0,-0.229 0.042,-0.442 0.125,-0.637 0.083,-0.2 0.188,-0.387 0.314,-0.563 0.132,-0.175 0.276,-0.339 0.432,-0.49 0.161,-0.151 0.315,-0.298 0.461,-0.439 0.122,-0.117 0.236,-0.229 0.344,-0.336 0.112,-0.112 0.208,-0.227 0.291,-0.344 0.083,-0.117 0.149,-0.241 0.197,-0.373 0.049,-0.132 0.074,-0.276 0.074,-0.432 0,-0.341 -0.092,-0.584 -0.277,-0.73 -0.18,-0.151 -0.41,-0.227 -0.688,-0.227 -0.156,0 -0.296,0.02 -0.418,0.059 -0.122,0.039 -0.228,0.085 -0.32,0.139 -0.088,0.049 -0.163,0.099 -0.227,0.152 -0.063,0.054 -0.111,0.096 -0.141,0.125 l -0.248,-0.33 c 0.029,-0.034 0.081,-0.081 0.154,-0.145 0.078,-0.068 0.173,-0.136 0.285,-0.199 0.117,-0.063 0.251,-0.116 0.402,-0.16 0.151,-0.049 0.319,-0.072 0.504,-0.072 z" style="fill:#ececec;fill-opacity:1"/>
</svg>
