<svg xmlns="http://www.w3.org/2000/svg" viewBox="0 0 24 24">
 <path d="M 4,2 C 2.892,2 2,2.892 2,4 l 0,16 c 0,1.108 0.892,2 2,2 l 16,0 c 1.108,0 2,-0.892 2,-2 L 22,4 C 22,2.892 21.108,2 20,2 L 4,2 Z m 2.416,6.04 0.766,0 0,3.635 C 7.467,11.42 7.782,11.128 8.127,10.798 8.48,10.46 8.825,10.122 9.162,9.784 9.507,9.446 9.829,9.125 10.129,8.817 10.429,8.509 10.67,8.25 10.85,8.04 l 0.922,0 c -0.217,0.232 -0.48,0.511 -0.787,0.834 -0.307,0.315 -0.634,0.641 -0.979,0.979 -0.345,0.338 -0.69,0.67 -1.035,1 -0.337,0.323 -0.642,0.608 -0.912,0.855 0.217,0.135 0.45,0.303 0.697,0.506 0.255,0.195 0.511,0.412 0.766,0.652 0.262,0.232 0.518,0.482 0.766,0.744 0.255,0.255 0.491,0.513 0.709,0.775 0.225,0.262 0.423,0.518 0.596,0.766 0.18,0.248 0.327,0.476 0.439,0.686 l -0.855,0 C 10.922,15.447 10.632,15.061 10.31,14.679 9.995,14.297 9.662,13.936 9.31,13.599 8.957,13.261 8.597,12.953 8.23,12.675 7.87,12.397 7.521,12.165 7.183,11.978 l 0,3.859 -0.766,0 0,-7.797 z m 6.633,1.98 0.732,0 0,3.03 c 0,0.413 0.03,0.76 0.09,1.045 0.06,0.285 0.158,0.517 0.293,0.697 0.135,0.172 0.308,0.3 0.518,0.383 0.217,0.075 0.48,0.113 0.787,0.113 0.345,0 0.645,-0.019 0.9,-0.057 0.255,-0.037 0.415,-0.072 0.482,-0.102 l 0,-5.107 0.732,0 0,5.613 c -0.218,0.06 -0.511,0.128 -0.879,0.203 -0.367,0.075 -0.817,0.113 -1.35,0.113 -0.435,0 -0.797,-0.064 -1.09,-0.191 -0.293,-0.127 -0.529,-0.309 -0.709,-0.541 -0.18,-0.232 -0.312,-0.514 -0.395,-0.844 -0.075,-0.33 -0.113,-0.692 -0.113,-1.09 l 0,-3.264 z" style="fill:#ececec;fill-opacity:1"/>
</svg>
