<svg xmlns="http://www.w3.org/2000/svg" viewBox="0 0 24 24">
 <path d="M 4,2 C 2.892,2 2,2.892 2,4 l 0,16 c 0,1.108 0.892,2 2,2 l 16,0 c 1.108,0 2,-0.892 2,-2 L 22,4 C 22,2.892 21.108,2 20,2 L 4,2 Z m 6.277,5.939 c 0.577,0 1.055,0.064 1.43,0.191 0.375,0.12 0.648,0.235 0.82,0.348 L 12.269,9.13 C 12.059,8.98 11.774,8.861 11.414,8.771 11.054,8.673 10.664,8.625 10.244,8.625 9.854,8.625 9.485,8.695 9.14,8.838 8.795,8.981 8.497,9.196 8.242,9.481 7.987,9.766 7.785,10.118 7.635,10.538 7.492,10.958 7.42,11.446 7.42,12.001 c 0,0.518 0.06,0.986 0.18,1.406 0.12,0.412 0.301,0.768 0.541,1.068 0.247,0.293 0.55,0.518 0.91,0.676 0.36,0.157 0.777,0.236 1.25,0.236 0.383,0 0.7,-0.019 0.955,-0.057 0.263,-0.045 0.439,-0.086 0.529,-0.123 l 0,-2.994 0.766,0 0,3.477 c -0.143,0.06 -0.424,0.135 -0.844,0.225 -0.413,0.098 -0.924,0.146 -1.531,0.146 -0.51,0 -0.981,-0.09 -1.416,-0.27 C 8.325,15.611 7.946,15.353 7.623,15.016 7.308,14.671 7.061,14.247 6.881,13.745 6.701,13.235 6.61,12.653 6.61,12.001 6.61,11.349 6.708,10.771 6.903,10.269 7.098,9.759 7.36,9.335 7.69,8.998 8.028,8.653 8.417,8.391 8.86,8.211 9.303,8.031 9.775,7.941 10.278,7.941 Z m 5.988,2.035 c 0.24,0 0.464,0.019 0.674,0.057 0.218,0.037 0.369,0.076 0.451,0.113 l -0.146,0.629 c -0.06,-0.03 -0.184,-0.06 -0.371,-0.09 -0.18,-0.038 -0.421,-0.057 -0.721,-0.057 -0.315,0 -0.571,0.023 -0.766,0.068 -0.188,0.045 -0.311,0.081 -0.371,0.111 l 0,5.098 -0.73,0 0,-5.547 c 0.188,-0.082 0.445,-0.166 0.775,-0.248 0.33,-0.09 0.733,-0.135 1.205,-0.135 z" style="fill:#ececec;fill-opacity:1"/>
</svg>
