<svg xmlns="http://www.w3.org/2000/svg" viewBox="0 0 24 24">
 <path d="M 4,2 C 2.892,2 2,2.892 2,4 l 0,16 c 0,1.108 0.892,2 2,2 l 16,0 c 1.108,0 2,-0.892 2,-2 L 22,4 C 22,2.892 21.108,2 20,2 L 4,2 Z m -0.371,6.074 0.764,0 0,3.387 4.23,0 0,-3.387 0.766,0 0,7.795 -0.766,0 0,-3.746 -4.23,0 0,3.746 -0.764,0 0,-7.795 z m 7.666,1.98 0.73,0 0,3.03 c 0,0.412 0.03,0.762 0.09,1.047 0.06,0.285 0.158,0.517 0.293,0.697 0.135,0.173 0.308,0.3 0.518,0.383 0.217,0.075 0.48,0.111 0.787,0.111 0.345,0 0.645,-0.019 0.9,-0.057 0.255,-0.037 0.417,-0.07 0.484,-0.1 l 0,-5.107 0.73,0 0,5.613 c -0.217,0.06 -0.509,0.126 -0.877,0.201 -0.367,0.075 -0.819,0.113 -1.352,0.113 -0.435,0 -0.797,-0.064 -1.09,-0.191 -0.293,-0.128 -0.529,-0.307 -0.709,-0.539 -0.18,-0.232 -0.312,-0.514 -0.395,-0.844 -0.075,-0.33 -0.111,-0.694 -0.111,-1.092 l 0,-3.262 z m 7.453,2.889 c 0.531,0 0.934,0.187 1.207,0.563 0.278,0.371 0.416,0.889 0.416,1.557 0,1.019 -0.243,1.788 -0.73,2.305 -0.488,0.512 -1.199,0.768 -2.135,0.768 L 17.49,17.741 c 0.322,0 0.617,-0.036 0.885,-0.109 0.268,-0.073 0.5,-0.187 0.695,-0.338 0.2,-0.156 0.361,-0.353 0.482,-0.592 0.127,-0.244 0.212,-0.536 0.256,-0.877 -0.132,0.068 -0.289,0.128 -0.475,0.182 -0.185,0.049 -0.384,0.074 -0.594,0.074 -0.273,0 -0.503,-0.042 -0.693,-0.125 -0.19,-0.088 -0.344,-0.202 -0.461,-0.344 -0.117,-0.141 -0.202,-0.305 -0.256,-0.49 -0.054,-0.185 -0.08,-0.376 -0.08,-0.576 0,-0.185 0.027,-0.374 0.086,-0.564 0.058,-0.19 0.15,-0.361 0.271,-0.512 0.127,-0.156 0.284,-0.281 0.469,-0.379 0.19,-0.098 0.413,-0.146 0.672,-0.146 z m 0.008,0.416 c -0.18,0 -0.334,0.035 -0.461,0.104 -0.127,0.063 -0.229,0.149 -0.307,0.256 -0.078,0.107 -0.137,0.23 -0.176,0.371 -0.034,0.141 -0.051,0.288 -0.051,0.439 0,0.385 0.085,0.67 0.256,0.855 0.175,0.185 0.431,0.277 0.768,0.277 0.224,0 0.418,-0.024 0.584,-0.072 0.171,-0.054 0.33,-0.115 0.477,-0.184 0.005,-0.059 0.006,-0.114 0.006,-0.168 0.005,-0.054 0.008,-0.113 0.008,-0.182 0,-0.229 -0.017,-0.448 -0.051,-0.652 -0.029,-0.205 -0.088,-0.385 -0.176,-0.541 -0.083,-0.156 -0.195,-0.277 -0.336,-0.365 -0.141,-0.093 -0.322,-0.139 -0.541,-0.139 z" style="fill:#ececec;fill-opacity:1"/>
</svg>
