<svg xmlns="http://www.w3.org/2000/svg" viewBox="0 0 24 24">
 <path d="M 4,2 C 2.892,2 2,2.892 2,4 l 0,16 c 0,1.108 0.892,2 2,2 l 16,0 c 1.108,0 2,-0.892 2,-2 L 22,4 C 22,2.892 21.108,2 20,2 L 4,2 Z m 5.543,4.961 c 0.21,0 0.417,0.015 0.619,0.045 0.203,0.03 0.39,0.071 0.563,0.123 0.18,0.045 0.34,0.098 0.482,0.158 0.15,0.06 0.274,0.122 0.371,0.189 l -0.27,0.643 C 11.091,7.969 10.824,7.848 10.509,7.758 10.202,7.668 9.867,7.623 9.509,7.623 9.261,7.623 9.033,7.651 8.823,7.703 8.621,7.748 8.444,7.827 8.294,7.939 8.144,8.044 8.025,8.178 7.935,8.343 7.853,8.508 7.812,8.706 7.812,8.939 c 0,0.24 0.045,0.442 0.135,0.607 0.09,0.165 0.214,0.308 0.371,0.428 0.165,0.12 0.357,0.229 0.574,0.326 0.217,0.098 0.454,0.2 0.709,0.305 0.307,0.127 0.595,0.255 0.865,0.383 0.277,0.127 0.518,0.277 0.721,0.449 0.203,0.172 0.362,0.383 0.482,0.631 0.12,0.248 0.182,0.55 0.182,0.91 0,0.705 -0.249,1.233 -0.744,1.586 -0.488,0.352 -1.15,0.529 -1.99,0.529 -0.3,0 -0.575,-0.019 -0.822,-0.057 C 8.048,14.999 7.828,14.954 7.633,14.901 7.438,14.841 7.272,14.781 7.137,14.721 7.002,14.661 6.898,14.608 6.823,14.563 l 0.248,-0.664 c 0.075,0.045 0.175,0.098 0.303,0.158 0.127,0.06 0.277,0.12 0.449,0.18 0.173,0.053 0.368,0.097 0.586,0.135 0.218,0.037 0.458,0.057 0.721,0.057 0.607,0 1.079,-0.109 1.416,-0.326 0.338,-0.225 0.508,-0.585 0.508,-1.08 0,-0.285 -0.057,-0.521 -0.17,-0.709 C 10.779,12.119 10.636,11.959 10.456,11.832 10.276,11.697 10.069,11.584 9.837,11.494 9.605,11.396 9.362,11.294 9.107,11.189 8.785,11.062 8.497,10.931 8.242,10.796 7.987,10.661 7.768,10.51 7.588,10.345 7.408,10.173 7.269,9.979 7.172,9.761 7.082,9.543 7.037,9.288 7.037,8.995 7.037,8.328 7.259,7.82 7.701,7.475 8.143,7.13 8.759,6.959 9.547,6.959 Z m 2.789,2.148 0.775,0 c 0.082,0.36 0.187,0.75 0.314,1.17 0.127,0.412 0.27,0.839 0.428,1.281 0.165,0.443 0.346,0.896 0.541,1.361 0.195,0.465 0.404,0.923 0.629,1.373 0.165,-0.465 0.312,-0.904 0.439,-1.316 0.128,-0.413 0.243,-0.822 0.348,-1.227 0.112,-0.412 0.219,-0.832 0.316,-1.26 0.105,-0.428 0.214,-0.888 0.326,-1.383 l 0.73,0 c -0.24,1.088 -0.513,2.144 -0.82,3.172 -0.307,1.027 -0.642,1.969 -1,2.824 -0.143,0.338 -0.289,0.625 -0.439,0.865 -0.15,0.248 -0.318,0.45 -0.506,0.607 -0.18,0.158 -0.393,0.275 -0.641,0.35 -0.24,0.075 -0.525,0.111 -0.855,0.111 -0.188,0 -0.36,-0.021 -0.518,-0.066 -0.15,-0.045 -0.244,-0.079 -0.281,-0.102 l 0.146,-0.607 c 0.03,0.023 0.113,0.052 0.248,0.09 0.143,0.045 0.288,0.068 0.438,0.068 0.21,0 0.398,-0.023 0.563,-0.068 0.173,-0.045 0.328,-0.124 0.463,-0.236 0.135,-0.105 0.254,-0.244 0.359,-0.416 0.113,-0.172 0.221,-0.39 0.326,-0.652 -0.248,-0.457 -0.488,-0.935 -0.721,-1.43 -0.225,-0.495 -0.438,-0.994 -0.641,-1.496 -0.195,-0.51 -0.374,-1.015 -0.539,-1.518 -0.165,-0.51 -0.308,-1.01 -0.428,-1.496 z" style="fill:#ececec;fill-opacity:1"/>
</svg>
