<svg xmlns="http://www.w3.org/2000/svg" viewBox="0 0 24 24">
 <path d="M 4,2 C 2.892,2 2,2.892 2,4 l 0,16 c 0,1.108 0.892,2 2,2 l 16,0 c 1.108,0 2,-0.892 2,-2 L 22,4 C 22,2.892 21.108,2 20,2 L 4,2 Z m 0.311,6.074 4.5,0 0,0.664 -3.736,0 0,2.711 3.33,0 0,0.652 -3.33,0 0,3.105 4.03,0 0,0.662 -4.791,0 0,-7.795 z m 8.422,1.867 c 0.443,0 0.811,0.064 1.104,0.191 0.3,0.127 0.535,0.311 0.707,0.551 0.18,0.232 0.308,0.514 0.383,0.844 0.075,0.33 0.113,0.694 0.113,1.092 l 0,3.25 -0.732,0 0,-3.01 c 0,-0.412 -0.03,-0.762 -0.09,-1.047 -0.053,-0.285 -0.146,-0.517 -0.281,-0.697 -0.127,-0.18 -0.3,-0.308 -0.518,-0.383 -0.21,-0.082 -0.476,-0.123 -0.799,-0.123 -0.345,0 -0.643,0.019 -0.898,0.057 -0.248,0.037 -0.409,0.07 -0.484,0.1 l 0,5.107 -0.73,0 0,-5.613 c 0.217,-0.06 0.509,-0.126 0.877,-0.201 0.368,-0.075 0.817,-0.113 1.35,-0.113 z m 5.832,3.111 0.496,0 0,3.305 0.629,0 0,0.389 -0.629,0 0,1.373 -0.467,0 0,-1.373 -2.297,0 0,-0.293 c 0.088,-0.234 0.209,-0.499 0.365,-0.791 0.161,-0.292 0.341,-0.591 0.541,-0.898 0.2,-0.307 0.418,-0.608 0.652,-0.9 0.234,-0.297 0.47,-0.567 0.709,-0.811 z m 0.029,0.533 c -0.171,0.175 -0.344,0.378 -0.52,0.607 -0.175,0.229 -0.343,0.468 -0.504,0.717 -0.156,0.244 -0.303,0.49 -0.439,0.738 -0.137,0.249 -0.251,0.485 -0.344,0.709 l 1.807,0 0,-2.771 z" style="fill:#ececec;fill-opacity:1"/>
</svg>
