<svg xmlns="http://www.w3.org/2000/svg" viewBox="0 0 24 24">
 <path d="M 4,2 C 2.892,2 2,2.892 2,4 l 0,16 c 0,1.108 0.892,2 2,2 l 16,0 c 1.108,0 2,-0.892 2,-2 L 22,4 C 22,2.892 21.108,2 20,2 L 4,2 Z m 4.152,6.04 c 0.42,0 0.818,0.032 1.193,0.1 0.383,0.067 0.717,0.18 1,0.338 0.285,0.157 0.509,0.368 0.674,0.631 0.173,0.255 0.26,0.573 0.26,0.955 0,0.42 -0.109,0.78 -0.326,1.08 -0.21,0.293 -0.495,0.495 -0.855,0.607 0.225,0.053 0.432,0.129 0.619,0.227 0.188,0.098 0.352,0.223 0.494,0.381 0.142,0.15 0.251,0.337 0.326,0.563 0.083,0.217 0.125,0.482 0.125,0.789 0,0.735 -0.294,1.297 -0.879,1.688 -0.585,0.383 -1.488,0.572 -2.711,0.572 -0.127,0 -0.277,-0.006 -0.449,-0.021 C 7.458,15.943 7.285,15.928 7.105,15.905 6.932,15.89 6.766,15.871 6.609,15.848 6.452,15.818 6.317,15.788 6.205,15.758 l 0,-7.504 C 6.34,8.216 6.489,8.187 6.654,8.164 6.819,8.134 6.989,8.111 7.162,8.096 7.342,8.074 7.515,8.059 7.68,8.051 7.853,8.043 8.008,8.041 8.151,8.041 Z m 0,0.652 C 7.874,8.692 7.64,8.698 7.445,8.713 7.257,8.728 7.1,8.747 6.972,8.77 l 0,2.744 1.484,0 c 0.277,0 0.54,-0.017 0.787,-0.055 0.248,-0.045 0.463,-0.122 0.643,-0.227 0.188,-0.113 0.332,-0.258 0.438,-0.438 0.105,-0.188 0.158,-0.424 0.158,-0.709 0,-0.255 -0.057,-0.468 -0.17,-0.641 C 10.199,9.264 10.04,9.117 9.83,9.005 9.627,8.893 9.383,8.814 9.098,8.769 8.813,8.716 8.498,8.691 8.153,8.691 Z m 7.334,1.281 c 0.442,0 0.811,0.064 1.104,0.191 0.3,0.128 0.536,0.311 0.709,0.551 0.18,0.233 0.306,0.514 0.381,0.844 0.075,0.33 0.113,0.694 0.113,1.092 l 0,3.252 -0.73,0 0,-3.02 c 0,-0.412 -0.03,-0.762 -0.09,-1.047 -0.053,-0.285 -0.146,-0.517 -0.281,-0.697 -0.128,-0.18 -0.3,-0.306 -0.518,-0.381 -0.21,-0.082 -0.476,-0.125 -0.799,-0.125 -0.345,0 -0.645,0.019 -0.9,0.057 -0.247,0.037 -0.409,0.072 -0.484,0.102 l 0,5.107 -0.73,0 0,-5.613 c 0.217,-0.06 0.509,-0.128 0.877,-0.203 0.368,-0.075 0.817,-0.113 1.35,-0.113 z m -8.514,2.195 0,3.07 c 0.112,0.015 0.281,0.034 0.506,0.057 0.225,0.015 0.453,0.021 0.686,0.021 0.345,0 0.679,-0.021 1,-0.066 0.33,-0.045 0.618,-0.128 0.865,-0.248 0.248,-0.12 0.448,-0.284 0.598,-0.494 0.15,-0.21 0.225,-0.481 0.225,-0.811 0,-0.3 -0.053,-0.547 -0.158,-0.742 C 10.589,12.752 10.44,12.595 10.245,12.482 10.05,12.362 9.809,12.279 9.524,12.234 9.247,12.189 8.935,12.168 8.59,12.168 l -1.619,0 z" style="fill:#ececec;fill-opacity:1"/>
</svg>
