<svg xmlns="http://www.w3.org/2000/svg" viewBox="0 0 24 24">
 <path d="M 4,2 C 2.892,2 2,2.892 2,4 l 0,16 c 0,1.108 0.892,2 2,2 l 16,0 c 1.108,0 2,-0.892 2,-2 L 22,4 C 22,2.892 21.108,2 20,2 L 4,2 Z m 3.662,6.074 0.674,0 c 0.277,0.577 0.542,1.155 0.789,1.732 0.248,0.578 0.495,1.181 0.742,1.811 0.255,0.622 0.513,1.287 0.775,1.992 0.263,0.697 0.548,1.45 0.855,2.26 l -0.844,0 C 10.51,15.486 10.376,15.12 10.249,14.767 10.122,14.414 9.996,14.069 9.876,13.732 l -3.791,0 C 5.957,14.07 5.83,14.415 5.702,14.767 5.574,15.119 5.444,15.486 5.309,15.869 l -0.799,0 c 0.3,-0.81 0.581,-1.562 0.844,-2.26 C 5.617,12.904 5.872,12.239 6.12,11.617 6.375,10.987 6.626,10.384 6.874,9.806 7.121,9.228 7.384,8.651 7.661,8.074 Z M 7.976,8.951 C 7.691,9.596 7.414,10.252 7.144,10.92 6.881,11.588 6.607,12.308 6.322,13.08 l 3.318,0 C 9.355,12.307 9.078,11.587 8.808,10.92 8.538,10.252 8.261,9.596 7.976,8.951 Z m 6.576,0.99 c 0.24,0 0.466,0.019 0.676,0.057 0.217,0.037 0.367,0.074 0.449,0.111 l -0.145,0.631 c -0.06,-0.03 -0.186,-0.06 -0.373,-0.09 -0.18,-0.037 -0.419,-0.057 -0.719,-0.057 -0.315,0 -0.571,0.023 -0.766,0.068 -0.188,0.045 -0.311,0.081 -0.371,0.111 l 0,5.096 -0.73,0 0,-5.545 c 0.188,-0.083 0.445,-0.166 0.775,-0.248 0.33,-0.09 0.731,-0.135 1.203,-0.135 z m 4.6,3.09 0.029,0.402 c -0.297,0.02 -0.573,0.066 -0.826,0.139 -0.249,0.068 -0.471,0.177 -0.666,0.328 -0.195,0.146 -0.359,0.336 -0.49,0.57 -0.132,0.234 -0.221,0.522 -0.27,0.863 0.132,-0.068 0.289,-0.127 0.475,-0.176 0.185,-0.054 0.382,-0.08 0.592,-0.08 0.273,0 0.505,0.043 0.695,0.131 0.19,0.083 0.344,0.197 0.461,0.338 0.117,0.141 0.202,0.303 0.256,0.488 0.054,0.185 0.08,0.381 0.08,0.586 0,0.19 -0.029,0.38 -0.088,0.57 -0.058,0.19 -0.151,0.364 -0.277,0.52 -0.122,0.151 -0.279,0.276 -0.469,0.373 -0.185,0.098 -0.406,0.146 -0.664,0.146 -0.531,0 -0.937,-0.186 -1.215,-0.557 -0.273,-0.375 -0.41,-0.897 -0.41,-1.564 0,-0.99 0.238,-1.74 0.711,-2.252 0.478,-0.512 1.169,-0.787 2.076,-0.826 z m -1.199,2.463 c -0.224,0 -0.421,0.028 -0.592,0.082 -0.166,0.049 -0.323,0.106 -0.469,0.174 -0.01,0.083 -0.016,0.149 -0.016,0.197 l 0,0.17 c 0,0.229 0.016,0.446 0.045,0.65 0.034,0.205 0.093,0.385 0.176,0.541 0.088,0.156 0.202,0.28 0.344,0.373 0.141,0.088 0.322,0.131 0.541,0.131 0.18,0 0.334,-0.03 0.461,-0.094 0.127,-0.068 0.229,-0.156 0.307,-0.264 0.078,-0.107 0.134,-0.232 0.168,-0.373 0.039,-0.141 0.059,-0.291 0.059,-0.447 0,-0.39 -0.088,-0.676 -0.264,-0.861 -0.171,-0.185 -0.423,-0.279 -0.76,-0.279 z" style="fill:#ececec;fill-opacity:1"/>
</svg>
