<svg xmlns="http://www.w3.org/2000/svg" viewBox="0 0 24 24">
 <path d="M 4,2 C 2.892,2 2,2.892 2,4 l 0,16 c 0,1.108 0.892,2 2,2 l 16,0 c 1.108,0 2,-0.892 2,-2 L 22,4 C 22,2.892 21.108,2 20,2 L 4,2 Z m 6.484,5.934 c 0.293,0 0.559,0.019 0.799,0.057 0.24,0.037 0.451,0.085 0.631,0.145 0.18,0.053 0.333,0.11 0.461,0.17 0.127,0.053 0.225,0.101 0.293,0.146 L 12.42,9.116 C 12.232,9.003 11.992,8.895 11.699,8.79 11.414,8.678 11.058,8.62 10.631,8.62 c -0.488,0 -0.916,0.083 -1.283,0.248 -0.36,0.165 -0.663,0.397 -0.91,0.697 -0.247,0.3 -0.435,0.656 -0.563,1.068 -0.12,0.413 -0.18,0.871 -0.18,1.373 0,0.518 0.06,0.986 0.18,1.406 0.128,0.413 0.311,0.764 0.551,1.057 0.24,0.293 0.532,0.518 0.877,0.676 0.352,0.157 0.755,0.236 1.205,0.236 0.495,0 0.906,-0.045 1.236,-0.135 0.337,-0.098 0.593,-0.195 0.766,-0.293 l 0.213,0.652 c -0.053,0.038 -0.142,0.082 -0.27,0.135 -0.127,0.045 -0.287,0.094 -0.482,0.146 -0.195,0.053 -0.421,0.093 -0.676,0.123 -0.255,0.037 -0.54,0.057 -0.855,0.057 -0.502,0 -0.971,-0.09 -1.406,-0.27 C 8.607,15.616 8.232,15.354 7.909,15.009 7.594,14.664 7.343,14.24 7.155,13.738 c -0.18,-0.51 -0.27,-1.092 -0.27,-1.744 0,-0.653 0.098,-1.23 0.293,-1.732 C 7.38,9.752 7.647,9.324 7.977,8.979 8.307,8.634 8.688,8.376 9.123,8.204 c 0.435,-0.18 0.889,-0.27 1.361,-0.27 z m 5.506,2.035 c 0.24,0 0.466,0.019 0.676,0.057 0.217,0.037 0.367,0.076 0.449,0.113 l -0.146,0.629 c -0.06,-0.03 -0.184,-0.06 -0.371,-0.09 -0.18,-0.037 -0.421,-0.057 -0.721,-0.057 -0.315,0 -0.569,0.023 -0.764,0.068 -0.188,0.045 -0.311,0.083 -0.371,0.113 l 0,5.096 -0.732,0 0,-5.547 c 0.188,-0.082 0.447,-0.166 0.777,-0.248 0.33,-0.09 0.731,-0.135 1.203,-0.135 z" style="fill:#ececec;fill-opacity:1"/>
</svg>
