<svg xmlns="http://www.w3.org/2000/svg" viewBox="0 0 24 24">
 <path d="M 4,2 C 2.892,2 2,2.892 2,4 l 0,16 c 0,1.108 0.892,2 2,2 l 16,0 c 1.108,0 2,-0.892 2,-2 L 22,4 C 22,2.892 21.108,2 20,2 L 4,2 Z m 8.432,5.141 0,5.535 c 0.188,-0.18 0.398,-0.387 0.631,-0.619 0.232,-0.233 0.465,-0.469 0.697,-0.709 0.24,-0.24 0.466,-0.472 0.676,-0.697 0.21,-0.225 0.389,-0.423 0.539,-0.596 l 0.877,0 c -0.172,0.18 -0.366,0.382 -0.584,0.607 -0.218,0.225 -0.447,0.46 -0.688,0.707 -0.232,0.24 -0.465,0.476 -0.697,0.709 l -0.629,0.631 c 0.232,0.158 0.48,0.36 0.742,0.607 0.27,0.247 0.532,0.518 0.787,0.811 0.262,0.285 0.507,0.581 0.732,0.889 0.232,0.3 0.426,0.584 0.584,0.854 l -0.865,0 c -0.18,-0.3 -0.387,-0.592 -0.619,-0.877 -0.225,-0.293 -0.466,-0.565 -0.721,-0.82 -0.248,-0.255 -0.499,-0.487 -0.754,-0.697 -0.248,-0.21 -0.484,-0.387 -0.709,-0.529 l 0,2.924 -0.73,0 0,-8.594 0.73,-0.135 z m -8.365,0.934 0.764,0 0,4.803 c 0,0.428 0.049,0.8 0.146,1.115 0.105,0.307 0.248,0.561 0.428,0.764 0.18,0.203 0.397,0.354 0.652,0.451 0.255,0.098 0.54,0.145 0.855,0.145 0.315,0 0.6,-0.047 0.855,-0.145 0.255,-0.098 0.472,-0.249 0.652,-0.451 0.18,-0.202 0.319,-0.456 0.416,-0.764 0.105,-0.315 0.158,-0.688 0.158,-1.115 l 0,-4.803 0.764,0 0,4.904 c 0,0.427 -0.051,0.828 -0.156,1.203 -0.098,0.367 -0.259,0.691 -0.484,0.969 -0.225,0.277 -0.521,0.495 -0.889,0.652 -0.36,0.158 -0.799,0.236 -1.316,0.236 -0.518,0 -0.961,-0.079 -1.328,-0.236 C 5.224,15.646 4.932,15.428 4.707,15.151 4.482,14.873 4.318,14.55 4.213,14.182 4.115,13.807 4.067,13.406 4.067,12.979 l 0,-4.904 z m 14.289,4.869 c 0.253,0 0.473,0.039 0.658,0.117 0.185,0.073 0.336,0.169 0.453,0.291 0.122,0.122 0.208,0.262 0.262,0.418 0.059,0.156 0.088,0.317 0.088,0.482 0,0.161 -0.024,0.309 -0.072,0.445 -0.049,0.132 -0.111,0.253 -0.189,0.365 -0.078,0.107 -0.166,0.202 -0.264,0.285 -0.098,0.083 -0.193,0.154 -0.285,0.213 0.341,0.146 0.58,0.329 0.717,0.549 0.141,0.219 0.211,0.452 0.211,0.695 0,0.21 -0.039,0.401 -0.117,0.576 -0.073,0.175 -0.178,0.326 -0.314,0.453 -0.137,0.122 -0.301,0.217 -0.496,0.285 -0.195,0.073 -0.412,0.111 -0.65,0.111 -0.239,0 -0.457,-0.035 -0.652,-0.104 -0.19,-0.068 -0.355,-0.163 -0.496,-0.285 -0.137,-0.127 -0.244,-0.272 -0.322,-0.438 -0.073,-0.171 -0.109,-0.357 -0.109,-0.557 0,-0.171 0.024,-0.324 0.072,-0.461 0.049,-0.141 0.113,-0.266 0.191,-0.373 0.083,-0.112 0.175,-0.21 0.277,-0.293 0.107,-0.088 0.219,-0.163 0.336,-0.227 -0.297,-0.146 -0.5,-0.318 -0.607,-0.518 -0.107,-0.2 -0.16,-0.418 -0.16,-0.652 0,-0.21 0.036,-0.4 0.109,-0.57 0.073,-0.171 0.174,-0.315 0.301,-0.432 0.132,-0.122 0.286,-0.214 0.467,-0.277 0.18,-0.068 0.379,-0.102 0.594,-0.102 z m 0,0.408 c -0.161,0 -0.304,0.025 -0.426,0.074 -0.122,0.049 -0.224,0.117 -0.307,0.205 -0.078,0.083 -0.138,0.179 -0.182,0.291 -0.039,0.112 -0.059,0.23 -0.059,0.352 0,0.136 0.014,0.261 0.043,0.373 0.034,0.112 0.096,0.214 0.184,0.307 0.088,0.088 0.209,0.172 0.365,0.25 0.156,0.073 0.36,0.143 0.613,0.211 0.224,-0.127 0.404,-0.282 0.535,-0.467 0.132,-0.185 0.197,-0.417 0.197,-0.695 0,-0.112 -0.02,-0.223 -0.059,-0.33 -0.034,-0.107 -0.09,-0.202 -0.168,-0.285 -0.073,-0.088 -0.171,-0.154 -0.293,-0.203 -0.122,-0.054 -0.27,-0.082 -0.445,-0.082 z m -0.293,2.311 c -0.249,0.117 -0.442,0.277 -0.578,0.477 -0.137,0.195 -0.205,0.431 -0.205,0.709 0,0.136 0.023,0.264 0.066,0.381 0.044,0.117 0.11,0.219 0.197,0.307 0.093,0.088 0.204,0.157 0.336,0.211 0.136,0.049 0.296,0.074 0.477,0.074 0.18,0 0.335,-0.025 0.467,-0.074 0.137,-0.054 0.248,-0.123 0.336,-0.211 0.093,-0.088 0.161,-0.19 0.205,-0.307 0.044,-0.117 0.066,-0.244 0.066,-0.381 0,-0.21 -0.042,-0.38 -0.125,-0.512 -0.078,-0.132 -0.183,-0.239 -0.314,-0.322 -0.127,-0.083 -0.272,-0.149 -0.438,-0.197 -0.161,-0.049 -0.324,-0.101 -0.49,-0.154 z" style="fill:#ececec;fill-opacity:1"/>
</svg>
