<svg xmlns="http://www.w3.org/2000/svg" viewBox="0 0 24 24">
 <path d="M 4,2 C 2.892,2 2,2.892 2,4 l 0,16 c 0,1.108 0.892,2 2,2 l 16,0 c 1.108,0 2,-0.892 2,-2 L 22,4 C 22,2.892 21.108,2 20,2 L 4,2 Z m 4.926,5.904 c 0.577,0 1.053,0.064 1.428,0.191 0.375,0.12 0.65,0.237 0.822,0.35 l -0.26,0.652 C 10.706,8.947 10.421,8.828 10.061,8.738 9.701,8.64 9.311,8.592 8.891,8.592 c -0.39,0 -0.757,0.07 -1.102,0.213 -0.345,0.143 -0.645,0.356 -0.9,0.641 -0.255,0.285 -0.457,0.639 -0.607,1.059 -0.143,0.42 -0.215,0.908 -0.215,1.463 0,0.518 0.062,0.986 0.182,1.406 0.12,0.412 0.299,0.768 0.539,1.068 0.247,0.292 0.552,0.518 0.912,0.676 0.36,0.157 0.776,0.234 1.248,0.234 0.383,0 0.702,-0.017 0.957,-0.055 0.262,-0.045 0.437,-0.088 0.527,-0.125 l 0,-2.992 0.766,0 0,3.477 c -0.143,0.06 -0.424,0.135 -0.844,0.225 -0.412,0.098 -0.922,0.146 -1.529,0.146 -0.51,0 -0.983,-0.09 -1.418,-0.27 -0.435,-0.18 -0.814,-0.44 -1.137,-0.777 -0.315,-0.345 -0.562,-0.767 -0.742,-1.27 -0.18,-0.51 -0.27,-1.092 -0.27,-1.744 0,-0.652 0.098,-1.23 0.293,-1.732 C 5.746,9.725 6.008,9.301 6.338,8.964 6.676,8.619 7.065,8.357 7.508,8.177 7.95,7.997 8.423,7.906 8.926,7.906 Z m 5.986,2.037 c 0.24,0 0.466,0.019 0.676,0.057 0.217,0.037 0.367,0.074 0.449,0.111 l -0.146,0.631 c -0.06,-0.03 -0.184,-0.06 -0.371,-0.09 -0.18,-0.037 -0.421,-0.057 -0.721,-0.057 -0.315,0 -0.569,0.023 -0.764,0.068 -0.188,0.045 -0.311,0.081 -0.371,0.111 l 0,5.096 -0.732,0 0,-5.545 c 0.188,-0.083 0.447,-0.166 0.777,-0.248 0.33,-0.09 0.731,-0.135 1.203,-0.135 z m 3.494,3.111 0.336,0 0,5.066 -0.475,0 0,-4.342 c -0.054,0.059 -0.125,0.118 -0.213,0.182 -0.083,0.063 -0.178,0.126 -0.285,0.189 -0.107,0.058 -0.219,0.117 -0.336,0.176 -0.117,0.054 -0.235,0.099 -0.352,0.133 l -0.139,-0.367 c 0.293,-0.102 0.554,-0.231 0.783,-0.387 0.229,-0.161 0.455,-0.377 0.68,-0.65 z" style="fill:#ececec;fill-opacity:1"/>
</svg>
