<svg xmlns="http://www.w3.org/2000/svg" viewBox="0 0 24 24">
 <path d="M 4,2 C 2.892,2 2,2.892 2,4 l 0,16 c 0,1.108 0.892,2 2,2 l 16,0 c 1.108,0 2,-0.892 2,-2 L 22,4 C 22,2.892 21.108,2 20,2 L 4,2 Z m 9.887,5.635 0,3.082 c 0.24,-0.09 0.485,-0.156 0.732,-0.201 0.247,-0.053 0.495,-0.08 0.742,-0.08 0.45,0 0.825,0.064 1.125,0.191 0.3,0.127 0.541,0.313 0.721,0.553 0.18,0.232 0.304,0.514 0.371,0.844 0.075,0.33 0.111,0.692 0.111,1.09 l 0,3.252 -0.73,0 0,-3.02 c 0,-0.412 -0.03,-0.76 -0.09,-1.045 -0.053,-0.285 -0.146,-0.519 -0.281,-0.699 -0.128,-0.18 -0.3,-0.306 -0.518,-0.381 -0.217,-0.082 -0.492,-0.125 -0.822,-0.125 -0.127,0 -0.266,0.011 -0.416,0.033 -0.143,0.023 -0.277,0.05 -0.404,0.08 -0.127,0.022 -0.245,0.048 -0.35,0.078 -0.098,0.03 -0.161,0.053 -0.191,0.068 l 0,5.01 -0.73,0 0,-8.596 0.73,-0.135 z m -7.363,0.934 5.096,0 0,0.697 c -0.18,0.21 -0.389,0.466 -0.629,0.766 -0.232,0.3 -0.484,0.63 -0.754,0.99 -0.27,0.353 -0.547,0.732 -0.832,1.137 -0.277,0.397 -0.555,0.802 -0.832,1.215 -0.27,0.405 -0.53,0.806 -0.777,1.203 -0.24,0.398 -0.457,0.773 -0.652,1.125 l 4.59,0 0,0.664 -5.422,0 0,-0.574 c 0.165,-0.323 0.359,-0.674 0.584,-1.057 0.232,-0.39 0.48,-0.788 0.742,-1.193 0.263,-0.413 0.537,-0.824 0.822,-1.236 0.285,-0.413 0.566,-0.807 0.844,-1.182 0.277,-0.383 0.54,-0.736 0.787,-1.059 0.255,-0.322 0.487,-0.6 0.697,-0.832 l -4.264,0 0,-0.664 z" style="fill:#ececec;fill-opacity:1"/>
</svg>
