<svg xmlns="http://www.w3.org/2000/svg" viewBox="0 0 24 24">
 <path d="M 4,2 C 2.892,2 2,2.892 2,4 l 0,16 c 0,1.108 0.892,2 2,2 l 16,0 c 1.108,0 2,-0.892 2,-2 L 22,4 C 22,2.892 21.108,2 20,2 L 4,2 Z m 7.445,5.141 0,3.082 c 0.24,-0.09 0.483,-0.158 0.73,-0.203 0.247,-0.053 0.495,-0.078 0.742,-0.078 0.45,0 0.825,0.064 1.125,0.191 0.3,0.127 0.541,0.311 0.721,0.551 0.18,0.232 0.304,0.514 0.371,0.844 0.075,0.33 0.113,0.694 0.113,1.092 l 0,3.25 -0.732,0 0,-3.01 c 0,-0.412 -0.03,-0.762 -0.09,-1.047 -0.053,-0.285 -0.146,-0.517 -0.281,-0.697 -0.128,-0.18 -0.3,-0.308 -0.518,-0.383 -0.218,-0.082 -0.49,-0.123 -0.82,-0.123 -0.128,0 -0.266,0.011 -0.416,0.033 -0.143,0.022 -0.279,0.048 -0.406,0.078 -0.127,0.022 -0.243,0.05 -0.348,0.08 -0.098,0.03 -0.161,0.051 -0.191,0.066 l 0,5.01 -0.732,0 0,-8.594 0.732,-0.135 z M 6.07,8.006 c 1.103,0 1.923,0.211 2.463,0.631 0.54,0.42 0.811,1.017 0.811,1.789 0,0.443 -0.079,0.82 -0.236,1.135 -0.158,0.308 -0.383,0.559 -0.676,0.754 -0.292,0.188 -0.653,0.326 -1.08,0.416 -0.42,0.083 -0.895,0.125 -1.428,0.125 l -1.059,0 0,3.01 -0.764,0 0,-7.648 C 4.371,8.143 4.686,8.09 5.046,8.06 5.413,8.023 5.754,8.003 6.069,8.003 Z M 6.103,8.67 C 5.818,8.67 5.575,8.681 5.373,8.703 5.178,8.718 5.008,8.733 4.865,8.748 l 0,3.443 0.969,0 c 0.412,0 0.783,-0.023 1.113,-0.068 0.338,-0.053 0.623,-0.142 0.855,-0.27 0.24,-0.135 0.423,-0.318 0.551,-0.551 0.128,-0.232 0.191,-0.529 0.191,-0.889 0,-0.345 -0.07,-0.63 -0.213,-0.855 C 8.196,9.333 8.011,9.156 7.778,9.029 7.553,8.894 7.295,8.8 7.003,8.748 6.711,8.695 6.41,8.67 6.103,8.67 Z m 12.67,4.383 0.496,0 0,3.305 0.629,0 0,0.389 -0.629,0 0,1.373 -0.467,0 0,-1.373 -2.297,0 0,-0.293 c 0.088,-0.234 0.209,-0.499 0.365,-0.791 0.161,-0.292 0.341,-0.591 0.541,-0.898 0.2,-0.307 0.418,-0.608 0.652,-0.9 0.234,-0.297 0.47,-0.567 0.709,-0.811 z m 0.029,0.533 c -0.171,0.175 -0.344,0.378 -0.52,0.607 -0.175,0.229 -0.345,0.468 -0.506,0.717 -0.156,0.244 -0.301,0.49 -0.438,0.738 -0.136,0.249 -0.251,0.485 -0.344,0.709 l 1.807,0 0,-2.771 z" style="fill:#ececec;fill-opacity:1"/>
</svg>
