<svg xmlns="http://www.w3.org/2000/svg" viewBox="0 0 24 24">
 <path d="M 4,2 C 2.892,2 2,2.892 2,4 l 0,16 c 0,1.108 0.892,2 2,2 l 16,0 c 1.108,0 2,-0.892 2,-2 L 22,4 C 22,2.892 21.108,2 20,2 L 4,2 Z m 5.566,6.102 0.676,0 c 0.277,0.577 0.54,1.155 0.787,1.732 0.248,0.578 0.495,1.182 0.742,1.812 0.255,0.623 0.513,1.285 0.775,1.99 0.262,0.697 0.548,1.452 0.855,2.262 l -0.844,0 C 12.414,15.515 12.28,15.147 12.153,14.794 12.026,14.442 11.902,14.096 11.782,13.759 l -3.791,0 c -0.128,0.337 -0.255,0.683 -0.383,1.035 -0.128,0.353 -0.26,0.721 -0.395,1.104 l -0.799,0 c 0.3,-0.81 0.581,-1.564 0.844,-2.262 0.263,-0.705 0.518,-1.368 0.766,-1.99 C 8.279,11.016 8.53,10.411 8.778,9.834 9.026,9.256 9.288,8.679 9.565,8.102 Z M 9.88,8.979 c -0.285,0.645 -0.562,1.301 -0.832,1.969 -0.262,0.668 -0.535,1.388 -0.82,2.16 l 3.318,0 C 11.261,12.336 10.984,11.615 10.714,10.948 10.444,10.28 10.165,9.624 9.88,8.979 Z m 6.578,0.99 c 0.24,0 0.464,0.019 0.674,0.057 0.218,0.037 0.369,0.076 0.451,0.113 l -0.146,0.629 c -0.06,-0.03 -0.184,-0.06 -0.371,-0.09 -0.18,-0.037 -0.421,-0.057 -0.721,-0.057 -0.315,0 -0.571,0.023 -0.766,0.068 -0.188,0.045 -0.311,0.083 -0.371,0.113 l 0,5.096 -0.73,0 0,-5.547 c 0.188,-0.082 0.445,-0.166 0.775,-0.248 0.33,-0.09 0.733,-0.135 1.205,-0.135 z" style="fill:#ececec;fill-opacity:1"/>
</svg>
