<svg xmlns="http://www.w3.org/2000/svg" viewBox="0 0 24 24">
 <path d="M 4,2 C 2.892,2 2,2.892 2,4 l 0,16 c 0,1.108 0.892,2 2,2 l 16,0 c 1.108,0 2,-0.892 2,-2 L 22,4 C 22,2.892 21.108,2 20,2 L 4,2 Z m 1.898,5.904 c 0.293,0 0.559,0.019 0.799,0.057 0.24,0.037 0.451,0.086 0.631,0.146 0.18,0.052 0.333,0.108 0.461,0.168 0.128,0.053 0.225,0.101 0.293,0.146 L 7.834,9.085 C 7.646,8.973 7.406,8.864 7.113,8.759 6.828,8.647 6.472,8.591 6.045,8.591 5.557,8.591 5.131,8.672 4.764,8.837 4.404,9.002 4.099,9.236 3.852,9.536 c -0.248,0.3 -0.435,0.656 -0.563,1.068 -0.12,0.413 -0.18,0.869 -0.18,1.371 0,0.518 0.06,0.986 0.18,1.406 0.127,0.413 0.311,0.766 0.551,1.059 0.24,0.292 0.534,0.518 0.879,0.676 0.353,0.157 0.753,0.234 1.203,0.234 0.495,0 0.906,-0.045 1.236,-0.135 0.338,-0.098 0.593,-0.194 0.766,-0.291 l 0.215,0.652 C 8.086,15.613 7.995,15.658 7.868,15.711 7.74,15.756 7.581,15.805 7.386,15.857 7.191,15.91 6.965,15.95 6.71,15.98 6.455,16.017 6.17,16.037 5.855,16.037 5.353,16.037 4.884,15.947 4.449,15.767 4.021,15.587 3.646,15.323 3.324,14.978 3.009,14.633 2.758,14.211 2.57,13.708 2.39,13.198 2.3,12.616 2.3,11.964 2.3,11.312 2.398,10.734 2.593,10.232 2.795,9.722 3.062,9.294 3.392,8.949 3.722,8.604 4.103,8.346 4.538,8.174 4.973,7.994 5.427,7.903 5.899,7.903 Z m 5.73,2.037 c 0.735,0 1.268,0.213 1.598,0.641 0.038,-0.03 0.11,-0.079 0.215,-0.146 0.112,-0.075 0.251,-0.15 0.416,-0.225 0.165,-0.075 0.357,-0.139 0.574,-0.191 0.225,-0.053 0.472,-0.078 0.742,-0.078 0.442,0 0.798,0.068 1.068,0.203 0.277,0.128 0.491,0.311 0.641,0.551 0.15,0.233 0.252,0.514 0.305,0.844 0.052,0.33 0.078,0.69 0.078,1.08 l 0,3.25 -0.73,0 0,-3.01 c 0,-0.382 -0.019,-0.713 -0.057,-0.99 -0.03,-0.285 -0.098,-0.517 -0.203,-0.697 -0.098,-0.188 -0.24,-0.326 -0.428,-0.416 -0.188,-0.098 -0.43,-0.146 -0.73,-0.146 -0.225,0 -0.432,0.021 -0.619,0.066 -0.18,0.037 -0.338,0.086 -0.473,0.146 -0.135,0.06 -0.248,0.12 -0.338,0.18 -0.082,0.06 -0.142,0.105 -0.18,0.135 0.068,0.195 0.116,0.417 0.146,0.664 0.037,0.24 0.057,0.496 0.057,0.766 l 0,3.307 -0.73,0 0,-3.01 c 0,-0.382 -0.019,-0.713 -0.057,-0.99 -0.03,-0.285 -0.098,-0.517 -0.203,-0.697 -0.105,-0.188 -0.254,-0.326 -0.449,-0.416 -0.188,-0.098 -0.439,-0.146 -0.754,-0.146 -0.353,0 -0.653,0.019 -0.9,0.057 -0.24,0.037 -0.393,0.07 -0.461,0.1 l 0,5.107 -0.732,0 0,-5.613 c 0.218,-0.06 0.499,-0.126 0.844,-0.201 0.353,-0.075 0.806,-0.113 1.361,-0.113 z m 7.615,3.111 2.281,0 0,0.416 -1.865,0 c -0.005,0.093 -0.012,0.213 -0.021,0.359 -0.01,0.146 -0.02,0.297 -0.029,0.453 -0.01,0.151 -0.022,0.296 -0.037,0.438 -0.015,0.141 -0.025,0.255 -0.035,0.338 0.375,0.01 0.7,0.056 0.973,0.139 0.273,0.083 0.496,0.195 0.672,0.336 0.175,0.141 0.304,0.312 0.387,0.512 0.088,0.2 0.133,0.422 0.133,0.666 0,0.215 -0.036,0.414 -0.109,0.6 -0.068,0.185 -0.176,0.346 -0.322,0.482 -0.146,0.137 -0.332,0.244 -0.557,0.322 -0.224,0.078 -0.49,0.117 -0.797,0.117 -0.156,0 -0.301,-0.013 -0.438,-0.037 -0.132,-0.02 -0.252,-0.045 -0.359,-0.074 -0.102,-0.029 -0.191,-0.057 -0.264,-0.086 -0.073,-0.029 -0.126,-0.055 -0.16,-0.074 l 0.125,-0.424 c 0.029,0.02 0.078,0.043 0.146,0.072 0.073,0.029 0.155,0.059 0.248,0.088 0.098,0.024 0.205,0.047 0.322,0.066 0.122,0.02 0.247,0.029 0.379,0.029 0.244,0 0.447,-0.026 0.607,-0.08 0.166,-0.058 0.297,-0.137 0.395,-0.234 0.098,-0.098 0.166,-0.209 0.205,-0.336 0.044,-0.132 0.066,-0.273 0.066,-0.424 0,-0.195 -0.032,-0.371 -0.096,-0.527 -0.063,-0.156 -0.175,-0.287 -0.336,-0.395 -0.161,-0.107 -0.377,-0.189 -0.65,-0.242 -0.273,-0.058 -0.62,-0.088 -1.039,-0.088 0.029,-0.249 0.053,-0.475 0.072,-0.68 0.02,-0.21 0.038,-0.409 0.053,-0.6 0.015,-0.195 0.024,-0.382 0.029,-0.563 0.01,-0.185 0.017,-0.375 0.021,-0.57 z" style="fill:#ececec;fill-opacity:1"/>
</svg>
