<svg xmlns="http://www.w3.org/2000/svg" viewBox="0 0 24 24">
 <path d="M 4,2 C 2.892,2 2,2.892 2,4 l 0,16 c 0,1.108 0.892,2 2,2 l 16,0 c 1.108,0 2,-0.892 2,-2 L 22,4 C 22,2.892 21.108,2 20,2 L 4,2 Z m 4.275,6.01 c 1.072,0 1.878,0.202 2.418,0.607 0.547,0.405 0.822,1.01 0.822,1.801 0,0.585 -0.153,1.045 -0.461,1.383 -0.308,0.338 -0.712,0.582 -1.215,0.732 0.12,0.15 0.273,0.352 0.461,0.607 0.195,0.255 0.393,0.536 0.596,0.844 0.202,0.3 0.401,0.613 0.596,0.943 0.195,0.33 0.361,0.645 0.496,0.945 l -0.822,0 c -0.158,-0.3 -0.33,-0.598 -0.518,-0.898 -0.18,-0.3 -0.367,-0.59 -0.563,-0.867 C 9.897,13.822 9.714,13.56 9.534,13.32 L 9.061,12.689 C 8.821,12.711 8.58,12.724 8.34,12.724 l -1.26,0 0,3.148 -0.764,0 0,-7.648 C 6.586,8.149 6.899,8.096 7.259,8.066 7.626,8.028 7.965,8.009 8.273,8.009 Z m 0.09,0.664 C 8.08,8.674 7.829,8.685 7.611,8.707 7.401,8.722 7.224,8.737 7.082,8.752 l 0,3.318 1.059,0 c 0.353,0 0.685,-0.015 1,-0.045 0.315,-0.037 0.59,-0.112 0.822,-0.225 0.232,-0.12 0.416,-0.288 0.551,-0.506 0.135,-0.217 0.203,-0.514 0.203,-0.889 0,-0.345 -0.068,-0.63 -0.203,-0.855 C 10.379,9.325 10.202,9.148 9.985,9.021 9.768,8.886 9.516,8.796 9.231,8.751 8.953,8.699 8.666,8.673 8.366,8.673 Z m 4.783,1.383 0.73,0 0,3.03 c 0,0.412 0.032,0.762 0.092,1.047 0.06,0.285 0.156,0.517 0.291,0.697 0.135,0.172 0.308,0.298 0.518,0.381 0.218,0.075 0.48,0.113 0.787,0.113 0.345,0 0.645,-0.019 0.9,-0.057 0.255,-0.037 0.417,-0.072 0.484,-0.102 l 0,-5.107 0.73,0 0,5.615 c -0.217,0.06 -0.509,0.126 -0.877,0.201 -0.367,0.075 -0.817,0.113 -1.35,0.113 -0.435,0 -0.799,-0.064 -1.092,-0.191 -0.293,-0.127 -0.529,-0.307 -0.709,-0.539 -0.18,-0.232 -0.31,-0.514 -0.393,-0.844 -0.075,-0.33 -0.113,-0.694 -0.113,-1.092 l 0,-3.264 z" style="fill:#ececec;fill-opacity:1"/>
</svg>
