<svg xmlns="http://www.w3.org/2000/svg" viewBox="0 0 24 24">
 <path d="M 4,2 C 2.892,2 2,2.892 2,4 l 0,16 c 0,1.108 0.892,2 2,2 l 16,0 c 1.108,0 2,-0.892 2,-2 L 22,4 C 22,2.892 21.108,2 20,2 L 4,2 Z m 1.621,6.01 c 0.63,0 1.207,0.083 1.732,0.248 0.525,0.165 0.975,0.412 1.35,0.742 0.383,0.33 0.679,0.743 0.889,1.238 0.21,0.495 0.316,1.072 0.316,1.732 0,0.668 -0.106,1.249 -0.316,1.744 -0.21,0.495 -0.506,0.906 -0.889,1.236 -0.375,0.33 -0.825,0.577 -1.35,0.742 -0.525,0.165 -1.102,0.248 -1.732,0.248 -0.315,0 -0.645,-0.019 -0.99,-0.057 -0.345,-0.03 -0.648,-0.079 -0.91,-0.146 l 0,-7.514 C 3.983,8.148 4.286,8.095 4.631,8.065 4.976,8.028 5.306,8.008 5.621,8.008 Z m 0.09,0.664 C 5.306,8.674 5.01,8.685 4.822,8.707 4.642,8.729 4.529,8.744 4.484,8.752 l 0,6.447 c 0.045,0.008 0.158,0.022 0.338,0.045 0.187,0.023 0.484,0.033 0.889,0.033 0.563,0 1.055,-0.075 1.475,-0.225 0.42,-0.158 0.772,-0.379 1.057,-0.664 0.285,-0.285 0.498,-0.63 0.641,-1.035 C 9.027,12.941 9.099,12.48 9.099,11.97 9.099,11.46 9.027,11.002 8.884,10.597 8.741,10.192 8.528,9.847 8.243,9.562 7.958,9.277 7.606,9.06 7.186,8.91 6.766,8.753 6.274,8.674 5.711,8.674 Z m 8.05,1.248 c 0.713,0 1.277,0.234 1.697,0.699 0.428,0.465 0.643,1.181 0.643,2.148 0,0.06 -0.004,0.12 -0.012,0.18 0,0.06 -0.004,0.115 -0.012,0.168 l -4.084,0 c 0.023,0.712 0.199,1.26 0.529,1.643 0.33,0.383 0.854,0.574 1.574,0.574 0.398,0 0.713,-0.038 0.945,-0.113 0.233,-0.075 0.401,-0.139 0.506,-0.191 l 0.137,0.631 c -0.105,0.06 -0.305,0.13 -0.598,0.213 -0.285,0.082 -0.622,0.125 -1.012,0.125 -0.51,0 -0.945,-0.075 -1.305,-0.225 -0.36,-0.15 -0.656,-0.361 -0.889,-0.631 -0.232,-0.27 -0.403,-0.59 -0.508,-0.957 -0.105,-0.375 -0.156,-0.782 -0.156,-1.225 0,-0.51 0.07,-0.953 0.213,-1.328 0.15,-0.383 0.342,-0.702 0.574,-0.957 0.24,-0.255 0.511,-0.443 0.811,-0.563 0.307,-0.127 0.623,-0.191 0.945,-0.191 z m 0.01,0.652 c -0.263,0 -0.499,0.053 -0.709,0.158 -0.202,0.105 -0.382,0.248 -0.539,0.428 -0.15,0.172 -0.269,0.375 -0.359,0.607 -0.083,0.232 -0.131,0.475 -0.146,0.73 l 3.33,0 C 15.333,11.889 15.19,11.418 14.92,11.081 14.65,10.743 14.267,10.573 13.772,10.573 Z m 4.852,2.373 c 0.492,0 0.865,0.121 1.113,0.365 0.249,0.239 0.373,0.573 0.373,1 0,0.19 -0.035,0.37 -0.104,0.541 -0.068,0.166 -0.16,0.326 -0.277,0.482 -0.112,0.156 -0.242,0.307 -0.389,0.453 -0.146,0.146 -0.294,0.293 -0.445,0.439 -0.127,0.122 -0.251,0.246 -0.373,0.373 -0.117,0.122 -0.225,0.246 -0.322,0.373 -0.093,0.122 -0.168,0.243 -0.227,0.365 -0.054,0.117 -0.08,0.235 -0.08,0.352 l 0,0.014 2.391,0 0,0.416 -2.916,0 c 0,-0.01 -0.003,-0.026 -0.008,-0.051 l 0,-0.123 c 0,-0.229 0.04,-0.442 0.123,-0.637 0.083,-0.2 0.188,-0.387 0.314,-0.563 0.132,-0.175 0.276,-0.339 0.432,-0.49 0.161,-0.151 0.315,-0.298 0.461,-0.439 0.122,-0.117 0.236,-0.229 0.344,-0.336 0.112,-0.112 0.21,-0.227 0.293,-0.344 0.083,-0.117 0.149,-0.241 0.197,-0.373 0.049,-0.132 0.072,-0.276 0.072,-0.432 0,-0.341 -0.092,-0.584 -0.277,-0.73 -0.18,-0.151 -0.41,-0.227 -0.688,-0.227 -0.156,0 -0.294,0.02 -0.416,0.059 -0.122,0.039 -0.23,0.085 -0.322,0.139 -0.088,0.049 -0.163,0.099 -0.227,0.152 -0.063,0.054 -0.109,0.096 -0.139,0.125 l -0.248,-0.33 c 0.029,-0.034 0.079,-0.081 0.152,-0.145 0.078,-0.068 0.173,-0.136 0.285,-0.199 0.117,-0.063 0.251,-0.116 0.402,-0.16 0.151,-0.049 0.319,-0.072 0.504,-0.072 z" style="fill:#ececec;fill-opacity:1"/>
</svg>
