<svg xmlns="http://www.w3.org/2000/svg" viewBox="0 0 24 24">
 <path d="M 4,2 C 2.892,2 2,2.892 2,4 l 0,16 c 0,1.108 0.892,2 2,2 l 16,0 c 1.108,0 2,-0.892 2,-2 L 22,4 C 22,2.892 21.108,2 20,2 L 4,2 Z m 12.873,5.584 0,7.312 c 0,0.18 0.015,0.327 0.045,0.439 0.038,0.105 0.089,0.19 0.156,0.258 0.067,0.06 0.155,0.105 0.26,0.135 0.113,0.03 0.245,0.058 0.395,0.08 l -0.102,0.607 c -0.247,-0.008 -0.465,-0.042 -0.652,-0.102 -0.18,-0.053 -0.335,-0.136 -0.463,-0.248 -0.12,-0.12 -0.214,-0.269 -0.281,-0.449 -0.06,-0.188 -0.09,-0.42 -0.09,-0.697 l 0,-7.201 0.732,-0.135 z m -10.05,0.934 0.674,0 c 0.225,0.375 0.466,0.81 0.721,1.305 0.255,0.488 0.506,0.999 0.754,1.531 0.255,0.525 0.498,1.045 0.73,1.563 0.24,0.51 0.451,0.972 0.631,1.385 0.18,-0.413 0.387,-0.875 0.619,-1.385 0.24,-0.518 0.483,-1.038 0.73,-1.563 0.255,-0.533 0.511,-1.044 0.766,-1.531 0.255,-0.495 0.494,-0.93 0.719,-1.305 l 0.643,0 c 0.127,1.185 0.232,2.427 0.314,3.725 0.09,1.297 0.169,2.655 0.236,4.072 l -0.777,0 C 13.538,15.108 13.487,13.957 13.427,12.862 13.375,11.759 13.3,10.739 13.202,9.801 c -0.06,0.105 -0.154,0.284 -0.281,0.539 -0.127,0.255 -0.274,0.551 -0.439,0.889 -0.165,0.337 -0.338,0.702 -0.518,1.092 -0.18,0.383 -0.357,0.758 -0.529,1.125 -0.172,0.36 -0.33,0.694 -0.473,1 -0.135,0.307 -0.239,0.555 -0.314,0.742 l -0.686,0 C 9.887,15 9.778,14.753 9.636,14.446 9.501,14.138 9.348,13.804 9.175,13.446 9.003,13.079 8.826,12.704 8.646,12.321 8.466,11.931 8.293,11.567 8.128,11.229 7.963,10.891 7.816,10.595 7.689,10.34 7.562,10.085 7.468,9.906 7.408,9.801 7.31,10.739 7.232,11.759 7.172,12.862 7.119,13.957 7.071,15.108 7.026,16.315 l -0.754,0 C 6.339,14.897 6.416,13.54 6.499,12.243 6.589,10.945 6.698,9.703 6.825,8.518 Z" style="fill:#ececec;fill-opacity:1"/>
</svg>
