<svg xmlns="http://www.w3.org/2000/svg" viewBox="0 0 24 24">
 <path d="M 4,2 C 2.892,2 2,2.892 2,4 l 0,16 c 0,1.108 0.892,2 2,2 l 16,0 c 1.108,0 2,-0.892 2,-2 L 22,4 C 22,2.892 21.108,2 20,2 L 4,2 Z m 4.143,5.904 c 0.21,0 0.415,0.015 0.617,0.045 0.203,0.03 0.39,0.072 0.563,0.125 0.18,0.045 0.342,0.096 0.484,0.156 0.15,0.06 0.274,0.124 0.371,0.191 L 9.908,9.064 C 9.691,8.914 9.424,8.793 9.109,8.703 8.801,8.613 8.467,8.568 8.109,8.568 7.861,8.568 7.633,8.596 7.423,8.648 7.221,8.693 7.044,8.77 6.894,8.882 6.744,8.987 6.625,9.123 6.535,9.288 6.453,9.453 6.41,9.651 6.41,9.884 c 0,0.24 0.047,0.442 0.137,0.607 0.09,0.165 0.214,0.308 0.371,0.428 0.165,0.12 0.355,0.229 0.572,0.326 0.217,0.098 0.454,0.2 0.709,0.305 0.308,0.127 0.597,0.253 0.867,0.381 0.277,0.127 0.516,0.279 0.719,0.451 0.203,0.173 0.364,0.381 0.484,0.629 0.12,0.248 0.18,0.552 0.18,0.912 0,0.705 -0.247,1.233 -0.742,1.586 -0.487,0.352 -1.15,0.529 -1.99,0.529 -0.3,0 -0.575,-0.019 -0.822,-0.057 C 6.648,15.944 6.426,15.899 6.231,15.846 6.036,15.786 5.872,15.726 5.737,15.666 5.602,15.606 5.498,15.553 5.423,15.508 l 0.246,-0.664 c 0.075,0.045 0.177,0.098 0.305,0.158 0.128,0.06 0.277,0.12 0.449,0.18 0.172,0.053 0.368,0.097 0.586,0.135 0.217,0.038 0.456,0.057 0.719,0.057 0.607,0 1.08,-0.109 1.418,-0.326 0.338,-0.225 0.506,-0.585 0.506,-1.08 0,-0.285 -0.055,-0.521 -0.168,-0.709 C 9.379,13.064 9.236,12.902 9.056,12.775 8.876,12.64 8.669,12.529 8.437,12.439 8.205,12.341 7.962,12.239 7.707,12.134 7.385,12.006 7.095,11.876 6.84,11.741 6.585,11.606 6.368,11.455 6.188,11.29 6.008,11.117 5.869,10.924 5.772,10.706 5.682,10.489 5.637,10.233 5.637,9.94 5.637,9.273 5.859,8.765 6.301,8.42 6.743,8.075 7.359,7.902 8.147,7.902 Z m 5.664,2.037 c 0.24,0 0.466,0.019 0.676,0.057 0.218,0.037 0.367,0.074 0.449,0.111 l -0.146,0.631 c -0.06,-0.03 -0.184,-0.06 -0.371,-0.09 -0.18,-0.037 -0.419,-0.057 -0.719,-0.057 -0.315,0 -0.571,0.023 -0.766,0.068 -0.188,0.045 -0.311,0.081 -0.371,0.111 l 0,5.096 -0.732,0 0,-5.545 c 0.188,-0.083 0.447,-0.166 0.777,-0.248 0.33,-0.09 0.731,-0.135 1.203,-0.135 z m 3.063,3 c 0.254,0 0.472,0.03 0.652,0.094 0.185,0.063 0.337,0.154 0.459,0.271 0.122,0.112 0.213,0.249 0.271,0.41 0.058,0.156 0.088,0.326 0.088,0.512 0,0.297 -0.081,0.54 -0.242,0.73 -0.156,0.185 -0.357,0.319 -0.605,0.402 0.137,0.034 0.268,0.087 0.395,0.16 0.132,0.068 0.247,0.159 0.35,0.271 0.102,0.107 0.187,0.239 0.25,0.395 0.063,0.156 0.094,0.339 0.094,0.549 0,0.214 -0.039,0.411 -0.117,0.592 -0.073,0.18 -0.185,0.338 -0.336,0.475 -0.146,0.132 -0.333,0.236 -0.563,0.314 -0.229,0.073 -0.498,0.111 -0.805,0.111 -0.161,0 -0.309,-0.013 -0.445,-0.037 C 16.184,18.17 16.067,18.145 15.964,18.116 15.862,18.087 15.773,18.059 15.7,18.03 15.632,18.001 15.582,17.975 15.548,17.956 l 0.123,-0.424 c 0.029,0.02 0.078,0.043 0.146,0.072 0.068,0.029 0.15,0.059 0.242,0.088 0.098,0.024 0.203,0.047 0.32,0.066 0.122,0.02 0.255,0.029 0.396,0.029 0.463,0 0.794,-0.095 0.994,-0.285 0.2,-0.195 0.299,-0.457 0.299,-0.783 0,-0.215 -0.04,-0.392 -0.123,-0.533 -0.078,-0.141 -0.189,-0.253 -0.33,-0.336 -0.137,-0.088 -0.297,-0.149 -0.482,-0.184 -0.18,-0.039 -0.373,-0.059 -0.578,-0.059 l -0.072,0 0,-0.395 0.168,0 c 0.132,0 0.266,-0.013 0.402,-0.037 0.141,-0.029 0.269,-0.079 0.381,-0.152 0.117,-0.073 0.212,-0.171 0.285,-0.293 0.078,-0.122 0.115,-0.279 0.115,-0.469 0,-0.161 -0.026,-0.296 -0.08,-0.408 -0.054,-0.117 -0.126,-0.211 -0.219,-0.279 -0.088,-0.068 -0.193,-0.115 -0.314,-0.145 -0.117,-0.034 -0.241,-0.053 -0.373,-0.053 -0.263,0 -0.467,0.036 -0.613,0.109 -0.146,0.073 -0.267,0.142 -0.359,0.205 l -0.205,-0.373 c 0.049,-0.034 0.11,-0.073 0.184,-0.117 0.078,-0.044 0.167,-0.084 0.27,-0.123 0.102,-0.039 0.216,-0.071 0.338,-0.096 0.127,-0.029 0.262,-0.043 0.408,-0.043 z" style="fill:#ececec;fill-opacity:1"/>
</svg>
