<svg xmlns="http://www.w3.org/2000/svg" viewBox="0 0 24 24">
 <path d="M 4,2 C 2.892,2 2,2.892 2,4 l 0,16 c 0,1.108 0.892,2 2,2 l 16,0 c 1.108,0 2,-0.892 2,-2 L 22,4 C 22,2.892 21.108,2 20,2 L 4,2 Z m 4.061,5.904 c 0.21,0 0.417,0.015 0.619,0.045 0.202,0.03 0.39,0.072 0.563,0.125 0.18,0.045 0.342,0.096 0.484,0.156 0.15,0.06 0.274,0.124 0.371,0.191 L 9.828,9.064 C 9.611,8.914 9.344,8.793 9.029,8.703 8.721,8.613 8.387,8.568 8.029,8.568 7.782,8.568 7.553,8.596 7.343,8.648 7.14,8.693 6.964,8.77 6.814,8.882 6.664,8.987 6.545,9.123 6.455,9.288 6.373,9.453 6.33,9.651 6.33,9.884 c 0,0.24 0.045,0.442 0.135,0.607 0.09,0.165 0.216,0.308 0.373,0.428 0.165,0.12 0.355,0.229 0.572,0.326 0.218,0.098 0.454,0.2 0.709,0.305 0.308,0.127 0.597,0.253 0.867,0.381 0.277,0.127 0.516,0.279 0.719,0.451 0.203,0.173 0.364,0.381 0.484,0.629 0.12,0.248 0.18,0.552 0.18,0.912 0,0.705 -0.247,1.233 -0.742,1.586 -0.488,0.352 -1.152,0.529 -1.992,0.529 -0.3,0 -0.573,-0.019 -0.82,-0.057 C 6.568,15.944 6.346,15.899 6.151,15.846 5.956,15.786 5.792,15.726 5.657,15.666 5.522,15.606 5.416,15.553 5.341,15.508 l 0.248,-0.664 c 0.075,0.045 0.177,0.098 0.305,0.158 0.128,0.06 0.277,0.12 0.449,0.18 0.173,0.053 0.368,0.097 0.586,0.135 0.218,0.038 0.456,0.057 0.719,0.057 0.607,0 1.08,-0.109 1.418,-0.326 0.338,-0.225 0.506,-0.585 0.506,-1.08 0,-0.285 -0.055,-0.521 -0.168,-0.709 C 9.299,13.064 9.156,12.902 8.976,12.775 8.796,12.64 8.589,12.529 8.357,12.439 8.125,12.341 7.882,12.239 7.627,12.134 7.304,12.006 7.015,11.876 6.76,11.741 6.505,11.606 6.288,11.455 6.108,11.29 5.928,11.117 5.789,10.924 5.692,10.706 5.602,10.489 5.557,10.233 5.557,9.94 5.557,9.273 5.779,8.765 6.221,8.42 6.663,8.075 7.277,7.902 8.065,7.902 Z m 5.666,2.037 c 0.24,0 0.466,0.019 0.676,0.057 0.218,0.037 0.367,0.074 0.449,0.111 l -0.146,0.631 c -0.06,-0.03 -0.184,-0.06 -0.371,-0.09 -0.18,-0.037 -0.421,-0.057 -0.721,-0.057 -0.315,0 -0.569,0.023 -0.764,0.068 -0.188,0.045 -0.311,0.081 -0.371,0.111 l 0,5.096 -0.732,0 0,-5.545 c 0.188,-0.083 0.447,-0.166 0.777,-0.248 0.33,-0.09 0.731,-0.135 1.203,-0.135 z m 4.598,3.09 0.029,0.402 c -0.297,0.02 -0.573,0.066 -0.826,0.139 -0.249,0.068 -0.469,0.177 -0.664,0.328 -0.195,0.146 -0.359,0.336 -0.49,0.57 -0.132,0.234 -0.223,0.522 -0.271,0.863 0.132,-0.068 0.291,-0.127 0.477,-0.176 0.185,-0.054 0.382,-0.08 0.592,-0.08 0.273,0 0.503,0.043 0.693,0.131 0.19,0.083 0.344,0.197 0.461,0.338 0.117,0.141 0.202,0.303 0.256,0.488 0.054,0.185 0.082,0.381 0.082,0.586 0,0.19 -0.029,0.38 -0.088,0.57 -0.058,0.19 -0.153,0.364 -0.279,0.52 -0.122,0.151 -0.277,0.276 -0.467,0.373 -0.185,0.098 -0.408,0.146 -0.666,0.146 -0.531,0 -0.935,-0.186 -1.213,-0.557 -0.273,-0.375 -0.41,-0.897 -0.41,-1.564 0,-0.99 0.236,-1.74 0.709,-2.252 0.478,-0.512 1.169,-0.787 2.076,-0.826 z m -1.199,2.463 c -0.224,0 -0.421,0.028 -0.592,0.082 -0.166,0.049 -0.322,0.106 -0.469,0.174 -0.01,0.083 -0.014,0.149 -0.014,0.197 l 0,0.17 c 0,0.229 0.014,0.446 0.043,0.65 0.034,0.205 0.093,0.385 0.176,0.541 0.088,0.156 0.202,0.28 0.344,0.373 0.141,0.088 0.322,0.131 0.541,0.131 0.18,0 0.334,-0.03 0.461,-0.094 0.127,-0.068 0.229,-0.156 0.307,-0.264 0.078,-0.107 0.136,-0.232 0.17,-0.373 0.039,-0.141 0.057,-0.291 0.057,-0.447 0,-0.39 -0.086,-0.676 -0.262,-0.861 -0.171,-0.185 -0.425,-0.279 -0.762,-0.279 z" style="fill:#ececec;fill-opacity:1"/>
</svg>
