<svg xmlns="http://www.w3.org/2000/svg" viewBox="0 0 24 24">
 <path d="M 4,2 C 2.892,2 2,2.892 2,4 l 0,16 c 0,1.108 0.892,2 2,2 l 16,0 c 1.108,0 2,-0.892 2,-2 L 22,4 C 22,2.892 21.108,2 20,2 L 4,2 Z m 4.824,5.904 c 0.292,0 0.559,0.019 0.799,0.057 0.24,0.037 0.451,0.086 0.631,0.146 0.18,0.052 0.333,0.108 0.461,0.168 0.127,0.053 0.225,0.101 0.293,0.146 L 10.76,9.085 C 10.572,8.973 10.332,8.864 10.039,8.759 9.754,8.647 9.398,8.591 8.971,8.591 c -0.487,0 -0.916,0.081 -1.283,0.246 -0.36,0.165 -0.663,0.399 -0.91,0.699 -0.247,0.3 -0.435,0.656 -0.563,1.068 -0.12,0.413 -0.18,0.869 -0.18,1.371 0,0.518 0.06,0.986 0.18,1.406 0.128,0.413 0.311,0.766 0.551,1.059 0.24,0.292 0.532,0.518 0.877,0.676 0.353,0.157 0.755,0.234 1.205,0.234 0.495,0 0.906,-0.045 1.236,-0.135 0.338,-0.098 0.593,-0.194 0.766,-0.291 l 0.213,0.652 c -0.053,0.037 -0.142,0.082 -0.27,0.135 -0.128,0.045 -0.289,0.094 -0.484,0.146 -0.195,0.053 -0.419,0.093 -0.674,0.123 -0.255,0.037 -0.54,0.057 -0.855,0.057 -0.503,0 -0.971,-0.09 -1.406,-0.27 -0.428,-0.18 -0.803,-0.444 -1.125,-0.789 -0.315,-0.345 -0.566,-0.767 -0.754,-1.27 -0.18,-0.51 -0.27,-1.092 -0.27,-1.744 0,-0.652 0.098,-1.23 0.293,-1.732 C 5.721,9.722 5.987,9.294 6.317,8.949 6.647,8.604 7.028,8.346 7.463,8.174 7.898,7.994 8.352,7.903 8.824,7.903 Z m 5.102,2.01 c 0.397,0 0.724,0.034 0.979,0.102 0.263,0.068 0.446,0.127 0.551,0.18 l -0.17,0.652 c -0.09,-0.045 -0.243,-0.105 -0.461,-0.18 -0.21,-0.075 -0.521,-0.111 -0.934,-0.111 -0.165,0 -0.323,0.019 -0.473,0.057 -0.143,0.03 -0.27,0.081 -0.383,0.156 -0.113,0.068 -0.202,0.157 -0.27,0.27 -0.068,0.105 -0.102,0.237 -0.102,0.395 0,0.158 0.03,0.292 0.09,0.404 0.06,0.113 0.147,0.215 0.26,0.305 0.12,0.083 0.263,0.161 0.428,0.236 0.172,0.075 0.366,0.158 0.584,0.248 0.225,0.09 0.44,0.184 0.643,0.281 0.21,0.09 0.393,0.201 0.551,0.336 0.158,0.127 0.285,0.285 0.383,0.473 0.098,0.18 0.146,0.41 0.146,0.688 0,0.525 -0.2,0.921 -0.598,1.191 -0.39,0.27 -0.925,0.406 -1.607,0.406 -0.51,0 -0.9,-0.047 -1.17,-0.137 -0.27,-0.083 -0.451,-0.144 -0.541,-0.189 l 0.191,-0.664 c 0.022,0.015 0.071,0.041 0.146,0.078 0.075,0.03 0.175,0.068 0.303,0.113 0.127,0.037 0.279,0.07 0.451,0.1 0.18,0.03 0.387,0.045 0.619,0.045 0.42,0 0.765,-0.066 1.035,-0.201 0.277,-0.143 0.416,-0.379 0.416,-0.709 0,-0.158 -0.028,-0.292 -0.08,-0.404 -0.045,-0.112 -0.124,-0.215 -0.236,-0.305 -0.112,-0.09 -0.262,-0.175 -0.449,-0.258 -0.18,-0.082 -0.406,-0.18 -0.676,-0.293 -0.217,-0.09 -0.422,-0.18 -0.617,-0.27 -0.195,-0.097 -0.368,-0.206 -0.518,-0.326 -0.15,-0.128 -0.271,-0.279 -0.361,-0.451 -0.09,-0.173 -0.135,-0.381 -0.135,-0.629 0,-0.472 0.177,-0.856 0.529,-1.148 0.36,-0.293 0.852,-0.439 1.475,-0.439 z m 4.514,3.135 0.336,0 0,5.066 -0.475,0 0,-4.342 c -0.054,0.059 -0.125,0.118 -0.213,0.182 -0.083,0.063 -0.178,0.126 -0.285,0.189 -0.107,0.058 -0.219,0.117 -0.336,0.176 -0.117,0.054 -0.235,0.099 -0.352,0.133 l -0.139,-0.367 c 0.293,-0.102 0.554,-0.231 0.783,-0.387 0.229,-0.161 0.455,-0.377 0.68,-0.65 z" style="fill:#ececec;fill-opacity:1"/>
</svg>
