<svg xmlns="http://www.w3.org/2000/svg" viewBox="0 0 24 24">
 <path d="M 4,2 C 2.892,2 2,2.892 2,4 l 0,16 c 0,1.108 0.892,2 2,2 l 16,0 c 1.108,0 2,-0.892 2,-2 L 22,4 C 22,2.892 21.108,2 20,2 L 4,2 Z m 3.516,6.01 c 0.42,0 0.816,0.034 1.191,0.102 0.383,0.067 0.717,0.18 1,0.338 0.285,0.157 0.509,0.366 0.674,0.629 0.172,0.255 0.26,0.575 0.26,0.957 0,0.42 -0.109,0.78 -0.326,1.08 -0.21,0.293 -0.495,0.495 -0.855,0.607 0.225,0.053 0.432,0.127 0.619,0.225 0.188,0.098 0.352,0.225 0.494,0.383 0.143,0.15 0.251,0.338 0.326,0.563 0.082,0.218 0.125,0.48 0.125,0.787 0,0.735 -0.294,1.297 -0.879,1.688 C 9.56,15.751 8.657,15.943 7.434,15.943 7.306,15.943 7.157,15.935 6.985,15.92 6.82,15.913 6.647,15.898 6.467,15.875 6.294,15.86 6.128,15.843 5.971,15.82 5.813,15.79 5.679,15.76 5.567,15.73 l 0,-7.504 C 5.702,8.189 5.853,8.159 6.018,8.136 6.183,8.106 6.351,8.083 6.524,8.068 6.704,8.046 6.877,8.031 7.042,8.023 7.215,8.016 7.372,8.011 7.515,8.011 Z m 0,0.652 C 7.239,8.662 7.002,8.67 6.807,8.685 6.619,8.7 6.462,8.719 6.334,8.742 l 0,2.744 1.484,0 c 0.277,0 0.54,-0.019 0.787,-0.057 0.247,-0.045 0.463,-0.12 0.643,-0.225 C 9.436,11.092 9.58,10.945 9.686,10.765 9.791,10.577 9.844,10.343 9.844,10.058 9.844,9.803 9.789,9.588 9.676,9.415 9.564,9.235 9.402,9.09 9.192,8.977 8.99,8.864 8.745,8.786 8.46,8.741 8.175,8.688 7.862,8.661 7.517,8.661 Z m 7.086,1.283 c 0.24,0 0.464,0.019 0.674,0.057 0.217,0.037 0.369,0.074 0.451,0.111 l -0.146,0.631 c -0.06,-0.03 -0.184,-0.06 -0.371,-0.09 -0.18,-0.037 -0.421,-0.057 -0.721,-0.057 -0.315,0 -0.571,0.023 -0.766,0.068 -0.188,0.045 -0.311,0.081 -0.371,0.111 l 0,5.096 -0.73,0 0,-5.545 c 0.188,-0.083 0.445,-0.166 0.775,-0.248 0.33,-0.09 0.733,-0.135 1.205,-0.135 z m -8.268,2.193 0,3.072 c 0.112,0.015 0.281,0.032 0.506,0.055 0.225,0.015 0.453,0.023 0.686,0.023 0.345,0 0.679,-0.023 1,-0.068 0.33,-0.045 0.62,-0.126 0.867,-0.246 0.248,-0.12 0.446,-0.286 0.596,-0.496 0.15,-0.21 0.225,-0.481 0.225,-0.811 0,-0.3 -0.053,-0.547 -0.158,-0.742 C 9.951,12.722 9.802,12.565 9.607,12.452 9.412,12.332 9.171,12.251 8.886,12.206 8.609,12.161 8.297,12.138 7.952,12.138 l -1.619,0 z m 11.762,0.918 0.336,0 0,5.066 -0.475,0 0,-4.342 c -0.054,0.059 -0.125,0.118 -0.213,0.182 -0.083,0.063 -0.178,0.126 -0.285,0.189 -0.107,0.058 -0.219,0.117 -0.336,0.176 -0.117,0.054 -0.235,0.099 -0.352,0.133 l -0.139,-0.367 c 0.293,-0.102 0.552,-0.231 0.781,-0.387 0.229,-0.161 0.457,-0.377 0.682,-0.65 z" style="fill:#ececec;fill-opacity:1"/>
</svg>
