<svg xmlns="http://www.w3.org/2000/svg" viewBox="0 0 24 24">
 <path d="M 4,2 C 2.892,2 2,2.892 2,4 l 0,16 c 0,1.108 0.892,2 2,2 l 16,0 c 1.108,0 2,-0.892 2,-2 L 22,4 C 22,2.892 21.108,2 20,2 L 4,2 Z m 4.613,5.904 c 0.21,0 0.417,0.015 0.619,0.045 0.203,0.03 0.39,0.072 0.563,0.125 0.18,0.045 0.342,0.096 0.484,0.156 0.15,0.06 0.274,0.124 0.371,0.191 L 10.379,9.064 C 10.162,8.914 9.895,8.793 9.58,8.703 9.273,8.613 8.94,8.568 8.58,8.568 8.333,8.568 8.102,8.596 7.892,8.648 7.69,8.693 7.515,8.77 7.365,8.882 7.215,8.987 7.094,9.123 7.004,9.288 6.922,9.453 6.881,9.651 6.881,9.884 c 0,0.24 0.045,0.442 0.135,0.607 0.09,0.165 0.214,0.308 0.371,0.428 0.165,0.12 0.357,0.229 0.574,0.326 0.218,0.098 0.454,0.2 0.709,0.305 0.308,0.127 0.595,0.253 0.865,0.381 0.277,0.127 0.518,0.279 0.721,0.451 0.203,0.173 0.364,0.381 0.484,0.629 0.12,0.248 0.18,0.552 0.18,0.912 0,0.705 -0.247,1.233 -0.742,1.586 -0.488,0.352 -1.152,0.529 -1.992,0.529 -0.3,0 -0.573,-0.019 -0.82,-0.057 C 7.118,15.944 6.897,15.899 6.702,15.846 6.507,15.786 6.341,15.726 6.206,15.666 6.071,15.606 5.967,15.553 5.892,15.508 L 6.14,14.844 c 0.075,0.045 0.175,0.098 0.303,0.158 0.128,0.06 0.279,0.12 0.451,0.18 0.173,0.053 0.366,0.097 0.584,0.135 0.218,0.038 0.458,0.057 0.721,0.057 0.607,0 1.08,-0.109 1.418,-0.326 0.338,-0.225 0.506,-0.585 0.506,-1.08 0,-0.285 -0.057,-0.521 -0.17,-0.709 C 9.848,13.064 9.707,12.902 9.527,12.775 9.347,12.64 9.14,12.529 8.908,12.439 8.676,12.341 8.431,12.239 8.176,12.134 7.854,12.006 7.566,11.876 7.311,11.741 7.056,11.606 6.839,11.455 6.659,11.29 6.479,11.117 6.34,10.924 6.243,10.706 6.153,10.489 6.108,10.233 6.108,9.94 6.108,9.273 6.328,8.765 6.77,8.42 7.212,8.075 7.828,7.902 8.616,7.902 Z m 5.666,2.037 c 0.24,0 0.464,0.019 0.674,0.057 0.217,0.037 0.369,0.074 0.451,0.111 l -0.146,0.631 c -0.06,-0.03 -0.184,-0.06 -0.371,-0.09 -0.18,-0.037 -0.421,-0.057 -0.721,-0.057 -0.315,0 -0.571,0.023 -0.766,0.068 -0.188,0.045 -0.311,0.081 -0.371,0.111 l 0,5.096 -0.73,0 0,-5.545 c 0.188,-0.083 0.445,-0.166 0.775,-0.248 0.33,-0.09 0.733,-0.135 1.205,-0.135 z m 3.494,3.111 0.336,0 0,5.066 -0.475,0 0,-4.342 c -0.054,0.059 -0.125,0.118 -0.213,0.182 -0.083,0.063 -0.178,0.126 -0.285,0.189 -0.107,0.058 -0.219,0.117 -0.336,0.176 -0.117,0.054 -0.235,0.099 -0.352,0.133 l -0.139,-0.367 c 0.293,-0.102 0.552,-0.231 0.781,-0.387 0.229,-0.161 0.457,-0.377 0.682,-0.65 z" style="fill:#ececec;fill-opacity:1"/>
</svg>
