<svg xmlns="http://www.w3.org/2000/svg" viewBox="0 0 24 24">
 <path d="M 4,2 C 2.892,2 2,2.892 2,4 l 0,16 c 0,1.108 0.892,2 2,2 l 16,0 c 1.108,0 2,-0.892 2,-2 L 22,4 C 22,2.892 21.108,2 20,2 L 4,2 Z m 7.686,5.141 0,3.082 c 0.24,-0.09 0.485,-0.158 0.732,-0.203 0.248,-0.053 0.495,-0.078 0.742,-0.078 0.45,0 0.825,0.064 1.125,0.191 0.3,0.127 0.539,0.311 0.719,0.551 0.18,0.232 0.306,0.514 0.373,0.844 0.075,0.33 0.111,0.694 0.111,1.092 l 0,3.25 -0.73,0 0,-3.01 c 0,-0.412 -0.03,-0.762 -0.09,-1.047 -0.053,-0.285 -0.146,-0.517 -0.281,-0.697 -0.127,-0.18 -0.3,-0.308 -0.518,-0.383 -0.218,-0.082 -0.492,-0.123 -0.822,-0.123 -0.127,0 -0.266,0.011 -0.416,0.033 -0.142,0.022 -0.277,0.048 -0.404,0.078 -0.127,0.022 -0.245,0.05 -0.35,0.08 -0.098,0.03 -0.161,0.051 -0.191,0.066 l 0,5.01 -0.73,0 0,-8.594 0.73,-0.135 z m -7.363,0.934 5.096,0 0,0.697 C 9.239,8.982 9.03,9.238 8.79,9.538 8.558,9.838 8.306,10.166 8.036,10.526 7.766,10.879 7.489,11.258 7.204,11.663 6.927,12.061 6.648,12.465 6.37,12.878 6.1,13.283 5.842,13.686 5.595,14.083 5.355,14.48 5.138,14.855 4.943,15.208 l 4.59,0 0,0.662 -5.422,0 0,-0.572 C 4.276,14.976 4.47,14.622 4.695,14.239 4.928,13.849 5.175,13.453 5.437,13.048 5.699,12.636 5.974,12.222 6.259,11.81 6.544,11.398 6.825,11.003 7.103,10.628 7.38,10.245 7.643,9.894 7.89,9.571 8.145,9.249 8.377,8.971 8.587,8.739 l -4.264,0 0,-0.664 z m 13.908,4.869 c 0.492,0 0.865,0.121 1.113,0.365 0.249,0.239 0.373,0.573 0.373,1 0,0.19 -0.035,0.37 -0.104,0.541 -0.068,0.166 -0.16,0.326 -0.277,0.482 -0.112,0.156 -0.242,0.307 -0.389,0.453 -0.146,0.146 -0.294,0.293 -0.445,0.439 -0.127,0.122 -0.251,0.246 -0.373,0.373 -0.117,0.122 -0.225,0.246 -0.322,0.373 -0.093,0.122 -0.168,0.243 -0.227,0.365 -0.054,0.117 -0.08,0.235 -0.08,0.352 l 0,0.014 2.391,0 0,0.416 -2.916,0 c 0,-0.01 -0.003,-0.026 -0.008,-0.051 l 0,-0.123 c 0,-0.229 0.04,-0.442 0.123,-0.637 0.083,-0.2 0.188,-0.387 0.314,-0.563 0.132,-0.175 0.276,-0.339 0.432,-0.49 0.161,-0.151 0.315,-0.298 0.461,-0.439 0.122,-0.117 0.236,-0.229 0.344,-0.336 0.112,-0.112 0.21,-0.227 0.293,-0.344 0.083,-0.117 0.149,-0.241 0.197,-0.373 0.049,-0.132 0.072,-0.276 0.072,-0.432 0,-0.341 -0.092,-0.584 -0.277,-0.73 -0.18,-0.151 -0.41,-0.227 -0.688,-0.227 -0.156,0 -0.294,0.02 -0.416,0.059 -0.122,0.039 -0.23,0.085 -0.322,0.139 -0.088,0.049 -0.163,0.099 -0.227,0.152 -0.063,0.054 -0.109,0.096 -0.139,0.125 l -0.248,-0.33 c 0.029,-0.034 0.079,-0.081 0.152,-0.145 0.078,-0.068 0.173,-0.136 0.285,-0.199 0.117,-0.063 0.251,-0.116 0.402,-0.16 0.151,-0.049 0.319,-0.072 0.504,-0.072 z" style="fill:#ececec;fill-opacity:1"/>
</svg>
