<svg xmlns="http://www.w3.org/2000/svg" viewBox="0 0 24 24">
 <path d="M 4,2 C 2.892,2 2,2.892 2,4 l 0,16 c 0,1.108 0.892,2 2,2 l 16,0 c 1.108,0 2,-0.892 2,-2 L 22,4 C 22,2.892 21.108,2 20,2 L 4,2 Z m 1.945,6.01 c 0.42,0 0.816,0.034 1.191,0.102 0.383,0.067 0.717,0.18 1,0.338 0.285,0.157 0.509,0.366 0.674,0.629 0.173,0.255 0.26,0.575 0.26,0.957 0,0.42 -0.109,0.78 -0.326,1.08 -0.21,0.293 -0.495,0.495 -0.855,0.607 0.225,0.053 0.432,0.127 0.619,0.225 0.188,0.098 0.352,0.225 0.494,0.383 0.143,0.15 0.251,0.338 0.326,0.563 0.082,0.218 0.125,0.48 0.125,0.787 0,0.735 -0.294,1.297 -0.879,1.688 -0.585,0.382 -1.488,0.574 -2.711,0.574 -0.128,0 -0.277,-0.008 -0.449,-0.023 C 5.249,15.913 5.076,15.898 4.896,15.875 4.724,15.86 4.559,15.843 4.402,15.82 4.245,15.79 4.108,15.76 3.996,15.73 l 0,-7.504 C 4.131,8.189 4.282,8.159 4.447,8.136 4.612,8.106 4.78,8.083 4.953,8.068 5.133,8.046 5.306,8.031 5.471,8.023 5.644,8.016 5.801,8.011 5.944,8.011 Z m 0,0.652 C 5.668,8.662 5.431,8.67 5.236,8.685 5.048,8.7 4.891,8.719 4.763,8.742 l 0,2.744 1.484,0 c 0.277,0 0.54,-0.019 0.787,-0.057 0.248,-0.045 0.463,-0.12 0.643,-0.225 C 7.865,11.092 8.009,10.945 8.115,10.765 8.22,10.577 8.273,10.343 8.273,10.058 8.273,9.803 8.218,9.588 8.105,9.415 7.993,9.235 7.831,9.09 7.621,8.977 7.418,8.864 7.174,8.786 6.889,8.741 6.604,8.688 6.291,8.661 5.946,8.661 Z m 7.332,1.283 c 0.443,0 0.811,0.064 1.104,0.191 0.3,0.127 0.536,0.311 0.709,0.551 0.18,0.232 0.308,0.514 0.383,0.844 0.075,0.33 0.111,0.694 0.111,1.092 l 0,3.25 -0.73,0 0,-3.01 c 0,-0.412 -0.03,-0.762 -0.09,-1.047 -0.053,-0.285 -0.146,-0.517 -0.281,-0.697 -0.127,-0.18 -0.3,-0.308 -0.518,-0.383 -0.21,-0.082 -0.476,-0.123 -0.799,-0.123 -0.345,0 -0.645,0.019 -0.9,0.057 -0.248,0.037 -0.409,0.07 -0.484,0.1 l 0,5.107 -0.73,0 0,-5.613 c 0.217,-0.06 0.509,-0.126 0.877,-0.201 0.368,-0.075 0.817,-0.113 1.35,-0.113 z m -8.514,2.193 0,3.072 c 0.113,0.015 0.281,0.032 0.506,0.055 0.225,0.015 0.453,0.023 0.686,0.023 0.345,0 0.679,-0.023 1,-0.068 0.33,-0.045 0.62,-0.126 0.867,-0.246 0.248,-0.12 0.446,-0.286 0.596,-0.496 0.15,-0.21 0.225,-0.481 0.225,-0.811 0,-0.3 -0.053,-0.547 -0.158,-0.742 C 8.38,12.722 8.231,12.565 8.036,12.452 7.841,12.332 7.6,12.251 7.315,12.206 7.038,12.161 6.726,12.138 6.381,12.138 l -1.619,0 z m 13.527,0.809 c 0.254,0 0.47,0.03 0.65,0.094 0.185,0.063 0.339,0.154 0.461,0.271 0.122,0.112 0.211,0.249 0.27,0.41 0.058,0.156 0.088,0.326 0.088,0.512 0,0.297 -0.079,0.54 -0.24,0.73 -0.156,0.185 -0.359,0.319 -0.607,0.402 0.136,0.034 0.268,0.087 0.395,0.16 0.132,0.068 0.249,0.159 0.352,0.271 0.102,0.107 0.185,0.239 0.248,0.395 0.063,0.156 0.096,0.339 0.096,0.549 0,0.214 -0.039,0.411 -0.117,0.592 -0.073,0.18 -0.185,0.338 -0.336,0.475 -0.146,0.132 -0.335,0.236 -0.564,0.314 -0.229,0.073 -0.496,0.111 -0.803,0.111 -0.161,0 -0.311,-0.013 -0.447,-0.037 -0.132,-0.02 -0.247,-0.045 -0.35,-0.074 -0.102,-0.029 -0.191,-0.057 -0.264,-0.086 -0.068,-0.029 -0.12,-0.055 -0.154,-0.074 l 0.125,-0.424 c 0.029,0.02 0.078,0.043 0.146,0.072 0.068,0.029 0.148,0.059 0.24,0.088 0.098,0.024 0.205,0.047 0.322,0.066 0.122,0.02 0.253,0.029 0.395,0.029 0.463,0 0.794,-0.095 0.994,-0.285 0.2,-0.195 0.301,-0.457 0.301,-0.783 0,-0.215 -0.042,-0.392 -0.125,-0.533 -0.078,-0.141 -0.187,-0.253 -0.328,-0.336 -0.137,-0.088 -0.297,-0.149 -0.482,-0.184 -0.18,-0.039 -0.373,-0.059 -0.578,-0.059 l -0.074,0 0,-0.395 0.168,0 c 0.132,0 0.266,-0.013 0.402,-0.037 0.141,-0.029 0.269,-0.079 0.381,-0.152 0.117,-0.073 0.212,-0.171 0.285,-0.293 0.078,-0.122 0.117,-0.279 0.117,-0.469 0,-0.161 -0.026,-0.296 -0.08,-0.408 -0.054,-0.117 -0.128,-0.211 -0.221,-0.279 -0.088,-0.068 -0.193,-0.115 -0.314,-0.145 -0.117,-0.034 -0.239,-0.053 -0.371,-0.053 -0.263,0 -0.469,0.036 -0.615,0.109 -0.146,0.073 -0.265,0.142 -0.357,0.205 l -0.205,-0.373 c 0.049,-0.034 0.109,-0.073 0.182,-0.117 0.078,-0.044 0.169,-0.084 0.271,-0.123 0.102,-0.039 0.214,-0.071 0.336,-0.096 0.127,-0.029 0.264,-0.043 0.41,-0.043 z" style="fill:#ececec;fill-opacity:1"/>
</svg>
