<svg xmlns="http://www.w3.org/2000/svg" viewBox="0 0 24 24">
 <path d="M 4,2 C 2.892,2 2,2.892 2,4 l 0,16 c 0,1.108 0.892,2 2,2 l 16,0 c 1.108,0 2,-0.892 2,-2 L 22,4 C 22,2.892 21.108,2 20,2 L 4,2 Z m 0.24,6.074 0.764,0 0,3.387 4.23,0 0,-3.387 0.766,0 0,7.795 -0.766,0 0,-3.746 -4.23,0 0,3.746 -0.764,0 0,-7.795 z m 9.926,1.844 c 0.712,0 1.279,0.234 1.699,0.699 0.428,0.465 0.641,1.181 0.641,2.148 0,0.06 -0.004,0.12 -0.012,0.18 0,0.06 -0.002,0.115 -0.01,0.168 l -4.084,0 c 0.022,0.712 0.199,1.26 0.529,1.643 0.33,0.383 0.854,0.574 1.574,0.574 0.397,0 0.713,-0.038 0.945,-0.113 0.232,-0.075 0.401,-0.139 0.506,-0.191 l 0.135,0.631 c -0.105,0.06 -0.303,0.13 -0.596,0.213 -0.285,0.082 -0.624,0.125 -1.014,0.125 -0.51,0 -0.945,-0.075 -1.305,-0.225 -0.36,-0.15 -0.656,-0.361 -0.889,-0.631 -0.232,-0.27 -0.401,-0.59 -0.506,-0.957 -0.105,-0.375 -0.158,-0.782 -0.158,-1.225 0,-0.51 0.072,-0.953 0.215,-1.328 0.15,-0.383 0.342,-0.702 0.574,-0.957 0.24,-0.255 0.509,-0.443 0.809,-0.563 0.307,-0.127 0.623,-0.191 0.945,-0.191 z m 0.012,0.652 c -0.262,0 -0.499,0.053 -0.709,0.158 -0.203,0.105 -0.382,0.248 -0.539,0.428 -0.15,0.172 -0.271,0.375 -0.361,0.607 -0.082,0.232 -0.131,0.475 -0.146,0.73 l 3.33,0 c -0.015,-0.608 -0.158,-1.079 -0.428,-1.416 -0.27,-0.338 -0.651,-0.508 -1.146,-0.508 z m 5.246,2.482 0.336,0 0,5.066 -0.475,0 0,-4.342 c -0.054,0.059 -0.123,0.118 -0.211,0.182 -0.083,0.063 -0.178,0.126 -0.285,0.189 -0.107,0.058 -0.221,0.117 -0.338,0.176 -0.117,0.054 -0.233,0.099 -0.35,0.133 L 17.96,14.089 c 0.293,-0.102 0.554,-0.231 0.783,-0.387 0.229,-0.161 0.455,-0.377 0.68,-0.65 z" style="fill:#ececec;fill-opacity:1"/>
</svg>
