<svg xmlns="http://www.w3.org/2000/svg" viewBox="0 0 24 24">
 <path d="M 4,2 C 2.892,2 2,2.892 2,4 l 0,16 c 0,1.108 0.892,2 2,2 l 16,0 c 1.108,0 2,-0.892 2,-2 L 22,4 C 22,2.892 21.108,2 20,2 L 4,2 Z m 4.113,5.904 c 0.21,0 0.415,0.015 0.617,0.045 0.203,0.03 0.39,0.072 0.563,0.125 0.18,0.045 0.342,0.096 0.484,0.156 0.15,0.06 0.274,0.124 0.371,0.191 L 9.878,9.064 C 9.661,8.914 9.394,8.793 9.079,8.703 8.771,8.613 8.437,8.568 8.079,8.568 7.832,8.568 7.603,8.596 7.393,8.648 7.191,8.693 7.014,8.77 6.864,8.882 6.714,8.987 6.595,9.123 6.505,9.288 6.423,9.453 6.382,9.651 6.382,9.884 c 0,0.24 0.045,0.442 0.135,0.607 0.09,0.165 0.214,0.308 0.371,0.428 0.165,0.12 0.355,0.229 0.572,0.326 0.217,0.098 0.454,0.2 0.709,0.305 0.308,0.127 0.597,0.253 0.867,0.381 0.277,0.127 0.518,0.279 0.721,0.451 0.203,0.173 0.362,0.381 0.482,0.629 0.12,0.248 0.18,0.552 0.18,0.912 0,0.705 -0.247,1.233 -0.742,1.586 -0.487,0.352 -1.15,0.529 -1.99,0.529 -0.3,0 -0.575,-0.019 -0.822,-0.057 C 6.618,15.944 6.396,15.899 6.201,15.846 6.006,15.786 5.842,15.726 5.707,15.666 5.572,15.606 5.468,15.553 5.393,15.508 l 0.246,-0.664 c 0.075,0.045 0.177,0.098 0.305,0.158 0.128,0.06 0.277,0.12 0.449,0.18 0.173,0.053 0.368,0.097 0.586,0.135 0.218,0.038 0.456,0.057 0.719,0.057 0.607,0 1.08,-0.109 1.418,-0.326 0.338,-0.225 0.506,-0.585 0.506,-1.08 0,-0.285 -0.055,-0.521 -0.168,-0.709 C 9.349,13.064 9.206,12.902 9.026,12.775 8.846,12.64 8.639,12.529 8.407,12.439 8.175,12.341 7.932,12.239 7.677,12.134 7.355,12.006 7.065,11.876 6.81,11.741 6.555,11.606 6.338,11.455 6.158,11.29 5.978,11.117 5.839,10.924 5.742,10.706 5.652,10.489 5.607,10.233 5.607,9.94 5.607,9.273 5.829,8.765 6.271,8.42 6.713,8.075 7.329,7.902 8.117,7.902 Z m 5.664,2.037 c 0.24,0 0.466,0.019 0.676,0.057 0.217,0.037 0.367,0.074 0.449,0.111 l -0.146,0.631 c -0.06,-0.03 -0.184,-0.06 -0.371,-0.09 -0.18,-0.037 -0.419,-0.057 -0.719,-0.057 -0.315,0 -0.571,0.023 -0.766,0.068 -0.188,0.045 -0.311,0.081 -0.371,0.111 l 0,5.096 -0.732,0 0,-5.545 c 0.188,-0.083 0.447,-0.166 0.777,-0.248 0.33,-0.09 0.731,-0.135 1.203,-0.135 z m 3.209,3 c 0.531,0 0.934,0.187 1.207,0.563 0.278,0.371 0.416,0.889 0.416,1.557 0,1.019 -0.243,1.788 -0.73,2.305 -0.488,0.512 -1.199,0.768 -2.135,0.768 l -0.016,-0.395 c 0.322,0 0.617,-0.036 0.885,-0.109 0.268,-0.073 0.5,-0.187 0.695,-0.338 0.2,-0.156 0.361,-0.353 0.482,-0.592 0.127,-0.244 0.212,-0.536 0.256,-0.877 -0.132,0.068 -0.289,0.128 -0.475,0.182 -0.185,0.049 -0.384,0.074 -0.594,0.074 -0.273,0 -0.503,-0.042 -0.693,-0.125 -0.19,-0.088 -0.344,-0.202 -0.461,-0.344 -0.117,-0.141 -0.202,-0.305 -0.256,-0.49 -0.054,-0.185 -0.08,-0.376 -0.08,-0.576 0,-0.185 0.029,-0.374 0.088,-0.564 0.059,-0.19 0.148,-0.361 0.27,-0.512 0.127,-0.156 0.284,-0.281 0.469,-0.379 0.19,-0.098 0.413,-0.146 0.672,-0.146 z m 0.008,0.416 c -0.18,0 -0.334,0.035 -0.461,0.104 -0.127,0.063 -0.229,0.149 -0.307,0.256 -0.078,0.107 -0.137,0.23 -0.176,0.371 -0.034,0.141 -0.051,0.288 -0.051,0.439 0,0.385 0.085,0.67 0.256,0.855 0.176,0.185 0.431,0.277 0.768,0.277 0.224,0 0.418,-0.024 0.584,-0.072 0.171,-0.054 0.33,-0.115 0.477,-0.184 0.005,-0.059 0.008,-0.114 0.008,-0.168 0.005,-0.054 0.006,-0.113 0.006,-0.182 0,-0.229 -0.017,-0.448 -0.051,-0.652 -0.029,-0.205 -0.088,-0.385 -0.176,-0.541 -0.083,-0.156 -0.195,-0.277 -0.336,-0.365 -0.141,-0.093 -0.322,-0.139 -0.541,-0.139 z" style="fill:#ececec;fill-opacity:1"/>
</svg>
