<?xml version="1.0" encoding="UTF-8" standalone="no"?>
<svg
   xmlns:dc="http://purl.org/dc/elements/1.1/"
   xmlns:cc="http://creativecommons.org/ns#"
   xmlns:rdf="http://www.w3.org/1999/02/22-rdf-syntax-ns#"
   xmlns:svg="http://www.w3.org/2000/svg"
   xmlns="http://www.w3.org/2000/svg"
   xmlns:sodipodi="http://sodipodi.sourceforge.net/DTD/sodipodi-0.dtd"
   xmlns:inkscape="http://www.inkscape.org/namespaces/inkscape"
   viewBox="0 0 24 24"
   id="svg2"
   version="1.1"
   inkscape:version="0.91 r13725"
   sodipodi:docname="indicator-keyboard-Ki.svg">
  <metadata
     id="metadata10">
    <rdf:RDF>
      <cc:Work
         rdf:about="">
        <dc:format>image/svg+xml</dc:format>
        <dc:type
           rdf:resource="http://purl.org/dc/dcmitype/StillImage" />
      </cc:Work>
    </rdf:RDF>
  </metadata>
  <defs
     id="defs8" />
  <sodipodi:namedview
     pagecolor="#ffffff"
     bordercolor="#666666"
     borderopacity="1"
     objecttolerance="10"
     gridtolerance="10"
     guidetolerance="10"
     inkscape:pageopacity="0"
     inkscape:pageshadow="2"
     inkscape:window-width="640"
     inkscape:window-height="480"
     id="namedview6"
     showgrid="false"
     inkscape:zoom="9.8333333"
     inkscape:cx="12"
     inkscape:cy="12"
     inkscape:window-x="65"
     inkscape:window-y="24"
     inkscape:window-maximized="0"
     inkscape:current-layer="svg2" />
  <path
     d="M 4,2 C 2.892,2 2,2.892 2,4 l 0,16 c 0,1.108 0.892,2 2,2 l 16,0 c 1.108,0 2,-0.892 2,-2 L 22,4 C 22,2.892 21.108,2 20,2 L 4,2 Z m 11.26,5.934 c 0.15,0 0.278,0.051 0.383,0.156 0.105,0.098 0.158,0.234 0.158,0.406 0,0.173 -0.053,0.311 -0.158,0.416 C 15.538,9.01 15.41,9.058 15.26,9.058 15.11,9.058 14.982,9.009 14.877,8.912 14.772,8.807 14.721,8.668 14.721,8.496 14.721,8.323 14.772,8.187 14.877,8.09 14.982,7.985 15.11,7.934 15.26,7.934 Z m -7.06,0.338 0.766,0 0,3.633 c 0.285,-0.255 0.6,-0.547 0.945,-0.877 0.353,-0.337 0.698,-0.676 1.035,-1.014 0.345,-0.338 0.667,-0.659 0.967,-0.967 0.3,-0.308 0.541,-0.565 0.721,-0.775 l 0.922,0 c -0.218,0.232 -0.48,0.51 -0.787,0.832 -0.308,0.315 -0.634,0.641 -0.979,0.979 -0.345,0.338 -0.69,0.672 -1.035,1 -0.337,0.323 -0.642,0.606 -0.912,0.854 0.217,0.135 0.45,0.305 0.697,0.508 0.255,0.195 0.511,0.412 0.766,0.652 0.262,0.232 0.518,0.48 0.766,0.742 0.255,0.255 0.491,0.513 0.709,0.775 0.225,0.263 0.423,0.518 0.596,0.766 0.18,0.248 0.325,0.476 0.438,0.686 l -0.854,0 c -0.255,-0.39 -0.545,-0.776 -0.867,-1.158 -0.315,-0.383 -0.647,-0.743 -1,-1.08 -0.353,-0.338 -0.713,-0.644 -1.08,-0.922 -0.36,-0.277 -0.709,-0.51 -1.047,-0.697 l 0,3.857 -0.766,0 0,-7.795 z m 6.701,1.979 0.73,0 0,5.816 -0.73,0 0,-5.816 z"
     style="fill:#ececec;fill-opacity:1"
     id="path4"
     inkscape:connector-curvature="0" />
</svg>
