<svg xmlns="http://www.w3.org/2000/svg" viewBox="0 0 24 24">
 <path d="M 4,2 C 2.892,2 2,2.892 2,4 l 0,16 c 0,1.108 0.892,2 2,2 l 16,0 c 1.108,0 2,-0.892 2,-2 L 22,4 C 22,2.892 21.108,2 20,2 L 4,2 Z m 2.428,6.01 c 1.072,0 1.878,0.202 2.418,0.607 0.547,0.405 0.822,1.01 0.822,1.801 0,0.585 -0.153,1.045 -0.461,1.383 -0.307,0.338 -0.712,0.582 -1.215,0.732 0.12,0.15 0.273,0.352 0.461,0.607 0.195,0.255 0.393,0.536 0.596,0.844 0.203,0.3 0.401,0.615 0.596,0.945 0.195,0.33 0.361,0.643 0.496,0.943 l -0.822,0 C 9.161,15.572 8.989,15.274 8.801,14.974 8.621,14.674 8.434,14.384 8.238,14.107 8.05,13.822 7.867,13.56 7.687,13.32 L 7.214,12.689 c -0.24,0.023 -0.481,0.035 -0.721,0.035 l -1.26,0 0,3.148 -0.764,0 0,-7.648 C 4.739,8.149 5.052,8.096 5.412,8.066 5.779,8.029 6.118,8.009 6.426,8.009 Z m 0.09,0.664 c -0.285,0 -0.536,0.011 -0.754,0.033 -0.21,0.015 -0.387,0.03 -0.529,0.045 l 0,3.32 1.059,0 c 0.352,0 0.685,-0.015 1,-0.045 C 7.609,11.989 7.884,11.913 8.116,11.8 8.348,11.68 8.532,11.512 8.667,11.294 8.802,11.076 8.87,10.78 8.87,10.405 8.87,10.06 8.802,9.775 8.667,9.55 8.532,9.325 8.355,9.15 8.138,9.023 7.921,8.888 7.669,8.797 7.384,8.752 7.107,8.699 6.819,8.674 6.519,8.674 Z m 7.156,1.248 c 0.39,0 0.748,0.077 1.07,0.227 0.322,0.143 0.6,0.347 0.832,0.617 0.24,0.263 0.423,0.582 0.551,0.957 0.135,0.375 0.203,0.791 0.203,1.248 0,0.457 -0.068,0.875 -0.203,1.25 -0.127,0.375 -0.311,0.693 -0.551,0.955 -0.232,0.262 -0.51,0.469 -0.832,0.619 -0.323,0.142 -0.68,0.215 -1.07,0.215 -0.39,0 -0.746,-0.072 -1.068,-0.215 -0.322,-0.15 -0.604,-0.357 -0.844,-0.619 -0.232,-0.262 -0.416,-0.58 -0.551,-0.955 -0.128,-0.375 -0.191,-0.793 -0.191,-1.25 0,-0.457 0.064,-0.873 0.191,-1.248 0.135,-0.375 0.318,-0.695 0.551,-0.957 0.24,-0.27 0.521,-0.475 0.844,-0.617 0.322,-0.15 0.678,-0.227 1.068,-0.227 z m 0,0.664 c -0.578,0 -1.034,0.217 -1.371,0.652 -0.337,0.428 -0.508,1 -0.508,1.732 0,0.728 0.17,1.305 0.508,1.732 0.338,0.428 0.794,0.643 1.371,0.643 0.578,0 1.036,-0.215 1.373,-0.643 0.338,-0.428 0.506,-1 0.506,-1.732 0,-0.727 -0.168,-1.305 -0.506,-1.732 -0.338,-0.435 -0.796,-0.652 -1.373,-0.652 z m 5.52,2.471 0.336,0 0,5.066 -0.475,0 0,-4.342 c -0.054,0.059 -0.125,0.118 -0.213,0.182 -0.083,0.063 -0.178,0.126 -0.285,0.189 -0.107,0.058 -0.219,0.117 -0.336,0.176 -0.117,0.054 -0.235,0.099 -0.352,0.133 L 17.73,14.094 c 0.293,-0.102 0.554,-0.231 0.783,-0.387 0.229,-0.161 0.455,-0.377 0.68,-0.65 z" style="fill:#ececec;fill-opacity:1"/>
</svg>
