<svg xmlns="http://www.w3.org/2000/svg" viewBox="0 0 24 24">
 <path d="M 4,2 C 2.892,2 2,2.892 2,4 l 0,16 c 0,1.108 0.892,2 2,2 l 16,0 c 1.108,0 2,-0.892 2,-2 L 22,4 C 22,2.892 21.108,2 20,2 L 4,2 Z m 7.76,5.141 0,5.535 c 0.188,-0.18 0.398,-0.387 0.631,-0.619 0.232,-0.233 0.465,-0.469 0.697,-0.709 0.24,-0.24 0.464,-0.472 0.674,-0.697 0.21,-0.225 0.391,-0.423 0.541,-0.596 l 0.877,0 c -0.173,0.18 -0.366,0.382 -0.584,0.607 -0.218,0.225 -0.447,0.46 -0.688,0.707 -0.232,0.24 -0.465,0.476 -0.697,0.709 l -0.629,0.631 c 0.232,0.158 0.48,0.36 0.742,0.607 0.27,0.247 0.532,0.518 0.787,0.811 0.262,0.285 0.505,0.581 0.73,0.889 0.232,0.3 0.428,0.584 0.586,0.854 l -0.867,0 c -0.18,-0.3 -0.385,-0.592 -0.617,-0.877 -0.225,-0.293 -0.466,-0.565 -0.721,-0.82 -0.248,-0.255 -0.499,-0.487 -0.754,-0.697 -0.248,-0.21 -0.484,-0.387 -0.709,-0.529 l 0,2.924 -0.73,0 0,-8.594 0.73,-0.135 z M 7.344,7.905 c 0.21,0 0.417,0.015 0.619,0.045 0.203,0.03 0.39,0.072 0.563,0.125 0.18,0.045 0.34,0.096 0.482,0.156 0.15,0.06 0.274,0.124 0.371,0.191 L 9.109,9.065 C 8.891,8.915 8.625,8.794 8.31,8.704 8.002,8.614 7.67,8.569 7.31,8.569 7.062,8.569 6.832,8.597 6.622,8.649 6.419,8.694 6.245,8.771 6.095,8.883 5.945,8.988 5.824,9.124 5.734,9.289 5.652,9.454 5.611,9.652 5.611,9.885 c 0,0.24 0.045,0.442 0.135,0.607 0.09,0.165 0.214,0.308 0.371,0.428 0.165,0.12 0.357,0.229 0.574,0.326 0.217,0.098 0.454,0.2 0.709,0.305 0.308,0.127 0.595,0.253 0.865,0.381 0.277,0.127 0.518,0.279 0.721,0.451 0.203,0.173 0.364,0.381 0.484,0.629 0.12,0.248 0.18,0.552 0.18,0.912 0,0.705 -0.247,1.233 -0.742,1.586 -0.487,0.352 -1.152,0.529 -1.992,0.529 -0.3,0 -0.573,-0.019 -0.82,-0.057 C 5.849,15.945 5.627,15.9 5.432,15.847 5.237,15.787 5.071,15.727 4.936,15.667 4.801,15.607 4.697,15.554 4.622,15.509 L 4.87,14.845 c 0.075,0.045 0.175,0.098 0.303,0.158 0.128,0.06 0.279,0.12 0.451,0.18 0.172,0.053 0.366,0.097 0.584,0.135 0.217,0.038 0.458,0.057 0.721,0.057 0.607,0 1.08,-0.109 1.418,-0.326 0.338,-0.225 0.506,-0.585 0.506,-1.08 0,-0.285 -0.057,-0.521 -0.17,-0.709 C 8.578,13.065 8.435,12.903 8.255,12.776 8.075,12.641 7.87,12.53 7.638,12.44 7.406,12.342 7.161,12.24 6.906,12.135 6.583,12.007 6.296,11.877 6.041,11.742 5.786,11.607 5.569,11.456 5.389,11.291 5.209,11.118 5.07,10.925 4.973,10.707 4.883,10.49 4.836,10.234 4.836,9.941 4.836,9.274 5.058,8.766 5.5,8.421 5.942,8.076 6.558,7.903 7.346,7.903 Z m 10.908,5.148 0.498,0 0,3.305 0.629,0 0,0.389 -0.629,0 0,1.373 -0.469,0 0,-1.373 -2.295,0 0,-0.293 c 0.088,-0.234 0.209,-0.499 0.365,-0.791 0.161,-0.292 0.341,-0.591 0.541,-0.898 0.2,-0.307 0.416,-0.608 0.65,-0.9 0.234,-0.297 0.47,-0.567 0.709,-0.811 z m 0.029,0.533 c -0.171,0.175 -0.342,0.378 -0.518,0.607 -0.175,0.229 -0.345,0.468 -0.506,0.717 -0.156,0.244 -0.301,0.49 -0.438,0.738 -0.136,0.249 -0.251,0.485 -0.344,0.709 l 1.805,0 0,-2.771 z" style="fill:#ececec;fill-opacity:1"/>
</svg>
