<svg xmlns="http://www.w3.org/2000/svg" viewBox="0 0 24 24">
 <path d="M 4,2 C 2.892,2 2,2.892 2,4 l 0,16 c 0,1.108 0.892,2 2,2 l 16,0 c 1.108,0 2,-0.892 2,-2 L 22,4 C 22,2.892 21.108,2 20,2 L 4,2 Z m 10.811,5.934 c 0.15,0 0.276,0.051 0.381,0.156 0.105,0.098 0.158,0.234 0.158,0.406 0,0.173 -0.053,0.311 -0.158,0.416 -0.105,0.098 -0.231,0.146 -0.381,0.146 -0.15,0 -0.278,-0.049 -0.383,-0.146 C 14.323,8.807 14.27,8.668 14.27,8.496 c 0,-0.173 0.053,-0.309 0.158,-0.406 0.105,-0.105 0.233,-0.156 0.383,-0.156 z m -6.16,0.338 4.443,0 0,0.662 -3.678,0 0,2.746 3.262,0 0,0.664 -3.262,0 0,3.723 -0.766,0 0,-7.795 z m 5.799,1.979 0.732,0 0,5.816 -0.732,0 0,-5.816 z" style="fill:#ececec;fill-opacity:1"/>
</svg>
