<svg xmlns="http://www.w3.org/2000/svg" viewBox="0 0 24 24">
 <path d="M 4,2 C 2.892,2 2,2.892 2,4 l 0,16 c 0,1.108 0.892,2 2,2 l 16,0 c 1.108,0 2,-0.892 2,-2 L 22,4 C 22,2.892 21.108,2 20,2 L 4,2 Z m 0.182,6.074 0.766,0 0,3.387 4.229,0 0,-3.387 0.766,0 0,7.795 -0.766,0 0,-3.746 -4.229,0 0,3.746 -0.766,0 0,-7.795 z m 6.99,1.98 0.777,0 c 0.083,0.36 0.187,0.75 0.314,1.17 0.127,0.413 0.27,0.839 0.428,1.281 0.165,0.443 0.344,0.896 0.539,1.361 0.195,0.465 0.406,0.923 0.631,1.373 0.165,-0.465 0.31,-0.904 0.438,-1.316 0.127,-0.412 0.245,-0.822 0.35,-1.227 0.112,-0.413 0.217,-0.832 0.314,-1.26 0.105,-0.428 0.214,-0.888 0.326,-1.383 l 0.732,0 c -0.24,1.088 -0.515,2.144 -0.822,3.172 -0.307,1.028 -0.64,1.969 -1,2.824 -0.143,0.337 -0.289,0.625 -0.439,0.865 -0.15,0.248 -0.318,0.45 -0.506,0.607 -0.18,0.158 -0.395,0.275 -0.643,0.35 -0.24,0.075 -0.524,0.111 -0.854,0.111 -0.187,0 -0.36,-0.021 -0.518,-0.066 -0.15,-0.045 -0.244,-0.079 -0.281,-0.102 l 0.146,-0.607 c 0.03,0.022 0.111,0.052 0.246,0.09 0.143,0.045 0.289,0.068 0.439,0.068 0.21,0 0.397,-0.023 0.563,-0.068 0.172,-0.045 0.326,-0.124 0.461,-0.236 0.135,-0.105 0.254,-0.244 0.359,-0.416 0.112,-0.172 0.223,-0.39 0.328,-0.652 -0.248,-0.458 -0.488,-0.935 -0.721,-1.43 -0.225,-0.495 -0.438,-0.994 -0.641,-1.496 -0.195,-0.51 -0.376,-1.015 -0.541,-1.518 -0.165,-0.51 -0.308,-1.01 -0.428,-1.496 z m 6.189,2.998 2.281,0 0,0.416 -1.863,0 c -0.005,0.093 -0.014,0.213 -0.023,0.359 -0.01,0.146 -0.02,0.297 -0.029,0.453 -0.01,0.151 -0.021,0.296 -0.035,0.438 -0.015,0.141 -0.027,0.255 -0.037,0.338 0.375,0.01 0.7,0.056 0.973,0.139 0.273,0.083 0.496,0.195 0.672,0.336 0.175,0.141 0.306,0.312 0.389,0.512 0.088,0.2 0.131,0.422 0.131,0.666 0,0.215 -0.036,0.414 -0.109,0.6 -0.068,0.185 -0.176,0.346 -0.322,0.482 -0.146,0.137 -0.33,0.244 -0.555,0.322 -0.224,0.078 -0.49,0.117 -0.797,0.117 -0.156,0 -0.303,-0.013 -0.439,-0.037 -0.132,-0.02 -0.252,-0.045 -0.359,-0.074 -0.102,-0.029 -0.189,-0.057 -0.262,-0.086 -0.073,-0.029 -0.128,-0.055 -0.162,-0.074 l 0.125,-0.424 c 0.029,0.02 0.078,0.043 0.146,0.072 0.073,0.029 0.155,0.059 0.248,0.088 0.098,0.024 0.205,0.047 0.322,0.066 0.122,0.02 0.249,0.029 0.381,0.029 0.244,0 0.445,-0.026 0.605,-0.08 0.166,-0.059 0.297,-0.137 0.395,-0.234 0.098,-0.097 0.166,-0.209 0.205,-0.336 0.044,-0.132 0.066,-0.273 0.066,-0.424 0,-0.195 -0.032,-0.371 -0.096,-0.527 -0.063,-0.156 -0.175,-0.287 -0.336,-0.395 -0.161,-0.107 -0.377,-0.189 -0.65,-0.242 -0.273,-0.058 -0.62,-0.088 -1.039,-0.088 0.029,-0.249 0.055,-0.475 0.074,-0.68 0.02,-0.21 0.036,-0.409 0.051,-0.6 0.015,-0.195 0.024,-0.382 0.029,-0.563 0.01,-0.185 0.017,-0.375 0.021,-0.57 z" style="fill:#ececec;fill-opacity:1"/>
</svg>
