<svg xmlns="http://www.w3.org/2000/svg" viewBox="0 0 24 24">
 <path d="M 4,2 C 2.892,2 2,2.892 2,4 l 0,16 c 0,1.108 0.892,2 2,2 l 16,0 c 1.108,0 2,-0.892 2,-2 L 22,4 C 22,2.892 21.108,2 20,2 L 4,2 Z m 2.416,6.01 c 0.42,0 0.818,0.034 1.193,0.102 0.383,0.067 0.715,0.18 1,0.338 0.285,0.157 0.511,0.366 0.676,0.629 0.173,0.255 0.258,0.575 0.258,0.957 0,0.42 -0.109,0.78 -0.326,1.08 -0.21,0.293 -0.494,0.495 -0.854,0.607 0.225,0.053 0.43,0.127 0.617,0.225 0.187,0.098 0.354,0.225 0.496,0.383 0.143,0.15 0.251,0.338 0.326,0.563 0.082,0.218 0.123,0.48 0.123,0.787 0,0.735 -0.292,1.297 -0.877,1.688 C 8.463,15.751 7.56,15.943 6.337,15.943 6.21,15.943 6.058,15.935 5.886,15.92 5.721,15.913 5.548,15.898 5.368,15.875 5.196,15.86 5.031,15.843 4.874,15.82 4.716,15.79 4.582,15.76 4.47,15.73 l 0,-7.504 C 4.605,8.189 4.754,8.159 4.919,8.136 5.084,8.106 5.252,8.083 5.425,8.068 5.605,8.046 5.778,8.031 5.943,8.023 6.115,8.016 6.273,8.011 6.416,8.011 Z m 0,0.652 C 6.139,8.662 5.902,8.67 5.707,8.685 5.519,8.7 5.362,8.719 5.234,8.742 l 0,2.744 1.486,0 c 0.277,0 0.54,-0.019 0.787,-0.057 0.247,-0.045 0.461,-0.12 0.641,-0.225 C 8.336,11.092 8.482,10.945 8.587,10.765 8.692,10.577 8.743,10.343 8.743,10.058 8.743,9.803 8.688,9.588 8.575,9.415 8.462,9.235 8.301,9.09 8.091,8.977 7.888,8.864 7.646,8.786 7.361,8.741 7.076,8.688 6.761,8.661 6.416,8.661 Z m 7.334,1.283 c 0.443,0 0.809,0.064 1.102,0.191 0.3,0.127 0.536,0.311 0.709,0.551 0.18,0.232 0.308,0.514 0.383,0.844 0.075,0.33 0.113,0.694 0.113,1.092 l 0,3.25 -0.732,0 0,-3.01 c 0,-0.412 -0.03,-0.762 -0.09,-1.047 -0.053,-0.285 -0.146,-0.517 -0.281,-0.697 -0.127,-0.18 -0.3,-0.308 -0.518,-0.383 -0.21,-0.082 -0.476,-0.123 -0.799,-0.123 -0.345,0 -0.645,0.019 -0.9,0.057 -0.248,0.037 -0.407,0.07 -0.482,0.1 l 0,5.107 -0.732,0 0,-5.613 c 0.218,-0.06 0.511,-0.126 0.879,-0.201 0.367,-0.075 0.817,-0.113 1.35,-0.113 z m -8.516,2.193 0,3.072 c 0.112,0.015 0.283,0.032 0.508,0.055 0.225,0.015 0.453,0.023 0.686,0.023 0.345,0 0.679,-0.023 1,-0.068 0.33,-0.045 0.618,-0.126 0.865,-0.246 0.247,-0.12 0.446,-0.286 0.596,-0.496 0.15,-0.21 0.227,-0.481 0.227,-0.811 0,-0.3 -0.053,-0.547 -0.158,-0.742 C 8.853,12.722 8.702,12.565 8.507,12.452 8.312,12.332 8.073,12.251 7.788,12.206 7.511,12.161 7.199,12.138 6.854,12.138 l -1.621,0 z m 13.959,0.918 0.336,0 0,5.066 -0.475,0 0,-4.342 c -0.054,0.059 -0.125,0.118 -0.213,0.182 -0.083,0.063 -0.178,0.126 -0.285,0.189 -0.107,0.058 -0.219,0.117 -0.336,0.176 -0.117,0.054 -0.235,0.099 -0.352,0.133 l -0.139,-0.367 c 0.293,-0.102 0.554,-0.231 0.783,-0.387 0.229,-0.161 0.455,-0.377 0.68,-0.65 z" style="fill:#ececec;fill-opacity:1"/>
</svg>
