<svg xmlns="http://www.w3.org/2000/svg" viewBox="0 0 24 24">
 <path d="M 4,2 C 2.892,2 2,2.892 2,4 l 0,16 c 0,1.108 0.892,2 2,2 l 16,0 c 1.108,0 2,-0.892 2,-2 L 22,4 C 22,2.892 21.108,2 20,2 L 4,2 Z m -0.371,6.074 0.764,0 0,3.387 4.23,0 0,-3.387 0.766,0 0,7.795 -0.766,0 0,-3.746 -4.23,0 0,3.746 -0.764,0 0,-7.795 z m 7.666,1.98 0.73,0 0,3.03 c 0,0.412 0.03,0.762 0.09,1.047 0.06,0.285 0.158,0.517 0.293,0.697 0.135,0.173 0.308,0.3 0.518,0.383 0.217,0.075 0.48,0.111 0.787,0.111 0.345,0 0.645,-0.019 0.9,-0.057 0.255,-0.037 0.417,-0.07 0.484,-0.1 l 0,-5.107 0.73,0 0,5.613 c -0.217,0.06 -0.509,0.126 -0.877,0.201 -0.367,0.075 -0.819,0.113 -1.352,0.113 -0.435,0 -0.797,-0.064 -1.09,-0.191 -0.293,-0.128 -0.529,-0.307 -0.709,-0.539 -0.18,-0.232 -0.312,-0.514 -0.395,-0.844 -0.075,-0.33 -0.111,-0.694 -0.111,-1.092 l 0,-3.262 z m 5.998,2.998 3.078,0 0,0.424 c -0.166,0.2 -0.349,0.468 -0.549,0.805 -0.195,0.332 -0.379,0.706 -0.555,1.125 -0.175,0.414 -0.329,0.856 -0.461,1.324 -0.127,0.468 -0.205,0.93 -0.234,1.389 l -0.504,0 c 0.029,-0.405 0.102,-0.834 0.219,-1.287 0.122,-0.453 0.269,-0.89 0.439,-1.314 0.176,-0.424 0.363,-0.814 0.563,-1.17 0.205,-0.356 0.402,-0.643 0.592,-0.857 l -2.588,0 0,-0.438 z" style="fill:#ececec;fill-opacity:1"/>
</svg>
