<svg xmlns="http://www.w3.org/2000/svg" viewBox="0 0 24 24">
 <path d="M 4,2 C 2.892,2 2,2.892 2,4 l 0,16 c 0,1.108 0.892,2 2,2 l 16,0 c 1.108,0 2,-0.892 2,-2 L 22,4 C 22,2.892 21.108,2 20,2 L 4,2 Z m 9.102,5.736 c 0.15,0 0.278,0.053 0.383,0.158 0.105,0.097 0.158,0.232 0.158,0.404 0,0.173 -0.053,0.311 -0.158,0.416 C 13.38,8.811 13.252,8.86 13.102,8.86 12.952,8.86 12.826,8.811 12.721,8.714 12.616,8.609 12.563,8.47 12.563,8.298 c 0,-0.172 0.053,-0.307 0.158,-0.404 0.105,-0.105 0.231,-0.158 0.381,-0.158 z m -7.06,0.338 0.766,0 0,3.633 C 7.093,11.452 7.408,11.16 7.753,10.83 8.106,10.492 8.451,10.156 8.788,9.818 9.133,9.48 9.455,9.157 9.755,8.849 c 0.3,-0.308 0.541,-0.565 0.721,-0.775 l 0.922,0 c -0.217,0.232 -0.48,0.51 -0.787,0.832 -0.307,0.315 -0.634,0.641 -0.979,0.979 -0.345,0.338 -0.69,0.672 -1.035,1 -0.337,0.323 -0.642,0.608 -0.912,0.855 0.217,0.135 0.45,0.303 0.697,0.506 0.255,0.195 0.511,0.412 0.766,0.652 0.262,0.232 0.518,0.48 0.766,0.742 0.255,0.255 0.491,0.513 0.709,0.775 0.225,0.263 0.423,0.518 0.596,0.766 0.18,0.248 0.327,0.476 0.439,0.686 l -0.855,0 C 10.548,15.477 10.258,15.091 9.936,14.709 9.621,14.326 9.288,13.966 8.936,13.629 8.583,13.292 8.223,12.985 7.856,12.707 7.496,12.43 7.147,12.197 6.809,12.01 l 0,3.857 -0.766,0 0,-7.795 z m 6.701,1.98 0.732,0 0,5.814 -0.732,0 0,-5.814 z m 3.506,2.889 c 0.254,0 0.47,0.03 0.65,0.094 0.185,0.063 0.339,0.154 0.461,0.271 0.122,0.112 0.211,0.249 0.27,0.41 0.058,0.156 0.088,0.326 0.088,0.512 0,0.297 -0.079,0.54 -0.24,0.73 -0.156,0.185 -0.359,0.319 -0.607,0.402 0.136,0.034 0.268,0.087 0.395,0.16 0.132,0.068 0.249,0.159 0.352,0.271 0.102,0.107 0.185,0.239 0.248,0.395 0.063,0.156 0.096,0.339 0.096,0.549 0,0.214 -0.039,0.411 -0.117,0.592 -0.073,0.18 -0.187,0.338 -0.338,0.475 -0.146,0.132 -0.333,0.236 -0.563,0.314 -0.229,0.073 -0.498,0.111 -0.805,0.111 -0.161,0 -0.309,-0.013 -0.445,-0.037 -0.132,-0.02 -0.249,-0.045 -0.352,-0.074 C 15.24,18.089 15.151,18.061 15.078,18.032 15.01,18.003 14.96,17.977 14.926,17.958 l 0.123,-0.424 c 0.029,0.02 0.078,0.043 0.146,0.072 0.068,0.029 0.15,0.059 0.242,0.088 0.098,0.024 0.205,0.047 0.322,0.066 0.122,0.02 0.253,0.029 0.395,0.029 0.463,0 0.794,-0.095 0.994,-0.285 0.2,-0.195 0.301,-0.457 0.301,-0.783 0,-0.215 -0.042,-0.392 -0.125,-0.533 -0.078,-0.141 -0.189,-0.253 -0.33,-0.336 -0.137,-0.088 -0.297,-0.149 -0.482,-0.184 -0.18,-0.039 -0.371,-0.059 -0.576,-0.059 l -0.074,0 0,-0.395 0.168,0 c 0.132,0 0.266,-0.013 0.402,-0.037 0.141,-0.029 0.269,-0.079 0.381,-0.152 0.117,-0.073 0.212,-0.171 0.285,-0.293 0.078,-0.122 0.117,-0.279 0.117,-0.469 0,-0.161 -0.026,-0.296 -0.08,-0.408 -0.054,-0.117 -0.128,-0.211 -0.221,-0.279 -0.088,-0.068 -0.193,-0.115 -0.314,-0.145 -0.117,-0.034 -0.241,-0.053 -0.373,-0.053 -0.263,0 -0.467,0.036 -0.613,0.109 -0.146,0.073 -0.267,0.142 -0.359,0.205 L 15.05,13.319 c 0.049,-0.034 0.11,-0.073 0.184,-0.117 0.078,-0.044 0.169,-0.084 0.271,-0.123 0.102,-0.039 0.214,-0.071 0.336,-0.096 0.127,-0.029 0.264,-0.043 0.41,-0.043 z" style="fill:#ececec;fill-opacity:1"/>
</svg>
