<svg xmlns="http://www.w3.org/2000/svg" viewBox="0 0 24 24">
 <path d="M 4,2 C 2.892,2 2,2.892 2,4 l 0,16 c 0,1.108 0.892,2 2,2 l 16,0 c 1.108,0 2,-0.892 2,-2 L 22,4 C 22,2.892 21.108,2 20,2 L 4,2 Z m 4.32,6.074 0.766,0 0,5.344 c 0,0.375 -0.038,0.722 -0.113,1.045 -0.075,0.315 -0.205,0.594 -0.393,0.834 -0.18,0.232 -0.425,0.416 -0.732,0.551 -0.3,0.127 -0.677,0.191 -1.135,0.191 -0.27,0 -0.517,-0.026 -0.742,-0.078 C 5.746,15.916 5.546,15.859 5.373,15.791 5.2,15.723 5.056,15.653 4.935,15.578 4.823,15.503 4.735,15.435 4.675,15.375 l 0.359,-0.619 c 0.067,0.06 0.151,0.128 0.248,0.203 0.105,0.068 0.224,0.131 0.359,0.191 0.135,0.06 0.286,0.109 0.451,0.146 0.165,0.037 0.344,0.055 0.539,0.055 0.577,0 1,-0.149 1.271,-0.449 0.277,-0.307 0.416,-0.829 0.416,-1.564 l 0,-5.264 z m 4.471,1.844 c 0.382,0 0.704,0.057 0.967,0.17 0.27,0.105 0.487,0.254 0.652,0.449 0.165,0.188 0.286,0.413 0.361,0.676 0.075,0.262 0.111,0.548 0.111,0.855 l 0,3.666 c -0.075,0.023 -0.184,0.05 -0.326,0.08 -0.143,0.022 -0.307,0.048 -0.494,0.078 -0.188,0.03 -0.398,0.053 -0.631,0.068 -0.225,0.022 -0.457,0.033 -0.697,0.033 -0.307,0 -0.593,-0.034 -0.855,-0.102 -0.255,-0.068 -0.479,-0.172 -0.674,-0.314 -0.188,-0.15 -0.339,-0.338 -0.451,-0.563 -0.105,-0.232 -0.156,-0.514 -0.156,-0.844 0,-0.315 0.06,-0.586 0.18,-0.811 0.12,-0.225 0.288,-0.408 0.506,-0.551 0.217,-0.15 0.477,-0.259 0.777,-0.326 0.3,-0.068 0.626,-0.102 0.979,-0.102 0.105,0 0.214,0.006 0.326,0.021 0.12,0.008 0.233,0.022 0.338,0.045 0.113,0.015 0.206,0.034 0.281,0.057 0.082,0.015 0.138,0.03 0.168,0.045 l 0,-0.359 c 0,-0.203 -0.015,-0.398 -0.045,-0.586 -0.03,-0.195 -0.098,-0.368 -0.203,-0.518 -0.098,-0.158 -0.24,-0.281 -0.428,-0.371 -0.18,-0.098 -0.419,-0.146 -0.719,-0.146 -0.428,0 -0.747,0.032 -0.957,0.092 -0.21,0.06 -0.363,0.107 -0.461,0.145 l -0.102,-0.641 c 0.127,-0.06 0.323,-0.115 0.586,-0.168 0.27,-0.053 0.592,-0.08 0.967,-0.08 z m 0.225,3.094 c -0.18,0 -0.367,0.015 -0.563,0.045 -0.195,0.022 -0.374,0.08 -0.539,0.17 -0.165,0.083 -0.301,0.198 -0.406,0.348 -0.105,0.15 -0.156,0.35 -0.156,0.598 0,0.217 0.034,0.401 0.102,0.551 0.075,0.15 0.175,0.269 0.303,0.359 0.135,0.09 0.293,0.158 0.473,0.203 0.188,0.037 0.398,0.057 0.631,0.057 0.285,0 0.532,-0.008 0.742,-0.023 0.218,-0.022 0.401,-0.048 0.551,-0.078 l 0,-2.047 c -0.082,-0.037 -0.215,-0.076 -0.395,-0.113 -0.18,-0.045 -0.427,-0.068 -0.742,-0.068 z m 3.852,0.041 2.281,0 0,0.416 -1.865,0 c -0.005,0.093 -0.012,0.213 -0.021,0.359 -0.01,0.146 -0.02,0.297 -0.029,0.453 -0.01,0.151 -0.022,0.296 -0.037,0.438 -0.015,0.141 -0.025,0.255 -0.035,0.338 0.375,0.01 0.7,0.056 0.973,0.139 0.273,0.083 0.496,0.195 0.672,0.336 0.175,0.141 0.304,0.312 0.387,0.512 0.088,0.2 0.133,0.422 0.133,0.666 0,0.215 -0.036,0.414 -0.109,0.6 -0.068,0.185 -0.176,0.346 -0.322,0.482 -0.146,0.137 -0.332,0.244 -0.557,0.322 -0.224,0.078 -0.49,0.117 -0.797,0.117 -0.156,0 -0.301,-0.013 -0.438,-0.037 -0.132,-0.02 -0.252,-0.045 -0.359,-0.074 -0.102,-0.029 -0.191,-0.057 -0.264,-0.086 -0.073,-0.029 -0.126,-0.055 -0.16,-0.074 l 0.125,-0.424 c 0.029,0.02 0.078,0.043 0.146,0.072 0.073,0.029 0.155,0.059 0.248,0.088 0.097,0.024 0.205,0.047 0.322,0.066 0.122,0.02 0.247,0.029 0.379,0.029 0.244,0 0.447,-0.026 0.607,-0.08 0.166,-0.058 0.297,-0.137 0.395,-0.234 0.098,-0.098 0.166,-0.209 0.205,-0.336 0.044,-0.132 0.066,-0.273 0.066,-0.424 0,-0.195 -0.032,-0.371 -0.096,-0.527 -0.063,-0.156 -0.175,-0.287 -0.336,-0.395 -0.161,-0.107 -0.377,-0.189 -0.65,-0.242 -0.273,-0.058 -0.62,-0.088 -1.039,-0.088 0.029,-0.249 0.053,-0.475 0.072,-0.68 0.02,-0.21 0.038,-0.409 0.053,-0.6 0.015,-0.195 0.024,-0.382 0.029,-0.563 0.01,-0.185 0.017,-0.375 0.021,-0.57 z" style="fill:#ececec;fill-opacity:1"/>
</svg>
