<svg xmlns="http://www.w3.org/2000/svg" viewBox="0 0 24 24">
 <path d="M 4,2 C 2.892,2 2,2.892 2,4 l 0,16 c 0,1.108 0.892,2 2,2 l 16,0 c 1.108,0 2,-0.892 2,-2 L 22,4 C 22,2.892 21.108,2 20,2 L 4,2 Z m 1.137,6.074 4.5,0 0,0.664 -3.734,0 0,2.711 3.33,0 0,0.652 -3.33,0 0,3.105 4.03,0 0,0.662 -4.793,0 0,-7.795 z m 7.771,1.844 c 0.397,0 0.724,0.034 0.979,0.102 0.263,0.068 0.446,0.127 0.551,0.18 l -0.168,0.652 c -0.09,-0.045 -0.245,-0.105 -0.463,-0.18 -0.21,-0.075 -0.521,-0.111 -0.934,-0.111 -0.165,0 -0.323,0.019 -0.473,0.057 -0.143,0.03 -0.268,0.081 -0.381,0.156 -0.113,0.068 -0.204,0.157 -0.271,0.27 -0.067,0.105 -0.1,0.237 -0.1,0.395 0,0.158 0.03,0.292 0.09,0.404 0.06,0.113 0.145,0.215 0.258,0.305 0.12,0.083 0.263,0.161 0.428,0.236 0.172,0.075 0.368,0.158 0.586,0.248 0.225,0.09 0.438,0.184 0.641,0.281 0.21,0.09 0.393,0.201 0.551,0.336 0.158,0.127 0.285,0.285 0.383,0.473 0.098,0.18 0.146,0.41 0.146,0.688 0,0.525 -0.198,0.921 -0.596,1.191 -0.39,0.27 -0.927,0.406 -1.609,0.406 -0.51,0 -0.9,-0.047 -1.17,-0.137 -0.27,-0.083 -0.451,-0.144 -0.541,-0.189 l 0.191,-0.664 c 0.023,0.015 0.071,0.041 0.146,0.078 0.075,0.03 0.177,0.068 0.305,0.113 0.127,0.037 0.277,0.07 0.449,0.1 0.18,0.03 0.387,0.045 0.619,0.045 0.42,0 0.765,-0.066 1.035,-0.201 0.277,-0.143 0.416,-0.379 0.416,-0.709 0,-0.158 -0.026,-0.292 -0.078,-0.404 -0.045,-0.112 -0.124,-0.215 -0.236,-0.305 -0.112,-0.09 -0.264,-0.175 -0.451,-0.258 -0.18,-0.082 -0.404,-0.18 -0.674,-0.293 -0.217,-0.09 -0.424,-0.18 -0.619,-0.27 -0.195,-0.097 -0.368,-0.206 -0.518,-0.326 -0.15,-0.128 -0.269,-0.279 -0.359,-0.451 -0.09,-0.173 -0.137,-0.381 -0.137,-0.629 0,-0.472 0.177,-0.856 0.529,-1.148 0.36,-0.293 0.852,-0.439 1.475,-0.439 z m 5.617,3.113 0.029,0.402 c -0.297,0.02 -0.573,0.066 -0.826,0.139 -0.249,0.068 -0.469,0.177 -0.664,0.328 -0.195,0.146 -0.359,0.336 -0.49,0.57 -0.132,0.234 -0.223,0.522 -0.271,0.863 0.132,-0.068 0.291,-0.127 0.477,-0.176 0.185,-0.054 0.382,-0.08 0.592,-0.08 0.273,0 0.505,0.043 0.695,0.131 0.19,0.083 0.342,0.197 0.459,0.338 0.117,0.141 0.202,0.303 0.256,0.488 0.054,0.185 0.082,0.381 0.082,0.586 0,0.19 -0.029,0.38 -0.088,0.57 -0.058,0.19 -0.153,0.364 -0.279,0.52 -0.122,0.151 -0.277,0.276 -0.467,0.373 -0.185,0.098 -0.408,0.146 -0.666,0.146 -0.531,0 -0.935,-0.186 -1.213,-0.557 -0.273,-0.375 -0.41,-0.897 -0.41,-1.564 0,-0.99 0.236,-1.74 0.709,-2.252 0.478,-0.512 1.169,-0.787 2.076,-0.826 z m -1.199,2.463 c -0.224,0 -0.421,0.028 -0.592,0.082 -0.166,0.049 -0.321,0.106 -0.467,0.174 -0.01,0.083 -0.016,0.149 -0.016,0.197 l 0,0.17 c 0,0.229 0.016,0.446 0.045,0.65 0.034,0.205 0.091,0.385 0.174,0.541 0.088,0.156 0.202,0.28 0.344,0.373 0.141,0.088 0.322,0.131 0.541,0.131 0.18,0 0.334,-0.03 0.461,-0.094 0.127,-0.068 0.231,-0.156 0.309,-0.264 0.078,-0.107 0.134,-0.232 0.168,-0.373 0.039,-0.141 0.059,-0.291 0.059,-0.447 0,-0.39 -0.088,-0.676 -0.264,-0.861 -0.171,-0.185 -0.425,-0.279 -0.762,-0.279 z" style="fill:#ececec;fill-opacity:1"/>
</svg>
