<svg xmlns="http://www.w3.org/2000/svg" viewBox="0 0 24 24">
 <g style="fill:#ececec">
  <path d="m21 21v-16l-16 16" style="fill-rule:evenodd"/>
  <path d="m3.662 12q-.356 0-.759-.062-.387-.046-.759-.124-.356-.077-.666-.17-.31-.093-.48-.17l.372-1.594q.356.155.913.325.573.17 1.362.17.975 0 1.362-.418.402-.418.402-1.037 0-.759-.604-1.053-.604-.31-1.533-.31h-.588v-1.579h.712q.294 0 .588-.062.294-.062.526-.201.232-.139.372-.372.155-.232.155-.588 0-.526-.325-.82-.31-.31-.867-.31-.542 0-1.084.186-.526.17-.913.433l-.681-1.393q.418-.279 1.099-.557.697-.294 1.563-.294.805 0 1.393.201.604.201.991.573.387.356.573.851.186.495.186 1.068 0 .573-.325 1.099-.325.526-.867.805.743.31 1.146.913.418.604.418 1.44 0 .666-.217 1.223-.217.557-.666.975-.449.402-1.146.635-.697.217-1.656.217"/>
  <path d="M 11.88,4.03 C 11.602,4.044 11.399,4.073 11.074,4.246 10.749,4.419 10.478,4.664 10.261,4.978 10.055,5.281 9.902,5.697 9.805,6.084 9.703,6.491 9.638,6.918 9.68,7.336 c 0.064,0.635 0.152,1.342 0.565,1.829 0.403,0.478 0.938,0.846 1.675,0.846 0.12,0 0.08,-0.007 0.08,-0.007 l 0,-3.504 2,0 0,4.797 c -0.238,0.087 -0.606,0.25 -0.924,0.32 -0.431,0.096 -0.781,0.135 -1.32,0.135 -0.629,0 -1.199,-0.108 -1.708,-0.325 C 9.549,11.199 9.121,10.869 8.763,10.435 8.405,9.99 8.129,9.443 7.934,8.792 7.739,8.131 7.704,7.681 7.707,7.117 7.71,6.484 7.755,5.889 7.983,5.238 8.211,4.577 8.519,4.024 8.91,3.579 9.3,3.134 9.761,2.803 10.292,2.587 c 0.531,-0.228 0.874,-0.253 1.326,-0.281 0.342,-0.022 0.686,0.028 1.025,0.082 0.275,0.044 0.586,0.12 0.813,0.195 0.228,0.076 0.412,0.157 0.553,0.244 L 14.35,3.022 13.829,4.616 C 13.591,4.464 13.298,4.328 12.951,4.21 12.589,4.069 12.239,4.014 11.877,4.032"/>
 </g>
</svg>
