<svg xmlns="http://www.w3.org/2000/svg" viewBox="0 0 24 24">
 <path d="m 6.535 4 c -0.294 0.029 -0.537 0.304 -0.537 0.598 l 0 5.927 -1.436 0 c -0.018 0 -0.043 0 -0.064 0 -0.272 0.032 -0.501 0.304 -0.498 0.602 l 0 6.754 c 0 0.315 0.269 0.602 0.562 0.602 l 1.436 0 0 0.92 c 0 0.312 0.286 0.598 0.602 0.598 l 10.8 0 c 0.315 0 0.602 -0.286 0.602 -0.598 l 0 -0.92 1.436 0 c 0.294 0 0.562 -0.286 0.562 -0.602 l 0 -6.754 c 0 -0.315 -0.269 -0.602 -0.562 -0.602 l -1.436 0 0 -4.913 c -0.401 -0.408 -2.02 -1.214 -2.403 -1.611 l -8.999 0 c -0.021 0 -0.043 0 -0.064 0 z m 0.466 0.999 7.499 0 0 2 2.5 0 0 3.499 -9.998 0 z m -2 6.5 14 0 0 3 -14 0 z m 13.5 4.501 c 0.222 0 0.501 0.279 0.501 0.501 0 0.218 -0.279 0.498 -0.501 0.498 -0.218 0 -0.498 -0.279 -0.498 -0.498 0 -0.222 0.279 -0.501 0.498 -0.501 z m -11.499 -0.501 9.998 0 0 3.502 -9.998 0 z" style="fill:#ececec;fill-opacity:1"/>
</svg>
