<?xml version="1.0" encoding="UTF-8" standalone="no"?>
<svg
   xmlns:dc="http://purl.org/dc/elements/1.1/"
   xmlns:cc="http://creativecommons.org/ns#"
   xmlns:rdf="http://www.w3.org/1999/02/22-rdf-syntax-ns#"
   xmlns:svg="http://www.w3.org/2000/svg"
   xmlns="http://www.w3.org/2000/svg"
   xmlns:sodipodi="http://sodipodi.sourceforge.net/DTD/sodipodi-0.dtd"
   xmlns:inkscape="http://www.inkscape.org/namespaces/inkscape"
   width="24"
   viewBox="0 0 24 24"
   height="24"
   id="svg2"
   version="1.1"
   inkscape:version="0.91 r13725"
   sodipodi:docname="semi-starred-rtl.svg">
  <metadata
     id="metadata20">
    <rdf:RDF>
      <cc:Work
         rdf:about="">
        <dc:format>image/svg+xml</dc:format>
        <dc:type
           rdf:resource="http://purl.org/dc/dcmitype/StillImage" />
        <dc:title></dc:title>
      </cc:Work>
    </rdf:RDF>
  </metadata>
  <defs
     id="defs18" />
  <sodipodi:namedview
     pagecolor="#ffffff"
     bordercolor="#666666"
     borderopacity="1"
     objecttolerance="10"
     gridtolerance="10"
     guidetolerance="10"
     inkscape:pageopacity="0"
     inkscape:pageshadow="2"
     inkscape:window-width="1366"
     inkscape:window-height="704"
     id="namedview16"
     showgrid="true"
     inkscape:zoom="19.666666"
     inkscape:cx="5.5982197"
     inkscape:cy="11.926"
     inkscape:window-x="0"
     inkscape:window-y="27"
     inkscape:window-maximized="1"
     inkscape:current-layer="svg2">
    <inkscape:grid
       type="xygrid"
       id="grid2987" />
  </sodipodi:namedview>
  <path
     style="color:#000000;fill:#dfdd41;fill-opacity:1"
     d="m 12.000248,1.0058594 c 1.547756,0.054975 2.425433,5.522552 3.6875,6.4296875 1.268657,0.9118725 6.790406,-0.019144 7.279297,1.4628906 0.489079,1.4825975 -4.505239,4.0213635 -4.982422,5.5078125 -0.476995,1.485858 2.091388,6.439361 0.830078,7.361328 -1.26181,0.922324 -5.226952,-3.027928 -6.791015,-3.021484 -0.0072,2.9e-5 -0.01612,0.0037 -0.02344,0.0039 -1.136507,-6.104131 -0.416596,-11.8988597 0,-17.7441406 z"
     id="path6"
     inkscape:connector-curvature="0"
     sodipodi:nodetypes="cssssccc" />
  <path
     style="opacity:1;fill:#808080;fill-opacity:1;stroke:none;stroke-width:0.5;stroke-linecap:round;stroke-linejoin:round;stroke-miterlimit:4;stroke-dasharray:none;stroke-opacity:1"
     d="m 11.974857,1 c 0.0087,-3.486e-5 0.0167,0.00555 0.02539,0.00586 l 0,17.744141 C 10.42255,18.793031 6.5440621,22.773224 5.2814971,21.865235 4.0125741,20.952677 6.5541691,15.93755 6.0647001,14.455079 5.5754331,12.973199 0.55411212,10.481826 1.0314981,8.9960938 1.5090721,7.5097692 7.0492351,8.4070274 8.3107951,7.484375 9.5718721,6.5620816 10.411403,1.0060374 11.974857,1 Z"
     id="rect4136"
     inkscape:connector-curvature="0" />
</svg>
