<svg viewBox="0 0 24 24" xmlns="http://www.w3.org/2000/svg">
 <g style="fill:#ef555c;fill-opacity:1;stroke:none" transform="matrix(0.06585 0 0 0.0687 -10.84 3.097)">
  <path d="m 10.188 5 c -0.469 0 -0.902 0.141 -1.271 0.381 l 2.084 2.084 1.27 -1.27 c -0.435 -0.719 -1.203 -1.195 -2.08 -1.195 l -0.002 0 z m -4.766 3.957 c -0.198 0.263 -0.354 0.561 -0.453 0.887 -0.092 -0.011 -0.186 -0.031 -0.281 -0.031 c -1.354 0 -2.439 1.15 -2.439 2.564 0 1.271 0.88 2.32 2.043 2.52 l -0.361 -0.361 3.535 -3.535 -2.043 -2.043 z m 10.563 0.594 l -1.449 1.449 l 3.535 3.535 -0.189 0.189 c 0.146 0.053 0.299 0.09 0.465 0.09 0.775 0 1.406 -0.629 1.406 -1.438 0 -0.808 -0.632 -1.471 -1.406 -1.471 -0.12 0 -0.233 0.002 -0.344 0.031 c -0.121 -1.173 -0.942 -2.12 -2.02 -2.387 z m -4.984 4.984 -0.365 0.365 c 0.122 0.014 0.24 0.039 0.365 0.039 0.126 0 0.245 -0.023 0.367 -0.037 l -0.367 -0.367 z" transform="matrix(15.18617 0 0 14.5561 179.8 -30.518)"/>
 </g>
 <path style="fill:#ef555c;opacity:1;fill-opacity:1;stroke:none;fill-rule:nonzero" d="m 15.535 7.05 -3.536 3.536 -3.536 -3.536 -1.414 1.414 3.536 3.536 -3.536 3.536 1.414 1.414 3.536 -3.536 3.536 3.536 1.414 -1.414 -3.536 -3.536 3.536 -3.536 -1.414 -1.414 z"/>
</svg>
