<?xml version="1.0" encoding="UTF-8" standalone="no"?>
<svg
   xmlns:dc="http://purl.org/dc/elements/1.1/"
   xmlns:cc="http://creativecommons.org/ns#"
   xmlns:rdf="http://www.w3.org/1999/02/22-rdf-syntax-ns#"
   xmlns:svg="http://www.w3.org/2000/svg"
   xmlns="http://www.w3.org/2000/svg"
   xmlns:sodipodi="http://sodipodi.sourceforge.net/DTD/sodipodi-0.dtd"
   xmlns:inkscape="http://www.inkscape.org/namespaces/inkscape"
   width="24"
   viewBox="0 0 24 24"
   height="24"
   style="enable-background:new"
   id="svg21249"
   version="1.1"
   inkscape:version="0.91 r"
   sodipodi:docname="weather-snow-rain.svg">
  <metadata
     id="metadata21352">
    <rdf:RDF>
      <cc:Work
         rdf:about="">
        <dc:format>image/svg+xml</dc:format>
        <dc:type
           rdf:resource="http://purl.org/dc/dcmitype/StillImage" />
        <dc:title></dc:title>
      </cc:Work>
    </rdf:RDF>
  </metadata>
  <sodipodi:namedview
     pagecolor="#ffffff"
     bordercolor="#666666"
     borderopacity="1"
     objecttolerance="10"
     gridtolerance="10"
     guidetolerance="10"
     inkscape:pageopacity="0"
     inkscape:pageshadow="2"
     inkscape:window-width="1920"
     inkscape:window-height="1056"
     id="namedview21350"
     showgrid="false"
     inkscape:zoom="29.5"
     inkscape:cx="7.3722355"
     inkscape:cy="3.6679727"
     inkscape:window-x="0"
     inkscape:window-y="24"
     inkscape:window-maximized="1"
     inkscape:current-layer="svg21249" />
  <defs
     id="defs21251" />
  <path
     style="fill:#ececec;fill-opacity:1"
     d="m 9.1003974,4.5000864 c -0.155182,-9.522e-4 -0.318305,0.0074 -0.486877,0.029757 -2.692202,0.3570825 -2.609286,2.7376328 -2.609286,2.7376328 -1.102682,0.1931579 -2.004234,1.18512 -2.004234,2.2218467 0,1.0367141 1.152328,1.9550351 2.117681,2.2218471 0.574226,0.158703 1.328278,0 1.328278,0 0.340866,0.619435 1.461478,1.031572 2.245309,1.031572 1.2780786,0 2.5903776,-0.436434 2.8929026,-1.031572 0,0 5.292307,0.436434 6.39086,0 1.599245,-0.635353 1.101894,-2.6219401 0.03781,-3.2930938 -1.064076,-0.6711553 -2.45802,-0.198379 -2.45802,-0.198379 0,0 -0.0031,-1.3655636 -1.507902,-2.018509 -1.504814,-0.6529436 -2.779456,0.7885575 -2.779456,0.7885575 0,0 -0.83935,-2.4748742 -3.1670656,-2.4896593 z m -3.323058,8.1633046 c -0.04339,0.01072 -0.073246,0.05249 -0.0709,0.09919 l 0,0.297568 -0.25053,-0.168622 c -0.1039894,-0.06942 -0.2032457,0.09422 -0.09927,0.163663 l 0.349796,0.233095 0,0.540583 -0.444331,-0.267811 -0.018912,-0.436434 c 1.081e-4,-0.0625 -0.055492,-0.108684 -0.113451,-0.09423 -0.043394,0.01071 -0.073255,0.05248 -0.07091,0.09919 l 0.01417,0.317407 -0.245803,-0.148784 c -0.1095671,-0.09449 -0.2250747,0.105473 -0.09454,0.163662 l 0.250532,0.148784 -0.269436,0.148784 c -0.1371561,0.04833 -0.030129,0.260456 0.08508,0.168623 l 0.373433,-0.198379 0.444335,0.267811 -0.449063,0.267812 -0.368703,-0.198379 c -0.1152092,-0.09183 -0.2222361,0.120288 -0.08508,0.168623 l 0.264709,0.143823 -0.245802,0.148785 c -0.1071443,0.06613 -0.012604,0.234749 0.09454,0.168622 l 0.245803,-0.148784 -0.01417,0.317406 c -0.00373,0.129557 0.1818217,0.134489 0.184351,0.0049 l 0.01891,-0.436433 0.444335,-0.267812 0,0.540582 -0.349795,0.233097 c -0.1051551,0.06916 -0.00498,0.234318 0.09927,0.163663 l 0.25053,-0.168623 0,0.297569 c 0,0.128947 0.184352,0.128947 0.184352,0 l 0,-0.297569 0.255256,0.168623 c 0.1042496,0.07066 0.2044251,-0.0945 0.09927,-0.163663 l -0.354522,-0.233097 0,-0.545542 0.444335,0.272772 0.01891,0.436433 c 0.00354,0.128476 0.1870178,0.123599 0.184352,-0.0049 l -0.01417,-0.317406 0.245802,0.148784 c 0.1071443,0.06613 0.2016843,-0.102495 0.09454,-0.168622 l -0.245802,-0.148785 0.264709,-0.143823 c 0.1371561,-0.04833 0.030129,-0.260456 -0.08508,-0.168623 l -0.368717,0.198379 -0.449062,-0.267812 0.444335,-0.267811 0.373431,0.198379 c 0.1152092,0.09183 0.2222361,-0.120288 0.08508,-0.168623 l -0.269437,-0.148785 0.250528,-0.148784 c 0.1305291,-0.05819 0.015027,-0.258143 -0.09454,-0.163663 l -0.245802,0.148784 0.01417,-0.317406 c 0.00433,-0.06725 -0.056601,-0.118388 -0.118179,-0.09919 -0.039736,0.01224 -0.066809,0.05078 -0.06618,0.09423 l -0.01891,0.436434 -0.444335,0.267811 0,-0.540582 0.354523,-0.233096 c 0.1037157,-0.0695 0.00466,-0.232807 -0.09927,-0.163663 l -0.255256,0.168622 0,-0.297569 c 0.00139,-0.05537 -0.041761,-0.10065 -0.09454,-0.09919 -0.00629,-6.8e-4 -0.012623,-6.8e-4 -0.01891,0 z m 11.7134236,0.243014 c -0.04528,0.0086 -0.07756,0.05095 -0.07563,0.09919 l 0,0.297569 -0.25053,-0.168622 c -0.103712,-0.06812 -0.202009,0.09394 -0.09927,0.163662 l 0.349796,0.233096 0,0.540583 -0.444336,-0.267812 -0.01891,-0.436434 c 1.08e-4,-0.0625 -0.05549,-0.108684 -0.113451,-0.09423 -0.04339,0.01072 -0.07325,0.05249 -0.0709,0.09919 l 0.01417,0.317408 -0.245803,-0.148785 c -0.112959,-0.107903 -0.235467,0.115346 -0.08981,0.163663 l 0.245801,0.148785 -0.269436,0.148783 c -0.137156,0.04833 -0.03013,0.260456 0.08508,0.168623 l 0.37343,-0.198379 0.444336,0.267812 -0.444336,0.267811 -0.37343,-0.198379 c -0.115209,-0.09183 -0.222236,0.120288 -0.08508,0.168623 l 0.264709,0.143825 -0.241074,0.148784 c -0.114709,0.06048 -0.0194,0.239427 0.08981,0.168622 l 0.245803,-0.148784 -0.01417,0.317407 c -0.0037,0.129557 0.181822,0.134489 0.184351,0.0049 l 0.01891,-0.436433 0.444335,-0.267813 0,0.540583 -0.349795,0.233097 c -0.103976,0.06944 -0.0047,0.23308 0.09927,0.163663 l 0.250529,-0.168622 0,0.297568 c 0,0.128947 0.184352,0.128947 0.184352,0 l 0,-0.297568 0.255256,0.168622 c 0.103997,0.06945 0.203281,-0.09423 0.09927,-0.163663 l -0.354522,-0.233097 0,-0.545542 0.444334,0.272772 0.01891,0.436433 c 0.0037,0.128306 0.186856,0.123437 0.184351,-0.0049 l -0.01417,-0.317407 0.245802,0.148784 c 0.107232,0.06648 0.202025,-0.102588 0.09454,-0.168622 l -0.241074,-0.148785 0.259984,-0.143826 c 0.137161,-0.04833 0.03013,-0.260461 -0.08508,-0.168622 l -0.368705,0.198379 -0.444335,-0.267811 0.444335,-0.267813 0.368703,0.198379 c 0.11521,0.09184 0.222241,-0.120289 0.08508,-0.168622 l -0.26471,-0.148783 0.245802,-0.148785 c 0.130529,-0.05819 0.01503,-0.258143 -0.09454,-0.163663 l -0.245802,0.148785 0.01417,-0.317408 c 0.0033,-0.06454 -0.05354,-0.114229 -0.113451,-0.09919 -0.04162,0.01034 -0.07098,0.04936 -0.07091,0.09423 l -0.01891,0.436434 -0.444335,0.267813 0,-0.540584 0.354527,-0.233096 c 0.102739,-0.06973 0.0044,-0.231783 -0.09927,-0.163662 l -0.255256,0.168622 0,-0.297569 c 0.0013,-0.05343 -0.03889,-0.09786 -0.08981,-0.09919 l -0.0094,0 -0.0094,0 z m -5.74378,-0.285968 c -0.05838,0.01453 -0.0983,0.07107 -0.09454,0.133906 l 0,0.396758 -0.340342,-0.228136 c -0.138731,-0.09292 -0.271342,0.125717 -0.132355,0.218217 l 0.472697,0.312447 0,0.729044 -0.595598,-0.362042 -0.02364,-0.590178 c -0.0022,-0.07762 -0.06864,-0.135729 -0.141806,-0.123992 -0.06409,0.01037 -0.109552,0.07108 -0.103995,0.138866 l 0.01417,0.416595 -0.326161,-0.198379 c -0.145025,-0.08621 -0.268095,0.14224 -0.122901,0.228136 l 0.326167,0.198384 -0.354523,0.19342 c -0.1684,0.07093 -0.03833,0.332481 0.113452,0.228137 l 0.496331,-0.267813 0.595597,0.357083 -0.595597,0.362041 -0.496331,-0.26781 c -0.151789,-0.104363 -0.281869,0.157209 -0.113452,0.228135 l 0.354523,0.19342 -0.326161,0.198379 c -0.160947,0.08014 -0.02366,0.329443 0.122901,0.223176 l 0.326161,-0.198379 -0.01417,0.421557 c -0.01768,0.182642 0.250081,0.193426 0.245802,0.0099 l 0.02364,-0.585219 0.595598,-0.362043 0,0.724084 -0.472697,0.312449 c -0.138035,0.09272 -0.0062,0.310141 0.132355,0.218216 l 0.340342,-0.228135 0,0.401717 c -0.01301,0.185072 0.258808,0.185072 0.245802,0 l 0,-0.401717 0.340342,0.228135 c 0.138483,0.09176 0.270231,-0.125458 0.132354,-0.218216 l -0.472696,-0.312449 0,-0.724084 0.600325,0.362043 0.01891,0.585219 c -0.0043,0.183514 0.263467,0.172731 0.245803,-0.0099 l -0.01417,-0.421557 0.326161,0.198379 c 0.146563,0.106273 0.283854,-0.143034 0.1229,-0.223176 l -0.32616,-0.198379 0.354523,-0.19342 c 0.168417,-0.07093 0.03834,-0.332498 -0.113452,-0.228135 l -0.491604,0.26781 -0.600326,-0.357082 0.600326,-0.362042 0.491604,0.267813 c 0.151786,0.104344 0.281853,-0.157203 0.113452,-0.228137 l -0.354523,-0.19342 0.32616,-0.198379 c 0.14496,-0.08597 0.02205,-0.314108 -0.122912,-0.228136 l -0.326161,0.198379 0.01417,-0.416595 c 0.0069,-0.0836 -0.06279,-0.151823 -0.141807,-0.138866 -0.05859,0.0097 -0.102285,0.06179 -0.103995,0.123992 l -0.01891,0.585219 -0.600324,0.362042 0,-0.724084 0.472696,-0.312448 c 0.1384,-0.09263 0.0063,-0.310522 -0.13235,-0.218222 l -0.340342,0.228136 0,-0.396758 c 0.0032,-0.07933 -0.06189,-0.142898 -0.137082,-0.133906 -0.0047,-2.85e-4 -0.0095,-2.85e-4 -0.01417,0 z M 8.8735034,15.82258 c -0.00481,0.0013 -0.00955,0.003 -0.01417,0.0049 -0.056567,0.01419 -0.095977,0.06794 -0.09454,0.128947 l 0,0.401718 -0.340341,-0.228136 c -0.1386576,-0.09258 -0.2710136,0.125639 -0.132356,0.218217 l 0.472697,0.312447 0,0.724084 -0.600324,-0.362042 -0.01891,-0.585218 c -4.092e-4,-0.08513 -0.077767,-0.146622 -0.15599,-0.123993 -0.056492,0.01653 -0.094057,0.07254 -0.08981,0.133907 l 0.01417,0.421555 -0.32616,-0.198379 c -0.1465601,-0.106261 -0.2838429,0.143029 -0.122902,0.223176 l 0.326161,0.198379 -0.354523,0.193421 c -0.1684088,0.07093 -0.038335,0.33249 0.113452,0.228136 l 0.491604,-0.267813 0.595598,0.357083 -0.595598,0.362042 -0.491604,-0.267811 c -0.1517873,-0.104354 -0.2818608,0.157206 -0.113452,0.228136 l 0.354523,0.193418 -0.326161,0.19838 c -0.1449609,0.08597 -0.022059,0.314102 0.122902,0.228137 l 0.32616,-0.198381 -0.01417,0.416597 c -0.017746,0.179507 0.2437671,0.195327 0.245803,0.01487 l 0.01891,-0.585219 0.600324,-0.362043 0,0.724084 -0.472697,0.312448 c -0.1388858,0.09252 -0.00635,0.311033 0.132355,0.218217 l 0.340342,-0.228136 0,0.396758 c -0.012996,0.185062 0.2587988,0.185062 0.245803,0 l 0,-0.396758 0.340341,0.228136 c 0.1387743,0.09313 0.271538,-0.125764 0.132354,-0.218217 l -0.472695,-0.312448 0,-0.724084 0.600324,0.362043 0.01891,0.585219 c 0.00204,0.180457 0.2635494,0.164637 0.245803,-0.01487 l -0.01417,-0.416597 0.3261606,0.198381 c 0.145045,0.08628 0.268163,-0.142261 0.122901,-0.228137 L 9.9843674,18.118754 10.33889,17.925336 c 0.168414,-0.07093 0.03834,-0.332494 -0.113451,-0.228136 l -0.4916046,0.267811 -0.600324,-0.362042 0.600324,-0.357083 0.4916046,0.267813 c 0.151789,0.104358 0.281865,-0.157209 0.113451,-0.228136 L 9.9843674,17.092142 10.310528,16.893763 c 0.160948,-0.08014 0.02366,-0.329443 -0.122901,-0.223176 l -0.3261606,0.198379 0.01417,-0.421555 c 0.00522,-0.07306 -0.048402,-0.136065 -0.118179,-0.138866 -0.069639,-0.0026 -0.127484,0.05584 -0.127628,0.128947 l -0.01891,0.585218 -0.600324,0.362042 0,-0.724084 0.472696,-0.312448 c 0.1426831,-0.09161 0.00715,-0.315011 -0.132357,-0.218168 l -0.340341,0.228135 0,-0.401717 c 0.00318,-0.07932 -0.061896,-0.14289 -0.13709,-0.13389 z m 7.3315256,1.011733 c -0.04339,0.01071 -0.07325,0.05248 -0.07091,0.09919 l 0,0.297568 -0.255256,-0.16862 c -0.104272,-0.07077 -0.20453,0.09453 -0.09927,0.163662 l 0.354523,0.233096 0,0.540583 -0.444334,-0.267813 -0.01891,-0.441393 c -0.0022,-0.06311 -0.06045,-0.107144 -0.118179,-0.08926 -0.04151,0.01268 -0.06903,0.05393 -0.06618,0.09919 l 0.01417,0.317407 -0.245802,-0.148785 c -0.109567,-0.09448 -0.225069,0.105472 -0.09454,0.163663 l 0.245803,0.148785 -0.264711,0.148783 c -0.137161,0.04833 -0.03013,0.260461 0.08508,0.168622 l 0.368704,-0.203338 0.449061,0.272773 -0.449061,0.26781 -0.368704,-0.198378 c -0.11521,-0.09184 -0.222241,0.120289 -0.08508,0.168622 l 0.264711,0.143825 -0.245803,0.148784 c -0.107109,0.06614 -0.0126,0.234712 0.09454,0.168623 l 0.245802,-0.148785 -0.01417,0.317407 c -0.0027,0.12854 0.180852,0.133419 0.184353,0.0049 l 0.01891,-0.436435 0.444334,-0.267811 0,0.540583 -0.354522,0.233096 c -0.103976,0.06944 -0.0047,0.23308 0.09927,0.163663 l 0.255255,-0.168623 0,0.297569 c 0,0.128947 0.184352,0.128947 0.184352,0 l 0,-0.297569 0.25053,0.168623 c 0.103989,0.06942 0.203246,-0.09422 0.09927,-0.163663 l -0.349796,-0.233096 0,-0.545543 0.444335,0.272771 0.01891,0.436435 c 0.0035,0.128476 0.187018,0.123599 0.184352,-0.0049 l -0.01417,-0.317407 0.245803,0.148785 c 0.109207,0.07078 0.204493,-0.108153 0.0898,-0.168629 l -0.241075,-0.148784 0.264709,-0.143825 c 0.137156,-0.04833 0.03013,-0.260456 -0.08508,-0.168623 l -0.37343,0.198379 -0.444335,-0.267811 0.444335,-0.267812 0.37343,0.198378 c 0.11521,0.09184 0.222241,-0.120289 0.08508,-0.168622 l -0.269431,-0.148788 0.245802,-0.148784 c 0.145657,-0.04832 0.02315,-0.271566 -0.08981,-0.163663 l -0.245803,0.148784 0.01417,-0.317407 c 0.0043,-0.06725 -0.0566,-0.118389 -0.11818,-0.09919 -0.03808,0.0117 -0.06474,0.04767 -0.06618,0.08927 l -0.01891,0.441393 -0.444336,0.267812 0,-0.540582 0.349796,-0.233097 c 0.105356,-0.06911 0.005,-0.234529 -0.09927,-0.163661 l -0.25053,0.16862 0,-0.297568 c 0.0014,-0.05538 -0.04176,-0.10065 -0.09454,-0.09919 -0.0063,-6.8e-4 -0.01262,-6.8e-4 -0.01891,0 z"
     id="path21348"
     inkscape:connector-curvature="0"
     sodipodi:nodetypes="cscsscscsscsccccccccccccccccccccccccccccccccccccssccccccccccccccccccccccccccccccccccccccccccccccccccccccccccccccccccccccssccccccccccccccccccccccccccccccccccccccccccccccccccccccccccccccccccccccccccccccccccccccccccccccccccccccccccccccccccccccccccccccccccccccccccccccccccccccccccccccccccccccccccccccccccccccccccccccccccccccccccccccccccccccsscccccccccccccccccccccccccccccccccccc" />
  <g
     style="enable-background:new"
     id="g4138"
     transform="translate(0,2)" />
  <g
     style="enable-background:new"
     id="g4151"
     transform="translate(0.93450012,1.000014)">
    <path
       d="m 4.9098154,17.821105 c -1.2240669,-0.34291 0.029167,-2.659966 0.7805899,-3.417343 0.3619969,1.000899 0.443477,3.760253 -0.7805899,3.417343 z"
       id="path19295"
       inkscape:connector-curvature="0"
       style="fill:#ececec;fill-opacity:1"
       sodipodi:nodetypes="scs" />
    <path
       d="m 7.2503187,14.598449 c -1.0654406,-0.298474 0.025387,-2.315262 0.6794336,-2.974491 0.315086,0.871192 0.3860071,3.272964 -0.6794336,2.974491 z"
       id="path19297"
       inkscape:connector-curvature="0"
       style="fill:#ececec;fill-opacity:1"
       sodipodi:nodetypes="scs" />
    <path
       d="m 11.165587,18.107774 c -1.065441,-0.298473 0.02539,-2.315261 0.679434,-2.974491 0.315085,0.871194 0.386006,3.272963 -0.679434,2.974491 z"
       id="path19299"
       inkscape:connector-curvature="0"
       style="fill:#ececec;fill-opacity:1" />
    <path
       d="m 13.574305,15.615896 c -1.464843,-0.410363 0.0349,-3.183188 0.934135,-4.089544 0.433203,1.197778 0.53071,4.499906 -0.934135,4.089544 z"
       id="path19301"
       inkscape:connector-curvature="0"
       style="fill:#ececec;fill-opacity:1" />
  </g>
</svg>
