<svg width="32" xmlns="http://www.w3.org/2000/svg" height="32" viewBox="0 0 32 32" xmlns:xlink="http://www.w3.org/1999/xlink">
<path style="fill:none;stroke:#4aa5c6;stroke-width:17.397" d="M 123.913703 -160.470982 C 81.977567 -158.323649 48.599181 -123.050559 48.599181 -79.9776 C 48.599181 -35.515191 84.156477 0.547359 127.987318 0.547359 C 171.849737 0.547359 207.407033 -35.515191 207.407033 -79.9776 C 207.407033 -124.440009 171.849737 -160.470982 127.987318 -160.470982 C 126.629446 -160.470982 125.271574 -160.565717 123.913703 -160.470982 Z " transform="matrix(.1237 0 0 .1237 0 25.72917)"/>
<g style="fill:#4aa5c6">
<path d="M 14.441406 3.464844 L 17.226562 3.464844 C 17.386719 3.464844 17.511719 3.699219 17.511719 3.988281 L 17.511719 5.582031 C 17.511719 5.871094 17.386719 6.105469 17.226562 6.105469 L 14.441406 6.105469 C 14.28125 6.105469 14.152344 5.871094 14.152344 5.582031 L 14.152344 3.988281 C 14.152344 3.699219 14.28125 3.464844 14.441406 3.464844 Z "/>
<path d="M 14.441406 25.558594 L 17.226562 25.558594 C 17.386719 25.558594 17.511719 25.792969 17.511719 26.082031 L 17.511719 27.679688 C 17.511719 27.96875 17.386719 28.203125 17.226562 28.203125 L 14.441406 28.203125 C 14.28125 28.203125 14.152344 27.96875 14.152344 27.679688 L 14.152344 26.082031 C 14.152344 25.792969 14.28125 25.558594 14.441406 25.558594 Z "/>
<path d="M 18.128906 15.835938 C 18.128906 17.035156 17.097656 18.007812 15.832031 18.007812 C 14.566406 18.007812 13.539062 17.035156 13.539062 15.835938 C 13.539062 14.636719 14.566406 13.660156 15.832031 13.660156 C 17.097656 13.660156 18.128906 14.636719 18.128906 15.835938 Z "/>
<path d="M 28.203125 14.464844 L 28.203125 17.210938 C 28.203125 17.367188 27.957031 17.492188 27.648438 17.492188 L 25.964844 17.492188 C 25.65625 17.492188 25.410156 17.367188 25.410156 17.210938 L 25.410156 14.464844 C 25.410156 14.304688 25.65625 14.179688 25.964844 14.179688 L 27.648438 14.179688 C 27.957031 14.179688 28.203125 14.304688 28.203125 14.464844 Z "/>
<path d="M 6.257812 14.464844 L 6.257812 17.210938 C 6.257812 17.367188 6.007812 17.492188 5.703125 17.492188 L 4.015625 17.492188 C 3.710938 17.492188 3.464844 17.367188 3.464844 17.210938 L 3.464844 14.464844 C 3.464844 14.304688 3.710938 14.179688 4.015625 14.179688 L 5.703125 14.179688 C 6.007812 14.179688 6.257812 14.304688 6.257812 14.464844 Z "/>
<path d="M 24.085938 6.152344 L 26.058594 8.019531 C 26.171875 8.125 26.085938 8.375 25.871094 8.582031 L 24.675781 9.710938 C 24.464844 9.914062 24.195312 9.992188 24.085938 9.890625 L 22.113281 8.019531 C 22.003906 7.917969 22.082031 7.667969 22.300781 7.460938 L 23.492188 6.332031 C 23.710938 6.125 23.972656 6.046875 24.085938 6.152344 Z "/>
<path d="M 7.582031 21.777344 L 9.554688 23.644531 C 9.664062 23.75 9.582031 24 9.363281 24.207031 L 8.175781 25.335938 C 7.957031 25.539062 7.691406 25.617188 7.582031 25.515625 L 5.609375 23.644531 C 5.496094 23.542969 5.578125 23.292969 5.796875 23.085938 L 6.988281 21.957031 C 7.203125 21.75 7.472656 21.671875 7.582031 21.777344 Z "/>
<path d="M 26.058594 23.644531 L 24.085938 25.515625 C 23.972656 25.617188 23.710938 25.539062 23.492188 25.335938 L 22.300781 24.207031 C 22.082031 24 22.003906 23.75 22.113281 23.644531 L 24.085938 21.777344 C 24.195312 21.671875 24.464844 21.75 24.675781 21.957031 L 25.871094 23.085938 C 26.085938 23.292969 26.171875 23.542969 26.058594 23.644531 Z "/>
<path d="M 9.554688 8.019531 L 7.582031 9.890625 C 7.472656 9.992188 7.203125 9.914062 6.988281 9.710938 L 5.796875 8.582031 C 5.578125 8.375 5.496094 8.125 5.609375 8.019531 L 7.582031 6.152344 C 7.691406 6.046875 7.957031 6.125 8.175781 6.332031 L 9.363281 7.460938 C 9.582031 7.667969 9.664062 7.917969 9.554688 8.019531 Z "/>
</g>
</svg>
