<?xml version="1.0" encoding="UTF-8" standalone="no"?>
<svg
   xmlns:dc="http://purl.org/dc/elements/1.1/"
   xmlns:cc="http://creativecommons.org/ns#"
   xmlns:rdf="http://www.w3.org/1999/02/22-rdf-syntax-ns#"
   xmlns:svg="http://www.w3.org/2000/svg"
   xmlns="http://www.w3.org/2000/svg"
   xmlns:sodipodi="http://sodipodi.sourceforge.net/DTD/sodipodi-0.dtd"
   xmlns:inkscape="http://www.inkscape.org/namespaces/inkscape"
   viewBox="0 0 22 22"
   height="22"
   width="22"
   xml:space="preserve"
   version="1.1"
   id="svg2"
   inkscape:version="0.91 r"
   sodipodi:docname="transmission-tray-icon.svg"><sodipodi:namedview
     pagecolor="#ffffff"
     bordercolor="#666666"
     borderopacity="1"
     objecttolerance="10"
     gridtolerance="10"
     guidetolerance="10"
     inkscape:pageopacity="0"
     inkscape:pageshadow="2"
     inkscape:window-width="640"
     inkscape:window-height="480"
     id="namedview566" /><metadata
     id="metadata8"><rdf:RDF><cc:Work
         rdf:about=""><dc:format>image/svg+xml</dc:format><dc:type
           rdf:resource="http://purl.org/dc/dcmitype/StillImage" /></cc:Work></rdf:RDF></metadata><defs
     id="defs6" /><g
     transform="matrix(1.25,0,0,-1.25,0,22)"
     id="g10"><g
       id="g12"><path
         id="path14"
         style="fill:#ececec;fill-opacity:1;fill-rule:evenodd;stroke:none"
         d="m 5.625,14.799 c -0.441,0 -0.801,-0.355 -0.801,-0.801 0,-0.441 0.36,-0.796 0.801,-0.796 l 2.426,0 L 8,9.998 l -3.324,0 -1.5,-6.398 0,-0.801 11.25,0 0,0.75 -1.403,6.449 -3.398,0 0,-2.398 1.602,0 L 8.852,5.151 6.426,7.6 8,7.6 l 0.051,2.398 1.574,0 0,3.2 2.398,0 c 0.446,0 0.801,0.359 0.801,0.8 0,0.446 -0.355,0.801 -0.801,0.801 l -6.398,0 z" /></g></g></svg>