<?xml version="1.0" encoding="UTF-8" standalone="yes"?>
<svg xmlns="http://www.w3.org/2000/svg" xmlns:xlink="http://www.w3.org/1999/xlink" width="96px" height="96px" viewBox="0 0 72 72" version="1.1">
  <g id="surface1">
    <path style="fill:none;stroke-width:1.6;stroke-linecap:round;stroke-linejoin:miter;stroke:rgb(53.72549%,70.980392%,52.156863%);stroke-opacity:1;stroke-miterlimit:4;" d="M 5.15625 4.8 L 33.24375 4.8 C 33.441667 4.8 33.6 4.958333 33.6 5.15625 L 33.6 33.24375 C 33.6 33.441667 33.441667 33.6 33.24375 33.6 L 5.15625 33.6 C 4.958333 33.6 4.8 33.441667 4.8 33.24375 L 4.8 5.15625 C 4.8 4.958333 4.958333 4.8 5.15625 4.8 Z M 5.15625 4.8 " transform="matrix(1.875,0,0,1.875,0,0)"/>
    <path style="fill:none;stroke-width:0.8;stroke-linecap:round;stroke-linejoin:round;stroke:rgb(53.72549%,70.980392%,52.156863%);stroke-opacity:1;stroke-miterlimit:4;" d="M 9.2 17.2 L 14 17.2 L 14 22 L 9.2 22 Z M 9.2 17.2 " transform="matrix(1.875,0,0,1.875,0,0)"/>
    <path style="fill:none;stroke-width:0.8;stroke-linecap:round;stroke-linejoin:round;stroke:rgb(53.72549%,70.980392%,52.156863%);stroke-opacity:1;stroke-miterlimit:4;" d="M 29.2 19.602083 C 29.2 20.925 28.125 22 26.797917 22 C 25.475 22 24.4 20.925 24.4 19.602083 C 24.4 18.275 25.475 17.2 26.797917 17.2 C 28.125 17.2 29.2 18.275 29.2 19.602083 Z M 29.2 19.602083 " transform="matrix(1.875,0,0,1.875,0,0)"/>
    <path style="fill:none;stroke-width:0.8;stroke-linecap:round;stroke-linejoin:round;stroke:rgb(53.72549%,70.980392%,52.156863%);stroke-opacity:1;stroke-miterlimit:4;" d="M 10.291667 9.2 L 28.1125 9.2 C 28.716667 9.2 29.2 9.639583 29.2 10.191667 L 29.2 12.208333 C 29.2 12.760417 28.716667 13.2 28.1125 13.2 L 10.291667 13.2 C 9.6875 13.2 9.2 12.760417 9.2 12.208333 L 9.2 10.191667 C 9.2 9.639583 9.6875 9.2 10.291667 9.2 Z M 10.291667 9.2 " transform="matrix(1.875,0,0,1.875,0,0)"/>
    <path style=" stroke:none;fill-rule:evenodd;fill:rgb(53.72549%,70.980392%,52.156863%);fill-opacity:1;" d="M 52.5 36.75 C 52.5 37.988281 51.492188 39 50.246094 39 C 49.007812 39 48 37.988281 48 36.75 C 48 35.511719 49.007812 34.5 50.246094 34.5 C 51.492188 34.5 52.5 35.511719 52.5 36.75 Z M 52.5 36.75 "/>
    <path style="fill:none;stroke-width:0.8;stroke-linecap:round;stroke-linejoin:round;stroke:rgb(53.72549%,70.980392%,52.156863%);stroke-opacity:1;stroke-miterlimit:4;" d="M 22.8 9.2 L 22.8 13.2 L 27.795833 13.2 C 28.579167 13.2 29.2 12.652083 29.2 11.966667 L 29.2 10.44375 C 29.2 9.758333 28.579167 9.2 27.795833 9.2 Z M 22.8 9.2 " transform="matrix(1.875,0,0,1.875,0,0)"/>
    <path style="fill:none;stroke-width:0.8;stroke-linecap:round;stroke-linejoin:round;stroke:rgb(53.72549%,70.980392%,52.156863%);stroke-opacity:1;stroke-miterlimit:4;" d="M 9.2 24.4 L 14 24.4 L 14 29.2 L 9.2 29.2 Z M 9.2 24.4 " transform="matrix(1.875,0,0,1.875,0,0)"/>
    <path style="fill:none;stroke-width:0.8;stroke-linecap:round;stroke-linejoin:round;stroke:rgb(53.72549%,70.980392%,52.156863%);stroke-opacity:1;stroke-miterlimit:4;" d="M 29.2 26.797917 C 29.2 28.125 28.125 29.2 26.797917 29.2 C 25.475 29.2 24.4 28.125 24.4 26.797917 C 24.4 25.475 25.475 24.4 26.797917 24.4 C 28.125 24.4 29.2 25.475 29.2 26.797917 Z M 29.2 26.797917 " transform="matrix(1.875,0,0,1.875,0,0)"/>
    <path style=" stroke:none;fill-rule:nonzero;fill:rgb(53.72549%,70.980392%,52.156863%);fill-opacity:1;" d="M 19.5 34.5 L 21 34.5 L 21 36 L 19.5 36 Z M 19.5 34.5 "/>
    <path style=" stroke:none;fill-rule:nonzero;fill:rgb(53.72549%,70.980392%,52.156863%);fill-opacity:1;" d="M 19.5 37.5 L 21 37.5 L 21 39 L 19.5 39 Z M 19.5 37.5 "/>
    <path style=" stroke:none;fill-rule:nonzero;fill:rgb(53.72549%,70.980392%,52.156863%);fill-opacity:1;" d="M 22.5 37.5 L 24 37.5 L 24 39 L 22.5 39 Z M 22.5 37.5 "/>
    <path style=" stroke:none;fill-rule:nonzero;fill:rgb(53.72549%,70.980392%,52.156863%);fill-opacity:1;" d="M 22.5 34.5 L 24 34.5 L 24 36 L 22.5 36 Z M 22.5 34.5 "/>
    <path style=" stroke:none;fill-rule:nonzero;fill:rgb(53.72549%,70.980392%,52.156863%);fill-opacity:1;" d="M 21 36 L 22.5 36 L 22.5 37.5 L 21 37.5 Z M 21 36 "/>
    <path style=" stroke:none;fill-rule:nonzero;fill:rgb(53.72549%,70.980392%,52.156863%);fill-opacity:1;" d="M 46.5 19.5 L 48 19.5 L 48 21 L 46.5 21 Z M 46.5 19.5 "/>
    <path style=" stroke:none;fill-rule:nonzero;fill:rgb(53.72549%,70.980392%,52.156863%);fill-opacity:1;" d="M 49.5 19.5 L 51 19.5 L 51 21 L 49.5 21 Z M 49.5 19.5 "/>
    <path style=" stroke:none;fill-rule:nonzero;fill:rgb(53.72549%,70.980392%,52.156863%);fill-opacity:1;" d="M 48 21 L 49.5 21 L 49.5 22.5 L 48 22.5 Z M 48 21 "/>
  </g>
</svg>