<?xml version="1.0" encoding="UTF-8" standalone="yes"?>
<svg xmlns="http://www.w3.org/2000/svg" xmlns:xlink="http://www.w3.org/1999/xlink" width="96px" height="96px" viewBox="0 0 72 72" version="1.1">
  <g id="surface1">
    <path style="fill-rule:nonzero;fill:rgb(33.333333%,61.176471%,64.705882%);fill-opacity:1;stroke-width:4.545;stroke-linecap:butt;stroke-linejoin:miter;stroke:rgb(33.333333%,61.176471%,64.705882%);stroke-opacity:1;stroke-miterlimit:4;" d="M 69.151867 106.231946 C 70.793945 113.782696 71.70621 119.466811 70.372899 127.031596 C 60.085353 135.396367 33.770007 139.157707 33.812112 147.817211 L 30.261294 173.79572 C 30.261294 182.399084 54.822284 189.374405 85.081424 189.374405 C 115.340563 189.374405 139.873483 182.399084 139.873483 173.79572 L 136.336701 147.817211 C 136.294596 140.392774 109.810832 135.691099 99.663634 127.031596 C 98.793473 120.028205 99.467146 113.235337 100.968875 106.231946 Z M 69.151867 106.231946 " transform="matrix(0.278325,0,0,0.278325,0.3744,0.3744)"/>
    <path style="fill-rule:nonzero;fill:rgb(33.333333%,61.176471%,64.705882%);fill-opacity:1;stroke-width:4.545;stroke-linecap:butt;stroke-linejoin:miter;stroke:rgb(33.333333%,61.176471%,64.705882%);stroke-opacity:1;stroke-miterlimit:4;" d="M 84.814761 57.559082 C 72.267604 57.559082 62.078302 67.341373 62.078302 79.39731 C 62.190581 83.874428 62.555487 89.179602 65.1379 101.263609 C 66.625594 105.951249 80.155191 119.368567 80.26747 120.926435 C 83.214788 122.470269 87.846289 122.470269 90.863782 120.926435 C 90.863782 119.368567 103.003929 105.951249 104.519693 101.263609 C 107.396837 88.716452 107.396837 84.098985 107.551221 79.39731 C 107.551221 67.341373 97.361919 57.559082 84.814761 57.559082 Z M 84.814761 57.559082 " transform="matrix(0.278325,0,0,0.278325,0.3744,0.3744)"/>
    <path style="fill-rule:nonzero;fill:rgb(33.333333%,61.176471%,64.705882%);fill-opacity:1;stroke-width:4.545;stroke-linecap:butt;stroke-linejoin:round;stroke:rgb(33.333333%,61.176471%,64.705882%);stroke-opacity:1;stroke-miterlimit:4;" d="M 132.743779 71.186922 C 125.08075 66.625596 112.631837 34.948936 114.554611 48.450463 L 119.101903 80.267471 Z M 132.743779 71.186922 " transform="matrix(0.278325,0,0,0.278325,0.3744,0.3744)"/>
    <path style="fill-rule:nonzero;fill:rgb(33.333333%,61.176471%,64.705882%);fill-opacity:1;stroke-width:4.545;stroke-linecap:butt;stroke-linejoin:round;stroke:rgb(33.333333%,61.176471%,64.705882%);stroke-opacity:1;stroke-miterlimit:4;" d="M 178.006174 71.186922 C 185.683238 66.625596 198.104081 34.948936 196.181307 48.450463 L 191.634015 80.267471 Z M 178.006174 71.186922 " transform="matrix(0.278325,0,0,0.278325,0.3744,0.3744)"/>
    <path style="fill-rule:nonzero;fill:rgb(33.333333%,61.176471%,64.705882%);fill-opacity:1;stroke-width:4.545;stroke-linecap:butt;stroke-linejoin:miter;stroke:rgb(33.333333%,61.176471%,64.705882%);stroke-opacity:1;stroke-miterlimit:4;" d="M 134.820937 107.551222 C 136.926164 117.445792 138.077022 124.926368 136.36477 134.820938 C 123.157975 145.796192 89.319949 150.73646 89.362053 162.07662 L 84.814761 196.181308 C 84.814761 207.479364 116.365107 216.630087 155.269715 216.630087 C 194.188358 216.630087 225.738704 207.479364 225.738704 196.181308 L 221.177377 162.07662 C 221.135273 152.364502 187.072688 146.189168 174.020277 134.820938 C 172.897488 125.628111 173.795719 116.730015 175.732528 107.551222 Z M 134.820937 107.551222 " transform="matrix(0.278325,0,0,0.278325,0.3744,0.3744)"/>
    <path style="fill-rule:nonzero;fill:rgb(33.333333%,61.176471%,64.705882%);fill-opacity:1;stroke-width:4.545;stroke-linecap:butt;stroke-linejoin:miter;stroke:rgb(33.333333%,61.176471%,64.705882%);stroke-opacity:1;stroke-miterlimit:4;" d="M 155.269715 39.369914 C 136.448979 39.369914 121.179061 53.601254 121.179061 71.186922 C 121.347479 77.685058 121.894839 85.418261 125.740388 103.00393 C 127.999999 109.810833 148.266324 128 148.448777 130.259612 C 152.869756 132.547292 159.817007 132.547292 164.364299 130.259612 C 164.364299 128 182.553466 109.810833 184.813077 103.00393 C 189.135811 84.716519 189.135811 77.993825 189.374404 71.186922 C 189.374404 53.601254 174.104486 39.369914 155.269715 39.369914 Z M 155.269715 39.369914 " transform="matrix(0.278325,0,0,0.278325,0.3744,0.3744)"/>
  </g>
</svg>