<?xml version="1.0" encoding="UTF-8" standalone="yes"?>
<svg xmlns="http://www.w3.org/2000/svg" xmlns:xlink="http://www.w3.org/1999/xlink" width="96px" height="96px" viewBox="0 0 72 72" version="1.1">
  <g id="surface1">
    <path style="fill:none;stroke-width:0.75;stroke-linecap:round;stroke-linejoin:round;stroke:rgb(87.058824%,27.45098%,27.45098%);stroke-opacity:1;stroke-miterlimit:4;" d="M 19.710938 10.205729 L 23.598958 20.078125 L 27.96875 8.848958 " transform="matrix(1.5,0,0,1.5,0,0)"/>
    <path style="fill:none;stroke-width:0.75;stroke-linecap:round;stroke-linejoin:round;stroke:rgb(87.058824%,27.45098%,27.45098%);stroke-opacity:1;stroke-miterlimit:4;" d="M 19.710938 10.205729 L 12.161458 20.742188 L 13.619792 11.338542 " transform="matrix(1.5,0,0,1.5,0,0)"/>
    <path style="fill:none;stroke-width:0.75;stroke-linecap:round;stroke-linejoin:round;stroke:rgb(87.058824%,27.45098%,27.45098%);stroke-opacity:1;stroke-miterlimit:4;" d="M 27.96875 8.859375 L 36.627604 17.559896 L 34.820312 8.630208 " transform="matrix(1.5,0,0,1.5,0,0)"/>
    <path style="fill:none;stroke-width:0.75;stroke-linecap:round;stroke-linejoin:round;stroke:rgb(87.058824%,27.45098%,27.45098%);stroke-opacity:1;stroke-miterlimit:4;" d="M 5.625 20.841146 L 26.575521 39.375 L 17.4375 20.697917 Z M 5.625 20.841146 " transform="matrix(1.5,0,0,1.5,0,0)"/>
    <path style="fill:none;stroke-width:0.75;stroke-linecap:round;stroke-linejoin:round;stroke:rgb(87.058824%,27.45098%,27.45098%);stroke-opacity:1;stroke-miterlimit:4;" d="M 5.625 20.841146 L 13.588542 11.338542 L 19.710938 10.205729 L 17.4375 20.697917 Z M 5.625 20.841146 " transform="matrix(1.5,0,0,1.5,0,0)"/>
    <path style="fill:none;stroke-width:0.75;stroke-linecap:round;stroke-linejoin:round;stroke:rgb(87.058824%,27.45098%,27.45098%);stroke-opacity:1;stroke-miterlimit:4;" d="M 27.96875 8.848958 L 34.820312 8.630208 L 42.375 15.924479 L 30.3125 19.354167 " transform="matrix(1.5,0,0,1.5,0,0)"/>
    <path style="fill:none;stroke-width:0.75;stroke-linecap:round;stroke-linejoin:round;stroke:rgb(87.058824%,27.45098%,27.45098%);stroke-opacity:1;stroke-miterlimit:4;" d="M 19.708333 10.205729 L 27.96875 8.848958 L 30.3125 19.354167 L 17.4375 20.700521 " transform="matrix(1.5,0,0,1.5,0,0)"/>
    <path style="fill:none;stroke-width:0.75;stroke-linecap:round;stroke-linejoin:round;stroke:rgb(87.058824%,27.45098%,27.45098%);stroke-opacity:1;stroke-miterlimit:4;" d="M 26.575521 39.375 L 42.375 15.924479 L 30.3125 19.354167 Z M 26.575521 39.375 " transform="matrix(1.5,0,0,1.5,0,0)"/>
    <path style="fill:none;stroke-width:0.375;stroke-linecap:round;stroke-linejoin:round;stroke:rgb(87.058824%,27.45098%,27.45098%);stroke-opacity:1;stroke-miterlimit:4;" d="M 36.627604 17.559896 L 26.575521 39.375 " transform="matrix(1.5,0,0,1.5,0,0)"/>
    <path style="fill:none;stroke-width:0.375;stroke-linecap:round;stroke-linejoin:round;stroke:rgb(87.058824%,27.45098%,27.45098%);stroke-opacity:1;stroke-miterlimit:4;" d="M 23.598958 20.078125 L 26.575521 39.375 " transform="matrix(1.5,0,0,1.5,0,0)"/>
    <path style="fill:none;stroke-width:0.375;stroke-linecap:round;stroke-linejoin:round;stroke:rgb(87.058824%,27.45098%,27.45098%);stroke-opacity:1;stroke-miterlimit:4;" d="M 12.161458 20.742188 L 26.575521 39.375 " transform="matrix(1.5,0,0,1.5,0,0)"/>
  </g>
</svg>