<?xml version="1.0" encoding="UTF-8" standalone="yes"?>
<svg xmlns="http://www.w3.org/2000/svg" xmlns:xlink="http://www.w3.org/1999/xlink" width="96px" height="96px" viewBox="0 0 72 72" version="1.1">
  <g id="surface1">
    <path style=" stroke:none;fill-rule:nonzero;fill:rgb(69.803922%,64.705882%,27.45098%);fill-opacity:1;" d="M 9.457031 7.5 C 8.371094 7.5 7.5 8.34375 7.5 9.390625 L 7.5 62.609375 C 7.5 63.65625 8.371094 64.5 9.457031 64.5 L 20.535156 64.5 C 21.628906 64.5 22.5 63.65625 22.5 62.609375 L 22.5 9.390625 C 22.5 8.34375 21.628906 7.5 20.535156 7.5 Z M 10.5 10.5 L 19.5 10.5 L 19.5 34.5 L 10.5 34.5 Z M 15 46.5 C 17.070312 46.5 18.75 48.179688 18.75 50.25 C 18.75 52.320312 17.070312 54 15 54 C 12.929688 54 11.25 52.320312 11.25 50.25 C 11.25 48.179688 12.929688 46.5 15 46.5 Z M 15 46.5 "/>
    <path style=" stroke:none;fill-rule:nonzero;fill:rgb(69.803922%,64.705882%,27.45098%);fill-opacity:1;" d="M 27.320312 7.5 C 26.308594 7.5 25.5 8.34375 25.5 9.390625 L 25.5 62.609375 C 25.5 63.65625 26.308594 64.5 27.320312 64.5 L 34.175781 64.5 C 35.191406 64.5 36 63.65625 36 62.609375 L 36 9.390625 C 36 8.34375 35.191406 7.5 34.175781 7.5 Z M 28.5 10.5 L 33 10.5 L 33 34.5 L 28.5 34.5 Z M 30.75 47.25 C 32.40625 47.25 33.75 48.59375 33.75 50.25 C 33.75 51.90625 32.40625 53.25 30.75 53.25 C 29.09375 53.25 27.75 51.90625 27.75 50.25 C 27.75 48.59375 29.09375 47.25 30.75 47.25 Z M 30.75 47.25 "/>
    <path style=" stroke:none;fill-rule:nonzero;fill:rgb(69.803922%,64.705882%,27.45098%);fill-opacity:1;" d="M 40.59375 9.597656 C 39.476562 9.894531 38.804688 10.945312 39.074219 11.953125 L 52.847656 63.136719 C 53.121094 64.148438 54.230469 64.71875 55.34375 64.421875 L 62.914062 62.402344 C 64.035156 62.101562 64.710938 61.054688 64.441406 60.042969 L 50.667969 8.863281 C 50.394531 7.851562 49.285156 7.28125 48.160156 7.578125 Z M 42.257812 12.246094 L 48.054688 10.703125 L 54.269531 33.785156 L 48.472656 35.328125 Z M 54.476562 46.097656 C 56.476562 45.566406 58.53125 46.746094 59.066406 48.738281 C 59.605469 50.730469 58.417969 52.777344 56.417969 53.3125 C 54.414062 53.84375 52.359375 52.664062 51.824219 50.671875 C 51.289062 48.679688 52.476562 46.632812 54.476562 46.097656 Z M 54.476562 46.097656 "/>
  </g>
</svg>