<?xml version="1.0" encoding="UTF-8" standalone="yes"?>
<svg xmlns="http://www.w3.org/2000/svg" xmlns:xlink="http://www.w3.org/1999/xlink" width="96px" height="96px" viewBox="0 0 72 72" version="1.1">
  <g id="surface1">
    <path style=" stroke:none;fill-rule:nonzero;fill:rgb(54.901961%,80.392157%,48.627451%);fill-opacity:1;" d="M 21.300781 22.988281 C 14.09375 22.988281 8.25 28.867188 8.25 36.109375 C 8.25 36.5625 8.257812 37.007812 8.300781 37.445312 C 8.410156 40.257812 8.25 44.316406 11.515625 54.160156 C 14.289062 62.539062 16.40625 62.363281 16.40625 62.363281 L 19.664062 60.71875 C 19.664062 60.71875 18.035156 57.441406 18.035156 54.160156 C 18.035156 52.585938 18.40625 50.640625 18.800781 49.035156 C 19.605469 49.1875 20.453125 49.238281 21.300781 49.238281 C 28.5 49.238281 34.34375 43.359375 34.34375 36.109375 C 34.34375 28.867188 28.5 22.988281 21.300781 22.988281 Z M 21.300781 22.988281 "/>
    <path style=" stroke:none;fill-rule:nonzero;fill:rgb(54.901961%,80.392157%,48.627451%);fill-opacity:1;" d="M 50.699219 49.011719 C 57.90625 49.011719 63.75 43.132812 63.75 35.890625 C 63.75 35.4375 63.742188 34.992188 63.699219 34.554688 C 63.589844 31.742188 63.75 27.683594 60.484375 17.839844 C 57.710938 9.460938 55.59375 9.636719 55.59375 9.636719 L 52.335938 11.28125 C 52.335938 11.28125 53.964844 14.558594 53.964844 17.839844 C 53.964844 19.414062 53.59375 21.359375 53.199219 22.964844 C 52.394531 22.8125 51.546875 22.761719 50.699219 22.761719 C 43.5 22.761719 37.65625 28.640625 37.65625 35.890625 C 37.65625 43.132812 43.5 49.011719 50.699219 49.011719 Z M 50.699219 49.011719 "/>
  </g>
</svg>