<?xml version="1.0" encoding="UTF-8" standalone="yes"?>
<svg xmlns="http://www.w3.org/2000/svg" xmlns:xlink="http://www.w3.org/1999/xlink" width="96px" height="96px" viewBox="0 0 72 72" version="1.1">
  <g id="surface1">
    <path style=" stroke:none;fill-rule:nonzero;fill:rgb(57.254902%,66.27451%,56.862745%);fill-opacity:1;" d="M 10.5 6 L 10.5 24 L 6 24 L 6 30 L 10.5 30 L 10.5 36 L 6 36 L 6 42 L 10.5 42 L 10.5 62.226562 L 6 62.226562 L 6 66 L 15 66 L 15 55.5 L 66 55.5 L 66 16.5 L 15 16.5 L 15 6 Z M 15 21 L 61.5 21 L 61.5 51 L 15 51 Z M 18 24 L 18 30 L 36 30 L 36 24 Z M 40.5 24 L 40.5 30 L 58.5 30 L 58.5 24 Z M 18 33 L 18 37.5 L 58.5 37.5 L 58.5 33 Z M 18 40.5 L 18 43.5 L 58.5 43.5 L 58.5 40.5 Z M 18 46.5 L 18 48 L 24 48 L 24 46.5 Z M 25.5 46.5 L 25.5 48 L 30 48 L 30 46.5 Z M 31.5 46.5 L 31.5 48 L 34.5 48 L 34.5 46.5 Z M 36 46.5 L 36 48 L 39 48 L 39 46.5 Z M 45 46.5 L 45 48 L 51 48 L 51 46.5 Z M 52.5 46.5 L 52.5 48 L 58.5 48 L 58.5 46.5 Z M 52.5 46.5 "/>
  </g>
</svg>