<?xml version="1.0" encoding="UTF-8" standalone="yes"?>
<svg xmlns="http://www.w3.org/2000/svg" xmlns:xlink="http://www.w3.org/1999/xlink" width="96px" height="96px" viewBox="0 0 72 72" version="1.1">
  <g id="surface1">
    <path style="fill:none;stroke-width:2;stroke-linecap:round;stroke-linejoin:round;stroke:rgb(41.960784%,68.627451%,32.54902%);stroke-opacity:1;stroke-miterlimit:4;" d="M 10.539062 1021.3622 L 37.460938 1021.3622 C 38.309896 1021.3622 39 1022.052304 39 1022.901263 L 39 1033.823138 C 39 1034.672096 38.309896 1035.3622 37.460938 1035.3622 L 10.539062 1035.3622 C 9.690104 1035.3622 9 1034.672096 9 1033.823138 L 9 1022.901263 C 9 1022.052304 9.690104 1021.3622 10.539062 1021.3622 Z M 10.539062 1021.3622 " transform="matrix(1.5,0,0,1.5,0,-1506.5433)"/>
    <path style=" stroke:none;fill-rule:nonzero;fill:rgb(41.960784%,68.627451%,32.54902%);fill-opacity:1;" d="M 17.25 28.5 C 16.835938 28.5 16.5 28.835938 16.5 29.25 L 16.5 42.75 C 16.5 43.164062 16.835938 43.5 17.25 43.5 L 35.332031 43.5 C 35.746094 43.5 36.082031 43.164062 36.082031 42.75 L 36.082031 29.25 C 36.082031 28.835938 35.746094 28.5 35.332031 28.5 Z M 22.5 39 L 22.5 33 L 24 33 L 24 39 Z M 25.5 39 L 25.5 33 L 27 33 L 27 39 Z M 28.5 39 L 28.5 33 L 30 33 L 30 39 Z M 28.5 39 "/>
  </g>
</svg>