<svg version="1.1" viewBox="0 0 64 64" xmlns="http://www.w3.org/2000/svg">
 <path d="m10.7 0c-1.38 0-2.7 1.36-2.7 2.79v58.4c0 1.36 1.41 2.79 2.7 2.79h42.7c1.3 0 2.6-1.43 2.6-2.79v-43.2l-18-18" style="fill:#c19553"/>
 <path d="m8 48v13.3c0 1.3 1.38 2.66 2.66 2.66h42.7c1.29 0 2.66-1.37 2.66-2.66v-13.3" style="opacity:.2"/>
 <path d="m42 18 14 14v-14" style="opacity:.2"/>
 <path d="m38 0 18 18h-15.2c-1.35 0-2.76-1.43-2.76-2.77" style="fill:#fff;opacity:.4"/>
 <path d="m18 0v6h6v-6h-6zm6 6v6h6v-6h-6zm0 6h-6v6h6v-6zm0 6v6h6v-6h-6zm0 6h-6v6h6v-6zm-6 8v12h12v-12h-12z" style="fill:#fff"/>
 <path d="m36.4 49.9c-1.1 0-1.97 0.309-2.6 0.926-0.622 0.617-0.934 1.47-0.934 2.57 0 0.554 0.0898 1.02 0.268 1.39 0.178 0.365 0.399 0.674 0.666 0.926 0.278 0.252 0.583 0.459 0.916 0.622 0.333 0.164 0.656 0.309 0.967 0.434 0.233 0.101 0.468 0.214 0.701 0.339 0.233 0.113 0.444 0.245 0.633 0.396 0.189 0.138 0.345 0.302 0.467 0.491 0.122 0.189 0.184 0.404 0.184 0.644 0 0.189-0.0284 0.378-0.084 0.567-0.0444 0.176-0.132 0.338-0.266 0.489-0.133 0.138-0.317 0.254-0.551 0.341-0.222 0.0756-0.505 0.112-0.85 0.112-0.6 0-1.11-0.0874-1.53-0.264-0.411-0.176-0.766-0.366-1.07-0.567l-0.602 1.89c0.256 0.176 0.639 0.373 1.15 0.586 0.511 0.202 1.2 0.301 2.05 0.301 1.28 0 2.23-0.296 2.85-0.888 0.633-0.605 0.949-1.46 0.949-2.55 0-0.643-0.0943-1.18-0.283-1.59-0.189-0.428-0.432-0.78-0.732-1.06-0.289-0.289-0.611-0.515-0.967-0.679-0.344-0.176-0.678-0.334-1-0.473-0.211-0.0881-0.428-0.184-0.65-0.285-0.211-0.101-0.406-0.214-0.584-0.339-0.167-0.138-0.305-0.289-0.416-0.454-0.111-0.176-0.166-0.377-0.166-0.604 0-0.894 0.544-1.34 1.63-1.34 0.444 0 0.833 0.0618 1.17 0.188 0.344 0.126 0.656 0.278 0.934 0.454l0.6-1.79c-0.322-0.202-0.721-0.382-1.2-0.546-0.467-0.164-1.02-0.247-1.65-0.247zm-20.4 0.162v2.16h3v9.72h2v-9.72h3v-2.16zm9 0v2.16h4.21l-4.21 8.1v1.62h6.7v-2.16h-4.12l4.12-8.1v-1.62zm15 0v2.16h3v9.72h2v-9.72h3v-2.16z" style="fill:#fff"/>
</svg>
