<svg version="1.1" viewBox="0 0 64 64" xmlns="http://www.w3.org/2000/svg">
 <path d="m10.7 0c-1.38 0-2.67 1.36-2.67 2.79v58.4c0 1.36 1.38 2.79 2.67 2.79h42.7c1.3 0 2.67-1.43 2.67-2.79v-43.2l-18-18" style="fill:#c19553"/>
 <path d="m8 48v13.3c0 1.3 1.38 2.66 2.66 2.66h42.7c1.29 0 2.66-1.37 2.66-2.66v-13.3" style="opacity:.2"/>
 <path d="m42 18 14 14v-14" style="opacity:.2"/>
 <path d="m38 0 18 18h-15.2c-1.35 0-2.76-1.43-2.76-2.77" style="fill:#fff;opacity:.4"/>
 <path d="m18 0v6h6v-6h-6zm6 6v6h6v-6h-6zm0 6h-6v6h6v-6zm0 6v6h6v-6h-6zm0 6h-6v6h6v-6zm-6 8v12h12v-12h-12z" style="fill:#fff"/>
 <path d="m33.7 50c-3.09 0-5.5 2.1-5.5 6.09 0 3.74 1.7 6.1 5.27 6.1v0.0021c0.592 0 2.16-0.0753 3.39-0.813l-0.605-1.83c-0.633 0.362-1.47 0.625-2.55 0.625-1.27 0-3.05-0.422-3.05-4.14 0-3.58 2.02-4.02 3.01-4.02 0.457 0 1.58 0.0693 2.55 0.679l0.625-1.85c-0.946-0.61-2.03-0.793-3.13-0.849zm-12.2 0.254c-0.551 1.7-1.12 3.5-1.7 5.41-0.594 1.89-1.18 3.99-1.75 6.28h2.51l0.547-2.7h3.23l0.574 2.7h2.58c-0.535-2.23-1.09-4.31-1.67-6.23-0.558-1.93-1.12-3.74-1.7-5.46zm17.2 0.0041v11.7h7.78v-1.92h-5.37v-3.29h4.29v-1.92h-4.29v-2.63h4.94v-1.93zm-15.9 2.26c0.479 1.58 0.868 3.18 1.17 4.8h-2.37c0.358-1.83 0.552-2.66 1.2-4.8z" style="fill:#fff"/>
</svg>
