
<svg xmlns="http://www.w3.org/2000/svg" xmlns:xlink="http://www.w3.org/1999/xlink" width="64px" height="64px" viewBox="0 0 64 64" version="1.1">
<g id="surface1">
<path style=" stroke:none;fill-rule:nonzero;fill:rgb(47.058824%,35.294118%,54.509804%);fill-opacity:1;" d="M 10.671875 0 C 9.296875 0 8 1.355469 8 2.789062 L 8 61.210938 C 8 62.566406 9.375 64 10.671875 64 L 53.328125 64 C 54.625 64 56 62.566406 56 61.210938 L 56 18 L 38 0 Z M 10.671875 0 "/>
<path style=" stroke:none;fill-rule:nonzero;fill:rgb(0%,0%,0%);fill-opacity:0.196078;" d="M 42 18 L 56 32 L 56 18 Z M 42 18 "/>
<path style=" stroke:none;fill-rule:nonzero;fill:rgb(100%,100%,100%);fill-opacity:0.392157;" d="M 38 0 L 55.984375 18 L 40.757812 18 C 39.410156 18 38 16.574219 38 15.226562 Z M 38 0 "/>
<path style=" stroke:none;fill-rule:nonzero;fill:rgb(0%,0%,0%);fill-opacity:0.196078;" d="M 8 48 L 8 61.335938 C 8 62.632812 9.375 64 10.664062 64 L 53.335938 64 C 54.625 64 56 62.632812 56 61.335938 L 56 48 Z M 8 48 "/>
<path style=" stroke:none;fill-rule:nonzero;fill:rgb(100%,100%,100%);fill-opacity:1;" d="M 20.269531 56.351562 C 20.269531 56.882812 20.285156 57.378906 20.328125 57.839844 C 20.386719 58.296875 20.476562 58.691406 20.609375 59.03125 C 20.757812 59.371094 20.957031 59.636719 21.203125 59.832031 C 21.460938 60.03125 21.800781 60.132812 22.222656 60.132812 C 22.636719 60.132812 22.964844 60.03125 23.222656 59.832031 C 23.488281 59.636719 23.683594 59.371094 23.816406 59.03125 C 23.964844 58.675781 24.058594 58.28125 24.097656 57.824219 C 24.148438 57.371094 24.179688 56.882812 24.179688 56.351562 C 24.179688 55.832031 24.148438 55.34375 24.097656 54.890625 C 24.058594 54.417969 23.964844 54.023438 23.816406 53.683594 C 23.683594 53.34375 23.496094 53.078125 23.238281 52.878906 C 22.992188 52.683594 22.652344 52.582031 22.222656 52.582031 C 21.800781 52.582031 21.460938 52.683594 21.203125 52.878906 C 20.957031 53.078125 20.757812 53.351562 20.609375 53.699219 C 20.476562 54.039062 20.386719 54.433594 20.328125 54.890625 C 20.285156 55.34375 20.269531 55.832031 20.269531 56.351562 M 17.773438 56.351562 C 17.773438 54.492188 18.171875 53.085938 18.957031 52.144531 C 19.742188 51.1875 20.824219 50.714844 22.222656 50.714844 C 23.675781 50.714844 24.777344 51.1875 25.535156 52.144531 C 26.289062 53.085938 26.667969 54.492188 26.667969 56.351562 C 26.667969 58.222656 26.289062 59.628906 25.511719 60.585938 C 24.742188 61.527344 23.652344 62 22.246094 62 C 20.792969 62 19.683594 61.527344 18.914062 60.585938 C 18.152344 59.628906 17.773438 58.222656 17.773438 56.351562 "/>
<path style=" stroke:none;fill-rule:nonzero;fill:rgb(100%,100%,100%);fill-opacity:1;" d="M 30.738281 60.023438 C 30.804688 60.039062 30.878906 60.039062 30.960938 60.039062 C 31.035156 60.039062 31.109375 60.039062 31.175781 60.039062 C 31.738281 60.039062 32.199219 59.949219 32.574219 59.757812 C 32.960938 59.578125 33.265625 59.320312 33.492188 58.992188 C 33.730469 58.667969 33.894531 58.28125 33.988281 57.839844 C 34.09375 57.386719 34.152344 56.890625 34.152344 56.351562 C 34.152344 55.890625 34.109375 55.433594 34.027344 54.988281 C 33.953125 54.550781 33.8125 54.160156 33.613281 53.824219 C 33.417969 53.484375 33.144531 53.21875 32.796875 53.019531 C 32.449219 52.804688 32.003906 52.707031 31.457031 52.707031 C 31.347656 52.707031 31.234375 52.707031 31.101562 52.722656 C 30.96875 52.722656 30.84375 52.730469 30.738281 52.757812 L 30.738281 60.023438 M 36.640625 56.351562 C 36.640625 57.355469 36.5 58.214844 36.203125 58.925781 C 35.921875 59.628906 35.53125 60.199219 35.027344 60.636719 C 34.523438 61.082031 33.921875 61.40625 33.210938 61.613281 C 32.523438 61.808594 31.753906 61.910156 30.917969 61.910156 C 30.480469 61.910156 30.050781 61.890625 29.621094 61.84375 C 29.207031 61.808594 28.761719 61.742188 28.289062 61.652344 L 28.289062 51.09375 C 28.84375 50.988281 29.375 50.921875 29.859375 50.886719 C 30.355469 50.855469 30.8125 50.832031 31.242188 50.832031 C 32.050781 50.832031 32.789062 50.9375 33.449219 51.144531 C 34.128906 51.359375 34.707031 51.691406 35.167969 52.144531 C 35.632812 52.582031 35.996094 53.160156 36.242188 53.855469 C 36.507812 54.542969 36.640625 55.378906 36.640625 56.351562 "/>
<path style=" stroke:none;fill-rule:nonzero;fill:rgb(100%,100%,100%);fill-opacity:1;" d="M 38.433594 61.769531 L 38.433594 50.953125 L 46 50.953125 L 46 52.738281 L 40.890625 52.738281 L 40.890625 55.359375 L 45.355469 55.359375 L 45.355469 57.136719 L 40.890625 57.136719 L 40.890625 61.769531 L 38.433594 61.769531 "/>
<path style=" stroke:none;fill-rule:nonzero;fill:rgb(100%,100%,100%);fill-opacity:1;" d="M 24 24 L 24 36 L 20 36 L 24 44 L 26 44 L 26 26 C 31.90625 26 38.296875 26 44 26 L 44 24 Z M 31.238281 27.761719 L 28.410156 30.714844 L 33.367188 35.878906 L 28.410156 41.046875 L 31.238281 44 L 36.195312 38.832031 L 41.152344 44 L 43.984375 41.046875 L 39.027344 35.878906 L 43.984375 30.714844 L 41.152344 27.761719 L 36.195312 32.925781 Z M 31.238281 27.761719 "/>
</g>
</svg>
