<?xml version="1.0" encoding="UTF-8" standalone="no"?>
<svg
   xmlns:dc="http://purl.org/dc/elements/1.1/"
   xmlns:cc="http://creativecommons.org/ns#"
   xmlns:rdf="http://www.w3.org/1999/02/22-rdf-syntax-ns#"
   xmlns:svg="http://www.w3.org/2000/svg"
   xmlns="http://www.w3.org/2000/svg"
   xmlns:sodipodi="http://sodipodi.sourceforge.net/DTD/sodipodi-0.dtd"
   xmlns:inkscape="http://www.inkscape.org/namespaces/inkscape"
   width="64px"
   height="64px"
   viewBox="0 0 64 64"
   version="1.1"
   id="svg2"
   inkscape:version="0.91 r13725"
   sodipodi:docname="application-x-deb2.svg">
  <metadata
     id="metadata21">
    <rdf:RDF>
      <cc:Work
         rdf:about="">
        <dc:format>image/svg+xml</dc:format>
        <dc:type
           rdf:resource="http://purl.org/dc/dcmitype/StillImage" />
        <dc:title />
      </cc:Work>
    </rdf:RDF>
  </metadata>
  <defs
     id="defs19" />
  <sodipodi:namedview
     pagecolor="#ffffff"
     bordercolor="#666666"
     borderopacity="1"
     objecttolerance="10"
     gridtolerance="10"
     guidetolerance="10"
     inkscape:pageopacity="0"
     inkscape:pageshadow="2"
     inkscape:window-width="1366"
     inkscape:window-height="704"
     id="namedview17"
     showgrid="false"
     inkscape:zoom="1"
     inkscape:cx="23.727956"
     inkscape:cy="7.0448096"
     inkscape:window-x="0"
     inkscape:window-y="27"
     inkscape:window-maximized="1"
     inkscape:current-layer="svg2">
    <inkscape:grid
       type="xygrid"
       id="grid4149" />
  </sodipodi:namedview>
  <g
     id="surface1">
    <path
       style=" stroke:none;fill-rule:nonzero;fill:rgb(75.686275%,58.431373%,32.54902%);fill-opacity:1;"
       d="M 10.742188 8 C 9.375 8 8 9.375 8 10.742188 L 8 53.335938 C 8 54.625 9.375 56 10.664062 56 L 53.335938 56 C 54.625 56 56 54.625 56 53.335938 L 56 10.664062 C 56 9.375 54.625 8 53.335938 8 Z M 10.742188 8 "
       id="path5" />
    <path
       style=" stroke:none;fill-rule:nonzero;fill:rgb(100%,100%,100%);fill-opacity:0.196078;"
       d="M 10.742188 8 C 9.375 8 8 9.375 8 10.742188 L 8 24 C 13.335938 24 50.664062 24 56 24 L 56 10.664062 C 56 9.375 54.625 8 53.335938 8 Z M 10.742188 8 "
       id="path7" />
    <path
       style=" stroke:none;fill-rule:nonzero;fill:rgb(100%,100%,100%);fill-opacity:0.392157;"
       d="M 28 14 L 28 34 L 36 34 L 36 14 Z M 28 14 "
       id="path9" />
    <path
       style="fill:#ffffff;fill-opacity:1;fill-rule:nonzero;stroke:none"
       d="m 21.039293,49.149531 c 0.06329,0.0084 0.134494,0.01653 0.213606,0.01653 l 0.205696,0 c 0.537972,0 0.981008,-0.09903 1.337019,-0.288821 0.371834,-0.189798 0.664553,-0.44561 0.878161,-0.775688 0.229428,-0.338335 0.387655,-0.726178 0.474681,-1.171786 0.102847,-0.462114 0.158227,-0.965486 0.158227,-1.510119 0,-0.478616 -0.03955,-0.940728 -0.118671,-1.386338 -0.07912,-0.453861 -0.205695,-0.849956 -0.403479,-1.196541 -0.189873,-0.338333 -0.450947,-0.61065 -0.775312,-0.81695 -0.332278,-0.214552 -0.75949,-0.321828 -1.281641,-0.321828 -0.102847,0 -0.213606,0.0084 -0.348099,0.02476 -0.126582,0 -0.23734,0.0084 -0.340188,0.03299 l 0,7.393802 M 26.688,45.419625 c 0,1.014997 -0.142404,1.881456 -0.419301,2.607634 -0.268987,0.709675 -0.64082,1.295566 -1.123414,1.741175 -0.482592,0.453862 -1.068032,0.783943 -1.740497,0.998496 -0.656642,0.198047 -1.392399,0.29707 -2.191445,0.29707 -0.419301,0 -0.838604,-0.02476 -1.242082,-0.06604 C 19.575692,50.95671 19.07886,50.898948 18.62,50.799928 l 0,-10.735872 c 0.537972,-0.107273 1.106008,-0.173288 1.58069,-0.214547 0.46677,-0.033 0.909806,-0.04951 1.313284,-0.04951 0.775313,0 1.487335,0.107273 2.120243,0.321828 0.648731,0.214553 1.194614,0.552886 1.645562,1.014999 0.443036,0.445608 0.783224,1.023248 1.028476,1.741173 0.253163,0.69317 0.379745,1.543127 0.379745,2.541621"
       id="path11"
       inkscape:connector-curvature="0"
       sodipodi:nodetypes="csscccscccscccccccsccccscccc" />
    <path
       style="fill:#ffffff;fill-opacity:1;fill-rule:nonzero;stroke:none"
       d="m 28.258,50.931 0,-10.814 7.164425,0 0,1.76776 -4.813226,0 0,2.402547 4.179907,0 0,1.76776 -4.179907,0 0,3.108173 5.232801,0 0,1.76776 -7.584,0"
       id="path13"
       inkscape:connector-curvature="0"
       sodipodi:nodetypes="ccccccccccccc" />
    <path
       style="fill:#ffffff;fill-opacity:1;fill-rule:nonzero;stroke:none"
       d="m 45.58,47.598152 c 0,0.668414 -0.12554,1.221297 -0.360929,1.67516 -0.243233,0.437354 -0.572776,0.792194 -0.988627,1.064507 -0.40016,0.264064 -0.886628,0.453859 -1.451558,0.56939 -0.557084,0.107274 -1.153399,0.156788 -1.796794,0.156788 -0.517852,0 -1.059244,-0.02476 -1.616327,-0.0825 C 38.816526,50.931967 38.291392,50.849456 37.75,50.750433 l 0,-10.686358 c 0.43939,-0.06604 0.901755,-0.123778 1.427454,-0.173288 0.533546,-0.05776 1.059245,-0.09079 1.577097,-0.09079 0.878781,0 1.600637,0.0908 2.157722,0.264062 0.549237,0.165042 0.988627,0.396101 1.302477,0.676668 0.313851,0.272316 0.533546,0.577641 0.643394,0.924225 0.109847,0.346584 0.172617,0.684916 0.172617,1.031502 0,0.519877 -0.141232,0.981988 -0.415851,1.386338 -0.266773,0.404347 -0.627701,0.726177 -1.082784,0.957234 0.792473,0.272315 1.333864,0.643654 1.608484,1.105767 0.290311,0.462114 0.43939,0.948983 0.43939,1.452355 m -5.531612,-1.493613 0,2.987227 c 0.164772,0.02476 0.345236,0.04129 0.533546,0.05774 0.204003,0.0084 0.400158,0.01653 0.588469,0.01653 0.258927,0 0.517854,-0.01653 0.77678,-0.05775 0.25108,-0.04128 0.470775,-0.12378 0.659085,-0.231058 0.204003,-0.115526 0.368775,-0.272313 0.494315,-0.478616 0.12554,-0.214552 0.18831,-0.478617 0.18831,-0.800445 0,-0.528129 -0.18831,-0.90772 -0.549239,-1.130525 C 42.386573,46.22833 41.907952,46.10455 41.303789,46.10455 l -1.255401,0 m 0.910166,-1.807191 c 0.596316,0 1.043553,-0.12378 1.34171,-0.354836 0.306004,-0.247561 0.455084,-0.585894 0.455084,-1.014998 0,-0.264064 -0.03923,-0.470365 -0.133387,-0.618901 -0.08631,-0.165041 -0.204003,-0.297073 -0.353082,-0.379592 -0.156926,-0.0908 -0.329542,-0.148537 -0.533546,-0.173293 -0.204002,-0.03299 -0.408005,-0.05774 -0.6277,-0.05774 -0.172617,0 -0.353082,0.0084 -0.549237,0.02476 -0.188311,0.0084 -0.353083,0.02476 -0.510008,0.04952 l 0,2.525115 0.910166,0"
       id="path15"
       inkscape:connector-curvature="0"
       sodipodi:nodetypes="ccccsccccsccsscccccccscccscscccscccscccc" />
  </g>
</svg>
