<svg version="1.1" viewBox="0 0 64 64" xmlns="http://www.w3.org/2000/svg">
 <path d="m10.7 0c-1.38 0-2.67 1.36-2.67 2.79v58.4c0 1.36 1.38 2.79 2.67 2.79h42.7c1.3 0 2.67-1.43 2.67-2.79v-43.2l-18-18z" style="fill:#bf9451"/>
 <path d="m8 48v13.3c0 1.3 1.38 2.66 2.66 2.66h42.7c1.29 0 2.66-1.37 2.66-2.66v-13.3z" style="opacity:.2"/>
 <path d="m43.4 49.7c-3.04 0-5.5 2.09-5.5 6.19 0 3.75 1.67 6.2 5.28 6.2l-2e-3 0.0021c0.595 0 2.16-0.0773 3.39-0.827l-0.604-1.86c-0.634 0.368-1.47 0.635-2.55 0.635-1.27 0-3.05-0.429-3.05-4.2 0-1.38 0.343-4.09 3.02-4.09 0.493 0 1.59 0.0771 2.55 0.688l0.625-1.88c-0.944-0.618-2.03-0.804-3.13-0.863zm-11.6 0.341c-0.333 0-1.8 0.0156-3.13 0.303v11.7h2.41v-4.35h1.25c0.59 0.928 1.69 2.77 2.33 4.36h2.53c-0.744-1.87-1.99-3.9-2.66-4.93 1.47-0.643 1.86-1.95 1.86-3.16 0-3.31-2.73-3.87-4.58-3.87zm-10.4 0.143c-1.77 5.51-2.61 8.4-3.45 11.8h2.51l0.551-2.73h3.23l0.566 2.72h2.59c-0.404-1.68-1.53-6.29-3.37-11.8zm10.4 1.9c0.81 0 2.14 0.24 2.14 1.81h-2e-3c-0.1 1.44-1.07 1.69-2.34 1.8h-0.521v-3.55c0.237-0.0538 0.482-0.0398 0.723-0.0596zm-9.11 0.392c0.455 1.53 0.7 2.43 1.17 4.85h-2.37c0.221-1.26 0.319-1.82 1.2-4.85z" style="fill:#fff"/>
 <path d="m42 18 14 14v-14z" style="opacity:.2"/>
 <path d="m38 0 18 18h-15.2c-1.35 0-2.76-1.43-2.76-2.77z" style="fill:#fff;opacity:.4"/>
 <path d="m18 0v6h6v-6h-6zm6 6v6h6v-6h-6zm0 6h-6v6h6v-6zm0 6v6h6v-6h-6zm0 6h-6v6h6v-6zm-6 8v12h12v-12h-12z" style="fill:#fff"/>
</svg>
