<svg width="64" xmlns="http://www.w3.org/2000/svg" height="64" viewBox="0 0 64 64" xmlns:xlink="http://www.w3.org/1999/xlink">
<defs>
<linearGradient gradientTransform="matrix(.66412 0 0 .66412 -19.90363 1.34851)" id="linear0" y1="14" x1="102" y2="24" gradientUnits="userSpaceOnUse" x2="92">
<stop offset="0" style="stop-color:#ce5b00"/>
<stop offset="1" style="stop-color:#d6b9a1"/>
</linearGradient>
<linearGradient gradientTransform="matrix(.45977 0 0 .45977 2.57475 -133.97836)" id="linear1" y1="413" y2="419" gradientUnits="userSpaceOnUse" x2="0">
<stop offset="0" style="stop-color:#f9f9f9"/>
<stop offset=".5" style="stop-color:#e8e8e8"/>
<stop offset="1" style="stop-color:#d8d8d8"/>
</linearGradient>
</defs>
<path style="fill:#ce5b00" d="M 10.851562 58.667969 L 44.875 58.667969 C 53.148438 58.667969 53.148438 50.390625 53.148438 50.390625 L 53.148438 17.289062 C 53.148438 17.289062 41.195312 5.332031 41.195312 5.332031 L 19.125 5.332031 C 19.125 5.332031 10.851562 5.332031 10.851562 13.609375 Z "/>
<path style="fill:url(#linear0)" d="M 41.195312 5.332031 L 41.195312 17.289062 L 53.148438 17.289062 Z "/>
<g style="fill-opacity:.149;fill:#ededec">
<path d="M 13.664062 6.328125 L 15.082031 6.328125 L 15.082031 58.5 L 13.664062 58.5 Z "/>
<path d="M 20.722656 5.5 L 22.132812 5.5 L 22.132812 58.667969 L 20.722656 58.667969 Z "/>
<path d="M 27.769531 5.5 L 29.179688 5.5 L 29.179688 58.667969 L 27.769531 58.667969 Z "/>
<path d="M 34.820312 5.5 L 36.230469 5.5 L 36.230469 58.667969 L 34.820312 58.667969 Z "/>
<path d="M 41.84375 17.273438 L 43.28125 17.273438 L 43.28125 58.667969 L 41.84375 58.667969 Z "/>
<path d="M 48.730469 17.289062 L 50.152344 17.289062 L 50.152344 58.089844 L 48.730469 58.089844 Z "/>
<path d="M 10.851562 17.277344 L 53.148438 17.277344 L 53.148438 18.792969 L 10.851562 18.792969 Z "/>
<path d="M 10.851562 24.109375 L 53.148438 24.109375 L 53.148438 25.4375 L 10.851562 25.4375 Z "/>
<path d="M 10.851562 30.753906 L 53.148438 30.753906 L 53.148438 32.082031 L 10.851562 32.082031 Z "/>
<path d="M 10.851562 37.398438 L 53.148438 37.398438 L 53.148438 38.730469 L 10.851562 38.730469 Z "/>
<path d="M 10.851562 44.046875 L 53.148438 44.046875 L 53.148438 45.375 L 10.851562 45.375 Z "/>
<path d="M 10.851562 50.691406 L 53.148438 50.691406 L 53.148438 52.019531 L 10.851562 52.019531 Z "/>
<path d="M 10.851562 10.816406 L 41.144531 10.816406 L 41.144531 12.144531 L 10.851562 12.144531 Z "/>
</g>
<path style="fill:url(#linear1)" d="M 10.851562 58.667969 L 44.875 58.667969 C 53.148438 58.667969 53.148438 50.390625 53.148438 50.390625 C 53.148438 50.390625 53.148438 43.035156 53.148438 43.035156 C 53.148438 43.035156 53.148438 55.90625 44.875 55.90625 L 19.125 55.90625 C 19.125 55.90625 10.851562 55.90625 10.851562 58.667969 Z "/>
<path style="fill:#f9f9f9" d="M 39.777344 18.667969 C 38.957031 18.667969 38.253906 19.113281 37.867188 19.777344 L 29.777344 19.777344 C 29.777344 19.777344 28.167969 19.75 26.515625 20.578125 C 24.859375 21.402344 23.109375 23.296875 23.109375 26.445312 C 23.109375 29.59375 24.859375 31.484375 26.515625 32.3125 C 27.296875 32.703125 28.070312 32.871094 28.667969 32.972656 L 28.667969 33.457031 L 25.609375 36.515625 C 25.515625 36.488281 25.4375 36.445312 25.332031 36.445312 C 24.71875 36.445312 24.222656 36.941406 24.222656 37.554688 C 24.222656 38.167969 24.71875 38.667969 25.332031 38.667969 C 25.945312 38.667969 26.445312 38.167969 26.445312 37.554688 C 26.445312 37.453125 26.402344 37.371094 26.375 37.277344 L 29.429688 34.222656 L 33.109375 34.222656 L 33.109375 33.109375 L 34.222656 33.109375 C 34.222656 33.109375 35.390625 33.140625 36.515625 33.703125 C 37.636719 34.261719 38.667969 35.148438 38.667969 37.554688 C 38.667969 39.964844 37.636719 40.847656 36.515625 41.410156 C 35.390625 41.972656 34.222656 42 34.222656 42 L 26.132812 42 C 25.746094 41.335938 25.042969 40.890625 24.222656 40.890625 C 22.996094 40.890625 22 41.882812 22 43.109375 C 22 44.339844 22.996094 45.332031 24.222656 45.332031 C 25.042969 45.332031 25.746094 44.886719 26.132812 44.222656 L 34.222656 44.222656 C 34.222656 44.222656 35.832031 44.25 37.484375 43.421875 C 39.140625 42.597656 40.890625 40.703125 40.890625 37.554688 C 40.890625 34.40625 39.140625 32.515625 37.484375 31.6875 C 35.832031 30.859375 34.222656 30.890625 34.222656 30.890625 L 33.109375 30.890625 L 33.109375 30.542969 L 36.167969 27.484375 C 36.261719 27.511719 36.34375 27.554688 36.445312 27.554688 C 37.058594 27.554688 37.554688 27.058594 37.554688 26.445312 C 37.554688 25.832031 37.058594 25.332031 36.445312 25.332031 C 35.832031 25.332031 35.332031 25.832031 35.332031 26.445312 C 35.332031 26.546875 35.375 26.628906 35.402344 26.722656 L 32.347656 29.777344 L 28.667969 29.777344 L 28.667969 30.714844 C 28.300781 30.628906 27.902344 30.507812 27.484375 30.296875 C 26.363281 29.738281 25.332031 28.851562 25.332031 26.445312 C 25.332031 24.035156 26.363281 23.152344 27.484375 22.589844 C 28.609375 22.027344 29.777344 22 29.777344 22 L 37.867188 22 C 38.253906 22.664062 38.957031 23.109375 39.777344 23.109375 C 41.003906 23.109375 42 22.117188 42 20.890625 C 42 19.660156 41.003906 18.667969 39.777344 18.667969 Z "/>
</svg>
