
<svg xmlns="http://www.w3.org/2000/svg" xmlns:xlink="http://www.w3.org/1999/xlink" width="64px" height="64px" viewBox="0 0 64 64" version="1.1">
<g id="surface1">
<path style=" stroke:none;fill-rule:nonzero;fill:rgb(86.27451%,86.27451%,86.27451%);fill-opacity:1;" d="M 10.671875 0 C 9.296875 0 8 1.355469 8 2.789062 L 8 61.210938 C 8 62.566406 9.375 64 10.671875 64 L 53.328125 64 C 54.625 64 56 62.566406 56 61.210938 L 56 18 L 38 0 Z M 10.671875 0 "/>
<path style=" stroke:none;fill-rule:nonzero;fill:rgb(0%,0%,0%);fill-opacity:0.196078;" d="M 42 18 L 56 32 L 56 18 Z M 42 18 "/>
<path style=" stroke:none;fill-rule:nonzero;fill:rgb(100%,100%,100%);fill-opacity:0.392157;" d="M 38 0 L 55.984375 18 L 40.757812 18 C 39.410156 18 38 16.574219 38 15.226562 Z M 38 0 "/>
<path style=" stroke:none;fill-rule:nonzero;fill:rgb(53.333333%,53.333333%,53.333333%);fill-opacity:1;" d="M 31.101562 18.8125 C 28.429688 19.664062 30.773438 23.640625 26.945312 25.585938 C 22.578125 27.8125 20.40625 22.195312 17.78125 26.210938 C 15.15625 30.21875 21.398438 29.601562 21.226562 34.320312 C 21.046875 39.039062 14.867188 38.039062 17.1875 42.203125 C 19.507812 46.367188 22.085938 40.90625 26.28125 43.398438 C 30.476562 45.890625 26.460938 50.507812 31.40625 50.664062 C 36.351562 50.820312 32.679688 45.96875 37.054688 43.742188 C 41.421875 41.515625 43.59375 47.140625 46.21875 43.125 C 48.84375 39.117188 42.601562 39.734375 42.773438 35.015625 C 42.953125 30.296875 49.132812 31.296875 46.8125 27.132812 C 44.492188 22.960938 41.914062 28.429688 37.71875 25.9375 C 33.523438 23.445312 37.539062 18.828125 32.59375 18.671875 C 31.976562 18.65625 31.484375 18.6875 31.101562 18.8125 Z M 31.148438 30.828125 C 33.359375 30.382812 35.523438 31.734375 35.992188 33.851562 C 36.460938 35.96875 35.054688 38.054688 32.851562 38.507812 C 30.640625 38.953125 28.476562 37.601562 28.007812 35.484375 C 27.539062 33.367188 28.945312 31.28125 31.148438 30.828125 Z M 31.148438 30.828125 "/>
</g>
</svg>
