<svg version="1.1" viewBox="0 0 64 64" xmlns="http://www.w3.org/2000/svg">
 <path d="m10.7 0c-1.38 0-2.67 1.36-2.67 2.79v58.4c0 1.36 1.38 2.79 2.67 2.79h42.7c1.3 0 2.67-1.43 2.67-2.79v-43.2l-18-18" style="fill:#c19553"/>
 <path d="m8 48v13.3c0 1.3 1.38 2.66 2.66 2.66h42.7c1.29 0 2.66-1.37 2.66-2.66v-13.3" style="opacity:.2"/>
 <path d="m42 18 14 14v-14" style="opacity:.2"/>
 <path d="m31.8 49.8c-3.8 0-4.36 3.92-4.36 6.2 0 1.71 0.194 6.2 4.38 6.2 3.69 0 4.34-3.64 4.34-6.2 0-2.82-0.754-6.2-4.36-6.2zm9.77 0c-3.79 0-4.35 3.91-4.35 6.2 0 3.18 0.913 6.2 4.38 6.2 2.24 0 4.34-1.42 4.34-6.2 0-2.85-0.767-6.2-4.36-6.2zm-23.3 0.263v1.96h4.65c-2.07 3.42-3.42 5.7-4.91 8.56v1.36h7.97v-1.95h-5.2c0.608-1.11 2.25-4.1 5.02-8.28h2e-3v-1.65zm13.5 1.79c1.17 0 1.92 0.821 1.92 4.14 0 3.07-0.63 4.15-1.92 4.15-1.81 0-1.91-2.28-1.91-4.15v-0.0021c2.14e-4 -1.91 0.122-4.14 1.91-4.14zm9.77 0c1.05 0 1.92 0.624 1.92 4.14 0 3.31-0.767 4.15-1.92 4.15-1.78 0-1.91-2.2-1.91-4.15v-0.0021c2.21e-4 -2 0.159-4.14 1.91-4.14z" style="fill:#fff"/>
 <path d="m38 0 18 18h-15.2c-1.35 0-2.76-1.43-2.76-2.77" style="fill:#fff;opacity:.4"/>
 <path d="m18 0v6h6v-6h-6zm6 6v6h6v-6h-6zm0 6h-6v6h6v-6zm0 6v6h6v-6h-6zm0 6h-6v6h6v-6zm-6 8v12h12v-12h-12z" style="fill:#fff"/>
</svg>
