
<svg xmlns="http://www.w3.org/2000/svg" xmlns:xlink="http://www.w3.org/1999/xlink" width="64px" height="64px" viewBox="0 0 64 64" version="1.1">
<g id="surface1">
<path style=" stroke:none;fill-rule:nonzero;fill:rgb(75.686275%,58.431373%,32.54902%);fill-opacity:1;" d="M 10.671875 0 C 9.296875 0 8 1.355469 8 2.789062 L 8 61.210938 C 8 62.566406 9.375 64 10.671875 64 L 53.328125 64 C 54.625 64 56 62.566406 56 61.210938 L 56 18 L 38 0 Z M 10.671875 0 "/>
<path style=" stroke:none;fill-rule:nonzero;fill:rgb(0%,0%,0%);fill-opacity:0.196078;" d="M 8 48 L 8 61.335938 C 8 62.632812 9.375 64 10.664062 64 L 53.335938 64 C 54.625 64 56 62.632812 56 61.335938 L 56 48 Z M 8 48 "/>
<path style=" stroke:none;fill-rule:nonzero;fill:rgb(0%,0%,0%);fill-opacity:0.196078;" d="M 42 18 L 56 32 L 56 18 Z M 42 18 "/>
<path style=" stroke:none;fill-rule:nonzero;fill:rgb(100%,100%,100%);fill-opacity:0.392157;" d="M 38 0 L 55.984375 18 L 40.757812 18 C 39.410156 18 38 16.574219 38 15.226562 Z M 38 0 "/>
<path style=" stroke:none;fill-rule:evenodd;fill:rgb(97.647059%,97.647059%,97.647059%);fill-opacity:1;" d="M 18 0 L 24 0 L 24 6 L 18 6 Z M 18 0 "/>
<path style=" stroke:none;fill-rule:evenodd;fill:rgb(97.647059%,97.647059%,97.647059%);fill-opacity:1;" d="M 24 6 L 30 6 L 30 12 L 24 12 Z M 24 6 "/>
<path style=" stroke:none;fill-rule:evenodd;fill:rgb(97.647059%,97.647059%,97.647059%);fill-opacity:1;" d="M 18 12 L 24 12 L 24 18 L 18 18 Z M 18 12 "/>
<path style=" stroke:none;fill-rule:evenodd;fill:rgb(97.647059%,97.647059%,97.647059%);fill-opacity:1;" d="M 24 18 L 30 18 L 30 24 L 24 24 Z M 24 18 "/>
<path style=" stroke:none;fill-rule:evenodd;fill:rgb(97.647059%,97.647059%,97.647059%);fill-opacity:1;" d="M 18 24 L 24 24 L 24 30 L 18 30 Z M 18 24 "/>
<path style=" stroke:none;fill-rule:evenodd;fill:rgb(97.647059%,97.647059%,97.647059%);fill-opacity:1;" d="M 18 32 L 30 32 L 30 44 L 18 44 Z M 18 32 "/>
<path style=" stroke:none;fill-rule:nonzero;fill:rgb(100%,100%,100%);fill-opacity:1;" d="M 26.617188 50.925781 L 26.617188 52.746094 L 23.492188 52.746094 L 23.492188 62 L 21.121094 62 L 21.121094 52.746094 L 18.003906 52.746094 L 18.003906 50.925781 L 26.617188 50.925781 "/>
<path style=" stroke:none;fill-rule:nonzero;fill:rgb(100%,100%,100%);fill-opacity:1;" d="M 33.960938 62 L 33.402344 59.441406 L 30.253906 59.441406 L 29.710938 62 L 27.265625 62 C 27.824219 59.816406 28.390625 57.832031 28.964844 56.042969 C 29.539062 54.242188 30.097656 52.535156 30.628906 50.925781 L 33.195312 50.925781 C 33.753906 52.550781 34.3125 54.273438 34.855469 56.09375 C 35.421875 57.90625 35.960938 59.875 36.488281 62 L 33.960938 62 M 31.851562 53.074219 C 31.730469 53.492188 31.605469 53.886719 31.492188 54.273438 C 31.390625 54.640625 31.285156 55.011719 31.1875 55.378906 C 31.097656 55.742188 31.007812 56.101562 30.917969 56.472656 C 30.84375 56.839844 30.761719 57.226562 30.6875 57.621094 L 33 57.621094 C 32.925781 57.226562 32.851562 56.839844 32.769531 56.472656 C 32.695312 56.101562 32.605469 55.742188 32.507812 55.378906 C 32.417969 55.011719 32.3125 54.640625 32.195312 54.273438 C 32.097656 53.886719 31.984375 53.492188 31.851562 53.074219 "/>
<path style=" stroke:none;fill-rule:nonzero;fill:rgb(100%,100%,100%);fill-opacity:1;" d="M 40.75 50.804688 C 41.425781 50.804688 42.03125 50.867188 42.582031 51.015625 C 43.128906 51.15625 43.605469 51.378906 44 51.679688 C 44.394531 51.976562 44.695312 52.355469 44.894531 52.820312 C 45.117188 53.273438 45.222656 53.8125 45.222656 54.429688 C 45.222656 55.078125 45.082031 55.660156 44.804688 56.183594 C 44.523438 56.710938 44.058594 57.109375 43.410156 57.382812 C 43.621094 57.695312 43.851562 58.039062 44.097656 58.421875 C 44.335938 58.792969 44.574219 59.1875 44.804688 59.605469 C 45.035156 60.007812 45.246094 60.417969 45.453125 60.835938 C 45.664062 61.246094 45.855469 61.632812 46.007812 62 L 43.539062 62 C 43.246094 61.285156 42.902344 60.597656 42.507812 59.941406 C 42.121094 59.277344 41.710938 58.605469 41.261719 57.921875 L 40.039062 57.921875 L 40.039062 62 L 37.683594 62 L 37.683594 51.089844 C 37.914062 51.042969 38.167969 51 38.429688 50.960938 C 38.71875 50.910156 38.996094 50.886719 39.273438 50.867188 C 39.554688 50.84375 39.824219 50.828125 40.078125 50.820312 C 40.332031 50.804688 40.554688 50.804688 40.75 50.804688 M 42.835938 54.414062 C 42.835938 53.832031 42.636719 53.402344 42.261719 53.125 C 41.875 52.855469 41.375 52.714844 40.75 52.714844 C 40.660156 52.714844 40.546875 52.722656 40.421875 52.730469 C 40.292969 52.730469 40.167969 52.746094 40.039062 52.773438 L 40.039062 56.09375 L 40.554688 56.09375 C 41.359375 56.09375 41.941406 55.953125 42.292969 55.667969 C 42.65625 55.371094 42.835938 54.953125 42.835938 54.414062 "/>
</g>
</svg>
