
<svg xmlns="http://www.w3.org/2000/svg" xmlns:xlink="http://www.w3.org/1999/xlink" width="64px" height="64px" viewBox="0 0 64 64" version="1.1">
<g id="surface1">
<path style=" stroke:none;fill-rule:nonzero;fill:rgb(92.941176%,68.627451%,0.784314%);fill-opacity:1;" d="M 10.6875 0 C 9.3125 0 8 1.378906 8 2.8125 L 8 61.1875 C 8 62.539062 9.390625 64 10.6875 64 L 53.3125 64 C 54.609375 64 56 62.539062 56 61.1875 L 56 2.75 C 56 1.402344 54.597656 0 53.25 0 Z M 10.6875 0 "/>
<path style=" stroke:none;fill-rule:nonzero;fill:rgb(0%,0%,0%);fill-opacity:0.196078;" d="M 8 48 L 8 61.335938 C 8 62.632812 9.375 64 10.664062 64 L 53.335938 64 C 54.625 64 56 62.632812 56 61.335938 L 56 48 Z M 8 48 "/>
<path style=" stroke:none;fill-rule:nonzero;fill:rgb(100%,100%,100%);fill-opacity:1;" d="M 20 42 L 20 18 L 44 18 L 44 42 L 30 42 L 30 30 L 36 30 L 36 34 L 34 34 L 34 38 L 40 38 L 40 22 L 24 22 L 24 42 Z M 20 42 "/>
<path style=" stroke:none;fill-rule:nonzero;fill:rgb(100%,100%,100%);fill-opacity:1;" d="M 20.296875 56.585938 C 20.296875 57.113281 20.3125 57.609375 20.355469 58.070312 C 20.40625 58.523438 20.503906 58.921875 20.636719 59.257812 C 20.777344 59.597656 20.976562 59.863281 21.230469 60.058594 C 21.476562 60.257812 21.816406 60.355469 22.238281 60.355469 C 22.652344 60.355469 22.980469 60.257812 23.238281 60.058594 C 23.5 59.863281 23.699219 59.597656 23.832031 59.257812 C 23.972656 58.902344 24.070312 58.507812 24.105469 58.054688 C 24.160156 57.601562 24.1875 57.113281 24.1875 56.585938 C 24.1875 56.0625 24.160156 55.578125 24.105469 55.121094 C 24.070312 54.652344 23.972656 54.253906 23.832031 53.917969 C 23.699219 53.578125 23.5 53.316406 23.253906 53.117188 C 23.003906 52.917969 22.667969 52.820312 22.238281 52.820312 C 21.816406 52.820312 21.476562 52.917969 21.230469 53.117188 C 20.976562 53.316406 20.777344 53.585938 20.636719 53.933594 C 20.503906 54.273438 20.40625 54.667969 20.355469 55.121094 C 20.3125 55.578125 20.296875 56.0625 20.296875 56.585938 M 17.8125 56.585938 C 17.8125 54.726562 18.207031 53.324219 18.984375 52.382812 C 19.769531 51.421875 20.851562 50.953125 22.238281 50.953125 C 23.683594 50.953125 24.78125 51.421875 25.53125 52.382812 C 26.292969 53.324219 26.664062 54.726562 26.664062 56.585938 C 26.664062 58.449219 26.285156 59.855469 25.515625 60.8125 C 24.746094 61.753906 23.667969 62.222656 22.261719 62.222656 C 20.816406 62.222656 19.710938 61.753906 18.945312 60.8125 C 18.191406 59.855469 17.8125 58.449219 17.8125 56.585938 "/>
<path style=" stroke:none;fill-rule:nonzero;fill:rgb(100%,100%,100%);fill-opacity:1;" d="M 36.628906 51.191406 L 36.628906 52.976562 L 33.390625 52.976562 L 33.390625 62 L 30.933594 62 L 30.933594 52.976562 L 27.695312 52.976562 L 27.695312 51.191406 L 36.628906 51.191406 "/>
<path style=" stroke:none;fill-rule:nonzero;fill:rgb(100%,100%,100%);fill-opacity:1;" d="M 38.199219 62 L 38.199219 60.21875 L 40.871094 60.21875 L 40.871094 52.976562 L 38.199219 52.976562 L 38.199219 51.191406 L 46 51.191406 L 46 52.976562 L 43.339844 52.976562 L 43.339844 60.21875 L 46 60.21875 L 46 62 L 38.199219 62 "/>
</g>
</svg>
