<?xml version="1.0" encoding="UTF-8" standalone="no"?>
<svg
   xmlns:dc="http://purl.org/dc/elements/1.1/"
   xmlns:cc="http://creativecommons.org/ns#"
   xmlns:rdf="http://www.w3.org/1999/02/22-rdf-syntax-ns#"
   xmlns:svg="http://www.w3.org/2000/svg"
   xmlns="http://www.w3.org/2000/svg"
   xmlns:sodipodi="http://sodipodi.sourceforge.net/DTD/sodipodi-0.dtd"
   xmlns:inkscape="http://www.inkscape.org/namespaces/inkscape"
   width="64px"
   height="64px"
   viewBox="0 0 64 64"
   version="1.1"
   id="svg2"
   inkscape:version="0.91 r13725"
   sodipodi:docname="application-roms_64-nds.svg">
  <metadata
     id="metadata15">
    <rdf:RDF>
      <cc:Work
         rdf:about="">
        <dc:format>image/svg+xml</dc:format>
        <dc:type
           rdf:resource="http://purl.org/dc/dcmitype/StillImage" />
        <dc:title></dc:title>
      </cc:Work>
    </rdf:RDF>
  </metadata>
  <defs
     id="defs13" />
  <sodipodi:namedview
     pagecolor="#ffffff"
     bordercolor="#666666"
     borderopacity="1"
     objecttolerance="10"
     gridtolerance="10"
     guidetolerance="10"
     inkscape:pageopacity="0"
     inkscape:pageshadow="2"
     inkscape:window-width="1920"
     inkscape:window-height="1013"
     id="namedview11"
     showgrid="false"
     inkscape:zoom="1"
     inkscape:cx="44.679386"
     inkscape:cy="20.802344"
     inkscape:window-x="0"
     inkscape:window-y="27"
     inkscape:window-maximized="1"
     inkscape:current-layer="svg2">
    <inkscape:grid
       type="xygrid"
       id="grid4171" />
  </sodipodi:namedview>
  <path
     inkscape:connector-curvature="0"
     id="path5"
     d="M 10.671875,0 C 9.296875,0 8,1.355469 8,2.789062 L 8,61.210938 C 8,62.566406 9.375,64 10.671875,64 l 42.65625,0 C 54.625,64 56,62.566406 56,61.210938 L 56,18 38,0 Z m 0,0"
     style="fill:#a6a6a6;fill-opacity:1;fill-rule:nonzero;stroke:none" />
  <path
     inkscape:connector-curvature="0"
     id="path7"
     d="m 42,18 14,14 0,-14 z m 0,0"
     style="fill:#000000;fill-opacity:0.19607801;fill-rule:nonzero;stroke:none" />
  <path
     inkscape:connector-curvature="0"
     id="path9"
     d="M 38,0 55.984375,18 40.757812,18 C 39.410156,18 38,16.574219 38,15.226562 Z m 0,0"
     style="fill:#ffffff;fill-opacity:0.39215698;fill-rule:nonzero;stroke:none" />
  <path
     inkscape:connector-curvature="0"
     id="path13"
     d="M 8,48 8,61.33594 C 8,62.63281 9.375,64 10.66406,64 l 42.67188,0 C 54.625,64 56,62.63281 56,61.33594 L 56,48 Z m 0,0"
     style="fill:#000000;fill-opacity:0.19607801;fill-rule:nonzero;stroke:none" />
  <path
     inkscape:connector-curvature="0"
     id="path4175"
     style="font-style:normal;font-variant:normal;font-weight:bold;font-stretch:normal;font-size:medium;line-height:125%;font-family:'Ubuntu Mono';-inkscape-font-specification:'Ubuntu Mono, Bold';text-align:start;letter-spacing:0px;word-spacing:0px;writing-mode:lr-tb;text-anchor:start;fill:#ffffff;fill-opacity:1;stroke:none;stroke-width:1px;stroke-linecap:butt;stroke-linejoin:miter;stroke-opacity:1"
     d="m 24.058823,62 q -0.823529,-1.830372 -1.80392,-3.642973 -0.960785,-1.830372 -2.078431,-3.660743 L 20.176472,62 18,62 l 0,-11 1.941178,0 q 0.549019,0.781906 1.098038,1.705977 0.54902,0.9063 1.058824,1.812601 0.529411,0.9063 0.960784,1.75929 0.450979,0.852988 0.764705,1.49273 L 23.823529,51 26,51 l 0,11 -1.941177,0 z" />
  <path
     inkscape:connector-curvature="0"
     id="path4177"
     style="font-style:normal;font-variant:normal;font-weight:bold;font-stretch:normal;font-size:medium;line-height:125%;font-family:'Ubuntu Mono';-inkscape-font-specification:'Ubuntu Mono, Bold';text-align:start;letter-spacing:0px;word-spacing:0px;writing-mode:lr-tb;text-anchor:start;fill:#ffffff;fill-opacity:1;stroke:none;stroke-width:1px;stroke-linecap:butt;stroke-linejoin:miter;stroke-opacity:1"
     d="m 30.348448,60.126184 q 0.09546,0.01735 0.210025,0.01735 0.114559,0 0.210024,0 0.801909,0 1.336515,-0.277603 0.5537,-0.277602 0.878281,-0.763406 0.343676,-0.485805 0.477328,-1.14511 0.152745,-0.676656 0.152745,-1.474763 0,-0.694006 -0.114559,-1.353311 -0.114558,-0.659307 -0.400955,-1.162461 -0.286395,-0.503154 -0.782815,-0.798107 -0.496421,-0.312303 -1.279237,-0.312303 -0.152745,0 -0.343676,0.01735 -0.190931,0 -0.343676,0.0347 l 0,7.217662 z M 36,56.482652 q 0,1.492114 -0.420047,2.550472 -0.400955,1.041009 -1.126492,1.700315 -0.725537,0.659305 -1.73747,0.971608 Q 31.723151,62 30.520287,62 29.890215,62 29.279236,61.930599 28.687351,61.878545 28,61.739747 L 28,51.260255 Q 28.801909,51.104104 29.508353,51.052054 30.214797,51 30.825776,51 q 1.164678,0 2.119332,0.312303 0.973747,0.312303 1.642005,0.988958 0.668257,0.659306 1.031025,1.700315 Q 36,55.025235 36,56.482648 Z" />
  <path
     inkscape:connector-curvature="0"
     id="path4179"
     style="font-style:normal;font-variant:normal;font-weight:bold;font-stretch:normal;font-size:medium;line-height:125%;font-family:'Ubuntu Mono';-inkscape-font-specification:'Ubuntu Mono, Bold';text-align:start;letter-spacing:0px;word-spacing:0px;writing-mode:lr-tb;text-anchor:start;fill:#ffffff;fill-opacity:1;stroke:none;stroke-width:1px;stroke-linecap:butt;stroke-linejoin:miter;stroke-opacity:1"
     d="m 41.657146,60.246133 q 0.590476,0 0.971429,-0.102166 0.399999,-0.119196 0.628571,-0.306502 0.228571,-0.204334 0.304762,-0.442724 0.09523,-0.255419 0.09523,-0.510837 0,-0.323529 -0.209524,-0.578947 -0.209521,-0.255419 -0.53333,-0.442724 -0.32381,-0.204334 -0.723811,-0.357586 -0.399999,-0.170279 -0.8,-0.306501 -0.533332,-0.170279 -1.104762,-0.391641 -0.571428,-0.221363 -1.047618,-0.56192 -0.457143,-0.340557 -0.761905,-0.834365 -0.304763,-0.510836 -0.304763,-1.260062 0,-1.481425 1.066668,-2.31579 1.085714,-0.834365 2.971429,-0.834365 1.085714,0 1.885714,0.221363 0.819048,0.221362 1.371429,0.493808 l -0.685715,1.617647 q -0.476189,-0.23839 -1.066666,-0.408669 -0.571429,-0.170279 -1.333334,-0.170279 -1.866667,0 -1.866667,1.208978 0,0.306501 0.190476,0.544892 0.190476,0.221362 0.476191,0.408669 0.304762,0.170279 0.666666,0.306501 0.380953,0.136223 0.742858,0.255418 0.552381,0.187307 1.142857,0.425697 0.609525,0.221363 1.104763,0.613003 0.514285,0.374613 0.838095,0.95356 Q 46,58.032512 46,58.900932 q 0,1.481425 -1.085714,2.298762 -1.066666,0.800309 -3.257143,0.800309 -1.466667,0 -2.342858,-0.272445 Q 38.438095,61.438084 38,61.199694 l 0.685714,-1.702787 q 0.514285,0.272447 1.219047,0.510837 0.72381,0.238389 1.752382,0.238389 z" />
  <path
     id="circle4216"
     style="opacity:1;fill:#ffffff;fill-opacity:1;fill-rule:nonzero;stroke:none;stroke-width:1.5;stroke-linecap:round;stroke-linejoin:miter;stroke-miterlimit:4;stroke-dasharray:none;stroke-dashoffset:0;stroke-opacity:1"
     d="m 38.461536,29.921533 a 1.0769231,1.0980599 0 0 1 -1.076924,1.09806 1.0769231,1.0980599 0 0 1 -1.076922,-1.09806 1.0769231,1.0980599 0 0 1 1.076922,-1.09806 1.0769231,1.0980599 0 0 1 1.076924,1.09806 z m 2.153851,2.196096 a 1.0769231,1.0980599 0 0 1 -1.076924,1.09806 1.0769231,1.0980599 0 0 1 -1.076923,-1.09806 1.0769231,1.0980599 0 0 1 1.076923,-1.098059 1.0769231,1.0980599 0 0 1 1.076924,1.098059 z m 2.153843,-2.196096 a 1.0769231,1.0980599 0 0 1 -1.076923,1.09806 1.0769231,1.0980599 0 0 1 -1.076924,-1.09806 1.0769231,1.0980599 0 0 1 1.076924,-1.09806 1.0769231,1.0980599 0 0 1 1.076923,1.09806 z m -2.153843,-2.196045 a 1.0769231,1.0980599 0 0 1 -1.076924,1.09806 1.0769231,1.0980599 0 0 1 -1.076923,-1.09806 1.0769231,1.0980599 0 0 1 1.076923,-1.09806 1.0769231,1.0980599 0 0 1 1.076924,1.09806 z m -14.000002,2.195944 a 2.1538463,2.1961196 0 0 1 -2.153848,2.196119 2.1538463,2.1961196 0 0 1 -2.153846,-2.196119 2.1538463,2.1961196 0 0 1 2.153846,-2.19612 2.1538463,2.1961196 0 0 1 2.153848,2.19612 z m -1.903549,-7.683424 c -0.774555,0.03212 -1.412035,0.370505 -1.850962,0.709881 C 20.265775,24.95483 18,33.326255 18,37.756761 c 0,4.430424 0.998936,4.242083 1.865682,4.242083 0.866751,0 1.956489,-0.607683 2.908958,-1.462671 2.629442,-2.360153 3.840636,-5.124412 6.455229,-5.124412 l 5.540262,0 c 2.614591,0 3.825786,2.764259 6.455229,5.124412 0.952467,0.854988 2.042207,1.462671 2.908956,1.462671 C 45.001062,41.998844 46,42.187185 46,37.756761 46,33.326255 43.734223,24.95483 41.139124,22.947889 40.436835,22.404854 39.228141,21.863959 37.756912,22.576888 36.770342,23.05503 35.888532,23.3333 34.599757,23.3333 l -5.199521,0 c -1.288769,0 -2.170581,-0.27827 -3.15715,-0.756412 -0.551708,-0.2674 -1.066515,-0.358316 -1.53125,-0.33888 z"
     inkscape:connector-curvature="0" />
</svg>
