
<svg xmlns="http://www.w3.org/2000/svg" xmlns:xlink="http://www.w3.org/1999/xlink" width="64px" height="64px" viewBox="0 0 64 64" version="1.1">
<g id="surface1">
<path style=" stroke:none;fill-rule:nonzero;fill:rgb(75.686275%,58.431373%,32.54902%);fill-opacity:1;" d="M 10.671875 0 C 9.296875 0 8 1.355469 8 2.789062 L 8 61.210938 C 8 62.566406 9.375 64 10.671875 64 L 53.328125 64 C 54.625 64 56 62.566406 56 61.210938 L 56 18 L 38 0 Z M 10.671875 0 "/>
<path style=" stroke:none;fill-rule:nonzero;fill:rgb(0%,0%,0%);fill-opacity:0.196078;" d="M 8 48 L 8 61.335938 C 8 62.632812 9.375 64 10.664062 64 L 53.335938 64 C 54.625 64 56 62.632812 56 61.335938 L 56 48 Z M 8 48 "/>
<path style=" stroke:none;fill-rule:nonzero;fill:rgb(0%,0%,0%);fill-opacity:0.196078;" d="M 42 18 L 56 32 L 56 18 Z M 42 18 "/>
<path style=" stroke:none;fill-rule:nonzero;fill:rgb(100%,100%,100%);fill-opacity:0.392157;" d="M 38 0 L 55.984375 18 L 40.757812 18 C 39.410156 18 38 16.574219 38 15.226562 Z M 38 0 "/>
<path style=" stroke:none;fill-rule:evenodd;fill:rgb(97.647059%,97.647059%,97.647059%);fill-opacity:1;" d="M 18 0 L 24 0 L 24 6 L 18 6 Z M 18 0 "/>
<path style=" stroke:none;fill-rule:evenodd;fill:rgb(97.647059%,97.647059%,97.647059%);fill-opacity:1;" d="M 24 6 L 30 6 L 30 12 L 24 12 Z M 24 6 "/>
<path style=" stroke:none;fill-rule:evenodd;fill:rgb(97.647059%,97.647059%,97.647059%);fill-opacity:1;" d="M 18 12 L 24 12 L 24 18 L 18 18 Z M 18 12 "/>
<path style=" stroke:none;fill-rule:evenodd;fill:rgb(97.647059%,97.647059%,97.647059%);fill-opacity:1;" d="M 24 18 L 30 18 L 30 24 L 24 24 Z M 24 18 "/>
<path style=" stroke:none;fill-rule:evenodd;fill:rgb(97.647059%,97.647059%,97.647059%);fill-opacity:1;" d="M 18 24 L 24 24 L 24 30 L 18 30 Z M 18 24 "/>
<path style=" stroke:none;fill-rule:evenodd;fill:rgb(97.647059%,97.647059%,97.647059%);fill-opacity:1;" d="M 18 32 L 30 32 L 30 44 L 18 44 Z M 18 32 "/>
<path style=" stroke:none;fill-rule:nonzero;fill:rgb(100%,100%,100%);fill-opacity:1;" d="M 22.914062 62 C 22.96875 61.171875 23.125 60.304688 23.40625 59.378906 C 23.6875 58.449219 24.011719 57.535156 24.398438 56.628906 C 24.804688 55.722656 25.234375 54.871094 25.699219 54.070312 C 26.167969 53.253906 26.605469 52.558594 27.027344 51.976562 L 20.988281 51.976562 L 20.988281 50 L 30.371094 50 L 30.371094 51.800781 C 29.945312 52.199219 29.5 52.761719 28.996094 53.488281 C 28.503906 54.210938 28.03125 55.027344 27.582031 55.953125 C 27.152344 56.867188 26.765625 57.851562 26.421875 58.898438 C 26.097656 59.933594 25.894531 60.960938 25.816406 62 L 22.914062 62 "/>
<path style=" stroke:none;fill-rule:nonzero;fill:rgb(100%,100%,100%);fill-opacity:1;" d="M 41.789062 51.660156 C 41.121094 52.515625 40.515625 53.324219 39.953125 54.070312 C 39.398438 54.816406 38.878906 55.539062 38.394531 56.222656 C 37.921875 56.890625 37.464844 57.542969 37.03125 58.175781 C 36.609375 58.800781 36.207031 59.414062 35.820312 60.023438 L 42 60.023438 L 42 62 L 32.523438 62 L 32.523438 60.621094 C 32.867188 60.066406 33.234375 59.484375 33.621094 58.878906 C 34.007812 58.253906 34.441406 57.59375 34.914062 56.902344 C 35.398438 56.207031 35.917969 55.441406 36.46875 54.632812 C 37.042969 53.816406 37.675781 52.925781 38.351562 51.976562 L 32.832031 51.976562 L 32.832031 50 L 41.789062 50 L 41.789062 51.660156 "/>
</g>
</svg>
