<svg width="64" xmlns="http://www.w3.org/2000/svg" height="64" viewBox="0 0 64 64" xmlns:xlink="http://www.w3.org/1999/xlink">
<defs>
<linearGradient gradientTransform="matrix(.66412 0 0 .66412 -19.90362 1.34851)" id="linear0" y1="14" x1="102" y2="24" gradientUnits="userSpaceOnUse" x2="92">
<stop offset="0" style="stop-color:#c8c8c8"/>
<stop offset="1" style="stop-color:#efefef"/>
</linearGradient>
<linearGradient gradientTransform="matrix(.45977 0 0 .45977 2.57418 -133.97811)" id="linear1" y1="413" y2="419" gradientUnits="userSpaceOnUse" x2="0">
<stop offset="0" style="stop-color:#af3438"/>
<stop offset=".5" style="stop-color:#902a2f"/>
<stop offset="1" style="stop-color:#6c2022"/>
</linearGradient>
</defs>
<path style="fill:#e5e5e5" d="M 10.851562 58.667969 L 44.875 58.667969 C 53.148438 58.667969 53.148438 50.390625 53.148438 50.390625 L 53.148438 17.289062 C 53.148438 17.289062 41.195312 5.332031 41.195312 5.332031 L 19.125 5.332031 C 19.125 5.332031 10.851562 5.332031 10.851562 13.609375 Z "/>
<path style="fill:url(#linear0)" d="M 41.195312 5.332031 L 41.195312 17.289062 L 53.148438 17.289062 Z "/>
<path style="fill:url(#linear1)" d="M 10.851562 58.667969 L 44.875 58.667969 C 53.148438 58.667969 53.148438 50.390625 53.148438 50.390625 C 53.148438 50.390625 53.148438 43.035156 53.148438 43.035156 C 53.148438 43.035156 53.148438 55.910156 44.875 55.910156 L 19.125 55.910156 C 19.125 55.910156 10.851562 55.910156 10.851562 58.667969 Z "/>
<path style="fill:#ad3438;fill-opacity:.941" d="M 32 18.667969 C 24.65625 18.667969 18.667969 24.65625 18.667969 32 C 18.667969 39.34375 24.65625 45.332031 32 45.332031 C 39.34375 45.332031 45.332031 39.34375 45.332031 32 C 45.332031 24.65625 39.34375 18.667969 32 18.667969 Z M 32 22 C 37.542969 22 42 26.457031 42 32 C 42 37.542969 37.542969 42 32 42 C 26.457031 42 22 37.542969 22 32 C 22 26.457031 26.457031 22 32 22 Z M 28.667969 25.332031 L 28.667969 38.667969 L 38.667969 32 Z "/>
</svg>
