<svg width="64" xmlns="http://www.w3.org/2000/svg" height="64" viewBox="0 0 64 64" xmlns:xlink="http://www.w3.org/1999/xlink">
<defs>
<linearGradient gradientTransform="matrix(.66412 0 0 .66412 -19.90363 1.34851)" id="linear0" y1="14" x1="102" y2="24" gradientUnits="userSpaceOnUse" x2="92">
<stop offset="0" style="stop-color:#c8c8c8"/>
<stop offset="1" style="stop-color:#efefef"/>
</linearGradient>
<linearGradient gradientTransform="matrix(.45977 0 0 .45977 2.57419 -133.97811)" id="linear1" y1="413" y2="419" gradientUnits="userSpaceOnUse" x2="0">
<stop offset="0" style="stop-color:#cc2929"/>
<stop offset=".5" style="stop-color:#bb2f2f"/>
<stop offset="1" style="stop-color:#a12c2c"/>
</linearGradient>
</defs>
<path style="fill:#e5e5e5" d="M 10.851562 58.667969 L 44.875 58.667969 C 53.148438 58.667969 53.148438 50.390625 53.148438 50.390625 L 53.148438 17.289062 C 53.148438 17.289062 41.195312 5.332031 41.195312 5.332031 L 19.125 5.332031 C 19.125 5.332031 10.851562 5.332031 10.851562 13.609375 Z "/>
<path style="fill:url(#linear0)" d="M 41.195312 5.332031 L 41.195312 17.289062 L 53.148438 17.289062 Z "/>
<path style="fill:url(#linear1)" d="M 10.851562 58.667969 L 44.875 58.667969 C 53.148438 58.667969 53.148438 50.390625 53.148438 50.390625 C 53.148438 50.390625 53.148438 43.035156 53.148438 43.035156 C 53.148438 43.035156 53.148438 55.910156 44.875 55.910156 L 19.125 55.910156 C 19.125 55.910156 10.851562 55.910156 10.851562 58.667969 Z "/>
<path style="fill:#cc2929;fill-rule:evenodd" d="M 20.886719 41.355469 L 21.507812 46.410156 C 21.507812 46.410156 29.664062 49.152344 33.761719 36.699219 L 40.890625 36.699219 L 40.890625 31.132812 L 36.445312 31.132812 C 36.445312 31.132812 38.519531 25.328125 43.113281 24.835938 C 43.113281 24.710938 42.617188 20.027344 42.617188 20.027344 C 42.617188 20.027344 35.042969 18.917969 30.449219 30.875 C 26.472656 42.589844 20.886719 41.355469 20.886719 41.355469 Z "/>
</svg>
