<?xml version="1.0" encoding="UTF-8" standalone="no"?>
<svg
   xmlns:dc="http://purl.org/dc/elements/1.1/"
   xmlns:cc="http://creativecommons.org/ns#"
   xmlns:rdf="http://www.w3.org/1999/02/22-rdf-syntax-ns#"
   xmlns:svg="http://www.w3.org/2000/svg"
   xmlns="http://www.w3.org/2000/svg"
   xmlns:sodipodi="http://sodipodi.sourceforge.net/DTD/sodipodi-0.dtd"
   xmlns:inkscape="http://www.inkscape.org/namespaces/inkscape"
   width="64px"
   height="64px"
   viewBox="0 0 64 64"
   version="1.1"
   id="svg2"
   inkscape:version="0.91 r13725"
   sodipodi:docname="application-x-rpm2.svg">
  <metadata
     id="metadata21">
    <rdf:RDF>
      <cc:Work
         rdf:about="">
        <dc:format>image/svg+xml</dc:format>
        <dc:type
           rdf:resource="http://purl.org/dc/dcmitype/StillImage" />
        <dc:title></dc:title>
      </cc:Work>
    </rdf:RDF>
  </metadata>
  <defs
     id="defs19" />
  <sodipodi:namedview
     pagecolor="#ffffff"
     bordercolor="#666666"
     borderopacity="1"
     objecttolerance="10"
     gridtolerance="10"
     guidetolerance="10"
     inkscape:pageopacity="0"
     inkscape:pageshadow="2"
     inkscape:window-width="1366"
     inkscape:window-height="704"
     id="namedview17"
     showgrid="false"
     inkscape:zoom="1"
     inkscape:cx="32"
     inkscape:cy="13.862793"
     inkscape:window-x="0"
     inkscape:window-y="27"
     inkscape:window-maximized="1"
     inkscape:current-layer="svg2">
    <inkscape:grid
       type="xygrid"
       id="grid4149" />
  </sodipodi:namedview>
  <g
     id="surface1">
    <path
       style=" stroke:none;fill-rule:nonzero;fill:rgb(75.686275%,58.431373%,32.54902%);fill-opacity:1;"
       d="M 10.742188 8 C 9.375 8 8 9.375 8 10.742188 L 8 53.335938 C 8 54.625 9.375 56 10.664062 56 L 53.335938 56 C 54.625 56 56 54.625 56 53.335938 L 56 10.664062 C 56 9.375 54.625 8 53.335938 8 Z M 10.742188 8 "
       id="path5" />
    <path
       style=" stroke:none;fill-rule:nonzero;fill:rgb(100%,100%,100%);fill-opacity:0.196078;"
       d="M 10.742188 8 C 9.375 8 8 9.375 8 10.742188 L 8 24 C 13.335938 24 50.664062 24 56 24 L 56 10.664062 C 56 9.375 54.625 8 53.335938 8 Z M 10.742188 8 "
       id="path7" />
    <path
       style=" stroke:none;fill-rule:nonzero;fill:rgb(100%,100%,100%);fill-opacity:0.392157;"
       d="M 28 14 L 28 34 L 36 34 L 36 14 Z M 28 14 "
       id="path9" />
    <path
       style="fill:#ffffff;fill-opacity:1;fill-rule:nonzero;stroke:none"
       d="m 21.880092,39.800001 c 0.667625,0 1.272415,0.07361 1.806514,0.212649 0.541954,0.147214 1.005364,0.359863 1.398084,0.662479 0.384866,0.294434 0.683333,0.678834 0.887548,1.136846 0.212069,0.458011 0.314176,0.989628 0.314176,1.611214 0,0.637941 -0.133525,1.218635 -0.408429,1.742076 -0.282758,0.523439 -0.738314,0.924197 -1.37452,1.202276 1.030506,1.460038 1.826578,3.01207 2.560535,4.596459 l -2.434865,0 c -0.60276,-1.479166 -1.456065,-2.821018 -2.238506,-4.06484 l -1.209579,0 0,4.06484 -2.31705,0 0,-10.877742 C 19.87018,39.872819 20.866805,39.83449 21.880092,39.8 m 2.057855,3.606831 c 0,-0.588871 -0.188505,-1.014168 -0.565517,-1.284064 -0.377011,-0.278078 -0.879693,-0.417117 -1.492338,-0.417117 -0.241163,0.006 -0.474936,0.03889 -0.699042,0.05724 l 0,3.320575 0.510536,0 c 0.793296,0 1.366668,-0.147218 1.712262,-0.433475 0.353448,-0.294434 0.534099,-0.711549 0.534099,-1.243169"
       id="path11"
       inkscape:connector-curvature="0"
       sodipodi:nodetypes="ccccscccccccccccccccscc" />
    <path
       style="fill:#ffffff;fill-opacity:1;fill-rule:nonzero;stroke:none"
       d="m 31.05778,39.800008 c 1.419952,0 2.516847,0.294434 3.298196,0.875127 0.78135,0.572511 1.172024,1.513068 1.172024,2.813488 0,1.324956 -0.390674,2.281872 -1.187052,2.878922 -0.781347,0.580689 -1.893268,0.866944 -3.335758,0.866944 l -0.788862,0 0,3.729511 L 28,50.964 28,40.069908 C 29.015235,39.859351 30.03358,39.823974 31.05778,39.8 m 0.255442,1.90565 c -0.387096,0.0052 -0.709735,0.03319 -1.096894,0.05724 l 0,3.565937 0.901557,0 c 0.70622,0 1.23964,-0.13904 1.600261,-0.408937 0.360624,-0.286256 0.540936,-0.768805 0.540936,-1.447639 0,-0.637945 -0.180312,-1.087775 -0.540936,-1.349494 -0.345595,-0.27807 -0.818912,-0.417107 -1.404924,-0.417107"
       id="path13"
       inkscape:connector-curvature="0"
       sodipodi:nodetypes="ccscsccccccccscscc" />
    <path
       style="fill:#ffffff;fill-opacity:1;fill-rule:nonzero;stroke:none"
       d="m 39.316393,40.017 c 0.55955,1.620799 1.088131,3.240915 1.644135,4.849114 0.596257,-1.636415 1.112385,-3.230822 1.707372,-4.849114 l 1.936603,0 c 0.381889,3.709537 0.58318,7.370942 0.703501,10.947 l -2.14212,0 0.110663,-8.506226 -1.438619,4.538226 -1.707371,0 -1.383288,-4.538226 0.09485,8.506226 -2.142119,0 c 0.145652,-3.709673 0.291308,-7.334098 0.679787,-10.947 l 1.936602,0"
       id="path15"
       inkscape:connector-curvature="0"
       sodipodi:nodetypes="cccccccccccccc" />
  </g>
</svg>
