<svg version="1.1" viewBox="0 0 64 64" xmlns="http://www.w3.org/2000/svg">
 <path d="m10.7 0c-1.38 0-2.67 1.36-2.67 2.79v58.4c0 1.36 1.38 2.79 2.67 2.79h42.7c1.3 0 2.67-1.43 2.67-2.79v-43.2l-18-18" style="fill:#c19553"/>
 <path d="m8 48v13.3c0 1.3 1.38 2.66 2.66 2.66h42.7c1.29 0 2.66-1.37 2.66-2.66v-13.3" style="opacity:.2"/>
 <path d="m42 18 14 14v-14" style="opacity:.2"/>
 <path d="m38 0 18 18h-15.2c-1.35 0-2.76-1.43-2.76-2.77" style="fill:#fff;opacity:.4"/>
 <path d="m18 0v6h6v-6h-6zm6 6v6h6v-6h-6zm0 6h-6v6h6v-6zm0 6v6h6v-6h-6zm0 6h-6v6h6v-6zm-6 8v12h12v-12h-12z" style="fill:#fff"/>
 <path d="m26.1 50c-0.127 0-1.54 0.0068-3.08 0.28v11.4c1.62 0.341 3.19 0.345 3.3 0.345 3.8 0 4.68-1.81 4.68-3.7 0-1.47-0.862-2.29-2.07-2.73 0.413-0.228 1.51-0.976 1.51-2.5 0-2.4-2.02-3.08-4.34-3.08zm7.37 0.359v11.6h2.48v-4.45h1.29c1.21 1.84 1.95 3.34 2.4 4.45h2.6c-0.728-1.72-1.72-3.46-2.74-5.01 1.57-0.661 1.91-2.03 1.91-3.11 0-1.75-0.866-3.09-2.78-3.59-1.71-0.398-3.44-0.151-5.16 0.0735zm-5.34 2.97c-0.213 1.54-1.35 1.43-2.74 1.46v-2.69c1.46-0.247 2.92-0.0783 2.74 1.23zm10.2-0.823c0.403 0.289 0.606 0.741 0.606 1.36 0 0.565-0.19 1.01-0.566 1.32-0.376 0.301-0.984 0.45-1.83 0.45h-0.544v-3.5c0.0352-0.0067 1.44-0.264 2.34 0.377zm-12.9 4.21h1.27c0.833 0 2.02 0.238 2.02 1.59 0 1.61-1.53 1.67-2.16 1.67-0.198 0-0.395-0.0041-0.601-0.023-0.189-0.0071-0.369-0.0246-0.531-0.0505v-3.18z" style="fill:#fff"/>
</svg>
