<?xml version="1.0" encoding="UTF-8" standalone="no"?>
<svg
   xmlns:dc="http://purl.org/dc/elements/1.1/"
   xmlns:cc="http://creativecommons.org/ns#"
   xmlns:rdf="http://www.w3.org/1999/02/22-rdf-syntax-ns#"
   xmlns:svg="http://www.w3.org/2000/svg"
   xmlns="http://www.w3.org/2000/svg"
   xmlns:sodipodi="http://sodipodi.sourceforge.net/DTD/sodipodi-0.dtd"
   xmlns:inkscape="http://www.inkscape.org/namespaces/inkscape"
   width="64px"
   height="64px"
   viewBox="0 0 64 64"
   version="1.1"
   id="svg2"
   inkscape:version="0.91 r13725"
   sodipodi:docname="application-roms_64-sms.svg">
  <metadata
     id="metadata15">
    <rdf:RDF>
      <cc:Work
         rdf:about="">
        <dc:format>image/svg+xml</dc:format>
        <dc:type
           rdf:resource="http://purl.org/dc/dcmitype/StillImage" />
        <dc:title></dc:title>
      </cc:Work>
    </rdf:RDF>
  </metadata>
  <defs
     id="defs13" />
  <sodipodi:namedview
     pagecolor="#ffffff"
     bordercolor="#666666"
     borderopacity="1"
     objecttolerance="10"
     gridtolerance="10"
     guidetolerance="10"
     inkscape:pageopacity="0"
     inkscape:pageshadow="2"
     inkscape:window-width="1920"
     inkscape:window-height="1013"
     id="namedview11"
     showgrid="false"
     inkscape:zoom="1"
     inkscape:cx="44.349112"
     inkscape:cy="19.833272"
     inkscape:window-x="0"
     inkscape:window-y="27"
     inkscape:window-maximized="1"
     inkscape:current-layer="svg2">
    <inkscape:grid
       type="xygrid"
       id="grid4171" />
  </sodipodi:namedview>
  <path
     inkscape:connector-curvature="0"
     id="path5"
     d="M 10.671875,0 C 9.296875,0 8,1.355469 8,2.789062 L 8,61.210938 C 8,62.566406 9.375,64 10.671875,64 l 42.65625,0 C 54.625,64 56,62.566406 56,61.210938 L 56,18 38,0 Z m 0,0"
     style="fill:#a6a6a6;fill-opacity:1;fill-rule:nonzero;stroke:none" />
  <path
     inkscape:connector-curvature="0"
     id="path7"
     d="m 42,18 14,14 0,-14 z m 0,0"
     style="fill:#000000;fill-opacity:0.19607801;fill-rule:nonzero;stroke:none" />
  <path
     inkscape:connector-curvature="0"
     id="path9"
     d="M 38,0 55.984375,18 40.757812,18 C 39.410156,18 38,16.574219 38,15.226562 Z m 0,0"
     style="fill:#ffffff;fill-opacity:0.39215698;fill-rule:nonzero;stroke:none" />
  <path
     inkscape:connector-curvature="0"
     id="path13"
     d="M 8,48 8,61.33594 C 8,62.63281 9.375,64 10.66406,64 l 42.67188,0 C 54.625,64 56,62.63281 56,61.33594 L 56,48 Z m 0,0"
     style="fill:#000000;fill-opacity:0.19607801;fill-rule:nonzero;stroke:none" />
  <path
     inkscape:connector-curvature="0"
     id="path4285"
     style="font-style:normal;font-variant:normal;font-weight:bold;font-stretch:normal;font-size:medium;line-height:125%;font-family:'Ubuntu Mono';-inkscape-font-specification:'Ubuntu Mono, Bold';text-align:start;letter-spacing:0px;word-spacing:0px;writing-mode:lr-tb;text-anchor:start;fill:#ffffff;fill-opacity:1;stroke:none;stroke-width:1px;stroke-linecap:butt;stroke-linejoin:miter;stroke-opacity:1"
     d="m 21.657149,60.246133 q 0.590476,0 0.971428,-0.102166 0.400001,-0.119196 0.628572,-0.306502 0.228571,-0.204334 0.304762,-0.442724 0.09523,-0.255419 0.09523,-0.510837 0,-0.323529 -0.209523,-0.578947 -0.209524,-0.255419 -0.533334,-0.442724 -0.32381,-0.204334 -0.723809,-0.357586 -0.400001,-0.170279 -0.8,-0.306501 -0.533334,-0.170279 -1.104762,-0.391641 -0.571429,-0.221363 -1.04762,-0.56192 -0.457143,-0.340557 -0.761904,-0.834365 -0.304763,-0.510836 -0.304763,-1.260062 0,-1.481425 1.066667,-2.31579 1.085714,-0.834365 2.971429,-0.834365 1.085715,0 1.885715,0.221363 0.819047,0.221362 1.371427,0.493808 l -0.685714,1.617647 q -0.47619,-0.23839 -1.066666,-0.408669 -0.571428,-0.170279 -1.333333,-0.170279 -1.866667,0 -1.866667,1.208978 0,0.306501 0.190476,0.544892 0.190477,0.221362 0.476191,0.408669 0.304761,0.170279 0.666667,0.306501 0.380952,0.136223 0.742856,0.255418 0.552382,0.187307 1.142858,0.425697 0.609523,0.221363 1.104762,0.613003 0.514285,0.374613 0.838095,0.95356 Q 26,58.032512 26,58.900932 q 0,1.481425 -1.085714,2.298762 -1.066667,0.800309 -3.257143,0.800309 -1.466667,0 -2.342858,-0.272445 Q 18.438095,61.438084 18,61.199694 l 0.685715,-1.702787 q 0.514285,0.272447 1.219047,0.510837 0.72381,0.238389 1.752381,0.238389 z" />
  <path
     inkscape:connector-curvature="0"
     id="path4287"
     style="font-style:normal;font-variant:normal;font-weight:bold;font-stretch:normal;font-size:medium;line-height:125%;font-family:'Ubuntu Mono';-inkscape-font-specification:'Ubuntu Mono, Bold';text-align:start;letter-spacing:0px;word-spacing:0px;writing-mode:lr-tb;text-anchor:start;fill:#ffffff;fill-opacity:1;stroke:none;stroke-width:1px;stroke-linecap:butt;stroke-linejoin:miter;stroke-opacity:1"
     d="m 30.431728,51 q 0.123347,0.373183 0.299558,0.959611 0.193833,0.586431 0.405287,1.261713 0.211453,0.675284 0.422907,1.368336 0.211454,0.693054 0.405286,1.279484 0.211453,-0.657512 0.440528,-1.350566 0.229075,-0.710824 0.440528,-1.350566 Q 33.057276,52.5105 33.233487,51.941841 33.409699,51.373183 33.550668,51 l 1.797355,0 q 0.123349,1.439418 0.229076,2.807754 0.123347,1.368336 0.193832,2.718901 0.0881,1.332796 0.140969,2.701132 Q 35.964765,60.578352 36,62 l -1.991188,0 0.105726,-8.547658 -1.339206,4.655896 -1.585902,0 L 29.903088,53.452342 29.991188,62 28,62 q 0.05287,-1.350566 0.105727,-2.807754 0.07049,-1.45719 0.140969,-2.896609 0.07049,-1.439417 0.15859,-2.789982 Q 28.511013,52.155089 28.634361,51 l 1.797355,0 z" />
  <path
     inkscape:connector-curvature="0"
     id="path4289"
     style="font-style:normal;font-variant:normal;font-weight:bold;font-stretch:normal;font-size:medium;line-height:125%;font-family:'Ubuntu Mono';-inkscape-font-specification:'Ubuntu Mono, Bold';text-align:start;letter-spacing:0px;word-spacing:0px;writing-mode:lr-tb;text-anchor:start;fill:#ffffff;fill-opacity:1;stroke:none;stroke-width:1px;stroke-linecap:butt;stroke-linejoin:miter;stroke-opacity:1"
     d="m 41.657148,60.246133 q 0.590476,0 0.971429,-0.102166 0.4,-0.119196 0.628571,-0.306502 0.228572,-0.204334 0.304762,-0.442724 0.09523,-0.255419 0.09523,-0.510837 0,-0.323529 -0.209524,-0.578947 -0.209524,-0.255419 -0.533332,-0.442724 -0.323811,-0.204334 -0.72381,-0.357586 -0.400001,-0.170279 -0.8,-0.306501 -0.533333,-0.170279 -1.104762,-0.391641 -0.571429,-0.221363 -1.047618,-0.56192 -0.457143,-0.340557 -0.761906,-0.834365 -0.304761,-0.510836 -0.304761,-1.260062 0,-1.481425 1.066667,-2.31579 1.085713,-0.834365 2.971427,-0.834365 1.085715,0 1.885715,0.221363 0.819046,0.221362 1.371428,0.493808 l -0.685714,1.617647 q -0.476191,-0.23839 -1.066666,-0.408669 -0.571429,-0.170279 -1.333334,-0.170279 -1.866666,0 -1.866666,1.208978 0,0.306501 0.190476,0.544892 0.190476,0.221362 0.476189,0.408669 0.304762,0.170279 0.666667,0.306501 0.380953,0.136223 0.742857,0.255418 0.552382,0.187307 1.142858,0.425697 0.609523,0.221363 1.104761,0.613003 0.514286,0.374613 0.838096,0.95356 Q 46,58.032512 46,58.900932 q 0,1.481425 -1.085716,2.298762 -1.066666,0.800309 -3.257141,0.800309 -1.466666,0 -2.342857,-0.272445 Q 38.438096,61.438084 38,61.199694 l 0.685715,-1.702787 q 0.514286,0.272447 1.219047,0.510837 0.723809,0.238389 1.752381,0.238389 z" />
  <path
     id="circle4216"
     style="opacity:1;fill:#ffffff;fill-opacity:1;fill-rule:nonzero;stroke:none;stroke-width:1.5;stroke-linecap:round;stroke-linejoin:miter;stroke-miterlimit:4;stroke-dasharray:none;stroke-dashoffset:0;stroke-opacity:1"
     d="m 38.461536,29.921533 a 1.0769231,1.0980599 0 0 1 -1.076924,1.09806 1.0769231,1.0980599 0 0 1 -1.076922,-1.09806 1.0769231,1.0980599 0 0 1 1.076922,-1.09806 1.0769231,1.0980599 0 0 1 1.076924,1.09806 z m 2.153851,2.196096 a 1.0769231,1.0980599 0 0 1 -1.076924,1.09806 1.0769231,1.0980599 0 0 1 -1.076923,-1.09806 1.0769231,1.0980599 0 0 1 1.076923,-1.098059 1.0769231,1.0980599 0 0 1 1.076924,1.098059 z m 2.153843,-2.196096 a 1.0769231,1.0980599 0 0 1 -1.076923,1.09806 1.0769231,1.0980599 0 0 1 -1.076924,-1.09806 1.0769231,1.0980599 0 0 1 1.076924,-1.09806 1.0769231,1.0980599 0 0 1 1.076923,1.09806 z m -2.153843,-2.196045 a 1.0769231,1.0980599 0 0 1 -1.076924,1.09806 1.0769231,1.0980599 0 0 1 -1.076923,-1.09806 1.0769231,1.0980599 0 0 1 1.076923,-1.09806 1.0769231,1.0980599 0 0 1 1.076924,1.09806 z m -14.000002,2.195944 a 2.1538463,2.1961196 0 0 1 -2.153848,2.196119 2.1538463,2.1961196 0 0 1 -2.153846,-2.196119 2.1538463,2.1961196 0 0 1 2.153846,-2.19612 2.1538463,2.1961196 0 0 1 2.153848,2.19612 z m -1.903549,-7.683424 c -0.774555,0.03212 -1.412035,0.370505 -1.850962,0.709881 C 20.265775,24.95483 18,33.326255 18,37.756761 c 0,4.430424 0.998936,4.242083 1.865682,4.242083 0.866751,0 1.956489,-0.607683 2.908958,-1.462671 2.629442,-2.360153 3.840636,-5.124412 6.455229,-5.124412 l 5.540262,0 c 2.614591,0 3.825786,2.764259 6.455229,5.124412 0.952467,0.854988 2.042207,1.462671 2.908956,1.462671 C 45.001062,41.998844 46,42.187185 46,37.756761 46,33.326255 43.734223,24.95483 41.139124,22.947889 40.436835,22.404854 39.228141,21.863959 37.756912,22.576888 36.770342,23.05503 35.888532,23.3333 34.599757,23.3333 l -5.199521,0 c -1.288769,0 -2.170581,-0.27827 -3.15715,-0.756412 -0.551708,-0.2674 -1.066515,-0.358316 -1.53125,-0.33888 z"
     inkscape:connector-curvature="0" />
</svg>
