
<svg xmlns="http://www.w3.org/2000/svg" xmlns:xlink="http://www.w3.org/1999/xlink" width="64px" height="64px" viewBox="0 0 64 64" version="1.1">
<g id="surface1">
<path style=" stroke:none;fill-rule:nonzero;fill:rgb(20.392157%,40.784314%,80.784314%);fill-opacity:1;" d="M 10.6875 0 C 9.3125 0 8 1.378906 8 2.8125 L 8 61.1875 C 8 62.539062 9.390625 64 10.6875 64 L 53.3125 64 C 54.609375 64 56 62.539062 56 61.1875 L 56 2.75 C 56 1.402344 54.597656 0 53.25 0 Z M 10.6875 0 "/>
<path style=" stroke:none;fill-rule:evenodd;fill:rgb(97.647059%,97.647059%,97.647059%);fill-opacity:1;" d="M 20 20 L 32 20 L 32 30 L 20 30 Z M 20 20 "/>
<path style=" stroke:none;fill-rule:evenodd;fill:rgb(97.647059%,97.647059%,97.647059%);fill-opacity:1;" d="M 34 20 L 44 20 L 44 22 L 34 22 Z M 34 20 "/>
<path style=" stroke:none;fill-rule:evenodd;fill:rgb(97.647059%,97.647059%,97.647059%);fill-opacity:1;" d="M 34 24 L 44 24 L 44 26 L 34 26 Z M 34 24 "/>
<path style=" stroke:none;fill-rule:evenodd;fill:rgb(97.647059%,97.647059%,97.647059%);fill-opacity:1;" d="M 34 28 L 44 28 L 44 30 L 34 30 Z M 34 28 "/>
<path style=" stroke:none;fill-rule:evenodd;fill:rgb(97.647059%,97.647059%,97.647059%);fill-opacity:1;" d="M 20 32 L 44 32 L 44 34 L 20 34 Z M 20 32 "/>
<path style=" stroke:none;fill-rule:evenodd;fill:rgb(97.647059%,97.647059%,97.647059%);fill-opacity:1;" d="M 20 36 L 44 36 L 44 38 L 20 38 Z M 20 36 "/>
<path style=" stroke:none;fill-rule:evenodd;fill:rgb(97.647059%,97.647059%,97.647059%);fill-opacity:1;" d="M 20 40 L 44 40 L 44 42 L 20 42 Z M 20 40 "/>
<path style=" stroke:none;fill-rule:evenodd;fill:rgb(97.647059%,97.647059%,97.647059%);fill-opacity:1;" d="M 20 44 L 44 44 L 44 46 L 20 46 Z M 20 44 "/>
</g>
</svg>
