<?xml version="1.0" encoding="UTF-8" standalone="no"?>
<svg
   xmlns:dc="http://purl.org/dc/elements/1.1/"
   xmlns:cc="http://creativecommons.org/ns#"
   xmlns:rdf="http://www.w3.org/1999/02/22-rdf-syntax-ns#"
   xmlns:svg="http://www.w3.org/2000/svg"
   xmlns="http://www.w3.org/2000/svg"
   xmlns:sodipodi="http://sodipodi.sourceforge.net/DTD/sodipodi-0.dtd"
   xmlns:inkscape="http://www.inkscape.org/namespaces/inkscape"
   width="64"
   height="64"
   viewBox="0 0 64 64"
   id="svg2"
   version="1.1"
   inkscape:version="0.48.5 r10040"
   sodipodi:docname="encrypted-key.svg">
  <metadata
     id="metadata14">
    <rdf:RDF>
      <cc:Work
         rdf:about="">
        <dc:format>image/svg+xml</dc:format>
        <dc:type
           rdf:resource="http://purl.org/dc/dcmitype/StillImage" />
      </cc:Work>
    </rdf:RDF>
  </metadata>
  <defs
     id="defs12" />
  <sodipodi:namedview
     pagecolor="#ffffff"
     bordercolor="#666666"
     borderopacity="1"
     objecttolerance="10"
     gridtolerance="10"
     guidetolerance="10"
     inkscape:pageopacity="0"
     inkscape:pageshadow="2"
     inkscape:window-width="1280"
     inkscape:window-height="970"
     id="namedview10"
     showgrid="true"
     inkscape:zoom="5.2149125"
     inkscape:cx="-7.9967732"
     inkscape:cy="26.927667"
     inkscape:window-x="0"
     inkscape:window-y="0"
     inkscape:window-maximized="1"
     inkscape:current-layer="svg2">
    <inkscape:grid
       type="xygrid"
       id="grid2991"
       empspacing="5"
       visible="true"
       enabled="true"
       snapvisiblegridlinesonly="true" />
  </sodipodi:namedview>
  <path
     style="fill:#dcdcdc;fill-opacity:1"
     d="M 10.671776,5.94e-4 C 9.296828,6.24e-4 8,1.353576 8,2.788062 L 8,61.212536 C 8,62.565514 9.374948,64 10.671776,64 l 42.654664,0 c 1.296828,0 2.671776,-1.434486 2.671776,-2.787464 L 56,18 38,0 z"
     id="path4-1"
     inkscape:connector-curvature="0"
     sodipodi:nodetypes="ssssssccs" />
  <path
     style="fill:#000000;fill-opacity:0.19599998"
     d="M 42,18 56,32 56,18 z"
     id="path6-4"
     inkscape:connector-curvature="0"
     sodipodi:nodetypes="cccc" />
  <path
     style="fill:#ffffff;fill-opacity:0.39200003"
     d="M 38.000612,5.94e-4 55.9838,18 40.757276,18 c -1.345902,0 -2.756664,-1.42698 -2.756664,-2.77288 z"
     id="path8-6"
     inkscape:connector-curvature="0"
     sodipodi:nodetypes="ccssc" />
  <path
     style="fill:#888888;fill-opacity:1"
     inkscape:connector-curvature="0"
     d="m 38.499884,24.000108 c -4.142112,0 -7.499956,3.117978 -7.499956,6.964176 0,1.201998 0.328954,2.33578 0.906242,3.322552 0.002,0.0026 -0.002,0.0112 0,0.0146 L 18,47.214332 18,50 l 2.999982,0 0.999996,-0.92852 0,-1.857148 1.99999,0 0.999994,-0.92859 1.999988,0 0.999994,-0.928554 0,-1.85711 0.999994,-0.928592 1.99999,0 0,-1.85711 3.906228,-3.62722 c 0.0038,0.002 0.0116,-0.002 0.0158,0 1.062694,0.53605 2.283698,0.841516 3.57811,0.841516 4.142086,0 7.499934,-3.118016 7.499934,-6.96425 l 0,-0.0292 C 45.986614,27.097626 42.632778,24 38.50001,24 z m 1.499994,3.714254 c 1.10207,0 1.996472,0.833746 1.99999,1.857108 0,1.02566 -0.895426,1.857108 -1.99999,1.857108 -1.104566,0 -1.99999,-0.831448 -1.99999,-1.857108 0,-1.025694 0.895424,-1.857108 1.99999,-1.857108 z"
     id="path30-2" />
</svg>
