<?xml version="1.0" encoding="UTF-8" standalone="no"?>
<svg
   xmlns:dc="http://purl.org/dc/elements/1.1/"
   xmlns:cc="http://creativecommons.org/ns#"
   xmlns:rdf="http://www.w3.org/1999/02/22-rdf-syntax-ns#"
   xmlns:svg="http://www.w3.org/2000/svg"
   xmlns="http://www.w3.org/2000/svg"
   xmlns:sodipodi="http://sodipodi.sourceforge.net/DTD/sodipodi-0.dtd"
   xmlns:inkscape="http://www.inkscape.org/namespaces/inkscape"
   width="64px"
   height="64px"
   viewBox="0 0 64 64"
   version="1.1"
   id="svg2"
   inkscape:version="0.91 r13725"
   sodipodi:docname="gnome-mime-text-x-makefile.svg">
  <metadata
     id="metadata21">
    <rdf:RDF>
      <cc:Work
         rdf:about="">
        <dc:format>image/svg+xml</dc:format>
        <dc:type
           rdf:resource="http://purl.org/dc/dcmitype/StillImage" />
      </cc:Work>
    </rdf:RDF>
  </metadata>
  <defs
     id="defs19" />
  <sodipodi:namedview
     pagecolor="#ffffff"
     bordercolor="#666666"
     borderopacity="1"
     objecttolerance="10"
     gridtolerance="10"
     guidetolerance="10"
     inkscape:pageopacity="0"
     inkscape:pageshadow="2"
     inkscape:window-width="1920"
     inkscape:window-height="1013"
     id="namedview17"
     showgrid="false"
     inkscape:zoom="3.6875"
     inkscape:cx="-2.9830508"
     inkscape:cy="32"
     inkscape:window-x="0"
     inkscape:window-y="27"
     inkscape:window-maximized="1"
     inkscape:current-layer="svg2" />
  <path
     inkscape:connector-curvature="0"
     id="path5"
     d="M 10.671875,0 C 9.296875,0 8,1.355469 8,2.789062 L 8,61.210938 C 8,62.566406 9.375,64 10.671875,64 l 42.65625,0 C 54.625,64 56,62.566406 56,61.210938 L 56,18 38,0 Z m 0,0"
     style="fill:#dcdcdc;fill-opacity:1;fill-rule:nonzero;stroke:none" />
  <path
     inkscape:connector-curvature="0"
     id="path7"
     d="m 42,18 14,14 0,-14 z m 0,0"
     style="fill:#000000;fill-opacity:0.19607801;fill-rule:nonzero;stroke:none" />
  <path
     inkscape:connector-curvature="0"
     id="path9"
     d="M 38,0 55.984375,18 40.757812,18 C 39.410156,18 38,16.574219 38,15.226562 Z m 0,0"
     style="fill:#ffffff;fill-opacity:0.39215698;fill-rule:nonzero;stroke:none" />
  <path
     inkscape:connector-curvature="0"
     id="path11"
     d="m 40.507812,29.414062 c 1.507813,0.460938 0.1875,2.617188 2.351563,3.671876 2.46875,1.203124 3.695313,-1.84375 5.179687,0.335937 1.484376,2.171875 -2.046874,1.835937 -1.953124,4.390625 0.101562,2.554688 3.601562,2.015625 2.289062,4.273438 -1.3125,2.25 -2.773438,-0.710938 -5.140625,0.640624 -2.375,1.351563 -0.101563,3.851563 -2.898437,3.9375 -2.796876,0.08594 -0.71875,-2.539062 -3.195313,-3.75 -2.46875,-1.203124 -3.695313,1.84375 -5.179687,-0.328124 C 30.476562,40.40625 34.007812,40.75 33.914062,38.1875 33.8125,35.632812 30.3125,36.171875 31.625,33.921875 c 1.3125,-2.257813 2.773438,0.703125 5.140625,-0.648437 2.375,-1.351563 0.101563,-3.851563 2.898437,-3.9375 0.351563,-0.0078 0.625,0.0078 0.84375,0.07812 z m -0.03125,6.507813 c -1.242187,-0.242187 -2.46875,0.492187 -2.734374,1.640625 -0.265626,1.140625 0.53125,2.273438 1.78125,2.515625 1.242187,0.242187 2.46875,-0.484375 2.734374,-1.632813 0.265626,-1.148437 -0.53125,-2.28125 -1.78125,-2.523437 z m 0,0"
     style="fill:#888888;fill-opacity:1;fill-rule:nonzero;stroke:none" />
  <path
     inkscape:connector-curvature="0"
     id="path13"
     d="m 28.507812,18.742188 c 1.507813,0.460937 0.1875,2.617187 2.351563,3.671874 2.46875,1.210938 3.695313,-1.835937 5.179687,0.335938 1.484376,2.171875 -2.046874,1.835938 -1.953124,4.398438 0.101562,2.554687 3.601562,2.007812 2.289062,4.265624 -1.3125,2.257813 -2.773438,-0.703124 -5.140625,0.648438 -2.375,1.351562 -0.101563,3.851562 -2.898437,3.9375 -2.796876,0.07813 -0.71875,-2.539062 -3.195313,-3.75 -2.46875,-1.203125 -3.695313,1.835938 -5.179687,-0.335938 -1.484376,-2.171874 2.046874,-1.835937 1.953124,-4.390624 C 21.8125,24.96875 18.3125,25.507812 19.625,23.25 c 1.3125,-2.257812 2.773438,0.703125 5.140625,-0.648438 2.375,-1.351562 0.101563,-3.851562 2.898437,-3.929687 0.351563,-0.01563 0.625,0.0078 0.84375,0.07031 z m -0.03125,6.515624 c -1.242187,-0.25 -2.46875,0.484376 -2.734374,1.632813 -0.265626,1.148437 0.53125,2.28125 1.78125,2.523437 1.242187,0.242188 2.46875,-0.492187 2.734374,-1.640624 C 30.523438,26.625 29.726562,25.5 28.476562,25.257812 Z m 0,0"
     style="fill:#888888;fill-opacity:1;fill-rule:nonzero;stroke:none" />
  <path
     inkscape:connector-curvature="0"
     id="path15"
     d="m 24.507812,33.414062 c 1.507813,0.460938 0.1875,2.617188 2.351563,3.671876 2.46875,1.203124 3.695313,-1.84375 5.179687,0.335937 1.484376,2.171875 -2.046874,1.835937 -1.953124,4.390625 0.101562,2.554688 3.601562,2.015625 2.289062,4.273438 -1.3125,2.25 -2.773438,-0.710938 -5.140625,0.640624 -2.375,1.351563 -0.101563,3.851563 -2.898437,3.9375 -2.796876,0.08594 -0.71875,-2.539062 -3.195313,-3.75 -2.46875,-1.203124 -3.695313,1.84375 -5.179687,-0.328124 C 14.476562,44.40625 18.007812,44.75 17.914062,42.1875 17.8125,39.632812 14.3125,40.171875 15.625,37.921875 c 1.3125,-2.257813 2.773438,0.703125 5.140625,-0.648437 2.375,-1.351563 0.101563,-3.851563 2.898437,-3.9375 0.351563,-0.0078 0.625,0.0078 0.84375,0.07812 z m -0.03125,6.507813 c -1.242187,-0.242187 -2.46875,0.492187 -2.734374,1.640625 -0.265626,1.140625 0.53125,2.273438 1.78125,2.515625 1.242187,0.242187 2.46875,-0.484375 2.734374,-1.632813 0.265626,-1.148437 -0.53125,-2.28125 -1.78125,-2.523437 z m 0,0"
     style="fill:#888888;fill-opacity:1;fill-rule:nonzero;stroke:none" />
</svg>
