<svg width="64" xmlns="http://www.w3.org/2000/svg" height="64" viewBox="0 0 64 64" xmlns:xlink="http://www.w3.org/1999/xlink">
<defs>
<clipPath id="clip1">
<rect width="64" height="64"/>
</clipPath>
<filter width="100%" x="0" y="0" height="100%" filterUnits="objectBoundingBox" id="alpha">
<feColorMatrix values="0 0 0 0 1 0 0 0 0 1 0 0 0 0 1 0 0 0 1 0" in="SourceGraphic" type="matrix"/>
</filter>
<g style="clip-path:url(#clip1)" id="surface6">
<path style="fill:#a30000;fill-opacity:.8" d="M 22.667969 32 L 25.332031 32 L 25.332031 36 L 22.667969 36 Z "/>
<path style="fill:#a30000;fill-opacity:.8" d="M 38.667969 33.332031 L 41.332031 33.332031 L 41.332031 36 L 38.667969 36 Z "/>
<path style="fill:#a30000;fill-opacity:.8" d="M 30.667969 26.667969 L 33.332031 26.667969 L 33.332031 36 L 30.667969 36 Z "/>
<path style="fill:#a30000;fill-opacity:.8" d="M 34.667969 30.667969 L 37.332031 30.667969 L 37.332031 36 L 34.667969 36 Z "/>
<path style="fill:#a30000;fill-opacity:.8" d="M 26.667969 28 L 29.332031 28 L 29.332031 36 L 26.667969 36 Z "/>
<path style="fill:#a30000;fill-opacity:.8" d="M 18.667969 22.667969 L 18.667969 40 C 18.667969 41.332031 20 41.332031 20 41.332031 L 44 41.332031 C 45.332031 41.332031 45.332031 40 45.332031 40 L 45.332031 22.667969 C 45.332031 21.332031 44 21.332031 44 21.332031 L 20 21.332031 C 18.667969 21.332031 18.667969 22.667969 18.667969 22.667969 Z M 21.332031 24 L 42.667969 24 L 42.667969 38.667969 L 21.332031 38.667969 Z "/>
<path style="fill:#a30000;fill-opacity:.8" d="M 29.332031 41.332031 L 25.332031 45.332031 L 25.332031 46.667969 L 28 46.667969 L 32 42.667969 L 36 46.667969 L 38.667969 46.667969 L 38.667969 45.332031 L 34.667969 41.332031 Z "/>
</g>
<linearGradient gradientTransform="matrix(1.5 0 0 1.55556 -5 -2.44444)" id="linear0" y1="13.571" x1="25.556" y2="5.857" gradientUnits="userSpaceOnUse" x2="33.556">
<stop offset="0" style="stop-color:#000"/>
<stop offset="1" style="stop-color:#000;stop-opacity:0"/>
</linearGradient>
<mask id="mask0">
<g style="filter:url(#alpha)">
<rect width="64" x="0" y="0" height="64" style="fill:#000;fill-opacity:.8"/>
</g>
</mask>
<radialGradient cx="24" cy="24" gradientTransform="matrix(2.04444 .71111 -.81452 2.34173 2.48173 -41.26831)" id="radial0" r="15" gradientUnits="userSpaceOnUse">
<stop offset="0" style="stop-color:#e4e5e2"/>
<stop offset=".5" style="stop-color:#d6d9d2"/>
<stop offset="1" style="stop-color:#b7beb1"/>
</radialGradient>
</defs>
<path style="fill:url(#radial0)" d="M 13.804688 5.335938 C 12.820312 5.4375 11.996094 6.355469 12 7.335938 L 12 56.667969 C 12 57.714844 12.957031 58.667969 14.011719 58.667969 L 49.988281 58.667969 C 51.042969 58.667969 52 57.714844 52 56.667969 L 52 12 L 42.667969 5.332031 L 14.011719 5.335938 C 13.941406 5.332031 13.871094 5.332031 13.804688 5.335938 Z "/>
<path style="fill:url(#linear0)" d="M 42.667969 5.332031 L 42.667969 12 L 52 12 L 52 10 L 44.5 5.332031 Z "/>
<use style="mask:url(#mask0)" xlink:href="#surface6"/>
</svg>
