<?xml version="1.0" encoding="UTF-8" standalone="no"?>
<svg
   xmlns:dc="http://purl.org/dc/elements/1.1/"
   xmlns:cc="http://creativecommons.org/ns#"
   xmlns:rdf="http://www.w3.org/1999/02/22-rdf-syntax-ns#"
   xmlns:svg="http://www.w3.org/2000/svg"
   xmlns="http://www.w3.org/2000/svg"
   xmlns:sodipodi="http://sodipodi.sourceforge.net/DTD/sodipodi-0.dtd"
   xmlns:inkscape="http://www.inkscape.org/namespaces/inkscape"
   viewBox="0 0 64 64"
   id="svg2"
   version="1.1"
   inkscape:version="0.91 r13725"
   sodipodi:docname="text-x-nim.svg">
  <metadata
     id="metadata18">
    <rdf:RDF>
      <cc:Work
         rdf:about="">
        <dc:format>image/svg+xml</dc:format>
        <dc:type
           rdf:resource="http://purl.org/dc/dcmitype/StillImage" />
        <dc:title />
      </cc:Work>
    </rdf:RDF>
  </metadata>
  <defs
     id="defs16" />
  <sodipodi:namedview
     pagecolor="#ffffff"
     bordercolor="#666666"
     borderopacity="1"
     objecttolerance="10"
     gridtolerance="10"
     guidetolerance="10"
     inkscape:pageopacity="0"
     inkscape:pageshadow="2"
     inkscape:window-width="1440"
     inkscape:window-height="880"
     id="namedview14"
     showgrid="false"
     inkscape:zoom="3.6875"
     inkscape:cx="-79.457627"
     inkscape:cy="32.271186"
     inkscape:window-x="0"
     inkscape:window-y="20"
     inkscape:window-maximized="1"
     inkscape:current-layer="g4" />
  <g
     id="g4">
    <path
       d="m 10.672 0 c -1.375 0 -2.672 1.355 -2.672 2.789 l 0 58.42 c 0 1.355 1.375 2.789 2.672 2.789 l 42.656 0 c 1.297 0 2.672 -1.434 2.672 -2.789 l 0 -43.21 l -18 -18 m -27.328 0"
       style="fill:#efc743;fill-opacity:1;stroke:none;fill-rule:nonzero"
       id="path6" />
    <path
       d="m 42 18 l 14 14 l 0 -14 m -14 0"
       style="fill:#000;fill-opacity:0.196;stroke:none;fill-rule:nonzero"
       id="path8" />
    <path
       d="m 38 0 l 17.984 18 l -15.227 0 c -1.348 0 -2.758 -1.426 -2.758 -2.773 m 0 -15.227"
       style="fill:#fff;fill-opacity:0.392;stroke:none;fill-rule:nonzero"
       id="path10" />
    <path
       style="fill:#ffffff;fill-opacity:1"
       d="m 31.098766,44.980823 c -2.14175,-0.184318 -4.268607,-0.790853 -6.106832,-1.74153 -1.66819,-0.862734 -2.942042,-1.936625 -3.756208,-3.166601 -0.391435,-0.591353 -0.357407,-0.504942 -1.701437,-4.320379 -0.688348,-1.954057 -1.276669,-3.615422 -1.307387,-3.691911 -0.04361,-0.108654 -1.239094,-5.054177 -1.226805,-5.075231 0.0021,-0.0032 0.455303,0.183203 1.008084,0.413432 l 1.005074,0.418595 0.359635,-0.350431 c 0.504524,-0.491614 1.026876,-0.871927 1.776554,-1.293469 l 0.228728,-0.128615 0.668163,-1.38004 c 0.457478,-0.944891 0.678524,-1.376066 0.701013,-1.36743 0.01811,0.0064 0.519106,0.390224 1.113427,0.851774 0.59432,0.461538 1.094098,0.849513 1.110609,0.862166 0.01907,0.01457 0.255031,-0.02946 0.644816,-0.120257 1.63939,-0.381985 2.51225,-0.510867 3.610451,-0.53311 l 0.593389,-0.012 1.085623,-1.042059 c 0.597095,-0.573127 1.087959,-1.042058 1.090798,-1.042058 0.0032,0 0.493692,0.468931 1.090787,1.042058 l 1.085634,1.042059 0.593378,0.012 c 1.089298,0.02207 1.956296,0.148339 3.526687,0.513653 0.333792,0.07768 0.629645,0.145671 0.657459,0.151168 0.03611,0.0075 0.371817,-0.240118 1.172366,-0.86342 0.616981,-0.480374 1.12953,-0.873406 1.139002,-0.873406 0.0096,0 0.317581,0.620388 0.684706,1.378648 l 0.667488,1.378647 0.1659,0.09214 c 0.758773,0.421306 1.337504,0.840106 1.840764,1.332073 l 0.359925,0.351846 0.929719,-0.387193 c 0.511339,-0.212956 0.965699,-0.40201 1.009692,-0.420127 l 0.08003,-0.03289 -0.02186,0.08164 c -0.012,0.04489 -0.273385,1.145559 -0.580842,2.445939 -0.307467,1.300391 -0.587913,2.4383 -0.623206,2.528674 -0.03525,0.09043 -0.62731,1.763119 -1.315573,3.717198 -0.973852,2.764913 -1.279669,3.60534 -1.378872,3.78939 -0.967445,1.794875 -2.892285,3.31433 -5.502698,4.34381 -1.330133,0.52456 -2.721981,0.872345 -4.189686,1.046891 -0.515806,0.06139 -1.818307,0.08893 -2.288482,0.04843 z m -1.997997,-8.880135 c 1.578373,-0.891631 2.881753,-1.621155 2.89641,-1.621155 0.01468,0 1.307976,0.724178 2.874059,1.609273 1.566083,0.885095 2.87422,1.620736 2.906974,1.63474 0.04875,0.02089 0.340296,-0.05829 1.606165,-0.435878 l 1.546604,-0.461335 1.130784,-1.465755 1.130784,-1.465765 -0.04746,-0.139628 c -0.08325,-0.245196 -0.350275,-0.763296 -0.534528,-1.037324 -1.056277,-1.570893 -3.138434,-2.922873 -5.689094,-3.694022 -2.505339,-0.757445 -5.35693,-0.912855 -8.048001,-0.438599 -3.513497,0.619188 -6.460992,2.314839 -7.667108,4.410785 -0.149528,0.259843 -0.324621,0.633599 -0.373853,0.798031 l -0.03075,0.102643 1.129391,1.463954 1.129391,1.463955 1.547279,0.46141 c 0.851003,0.253789 1.564337,0.455667 1.585198,0.448638 0.02089,-0.0075 1.32933,-0.742316 2.907702,-1.633958 z"
       id="path4849"
       inkscape:connector-curvature="0" />
  </g>
</svg>
