
<svg xmlns="http://www.w3.org/2000/svg" xmlns:xlink="http://www.w3.org/1999/xlink" width="64px" height="64px" viewBox="0 0 64 64" version="1.1">
<g id="surface1">
<path style=" stroke:none;fill-rule:nonzero;fill:rgb(17.647059%,17.647059%,17.647059%);fill-opacity:1;" d="M 10.671875 0 C 9.296875 0 8 1.355469 8 2.789062 L 8 61.210938 C 8 62.566406 9.375 64 10.671875 64 L 53.328125 64 C 54.625 64 56 62.566406 56 61.210938 L 56 18 L 38 0 Z M 10.671875 0 "/>
<path style=" stroke:none;fill-rule:nonzero;fill:rgb(0%,0%,0%);fill-opacity:0.196078;" d="M 42 18 L 56 32 L 56 18 Z M 42 18 "/>
<path style=" stroke:none;fill-rule:nonzero;fill:rgb(100%,100%,100%);fill-opacity:0.392157;" d="M 38 0 L 55.984375 18 L 40.757812 18 C 39.410156 18 38 16.574219 38 15.226562 Z M 38 0 "/>
<path style=" stroke:none;fill-rule:nonzero;fill:rgb(86.27451%,86.27451%,86.27451%);fill-opacity:1;" d="M 20 36.785156 C 20 35.222656 20.300781 33.683594 20.886719 32.160156 C 21.484375 30.625 22.339844 29.253906 23.453125 28.046875 C 24.597656 26.847656 25.976562 25.867188 27.613281 25.125 C 29.238281 24.378906 31.101562 24 33.203125 24 C 35.664062 24 37.785156 24.523438 39.578125 25.550781 C 41.390625 26.589844 42.714844 27.941406 43.578125 29.597656 L 39.453125 32.234375 C 39.148438 31.511719 38.742188 30.910156 38.25 30.425781 C 37.757812 29.921875 37.222656 29.53125 36.625 29.234375 C 36.054688 28.949219 35.453125 28.742188 34.839844 28.625 C 34.214844 28.484375 33.617188 28.40625 33.046875 28.40625 C 31.78125 28.40625 30.664062 28.664062 29.707031 29.167969 C 28.746094 29.675781 27.945312 30.332031 27.296875 31.148438 C 26.679688 31.949219 26.199219 32.863281 25.863281 33.902344 C 25.554688 34.910156 25.398438 35.917969 25.398438 36.929688 C 25.398438 38.0625 25.574219 39.15625 25.941406 40.214844 C 26.328125 41.25 26.855469 42.164062 27.535156 42.953125 C 28.230469 43.753906 29.0625 44.390625 30.023438 44.867188 C 30.980469 45.355469 32.027344 45.59375 33.167969 45.59375 C 33.757812 45.59375 34.375 45.527344 34.988281 45.382812 C 35.613281 45.230469 36.210938 45 36.773438 44.6875 C 37.371094 44.382812 37.917969 43.984375 38.410156 43.496094 C 38.902344 42.992188 39.304688 42.394531 39.613281 41.699219 L 44 44.039062 C 43.585938 45 42.980469 45.859375 42.179688 46.609375 C 41.398438 47.324219 40.511719 47.945312 39.5 48.449219 C 38.488281 48.953125 37.425781 49.332031 36.308594 49.601562 C 35.199219 49.867188 34.101562 50 33.011719 50 C 31.09375 50 29.335938 49.621094 27.726562 48.847656 C 26.144531 48.078125 24.773438 47.078125 23.613281 45.847656 C 22.46875 44.59375 21.574219 43.183594 20.933594 41.621094 C 20.308594 40.03125 20 38.421875 20 36.785156 "/>
</g>
</svg>
