<svg version="1.1" viewBox="0 0 64 64" xmlns="http://www.w3.org/2000/svg">
 <path d="m10.7 0c-1.38 0-2.67 1.36-2.67 2.79v58.4c0 1.36 1.38 2.79 2.67 2.79h42.7c1.3 0 2.67-1.43 2.67-2.79v-43.2l-18-18" style="fill:#29a"/>
 <path d="m42 18 14 14v-14" style="opacity:.2"/>
 <path d="m38 0 18 18h-15.2c-1.35 0-2.76-1.43-2.76-2.77" style="fill:#fff;opacity:.4"/>
 <path d="m32 19.5-7 3.5 5e-6 2.33-3 1.17v2.5h3l-2e-6 16.3c0 4 3.11 6.67 6.8 6.67 3 0 5.32-0.81 9.33-4.64l-1.38-1.86c-1.27 1.04-3.39 1.5-4.75 1.5-2.05 0-3-0.772-3-2.62v-15.4h6l1-4-7 1z" style="fill:#fff"/>
</svg>
