<?xml version="1.0" encoding="UTF-8" standalone="no"?>
<svg
   xmlns:dc="http://purl.org/dc/elements/1.1/"
   xmlns:cc="http://creativecommons.org/ns#"
   xmlns:rdf="http://www.w3.org/1999/02/22-rdf-syntax-ns#"
   xmlns:svg="http://www.w3.org/2000/svg"
   xmlns="http://www.w3.org/2000/svg"
   xmlns:sodipodi="http://sodipodi.sourceforge.net/DTD/sodipodi-0.dtd"
   xmlns:inkscape="http://www.inkscape.org/namespaces/inkscape"
   width="64px"
   height="64px"
   viewBox="0 0 64 64"
   version="1.1"
   id="svg2"
   inkscape:version="0.91 r13725"
   sodipodi:docname="text-x-gettext-translation-template.svg">
  <metadata
     id="metadata27">
    <rdf:RDF>
      <cc:Work
         rdf:about="">
        <dc:format>image/svg+xml</dc:format>
        <dc:type
           rdf:resource="http://purl.org/dc/dcmitype/StillImage" />
        <dc:title />
      </cc:Work>
    </rdf:RDF>
  </metadata>
  <defs
     id="defs25" />
  <sodipodi:namedview
     pagecolor="#ffffff"
     bordercolor="#666666"
     borderopacity="1"
     objecttolerance="10"
     gridtolerance="10"
     guidetolerance="10"
     inkscape:pageopacity="0"
     inkscape:pageshadow="2"
     inkscape:window-width="1366"
     inkscape:window-height="704"
     id="namedview23"
     showgrid="false"
     inkscape:zoom="5.9551649"
     inkscape:cx="18.011442"
     inkscape:cy="32"
     inkscape:window-x="0"
     inkscape:window-y="27"
     inkscape:window-maximized="1"
     inkscape:current-layer="svg2">
    <inkscape:grid
       type="xygrid"
       id="grid4143" />
  </sodipodi:namedview>
  <g
     id="surface1">
    <path
       style="stroke:none;fill-rule:nonzero;fill:#dda06a;fill-opacity:1"
       d="M 10.6875 0 C 9.3125 0 8 1.378906 8 2.8125 L 8 61.1875 C 8 62.539062 9.390625 64 10.6875 64 L 53.3125 64 C 54.609375 64 56 62.539062 56 61.1875 L 56 2.75 C 56 1.402344 54.597656 0 53.25 0 Z M 10.6875 0 "
       id="path5" />
  </g>
  <path
     style="fill:#000000;fill-opacity:0.19599998"
     d="M 8,48 8,61.335938 C 8,62.632814 9.375,64 10.664062,64 l 42.671876,0 C 54.625,64 56,62.632814 56,61.335938 L 56,48 Z"
     id="path3025"
     inkscape:connector-curvature="0" />
  <path
     inkscape:connector-curvature="0"
     style="fill:#ffffff;fill-opacity:1"
     d="m 32.199218,52 c -1.16128,2e-6 -2.069886,0.415824 -2.726562,1.265624 C 28.822892,54.100768 28.5,55.347776 28.5,56.996094 c 0,1.655644 0.312382,2.900202 0.941406,3.75 C 30.084258,61.58124 31.009084,62 32.21875,62 c 1.168192,0 2.079804,-0.41876 2.722656,-1.253906 0.635942,-0.849798 0.960938,-2.094356 0.960938,-3.75 -2e-6,-1.648316 -0.31629,-2.895326 -0.945312,-3.73047 C 34.328002,52.415826 33.408882,52 32.199218,52 Z M 37,52 l 0,2.003906 2.5,0 0,8.007812 2,0 0,-8.007812 2.5,0 L 44,52 Z M 22.828124,52.0118 C 21.86358,52.0044 20.937896,52.12716 20,52.242188 l 0,9.76953 2,0 0,-3.25 0.773438,0 c 1.334088,0 2.355332,-0.336192 3.074218,-0.855468 0.732712,-0.526796 1.09375,-1.388494 1.09375,-2.5625 -2e-6,-1.166482 -0.363142,-2.03513 -1.08203,-2.546874 C 25.140492,52.2776 24.134524,52.02176 22.828124,52.011718 Z m 9.371094,1.644532 c 0.352532,0 0.637284,0.0859 0.851564,0.261718 0.207372,0.17582 0.365968,0.410578 0.476562,0.710938 0.12444,0.300364 0.1998,0.652736 0.234374,1.070312 0.04146,0.402922 0.07032,0.835348 0.07032,1.296876 0,0.468856 -0.02884,0.901764 -0.07032,1.304688 -0.03456,0.402922 -0.10994,0.755304 -0.234374,1.070312 -0.1106,0.300364 -0.278804,0.535114 -0.5,0.710938 -0.20737,0.17582 -0.482508,0.261718 -0.828126,0.261718 -0.352532,0 -0.636378,-0.0859 -0.84375,-0.261718 -0.214284,-0.17582 -0.382476,-0.410578 -0.5,-0.710938 -0.11062,-0.300356 -0.189,-0.651764 -0.230468,-1.054688 -0.03456,-0.410248 -0.05078,-0.851456 -0.05078,-1.320312 0,-0.461528 0.0162,-0.893954 0.05078,-1.296876 0.04148,-0.402924 0.11988,-0.754326 0.230468,-1.054686 0.1175,-0.307688 0.285716,-0.55074 0.5,-0.726564 0.207372,-0.17584 0.491218,-0.261718 0.84375,-0.261718 z m -9.14453,0.16406 c 0.546058,-0.0046 0.9759,0.11856 1.30078,0.359376 0.331792,0.233296 0.496094,0.580392 0.496094,1.152344 0,0.602056 -0.1643,0.966784 -0.496094,1.222656 -0.331792,0.24081 -0.83252,0.322522 -1.480468,0.371094 l -0.875,0 0,-3.082032 c 0.35861,-0.0198 0.761714,-0.02104 1.054688,-0.02344 z"
     id="path20"
     sodipodi:nodetypes="scscscscsccccccccccccccscscccscccscccscccscccsccsccccc" />
  <path
     style="opacity:1;fill:#ffffff;fill-opacity:1;stroke:none;stroke-width:0.5;stroke-linecap:round;stroke-linejoin:round;stroke-miterlimit:4;stroke-dasharray:none;stroke-opacity:0.1375"
     d="m 24,15 0,25 2,0 0,-12 15.999999,0 L 35.500042,22.5 42,17 26,17 26,15 Z"
     id="rect4148"
     inkscape:connector-curvature="0"
     sodipodi:nodetypes="cccccccccc" />
</svg>
