<?xml version="1.0" encoding="UTF-8" standalone="no"?>
<svg
   xmlns:dc="http://purl.org/dc/elements/1.1/"
   xmlns:cc="http://creativecommons.org/ns#"
   xmlns:rdf="http://www.w3.org/1999/02/22-rdf-syntax-ns#"
   xmlns:svg="http://www.w3.org/2000/svg"
   xmlns="http://www.w3.org/2000/svg"
   xmlns:sodipodi="http://sodipodi.sourceforge.net/DTD/sodipodi-0.dtd"
   xmlns:inkscape="http://www.inkscape.org/namespaces/inkscape"
   width="64px"
   height="64px"
   viewBox="0 0 64 64"
   version="1.1"
   id="svg2"
   inkscape:version="0.91 r13725"
   sodipodi:docname="text-x-gettext-translation-template.svg">
  <metadata
     id="metadata27">
    <rdf:RDF>
      <cc:Work
         rdf:about="">
        <dc:format>image/svg+xml</dc:format>
        <dc:type
           rdf:resource="http://purl.org/dc/dcmitype/StillImage" />
        <dc:title />
      </cc:Work>
    </rdf:RDF>
  </metadata>
  <defs
     id="defs25" />
  <sodipodi:namedview
     pagecolor="#ffffff"
     bordercolor="#666666"
     borderopacity="1"
     objecttolerance="10"
     gridtolerance="10"
     guidetolerance="10"
     inkscape:pageopacity="0"
     inkscape:pageshadow="2"
     inkscape:window-width="1366"
     inkscape:window-height="704"
     id="namedview23"
     showgrid="false"
     inkscape:zoom="1"
     inkscape:cx="30.485578"
     inkscape:cy="6.47843"
     inkscape:window-x="0"
     inkscape:window-y="27"
     inkscape:window-maximized="1"
     inkscape:current-layer="svg2">
    <inkscape:grid
       type="xygrid"
       id="grid4143" />
  </sodipodi:namedview>
  <g
     id="surface1">
    <path
       style="stroke:none;fill-rule:nonzero;fill:#dda06a;fill-opacity:1"
       d="M 10.6875 0 C 9.3125 0 8 1.378906 8 2.8125 L 8 61.1875 C 8 62.539062 9.390625 64 10.6875 64 L 53.3125 64 C 54.609375 64 56 62.539062 56 61.1875 L 56 2.75 C 56 1.402344 54.597656 0 53.25 0 Z M 10.6875 0 "
       id="path5" />
  </g>
  <path
     style="fill:#000000;fill-opacity:0.19599998"
     d="M 8,48 8,61.335938 C 8,62.632814 9.375,64 10.664062,64 l 42.671876,0 C 54.625,64 56,62.632814 56,61.335938 L 56,48 Z"
     id="path3025"
     inkscape:connector-curvature="0" />
  <path
     inkscape:connector-curvature="0"
     style="fill:#ffffff;fill-opacity:1"
     d="m 32.21582,51.011718 c -1.258054,2e-6 -2.242377,0.456871 -2.953776,1.390557 -0.703911,0.917583 -1.053711,2.287686 -1.053711,4.098714 0,1.819077 0.338414,3.186488 1.019857,4.120172 0.696423,0.917585 1.698318,1.377682 3.008789,1.377682 1.265541,0 2.253121,-0.460097 2.949544,-1.377682 0.688937,-0.933684 1.041016,-2.301095 1.041016,-4.120172 -2e-6,-1.811025 -0.342647,-3.181131 -1.024088,-4.098714 -0.681449,-0.933684 -1.677162,-1.390557 -2.987631,-1.390557 z m 5.200847,0 0,2.101282 2.607999,0 0,8.898718 2.085334,0 0,-8.898718 2.89,0 0,-2.101282 z m -15.352866,0.01297 C 21.018878,51.016552 20.016054,51.15143 19,51.277813 l 0,10.733905 2.127,0 0,-3.570816 0.877558,0 c 1.445262,0 2.551609,-0.369378 3.330403,-0.939913 0.793771,-0.578797 1.184895,-1.525556 1.184895,-2.815451 -2e-6,-1.281628 -0.393403,-2.236023 -1.172199,-2.798282 -0.778791,-0.570535 -1.868589,-0.85163 -3.283856,-0.862663 z m 10.152019,1.806868 c 0.381909,0 0.740558,0.09438 0.972695,0.287553 0.224653,0.193175 0.396466,0.451107 0.516276,0.781116 0.13481,0.330014 0.21645,0.717169 0.253905,1.175965 0.04492,0.442696 0.07618,0.917808 0.07618,1.424894 0,0.515138 -0.03124,0.99078 -0.07618,1.433477 -0.03744,0.442696 -0.119102,0.829862 -0.253905,1.175965 -0.119817,0.330014 -0.302038,0.587937 -0.541667,0.781117 -0.224651,0.193176 -0.572885,0.287553 -0.947304,0.287553 -0.38191,0 -0.738992,-0.09438 -0.963645,-0.287553 -0.232141,-0.193176 -0.414349,-0.451107 -0.541667,-0.781117 -0.119838,-0.330004 -0.20475,-0.716101 -0.249673,-1.158798 -0.03744,-0.450745 -0.05501,-0.935506 -0.05501,-1.450644 0,-0.507086 0.01755,-0.982198 0.05501,-1.424894 0.04494,-0.442697 0.12987,-0.828787 0.249673,-1.158796 0.127292,-0.338061 0.309526,-0.605105 0.541667,-0.798285 0.224653,-0.193198 0.581735,-0.287553 0.963645,-0.287553 z m -9.906575,0.180254 c 0.591563,-0.0051 1.057225,0.130264 1.409179,0.394851 0.359441,0.256326 0.537435,0.637684 0.537435,1.266095 0,0.661487 -0.177992,1.062218 -0.537435,1.343348 -0.359442,0.264581 -0.901897,0.354359 -1.603841,0.407725 l -0.987583,0 0,-3.386267 c 0.388494,-0.02175 0.864857,-0.02312 1.182245,-0.02575 z"
     id="path20"
     sodipodi:nodetypes="scscscscsccccccccccccccscscccscccscccscccscccsccsccccc" />
  <path
     style="opacity:1;fill:#ffffff;fill-opacity:1;stroke:none;stroke-width:0.5;stroke-linecap:round;stroke-linejoin:round;stroke-miterlimit:4;stroke-dasharray:none;stroke-opacity:0.1375"
     d="m 24,15 0,25 2,0 0,-12 15.999999,0 L 35.500042,22.5 42,17 26,17 26,15 Z"
     id="rect4148"
     inkscape:connector-curvature="0"
     sodipodi:nodetypes="cccccccccc" />
</svg>
