
<svg xmlns="http://www.w3.org/2000/svg" xmlns:xlink="http://www.w3.org/1999/xlink" width="64px" height="64px" viewBox="0 0 64 64" version="1.1">
<g id="surface1">
<path style=" stroke:none;fill-rule:nonzero;fill:rgb(17.647059%,17.647059%,17.647059%);fill-opacity:1;" d="M 10.671875 0 C 9.296875 0 8 1.355469 8 2.789062 L 8 61.210938 C 8 62.566406 9.375 64 10.671875 64 L 53.328125 64 C 54.625 64 56 62.566406 56 61.210938 L 56 18 L 38 0 Z M 10.671875 0 "/>
<path style=" stroke:none;fill-rule:nonzero;fill:rgb(0%,0%,0%);fill-opacity:0.196078;" d="M 42 18 L 56 32 L 56 18 Z M 42 18 "/>
<path style=" stroke:none;fill-rule:nonzero;fill:rgb(100%,100%,100%);fill-opacity:0.392157;" d="M 38 0 L 55.984375 18 L 40.757812 18 C 39.410156 18 38 16.574219 38 15.226562 Z M 38 0 "/>
<path style=" stroke:none;fill-rule:nonzero;fill:rgb(86.27451%,86.27451%,86.27451%);fill-opacity:1;" d="M 16 37.1875 C 16 36.148438 16.1875 35.121094 16.554688 34.105469 C 16.921875 33.082031 17.453125 32.167969 18.148438 31.363281 C 18.859375 30.5625 19.71875 29.910156 20.726562 29.414062 C 21.742188 28.917969 22.898438 28.664062 24.203125 28.664062 C 25.734375 28.664062 27.054688 29.011719 28.164062 29.699219 C 29.289062 30.390625 30.117188 31.292969 30.648438 32.398438 L 28.085938 34.15625 C 27.898438 33.671875 27.648438 33.273438 27.34375 32.949219 C 27.03125 32.613281 26.695312 32.351562 26.328125 32.15625 C 25.976562 31.964844 25.601562 31.824219 25.21875 31.75 C 24.828125 31.652344 24.460938 31.601562 24.109375 31.601562 C 23.320312 31.601562 22.625 31.773438 22.03125 32.109375 C 21.4375 32.449219 20.9375 32.886719 20.539062 33.429688 C 20.148438 33.964844 19.851562 34.574219 19.640625 35.257812 C 19.453125 35.9375 19.351562 36.613281 19.351562 37.285156 C 19.351562 38.039062 19.46875 38.769531 19.695312 39.472656 C 19.929688 40.167969 20.265625 40.777344 20.679688 41.300781 C 21.117188 41.835938 21.632812 42.261719 22.226562 42.578125 C 22.820312 42.902344 23.46875 43.0625 24.179688 43.0625 C 24.546875 43.0625 24.929688 43.015625 25.3125 42.921875 C 25.703125 42.820312 26.070312 42.667969 26.421875 42.457031 C 26.796875 42.253906 27.132812 41.988281 27.4375 41.664062 C 27.742188 41.328125 27.992188 40.929688 28.1875 40.464844 L 30.914062 42.027344 C 30.65625 42.667969 30.273438 43.238281 29.78125 43.734375 C 29.296875 44.214844 28.742188 44.628906 28.109375 44.964844 C 27.484375 45.300781 26.828125 45.554688 26.132812 45.734375 C 25.445312 45.910156 24.757812 46 24.085938 46 C 22.890625 46 21.796875 45.746094 20.804688 45.230469 C 19.820312 44.71875 18.96875 44.050781 18.242188 43.230469 C 17.539062 42.394531 16.984375 41.453125 16.578125 40.414062 C 16.195312 39.355469 16 38.28125 16 37.1875 "/>
<path style=" stroke:none;fill-rule:nonzero;fill:rgb(86.27451%,86.27451%,86.27451%);fill-opacity:1;" d="M 40 38 L 36 38 L 36 42 L 34 42 L 34 38 L 30 38 L 30 36 L 34 36 L 34 32 L 36 32 L 36 36 L 40 36 "/>
<path style=" stroke:none;fill-rule:nonzero;fill:rgb(86.27451%,86.27451%,86.27451%);fill-opacity:1;" d="M 52 36 L 52 38 L 48 38 L 48 42 L 46 42 L 46 38 L 42 38 L 42 36 L 46 36 L 46 32 L 48 32 L 48 36 L 50 36 "/>
</g>
</svg>
