<?xml version="1.0" encoding="UTF-8" standalone="no"?>
<svg
   xmlns:dc="http://purl.org/dc/elements/1.1/"
   xmlns:cc="http://creativecommons.org/ns#"
   xmlns:rdf="http://www.w3.org/1999/02/22-rdf-syntax-ns#"
   xmlns:svg="http://www.w3.org/2000/svg"
   xmlns="http://www.w3.org/2000/svg"
   xmlns:sodipodi="http://sodipodi.sourceforge.net/DTD/sodipodi-0.dtd"
   xmlns:inkscape="http://www.inkscape.org/namespaces/inkscape"
   width="64px"
   height="64px"
   viewBox="0 0 64 64"
   version="1.1"
   id="svg2"
   inkscape:version="0.91 r"
   sodipodi:docname="text-x-c++hdr.svg">
  <metadata
     id="metadata39">
    <rdf:RDF>
      <cc:Work
         rdf:about="">
        <dc:format>image/svg+xml</dc:format>
        <dc:type
           rdf:resource="http://purl.org/dc/dcmitype/StillImage" />
        <dc:title></dc:title>
      </cc:Work>
    </rdf:RDF>
  </metadata>
  <defs
     id="defs37">
    <clipPath
       id="clipPath-889157936">
      <g
         id="g17"
         transform="translate(0,-1004.3622)">
        <path
           id="path19"
           transform="matrix(15.333333,0,0,11.5,414.99999,878.8622)"
           d="m -24,13 c 0,1.105 -0.672,2 -1.5,2 -0.828,0 -1.5,-0.895 -1.5,-2 0,-1.105 0.672,-2 1.5,-2 0.828,0 1.5,0.895 1.5,2 z"
           inkscape:connector-curvature="0"
           style="fill:#1890d0" />
      </g>
    </clipPath>
  </defs>
  <sodipodi:namedview
     pagecolor="#ffffff"
     bordercolor="#666666"
     borderopacity="1"
     objecttolerance="10"
     gridtolerance="10"
     guidetolerance="10"
     inkscape:pageopacity="0"
     inkscape:pageshadow="2"
     inkscape:window-width="1920"
     inkscape:window-height="1056"
     id="namedview35"
     showgrid="true"
     inkscape:zoom="1.4142136"
     inkscape:cx="74.127853"
     inkscape:cy="-188.5819"
     inkscape:window-x="0"
     inkscape:window-y="24"
     inkscape:window-maximized="1"
     inkscape:current-layer="svg2">
    <inkscape:grid
       type="xygrid"
       id="grid4235" />
  </sodipodi:namedview>
  <path
     inkscape:connector-curvature="0"
     id="path5"
     d="M 10.671875,0 C 9.296875,0 8,1.355469 8,2.789062 L 8,61.210938 C 8,62.566406 9.375,64 10.671875,64 l 42.65625,0 C 54.625,64 56,62.566406 56,61.210938 L 56,18 38,0 Z m 0,0"
     style="fill:#dcdcdc;fill-opacity:1;fill-rule:nonzero;stroke:none" />
  <path
     inkscape:connector-curvature="0"
     id="path7"
     d="m 42,18 14,14 0,-14 z m 0,0"
     style="fill:#000000;fill-opacity:0.19607801;fill-rule:nonzero;stroke:none" />
  <path
     inkscape:connector-curvature="0"
     id="path9"
     d="M 38,0 55.984375,18 40.757812,18 C 39.410156,18 38,16.574219 38,15.226562 Z m 0,0"
     style="fill:#ffffff;fill-opacity:0.39215698;fill-rule:nonzero;stroke:none" />
  <g
     transform="matrix(1.1281142,0,0,1.0548883,-5.8481034,3.546295)"
     style="font-style:normal;font-variant:normal;font-weight:normal;font-stretch:normal;font-size:32.66667175px;line-height:125%;font-family:Ubuntu;-inkscape-font-specification:Ubuntu;letter-spacing:0px;word-spacing:0px;fill:#3e3e3e;fill-opacity:1;stroke:none;stroke-width:1px;stroke-linecap:butt;stroke-linejoin:miter;stroke-opacity:1"
     id="text4137">
    <path
       d="m 29.708668,39.296772 -3.546048,0 0,-8.600132 c 0,-1.179452 -0.211771,-2.061604 -0.582177,-2.646457 -0.360659,-0.594601 -1.182418,-0.989017 -2.124352,-0.989017 -0.713996,0 -1.389944,0.230245 -1.717019,0.464186 -0.371619,0.265802 -0.580948,0.56382 -0.814889,1.021955 -0.233941,0.458134 -0.39965,1.023492 -0.497125,1.696072 -0.09748,0.672581 -0.173628,1.421846 -0.173628,2.310168 l 0,6.743225 -3.54581,0 0,-22.750763 3.5458,0 0,9.442569 c 0.477631,-0.848037 1.143518,-1.457259 1.884331,-1.827665 0.740813,-0.380154 1.640608,-0.554072 2.576372,-0.554072 0.809045,0 1.264473,0.100813 1.917559,0.334753 0.662833,0.224194 1.22819,0.579979 1.696072,1.067356 0.467882,0.487377 0.828541,1.11122 1.081977,1.871528 0.253436,0.75056 0.298937,1.652208 0.298937,2.704943 z"
       style="font-style:normal;font-variant:normal;font-weight:bold;font-stretch:normal;font-family:'Droid Sans';-inkscape-font-specification:'Droid Sans Bold';fill:#3e3e3e;fill-opacity:1"
       id="path4142"
       inkscape:connector-curvature="0"
       sodipodi:nodetypes="ccscsssssccccccscscsc" />
  </g>
  <g
     id="g53"
     clip-path="url(#clipPath-889157936)"
     transform="matrix(1.3333062,0,0,1.3333062,56.000163,3.9985596)">
    <!-- color: #aade54 -->
    <g
       id="g55" />
  </g>
  <path
     inkscape:connector-curvature="0"
     style="fill:#3e3e3e;fill-opacity:1;fill-rule:nonzero;stroke:none"
     d="m 40,38 -4,0 0,4 -2,0 0,-4 -4,0 0,-2 4,0 0,-4 2,0 0,4 4,0"
     id="path4154" />
  <path
     inkscape:connector-curvature="0"
     style="fill:#3e3e3e;fill-opacity:1;fill-rule:nonzero;stroke:none"
     d="m 52,36 0,2 -4,0 0,4 -2,0 0,-4 -4,0 0,-2 4,0 0,-4 2,0 0,4 2,0"
     id="path4156" />
</svg>
