<svg width="64" xmlns="http://www.w3.org/2000/svg" height="64" viewBox="0 0 64 64" xmlns:xlink="http://www.w3.org/1999/xlink">
<defs>
<linearGradient gradientTransform="matrix(1.5 0 0 1.55556 -5 -2.44444)" id="linear0" y1="13.571" x1="25.556" y2="5.857" gradientUnits="userSpaceOnUse" x2="33.556">
<stop offset="0" style="stop-color:#000"/>
<stop offset="1" style="stop-color:#000;stop-opacity:0"/>
</linearGradient>
<radialGradient cx="24" cy="24" gradientTransform="matrix(2.04444 .71111 -.81452 2.34173 2.48173 -41.26831)" id="radial0" r="15" gradientUnits="userSpaceOnUse">
<stop offset="0" style="stop-color:#e4e5e2"/>
<stop offset=".5" style="stop-color:#d6d9d2"/>
<stop offset="1" style="stop-color:#b7beb1"/>
</radialGradient>
</defs>
<path style="fill:url(#radial0)" d="M 13.804688 5.335938 C 12.820312 5.4375 11.996094 6.355469 12 7.335938 L 12 56.667969 C 12 57.714844 12.957031 58.667969 14.011719 58.667969 L 49.988281 58.667969 C 51.042969 58.667969 52 57.714844 52 56.667969 L 52 12 L 42.667969 5.332031 L 14.011719 5.335938 C 13.941406 5.332031 13.871094 5.332031 13.804688 5.335938 Z "/>
<path style="fill:url(#linear0)" d="M 42.667969 5.332031 L 42.667969 12 L 52 12 L 52 10 L 44.5 5.332031 Z "/>
<path style="fill:#4d9a05" d="M 28 18.667969 L 36 18.667969 L 36 29.332031 L 40 29.332031 L 32 37.332031 L 24 29.332031 L 28 29.332031 Z "/>
<path style="fill:#545653;fill-opacity:.373" d="M 23.167969 39.332031 C 21.769531 39.332031 20.667969 40.511719 20.667969 42 C 20.667969 43.488281 21.769531 44.667969 23.167969 44.667969 L 36 44.667969 L 36 40 C 36 39.769531 36.03125 39.546875 36.082031 39.332031 Z "/>
<path style="fill:none;stroke:#4d9a05;stroke-width:.975" d="M 17.378906 29.487305 L 30.621094 29.487305 C 31.664062 29.487305 32.510742 30.389648 32.510742 31.5 C 32.510742 32.613281 31.664062 33.512695 30.621094 33.512695 L 17.378906 33.512695 C 16.335938 33.512695 15.489258 32.613281 15.489258 31.5 C 15.489258 30.389648 16.335938 29.487305 17.378906 29.487305 Z " transform="scale(1.33333)"/>
</svg>
