<svg width="64" xmlns="http://www.w3.org/2000/svg" height="64" viewBox="0 0 64 64" xmlns:xlink="http://www.w3.org/1999/xlink">
<defs>
<linearGradient gradientTransform="matrix(1.5 0 0 1.55556 -5 -2.44444)" id="linear0" y1="13.571" x1="25.556" y2="5.857" gradientUnits="userSpaceOnUse" x2="33.556">
<stop offset="0" style="stop-color:#000"/>
<stop offset="1" style="stop-color:#000;stop-opacity:0"/>
</linearGradient>
<radialGradient cx="24" cy="24" gradientTransform="matrix(2.04444 .71111 -.81452 2.34173 2.48173 -41.26831)" id="radial0" r="15" gradientUnits="userSpaceOnUse">
<stop offset="0" style="stop-color:#e4e5e2"/>
<stop offset=".5" style="stop-color:#d6d9d2"/>
<stop offset="1" style="stop-color:#b7beb1"/>
</radialGradient>
</defs>
<path style="fill:url(#radial0)" d="M 13.804688 5.335938 C 12.820312 5.4375 11.996094 6.355469 12 7.335938 L 12 56.667969 C 12 57.714844 12.957031 58.667969 14.011719 58.667969 L 49.988281 58.667969 C 51.042969 58.667969 52 57.714844 52 56.667969 L 52 12 L 42.667969 5.332031 L 14.011719 5.335938 C 13.941406 5.332031 13.871094 5.332031 13.804688 5.335938 Z "/>
<path style="fill:url(#linear0)" d="M 42.667969 5.332031 L 42.667969 12 L 52 12 L 52 10 L 44.5 5.332031 Z "/>
<g style="fill:#3464a3">
<path d="M 32 18.628906 C 23.898438 18.628906 17.332031 25.195312 17.332031 33.296875 C 17.332031 41.398438 23.898438 47.964844 32 47.964844 C 40.101562 47.964844 46.667969 41.398438 46.667969 33.296875 C 46.667969 25.195312 40.101562 18.628906 32 18.628906 Z M 32 22.628906 C 37.890625 22.628906 42.667969 27.40625 42.667969 33.296875 C 42.667969 39.1875 37.890625 43.964844 32 43.964844 C 26.109375 43.964844 21.332031 39.1875 21.332031 33.296875 C 21.332031 27.40625 26.109375 22.628906 32 22.628906 Z "/>
<path d="M 40 33.296875 C 40 37.714844 36.417969 41.296875 32 41.296875 C 27.582031 41.296875 24 37.714844 24 33.296875 C 24 28.878906 27.582031 25.296875 32 25.296875 C 36.417969 25.296875 40 28.878906 40 33.296875 Z "/>
</g>
</svg>
