
<svg xmlns="http://www.w3.org/2000/svg" xmlns:xlink="http://www.w3.org/1999/xlink" width="64px" height="64px" viewBox="0 0 64 64" version="1.1">
<g id="surface1">
<path style=" stroke:none;fill-rule:nonzero;fill:rgb(21.176471%,41.176471%,58.039216%);fill-opacity:1;" d="M 10.671875 0 C 9.296875 0 8 1.355469 8 2.789062 L 8 61.210938 C 8 62.566406 9.375 64 10.671875 64 L 53.328125 64 C 54.625 64 56 62.566406 56 61.210938 L 56 18 L 38 0 Z M 10.671875 0 "/>
<path style=" stroke:none;fill-rule:nonzero;fill:rgb(0%,0%,0%);fill-opacity:0.196078;" d="M 42 18 L 56 32 L 56 18 Z M 42 18 "/>
<path style=" stroke:none;fill-rule:nonzero;fill:rgb(100%,100%,100%);fill-opacity:0.392157;" d="M 38 0 L 55.984375 18 L 40.757812 18 C 39.410156 18 38 16.574219 38 15.226562 Z M 38 0 "/>
<path style=" stroke:none;fill-rule:nonzero;fill:rgb(100%,100%,100%);fill-opacity:1;" d="M 32.289062 22 C 31.203125 22.007812 30.15625 22.09375 29.242188 22.25 C 26.5625 22.71875 25.992188 22.859375 25.992188 24.664062 L 25.992188 28.664062 L 32.664062 28.664062 L 32.664062 30 L 23.320312 30 C 21.484375 30 20.28125 31.125 19.78125 33.210938 C 19.195312 35.601562 19.171875 37.085938 19.78125 39.585938 C 20.226562 41.4375 21.484375 43.335938 23.320312 43.335938 L 24.65625 43.335938 L 24.65625 39.335938 C 24.65625 37.265625 26.515625 35.335938 28.65625 35.335938 L 35.328125 35.335938 C 37.09375 35.335938 38 34.421875 38 32.664062 L 38 26 C 38 24.296875 37.296875 22.53125 35.578125 22.25 C 34.492188 22.070312 33.367188 21.992188 32.289062 22 Z M 29.992188 24.664062 C 30.734375 24.664062 31.328125 25.265625 31.328125 26 C 31.328125 26.734375 30.734375 27.335938 29.992188 27.335938 C 29.257812 27.335938 28.65625 26.734375 28.65625 26 C 28.65625 25.265625 29.257812 24.664062 29.992188 24.664062 Z M 29.992188 24.664062 "/>
<path style=" stroke:none;fill-rule:nonzero;fill:rgb(100%,100%,100%);fill-opacity:1;" d="M 31.710938 50 C 32.796875 49.992188 33.84375 49.90625 34.757812 49.75 C 37.4375 49.28125 38.007812 49.140625 38.007812 47.335938 L 38.007812 43.335938 L 31.335938 43.335938 L 31.335938 42 L 40.679688 42 C 42.515625 42 43.71875 40.875 44.21875 38.789062 C 44.804688 36.398438 44.828125 34.914062 44.21875 32.414062 C 43.773438 30.5625 42.515625 28.664062 40.679688 28.664062 L 39.34375 28.664062 L 39.34375 32.664062 C 39.34375 34.734375 37.484375 36.664062 35.34375 36.664062 L 28.671875 36.664062 C 26.90625 36.664062 26 37.578125 26 39.335938 L 26 46 C 26 47.703125 26.703125 49.46875 28.421875 49.75 C 29.507812 49.929688 30.632812 50.007812 31.710938 50 Z M 34.007812 47.335938 C 33.265625 47.335938 32.671875 46.734375 32.671875 46 C 32.671875 45.265625 33.265625 44.664062 34.007812 44.664062 C 34.742188 44.664062 35.34375 45.265625 35.34375 46 C 35.34375 46.734375 34.742188 47.335938 34.007812 47.335938 Z M 34.007812 47.335938 "/>
</g>
</svg>
