<svg width="23.75" xmlns="http://www.w3.org/2000/svg" height="23.75" viewBox="0 0 19 19" xmlns:xlink="http://www.w3.org/1999/xlink">
<defs>
<clipPath id="clip1">
<rect width="19" height="19"/>
</clipPath>
<filter width="100%" x="0" y="0" height="100%" filterUnits="objectBoundingBox" id="alpha">
<feColorMatrix values="0 0 0 0 1 0 0 0 0 1 0 0 0 0 1 0 0 0 1 0" in="SourceGraphic" type="matrix"/>
</filter>
<g style="clip-path:url(#clip1)" id="surface6">
<path style="stroke-opacity:.298;fill:#dfb188;stroke:#000;stroke-width:.5" d="M 23.901316 5.0625 L 23.782895 5.092105 C 23.763158 5.092105 23.743421 5.092105 23.723684 5.092105 C 23.644737 5.101974 23.575658 5.141447 23.496711 5.151316 C 23.259868 5.200658 23.003289 5.269737 22.776316 5.378289 C 22.746711 5.388158 22.717105 5.388158 22.6875 5.407895 L 22.5 5.496711 L 22.3125 5.654605 C 22.292763 5.674342 22.273026 5.703947 22.253289 5.723684 L 22.282895 5.753289 C 21.888158 6.009868 21.434211 6.286184 21.246711 6.503289 C 20.881579 6.9375 20.565789 7.421053 20.25 7.934211 C 19.628289 8.960526 19.036184 10.174342 18.434211 11.378289 C 17.832237 12.582237 17.25 13.786184 16.776316 14.684211 C 16.638158 14.960526 16.529605 15.138158 16.401316 15.345395 C 16.154605 15.394737 15.9375 15.453947 15.621711 15.503289 C 14.634868 15.661184 13.273026 15.828947 11.901316 16.026316 C 10.539474 16.233553 9.197368 16.460526 8.0625 16.717105 C 7.519737 16.845395 6.986842 16.953947 6.404605 17.190789 C 6.148026 17.289474 5.792763 17.4375 5.4375 17.684211 C 5.171053 17.871711 4.450658 18.453947 4.154605 19.342105 C 3.858553 20.240132 4.065789 21.098684 4.184211 21.434211 C 4.3125 21.809211 4.480263 22.164474 4.657895 22.440789 C 4.973684 22.944079 5.368421 23.348684 5.753289 23.782895 C 6.532895 24.671053 7.490132 25.648026 8.467105 26.595395 C 9.453947 27.542763 10.440789 28.440789 11.151316 29.151316 C 11.378289 29.378289 11.526316 29.536184 11.684211 29.723684 C 11.664474 29.950658 11.634868 30.177632 11.595395 30.473684 C 11.4375 31.460526 11.200658 32.792763 10.973684 34.125 C 10.736842 35.457237 10.519737 36.789474 10.401316 37.973684 C 10.351974 38.516447 10.302632 39.069079 10.342105 39.690789 C 10.371711 40.036184 10.411184 40.411184 10.529605 40.776316 C 10.628289 41.082237 10.993421 41.930921 11.753289 42.473684 C 12.513158 43.016447 13.391447 43.065789 13.717105 43.065789 C 14.082237 43.055921 14.4375 43.026316 14.782895 42.9375 C 15.394737 42.789474 15.927632 42.5625 16.440789 42.345395 C 17.299342 41.980263 18.296053 41.496711 19.282895 41.003289 L 19.973684 40.657895 C 21.197368 40.016447 22.391447 39.345395 23.279605 38.901316 C 23.575658 38.763158 23.773026 38.664474 24 38.565789 C 24.226974 38.664474 24.424342 38.763158 24.720395 38.901316 C 25.608553 39.345395 26.802632 40.016447 28.026316 40.657895 C 29.259868 41.289474 30.493421 41.891447 31.559211 42.345395 C 32.072368 42.5625 32.605263 42.789474 33.217105 42.9375 C 33.5625 43.026316 33.917763 43.055921 34.282895 43.065789 C 34.608553 43.065789 35.486842 43.016447 36.246711 42.473684 C 37.006579 41.930921 37.371711 41.082237 37.470395 40.776316 C 37.588816 40.411184 37.628289 40.036184 37.657895 39.690789 C 37.697368 39.069079 37.648026 38.516447 37.598684 37.973684 C 37.480263 36.789474 37.263158 35.457237 37.026316 34.125 C 36.799342 32.792763 36.5625 31.460526 36.404605 30.473684 C 36.365132 30.177632 36.335526 29.950658 36.315789 29.723684 C 36.473684 29.536184 36.621711 29.378289 36.848684 29.151316 C 37.559211 28.440789 38.546053 27.542763 39.532895 26.595395 C 40.509868 25.648026 41.467105 24.671053 42.246711 23.782895 C 42.631579 23.348684 43.026316 22.944079 43.342105 22.440789 C 43.519737 22.164474 43.6875 21.809211 43.815789 21.434211 C 43.934211 21.098684 44.141447 20.240132 43.845395 19.342105 C 43.549342 18.453947 42.828947 17.871711 42.5625 17.684211 C 42.207237 17.4375 41.851974 17.289474 41.595395 17.190789 C 41.013158 16.953947 40.480263 16.845395 39.9375 16.717105 C 38.802632 16.460526 37.460526 16.233553 36.098684 16.026316 C 34.726974 15.828947 33.365132 15.661184 32.378289 15.503289 C 32.0625 15.453947 31.845395 15.394737 31.598684 15.345395 C 31.470395 15.138158 31.361842 14.960526 31.223684 14.684211 C 30.75 13.786184 30.167763 12.582237 29.565789 11.378289 L 29.526316 11.309211 C 28.944079 10.134868 28.351974 8.940789 27.75 7.934211 C 27.434211 7.421053 27.118421 6.9375 26.753289 6.503289 C 26.723684 6.473684 26.486842 6.098684 26.003289 5.723684 C 25.519737 5.338816 24.789474 5.0625 24 5.0625 Z M 24 8.092105 L 24.157895 8.092105 C 24.138158 8.082237 24.177632 8.131579 24.434211 8.4375 C 24.671053 8.713816 24.927632 9.049342 25.184211 9.473684 C 25.707237 10.322368 26.269737 11.516447 26.871711 12.720395 C 27.473684 13.914474 28.065789 15.108553 28.559211 16.065789 C 28.825658 16.569079 29.072368 16.993421 29.25 17.279605 C 29.417763 17.555921 29.605263 17.733553 29.526316 17.654605 L 29.782895 17.940789 L 30.157895 18.059211 C 30.315789 18.118421 30.444079 18.167763 30.532895 18.1875 C 30.838816 18.256579 31.322368 18.375 31.904605 18.473684 C 33.009868 18.641447 34.342105 18.809211 35.654605 18.996711 C 36.967105 19.194079 38.259868 19.391447 39.276316 19.628289 C 39.819079 19.746711 40.213816 19.855263 40.5 19.973684 C 40.667763 20.032895 40.776316 20.082237 40.875 20.151316 C 41.0625 20.289474 40.953947 20.151316 41.003289 20.279605 C 41.042763 20.407895 41.032895 20.289474 40.973684 20.467105 C 40.914474 20.625 40.884868 20.694079 40.815789 20.8125 C 40.638158 21.088816 40.381579 21.424342 40.026316 21.809211 C 39.355263 22.569079 38.398026 23.506579 37.440789 24.434211 C 36.483553 25.361842 35.486842 26.259868 34.717105 27.029605 C 34.322368 27.424342 34.016447 27.789474 33.779605 28.065789 C 33.601974 28.263158 33.493421 28.460526 33.532895 28.401316 L 33.315789 28.746711 L 33.276316 29.151316 C 33.276316 29.210526 33.266447 29.358553 33.276316 29.526316 L 33.276316 29.565789 C 33.305921 29.871711 33.345395 30.335526 33.434211 30.907895 C 33.601974 31.973684 33.868421 33.315789 34.095395 34.628289 C 34.322368 35.940789 34.529605 37.243421 34.628289 38.25 C 34.677632 38.792763 34.707237 39.157895 34.6875 39.473684 C 34.677632 39.582237 34.648026 39.720395 34.598684 39.878289 C 34.519737 40.105263 34.618421 39.947368 34.5 40.026316 C 34.391447 40.105263 34.539474 40.065789 34.3125 40.065789 C 34.115132 40.055921 34.046053 40.055921 33.9375 40.026316 C 33.641447 39.957237 33.256579 39.809211 32.753289 39.592105 C 31.786184 39.1875 30.582237 38.605263 29.407895 38.003289 C 28.233553 37.391447 27.059211 36.720395 26.0625 36.217105 C 25.559211 35.970395 25.115132 35.763158 24.779605 35.625 C 24.552632 35.536184 24.355263 35.496711 24.375 35.496711 L 24 35.407895 L 23.625 35.496711 C 23.644737 35.496711 23.447368 35.526316 23.220395 35.625 C 22.884868 35.763158 22.440789 35.970395 21.9375 36.217105 C 20.940789 36.720395 19.766447 37.391447 18.592105 38.003289 C 17.417763 38.605263 16.213816 39.1875 15.246711 39.592105 C 14.743421 39.809211 14.358553 39.957237 14.0625 40.026316 C 13.953947 40.055921 13.884868 40.055921 13.6875 40.065789 C 13.460526 40.065789 13.608553 40.105263 13.5 40.026316 C 13.381579 39.947368 13.480263 40.105263 13.401316 39.878289 C 13.351974 39.720395 13.322368 39.582237 13.3125 39.473684 C 13.292763 39.157895 13.322368 38.792763 13.371711 38.25 C 13.470395 37.243421 13.677632 35.940789 13.904605 34.628289 C 14.131579 33.315789 14.398026 31.973684 14.565789 30.907895 C 14.654605 30.335526 14.694079 29.871711 14.723684 29.565789 L 14.723684 29.526316 C 14.733553 29.358553 14.723684 29.210526 14.723684 29.151316 L 14.684211 28.746711 L 14.467105 28.401316 C 14.506579 28.460526 14.398026 28.263158 14.220395 28.065789 C 13.983553 27.789474 13.677632 27.424342 13.282895 27.029605 C 12.513158 26.259868 11.516447 25.361842 10.559211 24.434211 C 9.601974 23.506579 8.644737 22.569079 7.973684 21.809211 C 7.618421 21.424342 7.361842 21.088816 7.184211 20.8125 C 7.115132 20.694079 7.085526 20.625 7.026316 20.467105 C 6.967105 20.289474 6.957237 20.407895 6.996711 20.279605 C 7.046053 20.151316 6.9375 20.289474 7.125 20.151316 C 7.223684 20.082237 7.332237 20.032895 7.5 19.973684 C 7.786184 19.855263 8.180921 19.746711 8.723684 19.628289 C 9.740132 19.391447 11.032895 19.194079 12.345395 18.996711 C 13.657895 18.809211 14.990132 18.641447 16.095395 18.473684 C 16.677632 18.375 17.161184 18.256579 17.467105 18.1875 C 17.555921 18.167763 17.684211 18.118421 17.842105 18.059211 L 18.217105 17.940789 L 18.473684 17.654605 C 18.394737 17.733553 18.582237 17.555921 18.75 17.279605 C 18.927632 16.993421 19.174342 16.569079 19.440789 16.065789 C 19.934211 15.108553 20.526316 13.914474 21.128289 12.720395 C 21.730263 11.516447 22.292763 10.322368 22.815789 9.473684 C 23.072368 9.049342 23.328947 8.713816 23.565789 8.4375 C 23.703947 8.269737 23.733553 8.220395 23.901316 8.151316 Z " transform="scale(.39583)"/>
</g>
<mask id="mask0">
<g style="filter:url(#alpha)">
<rect width="19" x="0" y="0" height="19" style="fill-opacity:.4"/>
</g>
</mask>
</defs>
<use style="mask:url(#mask0)" xlink:href="#surface6"/>
</svg>
