<svg width="23.75" xmlns="http://www.w3.org/2000/svg" height="23.75" viewBox="0 0 19 19" xmlns:xlink="http://www.w3.org/1999/xlink">
<g style="stroke-opacity:.298;stroke:#000;stroke-width:.5">
<path style="fill:#b28d6c" d="M 5.782895 37.983553 C 5.082237 37.914474 4.480263 37.213816 4.490132 36.473684 L 4.490132 7.796053 C 4.490132 6.996711 5.171053 6.276316 5.921053 6.276316 L 41.259868 6.276316 C 42.009868 6.276316 42.690789 6.996711 42.690789 7.796053 L 42.690789 33.809211 C 42.690789 34.608553 42.009868 35.328947 41.259868 35.328947 L 27.463816 35.328947 L 27.463816 36.473684 C 27.463816 37.263158 26.773026 37.983553 26.023026 37.983553 L 5.921053 37.983553 C 5.871711 37.993421 5.832237 37.993421 5.782895 37.983553 Z " transform="scale(.39583)"/>
<path style="fill:#dfb188" d="M 2.990132 16.430921 C 2.161184 16.490132 1.460526 17.042763 1.470395 17.644737 L 1.470395 40.529605 C 1.470395 41.161184 2.269737 41.743421 3.157895 41.743421 L 44.842105 41.743421 C 45.730263 41.743421 46.529605 41.161184 46.529605 40.529605 L 46.529605 19.766447 C 46.529605 19.134868 45.730263 18.552632 44.842105 18.552632 L 28.569079 18.552632 L 28.569079 17.644737 C 28.569079 17.013158 27.759868 16.430921 26.871711 16.430921 L 3.157895 16.430921 C 3.108553 16.430921 3.049342 16.430921 2.990132 16.430921 Z " transform="scale(.39583)"/>
</g>
</svg>
