<svg width="23.75" xmlns="http://www.w3.org/2000/svg" height="23.75" viewBox="0 0 19 19" xmlns:xlink="http://www.w3.org/1999/xlink">
<path style="fill:#dfb188" d="M 8.3125 7.917969 L 8.3125 14.621094 C 8.3125 14.828125 8.5 15.015625 8.707031 15.015625 L 17.019531 15.015625 C 17.226562 15.015625 17.417969 14.828125 17.417969 14.621094 L 17.417969 9.117188 C 17.417969 8.910156 17.226562 8.722656 17.019531 8.71875 L 13.890625 8.71875 L 13.890625 8.3125 C 13.890625 8.105469 13.703125 7.917969 13.496094 7.917969 Z "/>
<path style="fill:#b28d6c" d="M 2.117188 3.550781 C 1.824219 3.582031 1.582031 3.851562 1.582031 4.144531 L 1.582031 10.453125 C 1.582031 10.761719 1.867188 11.046875 2.175781 11.046875 L 7.917969 11.046875 L 7.917969 7.519531 L 11.082031 7.519531 L 11.082031 4.949219 C 11.082031 4.636719 10.800781 4.355469 10.488281 4.355469 L 7.546875 4.355469 L 7.546875 4.144531 C 7.546875 3.832031 7.261719 3.550781 6.953125 3.550781 L 2.175781 3.550781 C 2.15625 3.550781 2.136719 3.550781 2.117188 3.550781 Z "/>
</svg>
