<svg xmlns="http://www.w3.org/2000/svg" viewBox="0 0 24 24" xmlns:xlink="http://www.w3.org/1999/xlink">
<defs>
<linearGradient id="linearGradient6945">
<stop offset="0" style="stop-color:#fff"/>
<stop offset="1" style="stop-color:#d3d7cf"/>
</linearGradient>
<linearGradient gradientTransform="matrix(.52053 0 0 .52 -2.1058 -27.14)" id="linearGradient3785" y1="79.813" y2="75.499" gradientUnits="userSpaceOnUse" x2="0">
<stop offset="0" style="stop-color:#babdb6"/>
<stop offset="1" style="stop-color:#babdb6;stop-opacity:0"/>
</linearGradient>
<linearGradient gradientTransform="matrix(2.7744 0 0 1.9697 -1892.2 -872.89)" id="linearGradient10235" y1="366.65" y2="609.51" gradientUnits="userSpaceOnUse" x2="0">
<stop offset="0" style="stop-opacity:0"/>
<stop offset=".5"/>
<stop offset="1" style="stop-opacity:0"/>
</linearGradient>
<linearGradient id="linearGradient5060">
<stop offset="0"/>
<stop offset="1" style="stop-opacity:0"/>
</linearGradient>
<linearGradient gradientTransform="matrix(.52778 0 0 .52 1.5972 -19.84)" id="linearGradient3785-2" y1="79.813" y2="75.499" gradientUnits="userSpaceOnUse" x2="0">
<stop offset="0" style="stop-color:#babdb6"/>
<stop offset="1" style="stop-color:#babdb6;stop-opacity:0"/>
</linearGradient>
<radialGradient cx="13.107" cy="61.48" gradientTransform="matrix(1.3367 0 0 1.1736 -15.337 -67.583)" id="radialGradient3803" xlink:href="#linearGradient6945" r="18.5" gradientUnits="userSpaceOnUse"/>
<radialGradient cx="605.71" cy="486.65" gradientTransform="matrix(2.7744 0 0 1.9697 -1891.6 -872.89)" id="radialGradient10237" xlink:href="#linearGradient5060" r="117.14" gradientUnits="userSpaceOnUse"/>
<radialGradient cx="12.5" cy="15.928" gradientTransform="matrix(1.0627 0 0 .90795 -9.6172 -9.7767)" id="radialGradient3797" xlink:href="#linearGradient6945" r="18.5" gradientUnits="userSpaceOnUse"/>
<radialGradient cx="605.71" cy="486.65" gradientTransform="matrix(-2.7744 0 0 1.9697 112.76 -872.89)" id="radialGradient10239" xlink:href="#linearGradient5060" r="117.14" gradientUnits="userSpaceOnUse"/>
<radialGradient cx="13.107" cy="61.48" gradientTransform="matrix(1.3367 0 0 1.1736 -11.337 -60.583)" id="radialGradient3803-5" xlink:href="#linearGradient6945" r="18.5" gradientUnits="userSpaceOnUse"/>
<radialGradient cx="12.5" cy="15.928" gradientTransform="matrix(1.0627 0 0 .90795 -5.6172 -2.7767)" id="radialGradient3797-8" xlink:href="#linearGradient6945" r="18.5" gradientUnits="userSpaceOnUse"/>
</defs>
<g style="opacity:.7" transform="matrix(.01052 0 0 .00544 19.897 14.447)">
<rect width="1339.6" x="-1559.3" y="-150.7" height="478.36" style="opacity:.392;fill:url(#linearGradient10235)"/>
<path style="opacity:.402;fill:url(#radialGradient10237)" d="m-219.62-150.68v478.33c142.87 0.90045 345.4-107.17 345.4-239.2s-159.44-239.13-345.4-239.13z"/>
<path style="opacity:.402;fill:url(#radialGradient10239)" d="m-1559.3-150.68v478.33c-142.87 0.90045-345.4-107.17-345.4-239.2s159.44-239.13 345.4-239.13z"/>
</g>
<g style="fill-rule:evenodd">
<rect width="19" x=".5" y="1.5" rx=".81" ry=".798" height="13" style="stroke-opacity:.992;fill:url(#radialGradient3797);stroke:#888a85;stroke-dashoffset:.7"/>
<path style="fill:#e0b189" d="m0.76389 14.24 5.3602-5.8987c0.2478-0.2441 0.4932-0.5642 1.0391-0.78 0.5459-0.2159 1.3636-0.3413 2.8368-0.3413 1.4673-0.000001 2.2897 0.12565 2.8368 0.34125 0.54706 0.2156 0.79063 0.53523 1.0391 0.78l5.3602 5.8988-5.3602-5.3788c-1.079-1.0241-2.385-1.1815-3.876-1.1212-1.4096 0.0258-2.8839-0.0002-3.8759 1.1213l-5.3602 5.3788z"/>
<path style="fill:#fff" d="m0.76389 14.251 5.3602-4.8586c0.992-1.1214 2.4663-1.0955 3.8759-1.1212 1.4912-0.06027 2.7971 0.09706 3.8759 1.1212l5.3602 4.8588-5.3602-5.3788c-1.079-1.0242-2.385-1.1815-3.876-1.1212-1.4096 0.0257-2.8839-0.0002-3.8759 1.1212l-5.3602 5.3788z"/>
<path style="fill:url(#radialGradient3803)" d="m1.4964 2c-0.2814 0-0.4964 0.2219-0.4964 0.5124v0.7438l5.573 5.7521c0.2701 0.2788 0.4152 0.4981 0.8487 0.6777 0.4335 0.1795 1.1769 0.314 2.5783 0.314 1.396 0 2.143-0.1343 2.578-0.314 0.436-0.1798 0.579-0.3995 0.849-0.6777l5.573-5.7521v-0.7438c0-0.29053-0.21496-0.5124-0.49644-0.5124h-17.007z"/>
<path style="fill:#e0b189;fill-opacity:.996" d="m0.76389 3.06 5.3602 5.8988c0.24772 0.24407 0.49313 0.56419 1.0391 0.78 0.54593 0.21581 1.3636 0.34125 2.8368 0.34125 1.4673 0.000001 2.2897-0.12565 2.8368-0.34125 0.54706-0.2156 0.79063-0.53523 1.0391-0.78l5.36-5.8988-5.36 5.3788c-1.079 1.0241-2.385 1.1215-3.876 1.0612-1.4096-0.0258-2.8839 0.0602-3.8759-1.0612l-5.3602-5.3788z"/>
</g>
<path style="opacity:.7;stroke-opacity:.992;fill:none;stroke:#fff;stroke-linejoin:round;stroke-dashoffset:.7" d="m1.7031 2.5c-0.12827 0-0.20312 0.071603-0.20312 0.19429v10.611c0 0.12269 0.074858 0.19429 0.20312 0.19429h16.594c0.12826 0 0.20312-0.0716 0.20312-0.19429v-10.611c0-0.12269-0.07486-0.19429-0.20312-0.19429h-16.594z"/>
<path style="opacity:.556;fill:url(#linearGradient3785);fill-rule:evenodd" d="m1.0174 11.811v1.6575c0 0.27092 0.20053 0.47125 0.47173 0.47125h17.275c0.2712 0 0.47174-0.20033 0.47174-0.47125v-1.6575h-18.219z"/>
<g style="opacity:.7" transform="matrix(.01045 0 0 .00544 22.295 21.247)">
<rect width="1339.6" x="-1559.3" y="-150.7" height="478.36" style="opacity:.392;fill:url(#linearGradient10235)"/>
<path style="opacity:.402;fill:url(#radialGradient10237)" d="m-219.62-150.68v478.33c142.87 0.90045 345.4-107.17 345.4-239.2s-159.44-239.13-345.4-239.13z"/>
<path style="opacity:.402;fill:url(#radialGradient10239)" d="m-1559.3-150.68v478.33c-142.87 0.90045-345.4-107.17-345.4-239.2s159.44-239.13 345.4-239.13z"/>
</g>
<g style="fill-rule:evenodd">
<rect width="19" x="4.5" y="8.5" rx=".81" ry=".798" height="13" style="stroke-opacity:.992;fill:url(#radialGradient3797-8);stroke:#888a85;stroke-dashoffset:.7"/>
<path style="fill:#e0b189" d="m4.7639 21.24 5.3602-5.8988c0.24772-0.24407 0.49313-0.56419 1.0391-0.78 0.54593-0.21581 1.3636-0.34125 2.8368-0.34125 1.4673-0.000001 2.2897 0.12565 2.8368 0.34125 0.54706 0.2156 0.79063 0.53523 1.0391 0.78l5.3602 5.8988-5.3602-5.3788c-1.0788-1.0242-2.3846-1.1815-3.8759-1.1212-1.4096 0.02576-2.8839-0.000172-3.8759 1.1212l-5.3602 5.3788z"/>
<path style="fill:#fff" d="m4.7639 21.251 5.3602-4.8588c0.99193-1.1214 2.4663-1.0955 3.8759-1.1212 1.4912-0.06027 2.7971 0.09706 3.8759 1.1212l5.3602 4.8588-5.3602-5.3788c-1.0788-1.0242-2.3846-1.1815-3.8759-1.1212-1.4096 0.02576-2.8839-0.000172-3.8759 1.1212l-5.3602 5.3788z"/>
<path style="fill:url(#radialGradient3803-5)" d="m5.4964 9c-0.28148 0-0.49644 0.22187-0.49644 0.5124v0.7438l5.573 5.7521c0.27018 0.27886 0.41521 0.49815 0.84875 0.67769 0.433 0.179 1.177 0.314 2.578 0.314 1.3955 0 2.143-0.13433 2.5783-0.31405 0.43531-0.17972 0.57918-0.39945 0.84875-0.67769l5.573-5.7521v-0.7438c0-0.29053-0.21496-0.5124-0.49644-0.5124h-17.007z"/>
<path style="fill:#e0b189;fill-opacity:.996" d="m4.7639 10.06 5.3602 5.8988c0.24772 0.24407 0.49313 0.56419 1.0391 0.78 0.54593 0.21581 1.3636 0.34125 2.8368 0.34125 1.4673 0.000001 2.2897-0.12565 2.8368-0.34125 0.54706-0.2156 0.79063-0.53523 1.0391-0.78l5.3602-5.8988-5.3602 5.3788c-1.079 1.024-2.385 1.121-3.876 1.061-1.41-0.026-2.884 0.06-3.876-1.061l-5.3602-5.3788z"/>
</g>
<path style="opacity:.7;stroke-opacity:.992;fill:none;stroke:#fff;stroke-linejoin:round;stroke-dashoffset:.7" d="m5.7031 9.5c-0.12827 0-0.20312 0.071603-0.20312 0.19429v10.611c0 0.12269 0.074858 0.19429 0.20312 0.19429h16.594c0.12827 0 0.20312-0.0716 0.20312-0.19429v-10.611c0-0.12269-0.07486-0.19429-0.20312-0.19429h-16.594z"/>
<path style="opacity:.556;fill:url(#linearGradient3785-2);fill-rule:evenodd" d="m4.7639 19.111v1.6575c0 0.27092 0.20332 0.47125 0.4783 0.47125h17.516c0.27498 0 0.4783-0.20033 0.4783-0.47125v-1.6575h-18.472z"/>
</svg>
