<svg xmlns="http://www.w3.org/2000/svg" viewBox="0 0 24 24" xmlns:xlink="http://www.w3.org/1999/xlink">
<defs>
<linearGradient id="linearGradient3487">
<stop offset="0" style="stop-color:#e6cde2"/>
<stop offset="1" style="stop-color:#e6cde2;stop-opacity:0"/>
</linearGradient>
<linearGradient id="aigrd1" y1="11.188" y2="34.307" x1="14.997" gradientUnits="userSpaceOnUse" x2="32.511">
<stop offset="0" style="stop-color:#ebebeb"/>
<stop offset=".5" style="stop-color:#fff"/>
<stop offset="1" style="stop-color:#ebebeb"/>
</linearGradient>
<linearGradient spreadMethod="reflect" id="linearGradient3900" xlink:href="#linearGradient3503" y1="13.046" y2="10.732" x1="14.085" gradientUnits="userSpaceOnUse" x2="16.994"/>
<linearGradient spreadMethod="reflect" id="linearGradient3898" xlink:href="#linearGradient3495" y1="11.2" y2="9.796" x1="17.495" gradientUnits="userSpaceOnUse" x2="21.047"/>
<linearGradient id="linearGradient3495">
<stop offset="0" style="stop-color:#c1cbe4"/>
<stop offset="1" style="stop-color:#c1cbe4;stop-opacity:0"/>
</linearGradient>
<linearGradient id="linearGradient3503">
<stop offset="0" style="stop-color:#c4ebdd"/>
<stop offset="1" style="stop-color:#c4ebdd;stop-opacity:0"/>
</linearGradient>
<linearGradient id="linearGradient3511">
<stop offset="0" style="stop-color:#ebeec7"/>
<stop offset="1" style="stop-color:#ebeec7;stop-opacity:0"/>
</linearGradient>
<linearGradient id="linearGradient3519">
<stop offset="0" style="stop-color:#fcd9cd"/>
<stop offset="1" style="stop-color:#fcd9cd;stop-opacity:0"/>
</linearGradient>
<linearGradient id="aigrd2" y1="32.416" y2="14.203" x1="12.274" gradientUnits="userSpaceOnUse" x2="35.391">
<stop offset="0" style="stop-color:#fbfbfb"/>
<stop offset=".5" style="stop-color:#b6b6b6"/>
<stop offset="1" style="stop-color:#e4e4e4"/>
</linearGradient>
<linearGradient spreadMethod="reflect" id="linearGradient3902" xlink:href="#linearGradient3511" y1="16.188" y2="13.462" x1="12.372" gradientUnits="userSpaceOnUse" x2="14.609"/>
<linearGradient spreadMethod="reflect" id="linearGradient3904" xlink:href="#linearGradient3519" y1="17.886" y2="20.613" x1="10.609" gradientUnits="userSpaceOnUse" x2="9.73"/>
<linearGradient spreadMethod="reflect" id="linearGradient3896" xlink:href="#linearGradient3487" y1="10.775" y2="9.862" x1="20.58" gradientUnits="userSpaceOnUse" x2="24.274"/>
<linearGradient id="linearGradient6028">
<stop offset="0" style="stop-color:#fff"/>
<stop offset="1" style="stop-color:#fff;stop-opacity:0"/>
</linearGradient>
<linearGradient gradientTransform="matrix(.39999 0 0 .39999 2.3977 3.7628)" id="linearGradient3918" xlink:href="#aigrd1" y1="11.188" y2="34.307" x1="14.997" gradientUnits="userSpaceOnUse" x2="32.511"/>
<linearGradient gradientTransform="matrix(.42857 0 0 .42857 1.7147 3.0996)" id="linearGradient3920" xlink:href="#aigrd2" y1="32.416" y2="14.203" x1="12.274" gradientUnits="userSpaceOnUse" x2="35.391"/>
<linearGradient gradientTransform="matrix(.32832 0 0 .32832 4.0068 4.7915)" id="linearGradient3922" xlink:href="#linearGradient6028" y1="3.61" y2="54.698" x1="10.502" gradientUnits="userSpaceOnUse" x2="48.799"/>
<linearGradient id="linearGradient3924" xlink:href="#linearGradient6028" y1="31.495" y2="18.367" x1="28.703" gradientUnits="userSpaceOnUse" x2="17.743"/>
<radialGradient cx="23.335" cy="41.636" gradientTransform="matrix(.40725 0 0 .15467 .2441 14.06)" id="radialGradient2953" r="22.627" gradientUnits="userSpaceOnUse">
<stop offset="0"/>
<stop offset="1" style="stop-opacity:0"/>
</radialGradient>
<radialGradient cx="23.335" cy="41.636" gradientTransform="matrix(.36301 -.32335 .10287 .11549 4.099 18.933)" id="radialGradient2953-3" r="22.627" gradientUnits="userSpaceOnUse">
<stop offset="0"/>
<stop offset="1" style="stop-opacity:0"/>
</radialGradient>
</defs>
<g style="fill-rule:evenodd">
<path style="opacity:.3;fill:url(#radialGradient2953-3)" d="m25.067 8.8797c1.2861 1.443-1.3492 5.889-5.8859 9.93-4.5367 4.0411-9.2567 6.1467-10.542 4.703-1.2861-1.443 1.3492-5.889 5.8859-9.93 4.5367-4.0411 9.2567-6.1467 10.542-4.703z"/>
<path style="opacity:.3;fill:url(#radialGradient2953)" d="m18.962 20.5c0.001 1.933-4.125 3.5-9.2148 3.5-5.0897 0-9.2156-1.567-9.2151-3.5-0.0005-1.933 4.1254-3.5 9.2151-3.5s9.2156 1.5671 9.2151 3.5z"/>
</g>
<g transform="translate(2.9996 -3.9996)">
<path style="fill:url(#linearGradient3918)" d="m11.997 6.0027c-3.8799 0-6.9998 3.1199-6.9998 6.9998s3.1199 6.9998 6.9998 6.9998 6.9998-3.1199 6.9998-6.9998-3.1199-6.9998-6.9998-6.9998zm0 8.6798c-0.91998 0-1.68-0.75998-1.68-1.68 0-0.91998 0.75998-1.68 1.68-1.68 0.91998 0 1.68 0.75998 1.68 1.68 0 0.91998-0.75998 1.68-1.68 1.68z"/>
<path style="fill:url(#linearGradient3920);stroke:#808080" d="m12 5.4996c-4.1571 0-7.5 3.3429-7.5 7.5s3.3429 7.5 7.5 7.5 7.5-3.3429 7.5-7.5-3.3429-7.5-7.5-7.5zm0 9.3c-0.98572 0-1.8-0.81429-1.8-1.8s0.81428-1.8 1.8-1.8c0.98571 0 1.8 0.81429 1.8 1.8 0 0.98572-0.81428 1.8-1.8 1.8z"/>
<path style="opacity:.511;fill:#e0b189" d="m12.001 9.0844c-2.1863 0-3.915 1.7795-3.915 3.915 0 2.1863 1.7795 3.915 3.915 3.915 2.1863 0 3.915-1.7795 3.915-3.915 0-2.1863-1.7795-3.915-3.915-3.915zm0 6.0504c-1.1694 0-2.1354-0.96603-2.1354-2.1354s0.96603-2.1354 2.1354-2.1354 2.1354 0.96603 2.1354 2.1354-0.96603 2.1354-2.1354 2.1354z"/>
</g>
<g style="fill:none" transform="translate(2.9996 -3.9996)">
<path style="opacity:.546;stroke:url(#linearGradient3922)" d="m12 6.4995c-3.6029 0-6.5 2.8971-6.5 6.5s2.8971 6.5 6.5 6.5 6.5-2.8971 6.5-6.5-2.8971-6.5-6.5-6.5z"/>
<path style="opacity:.672;stroke:url(#linearGradient3924);stroke-width:2.292" d="m30.406 24.931a6.0988 6.0988 0 1 1 -12.198 0 6.0988 6.0988 0 1 1 12.198 0z" transform="matrix(.40604 0 0 .40604 2.1478 2.8832)"/>
</g>
<g transform="matrix(.34867 0 0 .34867 6.813 .51275)">
<path style="fill:url(#linearGradient3896)" d="m15.857 5.7308 4.768 10.613c1.035-0.459 2.17-0.719 3.375-0.719 0.03206 0 0.06178-0.00036 0.09375 0l0.014-11.62c-2.9422-0.070687-5.543 0.65729-8.2511 1.726h0.000001z" transform="matrix(.9996 .02824 -.02824 .9996 .69241 -.67083)"/>
<path style="fill:url(#linearGradient3898)" d="m12.121 7.906 6.931 9.3601c0.91311-0.66976 1.9659-1.1671 3.1426-1.4252 0.03132-0.0069 0.06026-0.01359 0.09157-0.02009l-2.429-11.395c-2.889 0.56132-5.3195 1.8556-7.7357 3.4797z"/>
<path style="fill:url(#linearGradient3900)" d="m8.2524 11.647 9.2137 7.1558c0.70865-0.88326 1.5969-1.6361 2.6667-2.19 0.02847-0.01474 0.05469-0.02872 0.08325-0.0431l-5.35-10.319c-2.645 1.2895-4.7 3.2014-6.6136 5.396z"/>
<path style="fill:url(#linearGradient3902)" d="m5.6329 16.074c7.1748 2.2422 7.8503 7.0315 12.777 1.7541l-7.91-8.6959c-2.2213 1.9309-3.5867 4.3269-4.8671 6.9419z"/>
<path style="fill:url(#linearGradient3904)" d="m7.1553 13.193c-1.1831 1.752-1.9077 3.637-2.5251 5.644l11.339 2.975c0.215-0.763 0.518-1.514 0.969-2.218 0.017-0.027 0.044-0.067 0.062-0.094l-9.8447-6.307z"/>
</g>
<g transform="matrix(-.34867 0 0 -.34867 23.549 17.246)">
<path style="fill:url(#linearGradient3896)" d="m15.857 5.7308 4.768 10.613c1.035-0.459 2.17-0.719 3.375-0.719 0.03206 0 0.06178-0.00036 0.09375 0l0.014-11.62c-2.9422-0.070687-5.543 0.65729-8.2511 1.726h0.000001z" transform="matrix(.9996 .02824 -.02824 .9996 .69241 -.67083)"/>
<path style="fill:url(#linearGradient3898)" d="m12.121 7.906 6.931 9.3601c0.91311-0.66976 1.9659-1.1671 3.1426-1.4252 0.03132-0.0069 0.06026-0.01359 0.09157-0.02009l-2.429-11.395c-2.889 0.56132-5.3195 1.8556-7.7357 3.4797z"/>
<path style="fill:url(#linearGradient3900)" d="m8.2524 11.647 9.2137 7.1558c0.70865-0.88326 1.5969-1.6361 2.6667-2.19 0.02847-0.01474 0.05469-0.02872 0.08325-0.0431l-5.35-10.319c-2.645 1.2895-4.7 3.2014-6.6136 5.396z"/>
<path style="fill:url(#linearGradient3902)" d="m5.6329 16.074c7.1748 2.2422 7.8503 7.0315 12.777 1.7541l-7.91-8.6959c-2.2213 1.9309-3.5867 4.3269-4.8671 6.9419z"/>
<path style="fill:url(#linearGradient3904)" d="m7.1553 13.193c-1.1831 1.752-1.9077 3.637-2.5251 5.644l11.339 2.975c0.215-0.763 0.518-1.514 0.969-2.218 0.017-0.027 0.044-0.067 0.062-0.094l-9.8447-6.307z"/>
</g>
<g transform="translate(-.0004 -.9996)">
<path style="fill:url(#linearGradient3918)" d="m11.997 6.0027c-3.8799 0-6.9998 3.1199-6.9998 6.9998s3.1199 6.9998 6.9998 6.9998 6.9998-3.1199 6.9998-6.9998-3.1199-6.9998-6.9998-6.9998zm0 8.6798c-0.91998 0-1.68-0.75998-1.68-1.68 0-0.91998 0.75998-1.68 1.68-1.68 0.91998 0 1.68 0.75998 1.68 1.68 0 0.91998-0.75998 1.68-1.68 1.68z"/>
<path style="fill:url(#linearGradient3920);stroke:#808080" d="m12 5.4996c-4.1571 0-7.5 3.3429-7.5 7.5s3.3429 7.5 7.5 7.5 7.5-3.3429 7.5-7.5-3.3429-7.5-7.5-7.5zm0 9.3c-0.98572 0-1.8-0.81429-1.8-1.8s0.81428-1.8 1.8-1.8c0.98571 0 1.8 0.81429 1.8 1.8 0 0.98572-0.81428 1.8-1.8 1.8z"/>
<path style="opacity:.511;fill:#e0b189" d="m12.001 9.0844c-2.1863 0-3.915 1.7795-3.915 3.915 0 2.1863 1.7795 3.915 3.915 3.915 2.1863 0 3.915-1.7795 3.915-3.915 0-2.1863-1.7795-3.915-3.915-3.915zm0 6.0504c-1.1694 0-2.1354-0.96603-2.1354-2.1354s0.96603-2.1354 2.1354-2.1354 2.1354 0.96603 2.1354 2.1354-0.96603 2.1354-2.1354 2.1354z"/>
</g>
<g style="fill:none" transform="translate(-.0004 -.9996)">
<path style="opacity:.546;stroke:url(#linearGradient3922)" d="m12 6.4995c-3.6029 0-6.5 2.8971-6.5 6.5s2.8971 6.5 6.5 6.5 6.5-2.8971 6.5-6.5-2.8971-6.5-6.5-6.5z"/>
<path style="opacity:.672;stroke:url(#linearGradient3924);stroke-width:2.292" d="m30.406 24.931a6.0988 6.0988 0 1 1 -12.198 0 6.0988 6.0988 0 1 1 12.198 0z" transform="matrix(.40604 0 0 .40604 2.1478 2.8832)"/>
</g>
<g transform="matrix(.34867 0 0 .34867 3.813 3.5127)">
<path style="fill:url(#linearGradient3896)" d="m15.857 5.7308 4.768 10.613c1.035-0.459 2.17-0.719 3.375-0.719 0.03206 0 0.06178-0.00036 0.09375 0l0.014-11.62c-2.9422-0.070687-5.543 0.65729-8.2511 1.726h0.000001z" transform="matrix(.9996 .02824 -.02824 .9996 .69241 -.67083)"/>
<path style="fill:url(#linearGradient3898)" d="m12.121 7.906 6.931 9.3601c0.91311-0.66976 1.9659-1.1671 3.1426-1.4252 0.03132-0.0069 0.06026-0.01359 0.09157-0.02009l-2.429-11.395c-2.889 0.56132-5.3195 1.8556-7.7357 3.4797z"/>
<path style="fill:url(#linearGradient3900)" d="m8.2524 11.647 9.2137 7.1558c0.70865-0.88326 1.5969-1.6361 2.6667-2.19 0.02847-0.01474 0.05469-0.02872 0.08325-0.0431l-5.35-10.319c-2.645 1.2895-4.7 3.2014-6.6136 5.396z"/>
<path style="fill:url(#linearGradient3902)" d="m5.6329 16.074c7.1748 2.2422 7.8503 7.0315 12.777 1.7541l-7.91-8.6959c-2.2213 1.9309-3.5867 4.3269-4.8671 6.9419z"/>
<path style="fill:url(#linearGradient3904)" d="m7.1553 13.193c-1.1831 1.752-1.9077 3.637-2.5251 5.644l11.339 2.975c0.215-0.763 0.518-1.514 0.969-2.218 0.017-0.027 0.044-0.067 0.062-0.094l-9.8447-6.307z"/>
</g>
<g transform="matrix(-.34867 0 0 -.34867 20.549 20.246)">
<path style="fill:url(#linearGradient3896)" d="m15.857 5.7308 4.768 10.613c1.035-0.459 2.17-0.719 3.375-0.719 0.03206 0 0.06178-0.00036 0.09375 0l0.014-11.62c-2.9422-0.070687-5.543 0.65729-8.2511 1.726h0.000001z" transform="matrix(.9996 .02824 -.02824 .9996 .69241 -.67083)"/>
<path style="fill:url(#linearGradient3898)" d="m12.121 7.906 6.931 9.3601c0.91311-0.66976 1.9659-1.1671 3.1426-1.4252 0.03132-0.0069 0.06026-0.01359 0.09157-0.02009l-2.429-11.395c-2.889 0.56132-5.3195 1.8556-7.7357 3.4797z"/>
<path style="fill:url(#linearGradient3900)" d="m8.2524 11.647 9.2137 7.1558c0.70865-0.88326 1.5969-1.6361 2.6667-2.19 0.02847-0.01474 0.05469-0.02872 0.08325-0.0431l-5.35-10.319c-2.645 1.2895-4.7 3.2014-6.6136 5.396z"/>
<path style="fill:url(#linearGradient3902)" d="m5.6329 16.074c7.1748 2.2422 7.8503 7.0315 12.777 1.7541l-7.91-8.6959c-2.2213 1.9309-3.5867 4.3269-4.8671 6.9419z"/>
<path style="fill:url(#linearGradient3904)" d="m7.1553 13.193c-1.1831 1.752-1.9077 3.637-2.5251 5.644l11.339 2.975c0.215-0.763 0.518-1.514 0.969-2.218 0.017-0.027 0.044-0.067 0.062-0.094l-9.8447-6.307z"/>
</g>
<g transform="translate(-3.0004 2.0004)">
<path style="fill:url(#linearGradient3918)" d="m11.997 6.0027c-3.8799 0-6.9998 3.1199-6.9998 6.9998s3.1199 6.9998 6.9998 6.9998 6.9998-3.1199 6.9998-6.9998-3.1199-6.9998-6.9998-6.9998zm0 8.6798c-0.91998 0-1.68-0.75998-1.68-1.68 0-0.91998 0.75998-1.68 1.68-1.68 0.91998 0 1.68 0.75998 1.68 1.68 0 0.91998-0.75998 1.68-1.68 1.68z"/>
<path style="fill:url(#linearGradient3920);stroke:#808080" d="m12 5.4996c-4.1571 0-7.5 3.3429-7.5 7.5s3.3429 7.5 7.5 7.5 7.5-3.3429 7.5-7.5-3.3429-7.5-7.5-7.5zm0 9.3c-0.98572 0-1.8-0.81429-1.8-1.8s0.81428-1.8 1.8-1.8c0.98571 0 1.8 0.81429 1.8 1.8 0 0.98572-0.81428 1.8-1.8 1.8z"/>
<path style="opacity:.511;fill:#e0b189" d="m12.001 9.0844c-2.1863 0-3.915 1.7795-3.915 3.915 0 2.1863 1.7795 3.915 3.915 3.915 2.1863 0 3.915-1.7795 3.915-3.915 0-2.1863-1.7795-3.915-3.915-3.915zm0 6.0504c-1.1694 0-2.1354-0.96603-2.1354-2.1354s0.96603-2.1354 2.1354-2.1354 2.1354 0.96603 2.1354 2.1354-0.96603 2.1354-2.1354 2.1354z"/>
</g>
<g style="fill:none" transform="translate(-3.0004 2.0004)">
<path style="opacity:.546;stroke:url(#linearGradient3922)" d="m12 6.4995c-3.6029 0-6.5 2.8971-6.5 6.5s2.8971 6.5 6.5 6.5 6.5-2.8971 6.5-6.5-2.8971-6.5-6.5-6.5z"/>
<path style="opacity:.672;stroke:url(#linearGradient3924);stroke-width:2.292" d="m30.406 24.931a6.0988 6.0988 0 1 1 -12.198 0 6.0988 6.0988 0 1 1 12.198 0z" transform="matrix(.40604 0 0 .40604 2.1478 2.8832)"/>
</g>
<g transform="matrix(.34867 0 0 .34867 .81303 6.5127)">
<path style="fill:url(#linearGradient3896)" d="m15.857 5.7308 4.768 10.613c1.035-0.459 2.17-0.719 3.375-0.719 0.03206 0 0.06178-0.00036 0.09375 0l0.014-11.62c-2.9422-0.070687-5.543 0.65729-8.2511 1.726h0.000001z" transform="matrix(.9996 .02824 -.02824 .9996 .69241 -.67083)"/>
<path style="fill:url(#linearGradient3898)" d="m12.121 7.906 6.931 9.3601c0.91311-0.66976 1.9659-1.1671 3.1426-1.4252 0.03132-0.0069 0.06026-0.01359 0.09157-0.02009l-2.429-11.395c-2.889 0.56132-5.3195 1.8556-7.7357 3.4797z"/>
<path style="fill:url(#linearGradient3900)" d="m8.2524 11.647 9.2137 7.1558c0.70865-0.88326 1.5969-1.6361 2.6667-2.19 0.02847-0.01474 0.05469-0.02872 0.08325-0.0431l-5.35-10.319c-2.645 1.2895-4.7 3.2014-6.6136 5.396z"/>
<path style="fill:url(#linearGradient3902)" d="m5.6329 16.074c7.1748 2.2422 7.8503 7.0315 12.777 1.7541l-7.91-8.6959c-2.2213 1.9309-3.5867 4.3269-4.8671 6.9419z"/>
<path style="fill:url(#linearGradient3904)" d="m7.1553 13.193c-1.1831 1.752-1.9077 3.637-2.5251 5.644l11.339 2.975c0.215-0.763 0.518-1.514 0.969-2.218 0.017-0.027 0.044-0.067 0.062-0.094l-9.8447-6.307z"/>
</g>
<g transform="matrix(-.34867 0 0 -.34867 17.549 23.246)">
<path style="fill:url(#linearGradient3896)" d="m15.857 5.7308 4.768 10.613c1.035-0.459 2.17-0.719 3.375-0.719 0.03206 0 0.06178-0.00036 0.09375 0l0.014-11.62c-2.9422-0.070687-5.543 0.65729-8.2511 1.726h0.000001z" transform="matrix(.9996 .02824 -.02824 .9996 .69241 -.67083)"/>
<path style="fill:url(#linearGradient3898)" d="m12.121 7.906 6.931 9.3601c0.91311-0.66976 1.9659-1.1671 3.1426-1.4252 0.03132-0.0069 0.06026-0.01359 0.09157-0.02009l-2.429-11.395c-2.889 0.56132-5.3195 1.8556-7.7357 3.4797z"/>
<path style="fill:url(#linearGradient3900)" d="m8.2524 11.647 9.2137 7.1558c0.70865-0.88326 1.5969-1.6361 2.6667-2.19 0.02847-0.01474 0.05469-0.02872 0.08325-0.0431l-5.35-10.319c-2.645 1.2895-4.7 3.2014-6.6136 5.396z"/>
<path style="fill:url(#linearGradient3902)" d="m5.6329 16.074c7.1748 2.2422 7.8503 7.0315 12.777 1.7541l-7.91-8.6959c-2.2213 1.9309-3.5867 4.3269-4.8671 6.9419z"/>
<path style="fill:url(#linearGradient3904)" d="m7.1553 13.193c-1.1831 1.752-1.9077 3.637-2.5251 5.644l11.339 2.975c0.215-0.763 0.518-1.514 0.969-2.218 0.017-0.027 0.044-0.067 0.062-0.094l-9.8447-6.307z"/>
</g>
</svg>
