<svg width="48" xmlns="http://www.w3.org/2000/svg" viewBox="0 0 48 48" height="48">
<g style="line-height:normal">
<g style="stroke:#9c7b5f" transform="translate(0 .02821)">
<path style="fill:#9c7a5f" d="M 5.7726797,37.763615 C 5.072828,37.691952 4.4809845,37.005311 4.4842511,36.268818 l 0,-28.2972824 C 4.4843243,7.1888845 5.1641834,6.476821 5.9114331,6.4767411 l 35.2038309,0 c 0.747251,7.99e-5 1.427108,0.7121434 1.427185,1.4947945 l 0,25.6710124 c -7.7e-5,0.782652 -0.679934,1.494713 -1.427185,1.494793 l -13.74654,0 0,1.131477 c -7.4e-5,0.782651 -0.679932,1.494718 -1.427182,1.494797 l -20.0301089,0 c -0.046215,0.0023 -0.092541,0.0023 -0.1387534,0 z"/>
<path style="fill:#e0b189" d="m 3.0135456,10.496092 c -0.8278953,0.07094 -1.5280205,0.750639 -1.5241566,1.479691 l 0,28.01137 c 8.85e-5,0.774744 0.8043308,1.479612 1.6882966,1.479689 l 41.6446434,0 c 0.883968,-7.7e-5 1.688208,-0.704945 1.688298,-1.479689 l 0,-25.411636 c -9e-5,-0.774743 -0.80433,-1.479612 -1.688298,-1.479691 l -16.261576,0 0,-1.120043 c -8.9e-5,-0.774743 -0.804331,-1.479613 -1.688296,-1.479691 l -23.6947714,0 c -0.05467,-0.0023 -0.1094698,-0.0023 -0.16414,0 z"/>
</g>
<g style="color:#000" transform="translate(0 3)">
<path style="fill:#9c7a5f" d="M 15.628307,22.708342 C 14.728836,22.708342 14,23.426939 14,24.313774 c 0,0.886496 0.728836,1.605178 1.628307,1.605178 0.899126,0 1.628048,-0.718682 1.628048,-1.605178 0,-0.88692 -0.728835,-1.605432 -1.628048,-1.605432 z m 11.625833,7.296432 c -0.778831,0.443291 -1.045411,1.424723 -0.595976,2.192273 0.449692,0.767889 1.445021,1.030894 2.223852,0.587603 0.778572,-0.443205 1.045325,-1.424637 0.595718,-2.192442 -0.44952,-0.76755 -1.445022,-1.030639 -2.223594,-0.587434 z M 19.165097,24.31352 c 0,-1.586598 0.799654,-2.987989 2.022497,-3.836561 l -1.190403,-1.966004 c -1.424974,0.938673 -2.484926,2.373661 -2.925239,4.054347 0.514316,0.413341 0.842937,1.042771 0.842937,1.748388 0,0.705446 -0.328621,1.334876 -0.843024,1.748133 0.440228,1.680855 1.500267,3.115843 2.925241,4.054431 l 1.190488,-1.966173 C 19.964751,27.301679 19.165097,25.900372 19.165097,24.31352 z m 4.756362,-4.689545 c 2.484839,0 4.523083,1.878448 4.736744,4.273658 l 2.320571,-0.03343 c -0.114188,-1.76841 -0.897664,-3.35645 -2.101748,-4.523598 -0.619038,0.230596 -1.334191,0.195642 -1.952282,-0.156276 -0.618865,-0.352256 -1.007205,-0.946478 -1.113562,-1.591348 -0.601654,-0.164166 -1.23489,-0.253673 -1.889637,-0.253673 -1.126038,0 -2.189863,0.26063 -3.134854,0.722161 l 1.131201,1.998836 c 0.60897,-0.279379 1.287552,-0.436333 2.003567,-0.436333 z m 0,9.379175 c -0.716101,0 -1.394597,-0.156954 -2.003653,-0.436333 l -1.131373,1.999006 c 0.945077,0.461361 2.008987,0.722075 3.135026,0.722075 0.654747,0 1.287982,-0.08951 1.889723,-0.253672 0.106357,-0.644871 0.494782,-1.239092 1.113734,-1.591603 0.618091,-0.351748 1.333245,-0.386702 1.952282,-0.156022 1.203998,-1.167232 1.987475,-2.755272 2.10149,-4.523682 l -2.320572,-0.03343 c -0.213487,2.395549 -2.251818,4.273658 -4.736657,4.273658 z m 3.332423,-10.380969 c 0.778744,0.44346 1.774246,0.18037 2.223679,-0.58718 0.449693,-0.767889 0.183113,-1.749321 -0.595717,-2.192696 -0.778659,-0.443206 -1.774074,-0.180201 -2.223767,0.587688 -0.44952,0.76755 -0.182768,1.749067 0.595805,2.192188 z"/>
</g>
</g>
</svg>
