<svg width="24" xmlns="http://www.w3.org/2000/svg" height="24" viewBox="0 0 24 24" xmlns:xlink="http://www.w3.org/1999/xlink">
<g style="fill:#aaa">
<path d="M 18.507812 9.539062 C 18.496094 9.929688 18.335938 10.300781 18.054688 10.570312 L 13.054688 15.570312 C 12.773438 15.851562 12.390625 16.011719 11.992188 16.011719 C 11.59375 16.011719 11.210938 15.851562 10.929688 15.570312 L 5.929688 10.570312 C 5.34375 9.984375 5.34375 9.03125 5.929688 8.445312 C 6.515625 7.859375 7.46875 7.859375 8.054688 8.445312 L 11.992188 12.382812 L 15.929688 8.445312 C 16.363281 8 17.023438 7.863281 17.59375 8.105469 C 18.167969 8.351562 18.53125 8.917969 18.507812 9.539062 Z "/>
<path d="M 5.84375 17.5 C 5.015625 17.542969 4.378906 18.25 4.421875 19.078125 C 4.464844 19.90625 5.171875 20.542969 6 20.5 L 18 20.5 C 18.539062 20.507812 19.042969 20.222656 19.316406 19.757812 C 19.589844 19.289062 19.589844 18.710938 19.316406 18.242188 C 19.042969 17.777344 18.539062 17.492188 18 17.5 L 6 17.5 C 5.949219 17.496094 5.894531 17.496094 5.84375 17.5 Z "/>
</g>
</svg>
