<svg width="24" xmlns="http://www.w3.org/2000/svg" height="24" viewBox="0 0 24 24" xmlns:xlink="http://www.w3.org/1999/xlink">
<g style="fill:#dcdcdc">
<path d="M 20.5 5.796875 L 20.5 8.90625 C 20.945312 9.84375 21.203125 10.890625 21.203125 12 C 21.203125 13.109375 20.945312 14.15625 20.5 15.09375 L 20.5 18.203125 C 22.042969 16.585938 23 14.40625 23 12 C 23 9.59375 22.042969 7.414062 20.5 5.796875 Z "/>
<path d="M 3.125 2.5 C 2.238281 2.5 1.5 3.238281 1.5 4.125 L 1.5 19.875 C 1.5 20.761719 2.238281 21.5 3.125 21.5 L 18.875 21.5 C 19.761719 21.5 20.5 20.761719 20.5 19.875 L 20.5 4.125 C 20.5 3.238281 19.761719 2.5 18.875 2.5 Z M 5 4 L 18.875 4 C 18.957031 4 19 4.042969 19 4.125 L 19 19.875 C 19 19.957031 18.957031 20 18.875 20 L 5 20 Z "/>
</g>
</svg>
