<svg width="24" xmlns="http://www.w3.org/2000/svg" height="24" viewBox="0 0 24 24" xmlns:xlink="http://www.w3.org/1999/xlink">
<g style="fill:#aaa">
<path d="M 5.171875 2 C 4.804688 2.039062 4.496094 2.382812 4.5 2.75 L 4.5 21.25 C 4.5 21.644531 4.855469 22 5.25 22 L 14 22 L 14 20.5 L 6.015625 20.5 L 6.015625 3.5 L 15 3.5 L 15 5.5 L 18 5.5 L 18 12 L 19.5 12 L 19.5 4 L 16.5 2 L 5.25 2 C 5.222656 2 5.199219 2 5.171875 2 Z "/>
<path d="M 15 20.5 L 16.5 20.5 L 16.5 22 L 15 22 Z "/>
<path d="M 17 20.5 L 21.5 20.5 L 21.5 22 L 17 22 Z "/>
<path d="M 15 18 L 16.5 18 L 16.5 19.5 L 15 19.5 Z "/>
<path d="M 17 18 L 20.5 18 L 20.5 19.5 L 17 19.5 Z "/>
<path d="M 15 15.5 L 16.5 15.5 L 16.5 17 L 15 17 Z "/>
<path d="M 17 15.5 L 21 15.5 L 21 17 L 17 17 Z "/>
<path d="M 15 13 L 16.5 13 L 16.5 14.5 L 15 14.5 Z "/>
<path d="M 17 13 L 20 13 L 20 14.5 L 17 14.5 Z "/>
</g>
</svg>
