<svg width="24" xmlns="http://www.w3.org/2000/svg" height="24" viewBox="0 0 24 24" xmlns:xlink="http://www.w3.org/1999/xlink">
<g style="fill:#545454">
<path d="M 5.171875 2 C 4.804688 2.039062 4.496094 2.382812 4.5 2.75 L 4.5 21.25 C 4.5 21.644531 4.855469 22 5.25 22 L 13 22 L 13 20.5 L 6.015625 20.5 L 6.015625 3.5 L 15 3.5 L 15 5.5 L 18 5.5 L 17.984375 15 L 19.5 15 L 19.5 4.015625 C 19 3.507812 16.976562 2.5 16.5 2 L 5.25 2 C 5.222656 2 5.199219 2 5.171875 2 Z "/>
<path d="M 14 16.011719 L 14 22.011719 L 22 22.011719 L 22 16.011719 Z M 16 17.011719 L 20 17.011719 L 18 19.011719 Z M 15 17.511719 L 17.5 20.011719 L 18.5 20.011719 L 21 17.511719 L 21 21.011719 L 15 21.011719 Z "/>
</g>
</svg>
