<svg width="24" xmlns="http://www.w3.org/2000/svg" height="24" viewBox="0 0 24 24" xmlns:xlink="http://www.w3.org/1999/xlink">
<g style="fill:#dcdcdc">
<path d="M 5.175781 2 C 4.808594 2.039062 4.496094 2.382812 4.5 2.75 L 4.5 21.25 C 4.5 21.644531 4.859375 22 5.253906 22 L 18.746094 22 C 19.140625 22 19.5 21.644531 19.5 21.25 L 19.5 4.007812 C 19 3.5 16.976562 2.5 16.5 2 L 5.253906 2 C 5.230469 2 5.203125 2 5.175781 2 Z M 6.007812 3.5 L 15 3.5 L 15 5.5 L 18 5.5 L 17.992188 20.5 L 6.007812 20.5 Z "/>
<g style="stroke:#dcdcdc;stroke-linecap:round;stroke-width:2">
<path d="M 15 35 L 15 38 L 18 38 " transform="scale(.5)"/>
<path d="M 33 35 L 33 38 L 30 38 " transform="scale(.5)"/>
<path d="M 30 14 L 33 14 L 33 17 " transform="scale(.5)"/>
<path d="M 15 17 L 15 14 L 18 14 " transform="scale(.5)"/>
</g>
</g>
</svg>
