<svg width="24" xmlns="http://www.w3.org/2000/svg" height="24" viewBox="0 0 24 24">
<path style="fill:#f9f9f9;fill-rule:evenodd" d="m 5,2 14,0 c 2,0 2,0 2,2 l 0,16 c 0,2 0,2 -2,2 L 5,22 C 3,22 3,22 3,20 L 3,4 C 3,2 3,2 5,2 z"/>
<g style="fill:#888">
<path d="M 5,5 5,7 19,7 19,5 z"/>
<path d="m 5,13 0,2 9,0 0,-2 z"/>
<path d="m 5,9 0,2 14,0 0,-2 z"/>
</g>
<path style="fill:#d64937" d="m 16,13 0,1 1,0 0,4 -1,0 0,1 3,0 0,-1 -1,0 0,-4 1,0 0,-1 z"/>
<path style="fill:#888" d="m 5,17 0,2 9,0 0,-2 z"/>
</svg>
