<svg width="24" xmlns="http://www.w3.org/2000/svg" height="24" viewBox="0 0 24 24" xmlns:xlink="http://www.w3.org/1999/xlink">
<path style="fill:#aaa" d="M 11.820312 1.484375 L 11.820312 4.453125 L 16.273438 8.90625 L 6.679688 8.90625 C 6.679688 8.90625 5.078125 8.871094 3.433594 9.695312 C 1.785156 10.515625 0 12.617188 0 15.585938 C 0 18.554688 1.785156 20.65625 3.433594 21.476562 C 5.078125 22.300781 6.679688 22.265625 6.679688 22.265625 C 7.855469 22.28125 8.9375 21.214844 8.9375 20.039062 C 8.9375 18.863281 7.855469 17.796875 6.679688 17.8125 C 6.679688 17.8125 6.007812 17.777344 5.425781 17.488281 C 4.847656 17.195312 4.453125 17.070312 4.453125 15.585938 C 4.453125 14.101562 4.847656 13.976562 5.425781 13.683594 C 6.007812 13.394531 6.679688 13.359375 6.679688 13.359375 L 16.273438 13.359375 L 11.820312 17.8125 L 11.820312 20.78125 L 14.789062 20.78125 L 23.695312 11.875 L 23.695312 10.390625 L 14.789062 1.484375 Z "/>
</svg>
