<svg width="24" xmlns="http://www.w3.org/2000/svg" height="24" viewBox="0 0 24 24" xmlns:xlink="http://www.w3.org/1999/xlink">
<g style="fill:#aaa">
<path d="M 12.003906 2.007812 C 6.492188 2.007812 1.996094 6.484375 1.996094 11.996094 C 1.996094 17.507812 6.492188 22.003906 12.003906 22.003906 C 17.515625 22.003906 21.992188 17.507812 21.992188 11.996094 C 21.992188 6.484375 17.515625 2.007812 12.003906 2.007812 Z M 12.003906 3.949219 C 16.457031 3.949219 20.050781 7.542969 20.050781 11.996094 C 20.050781 16.453125 16.457031 20.046875 12.003906 20.046875 C 7.546875 20.046875 3.953125 16.453125 3.953125 11.996094 C 3.953125 7.542969 7.546875 3.949219 12.003906 3.949219 Z "/>
<path d="M 12.398438 14.382812 C 12.371094 13.292969 12.601562 12.238281 13.578125 11.488281 C 14.609375 10.644531 15.601562 9.582031 15.496094 8.335938 C 15.472656 7.128906 14.140625 6.1875 12.707031 6.050781 C 11.09375 5.816406 9.140625 6.398438 8.601562 7.726562 C 8.324219 8.371094 8.578125 9.53125 9.5 9.53125 C 10.039062 9.53125 10.285156 9.164062 10.328125 8.828125 C 10.359375 8.574219 10.257812 8.347656 10.199219 8.140625 C 10.132812 7.902344 10.417969 7.4375 10.726562 7.25 C 10.984375 7.09375 11.253906 7.039062 11.296875 7.027344 C 12.222656 6.792969 13.148438 7.3125 13.535156 7.945312 C 13.921875 8.578125 13.496094 9.535156 12.882812 10.464844 C 12.273438 11.398438 11.617188 12.457031 11.621094 13.582031 C 11.621094 14.007812 11.585938 14.152344 11.609375 14.328125 C 11.632812 14.464844 12.066406 14.449219 12.398438 14.382812 Z M 11.976562 15.847656 C 11.089844 15.796875 10.472656 16.859375 11.007812 17.53125 C 11.484375 18.277344 12.816406 18.09375 13.046875 17.25 C 13.285156 16.59375 12.710938 15.835938 11.976562 15.847656 Z "/>
</g>
</svg>
