<svg width="24" xmlns="http://www.w3.org/2000/svg" height="24" viewBox="0 0 24 24" xmlns:xlink="http://www.w3.org/1999/xlink">
<g style="fill:#aaa">
<path d="M 17.066406 8.046875 C 16.714844 7.917969 16.320312 8.089844 16.191406 8.441406 L 15.890625 9.261719 C 15.640625 9.253906 15.394531 9.261719 15.148438 9.289062 L 14.785156 8.507812 C 14.628906 8.167969 14.230469 8.023438 13.890625 8.183594 L 11.929688 9.082031 C 11.59375 9.238281 11.445312 9.636719 11.605469 9.976562 L 11.96875 10.757812 C 11.785156 10.929688 11.621094 11.121094 11.460938 11.320312 L 10.65625 11.027344 C 10.304688 10.898438 9.90625 11.070312 9.777344 11.421875 L 9.039062 13.445312 C 8.910156 13.796875 9.101562 14.183594 9.453125 14.3125 L 10.261719 14.609375 C 10.253906 14.863281 10.257812 15.117188 10.285156 15.363281 L 9.503906 15.726562 C 9.164062 15.886719 9.019531 16.285156 9.175781 16.625 L 10.09375 18.574219 C 10.25 18.914062 10.648438 19.058594 10.988281 18.898438 L 11.769531 18.535156 C 11.941406 18.714844 12.125 18.878906 12.320312 19.035156 L 12.019531 19.859375 C 11.890625 20.210938 12.082031 20.597656 12.433594 20.726562 L 14.445312 21.460938 C 14.796875 21.589844 15.179688 21.410156 15.308594 21.058594 L 15.605469 20.238281 C 15.859375 20.246094 16.113281 20.242188 16.363281 20.214844 L 16.726562 20.996094 C 16.886719 21.335938 17.28125 21.480469 17.621094 21.324219 L 19.582031 20.425781 C 19.921875 20.265625 20.066406 19.871094 19.90625 19.53125 L 19.535156 18.726562 C 19.714844 18.558594 19.878906 18.375 20.035156 18.179688 L 20.855469 18.480469 C 21.207031 18.609375 21.589844 18.429688 21.71875 18.078125 L 22.457031 16.054688 C 22.585938 15.703125 22.410156 15.320312 22.058594 15.191406 L 21.234375 14.890625 C 21.242188 14.640625 21.234375 14.394531 21.207031 14.148438 L 22.007812 13.777344 C 22.347656 13.617188 22.492188 13.222656 22.335938 12.882812 L 21.417969 10.933594 C 21.261719 10.59375 20.863281 10.449219 20.523438 10.605469 L 19.742188 10.96875 C 19.570312 10.785156 19.375 10.621094 19.175781 10.464844 L 19.476562 9.640625 C 19.605469 9.289062 19.429688 8.910156 19.078125 8.78125 Z M 16.347656 13.105469 C 17.257812 13.4375 17.722656 14.441406 17.390625 15.351562 C 17.0625 16.257812 16.054688 16.726562 15.148438 16.394531 C 14.242188 16.0625 13.773438 15.058594 14.105469 14.148438 C 14.4375 13.242188 15.441406 12.773438 16.347656 13.105469 Z "/>
<path d="M 5.84375 1 C 5.648438 1 5.5 1.148438 5.5 1.34375 L 5.5 2.1875 C 5.242188 2.265625 5 2.375 4.765625 2.5 L 4.171875 1.90625 C 4.035156 1.769531 3.808594 1.769531 3.671875 1.90625 L 2.40625 3.171875 C 2.269531 3.308594 2.269531 3.535156 2.40625 3.671875 L 3 4.265625 C 2.875 4.5 2.765625 4.746094 2.6875 5 L 1.84375 5 C 1.648438 5 1.5 5.148438 1.5 5.34375 L 1.5 7.15625 C 1.5 7.351562 1.648438 7.5 1.84375 7.5 L 2.6875 7.5 C 2.765625 7.753906 2.875 8 3 8.234375 L 2.40625 8.828125 C 2.269531 8.964844 2.269531 9.191406 2.40625 9.328125 L 3.671875 10.59375 C 3.808594 10.730469 4.035156 10.730469 4.171875 10.59375 L 4.765625 10 C 5 10.125 5.242188 10.234375 5.5 10.3125 L 5.5 11.15625 C 5.5 11.351562 5.648438 11.5 5.84375 11.5 L 7.65625 11.5 C 7.851562 11.5 8 11.351562 8 11.15625 L 8 10.3125 C 8.253906 10.234375 8.5 10.125 8.734375 10 L 9.328125 10.59375 C 9.464844 10.730469 9.691406 10.730469 9.828125 10.59375 L 11.09375 9.328125 C 11.230469 9.191406 11.230469 8.964844 11.09375 8.828125 L 10.5 8.234375 C 10.621094 8 10.734375 7.753906 10.8125 7.5 L 11.65625 7.5 C 11.847656 7.5 12 7.351562 12 7.15625 L 12 5.34375 C 12 5.148438 11.847656 5 11.65625 5 L 10.8125 5 C 10.734375 4.746094 10.621094 4.5 10.5 4.265625 L 11.09375 3.671875 C 11.230469 3.535156 11.230469 3.308594 11.09375 3.171875 L 9.828125 1.90625 C 9.691406 1.769531 9.464844 1.769531 9.328125 1.90625 L 8.734375 2.5 C 8.5 2.375 8.253906 2.265625 8 2.1875 L 8 1.34375 C 8 1.148438 7.851562 1 7.65625 1 Z M 6.75 4.75 C 7.578125 4.75 8.25 5.421875 8.25 6.25 C 8.25 7.078125 7.578125 7.75 6.75 7.75 C 5.921875 7.75 5.25 7.078125 5.25 6.25 C 5.25 5.421875 5.921875 4.75 6.75 4.75 Z "/>
<path d="M 4.71875 15.5 C 4.59375 15.5 4.5 15.59375 4.5 15.71875 L 4.5 16.34375 C 4.222656 16.414062 3.972656 16.53125 3.734375 16.671875 L 3.28125 16.21875 C 3.191406 16.132812 3.054688 16.132812 2.96875 16.21875 L 2.21875 16.96875 C 2.132812 17.054688 2.132812 17.195312 2.21875 17.28125 L 2.671875 17.734375 C 2.53125 17.972656 2.414062 18.222656 2.34375 18.5 L 1.71875 18.5 C 1.59375 18.5 1.5 18.59375 1.5 18.71875 L 1.5 19.78125 C 1.5 19.90625 1.59375 20 1.71875 20 L 2.34375 20 C 2.414062 20.277344 2.53125 20.527344 2.671875 20.765625 L 2.21875 21.21875 C 2.132812 21.304688 2.132812 21.445312 2.21875 21.53125 L 2.96875 22.28125 C 3.054688 22.367188 3.191406 22.367188 3.28125 22.28125 L 3.734375 21.828125 C 3.972656 21.96875 4.222656 22.085938 4.5 22.15625 L 4.5 22.78125 C 4.5 22.90625 4.59375 23 4.71875 23 L 5.78125 23 C 5.90625 23 6 22.90625 6 22.78125 L 6 22.15625 C 6.277344 22.085938 6.523438 21.96875 6.765625 21.828125 L 7.21875 22.28125 C 7.304688 22.367188 7.441406 22.367188 7.53125 22.28125 L 8.28125 21.53125 C 8.367188 21.445312 8.367188 21.304688 8.28125 21.21875 L 7.828125 20.765625 C 7.96875 20.527344 8.085938 20.277344 8.15625 20 L 8.78125 20 C 8.90625 20 9 19.90625 9 19.78125 L 9 18.71875 C 9 18.59375 8.90625 18.5 8.78125 18.5 L 8.15625 18.5 C 8.085938 18.222656 7.96875 17.972656 7.828125 17.734375 L 8.28125 17.28125 C 8.367188 17.195312 8.367188 17.054688 8.28125 16.96875 L 7.53125 16.21875 C 7.441406 16.132812 7.304688 16.132812 7.21875 16.21875 L 6.765625 16.671875 C 6.523438 16.53125 6.277344 16.414062 6 16.34375 L 6 15.71875 C 6 15.59375 5.90625 15.5 5.78125 15.5 Z M 5.25 18.25 C 5.800781 18.25 6.25 18.699219 6.25 19.25 C 6.25 19.800781 5.800781 20.25 5.25 20.25 C 4.699219 20.25 4.25 19.800781 4.25 19.25 C 4.25 18.699219 4.699219 18.25 5.25 18.25 Z "/>
</g>
</svg>
