<svg width="24" xmlns="http://www.w3.org/2000/svg" height="24" viewBox="0 0 24 24" xmlns:xlink="http://www.w3.org/1999/xlink">
<path style="fill:#aaa" d="M 18.507812 12.515625 C 18.523438 11.898438 18.15625 11.335938 17.589844 11.097656 C 17.019531 10.855469 16.359375 10.992188 15.929688 11.4375 L 13.492188 13.875 L 13.492188 7.984375 C 13.492188 6.734375 12.648438 5.695312 11.914062 5.328125 C 11.183594 4.960938 10.492188 4.984375 10.492188 4.984375 L 7.992188 4.984375 C 7.453125 4.976562 6.949219 5.261719 6.675781 5.726562 C 6.402344 6.195312 6.402344 6.773438 6.675781 7.238281 C 6.949219 7.707031 7.453125 7.992188 7.992188 7.984375 L 10.492188 7.984375 L 10.492188 13.875 L 8.054688 11.4375 C 7.46875 10.851562 6.519531 10.851562 5.929688 11.4375 C 5.34375 12.023438 5.34375 12.976562 5.929688 13.5625 L 10.929688 18.5625 C 11.210938 18.84375 11.59375 19.003906 11.992188 19.003906 C 12.390625 19.003906 12.773438 18.84375 13.054688 18.5625 L 18.054688 13.5625 C 18.335938 13.289062 18.496094 12.921875 18.507812 12.53125 C 18.507812 12.527344 18.507812 12.519531 18.507812 12.515625 Z "/>
</svg>
