<svg width="24" xmlns="http://www.w3.org/2000/svg" height="24" viewBox="0 0 24 24" xmlns:xlink="http://www.w3.org/1999/xlink">
<path style="fill:#aaa" d="M 5.171875 1.96875 C 4.804688 2.007812 4.496094 2.351562 4.5 2.71875 L 4.5 9.96875 L 2.703125 9.96875 C 2.679688 9.96875 2.648438 9.96875 2.625 9.96875 C 2.285156 10.007812 2 10.351562 2 10.71875 L 2 19.320312 C 2 19.710938 2.335938 20.070312 2.703125 20.070312 L 4.5 20.070312 L 4.5 21.21875 C 4.5 21.613281 4.855469 21.96875 5.25 21.96875 L 18.75 21.96875 C 19.144531 21.96875 19.5 21.613281 19.5 21.21875 L 19.5 20.070312 L 21.296875 20.070312 C 21.664062 20.070312 22 19.710938 22 19.320312 L 22 10.71875 C 22 10.324219 21.664062 9.96875 21.296875 9.96875 L 19.5 9.96875 L 19.5 3.984375 C 19 3.476562 16.976562 2.46875 16.5 1.96875 L 5.25 1.96875 C 5.222656 1.96875 5.199219 1.96875 5.171875 1.96875 Z M 6.015625 3.46875 L 15 3.46875 L 15 5.46875 L 18 5.46875 L 18 9.96875 L 6.015625 9.96875 Z M 5 10.96875 L 19 10.96875 L 19 15.5 L 5 15.5 Z M 20.5 10.96875 C 20.777344 10.96875 21 11.191406 21 11.46875 C 21 11.746094 20.777344 11.96875 20.5 11.96875 C 20.222656 11.96875 20 11.746094 20 11.46875 C 20 11.191406 20.222656 10.96875 20.5 10.96875 Z M 6 16.5 L 18 16.5 L 18 20.515625 L 6 20.515625 Z "/>
</svg>
