<svg width="24" xmlns="http://www.w3.org/2000/svg" height="24" viewBox="0 0 24 24" xmlns:xlink="http://www.w3.org/1999/xlink">
<g style="fill:#dcdcdc">
<path d="M 4.40625 2.5 C 4.183594 2.523438 4 2.730469 4 2.953125 L 4 14.046875 C 4 14.28125 4.214844 14.5 4.453125 14.5 L 12 14.5 L 12 20.546875 C 12 20.78125 12.214844 21 12.453125 21 L 20.546875 21 C 20.785156 21 21 20.78125 21 20.546875 L 21 10.203125 C 20.699219 9.898438 19.488281 9.300781 19.203125 9 L 13 9 L 13 3.703125 C 12.699219 3.398438 11.488281 2.800781 11.203125 2.5 L 4.453125 2.5 C 4.4375 2.5 4.421875 2.5 4.40625 2.5 Z M 5.5 4 L 10 4 L 10 5 L 11.5 5 L 11.5 13 L 5.5 13 Z M 13.5 10.5 L 18 10.5 L 18 11.5 L 19.5 11.5 L 19.5 19.5 L 13.5 19.5 Z "/>
<path d="M 6 6.019531 L 6 6.519531 L 11 6.519531 L 11 6.019531 Z "/>
<path d="M 6 6.988281 L 6 7.488281 L 7.5 7.488281 L 7.5 6.988281 Z "/>
<path d="M 10 8.488281 L 10 8.988281 L 11 8.988281 L 11 8.488281 Z "/>
<path d="M 6 9.503906 L 6 10.003906 L 8.5 10.003906 L 8.5 9.503906 Z "/>
<path d="M 9 9.503906 L 9 10.003906 L 11 10.003906 L 11 9.503906 Z "/>
<path d="M 8 6.988281 L 8 7.488281 L 11 7.488281 L 11 6.988281 Z "/>
<path d="M 6 8.5 L 6 9 L 9.5 9 L 9.5 8.5 Z "/>
<path d="M 14 12.5 L 14 13 L 19 13 L 19 12.5 Z "/>
<path d="M 14 13.464844 L 14 13.964844 L 15.5 13.964844 L 15.5 13.464844 Z "/>
<path d="M 18 14.964844 L 18 15.464844 L 19 15.464844 L 19 14.964844 Z "/>
<path d="M 14 15.984375 L 14 16.484375 L 16.5 16.484375 L 16.5 15.984375 Z "/>
<path d="M 17 15.984375 L 17 16.484375 L 19 16.484375 L 19 15.984375 Z "/>
<path d="M 16 13.464844 L 16 13.964844 L 19 13.964844 L 19 13.464844 Z "/>
<path d="M 14 14.980469 L 14 15.480469 L 17.5 15.480469 L 17.5 14.980469 Z "/>
</g>
</svg>
