<svg width="24" xmlns="http://www.w3.org/2000/svg" height="24" viewBox="0 0 24 24" xmlns:xlink="http://www.w3.org/1999/xlink">
<path style="fill:#aaa" d="M 12 2.5 C 11.972656 2.503906 11.949219 2.507812 11.921875 2.515625 C 11.828125 2.523438 11.738281 2.550781 11.65625 2.59375 C 11.652344 2.597656 11.644531 2.605469 11.640625 2.609375 C 11.398438 2.707031 11.253906 2.851562 11.140625 2.984375 C 10.976562 3.175781 10.824219 3.402344 10.671875 3.65625 C 10.367188 4.167969 10.042969 4.816406 9.71875 5.46875 C 9.394531 6.121094 9.074219 6.777344 8.8125 7.28125 C 8.683594 7.535156 8.558594 7.746094 8.46875 7.890625 C 8.441406 7.933594 8.414062 7.957031 8.390625 7.984375 C 8.355469 7.996094 8.324219 8.003906 8.28125 8.015625 C 8.113281 8.054688 7.875 8.109375 7.59375 8.15625 C 7.03125 8.246094 6.304688 8.332031 5.578125 8.4375 C 4.851562 8.542969 4.144531 8.664062 3.5625 8.796875 C 3.269531 8.863281 3.015625 8.921875 2.78125 9.015625 C 2.664062 9.0625 2.546875 9.117188 2.421875 9.203125 C 2.296875 9.289062 2.136719 9.410156 2.046875 9.6875 C 1.957031 9.964844 2.011719 10.167969 2.0625 10.3125 C 2.113281 10.457031 2.167969 10.566406 2.234375 10.671875 C 2.367188 10.886719 2.539062 11.089844 2.734375 11.3125 C 3.128906 11.761719 3.648438 12.273438 4.171875 12.78125 C 4.695312 13.289062 5.222656 13.785156 5.625 14.1875 C 5.824219 14.390625 6 14.574219 6.109375 14.703125 C 6.140625 14.742188 6.152344 14.765625 6.171875 14.796875 C 6.171875 14.832031 6.175781 14.859375 6.171875 14.90625 C 6.15625 15.074219 6.136719 15.3125 6.09375 15.59375 C 6.007812 16.152344 5.875 16.875 5.75 17.59375 C 5.625 18.3125 5.507812 19.03125 5.453125 19.625 C 5.425781 19.921875 5.40625 20.171875 5.421875 20.421875 C 5.429688 20.546875 5.457031 20.683594 5.5 20.828125 C 5.542969 20.972656 5.609375 21.160156 5.84375 21.328125 C 6.078125 21.5 6.289062 21.503906 6.4375 21.5 C 6.585938 21.496094 6.707031 21.484375 6.828125 21.453125 C 7.074219 21.390625 7.320312 21.289062 7.59375 21.171875 C 8.144531 20.9375 8.804688 20.621094 9.453125 20.28125 C 10.101562 19.941406 10.738281 19.582031 11.25 19.328125 C 11.503906 19.199219 11.734375 19.097656 11.890625 19.03125 C 11.9375 19.011719 11.964844 19.007812 12 19 C 12.035156 19.007812 12.0625 19.011719 12.109375 19.03125 C 12.265625 19.097656 12.496094 19.199219 12.75 19.328125 C 13.261719 19.582031 13.898438 19.941406 14.546875 20.28125 C 15.195312 20.621094 15.855469 20.9375 16.40625 21.171875 C 16.679688 21.289062 16.925781 21.390625 17.171875 21.453125 C 17.292969 21.484375 17.414062 21.496094 17.5625 21.5 C 17.710938 21.503906 17.921875 21.496094 18.15625 21.328125 C 18.390625 21.160156 18.457031 20.972656 18.5 20.828125 C 18.542969 20.683594 18.570312 20.546875 18.578125 20.421875 C 18.59375 20.171875 18.574219 19.921875 18.546875 19.625 C 18.492188 19.03125 18.375 18.3125 18.25 17.59375 C 18.125 16.875 17.992188 16.152344 17.90625 15.59375 C 17.863281 15.3125 17.84375 15.074219 17.828125 14.90625 C 17.824219 14.859375 17.828125 14.832031 17.828125 14.796875 C 17.847656 14.765625 17.859375 14.742188 17.890625 14.703125 C 18 14.574219 18.175781 14.390625 18.375 14.1875 C 18.777344 13.785156 19.304688 13.289062 19.828125 12.78125 C 20.351562 12.273438 20.871094 11.761719 21.265625 11.3125 C 21.460938 11.089844 21.632812 10.886719 21.765625 10.671875 C 21.832031 10.566406 21.886719 10.457031 21.9375 10.3125 C 21.988281 10.167969 22.042969 9.964844 21.953125 9.6875 C 21.863281 9.410156 21.703125 9.289062 21.578125 9.203125 C 21.453125 9.117188 21.335938 9.0625 21.21875 9.015625 C 20.984375 8.921875 20.730469 8.863281 20.4375 8.796875 C 19.855469 8.664062 19.148438 8.542969 18.421875 8.4375 C 17.695312 8.332031 16.96875 8.246094 16.40625 8.15625 C 16.125 8.109375 15.886719 8.054688 15.71875 8.015625 C 15.675781 8.003906 15.644531 8 15.609375 7.984375 C 15.585938 7.957031 15.558594 7.933594 15.53125 7.890625 C 15.441406 7.746094 15.316406 7.535156 15.1875 7.28125 C 14.925781 6.777344 14.605469 6.121094 14.28125 5.46875 C 13.957031 4.816406 13.632812 4.167969 13.328125 3.65625 C 13.175781 3.402344 13.023438 3.175781 12.859375 2.984375 C 12.695312 2.792969 12.578125 2.5 12 2.5 Z "/>
</svg>
