<svg width="24" xmlns="http://www.w3.org/2000/svg" height="24" viewBox="0 0 24 24" xmlns:xlink="http://www.w3.org/1999/xlink">
<path style="fill:#545454" d="M 10.59375 4 C 10.253906 4.070312 9.992188 4.40625 10 4.75 L 10 5.5 L 3 5.5 C 2 5.5 2 6.5 2 6.5 L 2 8 L 22 8 L 22 6.5 C 22 5.5 21 5.5 21 5.5 L 14 5.515625 L 14 4.75 C 14 4.355469 13.644531 4 13.25 4 L 10.75 4 C 10.699219 3.996094 10.644531 3.996094 10.59375 4 Z M 2 9 L 2 18.75 C 2 19.144531 2.355469 19.5 2.75 19.5 L 21.25 19.5 C 21.644531 19.5 22 19.144531 22 18.75 L 22 9 Z "/>
</svg>
