<svg width="24" xmlns="http://www.w3.org/2000/svg" height="24" viewBox="0 0 24 24" xmlns:xlink="http://www.w3.org/1999/xlink">
<path style="fill:#545454" d="M 12.5 1.5 C 6.992188 1.5 2.5 5.992188 2.5 11.5 C 2.5 15.800781 5.242188 19.46875 9.0625 20.875 L 9.5 18.375 C 6.847656 17.222656 5 14.585938 5 11.5 C 5 7.34375 8.34375 4.511719 12.5 4.511719 C 16.566406 4.511719 18.5 7.5 18.238281 10.992188 C 18.1875 11.867188 17.800781 12.765625 17.304688 13.265625 C 16.765625 13.804688 16.378906 14.1875 15.601562 14.4375 C 14.210938 14.886719 14.386719 14.859375 14.109375 14.859375 L 12.421875 12.828125 C 12.183594 12.539062 11.621094 12.679688 11.546875 13.046875 L 9.96875 21.953125 C 9.925781 22.234375 10.167969 22.527344 10.453125 22.53125 L 19.46875 22.59375 C 19.855469 22.605469 20.113281 22.054688 19.859375 21.765625 L 18.375 19.984375 C 18.835938 19.707031 19.460938 19.261719 20.1875 18.375 C 21.296875 17.023438 22.382812 14.820312 22.484375 11.5 L 22.5 11.5 C 22.5 11.425781 22.5 11.355469 22.5 11.28125 C 22.5 11.1875 22.5 11.097656 22.5 11 C 22.5 10.972656 22.488281 10.949219 22.484375 10.921875 C 22.183594 5.679688 17.816406 1.5 12.5 1.5 Z "/>
</svg>
