<svg width="24" xmlns="http://www.w3.org/2000/svg" height="24" viewBox="0 0 24 24" xmlns:xlink="http://www.w3.org/1999/xlink">
<path style="fill:#dcdcdc" d="M 11.875 0 C 5.316406 0 0 5.316406 0 11.875 C 0 17.414062 3.78125 22.0625 8.90625 23.378906 L 8.90625 18.648438 C 6.292969 17.496094 4.453125 14.914062 4.453125 11.875 C 4.453125 7.777344 7.777344 4.453125 11.875 4.453125 C 14.914062 4.453125 17.496094 6.292969 18.648438 8.90625 L 23.378906 8.90625 C 22.0625 3.78125 17.414062 0 11.875 0 Z M 12.941406 8.164062 C 12.511719 8.246094 12.09375 8.523438 11.875 8.90625 L 10.992188 10.390625 L 7.421875 10.390625 C 6.578125 10.359375 5.8125 11.175781 5.890625 12.015625 C 5.902344 12.078125 5.917969 12.140625 5.9375 12.199219 C 6.085938 12.863281 6.742188 13.375 7.421875 13.359375 L 11.410156 13.359375 C 11.457031 13.363281 11.503906 13.363281 11.550781 13.359375 C 11.925781 13.445312 12.335938 13.375 12.664062 13.171875 C 12.679688 13.160156 12.695312 13.140625 12.710938 13.128906 C 12.742188 13.113281 12.773438 13.097656 12.804688 13.082031 C 12.816406 13.066406 12.835938 13.050781 12.847656 13.035156 C 12.863281 13.019531 12.882812 13.003906 12.894531 12.988281 C 12.910156 12.972656 12.925781 12.957031 12.941406 12.941406 C 12.957031 12.925781 12.972656 12.910156 12.988281 12.894531 C 13.003906 12.867188 13.019531 12.835938 13.035156 12.804688 C 13.050781 12.789062 13.066406 12.769531 13.082031 12.757812 C 13.09375 12.742188 13.113281 12.726562 13.128906 12.710938 C 13.144531 12.679688 13.160156 12.648438 13.171875 12.617188 C 13.207031 12.558594 13.238281 12.496094 13.265625 12.429688 L 14.472656 10.390625 C 14.859375 9.710938 14.597656 8.738281 13.914062 8.351562 C 13.746094 8.25 13.550781 8.183594 13.359375 8.164062 C 13.214844 8.148438 13.085938 8.136719 12.941406 8.164062 Z M 16.328125 10.390625 L 16.328125 13.359375 L 19.296875 13.359375 L 16.328125 19.296875 L 16.328125 22.265625 L 23.75 22.265625 L 23.75 19.296875 L 20.78125 19.296875 L 23.75 13.359375 L 23.75 10.390625 Z M 10.390625 17.8125 L 10.390625 19.296875 L 11.875 19.296875 L 10.390625 22.265625 L 10.390625 23.75 L 14.84375 23.75 L 14.84375 22.265625 L 13.359375 22.265625 L 14.84375 19.296875 L 14.84375 17.8125 Z "/>
</svg>
