<svg width="24" xmlns="http://www.w3.org/2000/svg" height="24" viewBox="0 0 24 24" xmlns:xlink="http://www.w3.org/1999/xlink">
<defs>
<clipPath id="clip1">
<rect width="24" height="24"/>
</clipPath>
<filter width="100%" x="0" y="0" height="100%" filterUnits="objectBoundingBox" id="alpha">
<feColorMatrix values="0 0 0 0 1 0 0 0 0 1 0 0 0 0 1 0 0 0 1 0" in="SourceGraphic" type="matrix"/>
</filter>
<g style="clip-path:url(#clip1)" id="surface6">
<path style="fill:#dcdcdc" d="M 7.5 8 L 7.5 8.5 L 11 8.5 L 11 8 Z "/>
<path style="fill:#dcdcdc" d="M 11.5 8 L 11.5 8.5 L 14 8.5 L 14 8 Z "/>
<path style="fill:#dcdcdc" d="M 14.5 8 L 14.5 8.5 L 16.5 8.5 L 16.5 8 Z "/>
<path style="fill:#dcdcdc" d="M 7.5 9 L 7.5 9.5 L 10 9.5 L 10 9 Z "/>
<path style="fill:#dcdcdc" d="M 10.5 9 L 10.5 9.5 L 12.5 9.5 L 12.5 9 Z "/>
<path style="fill:#dcdcdc" d="M 10 10 L 10 10.5 L 13.5 10.5 L 13.5 10 Z "/>
<path style="fill:#dcdcdc" d="M 7.5 10 L 7.5 10.5 L 9.5 10.5 L 9.5 10 Z "/>
<path style="fill:#dcdcdc" d="M 14 10 L 14 10.5 L 15 10.5 L 15 10 Z "/>
<path style="fill:#dcdcdc" d="M 15.5 10 L 15.5 10.5 L 16.5 10.5 L 16.5 10 Z "/>
<path style="fill:#dcdcdc" d="M 7.5 11 L 7.5 11.5 L 9 11.5 L 9 11 Z "/>
<path style="fill:#dcdcdc" d="M 9.5 11 L 9.5 11.5 L 10.5 11.5 L 10.5 11 Z "/>
<path style="fill:#dcdcdc" d="M 11 11 L 11 11.5 L 14.5 11.5 L 14.5 11 Z "/>
<path style="fill:#dcdcdc" d="M 7.5 12.5 L 7.5 13 L 11 13 L 11 12.5 Z "/>
<path style="fill:#dcdcdc" d="M 12.5 12.5 L 12.5 13 L 14 13 L 14 12.5 Z "/>
<path style="fill:#dcdcdc" d="M 14.5 12.5 L 14.5 13 L 16 13 L 16 12.5 Z "/>
<path style="fill:#dcdcdc" d="M 7.5 13.5 L 7.5 14 L 10 14 L 10 13.5 Z "/>
<path style="fill:#dcdcdc" d="M 10.5 13.5 L 10.5 14 L 12.5 14 L 12.5 13.5 Z "/>
<path style="fill:#dcdcdc" d="M 10 14.5 L 10 15 L 13.5 15 L 13.5 14.5 Z "/>
<path style="fill:#dcdcdc" d="M 7.5 14.5 L 7.5 15 L 9.5 15 L 9.5 14.5 Z "/>
<path style="fill:#dcdcdc" d="M 14 14.5 L 14 15 L 15 15 L 15 14.5 Z "/>
<path style="fill:#dcdcdc" d="M 11.5 12.5 L 11.5 13 L 12 13 L 12 12.5 Z "/>
<path style="fill:#dcdcdc" d="M 8.5 16 L 8.5 16.5 L 10 16.5 L 10 16 Z "/>
<path style="fill:#dcdcdc" d="M 10.5 16 L 10.5 16.5 L 12 16.5 L 12 16 Z "/>
<path style="fill:#dcdcdc" d="M 7.5 16 L 7.5 16.5 L 8 16.5 L 8 16 Z "/>
<path style="fill:#dcdcdc" d="M 12.5 16 L 12.5 16.5 L 16 16.5 L 16 16 Z "/>
<path style="fill:#dcdcdc" d="M 7.5 17 L 7.5 17.5 L 10 17.5 L 10 17 Z "/>
<path style="fill:#dcdcdc" d="M 10.5 17 L 10.5 17.5 L 12.5 17.5 L 12.5 17 Z "/>
</g>
<mask id="mask0">
<g style="filter:url(#alpha)">
<rect width="24" x="0" y="0" height="24" style="fill:#dcdcdc;fill-opacity:.6"/>
</g>
</mask>
</defs>
<g style="fill:#dcdcdc">
<path style="fill-opacity:.161" d="M 7 7.5 L 7 18 L 13 18 L 13 17 L 17 17 L 17 7.5 Z "/>
<path d="M 5.175781 2 C 4.808594 2.039062 4.496094 2.382812 4.5 2.75 L 4.5 21.25 C 4.5 21.644531 4.859375 22 5.253906 22 L 18.746094 22 C 19.140625 22 19.5 21.644531 19.5 21.25 L 19.5 4.007812 C 19 3.5 16.976562 2.5 16.5 2 L 5.253906 2 C 5.230469 2 5.203125 2 5.175781 2 Z M 6.007812 3.5 L 15 3.5 L 15 5.5 L 18 5.5 L 17.992188 20.5 L 6.007812 20.5 Z "/>
</g>
<use style="mask:url(#mask0)" xlink:href="#surface6"/>
<path style="fill:#dcdcdc;stroke:#dcdcdc;stroke-linejoin:round;stroke-linecap:round;stroke-width:.622" d="M 25.992188 34 L 25.929688 37.625 L 27.007812 37.007812 L 27.945312 38.625 L 29.023438 38 L 28.085938 36.382812 L 29.164062 35.757812 Z " transform="scale(.5)"/>
</svg>
