<svg width="24" xmlns="http://www.w3.org/2000/svg" height="24" viewBox="0 0 24 24" xmlns:xlink="http://www.w3.org/1999/xlink">
<path style="fill:#aaa" d="M 5.90625 7.515625 C 5.390625 7.566406 4.996094 8 5 8.515625 L 5 15.015625 C 5 15.570312 5.449219 16.015625 6 16.015625 L 8.5 16.015625 C 8.859375 16.019531 9.195312 15.832031 9.378906 15.519531 C 9.558594 15.207031 9.558594 14.824219 9.378906 14.511719 C 9.195312 14.199219 8.859375 14.011719 8.5 14.015625 L 7 14.015625 L 7 9.515625 L 17 9.515625 L 17 14.015625 L 15 14.015625 L 15 12.515625 C 15.003906 12.230469 14.71875 11.980469 14.4375 12.015625 C 14.328125 12.027344 14.21875 12.078125 14.140625 12.15625 L 11.640625 14.65625 C 11.449219 14.84375 11.449219 15.191406 11.640625 15.375 L 14.140625 17.875 C 14.417969 18.164062 15.007812 17.914062 15 17.515625 L 15 16.015625 L 18 16.015625 C 18.550781 16.015625 19 15.570312 19 15.015625 L 19 8.515625 C 19 7.964844 18.550781 7.515625 18 7.515625 L 6 7.515625 C 5.96875 7.515625 5.9375 7.515625 5.90625 7.515625 Z "/>
</svg>
