<svg width="24" xmlns="http://www.w3.org/2000/svg" height="24" viewBox="0 0 24 24" xmlns:xlink="http://www.w3.org/1999/xlink">
<path style="fill:#545454" d="M 3.71875 2.515625 C 2.804688 2.515625 2.03125 3.246094 2.03125 4.171875 L 2.03125 16.953125 C 2.03125 17.878906 2.804688 18.609375 3.71875 18.609375 L 14.015625 18.609375 L 18.203125 21.34375 L 19.875 22.4375 L 19.328125 20.515625 L 18.796875 18.609375 L 20.328125 18.609375 C 21.242188 18.609375 22.03125 17.878906 22.03125 16.953125 L 22.03125 4.171875 C 22.03125 3.246094 21.242188 2.515625 20.328125 2.515625 Z M 9 5.5 L 12 8.5 L 15 5.5 L 17 7.5 L 14 10.5 L 17 13.5 L 15 15.5 L 12 12.5 L 9 15.5 L 7 13.5 L 10 10.5 L 7 7.5 Z "/>
</svg>
