<svg width="24" xmlns="http://www.w3.org/2000/svg" viewBox="0 0 24 24" height="24">
<g style="fill:#8abf50">
<path style="fill-rule:evenodd" d="M 13.281251,2.003778 C 10.616769,1.9288199 7.9384274,2.9726964 6.0276551,4.8308473 4.1168828,6.6889983 2.9989416,9.3368575 3.0000008,12.001889 l 4,0 C 6.9920108,9.0015062 9.569528,6.2217904 12.562501,6.0030224 c 3.284121,-0.2400727 6.446266,2.7066132 6.4375,5.9988666 0,3.141 -2.858407,5.998867 -6,5.998867 -2,0 -3,0.999811 -3,1.999622 0,0.999811 1,1.999622 3,1.999622 2.617994,0 5.219868,-1.077527 7.071069,-2.928379 1.851201,-1.850852 2.928932,-4.452233 2.928931,-7.069732 C 23.001023,9.4306022 21.963599,6.873663 20.1712,5.0297431 18.378802,3.185823 15.852007,2.0760917 13.281251,2.003778 z"/>
<path d="m 0,12 8.9733999,0 0.9970441,0 c 0.15753,1.050026 -0.332876,1.333863 -1.037505,2.040581 L 5.9822666,17 C 4.9852222,18 4.9889037,18.003692 3.9881777,17 L 1.0419074,14.044996 C 0.1817571,13.359426 0,13.025494 0,12 z"/>
</g>
</svg>
