<svg width="64" xmlns="http://www.w3.org/2000/svg" height="64" viewBox="0 0 64 64" xmlns:xlink="http://www.w3.org/1999/xlink">
<g style="fill:#555">
<path d="M 52.78125 27.402344 L 52.78125 35.929688 C 52.78125 36.492188 52.179688 36.945312 51.453125 36.945312 L 43.546875 36.945312 C 42.8125 36.945312 42.21875 36.492188 42.21875 35.929688 L 42.21875 27.402344 C 42.21875 26.84375 42.8125 26.386719 43.546875 26.386719 L 51.453125 26.386719 C 52.179688 26.386719 52.78125 26.84375 52.78125 27.402344 Z "/>
<path d="M 36.945312 27.402344 L 36.945312 35.929688 C 36.945312 36.492188 36.347656 36.945312 35.617188 36.945312 L 27.714844 36.945312 C 26.980469 36.945312 26.386719 36.492188 26.386719 35.929688 L 26.386719 27.402344 C 26.386719 26.84375 26.980469 26.386719 27.714844 26.386719 L 35.617188 26.386719 C 36.347656 26.386719 36.945312 26.84375 36.945312 27.402344 Z "/>
<path d="M 21.113281 27.402344 L 21.113281 35.929688 C 21.113281 36.492188 20.515625 36.945312 19.785156 36.945312 L 11.882812 36.945312 C 11.144531 36.945312 10.554688 36.492188 10.554688 35.929688 L 10.554688 27.402344 C 10.554688 26.84375 11.144531 26.386719 11.882812 26.386719 L 19.785156 26.386719 C 20.515625 26.386719 21.113281 26.84375 21.113281 27.402344 Z "/>
</g>
</svg>
