<svg xmlns="http://www.w3.org/2000/svg" viewBox="0 0 32 32" xmlns:xlink="http://www.w3.org/1999/xlink">
<g style="fill:#555555#2d2d2d#bada55;line-height:normal;color:#000" transform="matrix(1.50322 0 0 1.50962 -19.32559 -17.8844)">
<path d="m 19.25,14.5625 a 1.2281927,1.2281927 0 0 0 -0.5625,0.15625 c -3.997392,2.179689 -5.170824,6.554662 -4.125,10.21875 1.045824,3.664088 4.318534,6.84375 8.875,6.84375 4.491348,0 7.860303,-2.985056 8.96875,-6.59375 C 33.514697,21.578806 32.337791,17.205758 28.25,14.75 a 1.2281927,1.2281927 0 1 0 -1.28125,2.09375 c 3.204709,1.925242 3.912503,4.959444 3.09375,7.625 -0.818753,2.665556 -3.205648,4.84375 -6.625,4.84375 -3.437434,0 -5.714449,-2.279038 -6.5,-5.03125 -0.785551,-2.752212 -0.05751,-5.773139 2.9375,-7.40625 A 1.2281927,1.2281927 0 0 0 19.25,14.5625 z"/>
<path d="m 23.34375,13.166294 c -0.593377,0.08057 -1.078577,0.651393 -1.0625,1.25 l 0,6.083706 c -0.08588,0.688544 0.524871,1.380197 1.21875,1.380197 0.693879,0 1.304627,-0.691653 1.21875,-1.380197 l 0,-6.083706 c 0.01754,-0.702264 -0.67758,-1.334188 -1.375,-1.25 z"/>
</g>
</svg>
