<svg xmlns="http://www.w3.org/2000/svg" viewBox="0 0 32 32" xmlns:xlink="http://www.w3.org/1999/xlink">
<path style="fill:#555555#2d2d2d" d="M 8 2 L 3 6 L 8 6 L 8 30 L 16 22 L 17 23 L 17 21 L 21 21 L 21 17 L 24 17 L 24 6 C 24 6 24 2 20 2 L 8 2 z M 22.875 18 C 22.367725 18.107968 21.988689 18.606484 22 19.125 L 22 22 L 19.125 22 C 18.535968 22.000059 18.000059 22.535968 18 23.125 L 18 24.90625 C 18.000059 25.495282 18.535968 26.031191 19.125 26.03125 L 22 26.03125 L 22 28.875 C 22.000059 29.464032 22.535968 29.999941 23.125 30 L 24.875 30 C 25.464033 29.999941 25.999941 29.464032 26 28.875 L 26 26.03125 L 28.875 26.03125 C 29.464033 26.031191 29.999941 25.495282 30 24.90625 L 30 23.125 C 29.999941 22.535968 29.464033 22.000059 28.875 22 L 26 22 L 26 19.125 C 25.999941 18.535967 25.464033 18.00006 24.875 18 L 23.125 18 C 23.04716 17.9918 22.952841 17.9918 22.875 18 z "/>
</svg>
