<svg xmlns="http://www.w3.org/2000/svg" viewBox="0 0 32 32">
<path style="fill:#555555#2d2d2d;line-height:normal;color:#000" d="m 16.071323,23.996932 a 1.5398625,1.5398625 0 0 0 0.96875,-0.4375 l 5.124999,-5.15625 a 1.5398625,1.5398625 0 0 0 0.46875,-1.0625 1.5398625,1.5398625 0 0 0 -2.65625,-1.125 l -4.031249,4.0625 -4.062501,-4.0625 a 1.5423796,1.5423796 0 0 0 -2.1562496,2.1875 l 5.1250006,5.15625 a 1.5398625,1.5398625 0 0 0 1.21875,0.4375 z m 3.062499,-8.71875 a 1.026575,1.026575 0 0 0 0.90625,-1.0625 l 0,-2.5625 a 1.03125,1.03125 0 0 0 -2.062499,0 l 0,2.5625 a 1.026575,1.026575 0 0 0 1.062499,1.0625 1.026575,1.026575 0 0 0 0.09375,0 z m -3.093749,0 a 1.026575,1.026575 0 0 0 0.9375,-1.0625 l 0,-5.1875001 a 1.03125,1.03125 0 1 0 -2.0625,0 l 0,5.1875001 a 1.026575,1.026575 0 0 0 1.03125,1.0625 1.026575,1.026575 0 0 0 0.09375,0 z m -3.062501,0 a 1.026575,1.026575 0 0 0 0.90625,-1.0625 l 0,-3.65625 a 1.026575,1.026575 0 1 0 -2.03125,0 l 0,3.65625 a 1.026575,1.026575 0 0 0 1.125,1.0625 z"/>
</svg>
