<svg xmlns="http://www.w3.org/2000/svg" viewBox="0 0 32 32" xmlns:xlink="http://www.w3.org/1999/xlink">
<g transform="translate(0 -1020.3622)">
<path style="fill:#555555#2d2d2d#bada55;line-height:normal;color:#000" d="m 23.28125,1021.375 c -0.365829,0.062 -0.697981,0.299 -0.875,0.625 l -10.25,18.0625 -2.25,-4.0625 c -0.3251904,-0.575 -1.1582387,-0.787 -1.71875,-0.4375 L 2.875,1038.75 c -0.5417489,0.3253 -0.7479358,1.1058 -0.4375,1.6562 l 5.71875,10.3126 c 0.2081708,0.3956 0.6467057,0.6587 1.09375,0.6562 l 5.34375,-0.062 c 0.43045,-0 0.851121,-0.25 1.0625,-0.625 l 13.90625,-24.5318 c 0.310436,-0.5504 0.104249,-1.3309 -0.4375,-1.6562 l -5.03125,-2.9688 c -0.242203,-0.1431 -0.534519,-0.1993 -0.8125,-0.1562 z"/>
</g>
</svg>
