<svg xmlns="http://www.w3.org/2000/svg" width="16" viewBox="0 0 16 16" height="16">
 <g transform="matrix(0.0675,0,0,0.06923077,0.16000023,14)" fill="#bebebe">
  <path d="m 145.77777,-173.33333 44.44445,0 c 29.62963,0 29.62963,28.88889 29.62963,28.88889 l 0,43.33333 c 0,14.444444 -20.9312,28.888889 -29.62963,28.888889 l 0,21.666666 44.44444,21.666666 1e-5,28.888889 -133.33334,0 0,-28.888889 44.44444,-21.666666 0,-21.666666 c 0,0 -29.62963,-14.444445 -29.62963,-28.888889 l 0,-43.33333 c 0,0 0,-28.88889 29.62963,-28.88889 z" color="#000000"/>
 </g>
 <g transform="matrix(0.0525,0,0,0.05192308,-4.3199998,11)" fill="#bebebe">
  <path d="m 141.00105,-154.07406 55.57037,0 0,77.037028 38.09524,38.518516 L 177.52381,0 l 0,19.259258 -76.19048,0 0,-26.6666671 39.66772,-21.4814779 0,-28.888887 c 0,0 -20.69336,-8.116267 -20.6201,-19.259259 l 0,-57.777767 c 0,0 1.57248,-19.25926 20.6201,-19.25926 z" color="#000000"/>
 </g>
 <g transform="matrix(0.075,0,0,0.075,-17.780636,12.526475)" fill="#bebebe">
  <path d="m 161.3333,-158 22.22225,0 c 33.33331,0 33.33331,33.42833 33.33331,33.42833 l 0,33.081123 c 0,11.142992 -22.22219,33.776215 -22.22219,33.776215 l 0,11.142992 L 228,-24.285984 228,-2 l -61.11114,0 -61.11111,0 0,-22.285984 44.4445,-22.285356 0,-11.142992 c 0,0 -22.29551,-22.633223 -22.22225,-33.776215 l 0,-33.081123 c 0,0 -1.3e-4,-33.42833 33.3333,-33.42833 z m -77.77774,22.28598 22.22219,0 0,44.223473 c 0,11.142992 22.22225,33.776215 22.22225,33.776215 l -44.444439,22.285983 0,22.285357 L 28,-13.487724 l 0,-11.142992 44.444436,-21.938117 0,-11.142365 c 0,0 -22.295437,-22.634477 -22.222187,-33.776214 l 0,-10.795128 c 0,-33.42898 33.333187,-33.42898 33.333312,-33.42898 z" color="#000000"/>
 </g>
</svg>
