<?xml version="1.0" encoding="UTF-8" standalone="yes"?>
<svg xmlns="http://www.w3.org/2000/svg" xmlns:xlink="http://www.w3.org/1999/xlink" width="96px" height="96px" viewBox="0 0 72 72" version="1.1">
  <g id="surface1">
    <path style=" stroke:none;fill-rule:nonzero;fill:rgb(87.45098%,86.666667%,25.490196%);fill-opacity:1;" d="M 35.996094 3.007812 C 40.640625 3.171875 43.273438 19.585938 47.058594 22.308594 C 50.867188 25.042969 67.429688 22.246094 68.898438 26.691406 C 70.367188 31.140625 55.378906 38.757812 53.949219 43.21875 C 52.515625 47.675781 60.222656 62.535156 56.4375 65.300781 C 52.652344 68.070312 40.761719 56.214844 36.066406 56.234375 C 36.046875 56.234375 36.019531 56.246094 35.996094 56.246094 C 33.5625 38.5 33.839844 20.753906 35.996094 3.007812 Z M 35.996094 3.007812 "/>
    <path style=" stroke:none;fill-rule:nonzero;fill:rgb(50.196078%,50.196078%,50.196078%);fill-opacity:1;" d="M 35.921875 3 C 35.949219 3 35.972656 3.007812 35.996094 3.007812 L 35.996094 56.246094 C 31.265625 56.375 19.632812 68.320312 15.84375 65.597656 C 12.039062 62.859375 19.65625 47.8125 18.1875 43.363281 C 16.71875 38.917969 1.664062 31.441406 3.09375 26.984375 C 4.527344 22.527344 21.144531 25.222656 24.929688 22.453125 C 28.710938 19.6875 31.230469 3.019531 35.921875 3 Z M 35.921875 3 "/>
  </g>
</svg>