<?xml version="1.0" encoding="UTF-8" standalone="yes"?>
<svg xmlns="http://www.w3.org/2000/svg" xmlns:xlink="http://www.w3.org/1999/xlink" width="96px" height="96px" viewBox="0 0 72 72" version="1.1">
  <g id="surface1">
    <path style=" stroke:none;fill-rule:nonzero;fill:rgb(87.45098%,86.666667%,25.490196%);fill-opacity:1;" d="M 36 3.007812 C 31.355469 3.171875 28.722656 19.585938 24.9375 22.308594 C 21.132812 25.042969 4.566406 22.246094 3.097656 26.691406 C 1.632812 31.140625 16.617188 38.757812 18.050781 43.21875 C 19.480469 47.675781 11.777344 62.535156 15.558594 65.300781 C 19.34375 68.070312 31.238281 56.214844 35.929688 56.234375 C 35.953125 56.234375 35.976562 56.246094 36 56.246094 C 38.433594 38.5 38.15625 20.753906 36 3.007812 Z M 36 3.007812 "/>
    <path style=" stroke:none;fill-rule:nonzero;fill:rgb(50.196078%,50.196078%,50.196078%);fill-opacity:1;" d="M 36.074219 3 C 36.050781 3 36.027344 3.007812 36 3.007812 L 36 56.246094 C 40.734375 56.375 52.367188 68.320312 56.152344 65.597656 C 59.960938 62.859375 52.339844 47.8125 53.808594 43.363281 C 55.277344 38.917969 70.335938 31.441406 68.902344 26.984375 C 67.46875 22.527344 50.851562 25.222656 47.066406 22.453125 C 43.285156 19.6875 40.765625 3.019531 36.074219 3 Z M 36.074219 3 "/>
  </g>
</svg>