<?xml version="1.0" encoding="UTF-8" standalone="no"?>
<svg
   xmlns:dc="http://purl.org/dc/elements/1.1/"
   xmlns:cc="http://creativecommons.org/ns#"
   xmlns:rdf="http://www.w3.org/1999/02/22-rdf-syntax-ns#"
   xmlns:svg="http://www.w3.org/2000/svg"
   xmlns="http://www.w3.org/2000/svg"
   xmlns:sodipodi="http://sodipodi.sourceforge.net/DTD/sodipodi-0.dtd"
   xmlns:inkscape="http://www.inkscape.org/namespaces/inkscape"
   viewBox="0 0 48 48"
   id="svg2"
   version="1.1"
   inkscape:version="0.91 r"
   sodipodi:docname="applications-electronics.svg">
  <metadata
     id="metadata12">
    <rdf:RDF>
      <cc:Work
         rdf:about="">
        <dc:format>image/svg+xml</dc:format>
        <dc:type
           rdf:resource="http://purl.org/dc/dcmitype/StillImage" />
      </cc:Work>
    </rdf:RDF>
  </metadata>
  <defs
     id="defs10" />
  <sodipodi:namedview
     pagecolor="#ffffff"
     bordercolor="#666666"
     borderopacity="1"
     objecttolerance="10"
     gridtolerance="10"
     guidetolerance="10"
     inkscape:pageopacity="0"
     inkscape:pageshadow="2"
     inkscape:window-width="1920"
     inkscape:window-height="1056"
     id="namedview8"
     showgrid="true"
     inkscape:zoom="19.666667"
     inkscape:cx="24.216674"
     inkscape:cy="20.830061"
     inkscape:window-x="0"
     inkscape:window-y="24"
     inkscape:window-maximized="1"
     inkscape:current-layer="svg2">
    <inkscape:grid
       type="xygrid"
       id="grid4140" />
  </sodipodi:namedview>
  <g
     transform="translate(0 -1004.3622)"
     id="g4">
    <path
       style="color:#000000;line-height:normal;fill:#92a991"
       d="M 10 9 L 10 18 L 8 18 L 8 21 L 10 21 L 10 24 L 8 24 L 8 27 L 10 27 L 10 38 L 8 38 L 8 40 L 12 40 L 12 34 L 40 34 L 40 14 L 12 14 L 12 9 L 10 9 z M 12 16 L 38 16 L 38 32 L 12 32 L 12 16 z M 14 18 L 14 21 L 24 21 L 24 18 L 14 18 z M 26 18 L 26 21 L 36 21 L 36 18 L 26 18 z M 14 23 L 14 25 L 36 25 L 36 23 L 14 23 z M 14 26 L 14 28 L 36 28 L 36 26 L 14 26 z M 14 29 L 14 30 L 17 30 L 17 29 L 14 29 z M 18 29 L 18 30 L 20 30 L 20 29 L 18 29 z M 21 29 L 21 30 L 23 30 L 23 29 L 21 29 z M 24 29 L 24 30 L 26 30 L 26 29 L 24 29 z M 29 29 L 29 30 L 32 30 L 32 29 L 29 29 z M 33 29 L 33 30 L 36 30 L 36 29 L 33 29 z "
       transform="translate(0,1004.3622)"
       id="path6" />
  </g>
</svg>
