<?xml version="1.0" encoding="UTF-8" standalone="no"?>
<svg
   xmlns:dc="http://purl.org/dc/elements/1.1/"
   xmlns:cc="http://creativecommons.org/ns#"
   xmlns:rdf="http://www.w3.org/1999/02/22-rdf-syntax-ns#"
   xmlns:svg="http://www.w3.org/2000/svg"
   xmlns="http://www.w3.org/2000/svg"
   xmlns:sodipodi="http://sodipodi.sourceforge.net/DTD/sodipodi-0.dtd"
   xmlns:inkscape="http://www.inkscape.org/namespaces/inkscape"
   width="48"
   height="48"
   viewBox="0 0 38.4 38.4"
   id="svg2"
   version="1.1"
   inkscape:version="0.91 r"
   sodipodi:docname="applications-science.svg">
  <metadata
     id="metadata34">
    <rdf:RDF>
      <cc:Work
         rdf:about="">
        <dc:format>image/svg+xml</dc:format>
        <dc:type
           rdf:resource="http://purl.org/dc/dcmitype/StillImage" />
        <dc:title />
      </cc:Work>
    </rdf:RDF>
  </metadata>
  <defs
     id="defs32" />
  <sodipodi:namedview
     pagecolor="#ffffff"
     bordercolor="#666666"
     borderopacity="1"
     objecttolerance="10"
     gridtolerance="10"
     guidetolerance="10"
     inkscape:pageopacity="0"
     inkscape:pageshadow="2"
     inkscape:window-width="1920"
     inkscape:window-height="1056"
     id="namedview30"
     showgrid="true"
     inkscape:zoom="11.313708"
     inkscape:cx="23.810999"
     inkscape:cy="32.464201"
     inkscape:window-x="0"
     inkscape:window-y="24"
     inkscape:window-maximized="1"
     inkscape:current-layer="svg2">
    <inkscape:grid
       type="xygrid"
       id="grid4235" />
  </sodipodi:namedview>
  <g
     id="g4213"
     transform="translate(3.5221849e-4,0.0021357)">
    <path
       style="color:#000000;font-style:normal;font-variant:normal;font-weight:normal;font-stretch:normal;font-size:medium;line-height:normal;font-family:sans-serif;text-indent:0;text-align:start;text-decoration:none;text-decoration-line:none;text-decoration-style:solid;text-decoration-color:#000000;letter-spacing:normal;word-spacing:normal;text-transform:none;direction:ltr;block-progression:tb;writing-mode:lr-tb;baseline-shift:baseline;text-anchor:start;white-space:normal;clip-rule:nonzero;display:inline;overflow:visible;visibility:visible;opacity:1;isolation:auto;mix-blend-mode:normal;color-interpolation:sRGB;color-interpolation-filters:linearRGB;solid-color:#000000;solid-opacity:1;fill:#5b93d7;fill-opacity:1;fill-rule:evenodd;stroke:none;stroke-width:1.12220645;stroke-linecap:butt;stroke-linejoin:miter;stroke-miterlimit:4;stroke-dasharray:none;stroke-dashoffset:0;stroke-opacity:1;color-rendering:auto;image-rendering:auto;shape-rendering:auto;text-rendering:auto;enable-background:accumulate"
       d="M 16.25,5.4160156 C 15.178163,5.4290621 14.484375,5.5 14.484375,5.5 L 14.3125,5.519531 14.167969,5.615234 c -0.293863,0.1959085 -0.448008,0.6352876 -0.416016,0.9082031 0.03199,0.2729155 0.132136,0.4432417 0.222656,0.5878906 0.08776,0.1402494 0.114862,0.153172 0.189453,0.2382813 l 0.154297,4.261719 -4.199218,16.486328 c -0.7798824,2.582295 -0.9647505,4.19867 -0.9355472,5.21875 0.014667,0.512319 0.084889,0.876139 0.1660156,1.132813 0.081127,0.256672 0.2304687,0.474609 0.2304687,0.474609 l 0.052734,0.06836 0.068359,0.05469 c 2.6188989,2.027758 5.6754609,2.304806 8.3710939,2.099609 -0.01516,-0.41589 0.0015,-0.873591 0.105468,-1.429687 -2.497436,0.204271 -5.217044,-0.01716 -7.496093,-1.720703 -0.03521,-0.116588 -0.08458,-0.330184 -0.0957,-0.71875 -0.02316,-0.808889 0.127569,-2.297782 0.886718,-4.802735 l 0.0039,-0.01563 4.25,-16.697265 -0.171874,-4.8359382 c 0.545997,-0.040555 1.824529,-0.035451 3.59375,0.1132813 l -0.453126,4.6171879 3.044922,14.082031 0.902344,-2.470703 -2.53125,-11.693359 0.433594,-4.3984382 c 0.09883,-0.1573212 0.318483,-0.2744501 0.33789,-0.4082031 0.04636,-0.3195254 -0.03125,-0.5761719 -0.03125,-0.5761719 L 20.732422,5.7519531 20.283203,5.6816406 C 18.772211,5.448791 17.321837,5.4029692 16.25,5.4160156 Z"
       transform="scale(0.8,0.8)"
       id="path8"
       inkscape:connector-curvature="0"
       sodipodi:nodetypes="sccccccccssccccccsccccccccccscccs" />
    <path
       style="fill:#adc3e2;fill-rule:evenodd"
       d="m 11.986328,28.5 -0.0039,0.02344 c -0.0049,0.01954 -0.0098,0.03418 -0.0098,0.04883 -0.751952,2.480468 -0.89453,3.936523 -0.875,4.693359 0.0098,0.27832 0.03418,0.439453 0.05859,0.546875 2.160125,1.538718 4.719741,1.704241 7.113281,1.484375 0.189391,-0.807657 0.514184,-1.755253 1.03711,-2.882813 l 1.417968,-3.890624 c -3.85519,1.739601 -6.771304,1.08833 -8.738281,-0.02344 z"
       transform="scale(0.8,0.8)"
       id="path12"
       inkscape:connector-curvature="0"
       sodipodi:nodetypes="ccccccccc" />
  </g>
  <path
     style="color:#000000;font-style:normal;font-variant:normal;font-weight:normal;font-stretch:normal;font-size:medium;line-height:normal;font-family:sans-serif;text-indent:0;text-align:start;text-decoration:none;text-decoration-line:none;text-decoration-style:solid;text-decoration-color:#000000;letter-spacing:normal;word-spacing:normal;text-transform:none;direction:ltr;block-progression:tb;writing-mode:lr-tb;baseline-shift:baseline;text-anchor:start;white-space:normal;clip-rule:nonzero;display:inline;overflow:visible;visibility:visible;opacity:1;isolation:auto;mix-blend-mode:normal;color-interpolation:sRGB;color-interpolation-filters:linearRGB;solid-color:#000000;solid-opacity:1;fill:#5b93d7;fill-opacity:1;fill-rule:evenodd;stroke:none;stroke-width:1.12220645;stroke-linecap:butt;stroke-linejoin:miter;stroke-miterlimit:4;stroke-dasharray:none;stroke-dashoffset:0;stroke-opacity:1;color-rendering:auto;image-rendering:auto;shape-rendering:auto;text-rendering:auto;enable-background:accumulate"
     d="m 21.344102,6.0861201 -0.279297,0.060547 -0.470703,1.0761719 0.351562,0.1953125 c 0.0028,0.024056 0.0059,0.054687 0.0059,0.054687 l 0,0.017578 0.111328,3.1191415 0.01953,0.06445 c 0.03215,0.112572 0.04532,0.110941 0.05859,0.125 -7.26e-4,-0.01821 -0.110761,0.226833 -0.222656,0.417969 -0.119116,0.203471 -0.230469,0.380859 -0.230469,0.380859 l -0.0332,0.05078 -5.208985,14.285157 0.01953,-0.04492 c -0.963383,2.0618 -1.12179,3.400705 -0.982422,4.287109 0.06968,0.443202 0.216033,0.768907 0.363281,0.986328 0.13863,0.204696 0.301671,0.322402 0.322266,0.337891 4.341464,3.633791 9.838754,2.469836 12.375,2.0625 2.902156,-0.465399 3.492187,-3.230469 3.492187,-3.230469 l 0.01953,-0.09961 -0.01758,-0.101563 C 30.034201,24.402623 26.385319,10.904913 26.332383,10.709167 l 0.347657,-2.8164063 -0.002,-0.048828 c -0.01252,-0.257708 0.09184,-0.341797 0.09184,-0.341797 l 0.19336,-0.1992188 -0.04102,-0.2753906 C 26.859888,6.606736 26.507324,6.3142539 26.256211,6.2267451 26.00612,6.1395922 25.789238,6.1601763 25.787461,6.1603388 l -0.002,0 C 22.800615,5.8241509 21.344102,6.0861201 21.344102,6.0861201 Z m 0.699219,1.1054687 c 0.230899,-0.042364 1.016214,-0.2355143 3.710937,0.085937 l 0.01758,0.00195 c -0.111786,0.2081929 -0.232854,0.2499451 -0.214845,0.6191443 l 0.0039,-0.095703 -0.369141,2.9843749 0.0293,0.105469 c 0,0 3.676054,13.642391 4.681641,19.304687 -0.02336,0.132212 -0.35655,1.908131 -2.53711,2.257813 l -0.002,0 c -2.61466,0.419938 -7.605312,1.455353 -11.501903,-1.828125 l -0.02344,-0.01953 -0.02539,-0.01758 c 0,0 0.01877,0.02587 -0.03711,-0.05664 -0.05588,-0.08251 -0.139992,-0.24153 -0.185544,-0.53125 -0.0911,-0.57944 -0.01321,-1.704311 0.890625,-3.638672 l 0.01172,-0.02148 5.177734,-14.201172 c 0.02836,-0.04473 0.104146,-0.163042 0.216797,-0.355469 0.131864,-0.225247 0.266465,-0.412585 0.349609,-0.720703 0.06395,-0.236962 0.03312,-0.475013 -0.0293,-0.632812 -0.01036,-0.02618 -0.01844,-0.03662 -0.0293,-0.05859 l -0.105468,-2.9042974 0,0.037109 c 0,0 -8e-5,-0.1490903 -0.0293,-0.3144531 z"
     id="path14"
     inkscape:connector-curvature="0" />
  <path
     style="fill:#adc3e2;fill-rule:evenodd"
     inkscape:connector-curvature="0"
     id="path28"
     d="m 17.691325,24.664674 -0.652343,1.785156 c -0.0078,0.02734 -0.01953,0.05469 -0.03125,0.08203 -0.882813,1.886719 -0.933594,2.9375 -0.859375,3.410156 0.03516,0.230469 0.09766,0.328126 0.117187,0.355469 3.679688,3.105469 8.335938,2.121094 10.996094,1.695313 1.613281,-0.257813 1.996094,-1.4375 2.078125,-1.789063 -0.230469,-1.289062 -0.601562,-2.992187 -1.03125,-4.851562 -4.78125,1.183593 -8.269531,0.433593 -10.617188,-0.6875 z" />
  <g
     id="g4209"
     transform="translate(3.5221849e-4,0.0021357)" />
</svg>
