<svg xmlns="http://www.w3.org/2000/svg" viewBox="0 0 48 48" xmlns:xlink="http://www.w3.org/1999/xlink">
<g transform="translate(0 -1004.3622)">
<path style="fill:#555555#5555555;line-height:normal;color:#000" d="m 24.004902,1008.3651 c -11.022007,0 -19.9921514,8.9701 -19.9921514,19.9921 0,11.022 8.9701444,19.9922 19.9921514,19.9922 11.022006,0 19.99215,-8.9702 19.99215,-19.9922 0,-11.022 -8.970144,-19.9921 -19.99215,-19.9921 z m 0,3.9984 c 8.860245,0 15.99372,7.1335 15.99372,15.9937 0,8.8603 -7.133475,15.9937 -15.99372,15.9937 -8.860246,0 -15.9937212,-7.1334 -15.9937212,-15.9937 0,-8.8602 7.1334752,-15.9937 15.9937212,-15.9937 z"/>
<path style="fill:#555555none" d="M 24 18.5 C 20.962434 18.5 18.5 20.962434 18.5 24 C 18.5 27.037566 20.962434 29.5 24 29.5 C 27.037566 29.5 29.5 27.037566 29.5 24 C 29.5 20.962434 27.037566 18.5 24 18.5 z M 24 20 C 26.197294 20 28 21.8027 28 24 C 28 26.1973 26.197294 28 24 28 C 21.802706 28 20 26.1973 20 24 C 20 21.8027 21.802706 20 24 20 z M 24 22 C 22.883586 22 22 22.8836 22 24 C 22 25.1164 22.883586 26 24 26 C 25.116414 26 26 25.1164 26 24 C 26 22.8836 25.116414 22 24 22 z " transform="translate(0 1004.3622)"/>
<path style="fill:#555555#5555555;line-height:normal;color:#000" d="m -55.995099,958.36506 c -11.022006,0 -19.992151,8.97014 -19.992151,19.99215 0,11.02201 8.970145,19.99215 19.992151,19.99215 11.022007,0 19.992151,-8.97014 19.992151,-19.99215 0,-11.02201 -8.970144,-19.99215 -19.992151,-19.99215 z m 0,3.99843 c 8.860246,0 15.993721,7.13347 15.993721,15.99372 0,8.86025 -7.133475,15.99372 -15.993721,15.99372 -8.860245,0 -15.99372,-7.13347 -15.99372,-15.99372 0,-8.86025 7.133475,-15.99372 15.99372,-15.99372 z"/>
</g>
</svg>
