<svg xmlns="http://www.w3.org/2000/svg" viewBox="0 0 48 48" xmlns:xlink="http://www.w3.org/1999/xlink">
<g transform="translate(0 -1004.3622)">
<path style="fill:#555555#5555555;line-height:normal;color:#000" d="m 24,4 c 0,0 -12,0 -12,9 l 0,7 c 0,0 -4,0 -4,4 l 0,16 c 0,4 4,4 4,4 l 24,0 c 0,0 4,0 4,-4 l 0,-16 c 0,-4 -4,-4 -4,-4 l 0,-7 C 36,4 24,4 24,4 z M 23.6875,9 C 23.878906,8.9882812 24,9 24,9 c 0,0 7,0 7,6 l 0,5 -14,0 0,-5 C 17,9.75 22.347656,9.0820312 23.6875,9 z M 29,23 l 5,3 -9,14 -5,0 -5,-8 4,-3 3,5 z" transform="translate(0 1004.3622)"/>
</g>
</svg>
