<svg xmlns="http://www.w3.org/2000/svg" viewBox="0 0 48 48">
<g style="fill:#555555#5555555;line-height:normal;color:#000">
<path d="m 22.956472,10.96875 a 3.0003,3.0003 0 0 1 2.15625,5.15625 l -4.875,4.875 11.78125,0 c 2.5,0 4.579729,1.690708 5.3125,3.15625 C 38.064242,25.621792 38.018971,27 38.018971,27 l 0,5 a 3.0003,3.0003 0 1 1 -5.999999,0 l 0,-5 -11.78125,0 4.875,4.875 a 3.0052038,3.0052038 0 0 1 -4.25,4.25 l -10,-10 a 3.0003,3.0003 0 0 1 0,-4.25 l 10,-10 a 3.0003,3.0003 0 0 1 2.0625,-0.90625 3.0003,3.0003 0 0 1 0.03125,0 z"/>
<path style="opacity:.4" d="m 17.811616,10.907714 c -0.769476,0.02243 -1.525544,0.354637 -2.0625,0.90625 l -9.9999917,10 c -1.1149651,1.111323 -1.1149651,3.138677 0,4.25 l 9.9999917,10 c 1.247198,1.278949 3.669118,1.051386 4.65625,-0.4375 l -9.531244,-9.53125 c -1.1149625,-1.111323 -1.1149625,-3.138677 0,-4.25 l 9.562494,-9.5625 c -0.55362,-0.859675 -1.571523,-1.399286 -2.59375,-1.375 -0.01042,-5.4e-5 -0.02083,-5.4e-5 -0.03125,0 z m 2.46875,10.03125 -0.03125,0.03125 c 9.020728,9.45e-4 8.933903,-0.03125 0.03125,-0.03125 z"/>
</g>
</svg>
