<svg xmlns="http://www.w3.org/2000/svg" viewBox="0 0 48 48" xmlns:xlink="http://www.w3.org/1999/xlink">
<g style="fill:#555555#5555555;stroke:#000;stroke-linejoin:round">
<path d="m 24.031644,2.971403 11.141145,9.484256 -11.141145,8.798647 -0.02857,-5.484871 c -2.181607,0.06015 -5.956935,2.063226 -7.541698,3.599447 -3.913857,3.794616 -3.934496,9.670667 -1.138038,13.45179 2.525177,3.41432 5.948695,4.113795 8.222664,4.113795 6.603234,0 10.728973,-5.405662 11.112577,-7.709958 l 7.970203,-1.05698 c -0.64787,11.007595 -10.312605,17.014634 -18.79711,16.825985 l 0,0.02857 C 19.058371,45.15107 14.291881,43.36419 10.662268,39.651481 3.5647719,32.39134 3.5470649,20.669028 10.976505,13.398374 14.628515,9.8243414 19.194945,8.2300414 24.003074,8.1420394 z"/>
<path style="stroke-linecap:round;stroke-width:2" d="m 26.231178,27.163726 a 2.3572,2.3572 0 0 1 -4.7144,0 2.3572,2.3572 0 1 1 4.7144,0 z"/>
</g>
</svg>
