<svg xmlns="http://www.w3.org/2000/svg" viewBox="0 0 48 48" xmlns:xlink="http://www.w3.org/1999/xlink">
<defs>
<linearGradient id="linearGradient3842">
<stop offset="0" style="stop-color:#d25439"/>
<stop offset="1" style="stop-color:#a73b00"/>
</linearGradient>
<linearGradient id="linearGradient3824">
<stop offset="0" style="stop-color:#e4e6e2"/>
<stop offset=".5" style="stop-color:#d7dad3"/>
<stop offset="1" style="stop-color:#b7beb1"/>
</linearGradient>
<radialGradient cx="24" cy="24" gradientTransform="matrix(1.53333 .53333 -.61089 1.7563 1.8613 -30.95123)" xlink:href="#linearGradient3824" id="radialGradient3832" r="15" gradientUnits="userSpaceOnUse"/>
<radialGradient cx="24" cy="15.499" gradientTransform="matrix(1 0 0 .49993 .00001 7.75051)" xlink:href="#linearGradient3842" id="radialGradient3848" r="15" gradientUnits="userSpaceOnUse"/>
</defs>
<g style="line-height:normal;color:#000">
<path style="fill:url(#radialGradient3832)" d="m 10.352222,15.377036 c -0.7365233,0.07671 -1.3561607,0.764041 -1.3522003,1.499923 l 0,25.623117 C 9.0001006,43.285413 9.7191392,43.999922 10.509455,44 l 26.981112,0 C 38.280883,43.999922 38.999921,43.285413 39,42.500076 L 39,17.03125 c 0,0 0,-1.65625 -1.46875,-1.65625 l -27.021795,0.002 c -0.05236,-0.0027 -0.104869,-0.0027 -0.157233,-4e-6 z"/>
<path style="fill:url(#radialGradient3848)" d="m 12,13 c -3,0 -3,3 -3,3 l 0,4 30,0 0,-4 c 0,0 0,-3 -3,-3 l -23,0 c -0.05236,-0.0027 1.65625,0 -1,0 z"/>
</g>
<g style="fill:#555753">
<path d="m 15,28 2,0 0,-1 4,0 0,3 -6,0 0,7 8,0 0,-2 -6,0 0,-3 6,0 0,-7 -8,0 z"/>
<path d="m 25,25 0,5 1,1 -1,1 0,5 8,0 0,-5 -1,-1 1,-1 0,-5 -8,0 z m 2,2 4,0 0,3 -4,0 0,-3 z m 0,5 4,0 0,3 -4,0 0,-2 0,-1 z"/>
</g>
</svg>
