<?xml version="1.0" encoding="UTF-8"?>
<svg xmlns="http://www.w3.org/2000/svg" xmlns:xlink="http://www.w3.org/1999/xlink" width="16px" height="16px" viewBox="0 0 16 16" version="1.1">
<defs>
<filter id="alpha" filterUnits="objectBoundingBox" x="0%" y="0%" width="100%" height="100%">
  <feColorMatrix type="matrix" in="SourceGraphic" values="0 0 0 0 1 0 0 0 0 1 0 0 0 0 1 0 0 0 1 0"/>
</filter>
<mask id="mask0">
  <g filter="url(#alpha)">
<rect x="0" y="0" width="16" height="16" style="fill:rgb(0%,0%,0%);fill-opacity:0.301961;stroke:none;"/>
  </g>
</mask>
<clipPath id="clip1">
  <rect width="16" height="16"/>
</clipPath>
<g id="surface6" clip-path="url(#clip1)">
<path style=" stroke:none;fill-rule:nonzero;fill:rgb(0%,0%,0%);fill-opacity:1;" d="M 12.480469 3.636719 C 13.105469 3.617188 13.726562 3.921875 14.023438 4.394531 C 14.320312 4.867188 14.28125 5.484375 13.921875 5.925781 L 8.296875 13.207031 C 7.742188 13.917969 6.394531 14.03125 5.691406 13.417969 L 2.316406 10.507812 C 1.628906 9.980469 1.59375 8.941406 2.246094 8.382812 C 2.898438 7.824219 4.101562 7.859375 4.707031 8.457031 L 6.625 10.113281 L 11.109375 4.300781 C 11.40625 3.90625 11.933594 3.648438 12.480469 3.636719 Z "/>
</g>
</defs>
<g id="surface1">
<use xlink:href="#surface6" mask="url(#mask0)"/>
<path style=" stroke:none;fill-rule:nonzero;fill:rgb(86.27451%,86.27451%,86.27451%);fill-opacity:1;" d="M 12.480469 2.90625 C 13.105469 2.890625 13.726562 3.195312 14.023438 3.667969 C 14.320312 4.140625 14.28125 4.757812 13.921875 5.199219 L 8.296875 12.480469 C 7.742188 13.191406 6.394531 13.300781 5.691406 12.691406 L 2.316406 9.777344 C 1.628906 9.253906 1.59375 8.214844 2.246094 7.65625 C 2.898438 7.097656 4.101562 7.132812 4.707031 7.730469 L 6.625 9.382812 L 11.109375 3.574219 C 11.40625 3.179688 11.933594 2.921875 12.480469 2.90625 Z "/>
</g>
</svg>
