<?xml version="1.0" encoding="UTF-8"?>
<svg xmlns="http://www.w3.org/2000/svg" xmlns:xlink="http://www.w3.org/1999/xlink" width="16px" height="16px" viewBox="0 0 16 16" version="1.1">
<defs>
<filter id="alpha" filterUnits="objectBoundingBox" x="0%" y="0%" width="100%" height="100%">
  <feColorMatrix type="matrix" in="SourceGraphic" values="0 0 0 0 1 0 0 0 0 1 0 0 0 0 1 0 0 0 1 0"/>
</filter>
<mask id="mask0">
  <g filter="url(#alpha)">
<rect x="0" y="0" width="16" height="16" style="fill:rgb(0%,0%,0%);fill-opacity:0.301961;stroke:none;"/>
  </g>
</mask>
<clipPath id="clip1">
  <rect width="16" height="16"/>
</clipPath>
<g id="surface6" clip-path="url(#clip1)">
<path style="fill-rule:nonzero;fill:rgb(0%,0%,0%);fill-opacity:1;stroke-width:0.674;stroke-linecap:butt;stroke-linejoin:miter;stroke:rgb(0%,0%,0%);stroke-opacity:1;stroke-miterlimit:4;" d="M 3.862073 1022.748881 L 6.25673 1022.748881 C 6.859581 1022.748881 7.361957 1023.235186 7.361957 1023.858265 L 7.361957 1032.870117 C 7.361957 1033.477999 6.859581 1033.979501 6.25673 1033.979501 L 3.862073 1033.979501 C 3.242476 1033.979501 2.756847 1033.477999 2.756847 1032.870117 L 2.756847 1023.858265 C 2.756847 1023.235186 3.242476 1022.748881 3.862073 1022.748881 Z " transform="matrix(0.233267,0,0,0.25704,1.728013,-255.684247)"/>
<path style="fill-rule:nonzero;fill:rgb(0%,0%,0%);fill-opacity:1;stroke-width:0.491;stroke-linecap:round;stroke-linejoin:round;stroke:rgb(0%,0%,0%);stroke-opacity:1;stroke-miterlimit:4;" d="M 6.893073 1023.26558 L 20.507454 1011.487866 L 20.507454 1026.426567 L 22.165294 1028.842898 L 20.507454 1030.666544 L 20.507454 1045.240516 L 6.842835 1033.857925 Z " transform="matrix(0.233267,0,0,0.25704,1.728013,-255.684247)"/>
</g>
<mask id="mask1">
  <g filter="url(#alpha)">
<rect x="0" y="0" width="16" height="16" style="fill:rgb(0%,0%,0%);fill-opacity:0.301961;stroke:none;"/>
  </g>
</mask>
<clipPath id="clip2">
  <rect width="16" height="16"/>
</clipPath>
<g id="surface9" clip-path="url(#clip2)">
<path style=" stroke:none;fill-rule:nonzero;fill:rgb(0%,0%,0%);fill-opacity:1;" d="M 8.078125 6.574219 L 8.578125 6.574219 C 8.585938 6.574219 8.589844 6.574219 8.59375 6.574219 C 8.722656 6.582031 8.851562 6.644531 8.9375 6.746094 L 10.078125 7.988281 L 11.234375 6.746094 C 11.367188 6.617188 11.457031 6.582031 11.578125 6.574219 L 12.078125 6.574219 L 12.078125 7.121094 C 12.078125 7.277344 12.0625 7.421875 11.953125 7.53125 L 10.8125 8.773438 L 11.9375 10 C 12.03125 10.101562 12.078125 10.246094 12.078125 10.390625 L 12.078125 10.9375 L 11.578125 10.9375 C 11.445312 10.9375 11.3125 10.886719 11.21875 10.785156 L 10.078125 9.542969 L 8.9375 10.785156 C 8.84375 10.886719 8.710938 10.9375 8.578125 10.9375 L 8.078125 10.9375 L 8.078125 10.390625 C 8.078125 10.246094 8.125 10.101562 8.21875 10 L 9.359375 8.773438 L 8.21875 7.53125 C 8.113281 7.425781 8.070312 7.273438 8.078125 7.121094 Z "/>
</g>
</defs>
<g id="surface1">
<use xlink:href="#surface6" mask="url(#mask0)"/>
<path style="fill-rule:nonzero;fill:rgb(33.333333%,80.392157%,93.72549%);fill-opacity:1;stroke-width:0.674;stroke-linecap:butt;stroke-linejoin:miter;stroke:rgb(33.333333%,80.392157%,93.72549%);stroke-opacity:1;stroke-miterlimit:4;" d="M 3.859044 1022.751644 L 6.253701 1022.751644 C 6.856552 1022.751644 7.358928 1023.237949 7.358928 1023.845831 L 7.358928 1032.87288 C 7.358928 1033.480762 6.856552 1033.982264 6.253701 1033.982264 L 3.859044 1033.982264 C 3.239447 1033.982264 2.753817 1033.480762 2.753817 1032.87288 L 2.753817 1023.845831 C 2.753817 1023.237949 3.239447 1022.751644 3.859044 1022.751644 Z " transform="matrix(0.233267,0,0,0.25704,1.60372,-256.41152)"/>
<path style="fill-rule:nonzero;fill:rgb(33.333333%,80.392157%,93.72549%);fill-opacity:1;stroke-width:0.491;stroke-linecap:round;stroke-linejoin:round;stroke:rgb(33.333333%,80.392157%,93.72549%);stroke-opacity:1;stroke-miterlimit:4;" d="M 6.890044 1023.268343 L 20.52117 1011.475432 L 20.52117 1026.42933 L 22.17901 1028.845661 L 20.52117 1030.669307 L 20.52117 1045.243279 L 6.839806 1033.860688 Z " transform="matrix(0.233267,0,0,0.25704,1.60372,-256.41152)"/>
<use xlink:href="#surface9" mask="url(#mask1)"/>
<path style=" stroke:none;fill-rule:nonzero;fill:rgb(33.333333%,80.392157%,93.72549%);fill-opacity:1;" d="M 8.078125 5.847656 L 8.578125 5.847656 C 8.585938 5.847656 8.589844 5.847656 8.59375 5.847656 C 8.722656 5.851562 8.851562 5.917969 8.9375 6.015625 L 10.078125 7.261719 L 11.234375 6.015625 C 11.367188 5.890625 11.457031 5.851562 11.578125 5.847656 L 12.078125 5.847656 L 12.078125 6.394531 C 12.078125 6.550781 12.0625 6.695312 11.953125 6.800781 L 10.8125 8.046875 L 11.9375 9.273438 C 12.03125 9.375 12.078125 9.519531 12.078125 9.664062 L 12.078125 10.210938 L 11.578125 10.210938 C 11.445312 10.210938 11.3125 10.160156 11.21875 10.058594 L 10.078125 8.8125 L 8.9375 10.058594 C 8.84375 10.160156 8.710938 10.210938 8.578125 10.210938 L 8.078125 10.210938 L 8.078125 9.664062 C 8.078125 9.519531 8.125 9.375 8.21875 9.273438 L 9.359375 8.046875 L 8.21875 6.800781 C 8.113281 6.699219 8.070312 6.546875 8.078125 6.394531 Z "/>
</g>
</svg>
