<?xml version="1.0" encoding="UTF-8" standalone="no"?>
<svg
   xmlns:dc="http://purl.org/dc/elements/1.1/"
   xmlns:cc="http://creativecommons.org/ns#"
   xmlns:rdf="http://www.w3.org/1999/02/22-rdf-syntax-ns#"
   xmlns:svg="http://www.w3.org/2000/svg"
   xmlns="http://www.w3.org/2000/svg"
   xmlns:sodipodi="http://sodipodi.sourceforge.net/DTD/sodipodi-0.dtd"
   xmlns:inkscape="http://www.inkscape.org/namespaces/inkscape"
   width="16"
   height="16"
   viewBox="0 0 16 16"
   id="svg3140"
   version="1.1"
   inkscape:version="0.91 r"
   sodipodi:docname="stock_volume-med.svg">
  <metadata
     id="metadata3190">
    <rdf:RDF>
      <cc:Work
         rdf:about="">
        <dc:format>image/svg+xml</dc:format>
        <dc:type
           rdf:resource="http://purl.org/dc/dcmitype/StillImage" />
      </cc:Work>
    </rdf:RDF>
  </metadata>
  <sodipodi:namedview
     pagecolor="#ffffff"
     bordercolor="#666666"
     borderopacity="1"
     objecttolerance="10"
     gridtolerance="10"
     guidetolerance="10"
     inkscape:pageopacity="0"
     inkscape:pageshadow="2"
     inkscape:window-width="1280"
     inkscape:window-height="998"
     id="namedview3188"
     showgrid="false"
     inkscape:zoom="29.5"
     inkscape:cx="4.1792613"
     inkscape:cy="9.4898042"
     inkscape:window-x="0"
     inkscape:window-y="0"
     inkscape:window-maximized="1"
     inkscape:current-layer="svg3140" />
  <defs
     id="defs3142" />
  <path
     style="fill:#ececec;fill-opacity:1"
     inkscape:connector-curvature="0"
     id="path3334"
     d="M 8.3640366,4.996979 7.6280281,5.7502521 c 0.9061615,0.9546825 0.9061615,2.4169184 0,3.3716009 l 0.7360085,0.7532731 c 1.436403,-1.5186301 1.436403,-3.359517 0,-4.8781471 z" />
  <path
     style="fill:#ececec;fill-opacity:1"
     inkscape:connector-curvature="0"
     id="path3336"
     d="m 9.4680486,4.6223569 c 1.4918014,1.522658 1.4918014,4.4793553 0,6.0020131 l 1.1040124,1.123868 c 2.136798,-2.1792549 2.136798,-6.0704939 0,-8.2497484 z" />
  <path
     style="fill:#ececec;fill-opacity:1;opacity:0.4"
     inkscape:connector-curvature="0"
     id="path3338"
     d="m 11.308069,3.1238675 c 2.623513,2.5297079 2.583942,6.4692843 0,8.9989925 l 1.104012,1.123867 c 3.430747,-3.3716009 3.470317,-7.8751259 0,-11.2467268 z" />
  <path
     style="fill:#ececec;fill-opacity:1"
     inkscape:connector-curvature="0"
     id="path3342-7"
     d="m 6.0000002,3.0000009 -2,2 0,5.0000001 2,2 3.2e-6,-3.0030213 1.4999968,-1.4969788 -1.5,-1.5 z"
     sodipodi:nodetypes="cccccccc" />
  <path
     style="fill:#ececec;fill-opacity:1"
     inkscape:connector-curvature="0"
     id="path3344-7"
     d="M 1.7499997,5.0000009 C 1.3588709,5.0000009 1,5.415923 1,5.8363159 l 0,3.32737 c 0,0.4830053 0.3266129,0.8363151 0.7499997,0.8363151 l 2.2500005,0 0,-5.0000001 z"
     sodipodi:nodetypes="ssssccs" />
</svg>
