<?xml version="1.0" encoding="UTF-8" standalone="no"?>
<svg
   xmlns:dc="http://purl.org/dc/elements/1.1/"
   xmlns:cc="http://creativecommons.org/ns#"
   xmlns:rdf="http://www.w3.org/1999/02/22-rdf-syntax-ns#"
   xmlns:svg="http://www.w3.org/2000/svg"
   xmlns="http://www.w3.org/2000/svg"
   xmlns:sodipodi="http://sodipodi.sourceforge.net/DTD/sodipodi-0.dtd"
   xmlns:inkscape="http://www.inkscape.org/namespaces/inkscape"
   width="16"
   height="16"
   viewBox="0 0 16 16"
   id="svg3036"
   version="1.1"
   inkscape:version="0.48.5 r10040"
   sodipodi:docname="audio-volume-low-panel.svg">
  <metadata
     id="metadata3088">
    <rdf:RDF>
      <cc:Work
         rdf:about="">
        <dc:format>image/svg+xml</dc:format>
        <dc:type
           rdf:resource="http://purl.org/dc/dcmitype/StillImage" />
      </cc:Work>
    </rdf:RDF>
  </metadata>
  <sodipodi:namedview
     pagecolor="#ffffff"
     bordercolor="#666666"
     borderopacity="1"
     objecttolerance="10"
     gridtolerance="10"
     guidetolerance="10"
     inkscape:pageopacity="0"
     inkscape:pageshadow="2"
     inkscape:window-width="1280"
     inkscape:window-height="970"
     id="namedview3086"
     showgrid="false"
     inkscape:zoom="20.85965"
     inkscape:cx="6.4404358"
     inkscape:cy="10.09122"
     inkscape:window-x="0"
     inkscape:window-y="0"
     inkscape:window-maximized="1"
     inkscape:current-layer="svg3036" />
  <defs
     id="defs3038">
    <clipPath
       id="clip1">
      <rect
         width="16"
         height="16"
         id="rect3041" />
    </clipPath>
    <filter
       width="100%"
       x="0"
       y="0"
       height="100%"
       filterUnits="objectBoundingBox"
       id="alpha">
      <feColorMatrix
         values="0 0 0 0 1 0 0 0 0 1 0 0 0 0 1 0 0 0 1 0"
         in="SourceGraphic"
         type="matrix"
         id="feColorMatrix3044" />
    </filter>
    <g
       style="clip-path:url(#clip1)"
       id="surface6"
       clip-path="url(#clip1)">
      <path
         style="fill:#000;stroke:#000;stroke-width:.674"
         d="M 3.862073 1022.748881 L 6.25673 1022.748881 C 6.859581 1022.748881 7.361957 1023.235186 7.361957 1023.858265 L 7.361957 1032.870117 C 7.361957 1033.477999 6.859581 1033.979501 6.25673 1033.979501 L 3.862073 1033.979501 C 3.242476 1033.979501 2.756847 1033.477999 2.756847 1032.870117 L 2.756847 1023.858265 C 2.756847 1023.235186 3.242476 1022.748881 3.862073 1022.748881 Z "
         transform="matrix(.23327 0 0 .25704 1.72801 -255.68425)"
         id="path3047" />
      <path
         style="fill:#000;stroke:#000;stroke-linejoin:round;stroke-linecap:round;stroke-width:.491"
         d="M 6.893073 1023.26558 L 20.507454 1011.487866 L 20.507454 1026.426567 L 22.165294 1028.842898 L 20.507454 1030.666544 L 20.507454 1045.240516 L 6.842835 1033.857925 Z "
         transform="matrix(.23327 0 0 .25704 1.72801 -255.68425)"
         id="path3049" />
    </g>
    <mask
       id="mask0">
      <g
         style="filter:url(#alpha)"
         id="g3052">
        <rect
           width="16"
           x="0"
           y="0"
           height="16"
           style="fill:#000;fill-opacity:.302"
           id="rect3054" />
      </g>
    </mask>
  </defs>
  <path
     sodipodi:nodetypes="cccccccc"
     d="m 6,4.0000005 -2,2 0,5.0000005 2,2 3.2e-6,-3.003022 L 7.5,8.5000005 l -1.5,-1.5 z"
     id="path3361"
     inkscape:connector-curvature="0"
     style="fill:#000000;fill-opacity:0.30196078" />
  <path
     sodipodi:nodetypes="ssssccs"
     d="M 1.7499995,6.0000005 C 1.3588707,6.0000005 1,6.4159226 1,6.8363155 l 0,3.3273705 c 0,0.483005 0.3266127,0.836315 0.7499995,0.836315 L 4,11.000001 4,6.0000005 z"
     id="path3363"
     inkscape:connector-curvature="0"
     style="fill:#000000;fill-opacity:0.30196078" />
  <path
     style="fill-opacity:0.3019608;fill:#000000"
     inkscape:connector-curvature="0"
     id="path3328"
     d="M 8.3640364,5.7502517 7.6280279,6.4994959 c 0.9061611,0.9546835 0.9061611,2.4169184 0,3.3756301 l 0.7360085,0.749244 c 1.4364029,-1.5146023 1.4364029,-3.3595161 0,-4.8741183 z" />
  <path
     style="fill-opacity:0.122"
     inkscape:connector-curvature="0"
     id="path3330"
     d="m 9.4680486,5.3716007 c 1.4918004,1.522659 1.4918004,4.4793553 0,6.0020153 l 1.1040114,1.123866 c 2.136798,-2.179255 2.136798,-6.0704931 0,-8.2497486 z" />
  <path
     style="fill-opacity:0.122"
     inkscape:connector-curvature="0"
     id="path3332"
     d="m 11.308068,3.8731113 c 2.623513,2.5297079 2.583942,6.4692857 0,8.9989937 L 12.41208,14 c 3.430747,-3.37563 3.470317,-7.8751262 0,-11.250755 z" />
  <path
     style="fill:#dcdcdc;fill-opacity:1"
     inkscape:connector-curvature="0"
     id="path3334"
     d="M 8.3640364,4.9969786 7.6280279,5.7502517 c 0.9061611,0.9546825 0.9061611,2.4169184 0,3.3716009 L 8.3640364,9.875126 c 1.4364029,-1.5186304 1.4364029,-3.3595173 0,-4.8781474 z" />
  <path
     style="fill:#dcdcdc;fill-opacity:0.30199998"
     inkscape:connector-curvature="0"
     id="path3336"
     d="m 9.4680486,4.6223565 c 1.4918004,1.522658 1.4918004,4.4793553 0,6.0020135 l 1.1040114,1.123868 c 2.136798,-2.1792553 2.136798,-6.0704943 0,-8.2497488 z" />
  <path
     style="fill:#dcdcdc;fill-opacity:0.30199998"
     inkscape:connector-curvature="0"
     id="path3338"
     d="m 11.308068,3.1238671 c 2.623513,2.5297079 2.583942,6.4692843 0,8.9989929 l 1.104012,1.123867 c 3.430747,-3.371601 3.470317,-7.8751263 0,-11.2467272 z" />
  <path
     style="fill:#dcdcdc"
     inkscape:connector-curvature="0"
     id="path3342"
     d="m 6,3.0000005 -2,2 0,5.0000005 2,2 3.2e-6,-3.0030217 L 7.5,7.5000005 l -1.5,-1.5 z"
     sodipodi:nodetypes="cccccccc" />
  <path
     style="fill:#dcdcdc"
     inkscape:connector-curvature="0"
     id="path3344"
     d="M 1.7499995,5.0000005 C 1.3588707,5.0000005 1,5.4159226 1,5.8363155 l 0,3.32737 C 1,9.6466908 1.3266127,10.000001 1.7499995,10.000001 L 4,10.000001 4,5.0000005 z"
     sodipodi:nodetypes="ssssccs" />
</svg>
