<?xml version="1.0" encoding="UTF-8"?>
<svg xmlns="http://www.w3.org/2000/svg" xmlns:xlink="http://www.w3.org/1999/xlink" width="16px" height="16px" viewBox="0 0 16 16" version="1.1">
<defs>
<filter id="alpha" filterUnits="objectBoundingBox" x="0%" y="0%" width="100%" height="100%">
  <feColorMatrix type="matrix" in="SourceGraphic" values="0 0 0 0 1 0 0 0 0 1 0 0 0 0 1 0 0 0 1 0"/>
</filter>
<mask id="mask0">
  <g filter="url(#alpha)">
<rect x="0" y="0" width="16" height="16" style="fill:rgb(0%,0%,0%);fill-opacity:0.301961;stroke:none;"/>
  </g>
</mask>
<clipPath id="clip1">
  <rect width="16" height="16"/>
</clipPath>
<g id="surface6" clip-path="url(#clip1)">
<path style="fill-rule:nonzero;fill:rgb(0%,0%,0%);fill-opacity:1;stroke-width:0.674;stroke-linecap:butt;stroke-linejoin:miter;stroke:rgb(0%,0%,0%);stroke-opacity:1;stroke-miterlimit:4;" d="M 3.862073 1022.748881 L 6.25673 1022.748881 C 6.859581 1022.748881 7.361957 1023.235186 7.361957 1023.858265 L 7.361957 1032.870117 C 7.361957 1033.477999 6.859581 1033.979501 6.25673 1033.979501 L 3.862073 1033.979501 C 3.242476 1033.979501 2.756847 1033.477999 2.756847 1032.870117 L 2.756847 1023.858265 C 2.756847 1023.235186 3.242476 1022.748881 3.862073 1022.748881 Z " transform="matrix(0.233267,0,0,0.25704,1.728013,-255.684247)"/>
<path style="fill-rule:nonzero;fill:rgb(0%,0%,0%);fill-opacity:1;stroke-width:0.491;stroke-linecap:round;stroke-linejoin:round;stroke:rgb(0%,0%,0%);stroke-opacity:1;stroke-miterlimit:4;" d="M 6.893073 1023.26558 L 20.507454 1011.487866 L 20.507454 1026.426567 L 22.165294 1028.842898 L 20.507454 1030.666544 L 20.507454 1045.240516 L 6.842835 1033.857925 Z " transform="matrix(0.233267,0,0,0.25704,1.728013,-255.684247)"/>
</g>
<mask id="mask1">
  <g filter="url(#alpha)">
<rect x="0" y="0" width="16" height="16" style="fill:rgb(0%,0%,0%);fill-opacity:0.301961;stroke:none;"/>
  </g>
</mask>
<clipPath id="clip2">
  <rect width="16" height="16"/>
</clipPath>
<g id="surface9" clip-path="url(#clip2)">
<path style="fill:none;stroke-width:17.598;stroke-linecap:butt;stroke-linejoin:round;stroke:rgb(0%,0%,0%);stroke-opacity:1;stroke-miterlimit:4;" d="M 138.774829 -113.853362 C 157.326278 -95.124336 157.326278 -64.847661 138.774829 -46.176087 " transform="matrix(0.0623267,0,0,0.0679927,-0.45406,14.166982)"/>
<path style="fill:none;stroke-width:17.598;stroke-linecap:butt;stroke-linejoin:round;stroke:rgb(0%,0%,0%);stroke-opacity:1;stroke-miterlimit:4;" d="M 163.217617 -137.465722 C 194.617198 -105.69532 194.617198 -54.276677 163.217617 -22.563727 " transform="matrix(0.0623267,0,0,0.0679927,-0.45406,14.166982)"/>
<path style="fill:none;stroke-width:17.598;stroke-linecap:butt;stroke-linejoin:round;stroke:rgb(0%,0%,0%);stroke-opacity:1;stroke-miterlimit:4;" d="M 188.600512 -162.456905 C 233.725659 -116.898265 233.725659 -43.073733 188.600512 2.427457 " transform="matrix(0.0623267,0,0,0.0679927,-0.45406,14.166982)"/>
</g>
</defs>
<g id="surface1">
<use xlink:href="#surface6" mask="url(#mask0)"/>
<use xlink:href="#surface9" mask="url(#mask1)"/>
<path style="fill-rule:nonzero;fill:rgb(86.27451%,86.27451%,86.27451%);fill-opacity:1;stroke-width:0.674;stroke-linecap:butt;stroke-linejoin:miter;stroke:rgb(86.27451%,86.27451%,86.27451%);stroke-opacity:1;stroke-miterlimit:4;" d="M 3.859044 1022.751644 L 6.253701 1022.751644 C 6.856552 1022.751644 7.358928 1023.237949 7.358928 1023.845831 L 7.358928 1032.87288 C 7.358928 1033.480762 6.856552 1033.982264 6.253701 1033.982264 L 3.859044 1033.982264 C 3.239447 1033.982264 2.753817 1033.480762 2.753817 1032.87288 L 2.753817 1023.845831 C 2.753817 1023.237949 3.239447 1022.751644 3.859044 1022.751644 Z " transform="matrix(0.233267,0,0,0.25704,1.60372,-256.41152)"/>
<path style="fill-rule:nonzero;fill:rgb(86.27451%,86.27451%,86.27451%);fill-opacity:1;stroke-width:0.491;stroke-linecap:round;stroke-linejoin:round;stroke:rgb(86.27451%,86.27451%,86.27451%);stroke-opacity:1;stroke-miterlimit:4;" d="M 6.890044 1023.268343 L 20.52117 1011.475432 L 20.52117 1026.42933 L 22.17901 1028.845661 L 20.52117 1030.669307 L 20.52117 1045.243279 L 6.839806 1033.860688 Z " transform="matrix(0.233267,0,0,0.25704,1.60372,-256.41152)"/>
<path style="fill:none;stroke-width:17.598;stroke-linecap:butt;stroke-linejoin:round;stroke:rgb(86.27451%,86.27451%,86.27451%);stroke-opacity:1;stroke-miterlimit:4;" d="M 138.763491 -113.842916 C 157.31494 -95.171342 157.31494 -64.837215 138.763491 -46.165641 " transform="matrix(0.0623267,0,0,0.0679927,-0.578353,13.439709)"/>
<path style="fill:none;stroke-width:17.598;stroke-linecap:butt;stroke-linejoin:round;stroke:rgb(86.27451%,86.27451%,86.27451%);stroke-opacity:1;stroke-miterlimit:4;" d="M 163.206279 -137.455276 C 194.668534 -105.742325 194.668534 -54.266232 163.206279 -22.553281 " transform="matrix(0.0623267,0,0,0.0679927,-0.578353,13.439709)"/>
<path style="fill:none;stroke-width:17.598;stroke-linecap:butt;stroke-linejoin:round;stroke:rgb(86.27451%,86.27451%,86.27451%);stroke-opacity:1;stroke-miterlimit:4;" d="M 188.651848 -162.44646 C 233.714321 -116.887819 233.714321 -43.120738 188.651848 2.437903 " transform="matrix(0.0623267,0,0,0.0679927,-0.578353,13.439709)"/>
</g>
</svg>
