<?xml version="1.0" encoding="UTF-8" standalone="no"?>
<svg
   xmlns:dc="http://purl.org/dc/elements/1.1/"
   xmlns:cc="http://creativecommons.org/ns#"
   xmlns:rdf="http://www.w3.org/1999/02/22-rdf-syntax-ns#"
   xmlns:svg="http://www.w3.org/2000/svg"
   xmlns="http://www.w3.org/2000/svg"
   xmlns:sodipodi="http://sodipodi.sourceforge.net/DTD/sodipodi-0.dtd"
   xmlns:inkscape="http://www.inkscape.org/namespaces/inkscape"
   width="16"
   height="16"
   viewBox="0 0 16 16"
   id="svg2"
   version="1.1"
   inkscape:version="0.91 r"
   sodipodi:docname="gpm-mouse-090.svg">
  <metadata
     id="metadata32">
    <rdf:RDF>
      <cc:Work
         rdf:about="">
        <dc:format>image/svg+xml</dc:format>
        <dc:type
           rdf:resource="http://purl.org/dc/dcmitype/StillImage" />
        <dc:title />
      </cc:Work>
    </rdf:RDF>
  </metadata>
  <sodipodi:namedview
     pagecolor="#ffffff"
     bordercolor="#666666"
     borderopacity="1"
     objecttolerance="10"
     gridtolerance="10"
     guidetolerance="10"
     inkscape:pageopacity="0"
     inkscape:pageshadow="2"
     inkscape:window-width="1366"
     inkscape:window-height="747"
     id="namedview30"
     showgrid="false"
     showguides="true"
     inkscape:guide-bbox="true"
     inkscape:zoom="20.85965"
     inkscape:cx="4.8660627"
     inkscape:cy="12.519155"
     inkscape:window-x="0"
     inkscape:window-y="21"
     inkscape:window-maximized="1"
     inkscape:current-layer="svg2" />
  <defs
     id="defs4" />
  <g
     id="g4211"
     transform="scale(0.72727273,0.72727273)">
    <path
       sodipodi:nodetypes="ssssssssssssssssssssss"
       inkscape:connector-curvature="0"
       id="path28-3"
       d="m 10.001953,2.9999999 c -1.21099,0 -2.311294,0.350435 -3.132812,0.955078 C 6.047622,4.5597219 5.5,5.4449769 5.5,6.4472659 l 0,9.0605461 c 0,1.002289 0.544767,1.895696 1.365234,2.511719 C 7.685702,18.635555 8.787936,19 10.001953,19 l 1.996094,0 c 1.214018,0 2.316251,-0.364445 3.136719,-0.980469 C 15.955233,17.403508 16.5,16.510101 16.5,15.507812 l 0,-9.0605461 c 0,-1.002289 -0.547622,-1.887544 -1.369141,-2.492188 -0.821518,-0.604643 -1.921822,-0.955078 -3.132812,-0.955078 z m 0.738281,1.761719 0.519532,0 c 0.376385,0 0.65625,0.258517 0.65625,0.607422 l 0,3.3222654 c 0,0.3489044 -0.301908,0.6503907 -0.65625,0.6503907 l -0.519532,0 c -0.354337,0 -0.65625,-0.3014878 -0.65625,-0.6503907 l 0,-3.3222654 c 0,-0.348903 0.279871,-0.607422 0.65625,-0.607422 z"
       style="color:#000000;font-style:normal;font-variant:normal;font-weight:normal;font-stretch:normal;font-size:medium;line-height:normal;font-family:sans-serif;text-indent:0;text-align:start;text-decoration:none;text-decoration-line:none;text-decoration-style:solid;text-decoration-color:#000000;letter-spacing:normal;word-spacing:normal;text-transform:none;direction:ltr;block-progression:tb;writing-mode:lr-tb;baseline-shift:baseline;text-anchor:start;white-space:normal;clip-rule:nonzero;display:inline;overflow:visible;visibility:visible;opacity:0.4;isolation:auto;mix-blend-mode:normal;color-interpolation:sRGB;color-interpolation-filters:linearRGB;solid-color:#000000;solid-opacity:1;fill:#ececec;fill-opacity:1;fill-rule:nonzero;stroke:none;stroke-width:0.94235951;stroke-linecap:round;stroke-linejoin:miter;stroke-miterlimit:4;stroke-dasharray:none;stroke-dashoffset:0;stroke-opacity:1;color-rendering:auto;image-rendering:auto;shape-rendering:auto;text-rendering:auto;enable-background:accumulate" />
  </g>
  <path
     style="color:#000000;font-style:normal;font-variant:normal;font-weight:normal;font-stretch:normal;font-size:medium;line-height:normal;font-family:sans-serif;text-indent:0;text-align:start;text-decoration:none;text-decoration-line:none;text-decoration-style:solid;text-decoration-color:#000000;letter-spacing:normal;word-spacing:normal;text-transform:none;direction:ltr;block-progression:tb;writing-mode:lr-tb;baseline-shift:baseline;text-anchor:start;white-space:normal;clip-rule:nonzero;display:inline;overflow:visible;visibility:visible;opacity:1;isolation:auto;mix-blend-mode:normal;color-interpolation:sRGB;color-interpolation-filters:linearRGB;solid-color:#000000;solid-opacity:1;fill:#ececec;fill-opacity:1;fill-rule:nonzero;stroke:none;stroke-width:0.94235951;stroke-linecap:round;stroke-linejoin:miter;stroke-miterlimit:4;stroke-dasharray:none;stroke-dashoffset:0;stroke-opacity:1;color-rendering:auto;image-rendering:auto;shape-rendering:auto;text-rendering:auto;enable-background:accumulate"
     d="M 4.5142045,3.3451705 C 4.1996158,3.7283079 4,4.1852809 4,4.6889204 l 0,6.5894886 c 0,0.728937 0.3961945,1.378688 0.9928977,1.826705 0.596704,0.448017 1.3983286,0.713068 2.2812499,0.713068 l 1.4517044,0 c 0.882923,0 1.684547,-0.265051 2.281251,-0.713068 C 11.603806,12.657097 12,12.007346 12,11.278409 L 12,4.6889204 C 12,4.1852809 11.800384,3.7283079 11.485796,3.3451705 l -6.9715915,0 z m 3.2968748,0.1178977 0.3778414,0 c 0.2737346,0 0.4772723,0.1880127 0.4772723,0.4417613 l 0,2.4161932 c 0,0.2537487 -0.219569,0.4730114 -0.4772723,0.4730114 l -0.3778414,0 c -0.2576997,0 -0.4772728,-0.2192639 -0.4772728,-0.4730114 l 0,-2.4161932 c 0,-0.2537476 0.2035426,-0.4417614 0.4772728,-0.4417613 z"
     id="path28"
     inkscape:connector-curvature="0" />
</svg>
