<?xml version="1.0" encoding="UTF-8" standalone="no"?>
<svg
   xmlns:dc="http://purl.org/dc/elements/1.1/"
   xmlns:cc="http://creativecommons.org/ns#"
   xmlns:rdf="http://www.w3.org/1999/02/22-rdf-syntax-ns#"
   xmlns:svg="http://www.w3.org/2000/svg"
   xmlns="http://www.w3.org/2000/svg"
   xmlns:sodipodi="http://sodipodi.sourceforge.net/DTD/sodipodi-0.dtd"
   xmlns:inkscape="http://www.inkscape.org/namespaces/inkscape"
   width="16"
   height="16"
   viewBox="0 0 16 16"
   id="svg3167"
   version="1.1"
   inkscape:version="0.48.5 r10040"
   sodipodi:docname="gsm-3g-low-secure.svg">
  <metadata
     id="metadata3237">
    <rdf:RDF>
      <cc:Work
         rdf:about="">
        <dc:format>image/svg+xml</dc:format>
        <dc:type
           rdf:resource="http://purl.org/dc/dcmitype/StillImage" />
      </cc:Work>
    </rdf:RDF>
  </metadata>
  <sodipodi:namedview
     pagecolor="#ffffff"
     bordercolor="#666666"
     borderopacity="1"
     objecttolerance="10"
     gridtolerance="10"
     guidetolerance="10"
     inkscape:pageopacity="0"
     inkscape:pageshadow="2"
     inkscape:window-width="1280"
     inkscape:window-height="998"
     id="namedview3235"
     showgrid="true"
     inkscape:zoom="29.5"
     inkscape:cx="2.5696253"
     inkscape:cy="7.0576929"
     inkscape:window-x="0"
     inkscape:window-y="0"
     inkscape:window-maximized="1"
     inkscape:current-layer="svg3167">
    <inkscape:grid
       type="xygrid"
       id="grid4011" />
  </sodipodi:namedview>
  <defs
     id="defs3169">
    <clipPath
       id="clip2">
      <rect
         width="16"
         height="16"
         id="rect3172" />
    </clipPath>
    <clipPath
       id="clip3">
      <rect
         width="16"
         height="16"
         id="rect3175" />
    </clipPath>
    <clipPath
       id="clip1">
      <rect
         width="16"
         height="16"
         id="rect3178" />
    </clipPath>
    <filter
       width="100%"
       x="0"
       y="0"
       height="100%"
       filterUnits="objectBoundingBox"
       id="alpha">
      <feColorMatrix
         values="0 0 0 0 1 0 0 0 0 1 0 0 0 0 1 0 0 0 1 0"
         in="SourceGraphic"
         type="matrix"
         id="feColorMatrix3181" />
    </filter>
    <g
       style="clip-path:url(#clip3)"
       id="surface12"
       clip-path="url(#clip3)">
      <path
         style="fill:#000;fill-opacity:.302"
         d="M 8 9.453125 C 7.597656 9.453125 7.273438 9.777344 7.273438 10.183594 L 7.273438 13.816406 C 7.273438 14.222656 7.597656 14.546875 8 14.546875 C 8.402344 14.546875 8.726562 14.222656 8.726562 13.816406 L 8.726562 10.183594 C 8.726562 9.777344 8.402344 9.453125 8 9.453125 Z "
         id="path3184" />
      <path
         style="fill:#dcdcdc"
         d="M 8 8.726562 C 8.402344 8.726562 8.726562 9.054688 8.726562 9.453125 L 8.726562 13.089844 C 8.726562 13.492188 8.402344 13.816406 8 13.816406 C 7.597656 13.816406 7.273438 13.492188 7.273438 13.089844 L 7.273438 9.453125 C 7.273438 9.054688 7.597656 8.726562 8 8.726562 Z "
         id="path3186" />
    </g>
    <g
       style="clip-path:url(#clip2)"
       id="surface9"
       clip-path="url(#clip2)">
      <path
         style="fill:#000;fill-opacity:.302"
         d="M 10.910156 6.546875 C 10.507812 6.546875 10.183594 6.871094 10.183594 7.273438 L 10.183594 13.816406 C 10.183594 14.222656 10.507812 14.546875 10.910156 14.546875 C 11.3125 14.546875 11.636719 14.222656 11.636719 13.816406 L 11.636719 7.273438 C 11.636719 6.871094 11.3125 6.546875 10.910156 6.546875 Z "
         id="path3189" />
      <path
         style="fill:#dcdcdc"
         d="M 10.910156 5.816406 C 11.3125 5.816406 11.636719 6.144531 11.636719 6.546875 L 11.636719 13.089844 C 11.636719 13.492188 11.3125 13.816406 10.910156 13.816406 C 10.507812 13.816406 10.183594 13.492188 10.183594 13.089844 L 10.183594 6.546875 C 10.183594 6.144531 10.507812 5.816406 10.910156 5.816406 Z "
         id="path3191" />
    </g>
    <g
       style="clip-path:url(#clip1)"
       id="surface6"
       clip-path="url(#clip1)">
      <path
         style="fill:#000;fill-opacity:.302"
         d="M 13.820312 2.910156 C 13.414062 2.910156 13.089844 3.234375 13.089844 3.636719 L 13.089844 13.816406 C 13.089844 14.222656 13.414062 14.546875 13.820312 14.546875 C 14.222656 14.546875 14.546875 14.222656 14.546875 13.816406 L 14.546875 3.636719 C 14.546875 3.234375 14.222656 2.910156 13.820312 2.910156 Z "
         id="path3194" />
      <path
         style="fill:#dcdcdc"
         d="M 13.820312 2.183594 C 14.21875 2.183594 14.546875 2.507812 14.546875 2.910156 L 14.546875 13.089844 C 14.546875 13.492188 14.21875 13.816406 13.820312 13.816406 C 13.417969 13.816406 13.089844 13.492188 13.089844 13.089844 L 13.089844 2.910156 C 13.089844 2.507812 13.417969 2.183594 13.820312 2.183594 Z "
         id="path3196" />
    </g>
    <mask
       id="mask0">
      <g
         style="filter:url(#alpha)"
         id="g3199">
        <rect
           width="16"
           x="0"
           y="0"
           height="16"
           style="fill:#000;fill-opacity:.4"
           id="rect3201" />
      </g>
    </mask>
    <mask
       id="mask2">
      <g
         style="filter:url(#alpha)"
         id="g3204">
        <rect
           width="16"
           x="0"
           y="0"
           height="16"
           style="fill:#000;fill-opacity:.4"
           id="rect3206" />
      </g>
    </mask>
    <mask
       id="mask1">
      <g
         style="filter:url(#alpha)"
         id="g3209">
        <rect
           width="16"
           x="0"
           y="0"
           height="16"
           style="fill:#000;fill-opacity:.4"
           id="rect3211" />
      </g>
    </mask>
  </defs>
  <path
     d="m 13.789563,2.236719 c 0.402344,0 0.726562,0.324219 0.726562,0.726562 l 0,10.126563 c 0,0.402344 -0.324218,0.726562 -0.726562,0.726562 -0.402344,0 -0.726563,-0.324218 -0.726563,-0.726562 l 0,-10.126563 c 0,-0.402343 0.324219,-0.726562 0.726563,-0.726562 z"
     id="path4017"
     inkscape:connector-curvature="0"
     style="opacity:0.4;fill:#ececec;fill-opacity:1"
     sodipodi:nodetypes="sssssss" />
  <path
     style="fill:#ececec;fill-opacity:1"
     inkscape:connector-curvature="0"
     id="path3227"
     d="m 5.089844,11.636719 c 0.402344,0 0.726562,0.324219 0.726562,0.726562 l 0,0.726563 c 0,0.402344 -0.324218,0.726562 -0.726562,0.726562 -0.402344,0 -0.726563,-0.324218 -0.726563,-0.726562 l 0,-0.726563 c 0,-0.402343 0.324219,-0.726562 0.726563,-0.726562 z" />
  <path
     style="fill:#ececec;fill-opacity:1"
     inkscape:connector-curvature="0"
     id="path3229"
     d="M 0.363281,8 C 0.3125,8 0.269531,8.003906 0.226562,8.023438 0.1875,8.042969 0.144531,8.082031 0.113281,8.113281 L 0.0898438,8.136719 C 0.0664062,8.164062 0.0351562,8.191406 0.0234375,8.226562 -0.046875,8.359375 -0.0234375,8.523438 0.0898438,8.636719 l 2.0937502,2.089843 0,2.726563 c 0,0.203125 0.160156,0.363281 0.363281,0.363281 0.199219,0 0.363281,-0.160156 0.363281,-0.363281 l 0,-2.726563 L 5,8.636719 C 5.113281,8.523438 5.136719,8.359375 5.066406,8.226562 5.054688,8.191406 5.023438,8.164062 5,8.136719 L 4.976562,8.113281 C 4.910156,8.046875 4.816406,8.003906 4.726562,8 z M 1.25,8.726562 l 0.933594,0 0,0.910157 z m 1.660156,0 0.929688,0 -0.929688,0.933594 z" />
  <path
     style="fill:#ececec;fill-opacity:1"
     d="M 13.816406 9.453125 C 13.011719 9.453125 12.363281 10.117188 12.363281 10.933594 L 12.363281 11.636719 C 11.960938 11.636719 11.636719 11.960938 11.636719 12.363281 L 11.636719 14.546875 C 11.636719 14.949219 11.960938 15.273438 12.363281 15.273438 L 15.273438 15.273438 C 15.675781 15.273438 16 14.949219 16 14.546875 L 16 12.363281 C 16 11.960938 15.675781 11.636719 15.273438 11.636719 L 15.273438 10.933594 C 15.273438 10.117188 14.625 9.453125 13.816406 9.453125 Z M 13.816406 10.183594 C 14.222656 10.183594 14.546875 10.503906 14.546875 10.910156 L 14.546875 11.636719 L 13.089844 11.636719 L 13.089844 10.910156 C 13.089844 10.503906 13.414062 10.183594 13.816406 10.183594 Z "
     id="path3233" />
  <path
     d="m 7.989563,8.736719 c 0.402344,0 0.726562,0.324219 0.726562,0.726562 l 0,3.626563 c 0,0.402344 -0.324218,0.726562 -0.726562,0.726562 -0.402344,0 -0.726563,-0.324218 -0.726563,-0.726562 l 0,-3.626563 c 0,-0.402343 0.324219,-0.726562 0.726563,-0.726562 z"
     id="path4013"
     inkscape:connector-curvature="0"
     style="fill:#ececec;fill-opacity:1;opacity:0.4"
     sodipodi:nodetypes="sssssss" />
  <path
     sodipodi:nodetypes="sssssss"
     style="opacity:0.4;fill:#ececec;fill-opacity:1"
     inkscape:connector-curvature="0"
     id="path4015"
     d="m 10.889563,5.836719 c 0.402344,0 0.726562,0.324219 0.726562,0.726562 l 0,6.526563 c 0,0.402344 -0.324218,0.726562 -0.726562,0.726562 -0.402344,0 -0.726563,-0.324218 -0.726563,-0.726562 l 0,-6.526563 c 0,-0.402343 0.324219,-0.726562 0.726563,-0.726562 z" />
</svg>
