<?xml version="1.0" encoding="UTF-8" standalone="no"?>
<!-- Created with Inkscape (http://www.inkscape.org/) -->

<svg
   xmlns:dc="http://purl.org/dc/elements/1.1/"
   xmlns:cc="http://creativecommons.org/ns#"
   xmlns:rdf="http://www.w3.org/1999/02/22-rdf-syntax-ns#"
   xmlns:svg="http://www.w3.org/2000/svg"
   xmlns="http://www.w3.org/2000/svg"
   xmlns:sodipodi="http://sodipodi.sourceforge.net/DTD/sodipodi-0.dtd"
   xmlns:inkscape="http://www.inkscape.org/namespaces/inkscape"
   width="16"
   height="16"
   id="svg2"
   version="1.1"
   inkscape:version="0.91 r"
   sodipodi:docname="indicator-workspaces-32.svg"
   inkscape:export-filename="/media/Data/Main/Visuals/Icons/Numix/Desktop/repos/numix-wiki/Gjorgi/Numix-folders/48/New/folder-144.png"
   inkscape:export-xdpi="270"
   inkscape:export-ydpi="270">
  <defs
     id="defs4" />
  <sodipodi:namedview
     id="base"
     pagecolor="#ffffff"
     bordercolor="#666666"
     borderopacity="1.0"
     inkscape:pageopacity="0.0"
     inkscape:pageshadow="2"
     inkscape:zoom="8.2228313"
     inkscape:cx="-8.1029574"
     inkscape:cy="32.446855"
     inkscape:document-units="px"
     inkscape:current-layer="layer1"
     showgrid="true"
     inkscape:window-width="1366"
     inkscape:window-height="747"
     inkscape:window-x="0"
     inkscape:window-y="21"
     inkscape:window-maximized="1"
     showguides="true"
     inkscape:guide-bbox="true">
    <inkscape:grid
       type="xygrid"
       id="grid2985"
       empspacing="5"
       visible="true"
       enabled="true"
       snapvisiblegridlinesonly="true" />
  </sodipodi:namedview>
  <metadata
     id="metadata7">
    <rdf:RDF>
      <cc:Work
         rdf:about="">
        <dc:format>image/svg+xml</dc:format>
        <dc:type
           rdf:resource="http://purl.org/dc/dcmitype/StillImage" />
        <dc:title />
      </cc:Work>
    </rdf:RDF>
  </metadata>
  <g
     inkscape:label="Layer 1"
     inkscape:groupmode="layer"
     id="layer1"
     transform="translate(0,-1036.5442)">
    <path
       style="fill:#ececec;fill-opacity:1;stroke:none"
       d="m 6.54562,1048.4984 -1.45454,1.4545 c -0.72727,0.7273 -0.72727,0.7273 0,0.7273 l 5.81816,0 c 0.72727,0 0.72727,0 0,-0.7273 l -1.45454,-1.4545 0,-0.7273 -2.90908,0 z"
       id="path3838"
       inkscape:connector-curvature="0"
       sodipodi:nodetypes="ccccccccc" />
    <path
       inkscape:connector-curvature="0"
       style="fill:#ececec;fill-opacity:1;stroke:none"
       d="m 3.63654,1039.0438 c -0.8058152,0 -1.45454,0.6488 -1.45454,1.4546 l 0,6.5454 c 0,0.8058 0.6487248,1.4546 1.45454,1.4546 l 8.72724,0 c 0.805815,0 1.45454,-0.6488 1.45454,-1.4546 l 0,-6.5454 c 0,-0.8058 -0.648725,-1.4546 -1.45454,-1.4546 l -8.72724,0 z m 0,1.4546 8.72724,0 0,6.5454 -8.72724,0 0,-6.5454 z"
       id="rect3831" />
    <g
       style="font-style:normal;font-variant:normal;font-weight:bold;font-stretch:normal;font-size:5.86397219px;line-height:125%;font-family:opensans;-inkscape-font-specification:'opensans Bold';letter-spacing:0px;word-spacing:0px;text-anchor:middle;fill:#ececec;fill-opacity:1;stroke:none;stroke-width:1px;stroke-linecap:butt;stroke-linejoin:miter;stroke-opacity:1"
       id="text4141"
       transform="translate(0.06214475,0)">
      <path
         d="m 6.8121006,1043.5893 q 0.4691922,0.1211 0.7115563,0.4225 0.2454714,0.2983 0.2454714,0.7613 0,0.6898 -0.5282296,1.0503 -0.5282295,0.3573 -1.5411874,0.3573 -0.3573318,0 -0.7177708,-0.059 -0.3573317,-0.056 -0.708449,-0.1708 l 0,-0.9229 q 0.3355811,0.1678 0.6649478,0.2548 0.3324739,0.084 0.6525189,0.084 0.4754066,0 0.7270924,-0.1647 0.2547931,-0.1647 0.2547931,-0.4723 0,-0.3169 -0.2610076,-0.4785 -0.2579003,-0.1647 -0.7643792,-0.1647 l -0.4785138,0 0,-0.7706 0.5033717,0 q 0.4505487,0 0.6711622,-0.1398 0.2206136,-0.1429 0.2206136,-0.4319 0,-0.2672 -0.2143991,-0.4133 -0.2143991,-0.146 -0.6059104,-0.146 -0.2889726,0 -0.5841597,0.065 -0.2951872,0.065 -0.587267,0.1927 l 0,-0.8763 q 0.3542245,-0.099 0.7022346,-0.1491 0.34801,-0.05 0.6835912,-0.05 0.9042047,0 1.3516462,0.2983 0.4505488,0.2952 0.4505488,0.8918 0,0.407 -0.2143991,0.668 -0.2143991,0.2579 -0.6338755,0.3636 z"
         style="font-style:normal;font-variant:normal;font-weight:bold;font-stretch:normal;font-size:6.36361265px;font-family:opensans;-inkscape-font-specification:'opensans Bold';letter-spacing:-0.54500002"
         id="path4139"
         inkscape:connector-curvature="0" />
      <path
         d="m 9.5607671,1045.2112 2.0414519,0 0,0.8794 -3.3713475,0 0,-0.8794 1.6934419,-1.4945 q 0.2268276,-0.2051 0.3355806,-0.4009 0.108754,-0.1957 0.108754,-0.407 0,-0.3263 -0.220614,-0.5252 -0.2175062,-0.1988 -0.5810524,-0.1988 -0.2796509,0 -0.6121249,0.1212 -0.3324739,0.118 -0.7115562,0.3542 l 0,-1.0192 q 0.4039402,-0.1336 0.7985588,-0.202 0.3946185,-0.071 0.7737009,-0.071 0.8327388,0 1.2926088,0.3666 0.462978,0.3667 0.462978,1.0223 0,0.3791 -0.195756,0.7085 -0.195756,0.3262 -0.823417,0.8762 l -0.9912069,0.87 z"
         style="font-style:normal;font-variant:normal;font-weight:bold;font-stretch:normal;font-size:6.36361265px;font-family:opensans;-inkscape-font-specification:'opensans Bold';letter-spacing:-0.54500002"
         id="path4141"
         inkscape:connector-curvature="0" />
    </g>
  </g>
</svg>
