<?xml version="1.0" encoding="UTF-8" standalone="no"?>
<svg
   xmlns:dc="http://purl.org/dc/elements/1.1/"
   xmlns:cc="http://creativecommons.org/ns#"
   xmlns:rdf="http://www.w3.org/1999/02/22-rdf-syntax-ns#"
   xmlns:svg="http://www.w3.org/2000/svg"
   xmlns="http://www.w3.org/2000/svg"
   xmlns:sodipodi="http://sodipodi.sourceforge.net/DTD/sodipodi-0.dtd"
   xmlns:inkscape="http://www.inkscape.org/namespaces/inkscape"
   width="16"
   height="16"
   viewBox="0 0 16 16"
   id="svg2"
   version="1.1"
   inkscape:version="0.48.5 r10040"
   sodipodi:docname="network-receive.svg">
  <metadata
     id="metadata32">
    <rdf:RDF>
      <cc:Work
         rdf:about="">
        <dc:format>image/svg+xml</dc:format>
        <dc:type
           rdf:resource="http://purl.org/dc/dcmitype/StillImage" />
      </cc:Work>
    </rdf:RDF>
  </metadata>
  <sodipodi:namedview
     pagecolor="#ffffff"
     bordercolor="#666666"
     borderopacity="1"
     objecttolerance="10"
     gridtolerance="10"
     guidetolerance="10"
     inkscape:pageopacity="0"
     inkscape:pageshadow="2"
     inkscape:window-width="1280"
     inkscape:window-height="970"
     id="namedview30"
     showgrid="true"
     inkscape:zoom="41.7193"
     inkscape:cx="6.6102845"
     inkscape:cy="8.0592377"
     inkscape:window-x="0"
     inkscape:window-y="0"
     inkscape:window-maximized="1"
     inkscape:current-layer="svg2">
    <inkscape:grid
       type="xygrid"
       id="grid3915" />
  </sodipodi:namedview>
  <defs
     id="defs4">
    <clipPath
       id="clip1">
      <rect
         width="16"
         height="16"
         id="rect7" />
    </clipPath>
    <filter
       width="100%"
       x="0"
       y="0"
       height="100%"
       filterUnits="objectBoundingBox"
       id="alpha">
      <feColorMatrix
         values="0 0 0 0 1 0 0 0 0 1 0 0 0 0 1 0 0 0 1 0"
         in="SourceGraphic"
         type="matrix"
         id="feColorMatrix10" />
    </filter>
    <g
       style="clip-path:url(#clip1)"
       id="surface6"
       clip-path="url(#clip1)">
      <path
         style="fill:#000;fill-rule:evenodd;fill-opacity:.302"
         d="M 8.726562 6.546875 L 5.089844 2.910156 L 1.453125 6.546875 L 3.636719 6.546875 L 3.636719 11.636719 L 6.546875 11.636719 L 6.546875 6.546875 Z "
         id="path13" />
      <path
         style="fill:#dcdcdc;fill-rule:evenodd"
         d="M 8.726562 5.816406 L 5.089844 2.183594 L 1.453125 5.816406 L 3.636719 5.816406 L 3.636719 10.910156 L 6.546875 10.910156 L 6.546875 5.816406 Z "
         id="path15" />
    </g>
    <mask
       id="mask0">
      <g
         style="filter:url(#alpha)"
         id="g18">
        <rect
           width="16"
           x="0"
           y="0"
           height="16"
           style="fill:#000;fill-opacity:.4"
           id="rect20" />
      </g>
    </mask>
  </defs>
  <path
     sodipodi:nodetypes="cccccccc"
     inkscape:connector-curvature="0"
     id="path3033"
     d="m 8,11 3.5,3.5 3.5,-3.5 -2,0 0,-5 -3,0 0,5 z"
     style="fill:#000000;fill-opacity:0.30199998;fill-rule:evenodd" />
  <path
     sodipodi:nodetypes="cccccccc"
     inkscape:connector-curvature="0"
     id="path3035"
     d="m 8,10 3.5,3.5 3.5,-3.5 -2,0 0,-5 -3,0 0,5 z"
     style="fill:#dcdcdc;fill-rule:evenodd" />
  <path
     sodipodi:nodetypes="cccccccc"
     inkscape:connector-curvature="0"
     id="path3033-3"
     d="m 7.9999999,6 -3.5,-3.5 L 1,6 l 1.9999999,0 0,5 3,0 0,-5 z"
     style="opacity:0.12000002;fill:#000000;fill-opacity:1;fill-rule:evenodd" />
  <path
     sodipodi:nodetypes="cccccccc"
     inkscape:connector-curvature="0"
     id="path3035-9"
     d="m 7.9999999,7 -3.5,-3.5 L 1,7 l 1.9999999,0 0,5 3,0 0,-5 z"
     style="opacity:0.4;fill:#dcdcdc;fill-rule:evenodd" />
</svg>
