<?xml version="1.0" encoding="UTF-8" standalone="no"?>
<svg
   xmlns:dc="http://purl.org/dc/elements/1.1/"
   xmlns:cc="http://creativecommons.org/ns#"
   xmlns:rdf="http://www.w3.org/1999/02/22-rdf-syntax-ns#"
   xmlns:svg="http://www.w3.org/2000/svg"
   xmlns="http://www.w3.org/2000/svg"
   xmlns:sodipodi="http://sodipodi.sourceforge.net/DTD/sodipodi-0.dtd"
   xmlns:inkscape="http://www.inkscape.org/namespaces/inkscape"
   width="14.545"
   height="16"
   viewBox="0 0 14.545 16"
   id="svg2"
   version="1.1"
   inkscape:version="0.91 r"
   sodipodi:docname="nm-adhoc.svg">
  <metadata
     id="metadata16">
    <rdf:RDF>
      <cc:Work
         rdf:about="">
        <dc:format>image/svg+xml</dc:format>
        <dc:type
           rdf:resource="http://purl.org/dc/dcmitype/StillImage" />
        <dc:title />
      </cc:Work>
    </rdf:RDF>
  </metadata>
  <defs
     id="defs14" />
  <sodipodi:namedview
     pagecolor="#ffffff"
     bordercolor="#666666"
     borderopacity="1"
     objecttolerance="10"
     gridtolerance="10"
     guidetolerance="10"
     inkscape:pageopacity="0"
     inkscape:pageshadow="2"
     inkscape:window-width="1366"
     inkscape:window-height="747"
     id="namedview12"
     showgrid="false"
     inkscape:zoom="7.375"
     inkscape:cx="-12.849009"
     inkscape:cy="2.6166015"
     inkscape:window-x="0"
     inkscape:window-y="21"
     inkscape:window-maximized="1"
     inkscape:current-layer="svg2" />
  <g
     id="g4140"
     transform="matrix(0.72725,0,0,0.72725,3.8146972e-8,2.5e-4)">
    <path
       id="path2995"
       d="M 3,3 C 2.446,3 2,3.4894 2,4.0938 l 0,9.8125 c 0,0.605 0.446,1.094 1,1.094 l 14,0 c 0.554,0 1,-0.48939 1,-1.0938 L 18,4.094 C 18,3.4899 17.554,3.0005 17,3.0005 l -14,0 z m 1,2 12,0 0,8 -12,0 0,-8 z m 3,11 0,1 -2,0 0,2 10,0 0,-2 -2,0 0,-1 -6,0 z"
       style="fill:#ececec;fill-opacity:1"
       inkscape:connector-curvature="0" />
    <path
       id="path2997"
       d="m 7.5026,10 c 0,0 0.49738,-1 2.4974,-1 2.00002,0 2.4974,1.0419 2.4974,1.0419 M 6.0004,8.5078 c 0,0 0.98176,-1.55 4,-1.5079 3.0182,0.04214 4,1.5079 4,1.5079 M 9.435,11.5649 c 0,0 -0.021,-0.565 0.5654,-0.565 0.57652,0 0.48168,0.56544 0.48168,0.56544"
       style="fill:none;fill-opacity:1;stroke:#ececec;stroke-width:1.37504292;stroke-linecap:round;stroke-opacity:1"
       inkscape:connector-curvature="0" />
  </g>
</svg>
