<?xml version="1.0" encoding="UTF-8" standalone="no"?>
<svg
   xmlns:dc="http://purl.org/dc/elements/1.1/"
   xmlns:cc="http://creativecommons.org/ns#"
   xmlns:rdf="http://www.w3.org/1999/02/22-rdf-syntax-ns#"
   xmlns:svg="http://www.w3.org/2000/svg"
   xmlns="http://www.w3.org/2000/svg"
   xmlns:sodipodi="http://sodipodi.sourceforge.net/DTD/sodipodi-0.dtd"
   xmlns:inkscape="http://www.inkscape.org/namespaces/inkscape"
   width="16"
   viewBox="0 0 16 16"
   height="16"
   id="svg2"
   version="1.1"
   inkscape:version="0.48.4 r9939"
   sodipodi:docname="smuxi-group-chat.svg">
  <metadata
     id="metadata12">
    <rdf:RDF>
      <cc:Work
         rdf:about="">
        <dc:format>image/svg+xml</dc:format>
        <dc:type
           rdf:resource="http://purl.org/dc/dcmitype/StillImage" />
      </cc:Work>
    </rdf:RDF>
  </metadata>
  <defs
     id="defs10" />
  <sodipodi:namedview
     pagecolor="#ffffff"
     bordercolor="#666666"
     borderopacity="1"
     objecttolerance="10"
     gridtolerance="10"
     guidetolerance="10"
     inkscape:pageopacity="0"
     inkscape:pageshadow="2"
     inkscape:window-width="1366"
     inkscape:window-height="742"
     id="namedview8"
     showgrid="false"
     inkscape:zoom="18.15938"
     inkscape:cx="8.246975"
     inkscape:cy="8.0012251"
     inkscape:window-x="0"
     inkscape:window-y="26"
     inkscape:window-maximized="1"
     inkscape:current-layer="svg2" />
  <g
     style="fill:#abb7be;fill-opacity:1"
     transform="matrix(0.075,0,0,0.07692308,-1.6,14.153846)"
     id="g4">
    <path
       style="line-height:normal;color:#000000;fill:#abb7be;fill-opacity:1"
       xml:space="preserve"
       d="m 161.3333,-158 22.22225,0 c 33.33331,0 33.33331,33.42833 33.33331,33.42833 l 0,33.081123 c 0,11.142992 -22.22219,33.776215 -22.22219,33.776215 l 0,11.142992 L 228,-24.285984 228,-2 l -61.11114,0 -61.11111,0 0,-22.285984 44.4445,-22.285356 0,-11.142992 c 0,0 -22.29551,-22.633223 -22.22225,-33.776215 l 0,-33.081123 c 0,0 -1.3e-4,-33.42833 33.3333,-33.42833 z m -77.77774,22.28598 22.22219,0 0,44.223473 c 0,11.142992 22.22225,33.776215 22.22225,33.776215 l -44.444439,22.285983 0,22.285357 L 28,-13.487724 l 0,-11.142992 44.444436,-21.938117 0,-11.142365 c 0,0 -22.295437,-22.634477 -22.222187,-33.776214 l 0,-10.795128 c 0,-33.42898 33.333187,-33.42898 33.333312,-33.42898 z"
       id="path6"
       inkscape:connector-curvature="0" />  </g>
</svg>
