<?xml version="1.0" encoding="UTF-8" standalone="no"?>
<svg
   xmlns:dc="http://purl.org/dc/elements/1.1/"
   xmlns:cc="http://creativecommons.org/ns#"
   xmlns:rdf="http://www.w3.org/1999/02/22-rdf-syntax-ns#"
   xmlns:svg="http://www.w3.org/2000/svg"
   xmlns="http://www.w3.org/2000/svg"
   xmlns:sodipodi="http://sodipodi.sourceforge.net/DTD/sodipodi-0.dtd"
   xmlns:inkscape="http://www.inkscape.org/namespaces/inkscape"
   width="16"
   viewBox="0 0 16 16"
   height="16"
   id="svg3049"
   version="1.1"
   inkscape:version="0.48.5 r10040"
   sodipodi:docname="user-invisible.svg">
  <metadata
     id="metadata3065">
    <rdf:RDF>
      <cc:Work
         rdf:about="">
        <dc:format>image/svg+xml</dc:format>
        <dc:type
           rdf:resource="http://purl.org/dc/dcmitype/StillImage" />
      </cc:Work>
    </rdf:RDF>
  </metadata>
  <sodipodi:namedview
     pagecolor="#ffffff"
     bordercolor="#666666"
     borderopacity="1"
     objecttolerance="10"
     gridtolerance="10"
     guidetolerance="10"
     inkscape:pageopacity="0"
     inkscape:pageshadow="2"
     inkscape:window-width="640"
     inkscape:window-height="480"
     id="namedview3063"
     showgrid="false"
     inkscape:zoom="14.75"
     inkscape:cx="8"
     inkscape:cy="8"
     inkscape:window-x="435"
     inkscape:window-y="118"
     inkscape:window-maximized="0"
     inkscape:current-layer="svg3049" />
  <defs
     id="defs3051">
    <clipPath
       id="clipPath3053">
      <rect
         width="16"
         height="16"
         id="rect3055" />
    </clipPath>
  </defs>
  <g
     style="line-height:normal;color:#000;fill:#939dac"
     id="g3057">
    <path
       style="opacity:0.29999999999999999;fill:#939dac"
       d="M 1.78125,2 C 1.3511142,2.0402461 0.99813709,2.442967 1,2.875 l 0,8.75 c 4.55e-5,0.458018 0.4168643,0.874913 0.875,0.875 l 7,0 3.5,3.5 0,-3.5 1.75,0 c 0.458136,-8.7e-5 0.874954,-0.416982 0.875,-0.875 l 0,-8.75 C 14.999954,2.4168946 14.583136,2 14.125,2 L 1.875,2 C 1.847674,1.9991251 1.808576,1.9991251 1.78125,2 z"
       id="path3059" />
    <path
       style="fill:#939dac"
       d="M 1.78125,1 C 1.3511142,1.0402461 0.99813709,1.442967 1,1.875 l 0,8.75 c 4.55e-5,0.458018 0.4168643,0.874913 0.875,0.875 l 7,0 3.5,3.5 0,-3.5 1.75,0 c 0.458136,-8.7e-5 0.874954,-0.416982 0.875,-0.875 l 0,-8.75 C 14.999954,1.4168946 14.583136,1 14.125,1 L 1.875,1 C 1.847674,0.99912507 1.808576,0.99912507 1.78125,1 z"
       id="path3061" />
  </g>
</svg>
