<?xml version="1.0" encoding="UTF-8" standalone="no"?>
<svg
   xmlns:dc="http://purl.org/dc/elements/1.1/"
   xmlns:cc="http://creativecommons.org/ns#"
   xmlns:rdf="http://www.w3.org/1999/02/22-rdf-syntax-ns#"
   xmlns:svg="http://www.w3.org/2000/svg"
   xmlns="http://www.w3.org/2000/svg"
   xmlns:sodipodi="http://sodipodi.sourceforge.net/DTD/sodipodi-0.dtd"
   xmlns:inkscape="http://www.inkscape.org/namespaces/inkscape"
   width="14.545"
   viewBox="0 0 14.545 16"
   height="16"
   id="svg3026"
   version="1.1"
   inkscape:version="0.91 r"
   sodipodi:docname="user-idle-panel.svg">
  <metadata
     id="metadata3042">
    <rdf:RDF>
      <cc:Work
         rdf:about="">
        <dc:format>image/svg+xml</dc:format>
        <dc:type
           rdf:resource="http://purl.org/dc/dcmitype/StillImage" />
        <dc:title />
      </cc:Work>
    </rdf:RDF>
  </metadata>
  <defs
     id="defs3040" />
  <sodipodi:namedview
     pagecolor="#ffffff"
     bordercolor="#666666"
     borderopacity="1"
     objecttolerance="10"
     gridtolerance="10"
     guidetolerance="10"
     inkscape:pageopacity="0"
     inkscape:pageshadow="2"
     inkscape:window-width="1366"
     inkscape:window-height="747"
     id="namedview3038"
     showgrid="false"
     inkscape:zoom="15.170655"
     inkscape:cx="15.041889"
     inkscape:cy="7.8914316"
     inkscape:window-x="0"
     inkscape:window-y="21"
     inkscape:window-maximized="1"
     inkscape:current-layer="svg3026" />
  <g
     id="g4134"
     transform="matrix(0.72728586,0,0,0.72728586,-5.7166653e-4,4.3632838)">
    <path
       style="fill:#ececec;fill-opacity:1;fill-rule:evenodd"
       d="M 9.5,-2 C 5.36,-2 2,1.36 2,5.5 2,9.64 5.36,13 9.5,13 c 1.9648,0 3.7561,-0.76222 5.0938,-2 l 5.406,0 -3.344,-3.344 c 0.208,-0.687 0.344,-1.401 0.344,-2.156 0,-4.14 -3.36,-7.5 -7.5,-7.5 z m 0,3 C 11.984,1 14,3.016 14,5.5 14,7.984 11.984,10 9.5,10 7.016,10 5,7.984 5,5.5 5,3.016 7.016,1 9.5,1 Z"
       id="path3034"
       inkscape:connector-curvature="0" />
    <path
       inkscape:connector-curvature="0"
       id="path3036"
       d="m 11.262,5.499 -1.762,0 0,-2.5"
       style="fill:none;stroke:#ececec;stroke-linecap:round;stroke-linejoin:round;stroke-opacity:1" />
  </g>
</svg>
