<?xml version="1.0" encoding="UTF-8" standalone="no"?>
<!-- Created with Inkscape (http://www.inkscape.org/) -->
<svg id="svg3187" xmlns:rdf="http://www.w3.org/1999/02/22-rdf-syntax-ns#" xmlns="http://www.w3.org/2000/svg" height="16" width="16" version="1.0" xmlns:cc="http://creativecommons.org/ns#" xmlns:dc="http://purl.org/dc/elements/1.1/">
 <metadata id="metadata10">
  <rdf:RDF>
   <cc:Work rdf:about="">
    <dc:format>image/svg+xml</dc:format>
    <dc:type rdf:resource="http://purl.org/dc/dcmitype/StillImage"/>
    <dc:title/>
   </cc:Work>
  </rdf:RDF>
 </metadata>
 <path id="path2397-2" style="opacity:.3;fill-rule:evenodd" d="m9 1c-1.1263 0-2.0808 0.5938-2.5938 1.4688-0.2888-0.206-0.6576-0.3126-1.0624-0.3126-0.92-1e-7 -1.6875 0.61768-1.6875 1.4062-1e-7 0.1771 0.056173 0.34346 0.125 0.5-1.0464 0.4008-1.7813 1.326-1.7813 2.3751 0 0.9411 0.5892 1.7179 1.4688 2.1563l6.2812-6.2813c0.14314-0.14723 0.32902-0.24563 0.53125-0.28125 0.35161-0.059063 0.71637 0.06408 0.9375 0.34375s0.26356 0.67149 0.125 1l-1.469 3.6562h1.5625c0.38772-0.0072 0.74375 0.21041 0.90625 0.5625s0.10074 0.7721-0.15625 1.0625l-0.15625 0.1875c1.141-0.3604 1.968-1.298 1.968-2.4062 0-1.1284-0.856-2.0895-2.031-2.4375 0.002-0.0488 0.031-0.1068 0.031-0.1562 0-1.5772-1.344-2.8438-3-2.8438zm1.4375 2-7 7h4l-3 6 7-8h-3l2-5z"/>
 <path id="path2397" style="fill-rule:evenodd;fill:#dfdbd2" d="m9 0c-1.1263 0-2.0808 0.59376-2.5938 1.4688-0.2888-0.206-0.6576-0.3126-1.0624-0.3126-0.92-1e-7 -1.6875 0.61768-1.6875 1.4062-1e-7 0.1771 0.056173 0.34346 0.125 0.5-1.0464 0.4008-1.7813 1.326-1.7813 2.3751 0 0.9411 0.5892 1.7179 1.4688 2.1563l6.2812-6.2813c0.14314-0.14723 0.32902-0.24563 0.53125-0.28125 0.35161-0.059063 0.71637 0.06408 0.9375 0.34375s0.26356 0.67149 0.125 1l-1.469 3.6562h1.5625c0.38772-0.0072 0.74375 0.21041 0.90625 0.5625s0.10074 0.7721-0.15625 1.0625l-0.15625 0.1875c1.141-0.3604 1.968-1.298 1.968-2.4062 0-1.1284-0.856-2.0895-2.031-2.4375 0.002-0.0488 0.031-0.1068 0.031-0.1562 0-1.5772-1.344-2.8438-3-2.8438zm1.4375 2-7 7h4l-3 6 7-8h-3l2-5z"/>
</svg>
