<?xml version="1.0" encoding="UTF-8" standalone="no"?>
<!-- Created with Inkscape (http://www.inkscape.org/) -->
<svg id="svg3187" xmlns:rdf="http://www.w3.org/1999/02/22-rdf-syntax-ns#" xmlns="http://www.w3.org/2000/svg" height="16" width="16" version="1.0" xmlns:cc="http://creativecommons.org/ns#" xmlns:dc="http://purl.org/dc/elements/1.1/">
 <metadata id="metadata10">
  <rdf:RDF>
   <cc:Work rdf:about="">
    <dc:format>image/svg+xml</dc:format>
    <dc:type rdf:resource="http://purl.org/dc/dcmitype/StillImage"/>
    <dc:title/>
   </cc:Work>
  </rdf:RDF>
 </metadata>
 <path id="path2397-8" style="opacity:.3;fill-rule:evenodd" d="m9 2c-1.1263 0-2.0807 0.5938-2.5937 1.4688-0.2889-0.206-0.6577-0.3126-1.0625-0.3126-0.92-1e-7 -1.6875 0.61768-1.6875 1.4062-1e-7 0.1771 0.056173 0.34346 0.125 0.5-1.0463 0.40073-1.7812 1.3259-1.7812 2.375 0 1.4246 1.338 2.5625 3 2.5625h1v-3.9688c0-0.51187 0.42563-0.9375 0.9375-0.9375h2.125c0.51187 0 0.9375 0.42563 0.9375 0.9375v3.9688h1c1.662 0 3-1.1379 3-2.5625 0-1.1284-0.85624-2.0895-2.0312-2.4375 0.0026-0.048815 0.03125-0.10682 0.03125-0.15625 0-1.5771-1.344-2.8438-3-2.8438zm-1 4c-0.554 0-1 0.446-1 1v5c0 0.554 0.446 1 1 1s1-0.446 1-1v-5c0-0.554-0.446-1-1-1zm-0.5 8c-0.277 0-0.5 0.223-0.5 0.5v0.5 0.5c0 0.277 0.223 0.5 0.5 0.5h0.5 0.5c0.277 0 0.5-0.223 0.5-0.5v-0.5-0.5c0-0.277-0.223-0.5-0.5-0.5h-0.5-0.5z"/>
 <path id="path2397" style="fill-rule:evenodd;fill:#dfdbd2" d="m9 1c-1.1263 0-2.0808 0.5938-2.5938 1.4688-0.2888-0.206-0.6576-0.3126-1.0624-0.3126-0.92-1e-7 -1.6875 0.61768-1.6875 1.4062-1e-7 0.1771 0.056173 0.34346 0.125 0.5-1.0464 0.4008-1.7813 1.326-1.7813 2.3751 0 1.4246 1.338 2.5625 3 2.5625h1v-3.9688c0-0.5118 0.4256-0.9374 0.9375-0.9374h2.125c0.5119 0 0.9375 0.4256 0.9375 0.9374v3.9688h1c1.662 0 3-1.1379 3-2.5625 0-1.1284-0.856-2.0895-2.031-2.4375 0.002-0.0488 0.031-0.1068 0.031-0.1562 0-1.5772-1.344-2.8438-3-2.8438z"/>
 <path id="path3160" style="fill-rule:evenodd;fill:#df382c" d="m8 5c-0.554 0-1 0.446-1 1v5c0 0.554 0.446 1 1 1s1-0.446 1-1v-5c0-0.554-0.446-1-1-1zm-0.5 8c-0.277 0-0.5 0.223-0.5 0.5v0.5 0.5c0 0.277 0.223 0.5 0.5 0.5h0.5 0.5c0.277 0 0.5-0.223 0.5-0.5v-0.5-0.5c0-0.277-0.223-0.5-0.5-0.5h-0.5-0.5z"/>
</svg>
