<svg height="22" version="1.1" viewBox="0 0 6.209 6.209" width="22" xmlns="http://www.w3.org/2000/svg">
 <path d="m1.164.194 0 .466-.512 0c-.116 0-.194.097-.194.194l-0 5.161c-0 .097.097.194.194.194l4.904 0c.097 0 .194-.097.194-.194L5.75.854C5.75.757 5.653.66 5.556.66l-.511 0 0-.466C5.045-0 5.045-0 4.851-0l-.504 0c-.194 0-.194 0-.194.194l0 .37-2.096 0 0-.37c0-.194 0-.194-.194-.194l-.504 0c-.194 0-.194 0-.194.194zm.258.064.376 0 0 .778c0 .322-.376.322-.376 0zm2.988 0 .376 0 0 .778c0 .322-.376.322-.376 0zm-3.564 1.682 4.516 0 0 3.881-4.516-0z" fill="#cacaca"/>
 <g transform="matrix(.2822 0 0 .2822 -9.498 -9.448)"/>
 <g fill="#3798d6" transform="scale(1.1417 .8759)">
  <path d="m2.608 5.8-1.626 0 0-.356.57-.615q.108-.116.196-.214.088-.098.151-.191.063-.093.098-.189.035-.096.035-.207 0-.123-.075-.191-.073-.068-.197-.068-.131 0-.252.065Q1.386 3.899 1.253 4.018L.975 3.688Q1.05 3.62 1.131 3.559 1.212 3.496 1.31 3.448q.098-.048.216-.076.118-.03.264-.03.174 0 .312.048.139.048.237.138.098.088.149.214.053.126.053.283 0 .143-.05.274Q2.44 4.427 2.354 4.553 2.268 4.678 2.154 4.802 2.041 4.925 1.912 5.052l-.292.293 0 .023.988 0 0 .431z" fill="#3798d6"/>
  <path d="m3.676 3.345q.151 0 .285.036.134.036.235.109.101.073.161.182.06.109.06.257 0 .109-.033.199-.033.088-.091.161-.058.071-.138.128-.08.056-.172.103.096.051.187.114.093.063.164.143.071.078.114.176.043.098.043.219 0 .151-.06.274-.06.123-.167.209-.108.086-.259.133-.149.046-.33.046-.196 0-.348-.045Q3.175 5.744 3.071 5.661 2.966 5.578 2.911 5.457q-.053-.121-.053-.272 0-.124.036-.224.036-.099.099-.179.063-.08.148-.141.085-.061.181-.108Q3.241 4.482 3.17 4.422 3.099 4.361 3.046 4.288 2.994 4.213 2.963 4.124 2.933 4.034 2.933 3.927q0-.144.06-.252Q3.054 3.565 3.157 3.492 3.26 3.418 3.394 3.381 3.528 3.345 3.676 3.345ZM3.332 5.155q0 .066.022.123.022.055.063.094.043.04.106.063.063.022.146.022.174 0 .26-.081.086-.083.086-.217 0-.07-.03-.124-.028-.056-.075-.103-.045-.048-.103-.088-.058-.04-.116-.076l-.036-.023q-.073.036-.133.08-.06.041-.103.093-.041.05-.065.109-.023.06-.023.129zM3.672 3.719q-.055 0-.103.017-.046.017-.081.048-.033.031-.053.078-.02.046-.02.104 0 .07.02.121.022.05.056.09.036.038.083.07.048.03.101.06.051-.027.098-.058.046-.031.081-.071.036-.041.058-.093.022-.051.022-.118 0-.058-.02-.104Q3.894 3.816 3.86 3.784 3.825 3.753 3.777 3.736 3.729 3.719 3.672 3.719Z" fill="#3798d6"/>
 </g>
</svg>
