<svg width="22" xmlns="http://www.w3.org/2000/svg" height="22" viewBox="0 0 22 22" xmlns:xlink="http://www.w3.org/1999/xlink">
<g style="stroke:#9c7a5f">
<path style="fill:#9c795f" d="M 5.769886 37.761563 C 5.071023 37.693381 4.482955 37.00304 4.482955 36.270085 L 4.482955 7.974631 C 4.482955 7.19054 5.164773 6.474631 5.914773 6.474631 L 41.113636 6.474631 C 41.863636 6.474631 42.545455 7.19054 42.545455 7.974631 L 42.545455 33.645085 C 42.545455 34.429176 41.863636 35.136563 41.113636 35.136563 L 27.366477 35.136563 L 27.366477 36.270085 C 27.366477 37.054176 26.684659 37.761563 25.943182 37.761563 L 5.914773 37.761563 C 5.863636 37.770085 5.821023 37.770085 5.769886 37.761563 Z " transform="matrix(.45833 0 0 .45833 0 .01293)"/>
<path style="fill:#dfb188" d="M 3.017045 10.497358 C 2.181818 10.56554 1.482955 11.247358 1.491477 11.97179 L 1.491477 39.985995 C 1.491477 40.761563 2.292614 41.468949 3.178977 41.468949 L 44.821023 41.468949 C 45.707386 41.468949 46.508523 40.761563 46.508523 39.985995 L 46.508523 14.579745 C 46.508523 13.804176 45.707386 13.09679 44.821023 13.09679 L 28.559659 13.09679 L 28.559659 11.97179 C 28.559659 11.204745 27.758523 10.497358 26.872159 10.497358 L 3.178977 10.497358 C 3.119318 10.497358 3.068182 10.497358 3.017045 10.497358 Z " transform="matrix(.45833 0 0 .45833 0 .01293)"/>
</g>
<path style="fill:#9c795f" d="M 7.164062 11.78125 C 6.75 11.78125 6.417969 12.113281 6.417969 12.519531 C 6.417969 12.925781 6.75 13.253906 7.164062 13.253906 C 7.574219 13.253906 7.910156 12.925781 7.910156 12.519531 C 7.910156 12.113281 7.574219 11.78125 7.164062 11.78125 Z M 12.492188 15.128906 C 12.132812 15.332031 12.011719 15.78125 12.21875 16.132812 C 12.425781 16.484375 12.878906 16.605469 13.238281 16.402344 C 13.59375 16.199219 13.714844 15.75 13.511719 15.394531 C 13.304688 15.042969 12.847656 14.925781 12.492188 15.128906 Z M 8.785156 12.519531 C 8.785156 11.792969 9.152344 11.148438 9.710938 10.761719 L 9.164062 9.859375 C 8.511719 10.289062 8.027344 10.945312 7.824219 11.71875 C 8.058594 11.90625 8.210938 12.195312 8.210938 12.519531 C 8.210938 12.84375 8.058594 13.128906 7.824219 13.320312 C 8.027344 14.089844 8.511719 14.75 9.164062 15.179688 L 9.710938 14.277344 C 9.152344 13.886719 8.785156 13.246094 8.785156 12.519531 Z M 10.964844 10.371094 C 12.101562 10.371094 13.035156 11.230469 13.136719 12.328125 L 14.199219 12.3125 C 14.144531 11.503906 13.789062 10.773438 13.234375 10.238281 C 12.953125 10.34375 12.625 10.328125 12.339844 10.167969 C 12.058594 10.007812 11.878906 9.734375 11.832031 9.4375 C 11.554688 9.363281 11.265625 9.320312 10.964844 9.320312 C 10.449219 9.320312 9.960938 9.441406 9.527344 9.652344 L 10.046875 10.570312 C 10.324219 10.441406 10.636719 10.371094 10.964844 10.371094 Z M 10.964844 14.667969 C 10.636719 14.667969 10.324219 14.597656 10.046875 14.46875 L 9.527344 15.382812 C 9.960938 15.597656 10.449219 15.714844 10.964844 15.714844 C 11.265625 15.714844 11.554688 15.675781 11.832031 15.597656 C 11.878906 15.304688 12.058594 15.03125 12.339844 14.871094 C 12.625 14.707031 12.953125 14.691406 13.234375 14.796875 C 13.789062 14.261719 14.144531 13.535156 14.199219 12.726562 L 13.136719 12.710938 C 13.039062 13.808594 12.101562 14.667969 10.964844 14.667969 Z M 12.492188 9.910156 C 12.847656 10.113281 13.304688 9.992188 13.511719 9.640625 C 13.714844 9.289062 13.59375 8.839844 13.238281 8.636719 C 12.878906 8.433594 12.425781 8.554688 12.21875 8.90625 C 12.011719 9.257812 12.132812 9.707031 12.492188 9.910156 Z "/>
</svg>
