<svg width="22" xmlns="http://www.w3.org/2000/svg" height="22" viewBox="0 0 22 22" xmlns:xlink="http://www.w3.org/1999/xlink">
<g style="stroke:#a77b55">
<path style="fill:#a77b55" d="M 5.778409 37.985795 C 5.079545 37.917614 4.482955 37.21875 4.491477 36.46875 L 4.491477 7.789773 C 4.491477 6.997159 5.173295 6.28125 5.923295 6.28125 L 41.258523 6.28125 C 42.008523 6.28125 42.690341 6.997159 42.690341 7.789773 L 42.690341 33.809659 C 42.690341 34.602273 42.008523 35.326705 41.258523 35.326705 L 27.460227 35.326705 L 27.460227 36.46875 C 27.460227 37.261364 26.778409 37.985795 26.028409 37.985795 L 5.923295 37.985795 C 5.872159 37.985795 5.829545 37.985795 5.778409 37.985795 Z " transform="scale(.45833)"/>
<path style="fill:#e9b080" d="M 3.017045 10.022727 C 2.190341 10.090909 1.491477 10.789773 1.491477 11.53125 L 1.491477 40.201705 C 1.491477 40.994318 2.301136 41.71875 3.178977 41.71875 L 44.821023 41.71875 C 45.698864 41.71875 46.508523 40.994318 46.508523 40.201705 L 46.508523 14.198864 C 46.508523 13.397727 45.698864 12.681818 44.821023 12.681818 L 28.559659 12.681818 L 28.559659 11.53125 C 28.559659 10.738636 27.758523 10.022727 26.872159 10.022727 L 3.178977 10.022727 C 3.127841 10.014205 3.076705 10.014205 3.017045 10.022727 Z " transform="scale(.45833)"/>
</g>
<g style="fill:#a77b55">
<path d="M 7.839844 8.707031 C 7.585938 8.734375 7.363281 9.003906 7.367188 9.296875 L 7.367188 15.46875 C 7.371094 15.773438 7.613281 16.046875 7.882812 16.042969 L 14.164062 16.042969 C 14.429688 16.035156 14.664062 15.769531 14.667969 15.46875 L 14.667969 9.296875 C 14.671875 8.992188 14.433594 8.710938 14.164062 8.707031 Z M 8.273438 9.625 L 13.753906 9.625 L 13.753906 14.207031 L 8.273438 14.207031 Z "/>
<g style="fill-rule:evenodd">
<path d="M 7.355469 13.492188 C 7.460938 13.414062 7.703125 13.183594 8.101562 12.789062 C 8.5 12.390625 9.03125 11.84375 9.71875 11.128906 C 10.167969 11.769531 10.5 12.230469 10.746094 12.535156 C 10.984375 12.832031 11.117188 12.964844 11.148438 12.929688 C 11.40625 12.699219 11.617188 12.507812 11.804688 12.335938 C 11.984375 12.167969 12.125 12.027344 12.238281 11.914062 C 12.796875 12.617188 13.261719 13.199219 13.667969 13.6875 C 14.070312 14.175781 14.386719 14.542969 14.632812 14.8125 L 13.109375 13.546875 C 12.984375 13.871094 12.777344 14.039062 12.488281 14.054688 C 12.1875 14.0625 11.734375 13.699219 11.367188 13.632812 C 11 13.566406 10.636719 13.773438 10.308594 13.660156 C 9.976562 13.542969 9.71875 13.078125 9.40625 12.957031 C 9.09375 12.835938 8.777344 12.835938 8.441406 12.957031 C 8.082031 13.132812 7.71875 13.3125 7.355469 13.492188 Z "/>
<path d="M 7.332031 13.25 C 7.4375 13.167969 7.683594 12.941406 8.082031 12.546875 C 8.476562 12.148438 9.007812 11.601562 9.699219 10.882812 C 10.148438 11.523438 10.480469 11.988281 10.726562 12.292969 C 10.964844 12.59375 11.097656 12.722656 11.128906 12.6875 C 11.382812 12.457031 11.597656 12.265625 11.78125 12.09375 C 11.964844 11.925781 12.105469 11.785156 12.21875 11.671875 C 12.777344 12.375 13.242188 12.957031 13.648438 13.445312 C 14.050781 13.933594 14.367188 14.300781 14.613281 14.570312 L 13.089844 13.304688 C 12.964844 13.632812 12.757812 13.796875 12.464844 13.8125 C 12.171875 13.824219 11.714844 13.457031 11.347656 13.390625 C 10.980469 13.324219 10.617188 13.527344 10.289062 13.417969 C 9.957031 13.296875 9.699219 12.835938 9.386719 12.714844 C 9.074219 12.597656 8.757812 12.597656 8.421875 12.714844 C 8.058594 12.890625 7.695312 13.070312 7.332031 13.25 Z "/>
</g>
<path d="M 8.734375 12.832031 L 12.375 12.832031 C 12.882812 12.832031 13.292969 13.242188 13.292969 13.75 L 13.292969 14.207031 C 13.292969 14.714844 12.882812 15.125 12.375 15.125 L 8.734375 15.125 C 8.226562 15.125 7.816406 14.714844 7.816406 14.207031 L 7.816406 13.75 C 7.816406 13.242188 8.226562 12.832031 8.734375 12.832031 Z "/>
<path d="M 13.296875 13.75 L 13.746094 13.75 C 14 13.75 14.207031 13.957031 14.207031 14.207031 C 14.207031 14.460938 14 14.667969 13.746094 14.667969 L 13.296875 14.667969 C 13.042969 14.667969 12.835938 14.460938 12.835938 14.207031 C 12.835938 13.957031 13.042969 13.75 13.296875 13.75 Z "/>
<path d="M 12.851562 13.347656 L 13.304688 13.347656 C 13.429688 13.347656 13.535156 13.449219 13.535156 13.578125 L 13.535156 14.035156 C 13.535156 14.164062 13.429688 14.265625 13.304688 14.265625 L 12.851562 14.265625 C 12.722656 14.265625 12.621094 14.164062 12.621094 14.035156 L 12.621094 13.578125 C 12.621094 13.449219 12.722656 13.347656 12.851562 13.347656 Z "/>
</g>
</svg>
