<svg width="22" xmlns="http://www.w3.org/2000/svg" height="22" viewBox="0 0 22 22" xmlns:xlink="http://www.w3.org/1999/xlink">
<g style="stroke:#9c7a5f">
<path style="fill:#9c795f" d="M 5.769886 37.761563 C 5.071023 37.693381 4.482955 37.00304 4.482955 36.270085 L 4.482955 7.974631 C 4.482955 7.19054 5.164773 6.474631 5.914773 6.474631 L 41.113636 6.474631 C 41.863636 6.474631 42.545455 7.19054 42.545455 7.974631 L 42.545455 33.645085 C 42.545455 34.429176 41.863636 35.136563 41.113636 35.136563 L 27.366477 35.136563 L 27.366477 36.270085 C 27.366477 37.054176 26.684659 37.761563 25.943182 37.761563 L 5.914773 37.761563 C 5.863636 37.770085 5.821023 37.770085 5.769886 37.761563 Z " transform="matrix(.45833 0 0 .45833 0 .01293)"/>
<path style="fill:#dfb188" d="M 3.017045 10.497358 C 2.181818 10.56554 1.482955 11.247358 1.491477 11.97179 L 1.491477 39.985995 C 1.491477 40.761563 2.292614 41.468949 3.178977 41.468949 L 44.821023 41.468949 C 45.707386 41.468949 46.508523 40.761563 46.508523 39.985995 L 46.508523 14.579745 C 46.508523 13.804176 45.707386 13.09679 44.821023 13.09679 L 28.559659 13.09679 L 28.559659 11.97179 C 28.559659 11.204745 27.758523 10.497358 26.872159 10.497358 L 3.178977 10.497358 C 3.119318 10.497358 3.068182 10.497358 3.017045 10.497358 Z " transform="matrix(.45833 0 0 .45833 0 .01293)"/>
</g>
<path style="fill:#9c795f" d="M 11.550781 9.25 C 11.015625 9.382812 10.570312 9.875 10.570312 9.875 L 10.582031 9.890625 L 11.4375 13.066406 C 10.828125 12.734375 9.953125 12.816406 9.230469 13.339844 C 8.296875 14.015625 7.972656 15.167969 8.511719 15.90625 C 9.050781 16.648438 10.246094 16.703125 11.179688 16.027344 C 11.914062 15.492188 12.324219 14.65625 12.179688 13.964844 C 12.171875 13.945312 12.167969 13.925781 12.160156 13.902344 L 11.339844 10.726562 C 11.359375 10.699219 11.597656 10.589844 12.375 10.535156 C 13.195312 10.480469 13.75 9.167969 13.75 9.167969 C 13.75 9.167969 12.828125 9.519531 12.101562 9.265625 C 11.917969 9.199219 11.726562 9.203125 11.550781 9.25 Z "/>
</svg>
