<svg width="22" xmlns="http://www.w3.org/2000/svg" height="22" viewBox="0 0 22 22" xmlns:xlink="http://www.w3.org/1999/xlink">
<g style="stroke:#777">
<path style="fill:#f9f9f9;stroke-width:.973" d="M 8.522727 43.508523 L 33.460227 43.508523 C 39.528409 43.508523 39.528409 37.457386 39.528409 37.457386 L 39.528409 13.235795 C 39.528409 13.235795 30.767045 4.491477 30.767045 4.491477 L 14.590909 4.491477 C 14.590909 4.491477 8.522727 4.491477 8.522727 10.542614 Z " transform="scale(.45833)"/>
<path style="fill:#dcdcdc" d="M 31.517045 5.488636 L 31.517045 12.519886 L 38.505682 12.519886 Z " transform="scale(.45833)"/>
</g>
<path style="fill:#d64936" d="M 11.734375 6.222656 C 11.023438 6.398438 10.425781 7.054688 10.425781 7.054688 L 10.441406 7.074219 L 11.582031 11.3125 C 10.769531 10.867188 9.605469 10.980469 8.640625 11.675781 C 7.394531 12.578125 6.960938 14.109375 7.683594 15.097656 C 8.402344 16.085938 9.996094 16.15625 11.238281 15.257812 C 12.222656 14.546875 12.769531 13.429688 12.570312 12.511719 C 12.5625 12.480469 12.554688 12.453125 12.546875 12.425781 L 11.453125 8.191406 C 11.480469 8.15625 11.796875 8.007812 12.832031 7.9375 C 13.925781 7.863281 14.667969 6.109375 14.667969 6.109375 C 14.667969 6.109375 13.4375 6.582031 12.46875 6.242188 C 12.226562 6.15625 11.972656 6.160156 11.734375 6.21875 Z "/>
</svg>
