<svg width="64" xmlns="http://www.w3.org/2000/svg" height="64" viewBox="0 0 64 64" xmlns:xlink="http://www.w3.org/1999/xlink">
<path style="fill:#a57953" d="M 7.765625 48 C 6.804688 48 6 46.929688 6 45.894531 L 6 6.105469 C 6 5.003906 6.929688 4 7.957031 4 L 56.050781 4 C 57.089844 4 58 5.003906 58 6.105469 L 58 42.1875 C 58 43.285156 57.089844 44.324219 56.050781 44.324219 L 37.265625 44.324219 L 37.265625 45.894531 C 37.265625 47.027344 36.355469 48 35.347656 48 L 7.953125 48 C 7.886719 48 7.824219 48 7.757812 48 Z "/>
<path style="fill:#e9b080" d="M 2.167969 14 C 0.988281 14.140625 -0.0117188 15.066406 0 16.101562 L 0 55.925781 C 0 56.996094 1.144531 58 2.398438 58 L 61.601562 58 C 62.847656 58 64 56.996094 64 55.925781 L 64 19.785156 C 64 18.691406 62.847656 17.691406 61.601562 17.691406 L 38.496094 17.691406 L 38.496094 16.101562 C 38.496094 14.992188 37.34375 14 36.0625 14 L 2.398438 14 C 2.304688 14 2.238281 14 2.175781 14 Z "/>
<path style="fill:#859900" d="M 64 37.332031 L 50.667969 37.332031 L 50.667969 24 L 37.332031 24 L 37.332031 37.332031 L 24 37.332031 L 24 50.667969 L 37.332031 50.667969 L 37.332031 64 L 50.667969 64 L 50.667969 50.667969 L 64 50.667969 Z "/>
</svg>
