<svg xmlns="http://www.w3.org/2000/svg" viewBox="0 0 48 48" xmlns:xlink="http://www.w3.org/1999/xlink">
<g style="line-height:normal;color:#000">
<path style="fill:#555555-opacity" d="M 10.34375,4 C 9.6072267,4.0767109 8.9960396,4.764118 9,5.5 l 0,37 c 7.89e-5,0.785337 0.7096842,1.499922 1.5,1.5 l 17.96875,0 C 28.088871,43.474433 27.870519,42.783141 28.125,42.0625 L 28.5,41 l -16.46875,0 0,-34 L 30,7 30,11 36,11 35.96875,31.3125 39,28.28125 39,8.03125 C 38,7.0124701 33.954345,4.9979644 33,4 L 10.5,4 C 10.44764,3.99729 10.396114,3.99729 10.34375,4 z"/>
<path style="fill:#555555#555555" d="m 41.15625,28.085078 c -0.290499,0.01481 -0.574067,0.139583 -0.78125,0.34375 l -9.625,9.625 c -0.127995,0.13195 -0.225056,0.293719 -0.28125,0.46875 l -1.40625,3.96875 c -0.299675,0.84862 0.68263,1.830925 1.53125,1.53125 l 3.96875,-1.40625 c 0.175031,-0.05619 0.3368,-0.153255 0.46875,-0.28125 l 9.625,-9.625 c 0.258593,-0.257606 0.3893,-0.637845 0.34375,-1 0,0 -0.04375,-0.20771 -0.09375,-0.34375 -0.05,-0.13604 -0.114212,-0.293037 -0.21875,-0.46875 -0.209075,-0.351427 -0.553106,-0.803107 -1.125,-1.375 -0.589455,-0.589457 -1.018144,-0.915683 -1.375,-1.125 -0.178428,-0.104658 -0.351749,-0.169474 -0.5,-0.21875 -0.148251,-0.04928 -0.40625,-0.09375 -0.40625,-0.09375 -0.04163,-0.0022 -0.08337,-0.0022 -0.125,0 z"/>
</g>
</svg>
