
<svg xmlns="http://www.w3.org/2000/svg" xmlns:xlink="http://www.w3.org/1999/xlink" width="256px" height="256px" viewBox="0 0 256 256" version="1.1">
<g id="surface1">
<path style=" stroke:none;fill-rule:nonzero;fill:rgb(81.960784%,27.45098%,14.901961%);fill-opacity:1;" d="M 42.6875 0 C 37.1875 0 32 5.421875 32 11.15625 L 32 244.84375 C 32 250.265625 37.5 256 42.6875 256 L 213.3125 256 C 218.5 256 224 250.265625 224 244.84375 L 224 72 L 152 0 Z M 42.6875 0 "/>
<path style=" stroke:none;fill-rule:nonzero;fill:rgb(0%,0%,0%);fill-opacity:0.196078;" d="M 168 72 L 224 128 L 224 72 Z M 168 72 "/>
<path style=" stroke:none;fill-rule:nonzero;fill:rgb(100%,100%,100%);fill-opacity:0.392157;" d="M 152 0 L 223.9375 72 L 163.03125 72 C 157.640625 72 152 66.296875 152 60.90625 Z M 152 0 "/>
<path style=" stroke:none;fill-rule:nonzero;fill:rgb(0%,0%,0%);fill-opacity:0.196078;" d="M 32 192 L 32 245.34375 C 32 250.53125 37.5 256 42.65625 256 L 213.34375 256 C 218.5 256 224 250.53125 224 245.34375 L 224 192 Z M 32 192 "/>
<path style=" stroke:none;fill-rule:nonzero;fill:rgb(100%,100%,100%);fill-opacity:1;" d="M 64 96 L 104 96 L 104 120 L 64 120 Z M 64 96 "/>
<path style=" stroke:none;fill-rule:nonzero;fill:rgb(100%,100%,100%);fill-opacity:1;" d="M 81.21875 225.484375 C 81.21875 227.59375 81.296875 229.578125 81.453125 231.421875 C 81.65625 233.234375 82.015625 234.8125 82.546875 236.171875 C 83.109375 237.515625 83.890625 238.578125 84.890625 239.359375 C 85.875 240.15625 87.1875 240.546875 88.84375 240.546875 C 90.453125 240.546875 91.734375 240.15625 92.734375 239.359375 C 93.78125 238.578125 94.546875 237.515625 95.0625 236.171875 C 95.625 234.75 96 233.171875 96.15625 231.359375 C 96.359375 229.546875 96.484375 227.59375 96.484375 225.484375 C 96.484375 223.40625 96.359375 221.46875 96.15625 219.65625 C 96 217.78125 95.625 216.1875 95.0625 214.84375 C 94.546875 213.484375 93.78125 212.4375 92.828125 211.640625 C 91.84375 210.859375 90.484375 210.453125 88.84375 210.453125 C 87.1875 210.453125 85.875 210.859375 84.890625 211.640625 C 83.890625 212.4375 83.109375 213.515625 82.546875 214.90625 C 82.015625 216.265625 81.65625 217.84375 81.453125 219.65625 C 81.296875 221.46875 81.21875 223.40625 81.21875 225.484375 M 71.46875 225.484375 C 71.46875 218.078125 73.015625 212.46875 76.078125 208.703125 C 79.15625 204.890625 83.40625 203 88.84375 203 C 94.515625 203 98.796875 204.890625 101.765625 208.703125 C 104.734375 212.46875 106.203125 218.078125 106.203125 225.484375 C 106.203125 232.9375 104.6875 238.546875 101.6875 242.359375 C 98.6875 246.125 94.40625 248 88.90625 248 C 83.265625 248 78.921875 246.125 75.921875 242.359375 C 72.953125 238.546875 71.46875 232.9375 71.46875 225.484375 "/>
<path style=" stroke:none;fill-rule:nonzero;fill:rgb(100%,100%,100%);fill-opacity:1;" d="M 122.09375 240.125 C 122.359375 240.1875 122.625 240.1875 122.953125 240.1875 C 123.25 240.1875 123.546875 240.1875 123.8125 240.1875 C 125.984375 240.1875 127.796875 239.828125 129.25 239.09375 C 130.765625 238.34375 131.953125 237.3125 132.84375 236.03125 C 133.765625 234.71875 134.421875 233.203125 134.78125 231.421875 C 135.1875 229.609375 135.421875 227.625 135.421875 225.484375 C 135.421875 223.640625 135.25 221.828125 134.953125 220.078125 C 134.625 218.296875 134.09375 216.75 133.3125 215.40625 C 132.515625 214.046875 131.453125 213 130.109375 212.203125 C 128.75 211.34375 127.015625 210.953125 124.90625 210.953125 C 124.46875 210.953125 124.015625 210.953125 123.484375 211.015625 C 122.984375 211.015625 122.5 211.046875 122.09375 211.15625 L 122.09375 240.125 M 145.140625 225.484375 C 145.140625 229.515625 144.578125 232.90625 143.421875 235.734375 C 142.34375 238.546875 140.78125 240.8125 138.84375 242.5625 C 136.859375 244.34375 134.484375 245.625 131.75 246.484375 C 129.046875 247.234375 126.046875 247.640625 122.796875 247.640625 C 121.078125 247.640625 119.390625 247.578125 117.71875 247.375 C 116.125 247.234375 114.390625 246.984375 112.5 246.609375 L 112.5 204.53125 C 114.6875 204.125 116.765625 203.828125 118.671875 203.703125 C 120.578125 203.5625 122.359375 203.46875 124.046875 203.46875 C 127.203125 203.46875 130.078125 203.890625 132.671875 204.75 C 135.3125 205.578125 137.5625 206.890625 139.375 208.703125 C 141.1875 210.484375 142.59375 212.765625 143.59375 215.53125 C 144.609375 218.265625 145.140625 221.59375 145.140625 225.484375 "/>
<path style=" stroke:none;fill-rule:nonzero;fill:rgb(100%,100%,100%);fill-opacity:1;" d="M 164.6875 203.46875 C 170.8125 203.46875 175.5625 204.625 178.921875 206.890625 C 182.28125 209.140625 184 212.796875 184 217.90625 C 184 223.046875 182.28125 226.8125 178.859375 229.109375 C 175.46875 231.390625 170.6875 232.546875 164.453125 232.546875 L 161.03125 232.546875 L 161.03125 247.109375 L 151.4375 247.109375 L 151.4375 204.53125 C 152.390625 204.359375 153.40625 204.1875 154.5625 204.03125 C 155.75 203.890625 156.9375 203.796875 158.125 203.765625 C 159.34375 203.671875 160.5 203.59375 161.65625 203.5625 C 162.765625 203.5 163.796875 203.46875 164.6875 203.46875 M 165.765625 210.953125 C 165.21875 210.953125 164.390625 210.953125 163.359375 211.015625 C 162.375 211.015625 161.59375 211.046875 161.03125 211.15625 L 161.03125 225.09375 L 164.921875 225.09375 C 167.984375 225.09375 170.28125 224.53125 171.84375 223.46875 C 173.390625 222.359375 174.171875 220.484375 174.171875 217.84375 C 174.171875 215.328125 173.390625 213.5625 171.84375 212.53125 C 170.359375 211.484375 168.3125 210.953125 165.765625 210.953125 "/>
<path style=" stroke:none;fill-rule:nonzero;fill:rgb(100%,100%,100%);fill-opacity:1;" d="M 64 136 L 104 136 L 104 160 L 64 160 Z M 64 136 "/>
<path style=" stroke:none;fill-rule:nonzero;fill:rgb(100%,100%,100%);fill-opacity:1;" d="M 160 87.9375 L 160 120 L 192 120 C 192 102.28125 177.671875 87.9375 160 87.9375 Z M 160 87.9375 "/>
<path style=" stroke:none;fill-rule:nonzero;fill:rgb(100%,100%,100%);fill-opacity:1;" d="M 152.015625 96 C 134.34375 96 120 110.3125 120 128 C 120 145.6875 134.34375 160 152.015625 160 C 169.6875 160 184 145.6875 184 128 L 152.015625 128 Z M 152.015625 96 "/>
</g>
</svg>
