
<svg xmlns="http://www.w3.org/2000/svg" xmlns:xlink="http://www.w3.org/1999/xlink" width="256px" height="256px" viewBox="0 0 256 256" version="1.1">
<g id="surface1">
<path style=" stroke:none;fill-rule:nonzero;fill:rgb(21.960784%,63.921569%,30.588235%);fill-opacity:1;" d="M 42.6875 0 C 37.1875 0 32 5.421875 32 11.15625 L 32 244.84375 C 32 250.265625 37.5 256 42.6875 256 L 213.3125 256 C 218.5 256 224 250.265625 224 244.84375 L 224 72 L 152 0 Z M 42.6875 0 "/>
<path style=" stroke:none;fill-rule:nonzero;fill:rgb(0%,0%,0%);fill-opacity:0.196078;" d="M 168 72 L 224 128 L 224 72 Z M 168 72 "/>
<path style=" stroke:none;fill-rule:nonzero;fill:rgb(100%,100%,100%);fill-opacity:0.392157;" d="M 152 0 L 223.9375 72 L 163.03125 72 C 157.640625 72 152 66.296875 152 60.90625 Z M 152 0 "/>
<path style=" stroke:none;fill-rule:nonzero;fill:rgb(100%,100%,100%);fill-opacity:1;" d="M 93.15625 88 C 90.34375 88.265625 87.9375 91.25 88 94.421875 L 88 161.734375 C 88.03125 165.046875 90.671875 168.03125 93.625 168 L 162.515625 168 C 165.421875 167.9375 167.96875 165.015625 168 161.734375 L 168 94.421875 C 168.0625 91.078125 165.484375 88.03125 162.515625 88 Z M 96 96 L 160 96 L 160 141.609375 L 141.1875 120.34375 L 136.46875 124.875 L 129.265625 131.4375 L 124.859375 127.046875 L 113.546875 111.75 L 96 134.390625 Z M 96 96 "/>
<path style=" stroke:none;fill-rule:nonzero;fill:rgb(0%,0%,0%);fill-opacity:0.196078;" d="M 32 192 L 32 245.34375 C 32 250.53125 37.5 256 42.65625 256 L 213.34375 256 C 218.5 256 224 250.53125 224 245.34375 L 224 192 Z M 32 192 "/>
<path style=" stroke:none;fill-rule:nonzero;fill:rgb(100%,100%,100%);fill-opacity:1;" d="M 89.859375 203.734375 L 89.859375 211.03125 L 77.625 211.03125 L 77.625 248 L 68.3125 248 L 68.3125 211.03125 L 56.0625 211.03125 L 56.0625 203.734375 L 89.859375 203.734375 "/>
<path style=" stroke:none;fill-rule:nonzero;fill:rgb(100%,100%,100%);fill-opacity:1;" d="M 95.78125 248 L 95.78125 240.703125 L 105.90625 240.703125 L 105.90625 211.03125 L 95.78125 211.03125 L 95.78125 203.734375 L 125.296875 203.734375 L 125.296875 211.03125 L 115.21875 211.03125 L 115.21875 240.703125 L 125.296875 240.703125 L 125.296875 248 L 95.78125 248 "/>
<path style=" stroke:none;fill-rule:nonzero;fill:rgb(100%,100%,100%);fill-opacity:1;" d="M 134 248 L 134 203.734375 L 162.4375 203.734375 L 162.4375 211.03125 L 143.234375 211.03125 L 143.234375 221.765625 L 160.046875 221.765625 L 160.046875 229.0625 L 143.234375 229.0625 L 143.234375 248 L 134 248 "/>
<path style=" stroke:none;fill-rule:nonzero;fill:rgb(100%,100%,100%);fill-opacity:1;" d="M 171.515625 248 L 171.515625 203.734375 L 200 203.734375 L 200 211.03125 L 180.765625 211.03125 L 180.765625 221.765625 L 197.59375 221.765625 L 197.59375 229.0625 L 180.765625 229.0625 L 180.765625 248 L 171.515625 248 "/>
</g>
</svg>
