<svg width="256" xmlns="http://www.w3.org/2000/svg" height="256" viewBox="0 0 256 256" xmlns:xlink="http://www.w3.org/1999/xlink">
<path style="fill:#7099c3" d="M 42.667969 5.332031 C 37.179688 5.332031 32 10.515625 32 16 L 32 240 C 32 245.179688 37.484375 250.667969 42.667969 250.667969 L 213.332031 250.667969 C 218.515625 250.667969 224 245.179688 224 240 L 224 16 C 224 10.515625 218.820312 5.332031 213.332031 5.332031 Z "/>
<g style="fill:#fff">
<path d="M 88.726562 106.183594 L 88.726562 114.910156 L 167.273438 114.910156 L 167.273438 106.183594 Z "/>
<path d="M 84.363281 123.636719 L 84.363281 132.363281 L 171.636719 132.363281 L 171.636719 123.636719 Z "/>
<path d="M 88.726562 141.089844 L 88.726562 149.816406 L 167.273438 149.816406 L 167.273438 141.089844 Z "/>
<path d="M 123.636719 84.363281 L 123.636719 171.636719 L 132.363281 171.636719 L 132.363281 84.363281 Z "/>
</g>
<g style="fill:none;stroke:#fff">
<g style="stroke-width:2">
<path d="M 20.441709 33.000329 C 18.441843 26.999836 18.441843 21.000237 20.441709 14.999744 " transform="matrix(4.36357 0 0 4.36357 23.27376 23.27408)"/>
<path d="M 27.469887 33.000329 C 29.469753 27.999769 29.469753 21.000237 27.469887 14.999744 " transform="matrix(4.36357 0 0 4.36357 23.27376 23.27408)"/>
</g>
<path style="stroke-linecap:round;stroke-width:1.821" d="M 33.057497 27.317125 C 33.057497 32.344764 28.980945 36.421317 23.953306 36.421317 C 18.924852 36.421317 14.849114 32.344764 14.849114 27.317125 C 14.849114 22.289486 18.924852 18.212934 23.953306 18.212934 C 28.980945 18.212934 33.057497 22.289486 33.057497 27.317125 Z " transform="matrix(4.79304 0 0 4.79304 13.19094 -2.93197)"/>
</g>
</svg>
