
<svg xmlns="http://www.w3.org/2000/svg" xmlns:xlink="http://www.w3.org/1999/xlink" width="256px" height="256px" viewBox="0 0 256 256" version="1.1">
<g id="surface1">
<path style=" stroke:none;fill-rule:nonzero;fill:rgb(43.921569%,60%,76.470588%);fill-opacity:1;" d="M 42.6875 0 C 37.1875 0 32 5.421875 32 11.15625 L 32 244.84375 C 32 250.265625 37.5 256 42.6875 256 L 213.3125 256 C 218.5 256 224 250.265625 224 244.84375 L 224 72 L 152 0 Z M 42.6875 0 "/>
<path style=" stroke:none;fill-rule:nonzero;fill:rgb(0%,0%,0%);fill-opacity:0.196078;" d="M 168 72 L 224 128 L 224 72 Z M 168 72 "/>
<path style=" stroke:none;fill-rule:nonzero;fill:rgb(100%,100%,100%);fill-opacity:0.392157;" d="M 152 0 L 223.9375 72 L 163.03125 72 C 157.640625 72 152 66.296875 152 60.90625 Z M 152 0 "/>
<path style=" stroke:none;fill-rule:nonzero;fill:rgb(100%,100%,100%);fill-opacity:1;" d="M 88 112 L 88 120 L 168 120 L 168 112 Z M 88 112 "/>
<path style=" stroke:none;fill-rule:nonzero;fill:rgb(100%,100%,100%);fill-opacity:1;" d="M 84.4375 130.6875 L 84.4375 139.59375 L 173.28125 139.59375 L 173.28125 130.6875 Z M 84.4375 130.6875 "/>
<path style=" stroke:none;fill-rule:nonzero;fill:rgb(100%,100%,100%);fill-opacity:1;" d="M 88 152 L 88 160 L 168 160 L 168 152 Z M 88 152 "/>
<path style=" stroke:none;fill-rule:nonzero;fill:rgb(100%,100%,100%);fill-opacity:1;" d="M 125.375 90.71875 L 125.375 179.5625 L 132.359375 179.5625 L 132.359375 90.71875 Z M 125.375 90.71875 "/>
<path style="fill:none;stroke-width:2;stroke-linecap:butt;stroke-linejoin:miter;stroke:rgb(100%,100%,100%);stroke-opacity:1;stroke-miterlimit:4;" d="M 20.440089 33.003471 C 18.442646 27.000283 18.442646 21.000612 20.440089 14.997424 " transform="matrix(4.44318,0,0,4.442952,22.22788,28.507788)"/>
<path style="fill:none;stroke-width:2;stroke-linecap:butt;stroke-linejoin:miter;stroke:rgb(100%,100%,100%);stroke-opacity:1;stroke-miterlimit:4;" d="M 27.466307 33.003471 C 29.470783 28.002573 29.470783 21.000612 27.466307 14.997424 " transform="matrix(4.44318,0,0,4.442952,22.22788,28.507788)"/>
<path style="fill:none;stroke-width:1.821;stroke-linecap:round;stroke-linejoin:miter;stroke:rgb(100%,100%,100%);stroke-opacity:1;stroke-miterlimit:4;" d="M 33.054327 27.317604 C 33.054327 32.34429 28.978756 36.420067 23.952326 36.420067 C 18.925896 36.420067 14.850326 32.34429 14.850326 27.317604 C 14.850326 22.290919 18.925896 18.215141 23.952326 18.215141 C 28.978756 18.215141 33.054327 22.290919 33.054327 27.317604 Z M 33.054327 27.317604 " transform="matrix(4.880452,0,0,4.880204,11.961196,1.825144)"/>
<path style=" stroke:none;fill-rule:nonzero;fill:rgb(0%,0%,0%);fill-opacity:0.196078;" d="M 32 192 L 32 245.34375 C 32 250.53125 37.5 256 42.65625 256 L 213.34375 256 C 218.5 256 224 250.53125 224 245.34375 L 224 192 Z M 32 192 "/>
<path style=" stroke:none;fill-rule:nonzero;fill:rgb(100%,100%,100%);fill-opacity:1;" d="M 80.421875 226.21875 C 80.421875 228.34375 80.515625 230.34375 80.65625 232.203125 C 80.890625 234.03125 81.25 235.625 81.78125 236.984375 C 82.34375 238.359375 83.140625 239.421875 84.140625 240.21875 C 85.171875 241.015625 86.5 241.40625 88.203125 241.40625 C 89.859375 241.40625 91.1875 241.015625 92.1875 240.21875 C 93.25 239.421875 94.0625 238.359375 94.59375 236.984375 C 95.15625 235.5625 95.515625 233.96875 95.6875 232.140625 C 95.890625 230.296875 96.015625 228.34375 96.015625 226.21875 C 96.015625 224.109375 95.890625 222.15625 95.6875 220.328125 C 95.515625 218.421875 95.15625 216.828125 94.59375 215.46875 C 94.0625 214.109375 93.296875 213.046875 92.265625 212.234375 C 91.265625 211.4375 89.890625 211.046875 88.203125 211.046875 C 86.5 211.046875 85.171875 211.4375 84.140625 212.234375 C 83.140625 213.046875 82.34375 214.140625 81.78125 215.53125 C 81.25 216.890625 80.890625 218.5 80.65625 220.328125 C 80.515625 222.15625 80.421875 224.109375 80.421875 226.21875 M 70.46875 226.21875 C 70.46875 218.734375 72.03125 213.078125 75.15625 209.28125 C 78.28125 205.421875 82.640625 203.53125 88.203125 203.53125 C 93.984375 203.53125 98.375 205.421875 101.40625 209.28125 C 104.4375 213.078125 105.9375 218.734375 105.9375 226.21875 C 105.9375 233.734375 104.40625 239.390625 101.34375 243.25 C 98.25 247.03125 93.921875 248.9375 88.296875 248.9375 C 82.515625 248.9375 78.09375 247.03125 75.03125 243.25 C 72 239.390625 70.46875 233.734375 70.46875 226.21875 "/>
<path style=" stroke:none;fill-rule:nonzero;fill:rgb(100%,100%,100%);fill-opacity:1;" d="M 145.84375 204.484375 L 145.84375 211.671875 L 132.90625 211.671875 L 132.90625 248 L 123.03125 248 L 123.03125 211.671875 L 110.09375 211.671875 L 110.09375 204.484375 L 145.84375 204.484375 "/>
<path style=" stroke:none;fill-rule:nonzero;fill:rgb(100%,100%,100%);fill-opacity:1;" d="M 184.03125 204.484375 L 184.03125 248 L 174.25 248 L 174.25 228.84375 L 161.21875 228.84375 L 161.21875 248 L 151.4375 248 L 151.4375 204.484375 L 161.21875 204.484375 L 161.21875 221.65625 L 174.25 221.65625 L 174.25 204.484375 L 184.03125 204.484375 "/>
</g>
</svg>
