<svg width="256" xmlns="http://www.w3.org/2000/svg" height="256" viewBox="0 0 256 256" xmlns:xlink="http://www.w3.org/1999/xlink">
<path style="fill:#d14626" d="M 42.667969 5.332031 C 37.179688 5.332031 32 10.515625 32 16 L 32 240 C 32 245.179688 37.484375 250.667969 42.667969 250.667969 L 213.332031 250.667969 C 218.515625 250.667969 224 245.179688 224 240 L 224 74.667969 L 154.667969 5.332031 Z "/>
<path style="fill:#000;fill-opacity:.196" d="M 154.667969 64 L 155 64.332031 L 155.832031 64 Z M 165.332031 74.667969 L 224 133.332031 L 224 74.667969 Z "/>
<path style="fill:#fff;fill-opacity:.392" d="M 154.667969 5.332031 L 224 74.667969 L 165.332031 74.667969 C 160.152344 74.667969 154.667969 69.179688 154.667969 64 Z "/>
<g style="fill:#fff">
<path d="M 64 85.332031 L 101.332031 85.332031 L 101.332031 112 L 64 112 Z "/>
<path d="M 64 128 L 101.332031 128 L 101.332031 154.667969 L 64 154.667969 Z "/>
<path d="M 157.539062 85.332031 L 157.539062 118.933594 L 192 118.933594 C 192 100.375 176.570312 85.332031 157.539062 85.332031 Z "/>
<path d="M 152.613281 90.132812 C 133.582031 90.132812 118.152344 105.175781 118.152344 123.734375 C 118.152344 142.289062 133.582031 157.332031 152.613281 157.332031 C 171.648438 157.332031 187.078125 142.289062 187.078125 123.734375 L 152.613281 123.734375 Z "/>
</g>
<path style="fill:#000;fill-opacity:.196" d="M 32 186.667969 L 32 240 C 32 245.179688 37.484375 250.667969 42.667969 250.667969 L 213.332031 250.667969 C 218.515625 250.667969 224 245.179688 224 240 L 224 186.667969 Z "/>
<g style="fill:#fff">
<path d="M 83.894531 218.667969 C 83.894531 220.648438 83.96875 222.519531 84.117188 224.28125 C 84.3125 226 84.65625 227.496094 85.148438 228.773438 C 85.691406 230.050781 86.429688 231.0625 87.363281 231.8125 C 88.296875 232.558594 89.554688 232.933594 91.128906 232.933594 C 92.652344 232.933594 93.882812 232.558594 94.820312 231.8125 C 95.804688 231.0625 96.542969 230.050781 97.035156 228.773438 C 97.574219 227.453125 97.917969 225.933594 98.066406 224.214844 C 98.265625 222.5 98.363281 220.648438 98.363281 218.667969 C 98.363281 216.6875 98.265625 214.835938 98.066406 213.121094 C 97.917969 211.359375 97.574219 209.839844 97.035156 208.5625 C 96.542969 207.285156 95.828125 206.273438 94.894531 205.523438 C 93.957031 204.777344 92.703125 204.402344 91.128906 204.402344 C 89.554688 204.402344 88.296875 204.777344 87.363281 205.523438 C 86.429688 206.273438 85.691406 207.308594 85.148438 208.628906 C 84.65625 209.90625 84.3125 211.402344 84.117188 213.121094 C 83.96875 214.835938 83.894531 216.6875 83.894531 218.667969 M 74.667969 218.667969 C 74.667969 211.621094 76.117188 206.316406 79.023438 202.75 C 81.925781 199.140625 85.960938 197.335938 91.128906 197.335938 C 96.492188 197.335938 100.578125 199.140625 103.382812 202.75 C 106.1875 206.316406 107.589844 211.621094 107.589844 218.667969 C 107.589844 225.710938 106.164062 231.039062 103.308594 234.652344 C 100.453125 238.21875 96.417969 240 91.203125 240 C 85.835938 240 81.730469 238.21875 78.875 234.652344 C 76.070312 231.039062 74.667969 225.710938 74.667969 218.667969 "/>
<path d="M 122.648438 232.539062 C 122.894531 232.582031 123.164062 232.605469 123.460938 232.605469 C 123.753906 232.605469 124.027344 232.605469 124.273438 232.605469 C 126.339844 232.605469 128.0625 232.25 129.441406 231.546875 C 130.867188 230.84375 132 229.875 132.835938 228.640625 C 133.722656 227.40625 134.335938 225.953125 134.679688 224.28125 C 135.074219 222.566406 135.269531 220.691406 135.269531 218.667969 C 135.269531 216.90625 135.125 215.1875 134.828125 213.515625 C 134.53125 211.84375 134.015625 210.367188 133.277344 209.089844 C 132.539062 207.8125 131.53125 206.800781 130.25 206.050781 C 128.972656 205.261719 127.324219 204.863281 125.304688 204.863281 C 124.914062 204.863281 124.46875 204.886719 123.976562 204.929688 C 123.484375 204.929688 123.042969 204.972656 122.648438 205.0625 L 122.648438 232.539062 M 144.5 218.667969 C 144.5 222.453125 143.957031 225.691406 142.875 228.375 C 141.839844 231.019531 140.390625 233.175781 138.519531 234.847656 C 136.648438 236.523438 134.410156 237.753906 131.800781 238.546875 C 129.242188 239.296875 126.414062 239.671875 123.3125 239.671875 C 121.6875 239.671875 120.089844 239.582031 118.515625 239.40625 C 116.988281 239.273438 115.339844 239.03125 113.570312 238.679688 L 113.570312 198.789062 C 115.636719 198.390625 117.578125 198.125 119.402344 197.996094 C 121.222656 197.863281 122.917969 197.796875 124.492188 197.796875 C 127.496094 197.796875 130.226562 198.191406 132.6875 198.984375 C 135.199219 199.777344 137.3125 201.03125 139.035156 202.75 C 140.757812 204.421875 142.085938 206.582031 143.023438 209.222656 C 144.007812 211.820312 144.5 214.96875 144.5 218.667969 "/>
<path d="M 163.027344 197.796875 C 168.832031 197.796875 173.335938 198.875 176.535156 201.03125 C 179.734375 203.148438 181.332031 206.625 181.332031 211.46875 C 181.332031 216.355469 179.710938 219.902344 176.460938 222.101562 C 173.261719 224.261719 168.710938 225.339844 162.804688 225.339844 L 159.558594 225.339844 L 159.558594 239.140625 L 150.476562 239.140625 L 150.476562 198.789062 C 151.363281 198.609375 152.347656 198.457031 153.429688 198.324219 C 154.5625 198.191406 155.695312 198.105469 156.824219 198.0625 C 157.957031 197.972656 159.066406 197.90625 160.148438 197.863281 C 161.230469 197.820312 162.191406 197.796875 163.027344 197.796875 M 164.058594 204.863281 C 163.519531 204.863281 162.757812 204.886719 161.773438 204.929688 C 160.835938 204.929688 160.097656 204.972656 159.558594 205.0625 L 159.558594 218.269531 L 163.25 218.269531 C 166.152344 218.269531 168.339844 217.765625 169.816406 216.753906 C 171.292969 215.695312 172.03125 213.914062 172.03125 211.402344 C 172.03125 209.023438 171.292969 207.351562 169.816406 206.382812 C 168.390625 205.371094 166.472656 204.863281 164.058594 204.863281 "/>
</g>
</svg>
