
<svg xmlns="http://www.w3.org/2000/svg" xmlns:xlink="http://www.w3.org/1999/xlink" width="256px" height="256px" viewBox="0 0 256 256" version="1.1">
<g id="surface1">
<path style=" stroke:none;fill-rule:nonzero;fill:rgb(86.27451%,86.27451%,86.27451%);fill-opacity:1;" d="M 42.6875 0 C 37.1875 0 32 5.421875 32 11.15625 L 32 244.84375 C 32 250.265625 37.5 256 42.6875 256 L 213.3125 256 C 218.5 256 224 250.265625 224 244.84375 L 224 72 L 152 0 Z M 42.6875 0 "/>
<path style=" stroke:none;fill-rule:nonzero;fill:rgb(0%,0%,0%);fill-opacity:0.196078;" d="M 168 72 L 224 128 L 224 72 Z M 168 72 "/>
<path style=" stroke:none;fill-rule:nonzero;fill:rgb(100%,100%,100%);fill-opacity:0.392157;" d="M 152 0 L 223.9375 72 L 163.03125 72 C 157.640625 72 152 66.296875 152 60.90625 Z M 152 0 "/>
<path style=" stroke:none;fill-rule:nonzero;fill:rgb(53.333333%,53.333333%,53.333333%);fill-opacity:1;" d="M 124.40625 75.25 C 113.71875 78.65625 123.09375 94.5625 107.78125 102.34375 C 90.3125 111.25 81.625 88.78125 71.125 104.84375 C 60.625 120.875 85.59375 118.40625 84.90625 137.28125 C 84.1875 156.15625 59.46875 152.15625 68.75 168.8125 C 78.03125 185.46875 88.34375 163.625 105.125 173.59375 C 121.90625 183.5625 105.84375 202.03125 125.625 202.65625 C 145.40625 203.28125 130.71875 183.875 148.21875 174.96875 C 165.6875 166.0625 174.375 188.5625 184.875 172.5 C 195.375 156.46875 170.40625 158.9375 171.09375 140.0625 C 171.8125 121.1875 196.53125 125.1875 187.25 108.53125 C 177.96875 91.84375 167.65625 113.71875 150.875 103.75 C 134.09375 93.78125 150.15625 75.3125 130.375 74.6875 C 127.90625 74.625 125.9375 74.75 124.40625 75.25 Z M 124.59375 123.3125 C 133.4375 121.53125 142.09375 126.9375 143.96875 135.40625 C 145.84375 143.875 140.21875 152.21875 131.40625 154.03125 C 122.5625 155.8125 113.90625 150.40625 112.03125 141.9375 C 110.15625 133.46875 115.78125 125.125 124.59375 123.3125 Z M 124.59375 123.3125 "/>
</g>
</svg>
