
<svg xmlns="http://www.w3.org/2000/svg" xmlns:xlink="http://www.w3.org/1999/xlink" width="256px" height="256px" viewBox="0 0 256 256" version="1.1">
<g id="surface1">
<path style=" stroke:none;fill-rule:nonzero;fill:rgb(75.686275%,58.431373%,32.54902%);fill-opacity:1;" d="M 42.6875 0 C 37.1875 0 32 5.421875 32 11.15625 L 32 244.84375 C 32 250.265625 37.5 256 42.6875 256 L 213.3125 256 C 218.5 256 224 250.265625 224 244.84375 L 224 72 L 152 0 Z M 42.6875 0 "/>
<path style=" stroke:none;fill-rule:nonzero;fill:rgb(0%,0%,0%);fill-opacity:0.196078;" d="M 32 192 L 32 245.34375 C 32 250.53125 37.5 256 42.65625 256 L 213.34375 256 C 218.5 256 224 250.53125 224 245.34375 L 224 192 Z M 32 192 "/>
<path style=" stroke:none;fill-rule:nonzero;fill:rgb(0%,0%,0%);fill-opacity:0.196078;" d="M 168 72 L 224 128 L 224 72 Z M 168 72 "/>
<path style=" stroke:none;fill-rule:nonzero;fill:rgb(100%,100%,100%);fill-opacity:0.392157;" d="M 152 0 L 223.9375 72 L 163.03125 72 C 157.640625 72 152 66.296875 152 60.90625 Z M 152 0 "/>
<path style=" stroke:none;fill-rule:evenodd;fill:rgb(97.647059%,97.647059%,97.647059%);fill-opacity:1;" d="M 72 0 L 96 0 L 96 24 L 72 24 Z M 72 0 "/>
<path style=" stroke:none;fill-rule:evenodd;fill:rgb(97.647059%,97.647059%,97.647059%);fill-opacity:1;" d="M 96 24 L 120 24 L 120 48 L 96 48 Z M 96 24 "/>
<path style=" stroke:none;fill-rule:evenodd;fill:rgb(97.647059%,97.647059%,97.647059%);fill-opacity:1;" d="M 72 48 L 96 48 L 96 72 L 72 72 Z M 72 48 "/>
<path style=" stroke:none;fill-rule:evenodd;fill:rgb(97.647059%,97.647059%,97.647059%);fill-opacity:1;" d="M 96 72 L 120 72 L 120 96 L 96 96 Z M 96 72 "/>
<path style=" stroke:none;fill-rule:evenodd;fill:rgb(97.647059%,97.647059%,97.647059%);fill-opacity:1;" d="M 72 96 L 96 96 L 96 120 L 72 120 Z M 72 96 "/>
<path style=" stroke:none;fill-rule:evenodd;fill:rgb(97.647059%,97.647059%,97.647059%);fill-opacity:1;" d="M 72 128 L 120 128 L 120 176 L 72 176 Z M 72 128 "/>
<path style=" stroke:none;fill-rule:nonzero;fill:rgb(100%,100%,100%);fill-opacity:1;" d="M 106.46875 203.703125 L 106.46875 210.984375 L 93.96875 210.984375 L 93.96875 248 L 84.484375 248 L 84.484375 210.984375 L 72.015625 210.984375 L 72.015625 203.703125 L 106.46875 203.703125 "/>
<path style=" stroke:none;fill-rule:nonzero;fill:rgb(100%,100%,100%);fill-opacity:1;" d="M 135.84375 248 L 133.609375 237.765625 L 121.015625 237.765625 L 118.84375 248 L 109.0625 248 C 111.296875 239.265625 113.5625 231.328125 115.859375 224.171875 C 118.15625 216.96875 120.390625 210.140625 122.515625 203.703125 L 132.78125 203.703125 C 135.015625 210.203125 137.25 217.09375 139.421875 224.375 C 141.6875 231.625 143.84375 239.5 145.953125 248 L 135.84375 248 M 127.40625 212.296875 C 126.921875 213.96875 126.421875 215.546875 125.96875 217.09375 C 125.5625 218.5625 125.140625 220.046875 124.75 221.515625 C 124.390625 222.96875 124.03125 224.40625 123.671875 225.890625 C 123.375 227.359375 123.046875 228.90625 122.75 230.484375 L 132 230.484375 C 131.703125 228.90625 131.40625 227.359375 131.078125 225.890625 C 130.78125 224.40625 130.421875 222.96875 130.03125 221.515625 C 129.671875 220.046875 129.25 218.5625 128.78125 217.09375 C 128.390625 215.546875 127.9375 213.96875 127.40625 212.296875 "/>
<path style=" stroke:none;fill-rule:nonzero;fill:rgb(100%,100%,100%);fill-opacity:1;" d="M 163 203.21875 C 165.703125 203.21875 168.125 203.46875 170.328125 204.0625 C 172.515625 204.625 174.421875 205.515625 176 206.71875 C 177.578125 207.90625 178.78125 209.421875 179.578125 211.28125 C 180.46875 213.09375 180.890625 215.25 180.890625 217.71875 C 180.890625 220.3125 180.328125 222.640625 179.21875 224.734375 C 178.09375 226.84375 176.234375 228.4375 173.640625 229.53125 C 174.484375 230.78125 175.40625 232.15625 176.390625 233.6875 C 177.34375 235.171875 178.296875 236.75 179.21875 238.421875 C 180.140625 240.03125 180.984375 241.671875 181.8125 243.34375 C 182.65625 244.984375 183.421875 246.53125 184.03125 248 L 174.15625 248 C 172.984375 245.140625 171.609375 242.390625 170.03125 239.765625 C 168.484375 237.109375 166.84375 234.421875 165.046875 231.6875 L 160.15625 231.6875 L 160.15625 248 L 150.734375 248 L 150.734375 204.359375 C 151.65625 204.171875 152.671875 204 153.71875 203.84375 C 154.875 203.640625 155.984375 203.546875 157.09375 203.46875 C 158.21875 203.375 159.296875 203.3125 160.3125 203.28125 C 161.328125 203.21875 162.21875 203.21875 163 203.21875 M 171.34375 217.65625 C 171.34375 215.328125 170.546875 213.609375 169.046875 212.5 C 167.5 211.421875 165.5 210.859375 163 210.859375 C 162.640625 210.859375 162.1875 210.890625 161.6875 210.921875 C 161.171875 210.921875 160.671875 210.984375 160.15625 211.09375 L 160.15625 224.375 L 162.21875 224.375 C 165.4375 224.375 167.765625 223.8125 169.171875 222.671875 C 170.625 221.484375 171.34375 219.8125 171.34375 217.65625 "/>
</g>
</svg>
