
<svg xmlns="http://www.w3.org/2000/svg" xmlns:xlink="http://www.w3.org/1999/xlink" width="256px" height="256px" viewBox="0 0 256 256" version="1.1">
<g id="surface1">
<path style=" stroke:none;fill-rule:nonzero;fill:rgb(75.686275%,58.431373%,32.54902%);fill-opacity:1;" d="M 42.96875 32 C 37.5 32 32 37.5 32 42.96875 L 32 213.34375 C 32 218.5 37.5 224 42.65625 224 L 213.34375 224 C 218.5 224 224 218.5 224 213.34375 L 224 42.65625 C 224 37.5 218.5 32 213.34375 32 Z M 42.96875 32 "/>
<path style=" stroke:none;fill-rule:nonzero;fill:rgb(100%,100%,100%);fill-opacity:0.196078;" d="M 42.96875 32 C 37.5 32 32 37.5 32 42.96875 L 32 96 C 53.34375 96 202.65625 96 224 96 L 224 42.65625 C 224 37.5 218.5 32 213.34375 32 Z M 42.96875 32 "/>
<path style=" stroke:none;fill-rule:nonzero;fill:rgb(100%,100%,100%);fill-opacity:0.392157;" d="M 112 56 L 112 136 L 144 136 L 144 56 Z M 112 56 "/>
<path style=" stroke:none;fill-rule:nonzero;fill:rgb(100%,100%,100%);fill-opacity:1;" d="M 83.9375 195.40625 C 84.1875 195.4375 84.46875 195.46875 84.78125 195.46875 C 85.0625 195.46875 85.34375 195.46875 85.59375 195.46875 C 87.71875 195.46875 89.46875 195.09375 90.875 194.375 C 92.34375 193.65625 93.5 192.6875 94.34375 191.4375 C 95.25 190.15625 95.875 188.6875 96.21875 187 C 96.625 185.25 96.84375 183.34375 96.84375 181.28125 C 96.84375 179.46875 96.6875 177.71875 96.375 176.03125 C 96.0625 174.3125 95.5625 172.8125 94.78125 171.5 C 94.03125 170.21875 93 169.1875 91.71875 168.40625 C 90.40625 167.59375 88.71875 167.1875 86.65625 167.1875 C 86.25 167.1875 85.8125 167.21875 85.28125 167.28125 C 84.78125 167.28125 84.34375 167.3125 83.9375 167.40625 L 83.9375 195.40625 M 106.25 181.28125 C 106.25 185.125 105.6875 188.40625 104.59375 191.15625 C 103.53125 193.84375 102.0625 196.0625 100.15625 197.75 C 98.25 199.46875 95.9375 200.71875 93.28125 201.53125 C 90.6875 202.28125 87.78125 202.65625 84.625 202.65625 C 82.96875 202.65625 81.3125 202.5625 79.71875 202.40625 C 78.15625 202.25 76.46875 202.03125 74.65625 201.65625 L 74.65625 161 C 76.78125 160.59375 78.75 160.34375 80.625 160.1875 C 82.46875 160.0625 84.21875 160 85.8125 160 C 88.875 160 91.6875 160.40625 94.1875 161.21875 C 96.75 162.03125 98.90625 163.3125 100.6875 165.0625 C 102.4375 166.75 103.78125 168.9375 104.75 171.65625 C 105.75 174.28125 106.25 177.5 106.25 181.28125 "/>
<path style=" stroke:none;fill-rule:nonzero;fill:rgb(100%,100%,100%);fill-opacity:1;" d="M 113.03125 202.125 L 113.03125 160.46875 L 141.3125 160.46875 L 141.3125 167.34375 L 122.3125 167.34375 L 122.3125 176.6875 L 138.8125 176.6875 L 138.8125 183.5625 L 122.3125 183.5625 L 122.3125 195.25 L 142.96875 195.25 L 142.96875 202.125 L 113.03125 202.125 "/>
<path style=" stroke:none;fill-rule:nonzero;fill:rgb(100%,100%,100%);fill-opacity:1;" d="M 181.34375 189.53125 C 181.34375 192.0625 180.84375 194.15625 179.90625 195.875 C 178.9375 197.53125 177.625 198.875 175.96875 199.90625 C 174.375 200.90625 172.4375 201.625 170.1875 202.0625 C 167.96875 202.46875 165.59375 202.65625 163.03125 202.65625 C 160.96875 202.65625 158.8125 202.5625 156.59375 202.34375 C 154.40625 202.15625 152.21875 201.84375 150.0625 201.46875 L 150.0625 161 C 151.8125 160.75 153.75 160.53125 155.84375 160.34375 C 157.96875 160.125 160.0625 160 162.125 160 C 165.625 160 168.5 160.34375 170.71875 161 C 172.90625 161.625 174.65625 162.5 175.90625 163.5625 C 177.15625 164.59375 178.03125 165.75 178.46875 167.0625 C 178.90625 168.375 179.15625 169.65625 179.15625 170.96875 C 179.15625 172.9375 178.59375 174.6875 177.5 176.21875 C 176.4375 177.75 175 178.96875 173.1875 179.84375 C 176.34375 180.875 178.5 182.28125 179.59375 184.03125 C 180.75 185.78125 181.34375 187.625 181.34375 189.53125 M 159.3125 183.875 L 159.3125 195.1875 C 159.96875 195.28125 160.6875 195.34375 161.4375 195.40625 C 162.25 195.4375 163.03125 195.46875 163.78125 195.46875 C 164.8125 195.46875 165.84375 195.40625 166.875 195.25 C 167.875 195.09375 168.75 194.78125 169.5 194.375 C 170.3125 193.9375 170.96875 193.34375 171.46875 192.5625 C 171.96875 191.75 172.21875 190.75 172.21875 189.53125 C 172.21875 187.53125 171.46875 186.09375 170.03125 185.25 C 168.625 184.34375 166.71875 183.875 164.3125 183.875 L 159.3125 183.875 M 162.9375 177.03125 C 165.3125 177.03125 167.09375 176.5625 168.28125 175.6875 C 169.5 174.75 170.09375 173.46875 170.09375 171.84375 C 170.09375 170.84375 169.9375 170.0625 169.5625 169.5 C 169.21875 168.875 168.75 168.375 168.15625 168.0625 C 167.53125 167.71875 166.84375 167.5 166.03125 167.40625 C 165.21875 167.28125 164.40625 167.1875 163.53125 167.1875 C 162.84375 167.1875 162.125 167.21875 161.34375 167.28125 C 160.59375 167.3125 159.9375 167.375 159.3125 167.46875 L 159.3125 177.03125 L 162.9375 177.03125 "/>
</g>
</svg>
