
<svg xmlns="http://www.w3.org/2000/svg" xmlns:xlink="http://www.w3.org/1999/xlink" width="256px" height="256px" viewBox="0 0 256 256" version="1.1">
<g id="surface1">
<path style=" stroke:none;fill-rule:nonzero;fill:rgb(18.431373%,13.72549%,56.078431%);fill-opacity:1;" d="M 42.6875 0 C 37.1875 0 32 5.421875 32 11.15625 L 32 244.84375 C 32 250.265625 37.5 256 42.6875 256 L 213.3125 256 C 218.5 256 224 250.265625 224 244.84375 L 224 72 L 152 0 Z M 42.6875 0 "/>
<path style=" stroke:none;fill-rule:nonzero;fill:rgb(0%,0%,0%);fill-opacity:0.196078;" d="M 168 72 L 224 128 L 224 72 Z M 168 72 "/>
<path style=" stroke:none;fill-rule:nonzero;fill:rgb(100%,100%,100%);fill-opacity:0.392157;" d="M 152 0 L 223.9375 72 L 163.03125 72 C 157.640625 72 152 66.296875 152 60.90625 Z M 152 0 "/>
<path style=" stroke:none;fill-rule:nonzero;fill:rgb(100%,100%,100%);fill-opacity:1;" d="M 128 88 C 97.15625 88 72 113.140625 72 143.984375 C 72 174.828125 97.15625 200 128 200 C 158.84375 200 184 174.828125 184 143.984375 C 184 113.140625 158.84375 88 128 88 Z M 128 101.984375 C 151.265625 101.984375 169.984375 120.71875 169.984375 143.984375 C 169.984375 167.28125 151.265625 185.984375 128 185.984375 C 104.734375 185.984375 86.015625 167.28125 86.015625 143.984375 C 86.015625 120.71875 104.734375 101.984375 128 101.984375 Z M 112 119.96875 L 112 167.984375 L 152 143.984375 Z M 112 119.96875 "/>
</g>
</svg>
