
<svg xmlns="http://www.w3.org/2000/svg" xmlns:xlink="http://www.w3.org/1999/xlink" width="256px" height="256px" viewBox="0 0 256 256" version="1.1">
<g id="surface1">
<path style=" stroke:none;fill-rule:nonzero;fill:rgb(75.686275%,58.431373%,32.54902%);fill-opacity:1;" d="M 42.6875 0 C 37.1875 0 32 5.421875 32 11.15625 L 32 244.84375 C 32 250.265625 37.5 256 42.6875 256 L 213.3125 256 C 218.5 256 224 250.265625 224 244.84375 L 224 72 L 152 0 Z M 42.6875 0 "/>
<path style=" stroke:none;fill-rule:nonzero;fill:rgb(0%,0%,0%);fill-opacity:0.196078;" d="M 32 192 L 32 245.34375 C 32 250.53125 37.5 256 42.65625 256 L 213.34375 256 C 218.5 256 224 250.53125 224 245.34375 L 224 192 Z M 32 192 "/>
<path style=" stroke:none;fill-rule:nonzero;fill:rgb(0%,0%,0%);fill-opacity:0.196078;" d="M 168 72 L 224 128 L 224 72 Z M 168 72 "/>
<path style=" stroke:none;fill-rule:nonzero;fill:rgb(100%,100%,100%);fill-opacity:1;" d="M 103.703125 248 L 72 248 L 72 202.921875 L 82.109375 202.921875 L 82.109375 240.5625 L 103.703125 240.5625 L 103.703125 248 "/>
<path style=" stroke:none;fill-rule:nonzero;fill:rgb(100%,100%,100%);fill-opacity:0.392157;" d="M 152 0 L 223.9375 72 L 163.03125 72 C 157.640625 72 152 66.296875 152 60.90625 Z M 152 0 "/>
<path style=" stroke:none;fill-rule:nonzero;fill:rgb(100%,100%,100%);fill-opacity:1;" d="M 144.0625 202.921875 L 144.0625 248 L 134.0625 248 L 134.0625 228.109375 L 120.6875 228.109375 L 120.6875 248 L 110.640625 248 L 110.640625 202.921875 L 120.6875 202.921875 L 120.6875 220.6875 L 134.0625 220.6875 L 134.0625 202.921875 L 144.0625 202.921875 "/>
<path style=" stroke:none;fill-rule:evenodd;fill:rgb(97.647059%,97.647059%,97.647059%);fill-opacity:1;" d="M 72 0 L 96 0 L 96 24 L 72 24 Z M 72 0 "/>
<path style=" stroke:none;fill-rule:nonzero;fill:rgb(100%,100%,100%);fill-opacity:1;" d="M 184 209.15625 C 181.6875 212.359375 179.546875 215.40625 177.5625 218.203125 C 175.609375 221.015625 173.796875 223.71875 172.109375 226.296875 C 170.421875 228.8125 168.84375 231.25 167.328125 233.625 C 165.828125 235.984375 164.40625 238.296875 163.0625 240.5625 L 184.765625 240.5625 L 184.765625 248 L 151.5 248 L 151.5 242.8125 C 152.6875 240.734375 153.984375 238.546875 155.328125 236.28125 C 156.6875 233.9375 158.203125 231.453125 159.890625 228.84375 C 161.578125 226.203125 163.390625 223.359375 165.34375 220.328125 C 167.359375 217.25 169.5625 213.921875 171.9375 210.34375 L 152.5625 210.34375 L 152.5625 202.921875 L 184 202.921875 L 184 209.15625 "/>
<path style=" stroke:none;fill-rule:evenodd;fill:rgb(97.647059%,97.647059%,97.647059%);fill-opacity:1;" d="M 96 24 L 120 24 L 120 48 L 96 48 Z M 96 24 "/>
<path style=" stroke:none;fill-rule:evenodd;fill:rgb(97.647059%,97.647059%,97.647059%);fill-opacity:1;" d="M 72 48 L 96 48 L 96 72 L 72 72 Z M 72 48 "/>
<path style=" stroke:none;fill-rule:evenodd;fill:rgb(97.647059%,97.647059%,97.647059%);fill-opacity:1;" d="M 96 72 L 120 72 L 120 96 L 96 96 Z M 96 72 "/>
<path style=" stroke:none;fill-rule:evenodd;fill:rgb(97.647059%,97.647059%,97.647059%);fill-opacity:1;" d="M 72 96 L 96 96 L 96 120 L 72 120 Z M 72 96 "/>
<path style=" stroke:none;fill-rule:evenodd;fill:rgb(97.647059%,97.647059%,97.647059%);fill-opacity:1;" d="M 72 128 L 120 128 L 120 176 L 72 176 Z M 72 128 "/>
</g>
</svg>
