<svg width="256" xmlns="http://www.w3.org/2000/svg" height="256" viewBox="0 0 256 256" xmlns:xlink="http://www.w3.org/1999/xlink">
<path style="fill:#dcdcdc" d="M 42.667969 5.332031 C 37.179688 5.332031 32 10.515625 32 16 L 32 240 C 32 245.179688 37.484375 250.667969 42.667969 250.667969 L 213.332031 250.667969 C 218.515625 250.667969 224 245.179688 224 240 L 224 74.667969 L 154.667969 5.332031 Z "/>
<path style="fill:#000;fill-opacity:.196" d="M 154.667969 64 L 155 64.332031 L 155.832031 64 Z M 165.332031 74.667969 L 224 133.332031 L 224 74.667969 Z "/>
<path style="fill:#fff;fill-opacity:.392" d="M 154.667969 5.332031 L 224 74.667969 L 165.332031 74.667969 C 160.152344 74.667969 154.667969 69.179688 154.667969 64 Z "/>
<g style="fill:#545454">
<path d="M 74.769531 169.703125 L 72.996094 159.078125 L 62.886719 159.078125 L 61.171875 169.703125 L 53.332031 169.703125 C 55.128906 160.636719 56.945312 152.390625 58.785156 144.960938 C 60.621094 137.480469 62.398438 130.394531 64.113281 123.707031 L 72.320312 123.707031 C 74.117188 130.445312 75.894531 137.601562 77.648438 145.183594 C 79.445312 152.710938 81.183594 160.886719 82.855469 169.703125 L 74.769531 169.703125 M 68.035156 132.625 C 67.625 134.359375 67.238281 136.019531 66.871094 137.601562 C 66.542969 139.140625 66.214844 140.675781 65.890625 142.210938 C 65.605469 143.695312 65.316406 145.207031 65.03125 146.742188 C 64.785156 148.277344 64.542969 149.863281 64.296875 151.496094 L 71.707031 151.496094 C 71.464844 149.863281 71.21875 148.277344 70.972656 146.742188 C 70.730469 145.207031 70.441406 143.695312 70.117188 142.210938 C 69.832031 140.675781 69.503906 139.140625 69.136719 137.601562 C 68.808594 136.019531 68.441406 134.359375 68.035156 132.625 "/>
<path d="M 97.617188 163.015625 C 98.882812 163.015625 99.925781 162.867188 100.742188 162.570312 C 101.601562 162.222656 102.273438 161.777344 102.761719 161.230469 C 103.253906 160.636719 103.582031 159.992188 103.742188 159.300781 C 103.949219 158.558594 104.050781 157.8125 104.050781 157.070312 C 104.050781 156.128906 103.824219 155.289062 103.375 154.542969 C 102.925781 153.800781 102.355469 153.15625 101.660156 152.613281 C 100.964844 152.019531 100.191406 151.496094 99.332031 151.050781 C 98.476562 150.558594 97.617188 150.109375 96.761719 149.714844 C 95.617188 149.21875 94.433594 148.648438 93.207031 148.003906 C 91.984375 147.363281 90.859375 146.542969 89.839844 145.554688 C 88.859375 144.5625 88.042969 143.347656 87.390625 141.914062 C 86.734375 140.425781 86.410156 138.59375 86.410156 136.414062 C 86.410156 132.105469 87.550781 128.738281 89.839844 126.308594 C 92.167969 123.882812 95.351562 122.667969 99.394531 122.667969 C 101.722656 122.667969 103.742188 122.992188 105.457031 123.632812 C 107.214844 124.277344 108.683594 124.996094 109.867188 125.789062 L 107.664062 132.847656 C 106.644531 132.15625 105.5 131.558594 104.234375 131.066406 C 103.007812 130.570312 101.578125 130.320312 99.945312 130.320312 C 95.945312 130.320312 93.941406 132.078125 93.941406 135.597656 C 93.941406 136.488281 94.148438 137.28125 94.554688 137.976562 C 94.964844 138.617188 95.472656 139.214844 96.085938 139.757812 C 96.742188 140.253906 97.453125 140.699219 98.230469 141.09375 C 99.046875 141.492188 99.84375 141.863281 100.621094 142.210938 C 101.804688 142.753906 103.027344 143.375 104.292969 144.066406 C 105.601562 144.710938 106.785156 145.601562 107.847656 146.742188 C 108.949219 147.832031 109.847656 149.21875 110.542969 150.902344 C 111.238281 152.539062 111.582031 154.617188 111.582031 157.144531 C 111.582031 161.453125 110.421875 164.796875 108.09375 167.175781 C 105.804688 169.503906 102.3125 170.667969 97.617188 170.667969 C 94.472656 170.667969 91.960938 170.273438 90.085938 169.480469 C 88.207031 168.636719 86.796875 167.871094 85.859375 167.175781 L 88.0625 159.746094 C 89.164062 160.539062 90.472656 161.28125 91.984375 161.976562 C 93.535156 162.667969 95.414062 163.015625 97.617188 163.015625 "/>
<path d="M 132.164062 170.667969 C 126.816406 170.667969 122.730469 168.585938 119.914062 164.425781 C 117.097656 160.265625 115.6875 154.347656 115.6875 146.667969 C 115.6875 142.855469 116.117188 139.460938 116.972656 136.488281 C 117.832031 133.515625 119.015625 131.015625 120.527344 128.984375 C 122.078125 126.902344 123.894531 125.34375 125.976562 124.304688 C 128.101562 123.214844 130.410156 122.667969 132.898438 122.667969 C 134.246094 122.667969 135.453125 122.816406 136.511719 123.113281 C 137.617188 123.363281 138.574219 123.660156 139.390625 124.003906 C 140.210938 124.351562 140.882812 124.722656 141.414062 125.121094 C 141.984375 125.515625 142.414062 125.8125 142.699219 126.011719 L 140.738281 133.292969 C 139.800781 132.550781 138.65625 131.929688 137.308594 131.4375 C 136.003906 130.890625 134.492188 130.617188 132.777344 130.617188 C 131.59375 130.617188 130.429688 130.890625 129.285156 131.4375 C 128.183594 131.929688 127.183594 132.796875 126.285156 134.035156 C 125.425781 135.226562 124.710938 136.835938 124.140625 138.867188 C 123.609375 140.898438 123.34375 143.421875 123.34375 146.445312 C 123.34375 151.695312 124.078125 155.734375 125.550781 158.558594 C 127.058594 161.332031 129.511719 162.71875 132.898438 162.71875 C 134.859375 162.71875 136.472656 162.445312 137.738281 161.898438 C 139.046875 161.355469 140.085938 160.8125 140.863281 160.265625 L 142.761719 167.472656 C 141.699219 168.265625 140.25 169.007812 138.414062 169.703125 C 136.617188 170.347656 134.53125 170.667969 132.164062 170.667969 "/>
<path d="M 147.96875 169.703125 L 147.96875 162.125 L 156.238281 162.125 L 156.238281 131.289062 L 147.96875 131.289062 L 147.96875 123.707031 L 172.039062 123.707031 L 172.039062 131.289062 L 163.832031 131.289062 L 163.832031 162.125 L 172.039062 162.125 L 172.039062 169.703125 L 147.96875 169.703125 "/>
<path d="M 178.59375 169.703125 L 178.59375 162.125 L 186.863281 162.125 L 186.863281 131.289062 L 178.59375 131.289062 L 178.59375 123.707031 L 202.667969 123.707031 L 202.667969 131.289062 L 194.457031 131.289062 L 194.457031 162.125 L 202.667969 162.125 L 202.667969 169.703125 L 178.59375 169.703125 "/>
</g>
</svg>
