<?xml version="1.0" encoding="UTF-8" standalone="no"?>
<svg
   xmlns:dc="http://purl.org/dc/elements/1.1/"
   xmlns:cc="http://creativecommons.org/ns#"
   xmlns:rdf="http://www.w3.org/1999/02/22-rdf-syntax-ns#"
   xmlns:svg="http://www.w3.org/2000/svg"
   xmlns="http://www.w3.org/2000/svg"
   xmlns:sodipodi="http://sodipodi.sourceforge.net/DTD/sodipodi-0.dtd"
   xmlns:inkscape="http://www.inkscape.org/namespaces/inkscape"
   width="256px"
   height="256px"
   viewBox="0 0 256 256"
   version="1.1"
   id="svg2"
   inkscape:version="0.91 r13725"
   sodipodi:docname="application-x-scribus.svg">
  <metadata
     id="metadata21">
    <rdf:RDF>
      <cc:Work
         rdf:about="">
        <dc:format>image/svg+xml</dc:format>
        <dc:type
           rdf:resource="http://purl.org/dc/dcmitype/StillImage" />
        <dc:title></dc:title>
      </cc:Work>
    </rdf:RDF>
  </metadata>
  <defs
     id="defs19" />
  <sodipodi:namedview
     pagecolor="#ffffff"
     bordercolor="#666666"
     borderopacity="1"
     objecttolerance="10"
     gridtolerance="10"
     guidetolerance="10"
     inkscape:pageopacity="0"
     inkscape:pageshadow="2"
     inkscape:window-width="1366"
     inkscape:window-height="713"
     id="namedview17"
     showgrid="true"
     inkscape:zoom="2.8284271"
     inkscape:cx="128"
     inkscape:cy="41.220339"
     inkscape:window-x="0"
     inkscape:window-y="28"
     inkscape:window-maximized="1"
     inkscape:current-layer="svg2">
    <inkscape:grid
       type="xygrid"
       id="grid3374" />
  </sodipodi:namedview>
  <g
     id="surface1">
    <path
       style=" stroke:none;fill-rule:nonzero;fill:rgb(92.156863%,10.588235%,13.72549%);fill-opacity:1;"
       d="M 42.6875 0 C 37.1875 0 32 5.421875 32 11.15625 L 32 244.84375 C 32 250.265625 37.5 256 42.6875 256 L 213.3125 256 C 218.5 256 224 250.265625 224 244.84375 L 224 72 L 152 0 Z M 42.6875 0 "
       id="path5" />
    <path
       style=" stroke:none;fill-rule:nonzero;fill:rgb(0%,0%,0%);fill-opacity:0.196078;"
       d="M 168 72 L 224 128 L 224 72 Z M 168 72 "
       id="path7" />
    <path
       style=" stroke:none;fill-rule:nonzero;fill:rgb(100%,100%,100%);fill-opacity:0.392157;"
       d="M 152 0 L 223.9375 72 L 163.03125 72 C 157.640625 72 152 66.296875 152 60.90625 Z M 152 0 "
       id="path9" />
  </g>
  <path
     style="color:#000000;font-style:normal;font-variant:normal;font-weight:normal;font-stretch:normal;font-size:medium;line-height:normal;font-family:sans-serif;text-indent:0;text-align:start;text-decoration:none;text-decoration-line:none;text-decoration-style:solid;text-decoration-color:#000000;letter-spacing:normal;word-spacing:normal;text-transform:none;direction:ltr;block-progression:tb;writing-mode:lr-tb;baseline-shift:baseline;text-anchor:start;white-space:normal;clip-rule:nonzero;display:inline;overflow:visible;visibility:visible;opacity:1;isolation:auto;mix-blend-mode:normal;color-interpolation:sRGB;color-interpolation-filters:linearRGB;solid-color:#000000;solid-opacity:1;fill:#f3ffff;fill-opacity:1;fill-rule:evenodd;stroke:none;stroke-width:0.56400001;stroke-linecap:butt;stroke-linejoin:miter;stroke-miterlimit:4;stroke-dasharray:none;stroke-dashoffset:0;stroke-opacity:1;color-rendering:auto;image-rendering:auto;shape-rendering:auto;text-rendering:auto;enable-background:accumulate"
     d="m 153.32205,88.278725 c -3.41647,-0.385759 -6.15998,-0.387839 -8.67645,0.1024 -2.51648,0.490079 -4.84703,1.691244 -6.23231,3.201192 -1.3856,1.509916 -1.81935,2.993336 -2.03679,3.712006 -4.87919,9.582677 -10.64846,19.101187 -15.92716,27.244107 -6.51487,9.65401 -14.12173,20.89976 -18.08604,29.9685 -2.41375,5.53973 -5.01422,12.21502 -7.57662,19.17306 C 89.46414,186.25854 84.66527,200.82746 80,215.47488 87.5955,216 87.5955,215.9576 93.45613,216 c 4.31438,-7.9228 11.47229,-15.45678 17.46139,-20.95815 10.35965,-9.45782 25.30762,-19.12546 39.58342,-21.28449 l 4.80671,-0.7152 c 0.2656,-14.93556 1.63311,-31.10336 9.01278,-44.20355 3.02607,-5.44509 7.24974,-9.76673 11.16125,-14.71182 1.00639,-0.81168 0.2176,-1.77115 0.3264,-2.6563 -2.92144,-14.500395 -12.81821,-21.695481 -22.20027,-23.157493 -0.096,0.0176 -0.1984,-0.024 -0.2848,-0.0352 z"
     id="path53"
     inkscape:connector-curvature="0"
     sodipodi:nodetypes="cssccccccccccccccc" />
</svg>
