
<svg xmlns="http://www.w3.org/2000/svg" xmlns:xlink="http://www.w3.org/1999/xlink" width="256px" height="256px" viewBox="0 0 256 256" version="1.1">
<g id="surface1">
<path style=" stroke:none;fill-rule:nonzero;fill:rgb(63.921569%,21.176471%,22.352941%);fill-opacity:1;" d="M 42.6875 0 C 37.1875 0 32 5.421875 32 11.15625 L 32 244.84375 C 32 250.265625 37.5 256 42.6875 256 L 213.3125 256 C 218.5 256 224 250.265625 224 244.84375 L 224 72 L 152 0 Z M 42.6875 0 "/>
<path style=" stroke:none;fill-rule:nonzero;fill:rgb(0%,0%,0%);fill-opacity:0.196078;" d="M 32 192 L 32 245.34375 C 32 250.53125 37.5 256 42.65625 256 L 213.34375 256 C 218.5 256 224 250.53125 224 245.34375 L 224 192 Z M 32 192 "/>
<path style=" stroke:none;fill-rule:nonzero;fill:rgb(0%,0%,0%);fill-opacity:0.196078;" d="M 168 72 L 224 128 L 224 72 Z M 168 72 "/>
<path style=" stroke:none;fill-rule:nonzero;fill:rgb(100%,100%,100%);fill-opacity:1;" d="M 82.453125 224.875 C 82.453125 227.015625 82.5625 229.03125 82.6875 230.90625 C 82.921875 232.75 83.296875 234.375 83.796875 235.75 C 84.40625 237.125 85.171875 238.1875 86.1875 239 C 87.1875 239.796875 88.5625 240.203125 90.234375 240.203125 C 91.875 240.203125 93.21875 239.796875 94.234375 239 C 95.265625 238.1875 96.078125 237.125 96.609375 235.75 C 97.171875 234.296875 97.546875 232.6875 97.71875 230.84375 C 97.921875 229 98.015625 227.015625 98.015625 224.875 C 98.015625 222.765625 97.921875 220.78125 97.71875 218.9375 C 97.546875 217.03125 97.171875 215.421875 96.609375 214.046875 C 96.078125 212.671875 95.296875 211.59375 94.296875 210.796875 C 93.296875 209.984375 91.953125 209.578125 90.234375 209.578125 C 88.5625 209.578125 87.1875 209.984375 86.1875 210.796875 C 85.171875 211.59375 84.40625 212.703125 83.796875 214.109375 C 83.296875 215.484375 82.921875 217.09375 82.6875 218.9375 C 82.5625 220.78125 82.453125 222.765625 82.453125 224.875 M 72.53125 224.875 C 72.53125 217.328125 74.109375 211.625 77.21875 207.8125 C 80.34375 203.921875 84.671875 202 90.234375 202 C 96 202 100.40625 203.921875 103.421875 207.8125 C 106.4375 211.625 107.9375 217.328125 107.9375 224.875 C 107.9375 232.453125 106.40625 238.15625 103.34375 242.046875 C 100.265625 245.875 95.9375 247.78125 90.34375 247.78125 C 84.5625 247.78125 80.140625 245.875 77.0625 242.046875 C 74.046875 238.15625 72.53125 232.453125 72.53125 224.875 "/>
<path style=" stroke:none;fill-rule:nonzero;fill:rgb(100%,100%,100%);fill-opacity:1;" d="M 124.140625 239.765625 C 124.40625 239.828125 124.71875 239.828125 125.015625 239.828125 C 125.3125 239.828125 125.609375 239.828125 125.890625 239.828125 C 128.09375 239.828125 129.96875 239.46875 131.453125 238.734375 C 132.953125 237.953125 134.203125 236.921875 135.109375 235.609375 C 136.046875 234.265625 136.71875 232.71875 137.078125 230.90625 C 137.484375 229.0625 137.71875 227.0625 137.71875 224.875 C 137.71875 223 137.5625 221.15625 137.25 219.375 C 136.921875 217.5625 136.34375 215.984375 135.578125 214.609375 C 134.765625 213.234375 133.703125 212.171875 132.328125 211.359375 C 130.953125 210.484375 129.171875 210.09375 126.984375 210.09375 C 126.59375 210.09375 126.078125 210.09375 125.578125 210.15625 C 125.046875 210.15625 124.578125 210.1875 124.140625 210.296875 L 124.140625 239.765625 M 147.65625 224.875 C 147.65625 228.96875 147.046875 232.421875 145.90625 235.3125 C 144.765625 238.15625 143.21875 240.46875 141.203125 242.25 C 139.203125 244.0625 136.78125 245.359375 133.96875 246.234375 C 131.21875 247.046875 128.203125 247.40625 124.84375 247.40625 C 123.09375 247.40625 121.390625 247.34375 119.6875 247.140625 C 118.03125 247.015625 116.296875 246.734375 114.375 246.375 L 114.375 203.546875 C 116.59375 203.140625 118.671875 202.84375 120.65625 202.703125 C 122.59375 202.578125 124.4375 202.515625 126.125 202.515625 C 129.34375 202.515625 132.296875 202.90625 134.9375 203.78125 C 137.625 204.625 139.90625 205.96875 141.75 207.8125 C 143.625 209.625 145.03125 211.9375 146.03125 214.75 C 147.109375 217.53125 147.65625 220.921875 147.65625 224.875 "/>
<path style=" stroke:none;fill-rule:nonzero;fill:rgb(100%,100%,100%);fill-opacity:1;" d="M 187.015625 233.59375 C 187.015625 236.25 186.515625 238.453125 185.515625 240.265625 C 184.5 242.015625 183.125 243.421875 181.390625 244.53125 C 179.671875 245.5625 177.625 246.3125 175.25 246.78125 C 172.9375 247.21875 170.421875 247.40625 167.703125 247.40625 C 165.5625 247.40625 163.3125 247.3125 160.96875 247.078125 C 158.640625 246.875 156.328125 246.578125 154.046875 246.140625 L 154.046875 203.546875 C 155.9375 203.28125 157.9375 203.046875 160.1875 202.84375 C 162.40625 202.609375 164.578125 202.515625 166.765625 202.515625 C 170.484375 202.515625 173.46875 202.84375 175.8125 203.546875 C 178.125 204.21875 179.96875 205.125 181.28125 206.265625 C 182.625 207.34375 183.53125 208.578125 184 209.921875 C 184.46875 211.296875 184.703125 212.671875 184.703125 214.046875 C 184.703125 216.125 184.140625 217.96875 182.953125 219.578125 C 181.859375 221.1875 180.34375 222.46875 178.4375 223.40625 C 181.75 224.46875 184.03125 225.953125 185.171875 227.796875 C 186.421875 229.640625 187.015625 231.578125 187.015625 233.59375 M 163.8125 227.65625 L 163.8125 239.5625 C 164.515625 239.671875 165.25 239.734375 166.0625 239.765625 C 166.890625 239.828125 167.703125 239.828125 168.5 239.828125 C 169.609375 239.828125 170.71875 239.765625 171.765625 239.625 C 172.828125 239.4375 173.734375 239.125 174.546875 238.734375 C 175.375 238.21875 176.078125 237.59375 176.625 236.78125 C 177.125 235.9375 177.390625 234.875 177.390625 233.59375 C 177.390625 231.484375 176.625 229.96875 175.109375 229.0625 C 173.609375 228.125 171.59375 227.65625 169.078125 227.65625 L 163.8125 227.65625 M 167.640625 220.421875 C 170.109375 220.421875 172 219.953125 173.265625 219.015625 C 174.546875 218 175.1875 216.65625 175.1875 214.953125 C 175.1875 213.90625 174.984375 213.109375 174.609375 212.5 C 174.234375 211.828125 173.734375 211.328125 173.09375 211 C 172.46875 210.625 171.71875 210.390625 170.890625 210.296875 C 170.046875 210.15625 169.171875 210.09375 168.265625 210.09375 C 167.53125 210.09375 166.765625 210.09375 165.953125 210.15625 C 165.1875 210.1875 164.453125 210.25 163.8125 210.359375 L 163.8125 220.421875 L 167.640625 220.421875 "/>
<path style=" stroke:none;fill-rule:nonzero;fill:rgb(100%,100%,100%);fill-opacity:0.392157;" d="M 152 0 L 223.9375 72 L 163.03125 72 C 157.640625 72 152 66.296875 152 60.90625 Z M 152 0 "/>
<path style=" stroke:none;fill-rule:nonzero;fill:rgb(100%,100%,100%);fill-opacity:1;" d="M 128 87.96875 C 105.90625 87.96875 88 93.5625 88 100.484375 L 88 110.46875 C 88 117.390625 105.90625 122.984375 128 122.984375 C 150.09375 122.984375 168 117.390625 168 110.46875 L 168 100.484375 C 168 93.5625 150.09375 87.96875 128 87.96875 Z M 128 87.96875 "/>
<path style=" stroke:none;fill-rule:nonzero;fill:rgb(100%,100%,100%);fill-opacity:1;" d="M 127.875 127.96875 C 109.953125 127.96875 94.859375 124.3125 89.765625 119.234375 C 88.5625 120.40625 88 121.671875 88 122.984375 L 88 132.984375 C 88 139.890625 105.90625 145.5 128 145.5 C 150.09375 145.5 168 139.890625 168 132.984375 L 168 122.984375 C 168 121.671875 167.296875 120.40625 166.125 119.234375 C 161.03125 124.3125 145.78125 127.96875 127.875 127.96875 Z M 127.875 127.96875 "/>
<path style=" stroke:none;fill-rule:nonzero;fill:rgb(100%,100%,100%);fill-opacity:1;" d="M 127.875 150.46875 C 109.953125 150.46875 94.859375 146.8125 89.765625 141.75 C 88.5625 142.921875 88 144.171875 88 145.5 L 88 155.484375 C 88 162.40625 105.90625 168 128 168 C 150.09375 168 168 162.40625 168 155.484375 L 168 145.5 C 168 144.171875 167.296875 142.921875 166.125 141.75 C 161.03125 146.8125 145.78125 150.46875 127.875 150.46875 Z M 127.875 150.46875 "/>
</g>
</svg>
