
<svg xmlns="http://www.w3.org/2000/svg" xmlns:xlink="http://www.w3.org/1999/xlink" width="256px" height="256px" viewBox="0 0 256 256" version="1.1">
<g id="surface1">
<path style=" stroke:none;fill-rule:nonzero;fill:rgb(92.941176%,68.627451%,0.784314%);fill-opacity:1;" d="M 42.6875 0 C 37.1875 0 32 5.421875 32 11.15625 L 32 244.84375 C 32 250.265625 37.5 256 42.6875 256 L 213.3125 256 C 218.5 256 224 250.265625 224 244.84375 L 224 72 L 152 0 Z M 42.6875 0 "/>
<path style=" stroke:none;fill-rule:nonzero;fill:rgb(0%,0%,0%);fill-opacity:0.196078;" d="M 168 72 L 224 128 L 224 72 Z M 168 72 "/>
<path style=" stroke:none;fill-rule:nonzero;fill:rgb(100%,100%,100%);fill-opacity:0.392157;" d="M 152 0 L 223.9375 72 L 163.03125 72 C 157.640625 72 152 66.296875 152 60.90625 Z M 152 0 "/>
<path style=" stroke:none;fill-rule:nonzero;fill:rgb(0%,0%,0%);fill-opacity:0.196078;" d="M 32 192 L 32 245.34375 C 32 250.53125 37.5 256 42.65625 256 L 213.34375 256 C 218.5 256 224 250.53125 224 245.34375 L 224 192 Z M 32 192 "/>
<path style=" stroke:none;fill-rule:nonzero;fill:rgb(100%,100%,100%);fill-opacity:1;" d="M 80 176 L 80 88 L 176 88 L 176 176 L 120 176 L 120 128 L 144 128 L 144 144 L 136 144 L 136 160 L 160 160 L 160 104 L 96 104 L 96 176 Z M 80 176 "/>
<path style=" stroke:none;fill-rule:nonzero;fill:rgb(100%,100%,100%);fill-opacity:1;" d="M 81.171875 225.46875 C 81.171875 227.578125 81.265625 229.5625 81.40625 231.40625 C 81.640625 233.21875 82 234.796875 82.53125 236.15625 C 83.09375 237.515625 83.875 238.5625 84.875 239.359375 C 85.859375 240.15625 87.171875 240.546875 88.859375 240.546875 C 90.46875 240.546875 91.796875 240.15625 92.78125 239.359375 C 93.8125 238.5625 94.59375 237.515625 95.125 236.15625 C 95.6875 234.734375 96.078125 233.15625 96.21875 231.34375 C 96.453125 229.53125 96.546875 227.578125 96.546875 225.46875 C 96.546875 223.390625 96.453125 221.4375 96.21875 219.625 C 96.078125 217.75 95.6875 216.171875 95.125 214.8125 C 94.59375 213.453125 93.84375 212.40625 92.84375 211.609375 C 91.859375 210.828125 90.546875 210.421875 88.859375 210.421875 C 87.171875 210.421875 85.859375 210.828125 84.875 211.609375 C 83.875 212.40625 83.09375 213.5 82.53125 214.875 C 82 216.234375 81.640625 217.8125 81.40625 219.625 C 81.265625 221.4375 81.171875 223.390625 81.171875 225.46875 M 71.375 225.46875 C 71.375 218.046875 72.921875 212.4375 76 208.671875 C 79.09375 204.84375 83.390625 202.96875 88.859375 202.96875 C 94.5625 202.96875 98.890625 204.84375 101.859375 208.671875 C 104.859375 212.4375 106.34375 218.046875 106.34375 225.46875 C 106.34375 232.921875 104.828125 238.53125 101.796875 242.359375 C 98.75 246.125 94.46875 248 88.921875 248 C 83.25 248 78.890625 246.125 75.859375 242.359375 C 72.859375 238.53125 71.375 232.921875 71.375 225.46875 "/>
<path style=" stroke:none;fill-rule:nonzero;fill:rgb(100%,100%,100%);fill-opacity:1;" d="M 122.3125 240.109375 C 122.578125 240.1875 122.875 240.1875 123.171875 240.1875 C 123.5 240.1875 123.796875 240.1875 124.0625 240.1875 C 126.234375 240.1875 128.046875 239.8125 129.53125 239.0625 C 131.046875 238.328125 132.234375 237.3125 133.125 235.984375 C 134.09375 234.703125 134.71875 233.15625 135.078125 231.40625 C 135.5 229.59375 135.703125 227.609375 135.703125 225.46875 C 135.703125 223.625 135.578125 221.8125 135.234375 220.03125 C 134.9375 218.28125 134.390625 216.71875 133.59375 215.375 C 132.828125 214.015625 131.75 212.96875 130.390625 212.171875 C 129.046875 211.3125 127.296875 210.921875 125.140625 210.921875 C 124.71875 210.921875 124.25 210.921875 123.734375 210.984375 C 123.203125 210.984375 122.734375 211.015625 122.3125 211.125 L 122.3125 240.109375 M 145.5 225.46875 C 145.5 229.453125 144.9375 232.890625 143.78125 235.734375 C 142.703125 238.53125 141.140625 240.8125 139.171875 242.5625 C 137.1875 244.34375 134.8125 245.625 132.046875 246.453125 C 129.296875 247.234375 126.296875 247.640625 123.03125 247.640625 C 121.28125 247.640625 119.609375 247.578125 117.921875 247.375 C 116.3125 247.234375 114.5625 246.984375 112.671875 246.609375 L 112.671875 204.484375 C 114.890625 204.0625 116.9375 203.796875 118.875 203.65625 C 120.796875 203.53125 122.609375 203.4375 124.296875 203.4375 C 127.453125 203.4375 130.359375 203.859375 132.96875 204.6875 C 135.640625 205.546875 137.875 206.859375 139.734375 208.671875 C 141.546875 210.421875 142.96875 212.734375 143.953125 215.5 C 145 218.25 145.5 221.578125 145.5 225.46875 "/>
<path style=" stroke:none;fill-rule:nonzero;fill:rgb(100%,100%,100%);fill-opacity:1;" d="M 172.09375 210.421875 C 169.78125 210.421875 167.828125 210.78125 166.28125 211.546875 C 164.703125 212.265625 163.421875 213.328125 162.359375 214.6875 C 161.375 215.96875 160.640625 217.546875 160.1875 219.390625 C 159.75 221.21875 159.5625 223.265625 159.5625 225.46875 C 159.5625 230.640625 160.453125 234.4375 162.296875 236.921875 C 164.109375 239.328125 166.8125 240.546875 170.34375 240.546875 C 170.9375 240.546875 171.5625 240.515625 172.21875 240.484375 C 172.921875 240.40625 173.546875 240.34375 174.109375 240.25 L 174.109375 224.515625 L 183.765625 224.515625 L 183.765625 246.046875 C 182.609375 246.421875 180.796875 246.84375 178.359375 247.3125 C 175.953125 247.765625 173.015625 248 169.578125 248 C 166.546875 248 163.8125 247.53125 161.34375 246.609375 C 158.921875 245.625 156.890625 244.203125 155.171875 242.359375 C 153.421875 240.453125 152.09375 238.109375 151.140625 235.296875 C 150.21875 232.46875 149.75 229.203125 149.75 225.46875 C 149.75 221.8125 150.28125 218.578125 151.40625 215.796875 C 152.5 212.96875 153.984375 210.59375 155.859375 208.671875 C 157.734375 206.765625 159.953125 205.34375 162.53125 204.421875 C 165.0625 203.4375 167.828125 202.96875 170.734375 202.96875 C 172.625 202.96875 174.296875 203.109375 175.75 203.359375 C 177.265625 203.59375 178.59375 203.890625 179.671875 204.21875 C 180.765625 204.546875 181.65625 204.890625 182.34375 205.25 C 183.078125 205.640625 183.640625 205.90625 184 206.109375 L 181.5 212.9375 C 180.34375 212.265625 178.921875 211.71875 177.234375 211.1875 C 175.59375 210.6875 173.84375 210.421875 172.09375 210.421875 "/>
</g>
</svg>
