<svg width="256" xmlns="http://www.w3.org/2000/svg" height="256" viewBox="0 0 256 256" xmlns:xlink="http://www.w3.org/1999/xlink">
<path style="fill:#04aa9c" d="M 42.667969 5.332031 C 37.179688 5.332031 32 10.515625 32 16 L 32 240 C 32 245.179688 37.484375 250.667969 42.667969 250.667969 L 213.332031 250.667969 C 218.515625 250.667969 224 245.179688 224 240 L 224 16 C 224 10.515625 218.820312 5.332031 213.332031 5.332031 Z "/>
<path style="fill:#fff" d="M 157.035156 80 C 153.96875 80 151.34375 81.613281 149.90625 84 L 119.703125 84 C 119.703125 84 113.691406 83.898438 107.519531 86.875 C 101.34375 89.851562 94.816406 96.667969 94.816406 108 C 94.816406 119.332031 101.34375 126.148438 107.519531 129.125 C 110.449219 130.539062 113.324219 131.132812 115.554688 131.5 L 115.554688 133.25 L 104.148438 144.25 C 103.796875 144.15625 103.492188 144 103.109375 144 C 100.820312 144 98.964844 145.789062 98.964844 148 C 98.964844 150.210938 100.820312 152 103.109375 152 C 105.402344 152 107.257812 150.210938 107.257812 148 C 107.257812 147.632812 107.097656 147.339844 107 147 L 118.40625 136 L 132.148438 136 L 132.148438 132 L 136.296875 132 C 136.296875 132 140.65625 132.101562 144.851562 134.125 C 149.046875 136.148438 152.890625 139.332031 152.890625 148 C 152.890625 156.667969 149.046875 159.851562 144.851562 161.875 C 140.65625 163.898438 136.296875 164 136.296875 164 L 106.09375 164 C 104.65625 161.613281 102.03125 160 98.964844 160 C 94.382812 160 90.667969 163.582031 90.667969 168 C 90.667969 172.417969 94.382812 176 98.964844 176 C 102.03125 176 104.65625 174.386719 106.09375 172 L 136.296875 172 C 136.296875 172 142.308594 172.101562 148.480469 169.125 C 154.65625 166.148438 161.183594 159.332031 161.183594 148 C 161.183594 136.667969 154.65625 129.851562 148.480469 126.875 C 142.308594 123.898438 136.296875 124 136.296875 124 L 132.148438 124 L 132.148438 122.75 L 143.554688 111.75 C 143.90625 111.84375 144.210938 112 144.59375 112 C 146.882812 112 148.742188 110.210938 148.742188 108 C 148.742188 105.789062 146.882812 104 144.59375 104 C 142.300781 104 140.445312 105.789062 140.445312 108 C 140.445312 108.367188 140.605469 108.660156 140.703125 109 L 129.296875 120 L 115.554688 120 L 115.554688 123.375 C 114.1875 123.058594 112.699219 122.621094 111.148438 121.875 C 106.953125 119.851562 103.109375 116.667969 103.109375 108 C 103.109375 99.332031 106.953125 96.148438 111.148438 94.125 C 115.34375 92.101562 119.703125 92 119.703125 92 L 149.90625 92 C 151.34375 94.386719 153.96875 96 157.035156 96 C 161.617188 96 165.332031 92.417969 165.332031 88 C 165.332031 83.582031 161.617188 80 157.035156 80 Z "/>
</svg>
