<svg width="256" xmlns="http://www.w3.org/2000/svg" height="256" viewBox="0 0 256 256" xmlns:xlink="http://www.w3.org/1999/xlink">
<path style="fill:#9a773c" d="M 42.667969 5.332031 C 37.179688 5.332031 32 10.515625 32 16 L 32 240 C 32 245.179688 37.484375 250.667969 42.667969 250.667969 L 213.332031 250.667969 C 218.515625 250.667969 224 245.179688 224 240 L 224 74.667969 L 154.667969 5.332031 Z "/>
<path style="fill:#000;fill-opacity:.196" d="M 154.667969 64 L 155 64.332031 L 155.832031 64 Z M 165.332031 74.667969 L 224 133.332031 L 224 74.667969 Z "/>
<path style="fill:#fff;fill-opacity:.392" d="M 154.667969 5.332031 L 224 74.667969 L 165.332031 74.667969 C 160.152344 74.667969 154.667969 69.179688 154.667969 64 Z "/>
<g style="fill:#fff">
<path d="M 168.203125 122.738281 C 167.804688 122.9375 167.445312 123.589844 167.101562 124.644531 C 166.175781 127.457031 159.675781 146.898438 122.855469 147.835938 C 105.285156 148.28125 97.808594 132.597656 97.808594 132.597656 L 97.367188 152.765625 C 97.367188 152.765625 99.253906 157.261719 95.492188 161.953125 C 95.285156 161.628906 95.164062 161.261719 94.941406 160.945312 C 93.585938 159.039062 91.996094 157.433594 90.304688 156.238281 C 88.363281 154.867188 86.339844 153.960938 84.347656 153.660156 C 82.046875 153.320312 79.824219 153.824219 78.058594 155.117188 C 76.289062 156.414062 75.261719 158.394531 74.859375 160.71875 C 74.507812 162.734375 74.628906 164.914062 75.300781 167.21875 C 75.882812 169.226562 76.8125 171.25 78.167969 173.15625 C 79.597656 175.171875 81.382812 176.953125 83.242188 178.199219 C 85.34375 179.601562 87.570312 180.421875 89.753906 180.550781 C 90.429688 180.589844 91.121094 180.421875 91.738281 180.328125 C 105.875 191.707031 133.9375 202.328125 152.535156 190.1875 C 152.9375 190.324219 153.34375 190.492188 153.75 190.636719 C 153.757812 190.828125 153.699219 191.023438 153.75 191.195312 L 154.632812 190.859375 C 154.789062 190.910156 154.914062 191.035156 155.074219 191.082031 C 155.109375 191.09375 155.148438 191.074219 155.183594 191.082031 L 155.515625 191.417969 L 163.902344 194.445312 C 163.558594 197.402344 164.996094 200.757812 168.644531 202.175781 C 175.214844 204.726562 181.335938 208 181.335938 208 C 178.199219 197.199219 177.054688 188.527344 168.867188 189.289062 C 167.34375 189.433594 166.191406 190.066406 165.335938 190.972656 L 157.941406 186.152344 L 157.613281 186.152344 L 157.5 186.042969 C 167.457031 176.09375 173.277344 157.394531 169.75 124.867188 C 169.542969 123.242188 168.871094 122.40625 168.203125 122.738281 Z "/>
<path d="M 96 5.332031 L 96 26.667969 L 117.332031 26.667969 L 117.332031 5.332031 Z M 96 26.667969 L 74.667969 26.667969 L 74.667969 48 L 96 48 Z M 96 48 L 96 69.332031 L 117.332031 69.332031 L 117.332031 48 Z M 74.667969 80 L 74.667969 122.667969 L 117.332031 122.667969 L 117.332031 80 Z "/>
</g>
</svg>
