
<svg xmlns="http://www.w3.org/2000/svg" xmlns:xlink="http://www.w3.org/1999/xlink" width="256px" height="256px" viewBox="0 0 256 256" version="1.1">
<g id="surface1">
<path style=" stroke:none;fill-rule:nonzero;fill:rgb(86.27451%,86.27451%,86.27451%);fill-opacity:1;" d="M 42.6875 0 C 37.1875 0 32 5.421875 32 11.15625 L 32 244.84375 C 32 250.265625 37.5 256 42.6875 256 L 213.3125 256 C 218.5 256 224 250.265625 224 244.84375 L 224 72 L 152 0 Z M 42.6875 0 "/>
<path style=" stroke:none;fill-rule:nonzero;fill:rgb(0%,0%,0%);fill-opacity:0.196078;" d="M 168 72 L 224 128 L 224 72 Z M 168 72 "/>
<path style=" stroke:none;fill-rule:nonzero;fill:rgb(100%,100%,100%);fill-opacity:0.392157;" d="M 152 0 L 223.9375 72 L 163.03125 72 C 157.640625 72 152 66.296875 152 60.90625 Z M 152 0 "/>
<path style=" stroke:none;fill-rule:nonzero;fill:rgb(53.333333%,53.333333%,53.333333%);fill-opacity:1;" d="M 128 96 C 97.0625 96 72 121.078125 72 151.984375 C 72 182.921875 97.0625 208 128 208 C 158.9375 208 184 182.921875 184 151.984375 C 184 121.078125 158.9375 96 128 96 Z M 128 107.1875 C 152.734375 107.1875 172.78125 127.234375 172.78125 151.984375 C 172.78125 176.734375 152.734375 196.8125 128 196.8125 C 103.265625 196.8125 83.21875 176.734375 83.21875 151.984375 C 83.21875 127.234375 103.265625 107.1875 128 107.1875 Z M 128 107.1875 "/>
<path style=" stroke:none;fill-rule:nonzero;fill:rgb(53.333333%,53.333333%,53.333333%);fill-opacity:1;" d="M 139.1875 129.609375 C 139.1875 135.765625 134.171875 140.796875 128 140.796875 C 121.796875 140.796875 116.8125 135.765625 116.8125 129.609375 C 116.8125 123.40625 121.796875 118.375 128 118.375 C 134.171875 118.375 139.1875 123.40625 139.1875 129.609375 Z M 139.1875 129.609375 "/>
<path style=" stroke:none;fill-rule:nonzero;fill:rgb(53.333333%,53.333333%,53.333333%);fill-opacity:1;" d="M 122.390625 146.40625 L 133.609375 146.40625 C 139.1875 146.40625 139.1875 146.375 139.1875 151.984375 L 139.1875 180.015625 C 139.1875 185.59375 139.21875 185.59375 133.609375 185.59375 L 122.390625 185.59375 C 116.8125 185.59375 116.8125 185.625 116.8125 180.015625 L 116.8125 151.984375 C 116.8125 146.40625 116.78125 146.40625 122.390625 146.40625 Z M 122.390625 146.40625 "/>
</g>
</svg>
