<svg width="256" xmlns="http://www.w3.org/2000/svg" height="256" viewBox="0 0 256 256" xmlns:xlink="http://www.w3.org/1999/xlink">
<path style="fill:#e5b819" d="M 42.667969 5.332031 C 37.179688 5.332031 32 10.515625 32 16 L 32 240 C 32 245.179688 37.484375 250.667969 42.667969 250.667969 L 213.332031 250.667969 C 218.515625 250.667969 224 245.179688 224 240 L 224 74.667969 L 154.667969 5.332031 Z "/>
<path style="fill:#000;fill-opacity:.196" d="M 154.667969 64 L 155 64.332031 L 155.832031 64 Z M 165.332031 74.667969 L 224 133.332031 L 224 74.667969 Z "/>
<path style="fill:#fff;fill-opacity:.392" d="M 154.667969 5.332031 L 224 74.667969 L 165.332031 74.667969 C 160.152344 74.667969 154.667969 69.179688 154.667969 64 Z "/>
<g style="fill:#fff">
<path d="M 96 85.332031 L 117.332031 85.332031 L 117.332031 192 L 74.667969 192 L 74.667969 170.667969 L 96 170.667969 Z "/>
<path d="M 128 85.332031 L 170.667969 85.332031 L 170.667969 106.667969 L 149.332031 106.667969 L 149.332031 128 L 170.667969 128 L 170.667969 192 L 128 192 L 128 170.667969 L 149.332031 170.667969 L 149.332031 149.332031 L 128 149.332031 Z "/>
</g>
</svg>
