<?xml version="1.0" encoding="UTF-8" standalone="no"?>
<svg
   xmlns:dc="http://purl.org/dc/elements/1.1/"
   xmlns:cc="http://creativecommons.org/ns#"
   xmlns:rdf="http://www.w3.org/1999/02/22-rdf-syntax-ns#"
   xmlns:svg="http://www.w3.org/2000/svg"
   xmlns="http://www.w3.org/2000/svg"
   xmlns:sodipodi="http://sodipodi.sourceforge.net/DTD/sodipodi-0.dtd"
   xmlns:inkscape="http://www.inkscape.org/namespaces/inkscape"
   width="256px"
   height="256px"
   viewBox="0 0 256 256"
   version="1.1"
   id="svg2"
   inkscape:version="0.91 r13725"
   sodipodi:docname="text-x-dsrc.svg">
  <metadata
     id="metadata31">
    <rdf:RDF>
      <cc:Work
         rdf:about="">
        <dc:format>image/svg+xml</dc:format>
        <dc:type
           rdf:resource="http://purl.org/dc/dcmitype/StillImage" />
      </cc:Work>
    </rdf:RDF>
  </metadata>
  <defs
     id="defs29" />
  <sodipodi:namedview
     pagecolor="#ffffff"
     bordercolor="#666666"
     borderopacity="1"
     objecttolerance="10"
     gridtolerance="10"
     guidetolerance="10"
     inkscape:pageopacity="0"
     inkscape:pageshadow="2"
     inkscape:window-width="1366"
     inkscape:window-height="713"
     id="namedview27"
     showgrid="false"
     inkscape:zoom="1"
     inkscape:cx="121.22893"
     inkscape:cy="113.85786"
     inkscape:window-x="0"
     inkscape:window-y="28"
     inkscape:window-maximized="1"
     inkscape:current-layer="svg2">
    <inkscape:grid
       type="xygrid"
       id="grid4143" />
  </sodipodi:namedview>
  <g
     id="surface1">
    <path
       style="stroke:none;fill-rule:nonzero;fill:#2d2d2d;fill-opacity:1"
       d="M 42.6875 0 C 37.1875 0 32 5.421875 32 11.15625 L 32 244.84375 C 32 250.265625 37.5 256 42.6875 256 L 213.3125 256 C 218.5 256 224 250.265625 224 244.84375 L 224 72 L 152 0 Z M 42.6875 0 "
       id="path5" />
    <path
       style=" stroke:none;fill-rule:nonzero;fill:rgb(0%,0%,0%);fill-opacity:0.196078;"
       d="M 168 72 L 224 128 L 224 72 Z M 168 72 "
       id="path7" />
    <path
       style=" stroke:none;fill-rule:nonzero;fill:rgb(100%,100%,100%);fill-opacity:0.392157;"
       d="M 152 0 L 223.9375 72 L 163.03125 72 C 157.640625 72 152 66.296875 152 60.90625 Z M 152 0 "
       id="path9" />
  </g>
  <path
     style="font-style:normal;font-variant:normal;font-weight:normal;font-stretch:normal;font-size:64px;line-height:125%;font-family:'Gill Sans MT';text-align:start;writing-mode:lr-tb;text-anchor:start;display:inline;fill:#dcdcdc;fill-opacity:1;stroke:none"
     d="m 88.001912,96 c -3.925928,0 -8.001896,4.0088 -7.997512,8 L 80,184 c 0,4.28656 3.572776,8 8.001896,8 l 36.808764,0 c 15.6798,0 35.40434,-10.20612 43.97548,-23.661 10.21074,-15.31114 9.47722,-36.77412 -1.53472,-51.47896 C 158.83804,104.8414 140.81446,96 124.81066,96 107.35338,96.016 103.3287,96.0712 88.001896,96 Z m 11.96608,20.01356 c 9.904798,0.1574 19.875618,-0.54728 29.719108,0.77288 8.08788,1.7694 16.1317,4.76132 20.94904,11.72988 5.63372,7.90838 5.71678,19.02778 1.58554,27.60828 -5.01846,9.64906 -15.48224,14.68612 -26.15582,15.43636 -8.65849,0.69272 -17.35289,0.3484 -26.02966,0.45408 z"
     id="path2242"
     inkscape:connector-curvature="0"
     sodipodi:nodetypes="cccccccccccccccc" />
</svg>
