
<svg xmlns="http://www.w3.org/2000/svg" xmlns:xlink="http://www.w3.org/1999/xlink" width="256px" height="256px" viewBox="0 0 256 256" version="1.1">
<g id="surface1">
<path style=" stroke:none;fill-rule:nonzero;fill:rgb(81.960784%,27.45098%,14.901961%);fill-opacity:1;" d="M 42.75 0 C 37.25 0 32 5.515625 32 11.25 L 32 244.75 C 32 250.15625 37.5625 256 42.75 256 L 213.25 256 C 218.4375 256 224 250.15625 224 244.75 L 224 11 C 224 5.609375 218.390625 0 213 0 Z M 42.75 0 "/>
<path style=" stroke:none;fill-rule:nonzero;fill:rgb(0%,0%,0%);fill-opacity:0.196078;" d="M 32 192 L 32 245.34375 C 32 250.53125 37.5 256 42.65625 256 L 213.34375 256 C 218.5 256 224 250.53125 224 245.34375 L 224 192 Z M 32 192 "/>
<path style=" stroke:none;fill-rule:nonzero;fill:rgb(100%,100%,100%);fill-opacity:1;" d="M 64 88 L 104 88 L 104 112 L 64 112 Z M 64 88 "/>
<path style=" stroke:none;fill-rule:nonzero;fill:rgb(100%,100%,100%);fill-opacity:1;" d="M 64 128 L 104 128 L 104 152 L 64 152 Z M 64 128 "/>
<path style=" stroke:none;fill-rule:nonzero;fill:rgb(100%,100%,100%);fill-opacity:1;" d="M 160 79.9375 L 160 112 L 192 112 C 192 94.28125 177.671875 79.9375 160 79.9375 Z M 160 79.9375 "/>
<path style=" stroke:none;fill-rule:nonzero;fill:rgb(100%,100%,100%);fill-opacity:1;" d="M 81.703125 240.890625 C 81.96875 240.953125 82.265625 240.984375 82.5625 240.984375 C 82.890625 240.984375 83.1875 240.984375 83.453125 240.984375 C 85.640625 240.984375 87.484375 240.59375 88.953125 239.84375 C 90.46875 239.078125 91.6875 238.0625 92.5625 236.71875 C 93.515625 235.40625 94.171875 233.859375 94.53125 232.0625 C 94.96875 230.21875 95.1875 228.21875 95.1875 226.0625 C 95.1875 224.1875 95.03125 222.359375 94.703125 220.546875 C 94.40625 218.78125 93.84375 217.203125 93.0625 215.828125 C 92.28125 214.453125 91.1875 213.359375 89.8125 212.578125 C 88.46875 211.71875 86.703125 211.296875 84.53125 211.296875 C 84.109375 211.296875 83.640625 211.328125 83.125 211.359375 C 82.59375 211.359375 82.140625 211.421875 81.703125 211.53125 L 81.703125 240.890625 M 105.03125 226.0625 C 105.03125 230.125 104.4375 233.578125 103.296875 236.453125 C 102.1875 239.28125 100.640625 241.578125 98.640625 243.375 C 96.640625 245.15625 94.28125 246.5 91.484375 247.3125 C 88.734375 248.140625 85.71875 248.53125 82.40625 248.53125 C 80.6875 248.53125 78.984375 248.4375 77.28125 248.234375 C 75.671875 248.109375 73.90625 247.84375 72 247.484375 L 72 204.796875 C 74.234375 204.375 76.296875 204.078125 78.234375 203.953125 C 80.171875 203.8125 82 203.75 83.671875 203.75 C 86.890625 203.75 89.78125 204.171875 92.40625 205 C 95.09375 205.84375 97.359375 207.203125 99.203125 209.03125 C 101.03125 210.84375 102.4375 213.140625 103.46875 215.953125 C 104.515625 218.75 105.03125 222.125 105.03125 226.0625 "/>
<path style=" stroke:none;fill-rule:nonzero;fill:rgb(100%,100%,100%);fill-opacity:1;" d="M 124.8125 203.75 C 131.015625 203.75 135.8125 204.90625 139.21875 207.203125 C 142.625 209.453125 144.34375 213.203125 144.34375 218.34375 C 144.34375 223.59375 142.625 227.375 139.15625 229.734375 C 135.75 232.03125 130.890625 233.203125 124.59375 233.203125 L 121.109375 233.203125 L 121.109375 247.96875 L 111.40625 247.96875 L 111.40625 204.796875 C 112.34375 204.609375 113.40625 204.4375 114.546875 204.3125 C 115.765625 204.171875 116.984375 204.078125 118.1875 204.015625 C 119.40625 203.921875 120.578125 203.84375 121.734375 203.8125 C 122.875 203.75 123.90625 203.75 124.8125 203.75 M 125.90625 211.296875 C 125.34375 211.296875 124.515625 211.328125 123.46875 211.359375 C 122.453125 211.359375 121.671875 211.421875 121.109375 211.53125 L 121.109375 225.625 L 125.046875 225.625 C 128.125 225.625 130.5 225.109375 132.0625 224.03125 C 133.640625 222.875 134.4375 220.96875 134.4375 218.28125 C 134.4375 215.765625 133.640625 213.953125 132.0625 212.9375 C 130.53125 211.859375 128.484375 211.296875 125.90625 211.296875 "/>
<path style=" stroke:none;fill-rule:nonzero;fill:rgb(100%,100%,100%);fill-opacity:1;" d="M 184 204.25 L 184 211.421875 L 171.140625 211.421875 L 171.140625 247.96875 L 161.359375 247.96875 L 161.359375 211.421875 L 148.53125 211.421875 L 148.53125 204.25 L 184 204.25 "/>
<path style=" stroke:none;fill-rule:nonzero;fill:rgb(100%,100%,100%);fill-opacity:1;" d="M 152.015625 88 C 134.34375 88 120 102.3125 120 120 C 120 137.6875 134.34375 152 152.015625 152 C 169.6875 152 184 137.6875 184 120 L 152.015625 120 Z M 152.015625 88 "/>
</g>
</svg>
