
<svg xmlns="http://www.w3.org/2000/svg" xmlns:xlink="http://www.w3.org/1999/xlink" width="256px" height="256px" viewBox="0 0 256 256" version="1.1">
<g id="surface1">
<path style=" stroke:none;fill-rule:nonzero;fill:rgb(20.392157%,40.784314%,80.784314%);fill-opacity:1;" d="M 42.6875 0 C 37.1875 0 32 5.421875 32 11.15625 L 32 244.84375 C 32 250.265625 37.5 256 42.6875 256 L 213.3125 256 C 218.5 256 224 250.265625 224 244.84375 L 224 72 L 152 0 Z M 42.6875 0 "/>
<path style=" stroke:none;fill-rule:nonzero;fill:rgb(0%,0%,0%);fill-opacity:0.196078;" d="M 168 72 L 224 128 L 224 72 Z M 168 72 "/>
<path style=" stroke:none;fill-rule:nonzero;fill:rgb(100%,100%,100%);fill-opacity:0.392157;" d="M 152 0 L 223.9375 72 L 163.03125 72 C 157.640625 72 152 66.296875 152 60.90625 Z M 152 0 "/>
<path style=" stroke:none;fill-rule:evenodd;fill:rgb(97.647059%,97.647059%,97.647059%);fill-opacity:1;" d="M 80 88 L 128 88 L 128 128 L 80 128 Z M 80 88 "/>
<path style=" stroke:none;fill-rule:evenodd;fill:rgb(97.647059%,97.647059%,97.647059%);fill-opacity:1;" d="M 136 88 L 176 88 L 176 96 L 136 96 Z M 136 88 "/>
<path style=" stroke:none;fill-rule:nonzero;fill:rgb(0%,0%,0%);fill-opacity:0.196078;" d="M 32 192 L 32 245.34375 C 32 250.53125 37.5 256 42.65625 256 L 213.34375 256 C 218.5 256 224 250.53125 224 245.34375 L 224 192 Z M 32 192 "/>
<path style=" stroke:none;fill-rule:evenodd;fill:rgb(97.647059%,97.647059%,97.647059%);fill-opacity:1;" d="M 136 104 L 176 104 L 176 112 L 136 112 Z M 136 104 "/>
<path style=" stroke:none;fill-rule:nonzero;fill:rgb(100%,100%,100%);fill-opacity:1;" d="M 94.09375 219.78125 C 94.296875 220.6875 94.625 221.78125 95.03125 223.078125 C 95.46875 224.421875 95.890625 225.875 96.390625 227.453125 C 96.921875 229.046875 97.453125 230.78125 98.0625 232.609375 C 98.6875 234.453125 99.296875 236.3125 99.859375 238.25 C 99.859375 235.8125 99.828125 233.1875 99.796875 230.421875 C 99.734375 227.609375 99.6875 224.75 99.625 221.8125 C 99.5625 218.921875 99.53125 215.984375 99.453125 213.015625 C 99.421875 210.015625 99.390625 207.125 99.390625 204.359375 L 108.421875 204.359375 C 108.25 207.921875 108.09375 211.625 107.921875 215.421875 C 107.796875 219.1875 107.59375 222.921875 107.390625 226.6875 C 107.1875 230.421875 106.921875 234.046875 106.59375 237.671875 C 106.328125 241.28125 106.03125 244.703125 105.65625 247.9375 L 97.5625 247.9375 C 96.390625 245.015625 95.265625 241.84375 94.09375 238.4375 C 92.921875 235.015625 91.765625 231.75 90.59375 228.640625 C 89.4375 231.609375 88.234375 234.84375 86.96875 238.3125 C 85.703125 241.78125 84.53125 245.015625 83.5 247.9375 L 75.40625 247.9375 C 75 244.703125 74.59375 241.28125 74.296875 237.671875 C 73.96875 234.015625 73.703125 230.3125 73.4375 226.609375 C 73.234375 222.84375 73.03125 219.125 72.875 215.359375 C 72.703125 211.546875 72.609375 207.890625 72.46875 204.359375 L 81.5 204.359375 C 81.46875 207.125 81.40625 209.984375 81.328125 212.953125 C 81.296875 215.921875 81.234375 218.890625 81.203125 221.8125 C 81.125 224.75 81.0625 227.609375 81.03125 230.421875 C 80.96875 233.1875 80.9375 235.8125 80.9375 238.25 C 81.4375 236.75 81.96875 235.078125 82.53125 233.3125 C 83.171875 231.515625 83.734375 229.78125 84.265625 228.015625 C 84.859375 226.28125 85.390625 224.6875 85.859375 223.25 C 86.328125 221.78125 86.703125 220.625 86.96875 219.78125 L 94.09375 219.78125 "/>
<path style=" stroke:none;fill-rule:nonzero;fill:rgb(100%,100%,100%);fill-opacity:1;" d="M 127.953125 203.859375 C 134.1875 203.859375 139.015625 205.015625 142.453125 207.328125 C 145.875 209.59375 147.609375 213.28125 147.609375 218.453125 C 147.609375 223.65625 145.84375 227.453125 142.375 229.78125 C 138.953125 232.078125 134.046875 233.25 127.71875 233.25 L 124.25 233.25 L 124.25 247.9375 L 114.515625 247.9375 L 114.515625 204.921875 C 115.453125 204.75 116.515625 204.59375 117.6875 204.421875 C 118.890625 204.296875 120.09375 204.1875 121.3125 204.15625 C 122.515625 204.0625 123.71875 203.984375 124.890625 203.953125 C 126.046875 203.890625 127.078125 203.859375 127.953125 203.859375 M 129.078125 211.421875 C 128.484375 211.421875 127.6875 211.421875 126.625 211.484375 C 125.625 211.484375 124.8125 211.515625 124.25 211.625 L 124.25 225.71875 L 128.21875 225.71875 C 131.3125 225.71875 133.65625 225.15625 135.25 224.078125 C 136.8125 222.953125 137.609375 221.046875 137.609375 218.390625 C 137.609375 215.859375 136.8125 214.046875 135.25 213.015625 C 133.71875 211.953125 131.65625 211.421875 129.078125 211.421875 "/>
<path style=" stroke:none;fill-rule:nonzero;fill:rgb(100%,100%,100%);fill-opacity:1;" d="M 168.171875 241.609375 C 169.796875 241.609375 171.171875 241.484375 172.203125 241.203125 C 173.34375 240.875 174.203125 240.4375 174.84375 239.9375 C 175.46875 239.375 175.875 238.75 176.109375 238.109375 C 176.375 237.375 176.5 236.671875 176.5 235.984375 C 176.5 235.078125 176.203125 234.28125 175.609375 233.578125 C 175.03125 232.875 174.296875 232.28125 173.40625 231.75 C 172.5 231.1875 171.5 230.71875 170.40625 230.28125 C 169.265625 229.8125 168.171875 229.375 167.078125 229.015625 C 165.609375 228.546875 164.078125 228.015625 162.46875 227.375 C 160.90625 226.78125 159.4375 226.015625 158.109375 225.078125 C 156.84375 224.109375 155.8125 222.984375 154.9375 221.609375 C 154.109375 220.21875 153.671875 218.484375 153.671875 216.421875 C 153.671875 212.3125 155.171875 209.125 158.109375 206.828125 C 161.140625 204.515625 165.234375 203.390625 170.46875 203.390625 C 173.46875 203.390625 176.109375 203.6875 178.296875 204.296875 C 180.5625 204.890625 182.46875 205.59375 184 206.328125 L 181.171875 213.015625 C 179.828125 212.359375 178.375 211.8125 176.734375 211.3125 C 175.140625 210.859375 173.296875 210.625 171.171875 210.625 C 166 210.625 163.4375 212.28125 163.4375 215.625 C 163.4375 216.484375 163.703125 217.21875 164.203125 217.890625 C 164.734375 218.484375 165.40625 219.046875 166.203125 219.578125 C 167.03125 220.046875 167.96875 220.484375 168.96875 220.84375 C 170.03125 221.21875 171.03125 221.578125 172.03125 221.890625 C 173.5625 222.421875 175.171875 223.015625 176.796875 223.65625 C 178.5 224.28125 180.03125 225.109375 181.40625 226.1875 C 182.828125 227.21875 183.96875 228.546875 184.859375 230.140625 C 185.765625 231.6875 186.234375 233.640625 186.234375 236.046875 C 186.234375 240.140625 184.734375 243.3125 181.703125 245.578125 C 178.765625 247.78125 174.234375 248.875 168.171875 248.875 C 164.109375 248.875 160.875 248.515625 158.4375 247.734375 C 156.015625 246.9375 154.171875 246.203125 152.96875 245.578125 L 155.84375 238.515625 C 157.234375 239.28125 158.9375 239.984375 160.90625 240.640625 C 162.90625 241.28125 165.34375 241.609375 168.171875 241.609375 "/>
<path style=" stroke:none;fill-rule:evenodd;fill:rgb(97.647059%,97.647059%,97.647059%);fill-opacity:1;" d="M 136 120 L 176 120 L 176 128 L 136 128 Z M 136 120 "/>
<path style=" stroke:none;fill-rule:evenodd;fill:rgb(97.647059%,97.647059%,97.647059%);fill-opacity:1;" d="M 80 136 L 176 136 L 176 144 L 80 144 Z M 80 136 "/>
<path style=" stroke:none;fill-rule:evenodd;fill:rgb(97.647059%,97.647059%,97.647059%);fill-opacity:1;" d="M 80 152 L 176 152 L 176 160 L 80 160 Z M 80 152 "/>
<path style=" stroke:none;fill-rule:evenodd;fill:rgb(97.647059%,97.647059%,97.647059%);fill-opacity:1;" d="M 80 168 L 176 168 L 176 176 L 80 176 Z M 80 168 "/>
</g>
</svg>
