<svg width="16" xmlns="http://www.w3.org/2000/svg" height="16" viewBox="0 0 16 16" xmlns:xlink="http://www.w3.org/1999/xlink">
<g style="stroke:#a47854">
<g style="fill:#a47854;fill-rule:evenodd;stroke-linejoin:round">
<path style="stroke-width:5.418" d="M 30.69422 148.165926 C 69.030416 147.660671 84.50384 142.923909 96.251011 139.323969 C 107.998181 135.660873 125.492623 127.829426 125.492623 127.829426 L 169.449778 217.63844 L 30.69422 217.63844 Z " transform="scale(.06185)"/>
<path style="stroke-width:6.123" d="M 157.260509 182.081144 C 157.260509 182.081144 137.555578 193.070432 131.871463 195.786176 C 123.976859 199.638743 110.398141 209.933306 86.714329 217.259499 L 31.073161 217.259499 L 31.073161 173.365501 C 63.156831 172.418149 86.335388 171.407639 100.735146 165.344584 C 115.134903 159.344685 142.229184 145.260711 142.229184 145.260711 Z " transform="scale(.06185)"/>
<path style="stroke-width:5.418" d="M 132.503032 142.166027 C 153.344786 121.261116 147.344887 115.008589 168.502425 113.240198 C 189.659964 111.40865 225.280416 127.261015 225.280416 127.261015 L 225.280416 217.575283 L 169.449778 217.575283 Z " transform="scale(.06185)"/>
<path style="stroke-width:6.123" d="M 224.585691 184.102162 C 224.585691 184.102162 219.659458 181.449576 213.154305 178.733832 C 206.775465 176.081245 201.659762 174.754951 190.102061 178.102264 C 182.207458 180.312753 175.702304 185.302142 162.313056 195.344078 L 145.260711 152.334276 C 158.523646 140.334479 169.00768 131.871463 182.396928 130.924111 C 195.786176 129.913601 206.775465 132.250404 213.470089 135.597716 C 220.164713 138.945028 223.954123 141.281831 223.954123 141.281831 Z " transform="scale(.06185)"/>
</g>
<path style="fill:none;stroke-linecap:round;stroke-width:8.073" d="M 34.420473 32.020513 L 221.61732 32.020513 C 222.943614 32.020513 223.954123 33.094179 223.954123 34.420473 L 223.954123 221.61732 C 223.954123 222.943614 222.943614 223.954123 221.61732 223.954123 L 34.420473 223.954123 C 33.094179 223.954123 32.020513 222.943614 32.020513 221.61732 L 32.020513 34.420473 C 32.020513 33.094179 33.094179 32.020513 34.420473 32.020513 Z " transform="scale(.06185)"/>
</g>
</svg>
