<svg width="16" xmlns="http://www.w3.org/2000/svg" height="16" viewBox="0 0 16 16" xmlns:xlink="http://www.w3.org/1999/xlink">
<path style="fill:#cc7d6f" d="M 13.128906 1.734375 C 12.941406 1.75 12.753906 1.84375 12.597656 1.992188 L 9.191406 4.953125 C 9.046875 5.097656 8.964844 5.296875 8.964844 5.496094 C 8.964844 5.597656 8.984375 5.683594 9.023438 5.769531 C 9.023438 5.773438 9.019531 5.78125 9.023438 5.785156 C 8.894531 6.054688 8.933594 6.429688 8.933594 7.246094 C 8.933594 7.542969 8.15625 7.859375 7.960938 7.859375 C 7.953125 7.859375 7.941406 7.859375 7.933594 7.859375 C 7.316406 7.859375 5.304688 7.953125 4.683594 8.804688 C 4.0625 9.660156 1.734375 13.535156 1.734375 14.101562 C 2.664062 14.101562 9.417969 10.726562 9.765625 10.410156 C 10.183594 10.023438 9.980469 9.25 9.707031 8.734375 C 9.710938 8.730469 9.707031 8.722656 9.707031 8.71875 C 9.714844 8.699219 9.71875 8.671875 9.695312 8.632812 C 9.550781 8.390625 9.464844 8.144531 9.464844 7.800781 C 9.464844 7.042969 9.542969 6.625 9.707031 6.386719 C 10.074219 6.449219 10.605469 6.269531 10.839844 6.042969 L 13.832031 3.191406 C 14.136719 2.902344 14.207031 2.457031 13.902344 2.164062 L 13.660156 1.921875 C 13.507812 1.773438 13.316406 1.71875 13.128906 1.734375 Z "/>
</svg>
