<svg width="128" xmlns="http://www.w3.org/2000/svg" height="128" viewBox="0 0 128 128" xmlns:xlink="http://www.w3.org/1999/xlink">
<g style="fill:#8f9da9">
<path d="M 63.332031 0 C 28.359375 0 0 28.359375 0 63.332031 C 0 98.308594 28.359375 126.667969 63.332031 126.667969 C 98.308594 126.667969 126.667969 98.308594 126.667969 63.332031 C 126.667969 28.359375 98.308594 0 63.332031 0 Z M 63.332031 39.582031 C 76.445312 39.582031 87.082031 50.222656 87.082031 63.332031 C 87.082031 76.445312 76.445312 87.082031 63.332031 87.082031 C 50.222656 87.082031 39.582031 76.445312 39.582031 63.332031 C 39.582031 50.222656 50.222656 39.582031 63.332031 39.582031 Z "/>
<path d="M 63.332031 47.5 C 54.582031 47.5 47.5 54.582031 47.5 63.332031 C 47.5 72.082031 54.582031 79.167969 63.332031 79.167969 C 72.082031 79.167969 79.167969 72.082031 79.167969 63.332031 C 79.167969 54.582031 72.082031 47.5 63.332031 47.5 Z M 63.332031 55.417969 C 67.707031 55.417969 71.25 58.957031 71.25 63.332031 C 71.25 67.707031 67.707031 71.25 63.332031 71.25 C 58.957031 71.25 55.417969 67.707031 55.417969 63.332031 C 55.417969 58.957031 58.957031 55.417969 63.332031 55.417969 Z "/>
</g>
</svg>
