<svg width="32" xmlns="http://www.w3.org/2000/svg" height="32" viewBox="0 0 32 32" xmlns:xlink="http://www.w3.org/1999/xlink">
<path style="fill:#6b7daa" d="M 5.332031 0.667969 C 4.648438 0.667969 4 1.3125 4 2 L 4 30 C 4 30.648438 4.6875 31.332031 5.332031 31.332031 L 26.667969 31.332031 C 27.3125 31.332031 28 30.648438 28 30 L 28 9.332031 L 19.332031 0.667969 Z "/>
<path style="fill:#000;fill-opacity:.196" d="M 19.332031 8 L 19.375 8.042969 L 19.480469 8 Z M 20.667969 9.332031 L 28 16.667969 L 28 9.332031 Z "/>
<path style="fill:#fff;fill-opacity:.392" d="M 19.332031 0.667969 L 28 9.332031 L 20.667969 9.332031 C 20.019531 9.332031 19.332031 8.648438 19.332031 8 Z "/>
<path style="fill:#fff" d="M 18.222656 12 L 19.703125 12 C 21.925781 12 21.925781 14.285156 21.925781 14.285156 L 21.925781 16.546875 C 21.925781 17.308594 20.445312 18.855469 20.445312 18.855469 L 20.445312 19.617188 L 22.667969 21.144531 L 22.667969 22.667969 L 14.519531 22.667969 L 14.519531 21.144531 L 17.480469 19.617188 L 17.480469 18.855469 C 17.480469 18.855469 15.996094 17.308594 16 16.546875 L 16 14.285156 C 16 14.285156 16 12 18.222656 12 Z M 13.035156 13.523438 L 14.519531 13.523438 L 14.519531 16.546875 C 14.519531 17.308594 16 18.855469 16 18.855469 L 13.035156 20.382812 L 13.035156 21.90625 L 9.332031 21.882812 L 9.332031 21.121094 L 12.296875 19.621094 L 12.296875 18.855469 C 12.296875 18.855469 10.808594 17.308594 10.816406 16.546875 L 10.816406 15.808594 C 10.816406 13.523438 13.035156 13.523438 13.035156 13.523438 Z "/>
</svg>
