<svg width="32" xmlns="http://www.w3.org/2000/svg" height="32" viewBox="0 0 32 32" xmlns:xlink="http://www.w3.org/1999/xlink">
<path style="fill:#edaf02" d="M 5.332031 0.667969 C 4.648438 0.667969 4 1.3125 4 2 L 4 30 C 4 30.648438 4.6875 31.332031 5.332031 31.332031 L 26.667969 31.332031 C 27.3125 31.332031 28 30.648438 28 30 L 28 2 C 28 1.3125 27.351562 0.667969 26.667969 0.667969 Z "/>
<path style="fill:#fff" d="M 10 21.332031 L 10 11.332031 L 22 11.332031 L 22 21.332031 L 15.332031 21.332031 L 15.332031 16 L 18.667969 16 L 18.667969 18 L 17.332031 18 L 17.332031 19.332031 L 20 19.332031 L 20 13.332031 L 12 13.332031 L 12 21.332031 Z "/>
<path style="fill:#000;fill-opacity:.196" d="M 4 23.332031 L 4 30 C 4 30.648438 4.6875 31.332031 5.332031 31.332031 L 26.667969 31.332031 C 27.3125 31.332031 28 30.648438 28 30 L 28 23.332031 Z "/>
<g style="fill:#fff">
<path d="M 10.492188 27.332031 C 10.492188 27.582031 10.503906 27.816406 10.519531 28.035156 C 10.546875 28.25 10.589844 28.4375 10.652344 28.597656 C 10.71875 28.757812 10.8125 28.882812 10.929688 28.976562 C 11.046875 29.070312 11.203125 29.117188 11.402344 29.117188 C 11.59375 29.117188 11.75 29.070312 11.867188 28.976562 C 11.988281 28.882812 12.082031 28.757812 12.144531 28.597656 C 12.210938 28.429688 12.257812 28.242188 12.273438 28.027344 C 12.300781 27.8125 12.3125 27.582031 12.3125 27.332031 C 12.3125 27.085938 12.300781 26.855469 12.273438 26.640625 C 12.257812 26.417969 12.210938 26.230469 12.144531 26.070312 C 12.082031 25.910156 11.992188 25.785156 11.875 25.691406 C 11.757812 25.597656 11.601562 25.550781 11.402344 25.550781 C 11.203125 25.550781 11.046875 25.597656 10.929688 25.691406 C 10.8125 25.785156 10.71875 25.914062 10.652344 26.078125 C 10.589844 26.238281 10.546875 26.425781 10.519531 26.640625 C 10.503906 26.855469 10.492188 27.085938 10.492188 27.332031 M 9.332031 27.332031 C 9.332031 26.453125 9.515625 25.789062 9.878906 25.34375 C 10.246094 24.890625 10.753906 24.667969 11.402344 24.667969 C 12.078125 24.667969 12.589844 24.890625 12.941406 25.34375 C 13.296875 25.789062 13.472656 26.453125 13.472656 27.332031 C 13.472656 28.214844 13.292969 28.878906 12.933594 29.332031 C 12.574219 29.777344 12.066406 30 11.410156 30 C 10.738281 30 10.222656 29.777344 9.863281 29.332031 C 9.507812 28.878906 9.332031 28.214844 9.332031 27.332031 "/>
<path d="M 18.128906 24.78125 L 18.128906 25.625 L 16.617188 25.625 L 16.617188 29.890625 L 15.464844 29.890625 L 15.464844 25.625 L 13.953125 25.625 L 13.953125 24.78125 L 18.128906 24.78125 "/>
<path d="M 21.257812 25.550781 C 20.984375 25.550781 20.753906 25.59375 20.570312 25.683594 C 20.382812 25.769531 20.230469 25.894531 20.105469 26.054688 C 19.988281 26.207031 19.902344 26.394531 19.847656 26.613281 C 19.796875 26.828125 19.773438 27.070312 19.773438 27.332031 C 19.773438 27.945312 19.878906 28.394531 20.097656 28.6875 C 20.3125 28.972656 20.632812 29.117188 21.050781 29.117188 C 21.121094 29.117188 21.195312 29.113281 21.273438 29.109375 C 21.355469 29.101562 21.429688 29.09375 21.496094 29.082031 L 21.496094 27.21875 L 22.640625 27.21875 L 22.640625 29.769531 C 22.503906 29.8125 22.289062 29.863281 22 29.917969 C 21.714844 29.972656 21.367188 30 20.960938 30 C 20.601562 30 20.277344 29.945312 19.984375 29.835938 C 19.699219 29.71875 19.457031 29.550781 19.253906 29.332031 C 19.046875 29.105469 18.890625 28.828125 18.777344 28.496094 C 18.667969 28.160156 18.613281 27.773438 18.613281 27.332031 C 18.613281 26.898438 18.675781 26.515625 18.808594 26.1875 C 18.9375 25.851562 19.113281 25.570312 19.335938 25.34375 C 19.558594 25.117188 19.820312 24.949219 20.125 24.839844 C 20.425781 24.722656 20.753906 24.667969 21.097656 24.667969 C 21.320312 24.667969 21.519531 24.683594 21.691406 24.714844 C 21.871094 24.742188 22.027344 24.777344 22.15625 24.816406 C 22.285156 24.855469 22.390625 24.894531 22.472656 24.9375 C 22.558594 24.984375 22.625 25.015625 22.667969 25.039062 L 22.371094 25.847656 C 22.234375 25.769531 22.066406 25.703125 21.867188 25.640625 C 21.671875 25.582031 21.464844 25.550781 21.257812 25.550781 "/>
</g>
</svg>
