<svg width="32" xmlns="http://www.w3.org/2000/svg" height="32" viewBox="0 0 32 32" xmlns:xlink="http://www.w3.org/1999/xlink">
<path style="fill:#df1818" d="M 5.332031 0.667969 C 4.648438 0.667969 4 1.3125 4 2 L 4 30 C 4 30.648438 4.6875 31.332031 5.332031 31.332031 L 26.667969 31.332031 C 27.3125 31.332031 28 30.648438 28 30 L 28 9.332031 L 19.332031 0.667969 Z "/>
<path style="fill:#000;fill-opacity:.196" d="M 19.332031 8 L 19.375 8.042969 L 19.480469 8 Z M 20.667969 9.332031 L 28 16.667969 L 28 9.332031 Z "/>
<g style="fill:#fff">
<path style="fill-opacity:.392" d="M 19.332031 0.667969 L 28 9.332031 L 20.667969 9.332031 C 20.019531 9.332031 19.332031 8.648438 19.332031 8 Z "/>
<path d="M 15.6875 10.675781 C 15.6875 10.675781 16.148438 14.921875 12.894531 20.53125 C 9.640625 26.136719 8.683594 25.382812 8.34375 25.191406 C 8 24.996094 7.558594 24.363281 9.003906 23.101562 C 10.445312 21.839844 11.007812 21.863281 11.007812 21.863281 C 11.007812 21.863281 9.6875 22.664062 9.175781 23.441406 C 8.660156 24.21875 8.246094 24.703125 8.367188 24.921875 C 8.488281 25.140625 9.964844 24.027344 10.574219 23.082031 C 11.546875 21.578125 13.382812 18.78125 14.238281 16.113281 C 15.09375 13.441406 15.6875 10.675781 15.6875 10.675781 Z "/>
<path d="M 23.707031 20.503906 C 23.707031 20.503906 23.632812 20.699219 22.777344 20.628906 C 21.921875 20.554688 18.59375 19.511719 16.808594 17.375 C 15.023438 15.238281 14.875 12.300781 14.753906 10.773438 C 14.628906 9.246094 15.308594 9.671875 15.40625 9.863281 C 15.558594 9.992188 15.632812 10.410156 15.632812 10.410156 C 15.632812 10.410156 15.578125 9.785156 15.308594 9.515625 C 15.039062 9.25 14.800781 9.246094 14.53125 9.707031 C 14.261719 10.167969 14.140625 11.453125 14.359375 12.691406 C 14.582031 13.929688 15.488281 16.769531 16.613281 18.078125 C 17.738281 19.390625 19.988281 20.53125 21.652344 20.871094 C 23.316406 21.210938 23.707031 20.507812 23.707031 20.507812 Z "/>
<path d="M 12.867188 21.0625 C 12.867188 21.0625 16.097656 20.019531 19.15625 19.730469 C 22.214844 19.4375 23.269531 19.753906 23.535156 19.972656 C 23.804688 20.191406 23.804688 20.433594 23.804688 20.433594 C 23.804688 20.433594 24.148438 20.09375 23.921875 19.75 C 23.730469 19.390625 23.4375 19.097656 21.015625 19.171875 C 18.59375 19.242188 18.421875 19.339844 16.195312 19.753906 C 13.96875 20.167969 12.867188 21.0625 12.867188 21.0625 Z "/>
</g>
</svg>
