<svg width="32" xmlns="http://www.w3.org/2000/svg" height="32" viewBox="0 0 32 32" xmlns:xlink="http://www.w3.org/1999/xlink">
<path style="fill:#e66f00" d="M 5.332031 0.667969 C 4.648438 0.667969 4 1.3125 4 2 L 4 30 C 4 30.648438 4.6875 31.332031 5.332031 31.332031 L 26.667969 31.332031 C 27.3125 31.332031 28 30.648438 28 30 L 28 9.332031 L 19.332031 0.667969 Z "/>
<path style="fill:#000;fill-opacity:.196" d="M 19.332031 8 L 19.375 8.042969 L 19.480469 8 Z M 20.667969 9.332031 L 28 16.667969 L 28 9.332031 Z "/>
<path style="fill:#fff;fill-opacity:.392" d="M 19.332031 0.667969 L 28 9.332031 L 20.667969 9.332031 C 20.019531 9.332031 19.332031 8.648438 19.332031 8 Z "/>
<g style="fill-rule:evenodd;fill:#fff">
<path d="M 14.339844 19.945312 C 14.339844 19.945312 13.855469 20.214844 14.683594 20.304688 C 15.6875 20.414062 16.199219 20.398438 17.304688 20.199219 C 17.304688 20.199219 17.59375 20.371094 18 20.519531 C 15.523438 21.527344 12.394531 20.460938 14.339844 19.945312 "/>
<path d="M 14.035156 18.632812 C 14.035156 18.632812 13.492188 19.015625 14.320312 19.09375 C 15.394531 19.199219 16.238281 19.207031 17.703125 18.941406 C 17.703125 18.941406 17.90625 19.136719 18.222656 19.242188 C 15.230469 20.074219 11.890625 19.308594 14.035156 18.632812 "/>
<path d="M 16.589844 16.40625 C 17.199219 17.070312 16.425781 17.671875 16.425781 17.671875 C 16.425781 17.671875 17.976562 16.910156 17.265625 15.960938 C 16.601562 15.074219 16.089844 14.636719 18.851562 13.117188 C 18.851562 13.117188 14.519531 14.144531 16.589844 16.40625 "/>
<path d="M 19.863281 20.917969 C 19.863281 20.917969 20.222656 21.199219 19.46875 21.414062 C 18.039062 21.824219 13.519531 21.949219 12.261719 21.429688 C 11.8125 21.246094 12.65625 20.984375 12.925781 20.933594 C 13.203125 20.875 13.359375 20.886719 13.359375 20.886719 C 12.859375 20.550781 10.113281 21.542969 11.96875 21.828125 C 17.019531 22.605469 21.175781 21.480469 19.863281 20.917969 "/>
<path d="M 14.570312 17.273438 C 14.570312 17.273438 12.269531 17.789062 13.757812 17.976562 C 14.382812 18.058594 15.632812 18.039062 16.800781 17.945312 C 17.75 17.871094 18.707031 17.710938 18.707031 17.710938 C 18.707031 17.710938 18.371094 17.84375 18.128906 18.003906 C 15.792969 18.585938 11.28125 18.3125 12.578125 17.71875 C 13.679688 17.214844 14.570312 17.273438 14.570312 17.273438 "/>
<path d="M 18.695312 19.457031 C 21.070312 18.289062 19.972656 17.164062 19.207031 17.316406 C 19.019531 17.351562 18.9375 17.386719 18.9375 17.386719 C 18.9375 17.386719 19.003906 17.28125 19.140625 17.238281 C 20.65625 16.730469 21.820312 18.726562 18.648438 19.519531 C 18.648438 19.519531 18.6875 19.488281 18.695312 19.457031 "/>
<path d="M 17.265625 10.667969 C 17.265625 10.667969 18.582031 11.914062 16.019531 13.832031 C 13.964844 15.371094 15.550781 16.246094 16.019531 17.25 C 14.820312 16.222656 13.9375 15.320312 14.527344 14.480469 C 15.394531 13.246094 17.796875 12.648438 17.265625 10.667969 "/>
<path d="M 14.804688 22.628906 C 17.082031 22.765625 20.582031 22.550781 20.667969 21.53125 C 20.667969 21.53125 20.507812 21.917969 18.78125 22.226562 C 16.835938 22.570312 14.4375 22.53125 13.015625 22.308594 C 13.015625 22.308594 13.308594 22.539062 14.804688 22.628906 "/>
</g>
</svg>
