<svg width="32" xmlns="http://www.w3.org/2000/svg" height="32" viewBox="0 0 32 32" xmlns:xlink="http://www.w3.org/1999/xlink">
<path style="fill:#38a34e" d="M 5.332031 0.667969 C 4.648438 0.667969 4 1.3125 4 2 L 4 30 C 4 30.648438 4.6875 31.332031 5.332031 31.332031 L 26.667969 31.332031 C 27.3125 31.332031 28 30.648438 28 30 L 28 9.332031 L 19.332031 0.667969 Z "/>
<path style="fill:#000;fill-opacity:.196" d="M 19.332031 8 L 19.375 8.042969 L 19.480469 8 Z M 20.667969 9.332031 L 28 16.667969 L 28 9.332031 Z "/>
<path style="fill:#fff;fill-opacity:.392" d="M 19.332031 0.667969 L 28 9.332031 L 20.667969 9.332031 C 20.019531 9.332031 19.332031 8.648438 19.332031 8 Z "/>
<path style="fill:#000;fill-opacity:.196" d="M 4 23.332031 L 4 30 C 4 30.648438 4.6875 31.332031 5.332031 31.332031 L 26.667969 31.332031 C 27.3125 31.332031 28 30.648438 28 30 L 28 23.332031 Z "/>
<g style="fill:#fff">
<path d="M 11.355469 10.667969 C 10.980469 10.703125 10.660156 11.097656 10.667969 11.519531 L 10.667969 20.5 C 10.671875 20.941406 11.023438 21.339844 11.417969 21.332031 L 20.601562 21.332031 C 20.988281 21.328125 21.328125 20.933594 21.332031 20.5 L 21.332031 11.519531 C 21.339844 11.078125 20.996094 10.671875 20.601562 10.667969 Z M 12.003906 12 L 19.996094 12 L 19.996094 17.730469 C 19.9375 17.660156 19.910156 17.636719 19.847656 17.5625 C 19.253906 16.851562 18.574219 16.003906 17.757812 14.980469 C 17.59375 15.140625 17.394531 15.335938 17.128906 15.582031 C 16.859375 15.828125 16.539062 16.125 16.167969 16.457031 C 16.121094 16.511719 15.929688 16.3125 15.582031 15.875 C 15.222656 15.433594 14.734375 14.761719 14.074219 13.832031 C 13.195312 14.75 12.558594 15.402344 12.003906 15.957031 Z "/>
<path d="M 9.332031 29.894531 L 9.332031 29.050781 L 10.601562 29.050781 L 10.601562 25.625 L 9.332031 25.625 L 9.332031 24.78125 L 13.027344 24.78125 L 13.027344 25.625 L 11.765625 25.625 L 11.765625 29.050781 L 13.027344 29.050781 L 13.027344 29.894531 L 9.332031 29.894531 "/>
<path d="M 16.304688 30 C 15.484375 30 14.859375 29.769531 14.425781 29.304688 C 13.992188 28.84375 13.777344 28.1875 13.777344 27.332031 C 13.777344 26.910156 13.84375 26.53125 13.976562 26.203125 C 14.105469 25.871094 14.289062 25.59375 14.519531 25.367188 C 14.757812 25.136719 15.035156 24.964844 15.355469 24.847656 C 15.683594 24.726562 16.035156 24.667969 16.417969 24.667969 C 16.625 24.667969 16.808594 24.683594 16.972656 24.714844 C 17.140625 24.742188 17.289062 24.777344 17.414062 24.816406 C 17.539062 24.855469 17.644531 24.894531 17.722656 24.9375 C 17.8125 24.984375 17.878906 25.015625 17.921875 25.039062 L 17.621094 25.847656 C 17.476562 25.765625 17.300781 25.695312 17.09375 25.640625 C 16.894531 25.582031 16.664062 25.550781 16.398438 25.550781 C 16.21875 25.550781 16.039062 25.582031 15.863281 25.640625 C 15.695312 25.695312 15.542969 25.792969 15.402344 25.929688 C 15.273438 26.0625 15.164062 26.242188 15.074219 26.464844 C 14.992188 26.691406 14.953125 26.972656 14.953125 27.308594 C 14.953125 27.890625 15.066406 28.339844 15.289062 28.65625 C 15.523438 28.960938 15.898438 29.117188 16.417969 29.117188 C 16.71875 29.117188 16.964844 29.085938 17.160156 29.027344 C 17.359375 28.964844 17.519531 28.90625 17.640625 28.84375 L 17.929688 29.644531 C 17.769531 29.734375 17.546875 29.816406 17.265625 29.894531 C 16.988281 29.964844 16.667969 30 16.304688 30 "/>
<path d="M 19.652344 27.332031 C 19.652344 27.582031 19.660156 27.816406 19.679688 28.035156 C 19.703125 28.25 19.746094 28.4375 19.808594 28.597656 C 19.878906 28.757812 19.972656 28.882812 20.09375 28.976562 C 20.210938 29.070312 20.371094 29.117188 20.570312 29.117188 C 20.765625 29.117188 20.921875 29.070312 21.042969 28.976562 C 21.167969 28.882812 21.261719 28.757812 21.324219 28.597656 C 21.390625 28.429688 21.4375 28.242188 21.453125 28.027344 C 21.480469 27.8125 21.492188 27.582031 21.492188 27.332031 C 21.492188 27.085938 21.480469 26.855469 21.453125 26.640625 C 21.4375 26.417969 21.390625 26.230469 21.324219 26.070312 C 21.261719 25.910156 21.167969 25.785156 21.050781 25.691406 C 20.929688 25.597656 20.773438 25.550781 20.570312 25.550781 C 20.371094 25.550781 20.210938 25.597656 20.09375 25.691406 C 19.972656 25.785156 19.878906 25.914062 19.808594 26.078125 C 19.746094 26.238281 19.703125 26.425781 19.679688 26.640625 C 19.660156 26.855469 19.652344 27.085938 19.652344 27.332031 M 18.476562 27.332031 C 18.476562 26.453125 18.660156 25.789062 19.03125 25.34375 C 19.398438 24.890625 19.914062 24.667969 20.570312 24.667969 C 21.253906 24.667969 21.773438 24.890625 22.132812 25.34375 C 22.488281 25.789062 22.667969 26.453125 22.667969 27.332031 C 22.667969 28.214844 22.484375 28.878906 22.121094 29.332031 C 21.757812 29.777344 21.246094 30 20.582031 30 C 19.898438 30 19.375 29.777344 19.011719 29.332031 C 18.65625 28.878906 18.476562 28.214844 18.476562 27.332031 "/>
</g>
</svg>
