<svg width="32" xmlns="http://www.w3.org/2000/svg" height="32" viewBox="0 0 32 32" xmlns:xlink="http://www.w3.org/1999/xlink">
<path style="fill:#a33639" d="M 5.332031 0.667969 C 4.648438 0.667969 4 1.3125 4 2 L 4 30 C 4 30.648438 4.6875 31.332031 5.332031 31.332031 L 26.667969 31.332031 C 27.3125 31.332031 28 30.648438 28 30 L 28 9.332031 L 19.332031 0.667969 Z "/>
<path style="fill:#000;fill-opacity:.196" d="M 19.332031 8 L 19.375 8.042969 L 19.480469 8 Z M 20.667969 9.332031 L 28 16.667969 L 28 9.332031 Z "/>
<path style="fill:#fff;fill-opacity:.392" d="M 19.332031 0.667969 L 28 9.332031 L 20.667969 9.332031 C 20.019531 9.332031 19.332031 8.648438 19.332031 8 Z "/>
<g style="fill:#fff">
<path d="M 16 12 C 13.054688 12 10.667969 12.746094 10.667969 13.667969 L 10.667969 15 C 10.667969 15.921875 13.054688 16.667969 16 16.667969 C 18.945312 16.667969 21.332031 15.921875 21.332031 15 L 21.332031 13.667969 C 21.332031 12.746094 18.945312 12 16 12 Z "/>
<path d="M 15.984375 17.332031 C 13.59375 17.332031 11.582031 16.84375 10.902344 16.167969 C 10.742188 16.324219 10.667969 16.492188 10.667969 16.667969 L 10.667969 18 C 10.667969 18.921875 13.054688 19.667969 16 19.667969 C 18.945312 19.667969 21.332031 18.921875 21.332031 18 L 21.332031 16.667969 C 21.332031 16.492188 21.238281 16.324219 21.082031 16.167969 C 20.402344 16.84375 18.371094 17.332031 15.984375 17.332031 Z "/>
<path d="M 15.984375 20.332031 C 13.59375 20.332031 11.582031 19.84375 10.902344 19.167969 C 10.742188 19.324219 10.667969 19.492188 10.667969 19.667969 L 10.667969 21 C 10.667969 21.921875 13.054688 22.667969 16 22.667969 C 18.945312 22.667969 21.332031 21.921875 21.332031 21 L 21.332031 19.667969 C 21.332031 19.492188 21.238281 19.324219 21.082031 19.167969 C 20.402344 19.84375 18.371094 20.332031 15.984375 20.332031 Z "/>
</g>
</svg>
