<svg width="32" xmlns="http://www.w3.org/2000/svg" height="32" viewBox="0 0 32 32" xmlns:xlink="http://www.w3.org/1999/xlink">
<path style="fill:#dcdcdc" d="M 5.332031 0.667969 C 4.648438 0.667969 4 1.3125 4 2 L 4 30 C 4 30.648438 4.6875 31.332031 5.332031 31.332031 L 26.667969 31.332031 C 27.3125 31.332031 28 30.648438 28 30 L 28 9.332031 L 19.332031 0.667969 Z "/>
<path style="fill:#000;fill-opacity:.196" d="M 19.332031 8 L 19.375 8.042969 L 19.480469 8 Z M 20.667969 9.332031 L 28 16.667969 L 28 9.332031 Z "/>
<path style="fill:#fff;fill-opacity:.392" d="M 19.332031 0.667969 L 28 9.332031 L 20.667969 9.332031 C 20.019531 9.332031 19.332031 8.648438 19.332031 8 Z "/>
<path style="fill:#888" d="M 14.625 20.191406 L 14.625 19.714844 C 14.625 19.027344 14.746094 18.460938 14.988281 18.019531 C 15.226562 17.574219 15.675781 17.105469 16.332031 16.609375 C 17.238281 15.933594 17.8125 15.425781 18.046875 15.085938 C 18.285156 14.742188 18.40625 14.332031 18.40625 13.851562 C 18.40625 13.25 18.183594 12.789062 17.746094 12.464844 C 17.308594 12.136719 16.683594 11.972656 15.859375 11.972656 C 15.332031 11.972656 14.816406 12.027344 14.316406 12.140625 C 13.816406 12.246094 13.238281 12.441406 12.589844 12.730469 L 12 11.539062 C 13.261719 10.957031 14.582031 10.667969 15.960938 10.667969 C 17.238281 10.667969 18.230469 10.941406 18.9375 11.496094 C 19.644531 12.046875 20 12.828125 20 13.832031 C 20 14.261719 19.933594 14.640625 19.800781 14.96875 C 19.671875 15.292969 19.480469 15.601562 19.226562 15.894531 C 18.972656 16.183594 18.425781 16.652344 17.585938 17.296875 C 16.910156 17.804688 16.460938 18.222656 16.242188 18.558594 C 16.027344 18.894531 15.917969 19.339844 15.917969 19.898438 L 15.917969 20.191406 L 14.625 20.191406 M 14.136719 22.808594 C 14.136719 22.011719 14.535156 21.609375 15.339844 21.609375 C 15.726562 21.609375 16.023438 21.714844 16.230469 21.917969 C 16.445312 22.125 16.550781 22.421875 16.550781 22.808594 C 16.550781 23.1875 16.445312 23.480469 16.230469 23.691406 C 16.015625 23.898438 15.71875 24 15.339844 24 C 14.992188 24 14.703125 23.910156 14.476562 23.726562 C 14.25 23.539062 14.136719 23.234375 14.136719 22.808594 "/>
</svg>
