<svg xmlns="http://www.w3.org/2000/svg" viewBox="0 0 16 16">
 <g transform="matrix(.08 0 0 .08 -2.24 14.4)" style="fill:#bebebe">
  <path d="m 118.5 -180 0 79.72 -43.819 -33.33 l -14.849 11.822 54.51 41.79 -55.35 41.789 l 17.341 13.05 42.16 -33.909 0 79.06 l 78.5 -58.21 -52.02 -41.13 50.36 -40.559 -76.84 -60.1 m 21.494 38.588 25.648 22.17 -25.648 19.622 0 -41.789 z m -0.831 83.01 27.309 19.54 -25.648 17.652 -1.661 -37.19 z" style="fill-rule:evenodd"/>
 </g>
 <path d="m 13.5 9.5 c -0.923 0 -1.667 0.759 -1.667 1.693 l 0 0.807 c -0.462 0 -0.833 0.372 -0.833 0.833 l 0 2.333 c 0 0.462 0.372 0.833 0.833 0.833 l 3.333 0 c 0.462 0 0.833 -0.372 0.833 -0.833 l 0 -2.333 c 0 -0.462 -0.372 -0.833 -0.833 -0.833 l 0 -0.807 c 0 -0.934 -0.743 -1.693 -1.667 -1.693 z m 0 0.833 c 0.462 0 0.833 0.369 0.833 0.833 l 0 0.833 -1.667 0 0 -0.833 c 0 -0.465 0.372 -0.833 0.833 -0.833 z" style="fill:#bebebe;fill-opacity:1"/>
</svg>
