<?xml version="1.0" encoding="UTF-8" standalone="no"?>
<svg
   xmlns:dc="http://purl.org/dc/elements/1.1/"
   xmlns:cc="http://creativecommons.org/ns#"
   xmlns:rdf="http://www.w3.org/1999/02/22-rdf-syntax-ns#"
   xmlns:svg="http://www.w3.org/2000/svg"
   xmlns="http://www.w3.org/2000/svg"
   xmlns:sodipodi="http://sodipodi.sourceforge.net/DTD/sodipodi-0.dtd"
   xmlns:inkscape="http://www.inkscape.org/namespaces/inkscape"
   viewBox="0 0 16 16"
   id="svg2"
   version="1.1"
   inkscape:version="0.91 r"
   sodipodi:docname="display-brightness-symbolic.svg">
  <metadata
     id="metadata40">
    <rdf:RDF>
      <cc:Work
         rdf:about="">
        <dc:format>image/svg+xml</dc:format>
        <dc:type
           rdf:resource="http://purl.org/dc/dcmitype/StillImage" />
      </cc:Work>
    </rdf:RDF>
  </metadata>
  <defs
     id="defs38" />
  <sodipodi:namedview
     pagecolor="#ffffff"
     bordercolor="#666666"
     borderopacity="1"
     objecttolerance="10"
     gridtolerance="10"
     guidetolerance="10"
     inkscape:pageopacity="0"
     inkscape:pageshadow="2"
     inkscape:window-width="640"
     inkscape:window-height="480"
     id="namedview36" />
  <g
     style="fill:#bebebe;color:#bebebe"
     id="g4">
    <g
       transform="translate(-81 -277)"
       id="g6">
      <rect
         width="2.972"
         x="81"
         y="284"
         rx=".562"
         height="2"
         id="rect8" />
      <rect
         width="3.017"
         x="93.984"
         y="284"
         rx=".562"
         height="2"
         id="rect10" />
    </g>
    <g
       transform="matrix(.70711 -.70711 .70711 .70711 -256.46 -130.59)"
       id="g12">
      <rect
         width="2.972"
         x="81"
         y="284"
         rx=".562"
         height="2"
         id="rect14" />
      <rect
         width="3.017"
         x="93.984"
         y="284"
         rx=".562"
         height="2"
         id="rect16" />
    </g>
    <g
       transform="matrix(0 -1 1 0 -277 97)"
       id="g18">
      <rect
         width="2.972"
         x="81"
         y="284"
         rx=".562"
         height="2"
         id="rect20" />
      <rect
         width="3.017"
         x="93.984"
         y="284"
         rx=".562"
         height="2"
         id="rect22" />
    </g>
    <g
       transform="matrix(-.70711 -.70711 .70711 -.70711 -130.593 272.46)"
       id="g24">
      <rect
         width="2.972"
         x="81"
         y="284"
         rx=".562"
         height="2"
         id="rect26" />
      <rect
         width="3.017"
         x="93.984"
         y="284"
         rx=".562"
         height="2"
         id="rect28" />
    </g>
    <g
       id="g30">
      <path
         xml:space="default"
         d="M 8.4,7.9999995 8.4,2 C 5.104223,2 2.4,4.7042234 2.4,7.9999995 2.4,11.295773 5.104223,14 8.4,14 l 0,-6.0000005 z"
         id="path32" />
      <path
         style="fill-rule:evenodd"
         xml:space="default"
         d="M 8,14 C 4.6865233,14 2,11.313478 2,8 2,4.6865225 4.6865233,2 8,2 c 3.313477,0 6,2.6865225 6,6 0,3.313478 -2.686523,6 -6,6 z M 8,3.5 C 5.5148983,3.5 3.5,5.5148975 3.5,8 c 0,2.485103 2.0148983,4.5 4.5,4.5 2.485102,0 4.5,-2.014897 4.5,-4.5 C 12.5,5.5148975 10.485102,3.5 8,3.5 Z"
         id="path34" />
    </g>
  </g>
</svg>
