<?xml version="1.0" encoding="UTF-8" standalone="no"?>
<svg
   xmlns:dc="http://purl.org/dc/elements/1.1/"
   xmlns:cc="http://creativecommons.org/ns#"
   xmlns:rdf="http://www.w3.org/1999/02/22-rdf-syntax-ns#"
   xmlns:svg="http://www.w3.org/2000/svg"
   xmlns="http://www.w3.org/2000/svg"
   xmlns:sodipodi="http://sodipodi.sourceforge.net/DTD/sodipodi-0.dtd"
   xmlns:inkscape="http://www.inkscape.org/namespaces/inkscape"
   width="16"
   viewBox="0 0 16 16"
   height="16"
   id="svg2"
   version="1.1"
   inkscape:version="0.91 r"
   sodipodi:docname="network-wired-disconnected-symbolic.svg">
  <metadata
     id="metadata10">
    <rdf:RDF>
      <cc:Work
         rdf:about="">
        <dc:format>image/svg+xml</dc:format>
        <dc:type
           rdf:resource="http://purl.org/dc/dcmitype/StillImage" />
        <dc:title />
      </cc:Work>
    </rdf:RDF>
  </metadata>
  <defs
     id="defs8" />
  <sodipodi:namedview
     pagecolor="#ffffff"
     bordercolor="#666666"
     borderopacity="1"
     objecttolerance="10"
     gridtolerance="10"
     guidetolerance="10"
     inkscape:pageopacity="0"
     inkscape:pageshadow="2"
     inkscape:window-width="1920"
     inkscape:window-height="1056"
     id="namedview6"
     showgrid="true"
     inkscape:zoom="34.0625"
     inkscape:cx="-0.058715596"
     inkscape:cy="3.3027523"
     inkscape:window-x="0"
     inkscape:window-y="24"
     inkscape:window-maximized="1"
     inkscape:current-layer="svg2">
    <inkscape:grid
       type="xygrid"
       id="grid4138" />
  </sodipodi:namedview>
  <path
     style="color:#bebebe;opacity:1;fill:#bebebe;fill-opacity:1"
     d="M 2,1 C 0.79661025,1 0,1.7966102 0,3 l 0,10 c 0,1.202426 0.79529735,2 2,2 l 12,0 c 1.200448,0 2,-0.801944 2,-2 l 0,-7 -2,0 0,3 -2,0 0,2 -1,0 0,2 L 5,13 5,11 4,11 4,9 2,9 2,5 C 2,3.2033898 2,3 3,3 l 7,0 0,-2 z"
     id="path6104"
     inkscape:connector-curvature="0"
     sodipodi:nodetypes="ssssssccccccccccccssccs" />
  <path
     inkscape:connector-curvature="0"
     d="m 11,-1e-7 1.5,0 L 13.5,1 14.5,-1e-7 16,-1e-7 16,1.5 l -1,1 1,1 0,1.5 -1.5,0 -1,-1 -1,1 -1.5,0 0,-1.5 1,-1 -1,-1 z"
     id="path3761-2-3-5-4-8-9-8-0-1-7-8"
     sodipodi:nodetypes="ccccccccccccccccc"
     style="color:#bebebe;display:inline;overflow:visible;visibility:visible;fill:#bebebe;fill-opacity:1;stroke:none;stroke-width:2;marker:none" />
</svg>
