<?xml version="1.0" encoding="UTF-8" standalone="no"?>
<svg
   xmlns:dc="http://purl.org/dc/elements/1.1/"
   xmlns:cc="http://creativecommons.org/ns#"
   xmlns:rdf="http://www.w3.org/1999/02/22-rdf-syntax-ns#"
   xmlns:svg="http://www.w3.org/2000/svg"
   xmlns="http://www.w3.org/2000/svg"
   xmlns:sodipodi="http://sodipodi.sourceforge.net/DTD/sodipodi-0.dtd"
   xmlns:inkscape="http://www.inkscape.org/namespaces/inkscape"
   width="16"
   height="16"
   viewBox="0 0 16 16"
   id="svg3167"
   version="1.1"
   inkscape:version="0.91 r"
   sodipodi:docname="network-vpn-lock-symbolic.svg">
  <metadata
     id="metadata3237">
    <rdf:RDF>
      <cc:Work
         rdf:about="">
        <dc:format>image/svg+xml</dc:format>
        <dc:type
           rdf:resource="http://purl.org/dc/dcmitype/StillImage" />
        <dc:title></dc:title>
      </cc:Work>
    </rdf:RDF>
  </metadata>
  <sodipodi:namedview
     pagecolor="#ffffff"
     bordercolor="#666666"
     borderopacity="1"
     objecttolerance="10"
     gridtolerance="10"
     guidetolerance="10"
     inkscape:pageopacity="0"
     inkscape:pageshadow="2"
     inkscape:window-width="1920"
     inkscape:window-height="1056"
     id="namedview3235"
     showgrid="true"
     inkscape:zoom="29.5"
     inkscape:cx="-1.2778323"
     inkscape:cy="7.0576929"
     inkscape:window-x="0"
     inkscape:window-y="24"
     inkscape:window-maximized="1"
     inkscape:current-layer="svg3167">
    <inkscape:grid
       type="xygrid"
       id="grid4011" />
  </sodipodi:namedview>
  <defs
     id="defs3169" />
  <path
     style="fill:#bebebe;fill-opacity:1"
     d="m 13.497761,9.4975871 c -0.922112,0 -1.665174,0.7609679 -1.665174,1.6965089 l 0,0.80573 C 11.371531,11.999826 11,12.371357 11,12.832413 l 0,2.334999 C 11,15.628469 11.371531,16 11.832587,16 l 3.334826,0 C 15.628469,16 16,15.628469 16,15.167412 l 0,-2.334999 c 0,-0.461056 -0.371531,-0.832587 -0.832587,-0.832587 l 0,-0.80573 c 0,-0.935541 -0.743062,-1.6965089 -1.669652,-1.6965089 z m 0,0.8370639 c 0.465533,0 0.837064,0.367054 0.837064,0.832587 l 0,0.832588 -1.66965,0 0,-0.832588 c 0,-0.465533 0.37153,-0.832587 0.832586,-0.832587 z"
     id="path3233"
     inkscape:connector-curvature="0"
     sodipodi:nodetypes="sscsssssscssssccss" />
</svg>
