<?xml version="1.0" encoding="UTF-8" standalone="no"?>
<svg
   xmlns:dc="http://purl.org/dc/elements/1.1/"
   xmlns:cc="http://creativecommons.org/ns#"
   xmlns:rdf="http://www.w3.org/1999/02/22-rdf-syntax-ns#"
   xmlns:svg="http://www.w3.org/2000/svg"
   xmlns="http://www.w3.org/2000/svg"
   xmlns:sodipodi="http://sodipodi.sourceforge.net/DTD/sodipodi-0.dtd"
   xmlns:inkscape="http://www.inkscape.org/namespaces/inkscape"
   width="16"
   viewBox="0 0 16 16"
   height="16"
   style="enable-background:new"
   id="svg2"
   version="1.1"
   inkscape:version="0.91 r"
   sodipodi:docname="weather-few-clouds-night-symbolic.svg">
  <metadata
     id="metadata129">
    <rdf:RDF>
      <cc:Work
         rdf:about="">
        <dc:format>image/svg+xml</dc:format>
        <dc:type
           rdf:resource="http://purl.org/dc/dcmitype/StillImage" />
      </cc:Work>
    </rdf:RDF>
  </metadata>
  <sodipodi:namedview
     pagecolor="#ffffff"
     bordercolor="#666666"
     borderopacity="1"
     objecttolerance="10"
     gridtolerance="10"
     guidetolerance="10"
     inkscape:pageopacity="0"
     inkscape:pageshadow="2"
     inkscape:window-width="640"
     inkscape:window-height="480"
     id="namedview127" />
  <defs
     id="defs4" />
  <path
     style="fill:#bebebe"
     d="M 7.747757,0 C 3.468789,0 0,3.4522613 0,7.7108414 c 0,1.6894879 0.544944,3.2536316 1.470864,4.5240896 0.263759,-0.643604 0.7418,-1.199113 1.40428,-1.481928 0.605812,-1.4029869 2.045292,-2.643085 3.698344,-2.5542099 0.008,-3.854e-4 0.01615,3.856e-4 0.02421,0 -0.01018,-0.161596 -0.01209,-0.323809 -0.01209,-0.4879517 0,-3.0865206 1.822842,-5.7438828 4.454959,-6.97590176 C 10.041047,0.2670998 8.925427,0 7.747757,0 z M 6.700599,9.3614473 c -0.132413,0 -0.273811,0.00617 -0.417651,0.024097 C 3.985736,9.6731587 4.055467,11.590363 4.055467,11.590363 3.114566,11.745928 2.34854,12.544444 2.34854,13.379509 c 0,0.835046 0.980055,1.574265 1.803773,1.789165 0.489979,0.127827 1.131899,0 1.131899,0 C 5.575067,15.667605 6.534165,16 7.202993,16 8.293557,16 9.41445,15.648039 9.67259,15.168674 c 0,0 4.516318,0.351538 5.453695,0 1.364609,-0.511768 0.938226,-2.110013 0.03026,-2.650601 -0.907959,-0.540588 -2.094315,-0.16266 -2.094315,-0.16266 0,0 -0.0052,-1.100569 -1.289276,-1.626506 -1.284031,-0.525917 -2.366697,0.638554 -2.366697,0.638554 0,0 -0.719458,-1.9940999 -2.705662,-2.0060132 z"
     id="path125" />
</svg>
