<svg version="1.1" viewBox="0 0 16 16" xmlns="http://www.w3.org/2000/svg">
 <path d="m8 0c-1.66 0-3 1.34-3 3h-1c-1 0-1 0-2 1.5s-1 1.5 0 1.5h12c1 0 1 0 0-1.5s-1-1.5-2-1.5h-1c0-1.66-1.34-3-3-3zm0 1.5c0.828 0 1.5 0.672 1.5 1.5h-3c0-0.828 0.672-1.5 1.5-1.5zm-5 5.5v7c0 1.11 0.892 2 2 2h6c1.11 0 2-0.892 2-2v-7h-10zm3.5 2c0.277 0 0.5 0.223 0.5 0.5v4c0 0.277-0.223 0.5-0.5 0.5s-0.5-0.223-0.5-0.5v-4c0-0.277 0.223-0.5 0.5-0.5zm3 0c0.277 0 0.5 0.223 0.5 0.5v4c0 0.277-0.223 0.5-0.5 0.5s-0.5-0.223-0.5-0.5v-4c0-0.277 0.223-0.5 0.5-0.5z" style="fill:#bebebe"/>
</svg>
