<?xml version="1.0" encoding="UTF-8" standalone="no"?>
<svg
   xmlns:dc="http://purl.org/dc/elements/1.1/"
   xmlns:cc="http://creativecommons.org/ns#"
   xmlns:rdf="http://www.w3.org/1999/02/22-rdf-syntax-ns#"
   xmlns:svg="http://www.w3.org/2000/svg"
   xmlns="http://www.w3.org/2000/svg"
   xmlns:sodipodi="http://sodipodi.sourceforge.net/DTD/sodipodi-0.dtd"
   xmlns:inkscape="http://www.inkscape.org/namespaces/inkscape"
   viewBox="0 0 16 16"
   id="svg2"
   version="1.1"
   inkscape:version="0.48.4 r9939"
   width="100%"
   height="100%"
   sodipodi:docname="user-trash-full-symbolic.svg">
  <metadata
     id="metadata20">
    <rdf:RDF>
      <cc:Work
         rdf:about="">
        <dc:format>image/svg+xml</dc:format>
        <dc:type
           rdf:resource="http://purl.org/dc/dcmitype/StillImage" />
      </cc:Work>
    </rdf:RDF>
  </metadata>
  <defs
     id="defs18" />
  <sodipodi:namedview
     pagecolor="#ffffff"
     bordercolor="#666666"
     borderopacity="1"
     objecttolerance="10"
     gridtolerance="10"
     guidetolerance="10"
     inkscape:pageopacity="0"
     inkscape:pageshadow="2"
     inkscape:window-width="1366"
     inkscape:window-height="742"
     id="namedview16"
     showgrid="false"
     inkscape:zoom="14.75"
     inkscape:cx="8.1355932"
     inkscape:cy="8"
     inkscape:window-x="0"
     inkscape:window-y="26"
     inkscape:window-maximized="1"
     inkscape:current-layer="svg2" />
  <g
     style="fill:#bebebe"
     transform="matrix(.02782 0 0 .02782 6 -30)"
     id="g4">
    <path
       d="M35.9479473722 1617.71578531L35.9479473722 1473.91882662L-86.2859678009 1473.91882662L-65.0071815087 1437.96958694L-25.8908678035 1437.96958694L-82.5823351754 1330.12186792L-206.594956526 1330.12186792L-179.568941058 1346.98499988L-215.687684233 1414.5951781L-118.694215343 1596.15588742L-109.467288823 1613.42761289L-107.17647536 1617.71578531Z"
       id="path6" />
    <path
       d="M287.583578978 1294.17262825L167.644539324 1361.94497736L230.997326355 1473.91882662L186.882855495 1473.91882662L166.609210657 1437.59573863L107.843842117 1540.79295443L179.739736861 1653.66502499L179.739677601 1617.71578531L246.998604637 1617.71578531L347.540379225 1444.30726419L357.104836061 1427.51122686L359.479473722 1423.34115687Z"
       id="path8" />
    <path
       d="M-107.843842117 1258.22338858L6.90008001918 1330.12186792L69.6868340447 1209.61833783L91.5470067432 1251.57349472L71.4544647399 1294.17262825L187.935178539 1294.17262825L251.635631605 1167.87891238L223.871292831 1185.64134387L186.7657209 1114.42642988L-12.5212867772 1114.42642988L-31.4792928737 1114.42642988L-36.1861359656 1114.42642988Z"
       id="path10" />
  </g>
  <g
     transform="translate(0,-32)"
     id="g12"
     class="error">
    <path
       style="color:#bebebe;fill:#ef2929"
       d="m 11,39 0.250001,5 1.499998,0 L 13,39 11,39 z M 11,45.222222 11,47 l 2,0 0,-2 -2,0 z"
       id="path14"
       inkscape:connector-curvature="0" />
  </g>
</svg>
