<?xml version="1.0" encoding="UTF-8" standalone="no"?>
<svg
   xmlns:dc="http://purl.org/dc/elements/1.1/"
   xmlns:cc="http://creativecommons.org/ns#"
   xmlns:rdf="http://www.w3.org/1999/02/22-rdf-syntax-ns#"
   xmlns:svg="http://www.w3.org/2000/svg"
   xmlns="http://www.w3.org/2000/svg"
   xmlns:sodipodi="http://sodipodi.sourceforge.net/DTD/sodipodi-0.dtd"
   xmlns:inkscape="http://www.inkscape.org/namespaces/inkscape"
   width="16"
   height="16"
   viewBox="0 0 16 16"
   id="svg3034"
   version="1.1"
   inkscape:version="0.91 r"
   sodipodi:docname="gsm-3g-medium-secure.svg">
  <metadata
     id="metadata3093">
    <rdf:RDF>
      <cc:Work
         rdf:about="">
        <dc:format>image/svg+xml</dc:format>
        <dc:type
           rdf:resource="http://purl.org/dc/dcmitype/StillImage" />
      </cc:Work>
    </rdf:RDF>
  </metadata>
  <sodipodi:namedview
     pagecolor="#ffffff"
     bordercolor="#666666"
     borderopacity="1"
     objecttolerance="10"
     gridtolerance="10"
     guidetolerance="10"
     inkscape:pageopacity="0"
     inkscape:pageshadow="2"
     inkscape:window-width="1280"
     inkscape:window-height="998"
     id="namedview3091"
     showgrid="false"
     inkscape:zoom="29.5"
     inkscape:cx="4.0044048"
     inkscape:cy="6.8200309"
     inkscape:window-x="0"
     inkscape:window-y="0"
     inkscape:window-maximized="1"
     inkscape:current-layer="svg3034" />
  <defs
     id="defs3036" />
  <path
     d="m 13.789884,2.2362807 c 0.402344,0 0.726562,0.324219 0.726562,0.726562 l 0,10.1265633 c 0,0.402344 -0.324218,0.726562 -0.726562,0.726562 -0.402344,0 -0.726563,-0.324218 -0.726563,-0.726562 l 0,-10.1265633 c 0,-0.402343 0.324219,-0.726562 0.726563,-0.726562 z"
     id="path4017"
     inkscape:connector-curvature="0"
     style="opacity:0.40000000000000002;fill:#353535;fill-opacity:1"
     sodipodi:nodetypes="sssssss" />
  <path
     style="fill:#353535;fill-opacity:1"
     inkscape:connector-curvature="0"
     id="path3227"
     d="m 5.090165,11.636281 c 0.402344,0 0.726562,0.324219 0.726562,0.726562 l 0,0.726563 c 0,0.402344 -0.324218,0.726562 -0.726562,0.726562 -0.402344,0 -0.726563,-0.324218 -0.726563,-0.726562 l 0,-0.726563 c 0,-0.402343 0.324219,-0.726562 0.726563,-0.726562 z" />
  <path
     style="fill:#353535;fill-opacity:1"
     inkscape:connector-curvature="0"
     id="path3229"
     d="m 0.36360202,7.9995617 c -0.050781,0 -0.09375,0.00391 -0.136719,0.023438 -0.039062,0.019531 -0.082031,0.058593 -0.113281,0.089843 l -0.023437,0.023438 c -0.023438,0.027343 -0.054688,0.054687 -0.066406,0.089843 -0.070312,0.132813 -0.046875,0.296876 0.066406,0.410157 l 2.09375018,2.0898433 0,2.726563 c 0,0.203125 0.160156,0.363281 0.363281,0.363281 0.199219,0 0.363281,-0.160156 0.363281,-0.363281 l 0,-2.726563 2.089844,-2.0898433 c 0.113281,-0.113281 0.136719,-0.277344 0.066406,-0.410157 -0.011718,-0.035156 -0.042968,-0.0625 -0.066406,-0.089843 L 4.976883,8.1128427 c -0.066406,-0.066406 -0.160156,-0.109375 -0.25,-0.113281 z m 0.88671898,0.726562 0.933594,0 0,0.910157 z m 1.660156,0 0.929688,0 -0.929688,0.933594 z" />
  <path
     inkscape:connector-curvature="0"
     style="fill:#353535;fill-opacity:1"
     d="m 13.816727,9.4526867 c -0.804687,0 -1.453125,0.6640633 -1.453125,1.4804693 l 0,0.703125 c -0.402343,0 -0.726562,0.324219 -0.726562,0.726562 l 0,2.183594 c 0,0.402344 0.324219,0.726563 0.726562,0.726563 l 2.910157,0 c 0.402343,0 0.726562,-0.324219 0.726562,-0.726563 l 0,-2.183594 c 0,-0.402343 -0.324219,-0.726562 -0.726562,-0.726562 l 0,-0.703125 c 0,-0.816406 -0.648438,-1.4804693 -1.457032,-1.4804693 z m 0,0.7304693 c 0.40625,0 0.730469,0.320312 0.730469,0.726562 l 0,0.726563 -1.457031,0 0,-0.726563 c 0,-0.40625 0.324218,-0.726562 0.726562,-0.726562 z"
     id="path3233" />
  <path
     d="m 7.989884,8.7362807 c 0.402344,0 0.726562,0.324219 0.726562,0.726562 l 0,3.6265633 c 0,0.402344 -0.324218,0.726562 -0.726562,0.726562 -0.402344,0 -0.726563,-0.324218 -0.726563,-0.726562 l 0,-3.6265633 c 0,-0.402343 0.324219,-0.726562 0.726563,-0.726562 z"
     id="path4013"
     inkscape:connector-curvature="0"
     style="opacity:1;fill:#353535;fill-opacity:1"
     sodipodi:nodetypes="sssssss" />
  <path
     sodipodi:nodetypes="sssssss"
     style="opacity:0.40000000000000002;fill:#353535;fill-opacity:1"
     inkscape:connector-curvature="0"
     id="path4015"
     d="m 10.889884,5.8362807 c 0.402344,0 0.726562,0.324219 0.726562,0.726562 l 0,6.5265633 c 0,0.402344 -0.324218,0.726562 -0.726562,0.726562 -0.402344,0 -0.726563,-0.324218 -0.726563,-0.726562 l 0,-6.5265633 c 0,-0.402343 0.324219,-0.726562 0.726563,-0.726562 z" />
</svg>
