<?xml version="1.0" encoding="UTF-8" standalone="no"?>
<svg
   xmlns:dc="http://purl.org/dc/elements/1.1/"
   xmlns:cc="http://creativecommons.org/ns#"
   xmlns:rdf="http://www.w3.org/1999/02/22-rdf-syntax-ns#"
   xmlns:svg="http://www.w3.org/2000/svg"
   xmlns="http://www.w3.org/2000/svg"
   xmlns:sodipodi="http://sodipodi.sourceforge.net/DTD/sodipodi-0.dtd"
   xmlns:inkscape="http://www.inkscape.org/namespaces/inkscape"
   width="13.091"
   viewBox="0 0 13.091 16"
   height="16"
   id="svg3006"
   version="1.1"
   inkscape:version="0.91 r"
   sodipodi:docname="nm-vpn-standalone-lock.svg">
  <metadata
     id="metadata3018">
    <rdf:RDF>
      <cc:Work
         rdf:about="">
        <dc:format>image/svg+xml</dc:format>
        <dc:type
           rdf:resource="http://purl.org/dc/dcmitype/StillImage" />
        <dc:title />
      </cc:Work>
    </rdf:RDF>
  </metadata>
  <defs
     id="defs3016" />
  <sodipodi:namedview
     pagecolor="#ffffff"
     bordercolor="#666666"
     borderopacity="1"
     objecttolerance="10"
     gridtolerance="10"
     guidetolerance="10"
     inkscape:pageopacity="0"
     inkscape:pageshadow="2"
     inkscape:window-width="811"
     inkscape:window-height="480"
     id="namedview3014"
     showgrid="false"
     inkscape:zoom="10.727273"
     inkscape:cx="9.0000002"
     inkscape:cy="11"
     inkscape:window-x="0"
     inkscape:window-y="30"
     inkscape:window-maximized="0"
     inkscape:current-layer="svg3006" />
  <path
     inkscape:connector-curvature="0"
     id="path3012"
     d="m 5.7732141,1.0494286 c -1.7113852,0 -3.0891429,1.3777577 -3.0891429,3.0891428 l 0,2.3168571 -0.7722857,0 c -0.4278463,0 -0.7722857,0.3444395 -0.7722857,0.7722858 l 0,6.9505707 c 0,0.427847 0.3444394,0.772286 0.7722857,0.772286 l 9.2674285,0 c 0.427847,0 0.772286,-0.344439 0.772286,-0.772286 l 0,-6.9505707 c 0,-0.4278463 -0.344439,-0.7722858 -0.772286,-0.7722858 l -0.772285,0 0,-2.3168571 c 0,-1.7113851 -1.3777583,-3.0891428 -3.0891435,-3.0891428 l -1.5445714,0 z m 0,1.5445714 1.5445714,0 c 0.8556926,0 1.5445714,0.6888788 1.5445714,1.5445714 l 0,2.3168571 -4.6337142,0 0,-2.3168571 C 4.2286427,3.2828788 4.9175215,2.594 5.7732141,2.594 Z"
     style="fill:#353535;fill-opacity:1;fill-rule:evenodd" />
</svg>
