<?xml version="1.0" encoding="UTF-8" standalone="no"?>
<!-- Created with Inkscape (http://www.inkscape.org/) -->

<svg
   xmlns:dc="http://purl.org/dc/elements/1.1/"
   xmlns:cc="http://creativecommons.org/ns#"
   xmlns:rdf="http://www.w3.org/1999/02/22-rdf-syntax-ns#"
   xmlns:svg="http://www.w3.org/2000/svg"
   xmlns="http://www.w3.org/2000/svg"
   xmlns:sodipodi="http://sodipodi.sourceforge.net/DTD/sodipodi-0.dtd"
   xmlns:inkscape="http://www.inkscape.org/namespaces/inkscape"
   id="svg9065"
   version="1.1"
   inkscape:version="0.91 r"
   width="16"
   height="16"
   sodipodi:docname="state-sync.svg">
  <metadata
     id="metadata9071">
    <rdf:RDF>
      <cc:Work
         rdf:about="">
        <dc:format>image/svg+xml</dc:format>
        <dc:type
           rdf:resource="http://purl.org/dc/dcmitype/StillImage" />
        <dc:title />
      </cc:Work>
    </rdf:RDF>
  </metadata>
  <defs
     id="defs9069" />
  <sodipodi:namedview
     pagecolor="#ffffff"
     bordercolor="#666666"
     borderopacity="1"
     objecttolerance="10"
     gridtolerance="10"
     guidetolerance="10"
     inkscape:pageopacity="0"
     inkscape:pageshadow="2"
     inkscape:window-width="1197"
     inkscape:window-height="715"
     id="namedview9067"
     showgrid="true"
     inkscape:zoom="15.799417"
     inkscape:cx="5.3127108"
     inkscape:cy="8.9155934"
     inkscape:window-x="81"
     inkscape:window-y="24"
     inkscape:window-maximized="0"
     inkscape:current-layer="svg9065">
    <inkscape:grid
       type="xygrid"
       id="grid3010" />
  </sodipodi:namedview>
  <g
     transform="matrix(0.04789028,0,0,0.04996325,-8.6106479,1.5246177)"
     id="g3003"
     style="fill:#353535;fill-opacity:1;stroke:none">
    <path
       style="fill:#353535;fill-opacity:1;stroke:none"
       d="M 10.1875,4 C 9.2200956,4 8.3990682,4.5886096 8,5.4375 7.7697724,5.2424181 7.4759609,5.125 7.15625,5.125 6.4168238,5.125 5.8125,5.7598171 5.8125,6.53125 c 0,0.2987722 0.096865,0.5853905 0.25,0.8125 -0.5177565,0.3443344 -0.9036631,0.8776712 -1.09375,1.5 C 4.8764994,8.8327661 4.7825686,8.8125 4.6875,8.8125 3.3330975,8.8125 2.25,9.9619712 2.25,11.375 c 0,1.413029 1.0830975,2.5625 2.4375,2.5625 0.4329647,0 0.8332229,-0.105328 1.1875,-0.3125 C 5.4728443,12.839845 5.25,11.942769 5.25,11 5.25,7.8243645 7.824363,5.25 11,5.25 c 0.475178,0 0.933357,0.078831 1.375,0.1875 C 11.977684,4.5837923 11.160245,4 10.1875,4 Z M 16.25,8.625 c 0.326298,0.7217013 0.5,1.531472 0.5,2.375 0,1.058547 -0.282247,2.054398 -0.78125,2.90625 0.479068,-0.115103 0.908796,-0.342591 1.25,-0.6875 0.254732,0.368125 0.656558,0.59375 1.125,0.59375 0.77463,0 1.40625,-0.62934 1.40625,-1.4375 0,-0.80816 -0.63162,-1.46875 -1.40625,-1.46875 -0.119612,0 -0.232904,0.0019 -0.34375,0.03125 C 17.889206,9.862027 17.194163,8.9714049 16.25,8.625 Z"
       transform="matrix(15.186172,0,0,14.5561,179.80011,-15.961411)"
       id="circle265"
       inkscape:connector-curvature="0" />
  </g>
  <path
     style="color:#000000;font-style:normal;font-variant:normal;font-weight:normal;font-stretch:normal;font-size:medium;line-height:normal;font-family:Sans;-inkscape-font-specification:Sans;text-indent:0;text-align:start;text-decoration:none;text-decoration-line:none;letter-spacing:normal;word-spacing:normal;text-transform:none;direction:ltr;block-progression:tb;writing-mode:lr-tb;baseline-shift:baseline;text-anchor:start;display:inline;overflow:visible;visibility:visible;fill:#353535;fill-opacity:1;fill-rule:nonzero;stroke:none;stroke-width:2.5999999;marker:none;enable-background:accumulate"
     d="m 7.9999997,5.3862073 c -1.8384587,0 -3.3408966,1.502438 -3.3408966,3.3408965 0,0.9533601 0.3989914,1.8207472 1.0454506,2.4318092 L 6.8863675,10.158916 C 6.456926,9.8241151 6.1590975,9.3192136 6.1590975,8.7271038 c 0,-1.0210209 0.8198805,-1.8409022 1.8409022,-1.8409022 0.230857,0 0.45595,0.036959 0.659088,0.113636 l 0.272727,-1.45454 C 8.6348407,5.458208 8.3242837,5.3862073 7.9999997,5.3862073 Z M 10.295446,6.2952948 9.1136317,7.295291 c 0.430788,0.3361471 0.72727,0.8397045 0.72727,1.4318128 0,1.0210243 -0.819877,1.8409022 -1.840902,1.8409022 -0.231183,0 -0.456089,-0.05985 -0.659088,-0.136363 l -0.272727,1.499994 c 0.296004,0.08655 0.608983,0.136363 0.931815,0.136363 1.83846,0 3.3408973,-1.502436 3.3408973,-3.3408962 0,-0.9533593 -0.400066,-1.8218208 -1.045451,-2.431809 z"
     id="path2991"
     inkscape:connector-curvature="0" />
</svg>
