<svg xmlns="http://www.w3.org/2000/svg" height="16" width="16">
 <path d="m12.95 13.95-0.5656-0.5657m0.0707-8.8388l0.495-0.4947m-9.3341 0.5657-0.5656-0.5657m-2.0503 4.9498h1m12 0h1m-7-6v-1" opacity="0.3" fill="none" stroke="#000" stroke-linecap="round" stroke-width="2"/>
 <path d="m8 5c-2.2091 0-4 1.7909-4 4 0 0.2867 0.0364 0.5741 0.0938 0.8438 0.581-0.5276 1.3012-0.9063 2.1562-0.9063 1.6151 0 2.9249 1.1871 3.1875 2.7188 0.30803 0.17626 0.5659 0.41094 0.8125 0.65625 0.0052 0.0052 0.02604-0.0053 0.03125 0 1.053-0.72 1.719-1.94 1.719-3.312 0-2.2091-1.791-4-4-4zm-1.75 5c-0.84473 0-1.5684 0.45537-1.9531 1.1116-0.21663-0.15446-0.49328-0.25446-0.79687-0.25446-0.69 0-1.25 0.48-1.25 1.0714 0 0.13283 0.026505 0.25759 0.078125 0.375-0.7847 0.3-1.3281 0.981-1.3281 1.767 0 1.069 1.0035 1.929 2.25 1.929h4.5c1.2465 0 2.25-0.86 2.25-1.929 0-0.846-0.6344-1.56-1.5156-1.821 0.002-0.03661 0.01563-0.07007 0.01563-0.10714 0-1.183-1.008-2.143-2.25-2.143z" opacity="0.3"/>
 <path d="m12.95 12.95-0.566-0.566m0.071-8.8388 0.495-0.495m-9.3341 0.5657-0.5656-0.5657m-2.0503 4.9498h1m12 0h1m-7-6v-1" fill="none" stroke="#353535" stroke-linecap="round" stroke-width="2"/>
 <path d="m8 4c-2.2091 0-4 1.7909-4 4 0 0.2867 0.0364 0.5741 0.0938 0.8437 0.581-0.5275 1.3012-0.9062 2.1562-0.9062 1.6151 0 2.9249 1.1871 3.1875 2.7188 0.30803 0.17626 0.5659 0.41094 0.8125 0.65625 0.0052 0.0052 0.02604-0.0053 0.03125 0 1.053-0.72 1.719-1.9402 1.719-3.312 0-2.2091-1.791-4-4-4zm-1.75 5c-0.84473 0-1.5684 0.45537-1.9531 1.1116-0.2167-0.1549-0.4933-0.2549-0.7969-0.2549-0.69 0-1.25 0.48-1.25 1.0714 0 0.13283 0.026505 0.25759 0.078125 0.375-0.7847 0.3-1.3281 0.981-1.3281 1.767 0 1.0684 1.0035 1.9286 2.25 1.9286h4.5c1.2465 0 2.25-0.86014 2.25-1.9286 0-0.84629-0.63436-1.5604-1.5156-1.8214 0.002-0.03661 0.01563-0.07007 0.01563-0.10714 0-1.1829-1.008-2.1429-2.25-2.1429z" fill="#353535"/>
</svg>
