<svg width="16" xmlns="http://www.w3.org/2000/svg" viewBox="0 0 16 16" height="16">
<defs>
<clipPath>
<rect width="16" height="16"/>
</clipPath>
</defs>
<g style="line-height:normal;color:#000">
<path style="opacity:.3" d="M 1.78125,2 C 1.3511142,2.0402461 0.99813709,2.442967 1,2.875 l 0,8.75 c 4.55e-5,0.458018 0.4168643,0.874913 0.875,0.875 l 7,0 3.5,3.5 0,-3.5 1.75,0 c 0.458136,-8.7e-5 0.874954,-0.416982 0.875,-0.875 l 0,-8.75 C 14.999954,2.4168946 14.583136,2 14.125,2 L 1.875,2 C 1.847674,1.9991251 1.808576,1.9991251 1.78125,2 z"/>
<path style="fill:#353535" d="M 1.78125,1 C 1.3511142,1.0402461 0.99813709,1.442967 1,1.875 l 0,8.75 c 4.55e-5,0.458018 0.4168643,0.874913 0.875,0.875 l 7,0 3.5,3.5 0,-3.5 1.75,0 c 0.458136,-8.7e-5 0.874954,-0.416982 0.875,-0.875 l 0,-8.75 C 14.999954,1.4168946 14.583136,1 14.125,1 L 1.875,1 C 1.847674,0.99912507 1.808576,0.99912507 1.78125,1 z"/>
</g>
</svg>
