<?xml version="1.0" encoding="UTF-8" standalone="no"?>
<svg
   xmlns:dc="http://purl.org/dc/elements/1.1/"
   xmlns:cc="http://creativecommons.org/ns#"
   xmlns:rdf="http://www.w3.org/1999/02/22-rdf-syntax-ns#"
   xmlns:svg="http://www.w3.org/2000/svg"
   xmlns="http://www.w3.org/2000/svg"
   xmlns:sodipodi="http://sodipodi.sourceforge.net/DTD/sodipodi-0.dtd"
   xmlns:inkscape="http://www.inkscape.org/namespaces/inkscape"
   width="16"
   viewBox="0 0 22 22"
   height="16"
   style="enable-background:new"
   id="svg7381"
   version="1.1"
   inkscape:version="0.91 r"
   sodipodi:docname="weather-few-clouds.svg">
  <metadata
     id="metadata7508">
    <rdf:RDF>
      <cc:Work
         rdf:about="">
        <dc:format>image/svg+xml</dc:format>
        <dc:type
           rdf:resource="http://purl.org/dc/dcmitype/StillImage" />
      </cc:Work>
    </rdf:RDF>
  </metadata>
  <sodipodi:namedview
     pagecolor="#ffffff"
     bordercolor="#666666"
     borderopacity="1"
     objecttolerance="10"
     gridtolerance="10"
     guidetolerance="10"
     inkscape:pageopacity="0"
     inkscape:pageshadow="2"
     inkscape:window-width="1366"
     inkscape:window-height="747"
     id="namedview7506"
     showgrid="false"
     inkscape:zoom="10.429825"
     inkscape:cx="6.6385743"
     inkscape:cy="6.6670827"
     inkscape:window-x="0"
     inkscape:window-y="21"
     inkscape:window-maximized="1"
     inkscape:current-layer="svg7381" />
  <defs
     id="defs7383" />
  <g
     id="g5328">
    <path
       id="path30"
       d="M 9.4375 3 C 9.198441 4.9796733 8.063104 5.4519446 6.5 4.21875 C 7.03673 6.1392137 6.134792 7.0098992 4.21875 6.46875 C 5.449555 8.0376303 4.977282 9.1417201 3 9.375 C 4.737498 10.353449 4.737548 11.590291 3 12.5625 C 4.979675 12.80156 5.451942 13.936882 4.21875 15.5 C 4.6588566 15.376997 5.0187711 15.354027 5.34375 15.375 C 5.6648471 14.730056 6.2663692 14.235424 6.96875 13.9375 C 7.0053276 13.652719 6.9719745 13.536726 7.1875 13.125 C 7.5836009 12.368314 8.4846296 11.58424 9.90625 11.40625 C 10.101705 11.3819 10.273872 11.375 10.4375 11.375 L 10.46875 11.375 C 12.044878 11.384454 12.894985 12.176604 13.4375 12.9375 C 14.063823 12.617133 14.933457 12.414061 15.90625 12.8125 C 16.477399 13.046433 16.847685 13.415684 17.125 13.78125 C 17.249852 13.16265 17.885964 12.756445 19 12.625 C 17.262472 11.646527 17.262449 10.409719 19 9.4375 C 17.020233 9.1984022 16.548062 8.0631243 17.78125 6.5 C 15.860757 7.0367452 14.990113 6.1348094 15.53125 4.21875 C 13.96235 5.4495782 12.858299 4.9772934 12.625 3 C 11.646552 4.7374937 10.409697 4.7374877 9.4375 3 z M 10.15625 13.375 C 9.2806604 13.484625 9.0808361 13.78868 8.9375 14.0625 C 8.794164 14.33632 8.8125 14.5625 8.8125 14.5625 L 8.84375 15.4375 L 7.96875 15.5625 C 7.4850186 15.642478 7.09375 16.151486 7.09375 16.375 C 7.09375 16.401305 7.1599389 16.585923 7.375 16.78125 C 7.5313073 16.923214 7.7400587 17.016443 7.9375 17.09375 C 8.1064137 17.089243 8.2939923 17.127291 8.4375 17.1875 C 8.623912 17.184892 8.84375 17.1875 8.84375 17.1875 L 9.53125 17.0625 L 9.90625 17.65625 C 9.8594817 17.576024 9.9793177 17.74693 10.21875 17.84375 C 10.265989 17.862852 10.321905 17.890228 10.375 17.90625 C 10.787221 17.664741 11.214502 17.679094 11.625 17.9375 C 11.632548 17.942251 11.648712 17.93258 11.65625 17.9375 C 11.852643 17.904597 12.031746 17.863831 12.1875 17.8125 C 12.35196 17.7583 12.472807 17.667994 12.53125 17.625 L 12.84375 17.125 L 13.5 17.15625 C 13.5 17.15625 13.608928 17.154681 13.625 17.15625 C 13.894113 17.071918 14.217248 17.122467 14.5625 17.25 C 14.817803 17.268117 15.101378 17.26605 15.40625 17.28125 C 15.287565 16.529659 15.434094 15.991926 15.8125 15.6875 L 15.8125 15.375 C 15.8125 15.375 15.82331 15.310695 15.75 15.15625 C 15.676689 15.001805 15.572327 14.826668 15.15625 14.65625 C 14.533775 14.401295 13.875 15.0625 13.875 15.0625 L 12.78125 16.25 L 12.21875 14.71875 C 12.21875 14.71875 11.755866 13.3829 10.4375 13.375 C 10.336302 13.375 10.24847 13.36352 10.15625 13.375 z "
       style="fill:#353535;fill-opacity:1;enable-background:new" />
    <path
       sodipodi:nodetypes="cccsscscsscscc"
       inkscape:connector-curvature="0"
       id="path10067"
       d="m 10.450598,12.361447 c -0.132413,0 -0.273811,0.0062 -0.417651,0.0241 -2.2972106,0.287615 -2.2274796,2.204819 -2.2274796,2.204819 -0.940901,0.155565 -1.7069274,0.954081 -1.7069274,1.789146 0,0.835046 0.9800554,1.574265 1.8037734,1.789165 0.489979,0.127827 1.131899,0 1.131899,0 C 9.3250674,18.667605 10.284164,19 10.952992,19 c 1.090564,0 2.211457,-0.351961 2.469597,-0.831326 0,0 4.516319,0.351538 5.453696,0 1.364609,-0.511768 0.938226,-2.110013 0.03026,-2.650601 -0.907959,-0.540588 -2.094315,-0.16266 -2.094315,-0.16266 0,0 -0.0052,-1.100569 -1.289276,-1.626506 -1.284031,-0.525917 -2.366698,0.638554 -2.366698,0.638554 0,0 -0.719458,-1.9941 -2.705658,-2.006014 z"
       style="fill:#353535;fill-opacity:1;enable-background:new" />
  </g>
</svg>
