<svg xmlns="http://www.w3.org/2000/svg" viewBox="0 0 22 22" xmlns:xlink="http://www.w3.org/1999/xlink">
<defs>
<linearGradient gradientTransform="matrix(.48572 0 0 .47803 -.65717 -6.706)" id="linearGradient3800" y1=".985" y2="47.013" gradientUnits="userSpaceOnUse" x2="0">
<stop offset="0" style="stop-color:#f4f4f4"/>
<stop offset="1" style="stop-color:#dbdbdb"/>
</linearGradient>
<linearGradient gradientTransform="matrix(.5348 0 0 .51053 -.78495 -6.7235)" id="linearGradient3740" y1="12.443" y2="46.562" gradientUnits="userSpaceOnUse" x2="0">
<stop offset="0" style="stop-color:#f0c178"/>
<stop offset=".5" style="stop-color:#e18941"/>
<stop offset="1" style="stop-color:#ec4f18"/>
</linearGradient>
<linearGradient gradientTransform="matrix(.45454 0 0 .46512 .09093 -5.6628)" id="linearGradient2957" y1="2" y2="46.017" gradientUnits="userSpaceOnUse" x2="0">
<stop offset="0" style="stop-color:#fff"/>
<stop offset="1" style="stop-color:#fff;stop-opacity:0"/>
</linearGradient>
<linearGradient gradientTransform="matrix(.39221 0 0 .44736 28.199 -7.2387)" id="linearGradient3802" y1="50.786" y2="2.906" gradientUnits="userSpaceOnUse" x2="0">
<stop offset="0" style="stop-color:#aaa"/>
<stop offset="1" style="stop-color:#c8c8c8"/>
</linearGradient>
<linearGradient gradientTransform="matrix(.47785 0 0 .55248 -.62775 -6.0761)" id="linearGradient2936" y1="8.059" y2="5.457" x1="32.892" gradientUnits="userSpaceOnUse" x2="36.358">
<stop offset="0" style="stop-color:#fefefe"/>
<stop offset="1" style="stop-color:#cbcbcb"/>
</linearGradient>
<radialGradient cx="102" cy="112.3" gradientTransform="matrix(.17021 0 0 -.19072 .10638 17.717)" id="radialGradient2960" r="139.56" gradientUnits="userSpaceOnUse">
<stop offset="0" style="stop-color:#b7b8b9"/>
<stop offset=".189" style="stop-color:#ececec"/>
<stop offset=".257" style="stop-color:#fafafa;stop-opacity:0"/>
<stop offset=".301" style="stop-color:#fff;stop-opacity:0"/>
<stop offset=".531" style="stop-color:#fafafa;stop-opacity:0"/>
<stop offset=".845" style="stop-color:#ebecec;stop-opacity:0"/>
<stop offset="1" style="stop-color:#e1e2e3;stop-opacity:0"/>
</radialGradient>
</defs>
<g transform="translate(0 6)">
<path style="fill:url(#linearGradient3800);stroke:url(#linearGradient3802);stroke-linejoin:round" d="m2.5-5.5h11.5c0.68337 0.2373 4.5413 3.1282 5.5 5 0 5.7292 0.000039 10.271 0.000039 16h-17v-21z"/>
<path style="fill:url(#radialGradient2960)" d="m3.1702 16c-0.0938 0-0.1702-0.086-0.1702-0.191v-20.598c0-0.10528 0.076426-0.19072 0.17021-0.19072 3.5215 0.052717 7.4239-0.078858 10.941 0.013125l4.8389 4.3271 0.04987 16.448c0 0.106-0.076 0.192-0.17 0.192h-15.66z"/>
<path style="opacity:.6;fill:none;stroke:url(#linearGradient2957)" d="m18.5-0.32296v14.823h-15v-19h10.394"/>
<path style="fill:url(#linearGradient3740)" d="m8-2v1.75h-2.4375v13.688h3.0938v-13.438h8.3438v-2h-9z"/>
<rect width="3.079" x="5" y="-2.075" height="2.075" style="fill:#dfdac0"/>
</g>
<g style="fill:none">
<g transform="translate(0 6)">
<path style="stroke-opacity:.325;stroke:#5d542c" d="m12.5-2.4306v15.931"/>
<path style="stroke:#6c6c6c" d="m16.5 0.5h-11.001"/>
</g>
<g style="stroke-opacity:.325;stroke:#5d542c" transform="translate(0 6)">
<path d="m16.5 2.5h-11"/>
<path d="m16.5 5.5h-11"/>
<path d="m16.5 8.5h-11"/>
<path d="m16.5 11.5h-11"/>
</g>
</g>
<g transform="translate(0 6)">
<path style="opacity:.2;fill:#fff;fill-rule:evenodd;stroke:#fff;stroke-linejoin:round;stroke-linecap:square" d="m5.5-1.5 11-0.019"/>
</g>
<g style="fill:none;stroke:#6c6c6c" transform="translate(0 6)">
<path d="m8.5-2.4306v15.931"/>
<rect width="10.998" x="5.501" y="-2.499" height="15.998" style="stroke-linecap:square;stroke-width:1.002"/>
</g>
<g style="fill-rule:evenodd" transform="translate(0 6)">
<path style="opacity:.2" d="m13.075-5c1.1563 0.32877 0.33906 4.6144 0.33906 4.6144s4.5154-0.42774 5.6077 1.195c1.4892 2.2123-0.06822-0.63517-0.17345-0.8217-0.75593-1.34-3.8663-4.5471-5.0454-4.9412-0.08823-0.029493-0.28388-0.04647-0.72791-0.04647z"/>
<path style="fill:url(#linearGradient2936)" d="m13-5c1.5262 0 1 4 1 4s4.9921-0.45326 4.9921 2c0-0.59774 0.05575-1.4784-0.06407-1.6559-0.83911-1.243-3.7438-3.8619-4.7981-4.2976-0.08598-0.035532-0.6859-0.04647-1.1299-0.04647z"/>
</g>
</svg>
