<svg xmlns="http://www.w3.org/2000/svg" viewBox="0 0 22 22" xmlns:xlink="http://www.w3.org/1999/xlink">
<defs>
<linearGradient gradientTransform="matrix(.48572 0 0 .47803 -.65717 -.70595)" id="linearGradient2435" y1=".985" y2="47.013" gradientUnits="userSpaceOnUse" x2="0">
<stop offset="0" style="stop-color:#f4f4f4"/>
<stop offset="1" style="stop-color:#dbdbdb"/>
</linearGradient>
<linearGradient gradientTransform="matrix(.39221 0 0 .44736 28.199 -1.2387)" id="linearGradient2438" y1="50.786" y2="2.906" gradientUnits="userSpaceOnUse" x2="0">
<stop offset="0" style="stop-color:#aaa"/>
<stop offset="1" style="stop-color:#c8c8c8"/>
</linearGradient>
<linearGradient gradientTransform="matrix(.45454 0 0 .46512 .09093 .33723)" id="linearGradient2429" y1="2" y2="46.017" gradientUnits="userSpaceOnUse" x2="0">
<stop offset="0" style="stop-color:#fff"/>
<stop offset="1" style="stop-color:#fff;stop-opacity:0"/>
</linearGradient>
<linearGradient gradientTransform="matrix(.47785 0 0 .55248 -.62775 -.07613)" id="linearGradient2425" y1="8.059" y2="5.457" x1="32.892" gradientUnits="userSpaceOnUse" x2="36.358">
<stop offset="0" style="stop-color:#fefefe"/>
<stop offset="1" style="stop-color:#cbcbcb"/>
</linearGradient>
<radialGradient cx="92.09" cy="102.7" gradientTransform="matrix(.17021 0 0 -.19072 .10638 23.717)" id="radialGradient2432" r="139.56" gradientUnits="userSpaceOnUse">
<stop offset="0" style="stop-color:#b7b8b9"/>
<stop offset=".174" style="stop-color:#ececec"/>
<stop offset=".239" style="stop-color:#fafafa;stop-opacity:0"/>
<stop offset=".301" style="stop-color:#fff;stop-opacity:0"/>
<stop offset=".531" style="stop-color:#fafafa;stop-opacity:0"/>
<stop offset=".845" style="stop-color:#ebecec;stop-opacity:0"/>
<stop offset="1" style="stop-color:#e1e2e3;stop-opacity:0"/>
</radialGradient>
</defs>
<path style="fill:url(#linearGradient2435);stroke:url(#linearGradient2438);stroke-linejoin:round" d="m2.5 0.49996h11.5c0.68337 0.2373 4.5413 3.1282 5.5 5 0 5.7292 0.000039 10.271 0.000039 16h-17v-21z"/>
<path style="fill:url(#radialGradient2432)" d="m3.1702 22c-0.0938 0-0.1702-0.086-0.1702-0.191v-20.598c0-0.10528 0.076426-0.19072 0.17021-0.19072 3.5215 0.052717 7.4239-0.078858 10.941 0.013125l4.8389 4.3271 0.04987 16.448c0 0.106-0.076 0.192-0.17 0.192h-15.66z"/>
<path style="opacity:.6;fill:none;stroke:url(#linearGradient2429)" d="m18.5 5.677v15.823h-15v-20h10.394"/>
<g style="fill-rule:evenodd">
<path style="opacity:.2" d="m13.075 1c1.1563 0.32877 0.33906 4.6144 0.33906 4.6144s4.5154-0.42774 5.6077 1.195c1.489 2.2122-0.068-0.6352-0.173-0.8217-0.756-1.3401-3.867-4.5471-5.046-4.9412-0.088-0.0295-0.283-0.0465-0.728-0.0465z"/>
<path style="fill:url(#linearGradient2425)" d="m13 1c1.5262 0 1 4 1 4s4.9921-0.45326 4.9921 2c0-0.59774 0.05575-1.4784-0.06407-1.6559-0.839-1.243-3.744-3.8619-4.798-4.2976-0.086-0.0356-0.686-0.0465-1.13-0.0465z"/>
</g>
</svg>
