
<svg xmlns="http://www.w3.org/2000/svg" xmlns:xlink="http://www.w3.org/1999/xlink" width="128px" height="128px" viewBox="0 0 128 128" version="1.1">
<g id="surface1">
<path style=" stroke:none;fill-rule:nonzero;fill:rgb(20.392157%,40.784314%,80.784314%);fill-opacity:1;" d="M 21.375 0 C 18.625 0 16 2.757812 16 5.625 L 16 122.375 C 16 125.078125 18.78125 128 21.375 128 L 106.625 128 C 109.21875 128 112 125.078125 112 122.375 L 112 5.5 C 112 2.804688 109.195312 0 106.5 0 Z M 21.375 0 "/>
<path style=" stroke:none;fill-rule:evenodd;fill:rgb(97.647059%,97.647059%,97.647059%);fill-opacity:1;" d="M 40 40 L 64 40 L 64 60 L 40 60 Z M 40 40 "/>
<path style=" stroke:none;fill-rule:evenodd;fill:rgb(97.647059%,97.647059%,97.647059%);fill-opacity:1;" d="M 68 40 L 88 40 L 88 44 L 68 44 Z M 68 40 "/>
<path style=" stroke:none;fill-rule:evenodd;fill:rgb(97.647059%,97.647059%,97.647059%);fill-opacity:1;" d="M 68 48 L 88 48 L 88 52 L 68 52 Z M 68 48 "/>
<path style=" stroke:none;fill-rule:evenodd;fill:rgb(97.647059%,97.647059%,97.647059%);fill-opacity:1;" d="M 68 56 L 88 56 L 88 60 L 68 60 Z M 68 56 "/>
<path style=" stroke:none;fill-rule:evenodd;fill:rgb(97.647059%,97.647059%,97.647059%);fill-opacity:1;" d="M 40 64 L 88 64 L 88 68 L 40 68 Z M 40 64 "/>
<path style=" stroke:none;fill-rule:evenodd;fill:rgb(97.647059%,97.647059%,97.647059%);fill-opacity:1;" d="M 40 72 L 88 72 L 88 76 L 40 76 Z M 40 72 "/>
<path style=" stroke:none;fill-rule:evenodd;fill:rgb(97.647059%,97.647059%,97.647059%);fill-opacity:1;" d="M 40 80 L 88 80 L 88 84 L 40 84 Z M 40 80 "/>
<path style=" stroke:none;fill-rule:nonzero;fill:rgb(0%,0%,0%);fill-opacity:0.196078;" d="M 16 96 L 16 122.671875 C 16 125.265625 18.75 128 21.328125 128 L 106.671875 128 C 109.25 128 112 125.265625 112 122.671875 L 112 96 Z M 16 96 "/>
<path style=" stroke:none;fill-rule:nonzero;fill:rgb(100%,100%,100%);fill-opacity:1;" d="M 40.625 113.195312 C 40.625 114.242188 40.65625 115.234375 40.742188 116.15625 C 40.84375 117.0625 41.023438 117.851562 41.289062 118.53125 C 41.5625 119.203125 41.960938 119.734375 42.453125 120.125 C 42.953125 120.523438 43.609375 120.71875 44.429688 120.71875 C 45.242188 120.71875 45.882812 120.523438 46.375 120.125 C 46.890625 119.734375 47.28125 119.203125 47.546875 118.53125 C 47.828125 117.820312 48.007812 117.03125 48.09375 116.125 C 48.1875 115.21875 48.234375 114.242188 48.234375 113.195312 C 48.234375 112.15625 48.1875 111.179688 48.09375 110.273438 C 48.007812 109.335938 47.828125 108.546875 47.546875 107.867188 C 47.28125 107.195312 46.90625 106.664062 46.40625 106.273438 C 45.914062 105.875 45.257812 105.679688 44.429688 105.679688 C 43.609375 105.679688 42.953125 105.875 42.453125 106.273438 C 41.960938 106.664062 41.5625 107.210938 41.289062 107.90625 C 41.023438 108.578125 40.84375 109.367188 40.742188 110.273438 C 40.65625 111.179688 40.625 112.15625 40.625 113.195312 M 35.765625 113.195312 C 35.765625 109.484375 36.539062 106.679688 38.054688 104.804688 C 39.585938 102.890625 41.710938 101.953125 44.429688 101.953125 C 47.25 101.953125 49.40625 102.890625 50.875 104.804688 C 52.359375 106.679688 53.101562 109.484375 53.101562 113.195312 C 53.101562 116.914062 52.34375 119.71875 50.84375 121.625 C 49.34375 123.507812 47.21875 124.445312 44.46875 124.445312 C 41.648438 124.445312 39.492188 123.507812 37.992188 121.625 C 36.507812 119.71875 35.765625 116.914062 35.765625 113.195312 "/>
<path style=" stroke:none;fill-rule:nonzero;fill:rgb(100%,100%,100%);fill-opacity:1;" d="M 72.59375 102.429688 L 72.59375 105.992188 L 66.265625 105.992188 L 66.265625 124 L 61.4375 124 L 61.4375 105.992188 L 55.109375 105.992188 L 55.109375 102.429688 L 72.59375 102.429688 "/>
<path style=" stroke:none;fill-rule:nonzero;fill:rgb(100%,100%,100%);fill-opacity:1;" d="M 92.015625 102.429688 L 92.015625 105.992188 L 85.671875 105.992188 L 85.671875 124 L 80.859375 124 L 80.859375 105.992188 L 74.53125 105.992188 L 74.53125 102.429688 L 92.015625 102.429688 "/>
</g>
</svg>
