<svg width="128" xmlns="http://www.w3.org/2000/svg" height="128" viewBox="0 0 128 128" xmlns:xlink="http://www.w3.org/1999/xlink">
<path style="fill:#c19553" d="M 21.484375 16 C 18.742188 16 16 18.742188 16 21.484375 L 16 106.667969 C 16 109.257812 18.742188 112 21.332031 112 L 106.667969 112 C 109.257812 112 112 109.257812 112 106.667969 L 112 21.332031 C 112 18.742188 109.257812 16 106.667969 16 Z "/>
<g style="fill:#fff">
<path style="fill-opacity:.196" d="M 21.484375 16 C 18.742188 16 16 18.742188 16 21.484375 L 16 48 C 26.667969 48 101.332031 48 112 48 L 112 21.332031 C 112 18.742188 109.257812 16 106.667969 16 Z "/>
<path style="fill-opacity:.392" d="M 56 26.667969 L 56 69.332031 L 72 69.332031 L 72 26.667969 Z "/>
</g>
<g style="fill:#fff">
<path d="M 41.96875 97.699219 C 42.09375 97.722656 42.234375 97.734375 42.382812 97.734375 C 42.535156 97.734375 42.671875 97.734375 42.796875 97.734375 C 43.855469 97.734375 44.734375 97.554688 45.4375 97.195312 C 46.164062 96.835938 46.742188 96.34375 47.171875 95.714844 C 47.625 95.085938 47.9375 94.34375 48.113281 93.492188 C 48.3125 92.617188 48.414062 91.664062 48.414062 90.632812 C 48.414062 89.734375 48.339844 88.859375 48.1875 88.007812 C 48.039062 87.15625 47.773438 86.40625 47.398438 85.753906 C 47.019531 85.101562 46.503906 84.585938 45.851562 84.207031 C 45.199219 83.800781 44.355469 83.601562 43.328125 83.601562 C 43.125 83.601562 42.898438 83.613281 42.648438 83.632812 C 42.398438 83.632812 42.171875 83.65625 41.96875 83.703125 L 41.96875 97.699219 M 53.125 90.632812 C 53.125 92.5625 52.851562 94.210938 52.296875 95.578125 C 51.769531 96.925781 51.027344 98.023438 50.074219 98.875 C 49.117188 99.730469 47.976562 100.355469 46.644531 100.761719 C 45.335938 101.140625 43.890625 101.332031 42.308594 101.332031 C 41.480469 101.332031 40.664062 101.289062 39.859375 101.199219 C 39.078125 101.132812 38.238281 101.007812 37.332031 100.828125 L 37.332031 80.503906 C 38.390625 80.304688 39.382812 80.167969 40.3125 80.101562 C 41.242188 80.035156 42.109375 80 42.910156 80 C 44.445312 80 45.839844 80.203125 47.09375 80.605469 C 48.378906 81.007812 49.457031 81.648438 50.335938 82.523438 C 51.214844 83.375 51.894531 84.476562 52.371094 85.820312 C 52.875 87.144531 53.125 88.75 53.125 90.632812 "/>
<path d="M 56.519531 101.0625 L 56.519531 80.234375 L 70.652344 80.234375 L 70.652344 83.667969 L 61.15625 83.667969 L 61.15625 88.34375 L 69.410156 88.34375 L 69.410156 91.777344 L 61.15625 91.777344 L 61.15625 97.632812 L 71.480469 97.632812 L 71.480469 101.0625 L 56.519531 101.0625 "/>
<path d="M 90.667969 94.773438 C 90.667969 96.027344 90.429688 97.082031 89.949219 97.933594 C 89.472656 98.765625 88.820312 99.4375 87.992188 99.953125 C 87.1875 100.445312 86.21875 100.804688 85.089844 101.03125 C 83.984375 101.230469 82.789062 101.332031 81.507812 101.332031 C 80.476562 101.332031 79.410156 101.277344 78.304688 101.164062 C 77.199219 101.074219 76.105469 100.929688 75.023438 100.726562 L 75.023438 80.503906 C 75.90625 80.371094 76.871094 80.257812 77.925781 80.167969 C 78.984375 80.054688 80.023438 80 81.054688 80 C 82.816406 80 84.246094 80.167969 85.351562 80.503906 C 86.457031 80.820312 87.324219 81.246094 87.953125 81.785156 C 88.582031 82.300781 89.007812 82.882812 89.234375 83.53125 C 89.460938 84.183594 89.574219 84.835938 89.574219 85.484375 C 89.574219 86.472656 89.296875 87.347656 88.746094 88.109375 C 88.21875 88.871094 87.5 89.476562 86.597656 89.925781 C 88.179688 90.441406 89.246094 91.136719 89.800781 92.011719 C 90.378906 92.886719 90.667969 93.808594 90.667969 94.773438 M 79.660156 91.945312 L 79.660156 97.597656 C 79.988281 97.644531 80.339844 97.675781 80.714844 97.699219 C 81.117188 97.722656 81.507812 97.734375 81.886719 97.734375 C 82.414062 97.734375 82.925781 97.699219 83.429688 97.632812 C 83.933594 97.542969 84.371094 97.394531 84.75 97.195312 C 85.152344 96.96875 85.476562 96.667969 85.730469 96.285156 C 85.980469 95.882812 86.105469 95.378906 86.105469 94.773438 C 86.105469 93.761719 85.742188 93.042969 85.011719 92.617188 C 84.308594 92.167969 83.355469 91.945312 82.148438 91.945312 L 79.660156 91.945312 M 81.46875 88.511719 C 82.652344 88.511719 83.542969 88.289062 84.144531 87.839844 C 84.75 87.367188 85.050781 86.730469 85.050781 85.921875 C 85.050781 85.429688 84.964844 85.035156 84.785156 84.746094 C 84.609375 84.429688 84.371094 84.195312 84.070312 84.039062 C 83.769531 83.859375 83.417969 83.746094 83.015625 83.703125 C 82.613281 83.632812 82.199219 83.601562 81.773438 83.601562 C 81.417969 83.601562 81.054688 83.613281 80.679688 83.632812 C 80.300781 83.65625 79.960938 83.691406 79.660156 83.734375 L 79.660156 88.511719 L 81.46875 88.511719 "/>
</g>
</svg>
