<svg width="128" xmlns="http://www.w3.org/2000/svg" height="128" viewBox="0 0 128 128" xmlns:xlink="http://www.w3.org/1999/xlink">
<path style="fill:#04aa9c" d="M 21.332031 2.667969 C 18.589844 2.667969 16 5.257812 16 8 L 16 120 C 16 122.589844 18.742188 125.332031 21.332031 125.332031 L 106.667969 125.332031 C 109.257812 125.332031 112 122.589844 112 120 L 112 8 C 112 5.257812 109.410156 2.667969 106.667969 2.667969 Z "/>
<path style="fill:#fff" d="M 78.519531 40 C 76.984375 40 75.671875 40.804688 74.953125 42 L 59.851562 42 C 59.851562 42 56.847656 41.949219 53.757812 43.4375 C 50.671875 44.925781 47.40625 48.332031 47.40625 54 C 47.40625 59.667969 50.671875 63.074219 53.757812 64.5625 C 55.222656 65.269531 56.664062 65.566406 57.777344 65.75 L 57.777344 66.625 L 52.074219 72.125 C 51.898438 72.078125 51.746094 72 51.554688 72 C 50.410156 72 49.480469 72.894531 49.480469 74 C 49.480469 75.105469 50.410156 76 51.554688 76 C 52.699219 76 53.628906 75.105469 53.628906 74 C 53.628906 73.816406 53.546875 73.667969 53.5 73.5 L 59.203125 68 L 66.074219 68 L 66.074219 66 L 68.148438 66 C 68.148438 66 70.328125 66.050781 72.425781 67.0625 C 74.523438 68.074219 76.445312 69.667969 76.445312 74 C 76.445312 78.332031 74.523438 79.925781 72.425781 80.9375 C 70.328125 81.949219 68.148438 82 68.148438 82 L 53.046875 82 C 52.328125 80.804688 51.015625 80 49.480469 80 C 47.191406 80 45.332031 81.789062 45.332031 84 C 45.332031 86.210938 47.191406 88 49.480469 88 C 51.015625 88 52.328125 87.195312 53.046875 86 L 68.148438 86 C 68.148438 86 71.152344 86.050781 74.242188 84.5625 C 77.328125 83.074219 80.59375 79.667969 80.59375 74 C 80.59375 68.332031 77.328125 64.925781 74.242188 63.4375 C 71.152344 61.949219 68.148438 62 68.148438 62 L 66.074219 62 L 66.074219 61.375 L 71.777344 55.875 C 71.953125 55.921875 72.105469 56 72.296875 56 C 73.441406 56 74.371094 55.105469 74.371094 54 C 74.371094 52.894531 73.441406 52 72.296875 52 C 71.152344 52 70.222656 52.894531 70.222656 54 C 70.222656 54.183594 70.304688 54.332031 70.351562 54.5 L 64.648438 60 L 57.777344 60 L 57.777344 61.6875 C 57.09375 61.53125 56.347656 61.3125 55.574219 60.9375 C 53.476562 59.925781 51.554688 58.332031 51.554688 54 C 51.554688 49.667969 53.476562 48.074219 55.574219 47.0625 C 57.671875 46.050781 59.851562 46 59.851562 46 L 74.953125 46 C 75.671875 47.195312 76.984375 48 78.519531 48 C 80.808594 48 82.667969 46.210938 82.667969 44 C 82.667969 41.789062 80.808594 40 78.519531 40 Z "/>
</svg>
