<svg width="128" xmlns="http://www.w3.org/2000/svg" height="128" viewBox="0 0 128 128" xmlns:xlink="http://www.w3.org/1999/xlink">
<path style="fill:#c19553" d="M 21.332031 2.667969 C 18.589844 2.667969 16 5.257812 16 8 L 16 120 C 16 122.589844 18.742188 125.332031 21.332031 125.332031 L 106.667969 125.332031 C 109.257812 125.332031 112 122.589844 112 120 L 112 37.332031 L 77.332031 2.667969 Z "/>
<path style="fill:#000;fill-opacity:.196" d="M 77.332031 32 L 77.5 32.167969 L 77.917969 32 Z M 82.667969 37.332031 L 112 66.667969 L 112 37.332031 Z "/>
<path style="fill:#fff;fill-opacity:.392" d="M 77.332031 2.667969 L 112 37.332031 L 82.667969 37.332031 C 80.078125 37.332031 77.332031 34.589844 77.332031 32 Z "/>
<path style="fill:#000;fill-opacity:.196" d="M 16 93.332031 L 16 120 C 16 122.589844 18.742188 125.332031 21.332031 125.332031 L 106.667969 125.332031 C 109.257812 125.332031 112 122.589844 112 120 L 112 93.332031 Z "/>
<g style="fill:#fff">
<path d="M 48 2.667969 L 48 13.332031 L 58.667969 13.332031 L 58.667969 2.667969 Z M 48 13.332031 L 37.332031 13.332031 L 37.332031 24 L 48 24 Z M 48 24 L 48 34.667969 L 58.667969 34.667969 L 58.667969 24 Z M 48 34.667969 L 37.332031 34.667969 L 37.332031 45.332031 L 48 45.332031 Z M 48 45.332031 L 48 56 L 58.667969 56 L 58.667969 45.332031 Z M 37.332031 61.332031 L 37.332031 82.667969 L 58.667969 82.667969 L 58.667969 61.332031 Z "/>
<path d="M 52.335938 120 L 37.332031 120 L 37.332031 98.667969 L 42.117188 98.667969 L 42.117188 116.484375 L 52.335938 116.484375 L 52.335938 120 "/>
<path d="M 71.421875 98.667969 L 71.421875 120 L 66.679688 120 L 66.679688 110.589844 L 60.355469 110.589844 L 60.355469 120 L 55.613281 120 L 55.613281 98.667969 L 60.355469 98.667969 L 60.355469 107.074219 L 66.679688 107.074219 L 66.679688 98.667969 L 71.421875 98.667969 "/>
<path d="M 90.320312 101.628906 C 89.214844 103.148438 88.199219 104.570312 87.273438 105.902344 C 86.347656 107.238281 85.488281 108.511719 84.691406 109.730469 C 83.890625 110.925781 83.132812 112.085938 82.414062 113.210938 C 81.71875 114.3125 81.050781 115.40625 80.410156 116.484375 L 90.667969 116.484375 L 90.667969 120 L 74.933594 120 L 74.933594 117.554688 C 75.5 116.566406 76.101562 115.53125 76.746094 114.453125 C 77.386719 113.347656 78.109375 112.175781 78.90625 110.9375 C 79.703125 109.695312 80.5625 108.351562 81.488281 106.902344 C 82.441406 105.457031 83.480469 103.882812 84.613281 102.183594 L 75.433594 102.183594 L 75.433594 98.667969 L 90.320312 98.667969 L 90.320312 101.628906 "/>
</g>
</svg>
