
<svg xmlns="http://www.w3.org/2000/svg" xmlns:xlink="http://www.w3.org/1999/xlink" width="128px" height="128px" viewBox="0 0 128 128" version="1.1">
<g id="surface1">
<path style=" stroke:none;fill-rule:nonzero;fill:rgb(75.686275%,58.431373%,32.54902%);fill-opacity:1;" d="M 21.34375 0 C 18.59375 0 16 2.710938 16 5.578125 L 16 122.421875 C 16 125.132812 18.75 128 21.34375 128 L 106.65625 128 C 109.25 128 112 125.132812 112 122.421875 L 112 36 L 76 0 Z M 21.34375 0 "/>
<path style=" stroke:none;fill-rule:nonzero;fill:rgb(0%,0%,0%);fill-opacity:0.196078;" d="M 16 96 L 16 122.671875 C 16 125.265625 18.75 128 21.328125 128 L 106.671875 128 C 109.25 128 112 125.265625 112 122.671875 L 112 96 Z M 16 96 "/>
<path style=" stroke:none;fill-rule:nonzero;fill:rgb(0%,0%,0%);fill-opacity:0.196078;" d="M 84 36 L 112 64 L 112 36 Z M 84 36 "/>
<path style=" stroke:none;fill-rule:nonzero;fill:rgb(100%,100%,100%);fill-opacity:0.392157;" d="M 76 0 L 111.96875 36 L 81.515625 36 C 78.820312 36 76 33.148438 76 30.453125 Z M 76 0 "/>
<path style=" stroke:none;fill-rule:evenodd;fill:rgb(97.647059%,97.647059%,97.647059%);fill-opacity:1;" d="M 36 0 L 48 0 L 48 12 L 36 12 Z M 36 0 "/>
<path style=" stroke:none;fill-rule:evenodd;fill:rgb(97.647059%,97.647059%,97.647059%);fill-opacity:1;" d="M 48 12 L 60 12 L 60 24 L 48 24 Z M 48 12 "/>
<path style=" stroke:none;fill-rule:evenodd;fill:rgb(97.647059%,97.647059%,97.647059%);fill-opacity:1;" d="M 36 24 L 48 24 L 48 36 L 36 36 Z M 36 24 "/>
<path style=" stroke:none;fill-rule:evenodd;fill:rgb(97.647059%,97.647059%,97.647059%);fill-opacity:1;" d="M 48 36 L 60 36 L 60 48 L 48 48 Z M 48 36 "/>
<path style=" stroke:none;fill-rule:evenodd;fill:rgb(97.647059%,97.647059%,97.647059%);fill-opacity:1;" d="M 36 48 L 48 48 L 48 60 L 36 60 Z M 36 48 "/>
<path style=" stroke:none;fill-rule:evenodd;fill:rgb(97.647059%,97.647059%,97.647059%);fill-opacity:1;" d="M 36 64 L 60 64 L 60 88 L 36 88 Z M 36 64 "/>
<path style=" stroke:none;fill-rule:nonzero;fill:rgb(100%,100%,100%);fill-opacity:1;" d="M 45.828125 124 C 45.9375 122.34375 46.25 120.609375 46.8125 118.757812 C 47.375 116.898438 48.023438 115.070312 48.796875 113.257812 C 49.609375 111.445312 50.46875 109.742188 51.398438 108.140625 C 52.335938 106.507812 53.210938 105.117188 54.054688 103.953125 L 41.976562 103.953125 L 41.976562 100 L 60.742188 100 L 60.742188 103.601562 C 59.890625 104.398438 59 105.523438 57.992188 106.976562 C 57.007812 108.421875 56.0625 110.054688 55.164062 111.90625 C 54.304688 113.734375 53.53125 115.703125 52.84375 117.796875 C 52.195312 119.867188 51.789062 121.921875 51.632812 124 L 45.828125 124 "/>
<path style=" stroke:none;fill-rule:nonzero;fill:rgb(100%,100%,100%);fill-opacity:1;" d="M 83.578125 103.320312 C 82.242188 105.03125 81.03125 106.648438 79.90625 108.140625 C 78.796875 109.632812 77.757812 111.078125 76.789062 112.445312 C 75.84375 113.78125 74.929688 115.085938 74.0625 116.351562 C 73.21875 117.601562 72.414062 118.828125 71.640625 120.046875 L 84 120.046875 L 84 124 L 65.046875 124 L 65.046875 121.242188 C 65.734375 120.132812 66.46875 118.96875 67.242188 117.757812 C 68.015625 116.507812 68.882812 115.1875 69.828125 113.804688 C 70.796875 112.414062 71.835938 110.882812 72.9375 109.265625 C 74.085938 107.632812 75.351562 105.851562 76.703125 103.953125 L 65.664062 103.953125 L 65.664062 100 L 83.578125 100 L 83.578125 103.320312 "/>
</g>
</svg>
