
<svg xmlns="http://www.w3.org/2000/svg" xmlns:xlink="http://www.w3.org/1999/xlink" width="128px" height="128px" viewBox="0 0 128 128" version="1.1">
<g id="surface1">
<path style=" stroke:none;fill-rule:nonzero;fill:rgb(21.960784%,63.921569%,30.588235%);fill-opacity:1;" d="M 21.34375 0 C 18.59375 0 16 2.710938 16 5.578125 L 16 122.421875 C 16 125.132812 18.75 128 21.34375 128 L 106.65625 128 C 109.25 128 112 125.132812 112 122.421875 L 112 36 L 76 0 Z M 21.34375 0 "/>
<path style=" stroke:none;fill-rule:nonzero;fill:rgb(0%,0%,0%);fill-opacity:0.196078;" d="M 84 36 L 112 64 L 112 36 Z M 84 36 "/>
<path style=" stroke:none;fill-rule:nonzero;fill:rgb(100%,100%,100%);fill-opacity:0.392157;" d="M 76 0 L 111.96875 36 L 81.515625 36 C 78.820312 36 76 33.148438 76 30.453125 Z M 76 0 "/>
<path style=" stroke:none;fill-rule:nonzero;fill:rgb(100%,100%,100%);fill-opacity:1;" d="M 46.578125 44 C 45.171875 44.132812 43.96875 45.625 44 47.210938 L 44 80.867188 C 44.015625 82.523438 45.335938 84.015625 46.8125 84 L 81.257812 84 C 82.710938 83.96875 83.984375 82.507812 84 80.867188 L 84 47.210938 C 84.03125 45.539062 82.742188 44.015625 81.257812 44 Z M 48 48 L 80 48 L 80 70.804688 L 70.59375 60.171875 L 68.234375 62.4375 L 64.632812 65.71875 L 62.429688 63.523438 L 56.773438 55.875 L 48 67.195312 Z M 48 48 "/>
<path style=" stroke:none;fill-rule:nonzero;fill:rgb(0%,0%,0%);fill-opacity:0.196078;" d="M 16 96 L 16 122.671875 C 16 125.265625 18.75 128 21.328125 128 L 106.671875 128 C 109.25 128 112 125.265625 112 122.671875 L 112 96 Z M 16 96 "/>
<path style=" stroke:none;fill-rule:nonzero;fill:rgb(100%,100%,100%);fill-opacity:1;" d="M 51.726562 116.429688 C 51.726562 117.460938 51.5625 118.4375 51.25 119.367188 C 50.953125 120.289062 50.460938 121.085938 49.757812 121.789062 C 49.070312 122.476562 48.1875 123.03125 47.09375 123.445312 C 45.984375 123.835938 44.65625 124.03125 43.085938 124.03125 C 41.4375 124.03125 40.0625 123.851562 38.96875 123.476562 C 37.875 123.117188 36.9375 122.65625 36.171875 122.132812 L 38.023438 118.75 C 38.671875 119.109375 39.390625 119.46875 40.179688 119.8125 C 40.992188 120.15625 41.8125 120.335938 42.648438 120.335938 C 43.90625 120.335938 44.921875 120.039062 45.671875 119.46875 C 46.460938 118.867188 46.851562 117.765625 46.851562 116.179688 L 46.851562 105.71875 L 38.726562 105.71875 L 38.726562 102.1875 L 51.726562 102.1875 L 51.726562 116.429688 "/>
<path style=" stroke:none;fill-rule:nonzero;fill:rgb(100%,100%,100%);fill-opacity:1;" d="M 62.9375 101.9375 C 66.03125 101.9375 68.4375 102.507812 70.132812 103.640625 C 71.835938 104.75 72.6875 106.570312 72.6875 109.101562 C 72.6875 111.648438 71.820312 113.515625 70.085938 114.664062 C 68.382812 115.789062 65.96875 116.359375 62.828125 116.359375 L 61.109375 116.359375 L 61.109375 123.585938 L 56.265625 123.585938 L 56.265625 102.460938 C 56.742188 102.382812 57.265625 102.296875 57.835938 102.21875 C 58.445312 102.148438 59.046875 102.101562 59.65625 102.085938 C 60.257812 102.039062 60.851562 102.007812 61.421875 101.984375 C 61.992188 101.953125 62.5 101.9375 62.9375 101.9375 M 63.5 105.648438 C 63.203125 105.648438 62.8125 105.648438 62.289062 105.679688 C 61.78125 105.679688 61.390625 105.703125 61.109375 105.75 L 61.109375 112.664062 L 63.070312 112.664062 C 64.609375 112.664062 65.773438 112.390625 66.554688 111.867188 C 67.34375 111.3125 67.734375 110.375 67.734375 109.070312 C 67.734375 107.828125 67.34375 106.945312 66.554688 106.4375 C 65.804688 105.914062 64.773438 105.648438 63.5 105.648438 "/>
<path style=" stroke:none;fill-rule:nonzero;fill:rgb(100%,100%,100%);fill-opacity:1;" d="M 86.03125 105.40625 C 84.867188 105.40625 83.90625 105.585938 83.117188 105.960938 C 82.335938 106.320312 81.679688 106.84375 81.15625 107.515625 C 80.664062 108.15625 80.289062 108.9375 80.0625 109.851562 C 79.851562 110.75 79.75 111.765625 79.75 112.859375 C 79.75 115.429688 80.210938 117.3125 81.125 118.539062 C 82.039062 119.734375 83.382812 120.335938 85.164062 120.335938 C 85.460938 120.335938 85.773438 120.320312 86.109375 120.304688 C 86.4375 120.273438 86.765625 120.234375 87.046875 120.1875 L 87.046875 112.390625 L 91.867188 112.390625 L 91.867188 123.0625 C 91.296875 123.25 90.398438 123.460938 89.171875 123.6875 C 87.960938 123.914062 86.507812 124.03125 84.773438 124.03125 C 83.25 124.03125 81.875 123.804688 80.648438 123.34375 C 79.4375 122.851562 78.414062 122.148438 77.546875 121.234375 C 76.695312 120.289062 76.023438 119.125 75.546875 117.734375 C 75.078125 116.328125 74.84375 114.710938 74.84375 112.859375 C 74.84375 111.046875 75.109375 109.445312 75.664062 108.070312 C 76.21875 106.664062 76.953125 105.484375 77.90625 104.539062 C 78.851562 103.59375 79.960938 102.890625 81.242188 102.429688 C 82.515625 101.9375 83.890625 101.710938 85.359375 101.710938 C 86.3125 101.710938 87.140625 101.773438 87.882812 101.90625 C 88.632812 102.023438 89.289062 102.164062 89.84375 102.328125 C 90.382812 102.492188 90.820312 102.65625 91.164062 102.835938 C 91.539062 103.03125 91.804688 103.164062 92 103.265625 L 90.742188 106.648438 C 90.171875 106.320312 89.445312 106.046875 88.617188 105.78125 C 87.78125 105.539062 86.914062 105.40625 86.03125 105.40625 "/>
</g>
</svg>
