<svg width="128" xmlns="http://www.w3.org/2000/svg" height="128" viewBox="0 0 128 128" xmlns:xlink="http://www.w3.org/1999/xlink">
<path style="fill:#edaf02" d="M 21.332031 2.667969 C 18.589844 2.667969 16 5.257812 16 8 L 16 120 C 16 122.589844 18.742188 125.332031 21.332031 125.332031 L 106.667969 125.332031 C 109.257812 125.332031 112 122.589844 112 120 L 112 8 C 112 5.257812 109.410156 2.667969 106.667969 2.667969 Z "/>
<path style="fill:#fff" d="M 40 85.332031 L 40 45.332031 L 88 45.332031 L 88 85.332031 L 61.332031 85.332031 L 61.332031 64 L 74.667969 64 L 74.667969 72 L 69.332031 72 L 69.332031 77.332031 L 80 77.332031 L 80 53.332031 L 48 53.332031 L 48 85.332031 Z "/>
<path style="fill:#000;fill-opacity:.196" d="M 16 93.332031 L 16 120 C 16 122.589844 18.742188 125.332031 21.332031 125.332031 L 106.667969 125.332031 C 109.257812 125.332031 112 122.589844 112 120 L 112 93.332031 Z "/>
<g style="fill:#fff">
<path d="M 42.027344 109.332031 C 42.027344 110.324219 42.066406 111.257812 42.140625 112.140625 C 42.242188 113 42.417969 113.746094 42.667969 114.386719 C 42.941406 115.023438 43.316406 115.53125 43.792969 115.90625 C 44.269531 116.28125 44.90625 116.464844 45.707031 116.464844 C 46.484375 116.464844 47.109375 116.28125 47.585938 115.90625 C 48.085938 115.53125 48.464844 115.023438 48.714844 114.386719 C 48.988281 113.726562 49.164062 112.964844 49.238281 112.105469 C 49.339844 111.25 49.390625 110.324219 49.390625 109.332031 C 49.390625 108.34375 49.339844 107.417969 49.238281 106.558594 C 49.164062 105.679688 48.988281 104.917969 48.714844 104.28125 C 48.464844 103.640625 48.101562 103.136719 47.625 102.761719 C 47.148438 102.386719 46.511719 102.199219 45.707031 102.199219 C 44.90625 102.199219 44.269531 102.386719 43.792969 102.761719 C 43.316406 103.136719 42.941406 103.652344 42.667969 104.3125 C 42.417969 104.953125 42.242188 105.699219 42.140625 106.558594 C 42.066406 107.417969 42.027344 108.34375 42.027344 109.332031 M 37.332031 109.332031 C 37.332031 105.8125 38.070312 103.15625 39.550781 101.375 C 41.027344 99.570312 43.078125 98.667969 45.707031 98.667969 C 48.4375 98.667969 50.515625 99.570312 51.945312 101.375 C 53.371094 103.15625 54.085938 105.8125 54.085938 109.332031 C 54.085938 112.855469 53.359375 115.519531 51.90625 117.324219 C 50.453125 119.109375 48.402344 120 45.746094 120 C 43.015625 120 40.925781 119.109375 39.472656 117.324219 C 38.046875 115.519531 37.332031 112.855469 37.332031 109.332031 "/>
<path d="M 72.9375 99.128906 L 72.9375 102.496094 L 66.816406 102.496094 L 66.816406 119.570312 L 62.160156 119.570312 L 62.160156 102.496094 L 56.039062 102.496094 L 56.039062 99.128906 L 72.9375 99.128906 "/>
<path d="M 75.90625 119.570312 L 75.90625 116.203125 L 80.976562 116.203125 L 80.976562 102.496094 L 75.90625 102.496094 L 75.90625 99.128906 L 90.667969 99.128906 L 90.667969 102.496094 L 85.632812 102.496094 L 85.632812 116.203125 L 90.667969 116.203125 L 90.667969 119.570312 L 75.90625 119.570312 "/>
</g>
</svg>
