
<svg xmlns="http://www.w3.org/2000/svg" xmlns:xlink="http://www.w3.org/1999/xlink" width="128px" height="128px" viewBox="0 0 128 128" version="1.1">
<g id="surface1">
<path style=" stroke:none;fill-rule:nonzero;fill:rgb(80.784314%,41.568627%,12.54902%);fill-opacity:1;" d="M 21.34375 0 C 18.59375 0 16 2.710938 16 5.578125 L 16 122.421875 C 16 125.132812 18.75 128 21.34375 128 L 106.65625 128 C 109.25 128 112 125.132812 112 122.421875 L 112 36 L 76 0 Z M 21.34375 0 "/>
<path style=" stroke:none;fill-rule:nonzero;fill:rgb(0%,0%,0%);fill-opacity:0.196078;" d="M 84 36 L 112 64 L 112 36 Z M 84 36 "/>
<path style=" stroke:none;fill-rule:nonzero;fill:rgb(100%,100%,100%);fill-opacity:0.392157;" d="M 76 0 L 111.96875 36 L 81.515625 36 C 78.820312 36 76 33.148438 76 30.453125 Z M 76 0 "/>
<path style=" stroke:none;fill-rule:nonzero;fill:rgb(100%,100%,100%);fill-opacity:1;" d="M 64 40 C 61.828125 40 60 41.25 59.171875 43.007812 C 57.515625 41.867188 55.21875 41.664062 53.328125 42.703125 C 51.46875 43.710938 50.484375 45.6875 50.671875 47.59375 C 48.65625 47.414062 46.578125 48.359375 45.5 50.132812 C 44.421875 51.90625 44.640625 54.09375 45.828125 55.65625 C 43.96875 56.445312 42.671875 58.1875 42.671875 60.242188 C 42.671875 62.304688 43.96875 64.03125 45.828125 64.828125 C 44.640625 66.398438 44.421875 68.570312 45.5 70.359375 C 46.578125 72.132812 48.65625 73.0625 50.671875 72.882812 C 50.484375 74.804688 51.46875 76.765625 53.328125 77.789062 C 54.171875 78.25 55.09375 78.429688 56 78.429688 L 56 100 L 64 92.40625 L 72 100 L 72 78.429688 C 72.90625 78.429688 73.828125 78.25 74.671875 77.789062 C 76.53125 76.765625 77.515625 74.804688 77.328125 72.882812 C 79.34375 73.0625 81.421875 72.132812 82.5 70.359375 C 83.578125 68.570312 83.359375 66.398438 82.171875 64.828125 C 84.03125 64.03125 85.328125 62.304688 85.328125 60.242188 C 85.328125 58.1875 84.03125 56.445312 82.171875 55.65625 C 83.359375 54.09375 83.578125 51.90625 82.5 50.132812 C 81.421875 48.359375 79.34375 47.414062 77.328125 47.59375 C 77.515625 45.6875 76.53125 43.710938 74.671875 42.703125 C 72.78125 41.664062 70.484375 41.867188 68.828125 43.007812 C 68 41.25 66.171875 40 64 40 Z M 64 47.507812 C 71.359375 47.507812 77.328125 53.179688 77.328125 60.164062 C 77.328125 67.148438 71.359375 72.804688 64 72.804688 C 56.640625 72.804688 50.671875 67.148438 50.671875 60.164062 C 50.671875 53.179688 56.640625 47.507812 64 47.507812 Z M 64 50.046875 C 58.109375 50.046875 53.328125 54.570312 53.328125 60.164062 C 53.328125 65.742188 58.109375 70.28125 64 70.28125 C 69.890625 70.28125 74.671875 65.742188 74.671875 60.164062 C 74.671875 54.570312 69.890625 50.046875 64 50.046875 Z M 64 50.046875 "/>
</g>
</svg>
