
<svg xmlns="http://www.w3.org/2000/svg" xmlns:xlink="http://www.w3.org/1999/xlink" width="128px" height="128px" viewBox="0 0 128 128" version="1.1">
<g id="surface1">
<path style=" stroke:none;fill-rule:nonzero;fill:rgb(40.392157%,54.509804%,72.156863%);fill-opacity:1;" d="M 21.34375 0 C 18.59375 0 16 2.710938 16 5.578125 L 16 122.421875 C 16 125.132812 18.75 128 21.34375 128 L 106.65625 128 C 109.25 128 112 125.132812 112 122.421875 L 112 36 L 76 0 Z M 21.34375 0 "/>
<path style=" stroke:none;fill-rule:nonzero;fill:rgb(0%,0%,0%);fill-opacity:0.196078;" d="M 84 36 L 112 64 L 112 36 Z M 84 36 "/>
<path style=" stroke:none;fill-rule:nonzero;fill:rgb(100%,100%,100%);fill-opacity:0.392157;" d="M 76 0 L 111.96875 36 L 81.515625 36 C 78.820312 36 76 33.148438 76 30.453125 Z M 76 0 "/>
<path style=" stroke:none;fill-rule:nonzero;fill:rgb(100%,100%,100%);fill-opacity:1;" d="M 51.585938 45.476562 C 42.390625 45.476562 30.8125 54.171875 30.921875 67.640625 C 31.015625 80.679688 35.351562 87.742188 38.671875 95.734375 L 48.507812 91.648438 C 46.25 87.054688 43.296875 82.507812 42.25 80.226562 C 39.328125 73.859375 38.335938 70.992188 38.585938 66.140625 C 38.8125 61.453125 40.375 58.585938 43.25 55.8125 C 46.117188 53.046875 50.101562 51.648438 54.835938 52.304688 C 61.671875 53.242188 65.273438 57.070312 67.007812 60.5625 C 67.984375 60.421875 68.984375 60.304688 70.09375 60.3125 C 70.953125 60.3125 71.820312 60.375 72.671875 60.5625 C 70.835938 53.304688 61.789062 45.476562 51.585938 45.476562 Z M 55.757812 58.140625 C 51.570312 57.867188 45.46875 59.90625 45.507812 66.3125 C 45.53125 72.367188 49.328125 76.90625 53.835938 78.726562 C 53.742188 77.203125 53.84375 75.515625 54.085938 73.8125 C 51.640625 72.484375 50.15625 70.117188 49.921875 66.8125 C 49.640625 63.140625 53.289062 59.429688 59.085938 61.3125 C 60.023438 61.609375 60.054688 59.992188 59.007812 59.140625 C 58.320312 58.601562 57.148438 58.234375 55.757812 58.140625 Z M 70.09375 62.976562 C 69.359375 62.976562 68.664062 63 68.007812 63.0625 C 68.179688 63.710938 68.304688 64.367188 68.34375 64.890625 C 68.765625 64.867188 69.226562 64.875 69.671875 64.890625 C 70.90625 64.953125 72.046875 65.148438 73.09375 65.476562 C 73.132812 64.789062 73.109375 64.132812 73.09375 63.476562 C 72.101562 63.164062 71.09375 62.984375 70.09375 62.976562 Z M 68.09375 67.476562 C 67.4375 70.296875 65.460938 73.757812 61.421875 74.726562 C 61.328125 75.3125 61.234375 75.859375 61.257812 76.226562 C 61.304688 77 61.46875 78.078125 61.921875 79.226562 C 68.835938 77.960938 71.804688 73.109375 72.757812 68.140625 C 71.835938 67.773438 70.78125 67.539062 69.507812 67.476562 C 69.015625 67.453125 68.523438 67.4375 68.09375 67.476562 Z M 56.671875 74.8125 C 56.53125 76.101562 56.429688 77.382812 56.507812 78.5625 C 56.523438 78.84375 56.539062 79.109375 56.585938 79.398438 C 57.101562 79.46875 57.578125 79.640625 58.085938 79.648438 C 58.523438 79.648438 58.929688 79.585938 59.335938 79.5625 C 58.929688 78.414062 58.648438 77.320312 58.585938 76.398438 C 58.5625 76 58.554688 75.53125 58.585938 75.0625 C 57.921875 75.03125 57.265625 74.929688 56.671875 74.8125 Z M 56.671875 74.8125 "/>
<path style=" stroke:none;fill-rule:nonzero;fill:rgb(66.27451%,75.686275%,89.019608%);fill-opacity:1;" d="M 89.53125 45.515625 C 92.859375 53.492188 97.265625 60.523438 97.359375 73.570312 C 97.460938 87.039062 85.828125 95.75 76.625 95.75 C 65.492188 95.75 55.695312 86.414062 55.179688 78.6875 C 54.710938 71.710938 57.210938 61.5625 70.125 61.632812 C 76.289062 61.671875 82.695312 66.992188 82.726562 74.914062 C 82.773438 83.460938 71.976562 84.304688 69.257812 82.125 C 68.210938 81.28125 68.242188 79.601562 69.164062 79.90625 C 74.976562 81.78125 78.5625 78.078125 78.296875 74.40625 C 77.9375 69.398438 74.953125 66.429688 69.601562 66.1875 C 61.882812 65.820312 59.726562 73.265625 59.921875 76.296875 C 60.164062 79.976562 63.390625 87.539062 73.4375 88.914062 C 78.179688 89.570312 82.117188 88.164062 84.976562 85.398438 C 87.84375 82.625 89.46875 79.765625 89.703125 75.078125 C 89.945312 70.234375 88.882812 67.390625 85.960938 61.023438 C 84.914062 58.742188 82 54.171875 79.734375 49.578125 L 89.539062 45.515625 M 89.53125 45.515625 "/>
</g>
</svg>
