<svg width="128" xmlns="http://www.w3.org/2000/svg" height="128" viewBox="0 0 128 128" xmlns:xlink="http://www.w3.org/1999/xlink">
<path style="fill:#c19553" d="M 21.332031 2.667969 C 18.589844 2.667969 16 5.257812 16 8 L 16 120 C 16 122.589844 18.742188 125.332031 21.332031 125.332031 L 106.667969 125.332031 C 109.257812 125.332031 112 122.589844 112 120 L 112 37.332031 L 77.332031 2.667969 Z "/>
<path style="fill:#000;fill-opacity:.196" d="M 77.332031 32 L 77.5 32.167969 L 77.917969 32 Z M 82.667969 37.332031 L 112 66.667969 L 112 37.332031 Z "/>
<path style="fill:#fff;fill-opacity:.392" d="M 77.332031 2.667969 L 112 37.332031 L 82.667969 37.332031 C 80.078125 37.332031 77.332031 34.589844 77.332031 32 Z "/>
<path style="fill:#000;fill-opacity:.196" d="M 16 93.332031 L 16 120 C 16 122.589844 18.742188 125.332031 21.332031 125.332031 L 106.667969 125.332031 C 109.257812 125.332031 112 122.589844 112 120 L 112 93.332031 Z "/>
<g style="fill:#fff">
<path d="M 48 2.667969 L 48 13.332031 L 58.667969 13.332031 L 58.667969 2.667969 Z M 48 13.332031 L 37.332031 13.332031 L 37.332031 24 L 48 24 Z M 48 24 L 48 34.667969 L 58.667969 34.667969 L 58.667969 24 Z M 48 34.667969 L 37.332031 34.667969 L 37.332031 45.332031 L 48 45.332031 Z M 48 45.332031 L 48 56 L 58.667969 56 L 58.667969 45.332031 Z M 37.332031 61.332031 L 37.332031 82.667969 L 58.667969 82.667969 L 58.667969 61.332031 Z "/>
<path d="M 53.726562 98.90625 L 53.726562 102.382812 L 47.789062 102.382812 L 47.789062 120 L 43.269531 120 L 43.269531 102.382812 L 37.332031 102.382812 L 37.332031 98.90625 L 53.726562 98.90625 "/>
<path d="M 67.714844 120 L 66.660156 115.125 L 60.648438 115.125 L 59.628906 120 L 54.964844 120 C 56.035156 115.84375 57.113281 112.058594 58.207031 108.652344 C 59.300781 105.222656 60.355469 101.972656 61.378906 98.90625 L 66.257812 98.90625 C 67.328125 101.996094 68.382812 105.277344 69.429688 108.753906 C 70.496094 112.207031 71.527344 115.957031 72.523438 120 L 67.714844 120 M 63.707031 102.996094 C 63.464844 103.789062 63.234375 104.550781 63.015625 105.277344 C 62.820312 105.980469 62.628906 106.6875 62.433594 107.390625 C 62.261719 108.070312 62.09375 108.765625 61.921875 109.46875 C 61.777344 110.171875 61.632812 110.902344 61.488281 111.648438 L 65.894531 111.648438 C 65.75 110.902344 65.601562 110.171875 65.457031 109.46875 C 65.3125 108.765625 65.140625 108.070312 64.945312 107.390625 C 64.777344 106.6875 64.582031 105.980469 64.363281 105.277344 C 64.171875 104.550781 63.953125 103.789062 63.707031 102.996094 "/>
<path d="M 80.648438 98.667969 C 81.9375 98.667969 83.101562 98.800781 84.144531 99.074219 C 85.191406 99.347656 86.089844 99.769531 86.839844 100.335938 C 87.59375 100.902344 88.164062 101.632812 88.554688 102.515625 C 88.964844 103.378906 89.171875 104.402344 89.171875 105.585938 C 89.171875 106.8125 88.90625 107.925781 88.371094 108.925781 C 87.835938 109.921875 86.949219 110.683594 85.710938 111.207031 C 86.125 111.796875 86.5625 112.457031 87.023438 113.183594 C 87.484375 113.886719 87.933594 114.636719 88.371094 115.433594 C 88.808594 116.207031 89.222656 116.988281 89.609375 117.785156 C 90.023438 118.558594 90.375 119.296875 90.667969 120 L 85.96875 120 C 85.410156 118.636719 84.753906 117.332031 84 116.082031 C 83.269531 114.808594 82.480469 113.523438 81.632812 112.230469 L 79.300781 112.230469 L 79.300781 120 L 74.820312 120 L 74.820312 99.210938 C 75.257812 99.121094 75.730469 99.042969 76.242188 98.972656 C 76.773438 98.882812 77.308594 98.824219 77.84375 98.800781 C 78.378906 98.757812 78.886719 98.722656 79.375 98.699219 C 79.859375 98.675781 80.285156 98.667969 80.648438 98.667969 M 84.621094 105.550781 C 84.621094 104.4375 84.253906 103.617188 83.527344 103.097656 C 82.796875 102.574219 81.839844 102.3125 80.648438 102.3125 C 80.476562 102.3125 80.273438 102.324219 80.027344 102.347656 C 79.785156 102.347656 79.542969 102.371094 79.300781 102.414062 L 79.300781 108.753906 L 80.285156 108.753906 C 81.8125 108.753906 82.917969 108.480469 83.597656 107.9375 C 84.28125 107.367188 84.621094 106.574219 84.621094 105.550781 "/>
</g>
</svg>
