<svg width="128" xmlns="http://www.w3.org/2000/svg" height="128" viewBox="0 0 128 128" xmlns:xlink="http://www.w3.org/1999/xlink">
<path style="fill:#c19553" d="M 21.332031 2.667969 C 18.589844 2.667969 16 5.257812 16 8 L 16 120 C 16 122.589844 18.742188 125.332031 21.332031 125.332031 L 106.667969 125.332031 C 109.257812 125.332031 112 122.589844 112 120 L 112 37.332031 L 77.332031 2.667969 Z "/>
<path style="fill:#000;fill-opacity:.196" d="M 77.332031 32 L 77.5 32.167969 L 77.917969 32 Z M 82.667969 37.332031 L 112 66.667969 L 112 37.332031 Z "/>
<path style="fill:#fff;fill-opacity:.392" d="M 77.332031 2.667969 L 112 37.332031 L 82.667969 37.332031 C 80.078125 37.332031 77.332031 34.589844 77.332031 32 Z "/>
<path style="fill:#000;fill-opacity:.196" d="M 16 93.332031 L 16 120 C 16 122.589844 18.742188 125.332031 21.332031 125.332031 L 106.667969 125.332031 C 109.257812 125.332031 112 122.589844 112 120 L 112 93.332031 Z "/>
<g style="fill:#fff">
<path d="M 48 2.667969 L 48 13.332031 L 58.667969 13.332031 L 58.667969 2.667969 Z M 48 13.332031 L 37.332031 13.332031 L 37.332031 24 L 48 24 Z M 48 24 L 48 34.667969 L 58.667969 34.667969 L 58.667969 24 Z M 48 34.667969 L 37.332031 34.667969 L 37.332031 45.332031 L 48 45.332031 Z M 48 45.332031 L 48 56 L 58.667969 56 L 58.667969 45.332031 Z M 37.332031 61.332031 L 37.332031 82.667969 L 58.667969 82.667969 L 58.667969 61.332031 Z "/>
<path d="M 47.28125 120 C 44.050781 120 41.585938 119.074219 39.886719 117.226562 C 38.183594 115.375 37.332031 112.746094 37.332031 109.332031 C 37.332031 107.636719 37.59375 106.128906 38.109375 104.808594 C 38.628906 103.488281 39.34375 102.375 40.253906 101.472656 C 41.191406 100.546875 42.289062 99.855469 43.546875 99.394531 C 44.828125 98.910156 46.222656 98.667969 47.726562 98.667969 C 48.539062 98.667969 49.265625 98.734375 49.910156 98.863281 C 50.574219 98.972656 51.152344 99.105469 51.648438 99.261719 C 52.140625 99.414062 52.546875 99.578125 52.867188 99.757812 C 53.210938 99.933594 53.472656 100.0625 53.644531 100.152344 L 52.460938 103.390625 C 51.894531 103.058594 51.203125 102.785156 50.390625 102.5625 C 49.601562 102.320312 48.6875 102.199219 47.652344 102.199219 C 46.9375 102.199219 46.234375 102.320312 45.542969 102.5625 C 44.878906 102.785156 44.273438 103.167969 43.730469 103.71875 C 43.214844 104.246094 42.78125 104.960938 42.4375 105.867188 C 42.117188 106.769531 41.957031 107.890625 41.957031 109.234375 C 41.957031 111.566406 42.402344 113.363281 43.289062 114.617188 C 44.199219 115.851562 45.679688 116.464844 47.726562 116.464844 C 48.910156 116.464844 49.882812 116.34375 50.648438 116.101562 C 51.4375 115.859375 52.066406 115.617188 52.535156 115.375 L 53.679688 118.578125 C 53.039062 118.933594 52.164062 119.261719 51.054688 119.570312 C 49.96875 119.855469 48.710938 120 47.28125 120 "/>
<path d="M 68.105469 119.570312 L 67.03125 114.847656 L 60.929688 114.847656 L 59.894531 119.570312 L 55.160156 119.570312 C 56.246094 115.542969 57.34375 111.875 58.453125 108.574219 C 59.5625 105.25 60.632812 102.101562 61.671875 99.128906 L 66.625 99.128906 C 67.710938 102.121094 68.785156 105.304688 69.84375 108.671875 C 70.929688 112.019531 71.976562 115.652344 72.988281 119.570312 L 68.105469 119.570312 M 64.039062 103.089844 C 63.789062 103.863281 63.554688 104.601562 63.335938 105.304688 C 63.136719 105.988281 62.941406 106.667969 62.742188 107.351562 C 62.570312 108.011719 62.398438 108.683594 62.226562 109.367188 C 62.078125 110.046875 61.929688 110.753906 61.78125 111.480469 L 66.257812 111.480469 C 66.109375 110.753906 65.960938 110.046875 65.8125 109.367188 C 65.664062 108.683594 65.492188 108.011719 65.292969 107.351562 C 65.121094 106.667969 64.925781 105.988281 64.703125 105.304688 C 64.503906 104.601562 64.285156 103.863281 64.039062 103.089844 "/>
<path d="M 90.667969 113.394531 C 90.667969 114.628906 90.433594 115.664062 89.964844 116.5 C 89.496094 117.3125 88.855469 117.972656 88.039062 118.480469 C 87.25 118.964844 86.300781 119.316406 85.191406 119.539062 C 84.109375 119.734375 82.9375 119.835938 81.679688 119.835938 C 80.667969 119.835938 79.621094 119.78125 78.535156 119.667969 C 77.449219 119.582031 76.378906 119.4375 75.316406 119.238281 L 75.316406 99.394531 C 76.179688 99.261719 77.128906 99.152344 78.164062 99.0625 C 79.203125 98.953125 80.222656 98.898438 81.234375 98.898438 C 82.960938 98.898438 84.367188 99.0625 85.453125 99.394531 C 86.535156 99.699219 87.386719 100.121094 88.003906 100.648438 C 88.621094 101.152344 89.039062 101.726562 89.261719 102.363281 C 89.484375 103.003906 89.59375 103.640625 89.59375 104.28125 C 89.59375 105.25 89.324219 106.109375 88.78125 106.855469 C 88.261719 107.605469 87.558594 108.199219 86.671875 108.640625 C 88.226562 109.144531 89.273438 109.828125 89.816406 110.6875 C 90.382812 111.546875 90.667969 112.449219 90.667969 113.394531 M 79.867188 110.621094 L 79.867188 116.167969 C 80.1875 116.214844 80.53125 116.246094 80.902344 116.269531 C 81.296875 116.289062 81.679688 116.300781 82.050781 116.300781 C 82.566406 116.300781 83.074219 116.269531 83.566406 116.203125 C 84.058594 116.113281 84.492188 115.972656 84.859375 115.773438 C 85.253906 115.550781 85.574219 115.253906 85.820312 114.882812 C 86.066406 114.484375 86.191406 113.988281 86.191406 113.394531 C 86.191406 112.402344 85.835938 111.699219 85.117188 111.28125 C 84.429688 110.839844 83.492188 110.621094 82.308594 110.621094 L 79.867188 110.621094 M 81.640625 107.253906 C 82.800781 107.253906 83.675781 107.03125 84.269531 106.59375 C 84.859375 106.128906 85.15625 105.503906 85.15625 104.710938 C 85.15625 104.226562 85.070312 103.839844 84.898438 103.554688 C 84.722656 103.246094 84.492188 103.015625 84.195312 102.859375 C 83.898438 102.683594 83.554688 102.574219 83.160156 102.53125 C 82.765625 102.464844 82.355469 102.429688 81.9375 102.429688 C 81.59375 102.429688 81.234375 102.441406 80.867188 102.464844 C 80.496094 102.484375 80.164062 102.519531 79.867188 102.5625 L 79.867188 107.253906 L 81.640625 107.253906 "/>
</g>
</svg>
