<svg width="128" xmlns="http://www.w3.org/2000/svg" height="128" viewBox="0 0 128 128" xmlns:xlink="http://www.w3.org/1999/xlink">
<path style="fill:#a33639" d="M 21.332031 2.667969 C 18.589844 2.667969 16 5.257812 16 8 L 16 120 C 16 122.589844 18.742188 125.332031 21.332031 125.332031 L 106.667969 125.332031 C 109.257812 125.332031 112 122.589844 112 120 L 112 37.332031 L 77.332031 2.667969 Z "/>
<path style="fill:#000;fill-opacity:.196" d="M 77.332031 32 L 77.5 32.167969 L 77.917969 32 Z M 82.667969 37.332031 L 112 66.667969 L 112 37.332031 Z "/>
<path style="fill:#fff;fill-opacity:.392" d="M 77.332031 2.667969 L 112 37.332031 L 82.667969 37.332031 C 80.078125 37.332031 77.332031 34.589844 77.332031 32 Z "/>
<g style="fill:#fff">
<path d="M 64 42.667969 C 52.21875 42.667969 42.667969 45.652344 42.667969 49.332031 L 42.667969 54.667969 C 42.667969 58.347656 52.21875 61.332031 64 61.332031 C 75.78125 61.332031 85.332031 58.347656 85.332031 54.667969 L 85.332031 49.332031 C 85.332031 45.652344 75.78125 42.667969 64 42.667969 Z "/>
<path d="M 63.933594 64 C 54.378906 64 46.328125 62.039062 43.609375 59.332031 C 42.976562 59.964844 42.667969 60.636719 42.667969 61.332031 L 42.667969 66.667969 C 42.667969 70.347656 52.21875 73.332031 64 73.332031 C 75.78125 73.332031 85.332031 70.347656 85.332031 66.667969 L 85.332031 61.332031 C 85.332031 60.636719 84.957031 59.964844 84.320312 59.332031 C 81.601562 62.039062 73.484375 64 63.933594 64 Z "/>
<path d="M 63.933594 76 C 54.378906 76 46.328125 74.039062 43.609375 71.332031 C 42.976562 71.964844 42.667969 72.636719 42.667969 73.332031 L 42.667969 78.667969 C 42.667969 82.347656 52.21875 85.332031 64 85.332031 C 75.78125 85.332031 85.332031 82.347656 85.332031 78.667969 L 85.332031 73.332031 C 85.332031 72.636719 84.957031 71.964844 84.320312 71.332031 C 81.601562 74.039062 73.484375 76 63.933594 76 Z "/>
</g>
<path style="fill:#000;fill-opacity:.196" d="M 16 93.332031 L 16 120 C 16 122.589844 18.742188 125.332031 21.332031 125.332031 L 106.667969 125.332031 C 109.257812 125.332031 112 122.589844 112 120 L 112 93.332031 Z "/>
<g style="fill:#fff">
<path d="M 41.105469 119.570312 L 40.351562 114.847656 L 36.058594 114.847656 L 35.328125 119.570312 L 32 119.570312 C 32.761719 115.542969 33.535156 111.875 34.316406 108.574219 C 35.097656 105.25 35.851562 102.101562 36.578125 99.128906 L 40.066406 99.128906 C 40.828125 102.121094 41.582031 105.304688 42.328125 108.671875 C 43.089844 112.019531 43.828125 115.652344 44.539062 119.570312 L 41.105469 119.570312 M 38.242188 103.089844 C 38.070312 103.863281 37.90625 104.597656 37.75 105.304688 C 37.609375 105.988281 37.472656 106.667969 37.332031 107.351562 C 37.210938 108.011719 37.089844 108.683594 36.96875 109.367188 C 36.863281 110.046875 36.761719 110.753906 36.65625 111.480469 L 39.804688 111.480469 C 39.699219 110.753906 39.597656 110.046875 39.492188 109.367188 C 39.386719 108.683594 39.265625 108.011719 39.128906 107.351562 C 39.007812 106.667969 38.867188 105.988281 38.710938 105.304688 C 38.574219 104.597656 38.417969 103.863281 38.242188 103.089844 "/>
<path d="M 52.476562 120 C 50.203125 120 48.46875 119.074219 47.269531 117.226562 C 46.074219 115.375 45.476562 112.746094 45.476562 109.332031 C 45.476562 107.636719 45.660156 106.128906 46.023438 104.808594 C 46.386719 103.488281 46.890625 102.375 47.53125 101.472656 C 48.191406 100.546875 48.960938 99.855469 49.847656 99.394531 C 50.75 98.910156 51.730469 98.667969 52.785156 98.667969 C 53.359375 98.667969 53.871094 98.730469 54.320312 98.863281 C 54.789062 98.972656 55.199219 99.105469 55.542969 99.261719 C 55.890625 99.414062 56.175781 99.578125 56.402344 99.757812 C 56.644531 99.933594 56.828125 100.0625 56.949219 100.152344 L 56.117188 103.390625 C 55.71875 103.058594 55.230469 102.785156 54.660156 102.5625 C 54.105469 102.320312 53.464844 102.199219 52.734375 102.199219 C 52.230469 102.199219 51.738281 102.320312 51.25 102.5625 C 50.785156 102.785156 50.359375 103.167969 49.976562 103.71875 C 49.613281 104.246094 49.308594 104.960938 49.066406 105.867188 C 48.839844 106.769531 48.726562 107.890625 48.726562 109.234375 C 48.726562 111.566406 49.039062 113.363281 49.664062 114.617188 C 50.308594 115.847656 51.347656 116.464844 52.785156 116.464844 C 53.621094 116.464844 54.304688 116.34375 54.84375 116.101562 C 55.398438 115.859375 55.839844 115.617188 56.167969 115.375 L 56.976562 118.578125 C 56.523438 118.933594 55.910156 119.261719 55.128906 119.570312 C 54.363281 119.855469 53.480469 120 52.476562 120 "/>
<path d="M 65.484375 120 C 63.210938 120 61.476562 119.074219 60.28125 117.226562 C 59.082031 115.375 58.484375 112.746094 58.484375 109.332031 C 58.484375 107.636719 58.667969 106.128906 59.03125 104.808594 C 59.394531 103.488281 59.898438 102.375 60.539062 101.472656 C 61.199219 100.546875 61.96875 99.855469 62.855469 99.394531 C 63.757812 98.910156 64.738281 98.667969 65.796875 98.667969 C 66.367188 98.667969 66.878906 98.730469 67.328125 98.863281 C 67.796875 98.972656 68.207031 99.105469 68.550781 99.261719 C 68.898438 99.414062 69.1875 99.578125 69.410156 99.757812 C 69.652344 99.933594 69.835938 100.0625 69.957031 100.152344 L 69.125 103.390625 C 68.726562 103.058594 68.242188 102.785156 67.667969 102.5625 C 67.113281 102.320312 66.472656 102.199219 65.742188 102.199219 C 65.238281 102.199219 64.746094 102.320312 64.261719 102.5625 C 63.792969 102.785156 63.367188 103.167969 62.984375 103.71875 C 62.621094 104.246094 62.316406 104.960938 62.074219 105.867188 C 61.847656 106.769531 61.738281 107.890625 61.738281 109.234375 C 61.738281 111.566406 62.046875 113.363281 62.671875 114.617188 C 63.316406 115.847656 64.355469 116.464844 65.796875 116.464844 C 66.628906 116.464844 67.3125 116.34375 67.851562 116.101562 C 68.40625 115.859375 68.847656 115.617188 69.175781 115.375 L 69.984375 118.578125 C 69.53125 118.933594 68.917969 119.261719 68.136719 119.570312 C 67.375 119.855469 66.488281 120 65.484375 120 "/>
<path d="M 75.394531 116.269531 C 75.480469 116.289062 75.578125 116.300781 75.679688 116.300781 C 75.785156 116.300781 75.878906 116.300781 75.96875 116.300781 C 76.695312 116.300781 77.304688 116.125 77.789062 115.773438 C 78.292969 115.421875 78.691406 114.9375 78.984375 114.320312 C 79.296875 113.703125 79.515625 112.976562 79.636719 112.140625 C 79.773438 111.28125 79.84375 110.34375 79.84375 109.332031 C 79.84375 108.453125 79.792969 107.59375 79.6875 106.757812 C 79.582031 105.921875 79.402344 105.183594 79.140625 104.542969 C 78.882812 103.90625 78.527344 103.398438 78.074219 103.027344 C 77.625 102.628906 77.042969 102.429688 76.332031 102.429688 C 76.191406 102.429688 76.035156 102.441406 75.863281 102.464844 C 75.691406 102.464844 75.535156 102.484375 75.394531 102.53125 L 75.394531 116.269531 M 83.097656 109.332031 C 83.097656 111.226562 82.90625 112.84375 82.523438 114.1875 C 82.160156 115.507812 81.648438 116.585938 80.988281 117.421875 C 80.328125 118.261719 79.539062 118.875 78.621094 119.273438 C 77.71875 119.648438 76.722656 119.835938 75.628906 119.835938 C 75.058594 119.835938 74.492188 119.789062 73.9375 119.703125 C 73.398438 119.636719 72.820312 119.515625 72.195312 119.339844 L 72.195312 99.394531 C 72.921875 99.195312 73.609375 99.0625 74.25 98.996094 C 74.890625 98.929688 75.492188 98.898438 76.046875 98.898438 C 77.101562 98.898438 78.066406 99.09375 78.933594 99.492188 C 79.816406 99.886719 80.5625 100.515625 81.171875 101.375 C 81.777344 102.210938 82.246094 103.289062 82.574219 104.609375 C 82.921875 105.910156 83.097656 107.484375 83.097656 109.332031 "/>
<path d="M 96 113.394531 C 96 114.628906 95.835938 115.664062 95.503906 116.5 C 95.175781 117.3125 94.726562 117.972656 94.152344 118.480469 C 93.597656 118.964844 92.929688 119.316406 92.148438 119.539062 C 91.386719 119.734375 90.5625 119.835938 89.679688 119.835938 C 88.964844 119.835938 88.230469 119.78125 87.464844 119.667969 C 86.703125 119.582031 85.949219 119.4375 85.203125 119.238281 L 85.203125 99.394531 C 85.808594 99.261719 86.476562 99.152344 87.207031 99.0625 C 87.933594 98.953125 88.65625 98.898438 89.367188 98.898438 C 90.578125 98.898438 91.566406 99.0625 92.332031 99.394531 C 93.09375 99.699219 93.691406 100.121094 94.125 100.648438 C 94.558594 101.152344 94.855469 101.726562 95.011719 102.363281 C 95.167969 103.003906 95.246094 103.640625 95.246094 104.28125 C 95.246094 105.25 95.054688 106.109375 94.671875 106.855469 C 94.308594 107.605469 93.8125 108.199219 93.191406 108.640625 C 94.28125 109.144531 95.019531 109.828125 95.402344 110.6875 C 95.800781 111.546875 96 112.449219 96 113.394531 M 88.402344 110.621094 L 88.402344 116.167969 C 88.628906 116.210938 88.871094 116.246094 89.132812 116.269531 C 89.410156 116.289062 89.679688 116.300781 89.9375 116.300781 C 90.300781 116.300781 90.65625 116.269531 91.003906 116.203125 C 91.351562 116.113281 91.65625 115.972656 91.914062 115.773438 C 92.191406 115.550781 92.417969 115.253906 92.589844 114.882812 C 92.765625 114.484375 92.851562 113.988281 92.851562 113.394531 C 92.851562 112.402344 92.601562 111.699219 92.097656 111.28125 C 91.613281 110.839844 90.953125 110.621094 90.121094 110.621094 L 88.402344 110.621094 M 89.652344 107.253906 C 90.46875 107.253906 91.082031 107.03125 91.5 106.59375 C 91.914062 106.128906 92.125 105.503906 92.125 104.710938 C 92.125 104.226562 92.0625 103.839844 91.941406 103.554688 C 91.820312 103.246094 91.65625 103.015625 91.445312 102.859375 C 91.238281 102.683594 90.996094 102.574219 90.71875 102.53125 C 90.441406 102.464844 90.15625 102.429688 89.859375 102.429688 C 89.617188 102.429688 89.367188 102.441406 89.105469 102.464844 C 88.84375 102.484375 88.609375 102.519531 88.402344 102.5625 L 88.402344 107.253906 L 89.652344 107.253906 "/>
</g>
</svg>
