
<svg xmlns="http://www.w3.org/2000/svg" xmlns:xlink="http://www.w3.org/1999/xlink" width="128px" height="128px" viewBox="0 0 128 128" version="1.1">
<g id="surface1">
<path style=" stroke:none;fill-rule:nonzero;fill:rgb(81.960784%,27.45098%,14.901961%);fill-opacity:1;" d="M 21.375 0 C 18.625 0 16 2.757812 16 5.625 L 16 122.375 C 16 125.078125 18.78125 128 21.375 128 L 106.625 128 C 109.21875 128 112 125.078125 112 122.375 L 112 5.5 C 112 2.804688 109.195312 0 106.5 0 Z M 21.375 0 "/>
<path style=" stroke:none;fill-rule:nonzero;fill:rgb(100%,100%,100%);fill-opacity:1;" d="M 32 44 L 52 44 L 52 56 L 32 56 Z M 32 44 "/>
<path style=" stroke:none;fill-rule:nonzero;fill:rgb(100%,100%,100%);fill-opacity:1;" d="M 32 64 L 52 64 L 52 76 L 32 76 Z M 32 64 "/>
<path style=" stroke:none;fill-rule:nonzero;fill:rgb(100%,100%,100%);fill-opacity:1;" d="M 32 84 L 96 84 L 96 88 L 32 88 Z M 32 84 "/>
<path style=" stroke:none;fill-rule:nonzero;fill:rgb(100%,100%,100%);fill-opacity:1;" d="M 80 39.96875 L 80 56 L 96 56 C 96 47.140625 88.835938 39.96875 80 39.96875 Z M 80 39.96875 "/>
<path style=" stroke:none;fill-rule:nonzero;fill:rgb(100%,100%,100%);fill-opacity:1;" d="M 76.007812 44 C 67.171875 44 60 51.15625 60 60 C 60 68.84375 67.171875 76 76.007812 76 C 84.84375 76 92 68.84375 92 60 L 76.007812 60 Z M 76.007812 44 "/>
</g>
</svg>
