
<svg xmlns="http://www.w3.org/2000/svg" xmlns:xlink="http://www.w3.org/1999/xlink" width="128px" height="128px" viewBox="0 0 128 128" version="1.1">
<g id="surface1">
<path style=" stroke:none;fill-rule:nonzero;fill:rgb(35.294118%,40.784314%,64.313725%);fill-opacity:1;" d="M 21.34375 0 C 18.59375 0 16 2.710938 16 5.578125 L 16 122.421875 C 16 125.132812 18.75 128 21.34375 128 L 106.65625 128 C 109.25 128 112 125.132812 112 122.421875 L 112 36 L 76 0 Z M 21.34375 0 "/>
<path style=" stroke:none;fill-rule:nonzero;fill:rgb(0%,0%,0%);fill-opacity:0.196078;" d="M 84 36 L 112 64 L 112 36 Z M 84 36 "/>
<path style=" stroke:none;fill-rule:nonzero;fill:rgb(100%,100%,100%);fill-opacity:0.392157;" d="M 76 0 L 111.96875 36 L 81.515625 36 C 78.820312 36 76 33.148438 76 30.453125 Z M 76 0 "/>
<path style=" stroke:none;fill-rule:evenodd;fill:rgb(100%,100%,100%);fill-opacity:1;" d="M 96 74 C 96 86.15625 81.671875 96 64 96 C 46.328125 96 32 86.15625 32 74 C 32 61.84375 46.328125 52 64 52 C 81.671875 52 96 61.84375 96 74 Z M 96 74 "/>
<path style=" stroke:none;fill-rule:nonzero;fill:rgb(35.294118%,40.784314%,64.313725%);fill-opacity:1;" d="M 55.015625 65.84375 C 56.375 65.84375 57.453125 66.328125 58.25 67.296875 C 59.03125 68.265625 59.4375 69.601562 59.4375 71.328125 C 59.4375 73.03125 59.109375 74.695312 58.46875 76.273438 C 57.828125 77.851562 56.953125 79.09375 55.84375 80.03125 C 54.734375 80.945312 53.515625 81.414062 52.171875 81.414062 C 51.390625 81.414062 50.734375 81.25 50.171875 80.914062 C 49.609375 80.59375 49.09375 80.03125 48.609375 79.21875 L 48.5 79.21875 C 48.390625 80.65625 48.1875 81.960938 47.890625 83.1875 L 46.890625 87.75 L 42.671875 87.75 L 47.46875 66.132812 L 50.6875 66.132812 L 50.453125 68.40625 L 50.578125 68.40625 C 51.859375 66.695312 53.34375 65.84375 55.015625 65.84375 M 53.328125 69.132812 C 52.6875 69.132812 52.0625 69.421875 51.46875 70.039062 C 50.875 70.632812 50.40625 71.4375 50.046875 72.453125 C 49.6875 73.453125 49.515625 74.5625 49.515625 75.789062 C 49.515625 76.5 49.6875 77.078125 50.03125 77.515625 C 50.375 77.929688 50.84375 78.15625 51.453125 78.15625 C 52.078125 78.15625 52.6875 77.835938 53.25 77.226562 C 53.828125 76.609375 54.28125 75.757812 54.625 74.695312 C 54.984375 73.59375 55.15625 72.53125 55.15625 71.484375 C 55.15625 69.90625 54.546875 69.132812 53.328125 69.132812 "/>
<path style=" stroke:none;fill-rule:nonzero;fill:rgb(35.294118%,40.784314%,64.313725%);fill-opacity:1;" d="M 70.15625 81.140625 L 65.9375 81.140625 L 67.859375 72.375 C 68 71.757812 68.078125 71.226562 68.078125 70.773438 C 68.078125 69.679688 67.578125 69.132812 66.5625 69.132812 C 65.703125 69.132812 64.921875 69.632812 64.21875 70.664062 C 63.515625 71.679688 62.96875 73.09375 62.5625 74.9375 L 61.203125 81.140625 L 56.96875 81.140625 L 61.609375 60.25 L 65.828125 60.25 C 65.453125 61.867188 65.171875 63.101562 64.984375 63.976562 C 64.78125 64.84375 64.390625 66.234375 63.78125 68.132812 L 63.890625 68.132812 C 64.46875 67.4375 65.109375 66.890625 65.828125 66.476562 C 66.53125 66.054688 67.359375 65.84375 68.296875 65.84375 C 69.578125 65.84375 70.578125 66.234375 71.28125 66.976562 C 71.984375 67.710938 72.34375 68.78125 72.34375 70.179688 C 72.34375 70.828125 72.234375 71.632812 72.015625 72.601562 L 70.15625 81.140625 "/>
<path style=" stroke:none;fill-rule:nonzero;fill:rgb(35.294118%,40.784314%,64.313725%);fill-opacity:1;" d="M 80.921875 65.84375 C 82.28125 65.84375 83.359375 66.328125 84.140625 67.296875 C 84.9375 68.265625 85.328125 69.601562 85.328125 71.328125 C 85.328125 73.03125 85.015625 74.695312 84.359375 76.273438 C 83.734375 77.851562 82.859375 79.09375 81.75 80.03125 C 80.625 80.945312 79.40625 81.414062 78.078125 81.414062 C 77.296875 81.414062 76.625 81.25 76.0625 80.914062 C 75.5 80.59375 74.984375 80.03125 74.515625 79.21875 L 74.390625 79.21875 C 74.28125 80.65625 74.078125 81.960938 73.796875 83.1875 L 72.78125 87.75 L 68.5625 87.75 L 73.359375 66.132812 L 76.578125 66.132812 L 76.34375 68.40625 L 76.46875 68.40625 C 77.765625 66.695312 79.25 65.84375 80.921875 65.84375 M 79.21875 69.132812 C 78.578125 69.132812 77.96875 69.421875 77.375 70.039062 C 76.78125 70.632812 76.296875 71.4375 75.9375 72.453125 C 75.578125 73.453125 75.40625 74.5625 75.40625 75.789062 C 75.40625 76.5 75.578125 77.078125 75.921875 77.515625 C 76.265625 77.929688 76.75 78.15625 77.359375 78.15625 C 77.984375 78.15625 78.578125 77.835938 79.15625 77.226562 C 79.71875 76.609375 80.171875 75.757812 80.53125 74.695312 C 80.875 73.59375 81.0625 72.53125 81.0625 71.484375 C 81.0625 69.90625 80.4375 69.132812 79.21875 69.132812 "/>
</g>
</svg>
