<svg width="128" xmlns="http://www.w3.org/2000/svg" height="128" viewBox="0 0 128 128" xmlns:xlink="http://www.w3.org/1999/xlink">
<path style="fill:#c19553" d="M 21.332031 2.667969 C 18.589844 2.667969 16 5.257812 16 8 L 16 120 C 16 122.589844 18.742188 125.332031 21.332031 125.332031 L 106.667969 125.332031 C 109.257812 125.332031 112 122.589844 112 120 L 112 37.332031 L 77.332031 2.667969 Z "/>
<path style="fill:#000;fill-opacity:.196" d="M 77.332031 32 L 77.5 32.167969 L 77.917969 32 Z M 82.667969 37.332031 L 112 66.667969 L 112 37.332031 Z "/>
<path style="fill:#fff;fill-opacity:.392" d="M 77.332031 2.667969 L 112 37.332031 L 82.667969 37.332031 C 80.078125 37.332031 77.332031 34.589844 77.332031 32 Z "/>
<path style="fill:#000;fill-opacity:.196" d="M 16 93.332031 L 16 120 C 16 122.589844 18.742188 125.332031 21.332031 125.332031 L 106.667969 125.332031 C 109.257812 125.332031 112 122.589844 112 120 L 112 93.332031 Z "/>
<g style="fill:#fff">
<path d="M 48 2.667969 L 48 13.332031 L 58.667969 13.332031 L 58.667969 2.667969 Z M 48 13.332031 L 37.332031 13.332031 L 37.332031 24 L 48 24 Z M 48 24 L 48 34.667969 L 58.667969 34.667969 L 58.667969 24 Z M 48 34.667969 L 37.332031 34.667969 L 37.332031 45.332031 L 48 45.332031 Z M 48 45.332031 L 48 56 L 58.667969 56 L 58.667969 45.332031 Z M 37.332031 61.332031 L 37.332031 82.667969 L 58.667969 82.667969 L 58.667969 61.332031 Z "/>
<path d="M 41.378906 102.199219 C 40.414062 102.199219 39.601562 102.375 38.941406 102.726562 C 38.285156 103.082031 37.738281 103.574219 37.296875 104.214844 C 36.882812 104.832031 36.574219 105.578125 36.375 106.460938 C 36.199219 107.320312 36.113281 108.277344 36.113281 109.332031 C 36.113281 111.777344 36.496094 113.582031 37.265625 114.75 C 38.03125 115.894531 39.164062 116.464844 40.652344 116.464844 C 40.894531 116.464844 41.160156 116.453125 41.445312 116.433594 C 41.730469 116.410156 41.992188 116.378906 42.234375 116.332031 L 42.234375 108.871094 L 46.28125 108.871094 L 46.28125 119.074219 C 45.796875 119.25 45.042969 119.449219 44.011719 119.667969 C 43 119.890625 41.773438 120 40.324219 120 C 39.050781 120 37.902344 119.78125 36.871094 119.339844 C 35.859375 118.875 34.996094 118.207031 34.269531 117.324219 C 33.546875 116.421875 32.988281 115.308594 32.59375 113.988281 C 32.199219 112.644531 32 111.09375 32 109.332031 C 32 107.59375 32.230469 106.0625 32.691406 104.742188 C 33.152344 103.398438 33.777344 102.277344 34.566406 101.375 C 35.355469 100.472656 36.289062 99.800781 37.363281 99.359375 C 38.4375 98.898438 39.589844 98.667969 40.820312 98.667969 C 41.609375 98.667969 42.308594 98.730469 42.925781 98.863281 C 43.5625 98.972656 44.109375 99.105469 44.570312 99.261719 C 45.03125 99.414062 45.402344 99.578125 45.6875 99.757812 C 45.996094 99.933594 46.226562 100.0625 46.378906 100.152344 L 45.328125 103.386719 C 44.84375 103.082031 44.25 102.804688 43.550781 102.5625 C 42.847656 102.320312 42.125 102.199219 41.378906 102.199219 "/>
<path d="M 62.207031 101.96875 C 61.261719 103.421875 60.398438 104.785156 59.605469 106.0625 C 58.816406 107.339844 58.082031 108.5625 57.402344 109.730469 C 56.722656 110.875 56.074219 111.984375 55.460938 113.066406 C 54.867188 114.121094 54.296875 115.167969 53.75 116.203125 L 62.503906 116.203125 L 62.503906 119.570312 L 49.078125 119.570312 L 49.078125 117.226562 C 49.558594 116.277344 50.074219 115.289062 50.625 114.253906 C 51.171875 113.195312 51.785156 112.074219 52.46875 110.886719 C 53.148438 109.695312 53.882812 108.410156 54.671875 107.019531 C 55.484375 105.632812 56.371094 104.125 57.335938 102.496094 L 49.503906 102.496094 L 49.503906 99.128906 L 62.207031 99.128906 L 62.207031 101.96875 "/>
<path d="M 65.792969 119.570312 L 65.792969 116.203125 L 70.234375 116.203125 L 70.234375 102.496094 L 65.792969 102.496094 L 65.792969 99.128906 L 78.726562 99.128906 L 78.726562 102.496094 L 74.316406 102.496094 L 74.316406 116.203125 L 78.726562 116.203125 L 78.726562 119.570312 L 65.792969 119.570312 "/>
<path d="M 87.839844 98.898438 C 90.429688 98.898438 92.433594 99.4375 93.859375 100.515625 C 95.289062 101.574219 96 103.3125 96 105.734375 C 96 108.175781 95.277344 109.949219 93.828125 111.050781 C 92.402344 112.128906 90.375 112.667969 87.742188 112.667969 L 86.292969 112.667969 L 86.292969 119.570312 L 82.246094 119.570312 L 82.246094 99.394531 C 82.640625 99.304688 83.078125 99.226562 83.5625 99.160156 C 84.066406 99.09375 84.570312 99.050781 85.074219 99.03125 C 85.582031 98.984375 86.074219 98.953125 86.554688 98.929688 C 87.039062 98.910156 87.464844 98.898438 87.839844 98.898438 M 88.300781 102.429688 C 88.058594 102.429688 87.71875 102.441406 87.28125 102.464844 C 86.863281 102.464844 86.535156 102.484375 86.292969 102.53125 L 86.292969 109.132812 L 87.9375 109.132812 C 89.234375 109.132812 90.207031 108.882812 90.867188 108.375 C 91.523438 107.847656 91.855469 106.957031 91.855469 105.699219 C 91.855469 104.511719 91.523438 103.675781 90.867188 103.191406 C 90.230469 102.683594 89.375 102.429688 88.300781 102.429688 "/>
</g>
</svg>
