<?xml version="1.0" encoding="UTF-8" standalone="no"?>
<svg
   xmlns:dc="http://purl.org/dc/elements/1.1/"
   xmlns:cc="http://creativecommons.org/ns#"
   xmlns:rdf="http://www.w3.org/1999/02/22-rdf-syntax-ns#"
   xmlns:svg="http://www.w3.org/2000/svg"
   xmlns="http://www.w3.org/2000/svg"
   xmlns:sodipodi="http://sodipodi.sourceforge.net/DTD/sodipodi-0.dtd"
   xmlns:inkscape="http://www.inkscape.org/namespaces/inkscape"
   width="128"
   height="128"
   viewBox="0 0 128 128"
   version="1.1"
   id="svg39"
   inkscape:version="0.91 r13725"
   sodipodi:docname="application-vnd.openxmlformats-officedocument.wordprocessingml.template.svg">
  <metadata
     id="metadata70">
    <rdf:RDF>
      <cc:Work
         rdf:about="">
        <dc:format>image/svg+xml</dc:format>
        <dc:type
           rdf:resource="http://purl.org/dc/dcmitype/StillImage" />
        <dc:title></dc:title>
      </cc:Work>
    </rdf:RDF>
  </metadata>
  <defs
     id="defs68" />
  <sodipodi:namedview
     pagecolor="#ffffff"
     bordercolor="#666666"
     borderopacity="1"
     objecttolerance="10"
     gridtolerance="10"
     guidetolerance="10"
     inkscape:pageopacity="0"
     inkscape:pageshadow="2"
     inkscape:window-width="1280"
     inkscape:window-height="998"
     id="namedview66"
     showgrid="true"
     inkscape:zoom="3.6875001"
     inkscape:cx="90.795155"
     inkscape:cy="81.825602"
     inkscape:window-x="0"
     inkscape:window-y="0"
     inkscape:window-maximized="1"
     inkscape:current-layer="svg39">
    <inkscape:grid
       type="xygrid"
       id="grid3432" />
  </sodipodi:namedview>
  <path
     inkscape:connector-curvature="0"
     id="path42"
     d="M 21.375,0 C 18.625,0 16,2.757812 16,5.625 l 0,116.75 c 0,2.70312 2.78125,5.625 5.375,5.625 l 85.25,0 c 2.59375,0 5.375,-2.92188 5.375,-5.625 L 112,5.5 C 112,2.804688 109.19531,0 106.5,0 Z m 0,0"
     style="fill:#3366cc;fill-opacity:1;fill-rule:nonzero;stroke:none" />
  <path
     inkscape:connector-curvature="0"
     id="path44"
     d="m 40,40 24,0 0,20 -24,0 z m 0,0"
     style="fill:#f8f8f8;fill-opacity:1;fill-rule:evenodd;stroke:none" />
  <path
     inkscape:connector-curvature="0"
     id="path46"
     d="m 68,40 20,0 0,4 -20,0 z m 0,0"
     style="fill:#f8f8f8;fill-opacity:1;fill-rule:evenodd;stroke:none" />
  <path
     inkscape:connector-curvature="0"
     id="path48"
     d="m 68,48 20,0 0,4 -20,0 z m 0,0"
     style="fill:#f8f8f8;fill-opacity:1;fill-rule:evenodd;stroke:none" />
  <path
     inkscape:connector-curvature="0"
     id="path50"
     d="m 68,56 20,0 0,4 -20,0 z m 0,0"
     style="fill:#f8f8f8;fill-opacity:1;fill-rule:evenodd;stroke:none" />
  <path
     inkscape:connector-curvature="0"
     id="path52"
     d="m 40,64 48,0 0,4 -48,0 z m 0,0"
     style="fill:#f8f8f8;fill-opacity:1;fill-rule:evenodd;stroke:none" />
  <path
     inkscape:connector-curvature="0"
     id="path54"
     d="m 40,72 48,0 0,4 -48,0 z m 0,0"
     style="fill:#f8f8f8;fill-opacity:1;fill-rule:evenodd;stroke:none" />
  <path
     inkscape:connector-curvature="0"
     id="path56"
     d="m 40,80 48,0 0,4 -48,0 z m 0,0"
     style="fill:#f8f8f8;fill-opacity:1;fill-rule:evenodd;stroke:none" />
  <path
     inkscape:connector-curvature="0"
     id="path58"
     d="m 16,96 0,26.67188 C 16,125.26562 18.75,128 21.328124,128 l 85.343756,0 C 109.25,128 112,125.26562 112,122.67188 L 112,96 Z m 0,0"
     style="fill:#000000;fill-opacity:0.19607801;fill-rule:nonzero;stroke:none" />
  <g
     id="g3446"
     transform="matrix(1.6488112,0,0,1.6488112,2.3858036,19.852585)">
    <path
       style="fill:#ffffff;fill-opacity:1;fill-rule:nonzero;stroke:none"
       d="m 20.390625,60.257812 c 0.06641,0.01563 0.140625,0.01563 0.214844,0.01563 0.08203,0 0.15625,0 0.222656,0 0.550781,0 1.007813,-0.08984 1.378906,-0.277344 0.378907,-0.179688 0.683594,-0.433594 0.902344,-0.765625 0.238281,-0.320313 0.402344,-0.695313 0.492187,-1.140625 0.109376,-0.449219 0.164063,-0.945313 0.164063,-1.476563 0,-0.460937 -0.03906,-0.914062 -0.121094,-1.355469 -0.07422,-0.4375 -0.214843,-0.820312 -0.410156,-1.160156 -0.199219,-0.335937 -0.46875,-0.597656 -0.8125,-0.796875 -0.339844,-0.210937 -0.78125,-0.308593 -1.324219,-0.308593 -0.105468,0 -0.222656,0 -0.351562,0.01562 -0.132813,0 -0.246094,0.0078 -0.355469,0.03125 l 0,7.21875 m 5.839844,-3.644531 c 0,1 -0.148438,1.847657 -0.433594,2.554688 -0.28125,0.695312 -0.667969,1.261719 -1.167969,1.699219 -0.5,0.441406 -1.089844,0.761718 -1.789062,0.976562 -0.691406,0.1875 -1.445313,0.289062 -2.277344,0.289062 -0.425781,0 -0.851562,-0.01953 -1.277344,-0.06641 C 18.878906,62.03125 18.4375,61.96875 17.960938,61.875 l 0,-10.484375 c 0.558593,-0.101563 1.074218,-0.175781 1.558593,-0.207031 0.488281,-0.03125 0.945313,-0.05859 1.363281,-0.05859 0.808594,0 1.53125,0.109375 2.1875,0.320312 0.671876,0.207032 1.238282,0.535157 1.699219,0.988282 0.460938,0.441406 0.8125,1.007812 1.066407,1.699218 0.265624,0.679688 0.394531,1.511719 0.394531,2.480469"
       id="path60"
       inkscape:connector-curvature="0" />
    <path
       style="fill:#ffffff;fill-opacity:1;fill-rule:nonzero;stroke:none"
       d="m 29.761719,56.613281 c 0,0.523438 0.01953,1.015625 0.05859,1.476563 0.05078,0.453125 0.148438,0.847656 0.28125,1.183594 0.136719,0.335937 0.335938,0.597656 0.589844,0.796874 0.246094,0.195313 0.582032,0.296876 1,0.296876 0.414063,0 0.742188,-0.101563 0.988282,-0.296876 0.261718,-0.199218 0.457031,-0.460937 0.589843,-0.796874 0.148438,-0.351563 0.238281,-0.746094 0.28125,-1.199219 0.04687,-0.453125 0.08203,-0.9375 0.08203,-1.460938 0,-0.519531 -0.03516,-1.003906 -0.08203,-1.453125 -0.04297,-0.46875 -0.132812,-0.863281 -0.28125,-1.199218 -0.132812,-0.339844 -0.320312,-0.601563 -0.566406,-0.796876 -0.253906,-0.199218 -0.589844,-0.296874 -1.011719,-0.296874 -0.417968,0 -0.753906,0.09766 -1,0.296874 -0.253906,0.195313 -0.453125,0.46875 -0.589844,0.8125 -0.132812,0.335938 -0.230468,0.730469 -0.28125,1.183594 -0.03906,0.449219 -0.05859,0.933594 -0.05859,1.453125 m -2.460938,0 c 0,-1.847656 0.382813,-3.246093 1.15625,-4.179687 0.78125,-0.953125 1.855469,-1.421875 3.234375,-1.421875 1.4375,0 2.53125,0.46875 3.277344,1.421875 0.75,0.933594 1.125,2.332031 1.125,4.179687 0,1.855469 -0.382812,3.25 -1.140625,4.203125 -0.761719,0.9375 -1.847656,1.40625 -3.234375,1.40625 -1.4375,0 -2.539062,-0.46875 -3.300781,-1.40625 -0.75,-0.953125 -1.117188,-2.347656 -1.117188,-4.203125"
       id="path62"
       inkscape:connector-curvature="0" />
    <path
       style="fill:#ffffff;fill-opacity:1;fill-rule:nonzero;stroke:none"
       d="m 46,51.25 0,1.773438 -3.21875,0 0,8.976562 -2.449219,0 0,-8.976562 -3.210937,0 0,-1.773438 8.878906,0"
       id="path64"
       inkscape:connector-curvature="0" />
    <path
       style="fill:#ffffff;fill-opacity:1;fill-rule:nonzero;stroke:none"
       d="m 54.159594,62 c -0.253906,-0.601563 -0.5625,-1.269531 -0.929687,-2 -0.351563,-0.734375 -0.726563,-1.460937 -1.121094,-2.1875 -0.382812,0.691406 -0.761719,1.410156 -1.144531,2.171875 C 50.585375,60.722656 50.261157,61.398437 49.983813,62 l -2.625,0 c 0.132812,-0.324219 0.324219,-0.703125 0.578125,-1.152344 0.257813,-0.445312 0.542969,-0.929687 0.84375,-1.449219 0.316406,-0.515624 0.644531,-1.050781 0.988281,-1.585937 0.339844,-0.5625 0.667969,-1.089844 0.976563,-1.597656 l -3.1875,-5.160157 2.621093,0 1.929688,3.503907 2.03125,-3.503907 2.445312,0 -3.113281,5.109376 c 0.351563,0.507812 0.703125,1.035156 1.039063,1.589843 0.339844,0.558594 0.660156,1.09375 0.941406,1.628907 0.3125,0.519531 0.570312,1.003906 0.796875,1.464843 0.21875,0.449219 0.402344,0.828125 0.527344,1.152344 l -2.617188,0"
       id="path15"
       inkscape:connector-curvature="0" />
  </g>
</svg>
