<?xml version="1.0" encoding="UTF-8" standalone="no"?>
<svg
   xmlns:dc="http://purl.org/dc/elements/1.1/"
   xmlns:cc="http://creativecommons.org/ns#"
   xmlns:rdf="http://www.w3.org/1999/02/22-rdf-syntax-ns#"
   xmlns:svg="http://www.w3.org/2000/svg"
   xmlns="http://www.w3.org/2000/svg"
   xmlns:sodipodi="http://sodipodi.sourceforge.net/DTD/sodipodi-0.dtd"
   xmlns:inkscape="http://www.inkscape.org/namespaces/inkscape"
   width="128"
   height="128"
   viewBox="0 0 128 128"
   version="1.1"
   id="svg2"
   inkscape:version="0.91 r13725"
   sodipodi:docname="gdlink.svg">
  <metadata
     id="metadata21">
    <rdf:RDF>
      <cc:Work
         rdf:about="">
        <dc:format>image/svg+xml</dc:format>
        <dc:type
           rdf:resource="http://purl.org/dc/dcmitype/StillImage" />
        <dc:title></dc:title>
      </cc:Work>
    </rdf:RDF>
  </metadata>
  <defs
     id="defs19">
    <clipPath
       id="clipPath-201045889">
      <g
         transform="translate(0,-1004.3622)"
         id="g17">
        <path
           style="fill:#1890d0"
           inkscape:connector-curvature="0"
           d="m -24,13 c 0,1.105 -0.672,2 -1.5,2 -0.828,0 -1.5,-0.895 -1.5,-2 0,-1.105 0.672,-2 1.5,-2 0.828,0 1.5,0.895 1.5,2 z"
           transform="matrix(15.333333,0,0,11.5,414.99999,878.8622)"
           id="path19" />
      </g>
    </clipPath>
  </defs>
  <sodipodi:namedview
     pagecolor="#ffffff"
     bordercolor="#666666"
     borderopacity="1"
     objecttolerance="10"
     gridtolerance="10"
     guidetolerance="10"
     inkscape:pageopacity="0"
     inkscape:pageshadow="2"
     inkscape:window-width="1280"
     inkscape:window-height="998"
     id="namedview17"
     showgrid="true"
     inkscape:zoom="4.0000002"
     inkscape:cx="58.167713"
     inkscape:cy="42.507446"
     inkscape:window-x="0"
     inkscape:window-y="0"
     inkscape:window-maximized="1"
     inkscape:current-layer="svg2">
    <inkscape:grid
       type="xygrid"
       id="grid4169" />
  </sodipodi:namedview>
  <path
     inkscape:connector-curvature="0"
     id="path5"
     d="M 21.34375,0 C 18.59375,0 16,2.710938 16,5.578124 L 16,122.42188 C 16,125.13281 18.75,128 21.34375,128 l 85.3125,0 C 109.25,128 112,125.13281 112,122.42188 L 112,36 76,0 Z m 0,0"
     style="fill:#3e86fb;fill-opacity:1;fill-rule:nonzero;stroke:none" />
  <path
     inkscape:connector-curvature="0"
     id="path7"
     d="m 84,36 28,28 0,-28 z m 0,0"
     style="fill:#000000;fill-opacity:0.19607801;fill-rule:nonzero;stroke:none" />
  <path
     inkscape:connector-curvature="0"
     id="path9"
     d="m 76,0 35.96875,36 -30.453126,0 C 78.820312,36 76,33.148438 76,30.453124 Z m 0,0"
     style="fill:#ffffff;fill-opacity:0.39215698;fill-rule:nonzero;stroke:none" />
  <polygon
     id="polygon3475-1"
     transform="matrix(4.5589282e-4,0,0,4.1616072e-4,35.390342,49.999606)"
     style="opacity:1;fill:#f9f9f9;fill-opacity:1;fill-rule:evenodd"
     points="22194,115341 44385,76894 133156,76894 110963,115341 " />
  <polygon
     id="polygon3477-6"
     transform="matrix(4.5059806e-4,0,0,4.681784e-4,36.09537,41.999998)"
     style="opacity:1;fill:#f9f9f9;fill-opacity:1;fill-rule:evenodd"
     points="88772,0 44385,0 88772,76894 133156,76894 " />
  <path
     style="opacity:1;fill:#f9f9f9;fill-opacity:1;fill-rule:evenodd"
     d="M 52.895162,45.2 32.988,77.30363 42.309436,95.964448 61.69517,62.000016 Z"
     id="polygon3479-9"
     inkscape:connector-curvature="0"
     sodipodi:nodetypes="ccccc" />
</svg>
