<?xml version="1.0" encoding="UTF-8" standalone="no"?>
<svg
   xmlns:dc="http://purl.org/dc/elements/1.1/"
   xmlns:cc="http://creativecommons.org/ns#"
   xmlns:rdf="http://www.w3.org/1999/02/22-rdf-syntax-ns#"
   xmlns:svg="http://www.w3.org/2000/svg"
   xmlns="http://www.w3.org/2000/svg"
   xmlns:sodipodi="http://sodipodi.sourceforge.net/DTD/sodipodi-0.dtd"
   xmlns:inkscape="http://www.inkscape.org/namespaces/inkscape"
   width="128px"
   height="128px"
   viewBox="0 0 128 128"
   version="1.1"
   id="svg2"
   inkscape:version="0.91 r13725"
   sodipodi:docname="text-x-emacs-lisp.svg">
  <metadata
     id="metadata29">
    <rdf:RDF>
      <cc:Work
         rdf:about="">
        <dc:format>image/svg+xml</dc:format>
        <dc:type
           rdf:resource="http://purl.org/dc/dcmitype/StillImage" />
        <dc:title />
      </cc:Work>
    </rdf:RDF>
  </metadata>
  <defs
     id="defs27" />
  <sodipodi:namedview
     pagecolor="#ffffff"
     bordercolor="#666666"
     borderopacity="1"
     objecttolerance="10"
     gridtolerance="10"
     guidetolerance="10"
     inkscape:pageopacity="0"
     inkscape:pageshadow="2"
     inkscape:window-width="1366"
     inkscape:window-height="717"
     id="namedview25"
     showgrid="false"
     inkscape:zoom="1"
     inkscape:cx="43.144239"
     inkscape:cy="64"
     inkscape:window-x="0"
     inkscape:window-y="26"
     inkscape:window-maximized="1"
     inkscape:current-layer="svg2" />
  <g
     id="surface1">
    <path
       style="stroke:none;fill-rule:nonzero;fill:#5555b5;fill-opacity:1"
       d="M 21.34375 0 C 18.59375 0 16 2.710938 16 5.578125 L 16 122.421875 C 16 125.132812 18.75 128 21.34375 128 L 106.65625 128 C 109.25 128 112 125.132812 112 122.421875 L 112 36 L 76 0 Z M 21.34375 0 "
       id="path5" />
    <path
       style=" stroke:none;fill-rule:nonzero;fill:rgb(0%,0%,0%);fill-opacity:0.196078;"
       d="M 84 36 L 112 64 L 112 36 Z M 84 36 "
       id="path7" />
    <path
       style=" stroke:none;fill-rule:nonzero;fill:rgb(100%,100%,100%);fill-opacity:0.392157;"
       d="M 76 0 L 111.96875 36 L 81.515625 36 C 78.820312 36 76 33.148438 76 30.453125 Z M 76 0 "
       id="path9" />
  </g>
  <path
     d="m 48.967495,100.341 c 6.701176,1.5787 13.711513,1.49624 20.648825,1.659 0,0 6.068552,-0.2044 9.397216,-0.79752 3.486415,-0.62344 5.449289,-1.32174 6.509409,-2.6246 0.0216,-0.30256 0.48784,-1.307296 -0.903624,-2.206488 -3.571721,-2.28836 -8.091313,-2.798928 -16.909953,-4.559607 -9.752353,-2.086776 -12.724905,-4.30044 -14.221473,-5.935856 -1.433248,-1.62948 0.0736,-5.177872 7.806698,-7.168496 3.907815,-1.092584 18.596551,-1.781296 18.596551,-1.781296 C 75.55716,73.740874 67.43608,68.04632 65.77932,66.838424 c -1.460344,-1.06392 -3.799679,-2.694344 -4.099015,-4.212632 -0.38536,-1.474512 1.940487,-2.273296 3.177935,-2.4042 6.292104,-0.29968 11.483464,0.18208 17.267055,0.963952 3.485322,0.0456 6.130522,-1.87144 5.854986,-5.68368 -0.16792,-3.879183 -4.160632,-6.854199 -8.478601,-6.837799 -4.06376,0.0076 -14.040384,1.063512 -14.040384,1.063512 11.744216,1.986576 13.673128,2.532696 14.325616,3.902056 -3.258776,3.071991 -9.053304,1.355656 -14.464968,0.974416 -6.859689,-0.820168 -11.637897,-1.6234 -13.624241,1.144799 -1.289584,1.787832 0.33552,3.897784 0.983032,5.12464 3.938552,5.866 9.589146,8.92473 15.340345,12.443882 -10.705977,-2.516144 -19.100753,-0.59 -24.369776,2.396847 -6.034756,3.857504 -4.783964,9.94508 5.211927,15.335616 5.885216,3.177911 9.703232,4.549727 18.304145,5.536327 5.568336,0.69 6.39828,1.01772 6.373728,1.48128 -0.032,0.64544 -6.507224,1.11208 -8.290352,1.30076 -4.524151,0.46784 -16.230897,0.95648 -16.295969,0.95876"
     id="path53"
     inkscape:connector-curvature="0"
     style="fill:#ffffff;fill-opacity:1;fill-rule:evenodd;stroke:none"
     sodipodi:nodetypes="ccccccccccccccccccccccccccc" />
</svg>
