<?xml version="1.0" encoding="UTF-8" standalone="no"?>
<svg
   xmlns:dc="http://purl.org/dc/elements/1.1/"
   xmlns:cc="http://creativecommons.org/ns#"
   xmlns:rdf="http://www.w3.org/1999/02/22-rdf-syntax-ns#"
   xmlns:svg="http://www.w3.org/2000/svg"
   xmlns="http://www.w3.org/2000/svg"
   xmlns:sodipodi="http://sodipodi.sourceforge.net/DTD/sodipodi-0.dtd"
   xmlns:inkscape="http://www.inkscape.org/namespaces/inkscape"
   width="128px"
   height="128px"
   viewBox="0 0 128 128"
   version="1.1"
   id="svg2"
   inkscape:version="0.91 r13725"
   sodipodi:docname="text-x-r-0b.svg">
  <metadata
     id="metadata29">
    <rdf:RDF>
      <cc:Work
         rdf:about="">
        <dc:format>image/svg+xml</dc:format>
        <dc:type
           rdf:resource="http://purl.org/dc/dcmitype/StillImage" />
        <dc:title />
      </cc:Work>
    </rdf:RDF>
  </metadata>
  <defs
     id="defs27" />
  <sodipodi:namedview
     pagecolor="#ffffff"
     bordercolor="#666666"
     borderopacity="1"
     objecttolerance="10"
     gridtolerance="10"
     guidetolerance="10"
     inkscape:pageopacity="0"
     inkscape:pageshadow="2"
     inkscape:window-width="1366"
     inkscape:window-height="713"
     id="namedview25"
     showgrid="false"
     inkscape:zoom="1"
     inkscape:cx="77.884496"
     inkscape:cy="35.715729"
     inkscape:window-x="0"
     inkscape:window-y="28"
     inkscape:window-maximized="1"
     inkscape:current-layer="svg2">
    <inkscape:grid
       type="xygrid"
       id="grid3339" />
  </sodipodi:namedview>
  <g
     id="surface1">
    <path
       style="stroke:none;fill-rule:nonzero;fill:#98b3d0;fill-opacity:1"
       d="M 21.34375 0 C 18.59375 0 16 2.710938 16 5.578125 L 16 122.421875 C 16 125.132812 18.75 128 21.34375 128 L 106.65625 128 C 109.25 128 112 125.132812 112 122.421875 L 112 36 L 76 0 Z M 21.34375 0 "
       id="path5" />
    <path
       style=" stroke:none;fill-rule:nonzero;fill:rgb(0%,0%,0%);fill-opacity:0.196078;"
       d="M 84 36 L 112 64 L 112 36 Z M 84 36 "
       id="path7" />
    <path
       style=" stroke:none;fill-rule:nonzero;fill:rgb(100%,100%,100%);fill-opacity:0.392157;"
       d="M 76 0 L 111.96875 36 L 81.515625 36 C 78.820312 36 76 33.148438 76 30.453125 Z M 76 0 "
       id="path9" />
  </g>
  <g
     id="g3342"
     transform="matrix(2.6666667,0,0,2.6666667,2.666667,-1.3333346)">
    <path
       sodipodi:nodetypes="ssccsssccss"
       inkscape:connector-curvature="0"
       id="path59"
       d="m 23,19.003906 c -6.629,0 -12,3.582 -12,8 0,3.481616 3.591839,6.435794 8.25,7.535156 l 0,-2.65039 C 16.832537,30.800621 15,29.020316 15,27.003906 c 0,-3.313 4.254,-6 9.5,-6 5.246,0 9.5,2.688 9.5,6 0,2.592172 -2.49745,4.906659 -6.143477,5.745172 0.293451,0.482501 0.586467,0.965217 0.876953,1.433593 C 32.527257,32.838666 35,30.067455 35,27.003906 c 0,-4.418 -5.371,-8 -12,-8 z"
       style="fill:#ffffff;fill-opacity:1;fill-rule:nonzero;stroke:none" />
    <path
       id="path63"
       d="M 20,23.004 20,38 l 3,0 0,-5 1,0 3,5 3,0 -3,-5 -0.219,-0.344 c 1.875,-0.719 3.215,-2.523 3.215,-4.656 0,-2.758 -2.238,-4.996 -5,-4.996 m -1.996,3 1.996,0 c 1.105,0 2,0.895 2,1.996 0,1.109 -0.898,2 -2,2 L 23,30 23,26 m 0,0.004"
       style="fill:#ffffff;fill-opacity:1;fill-rule:nonzero;stroke:none"
       inkscape:connector-curvature="0" />
  </g>
</svg>
