<svg width="128" xmlns="http://www.w3.org/2000/svg" height="128" viewBox="0 0 128 128" xmlns:xlink="http://www.w3.org/1999/xlink">
<path style="fill:#dcdcdc" d="M 21.332031 2.667969 C 18.589844 2.667969 16 5.257812 16 8 L 16 120 C 16 122.589844 18.742188 125.332031 21.332031 125.332031 L 106.667969 125.332031 C 109.257812 125.332031 112 122.589844 112 120 L 112 37.332031 L 77.332031 2.667969 Z "/>
<path style="fill:#000;fill-opacity:.196" d="M 77.332031 32 L 77.5 32.167969 L 77.917969 32 Z M 82.667969 37.332031 L 112 66.667969 L 112 37.332031 Z "/>
<path style="fill:#fff;fill-opacity:.392" d="M 77.332031 2.667969 L 112 37.332031 L 82.667969 37.332031 C 80.078125 37.332031 77.332031 34.589844 77.332031 32 Z "/>
<g style="fill:#888">
<path d="M 48 50.667969 L 48 53.332031 L 90.667969 53.332031 L 90.667969 50.667969 Z "/>
<path d="M 48 58.667969 L 48 61.332031 L 90.667969 61.332031 L 90.667969 58.667969 Z "/>
<path d="M 48 66.667969 L 48 69.332031 L 90.667969 69.332031 L 90.667969 66.667969 Z "/>
<path d="M 48 74.667969 L 48 77.332031 L 90.667969 77.332031 L 90.667969 74.667969 Z "/>
<path d="M 48 82.667969 L 48 85.332031 L 90.667969 85.332031 L 90.667969 82.667969 Z "/>
<path d="M 48 90.667969 L 48 93.332031 L 90.667969 93.332031 L 90.667969 90.667969 Z "/>
<path d="M 42.667969 52 C 42.667969 53.472656 41.472656 54.667969 40 54.667969 C 38.527344 54.667969 37.332031 53.472656 37.332031 52 C 37.332031 50.527344 38.527344 49.332031 40 49.332031 C 41.472656 49.332031 42.667969 50.527344 42.667969 52 Z "/>
<path d="M 42.667969 60 C 42.667969 61.472656 41.472656 62.667969 40 62.667969 C 38.527344 62.667969 37.332031 61.472656 37.332031 60 C 37.332031 58.527344 38.527344 57.332031 40 57.332031 C 41.472656 57.332031 42.667969 58.527344 42.667969 60 Z "/>
<path d="M 42.667969 68 C 42.667969 69.472656 41.472656 70.667969 40 70.667969 C 38.527344 70.667969 37.332031 69.472656 37.332031 68 C 37.332031 66.527344 38.527344 65.332031 40 65.332031 C 41.472656 65.332031 42.667969 66.527344 42.667969 68 Z "/>
<path d="M 42.667969 76 C 42.667969 77.472656 41.472656 78.667969 40 78.667969 C 38.527344 78.667969 37.332031 77.472656 37.332031 76 C 37.332031 74.527344 38.527344 73.332031 40 73.332031 C 41.472656 73.332031 42.667969 74.527344 42.667969 76 Z "/>
<path d="M 42.667969 84 C 42.667969 85.472656 41.472656 86.667969 40 86.667969 C 38.527344 86.667969 37.332031 85.472656 37.332031 84 C 37.332031 82.527344 38.527344 81.332031 40 81.332031 C 41.472656 81.332031 42.667969 82.527344 42.667969 84 Z "/>
<path d="M 42.667969 92 C 42.667969 93.472656 41.472656 94.667969 40 94.667969 C 38.527344 94.667969 37.332031 93.472656 37.332031 92 C 37.332031 90.527344 38.527344 89.332031 40 89.332031 C 41.472656 89.332031 42.667969 90.527344 42.667969 92 Z "/>
</g>
</svg>
