
<svg xmlns="http://www.w3.org/2000/svg" xmlns:xlink="http://www.w3.org/1999/xlink" width="128px" height="128px" viewBox="0 0 128 128" version="1.1">
<g id="surface1">
<path style=" stroke:none;fill-rule:nonzero;fill:rgb(20.392157%,40.784314%,80.784314%);fill-opacity:1;" d="M 21.375 0 C 18.625 0 16 2.757812 16 5.625 L 16 122.375 C 16 125.078125 18.78125 128 21.375 128 L 106.625 128 C 109.21875 128 112 125.078125 112 122.375 L 112 5.5 C 112 2.804688 109.195312 0 106.5 0 Z M 21.375 0 "/>
<path style=" stroke:none;fill-rule:evenodd;fill:rgb(97.647059%,97.647059%,97.647059%);fill-opacity:1;" d="M 40 40 L 64 40 L 64 60 L 40 60 Z M 40 40 "/>
<path style=" stroke:none;fill-rule:evenodd;fill:rgb(97.647059%,97.647059%,97.647059%);fill-opacity:1;" d="M 68 40 L 88 40 L 88 44 L 68 44 Z M 68 40 "/>
<path style=" stroke:none;fill-rule:evenodd;fill:rgb(97.647059%,97.647059%,97.647059%);fill-opacity:1;" d="M 68 48 L 88 48 L 88 52 L 68 52 Z M 68 48 "/>
<path style=" stroke:none;fill-rule:evenodd;fill:rgb(97.647059%,97.647059%,97.647059%);fill-opacity:1;" d="M 68 56 L 88 56 L 88 60 L 68 60 Z M 68 56 "/>
<path style=" stroke:none;fill-rule:evenodd;fill:rgb(97.647059%,97.647059%,97.647059%);fill-opacity:1;" d="M 40 64 L 88 64 L 88 68 L 40 68 Z M 40 64 "/>
<path style=" stroke:none;fill-rule:evenodd;fill:rgb(97.647059%,97.647059%,97.647059%);fill-opacity:1;" d="M 40 72 L 88 72 L 88 76 L 40 76 Z M 40 72 "/>
<path style=" stroke:none;fill-rule:evenodd;fill:rgb(97.647059%,97.647059%,97.647059%);fill-opacity:1;" d="M 40 80 L 88 80 L 88 84 L 40 84 Z M 40 80 "/>
<path style=" stroke:none;fill-rule:nonzero;fill:rgb(0%,0%,0%);fill-opacity:0.196078;" d="M 16 96 L 16 122.671875 C 16 125.265625 18.75 128 21.328125 128 L 106.671875 128 C 109.25 128 112 125.265625 112 122.671875 L 112 96 Z M 16 96 "/>
<path style=" stroke:none;fill-rule:nonzero;fill:rgb(100%,100%,100%);fill-opacity:1;" d="M 46.4375 109.664062 C 46.539062 110.109375 46.703125 110.671875 46.898438 111.34375 C 47.109375 112.015625 47.328125 112.757812 47.554688 113.5625 C 47.820312 114.382812 48.078125 115.257812 48.375 116.195312 C 48.671875 117.109375 48.96875 118.070312 49.265625 119.054688 C 49.265625 117.804688 49.25 116.492188 49.21875 115.078125 C 49.203125 113.648438 49.164062 112.179688 49.148438 110.703125 C 49.117188 109.226562 49.101562 107.726562 49.070312 106.21875 C 49.039062 104.6875 49.039062 103.226562 49.039062 101.8125 L 53.4375 101.8125 C 53.359375 103.617188 53.273438 105.507812 53.195312 107.429688 C 53.125 109.351562 53.03125 111.265625 52.929688 113.171875 C 52.835938 115.054688 52.703125 116.929688 52.554688 118.773438 C 52.421875 120.617188 52.257812 122.359375 52.078125 124 L 48.148438 124 C 47.570312 122.484375 47.015625 120.875 46.4375 119.164062 C 45.882812 117.40625 45.304688 115.75 44.742188 114.171875 C 44.171875 115.679688 43.578125 117.328125 42.96875 119.085938 C 42.34375 120.859375 41.773438 122.484375 41.257812 124 L 37.3125 124 C 37.117188 122.359375 36.9375 120.617188 36.773438 118.773438 C 36.625 116.898438 36.476562 115.023438 36.359375 113.132812 C 36.25 111.226562 36.164062 109.304688 36.085938 107.398438 C 36 105.460938 35.9375 103.601562 35.882812 101.8125 L 40.289062 101.8125 C 40.273438 103.226562 40.242188 104.671875 40.226562 106.179688 C 40.195312 107.695312 40.15625 109.1875 40.140625 110.703125 C 40.109375 112.179688 40.09375 113.648438 40.0625 115.078125 C 40.046875 116.492188 40.03125 117.804688 40.03125 119.054688 C 40.257812 118.28125 40.523438 117.460938 40.796875 116.539062 C 41.109375 115.632812 41.390625 114.75 41.65625 113.859375 C 41.9375 112.96875 42.195312 112.164062 42.429688 111.40625 C 42.65625 110.671875 42.835938 110.09375 42.96875 109.664062 L 46.4375 109.664062 "/>
<path style=" stroke:none;fill-rule:nonzero;fill:rgb(100%,100%,100%);fill-opacity:1;" d="M 62.976562 101.5625 C 66.015625 101.5625 68.382812 102.140625 70.039062 103.320312 C 71.71875 104.460938 72.554688 106.34375 72.554688 108.976562 C 72.554688 111.640625 71.703125 113.5625 70.007812 114.75 C 68.328125 115.929688 65.945312 116.507812 62.859375 116.507812 L 61.164062 116.507812 L 61.164062 124 L 56.414062 124 L 56.414062 102.09375 C 56.875 102.007812 57.382812 101.90625 57.960938 101.84375 C 58.554688 101.78125 59.140625 101.726562 59.734375 101.695312 C 60.328125 101.648438 60.898438 101.617188 61.476562 101.59375 C 62.039062 101.5625 62.546875 101.5625 62.976562 101.5625 M 63.515625 105.390625 C 63.234375 105.390625 62.84375 105.414062 62.3125 105.429688 C 61.820312 105.429688 61.445312 105.460938 61.164062 105.507812 L 61.164062 112.671875 L 63.085938 112.671875 C 64.617188 112.671875 65.75 112.398438 66.523438 111.851562 C 67.3125 111.28125 67.6875 110.304688 67.6875 108.945312 C 67.6875 107.648438 67.3125 106.742188 66.523438 106.21875 C 65.78125 105.671875 64.78125 105.390625 63.515625 105.390625 "/>
<path style=" stroke:none;fill-rule:nonzero;fill:rgb(100%,100%,100%);fill-opacity:1;" d="M 92 101.8125 L 92 105.460938 L 85.6875 105.460938 L 85.6875 124 L 80.90625 124 L 80.90625 105.460938 L 74.609375 105.460938 L 74.609375 101.8125 L 92 101.8125 "/>
</g>
</svg>
