<svg width="128" xmlns="http://www.w3.org/2000/svg" height="128" viewBox="0 0 128 128" xmlns:xlink="http://www.w3.org/1999/xlink">
<path style="fill:#d14626" d="M 21.332031 2.667969 C 18.589844 2.667969 16 5.257812 16 8 L 16 120 C 16 122.589844 18.742188 125.332031 21.332031 125.332031 L 106.667969 125.332031 C 109.257812 125.332031 112 122.589844 112 120 L 112 37.332031 L 77.332031 2.667969 Z "/>
<path style="fill:#000;fill-opacity:.196" d="M 77.332031 32 L 77.5 32.167969 L 77.917969 32 Z M 82.667969 37.332031 L 112 66.667969 L 112 37.332031 Z "/>
<path style="fill:#fff;fill-opacity:.392" d="M 77.332031 2.667969 L 112 37.332031 L 82.667969 37.332031 C 80.078125 37.332031 77.332031 34.589844 77.332031 32 Z "/>
<g style="fill:#fff">
<path d="M 32 42.667969 L 50.667969 42.667969 L 50.667969 56 L 32 56 Z "/>
<path d="M 32 64 L 50.667969 64 L 50.667969 77.332031 L 32 77.332031 Z "/>
<path d="M 78.769531 42.667969 L 78.769531 59.464844 L 96 59.464844 C 96 50.1875 88.285156 42.667969 78.769531 42.667969 Z "/>
<path d="M 76.308594 45.066406 C 66.792969 45.066406 59.078125 52.589844 59.078125 61.867188 C 59.078125 71.144531 66.792969 78.667969 76.308594 78.667969 C 85.824219 78.667969 93.539062 71.144531 93.539062 61.867188 L 76.308594 61.867188 Z "/>
</g>
<path style="fill:#000;fill-opacity:.196" d="M 16 93.332031 L 16 120 C 16 122.589844 18.742188 125.332031 21.332031 125.332031 L 106.667969 125.332031 C 109.257812 125.332031 112 122.589844 112 120 L 112 93.332031 Z "/>
<g style="fill:#fff">
<path d="M 42 116.269531 C 42.125 116.289062 42.265625 116.300781 42.417969 116.300781 C 42.566406 116.300781 42.707031 116.300781 42.832031 116.300781 C 43.894531 116.300781 44.78125 116.125 45.488281 115.773438 C 46.222656 115.421875 46.804688 114.9375 47.234375 114.320312 C 47.6875 113.703125 48.003906 112.976562 48.183594 112.140625 C 48.382812 111.28125 48.484375 110.34375 48.484375 109.332031 C 48.484375 108.453125 48.410156 107.59375 48.257812 106.757812 C 48.105469 105.921875 47.839844 105.183594 47.460938 104.542969 C 47.082031 103.90625 46.5625 103.398438 45.90625 103.027344 C 45.25 102.628906 44.402344 102.429688 43.363281 102.429688 C 43.164062 102.429688 42.933594 102.441406 42.683594 102.464844 C 42.429688 102.464844 42.203125 102.484375 42 102.53125 L 42 116.269531 M 53.226562 109.332031 C 53.226562 111.226562 52.949219 112.84375 52.394531 114.1875 C 51.863281 115.507812 51.117188 116.585938 50.15625 117.421875 C 49.195312 118.261719 48.042969 118.875 46.703125 119.273438 C 45.386719 119.648438 43.933594 119.835938 42.339844 119.835938 C 41.507812 119.835938 40.683594 119.789062 39.875 119.703125 C 39.089844 119.636719 38.242188 119.515625 37.332031 119.339844 L 37.332031 99.394531 C 38.394531 99.195312 39.394531 99.0625 40.328125 98.996094 C 41.265625 98.929688 42.136719 98.898438 42.949219 98.898438 C 44.488281 98.898438 45.894531 99.09375 47.15625 99.492188 C 48.449219 99.886719 49.535156 100.515625 50.421875 101.375 C 51.304688 102.210938 51.988281 103.289062 52.46875 104.609375 C 52.972656 105.910156 53.226562 107.484375 53.226562 109.332031 "/>
<path d="M 62.75 98.898438 C 65.730469 98.898438 68.046875 99.4375 69.691406 100.515625 C 71.332031 101.574219 72.15625 103.3125 72.15625 105.734375 C 72.15625 108.175781 71.320312 109.949219 69.652344 111.050781 C 68.007812 112.128906 65.667969 112.667969 62.632812 112.667969 L 60.964844 112.667969 L 60.964844 119.570312 L 56.300781 119.570312 L 56.300781 99.394531 C 56.753906 99.304688 57.261719 99.226562 57.816406 99.160156 C 58.398438 99.09375 58.980469 99.050781 59.5625 99.03125 C 60.144531 98.984375 60.710938 98.953125 61.269531 98.929688 C 61.824219 98.910156 62.316406 98.898438 62.75 98.898438 M 63.277344 102.429688 C 63 102.429688 62.609375 102.441406 62.101562 102.464844 C 61.621094 102.464844 61.242188 102.484375 60.964844 102.53125 L 60.964844 109.136719 L 62.863281 109.136719 C 64.355469 109.136719 65.480469 108.882812 66.238281 108.375 C 66.996094 107.847656 67.375 106.957031 67.375 105.699219 C 67.375 104.511719 66.996094 103.675781 66.238281 103.191406 C 65.503906 102.683594 64.519531 102.429688 63.277344 102.429688 "/>
<path d="M 82.019531 116.597656 C 82.800781 116.597656 83.445312 116.53125 83.953125 116.398438 C 84.484375 116.246094 84.902344 116.046875 85.203125 115.804688 C 85.507812 115.542969 85.710938 115.253906 85.8125 114.945312 C 85.9375 114.617188 86 114.285156 86 113.957031 C 86 113.539062 85.863281 113.164062 85.582031 112.832031 C 85.304688 112.503906 84.953125 112.21875 84.523438 111.976562 C 84.089844 111.710938 83.609375 111.480469 83.082031 111.28125 C 82.550781 111.0625 82.019531 110.863281 81.488281 110.6875 C 80.777344 110.464844 80.046875 110.214844 79.285156 109.925781 C 78.527344 109.640625 77.832031 109.277344 77.199219 108.835938 C 76.59375 108.398438 76.085938 107.859375 75.683594 107.21875 C 75.277344 106.558594 75.078125 105.746094 75.078125 104.777344 C 75.078125 102.859375 75.785156 101.363281 77.199219 100.285156 C 78.640625 99.207031 80.613281 98.667969 83.117188 98.667969 C 84.558594 98.667969 85.8125 98.808594 86.875 99.09375 C 87.960938 99.382812 88.871094 99.699219 89.605469 100.054688 L 88.238281 103.191406 C 87.605469 102.882812 86.898438 102.617188 86.113281 102.398438 C 85.355469 102.179688 84.472656 102.066406 83.460938 102.066406 C 80.980469 102.066406 79.742188 102.847656 79.742188 104.414062 C 79.742188 104.808594 79.867188 105.160156 80.121094 105.46875 C 80.375 105.753906 80.691406 106.019531 81.070312 106.261719 C 81.472656 106.480469 81.917969 106.679688 82.398438 106.855469 C 82.902344 107.03125 83.394531 107.199219 83.875 107.351562 C 84.609375 107.59375 85.367188 107.867188 86.152344 108.175781 C 86.960938 108.464844 87.695312 108.859375 88.351562 109.367188 C 89.035156 109.851562 89.59375 110.464844 90.023438 111.214844 C 90.453125 111.941406 90.667969 112.867188 90.667969 113.988281 C 90.667969 115.90625 89.945312 117.390625 88.503906 118.449219 C 87.089844 119.480469 84.925781 120 82.019531 120 C 80.070312 120 78.515625 119.824219 77.351562 119.472656 C 76.1875 119.097656 75.316406 118.753906 74.734375 118.449219 L 76.101562 115.144531 C 76.785156 115.496094 77.59375 115.828125 78.527344 116.136719 C 79.488281 116.445312 80.652344 116.597656 82.019531 116.597656 "/>
</g>
</svg>
