<?xml version="1.0" encoding="UTF-8" standalone="no"?>
<svg
   xmlns:dc="http://purl.org/dc/elements/1.1/"
   xmlns:cc="http://creativecommons.org/ns#"
   xmlns:rdf="http://www.w3.org/1999/02/22-rdf-syntax-ns#"
   xmlns:svg="http://www.w3.org/2000/svg"
   xmlns="http://www.w3.org/2000/svg"
   xmlns:sodipodi="http://sodipodi.sourceforge.net/DTD/sodipodi-0.dtd"
   xmlns:inkscape="http://www.inkscape.org/namespaces/inkscape"
   width="256"
   height="256"
   viewBox="0 0 256 256"
   id="svg2"
   version="1.1"
   inkscape:version="0.91 r13725"
   sodipodi:docname="archive-remove.svg">
  <metadata
     id="metadata16">
    <rdf:RDF>
      <cc:Work
         rdf:about="">
        <dc:format>image/svg+xml</dc:format>
        <dc:type
           rdf:resource="http://purl.org/dc/dcmitype/StillImage" />
        <dc:title></dc:title>
      </cc:Work>
    </rdf:RDF>
  </metadata>
  <defs
     id="defs14" />
  <sodipodi:namedview
     pagecolor="#ffffff"
     bordercolor="#666666"
     borderopacity="1"
     objecttolerance="10"
     gridtolerance="10"
     guidetolerance="10"
     inkscape:pageopacity="0"
     inkscape:pageshadow="2"
     inkscape:window-width="1366"
     inkscape:window-height="704"
     id="namedview12"
     showgrid="false"
     inkscape:zoom="0.921875"
     inkscape:cx="5.9661017"
     inkscape:cy="128"
     inkscape:window-x="0"
     inkscape:window-y="27"
     inkscape:window-maximized="1"
     inkscape:current-layer="svg2" />
  <path
     style="fill:#c19553"
     d="M 28.832031 16 C 22.417969 16 16 22.417969 16 28.832031 L 16 227.53125 C 16 233.582031 22.417969 240 28.46875 240 L 227.53125 240 C 233.582031 240 240 233.582031 240 227.53125 L 240 28.46875 C 240 22.417969 233.582031 16 227.53125 16 Z "
     id="path4" />
  <path
     style="fill:#fff;fill-opacity:.196"
     d="M 28.832031 16 C 22.417969 16 16 22.417969 16 28.832031 L 16 96 C 40.863281 96 215.136719 96 240 96 L 240 28.46875 C 240 22.417969 233.582031 16 227.53125 16 Z "
     id="path6" />
  <path
     style="fill:#fff"
     d="M 112 16 L 112 32 L 128 32 L 128 48 L 112 48 L 112 64 L 128 64 L 128 80 L 112 80 L 112 96 L 128 96.160156 L 128 128.160156 L 112 128 L 112 160 L 144 160 L 144 128 L 128 128.160156 L 128 112 L 144 112 L 144 96 L 128 96.160156 L 128 80 L 144 80 L 144 64 L 128 64 L 128 48 L 144 48 L 144 32 L 128 32 L 128 16 Z "
     id="path8" />
  <g
     style="fill-rule:evenodd"
     id="g4"
     transform="matrix(0.5,0,0,0.5,128,128)">
    <path
       inkscape:connector-curvature="0"
       style="fill:#dc322f"
       d="M 256,128.01562 C 255.99219,198.70312 198.6875,256 128,256 57.3125,256 0.0078125,198.70312 0,128.01562 -0.0078125,57.316406 57.300781,0 128,0 198.69922,0 256.00781,57.316406 256,128.01562 Z"
       id="path6-7" />
    <path
       inkscape:connector-curvature="0"
       style="fill:#ffffff;fill-opacity:0.9020004"
       d="m 64.066406,64.003906 0,21.332032 c -0.464844,5.980468 1.539063,12.089843 6.027344,16.234372 l 27.347656,26.89453 -27.347656,26.89844 c -4.007812,4.00781 -6.027344,9.65625 -6.027344,15.30469 l 0,21.33203 21.320313,0 c 5.648437,0 11.292969,-2.01953 15.296871,-6.02734 l 27.34766,-27.36329 27.35156,27.36329 C 159.38672,189.97656 165.03125,192 170.67578,192 L 192,192 l 0,-21.33203 c 0,-5.64844 -2.01953,-11.29688 -6.02734,-15.30469 L 159.08984,128.46484 186.4375,101.57031 C 191.02734,97.324219 192,91.4375 192,85.335938 l 0,-21.332032 -21.32422,0 c -5.125,0.148438 -9.17578,2.046875 -14.83203,6.957032 l -27.8125,26.898437 -27.34766,-26.898437 c -3.781246,-3.917969 -8.941402,-6.71875 -14.367184,-6.957032 -0.222656,-0.0078 -0.707031,0 -0.929687,0 z"
       id="path8-5" />
  </g>
</svg>
