<?xml version="1.0" encoding="UTF-8" standalone="no"?>
<svg
   xmlns:dc="http://purl.org/dc/elements/1.1/"
   xmlns:cc="http://creativecommons.org/ns#"
   xmlns:rdf="http://www.w3.org/1999/02/22-rdf-syntax-ns#"
   xmlns:svg="http://www.w3.org/2000/svg"
   xmlns="http://www.w3.org/2000/svg"
   xmlns:sodipodi="http://sodipodi.sourceforge.net/DTD/sodipodi-0.dtd"
   xmlns:inkscape="http://www.inkscape.org/namespaces/inkscape"
   width="256"
   height="256"
   viewBox="0 0 256 256"
   id="svg2"
   version="1.1"
   inkscape:version="0.91 r13725"
   sodipodi:docname="image-gallery.svg">
  <metadata
     id="metadata10">
    <rdf:RDF>
      <cc:Work
         rdf:about="">
        <dc:format>image/svg+xml</dc:format>
        <dc:type
           rdf:resource="http://purl.org/dc/dcmitype/StillImage" />
        <dc:title></dc:title>
      </cc:Work>
    </rdf:RDF>
  </metadata>
  <defs
     id="defs8" />
  <sodipodi:namedview
     pagecolor="#ffffff"
     bordercolor="#666666"
     borderopacity="1"
     objecttolerance="10"
     gridtolerance="10"
     guidetolerance="10"
     inkscape:pageopacity="0"
     inkscape:pageshadow="2"
     inkscape:window-width="1366"
     inkscape:window-height="704"
     id="namedview6"
     showgrid="false"
     inkscape:zoom="1"
     inkscape:cx="-84.610169"
     inkscape:cy="128"
     inkscape:window-x="0"
     inkscape:window-y="27"
     inkscape:window-maximized="1"
     inkscape:current-layer="svg2" />
  <rect
     style="opacity:1;fill:#b58900;fill-opacity:1;stroke:none;stroke-width:0.2;stroke-linecap:butt;stroke-linejoin:round;stroke-miterlimit:4;stroke-dasharray:none;stroke-opacity:0.61660061"
     id="rect4148"
     width="112"
     height="112"
     x="8"
     y="8"
     rx="10"
     ry="10" />
  <rect
     y="8"
     x="136"
     height="112"
     width="112"
     id="rect4150"
     style="opacity:1;fill:#268bd2;fill-opacity:1;stroke:none;stroke-width:0.2;stroke-linecap:butt;stroke-linejoin:round;stroke-miterlimit:4;stroke-dasharray:none;stroke-opacity:0.61660061"
     ry="10"
     rx="10" />
  <rect
     style="opacity:1;fill:#db3330;fill-opacity:1;stroke:none;stroke-width:0.2;stroke-linecap:butt;stroke-linejoin:round;stroke-miterlimit:4;stroke-dasharray:none;stroke-opacity:0.61660061"
     id="rect4152"
     width="112"
     height="112"
     x="136"
     y="136"
     ry="10"
     rx="10" />
  <rect
     y="136"
     x="8"
     height="112"
     width="112"
     id="rect4154"
     style="opacity:1;fill:#4caf50;fill-opacity:1;stroke:none;stroke-width:0.2;stroke-linecap:butt;stroke-linejoin:round;stroke-miterlimit:4;stroke-dasharray:none;stroke-opacity:0.61660061"
     ry="10"
     rx="10" />
  <path
     style="fill:#ffffff;fill-opacity:1"
     d="M 174.39998,39.99999 152,74.68751 l 0,29.31247 79.99998,0 0,-22.39999 -16,-25.6 -16,16 z"
     id="path85"
     inkscape:connector-curvature="0"
     sodipodi:nodetypes="cccccccc" />
  <path
     style="opacity:1;fill:#ffffff;fill-opacity:1;fill-rule:nonzero;stroke:none"
     d="m 63.468758,152.01598 c -10.21074,0 -18.5,7.80516 -18.5,17.43752 0,0.47376 0.02,0.96368 0.0624,1.43744 -1.43664,-0.3352 -2.89216,-0.52816 -4.37502,-0.5312 -8.98944,0.1008 -16.6563,7.83636 -16.6563,17.46876 0,7.20504 4.69052,13.64728 11.8125,16.25 -2.13506,2.91028 -3.2751,6.36524 -3.28126,9.90624 0,9.6324 8.2862,17.43444 18.5,17.43752 4.25166,-0.004 8.36136,-1.3744 11.65626,-3.90628 3.39026,2.88572 7.79416,4.49076 12.375,4.5 10.21688,0 18.46876,-7.83024 18.46876,-17.46876 -0.006,-3.25792 -0.98204,-6.45608 -2.81252,-9.21872 7.86648,-2.18428 13.278182,-8.98456 13.281262,-16.71876 0,-9.63544 -6.152082,-17.3052 -20.343742,-17.43748 -0.60296,0 -1.21258,0.008 -1.81252,0.0624 0.0736,-0.59376 0.1156,-1.18128 0.125,-1.78128 0,-9.63848 -8.27078,-17.44056 -18.5,-17.43748 z m 0.5312,27.18752 a 14.399999,14.399999 0 0 1 14.40624,14.40624 14.399999,14.399999 0 0 1 -14.40624,14.40624 14.399999,14.399999 0 0 1 -14.40626,-14.40624 14.399999,14.399999 0 0 1 14.40626,-14.40624 z"
     id="path35"
     inkscape:connector-curvature="0" />
  <path
     inkscape:connector-curvature="0"
     d="m 173.79734,191.96798 c 2.544,3.12532 5.25864,6.99732 3.21064,11.15732 C 170.66666,215.99998 152,210.66666 152,231.99998 l 79.99998,0 c 0,-21.33332 -18.66668,-16 -25.008,-28.87468 -2.048,-4.16 1.2,-7.664 3.21068,-11.15732 12.224,-21.21068 3.13064,-39.97332 -18.20268,-39.97332 -21.33332,0 -30.05866,25.392 -18.20264,39.97332 z"
     style="fill:#ffffff;fill-opacity:1"
     id="path47" />
  <path
     inkscape:connector-curvature="0"
     style="fill:#ffffff;fill-opacity:1"
     d="m 23.999998,55.99999 16,0 0,47.99999 16,0 0,-47.99999 16,0 0,47.99999 16,0 0,-47.99999 16.000002,0 -40.000002,-32 z"
     id="path6"
     sodipodi:nodetypes="cccccccccccc" />
</svg>
