<?xml version="1.0" encoding="UTF-8" standalone="no"?>
<svg
   xmlns:dc="http://purl.org/dc/elements/1.1/"
   xmlns:cc="http://creativecommons.org/ns#"
   xmlns:rdf="http://www.w3.org/1999/02/22-rdf-syntax-ns#"
   xmlns:svg="http://www.w3.org/2000/svg"
   xmlns="http://www.w3.org/2000/svg"
   xmlns:sodipodi="http://sodipodi.sourceforge.net/DTD/sodipodi-0.dtd"
   xmlns:inkscape="http://www.inkscape.org/namespaces/inkscape"
   width="256"
   height="256"
   viewBox="0 0 256 256"
   id="svg2"
   version="1.1"
   inkscape:version="0.91 r13725"
   sodipodi:docname="mail-encrypted.svg">
  <metadata
     id="metadata18">
    <rdf:RDF>
      <cc:Work
         rdf:about="">
        <dc:format>image/svg+xml</dc:format>
        <dc:type
           rdf:resource="http://purl.org/dc/dcmitype/StillImage" />
        <dc:title></dc:title>
      </cc:Work>
    </rdf:RDF>
  </metadata>
  <defs
     id="defs16" />
  <sodipodi:namedview
     pagecolor="#ffffff"
     bordercolor="#666666"
     borderopacity="1"
     objecttolerance="10"
     gridtolerance="10"
     guidetolerance="10"
     inkscape:pageopacity="0"
     inkscape:pageshadow="2"
     inkscape:window-width="1366"
     inkscape:window-height="704"
     id="namedview14"
     showgrid="false"
     inkscape:zoom="1"
     inkscape:cx="147.46474"
     inkscape:cy="59.289213"
     inkscape:window-x="0"
     inkscape:window-y="27"
     inkscape:window-maximized="1"
     inkscape:current-layer="svg2" />
  <path
     style="fill:#268bd2"
     d="M 16 64 C 0 64 0 64 0 80 L 0 240 C 0 256 0 256 16 256 L 240 256 C 256 256 256 256 256 240 C 256 188.5 256 109.753906 256 80 C 256 64 256 64 240 64 Z "
     id="path4" />
  <g
     style="fill-opacity:.102"
     id="g6">
    <path
       style="fill:#fff"
       d="M 7 64.109375 C 0.25 64.859375 0 68.105469 0 80.09375 L 128 160 L 256 80.09375 C 256 64.109375 256 64.109375 240 64.109375 L 16 64.109375 C 12 64.109375 9.25 63.859375 7 64.109375 Z "
       id="path8" />
    <path
       style="fill:#000"
       d="M 256 80 L 128 160 L 256 240 Z "
       id="path10" />
  </g>
  <g
     id="g4151"
     transform="matrix(0.49549219,0,0,0.49549219,120.07212,129.154)">
    <path
       id="path4141"
       d="m 128,0 c 0,0 79.62294,0.140625 79.70888,56.75 l 0,48.87891 c 0,0 32.29112,0 32.29112,12.83984 l 0,117.16406 C 240,246.40625 228.56641,256 216,256 l -176,0 c -12.566406,0 -24,-9.59375 -24,-20.36719 l 0,-117.16406 c 0,-12.83984 32.771457,-12.9375 32.771457,-12.9375 l -1,-48.78125 C 48.423801,0.0742188 128,0 128,0 Z m 0,28.414062 c 0,0 -47.437418,0 -47.437418,42.503907 l 0,33.717381 94.855178,0 0,-33.717381 C 175.41776,28.414062 128,28.414062 128,28.414062 Z"
       style="fill:#dc322f;fill-opacity:1"
       inkscape:connector-curvature="0"
       sodipodi:nodetypes="cccssssssccccsccsc" />
    <path
       id="path4143"
       d="m 128,139.96361 c -17.67187,0 -32,14.32812 -32,32 0,11.83203 7.30293,21.96484 16.85371,27.5 l 0,36.35444 30.27293,0 0,-36.35444 C 152.67742,193.92845 160,183.79564 160,171.96361 c 0,-17.67188 -14.32813,-32 -32,-32 z"
       style="fill:#000000;fill-opacity:0.10199998;fill-rule:evenodd"
       inkscape:connector-curvature="0"
       sodipodi:nodetypes="ssccccss" />
  </g>
</svg>
