<?xml version="1.0" encoding="UTF-8"?>
<svg xmlns="http://www.w3.org/2000/svg" xmlns:xlink="http://www.w3.org/1999/xlink" width="256px" height="256px" viewBox="0 0 256 256" version="1.1">
<g id="surface1">
<path style=" stroke:none;fill-rule:nonzero;fill:rgb(21.176471%,53.72549%,90.196078%);fill-opacity:1;" d="M 18.964844 256 L 237.035156 256 C 256 256 256 256 256 237.714844 L 256 80 L 128 0 L 0 80 L 0 237.714844 C 0 256 0 256 18.964844 256 Z "/>
<path style=" stroke:none;fill-rule:nonzero;fill:rgb(0%,0%,0%);fill-opacity:0.101961;" d="M 18.964844 256 L 237.035156 256 C 256 256 256 256 256 237.714844 L 256 80 L 128 0 L 0 80 L 0 237.714844 C 0 256 0 256 18.964844 256 Z "/>
<path style=" stroke:none;fill-rule:nonzero;fill:rgb(100%,100%,100%);fill-opacity:1;" d="M 32 32 L 32 224 L 224 224 L 224 32 Z "/>
<path style=" stroke:none;fill-rule:nonzero;fill:rgb(21.176471%,53.72549%,90.196078%);fill-opacity:1;" d="M 16 256 L 240 256 C 256 256 256 256 256 240 L 256 96 L 0 240 C 0 256 0 256 16 256 Z "/>
<path style=" stroke:none;fill-rule:nonzero;fill:rgb(21.176471%,53.72549%,90.196078%);fill-opacity:1;" d="M 240 256 L 16 256 C 0 256 0 256 0 240 L 0 96 L 256 240 C 256 256 256 256 240 256 Z "/>
<path style=" stroke:none;fill-rule:nonzero;fill:rgb(100%,100%,100%);fill-opacity:0.101961;" d="M 237.035156 256 L 18.964844 256 C 0 256 0 256 0 238.035156 L 0 96 L 256 238.035156 C 256 256 256 256 237.035156 256 Z "/>
<path style=" stroke:none;fill-rule:evenodd;fill:rgb(96.862745%,58.039216%,11.764706%);fill-opacity:1;" d="M 227.636719 72.3125 C 239.589844 124.007812 236.355469 117.605469 191.839844 95.796875 C 145.082031 119.523438 146.707031 121.546875 156.339844 71.824219 C 114.304688 36.796875 119.117188 39.96875 170.199219 33.523438 C 193.191406 -12.847656 191.25 -9.566406 214.265625 33.824219 C 268.121094 39.8125 266.851562 37.753906 227.636719 72.3125 Z "/>
</g>
</svg>
