<?xml version="1.0" encoding="UTF-8" standalone="no"?>
<svg
   xmlns:dc="http://purl.org/dc/elements/1.1/"
   xmlns:cc="http://creativecommons.org/ns#"
   xmlns:rdf="http://www.w3.org/1999/02/22-rdf-syntax-ns#"
   xmlns:svg="http://www.w3.org/2000/svg"
   xmlns="http://www.w3.org/2000/svg"
   xmlns:sodipodi="http://sodipodi.sourceforge.net/DTD/sodipodi-0.dtd"
   xmlns:inkscape="http://www.inkscape.org/namespaces/inkscape"
   viewBox="0 0 256 256"
   id="svg2"
   version="1.1"
   inkscape:version="0.91 r13725"
   sodipodi:docname="stock_task-recurring.svg"
   width="256"
   height="256">
  <metadata
     id="metadata98">
    <rdf:RDF>
      <cc:Work
         rdf:about="">
        <dc:format>image/svg+xml</dc:format>
        <dc:type
           rdf:resource="http://purl.org/dc/dcmitype/StillImage" />
        <dc:title></dc:title>
      </cc:Work>
    </rdf:RDF>
  </metadata>
  <sodipodi:namedview
     pagecolor="#ffffff"
     bordercolor="#666666"
     borderopacity="1"
     objecttolerance="10"
     gridtolerance="10"
     guidetolerance="10"
     inkscape:pageopacity="0"
     inkscape:pageshadow="2"
     inkscape:window-width="750"
     inkscape:window-height="982"
     id="namedview96"
     showgrid="true"
     inkscape:zoom="1.7383043"
     inkscape:cx="125.49992"
     inkscape:cy="51.456957"
     inkscape:window-x="520"
     inkscape:window-y="32"
     inkscape:window-maximized="0"
     inkscape:current-layer="svg2"
     inkscape:object-nodes="true"
     inkscape:snap-smooth-nodes="true"
     showguides="false">
    <inkscape:grid
       type="xygrid"
       id="grid4360" />
  </sodipodi:namedview>
  <defs
     id="defs4">
    <path
       id="SVGCleanerId_0"
       d="m 14,12 20,0 c 1.105,0 2,0.895 2,2 l 0,20 c 0,1.105 -0.895,2 -2,2 l -20,0 c -1.105,0 -2,-0.895 -2,-2 l 0,-20 c 0,-1.105 0.895,-2 2,-2 m 0,0"
       inkscape:connector-curvature="0" />
    <clipPath
       id="clipPath-543229327">
      <g
         transform="translate(0,-1004.3622)"
         id="g3857">
        <path
           inkscape:connector-curvature="0"
           d="m -24,13 c 0,1.105 -0.672,2 -1.5,2 -0.828,0 -1.5,-0.895 -1.5,-2 0,-1.105 0.672,-2 1.5,-2 0.828,0 1.5,0.895 1.5,2 z"
           transform="matrix(15.333333,0,0,11.5,414.99999,878.8622)"
           style="fill:#1890d0"
           id="path3859" />
      </g>
    </clipPath>
  </defs>
  <path
     sodipodi:nodetypes="cssssssc"
     id="path3893"
     style="fill:#e6b07f;fill-opacity:1;fill-rule:evenodd;stroke:none"
     d="m 208,48 c 16,0 16,0 16,16 l 0,160 c 0,16 0,16 -16,16 l -160,0 c -16,0 -16,0 -16,-16 L 32,64 C 32,48 32,48 48,48"
     inkscape:connector-curvature="0" />
  <path
     sodipodi:nodetypes="cccc"
     id="path3895"
     style="fill:#ffffff;fill-opacity:1;fill-rule:nonzero;stroke:none"
     d="m 192,48 -128,0 0,160 128,0"
     inkscape:connector-curvature="0" />
  <path
     sodipodi:nodetypes="cccc"
     id="path3897"
     style="fill:#aaaaaa;fill-opacity:1;fill-rule:nonzero;stroke:none"
     d="m 80,16 0,48 96,0 0,-48"
     inkscape:connector-curvature="0" />
  <g
     id="g34"
     transform="matrix(16,0,0,16,-2e-6,-512)" />
  <path
     inkscape:connector-curvature="0"
     style="color:#bebebe;fill:#868686;fill-opacity:1"
     d="m 103.99999,95.999984 47.99996,4e-5 c 24.00001,2.4e-5 24.00001,0 24.00001,23.999996 l 0,31.99999 c 0,23.99999 0,23.99999 -24.00001,23.99999 -8.99973,0 1.29968,-0.0752 -7.69998,-0.0752 3.00633,2.57096 5.80278,6.35768 4.23313,10.51616 -1.66676,6.03992 -10.38118,7.54192 -14.11987,2.59712 -6.96665,-7.02584 -10.83146,-13.9064 -17.61328,-21.11296 7.18787,-7.60144 11.42824,-14.91007 18.83365,-22.29711 4.8637,-4.4976 13.87088,-0.4624 13.48866,6.23848 0.1568,3.48248 -2.55911,5.84702 -4.82229,8.0583 10.04928,-0.0976 -2.33399,0.43088 7.69998,0.0752 8,0 8,0 8,-7.99998 l 0,-31.99999 c 0,-8 0,-8 -8,-8 l -47.99996,-4e-5 c -7.999998,0 -7.999998,0 -7.999998,8 l 0,31.99998 c 0,8 0,8 7.999998,8 l 1e-5,0 c 8,0 8,0 8,8.00001 0,8 0,8 -8,8 l -1e-5,0 C 80,175.99997 80,175.99997 80,151.99996 l 0,-31.99998 c 0,-23.999996 0,-24.000012 23.99999,-23.999996 z"
     id="path4"
     sodipodi:nodetypes="sssssccccccccssssssssssssss" />
</svg>
