<svg width="22" xmlns="http://www.w3.org/2000/svg" viewBox="0 0 22 22" height="22">
<path style="opacity:.3;color:#000" d="M 10.999999,3.0000005 C 6.029441,3.0000005 2,7.0294419 2,12.000001 2,16.970559 6.029441,21 11,21 c 4.970571,0 9,-4.029441 9,-8.999999 0,-4.9705591 -4.029429,-9.0000005 -9,-9.0000005 z m 0,1.2857143 c 4.260485,0 7.714287,3.4538014 7.714287,7.7142862 0,4.260484 -3.453802,7.714285 -7.714287,7.714285 -4.260471,0 -7.714285,-3.453801 -7.714285,-7.714285 0,-4.2604848 3.453814,-7.7142862 7.714285,-7.7142862 z"/>
<path style="opacity:.3" d="m 9.7499995,7.0000007 0,0.9374997 -1.2499995,0 L 8.5,17 l 4.999999,0 0,-9.0624996 -1.25,0 0,-0.9374997 z"/>
<g style="fill:#ef555c">
<path style="color:#000" d="m 11,2.0000001 c -4.9705585,0 -9,4.0294414 -9,8.9999999 0,4.970559 4.0294415,9 9,9 4.970572,0 9,-4.029441 9,-9 0,-4.9705585 -4.029428,-8.9999999 -9,-8.9999999 z m 0,1.2857143 c 4.260484,0 7.714286,3.4538014 7.714286,7.7142856 0,4.260485 -3.453801,7.714286 -7.714286,7.714286 C 6.7395285,18.714286 3.2857145,15.260485 3.2857145,11 3.2857145,6.7395158 6.7395285,3.2857144 11,3.2857144 Z"/>
<path d="m 9.7499995,6.0000003 0,0.9374997 -1.25,0 0,9.0625 5.0000005,0 0,-9.0625 -1.25,0 0,-0.9374997 z"/>
</g>
</svg>
