<svg width="16" xmlns="http://www.w3.org/2000/svg" viewBox="0 0 16 16" height="16">
<g style="fill:#bebebe" transform="matrix(.625 0 0 .5 -7 -506.1811)">
<path style="line-height:normal;color:#000" d="M 18.625,8 C 17.190566,8 16,9.15925 16,10.59375 L 16,37.375 C 16,38.8094 17.190566,40 18.625,40 l 10.75,0 C 30.809434,40 32,38.8094 32,37.375 L 32,10.59375 C 32,9.15925 30.809434,8 29.375,8 l -10.75,0 z m 3.875,2 3,0 c 0.277,0 0.5,0.223 0.5,0.5 0,0.277 -0.223,0.5 -0.5,0.5 l -3,0 C 22.223,11 22,10.777 22,10.5 22,10.223 22.223,10 22.5,10 Z m -4.5,2 12,0 0,24 -12,0 0,-24 z m 6,25 c 0.552285,0 1,0.447715 1,1 0,0.552285 -0.447715,1 -1,1 -0.552285,0 -1,-0.447715 -1,-1 0,-0.552285 0.447715,-1 1,-1 z" transform="translate(0 1004.3622)"/>
</g>
</svg>
