<svg width="16" xmlns="http://www.w3.org/2000/svg" viewBox="0 0 16 16" height="16">
<g style="fill:#bebebe;line-height:normal" transform="matrix(.50001 0 0 .5 -4.00025 -506.1811)">
<path style="color:#000" d="m 14.5625,8 c -1.460083,0 -2.65625,1.19625 -2.65625,2.65625 l 0,26.65625 c 0,1.4601 1.196167,2.6875 2.65625,2.6875 l 18.875,0 c 1.460083,0 2.65625,-1.2274 2.65625,-2.6875 l 0,-26.65625 C 36.09375,9.19625 34.897583,8 33.4375,8 l -18.875,0 z m 0,2 18.875,0 c 0.386678,0 0.65625,0.26965 0.65625,0.65625 l 0,24.625 c 0,0.3867 -0.269572,0.6875 -0.65625,0.6875 l -18.875,0 c -0.386678,0 -0.65625,-0.3008 -0.65625,-0.6875 l 0,-24.625 C 13.90625,10.26965 14.175822,10 14.5625,10 Z M 33,37 c 0.552285,0 1,0.447715 1,1 0,0.552285 -0.447715,1 -1,1 -0.552285,0 -1,-0.447715 -1,-1 0,-0.552285 0.447715,-1 1,-1 z" transform="translate(0 1004.3622)"/>
<path d="m 13,26 22,0 0,1 -22,0 z" transform="translate(0 1004.3622)"/>
<path style="color:#000" d="m 17,13 0,0.5 0,20 0,0.5 0.5,0 13,0 0.5,0 0,-0.5 0,-17.5 0,-1 -2,-2 -11.5,0 z m 1,13 12,0 0,7 -12,0 z" transform="translate(0 1004.3622)"/>
</g>
</svg>
