<?xml version="1.0" encoding="UTF-8" standalone="no"?>
<svg
   xmlns:dc="http://purl.org/dc/elements/1.1/"
   xmlns:cc="http://creativecommons.org/ns#"
   xmlns:rdf="http://www.w3.org/1999/02/22-rdf-syntax-ns#"
   xmlns:svg="http://www.w3.org/2000/svg"
   xmlns="http://www.w3.org/2000/svg"
   xmlns:sodipodi="http://sodipodi.sourceforge.net/DTD/sodipodi-0.dtd"
   xmlns:inkscape="http://www.inkscape.org/namespaces/inkscape"
   width="32"
   height="32"
   id="svg2"
   version="1.1"
   inkscape:version="0.91 r"
   sodipodi:docname="audio-speakers.svg">
  <metadata
     id="metadata104">
    <rdf:RDF>
      <cc:Work
         rdf:about="">
        <dc:format>image/svg+xml</dc:format>
        <dc:type
           rdf:resource="http://purl.org/dc/dcmitype/StillImage" />
        <dc:title />
      </cc:Work>
    </rdf:RDF>
  </metadata>
  <sodipodi:namedview
     pagecolor="#ffffff"
     bordercolor="#666666"
     borderopacity="1"
     objecttolerance="10"
     gridtolerance="10"
     guidetolerance="10"
     inkscape:pageopacity="0"
     inkscape:pageshadow="2"
     inkscape:window-width="1280"
     inkscape:window-height="998"
     id="namedview102"
     showgrid="true"
     inkscape:zoom="13.906434"
     inkscape:cx="31.043914"
     inkscape:cy="6.8691295"
     inkscape:window-x="0"
     inkscape:window-y="0"
     inkscape:window-maximized="1"
     inkscape:current-layer="svg2">
    <inkscape:grid
       type="xygrid"
       id="grid3081"
       empspacing="5"
       visible="true"
       enabled="true"
       snapvisiblegridlinesonly="true" />
  </sodipodi:namedview>
  <defs
     id="defs4" />
  <path
     sodipodi:type="arc"
     style="fill:#073642;fill-opacity:1;stroke:none"
     id="path4009-1-7"
     sodipodi:cx="8"
     sodipodi:cy="6"
     sodipodi:rx="3"
     sodipodi:ry="3"
     d="M 11,6 A 3,3 0 1 1 5,6 3,3 0 1 1 11,6 z"
     transform="matrix(0.9999998,0,0,1.0000055,16.000002,17.999967)" />
  <path
     sodipodi:type="arc"
     style="fill:#073642;fill-opacity:1;stroke:none"
     id="path4009-2"
     sodipodi:cx="8"
     sodipodi:cy="6"
     sodipodi:rx="3"
     sodipodi:ry="3"
     d="M 11,6 A 3,3 0 1 1 5,6 3,3 0 1 1 11,6 z"
     transform="matrix(0.9999998,0,0,1.0000055,16.000002,1.999967)" />
  <path
     sodipodi:type="arc"
     style="fill:#073642;fill-opacity:1;stroke:none"
     id="path4009-1"
     sodipodi:cx="8"
     sodipodi:cy="6"
     sodipodi:rx="3"
     sodipodi:ry="3"
     d="M 11,6 A 3,3 0 1 1 5,6 3,3 0 1 1 11,6 z"
     transform="matrix(0.9999998,0,0,1.0000055,1e-6,17.999967)" />
  <path
     sodipodi:type="arc"
     style="fill:#073642;fill-opacity:1;stroke:none"
     id="path4009"
     sodipodi:cx="8"
     sodipodi:cy="6"
     sodipodi:rx="3"
     sodipodi:ry="3"
     d="M 11,6 A 3,3 0 1 1 5,6 3,3 0 1 1 11,6 z"
     transform="matrix(0.9999998,0,0,1.0000055,1.6e-6,1.9999835)" />
  <path
     sodipodi:type="arc"
     style="fill:#073642;fill-opacity:1;stroke:none"
     id="path3906"
     sodipodi:cx="24"
     sodipodi:cy="24"
     sodipodi:rx="16"
     sodipodi:ry="16"
     d="M 40,24 A 16,16 0 1 1 8,24 16,16 0 1 1 40,24 z"
     transform="matrix(0.74999987,0,0,0.75000412,-1.9999968,-2.0001628)" />
  <path
     sodipodi:type="arc"
     style="fill:#657b83;fill-opacity:1;stroke:none"
     id="path3908"
     sodipodi:cx="24"
     sodipodi:cy="24"
     sodipodi:rx="13"
     sodipodi:ry="13"
     d="m 37,24 a 13,13 0 1 1 -26,0 13,13 0 1 1 26,0 z"
     transform="matrix(0.74999987,0,0,0.75000412,-1.9999968,-2.0001628)" />
  <path
     style="fill:#fdf6e3;fill-opacity:0.25301208;stroke:none"
     d="m 16,15.999937 0.79761,9.701108 c 2.302777,-0.18808 4.442824,-1.188648 6.061938,-2.791824 L 16,15.999937 z"
     id="path3912"
     inkscape:connector-curvature="0" />
  <path
     inkscape:connector-curvature="0"
     style="fill:#268bd2;fill-opacity:0.25301208;stroke:none"
     d="m 16,15.999937 5.541277,8.002598 c 1.900228,-1.314271 3.253278,-3.250823 3.853892,-5.448777 L 16,15.999937 z"
     id="path3912-4"
     inkscape:transform-center-x="-14.092751"
     inkscape:transform-center-y="12.003898" />
  <path
     sodipodi:type="arc"
     style="fill:none;stroke:#fdf6e3;stroke-width:2;stroke-miterlimit:4;stroke-opacity:0.1566265;stroke-dasharray:none"
     id="path3908-5"
     sodipodi:cx="24"
     sodipodi:cy="24"
     sodipodi:rx="13"
     sodipodi:ry="13"
     d="m 37,24 a 13,13 0 1 1 -26,0 13,13 0 1 1 26,0 z"
     transform="matrix(0.74999987,0,0,0.75000412,-1.9999968,-2.0001628)" />
  <path
     style="fill:#073642;fill-opacity:0.26104419;stroke:none"
     d="M 16,15.999937 15.20239,6.2988283 C 12.899614,6.4868893 10.759567,7.4874763 9.1404502,9.090651 L 16,15.999937 z"
     id="path3912-9"
     inkscape:connector-curvature="0" />
  <path
     inkscape:connector-curvature="0"
     style="fill:#002b36;fill-opacity:0.14457834;stroke:none"
     d="M 16,15.999937 10.458723,7.9973378 C 8.5584953,9.3116064 7.2054461,11.248161 6.6048326,13.446116 L 16,15.999937 z"
     id="path3912-4-3"
     inkscape:transform-center-x="14.092751"
     inkscape:transform-center-y="-12.003898" />
  <path
     sodipodi:type="arc"
     style="fill:#073642;fill-opacity:1;stroke:none"
     id="path3910"
     sodipodi:cx="23.5"
     sodipodi:cy="22.5"
     sodipodi:rx="3.5"
     sodipodi:ry="3.5"
     d="m 27,22.5 a 3.5,3.5 0 1 1 -7,0 3.5,3.5 0 1 1 7,0 z"
     transform="matrix(1.1428571,0,0,1.1428571,-10.857143,-9.7142857)" />
</svg>
