<?xml version="1.0" encoding="UTF-8" standalone="no"?>
<svg
   xmlns:dc="http://purl.org/dc/elements/1.1/"
   xmlns:cc="http://creativecommons.org/ns#"
   xmlns:rdf="http://www.w3.org/1999/02/22-rdf-syntax-ns#"
   xmlns:svg="http://www.w3.org/2000/svg"
   xmlns="http://www.w3.org/2000/svg"
   xmlns:sodipodi="http://sodipodi.sourceforge.net/DTD/sodipodi-0.dtd"
   xmlns:inkscape="http://www.inkscape.org/namespaces/inkscape"
   width="32"
   height="32"
   viewBox="0 0 32 32"
   id="svg2"
   version="1.1"
   inkscape:version="0.48.4 r9939"
   sodipodi:docname="harddrive.svg">
  <metadata
     id="metadata16">
    <rdf:RDF>
      <cc:Work
         rdf:about="">
        <dc:format>image/svg+xml</dc:format>
        <dc:type
           rdf:resource="http://purl.org/dc/dcmitype/StillImage" />
      </cc:Work>
    </rdf:RDF>
  </metadata>
  <defs
     id="defs14" />
  <sodipodi:namedview
     pagecolor="#ffffff"
     bordercolor="#666666"
     borderopacity="1"
     objecttolerance="10"
     gridtolerance="10"
     guidetolerance="10"
     inkscape:pageopacity="0"
     inkscape:pageshadow="2"
     inkscape:window-width="1366"
     inkscape:window-height="704"
     id="namedview12"
     showgrid="true"
     inkscape:zoom="10.429825"
     inkscape:cx="16"
     inkscape:cy="16"
     inkscape:window-x="0"
     inkscape:window-y="27"
     inkscape:window-maximized="1"
     inkscape:current-layer="svg2">
    <inkscape:grid
       type="xygrid"
       id="grid2993" />
  </sodipodi:namedview>
  <rect
     style="fill:#839496;fill-opacity:1;stroke:none"
     id="rect3011"
     width="18"
     height="22"
     x="7"
     y="5"
     ry="1.375" />
  <rect
     style="opacity:0.46366781;fill:#fdf6e3;fill-opacity:1;stroke:none"
     id="rect3781"
     width="3"
     height="22"
     x="20.007496"
     y="5" />
  <path
     style="fill:#073642;fill-opacity:1"
     d="m 16.058595,7.9768545 c -0.967908,-0.010049 -1.949124,0.2100007 -2.864461,0.6950524 -2.92908,1.5521681 -4.0163934,5.1799691 -2.464278,8.1089571 1.286459,2.427667 3.989809,3.601006 6.550347,3.05402 l -1.116297,-3.938632 c -0.03661,0.002 -0.06821,0.02106 -0.105311,0.02106 -1.116704,0 -2.021972,-0.905268 -2.021972,-2.021972 0,-1.116704 0.905268,-2.021972 2.021972,-2.021972 1.116704,0 2.021971,0.905268 2.021971,2.021972 0,0.499232 -0.184568,0.953133 -0.48443,1.305856 l 2.590652,3.096145 C 22.065195,16.484688 22.60724,13.578565 21.324147,11.157252 20.257069,9.1435638 18.187991,7.9989535 16.058595,7.9768525 z"
     id="path6"
     inkscape:connector-curvature="0" />
  <path
     style="fill:#073642;fill-opacity:1;stroke:none"
     d="m 17.870744,17.813557 2.0625,6.1875 2.0625,0 0,-1.375 z"
     id="path3879"
     inkscape:connector-curvature="0"
     sodipodi:nodetypes="ccccc" />
  <path
     style="opacity:0.49480968;fill:#93a1a1;fill-opacity:1"
     d="m 10.351167,15.748237 c 0.537575,1.685741 1.825696,3.084433 3.545703,3.757182 l 1.41175,-3.762083 c -0.204063,-0.08118 -0.387439,-0.195396 -0.563024,-0.347003 -0.283415,-0.244712 -0.490523,-0.550901 -0.602209,-0.881724 l -3.79222,1.233628 z"
     id="path6-5"
     inkscape:connector-curvature="0" />
  <path
     inkscape:connector-curvature="0"
     style="opacity:0.24567476;fill:#268bd2;fill-opacity:1"
     d="m 10.179019,12.662287 c -0.377315,1.728682 0.03888,3.584047 1.192077,5.026667 l 3.103653,-2.552185 c -0.13613,-0.17234 -0.237834,-0.362938 -0.314091,-0.582025 -0.123089,-0.353634 -0.149355,-0.722356 -0.08066,-1.064701 l -3.900972,-0.827756 z"
     id="path6-5-8"
     inkscape:transform-center-x="3.7643349"
     inkscape:transform-center-y="1.2915912" />
  <path
     inkscape:connector-curvature="0"
     style="opacity:0.49480968;fill:#93a1a1;fill-opacity:1"
     d="M 21.682496,11.979397 C 21.132907,10.297535 19.834839,8.9080615 18.110077,8.2476026 l -1.384873,3.7720664 c 0.204636,0.07973 0.388824,0.192626 0.565486,0.342978 0.285153,0.242682 0.49444,0.547386 0.608485,0.877404 l 3.783321,-1.260654 z"
     id="path6-5-9" />
  <path
     inkscape:connector-curvature="0"
     style="opacity:0.19031145;fill:#268bd2;fill-opacity:1"
     d="m 21.876657,15.064041 c 0.364973,-1.731329 -0.06446,-3.583677 -1.227911,-5.018033 l -3.085365,2.574264 c 0.137356,0.171363 0.240417,0.361229 0.318236,0.579769 0.125609,0.352747 0.154505,0.721271 0.08826,1.064097 l 3.906779,0.799903 z"
     id="path6-5-8-1"
     inkscape:transform-center-x="-3.7597156"
     inkscape:transform-center-y="-1.3290048" />
</svg>
