<?xml version="1.0" encoding="UTF-8" standalone="no"?>
<svg
   xmlns:dc="http://purl.org/dc/elements/1.1/"
   xmlns:cc="http://creativecommons.org/ns#"
   xmlns:rdf="http://www.w3.org/1999/02/22-rdf-syntax-ns#"
   xmlns:svg="http://www.w3.org/2000/svg"
   xmlns="http://www.w3.org/2000/svg"
   xmlns:sodipodi="http://sodipodi.sourceforge.net/DTD/sodipodi-0.dtd"
   xmlns:inkscape="http://www.inkscape.org/namespaces/inkscape"
   width="32"
   height="32"
   viewBox="0 0 32 32"
   id="svg2"
   version="1.1"
   inkscape:version="0.91 r"
   sodipodi:docname="media-optical-dvd.svg">
  <metadata
     id="metadata14">
    <rdf:RDF>
      <cc:Work
         rdf:about="">
        <dc:format>image/svg+xml</dc:format>
        <dc:type
           rdf:resource="http://purl.org/dc/dcmitype/StillImage" />
      </cc:Work>
    </rdf:RDF>
  </metadata>
  <defs
     id="defs12" />
  <sodipodi:namedview
     pagecolor="#ffffff"
     bordercolor="#666666"
     borderopacity="1"
     objecttolerance="10"
     gridtolerance="10"
     guidetolerance="10"
     inkscape:pageopacity="0"
     inkscape:pageshadow="2"
     inkscape:window-width="1920"
     inkscape:window-height="1056"
     id="namedview10"
     showgrid="true"
     inkscape:zoom="14.75"
     inkscape:cx="-10.943384"
     inkscape:cy="6.8649007"
     inkscape:window-x="0"
     inkscape:window-y="24"
     inkscape:window-maximized="1"
     inkscape:current-layer="svg2">
    <inkscape:grid
       type="xygrid"
       id="grid4194" />
  </sodipodi:namedview>
  <g
     id="g4154"
     transform="translate(0,-2.5000001e-6)">
    <g
       style="fill:#eee8d5"
       id="g18"
       transform="matrix(0.6875,0,0,0.6875,-0.5,-690.99901)">
      <path
         id="path20"
         transform="translate(0,1004.3622)"
         d="M 24,8 C 15.163444,8 8,15.163444 8,24 8,32.836556 15.163444,40 24,40 32.836556,40 40,32.836556 40,24 40,15.163444 32.836556,8 24,8 Z m 0,11 c 2.755501,0 5,2.2445 5,5 0,2.7555 -2.244499,5 -5,5 -2.755501,0 -5,-2.2445 -5,-5 0,-2.7555 2.244499,-5 5,-5 z m 0,1 c -2.215061,0 -4,1.7849 -4,4 0,2.2151 1.784939,4 4,4 2.215061,0 4,-1.7849 4,-4 0,-2.2151 -1.784939,-4 -4,-4 z m 0,1.5 c 1.380712,0 2.5,1.119288 2.5,2.5 0,1.380712 -1.119288,2.5 -2.5,2.5 -1.380712,0 -2.5,-1.119288 -2.5,-2.5 0,-1.380712 1.119288,-2.5 2.5,-2.5 z"
         style="fill:#eee8d5"
         inkscape:connector-curvature="0" />
    </g>
    <path
       inkscape:transform-center-y="-6.0653013"
       inkscape:transform-center-x="3.9322161"
       inkscape:connector-curvature="0"
       id="path20-4"
       d="m 14.809185,14.771074 c 0.267699,-0.259253 0.611873,-0.433616 0.983462,-0.479724 l -0.133652,-1.010063 c -0.593643,0.07362 -1.135832,0.333898 -1.563014,0.748343 l 0.713204,0.741444 z m -1.190816,-1.228907 c 0.533597,-0.513108 1.222757,-0.845548 1.9605,-0.938946 L 14.621906,5.0982832 C 12.257968,5.399952 10.047142,6.4552841 8.3429206,8.1057225 l 5.2754484,5.4364445 z"
       style="opacity:0.25605535;fill:#657b83" />
    <path
       inkscape:transform-center-y="4.9199386"
       inkscape:transform-center-x="-5.6173139"
       id="path20-4-3"
       d="M 17.604113,16.595858 C 17.474245,16.945155 17.23879,17.2508 16.923332,17.45252 l 0.555826,0.853902 c 0.503986,-0.322227 0.881115,-0.790718 1.088034,-1.348781 l -0.963074,-0.36178 z m 1.604115,0.595878 c -0.260436,0.692949 -0.739098,1.289892 -1.3646,1.692053 l 4.097299,6.36019 c 2.003256,-1.290802 3.543605,-3.195744 4.370369,-5.41943 l -7.103068,-2.632813 z"
       style="opacity:0.46366781;fill:#fffefb;fill-opacity:1"
       inkscape:connector-curvature="0" />
    <path
       inkscape:transform-center-y="6.0173286"
       inkscape:transform-center-x="-4.0956549"
       inkscape:connector-curvature="0"
       id="path20-4-2"
       d="m 17.232537,17.187037 c -0.258589,0.268341 -0.596537,0.454484 -0.966313,0.513395 l 0.168449,1.004845 c 0.590746,-0.09408 1.123625,-0.372915 1.536242,-0.801863 l -0.738364,-0.71639 z m 1.232539,1.187056 c -0.515583,0.531207 -1.192834,0.887262 -1.926912,1.006078 l 1.215521,7.467422 c 2.352112,-0.383111 4.525182,-1.514149 6.171401,-3.222447 l -5.460009,-5.251055 z"
       style="opacity:0.25605535;fill:#657b83" />
    <path
       inkscape:transform-center-y="-4.9903822"
       inkscape:transform-center-x="5.56642"
       id="path20-4-3-7"
       d="m 14.40744,15.373877 c 0.13645,-0.346779 0.377643,-0.647917 0.696858,-0.843637 l -0.539581,-0.864259 c -0.509988,0.312641 -0.895908,0.773917 -1.113343,1.327968 l 0.956056,0.379944 z m -1.592562,-0.6261 c 0.273518,-0.687891 0.763357,-1.275686 1.396351,-1.665948 L 10.234923,6.6453025 c -2.0273051,1.252694 -3.6033982,3.12817 -4.4720604,5.3358245 l 7.0520154,2.766651 z"
       style="opacity:0.42560556;fill:#fffefb;fill-opacity:1"
       inkscape:connector-curvature="0" />
    <path
       inkscape:connector-curvature="0"
       id="path3008"
       d="m 16,12 c -2.209139,0 -4,1.790861 -4,4 0,2.209139 1.790861,4 4,4 2.209139,0 4,-1.790861 4,-4 0,-2.209139 -1.790861,-4 -4,-4 z m 0,1 c 1.656854,0 3,1.343146 3,3 0,1.656854 -1.343146,3 -3,3 -1.656854,0 -3,-1.343146 -3,-3 0,-1.656854 1.343146,-3 3,-3 z"
       style="fill:#657b83;fill-opacity:1;stroke:none" />
  </g>
  <path
     inkscape:connector-curvature="0"
     style="fill:#268bd2"
     d="m 5.4561283,19.998106 5.9080967,0 2.94096,0 c 0.05411,0 0.10904,-0.0087 0.163977,0 0.06559,0.0087 0.08527,0.101405 0.108228,0.163453 0.07461,0.195212 0.119706,0.404579 0.173819,0.60842 0.132825,0.501408 0.302541,0.992546 0.455035,1.487394 0.155781,0.507017 0.289422,1.018781 0.422241,1.532357 0.06067,0.234736 0.110686,0.464728 0.126264,0.70706 0.0025,0.03106 0.02542,0.06386 0.0451,0.06386 0.01313,-0.04401 0.02951,-0.08639 0.04755,-0.127725 0.04427,-0.0996 0.09839,-0.194435 0.154137,-0.285396 0.113143,-0.182182 0.239409,-0.352195 0.359113,-0.530578 0.134463,-0.200045 0.262365,-0.406563 0.399286,-0.604708 0.295981,-0.42529 0.607534,-0.834787 0.912528,-1.251621 0.313197,-0.426325 0.626395,-0.852651 0.9396,-1.27889 0.06724,-0.092 0.137742,-0.181145 0.200874,-0.276939 0.05001,-0.07422 0.100034,-0.162417 0.182016,-0.19245 0.149219,-0.05351 0.323852,-0.02676 0.476353,-0.01985 0.453398,0.02245 0.910046,0.0087 1.364304,0.0087 l 1.455321,0 c 0.485371,0 0.970744,0 1.45532,0 0.238587,0 0.477996,-0.0087 0.716609,0.01381 0.219728,0.02071 0.437004,0.05091 0.654255,0.09484 0.800237,0.158621 1.618438,0.494763 2.2104,1.153063 0.277944,0.31077 0.506691,0.691961 0.609179,1.124845 0.09675,0.404752 0.0779,0.831939 -0.02461,1.230994 -0.206612,0.806567 -0.714124,1.504221 -1.315896,1.969038 -0.374686,0.288244 -0.751004,0.553964 -1.1659,0.759619 -0.409125,0.200908 -0.834632,0.355818 -1.269209,0.462916 -0.917434,0.227144 -1.857033,0.185893 -2.789243,0.185893 l -2.183396,0 c 0.01968,-0.252602 0.09429,-0.499509 0.14594,-0.745465 0.05494,-0.269518 0.111508,-0.539985 0.167257,-0.809415 0.113143,-0.546543 0.226289,-1.093 0.340256,-1.639456 0.06395,-0.310855 0.124621,-0.622574 0.186116,-0.935154 0.0287,-0.149301 0.05985,-0.29584 0.09429,-0.444191 0.01887,-0.07767 0.03443,-0.192537 0.08199,-0.256313 0.02296,-0.03279 0.07872,-0.0371 0.11232,-0.04056 0.07378,-0.0095 0.14922,-0.0095 0.223008,-0.0087 0.174633,0.0087 0.348451,0.0095 0.523091,0.0095 l 1.49793,0 c -0.03034,0.267619 -0.09838,0.52583 -0.154136,0.78689 -0.05985,0.277888 -0.115602,0.559574 -0.172996,0.84031 -0.118061,0.567082 -0.240224,1.13425 -0.343535,1.70608 0.44766,0 0.894505,0.01898 1.337234,-0.05264 0.225467,-0.0371 0.461597,-0.109852 0.677248,-0.192451 0.199232,-0.07422 0.392723,-0.168027 0.573924,-0.285483 0.552607,-0.358665 0.996159,-0.982189 1.022399,-1.734213 0.01074,-0.318363 -0.06477,-0.638539 -0.239408,-0.890106 -0.213989,-0.311719 -0.545225,-0.48078 -0.871512,-0.585896 -0.814122,-0.264857 -1.692258,-0.168114 -2.529374,-0.163367 -0.24269,0 -0.484551,0 -0.728076,0.0087 -0.116424,0 -0.232848,0 -0.350093,0 -0.118884,0 -0.252524,-0.01726 -0.36977,0.0087 -0.100022,0.01898 -0.168894,0.155772 -0.231206,0.235601 -0.08527,0.109851 -0.169716,0.217909 -0.254988,0.32777 -0.163978,0.210228 -0.327134,0.419595 -0.491934,0.629046 -0.654253,0.837548 -1.302011,1.681656 -1.952953,2.523002 -0.51325,0.663826 -1.021571,1.332398 -1.539778,1.991477 -0.313197,0.398105 -0.638712,0.787838 -0.936287,1.201909 -0.0287,0.04056 -0.07134,0.08639 -0.08772,0.137133 -8.25e-4,0 -8.25e-4,0.0087 -8.25e-4,0.0087 -0.0328,0 -0.03608,0.0112 -0.04345,-0.0302 -0.01147,-0.05965 -0.02459,-0.117557 -0.04099,-0.175723 -0.0328,-0.124925 -0.07462,-0.246954 -0.116429,-0.369069 -0.173819,-0.509865 -0.323039,-1.032847 -0.482914,-1.54746 -0.327955,-1.062965 -0.656738,-2.126709 -0.984694,-3.189675 -0.101668,-0.327683 -0.205792,-0.655368 -0.306636,-0.982101 -0.05083,-0.158709 -0.100023,-0.316466 -0.150041,-0.475173 -0.02624,-0.08457 -0.06394,-0.337091 -0.17382,-0.337091 0,0.1493 0.03608,0.283585 0.07625,0.42624 0.05166,0.191587 0.08034,0.383174 0.09593,0.583133 0.04018,0.493037 -0.0032,0.998154 -0.172174,1.458223 -0.314835,0.854465 -1.005203,1.509833 -1.685699,1.973699 -0.717374,0.488204 -1.5233438,0.789652 -2.3440923,0.939815 -0.4443791,0.08199 -0.8879432,0.109006 -1.3364055,0.10616 -0.4796339,0 -0.9584517,-0.0087 -1.4380599,-0.0087 l -1.4627118,0 -0.3509106,0 c 0,-0.125825 0.05001,-0.261922 0.07789,-0.384037 0.060675,-0.261923 0.1115074,-0.527729 0.1656141,-0.791551 0.2279318,-1.090065 0.4533989,-2.181165 0.6829798,-3.270367 0.0246,-0.120217 0.05001,-0.239484 0.075432,-0.358752 0.00902,-0.04401 -8.251e-4,-0.06472 0.042638,-0.06472 l 0.08773,0 0.175455,0 0.7042535,0 1.3774239,0 c -0.2303902,1.109829 -0.4599591,2.222504 -0.68954,3.332332 0.4632389,0 0.9313827,0.02675 1.3880612,-0.06041 0.229569,-0.04229 0.45422,-0.11737 0.673108,-0.202808 0.178734,-0.0699 0.3533678,-0.142655 0.5173508,-0.247855 0.611638,-0.391633 1.1109338,-1.151165 1.0330368,-1.986816 -0.08609,-0.929546 -0.9445028,-1.27984 -1.6463356,-1.366227 -0.4247046,-0.05351 -0.8534853,-0.04056 -1.2798467,-0.0397 -0.4878306,0 -0.9748211,0 -1.4627086,0 l -0.5583457,0 -0.1172459,0 c -0.032798,0 -0.1180611,0.01985 -0.1180611,-0.02071 0,-0.100538 0.040995,-0.215062 0.06231,-0.311806 0.08847,-0.408201 0.1762387,-0.815713 0.2639436,-1.223915"
     id="path8-5" />
</svg>
