<svg xmlns="http://www.w3.org/2000/svg" viewBox="0 0 32 32" xmlns:xlink="http://www.w3.org/1999/xlink">
<defs>
<filter width="1.297" x="-.148" y="-.164" height="1.329" id="filter3212">
<feGaussianBlur stdDeviation=".77392"/>
</filter>
<linearGradient gradientTransform="matrix(.65714 0 0 .63012 .22855 -.08965)" id="linearGradient2624" y1=".985" y2="47.013" gradientUnits="userSpaceOnUse" x2="0">
<stop offset="0" style="stop-color:#f4f4f4"/>
<stop offset="1" style="stop-color:#dbdbdb"/>
</linearGradient>
<linearGradient gradientTransform="matrix(.63636 0 0 .62791 .72725 .93022)" id="linearGradient2618" y1="2" y2="46.017" gradientUnits="userSpaceOnUse" x2="0">
<stop offset="0" style="stop-color:#fff"/>
<stop offset="1" style="stop-color:#fff;stop-opacity:0"/>
</linearGradient>
<linearGradient gradientTransform="translate(-4.9821 -5.0421)" id="linearGradient2611" xlink:href="#linearGradient3104" y1="36.042" y2="6.042" gradientUnits="userSpaceOnUse" x2="0"/>
<linearGradient id="linearGradient3104">
<stop offset="0" style="stop-color:#aaa"/>
<stop offset="1" style="stop-color:#c8c8c8"/>
</linearGradient>
<linearGradient gradientTransform="matrix(.53064 0 0 .5897 39.27 -.79191)" id="linearGradient2626" xlink:href="#linearGradient3104" y1="50.786" y2="2.906" gradientUnits="userSpaceOnUse" x2="0"/>
<linearGradient gradientTransform="matrix(.04577 0 0 .00824 -.54232 26.981)" id="linearGradient2635" y1="366.65" y2="609.51" gradientUnits="userSpaceOnUse" x2="0">
<stop offset="0" style="stop-opacity:0"/>
<stop offset=".5"/>
<stop offset="1" style="stop-opacity:0"/>
</linearGradient>
<linearGradient gradientTransform="matrix(.63713 0 0 .64456 .82968 .74452)" id="linearGradient2614" y1="8.059" y2="5.457" x1="32.892" gradientUnits="userSpaceOnUse" x2="36.358">
<stop offset="0" style="stop-color:#fefefe"/>
<stop offset="1" style="stop-color:#cbcbcb"/>
</linearGradient>
<linearGradient id="linearGradient5060">
<stop offset="0"/>
<stop offset="1" style="stop-opacity:0"/>
</linearGradient>
<radialGradient cx="605.71" cy="486.65" gradientTransform="matrix(-.01566 0 0 .00824 14.39 26.981)" id="radialGradient2632" xlink:href="#linearGradient5060" r="117.14" gradientUnits="userSpaceOnUse"/>
<radialGradient cx="605.71" cy="486.65" gradientTransform="matrix(.01566 0 0 .00824 17.61 26.981)" id="radialGradient2629" xlink:href="#linearGradient5060" r="117.14" gradientUnits="userSpaceOnUse"/>
<radialGradient cx="102" cy="112.3" gradientTransform="matrix(.23404 0 0 -.2543 1.0213 32.289)" id="radialGradient2621" r="139.56" gradientUnits="userSpaceOnUse">
<stop offset="0" style="stop-color:#b7b8b9"/>
<stop offset=".189" style="stop-color:#ececec"/>
<stop offset=".257" style="stop-color:#fafafa;stop-opacity:0"/>
<stop offset=".301" style="stop-color:#fff;stop-opacity:0"/>
<stop offset=".531" style="stop-color:#fafafa;stop-opacity:0"/>
<stop offset=".845" style="stop-color:#ebecec;stop-opacity:0"/>
<stop offset="1" style="stop-color:#e1e2e3;stop-opacity:0"/>
</radialGradient>
</defs>
<rect width="22.1" x="4.95" y="30" height="2" style="opacity:.15;fill:url(#linearGradient2635)"/>
<path style="opacity:.15;fill:url(#radialGradient2632)" d="m4.95 30v2c-0.8066 0.004-1.95-0.448-1.95-1s0.9001-1 1.95-1z"/>
<path style="opacity:.15;fill:url(#radialGradient2629)" d="m27.05 30v2c0.807 0.004 1.95-0.448 1.95-1s-0.9-1-1.95-1z"/>
<path style="fill:url(#linearGradient2624);stroke:url(#linearGradient2626);stroke-linejoin:round" d="m4.5 1.5h15.811c0.925 0.3128 5.892 3.8764 7.189 6.3438v22.656h-23v-29z"/>
<path style="fill:url(#radialGradient2621)" d="m5.234 30c-0.1289 0-0.234-0.114-0.234-0.254v-27.464c0-0.1407 0.1051-0.2546 0.234-0.2546 4.842 0.0703 10.208-0.1052 15.044 0.0175l6.653 5.7695 0.069 21.932c0 0.14-0.105 0.254-0.234 0.254h-21.532z"/>
<g style="fill:none">
<path style="opacity:.6;stroke:url(#linearGradient2618)" d="m26.5 8.139v21.361h-21v-27h14.551"/>
<path style="stroke:url(#linearGradient2611)" d="m8 6.505h2.344-2.344zm2.688 0h2.187-2.187zm2.531 0h1.937-1.937zm2.25 0h0.843-0.843zm1.187 0h1.875-1.875zm2.25 0h4.938-4.938zm-10.906 2h3.656-3.656zm4.062 0h1.75-1.75zm2.063 0h0.875-0.875zm1.219 0h1.594-1.594zm1.937 0h1.625-1.625zm1.938 0h2.593-2.593zm-11.219 1.995h4.281-4.281zm4.625 0h4.625-4.625zm4.937 0h1.844-1.844zm2.157 0zm-11.719 2h1.5938-1.5938zm2.094 0h5.906-5.906zm-2.094 3.037h3.094-3.094zm3.406 0h5.063-5.063zm5.375 0h2.469-2.469zm2.781 0h2.313-2.313zm-11.562 1.963h2.344-2.344zm2.688 0h2.156-2.156zm2.531 0h1.937-1.937zm2.25 0h0.843-0.843zm1.187 0h1.875-1.875zm2.25 0h4.906-4.906zm-10.906 2.075h4.281-4.281zm4.625 0h4.625-4.625zm4.937 0h1.844-1.844zm-9.562 2.925h3.094-3.094zm3.406 0h5.063-5.063zm5.375 0h2.469-2.469zm2.781 0h2.313-2.313zm-11.562 2h3.875-3.875zm4.219 0h1.219-1.219zm1.531 0h2.781-2.781zm3.094 0h4.094-4.094zm-8.844 2h3.875-3.875zm4.219 0h1.75-1.75zm2.062 0h2.75-2.75zm3.063 0h2.968-2.968zm3.312 0h1.188-1.188z"/>
</g>
<g style="fill-rule:evenodd">
<path style="opacity:.4;filter:url(#filter3212)" d="m28.617 0.92126c4.283 0 2.154 8.4831 2.154 8.4831s10.357-1.8023 10.357 2.8186c0-2.6095-11.302-10.728-12.511-11.302z" transform="matrix(.6386 0 0 .61936 .72508 1.4294)"/>
<path style="fill:url(#linearGradient2614)" d="m19 2c2.035 0 1.492 4.7455 1.492 4.7455s6.497-0.6076 6.497 2.2545c0-0.6974 0.055-1.1968-0.085-1.4144-1.008-1.5634-5.361-5.0716-6.933-5.5314-0.118-0.0344-0.379-0.0542-0.971-0.0542z"/>
</g>
</svg>
