<?xml version="1.0" encoding="UTF-8" standalone="no"?>
<svg
   xmlns:dc="http://purl.org/dc/elements/1.1/"
   xmlns:cc="http://creativecommons.org/ns#"
   xmlns:rdf="http://www.w3.org/1999/02/22-rdf-syntax-ns#"
   xmlns:svg="http://www.w3.org/2000/svg"
   xmlns="http://www.w3.org/2000/svg"
   xmlns:sodipodi="http://sodipodi.sourceforge.net/DTD/sodipodi-0.dtd"
   xmlns:inkscape="http://www.inkscape.org/namespaces/inkscape"
   width="32px"
   height="32px"
   viewBox="0 0 24 24"
   version="1.1"
   id="svg2"
   inkscape:version="0.91 r"
   sodipodi:docname="face-in-love.svg">
  <metadata
     id="metadata19">
    <rdf:RDF>
      <cc:Work
         rdf:about="">
        <dc:format>image/svg+xml</dc:format>
        <dc:type
           rdf:resource="http://purl.org/dc/dcmitype/StillImage" />
        <dc:title />
      </cc:Work>
    </rdf:RDF>
  </metadata>
  <defs
     id="defs17" />
  <sodipodi:namedview
     pagecolor="#ffffff"
     bordercolor="#666666"
     borderopacity="1"
     objecttolerance="10"
     gridtolerance="10"
     guidetolerance="10"
     inkscape:pageopacity="0"
     inkscape:pageshadow="2"
     inkscape:window-width="1920"
     inkscape:window-height="1056"
     id="namedview15"
     showgrid="false"
     inkscape:zoom="14.75"
     inkscape:cx="-4.7054738"
     inkscape:cy="12.865172"
     inkscape:window-x="0"
     inkscape:window-y="24"
     inkscape:window-maximized="1"
     inkscape:current-layer="svg2" />
  <path
     inkscape:connector-curvature="0"
     id="path5-9"
     d="m 22.5,11.999999 c 0,4.971775 -4.703124,9 -10.500001,9 -5.7968749,0 -10.499999,-4.028225 -10.499999,-9 0,-4.9717727 4.6985671,-8.9999987 10.499999,-8.9999987 5.801432,0 10.500001,4.028226 10.500001,8.9999987 z m 0,0"
     style="fill:#ffd95c;fill-opacity:1;fill-rule:nonzero;stroke:none" />
  <path
     inkscape:connector-curvature="0"
     id="path13-8"
     d="m 7.4999994,14.25 c 0.372239,1.881585 2.274222,3.187499 4.5025496,3.187499 2.228328,0 4.130312,-1.305914 4.49745,-3.187499 l -0.75,0 c -0.275355,1.121813 -1.804674,1.882116 -3.74745,1.882116 -1.942776,0 -3.4771946,-0.760303 -3.7525496,-1.882116 z"
     style="fill:#636363;fill-opacity:1;fill-rule:nonzero;stroke:none"
     sodipodi:nodetypes="csccscc" />
  <path
     inkscape:connector-curvature="0"
     style="fill:#ff6666;fill-opacity:1;fill-rule:nonzero;stroke:none"
     d="m 7.9801585,12.391131 c -0.09667,-0.109851 -0.338328,-0.320752 -0.540446,-0.470143 -0.588778,-0.443782 -0.667869,-0.50969 -0.905137,-0.729383 -0.443782,-0.404236 -0.628324,-0.812866 -0.628324,-1.3664941 0,-0.2680262 0.01758,-0.3734791 0.09227,-0.5316584 0.131817,-0.2724205 0.320754,-0.4701444 0.562416,-0.5931728 0.166967,-0.087877 0.254845,-0.127422 0.540446,-0.127422 0.298783,-0.0044 0.360297,0.030757 0.536052,0.127422 0.2153,0.1186348 0.434993,0.3690851 0.478932,0.5492346 l 0.03075,0.1098465 0.0659,-0.1537857 c 0.391056,-0.856805 1.643309,-0.8436231 2.0783025,0.021969 0.140604,0.2768142 0.153785,0.8611989 0.03075,1.1907399 -0.158179,0.434993 -0.4613565,0.760139 -1.1511945,1.265434 -0.456962,0.329541 -0.971046,0.830442 -1.006197,0.900743 -0.04394,0.07909 -0.0044,0.01318 -0.184542,-0.19333 z m 0,0"
     id="path4144" />
  <path
     inkscape:connector-curvature="0"
     style="fill:#ff6666;fill-opacity:1;fill-rule:nonzero;stroke:none"
     d="m 15.667662,12.391132 c -0.09667,-0.109851 -0.338328,-0.320752 -0.540446,-0.470143 -0.588778,-0.443782 -0.667869,-0.509691 -0.905137,-0.729384 -0.443781,-0.404236 -0.628323,-0.812866 -0.628323,-1.3664943 0,-0.2680262 0.01758,-0.3734792 0.09227,-0.5316585 0.131817,-0.2724206 0.320752,-0.4701446 0.562414,-0.593173 0.166968,-0.087877 0.254845,-0.127422 0.540447,-0.127422 0.298783,-0.0044 0.360297,0.030757 0.536052,0.127422 0.2153,0.1186348 0.434993,0.3690852 0.478932,0.5492348 l 0.03075,0.1098465 0.0659,-0.1537858 c 0.391056,-0.8568052 1.643309,-0.8436233 2.078302,0.021969 0.140604,0.2768142 0.153785,0.8611993 0.03075,1.1907403 -0.158179,0.434994 -0.461356,0.76014 -1.151194,1.265435 -0.456962,0.329541 -0.971046,0.830442 -1.006197,0.900743 -0.04394,0.07909 -0.0044,0.01318 -0.184542,-0.19333 z m 0,0"
     id="path4146" />
</svg>
