<?xml version="1.0" encoding="UTF-8" standalone="no"?>
<svg
   xmlns:dc="http://purl.org/dc/elements/1.1/"
   xmlns:cc="http://creativecommons.org/ns#"
   xmlns:rdf="http://www.w3.org/1999/02/22-rdf-syntax-ns#"
   xmlns:svg="http://www.w3.org/2000/svg"
   xmlns="http://www.w3.org/2000/svg"
   xmlns:sodipodi="http://sodipodi.sourceforge.net/DTD/sodipodi-0.dtd"
   xmlns:inkscape="http://www.inkscape.org/namespaces/inkscape"
   width="32px"
   height="32px"
   viewBox="0 0 24 24"
   version="1.1"
   id="svg2"
   inkscape:version="0.91 r"
   sodipodi:docname="face-uncertain.svg">
  <metadata
     id="metadata17">
    <rdf:RDF>
      <cc:Work
         rdf:about="">
        <dc:format>image/svg+xml</dc:format>
        <dc:type
           rdf:resource="http://purl.org/dc/dcmitype/StillImage" />
        <dc:title />
      </cc:Work>
    </rdf:RDF>
  </metadata>
  <defs
     id="defs15" />
  <sodipodi:namedview
     pagecolor="#ffffff"
     bordercolor="#666666"
     borderopacity="1"
     objecttolerance="10"
     gridtolerance="10"
     guidetolerance="10"
     inkscape:pageopacity="0"
     inkscape:pageshadow="2"
     inkscape:window-width="1920"
     inkscape:window-height="1056"
     id="namedview13"
     showgrid="true"
     inkscape:zoom="7.375"
     inkscape:cx="12.012732"
     inkscape:cy="33.883391"
     inkscape:window-x="0"
     inkscape:window-y="24"
     inkscape:window-maximized="1"
     inkscape:current-layer="svg2">
    <inkscape:grid
       type="xygrid"
       id="grid4190" />
  </sodipodi:namedview>
  <path
     inkscape:connector-curvature="0"
     id="path5-9"
     d="m 22.499999,11.999999 c 0,4.971775 -4.703124,9 -10.5,9 -5.796875,0 -10.499999,-4.028225 -10.499999,-9 0,-4.9717723 4.698567,-8.9999983 10.499999,-8.9999983 5.801431,0 10.5,4.028226 10.5,8.9999983 z m 0,0"
     style="fill:#ffd95c;fill-opacity:1;fill-rule:nonzero;stroke:none" />
  <path
     inkscape:connector-curvature="0"
     id="path11"
     d="m 9.0775714,16.306734 c -0.080233,-0.418998 0.044577,-0.873656 0.3343075,-1.190134 0.1604675,-0.182754 0.3699672,-0.316477 0.5972961,-0.401168 0.227328,-0.08023 0.472487,-0.115894 0.713189,-0.106978 0.476944,0.01337 0.949432,0.196126 1.319399,0.494774 0.414541,0.32985 0.699816,0.788965 1.043038,1.190133 0.338765,0.396712 0.739934,0.753307 1.221336,0.958348 0.329849,0.138181 0.690901,0.205041 1.047495,0.187213"
     style="fill:none;stroke:#636363;stroke-width:0.8558265;stroke-linecap:butt;stroke-linejoin:miter;stroke-miterlimit:4;stroke-opacity:1" />
  <path
     inkscape:connector-curvature="0"
     style="fill:#636363;fill-opacity:1;fill-rule:nonzero;stroke:none"
     d="m 9.4951125,8.7436518 -2.695313,0.7221679 c -0.02957,0.121536 -0.0498,0.24717 -0.0498,0.37793 0,0.8815433 0.712207,1.5937503 1.59375,1.5937503 0.881543,0 1.59375,-0.712207 1.59375,-1.5937503 0,-0.427626 -0.169171,-0.8141319 -0.442383,-1.1000979 z"
     id="path4169" />
  <circle
     r="1.59375"
     cy="9.84375"
     cx="15.65625"
     id="circle4141"
     style="opacity:1;fill:#656565;fill-opacity:1;fill-rule:nonzero;stroke:none;stroke-width:1.5;stroke-linecap:butt;stroke-linejoin:miter;stroke-miterlimit:4;stroke-dasharray:none;stroke-dashoffset:0;stroke-opacity:1" />
</svg>
