<?xml version="1.0" encoding="UTF-8" standalone="no"?>
<svg
   xmlns:dc="http://purl.org/dc/elements/1.1/"
   xmlns:cc="http://creativecommons.org/ns#"
   xmlns:rdf="http://www.w3.org/1999/02/22-rdf-syntax-ns#"
   xmlns:svg="http://www.w3.org/2000/svg"
   xmlns="http://www.w3.org/2000/svg"
   xmlns:sodipodi="http://sodipodi.sourceforge.net/DTD/sodipodi-0.dtd"
   xmlns:inkscape="http://www.inkscape.org/namespaces/inkscape"
   width="32px"
   height="32px"
   viewBox="0 0 24 24"
   version="1.1"
   id="svg2"
   inkscape:version="0.91 r"
   sodipodi:docname="face-angry.svg">
  <metadata
     id="metadata17">
    <rdf:RDF>
      <cc:Work
         rdf:about="">
        <dc:format>image/svg+xml</dc:format>
        <dc:type
           rdf:resource="http://purl.org/dc/dcmitype/StillImage" />
      </cc:Work>
    </rdf:RDF>
  </metadata>
  <defs
     id="defs15" />
  <sodipodi:namedview
     pagecolor="#ffffff"
     bordercolor="#666666"
     borderopacity="1"
     objecttolerance="10"
     gridtolerance="10"
     guidetolerance="10"
     inkscape:pageopacity="0"
     inkscape:pageshadow="2"
     inkscape:window-width="1920"
     inkscape:window-height="1056"
     id="namedview13"
     showgrid="true"
     inkscape:zoom="29.5"
     inkscape:cx="10.507203"
     inkscape:cy="14.859858"
     inkscape:window-x="0"
     inkscape:window-y="24"
     inkscape:window-maximized="1"
     inkscape:current-layer="svg2">
    <inkscape:grid
       type="xygrid"
       id="grid4145" />
  </sodipodi:namedview>
  <path
     inkscape:connector-curvature="0"
     id="path5"
     d="m 22.499999,12 c 0,4.971774 -4.703124,8.999999 -10.499999,8.999999 C 6.203125,20.999999 1.5000001,16.971774 1.5000001,12 1.5000001,7.0282255 6.198568,2.9999998 12,2.9999998 c 5.801432,0 10.499999,4.0282257 10.499999,9.0000002 z m 0,0"
     style="fill:#ff8c5c;fill-opacity:1;fill-rule:nonzero;stroke:none" />
  <path
     inkscape:connector-curvature="0"
     id="path9"
     d="m 7.3095707,8.4940429 c -0.4681646,0.293848 -0.7470709,0.8018552 -0.7470709,1.3497074 0,0.8815437 0.7122073,1.5937497 1.59375,1.5937497 0.8566405,0 1.5588862,-0.677343 1.5937502,-1.5339842 z m 0,0"
     style="fill:#636363;fill-opacity:1;fill-rule:nonzero;stroke:none" />
  <path
     style="fill:#636363;fill-opacity:1;fill-rule:nonzero;stroke:none"
     d="m 16.690429,8.4940429 c 0.468165,0.293848 0.747071,0.8018552 0.747071,1.3497074 0,0.8815437 -0.712207,1.5937497 -1.59375,1.5937497 -0.85664,0 -1.558886,-0.677343 -1.59375,-1.5339842 z m 0,0"
     id="path4151"
     inkscape:connector-curvature="0" />
  <path
     inkscape:connector-curvature="0"
     id="path13"
     d="M 7.5,17.437499 C 7.8722393,15.555914 9.7742213,14.25 12.00255,14.25 c 2.228328,0 4.130311,1.305914 4.497449,3.187499 l -0.749999,0 c -0.275355,-1.121813 -1.804674,-1.882116 -3.74745,-1.882116 -1.942776,0 -3.4771957,0.760303 -3.7525497,1.882116 z"
     style="fill:#636363;fill-opacity:1;fill-rule:nonzero;stroke:none"
     sodipodi:nodetypes="csccscc" />
</svg>
