<?xml version="1.0" encoding="UTF-8" standalone="no"?>
<svg
   xmlns:dc="http://purl.org/dc/elements/1.1/"
   xmlns:cc="http://creativecommons.org/ns#"
   xmlns:rdf="http://www.w3.org/1999/02/22-rdf-syntax-ns#"
   xmlns:svg="http://www.w3.org/2000/svg"
   xmlns="http://www.w3.org/2000/svg"
   xmlns:sodipodi="http://sodipodi.sourceforge.net/DTD/sodipodi-0.dtd"
   xmlns:inkscape="http://www.inkscape.org/namespaces/inkscape"
   width="32px"
   height="32px"
   viewBox="0 0 24 24"
   version="1.1"
   id="svg2"
   inkscape:version="0.91 r"
   sodipodi:docname="face-worried.svg">
  <metadata
     id="metadata19">
    <rdf:RDF>
      <cc:Work
         rdf:about="">
        <dc:format>image/svg+xml</dc:format>
        <dc:type
           rdf:resource="http://purl.org/dc/dcmitype/StillImage" />
        <dc:title />
      </cc:Work>
    </rdf:RDF>
  </metadata>
  <defs
     id="defs17" />
  <sodipodi:namedview
     pagecolor="#ffffff"
     bordercolor="#666666"
     borderopacity="1"
     objecttolerance="10"
     gridtolerance="10"
     guidetolerance="10"
     inkscape:pageopacity="0"
     inkscape:pageshadow="2"
     inkscape:window-width="1920"
     inkscape:window-height="1056"
     id="namedview15"
     showgrid="true"
     inkscape:zoom="7.375"
     inkscape:cx="-11.404931"
     inkscape:cy="15.29576"
     inkscape:window-x="0"
     inkscape:window-y="24"
     inkscape:window-maximized="1"
     inkscape:current-layer="svg2">
    <inkscape:grid
       type="xygrid"
       id="grid4137" />
  </sodipodi:namedview>
  <path
     inkscape:connector-curvature="0"
     id="path5-9"
     d="m 22.499999,11.999999 c 0,4.971775 -4.703124,9 -10.5,9 -5.796875,0 -10.499999,-4.028225 -10.499999,-9 0,-4.9717723 4.698567,-8.9999983 10.499999,-8.9999983 5.801431,0 10.5,4.028226 10.5,8.9999983 z m 0,0"
     style="fill:#ffd95c;fill-opacity:1;fill-rule:nonzero;stroke:none" />
  <ellipse
     style="opacity:1;fill:#656565;fill-opacity:1;fill-rule:nonzero;stroke:none;stroke-width:1.5;stroke-linecap:butt;stroke-linejoin:miter;stroke-miterlimit:4;stroke-dasharray:none;stroke-dashoffset:0;stroke-opacity:1"
     id="path4139"
     cx="8.15625"
     cy="9.75"
     rx="1.59375"
     ry="1.6875" />
  <ellipse
     cy="9.75"
     cx="15.65625"
     id="circle4141"
     style="opacity:1;fill:#656565;fill-opacity:1;fill-rule:nonzero;stroke:none;stroke-width:1.5;stroke-linecap:butt;stroke-linejoin:miter;stroke-miterlimit:4;stroke-dasharray:none;stroke-dashoffset:0;stroke-opacity:1"
     rx="1.59375"
     ry="1.6875" />
  <path
     inkscape:connector-curvature="0"
     style="fill:#636363;fill-opacity:1;fill-rule:nonzero;stroke:none"
     d="m 13.770363,16.486136 c -0.539898,-0.04604 -1.171873,-0.230189 -2.239116,-0.652901 -0.686383,-0.272042 -0.929129,-0.347376 -1.230469,-0.389229 -0.280412,-0.04185 -0.4603786,-0.03767 -0.6570863,0.05022 -0.2720419,0.108817 -0.4310814,0.364119 -0.4813057,0.770089 l -0.020925,0.234375 -0.891461,0 0,-0.217634 c 0,-0.40597 0.1297435,-0.78683 0.3641182,-1.075613 0.096257,-0.113002 0.297154,-0.280413 0.4268964,-0.351562 0.1339285,-0.07533 0.3766743,-0.15904 0.5524549,-0.196707 0.2343748,-0.04604 0.6989395,-0.04604 0.9751675,0 0.414341,0.07533 0.86635,0.217633 1.816405,0.590122 0.837053,0.322265 1.209541,0.422711 1.619697,0.422711 0.217634,0 0.242745,-0.0042 0.343191,-0.03767 0.192523,-0.07533 0.339007,-0.23019 0.418527,-0.439453 0.03767,-0.09626 0.08371,-0.339006 0.08371,-0.443637 l 0,-0.125559 0.899832,0 0,0.200893 c 0,0.184151 -0.02511,0.380859 -0.06696,0.544084 -0.150675,0.594312 -0.590127,0.979356 -1.251399,1.092359 -0.133929,0.03767 -0.518973,0.04185 -0.661271,0.03767 z m 0,0"
     id="path4146" />
</svg>
