<svg version="1.1" viewBox="0 0 48 48" xmlns="http://www.w3.org/2000/svg">
 <path d="m8 1c-1.03 0-2 0.971-2 2v42c0 0.971 1.03 2 2 2h32c0.971 0 2-1.03 2-2v-31l-13-13z" style="fill:#c19553"/>
 <path d="m29 12 0.063 0.063 0.156-0.063h-0.219zm2 2 11 11v-11h-11z" style="opacity:.2"/>
 <path d="m29 1 13 13h-11c-0.971 0-2-1.03-2-2v-11z" style="fill:#fff;opacity:.4"/>
 <path d="m6 35v10c0 0.971 1.03 2 2 2h32c0.971 0 2-1.03 2-2v-10z" style="opacity:.2"/>
 <path d="m18 1v4h4v-4h-4zm0 4h-4v4h4v-4zm0 4v4h4v-4h-4zm0 4h-4v4h4v-4zm0 4v4h4v-4h-4zm-4 6v8h8v-8h-4-4z" style="fill:#fff"/>
 <path d="m20.1 37c-0.0844 0-1.03 0.0045-2.05 0.187v7.58c1.08 0.227 2.13 0.23 2.2 0.23 2.53 0 3.12-1.21 3.12-2.46 0-0.978-0.575-1.53-1.38-1.82 0.276-0.152 1.01-0.651 1.01-1.66 0-1.6-1.35-2.06-2.89-2.06zm4.92 0.239v7.76h1.65v-2.97h0.857c0.805 1.23 1.3 2.23 1.6 2.97h1.73c-0.486-1.15-1.15-2.3-1.83-3.34 1.05-0.44 1.28-1.35 1.28-2.07 0-1.17-0.577-2.06-1.86-2.4-1.14-0.265-2.29-0.101-3.44 0.049zm-3.56 1.98c-0.142 1.02-0.902 0.951-1.83 0.974v-1.79c0.972-0.165 1.95-0.0522 1.83 0.818zm6.77-0.548c0.269 0.192 0.404 0.494 0.404 0.904 0 0.376-0.127 0.67-0.378 0.879-0.251 0.201-0.656 0.3-1.22 0.3h-0.363v-2.33c0.0235-0.0044 0.96-0.176 1.56 0.251zm-8.6 2.8h0.846c0.555 0 1.35 0.159 1.35 1.06 0 1.07-1.02 1.11-1.44 1.11-0.132 0-0.263-0.0028-0.401-0.0154-0.126-0.0047-0.246-0.0164-0.354-0.0337v-2.12z" style="fill:#fff"/>
</svg>
