<svg version="1.1" viewBox="0 0 48 48" xmlns="http://www.w3.org/2000/svg">
 <path d="m8 1c-1.03 0-2 0.971-2 2v42c0 0.971 1.03 2 2 2h32c0.971 0 2-1.03 2-2v-31l-13-13z" style="fill:#c19553"/>
 <path d="m31 14 11 11v-11z" style="opacity:.2"/>
 <path d="m29 1 13 13h-11c-0.971 0-2-1.03-2-2v-11z" style="fill:#fff;opacity:.4"/>
 <path d="m6 35v10c0 0.971 1.03 2 2 2h32c0.971 0 2-1.03 2-2v-10z" style="opacity:.2"/>
 <path d="m18 1v4h4v-4h-4zm0 4h-4v4h4v-4zm0 4v4h4v-4h-4zm0 4h-4v4h4v-4zm0 4v4h4v-4h-4zm-4 6v8h8v-8h-4-4z" style="fill:#fff"/>
 <path d="m32.9 37c-0.716-0.0064-1.42 0.0793-2.13 0.189v7.71h1.54v-2.64h0.551c2.97 0 3.14-1.79 3.14-2.65 0-0.617-0.0106-2.61-3.1-2.61zm-18.9 2e-3c-0.342 0-0.689 0.0205-1.04 0.0625-0.351 0.033-0.673 0.075-0.965 0.125v7.58c0.727 0.154 1.6 0.229 2.15 0.229 1.61 0 3.04-0.509 3.04-2.46h-2e-3c0-0.762-0.344-1.45-1.35-1.82 0.438-0.245 0.988-0.784 0.988-1.67 0-1.63-1.38-2.05-2.83-2.05zm4.32 0.084v1.29h2.98c-2.01 3.4-2.47 4.31-3.14 5.63v0.896h5.11v-1.29h-3.33c0.957-1.81 2.15-3.78 3.22-5.44v-1.08zm6.19 2e-3v1.29h1.69v5.24h-1.69v1.29h4.92v-1.29h-1.68v-5.24h1.68v-1.29zm-10.3 1.26c0.963 0 1.09 0.466 1.09 0.871 0 0.835-0.719 0.971-1.19 0.971l-2e-3 2e-3h-0.602v-1.79c0.1-0.017 0.213-0.0291 0.338-0.0371 0.125-9e-3 0.246-0.0137 0.363-0.0137zm18.8 0v2e-3c1.06 0 1.35 0.599 1.35 1.25 0 0.704-0.238 1.31-1.49 1.31h-0.627v-2.52c0.253-0.0364 0.509-0.0272 0.764-0.0391zm-19.5 3.13h0.826c0.597 0 1.31 0.183 1.31 1.06 0 1.06-0.957 1.11-1.4 1.11-0.171 0-0.496-0.0127-0.738-0.0508z" style="fill:#fff"/>
</svg>
