<?xml version="1.0" encoding="UTF-8" standalone="no"?>
<svg
   xmlns:dc="http://purl.org/dc/elements/1.1/"
   xmlns:cc="http://creativecommons.org/ns#"
   xmlns:rdf="http://www.w3.org/1999/02/22-rdf-syntax-ns#"
   xmlns:svg="http://www.w3.org/2000/svg"
   xmlns="http://www.w3.org/2000/svg"
   xmlns:sodipodi="http://sodipodi.sourceforge.net/DTD/sodipodi-0.dtd"
   xmlns:inkscape="http://www.inkscape.org/namespaces/inkscape"
   width="48"
   viewBox="0 0 48 48"
   height="48"
   id="svg2"
   version="1.1"
   inkscape:version="0.91 r13725"
   sodipodi:docname="application-image-ico.svg">
  <metadata
     id="metadata30">
    <rdf:RDF>
      <cc:Work
         rdf:about="">
        <dc:format>image/svg+xml</dc:format>
        <dc:type
           rdf:resource="http://purl.org/dc/dcmitype/StillImage" />
      </cc:Work>
    </rdf:RDF>
  </metadata>
  <defs
     id="defs28" />
  <sodipodi:namedview
     pagecolor="#ffffff"
     bordercolor="#666666"
     borderopacity="1"
     objecttolerance="10"
     gridtolerance="10"
     guidetolerance="10"
     inkscape:pageopacity="0"
     inkscape:pageshadow="2"
     inkscape:window-width="1366"
     inkscape:window-height="704"
     id="namedview26"
     showgrid="false"
     inkscape:zoom="36.027585"
     inkscape:cx="22.525832"
     inkscape:cy="27.330781"
     inkscape:window-x="0"
     inkscape:window-y="27"
     inkscape:window-maximized="1"
     inkscape:current-layer="svg2" />
  <path
     style="fill:#39a34f"
     d="M 8,1 C 6.9714285,1 6,1.9714285 6,3 l 0,42 c 0,0.971429 1.0285714,2 2,2 l 32,0 c 0.971429,0 2,-1.028571 2,-2 L 42,14 29,1 z"
     id="path4" />
  <path
     style="fill-opacity:.196"
     d="M 29,12 29.0625,12.0625 29.21875,12 29,12 z m 2,2 11,11 0,-11 -11,0 z"
     id="path6" />
  <path
     style="fill:#fff;fill-opacity:.392"
     d="m 29,1 13,13 -11,0 c -0.971429,0 -2,-1.028571 -2,-2 L 29,1 z"
     id="path8" />
  <path
     style="fill-opacity:.196"
     d="m 6,35 0,10 c 0,0.971429 1.0285714,2 2,2 l 32,0 c 0.971429,0 2,-1.028571 2,-2 l 0,-10 z"
     id="path10" />
  <g
     style="fill:#fff"
     id="g12">
    <g
       id="g14">
      <path
         style="color:#000000;line-height:normal"
         d="m 17.035431,16 c -0.563237,0.054 -1.045319,0.64805 -1.035277,1.28125 0,4.489583 0,8.979167 0,13.46875 0.0061,0.663 0.537592,1.2595 1.129393,1.25 l 13.772329,0 c 0.582514,-0.01 1.091927,-0.5974 1.098021,-1.25 l 0,-13.46875 C 32.00833,16.61825 31.493691,16.0069 30.901876,16 c -4.622148,0 -9.244297,0 -13.866445,0 z m 0.972534,2 11.984121,0 0,8.59375 -3.356809,-4.125 -2.384275,2.21875 -3.137205,-3.9375 -3.105832,3.1875 z"
         id="path16"
         inkscape:connector-curvature="0"
         sodipodi:nodetypes="ccccccccccccccccc" />
    </g>
    <g
       style="word-spacing:0;line-height:125%;letter-spacing:0"
       transform="scale(1.06683 .93736)"
       id="g18">
      <path
         d="m 13.122995,47.835583 0,-1.347575 1.783554,0 0,-5.482777 -1.783554,0 0,-1.347575 5.192125,0 0,1.347575 -1.770343,0 0,5.482777 1.770343,0 0,1.347575 -5.192125,0"
         id="path20" />
      <path
         d="m 22.925938,48.007332 c -1.153809,0 -2.034575,-0.369922 -2.642303,-1.109767 -0.60773,-0.739843 -0.911595,-1.792359 -0.911594,-3.157551 -1e-6,-0.678186 0.09248,-1.281512 0.277441,-1.809977 0.184961,-0.528454 0.440383,-0.973242 0.766268,-1.334363 0.33469,-0.369915 0.726631,-0.647356 1.175825,-0.832325 0.457996,-0.193761 0.955629,-0.290645 1.492901,-0.290654 0.290649,9e-6 0.550475,0.02643 0.779479,0.07927 0.237802,0.04405 0.444782,0.09689 0.620941,0.158539 0.176148,0.06166 0.321474,0.127719 0.43598,0.198172 0.123301,0.07047 0.215782,0.123315 0.277442,0.158538 l -0.422769,1.294729 c -0.202582,-0.132109 -0.449196,-0.242205 -0.739844,-0.330288 -0.281851,-0.09688 -0.607734,-0.14532 -0.977652,-0.145327 -0.255427,7e-6 -0.506445,0.04845 -0.753057,0.145327 -0.23781,0.08808 -0.453598,0.242217 -0.647364,0.462403 -0.184963,0.21139 -0.339097,0.497639 -0.462403,0.858748 -0.114501,0.36112 -0.171751,0.810311 -0.171749,1.347574 -2e-6,0.933617 0.158536,1.651442 0.475614,2.153477 0.325881,0.493231 0.854341,0.739846 1.585382,0.739845 0.422764,10e-7 0.770666,-0.04844 1.043709,-0.145327 0.28184,-0.09688 0.506436,-0.193767 0.673787,-0.290653 l 0.409557,1.281516 c -0.229005,0.140923 -0.541677,0.273038 -0.938017,0.396346 -0.387543,0.114499 -0.836734,0.171749 -1.347574,0.171749"
         id="path22" />
      <path
         d="m 27.629236,43.740014 c -2e-6,0.396349 0.01321,0.770675 0.03964,1.122978 0.03523,0.343502 0.09688,0.642963 0.184961,0.898383 0.09688,0.255425 0.228997,0.458001 0.396345,0.60773 0.167343,0.149732 0.391939,0.224597 0.673787,0.224596 0.273035,10e-7 0.493226,-0.07486 0.660576,-0.224596 0.176149,-0.149729 0.308264,-0.352305 0.396345,-0.60773 0.09688,-0.264228 0.158534,-0.568092 0.184961,-0.911594 0.03523,-0.343496 0.05284,-0.713418 0.05285,-1.109767 -4e-6,-0.396341 -0.01762,-0.766263 -0.05285,-1.109767 -0.02643,-0.352302 -0.08808,-0.656166 -0.184961,-0.911595 -0.08808,-0.255416 -0.215792,-0.457992 -0.383134,-0.607729 -0.167349,-0.149724 -0.391945,-0.224589 -0.673787,-0.224596 -0.281848,7e-6 -0.506444,0.07487 -0.673787,0.224596 -0.167348,0.149737 -0.299463,0.356717 -0.396345,0.620941 -0.08808,0.255428 -0.149733,0.554889 -0.184961,0.898383 -0.02642,0.343504 -0.03964,0.713426 -0.03964,1.109767 m -1.651439,0 c 0,-1.409223 0.259826,-2.470546 0.779479,-3.183975 0.519651,-0.722221 1.24188,-1.083335 2.166688,-1.083344 0.960033,9e-6 1.691069,0.361123 2.193111,1.083344 0.502032,0.713429 0.75305,1.774752 0.753057,3.183975 -7e-6,1.409231 -0.255429,2.474958 -0.766268,3.197186 -0.51085,0.713422 -1.233079,1.070132 -2.166688,1.070132 -0.960039,0 -1.695479,-0.35671 -2.206323,-1.070132 -0.502038,-0.722228 -0.753056,-1.787955 -0.753056,-3.197186"
         id="path24" />
    </g>
  </g>
</svg>
