<?xml version="1.0" encoding="UTF-8" standalone="no"?>
<svg
   xmlns:dc="http://purl.org/dc/elements/1.1/"
   xmlns:cc="http://creativecommons.org/ns#"
   xmlns:rdf="http://www.w3.org/1999/02/22-rdf-syntax-ns#"
   xmlns:svg="http://www.w3.org/2000/svg"
   xmlns="http://www.w3.org/2000/svg"
   xmlns:sodipodi="http://sodipodi.sourceforge.net/DTD/sodipodi-0.dtd"
   xmlns:inkscape="http://www.inkscape.org/namespaces/inkscape"
   width="48"
   viewBox="0 0 48 48"
   height="48"
   id="svg2"
   version="1.1"
   inkscape:version="0.91 r13725"
   sodipodi:docname="application-x-scilab-sce.svg">
  <metadata
     id="metadata42">
    <rdf:RDF>
      <cc:Work
         rdf:about="">
        <dc:format>image/svg+xml</dc:format>
        <dc:type
           rdf:resource="http://purl.org/dc/dcmitype/StillImage" />
      </cc:Work>
    </rdf:RDF>
  </metadata>
  <defs
     id="defs40" />
  <sodipodi:namedview
     pagecolor="#ffffff"
     bordercolor="#666666"
     borderopacity="1"
     objecttolerance="10"
     gridtolerance="10"
     guidetolerance="10"
     inkscape:pageopacity="0"
     inkscape:pageshadow="2"
     inkscape:window-width="960"
     inkscape:window-height="1016"
     id="namedview38"
     showgrid="false"
     inkscape:snap-bbox="true"
     inkscape:bbox-paths="true"
     inkscape:bbox-nodes="true"
     inkscape:snap-bbox-edge-midpoints="true"
     inkscape:snap-bbox-midpoints="true"
     inkscape:object-paths="true"
     inkscape:snap-intersection-paths="true"
     inkscape:object-nodes="true"
     inkscape:snap-smooth-nodes="true"
     inkscape:snap-midpoints="true"
     inkscape:zoom="4.9166667"
     inkscape:cx="16.527892"
     inkscape:cy="24"
     inkscape:window-x="960"
     inkscape:window-y="27"
     inkscape:window-maximized="0"
     inkscape:current-layer="svg2">
    <inkscape:grid
       type="xygrid"
       id="grid4174" />
  </sodipodi:namedview>
  <path
     style="fill:#4d4d4d"
     d="M 8,1 C 6.9714285,1 6,1.9714285 6,3 l 0,42 c 0,0.971429 1.0285714,2 2,2 l 32,0 c 0.971429,0 2,-1.028571 2,-2 L 42,14 29,1 z"
     id="path4" />
  <path
     style="fill-opacity:.196"
     d="M 29,12 29.0625,12.0625 29.21875,12 29,12 z m 2,2 11,11 0,-11 -11,0 z"
     id="path6" />
  <path
     style="fill:#b3b3b3;fill-opacity:0.392"
     d="m 29,1 13,13 -11,0 c -0.971429,0 -2,-1.028571 -2,-2 L 29,1 z"
     id="path8" />
  <g
     transform="translate(-1.4998189,3.0001772)"
     id="g47">
    <path
       inkscape:connector-curvature="0"
       transform="matrix(0.46383647,0,0,0.52304963,46.603773,4.0851067)"
       d="m -35.797,18 c 0,2.64 -2.413,4.78 -5.39,4.78 -2.977,0 -5.39,-2.14 -5.39,-4.78 0,-2.64 2.413,-4.78 5.39,-4.78 2.977,0 5.39,2.14 5.39,4.78 z"
       style="fill:#ff2a2a;fill-opacity:1;fill-rule:nonzero;stroke:none"
       id="path49" />
    <path
       inkscape:connector-curvature="0"
       d="m -35.797,18 c 0,2.64 -2.413,4.78 -5.39,4.78 -2.977,0 -5.39,-2.14 -5.39,-4.78 0,-2.64 2.413,-4.78 5.39,-4.78 2.977,0 5.39,2.14 5.39,4.78 z"
       transform="matrix(0.46383647,0,0,0.52304963,39.603773,10.085107)"
       style="fill:#ff2a2a;fill-opacity:1;fill-rule:nonzero;stroke:none"
       id="path51" />
    <path
       inkscape:connector-curvature="0"
       transform="matrix(0.46383647,0,0,0.52304963,33.603773,16.085107)"
       d="m -35.797,18 c 0,2.64 -2.413,4.78 -5.39,4.78 -2.977,0 -5.39,-2.14 -5.39,-4.78 0,-2.64 2.413,-4.78 5.39,-4.78 2.977,0 5.39,2.14 5.39,4.78 z"
       style="fill:#d40000;fill-opacity:1;fill-rule:nonzero;stroke:none"
       id="path53" />
    <path
       inkscape:connector-curvature="0"
       d="m -35.797,18 c 0,2.64 -2.413,4.78 -5.39,4.78 -2.977,0 -5.39,-2.14 -5.39,-4.78 0,-2.64 2.413,-4.78 5.39,-4.78 2.977,0 5.39,2.14 5.39,4.78 z"
       transform="matrix(0.46383647,0,0,0.52304963,42.603773,16.085107)"
       style="fill:#ff5555;fill-opacity:1;fill-rule:nonzero;stroke:none"
       id="path55" />
    <path
       inkscape:connector-curvature="0"
       transform="matrix(0.46383647,0,0,0.52304963,49.603773,10.085107)"
       d="m -35.797,18 c 0,2.64 -2.413,4.78 -5.39,4.78 -2.977,0 -5.39,-2.14 -5.39,-4.78 0,-2.64 2.413,-4.78 5.39,-4.78 2.977,0 5.39,2.14 5.39,4.78 z"
       style="fill:#ff5555;fill-opacity:1;fill-rule:nonzero;stroke:none"
       id="path57" />
    <path
       inkscape:connector-curvature="0"
       d="m -35.797,18 c 0,2.64 -2.413,4.78 -5.39,4.78 -2.977,0 -5.39,-2.14 -5.39,-4.78 0,-2.64 2.413,-4.78 5.39,-4.78 2.977,0 5.39,2.14 5.39,4.78 z"
       transform="matrix(0.46383647,0,0,0.52304963,51.603773,16.085107)"
       style="fill:#ffaaaa;fill-opacity:1;fill-rule:nonzero;stroke:none"
       id="path59" />
    <path
       inkscape:connector-curvature="0"
       transform="matrix(0.46383647,0,0,0.52304963,53.603773,22.085107)"
       d="m -35.797,18 c 0,2.64 -2.413,4.78 -5.39,4.78 -2.977,0 -5.39,-2.14 -5.39,-4.78 0,-2.64 2.413,-4.78 5.39,-4.78 2.977,0 5.39,2.14 5.39,4.78 z"
       style="fill:#f9f9f9;fill-opacity:1;fill-rule:nonzero;stroke:none"
       id="path61" />
    <path
       inkscape:connector-curvature="0"
       transform="matrix(0.46383647,0,0,0.52304963,44.603773,22.085107)"
       d="m -35.797,18 c 0,2.64 -2.413,4.78 -5.39,4.78 -2.977,0 -5.39,-2.14 -5.39,-4.78 0,-2.64 2.413,-4.78 5.39,-4.78 2.977,0 5.39,2.14 5.39,4.78 z"
       style="fill:#ffaaaa;fill-opacity:1;fill-rule:nonzero;stroke:none"
       id="path63" />
    <path
       inkscape:connector-curvature="0"
       d="m -35.797,18 c 0,2.64 -2.413,4.78 -5.39,4.78 -2.977,0 -5.39,-2.14 -5.39,-4.78 0,-2.64 2.413,-4.78 5.39,-4.78 2.977,0 5.39,2.14 5.39,4.78 z"
       transform="matrix(0.46383647,0,0,0.52304963,36.603773,22.085107)"
       style="fill:#d40000;fill-opacity:1;fill-rule:nonzero;stroke:none"
       id="path65" />
  </g>
</svg>
