<?xml version="1.0" encoding="UTF-8" standalone="no"?>
<svg
   xmlns:dc="http://purl.org/dc/elements/1.1/"
   xmlns:cc="http://creativecommons.org/ns#"
   xmlns:rdf="http://www.w3.org/1999/02/22-rdf-syntax-ns#"
   xmlns:svg="http://www.w3.org/2000/svg"
   xmlns="http://www.w3.org/2000/svg"
   xmlns:sodipodi="http://sodipodi.sourceforge.net/DTD/sodipodi-0.dtd"
   xmlns:inkscape="http://www.inkscape.org/namespaces/inkscape"
   width="48"
   viewBox="0 0 48 48"
   height="48"
   id="svg3011"
   version="1.1"
   inkscape:version="0.91 r13725"
   sodipodi:docname="application-vnd.openxmlformats-officedocument.presentationml.slideshow.svg">
  <metadata
     id="metadata3047">
    <rdf:RDF>
      <cc:Work
         rdf:about="">
        <dc:format>image/svg+xml</dc:format>
        <dc:type
           rdf:resource="http://purl.org/dc/dcmitype/StillImage" />
      </cc:Work>
    </rdf:RDF>
  </metadata>
  <defs
     id="defs3045" />
  <sodipodi:namedview
     pagecolor="#ffffff"
     bordercolor="#666666"
     borderopacity="1"
     objecttolerance="10"
     gridtolerance="10"
     guidetolerance="10"
     inkscape:pageopacity="0"
     inkscape:pageshadow="2"
     inkscape:window-width="1280"
     inkscape:window-height="998"
     id="namedview3043"
     showgrid="true"
     inkscape:zoom="9.8333331"
     inkscape:cx="29.108133"
     inkscape:cy="-5.9055894"
     inkscape:window-x="0"
     inkscape:window-y="0"
     inkscape:window-maximized="1"
     inkscape:current-layer="svg3011">
    <inkscape:grid
       type="xygrid"
       id="grid3355" />
  </sodipodi:namedview>
  <path
     style="fill:#d24726"
     d="M 8,1 C 6.9714285,1 6,1.9714285 6,3 l 0,42 c 0,0.971429 1.0285714,2 2,2 l 32,0 c 0.971429,0 2,-1.028571 2,-2 L 42,14 29,1 z"
     id="path3013" />
  <path
     style="fill-opacity:.196"
     d="M 29,12 29.0625,12.0625 29.21875,12 29,12 z m 2,2 11,11 0,-11 -11,0 z"
     id="path3015" />
  <path
     style="fill:#fff;fill-opacity:.392"
     d="m 29,1 13,13 -11,0 c -0.971429,0 -2,-1.028571 -2,-2 L 29,1 z"
     id="path3017" />
  <path
     style="fill-opacity:.196"
     d="m 6,35 0,10 c 0,0.971429 1.028571,2 2,2 l 32,0 c 0.971429,0 2,-1.028571 2,-2 l 0,-10 z"
     id="path3033" />
  <path
     style="line-height:125%;letter-spacing:0;word-spacing:0;fill:#ffffff"
     inkscape:connector-curvature="0"
     id="path3037"
     d="m 14.146745,37.816098 c 0.993391,7e-6 1.763693,0.187282 2.310906,0.561828 0.547204,0.366915 0.820808,0.970785 0.820814,1.811611 -6e-6,0.84848 -0.277819,1.463816 -0.833442,1.846009 -0.547213,0.374555 -1.325933,0.56183 -2.336162,0.561828 l -0.555627,0 0,2.396372 -1.553234,0 0,-7.00566 c 0.151535,-0.03058 0.319906,-0.05732 0.505116,-0.08027 0.193627,-0.02293 0.387255,-0.03821 0.580884,-0.04586 0.193626,-0.01528 0.383045,-0.02675 0.568256,-0.03439 0.185207,-0.0076 0.34937,-0.01146 0.492489,-0.01147 m 0.17679,1.22685 c -0.0926,5e-6 -0.223095,0.0039 -0.391465,0.01147 -0.159956,7e-6 -0.286234,0.0076 -0.378836,0.02293 l 0,2.293178 0.631394,0 c 0.496695,3e-6 0.871322,-0.0879 1.123884,-0.263715 0.252554,-0.183451 0.378832,-0.49303 0.378838,-0.928738 -6e-6,-0.412767 -0.126284,-0.703235 -0.378838,-0.871407 -0.244143,-0.175805 -0.572468,-0.263711 -0.984977,-0.263716" />
  <path
     style="line-height:125%;letter-spacing:0;word-spacing:0;fill:#ffffff"
     inkscape:connector-curvature="0"
     id="path3039"
     d="m 20.460699,37.816098 c 0.993391,7e-6 1.763692,0.187282 2.310906,0.561828 0.547204,0.366915 0.820808,0.970785 0.820814,1.811611 -6e-6,0.84848 -0.277819,1.463816 -0.833441,1.846009 -0.547215,0.374555 -1.325935,0.56183 -2.336164,0.561828 l -0.555628,0 0,2.396372 -1.553232,0 0,-7.00566 c 0.151534,-0.03058 0.319906,-0.05732 0.505116,-0.08027 0.193627,-0.02293 0.387254,-0.03821 0.580884,-0.04586 0.193626,-0.01528 0.383044,-0.02675 0.568255,-0.03439 0.185208,-0.0076 0.349369,-0.01146 0.49249,-0.01147 m 0.17679,1.22685 c -0.0926,5e-6 -0.223096,0.0039 -0.391465,0.01147 -0.159956,7e-6 -0.286236,0.0076 -0.378838,0.02293 l 0,2.293178 0.631395,0 c 0.496695,3e-6 0.871323,-0.0879 1.123884,-0.263715 0.252555,-0.183451 0.378834,-0.49303 0.378838,-0.928738 -4e-6,-0.412767 -0.126283,-0.703235 -0.378838,-0.871407 -0.244143,-0.175805 -0.572468,-0.263711 -0.984976,-0.263716" />
  <path
     style="fill:#ffffff"
     d="m 12,16.999985 6.99999,0 0,5.000005 -6.99999,0 z"
     id="path3015-0"
     inkscape:connector-curvature="0" />
  <path
     style="fill:#ffffff"
     d="m 12,24.999994 6.99999,0 0,5.000006 L 12,30 z"
     id="path3017-5"
     inkscape:connector-curvature="0" />
  <path
     style="fill:#ffffff"
     d="m 30.000003,16.999985 0,6.000015 5.999959,0 c 0,-3.313717 -2.686278,-6.000015 -5.999959,-6.000015 z"
     id="path3023"
     inkscape:connector-curvature="0" />
  <path
     style="fill:#ffffff"
     d="m 29.000003,18 c -4,0 -7,2.910147 -7,6.5 0,3.589852 2.910148,6.5 6.499999,6.5 3.589852,0 6.500001,-3 6.500001,-7 l -6,0 z"
     id="path3025"
     inkscape:connector-curvature="0"
     sodipodi:nodetypes="cssccc" />
  <path
     style="line-height:125%;letter-spacing:0;word-spacing:0;fill:#ffffff"
     d="m 34.352949,45 c -0.156868,-0.384491 -0.350881,-0.810446 -0.582042,-1.277868 -0.222913,-0.467417 -0.458205,-0.934838 -0.705879,-1.402261 -0.239424,0.444805 -0.478846,0.908457 -0.718264,1.390953 C 32.10734,44.185785 31.900943,44.615509 31.727571,45 l -1.647053,0 c 0.08256,-0.203553 0.20227,-0.448573 0.359132,-0.735056 0.165118,-0.286483 0.34262,-0.595582 0.532507,-0.927303 0.198139,-0.331715 0.404537,-0.670972 0.619192,-1.01777 0.214652,-0.354332 0.421048,-0.693588 0.619193,-1.017771 L 30.204358,38 31.851409,38 33.065028,40.239095 34.340564,38 l 1.535598,0 -1.956649,3.268175 c 0.222905,0.324182 0.441686,0.663438 0.656345,1.017771 0.214648,0.354336 0.41279,0.701133 0.594424,1.040388 0.189881,0.331719 0.354999,0.644589 0.495355,0.93861 C 35.805981,44.551427 35.917436,44.796447 36,45 l -1.647051,0"
     id="path20"
     inkscape:connector-curvature="0" />
  <path
     style="line-height:125%;letter-spacing:0;word-spacing:0;fill:#ffffff"
     d="m 26.612004,43.849473 c 0.25593,10e-7 0.466456,-0.02222 0.631577,-0.06666 0.17337,-0.05185 0.309592,-0.118515 0.408667,-0.199997 0.09907,-0.08889 0.165115,-0.18518 0.198142,-0.288883 0.04128,-0.111107 0.06192,-0.222216 0.06192,-0.333328 -3e-6,-0.140736 -0.04541,-0.266659 -0.136222,-0.37777 -0.09082,-0.111106 -0.206402,-0.207401 -0.346748,-0.288883 -0.140354,-0.08889 -0.297216,-0.166661 -0.470586,-0.233328 -0.173377,-0.07407 -0.346751,-0.140736 -0.520122,-0.199996 -0.231168,-0.07407 -0.470589,-0.159254 -0.718263,-0.255552 -0.247679,-0.09629 -0.474717,-0.218511 -0.681112,-0.36666 -0.198144,-0.148141 -0.363261,-0.329618 -0.495354,-0.544433 -0.132096,-0.222214 -0.198143,-0.496283 -0.198142,-0.822207 -1e-6,-0.644426 0.231164,-1.14812 0.693496,-1.511082 0.470585,-0.36295 1.114544,-0.544427 1.931881,-0.544434 0.470582,7e-6 0.87925,0.04815 1.226001,0.144441 0.354999,0.0963 0.652212,0.203706 0.891637,0.322217 l -0.445819,1.055535 c -0.206402,-0.103696 -0.437566,-0.192583 -0.693495,-0.266662 -0.247682,-0.07406 -0.536638,-0.111102 -0.866869,-0.111109 -0.809081,7e-6 -1.213621,0.262964 -1.213619,0.788875 -2e-6,0.133335 0.04128,0.251851 0.123839,0.355548 0.08256,0.0963 0.185756,0.185186 0.309597,0.266662 0.132092,0.07408 0.276569,0.140741 0.433435,0.199995 0.165114,0.05926 0.326104,0.114817 0.48297,0.166665 0.239417,0.08148 0.487093,0.174074 0.74303,0.277771 0.264185,0.0963 0.503607,0.229629 0.718264,0.399993 0.222905,0.162963 0.404534,0.370367 0.54489,0.622211 0.140344,0.244442 0.210519,0.555546 0.210525,0.933315 -6e-6,0.644434 -0.235298,1.144423 -0.705879,1.499971 -0.462335,0.348142 -1.168214,0.522213 -2.11764,0.522213 -0.635706,0 -1.143443,-0.05926 -1.523213,-0.177775 -0.379773,-0.125923 -0.664601,-0.240736 -0.854487,-0.344438 l 0.445819,-1.11109 c 0.222908,0.118518 0.487097,0.229627 0.792567,0.333328 0.313723,0.103702 0.693494,0.155553 1.139314,0.155552"
     id="path24"
     inkscape:connector-curvature="0" />
</svg>
