<svg version="1.1" viewBox="0 0 48 48" xmlns="http://www.w3.org/2000/svg">
 <path d="m8 1c-1.03 0-2 0.971-2 2v42c0 0.971 1.03 2 2 2h32c0.971 0 2-1.03 2-2v-31l-13-13z" style="fill:#c19553"/>
 <path d="m31 14 11 11v-11z" style="opacity:.2"/>
 <path d="m29 1 13 13h-11c-0.971 0-2-1.03-2-2v-11z" style="fill:#fff;opacity:.4"/>
 <path d="m6 35v10c0 0.971 1.03 2 2 2h32c0.971 0 2-1.03 2-2v-10z" style="opacity:.2"/>
 <path d="m18 1v4h4v-4zm0 4h-4v4h4zm0 4v4h4v-4zm0 4h-4v4h4zm0 4v4h4v-4zm-4 6v8h8v-8h-4z" style="fill:#fff"/>
 <path d="m27.1 36.9c-0.786 0-1.41 0.206-1.86 0.621-0.444 0.415-0.666 0.99-0.666 1.73 0 0.372 0.0625 0.686 0.189 0.939 0.127 0.245 0.286 0.454 0.477 0.623 0.198 0.169 0.416 0.308 0.654 0.418 0.238 0.11 0.469 0.206 0.691 0.291 0.167 0.0677 0.333 0.144 0.5 0.229 0.167 0.0762 0.318 0.166 0.453 0.268 0.135 0.0931 0.245 0.203 0.332 0.33 0.0873 0.127 0.131 0.271 0.131 0.432 0 0.127-0.0189 0.254-0.0586 0.381-0.0318 0.118-0.0962 0.229-0.191 0.33-0.0952 0.0931-0.226 0.169-0.393 0.229-0.159 0.0508-0.361 0.0762-0.607 0.0762-0.429 0-0.792-0.0593-1.09-0.178-0.294-0.118-0.549-0.245-0.764-0.381l-0.428 1.27c0.183 0.118 0.457 0.249 0.822 0.393 0.365 0.135 0.852 0.203 1.46 0.203 0.913 0 1.59-0.198 2.04-0.596 0.452-0.406 0.678-0.979 0.678-1.71 0-0.432-0.0682-0.787-0.203-1.07-0.135-0.288-0.309-0.525-0.523-0.711-0.206-0.195-0.435-0.345-0.689-0.455-0.246-0.118-0.485-0.225-0.715-0.318-0.151-0.0592-0.306-0.122-0.465-0.189-0.151-0.0677-0.289-0.144-0.416-0.229-0.119-0.0931-0.218-0.195-0.297-0.305-0.0794-0.118-0.119-0.254-0.119-0.406 0-0.601 0.388-0.902 1.17-0.902 0.317 0 0.596 0.0423 0.834 0.127 0.246 0.0846 0.468 0.186 0.666 0.305l0.428-1.21c-0.23-0.135-0.516-0.259-0.857-0.369-0.333-0.11-0.725-0.164-1.18-0.164zm-14.1 0.0996v1.32h1.81v6.68h1.38v-6.68h1.81v-1.32zm6.14 0v1.32h2.62c-0.324 0.638-0.621 1.23-0.893 1.77-0.265 0.543-0.51 1.05-0.738 1.51s-0.435 0.905-0.619 1.32c-0.184 0.405-0.356 0.792-0.518 1.16v0.918h4.5v-1.32h-2.93c0.184-0.405 0.376-0.815 0.574-1.23 0.206-0.422 0.422-0.857 0.65-1.3 0.228-0.457 0.474-0.934 0.738-1.43 0.265-0.5 0.555-1.03 0.871-1.6v-1.11zm10.9 0v1.32h1.81v6.68h1.38v-6.68h1.81v-1.32z" style="fill:#fff"/>
</svg>
