<svg version="1.1" viewBox="0 0 48 48" xmlns="http://www.w3.org/2000/svg">
 <path d="m8 1c-1.03 0-2 0.971-2 2v42c0 0.971 1.03 2 2 2h32c0.971 0 2-1.03 2-2v-31l-13-13z" style="fill:#c19553"/>
 <path d="m31 14 11 11v-11z" style="opacity:.2"/>
 <path d="m29 1 13 13h-11c-0.971 0-2-1.03-2-2v-11z" style="fill:#fff;opacity:.4"/>
 <path d="m6 35v10c0 0.971 1.03 2 2 2h32c0.971 0 2-1.03 2-2v-10z" style="opacity:.2"/>
 <path d="m18 1v4h4v-4zm0 4h-4v4h4zm0 4v4h4v-4zm0 4h-4v4h4zm0 4v4h4v-4zm-4 6v8h8v-8h-4z" style="fill:#fff"/>
 <path d="m32.7 36.9c-0.715 0.026-1.43 0.0372-2.14 0.189v7.87h1.55v-2.8h0.553c3 0 3.16-1.8 3.16-2.65-0.0169-1.95-1.41-2.5-3.12-2.61zm-14.6 0.0566v1.32h3.11c-1.1 1.84-2.26 3.77-3.28 5.77v0.916h5.33v-1.32h-3.48c1.03-1.87 2.14-3.72 3.36-5.57l-2e-3 -2e-3v-1.11zm-6.07 0.00391v8h4.86v-1.32h-3.31v-6.68zm12.5 0v1.32h1.53v5.36h-1.53v1.32h4.75v-1.32h-1.82v-5.36h1.82v-1.32zm8.34 1.29c0.678 0 1.36 0.249 1.36 1.25 0 0.708-0.242 1.31-1.5 1.31h-0.629v-2.52c0.27-0.014 0.497-0.0411 0.768-0.0371z" style="fill:#fff"/>
</svg>
