<svg version="1.1" viewBox="0 0 48 48" xmlns="http://www.w3.org/2000/svg">
 <path d="m8 1c-1.03 0-2 0.971-2 2v42c0 0.971 1.03 2 2 2h32c0.971 0 2-1.03 2-2v-31l-13-13z" style="fill:#dcdcdc"/>
 <path d="m31 14 11 11v-11z" style="opacity:.2"/>
 <path d="m29 1 13 13h-11c-0.971 0-2-1.03-2-2v-11z" style="fill:#fff;opacity:.4"/>
 <path d="m24 18c-4.96 0-9 4.04-9 9 0 4.96 4.04 9 9 9 4.96 0 9-4.04 9-9 0-4.96-4.04-9-9-9zm-1 1.7v3.3h-2.3c0.169-0.972 0.401-1.94 0.695-2.89 0.509-0.192 1.05-0.329 1.6-0.404zm2 0c0.526 0.0708 1.03 0.198 1.52 0.373 0.289 0.943 0.517 1.92 0.686 2.92h-2.21v-3.3zm2.72 0.934c0.998 0.583 1.85 1.39 2.47 2.36h-1.97c-0.131-0.799-0.3-1.59-0.506-2.36zm-7.53 0.0566c-0.205 0.764-0.371 1.53-0.5 2.31h-1.88c0.606-0.938 1.42-1.73 2.38-2.31zm-2.92 3.31h2.27c-0.0823 0.665-0.138 1.33-0.164 2h-2.68c0.0948-0.704 0.288-1.37 0.566-2zm3.28 0h2.45v2h-2.62c0.0277-0.668 0.0839-1.33 0.17-2zm4.45 0h2.35c0.0848 0.665 0.145 1.33 0.178 2h-2.53v-2zm3.37 0h2.36c0.278 0.625 0.472 1.3 0.566 2h-2.76c-0.0323-0.666-0.0906-1.33-0.174-2zm-11.7 4h2.68c0.0291 0.665 0.0855 1.33 0.17 1.99h-2.29c-0.276-0.623-0.468-1.29-0.562-1.99zm3.68 0h2.62v1.99h-2.44c-0.0883-0.662-0.147-1.33-0.178-1.99zm4.62 0h2.55c-0.0203 0.676-0.0689 1.34-0.145 1.99h-2.4v-1.99zm3.56 0h2.74c-0.0944 0.7-0.287 1.37-0.562 1.99h-2.31c0.0739-0.651 0.121-1.32 0.141-1.99zm-10.8 2.99h1.9c0.133 0.783 0.306 1.56 0.518 2.34-0.974-0.582-1.8-1.38-2.42-2.34zm2.91 0h2.28v3.31c-0.544-0.0733-1.07-0.206-1.57-0.391-0.302-0.962-0.54-1.94-0.715-2.92zm4.28 0h2.26c-0.175 1.05-0.428 2.04-0.756 2.94-0.481 0.173-0.985 0.299-1.51 0.369v-3.31zm3.29 0h1.91c-0.619 0.961-1.46 1.77-2.44 2.35 0.222-0.746 0.398-1.54 0.529-2.35z" style="fill:#888"/>
</svg>
