<svg width="48" height="48" version="1.1" viewBox="0 0 48 48" xmlns="http://www.w3.org/2000/svg">
 <path d="m8 1c-1.03 0-2 0.971-2 2v42c0 0.971 1.03 2 2 2h32c0.971 0 2-1.03 2-2v-31l-13-13z" style="fill:#c19553"/>
 <path d="m31 14 11 11v-11z" style="opacity:.2"/>
 <path d="m29 1 13 13h-11c-0.971 0-2-1.03-2-2v-11z" style="fill:#fff;opacity:.4"/>
 <path d="m6 35v10c0 0.971 1.03 2 2 2h32c0.971 0 2-1.03 2-2v-10z" style="opacity:.2"/>
 <path d="m18 1v4h4v-4zm0 4h-4v4h4zm0 4v4h4v-4zm0 4h-4v4h4zm0 4v4h4v-4zm-4 6v8h8v-8h-4z" style="fill:#fff"/>
 <path d="m23.9 37c-2.73 2.2e-5 -3.13 2.54-3.12 4-1e-6 1.15 0.163 4 3.14 4 2.63 0 3.11-2.32 3.11-4-1e-5 -1.85-0.551-4-3.12-4zm7.01 0c-2.73 2.2e-5 -3.13 2.54-3.12 4-1e-6 1.15 0.163 4 3.14 4 2.63 0 3.11-2.32 3.11-4-1e-5 -1.85-0.551-4-3.12-4zm-16.7-0.0259v1.26h3.34c-2 2.96-2.69 4.49-3.52 5.92v0.879h5.72v-1.26h-3.73c0.547-0.908 1.75-3.23 3.6-5.74v-1.06zm9.69 1.35c0.912 2.1e-5 1.37 0.661 1.37 2.68 0 1.78-0.349 2.67-1.37 2.67-1.26 4e-6 -1.37-1.36-1.37-2.67 0-1.36 0.138-2.68 1.37-2.68zm7.01 0c0.912 2.1e-5 1.37 0.661 1.37 2.68-4.8e-5 1.77-0.348 2.67-1.37 2.67-1.26 4e-6 -1.37-1.36-1.37-2.67 0-1.36 0.138-2.68 1.37-2.68z" style="fill:#fff"/>
</svg>
