<svg version="1.1" viewBox="0 0 48 48" xmlns="http://www.w3.org/2000/svg">
 <path d="m8 1c-1.03 0-2 0.971-2 2v42c0 0.971 1.03 2 2 2h32c0.971 0 2-1.03 2-2v-31l-13-13z" style="fill:#c19553"/>
 <path d="m31 14 11 11v-11z" style="opacity:.2"/>
 <path d="m29 1 13 13h-11c-0.971 0-2-1.03-2-2v-11z" style="fill:#fff;opacity:.4"/>
 <path d="m6 35v10c0 0.971 1.03 2 2 2h32c0.971 0 2-1.03 2-2v-10z" style="opacity:.2"/>
 <path d="m18 1v4h4v-4zm0 4h-4v4h4zm0 4v4h4v-4zm0 4h-4v4h4zm0 4v4h4v-4zm-4 6v8h8v-8h-4z" style="fill:#fff"/>
 <path d="m26.3 36.9v2e-3c-0.125 0-0.272 0.0027-0.439 0.0117-0.518 0.04-1.06 0.0664-1.59 0.193v7.86h1.59v-2.94h0.775c0.519 0.907 1.12 1.88 1.52 2.94h1.62c-0.486-1.13-1.01-2.18-1.73-3.32 0.977-0.453 1.19-1.39 1.19-2.12 0-2.27-1.82-2.62-2.94-2.62zm4.59 0.0566v1.32h3.11c-1.1 1.84-2.26 3.77-3.28 5.77v0.916h5.33v-1.32h-3.48c1.03-1.87 2.13-3.72 3.36-5.57l-0.0059-2e-3v-1.11zm-19.2 0.00391v1.3h2.04v6.7h1.6v-6.7h2v-1.3zm6.59 0v8h4.7v-1.3h-3.1v-6.7zm8.03 1.32c0.505 0 1.37 0.156 1.37 1.22 0 1.15-1 1.21-1.49 1.21h-0.312v-2.4c0.149-0.013 0.276-0.0411 0.438-0.0391z" style="fill:#fff"/>
</svg>
