<svg xmlns="http://www.w3.org/2000/svg" viewBox="0 0 48 48" xmlns:xlink="http://www.w3.org/1999/xlink">
<defs>
<linearGradient gradientTransform="matrix(.06732 0 0 .0147 -.34114 37.04015)" id="linearGradient3981" xlink:href="#linearGradient5048" y1="366.648" y2="609.505" x2="0" gradientUnits="userSpaceOnUse"/>
<linearGradient id="linearGradient3977">
<stop offset="0" style="stop-color:#fff"/>
<stop offset=".036" style="stop-color:#fff;stop-opacity:.235"/>
<stop offset=".951" style="stop-color:#fff;stop-opacity:.157"/>
<stop offset="1" style="stop-color:#fff;stop-opacity:.392"/>
</linearGradient>
<linearGradient gradientTransform="translate(0 -.00046)" id="linearGradient3062-0-8" xlink:href="#linearGradient3707-662" y1="47.935" y2=".918" x2="0" gradientUnits="userSpaceOnUse"/>
<linearGradient id="linearGradient5048">
<stop offset="0" style="stop-opacity:0"/>
<stop offset=".5"/>
<stop offset="1" style="stop-opacity:0"/>
</linearGradient>
<linearGradient id="linearGradient5060">
<stop offset="0"/>
<stop offset="1" style="stop-opacity:0"/>
</linearGradient>
<linearGradient id="linearGradient3671-580">
<stop offset="0" style="stop-color:#fc93dc"/>
<stop offset=".262" style="stop-color:#da72d3"/>
<stop offset=".705" style="stop-color:#a33fab"/>
<stop offset="1" style="stop-color:#502b58"/>
</linearGradient>
<linearGradient gradientTransform="matrix(1 0 0 -1 0 48.01215)" xlink:href="#linearGradient4311" id="linearGradient3895" y1="12.978" y2="36.95" gradientUnits="userSpaceOnUse" x2="0"/>
<linearGradient gradientTransform="translate(0 -2)" xlink:href="#linearGradient4311" id="linearGradient3898" y1="12.978" y2="36.95" gradientUnits="userSpaceOnUse" x2="0"/>
<linearGradient id="linearGradient4311">
<stop offset="0"/>
<stop offset="1" style="stop-opacity:0"/>
</linearGradient>
<linearGradient id="linearGradient3707-662">
<stop offset="0" style="stop-color:#542f57"/>
<stop offset="1" style="stop-color:#bb5ca4"/>
</linearGradient>
<linearGradient gradientTransform="matrix(.89189 0 0 1.13514 2.5946 -4.74323)" xlink:href="#linearGradient3977" id="linearGradient3988" y1="5.564" y2="43" gradientUnits="userSpaceOnUse" x2="0"/>
<radialGradient cx="605.714" cy="486.648" gradientTransform="matrix(-.02304 0 0 .0147 21.62311 37.04018)" xlink:href="#linearGradient5060" id="radialGradient3330" r="117.143" gradientUnits="userSpaceOnUse"/>
<radialGradient fx="7.276" cx="7.806" cy="9.957" gradientTransform="matrix(-0 6.60187 -8.09221 -0 104.56429 -60.07295)" r="12.672" id="radialGradient3060-0-4" xlink:href="#linearGradient3671-580" gradientUnits="userSpaceOnUse"/>
<radialGradient cx="605.714" cy="486.648" gradientTransform="matrix(.02304 0 0 .0147 26.36088 37.04018)" xlink:href="#linearGradient5060" id="radialGradient3327" r="117.143" gradientUnits="userSpaceOnUse"/>
</defs>
<rect width="32.508" x="7.738" y="42.43" height="3.57" style="opacity:.3;fill:url(#linearGradient3981)"/>
<path style="opacity:.3;fill:url(#radialGradient3330)" d="m 7.7378475,42.430102 c 0,0 0,3.569856 0,3.569856 -1.1865002,0.0067 -2.8683795,-0.799823 -2.8683795,-1.785158 0,-0.985333 1.3240446,-1.784697 2.8683795,-1.784698 z"/>
<path style="opacity:.3;fill:url(#radialGradient3327)" d="m 40.246148,42.430102 c 0,0 0,3.569856 0,3.569856 1.1865,0.0067 2.86838,-0.799823 2.86838,-1.785158 0,-0.985333 -1.324045,-1.784697 -2.86838,-1.784698 z"/>
<g style="stroke-linejoin:round">
<path style="fill:url(#radialGradient3060-0-4);stroke:url(#linearGradient3062-0-8);color:#000" d="m 6.4999609,0.49719907 c 8.0202951,0 35.0000391,0.002801 35.0000391,0.002801 l 4.2e-5,44.00280293 c 0,0 -23.333387,0 -35.0000811,0 0,-14.668535 0,-29.33707 0,-44.005604 z"/>
<path style="opacity:.5;fill:none;stroke:url(#linearGradient3988);stroke-linecap:round" d="m 40.5,43.5 -33,0 0,-41.9999997 33,0 z"/>
</g>
<path style="opacity:.3;fill:#fff" d="m 23.000002,12 c -0.554,0 -1,0.446 -1,1 l 0,2.25 c -1.005406,0.228939 -1.934872,0.621619 -2.78125,1.15625 l -1.59375,-1.59375 c -0.391737,-0.391737 -1.014512,-0.391737 -1.40625,0 l -1.40625,1.40625 c -0.391737,0.391737 -0.391737,1.014512 0,1.40625 l 1.59375,1.59375 C 15.871621,20.065128 15.478941,20.994594 15.250002,22 l -2.25,0 c -0.554,0 -1,0.446 -1,1 l 0,2 c 0,0.554 0.446,1 1,1 l 2.25,0 c 0.228939,1.005406 0.621619,1.934872 1.15625,2.78125 l -1.59375,1.59375 c -0.391737,0.391737 -0.391737,1.014512 0,1.40625 l 1.40625,1.40625 c 0.391737,0.391737 1.014512,0.391739 1.40625,0 l 1.59375,-1.59375 c 0.846378,0.534631 1.775844,0.927311 2.78125,1.15625 l 0,2.25 c 0,0.554 0.446,1 1,1 l 2,0 c 0.554,0 1,-0.446 1,-1 l 0,-2.25 c 1.005406,-0.228939 1.934872,-0.621619 2.78125,-1.15625 l 1.59375,1.59375 c 0.391737,0.391737 1.014512,0.391735 1.40625,0 l 1.40625,-1.40625 c 0.391737,-0.391737 0.391739,-1.014514 0,-1.40625 l -1.59375,-1.59375 C 32.128383,27.934872 32.521063,27.005406 32.750002,26 l 2.25,0 c 0.554,0 1,-0.446 1,-1 l 0,-2 c 0,-0.554 -0.446,-1 -1,-1 l -2.25,0 c -0.228939,-1.005406 -0.621619,-1.934872 -1.15625,-2.78125 l 1.59375,-1.59375 c 0.391737,-0.391737 0.391735,-1.014512 0,-1.40625 l -1.40625,-1.40625 c -0.391737,-0.391737 -1.014514,-0.391737 -1.40625,0 l -1.59375,1.59375 C 27.934874,15.871619 27.005408,15.478939 26.000002,15.25 l 0,-2.25 c 0,-0.554 -0.446,-1 -1,-1 l -2,0 z m 1,8 c 2.208,-1e-6 4,1.792 4,4 0,2.208001 -1.792,4 -4,4 -2.207999,1e-6 -4,-1.792 -4,-4 1e-6,-2.207999 1.792,-4 4,-4 z"/>
<path style="fill:#82437a" d="m 23.000002,11 c -0.554,0 -1,0.446 -1,1 l 0,2.25 c -1.005406,0.228939 -1.934872,0.621619 -2.78125,1.15625 l -1.59375,-1.59375 c -0.391737,-0.391737 -1.014512,-0.391737 -1.40625,0 l -1.40625,1.40625 c -0.391737,0.391737 -0.391737,1.014512 0,1.40625 l 1.59375,1.59375 C 15.871621,19.065128 15.478941,19.994594 15.250002,21 l -2.25,0 c -0.554,0 -1,0.446 -1,1 l 0,2 c 0,0.554 0.446,1 1,1 l 2.25,0 c 0.228939,1.005406 0.621619,1.934872 1.15625,2.78125 l -1.59375,1.59375 c -0.391737,0.391737 -0.391737,1.014512 0,1.40625 l 1.40625,1.40625 c 0.391737,0.391737 1.014512,0.391739 1.40625,0 l 1.59375,-1.59375 c 0.846378,0.534631 1.775844,0.927311 2.78125,1.15625 l 0,2.25 c 0,0.554 0.446,1 1,1 l 2,0 c 0.554,0 1,-0.446 1,-1 l 0,-2.25 c 1.005406,-0.228939 1.934872,-0.621619 2.78125,-1.15625 l 1.59375,1.59375 c 0.391737,0.391737 1.014512,0.391735 1.40625,0 l 1.40625,-1.40625 c 0.391737,-0.391737 0.391739,-1.014514 0,-1.40625 l -1.59375,-1.59375 C 32.128383,26.934872 32.521063,26.005406 32.750002,25 l 2.25,0 c 0.554,0 1,-0.446 1,-1 l 0,-2 c 0,-0.554 -0.446,-1 -1,-1 l -2.25,0 c -0.228939,-1.005406 -0.621619,-1.934872 -1.15625,-2.78125 l 1.59375,-1.59375 c 0.391737,-0.391737 0.391735,-1.014512 0,-1.40625 l -1.40625,-1.40625 c -0.391737,-0.391737 -1.014514,-0.391737 -1.40625,0 l -1.59375,1.59375 C 27.934874,14.871619 27.005408,14.478939 26.000002,14.25 l 0,-2.25 c 0,-0.554 -0.446,-1 -1,-1 l -2,0 z m 1,8 c 2.208,-1e-6 4,1.792 4,4 0,2.208001 -1.792,4 -4,4 -2.207999,1e-6 -4,-1.792 -4,-4 1e-6,-2.207999 1.792,-4 4,-4 z"/>
<g style="fill:none">
<path style="opacity:.1;stroke:url(#linearGradient3898)" d="m 23.000002,11.5 c -0.749401,0.100836 -0.431654,0.994225 -0.5,1.518234 -0.06533,0.505749 0.140724,1.086074 -0.12176,1.542612 -0.702909,0.394465 -1.600472,0.431983 -2.295042,0.897674 -0.368254,0.219801 -0.942772,0.697238 -1.304198,0.19548 -0.563059,-0.530393 -1.065881,-1.133181 -1.668933,-1.615507 -0.61966,-0.113046 -0.926793,0.604823 -1.363567,0.933757 -0.356937,0.370601 -1.120901,0.895364 -0.49425,1.405 0.521006,0.563212 1.1377,1.054596 1.601314,1.661112 0.101607,0.683744 -0.65736,1.185459 -0.763484,1.851492 -0.340041,0.473597 -0.117836,1.376389 -0.752416,1.600101 -0.844118,0.04661 -1.699625,-0.04394 -2.539298,0.047 -0.511261,0.358077 -0.221958,1.078608 -0.298366,1.617043 0.0139,0.512518 -0.167193,1.427591 0.635765,1.346002 0.76525,0.03035 1.547786,-0.05969 2.302854,0.04284 0.559354,0.427849 0.378343,1.337151 0.788769,1.895194 0.09666,0.558648 0.902573,1.05374 0.560525,1.642398 -0.567778,0.616545 -1.223987,1.158215 -1.74942,1.809501 -0.113046,0.61966 0.604823,0.926793 0.933757,1.363567 0.370601,0.356937 0.895364,1.120901 1.405,0.49425 0.563212,-0.521006 1.054596,-1.1377 1.661112,-1.601314 0.683744,-0.101607 1.185459,0.65736 1.851492,0.763484 0.473597,0.340041 1.376389,0.117836 1.600101,0.752416 0.04661,0.844118 -0.04394,1.699625 0.047,2.539298 0.358077,0.511261 1.078608,0.221958 1.617043,0.298366 0.512518,-0.0139 1.427591,0.167193 1.346002,-0.635765 0.03035,-0.76525 -0.05969,-1.547786 0.04284,-2.302854 0.427849,-0.559354 1.337151,-0.378343 1.895194,-0.788769 0.558648,-0.09666 1.05374,-0.902573 1.642398,-0.560525 0.616545,0.567778 1.158215,1.223987 1.809501,1.74942 0.61966,0.113046 0.926793,-0.604823 1.363567,-0.933757 0.356937,-0.370601 1.1209,-0.895364 0.49425,-1.405 -0.521006,-0.563212 -1.1377,-1.054596 -1.601314,-1.661112 -0.101607,-0.683744 0.65736,-1.185459 0.763484,-1.851492 0.340041,-0.473597 0.117836,-1.376389 0.752416,-1.600101 0.844118,-0.04661 1.699625,0.04394 2.539298,-0.047 0.511261,-0.358077 0.221958,-1.078608 0.298366,-1.617043 -0.0139,-0.512518 0.167193,-1.427591 -0.635765,-1.346002 -0.76525,-0.03035 -1.547786,0.05969 -2.302854,-0.04284 -0.559354,-0.427849 -0.378343,-1.337151 -0.788769,-1.895194 -0.09666,-0.558648 -0.902573,-1.05374 -0.560525,-1.642398 0.567778,-0.616545 1.223987,-1.158215 1.74942,-1.809501 0.113046,-0.61966 -0.604823,-0.926793 -0.933757,-1.363567 -0.370601,-0.356938 -0.895364,-1.120899 -1.405,-0.49425 -0.563212,0.521006 -1.054596,1.1377 -1.661112,1.601314 -0.683744,0.101607 -1.185459,-0.65736 -1.851492,-0.763484 -0.473597,-0.340041 -1.376389,-0.117836 -1.600101,-0.752416 -0.04661,-0.844118 0.04394,-1.699625 -0.047,-2.539298 C 25.10497,11.287105 24.384439,11.576408 23.846004,11.5 c -0.282001,0 -0.564001,0 -0.846002,0 z"/>
<path style="opacity:.1;stroke:url(#linearGradient3895)" d="m 24.000002,27.512147 c 2.652547,0.07738 4.932812,-2.569049 4.447817,-5.18209 -0.330082,-2.625026 -3.271414,-4.486105 -5.78081,-3.614406 -2.463048,0.698295 -3.887996,3.705348 -2.811417,6.042226 0.679292,1.634262 2.368996,2.773583 4.14441,2.75427 z"/>
</g>
</svg>
