<svg version="1.1" viewBox="0 0 48 48" xmlns="http://www.w3.org/2000/svg">
 <path d="m8 1c-1.03 0-2 0.971-2 2v42c0 0.971 1.03 2 2 2h32c0.971 0 2-1.03 2-2v-31l-13-13z" style="fill:#a6a6a6"/>
 <path d="m31 14 11 11v-11z" style="opacity:.2"/>
 <path d="m29 1 13 13h-11c-0.971 0-2-1.03-2-2v-11z" style="fill:#fff;opacity:.4"/>
 <path d="m28.6 26.3a0.769 0.794 0 0 1-0.769 0.794 0.769 0.794 0 0 1-0.769-0.794 0.769 0.794 0 0 1 0.769-0.794 0.769 0.794 0 0 1 0.769 0.794zm1.54 1.59a0.769 0.794 0 0 1-0.769 0.794 0.769 0.794 0 0 1-0.769-0.794 0.769 0.794 0 0 1 0.769-0.794 0.769 0.794 0 0 1 0.769 0.794zm1.54-1.59a0.769 0.794 0 0 1-0.769 0.794 0.769 0.794 0 0 1-0.769-0.794 0.769 0.794 0 0 1 0.769-0.794 0.769 0.794 0 0 1 0.769 0.794zm-1.54-1.59a0.769 0.794 0 0 1-0.769 0.794 0.769 0.794 0 0 1-0.769-0.794 0.769 0.794 0 0 1 0.769-0.794 0.769 0.794 0 0 1 0.769 0.794zm-10 1.59a1.54 1.59 0 0 1-1.54 1.59 1.54 1.59 0 0 1-1.54-1.59 1.54 1.59 0 0 1 1.54-1.59 1.54 1.59 0 0 1 1.54 1.59zm-1.36-5.55c-0.553 0.023-1.01 0.268-1.32 0.513-1.85 1.45-3.47 7.5-3.47 10.7s0.714 3.07 1.33 3.07 1.4-0.439 2.08-1.06c1.88-1.71 2.74-3.7 4.61-3.7h3.96c1.87 0 2.73 2 4.61 3.7 0.68 0.618 1.46 1.06 2.08 1.06s1.33 0.136 1.33-3.07-1.62-9.25-3.47-10.7c-0.502-0.393-1.36-0.783-2.42-0.268-0.705 0.346-1.34 0.547-2.26 0.547h-3.71c-0.921 0-1.55-0.201-2.26-0.547-0.394-0.193-0.762-0.259-1.09-0.245z" style="fill:#fff"/>
</svg>
