<?xml version="1.0" encoding="UTF-8" standalone="no"?>
<svg
   xmlns:dc="http://purl.org/dc/elements/1.1/"
   xmlns:cc="http://creativecommons.org/ns#"
   xmlns:rdf="http://www.w3.org/1999/02/22-rdf-syntax-ns#"
   xmlns:svg="http://www.w3.org/2000/svg"
   xmlns="http://www.w3.org/2000/svg"
   xmlns:sodipodi="http://sodipodi.sourceforge.net/DTD/sodipodi-0.dtd"
   xmlns:inkscape="http://www.inkscape.org/namespaces/inkscape"
   width="48"
   viewBox="0 0 48 48"
   height="48"
   id="svg2"
   version="1.1"
   inkscape:version="0.91 r13725"
   sodipodi:docname="image-x-win-bitmap.svg">
  <metadata
     id="metadata16">
    <rdf:RDF>
      <cc:Work
         rdf:about="">
        <dc:format>image/svg+xml</dc:format>
        <dc:type
           rdf:resource="http://purl.org/dc/dcmitype/StillImage" />
        <dc:title />
      </cc:Work>
    </rdf:RDF>
  </metadata>
  <defs
     id="defs14">
    <clipPath
       id="clipPath-258929573">
      <g
         transform="translate(0,-1004.3622)"
         id="g17">
        <path
           inkscape:connector-curvature="0"
           d="m -24,13 c 0,1.105 -0.672,2 -1.5,2 -0.828,0 -1.5,-0.895 -1.5,-2 0,-1.105 0.672,-2 1.5,-2 0.828,0 1.5,0.895 1.5,2 z"
           transform="matrix(15.333333,0,0,11.5,414.99999,878.8622)"
           style="fill:#1890d0"
           id="path19" />
      </g>
    </clipPath>
  </defs>
  <sodipodi:namedview
     pagecolor="#ffffff"
     bordercolor="#666666"
     borderopacity="1"
     objecttolerance="10"
     gridtolerance="10"
     guidetolerance="10"
     inkscape:pageopacity="0"
     inkscape:pageshadow="2"
     inkscape:window-width="1920"
     inkscape:window-height="1013"
     id="namedview12"
     showgrid="true"
     inkscape:zoom="32"
     inkscape:cx="23.158839"
     inkscape:cy="12.209181"
     inkscape:window-x="0"
     inkscape:window-y="27"
     inkscape:window-maximized="1"
     inkscape:current-layer="svg2">
    <inkscape:grid
       type="xygrid"
       id="grid4157" />
  </sodipodi:namedview>
  <path
     style="fill:#757d32;fill-opacity:1"
     d="M 8,1 C 6.9714285,1 6,1.9714285 6,3 l 0,42 c 0,0.971429 1.0285714,2 2,2 l 32,0 c 0.971429,0 2,-1.028571 2,-2 L 42,14 29,1 z"
     id="path4" />
  <path
     style="fill-opacity:.196"
     d="M 29,12 29.0625,12.0625 29.21875,12 29,12 z m 2,2 11,11 0,-11 -11,0 z"
     id="path6" />
  <path
     style="fill:#fff;fill-opacity:.392"
     d="m 29,1 13,13 -11,0 c -0.971429,0 -2,-1.028571 -2,-2 L 29,1 z"
     id="path8" />
  <path
     sodipodi:nodetypes="cccccccc"
     inkscape:connector-curvature="0"
     id="path3809"
     d="M 19.900372,14 18.5,28.848455 22.078832,25.801331 23.70385,31 26.45385,30.133432 24.828833,24.934761 29.5,25.382178 Z"
     style="color:#000000;display:inline;overflow:visible;visibility:visible;fill:#f9f9f9;fill-opacity:1;fill-rule:nonzero;stroke:none;stroke-width:2.5;marker:none;enable-background:accumulate" />
  <path
     inkscape:connector-curvature="0"
     style="fill-opacity:0.19599998"
     d="m 6,35 0,10 c 0,0.971429 1.028571,2 2,2 l 32,0 c 0.971429,0 2,-1.028571 2,-2 l 0,-10 z"
     id="path10" />
  <path
     inkscape:connector-curvature="0"
     id="path4144"
     style="font-style:normal;font-variant:normal;font-weight:bold;font-stretch:normal;font-size:medium;line-height:125%;font-family:'Ubuntu Mono';-inkscape-font-specification:'Ubuntu Mono, Bold';text-align:start;letter-spacing:0px;word-spacing:0px;writing-mode:lr-tb;text-anchor:start;fill:#ffffff;fill-opacity:1;stroke:none;stroke-width:1px;stroke-linecap:butt;stroke-linejoin:miter;stroke-opacity:1"
     d="m 16.651584,45.000001 q -1.778281,0 -2.714932,-1.040247 Q 13,42.919507 13,41.000004 q 0,-0.95356 0.285068,-1.696592 0.285068,-0.743035 0.78733,-1.250774 0.515837,-0.520124 1.208145,-0.780185 0.705882,-0.272446 1.533937,-0.272446 0.447964,0 0.800905,0.07431 0.366516,0.06192 0.63801,0.148607 0.271493,0.08669 0.447962,0.185758 0.190046,0.09907 0.285069,0.148607 l -0.434389,1.213621 q -0.312218,-0.185758 -0.760182,-0.309597 -0.434389,-0.136222 -1.004524,-0.136222 -0.393665,0 -0.773756,0.136222 -0.366516,0.123839 -0.665158,0.433436 -0.285068,0.297214 -0.475114,0.804954 -0.176471,0.507738 -0.176471,1.263156 0,1.312692 0.488689,2.018574 0.502262,0.693499 1.628959,0.693499 0.651584,0 1.072398,-0.136224 0.434389,-0.136222 0.692308,-0.272445 L 19,44.4675 q -0.352941,0.198142 -0.9638,0.371516 -0.597286,0.160991 -1.384616,0.160991 z" />
  <path
     inkscape:connector-curvature="0"
     id="path4146"
     style="font-style:normal;font-variant:normal;font-weight:bold;font-stretch:normal;font-size:medium;line-height:125%;font-family:'Ubuntu Mono';-inkscape-font-specification:'Ubuntu Mono, Bold';text-align:start;letter-spacing:0px;word-spacing:0px;writing-mode:lr-tb;text-anchor:start;fill:#ffffff;fill-opacity:1;stroke:none;stroke-width:1px;stroke-linecap:butt;stroke-linejoin:miter;stroke-opacity:1"
     d="m 22.971557,45.000001 q -0.853079,0 -1.436016,-0.202532 Q 20.966823,44.58228 20.625591,44.189874 20.284359,43.797469 20.14218,43.240508 20,42.683545 20,42.000001 l 0,-5 1.763028,0 0,4.898734 q 0,0.493672 0.05688,0.835443 0.05688,0.329114 0.184835,0.531646 0.14218,0.202531 0.383885,0.291139 0.241705,0.08861 0.611373,0.08861 0.369667,0 0.611373,-0.08861 0.241706,-0.08861 0.383886,-0.291139 0.14218,-0.21519 0.199051,-0.544303 0.05688,-0.341773 0.05688,-0.835444 l 0,-4.886076 1.748811,0 0,5 q 0,0.683544 -0.14218,1.240507 -0.142179,0.556961 -0.497629,0.949366 -0.355449,0.392406 -0.938386,0.607595 -0.582938,0.202532 -1.450234,0.202532 z" />
  <path
     inkscape:connector-curvature="0"
     id="path4148"
     style="font-style:normal;font-variant:normal;font-weight:bold;font-stretch:normal;font-size:medium;line-height:125%;font-family:'Ubuntu Mono';-inkscape-font-specification:'Ubuntu Mono, Bold';text-align:start;letter-spacing:0px;word-spacing:0px;writing-mode:lr-tb;text-anchor:start;fill:#ffffff;fill-opacity:1;stroke:none;stroke-width:1px;stroke-linecap:butt;stroke-linejoin:miter;stroke-opacity:1"
     d="m 29.206897,37 q 0.731034,0 1.324137,0.153356 0.593105,0.153355 1.02069,0.472843 0.427586,0.319488 0.648277,0.817891 0.234481,0.485624 0.234481,1.15016 0,0.690096 -0.303447,1.252396 -0.303448,0.5623 -1.006896,0.85623 0.234482,0.332267 0.496551,0.741214 0.262069,0.396166 0.510345,0.843451 Q 32.37931,43.722045 32.6,44.16933 32.834484,44.603834 33,45 l -1.77931,0 q -0.317241,-0.766773 -0.744828,-1.469648 -0.413793,-0.715655 -0.896551,-1.444091 l -0.882759,0 0,2.913739 L 27,45 27,37.204474 q 0.248276,-0.05112 0.537932,-0.08946 0.303448,-0.05112 0.606896,-0.0639 0.303448,-0.02556 0.57931,-0.03834 0.275863,-0.01277 0.482759,-0.01277 z m 1.503448,2.58147 q 0,-0.626198 -0.413792,-0.920127 -0.413794,-0.293931 -1.089656,-0.293931 -0.09655,0 -0.234484,0.01278 -0.13793,0 -0.275861,0.02556 l 0,2.376995 0.372414,0 q 0.868965,0 1.255172,-0.306708 0.386207,-0.319489 0.386207,-0.894569 z" />
</svg>
