<svg width="48" height="48" version="1.1" viewBox="0 0 48 48" xmlns="http://www.w3.org/2000/svg">
 <path d="m8 1c-1.03 0-2 0.971-2 2v42c0 0.971 1.03 2 2 2h32c0.971 0 2-1.03 2-2v-31l-13-13z" style="fill:#666"/>
 <path d="m29 12 0.0625 0.0625 0.156-0.0625h-0.219zm2 2 11 11v-11h-11z" style="opacity:.2"/>
 <path d="m29 1 13 13h-11c-0.971 0-2-1.03-2-2v-11z" style="fill:#fff;opacity:.4"/>
 <path d="m16 18v3h-3v3h3v4h-3v3h3v4h-3v3h3v3h16v-3h3v-3h-3v-4h3v-3h-3v-4h3v-3h-3v-3zm3 3h10v17h-10zm2 2v3h6v-3zm0 5v3h6v-3zm0 5v3h6v-3z" style="fill:#eee"/>
</svg>
