<?xml version="1.0" encoding="UTF-8" standalone="no"?>
<svg
   xmlns:dc="http://purl.org/dc/elements/1.1/"
   xmlns:cc="http://creativecommons.org/ns#"
   xmlns:rdf="http://www.w3.org/1999/02/22-rdf-syntax-ns#"
   xmlns:svg="http://www.w3.org/2000/svg"
   xmlns="http://www.w3.org/2000/svg"
   xmlns:sodipodi="http://sodipodi.sourceforge.net/DTD/sodipodi-0.dtd"
   xmlns:inkscape="http://www.inkscape.org/namespaces/inkscape"
   viewBox="0 0 48 48"
   id="svg2"
   version="1.1"
   inkscape:version="0.91 r13725"
   sodipodi:docname="text-x-po.svg">
  <metadata
     id="metadata18">
    <rdf:RDF>
      <cc:Work
         rdf:about="">
        <dc:format>image/svg+xml</dc:format>
        <dc:type
           rdf:resource="http://purl.org/dc/dcmitype/StillImage" />
        <dc:title />
      </cc:Work>
    </rdf:RDF>
  </metadata>
  <defs
     id="defs16" />
  <sodipodi:namedview
     pagecolor="#ffffff"
     bordercolor="#666666"
     borderopacity="1"
     objecttolerance="10"
     gridtolerance="10"
     guidetolerance="10"
     inkscape:pageopacity="0"
     inkscape:pageshadow="2"
     inkscape:window-width="1366"
     inkscape:window-height="704"
     id="namedview14"
     showgrid="false"
     inkscape:zoom="1"
     inkscape:cx="26.002095"
     inkscape:cy="6.1404231"
     inkscape:window-x="0"
     inkscape:window-y="27"
     inkscape:window-maximized="1"
     inkscape:current-layer="svg2"
     inkscape:object-nodes="true">
    <inkscape:grid
       type="xygrid"
       id="grid4158" />
  </sodipodi:namedview>
  <path
     d="m 8 1 c -1.029 0 -2 0.971 -2 2 l 0 42 c 0 0.971 1.029 2 2 2 l 32 0 c 0.971 0 2 -1.029 2 -2 l 0 -31 -13 -13 z"
     style="fill:#dda06a;fill-opacity:1"
     id="path4" />
  <path
     d="m 29 12 0.063 0.063 0.156 -0.063 -0.219 0 z m 2 2 11 11 0 -11 -11 0 z"
     style="fill-opacity:0.196"
     id="path6" />
  <path
     d="m 29 1 13 13 -11 0 c -0.971 0 -2 -1.029 -2 -2 l 0 -11 z"
     style="fill:#fff;fill-opacity:0.392"
     id="path8" />
  <path
     inkscape:connector-curvature="0"
     style="fill-opacity:0.19607843;fill:#000000"
     d="m 6,35 0,10 c 0,0.971429 1.028571,2 2,2 l 32,0 c 0.971429,0 2,-1.028571 2,-2 l 0,-10 z"
     id="path20" />
  <path
     style="line-height:125%;letter-spacing:0;word-spacing:0;fill:#ffffff;fill-opacity:1"
     d="M 19.506837,36.900002 C 18.657642,36.899595 17.828697,36.9732 17,37.092103 L 17,45 l 1.813021,0 0,-2.813755 0.650594,0 c 1.180271,2e-6 2.090446,-0.207462 2.729768,-0.621512 0.649142,-0.422494 0.973611,-1.102872 0.973617,-2.04082 -7e-6,-0.929487 -0.318384,-1.596796 -0.957693,-2.002399 -0.639322,-0.414039 -1.541871,-0.621496 -2.70247,-0.621512 z m 0.207006,1.35829 c 0.481945,8e-6 0.865815,0.0972 1.151051,0.291547 0.295067,0.185903 0.443585,0.506488 0.443588,0.962778 -3e-6,0.481651 -0.148521,0.823266 -0.443588,1.02606 -0.295072,0.194352 -0.732265,0.291549 -1.312562,0.291546 l -0.739311,0 0,-2.535769 c 0.313881,-0.034 0.583288,-0.02717 0.900822,-0.0362 z"
     id="path24"
     inkscape:connector-curvature="0"
     sodipodi:nodetypes="cccccsccccccccscccc" />
  <path
     style="opacity:1;fill:#ffffff;fill-opacity:1;stroke:none;stroke-width:0.5;stroke-linecap:round;stroke-linejoin:round;stroke-miterlimit:4;stroke-dasharray:none;stroke-opacity:0.1375"
     d="m 18,14 0,19 2,0 0,-8 12,0 -5.5,-4.5 5.499999,-4.500001 L 20,15.999999 20,14 Z"
     id="rect4148"
     inkscape:connector-curvature="0"
     sodipodi:nodetypes="cccccccccc" />
  <path
     sodipodi:nodetypes="ccscscsccccccccccscccscccc"
     inkscape:connector-curvature="0"
     id="path4139"
     d="m 27.504755,36.9 c -1.129881,8e-6 -2.010678,0.348731 -2.64556,1.042548 -0.634886,0.685371 -0.953199,1.704804 -0.953195,3.058605 -4e-6,1.353808 0.304989,2.376287 0.918354,3.070111 0.624119,0.685358 1.524898,1.028736 2.697823,1.028736 1.140631,0 2.023918,-0.343378 2.648047,-1.028741 0.624113,-0.693824 0.93577,-1.716303 0.935776,-3.070111 -6e-6,-1.353801 -0.307489,-2.373234 -0.920842,-3.058605 C 29.571789,37.248726 28.677669,36.900003 27.504755,36.9 Z m 0,1.360142 c 0.344339,7e-6 0.689367,0.0702 0.893825,0.214034 0.204449,0.143848 0.360268,0.339193 0.467886,0.584564 0.118352,0.245383 0.194182,0.536099 0.226477,0.874544 0.04304,0.329995 0.06471,0.687112 0.06471,1.067865 -1.5e-5,0.38076 -0.02167,0.735575 -0.06471,1.065563 -0.03229,0.329993 -0.108114,0.620708 -0.226477,0.874545 -0.107607,0.245379 -0.270096,0.440725 -0.485307,0.584564 -0.20446,0.14385 -0.542824,0.216336 -0.876404,0.216334 -0.344347,2e-6 -0.689302,-0.07248 -0.893753,-0.216334 -0.204457,-0.143839 -0.36446,-0.339185 -0.482819,-0.584564 -0.10762,-0.245376 -0.183439,-0.530744 -0.22648,-0.860736 -0.03229,-0.338449 -0.04977,-0.698612 -0.04977,-1.079372 0,-0.380753 0.01749,-0.73787 0.04977,-1.067865 0.04304,-0.329984 0.118858,-0.617657 0.22648,-0.863039 0.118363,-0.253832 0.278362,-0.452221 0.482819,-0.596069 0.204451,-0.143839 0.549406,-0.214027 0.893753,-0.214034 z"
     style="line-height:125%;letter-spacing:0;word-spacing:0;fill:#ffffff;fill-opacity:1" />
</svg>
