<svg version="1.1" viewBox="0 0 48 48" xmlns="http://www.w3.org/2000/svg">
 <path d="m8 1c-1.03 0-2 0.971-2 2v42c0 0.971 1.03 2 2 2h32c0.971 0 2-1.03 2-2v-31l-13-13z" style="fill:#7575ef"/>
 <path d="m29 12 0.063 0.063 0.156-0.063h-0.219zm2 2 11 11v-11h-11z" style="opacity:.2"/>
 <path d="m29 1 13 13h-11c-0.971 0-2-1.03-2-2v-11z" style="fill:#fff;opacity:.4"/>
 <path d="m24 15a2 2 0 0 0-2 2 2 2 0 0 0 0 0.0508l-6.55 4a2 2 0 0 0-0.00195 0 2 2 0 0 0-0.451-0.0527 2 2 0 0 0-2 2 2 2 0 0 0 1 1.73v5.54a2 2 0 0 0-1 1.73 2 2 0 0 0 2 2 2 2 0 0 0 0.957-0.244l6.1 3.73a2 2 0 0 0 1.94 1.51 2 2 0 0 0 1.94-1.51l6.1-3.73a2 2 0 0 0 0.957 0.244 2 2 0 0 0 2-2 2 2 0 0 0-1-1.73v-5.54a2 2 0 0 0 1-1.73 2 2 0 0 0-2-2 2 2 0 0 0-0.451 0.0527h-0.00195l-6.55-4a2 2 0 0 0 0-0.0508 2 2 0 0 0-2-2zm-1 3.78v6.6l-5.94-2.97 5.94-3.63zm2 0 5.98 3.65-5.98 3.16v-6.81zm-8.53 5.57 5.58 2.79-5.99 3.16a2 2 0 0 0-0.0645-0.0391v-5.54a2 2 0 0 0 0.471-0.377zm15.1 0.0352a2 2 0 0 0 0.438 0.342v5.54a2 2 0 0 0-1 1.73 2 2 0 0 0 0 0.0508l-5.66 3.46a2 2 0 0 0-0.336-0.244v-7.41l6.56-3.46zm-8.56 4.52v6.36a2 2 0 0 0-0.336 0.244l-5.64-3.45 5.98-3.16z" style="fill:#fff"/>
</svg>
