<svg version="1.1" viewBox="0 0 48 48" xmlns="http://www.w3.org/2000/svg">
 <path d="m8 1c-1.03 0-2 0.971-2 2v42c0 0.971 1.03 2 2 2h32c0.971 0 2-1.03 2-2v-31l-13-13z" style="fill:#8867df"/>
 <path d="m29 12 0.063 0.063 0.156-0.063h-0.219zm2 2 11 11v-11h-11z" style="opacity:.2"/>
 <path d="m29 1 13 13h-11c-0.971 0-2-1.03-2-2v-11z" style="fill:#fff;opacity:.4"/>
 <path d="m28 23v3h-2v2h2v3h-2v2h2v3h2v-3h3v3h2v-3h2v-2h-2v-3h2v-2h-2v-3h-2v3h-3v-3zm2 5h3v3h-3z" style="fill:#f9f9f9"/>
 <path d="m18 20c-3.32 0-6 2.68-6 6v7c0 3.32 2.68 6 6 6s6-2.68 6-6v-1h-4v1c0 1.11-0.892 2-2 2s-2-0.892-2-2v-7c0-1.11 0.892-2 2-2s2 0.892 2 2v1h4v-1c0-3.32-2.68-6-6-6z" style="fill:#f9f9f9"/>
</svg>
