<svg width="48" height="48" version="1.1" viewBox="0 0 48 48" xmlns="http://www.w3.org/2000/svg">
 <path d="m8 1c-1.03 0-2 .971-2 2v42c0 .971 1.03 2 2 2h32c.971 0 2-1.03 2-2v-31l-13-13z" fill="#b079c1"/>
 <path d="m29 12 .0625.0625.156-.0625h-.219zm2 2 11 11v-11h-11z" fill-opacity=".196"/>
 <path d="m29 1 13 13h-11c-.971 0-2-1.03-2-2v-11z" fill="#fff" fill-opacity=".392"/>
 <path d="m24 14a5 5 0 00-5 5 5 5 0 005 5 5 5 0 005-5 5 5 0 00-5-5zm-6 10a5 5 0 00-5 5 5 5 0 005 5 5 5 0 005-5 5 5 0 00-5-5zm12 0a5 5 0 00-5 5 5 5 0 005 5 5 5 0 005-5 5 5 0 00-5-5z" fill="#fff"/>
</svg>
