<svg width="24" xmlns="http://www.w3.org/2000/svg" viewBox="0 0 24 24" height="24">
<defs>
<clipPath>
<rect width="16" x="0" y="0" height="16"/>
</clipPath>
</defs>
<g style="line-height:normal;color:#000">
<path style="opacity:.3" d="M 4.8928651,5.00075 C 4.4012816,5.0467455 3.9978794,5.5069512 4.0000084,6.0007031 l 0,9.9995309 c 5.2e-5,0.523449 0.4764161,0.999854 0.9999995,0.999953 l 7.9999961,0 L 17.000001,21 l 0,-3.999813 1.999999,0 c 0.523584,-9.9e-5 0.999947,-0.476504 1,-0.999953 L 20,6.0007031 C 19.999947,5.4771541 19.523584,5.00075 19,5.00075 l -13.9999921,0 c -0.03123,-0.001 -0.075913,-0.001 -0.1071428,0 z M 15.285716,7.2863571 c 0.459217,-0.012276 0.924728,0.2357883 1.142857,0.6071144 0.218127,0.3713252 0.192626,0.8317405 -0.07143,1.1785165 l -4.142853,5.74973 c -0.407555,0.558523 -1.376238,0.621584 -1.892856,0.142851 L 7.821435,12.678961 c -0.5051383,-0.41122 -0.5150219,-1.20394 -0.035714,-1.64278 0.4793077,-0.438839 1.340847,-0.433815 1.7857134,0.03571 l 1.4285706,1.285657 3.285712,-4.5355017 c 0.218128,-0.3099491 0.598185,-0.5234141 0.999999,-0.5356892 z"/>
<path style="fill:#859900" d="M 4.8928651,4.00075 C 4.4012816,4.0467455 3.9978794,4.5069512 4.0000084,5.0007031 l 0,9.9995309 c 5.2e-5,0.523449 0.4764161,0.999854 0.9999995,0.999953 l 7.9999961,0 L 17.000001,20 l 0,-3.999813 1.999999,0 c 0.523584,-9.9e-5 0.999947,-0.476504 1,-0.999953 L 20,5.0007031 C 19.999947,4.4771541 19.523584,4.00075 19,4.00075 l -13.9999921,0 c -0.03123,-10e-4 -0.075913,-10e-4 -0.1071428,0 z M 15.285716,6.2863571 c 0.459217,-0.012276 0.924728,0.2357883 1.142857,0.6071144 0.218127,0.3713252 0.192626,0.8317405 -0.07143,1.1785162 L 12.21429,13.821718 c -0.407555,0.558523 -1.376238,0.621584 -1.892856,0.142851 L 7.821435,11.678961 c -0.5051383,-0.41122 -0.5150219,-1.20394 -0.035714,-1.64278 0.4793077,-0.438839 1.340847,-0.433815 1.7857134,0.03571 l 1.4285706,1.285657 3.285712,-4.5355017 c 0.218128,-0.3099491 0.598185,-0.5234141 0.999999,-0.5356892 z"/>
</g>
</svg>
