<svg width="24" xmlns="http://www.w3.org/2000/svg" viewBox="0 0 24 24" height="24">
<defs>
<clipPath>
<rect width="16" x="0" y="0" height="16"/>
</clipPath>
</defs>
<g style="line-height:normal;color:#000">
<path style="opacity:.3" d="M 4.8928651,5.00075 C 4.4012816,5.0467455 3.9978794,5.5069512 4.0000084,6.0007031 l 0,9.9995309 c 5.2e-5,0.523449 0.4764161,0.999854 0.9999995,0.999953 l 7.9999961,0 L 17.000001,21 l 0,-3.999813 1.999999,0 c 0.523584,-9.9e-5 0.999947,-0.476504 1,-0.999953 L 20,6.0007031 C 19.999947,5.4771541 19.523584,5.00075 19,5.00075 l -13.9999921,0 c -0.03123,-0.001 -0.075913,-0.001 -0.1071428,0 z m 7.9999959,2.2856071 c 0.223214,0.00625 0.418154,0.1152918 0.571428,0.2857009 l 2.857141,3.071285 c 0.162202,0.171972 0.25,0.397374 0.25,0.642827 0,0.24389 -0.08779,0.469291 -0.25,0.642827 l -2.857141,3.071284 c -0.333333,0.35958 -0.880952,0.35958 -1.214285,0 -0.333333,-0.361144 -0.333333,-0.926074 0,-1.285654 l 1.499999,-1.64278 -6.3214249,0 0,-1.571355 6.3214249,0 -1.499999,-1.64278 C 11.995539,8.5934993 11.93304,8.172247 12.071433,7.8220463 12.209825,7.4702845 12.538694,7.2738434 12.892861,7.2863571 z"/>
<path style="fill:#cb4b16" d="M 4.8928651,4.00075 C 4.4012816,4.0467455 3.9978794,4.5069512 4.0000084,5.0007031 l 0,9.9995309 c 5.2e-5,0.523449 0.4764161,0.999854 0.9999995,0.999953 l 7.9999961,0 L 17.000001,20 l 0,-3.999813 1.999999,0 c 0.523584,-9.9e-5 0.999947,-0.476504 1,-0.999953 L 20,5.0007031 C 19.999947,4.4771541 19.523584,4.00075 19,4.00075 l -13.9999921,0 c -0.03123,-10e-4 -0.075913,-10e-4 -0.1071428,0 z m 7.9999959,2.2856071 c 0.223214,0.00625 0.418154,0.1152918 0.571428,0.2857009 l 2.857141,3.071285 c 0.162202,0.171972 0.25,0.397374 0.25,0.642827 0,0.24389 -0.08779,0.469291 -0.25,0.642827 l -2.857141,3.071284 c -0.333333,0.35958 -0.880952,0.35958 -1.214285,0 -0.333333,-0.361144 -0.333333,-0.926074 0,-1.285654 l 1.499999,-1.64278 -6.3214249,0 0,-1.571355 6.3214249,0 -1.499999,-1.64278 C 11.995539,7.5934993 11.93304,7.172247 12.071433,6.8220463 12.209825,6.4702845 12.538694,6.2738434 12.892861,6.2863571 z"/>
</g>
</svg>
