<svg width="256" xmlns="http://www.w3.org/2000/svg" height="256" viewBox="0 0 256 256" xmlns:xlink="http://www.w3.org/1999/xlink">
<g style="fill:#909ea9">
<path d="M 52.355469 48.4375 L 171.898438 48.4375 C 176.992188 48.4375 181.121094 52.566406 181.121094 57.65625 L 181.121094 177.429688 C 181.121094 182.519531 176.992188 186.648438 171.898438 186.648438 L 52.355469 186.648438 C 47.265625 186.648438 43.136719 182.519531 43.136719 177.429688 L 43.136719 57.65625 C 43.136719 52.566406 47.265625 48.4375 52.355469 48.4375 Z "/>
<path d="M 207.628906 183.019531 L 207.394531 84.089844 L 210.613281 76.109375 L 213.164062 83.640625 L 213.332031 183.019531 Z "/>
<path d="M 208.832031 181.566406 C 208.726562 182.828125 209.058594 184.964844 209.332031 187.066406 C 209.5625 188.816406 209.589844 189.917969 209.667969 190.402344 C 209.273438 190.597656 208.882812 190.859375 208 191.234375 C 207.382812 191.496094 206.699219 191.746094 206.167969 191.902344 C 205.636719 192.054688 205.21875 192.035156 205.332031 192.066406 C 205.25 191.992188 205.160156 191.90625 205 191.738281 C 204.683594 191.382812 204.160156 190.804688 203.667969 190.234375 C 202.675781 189.097656 201.449219 187.710938 200 186.570312 C 198.550781 185.429688 196.964844 184.488281 195.167969 184.570312 C 193.367188 184.648438 191.507812 185.941406 190.167969 188.402344 C 187.574219 193.15625 187.804688 196.394531 187.5 198.234375 C 187.347656 199.15625 187.105469 199.625 186.5 200.070312 C 185.894531 200.511719 184.699219 200.910156 182.5 201.238281 C 177.886719 201.921875 174.253906 203.25 171.667969 203.402344 C 170.371094 203.476562 169.269531 203.3125 168.5 202.738281 C 167.730469 202.164062 167.179688 201.128906 166.667969 199.238281 C 164.5625 191.472656 166.832031 185.902344 166.832031 185.902344 L 165.167969 185.238281 C 165.167969 185.238281 162.589844 191.453125 164.832031 199.738281 C 165.40625 201.855469 166.308594 203.347656 167.5 204.234375 C 168.691406 205.125 170.140625 205.328125 171.667969 205.238281 C 174.71875 205.054688 178.421875 203.722656 182.832031 203.070312 C 185.148438 202.730469 186.476562 202.15625 187.5 201.402344 C 188.523438 200.652344 188.984375 199.675781 189.167969 198.570312 C 189.53125 196.359375 189.410156 193.675781 191.832031 189.238281 C 193 187.101562 194.046875 186.453125 195.167969 186.402344 C 196.289062 186.351562 197.714844 186.894531 199 187.902344 C 200.285156 188.914062 201.363281 190.289062 202.332031 191.402344 C 202.816406 191.960938 203.3125 192.511719 203.667969 192.902344 C 203.84375 193.101562 204.003906 193.253906 204.167969 193.402344 C 204.328125 193.546875 204.460938 193.628906 204.832031 193.734375 C 205.53125 193.933594 206.023438 193.734375 206.667969 193.570312 C 207.308594 193.382812 208.011719 193.1875 208.667969 192.902344 C 209.980469 192.34375 211.167969 191.738281 211.167969 191.738281 L 211.667969 191.40625 L 211.667969 190.738281 C 211.667969 190.738281 211.269531 188.980469 211 186.90625 C 210.730469 184.832031 210.605469 182.316406 210.667969 181.574219 L 208.832031 181.574219 Z "/>
</g>
</svg>
