<?xml version="1.0" encoding="UTF-8" standalone="no"?>
<!-- Created with Inkscape (http://www.inkscape.org/) -->

<svg
   xmlns:dc="http://purl.org/dc/elements/1.1/"
   xmlns:cc="http://creativecommons.org/ns#"
   xmlns:rdf="http://www.w3.org/1999/02/22-rdf-syntax-ns#"
   xmlns:svg="http://www.w3.org/2000/svg"
   xmlns="http://www.w3.org/2000/svg"
   xmlns:sodipodi="http://sodipodi.sourceforge.net/DTD/sodipodi-0.dtd"
   xmlns:inkscape="http://www.inkscape.org/namespaces/inkscape"
   id="svg7384"
   height="256"
   width="256"
   version="1.1"
   inkscape:version="0.91 r"
   sodipodi:docname="network-vpn.svg">
  <defs
     id="defs12" />
  <sodipodi:namedview
     pagecolor="#ffffff"
     bordercolor="#666666"
     borderopacity="1"
     objecttolerance="10"
     gridtolerance="10"
     guidetolerance="10"
     inkscape:pageopacity="0"
     inkscape:pageshadow="2"
     inkscape:window-width="1366"
     inkscape:window-height="747"
     id="namedview10"
     showgrid="true"
     inkscape:zoom="0.921875"
     inkscape:cx="186.34652"
     inkscape:cy="88.756626"
     inkscape:window-x="0"
     inkscape:window-y="21"
     inkscape:window-maximized="1"
     inkscape:current-layer="svg7384">
    <inkscape:grid
       type="xygrid"
       id="grid4142" />
  </sodipodi:namedview>
  <metadata
     id="metadata90">
    <rdf:RDF>
      <cc:Work
         rdf:about="">
        <dc:format>image/svg+xml</dc:format>
        <dc:type
           rdf:resource="http://purl.org/dc/dcmitype/StillImage" />
        <dc:title>Gnome Symbolic Icon Theme</dc:title>
      </cc:Work>
    </rdf:RDF>
  </metadata>
  <title
     id="title9167">Gnome Symbolic Icon Theme</title>
  <path
     style="color:#bebebe;text-indent:0;text-transform:none;block-progression:tb;fill:#919fa9;fill-opacity:1"
     d="m 111.99945,156.00054 0,47.99968 -79.99945,0 0,31.99978 191.99868,0 0,-31.99978 -79.99946,0 0,-47.99968 -31.99977,0 z"
     id="path12679-6"
     inkscape:connector-curvature="0" />
  <path
     inkscape:connector-curvature="0"
     d="m 127.99934,20.00148 c -24.69272,0 -39.999724,13.67958 -39.999724,39.99942 l 0,31.99976 0,15.99988 15.999884,0 55.99962,0 7.99994,0 0,-15.99988 0,-31.99976 c 0,-26.31984 -15.307,-39.99942 -39.99972,-39.99942 z m 0,23.99952 c 9.02601,0 15.99989,6.97402 15.99989,15.9999 l 0,15.99988 -31.99978,0 0,-15.99988 c 0,-9.02588 6.97388,-15.9999 15.99989,-15.9999 z"
     style="color:#bebebe;text-indent:0;text-transform:none;block-progression:tb;fill:#909ea9;fill-opacity:1"
     id="path13314"
     sodipodi:nodetypes="zsccccccszssccss" />
  <path
     style="color:#bebebe;fill:#909ea9;fill-opacity:1"
     d="m 65.599336,77.60074 c 1.598892,-1.6 4.4,-1.59964 4.4,-1.59964 l 116.000004,-1.8e-4 c 0,0 2.80748,-1.8e-4 4.4,1.59982 1.59251,1.6 1.6,4.4 1.6,4.4 l -4.4e-4,89.9997 -127.99912,0 0,-89.9997 c 0,0 6.64e-4,-2.8 1.599556,-4.4 z"
     id="rect13312"
     inkscape:connector-curvature="0"
     sodipodi:nodetypes="zcczccccz" />
  <g
     id="g4185"
     transform="translate(-49.474513,207.64676)">
    <g
       id="g4161"
       style="fill:none;stroke:#ffffff">
      <g
         id="g4163"
         transform="translate(-38.38147,-1006.1003)"
         style="stroke-width:0.5" />
      <g
         id="g4169"
         transform="translate(-39.59798,-1004.3622)"
         style="stroke-width:0.40000001" />
    </g>
    <g
       id="g4175"
       transform="translate(0,-1004.3622)" />
  </g>
</svg>
