<svg width="16" xmlns="http://www.w3.org/2000/svg" height="16" viewBox="0 0 16 16" xmlns:xlink="http://www.w3.org/1999/xlink">
<g style="fill:#c0956e">
<path d="M 5.695312 2.695312 C 5.5 2.714844 5.335938 2.898438 5.335938 3.09375 L 5.335938 6.265625 C 5.335938 6.476562 5.527344 6.667969 5.738281 6.667969 L 10.261719 6.667969 C 10.472656 6.667969 10.664062 6.476562 10.664062 6.265625 L 10.664062 3.09375 C 10.664062 2.886719 10.472656 2.695312 10.261719 2.695312 Z "/>
<path d="M 2.359375 9.359375 C 2.164062 9.382812 2 9.566406 2 9.761719 L 2 12.933594 C 2 13.144531 2.191406 13.332031 2.398438 13.332031 L 6.925781 13.332031 C 7.136719 13.332031 7.324219 13.144531 7.324219 12.933594 L 7.324219 9.761719 C 7.324219 9.550781 7.136719 9.359375 6.925781 9.359375 Z "/>
<path d="M 9.023438 9.359375 C 8.828125 9.382812 8.664062 9.566406 8.667969 9.761719 L 8.667969 12.933594 C 8.667969 13.144531 8.855469 13.332031 9.066406 13.332031 L 13.59375 13.332031 C 13.800781 13.332031 13.992188 13.144531 13.992188 12.933594 L 13.992188 9.761719 C 13.992188 9.550781 13.800781 9.359375 13.59375 9.359375 Z "/>
<path d="M 7.667969 7 L 7.667969 7.667969 L 4.332031 7.667969 L 4.332031 9 L 5 9 L 5 8.332031 L 11 8.332031 L 11 9 L 11.667969 9 L 11.667969 7.667969 L 8.332031 7.667969 L 8.332031 7 Z "/>
</g>
</svg>
