<svg xmlns="http://www.w3.org/2000/svg" viewBox="0 0 22 22" width="22" height="22">
 <g transform="translate(3.5,0)">
  <path d="m 6.5,4.5 h 2 c 2.216,0 4,1.338 4,3 v 9 c 0,1.662 -1.784,3 -4,3 h -2 c -2.216,0 -4,-1.338 -4,-3 v -9 c 0,-1.662 1.784,-3 4,-3 z m 1.0419,1e-6 v 4" opacity="0.3" fill="none" stroke="#000000" stroke-linecap="round"/>
  <path d="M 7.5,4.3333 V 7.6666" opacity="0.3" fill="none" stroke="#dcdcdc" stroke-linecap="round" stroke-width="2"/>
  <rect width="13.5" x="-17.75" y="3.25" rx="2.3" ry="3.3" height="8.5" transform="matrix(0,-1,1,0,0,0)" opacity="0.3" fill="none" stroke="#dcdcdc" stroke-linecap="round" stroke-width="0.5"/>
  <path d="m 6.5,3.5 h 2 c 2.216,0 4,1.338 4,3 v 9 c 0,1.662 -1.784,3 -4,3 h -2 c -2.216,0 -4,-1.338 -4,-3 v -9 c 0,-1.662 1.784,-3 4,-3 z m 1.0419,1e-6 v 4" fill="none" stroke="#dcdcdc" stroke-linecap="round"/>
  <path d="M 4.2857143,11 C 3.5734286,11 3,11.446 3,12 l 0,4 c 0,1.109532 1.1314809,2 3.8571429,2 l 1.2857142,0 C 11,18 12,17.108 12,16 l 0,-4 c 0,-0.554 -0.573429,-1 -1.285714,-1 z" fill="#dcdcdc" fill-rule="evenodd"/>
 </g>
</svg>
