<?xml version="1.0" encoding="UTF-8" standalone="no"?>
<svg
   xmlns:dc="http://purl.org/dc/elements/1.1/"
   xmlns:cc="http://creativecommons.org/ns#"
   xmlns:rdf="http://www.w3.org/1999/02/22-rdf-syntax-ns#"
   xmlns:svg="http://www.w3.org/2000/svg"
   xmlns="http://www.w3.org/2000/svg"
   xmlns:sodipodi="http://sodipodi.sourceforge.net/DTD/sodipodi-0.dtd"
   xmlns:inkscape="http://www.inkscape.org/namespaces/inkscape"
   width="22"
   viewBox="0 0 22 22"
   height="22"
   id="svg2"
   version="1.1"
   inkscape:version="0.48.4 r9939"
   sodipodi:docname="nm-device-wired.svg">
  <metadata
     id="metadata12">
    <rdf:RDF>
      <cc:Work
         rdf:about="">
        <dc:format>image/svg+xml</dc:format>
        <dc:type
           rdf:resource="http://purl.org/dc/dcmitype/StillImage" />
      </cc:Work>
    </rdf:RDF>
  </metadata>
  <defs
     id="defs10" />
  <sodipodi:namedview
     pagecolor="#ffffff"
     bordercolor="#666666"
     borderopacity="1"
     objecttolerance="10"
     gridtolerance="10"
     guidetolerance="10"
     inkscape:pageopacity="0"
     inkscape:pageshadow="2"
     inkscape:window-width="1366"
     inkscape:window-height="742"
     id="namedview8"
     showgrid="false"
     inkscape:zoom="10.727273"
     inkscape:cx="11.186441"
     inkscape:cy="11"
     inkscape:window-x="0"
     inkscape:window-y="26"
     inkscape:window-maximized="1"
     inkscape:current-layer="svg2" />
  <path
     sodipodi:nodetypes="cccccccccccccscccs"
     inkscape:connector-curvature="0"
     id="path2996"
     d="m 3,5 0,9.999909 3,1.82e-4 L 6,17 l 2,0 0,2 6,0 0,-2 2,0 0,-2.000091 3,0 L 19,5 z m 3,2 10,0 0,3 -10,0 z"
     style="fill:#000000;fill-opacity:1;opacity:0.3" />
  <path
     style="fill:#dcdcdc;fill-opacity:1"
     d="m 3,4 0,9.999909 3,1.82e-4 L 6,16 l 2,0 0,2 6,0 0,-2 2,0 0,-2.000091 3,0 L 19,4 z M 6,6 16,6 16,9 6,9 z"
     id="path4-2"
     inkscape:connector-curvature="0"
     sodipodi:nodetypes="cccccccccccccscccs" />
</svg>
