<svg xmlns="http://www.w3.org/2000/svg" viewBox="0 0 48 48">
<g style="line-height:normal;color:#000">
<path style="fill:#e0b189" d="m 21,20 0,7.90625 0,3.09375 0,5.9375 c 5.2e-5,0.523584 0.476416,0.999948 1,1 l 21,0 c 0.523584,-5.2e-5 0.999948,-0.476416 1,-1 l 0,-13.90625 c -5.2e-5,-0.523584 -0.476416,-0.999948 -1,-1 l -7.90625,0 0,-1.03125 c -5.2e-5,-0.523584 -0.476416,-0.999948 -1,-1 L 30,20 28,20 z"/>
<path style="opacity:.4;fill:#b28d6d" d="M 5.34375,8.9687505 C 4.6118294,9.0454655 3.9960643,9.73283 4,10.468751 l 0,15.9375 c 7.86e-5,0.785377 0.7146233,1.499921 1.5,1.5 l 14.5,0 0,-8.90625 8,0 0,-6.5 c -7.9e-5,-0.785376 -0.714623,-1.499921 -1.5,-1.5 l -7.4375,0 0,-0.53125 c -7.9e-5,-0.7853783 -0.714623,-1.4999218 -1.5,-1.5000005 l -12.0625,0 c -0.052036,-0.00271 -0.1042138,-0.00271 -0.15625,0 z"/>
</g>
</svg>
