<svg width="256" xmlns="http://www.w3.org/2000/svg" height="256" viewBox="0 0 256 256" xmlns:xlink="http://www.w3.org/1999/xlink">
<path style="fill:#207145" d="M 42.667969 5.332031 C 37.179688 5.332031 32 10.515625 32 16 L 32 240 C 32 245.179688 37.484375 250.667969 42.667969 250.667969 L 213.332031 250.667969 C 218.515625 250.667969 224 245.179688 224 240 L 224 16 C 224 10.515625 218.820312 5.332031 213.332031 5.332031 Z "/>
<path style="fill:#000;fill-opacity:.196" d="M 32 186.667969 L 32 240 C 32 245.179688 37.484375 250.667969 42.667969 250.667969 L 213.332031 250.667969 C 218.515625 250.667969 224 245.179688 224 240 L 224 186.667969 Z "/>
<g style="fill:#fff">
<path d="M 181.332031 90.664062 C 181.332031 128.207031 181.335938 132.785156 181.335938 165.335938 C 143.894531 165.335938 107.050781 165.335938 74.671875 165.335938 C 74.671875 127.792969 74.675781 123.214844 74.675781 90.664062 C 111.699219 90.664062 149.59375 90.664062 181.332031 90.664062 Z M 170.664062 101.332031 L 122.671875 101.332031 L 122.671875 122.667969 L 170.664062 122.667969 Z M 112.003906 101.332031 L 85.339844 101.332031 L 85.339844 122.667969 L 112.003906 122.667969 Z M 170.664062 133.332031 L 122.671875 133.332031 L 122.671875 154.667969 L 170.664062 154.667969 Z M 112.003906 133.332031 L 85.339844 133.332031 L 85.339844 154.667969 L 112.003906 154.667969 Z "/>
<path d="M 83.972656 218.667969 C 83.972656 220.648438 84.046875 222.519531 84.195312 224.28125 C 84.394531 226 84.742188 227.496094 85.238281 228.773438 C 85.78125 230.050781 86.527344 231.0625 87.46875 231.808594 C 88.414062 232.558594 89.679688 232.933594 91.265625 232.933594 C 92.804688 232.933594 94.046875 232.558594 94.988281 231.808594 C 95.980469 231.0625 96.726562 230.050781 97.222656 228.773438 C 97.765625 227.449219 98.113281 225.933594 98.261719 224.214844 C 98.460938 222.496094 98.5625 220.648438 98.5625 218.667969 C 98.5625 216.683594 98.460938 214.835938 98.261719 213.117188 C 98.113281 211.359375 97.765625 209.839844 97.222656 208.5625 C 96.726562 207.285156 96.003906 206.273438 95.0625 205.523438 C 94.121094 204.773438 92.855469 204.402344 91.265625 204.402344 C 89.679688 204.402344 88.414062 204.773438 87.46875 205.523438 C 86.527344 206.273438 85.78125 207.308594 85.238281 208.628906 C 84.742188 209.90625 84.394531 211.402344 84.195312 213.117188 C 84.046875 214.835938 83.972656 216.683594 83.972656 218.667969 M 74.667969 218.667969 C 74.667969 211.621094 76.132812 206.316406 79.058594 202.75 C 81.988281 199.140625 86.054688 197.332031 91.265625 197.332031 C 96.675781 197.332031 100.792969 199.140625 103.621094 202.75 C 106.453125 206.316406 107.867188 211.621094 107.867188 218.667969 C 107.867188 225.710938 106.425781 231.039062 103.546875 234.648438 C 100.671875 238.21875 96.601562 240 91.339844 240 C 85.933594 240 81.789062 238.21875 78.910156 234.648438 C 76.082031 231.039062 74.667969 225.710938 74.667969 218.667969 "/>
<path d="M 145.234375 198.257812 L 145.234375 204.996094 L 133.097656 204.996094 L 133.097656 239.140625 L 123.871094 239.140625 L 123.871094 204.996094 L 111.734375 204.996094 L 111.734375 198.257812 L 145.234375 198.257812 "/>
<path d="M 164.363281 233.195312 C 165.902344 233.195312 167.167969 233.066406 168.160156 232.800781 C 169.199219 232.492188 170.019531 232.097656 170.617188 231.613281 C 171.210938 231.082031 171.609375 230.511719 171.804688 229.894531 C 172.054688 229.234375 172.179688 228.574219 172.179688 227.914062 C 172.179688 227.078125 171.90625 226.328125 171.359375 225.667969 C 170.8125 225.007812 170.117188 224.433594 169.277344 223.949219 C 168.433594 223.421875 167.488281 222.960938 166.445312 222.5625 C 165.40625 222.125 164.363281 221.726562 163.320312 221.375 C 161.929688 220.933594 160.492188 220.429688 159.003906 219.855469 C 157.515625 219.285156 156.148438 218.558594 154.910156 217.675781 C 153.71875 216.796875 152.726562 215.714844 151.933594 214.441406 C 151.136719 213.117188 150.742188 211.488281 150.742188 209.550781 C 150.742188 205.722656 152.128906 202.726562 154.910156 200.570312 C 157.738281 198.414062 161.609375 197.332031 166.519531 197.332031 C 169.351562 197.332031 171.804688 197.621094 173.890625 198.191406 C 176.023438 198.765625 177.8125 199.402344 179.25 200.109375 L 176.570312 206.382812 C 175.328125 205.765625 173.941406 205.238281 172.402344 204.796875 C 170.914062 204.355469 169.175781 204.136719 167.191406 204.136719 C 162.328125 204.136719 159.894531 205.699219 159.894531 208.824219 C 159.894531 209.617188 160.144531 210.324219 160.640625 210.9375 C 161.136719 211.511719 161.757812 212.039062 162.5 212.523438 C 163.296875 212.964844 164.164062 213.359375 165.105469 213.714844 C 166.097656 214.066406 167.066406 214.394531 168.011719 214.703125 C 169.449219 215.1875 170.9375 215.738281 172.476562 216.355469 C 174.0625 216.925781 175.503906 217.71875 176.792969 218.734375 C 178.132812 219.703125 179.226562 220.933594 180.070312 222.429688 C 180.914062 223.882812 181.335938 225.734375 181.335938 227.980469 C 181.335938 231.808594 179.917969 234.78125 177.089844 236.894531 C 174.3125 238.964844 170.070312 240 164.363281 240 C 160.542969 240 157.488281 239.648438 155.207031 238.945312 C 152.925781 238.195312 151.210938 237.511719 150.070312 236.894531 L 152.75 230.292969 C 154.089844 230.996094 155.679688 231.65625 157.515625 232.273438 C 159.398438 232.890625 161.683594 233.195312 164.363281 233.195312 "/>
</g>
</svg>
