<svg width="256" xmlns="http://www.w3.org/2000/svg" height="256" viewBox="0 0 256 256" xmlns:xlink="http://www.w3.org/1999/xlink">
<path style="fill:#dcdcdc" d="M 42.667969 5.332031 C 37.179688 5.332031 32 10.515625 32 16 L 32 240 C 32 245.179688 37.484375 250.667969 42.667969 250.667969 L 213.332031 250.667969 C 218.515625 250.667969 224 245.179688 224 240 L 224 16 C 224 10.515625 218.820312 5.332031 213.332031 5.332031 Z "/>
<g style="fill:#888">
<path d="M 74.667969 85.332031 L 74.667969 90.667969 L 181.332031 90.667969 L 181.332031 85.332031 Z "/>
<path d="M 74.667969 96 L 74.667969 101.332031 L 181.332031 101.332031 L 181.332031 96 Z "/>
<path d="M 74.667969 106.667969 L 74.667969 112 L 181.332031 112 L 181.332031 106.667969 Z "/>
<path d="M 74.667969 117.332031 L 74.667969 122.667969 L 181.332031 122.667969 L 181.332031 117.332031 Z "/>
<path d="M 74.667969 128 L 74.667969 133.332031 L 181.332031 133.332031 L 181.332031 128 Z "/>
<path d="M 74.667969 138.667969 L 74.667969 144 L 181.332031 144 L 181.332031 138.667969 Z "/>
<path d="M 74.667969 149.332031 L 74.667969 154.667969 L 181.332031 154.667969 L 181.332031 149.332031 Z "/>
<path d="M 74.667969 160 L 74.667969 165.332031 L 181.332031 165.332031 L 181.332031 160 Z "/>
<path d="M 74.667969 170.667969 L 74.667969 176 L 181.332031 176 L 181.332031 170.667969 Z "/>
</g>
</svg>
