<svg width="256" xmlns="http://www.w3.org/2000/svg" height="256" viewBox="0 0 256 256" xmlns:xlink="http://www.w3.org/1999/xlink">
<path style="fill:#c19553" d="M 42.667969 5.332031 C 37.179688 5.332031 32 10.515625 32 16 L 32 240 C 32 245.179688 37.484375 250.667969 42.667969 250.667969 L 213.332031 250.667969 C 218.515625 250.667969 224 245.179688 224 240 L 224 74.667969 L 154.667969 5.332031 Z "/>
<path style="fill:#000;fill-opacity:.196" d="M 154.667969 64 L 155 64.332031 L 155.832031 64 Z M 165.332031 74.667969 L 224 133.332031 L 224 74.667969 Z "/>
<path style="fill:#fff;fill-opacity:.392" d="M 154.667969 5.332031 L 224 74.667969 L 165.332031 74.667969 C 160.152344 74.667969 154.667969 69.179688 154.667969 64 Z "/>
<path style="fill:#fff" d="M 74.667969 5.332031 L 74.667969 26.667969 L 96 26.667969 L 96 48 L 74.667969 48 L 74.667969 69.332031 L 96 69.332031 L 96 90.667969 L 74.667969 90.667969 L 74.667969 112 L 96 112 L 96 144 L 74.667969 144 L 74.667969 186.667969 L 117.332031 186.667969 L 117.332031 144 L 96 144 L 96 133.332031 L 117.332031 133.332031 L 117.332031 112 L 96 112 L 96 90.667969 L 117.332031 90.667969 L 117.332031 69.332031 L 96 69.332031 L 96 48 L 117.332031 48 L 117.332031 26.667969 L 96 26.667969 L 96 5.332031 Z "/>
</svg>
