<svg width="16" xmlns="http://www.w3.org/2000/svg" viewBox="0 0 16 16" height="16">
<g style="fill:#353535" transform="matrix(1 0 0 .99995 -4 -1032.3135)">
<path style="line-height:normal;color:#000" d="m 4.9062541,1032.3626 c -0.49159,0.046 -0.90838,0.5062 -0.90625,1 l 0,10 c 5e-5,0.5235 0.47641,0.9999 1,1 l 7.9999999,0 4,4 0,-4 2,0 c 0.52358,-10e-5 0.99995,-0.4765 1,-1 l 0,-10 c -5e-5,-0.5236 -0.47642,-1 -1,-1 l -13.9999999,0 c -0.0312,-10e-4 -0.0626,-10e-4 -0.0937,0 z m 5,3 c 0.0312,-10e-4 0.0625,-10e-4 0.0937,0 l 3.9999999,0 c 0.52358,0 0.99995,0.4764 1,1 l 0,4 c -5e-5,0.5235 -0.47642,0.9999 -1,1 l -3.9999999,0 c -0.52358,-10e-5 -0.99995,-0.4765 -1,-1 l 0,-4 c -0.002,-0.4938 0.41467,-0.9537 0.90625,-1 z"/>
</g>
</svg>
