<svg width="16" xmlns="http://www.w3.org/2000/svg" height="16" viewBox="0 0 16 16" xmlns:xlink="http://www.w3.org/1999/xlink">
<path style="fill:#aaa" d="M 3.667969 1.324219 C 3 1.324219 3 1.988281 3 1.988281 L 3 3.136719 C 3 3.144531 3 3.15625 3 3.167969 L 3 6.332031 L 4.980469 6.332031 L 4.980469 3.667969 L 12 3.667969 L 12 13.675781 L 4.980469 13.675781 L 4.980469 11.332031 L 3 11.332031 L 3 13.332031 C 3 14 4.070312 14.667969 4.332031 14.667969 L 12.5 14.675781 C 12.761719 14.675781 13 14.4375 13 14.175781 L 13 3.167969 C 13 2.90625 12.761719 2.667969 12.5 2.667969 C 10.714844 2.65625 5 2.667969 5 2.667969 L 4.332031 2.324219 C 4.335938 2 4.519531 2.003906 4.613281 1.988281 L 11.667969 1.988281 C 12 1.988281 12 1.324219 11.667969 1.324219 Z M 5.863281 5.6875 C 5.757812 5.707031 5.675781 5.808594 5.675781 5.917969 L 5.675781 6.988281 L 5.320312 6.988281 L 5.320312 7 L 2.988281 7 L 2.988281 6.988281 L 2.601562 6.988281 C 2.484375 6.992188 2.375 7.097656 2.371094 7.21875 L 2.371094 10.457031 C 2.375 10.578125 2.484375 10.6875 2.601562 10.6875 L 2.988281 10.6875 L 2.988281 10.667969 L 5.320312 10.667969 L 5.320312 10.6875 L 5.675781 10.6875 L 5.675781 11.4375 C 5.671875 11.617188 5.925781 11.730469 6.058594 11.613281 L 8.957031 9.019531 C 9.054688 8.9375 9.058594 8.765625 8.964844 8.675781 L 6.070312 5.75 C 6.015625 5.695312 5.9375 5.671875 5.863281 5.6875 Z "/>
</svg>
