<svg width="16" xmlns="http://www.w3.org/2000/svg" height="16" viewBox="0 0 16 16" xmlns:xlink="http://www.w3.org/1999/xlink">
<path style="fill:#aaa" d="M 7.144531 1.332031 C 6.625 1.332031 6.207031 1.769531 6.207031 2.28125 L 6.207031 2.824219 C 6 2.894531 5.800781 2.976562 5.605469 3.074219 L 5.21875 2.6875 C 5.050781 2.519531 4.808594 2.410156 4.5625 2.40625 C 4.328125 2.402344 4.082031 2.488281 3.894531 2.675781 L 2.675781 3.894531 C 2.3125 4.257812 2.332031 4.863281 2.6875 5.21875 L 3.074219 5.605469 C 2.976562 5.800781 2.894531 6 2.824219 6.207031 L 2.28125 6.207031 C 1.769531 6.207031 1.332031 6.625 1.332031 7.144531 L 1.332031 8.855469 C 1.332031 9.375 1.769531 9.792969 2.28125 9.792969 L 2.824219 9.792969 C 2.894531 10 2.976562 10.199219 3.074219 10.394531 L 2.6875 10.78125 C 2.332031 11.136719 2.3125 11.742188 2.675781 12.105469 L 3.894531 13.324219 C 4.257812 13.6875 4.863281 13.667969 5.21875 13.3125 L 5.605469 12.925781 C 5.800781 13.023438 6 13.105469 6.207031 13.175781 L 6.207031 13.71875 C 6.207031 14.230469 6.625 14.667969 7.144531 14.667969 L 8.855469 14.667969 C 9.375 14.667969 9.792969 14.230469 9.792969 13.71875 L 9.792969 13.175781 C 10 13.105469 10.199219 13.023438 10.394531 12.925781 L 10.78125 13.3125 C 11.136719 13.667969 11.742188 13.6875 12.105469 13.324219 L 13.324219 12.105469 C 13.6875 11.742188 13.667969 11.136719 13.3125 10.78125 L 12.925781 10.394531 C 13.023438 10.199219 13.105469 10 13.175781 9.792969 L 13.71875 9.792969 C 14.230469 9.792969 14.667969 9.375 14.667969 8.855469 L 14.667969 7.144531 C 14.667969 6.625 14.230469 6.207031 13.71875 6.207031 L 13.175781 6.207031 C 13.105469 6 13.023438 5.800781 12.925781 5.605469 L 13.3125 5.21875 C 13.667969 4.863281 13.6875 4.257812 13.324219 3.894531 L 12.105469 2.675781 C 11.742188 2.3125 11.136719 2.332031 10.78125 2.6875 L 10.394531 3.074219 C 10.199219 2.976562 10 2.894531 9.792969 2.824219 L 9.792969 2.28125 C 9.792969 1.769531 9.375 1.332031 8.855469 1.332031 Z M 8 6.636719 C 8.757812 6.636719 9.363281 7.242188 9.363281 8 C 9.363281 8.757812 8.757812 9.363281 8 9.363281 C 7.242188 9.363281 6.636719 8.757812 6.636719 8 C 6.636719 7.242188 7.242188 6.636719 8 6.636719 Z "/>
</svg>
