<svg width="16" xmlns="http://www.w3.org/2000/svg" height="16" viewBox="0 0 16 16" xmlns:xlink="http://www.w3.org/1999/xlink">
<path style="stroke-opacity:.4;fill:none;stroke:#aaa;stroke-width:3" d="M 24 6.5625 C 23.953125 6.574219 23.90625 6.585938 23.859375 6.597656 C 23.683594 6.609375 23.519531 6.667969 23.367188 6.738281 C 23.355469 6.75 23.34375 6.761719 23.332031 6.773438 C 22.886719 6.949219 22.617188 7.21875 22.40625 7.464844 C 22.113281 7.816406 21.832031 8.226562 21.539062 8.695312 C 20.976562 9.644531 20.378906 10.839844 19.78125 12.035156 C 19.183594 13.242188 18.585938 14.449219 18.105469 15.375 C 17.859375 15.84375 17.636719 16.230469 17.472656 16.5 C 17.414062 16.582031 17.367188 16.617188 17.320312 16.675781 C 17.261719 16.699219 17.203125 16.710938 17.121094 16.722656 C 16.816406 16.804688 16.371094 16.898438 15.84375 16.992188 C 14.8125 17.15625 13.464844 17.308594 12.117188 17.507812 C 10.78125 17.695312 9.46875 17.929688 8.390625 18.164062 C 7.851562 18.292969 7.382812 18.398438 6.949219 18.574219 C 6.726562 18.65625 6.515625 18.761719 6.28125 18.914062 C 6.058594 19.078125 5.753906 19.300781 5.589844 19.804688 C 5.425781 20.320312 5.53125 20.695312 5.613281 20.964844 C 5.707031 21.222656 5.8125 21.421875 5.929688 21.621094 C 6.1875 22.019531 6.492188 22.394531 6.855469 22.804688 C 7.59375 23.625 8.554688 24.574219 9.515625 25.511719 C 10.488281 26.449219 11.460938 27.351562 12.210938 28.101562 C 12.574219 28.464844 12.902344 28.816406 13.101562 29.050781 C 13.160156 29.121094 13.183594 29.15625 13.21875 29.214844 C 13.21875 29.285156 13.230469 29.34375 13.21875 29.425781 C 13.195312 29.730469 13.160156 30.175781 13.078125 30.691406 C 12.914062 31.722656 12.667969 33.046875 12.433594 34.371094 C 12.210938 35.695312 11.988281 37.019531 11.894531 38.109375 C 11.835938 38.660156 11.800781 39.117188 11.835938 39.585938 C 11.847656 39.808594 11.894531 40.066406 11.976562 40.324219 C 12.058594 40.59375 12.175781 40.933594 12.609375 41.25 C 13.042969 41.566406 13.429688 41.566406 13.710938 41.566406 C 13.992188 41.566406 14.203125 41.542969 14.4375 41.484375 C 14.882812 41.367188 15.339844 41.179688 15.84375 40.96875 C 16.863281 40.535156 18.09375 39.949219 19.289062 39.328125 C 20.484375 38.695312 21.667969 38.039062 22.617188 37.570312 C 23.085938 37.335938 23.507812 37.136719 23.800781 37.019531 C 23.882812 36.984375 23.929688 36.984375 24 36.960938 C 24.070312 36.984375 24.117188 36.984375 24.199219 37.019531 C 24.492188 37.136719 24.914062 37.335938 25.382812 37.570312 C 26.332031 38.039062 27.515625 38.695312 28.710938 39.328125 C 29.90625 39.949219 31.136719 40.535156 32.15625 40.96875 C 32.660156 41.179688 33.117188 41.367188 33.5625 41.484375 C 33.796875 41.542969 34.007812 41.566406 34.289062 41.566406 C 34.570312 41.566406 34.957031 41.566406 35.390625 41.25 C 35.824219 40.933594 35.941406 40.59375 36.023438 40.324219 C 36.105469 40.066406 36.152344 39.808594 36.164062 39.585938 C 36.199219 39.117188 36.164062 38.660156 36.105469 38.109375 C 36.011719 37.019531 35.789062 35.695312 35.566406 34.371094 C 35.332031 33.046875 35.085938 31.722656 34.921875 30.691406 C 34.839844 30.175781 34.804688 29.730469 34.78125 29.425781 C 34.769531 29.34375 34.78125 29.285156 34.78125 29.214844 C 34.816406 29.15625 34.839844 29.121094 34.898438 29.050781 C 35.097656 28.816406 35.425781 28.464844 35.789062 28.101562 C 36.539062 27.351562 37.511719 26.449219 38.484375 25.511719 C 39.445312 24.574219 40.40625 23.625 41.144531 22.804688 C 41.507812 22.394531 41.8125 22.019531 42.070312 21.621094 C 42.1875 21.421875 42.292969 21.222656 42.386719 20.964844 C 42.46875 20.695312 42.574219 20.320312 42.410156 19.804688 C 42.246094 19.300781 41.941406 19.078125 41.71875 18.914062 C 41.484375 18.761719 41.273438 18.65625 41.050781 18.574219 C 40.617188 18.398438 40.148438 18.292969 39.609375 18.164062 C 38.53125 17.929688 37.21875 17.695312 35.882812 17.507812 C 34.535156 17.308594 33.1875 17.15625 32.15625 16.992188 C 31.628906 16.898438 31.183594 16.804688 30.878906 16.722656 C 30.796875 16.710938 30.738281 16.699219 30.679688 16.675781 C 30.632812 16.617188 30.585938 16.582031 30.527344 16.5 C 30.363281 16.230469 30.140625 15.84375 29.894531 15.375 C 29.414062 14.449219 28.816406 13.242188 28.21875 12.035156 C 27.621094 10.839844 27.023438 9.644531 26.460938 8.695312 C 26.167969 8.226562 25.886719 7.816406 25.59375 7.464844 C 25.289062 7.101562 25.066406 6.5625 24 6.5625 Z " transform="scale(.33333)"/>
</svg>
