<svg width="16" xmlns="http://www.w3.org/2000/svg" height="16" viewBox="0 0 16 16" xmlns:xlink="http://www.w3.org/1999/xlink">
<path style="fill:#aaa" d="M 7.988281 15.832031 C 8.34375 15.804688 8.691406 15.648438 8.945312 15.398438 L 14.371094 9.589844 C 14.652344 9.316406 14.824219 8.933594 14.832031 8.539062 C 14.859375 7.921875 14.472656 7.3125 13.90625 7.070312 C 13.339844 6.832031 12.628906 6.980469 12.207031 7.425781 L 7.917969 11.875 L 3.492188 7.277344 C 2.910156 6.796875 1.964844 6.847656 1.4375 7.382812 C 0.910156 7.917969 0.871094 8.863281 1.355469 9.441406 L 6.78125 15.398438 C 7.09375 15.707031 7.550781 15.871094 7.988281 15.832031 Z M 11.015625 6.953125 C 11.519531 6.890625 11.933594 6.40625 11.914062 5.898438 L 11.914062 3.363281 C 11.914062 2.828125 11.425781 2.34375 10.894531 2.34375 C 10.359375 2.34375 9.875 2.828125 9.871094 3.363281 L 9.871094 5.898438 C 9.855469 6.457031 10.371094 6.972656 10.925781 6.953125 C 10.957031 6.953125 10.988281 6.953125 11.015625 6.953125 Z M 8.007812 7.152344 C 8.519531 7.109375 8.957031 6.617188 8.933594 6.101562 L 8.933594 0.964844 C 8.933594 0.433594 8.449219 -0.0546875 7.914062 -0.0546875 C 7.378906 -0.0546875 6.894531 0.433594 6.894531 0.964844 L 6.894531 6.101562 C 6.875 6.644531 7.367188 7.15625 7.914062 7.152344 C 7.945312 7.152344 7.976562 7.152344 8.007812 7.152344 Z M 5.027344 6.953125 C 5.527344 6.890625 5.945312 6.40625 5.921875 5.898438 L 5.921875 2.28125 C 6.007812 1.707031 5.5 1.117188 4.917969 1.117188 C 4.335938 1.117188 3.828125 1.707031 3.914062 2.28125 L 3.914062 5.898438 C 3.890625 6.476562 4.453125 7.007812 5.027344 6.953125 Z "/>
</svg>
