<?xml version="1.0" encoding="UTF-8" standalone="no"?>
<svg
   xmlns:dc="http://purl.org/dc/elements/1.1/"
   xmlns:cc="http://creativecommons.org/ns#"
   xmlns:rdf="http://www.w3.org/1999/02/22-rdf-syntax-ns#"
   xmlns:svg="http://www.w3.org/2000/svg"
   xmlns="http://www.w3.org/2000/svg"
   xmlns:sodipodi="http://sodipodi.sourceforge.net/DTD/sodipodi-0.dtd"
   xmlns:inkscape="http://www.inkscape.org/namespaces/inkscape"
   width="16"
   height="16"
   viewBox="0 0 16 16"
   id="svg2"
   version="1.1"
   inkscape:version="0.91 r13725"
   sodipodi:docname="chronometer-start.svg">
  <metadata
     id="metadata16">
    <rdf:RDF>
      <cc:Work
         rdf:about="">
        <dc:format>image/svg+xml</dc:format>
        <dc:type
           rdf:resource="http://purl.org/dc/dcmitype/StillImage" />
        <dc:title></dc:title>
      </cc:Work>
    </rdf:RDF>
  </metadata>
  <defs
     id="defs14" />
  <sodipodi:namedview
     pagecolor="#ffffff"
     bordercolor="#666666"
     borderopacity="1"
     objecttolerance="10"
     gridtolerance="10"
     guidetolerance="10"
     inkscape:pageopacity="0"
     inkscape:pageshadow="2"
     inkscape:window-width="1366"
     inkscape:window-height="704"
     id="namedview12"
     showgrid="false"
     inkscape:zoom="1"
     inkscape:cx="5.7524909"
     inkscape:cy="6.0686076"
     inkscape:window-x="0"
     inkscape:window-y="27"
     inkscape:window-maximized="1"
     inkscape:current-layer="svg2"
     inkscape:object-nodes="true">
    <inkscape:grid
       type="xygrid"
       id="grid4144" />
  </sodipodi:namedview>
  <g
     transform="matrix(0.70000001,0,0,0.70000001,-0.39999386,-0.39999742)"
     id="g4">
    <path
       style="fill:#ffffff;fill-rule:evenodd"
       d="m 21.375,12.000374 a 9.375,9.3750406 0 0 1 -18.75,0 9.375,9.3750406 0 1 1 18.75,0 z"
       id="path6"
       inkscape:connector-curvature="0" />
    <path
       style="fill:#aaaaaa"
       d="m 11.999991,1.9999963 c -5.5117189,10e-8 -9.9999998,4.4882811 -9.9999998,9.9999997 0,5.511719 4.4882808,10 9.9999998,10 5.511719,0 10,-4.488281 10,-10 0,-5.5117189 -4.488281,-9.9999997 -10,-9.9999997 z m 0,2.0000004 c 4.429688,-5e-7 8,3.5703114 8,8.0000003 0,4.429687 -3.570312,7.999999 -8,8 -4.4296879,-1e-6 -7.9999998,-3.570313 -7.9999998,-8.000001 0,-4.4296876 3.570312,-7.9999996 7.9999998,-7.9999993 z"
       id="path10"
       inkscape:connector-curvature="0" />
  </g>
  <rect
     style="opacity:1;fill:#aaaaaa;fill-opacity:1;stroke:none;stroke-width:3;stroke-linecap:round;stroke-linejoin:round;stroke-miterlimit:4;stroke-dasharray:none;stroke-opacity:1"
     id="rect4169"
     width="4"
     height="2"
     x="6"
     y="4.2632564e-14"
     ry="0.5"
     rx="0.5" />
  <path
     style="opacity:1;fill:#aaaaaa;fill-opacity:1;stroke:none;stroke-width:3;stroke-linecap:round;stroke-linejoin:round;stroke-miterlimit:4;stroke-dasharray:none;stroke-opacity:1"
     d="m 1.2938029,2.6966992 c -0.39173719,0.3917371 -0.39173719,1.0224764 0,1.4142135 L 2.3544631,5.1715729 5.1828902,2.3431458 4.12223,1.2824856 c -0.3917371,-0.3917372 -1.0224764,-0.3917372 -1.4142136,0 z"
     id="rect4171"
     inkscape:connector-curvature="0"
     sodipodi:nodetypes="sccccss" />
  <path
     sodipodi:nodetypes="sccccss"
     inkscape:connector-curvature="0"
     id="path4185"
     d="m 14.702066,2.6966992 c 0.391737,0.3917371 0.391737,1.0224764 0,1.4142135 l -1.06066,1.0606602 -2.828427,-2.8284271 1.06066,-1.0606602 c 0.391737,-0.3917372 1.022476,-0.3917372 1.414214,0 z"
     style="opacity:1;fill:#aaaaaa;fill-opacity:1;stroke:none;stroke-width:3;stroke-linecap:round;stroke-linejoin:round;stroke-miterlimit:4;stroke-dasharray:none;stroke-opacity:1" />
  <path
     style="opacity:1;fill:#859900;fill-opacity:1;stroke:none;stroke-width:3;stroke-linecap:square;stroke-linejoin:bevel;stroke-miterlimit:4;stroke-dasharray:none;stroke-opacity:1"
     d="m 6,4 6,4 -6,4 z"
     id="rect4140"
     inkscape:connector-curvature="0"
     sodipodi:nodetypes="cccc" />
</svg>
