<svg width="16" xmlns="http://www.w3.org/2000/svg" height="16" viewBox="0 0 16 16">
<path style="fill:#f9f9f9;fill-rule:evenodd" d="m 3,0 10,0 c 2,0 2,0 2,1.7777778 L 15,14.222222 C 15,16 15,16 13,16 L 3,16 C 1,16 1,16 1,14.222222 L 1,1.7777778 C 1,0 1,0 3,0 z"/>
<g style="fill:#3689e6" transform="translate(-8.47456 11.01694)">
<path style="word-spacing:0;line-height:125%;letter-spacing:0" d="m 24.474556,4.98306 -4,0 0,-6 4,0 0,6"/>
<path style="fill-rule:evenodd" d="m 24.474597,-5.0169622 c 0,1.104567 -0.895433,1.9999955 -2.000004,1.9999955 -1.104573,0 -2.000005,-0.8954285 -2.000005,-1.9999955 0,-1.1045669 0.895432,-1.9999953 2.000005,-1.9999953 1.104571,0 2.000004,0.8954284 2.000004,1.9999953 z"/>
</g>
</svg>
