<svg width="16" xmlns="http://www.w3.org/2000/svg" height="16" viewBox="0 0 16 16" xmlns:xlink="http://www.w3.org/1999/xlink">
<path style="fill:#aaa" d="M 6.40625 3 C 6.296875 3.015625 6.191406 3.066406 6.113281 3.144531 L 1.488281 7.644531 C 1.304688 7.832031 1.304688 8.167969 1.488281 8.355469 L 6.113281 12.855469 C 6.203125 12.945312 6.332031 12.996094 6.457031 13 L 14.167969 13 C 14.429688 13 14.667969 12.761719 14.667969 12.5 L 14.667969 3.5 C 14.667969 3.238281 14.429688 3 14.167969 3 L 6.457031 3 C 6.441406 3 6.421875 3 6.40625 3 Z M 8.011719 5.28125 L 9.667969 6.9375 L 11.324219 5.28125 L 12.386719 6.34375 L 10.730469 8 L 12.386719 9.65625 L 11.324219 10.71875 L 9.667969 9.0625 L 8.011719 10.71875 L 6.949219 9.65625 L 8.605469 8 L 6.949219 6.34375 Z "/>
</svg>
