<svg width="16" xmlns="http://www.w3.org/2000/svg" height="16" viewBox="0 0 16 16">
<path style="fill:#ffffff;fill-rule:evenodd" d="M 1.7777778,0 14.222222,0 C 16,0 16,0 16,1.6 l 0,12.8 C 16,16 16,16 14.222222,16 L 1.7777778,16 C 0,16 0,16 0,14.4 L 0,1.6 C 0,0 0,0 1.7777778,0 z"/>
<g style="fill:#888" transform="translate(-4 -4)">
<path d="M 5,5 5,7 19,7 19,5 z"/>
<path d="m 5,13 0,2 9,0 0,-2 z"/>
<path d="m 5,9 0,2 14,0 0,-2 z"/>
</g>
<path style="fill:#d64937" d="m 12,9 0,1 1,0 0,4 -1,0 0,1 3,0 0,-1 -1,0 0,-4 1,0 0,-1 z"/>
<path style="fill:#888" d="m 1,13 0,2 9,0 0,-2 z"/>
</svg>
