<svg width="16" xmlns="http://www.w3.org/2000/svg" viewBox="0 0 16 16" height="16">
<path style="fill:#8abf50" d="m 15.999078,4.124336 c -0.0144,0.535647 -0.216041,1.044512 -0.556907,1.414107 L 9.2969888,12.39472 C 8.9513228,12.785741 8.4808318,13 7.9911369,13 7.5014417,13 7.0309521,12.785741 6.6852857,12.39472 L 0.54010449,5.538443 c -0.7201392,-0.803469 -0.7201392,-2.1104471 0,-2.913917 0.72013841,-0.803469 1.89156351,-0.803469 2.61170271,0 L 7.9911369,8.023844 12.830468,2.624526 c 0.528103,-0.6106375 1.344259,-0.7927566 2.045193,-0.4606549 0.700936,0.3320995 1.147421,1.1087867 1.123417,1.9604649 z"/>
<path style="fill:#3689e6" d="M 14.4,16 C 15.2,16 16,16 16,14.5 16,13 15.2,13 14.4,13 L 1.6,13 C 0.8,13 0,13 0,14.5 0,16 0.8,16 1.6,16 z"/>
</svg>
