<svg width="16" xmlns="http://www.w3.org/2000/svg" height="16" viewBox="0 0 16 16" xmlns:xlink="http://www.w3.org/1999/xlink">
<g style="fill:#aaa">
<path d="M 9.640625 12.339844 C 9.378906 12.332031 9.132812 12.222656 8.953125 12.035156 L 5.621094 8.703125 C 5.429688 8.515625 5.324219 8.261719 5.324219 7.996094 C 5.324219 7.730469 5.429688 7.476562 5.621094 7.285156 L 8.953125 3.953125 C 9.34375 3.5625 9.976562 3.5625 10.371094 3.953125 C 10.761719 4.34375 10.761719 4.980469 10.371094 5.371094 L 7.746094 7.996094 L 10.371094 10.621094 C 10.667969 10.90625 10.757812 11.347656 10.59375 11.730469 C 10.433594 12.109375 10.054688 12.351562 9.640625 12.339844 Z "/>
<path d="M 4.332031 3.894531 C 4.304688 3.34375 3.832031 2.917969 3.28125 2.949219 C 2.730469 2.976562 2.304688 3.449219 2.332031 4 L 2.332031 12 C 2.328125 12.359375 2.519531 12.695312 2.828125 12.878906 C 3.140625 13.058594 3.527344 13.058594 3.835938 12.878906 C 4.148438 12.695312 4.339844 12.359375 4.332031 12 L 4.332031 4 C 4.335938 3.964844 4.335938 3.929688 4.332031 3.894531 Z "/>
</g>
</svg>
