<?xml version="1.0" encoding="UTF-8" standalone="no"?>
<svg
   xmlns:dc="http://purl.org/dc/elements/1.1/"
   xmlns:cc="http://creativecommons.org/ns#"
   xmlns:rdf="http://www.w3.org/1999/02/22-rdf-syntax-ns#"
   xmlns:svg="http://www.w3.org/2000/svg"
   xmlns="http://www.w3.org/2000/svg"
   xmlns:sodipodi="http://sodipodi.sourceforge.net/DTD/sodipodi-0.dtd"
   xmlns:inkscape="http://www.inkscape.org/namespaces/inkscape"
   width="16"
   viewBox="0 0 16 16"
   height="16"
   id="svg2"
   version="1.1"
   inkscape:version="0.91 r13725"
   sodipodi:docname="go-last.svg">
  <metadata
     id="metadata24">
    <rdf:RDF>
      <cc:Work
         rdf:about="">
        <dc:format>image/svg+xml</dc:format>
        <dc:type
           rdf:resource="http://purl.org/dc/dcmitype/StillImage" />
      </cc:Work>
    </rdf:RDF>
  </metadata>
  <defs
     id="defs22" />
  <sodipodi:namedview
     pagecolor="#ffffff"
     bordercolor="#666666"
     borderopacity="1"
     objecttolerance="10"
     gridtolerance="10"
     guidetolerance="10"
     inkscape:pageopacity="0"
     inkscape:pageshadow="2"
     inkscape:window-width="1366"
     inkscape:window-height="704"
     id="namedview20"
     showgrid="true"
     inkscape:zoom="65.38673"
     inkscape:cx="8.6445839"
     inkscape:cy="5.5530203"
     inkscape:window-x="0"
     inkscape:window-y="27"
     inkscape:window-maximized="1"
     inkscape:current-layer="svg2">
    <inkscape:grid
       type="xygrid"
       id="grid4152" />
  </sodipodi:namedview>
  <g
     transform="matrix(0 -1 1 0 0 16)"
     id="g4">
    <path
       style="fill:#268bd2;fill-rule:evenodd"
       d="M 8.2324219,0.00390625 C 3.7244334,-0.12711848 -8.0259715e-4,3.492061 0,8.0019531 0.0033338,14.7131 7.7709103,18.437664 13.005859,14.238281 14,10 14,6 12.990234,1.7597656 11.636693,0.67397529 9.966815,0.0577108 8.2324219,0.00390625 Z"
       transform="matrix(0,1,-1,0,16,0)"
       id="path6"
       inkscape:connector-curvature="0"
       sodipodi:nodetypes="ccccc" />
  </g>
  <g
     transform="matrix(0 -1 1 0 0 16)"
     id="g8">
    <path
       style="fill:#eaf4fb;fill-opacity:1"
       d="m 12.996605,8.15625 c 0.015,-0.464552 -0.249416,-0.881354 -0.6875,-1.0625 -0.438086,-0.181146 -0.951186,-0.083075 -1.28125,0.25 l -2.0312505,1.96875 0,-6.3125 -2,0 0,6.3125 L 4.965355,7.34375 c -0.450086,-0.438257 -1.174914,-0.438257 -1.625,0 -0.450087,0.438256 -0.450087,1.155494 0,1.59375 l 3.8437495,3.71875 C 7.4001455,12.869535 7.6905455,13 7.9966045,13 c 0.306059,0 0.596459,-0.130465 0.8125,-0.34375 L 12.652855,8.9375 c 0.213041,-0.201597 0.33475,-0.489079 0.34375,-0.78125 z"
       id="path10" />
  </g>
  <g
     transform="matrix(0 -1 1 0 0 16)"
     id="g12">
    <path
       style="fill:none"
       d="M 14.252808,12.99023 A 8.0000001,8.0000001 0 0 1 7.9988168,16 l 0,0 A 8.0000001,8.0000001 0 0 1 1.760282,13.006588"
       id="path14" />
  </g>
  <g
     style="fill-rule:evenodd"
     transform="matrix(0 -1 1 0 0 16)"
     id="g16">
    <path
       style="fill:#eaf4fb;fill-opacity:1"
       d="M 14.252808,12.99023 A 8.0000001,8.0000001 0 0 1 7.9988168,16 l 0,0 A 8.0000001,8.0000001 0 0 1 1.760282,13.006588"
       id="path18" />
  </g>
</svg>
