<svg width="16" xmlns="http://www.w3.org/2000/svg" viewBox="0 0 16 16" height="16">
<path style="fill:#8abf50" d="M 9.2200836e-4,11.875663 C 0.01532201,11.340016 0.21696361,10.831151 0.55782921,10.461555 L 6.7030116,3.6052798 C 7.048678,3.2142581 7.5191684,2.9999993 8.0088628,2.9999993 c 0.4896952,0 0.9601848,0.2142588 1.3058511,0.6052805 l 6.1451811,6.8562752 c 0.72014,0.80347 0.72014,2.110448 0,2.913918 -0.720138,0.803469 -1.891563,0.803469 -2.611702,0 L 8.0088628,7.9761557 3.1695315,13.375473 C 2.6414291,13.986111 1.8252731,14.16823 1.1243387,13.836128 0.42340361,13.504029 -0.02308199,12.727341 9.2200836e-4,11.875663 z"/>
<path style="fill:#3689e6" d="M 14.4,3 C 15.2,3 16,3 16,1.5 16,0 15.2,0 14.4,0 L 1.6000001,0 C 0.8,0 0,0 0,1.5 0,3 0.8,3 1.6000001,3 z"/>
</svg>
