<?xml version="1.0" encoding="UTF-8" standalone="no"?>
<!-- Created with Inkscape (http://www.inkscape.org/) -->

<svg
   xmlns:dc="http://purl.org/dc/elements/1.1/"
   xmlns:cc="http://creativecommons.org/ns#"
   xmlns:rdf="http://www.w3.org/1999/02/22-rdf-syntax-ns#"
   xmlns:svg="http://www.w3.org/2000/svg"
   xmlns="http://www.w3.org/2000/svg"
   xmlns:sodipodi="http://sodipodi.sourceforge.net/DTD/sodipodi-0.dtd"
   xmlns:inkscape="http://www.inkscape.org/namespaces/inkscape"
   id="svg7384"
   height="16"
   width="16"
   version="1.1"
   inkscape:version="0.91 r"
   sodipodi:docname="offline.svg">
  <defs
     id="defs11" />
  <sodipodi:namedview
     pagecolor="#ffffff"
     bordercolor="#666666"
     borderopacity="1"
     objecttolerance="10"
     gridtolerance="10"
     guidetolerance="10"
     inkscape:pageopacity="0"
     inkscape:pageshadow="2"
     inkscape:window-width="1366"
     inkscape:window-height="747"
     id="namedview9"
     showgrid="true"
     inkscape:zoom="3.6943544"
     inkscape:cx="-21.042217"
     inkscape:cy="9.2298358"
     inkscape:window-x="0"
     inkscape:window-y="21"
     inkscape:window-maximized="1"
     inkscape:current-layer="svg7384">
    <inkscape:grid
       type="xygrid"
       id="grid4189" />
  </sodipodi:namedview>
  <metadata
     id="metadata90">
    <rdf:RDF>
      <cc:Work
         rdf:about="">
        <dc:format>image/svg+xml</dc:format>
        <dc:type
           rdf:resource="http://purl.org/dc/dcmitype/StillImage" />
        <dc:title>Gnome Symbolic Icon Theme</dc:title>
      </cc:Work>
    </rdf:RDF>
  </metadata>
  <title
     id="title9167">Gnome Symbolic Icon Theme</title>
  <g
     id="g3000"
     transform="matrix(0.80000001,0,0,0.80000001,1.4000005,-4.600003)" />
  <path
     style="color:#000000;display:inline;overflow:visible;visibility:visible;opacity:1.;fill:#888888;fill-opacity:1;fill-rule:nonzero;stroke:none;marker:none;enable-background:accumulate"
     d="m 14.580966,-1e-6 c -0.121902,0 -0.238497,0.04551 -0.324062,0.132925 l -1.648934,1.64856 -1.479058,0 c -0.121787,-8.8e-4 -0.246187,0.04693 -0.332374,0.132934 L 8.6444307,4.066285 c -0.174782,0.171103 -0.174782,0.493565 0,0.664667 l 2.6340453,2.633743 c 0.08791,0.08782 0.208107,0.135911 0.332374,0.132933 0.119288,-8.8e-4 0.239644,-0.04862 0.324062,-0.132933 l 2.160427,-2.160169 c 0.08605,-0.08613 0.13392,-0.202258 0.132943,-0.324027 l 0,-1.487192 1.640632,-1.640249 c 0.174782,-0.171112 0.174782,-0.493565 0,-0.664667 L 14.91334,0.132924 C 14.82774,0.045546 14.702878,-1e-6 14.580966,-1e-6 Z"
     id="path2994"
     inkscape:connector-curvature="0"
     sodipodi:nodetypes="scccccccccccccccs" />
  <path
     style="color:#000000;display:inline;overflow:visible;visibility:visible;opacity:1.;fill:#888888;fill-opacity:1;fill-rule:nonzero;stroke:none;marker:none;enable-background:accumulate"
     d="M 4.3891506,8.504223 C 4.2698618,8.505103 4.1495062,8.561203 4.0650882,8.645468 L 1.904661,10.797326 c -0.086044,0.08613 -0.13392,0.210569 -0.1329424,0.332338 l 0,1.47888 -1.64063212,1.648561 c -0.1747822,0.171111 -0.1747822,0.485254 0,0.656365 l 0.95557362,0.955458 c 0.1711201,0.174764 0.4853068,0.174764 0.6564357,0 l 1.6489344,-1.640259 1.4790584,0 c 0.1217864,8.8e-4 0.2461864,-0.04693 0.3323732,-0.132933 l 2.1521069,-2.16017 c 0.174791,-0.171102 0.174791,-0.485244 0,-0.656355 L 4.7215238,8.645468 C 4.633613,8.557646 4.5134082,8.501246 4.3891506,8.504223 Z"
     id="path3804-7"
     inkscape:connector-curvature="0"
     sodipodi:nodetypes="cccccccccccccccc" />
</svg>
