<svg width="16" xmlns="http://www.w3.org/2000/svg" height="16" viewBox="0 0 16 16" xmlns:xlink="http://www.w3.org/1999/xlink">
<g style="fill:#aaa">
<path d="M 2.261719 7.949219 C 1.738281 7.988281 1.332031 8.421875 1.332031 8.949219 L 1.332031 13.667969 C 1.332031 13.671875 1.332031 13.671875 1.332031 13.675781 C 1.332031 13.699219 1.332031 13.71875 1.332031 13.738281 C 1.335938 13.765625 1.339844 13.796875 1.34375 13.824219 C 1.34375 13.828125 1.34375 13.835938 1.34375 13.84375 C 1.347656 13.855469 1.351562 13.863281 1.355469 13.875 C 1.359375 13.894531 1.367188 13.917969 1.375 13.9375 C 1.378906 13.953125 1.382812 13.964844 1.386719 13.980469 C 1.390625 13.996094 1.398438 14.015625 1.40625 14.03125 C 1.417969 14.0625 1.433594 14.09375 1.449219 14.125 C 1.457031 14.148438 1.46875 14.175781 1.480469 14.199219 C 1.484375 14.203125 1.492188 14.210938 1.5 14.21875 C 1.503906 14.226562 1.507812 14.234375 1.511719 14.238281 C 1.523438 14.257812 1.539062 14.273438 1.550781 14.292969 C 1.558594 14.300781 1.566406 14.3125 1.574219 14.324219 C 1.585938 14.335938 1.601562 14.351562 1.613281 14.363281 C 1.625 14.375 1.636719 14.386719 1.644531 14.394531 C 1.683594 14.429688 1.726562 14.460938 1.769531 14.488281 C 1.796875 14.507812 1.824219 14.527344 1.855469 14.542969 C 1.867188 14.550781 1.882812 14.554688 1.894531 14.5625 C 1.914062 14.570312 1.929688 14.578125 1.949219 14.582031 C 1.957031 14.589844 1.96875 14.597656 1.980469 14.605469 C 2.03125 14.621094 2.082031 14.636719 2.136719 14.644531 C 2.148438 14.648438 2.164062 14.652344 2.175781 14.65625 C 2.199219 14.660156 2.21875 14.664062 2.238281 14.667969 C 2.253906 14.667969 2.265625 14.667969 2.28125 14.667969 C 2.296875 14.667969 2.316406 14.667969 2.332031 14.667969 C 2.347656 14.667969 2.359375 14.667969 2.375 14.667969 L 7.050781 14.667969 C 7.3125 14.671875 7.5625 14.574219 7.75 14.394531 C 8.050781 14.113281 8.148438 13.675781 7.992188 13.292969 C 7.839844 12.910156 7.464844 12.660156 7.050781 12.667969 L 4.75 12.667969 L 6.707031 10.707031 C 7.007812 10.421875 7.097656 9.980469 6.933594 9.597656 C 6.773438 9.21875 6.394531 8.976562 5.980469 8.988281 C 5.71875 8.996094 5.472656 9.105469 5.292969 9.292969 L 3.332031 11.25 L 3.332031 8.949219 C 3.332031 8.667969 3.21875 8.402344 3.015625 8.214844 C 2.8125 8.023438 2.539062 7.929688 2.261719 7.949219 Z "/>
<path d="M 13.746094 8 C 14.265625 7.960938 14.667969 7.527344 14.667969 7.007812 L 14.667969 2.328125 C 14.667969 2.324219 14.667969 2.320312 14.667969 2.316406 C 14.667969 2.296875 14.667969 2.277344 14.667969 2.253906 C 14.664062 2.226562 14.660156 2.199219 14.65625 2.171875 C 14.65625 2.164062 14.65625 2.160156 14.65625 2.152344 C 14.652344 2.140625 14.648438 2.128906 14.644531 2.121094 C 14.640625 2.101562 14.632812 2.078125 14.625 2.058594 C 14.621094 2.042969 14.617188 2.03125 14.613281 2.015625 C 14.609375 2 14.601562 1.984375 14.59375 1.964844 C 14.582031 1.933594 14.566406 1.902344 14.554688 1.871094 C 14.542969 1.847656 14.535156 1.824219 14.523438 1.800781 C 14.515625 1.792969 14.507812 1.785156 14.5 1.78125 C 14.496094 1.773438 14.496094 1.765625 14.492188 1.757812 C 14.476562 1.742188 14.464844 1.722656 14.449219 1.707031 C 14.441406 1.695312 14.4375 1.6875 14.429688 1.675781 C 14.414062 1.664062 14.402344 1.648438 14.386719 1.636719 C 14.378906 1.625 14.367188 1.613281 14.355469 1.605469 C 14.316406 1.570312 14.277344 1.539062 14.234375 1.511719 C 14.207031 1.492188 14.179688 1.476562 14.148438 1.460938 C 14.136719 1.453125 14.121094 1.445312 14.109375 1.4375 C 14.089844 1.429688 14.074219 1.425781 14.058594 1.417969 C 14.046875 1.410156 14.035156 1.402344 14.027344 1.398438 C 13.976562 1.378906 13.921875 1.367188 13.871094 1.355469 C 13.855469 1.351562 13.84375 1.347656 13.828125 1.34375 C 13.808594 1.339844 13.789062 1.339844 13.765625 1.335938 C 13.753906 1.335938 13.738281 1.335938 13.726562 1.335938 C 13.707031 1.335938 13.691406 1.335938 13.675781 1.335938 C 13.660156 1.335938 13.648438 1.335938 13.632812 1.335938 L 8.992188 1.335938 C 8.734375 1.332031 8.488281 1.429688 8.300781 1.605469 C 8 1.882812 7.90625 2.320312 8.058594 2.699219 C 8.210938 3.078125 8.582031 3.324219 8.992188 3.320312 L 11.277344 3.320312 L 9.332031 5.261719 C 9.039062 5.546875 8.949219 5.984375 9.109375 6.363281 C 9.269531 6.742188 9.644531 6.980469 10.058594 6.964844 C 10.316406 6.957031 10.558594 6.851562 10.738281 6.667969 L 12.683594 4.722656 L 12.683594 7.007812 C 12.683594 7.285156 12.796875 7.546875 13 7.734375 C 13.199219 7.921875 13.472656 8.019531 13.746094 8 Z "/>
</g>
</svg>
