<svg width="16" xmlns="http://www.w3.org/2000/svg" height="16" viewBox="0 0 16 16" xmlns:xlink="http://www.w3.org/1999/xlink">
<g style="fill:#aaa">
<path d="M 7.917969 0.988281 C 5.183594 0.988281 2.96875 3.203125 2.96875 5.9375 C 2.96875 6.074219 2.988281 6.203125 3 6.339844 C 1.238281 7.097656 0 8.847656 0 10.886719 C 0 13.617188 2.214844 15.832031 4.949219 15.832031 C 6.074219 15.832031 7.085938 15.445312 7.917969 14.8125 C 8.75 15.445312 9.757812 15.832031 10.886719 15.832031 C 13.617188 15.832031 15.832031 13.617188 15.832031 10.886719 C 15.832031 8.851562 14.589844 7.128906 12.832031 6.371094 C 12.847656 6.222656 12.863281 6.085938 12.863281 5.9375 C 12.863281 3.203125 10.648438 0.988281 7.917969 0.988281 Z M 7.917969 2.96875 C 9.554688 2.96875 10.886719 4.296875 10.886719 5.9375 C 9.003906 5.9375 7.394531 7.015625 6.554688 8.566406 C 5.605469 8.070312 4.949219 7.082031 4.949219 5.9375 C 4.949219 4.296875 6.277344 2.96875 7.917969 2.96875 Z M 10.886719 7.917969 C 12.523438 7.917969 13.855469 9.246094 13.855469 10.886719 C 13.855469 12.523438 12.523438 13.855469 10.886719 13.855469 C 9.246094 13.855469 7.917969 12.523438 7.917969 10.886719 C 7.917969 9.246094 9.246094 7.917969 10.886719 7.917969 Z M 3.585938 8.257812 C 4.117188 9.226562 4.941406 10.007812 5.96875 10.453125 C 5.957031 10.597656 5.9375 10.734375 5.9375 10.886719 C 5.9375 11.796875 6.191406 12.628906 6.617188 13.359375 C 6.144531 13.679688 5.5625 13.855469 4.949219 13.855469 C 3.308594 13.855469 1.980469 12.523438 1.980469 10.886719 C 1.980469 9.738281 2.636719 8.75 3.585938 8.257812 Z "/>
<path style="fill-opacity:.2" d="M 3.585938 8.257812 C 3.566406 8.269531 3.542969 8.277344 3.527344 8.289062 C 3.308594 8.40625 3.117188 8.554688 2.9375 8.722656 C 2.910156 8.746094 2.871094 8.757812 2.84375 8.78125 C 2.777344 8.847656 2.722656 8.925781 2.660156 9 C 2.574219 9.101562 2.480469 9.226562 2.410156 9.339844 C 2.335938 9.464844 2.285156 9.605469 2.226562 9.742188 C 2.152344 9.914062 2.082031 10.078125 2.042969 10.265625 C 2.035156 10.285156 2.042969 10.308594 2.042969 10.328125 C 2.007812 10.503906 1.980469 10.695312 1.980469 10.882812 C 1.980469 12.523438 3.308594 13.851562 4.949219 13.851562 C 5.152344 13.851562 5.339844 13.828125 5.535156 13.792969 C 5.921875 13.710938 6.300781 13.574219 6.617188 13.359375 C 6.191406 12.628906 5.9375 11.792969 5.9375 10.886719 C 5.9375 10.734375 5.957031 10.597656 5.96875 10.453125 C 4.941406 10.007812 4.117188 9.226562 3.585938 8.257812 Z "/>
<path style="fill-opacity:.4" d="M 13.855469 10.886719 C 13.855469 12.523438 12.523438 13.855469 10.886719 13.855469 C 9.246094 13.855469 7.917969 12.523438 7.917969 10.886719 C 7.917969 9.246094 9.246094 7.917969 10.886719 7.917969 C 12.523438 7.917969 13.855469 9.246094 13.855469 10.886719 Z "/>
</g>
</svg>
