<svg width="16" xmlns="http://www.w3.org/2000/svg" height="16" viewBox="0 0 16 16" xmlns:xlink="http://www.w3.org/1999/xlink">
<path style="fill:#545454" d="M 7.9375 1.671875 C 7.824219 1.6875 7.714844 1.742188 7.636719 1.828125 C 7.625 1.839844 7.613281 1.855469 7.605469 1.867188 L 1.46875 8.203125 C 1.335938 8.34375 1.296875 8.566406 1.371094 8.746094 C 1.449219 8.921875 1.640625 9.046875 1.832031 9.046875 L 3.011719 9.046875 L 3.019531 13.835938 C 3.019531 14.097656 3.257812 14.335938 3.519531 14.335938 L 12.875 14.316406 C 13.136719 14.316406 13.375 14.078125 13.375 13.816406 L 13.332031 9.015625 L 14.167969 9.023438 C 14.363281 9.023438 14.554688 8.898438 14.628906 8.714844 C 14.703125 8.535156 14.660156 8.308594 14.519531 8.171875 L 12.042969 5.703125 L 12.042969 2.515625 C 12.042969 2.253906 11.804688 2.015625 11.542969 2.015625 L 9.855469 2.003906 C 9.59375 2.003906 9.355469 2.242188 9.355469 2.503906 L 9.355469 2.785156 L 8.34375 1.804688 C 8.238281 1.703125 8.082031 1.652344 7.9375 1.671875 Z "/>
</svg>
