<svg width="16" xmlns="http://www.w3.org/2000/svg" height="16" viewBox="0 0 16 16" xmlns:xlink="http://www.w3.org/1999/xlink">
<path style="fill:#aaa" d="M 12.339844 8.34375 C 12.347656 7.929688 12.105469 7.554688 11.726562 7.398438 C 11.34375 7.238281 10.90625 7.328125 10.621094 7.625 L 8.996094 9.25 L 8.996094 5.324219 C 8.996094 4.488281 8.433594 3.796875 7.945312 3.550781 C 7.453125 3.308594 6.996094 3.324219 6.996094 3.324219 L 5.328125 3.324219 C 4.96875 3.316406 4.632812 3.507812 4.449219 3.820312 C 4.269531 4.128906 4.269531 4.515625 4.449219 4.828125 C 4.632812 5.136719 4.96875 5.328125 5.328125 5.324219 L 6.996094 5.324219 L 6.996094 9.25 L 5.371094 7.625 C 4.980469 7.234375 4.34375 7.234375 3.953125 7.625 C 3.5625 8.015625 3.5625 8.648438 3.953125 9.042969 L 7.289062 12.375 C 7.476562 12.5625 7.730469 12.667969 7.996094 12.667969 C 8.261719 12.667969 8.515625 12.5625 8.703125 12.375 L 12.039062 9.042969 C 12.222656 8.859375 12.332031 8.613281 12.339844 8.355469 C 12.339844 8.351562 12.339844 8.347656 12.339844 8.34375 Z "/>
</svg>
