<svg width="16" xmlns="http://www.w3.org/2000/svg" height="16" viewBox="0 0 16 16" xmlns:xlink="http://www.w3.org/1999/xlink">
<path style="fill:#aaa" d="M 8 1.332031 C 8 1.332031 4 1.332031 4 4.332031 L 4 6.667969 C 4 6.667969 2.667969 6.667969 2.667969 8 L 2.667969 13.332031 C 2.667969 14.667969 4 14.667969 4 14.667969 L 8.332031 14.667969 L 7.332031 13.667969 L 8.667969 12.332031 L 8 11.667969 L 7 10.667969 L 8.332031 9.332031 L 7.332031 8.332031 L 9 6.667969 L 5.667969 6.667969 L 5.667969 5 C 5.667969 3 8 3 8 3 C 8 3 10.332031 3 10.332031 5 L 10.332031 5.332031 L 12 5.332031 L 12 4.332031 C 12 1.332031 8 1.332031 8 1.332031 Z M 10.332031 6.667969 L 8.667969 8.332031 L 9.667969 9.332031 L 8.332031 10.667969 L 9.332031 11.667969 L 10 12.332031 L 9.667969 12.667969 L 8.667969 13.667969 L 9.667969 14.667969 L 12 14.667969 C 12 14.667969 13.332031 14.667969 13.332031 13.332031 L 13.332031 8 C 13.332031 6.667969 12 6.667969 12 6.667969 Z "/>
</svg>
