<svg width="16" xmlns="http://www.w3.org/2000/svg" height="16" viewBox="0 0 16 16" xmlns:xlink="http://www.w3.org/1999/xlink">
<path style="fill:#aaa" d="M 7.652344 3.65625 C 8.0625 3.648438 8.441406 3.890625 8.597656 4.269531 C 8.757812 4.648438 8.667969 5.089844 8.371094 5.375 L 6.746094 7 L 10.671875 7 C 11.507812 7 12.199219 7.5625 12.445312 8.050781 C 12.6875 8.539062 12.671875 9 12.671875 9 L 12.671875 10.667969 C 12.679688 11.027344 12.488281 11.363281 12.175781 11.542969 C 11.867188 11.726562 11.480469 11.726562 11.167969 11.542969 C 10.855469 11.363281 10.667969 11.027344 10.671875 10.667969 L 10.671875 9 L 6.746094 9 L 8.371094 10.625 C 8.761719 11.015625 8.761719 11.652344 8.371094 12.042969 C 7.980469 12.433594 7.34375 12.433594 6.953125 12.042969 L 3.621094 8.707031 C 3.433594 8.519531 3.328125 8.265625 3.328125 8 C 3.328125 7.734375 3.433594 7.480469 3.621094 7.292969 L 6.953125 3.957031 C 7.136719 3.773438 7.382812 3.664062 7.640625 3.65625 C 7.644531 3.65625 7.648438 3.65625 7.652344 3.65625 Z "/>
</svg>
