<svg width="16" xmlns="http://www.w3.org/2000/svg" height="16" viewBox="0 0 16 16" xmlns:xlink="http://www.w3.org/1999/xlink">
<path style="fill:#aaa" d="M 3.660156 6.964844 C 3.667969 6.707031 3.777344 6.460938 3.964844 6.277344 L 7.296875 2.945312 C 7.484375 2.757812 7.738281 2.652344 8.003906 2.652344 C 8.269531 2.652344 8.523438 2.757812 8.714844 2.945312 L 12.046875 6.277344 C 12.4375 6.667969 12.4375 7.304688 12.046875 7.695312 C 11.65625 8.085938 11.019531 8.085938 10.628906 7.695312 L 8.003906 5.070312 L 5.378906 7.695312 C 5.09375 7.992188 4.652344 8.082031 4.269531 7.921875 C 3.890625 7.757812 3.648438 7.378906 3.660156 6.964844 Z "/>
<g style="stroke-linecap:round;stroke:#aaa;stroke-linejoin:round;fill:none;stroke-width:4">
<path d="M 18.023438 26.988281 L 18.023438 32.003906 " transform="scale(.33333)"/>
<path d="M 24 26.988281 L 24 37.125 " transform="scale(.33333)"/>
<path d="M 30 26.976562 L 30 34.148438 " transform="scale(.33333)"/>
</g>
</svg>
