<svg width="16" xmlns="http://www.w3.org/2000/svg" height="16" viewBox="0 0 16 16" xmlns:xlink="http://www.w3.org/1999/xlink">
<path style="fill:#aaa" d="M 2.480469 1.675781 C 1.871094 1.675781 1.355469 2.164062 1.355469 2.78125 L 1.355469 11.300781 C 1.355469 11.917969 1.871094 12.40625 2.480469 12.40625 L 9.34375 12.40625 L 12.136719 14.230469 L 13.25 14.957031 L 12.886719 13.675781 L 12.53125 12.40625 L 13.550781 12.40625 C 14.160156 12.40625 14.6875 11.917969 14.6875 11.300781 L 14.6875 2.78125 C 14.6875 2.164062 14.160156 1.675781 13.550781 1.675781 Z M 6 3.667969 L 8 5.667969 L 10 3.667969 L 11.332031 5 L 9.332031 7 L 11.332031 9 L 10 10.332031 L 8 8.332031 L 6 10.332031 L 4.667969 9 L 6.667969 7 L 4.667969 5 Z "/>
</svg>
