<svg width="16" xmlns="http://www.w3.org/2000/svg" height="16" viewBox="0 0 16 16" xmlns:xlink="http://www.w3.org/1999/xlink">
<g style="fill:#aaa">
<path d="M 1.78125 2.28125 C 1.527344 2.308594 1.332031 2.523438 1.332031 2.78125 L 1.332031 13.21875 C 1.332031 13.496094 1.558594 13.71875 1.832031 13.71875 L 14.167969 13.71875 C 14.441406 13.71875 14.667969 13.496094 14.667969 13.21875 L 14.667969 2.78125 C 14.667969 2.503906 14.441406 2.28125 14.167969 2.28125 L 1.832031 2.28125 C 1.816406 2.28125 1.796875 2.28125 1.78125 2.28125 Z M 13.332031 3 C 13.515625 3 13.667969 3.148438 13.667969 3.332031 C 13.667969 3.515625 13.515625 3.667969 13.332031 3.667969 C 13.148438 3.667969 13 3.515625 13 3.332031 C 13 3.148438 13.148438 3 13.332031 3 Z M 2.332031 4.332031 L 13.667969 4.332031 L 13.667969 12.71875 L 2.332031 12.71875 Z "/>
<path d="M 7.394531 5.335938 C 7.171875 5.382812 6.996094 5.605469 7 5.835938 L 7 7 L 5.832031 7 C 5.570312 7 5.332031 7.238281 5.332031 7.5 L 5.332031 8.5 C 5.332031 8.761719 5.570312 9 5.832031 9 L 7 9 L 7 10.167969 C 7 10.429688 7.238281 10.667969 7.5 10.667969 L 8.5 10.667969 C 8.761719 10.667969 9 10.429688 9 10.167969 L 9 9 L 10.167969 9 C 10.429688 9 10.667969 8.761719 10.667969 8.5 L 10.667969 7.5 C 10.667969 7.238281 10.429688 7 10.167969 7 L 9 7 L 9 5.835938 C 9 5.574219 8.761719 5.335938 8.5 5.335938 L 7.5 5.335938 C 7.464844 5.332031 7.429688 5.332031 7.394531 5.335938 Z "/>
</g>
</svg>
