<svg width="16" xmlns="http://www.w3.org/2000/svg" height="16" viewBox="0 0 16 16" xmlns:xlink="http://www.w3.org/1999/xlink">
<path style="fill:#aaa" d="M 3.152344 3.65625 C 2.910156 3.683594 2.703125 3.910156 2.703125 4.15625 L 2.703125 8.6875 L 1.832031 8.6875 C 1.570312 8.6875 1.332031 8.925781 1.332031 9.1875 L 1.332031 11.84375 C 1.332031 12.105469 1.570312 12.34375 1.832031 12.34375 L 8.332031 12.34375 L 8.332031 10.332031 L 10.667969 10.332031 L 10.667969 8 L 13.324219 8 L 13.324219 4.15625 C 13.324219 3.894531 13.085938 3.65625 12.824219 3.65625 L 3.203125 3.65625 C 3.1875 3.65625 3.171875 3.65625 3.152344 3.65625 Z M 11.332031 8.667969 L 11.332031 11 L 9 11 L 9 12.332031 L 11.332031 12.332031 L 11.332031 14.667969 L 12.667969 14.667969 L 12.667969 12.332031 L 15 12.332031 L 15 11 L 12.667969 11 L 12.667969 8.667969 Z M 13.332031 8.6875 L 13.332031 10.332031 L 14.667969 10.332031 L 14.667969 9.1875 C 14.667969 8.925781 14.429688 8.6875 14.167969 8.6875 Z "/>
</svg>
