<svg version="1.1" viewBox="0 0 16 16" xmlns="http://www.w3.org/2000/svg">
 <rect transform="scale(-1 1)" x="-6.5" y="9.5" width="5" height="5" style="fill:#fff;stroke:#888"/>
 <g transform="matrix(.707 -.707 .707 .707 -4.25 21.8)">
  <path d="m18.5-1.09h5.5" style="fill:none;stroke:#6c71c4"/>
  <path d="m19-3.09-2 2 2 2z" style="fill:#6c71c4"/>
  <path d="m23.5 0.909 2-2-2-2z" style="fill:#6c71c4"/>
 </g>
 <path d="m8 15v-1h1v1h-1zm2 0v-1h1v1h-1zm2 0v-1h1v1h-1zm2 0v-1h1v1h-1zm0-2v-1h1v1h-1zm0-2v-1h1v1h-1zm0-2v-1h1v1h-1zm-13-1v-1h1v1h-1zm13-1v-1h1v1h-1zm-13-1v-1h1v1h-1zm13-1v-1h1v1h-1zm-13-1v-1h1v1h-1zm13-1v-1h-1v-1h2v2h-1zm-13-1v-1h1v1h-1zm2 0v-1h1v1h-1zm2 0v-1h1v1h-1zm2 0v-1h1v1h-1zm2 0v-1h1v1h-1zm2 0v-1h1v1h-1z" style="fill:#c3c3c3"/>
</svg>
