<svg width="16" xmlns="http://www.w3.org/2000/svg" height="16" viewBox="0 0 16 16" xmlns:xlink="http://www.w3.org/1999/xlink">
<path style="fill:#aaa" d="M 1.78125 2.332031 C 1.539062 2.359375 1.332031 2.589844 1.332031 2.832031 L 1.332031 11.832031 C 1.332031 12.09375 1.570312 12.332031 1.832031 12.332031 L 6.332031 12.332031 L 6.332031 13.332031 L 9.667969 13.332031 L 9.667969 12.332031 L 14.167969 12.332031 C 14.429688 12.332031 14.667969 12.09375 14.667969 11.832031 L 14.667969 2.832031 C 14.667969 2.570312 14.429688 2.332031 14.167969 2.332031 Z M 8 4.332031 C 8 4.332031 9.667969 4.332031 9.667969 5.667969 L 9.667969 6.667969 C 9.667969 6.667969 10.332031 6.667969 10.332031 6.96875 L 10.332031 9.875 C 10.332031 10.128906 10.09375 10.355469 9.832031 10.355469 L 6.167969 10.355469 C 5.90625 10.355469 5.667969 10.128906 5.667969 9.875 L 5.667969 6.96875 C 5.667969 6.667969 6.339844 6.664062 6.339844 6.664062 L 6.320312 5.667969 C 6.332031 4.332031 8 4.332031 8 4.332031 Z M 8 5 C 8 5 7 5 7 6 L 7 6.667969 L 9 6.667969 L 9 6 C 9 5 8 5 8 5 Z M 4 13.667969 L 4 14.667969 L 12.332031 14.667969 L 12.332031 13.667969 Z "/>
</svg>
