<svg width="64" xmlns="http://www.w3.org/2000/svg" height="64" viewBox="0 0 64 64" xmlns:xlink="http://www.w3.org/1999/xlink">
<path style="fill:#a57953;stroke:#a57953" d="M 4.345703 25.5 C 3.886719 25.453125 3.5 24.992188 3.5 24.498047 L 3.5 5.505859 C 3.5 4.980469 3.945312 4.5 4.4375 4.5 L 27.5625 4.5 C 28.054688 4.5 28.5 4.980469 28.5 5.505859 L 28.5 21.742188 C 28.5 22.269531 27.78125 23.025391 27.291016 23.025391 L 18.826172 23.009766 L 18.826172 24.333984 C 18.826172 24.857422 18.414062 25.5 17.925781 25.5 L 4.4375 25.5 C 4.408203 25.5 4.378906 25.5 4.345703 25.5 Z " transform="scale(2)"/>
<path style="fill:#fff" d="M 14 14 L 50 14 L 50 50 L 14 50 Z "/>
<g style="fill:#ccc">
<path d="M 18 38 L 46 38 L 46 40 L 18 40 Z "/>
<path d="M 18 34 L 46 34 L 46 36 L 18 36 Z "/>
<path d="M 18 30 L 46 30 L 46 32 L 18 32 Z "/>
<path d="M 18 26 L 46 26 L 46 28 L 18 28 Z "/>
<path d="M 18 22 L 46 22 L 46 24 L 18 24 Z "/>
<path d="M 18 18 L 46 18 L 46 20 L 18 20 Z "/>
</g>
<path style="fill:#e9b080;stroke:#a57953" d="M 1.548828 13.5 C 0.980469 13.53125 0.507812 14.177734 0.507812 14.505859 L 0.5 26.828125 C 0.5 27.179688 1.052734 27.5 1.662109 27.5 L 30.337891 27.5 C 30.947266 27.5 31.5 27.179688 31.5 26.828125 L 31.523438 16.484375 C 31.525391 16.132812 31.041016 15.509766 30.431641 15.509766 L 19.527344 15.496094 L 19.503906 14.277344 C 19.496094 13.929688 18.994141 13.5 18.386719 13.5 L 1.662109 13.5 C 1.626953 13.5 1.589844 13.5 1.548828 13.5 Z " transform="scale(2)"/>
</svg>
