<svg width="32" xmlns="http://www.w3.org/2000/svg" height="32" viewBox="0 0 32 32" xmlns:xlink="http://www.w3.org/1999/xlink">
<path style="fill:#38a34e" d="M 5.332031 0.667969 C 4.648438 0.667969 4 1.3125 4 2 L 4 30 C 4 30.648438 4.6875 31.332031 5.332031 31.332031 L 26.667969 31.332031 C 27.3125 31.332031 28 30.648438 28 30 L 28 9.332031 L 19.332031 0.667969 Z "/>
<path style="fill:#000;fill-opacity:.196" d="M 19.332031 8 L 19.375 8.042969 L 19.480469 8 Z M 20.667969 9.332031 L 28 16.667969 L 28 9.332031 Z "/>
<path style="fill:#fff;fill-opacity:.392" d="M 19.332031 0.667969 L 28 9.332031 L 20.667969 9.332031 C 20.019531 9.332031 19.332031 8.648438 19.332031 8 Z "/>
<path style="fill:#000;fill-opacity:.196" d="M 4 23.332031 L 4 30 C 4 30.648438 4.6875 31.332031 5.332031 31.332031 L 26.667969 31.332031 C 27.3125 31.332031 28 30.648438 28 30 L 28 23.332031 Z "/>
<g style="fill:#fff">
<path d="M 11.355469 10.667969 C 10.980469 10.703125 10.660156 11.097656 10.667969 11.519531 L 10.667969 20.5 C 10.671875 20.941406 11.023438 21.339844 11.417969 21.332031 L 20.601562 21.332031 C 20.988281 21.328125 21.328125 20.933594 21.332031 20.5 L 21.332031 11.519531 C 21.339844 11.078125 20.996094 10.671875 20.601562 10.667969 Z M 12.003906 12 L 19.996094 12 L 19.996094 17.730469 C 19.9375 17.660156 19.910156 17.636719 19.847656 17.5625 C 19.253906 16.851562 18.574219 16.003906 17.757812 14.980469 C 17.59375 15.140625 17.394531 15.335938 17.128906 15.582031 C 16.859375 15.828125 16.539062 16.125 16.167969 16.457031 C 16.121094 16.511719 15.929688 16.3125 15.582031 15.875 C 15.222656 15.433594 14.734375 14.761719 14.074219 13.832031 C 13.195312 14.75 12.558594 15.402344 12.003906 15.957031 Z "/>
<path d="M 10.941406 24.722656 C 11.683594 24.722656 12.261719 24.859375 12.671875 25.128906 C 13.082031 25.394531 13.285156 25.828125 13.285156 26.433594 C 13.285156 27.042969 13.078125 27.488281 12.660156 27.761719 C 12.253906 28.03125 11.667969 28.167969 10.914062 28.167969 L 10.496094 28.167969 L 10.496094 29.894531 L 9.332031 29.894531 L 9.332031 24.847656 C 9.445312 24.828125 9.574219 24.808594 9.710938 24.789062 C 9.855469 24.773438 10 24.761719 10.148438 24.757812 C 10.292969 24.746094 10.433594 24.738281 10.570312 24.734375 C 10.710938 24.726562 10.832031 24.722656 10.941406 24.722656 M 11.074219 25.609375 C 11.003906 25.609375 10.90625 25.609375 10.78125 25.617188 C 10.660156 25.617188 10.566406 25.621094 10.496094 25.632812 L 10.496094 27.285156 L 10.96875 27.285156 C 11.339844 27.285156 11.621094 27.21875 11.8125 27.09375 C 12 26.960938 12.09375 26.738281 12.09375 26.425781 C 12.09375 26.128906 12 25.917969 11.8125 25.796875 C 11.628906 25.671875 11.382812 25.609375 11.074219 25.609375 "/>
<path d="M 16.90625 29.894531 C 16.644531 29.324219 16.351562 28.761719 16.039062 28.199219 C 15.730469 27.632812 15.394531 27.066406 15.035156 26.5 L 15.035156 29.894531 L 13.984375 29.894531 L 13.984375 24.78125 L 14.921875 24.78125 C 15.097656 25.023438 15.273438 25.289062 15.453125 25.574219 C 15.628906 25.855469 15.796875 26.136719 15.960938 26.417969 C 16.132812 26.699219 16.285156 26.96875 16.425781 27.234375 C 16.570312 27.5 16.695312 27.730469 16.792969 27.929688 L 16.792969 24.78125 L 17.84375 24.78125 L 17.84375 29.894531 L 16.90625 29.894531 "/>
<path d="M 21.230469 25.550781 C 20.953125 25.550781 20.71875 25.59375 20.53125 25.683594 C 20.339844 25.769531 20.183594 25.894531 20.058594 26.054688 C 19.9375 26.207031 19.847656 26.394531 19.792969 26.613281 C 19.742188 26.828125 19.714844 27.070312 19.714844 27.332031 C 19.714844 27.945312 19.828125 28.394531 20.046875 28.6875 C 20.269531 28.972656 20.59375 29.117188 21.019531 29.117188 C 21.089844 29.117188 21.167969 29.113281 21.25 29.109375 C 21.332031 29.101562 21.40625 29.09375 21.476562 29.082031 L 21.476562 27.21875 L 22.636719 27.21875 L 22.636719 29.769531 C 22.5 29.8125 22.28125 29.863281 21.984375 29.917969 C 21.695312 29.972656 21.34375 30 20.925781 30 C 20.5625 30 20.230469 29.945312 19.933594 29.835938 C 19.644531 29.71875 19.394531 29.550781 19.1875 29.332031 C 18.980469 29.105469 18.816406 28.828125 18.703125 28.496094 C 18.589844 28.160156 18.535156 27.773438 18.535156 27.332031 C 18.535156 26.898438 18.601562 26.515625 18.734375 26.1875 C 18.867188 25.851562 19.046875 25.570312 19.273438 25.34375 C 19.5 25.117188 19.765625 24.949219 20.074219 24.839844 C 20.382812 24.722656 20.714844 24.667969 21.070312 24.667969 C 21.296875 24.667969 21.496094 24.683594 21.671875 24.714844 C 21.855469 24.742188 22.015625 24.777344 22.148438 24.816406 C 22.277344 24.855469 22.386719 24.894531 22.46875 24.9375 C 22.554688 24.984375 22.621094 25.015625 22.667969 25.039062 L 22.363281 25.847656 C 22.226562 25.769531 22.054688 25.703125 21.851562 25.640625 C 21.652344 25.582031 21.445312 25.550781 21.230469 25.550781 "/>
</g>
</svg>
