<svg width="32" xmlns="http://www.w3.org/2000/svg" height="32" viewBox="0 0 32 32" xmlns:xlink="http://www.w3.org/1999/xlink">
<path style="fill:#785a8b" d="M 5.332031 0.667969 C 4.648438 0.667969 4 1.3125 4 2 L 4 30 C 4 30.648438 4.6875 31.332031 5.332031 31.332031 L 26.667969 31.332031 C 27.3125 31.332031 28 30.648438 28 30 L 28 9.332031 L 19.332031 0.667969 Z "/>
<path style="fill:#000;fill-opacity:.196" d="M 19.332031 8 L 19.375 8.042969 L 19.480469 8 Z M 20.667969 9.332031 L 28 16.667969 L 28 9.332031 Z "/>
<path style="fill:#fff;fill-opacity:.392" d="M 19.332031 0.667969 L 28 9.332031 L 20.667969 9.332031 C 20.019531 9.332031 19.332031 8.648438 19.332031 8 Z "/>
<path style="fill:#000;fill-opacity:.196" d="M 4 23.332031 L 4 30 C 4 30.648438 4.6875 31.332031 5.332031 31.332031 L 26.667969 31.332031 C 27.3125 31.332031 28 30.648438 28 30 L 28 23.332031 Z "/>
<g style="fill:#fff">
<path d="M 12 12 L 12 18.667969 L 10 18.667969 L 12 22 L 13.332031 22 L 13.332031 13.332031 C 16.175781 13.332031 19.253906 13.332031 22 13.332031 L 22 12 Z M 15.855469 14.179688 L 14.492188 15.601562 L 16.878906 18.089844 L 14.492188 20.578125 L 15.855469 22 L 18.242188 19.511719 L 20.628906 22 L 21.992188 20.578125 L 19.605469 18.089844 L 21.992188 15.601562 L 20.628906 14.179688 L 18.242188 16.667969 Z "/>
<path d="M 10.511719 27.332031 C 10.511719 27.582031 10.519531 27.816406 10.539062 28.035156 C 10.566406 28.25 10.609375 28.4375 10.671875 28.597656 C 10.742188 28.757812 10.835938 28.882812 10.953125 28.976562 C 11.074219 29.070312 11.234375 29.117188 11.433594 29.117188 C 11.628906 29.117188 11.785156 29.070312 11.90625 28.976562 C 12.03125 28.882812 12.125 28.757812 12.1875 28.597656 C 12.257812 28.429688 12.300781 28.242188 12.320312 28.027344 C 12.34375 27.8125 12.359375 27.582031 12.359375 27.332031 C 12.359375 27.085938 12.34375 26.855469 12.320312 26.640625 C 12.300781 26.417969 12.257812 26.230469 12.1875 26.070312 C 12.125 25.910156 12.035156 25.785156 11.914062 25.691406 C 11.796875 25.597656 11.636719 25.550781 11.433594 25.550781 C 11.234375 25.550781 11.074219 25.597656 10.953125 25.691406 C 10.835938 25.785156 10.742188 25.914062 10.671875 26.078125 C 10.609375 26.238281 10.566406 26.425781 10.539062 26.640625 C 10.519531 26.855469 10.511719 27.085938 10.511719 27.332031 M 9.332031 27.332031 C 9.332031 26.453125 9.519531 25.789062 9.890625 25.34375 C 10.261719 24.890625 10.773438 24.667969 11.433594 24.667969 C 12.121094 24.667969 12.640625 24.890625 13 25.34375 C 13.355469 25.789062 13.535156 26.453125 13.535156 27.332031 C 13.535156 28.214844 13.355469 28.878906 12.988281 29.332031 C 12.625 29.777344 12.109375 30 11.445312 30 C 10.757812 30 10.234375 29.777344 9.871094 29.332031 C 9.511719 28.878906 9.332031 28.214844 9.332031 27.332031 "/>
<path d="M 15.457031 29.066406 C 15.488281 29.074219 15.523438 29.074219 15.5625 29.074219 C 15.597656 29.074219 15.632812 29.074219 15.664062 29.074219 C 15.929688 29.074219 16.148438 29.03125 16.324219 28.941406 C 16.507812 28.855469 16.652344 28.734375 16.757812 28.578125 C 16.871094 28.425781 16.949219 28.242188 16.992188 28.035156 C 17.042969 27.820312 17.070312 27.585938 17.070312 27.332031 C 17.070312 27.113281 17.050781 26.898438 17.011719 26.6875 C 16.976562 26.480469 16.910156 26.296875 16.816406 26.136719 C 16.722656 25.976562 16.59375 25.851562 16.429688 25.757812 C 16.265625 25.65625 16.054688 25.609375 15.796875 25.609375 C 15.746094 25.609375 15.691406 25.609375 15.628906 25.617188 C 15.566406 25.617188 15.507812 25.621094 15.457031 25.632812 L 15.457031 29.066406 M 18.246094 27.332031 C 18.246094 27.804688 18.179688 28.210938 18.039062 28.546875 C 17.90625 28.878906 17.722656 29.148438 17.484375 29.355469 C 17.246094 29.566406 16.960938 29.71875 16.625 29.816406 C 16.300781 29.910156 15.9375 29.957031 15.542969 29.957031 C 15.335938 29.957031 15.132812 29.949219 14.929688 29.925781 C 14.734375 29.910156 14.523438 29.878906 14.300781 29.835938 L 14.300781 24.847656 C 14.5625 24.796875 14.8125 24.765625 15.042969 24.75 C 15.277344 24.734375 15.492188 24.722656 15.695312 24.722656 C 16.078125 24.722656 16.425781 24.773438 16.738281 24.871094 C 17.058594 24.972656 17.332031 25.128906 17.550781 25.34375 C 17.769531 25.550781 17.941406 25.824219 18.058594 26.152344 C 18.183594 26.476562 18.246094 26.871094 18.246094 27.332031 "/>
<path d="M 19.09375 29.890625 L 19.09375 24.78125 L 22.667969 24.78125 L 22.667969 25.625 L 20.253906 25.625 L 20.253906 26.863281 L 22.363281 26.863281 L 22.363281 27.703125 L 20.253906 27.703125 L 20.253906 29.890625 L 19.09375 29.890625 "/>
</g>
</svg>
