<?xml version="1.0" encoding="UTF-8" standalone="no"?>
<svg
   xmlns:dc="http://purl.org/dc/elements/1.1/"
   xmlns:cc="http://creativecommons.org/ns#"
   xmlns:rdf="http://www.w3.org/1999/02/22-rdf-syntax-ns#"
   xmlns:svg="http://www.w3.org/2000/svg"
   xmlns="http://www.w3.org/2000/svg"
   xmlns:sodipodi="http://sodipodi.sourceforge.net/DTD/sodipodi-0.dtd"
   xmlns:inkscape="http://www.inkscape.org/namespaces/inkscape"
   width="32"
   height="32"
   viewBox="0 0 32 32"
   id="svg2"
   version="1.1"
   inkscape:version="0.48.5 r10040"
   sodipodi:docname="application-image-tga.svg">
  <metadata
     id="metadata26">
    <rdf:RDF>
      <cc:Work
         rdf:about="">
        <dc:format>image/svg+xml</dc:format>
        <dc:type
           rdf:resource="http://purl.org/dc/dcmitype/StillImage" />
      </cc:Work>
    </rdf:RDF>
  </metadata>
  <defs
     id="defs24" />
  <sodipodi:namedview
     pagecolor="#ffffff"
     bordercolor="#666666"
     borderopacity="1"
     objecttolerance="10"
     gridtolerance="10"
     guidetolerance="10"
     inkscape:pageopacity="0"
     inkscape:pageshadow="2"
     inkscape:window-width="1280"
     inkscape:window-height="970"
     id="namedview22"
     showgrid="true"
     inkscape:zoom="10.429825"
     inkscape:cx="26.061532"
     inkscape:cy="23.213246"
     inkscape:window-x="0"
     inkscape:window-y="0"
     inkscape:window-maximized="1"
     inkscape:current-layer="svg2">
    <inkscape:grid
       type="xygrid"
       id="grid3100" />
  </sodipodi:namedview>
  <path
     style="fill:#38a34e;fill-opacity:1"
     d="M 5.335888,2.97e-4 C 4.648414,3.12e-4 4,0.676788 4,1.394031 L 4,30.606268 C 4,31.282757 4.687474,32 5.335888,32 l 21.327331,0 c 0.648414,0 1.335888,-0.717243 1.335888,-1.393732 L 28,8.9999995 19,0 z"
     id="path4-1"
     inkscape:connector-curvature="0"
     sodipodi:nodetypes="ssssssccs" />
  <path
     style="fill:#000000;fill-opacity:0.19599998"
     d="m 20.999999,8.9999995 7,7.0000005 0,-7.0000005 z"
     id="path6-4"
     inkscape:connector-curvature="0"
     sodipodi:nodetypes="cccc" />
  <path
     style="fill:#ffffff;fill-opacity:0.39200003"
     d="m 19.000305,2.97e-4 8.991594,8.9997025 -7.613262,0 c -0.672951,0 -1.378332,-0.7134896 -1.378332,-1.3864402 z"
     id="path8-6"
     inkscape:connector-curvature="0"
     sodipodi:nodetypes="ccssc" />
  <path
     style="fill:#ffffff"
     d="m 11.644779,10.999946 c -0.351641,0.03296 -0.652001,0.406447 -0.644676,0.801908 l 0,8.414521 c 0.0037,0.41377 0.333328,0.787261 0.703283,0.783598 l 8.611547,0 c 0.362631,-0.0072 0.681306,-0.373491 0.684968,-0.783598 l 0,-8.414521 c 0.0073,-0.417431 -0.315011,-0.798245 -0.684968,-0.801908 z M 12,12 l 8,0 0,5.700547 -2.351679,-2.658114 -0.589731,0.567559 -0.901082,0.820215 L 15.60807,15.880955 14.19418,13.969563 12,16.799413 z"
     id="path10"
     inkscape:connector-curvature="0"
     sodipodi:nodetypes="ccccccccccccccccccc" />
  <path
     style="fill:#000000;fill-opacity:0.19599998"
     d="m 4,24 0,6.667969 C 4,31.316407 4.6875,32 5.3320311,32 L 26.667969,32 C 27.3125,32 28,31.316407 28,30.667969 L 28,24 z"
     id="path3011"
     inkscape:connector-curvature="0" />
  <path
     style="fill:#ffffff"
     inkscape:connector-curvature="0"
     id="path16"
     d="m 13.337741,25.557977 0,0.897531 -1.574836,0 0,4.537521 -1.200863,0 0,-4.537521 -1.5789912,0 0,-0.897531 4.3546902,0" />
  <path
     style="fill:#ffffff"
     inkscape:connector-curvature="0"
     id="path18"
     d="m 16.599604,26.376559 c -0.286713,0 -0.523561,0.04571 -0.718858,0.141278 -0.19114,0.09142 -0.353194,0.224383 -0.482007,0.394748 -0.120502,0.162054 -0.211918,0.361505 -0.27009,0.594198 -0.05402,0.228539 -0.07895,0.486163 -0.07895,0.764564 0,0.652372 0.112191,1.130225 0.34073,1.441868 0.224382,0.303332 0.556801,0.457077 0.997257,0.457077 0.07064,0 0.145434,-0.0041 0.228537,-0.0083 0.08726,-0.0083 0.162055,-0.01663 0.232694,-0.02908 l 0,-1.982048 1.192553,0 0,2.71337 c -0.141277,0.04571 -0.365661,0.09973 -0.668993,0.1579 -0.295021,0.05815 -0.656527,0.08724 -1.084516,0.08724 -0.373972,0 -0.710546,-0.05818 -1.013878,-0.174519 -0.299177,-0.124658 -0.552647,-0.303334 -0.764564,-0.536027 -0.211917,-0.241003 -0.378127,-0.536025 -0.494473,-0.88922 -0.116347,-0.357351 -0.17452,-0.768719 -0.17452,-1.238262 0,-0.461231 0.06648,-0.868445 0.203607,-1.217485 0.137122,-0.357351 0.319953,-0.656528 0.552646,-0.897531 0.232693,-0.240999 0.50694,-0.419675 0.822737,-0.536021 0.315799,-0.124658 0.652373,-0.182831 1.013879,-0.182831 0.232693,0 0.440455,0.01663 0.61913,0.04986 0.186986,0.02908 0.34904,0.06648 0.486163,0.108036 0.132967,0.04155 0.245159,0.08311 0.328264,0.128812 0.08726,0.04986 0.157898,0.08311 0.203606,0.108036 l -0.311643,0.860134 c -0.141277,-0.08311 -0.315798,-0.153743 -0.523559,-0.220227 -0.203607,-0.06233 -0.415524,-0.09557 -0.635751,-0.09557" />
  <path
     style="fill:#ffffff"
     inkscape:connector-curvature="0"
     id="path20"
     d="m 21.889222,30.993029 -0.278402,-1.254882 -1.595611,0 -0.274246,1.254882 -1.238261,0 c 0.286711,-1.067896 0.573422,-2.044378 0.86429,-2.921133 0.286711,-0.885066 0.569267,-1.724423 0.839357,-2.513919 l 1.296435,0 c 0.282557,0.797806 0.565112,1.641319 0.843513,2.538851 0.282556,0.88922 0.556803,1.85739 0.822738,2.896201 l -1.279813,0 m -1.063741,-4.379621 c -0.06233,0.203606 -0.124658,0.398903 -0.182831,0.585888 -0.04986,0.182831 -0.103885,0.365661 -0.153744,0.544337 -0.04571,0.178674 -0.09142,0.35735 -0.137123,0.536025 -0.0374,0.182831 -0.07479,0.369816 -0.116347,0.565113 l 1.171778,0 c -0.0374,-0.195297 -0.07895,-0.382282 -0.116347,-0.565113 -0.0374,-0.178675 -0.08311,-0.357351 -0.137122,-0.536025 C 21.112195,27.564957 21.058178,27.382127 21,27.199296 20.950142,27.012311 20.891964,26.817014 20.825481,26.613408" />
</svg>
