<svg width="32" xmlns="http://www.w3.org/2000/svg" height="32" viewBox="0 0 32 32" xmlns:xlink="http://www.w3.org/1999/xlink">
<path style="fill:#38a34e" d="M 5.332031 0.667969 C 4.648438 0.667969 4 1.3125 4 2 L 4 30 C 4 30.648438 4.6875 31.332031 5.332031 31.332031 L 26.667969 31.332031 C 27.3125 31.332031 28 30.648438 28 30 L 28 9.332031 L 19.332031 0.667969 Z "/>
<path style="fill:#000;fill-opacity:.196" d="M 19.332031 8 L 19.375 8.042969 L 19.480469 8 Z M 20.667969 9.332031 L 28 16.667969 L 28 9.332031 Z "/>
<path style="fill:#fff;fill-opacity:.392" d="M 19.332031 0.667969 L 28 9.332031 L 20.667969 9.332031 C 20.019531 9.332031 19.332031 8.648438 19.332031 8 Z "/>
<path style="fill:#000;fill-opacity:.196" d="M 4 23.332031 L 4 30 C 4 30.648438 4.6875 31.332031 5.332031 31.332031 L 26.667969 31.332031 C 27.3125 31.332031 28 30.648438 28 30 L 28 23.332031 Z "/>
<g style="fill:#fff">
<path d="M 11.355469 10.667969 C 10.980469 10.703125 10.660156 11.097656 10.667969 11.519531 L 10.667969 20.5 C 10.671875 20.941406 11.023438 21.339844 11.417969 21.332031 L 20.601562 21.332031 C 20.988281 21.328125 21.328125 20.933594 21.332031 20.5 L 21.332031 11.519531 C 21.339844 11.078125 20.996094 10.671875 20.601562 10.667969 Z M 12.003906 12 L 19.996094 12 L 19.996094 17.730469 C 19.9375 17.660156 19.910156 17.636719 19.847656 17.5625 C 19.253906 16.851562 18.574219 16.003906 17.757812 14.980469 C 17.59375 15.140625 17.394531 15.335938 17.128906 15.582031 C 16.859375 15.828125 16.539062 16.125 16.167969 16.457031 C 16.121094 16.511719 15.929688 16.3125 15.582031 15.875 C 15.222656 15.433594 14.734375 14.761719 14.074219 13.832031 C 13.195312 14.75 12.558594 15.402344 12.003906 15.957031 Z "/>
<path d="M 12.019531 25.59375 C 11.742188 25.59375 11.511719 25.636719 11.320312 25.722656 C 11.132812 25.8125 10.976562 25.9375 10.851562 26.09375 C 10.730469 26.25 10.644531 26.4375 10.585938 26.65625 C 10.535156 26.871094 10.511719 27.109375 10.511719 27.375 C 10.511719 27.984375 10.621094 28.4375 10.839844 28.730469 C 11.0625 29.015625 11.382812 29.160156 11.8125 29.160156 C 11.878906 29.160156 11.957031 29.15625 12.039062 29.148438 C 12.121094 29.144531 12.195312 29.136719 12.265625 29.125 L 12.265625 27.257812 L 13.421875 27.257812 L 13.421875 29.8125 C 13.285156 29.855469 13.066406 29.90625 12.773438 29.960938 C 12.484375 30.015625 12.132812 30.042969 11.71875 30.042969 C 11.351562 30.042969 11.023438 29.988281 10.726562 29.875 C 10.4375 29.761719 10.191406 29.59375 9.984375 29.375 C 9.777344 29.148438 9.617188 28.871094 9.503906 28.539062 C 9.390625 28.203125 9.332031 27.816406 9.332031 27.375 C 9.332031 26.941406 9.398438 26.558594 9.53125 26.226562 C 9.664062 25.890625 9.84375 25.609375 10.066406 25.386719 C 10.292969 25.160156 10.5625 24.992188 10.871094 24.882812 C 11.175781 24.765625 11.507812 24.707031 11.859375 24.707031 C 12.085938 24.707031 12.285156 24.726562 12.460938 24.757812 C 12.644531 24.785156 12.800781 24.820312 12.933594 24.855469 C 13.066406 24.894531 13.171875 24.9375 13.253906 24.980469 C 13.339844 25.023438 13.40625 25.058594 13.449219 25.082031 L 13.148438 25.890625 C 13.011719 25.8125 12.84375 25.742188 12.640625 25.683594 C 12.441406 25.621094 12.234375 25.59375 12.019531 25.59375 "/>
<path d="M 14.300781 29.933594 L 14.300781 29.09375 L 15.570312 29.09375 L 15.570312 25.667969 L 14.300781 25.667969 L 14.300781 24.824219 L 18.003906 24.824219 L 18.003906 25.667969 L 16.738281 25.667969 L 16.738281 29.09375 L 18.003906 29.09375 L 18.003906 29.933594 L 14.300781 29.933594 "/>
<path d="M 19.09375 29.933594 L 19.09375 24.824219 L 22.667969 24.824219 L 22.667969 25.667969 L 20.253906 25.667969 L 20.253906 26.90625 L 22.363281 26.90625 L 22.363281 27.746094 L 20.253906 27.746094 L 20.253906 29.933594 L 19.09375 29.933594 "/>
</g>
</svg>
