<?xml version="1.0" encoding="UTF-8" standalone="no"?>
<svg
   xmlns:dc="http://purl.org/dc/elements/1.1/"
   xmlns:cc="http://creativecommons.org/ns#"
   xmlns:rdf="http://www.w3.org/1999/02/22-rdf-syntax-ns#"
   xmlns:svg="http://www.w3.org/2000/svg"
   xmlns="http://www.w3.org/2000/svg"
   xmlns:sodipodi="http://sodipodi.sourceforge.net/DTD/sodipodi-0.dtd"
   xmlns:inkscape="http://www.inkscape.org/namespaces/inkscape"
   width="32"
   height="32"
   viewBox="0 0 32 32"
   id="svg2"
   version="1.1"
   inkscape:version="0.91 r13725"
   sodipodi:docname="application-vnd.openxmlformats-officedocument.spreadsheetml.sheet.svg">
  <metadata
     id="metadata26">
    <rdf:RDF>
      <cc:Work
         rdf:about="">
        <dc:format>image/svg+xml</dc:format>
        <dc:type
           rdf:resource="http://purl.org/dc/dcmitype/StillImage" />
      </cc:Work>
    </rdf:RDF>
  </metadata>
  <defs
     id="defs24" />
  <sodipodi:namedview
     pagecolor="#ffffff"
     bordercolor="#666666"
     borderopacity="1"
     objecttolerance="10"
     gridtolerance="10"
     guidetolerance="10"
     inkscape:pageopacity="0"
     inkscape:pageshadow="2"
     inkscape:window-width="1280"
     inkscape:window-height="998"
     id="namedview22"
     showgrid="true"
     inkscape:zoom="16"
     inkscape:cx="15.968404"
     inkscape:cy="14.208311"
     inkscape:window-x="0"
     inkscape:window-y="0"
     inkscape:window-maximized="1"
     inkscape:current-layer="svg2">
    <inkscape:grid
       type="xygrid"
       id="grid3044" />
  </sodipodi:namedview>
  <path
     style="fill:#207145;fill-opacity:1"
     d="M 5.335888,2.969e-4 C 4.648414,3.119e-4 4,0.67678777 4,1.3940311 L 4,30.606268 C 4,31.282757 4.687474,32 5.335888,32 l 21.327332,0 c 0.648414,0 1.335888,-0.717243 1.335888,-1.393732 L 28,8.9999996 l -9,-9 z"
     id="path4-1"
     inkscape:connector-curvature="0"
     sodipodi:nodetypes="ssssssccs" />
  <path
     style="fill:#000000;fill-opacity:0.19599998"
     d="M 21,8.9999996 28,16 28,8.9999996 z"
     id="path6-4"
     inkscape:connector-curvature="0"
     sodipodi:nodetypes="cccc" />
  <path
     style="fill:#ffffff"
     d="m 22,11 0,10 -12,0 0,-10 z m -1,1 -6,0 0,2 6,0 z m -7,0 -3,0 0,2 3,0 z m 7,3 -6,0 0,2 6,0 z m -7,0 -3,0 0,2 3,0 z m 7,3 -6,0 0,2 6,0 z m -7,0 -3,0 0,2 3,0 z"
     id="path10-1"
     inkscape:connector-curvature="0"
     sodipodi:nodetypes="ccccccccccccccccccccccccccccccccccc" />
  <path
     style="fill:#000000;fill-opacity:0.19599998"
     d="m 4,24 0,6.667969 C 4,31.316407 4.6875,32 5.332031,32 l 21.335938,0 C 27.3125,32 28,31.316407 28,30.667969 L 28,24 z"
     id="path10"
     inkscape:connector-curvature="0" />
  <path
     style="fill:#ffffff;fill-opacity:0.39200003"
     d="m 19.000306,2.969e-4 8.991594,8.9997027 -7.613262,0 c -0.672951,0 -1.378332,-0.7134896 -1.378332,-1.3864402 z"
     id="path8-6"
     inkscape:connector-curvature="0"
     sodipodi:nodetypes="ccssc" />
  <path
     style="fill:#ffffff"
     inkscape:connector-curvature="0"
     id="path16"
     d="M 10.783884,31.002136 C 10.681157,30.727851 10.554462,30.42309 10.403797,30.091662 10.25998,29.756424 10.10589,29.424996 9.9449517,29.093568 9.7874386,29.409758 9.6333484,29.737376 9.4758352,30.084043 9.3217458,30.419281 9.1882012,30.727851 9.0752029,31.002136 L 8,31.002136 c 0.054788,-0.14857 0.1335445,-0.319999 0.2362703,-0.525713 0.1061508,-0.201904 0.2225744,-0.422856 0.3458461,-0.659046 0.1301195,-0.236191 0.2636639,-0.48 0.4040568,-0.723809 0.1403929,-0.255239 0.2739367,-0.495237 0.4006323,-0.727619 l -1.3046244,-2.350472 1.0717788,0 0.7909918,1.596188 0.8320833,-1.596188 0.99987,0 -1.273806,2.327615 c 0.143816,0.232381 0.287633,0.472381 0.424601,0.723808 0.140393,0.255239 0.270513,0.499048 0.386936,0.742857 0.126696,0.23619 0.232847,0.457142 0.325301,0.666666 0.08903,0.205714 0.164362,0.377143 0.215725,0.525713 l -1.071778,0" />
  <path
     style="fill:#ffffff"
     inkscape:connector-curvature="0"
     id="path18"
     d="m 15.656536,31.002136 -3.140001,0 0,-4.986659 1.003293,0 0,4.163803 2.136708,0 0,0.822856" />
  <path
     style="fill:#ffffff"
     inkscape:connector-curvature="0"
     id="path20"
     d="m 17.851455,30.274519 c 0.164362,0 0.301331,-0.01524 0.410906,-0.04572 0.112999,-0.03809 0.202028,-0.08761 0.263665,-0.144762 0.06506,-0.06476 0.109574,-0.137142 0.130119,-0.209523 0.02739,-0.08381 0.04108,-0.16381 0.04108,-0.24381 0,-0.102857 -0.03082,-0.190475 -0.08903,-0.274285 -0.05821,-0.08 -0.133545,-0.148571 -0.225998,-0.209522 -0.09245,-0.06096 -0.19518,-0.118096 -0.304755,-0.167621 -0.112999,-0.05334 -0.225998,-0.102856 -0.338997,-0.14476 -0.150665,-0.05334 -0.308178,-0.114286 -0.469117,-0.186667 -0.160938,-0.06857 -0.308179,-0.156191 -0.445147,-0.262857 -0.126696,-0.110476 -0.236271,-0.239999 -0.321876,-0.39619 -0.08561,-0.159999 -0.13012,-0.358095 -0.13012,-0.594286 0,-0.46857 0.150665,-0.834283 0.451996,-1.097141 0.308179,-0.262857 0.725932,-0.39238 1.26011,-0.39238 0.304754,0 0.571843,0.03429 0.797841,0.102858 0.232846,0.06857 0.424602,0.14857 0.582115,0.232381 l -0.291058,0.765712 c -0.133539,-0.07619 -0.284205,-0.137139 -0.451991,-0.194281 -0.160938,-0.05334 -0.34927,-0.08 -0.564994,-0.08 -0.52733,0 -0.790994,0.190477 -0.790994,0.571428 0,0.09905 0.02739,0.182857 0.08218,0.259048 0.05136,0.06857 0.119847,0.133333 0.202029,0.194285 0.08561,0.05333 0.178058,0.102857 0.280784,0.144762 0.109575,0.04191 0.212301,0.08381 0.315028,0.121905 0.157513,0.05714 0.318451,0.125713 0.482813,0.198094 0.174635,0.07238 0.328724,0.16762 0.469118,0.289524 0.143816,0.118095 0.263664,0.270476 0.356118,0.453333 0.08903,0.175237 0.136968,0.399999 0.136968,0.674284 0,0.468571 -0.154089,0.830475 -0.462269,1.089522 -0.30133,0.251428 -0.760174,0.377142 -1.376533,0.377142 -0.414329,0 -0.746478,-0.04191 -0.993021,-0.129523 -0.246543,-0.09143 -0.434875,-0.175238 -0.558146,-0.24762 l 0.291058,-0.807618 c 0.143816,0.08761 0.318451,0.167619 0.517055,0.24381 0.205453,0.07238 0.451996,0.110476 0.743054,0.110476" />
  <path
     style="fill:#ffffff"
     inkscape:connector-curvature="0"
     id="path16-1"
     d="M 22.928222,31.008909 C 22.825495,30.734624 22.6988,30.429863 22.548135,30.098435 22.404317,29.763198 22.250228,29.43177 22.08929,29.100341 c -0.157514,0.31619 -0.311604,0.643808 -0.469117,0.990475 -0.154089,0.335238 -0.287634,0.643808 -0.400632,0.918093 l -1.075203,0 c 0.05479,-0.14857 0.133544,-0.319999 0.23627,-0.525712 0.106151,-0.201905 0.222574,-0.422857 0.345846,-0.659047 0.130119,-0.23619 0.263664,-0.48 0.404057,-0.723809 0.140393,-0.255238 0.273937,-0.495237 0.400632,-0.727619 l -1.304624,-2.350472 1.071779,0 0.790992,1.596189 0.832083,-1.596189 0.99987,0 -1.273806,2.327616 c 0.143816,0.232381 0.287633,0.47238 0.424601,0.723808 0.140393,0.255238 0.270513,0.499048 0.386936,0.742857 0.126696,0.236189 0.232846,0.457142 0.325301,0.666666 0.08903,0.205713 0.164362,0.377142 0.215725,0.525712 l -1.071778,0" />
</svg>
