<svg width="32" xmlns="http://www.w3.org/2000/svg" height="32" viewBox="0 0 32 32" xmlns:xlink="http://www.w3.org/1999/xlink">
<path style="fill:#c19553" d="M 5.332031 0.667969 C 4.648438 0.667969 4 1.3125 4 2 L 4 30 C 4 30.648438 4.6875 31.332031 5.332031 31.332031 L 26.667969 31.332031 C 27.3125 31.332031 28 30.648438 28 30 L 28 9.332031 L 19.332031 0.667969 Z "/>
<path style="fill:#000;fill-opacity:.196" d="M 19.332031 8 L 19.375 8.042969 L 19.480469 8 Z M 20.667969 9.332031 L 28 16.667969 L 28 9.332031 Z "/>
<path style="fill:#fff;fill-opacity:.392" d="M 19.332031 0.667969 L 28 9.332031 L 20.667969 9.332031 C 20.019531 9.332031 19.332031 8.648438 19.332031 8 Z "/>
<path style="fill:#000;fill-opacity:.196" d="M 4 23.332031 L 4 30 C 4 30.648438 4.6875 31.332031 5.332031 31.332031 L 26.667969 31.332031 C 27.3125 31.332031 28 30.648438 28 30 L 28 23.332031 Z "/>
<g style="fill:#fff">
<path d="M 12 0.667969 L 12 3.332031 L 14.667969 3.332031 L 14.667969 0.667969 Z M 12 3.332031 L 9.332031 3.332031 L 9.332031 6 L 12 6 Z M 12 6 L 12 8.667969 L 14.667969 8.667969 L 14.667969 6 Z M 12 8.667969 L 9.332031 8.667969 L 9.332031 11.332031 L 12 11.332031 Z M 12 11.332031 L 12 14 L 14.667969 14 L 14.667969 11.332031 Z M 9.332031 15.332031 L 9.332031 20.667969 L 14.667969 20.667969 L 14.667969 15.332031 Z "/>
<path d="M 12.984375 30 L 9.332031 30 L 9.332031 24.667969 L 10.496094 24.667969 L 10.496094 29.121094 L 12.984375 29.121094 L 12.984375 30 "/>
<path d="M 17.632812 24.667969 L 17.632812 30 L 16.480469 30 L 16.480469 27.648438 L 14.9375 27.648438 L 14.9375 30 L 13.785156 30 L 13.785156 24.667969 L 14.9375 24.667969 L 14.9375 26.769531 L 16.480469 26.769531 L 16.480469 24.667969 L 17.632812 24.667969 "/>
<path d="M 21.425781 30 L 21.15625 28.769531 L 19.605469 28.769531 L 19.34375 30 L 18.140625 30 C 18.417969 28.949219 18.695312 27.992188 18.976562 27.132812 C 19.257812 26.261719 19.53125 25.441406 19.792969 24.667969 L 21.050781 24.667969 C 21.328125 25.449219 21.597656 26.277344 21.867188 27.15625 C 22.144531 28.03125 22.410156 28.976562 22.667969 30 L 21.425781 30 M 20.394531 25.699219 C 20.332031 25.902344 20.273438 26.09375 20.214844 26.277344 C 20.164062 26.457031 20.117188 26.632812 20.066406 26.8125 C 20.023438 26.984375 19.976562 27.160156 19.933594 27.335938 C 19.898438 27.515625 19.859375 27.699219 19.820312 27.890625 L 20.957031 27.890625 C 20.921875 27.699219 20.882812 27.515625 20.84375 27.335938 C 20.808594 27.160156 20.765625 26.984375 20.714844 26.8125 C 20.667969 26.632812 20.621094 26.457031 20.5625 26.277344 C 20.511719 26.09375 20.457031 25.902344 20.394531 25.699219 "/>
</g>
</svg>
