<svg width="32" xmlns="http://www.w3.org/2000/svg" height="32" viewBox="0 0 32 32" xmlns:xlink="http://www.w3.org/1999/xlink">
<path style="fill:#c19553" d="M 5.371094 4 C 4.6875 4 4 4.6875 4 5.371094 L 4 26.667969 C 4 27.3125 4.6875 28 5.332031 28 L 26.667969 28 C 27.3125 28 28 27.3125 28 26.667969 L 28 5.332031 C 28 4.6875 27.3125 4 26.667969 4 Z "/>
<g style="fill:#fff">
<path style="fill-opacity:.196" d="M 5.371094 4 C 4.6875 4 4 4.6875 4 5.371094 L 4 12 C 6.667969 12 25.332031 12 28 12 L 28 5.332031 C 28 4.6875 27.3125 4 26.667969 4 Z "/>
<path style="fill-opacity:.392" d="M 14 6.667969 L 14 17.332031 L 18 17.332031 L 18 6.667969 Z "/>
</g>
<g style="fill:#fff">
<path d="M 10.832031 20 C 11.164062 20 11.464844 20.035156 11.730469 20.101562 C 12 20.171875 12.230469 20.273438 12.425781 20.417969 C 12.617188 20.558594 12.765625 20.742188 12.867188 20.960938 C 12.972656 21.179688 13.023438 21.433594 13.023438 21.730469 C 13.023438 22.035156 12.957031 22.3125 12.820312 22.5625 C 12.679688 22.8125 12.453125 23.003906 12.136719 23.136719 C 12.242188 23.28125 12.355469 23.449219 12.472656 23.628906 C 12.589844 23.804688 12.707031 23.992188 12.820312 24.191406 C 12.929688 24.382812 13.039062 24.582031 13.136719 24.78125 C 13.242188 24.972656 13.335938 25.15625 13.410156 25.332031 L 12.199219 25.332031 C 12.058594 24.992188 11.886719 24.664062 11.695312 24.351562 C 11.507812 24.035156 11.304688 23.714844 11.085938 23.390625 L 10.484375 23.390625 L 10.484375 25.332031 L 9.332031 25.332031 L 9.332031 20.136719 C 9.445312 20.113281 9.566406 20.09375 9.699219 20.078125 C 9.835938 20.054688 9.972656 20.039062 10.109375 20.035156 C 10.25 20.023438 10.378906 20.015625 10.503906 20.007812 C 10.628906 20.003906 10.738281 20 10.832031 20 M 11.855469 21.722656 C 11.855469 21.441406 11.761719 21.238281 11.574219 21.109375 C 11.386719 20.976562 11.136719 20.910156 10.832031 20.910156 C 10.789062 20.910156 10.734375 20.914062 10.671875 20.921875 C 10.609375 20.921875 10.546875 20.925781 10.484375 20.9375 L 10.484375 22.523438 L 10.738281 22.523438 C 11.132812 22.523438 11.417969 22.453125 11.589844 22.316406 C 11.765625 22.175781 11.855469 21.976562 11.855469 21.722656 "/>
<path d="M 15.609375 20 C 16.347656 20 16.917969 20.140625 17.324219 20.417969 C 17.730469 20.691406 17.933594 21.140625 17.933594 21.761719 C 17.933594 22.394531 17.730469 22.851562 17.316406 23.136719 C 16.910156 23.414062 16.332031 23.550781 15.582031 23.550781 L 15.171875 23.550781 L 15.171875 25.332031 L 14.019531 25.332031 L 14.019531 20.128906 C 14.128906 20.105469 14.253906 20.085938 14.394531 20.066406 C 14.535156 20.050781 14.679688 20.039062 14.824219 20.035156 C 14.96875 20.023438 15.109375 20.015625 15.246094 20.007812 C 15.382812 20.003906 15.503906 20 15.609375 20 M 15.742188 20.910156 C 15.671875 20.910156 15.578125 20.914062 15.453125 20.921875 C 15.332031 20.921875 15.238281 20.925781 15.171875 20.9375 L 15.171875 22.640625 L 15.640625 22.640625 C 16.007812 22.640625 16.285156 22.574219 16.472656 22.445312 C 16.660156 22.308594 16.753906 22.078125 16.753906 21.753906 C 16.753906 21.449219 16.660156 21.234375 16.472656 21.109375 C 16.292969 20.976562 16.046875 20.910156 15.742188 20.910156 "/>
<path d="M 19.707031 20.058594 C 19.75 20.179688 19.800781 20.332031 19.863281 20.519531 C 19.933594 20.707031 20.003906 20.910156 20.082031 21.125 C 20.15625 21.339844 20.230469 21.558594 20.304688 21.78125 C 20.378906 22.003906 20.453125 22.207031 20.519531 22.394531 C 20.597656 22.183594 20.675781 21.96875 20.753906 21.746094 C 20.835938 21.519531 20.914062 21.304688 20.988281 21.097656 C 21.0625 20.890625 21.132812 20.691406 21.195312 20.511719 C 21.257812 20.328125 21.3125 20.179688 21.363281 20.058594 L 22.320312 20.058594 C 22.363281 20.519531 22.40625 20.96875 22.441406 21.40625 C 22.484375 21.84375 22.519531 22.277344 22.542969 22.710938 C 22.574219 23.136719 22.601562 23.566406 22.621094 24.003906 C 22.636719 24.4375 22.652344 24.878906 22.667969 25.332031 L 21.609375 25.332031 L 21.664062 21.234375 L 20.953125 23.46875 L 20.109375 23.46875 L 19.425781 21.234375 L 19.472656 25.332031 L 18.414062 25.332031 C 18.429688 24.902344 18.449219 24.453125 18.46875 23.988281 C 18.492188 23.519531 18.519531 23.058594 18.542969 22.597656 C 18.570312 22.136719 18.597656 21.691406 18.628906 21.261719 C 18.664062 20.828125 18.707031 20.429688 18.75 20.058594 L 19.707031 20.058594 "/>
</g>
</svg>
