<svg width="32" xmlns="http://www.w3.org/2000/svg" height="32" viewBox="0 0 32 32" xmlns:xlink="http://www.w3.org/1999/xlink">
<path style="fill:#7ac334" d="M 5.332031 0.667969 C 4.648438 0.667969 4 1.3125 4 2 L 4 30 C 4 30.648438 4.6875 31.332031 5.332031 31.332031 L 26.667969 31.332031 C 27.3125 31.332031 28 30.648438 28 30 L 28 9.332031 L 19.332031 0.667969 Z "/>
<path style="fill:#000;fill-opacity:.196" d="M 19.332031 8 L 19.375 8.042969 L 19.480469 8 Z M 20.667969 9.332031 L 28 16.667969 L 28 9.332031 Z "/>
<path style="fill:#fff;fill-opacity:.392" d="M 19.332031 0.667969 L 28 9.332031 L 20.667969 9.332031 C 20.019531 9.332031 19.332031 8.648438 19.332031 8 Z "/>
<path style="fill:#fff;fill-rule:evenodd" d="M 22.667969 12.667969 L 8 24 C 9.332031 24 9.398438 23.957031 10.667969 24 L 10.667969 22.667969 L 11.332031 22.667969 L 11.332031 24 L 12.667969 24 L 12.667969 22.667969 L 13.332031 22.667969 L 13.332031 24 L 14.667969 24 L 14.667969 22.667969 L 15.332031 22.667969 L 15.332031 24 L 16.667969 24 L 16.667969 22.667969 L 17.332031 22.667969 L 17.332031 24 L 18.667969 24 L 18.667969 22.667969 L 19.332031 22.667969 L 19.332031 24 L 20.667969 24 L 20.667969 22.667969 L 21.332031 22.667969 L 21.332031 24 L 22.667969 24 Z M 21.332031 15.332031 L 21.332031 21.332031 L 14 21.332031 Z "/>
</svg>
