<?xml version="1.0" encoding="UTF-8" standalone="no"?>
<svg
   xmlns:dc="http://purl.org/dc/elements/1.1/"
   xmlns:cc="http://creativecommons.org/ns#"
   xmlns:rdf="http://www.w3.org/1999/02/22-rdf-syntax-ns#"
   xmlns:svg="http://www.w3.org/2000/svg"
   xmlns="http://www.w3.org/2000/svg"
   xmlns:sodipodi="http://sodipodi.sourceforge.net/DTD/sodipodi-0.dtd"
   xmlns:inkscape="http://www.inkscape.org/namespaces/inkscape"
   width="32"
   height="32"
   viewBox="0 0 32 32"
   id="svg3033"
   version="1.1"
   inkscape:version="0.48.5 r10040"
   sodipodi:docname="application-x-tar.svg">
  <metadata
     id="metadata3057">
    <rdf:RDF>
      <cc:Work
         rdf:about="">
        <dc:format>image/svg+xml</dc:format>
        <dc:type
           rdf:resource="http://purl.org/dc/dcmitype/StillImage" />
      </cc:Work>
    </rdf:RDF>
  </metadata>
  <defs
     id="defs3055" />
  <sodipodi:namedview
     pagecolor="#ffffff"
     bordercolor="#666666"
     borderopacity="1"
     objecttolerance="10"
     gridtolerance="10"
     guidetolerance="10"
     inkscape:pageopacity="0"
     inkscape:pageshadow="2"
     inkscape:window-width="1280"
     inkscape:window-height="970"
     id="namedview3053"
     showgrid="true"
     inkscape:zoom="7.375"
     inkscape:cx="11.139005"
     inkscape:cy="34.079839"
     inkscape:window-x="0"
     inkscape:window-y="0"
     inkscape:window-maximized="1"
     inkscape:current-layer="svg3033">
    <inkscape:grid
       type="xygrid"
       id="grid3170" />
  </sodipodi:namedview>
  <path
     style="fill:#c19553;fill-opacity:1"
     d="M 5.335888,2.976e-4 C 4.648414,3.125e-4 4,0.6767884 4,1.3940317 L 4,30.606268 C 4,31.282757 4.687474,32 5.335888,32 l 21.327332,0 c 0.648414,0 1.335888,-0.717243 1.335888,-1.393732 L 28,9.0000002 l -9,-9 z"
     id="path4-1"
     inkscape:connector-curvature="0"
     sodipodi:nodetypes="ssssssccs" />
  <path
     style="fill:#000000;fill-opacity:0.19599998"
     d="m 4,24 0,6.667969 C 4,31.316407 4.6875,32 5.332031,32 l 21.335938,0 C 27.3125,32 28,31.316407 28,30.667969 L 28,24 z"
     id="path10"
     inkscape:connector-curvature="0" />
  <path
     style="fill:#000000;fill-opacity:0.19599998"
     d="M 21,9.0000002 28,16 28,9.0000002 z"
     id="path6-4"
     inkscape:connector-curvature="0"
     sodipodi:nodetypes="cccc" />
  <path
     style="fill:#ffffff;fill-opacity:0.39200003"
     d="m 19.000306,2.976e-4 8.991594,8.9997026 -7.613262,0 c -0.672951,0 -1.378332,-0.7134896 -1.378332,-1.3864402 z"
     id="path8-6"
     inkscape:connector-curvature="0"
     sodipodi:nodetypes="ccssc" />
  <rect
     style="fill:#f9f9f9;fill-opacity:1;fill-rule:evenodd;stroke:none"
     id="rect3008"
     width="3"
     height="3"
     x="9.000001"
     y="5.928955e-07" />
  <rect
     style="fill:#f9f9f9;fill-opacity:1;fill-rule:evenodd;stroke:none"
     id="rect3010"
     width="3"
     height="3"
     x="12.000001"
     y="3.0000005" />
  <rect
     style="fill:#f9f9f9;fill-opacity:1;fill-rule:evenodd;stroke:none"
     id="rect3012"
     width="3"
     height="3"
     x="9.000001"
     y="6" />
  <rect
     style="fill:#f9f9f9;fill-opacity:1;fill-rule:evenodd;stroke:none"
     id="rect3014"
     width="3"
     height="3"
     x="12.000001"
     y="9" />
  <rect
     style="fill:#f9f9f9;fill-opacity:1;fill-rule:evenodd;stroke:none"
     id="rect3016"
     width="3"
     height="3"
     x="9.000001"
     y="12" />
  <rect
     style="fill:#f9f9f9;fill-opacity:1;fill-rule:evenodd;stroke:none"
     id="rect3020"
     width="6"
     height="6"
     x="9.000001"
     y="16" />
  <path
     style="fill:#ffffff"
     inkscape:connector-curvature="0"
     id="path3047"
     d="m 13.309281,25.463204 0,0.910496 -1.562607,0 0,4.6263 -1.185285,0 0,-4.6263 -1.558505,0 0,-0.910496 4.306397,0" />
  <path
     style="fill:#ffffff"
     inkscape:connector-curvature="0"
     id="path3049"
     d="m 16.979972,31 -0.278892,-1.279615 -1.57491,0 L 14.855482,31 13.633287,31 c 0.278889,-1.090953 0.561881,-2.083476 0.848974,-2.977566 0.287094,-0.902292 0.565984,-1.755368 0.83257,-2.55923 l 1.283716,0 c 0.278891,0.812064 0.557781,1.673342 0.82847,2.583838 0.282991,0.906394 0.553678,1.890713 0.816164,2.952958 l -1.263209,0 m -1.054043,-4.462247 c -0.06152,0.209168 -0.123039,0.406032 -0.180458,0.598793 -0.04921,0.184561 -0.102537,0.369121 -0.151749,0.55368 -0.04512,0.180459 -0.09023,0.360917 -0.135344,0.545478 -0.03692,0.18456 -0.07793,0.377321 -0.114837,0.574185 l 1.156574,0 c -0.03692,-0.196864 -0.07382,-0.389625 -0.114837,-0.574185 -0.03692,-0.184561 -0.08203,-0.365019 -0.131242,-0.545478 -0.04512,-0.184559 -0.09843,-0.369119 -0.15585,-0.55368 -0.04921,-0.192761 -0.106635,-0.389625 -0.172257,-0.598793" />
  <path
     style="fill:#ffffff"
     inkscape:connector-curvature="0"
     id="path3051"
     d="m 20.375872,25.401685 c 0.33631,0 0.639809,0.03281 0.914597,0.106634 0.274789,0.06973 0.512667,0.180458 0.709531,0.332208 0.196864,0.147647 0.348613,0.336309 0.447045,0.570084 0.110736,0.225574 0.164053,0.496261 0.164053,0.803861 0,0.324005 -0.06973,0.6152 -0.209168,0.877685 -0.139445,0.262485 -0.373221,0.46345 -0.697226,0.598794 0.106634,0.155851 0.221472,0.328106 0.344511,0.520869 0.118939,0.18456 0.237878,0.381423 0.352715,0.590592 0.114837,0.200965 0.221472,0.406032 0.324005,0.615199 C 22.832569,30.622678 22.9269,30.81544 23.004826,31 l -1.2345,0 c -0.147649,-0.356816 -0.319905,-0.701328 -0.516769,-1.029434 -0.192762,-0.332208 -0.397828,-0.668517 -0.623402,-1.008927 l -0.611098,0 0,2.038361 -1.177082,0 0,-5.454769 c 0.114838,-0.02461 0.241979,-0.04512 0.373222,-0.06562 0.143545,-0.02461 0.282991,-0.03692 0.422437,-0.04512 0.139445,-0.01231 0.274788,-0.0205 0.40193,-0.02461 0.127141,-0.0082 0.237876,-0.0082 0.336308,-0.0082 m 1.041739,1.804585 c 0,-0.291194 -0.09843,-0.504464 -0.287094,-0.643908 -0.192762,-0.135345 -0.442943,-0.205067 -0.754645,-0.205067 -0.04512,0 -0.102537,0.0041 -0.164053,0.0082 -0.06562,0 -0.12714,0.0082 -0.192762,0.02051 l 0,1.661038 0.258383,0 c 0.401931,0 0.693126,-0.06973 0.869483,-0.213269 0.180458,-0.147648 0.270688,-0.356816 0.270688,-0.627503" />
</svg>
