<?xml version="1.0" encoding="UTF-8" standalone="no"?>
<svg
   xmlns:dc="http://purl.org/dc/elements/1.1/"
   xmlns:cc="http://creativecommons.org/ns#"
   xmlns:rdf="http://www.w3.org/1999/02/22-rdf-syntax-ns#"
   xmlns:svg="http://www.w3.org/2000/svg"
   xmlns="http://www.w3.org/2000/svg"
   xmlns:sodipodi="http://sodipodi.sourceforge.net/DTD/sodipodi-0.dtd"
   xmlns:inkscape="http://www.inkscape.org/namespaces/inkscape"
   width="32"
   height="32"
   viewBox="0 0 32 32"
   id="svg3003"
   version="1.1"
   inkscape:version="0.48.5 r10040"
   sodipodi:docname="application-image-gif.svg">
  <metadata
     id="metadata3027">
    <rdf:RDF>
      <cc:Work
         rdf:about="">
        <dc:format>image/svg+xml</dc:format>
        <dc:type
           rdf:resource="http://purl.org/dc/dcmitype/StillImage" />
      </cc:Work>
    </rdf:RDF>
  </metadata>
  <defs
     id="defs3025" />
  <sodipodi:namedview
     pagecolor="#ffffff"
     bordercolor="#666666"
     borderopacity="1"
     objecttolerance="10"
     gridtolerance="10"
     guidetolerance="10"
     inkscape:pageopacity="0"
     inkscape:pageshadow="2"
     inkscape:window-width="1280"
     inkscape:window-height="970"
     id="namedview3023"
     showgrid="true"
     inkscape:zoom="16"
     inkscape:cx="16.115558"
     inkscape:cy="17.18611"
     inkscape:window-x="0"
     inkscape:window-y="0"
     inkscape:window-maximized="1"
     inkscape:current-layer="svg3003">
    <inkscape:grid
       type="xygrid"
       id="grid3236" />
  </sodipodi:namedview>
  <path
     style="fill:#38a34e;fill-opacity:1"
     d="M 5.335888,2.9699e-4 C 4.648414,3.1199e-4 4,0.67678799 4,1.394031 L 4,30.606268 C 4,31.282757 4.687474,32 5.335888,32 l 21.327331,0 c 0.648414,0 1.335888,-0.717243 1.335888,-1.393732 L 28,8.9999999 19,-1.0000001e-8 z"
     id="path4-1"
     inkscape:connector-curvature="0"
     sodipodi:nodetypes="ssssssccs" />
  <path
     style="fill:#000000;fill-opacity:0.19599998"
     d="m 20.999999,8.9999999 7,7.0000001 0,-7.0000001 z"
     id="path6-4"
     inkscape:connector-curvature="0"
     sodipodi:nodetypes="cccc" />
  <path
     style="fill:#ffffff;fill-opacity:0.39200003"
     d="m 19.000305,2.9699e-4 8.991594,8.99970291 -7.613262,0 c -0.672951,0 -1.378332,-0.7134896 -1.378332,-1.3864402 z"
     id="path8-6"
     inkscape:connector-curvature="0"
     sodipodi:nodetypes="ccssc" />
  <path
     style="fill:#ffffff"
     d="m 11.644779,10.999946 c -0.351641,0.03296 -0.652001,0.406447 -0.644676,0.801908 l 0,8.414521 c 0.0037,0.41377 0.333328,0.787261 0.703283,0.783598 l 8.611547,0 c 0.362631,-0.0072 0.681306,-0.373491 0.684968,-0.783598 l 0,-8.414521 c 0.0073,-0.417431 -0.315011,-0.798245 -0.684968,-0.801908 z M 12,12 l 8,0 0,5.700547 -2.351679,-2.658114 -0.589731,0.567559 -0.901082,0.820215 L 15.60807,15.880955 14.19418,13.969563 12,16.799413 z"
     id="path10"
     inkscape:connector-curvature="0"
     sodipodi:nodetypes="ccccccccccccccccccc" />
  <path
     style="fill:#000000;fill-opacity:0.19599998"
     d="m 4,24 0,6.667969 C 4,31.316407 4.6875,32 5.332031,32 l 21.335938,0 C 27.3125,32 28,31.316407 28,30.667969 L 28,24 z"
     id="path3011"
     inkscape:connector-curvature="0" />
  <path
     style="fill:#ffffff"
     inkscape:connector-curvature="0"
     id="path3017"
     d="m 11.846277,26.453935 c -0.290503,0 -0.531908,0.04501 -0.732398,0.135023 -0.196397,0.09411 -0.360062,0.225038 -0.490993,0.388703 -0.126838,0.163664 -0.216855,0.360061 -0.278228,0.589191 -0.05318,0.225038 -0.07775,0.474627 -0.07775,0.752856 0,0.638291 0.114565,1.112918 0.343695,1.419788 0.233222,0.298687 0.568732,0.450077 1.01881,0.450077 0.06957,0 0.151389,-0.0041 0.237313,-0.01228 0.08593,-0.0041 0.163664,-0.01228 0.237313,-0.02455 l 0,-1.955789 1.211117,0 0,2.675911 c -0.143207,0.04501 -0.372338,0.0982 -0.679207,0.155483 -0.30278,0.05728 -0.671025,0.08593 -1.104734,0.08593 -0.384612,0 -0.728306,-0.05728 -1.03927,-0.17594 -0.302773,-0.11865 -0.5605445,-0.29459 -0.7773996,-0.52372 C 9.4976946,30.177298 9.3299388,29.886794 9.2112815,29.539006 9.0926251,29.187129 9.0312508,28.782059 9.0312508,28.319708 c 0,-0.454168 0.069558,-0.855145 0.2086723,-1.202933 0.1391141,-0.351878 0.3273286,-0.646474 0.5605499,-0.879695 0.237314,-0.237314 0.519635,-0.413252 0.842872,-0.527818 0.319144,-0.122748 0.666931,-0.184123 1.035177,-0.184123 0.237313,0 0.445984,0.02046 0.630107,0.05319 0.192305,0.02864 0.355969,0.06546 0.495084,0.102295 0.139115,0.04091 0.249589,0.08593 0.335512,0.130931 0.09002,0.04501 0.159573,0.08184 0.204581,0.106381 l -0.315053,0.846963 c -0.143207,-0.08184 -0.319146,-0.155481 -0.53191,-0.216855 -0.208672,-0.06546 -0.425527,-0.09411 -0.650566,-0.09411" />
  <path
     style="fill:#ffffff"
     inkscape:connector-curvature="0"
     id="path3019"
     d="m 14.235776,30.999712 0,-0.879696 1.329772,0 0,-3.58834 -1.329772,0 0,-0.883788 3.878844,0 0,0.883788 -1.325681,0 0,3.58834 1.325681,0 0,0.879696 -3.878844,0" />
  <path
     style="fill:#ffffff"
     inkscape:connector-curvature="0"
     id="path3021"
     d="m 19.256179,30.999712 0,-5.351824 3.743821,0 0,0.883788 -2.528614,0 0,1.297039 2.209468,0 0,0.879696 -2.209468,0 0,2.291301 -1.215207,0" />
</svg>
