<?xml version="1.0" encoding="UTF-8" standalone="no"?>
<svg
   xmlns:dc="http://purl.org/dc/elements/1.1/"
   xmlns:cc="http://creativecommons.org/ns#"
   xmlns:rdf="http://www.w3.org/1999/02/22-rdf-syntax-ns#"
   xmlns:svg="http://www.w3.org/2000/svg"
   xmlns="http://www.w3.org/2000/svg"
   xmlns:sodipodi="http://sodipodi.sourceforge.net/DTD/sodipodi-0.dtd"
   xmlns:inkscape="http://www.inkscape.org/namespaces/inkscape"
   width="32"
   height="32"
   viewBox="0 0 32 32"
   id="svg2"
   version="1.1"
   inkscape:version="0.48.5 r10040"
   sodipodi:docname="image-x-compressed-xcf.svg">
  <metadata
     id="metadata20">
    <rdf:RDF>
      <cc:Work
         rdf:about="">
        <dc:format>image/svg+xml</dc:format>
        <dc:type
           rdf:resource="http://purl.org/dc/dcmitype/StillImage" />
      </cc:Work>
    </rdf:RDF>
  </metadata>
  <defs
     id="defs18" />
  <sodipodi:namedview
     pagecolor="#ffffff"
     bordercolor="#666666"
     borderopacity="1"
     objecttolerance="10"
     gridtolerance="10"
     guidetolerance="10"
     inkscape:pageopacity="0"
     inkscape:pageshadow="2"
     inkscape:window-width="1280"
     inkscape:window-height="970"
     id="namedview16"
     showgrid="true"
     inkscape:zoom="7.375"
     inkscape:cx="-2.5481017"
     inkscape:cy="-0.64964465"
     inkscape:window-x="0"
     inkscape:window-y="0"
     inkscape:window-maximized="1"
     inkscape:current-layer="svg2">
    <inkscape:grid
       type="xygrid"
       id="grid3022" />
  </sodipodi:namedview>
  <path
     style="fill:#9a773c;fill-opacity:1"
     d="M 5.3358879,2.978e-4 C 4.648414,3.127e-4 4,0.6767886 4,1.3940319 L 4,30.606268 C 4,31.282757 4.687474,32 5.3358879,32 L 26.66322,32 c 0.648414,0 1.335888,-0.717243 1.335888,-1.393732 L 28,9.0000004 l -9,-9 z"
     id="path4-1"
     inkscape:connector-curvature="0"
     sodipodi:nodetypes="ssssssccs" />
  <path
     style="fill:#000000;fill-opacity:0.19599998"
     d="M 21,9.0000004 28,16 28,9.0000004 z"
     id="path6-4"
     inkscape:connector-curvature="0"
     sodipodi:nodetypes="cccc" />
  <path
     style="fill:#ffffff;fill-opacity:0.39200003"
     d="m 19.000306,2.978e-4 8.991594,8.9997026 -7.613262,0 c -0.672951,0 -1.378332,-0.7134896 -1.378332,-1.3864402 z"
     id="path8-6"
     inkscape:connector-curvature="0"
     sodipodi:nodetypes="ccssc" />
  <rect
     style="fill:#f9f9f9;fill-opacity:1;fill-rule:evenodd;stroke:none"
     id="rect3008"
     width="3"
     height="3"
     x="9"
     y="6.5002439e-07" />
  <rect
     style="fill:#f9f9f9;fill-opacity:1;fill-rule:evenodd;stroke:none"
     id="rect3010"
     width="3"
     height="3"
     x="12"
     y="3.0000007" />
  <rect
     style="fill:#f9f9f9;fill-opacity:1;fill-rule:evenodd;stroke:none"
     id="rect3012"
     width="3"
     height="3"
     x="9"
     y="6.0000005" />
  <rect
     style="fill:#f9f9f9;fill-opacity:1;fill-rule:evenodd;stroke:none"
     id="rect3020"
     width="6"
     height="6"
     x="9"
     y="10" />
  <path
     style="fill:#ffffff"
     inkscape:connector-curvature="0"
     id="path12"
     d="m 21.027344,17.34375 c -0.05078,0.02344 -0.09766,0.105469 -0.140625,0.238281 -0.113281,0.351563 -0.925781,2.78125 -5.53125,2.898438 -2.195313,0.05469 -3.128907,-1.90625 -3.128907,-1.90625 l -0.05469,2.523437 c 0,0 0.234375,0.558594 -0.234375,1.144532 -0.02734,-0.03906 -0.04297,-0.08594 -0.07031,-0.125 -0.167969,-0.238282 -0.367188,-0.4375 -0.578126,-0.585938 -0.242187,-0.171875 -0.496093,-0.285156 -0.746093,-0.324219 -0.285157,-0.04297 -0.566407,0.01953 -0.785157,0.183594 -0.222656,0.160156 -0.351562,0.410156 -0.402343,0.699219 -0.042969,0.253906 -0.027344,0.523437 0.058593,0.8125 0.070313,0.25 0.1875,0.503906 0.355469,0.742187 0.179688,0.25 0.402344,0.476563 0.636719,0.628907 0.261719,0.175781 0.539062,0.28125 0.8125,0.296874 0.08594,0.0039 0.171875,-0.01562 0.25,-0.03125 1.765625,1.425782 5.273438,2.75 7.597656,1.234376 0.05078,0.01562 0.101563,0.03906 0.152344,0.05469 0,0.02734 -0.0078,0.05078 0,0.07031 l 0.109375,-0.04297 c 0.01953,0.0078 0.03516,0.02344 0.05469,0.03125 0.0039,0 0.01172,-0.0039 0.01563,0 l 0.03906,0.03906 1.050781,0.378907 c -0.04297,0.371093 0.136719,0.789062 0.59375,0.96875 C 21.902344,27.589844 22.667969,28 22.667969,28 c -0.394531,-1.351562 -0.535157,-2.433594 -1.558594,-2.339844 -0.191406,0.01953 -0.335937,0.09766 -0.441406,0.210938 l -0.925781,-0.601563 -0.03906,0 -0.01563,-0.01563 c 1.246094,-1.242187 1.972656,-3.578125 1.53125,-7.644531 -0.02734,-0.203125 -0.109375,-0.308594 -0.191406,-0.265625 z" />
</svg>
