<?xml version="1.0" encoding="UTF-8" standalone="no"?>
<svg
   xmlns:dc="http://purl.org/dc/elements/1.1/"
   xmlns:cc="http://creativecommons.org/ns#"
   xmlns:rdf="http://www.w3.org/1999/02/22-rdf-syntax-ns#"
   xmlns:svg="http://www.w3.org/2000/svg"
   xmlns="http://www.w3.org/2000/svg"
   xmlns:sodipodi="http://sodipodi.sourceforge.net/DTD/sodipodi-0.dtd"
   xmlns:inkscape="http://www.inkscape.org/namespaces/inkscape"
   width="32"
   height="32"
   viewBox="0 0 32 32"
   id="svg2"
   version="1.1"
   inkscape:version="0.91 r13725"
   sodipodi:docname="text-x-pascal.svg">
  <metadata
     id="metadata30">
    <rdf:RDF>
      <cc:Work
         rdf:about="">
        <dc:format>image/svg+xml</dc:format>
        <dc:type
           rdf:resource="http://purl.org/dc/dcmitype/StillImage" />
        <dc:title></dc:title>
      </cc:Work>
    </rdf:RDF>
  </metadata>
  <defs
     id="defs28" />
  <sodipodi:namedview
     pagecolor="#ffffff"
     bordercolor="#666666"
     borderopacity="1"
     objecttolerance="10"
     gridtolerance="10"
     guidetolerance="10"
     inkscape:pageopacity="0"
     inkscape:pageshadow="2"
     inkscape:window-width="1366"
     inkscape:window-height="718"
     id="namedview26"
     showgrid="false"
     inkscape:zoom="1"
     inkscape:cx="13.999999"
     inkscape:cy="11.999967"
     inkscape:window-x="0"
     inkscape:window-y="25"
     inkscape:window-maximized="1"
     inkscape:current-layer="svg2">
    <inkscape:grid
       type="xygrid"
       id="grid3060" />
  </sodipodi:namedview>
  <path
     style="fill:#f7ce6b;fill-opacity:1"
     d="M 5.335888,2.97e-4 C 4.648414,3.12e-4 4,0.676788 4,1.394031 L 4,30.606268 C 4,31.282757 4.687474,32 5.335888,32 l 21.327333,0 c 0.648413,0 1.335888,-0.717243 1.335888,-1.393732 L 28.000001,8.9999996 19.000001,0 z"
     id="path4-1"
     inkscape:connector-curvature="0"
     sodipodi:nodetypes="ssssssccs" />
  <path
     style="fill:#000000;fill-opacity:0.19599998"
     d="M 21,8.9999996 28,16 28,8.9999996 z"
     id="path6-4"
     inkscape:connector-curvature="0"
     sodipodi:nodetypes="cccc" />
  <path
     style="fill:#ffffff;fill-opacity:0.39200003"
     d="m 19.000306,2.97e-4 8.991594,8.9997026 -7.613262,0 c -0.67295,0 -1.378332,-0.7134896 -1.378332,-1.3864402 z"
     id="path8-6"
     inkscape:connector-curvature="0"
     sodipodi:nodetypes="ccssc" />
  <path
     style="fill:#555555;fill-opacity:1;fill-rule:nonzero;stroke:none"
     d="m 13.541022,23.618627 c -0.710891,-0.366105 -1.267676,-1.341622 -0.895085,-2.100916 0.314339,-0.640585 1.384781,-0.815761 1.440527,-1.630181 0.05276,-0.770744 0.661238,-1.400507 1.432485,-1.406477 0.80828,-0.0063 1.774282,-0.10308 2.37234,0.532464 0.459229,0.488004 0.329133,1.598249 1.042548,1.852604 0.614187,0.218977 1.156047,0.833894 1.007302,1.580957 -0.157182,0.789421 -0.814699,1.228864 -1.555846,1.339395 -1.611757,0.240372 -3.286868,0.383995 -4.841252,-0.165332 m -2.680968,-3.903032 c -0.802154,-0.559634 -0.8931732,-1.653344 -0.856318,-2.575985 0.01368,-0.341656 0.01734,-1.510482 0.269032,-1.184887 0.255391,0.330384 0.188306,0.596235 0.703868,0.499374 0.781625,-0.146835 1.076792,1.006674 1.68231,1.459266 0.543867,0.406512 0.525872,1.455133 -0.141921,1.801437 -0.51532,0.267237 -1.155534,0.303869 -1.653229,-0.0034 m 8.716438,-0.04706 c -0.723017,-0.294876 -0.71834,-1.36698 -0.0967,-1.828539 0.578689,-0.429672 0.798151,-1.443207 1.727413,-1.348139 0.277281,0.02838 0.226002,-1.341244 0.453609,-0.655941 0.235266,0.708363 0.271438,1.478678 0.327459,2.220555 0.0611,0.809067 -0.445743,1.733528 -1.29998,1.848517 -0.384016,0.05169 -0.793422,-0.0075 -1.113128,-0.239591 m -5.951533,-3.17609 c -0.855987,-0.421879 -1.029594,-1.700496 -0.485025,-2.43769 0.450068,-0.609263 0.302781,-1.741686 0.932274,-2.033286 0.364929,-0.169048 -0.266055,1.008517 0.43479,1.070902 0.992541,0.08833 0.453181,1.228476 0.786755,1.847223 0.376699,0.698747 0.237043,1.653515 -0.637016,1.747326 -0.350367,0.0376 -0.731533,0.009 -1.031901,-0.193975 m 2.956405,-0.07646 c -0.534196,-0.385455 -0.306523,-1.11692 -0.167121,-1.648412 0.143799,-0.548272 -0.315583,-1.752372 0.461831,-1.708333 0.91597,0.05189 0.117708,-1.167139 0.464463,-1.043238 0.667104,0.238372 0.666783,1.397053 1.170263,2.006352 0.502276,0.607837 0.573175,1.709502 -0.08065,2.290674 -0.516674,0.459259 -1.2847,0.427996 -1.851322,0.102795"
     id="path53"
     inkscape:connector-curvature="0"
     sodipodi:nodetypes="csssssssccsssssccsssssccsssssccsssssc" />
</svg>
