<?xml version="1.0" encoding="UTF-8" standalone="no"?>
<svg
   xmlns:dc="http://purl.org/dc/elements/1.1/"
   xmlns:cc="http://creativecommons.org/ns#"
   xmlns:rdf="http://www.w3.org/1999/02/22-rdf-syntax-ns#"
   xmlns:svg="http://www.w3.org/2000/svg"
   xmlns="http://www.w3.org/2000/svg"
   xmlns:sodipodi="http://sodipodi.sourceforge.net/DTD/sodipodi-0.dtd"
   xmlns:inkscape="http://www.inkscape.org/namespaces/inkscape"
   width="32"
   height="32"
   viewBox="0 0 32 32"
   id="svg2"
   version="1.1"
   inkscape:version="0.48.5 r10040"
   sodipodi:docname="text-x-csharp.svg">
  <metadata
     id="metadata20">
    <rdf:RDF>
      <cc:Work
         rdf:about="">
        <dc:format>image/svg+xml</dc:format>
        <dc:type
           rdf:resource="http://purl.org/dc/dcmitype/StillImage" />
      </cc:Work>
    </rdf:RDF>
  </metadata>
  <defs
     id="defs18" />
  <sodipodi:namedview
     pagecolor="#ffffff"
     bordercolor="#666666"
     borderopacity="1"
     objecttolerance="10"
     gridtolerance="10"
     guidetolerance="10"
     inkscape:pageopacity="0"
     inkscape:pageshadow="2"
     inkscape:window-width="1280"
     inkscape:window-height="970"
     id="namedview16"
     showgrid="false"
     inkscape:zoom="7.375"
     inkscape:cx="16"
     inkscape:cy="16"
     inkscape:window-x="0"
     inkscape:window-y="0"
     inkscape:window-maximized="1"
     inkscape:current-layer="svg2" />
  <path
     style="fill:#2d2d2d;fill-opacity:1"
     d="M 5.335888,2.97e-4 C 4.648414,3.12e-4 4,0.676788 4,1.3940317 L 4,30.606268 C 4,31.282757 4.687474,32 5.335888,32 l 21.327332,0 c 0.648414,0 1.335888,-0.717243 1.335888,-1.393732 L 28,9.0000002 19,0 z"
     id="path4-1"
     inkscape:connector-curvature="0"
     sodipodi:nodetypes="ssssssccs" />
  <path
     style="fill:#000000;fill-opacity:0.19599998"
     d="M 21,9.0000002 28,16 28,9.0000002 z"
     id="path6-4"
     inkscape:connector-curvature="0"
     sodipodi:nodetypes="cccc" />
  <path
     style="fill:#ffffff;fill-opacity:0.39200003"
     d="m 19.000306,2.97e-4 8.991594,8.9997032 -7.613262,0 c -0.672951,0 -1.378332,-0.7134896 -1.378332,-1.3864402 z"
     id="path8-6"
     inkscape:connector-curvature="0"
     sodipodi:nodetypes="ccssc" />
  <g
     style="fill:#dcdcdc"
     id="g10">
    <path
       d="M 7.332031 18.578125 C 7.332031 17.9375 7.433594 17.304688 7.632812 16.679688 C 7.835938 16.050781 8.125 15.488281 8.5 14.992188 C 8.882812 14.5 9.347656 14.097656 9.898438 13.792969 C 10.449219 13.488281 11.078125 13.332031 11.785156 13.332031 C 12.613281 13.332031 13.328125 13.546875 13.933594 13.96875 C 14.542969 14.394531 14.992188 14.949219 15.28125 15.628906 L 13.894531 16.710938 C 13.789062 16.414062 13.652344 16.167969 13.488281 15.96875 C 13.320312 15.761719 13.136719 15.601562 12.9375 15.480469 C 12.746094 15.363281 12.542969 15.277344 12.335938 15.230469 C 12.125 15.171875 11.925781 15.140625 11.730469 15.140625 C 11.304688 15.140625 10.929688 15.246094 10.605469 15.453125 C 10.285156 15.660156 10.011719 15.929688 9.792969 16.265625 C 9.585938 16.59375 9.421875 16.96875 9.308594 17.394531 C 9.207031 17.808594 9.152344 18.222656 9.152344 18.636719 C 9.152344 19.101562 9.214844 19.550781 9.335938 19.984375 C 9.46875 20.410156 9.644531 20.785156 9.875 21.109375 C 10.109375 21.4375 10.386719 21.699219 10.710938 21.894531 C 11.035156 22.09375 11.386719 22.191406 11.773438 22.191406 C 11.972656 22.191406 12.175781 22.164062 12.386719 22.105469 C 12.597656 22.042969 12.796875 21.949219 12.988281 21.824219 C 13.191406 21.695312 13.375 21.53125 13.539062 21.332031 C 13.703125 21.125 13.839844 20.878906 13.945312 20.59375 L 15.425781 21.554688 C 15.285156 21.949219 15.078125 22.300781 14.808594 22.609375 C 14.546875 22.902344 14.246094 23.15625 13.90625 23.363281 C 13.566406 23.570312 13.207031 23.726562 12.832031 23.835938 C 12.457031 23.945312 12.085938 24 11.71875 24 C 11.074219 24 10.480469 23.84375 9.9375 23.527344 C 9.40625 23.210938 8.945312 22.800781 8.550781 22.296875 C 8.167969 21.78125 7.867188 21.203125 7.648438 20.5625 C 7.4375 19.910156 7.332031 19.25 7.332031 18.578125 "
       id="path12" />
    <path
       d="M 24.667969 17.628906 L 22.769531 17.628906 L 22.335938 19.660156 L 24.050781 19.660156 L 24.050781 21.140625 L 22.023438 21.140625 L 21.417969 23.910156 L 20.003906 23.910156 L 20.621094 21.140625 L 19.050781 21.140625 L 18.460938 23.910156 L 17.046875 23.910156 L 17.648438 21.140625 L 16.183594 21.140625 L 16.183594 19.660156 L 17.964844 19.660156 L 18.394531 17.628906 L 16.796875 17.628906 L 16.796875 16.238281 L 18.695312 16.238281 L 19.3125 13.394531 L 20.726562 13.394531 L 20.097656 16.238281 L 21.667969 16.238281 L 22.269531 13.394531 L 23.683594 13.394531 L 23.070312 16.238281 L 24.667969 16.238281 L 24.667969 17.628906 M 20.933594 19.660156 L 21.355469 17.628906 L 19.796875 17.628906 L 19.363281 19.660156 L 20.933594 19.660156 "
       id="path14" />
  </g>
</svg>
