<?xml version="1.0" encoding="UTF-8"?>
<svg xmlns="http://www.w3.org/2000/svg" xmlns:xlink="http://www.w3.org/1999/xlink" width="16px" height="16px" viewBox="0 0 16 16" version="1.1">
<defs>
<filter id="alpha" filterUnits="objectBoundingBox" x="0%" y="0%" width="100%" height="100%">
  <feColorMatrix type="matrix" in="SourceGraphic" values="0 0 0 0 1 0 0 0 0 1 0 0 0 0 1 0 0 0 1 0"/>
</filter>
<mask id="mask0">
  <g filter="url(#alpha)">
<rect x="0" y="0" width="16" height="16" style="fill:rgb(0%,0%,0%);fill-opacity:0.301961;stroke:none;"/>
  </g>
</mask>
<clipPath id="clip1">
  <rect width="16" height="16"/>
</clipPath>
<g id="surface6" clip-path="url(#clip1)">
<path style="fill:none;stroke-width:1.411;stroke-linecap:round;stroke-linejoin:round;stroke:rgb(0%,0%,0%);stroke-opacity:1;stroke-miterlimit:4;" d="M 11.789062 19.292969 L 15.292969 15.554688 L 8.707031 8.921387 M 8.707031 14.990723 L 15.292969 8.357422 L 11.742188 4.705078 " transform="matrix(1,0,0,0.727273,-6,0)"/>
<path style="fill:none;stroke-width:1;stroke-linecap:round;stroke-linejoin:miter;stroke:rgb(0%,0%,0%);stroke-opacity:1;stroke-miterlimit:4;" d="M 11.507812 4.876953 L 11.59375 19.029785 " transform="matrix(1,0,0,0.727273,-6,0)"/>
</g>
</defs>
<g id="surface1">
<use xlink:href="#surface6" mask="url(#mask0)"/>
<path style="fill:none;stroke-width:1.411;stroke-linecap:round;stroke-linejoin:round;stroke:rgb(86.27451%,86.27451%,86.27451%);stroke-opacity:1;stroke-miterlimit:4;" d="M 5.789062 18.293945 L 9.292969 14.555664 L 2.707031 7.922363 M 2.707031 13.986328 L 9.292969 7.358398 L 5.742188 3.706055 " transform="matrix(1,0,0,0.727273,0,0)"/>
<path style="fill:none;stroke-width:1;stroke-linecap:round;stroke-linejoin:miter;stroke:rgb(86.27451%,86.27451%,86.27451%);stroke-opacity:1;stroke-miterlimit:4;" d="M 5.507812 3.872559 L 5.59375 18.030762 " transform="matrix(1,0,0,0.727273,0,0)"/>
<path style=" stroke:none;fill-rule:nonzero;fill:rgb(0%,0%,0%);fill-opacity:0.301961;" d="M 13 10.183594 C 11.890625 10.183594 11 10.84375 11 11.660156 L 11 12.363281 C 10.445312 12.363281 10 12.6875 10 13.089844 L 10 15.273438 C 10 15.675781 10.445312 16 11 16 L 15 16 C 15.554688 16 16 15.675781 16 15.273438 L 16 13.089844 C 16 12.6875 15.554688 12.363281 15 12.363281 L 15 11.660156 C 15 10.84375 14.109375 10.183594 13 10.183594 Z M 13 10.910156 C 13.554688 10.910156 14 11.230469 14 11.636719 L 14 12.363281 L 12 12.363281 L 12 11.636719 C 12 11.230469 12.445312 10.910156 13 10.910156 Z "/>
<path style=" stroke:none;fill-rule:nonzero;fill:rgb(86.27451%,86.27451%,86.27451%);fill-opacity:1;" d="M 13 9.453125 C 11.890625 9.453125 11 10.117188 11 10.933594 L 11 11.636719 C 10.445312 11.636719 10 11.960938 10 12.363281 L 10 14.546875 C 10 14.949219 10.445312 15.273438 11 15.273438 L 15 15.273438 C 15.554688 15.273438 16 14.949219 16 14.546875 L 16 12.363281 C 16 11.960938 15.554688 11.636719 15 11.636719 L 15 10.933594 C 15 10.117188 14.109375 9.453125 13 9.453125 Z M 13 10.183594 C 13.554688 10.183594 14 10.503906 14 10.910156 L 14 11.636719 L 12 11.636719 L 12 10.910156 C 12 10.503906 12.445312 10.183594 13 10.183594 Z "/>
</g>
</svg>
