<?xml version="1.0" encoding="UTF-8" standalone="no"?>
<!-- Created with Inkscape (http://www.inkscape.org/) -->

<svg
   xmlns:dc="http://purl.org/dc/elements/1.1/"
   xmlns:cc="http://creativecommons.org/ns#"
   xmlns:rdf="http://www.w3.org/1999/02/22-rdf-syntax-ns#"
   xmlns:svg="http://www.w3.org/2000/svg"
   xmlns="http://www.w3.org/2000/svg"
   xmlns:sodipodi="http://sodipodi.sourceforge.net/DTD/sodipodi-0.dtd"
   xmlns:inkscape="http://www.inkscape.org/namespaces/inkscape"
   id="svg7384"
   height="16"
   width="16"
   version="1.1"
   inkscape:version="0.91 r13725"
   sodipodi:docname="changes-prevent.svg">
  <defs
     id="defs12" />
  <sodipodi:namedview
     pagecolor="#ffffff"
     bordercolor="#666666"
     borderopacity="1"
     objecttolerance="10"
     gridtolerance="10"
     guidetolerance="10"
     inkscape:pageopacity="0"
     inkscape:pageshadow="2"
     inkscape:window-width="1366"
     inkscape:window-height="704"
     id="namedview10"
     showgrid="false"
     inkscape:zoom="1"
     inkscape:cx="7.4330792"
     inkscape:cy="8.1292103"
     inkscape:window-x="0"
     inkscape:window-y="27"
     inkscape:window-maximized="1"
     inkscape:current-layer="svg7384"
     inkscape:object-nodes="true">
    <inkscape:grid
       type="xygrid"
       id="grid3342" />
  </sodipodi:namedview>
  <metadata
     id="metadata90">
    <rdf:RDF>
      <cc:Work
         rdf:about="">
        <dc:format>image/svg+xml</dc:format>
        <dc:type
           rdf:resource="http://purl.org/dc/dcmitype/StillImage" />
        <dc:title>Gnome Symbolic Icon Theme</dc:title>
      </cc:Work>
    </rdf:RDF>
  </metadata>
  <title
     id="title9167">Gnome Symbolic Icon Theme</title>
  <g
     id="g4185"
     transform="translate(-49.474513,-32.353237)">
    <g
       id="g4161"
       style="fill:none;stroke:#ffffff">
      <g
         id="g4163"
         transform="translate(-38.38147,-1006.1003)"
         style="stroke-width:0.5" />
      <g
         id="g4169"
         transform="translate(-39.59798,-1004.3622)"
         style="stroke-width:0.40000001" />
    </g>
    <g
       id="g4175"
       transform="translate(0,-1004.3622)" />
  </g>
  <path
     style="opacity:1;fill:#ecd14c;fill-opacity:1;stroke:none;stroke-width:3;stroke-linecap:round;stroke-linejoin:round;stroke-miterlimit:4;stroke-dasharray:none;stroke-opacity:1"
     d="M 3.8007812,8.0000003 C 3.3575812,8.0000003 3,8.3575815 3,8.8007815 3,11.200521 3,13.60026 3,16 c 3.3333333,0 6.666667,0 10,0 0,-2.39974 0,-4.799479 0,-7.1992185 0,-0.4432 -0.357581,-0.8007812 -0.800781,-0.8007812 z"
     id="rect4141"
     inkscape:connector-curvature="0"
     sodipodi:nodetypes="sccccss" />
  <path
     style="opacity:1;fill:#808080;fill-opacity:1;stroke:none;stroke-width:3;stroke-linecap:round;stroke-linejoin:round;stroke-miterlimit:4;stroke-dasharray:none;stroke-opacity:1"
     d="m 8,1.0000003 a 4,4 0 0 0 -4,4 l 0,3 2,0 0,-3 a 2,2 0 0 1 2,-2 2,2 0 0 1 2,2 l 0,3 2,0 0,-3 a 4,4 0 0 0 -4,-4 z"
     id="path4144"
     inkscape:connector-curvature="0" />
</svg>
