<?xml version="1.0" encoding="UTF-8" standalone="no"?>
<svg
   xmlns:dc="http://purl.org/dc/elements/1.1/"
   xmlns:cc="http://creativecommons.org/ns#"
   xmlns:rdf="http://www.w3.org/1999/02/22-rdf-syntax-ns#"
   xmlns:svg="http://www.w3.org/2000/svg"
   xmlns="http://www.w3.org/2000/svg"
   xmlns:sodipodi="http://sodipodi.sourceforge.net/DTD/sodipodi-0.dtd"
   xmlns:inkscape="http://www.inkscape.org/namespaces/inkscape"
   version="1.2"
   width="16"
   height="16"
   id="svg2"
   inkscape:version="0.91 r"
   sodipodi:docname="clementine-95-playing.svg">
  <metadata
     id="metadata41">
    <rdf:RDF>
      <cc:Work
         rdf:about="">
        <dc:format>image/svg+xml</dc:format>
        <dc:type
           rdf:resource="http://purl.org/dc/dcmitype/StillImage" />
        <dc:title>Clementine Music Player Logo</dc:title>
      </cc:Work>
    </rdf:RDF>
  </metadata>
  <sodipodi:namedview
     pagecolor="#ffffff"
     bordercolor="#666666"
     borderopacity="1"
     objecttolerance="10"
     gridtolerance="10"
     guidetolerance="10"
     inkscape:pageopacity="0"
     inkscape:pageshadow="2"
     inkscape:window-width="1920"
     inkscape:window-height="1056"
     id="namedview39"
     showgrid="true"
     inkscape:zoom="16"
     inkscape:cx="-8.4972797"
     inkscape:cy="7.2504132"
     inkscape:window-x="0"
     inkscape:window-y="24"
     inkscape:window-maximized="1"
     inkscape:current-layer="svg2">
    <inkscape:grid
       type="xygrid"
       id="grid4135" />
  </sodipodi:namedview>
  <title
     id="title4">Clementine Music Player Logo</title>
  <defs
     id="defs6" />
  <path
     style="opacity:0.4;fill:#ececec;fill-opacity:1"
     inkscape:connector-curvature="0"
     id="path20"
     d="m 4.207967,2.8421756 c -0.02441,0.0016 -0.051148,0.00452 -0.075195,0.00834 -0.022833,0.00366 -0.044369,0.01098 -0.06684,0.016698 -0.00268,8e-4 -0.00569,-8e-4 -0.00834,0 -0.025079,0.00668 -0.050974,0.015843 -0.075195,0.025034 C 3.5024439,3.0525631 2.8029584,3.6663476 2.5704009,4.194689 2.4705373,4.4116425 2.3853083,4.6528981 2.3113966,4.9460993 2.1743693,5.4887315 2.1365861,6.213853 2.2445563,7.0667479 2.3327313,7.7867209 2.535,8.6272646 2.9296658,9.5297062 c 0.2450648,0.6526168 0.7342879,1.4557378 1.6459341,2.2542328 0.1070642,0.07932 0.2109923,0.154765 0.3174897,0.225422 0.8564043,0.568147 1.6237137,0.820095 2.2224286,0.918392 0.9816845,0.219028 1.863295,0.262709 2.6151145,0.217074 0.8936123,-0.05111 1.6375223,-0.223105 2.1722973,-0.467544 0.225096,-0.122184 0.523023,-0.304361 0.68511,-0.450847 0.477504,-0.431538 0.855021,-0.807471 1.061084,-1.135465 0.0083,-0.01149 0.01738,-0.0218 0.02505,-0.0334 0.02297,-0.03849 0.04073,-0.07133 0.05849,-0.108537 0.0087,-0.01748 0.01764,-0.03238 0.02505,-0.05009 0.01305,-0.03127 0.02444,-0.06147 0.03342,-0.09184 0.0024,-0.01814 0.0063,-0.01919 0.0083,-0.03339 0.0027,-0.01058 0.0063,-0.02292 0.0083,-0.0334 0.0037,-0.02361 0.0063,-0.06454 0.0083,-0.07514 0.004,-0.01985 -1.95e-4,-0.01662 0,-0.0167 -1.82e-4,-1.21e-4 0.0011,-0.0048 0,-0.02503 -0.0013,-0.02065 -2.19e-4,-0.05673 0,-0.133584 -0.0064,-0.05135 -0.01807,-0.107471 -0.03342,-0.158631 -0.0308,-0.101124 -0.07724,-0.200412 -0.14204,-0.300565 C 13.514677,9.8358683 13.329127,9.6438524 13.089276,9.4545848 12.644521,9.1036993 12.02097,8.764564 11.292952,8.4360057 10.673031,8.155682 9.9915437,7.8998685 9.3295297,7.6178023 8.8672205,7.3925891 8.5022876,7.2742227 8.3687015,7.1669493 8.3520979,7.1536175 8.344615,7.138533 8.3352841,7.1252041 8.214215,7.1015332 8.0212406,6.7747008 7.6835913,6.3654444 7.2938454,5.8384522 6.9218752,5.2809602 6.5473121,4.7707835 6.1096173,4.1730746 5.6866968,3.6687917 5.2857079,3.3264047 5.0692266,3.1415938 4.8603357,3.0061795 4.6590833,2.9256523 4.5555322,2.8842119 4.4569405,2.8524455 4.3583035,2.8421622 c -0.049967,-0.00532 -0.1018374,-0.00324 -0.1503899,0 z" />
  <text
     style="font-size:2.94001746px;font-family:'Bitstream Vera Sans'"
     id="text37"
     font-size="8"
     transform="scale(1.0003583,0.99964181)"
     y="10.623725"
     x="20.678432" />
  <path
     style="fill:#ececec;fill-opacity:1"
     d="M 4.9531728,3.0797359 2.5441744,4.2600883 c -0.08802,0.2009337 -0.1659761,0.420391 -0.2329456,0.6860531 -0.1370273,0.5426323 -0.174729,1.2677627 -0.066759,2.1206572 0.088175,0.7199732 0.2899669,1.5605322 0.6846328,2.4629738 0.2450646,0.6526166 0.7345973,1.4556796 1.6462435,2.2541746 0.1070643,0.07932 0.2116721,0.155186 0.3181696,0.225844 0.8564044,0.568146 1.6227907,0.819281 2.2215055,0.917578 0.9816846,0.219028 1.8631372,0.262956 2.6149563,0.217321 0.8936125,-0.05111 1.6384375,-0.222872 2.1732125,-0.467311 0.225097,-0.122184 0.522546,-0.303781 0.684633,-0.450267 0.477505,-0.431539 0.854976,-0.808326 1.061038,-1.13632 0.0083,-0.01149 0.0179,-0.02108 0.02557,-0.03267 0.02297,-0.03849 0.04048,-0.07216 0.05824,-0.10937 0.0087,-0.01748 0.01816,-0.03201 0.02557,-0.04971 0.01305,-0.03127 0.02369,-0.06196 0.03267,-0.09233 0.0024,-0.01814 0.0064,-0.01846 0.0085,-0.03267 0.0027,-0.01058 0.0064,-0.02361 0.0085,-0.03409 0.0037,-0.02361 0.0064,-0.06467 0.0085,-0.07528 0.004,-0.01985 -1.95e-4,-0.01554 0,-0.01562 -1.82e-4,-1.21e-4 0.0011,-0.0053 0,-0.02557 -0.0013,-0.02065 -2.19e-4,-0.05666 0,-0.133518 -0.0064,-0.05135 -0.01874,-0.107925 -0.03409,-0.159085 -0.03073,-0.101123 -0.07717,-0.199551 -0.14197,-0.299704 C 13.514311,9.8363752 13.329075,9.6437586 13.089224,9.454491 12.644469,9.1036056 12.020437,8.7646222 11.292418,8.4360639 10.672498,8.1557401 9.9914397,7.8999798 9.3294257,7.6179135 8.8671165,7.3927004 8.5028214,7.2749209 8.3692346,7.167647 8.352631,7.1543166 8.3444761,7.1383654 8.3351452,7.125035 8.2140761,7.1013632 8.0208304,6.7743773 7.6831811,6.365121 7.2934352,5.8381274 6.9214246,5.2816089 6.5468615,4.7714323 6.1091667,4.1737233 5.6865353,3.6692724 5.2855463,3.3268855 5.1723601,3.2302578 5.0622022,3.1485719 4.9531728,3.0797359 Z"
     id="path4144"
     inkscape:connector-curvature="0" />
</svg>
