<svg xmlns="http://www.w3.org/2000/svg" viewBox="0 0 16 16">
 <g transform="matrix(0.654543,0,0,0.654543,-7.7090319,-7.709032)" style="stroke:none">
  <path d="m 4.699 3.801 c -1.8 0 -1.799 -0.001 -1.799 1.799 l 0 12.6 c 0 1.8 -0.001 1.801 1.799 1.801 l 12.602 0 c 1.8 0 1.799 -0.001 1.799 -1.801 l 0 -12.6 c 0 -1.979 0.001 -1.799 -1.799 -1.799 l -0.9 0 0 12.6 -10.801 0 0 -12.6 -0.9 0 z" transform="matrix(1.1111111,0,0,1.1111111,11.777778,11.777778)" style="stroke-opacity:1;fill:#ececec;fill-opacity:1;fill-rule:evenodd"/>
  <path d="m 20 14 0 4 8 0 0 -4 z" style="stroke-opacity:1;fill:#ececec;fill-opacity:1;fill-rule:nonzero"/>
  <path d="m 20 20 0 2 8 0 0 -2 z" style="stroke-opacity:1;fill:#ececec;fill-opacity:1;fill-rule:nonzero"/>
  <path d="m 20 24 0 2 8 0 0 -2 z" style="stroke-opacity:1;fill:#ececec;fill-opacity:1;fill-rule:nonzero"/>
 </g>
</svg>
