<svg xmlns="http://www.w3.org/2000/svg" viewBox="0 0 16 16">
 <path d="m 1.6 0 c -0.886 0 -1.6 0.713 -1.6 1.6 l 0 12.801 c 0 0.886 0.713 1.6 1.6 1.6 l 12.801 0 c 0.886 0 1.6 -0.713 1.6 -1.6 l 0 -12.801 c 0 -0.886 -0.713 -1.6 -1.6 -1.6 l -12.801 0 z m 0.096 4.828 l 0.629 0 c 0.09 0.528 0.183 1.047 0.279 1.557 c 0.096 0.504 0.195 0.993 0.297 1.467 c 0.108 0.474 0.216 0.924 0.324 1.35 c 0.114 0.42 0.226 0.81 0.334 1.17 c 0.258 -0.666 0.534 -1.386 0.828 -2.16 c 0.294 -0.78 0.585 -1.653 0.873 -2.619 l 0.529 0 c 0.288 0.966 0.577 1.843 0.865 2.629 c 0.294 0.78 0.579 1.496 0.855 2.15 c 0.21 -0.708 0.415 -1.542 0.619 -2.502 c 0.21 -0.96 0.412 -1.973 0.604 -3.041 l 0.604 0 c -0.108 0.642 -0.22 1.245 -0.334 1.809 c -0.108 0.558 -0.222 1.092 -0.342 1.602 c -0.12 0.504 -0.245 0.991 -0.377 1.459 c -0.132 0.462 -0.276 0.917 -0.432 1.367 l -0.658 0 l -0.432 -1.025 c -0.138 -0.342 -0.276 -0.693 -0.414 -1.053 c -0.138 -0.366 -0.276 -0.749 -0.414 -1.145 c -0.138 -0.396 -0.278 -0.816 -0.422 -1.26 c -0.144 0.444 -0.29 0.864 -0.434 1.26 c -0.138 0.396 -0.276 0.779 -0.414 1.145 c -0.138 0.36 -0.278 0.711 -0.422 1.053 c -0.138 0.342 -0.28 0.683 -0.424 1.025 l -0.648 0 c -0.162 -0.45 -0.311 -0.905 -0.449 -1.367 c -0.132 -0.468 -0.257 -0.955 -0.377 -1.459 c -0.114 -0.51 -0.226 -1.044 -0.334 -1.602 c -0.102 -0.564 -0.206 -1.167 -0.314 -1.809 z m 10.486 1.475 c 0.312 0 0.597 0.062 0.855 0.182 c 0.258 0.114 0.48 0.278 0.666 0.494 c 0.192 0.21 0.337 0.466 0.439 0.766 c 0.108 0.3 0.162 0.632 0.162 0.998 c 0 0.366 -0.054 0.7 -0.162 1 c -0.102 0.3 -0.247 0.554 -0.439 0.764 c -0.186 0.21 -0.408 0.376 -0.666 0.496 c -0.258 0.114 -0.543 0.17 -0.855 0.17 c -0.312 0 -0.597 -0.056 -0.855 -0.17 c -0.258 -0.12 -0.484 -0.286 -0.676 -0.496 c -0.186 -0.21 -0.331 -0.464 -0.439 -0.764 c -0.102 -0.3 -0.154 -0.634 -0.154 -1 c 0 -0.366 0.052 -0.698 0.154 -0.998 c 0.108 -0.3 0.253 -0.556 0.439 -0.766 c 0.192 -0.216 0.418 -0.38 0.676 -0.494 c 0.258 -0.12 0.543 -0.182 0.855 -0.182 z m 0 0.531 c -0.462 0 -0.828 0.175 -1.098 0.523 c -0.27 0.342 -0.406 0.803 -0.406 1.385 c 0 0.582 0.136 1.045 0.406 1.387 c 0.27 0.342 0.636 0.512 1.098 0.512 c 0.462 0 0.828 -0.17 1.098 -0.512 c 0.27 -0.342 0.404 -0.805 0.404 -1.387 c 0 -0.582 -0.134 -1.043 -0.404 -1.385 c -0.27 -0.348 -0.636 -0.523 -1.098 -0.523 z" style="fill:#ececec;fill-opacity:1"/>
</svg>
