<?xml version="1.0" encoding="UTF-8" standalone="no"?>
<svg
   xmlns:dc="http://purl.org/dc/elements/1.1/"
   xmlns:cc="http://creativecommons.org/ns#"
   xmlns:rdf="http://www.w3.org/1999/02/22-rdf-syntax-ns#"
   xmlns:svg="http://www.w3.org/2000/svg"
   xmlns="http://www.w3.org/2000/svg"
   xmlns:sodipodi="http://sodipodi.sourceforge.net/DTD/sodipodi-0.dtd"
   xmlns:inkscape="http://www.inkscape.org/namespaces/inkscape"
   viewBox="0 0 16 16"
   id="svg2"
   version="1.1"
   inkscape:version="0.91 r13725"
   sodipodi:docname="indicator-keyboard-It-6.svg">
  <metadata
     id="metadata14">
    <rdf:RDF>
      <cc:Work
         rdf:about="">
        <dc:format>image/svg+xml</dc:format>
        <dc:type
           rdf:resource="http://purl.org/dc/dcmitype/StillImage" />
      </cc:Work>
    </rdf:RDF>
  </metadata>
  <defs
     id="defs12" />
  <sodipodi:namedview
     pagecolor="#ffffff"
     bordercolor="#666666"
     borderopacity="1"
     objecttolerance="10"
     gridtolerance="10"
     guidetolerance="10"
     inkscape:pageopacity="0"
     inkscape:pageshadow="2"
     inkscape:window-width="640"
     inkscape:window-height="480"
     id="namedview10"
     showgrid="false"
     inkscape:zoom="14.75"
     inkscape:cx="8"
     inkscape:cy="8"
     inkscape:window-x="65"
     inkscape:window-y="24"
     inkscape:window-maximized="0"
     inkscape:current-layer="svg2" />
  <path
     style="fill:#ececec;fill-opacity:1"
     d="M 1.5996094 0 C 0.71320937 2.9605947e-16 0 0.71320937 0 1.5996094 L 0 14.400391 C 2.9605947e-16 15.286791 0.71320937 16 1.5996094 16 L 14.400391 16 C 15.286791 16 16 15.286791 16 14.400391 L 16 1.5996094 C 16 0.71320937 15.286791 0 14.400391 0 L 1.5996094 0 z M 4.0742188 4.859375 L 4.6855469 4.859375 L 4.6855469 11.095703 L 4.0742188 11.095703 L 4.0742188 4.859375 z M 6.8203125 4.9667969 L 6.8203125 6.4433594 L 8.6738281 6.4433594 L 8.6738281 6.9375 L 6.8203125 6.9375 L 6.8203125 9.4121094 C 6.8203125 9.6761094 6.8408125 9.8925467 6.8828125 10.060547 C 6.9308125 10.222547 6.9960781 10.349453 7.0800781 10.439453 C 7.1640781 10.529453 7.2667188 10.589141 7.3867188 10.619141 C 7.5067187 10.649141 7.6392031 10.664063 7.7832031 10.664062 C 8.0292031 10.664062 8.2269531 10.636031 8.3769531 10.582031 C 8.5269531 10.522031 8.6445156 10.469875 8.7285156 10.421875 L 8.8710938 10.90625 C 8.7870937 10.96025 8.6416406 11.023703 8.4316406 11.095703 C 8.2216406 11.161703 7.9920938 11.195312 7.7460938 11.195312 C 7.4580937 11.195312 7.2155781 11.159891 7.0175781 11.087891 C 6.8255781 11.009891 6.6688281 10.894141 6.5488281 10.744141 C 6.4348281 10.588141 6.3546406 10.397922 6.3066406 10.169922 C 6.2586406 9.9419217 6.234375 9.671375 6.234375 9.359375 L 6.234375 5.0742188 L 6.8203125 4.9667969 z M 11.65625 8.8242188 L 11.679688 9.1464844 C 11.441788 9.1620844 11.222331 9.1993125 11.019531 9.2578125 C 10.820631 9.3124125 10.642328 9.4005844 10.486328 9.5214844 C 10.330328 9.6384843 10.19905 9.7893625 10.09375 9.9765625 C 9.9884502 10.163763 9.9179062 10.394969 9.8789062 10.667969 C 9.9842061 10.613369 10.109612 10.566344 10.257812 10.527344 C 10.406013 10.484444 10.564722 10.462891 10.732422 10.462891 C 10.950822 10.462891 11.135009 10.498159 11.287109 10.568359 C 11.439209 10.634659 11.56265 10.722838 11.65625 10.835938 C 11.74985 10.949037 11.818428 11.080316 11.861328 11.228516 C 11.904228 11.376716 11.925781 11.533466 11.925781 11.697266 C 11.925781 11.849366 11.902269 12.000244 11.855469 12.152344 C 11.808669 12.304444 11.734212 12.443559 11.632812 12.568359 C 11.535313 12.689259 11.409913 12.789188 11.257812 12.867188 C 11.109612 12.945188 10.933263 12.984375 10.726562 12.984375 C 10.301463 12.984375 9.9781592 12.835463 9.7558594 12.539062 C 9.5374594 12.238762 9.4277344 11.821409 9.4277344 11.287109 C 9.4277344 10.495409 9.6177938 9.8958281 9.9960938 9.4863281 C 10.378294 9.0768281 10.93085 8.8554188 11.65625 8.8242188 z M 10.697266 10.794922 C 10.517866 10.794922 10.359156 10.816475 10.222656 10.859375 C 10.090056 10.898375 9.9666092 10.9454 9.8496094 11 C 9.8418094 11.0663 9.8378906 11.119203 9.8378906 11.158203 L 9.8378906 11.292969 C 9.8378906 11.476269 9.8496469 11.650653 9.8730469 11.814453 C 9.9003469 11.978253 9.945419 12.121294 10.011719 12.246094 C 10.081919 12.370894 10.174009 12.470822 10.287109 12.544922 C 10.400209 12.615122 10.545203 12.650391 10.720703 12.650391 C 10.865003 12.650391 10.988444 12.624919 11.089844 12.574219 C 11.191244 12.519619 11.271584 12.449081 11.333984 12.363281 C 11.396384 12.277481 11.44145 12.177553 11.46875 12.064453 C 11.49995 11.951353 11.515625 11.833784 11.515625 11.708984 C 11.515625 11.396984 11.445087 11.165778 11.304688 11.017578 C 11.168187 10.869378 10.966366 10.794922 10.697266 10.794922 z "
     id="path4" />
</svg>
