<?xml version="1.0" encoding="UTF-8" standalone="no"?>
<svg
   xmlns:dc="http://purl.org/dc/elements/1.1/"
   xmlns:cc="http://creativecommons.org/ns#"
   xmlns:rdf="http://www.w3.org/1999/02/22-rdf-syntax-ns#"
   xmlns:svg="http://www.w3.org/2000/svg"
   xmlns="http://www.w3.org/2000/svg"
   xmlns:sodipodi="http://sodipodi.sourceforge.net/DTD/sodipodi-0.dtd"
   xmlns:inkscape="http://www.inkscape.org/namespaces/inkscape"
   viewBox="0 0 16 16"
   id="svg2"
   version="1.1"
   inkscape:version="0.91 r13725"
   sodipodi:docname="indicator-keyboard-En-8.svg">
  <metadata
     id="metadata14">
    <rdf:RDF>
      <cc:Work
         rdf:about="">
        <dc:format>image/svg+xml</dc:format>
        <dc:type
           rdf:resource="http://purl.org/dc/dcmitype/StillImage" />
      </cc:Work>
    </rdf:RDF>
  </metadata>
  <defs
     id="defs12" />
  <sodipodi:namedview
     pagecolor="#ffffff"
     bordercolor="#666666"
     borderopacity="1"
     objecttolerance="10"
     gridtolerance="10"
     guidetolerance="10"
     inkscape:pageopacity="0"
     inkscape:pageshadow="2"
     inkscape:window-width="640"
     inkscape:window-height="480"
     id="namedview10"
     showgrid="false"
     inkscape:zoom="14.75"
     inkscape:cx="8"
     inkscape:cy="8"
     inkscape:window-x="65"
     inkscape:window-y="24"
     inkscape:window-maximized="0"
     inkscape:current-layer="svg2" />
  <path
     style="fill:#ececec;fill-opacity:1"
     d="M 1.5996094 0 C 0.71320937 2.9605947e-16 0 0.71320937 0 1.5996094 L 0 14.400391 C 2.9605947e-16 15.286791 0.71320937 16 1.5996094 16 L 14.400391 16 C 15.286791 16 16 15.286791 16 14.400391 L 16 1.5996094 C 16 0.71320937 15.286791 0 14.400391 0 L 1.5996094 0 z M 1.8945312 4.859375 L 5.4941406 4.859375 L 5.4941406 5.390625 L 2.5058594 5.390625 L 2.5058594 7.5585938 L 5.1699219 7.5585938 L 5.1699219 8.0800781 L 2.5058594 8.0800781 L 2.5058594 10.564453 L 5.7285156 10.564453 L 5.7285156 11.095703 L 1.8945312 11.095703 L 1.8945312 4.859375 z M 8.6328125 6.3535156 C 8.9868125 6.3535156 9.281625 6.4038594 9.515625 6.5058594 C 9.755625 6.6078594 9.944031 6.7552656 10.082031 6.9472656 C 10.226031 7.1332656 10.328672 7.3570938 10.388672 7.6210938 C 10.448672 7.8850938 10.478516 8.1761406 10.478516 8.4941406 L 10.478516 11.095703 L 9.8925781 11.095703 L 9.8925781 8.6835938 C 9.8925781 8.3535938 9.8683125 8.0756562 9.8203125 7.8476562 C 9.7783125 7.6196563 9.7037031 7.4330625 9.5957031 7.2890625 C 9.4937031 7.1450625 9.3556406 7.0424219 9.1816406 6.9824219 C 9.0136406 6.9164219 8.8009687 6.8847656 8.5429688 6.8847656 C 8.2669687 6.8847656 8.0262656 6.8996875 7.8222656 6.9296875 C 7.6242656 6.9596875 7.4955469 6.9857656 7.4355469 7.0097656 L 7.4355469 11.095703 L 6.8515625 11.095703 L 6.8515625 6.6054688 C 7.0255625 6.5574688 7.2587344 6.5033594 7.5527344 6.4433594 C 7.8467344 6.3833594 8.2068125 6.3535156 8.6328125 6.3535156 z M 12.841797 8.7539062 C 13.044597 8.7539062 13.220941 8.7852563 13.369141 8.8476562 C 13.517341 8.9061562 13.636869 8.9845313 13.730469 9.0820312 C 13.827969 9.1795312 13.898506 9.2912156 13.941406 9.4160156 C 13.988206 9.5408156 14.011719 9.6681812 14.011719 9.8007812 C 14.011719 9.9294812 13.992125 10.049003 13.953125 10.158203 C 13.914125 10.263503 13.863181 10.361472 13.800781 10.451172 C 13.738381 10.536972 13.667844 10.613388 13.589844 10.679688 C 13.511844 10.745988 13.437381 10.800856 13.363281 10.847656 C 13.636281 10.964656 13.826347 11.111609 13.935547 11.287109 C 14.048647 11.462609 14.105469 11.64875 14.105469 11.84375 C 14.105469 12.01145 14.074119 12.164288 14.011719 12.304688 C 13.953219 12.445088 13.868966 12.566569 13.759766 12.667969 C 13.650566 12.765469 13.519281 12.841884 13.363281 12.896484 C 13.207281 12.954984 13.032897 12.984375 12.841797 12.984375 C 12.650697 12.984375 12.476313 12.956944 12.320312 12.902344 C 12.168212 12.847744 12.036928 12.771328 11.923828 12.673828 C 11.814628 12.572428 11.728416 12.454866 11.666016 12.322266 C 11.607516 12.185766 11.578125 12.038806 11.578125 11.878906 C 11.578125 11.742406 11.597719 11.618966 11.636719 11.509766 C 11.675719 11.396666 11.726662 11.296737 11.789062 11.210938 C 11.855363 11.121237 11.929819 11.042863 12.011719 10.976562 C 12.097519 10.906363 12.185697 10.845622 12.279297 10.794922 C 12.041397 10.677922 11.880722 10.540759 11.794922 10.380859 C 11.709122 10.220959 11.666016 10.046575 11.666016 9.859375 C 11.666016 9.691675 11.695406 9.5407968 11.753906 9.4042969 C 11.812406 9.2677969 11.892741 9.1521937 11.994141 9.0585938 C 12.099441 8.9610938 12.222887 8.8866375 12.367188 8.8359375 C 12.511487 8.7813375 12.670197 8.7539062 12.841797 8.7539062 z M 12.841797 9.0820312 C 12.713097 9.0820312 12.599453 9.101625 12.501953 9.140625 C 12.404453 9.179625 12.322159 9.2344875 12.255859 9.3046875 C 12.193459 9.3709875 12.146428 9.4493625 12.111328 9.5390625 C 12.080128 9.6287624 12.064453 9.7208594 12.064453 9.8183594 C 12.064453 9.9275594 12.076209 10.027487 12.099609 10.117188 C 12.126909 10.206888 12.173941 10.289181 12.244141 10.363281 C 12.314341 10.433481 12.412309 10.5001 12.537109 10.5625 C 12.661909 10.621 12.826497 10.677822 13.029297 10.732422 C 13.208697 10.631022 13.349778 10.505622 13.455078 10.357422 C 13.560378 10.209222 13.613281 10.023081 13.613281 9.8007812 C 13.613281 9.7110812 13.597606 9.6248624 13.566406 9.5390625 C 13.539106 9.4532625 13.494041 9.3768469 13.431641 9.3105469 C 13.373141 9.2403469 13.296719 9.1854844 13.199219 9.1464844 C 13.101719 9.1035844 12.982197 9.0820312 12.841797 9.0820312 z M 12.607422 10.929688 C 12.408522 11.023287 12.255684 11.150647 12.146484 11.310547 C 12.037284 11.466547 11.982422 11.656606 11.982422 11.878906 C 11.982422 11.988106 12.000056 12.088041 12.035156 12.181641 C 12.070256 12.275241 12.123159 12.357534 12.193359 12.427734 C 12.267459 12.497934 12.355638 12.554756 12.460938 12.597656 C 12.570137 12.636656 12.697497 12.65625 12.841797 12.65625 C 12.986097 12.65625 13.111497 12.636656 13.216797 12.597656 C 13.325997 12.554756 13.414175 12.497934 13.484375 12.427734 C 13.558475 12.357534 13.613338 12.275241 13.648438 12.181641 C 13.683537 12.088041 13.701172 11.988106 13.701172 11.878906 C 13.701172 11.711206 13.667863 11.57405 13.601562 11.46875 C 13.539162 11.36345 13.456863 11.277238 13.351562 11.210938 C 13.250163 11.144638 13.1326 11.091734 13 11.052734 C 12.8713 11.013734 12.740022 10.972587 12.607422 10.929688 z "
     id="path4" />
</svg>
