<svg xmlns="http://www.w3.org/2000/svg" viewBox="0 0 16 16">
 <path d="m 1.6 0 c -0.886 0 -1.6 0.713 -1.6 1.6 l 0 12.801 c 0 0.886 0.713 1.6 1.6 1.6 l 12.801 0 c 0.886 0 1.6 -0.713 1.6 -1.6 l 0 -12.801 c 0 -0.886 -0.713 -1.6 -1.6 -1.6 l -12.801 0 z m 1.053 4.859 l 4.607 0 l 0 0.531 l -1.998 0 l 0 5.705 l -0.611 0 l 0 -5.705 l -1.998 0 l 0 -0.531 z m 6.871 1.494 c 0.192 0 0.371 0.015 0.539 0.045 c 0.174 0.03 0.295 0.06 0.361 0.09 l -0.117 0.504 c -0.048 -0.024 -0.147 -0.048 -0.297 -0.072 c -0.144 -0.03 -0.336 -0.045 -0.576 -0.045 c -0.252 0 -0.455 0.019 -0.611 0.055 c -0.15 0.036 -0.251 0.066 -0.299 0.09 l 0 4.076 l -0.584 0 l 0 -4.437 c 0.15 -0.066 0.357 -0.131 0.621 -0.197 c 0.264 -0.072 0.585 -0.107 0.963 -0.107 z m 1.859 2.488 l 1.824 0 l 0 0.334 l -1.49 0 c -0.004 0.074 -0.01 0.17 -0.018 0.287 c -0.008 0.117 -0.016 0.237 -0.023 0.361 c -0.008 0.121 -0.018 0.238 -0.029 0.352 c -0.012 0.113 -0.021 0.203 -0.029 0.27 c 0.3 0.008 0.559 0.045 0.777 0.111 c 0.218 0.066 0.399 0.154 0.539 0.268 c 0.14 0.113 0.242 0.25 0.309 0.41 c 0.07 0.16 0.105 0.338 0.105 0.533 c 0 0.172 -0.029 0.33 -0.088 0.479 c -0.055 0.148 -0.139 0.278 -0.256 0.387 c -0.117 0.109 -0.266 0.195 -0.445 0.258 c -0.179 0.062 -0.391 0.094 -0.637 0.094 c -0.125 0 -0.242 -0.01 -0.352 -0.029 c -0.105 -0.016 -0.201 -0.035 -0.287 -0.059 c -0.082 -0.023 -0.152 -0.047 -0.211 -0.07 c -0.059 -0.023 -0.102 -0.043 -0.129 -0.059 l 0.1 -0.34 c 0.023 0.016 0.063 0.035 0.117 0.059 c 0.058 0.023 0.125 0.047 0.199 0.07 c 0.078 0.019 0.164 0.037 0.258 0.053 c 0.097 0.016 0.199 0.023 0.305 0.023 c 0.195 0 0.356 -0.022 0.484 -0.064 c 0.133 -0.047 0.238 -0.109 0.316 -0.188 c 0.078 -0.078 0.133 -0.168 0.164 -0.27 c 0.035 -0.105 0.053 -0.217 0.053 -0.338 c 0 -0.156 -0.025 -0.297 -0.076 -0.422 c -0.051 -0.125 -0.141 -0.231 -0.27 -0.316 c -0.129 -0.086 -0.303 -0.15 -0.521 -0.193 c -0.218 -0.047 -0.495 -0.07 -0.83 -0.07 c 0.023 -0.199 0.043 -0.379 0.059 -0.543 c 0.016 -0.168 0.029 -0.328 0.041 -0.48 c 0.012 -0.156 0.02 -0.305 0.023 -0.449 c 0.008 -0.148 0.014 -0.301 0.018 -0.457 z" style="fill:#ececec;fill-opacity:1"/>
</svg>
