<?xml version="1.0" encoding="UTF-8" standalone="no"?>
<svg
   xmlns:dc="http://purl.org/dc/elements/1.1/"
   xmlns:cc="http://creativecommons.org/ns#"
   xmlns:rdf="http://www.w3.org/1999/02/22-rdf-syntax-ns#"
   xmlns:svg="http://www.w3.org/2000/svg"
   xmlns="http://www.w3.org/2000/svg"
   xmlns:sodipodi="http://sodipodi.sourceforge.net/DTD/sodipodi-0.dtd"
   xmlns:inkscape="http://www.inkscape.org/namespaces/inkscape"
   viewBox="0 0 16 16"
   id="svg2"
   version="1.1"
   inkscape:version="0.91 r13725"
   sodipodi:docname="indicator-keyboard-Et-1.svg">
  <metadata
     id="metadata14">
    <rdf:RDF>
      <cc:Work
         rdf:about="">
        <dc:format>image/svg+xml</dc:format>
        <dc:type
           rdf:resource="http://purl.org/dc/dcmitype/StillImage" />
      </cc:Work>
    </rdf:RDF>
  </metadata>
  <defs
     id="defs12" />
  <sodipodi:namedview
     pagecolor="#ffffff"
     bordercolor="#666666"
     borderopacity="1"
     objecttolerance="10"
     gridtolerance="10"
     guidetolerance="10"
     inkscape:pageopacity="0"
     inkscape:pageshadow="2"
     inkscape:window-width="640"
     inkscape:window-height="480"
     id="namedview10"
     showgrid="false"
     inkscape:zoom="14.75"
     inkscape:cx="8"
     inkscape:cy="8"
     inkscape:window-x="75"
     inkscape:window-y="34"
     inkscape:window-maximized="0"
     inkscape:current-layer="svg2" />
  <path
     style="fill:#ececec;fill-opacity:1"
     d="M 1.5996094 0 C 0.71320937 2.9605947e-16 0 0.71320937 0 1.5996094 L 0 14.400391 C 2.9605947e-16 15.286791 0.71320937 16 1.5996094 16 L 14.400391 16 C 15.286791 16 16 15.286791 16 14.400391 L 16 1.5996094 C 16 0.71320937 15.286791 0 14.400391 0 L 1.5996094 0 z M 3.1367188 4.859375 L 6.7363281 4.859375 L 6.7363281 5.390625 L 3.7480469 5.390625 L 3.7480469 7.5585938 L 6.4121094 7.5585938 L 6.4121094 8.0800781 L 3.7480469 8.0800781 L 3.7480469 10.564453 L 6.9707031 10.564453 L 6.9707031 11.095703 L 3.1367188 11.095703 L 3.1367188 4.859375 z M 8.640625 4.9667969 L 8.640625 6.4433594 L 10.496094 6.4433594 L 10.496094 6.9375 L 8.640625 6.9375 L 8.640625 9.4121094 C 8.640625 9.6761094 8.6630781 9.8925467 8.7050781 10.060547 C 8.7530781 10.222547 8.8183438 10.349453 8.9023438 10.439453 C 8.9863438 10.529453 9.0889844 10.589141 9.2089844 10.619141 C 9.3289844 10.649141 9.4595156 10.664062 9.6035156 10.664062 C 9.8495156 10.664062 10.049219 10.636031 10.199219 10.582031 C 10.349219 10.522031 10.464828 10.469875 10.548828 10.421875 L 10.693359 10.90625 C 10.609359 10.96025 10.461953 11.023703 10.251953 11.095703 C 10.041953 11.161703 9.8143594 11.195313 9.5683594 11.195312 C 9.2803594 11.195312 9.0378437 11.159891 8.8398438 11.087891 C 8.6478437 11.009891 8.4910938 10.894141 8.3710938 10.744141 C 8.2570938 10.588141 8.1769062 10.397922 8.1289062 10.169922 C 8.0809063 9.9419217 8.0566406 9.671375 8.0566406 9.359375 L 8.0566406 5.0742188 L 8.640625 4.9667969 z M 12.595703 8.8417969 L 12.863281 8.8417969 L 12.863281 12.896484 L 12.484375 12.896484 L 12.484375 9.421875 C 12.441475 9.468675 12.384653 9.5157063 12.314453 9.5664062 C 12.248153 9.6171062 12.171737 9.66805 12.085938 9.71875 C 12.000137 9.76555 11.910006 9.812575 11.816406 9.859375 C 11.722806 9.902275 11.628756 9.9375437 11.535156 9.9648438 L 11.423828 9.671875 C 11.657828 9.5899751 11.867481 9.4880812 12.050781 9.3632812 C 12.234081 9.2345813 12.416303 9.0601969 12.595703 8.8417969 z "
     id="path4" />
</svg>
