<?xml version="1.0" encoding="UTF-8" standalone="no"?>
<svg
   xmlns:dc="http://purl.org/dc/elements/1.1/"
   xmlns:cc="http://creativecommons.org/ns#"
   xmlns:rdf="http://www.w3.org/1999/02/22-rdf-syntax-ns#"
   xmlns:svg="http://www.w3.org/2000/svg"
   xmlns="http://www.w3.org/2000/svg"
   xmlns:sodipodi="http://sodipodi.sourceforge.net/DTD/sodipodi-0.dtd"
   xmlns:inkscape="http://www.inkscape.org/namespaces/inkscape"
   viewBox="0 0 16 16"
   id="svg2"
   version="1.1"
   inkscape:version="0.91 r13725"
   sodipodi:docname="indicator-keyboard-En-1.svg">
  <metadata
     id="metadata14">
    <rdf:RDF>
      <cc:Work
         rdf:about="">
        <dc:format>image/svg+xml</dc:format>
        <dc:type
           rdf:resource="http://purl.org/dc/dcmitype/StillImage" />
      </cc:Work>
    </rdf:RDF>
  </metadata>
  <defs
     id="defs12" />
  <sodipodi:namedview
     pagecolor="#ffffff"
     bordercolor="#666666"
     borderopacity="1"
     objecttolerance="10"
     gridtolerance="10"
     guidetolerance="10"
     inkscape:pageopacity="0"
     inkscape:pageshadow="2"
     inkscape:window-width="640"
     inkscape:window-height="480"
     id="namedview10"
     showgrid="false"
     inkscape:zoom="14.75"
     inkscape:cx="8"
     inkscape:cy="8"
     inkscape:window-x="65"
     inkscape:window-y="24"
     inkscape:window-maximized="0"
     inkscape:current-layer="svg2" />
  <path
     style="fill:#ececec;fill-opacity:1"
     d="M 1.5996094 0 C 0.71320937 2.9605947e-16 0 0.71320937 0 1.5996094 L 0 14.400391 C 2.9605947e-16 15.286791 0.71320937 16 1.5996094 16 L 14.400391 16 C 15.286791 16 16 15.286791 16 14.400391 L 16 1.5996094 C 16 0.71320937 15.286791 0 14.400391 0 L 1.5996094 0 z M 2.3183594 4.859375 L 5.9179688 4.859375 L 5.9179688 5.390625 L 2.9316406 5.390625 L 2.9316406 7.5585938 L 5.5957031 7.5585938 L 5.5957031 8.0800781 L 2.9316406 8.0800781 L 2.9316406 10.564453 L 6.1523438 10.564453 L 6.1523438 11.095703 L 2.3183594 11.095703 L 2.3183594 4.859375 z M 9.0566406 6.3535156 C 9.4106406 6.3535156 9.7054531 6.4038594 9.9394531 6.5058594 C 10.179453 6.6078594 10.367859 6.7552656 10.505859 6.9472656 C 10.649859 7.1332656 10.7525 7.3570938 10.8125 7.6210938 C 10.8725 7.8850938 10.902344 8.1761406 10.902344 8.4941406 L 10.902344 11.095703 L 10.316406 11.095703 L 10.316406 8.6835938 C 10.316406 8.3535938 10.292141 8.0756562 10.244141 7.8476562 C 10.202141 7.6196563 10.127531 7.4330625 10.019531 7.2890625 C 9.9175315 7.1450625 9.7794688 7.0424219 9.6054688 6.9824219 C 9.4374687 6.9164219 9.2247969 6.8847656 8.9667969 6.8847656 C 8.6907969 6.8847656 8.4500938 6.8996875 8.2460938 6.9296875 C 8.0480938 6.9596875 7.919375 6.9857656 7.859375 7.0097656 L 7.859375 11.095703 L 7.2753906 11.095703 L 7.2753906 6.6054688 C 7.4493906 6.5574688 7.6825625 6.5033594 7.9765625 6.4433594 C 8.2705625 6.3833594 8.6306406 6.3535156 9.0566406 6.3535156 z M 13.412109 8.8417969 L 13.681641 8.8417969 L 13.681641 12.896484 L 13.300781 12.896484 L 13.300781 9.421875 C 13.257881 9.468675 13.201059 9.5157063 13.130859 9.5664062 C 13.064559 9.6171062 12.988144 9.66805 12.902344 9.71875 C 12.816544 9.76555 12.728366 9.812575 12.634766 9.859375 C 12.541166 9.902275 12.447116 9.9375437 12.353516 9.9648438 L 12.242188 9.671875 C 12.476187 9.5899751 12.683887 9.4880812 12.867188 9.3632812 C 13.050487 9.2345813 13.232709 9.0601969 13.412109 8.8417969 z "
     id="path4" />
</svg>
