<svg xmlns="http://www.w3.org/2000/svg" viewBox="0 0 16 16">
 <path d="m 1.6 0 c -0.886 0 -1.6 0.713 -1.6 1.6 l 0 12.801 c 0 0.886 0.713 1.6 1.6 1.6 l 12.801 0 c 0.886 0 1.6 -0.713 1.6 -1.6 l 0 -12.801 c 0 -0.886 -0.713 -1.6 -1.6 -1.6 l -12.801 0 z m 5.07 4.746 c 0.234 0 0.449 0.015 0.641 0.045 c 0.192 0.03 0.36 0.069 0.504 0.117 c 0.144 0.042 0.267 0.087 0.369 0.135 c 0.102 0.042 0.178 0.081 0.232 0.117 l -0.197 0.531 c -0.15 -0.09 -0.342 -0.178 -0.576 -0.262 c -0.228 -0.09 -0.513 -0.135 -0.855 -0.135 c -0.39 0 -0.731 0.067 -1.025 0.199 c -0.288 0.132 -0.531 0.317 -0.729 0.557 c -0.198 0.24 -0.349 0.525 -0.451 0.855 c -0.096 0.33 -0.143 0.696 -0.143 1.098 c 0 0.414 0.047 0.789 0.143 1.125 c 0.102 0.33 0.249 0.612 0.441 0.846 c 0.192 0.234 0.427 0.415 0.703 0.541 c 0.282 0.126 0.603 0.189 0.963 0.189 c 0.396 0 0.726 -0.037 0.99 -0.109 c 0.27 -0.078 0.473 -0.154 0.611 -0.232 l 0.17 0.521 c -0.042 0.03 -0.113 0.065 -0.215 0.107 c -0.102 0.036 -0.231 0.075 -0.387 0.117 c -0.156 0.042 -0.337 0.076 -0.541 0.1 c -0.204 0.03 -0.432 0.045 -0.684 0.045 c -0.402 0 -0.777 -0.073 -1.125 -0.217 c -0.342 -0.144 -0.642 -0.353 -0.9 -0.629 c -0.252 -0.276 -0.454 -0.616 -0.604 -1.018 c -0.144 -0.408 -0.215 -0.873 -0.215 -1.395 c 0 -0.522 0.078 -0.985 0.234 -1.387 c 0.162 -0.408 0.375 -0.749 0.639 -1.025 c 0.264 -0.276 0.57 -0.483 0.918 -0.621 c 0.348 -0.144 0.71 -0.217 1.088 -0.217 z m 4.082 1.611 c 0.318 0 0.579 0.028 0.783 0.082 c 0.21 0.054 0.355 0.101 0.439 0.143 l -0.135 0.523 c -0.072 -0.036 -0.195 -0.085 -0.369 -0.145 c -0.168 -0.06 -0.416 -0.09 -0.746 -0.09 c -0.132 0 -0.259 0.015 -0.379 0.045 c -0.114 0.024 -0.215 0.065 -0.305 0.125 c -0.09 0.054 -0.163 0.127 -0.217 0.217 c -0.054 0.084 -0.08 0.188 -0.08 0.314 c 0 0.126 0.022 0.234 0.07 0.324 c 0.048 0.09 0.117 0.17 0.207 0.242 c 0.096 0.066 0.21 0.129 0.342 0.189 c 0.138 0.06 0.295 0.127 0.469 0.199 c 0.18 0.072 0.352 0.147 0.514 0.225 c 0.168 0.072 0.315 0.162 0.441 0.27 c 0.126 0.102 0.227 0.229 0.305 0.379 c 0.078 0.144 0.117 0.327 0.117 0.549 c 0 0.42 -0.159 0.737 -0.477 0.953 c -0.312 0.216 -0.741 0.324 -1.287 0.324 c -0.408 0 -0.72 -0.035 -0.936 -0.107 c -0.216 -0.066 -0.36 -0.118 -0.432 -0.154 l 0.152 -0.531 c 0.018 0.012 0.057 0.034 0.117 0.064 c 0.06 0.024 0.14 0.054 0.242 0.09 c 0.102 0.03 0.221 0.056 0.359 0.08 c 0.144 0.024 0.31 0.037 0.496 0.037 c 0.336 0 0.612 -0.054 0.828 -0.162 c 0.222 -0.114 0.332 -0.304 0.332 -0.568 c 0 -0.126 -0.021 -0.232 -0.063 -0.322 c -0.036 -0.09 -0.099 -0.172 -0.189 -0.244 c -0.09 -0.072 -0.209 -0.141 -0.359 -0.207 c -0.144 -0.066 -0.323 -0.144 -0.539 -0.234 c -0.174 -0.072 -0.34 -0.143 -0.496 -0.215 c -0.156 -0.078 -0.294 -0.166 -0.414 -0.262 c -0.12 -0.102 -0.215 -0.221 -0.287 -0.359 c -0.072 -0.138 -0.109 -0.306 -0.109 -0.504 c 0 -0.378 0.142 -0.684 0.424 -0.918 c 0.288 -0.234 0.682 -0.352 1.18 -0.352 z" style="fill:#ececec;fill-opacity:1"/>
</svg>
