<svg xmlns="http://www.w3.org/2000/svg" viewBox="0 0 16 16">
 <path d="m 1.6 0 c -0.886 0 -1.6 0.713 -1.6 1.6 l 0 12.801 c 0 0.886 0.713 1.6 1.6 1.6 l 12.801 0 c 0.886 0 1.6 -0.713 1.6 -1.6 l 0 -12.801 c 0 -0.886 -0.713 -1.6 -1.6 -1.6 l -12.801 0 z m 3.223 4.801 c 0.858 0 1.504 0.162 1.936 0.486 c 0.438 0.324 0.656 0.803 0.656 1.439 c 0 0.468 -0.123 0.837 -0.369 1.107 c -0.246 0.27 -0.571 0.464 -0.973 0.584 c 0.096 0.12 0.219 0.282 0.369 0.486 c 0.156 0.204 0.317 0.43 0.479 0.676 c 0.162 0.24 0.321 0.492 0.477 0.756 c 0.156 0.264 0.288 0.516 0.396 0.756 l -0.658 0 c -0.126 -0.24 -0.264 -0.481 -0.414 -0.721 c -0.144 -0.24 -0.293 -0.471 -0.449 -0.693 c -0.15 -0.228 -0.297 -0.437 -0.441 -0.629 l -0.377 -0.504 c -0.192 0.018 -0.384 0.027 -0.576 0.027 l -1.01 0 l 0 2.52 l -0.611 0 l 0 -6.121 c 0.216 -0.06 0.468 -0.101 0.756 -0.125 c 0.294 -0.03 0.565 -0.045 0.811 -0.045 z m 0.072 0.531 c -0.228 0 -0.43 0.009 -0.604 0.027 c -0.168 0.012 -0.31 0.023 -0.424 0.035 l 0 2.654 l 0.848 0 c 0.282 0 0.549 -0.011 0.801 -0.035 c 0.252 -0.03 0.47 -0.09 0.656 -0.18 c 0.186 -0.096 0.333 -0.232 0.441 -0.406 c 0.108 -0.174 0.162 -0.411 0.162 -0.711 c 0 -0.276 -0.054 -0.504 -0.162 -0.684 c -0.108 -0.18 -0.25 -0.32 -0.424 -0.422 c -0.174 -0.108 -0.374 -0.181 -0.602 -0.217 c -0.222 -0.042 -0.453 -0.063 -0.693 -0.063 z m 5.725 0.998 c 0.312 0 0.597 0.06 0.855 0.18 c 0.258 0.114 0.48 0.28 0.666 0.496 c 0.192 0.21 0.339 0.464 0.441 0.764 c 0.108 0.3 0.162 0.634 0.162 1 c 0 0.366 -0.054 0.698 -0.162 0.998 c -0.102 0.3 -0.249 0.556 -0.441 0.766 c -0.186 0.21 -0.408 0.376 -0.666 0.496 c -0.258 0.114 -0.543 0.17 -0.855 0.17 c -0.312 0 -0.596 -0.056 -0.854 -0.17 c -0.258 -0.12 -0.484 -0.286 -0.676 -0.496 c -0.186 -0.21 -0.333 -0.466 -0.441 -0.766 c -0.102 -0.3 -0.152 -0.632 -0.152 -0.998 c 0 -0.366 0.05 -0.7 0.152 -1 c 0.108 -0.3 0.255 -0.554 0.441 -0.764 c 0.192 -0.216 0.418 -0.382 0.676 -0.496 c 0.258 -0.12 0.542 -0.18 0.854 -0.18 z m 0 0.531 c -0.462 0 -0.828 0.173 -1.098 0.521 c -0.27 0.342 -0.404 0.805 -0.404 1.387 c 0 0.582 0.134 1.045 0.404 1.387 c 0.27 0.342 0.636 0.512 1.098 0.512 c 0.462 0 0.83 -0.17 1.1 -0.512 c 0.27 -0.342 0.404 -0.805 0.404 -1.387 c 0 -0.582 -0.134 -1.045 -0.404 -1.387 c -0.27 -0.348 -0.638 -0.521 -1.1 -0.521 z" style="fill:#ececec;fill-opacity:1"/>
</svg>
