<?xml version="1.0" encoding="UTF-8" standalone="no"?>
<svg
   xmlns:dc="http://purl.org/dc/elements/1.1/"
   xmlns:cc="http://creativecommons.org/ns#"
   xmlns:rdf="http://www.w3.org/1999/02/22-rdf-syntax-ns#"
   xmlns:svg="http://www.w3.org/2000/svg"
   xmlns="http://www.w3.org/2000/svg"
   xmlns:sodipodi="http://sodipodi.sourceforge.net/DTD/sodipodi-0.dtd"
   xmlns:inkscape="http://www.inkscape.org/namespaces/inkscape"
   viewBox="0 0 16 16"
   id="svg2"
   version="1.1"
   inkscape:version="0.91 r13725"
   sodipodi:docname="indicator-keyboard-Bg-2.svg">
  <metadata
     id="metadata14">
    <rdf:RDF>
      <cc:Work
         rdf:about="">
        <dc:format>image/svg+xml</dc:format>
        <dc:type
           rdf:resource="http://purl.org/dc/dcmitype/StillImage" />
      </cc:Work>
    </rdf:RDF>
  </metadata>
  <defs
     id="defs12" />
  <sodipodi:namedview
     pagecolor="#ffffff"
     bordercolor="#666666"
     borderopacity="1"
     objecttolerance="10"
     gridtolerance="10"
     guidetolerance="10"
     inkscape:pageopacity="0"
     inkscape:pageshadow="2"
     inkscape:window-width="640"
     inkscape:window-height="480"
     id="namedview10"
     showgrid="false"
     inkscape:zoom="14.75"
     inkscape:cx="8"
     inkscape:cy="8"
     inkscape:window-x="65"
     inkscape:window-y="24"
     inkscape:window-maximized="0"
     inkscape:current-layer="svg2" />
  <path
     style="fill:#ececec;fill-opacity:1"
     d="M 1.5996094 0 C 0.71320937 2.9605947e-16 0 0.71320937 0 1.5996094 L 0 14.400391 C 2.9605947e-16 15.286791 0.71320937 16 1.5996094 16 L 14.400391 16 C 15.286791 16 16 15.286791 16 14.400391 L 16 1.5996094 C 16 0.71320937 15.286791 0 14.400391 0 L 1.5996094 0 z M 3.1445312 4.8046875 C 3.4805313 4.8046875 3.7976562 4.8327187 4.0976562 4.8867188 C 4.4036562 4.9407187 4.6704375 5.03025 4.8984375 5.15625 C 5.1264375 5.28225 5.3074531 5.4501562 5.4394531 5.6601562 C 5.5774531 5.8641563 5.6464844 6.1197812 5.6464844 6.4257812 C 5.6464844 6.7617812 5.5587656 7.0490625 5.3847656 7.2890625 C 5.2167656 7.5230625 4.9891719 7.6853906 4.7011719 7.7753906 C 4.8811719 7.8173906 5.0453125 7.8770781 5.1953125 7.9550781 C 5.3453125 8.0330781 5.4777969 8.1357187 5.5917969 8.2617188 C 5.7057969 8.3817188 5.7935156 8.5309375 5.8535156 8.7109375 C 5.9195156 8.8849375 5.9511719 9.0957969 5.9511719 9.3417969 C 5.9511719 9.9297971 5.718 10.379406 5.25 10.691406 C 4.782 10.997406 4.0580781 11.150391 3.0800781 11.150391 C 2.9780781 11.150391 2.8587031 11.144813 2.7207031 11.132812 C 2.5887031 11.126813 2.4506406 11.113703 2.3066406 11.095703 C 2.1686406 11.083703 2.0361563 11.068781 1.9101562 11.050781 C 1.7841563 11.026781 1.6778906 11.002516 1.5878906 10.978516 L 1.5878906 4.9765625 C 1.6958906 4.9465625 1.8152656 4.9222969 1.9472656 4.9042969 C 2.0792656 4.8802969 2.2135625 4.8616094 2.3515625 4.8496094 C 2.4955625 4.8316094 2.633625 4.8204531 2.765625 4.8144531 C 2.903625 4.8084531 3.0305312 4.8046875 3.1445312 4.8046875 z M 3.1445312 5.3261719 C 2.9225312 5.3261719 2.7321719 5.3337031 2.5761719 5.3457031 C 2.4261719 5.3577031 2.3012187 5.372625 2.1992188 5.390625 L 2.1992188 7.5859375 L 3.3867188 7.5859375 C 3.6087187 7.5859375 3.8195781 7.5710156 4.0175781 7.5410156 C 4.2155781 7.5050156 4.3852969 7.4453281 4.5292969 7.3613281 C 4.6792969 7.2713281 4.7968594 7.1537656 4.8808594 7.0097656 C 4.9648594 6.8597656 5.0078125 6.6713594 5.0078125 6.4433594 C 5.0078125 6.2393594 4.9610937 6.0676875 4.8710938 5.9296875 C 4.7810937 5.7856875 4.652375 5.668125 4.484375 5.578125 C 4.322375 5.488125 4.1283906 5.426625 3.9003906 5.390625 C 3.6723906 5.348625 3.4205312 5.3261719 3.1445312 5.3261719 z M 9.1542969 6.3535156 C 9.5862969 6.3535156 9.9314531 6.3833594 10.189453 6.4433594 C 10.453453 6.4973594 10.669891 6.5514688 10.837891 6.6054688 L 10.837891 10.853516 C 10.837891 11.549516 10.656875 12.043891 10.296875 12.337891 C 9.9368749 12.637891 9.3939688 12.787109 8.6679688 12.787109 C 8.3679688 12.787109 8.0956094 12.764797 7.8496094 12.716797 C 7.6096094 12.674797 7.4025156 12.6225 7.2285156 12.5625 L 7.3457031 12.03125 C 7.4897031 12.09725 7.6856406 12.155125 7.9316406 12.203125 C 8.1836406 12.251125 8.4355 12.275391 8.6875 12.275391 C 9.2395 12.275391 9.6368125 12.167172 9.8828125 11.951172 C 10.134813 11.741172 10.261719 11.377328 10.261719 10.861328 L 10.261719 10.556641 C 10.225719 10.586641 10.171609 10.622062 10.099609 10.664062 C 10.027609 10.700062 9.9380781 10.73925 9.8300781 10.78125 C 9.7280781 10.82325 9.60675 10.858672 9.46875 10.888672 C 9.33675 10.912672 9.1875312 10.925781 9.0195312 10.925781 C 8.7495312 10.925781 8.4883281 10.882828 8.2363281 10.798828 C 7.9843281 10.714828 7.7623125 10.582344 7.5703125 10.402344 C 7.3843125 10.222344 7.2350938 9.9929377 7.1210938 9.7109375 C 7.0070937 9.4229375 6.9492187 9.0740156 6.9492188 8.6660156 C 6.9492188 8.3360156 7.0015156 8.0300469 7.1035156 7.7480469 C 7.2055156 7.4660469 7.3491562 7.2235312 7.5351562 7.0195312 C 7.7271563 6.8095313 7.9585156 6.6472031 8.2285156 6.5332031 C 8.5045156 6.4132031 8.8122969 6.3535156 9.1542969 6.3535156 z M 9.1640625 6.8847656 C 8.9120625 6.8847656 8.6862813 6.9295312 8.4882812 7.0195312 C 8.2962813 7.1035312 8.1321406 7.2266719 7.9941406 7.3886719 C 7.8561406 7.5446719 7.7497344 7.7330781 7.6777344 7.9550781 C 7.6057344 8.1710781 7.5703125 8.4117812 7.5703125 8.6757812 C 7.5703125 8.9817813 7.6132656 9.2447969 7.6972656 9.4667969 C 7.7812656 9.6827969 7.8894844 9.8600469 8.0214844 9.9980469 C 8.1594844 10.136047 8.3142813 10.238688 8.4882812 10.304688 C 8.6622812 10.364687 8.8395313 10.394531 9.0195312 10.394531 C 9.2835312 10.394531 9.5242344 10.355344 9.7402344 10.277344 C 9.9622344 10.199344 10.131953 10.109812 10.251953 10.007812 L 10.251953 7.0097656 C 10.149953 6.9797656 10.019422 6.9536875 9.8574219 6.9296875 C 9.6954219 6.8996875 9.4640625 6.8847656 9.1640625 6.8847656 z M 2.1992188 8.1074219 L 2.1992188 10.564453 C 2.2892188 10.576453 2.4235156 10.591375 2.6035156 10.609375 C 2.7835156 10.621375 2.9663437 10.628906 3.1523438 10.628906 C 3.4283438 10.628906 3.695125 10.610219 3.953125 10.574219 C 4.217125 10.538219 4.4484844 10.472953 4.6464844 10.376953 C 4.8444844 10.280953 5.0030469 10.148469 5.1230469 9.9804688 C 5.2430469 9.8124687 5.3046875 9.5960312 5.3046875 9.3320312 C 5.3046875 9.0920312 5.2617344 8.8942812 5.1777344 8.7382812 C 5.0937344 8.5762813 4.9743594 8.449375 4.8183594 8.359375 C 4.6623594 8.263375 4.4701875 8.1981094 4.2421875 8.1621094 C 4.0201875 8.1261094 3.7701406 8.1074219 3.4941406 8.1074219 L 2.1992188 8.1074219 z M 13.085938 8.7539062 C 13.479837 8.7539062 13.775709 8.851875 13.974609 9.046875 C 14.173509 9.237975 14.273438 9.5044563 14.273438 9.8476562 C 14.273438 9.9997563 14.246006 10.14475 14.191406 10.28125 C 14.136806 10.41385 14.06235 10.543169 13.96875 10.667969 C 13.87905 10.792769 13.775203 10.912297 13.658203 11.029297 C 13.541203 11.146297 13.421681 11.263859 13.300781 11.380859 C 13.199381 11.478359 13.101406 11.578288 13.003906 11.679688 C 12.910306 11.777188 12.824094 11.877116 12.746094 11.978516 C 12.671994 12.076016 12.611253 12.172031 12.564453 12.269531 C 12.521553 12.363131 12.5 12.457181 12.5 12.550781 L 12.5 12.5625 L 14.412109 12.5625 L 14.412109 12.896484 L 12.078125 12.896484 C 12.078125 12.888684 12.076199 12.874969 12.072266 12.855469 L 12.072266 12.755859 C 12.072266 12.572559 12.105575 12.402094 12.171875 12.246094 C 12.238175 12.086194 12.322428 11.937275 12.423828 11.796875 C 12.529128 11.656475 12.644731 11.525197 12.769531 11.404297 C 12.898231 11.283397 13.021672 11.165834 13.138672 11.052734 C 13.236172 10.959134 13.326309 10.869003 13.412109 10.783203 C 13.501809 10.693503 13.580184 10.603366 13.646484 10.509766 C 13.712784 10.416166 13.765687 10.316238 13.804688 10.210938 C 13.843687 10.105638 13.863281 9.9900344 13.863281 9.8652344 C 13.863281 9.5922344 13.788825 9.39825 13.640625 9.28125 C 13.496325 9.16035 13.314097 9.0996094 13.091797 9.0996094 C 12.966997 9.0996094 12.855312 9.1152844 12.757812 9.1464844 C 12.660313 9.1776844 12.5741 9.2149125 12.5 9.2578125 C 12.4298 9.2968125 12.369059 9.3379594 12.318359 9.3808594 C 12.267659 9.4237594 12.230431 9.4570688 12.207031 9.4804688 L 12.007812 9.2167969 C 12.031212 9.1894969 12.07236 9.1503094 12.130859 9.0996094 C 12.193259 9.0450094 12.269675 8.9921062 12.359375 8.9414062 C 12.452975 8.8907063 12.560741 8.8476 12.681641 8.8125 C 12.802541 8.7735 12.937738 8.7539063 13.085938 8.7539062 z "
     id="path4" />
</svg>
