<?xml version="1.0" encoding="UTF-8" standalone="no"?>
<svg
   xmlns:dc="http://purl.org/dc/elements/1.1/"
   xmlns:cc="http://creativecommons.org/ns#"
   xmlns:rdf="http://www.w3.org/1999/02/22-rdf-syntax-ns#"
   xmlns:svg="http://www.w3.org/2000/svg"
   xmlns="http://www.w3.org/2000/svg"
   xmlns:sodipodi="http://sodipodi.sourceforge.net/DTD/sodipodi-0.dtd"
   xmlns:inkscape="http://www.inkscape.org/namespaces/inkscape"
   viewBox="0 0 16 16"
   id="svg2"
   version="1.1"
   inkscape:version="0.91 r13725"
   sodipodi:docname="indicator-keyboard-Tr-2.svg">
  <metadata
     id="metadata14">
    <rdf:RDF>
      <cc:Work
         rdf:about="">
        <dc:format>image/svg+xml</dc:format>
        <dc:type
           rdf:resource="http://purl.org/dc/dcmitype/StillImage" />
      </cc:Work>
    </rdf:RDF>
  </metadata>
  <defs
     id="defs12" />
  <sodipodi:namedview
     pagecolor="#ffffff"
     bordercolor="#666666"
     borderopacity="1"
     objecttolerance="10"
     gridtolerance="10"
     guidetolerance="10"
     inkscape:pageopacity="0"
     inkscape:pageshadow="2"
     inkscape:window-width="640"
     inkscape:window-height="480"
     id="namedview10"
     showgrid="false"
     inkscape:zoom="14.75"
     inkscape:cx="8"
     inkscape:cy="8"
     inkscape:window-x="65"
     inkscape:window-y="24"
     inkscape:window-maximized="0"
     inkscape:current-layer="svg2" />
  <path
     style="fill:#ececec;fill-opacity:1"
     d="M 1.5996094 0 C 0.71320937 2.9605947e-16 0 0.71320937 0 1.5996094 L 0 14.400391 C 2.9605947e-16 15.286791 0.71320937 16 1.5996094 16 L 14.400391 16 C 15.286791 16 16 15.286791 16 14.400391 L 16 1.5996094 C 16 0.71320937 15.286791 0 14.400391 0 L 1.5996094 0 z M 2.6601562 4.859375 L 7.2675781 4.859375 L 7.2675781 5.390625 L 5.2695312 5.390625 L 5.2695312 11.095703 L 4.6582031 11.095703 L 4.6582031 5.390625 L 2.6601562 5.390625 L 2.6601562 4.859375 z M 9.53125 6.3535156 C 9.72325 6.3535156 9.9042654 6.3684375 10.072266 6.3984375 C 10.246266 6.4284375 10.365641 6.4582812 10.431641 6.4882812 L 10.314453 6.9921875 C 10.266453 6.9681875 10.167578 6.9439219 10.017578 6.9199219 C 9.8735779 6.8899219 9.6814063 6.875 9.4414062 6.875 C 9.1894062 6.875 8.9860781 6.8936875 8.8300781 6.9296875 C 8.6800781 6.9656875 8.5812031 6.9955312 8.5332031 7.0195312 L 8.5332031 11.095703 L 7.9472656 11.095703 L 7.9472656 6.6582031 C 8.0972656 6.5922031 8.3043594 6.5269375 8.5683594 6.4609375 C 8.8323594 6.3889375 9.15325 6.3535156 9.53125 6.3535156 z M 12.011719 8.7539062 C 12.405619 8.7539062 12.701491 8.851875 12.900391 9.046875 C 13.099291 9.237975 13.199219 9.5044563 13.199219 9.8476562 C 13.199219 9.9997563 13.171787 10.14475 13.117188 10.28125 C 13.062587 10.41385 12.988131 10.543169 12.894531 10.667969 C 12.804831 10.792769 12.700984 10.912297 12.583984 11.029297 C 12.466984 11.146297 12.349416 11.263859 12.228516 11.380859 C 12.127116 11.478359 12.027187 11.578288 11.929688 11.679688 C 11.836088 11.777187 11.749875 11.877116 11.671875 11.978516 C 11.597775 12.076016 11.537034 12.172031 11.490234 12.269531 C 11.447334 12.363131 11.425781 12.457181 11.425781 12.550781 L 11.425781 12.5625 L 13.339844 12.5625 L 13.339844 12.896484 L 11.005859 12.896484 C 11.005859 12.888684 11.003933 12.874969 11 12.855469 L 11 12.755859 C 11 12.572559 11.033309 12.402094 11.099609 12.246094 C 11.165909 12.086194 11.248209 11.937275 11.349609 11.796875 C 11.454909 11.656475 11.570513 11.525197 11.695312 11.404297 C 11.824012 11.283397 11.947453 11.165834 12.064453 11.052734 C 12.161953 10.959134 12.254044 10.869003 12.339844 10.783203 C 12.429544 10.693503 12.505966 10.603366 12.572266 10.509766 C 12.638566 10.416166 12.691469 10.316237 12.730469 10.210938 C 12.769469 10.105638 12.789062 9.9900344 12.789062 9.8652344 C 12.789062 9.5922344 12.714606 9.39825 12.566406 9.28125 C 12.422106 9.16035 12.239878 9.0996094 12.017578 9.0996094 C 11.892778 9.0996094 11.781094 9.1152844 11.683594 9.1464844 C 11.586094 9.1776844 11.499881 9.2149125 11.425781 9.2578125 C 11.355581 9.2968125 11.296794 9.3379594 11.246094 9.3808594 C 11.195394 9.4237594 11.158166 9.4570688 11.134766 9.4804688 L 10.935547 9.2167969 C 10.958947 9.1894969 11.000094 9.1503094 11.058594 9.0996094 C 11.120994 9.0450094 11.197409 8.9921062 11.287109 8.9414062 C 11.380709 8.8907063 11.486522 8.8476 11.607422 8.8125 C 11.728322 8.7735 11.863519 8.7539063 12.011719 8.7539062 z "
     id="path4" />
</svg>
