<svg xmlns="http://www.w3.org/2000/svg" viewBox="0 0 16 16">
 <path d="m 1.6 0 c -0.886 0 -1.6 0.713 -1.6 1.6 l 0 12.801 c 0 0.886 0.713 1.6 1.6 1.6 l 12.801 0 c 0.886 0 1.6 -0.713 1.6 -1.6 l 0 -12.801 c 0 -0.886 -0.713 -1.6 -1.6 -1.6 l -12.801 0 z m 0.234 4.859 l 4.607 0 l 0 0.531 l -1.998 0 l 0 5.705 l -0.611 0 l 0 -5.705 l -1.998 0 l 0 -0.531 z m 7.07 1.494 c 0.432 0 0.775 0.03 1.033 0.09 c 0.264 0.054 0.48 0.108 0.648 0.162 l 0 4.248 c 0 0.696 -0.179 1.19 -0.539 1.484 c -0.36 0.3 -0.903 0.449 -1.629 0.449 c -0.3 0 -0.574 -0.022 -0.82 -0.07 c -0.24 -0.042 -0.447 -0.094 -0.621 -0.154 l 0.117 -0.531 c 0.144 0.066 0.34 0.124 0.586 0.172 c 0.252 0.048 0.504 0.072 0.756 0.072 c 0.552 0 0.951 -0.108 1.197 -0.324 c 0.252 -0.21 0.377 -0.574 0.377 -1.09 l 0 -0.305 c -0.036 0.03 -0.09 0.065 -0.162 0.107 c -0.072 0.036 -0.162 0.075 -0.27 0.117 c -0.102 0.042 -0.221 0.077 -0.359 0.107 c -0.132 0.024 -0.283 0.037 -0.451 0.037 c -0.27 0 -0.529 -0.043 -0.781 -0.127 c -0.252 -0.084 -0.474 -0.216 -0.666 -0.396 c -0.186 -0.18 -0.337 -0.409 -0.451 -0.691 c -0.114 -0.288 -0.17 -0.637 -0.17 -1.045 c 0 -0.33 0.05 -0.636 0.152 -0.918 c 0.102 -0.282 0.246 -0.525 0.432 -0.729 c 0.192 -0.21 0.423 -0.372 0.693 -0.486 c 0.276 -0.12 0.586 -0.18 0.928 -0.18 z m 0.008 0.531 c -0.252 0 -0.476 0.045 -0.674 0.135 c -0.192 0.084 -0.358 0.207 -0.496 0.369 c -0.138 0.156 -0.242 0.344 -0.314 0.566 c -0.072 0.216 -0.107 0.457 -0.107 0.721 c 0 0.306 0.041 0.569 0.125 0.791 c 0.084 0.216 0.192 0.393 0.324 0.531 c 0.138 0.138 0.295 0.241 0.469 0.307 c 0.174 0.06 0.349 0.09 0.529 0.09 c 0.264 0 0.505 -0.039 0.721 -0.117 c 0.222 -0.078 0.394 -0.168 0.514 -0.27 l 0 -2.998 c -0.102 -0.03 -0.234 -0.056 -0.396 -0.08 c -0.162 -0.03 -0.393 -0.045 -0.693 -0.045 z m 3.922 1.869 c 0.394 0 0.69 0.098 0.889 0.293 c 0.199 0.191 0.299 0.458 0.299 0.801 c 0 0.152 -0.027 0.297 -0.082 0.434 c -0.055 0.133 -0.129 0.262 -0.223 0.387 c -0.09 0.125 -0.194 0.244 -0.311 0.361 c -0.117 0.117 -0.235 0.235 -0.355 0.352 c -0.101 0.098 -0.201 0.197 -0.299 0.299 c -0.094 0.097 -0.18 0.197 -0.258 0.299 c -0.074 0.097 -0.135 0.194 -0.182 0.291 c -0.043 0.094 -0.064 0.188 -0.064 0.281 l 0 0.012 l 1.914 0 l 0 0.334 l -2.334 0 c 0 -0.008 -0.002 -0.022 -0.006 -0.041 l 0 -0.1 c 0 -0.183 0.033 -0.354 0.1 -0.51 c 0.066 -0.16 0.149 -0.309 0.25 -0.449 c 0.105 -0.14 0.221 -0.272 0.346 -0.393 c 0.129 -0.121 0.252 -0.238 0.369 -0.352 c 0.098 -0.094 0.19 -0.184 0.275 -0.27 c 0.09 -0.09 0.166 -0.18 0.232 -0.273 c 0.066 -0.094 0.119 -0.194 0.158 -0.299 c 0.039 -0.105 0.059 -0.221 0.059 -0.346 c 0 -0.273 -0.074 -0.467 -0.223 -0.584 c -0.144 -0.121 -0.327 -0.182 -0.549 -0.182 c -0.125 0 -0.236 0.016 -0.334 0.047 c -0.098 0.031 -0.184 0.068 -0.258 0.111 c -0.07 0.039 -0.129 0.08 -0.18 0.123 c -0.051 0.043 -0.088 0.076 -0.111 0.1 l -0.199 -0.264 c 0.023 -0.027 0.065 -0.066 0.123 -0.117 c 0.062 -0.055 0.139 -0.108 0.229 -0.158 c 0.094 -0.051 0.199 -0.094 0.32 -0.129 c 0.121 -0.039 0.256 -0.059 0.404 -0.059 z" style="fill:#ececec;fill-opacity:1"/>
</svg>
