<?xml version="1.0" encoding="UTF-8" standalone="no"?>
<svg
   xmlns:dc="http://purl.org/dc/elements/1.1/"
   xmlns:cc="http://creativecommons.org/ns#"
   xmlns:rdf="http://www.w3.org/1999/02/22-rdf-syntax-ns#"
   xmlns:svg="http://www.w3.org/2000/svg"
   xmlns="http://www.w3.org/2000/svg"
   xmlns:sodipodi="http://sodipodi.sourceforge.net/DTD/sodipodi-0.dtd"
   xmlns:inkscape="http://www.inkscape.org/namespaces/inkscape"
   viewBox="0 0 16 16"
   id="svg2"
   version="1.1"
   inkscape:version="0.91 r13725"
   sodipodi:docname="indicator-keyboard-Sd.svg">
  <metadata
     id="metadata13">
    <rdf:RDF>
      <cc:Work
         rdf:about="">
        <dc:format>image/svg+xml</dc:format>
        <dc:type
           rdf:resource="http://purl.org/dc/dcmitype/StillImage" />
      </cc:Work>
    </rdf:RDF>
  </metadata>
  <defs
     id="defs11" />
  <sodipodi:namedview
     pagecolor="#ffffff"
     bordercolor="#666666"
     borderopacity="1"
     objecttolerance="10"
     gridtolerance="10"
     guidetolerance="10"
     inkscape:pageopacity="0"
     inkscape:pageshadow="2"
     inkscape:window-width="640"
     inkscape:window-height="480"
     id="namedview9"
     showgrid="false"
     inkscape:zoom="14.75"
     inkscape:cx="8"
     inkscape:cy="8"
     inkscape:window-x="65"
     inkscape:window-y="24"
     inkscape:window-maximized="0"
     inkscape:current-layer="svg2" />
  <path
     style="fill:#ececec;fill-opacity:1"
     d="M 1.5996094 0 C 0.71320937 2.9605947e-16 0 0.71320937 0 1.5996094 L 0 14.400391 C 2.9605947e-16 15.286791 0.71320937 16 1.5996094 16 L 14.400391 16 C 15.286791 16 16 15.286791 16 14.400391 L 16 1.5996094 C 16 0.71320937 15.286791 0 14.400391 0 L 1.5996094 0 z M 12.412109 4.4414062 L 12.412109 11.28125 C 12.238109 11.34125 12.016094 11.397172 11.746094 11.451172 C 11.476094 11.505172 11.134703 11.533203 10.720703 11.533203 C 10.378703 11.533203 10.067156 11.479094 9.7851562 11.371094 C 9.5091562 11.257094 9.2684531 11.094766 9.0644531 10.884766 C 8.8664531 10.674766 8.7097031 10.419141 8.5957031 10.119141 C 8.4877031 9.819141 8.4355469 9.4795625 8.4355469 9.1015625 C 8.4355469 8.7475625 8.4803125 8.4248594 8.5703125 8.1308594 C 8.6663125 7.8308594 8.804375 7.5734219 8.984375 7.3574219 C 9.164375 7.1414219 9.382625 6.9715625 9.640625 6.8515625 C 9.9046251 6.7315625 10.205016 6.671875 10.541016 6.671875 C 10.847016 6.671875 11.110031 6.7166406 11.332031 6.8066406 C 11.560031 6.8906406 11.726125 6.9727813 11.828125 7.0507812 L 11.828125 4.5488281 L 12.412109 4.4414062 z M 5.765625 5.0527344 C 5.933625 5.0527344 6.0977656 5.0638906 6.2597656 5.0878906 C 6.4217656 5.1118906 6.5729375 5.1455 6.7109375 5.1875 C 6.8549375 5.2235 6.9836562 5.2664531 7.0976562 5.3144531 C 7.2176563 5.3624531 7.3165312 5.4127969 7.3945312 5.4667969 L 7.1777344 5.9804688 C 7.0037344 5.8604687 6.7910625 5.7634063 6.5390625 5.6914062 C 6.2930625 5.6194063 6.0262812 5.5839844 5.7382812 5.5839844 C 5.5402812 5.5839844 5.3574531 5.6044844 5.1894531 5.6464844 C 5.0274531 5.6824844 4.885625 5.7459375 4.765625 5.8359375 C 4.645625 5.9199375 4.5505156 6.0281563 4.4785156 6.1601562 C 4.4125156 6.2921563 4.3789062 6.4507187 4.3789062 6.6367188 C 4.3789062 6.8287187 4.4162812 6.9910469 4.4882812 7.1230469 C 4.5602813 7.2550469 4.6591563 7.3688437 4.7851562 7.4648438 C 4.9171563 7.5608438 5.0701406 7.6466094 5.2441406 7.7246094 C 5.4181406 7.8026094 5.6065469 7.88475 5.8105469 7.96875 C 6.0565469 8.07075 6.2879063 8.1733906 6.5039062 8.2753906 C 6.7259063 8.3773906 6.9180781 8.4967656 7.0800781 8.6347656 C 7.2420781 8.7727656 7.3707969 8.9406719 7.4667969 9.1386719 C 7.5627969 9.3366719 7.6113281 9.5791875 7.6113281 9.8671875 C 7.6113281 10.431187 7.411625 10.854719 7.015625 11.136719 C 6.625625 11.418719 6.0958281 11.558594 5.4238281 11.558594 C 5.1838281 11.558594 4.963625 11.543672 4.765625 11.513672 C 4.567625 11.483672 4.3923281 11.44825 4.2363281 11.40625 C 4.0803281 11.35825 3.9478437 11.309719 3.8398438 11.261719 C 3.7318437 11.213719 3.6478906 11.172719 3.5878906 11.136719 L 3.7851562 10.605469 C 3.8451562 10.641469 3.9272969 10.684422 4.0292969 10.732422 C 4.1312969 10.780422 4.2506719 10.827 4.3886719 10.875 C 4.5266719 10.917 4.6814687 10.954375 4.8554688 10.984375 C 5.0294688 11.014375 5.2216406 11.029297 5.4316406 11.029297 C 5.9176406 11.029297 6.2964063 10.941578 6.5664062 10.767578 C 6.8364063 10.587578 6.9707031 10.300297 6.9707031 9.9042969 C 6.9707031 9.6762969 6.9259375 9.4859375 6.8359375 9.3359375 C 6.7519375 9.1799375 6.6381406 9.0512188 6.4941406 8.9492188 C 6.3501406 8.8412187 6.186 8.7516875 6 8.6796875 C 5.814 8.6016875 5.6180625 8.5195469 5.4140625 8.4355469 C 5.1560625 8.3335469 4.9247031 8.2290937 4.7207031 8.1210938 C 4.5167031 8.0130937 4.3432188 7.8937188 4.1992188 7.7617188 C 4.0552188 7.6237188 3.9451875 7.4669687 3.8671875 7.2929688 C 3.7951875 7.1189687 3.7578125 6.9156406 3.7578125 6.6816406 C 3.7578125 6.1476406 3.9350625 5.7427969 4.2890625 5.4667969 C 4.6430625 5.1907969 5.135625 5.0527344 5.765625 5.0527344 z M 10.59375 7.203125 C 10.30575 7.203125 10.063234 7.2554219 9.8652344 7.3574219 C 9.6732344 7.4594219 9.5184375 7.5955313 9.3984375 7.7695312 C 9.2784375 7.9375312 9.1907187 8.1390469 9.1367188 8.3730469 C 9.0827188 8.6010469 9.0546875 8.8435625 9.0546875 9.1015625 C 9.0546875 9.7135622 9.2076719 10.185625 9.5136719 10.515625 C 9.8196719 10.839625 10.226469 11.001953 10.730469 11.001953 C 11.018469 11.001953 11.247875 10.988844 11.421875 10.964844 C 11.601875 10.934844 11.738125 10.905 11.828125 10.875 L 11.828125 7.6171875 C 11.774125 7.5751875 11.705094 7.5304219 11.621094 7.4824219 C 11.543094 7.4344219 11.449797 7.3896562 11.341797 7.3476562 C 11.233797 7.3056562 11.116234 7.2720469 10.990234 7.2480469 C 10.864234 7.2180469 10.73175 7.203125 10.59375 7.203125 z "
     id="path4" />
</svg>
