<?xml version="1.0" encoding="UTF-8" standalone="no"?>
<svg
   xmlns:dc="http://purl.org/dc/elements/1.1/"
   xmlns:cc="http://creativecommons.org/ns#"
   xmlns:rdf="http://www.w3.org/1999/02/22-rdf-syntax-ns#"
   xmlns:svg="http://www.w3.org/2000/svg"
   xmlns="http://www.w3.org/2000/svg"
   xmlns:sodipodi="http://sodipodi.sourceforge.net/DTD/sodipodi-0.dtd"
   xmlns:inkscape="http://www.inkscape.org/namespaces/inkscape"
   viewBox="0 0 16 16"
   id="svg2"
   version="1.1"
   inkscape:version="0.91 r13725"
   sodipodi:docname="indicator-keyboard-Fi-2.svg">
  <metadata
     id="metadata14">
    <rdf:RDF>
      <cc:Work
         rdf:about="">
        <dc:format>image/svg+xml</dc:format>
        <dc:type
           rdf:resource="http://purl.org/dc/dcmitype/StillImage" />
      </cc:Work>
    </rdf:RDF>
  </metadata>
  <defs
     id="defs12" />
  <sodipodi:namedview
     pagecolor="#ffffff"
     bordercolor="#666666"
     borderopacity="1"
     objecttolerance="10"
     gridtolerance="10"
     guidetolerance="10"
     inkscape:pageopacity="0"
     inkscape:pageshadow="2"
     inkscape:window-width="640"
     inkscape:window-height="480"
     id="namedview10"
     showgrid="false"
     inkscape:zoom="14.75"
     inkscape:cx="8"
     inkscape:cy="8"
     inkscape:window-x="65"
     inkscape:window-y="24"
     inkscape:window-maximized="0"
     inkscape:current-layer="svg2" />
  <path
     style="fill:#ececec;fill-opacity:1"
     d="M 1.5996094 0 C 0.71320937 2.9605947e-16 0 0.71320937 0 1.5996094 L 0 14.400391 C 2.9605947e-16 15.286791 0.71320937 16 1.5996094 16 L 14.400391 16 C 15.286791 16 16 15.286791 16 14.400391 L 16 1.5996094 C 16 0.71320937 15.286791 0 14.400391 0 L 1.5996094 0 z M 8.5273438 4.5898438 C 8.6473437 4.5898438 8.7499844 4.6308438 8.8339844 4.7148438 C 8.9179844 4.7928438 8.9589844 4.9010625 8.9589844 5.0390625 C 8.9589844 5.1770625 8.9179844 5.2870937 8.8339844 5.3710938 C 8.7499844 5.4490937 8.6473437 5.4882813 8.5273438 5.4882812 C 8.4073438 5.4882812 8.3047031 5.4490937 8.2207031 5.3710938 C 8.1367031 5.2870937 8.0957031 5.1770625 8.0957031 5.0390625 C 8.0957031 4.9010625 8.1367031 4.7928438 8.2207031 4.7148438 C 8.3047031 4.6308438 8.4073438 4.5898437 8.5273438 4.5898438 z M 3.5996094 4.859375 L 7.1542969 4.859375 L 7.1542969 5.390625 L 4.2109375 5.390625 L 4.2109375 7.5859375 L 6.8222656 7.5859375 L 6.8222656 8.1171875 L 4.2109375 8.1171875 L 4.2109375 11.095703 L 3.5996094 11.095703 L 3.5996094 4.859375 z M 8.2402344 6.4433594 L 8.8242188 6.4433594 L 8.8242188 11.095703 L 8.2402344 11.095703 L 8.2402344 6.4433594 z M 11.072266 8.7539062 C 11.466166 8.7539062 11.762038 8.851875 11.960938 9.046875 C 12.159838 9.237975 12.259766 9.5044563 12.259766 9.8476562 C 12.259766 9.9997563 12.232334 10.14475 12.177734 10.28125 C 12.123134 10.41385 12.048678 10.543169 11.955078 10.667969 C 11.865378 10.792769 11.763484 10.912297 11.646484 11.029297 C 11.529484 11.146297 11.409962 11.263859 11.289062 11.380859 C 11.187663 11.478359 11.087734 11.578288 10.990234 11.679688 C 10.896634 11.777188 10.810422 11.877116 10.732422 11.978516 C 10.658322 12.076016 10.599534 12.172031 10.552734 12.269531 C 10.509834 12.363131 10.488281 12.457181 10.488281 12.550781 L 10.488281 12.5625 L 12.400391 12.5625 L 12.400391 12.896484 L 10.066406 12.896484 C 10.066406 12.888684 10.06448 12.874969 10.060547 12.855469 L 10.060547 12.755859 C 10.060547 12.572559 10.093856 12.402094 10.160156 12.246094 C 10.226456 12.086194 10.310709 11.937275 10.412109 11.796875 C 10.517409 11.656475 10.631059 11.525197 10.755859 11.404297 C 10.884559 11.283397 11.008 11.165834 11.125 11.052734 C 11.2225 10.959134 11.314591 10.869003 11.400391 10.783203 C 11.490091 10.693503 11.568466 10.603366 11.634766 10.509766 C 11.701066 10.416166 11.752016 10.316237 11.791016 10.210938 C 11.830016 10.105638 11.849609 9.9900344 11.849609 9.8652344 C 11.849609 9.5922344 11.777106 9.39825 11.628906 9.28125 C 11.484606 9.16035 11.300425 9.0996094 11.078125 9.0996094 C 10.953325 9.0996094 10.841641 9.1152844 10.744141 9.1464844 C 10.646641 9.1776844 10.562381 9.2149125 10.488281 9.2578125 C 10.418081 9.2968125 10.357341 9.3379594 10.306641 9.3808594 C 10.255941 9.4237594 10.218712 9.4570688 10.195312 9.4804688 L 9.9960938 9.2167969 C 10.019494 9.1894969 10.060641 9.1503094 10.119141 9.0996094 C 10.181541 9.0450094 10.257956 8.9921062 10.347656 8.9414062 C 10.441256 8.8907063 10.547069 8.8476 10.667969 8.8125 C 10.788869 8.7735 10.924066 8.7539063 11.072266 8.7539062 z "
     id="path4" />
</svg>
