<?xml version="1.0" encoding="UTF-8" standalone="no"?>
<svg
   xmlns:dc="http://purl.org/dc/elements/1.1/"
   xmlns:cc="http://creativecommons.org/ns#"
   xmlns:rdf="http://www.w3.org/1999/02/22-rdf-syntax-ns#"
   xmlns:svg="http://www.w3.org/2000/svg"
   xmlns="http://www.w3.org/2000/svg"
   xmlns:sodipodi="http://sodipodi.sourceforge.net/DTD/sodipodi-0.dtd"
   xmlns:inkscape="http://www.inkscape.org/namespaces/inkscape"
   viewBox="0 0 16 16"
   id="svg2"
   version="1.1"
   inkscape:version="0.91 r13725"
   sodipodi:docname="indicator-keyboard-Sr-5.svg">
  <metadata
     id="metadata14">
    <rdf:RDF>
      <cc:Work
         rdf:about="">
        <dc:format>image/svg+xml</dc:format>
        <dc:type
           rdf:resource="http://purl.org/dc/dcmitype/StillImage" />
      </cc:Work>
    </rdf:RDF>
  </metadata>
  <defs
     id="defs12" />
  <sodipodi:namedview
     pagecolor="#ffffff"
     bordercolor="#666666"
     borderopacity="1"
     objecttolerance="10"
     gridtolerance="10"
     guidetolerance="10"
     inkscape:pageopacity="0"
     inkscape:pageshadow="2"
     inkscape:window-width="459"
     inkscape:window-height="369"
     id="namedview10"
     showgrid="false"
     inkscape:zoom="14.75"
     inkscape:cx="8"
     inkscape:cy="8"
     inkscape:window-x="65"
     inkscape:window-y="24"
     inkscape:window-maximized="0"
     inkscape:current-layer="svg2" />
  <path
     style="fill:#ececec;fill-opacity:1"
     d="M 1.5996094 0 C 0.71320937 2.9605947e-16 0 0.71320937 0 1.5996094 L 0 14.400391 C 2.9605947e-16 15.286791 0.71320937 16 1.5996094 16 L 14.400391 16 C 15.286791 16 16 15.286791 16 14.400391 L 16 1.5996094 C 16 0.71320937 15.286791 0 14.400391 0 L 1.5996094 0 z M 4.9101562 4.7246094 C 5.0781562 4.7246094 5.24425 4.7357656 5.40625 4.7597656 C 5.56825 4.7837656 5.7174688 4.817375 5.8554688 4.859375 C 5.9994687 4.895375 6.1281875 4.936375 6.2421875 4.984375 C 6.3621875 5.032375 6.4610625 5.0846719 6.5390625 5.1386719 L 6.3242188 5.6503906 C 6.1502187 5.5303906 5.9355937 5.4352813 5.6835938 5.3632812 C 5.4375938 5.2912813 5.1708125 5.2558594 4.8828125 5.2558594 C 4.6848125 5.2558594 4.5019844 5.2763594 4.3339844 5.3183594 C 4.1719844 5.3543594 4.0321094 5.4178125 3.9121094 5.5078125 C 3.7921094 5.5918125 3.6950469 5.6980781 3.6230469 5.8300781 C 3.5570469 5.9620781 3.5234375 6.1225938 3.5234375 6.3085938 C 3.5234375 6.5005938 3.5608125 6.6629219 3.6328125 6.7949219 C 3.7048125 6.9269219 3.8036875 7.0407187 3.9296875 7.1367188 C 4.0616875 7.2327187 4.2146719 7.3184844 4.3886719 7.3964844 C 4.5626719 7.4744844 4.7510781 7.556625 4.9550781 7.640625 C 5.2010781 7.742625 5.4324375 7.8433125 5.6484375 7.9453125 C 5.8704375 8.0473125 6.0626094 8.1686406 6.2246094 8.3066406 C 6.3866094 8.4446406 6.5153281 8.6125469 6.6113281 8.8105469 C 6.7073281 9.0085469 6.7558594 9.2510625 6.7558594 9.5390625 C 6.7558594 10.103063 6.5581094 10.526594 6.1621094 10.808594 C 5.7721094 11.090594 5.2403594 11.230469 4.5683594 11.230469 C 4.3283594 11.230469 4.1101094 11.215547 3.9121094 11.185547 C 3.7141094 11.155547 3.5368594 11.120125 3.3808594 11.078125 C 3.2248594 11.030125 3.092375 10.981594 2.984375 10.933594 C 2.876375 10.885594 2.7924219 10.844594 2.7324219 10.808594 L 2.9296875 10.277344 C 2.9896875 10.313344 3.0718281 10.354344 3.1738281 10.402344 C 3.2758281 10.450344 3.3952031 10.498875 3.5332031 10.546875 C 3.6712031 10.588875 3.8279531 10.624297 4.0019531 10.654297 C 4.1759531 10.684297 4.368125 10.699219 4.578125 10.699219 C 5.064125 10.699219 5.4409375 10.613453 5.7109375 10.439453 C 5.9809375 10.259453 6.1171875 9.970219 6.1171875 9.5742188 C 6.1171875 9.3462187 6.0704688 9.1578125 5.9804688 9.0078125 C 5.8964687 8.8518125 5.7826719 8.7230938 5.6386719 8.6210938 C 5.4946719 8.5130937 5.3305312 8.4235625 5.1445312 8.3515625 C 4.9585312 8.2735625 4.7625938 8.1914219 4.5585938 8.1074219 C 4.3005938 8.0054219 4.0711875 7.9009687 3.8671875 7.7929688 C 3.6631875 7.6849688 3.48775 7.5655937 3.34375 7.4335938 C 3.19975 7.2955937 3.0897188 7.1388438 3.0117188 6.9648438 C 2.9397187 6.7908437 2.9042969 6.5875156 2.9042969 6.3535156 C 2.9042969 5.8195156 3.0795938 5.4146719 3.4335938 5.1386719 C 3.7875937 4.8626719 4.2801563 4.7246094 4.9101562 4.7246094 z M 9.4433594 6.3535156 C 9.6353594 6.3535156 9.8144219 6.3684375 9.9824219 6.3984375 C 10.156422 6.4284375 10.275797 6.4582812 10.341797 6.4882812 L 10.226562 6.9921875 C 10.178563 6.9681875 10.077734 6.9439219 9.9277344 6.9199219 C 9.7837344 6.8899219 9.5935156 6.875 9.3535156 6.875 C 9.1015156 6.875 8.8962344 6.8936875 8.7402344 6.9296875 C 8.5902344 6.9656875 8.4913594 6.9955312 8.4433594 7.0195312 L 8.4433594 11.095703 L 7.859375 11.095703 L 7.859375 6.6582031 C 8.009375 6.5922031 8.2164688 6.5269375 8.4804688 6.4609375 C 8.7444687 6.3889375 9.0653594 6.3535156 9.4433594 6.3535156 z M 11.302734 8.8417969 L 13.126953 8.8417969 L 13.126953 9.1757812 L 11.634766 9.1757812 C 11.630899 9.2498812 11.625021 9.3458906 11.617188 9.4628906 C 11.609388 9.5798906 11.60155 9.6994188 11.59375 9.8242188 C 11.58595 9.9451188 11.576153 10.062681 11.564453 10.175781 C 11.552753 10.288881 11.542956 10.379012 11.535156 10.445312 C 11.835456 10.453112 12.096053 10.490341 12.314453 10.556641 C 12.532853 10.622941 12.711163 10.711119 12.851562 10.824219 C 12.991963 10.937319 13.095809 11.074475 13.162109 11.234375 C 13.232309 11.394275 13.267578 11.572578 13.267578 11.767578 C 13.267578 11.939178 13.238188 12.097894 13.179688 12.246094 C 13.125088 12.394294 13.038875 12.523613 12.921875 12.632812 C 12.804875 12.742012 12.657916 12.828225 12.478516 12.890625 C 12.299116 12.953025 12.085544 12.984375 11.839844 12.984375 C 11.715044 12.984375 11.597481 12.974578 11.488281 12.955078 C 11.382981 12.939478 11.288925 12.919884 11.203125 12.896484 C 11.121225 12.873084 11.050688 12.849572 10.992188 12.826172 C 10.933688 12.802772 10.890581 12.783178 10.863281 12.767578 L 10.962891 12.427734 C 10.986291 12.443334 11.025478 12.462928 11.080078 12.486328 C 11.138578 12.509728 11.205197 12.533241 11.279297 12.556641 C 11.357297 12.576141 11.441556 12.593775 11.535156 12.609375 C 11.632656 12.624975 11.734544 12.632812 11.839844 12.632812 C 12.034844 12.632812 12.197472 12.611259 12.326172 12.568359 C 12.458772 12.521559 12.564578 12.458859 12.642578 12.380859 C 12.720578 12.302859 12.773487 12.212728 12.804688 12.111328 C 12.839787 12.006028 12.857422 11.894337 12.857422 11.773438 C 12.857422 11.617437 12.83195 11.476362 12.78125 11.351562 C 12.73055 11.226762 12.642372 11.120956 12.513672 11.035156 C 12.384972 10.949356 12.210587 10.884697 11.992188 10.841797 C 11.773787 10.794997 11.497509 10.771484 11.162109 10.771484 C 11.185509 10.572584 11.205103 10.392316 11.220703 10.228516 C 11.236303 10.060816 11.250019 9.9001469 11.261719 9.7480469 C 11.273419 9.5920469 11.281256 9.4431281 11.285156 9.2988281 C 11.292956 9.1506281 11.298834 8.9977969 11.302734 8.8417969 z "
     id="path4" />
</svg>
