<?xml version="1.0" encoding="UTF-8" standalone="no"?>
<svg
   xmlns:dc="http://purl.org/dc/elements/1.1/"
   xmlns:cc="http://creativecommons.org/ns#"
   xmlns:rdf="http://www.w3.org/1999/02/22-rdf-syntax-ns#"
   xmlns:svg="http://www.w3.org/2000/svg"
   xmlns="http://www.w3.org/2000/svg"
   xmlns:sodipodi="http://sodipodi.sourceforge.net/DTD/sodipodi-0.dtd"
   xmlns:inkscape="http://www.inkscape.org/namespaces/inkscape"
   viewBox="0 0 16 16"
   id="svg2"
   version="1.1"
   inkscape:version="0.91 r13725"
   sodipodi:docname="indicator-keyboard-Km.svg">
  <metadata
     id="metadata13">
    <rdf:RDF>
      <cc:Work
         rdf:about="">
        <dc:format>image/svg+xml</dc:format>
        <dc:type
           rdf:resource="http://purl.org/dc/dcmitype/StillImage" />
      </cc:Work>
    </rdf:RDF>
  </metadata>
  <defs
     id="defs11" />
  <sodipodi:namedview
     pagecolor="#ffffff"
     bordercolor="#666666"
     borderopacity="1"
     objecttolerance="10"
     gridtolerance="10"
     guidetolerance="10"
     inkscape:pageopacity="0"
     inkscape:pageshadow="2"
     inkscape:window-width="640"
     inkscape:window-height="480"
     id="namedview9"
     showgrid="false"
     inkscape:zoom="14.75"
     inkscape:cx="8"
     inkscape:cy="8"
     inkscape:window-x="65"
     inkscape:window-y="24"
     inkscape:window-maximized="0"
     inkscape:current-layer="svg2" />
  <path
     style="fill:#ececec;fill-opacity:1"
     d="M 1.5996094 0 C 0.71320937 2.9605947e-16 0 0.71320937 0 1.5996094 L 0 14.400391 C 2.9605947e-16 15.286791 0.71320937 16 1.5996094 16 L 14.400391 16 C 15.286791 16 16 15.286791 16 14.400391 L 16 1.5996094 C 16 0.71320937 15.286791 0 14.400391 0 L 1.5996094 0 z M 2.1835938 4.8808594 L 2.7949219 4.8808594 L 2.7949219 7.7890625 C 3.0229219 7.5850625 3.2747812 7.3499375 3.5507812 7.0859375 C 3.8327812 6.8159375 4.1089063 6.5473437 4.3789062 6.2773438 C 4.6549062 6.0073438 4.9123438 5.7479531 5.1523438 5.5019531 C 5.3923437 5.2559531 5.5845156 5.0488594 5.7285156 4.8808594 L 6.4667969 4.8808594 C 6.2927969 5.0668594 6.0838906 5.288875 5.8378906 5.546875 C 5.5918906 5.798875 5.3306875 6.0600781 5.0546875 6.3300781 C 4.7786875 6.6000781 4.5025625 6.8668594 4.2265625 7.1308594 C 3.9565625 7.3888594 3.7140469 7.6184063 3.4980469 7.8164062 C 3.6720469 7.9244063 3.8566875 8.0587031 4.0546875 8.2207031 C 4.2586875 8.3767031 4.4639687 8.5501875 4.6679688 8.7421875 C 4.8779688 8.9281875 5.0812969 9.1259375 5.2792969 9.3359375 C 5.4832969 9.5399375 5.6717031 9.7470313 5.8457031 9.9570312 C 6.0257031 10.167031 6.1862188 10.372313 6.3242188 10.570312 C 6.4682188 10.768313 6.5838281 10.951141 6.6738281 11.119141 L 5.9902344 11.119141 C 5.7862344 10.807141 5.554875 10.497406 5.296875 10.191406 C 5.044875 9.8854061 4.7780937 9.598125 4.4960938 9.328125 C 4.2140938 9.058125 3.9268125 8.8118437 3.6328125 8.5898438 C 3.3448125 8.3678438 3.0649219 8.18125 2.7949219 8.03125 L 2.7949219 11.119141 L 2.1835938 11.119141 L 2.1835938 4.8808594 z M 9.3085938 6.375 C 9.8965938 6.375 10.321937 6.5466719 10.585938 6.8886719 C 10.615937 6.8646719 10.671859 6.8254844 10.755859 6.7714844 C 10.845859 6.7114844 10.957844 6.6517969 11.089844 6.5917969 C 11.221844 6.5317969 11.374828 6.4814531 11.548828 6.4394531 C 11.728828 6.3974531 11.926578 6.375 12.142578 6.375 C 12.496578 6.375 12.782047 6.4291094 12.998047 6.5371094 C 13.220047 6.6391094 13.389766 6.7865156 13.509766 6.9785156 C 13.629766 7.1645156 13.711906 7.3902969 13.753906 7.6542969 C 13.795906 7.9182969 13.816406 8.2055781 13.816406 8.5175781 L 13.816406 11.119141 L 13.232422 11.119141 L 13.232422 8.7070312 C 13.232422 8.4010313 13.2175 8.1360625 13.1875 7.9140625 C 13.1635 7.6860625 13.109391 7.5014219 13.025391 7.3574219 C 12.947391 7.2074219 12.833594 7.0954375 12.683594 7.0234375 C 12.533594 6.9454375 12.337656 6.90625 12.097656 6.90625 C 11.917656 6.90625 11.753516 6.9249375 11.603516 6.9609375 C 11.459516 6.9909375 11.332609 7.030125 11.224609 7.078125 C 11.116609 7.126125 11.027078 7.1727031 10.955078 7.2207031 C 10.889078 7.2687031 10.840547 7.3060781 10.810547 7.3300781 C 10.864547 7.4860781 10.903734 7.6633281 10.927734 7.8613281 C 10.957734 8.0533281 10.972656 8.2566562 10.972656 8.4726562 L 10.972656 11.119141 L 10.388672 11.119141 L 10.388672 8.7070312 C 10.388672 8.4010313 10.371797 8.1360625 10.341797 7.9140625 C 10.317797 7.6860625 10.265641 7.5014219 10.181641 7.3574219 C 10.097641 7.2074219 9.9763125 7.0954375 9.8203125 7.0234375 C 9.6703125 6.9454375 9.4687969 6.90625 9.2167969 6.90625 C 8.9347969 6.90625 8.6960469 6.9211719 8.4980469 6.9511719 C 8.3060469 6.9811719 8.1829062 7.0092031 8.1289062 7.0332031 L 8.1289062 11.119141 L 7.5429688 11.119141 L 7.5429688 6.6269531 C 7.7169688 6.5789531 7.94275 6.5248438 8.21875 6.4648438 C 8.50075 6.4048438 8.8645938 6.375 9.3085938 6.375 z "
     id="path4" />
</svg>
