<?xml version="1.0" encoding="UTF-8" standalone="no"?>
<svg
   xmlns:dc="http://purl.org/dc/elements/1.1/"
   xmlns:cc="http://creativecommons.org/ns#"
   xmlns:rdf="http://www.w3.org/1999/02/22-rdf-syntax-ns#"
   xmlns:svg="http://www.w3.org/2000/svg"
   xmlns="http://www.w3.org/2000/svg"
   xmlns:sodipodi="http://sodipodi.sourceforge.net/DTD/sodipodi-0.dtd"
   xmlns:inkscape="http://www.inkscape.org/namespaces/inkscape"
   viewBox="0 0 16 16"
   id="svg2"
   version="1.1"
   inkscape:version="0.91 r13725"
   sodipodi:docname="indicator-keyboard-Be-4.svg">
  <metadata
     id="metadata14">
    <rdf:RDF>
      <cc:Work
         rdf:about="">
        <dc:format>image/svg+xml</dc:format>
        <dc:type
           rdf:resource="http://purl.org/dc/dcmitype/StillImage" />
      </cc:Work>
    </rdf:RDF>
  </metadata>
  <defs
     id="defs12" />
  <sodipodi:namedview
     pagecolor="#ffffff"
     bordercolor="#666666"
     borderopacity="1"
     objecttolerance="10"
     gridtolerance="10"
     guidetolerance="10"
     inkscape:pageopacity="0"
     inkscape:pageshadow="2"
     inkscape:window-width="640"
     inkscape:window-height="480"
     id="namedview10"
     showgrid="false"
     inkscape:zoom="14.75"
     inkscape:cx="8"
     inkscape:cy="8"
     inkscape:window-x="65"
     inkscape:window-y="24"
     inkscape:window-maximized="0"
     inkscape:current-layer="svg2" />
  <path
     style="fill:#ececec;fill-opacity:1"
     d="M 1.5996094 0 C 0.71320937 2.9605947e-16 0 0.71320937 0 1.5996094 L 0 14.400391 C 2.9605947e-16 15.286791 0.71320937 16 1.5996094 16 L 14.400391 16 C 15.286791 16 16 15.286791 16 14.400391 L 16 1.5996094 C 16 0.71320937 15.286791 0 14.400391 0 L 1.5996094 0 z M 3.1503906 4.8046875 C 3.4863906 4.8046875 3.8035156 4.8327187 4.1035156 4.8867188 C 4.4095156 4.9407188 4.6762969 5.03025 4.9042969 5.15625 C 5.1322969 5.28225 5.3133125 5.4501562 5.4453125 5.6601562 C 5.5833125 5.8641562 5.6523438 6.1197813 5.6523438 6.4257812 C 5.6523438 6.7617813 5.564625 7.0490625 5.390625 7.2890625 C 5.222625 7.5230625 4.9950313 7.6853906 4.7070312 7.7753906 C 4.8870312 7.8173906 5.0511719 7.8770781 5.2011719 7.9550781 C 5.3511719 8.0330781 5.4836562 8.1357187 5.5976562 8.2617188 C 5.7116563 8.3817188 5.799375 8.5309375 5.859375 8.7109375 C 5.925375 8.8849375 5.9570313 9.0957969 5.9570312 9.3417969 C 5.9570312 9.9297971 5.7238594 10.379406 5.2558594 10.691406 C 4.7878594 10.997406 4.0658906 11.150391 3.0878906 11.150391 C 2.9858906 11.150391 2.8645625 11.144813 2.7265625 11.132812 C 2.5945625 11.126813 2.4565 11.113703 2.3125 11.095703 C 2.1745 11.083703 2.0420156 11.068781 1.9160156 11.050781 C 1.7900156 11.026781 1.68375 11.002516 1.59375 10.978516 L 1.59375 4.9765625 C 1.70175 4.9465625 1.821125 4.9222969 1.953125 4.9042969 C 2.085125 4.8802969 2.2194219 4.8616094 2.3574219 4.8496094 C 2.5014219 4.8316094 2.6394844 4.8204531 2.7714844 4.8144531 C 2.9094844 4.8084531 3.0363906 4.8046875 3.1503906 4.8046875 z M 3.1503906 5.3261719 C 2.9283906 5.3261719 2.7380313 5.3337031 2.5820312 5.3457031 C 2.4320313 5.3577031 2.3070781 5.372625 2.2050781 5.390625 L 2.2050781 7.5859375 L 3.3925781 7.5859375 C 3.6145781 7.5859375 3.8254375 7.5710156 4.0234375 7.5410156 C 4.2214375 7.5050156 4.3911562 7.4453281 4.5351562 7.3613281 C 4.6851562 7.2713281 4.8027188 7.1537656 4.8867188 7.0097656 C 4.9707187 6.8597656 5.0136719 6.6713594 5.0136719 6.4433594 C 5.0136719 6.2393594 4.9689063 6.0676875 4.8789062 5.9296875 C 4.7889062 5.7856875 4.6582344 5.668125 4.4902344 5.578125 C 4.3282344 5.488125 4.13425 5.426625 3.90625 5.390625 C 3.67825 5.348625 3.4263906 5.3261719 3.1503906 5.3261719 z M 8.9902344 6.3359375 C 9.5602344 6.3359375 10.013609 6.5205781 10.349609 6.8925781 C 10.691609 7.2645781 10.861328 7.8373281 10.861328 8.6113281 C 10.861328 8.6593281 10.859516 8.7078594 10.853516 8.7558594 C 10.853516 8.8038594 10.84975 8.848625 10.84375 8.890625 L 7.5761719 8.890625 C 7.5941719 9.460625 7.736 9.8990779 8 10.205078 C 8.264 10.511078 8.6837656 10.664062 9.2597656 10.664062 C 9.5777656 10.664062 9.8296247 10.634219 10.015625 10.574219 C 10.201625 10.514219 10.335922 10.463875 10.419922 10.421875 L 10.529297 10.925781 C 10.445297 10.973781 10.284781 11.029703 10.050781 11.095703 C 9.822781 11.161703 9.5541875 11.195312 9.2421875 11.195312 C 8.8341875 11.195312 8.4852656 11.135625 8.1972656 11.015625 C 7.9092656 10.895625 7.6723281 10.727719 7.4863281 10.511719 C 7.3003281 10.295719 7.1660312 10.040094 7.0820312 9.7460938 C 6.9980313 9.4460938 6.9550781 9.119625 6.9550781 8.765625 C 6.9550781 8.357625 7.0129531 8.003125 7.1269531 7.703125 C 7.2469531 7.397125 7.3999375 7.1415 7.5859375 6.9375 C 7.7779375 6.7335 7.994375 6.5842813 8.234375 6.4882812 C 8.480375 6.3862812 8.7322344 6.3359375 8.9902344 6.3359375 z M 8.9980469 6.8574219 C 8.7880469 6.8574219 8.5996406 6.8984219 8.4316406 6.9824219 C 8.2696406 7.0664219 8.126 7.1802187 8 7.3242188 C 7.88 7.4622188 7.7829375 7.6245469 7.7109375 7.8105469 C 7.6449375 7.9965469 7.60575 8.1924844 7.59375 8.3964844 L 10.257812 8.3964844 C 10.245812 7.9104844 10.132016 7.5317187 9.9160156 7.2617188 C 9.7000156 6.9917187 9.3940469 6.8574219 8.9980469 6.8574219 z M 2.2050781 8.1074219 L 2.2050781 10.564453 C 2.2950781 10.576453 2.429375 10.591375 2.609375 10.609375 C 2.789375 10.621375 2.9722031 10.628906 3.1582031 10.628906 C 3.4342031 10.628906 3.7009844 10.610219 3.9589844 10.574219 C 4.2229844 10.538219 4.4543437 10.472953 4.6523438 10.376953 C 4.8503437 10.280953 5.0108594 10.148469 5.1308594 9.9804688 C 5.2508594 9.8124687 5.3105469 9.5960312 5.3105469 9.3320312 C 5.3105469 9.0920313 5.2675938 8.8942813 5.1835938 8.7382812 C 5.0995938 8.5762813 4.9802187 8.449375 4.8242188 8.359375 C 4.6682188 8.263375 4.4760469 8.1981094 4.2480469 8.1621094 C 4.0260469 8.1261094 3.776 8.1074219 3.5 8.1074219 L 2.2050781 8.1074219 z M 13.505859 8.8417969 L 13.904297 8.8417969 L 13.904297 11.486328 L 14.40625 11.486328 L 14.40625 11.796875 L 13.904297 11.796875 L 13.904297 12.896484 L 13.529297 12.896484 L 13.529297 11.796875 L 11.693359 11.796875 L 11.693359 11.5625 C 11.763559 11.3753 11.859575 11.163688 11.984375 10.929688 C 12.113075 10.695687 12.258069 10.456638 12.417969 10.210938 C 12.577869 9.9652374 12.752253 9.7261874 12.939453 9.4921875 C 13.126653 9.2542875 13.31476 9.0367969 13.505859 8.8417969 z M 13.529297 9.2695312 C 13.392798 9.4099312 13.253681 9.5706063 13.113281 9.7539062 C 12.972881 9.9372063 12.839638 10.129225 12.710938 10.328125 C 12.586137 10.523125 12.468575 10.719069 12.359375 10.917969 C 12.250175 11.116869 12.158084 11.306928 12.083984 11.486328 L 13.529297 11.486328 L 13.529297 9.2695312 z "
     id="path4" />
</svg>
