<?xml version="1.0" encoding="UTF-8" standalone="no"?>
<svg
   xmlns:dc="http://purl.org/dc/elements/1.1/"
   xmlns:cc="http://creativecommons.org/ns#"
   xmlns:rdf="http://www.w3.org/1999/02/22-rdf-syntax-ns#"
   xmlns:svg="http://www.w3.org/2000/svg"
   xmlns="http://www.w3.org/2000/svg"
   xmlns:sodipodi="http://sodipodi.sourceforge.net/DTD/sodipodi-0.dtd"
   xmlns:inkscape="http://www.inkscape.org/namespaces/inkscape"
   viewBox="0 0 16 16"
   id="svg2"
   version="1.1"
   inkscape:version="0.91 r13725"
   sodipodi:docname="indicator-keyboard-It-4.svg">
  <metadata
     id="metadata14">
    <rdf:RDF>
      <cc:Work
         rdf:about="">
        <dc:format>image/svg+xml</dc:format>
        <dc:type
           rdf:resource="http://purl.org/dc/dcmitype/StillImage" />
      </cc:Work>
    </rdf:RDF>
  </metadata>
  <defs
     id="defs12" />
  <sodipodi:namedview
     pagecolor="#ffffff"
     bordercolor="#666666"
     borderopacity="1"
     objecttolerance="10"
     gridtolerance="10"
     guidetolerance="10"
     inkscape:pageopacity="0"
     inkscape:pageshadow="2"
     inkscape:window-width="459"
     inkscape:window-height="369"
     id="namedview10"
     showgrid="false"
     inkscape:zoom="14.75"
     inkscape:cx="8"
     inkscape:cy="8"
     inkscape:window-x="65"
     inkscape:window-y="24"
     inkscape:window-maximized="0"
     inkscape:current-layer="svg2" />
  <path
     style="fill:#ececec;fill-opacity:1"
     d="M 1.5996094 0 C 0.71320937 2.9605947e-16 0 0.71320937 0 1.5996094 L 0 14.400391 C 2.9605947e-16 15.286791 0.71320937 16 1.5996094 16 L 14.400391 16 C 15.286791 16 16 15.286791 16 14.400391 L 16 1.5996094 C 16 0.71320937 15.286791 0 14.400391 0 L 1.5996094 0 z M 4.0449219 4.859375 L 4.65625 4.859375 L 4.65625 11.095703 L 4.0449219 11.095703 L 4.0449219 4.859375 z M 6.7910156 4.9667969 L 6.7910156 6.4433594 L 8.6445312 6.4433594 L 8.6445312 6.9375 L 6.7910156 6.9375 L 6.7910156 9.4121094 C 6.7910156 9.6761094 6.8115156 9.8925467 6.8535156 10.060547 C 6.9015156 10.222547 6.9667813 10.349453 7.0507812 10.439453 C 7.1347812 10.529453 7.2374219 10.589141 7.3574219 10.619141 C 7.4774219 10.649141 7.6099063 10.664063 7.7539062 10.664062 C 7.9999062 10.664062 8.1976563 10.636031 8.3476562 10.582031 C 8.4976563 10.522031 8.6152187 10.469875 8.6992188 10.421875 L 8.8417969 10.90625 C 8.7577969 10.96025 8.6123438 11.023703 8.4023438 11.095703 C 8.1923437 11.161703 7.9627969 11.195312 7.7167969 11.195312 C 7.4287969 11.195312 7.1862813 11.159891 6.9882812 11.087891 C 6.7962812 11.009891 6.6414844 10.894141 6.5214844 10.744141 C 6.4074844 10.588141 6.3253438 10.397922 6.2773438 10.169922 C 6.2293437 9.9419217 6.2050781 9.671375 6.2050781 9.359375 L 6.2050781 5.0742188 L 6.7910156 4.9667969 z M 11.054688 8.8417969 L 11.451172 8.8417969 L 11.451172 11.486328 L 11.955078 11.486328 L 11.955078 11.796875 L 11.451172 11.796875 L 11.451172 12.896484 L 11.078125 12.896484 L 11.078125 11.796875 L 9.2402344 11.796875 L 9.2402344 11.5625 C 9.3104344 11.3753 9.4084031 11.163688 9.5332031 10.929688 C 9.6619031 10.695687 9.8068969 10.456638 9.9667969 10.210938 C 10.126697 9.9652374 10.299128 9.7261874 10.486328 9.4921875 C 10.673528 9.2542875 10.863587 9.0367969 11.054688 8.8417969 z M 11.078125 9.2695312 C 10.941625 9.4099312 10.802509 9.5706063 10.662109 9.7539062 C 10.521709 9.9372063 10.386512 10.129225 10.257812 10.328125 C 10.133013 10.523125 10.017403 10.719069 9.9082031 10.917969 C 9.7990031 11.116869 9.7069125 11.306928 9.6328125 11.486328 L 11.078125 11.486328 L 11.078125 9.2695312 z "
     id="path4" />
</svg>
