<svg xmlns="http://www.w3.org/2000/svg" viewBox="0 0 16 16">
 <path d="m 1.6 0 c -0.886 0 -1.6 0.713 -1.6 1.6 l 0 12.801 c 0 0.886 0.713 1.6 1.6 1.6 l 12.801 0 c 0.886 0 1.6 -0.713 1.6 -1.6 l 0 -12.801 c 0 -0.886 -0.713 -1.6 -1.6 -1.6 l -12.801 0 z m 3.322 4.828 c 0.336 0 0.655 0.026 0.955 0.08 c 0.306 0.054 0.573 0.144 0.801 0.27 c 0.228 0.126 0.407 0.294 0.539 0.504 c 0.138 0.204 0.207 0.46 0.207 0.766 c 0 0.336 -0.086 0.623 -0.26 0.863 c -0.168 0.234 -0.396 0.396 -0.684 0.486 c 0.18 0.042 0.344 0.102 0.494 0.18 c 0.15 0.078 0.282 0.181 0.396 0.307 c 0.114 0.12 0.2 0.271 0.26 0.451 c 0.066 0.174 0.1 0.383 0.1 0.629 c 0 0.588 -0.233 1.038 -0.701 1.35 c -0.468 0.306 -1.192 0.459 -2.17 0.459 c -0.102 0 -0.221 -0.006 -0.359 -0.018 c -0.132 -0.006 -0.27 -0.017 -0.414 -0.035 c -0.138 -0.012 -0.27 -0.027 -0.396 -0.045 c -0.126 -0.024 -0.234 -0.048 -0.324 -0.072 l 0 -6 c 0.108 -0.03 0.229 -0.054 0.361 -0.072 c 0.132 -0.024 0.266 -0.041 0.404 -0.053 c 0.144 -0.018 0.282 -0.031 0.414 -0.037 c 0.138 -0.006 0.263 -0.008 0.377 -0.008 z m 0 0.521 c -0.222 0 -0.41 0.006 -0.566 0.018 c -0.15 0.012 -0.275 0.027 -0.377 0.045 l 0 2.197 l 1.187 0 c 0.222 0 0.431 -0.015 0.629 -0.045 c 0.198 -0.036 0.37 -0.098 0.514 -0.182 c 0.15 -0.09 0.268 -0.206 0.352 -0.35 c 0.084 -0.15 0.125 -0.34 0.125 -0.568 c 0 -0.204 -0.045 -0.374 -0.135 -0.512 c -0.09 -0.144 -0.219 -0.262 -0.387 -0.352 c -0.162 -0.09 -0.358 -0.153 -0.586 -0.189 c -0.228 -0.042 -0.48 -0.063 -0.756 -0.063 z m 5.867 1.025 c 0.354 0 0.649 0.052 0.883 0.154 c 0.24 0.102 0.428 0.247 0.566 0.439 c 0.144 0.186 0.247 0.412 0.307 0.676 c 0.06 0.264 0.09 0.555 0.09 0.873 l 0 2.602 l -0.586 0 l 0 -2.412 c 0 -0.33 -0.024 -0.61 -0.072 -0.838 c -0.042 -0.228 -0.117 -0.415 -0.225 -0.559 c -0.102 -0.144 -0.24 -0.245 -0.414 -0.305 c -0.168 -0.066 -0.381 -0.1 -0.639 -0.1 c -0.276 0 -0.517 0.015 -0.721 0.045 c -0.198 0.03 -0.327 0.058 -0.387 0.082 l 0 4.086 l -0.584 0 l 0 -4.492 c 0.174 -0.048 0.407 -0.102 0.701 -0.162 c 0.294 -0.06 0.654 -0.09 1.08 -0.09 z m -6.811 1.756 l 0 2.457 c 0.09 0.012 0.224 0.027 0.404 0.045 c 0.18 0.012 0.363 0.018 0.549 0.018 c 0.276 0 0.543 -0.019 0.801 -0.055 c 0.264 -0.036 0.495 -0.101 0.693 -0.197 c 0.198 -0.096 0.357 -0.228 0.477 -0.396 c 0.12 -0.168 0.18 -0.382 0.18 -0.646 c 0 -0.24 -0.041 -0.44 -0.125 -0.596 c -0.084 -0.162 -0.205 -0.287 -0.361 -0.377 c -0.156 -0.096 -0.346 -0.163 -0.574 -0.199 c -0.222 -0.036 -0.472 -0.053 -0.748 -0.053 l -1.295 0 z" style="fill:#ececec;fill-opacity:1"/>
</svg>
