<svg xmlns="http://www.w3.org/2000/svg" viewBox="0 0 16 16">
 <path d="m 1.6 0 c -0.886 0 -1.6 0.713 -1.6 1.6 l 0 12.801 c 0 0.886 0.713 1.6 1.6 1.6 l 12.801 0 c 0.886 0 1.6 -0.713 1.6 -1.6 l 0 -12.801 c 0 -0.886 -0.713 -1.6 -1.6 -1.6 l -12.801 0 z m 0.605 4.859 l 4.609 0 l 0 0.531 l -1.998 0 l 0 5.705 l -0.613 0 l 0 -5.705 l -1.998 0 l 0 -0.531 z m 7.07 1.494 c 0.432 0 0.777 0.03 1.035 0.09 c 0.264 0.054 0.478 0.108 0.646 0.162 l 0 4.248 c 0 0.696 -0.179 1.19 -0.539 1.484 c -0.36 0.3 -0.903 0.449 -1.629 0.449 c -0.3 0 -0.572 -0.022 -0.818 -0.07 c -0.24 -0.042 -0.447 -0.094 -0.621 -0.154 l 0.117 -0.531 c 0.144 0.066 0.338 0.124 0.584 0.172 c 0.252 0.048 0.504 0.072 0.756 0.072 c 0.552 0 0.951 -0.108 1.197 -0.324 c 0.252 -0.21 0.379 -0.574 0.379 -1.09 l 0 -0.305 c -0.036 0.03 -0.09 0.065 -0.162 0.107 c -0.072 0.036 -0.163 0.075 -0.271 0.117 c -0.102 0.042 -0.221 0.077 -0.359 0.107 c -0.132 0.024 -0.281 0.037 -0.449 0.037 c -0.27 0 -0.531 -0.043 -0.783 -0.127 c -0.252 -0.084 -0.474 -0.216 -0.666 -0.396 c -0.186 -0.18 -0.337 -0.409 -0.451 -0.691 c -0.114 -0.288 -0.17 -0.637 -0.17 -1.045 c 0 -0.33 0.05 -0.636 0.152 -0.918 c 0.102 -0.282 0.246 -0.525 0.432 -0.729 c 0.192 -0.21 0.423 -0.372 0.693 -0.486 c 0.276 -0.12 0.586 -0.18 0.928 -0.18 z m 0.008 0.531 c -0.252 0 -0.476 0.045 -0.674 0.135 c -0.192 0.084 -0.358 0.207 -0.496 0.369 c -0.138 0.156 -0.242 0.344 -0.314 0.566 c -0.072 0.216 -0.107 0.457 -0.107 0.721 c 0 0.306 0.041 0.569 0.125 0.791 c 0.084 0.216 0.192 0.393 0.324 0.531 c 0.138 0.138 0.295 0.241 0.469 0.307 c 0.174 0.06 0.351 0.09 0.531 0.09 c 0.264 0 0.503 -0.039 0.719 -0.117 c 0.222 -0.078 0.394 -0.168 0.514 -0.27 l 0 -2.998 c -0.102 -0.03 -0.234 -0.056 -0.396 -0.08 c -0.162 -0.03 -0.393 -0.045 -0.693 -0.045 z m 4.238 1.957 l 0.27 0 l 0 4.055 l -0.381 0 l 0 -3.475 c -0.043 0.047 -0.1 0.094 -0.17 0.145 c -0.066 0.051 -0.143 0.102 -0.229 0.152 c -0.086 0.047 -0.174 0.094 -0.268 0.141 c -0.094 0.043 -0.188 0.078 -0.281 0.105 l -0.111 -0.293 c 0.234 -0.082 0.442 -0.184 0.625 -0.309 c 0.183 -0.129 0.366 -0.303 0.545 -0.521 z" style="fill:#ececec;fill-opacity:1"/>
</svg>
