<?xml version="1.0" encoding="UTF-8" standalone="no"?>
<!-- Created with Inkscape (http://www.inkscape.org/) -->

<svg
   xmlns:dc="http://purl.org/dc/elements/1.1/"
   xmlns:cc="http://creativecommons.org/ns#"
   xmlns:rdf="http://www.w3.org/1999/02/22-rdf-syntax-ns#"
   xmlns:svg="http://www.w3.org/2000/svg"
   xmlns="http://www.w3.org/2000/svg"
   xmlns:sodipodi="http://sodipodi.sourceforge.net/DTD/sodipodi-0.dtd"
   xmlns:inkscape="http://www.inkscape.org/namespaces/inkscape"
   id="svg2"
   version="1.1"
   inkscape:version="0.91 r"
   width="16"
   height="16"
   viewBox="0 0 16 16"
   sodipodi:docname="museeq-offline.svg">
  <metadata
     id="metadata8">
    <rdf:RDF>
      <cc:Work
         rdf:about="">
        <dc:format>image/svg+xml</dc:format>
        <dc:type
           rdf:resource="http://purl.org/dc/dcmitype/StillImage" />
        <dc:title></dc:title>
      </cc:Work>
    </rdf:RDF>
  </metadata>
  <defs
     id="defs6" />
  <sodipodi:namedview
     pagecolor="#8f8f8f"
     bordercolor="#666666"
     borderopacity="1"
     objecttolerance="10"
     gridtolerance="10"
     guidetolerance="10"
     inkscape:pageopacity="0"
     inkscape:pageshadow="2"
     inkscape:window-width="1920"
     inkscape:window-height="1056"
     id="namedview4"
     showgrid="true"
     showguides="false"
     inkscape:zoom="16"
     inkscape:cx="26.621259"
     inkscape:cy="-5.5835406"
     inkscape:window-x="0"
     inkscape:window-y="24"
     inkscape:window-maximized="1"
     inkscape:current-layer="svg2">
    <inkscape:grid
       type="xygrid"
       id="grid4142" />
  </sodipodi:namedview>
  <g
     style="font-style:normal;font-variant:normal;font-weight:normal;font-stretch:normal;font-size:25.43720245px;line-height:125%;font-family:Ubuntu;-inkscape-font-specification:Ubuntu;letter-spacing:0px;word-spacing:0px;opacity:0.4;fill:#ececec;fill-opacity:1;stroke:none;stroke-width:1px;stroke-linecap:butt;stroke-linejoin:miter;stroke-opacity:1"
     id="text4156"
     transform="translate(-3.4466326,-5.0000006)">
    <path
       d="m 15.446469,16.472179 c -0.457869,0.118707 -1.302988,0.427456 -1.97496,0.553433 -0.402684,0.07549 -0.65293,0.135047 -1.223268,0.119559 -0.607542,-0.0165 -1.409819,-0.13881 -1.799856,-0.291434 -0.373079,-0.152623 -0.7133017,-0.356121 -1.00159,-0.610493 l 0,3.756757 -1.9999998,0 0,-13.0000014 1.9999998,0 0,4.1812404 c 0,0.7292 0.043153,1.348172 0.1279443,1.856916 0.1017488,0.508744 0.254372,0.924218 0.4578697,1.246423 0.220456,0.322205 0.506543,0.55782 0.839428,0.712242 0.32766,0.151998 0.708377,0.155444 1.068867,0.178062 0.208289,0.01307 0.417999,-0.0035 0.625601,-0.02488 0.17708,-0.01823 0.374138,-0.07095 0.526761,-0.08792 0.152624,-0.03391 0.293042,-0.0483 0.343916,-0.06526 l 0,-7.9968214 2.009288,0 z"
       style="font-style:normal;font-variant:normal;font-weight:normal;font-stretch:normal;font-family:'Ubuntu Mono';-inkscape-font-specification:'Ubuntu Mono';fill:#ececec;fill-opacity:1"
       id="path4161"
       inkscape:connector-curvature="0"
       sodipodi:nodetypes="casccccccsccaaaccccc" />
  </g>
</svg>
