<svg xmlns="http://www.w3.org/2000/svg" viewBox="0 0 16 16">
 <path d="M 15,15 15,1 1,15 Z" style="fill:#ececec;fill-opacity:1;stroke:none;fill-rule:evenodd"/>
 <g transform="matrix(0.5,0,0,0.5,1,0.5)">
  <g transform="translate(-0.9682208,-7.6886254)" style="fill:#ececec;fill-opacity:1;stroke:none">
   <path transform="translate(-0.0317792,-0.3680156)" d="m 3 11.06 0 4.469 c 0 0.521 0.068 1 0.205 1.437 0.145 0.427 0.364 0.799 0.654 1.115 0.299 0.308 0.674 0.551 1.127 0.73 0.426 0.161 0.936 0.248 1.514 0.248 0.578 0 1.088 -0.087 1.514 -0.248 c 0.453 -0.179 0.828 -0.423 1.127 -0.73 0.291 -0.316 0.509 -0.688 0.654 -1.115 0.137 -0.436 0.205 -0.916 0.205 -1.437 l 0 -4.469 -2 0 0 4.303 c 0 0.359 -0.038 0.667 -0.115 0.924 -0.085 0.248 -0.197 0.453 -0.334 0.615 -0.145 0.154 -0.315 0.264 -0.512 0.332 -0.167 0.056 -0.349 0.094 -0.539 0.094 c -0.19 0 -0.372 -0.038 -0.539 -0.094 c -0.197 -0.068 -0.366 -0.178 -0.512 -0.332 -0.137 -0.162 -0.249 -0.367 -0.334 -0.615 -0.077 -0.256 -0.115 -0.565 -0.115 -0.924 l 0 -4.303 z"/>
  </g>
 </g>
</svg>
