<svg xmlns="http://www.w3.org/2000/svg" viewBox="0 0 16 16">
 <g>
  <path d="M 15,15 15,1 1,15 Z" style="fill:#ececec;fill-opacity:1;stroke:none;fill-rule:evenodd"/>
  <g transform="matrix(0.55555556,0,0,0.55555556,5.8788793,4.4174906)" style="fill:#ececec;fill-opacity:1;stroke:none">
   <path d="m -2.528 4.649 q -1.825 0 -2.786 -1.17 -0.961 -1.17 -0.961 -3.33 0 -1.073 0.293 -1.909 0.293 -0.836 0.808 -1.407 0.529 -0.585 1.24 -0.878 0.724 -0.307 1.574 -0.307 0.46 0 0.822 0.084 0.376 0.07 0.655 0.167 0.279 0.098 0.46 0.209 0.195 0.111 0.293 0.167 l -0.446 1.365 q -0.32 -0.209 -0.78 -0.348 -0.446 -0.153 -1.031 -0.153 -0.404 0 -0.794 0.153 -0.376 0.139 -0.683 0.488 -0.293 0.334 -0.488 0.906 -0.181 0.571 -0.181 1.421 0 1.477 0.502 2.271 0.515 0.78 1.672 0.78 0.669 0 1.101 -0.153 0.446 -0.153 0.711 -0.307 l 0.432 1.351 q -0.362 0.223 -0.989 0.418 -0.613 0.181 -1.421 0.181"/>
  </g>
 </g>
</svg>
