<?xml version="1.0" encoding="UTF-8" standalone="no"?>
<svg
   xmlns:dc="http://purl.org/dc/elements/1.1/"
   xmlns:cc="http://creativecommons.org/ns#"
   xmlns:rdf="http://www.w3.org/1999/02/22-rdf-syntax-ns#"
   xmlns:svg="http://www.w3.org/2000/svg"
   xmlns="http://www.w3.org/2000/svg"
   xmlns:sodipodi="http://sodipodi.sourceforge.net/DTD/sodipodi-0.dtd"
   xmlns:inkscape="http://www.inkscape.org/namespaces/inkscape"
   width="16"
   viewBox="0 0 4.5155556 4.5155556"
   height="16"
   id="svg2"
   version="1.1"
   inkscape:version="0.91 r"
   sodipodi:docname="renamed-qbittorrent.svg">
  <metadata
     id="metadata12">
    <rdf:RDF>
      <cc:Work
         rdf:about="">
        <dc:format>image/svg+xml</dc:format>
        <dc:type
           rdf:resource="http://purl.org/dc/dcmitype/StillImage" />
        <dc:title />
      </cc:Work>
    </rdf:RDF>
  </metadata>
  <sodipodi:namedview
     pagecolor="#ffffff"
     bordercolor="#666666"
     borderopacity="1"
     objecttolerance="10"
     gridtolerance="10"
     guidetolerance="10"
     inkscape:pageopacity="0"
     inkscape:pageshadow="2"
     inkscape:window-width="1366"
     inkscape:window-height="747"
     id="namedview10"
     showgrid="false"
     inkscape:zoom="13.21018"
     inkscape:cx="-1.4205911"
     inkscape:cy="10.999701"
     inkscape:window-x="0"
     inkscape:window-y="21"
     inkscape:window-maximized="1"
     inkscape:current-layer="svg2" />
  <defs
     id="defs4" />
  <path
     style="color:#bebebe;fill:#ececec;fill-opacity:1"
     id="path3394"
     d="m 1.0659932,1.4179138 c -0.47598956,0 -0.86073316,0.3811421 -0.86073316,0.8526762 0,0.4715339 0.3847436,0.852676 0.86073316,0.852676 0.2522516,0 0.486835,-0.037577 0.644447,-0.2086826 l 0,0.788167 c 0,0.1182496 0.085885,0.1970416 0.2052516,0.1970416 0.119367,0 0.2052514,-0.078792 0.2052514,-0.1970416 l 0,-2.1017782 c 0,-0.1182497 -0.084309,-0.1830584 -0.2036755,-0.1830584 -0.119367,0 -0.1992532,0.065033 -0.2068275,0.1830584 l -0.00599,0.093359 0.00599,0.3007249 0.2736688,0 C 1.8359732,2.1978511 1.7312431,2.3245328 1.573606,2.5205001 1.41083,2.3224711 1.32529,2.1935289 1.163103,1.9950557 l 0.2736687,3e-6 0,-0.5254447 C 1.3501435,1.4412207 1.1621091,1.4179167 1.0659932,1.4179167 Z"
     inkscape:connector-curvature="0" />
  <path
     style="color:#bebebe;fill:#ececec;fill-opacity:1"
     id="path3396"
     d="m 2.5935582,0.61576372 c -0.119367,0 -0.1989462,0.078792 -0.1989462,0.1970418 l 0,2.10177788 c 0,0.1182498 0.079579,0.2086826 0.1989462,0.2086826 0.119367,0 0.2011351,-0.090857 0.2115567,-0.2086826 l 0.00599,-0.067734 -0.00599,-0.326349 -0.2736686,0 C 2.6859298,2.3308391 2.7871547,2.1844826 2.9419494,1.9950557 3.103916,2.1936952 3.1898969,2.3223047 3.3524523,2.5205001 l -0.2736686,0 0,0.5254445 c 0.086628,0.028393 0.2746623,0.077321 0.3707785,0.077321 0.4759894,0 0.860733,-0.3811421 0.860733,-0.852676 0,-0.4715341 -0.3847436,-0.8526762 -0.860733,-0.8526762 -0.252252,0 -0.4868352,0.1433133 -0.6444473,0.3144194 l 0,-0.91952768 c 0,-0.1182497 -0.09219,-0.1970418 -0.2115567,-0.1970418 z"
     inkscape:connector-curvature="0" />
</svg>
