<svg width="16" xmlns="http://www.w3.org/2000/svg" viewBox="0 0 4.5155557 4.5155557" height="16">
 <path style="fill:#ececec;opacity:0.4;fill-opacity:1;stroke:none" d="m 2.091 1.026 c -0.139 0 -0.268 0.059 -0.359 0.154 -0.023 0.024 -0.039 0.049 -0.057 0.077 -0.013 0.02 -0.022 0.042 -0.032 0.064 -0.047 -0.04 -0.108 -0.064 -0.173 -0.064 -0.152 0 -0.276 0.13 -0.276 0.289 0 0.061 0.02 0.12 0.052 0.167 -0.092 0.062 -0.169 0.15 -0.212 0.257 -0.007 0.016 -0.008 0.035 -0.013 0.052 -0.019 -0.002 -0.039 -0.007 -0.057 -0.007 -0.278 0 -0.5 0.236 -0.5 0.526 0 0.29 0.223 0.526 0.5 0.526 0.035 0 0.07 -0.006 0.103 -0.013 0.079 -0.017 0.151 -0.052 0.212 -0.103 0.007 0.01 0.01 0.023 0.019 0.032 0.013 0.014 0.03 0.028 0.045 0.039 0.015 0.011 0.028 0.018 0.045 0.025 0.017 0.007 0.039 0.015 0.057 0.019 0.019 0.004 0.038 0.007 0.057 0.007 0.128 0 0.232 -0.092 0.269 -0.212 0.093 0.095 0.214 0.164 0.346 0.193 0.045 0.009 0.093 0.013 0.141 0.013 0.048 0 0.096 -0.003 0.141 -0.013 0.129 -0.028 0.241 -0.095 0.334 -0.186 0.056 0.072 0.129 0.13 0.212 0.167 0.033 0.015 0.067 0.025 0.103 0.032 0.036 0.007 0.071 0.013 0.109 0.013 0.038 0 0.073 -0.005 0.109 -0.013 0.103 -0.022 0.196 -0.073 0.269 -0.148 0.031 0.044 0.073 0.081 0.122 0.103 0.017 0.007 0.033 0.009 0.052 0.013 0.019 0.004 0.038 0.007 0.057 0.007 0.159 0 0.289 -0.129 0.289 -0.295 0 -0.166 -0.129 -0.302 -0.289 -0.302 -0.025 0 -0.048 0.001 -0.071 0.007 c -0.029 -0.284 -0.258 -0.507 -0.539 -0.507 c -0.002 0 -0.004 0 -0.007 0 -0.009 -0.281 -0.235 -0.507 -0.507 -0.507 -0.02 0 -0.039 0.004 -0.057 0.007 c -0.047 -0.239 -0.251 -0.417 -0.494 -0.417"/>
 <path style="fill:#ececec;opacity:0.4;fill-opacity:1;stroke:none" d="m 0.821 3.284 0 0.616 0.616 0 0 -0.205 0.41 0 0 -0.205 -0.41 0 0 -0.205 z"/>
 <path style="fill:#ececec;opacity:0.4;fill-opacity:1;stroke:none" d="m 3.694 3.899 0 -0.616 -0.616 0 0 0.205 -0.41 0 0 0.205 0.41 0 0 0.205 z"/>
</svg>
