<?xml version="1.0" encoding="UTF-8" standalone="no"?>
<svg
   xmlns:dc="http://purl.org/dc/elements/1.1/"
   xmlns:cc="http://creativecommons.org/ns#"
   xmlns:rdf="http://www.w3.org/1999/02/22-rdf-syntax-ns#"
   xmlns:svg="http://www.w3.org/2000/svg"
   xmlns="http://www.w3.org/2000/svg"
   xmlns:sodipodi="http://sodipodi.sourceforge.net/DTD/sodipodi-0.dtd"
   xmlns:inkscape="http://www.inkscape.org/namespaces/inkscape"
   width="16"
   viewBox="0 0 22 22"
   height="16"
   style="enable-background:new"
   id="svg13559"
   version="1.1"
   inkscape:version="0.91 r"
   sodipodi:docname="weather-severe-alert.svg">
  <metadata
     id="metadata13664">
    <rdf:RDF>
      <cc:Work
         rdf:about="">
        <dc:format>image/svg+xml</dc:format>
        <dc:type
           rdf:resource="http://purl.org/dc/dcmitype/StillImage" />
      </cc:Work>
    </rdf:RDF>
  </metadata>
  <sodipodi:namedview
     pagecolor="#ffffff"
     bordercolor="#666666"
     borderopacity="1"
     objecttolerance="10"
     gridtolerance="10"
     guidetolerance="10"
     inkscape:pageopacity="0"
     inkscape:pageshadow="2"
     inkscape:window-width="1219"
     inkscape:window-height="480"
     id="namedview13662"
     showgrid="false"
     inkscape:zoom="14.75"
     inkscape:cx="4.9957149"
     inkscape:cy="10.711864"
     inkscape:window-x="0"
     inkscape:window-y="30"
     inkscape:window-maximized="0"
     inkscape:current-layer="svg13559" />
  <defs
     id="defs13561" />
  <path
     class="error"
     style="color:#bebebe;fill:#ef555c"
     d="m 10.004601,8.2501057 0.25,6.0000013 1.5,0 0.25,-6.0000013 -2,0 z m 0,7.0000013 0,2 2,0 0,-2 -2,0 z"
     id="path13658"
     inkscape:connector-curvature="0" />
  <path
     style="fill:#ececec;fill-opacity:1"
     d="m 8.0983208,4.7501067 c -0.1551799,-0.00173 -0.3001766,0.00691 -0.46875,0.03125 -2.6922018,0.3898832 -2.625,3 -2.625,3 -1.1026851,0.2109 -2,1.27429 -2,2.4062503 0,1.131944 1.1596475,2.146179 2.125,2.4375 0.574225,0.173282 1.3125,0 1.3125,0 0.3408653,0.676336 1.4661684,1.125 2.25,1.125 0.3544255,0 0.6938254,-0.05818 1.03125,-0.125 l -0.21875,-5.3437503 -0.03125,-0.53125 0.5312502,0 2,0 0.53125,0 -0.03125,0.53125 -0.1875,4.4062503 c 1.436154,0.108739 4.791871,0.312445 5.65625,-0.0625 1.599246,-0.693716 1.095335,-2.8609433 0.03125,-3.5937503 -1.064081,-0.732807 -2.4375,-0.21875 -2.4375,-0.21875 0,0 0.0048,-1.505832 -1.5,-2.21875 -1.504814,-0.712932 -2.78125,0.875 -2.78125,0.875 0,0 -0.859785,-2.7026176 -3.1875002,-2.71875 z"
     id="path13660"
     inkscape:connector-curvature="0" />
</svg>
