<?xml version="1.0" encoding="UTF-8" standalone="no"?>
<svg
   xmlns:dc="http://purl.org/dc/elements/1.1/"
   xmlns:cc="http://creativecommons.org/ns#"
   xmlns:rdf="http://www.w3.org/1999/02/22-rdf-syntax-ns#"
   xmlns:svg="http://www.w3.org/2000/svg"
   xmlns="http://www.w3.org/2000/svg"
   xmlns:sodipodi="http://sodipodi.sourceforge.net/DTD/sodipodi-0.dtd"
   xmlns:inkscape="http://www.inkscape.org/namespaces/inkscape"
   width="16"
   viewBox="0 0 22 22"
   height="16"
   style="enable-background:new"
   id="svg15714"
   version="1.1"
   inkscape:version="0.91 r"
   sodipodi:docname="weather-overcast.svg">
  <metadata
     id="metadata15841">
    <rdf:RDF>
      <cc:Work
         rdf:about="">
        <dc:format>image/svg+xml</dc:format>
        <dc:type
           rdf:resource="http://purl.org/dc/dcmitype/StillImage" />
      </cc:Work>
    </rdf:RDF>
  </metadata>
  <sodipodi:namedview
     pagecolor="#ffffff"
     bordercolor="#666666"
     borderopacity="1"
     objecttolerance="10"
     gridtolerance="10"
     guidetolerance="10"
     inkscape:pageopacity="0"
     inkscape:pageshadow="2"
     inkscape:window-width="1366"
     inkscape:window-height="747"
     id="namedview15839"
     showgrid="false"
     inkscape:zoom="14.75"
     inkscape:cx="-18"
     inkscape:cy="16.135593"
     inkscape:window-x="0"
     inkscape:window-y="21"
     inkscape:window-maximized="1"
     inkscape:current-layer="svg15714" />
  <defs
     id="defs15716" />
  <path
     style="fill:#ececec;fill-opacity:1"
     d="M 8.100397,5.5000707 C 7.9452172,5.4991429 7.7820927,5.5072807 7.6135193,5.5290687 4.9213175,5.8770454 5.0042341,8.1968899 5.0042341,8.1968899 3.9015515,8.3851219 3,9.3517859 3,10.362078 c 0,1.010277 1.1523293,1.90518 2.1176817,2.165189 0.574225,0.154656 1.3282779,0 1.3282779,0 0.1568546,0.277773 0.4766015,0.513517 0.8555809,0.686287 0.2217994,-0.405359 0.5540875,-0.745128 0.9784812,-0.932771 0.4695214,-1.12798 1.5921469,-2.11443 2.8787223,-2.034697 0.943283,-0.05064 1.861678,0.43324 2.458024,1.159922 1.095866,-0.362336 2.715723,-0.08166 3.185974,1.145423 0.313372,-0.06522 0.622165,-0.04058 0.912306,0.04833 0.10258,-0.02063 0.189459,-0.04519 0.259982,-0.0725 1.599247,-0.619151 1.101896,-2.5550761 0.03781,-3.2091181 -1.064075,-0.654041 -2.45802,-0.19332 -2.45802,-0.19332 0,0 -0.0031,-1.330748 -1.507903,-1.967035 -1.504812,-0.6363023 -2.779455,0.768449 -2.779455,0.768449 0,0 -0.83935,-2.4117618 -3.1670686,-2.4261713 z m 3.157614,5.6739533 c -0.103402,-6.19e-4 -0.21383,0.0049 -0.326161,0.01933 -1.7939776,0.23075 -1.739523,1.768882 -1.739523,1.768882 -0.734786,0.124807 -1.3330048,0.765443 -1.3330048,1.435403 0,0.66994 0.7653629,1.262993 1.4086357,1.435403 0.3826422,0.102558 0.8839421,0 0.8839421,0 0.22714,0.400284 0.976136,0.666958 1.498449,0.666958 0.851663,0 1.727012,-0.282371 1.928603,-0.666956 0,0 3.526965,0.282033 4.258997,0 1.065676,-0.410581 0.732697,-1.692824 0.02364,-2.126523 -0.709061,-0.433703 -1.635531,-0.130492 -1.635531,-0.130492 0,0 -0.0041,-0.882963 -1.006844,-1.304912 -1.002749,-0.421933 -1.848244,0.512299 -1.848244,0.512299 0,0 -0.561852,-1.599837 -2.112954,-1.609392 z"
     id="path15837"
     inkscape:connector-curvature="0" />
</svg>
