<svg width="32" xmlns="http://www.w3.org/2000/svg" height="32" viewBox="0 0 32 32" xmlns:xlink="http://www.w3.org/1999/xlink">
<path style="fill:none;stroke:#2f8b96;stroke-width:1.733" d="M 43.401019 31.250394 C 43.401019 37.961687 37.956555 43.406152 31.245261 43.406152 C 24.533968 43.406152 19.089504 37.961687 19.089504 31.250394 C 19.089504 24.539101 24.533968 19.094636 31.245261 19.094636 C 37.956555 19.094636 43.401019 24.539101 43.401019 31.250394 Z " transform="matrix(.80787 0 0 .80787 -9.24221 -9.24636)"/>
<g style="fill:#2f8b96">
<path d="M 12.492188 16 C 12.492188 16.921875 11.746094 17.667969 10.824219 17.667969 C 9.902344 17.667969 9.15625 16.921875 9.15625 16 C 9.15625 15.078125 9.902344 14.332031 10.824219 14.332031 C 11.746094 14.332031 12.492188 15.078125 12.492188 16 Z "/>
<path d="M 17.667969 16 C 17.667969 16.921875 16.921875 17.667969 16 17.667969 C 15.078125 17.667969 14.332031 16.921875 14.332031 16 C 14.332031 15.078125 15.078125 14.332031 16 14.332031 C 16.921875 14.332031 17.667969 15.078125 17.667969 16 Z "/>
<path d="M 22.84375 16 C 22.84375 16.921875 22.097656 17.667969 21.175781 17.667969 C 20.253906 17.667969 19.507812 16.921875 19.507812 16 C 19.507812 15.078125 20.253906 14.332031 21.175781 14.332031 C 22.097656 14.332031 22.84375 15.078125 22.84375 16 Z "/>
</g>
</svg>
