<?xml version="1.0" encoding="UTF-8" standalone="no"?>
<svg
   xmlns:dc="http://purl.org/dc/elements/1.1/"
   xmlns:cc="http://creativecommons.org/ns#"
   xmlns:rdf="http://www.w3.org/1999/02/22-rdf-syntax-ns#"
   xmlns:svg="http://www.w3.org/2000/svg"
   xmlns="http://www.w3.org/2000/svg"
   xmlns:sodipodi="http://sodipodi.sourceforge.net/DTD/sodipodi-0.dtd"
   xmlns:inkscape="http://www.inkscape.org/namespaces/inkscape"
   width="32"
   height="32"
   viewBox="0 0 32 32"
   id="svg2"
   version="1.1"
   inkscape:version="0.91 r"
   sodipodi:docname="applications-perl.svg">
  <metadata
     id="metadata10">
    <rdf:RDF>
      <cc:Work
         rdf:about="">
        <dc:format>image/svg+xml</dc:format>
        <dc:type
           rdf:resource="http://purl.org/dc/dcmitype/StillImage" />
        <dc:title />
      </cc:Work>
    </rdf:RDF>
  </metadata>
  <defs
     id="defs8" />
  <sodipodi:namedview
     pagecolor="#ffffff"
     bordercolor="#666666"
     borderopacity="1"
     objecttolerance="10"
     gridtolerance="10"
     guidetolerance="10"
     inkscape:pageopacity="0"
     inkscape:pageshadow="2"
     inkscape:window-width="961"
     inkscape:window-height="480"
     id="namedview6"
     showgrid="false"
     inkscape:zoom="7.375"
     inkscape:cx="16"
     inkscape:cy="16"
     inkscape:window-x="10"
     inkscape:window-y="34"
     inkscape:window-maximized="0"
     inkscape:current-layer="svg2" />
  <path
     style="fill:#6fbed5;fill-rule:evenodd"
     d="m 19.721291,26.312643 c -0.792969,-0.08594 0.140624,-0.753906 0.402343,-0.886719 0.507813,-0.253906 0.921875,-0.542968 1.242188,-1.023437 0.503906,-0.769531 0.753906,-1.785156 0.96875,-2.667969 0.144531,-0.601562 0.257812,-0.949218 -0.125,-1.457031 -0.375,-0.503906 0.269531,-0.917969 -0.132813,-1.453125 -0.671875,-0.894531 -0.953125,-2.082031 -1.617187,-2.964844 -0.1875,-0.25 -0.121094,-0.484375 -0.390625,-0.511718 -0.128906,-0.01172 -0.464844,0.246093 -0.578125,0.320312 -0.328125,0.222656 -0.730469,0.328125 -1.054688,0.542969 -0.160156,0.105469 -0.46875,0.02734 -0.601562,0.132812 -0.390625,0.300781 -0.296875,1.242188 -0.257813,1.726563 0.05859,0.683594 0.609375,0.898437 0.609375,1.5625 0,0.796875 -0.171875,1.339844 0.07813,2.15625 0.144532,0.46875 0.507813,1.003906 0.5625,1.480468 0.05078,0.378907 -0.01953,0.367188 -0.132812,0.726563 -0.128906,0.425781 -0.160156,0.808594 -0.566406,1 -0.230469,0.105469 -1.160157,0.152344 -1.292969,-0.109375 -0.253907,-0.511719 0.726562,-0.683594 0.890625,-0.996094 0.359375,-0.671875 -0.484375,-2.410156 -0.808594,-2.992187 -0.175781,-0.316407 -0.519531,-0.570313 -0.644531,-0.890625 -0.175781,-0.429688 0.171875,-0.722656 0.117187,-1.050782 -0.105468,-0.640624 -0.375,-1.320312 -0.578125,-1.941406 -0.472656,-1.433594 -1.125,0.746094 -1.398437,1.296875 -0.113282,0.214844 -0.191406,0.453125 -0.296875,0.671875 -0.132813,0.261719 0.15625,0.488282 0.07813,0.808594 -0.07031,0.304688 -0.421875,0.472656 -0.617188,0.699219 -0.296875,0.351562 -0.503906,0.789062 -0.664062,1.214843 -0.332032,0.890626 -0.449219,2.4375 -1.0625,3.152344 -0.08984,0.101563 -0.335938,0.04687 -0.429688,0.136719 -0.214844,0.207031 0.05469,0.4375 -0.367187,0.578125 -0.320313,0.109375 -1.1328131,0.226562 -1.4414071,0.03906 -0.585937,-0.355468 0.148438,-0.789062 0.5117191,-1.160156 0.515625,-0.507812 1.109375,-0.976562 1.511719,-1.585937 0.527344,-0.800781 0.636719,-1.703125 0.742188,-2.628907 0.04687,-0.445312 -0.433594,-0.667968 -0.01563,-1.199218 0.132813,-0.171875 0.539063,-0.148438 0.539063,-0.324219 0,-0.554687 0.01563,-1.113281 0,-1.667969 -0.01953,-0.675781 -0.01563,-1.785156 -0.660156,-2.210937 -0.855475,-0.574217 -1.945319,-0.722655 -2.7617251,-1.335936 -0.8125,-0.609375 -1.558594,-1.164062 -2.050781,-2.140625 C 7.1744149,10.8478 7.0416029,10.3478 6.8345719,9.824362 6.6861339,9.437643 6.7291029,9.56655 6.4869149,9.336081 6.3462909,9.203268 6.1314469,9.109518 5.9751969,8.961081 5.5611339,8.562643 5.4869149,8.172018 4.7876969,8.339987 4.5142589,8.406393 4.0572279,8.925924 3.9009779,8.609518 3.7994149,8.406393 3.8619149,8.2228 3.9126969,8.015768 3.9908219,7.711081 3.6197279,7.609518 3.6314469,7.31655 c 0.015625,-0.503907 0.828125,-1.035157 1.25,-1.121094 0.535156,-0.105469 1.121094,0.125 1.6875,0.015625 0.457031,-0.089844 0.851562,-0.335938 1.292968,-0.445313 0.457032,-0.117187 0.871094,-0.15625 1.265626,0.121094 0.179687,0.128906 0.246093,0.355469 0.402343,0.484375 0.136719,0.109375 0.253907,0.078125 0.40625,0.191406 0.4609381,0.332031 0.4960941,0.820313 -0.296875,0.671875 0.335938,1.382813 1.9609381,5.105469 3.7734381,3.179688 0.84375,-0.898438 1.625,-1.894532 2.425781,-2.828125 0.707031,-0.824219 1.113281,-1.75 2.316406,-1.589844 1.183594,0.15625 1.996094,0.96875 2.914063,1.644531 0.75,0.550782 1.628906,0.671875 2.425781,1.132813 0.839844,0.484375 1.59375,1.300781 1.882813,2.234375 0.421874,1.351562 0.179687,2.652344 0.917968,3.9375 0.445313,0.777344 1.082032,1.320312 1.644532,1.964844 0.300781,0.347656 0.503906,0.824218 0.402343,1.292968 -0.06641,0.320313 -0.296875,0.378906 -0.296875,0.753906 0,0.652344 0.03516,1.300782 0.0039,1.957032 -0.02344,0.582031 -0.07031,1.152344 -0.152343,1.726562 -0.07031,0.5 -0.253907,0.640625 -0.414063,1.007813 -0.242187,0.542969 -0.203125,0.78125 -0.78125,0.996093 -0.332031,0.121094 -0.890625,0.363282 -1.242187,0.351563 -0.503907,-0.02344 -0.578125,-0.441406 -0.1875,-0.890625 0.25,-0.292969 0.714843,-0.386719 0.996093,-0.703125 0.816407,-0.914063 1.167969,-3.664063 0.484376,-4.632813 -0.285157,-0.40625 -0.644532,-0.410156 -0.671876,-1.023437 -0.02734,-0.550781 0.199219,-0.742187 -0.300781,-1.238281 -1.578125,-0.808594 -1.746093,-1.386719 -2.261719,-1.109375 -0.625,0.339843 -0.132812,2.242187 0,2.777343 0.242188,0.957032 1.191407,1.40625 0.566407,2.371094 -0.445313,0.691406 -0.652344,1.40625 -0.957031,2.210938 -0.273438,0.726562 -0.25,1.765625 -0.683594,2.371094 -0.08594,0.117187 -0.21875,0.183593 -0.296875,0.296874 -0.05859,0.08203 -0.148438,0.328126 -0.191407,0.378907 -0.179687,0.210937 -0.21875,0.265625 -0.511718,0.375 -0.523438,0.199219 -1.160156,0.132812 -1.722656,0.132812"
     id="path4"
     inkscape:connector-curvature="0" />
</svg>
