<svg width="256" xmlns="http://www.w3.org/2000/svg" height="256" viewBox="0 0 256 256" xmlns:xlink="http://www.w3.org/1999/xlink">
<g style="fill:#8f9da9">
<path d="M 15.832031 63.332031 C 7.058594 63.332031 0 70.390625 0 79.167969 L 0 190 C 0 198.777344 7.058594 205.832031 15.832031 205.832031 L 237.5 205.832031 C 246.277344 205.832031 253.332031 198.777344 253.332031 190 L 253.332031 79.167969 C 253.332031 70.390625 246.277344 63.332031 237.5 63.332031 Z M 47.5 95 L 205.832031 95 C 214.609375 95 221.667969 102.058594 221.667969 110.832031 L 221.667969 158.332031 C 221.667969 167.109375 214.609375 174.167969 205.832031 174.167969 L 47.5 174.167969 C 38.722656 174.167969 31.667969 167.109375 31.667969 158.332031 L 31.667969 110.832031 C 31.667969 102.058594 38.722656 95 47.5 95 Z "/>
<path d="M 47.5 110.832031 L 47.5 126.667969 L 63.332031 126.667969 L 63.332031 110.832031 Z "/>
<path d="M 79.167969 110.832031 L 79.167969 126.667969 L 95 126.667969 L 95 110.832031 Z "/>
<path d="M 110.832031 110.832031 L 110.832031 126.667969 L 126.667969 126.667969 L 126.667969 110.832031 Z "/>
<path d="M 142.5 110.832031 L 142.5 126.667969 L 158.332031 126.667969 L 158.332031 110.832031 Z "/>
<path d="M 47.5 142.5 L 47.5 158.332031 L 79.738281 158.332031 L 79.738281 142.5 Z "/>
<path d="M 95 142.5 L 95 158.332031 L 173.59375 158.332031 L 173.59375 142.5 Z "/>
<path d="M 174.167969 110.832031 L 174.167969 126.667969 L 190 126.667969 L 190 158.332031 L 205.832031 158.332031 L 205.832031 110.832031 Z "/>
</g>
</svg>
