<svg width="22" xmlns="http://www.w3.org/2000/svg" height="22" viewBox="0 0 22 22" xmlns:xlink="http://www.w3.org/1999/xlink">
<path style="fill:#d14626" d="M 3.667969 0.457031 C 3.195312 0.457031 2.75 0.902344 2.75 1.375 L 2.75 20.625 C 2.75 21.070312 3.222656 21.542969 3.667969 21.542969 L 18.332031 21.542969 C 18.777344 21.542969 19.25 21.070312 19.25 20.625 L 19.25 1.375 C 19.25 0.902344 18.804688 0.457031 18.332031 0.457031 Z "/>
<g style="fill:#fff">
<path d="M 5.5 7.332031 L 8.707031 7.332031 L 8.707031 9.625 L 5.5 9.625 Z "/>
<path d="M 5.5 11 L 8.707031 11 L 8.707031 13.292969 L 5.5 13.292969 Z "/>
<path d="M 13.539062 7.332031 L 13.539062 10.222656 L 16.5 10.222656 C 16.5 8.625 15.175781 7.332031 13.539062 7.332031 Z "/>
<path d="M 13.117188 7.746094 C 11.480469 7.746094 10.152344 9.039062 10.152344 10.632812 C 10.152344 12.226562 11.480469 13.519531 13.117188 13.519531 C 14.75 13.519531 16.078125 12.226562 16.078125 10.632812 L 13.117188 10.632812 Z "/>
</g>
<path style="fill:#000;fill-opacity:.196" d="M 2.75 16.042969 L 2.75 20.625 C 2.75 21.070312 3.222656 21.542969 3.667969 21.542969 L 18.332031 21.542969 C 18.777344 21.542969 19.25 21.070312 19.25 20.625 L 19.25 16.042969 Z "/>
<g style="fill:#fff">
<path d="M 7.210938 18.792969 C 7.210938 18.960938 7.214844 19.121094 7.230469 19.273438 C 7.246094 19.421875 7.273438 19.550781 7.316406 19.660156 C 7.363281 19.769531 7.425781 19.855469 7.507812 19.921875 C 7.589844 19.984375 7.695312 20.019531 7.832031 20.019531 C 7.960938 20.019531 8.066406 19.984375 8.148438 19.921875 C 8.234375 19.855469 8.296875 19.769531 8.339844 19.660156 C 8.386719 19.546875 8.414062 19.417969 8.425781 19.269531 C 8.445312 19.121094 8.453125 18.960938 8.453125 18.792969 C 8.453125 18.621094 8.445312 18.460938 8.425781 18.316406 C 8.414062 18.164062 8.386719 18.03125 8.339844 17.921875 C 8.296875 17.8125 8.234375 17.726562 8.15625 17.664062 C 8.074219 17.597656 7.964844 17.566406 7.832031 17.566406 C 7.695312 17.566406 7.589844 17.597656 7.507812 17.664062 C 7.425781 17.726562 7.363281 17.816406 7.316406 17.929688 C 7.273438 18.039062 7.246094 18.167969 7.230469 18.316406 C 7.214844 18.460938 7.210938 18.621094 7.210938 18.792969 M 6.417969 18.792969 C 6.417969 18.1875 6.542969 17.730469 6.789062 17.425781 C 7.039062 17.113281 7.386719 16.957031 7.832031 16.957031 C 8.292969 16.957031 8.644531 17.113281 8.882812 17.425781 C 9.125 17.730469 9.246094 18.1875 9.246094 18.792969 C 9.246094 19.398438 9.125 19.855469 8.878906 20.164062 C 8.632812 20.472656 8.285156 20.625 7.835938 20.625 C 7.375 20.625 7.023438 20.472656 6.777344 20.164062 C 6.539062 19.855469 6.417969 19.398438 6.417969 18.792969 "/>
<path d="M 12.429688 17.039062 L 12.429688 17.617188 L 11.398438 17.617188 L 11.398438 20.550781 L 10.609375 20.550781 L 10.609375 17.617188 L 9.574219 17.617188 L 9.574219 17.039062 L 12.429688 17.039062 "/>
<path d="M 14.011719 17 C 14.507812 17 14.894531 17.089844 15.171875 17.277344 C 15.445312 17.457031 15.582031 17.757812 15.582031 18.171875 C 15.582031 18.59375 15.445312 18.898438 15.164062 19.085938 C 14.890625 19.273438 14.5 19.363281 13.992188 19.363281 L 13.710938 19.363281 L 13.710938 20.550781 L 12.933594 20.550781 L 12.933594 17.082031 C 13.007812 17.066406 13.09375 17.054688 13.183594 17.042969 C 13.28125 17.03125 13.378906 17.023438 13.476562 17.019531 C 13.574219 17.011719 13.667969 17.007812 13.761719 17.003906 C 13.855469 17 13.9375 17 14.011719 17 M 14.097656 17.605469 C 14.050781 17.605469 13.988281 17.605469 13.902344 17.609375 C 13.820312 17.609375 13.757812 17.613281 13.710938 17.621094 L 13.710938 18.757812 L 14.027344 18.757812 C 14.277344 18.757812 14.46875 18.714844 14.59375 18.628906 C 14.71875 18.535156 14.785156 18.382812 14.785156 18.167969 C 14.785156 17.964844 14.71875 17.820312 14.59375 17.734375 C 14.472656 17.648438 14.304688 17.605469 14.097656 17.605469 "/>
</g>
</svg>
