<svg width="22" xmlns="http://www.w3.org/2000/svg" height="22" viewBox="0 0 22 22" xmlns:xlink="http://www.w3.org/1999/xlink">
<path style="fill:#c19553" d="M 3.667969 0.457031 C 3.195312 0.457031 2.75 0.902344 2.75 1.375 L 2.75 20.625 C 2.75 21.070312 3.222656 21.542969 3.667969 21.542969 L 18.332031 21.542969 C 18.777344 21.542969 19.25 21.070312 19.25 20.625 L 19.25 6.417969 L 13.292969 0.457031 Z "/>
<path style="fill:#000;fill-opacity:.196" d="M 13.292969 5.5 L 13.320312 5.527344 L 13.390625 5.5 Z M 14.207031 6.417969 L 19.25 11.457031 L 19.25 6.417969 Z "/>
<path style="fill:#fff;fill-opacity:.392" d="M 13.292969 0.457031 L 19.25 6.417969 L 14.207031 6.417969 C 13.761719 6.417969 13.292969 5.945312 13.292969 5.5 Z "/>
<path style="fill:#000;fill-opacity:.196" d="M 2.75 16.042969 L 2.75 20.625 C 2.75 21.070312 3.222656 21.542969 3.667969 21.542969 L 18.332031 21.542969 C 18.777344 21.542969 19.25 21.070312 19.25 20.625 L 19.25 16.042969 Z "/>
<g style="fill:#fff">
<path d="M 8.25 0.457031 L 8.25 2.292969 L 10.082031 2.292969 L 10.082031 0.457031 Z M 8.25 2.292969 L 6.417969 2.292969 L 6.417969 4.125 L 8.25 4.125 Z M 8.25 4.125 L 8.25 5.957031 L 10.082031 5.957031 L 10.082031 4.125 Z M 8.25 5.957031 L 6.417969 5.957031 L 6.417969 7.792969 L 8.25 7.792969 Z M 8.25 7.792969 L 8.25 9.625 L 10.082031 9.625 L 10.082031 7.792969 Z M 6.417969 10.542969 L 6.417969 14.207031 L 10.082031 14.207031 L 10.082031 10.542969 Z "/>
<path d="M 8.980469 17.503906 C 8.796875 17.761719 8.628906 18.003906 8.472656 18.230469 C 8.320312 18.457031 8.175781 18.671875 8.042969 18.878906 C 7.910156 19.082031 7.785156 19.28125 7.664062 19.472656 C 7.546875 19.660156 7.4375 19.84375 7.328125 20.027344 L 9.039062 20.027344 L 9.039062 20.625 L 6.417969 20.625 L 6.417969 20.210938 C 6.511719 20.042969 6.613281 19.867188 6.71875 19.683594 C 6.824219 19.496094 6.945312 19.296875 7.078125 19.085938 C 7.210938 18.875 7.355469 18.644531 7.507812 18.398438 C 7.667969 18.152344 7.839844 17.886719 8.03125 17.597656 L 6.5 17.597656 L 6.5 17 L 8.980469 17 L 8.980469 17.503906 "/>
<path d="M 9.683594 20.625 L 9.683594 20.027344 L 10.550781 20.027344 L 10.550781 17.597656 L 9.683594 17.597656 L 9.683594 17 L 12.207031 17 L 12.207031 17.597656 L 11.347656 17.597656 L 11.347656 20.027344 L 12.207031 20.027344 L 12.207031 20.625 L 9.683594 20.625 "/>
<path d="M 13.988281 16.957031 C 14.496094 16.957031 14.886719 17.054688 15.164062 17.246094 C 15.445312 17.433594 15.582031 17.742188 15.582031 18.171875 C 15.582031 18.605469 15.441406 18.917969 15.160156 19.113281 C 14.878906 19.304688 14.484375 19.402344 13.96875 19.402344 L 13.6875 19.402344 L 13.6875 20.625 L 12.894531 20.625 L 12.894531 17.046875 C 12.972656 17.03125 13.058594 17.015625 13.152344 17.003906 C 13.253906 16.992188 13.351562 16.984375 13.449219 16.980469 C 13.546875 16.972656 13.644531 16.96875 13.738281 16.964844 C 13.832031 16.960938 13.917969 16.957031 13.988281 16.957031 M 14.078125 17.585938 C 14.03125 17.585938 13.964844 17.585938 13.878906 17.589844 C 13.796875 17.589844 13.734375 17.59375 13.6875 17.601562 L 13.6875 18.773438 L 14.007812 18.773438 C 14.261719 18.773438 14.453125 18.730469 14.582031 18.640625 C 14.710938 18.546875 14.773438 18.386719 14.773438 18.164062 C 14.773438 17.953125 14.710938 17.804688 14.582031 17.71875 C 14.457031 17.628906 14.289062 17.585938 14.078125 17.585938 "/>
</g>
</svg>
