<svg width="22" xmlns="http://www.w3.org/2000/svg" height="22" viewBox="0 0 22 22" xmlns:xlink="http://www.w3.org/1999/xlink">
<path style="fill:#c19553" d="M 3.667969 0.457031 C 3.195312 0.457031 2.75 0.902344 2.75 1.375 L 2.75 20.625 C 2.75 21.070312 3.222656 21.542969 3.667969 21.542969 L 18.332031 21.542969 C 18.777344 21.542969 19.25 21.070312 19.25 20.625 L 19.25 6.417969 L 13.292969 0.457031 Z "/>
<path style="fill:#000;fill-opacity:.196" d="M 13.292969 5.5 L 13.320312 5.527344 L 13.390625 5.5 Z M 14.207031 6.417969 L 19.25 11.457031 L 19.25 6.417969 Z "/>
<path style="fill:#fff;fill-opacity:.392" d="M 13.292969 0.457031 L 19.25 6.417969 L 14.207031 6.417969 C 13.761719 6.417969 13.292969 5.945312 13.292969 5.5 Z "/>
<path style="fill:#000;fill-opacity:.196" d="M 2.75 16.042969 L 2.75 20.625 C 2.75 21.070312 3.222656 21.542969 3.667969 21.542969 L 18.332031 21.542969 C 18.777344 21.542969 19.25 21.070312 19.25 20.625 L 19.25 16.042969 Z "/>
<g style="fill:#fff">
<path d="M 8.25 0.457031 L 8.25 2.292969 L 10.082031 2.292969 L 10.082031 0.457031 Z M 8.25 2.292969 L 6.417969 2.292969 L 6.417969 4.125 L 8.25 4.125 Z M 8.25 4.125 L 8.25 5.957031 L 10.082031 5.957031 L 10.082031 4.125 Z M 8.25 5.957031 L 6.417969 5.957031 L 6.417969 7.792969 L 8.25 7.792969 Z M 8.25 7.792969 L 8.25 9.625 L 10.082031 9.625 L 10.082031 7.792969 Z M 6.417969 10.542969 L 6.417969 14.207031 L 10.082031 14.207031 L 10.082031 10.542969 Z "/>
<path d="M 8.378906 20.625 C 8.394531 20.371094 8.445312 20.105469 8.527344 19.824219 C 8.613281 19.542969 8.714844 19.261719 8.832031 18.984375 C 8.957031 18.707031 9.089844 18.445312 9.230469 18.203125 C 9.371094 17.953125 9.507812 17.742188 9.636719 17.5625 L 7.792969 17.5625 L 7.792969 16.957031 L 10.65625 16.957031 L 10.65625 17.507812 C 10.527344 17.632812 10.390625 17.804688 10.238281 18.023438 C 10.085938 18.246094 9.941406 18.496094 9.804688 18.777344 C 9.671875 19.058594 9.554688 19.355469 9.449219 19.675781 C 9.351562 19.992188 9.289062 20.308594 9.265625 20.625 L 8.378906 20.625 "/>
<path d="M 14.144531 17.46875 C 13.941406 17.726562 13.753906 17.972656 13.585938 18.203125 C 13.414062 18.429688 13.257812 18.652344 13.109375 18.859375 C 12.960938 19.066406 12.824219 19.265625 12.691406 19.457031 C 12.5625 19.648438 12.441406 19.835938 12.324219 20.019531 L 14.207031 20.019531 L 14.207031 20.625 L 11.316406 20.625 L 11.316406 20.203125 C 11.417969 20.035156 11.53125 19.855469 11.648438 19.671875 C 11.765625 19.480469 11.898438 19.28125 12.046875 19.066406 C 12.191406 18.855469 12.351562 18.621094 12.519531 18.375 C 12.695312 18.125 12.886719 17.855469 13.09375 17.5625 L 11.40625 17.5625 L 11.40625 16.957031 L 14.144531 16.957031 L 14.144531 17.46875 "/>
</g>
</svg>
