<svg width="22" xmlns="http://www.w3.org/2000/svg" height="22" viewBox="0 0 22 22" xmlns:xlink="http://www.w3.org/1999/xlink">
<path style="fill:#7099c3" d="M 3.667969 0.457031 C 3.195312 0.457031 2.75 0.902344 2.75 1.375 L 2.75 20.625 C 2.75 21.070312 3.222656 21.542969 3.667969 21.542969 L 18.332031 21.542969 C 18.777344 21.542969 19.25 21.070312 19.25 20.625 L 19.25 1.375 C 19.25 0.902344 18.804688 0.457031 18.332031 0.457031 Z "/>
<g style="fill:#fff">
<path d="M 7.625 9.125 L 7.625 9.875 L 14.375 9.875 L 14.375 9.125 Z "/>
<path d="M 7.25 10.625 L 7.25 11.375 L 14.75 11.375 L 14.75 10.625 Z "/>
<path d="M 7.625 12.125 L 7.625 12.875 L 14.375 12.875 L 14.375 12.125 Z "/>
<path d="M 10.625 7.25 L 10.625 14.75 L 11.375 14.75 L 11.375 7.25 Z "/>
</g>
<g style="fill:none;stroke:#fff">
<g style="stroke-width:2">
<path d="M 20.437559 33.000167 C 18.43753 27.00008 18.43753 20.999993 20.437559 14.999907 " transform="matrix(.375 0 0 .375 2.00009 2.00012)"/>
<path d="M 27.46891 33.000167 C 29.468939 28.000094 29.468939 20.999993 27.46891 14.999907 " transform="matrix(.375 0 0 .375 2.00009 2.00012)"/>
</g>
<path style="stroke-linecap:round;stroke-width:1.821" d="M 33.057423 27.317125 C 33.057423 32.343357 28.979537 36.421242 23.953306 36.421242 C 18.927074 36.421242 14.849188 32.343357 14.849188 27.317125 C 14.849188 22.290894 18.927074 18.213008 23.953306 18.213008 C 28.979537 18.213008 33.057423 22.290894 33.057423 27.317125 Z " transform="matrix(.4119 0 0 .4119 1.1336 -.25197)"/>
</g>
</svg>
