<svg width="22" xmlns="http://www.w3.org/2000/svg" height="22" viewBox="0 0 22 22" xmlns:xlink="http://www.w3.org/1999/xlink">
<path style="fill:#3468ce" d="M 3.667969 0.457031 C 3.195312 0.457031 2.75 0.902344 2.75 1.375 L 2.75 20.625 C 2.75 21.070312 3.222656 21.542969 3.667969 21.542969 L 18.332031 21.542969 C 18.777344 21.542969 19.25 21.070312 19.25 20.625 L 19.25 6.417969 L 13.292969 0.457031 Z "/>
<path style="fill:#000;fill-opacity:.196" d="M 13.292969 5.5 L 13.320312 5.527344 L 13.390625 5.5 Z M 14.207031 6.417969 L 19.25 11.457031 L 19.25 6.417969 Z "/>
<path style="fill:#fff;fill-opacity:.392" d="M 13.292969 0.457031 L 19.25 6.417969 L 14.207031 6.417969 C 13.761719 6.417969 13.292969 5.945312 13.292969 5.5 Z "/>
<path style="fill:#fff" d="M 7.371094 7.332031 L 10.503906 7.332031 C 10.652344 7.332031 10.769531 7.457031 10.769531 7.609375 L 10.769531 10.265625 C 10.769531 10.417969 10.652344 10.542969 10.503906 10.542969 L 7.371094 10.542969 C 7.222656 10.542969 7.105469 10.417969 7.105469 10.265625 L 7.105469 7.609375 C 7.105469 7.457031 7.222656 7.332031 7.371094 7.332031 Z "/>
<g style="fill:none;stroke:#fff;stroke-linecap:round;stroke-linejoin:round">
<path d="M 26.502841 17.5 L 31.497159 17.5 " transform="matrix(.45833 0 0 .45833 -.22917 -.45833)"/>
<path d="M 26.502841 20.5 L 31.497159 20.5 " transform="matrix(.45833 0 0 .45833 -.22917 -.45833)"/>
<path d="M 26.502841 23.5 L 31.497159 23.5 " transform="matrix(.45833 0 0 .45833 -.22917 -.45833)"/>
<path d="M 16.002841 26.5 L 32 26.5 " transform="matrix(.45833 0 0 .45833 -.22917 -.45833)"/>
<path d="M 16.002841 29.5 L 32 29.5 " transform="matrix(.45833 0 0 .45833 -.22917 -.45833)"/>
<path d="M 16.002841 32.5 L 32 32.5 " transform="matrix(.45833 0 0 .45833 -.22917 -.45833)"/>
</g>
<path style="fill:#000;fill-opacity:.196" d="M 2.75 16.042969 L 2.75 20.625 C 2.75 21.070312 3.222656 21.542969 3.667969 21.542969 L 18.332031 21.542969 C 18.777344 21.542969 19.25 21.070312 19.25 20.625 L 19.25 16.042969 Z "/>
<g style="fill:#fff">
<path d="M 7.207031 18.792969 C 7.207031 18.960938 7.214844 19.121094 7.226562 19.273438 C 7.242188 19.421875 7.273438 19.550781 7.316406 19.660156 C 7.363281 19.769531 7.425781 19.855469 7.503906 19.921875 C 7.585938 19.984375 7.691406 20.019531 7.828125 20.019531 C 7.960938 20.019531 8.066406 19.984375 8.144531 19.921875 C 8.230469 19.855469 8.292969 19.769531 8.335938 19.660156 C 8.382812 19.546875 8.410156 19.414062 8.421875 19.269531 C 8.441406 19.121094 8.449219 18.960938 8.449219 18.792969 C 8.449219 18.621094 8.441406 18.460938 8.421875 18.316406 C 8.410156 18.164062 8.382812 18.03125 8.335938 17.921875 C 8.292969 17.8125 8.230469 17.726562 8.152344 17.660156 C 8.070312 17.597656 7.964844 17.566406 7.828125 17.566406 C 7.691406 17.566406 7.585938 17.597656 7.503906 17.660156 C 7.425781 17.726562 7.363281 17.816406 7.316406 17.929688 C 7.273438 18.039062 7.242188 18.167969 7.226562 18.316406 C 7.214844 18.460938 7.207031 18.621094 7.207031 18.792969 M 6.417969 18.792969 C 6.417969 18.1875 6.542969 17.730469 6.789062 17.421875 C 7.039062 17.113281 7.386719 16.957031 7.828125 16.957031 C 8.289062 16.957031 8.636719 17.113281 8.878906 17.421875 C 9.121094 17.730469 9.238281 18.1875 9.238281 18.792969 C 9.238281 19.398438 9.117188 19.855469 8.871094 20.164062 C 8.628906 20.472656 8.28125 20.625 7.835938 20.625 C 7.375 20.625 7.023438 20.472656 6.777344 20.164062 C 6.535156 19.855469 6.417969 19.398438 6.417969 18.792969 "/>
<path d="M 10.53125 19.984375 C 10.550781 19.988281 10.574219 19.988281 10.601562 19.988281 C 10.625 19.988281 10.648438 19.988281 10.671875 19.988281 C 10.847656 19.988281 10.996094 19.957031 11.113281 19.898438 C 11.234375 19.835938 11.332031 19.753906 11.40625 19.648438 C 11.480469 19.542969 11.535156 19.417969 11.5625 19.273438 C 11.597656 19.125 11.613281 18.964844 11.613281 18.792969 C 11.613281 18.640625 11.601562 18.492188 11.574219 18.347656 C 11.550781 18.207031 11.507812 18.078125 11.441406 17.96875 C 11.378906 17.859375 11.292969 17.773438 11.183594 17.707031 C 11.074219 17.640625 10.933594 17.605469 10.757812 17.605469 C 10.726562 17.605469 10.6875 17.605469 10.644531 17.609375 C 10.601562 17.609375 10.566406 17.613281 10.53125 17.621094 L 10.53125 19.984375 M 12.40625 18.792969 C 12.40625 19.117188 12.359375 19.394531 12.265625 19.625 C 12.175781 19.851562 12.054688 20.039062 11.890625 20.183594 C 11.730469 20.324219 11.539062 20.433594 11.316406 20.5 C 11.097656 20.5625 10.855469 20.597656 10.589844 20.597656 C 10.449219 20.597656 10.3125 20.589844 10.175781 20.574219 C 10.046875 20.5625 9.90625 20.542969 9.753906 20.511719 L 9.753906 17.082031 C 9.929688 17.050781 10.097656 17.027344 10.253906 17.015625 C 10.410156 17.003906 10.554688 16.996094 10.691406 16.996094 C 10.945312 16.996094 11.179688 17.03125 11.390625 17.101562 C 11.609375 17.167969 11.789062 17.277344 11.9375 17.421875 C 12.085938 17.566406 12.199219 17.753906 12.277344 17.980469 C 12.363281 18.203125 12.40625 18.472656 12.40625 18.792969 "/>
<path d="M 15.582031 17.039062 L 15.582031 17.617188 L 14.550781 17.617188 L 14.550781 20.550781 L 13.765625 20.550781 L 13.765625 17.617188 L 12.734375 17.617188 L 12.734375 17.039062 L 15.582031 17.039062 "/>
</g>
</svg>
