<svg width="22" xmlns="http://www.w3.org/2000/svg" height="22" viewBox="0 0 22 22" xmlns:xlink="http://www.w3.org/1999/xlink">
<path style="fill:#c19553" d="M 3.667969 0.457031 C 3.195312 0.457031 2.75 0.902344 2.75 1.375 L 2.75 20.625 C 2.75 21.070312 3.222656 21.542969 3.667969 21.542969 L 18.332031 21.542969 C 18.777344 21.542969 19.25 21.070312 19.25 20.625 L 19.25 6.417969 L 13.292969 0.457031 Z "/>
<path style="fill:#000;fill-opacity:.196" d="M 13.292969 5.5 L 13.320312 5.527344 L 13.390625 5.5 Z M 14.207031 6.417969 L 19.25 11.457031 L 19.25 6.417969 Z "/>
<path style="fill:#fff;fill-opacity:.392" d="M 13.292969 0.457031 L 19.25 6.417969 L 14.207031 6.417969 C 13.761719 6.417969 13.292969 5.945312 13.292969 5.5 Z "/>
<path style="fill:#000;fill-opacity:.196" d="M 2.75 16.042969 L 2.75 20.625 C 2.75 21.070312 3.222656 21.542969 3.667969 21.542969 L 18.332031 21.542969 C 18.777344 21.542969 19.25 21.070312 19.25 20.625 L 19.25 16.042969 Z "/>
<g style="fill:#fff">
<path d="M 8.25 0.457031 L 8.25 2.292969 L 10.082031 2.292969 L 10.082031 0.457031 Z M 8.25 2.292969 L 6.417969 2.292969 L 6.417969 4.125 L 8.25 4.125 Z M 8.25 4.125 L 8.25 5.957031 L 10.082031 5.957031 L 10.082031 4.125 Z M 8.25 5.957031 L 6.417969 5.957031 L 6.417969 7.792969 L 8.25 7.792969 Z M 8.25 7.792969 L 8.25 9.625 L 10.082031 9.625 L 10.082031 7.792969 Z M 6.417969 10.542969 L 6.417969 14.207031 L 10.082031 14.207031 L 10.082031 10.542969 Z "/>
<path d="M 7.4375 16.957031 C 7.664062 16.957031 7.867188 16.980469 8.050781 17.027344 C 8.234375 17.074219 8.394531 17.148438 8.523438 17.246094 C 8.65625 17.34375 8.757812 17.46875 8.824219 17.621094 C 8.898438 17.769531 8.933594 17.945312 8.933594 18.148438 C 8.933594 18.359375 8.886719 18.550781 8.792969 18.722656 C 8.699219 18.894531 8.542969 19.023438 8.328125 19.113281 C 8.398438 19.214844 8.476562 19.328125 8.554688 19.453125 C 8.636719 19.574219 8.714844 19.703125 8.792969 19.839844 C 8.871094 19.972656 8.941406 20.109375 9.011719 20.246094 C 9.082031 20.378906 9.144531 20.503906 9.195312 20.625 L 8.371094 20.625 C 8.273438 20.390625 8.160156 20.167969 8.027344 19.953125 C 7.898438 19.734375 7.761719 19.511719 7.609375 19.289062 L 7.203125 19.289062 L 7.203125 20.625 L 6.417969 20.625 L 6.417969 17.050781 C 6.492188 17.035156 6.578125 17.023438 6.664062 17.011719 C 6.757812 16.996094 6.851562 16.984375 6.945312 16.980469 C 7.039062 16.972656 7.128906 16.96875 7.214844 16.964844 C 7.300781 16.960938 7.375 16.957031 7.4375 16.957031 M 8.136719 18.140625 C 8.136719 17.949219 8.070312 17.808594 7.941406 17.71875 C 7.816406 17.628906 7.648438 17.585938 7.4375 17.585938 C 7.410156 17.585938 7.371094 17.585938 7.332031 17.589844 C 7.289062 17.589844 7.246094 17.59375 7.203125 17.601562 L 7.203125 18.691406 L 7.375 18.691406 C 7.644531 18.691406 7.835938 18.644531 7.957031 18.550781 C 8.074219 18.453125 8.136719 18.316406 8.136719 18.140625 "/>
<path d="M 11.558594 20.625 L 11.375 19.789062 L 10.320312 19.789062 L 10.140625 20.625 L 9.324219 20.625 C 9.511719 19.910156 9.699219 19.261719 9.890625 18.675781 C 10.082031 18.085938 10.269531 17.527344 10.449219 17 L 11.304688 17 C 11.492188 17.53125 11.675781 18.09375 11.859375 18.691406 C 12.046875 19.285156 12.226562 19.929688 12.402344 20.625 L 11.558594 20.625 M 10.855469 17.703125 C 10.8125 17.839844 10.773438 17.96875 10.734375 18.09375 C 10.699219 18.214844 10.667969 18.335938 10.632812 18.457031 C 10.601562 18.574219 10.574219 18.695312 10.542969 18.816406 C 10.519531 18.9375 10.492188 19.0625 10.464844 19.191406 L 11.238281 19.191406 C 11.214844 19.0625 11.1875 18.9375 11.164062 18.816406 C 11.136719 18.695312 11.109375 18.574219 11.074219 18.457031 C 11.042969 18.335938 11.007812 18.214844 10.972656 18.09375 C 10.9375 17.96875 10.898438 17.839844 10.855469 17.703125 "/>
<path d="M 13.828125 16.957031 C 14.050781 16.957031 14.257812 16.980469 14.441406 17.027344 C 14.621094 17.074219 14.78125 17.148438 14.914062 17.246094 C 15.042969 17.34375 15.144531 17.46875 15.210938 17.621094 C 15.285156 17.769531 15.320312 17.945312 15.320312 18.148438 C 15.320312 18.359375 15.273438 18.550781 15.179688 18.722656 C 15.085938 18.894531 14.933594 19.023438 14.714844 19.113281 C 14.785156 19.214844 14.863281 19.328125 14.945312 19.453125 C 15.023438 19.574219 15.105469 19.703125 15.179688 19.839844 C 15.257812 19.972656 15.328125 20.109375 15.398438 20.246094 C 15.46875 20.378906 15.53125 20.503906 15.582031 20.625 L 14.757812 20.625 C 14.660156 20.390625 14.546875 20.167969 14.414062 19.953125 C 14.285156 19.734375 14.148438 19.511719 14 19.289062 L 13.589844 19.289062 L 13.589844 20.625 L 12.804688 20.625 L 12.804688 17.050781 C 12.882812 17.035156 12.964844 17.023438 13.054688 17.011719 C 13.148438 16.996094 13.242188 16.984375 13.335938 16.980469 C 13.429688 16.972656 13.519531 16.96875 13.601562 16.964844 C 13.6875 16.960938 13.761719 16.957031 13.828125 16.957031 M 14.523438 18.140625 C 14.523438 17.949219 14.460938 17.808594 14.332031 17.71875 C 14.203125 17.628906 14.035156 17.585938 13.828125 17.585938 C 13.796875 17.585938 13.761719 17.585938 13.71875 17.589844 C 13.675781 17.589844 13.632812 17.59375 13.589844 17.601562 L 13.589844 18.691406 L 13.761719 18.691406 C 14.03125 18.691406 14.226562 18.644531 14.34375 18.550781 C 14.464844 18.453125 14.523438 18.316406 14.523438 18.140625 "/>
</g>
</svg>
