<svg width="22" xmlns="http://www.w3.org/2000/svg" height="22" viewBox="0 0 22 22" xmlns:xlink="http://www.w3.org/1999/xlink">
<path style="fill:#dcdcdc" d="M 3.667969 0.457031 C 3.195312 0.457031 2.75 0.902344 2.75 1.375 L 2.75 20.625 C 2.75 21.070312 3.222656 21.542969 3.667969 21.542969 L 18.332031 21.542969 C 18.777344 21.542969 19.25 21.070312 19.25 20.625 L 19.25 6.417969 L 13.292969 0.457031 Z "/>
<path style="fill:#000;fill-opacity:.196" d="M 13.292969 5.5 L 13.320312 5.527344 L 13.390625 5.5 Z M 14.207031 6.417969 L 19.25 11.457031 L 19.25 6.417969 Z "/>
<path style="fill:#fff;fill-opacity:.392" d="M 13.292969 0.457031 L 19.25 6.417969 L 14.207031 6.417969 C 13.761719 6.417969 13.292969 5.945312 13.292969 5.5 Z "/>
<g style="fill:#888">
<path d="M 11 7.332031 C 8.46875 7.332031 6.417969 9.386719 6.417969 11.917969 C 6.417969 14.449219 8.46875 16.5 11 16.5 C 13.53125 16.5 15.582031 14.449219 15.582031 11.917969 C 15.582031 9.386719 13.53125 7.332031 11 7.332031 Z M 11 8.25 C 13.023438 8.25 14.667969 9.890625 14.667969 11.917969 C 14.667969 13.941406 13.023438 15.582031 11 15.582031 C 8.976562 15.582031 7.332031 13.941406 7.332031 11.917969 C 7.332031 9.890625 8.976562 8.25 11 8.25 Z "/>
<path d="M 11.917969 10.082031 C 11.917969 10.589844 11.507812 11 11 11 C 10.492188 11 10.082031 10.589844 10.082031 10.082031 C 10.082031 9.578125 10.492188 9.167969 11 9.167969 C 11.507812 9.167969 11.917969 9.578125 11.917969 10.082031 Z "/>
<path d="M 10.542969 11.457031 L 11.457031 11.457031 C 11.917969 11.457031 11.917969 11.457031 11.917969 11.917969 L 11.917969 14.207031 C 11.917969 14.667969 11.917969 14.667969 11.457031 14.667969 L 10.542969 14.667969 C 10.082031 14.667969 10.082031 14.667969 10.082031 14.207031 L 10.082031 11.917969 C 10.082031 11.457031 10.082031 11.457031 10.542969 11.457031 Z "/>
</g>
</svg>
