<svg width="22" xmlns="http://www.w3.org/2000/svg" height="22" viewBox="0 0 22 22" xmlns:xlink="http://www.w3.org/1999/xlink">
<path style="fill:#dcdcdc" d="M 3.667969 0.457031 C 3.195312 0.457031 2.75 0.902344 2.75 1.375 L 2.75 20.625 C 2.75 21.070312 3.222656 21.542969 3.667969 21.542969 L 18.332031 21.542969 C 18.777344 21.542969 19.25 21.070312 19.25 20.625 L 19.25 6.417969 L 13.292969 0.457031 Z "/>
<path style="fill:#000;fill-opacity:.196" d="M 13.292969 5.5 L 13.320312 5.527344 L 13.390625 5.5 Z M 14.207031 6.417969 L 19.25 11.457031 L 19.25 6.417969 Z "/>
<path style="fill:#fff;fill-opacity:.392" d="M 13.292969 0.457031 L 19.25 6.417969 L 14.207031 6.417969 C 13.761719 6.417969 13.292969 5.945312 13.292969 5.5 Z "/>
<g style="fill:#888">
<path d="M 8.25 9.625 L 5.5 12.375 C 5.5 12.832031 5.5 12.832031 5.5 13.292969 L 8.25 16.042969 L 8.25 14.207031 L 6.875 12.832031 L 8.25 11.457031 Z "/>
<path d="M 13.75 9.625 L 16.5 12.375 C 16.5 12.832031 16.5 12.832031 16.5 13.292969 L 13.75 16.042969 L 13.75 14.207031 L 15.125 12.832031 L 13.75 11.457031 Z "/>
<path d="M 11.917969 9.625 L 12.832031 9.625 L 11 16.042969 L 10.082031 16.042969 Z "/>
</g>
</svg>
