<svg width="22" xmlns="http://www.w3.org/2000/svg" height="22" viewBox="0 0 22 22" xmlns:xlink="http://www.w3.org/1999/xlink">
<path style="fill:#d14626" d="M 3.667969 0.457031 C 3.195312 0.457031 2.75 0.902344 2.75 1.375 L 2.75 20.625 C 2.75 21.070312 3.222656 21.542969 3.667969 21.542969 L 18.332031 21.542969 C 18.777344 21.542969 19.25 21.070312 19.25 20.625 L 19.25 6.417969 L 13.292969 0.457031 Z "/>
<path style="fill:#000;fill-opacity:.196" d="M 13.292969 5.5 L 13.320312 5.527344 L 13.390625 5.5 Z M 14.207031 6.417969 L 19.25 11.457031 L 19.25 6.417969 Z "/>
<path style="fill:#fff;fill-opacity:.392" d="M 13.292969 0.457031 L 19.25 6.417969 L 14.207031 6.417969 C 13.761719 6.417969 13.292969 5.945312 13.292969 5.5 Z "/>
<g style="fill:#fff">
<path d="M 5.5 7.332031 L 8.707031 7.332031 L 8.707031 9.625 L 5.5 9.625 Z "/>
<path d="M 5.5 11 L 8.707031 11 L 8.707031 13.292969 L 5.5 13.292969 Z "/>
<path d="M 13.539062 7.332031 L 13.539062 10.222656 L 16.5 10.222656 C 16.5 8.625 15.175781 7.332031 13.539062 7.332031 Z "/>
<path d="M 13.117188 7.746094 C 11.480469 7.746094 10.152344 9.039062 10.152344 10.632812 C 10.152344 12.226562 11.480469 13.519531 13.117188 13.519531 C 14.75 13.519531 16.078125 12.226562 16.078125 10.632812 L 13.117188 10.632812 Z "/>
</g>
<path style="fill:#000;fill-opacity:.196" d="M 2.75 16.042969 L 2.75 20.625 C 2.75 21.070312 3.222656 21.542969 3.667969 21.542969 L 18.332031 21.542969 C 18.777344 21.542969 19.25 21.070312 19.25 20.625 L 19.25 16.042969 Z "/>
<g style="fill:#fff">
<path d="M 7.511719 16.957031 C 8.019531 16.957031 8.414062 17.054688 8.695312 17.246094 C 8.972656 17.433594 9.113281 17.742188 9.113281 18.171875 C 9.113281 18.605469 8.972656 18.917969 8.6875 19.113281 C 8.40625 19.304688 8.011719 19.402344 7.492188 19.402344 L 7.210938 19.402344 L 7.210938 20.625 L 6.417969 20.625 L 6.417969 17.046875 C 6.492188 17.03125 6.582031 17.015625 6.675781 17.003906 C 6.773438 16.992188 6.871094 16.984375 6.972656 16.980469 C 7.070312 16.972656 7.167969 16.96875 7.261719 16.964844 C 7.355469 16.960938 7.441406 16.957031 7.511719 16.957031 M 7.605469 17.585938 C 7.554688 17.585938 7.488281 17.585938 7.402344 17.589844 C 7.320312 17.589844 7.257812 17.59375 7.210938 17.601562 L 7.210938 18.773438 L 7.53125 18.773438 C 7.785156 18.773438 7.976562 18.730469 8.105469 18.640625 C 8.234375 18.546875 8.300781 18.386719 8.300781 18.164062 C 8.300781 17.953125 8.234375 17.804688 8.105469 17.71875 C 7.980469 17.628906 7.8125 17.585938 7.605469 17.585938 "/>
<path d="M 10.738281 16.957031 C 11.246094 16.957031 11.640625 17.054688 11.917969 17.246094 C 12.199219 17.433594 12.339844 17.742188 12.339844 18.171875 C 12.339844 18.605469 12.195312 18.917969 11.914062 19.113281 C 11.632812 19.304688 11.234375 19.402344 10.71875 19.402344 L 10.4375 19.402344 L 10.4375 20.625 L 9.640625 20.625 L 9.640625 17.046875 C 9.71875 17.03125 9.804688 17.015625 9.898438 17.003906 C 10 16.992188 10.097656 16.984375 10.195312 16.980469 C 10.296875 16.972656 10.394531 16.96875 10.488281 16.964844 C 10.582031 16.960938 10.664062 16.957031 10.738281 16.957031 M 10.828125 17.585938 C 10.78125 17.585938 10.714844 17.585938 10.628906 17.589844 C 10.546875 17.589844 10.484375 17.59375 10.4375 17.601562 L 10.4375 18.773438 L 10.757812 18.773438 C 11.011719 18.773438 11.203125 18.730469 11.332031 18.640625 C 11.460938 18.546875 11.527344 18.386719 11.527344 18.164062 C 11.527344 17.953125 11.460938 17.804688 11.332031 17.71875 C 11.207031 17.628906 11.039062 17.585938 10.828125 17.585938 "/>
<path d="M 15.582031 17 L 15.582031 17.597656 L 14.53125 17.597656 L 14.53125 20.625 L 13.730469 20.625 L 13.730469 17.597656 L 12.679688 17.597656 L 12.679688 17 L 15.582031 17 "/>
</g>
</svg>
