<svg width="24" xmlns="http://www.w3.org/2000/svg" height="24" viewBox="0 0 24 24" xmlns:xlink="http://www.w3.org/1999/xlink">
<g style="stroke-linecap:round;stroke-linejoin:round;stroke:#de4646;fill:none">
<path style="stroke-width:4.23" d="M 107.282404 -150.692199 L 125.850512 -100.377257 L 149.639585 -160.03941 " transform="matrix(.09277 0 0 .09277 0 19.29688)"/>
<path style="stroke-width:4.553" d="M 102.356171 -150.060631 L 64.7147 -98.272029 L 72.588251 -146.565953 " transform="matrix(.09277 0 0 .09277 0 19.29688)"/>
<g style="stroke-width:4.336">
<path d="M 150.692199 -155.828954 L 195.533549 -114.019132 L 186.607383 -161.092024 " transform="matrix(.09277 0 0 .09277 0 19.29688)"/>
<path d="M 30.778429 -96.040488 C 28.378469 -101.093034 141.723929 1.936809 141.723929 1.936809 L 94.735247 -97.514147 Z " transform="matrix(.09277 0 0 .09277 0 19.29688)"/>
<path d="M 30.146861 -96.840474 L 72.588251 -147.492253 L 106.22979 -153.807936 L 91.577405 -97.72467 Z " transform="matrix(.09277 0 0 .09277 0 19.29688)"/>
<path d="M 149.13433 -160.755187 L 185.638979 -161.934115 L 225.217259 -122.987402 L 160.923605 -105.30349 Z " transform="matrix(.09277 0 0 .09277 0 19.29688)"/>
<path d="M 105.177176 -153.513204 L 148.881703 -160.755187 L 161.597278 -104.75613 L 91.661614 -97.093102 Z " transform="matrix(.09277 0 0 .09277 0 19.29688)"/>
<path d="M 142.313393 1.221032 L 225.848828 -123.071611 L 161.597278 -104.75613 Z " transform="matrix(.09277 0 0 .09277 0 19.29688)"/>
</g>
<g style="stroke-width:2.168">
<path d="M 195.154608 -114.187551 L 144.250202 -1.431555 " transform="matrix(.09277 0 0 .09277 0 19.29688)"/>
<path d="M 124.334748 -101.05093 L 142.776543 -1.431555 L 139.197656 -3.915724 " transform="matrix(.09277 0 0 .09277 0 19.29688)"/>
<path d="M 58.904271 -97.008892 L 140.039747 -1.263137 " transform="matrix(.09277 0 0 .09277 0 19.29688)"/>
</g>
</g>
</svg>
