<svg width="24" xmlns="http://www.w3.org/2000/svg" height="24" viewBox="0 0 24 24" xmlns:xlink="http://www.w3.org/1999/xlink">
<defs>
<clipPath id="clip1">
<rect width="24" height="24"/>
</clipPath>
<clipPath id="clip2">
<rect width="24" height="24"/>
</clipPath>
<filter width="100%" x="0" y="0" height="100%" filterUnits="objectBoundingBox" id="alpha">
<feColorMatrix values="0 0 0 0 1 0 0 0 0 1 0 0 0 0 1 0 0 0 1 0" in="SourceGraphic" type="matrix"/>
</filter>
<g style="clip-path:url(#clip2)" id="surface9">
<path style="fill:none;stroke:url(#linear0);stroke-linecap:round;stroke-width:.681" d="M 25.679688 21.273438 L 27.039062 21.273438 " transform="scale(.5)"/>
</g>
<g style="clip-path:url(#clip1)" id="surface6">
<path style="fill:#6fac63;fill-rule:evenodd;stroke:#6fac63;stroke-linecap:round;stroke-width:.681" d="M 27.726562 25.445312 L 27.726562 29.421875 C 28.984375 30.484375 29.789062 32.078125 29.789062 33.851562 C 29.789062 33.96875 29.796875 34.125 29.789062 34.234375 L 27.726562 34.234375 L 27.726562 36.9375 L 29.085938 36.9375 L 29.085938 37.640625 L 30.492188 37.640625 L 30.492188 36.9375 L 31.8125 36.9375 L 31.8125 29.023438 C 30.835938 27.460938 29.421875 26.203125 27.726562 25.445312 Z " transform="scale(.5)"/>
</g>
<linearGradient gradientTransform="matrix(.68089 0 0 .68085 19.21267 9.36186)" id="linear0" x1="9.531" gradientUnits="userSpaceOnUse" x2="11.468">
<stop offset="0" style="stop-color:#fff"/>
<stop offset="1" style="stop-color:#fff;stop-opacity:0"/>
</linearGradient>
<mask id="mask0">
<g style="filter:url(#alpha)">
<rect width="24" x="0" y="0" height="24" style="fill:#000;fill-opacity:.102"/>
</g>
</mask>
<mask id="mask1">
<g style="filter:url(#alpha)">
<rect width="24" x="0" y="0" height="24" style="fill:#000;fill-opacity:.537"/>
</g>
</mask>
</defs>
<g style="fill:#6fac63;fill-rule:evenodd">
<g style="stroke:#6fac63;stroke-width:.681">
<path d="M 31.8125 12.421875 L 35.210938 12.421875 C 35.210938 11.53125 33.015625 10.617188 31.8125 10.382812 Z " transform="scale(.5)"/>
<g style="stroke-linecap:round">
<path style="stroke-miterlimit:10" d="M 31.125 16.507812 L 33.851562 16.507812 L 33.851562 17.875 L 31.125 17.875 Z " transform="scale(.5)"/>
<path style="stroke-linejoin:round" d="M 12.085938 37.640625 L 35.914062 37.640625 L 35.914062 34.234375 L 33.195312 34.234375 C 33.195312 34.117188 33.195312 33.96875 33.195312 33.851562 C 33.195312 28.773438 29.070312 24.65625 24 24.65625 C 18.929688 24.65625 14.804688 28.773438 14.804688 33.851562 C 14.804688 33.96875 14.828125 34.117188 14.828125 34.234375 L 12.085938 34.234375 Z M 18.210938 33.851562 C 18.210938 30.65625 20.804688 28.0625 24 28.0625 C 27.195312 28.0625 29.789062 30.65625 29.789062 33.851562 C 29.789062 33.960938 29.796875 34.125 29.789062 34.234375 L 18.210938 34.234375 C 18.203125 34.125 18.210938 33.960938 18.210938 33.851562 Z " transform="scale(.5)"/>
</g>
</g>
<path d="M 7.574219 16.210938 L 8.054688 16.351562 C 8.078125 16.238281 8.113281 16.128906 8.148438 16.019531 L 7.660156 15.882812 Z M 7.988281 15.042969 L 8.445312 15.320312 C 8.5 15.222656 8.554688 15.125 8.617188 15.03125 L 8.148438 14.746094 Z M 8.671875 14.019531 L 9.085938 14.457031 C 9.164062 14.375 9.246094 14.300781 9.328125 14.222656 L 8.902344 13.777344 Z M 9.597656 13.222656 L 9.902344 13.796875 C 9.996094 13.742188 10.09375 13.6875 10.191406 13.636719 L 9.871094 13.054688 Z M 10.671875 12.703125 L 10.839844 13.371094 C 10.941406 13.339844 11.042969 13.320312 11.148438 13.296875 L 10.980469 12.617188 Z M 11.839844 13.210938 C 11.894531 13.210938 11.945312 13.203125 12 13.203125 C 12.054688 13.203125 12.105469 13.210938 12.160156 13.210938 L 12.160156 12.5 L 11.839844 12.5 Z M 12.851562 13.296875 C 12.957031 13.320312 13.058594 13.339844 13.160156 13.371094 L 13.328125 12.703125 L 13.019531 12.617188 Z M 13.808594 13.636719 C 13.90625 13.6875 14.003906 13.742188 14.097656 13.796875 L 14.40625 13.222656 L 14.128906 13.054688 Z M 14.671875 14.222656 C 14.753906 14.300781 14.835938 14.375 14.914062 14.457031 L 15.332031 14.019531 L 15.097656 13.777344 Z M 15.382812 15.03125 C 15.445312 15.125 15.5 15.222656 15.554688 15.320312 L 16.011719 15.042969 L 15.851562 14.746094 Z M 15.851562 16.019531 C 15.886719 16.128906 15.921875 16.238281 15.945312 16.351562 L 16.425781 16.210938 L 16.339844 15.882812 Z "/>
<path d="M 7.234375 18.648438 L 7.574219 18.648438 L 7.574219 17.96875 L 7.234375 17.96875 Z M 7.914062 18.648438 L 8.253906 18.648438 L 8.253906 17.628906 L 7.914062 17.628906 Z M 8.59375 18.648438 L 8.9375 18.648438 L 8.9375 17.96875 L 8.59375 17.96875 Z M 9.277344 18.648438 L 9.617188 18.648438 L 9.617188 17.628906 L 9.277344 17.628906 Z M 9.957031 18.648438 L 10.296875 18.648438 L 10.296875 17.96875 L 9.957031 17.96875 Z M 10.636719 18.648438 L 10.980469 18.648438 L 10.980469 17.628906 L 10.636719 17.628906 Z M 11.320312 18.648438 L 11.660156 18.648438 L 11.660156 17.96875 L 11.320312 17.96875 Z M 12 18.648438 L 12.339844 18.648438 L 12.339844 17.628906 L 12 17.628906 Z M 12.679688 18.648438 L 13.019531 18.648438 L 13.019531 17.96875 L 12.679688 17.96875 Z M 13.363281 18.648438 L 13.703125 18.648438 L 13.703125 17.628906 L 13.363281 17.628906 Z M 14.042969 18.648438 L 14.382812 18.648438 L 14.382812 17.96875 L 14.042969 17.96875 Z M 14.722656 18.648438 L 15.0625 18.648438 L 15.0625 17.628906 L 14.722656 17.628906 Z M 15.40625 18.648438 L 15.746094 18.648438 L 15.746094 17.96875 L 15.40625 17.96875 Z M 16.085938 18.648438 L 16.425781 18.648438 L 16.425781 17.628906 L 16.085938 17.628906 Z M 16.765625 18.648438 L 17.105469 18.648438 L 17.105469 17.96875 L 16.765625 17.96875 Z "/>
</g>
<use style="mask:url(#mask0)" xlink:href="#surface6"/>
<g style="fill:#6fac63;fill-rule:evenodd">
<g style="stroke-width:.681;stroke:#6fac63">
<path style="stroke-linejoin:round;stroke-linecap:round" d="M 28.40625 35.570312 L 29.804688 35.570312 L 29.804688 39.65625 L 28.40625 39.65625 Z " transform="scale(.5)"/>
<path d="M 31.125 6.34375 L 26.359375 6.34375 C 24.976562 6.34375 18.851562 7.71875 18.851562 7.71875 C 18.257812 8.0625 18.1875 8.679688 18.1875 9.742188 L 25.679688 9.742188 C 25.679688 8.921875 26.203125 9.0625 27.039062 9.0625 L 27.039062 34.257812 L 31.125 34.257812 L 31.125 9.765625 C 32.664062 9.765625 35.210938 8.742188 35.210938 7.703125 L 31.125 7.703125 Z " transform="scale(.5)"/>
</g>
<path d="M 10.628906 6.722656 L 10.628906 7.074219 C 10.628906 7.257812 10.480469 7.40625 10.296875 7.40625 L 9.484375 7.40625 C 9.484375 7.40625 9.265625 7.246094 9.265625 7.074219 L 9.265625 6.722656 Z "/>
<path style="stroke:#6fac63;stroke-linecap:round;stroke-width:.681;stroke-miterlimit:10" d="M 33.5 15.828125 L 34.203125 15.828125 C 34.382812 15.828125 34.53125 15.976562 34.53125 16.15625 L 34.53125 18.226562 C 34.53125 18.40625 34.382812 18.554688 34.203125 18.554688 L 33.5 18.554688 C 33.320312 18.554688 33.171875 18.40625 33.171875 18.226562 L 33.171875 16.15625 C 33.171875 15.976562 33.320312 15.828125 33.5 15.828125 Z " transform="scale(.5)"/>
<path style="fill-opacity:.157" d="M 13.351562 8.085938 L 13.351562 8.425781 L 13.691406 8.425781 L 13.691406 8.085938 Z M 13.351562 8.765625 L 13.351562 9.105469 L 13.691406 9.105469 L 13.691406 8.765625 Z M 13.351562 9.445312 L 13.351562 9.789062 L 13.691406 9.789062 L 13.691406 9.445312 Z M 13.351562 10.128906 L 13.351562 10.46875 L 13.691406 10.46875 L 13.691406 10.128906 Z "/>
<path style="fill-opacity:.102" d="M 15.394531 8.085938 L 15.394531 8.425781 L 15.734375 8.425781 L 15.734375 8.085938 Z M 15.394531 8.765625 L 15.394531 9.105469 L 15.734375 9.105469 L 15.734375 8.765625 Z M 15.394531 9.445312 L 15.394531 9.789062 L 15.734375 9.789062 L 15.734375 9.445312 Z M 15.394531 10.128906 L 15.394531 10.46875 L 15.734375 10.46875 L 15.734375 10.128906 Z "/>
</g>
<use style="mask:url(#mask1)" xlink:href="#surface9"/>
<g style="fill:#6fac63;fill-rule:evenodd">
<path style="fill-opacity:.533" d="M 15.394531 7.0625 L 15.734375 7.0625 L 15.734375 7.40625 L 15.394531 7.40625 Z "/>
<path style="stroke:#6fac63;stroke-linecap:round;stroke-width:.681;stroke-miterlimit:10" d="M 18.132812 13.148438 C 18.132812 14.210938 18.195312 14.828125 18.789062 15.171875 L 25.960938 16.554688 C 26.21875 16.679688 26.304688 16.890625 26.304688 17.234375 L 26.304688 20.640625 L 25.617188 20.640625 C 25.242188 20.640625 24.9375 20.945312 24.9375 21.320312 C 24.9375 21.695312 25.242188 22 25.617188 22 L 27.664062 22 L 27.664062 13.828125 L 26.304688 13.828125 C 25.609375 13.828125 25.617188 13.765625 25.617188 13.148438 Z M 30.390625 13.828125 L 30.390625 22 L 31.75 22 L 31.75 13.828125 Z " transform="scale(.5)"/>
</g>
</svg>
