<svg width="24" xmlns="http://www.w3.org/2000/svg" height="24" viewBox="0 0 24 24" xmlns:xlink="http://www.w3.org/1999/xlink">
<path style="fill:#8eabcf" d="M 3.21875 4.917969 C 2.882812 4.953125 2.59375 5.269531 2.597656 5.613281 L 2.597656 18.136719 C 2.597656 18.5 2.929688 18.832031 3.292969 18.832031 L 20.457031 18.832031 C 20.820312 18.832031 21.152344 18.5 21.152344 18.136719 L 21.152344 5.613281 C 21.152344 5.25 20.820312 4.917969 20.457031 4.917969 L 3.292969 4.917969 C 3.269531 4.917969 3.246094 4.917969 3.21875 4.917969 Z M 4.917969 6.078125 L 18.832031 6.078125 L 11.898438 11.277344 Z M 3.757812 6.648438 L 11.46875 12.441406 C 11.703125 12.609375 12.046875 12.609375 12.28125 12.441406 L 19.992188 6.648438 L 19.992188 17.699219 L 3.757812 17.699219 Z "/>
</svg>
