<svg xmlns="http://www.w3.org/2000/svg" viewBox="0 0 64 64" xmlns:xlink="http://www.w3.org/1999/xlink">
<defs>
<linearGradient gradientTransform="matrix(1.72 0 0 1.5609 -8.3362 -6.6763)" id="linearGradient3966" y1="30.555" y2="45.934" x1="23.452" gradientUnits="userSpaceOnUse" x2="43.007">
<stop offset="0" style="stop-color:#fff;stop-opacity:0"/>
<stop offset="1" style="stop-color:#fff;stop-opacity:0"/>
</linearGradient>
<linearGradient gradientTransform="matrix(1.3418 0 0 1.3287 -.20316 .24702)" spreadMethod="reflect" id="linearGradient3960" x1="44.995" gradientUnits="userSpaceOnUse" x2="3.005">
<stop offset="0" style="stop-color:#fff;stop-opacity:0"/>
<stop offset=".167" style="stop-color:#fff"/>
<stop offset=".832" style="stop-color:#fff"/>
<stop offset="1" style="stop-color:#fff;stop-opacity:0"/>
</linearGradient>
<linearGradient gradientTransform="matrix(1.757 0 0 1.397 -17.394 -16.412)" id="linearGradient3942" y1="46" y2="35" gradientUnits="userSpaceOnUse" x2="0">
<stop offset="0" style="stop-opacity:0"/>
<stop offset=".5"/>
<stop offset="1" style="stop-opacity:0"/>
</linearGradient>
<linearGradient gradientTransform="matrix(1.3414 0 0 1.3287 -.19366 .37019)" id="linearGradient3974" y1="7.976" y2="45.042" gradientUnits="userSpaceOnUse" x2="0">
<stop offset="0" style="stop-color:#c9af8b"/>
<stop offset=".239" style="stop-color:#ad8757"/>
<stop offset=".276" style="stop-color:#c2a57f"/>
<stop offset="1" style="stop-color:#9d7d53"/>
</linearGradient>
<linearGradient id="linearGradient3681">
<stop offset="0"/>
<stop offset="1" style="stop-opacity:0"/>
</linearGradient>
<linearGradient gradientTransform="matrix(1.72 0 0 2.0692 -8.3362 -19.947)" id="linearGradient3972" y1="15.378" y2="37.277" x1="24.823" gradientUnits="userSpaceOnUse" x2="24.997">
<stop offset="0" style="stop-color:#dac197"/>
<stop offset=".239" style="stop-color:#c1a581"/>
<stop offset=".276" style="stop-color:#dac197"/>
<stop offset="1" style="stop-color:#a68b60"/>
</linearGradient>
<linearGradient gradientTransform="matrix(1.5 0 0 1.3571 -4 .14286)" id="linearGradient3963" y1="22" y2="8" gradientUnits="userSpaceOnUse" x2="0">
<stop offset="0" style="stop-color:#fff"/>
<stop offset=".325" style="stop-color:#fff"/>
<stop offset=".374" style="stop-color:#fff;stop-opacity:.69"/>
<stop offset="1" style="stop-color:#fff;stop-opacity:0"/>
</linearGradient>
<radialGradient cx="5" cy="41.5" gradientTransform="matrix(.59382 0 0 1.5367 41.141 -103.94)" id="radialGradient3944" xlink:href="#linearGradient3681" r="5" gradientUnits="userSpaceOnUse"/>
<radialGradient cx="24" cy="31" gradientTransform="matrix(2.2339 0 0 .875 -21.614 14.375)" id="radialGradient3969" r="20" gradientUnits="userSpaceOnUse">
<stop offset="0" style="stop-color:#cbad7a"/>
<stop offset="1" style="stop-color:#cbae7d;stop-opacity:0"/>
</radialGradient>
<radialGradient cx="5" cy="41.5" gradientTransform="matrix(.59382 0 0 1.5367 -6.6595 -103.94)" id="radialGradient3940" xlink:href="#linearGradient3681" r="5" gradientUnits="userSpaceOnUse"/>
</defs>
<g style="opacity:.3" transform="matrix(1.3379 0 0 1.3015 .02308 1.724)">
<rect width="2.96" x="-3.69" y="-47.848" height="15.367" style="opacity:1;fill:url(#radialGradient3940)" transform="scale(-1)"/>
<rect width="40.412" x="3.69" y="32.482" height="15.367" style="opacity:1;fill:url(#linearGradient3942)"/>
<rect width="2.96" x="44.11" y="-47.848" height="15.367" style="opacity:1;fill:url(#radialGradient3944)" transform="scale(1 -1)"/>
</g>
<path style="fill:url(#linearGradient3972);display:block;stroke:url(#linearGradient3974);stroke-linecap:round;stroke-width:.994" d="m11.893 11.664h39.569c2.31 0 3.349-0.38 4.013 1.329l4.026 10.63v34.114c0 2.064 0.138 1.749-2.172 1.749h-50.658c-2.3101 0-2.1721 0.315-2.1721-1.749v-34.114l4.0266-10.63c0.6449-1.675 1.058-1.329 3.3675-1.329z"/>
<rect width="54" x="5" y="24" height="35" style="fill:url(#radialGradient3969);fill-rule:evenodd"/>
<g style="fill:none">
<path style="opacity:.505;display:block;stroke:url(#linearGradient3966);stroke-width:.742" d="m13.151 13.01h37.094c2.165 0 3.505 0.74 4.412 2.772l3.124 8.53v30.754c0 1.94-1.098 2.918-3.264 2.918h-45.249c-2.1658 0-3.0491-1.075-3.0491-3.016v-30.656l3.0233-8.713c0.6046-1.575 1.7428-2.589 3.9088-2.589z"/>
<path style="opacity:.3;stroke:url(#linearGradient3960);stroke-linecap:square" d="m4.5001 23.5h55"/>
</g>
<path style="opacity:.4;fill:url(#linearGradient3963)" d="m29 11h6v19h-1.772-1.814-1.46-0.954v-19z"/>
</svg>
