<svg xmlns="http://www.w3.org/2000/svg" viewBox="0 0 64 64" xmlns:xlink="http://www.w3.org/1999/xlink">
<defs>
<linearGradient gradientTransform="matrix(.09154 0 0 .02059 -1.0846 49.451)" id="linearGradient4303" y1="366.65" y2="609.51" gradientUnits="userSpaceOnUse" x2="0">
<stop offset="0" style="stop-opacity:0"/>
<stop offset=".5"/>
<stop offset="1" style="stop-opacity:0"/>
</linearGradient>
<linearGradient id="linearGradient5060">
<stop offset="0"/>
<stop offset="1" style="stop-opacity:0"/>
</linearGradient>
<linearGradient gradientTransform="matrix(1.3429 0 0 1.282 -.22855 -2.7341)" id="linearGradient4136" y1=".985" y2="47.013" gradientUnits="userSpaceOnUse" x2="0">
<stop offset="0" style="stop-color:#f4f4f4"/>
<stop offset="1" style="stop-color:#dbdbdb"/>
</linearGradient>
<linearGradient gradientTransform="matrix(1.3636 0 0 1.3256 -.72725 -1.8139)" id="linearGradient4130" y1="2" y2="46.017" gradientUnits="userSpaceOnUse" x2="0">
<stop offset="0" style="stop-color:#fff"/>
<stop offset="1" style="stop-color:#fff;stop-opacity:0"/>
</linearGradient>
<linearGradient gradientTransform="matrix(1.3539 0 0 1.3812 -.61194 -1.6903)" id="linearGradient4123" y1="8.059" y2="5.457" x1="32.892" gradientUnits="userSpaceOnUse" x2="36.358">
<stop offset="0" style="stop-color:#fefefe"/>
<stop offset="1" style="stop-color:#cbcbcb"/>
</linearGradient>
<linearGradient gradientTransform="matrix(1.0844 0 0 1.1997 79.551 -4.1628)" id="linearGradient4138" y1="50.786" y2="2.906" gradientUnits="userSpaceOnUse" x2="0">
<stop offset="0" style="stop-color:#aaa"/>
<stop offset="1" style="stop-color:#c8c8c8"/>
</linearGradient>
<radialGradient cx="605.71" cy="486.65" gradientTransform="matrix(.03133 0 0 .02059 35.221 49.451)" id="radialGradient4141" xlink:href="#linearGradient5060" r="117.14" gradientUnits="userSpaceOnUse"/>
<radialGradient cx="605.71" cy="486.65" gradientTransform="matrix(-.03133 0 0 .02059 28.779 49.451)" id="radialGradient4144" xlink:href="#linearGradient5060" r="117.14" gradientUnits="userSpaceOnUse"/>
<radialGradient cx="102" cy="112.3" gradientTransform="matrix(.48571 0 0 -.52393 .9143 63.541)" id="radialGradient4133" r="139.56" gradientUnits="userSpaceOnUse">
<stop offset="0" style="stop-color:#b7b8b9"/>
<stop offset=".189" style="stop-color:#ececec"/>
<stop offset=".257" style="stop-color:#fafafa;stop-opacity:0"/>
<stop offset=".301" style="stop-color:#fff;stop-opacity:0"/>
<stop offset=".531" style="stop-color:#fafafa;stop-opacity:0"/>
<stop offset=".845" style="stop-color:#ebecec;stop-opacity:0"/>
<stop offset="1" style="stop-color:#e1e2e3;stop-opacity:0"/>
</radialGradient>
</defs>
<rect width="44.2" x="9.9" y="57" height="5" style="opacity:.3;fill:url(#linearGradient4303)"/>
<path style="opacity:.3;fill:url(#radialGradient4144)" d="m9.9 57v4.9997c-1.6132 0.009-3.9-1.12-3.9-2.5s1.8002-2.5 3.9-2.5z"/>
<path style="opacity:.3;fill:url(#radialGradient4141)" d="m54.1 57v4.9997c1.613 0.009 3.9-1.12 3.9-2.5s-1.8002-2.4995-3.9-2.4995z"/>
<path style="fill:url(#linearGradient4136);stroke:url(#linearGradient4138);stroke-linejoin:round" d="m8.5 0.49996h32.31c1.8893 0.63639 12.039 7.8865 14.69 12.907v46.094h-47v-59z"/>
<path style="fill:url(#radialGradient4133)" d="m9.6572 58.826c-0.26763 0-0.48571-0.23524-0.48571-0.52394v-56.585c0-0.28921 0.21809-0.52393 0.48571-0.52393 10.049 0.1451 21.185-0.21635 31.221 0.0363l13.808 11.887 0.143 45.186c0 0.28869-0.2176 0.52394-0.48571 0.52394h-44.686z"/>
<path style="opacity:.6;fill:none;stroke:url(#linearGradient4130);stroke-linejoin:round" d="m54.5 13.405v45.096h-45v-57h31.181"/>
<g style="fill-rule:evenodd">
<g transform="translate(-31.058)">
<path style="opacity:.05" d="m66.793 0.98785c6.5648 0 3.3008 13.004 3.3008 13.004s15.878-3.6227 15.878 2.8028l0.03625-3.0527c-3.392-3.392-10.579-10.027-15.205-12.553l-4.0101-0.20077z"/>
<path style="opacity:.1" d="m68.039 0.98785c6.1383 0 3.0863 12.159 3.0863 12.159s14.846-2.8422 14.846 3.0942c0.787-5.065-13.094-16.829-17.932-15.253z"/>
<path style="opacity:.15" d="m72.054 12.387s13.918-2.4218 13.918 3.7876c0-3.5067-7.8359-13.315-16.811-15.186 4.3631 1.6701 3.7703 7.2654 2.8933 11.399z"/>
</g>
<g>
<path style="fill:url(#linearGradient4123)" d="m38 1c4.3241 0 3.1697 10.169 3.1697 10.169s13.808-1.3021 13.808 4.8311c0-1.4944 0.11659-2.5645-0.18154-3.0308-2.142-3.3499-11.393-10.868-14.734-11.853-0.25-0.0736-0.804-0.116-2.062-0.116z"/>
</g>
</g>
<g style="fill:#fff">
<path style="opacity:.6" d="m47.655 33.304-5.29-7.728 1.763-2.576 6.872 10.304-7.054 10.696-1.946-2.352 5.655-8.344z"/>
<path style="opacity:.6" d="m16.345 33.304 5.29-7.728-1.763-2.576-6.872 10.304 7.054 10.696 1.946-2.352-5.655-8.344z"/>
</g>
<path style="opacity:.4;fill:#666" d="m16.345 32.304 5.29-7.728-1.763-2.576-6.872 10.304 7.054 10.696 1.946-2.352-5.655-8.344z"/>
<g style="color:#000">
<rect width="2.234" x="44.163" y="26.708" height="19.23" style="opacity:.6;fill:#fff" transform="matrix(1 0 -.35184 .93606 0 0)"/>
<rect width="2.234" x="43.787" y="25.639" height="19.23" style="opacity:.4;fill-rule:evenodd" transform="matrix(1 0 -.35184 .93606 0 0)"/>
</g>
<path style="opacity:.4;fill:#666" d="m47.655 32.304-5.29-7.728 1.763-2.576 6.872 10.304-7.054 10.696-1.946-2.352 5.655-8.344z"/>
</svg>
