<svg width="24" xmlns="http://www.w3.org/2000/svg" height="24" viewBox="0 0 24 24" xmlns:xlink="http://www.w3.org/1999/xlink">
<defs>
<linearGradient gradientTransform="matrix(.24904 0 0 .24904 -7.46386 .50569)" id="linear0" y1="14" x1="102" y2="24" gradientUnits="userSpaceOnUse" x2="92">
<stop offset="0" style="stop-color:#c8c8c8"/>
<stop offset="1" style="stop-color:#efefef"/>
</linearGradient>
<linearGradient gradientTransform="matrix(.17242 0 0 .17242 .96532 -50.24179)" id="linear1" y1="413" y2="419" gradientUnits="userSpaceOnUse" x2="0">
<stop offset="0" style="stop-color:#e59536"/>
<stop offset=".5" style="stop-color:#c6873e"/>
<stop offset="1" style="stop-color:#a3733b"/>
</linearGradient>
</defs>
<path style="fill:#e5e5e5" d="M 4.070312 22 L 16.828125 22 C 19.929688 22 19.929688 18.898438 19.929688 18.898438 L 19.929688 6.484375 C 19.929688 6.484375 15.449219 2 15.449219 2 L 7.171875 2 C 7.171875 2 4.070312 2 4.070312 5.101562 Z "/>
<path style="fill:url(#linear0)" d="M 15.449219 2 L 15.449219 6.484375 L 19.929688 6.484375 Z "/>
<path style="fill:url(#linear1)" d="M 4.070312 22 L 16.828125 22 C 19.929688 22 19.929688 18.898438 19.929688 18.898438 C 19.929688 18.898438 19.929688 16.136719 19.929688 16.136719 C 19.929688 16.136719 19.929688 20.964844 16.828125 20.964844 L 7.171875 20.964844 C 7.171875 20.964844 4.070312 20.964844 4.070312 22 Z "/>
<path style="fill:#e59536" d="M 7.066406 15.902344 C 7.066406 15.59375 7.171875 15.335938 7.382812 15.128906 C 7.59375 14.917969 7.855469 14.808594 8.160156 14.808594 C 8.460938 14.808594 8.714844 14.917969 8.921875 15.128906 C 9.132812 15.335938 9.238281 15.59375 9.238281 15.902344 C 9.238281 16.203125 9.132812 16.457031 8.921875 16.667969 C 8.714844 16.878906 8.460938 16.980469 8.160156 16.980469 C 7.855469 16.980469 7.59375 16.878906 7.382812 16.667969 C 7.171875 16.460938 7.066406 16.203125 7.066406 15.902344 M 7.003906 10.972656 L 7.003906 12.789062 C 9.320312 12.789062 11.203125 14.675781 11.203125 17 L 13.027344 17 C 13.027344 13.671875 10.324219 10.972656 7.003906 10.972656 Z M 7.003906 7 L 7.003906 9.007812 C 11.410156 9.007812 14.984375 12.585938 14.984375 16.996094 L 16.996094 16.996094 C 16.996094 11.476562 12.515625 7 7.003906 7 Z "/>
</svg>
