<svg width="24" xmlns="http://www.w3.org/2000/svg" height="24" viewBox="0 0 24 24" xmlns:xlink="http://www.w3.org/1999/xlink">
<defs>
<linearGradient gradientTransform="matrix(.5625 0 0 .58334 -1.875 -.91666)" id="linear0" y1="13.571" x1="25.556" y2="5.857" gradientUnits="userSpaceOnUse" x2="33.556">
<stop offset="0" style="stop-color:#000"/>
<stop offset="1" style="stop-color:#000;stop-opacity:0"/>
</linearGradient>
<radialGradient cx="24" cy="24" gradientTransform="matrix(.76667 .26666 -.30545 .87815 .93065 -15.47561)" id="radial0" r="15" gradientUnits="userSpaceOnUse">
<stop offset="0" style="stop-color:#e4e5e2"/>
<stop offset=".5" style="stop-color:#d6d9d2"/>
<stop offset="1" style="stop-color:#b7beb1"/>
</radialGradient>
</defs>
<path style="fill:url(#radial0)" d="M 5.175781 2 C 4.808594 2.039062 4.496094 2.382812 4.5 2.75 L 4.5 21.25 C 4.5 21.644531 4.859375 22 5.253906 22 L 18.746094 22 C 19.140625 22 19.5 21.644531 19.5 21.25 L 19.5 4.5 L 16 2 L 5.253906 2 C 5.230469 2 5.203125 2 5.175781 2 Z "/>
<path style="fill:url(#linear0)" d="M 16 2 L 16 4.5 L 19.5 4.5 L 19.5 3.75 L 16.6875 2 Z "/>
<path style="fill:#204a86;fill-opacity:.8" d="M 12.5 7.484375 L 8 7.5 L 8 11 L 12.5 10.984375 Z M 13 7.484375 L 13 7.984375 L 15 8 L 15 7.5 Z M 13 8.484375 L 13 8.984375 L 16 9 L 16 8.5 Z M 13 9.484375 L 13 9.984375 L 16.5 10 L 16.5 9.5 Z M 13 10.484375 L 13 10.984375 L 16.5 11 L 16.5 10.5 Z M 8 11.5 L 8 12 L 16 12 L 16 11.5 Z M 8 12.5 L 8 13 L 15.5 13 L 15.5 12.5 Z M 8 13.5 L 8 14 L 15 14 L 15 13.5 Z M 8 14.5 L 8 15 L 12.5 15 L 12.5 14.5 Z M 13 14.5 L 13 15 L 15.5 15 L 15.5 14.5 Z M 8 15.5 L 8 16 L 12.5 16 L 12.5 15.5 Z M 13.5 15.5 L 13.5 16 L 16 16 L 16 15.5 Z M 8 16.5 L 8 17 L 12.5 17 L 12.5 16.5 Z M 14 16.5 L 14 17 L 16.5 17 L 16.5 16.5 Z "/>
</svg>
