<?xml version="1.0" encoding="UTF-8" standalone="no"?>
<svg
   xmlns:dc="http://purl.org/dc/elements/1.1/"
   xmlns:cc="http://creativecommons.org/ns#"
   xmlns:rdf="http://www.w3.org/1999/02/22-rdf-syntax-ns#"
   xmlns:svg="http://www.w3.org/2000/svg"
   xmlns="http://www.w3.org/2000/svg"
   xmlns:sodipodi="http://sodipodi.sourceforge.net/DTD/sodipodi-0.dtd"
   xmlns:inkscape="http://www.inkscape.org/namespaces/inkscape"
   width="24"
   height="24"
   viewBox="0 0 24 24"
   id="svg2"
   version="1.1"
   inkscape:version="0.91 r13725"
   sodipodi:docname="application-x-sharedlib.svg">
  <metadata
     id="metadata16">
    <rdf:RDF>
      <cc:Work
         rdf:about="">
        <dc:format>image/svg+xml</dc:format>
        <dc:type
           rdf:resource="http://purl.org/dc/dcmitype/StillImage" />
        <dc:title />
      </cc:Work>
    </rdf:RDF>
  </metadata>
  <defs
     id="defs14" />
  <sodipodi:namedview
     pagecolor="#ffffff"
     bordercolor="#666666"
     borderopacity="1"
     objecttolerance="10"
     gridtolerance="10"
     guidetolerance="10"
     inkscape:pageopacity="0"
     inkscape:pageshadow="2"
     inkscape:window-width="1920"
     inkscape:window-height="1013"
     id="namedview12"
     showgrid="true"
     inkscape:zoom="45.254835"
     inkscape:cx="6.0689328"
     inkscape:cy="9.7527178"
     inkscape:window-x="0"
     inkscape:window-y="27"
     inkscape:window-maximized="1"
     inkscape:current-layer="svg2">
    <inkscape:grid
       type="xygrid"
       id="grid3004"
       empspacing="5"
       visible="true"
       enabled="true"
       snapvisiblegridlinesonly="true" />
  </sodipodi:namedview>
  <path
     style="fill:#dcdcdc;fill-opacity:1"
     d="M 5,1 C 4.527343,1 4,1.527344 4,2 l 0,20 c 0,0.445312 0.554687,1 1,1 l 14,0 c 0.445313,0 0.992367,-0.554753 1,-1 L 20,6.9999998 14,1 Z"
     id="path4-7"
     inkscape:connector-curvature="0"
     sodipodi:nodetypes="ssssssccs" />
  <path
     style="fill:#000000;fill-opacity:0.19599998"
     d="M 15,6.9999998 20,12 20,6.9999998 Z"
     id="path6"
     inkscape:connector-curvature="0"
     sodipodi:nodetypes="cccc" />
  <path
     style="fill:#ffffff;fill-opacity:0.39200003"
     d="m 14,1 6,5.9999998 -5,0 c -0.445312,0 -1,-0.554688 -1,-1 z"
     id="path8"
     inkscape:connector-curvature="0"
     sodipodi:nodetypes="ccssc" />
  <g
     id="g4403-8-5"
     transform="matrix(0.40476189,0,0,0.40476189,-7.1904759,-3.7619043)"
     inkscape:transform-center-x="1.6474749"
     inkscape:transform-center-y="24.869028"
     style="fill:#888888;fill-opacity:1">
    <path
       style="color:#000000;display:inline;overflow:visible;visibility:visible;fill:#888888;fill-opacity:1;fill-rule:nonzero;stroke:none;stroke-width:1;marker:none;enable-background:accumulate"
       d="M 8 10 L 8 13 L 11 13 L 11 10 L 8 10 z M 9 11 L 10 11 L 10 12 L 9 12 L 9 11 z "
       id="path3078-8-8"
       transform="matrix(2.4705883,0,0,2.4705883,17.764706,9.2941168)" />
  </g>
  <g
     id="g4403-1-4"
     transform="matrix(0.40476189,0,0,0.40476189,-2.3809518,-3.5714282)"
     inkscape:transform-center-x="1.6474747"
     inkscape:transform-center-y="24.869028"
     style="fill:#888888;fill-opacity:1">
    <path
       sodipodi:nodetypes="ccccc"
       id="path3078-7-8"
       d="m 38,33.529412 0,7.411765 7.411765,0 0,-7.411765 z"
       style="color:#000000;display:inline;overflow:visible;visibility:visible;fill:#888888;fill-opacity:1;fill-rule:nonzero;stroke:none;stroke-width:1;marker:none;enable-background:accumulate"
       inkscape:connector-curvature="0" />
  </g>
  <g
     id="g4403-1-3"
     transform="matrix(0.40476189,0,0,0.40476189,-7.3809518,0.42857183)"
     inkscape:transform-center-x="1.6474747"
     inkscape:transform-center-y="24.869028"
     style="fill:#888888;fill-opacity:1">
    <path
       sodipodi:nodetypes="ccccc"
       id="path3078-7-6"
       d="m 38,33.529412 0,7.411765 7.411765,0 0,-7.411765 z"
       style="color:#000000;display:inline;overflow:visible;visibility:visible;fill:#888888;fill-opacity:1;fill-rule:nonzero;stroke:none;stroke-width:1;marker:none;enable-background:accumulate"
       inkscape:connector-curvature="0" />
  </g>
  <g
     id="g4403-8-5-0"
     transform="matrix(0.40476189,0,0,0.40476189,-2.1904759,0.23809582)"
     inkscape:transform-center-x="1.6474749"
     inkscape:transform-center-y="24.869028"
     style="fill:#888888;fill-opacity:1">
    <path
       inkscape:connector-curvature="0"
       style="color:#000000;display:inline;overflow:visible;visibility:visible;fill:#888888;fill-opacity:1;fill-rule:nonzero;stroke:none;stroke-width:1;marker:none;enable-background:accumulate"
       d="m 8,10 0,3 3,0 0,-3 -3,0 z m 1,1 1,0 0,1 -1,0 0,-1 z"
       id="path3078-8-8-9"
       transform="matrix(2.4705883,0,0,2.4705883,17.764706,9.2941168)" />
  </g>
</svg>
