<svg width="24" xmlns="http://www.w3.org/2000/svg" height="24" viewBox="0 0 24 24" xmlns:xlink="http://www.w3.org/1999/xlink">
<defs>
<linearGradient gradientTransform="matrix(.24904 0 0 .24904 -7.46386 .50569)" id="linear0" y1="14" x1="102" y2="24" gradientUnits="userSpaceOnUse" x2="92">
<stop offset="0" style="stop-color:#c8c8c8"/>
<stop offset="1" style="stop-color:#efefef"/>
</linearGradient>
<linearGradient gradientTransform="matrix(.17242 0 0 .17242 .96532 -50.24179)" id="linear1" y1="413" y2="419" gradientUnits="userSpaceOnUse" x2="0">
<stop offset="0" style="stop-color:#2ab989"/>
<stop offset=".5" style="stop-color:#3da380"/>
<stop offset="1" style="stop-color:#348b6e"/>
</linearGradient>
</defs>
<path style="fill:#e5e5e5" d="M 4.070312 22 L 16.828125 22 C 19.929688 22 19.929688 18.898438 19.929688 18.898438 L 19.929688 6.484375 C 19.929688 6.484375 15.449219 2 15.449219 2 L 7.171875 2 C 7.171875 2 4.070312 2 4.070312 5.101562 Z "/>
<path style="fill:url(#linear0)" d="M 15.449219 2 L 15.449219 6.484375 L 19.929688 6.484375 Z "/>
<path style="fill:url(#linear1)" d="M 4.070312 22 L 16.828125 22 C 19.929688 22 19.929688 18.898438 19.929688 18.898438 C 19.929688 18.898438 19.929688 16.136719 19.929688 16.136719 C 19.929688 16.136719 19.929688 20.964844 16.828125 20.964844 L 7.171875 20.964844 C 7.171875 20.964844 4.070312 20.964844 4.070312 22 Z "/>
<path style="fill:#2ab989" d="M 12 17 L 8.363281 13.363281 L 10.636719 13.363281 L 10.636719 10.636719 L 8.363281 10.636719 L 12 7 L 15.636719 10.636719 L 13.363281 10.636719 L 13.363281 13.363281 L 15.636719 13.363281 Z "/>
</svg>
