<svg width="24" xmlns="http://www.w3.org/2000/svg" height="24" viewBox="0 0 24 24" xmlns:xlink="http://www.w3.org/1999/xlink">
<defs>
<linearGradient gradientTransform="matrix(.24904 0 0 .24904 -7.46386 .50569)" id="linear0" y1="14" x1="102" y2="24" gradientUnits="userSpaceOnUse" x2="92">
<stop offset="0" style="stop-color:#c8c8c8"/>
<stop offset="1" style="stop-color:#efefef"/>
</linearGradient>
<linearGradient gradientTransform="matrix(.17242 0 0 .17242 .96532 -50.24179)" id="linear1" y1="413" y2="419" gradientUnits="userSpaceOnUse" x2="0">
<stop offset="0" style="stop-color:#c38f5d"/>
<stop offset=".5" style="stop-color:#d0954d"/>
<stop offset="1" style="stop-color:#9e723e"/>
</linearGradient>
</defs>
<path style="fill:#e5e5e5" d="M 4.070312 22 L 16.828125 22 C 19.929688 22 19.929688 18.898438 19.929688 18.898438 L 19.929688 6.484375 C 19.929688 6.484375 15.449219 2 15.449219 2 L 7.171875 2 C 7.171875 2 4.070312 2 4.070312 5.101562 Z "/>
<path style="fill:url(#linear0)" d="M 15.449219 2 L 15.449219 6.484375 L 19.929688 6.484375 Z "/>
<path style="fill:url(#linear1)" d="M 4.070312 22 L 16.828125 22 C 19.929688 22 19.929688 18.898438 19.929688 18.898438 C 19.929688 18.898438 19.929688 16.136719 19.929688 16.136719 C 19.929688 16.136719 19.929688 20.964844 16.828125 20.964844 L 7.171875 20.964844 C 7.171875 20.964844 4.070312 20.964844 4.070312 22 Z "/>
<g style="fill:#c38f5d">
<path d="M 7.371094 10.757812 C 7.152344 10.765625 7 10.820312 7 11.058594 L 7 16.105469 C 7 16.425781 7.269531 16.683594 7.605469 16.683594 L 16.382812 16.683594 C 16.722656 16.683594 17 16.425781 17 16.105469 L 17 11.058594 C 17 10.738281 16.722656 10.757812 16.382812 10.757812 L 7.605469 10.757812 C 7.519531 10.757812 7.445312 10.753906 7.371094 10.757812 Z M 11.511719 12.210938 L 12.058594 12.210938 L 12.058594 12.652344 L 11.511719 12.652344 Z M 13.699219 12.828125 C 13.910156 12.828125 14.089844 12.914062 14.226562 13.082031 C 14.363281 13.246094 14.421875 13.460938 14.421875 13.726562 C 14.421875 13.988281 14.363281 14.210938 14.226562 14.378906 C 14.089844 14.546875 13.910156 14.621094 13.699219 14.621094 C 13.582031 14.621094 13.476562 14.601562 13.386719 14.554688 C 13.296875 14.507812 13.207031 14.429688 13.132812 14.332031 L 13.132812 15.226562 L 12.585938 15.226562 L 12.585938 12.875 L 13.132812 12.875 L 13.132812 13.121094 C 13.207031 13.019531 13.296875 12.949219 13.386719 12.90625 C 13.476562 12.855469 13.582031 12.828125 13.699219 12.828125 Z M 9.617188 12.875 L 11.101562 12.875 L 11.101562 13.257812 L 10.203125 14.195312 L 11.101562 14.195312 L 11.101562 14.582031 L 9.578125 14.582031 L 9.578125 14.203125 L 10.476562 13.265625 L 9.617188 13.265625 Z M 11.511719 12.875 L 12.058594 12.875 L 12.058594 14.582031 L 11.511719 14.582031 Z M 13.503906 13.226562 C 13.386719 13.226562 13.292969 13.265625 13.230469 13.355469 C 13.167969 13.4375 13.132812 13.5625 13.132812 13.726562 C 13.132812 13.886719 13.167969 14.007812 13.230469 14.097656 C 13.292969 14.179688 13.386719 14.234375 13.503906 14.234375 C 13.621094 14.234375 13.707031 14.179688 13.765625 14.097656 C 13.828125 14.011719 13.855469 13.886719 13.855469 13.726562 C 13.855469 13.5625 13.828125 13.4375 13.765625 13.355469 C 13.707031 13.269531 13.621094 13.226562 13.503906 13.226562 Z "/>
<path d="M 8.558594 8.253906 L 7.308594 10.128906 L 11.683594 10.128906 L 11.683594 7.316406 L 9.496094 7.316406 C 9.183594 7.316406 8.558594 8.253906 8.558594 8.253906 Z M 12.308594 7.316406 L 12.308594 10.128906 L 16.683594 10.128906 L 15.433594 8.253906 C 15.433594 8.253906 14.808594 7.316406 14.496094 7.316406 Z "/>
</g>
</svg>
