<?xml version="1.0" encoding="UTF-8" standalone="no"?>
<svg
   xmlns:dc="http://purl.org/dc/elements/1.1/"
   xmlns:cc="http://creativecommons.org/ns#"
   xmlns:rdf="http://www.w3.org/1999/02/22-rdf-syntax-ns#"
   xmlns:svg="http://www.w3.org/2000/svg"
   xmlns="http://www.w3.org/2000/svg"
   xmlns:sodipodi="http://sodipodi.sourceforge.net/DTD/sodipodi-0.dtd"
   xmlns:inkscape="http://www.inkscape.org/namespaces/inkscape"
   width="24"
   height="24"
   viewBox="0 0 24 24"
   id="svg2"
   version="1.1"
   inkscape:version="0.48.5 r10040"
   sodipodi:docname="application-x-desktop.svg">
  <metadata
     id="metadata16">
    <rdf:RDF>
      <cc:Work
         rdf:about="">
        <dc:format>image/svg+xml</dc:format>
        <dc:type
           rdf:resource="http://purl.org/dc/dcmitype/StillImage" />
      </cc:Work>
    </rdf:RDF>
  </metadata>
  <defs
     id="defs14" />
  <sodipodi:namedview
     pagecolor="#ffffff"
     bordercolor="#666666"
     borderopacity="1"
     objecttolerance="10"
     gridtolerance="10"
     guidetolerance="10"
     inkscape:pageopacity="0"
     inkscape:pageshadow="2"
     inkscape:window-width="1280"
     inkscape:window-height="970"
     id="namedview12"
     showgrid="true"
     inkscape:zoom="20.85965"
     inkscape:cx="6.9012597"
     inkscape:cy="12.539609"
     inkscape:window-x="0"
     inkscape:window-y="0"
     inkscape:window-maximized="1"
     inkscape:current-layer="svg2">
    <inkscape:grid
       type="xygrid"
       id="grid3004"
       empspacing="5"
       visible="true"
       enabled="true"
       snapvisiblegridlinesonly="true" />
  </sodipodi:namedview>
  <path
     style="fill:#dcdcdc"
     d="M 5,1 C 4.527343,1 4,1.527344 4,2 l 0,20 c 0,0.445312 0.554687,1 1,1 l 14,0 c 0.445313,0 0.992367,-0.554753 1,-1 L 20,7 14,1 z"
     id="path4"
     inkscape:connector-curvature="0"
     sodipodi:nodetypes="ssssssccs" />
  <path
     style="fill:#000000;fill-opacity:0.19599998"
     d="m 15,7 5,5 0,-5 z"
     id="path6"
     inkscape:connector-curvature="0"
     sodipodi:nodetypes="cccc" />
  <path
     style="fill:#888888"
     d="M 11.533342,6.9037334 C 10.550612,7.2237571 11.412655,8.7349871 10.010397,9.475786 8.4012484,10.317333 7.6024208,8.1897585 6.6369317,9.706915 c -0.9654889,1.523082 1.3332945,1.286026 1.2643324,3.075794 -0.063217,1.795696 -2.3390125,1.41048 -1.482716,2.992826 0.8505499,1.582346 1.7987976,-0.491891 3.3447291,0.450404 1.5401868,0.948223 0.068965,2.702434 1.8850028,2.75577 1.821787,0.05926 0.471251,-1.777914 2.074652,-2.619462 1.609149,-0.847474 2.407977,1.286025 3.373466,-0.237055 0.965489,-1.523081 -1.333294,-1.286025 -1.264333,-3.075795 0.06321,-1.789768 2.339013,-1.41048 1.482716,-2.992826 -0.850549,-1.5764179 -1.798797,0.497816 -3.344729,-0.450405 -1.540186,-0.9482221 -0.06896,-2.6965065 -1.885002,-2.7557701 -0.229878,-0.00591 -0.408035,0.00591 -0.551708,0.053335 z m 0.02299,4.5573916 c 0.810321,-0.171865 1.609148,0.343731 1.781557,1.14972 0.172409,0.800062 -0.344817,1.588271 -1.160885,1.760136 -0.810325,0.171865 -1.609151,-0.337803 -1.781561,-1.143792 -0.172409,-0.805989 0.344818,-1.594199 1.160885,-1.766064 z"
     id="path10"
     inkscape:connector-curvature="0" />
  <path
     style="fill:#ffffff;fill-opacity:0.39200003"
     d="m 14,1 6,6 -5,0 C 14.554688,7 14,6.445312 14,6 z"
     id="path8"
     inkscape:connector-curvature="0"
     sodipodi:nodetypes="ccssc" />
</svg>
