<?xml version="1.0" encoding="UTF-8" standalone="no"?>
<svg
   xmlns:dc="http://purl.org/dc/elements/1.1/"
   xmlns:cc="http://creativecommons.org/ns#"
   xmlns:rdf="http://www.w3.org/1999/02/22-rdf-syntax-ns#"
   xmlns:svg="http://www.w3.org/2000/svg"
   xmlns="http://www.w3.org/2000/svg"
   xmlns:sodipodi="http://sodipodi.sourceforge.net/DTD/sodipodi-0.dtd"
   xmlns:inkscape="http://www.inkscape.org/namespaces/inkscape"
   width="24"
   height="24"
   viewBox="0 0 24 24"
   id="svg2"
   version="1.1"
   inkscape:version="0.91 r13725"
   sodipodi:docname="application-roms_24.svg">
  <metadata
     id="metadata16">
    <rdf:RDF>
      <cc:Work
         rdf:about="">
        <dc:format>image/svg+xml</dc:format>
        <dc:type
           rdf:resource="http://purl.org/dc/dcmitype/StillImage" />
        <dc:title></dc:title>
      </cc:Work>
    </rdf:RDF>
  </metadata>
  <defs
     id="defs14">
    <clipPath
       id="clipPath-258929573">
      <g
         transform="translate(0,-1004.3622)"
         id="g17">
        <path
           inkscape:connector-curvature="0"
           d="m -24,13 c 0,1.105 -0.672,2 -1.5,2 -0.828,0 -1.5,-0.895 -1.5,-2 0,-1.105 0.672,-2 1.5,-2 0.828,0 1.5,0.895 1.5,2 z"
           transform="matrix(15.333333,0,0,11.5,414.99999,878.8622)"
           style="fill:#1890d0"
           id="path19" />
      </g>
    </clipPath>
  </defs>
  <sodipodi:namedview
     pagecolor="#ffffff"
     bordercolor="#666666"
     borderopacity="1"
     objecttolerance="10"
     gridtolerance="10"
     guidetolerance="10"
     inkscape:pageopacity="0"
     inkscape:pageshadow="2"
     inkscape:window-width="1920"
     inkscape:window-height="1013"
     id="namedview12"
     showgrid="false"
     inkscape:zoom="1"
     inkscape:cx="21.257465"
     inkscape:cy="5.3085115"
     inkscape:window-x="0"
     inkscape:window-y="27"
     inkscape:window-maximized="1"
     inkscape:current-layer="svg2">
    <inkscape:grid
       type="xygrid"
       id="grid3004"
       empspacing="5"
       visible="true"
       enabled="true"
       snapvisiblegridlinesonly="true" />
  </sodipodi:namedview>
  <path
     style="fill:#a6a6a6;fill-opacity:1"
     d="M 5,1 C 4.527343,1 4,1.527344 4,2 l 0,20 c 0,0.445312 0.554687,1 1,1 l 14,0 c 0.445313,0 0.992367,-0.554753 1,-1 L 20,6.9999998 14,1 z"
     id="path4-7"
     inkscape:connector-curvature="0"
     sodipodi:nodetypes="ssssssccs" />
  <path
     style="fill:#000000;fill-opacity:0.19599998"
     d="M 15,6.9999998 20,12 20,6.9999998 z"
     id="path6"
     inkscape:connector-curvature="0"
     sodipodi:nodetypes="cccc" />
  <path
     style="fill:#ffffff;fill-opacity:0.39200003"
     d="m 14,1 6,5.9999998 -5,0 c -0.445312,0 -1,-0.554688 -1,-1 z"
     id="path8"
     inkscape:connector-curvature="0"
     sodipodi:nodetypes="ccssc" />
  <path
     id="circle4216"
     style="opacity:1;fill:#ffffff;fill-opacity:1;fill-rule:nonzero;stroke:none;stroke-width:1.5;stroke-linecap:round;stroke-linejoin:miter;stroke-miterlimit:4;stroke-dasharray:none;stroke-dashoffset:0;stroke-opacity:1"
     d="m 14.307692,11.722207 a 0.38461538,0.38889652 0 0 1 -0.384616,0.388897 0.38461538,0.38889652 0 0 1 -0.384615,-0.388897 0.38461538,0.38889652 0 0 1 0.384615,-0.388897 0.38461538,0.38889652 0 0 1 0.384616,0.388897 z m 0.769232,0.777784 a 0.38461538,0.38889652 0 0 1 -0.384616,0.388897 0.38461538,0.38889652 0 0 1 -0.384615,-0.388897 0.38461538,0.38889652 0 0 1 0.384615,-0.388896 0.38461538,0.38889652 0 0 1 0.384616,0.388896 z m 0.76923,-0.777784 a 0.38461538,0.38889652 0 0 1 -0.384616,0.388897 0.38461538,0.38889652 0 0 1 -0.384615,-0.388897 0.38461538,0.38889652 0 0 1 0.384615,-0.388897 0.38461538,0.38889652 0 0 1 0.384616,0.388897 z m -0.76923,-0.777767 a 0.38461538,0.38889652 0 0 1 -0.384616,0.388897 0.38461538,0.38889652 0 0 1 -0.384615,-0.388897 0.38461538,0.38889652 0 0 1 0.384615,-0.388896 0.38461538,0.38889652 0 0 1 0.384616,0.388896 z m -5.000001,0.777731 A 0.76923083,0.7777929 0 0 1 9.3076919,12.499963 0.76923083,0.7777929 0 0 1 8.5384613,11.722171 0.76923083,0.7777929 0 0 1 9.3076919,10.944378 0.76923083,0.7777929 0 0 1 10.076923,11.722171 Z M 9.397085,9.0009559 C 9.1204582,9.0123308 8.8927865,9.1321769 8.7360269,9.2523739 7.8092061,9.9631641 7,12.928046 7,14.497186 c 0,1.569109 0.356763,1.502404 0.6663159,1.502404 0.3095536,0 0.6987449,-0.215221 1.038913,-0.51803 0.9390865,-0.835887 1.3716561,-1.814896 2.3054381,-1.814896 l 1.978666,0 c 0.933782,0 1.366352,0.979009 2.305439,1.814896 0.340166,0.302809 0.729359,0.51803 1.038912,0.51803 C 16.643237,15.99959 17,16.066299 17,14.497186 17,12.928046 16.190794,9.9631641 15.263973,9.2523739 15.013156,9.0600479 14.581479,8.8684805 14.05604,9.1209765 13.703694,9.2903186 13.388761,9.3888723 12.928485,9.3888723 l -1.856972,0 c -0.460274,0 -0.775207,-0.098554 -1.127553,-0.2678958 C 9.7469213,9.0262693 9.5630609,8.9940724 9.397085,9.0009559 Z"
     inkscape:connector-curvature="0" />
</svg>
