<?xml version="1.0" encoding="UTF-8" standalone="no"?>
<svg
   xmlns:dc="http://purl.org/dc/elements/1.1/"
   xmlns:cc="http://creativecommons.org/ns#"
   xmlns:rdf="http://www.w3.org/1999/02/22-rdf-syntax-ns#"
   xmlns:svg="http://www.w3.org/2000/svg"
   xmlns="http://www.w3.org/2000/svg"
   xmlns:sodipodi="http://sodipodi.sourceforge.net/DTD/sodipodi-0.dtd"
   xmlns:inkscape="http://www.inkscape.org/namespaces/inkscape"
   width="24"
   height="24"
   viewBox="0 0 24 24"
   id="svg2"
   version="1.1"
   inkscape:version="0.48.5 r10040"
   sodipodi:docname="text-x-c++.svg">
  <metadata
     id="metadata22">
    <rdf:RDF>
      <cc:Work
         rdf:about="">
        <dc:format>image/svg+xml</dc:format>
        <dc:type
           rdf:resource="http://purl.org/dc/dcmitype/StillImage" />
      </cc:Work>
    </rdf:RDF>
  </metadata>
  <defs
     id="defs20" />
  <sodipodi:namedview
     pagecolor="#ffffff"
     bordercolor="#666666"
     borderopacity="1"
     objecttolerance="10"
     gridtolerance="10"
     guidetolerance="10"
     inkscape:pageopacity="0"
     inkscape:pageshadow="2"
     inkscape:window-width="1280"
     inkscape:window-height="970"
     id="namedview18"
     showgrid="true"
     inkscape:zoom="14.75"
     inkscape:cx="6.7194576"
     inkscape:cy="10.292412"
     inkscape:window-x="0"
     inkscape:window-y="0"
     inkscape:window-maximized="1"
     inkscape:current-layer="svg2">
    <inkscape:grid
       type="xygrid"
       id="grid3010"
       empspacing="5"
       visible="true"
       enabled="true"
       snapvisiblegridlinesonly="true" />
  </sodipodi:namedview>
  <path
     style="fill:#2d2d2d;fill-opacity:1"
     d="M 5,1 C 4.527343,1 4,1.527344 4,2 l 0,20 c 0,0.445312 0.554687,1 1,1 l 14,0 c 0.445313,0 0.992367,-0.554753 1,-1 L 20,7 14,1 z"
     id="path4"
     inkscape:connector-curvature="0"
     sodipodi:nodetypes="ssssssccs" />
  <path
     style="fill:#000000;fill-opacity:0.19599998"
     d="m 15,7 5,5 0,-5 z"
     id="path6"
     inkscape:connector-curvature="0"
     sodipodi:nodetypes="cccc" />
  <path
     style="fill:#ffffff;fill-opacity:0.39200003"
     d="m 14,1 6,6 -5,0 C 14.554688,7 14,6.445312 14,6 z"
     id="path8"
     inkscape:connector-curvature="0"
     sodipodi:nodetypes="ccssc" />
  <path
     style="fill:#dcdcdc"
     inkscape:connector-curvature="0"
     id="path12"
     d="m 5.333333,14.015892 c 0,-0.386566 0.069807,-0.768418 0.2094207,-1.145556 0.1337971,-0.381852 0.3315826,-0.721276 0.5875414,-1.018272 0.2675939,-0.296997 0.5875428,-0.537423 0.9656632,-0.725992 0.3781206,-0.183853 0.8085959,-0.273424 1.2914275,-0.273424 0.5700908,0 1.0587392,0.127284 1.4717626,0.381852 0.4188416,0.259283 0.7271566,0.589278 0.9249426,1.004129 L 9.8358809,12.889193 C 9.7602556,12.710051 9.6671796,12.559196 9.5566531,12.441341 9.4403068,12.318771 9.3181451,12.219772 9.1785311,12.14906 9.0447355,12.073632 8.9109386,12.026489 8.7655079,11.993489 c -0.1454323,-0.033 -0.2792277,-0.05185 -0.4130247,-0.05185 -0.2966798,0 -0.5526387,0.06129 -0.7736946,0.188569 -0.2210546,0.122571 -0.4072063,0.287569 -0.5584555,0.490279 -0.139614,0.197999 -0.2501403,0.424282 -0.3315826,0.678849 -0.069807,0.249854 -0.1047093,0.499708 -0.1047093,0.754276 0,0.278139 0.040721,0.546851 0.1221613,0.810848 0.093076,0.254567 0.2152377,0.48085 0.3723037,0.678848 0.1570659,0.197996 0.3490347,0.353566 0.5700906,0.476137 0.2268716,0.117861 0.4653796,0.17914 0.7329721,0.17914 0.133797,0 0.2734109,-0.01887 0.4188416,-0.05657 0.1454307,-0.033 0.2792278,-0.08956 0.4130247,-0.169714 0.1396139,-0.07543 0.2617757,-0.174424 0.3781205,-0.29228 0.1163453,-0.12729 0.2094208,-0.273432 0.2792278,-0.447859 l 1.0121995,0.579851 c -0.09308,0.240424 -0.232689,0.452567 -0.418841,0.636421 -0.180334,0.17914 -0.389754,0.329996 -0.6224444,0.452566 -0.2326897,0.127283 -0.4770147,0.221568 -0.7329734,0.287567 -0.2617757,0.06601 -0.5119175,0.099 -0.7678764,0.099 C 7.8987373,17.287567 7.491531,17.193281 7.1192274,17 6.7585574,16.811428 6.4386102,16.561574 6.1710161,16.259864 5.9034222,15.948725 5.6998197,15.599871 5.5485707,15.213306 5.4031399,14.822024 5.333333,14.421316 5.333333,14.015892" />
  <path
     style="fill:#dcdcdc"
     sodipodi:nodetypes="cccccccccccc"
     inkscape:connector-curvature="0"
     id="path14"
     d="m 14.666664,14.75023 -1.333333,0 0,1.374962 -1.333333,0 0,-1.374962 -1.333333,0 0,-1.374962 1.333333,0 0,-1.374961 1.333333,0 0,1.374961 1.333333,0" />
  <path
     style="fill:#dcdcdc"
     sodipodi:nodetypes="cccccccccccc"
     inkscape:connector-curvature="0"
     id="path16"
     d="m 18.666663,13.375268 0,1.374962 -1.333333,0 0,1.374962 -1.333333,0 0,-1.374962 -1.333333,0 0,-1.374962 1.333333,0 0,-1.374961 1.333333,0 0,1.374961" />
</svg>
