<svg width="64" xmlns="http://www.w3.org/2000/svg" height="64" viewBox="0 0 64 64" xmlns:xlink="http://www.w3.org/1999/xlink">
<path style="fill:#d56f7f;fill-rule:evenodd" d="M 24.226562 52.292969 C 25.8125 52.117188 23.945312 50.78125 23.417969 50.515625 C 22.402344 50.007812 21.574219 49.425781 20.9375 48.46875 C 19.929688 46.933594 19.425781 44.894531 18.996094 43.132812 C 18.710938 41.933594 18.484375 41.238281 19.246094 40.222656 C 20 39.210938 18.710938 38.378906 19.511719 37.3125 C 20.851562 35.519531 21.417969 33.152344 22.746094 31.378906 C 23.125 30.878906 22.988281 30.410156 23.527344 30.359375 C 23.789062 30.332031 24.460938 30.851562 24.6875 31.003906 C 25.34375 31.445312 26.144531 31.652344 26.789062 32.082031 C 27.117188 32.296875 27.734375 32.140625 28 32.351562 C 28.777344 32.957031 28.59375 34.835938 28.515625 35.800781 C 28.398438 37.175781 27.296875 37.605469 27.296875 38.925781 C 27.296875 40.519531 27.636719 41.609375 27.136719 43.242188 C 26.847656 44.179688 26.125 45.246094 26.007812 46.203125 C 25.910156 46.960938 26.054688 46.941406 26.277344 47.65625 C 26.535156 48.507812 26.601562 49.269531 27.410156 49.65625 C 27.871094 49.871094 29.734375 49.960938 29.992188 49.441406 C 30.507812 48.417969 28.546875 48.066406 28.214844 47.441406 C 27.5 46.101562 29.1875 42.625 29.832031 41.457031 C 30.1875 40.828125 30.871094 40.320312 31.125 39.679688 C 31.472656 38.820312 30.773438 38.234375 30.886719 37.578125 C 31.101562 36.296875 31.640625 34.933594 32.042969 33.699219 C 32.988281 30.828125 34.296875 35.1875 34.84375 36.289062 C 35.066406 36.71875 35.222656 37.195312 35.4375 37.636719 C 35.695312 38.15625 35.125 38.605469 35.28125 39.25 C 35.421875 39.855469 36.125 40.195312 36.515625 40.652344 C 37.109375 41.347656 37.519531 42.226562 37.839844 43.078125 C 38.503906 44.855469 38.738281 47.957031 39.96875 49.382812 C 40.144531 49.589844 40.636719 49.472656 40.828125 49.65625 C 41.257812 50.070312 40.714844 50.535156 41.554688 50.8125 C 42.199219 51.027344 43.828125 51.261719 44.441406 50.890625 C 45.613281 50.183594 44.148438 49.308594 43.417969 48.574219 C 42.390625 47.550781 41.199219 46.613281 40.398438 45.398438 C 39.34375 43.796875 39.121094 41.992188 38.914062 40.144531 C 38.816406 39.25 39.777344 38.808594 38.945312 37.742188 C 38.679688 37.402344 37.863281 37.449219 37.863281 37.097656 C 37.863281 35.984375 37.832031 34.863281 37.863281 33.757812 C 37.902344 32.410156 37.898438 30.1875 39.1875 29.335938 C 40.898438 28.191406 43.074219 27.890625 44.707031 26.667969 C 46.335938 25.441406 47.824219 24.335938 48.808594 22.382812 C 49.316406 21.359375 49.582031 20.359375 49.992188 19.308594 C 50.292969 18.535156 50.207031 18.796875 50.691406 18.339844 C 50.976562 18.074219 51.398438 17.882812 51.71875 17.585938 C 52.546875 16.789062 52.695312 16.007812 54.089844 16.339844 C 54.640625 16.476562 55.554688 17.511719 55.867188 16.882812 C 56.066406 16.476562 55.945312 16.105469 55.839844 15.695312 C 55.683594 15.085938 56.425781 14.882812 56.40625 14.296875 C 56.375 13.289062 54.746094 12.226562 53.898438 12.058594 C 52.832031 11.84375 51.660156 12.304688 50.527344 12.082031 C 49.617188 11.90625 48.820312 11.414062 47.941406 11.199219 C 47.023438 10.964844 46.199219 10.886719 45.410156 11.4375 C 45.050781 11.691406 44.914062 12.148438 44.601562 12.410156 C 44.335938 12.625 44.101562 12.566406 43.796875 12.785156 C 42.871094 13.449219 42.800781 14.433594 44.386719 14.132812 C 43.71875 16.902344 40.46875 24.34375 36.84375 20.496094 C 35.148438 18.699219 33.59375 16.707031 31.992188 14.835938 C 30.578125 13.191406 29.757812 11.335938 27.355469 11.652344 C 24.988281 11.964844 23.367188 13.59375 21.53125 14.941406 C 20.03125 16.046875 18.269531 16.289062 16.679688 17.207031 C 14.992188 18.175781 13.488281 19.8125 12.910156 21.679688 C 12.070312 24.382812 12.550781 26.984375 11.074219 29.550781 C 10.183594 31.105469 8.914062 32.195312 7.785156 33.484375 C 7.179688 34.179688 6.777344 35.136719 6.980469 36.066406 C 7.117188 36.710938 7.570312 36.828125 7.570312 37.578125 C 7.570312 38.886719 7.507812 40.183594 7.566406 41.492188 C 7.617188 42.65625 7.707031 43.796875 7.871094 44.949219 C 8.015625 45.945312 8.378906 46.222656 8.703125 46.960938 C 9.1875 48.046875 9.109375 48.523438 10.265625 48.953125 C 10.925781 49.191406 12.042969 49.679688 12.746094 49.65625 C 13.757812 49.609375 13.898438 48.777344 13.125 47.878906 C 12.625 47.292969 11.691406 47.101562 11.132812 46.472656 C 9.5 44.640625 8.796875 39.140625 10.164062 37.199219 C 10.730469 36.394531 11.453125 36.386719 11.503906 35.15625 C 11.554688 34.054688 11.105469 33.671875 12.101562 32.675781 C 15.265625 31.0625 15.597656 29.910156 16.628906 30.460938 C 17.878906 31.140625 16.894531 34.949219 16.628906 36.015625 C 16.144531 37.929688 14.25 38.828125 15.496094 40.761719 C 16.386719 42.140625 16.804688 43.566406 17.410156 45.183594 C 17.957031 46.632812 17.910156 48.710938 18.78125 49.921875 C 18.953125 50.15625 19.21875 50.285156 19.375 50.515625 C 19.492188 50.683594 19.667969 51.171875 19.753906 51.269531 C 20.117188 51.691406 20.195312 51.804688 20.78125 52.023438 C 21.824219 52.421875 23.097656 52.292969 24.226562 52.292969 "/>
</svg>
