<svg width="128" xmlns="http://www.w3.org/2000/svg" height="128" viewBox="0 0 128 128" xmlns:xlink="http://www.w3.org/1999/xlink">
<g style="fill:#cf9545">
<path d="M 35.675781 63.050781 L 92.28125 63.050781 L 92.28125 103.074219 L 35.675781 103.074219 Z "/>
<path d="M 21.34375 73.863281 L 35.75 63.054688 L 38.109375 66.199219 L 23.703125 77.007812 Z "/>
<path d="M 89.894531 66.199219 L 104.300781 77.007812 L 106.660156 73.863281 L 92.253906 63.054688 Z "/>
<path d="M 41.480469 45.800781 L 50.417969 48.632812 L 47.589844 57.570312 L 38.648438 54.738281 Z "/>
<path d="M 47.867188 29.265625 L 62.660156 24.945312 L 66.984375 39.738281 L 52.1875 44.0625 Z "/>
<path d="M 76.753906 53.074219 L 72.339844 58.699219 L 65.265625 57.6875 L 62.601562 51.054688 L 67.015625 45.433594 L 74.089844 46.441406 Z "/>
<path d="M 89.640625 39.179688 L 85.128906 40.65625 L 83.789062 45.207031 L 80.992188 41.375 L 76.246094 41.507812 L 79.027344 37.660156 L 77.433594 33.191406 L 81.953125 34.644531 L 85.710938 31.75 L 85.722656 36.496094 Z "/>
</g>
</svg>
