<svg width="128" xmlns="http://www.w3.org/2000/svg" height="128" viewBox="0 0 128 128" xmlns:xlink="http://www.w3.org/1999/xlink">
<path style="fill:#ee6454" d="M 64 21.332031 C 40.484375 21.332031 21.332031 40.484375 21.332031 64 C 21.332031 87.515625 40.484375 106.667969 64 106.667969 C 87.515625 106.667969 106.667969 87.515625 106.667969 64 C 106.667969 40.484375 87.515625 21.332031 64 21.332031 Z M 64 37.332031 C 66.945312 37.332031 69.332031 39.722656 69.332031 42.667969 C 69.332031 45.613281 66.945312 48 64 48 C 61.054688 48 58.667969 45.613281 58.667969 42.667969 C 58.667969 39.722656 61.054688 37.332031 64 37.332031 Z M 56 53.332031 L 69.332031 53.332031 L 69.332031 85.332031 L 74.667969 85.332031 L 74.667969 90.667969 L 53.332031 90.667969 L 53.332031 85.332031 L 58.667969 85.332031 L 58.667969 58.667969 L 56 58.667969 Z "/>
</svg>
