<svg width="128" xmlns="http://www.w3.org/2000/svg" height="128" viewBox="0 0 128 128" xmlns:xlink="http://www.w3.org/1999/xlink">
<g style="fill:#4ea34d">
<path d="M 62.976562 43.515625 C 42.675781 44.414062 22.925781 54.316406 31.3125 74.355469 C 43.542969 69.757812 60.578125 76.617188 53.503906 80.019531 C 67.441406 91.488281 101.855469 72.957031 98.429688 57.195312 C 94.875 47.589844 78.765625 42.816406 62.976562 43.515625 Z M 62.433594 49.179688 C 66.667969 49.179688 70.101562 50.308594 70.101562 51.703125 C 70.101562 53.101562 66.667969 54.230469 62.433594 54.230469 C 58.199219 54.230469 54.765625 53.101562 54.765625 51.703125 C 54.765625 50.308594 58.199219 49.179688 62.433594 49.179688 Z M 81.378906 53.359375 C 85.613281 53.359375 89.046875 54.492188 89.046875 55.886719 C 89.046875 57.28125 85.613281 58.414062 81.378906 58.414062 C 77.144531 58.414062 73.710938 57.28125 73.710938 55.886719 C 73.710938 54.492188 77.144531 53.359375 81.378906 53.359375 Z M 46.558594 57.195312 C 50.792969 57.195312 54.226562 58.324219 54.226562 59.71875 C 54.226562 61.117188 50.792969 62.246094 46.558594 62.246094 C 42.320312 62.246094 38.890625 61.117188 38.890625 59.71875 C 38.890625 58.324219 42.320312 57.195312 46.558594 57.195312 Z M 81.199219 63.816406 C 85.433594 63.816406 88.867188 64.945312 88.867188 66.339844 C 88.867188 67.738281 85.433594 68.867188 81.199219 68.867188 C 76.960938 68.867188 73.53125 67.738281 73.53125 66.339844 C 73.53125 64.945312 76.960938 63.816406 81.199219 63.816406 Z M 67.847656 73.398438 C 72.082031 73.398438 75.515625 74.53125 75.515625 75.925781 C 75.515625 77.320312 72.082031 78.449219 67.847656 78.449219 C 63.613281 78.449219 60.179688 77.320312 60.179688 75.925781 C 60.179688 74.53125 63.613281 73.398438 67.847656 73.398438 Z "/>
<path d="M 91.898438 24.292969 L 54.265625 87.238281 C 51.328125 87.183594 48.601562 85.789062 46.625 82.980469 L 86.945312 21.53125 C 89.65625 20.890625 91.308594 21.8125 91.898438 24.292969 Z "/>
<path d="M 46.410156 98.191406 C 50.628906 97.625 57.164062 92.242188 54.113281 84.449219 C 46.796875 82.355469 48.457031 81.296875 48.457031 81.296875 C 38.40625 83.703125 30.769531 95.195312 32.871094 102.5 C 34.207031 107.128906 33.984375 106.652344 33.984375 106.652344 C 36.769531 97.703125 36.820312 99.34375 46.410156 98.191406 Z "/>
</g>
</svg>
