
<svg xmlns="http://www.w3.org/2000/svg" xmlns:xlink="http://www.w3.org/1999/xlink" width="64px" height="64px" viewBox="0 0 64 64" version="1.1">
<g id="surface1">
<path style=" stroke:none;fill-rule:nonzero;fill:rgb(86.27451%,86.27451%,86.27451%);fill-opacity:1;" d="M 10.671875 0 C 9.296875 0 8 1.355469 8 2.789062 L 8 61.210938 C 8 62.566406 9.375 64 10.671875 64 L 53.328125 64 C 54.625 64 56 62.566406 56 61.210938 L 56 18 L 38 0 Z M 10.671875 0 "/>
<path style=" stroke:none;fill-rule:nonzero;fill:rgb(0%,0%,0%);fill-opacity:0.196078;" d="M 42 18 L 56 32 L 56 18 Z M 42 18 "/>
<path style=" stroke:none;fill-rule:nonzero;fill:rgb(100%,100%,100%);fill-opacity:0.392157;" d="M 38 0 L 55.984375 18 L 40.757812 18 C 39.410156 18 38 16.574219 38 15.226562 Z M 38 0 "/>
<path style=" stroke:none;fill-rule:nonzero;fill:rgb(32.941176%,32.941176%,32.941176%);fill-opacity:1;" d="M 40.859375 20 L 38.964844 42.773438 C 38.867188 43.839844 38.816406 44.539062 38.816406 44.875 C 38.816406 45.40625 38.914062 45.824219 39.09375 46.105469 C 39.324219 46.5 39.636719 46.785156 40.03125 46.972656 C 40.433594 47.164062 41.105469 47.253906 42.050781 47.253906 L 41.851562 48 L 32.039062 48 L 32.246094 47.253906 L 32.671875 47.253906 C 33.46875 47.253906 34.117188 47.066406 34.617188 46.6875 C 34.96875 46.433594 35.246094 46.015625 35.445312 45.414062 C 35.574219 44.996094 35.707031 44.019531 35.832031 42.46875 L 36.117188 39 L 28.996094 39 L 26.460938 42.773438 C 25.886719 43.617188 25.527344 44.234375 25.378906 44.613281 C 25.230469 44.972656 25.15625 45.316406 25.15625 45.636719 C 25.15625 46.070312 25.320312 46.441406 25.632812 46.753906 C 25.953125 47.054688 26.476562 47.230469 27.214844 47.253906 L 27.011719 48 L 19.652344 48 L 19.847656 47.253906 C 20.757812 47.210938 21.554688 46.882812 22.238281 46.269531 C 22.933594 45.636719 23.96875 44.292969 25.34375 42.25 L 40.21875 20 L 40.859375 20 M 37.226562 26.71875 L 30.003906 37.523438 L 36.265625 37.523438 L 37.226562 26.71875 "/>
</g>
</svg>
