
<svg xmlns="http://www.w3.org/2000/svg" xmlns:xlink="http://www.w3.org/1999/xlink" width="64px" height="64px" viewBox="0 0 64 64" version="1.1">
<g id="surface1">
<path style=" stroke:none;fill-rule:nonzero;fill:rgb(100%,39.215686%,0.392157%);fill-opacity:1;" d="M 10.671875 0 C 9.296875 0 8 1.355469 8 2.789062 L 8 61.210938 C 8 62.566406 9.375 64 10.671875 64 L 53.328125 64 C 54.625 64 56 62.566406 56 61.210938 L 56 18 L 38 0 Z M 10.671875 0 "/>
<path style=" stroke:none;fill-rule:nonzero;fill:rgb(0%,0%,0%);fill-opacity:0.196078;" d="M 42 18 L 56 32 L 56 18 Z M 42 18 "/>
<path style=" stroke:none;fill-rule:nonzero;fill:rgb(100%,100%,100%);fill-opacity:0.392157;" d="M 38 0 L 55.984375 18 L 40.757812 18 C 39.410156 18 38 16.574219 38 15.226562 Z M 38 0 "/>
<path style=" stroke:none;fill-rule:nonzero;fill:rgb(100%,100%,100%);fill-opacity:1;" d="M 18.101562 44.925781 C 18.101562 44.0625 18.398438 43.339844 18.996094 42.757812 C 19.585938 42.167969 20.308594 41.867188 21.167969 41.867188 C 22.007812 41.867188 22.71875 42.167969 23.300781 42.757812 C 23.894531 43.339844 24.1875 44.0625 24.1875 44.925781 C 24.1875 45.761719 23.894531 46.472656 23.300781 47.074219 C 22.71875 47.65625 22.007812 47.941406 21.167969 47.941406 C 20.308594 47.941406 19.585938 47.65625 18.996094 47.074219 C 18.398438 46.492188 18.101562 45.769531 18.101562 44.925781 M 17.921875 31.121094 L 17.921875 36.207031 C 24.417969 36.207031 29.699219 41.488281 29.699219 48 L 34.800781 48 C 34.800781 38.675781 27.230469 31.121094 17.921875 31.121094 Z M 17.929688 20 L 17.929688 25.617188 C 30.265625 25.617188 40.277344 35.648438 40.277344 47.992188 L 45.921875 47.992188 C 45.921875 32.53125 33.375 20 17.929688 20 Z M 17.929688 20 "/>
</g>
</svg>
