<svg width="64" xmlns="http://www.w3.org/2000/svg" height="64" viewBox="0 0 64 64" xmlns:xlink="http://www.w3.org/1999/xlink">
<path style="fill:#d14626" d="M 10.667969 1.332031 C 9.296875 1.332031 8 2.628906 8 4 L 8 60 C 8 61.296875 9.371094 62.667969 10.667969 62.667969 L 53.332031 62.667969 C 54.628906 62.667969 56 61.296875 56 60 L 56 4 C 56 2.628906 54.703125 1.332031 53.332031 1.332031 Z "/>
<g style="fill:#fff">
<path d="M 16 20 L 25.332031 20 L 25.332031 26.667969 L 16 26.667969 Z "/>
<path d="M 16 30.667969 L 25.332031 30.667969 L 25.332031 37.332031 L 16 37.332031 Z "/>
<path d="M 16 41.332031 L 48 41.332031 L 48 44 L 16 44 Z "/>
<path d="M 39.382812 20 L 39.382812 28.398438 L 48 28.398438 C 48 23.761719 44.144531 20 39.382812 20 Z "/>
<path d="M 38.152344 21.199219 C 33.394531 21.199219 29.539062 24.960938 29.539062 29.601562 C 29.539062 34.238281 33.394531 38 38.152344 38 C 42.910156 38 46.769531 34.238281 46.769531 29.601562 L 38.152344 29.601562 Z "/>
</g>
</svg>
