<svg width="64" xmlns="http://www.w3.org/2000/svg" height="64" viewBox="0 0 64 64" xmlns:xlink="http://www.w3.org/1999/xlink">
<path style="fill:#c19553" d="M 10.667969 1.332031 C 9.296875 1.332031 8 2.628906 8 4 L 8 60 C 8 61.296875 9.371094 62.667969 10.667969 62.667969 L 53.332031 62.667969 C 54.628906 62.667969 56 61.296875 56 60 L 56 18.667969 L 38.667969 1.332031 Z "/>
<path style="fill:#000;fill-opacity:.196" d="M 38.667969 16 L 38.75 16.082031 L 38.957031 16 Z M 41.332031 18.667969 L 56 33.332031 L 56 18.667969 Z "/>
<path style="fill:#fff;fill-opacity:.392" d="M 38.667969 1.332031 L 56 18.667969 L 41.332031 18.667969 C 40.039062 18.667969 38.667969 17.296875 38.667969 16 Z "/>
<path style="fill:#000;fill-opacity:.196" d="M 8 46.667969 L 8 60 C 8 61.296875 9.371094 62.667969 10.667969 62.667969 L 53.332031 62.667969 C 54.628906 62.667969 56 61.296875 56 60 L 56 46.667969 Z "/>
<g style="fill:#fff">
<path d="M 24 1.332031 L 24 6.667969 L 29.332031 6.667969 L 29.332031 1.332031 Z M 24 6.667969 L 18.667969 6.667969 L 18.667969 12 L 24 12 Z M 24 12 L 24 17.332031 L 29.332031 17.332031 L 29.332031 12 Z M 24 17.332031 L 18.667969 17.332031 L 18.667969 22.667969 L 24 22.667969 Z M 24 22.667969 L 24 28 L 29.332031 28 L 29.332031 22.667969 Z M 18.667969 30.667969 L 18.667969 41.332031 L 29.332031 41.332031 L 29.332031 30.667969 Z "/>
<path d="M 22.484375 60 L 16 60 L 16 49.332031 L 18.066406 49.332031 L 18.066406 58.242188 L 22.484375 58.242188 L 22.484375 60 "/>
<path d="M 30.566406 50.816406 C 30.089844 51.574219 29.648438 52.285156 29.25 52.953125 C 28.851562 53.617188 28.476562 54.257812 28.132812 54.863281 C 27.789062 55.460938 27.460938 56.042969 27.148438 56.605469 C 26.851562 57.15625 26.5625 57.703125 26.285156 58.242188 L 30.714844 58.242188 L 30.714844 60 L 23.917969 60 L 23.917969 58.777344 C 24.160156 58.28125 24.421875 57.765625 24.699219 57.226562 C 24.976562 56.675781 25.289062 56.089844 25.632812 55.46875 C 25.976562 54.847656 26.351562 54.175781 26.75 53.453125 C 27.160156 52.726562 27.609375 51.941406 28.101562 51.089844 L 24.132812 51.089844 L 24.132812 49.332031 L 30.566406 49.332031 L 30.566406 50.816406 "/>
<path d="M 34.167969 49.332031 C 34.246094 49.574219 34.339844 49.882812 34.449219 50.265625 C 34.574219 50.644531 34.699219 51.050781 34.832031 51.488281 C 34.964844 51.925781 35.101562 52.367188 35.234375 52.8125 C 35.367188 53.261719 35.496094 53.675781 35.617188 54.054688 C 35.75 53.628906 35.890625 53.191406 36.035156 52.746094 C 36.179688 52.285156 36.316406 51.847656 36.449219 51.4375 C 36.582031 51.011719 36.707031 50.613281 36.816406 50.246094 C 36.929688 49.878906 37.027344 49.574219 37.117188 49.332031 L 38.816406 49.332031 C 38.894531 50.265625 38.964844 51.171875 39.035156 52.054688 C 39.109375 52.941406 39.171875 53.820312 39.214844 54.691406 C 39.273438 55.554688 39.316406 56.425781 39.351562 57.3125 C 39.382812 58.183594 39.410156 59.082031 39.433594 60 L 37.550781 60 L 37.648438 51.710938 L 36.382812 56.226562 L 34.882812 56.226562 L 33.667969 51.710938 L 33.75 60 L 31.867188 60 C 31.898438 59.125 31.933594 58.21875 31.964844 57.277344 C 32.011719 56.335938 32.054688 55.398438 32.101562 54.46875 C 32.144531 53.539062 32.195312 52.636719 32.25 51.761719 C 32.316406 50.890625 32.390625 50.078125 32.464844 49.332031 L 34.167969 49.332031 "/>
<path d="M 45.800781 60 L 45.316406 57.535156 L 42.566406 57.535156 L 42.101562 60 L 39.964844 60 C 40.457031 57.898438 40.949219 55.984375 41.449219 54.261719 C 41.949219 52.527344 42.433594 50.882812 42.898438 49.332031 L 45.132812 49.332031 C 45.621094 50.894531 46.105469 52.554688 46.582031 54.3125 C 47.074219 56.058594 47.542969 57.953125 48 60 L 45.800781 60 M 43.96875 51.402344 C 43.855469 51.804688 43.75 52.1875 43.648438 52.554688 C 43.5625 52.910156 43.472656 53.269531 43.382812 53.625 C 43.304688 53.96875 43.226562 54.320312 43.148438 54.675781 C 43.082031 55.03125 43.015625 55.398438 42.949219 55.777344 L 44.96875 55.777344 C 44.898438 55.398438 44.832031 55.03125 44.765625 54.675781 C 44.699219 54.320312 44.621094 53.96875 44.535156 53.625 C 44.457031 53.269531 44.367188 52.910156 44.265625 52.554688 C 44.179688 52.1875 44.078125 51.804688 43.96875 51.402344 "/>
</g>
</svg>
