<svg width="64" xmlns="http://www.w3.org/2000/svg" height="64" viewBox="0 0 64 64" xmlns:xlink="http://www.w3.org/1999/xlink">
<path style="fill:#dcdcdc" d="M 10.667969 1.332031 C 9.296875 1.332031 8 2.628906 8 4 L 8 60 C 8 61.296875 9.371094 62.667969 10.667969 62.667969 L 53.332031 62.667969 C 54.628906 62.667969 56 61.296875 56 60 L 56 18.667969 L 38.667969 1.332031 Z "/>
<path style="fill:#000;fill-opacity:.196" d="M 38.667969 16 L 38.75 16.082031 L 38.957031 16 Z M 41.332031 18.667969 L 56 33.332031 L 56 18.667969 Z "/>
<path style="fill:#fff;fill-opacity:.392" d="M 38.667969 1.332031 L 56 18.667969 L 41.332031 18.667969 C 40.039062 18.667969 38.667969 17.296875 38.667969 16 Z "/>
<g style="fill:#545454">
<path d="M 25.835938 41.320312 C 25.835938 42.132812 26.042969 42.722656 26.464844 43.085938 C 26.890625 43.453125 27.515625 43.644531 28.335938 43.660156 L 28.335938 45.332031 C 26.957031 45.316406 25.890625 44.972656 25.136719 44.292969 C 24.382812 43.617188 24.007812 42.664062 24.007812 41.4375 L 24.007812 37.820312 C 24.007812 36.992188 23.777344 36.402344 23.324219 36.050781 C 22.867188 35.695312 22.203125 35.515625 21.332031 35.515625 L 21.332031 33.832031 C 22.273438 33.816406 22.957031 33.625 23.375 33.257812 C 23.796875 32.890625 24.007812 32.324219 24.007812 31.5625 L 24.007812 27.90625 C 24.007812 26.671875 24.398438 25.710938 25.183594 25.027344 C 25.964844 24.34375 27.015625 24 28.335938 24 L 28.335938 25.660156 C 26.667969 25.707031 25.835938 26.5 25.835938 28.039062 L 25.835938 31.5625 C 25.835938 33.273438 25.027344 34.285156 23.410156 34.59375 L 23.410156 34.738281 C 25.027344 35.050781 25.835938 36.058594 25.835938 37.773438 L 25.835938 41.320312 "/>
<path d="M 40.566406 34.59375 C 38.949219 34.285156 38.144531 33.273438 38.144531 31.5625 L 38.144531 28.039062 C 38.144531 26.5 37.320312 25.707031 35.675781 25.660156 L 35.675781 24 C 37.007812 24 38.054688 24.347656 38.816406 25.039062 C 39.585938 25.730469 39.96875 26.6875 39.96875 27.90625 L 39.96875 31.5625 C 39.96875 32.332031 40.183594 32.902344 40.609375 33.269531 C 41.039062 33.628906 41.722656 33.816406 42.664062 33.832031 L 42.664062 35.515625 C 41.78125 35.515625 41.109375 35.695312 40.65625 36.050781 C 40.199219 36.402344 39.96875 36.992188 39.96875 37.820312 L 39.96875 41.4375 C 39.96875 42.65625 39.597656 43.605469 38.847656 44.28125 C 38.109375 44.96875 37.050781 45.316406 35.675781 45.332031 L 35.675781 43.660156 C 36.480469 43.644531 37.089844 43.453125 37.511719 43.085938 C 37.933594 42.722656 38.144531 42.132812 38.144531 41.320312 L 38.144531 37.773438 C 38.144531 36.863281 38.34375 36.171875 38.742188 35.695312 C 39.140625 35.214844 39.75 34.898438 40.566406 34.738281 L 40.566406 34.59375 "/>
</g>
</svg>
