<svg width="64" xmlns="http://www.w3.org/2000/svg" height="64" viewBox="0 0 64 64" xmlns:xlink="http://www.w3.org/1999/xlink">
<path style="fill:#c19553" d="M 10.667969 1.332031 C 9.296875 1.332031 8 2.628906 8 4 L 8 60 C 8 61.296875 9.371094 62.667969 10.667969 62.667969 L 53.332031 62.667969 C 54.628906 62.667969 56 61.296875 56 60 L 56 18.667969 L 38.667969 1.332031 Z "/>
<path style="fill:#000;fill-opacity:.196" d="M 38.667969 16 L 38.75 16.082031 L 38.957031 16 Z M 41.332031 18.667969 L 56 33.332031 L 56 18.667969 Z "/>
<path style="fill:#fff;fill-opacity:.392" d="M 38.667969 1.332031 L 56 18.667969 L 41.332031 18.667969 C 40.039062 18.667969 38.667969 17.296875 38.667969 16 Z "/>
<path style="fill:#fff" d="M 18.667969 1.332031 L 18.667969 6.667969 L 24 6.667969 L 24 12 L 18.667969 12 L 18.667969 17.332031 L 24 17.332031 L 24 22.667969 L 18.667969 22.667969 L 18.667969 28 L 24 28 L 24 36 L 18.667969 36 L 18.667969 46.667969 L 29.332031 46.667969 L 29.332031 36 L 24 36 L 24 33.332031 L 29.332031 33.332031 L 29.332031 28 L 24 28 L 24 22.667969 L 29.332031 22.667969 L 29.332031 17.332031 L 24 17.332031 L 24 12 L 29.332031 12 L 29.332031 6.667969 L 24 6.667969 L 24 1.332031 Z "/>
</svg>
