<svg width="64" xmlns="http://www.w3.org/2000/svg" height="64" viewBox="0 0 64 64" xmlns:xlink="http://www.w3.org/1999/xlink">
<path style="fill:#38a34e" d="M 10.667969 1.332031 C 9.296875 1.332031 8 2.628906 8 4 L 8 60 C 8 61.296875 9.371094 62.667969 10.667969 62.667969 L 53.332031 62.667969 C 54.628906 62.667969 56 61.296875 56 60 L 56 18.667969 L 38.667969 1.332031 Z "/>
<path style="fill:#000;fill-opacity:.196" d="M 38.667969 16 L 38.75 16.082031 L 38.957031 16 Z M 41.332031 18.667969 L 56 33.332031 L 56 18.667969 Z "/>
<path style="fill:#fff;fill-opacity:.392" d="M 38.667969 1.332031 L 56 18.667969 L 41.332031 18.667969 C 40.039062 18.667969 38.667969 17.296875 38.667969 16 Z "/>
<path style="fill:#fff" d="M 22.714844 24 C 21.964844 24.070312 21.320312 24.863281 21.332031 25.707031 L 21.332031 43.667969 C 21.339844 44.550781 22.050781 45.347656 22.839844 45.332031 L 41.203125 45.332031 C 41.980469 45.320312 42.660156 44.535156 42.667969 43.667969 L 42.667969 25.707031 C 42.675781 24.824219 41.992188 24.007812 41.203125 24 Z M 24.011719 26.667969 L 39.988281 26.667969 L 39.988281 38.125 C 39.875 37.984375 39.816406 37.9375 39.695312 37.792969 C 38.507812 36.367188 37.148438 34.671875 35.515625 32.625 C 35.1875 32.949219 34.789062 33.339844 34.257812 33.832031 C 33.71875 34.328125 33.078125 34.921875 32.335938 35.582031 C 32.242188 35.6875 31.863281 35.292969 31.164062 34.417969 C 30.449219 33.535156 29.46875 32.191406 28.152344 30.332031 C 26.386719 32.164062 25.113281 33.472656 24.011719 34.582031 Z "/>
</svg>
