<?xml version="1.0" encoding="UTF-8" standalone="no"?>
<svg
   xmlns:dc="http://purl.org/dc/elements/1.1/"
   xmlns:cc="http://creativecommons.org/ns#"
   xmlns:rdf="http://www.w3.org/1999/02/22-rdf-syntax-ns#"
   xmlns:svg="http://www.w3.org/2000/svg"
   xmlns="http://www.w3.org/2000/svg"
   xmlns:sodipodi="http://sodipodi.sourceforge.net/DTD/sodipodi-0.dtd"
   xmlns:inkscape="http://www.inkscape.org/namespaces/inkscape"
   width="64px"
   height="64px"
   viewBox="0 0 64 64"
   version="1.1"
   id="svg3012"
   inkscape:version="0.48.5 r10040"
   sodipodi:docname="application-x-arc.svg">
  <metadata
     id="metadata3045">
    <rdf:RDF>
      <cc:Work
         rdf:about="">
        <dc:format>image/svg+xml</dc:format>
        <dc:type
           rdf:resource="http://purl.org/dc/dcmitype/StillImage" />
      </cc:Work>
    </rdf:RDF>
  </metadata>
  <defs
     id="defs3043" />
  <sodipodi:namedview
     pagecolor="#ffffff"
     bordercolor="#666666"
     borderopacity="1"
     objecttolerance="10"
     gridtolerance="10"
     guidetolerance="10"
     inkscape:pageopacity="0"
     inkscape:pageshadow="2"
     inkscape:window-width="1280"
     inkscape:window-height="970"
     id="namedview3041"
     showgrid="true"
     inkscape:zoom="7.375"
     inkscape:cx="33.410119"
     inkscape:cy="15.008511"
     inkscape:window-x="0"
     inkscape:window-y="0"
     inkscape:window-maximized="1"
     inkscape:current-layer="svg3012">
    <inkscape:grid
       type="xygrid"
       id="grid3119" />
  </sodipodi:namedview>
  <path
     inkscape:connector-curvature="0"
     id="path3015"
     d="M 10.671875,0 C 9.296875,0 8,1.355469 8,2.789062 L 8,61.210938 C 8,62.566406 9.375,64 10.671875,64 l 42.65625,0 C 54.625,64 56,62.566406 56,61.210938 L 56,18 38,0 z m 0,0"
     style="fill:#bf9451;fill-opacity:1;fill-rule:nonzero;stroke:none" />
  <path
     inkscape:connector-curvature="0"
     id="path3017"
     d="M 8,48 8,61.335938 C 8,62.632812 9.375,64 10.664062,64 l 42.671876,0 C 54.625,64 56,62.632812 56,61.335938 L 56,48 z m 0,0"
     style="fill:#000000;fill-opacity:0.19607801;fill-rule:nonzero;stroke:none" />
  <path
     inkscape:connector-curvature="0"
     id="path3019"
     d="m 24.855469,61.988281 -0.566407,-2.5 -3.230468,0 -0.550782,2.5 -2.507812,0 c 0.574219,-2.132812 1.15625,-4.082031 1.746094,-5.832031 0.589844,-1.761719 1.15625,-3.433594 1.707031,-5.007812 l 2.625,0 c 0.574219,1.582031 1.140625,3.269531 1.707031,5.058593 0.570313,1.78125 1.121094,3.707031 1.664063,5.78125 l -2.59375,0 m -2.148438,-8.742187 c -0.128906,0.410156 -0.253906,0.804687 -0.375,1.171875 -0.109375,0.363281 -0.207031,0.722656 -0.3125,1.09375 -0.08984,0.34375 -0.179687,0.703125 -0.269531,1.0625 -0.08203,0.363281 -0.164062,0.738281 -0.238281,1.125 l 2.367187,0 c -0.08203,-0.386719 -0.152344,-0.761719 -0.234375,-1.125 -0.07422,-0.359375 -0.164062,-0.71875 -0.273437,-1.0625 -0.08984,-0.371094 -0.195313,-0.730469 -0.3125,-1.09375 -0.105469,-0.367188 -0.21875,-0.761719 -0.351563,-1.171875"
     style="fill:#ffffff;fill-opacity:1;fill-rule:nonzero;stroke:none" />
  <path
     inkscape:connector-curvature="0"
     id="path3021"
     d="m 42,18 14,14 0,-14 z m 0,0"
     style="fill:#000000;fill-opacity:0.19607801;fill-rule:nonzero;stroke:none" />
  <path
     inkscape:connector-curvature="0"
     id="path3023"
     d="m 31.8125,51.023438 c 0.695312,0 1.320312,0.06641 1.886719,0.207031 0.554687,0.136719 1.039062,0.359375 1.441406,0.644531 0.410156,0.296875 0.714844,0.675781 0.925781,1.125 0.222656,0.441406 0.328125,0.96875 0.328125,1.574219 0,0.632812 -0.136719,1.207031 -0.425781,1.722656 -0.285156,0.507813 -0.761719,0.902344 -1.433594,1.171875 0.21875,0.304688 0.457032,0.640625 0.703125,1.019531 0.253907,0.359375 0.492188,0.746094 0.730469,1.15625 0.230469,0.394531 0.453125,0.792969 0.664062,1.203125 0.222657,0.402344 0.410157,0.78125 0.566407,1.140625 l -2.527344,0 c -0.300781,-0.695312 -0.65625,-1.367187 -1.054687,-2.015625 -0.394532,-0.648437 -0.8125,-1.3125 -1.273438,-1.976562 l -1.253906,0 0,3.992187 -2.410156,0 0,-10.6875 c 0.238281,-0.04687 0.492187,-0.08984 0.761718,-0.121093 0.285156,-0.05078 0.574219,-0.07422 0.859375,-0.08984 0.289063,-0.02344 0.566407,-0.04297 0.828125,-0.05078 0.265625,-0.01562 0.484375,-0.01562 0.683594,-0.01562 m 2.140625,3.535156 c 0,-0.574219 -0.199219,-0.992188 -0.589844,-1.261719 -0.394531,-0.265625 -0.914062,-0.402344 -1.550781,-0.402344 -0.08984,0 -0.199219,0.0078 -0.328125,0.01563 -0.132813,0 -0.261719,0.01563 -0.394531,0.03906 l 0,3.257812 0.523437,0 c 0.828125,0 1.421875,-0.140625 1.789063,-0.417969 0.359375,-0.296874 0.550781,-0.707031 0.550781,-1.230468"
     style="fill:#ffffff;fill-opacity:1;fill-rule:nonzero;stroke:none" />
  <path
     inkscape:connector-curvature="0"
     id="path3025"
     d="M 38,0 55.984375,18 40.757812,18 C 39.410156,18 38,16.574219 38,15.226562 z m 0,0"
     style="fill:#ffffff;fill-opacity:0.39215698;fill-rule:nonzero;stroke:none" />
  <path
     inkscape:connector-curvature="0"
     id="path3029"
     d="m 18,0 6,0 0,6 -6,0 z m 0,0"
     style="fill:#f8f8f8;fill-opacity:1;fill-rule:evenodd;stroke:none" />
  <path
     inkscape:connector-curvature="0"
     id="path3031"
     d="m 24,6 6,0 0,6 -6,0 z m 0,0"
     style="fill:#f8f8f8;fill-opacity:1;fill-rule:evenodd;stroke:none" />
  <path
     inkscape:connector-curvature="0"
     id="path3033"
     d="m 18,12 6,0 0,6 -6,0 z m 0,0"
     style="fill:#f8f8f8;fill-opacity:1;fill-rule:evenodd;stroke:none" />
  <path
     inkscape:connector-curvature="0"
     id="path3035"
     d="m 24,18 6,0 0,6 -6,0 z m 0,0"
     style="fill:#f8f8f8;fill-opacity:1;fill-rule:evenodd;stroke:none" />
  <path
     inkscape:connector-curvature="0"
     id="path3037"
     d="m 18,24 6,0 0,6 -6,0 z m 0,0"
     style="fill:#f8f8f8;fill-opacity:1;fill-rule:evenodd;stroke:none" />
  <path
     inkscape:connector-curvature="0"
     id="path3039"
     d="m 18,32 12,0 0,12 -12,0 z m 0,0"
     style="fill:#f8f8f8;fill-opacity:1;fill-rule:evenodd;stroke:none" />
  <path
     inkscape:connector-curvature="0"
     id="path27"
     d="m 43.21875,62.074216 c -1.71875,0 -3.023437,-0.492188 -3.925781,-1.484375 -0.898438,-0.980469 -1.347656,-2.378906 -1.347656,-4.203125 0,-0.898438 0.132812,-1.707031 0.40625,-2.40625 0.277344,-0.710938 0.660156,-1.300781 1.144531,-1.785156 0.488281,-0.488282 1.074219,-0.855469 1.738281,-1.105469 0.683594,-0.257813 1.417969,-0.382813 2.214844,-0.382813 0.433594,0 0.816406,0.03125 1.160156,0.09766 0.347656,0.05859 0.65625,0.132812 0.914063,0.21875 0.265625,0.08203 0.476562,0.164062 0.648437,0.257812 0.183594,0.09766 0.316406,0.164063 0.410156,0.214844 l -0.625,1.726563 c -0.300781,-0.175782 -0.667968,-0.328126 -1.097656,-0.441407 -0.417968,-0.125 -0.902344,-0.191406 -1.449218,-0.191406 -0.375,0 -0.75,0.06641 -1.117188,0.191406 -0.351562,0.113281 -0.675781,0.324219 -0.957031,0.613281 -0.277344,0.285157 -0.507813,0.667969 -0.691407,1.140626 -0.167968,0.484374 -0.25,1.085937 -0.25,1.800781 0,1.242187 0.234376,2.199219 0.707032,2.863281 0.484375,0.660156 1.265625,0.992188 2.347656,0.992188 0.625,0 1.140625,-0.06641 1.550781,-0.191407 0.414063,-0.132812 0.75,-0.257812 1,-0.390625 l 0.605469,1.707032 c -0.339844,0.191406 -0.804688,0.367187 -1.390625,0.523437 C 44.640625,62 43.976563,62.074219 43.21875,62.074219"
     style="fill:#ffffff;fill-opacity:1;fill-rule:nonzero;stroke:none" />
</svg>
