
<svg xmlns="http://www.w3.org/2000/svg" xmlns:xlink="http://www.w3.org/1999/xlink" width="64px" height="64px" viewBox="0 0 64 64" version="1.1">
<g id="surface1">
<path style=" stroke:none;fill-rule:nonzero;fill:rgb(75.686275%,58.431373%,32.54902%);fill-opacity:1;" d="M 10.671875 0 C 9.296875 0 8 1.355469 8 2.789062 L 8 61.210938 C 8 62.566406 9.375 64 10.671875 64 L 53.328125 64 C 54.625 64 56 62.566406 56 61.210938 L 56 18 L 38 0 Z M 10.671875 0 "/>
<path style=" stroke:none;fill-rule:nonzero;fill:rgb(0%,0%,0%);fill-opacity:0.196078;" d="M 8 48 L 8 61.335938 C 8 62.632812 9.375 64 10.664062 64 L 53.335938 64 C 54.625 64 56 62.632812 56 61.335938 L 56 48 Z M 8 48 "/>
<path style=" stroke:none;fill-rule:nonzero;fill:rgb(0%,0%,0%);fill-opacity:0.196078;" d="M 42 18 L 56 32 L 56 18 Z M 42 18 "/>
<path style=" stroke:none;fill-rule:nonzero;fill:rgb(100%,100%,100%);fill-opacity:1;" d="M 20.421875 62.199219 C 18.984375 62.199219 17.890625 61.738281 17.132812 60.808594 C 16.375 59.886719 16 58.574219 16 56.863281 C 16 56.019531 16.117188 55.261719 16.34375 54.605469 C 16.578125 53.941406 16.890625 53.386719 17.296875 52.933594 C 17.71875 52.472656 18.203125 52.128906 18.765625 51.894531 C 19.335938 51.652344 19.953125 51.535156 20.617188 51.535156 C 20.984375 51.535156 21.304688 51.566406 21.59375 51.628906 C 21.890625 51.683594 22.140625 51.753906 22.367188 51.832031 C 22.585938 51.910156 22.765625 51.988281 22.90625 52.074219 C 23.0625 52.167969 23.171875 52.230469 23.25 52.277344 L 22.726562 53.894531 C 22.476562 53.730469 22.164062 53.589844 21.804688 53.480469 C 21.453125 53.363281 21.046875 53.300781 20.585938 53.300781 C 20.273438 53.300781 19.960938 53.363281 19.648438 53.480469 C 19.351562 53.589844 19.085938 53.785156 18.84375 54.058594 C 18.617188 54.324219 18.421875 54.683594 18.265625 55.128906 C 18.125 55.582031 18.054688 56.144531 18.054688 56.816406 C 18.054688 57.980469 18.25 58.878906 18.648438 59.503906 C 19.054688 60.121094 19.710938 60.433594 20.617188 60.433594 C 21.148438 60.433594 21.578125 60.371094 21.921875 60.253906 C 22.273438 60.128906 22.546875 60.011719 22.757812 59.886719 L 23.265625 61.488281 C 22.984375 61.667969 22.59375 61.832031 22.101562 61.988281 C 21.617188 62.128906 21.0625 62.199219 20.421875 62.199219 "/>
<path style=" stroke:none;fill-rule:nonzero;fill:rgb(100%,100%,100%);fill-opacity:0.392157;" d="M 38 0 L 55.984375 18 L 40.757812 18 C 39.410156 18 38 16.574219 38 15.226562 Z M 38 0 "/>
<path style=" stroke:none;fill-rule:nonzero;fill:rgb(100%,100%,100%);fill-opacity:1;" d="M 27.460938 51.644531 C 28.757812 51.644531 29.757812 51.917969 30.46875 52.457031 C 31.179688 52.988281 31.539062 53.855469 31.539062 55.066406 C 31.539062 56.285156 31.179688 57.175781 30.453125 57.722656 C 29.742188 58.261719 28.726562 58.535156 27.414062 58.535156 L 26.6875 58.535156 L 26.6875 61.988281 L 24.664062 61.988281 L 24.664062 51.894531 C 24.859375 51.855469 25.085938 51.816406 25.320312 51.777344 C 25.578125 51.746094 25.828125 51.722656 26.078125 51.714844 C 26.335938 51.691406 26.578125 51.675781 26.820312 51.667969 C 27.0625 51.652344 27.273438 51.644531 27.460938 51.644531 M 27.695312 53.417969 C 27.570312 53.417969 27.398438 53.417969 27.179688 53.433594 C 26.976562 53.433594 26.8125 53.441406 26.6875 53.464844 L 26.6875 56.769531 L 27.507812 56.769531 C 28.15625 56.769531 28.648438 56.636719 28.976562 56.386719 C 29.304688 56.121094 29.46875 55.675781 29.46875 55.050781 C 29.46875 54.457031 29.304688 54.035156 28.976562 53.792969 C 28.65625 53.542969 28.226562 53.417969 27.695312 53.417969 "/>
<path style=" stroke:none;fill-rule:evenodd;fill:rgb(97.647059%,97.647059%,97.647059%);fill-opacity:1;" d="M 18 0 L 24 0 L 24 6 L 18 6 Z M 18 0 "/>
<path style=" stroke:none;fill-rule:nonzero;fill:rgb(100%,100%,100%);fill-opacity:1;" d="M 32.890625 61.988281 L 32.890625 60.300781 L 35.109375 60.300781 L 35.109375 53.449219 L 32.890625 53.449219 L 32.890625 51.761719 L 39.351562 51.761719 L 39.351562 53.449219 L 37.148438 53.449219 L 37.148438 60.300781 L 39.351562 60.300781 L 39.351562 61.988281 L 32.890625 61.988281 "/>
<path style=" stroke:none;fill-rule:evenodd;fill:rgb(97.647059%,97.647059%,97.647059%);fill-opacity:1;" d="M 24 6 L 30 6 L 30 12 L 24 12 Z M 24 6 "/>
<path style=" stroke:none;fill-rule:nonzero;fill:rgb(100%,100%,100%);fill-opacity:1;" d="M 42.71875 56.863281 C 42.71875 57.363281 42.734375 57.832031 42.773438 58.269531 C 42.8125 58.699219 42.890625 59.074219 43 59.394531 C 43.125 59.714844 43.289062 59.964844 43.492188 60.152344 C 43.703125 60.339844 43.984375 60.433594 44.335938 60.433594 C 44.671875 60.433594 44.945312 60.339844 45.15625 60.152344 C 45.375 59.964844 45.539062 59.714844 45.648438 59.394531 C 45.765625 59.058594 45.84375 58.683594 45.875 58.253906 C 45.921875 57.824219 45.945312 57.363281 45.945312 56.863281 C 45.945312 56.371094 45.921875 55.910156 45.875 55.480469 C 45.84375 55.035156 45.765625 54.660156 45.648438 54.339844 C 45.539062 54.019531 45.382812 53.769531 45.171875 53.582031 C 44.960938 53.394531 44.6875 53.300781 44.335938 53.300781 C 43.984375 53.300781 43.703125 53.394531 43.492188 53.582031 C 43.289062 53.769531 43.125 54.027344 43 54.355469 C 42.890625 54.675781 42.8125 55.050781 42.773438 55.480469 C 42.734375 55.910156 42.71875 56.371094 42.71875 56.863281 M 40.664062 56.863281 C 40.664062 55.105469 40.992188 53.777344 41.632812 52.886719 C 42.28125 51.980469 43.179688 51.535156 44.335938 51.535156 C 45.53125 51.535156 46.4375 51.980469 47.0625 52.886719 C 47.6875 53.777344 48 55.105469 48 56.863281 C 48 58.628906 47.679688 59.957031 47.046875 60.863281 C 46.414062 61.753906 45.507812 62.199219 44.351562 62.199219 C 43.15625 62.199219 42.242188 61.753906 41.601562 60.863281 C 40.976562 59.957031 40.664062 58.628906 40.664062 56.863281 "/>
<path style=" stroke:none;fill-rule:evenodd;fill:rgb(97.647059%,97.647059%,97.647059%);fill-opacity:1;" d="M 18 12 L 24 12 L 24 18 L 18 18 Z M 18 12 "/>
<path style=" stroke:none;fill-rule:evenodd;fill:rgb(97.647059%,97.647059%,97.647059%);fill-opacity:1;" d="M 24 18 L 30 18 L 30 24 L 24 24 Z M 24 18 "/>
<path style=" stroke:none;fill-rule:evenodd;fill:rgb(97.647059%,97.647059%,97.647059%);fill-opacity:1;" d="M 18 24 L 24 24 L 24 30 L 18 30 Z M 18 24 "/>
<path style=" stroke:none;fill-rule:evenodd;fill:rgb(97.647059%,97.647059%,97.647059%);fill-opacity:1;" d="M 18 32 L 30 32 L 30 44 L 18 44 Z M 18 32 "/>
</g>
</svg>
