<svg width="64" xmlns="http://www.w3.org/2000/svg" height="64" viewBox="0 0 64 64" xmlns:xlink="http://www.w3.org/1999/xlink">
<path style="fill:#9b4a85" d="M 10.667969 1.332031 C 9.296875 1.332031 8 2.628906 8 4 L 8 60 C 8 61.296875 9.371094 62.667969 10.667969 62.667969 L 53.332031 62.667969 C 54.628906 62.667969 56 61.296875 56 60 L 56 18.667969 L 38.667969 1.332031 Z "/>
<path style="fill:#000;fill-opacity:.196" d="M 38.667969 16 L 38.75 16.082031 L 38.957031 16 Z M 41.332031 18.667969 L 56 33.332031 L 56 18.667969 Z "/>
<path style="fill:#fff;fill-opacity:.392" d="M 38.667969 1.332031 L 56 18.667969 L 41.332031 18.667969 C 40.039062 18.667969 38.667969 17.296875 38.667969 16 Z "/>
<g style="fill:#fff">
<path d="M 26.9375 26.90625 C 25.382812 27.296875 24.078125 28.722656 24.078125 28.722656 L 24.117188 28.769531 L 26.605469 38.011719 C 24.828125 37.046875 22.289062 37.289062 20.183594 38.808594 C 17.46875 40.773438 16.523438 44.121094 18.09375 46.277344 C 19.667969 48.433594 23.140625 48.585938 25.855469 46.621094 C 27.996094 45.074219 29.191406 42.632812 28.761719 40.628906 C 28.746094 40.566406 28.726562 40.507812 28.710938 40.445312 L 26.324219 31.207031 C 26.378906 31.125 27.074219 30.804688 29.332031 30.652344 C 31.71875 30.492188 33.332031 26.667969 33.332031 26.667969 C 33.332031 26.667969 30.648438 27.695312 28.535156 26.949219 C 28.007812 26.761719 27.453125 26.773438 26.933594 26.902344 Z "/>
<path d="M 36 28 L 36 26.667969 L 46.667969 26.667969 L 46.667969 28 Z "/>
<path d="M 30.667969 34.667969 L 30.667969 36 L 46.667969 36 L 46.667969 34.667969 Z "/>
<path d="M 33.332031 32 L 33.332031 30.667969 L 46.667969 30.667969 L 46.667969 32 Z "/>
<path d="M 30.667969 38.667969 L 30.667969 40 L 46.667969 40 L 46.667969 38.667969 Z "/>
<path d="M 30.667969 42.667969 L 30.667969 44 L 46.667969 44 L 46.667969 42.667969 Z "/>
<path d="M 30.667969 46.667969 L 30.667969 48 L 46.667969 48 L 46.667969 46.667969 Z "/>
</g>
</svg>
