<svg width="64" xmlns="http://www.w3.org/2000/svg" height="64" viewBox="0 0 64 64" xmlns:xlink="http://www.w3.org/1999/xlink">
<path style="fill:#9b4a85" d="M 10.667969 1.332031 C 9.296875 1.332031 8 2.628906 8 4 L 8 60 C 8 61.296875 9.371094 62.667969 10.667969 62.667969 L 53.332031 62.667969 C 54.628906 62.667969 56 61.296875 56 60 L 56 18.667969 L 38.667969 1.332031 Z "/>
<path style="fill:#000;fill-opacity:.196" d="M 38.667969 16 L 38.75 16.082031 L 38.957031 16 Z M 41.332031 18.667969 L 56 33.332031 L 56 18.667969 Z "/>
<path style="fill:#fff;fill-opacity:.392" d="M 38.667969 1.332031 L 56 18.667969 L 41.332031 18.667969 C 40.039062 18.667969 38.667969 17.296875 38.667969 16 Z "/>
<g style="fill:#fff">
<path d="M 26.9375 26.90625 C 25.382812 27.296875 24.078125 28.722656 24.078125 28.722656 L 24.117188 28.769531 L 26.605469 38.011719 C 24.828125 37.046875 22.289062 37.289062 20.183594 38.808594 C 17.46875 40.773438 16.523438 44.121094 18.09375 46.277344 C 19.667969 48.433594 23.140625 48.585938 25.855469 46.621094 C 27.996094 45.074219 29.191406 42.632812 28.761719 40.628906 C 28.746094 40.566406 28.726562 40.507812 28.710938 40.445312 L 26.324219 31.207031 C 26.378906 31.125 27.074219 30.804688 29.332031 30.652344 C 31.71875 30.492188 33.332031 26.667969 33.332031 26.667969 C 33.332031 26.667969 30.648438 27.695312 28.535156 26.949219 C 28.007812 26.761719 27.453125 26.773438 26.933594 26.902344 Z "/>
<path d="M 30.667969 38.667969 L 30.667969 40 L 46.667969 40 L 46.667969 38.667969 Z "/>
<path d="M 30.667969 42.667969 L 30.667969 44 L 46.667969 44 L 46.667969 42.667969 Z "/>
<path d="M 30.667969 46.667969 L 30.667969 48 L 46.667969 48 L 46.667969 46.667969 Z "/>
<path d="M 40.890625 26.667969 C 40.644531 26.667969 40.445312 26.863281 40.445312 27.109375 L 40.445312 28.109375 C 39.996094 28.210938 39.585938 28.386719 39.207031 28.625 L 38.5 27.917969 C 38.324219 27.742188 38.050781 27.742188 37.875 27.917969 L 37.25 28.542969 C 37.074219 28.714844 37.074219 28.992188 37.25 29.167969 L 37.957031 29.875 C 37.722656 30.25 37.546875 30.664062 37.445312 31.109375 L 36.445312 31.109375 C 36.199219 31.109375 36 31.308594 36 31.554688 L 36 32.445312 C 36 32.691406 36.199219 32.890625 36.445312 32.890625 L 37.445312 32.890625 C 37.546875 33.335938 37.722656 33.75 37.957031 34.125 L 37.25 34.832031 C 37.074219 35.007812 37.074219 35.285156 37.25 35.457031 L 37.875 36.082031 C 38.050781 36.257812 38.324219 36.257812 38.5 36.082031 L 39.207031 35.375 C 39.585938 35.613281 39.996094 35.789062 40.445312 35.890625 L 40.445312 36.890625 C 40.445312 37.136719 40.644531 37.332031 40.890625 37.332031 L 41.777344 37.332031 C 42.023438 37.332031 42.222656 37.136719 42.222656 36.890625 L 42.222656 35.890625 C 42.667969 35.789062 43.082031 35.613281 43.457031 35.375 L 44.167969 36.082031 C 44.339844 36.257812 44.617188 36.257812 44.792969 36.082031 L 45.417969 35.457031 C 45.589844 35.285156 45.589844 35.007812 45.417969 34.832031 L 44.707031 34.125 C 44.945312 33.75 45.121094 33.335938 45.222656 32.890625 L 46.222656 32.890625 C 46.46875 32.890625 46.667969 32.691406 46.667969 32.445312 L 46.667969 31.554688 C 46.667969 31.308594 46.46875 31.109375 46.222656 31.109375 L 45.222656 31.109375 C 45.121094 30.664062 44.945312 30.25 44.707031 29.875 L 45.417969 29.167969 C 45.589844 28.992188 45.589844 28.714844 45.417969 28.542969 L 44.792969 27.917969 C 44.617188 27.742188 44.339844 27.742188 44.167969 27.917969 L 43.457031 28.625 C 43.082031 28.386719 42.667969 28.210938 42.222656 28.109375 L 42.222656 27.109375 C 42.222656 26.863281 42.023438 26.667969 41.777344 26.667969 Z M 41.332031 30.222656 C 42.316406 30.222656 43.109375 31.019531 43.109375 32 C 43.109375 32.980469 42.316406 33.777344 41.332031 33.777344 C 40.351562 33.777344 39.554688 32.980469 39.554688 32 C 39.554688 31.019531 40.351562 30.222656 41.332031 30.222656 Z "/>
</g>
</svg>
