
<svg xmlns="http://www.w3.org/2000/svg" xmlns:xlink="http://www.w3.org/1999/xlink" width="64px" height="64px" viewBox="0 0 64 64" version="1.1">
<g id="surface1">
<path style=" stroke:none;fill-rule:nonzero;fill:rgb(53.333333%,53.333333%,53.333333%);fill-opacity:1;" d="M 10.671875 0 C 9.296875 0 8 1.355469 8 2.789062 L 8 61.210938 C 8 62.566406 9.375 64 10.671875 64 L 53.328125 64 C 54.625 64 56 62.566406 56 61.210938 L 56 18 L 38 0 Z M 10.671875 0 "/>
<path style=" stroke:none;fill-rule:nonzero;fill:rgb(0%,0%,0%);fill-opacity:0.196078;" d="M 42 18 L 56 32 L 56 18 Z M 42 18 "/>
<path style=" stroke:none;fill-rule:nonzero;fill:rgb(100%,100%,100%);fill-opacity:0.392157;" d="M 38 0 L 55.984375 18 L 40.757812 18 C 39.410156 18 38 16.574219 38 15.226562 Z M 38 0 "/>
<path style=" stroke:none;fill-rule:nonzero;fill:rgb(100%,100%,100%);fill-opacity:1;" d="M 24 30 L 24 38 C 24 36.523438 25.195312 35.328125 26.664062 35.328125 C 28.140625 35.328125 29.335938 36.523438 29.335938 38 C 29.335938 39.46875 28.140625 40.664062 26.664062 40.664062 C 25.195312 40.664062 24 39.46875 24 38 L 24 46 L 32 46 C 30.523438 46 29.335938 44.804688 29.335938 43.328125 C 29.335938 41.859375 30.523438 40.664062 32 40.664062 C 33.476562 40.664062 34.664062 41.859375 34.664062 43.328125 C 34.664062 44.804688 33.476562 46 32 46 L 40 46 L 40 30 Z M 24 30 "/>
<path style=" stroke:none;fill-rule:nonzero;fill:rgb(100%,100%,100%);fill-opacity:1;" d="M 34.664062 27.328125 C 34.664062 28.804688 33.46875 30 32 30 C 30.523438 30 29.335938 28.804688 29.335938 27.328125 C 29.335938 25.859375 30.523438 24.664062 32 24.664062 C 33.46875 24.664062 34.664062 25.859375 34.664062 27.328125 Z M 34.664062 27.328125 "/>
<path style=" stroke:none;fill-rule:nonzero;fill:rgb(100%,100%,100%);fill-opacity:1;" d="M 45.335938 38 C 45.335938 39.46875 44.140625 40.664062 42.664062 40.664062 C 41.195312 40.664062 40 39.46875 40 38 C 40 36.523438 41.195312 35.328125 42.664062 35.328125 C 44.140625 35.328125 45.335938 36.523438 45.335938 38 Z M 45.335938 38 "/>
</g>
</svg>
