
<svg xmlns="http://www.w3.org/2000/svg" xmlns:xlink="http://www.w3.org/1999/xlink" width="64px" height="64px" viewBox="0 0 64 64" version="1.1">
<g id="surface1">
<path style=" stroke:none;fill-rule:nonzero;fill:rgb(86.27451%,86.27451%,86.27451%);fill-opacity:1;" d="M 10.671875 0 C 9.296875 0 8 1.355469 8 2.789062 L 8 61.210938 C 8 62.566406 9.375 64 10.671875 64 L 53.328125 64 C 54.625 64 56 62.566406 56 61.210938 L 56 18 L 38 0 Z M 10.671875 0 "/>
<path style=" stroke:none;fill-rule:nonzero;fill:rgb(0%,0%,0%);fill-opacity:0.196078;" d="M 42 18 L 56 32 L 56 18 Z M 42 18 "/>
<path style=" stroke:none;fill-rule:nonzero;fill:rgb(100%,100%,100%);fill-opacity:0.392157;" d="M 38 0 L 55.984375 18 L 40.757812 18 C 39.410156 18 38 16.574219 38 15.226562 Z M 38 0 "/>
<path style=" stroke:none;fill-rule:nonzero;fill:rgb(53.333333%,53.333333%,53.333333%);fill-opacity:1;" d="M 32 24 C 24.265625 24 18 30.269531 18 37.996094 C 18 45.730469 24.265625 52 32 52 C 39.734375 52 46 45.730469 46 37.996094 C 46 30.269531 39.734375 24 32 24 Z M 32 26.796875 C 38.183594 26.796875 43.195312 31.808594 43.195312 37.996094 C 43.195312 44.183594 38.183594 49.203125 32 49.203125 C 25.816406 49.203125 20.804688 44.183594 20.804688 37.996094 C 20.804688 31.808594 25.816406 26.796875 32 26.796875 Z M 32 26.796875 "/>
<path style=" stroke:none;fill-rule:nonzero;fill:rgb(53.333333%,53.333333%,53.333333%);fill-opacity:1;" d="M 32.222656 32.484375 C 30.753906 32.484375 29.621094 32.976562 28.816406 33.960938 C 28.015625 34.9375 27.613281 36.296875 27.613281 38.046875 C 27.613281 41.695312 29.144531 43.515625 32.222656 43.515625 C 33.507812 43.515625 35.074219 43.230469 36.90625 42.65625 L 36.90625 45.558594 C 35.402344 46.117188 33.714844 46.398438 31.859375 46.398438 C 29.1875 46.398438 27.144531 45.683594 25.726562 44.238281 C 24.308594 42.796875 23.601562 40.726562 23.601562 38.027344 C 23.601562 36.332031 23.945312 34.835938 24.644531 33.566406 C 25.339844 32.285156 26.332031 31.300781 27.636719 30.628906 C 28.941406 29.941406 30.472656 29.59375 32.222656 29.59375 C 34.007812 29.59375 35.796875 29.980469 37.601562 30.75 L 36.339844 33.566406 C 35.65625 33.277344 34.960938 33.023438 34.273438 32.804688 C 33.574219 32.589844 32.894531 32.484375 32.222656 32.484375 "/>
</g>
</svg>
