<svg width="16" xmlns="http://www.w3.org/2000/svg" height="16" viewBox="0 0 16 16" xmlns:xlink="http://www.w3.org/1999/xlink">
<path style="fill:#edaf02" d="M 2.667969 0.332031 C 2.324219 0.332031 2 0.65625 2 1 L 2 15 C 2 15.324219 2.34375 15.667969 2.667969 15.667969 L 13.332031 15.667969 C 13.65625 15.667969 14 15.324219 14 15 L 14 1 C 14 0.65625 13.675781 0.332031 13.332031 0.332031 Z "/>
<path style="fill:#fff" d="M 5 10.667969 L 5 5.667969 L 11 5.667969 L 11 10.667969 L 7.667969 10.667969 L 7.667969 8 L 9.332031 8 L 9.332031 9 L 8.667969 9 L 8.667969 9.667969 L 10 9.667969 L 10 6.667969 L 6 6.667969 L 6 10.667969 Z "/>
<path style="fill:#000;fill-opacity:.196" d="M 2 11.667969 L 2 15 C 2 15.324219 2.34375 15.667969 2.667969 15.667969 L 13.332031 15.667969 C 13.65625 15.667969 14 15.324219 14 15 L 14 11.667969 Z "/>
<g style="fill:#fff">
<path d="M 5.246094 13.667969 C 5.246094 13.789062 5.25 13.90625 5.261719 14.015625 C 5.273438 14.125 5.292969 14.21875 5.324219 14.296875 C 5.359375 14.378906 5.40625 14.441406 5.464844 14.488281 C 5.523438 14.535156 5.601562 14.558594 5.703125 14.558594 C 5.796875 14.558594 5.875 14.535156 5.933594 14.488281 C 5.996094 14.441406 6.042969 14.378906 6.074219 14.296875 C 6.105469 14.214844 6.128906 14.121094 6.136719 14.011719 C 6.148438 13.90625 6.15625 13.789062 6.15625 13.667969 C 6.15625 13.542969 6.148438 13.425781 6.136719 13.320312 C 6.128906 13.210938 6.105469 13.113281 6.074219 13.035156 C 6.042969 12.957031 5.996094 12.890625 5.9375 12.84375 C 5.878906 12.796875 5.800781 12.773438 5.703125 12.773438 C 5.601562 12.773438 5.523438 12.796875 5.464844 12.84375 C 5.40625 12.890625 5.359375 12.957031 5.324219 13.039062 C 5.292969 13.117188 5.273438 13.210938 5.261719 13.320312 C 5.25 13.425781 5.246094 13.542969 5.246094 13.667969 M 4.667969 13.667969 C 4.667969 13.226562 4.757812 12.894531 4.941406 12.671875 C 5.121094 12.445312 5.375 12.332031 5.703125 12.332031 C 6.039062 12.332031 6.296875 12.445312 6.472656 12.671875 C 6.648438 12.894531 6.734375 13.226562 6.734375 13.667969 C 6.734375 14.105469 6.644531 14.441406 6.464844 14.664062 C 6.289062 14.886719 6.035156 15 5.707031 15 C 5.367188 15 5.109375 14.886719 4.929688 14.664062 C 4.753906 14.441406 4.667969 14.105469 4.667969 13.667969 "/>
<path d="M 9.066406 12.390625 L 9.066406 12.8125 L 8.308594 12.8125 L 8.308594 14.945312 L 7.734375 14.945312 L 7.734375 12.8125 L 6.976562 12.8125 L 6.976562 12.390625 L 9.066406 12.390625 "/>
<path d="M 10.628906 12.773438 C 10.492188 12.773438 10.378906 12.796875 10.285156 12.839844 C 10.191406 12.886719 10.113281 12.945312 10.054688 13.027344 C 9.996094 13.105469 9.949219 13.199219 9.921875 13.308594 C 9.898438 13.414062 9.886719 13.535156 9.886719 13.667969 C 9.886719 13.972656 9.941406 14.199219 10.046875 14.34375 C 10.15625 14.488281 10.316406 14.558594 10.527344 14.558594 C 10.558594 14.558594 10.597656 14.558594 10.636719 14.554688 C 10.675781 14.550781 10.714844 14.546875 10.75 14.542969 L 10.75 13.609375 L 11.320312 13.609375 L 11.320312 14.882812 C 11.25 14.90625 11.144531 14.929688 11 14.957031 C 10.855469 14.984375 10.683594 15 10.480469 15 C 10.300781 15 10.136719 14.972656 9.992188 14.917969 C 9.851562 14.859375 9.726562 14.777344 9.625 14.664062 C 9.523438 14.554688 9.445312 14.414062 9.390625 14.25 C 9.332031 14.082031 9.304688 13.886719 9.304688 13.667969 C 9.304688 13.449219 9.339844 13.257812 9.402344 13.09375 C 9.46875 12.925781 9.554688 12.785156 9.667969 12.671875 C 9.777344 12.558594 9.910156 12.476562 10.0625 12.421875 C 10.214844 12.363281 10.375 12.332031 10.550781 12.332031 C 10.660156 12.332031 10.757812 12.339844 10.847656 12.359375 C 10.9375 12.371094 11.011719 12.386719 11.078125 12.40625 C 11.144531 12.425781 11.195312 12.449219 11.234375 12.46875 C 11.277344 12.492188 11.3125 12.507812 11.332031 12.519531 L 11.183594 12.921875 C 11.117188 12.886719 11.035156 12.851562 10.933594 12.820312 C 10.835938 12.789062 10.734375 12.773438 10.628906 12.773438 "/>
</g>
</svg>
