<svg width="16" xmlns="http://www.w3.org/2000/svg" height="16" viewBox="0 0 16 16" xmlns:xlink="http://www.w3.org/1999/xlink">
<path style="fill:#e66f00" d="M 2.667969 0.332031 C 2.324219 0.332031 2 0.65625 2 1 L 2 15 C 2 15.324219 2.34375 15.667969 2.667969 15.667969 L 13.332031 15.667969 C 13.65625 15.667969 14 15.324219 14 15 L 14 4.667969 L 9.667969 0.332031 Z "/>
<path style="fill:#000;fill-opacity:.196" d="M 9.667969 4 L 9.6875 4.019531 L 9.738281 4 Z M 10.332031 4.667969 L 14 8.332031 L 14 4.667969 Z "/>
<path style="fill:#fff;fill-opacity:.392" d="M 9.667969 0.332031 L 14 4.667969 L 10.332031 4.667969 C 10.007812 4.667969 9.667969 4.324219 9.667969 4 Z "/>
<g style="fill:#fff;fill-rule:evenodd">
<path d="M 7.167969 9.640625 C 7.167969 9.640625 6.925781 9.773438 7.339844 9.820312 C 7.84375 9.871094 8.097656 9.863281 8.652344 9.765625 C 8.652344 9.765625 8.796875 9.851562 9 9.925781 C 7.761719 10.429688 6.195312 9.898438 7.167969 9.640625 "/>
<path d="M 7.019531 8.984375 C 7.019531 8.984375 6.746094 9.171875 7.160156 9.214844 C 7.695312 9.265625 8.121094 9.269531 8.851562 9.136719 C 8.851562 9.136719 8.953125 9.234375 9.113281 9.289062 C 7.613281 9.703125 5.945312 9.320312 7.019531 8.984375 "/>
<path d="M 8.292969 7.867188 C 8.597656 8.203125 8.214844 8.5 8.214844 8.5 C 8.214844 8.5 8.988281 8.121094 8.632812 7.648438 C 8.300781 7.203125 8.046875 6.984375 9.425781 6.226562 C 9.425781 6.226562 7.257812 6.738281 8.292969 7.867188 "/>
<path d="M 9.933594 10.125 C 9.933594 10.125 10.109375 10.265625 9.734375 10.375 C 9.019531 10.578125 6.757812 10.640625 6.132812 10.382812 C 5.90625 10.289062 6.328125 10.160156 6.460938 10.132812 C 6.601562 10.105469 6.679688 10.109375 6.679688 10.109375 C 6.429688 9.941406 5.058594 10.4375 5.984375 10.582031 C 8.507812 10.96875 10.585938 10.40625 9.933594 10.125 "/>
<path d="M 7.285156 8.300781 C 7.285156 8.300781 6.136719 8.5625 6.878906 8.65625 C 7.191406 8.695312 7.816406 8.6875 8.398438 8.640625 C 8.875 8.601562 9.351562 8.519531 9.351562 8.519531 C 9.351562 8.519531 9.183594 8.589844 9.0625 8.667969 C 7.894531 8.960938 5.640625 8.824219 6.289062 8.527344 C 6.839844 8.273438 7.285156 8.300781 7.285156 8.300781 "/>
<path d="M 9.347656 9.394531 C 10.535156 8.8125 9.988281 8.25 9.605469 8.324219 C 9.511719 8.34375 9.46875 8.359375 9.46875 8.359375 C 9.46875 8.359375 9.503906 8.308594 9.570312 8.285156 C 10.328125 8.03125 10.910156 9.03125 9.324219 9.425781 C 9.324219 9.425781 9.34375 9.410156 9.347656 9.394531 "/>
<path d="M 8.632812 5 C 8.632812 5 9.289062 5.625 8.007812 6.582031 C 6.980469 7.351562 7.773438 7.789062 8.007812 8.292969 C 7.410156 7.777344 6.96875 7.328125 7.265625 6.90625 C 7.699219 6.289062 8.898438 5.992188 8.632812 5 "/>
<path d="M 7.402344 10.980469 C 8.542969 11.050781 10.292969 10.941406 10.332031 10.429688 C 10.332031 10.429688 10.253906 10.625 9.390625 10.777344 C 8.417969 10.953125 7.21875 10.933594 6.507812 10.820312 C 6.507812 10.820312 6.652344 10.9375 7.402344 10.980469 "/>
</g>
<path style="fill:#000;fill-opacity:.196" d="M 2 11.667969 L 2 15 C 2 15.324219 2.34375 15.667969 2.667969 15.667969 L 13.332031 15.667969 C 13.65625 15.667969 14 15.324219 14 15 L 14 11.667969 Z "/>
<g style="fill:#fff">
<path d="M 6.492188 14.082031 C 6.492188 14.207031 6.472656 14.324219 6.4375 14.4375 C 6.402344 14.546875 6.34375 14.644531 6.261719 14.730469 C 6.179688 14.8125 6.078125 14.878906 5.949219 14.929688 C 5.820312 14.976562 5.660156 15 5.476562 15 C 5.285156 15 5.121094 14.976562 4.992188 14.933594 C 4.863281 14.886719 4.753906 14.835938 4.667969 14.769531 L 4.882812 14.363281 C 4.960938 14.40625 5.042969 14.449219 5.136719 14.492188 C 5.230469 14.53125 5.328125 14.554688 5.425781 14.554688 C 5.574219 14.554688 5.691406 14.519531 5.78125 14.449219 C 5.875 14.375 5.917969 14.246094 5.917969 14.050781 L 5.917969 12.789062 L 4.964844 12.789062 L 4.964844 12.363281 L 6.492188 12.363281 L 6.492188 14.082031 "/>
<path d="M 8.429688 14.945312 L 8.296875 14.347656 L 7.535156 14.347656 L 7.40625 14.945312 L 6.816406 14.945312 C 6.953125 14.4375 7.089844 13.972656 7.226562 13.554688 C 7.367188 13.136719 7.5 12.738281 7.628906 12.363281 L 8.246094 12.363281 C 8.382812 12.742188 8.515625 13.144531 8.648438 13.570312 C 8.78125 13.992188 8.914062 14.449219 9.039062 14.945312 L 8.429688 14.945312 M 7.925781 12.863281 C 7.894531 12.960938 7.863281 13.054688 7.835938 13.144531 C 7.8125 13.230469 7.789062 13.316406 7.761719 13.402344 C 7.742188 13.484375 7.71875 13.570312 7.699219 13.65625 C 7.679688 13.742188 7.660156 13.832031 7.644531 13.921875 L 8.199219 13.921875 C 8.183594 13.832031 8.164062 13.742188 8.144531 13.65625 C 8.125 13.570312 8.105469 13.484375 8.082031 13.402344 C 8.058594 13.316406 8.035156 13.230469 8.007812 13.144531 C 7.980469 13.054688 7.953125 12.960938 7.925781 12.863281 "/>
<path d="M 10.066406 12.332031 C 10.230469 12.332031 10.375 12.351562 10.507812 12.382812 C 10.640625 12.417969 10.753906 12.46875 10.847656 12.539062 C 10.945312 12.605469 11.015625 12.695312 11.066406 12.804688 C 11.117188 12.910156 11.144531 13.035156 11.144531 13.179688 C 11.144531 13.332031 11.109375 13.46875 11.042969 13.589844 C 10.976562 13.710938 10.863281 13.804688 10.707031 13.867188 C 10.757812 13.941406 10.8125 14.023438 10.871094 14.109375 C 10.929688 14.199219 10.988281 14.289062 11.042969 14.386719 C 11.097656 14.480469 11.152344 14.578125 11.199219 14.675781 C 11.25 14.769531 11.296875 14.859375 11.332031 14.945312 L 10.738281 14.945312 C 10.667969 14.777344 10.585938 14.617188 10.488281 14.464844 C 10.398438 14.308594 10.296875 14.152344 10.191406 13.996094 L 9.894531 13.996094 L 9.894531 14.945312 L 9.328125 14.945312 L 9.328125 12.398438 C 9.382812 12.390625 9.445312 12.378906 9.507812 12.371094 C 9.578125 12.359375 9.644531 12.351562 9.710938 12.351562 C 9.777344 12.34375 9.84375 12.339844 9.90625 12.335938 C 9.964844 12.335938 10.019531 12.332031 10.066406 12.332031 M 10.570312 13.175781 C 10.570312 13.039062 10.523438 12.941406 10.429688 12.875 C 10.339844 12.8125 10.214844 12.78125 10.066406 12.78125 C 10.042969 12.78125 10.019531 12.78125 9.988281 12.785156 C 9.957031 12.785156 9.925781 12.785156 9.894531 12.792969 L 9.894531 13.570312 L 10.019531 13.570312 C 10.214844 13.570312 10.351562 13.535156 10.441406 13.46875 C 10.527344 13.398438 10.570312 13.300781 10.570312 13.175781 "/>
</g>
</svg>
