<?xml version="1.0" encoding="UTF-8" standalone="no"?>
<svg
   xmlns:dc="http://purl.org/dc/elements/1.1/"
   xmlns:cc="http://creativecommons.org/ns#"
   xmlns:rdf="http://www.w3.org/1999/02/22-rdf-syntax-ns#"
   xmlns:svg="http://www.w3.org/2000/svg"
   xmlns="http://www.w3.org/2000/svg"
   xmlns:sodipodi="http://sodipodi.sourceforge.net/DTD/sodipodi-0.dtd"
   xmlns:inkscape="http://www.inkscape.org/namespaces/inkscape"
   width="16"
   height="16"
   viewBox="0 0 16 16"
   id="svg2"
   version="1.1"
   inkscape:version="0.48.5 r10040"
   sodipodi:docname="application-document-template.svg">
  <metadata
     id="metadata28">
    <rdf:RDF>
      <cc:Work
         rdf:about="">
        <dc:format>image/svg+xml</dc:format>
        <dc:type
           rdf:resource="http://purl.org/dc/dcmitype/StillImage" />
      </cc:Work>
    </rdf:RDF>
  </metadata>
  <defs
     id="defs26" />
  <sodipodi:namedview
     pagecolor="#ffffff"
     bordercolor="#666666"
     borderopacity="1"
     objecttolerance="10"
     gridtolerance="10"
     guidetolerance="10"
     inkscape:pageopacity="0"
     inkscape:pageshadow="2"
     inkscape:window-width="1280"
     inkscape:window-height="970"
     id="namedview24"
     showgrid="true"
     inkscape:zoom="41.7193"
     inkscape:cx="9.9891237"
     inkscape:cy="8.5555164"
     inkscape:window-x="0"
     inkscape:window-y="0"
     inkscape:window-maximized="1"
     inkscape:current-layer="svg2">
    <inkscape:grid
       type="xygrid"
       id="grid3020" />
  </sodipodi:namedview>
  <path
     style="fill:#dcdcdc"
     d="M 2.667969,2e-7 C 2.324219,2e-7 2,-0.0097698 2,0.3339847 L 2,15.332031 C 2,15.65625 2.34375,16 2.667969,16 l 10.664062,0 C 13.65625,16 14,15.65625 14,15.332031 L 14,0.6679692 C 14,0.3242192 13.675781,2e-7 13.332031,2e-7 z"
     id="path2991"
     inkscape:connector-curvature="0"
     sodipodi:nodetypes="sssssssss" />
  <path
     style="fill:#888888"
     inkscape:connector-curvature="0"
     id="path16"
     d="m 8,7.0000002 0,1 4,0 0,-1 z" />
  <path
     style="fill:#888888"
     inkscape:connector-curvature="0"
     id="path22"
     d="M 4,9.0000002 4,10 l 8,0 0,-0.9999998 z" />
  <path
     style="fill:#888888"
     inkscape:connector-curvature="0"
     id="path28"
     d="m 4,11 0,1 8,0 0,-1 z" />
  <path
     style="fill:#888888"
     inkscape:connector-curvature="0"
     id="path16-4"
     d="m 8,5.0000002 0,1 4,0 0,-1 z" />
  <rect
     style="fill:#888888;fill-opacity:1;fill-rule:evenodd;stroke:none"
     id="rect3022"
     width="3"
     height="3"
     x="4"
     y="5" />
</svg>
