<svg width="16" xmlns="http://www.w3.org/2000/svg" height="16" viewBox="0 0 16 16" xmlns:xlink="http://www.w3.org/1999/xlink">
<path style="fill:#c19553" d="M 2.6875 2 C 2.34375 2 2 2.34375 2 2.6875 L 2 13.332031 C 2 13.65625 2.34375 14 2.667969 14 L 13.332031 14 C 13.65625 14 14 13.65625 14 13.332031 L 14 2.667969 C 14 2.34375 13.65625 2 13.332031 2 Z "/>
<g style="fill:#fff">
<path style="fill-opacity:.196" d="M 2.6875 2 C 2.34375 2 2 2.34375 2 2.6875 L 2 6 C 3.332031 6 12.667969 6 14 6 L 14 2.667969 C 14 2.34375 13.65625 2 13.332031 2 Z "/>
<path style="fill-opacity:.392" d="M 7 3.332031 L 7 8.667969 L 9 8.667969 L 9 3.332031 Z "/>
</g>
<g style="fill:#fff">
<path d="M 5.246094 12.210938 C 5.261719 12.214844 5.277344 12.214844 5.296875 12.214844 C 5.316406 12.214844 5.335938 12.214844 5.351562 12.214844 C 5.480469 12.214844 5.589844 12.195312 5.679688 12.148438 C 5.769531 12.105469 5.84375 12.042969 5.894531 11.964844 C 5.953125 11.886719 5.992188 11.792969 6.015625 11.6875 C 6.039062 11.578125 6.050781 11.457031 6.050781 11.328125 C 6.050781 11.21875 6.042969 11.109375 6.023438 11 C 6.003906 10.894531 5.972656 10.800781 5.925781 10.71875 C 5.878906 10.636719 5.8125 10.574219 5.730469 10.527344 C 5.648438 10.476562 5.542969 10.449219 5.414062 10.449219 C 5.390625 10.449219 5.363281 10.453125 5.332031 10.453125 C 5.300781 10.453125 5.269531 10.457031 5.246094 10.460938 L 5.246094 12.210938 M 6.640625 11.328125 C 6.640625 11.570312 6.605469 11.777344 6.539062 11.949219 C 6.472656 12.117188 6.378906 12.253906 6.257812 12.359375 C 6.140625 12.464844 5.996094 12.542969 5.832031 12.59375 C 5.667969 12.644531 5.488281 12.667969 5.289062 12.667969 C 5.183594 12.667969 5.082031 12.660156 4.980469 12.648438 C 4.886719 12.640625 4.78125 12.625 4.667969 12.605469 L 4.667969 10.0625 C 4.796875 10.039062 4.921875 10.019531 5.039062 10.011719 C 5.15625 10.003906 5.261719 10 5.363281 10 C 5.554688 10 5.730469 10.023438 5.886719 10.074219 C 6.046875 10.125 6.183594 10.207031 6.292969 10.316406 C 6.402344 10.421875 6.488281 10.558594 6.546875 10.726562 C 6.609375 10.894531 6.640625 11.09375 6.640625 11.328125 "/>
<path d="M 7.066406 12.632812 L 7.066406 10.03125 L 8.832031 10.03125 L 8.832031 10.457031 L 7.644531 10.457031 L 7.644531 11.042969 L 8.675781 11.042969 L 8.675781 11.472656 L 7.644531 11.472656 L 7.644531 12.203125 L 8.933594 12.203125 L 8.933594 12.632812 L 7.066406 12.632812 "/>
<path d="M 11.332031 11.847656 C 11.332031 12.003906 11.304688 12.136719 11.242188 12.242188 C 11.183594 12.34375 11.101562 12.429688 11 12.496094 C 10.898438 12.554688 10.777344 12.601562 10.636719 12.628906 C 10.496094 12.652344 10.347656 12.667969 10.1875 12.667969 C 10.058594 12.667969 9.925781 12.660156 9.789062 12.644531 C 9.648438 12.632812 9.511719 12.617188 9.378906 12.589844 L 9.378906 10.0625 C 9.488281 10.046875 9.609375 10.03125 9.742188 10.019531 C 9.871094 10.007812 10.003906 10 10.132812 10 C 10.351562 10 10.53125 10.019531 10.667969 10.0625 C 10.808594 10.101562 10.914062 10.15625 10.992188 10.222656 C 11.074219 10.289062 11.125 10.359375 11.15625 10.441406 C 11.183594 10.523438 11.195312 10.605469 11.195312 10.6875 C 11.195312 10.808594 11.164062 10.917969 11.09375 11.011719 C 11.027344 11.109375 10.9375 11.183594 10.824219 11.242188 C 11.023438 11.304688 11.15625 11.390625 11.226562 11.5 C 11.296875 11.609375 11.332031 11.726562 11.332031 11.847656 M 9.957031 11.492188 L 9.957031 12.199219 C 10 12.207031 10.042969 12.210938 10.089844 12.210938 C 10.140625 12.214844 10.1875 12.214844 10.234375 12.214844 C 10.300781 12.214844 10.367188 12.210938 10.429688 12.203125 C 10.492188 12.191406 10.546875 12.175781 10.59375 12.148438 C 10.644531 12.121094 10.683594 12.082031 10.714844 12.035156 C 10.746094 11.984375 10.761719 11.921875 10.761719 11.847656 C 10.761719 11.71875 10.71875 11.628906 10.625 11.578125 C 10.539062 11.519531 10.417969 11.492188 10.269531 11.492188 L 9.957031 11.492188 M 10.183594 11.0625 C 10.332031 11.0625 10.441406 11.035156 10.519531 10.980469 C 10.59375 10.921875 10.632812 10.839844 10.632812 10.742188 C 10.632812 10.679688 10.621094 10.628906 10.597656 10.59375 C 10.578125 10.554688 10.546875 10.523438 10.507812 10.503906 C 10.472656 10.480469 10.425781 10.46875 10.375 10.460938 C 10.328125 10.453125 10.273438 10.449219 10.222656 10.449219 C 10.175781 10.449219 10.132812 10.453125 10.085938 10.453125 C 10.039062 10.457031 9.996094 10.460938 9.957031 10.46875 L 9.957031 11.0625 L 10.183594 11.0625 "/>
</g>
</svg>
