<svg width="16" xmlns="http://www.w3.org/2000/svg" height="16" viewBox="0 0 16 16" xmlns:xlink="http://www.w3.org/1999/xlink">
<path style="fill:#c19553" d="M 2.667969 0.332031 C 2.324219 0.332031 2 0.65625 2 1 L 2 15 C 2 15.324219 2.34375 15.667969 2.667969 15.667969 L 13.332031 15.667969 C 13.65625 15.667969 14 15.324219 14 15 L 14 4.667969 L 9.667969 0.332031 Z "/>
<path style="fill:#000;fill-opacity:.196" d="M 9.667969 4 L 9.6875 4.019531 L 9.738281 4 Z M 10.332031 4.667969 L 14 8.332031 L 14 4.667969 Z "/>
<path style="fill:#fff;fill-opacity:.392" d="M 9.667969 0.332031 L 14 4.667969 L 10.332031 4.667969 C 10.007812 4.667969 9.667969 4.324219 9.667969 4 Z "/>
<path style="fill:#000;fill-opacity:.196" d="M 2 11.667969 L 2 15 C 2 15.324219 2.34375 15.667969 2.667969 15.667969 L 13.332031 15.667969 C 13.65625 15.667969 14 15.324219 14 15 L 14 11.667969 Z "/>
<g style="fill:#fff">
<path d="M 6 0.332031 L 6 1.667969 L 7.332031 1.667969 L 7.332031 0.332031 Z M 6 1.667969 L 4.667969 1.667969 L 4.667969 3 L 6 3 Z M 6 3 L 6 4.332031 L 7.332031 4.332031 L 7.332031 3 Z M 6 4.332031 L 4.667969 4.332031 L 4.667969 5.667969 L 6 5.667969 Z M 6 5.667969 L 6 7 L 7.332031 7 L 7.332031 5.667969 Z M 4.667969 7.667969 L 4.667969 10.332031 L 7.332031 10.332031 L 7.332031 7.667969 Z "/>
<path d="M 6.53125 12.730469 C 6.398438 12.917969 6.273438 13.09375 6.164062 13.257812 C 6.050781 13.421875 5.945312 13.578125 5.847656 13.730469 C 5.753906 13.878906 5.660156 14.023438 5.574219 14.160156 C 5.488281 14.296875 5.410156 14.433594 5.332031 14.566406 L 6.574219 14.566406 L 6.574219 15 L 4.667969 15 L 4.667969 14.699219 C 4.734375 14.574219 4.808594 14.449219 4.886719 14.3125 C 4.964844 14.179688 5.050781 14.03125 5.148438 13.878906 C 5.246094 13.726562 5.347656 13.558594 5.460938 13.382812 C 5.578125 13.203125 5.703125 13.007812 5.839844 12.796875 L 4.726562 12.796875 L 4.726562 12.363281 L 6.53125 12.363281 L 6.53125 12.730469 "/>
<path d="M 7.042969 15 L 7.042969 14.566406 L 7.671875 14.566406 L 7.671875 12.796875 L 7.042969 12.796875 L 7.042969 12.363281 L 8.878906 12.363281 L 8.878906 12.796875 L 8.253906 12.796875 L 8.253906 14.566406 L 8.878906 14.566406 L 8.878906 15 L 7.042969 15 "/>
<path d="M 10.175781 12.332031 C 10.542969 12.332031 10.828125 12.402344 11.03125 12.542969 C 11.230469 12.679688 11.332031 12.902344 11.332031 13.214844 C 11.332031 13.53125 11.230469 13.757812 11.023438 13.902344 C 10.820312 14.039062 10.535156 14.109375 10.160156 14.109375 L 9.953125 14.109375 L 9.953125 15 L 9.378906 15 L 9.378906 12.398438 C 9.433594 12.386719 9.496094 12.375 9.566406 12.367188 C 9.636719 12.359375 9.710938 12.351562 9.78125 12.351562 C 9.851562 12.34375 9.921875 12.339844 9.992188 12.335938 C 10.058594 12.335938 10.121094 12.332031 10.175781 12.332031 M 10.238281 12.789062 C 10.203125 12.789062 10.15625 12.789062 10.09375 12.792969 C 10.035156 12.792969 9.988281 12.796875 9.953125 12.800781 L 9.953125 13.652344 L 10.1875 13.652344 C 10.371094 13.652344 10.511719 13.621094 10.605469 13.554688 C 10.699219 13.488281 10.746094 13.371094 10.746094 13.210938 C 10.746094 13.058594 10.699219 12.949219 10.605469 12.886719 C 10.511719 12.820312 10.390625 12.789062 10.238281 12.789062 "/>
</g>
</svg>
