<svg width="24" xmlns="http://www.w3.org/2000/svg" height="24" viewBox="0 0 24 24" xmlns:xlink="http://www.w3.org/1999/xlink">
<g style="stroke:#a57953">
<path style="fill:#a57953" d="M 3.1436056,19.497225 C 2.7925478,19.463516 2.5000003,19.133907 2.5000003,18.781824 l 0,-13.5663935 c 0,-0.3745554 0.3393551,-0.7154005 0.7138162,-0.7154005 l 17.5762685,0 c 0.37056,0 0.709915,0.3408451 0.709915,0.7154005 l 0,12.3078875 c 0,0.374556 -0.339355,0.715401 -0.709915,0.715401 l -6.86512,0 0,0.543105 c 0,0.374556 -0.339356,0.715401 -0.709916,0.715401 l -10.0012326,0 c -0.023403,0.0037 -0.046808,0.0037 -0.070211,0 z"/>
<path style="fill:#e9b080" d="M 1.2784074,6.5 C 0.85529089,6.5340553 0.49604124,6.8632694 0.50003316,7.2189708 l 0,13.5658432 c 0,0.374622 0.41114103,0.715186 0.86219944,0.715186 l 21.2755684,0 C 23.08886,21.5 23.5,21.159436 23.5,20.784814 l 0,-12.3095364 c 0,-0.3746218 -0.41114,-0.7151869 -0.862199,-0.7151869 l -8.306651,0 0,-0.5411199 C 14.33115,6.8405651 13.920008,6.5 13.46895,6.5 l -12.1067174,0 c -0.027942,0 -0.055884,0 -0.083826,0 z"/>
</g>
<path style="fill:#a57953" d="M 11.371094 10 C 11.148438 10 10.960938 10.175781 10.960938 10.398438 L 10.960938 10.917969 C 10.824219 10.964844 10.6875 11.019531 10.554688 11.082031 L 10.195312 10.722656 C 10.035156 10.566406 9.785156 10.566406 9.628906 10.722656 L 8.722656 11.621094 C 8.5625 11.777344 8.5625 12.027344 8.722656 12.183594 L 9.082031 12.546875 C 9.015625 12.679688 8.964844 12.820312 8.914062 12.964844 L 8.40625 12.964844 C 8.183594 12.964844 8 13.140625 8 13.359375 L 8 14.640625 C 8 14.859375 8.183594 15.035156 8.40625 15.035156 L 8.914062 15.035156 C 8.964844 15.179688 9.015625 15.320312 9.082031 15.453125 L 8.722656 15.816406 C 8.5625 15.972656 8.5625 16.222656 8.722656 16.378906 L 9.628906 17.277344 C 9.785156 17.433594 10.035156 17.433594 10.195312 17.277344 L 10.554688 16.917969 C 10.6875 16.980469 10.824219 17.035156 10.960938 17.082031 L 10.960938 17.601562 C 10.960938 17.824219 11.148438 18 11.371094 18 L 12.640625 18 C 12.859375 18 13.039062 17.824219 13.039062 17.601562 L 13.039062 17.082031 C 13.179688 17.035156 13.320312 16.984375 13.453125 16.917969 L 13.816406 17.277344 C 13.972656 17.433594 14.222656 17.433594 14.378906 17.277344 L 15.289062 16.378906 C 15.445312 16.222656 15.445312 15.972656 15.289062 15.816406 L 14.917969 15.445312 C 14.984375 15.3125 15.039062 15.175781 15.085938 15.035156 L 15.601562 15.035156 C 15.824219 15.035156 16 14.859375 16 14.640625 L 16 13.359375 C 16 13.140625 15.824219 12.964844 15.601562 12.964844 L 15.085938 12.964844 C 15.039062 12.824219 14.984375 12.6875 14.917969 12.554688 L 15.289062 12.183594 C 15.445312 12.027344 15.445312 11.777344 15.289062 11.621094 L 14.378906 10.722656 C 14.222656 10.566406 13.972656 10.566406 13.816406 10.722656 L 13.453125 11.082031 C 13.320312 11.015625 13.179688 10.964844 13.039062 10.917969 L 13.039062 10.398438 C 13.039062 10.175781 12.859375 10 12.640625 10 Z M 12 12.964844 C 12.574219 12.964844 13.039062 13.425781 13.039062 14 C 13.039062 14.574219 12.574219 15.035156 12 15.035156 C 11.425781 15.035156 10.960938 14.574219 10.960938 14 C 10.960938 13.425781 11.425781 12.964844 12 12.964844 Z "/>
</svg>
