<svg width="24" xmlns="http://www.w3.org/2000/svg" height="24" viewBox="0 0 24 24" xmlns:xlink="http://www.w3.org/1999/xlink">
<g style="stroke:#a57953">
<path style="fill:#a57953" d="M 3.1436056,19.497225 C 2.7925478,19.463516 2.5000003,19.133907 2.5000003,18.781824 l 0,-13.5663935 c 0,-0.3745554 0.3393551,-0.7154005 0.7138162,-0.7154005 l 17.5762685,0 c 0.37056,0 0.709915,0.3408451 0.709915,0.7154005 l 0,12.3078875 c 0,0.374556 -0.339355,0.715401 -0.709915,0.715401 l -6.86512,0 0,0.543105 c 0,0.374556 -0.339356,0.715401 -0.709916,0.715401 l -10.0012326,0 c -0.023403,0.0037 -0.046808,0.0037 -0.070211,0 z"/>
<path style="fill:#e9b080" d="M 1.2784074,6.5 C 0.85529089,6.5340553 0.49604124,6.8632694 0.50003316,7.2189708 l 0,13.5658432 c 0,0.374622 0.41114103,0.715186 0.86219944,0.715186 l 21.2755684,0 C 23.08886,21.5 23.5,21.159436 23.5,20.784814 l 0,-12.3095364 c 0,-0.3746218 -0.41114,-0.7151869 -0.862199,-0.7151869 l -8.306651,0 0,-0.5411199 C 14.33115,6.8405651 13.920008,6.5 13.46895,6.5 l -12.1067174,0 c -0.027942,0 -0.055884,0 -0.083826,0 z"/>
</g>
<path style="fill:#a57953" d="M 15.191406 10.808594 C 14.105469 9.726562 12.355469 9.730469 11.273438 10.816406 C 10.351562 11.738281 10.214844 13.140625 10.855469 14.203125 L 8.183594 16.875 C 7.933594 17.125 7.933594 17.523438 8.183594 17.773438 L 8.226562 17.8125 C 8.472656 18.0625 8.871094 18.0625 9.121094 17.8125 L 11.792969 15.140625 C 12.863281 15.785156 14.269531 15.652344 15.191406 14.734375 C 16.273438 13.648438 16.273438 11.890625 15.191406 10.808594 Z M 14.582031 11.417969 C 15.324219 12.164062 15.324219 13.378906 14.582031 14.121094 C 13.84375 14.859375 12.648438 14.859375 11.902344 14.136719 L 11.882812 14.117188 C 11.875 14.109375 11.867188 14.101562 11.863281 14.09375 C 11.136719 13.347656 11.144531 12.164062 11.882812 11.425781 C 12.625 10.679688 13.835938 10.671875 14.582031 11.417969 Z "/>
</svg>
