<svg xmlns="http://www.w3.org/2000/svg" viewBox="0 0 64 64" xmlns:xlink="http://www.w3.org/1999/xlink">
<defs>
<linearGradient gradientTransform="matrix(1.2534 0 0 1.2534 1.9192 3.9192)" id="linearGradient2919" y1="44.98" y2="3.082" gradientUnits="userSpaceOnUse" x2="0">
<stop offset="0" style="stop-color:#1f4b6a"/>
<stop offset="1" style="stop-color:#4083c2"/>
</linearGradient>
<linearGradient gradientTransform="matrix(2.8014 0 0 2.8014 -142.25 43.835)" id="linearGradient2914" y1="-12.489" y2="5.468" gradientUnits="userSpaceOnUse" x2="0">
<stop offset="0" style="stop-color:#fff"/>
<stop offset="1" style="stop-color:#fff;stop-opacity:0"/>
</linearGradient>
<radialGradient cx="62.625" cy="4.625" gradientTransform="matrix(2.9176 0 0 .98823 -150.72 48.929)" id="radialGradient2983" r="10.625" gradientUnits="userSpaceOnUse">
<stop offset="0"/>
<stop offset="1" style="stop-opacity:0"/>
</radialGradient>
<radialGradient cx="23.896" cy="3.99" gradientTransform="matrix(0 2.9914 -3.9485 0 47.755 -64.903)" id="radialGradient2917" r="20.397" gradientUnits="userSpaceOnUse">
<stop offset="0" style="stop-color:#8badea"/>
<stop offset=".262" style="stop-color:#6396cd"/>
<stop offset=".661" style="stop-color:#3b7caf"/>
<stop offset="1" style="stop-color:#194c70"/>
</radialGradient>
</defs>
<path style="opacity:.3;fill:url(#radialGradient2983)" d="m63 53.5c0 5.799-13.879 10.5-31 10.5s-31-4.701-31-10.5 13.879-10.5 31-10.5 31 4.701 31 10.5z"/>
<path style="fill:#555555url(#radialGradient2917);stroke:url(#linearGradient2919);stroke-linejoin:round;stroke-linecap:round" d="m32 8.5018c-14.069 0-25.498 11.429-25.498 25.498s11.429 25.498 25.498 25.498 25.498-11.429 25.498-25.498-11.429-25.498-25.498-25.498z"/>
<path style="opacity:.4;fill:#555555none;stroke:url(#linearGradient2914)" d="m56.5 33.999c0 13.531-10.97 24.501-24.5 24.501-13.531 0-24.5-10.97-24.5-24.501s10.969-24.499 24.5-24.499c13.53 0 24.5 10.968 24.5 24.499z"/>
<g style="fill:#555555#bada55">
<path d="m28.965 18.309c0.71921 7.2269 1.543 14.404 2.1553 21.659h1.9538c0.50783-6.9673 1.3269-13.892 1.9178-20.851 0.3012-1.6477-0.5212-3.604-2.2126-4.0044-1.6714-0.50268-3.5387 0.74211-3.761 2.5202-0.03685 0.22321-0.0533 0.44975-0.0533 0.67607h-0.000001zm-0.21316 29.382c-0.07605 2.1512 2.2249 3.8375 4.1895 3.1555 1.9029-0.49956 2.9051-2.9598 1.9299-4.7086-0.87298-1.8078-3.433-2.4034-4.9056-1.0198-0.74439 0.62911-1.2378 1.5683-1.2138 2.573l-0.000001-0.000002z"/>
<path d="m28.965 19.309c0.71921 7.2269 1.543 14.404 2.1553 21.659h1.9538c0.50783-6.9673 1.3269-13.892 1.9178-20.851 0.3012-1.6477-0.5212-3.604-2.2126-4.0044-1.6714-0.50268-3.5387 0.74211-3.761 2.5202-0.03685 0.22321-0.0533 0.44975-0.0533 0.67607h-0.000001zm-0.21316 29.382c-0.07605 2.1512 2.2249 3.8375 4.1895 3.1555 1.9029-0.49956 2.9051-2.9598 1.9299-4.7086-0.87298-1.8078-3.433-2.4034-4.9056-1.0198-0.74439 0.62911-1.2378 1.5683-1.2138 2.573l-0.000001-0.000002z"/>
</g>
</svg>
