<?xml version="1.0" encoding="UTF-8" standalone="yes"?>
<svg xmlns="http://www.w3.org/2000/svg" xmlns:xlink="http://www.w3.org/1999/xlink" width="96px" height="96px" viewBox="0 0 72 72" version="1.1">
  <g id="surface1">
    <path style=" stroke:none;fill-rule:nonzero;fill:rgb(0%,67.058824%,92.54902%);fill-opacity:1;" d="M 41.113281 19.269531 C 37.453125 20.632812 35.144531 24.140625 35.40625 27.980469 L 35.492188 29.464844 L 34.03125 29.28125 C 28.707031 28.585938 24.050781 26.226562 20.105469 22.265625 L 18.171875 20.296875 L 17.671875 21.75 C 16.621094 24.984375 17.292969 28.40625 19.488281 30.707031 C 20.65625 31.972656 20.394531 32.15625 18.375 31.398438 C 17.671875 31.15625 17.058594 30.972656 17 31.066406 C 16.796875 31.28125 17.496094 34.03125 18.054688 35.121094 C 18.8125 36.636719 20.367188 38.113281 22.0625 38.992188 L 23.496094 39.683594 L 21.800781 39.714844 C 20.160156 39.714844 20.105469 39.746094 20.277344 40.382812 C 20.863281 42.351562 23.175781 44.4375 25.75 45.347656 L 27.5625 45.980469 L 25.984375 46.949219 C 23.644531 48.339844 20.894531 49.125 18.152344 49.1875 C 16.835938 49.214844 15.75 49.339844 15.75 49.429688 C 15.75 49.730469 19.320312 51.425781 21.398438 52.089844 C 27.628906 54.058594 35.03125 53.210938 40.59375 49.851562 C 44.542969 47.460938 48.496094 42.714844 50.339844 38.113281 C 51.335938 35.664062 52.328125 31.1875 52.328125 29.039062 C 52.328125 27.648438 52.414062 27.464844 54.054688 25.804688 C 55.019531 24.835938 55.929688 23.773438 56.101562 23.472656 C 56.398438 22.898438 56.367188 22.898438 54.875 23.414062 C 52.386719 24.320312 52.035156 24.203125 53.265625 22.839844 C 54.175781 21.871094 55.253906 20.117188 55.253906 19.601562 C 55.253906 19.511719 54.816406 19.660156 54.320312 19.933594 C 53.789062 20.234375 52.621094 20.691406 51.746094 20.960938 L 50.164062 21.476562 L 48.726562 20.480469 C 47.941406 19.933594 46.828125 19.328125 46.242188 19.148438 C 44.75 18.726562 42.46875 18.785156 41.121094 19.269531 Z M 41.113281 19.269531 "/>
  </g>
</svg>