<?xml version="1.0" encoding="UTF-8" standalone="yes"?>
<svg xmlns="http://www.w3.org/2000/svg" xmlns:xlink="http://www.w3.org/1999/xlink" width="64px" height="64px" viewBox="0 0 48 48" version="1.1">
  <g id="surface1">
    <path style=" stroke:none;fill-rule:nonzero;fill:rgb(47.45098%,9.803922%,9.411765%);fill-opacity:1;" d="M 14.183594 37.5 C 15.835938 28.910156 11.382812 26.046875 7.203125 29.300781 L 5.308594 28.125 L 8.660156 24.328125 L 8.734375 22.519531 L 11.941406 20.472656 L 11.136719 18.421875 C 12.511719 19.023438 13.785156 18.933594 14.28125 20.351562 C 17.246094 20.710938 20.089844 23.789062 19.957031 25.835938 C 21.808594 20.472656 24.398438 17.609375 16.671875 13.75 L 16.429688 11.703125 L 21.265625 12.9375 L 22.796875 12.125 L 25.085938 13.539062 L 26.734375 12.304688 C 26.265625 13.480469 27.316406 13.808594 26.445312 14.804688 C 28.902344 16.851562 28.132812 23.277344 28.398438 25.929688 C 29.085938 23.847656 30.691406 21.527344 33.480469 20.890625 C 33.699219 19.625 35.480469 19.628906 36.5 18.722656 L 36.167969 20.742188 L 38.988281 22.667969 L 39.023438 24.507812 L 42.691406 28.578125 L 40.121094 29.8125 C 34.027344 25.109375 32.261719 31.296875 34.097656 37.5 Z M 14.183594 37.5 "/>
  </g>
</svg>