<?xml version="1.0" encoding="UTF-8" standalone="yes"?>
<svg xmlns="http://www.w3.org/2000/svg" xmlns:xlink="http://www.w3.org/1999/xlink" width="64px" height="64px" viewBox="0 0 48 48" version="1.1">
  <g id="surface1">
    <path style=" stroke:none;fill-rule:nonzero;fill:rgb(80%,0%,0%);fill-opacity:1;" d="M 20.246094 23.589844 C 20.246094 23.042969 20.144531 22.445312 19.824219 21.988281 C 19.1875 21.066406 17.828125 20.777344 16.875 21.355469 C 16.394531 21.648438 16.125 22.160156 15.972656 22.683594 C 15.675781 23.726562 15.8125 24.917969 16.023438 25.964844 C 16.089844 26.300781 16.15625 26.636719 16.25 26.964844 C 16.285156 27.082031 16.300781 27.253906 16.378906 27.351562 C 16.511719 27.527344 16.84375 27.574219 17.042969 27.542969 C 17.648438 27.441406 17.5 26.445312 17.476562 26.019531 C 17.429688 25.03125 17.136719 24.066406 17.421875 23.082031 C 17.539062 22.664062 17.773438 22.195312 18.195312 22.011719 C 18.574219 21.847656 18.957031 22.050781 19.109375 22.421875 C 19.351562 23.023438 19.292969 23.71875 19.445312 24.34375 C 19.496094 24.554688 19.550781 24.765625 19.648438 24.964844 C 19.671875 25.023438 19.710938 25.140625 19.792969 25.136719 C 19.988281 25.117188 20.265625 24.789062 20.414062 24.667969 C 20.886719 24.277344 21.375 23.855469 21.921875 23.566406 C 22.179688 23.425781 22.601562 23.210938 22.863281 23.441406 C 22.933594 23.5 22.984375 23.570312 23.035156 23.640625 C 23.34375 24.125 23.035156 24.503906 22.835938 24.960938 C 22.574219 25.554688 22.308594 26.148438 21.933594 26.675781 C 21.609375 27.132812 21.167969 27.535156 20.910156 28.035156 C 20.742188 28.355469 20.648438 28.707031 20.71875 29.070312 C 20.777344 29.363281 21 29.542969 21.300781 29.472656 C 21.523438 29.421875 21.675781 29.230469 21.804688 29.050781 C 22.03125 28.738281 22.242188 28.410156 22.46875 28.089844 C 22.90625 27.476562 23.421875 26.902344 23.792969 26.242188 C 24.234375 25.449219 24.449219 24.546875 24.449219 23.640625 C 24.449219 22.902344 24.175781 21.769531 23.316406 21.617188 C 23.15625 21.585938 22.96875 21.601562 22.808594 21.628906 C 22.609375 21.664062 22.40625 21.730469 22.222656 21.820312 C 21.734375 22.054688 21.308594 22.410156 20.945312 22.8125 C 20.71875 23.0625 20.515625 23.378906 20.242188 23.585938 "/>
    <path style=" stroke:none;fill-rule:nonzero;fill:rgb(80%,0%,0%);fill-opacity:1;" d="M 19.4375 5.273438 C 18.757812 5.363281 18.066406 5.355469 17.382812 5.460938 C 16.074219 5.664062 14.820312 6.070312 13.597656 6.558594 C 13.152344 6.738281 12.710938 6.9375 12.277344 7.148438 C 12.117188 7.226562 11.871094 7.289062 11.742188 7.414062 C 11.675781 7.476562 11.683594 7.628906 11.671875 7.71875 C 11.652344 7.964844 11.621094 8.207031 11.597656 8.453125 C 11.503906 9.398438 11.445312 10.375 11.578125 11.316406 C 11.625 11.625 11.71875 12.175781 12.09375 12.234375 C 12.667969 12.328125 13.117188 11.617188 13.398438 11.222656 C 14.058594 10.308594 14.8125 9.457031 15.898438 9.046875 C 17.171875 8.5625 18.632812 8.449219 19.984375 8.355469 C 23.773438 8.097656 27.910156 8.789062 30.703125 11.582031 C 31.101562 11.980469 31.472656 12.402344 31.796875 12.863281 C 33.042969 14.675781 33.703125 16.734375 34.023438 18.894531 C 34.171875 19.910156 34.277344 20.9375 34.042969 21.949219 C 33.640625 23.703125 32.589844 25.230469 31.382812 26.53125 C 30.550781 27.417969 29.621094 28.222656 28.648438 28.953125 C 28.109375 29.363281 27.503906 29.707031 26.996094 30.15625 C 26.40625 30.667969 25.917969 31.3125 25.546875 31.996094 C 24.550781 33.84375 24.28125 36.0625 24.574219 38.121094 C 24.636719 38.546875 24.691406 38.96875 24.785156 39.386719 C 24.816406 39.511719 24.820312 39.722656 24.898438 39.828125 C 25.050781 40.015625 25.460938 40.121094 25.691406 40.132812 C 25.933594 40.144531 26.09375 39.960938 26.152344 39.742188 C 26.253906 39.375 26.191406 38.964844 26.132812 38.59375 C 26.015625 37.832031 25.90625 37.066406 25.9375 36.292969 C 26 34.867188 26.554688 33.539062 27.539062 32.503906 C 28.539062 31.453125 29.902344 30.847656 31.042969 29.96875 C 33.34375 28.191406 35.40625 25.796875 36.199219 22.949219 C 36.476562 21.929688 36.570312 20.851562 36.441406 19.800781 C 36.28125 18.472656 35.796875 17.148438 35.339844 15.898438 C 33.945312 12.089844 31.558594 8.46875 27.761719 6.726562 C 26.261719 6.035156 24.683594 5.714844 23.054688 5.492188 C 22.292969 5.386719 21.527344 5.320312 20.757812 5.285156 C 20.328125 5.269531 19.863281 5.21875 19.4375 5.277344 "/>
    <path style=" stroke:none;fill-rule:nonzero;fill:rgb(80%,0%,0%);fill-opacity:1;" d="M 13.503906 29.929688 C 12.761719 30.039062 12.546875 30.628906 12.683594 31.300781 C 12.859375 32.15625 13.535156 32.808594 14.199219 33.324219 C 15.90625 34.640625 18.113281 35.351562 20.261719 35.257812 C 21.101562 35.222656 22.019531 35.082031 22.789062 34.726562 C 23.203125 34.535156 23.636719 33.847656 23.070312 33.550781 C 22.996094 33.511719 22.894531 33.488281 22.808594 33.472656 C 22.5625 33.433594 22.289062 33.539062 22.054688 33.605469 C 21.644531 33.722656 21.234375 33.84375 20.808594 33.910156 C 19.546875 34.113281 18.183594 33.824219 17.136719 33.078125 C 16.292969 32.472656 15.605469 31.671875 14.960938 30.867188 C 14.566406 30.371094 14.207031 29.828125 13.5 29.929688 "/>
    <path style=" stroke:none;fill-rule:nonzero;fill:rgb(80%,0%,0%);fill-opacity:1;" d="M 12.542969 34.121094 C 12.355469 34.144531 12.136719 34.136719 11.976562 34.253906 C 11.640625 34.503906 12.011719 35 12.1875 35.222656 C 12.699219 35.875 13.375 36.417969 14.050781 36.894531 C 15.925781 38.222656 18.054688 38.988281 20.339844 39.144531 C 20.996094 39.191406 21.667969 39.144531 22.316406 39.035156 C 22.554688 38.996094 22.851562 38.980469 23.074219 38.875 C 23.695312 38.585938 23.515625 37.410156 22.960938 37.148438 C 22.71875 37.035156 22.328125 37.183594 22.074219 37.21875 C 21.472656 37.304688 20.867188 37.3125 20.261719 37.296875 C 18.679688 37.257812 16.992188 36.769531 15.609375 36 C 15.070312 35.695312 14.574219 35.328125 14.105469 34.917969 C 13.824219 34.667969 13.53125 34.257812 13.164062 34.132812 C 12.992188 34.074219 12.71875 34.097656 12.542969 34.121094 "/>
    <path style=" stroke:none;fill-rule:nonzero;fill:rgb(80%,0%,0%);fill-opacity:1;" d="M 12.917969 37.640625 C 12.652344 37.671875 12.449219 37.8125 12.273438 38.011719 C 12.152344 38.148438 12.035156 38.269531 11.964844 38.445312 C 11.582031 39.394531 12.605469 40.292969 13.316406 40.742188 C 14.097656 41.242188 14.960938 41.613281 15.835938 41.925781 C 17.8125 42.628906 20.132812 43.078125 22.183594 42.449219 C 22.792969 42.261719 23.398438 41.921875 23.839844 41.460938 C 24.089844 41.199219 24.261719 40.804688 23.804688 40.636719 C 23.53125 40.539062 23.203125 40.789062 22.957031 40.890625 C 22.375 41.125 21.769531 41.300781 21.144531 41.378906 C 20.328125 41.476562 19.585938 41.296875 18.792969 41.097656 C 18.117188 40.929688 17.429688 40.761719 16.773438 40.515625 C 16.214844 40.308594 15.664062 40.058594 15.171875 39.714844 C 15.027344 39.609375 14.851562 39.519531 14.734375 39.382812 C 14.339844 38.945312 14.046875 38.429688 13.628906 38.007812 C 13.445312 37.828125 13.1875 37.609375 12.910156 37.640625 "/>
  </g>
</svg>