<svg width="256" xmlns="http://www.w3.org/2000/svg" height="256" viewBox="0 0 256 256" xmlns:xlink="http://www.w3.org/1999/xlink">
<g style="stroke:#9c7a5f">
<path style="fill:#9c795f" d="M 5.772949 37.763294 C 5.072754 37.692249 4.480957 37.005237 4.483887 36.269153 L 4.483887 7.971302 C 4.484619 7.189075 5.164307 6.477161 5.911377 6.476429 L 41.115234 6.476429 C 41.862305 6.477161 42.542725 7.189075 42.542725 7.971302 L 42.542725 33.642688 C 42.542725 34.424915 41.862305 35.137561 41.115234 35.137561 L 27.368408 35.137561 L 27.368408 36.269153 C 27.368408 37.05138 26.688721 37.763294 25.94165 37.763294 L 5.911377 37.763294 C 5.865234 37.766224 5.819092 37.766224 5.772949 37.763294 Z " transform="matrix(5.33333 0 0 5.33333 0 .15045)"/>
<path style="fill:#dfb188" d="M 3.013184 10.49596 C 2.185547 10.567005 1.485352 11.246692 1.489746 11.975452 L 1.489746 39.986927 C 1.489746 40.761829 2.293945 41.466419 3.177979 41.467151 L 44.822021 41.467151 C 45.706055 41.466419 46.510254 40.761829 46.510986 39.986927 L 46.510986 14.57555 C 46.510254 13.800647 45.706055 13.096058 44.822021 13.096058 L 28.560791 13.096058 L 28.560791 11.975452 C 28.560791 11.201282 27.756592 10.49596 26.872559 10.49596 L 3.177979 10.49596 C 3.123047 10.493763 3.068115 10.493763 3.013184 10.49596 Z " transform="matrix(5.33333 0 0 5.33333 0 .15045)"/>
</g>
<g style="fill:#9c795f">
<path d="M 162.070312 95.675781 C 158.164062 95.742188 154.324219 98.296875 153.707031 103.066406 C 152.722656 110.695312 160.105469 107.835938 166.007812 107.835938 C 171.914062 107.835938 173.878906 120.234375 172.402344 126.910156 C 170.929688 133.585938 155.234375 149.355469 119.757812 133.585938 C 90.550781 120.601562 75.96875 137.890625 75.230469 138.234375 C 77.996094 164.027344 100.53125 192 127.878906 192 C 157.089844 192 180.769531 161.179688 180.769531 132.871094 C 180.769531 129.617188 180.382812 126.417969 179.785156 123.332031 C 179.242188 121.773438 178.707031 120.21875 178.308594 118.804688 C 177.59375 116.261719 176.785156 114.121094 176.09375 112.128906 C 176.0625 112.0625 176.125 111.957031 176.09375 111.886719 C 173.296875 105.867188 169.378906 100.425781 164.53125 95.914062 C 164.511719 95.875 164.429688 95.949219 164.410156 95.914062 C 163.652344 95.726562 162.851562 95.660156 162.070312 95.671875 Z "/>
<path d="M 153.953125 113.796875 C 153.953125 115.375 152.632812 116.65625 151 116.65625 C 149.371094 116.65625 148.050781 115.375 148.050781 113.796875 C 148.050781 112.214844 149.371094 110.933594 151 110.933594 C 152.632812 110.933594 153.953125 112.214844 153.953125 113.796875 Z "/>
<path d="M 148.050781 103.425781 C 148.050781 104.542969 147.113281 105.449219 145.957031 105.449219 C 144.804688 105.449219 143.867188 104.542969 143.867188 103.425781 C 143.867188 102.304688 144.804688 101.398438 145.957031 101.398438 C 147.113281 101.398438 148.050781 102.304688 148.050781 103.425781 Z "/>
</g>
</svg>
