<svg width="256" xmlns="http://www.w3.org/2000/svg" height="256" viewBox="0 0 256 256" xmlns:xlink="http://www.w3.org/1999/xlink">
<g style="stroke:#9c7a5f">
<path style="fill:#9c795f" d="M 5.772949 37.763294 C 5.072754 37.692249 4.480957 37.005237 4.483887 36.269153 L 4.483887 7.971302 C 4.484619 7.189075 5.164307 6.477161 5.911377 6.476429 L 41.115234 6.476429 C 41.862305 6.477161 42.542725 7.189075 42.542725 7.971302 L 42.542725 33.642688 C 42.542725 34.424915 41.862305 35.137561 41.115234 35.137561 L 27.368408 35.137561 L 27.368408 36.269153 C 27.368408 37.05138 26.688721 37.763294 25.94165 37.763294 L 5.911377 37.763294 C 5.865234 37.766224 5.819092 37.766224 5.772949 37.763294 Z " transform="matrix(5.33333 0 0 5.33333 0 .15045)"/>
<path style="fill:#dfb188" d="M 3.013184 10.49596 C 2.185547 10.567005 1.485352 11.246692 1.489746 11.975452 L 1.489746 39.986927 C 1.489746 40.761829 2.293945 41.466419 3.177979 41.467151 L 44.822021 41.467151 C 45.706055 41.466419 46.510254 40.761829 46.510986 39.986927 L 46.510986 14.57555 C 46.510254 13.800647 45.706055 13.096058 44.822021 13.096058 L 28.560791 13.096058 L 28.560791 11.975452 C 28.560791 11.201282 27.756592 10.49596 26.872559 10.49596 L 3.177979 10.49596 C 3.123047 10.493763 3.068115 10.493763 3.013184 10.49596 Z " transform="matrix(5.33333 0 0 5.33333 0 .15045)"/>
</g>
<path style="fill:#9c795f" d="M 83.351562 137.109375 C 78.554688 137.109375 74.667969 140.945312 74.667969 145.671875 C 74.667969 150.402344 78.554688 154.234375 83.351562 154.234375 C 88.144531 154.234375 92.035156 150.402344 92.035156 145.671875 C 92.035156 140.941406 88.148438 137.109375 83.351562 137.109375 Z M 145.355469 176.027344 C 141.203125 178.390625 139.78125 183.625 142.175781 187.71875 C 144.574219 191.8125 149.882812 193.214844 154.039062 190.851562 C 158.191406 188.488281 159.613281 183.253906 157.214844 179.160156 C 154.816406 175.066406 149.507812 173.660156 145.355469 176.027344 Z M 102.214844 145.671875 C 102.214844 137.210938 106.480469 129.734375 113 125.210938 L 106.652344 114.726562 C 99.050781 119.730469 93.398438 127.382812 91.050781 136.347656 C 93.792969 138.554688 95.546875 141.910156 95.546875 145.671875 C 95.546875 149.433594 93.792969 152.792969 91.050781 154.996094 C 93.398438 163.960938 99.050781 171.613281 106.652344 176.621094 L 113 166.132812 C 106.480469 161.609375 102.214844 154.136719 102.214844 145.671875 Z M 127.582031 120.660156 C 140.832031 120.660156 151.703125 130.679688 152.84375 143.453125 L 165.21875 143.277344 C 164.609375 133.84375 160.433594 125.375 154.011719 119.148438 C 150.710938 120.378906 146.894531 120.191406 143.597656 118.316406 C 140.296875 116.4375 138.226562 113.269531 137.660156 109.828125 C 134.449219 108.953125 131.074219 108.476562 127.582031 108.476562 C 121.574219 108.476562 115.902344 109.867188 110.863281 112.328125 L 116.894531 122.988281 C 120.144531 121.5 123.761719 120.660156 127.582031 120.660156 Z M 127.582031 170.683594 C 123.761719 170.683594 120.144531 169.847656 116.894531 168.355469 L 110.859375 179.019531 C 115.902344 181.476562 121.574219 182.867188 127.582031 182.867188 C 131.074219 182.867188 134.449219 182.390625 137.660156 181.515625 C 138.226562 178.078125 140.296875 174.90625 143.597656 173.027344 C 146.894531 171.152344 150.710938 170.964844 154.011719 172.195312 C 160.433594 165.96875 164.613281 157.5 165.21875 148.070312 L 152.84375 147.890625 C 151.703125 160.667969 140.832031 170.683594 127.582031 170.683594 Z M 145.355469 115.316406 C 149.507812 117.683594 154.816406 116.28125 157.214844 112.1875 C 159.613281 108.089844 158.191406 102.855469 154.035156 100.492188 C 149.882812 98.128906 144.574219 99.53125 142.175781 103.625 C 139.777344 107.71875 141.203125 112.953125 145.355469 115.316406 Z "/>
</svg>
