<svg width="256" xmlns="http://www.w3.org/2000/svg" height="256" viewBox="0 0 256 256" xmlns:xlink="http://www.w3.org/1999/xlink">
<g style="stroke:#a77b55">
<path style="fill:#a77b55" d="M 5.772949 37.763294 C 5.072754 37.692249 4.480957 37.005237 4.483887 36.269153 L 4.483887 7.971302 C 4.484619 7.189075 5.164307 6.477161 5.911377 6.476429 L 41.115234 6.476429 C 41.862305 6.477161 42.542725 7.189075 42.542725 7.971302 L 42.542725 33.642688 C 42.542725 34.424915 41.862305 35.137561 41.115234 35.137561 L 27.368408 35.137561 L 27.368408 36.269153 C 27.368408 37.05138 26.688721 37.763294 25.94165 37.763294 L 5.911377 37.763294 C 5.865234 37.766224 5.819092 37.766224 5.772949 37.763294 Z " transform="matrix(5.33333 0 0 5.33333 0 .15045)"/>
<path style="fill:#e9b080" d="M 3.013184 10.49596 C 2.185547 10.567005 1.485352 11.246692 1.489746 11.975452 L 1.489746 39.986927 C 1.489746 40.761829 2.293945 41.466419 3.177979 41.467151 L 44.822021 41.467151 C 45.706055 41.466419 46.510254 40.761829 46.510986 39.986927 L 46.510986 14.57555 C 46.510254 13.800647 45.706055 13.096058 44.822021 13.096058 L 28.560791 13.096058 L 28.560791 11.975452 C 28.560791 11.201282 27.756592 10.49596 26.872559 10.49596 L 3.177979 10.49596 C 3.123047 10.493763 3.068115 10.493763 3.013184 10.49596 Z " transform="matrix(5.33333 0 0 5.33333 0 .15045)"/>
</g>
<path style="fill:#a77b55" d="M 128.398438 191.96875 C 130.324219 191.832031 132.1875 190.992188 133.5625 189.644531 L 157.496094 164.269531 C 159.015625 162.800781 159.933594 160.730469 159.992188 158.621094 C 160.136719 155.316406 158.050781 152.027344 154.992188 150.734375 C 151.9375 149.445312 148.117188 150.242188 145.832031 152.640625 L 128.019531 170.726562 L 109.332031 151.832031 C 106.195312 149.273438 101.113281 149.542969 98.269531 152.421875 C 95.425781 155.296875 95.226562 160.367188 97.835938 163.457031 L 121.902344 189.644531 C 123.59375 191.304688 126.035156 192.179688 128.398438 191.96875 Z M 144.722656 144.28125 C 147.433594 143.964844 149.667969 141.351562 149.554688 138.636719 L 149.554688 125.015625 C 149.550781 122.148438 146.933594 119.542969 144.058594 119.542969 C 141.179688 119.542969 138.5625 122.148438 138.5625 125.015625 L 138.5625 138.636719 C 138.453125 141.621094 141.230469 144.386719 144.222656 144.28125 C 144.390625 144.289062 144.558594 144.289062 144.722656 144.28125 Z M 128.503906 145.363281 C 131.273438 145.125 133.609375 142.484375 133.5 139.714844 L 133.5 112.148438 C 133.5 109.277344 130.882812 106.667969 128.003906 106.667969 C 125.125 106.667969 122.507812 109.277344 122.507812 112.148438 L 122.507812 139.714844 C 122.402344 142.644531 125.066406 145.378906 128.003906 145.363281 C 128.171875 145.371094 128.335938 145.371094 128.503906 145.363281 Z M 112.449219 144.28125 C 115.160156 143.964844 117.394531 141.351562 117.28125 138.636719 L 117.28125 119.203125 C 117.738281 116.113281 115 112.953125 111.867188 112.953125 C 108.734375 112.953125 105.996094 116.113281 106.453125 119.203125 L 106.453125 138.636719 C 106.328125 141.738281 109.351562 144.582031 112.449219 144.28125 Z "/>
</svg>
