<svg width="256" xmlns="http://www.w3.org/2000/svg" height="256" viewBox="0 0 256 256" xmlns:xlink="http://www.w3.org/1999/xlink">
<g style="stroke:#a77b55">
<path style="fill:#a77b55" d="M 5.772949 37.763294 C 5.072754 37.692249 4.480957 37.005237 4.483887 36.269153 L 4.483887 7.971302 C 4.484619 7.189075 5.164307 6.477161 5.911377 6.476429 L 41.115234 6.476429 C 41.862305 6.477161 42.542725 7.189075 42.542725 7.971302 L 42.542725 33.642688 C 42.542725 34.424915 41.862305 35.137561 41.115234 35.137561 L 27.368408 35.137561 L 27.368408 36.269153 C 27.368408 37.05138 26.688721 37.763294 25.94165 37.763294 L 5.911377 37.763294 C 5.865234 37.766224 5.819092 37.766224 5.772949 37.763294 Z " transform="matrix(5.33333 0 0 5.33333 0 .15045)"/>
<path style="fill:#e9b080" d="M 3.013184 10.49596 C 2.185547 10.567005 1.485352 11.246692 1.489746 11.975452 L 1.489746 39.986927 C 1.489746 40.761829 2.293945 41.466419 3.177979 41.467151 L 44.822021 41.467151 C 45.706055 41.466419 46.510254 40.761829 46.510986 39.986927 L 46.510986 14.57555 C 46.510254 13.800647 45.706055 13.096058 44.822021 13.096058 L 28.560791 13.096058 L 28.560791 11.975452 C 28.560791 11.201282 27.756592 10.49596 26.872559 10.49596 L 3.177979 10.49596 C 3.123047 10.493763 3.068115 10.493763 3.013184 10.49596 Z " transform="matrix(5.33333 0 0 5.33333 0 .15045)"/>
</g>
<path style="fill:#a77b55" d="M 139.667969 110.167969 C 131.171875 110.167969 124.167969 116.609375 124.167969 124.667969 C 124.230469 127.433594 124.382812 130.933594 126 138.332031 L 126.167969 138.332031 C 126.492188 139.3125 126.996094 140.285156 127.832031 141.332031 C 128.585938 142.273438 129.582031 143.339844 130.5 144.332031 C 130.78125 146.425781 130.828125 148.253906 130.5 150.5 C 127.976562 152.414062 123.429688 154.203125 119.332031 155.832031 C 117.199219 156.683594 115.222656 157.46875 113.667969 158.5 C 112.179688 159.484375 111.105469 160.820312 111 162.5 C 110.996094 162.578125 110.832031 162.585938 110.832031 162.667969 L 109 176.832031 L 109 177 C 109 178.753906 110.167969 180.191406 111.832031 181.332031 C 113.496094 182.476562 115.753906 183.371094 118.5 184.167969 C 123.992188 185.761719 131.4375 186.667969 139.667969 186.667969 C 147.894531 186.667969 155.34375 185.761719 160.832031 184.167969 C 163.578125 183.371094 165.835938 182.476562 167.5 181.332031 C 169.164062 180.191406 170.332031 178.753906 170.332031 177 L 170.332031 176.832031 L 168.332031 162.667969 C 168.332031 162.613281 168.335938 162.554688 168.332031 162.5 C 168.285156 161.699219 167.996094 160.910156 167.5 160.332031 C 166.972656 159.71875 166.277344 159.316406 165.5 158.832031 C 163.949219 157.863281 161.96875 157.046875 159.832031 156.167969 C 155.683594 154.457031 151.144531 152.523438 148.667969 150.5 C 148.480469 148.566406 148.472656 146.597656 148.667969 144.667969 C 149.5625 143.609375 150.566406 142.515625 151.332031 141.5 C 152.183594 140.367188 152.832031 139.339844 153.167969 138.332031 C 154.988281 130.628906 155.070312 127.484375 155.167969 124.667969 C 155.167969 116.609375 148.160156 110.167969 139.667969 110.167969 Z M 110.832031 112.832031 C 103.859375 112.832031 98.167969 118.21875 98.167969 124.832031 C 98.21875 127.101562 98.339844 129.761719 99.667969 135.832031 L 99.667969 136 C 99.9375 136.8125 100.46875 137.460938 101.167969 138.332031 C 101.777344 139.09375 102.59375 140.035156 103.332031 140.832031 C 103.558594 142.507812 103.585938 144.203125 103.332031 146 C 101.273438 147.582031 97.539062 149 94.167969 150.332031 C 92.417969 151.023438 90.941406 151.660156 89.667969 152.5 C 88.460938 153.292969 87.601562 154.476562 87.5 155.832031 C 87.492188 155.914062 87.332031 155.921875 87.332031 156 L 85.667969 167.5 L 85.667969 167.667969 C 85.667969 168.75 86.183594 169.683594 87 170.5 C 87.816406 171.316406 88.949219 172.066406 90.332031 172.667969 C 93.0625 173.855469 96.957031 174.679688 101.667969 175.167969 L 101.832031 175.167969 C 102.089844 175.167969 102.34375 175.097656 102.5 175 C 102.691406 174.878906 102.917969 174.785156 103 174.667969 C 103.164062 174.4375 103.261719 174.207031 103.332031 174 C 103.457031 173.636719 103.484375 173.203125 103.5 172.832031 C 103.503906 172.78125 103.5 172.71875 103.5 172.667969 L 105.332031 158.5 C 105.332031 157.921875 105.730469 157.222656 106.667969 156.5 C 107.601562 155.777344 109.015625 155.046875 110.667969 154.332031 C 113.96875 152.902344 118.152344 151.574219 121.5 149.832031 L 123.332031 148.832031 L 121.5 148 C 120.175781 147.359375 119.164062 146.652344 118.332031 146 C 118.171875 144.355469 118.160156 142.640625 118.332031 141 C 118.339844 140.945312 118.328125 140.886719 118.332031 140.832031 C 119.605469 139.121094 120.570312 137.347656 121 136.332031 L 121.167969 136 L 121 135.667969 C 120.855469 134.839844 120.902344 134.210938 120.667969 133.5 C 119.070312 126.191406 118.894531 123.175781 118.832031 120.5 C 118.832031 119.375 119.097656 118.066406 119.5 116.832031 L 119.832031 116.167969 L 119.167969 115.832031 C 116.941406 114.054688 113.996094 112.832031 110.832031 112.832031 Z "/>
</svg>
