<svg xmlns="http://www.w3.org/2000/svg" viewBox="0 0 256 256">
 <defs>
  <radialGradient id="radialGradient3816" cx="-25" cy="203.5" r="35" gradientTransform="matrix(1,0,0,0.78571429,0,43.607143)" gradientUnits="userSpaceOnUse">
   <stop style="stop-color:#000;stop-opacity:1"/>
   <stop offset="1" style="stop-color:#000;stop-opacity:0"/>
  </radialGradient>
 </defs>
 <g transform="translate(0,-796.3622)">
  <path d="m 10 203.5 a 35 27.5 0 1 1 -70 0 35 27.5 0 1 1 70 0 z" transform="matrix(5.0857143,0,0,1.0909091,255.14286,788.3622)" style="fill:url(#radialGradient3816);opacity:0.55;fill-opacity:1;stroke:none"/>
  <path d="m 0 832.6 0 171.29 256 0 0 -85.65 -12.19 -73.41 l -95.81 -0.47 l -12 -24 -123.81 0 c -6.095 0 -12.19 6.118 -12.19 12.235 z" style="fill:#512da8;fill-opacity:1;stroke:none"/>
  <rect width="126.29" height="47.529" x="20" y="852.36" style="fill:#fffdf0;fill-opacity:1;stroke:none"/>
  <path d="m 12.25 820.36 c -6.095 0 -12.25 6.132 -12.25 12.25 l 0 8 c 0 -6.118 6.155 -12.25 12.25 -12.25 l 119.75 0 12 24 99.75 0.5 12.25 73.38 0 -8 -12.25 -73.38 -95.75 -0.5 -12 -24 z" style="fill:#000;opacity:0.03;fill-opacity:1;stroke:none"/>
  <path d="m 256 857.07 0 171.29 -256 0 0 -160 120 0 12 -24 111.81 0.47 c 6.095 0 12.19 6.118 12.19 12.236 z" style="fill:#7e57c2;fill-opacity:1;stroke:none"/>
  <path d="m 0 1020.36 0 8 256 0 0 -8 z" style="fill:#000;opacity:0.15;fill-opacity:1;stroke:none"/>
  <path d="m 132 844.36 -12 24 -120 0 0 8 124 0 12 -24 107.75 0.5 c 6.095 0 12.25 6.132 12.25 12.25 l 0 -8 c 0 -6.118 -6.155 -12.25 -12.25 -12.25 z" style="fill:#000;opacity:0.03;fill-opacity:1;stroke:none"/>
  <path d="m 122 900.36 c -20.474 0 -42 21.529 -42 48 c 0 26.471 21.528 48 42 48 32.47 0 53.998 -21.528 53.998 -48 0 -26.471 -21.528 -48 -48 -48 z m 9.898 6.751 c 4.474 0.414 8.809 1.435 12.75 3.15 -0.303 0.38 -0.538 0.712 -0.75 1.35 -1.212 3.636 -3.02 1.903 -0.9 6.448 2.121 4.545 3.894 5.72 4.5 3.599 0.606 -2.12 -1.524 -5.112 0.9 -3.9 2.424 1.212 4.218 -0.328 2.4 2.402 -1.818 2.727 -1.779 4.206 -3.9 3.599 -2.121 -0.607 -2.079 3.595 -4.2 4.201 -2.121 0.607 -2.85 -0.915 -2.85 0.6 0 1.514 1.203 0.124 0.9 2.55 -0.092 0.742 -0.065 0.875 -0.15 1.2 -1.991 -0.57 -2.879 -0.886 -4.35 -0.308 -1.515 0.607 -3.3 4.501 -3.3 4.501 1.893 1.893 2.771 3.256 3.45 3.9 -0.424 0.212 -0.933 0.3 -1.35 0.601 -3.03 2.122 -5.391 2.521 -6.3 5.549 -0.909 3.033 -0.6 0.256 -0.6 3.9 0 3.637 -0.918 1.166 0.9 4.501 1.818 3.334 6.279 4.931 8.4 6.75 2.121 1.817 4.307 -3.956 8.55 1.5 4.243 5.454 4.515 3.269 3 6.301 -1.515 3.03 -2.994 4.04 -3.6 5.249 -0.606 1.212 1.179 5.392 3.3 6.3 0.044 0 0.102 0 0.15 0 -0.113 0.26 -0.188 0.492 -0.3 0.752 -2.747 1.248 -6.114 2.969 -6.75 3.15 -1.5 0.432 -6.793 1.327 -10.65 2.399 -0.482 0.136 -0.862 0.136 -1.05 0.156 0.48 -0.522 4.271 -2.504 6.15 -3.599 2.571 -1.503 -0.15 -1.35 -0.15 -1.35 0 0 -4.093 -0.456 -12.45 -0.456 -4.179 0 -5.989 0.188 -6.9 0.456 -0.455 0.136 -0.679 0.272 -0.9 0.45 -0.221 0.188 -0.375 0.384 -0.75 0.6 -1.5 0.857 0.879 1.757 -1.05 2.399 -1.446 0.48 -1.615 0 -2.85 -0.904 0.881 -0.876 2.097 -1.932 3.6 -3.75 2.727 -3.3 3.591 -2.699 4.5 -5.699 0.909 -3 -7.65 -2.1 -7.65 -3.9 0 -1.8 -1.473 -3 -4.2 -4.2 -2.727 -1.201 -0.87 -1.801 -3.9 -2.701 -3.03 -0.896 -6.441 4.5 -7.35 2.701 -0.909 -1.801 2.85 -1.801 2.85 -3.9 0 -2.05 -4.322 1.547 -5.1 -1.05 -0.02 -0.096 -0.135 -0.096 -0.15 -0.156 -0.076 -0.38 -0.027 -0.6 0 -0.896 0.191 -2.158 2.689 -2.999 3.75 -5.1 1.212 -2.398 0.585 1.802 2.1 3.901 1.515 2.1 0.909 -2.7 0 -5.4 -0.909 -2.701 0.579 -2.7 2.7 -6.3 2.121 -3.601 2.1 -5.7 2.1 -8.401 0 -2.699 1.47 -2.998 4.5 -5.7 1.389 -1.236 2.479 -2.315 3.3 -3.299 0.199 -0.096 0.399 -0.096 0.6 -0.156 3.214 -1.286 4.564 -3.214 7.35 -9 2.786 -5.784 -1.093 -0.384 -1.95 -0.6 -0.857 -0.212 -2.1 -1.735 -5.1 -3.45 -0.619 -0.352 -1.171 -0.522 -1.65 -0.594 l 5.55 -9.15 c 1.778 -0.48 3.686 -0.809 5.55 -1.051 0.682 3.88 0.3 7.501 0.3 7.501 0 0 -1.05 1.242 -1.05 2.1 0 0.857 5.743 -7.07 6.6 -7.5 0.857 -0.432 3.02 2.272 3.45 -1.8 0.024 -0.236 -0.027 -0.24 0 -0.45 z m 8.1 16.2 c -0.308 -0.096 -0.671 -0.001 -1.05 0.156 0 1.061 -0.411 1.832 -0.6 2.249 -0.113 -0.192 -0.45 -0.45 -0.45 -0.45 -0.454 0.838 -1.435 1.578 -0.45 1.35 0.985 -0.22 1.732 0.384 1.05 -0.45 -0.131 -0.156 -0.069 -0.092 -0.15 -0.156 0.128 0.096 0.37 0.156 0.9 0.156 0.597 0 0.917 0 1.35 0 -0.732 0.54 -1.53 0.77 -0.45 1.05 1.439 0.38 2.1 0.456 2.1 0.156 0 -0.3 -0.45 -1.35 -0.45 -1.35 0.281 -0.116 0.542 -0.256 0.3 -0.751 -0.455 -0.905 -1.177 -1.808 -2.1 -1.949 z m 22.95 2.548 c 0.75 1.165 1.467 2.362 2.1 3.601 -0.417 2.42 -1.477 4.05 0.3 4.05 0.497 0 0.94 -0.108 1.35 -0.156 0.056 0.144 0.096 0.308 0.15 0.45 -3.03 0 -4.485 0.906 -6 0.6 -1.515 -0.308 -5.727 -0.576 -3 -3.299 1.594 -1.595 3.585 -4.128 5.1 -5.251 z m -18.9 5.552 c 0.279 0.092 0.523 0.38 0.75 0.894 0.909 2.122 2.412 3.898 1.2 4.201 -1.212 0.3 -1.8 0.601 -1.8 0.601 0 0 4.197 2.729 4.5 -0.3 0.303 -3.03 -1.2 -4.802 -1.2 -4.802 0 0 2.094 2.089 2.7 3.301 0.606 1.212 0.585 0 2.1 1.501 1.515 1.514 1.179 -6.02 3.3 -3.901 2.121 2.121 3.456 2.085 2.85 3.6 -0.606 1.514 3.9 -1.83 3.9 1.2 0 2.922 1.863 4.107 -1.8 5.55 -1.387 -0.096 -2.485 -0.328 -2.7 -0.752 -0.606 -1.211 -4.05 -0.3 -4.05 -0.3 -9.07 -2.266 -13 -2.984 -15.6 -2.549 0.049 -0.096 0.097 -0.096 0.15 -0.156 1.326 -2.388 3.82 -5.704 3 -6.9 1.155 -0.665 2.061 -1.395 2.7 -1.201 z m 25.5 15.15 c 0.027 0.607 0 1.185 0 1.8 0 1.706 -0.102 3.448 -0.3 5.1 -2.726 -2.426 -6.6 -2.399 -6.6 -2.399 0 0 2.367 -2.688 5.7 -3.901 0.417 -0.156 0.863 -0.356 1.2 -0.6 z" style="fill:#54398d;opacity:1;fill-opacity:1;color:#000"/>
 </g>
</svg>
