<svg xmlns="http://www.w3.org/2000/svg" viewBox="0 0 256 256">
 <defs>
  <radialGradient id="radialGradient3816" cx="-25" cy="203.5" r="35" gradientTransform="matrix(1,0,0,0.78571429,0,43.607143)" gradientUnits="userSpaceOnUse">
   <stop style="stop-color:#000;stop-opacity:1"/>
   <stop offset="1" style="stop-color:#000;stop-opacity:0"/>
  </radialGradient>
 </defs>
 <g transform="translate(0,-796.3622)">
  <path d="m 10 203.5 a 35 27.5 0 1 1 -70 0 35 27.5 0 1 1 70 0 z" transform="matrix(5.0857143,0,0,1.0909091,255.14286,788.3622)" style="fill:url(#radialGradient3816);opacity:0.55;fill-opacity:1;stroke:none"/>
  <path d="m 0 832.6 0 171.29 256 0 0 -85.65 -12.19 -73.41 l -95.81 -0.47 l -12 -24 -123.81 0 c -6.095 0 -12.19 6.118 -12.19 12.235 z" style="fill:#512da8;fill-opacity:1;stroke:none"/>
  <rect width="126.29" height="47.529" x="20" y="852.36" style="fill:#fffdf0;fill-opacity:1;stroke:none"/>
  <path d="m 12.25 820.36 c -6.095 0 -12.25 6.132 -12.25 12.25 l 0 8 c 0 -6.118 6.155 -12.25 12.25 -12.25 l 119.75 0 12 24 99.75 0.5 12.25 73.38 0 -8 -12.25 -73.37 -95.75 -0.5 -12 -24 z" style="fill:#000;opacity:0.03;fill-opacity:1;stroke:none"/>
  <path d="m 256 857.07 0 171.29 -256 0 0 -160 120 0 12 -24 111.81 0.47 c 6.095 0 12.19 6.118 12.19 12.236 z" style="fill:#7e57c2;fill-opacity:1;stroke:none"/>
  <path d="m 0 1020.36 0 8 256 0 0 -8 z" style="fill:#000;opacity:0.15;fill-opacity:1;stroke:none"/>
  <g transform="matrix(8,0,0,8,64,884.3624)" style="fill:#54398d;opacity:1;fill-opacity:1">
   <path d="M 4,1 C 2.892,1 2,1.892 2,3 l 0,10 c 0,1.108 0.892,2 2,2 l 8,0 c 1.108,0 2,-0.892 2,-2 L 14,6 9,1 z m 0,2 6,0 1,1 1,1 0,8 -8,0 z" style="stroke:none"/>
   <path d="m 9 1 0 5 5 0 z" style="stroke:none"/>
   <rect rx="0.25" y="7" x="5" height="1" width="4" style="stroke:none"/>
   <rect width="6" height="1" x="5" y="9" rx="0.25" style="stroke:none"/>
   <rect rx="0.25" y="11" x="5" height="1" width="6" style="stroke:none"/>
  </g>
  <path d="m 132 844.36 -12 24 -120 0 0 8 124 0 12 -24 107.75 0.5 c 6.095 0 12.25 6.132 12.25 12.25 l 0 -8 c 0 -6.118 -6.155 -12.25 -12.25 -12.25 z" style="fill:#000;opacity:0.03;fill-opacity:1;stroke:none"/>
 </g>
</svg>
