<?xml version="1.0" encoding="UTF-8" standalone="no"?>
<svg
   xmlns:dc="http://purl.org/dc/elements/1.1/"
   xmlns:cc="http://creativecommons.org/ns#"
   xmlns:rdf="http://www.w3.org/1999/02/22-rdf-syntax-ns#"
   xmlns:svg="http://www.w3.org/2000/svg"
   xmlns="http://www.w3.org/2000/svg"
   xmlns:sodipodi="http://sodipodi.sourceforge.net/DTD/sodipodi-0.dtd"
   xmlns:inkscape="http://www.inkscape.org/namespaces/inkscape"
   viewBox="0 0 16 16"
   id="svg2"
   version="1.1"
   inkscape:version="0.91 r13725"
   width="100%"
   height="100%"
   sodipodi:docname="transform-scale.svg">
  <metadata
     id="metadata10">
    <rdf:RDF>
      <cc:Work
         rdf:about="">
        <dc:format>image/svg+xml</dc:format>
        <dc:type
           rdf:resource="http://purl.org/dc/dcmitype/StillImage" />
        <dc:title></dc:title>
      </cc:Work>
    </rdf:RDF>
  </metadata>
  <defs
     id="defs8" />
  <sodipodi:namedview
     pagecolor="#ffffff"
     bordercolor="#666666"
     borderopacity="1"
     objecttolerance="10"
     gridtolerance="10"
     guidetolerance="10"
     inkscape:pageopacity="0"
     inkscape:pageshadow="2"
     inkscape:window-width="1366"
     inkscape:window-height="704"
     id="namedview6"
     showgrid="false"
     inkscape:zoom="22.627417"
     inkscape:cx="1.185496"
     inkscape:cy="6.3300829"
     inkscape:window-x="0"
     inkscape:window-y="27"
     inkscape:window-maximized="1"
     inkscape:current-layer="svg2"
     inkscape:snap-intersection-paths="true"
     inkscape:object-nodes="true">
    <inkscape:grid
       type="xygrid"
       id="grid2987" />
  </sodipodi:namedview>
  <rect
     style="opacity:1;fill:#6c71c4;fill-opacity:1;stroke:none;stroke-width:4;stroke-linecap:round;stroke-linejoin:round;stroke-miterlimit:4;stroke-dasharray:none;stroke-opacity:1"
     id="rect4134"
     width="6"
     height="6"
     x="1"
     y="-15"
     transform="scale(1,-1)" />
  <path
     style="opacity:1;fill:#6c71c4;fill-opacity:1;stroke:none;stroke-width:4;stroke-linecap:round;stroke-linejoin:round;stroke-miterlimit:4;stroke-dasharray:none;stroke-opacity:1"
     d="m 8,15 0,-1 1,0 0,1 -1,0 z m 2,0 0,-1 1,0 0,1 -1,0 z m 2,0 0,-1 1,0 0,1 -1,0 z m 2,0 0,-1 1,0 0,1 -1,0 z m 0,-2 0,-1 1,0 0,1 -1,0 z m 0,-2 0,-1 1,0 0,1 -1,0 z m 0,-2 0,-1 1,0 0,1 -1,0 z M 1,8 1,7 2,7 2,8 1,8 Z m 13,-1 0,-1 1,0 0,1 -1,0 z M 1,6 1,5 2,5 2,6 1,6 Z m 13,-1 0,-1 1,0 0,1 -1,0 z M 1,4 1,3 2,3 2,4 1,4 Z m 13,-1 0,-1 -1,0 0,-1 2,0 0,2 -1,0 z M 1,2 1,1 2,1 2,2 1,2 Z M 3,2 3,1 4,1 4,2 3,2 Z M 5,2 5,1 6,1 6,2 5,2 Z M 7,2 7,1 8,1 8,2 7,2 Z m 2,0 0,-1 1,0 0,1 -1,0 z m 2,0 0,-1 1,0 0,1 -1,0 z"
     id="rect4182"
     inkscape:connector-curvature="0" />
  <path
     style="opacity:1;fill:#6c71c4;fill-opacity:1;stroke:none;stroke-width:4;stroke-linecap:round;stroke-linejoin:round;stroke-miterlimit:4;stroke-dasharray:none;stroke-opacity:1"
     d="m 13,3 0,3 -1.146484,-1.1464844 -3.0000004,3 L 10,9 7,9 7,6 l 1.1464844,1.1464844 2.9999996,-3 L 10,3 13,3 Z"
     id="rect4254"
     inkscape:connector-curvature="0" />
</svg>
