<?xml version="1.0" encoding="UTF-8" standalone="no"?>
<svg
   xmlns:dc="http://purl.org/dc/elements/1.1/"
   xmlns:cc="http://creativecommons.org/ns#"
   xmlns:rdf="http://www.w3.org/1999/02/22-rdf-syntax-ns#"
   xmlns:svg="http://www.w3.org/2000/svg"
   xmlns="http://www.w3.org/2000/svg"
   xmlns:sodipodi="http://sodipodi.sourceforge.net/DTD/sodipodi-0.dtd"
   xmlns:inkscape="http://www.inkscape.org/namespaces/inkscape"
   width="16"
   height="16"
   id="svg2"
   version="1.1"
   inkscape:version="0.91 r"
   sodipodi:docname="wrapped.svg">
  <metadata
     id="metadata10">
    <rdf:RDF>
      <cc:Work
         rdf:about="">
        <dc:format>image/svg+xml</dc:format>
        <dc:type
           rdf:resource="http://purl.org/dc/dcmitype/StillImage" />
      </cc:Work>
    </rdf:RDF>
  </metadata>
  <defs
     id="defs8" />
  <sodipodi:namedview
     pagecolor="#ffffff"
     bordercolor="#666666"
     borderopacity="1"
     objecttolerance="10"
     gridtolerance="10"
     guidetolerance="10"
     inkscape:pageopacity="0"
     inkscape:pageshadow="2"
     inkscape:window-width="1920"
     inkscape:window-height="1056"
     id="namedview6"
     showgrid="true"
     inkscape:zoom="14.75"
     inkscape:cx="8"
     inkscape:cy="8"
     inkscape:window-x="0"
     inkscape:window-y="24"
     inkscape:window-maximized="1"
     inkscape:current-layer="svg2">
    <inkscape:grid
       type="xygrid"
       id="grid4138" />
  </sodipodi:namedview>
  <path
     d="M 13,3.0000001 12.999995,13 c 0,3 0,3 -3.0000024,3 l -4.0000032,0 c -3.0000025,0 -3.0000025,0 -3.0000025,-3 0,-1.124967 0.0095,-1.437531 0.0095,-2.562498 C 2.6881166,10.813294 2.2147762,11.16285 1.6949658,10.966645 0.93997512,10.758298 0.75222496,9.668996 1.3703255,9.20166 2.2485562,8.3308281 3.108627,7.8477271 4.0094477,7.0000001 c 0.9501808,0.898484 1.8637616,1.42853 2.7871425,2.3542069 0.5622005,0.607961 0.0578,1.733859 -0.7798106,1.686082 -0.4353106,0.01962 -0.7308808,-0.319888 -1.0072911,-0.602787 0.0122,1.25616 -0.05385,1.30825 -0.0095,2.562498 0,1 0,1 1.0000009,1 l 4.0000032,0 c 1.0000004,0 1.0000004,0 1.0000004,-1 10e-6,-2.291939 5e-6,-9.9999999 5e-6,-9.9999999 0,-1 0,-1 -1.0000004,-1 l -4.0000032,0 c -1.0000009,0 -1.0000009,0 -1.0000009,1 l 0,1 c 0,1 0,1 -1.0000008,1 -1.0000008,0 -1.0000008,0 -1.0000008,-1 l 0,-1 c 0,-3 0,-3 3.0000025,-3 l 4.0000032,0 C 13,1e-7 13,1e-7 13,3.0000001 Z"
     id="path4"
     inkscape:connector-curvature="0"
     style="color:#bebebe;fill:#268bd2" />
</svg>
